<svg xmlns="http://www.w3.org/2000/svg" width="100" height="100" version="1.1"><rect id="backgroundrect" width="100%" height="100%" x="0" y="0" fill="none" stroke="none"/>




<g class="currentLayer"><title>Layer 1</title><path fill="#ffffff" opacity="1.00" d=" M 49.02 2.33 C 51.11 5.39 52.09 8.99 52.10 12.68 C 49.57 9.81 47.81 6.21 49.02 2.33 Z" id="svg_1" class="selected" fill-opacity="1"/><path fill="#ffffff" opacity="1.00" d=" M 46.63 11.52 C 50.24 18.32 55.27 24.16 59.42 30.60 C 63.31 36.19 61.11 43.28 61.47 49.58 C 65.38 48.51 69.25 47.31 73.10 46.04 C 74.95 51.33 76.20 57.32 73.50 62.57 C 70.96 67.34 67.51 72.64 61.85 73.86 C 55.07 75.59 48.01 77.18 40.98 76.13 C 36.96 75.73 35.40 71.48 33.23 68.70 C 30.32 63.96 25.68 60.25 23.86 54.89 C 24.17 47.72 29.46 42.20 33.54 36.75 C 33.82 39.00 34.08 41.24 34.35 43.48 C 38.86 38.25 44.31 33.57 47.31 27.23 C 49.66 22.16 47.32 16.69 46.63 11.52 M 51.54 25.88 C 50.06 29.65 48.84 33.85 45.47 36.42 C 40.75 40.17 36.28 44.25 32.59 49.05 C 31.73 47.63 30.87 46.20 30.00 44.78 C 29.04 47.74 28.07 50.68 27.11 53.63 C 32.13 58.79 36.18 64.84 41.69 69.53 C 41.83 64.86 40.88 60.16 41.46 55.51 C 43.53 52.55 46.58 50.47 49.23 48.08 C 51.14 48.72 53.03 49.36 54.93 50.00 C 55.92 45.77 57.62 41.59 57.59 37.20 C 56.46 33.04 53.66 29.58 51.54 25.88 M 54.36 55.16 C 54.02 53.61 53.66 52.06 53.31 50.51 C 51.26 52.44 49.08 54.36 47.81 56.92 C 47.25 58.36 45.58 60.39 47.77 61.25 C 51.94 64.60 56.85 60.38 60.98 59.02 C 60.34 62.67 59.70 66.31 59.20 69.97 C 62.67 68.42 66.64 67.19 69.08 64.09 C 71.60 59.56 69.99 54.27 68.95 49.57 C 64.00 51.19 59.12 53.04 54.36 55.16 Z" id="svg_2" class="selected" fill-opacity="1"/><path fill="#ffffff" opacity="1.00" d=" M 34.10 24.38 C 38.16 24.36 40.97 21.03 44.13 18.97 C 43.58 25.52 38.17 30.00 32.73 32.82 C 28.37 35.01 25.79 39.28 23.16 43.18 C 20.73 46.90 17.57 50.06 14.45 53.19 C 18.24 57.18 21.87 61.35 25.99 65.02 C 28.74 67.55 31.71 69.97 33.64 73.22 C 35.28 75.82 36.61 78.88 39.50 80.35 C 43.29 82.49 46.65 85.27 49.77 88.28 C 53.40 85.04 56.76 81.33 61.11 79.03 C 65.33 77.45 69.94 78.40 74.33 78.28 C 74.25 68.93 78.34 59.80 84.70 53.06 C 80.69 49.15 77.30 44.64 73.12 40.92 C 66.44 35.32 61.00 28.24 57.14 20.44 C 59.97 21.90 62.67 23.95 65.94 24.29 C 70.04 24.70 74.17 24.41 78.28 24.34 C 78.33 29.22 78.04 34.11 78.42 38.98 C 78.43 41.24 80.00 42.97 81.44 44.52 C 84.30 47.48 87.32 50.28 90.26 53.15 C 87.40 56.01 84.44 58.77 81.65 61.70 C 80.24 63.27 78.58 64.95 78.46 67.19 C 78.00 72.14 78.36 77.12 78.31 82.08 C 72.73 82.21 67.02 81.38 61.54 82.62 C 56.87 85.56 53.52 90.13 49.62 93.96 C 45.56 90.20 42.17 85.61 37.47 82.61 C 32.02 81.42 26.37 82.18 20.83 81.99 C 20.69 76.51 21.46 70.93 20.35 65.53 C 17.33 60.72 12.61 57.29 8.80 53.15 C 12.67 48.97 17.63 45.60 20.44 40.58 C 21.36 35.23 20.73 29.75 20.91 24.34 C 25.30 24.40 29.71 24.64 34.10 24.38 M 24.56 28.07 C 24.61 31.01 24.69 33.95 24.81 36.89 C 27.84 34.12 30.77 31.24 33.65 28.31 C 30.62 28.21 27.59 28.14 24.56 28.07 M 65.44 28.26 C 68.39 31.36 71.41 34.39 74.49 37.35 C 74.57 34.28 74.61 31.21 74.68 28.14 C 71.60 28.16 68.52 28.19 65.44 28.26 M 24.76 69.41 C 24.66 72.39 24.61 75.37 24.56 78.36 C 27.57 78.31 30.57 78.26 33.57 78.17 C 30.72 75.16 27.79 72.23 24.76 69.41 Z" id="svg_3" class="selected" fill-opacity="1"/><path fill="#ffffff" opacity="0.89" d=" M 47.76 82.15 C 49.62 82.00 51.49 81.85 53.36 81.72 C 52.45 82.90 51.53 84.08 50.61 85.27 C 49.65 84.23 48.70 83.19 47.76 82.15 Z" id="svg_4" class="selected" fill-opacity="1"/></g></svg>