<svg xmlns="http://www.w3.org/2000/svg" width="100" height="100" version="1.1"><rect id="backgroundrect" width="100%" height="100%" x="0" y="0" fill="none" stroke="none"/>









<g class="currentLayer"><title>Layer 1</title><path fill="#ffffff" opacity="1.00" d=" M 50.74 9.25 C 52.37 15.38 51.59 21.74 51.92 28.00 C 52.29 35.48 52.26 42.98 52.43 50.47 C 55.00 52.23 57.73 53.85 59.90 56.12 C 62.51 58.89 63.06 62.82 64.03 66.34 C 60.95 66.60 57.87 66.76 54.78 66.91 C 53.48 70.43 51.89 74.07 52.26 77.91 C 52.79 80.59 54.43 82.87 55.72 85.23 C 53.84 86.03 52.02 87.02 50.00 87.41 C 47.93 87.06 46.04 86.10 44.11 85.34 C 45.46 82.93 47.30 80.65 47.78 77.87 C 47.95 74.07 46.66 70.42 45.59 66.84 C 42.54 66.79 39.50 66.71 36.46 66.63 C 36.93 63.87 37.14 60.97 38.43 58.44 C 40.48 54.89 44.49 53.23 47.10 50.20 C 48.78 45.12 48.13 39.59 48.63 34.31 C 49.38 25.96 49.15 17.51 50.74 9.25 Z" id="svg_1" class="selected" fill-opacity="1"/><path fill="#ffffff" opacity="1.00" d=" M 29.03 16.12 C 31.84 15.41 35.66 11.77 38.04 14.98 C 40.26 17.45 42.87 19.53 45.55 21.47 C 43.39 21.53 41.23 21.58 39.07 21.59 C 38.61 29.42 37.93 37.26 38.52 45.11 C 39.91 44.28 41.29 43.43 42.66 42.58 C 43.49 43.51 44.32 44.43 45.16 45.35 C 42.94 47.06 40.44 48.48 38.57 50.58 C 36.60 54.05 35.88 58.15 33.43 61.38 C 30.59 65.70 26.05 68.37 21.82 71.14 C 18.43 68.86 14.55 67.00 12.02 63.69 C 11.30 60.89 13.02 57.80 15.82 57.06 C 18.86 56.42 21.98 56.25 25.05 55.79 C 22.96 51.96 20.04 47.84 21.13 43.24 C 21.81 40.28 25.17 39.56 27.46 38.25 C 28.59 30.92 28.63 23.51 29.03 16.12 M 22.54 44.85 C 22.07 48.00 24.90 49.78 27.17 51.23 C 26.22 49.31 25.18 47.43 24.11 45.57 C 25.80 45.38 27.49 45.20 29.17 45.00 C 28.87 43.67 28.55 42.34 28.23 41.01 C 26.12 41.76 22.38 41.75 22.54 44.85 Z" id="svg_2" class="selected" fill-opacity="1"/><path fill="#ffffff" opacity="1.00" d=" M 55.38 21.58 C 58.82 19.39 61.98 16.76 64.45 13.49 C 66.83 14.43 69.27 15.29 71.46 16.64 C 73.21 23.98 71.82 31.70 73.32 39.13 C 75.53 40.23 78.83 40.68 79.46 43.54 C 80.50 48.36 77.38 52.71 75.71 57.01 C 78.66 57.21 81.68 56.83 84.56 57.57 C 87.40 58.54 89.20 61.80 88.12 64.69 C 85.46 67.61 81.93 69.51 78.75 71.78 C 74.64 69.17 70.27 66.61 67.46 62.50 C 64.70 58.93 63.44 54.55 62.05 50.33 C 59.33 48.85 56.78 47.05 54.67 44.77 C 57.15 44.25 59.69 44.24 62.19 44.62 C 62.65 37.12 62.32 29.61 61.81 22.12 C 59.66 21.95 57.52 21.77 55.38 21.58 M 71.76 42.08 C 71.56 43.21 71.35 44.35 71.14 45.49 C 72.84 45.73 74.53 45.98 76.23 46.22 C 75.22 47.98 74.19 49.74 73.23 51.54 C 75.74 50.33 78.72 48.51 77.96 45.22 C 78.05 41.86 74.04 42.34 71.76 42.08 Z" id="svg_3" class="selected" fill-opacity="1"/><path fill="#ffffff" opacity="1.00" d=" M 41.58 34.47 C 42.75 31.61 44.91 29.31 46.82 26.92 C 46.51 29.81 46.54 32.81 45.51 35.57 C 44.47 37.53 42.74 38.99 41.19 40.53 C 41.25 38.51 41.12 36.46 41.58 34.47 Z" id="svg_4" class="selected" fill-opacity="1"/><path fill="#ffffff" opacity="1.00" d=" M 54.46 28.27 C 56.13 30.27 57.97 32.20 59.11 34.57 C 59.76 36.53 59.35 38.64 59.37 40.66 C 57.88 39.10 56.03 37.71 55.19 35.66 C 54.54 33.26 54.60 30.74 54.46 28.27 Z" id="svg_5" class="selected" fill-opacity="1"/><path fill="#ffffff" opacity="1.00" d=" M 4.85 50.04 C 8.65 49.76 12.46 49.29 16.28 49.29 C 17.97 49.27 18.96 50.87 19.29 52.34 C 17.56 53.03 15.83 53.70 14.10 54.38 C 12.90 56.02 11.77 57.71 10.71 59.44 C 8.59 56.41 6.64 53.27 4.85 50.04 Z" id="svg_6" class="selected" fill-opacity="1"/><path fill="#ffffff" opacity="1.00" d=" M 82.19 49.14 C 86.56 49.44 90.92 49.72 95.29 50.03 C 93.49 53.39 91.52 56.65 89.33 59.78 C 87.83 58.19 86.82 56.25 86.52 54.08 C 84.97 53.66 83.40 53.27 81.85 52.87 C 81.96 51.62 82.07 50.38 82.19 49.14 Z" id="svg_7" class="selected" fill-opacity="1"/><path fill="#ffffff" opacity="1.00" d=" M 29.18 71.23 C 34.23 73.61 39.44 75.64 44.79 77.23 C 44.76 78.51 44.72 79.79 44.68 81.07 C 37.91 80.22 31.56 77.56 25.83 73.93 C 26.94 73.03 28.06 72.13 29.18 71.23 Z" id="svg_8" class="selected" fill-opacity="1"/><path fill="#ffffff" opacity="1.00" d=" M 68.43 72.43 C 70.42 71.51 72.46 72.74 74.39 73.24 C 69.14 77.90 62.31 80.13 55.46 81.02 C 55.36 79.77 55.27 78.52 55.17 77.27 C 59.73 76.04 64.05 74.14 68.43 72.43 Z" id="svg_9" class="selected" fill-opacity="1"/></g></svg>