<?xml version="1.0" encoding="UTF-8" ?>
<!DOCTYPE svg PUBLIC "-//W3C//DTD SVG 1.1//EN" "http://www.w3.org/Graphics/SVG/1.1/DTD/svg11.dtd">
<svg width="100pt" height="100pt" viewBox="0 0 100 100" version="1.1" xmlns="http://www.w3.org/2000/svg">
<path fill="#b9bcba" opacity="1.00" d=" M 19.06 19.49 C 22.66 19.59 25.36 16.40 28.96 16.47 C 34.82 16.33 40.08 19.77 45.94 19.62 C 49.87 19.61 53.82 19.81 57.74 19.44 C 62.84 18.59 67.72 15.98 73.02 16.56 C 75.92 16.93 77.97 19.74 80.98 19.70 C 85.57 19.87 90.17 19.62 94.76 19.85 C 91.91 24.55 88.64 28.97 85.43 33.42 C 83.84 35.68 82.02 38.04 82.03 40.95 C 81.54 48.71 81.35 56.49 81.05 64.27 C 75.67 65.51 70.59 61.94 65.31 63.10 C 59.64 69.11 55.71 76.60 50.67 83.15 C 45.86 77.28 41.91 70.76 37.26 64.77 C 35.31 61.76 31.31 62.80 28.43 63.55 C 25.53 64.56 22.46 64.48 19.45 64.10 C 19.50 56.38 18.98 48.67 18.60 40.97 C 18.64 38.16 16.78 35.93 15.25 33.76 C 11.76 29.01 8.31 24.22 4.94 19.38 C 9.64 19.31 14.35 19.62 19.06 19.49 M 21.65 22.34 C 18.34 23.13 14.89 22.81 11.53 23.00 C 14.40 28.70 20.46 33.07 20.39 39.95 C 20.77 47.42 20.85 54.90 21.39 62.36 C 24.67 62.42 27.87 61.70 31.06 61.09 C 34.52 60.40 38.66 61.10 40.78 64.19 C 44.14 68.60 46.95 73.43 50.76 77.50 C 54.80 72.59 57.47 66.58 62.08 62.16 C 67.40 59.01 73.42 62.62 79.09 62.44 C 79.73 54.61 80.00 46.76 80.28 38.92 C 80.19 32.54 85.75 28.33 88.41 23.02 C 84.55 22.66 80.17 23.61 76.84 21.16 C 75.00 20.13 73.27 18.51 71.02 18.65 C 65.66 18.48 60.97 21.46 55.82 22.35 C 51.98 22.65 48.09 22.69 44.26 22.25 C 38.87 21.12 33.75 17.95 28.06 18.79 C 25.74 19.62 23.89 21.34 21.65 22.34 Z" />
<path fill="#8a1b6c" opacity="1.00" d=" M 21.65 22.34 C 23.89 21.34 25.74 19.62 28.06 18.79 C 33.75 17.95 38.87 21.12 44.26 22.25 C 48.09 22.69 51.98 22.65 55.82 22.35 C 60.97 21.46 65.66 18.48 71.02 18.65 C 73.27 18.51 75.00 20.13 76.84 21.16 C 80.17 23.61 84.55 22.66 88.41 23.02 C 85.75 28.33 80.19 32.54 80.28 38.92 C 80.00 46.76 79.73 54.61 79.09 62.44 C 73.42 62.62 67.40 59.01 62.08 62.16 C 57.47 66.58 54.80 72.59 50.76 77.50 C 46.95 73.43 44.14 68.60 40.78 64.19 C 38.66 61.10 34.52 60.40 31.06 61.09 C 27.87 61.70 24.67 62.42 21.39 62.36 C 20.85 54.90 20.77 47.42 20.39 39.95 C 20.46 33.07 14.40 28.70 11.53 23.00 C 14.89 22.81 18.34 23.13 21.65 22.34 M 27.17 21.27 C 26.66 26.23 27.26 31.26 26.49 36.21 C 26.06 32.05 25.80 27.87 25.38 23.71 C 25.18 31.31 23.67 39.31 26.42 46.61 C 25.58 49.69 25.96 52.92 25.95 56.06 C 29.52 55.30 33.12 54.70 36.72 54.11 C 41.21 56.14 46.00 57.92 49.42 61.64 C 45.15 60.01 41.26 57.41 36.80 56.26 C 32.85 55.29 28.82 56.47 25.03 57.58 C 24.13 47.26 24.19 36.89 23.24 26.58 C 20.74 29.92 22.05 34.25 22.07 38.07 C 22.77 45.53 22.40 53.07 23.44 60.49 C 26.98 60.09 30.36 58.48 33.97 58.84 C 37.68 59.28 41.17 60.70 44.67 61.93 C 43.98 68.81 56.25 68.82 56.11 62.03 C 59.62 60.60 63.18 59.08 67.00 58.80 C 70.51 58.55 73.85 59.86 77.16 60.84 C 78.32 49.94 78.29 38.95 78.98 28.01 C 78.51 27.94 77.56 27.81 77.08 27.74 C 76.97 29.95 76.84 32.15 76.77 34.35 C 76.44 30.40 76.31 26.37 75.35 22.51 C 74.84 22.33 73.81 21.96 73.29 21.77 C 73.27 21.33 73.23 20.45 73.21 20.00 C 67.85 20.48 62.49 21.70 57.88 24.59 C 62.47 23.04 67.16 21.66 72.05 21.56 C 72.17 29.39 71.90 37.22 71.96 45.05 C 71.82 47.02 72.09 49.14 71.23 50.97 C 67.98 50.69 64.60 50.27 61.44 51.34 C 57.48 52.51 54.34 55.30 51.27 57.92 C 51.28 55.06 51.20 52.19 50.87 49.34 C 48.77 51.48 49.34 54.60 49.07 57.31 C 45.64 54.77 42.18 51.95 37.92 50.99 C 35.07 50.28 32.14 50.88 29.30 51.34 C 28.80 47.81 28.92 44.22 28.63 40.67 C 29.62 34.43 28.56 28.06 28.88 21.76 C 33.76 22.10 38.49 23.34 43.18 24.64 C 39.73 22.41 35.88 20.72 31.75 20.29 C 30.17 20.20 28.10 19.51 27.17 21.27 M 39.59 28.49 C 38.89 32.90 38.19 37.31 37.51 41.73 C 40.08 43.40 42.41 45.40 44.43 47.71 C 48.40 47.52 52.58 46.59 56.39 48.19 C 57.96 45.52 60.08 43.22 62.67 41.50 C 62.20 37.09 61.48 32.71 60.63 28.36 C 57.25 26.69 53.90 24.39 50.00 24.31 C 46.16 24.48 42.90 26.78 39.59 28.49 Z" />
<path fill="#b671a3" opacity="1.00" d=" M 27.17 21.27 C 28.10 19.51 30.17 20.20 31.75 20.29 C 35.88 20.72 39.73 22.41 43.18 24.64 C 38.49 23.34 33.76 22.10 28.88 21.76 C 28.56 28.06 29.62 34.43 28.63 40.67 C 27.95 42.67 27.13 44.62 26.42 46.61 C 23.67 39.31 25.18 31.31 25.38 23.71 C 25.80 27.87 26.06 32.05 26.49 36.21 C 27.26 31.26 26.66 26.23 27.17 21.27 Z" />
<path fill="#d7afcc" opacity="1.00" d=" M 57.88 24.59 C 62.49 21.70 67.85 20.48 73.21 20.00 C 73.23 20.45 73.27 21.33 73.29 21.77 C 73.06 29.96 72.32 38.17 73.56 46.32 C 73.92 42.47 74.20 38.61 74.54 34.76 C 75.19 42.15 75.00 49.58 74.23 56.96 C 73.33 56.66 72.44 56.35 71.54 56.05 C 70.27 55.45 69.04 54.78 67.77 54.19 C 68.22 53.76 69.12 52.90 69.56 52.47 L 70.17 51.93 C 70.44 51.69 70.97 51.21 71.23 50.97 C 72.09 49.14 71.82 47.02 71.96 45.05 C 71.90 37.22 72.17 29.39 72.05 21.56 C 67.16 21.66 62.47 23.04 57.88 24.59 Z" />
<path fill="#9e4285" opacity="1.00" d=" M 73.29 21.77 C 73.81 21.96 74.84 22.33 75.35 22.51 C 76.31 26.37 76.44 30.40 76.77 34.35 C 76.69 42.06 76.10 49.75 75.77 57.46 C 75.38 57.33 74.62 57.08 74.23 56.96 C 75.00 49.58 75.19 42.15 74.54 34.76 C 74.20 38.61 73.92 42.47 73.56 46.32 C 72.32 38.17 73.06 29.96 73.29 21.77 Z" />
<path fill="#ffffff" opacity="1.00" d=" M 39.59 28.49 C 42.90 26.78 46.16 24.48 50.00 24.31 C 53.90 24.39 57.25 26.69 60.63 28.36 C 61.48 32.71 62.20 37.09 62.67 41.50 C 60.08 43.22 57.96 45.52 56.39 48.19 C 52.58 46.59 48.40 47.52 44.43 47.71 C 42.41 45.40 40.08 43.40 37.51 41.73 C 38.19 37.31 38.89 32.90 39.59 28.49 M 42.34 32.17 C 39.80 32.82 40.61 36.10 39.96 38.06 C 42.84 37.86 45.67 37.14 48.01 35.40 C 46.25 34.27 44.77 30.63 42.34 32.17 M 52.54 36.11 C 54.98 36.89 57.44 37.59 59.93 38.21 C 59.97 36.49 60.01 34.77 60.05 33.05 C 58.68 32.53 57.32 32.01 55.97 31.49 C 54.81 33.02 53.66 34.56 52.54 36.11 M 50.13 34.80 C 49.00 36.81 47.89 38.83 46.82 40.87 C 48.87 40.79 50.92 40.70 52.97 40.63 C 52.04 38.68 51.09 36.73 50.13 34.80 Z" />
<path fill="#ffffff" opacity="1.00" d=" M 22.07 38.07 C 22.05 34.25 20.74 29.92 23.24 26.58 C 24.19 36.89 24.13 47.26 25.03 57.58 C 28.82 56.47 32.85 55.29 36.80 56.26 C 41.26 57.41 45.15 60.01 49.42 61.64 C 46.00 57.92 41.21 56.14 36.72 54.11 C 37.18 54.03 38.09 53.87 38.54 53.80 C 39.26 53.68 40.72 53.44 41.44 53.32 C 37.70 52.50 33.88 52.13 30.10 51.60 L 29.30 51.34 C 32.14 50.88 35.07 50.28 37.92 50.99 C 42.18 51.95 45.64 54.77 49.07 57.31 C 49.34 54.60 48.77 51.48 50.87 49.34 C 51.20 52.19 51.28 55.06 51.27 57.92 C 54.34 55.30 57.48 52.51 61.44 51.34 C 64.60 50.27 67.98 50.69 71.23 50.97 C 70.97 51.21 70.44 51.69 70.17 51.93 C 65.93 52.15 61.66 52.66 57.69 54.27 C 61.67 53.83 65.65 53.31 69.56 52.47 C 69.12 52.90 68.22 53.76 67.77 54.19 C 61.82 54.66 56.12 57.08 51.65 61.05 C 58.04 58.53 64.40 54.99 71.54 56.05 C 72.44 56.35 73.33 56.66 74.23 56.96 C 74.62 57.08 75.38 57.33 75.77 57.46 C 76.10 49.75 76.69 42.06 76.77 34.35 C 76.84 32.15 76.97 29.95 77.08 27.74 C 77.56 27.81 78.51 27.94 78.98 28.01 C 78.29 38.95 78.32 49.94 77.16 60.84 C 73.85 59.86 70.51 58.55 67.00 58.80 C 63.18 59.08 59.62 60.60 56.11 62.03 C 56.25 68.82 43.98 68.81 44.67 61.93 C 41.17 60.70 37.68 59.28 33.97 58.84 C 30.36 58.48 26.98 60.09 23.44 60.49 C 22.40 53.07 22.77 45.53 22.07 38.07 Z" />
<path fill="#89196a" opacity="1.00" d=" M 42.34 32.17 C 44.77 30.63 46.25 34.27 48.01 35.40 C 45.67 37.14 42.84 37.86 39.96 38.06 C 40.61 36.10 39.80 32.82 42.34 32.17 Z" />
<path fill="#881669" opacity="1.00" d=" M 52.54 36.11 C 53.66 34.56 54.81 33.02 55.97 31.49 C 57.32 32.01 58.68 32.53 60.05 33.05 C 60.01 34.77 59.97 36.49 59.93 38.21 C 57.44 37.59 54.98 36.89 52.54 36.11 Z" />
<path fill="#881669" opacity="1.00" d=" M 50.13 34.80 C 51.09 36.73 52.04 38.68 52.97 40.63 C 50.92 40.70 48.87 40.79 46.82 40.87 C 47.89 38.83 49.00 36.81 50.13 34.80 Z" />
<path fill="#d3a9c8" opacity="1.00" d=" M 26.42 46.61 C 27.13 44.62 27.95 42.67 28.63 40.67 C 28.92 44.22 28.80 47.81 29.30 51.34 L 30.10 51.60 C 32.85 52.53 35.67 53.29 38.54 53.80 C 38.09 53.87 37.18 54.03 36.72 54.11 C 33.12 54.70 29.52 55.30 25.95 56.06 C 25.96 52.92 25.58 49.69 26.42 46.61 Z" />
<path fill="#8a1b6c" opacity="1.00" d=" M 30.10 51.60 C 33.88 52.13 37.70 52.50 41.44 53.32 C 40.72 53.44 39.26 53.68 38.54 53.80 C 35.67 53.29 32.85 52.53 30.10 51.60 Z" />
<path fill="#8a1b6c" opacity="1.00" d=" M 57.69 54.27 C 61.66 52.66 65.93 52.15 70.17 51.93 L 69.56 52.47 C 65.65 53.31 61.67 53.83 57.69 54.27 Z" />
<path fill="#881669" opacity="1.00" d=" M 51.65 61.05 C 56.12 57.08 61.82 54.66 67.77 54.19 C 69.04 54.78 70.27 55.45 71.54 56.05 C 64.40 54.99 58.04 58.53 51.65 61.05 Z" />
</svg>
