<?xml version="1.0" encoding="UTF-8" ?>
<!DOCTYPE svg PUBLIC "-//W3C//DTD SVG 1.1//EN" "http://www.w3.org/Graphics/SVG/1.1/DTD/svg11.dtd">
<svg width="100pt" height="100pt" viewBox="0 0 100 100" version="1.1" xmlns="http://www.w3.org/2000/svg">
<path fill="#b8b8b8" opacity="1.00" d=" M 15.26 16.29 C 38.08 16.33 60.90 16.33 83.72 16.30 C 83.66 38.76 83.66 61.21 83.72 83.67 C 60.90 83.61 38.08 83.60 15.27 83.68 C 15.31 61.22 15.32 38.76 15.26 16.29 M 19.44 20.49 C 19.24 39.89 19.41 59.30 19.32 78.71 C 23.07 78.71 26.81 78.74 30.56 78.83 L 30.90 78.20 L 31.84 78.19 C 37.19 78.99 42.61 78.71 47.99 78.69 C 58.36 78.69 68.72 78.67 79.08 78.73 C 79.58 68.16 79.16 57.57 79.30 46.99 C 79.16 38.12 79.62 29.23 78.99 20.36 C 59.14 20.71 39.29 20.46 19.44 20.49 Z" />
<path fill="#c40f24" opacity="1.00" d=" M 19.44 20.49 C 39.29 20.46 59.14 20.71 78.99 20.36 C 79.62 29.23 79.16 38.12 79.30 46.99 C 79.16 57.57 79.58 68.16 79.08 78.73 C 68.72 78.67 58.36 78.69 47.99 78.69 C 42.61 78.71 37.19 78.99 31.84 78.19 C 33.20 78.17 34.56 78.16 35.92 78.15 C 37.63 73.87 39.20 69.53 40.80 65.20 C 36.54 62.27 31.57 59.13 30.32 53.72 C 28.98 47.50 28.76 41.10 28.51 34.76 C 26.73 38.52 24.96 42.48 21.46 44.99 C 21.27 45.75 21.08 46.51 20.89 47.28 C 22.04 47.49 23.19 47.71 24.34 47.93 C 25.40 51.26 26.61 54.53 27.92 57.78 C 25.67 59.58 23.20 61.20 21.43 63.51 C 20.79 65.78 20.89 68.18 20.76 70.52 C 24.38 67.52 27.70 64.18 31.00 60.83 C 33.32 62.31 35.65 63.78 38.00 65.22 C 35.65 69.56 33.25 73.86 30.90 78.20 L 30.56 78.83 C 26.81 78.74 23.07 78.71 19.32 78.71 C 19.41 59.30 19.24 39.89 19.44 20.49 M 20.89 21.20 C 20.94 23.03 20.88 24.88 21.22 26.68 C 23.42 28.98 26.24 30.53 28.95 32.13 C 28.70 30.37 28.85 28.48 28.09 26.83 C 26.41 24.19 23.58 22.63 20.89 21.20 M 70.35 27.41 C 69.96 29.03 69.90 30.70 69.75 32.36 C 72.61 30.68 75.34 28.78 78.01 26.82 C 77.80 24.90 77.58 22.98 77.33 21.07 C 74.88 23.03 72.20 24.83 70.35 27.41 M 38.04 25.65 C 36.00 26.01 33.44 25.44 31.93 27.21 C 31.13 33.13 31.81 39.13 31.79 45.09 C 37.85 45.92 43.85 47.54 50.01 47.34 C 55.70 47.41 61.25 45.87 66.85 45.01 C 66.96 38.91 66.90 32.82 66.98 26.72 C 62.27 25.83 57.48 25.46 52.88 24.04 C 47.82 22.48 43.04 25.45 38.04 25.65 M 70.28 35.77 C 70.03 42.09 68.84 48.32 67.37 54.45 C 66.00 59.31 61.50 62.13 57.67 64.95 C 59.30 69.18 60.38 73.64 62.43 77.71 C 64.06 78.10 65.75 78.22 67.42 78.41 C 65.41 73.81 62.82 69.49 60.26 65.18 C 62.67 63.58 65.05 61.93 67.38 60.21 C 70.85 63.59 74.19 67.10 77.80 70.34 C 77.81 67.95 77.81 65.57 77.81 63.18 C 75.27 61.16 72.74 59.14 70.22 57.09 C 71.63 53.96 72.74 50.70 73.58 47.37 C 74.98 47.48 76.37 47.59 77.77 47.69 C 77.80 46.52 77.83 45.34 77.86 44.17 C 76.38 43.93 74.90 43.71 73.42 43.48 C 72.46 40.88 71.42 38.30 70.28 35.77 M 40.80 47.61 C 41.57 47.93 43.10 48.57 43.86 48.89 C 43.93 51.23 44.06 53.56 44.25 55.89 C 46.91 54.82 47.15 52.07 47.22 49.56 C 48.55 49.72 49.88 49.75 51.22 49.66 C 51.66 53.39 51.82 57.13 52.07 60.87 C 52.62 60.46 53.73 59.63 54.28 59.22 C 55.03 55.85 54.56 52.34 54.63 48.91 C 55.53 48.60 57.32 47.97 58.22 47.65 C 52.42 47.61 46.61 47.61 40.80 47.61 M 44.14 57.16 C 43.82 58.88 43.79 60.63 43.65 62.37 C 44.57 62.28 46.41 62.11 47.34 62.02 C 47.53 59.74 47.59 57.46 47.71 55.18 C 46.57 55.88 44.81 55.86 44.14 57.16 M 50.97 61.73 C 51.27 63.86 51.58 66.00 51.93 68.12 C 50.17 68.96 48.42 69.80 46.69 70.70 C 49.32 70.74 51.95 70.72 54.59 70.70 C 54.55 67.43 54.75 64.16 54.62 60.90 C 53.39 61.14 52.18 61.44 50.97 61.73 M 43.63 69.36 C 44.57 69.33 46.44 69.26 47.38 69.23 C 47.37 66.88 47.36 64.53 47.27 62.18 C 43.72 62.99 43.59 66.36 43.63 69.36 M 42.61 72.47 C 44.97 76.47 49.70 75.80 53.67 75.65 C 54.44 74.52 55.21 73.39 55.99 72.27 C 51.53 72.28 47.06 72.24 42.61 72.47 Z" />
<path fill="#ffffff" opacity="1.00" d=" M 20.89 21.20 C 23.58 22.63 26.41 24.19 28.09 26.83 C 28.85 28.48 28.70 30.37 28.95 32.13 C 26.24 30.53 23.42 28.98 21.22 26.68 C 20.88 24.88 20.94 23.03 20.89 21.20 Z" />
<path fill="#ffffff" opacity="1.00" d=" M 70.35 27.41 C 72.20 24.83 74.88 23.03 77.33 21.07 C 77.58 22.98 77.80 24.90 78.01 26.82 C 75.34 28.78 72.61 30.68 69.75 32.36 C 69.90 30.70 69.96 29.03 70.35 27.41 Z" />
<path fill="#ffffff" opacity="1.00" d=" M 38.04 25.65 C 43.04 25.45 47.82 22.48 52.88 24.04 C 57.48 25.46 62.27 25.83 66.98 26.72 C 66.90 32.82 66.96 38.91 66.85 45.01 C 61.25 45.87 55.70 47.41 50.01 47.34 C 43.85 47.54 37.85 45.92 31.79 45.09 C 31.81 39.13 31.13 33.13 31.93 27.21 C 33.44 25.44 36.00 26.01 38.04 25.65 M 32.90 27.85 C 33.27 30.15 32.14 33.20 34.16 34.90 C 38.45 32.33 42.62 29.55 47.15 27.39 C 42.40 27.31 37.63 27.32 32.90 27.85 M 58.16 38.04 C 50.22 40.63 41.68 40.82 33.72 43.40 C 43.92 43.58 54.14 43.38 64.35 43.16 C 64.50 38.28 64.58 33.38 64.19 28.50 C 62.04 31.59 60.64 35.19 58.16 38.04 Z" />
<path fill="#c2091e" opacity="1.00" d=" M 32.90 27.85 C 37.63 27.32 42.40 27.31 47.15 27.39 C 42.62 29.55 38.45 32.33 34.16 34.90 C 32.14 33.20 33.27 30.15 32.90 27.85 Z" />
<path fill="#c2061c" opacity="1.00" d=" M 58.16 38.04 C 60.64 35.19 62.04 31.59 64.19 28.50 C 64.58 33.38 64.50 38.28 64.35 43.16 C 54.14 43.38 43.92 43.58 33.72 43.40 C 41.68 40.82 50.22 40.63 58.16 38.04 Z" />
<path fill="#ffffff" opacity="1.00" d=" M 21.46 44.99 C 24.96 42.48 26.73 38.52 28.51 34.76 C 28.76 41.10 28.98 47.50 30.32 53.72 C 31.57 59.13 36.54 62.27 40.80 65.20 C 39.20 69.53 37.63 73.87 35.92 78.15 C 34.56 78.16 33.20 78.17 31.84 78.19 L 30.90 78.20 C 33.25 73.86 35.65 69.56 38.00 65.22 C 35.65 63.78 33.32 62.31 31.00 60.83 C 27.70 64.18 24.38 67.52 20.76 70.52 C 20.89 68.18 20.79 65.78 21.43 63.51 C 23.20 61.20 25.67 59.58 27.92 57.78 C 26.61 54.53 25.40 51.26 24.34 47.93 C 23.19 47.71 22.04 47.49 20.89 47.28 C 21.08 46.51 21.27 45.75 21.46 44.99 Z" />
<path fill="#ffffff" opacity="1.00" d=" M 70.28 35.77 C 71.42 38.30 72.46 40.88 73.42 43.48 C 74.90 43.71 76.38 43.93 77.86 44.17 C 77.83 45.34 77.80 46.52 77.77 47.69 C 76.37 47.59 74.98 47.48 73.58 47.37 C 72.74 50.70 71.63 53.96 70.22 57.09 C 72.74 59.14 75.27 61.16 77.81 63.18 C 77.81 65.57 77.81 67.95 77.80 70.34 C 74.19 67.10 70.85 63.59 67.38 60.21 C 65.05 61.93 62.67 63.58 60.26 65.18 C 62.82 69.49 65.41 73.81 67.42 78.41 C 65.75 78.22 64.06 78.10 62.43 77.71 C 60.38 73.64 59.30 69.18 57.67 64.95 C 61.50 62.13 66.00 59.31 67.37 54.45 C 68.84 48.32 70.03 42.09 70.28 35.77 Z" />
<path fill="#ffffff" opacity="1.00" d=" M 40.80 47.61 C 46.61 47.61 52.42 47.61 58.22 47.65 C 57.32 47.97 55.53 48.60 54.63 48.91 C 54.56 52.34 55.03 55.85 54.28 59.22 C 53.73 59.63 52.62 60.46 52.07 60.87 C 51.82 57.13 51.66 53.39 51.22 49.66 C 49.88 49.75 48.55 49.72 47.22 49.56 C 47.15 52.07 46.91 54.82 44.25 55.89 C 44.06 53.56 43.93 51.23 43.86 48.89 C 43.10 48.57 41.57 47.93 40.80 47.61 Z" />
<path fill="#ffffff" opacity="1.00" d=" M 44.14 57.16 C 44.81 55.86 46.57 55.88 47.71 55.18 C 47.59 57.46 47.53 59.74 47.34 62.02 C 46.41 62.11 44.57 62.28 43.65 62.37 C 43.79 60.63 43.82 58.88 44.14 57.16 Z" />
<path fill="#ffffff" opacity="1.00" d=" M 50.97 61.73 C 52.18 61.44 53.39 61.14 54.62 60.90 C 54.75 64.16 54.55 67.43 54.59 70.70 C 51.95 70.72 49.32 70.74 46.69 70.70 C 48.42 69.80 50.17 68.96 51.93 68.12 C 51.58 66.00 51.27 63.86 50.97 61.73 Z" />
<path fill="#ffffff" opacity="1.00" d=" M 43.63 69.36 C 43.59 66.36 43.72 62.99 47.27 62.18 C 47.36 64.53 47.37 66.88 47.38 69.23 C 46.44 69.26 44.57 69.33 43.63 69.36 Z" />
<path fill="#ffffff" opacity="1.00" d=" M 42.61 72.47 C 47.06 72.24 51.53 72.28 55.99 72.27 C 55.21 73.39 54.44 74.52 53.67 75.65 C 49.70 75.80 44.97 76.47 42.61 72.47 Z" />
</svg>
