<?xml version="1.0" encoding="UTF-8" ?>
<!DOCTYPE svg PUBLIC "-//W3C//DTD SVG 1.1//EN" "http://www.w3.org/Graphics/SVG/1.1/DTD/svg11.dtd">
<svg width="100pt" height="100pt" viewBox="0 0 100 100" version="1.1" xmlns="http://www.w3.org/2000/svg">
<path fill="#b8b8b8" opacity="1.00" d=" M 15.26 16.29 C 38.08 16.33 60.90 16.33 83.72 16.29 C 83.66 38.75 83.66 61.21 83.72 83.67 C 60.90 83.61 38.08 83.59 15.26 83.68 C 15.31 61.22 15.32 38.75 15.26 16.29 M 19.43 20.49 C 19.26 39.89 19.40 59.30 19.32 78.70 C 23.07 78.71 26.81 78.74 30.55 78.84 L 30.90 78.19 L 31.84 78.18 C 36.53 78.83 41.28 78.80 46.00 78.71 C 57.03 78.66 68.06 78.67 79.09 78.74 C 79.56 68.16 79.17 57.58 79.30 47.00 C 79.17 38.12 79.60 29.24 79.00 20.37 C 59.14 20.72 39.28 20.50 19.43 20.49 Z" />
<path fill="#c40f24" opacity="1.00" d=" M 19.43 20.49 C 39.28 20.50 59.14 20.72 79.00 20.37 C 79.60 29.24 79.17 38.12 79.30 47.00 C 79.17 57.58 79.56 68.16 79.09 78.74 C 68.06 78.67 57.03 78.66 46.00 78.71 C 41.28 78.80 36.53 78.83 31.84 78.18 C 33.20 78.17 34.57 78.16 35.94 78.15 C 37.62 73.86 39.19 69.53 40.81 65.21 C 36.53 62.28 31.58 59.12 30.32 53.72 C 28.99 47.51 28.71 41.13 28.57 34.81 C 26.35 39.20 23.75 43.40 20.44 47.07 C 21.76 47.39 23.08 47.70 24.40 48.02 C 25.39 51.33 26.60 54.57 27.93 57.75 C 25.68 59.57 23.19 61.19 21.45 63.53 C 20.83 65.80 20.88 68.19 20.73 70.53 C 24.37 67.53 27.70 64.19 31.00 60.83 C 33.32 62.32 35.66 63.78 38.01 65.23 C 35.65 69.55 33.25 73.86 30.90 78.19 L 30.55 78.84 C 26.81 78.74 23.07 78.71 19.32 78.70 C 19.40 59.30 19.26 39.89 19.43 20.49 M 20.88 21.17 C 20.95 23.01 20.91 24.86 21.23 26.68 C 23.43 28.99 26.26 30.54 28.97 32.15 C 28.72 30.38 28.81 28.50 28.09 26.83 C 26.43 24.16 23.53 22.68 20.88 21.17 M 71.26 26.24 C 69.58 27.80 70.16 30.34 69.72 32.37 C 72.59 30.68 75.32 28.78 78.02 26.83 C 77.80 24.90 77.58 22.98 77.33 21.06 C 75.24 22.70 73.08 24.29 71.26 26.24 M 38.04 25.63 C 36.00 26.01 33.47 25.49 31.93 27.21 C 31.11 33.13 31.82 39.14 31.78 45.09 C 35.88 45.79 40.00 46.41 44.11 47.07 C 51.77 48.09 59.35 46.34 66.84 45.01 C 66.80 39.10 67.30 33.17 66.72 27.28 C 66.43 27.04 65.84 26.55 65.54 26.30 C 61.31 25.63 57.00 25.36 52.87 24.05 C 47.83 22.55 43.03 25.41 38.04 25.63 M 70.30 35.77 C 70.00 42.08 68.87 48.32 67.36 54.45 C 65.99 59.30 61.51 62.14 57.67 64.94 C 59.30 69.17 60.36 73.65 62.44 77.70 C 64.09 78.04 65.76 78.22 67.43 78.44 C 65.39 73.82 62.82 69.46 60.23 65.13 C 62.73 63.55 65.20 61.91 67.64 60.23 C 70.88 63.74 74.25 67.14 77.80 70.35 C 77.81 67.96 77.81 65.57 77.81 63.18 C 75.27 61.17 72.74 59.14 70.22 57.10 C 71.62 53.96 72.74 50.71 73.58 47.38 C 74.98 47.48 76.38 47.58 77.77 47.68 C 77.80 46.51 77.83 45.35 77.87 44.18 C 76.38 43.94 74.90 43.71 73.42 43.48 C 72.45 40.88 71.41 38.31 70.30 35.77 M 40.81 47.53 C 41.57 47.88 43.09 48.56 43.86 48.90 C 43.93 51.24 44.06 53.58 44.25 55.91 C 46.95 54.92 46.92 52.02 47.28 49.62 C 48.59 49.64 49.91 49.66 51.22 49.69 C 51.65 53.43 51.80 57.18 52.09 60.93 C 56.44 58.61 54.12 52.89 54.62 48.91 C 55.52 48.58 57.32 47.92 58.23 47.59 C 52.42 47.64 46.61 47.65 40.81 47.53 M 44.43 56.45 C 43.97 58.39 43.84 60.39 43.59 62.37 C 44.53 62.28 46.40 62.12 47.34 62.03 C 47.50 59.76 47.64 57.48 47.74 55.20 C 46.62 55.57 45.52 55.99 44.43 56.45 M 50.95 61.71 C 51.25 63.85 51.57 65.99 51.92 68.13 C 50.16 68.97 48.41 69.81 46.68 70.71 C 49.32 70.74 51.95 70.72 54.59 70.69 C 54.56 67.44 54.76 64.18 54.62 60.93 C 53.39 61.16 52.16 61.39 50.95 61.71 M 44.09 64.23 C 43.78 65.93 43.76 67.66 43.63 69.37 C 44.57 69.34 46.46 69.27 47.40 69.24 C 47.39 66.85 47.35 64.47 47.26 62.09 C 46.18 62.77 45.12 63.49 44.09 64.23 M 42.57 72.48 C 44.99 76.41 49.69 75.81 53.67 75.66 C 54.43 74.53 55.21 73.40 56.00 72.27 C 51.52 72.28 47.04 72.24 42.57 72.48 Z" />
<path fill="#ffffff" opacity="1.00" d=" M 20.88 21.17 C 23.53 22.68 26.43 24.16 28.09 26.83 C 28.81 28.50 28.72 30.38 28.97 32.15 C 26.26 30.54 23.43 28.99 21.23 26.68 C 20.91 24.86 20.95 23.01 20.88 21.17 Z" />
<path fill="#ffffff" opacity="1.00" d=" M 71.26 26.24 C 73.08 24.29 75.24 22.70 77.33 21.06 C 77.58 22.98 77.80 24.90 78.02 26.83 C 75.32 28.78 72.59 30.68 69.72 32.37 C 70.16 30.34 69.58 27.80 71.26 26.24 Z" />
<path fill="#ffffff" opacity="1.00" d=" M 38.04 25.63 C 43.03 25.41 47.83 22.55 52.87 24.05 C 57.00 25.36 61.31 25.63 65.54 26.30 C 65.84 26.55 66.43 27.04 66.72 27.28 C 67.30 33.17 66.80 39.10 66.84 45.01 C 59.35 46.34 51.77 48.09 44.11 47.07 C 40.00 46.41 35.88 45.79 31.78 45.09 C 31.82 39.14 31.11 33.13 31.93 27.21 C 33.47 25.49 36.00 26.01 38.04 25.63 M 33.70 27.76 C 32.69 29.85 32.11 33.26 34.14 34.89 C 38.45 32.35 42.62 29.55 47.15 27.39 C 42.67 27.45 38.14 27.08 33.70 27.76 M 58.14 38.02 C 50.21 40.64 41.67 40.84 33.70 43.39 C 43.92 43.59 54.15 43.33 64.37 43.16 C 64.50 38.27 64.57 33.36 64.20 28.48 C 62.06 31.58 60.66 35.19 58.14 38.02 Z" />
<path fill="#c2091e" opacity="1.00" d=" M 33.70 27.76 C 38.14 27.08 42.67 27.45 47.15 27.39 C 42.62 29.55 38.45 32.35 34.14 34.89 C 32.11 33.26 32.69 29.85 33.70 27.76 Z" />
<path fill="#c2061c" opacity="1.00" d=" M 58.14 38.02 C 60.66 35.19 62.06 31.58 64.20 28.48 C 64.57 33.36 64.50 38.27 64.37 43.16 C 54.15 43.33 43.92 43.59 33.70 43.39 C 41.67 40.84 50.21 40.64 58.14 38.02 Z" />
<path fill="#ffffff" opacity="1.00" d=" M 20.44 47.07 C 23.75 43.40 26.35 39.20 28.57 34.81 C 28.71 41.13 28.99 47.51 30.32 53.72 C 31.58 59.12 36.53 62.28 40.81 65.21 C 39.19 69.53 37.62 73.86 35.94 78.15 C 34.57 78.16 33.20 78.17 31.84 78.18 L 30.90 78.19 C 33.25 73.86 35.65 69.55 38.01 65.23 C 35.66 63.78 33.32 62.32 31.00 60.83 C 27.70 64.19 24.37 67.53 20.73 70.53 C 20.88 68.19 20.83 65.80 21.45 63.53 C 23.19 61.19 25.68 59.57 27.93 57.75 C 26.60 54.57 25.39 51.33 24.40 48.02 C 23.08 47.70 21.76 47.39 20.44 47.07 Z" />
<path fill="#ffffff" opacity="1.00" d=" M 70.30 35.77 C 71.41 38.31 72.45 40.88 73.42 43.48 C 74.90 43.71 76.38 43.94 77.87 44.18 C 77.83 45.35 77.80 46.51 77.77 47.68 C 76.38 47.58 74.98 47.48 73.58 47.38 C 72.74 50.71 71.62 53.96 70.22 57.10 C 72.74 59.14 75.27 61.17 77.81 63.18 C 77.81 65.57 77.81 67.96 77.80 70.35 C 74.25 67.14 70.88 63.74 67.64 60.23 C 65.20 61.91 62.73 63.55 60.23 65.13 C 62.82 69.46 65.39 73.82 67.43 78.44 C 65.76 78.22 64.09 78.04 62.44 77.70 C 60.36 73.65 59.30 69.17 57.67 64.94 C 61.51 62.14 65.99 59.30 67.36 54.45 C 68.87 48.32 70.00 42.08 70.30 35.77 Z" />
<path fill="#ffffff" opacity="1.00" d=" M 40.81 47.53 C 46.61 47.65 52.42 47.64 58.23 47.59 C 57.32 47.92 55.52 48.58 54.62 48.91 C 54.12 52.89 56.44 58.61 52.09 60.93 C 51.80 57.18 51.65 53.43 51.22 49.69 C 49.91 49.66 48.59 49.64 47.28 49.62 C 46.92 52.02 46.95 54.92 44.25 55.91 C 44.06 53.58 43.93 51.24 43.86 48.90 C 43.09 48.56 41.57 47.88 40.81 47.53 Z" />
<path fill="#ffffff" opacity="1.00" d=" M 44.43 56.45 C 45.52 55.99 46.62 55.57 47.74 55.20 C 47.64 57.48 47.50 59.76 47.34 62.03 C 46.40 62.12 44.53 62.28 43.59 62.37 C 43.84 60.39 43.97 58.39 44.43 56.45 Z" />
<path fill="#ffffff" opacity="1.00" d=" M 50.95 61.71 C 52.16 61.39 53.39 61.16 54.62 60.93 C 54.76 64.18 54.56 67.44 54.59 70.69 C 51.95 70.72 49.32 70.74 46.68 70.71 C 48.41 69.81 50.16 68.97 51.92 68.13 C 51.57 65.99 51.25 63.85 50.95 61.71 Z" />
<path fill="#ffffff" opacity="1.00" d=" M 44.09 64.23 C 45.12 63.49 46.18 62.77 47.26 62.09 C 47.35 64.47 47.39 66.85 47.40 69.24 C 46.46 69.27 44.57 69.34 43.63 69.37 C 43.76 67.66 43.78 65.93 44.09 64.23 Z" />
<path fill="#ffffff" opacity="1.00" d=" M 42.57 72.48 C 47.04 72.24 51.52 72.28 56.00 72.27 C 55.21 73.40 54.43 74.53 53.67 75.66 C 49.69 75.81 44.99 76.41 42.57 72.48 Z" />
</svg>
