<?xml version="1.0" encoding="UTF-8" ?>
<!DOCTYPE svg PUBLIC "-//W3C//DTD SVG 1.1//EN" "http://www.w3.org/Graphics/SVG/1.1/DTD/svg11.dtd">
<svg width="100pt" height="100pt" viewBox="0 0 100 100" version="1.1" xmlns="http://www.w3.org/2000/svg">
<path fill="#b8b8b8" opacity="1.00" d=" M 38.12 29.20 C 43.84 26.39 46.67 20.48 50.06 15.44 C 53.59 20.32 56.02 26.51 61.70 29.35 C 65.32 31.95 69.79 29.92 73.76 29.50 C 76.04 34.10 79.07 38.36 80.75 43.23 C 81.58 48.07 81.38 53.14 79.86 57.83 C 79.02 59.58 80.50 61.17 81.30 62.61 C 85.16 68.38 89.07 74.12 92.88 79.92 C 64.37 79.89 35.86 79.99 7.35 79.87 C 11.45 72.95 16.59 66.66 20.45 59.61 C 19.54 53.66 18.57 47.50 19.60 41.45 C 21.15 37.16 24.01 33.49 26.20 29.51 C 30.13 29.96 34.60 31.96 38.12 29.20 M 38.05 32.13 C 34.74 33.91 30.89 32.85 27.35 32.60 C 25.66 35.21 23.84 37.77 22.70 40.68 C 20.54 46.81 21.24 53.86 24.91 59.28 C 21.68 65.17 17.42 70.40 13.98 76.15 C 20.65 76.45 27.33 76.35 34.00 76.34 C 51.50 76.12 69.00 76.70 86.49 76.08 C 83.20 70.16 78.90 64.91 75.40 59.13 C 77.28 56.07 79.08 52.73 78.81 49.01 C 79.06 42.79 75.52 37.41 72.13 32.51 C 70.77 32.69 69.42 32.88 68.05 33.01 C 60.63 34.09 54.93 27.86 50.07 23.19 C 46.39 26.56 42.52 29.83 38.05 32.13 Z" />
<path fill="#1c7777" opacity="1.00" d=" M 38.05 32.13 C 42.52 29.83 46.39 26.56 50.07 23.19 C 54.93 27.86 60.63 34.09 68.05 33.01 C 69.42 32.88 70.77 32.69 72.13 32.51 C 75.52 37.41 79.06 42.79 78.81 49.01 C 79.08 52.73 77.28 56.07 75.40 59.13 C 78.90 64.91 83.20 70.16 86.49 76.08 C 69.00 76.70 51.50 76.12 34.00 76.34 C 27.33 76.35 20.65 76.45 13.98 76.15 C 17.42 70.40 21.68 65.17 24.91 59.28 C 21.24 53.86 20.54 46.81 22.70 40.68 C 23.84 37.77 25.66 35.21 27.35 32.60 C 30.89 32.85 34.74 33.91 38.05 32.13 M 38.03 34.99 C 34.96 36.44 30.82 35.11 28.45 37.96 C 31.42 39.99 35.06 41.25 38.69 40.77 C 42.51 40.19 45.69 37.75 48.98 35.91 C 49.12 33.34 49.26 30.77 49.37 28.20 C 45.51 30.33 42.00 33.06 38.03 34.99 M 50.53 28.31 C 50.59 30.85 50.70 33.38 50.81 35.92 C 53.61 37.53 56.32 39.37 59.40 40.41 C 63.42 41.54 67.48 39.88 71.32 38.82 C 74.84 42.82 76.08 48.86 73.62 53.67 C 66.82 60.78 58.04 65.83 51.77 73.49 C 57.70 70.47 62.14 65.38 67.26 61.25 C 70.03 58.74 73.30 56.64 75.40 53.49 C 77.29 47.53 76.20 40.24 71.14 36.17 C 67.95 35.08 64.23 36.66 61.22 34.77 C 57.57 32.76 54.18 30.31 50.53 28.31 M 24.87 54.17 C 27.39 57.30 30.76 59.58 33.73 62.26 C 38.41 66.12 42.55 70.78 48.08 73.46 C 41.67 65.66 32.57 60.65 25.86 53.17 C 23.45 47.60 26.63 41.88 28.38 36.62 C 23.43 40.97 22.22 48.29 24.87 54.17 M 39.00 45.49 C 35.78 45.09 32.79 43.73 29.71 42.78 C 28.72 45.87 27.60 49.20 28.50 52.44 C 29.85 54.39 31.74 55.88 33.50 57.43 C 38.83 61.90 43.95 66.62 49.22 71.15 C 55.81 66.50 61.91 61.21 68.36 56.37 C 69.68 55.06 71.98 54.04 71.84 51.87 C 71.87 49.11 70.56 46.59 69.43 44.14 C 67.06 45.03 64.78 46.78 62.19 46.74 C 58.21 44.90 54.80 42.07 51.05 39.82 C 47.02 41.65 43.33 44.42 39.00 45.49 M 25.28 63.59 C 28.75 66.82 32.05 70.23 35.69 73.28 C 38.02 75.39 41.42 74.72 44.29 75.02 C 39.04 70.13 33.25 65.86 27.66 61.37 C 26.87 62.11 26.08 62.85 25.28 63.59 M 55.90 75.06 C 58.75 74.73 62.06 75.33 64.46 73.40 C 68.19 70.48 71.41 66.97 74.88 63.76 C 74.24 62.91 73.61 62.06 72.97 61.21 C 67.20 65.73 61.38 70.20 55.90 75.06 M 21.16 68.14 C 23.50 70.33 25.65 72.86 28.54 74.37 C 30.80 74.97 33.17 74.86 35.49 74.99 C 32.02 71.24 28.07 67.99 24.00 64.92 C 23.05 66.00 22.11 67.07 21.16 68.14 M 64.69 75.01 C 67.21 74.80 69.89 75.13 72.28 74.16 C 74.95 72.58 77.01 70.20 79.22 68.07 C 78.20 67.02 77.18 65.98 76.16 64.93 C 72.23 68.17 68.26 71.37 64.69 75.01 M 20.38 69.68 C 19.39 70.94 18.40 72.20 17.43 73.47 C 20.08 74.33 22.83 74.83 25.60 75.06 C 23.94 73.19 22.18 71.41 20.38 69.68 M 74.64 75.14 C 77.58 74.88 80.50 74.31 83.26 73.24 C 82.14 72.09 81.02 70.94 79.90 69.80 C 78.10 71.53 76.33 73.30 74.64 75.14 Z" />
<path fill="#ffffff" opacity="1.00" d=" M 38.03 34.99 C 42.00 33.06 45.51 30.33 49.37 28.20 C 49.26 30.77 49.12 33.34 48.98 35.91 C 45.69 37.75 42.51 40.19 38.69 40.77 C 35.06 41.25 31.42 39.99 28.45 37.96 C 30.82 35.11 34.96 36.44 38.03 34.99 Z" />
<path fill="#ffffff" opacity="1.00" d=" M 50.53 28.31 C 54.18 30.31 57.57 32.76 61.22 34.77 C 64.23 36.66 67.95 35.08 71.14 36.17 C 76.20 40.24 77.29 47.53 75.40 53.49 C 73.30 56.64 70.03 58.74 67.26 61.25 C 62.14 65.38 57.70 70.47 51.77 73.49 C 58.04 65.83 66.82 60.78 73.62 53.67 C 76.08 48.86 74.84 42.82 71.32 38.82 C 67.48 39.88 63.42 41.54 59.40 40.41 C 56.32 39.37 53.61 37.53 50.81 35.92 C 50.70 33.38 50.59 30.85 50.53 28.31 Z" />
<path fill="#ffffff" opacity="1.00" d=" M 24.87 54.17 C 22.22 48.29 23.43 40.97 28.38 36.62 C 26.63 41.88 23.45 47.60 25.86 53.17 C 32.57 60.65 41.67 65.66 48.08 73.46 C 42.55 70.78 38.41 66.12 33.73 62.26 C 30.76 59.58 27.39 57.30 24.87 54.17 Z" />
<path fill="#ffffff" opacity="1.00" d=" M 39.00 45.49 C 43.33 44.42 47.02 41.65 51.05 39.82 C 54.80 42.07 58.21 44.90 62.19 46.74 C 64.78 46.78 67.06 45.03 69.43 44.14 C 70.56 46.59 71.87 49.11 71.84 51.87 C 71.98 54.04 69.68 55.06 68.36 56.37 C 61.91 61.21 55.81 66.50 49.22 71.15 C 43.95 66.62 38.83 61.90 33.50 57.43 C 31.74 55.88 29.85 54.39 28.50 52.44 C 27.60 49.20 28.72 45.87 29.71 42.78 C 32.79 43.73 35.78 45.09 39.00 45.49 M 40.36 47.39 C 37.36 49.47 34.05 46.78 31.05 46.04 C 31.17 48.81 30.44 52.14 32.91 54.12 C 38.21 59.38 43.70 64.45 49.19 69.50 C 51.21 67.77 53.21 66.01 55.19 64.23 C 52.60 61.34 49.61 58.74 47.52 55.44 C 46.36 51.62 46.97 47.52 46.79 43.58 C 44.65 44.85 42.56 46.23 40.36 47.39 M 54.82 43.65 C 56.05 49.11 58.00 54.53 62.19 58.44 C 64.79 56.85 67.31 55.15 69.74 53.32 C 68.07 51.47 66.68 49.06 64.15 48.31 C 60.81 47.24 57.80 45.45 54.82 43.65 Z" />
<path fill="#217a7a" opacity="1.00" d=" M 40.36 47.39 C 42.56 46.23 44.65 44.85 46.79 43.58 C 46.97 47.52 46.36 51.62 47.52 55.44 C 49.61 58.74 52.60 61.34 55.19 64.23 C 53.21 66.01 51.21 67.77 49.19 69.50 C 43.70 64.45 38.21 59.38 32.91 54.12 C 30.44 52.14 31.17 48.81 31.05 46.04 C 34.05 46.78 37.36 49.47 40.36 47.39 Z" />
<path fill="#217a7a" opacity="1.00" d=" M 54.82 43.65 C 57.80 45.45 60.81 47.24 64.15 48.31 C 66.68 49.06 68.07 51.47 69.74 53.32 C 67.31 55.15 64.79 56.85 62.19 58.44 C 58.00 54.53 56.05 49.11 54.82 43.65 Z" />
<path fill="#ffffff" opacity="1.00" d=" M 25.28 63.59 C 26.08 62.85 26.87 62.11 27.66 61.37 C 33.25 65.86 39.04 70.13 44.29 75.02 C 41.42 74.72 38.02 75.39 35.69 73.28 C 32.05 70.23 28.75 66.82 25.28 63.59 Z" />
<path fill="#ffffff" opacity="1.00" d=" M 55.90 75.06 C 61.38 70.20 67.20 65.73 72.97 61.21 C 73.61 62.06 74.24 62.91 74.88 63.76 C 71.41 66.97 68.19 70.48 64.46 73.40 C 62.06 75.33 58.75 74.73 55.90 75.06 Z" />
<path fill="#ffffff" opacity="1.00" d=" M 21.16 68.14 C 22.11 67.07 23.05 66.00 24.00 64.92 C 28.07 67.99 32.02 71.24 35.49 74.99 C 33.17 74.86 30.80 74.97 28.54 74.37 C 25.65 72.86 23.50 70.33 21.16 68.14 Z" />
<path fill="#ffffff" opacity="1.00" d=" M 64.69 75.01 C 68.26 71.37 72.23 68.17 76.16 64.93 C 77.18 65.98 78.20 67.02 79.22 68.07 C 77.01 70.20 74.95 72.58 72.28 74.16 C 69.89 75.13 67.21 74.80 64.69 75.01 Z" />
<path fill="#ffffff" opacity="1.00" d=" M 20.38 69.68 C 22.18 71.41 23.94 73.19 25.60 75.06 C 22.83 74.83 20.08 74.33 17.43 73.47 C 18.40 72.20 19.39 70.94 20.38 69.68 Z" />
<path fill="#ffffff" opacity="1.00" d=" M 74.64 75.14 C 76.33 73.30 78.10 71.53 79.90 69.80 C 81.02 70.94 82.14 72.09 83.26 73.24 C 80.50 74.31 77.58 74.88 74.64 75.14 Z" />
</svg>
