<?xml version="1.0" encoding="UTF-8" ?>
<!DOCTYPE svg PUBLIC "-//W3C//DTD SVG 1.1//EN" "http://www.w3.org/Graphics/SVG/1.1/DTD/svg11.dtd">
<svg width="100pt" height="100pt" viewBox="0 0 100 100" version="1.1" xmlns="http://www.w3.org/2000/svg">
<path fill="#b8b8b8" opacity="1.00" d=" M 34.88 30.67 C 42.22 28.43 46.23 21.57 49.99 15.43 C 53.60 20.55 56.20 27.03 62.28 29.73 C 65.79 31.94 69.86 29.47 73.64 29.86 C 76.23 33.86 78.55 38.07 80.41 42.46 C 81.47 46.46 81.24 50.75 80.58 54.81 C 80.36 56.79 78.75 58.95 80.13 60.82 C 84.13 67.28 88.68 73.39 92.64 79.88 C 64.13 79.98 35.62 79.89 7.11 79.93 C 10.97 74.16 14.84 68.40 18.72 62.65 C 19.41 61.32 20.76 60.00 20.41 58.38 C 18.94 52.87 18.81 47.03 19.54 41.40 C 21.13 37.15 23.95 33.49 26.13 29.53 C 29.04 29.93 31.92 30.81 34.88 30.67 M 37.39 32.43 C 34.25 34.12 30.64 32.76 27.33 32.44 C 25.43 35.60 23.19 38.65 22.12 42.22 C 20.92 47.98 20.95 54.57 25.11 59.21 C 21.51 64.96 17.48 70.42 13.88 76.17 C 28.58 76.56 43.30 76.19 58.01 76.33 C 67.51 76.27 77.02 76.54 86.52 76.11 C 83.02 70.14 78.69 64.72 75.16 58.77 C 77.08 56.24 78.88 53.37 78.60 50.04 C 79.23 43.43 75.50 37.71 72.16 32.36 C 69.37 32.72 66.51 33.68 63.69 33.06 C 58.28 31.11 53.64 27.39 50.04 22.95 C 46.41 26.80 42.12 30.03 37.39 32.43 Z" />
<path fill="#24950b" opacity="1.00" d=" M 37.39 32.43 C 42.12 30.03 46.41 26.80 50.04 22.95 C 53.64 27.39 58.28 31.11 63.69 33.06 C 66.51 33.68 69.37 32.72 72.16 32.36 C 75.50 37.71 79.23 43.43 78.60 50.04 C 78.88 53.37 77.08 56.24 75.16 58.77 C 78.69 64.72 83.02 70.14 86.52 76.11 C 77.02 76.54 67.51 76.27 58.01 76.33 C 43.30 76.19 28.58 76.56 13.88 76.17 C 17.48 70.42 21.51 64.96 25.11 59.21 C 20.95 54.57 20.92 47.98 22.12 42.22 C 23.19 38.65 25.43 35.60 27.33 32.44 C 30.64 32.76 34.25 34.12 37.39 32.43 M 38.71 34.73 C 35.64 36.75 31.86 35.65 28.46 35.54 C 26.72 38.28 24.65 40.91 23.72 44.06 C 23.38 47.23 23.53 50.51 24.34 53.60 C 26.85 57.07 30.55 59.42 33.67 62.30 C 38.38 66.12 42.44 70.91 48.05 73.47 C 43.26 67.76 37.02 63.51 31.47 58.59 C 28.90 56.16 24.84 54.11 25.05 50.03 C 24.18 45.77 26.03 41.87 28.56 38.59 C 31.74 39.61 34.90 41.57 38.35 41.14 C 42.22 40.20 45.52 37.83 48.97 35.95 C 49.08 33.35 49.21 30.75 49.30 28.15 C 45.70 30.24 42.32 32.66 38.71 34.73 M 50.51 28.29 C 50.53 30.86 50.60 33.43 50.66 36.00 C 54.35 37.87 57.83 40.58 62.02 41.17 C 65.24 41.11 68.21 39.61 71.22 38.65 C 74.68 42.74 75.83 48.52 73.70 53.49 C 66.91 60.73 58.00 65.79 51.69 73.52 C 57.46 70.66 61.74 65.71 66.68 61.71 C 69.61 59.01 73.10 56.81 75.40 53.50 C 76.21 50.45 76.30 47.21 75.92 44.09 C 75.09 40.80 72.81 38.15 70.89 35.44 C 67.68 35.63 64.10 36.76 61.18 34.85 C 57.54 32.79 54.14 30.35 50.51 28.29 M 38.99 45.61 C 35.75 45.16 32.75 43.71 29.67 42.70 C 28.55 46.50 26.41 51.85 30.35 54.71 C 36.63 60.23 42.97 65.71 49.24 71.25 C 56.70 65.33 64.50 59.75 71.59 53.39 C 72.30 50.13 70.66 46.97 69.37 44.06 C 67.03 45.07 64.80 46.65 62.21 46.90 C 58.22 44.96 54.77 42.10 51.02 39.76 C 47.01 41.68 43.29 44.34 38.99 45.61 M 25.19 63.65 C 28.70 66.85 32.03 70.25 35.63 73.33 C 37.96 75.48 41.38 74.67 44.25 74.98 C 38.95 70.16 33.14 65.94 27.64 61.35 C 26.79 62.08 25.98 62.85 25.19 63.65 M 55.86 75.00 C 58.71 74.68 62.09 75.45 64.45 73.40 C 67.69 70.70 70.82 67.82 73.72 64.75 C 75.08 63.72 73.54 62.21 73.27 61.00 C 67.36 65.53 61.50 70.13 55.86 75.00 M 21.04 68.17 C 23.43 70.35 25.62 72.86 28.48 74.44 C 30.77 74.98 33.15 74.85 35.49 74.94 C 31.93 71.30 27.97 68.10 24.00 64.92 C 23.01 66.00 22.02 67.08 21.04 68.17 M 64.63 74.96 C 66.95 74.87 69.31 74.97 71.59 74.49 C 74.58 73.00 76.75 70.34 79.18 68.13 C 78.16 67.05 77.13 65.97 76.10 64.91 C 72.23 68.21 68.24 71.38 64.63 74.96 M 20.31 69.69 C 19.27 70.93 18.28 72.21 17.35 73.54 C 20.02 74.35 22.78 74.83 25.56 75.06 C 23.89 73.20 22.11 71.43 20.31 69.69 M 74.58 75.11 C 77.50 74.88 80.41 74.35 83.16 73.32 C 82.07 72.15 80.97 70.98 79.86 69.82 C 78.05 71.53 76.28 73.28 74.58 75.11 Z" />
<path fill="#ffffff" opacity="1.00" d=" M 38.71 34.73 C 42.32 32.66 45.70 30.24 49.30 28.15 C 49.21 30.75 49.08 33.35 48.97 35.95 C 45.52 37.83 42.22 40.20 38.35 41.14 C 34.90 41.57 31.74 39.61 28.56 38.59 C 26.03 41.87 24.18 45.77 25.05 50.03 C 24.84 54.11 28.90 56.16 31.47 58.59 C 37.02 63.51 43.26 67.76 48.05 73.47 C 42.44 70.91 38.38 66.12 33.67 62.30 C 30.55 59.42 26.85 57.07 24.34 53.60 C 23.53 50.51 23.38 47.23 23.72 44.06 C 24.65 40.91 26.72 38.28 28.46 35.54 C 31.86 35.65 35.64 36.75 38.71 34.73 Z" />
<path fill="#ffffff" opacity="1.00" d=" M 50.51 28.29 C 54.14 30.35 57.54 32.79 61.18 34.85 C 64.10 36.76 67.68 35.63 70.89 35.44 C 72.81 38.15 75.09 40.80 75.92 44.09 C 76.30 47.21 76.21 50.45 75.40 53.50 C 73.10 56.81 69.61 59.01 66.68 61.71 C 61.74 65.71 57.46 70.66 51.69 73.52 C 58.00 65.79 66.91 60.73 73.70 53.49 C 75.83 48.52 74.68 42.74 71.22 38.65 C 68.21 39.61 65.24 41.11 62.02 41.17 C 57.83 40.58 54.35 37.87 50.66 36.00 C 50.60 33.43 50.53 30.86 50.51 28.29 Z" />
<path fill="#ffffff" opacity="1.00" d=" M 38.99 45.61 C 43.29 44.34 47.01 41.68 51.02 39.76 C 54.77 42.10 58.22 44.96 62.21 46.90 C 64.80 46.65 67.03 45.07 69.37 44.06 C 70.66 46.97 72.30 50.13 71.59 53.39 C 64.50 59.75 56.70 65.33 49.24 71.25 C 42.97 65.71 36.63 60.23 30.35 54.71 C 26.41 51.85 28.55 46.50 29.67 42.70 C 32.75 43.71 35.75 45.16 38.99 45.61 M 38.05 48.82 C 35.72 47.85 33.44 46.76 31.08 45.86 C 31.05 47.82 30.86 49.80 31.08 51.76 C 31.84 53.31 33.16 54.47 34.35 55.68 C 39.28 60.30 44.14 64.99 49.13 69.55 C 51.14 67.78 53.14 65.99 55.14 64.20 C 52.40 61.12 48.93 58.51 47.09 54.77 C 46.43 51.07 46.82 47.28 46.74 43.55 C 43.82 45.26 40.94 47.05 38.05 48.82 M 54.78 43.55 C 55.94 49.04 57.92 54.49 62.08 58.45 C 64.58 56.90 67.07 55.31 69.55 53.73 C 67.98 51.78 66.90 48.91 64.16 48.38 C 60.64 47.63 57.73 45.49 54.78 43.55 Z" />
<path fill="#26960f" opacity="1.00" d=" M 38.05 48.82 C 40.94 47.05 43.82 45.26 46.74 43.55 C 46.82 47.28 46.43 51.07 47.09 54.77 C 48.93 58.51 52.40 61.12 55.14 64.20 C 53.14 65.99 51.14 67.78 49.13 69.55 C 44.14 64.99 39.28 60.30 34.35 55.68 C 33.16 54.47 31.84 53.31 31.08 51.76 C 30.86 49.80 31.05 47.82 31.08 45.86 C 33.44 46.76 35.72 47.85 38.05 48.82 Z" />
<path fill="#26960f" opacity="1.00" d=" M 54.78 43.55 C 57.73 45.49 60.64 47.63 64.16 48.38 C 66.90 48.91 67.98 51.78 69.55 53.73 C 67.07 55.31 64.58 56.90 62.08 58.45 C 57.92 54.49 55.94 49.04 54.78 43.55 Z" />
<path fill="#ffffff" opacity="1.00" d=" M 25.19 63.65 C 25.98 62.85 26.79 62.08 27.64 61.35 C 33.14 65.94 38.95 70.16 44.25 74.98 C 41.38 74.67 37.96 75.48 35.63 73.33 C 32.03 70.25 28.70 66.85 25.19 63.65 Z" />
<path fill="#ffffff" opacity="1.00" d=" M 55.86 75.00 C 61.50 70.13 67.36 65.53 73.27 61.00 C 73.54 62.21 75.08 63.72 73.72 64.75 C 70.82 67.82 67.69 70.70 64.45 73.40 C 62.09 75.45 58.71 74.68 55.86 75.00 Z" />
<path fill="#ffffff" opacity="1.00" d=" M 21.04 68.17 C 22.02 67.08 23.01 66.00 24.00 64.92 C 27.97 68.10 31.93 71.30 35.49 74.94 C 33.15 74.85 30.77 74.98 28.48 74.44 C 25.62 72.86 23.43 70.35 21.04 68.17 Z" />
<path fill="#ffffff" opacity="1.00" d=" M 64.63 74.96 C 68.24 71.38 72.23 68.21 76.10 64.91 C 77.13 65.97 78.16 67.05 79.18 68.13 C 76.75 70.34 74.58 73.00 71.59 74.49 C 69.31 74.97 66.95 74.87 64.63 74.96 Z" />
<path fill="#ffffff" opacity="1.00" d=" M 20.31 69.69 C 22.11 71.43 23.89 73.20 25.56 75.06 C 22.78 74.83 20.02 74.35 17.35 73.54 C 18.28 72.21 19.27 70.93 20.31 69.69 Z" />
<path fill="#ffffff" opacity="1.00" d=" M 74.58 75.11 C 76.28 73.28 78.05 71.53 79.86 69.82 C 80.97 70.98 82.07 72.15 83.16 73.32 C 80.41 74.35 77.50 74.88 74.58 75.11 Z" />
</svg>
