<?xml version="1.0" encoding="UTF-8" ?>
<!DOCTYPE svg PUBLIC "-//W3C//DTD SVG 1.1//EN" "http://www.w3.org/Graphics/SVG/1.1/DTD/svg11.dtd">
<svg width="100pt" height="100pt" viewBox="0 0 100 100" version="1.1" xmlns="http://www.w3.org/2000/svg">
<path fill="#b9bbb9" opacity="1.00" d=" M 37.77 15.80 C 42.94 13.98 48.53 13.01 54.01 13.71 C 57.77 14.14 61.17 16.13 64.96 16.35 C 68.78 16.55 72.59 16.68 76.40 17.00 C 75.43 18.16 74.45 19.32 73.49 20.48 C 79.74 20.53 85.98 20.49 92.23 20.52 C 88.02 26.27 83.96 32.12 79.86 37.94 C 75.93 43.29 77.13 50.33 75.48 56.41 C 73.03 59.62 69.82 62.15 66.88 64.90 C 63.86 67.71 59.92 69.19 56.69 71.72 C 54.19 74.07 52.50 77.11 50.49 79.86 C 47.75 76.14 45.41 72.08 42.24 68.70 C 40.80 67.07 38.44 67.58 36.53 67.63 C 32.36 68.09 28.19 67.69 24.06 67.14 C 25.98 65.30 27.96 63.51 29.95 61.75 C 24.58 54.81 22.32 46.11 20.12 37.78 C 16.57 31.61 11.92 26.13 7.88 20.28 C 14.61 20.21 21.35 20.42 28.08 20.26 C 31.94 20.46 34.35 16.92 37.77 15.80 M 41.66 16.66 C 36.28 17.78 32.76 23.17 27.12 23.38 C 22.65 23.66 18.17 23.41 13.69 23.39 C 16.07 26.66 18.63 29.80 20.71 33.27 C 23.37 37.69 23.39 43.02 25.09 47.79 C 26.60 52.94 29.39 57.57 32.59 61.85 C 31.35 63.22 30.12 64.60 28.89 65.98 C 33.02 65.89 37.20 65.15 41.31 65.84 C 45.56 66.65 47.74 70.77 50.24 73.86 C 57.43 67.05 68.16 64.28 73.28 55.28 C 75.64 48.98 74.11 41.62 77.71 35.71 C 80.33 31.47 83.40 27.53 86.21 23.42 C 80.01 23.38 73.82 23.38 67.63 23.27 C 69.10 21.74 70.59 20.23 72.09 18.73 C 61.88 18.77 51.85 13.72 41.66 16.66 Z" />
<path fill="#941271" opacity="1.00" d=" M 41.66 16.66 C 51.85 13.72 61.88 18.77 72.09 18.73 C 70.59 20.23 69.10 21.74 67.63 23.27 C 73.82 23.38 80.01 23.38 86.21 23.42 C 83.40 27.53 80.33 31.47 77.71 35.71 C 74.11 41.62 75.64 48.98 73.28 55.28 C 68.16 64.28 57.43 67.05 50.24 73.86 C 47.74 70.77 45.56 66.65 41.31 65.84 C 37.20 65.15 33.02 65.89 28.89 65.98 C 30.12 64.60 31.35 63.22 32.59 61.85 C 29.39 57.57 26.60 52.94 25.09 47.79 C 23.39 43.02 23.37 37.69 20.71 33.27 C 18.63 29.80 16.07 26.66 13.69 23.39 C 18.17 23.41 22.65 23.66 27.12 23.38 C 32.76 23.17 36.28 17.78 41.66 16.66 M 48.43 18.25 C 43.68 18.52 38.50 19.41 35.08 23.02 C 29.96 27.79 24.13 33.91 25.60 41.56 C 27.70 49.10 30.53 57.03 37.03 61.93 C 36.00 62.43 34.97 62.92 33.94 63.42 C 41.44 62.34 48.53 65.70 55.92 65.87 C 61.11 65.02 64.84 60.80 68.52 57.40 C 72.92 53.57 72.11 47.19 72.83 41.96 C 71.99 45.97 71.96 50.28 70.02 53.96 C 67.31 57.27 63.84 59.93 60.32 62.33 C 54.66 66.30 47.71 62.68 41.57 62.05 C 51.43 58.06 62.54 53.76 68.09 44.03 C 70.53 40.61 68.81 35.31 64.72 34.19 C 59.75 33.03 54.63 34.31 49.66 34.90 C 52.52 35.52 55.49 35.78 58.20 36.96 C 60.57 40.93 56.77 44.80 55.19 48.29 C 57.77 45.60 60.19 42.75 62.80 40.09 C 60.26 49.60 51.31 55.09 43.09 59.25 C 41.17 59.92 38.87 61.69 36.93 60.23 C 30.61 56.33 28.72 48.54 27.03 41.81 C 25.54 33.71 32.41 27.59 38.01 22.95 C 44.59 19.12 52.87 19.70 59.98 21.68 C 50.51 26.10 40.10 29.96 33.19 38.20 C 30.95 40.75 29.64 45.82 33.40 47.67 C 38.45 50.05 44.17 47.71 49.40 47.25 C 46.01 46.57 42.17 46.76 39.31 44.54 C 37.48 42.57 38.09 39.69 39.80 37.87 C 45.60 30.91 53.79 26.54 61.94 22.89 C 67.04 27.76 71.32 33.46 74.21 39.91 C 72.04 33.39 68.64 27.35 63.72 22.50 C 64.79 21.91 65.86 21.33 66.93 20.75 C 60.62 20.94 54.75 17.79 48.43 18.25 Z" />
<path fill="#ffffff" opacity="1.00" d=" M 48.43 18.25 C 54.75 17.79 60.62 20.94 66.93 20.75 C 65.86 21.33 64.79 21.91 63.72 22.50 C 68.64 27.35 72.04 33.39 74.21 39.91 C 71.32 33.46 67.04 27.76 61.94 22.89 C 53.79 26.54 45.60 30.91 39.80 37.87 C 38.09 39.69 37.48 42.57 39.31 44.54 C 42.17 46.76 46.01 46.57 49.40 47.25 C 44.17 47.71 38.45 50.05 33.40 47.67 C 29.64 45.82 30.95 40.75 33.19 38.20 C 40.10 29.96 50.51 26.10 59.98 21.68 C 52.87 19.70 44.59 19.12 38.01 22.95 C 32.41 27.59 25.54 33.71 27.03 41.81 C 28.72 48.54 30.61 56.33 36.93 60.23 C 38.87 61.69 41.17 59.92 43.09 59.25 C 51.31 55.09 60.26 49.60 62.80 40.09 C 60.19 42.75 57.77 45.60 55.19 48.29 C 56.77 44.80 60.57 40.93 58.20 36.96 C 55.49 35.78 52.52 35.52 49.66 34.90 C 54.63 34.31 59.75 33.03 64.72 34.19 C 68.81 35.31 70.53 40.61 68.09 44.03 C 62.54 53.76 51.43 58.06 41.57 62.05 C 47.71 62.68 54.66 66.30 60.32 62.33 C 63.84 59.93 67.31 57.27 70.02 53.96 C 71.96 50.28 71.99 45.97 72.83 41.96 C 72.11 47.19 72.92 53.57 68.52 57.40 C 64.84 60.80 61.11 65.02 55.92 65.87 C 48.53 65.70 41.44 62.34 33.94 63.42 C 34.97 62.92 36.00 62.43 37.03 61.93 C 30.53 57.03 27.70 49.10 25.60 41.56 C 24.13 33.91 29.96 27.79 35.08 23.02 C 38.50 19.41 43.68 18.52 48.43 18.25 Z" />
</svg>
