<?xml version="1.0" encoding="UTF-8" ?>
<!DOCTYPE svg PUBLIC "-//W3C//DTD SVG 1.1//EN" "http://www.w3.org/Graphics/SVG/1.1/DTD/svg11.dtd">
<svg width="100pt" height="100pt" viewBox="0 0 100 100" version="1.1" xmlns="http://www.w3.org/2000/svg">
<path fill="#b8b8b8" opacity="1.00" d=" M 49.78 9.67 C 53.04 7.34 57.30 8.73 60.49 10.44 C 64.55 14.19 67.56 19.26 67.45 24.95 C 70.36 23.81 73.52 21.95 76.72 23.18 C 79.39 23.88 81.53 26.84 80.55 29.60 C 79.60 32.07 77.85 34.10 76.39 36.27 C 81.47 39.78 86.68 43.12 91.71 46.71 C 86.28 61.65 81.06 76.66 75.70 91.62 C 58.56 91.61 41.42 91.61 24.28 91.62 C 22.96 87.97 21.98 84.16 20.17 80.70 C 18.00 77.58 14.07 76.05 12.25 72.63 C 11.36 68.57 14.84 64.70 13.30 60.68 C 11.80 55.97 9.95 51.37 8.28 46.72 C 13.96 42.63 19.90 38.91 25.66 34.94 C 23.73 31.98 21.41 29.30 19.38 26.41 C 17.79 24.49 18.90 21.89 20.11 20.09 C 21.86 17.23 25.69 16.55 28.76 17.11 C 31.77 18.22 33.76 20.92 36.04 23.04 C 39.31 17.50 44.36 13.05 49.78 9.67 M 51.06 12.08 C 47.47 14.00 44.65 17.03 41.78 19.87 C 39.22 21.93 40.50 25.49 40.35 28.30 C 35.68 26.18 32.01 22.58 27.81 19.78 C 24.60 18.59 22.54 21.70 20.78 23.79 C 24.12 28.01 27.20 32.42 30.54 36.64 C 24.72 40.40 18.85 44.09 13.19 48.10 C 14.65 52.48 16.65 56.70 17.59 61.23 C 17.70 64.91 14.68 68.04 14.93 71.75 C 17.08 75.11 21.22 76.30 23.78 79.22 C 25.45 81.81 26.27 84.82 27.35 87.67 C 42.52 87.82 57.70 87.79 72.87 87.70 C 74.17 84.33 75.28 80.87 75.74 77.28 C 77.47 76.31 78.07 74.39 77.74 72.50 L 78.19 73.18 C 80.85 64.73 84.14 56.50 86.86 48.08 C 81.98 44.70 76.97 41.51 72.23 37.94 C 74.43 34.30 76.74 30.71 78.62 26.89 C 74.02 23.93 69.40 27.33 65.19 29.18 C 64.61 24.32 64.37 18.99 60.97 15.10 C 58.98 11.87 54.51 10.26 51.06 12.08 Z" />
<path fill="#b61c2e" opacity="1.00" d=" M 51.06 12.08 C 54.51 10.26 58.98 11.87 60.97 15.10 C 64.37 18.99 64.61 24.32 65.19 29.18 C 69.40 27.33 74.02 23.93 78.62 26.89 C 76.74 30.71 74.43 34.30 72.23 37.94 C 76.97 41.51 81.98 44.70 86.86 48.08 C 84.14 56.50 80.85 64.73 78.19 73.18 L 77.74 72.50 C 76.87 71.28 76.14 69.79 74.73 69.11 C 71.89 69.36 69.05 71.17 67.77 73.75 C 66.80 76.75 67.82 79.94 68.07 82.98 C 63.91 82.55 59.08 81.92 55.91 85.35 C 59.89 85.78 64.22 86.66 68.08 85.30 C 70.47 82.47 72.60 79.37 75.74 77.28 C 75.28 80.87 74.17 84.33 72.87 87.70 C 57.70 87.79 42.52 87.82 27.35 87.67 C 26.27 84.82 25.45 81.81 23.78 79.22 C 21.22 76.30 17.08 75.11 14.93 71.75 C 14.68 68.04 17.70 64.91 17.59 61.23 C 16.65 56.70 14.65 52.48 13.19 48.10 C 18.85 44.09 24.72 40.40 30.54 36.64 C 27.20 32.42 24.12 28.01 20.78 23.79 C 22.54 21.70 24.60 18.59 27.81 19.78 C 32.01 22.58 35.68 26.18 40.35 28.30 C 40.50 25.49 39.22 21.93 41.78 19.87 C 44.65 17.03 47.47 14.00 51.06 12.08 M 42.91 23.37 C 42.77 28.68 47.37 32.24 49.09 36.92 C 50.33 40.32 53.03 42.80 55.65 45.15 C 57.01 40.36 58.13 35.27 61.68 31.54 C 60.07 36.86 59.17 42.36 59.41 47.94 C 61.72 45.81 63.14 43.03 64.36 40.20 C 65.58 37.18 68.83 35.92 71.24 34.04 C 68.94 31.62 65.58 31.99 62.59 31.49 C 61.48 27.19 62.68 22.01 59.52 18.45 C 58.02 16.31 55.08 17.34 52.88 16.98 C 54.23 15.88 55.59 14.78 56.92 13.66 C 50.55 13.68 46.74 19.12 42.91 23.37 M 25.69 21.72 C 25.38 22.33 24.75 23.56 24.44 24.17 C 26.03 26.06 27.54 28.00 29.02 29.97 C 30.38 29.34 31.74 28.71 33.10 28.08 C 30.86 25.70 28.55 23.35 25.69 21.72 M 69.82 30.56 C 70.82 31.16 71.86 31.66 72.95 32.07 C 73.67 30.57 74.40 29.08 75.10 27.58 C 73.31 28.51 71.59 29.58 69.82 30.56 M 30.29 31.33 C 31.00 34.18 34.93 34.36 37.00 36.06 C 41.27 38.36 41.52 43.78 39.60 47.74 C 41.90 45.61 45.20 43.57 45.12 40.03 C 44.66 35.85 42.49 31.05 38.01 29.96 C 35.39 28.68 32.55 29.87 30.29 31.33 M 46.56 42.74 C 45.96 44.76 45.38 46.77 44.81 48.80 C 47.58 48.98 50.35 49.12 53.13 49.19 C 51.02 46.96 48.84 44.79 46.56 42.74 M 63.24 47.23 C 62.09 47.28 60.59 49.30 62.17 49.86 C 63.95 50.54 65.83 46.95 63.24 47.23 M 36.88 50.70 C 37.16 52.55 37.46 54.41 37.77 56.26 C 39.29 54.79 40.82 53.32 42.32 51.83 C 40.51 51.44 38.70 51.06 36.88 50.70 M 60.94 52.36 C 62.62 54.01 64.31 55.67 66.05 57.27 C 65.74 55.18 65.41 53.09 65.06 51.00 C 63.69 51.45 62.31 51.91 60.94 52.36 M 44.44 52.40 C 42.06 55.26 39.31 57.78 36.60 60.32 C 36.82 62.09 37.26 63.86 37.10 65.65 C 36.26 68.00 34.73 70.02 33.57 72.21 C 35.47 72.18 37.37 72.03 39.26 71.85 C 39.48 73.49 39.73 75.13 40.00 76.76 C 40.96 72.89 41.52 68.91 42.95 65.17 C 43.34 68.14 43.55 71.13 43.75 74.12 C 44.27 70.93 44.74 67.73 45.24 64.53 C 48.58 64.15 51.91 63.72 55.24 63.25 C 55.89 68.39 56.46 73.54 57.07 78.69 C 59.06 78.51 61.06 78.32 63.05 78.10 C 62.13 75.19 60.48 72.40 60.46 69.29 C 61.05 66.24 62.60 63.49 63.92 60.72 C 64.59 62.95 65.26 65.19 65.99 67.41 C 65.80 64.87 66.47 62.02 65.30 59.68 C 62.48 56.35 58.66 53.15 54.06 53.12 C 50.85 52.88 47.64 52.71 44.44 52.40 M 27.12 59.29 C 27.89 62.18 29.15 65.10 32.13 66.31 C 31.61 63.26 29.80 60.78 27.12 59.29 M 70.92 60.47 C 69.97 63.67 69.26 66.93 68.89 70.24 C 70.40 69.30 72.02 68.46 73.27 67.17 C 74.16 65.56 74.48 63.73 75.01 62.00 C 73.64 61.49 72.28 60.98 70.92 60.47 M 20.17 64.58 C 19.09 66.67 18.05 68.77 17.05 70.89 C 19.93 73.01 23.27 74.51 25.95 76.89 C 27.14 79.70 27.47 82.79 28.25 85.72 C 34.14 85.90 40.03 85.81 45.91 85.98 C 43.18 83.49 41.17 80.38 39.86 76.94 C 37.38 77.82 34.91 78.77 32.47 79.75 C 30.30 73.45 26.66 67.16 20.17 64.58 M 50.54 77.84 C 50.63 79.67 50.75 81.50 50.92 83.32 C 52.40 82.17 53.83 80.95 55.27 79.74 C 53.69 79.10 52.12 78.47 50.54 77.84 M 49.40 85.61 C 51.32 85.71 53.24 85.64 55.16 85.48 C 53.74 82.98 51.30 84.79 49.40 85.61 Z" />
<path fill="#ffffff" opacity="1.00" d=" M 42.91 23.37 C 46.74 19.12 50.55 13.68 56.92 13.66 C 55.59 14.78 54.23 15.88 52.88 16.98 C 55.08 17.34 58.02 16.31 59.52 18.45 C 62.68 22.01 61.48 27.19 62.59 31.49 C 65.58 31.99 68.94 31.62 71.24 34.04 C 68.83 35.92 65.58 37.18 64.36 40.20 C 63.14 43.03 61.72 45.81 59.41 47.94 C 59.17 42.36 60.07 36.86 61.68 31.54 C 58.13 35.27 57.01 40.36 55.65 45.15 C 53.03 42.80 50.33 40.32 49.09 36.92 C 47.37 32.24 42.77 28.68 42.91 23.37 M 51.02 21.65 C 51.49 24.35 53.30 26.39 55.32 28.11 C 56.39 26.38 57.45 24.65 58.51 22.92 C 55.97 22.83 53.46 22.35 51.02 21.65 Z" />
<path fill="#b61c2e" opacity="1.00" d=" M 51.02 21.65 C 53.46 22.35 55.97 22.83 58.51 22.92 C 57.45 24.65 56.39 26.38 55.32 28.11 C 53.30 26.39 51.49 24.35 51.02 21.65 Z" />
<path fill="#ffffff" opacity="1.00" d=" M 25.69 21.72 C 28.55 23.35 30.86 25.70 33.10 28.08 C 31.74 28.71 30.38 29.34 29.02 29.97 C 27.54 28.00 26.03 26.06 24.44 24.17 C 24.75 23.56 25.38 22.33 25.69 21.72 Z" />
<path fill="#ffffff" opacity="1.00" d=" M 69.82 30.56 C 71.59 29.58 73.31 28.51 75.10 27.58 C 74.40 29.08 73.67 30.57 72.95 32.07 C 71.86 31.66 70.82 31.16 69.82 30.56 Z" />
<path fill="#ffffff" opacity="1.00" d=" M 30.29 31.33 C 32.55 29.87 35.39 28.68 38.01 29.96 C 42.49 31.05 44.66 35.85 45.12 40.03 C 45.20 43.57 41.90 45.61 39.60 47.74 C 41.52 43.78 41.27 38.36 37.00 36.06 C 34.93 34.36 31.00 34.18 30.29 31.33 Z" />
<path fill="#ffffff" opacity="1.00" d=" M 46.56 42.74 C 48.84 44.79 51.02 46.96 53.13 49.19 C 50.35 49.12 47.58 48.98 44.81 48.80 C 45.38 46.77 45.96 44.76 46.56 42.74 Z" />
<path fill="#ffffff" opacity="1.00" d=" M 63.24 47.23 C 65.83 46.95 63.95 50.54 62.17 49.86 C 60.59 49.30 62.09 47.28 63.24 47.23 Z" />
<path fill="#ffffff" opacity="1.00" d=" M 36.88 50.70 C 38.70 51.06 40.51 51.44 42.32 51.83 C 40.82 53.32 39.29 54.79 37.77 56.26 C 37.46 54.41 37.16 52.55 36.88 50.70 Z" />
<path fill="#ffffff" opacity="1.00" d=" M 60.94 52.36 C 62.31 51.91 63.69 51.45 65.06 51.00 C 65.41 53.09 65.74 55.18 66.05 57.27 C 64.31 55.67 62.62 54.01 60.94 52.36 Z" />
<path fill="#ffffff" opacity="1.00" d=" M 44.44 52.40 C 47.64 52.71 50.85 52.88 54.06 53.12 C 58.66 53.15 62.48 56.35 65.30 59.68 C 66.47 62.02 65.80 64.87 65.99 67.41 C 65.26 65.19 64.59 62.95 63.92 60.72 C 62.60 63.49 61.05 66.24 60.46 69.29 C 60.48 72.40 62.13 75.19 63.05 78.10 C 61.06 78.32 59.06 78.51 57.07 78.69 C 56.46 73.54 55.89 68.39 55.24 63.25 C 51.91 63.72 48.58 64.15 45.24 64.53 C 44.74 67.73 44.27 70.93 43.75 74.12 C 43.55 71.13 43.34 68.14 42.95 65.17 C 41.52 68.91 40.96 72.89 40.00 76.76 C 39.73 75.13 39.48 73.49 39.26 71.85 C 37.37 72.03 35.47 72.18 33.57 72.21 C 34.73 70.02 36.26 68.00 37.10 65.65 C 37.26 63.86 36.82 62.09 36.60 60.32 C 39.31 57.78 42.06 55.26 44.44 52.40 Z" />
<path fill="#ffffff" opacity="1.00" d=" M 27.12 59.29 C 29.80 60.78 31.61 63.26 32.13 66.31 C 29.15 65.10 27.89 62.18 27.12 59.29 Z" />
<path fill="#ffffff" opacity="1.00" d=" M 70.92 60.47 C 72.28 60.98 73.64 61.49 75.01 62.00 C 74.48 63.73 74.16 65.56 73.27 67.17 C 72.02 68.46 70.40 69.30 68.89 70.24 C 69.26 66.93 69.97 63.67 70.92 60.47 Z" />
<path fill="#ffffff" opacity="1.00" d=" M 20.17 64.58 C 26.66 67.16 30.30 73.45 32.47 79.75 C 34.91 78.77 37.38 77.82 39.86 76.94 C 41.17 80.38 43.18 83.49 45.91 85.98 C 40.03 85.81 34.14 85.90 28.25 85.72 C 27.47 82.79 27.14 79.70 25.95 76.89 C 23.27 74.51 19.93 73.01 17.05 70.89 C 18.05 68.77 19.09 66.67 20.17 64.58 Z" />
<path fill="#ffffff" opacity="1.00" d=" M 67.77 73.75 C 69.05 71.17 71.89 69.36 74.73 69.11 C 76.14 69.79 76.87 71.28 77.74 72.50 C 78.07 74.39 77.47 76.31 75.74 77.28 C 72.60 79.37 70.47 82.47 68.08 85.30 C 64.22 86.66 59.89 85.78 55.91 85.35 C 59.08 81.92 63.91 82.55 68.07 82.98 C 67.82 79.94 66.80 76.75 67.77 73.75 Z" />
<path fill="#ffffff" opacity="1.00" d=" M 50.54 77.84 C 52.12 78.47 53.69 79.10 55.27 79.74 C 53.83 80.95 52.40 82.17 50.92 83.32 C 50.75 81.50 50.63 79.67 50.54 77.84 Z" />
<path fill="#ffffff" opacity="1.00" d=" M 49.40 85.61 C 51.30 84.79 53.74 82.98 55.16 85.48 C 53.24 85.64 51.32 85.71 49.40 85.61 Z" />
</svg>
