<?xml version="1.0" encoding="UTF-8" ?>
<!DOCTYPE svg PUBLIC "-//W3C//DTD SVG 1.1//EN" "http://www.w3.org/Graphics/SVG/1.1/DTD/svg11.dtd">
<svg width="100pt" height="100pt" viewBox="0 0 100 100" version="1.1" xmlns="http://www.w3.org/2000/svg">
<path fill="#ffffff" opacity="1.00" d=" M 42.44 12.61 C 60.88 8.24 81.25 20.57 86.42 38.74 C 91.91 54.42 84.74 73.01 70.92 81.88 C 61.53 87.91 49.46 90.24 38.79 86.43 C 20.07 81.15 7.61 59.76 12.96 40.95 C 16.22 26.83 28.23 15.37 42.44 12.61 M 29.59 21.85 C 31.40 25.13 33.35 28.33 35.39 31.47 C 37.64 31.63 40.06 31.60 41.97 33.00 C 45.55 35.43 49.71 37.74 51.35 42.01 C 46.38 39.80 42.55 35.71 37.53 33.59 C 40.17 40.42 44.61 46.33 48.53 52.45 C 51.49 57.24 58.32 52.38 62.02 56.32 C 59.99 58.32 57.91 60.27 55.80 62.19 C 56.06 62.79 56.58 63.97 56.84 64.56 C 59.27 62.82 61.40 59.78 64.76 60.23 C 62.86 62.62 60.70 64.76 58.53 66.90 C 61.35 70.97 64.32 74.94 66.80 79.23 C 62.25 74.72 58.64 69.38 54.67 64.37 C 44.69 51.63 35.04 38.64 25.56 25.52 C 15.66 34.93 12.53 50.51 17.86 63.07 C 22.95 75.86 36.17 84.95 50.00 84.71 C 60.39 84.90 70.32 79.76 77.00 71.95 C 70.22 61.22 62.67 51.02 55.47 40.58 C 50.22 33.14 44.49 26.01 39.94 18.11 C 44.62 24.03 48.92 30.25 53.99 35.87 C 56.25 34.31 58.35 32.40 60.97 31.47 C 64.80 32.41 68.63 33.86 71.90 36.09 C 74.79 39.88 76.14 44.58 78.10 48.88 C 75.55 51.24 73.00 53.61 70.47 55.99 C 73.44 60.03 76.49 64.02 79.89 67.71 C 83.03 62.01 85.01 55.58 84.70 49.02 C 84.48 34.78 74.47 21.40 60.94 17.04 C 50.48 13.45 38.55 15.48 29.59 21.85 M 55.53 37.77 C 59.77 43.40 64.15 48.92 68.95 54.07 C 71.07 52.11 73.18 50.15 75.28 48.16 C 73.61 44.72 72.48 40.94 70.11 37.89 C 67.49 35.92 64.28 34.74 61.08 34.12 C 59.02 34.98 57.32 36.47 55.53 37.77 Z" />
<path fill="#482b46" opacity="1.00" d=" M 29.59 21.85 C 38.55 15.48 50.48 13.45 60.94 17.04 C 74.47 21.40 84.48 34.78 84.70 49.02 C 85.01 55.58 83.03 62.01 79.89 67.71 C 76.49 64.02 73.44 60.03 70.47 55.99 C 73.00 53.61 75.55 51.24 78.10 48.88 C 76.14 44.58 74.79 39.88 71.90 36.09 C 68.63 33.86 64.80 32.41 60.97 31.47 C 58.35 32.40 56.25 34.31 53.99 35.87 C 48.92 30.25 44.62 24.03 39.94 18.11 C 44.49 26.01 50.22 33.14 55.47 40.58 C 62.67 51.02 70.22 61.22 77.00 71.95 C 70.32 79.76 60.39 84.90 50.00 84.71 C 36.17 84.95 22.95 75.86 17.86 63.07 C 12.53 50.51 15.66 34.93 25.56 25.52 C 35.04 38.64 44.69 51.63 54.67 64.37 C 58.64 69.38 62.25 74.72 66.80 79.23 C 64.32 74.94 61.35 70.97 58.53 66.90 C 60.70 64.76 62.86 62.62 64.76 60.23 C 61.40 59.78 59.27 62.82 56.84 64.56 C 56.58 63.97 56.06 62.79 55.80 62.19 C 57.91 60.27 59.99 58.32 62.02 56.32 C 58.32 52.38 51.49 57.24 48.53 52.45 C 44.61 46.33 40.17 40.42 37.53 33.59 C 42.55 35.71 46.38 39.80 51.35 42.01 C 49.71 37.74 45.55 35.43 41.97 33.00 C 40.06 31.60 37.64 31.63 35.39 31.47 C 33.35 28.33 31.40 25.13 29.59 21.85 M 27.59 36.03 C 25.64 40.30 23.68 44.57 21.88 48.90 C 31.25 57.41 40.61 65.92 50.11 74.29 C 52.04 72.48 53.92 70.59 55.58 68.52 C 53.43 68.63 51.49 69.55 49.69 70.67 C 41.27 63.28 32.91 55.82 24.75 48.14 C 26.31 44.78 27.83 41.41 29.32 38.02 C 28.75 37.36 28.17 36.69 27.59 36.03 M 38.99 57.08 C 42.38 60.75 46.18 64.00 49.98 67.23 C 50.48 66.87 51.49 66.17 52.00 65.82 C 49.57 62.75 47.47 59.32 44.44 56.79 C 42.69 56.21 40.78 57.00 38.99 57.08 Z" />
<path fill="#482b46" opacity="1.00" d=" M 55.53 37.77 C 57.32 36.47 59.02 34.98 61.08 34.12 C 64.28 34.74 67.49 35.92 70.11 37.89 C 72.48 40.94 73.61 44.72 75.28 48.16 C 73.18 50.15 71.07 52.11 68.95 54.07 C 64.15 48.92 59.77 43.40 55.53 37.77 Z" />
<path fill="#ffffff" opacity="1.00" d=" M 27.59 36.03 C 28.17 36.69 28.75 37.36 29.32 38.02 C 27.83 41.41 26.31 44.78 24.75 48.14 C 32.91 55.82 41.27 63.28 49.69 70.67 C 51.49 69.55 53.43 68.63 55.58 68.52 C 53.92 70.59 52.04 72.48 50.11 74.29 C 40.61 65.92 31.25 57.41 21.88 48.90 C 23.68 44.57 25.64 40.30 27.59 36.03 Z" />
<path fill="#ffffff" opacity="1.00" d=" M 38.99 57.08 C 40.78 57.00 42.69 56.21 44.44 56.79 C 47.47 59.32 49.57 62.75 52.00 65.82 C 51.49 66.17 50.48 66.87 49.98 67.23 C 46.18 64.00 42.38 60.75 38.99 57.08 Z" />
</svg>
