<?xml version="1.0" encoding="UTF-8" ?>
<!DOCTYPE svg PUBLIC "-//W3C//DTD SVG 1.1//EN" "http://www.w3.org/Graphics/SVG/1.1/DTD/svg11.dtd">
<svg width="100pt" height="100pt" viewBox="0 0 100 100" version="1.1" xmlns="http://www.w3.org/2000/svg">
<path fill="#b8b8b8" opacity="1.00" d=" M 40.15 9.13 C 43.11 5.65 47.99 6.30 52.04 6.58 C 54.93 6.91 58.25 7.33 60.27 9.66 C 61.77 13.67 61.76 18.06 61.59 22.29 C 61.43 23.42 61.83 24.60 62.84 25.22 C 65.81 27.11 69.53 27.48 72.36 29.64 C 75.00 31.68 75.45 35.85 73.44 38.47 C 71.54 40.92 68.78 42.45 66.23 44.12 C 75.15 56.98 84.21 69.76 93.00 82.72 C 82.34 82.79 71.68 82.62 61.03 82.77 C 57.82 86.64 55.53 92.47 50.00 93.36 C 43.95 93.15 41.45 86.73 38.07 82.72 C 27.60 82.64 17.12 82.83 6.65 82.67 C 14.88 69.52 24.07 56.99 32.55 44.00 C 29.62 41.73 25.85 39.70 24.89 35.81 C 24.13 33.13 25.64 30.24 27.97 28.88 C 31.31 26.95 35.15 26.18 38.83 25.18 C 38.81 19.87 35.37 13.28 40.15 9.13 M 41.06 11.16 C 41.21 16.52 42.34 21.76 43.23 27.03 C 38.46 29.18 32.66 29.19 28.58 32.68 C 26.89 38.37 34.03 40.47 38.18 41.54 C 30.92 54.50 21.54 66.16 13.94 78.93 C 21.32 79.25 28.71 78.82 36.09 78.94 C 37.47 79.11 39.08 78.86 40.27 79.73 C 42.87 82.55 44.23 86.34 47.14 88.90 C 48.64 90.31 51.16 90.01 52.46 88.49 C 55.11 85.68 57.01 82.28 59.22 79.14 C 67.93 78.62 76.64 79.35 85.35 78.90 C 80.48 70.54 74.43 62.94 69.12 54.86 C 66.21 50.67 62.89 46.69 61.04 41.87 C 64.67 40.55 69.26 39.66 71.02 35.75 C 71.90 33.89 70.36 31.98 68.71 31.25 C 64.86 29.46 60.63 28.79 56.59 27.59 C 56.82 22.03 59.44 16.82 58.82 11.20 C 52.99 9.77 46.87 9.44 41.06 11.16 Z" />
<path fill="#217a7a" opacity="1.00" d=" M 41.06 11.16 C 46.87 9.44 52.99 9.77 58.82 11.20 C 59.44 16.82 56.82 22.03 56.59 27.59 C 60.63 28.79 64.86 29.46 68.71 31.25 C 70.36 31.98 71.90 33.89 71.02 35.75 C 69.26 39.66 64.67 40.55 61.04 41.87 C 62.89 46.69 66.21 50.67 69.12 54.86 C 74.43 62.94 80.48 70.54 85.35 78.90 C 76.64 79.35 67.93 78.62 59.22 79.14 C 57.01 82.28 55.11 85.68 52.46 88.49 C 51.16 90.01 48.64 90.31 47.14 88.90 C 44.23 86.34 42.87 82.55 40.27 79.73 C 39.08 78.86 37.47 79.11 36.09 78.94 C 28.71 78.82 21.32 79.25 13.94 78.93 C 21.54 66.16 30.92 54.50 38.18 41.54 C 34.03 40.47 26.89 38.37 28.58 32.68 C 32.66 29.19 38.46 29.18 43.23 27.03 C 42.34 21.76 41.21 16.52 41.06 11.16 M 44.88 13.32 C 44.77 15.17 44.73 17.02 44.76 18.87 C 48.25 18.84 51.73 18.85 55.22 18.81 C 55.19 17.00 55.16 15.20 55.14 13.40 C 51.72 13.27 48.30 13.25 44.88 13.32 M 46.66 20.33 C 46.30 23.32 47.03 26.75 45.51 29.42 C 41.33 32.16 35.97 32.12 31.48 34.24 C 32.82 35.42 33.90 37.63 35.96 37.45 C 41.07 36.86 45.74 34.18 50.90 33.94 C 55.36 34.65 59.35 37.24 63.89 37.61 C 65.69 37.16 66.83 35.48 68.16 34.31 C 63.77 32.52 58.92 32.22 54.55 30.44 C 51.83 28.07 53.52 23.70 52.22 20.57 C 50.56 19.36 48.48 19.92 46.66 20.33 M 41.62 37.91 C 41.47 46.28 42.40 54.62 42.35 63.00 C 42.41 67.33 42.07 71.73 43.00 76.00 C 44.01 80.24 46.93 83.62 49.67 86.88 C 52.75 82.77 56.66 78.56 56.64 73.09 C 57.15 61.40 57.88 49.72 58.20 38.03 C 55.82 37.26 53.43 36.50 51.04 35.77 C 50.48 47.55 50.76 59.35 50.54 71.14 C 50.52 72.51 50.25 73.87 49.81 75.17 C 49.14 62.09 49.03 48.98 48.54 35.89 C 46.23 36.53 43.92 37.21 41.62 37.91 Z" />
<path fill="#ffffff" opacity="1.00" d=" M 44.88 13.32 C 48.30 13.25 51.72 13.27 55.14 13.40 C 55.16 15.20 55.19 17.00 55.22 18.81 C 51.73 18.85 48.25 18.84 44.76 18.87 C 44.73 17.02 44.77 15.17 44.88 13.32 Z" />
<path fill="#ffffff" opacity="1.00" d=" M 46.66 20.33 C 48.48 19.92 50.56 19.36 52.22 20.57 C 53.52 23.70 51.83 28.07 54.55 30.44 C 58.92 32.22 63.77 32.52 68.16 34.31 C 66.83 35.48 65.69 37.16 63.89 37.61 C 59.35 37.24 55.36 34.65 50.90 33.94 C 45.74 34.18 41.07 36.86 35.96 37.45 C 33.90 37.63 32.82 35.42 31.48 34.24 C 35.97 32.12 41.33 32.16 45.51 29.42 C 47.03 26.75 46.30 23.32 46.66 20.33 Z" />
<path fill="#ffffff" opacity="1.00" d=" M 41.62 37.91 C 43.92 37.21 46.23 36.53 48.54 35.89 C 49.03 48.98 49.14 62.09 49.81 75.17 C 50.25 73.87 50.52 72.51 50.54 71.14 C 50.76 59.35 50.48 47.55 51.04 35.77 C 53.43 36.50 55.82 37.26 58.20 38.03 C 57.88 49.72 57.15 61.40 56.64 73.09 C 56.66 78.56 52.75 82.77 49.67 86.88 C 46.93 83.62 44.01 80.24 43.00 76.00 C 42.07 71.73 42.41 67.33 42.35 63.00 C 42.40 54.62 41.47 46.28 41.62 37.91 Z" />
</svg>
