<?xml version="1.0" encoding="UTF-8" ?>
<!DOCTYPE svg PUBLIC "-//W3C//DTD SVG 1.1//EN" "http://www.w3.org/Graphics/SVG/1.1/DTD/svg11.dtd">
<svg width="100pt" height="100pt" viewBox="0 0 100 100" version="1.1" xmlns="http://www.w3.org/2000/svg">
<path fill="#b8c2c1" opacity="1.00" d=" M 29.40 17.38 C 34.16 12.91 40.21 7.61 47.26 9.55 C 52.02 10.76 53.30 15.97 56.12 19.29 C 62.55 20.53 68.63 17.64 74.93 17.25 C 79.45 16.84 83.63 20.58 83.77 25.10 C 84.89 32.83 79.08 39.32 79.45 46.94 C 79.46 57.81 79.61 68.68 79.42 79.55 C 68.61 79.73 57.81 79.51 47.00 79.60 C 43.65 79.51 40.76 81.39 37.81 82.70 C 32.46 85.14 27.01 87.39 21.58 89.64 C 24.62 86.48 28.00 83.56 30.25 79.74 C 26.66 79.60 23.07 79.57 19.47 79.55 C 19.33 66.81 19.33 54.06 19.51 41.32 C 18.44 41.78 17.37 42.26 16.30 42.73 C 19.20 35.32 19.88 27.40 19.41 19.51 C 22.79 19.25 26.85 20.22 29.40 17.38 M 29.51 19.50 C 27.33 21.66 23.86 22.88 22.99 26.06 C 21.79 29.81 20.78 33.61 19.67 37.38 C 20.79 37.05 21.92 36.71 23.04 36.38 C 22.90 49.65 22.72 62.93 23.03 76.21 C 27.68 76.40 32.34 76.45 37.00 76.34 C 34.61 78.93 32.21 81.50 29.91 84.17 C 35.77 82.52 40.72 78.81 46.37 76.74 C 56.39 75.54 66.55 77.21 76.60 76.03 C 76.66 68.68 76.61 61.34 76.50 54.00 C 76.49 49.91 76.26 45.66 77.81 41.78 C 79.87 36.43 82.86 31.00 82.09 25.06 C 81.81 22.22 79.73 19.56 76.85 19.04 C 72.07 18.07 67.64 20.57 63.27 22.07 C 60.47 23.09 57.45 22.78 54.54 22.72 C 52.82 18.21 51.46 11.92 45.89 10.88 C 39.10 9.94 34.15 15.48 29.51 19.50 Z" />
<path fill="#b61c2e" opacity="1.00" d=" M 29.51 19.50 C 34.15 15.48 39.10 9.94 45.89 10.88 C 51.46 11.92 52.82 18.21 54.54 22.72 C 57.45 22.78 60.47 23.09 63.27 22.07 C 67.64 20.57 72.07 18.07 76.85 19.04 C 79.73 19.56 81.81 22.22 82.09 25.06 C 82.86 31.00 79.87 36.43 77.81 41.78 C 76.26 45.66 76.49 49.91 76.50 54.00 C 76.61 61.34 76.66 68.68 76.60 76.03 C 66.55 77.21 56.39 75.54 46.37 76.74 C 40.72 78.81 35.77 82.52 29.91 84.17 C 32.21 81.50 34.61 78.93 37.00 76.34 C 32.34 76.45 27.68 76.40 23.03 76.21 C 22.72 62.93 22.90 49.65 23.04 36.38 C 21.92 36.71 20.79 37.05 19.67 37.38 C 20.78 33.61 21.79 29.81 22.99 26.06 C 23.86 22.88 27.33 21.66 29.51 19.50 M 37.17 15.22 C 31.21 19.56 26.55 25.50 22.94 31.89 C 26.23 28.56 28.95 24.51 33.06 22.10 C 35.27 20.72 38.65 20.40 40.39 22.71 C 42.60 25.61 42.90 29.43 43.15 32.94 C 43.56 46.70 40.05 60.25 35.00 72.96 C 39.11 66.85 42.53 60.31 45.62 53.64 C 49.74 44.36 53.33 34.30 52.36 23.99 C 51.85 20.14 50.90 15.73 47.48 13.40 C 44.12 11.40 40.09 13.25 37.17 15.22 M 56.96 30.67 C 60.15 31.06 65.51 29.67 66.09 34.18 C 66.56 40.17 63.76 45.85 61.00 50.98 C 54.45 61.76 45.12 70.42 36.74 79.72 C 53.89 70.31 69.06 56.24 77.32 38.29 C 79.24 33.68 81.33 28.43 79.73 23.43 C 78.40 20.00 74.03 20.41 71.11 21.02 C 65.25 22.16 60.90 26.51 56.96 30.67 Z" />
<path fill="#ffffff" opacity="1.00" d=" M 37.17 15.22 C 40.09 13.25 44.12 11.40 47.48 13.40 C 50.90 15.73 51.85 20.14 52.36 23.99 C 53.33 34.30 49.74 44.36 45.62 53.64 C 42.53 60.31 39.11 66.85 35.00 72.96 C 40.05 60.25 43.56 46.70 43.15 32.94 C 42.90 29.43 42.60 25.61 40.39 22.71 C 38.65 20.40 35.27 20.72 33.06 22.10 C 28.95 24.51 26.23 28.56 22.94 31.89 C 26.55 25.50 31.21 19.56 37.17 15.22 Z" />
<path fill="#ffffff" opacity="1.00" d=" M 56.96 30.67 C 60.90 26.51 65.25 22.16 71.11 21.02 C 74.03 20.41 78.40 20.00 79.73 23.43 C 81.33 28.43 79.24 33.68 77.32 38.29 C 69.06 56.24 53.89 70.31 36.74 79.72 C 45.12 70.42 54.45 61.76 61.00 50.98 C 63.76 45.85 66.56 40.17 66.09 34.18 C 65.51 29.67 60.15 31.06 56.96 30.67 Z" />
</svg>
