<?xml version="1.0" encoding="UTF-8" ?>
<!DOCTYPE svg PUBLIC "-//W3C//DTD SVG 1.1//EN" "http://www.w3.org/Graphics/SVG/1.1/DTD/svg11.dtd">
<svg width="100pt" height="100pt" viewBox="0 0 100 100" version="1.1" xmlns="http://www.w3.org/2000/svg">
<path fill="#bac2bd" opacity="1.00" d=" M 44.34 14.65 C 45.78 10.45 47.83 6.51 50.00 2.65 C 52.17 6.51 54.22 10.45 55.67 14.64 C 61.46 14.72 67.24 14.86 73.02 14.74 C 77.24 14.70 80.81 12.13 84.64 10.72 C 83.05 15.91 80.13 20.66 78.97 25.98 C 79.61 29.95 81.26 33.67 82.56 37.45 C 83.80 42.50 89.53 43.54 93.30 46.12 C 91.21 47.28 89.08 48.37 86.97 49.49 C 87.90 52.50 88.89 55.49 89.82 58.50 C 86.13 60.86 82.53 63.33 78.95 65.85 C 81.18 70.63 83.33 75.45 85.23 80.38 C 79.75 77.93 74.46 75.08 69.10 72.39 C 62.73 77.48 54.21 80.42 50.00 87.79 C 45.74 80.37 37.14 77.42 30.73 72.26 C 25.47 74.79 20.32 77.55 15.05 80.07 C 17.04 75.34 19.13 70.64 21.21 65.94 C 17.57 63.40 13.90 60.88 10.16 58.49 C 11.07 55.62 12.02 52.76 13.02 49.92 C 11.03 48.54 9.03 47.17 7.08 45.74 C 10.04 43.81 13.72 42.78 16.17 40.18 C 18.42 35.27 20.22 30.09 21.55 24.85 C 20.70 19.85 17.77 15.41 16.32 10.56 C 20.48 12.07 24.37 14.82 28.95 14.75 C 34.08 14.85 39.21 14.72 44.34 14.65 M 45.43 17.54 C 36.82 17.71 27.66 18.87 19.85 14.33 C 21.37 18.41 23.98 22.30 24.22 26.72 C 23.11 31.71 21.39 36.63 19.17 41.23 C 17.00 43.66 13.56 44.40 10.74 45.87 C 12.68 47.02 14.62 48.16 16.57 49.29 C 15.68 51.88 14.84 54.49 13.96 57.10 C 17.26 59.54 20.63 61.88 24.06 64.15 C 22.46 67.94 20.82 71.72 19.27 75.53 C 23.55 73.64 27.75 71.59 31.89 69.41 C 38.01 73.68 44.60 77.39 50.00 82.61 C 55.39 77.40 61.95 73.69 68.08 69.46 C 72.38 71.80 76.74 74.02 81.17 76.09 C 79.59 72.03 77.85 68.03 76.10 64.04 C 79.47 61.81 82.80 59.50 86.05 57.09 C 85.14 54.45 84.28 51.80 83.35 49.17 C 85.22 48.17 87.11 47.18 88.98 46.17 C 85.76 44.18 81.23 43.20 79.84 39.26 C 78.35 35.32 76.55 31.34 76.31 27.09 C 77.14 22.79 79.37 18.93 80.97 14.89 C 72.77 19.13 63.41 17.48 54.58 17.54 C 53.29 13.96 51.81 10.44 50.00 7.08 C 48.19 10.44 46.71 13.95 45.43 17.54 Z" />
<path fill="#941271" opacity="1.00" d=" M 45.43 17.54 C 46.71 13.95 48.19 10.44 50.00 7.08 C 51.81 10.44 53.29 13.96 54.58 17.54 C 63.41 17.48 72.77 19.13 80.97 14.89 C 79.37 18.93 77.14 22.79 76.31 27.09 C 76.55 31.34 78.35 35.32 79.84 39.26 C 81.23 43.20 85.76 44.18 88.98 46.17 C 87.11 47.18 85.22 48.17 83.35 49.17 C 84.28 51.80 85.14 54.45 86.05 57.09 C 82.80 59.50 79.47 61.81 76.10 64.04 C 77.85 68.03 79.59 72.03 81.17 76.09 C 76.74 74.02 72.38 71.80 68.08 69.46 C 61.95 73.69 55.39 77.40 50.00 82.61 C 44.60 77.39 38.01 73.68 31.89 69.41 C 27.75 71.59 23.55 73.64 19.27 75.53 C 20.82 71.72 22.46 67.94 24.06 64.15 C 20.63 61.88 17.26 59.54 13.96 57.10 C 14.84 54.49 15.68 51.88 16.57 49.29 C 14.62 48.16 12.68 47.02 10.74 45.87 C 13.56 44.40 17.00 43.66 19.17 41.23 C 21.39 36.63 23.11 31.71 24.22 26.72 C 23.98 22.30 21.37 18.41 19.85 14.33 C 27.66 18.87 36.82 17.71 45.43 17.54 M 46.65 24.31 C 41.31 26.31 36.44 29.33 31.98 32.85 C 37.33 30.29 42.91 27.67 48.99 27.81 C 55.43 27.50 61.31 30.37 67.05 32.89 C 62.84 29.52 58.29 26.59 53.34 24.43 C 52.40 20.25 51.39 16.07 50.00 12.01 C 48.62 16.04 47.62 20.18 46.65 24.31 M 23.73 18.57 C 25.55 23.05 28.23 27.13 31.71 30.49 C 33.12 29.21 34.54 27.93 35.96 26.65 C 32.43 23.21 28.28 20.47 23.73 18.57 M 64.89 27.06 C 66.28 28.41 67.67 29.76 69.06 31.11 C 72.58 27.54 75.38 23.32 77.33 18.70 C 72.70 20.69 68.47 23.51 64.89 27.06 M 31.96 38.96 C 26.86 42.52 21.03 44.87 14.94 46.06 C 22.28 48.27 29.98 50.12 36.27 54.73 C 40.08 57.51 44.10 60.72 49.08 60.68 C 54.42 61.18 59.03 58.10 63.13 55.10 C 69.58 50.32 77.47 48.31 85.05 46.06 C 79.22 44.89 73.58 42.73 68.66 39.36 C 62.82 35.69 57.40 30.07 50.00 30.19 C 42.80 29.84 37.57 35.38 31.96 38.96 M 28.62 54.75 C 31.93 58.03 35.24 62.26 40.36 62.29 C 39.11 56.88 33.43 55.33 28.62 54.75 M 59.76 62.23 C 65.02 62.23 68.46 57.87 72.08 54.70 C 67.08 55.17 61.33 56.81 59.76 62.23 M 23.11 71.25 C 27.42 69.25 31.39 66.57 34.74 63.19 C 33.45 62.09 32.17 60.98 30.90 59.87 C 27.77 63.27 25.14 67.09 23.11 71.25 M 65.57 63.39 C 68.92 66.92 72.95 69.71 77.34 71.81 C 75.35 67.50 72.65 63.56 69.26 60.23 C 68.03 61.29 66.80 62.34 65.57 63.39 M 46.99 63.76 C 47.32 68.58 48.28 73.34 50.00 77.85 C 51.72 73.33 52.68 68.56 53.02 63.74 C 51.01 63.70 49.00 63.71 46.99 63.76 Z" />
<path fill="#ffffff" opacity="1.00" d=" M 46.65 24.31 C 47.62 20.18 48.62 16.04 50.00 12.01 C 51.39 16.07 52.40 20.25 53.34 24.43 C 58.29 26.59 62.84 29.52 67.05 32.89 C 61.31 30.37 55.43 27.50 48.99 27.81 C 42.91 27.67 37.33 30.29 31.98 32.85 C 36.44 29.33 41.31 26.31 46.65 24.31 Z" />
<path fill="#ffffff" opacity="1.00" d=" M 23.73 18.57 C 28.28 20.47 32.43 23.21 35.96 26.65 C 34.54 27.93 33.12 29.21 31.71 30.49 C 28.23 27.13 25.55 23.05 23.73 18.57 Z" />
<path fill="#ffffff" opacity="1.00" d=" M 64.89 27.06 C 68.47 23.51 72.70 20.69 77.33 18.70 C 75.38 23.32 72.58 27.54 69.06 31.11 C 67.67 29.76 66.28 28.41 64.89 27.06 Z" />
<path fill="#ffffff" opacity="1.00" d=" M 31.96 38.96 C 37.57 35.38 42.80 29.84 50.00 30.19 C 57.40 30.07 62.82 35.69 68.66 39.36 C 73.58 42.73 79.22 44.89 85.05 46.06 C 77.47 48.31 69.58 50.32 63.13 55.10 C 59.03 58.10 54.42 61.18 49.08 60.68 C 44.10 60.72 40.08 57.51 36.27 54.73 C 29.98 50.12 22.28 48.27 14.94 46.06 C 21.03 44.87 26.86 42.52 31.96 38.96 M 38.51 37.49 C 34.16 40.76 29.42 43.47 24.65 46.08 C 29.28 48.04 34.04 49.88 38.11 52.90 C 41.39 55.26 44.80 58.01 49.04 58.14 C 53.68 58.56 57.69 55.85 61.26 53.28 C 65.53 50.12 70.48 48.10 75.35 46.08 C 71.01 43.69 66.67 41.25 62.65 38.34 C 58.88 35.67 54.82 32.70 49.99 32.70 C 45.63 32.52 41.86 35.01 38.51 37.49 Z" />
<path fill="#941271" opacity="1.00" d=" M 38.51 37.49 C 41.86 35.01 45.63 32.52 49.99 32.70 C 54.82 32.70 58.88 35.67 62.65 38.34 C 66.67 41.25 71.01 43.69 75.35 46.08 C 70.48 48.10 65.53 50.12 61.26 53.28 C 57.69 55.85 53.68 58.56 49.04 58.14 C 44.80 58.01 41.39 55.26 38.11 52.90 C 34.04 49.88 29.28 48.04 24.65 46.08 C 29.42 43.47 34.16 40.76 38.51 37.49 M 47.43 40.23 C 43.49 41.93 43.13 48.05 46.80 50.24 C 50.20 52.82 55.63 50.09 55.76 45.88 C 56.34 41.59 51.20 38.09 47.43 40.23 Z" />
<path fill="#ffffff" opacity="1.00" d=" M 47.43 40.23 C 51.20 38.09 56.34 41.59 55.76 45.88 C 55.63 50.09 50.20 52.82 46.80 50.24 C 43.13 48.05 43.49 41.93 47.43 40.23 Z" />
<path fill="#ffffff" opacity="1.00" d=" M 28.62 54.75 C 33.43 55.33 39.11 56.88 40.36 62.29 C 35.24 62.26 31.93 58.03 28.62 54.75 Z" />
<path fill="#ffffff" opacity="1.00" d=" M 59.76 62.23 C 61.33 56.81 67.08 55.17 72.08 54.70 C 68.46 57.87 65.02 62.23 59.76 62.23 Z" />
<path fill="#ffffff" opacity="1.00" d=" M 23.11 71.25 C 25.14 67.09 27.77 63.27 30.90 59.87 C 32.17 60.98 33.45 62.09 34.74 63.19 C 31.39 66.57 27.42 69.25 23.11 71.25 Z" />
<path fill="#ffffff" opacity="1.00" d=" M 65.57 63.39 C 66.80 62.34 68.03 61.29 69.26 60.23 C 72.65 63.56 75.35 67.50 77.34 71.81 C 72.95 69.71 68.92 66.92 65.57 63.39 Z" />
<path fill="#ffffff" opacity="1.00" d=" M 46.99 63.76 C 49.00 63.71 51.01 63.70 53.02 63.74 C 52.68 68.56 51.72 73.33 50.00 77.85 C 48.28 73.34 47.32 68.58 46.99 63.76 Z" />
</svg>
