<?xml version="1.0" encoding="UTF-8" ?>
<!DOCTYPE svg PUBLIC "-//W3C//DTD SVG 1.1//EN" "http://www.w3.org/Graphics/SVG/1.1/DTD/svg11.dtd">
<svg width="100pt" height="100pt" viewBox="0 0 100 100" version="1.1" xmlns="http://www.w3.org/2000/svg">
<path fill="#b8b8b8" opacity="1.00" d=" M 15.46 50.21 C 28.62 34.99 41.79 19.76 54.92 4.50 C 60.24 10.71 65.51 16.96 70.91 23.10 C 72.84 25.53 75.96 26.63 77.93 28.98 C 81.63 37.30 88.79 43.26 94.41 50.23 C 81.23 65.45 68.10 80.72 54.92 95.94 C 49.28 89.60 43.89 83.05 38.19 76.76 C 34.79 77.18 31.38 77.35 27.96 77.23 C 23.16 76.68 19.22 81.20 14.36 79.85 C 10.03 79.69 7.62 75.65 5.72 72.30 C 3.45 67.85 5.12 62.03 9.56 59.74 C 15.53 57.84 21.02 61.44 26.39 63.42 C 23.05 58.78 19.10 54.62 15.46 50.21 M 20.01 50.51 C 24.19 55.87 30.75 60.14 31.47 67.45 C 26.35 67.18 21.84 64.75 17.23 62.79 C 13.88 61.18 10.62 63.76 7.62 64.98 C 7.69 69.54 8.70 74.71 13.14 77.00 C 18.16 79.59 22.72 74.42 27.79 74.55 C 32.15 74.72 36.80 73.76 40.97 75.14 C 46.21 79.71 49.99 85.70 54.93 90.59 C 66.69 77.23 78.30 63.73 89.84 50.18 C 84.68 44.15 78.45 38.60 76.21 30.70 C 73.31 29.53 70.45 28.07 68.45 25.58 C 63.94 20.36 59.59 14.99 54.93 9.89 C 43.19 23.34 31.34 36.72 20.01 50.51 Z" />
<path fill="#b61c2e" opacity="1.00" d=" M 20.01 50.51 C 31.34 36.72 43.19 23.34 54.93 9.89 C 59.59 14.99 63.94 20.36 68.45 25.58 C 70.45 28.07 73.31 29.53 76.21 30.70 C 78.45 38.60 84.68 44.15 89.84 50.18 C 78.30 63.73 66.69 77.23 54.93 90.59 C 49.99 85.70 46.21 79.71 40.97 75.14 C 36.80 73.76 32.15 74.72 27.79 74.55 C 22.72 74.42 18.16 79.59 13.14 77.00 C 8.70 74.71 7.69 69.54 7.62 64.98 C 10.62 63.76 13.88 61.18 17.23 62.79 C 21.84 64.75 26.35 67.18 31.47 67.45 C 30.75 60.14 24.19 55.87 20.01 50.51 M 37.35 33.17 C 39.32 33.21 41.29 33.19 43.26 33.18 C 40.58 37.15 38.86 41.89 34.88 44.82 C 35.54 41.10 36.44 37.41 36.77 33.64 C 35.01 37.86 34.69 42.89 31.37 46.31 C 29.09 48.66 27.05 51.23 25.43 54.08 C 27.97 52.06 30.25 49.62 33.25 48.27 C 36.43 46.62 40.20 45.48 42.16 42.24 C 44.67 38.39 48.09 35.12 52.27 33.15 C 56.15 30.90 60.06 34.46 63.96 34.88 C 67.01 33.78 68.42 30.44 69.12 27.51 C 67.21 29.22 65.48 31.10 63.76 32.99 C 62.25 32.66 60.74 32.32 59.24 31.96 C 62.20 29.64 64.74 26.67 65.34 22.82 C 61.19 25.78 56.85 28.63 51.59 28.94 C 55.74 26.44 60.07 23.65 61.21 18.56 C 55.41 26.20 46.50 30.83 37.35 33.17 M 65.34 44.30 C 65.86 44.58 66.90 45.15 67.42 45.43 C 65.33 47.57 62.96 49.39 60.53 51.12 C 61.07 52.15 61.61 53.19 62.16 54.22 C 64.53 51.64 66.91 49.05 69.20 46.39 C 71.33 41.50 73.94 36.71 74.64 31.34 C 71.21 35.41 68.39 39.94 65.34 44.30 M 48.46 44.31 C 49.60 44.19 50.74 44.08 51.88 43.96 C 50.17 48.13 49.00 52.60 46.36 56.31 C 44.59 58.81 41.57 59.78 39.01 61.21 C 35.48 63.10 33.03 66.38 30.77 69.58 C 23.54 69.96 17.91 64.16 10.69 64.68 C 10.05 68.87 11.36 74.21 16.06 75.27 C 19.63 74.69 22.37 71.47 26.16 71.57 C 32.99 71.74 39.83 71.66 46.65 72.16 C 46.44 74.14 46.24 76.12 46.10 78.11 C 47.38 74.78 48.45 71.38 49.75 68.06 C 52.37 69.99 54.95 71.98 57.51 73.99 C 58.80 72.45 60.09 70.90 61.45 69.42 C 60.73 72.00 59.85 74.52 58.97 77.04 C 60.08 75.91 61.20 74.77 62.32 73.64 C 62.02 75.87 61.66 78.09 61.33 80.32 C 62.95 76.84 65.11 73.56 68.88 72.19 C 66.17 71.49 62.88 71.20 61.51 68.36 C 57.96 63.76 59.14 57.74 60.56 52.60 C 59.01 52.89 57.46 53.20 55.90 53.45 C 57.75 50.71 59.55 47.94 61.27 45.12 C 62.67 45.32 64.08 45.51 65.48 45.70 C 63.77 42.87 62.55 38.87 58.87 38.10 C 54.55 38.10 50.96 41.02 48.46 44.31 M 76.31 41.57 C 75.38 42.05 74.59 43.47 75.35 44.40 C 77.28 45.60 78.96 40.91 76.31 41.57 M 81.01 43.49 C 77.77 46.82 76.42 51.28 74.32 55.29 C 71.24 58.60 67.92 61.76 65.81 65.83 C 69.67 61.32 75.10 58.15 77.75 52.68 C 79.28 49.79 81.89 47.02 81.01 43.49 M 77.51 60.70 C 81.25 57.40 83.00 52.22 87.72 49.99 C 86.43 48.85 85.15 47.70 83.85 46.57 C 81.40 51.12 79.60 55.98 77.51 60.70 M 31.52 62.28 C 37.91 59.58 44.05 55.40 47.34 49.10 C 41.89 53.23 35.25 56.32 31.52 62.28 M 28.88 59.90 C 32.00 58.69 34.45 56.36 36.44 53.73 C 33.42 55.08 30.51 56.92 28.88 59.90 Z" />
<path fill="#ffffff" opacity="1.00" d=" M 37.35 33.17 C 46.50 30.83 55.41 26.20 61.21 18.56 C 60.07 23.65 55.74 26.44 51.59 28.94 C 56.85 28.63 61.19 25.78 65.34 22.82 C 64.74 26.67 62.20 29.64 59.24 31.96 C 60.74 32.32 62.25 32.66 63.76 32.99 C 65.48 31.10 67.21 29.22 69.12 27.51 C 68.42 30.44 67.01 33.78 63.96 34.88 C 60.06 34.46 56.15 30.90 52.27 33.15 C 48.09 35.12 44.67 38.39 42.16 42.24 C 40.20 45.48 36.43 46.62 33.25 48.27 C 30.25 49.62 27.97 52.06 25.43 54.08 C 27.05 51.23 29.09 48.66 31.37 46.31 C 34.69 42.89 35.01 37.86 36.77 33.64 C 36.44 37.41 35.54 41.10 34.88 44.82 C 38.86 41.89 40.58 37.15 43.26 33.18 C 41.29 33.19 39.32 33.21 37.35 33.17 Z" />
<path fill="#ffffff" opacity="1.00" d=" M 65.34 44.30 C 68.39 39.94 71.21 35.41 74.64 31.34 C 73.94 36.71 71.33 41.50 69.20 46.39 C 68.75 46.15 67.86 45.67 67.42 45.43 C 66.90 45.15 65.86 44.58 65.34 44.30 Z" />
<path fill="#ffffff" opacity="1.00" d=" M 48.46 44.31 C 50.96 41.02 54.55 38.10 58.87 38.10 C 62.55 38.87 63.77 42.87 65.48 45.70 C 64.08 45.51 62.67 45.32 61.27 45.12 C 59.55 47.94 57.75 50.71 55.90 53.45 C 57.46 53.20 59.01 52.89 60.56 52.60 C 59.14 57.74 57.96 63.76 61.51 68.36 C 62.88 71.20 66.17 71.49 68.88 72.19 C 65.11 73.56 62.95 76.84 61.33 80.32 C 61.66 78.09 62.02 75.87 62.32 73.64 C 61.20 74.77 60.08 75.91 58.97 77.04 C 59.85 74.52 60.73 72.00 61.45 69.42 C 60.09 70.90 58.80 72.45 57.51 73.99 C 54.95 71.98 52.37 69.99 49.75 68.06 C 48.45 71.38 47.38 74.78 46.10 78.11 C 46.24 76.12 46.44 74.14 46.65 72.16 C 39.83 71.66 32.99 71.74 26.16 71.57 C 22.37 71.47 19.63 74.69 16.06 75.27 C 11.36 74.21 10.05 68.87 10.69 64.68 C 17.91 64.16 23.54 69.96 30.77 69.58 C 33.03 66.38 35.48 63.10 39.01 61.21 C 41.57 59.78 44.59 58.81 46.36 56.31 C 49.00 52.60 50.17 48.13 51.88 43.96 C 50.74 44.08 49.60 44.19 48.46 44.31 M 56.33 40.56 C 55.25 41.75 57.23 43.58 58.34 42.41 C 59.43 41.24 57.41 39.44 56.33 40.56 M 50.56 47.99 C 51.77 48.55 52.98 49.12 54.19 49.69 C 54.69 47.42 55.19 45.16 55.73 42.90 C 54.05 44.65 52.32 46.34 50.56 47.99 M 51.67 49.31 C 51.47 51.72 52.20 54.52 50.60 56.60 C 46.67 62.15 40.10 64.71 35.06 69.03 C 39.41 69.32 43.74 69.70 48.07 70.13 C 49.20 67.27 50.14 64.32 50.55 61.26 C 53.34 61.42 56.42 60.96 57.43 57.89 C 55.90 54.79 53.59 52.16 51.67 49.31 M 51.62 63.86 C 52.96 65.57 54.55 67.06 56.31 68.33 C 55.68 66.01 53.76 64.66 51.62 63.86 M 15.56 69.33 C 14.64 70.48 16.60 71.94 17.47 70.78 C 18.38 69.64 16.42 68.16 15.56 69.33 Z" />
<path fill="#b61c2e" opacity="1.00" d=" M 56.33 40.56 C 57.41 39.44 59.43 41.24 58.34 42.41 C 57.23 43.58 55.25 41.75 56.33 40.56 Z" />
<path fill="#ffffff" opacity="1.00" d=" M 76.31 41.57 C 78.96 40.91 77.28 45.60 75.35 44.40 C 74.59 43.47 75.38 42.05 76.31 41.57 Z" />
<path fill="#b51a2c" opacity="1.00" d=" M 50.56 47.99 C 52.32 46.34 54.05 44.65 55.73 42.90 C 55.19 45.16 54.69 47.42 54.19 49.69 C 52.98 49.12 51.77 48.55 50.56 47.99 Z" />
<path fill="#ffffff" opacity="1.00" d=" M 81.01 43.49 C 81.89 47.02 79.28 49.79 77.75 52.68 C 75.10 58.15 69.67 61.32 65.81 65.83 C 67.92 61.76 71.24 58.60 74.32 55.29 C 76.42 51.28 77.77 46.82 81.01 43.49 Z" />
<path fill="#e1a3aa" opacity="1.00" d=" M 67.42 45.43 C 67.86 45.67 68.75 46.15 69.20 46.39 C 66.91 49.05 64.53 51.64 62.16 54.22 C 61.61 53.19 61.07 52.15 60.53 51.12 C 62.96 49.39 65.33 47.57 67.42 45.43 Z" />
<path fill="#ffffff" opacity="1.00" d=" M 77.51 60.70 C 79.60 55.98 81.40 51.12 83.85 46.57 C 85.15 47.70 86.43 48.85 87.72 49.99 C 83.00 52.22 81.25 57.40 77.51 60.70 Z" />
<path fill="#ffffff" opacity="1.00" d=" M 31.52 62.28 C 35.25 56.32 41.89 53.23 47.34 49.10 C 44.05 55.40 37.91 59.58 31.52 62.28 Z" />
<path fill="#b51a2c" opacity="1.00" d=" M 51.67 49.31 C 53.59 52.16 55.90 54.79 57.43 57.89 C 56.42 60.96 53.34 61.42 50.55 61.26 C 50.14 64.32 49.20 67.27 48.07 70.13 C 43.74 69.70 39.41 69.32 35.06 69.03 C 40.10 64.71 46.67 62.15 50.60 56.60 C 52.20 54.52 51.47 51.72 51.67 49.31 M 46.13 65.50 C 45.00 65.31 43.76 66.78 44.55 67.78 C 45.92 69.08 48.09 66.09 46.13 65.50 Z" />
<path fill="#ffffff" opacity="1.00" d=" M 28.88 59.90 C 30.51 56.92 33.42 55.08 36.44 53.73 C 34.45 56.36 32.00 58.69 28.88 59.90 Z" />
<path fill="#b51a2c" opacity="1.00" d=" M 51.62 63.86 C 53.76 64.66 55.68 66.01 56.31 68.33 C 54.55 67.06 52.96 65.57 51.62 63.86 Z" />
<path fill="#f4dee0" opacity="1.00" d=" M 46.13 65.50 C 48.09 66.09 45.92 69.08 44.55 67.78 C 43.76 66.78 45.00 65.31 46.13 65.50 Z" />
<path fill="#c54a58" opacity="1.00" d=" M 15.56 69.33 C 16.42 68.16 18.38 69.64 17.47 70.78 C 16.60 71.94 14.64 70.48 15.56 69.33 Z" />
</svg>
