<?xml version="1.0" encoding="UTF-8" ?>
<!DOCTYPE svg PUBLIC "-//W3C//DTD SVG 1.1//EN" "http://www.w3.org/Graphics/SVG/1.1/DTD/svg11.dtd">
<svg width="100pt" height="100pt" viewBox="0 0 100 100" version="1.1" xmlns="http://www.w3.org/2000/svg">
<path fill="#c2bcbc" opacity="1.00" d=" M 37.64 22.67 C 41.50 19.63 45.98 17.54 50.01 14.74 C 56.69 18.79 63.02 23.37 69.76 27.30 C 76.00 32.66 83.02 36.97 89.87 41.51 C 88.23 46.35 86.69 51.23 84.83 56.00 C 86.19 57.24 87.57 58.48 88.94 59.73 C 85.82 62.61 81.40 64.94 80.62 69.50 C 79.44 75.83 78.22 82.18 76.28 88.33 C 75.30 91.57 72.67 93.88 70.48 96.33 C 69.60 92.67 68.86 88.98 68.44 85.24 C 64.88 85.28 61.33 85.31 57.77 85.36 C 57.42 90.35 55.54 95.07 52.19 98.79 C 49.38 94.62 47.48 89.96 45.73 85.27 C 42.55 85.30 39.36 85.29 36.18 85.19 C 36.25 89.08 35.98 92.98 35.40 96.83 C 30.24 93.65 27.87 88.02 24.85 83.07 C 22.60 78.78 22.25 73.21 17.79 70.39 C 18.09 69.56 18.38 68.72 18.67 67.89 C 16.74 66.50 14.81 65.10 12.88 63.70 C 14.01 62.36 15.15 61.04 16.29 59.72 C 14.36 53.61 12.07 47.61 10.15 41.50 C 16.33 37.27 22.95 33.59 28.47 28.47 C 31.19 26.03 34.78 24.92 37.64 22.67 M 38.89 24.96 C 36.90 27.39 33.49 27.33 31.04 29.00 C 28.76 31.08 27.09 33.79 24.53 35.57 C 20.98 38.03 17.35 40.38 13.91 43.00 C 15.49 48.39 18.12 53.46 19.32 58.94 C 18.55 60.54 17.36 61.87 16.30 63.28 C 17.79 64.56 19.28 65.83 20.71 67.18 C 21.29 70.76 24.44 73.04 25.66 76.34 C 28.00 82.17 29.29 88.72 33.91 93.32 C 34.09 89.65 34.09 85.98 34.00 82.31 C 38.76 82.33 43.52 82.31 48.28 82.26 C 48.20 86.99 49.88 91.48 52.36 95.45 C 53.62 93.08 54.75 90.63 55.26 87.98 C 55.81 86.01 56.04 83.18 58.49 82.66 C 62.36 81.84 66.35 82.40 70.27 82.46 C 70.56 85.69 71.10 88.90 71.85 92.06 C 76.36 85.54 77.18 77.44 78.02 69.79 C 78.27 65.15 82.67 62.66 85.74 59.85 C 84.29 58.52 82.84 57.19 81.39 55.85 C 83.15 51.59 84.55 47.20 86.18 42.89 C 83.62 41.05 80.99 39.29 78.20 37.81 C 77.95 38.35 77.47 39.43 77.23 39.97 L 77.54 39.13 C 75.94 37.53 74.12 36.17 72.29 34.85 C 71.64 32.71 70.68 30.53 69.05 28.95 C 66.47 27.46 63.04 27.55 61.01 25.12 C 59.13 23.14 57.06 21.23 54.35 20.51 C 48.96 18.08 42.61 20.81 38.89 24.96 Z" />
<path fill="#217a7a" opacity="1.00" d=" M 38.89 24.96 C 42.61 20.81 48.96 18.08 54.35 20.51 C 57.06 21.23 59.13 23.14 61.01 25.12 C 63.04 27.55 66.47 27.46 69.05 28.95 C 70.68 30.53 71.64 32.71 72.29 34.85 C 72.42 41.28 68.64 46.61 66.74 52.46 C 66.84 56.86 70.06 60.62 70.40 65.01 C 69.77 66.78 68.69 68.34 67.74 69.95 C 68.82 70.82 69.90 71.68 70.95 72.59 C 71.30 77.81 71.91 83.02 72.73 88.19 C 73.01 86.84 73.29 85.49 73.52 84.13 C 74.68 79.23 74.54 74.19 75.01 69.22 C 75.30 64.99 79.01 62.38 81.69 59.55 C 78.49 57.33 75.33 55.06 72.16 52.80 C 73.77 48.49 75.42 44.20 77.23 39.97 C 77.47 39.43 77.95 38.35 78.20 37.81 C 80.99 39.29 83.62 41.05 86.18 42.89 C 84.55 47.20 83.15 51.59 81.39 55.85 C 82.84 57.19 84.29 58.52 85.74 59.85 C 82.67 62.66 78.27 65.15 78.02 69.79 C 77.18 77.44 76.36 85.54 71.85 92.06 C 71.10 88.90 70.56 85.69 70.27 82.46 C 66.35 82.40 62.36 81.84 58.49 82.66 C 56.04 83.18 55.81 86.01 55.26 87.98 C 54.75 90.63 53.62 93.08 52.36 95.45 C 49.88 91.48 48.20 86.99 48.28 82.26 C 43.52 82.31 38.76 82.33 34.00 82.31 C 34.09 85.98 34.09 89.65 33.91 93.32 C 29.29 88.72 28.00 82.17 25.66 76.34 C 24.44 73.04 21.29 70.76 20.71 67.18 C 19.28 65.83 17.79 64.56 16.30 63.28 C 17.36 61.87 18.55 60.54 19.32 58.94 C 18.12 53.46 15.49 48.39 13.91 43.00 C 17.35 40.38 20.98 38.03 24.53 35.57 C 27.09 33.79 28.76 31.08 31.04 29.00 C 33.49 27.33 36.90 27.39 38.89 24.96 M 45.35 23.55 C 42.12 24.01 41.06 27.81 38.24 29.04 C 36.06 30.02 33.56 30.28 31.53 31.59 C 29.74 34.17 30.15 37.62 30.56 40.57 C 31.11 44.62 34.69 47.03 36.76 50.25 C 38.22 54.54 37.05 59.25 38.15 63.63 C 44.88 67.95 54.30 68.80 60.94 63.91 C 63.64 59.95 61.81 54.69 63.03 50.26 C 64.98 47.10 68.46 44.80 69.11 40.93 C 69.65 37.73 69.99 33.91 67.87 31.20 C 65.17 29.84 61.68 29.93 59.54 27.57 C 58.34 26.40 57.29 25.07 55.99 24.00 C 52.59 22.87 48.86 23.06 45.35 23.55 M 20.36 39.83 C 23.12 44.79 25.98 49.69 28.48 54.79 C 25.60 57.36 22.86 60.09 20.04 62.74 C 23.95 65.48 25.46 70.46 29.66 72.87 C 26.86 78.36 30.75 83.95 32.76 88.99 C 31.81 84.80 31.01 80.57 30.06 76.37 C 31.91 74.64 33.71 72.86 35.49 71.06 C 33.70 69.34 31.90 67.64 30.10 65.93 C 32.09 62.59 33.92 58.98 34.39 55.08 C 33.85 52.20 32.21 49.69 30.90 47.12 C 28.91 43.56 27.79 39.63 26.51 35.79 C 24.50 37.20 22.44 38.54 20.36 39.83 M 47.78 69.59 C 48.26 70.16 48.74 70.73 49.23 71.30 C 48.07 72.37 46.05 73.10 46.44 75.03 C 46.93 75.15 47.90 75.37 48.39 75.49 C 47.83 76.14 47.27 76.79 46.71 77.44 C 48.27 78.61 49.83 79.78 51.36 80.97 C 51.16 84.06 51.41 87.16 52.14 90.16 C 52.69 86.03 54.12 82.05 57.53 79.44 C 55.88 78.06 54.22 76.69 52.56 75.31 C 53.45 74.11 54.34 72.90 55.23 71.69 C 54.70 70.97 54.17 70.25 53.65 69.52 C 51.69 69.56 49.74 69.59 47.78 69.59 Z" />
<path fill="#ffffff" opacity="1.00" d=" M 45.35 23.55 C 48.86 23.06 52.59 22.87 55.99 24.00 C 57.29 25.07 58.34 26.40 59.54 27.57 C 61.68 29.93 65.17 29.84 67.87 31.20 C 69.99 33.91 69.65 37.73 69.11 40.93 C 68.46 44.80 64.98 47.10 63.03 50.26 C 61.81 54.69 63.64 59.95 60.94 63.91 C 54.30 68.80 44.88 67.95 38.15 63.63 C 37.05 59.25 38.22 54.54 36.76 50.25 C 34.69 47.03 31.11 44.62 30.56 40.57 C 30.15 37.62 29.74 34.17 31.53 31.59 C 33.56 30.28 36.06 30.02 38.24 29.04 C 41.06 27.81 42.12 24.01 45.35 23.55 M 44.43 26.05 C 45.95 27.73 47.39 30.03 49.95 30.05 C 51.64 29.47 53.23 28.65 54.85 27.91 C 54.48 27.02 54.12 26.14 53.76 25.26 C 50.64 25.31 47.52 25.53 44.43 26.05 M 34.18 32.19 C 33.50 34.64 32.98 37.13 32.59 39.63 C 36.74 39.47 35.30 34.63 34.18 32.19 M 65.11 32.29 C 64.29 35.10 64.05 38.14 66.00 40.57 C 66.87 37.74 67.02 34.74 65.11 32.29 M 47.44 35.22 C 44.81 39.54 43.41 44.45 41.57 49.13 C 45.01 49.24 48.45 49.30 51.89 49.34 C 50.78 52.68 49.71 56.04 48.90 59.46 C 52.87 54.66 56.10 49.31 59.32 43.99 C 56.15 43.83 52.98 43.72 49.81 43.61 C 51.16 40.61 52.54 37.64 53.88 34.64 C 51.74 34.77 49.51 34.53 47.44 35.22 Z" />
<path fill="#147272" opacity="1.00" d=" M 44.43 26.05 C 47.52 25.53 50.64 25.31 53.76 25.26 C 54.12 26.14 54.48 27.02 54.85 27.91 C 53.23 28.65 51.64 29.47 49.95 30.05 C 47.39 30.03 45.95 27.73 44.43 26.05 Z" />
<path fill="#126e6e" opacity="1.00" d=" M 34.18 32.19 C 35.30 34.63 36.74 39.47 32.59 39.63 C 32.98 37.13 33.50 34.64 34.18 32.19 Z" />
<path fill="#005959" opacity="1.00" d=" M 65.11 32.29 C 67.02 34.74 66.87 37.74 66.00 40.57 C 64.05 38.14 64.29 35.10 65.11 32.29 Z" />
<path fill="#217a7a" opacity="1.00" d=" M 47.44 35.22 C 49.51 34.53 51.74 34.77 53.88 34.64 C 52.54 37.64 51.16 40.61 49.81 43.61 C 52.98 43.72 56.15 43.83 59.32 43.99 C 56.10 49.31 52.87 54.66 48.90 59.46 C 49.71 56.04 50.78 52.68 51.89 49.34 C 48.45 49.30 45.01 49.24 41.57 49.13 C 43.41 44.45 44.81 39.54 47.44 35.22 Z" />
<path fill="#ffffff" opacity="1.00" d=" M 72.29 34.85 C 74.12 36.17 75.94 37.53 77.54 39.13 L 77.23 39.97 C 75.42 44.20 73.77 48.49 72.16 52.80 C 75.33 55.06 78.49 57.33 81.69 59.55 C 79.01 62.38 75.30 64.99 75.01 69.22 C 74.54 74.19 74.68 79.23 73.52 84.13 C 73.51 80.22 74.52 75.34 70.95 72.59 C 69.90 71.68 68.82 70.82 67.74 69.95 C 68.69 68.34 69.77 66.78 70.40 65.01 C 70.06 60.62 66.84 56.86 66.74 52.46 C 68.64 46.61 72.42 41.28 72.29 34.85 M 69.86 57.76 C 70.60 59.87 71.32 61.99 72.02 64.11 C 73.16 62.79 74.29 61.47 75.41 60.14 C 73.55 59.37 71.70 58.57 69.86 57.76 M 73.35 67.52 C 71.96 67.44 70.66 69.35 71.67 70.49 C 73.35 71.79 75.51 68.12 73.35 67.52 Z" />
<path fill="#ffffff" opacity="1.00" d=" M 20.36 39.83 C 22.44 38.54 24.50 37.20 26.51 35.79 C 27.79 39.63 28.91 43.56 30.90 47.12 C 32.21 49.69 33.85 52.20 34.39 55.08 C 33.92 58.98 32.09 62.59 30.10 65.93 C 31.90 67.64 33.70 69.34 35.49 71.06 C 33.71 72.86 31.91 74.64 30.06 76.37 C 31.01 80.57 31.81 84.80 32.76 88.99 C 30.75 83.95 26.86 78.36 29.66 72.87 C 25.46 70.46 23.95 65.48 20.04 62.74 C 22.86 60.09 25.60 57.36 28.48 54.79 C 25.98 49.69 23.12 44.79 20.36 39.83 M 26.71 64.25 C 28.66 63.20 30.22 61.65 31.11 59.60 C 29.20 60.64 26.77 61.72 26.71 64.25 M 26.62 68.01 C 28.14 69.75 30.04 71.11 32.14 72.06 C 30.55 70.41 28.67 69.05 26.62 68.01 Z" />
<path fill="#005959" opacity="1.00" d=" M 69.86 57.76 C 71.70 58.57 73.55 59.37 75.41 60.14 C 74.29 61.47 73.16 62.79 72.02 64.11 C 71.32 61.99 70.60 59.87 69.86 57.76 Z" />
<path fill="#005959" opacity="1.00" d=" M 26.71 64.25 C 26.77 61.72 29.20 60.64 31.11 59.60 C 30.22 61.65 28.66 63.20 26.71 64.25 Z" />
<path fill="#005959" opacity="1.00" d=" M 73.35 67.52 C 75.51 68.12 73.35 71.79 71.67 70.49 C 70.66 69.35 71.96 67.44 73.35 67.52 Z" />
<path fill="#147272" opacity="1.00" d=" M 26.62 68.01 C 28.67 69.05 30.55 70.41 32.14 72.06 C 30.04 71.11 28.14 69.75 26.62 68.01 Z" />
<path fill="#ffffff" opacity="1.00" d=" M 47.78 69.59 C 49.74 69.59 51.69 69.56 53.65 69.52 C 54.17 70.25 54.70 70.97 55.23 71.69 C 54.34 72.90 53.45 74.11 52.56 75.31 C 54.22 76.69 55.88 78.06 57.53 79.44 C 54.12 82.05 52.69 86.03 52.14 90.16 C 51.41 87.16 51.16 84.06 51.36 80.97 C 49.83 79.78 48.27 78.61 46.71 77.44 C 47.27 76.79 47.83 76.14 48.39 75.49 C 49.14 74.64 49.87 73.77 50.59 72.90 C 50.25 72.50 49.57 71.70 49.23 71.30 C 48.74 70.73 48.26 70.16 47.78 69.59 M 50.70 76.41 C 51.79 78.06 52.91 79.69 54.03 81.32 C 54.64 80.90 55.88 80.06 56.50 79.64 C 54.53 78.63 52.60 77.54 50.70 76.41 Z" />
<path fill="#9ec5c5" opacity="1.00" d=" M 46.44 75.03 C 46.05 73.10 48.07 72.37 49.23 71.30 C 49.57 71.70 50.25 72.50 50.59 72.90 C 49.87 73.77 49.14 74.64 48.39 75.49 C 47.90 75.37 46.93 75.15 46.44 75.03 Z" />
<path fill="#62a0a0" opacity="1.00" d=" M 70.95 72.59 C 74.52 75.34 73.51 80.22 73.52 84.13 C 73.29 85.49 73.01 86.84 72.73 88.19 C 71.91 83.02 71.30 77.81 70.95 72.59 Z" />
<path fill="#106363" opacity="1.00" d=" M 50.70 76.41 C 52.60 77.54 54.53 78.63 56.50 79.64 C 55.88 80.06 54.64 80.90 54.03 81.32 C 52.91 79.69 51.79 78.06 50.70 76.41 Z" />
</svg>
