<?xml version="1.0" encoding="UTF-8" ?>
<!DOCTYPE svg PUBLIC "-//W3C//DTD SVG 1.1//EN" "http://www.w3.org/Graphics/SVG/1.1/DTD/svg11.dtd">
<svg width="100pt" height="100pt" viewBox="0 0 100 100" version="1.1" xmlns="http://www.w3.org/2000/svg">
<path fill="#b9bfbb" opacity="1.00" d=" M 57.26 0.00 L 57.75 0.00 C 60.33 2.51 63.29 4.59 65.89 7.07 C 67.90 9.00 67.76 12.04 68.40 14.56 C 70.26 14.67 72.12 14.78 73.98 14.88 C 74.98 16.42 75.97 17.95 76.98 19.49 C 80.46 16.97 83.96 14.48 87.54 12.11 C 89.70 15.64 91.84 19.19 93.92 22.78 C 91.56 24.04 89.19 25.30 86.87 26.63 C 89.19 26.39 91.52 26.12 93.84 25.85 C 94.22 29.83 94.56 33.82 94.87 37.81 C 92.85 38.02 90.84 38.24 88.83 38.48 C 90.83 39.19 92.84 39.87 94.85 40.55 C 93.40 45.06 92.26 50.06 88.44 53.24 C 88.83 55.03 89.24 56.82 89.64 58.61 C 76.36 67.41 63.27 76.48 50.00 85.29 C 36.67 76.45 23.53 67.32 10.18 58.50 C 14.19 45.94 18.88 33.61 23.03 21.09 C 24.63 15.72 28.20 10.99 32.83 7.87 C 35.89 6.48 39.34 6.35 42.58 5.57 C 47.75 4.56 52.67 2.55 57.26 0.00 M 48.11 6.11 C 43.70 7.80 38.89 7.94 34.42 9.43 C 29.40 11.99 26.41 17.26 25.69 22.74 C 22.15 34.30 17.69 45.56 13.85 57.03 C 19.20 61.17 25.00 64.66 30.55 68.51 C 37.05 72.84 43.35 77.49 50.01 81.58 C 62.18 73.59 74.45 65.73 86.11 57.01 C 84.93 53.64 83.68 50.29 82.30 46.99 C 84.71 47.99 87.13 48.97 89.57 49.90 C 90.49 47.22 91.40 44.54 92.28 41.85 C 87.78 39.95 82.31 40.03 78.58 36.58 C 83.32 36.26 88.09 36.37 92.83 35.99 C 92.57 33.34 92.29 30.68 91.99 28.03 C 86.73 28.68 81.57 29.94 76.30 30.48 C 80.48 26.45 86.23 24.87 91.11 21.93 C 89.74 19.59 88.33 17.27 86.88 14.98 C 82.65 17.77 78.62 20.83 74.49 23.75 C 73.62 21.86 73.42 19.41 71.76 18.03 C 69.94 17.65 68.07 17.61 66.22 17.47 C 65.97 14.82 65.95 12.11 65.22 9.53 C 63.37 6.86 60.61 4.84 57.72 3.41 C 54.35 3.33 51.29 5.19 48.11 6.11 Z" />
<path fill="#941271" opacity="1.00" d=" M 48.11 6.11 C 51.29 5.19 54.35 3.33 57.72 3.41 C 60.61 4.84 63.37 6.86 65.22 9.53 C 65.95 12.11 65.97 14.82 66.22 17.47 C 68.07 17.61 69.94 17.65 71.76 18.03 C 73.42 19.41 73.62 21.86 74.49 23.75 C 78.62 20.83 82.65 17.77 86.88 14.98 C 88.33 17.27 89.74 19.59 91.11 21.93 C 86.23 24.87 80.48 26.45 76.30 30.48 C 81.57 29.94 86.73 28.68 91.99 28.03 C 92.29 30.68 92.57 33.34 92.83 35.99 C 88.09 36.37 83.32 36.26 78.58 36.58 C 82.31 40.03 87.78 39.95 92.28 41.85 C 91.40 44.54 90.49 47.22 89.57 49.90 C 87.13 48.97 84.71 47.99 82.30 46.99 C 83.68 50.29 84.93 53.64 86.11 57.01 C 74.45 65.73 62.18 73.59 50.01 81.58 C 43.35 77.49 37.05 72.84 30.55 68.51 C 25.00 64.66 19.20 61.17 13.85 57.03 C 17.69 45.56 22.15 34.30 25.69 22.74 C 26.41 17.26 29.40 11.99 34.42 9.43 C 38.89 7.94 43.70 7.80 48.11 6.11 M 54.63 5.81 C 56.63 7.68 59.08 9.08 60.81 11.22 C 61.43 12.71 61.77 14.30 62.18 15.86 C 61.31 16.70 60.45 17.56 59.54 18.36 C 55.11 13.31 47.78 14.02 41.73 13.22 C 47.87 11.30 54.93 11.78 60.75 14.52 C 59.67 12.62 58.94 10.09 56.57 9.44 C 51.61 7.38 46.39 9.45 41.42 10.33 C 38.85 10.96 35.91 10.99 33.80 12.78 C 31.12 15.17 27.65 18.02 28.76 22.04 C 30.48 17.29 34.24 11.75 40.08 13.08 C 37.46 14.46 34.84 15.89 32.60 17.85 C 34.93 17.43 37.24 16.88 39.55 16.36 C 38.38 19.94 36.66 23.28 34.90 26.59 C 36.59 26.81 38.27 27.02 39.96 27.23 C 39.63 26.47 38.97 24.96 38.64 24.20 C 40.27 23.84 41.96 23.42 43.62 23.87 C 47.75 24.70 52.77 24.91 55.14 28.99 C 52.11 29.84 47.16 29.36 47.19 33.81 C 49.46 37.68 52.88 40.70 55.94 43.93 C 54.53 41.51 53.08 39.09 51.87 36.55 C 55.96 37.38 57.17 41.64 59.89 44.16 C 61.68 44.83 63.61 44.89 65.48 45.11 C 63.56 43.32 61.39 41.85 59.13 40.51 C 59.80 40.36 61.12 40.07 61.78 39.92 C 63.94 41.55 67.25 42.77 67.40 45.92 C 66.69 49.55 62.73 50.13 59.80 51.02 C 61.39 51.40 62.97 51.97 64.62 51.93 C 66.52 50.49 67.97 48.57 69.51 46.78 C 68.40 43.35 67.14 39.82 67.54 36.17 C 67.99 32.40 68.95 28.72 69.94 25.07 C 67.64 23.20 65.05 21.63 63.07 19.40 C 62.51 16.74 63.74 13.91 63.22 11.18 C 61.57 8.04 58.14 6.07 54.63 5.81 M 72.05 28.89 C 77.30 26.47 82.40 23.72 87.48 20.97 C 87.13 20.39 86.43 19.23 86.08 18.65 C 81.29 21.91 76.44 25.10 72.05 28.89 M 29.91 27.96 C 29.78 33.54 34.79 38.21 32.79 43.85 C 32.14 47.37 28.02 48.07 25.24 49.31 C 32.44 50.33 38.35 55.09 45.46 56.35 C 48.64 57.01 51.84 57.51 55.06 57.85 C 52.96 57.00 50.76 56.36 48.79 55.23 C 46.22 53.37 45.88 49.97 45.38 47.09 C 48.98 47.90 52.55 48.82 56.15 49.62 C 52.72 47.68 48.87 46.53 45.56 44.39 C 43.61 41.45 43.35 37.65 41.22 34.83 C 38.30 32.65 35.20 30.73 32.43 28.36 C 33.88 31.93 37.55 33.37 40.14 35.87 C 43.37 41.42 43.59 48.10 43.75 54.36 C 40.54 52.93 37.97 50.47 34.96 48.73 C 33.21 48.77 31.48 49.14 29.74 49.37 C 31.02 48.10 32.45 46.95 33.48 45.46 C 34.35 43.01 34.74 40.42 35.37 37.90 C 33.25 34.76 31.60 31.34 29.91 27.96 M 39.23 31.03 C 39.38 34.36 42.21 29.48 39.23 31.03 M 74.82 33.68 C 79.83 33.98 84.86 33.80 89.87 33.70 C 89.87 33.02 89.85 31.68 89.84 31.00 C 84.78 31.56 79.73 32.31 74.82 33.68 M 72.95 39.06 C 77.80 41.93 82.94 44.26 87.99 46.76 C 88.28 45.63 88.56 44.50 88.85 43.37 C 83.59 41.80 78.35 40.08 72.95 39.06 M 16.07 55.91 C 18.48 58.72 21.82 60.45 25.03 62.17 C 22.62 59.67 20.00 57.38 17.80 54.69 C 24.23 57.40 27.80 63.75 33.33 67.69 C 39.00 71.92 44.45 76.50 50.63 80.00 C 50.91 79.64 51.48 78.93 51.76 78.57 C 46.87 75.78 42.16 72.69 37.55 69.48 C 30.80 64.96 25.55 58.69 19.67 53.18 C 23.04 53.26 26.59 52.82 29.80 54.08 C 34.06 56.34 37.33 60.03 41.41 62.56 C 47.52 66.70 54.39 69.44 61.08 72.46 C 65.89 69.14 73.15 67.12 74.26 60.55 C 75.64 61.08 77.02 61.59 78.43 62.06 C 75.79 57.46 70.46 55.74 65.73 54.19 C 66.69 57.28 68.08 60.29 68.42 63.54 C 67.23 65.63 64.45 66.11 62.30 65.44 C 58.89 64.47 55.53 63.26 51.99 62.82 C 54.49 61.74 56.95 60.57 59.26 59.12 C 53.86 59.63 48.13 61.55 42.92 59.11 C 35.63 55.62 28.42 50.75 20.06 50.71 C 17.25 50.68 16.38 53.65 16.07 55.91 M 51.49 51.80 C 51.42 52.31 51.29 53.32 51.22 53.83 C 52.90 53.72 54.58 53.61 56.25 53.48 C 54.67 52.90 53.08 52.34 51.49 51.80 Z" />
<path fill="#e5c7de" opacity="1.00" d=" M 54.63 5.81 C 58.14 6.07 61.57 8.04 63.22 11.18 C 63.74 13.91 62.51 16.74 63.07 19.40 C 65.05 21.63 67.64 23.20 69.94 25.07 C 68.95 28.72 67.99 32.40 67.54 36.17 C 67.14 39.82 68.40 43.35 69.51 46.78 C 67.97 48.57 66.52 50.49 64.62 51.93 C 62.97 51.97 61.39 51.40 59.80 51.02 C 62.73 50.13 66.69 49.55 67.40 45.92 C 67.25 42.77 63.94 41.55 61.78 39.92 C 62.27 39.79 63.25 39.53 63.74 39.40 C 66.01 35.43 67.35 30.91 67.63 26.35 C 67.44 26.17 67.06 25.80 66.87 25.62 C 64.59 23.69 62.16 21.94 59.91 19.96 C 59.65 19.71 59.11 19.20 58.84 18.95 L 59.54 18.36 C 60.45 17.56 61.31 16.70 62.18 15.86 C 61.77 14.30 61.43 12.71 60.81 11.22 C 59.08 9.08 56.63 7.68 54.63 5.81 Z" />
<path fill="#ffffff" opacity="1.00" d=" M 41.42 10.33 C 46.39 9.45 51.61 7.38 56.57 9.44 C 58.94 10.09 59.67 12.62 60.75 14.52 C 54.93 11.78 47.87 11.30 41.73 13.22 C 47.78 14.02 55.11 13.31 59.54 18.36 L 58.84 18.95 C 56.68 17.82 54.50 16.45 52.02 16.21 C 50.30 16.50 49.02 17.87 47.57 18.75 C 52.06 18.19 56.45 19.20 60.33 21.51 C 60.22 21.13 60.02 20.35 59.91 19.96 C 62.16 21.94 64.59 23.69 66.87 25.62 C 64.78 25.54 62.69 25.60 60.60 25.64 C 62.00 26.75 63.41 27.83 64.83 28.92 C 63.51 29.14 62.19 29.35 60.88 29.58 C 62.51 29.84 64.15 30.09 65.79 30.35 C 65.83 30.91 65.90 32.04 65.93 32.60 C 63.50 32.48 61.03 32.14 58.62 32.65 C 57.57 35.71 61.98 37.43 63.74 39.40 C 63.25 39.53 62.27 39.79 61.78 39.92 C 61.12 40.07 59.80 40.36 59.13 40.51 C 61.39 41.85 63.56 43.32 65.48 45.11 C 63.61 44.89 61.68 44.83 59.89 44.16 C 57.17 41.64 55.96 37.38 51.87 36.55 C 53.08 39.09 54.53 41.51 55.94 43.93 C 52.88 40.70 49.46 37.68 47.19 33.81 C 47.16 29.36 52.11 29.84 55.14 28.99 C 52.77 24.91 47.75 24.70 43.62 23.87 C 41.96 23.42 40.27 23.84 38.64 24.20 C 38.97 24.96 39.63 26.47 39.96 27.23 C 38.27 27.02 36.59 26.81 34.90 26.59 C 36.66 23.28 38.38 19.94 39.55 16.36 C 37.24 16.88 34.93 17.43 32.60 17.85 C 34.84 15.89 37.46 14.46 40.08 13.08 C 34.24 11.75 30.48 17.29 28.76 22.04 C 27.65 18.02 31.12 15.17 33.80 12.78 C 35.91 10.99 38.85 10.96 41.42 10.33 M 53.74 20.11 C 53.55 21.69 56.06 23.15 57.47 22.57 C 57.88 20.89 55.15 19.31 53.74 20.11 Z" />
<path fill="#910b6d" opacity="1.00" d=" M 47.57 18.75 C 49.02 17.87 50.30 16.50 52.02 16.21 C 54.50 16.45 56.68 17.82 58.84 18.95 C 59.11 19.20 59.65 19.71 59.91 19.96 C 60.02 20.35 60.22 21.13 60.33 21.51 C 56.45 19.20 52.06 18.19 47.57 18.75 Z" />
<path fill="#ffffff" opacity="1.00" d=" M 72.05 28.89 C 76.44 25.10 81.29 21.91 86.08 18.65 C 86.43 19.23 87.13 20.39 87.48 20.97 C 82.40 23.72 77.30 26.47 72.05 28.89 Z" />
<path fill="#941271" opacity="1.00" d=" M 53.74 20.11 C 55.15 19.31 57.88 20.89 57.47 22.57 C 56.06 23.15 53.55 21.69 53.74 20.11 Z" />
<path fill="#910b6d" opacity="1.00" d=" M 60.60 25.64 C 62.69 25.60 64.78 25.54 66.87 25.62 C 67.06 25.80 67.44 26.17 67.63 26.35 C 67.35 30.91 66.01 35.43 63.74 39.40 C 61.98 37.43 57.57 35.71 58.62 32.65 C 61.03 32.14 63.50 32.48 65.93 32.60 C 65.90 32.04 65.83 30.91 65.79 30.35 C 64.15 30.09 62.51 29.84 60.88 29.58 C 62.19 29.35 63.51 29.14 64.83 28.92 C 63.41 27.83 62.00 26.75 60.60 25.64 Z" />
<path fill="#ffffff" opacity="1.00" d=" M 29.91 27.96 C 31.60 31.34 33.25 34.76 35.37 37.90 C 34.74 40.42 34.35 43.01 33.48 45.46 C 32.45 46.95 31.02 48.10 29.74 49.37 C 31.48 49.14 33.21 48.77 34.96 48.73 C 37.97 50.47 40.54 52.93 43.75 54.36 C 43.59 48.10 43.37 41.42 40.14 35.87 C 37.55 33.37 33.88 31.93 32.43 28.36 C 35.20 30.73 38.30 32.65 41.22 34.83 C 43.35 37.65 43.61 41.45 45.56 44.39 C 48.87 46.53 52.72 47.68 56.15 49.62 C 52.55 48.82 48.98 47.90 45.38 47.09 C 45.88 49.97 46.22 53.37 48.79 55.23 C 50.76 56.36 52.96 57.00 55.06 57.85 C 51.84 57.51 48.64 57.01 45.46 56.35 C 38.35 55.09 32.44 50.33 25.24 49.31 C 28.02 48.07 32.14 47.37 32.79 43.85 C 34.79 38.21 29.78 33.54 29.91 27.96 Z" />
<path fill="#ffffff" opacity="1.00" d=" M 39.23 31.03 C 42.21 29.48 39.38 34.36 39.23 31.03 Z" />
<path fill="#ffffff" opacity="1.00" d=" M 74.82 33.68 C 79.73 32.31 84.78 31.56 89.84 31.00 C 89.85 31.68 89.87 33.02 89.87 33.70 C 84.86 33.80 79.83 33.98 74.82 33.68 Z" />
<path fill="#ffffff" opacity="1.00" d=" M 72.95 39.06 C 78.35 40.08 83.59 41.80 88.85 43.37 C 88.56 44.50 88.28 45.63 87.99 46.76 C 82.94 44.26 77.80 41.93 72.95 39.06 Z" />
<path fill="#ffffff" opacity="1.00" d=" M 16.07 55.91 C 16.38 53.65 17.25 50.68 20.06 50.71 C 28.42 50.75 35.63 55.62 42.92 59.11 C 48.13 61.55 53.86 59.63 59.26 59.12 C 56.95 60.57 54.49 61.74 51.99 62.82 C 55.53 63.26 58.89 64.47 62.30 65.44 C 64.45 66.11 67.23 65.63 68.42 63.54 C 68.08 60.29 66.69 57.28 65.73 54.19 C 70.46 55.74 75.79 57.46 78.43 62.06 C 77.02 61.59 75.64 61.08 74.26 60.55 C 73.15 67.12 65.89 69.14 61.08 72.46 C 54.39 69.44 47.52 66.70 41.41 62.56 C 37.33 60.03 34.06 56.34 29.80 54.08 C 26.59 52.82 23.04 53.26 19.67 53.18 C 25.55 58.69 30.80 64.96 37.55 69.48 C 42.16 72.69 46.87 75.78 51.76 78.57 C 51.48 78.93 50.91 79.64 50.63 80.00 C 44.45 76.50 39.00 71.92 33.33 67.69 C 27.80 63.75 24.23 57.40 17.80 54.69 C 20.00 57.38 22.62 59.67 25.03 62.17 C 21.82 60.45 18.48 58.72 16.07 55.91 Z" />
<path fill="#ffffff" opacity="1.00" d=" M 51.49 51.80 C 53.08 52.34 54.67 52.90 56.25 53.48 C 54.58 53.61 52.90 53.72 51.22 53.83 C 51.29 53.32 51.42 52.31 51.49 51.80 Z" />
</svg>
