<?xml version="1.0" encoding="UTF-8" ?>
<!DOCTYPE svg PUBLIC "-//W3C//DTD SVG 1.1//EN" "http://www.w3.org/Graphics/SVG/1.1/DTD/svg11.dtd">
<svg width="100pt" height="100pt" viewBox="0 0 100 100" version="1.1" xmlns="http://www.w3.org/2000/svg">
<path fill="#b6bec0" opacity="1.00" d=" M 43.43 24.48 C 45.72 22.09 47.33 19.16 49.19 16.45 C 51.85 20.22 55.16 23.43 58.86 26.18 C 61.15 27.71 62.15 30.28 62.64 32.89 C 65.10 33.66 67.57 34.40 69.98 35.29 C 69.37 37.77 68.43 40.20 68.29 42.77 C 69.30 45.42 71.21 47.88 73.91 48.97 C 77.44 50.42 80.69 52.49 84.23 53.91 C 88.95 54.78 93.80 54.08 98.57 54.15 C 95.36 57.03 91.45 59.20 88.70 62.57 C 87.98 64.97 87.48 67.47 87.46 69.97 C 89.18 73.77 92.06 76.90 94.34 80.36 C 90.41 80.45 86.23 80.05 82.70 82.13 C 78.16 79.76 72.93 80.40 68.00 80.36 C 53.31 80.49 38.62 80.18 23.94 80.24 C 21.50 80.05 19.32 81.18 17.28 82.35 C 14.22 79.10 9.49 80.34 5.53 80.05 C 7.71 76.60 10.51 73.50 12.16 69.74 C 12.22 67.16 11.90 64.40 10.81 62.04 C 8.09 58.97 4.49 56.85 1.43 54.15 C 6.18 54.07 11.02 54.82 15.72 53.85 C 19.40 52.28 22.93 50.33 26.46 48.45 C 29.64 45.90 31.54 42.13 33.87 38.84 C 36.68 34.91 36.54 29.88 37.23 25.30 C 39.30 25.08 41.41 25.05 43.43 24.48 M 38.86 26.62 C 37.71 32.78 37.66 39.54 33.85 44.82 C 30.72 49.77 24.69 51.20 19.80 53.80 C 15.87 56.01 11.28 56.08 6.89 56.02 C 13.09 60.51 16.64 69.66 12.52 76.62 C 14.50 77.31 16.48 78.00 18.47 78.68 C 21.87 77.63 25.40 76.91 28.98 76.95 C 42.65 77.14 56.33 77.28 70.01 76.95 C 73.92 76.82 77.81 77.50 81.53 78.69 C 83.61 77.95 85.70 77.22 87.78 76.48 C 86.73 74.73 85.68 72.98 84.62 71.24 C 85.60 68.30 86.40 65.30 87.58 62.42 C 88.67 59.73 91.08 57.94 93.14 56.02 C 89.44 55.95 85.54 56.26 82.08 54.71 C 78.65 53.16 75.28 51.49 71.79 50.08 C 69.69 49.11 66.99 48.14 66.43 45.59 C 66.08 42.32 67.28 39.13 68.04 35.99 C 66.55 35.86 65.17 35.28 64.04 34.30 C 62.78 35.56 61.55 36.86 60.29 38.13 C 60.26 35.52 60.58 32.88 60.11 30.29 C 59.39 28.47 57.81 27.17 56.56 25.72 C 55.96 26.65 55.37 27.57 54.78 28.48 C 53.47 26.99 52.20 25.45 50.66 24.17 C 46.76 25.17 42.99 26.87 38.86 26.62 Z" />
<path fill="#d96035" opacity="1.00" d=" M 38.86 26.62 C 42.99 26.87 46.76 25.17 50.66 24.17 C 52.20 25.45 53.47 26.99 54.78 28.48 C 55.37 27.57 55.96 26.65 56.56 25.72 C 57.81 27.17 59.39 28.47 60.11 30.29 C 60.58 32.88 60.26 35.52 60.29 38.13 C 61.55 36.86 62.78 35.56 64.04 34.30 C 65.17 35.28 66.55 35.86 68.04 35.99 C 67.28 39.13 66.08 42.32 66.43 45.59 C 66.99 48.14 69.69 49.11 71.79 50.08 C 75.28 51.49 78.65 53.16 82.08 54.71 C 85.54 56.26 89.44 55.95 93.14 56.02 C 91.08 57.94 88.67 59.73 87.58 62.42 C 86.40 65.30 85.60 68.30 84.62 71.24 C 85.68 72.98 86.73 74.73 87.78 76.48 C 85.70 77.22 83.61 77.95 81.53 78.69 C 77.81 77.50 73.92 76.82 70.01 76.95 C 56.33 77.28 42.65 77.14 28.98 76.95 C 25.40 76.91 21.87 77.63 18.47 78.68 C 16.48 78.00 14.50 77.31 12.52 76.62 C 16.64 69.66 13.09 60.51 6.89 56.02 C 11.28 56.08 15.87 56.01 19.80 53.80 C 24.69 51.20 30.72 49.77 33.85 44.82 C 37.66 39.54 37.71 32.78 38.86 26.62 M 48.17 26.22 C 46.68 32.31 45.85 38.55 46.15 44.82 C 47.60 45.27 49.06 45.69 50.53 46.06 C 49.75 39.33 50.45 32.57 51.13 25.86 C 50.39 25.95 48.91 26.13 48.17 26.22 M 40.13 28.16 C 38.99 35.89 37.98 44.04 40.42 51.61 C 42.01 55.40 46.85 54.40 50.14 54.58 C 50.23 54.83 50.40 55.31 50.48 55.56 C 55.58 56.18 60.16 58.58 64.53 61.13 C 64.59 57.57 64.07 54.05 63.55 50.54 C 63.29 45.95 64.87 41.52 66.03 37.15 C 65.48 36.84 64.39 36.22 63.84 35.91 C 62.13 40.21 60.58 44.70 60.83 49.40 C 58.50 48.43 56.15 47.49 53.82 46.51 C 53.81 47.18 53.81 48.52 53.81 49.19 C 50.44 47.63 46.98 46.31 43.39 45.38 C 42.70 39.59 42.40 33.77 42.86 27.96 C 42.18 28.01 40.82 28.11 40.13 28.16 M 53.54 43.30 C 53.36 45.06 55.19 45.85 56.27 46.87 C 57.13 41.34 57.72 35.76 58.91 30.29 C 58.36 29.85 57.27 28.97 56.72 28.53 C 55.19 33.32 53.45 38.20 53.54 43.30 M 31.90 48.60 C 33.96 52.62 36.34 56.47 38.81 60.25 C 40.82 63.30 43.87 65.42 46.15 68.23 C 46.15 70.52 44.98 72.57 44.20 74.67 C 50.02 75.45 55.89 75.43 61.75 75.49 C 61.11 74.24 60.39 73.02 59.89 71.71 C 60.68 68.67 62.77 66.18 63.78 63.22 C 60.88 59.65 56.26 58.33 52.12 56.79 C 52.28 58.50 52.47 60.20 52.67 61.90 C 48.93 57.33 42.77 56.36 38.53 52.46 C 36.58 50.77 34.27 49.58 31.90 48.60 M 12.72 58.16 C 14.52 64.22 16.84 70.08 19.77 75.68 C 25.76 71.32 33.57 71.68 40.16 68.66 C 39.52 66.35 38.86 64.04 38.16 61.75 C 36.13 62.56 34.11 63.41 32.08 64.25 C 31.12 63.49 30.17 62.74 29.21 61.98 C 28.31 63.53 27.55 65.18 26.36 66.54 C 23.54 67.74 18.37 66.92 18.68 63.02 C 20.30 57.09 26.98 55.11 31.91 52.69 C 31.58 52.27 30.92 51.44 30.59 51.02 C 24.32 52.67 19.10 56.92 12.72 58.16 M 66.42 51.16 C 70.22 53.93 74.76 55.56 78.40 58.58 C 80.03 60.05 81.71 62.33 80.93 64.63 C 79.71 67.37 76.07 67.33 73.62 66.59 C 72.49 65.14 71.66 63.49 70.74 61.91 C 67.25 63.86 64.19 66.46 61.91 69.77 C 68.04 71.72 74.98 71.63 80.26 75.73 C 82.99 70.00 85.08 64.03 87.36 58.12 C 79.91 57.12 74.21 50.96 66.42 51.16 M 75.72 58.74 C 77.09 60.61 78.55 62.41 80.13 64.12 C 78.77 62.23 77.30 60.43 75.72 58.74 M 21.13 61.23 C 19.67 61.14 19.52 63.59 21.03 63.57 C 22.49 63.67 22.65 61.20 21.13 61.23 Z" />
<path fill="#ffffff" opacity="1.00" d=" M 48.17 26.22 C 48.91 26.13 50.39 25.95 51.13 25.86 C 50.45 32.57 49.75 39.33 50.53 46.06 C 49.06 45.69 47.60 45.27 46.15 44.82 C 45.85 38.55 46.68 32.31 48.17 26.22 Z" />
<path fill="#ffffff" opacity="1.00" d=" M 40.13 28.16 C 40.82 28.11 42.18 28.01 42.86 27.96 C 42.40 33.77 42.70 39.59 43.39 45.38 C 46.98 46.31 50.44 47.63 53.81 49.19 C 53.81 48.52 53.81 47.18 53.82 46.51 C 56.15 47.49 58.50 48.43 60.83 49.40 C 60.58 44.70 62.13 40.21 63.84 35.91 C 64.39 36.22 65.48 36.84 66.03 37.15 C 64.87 41.52 63.29 45.95 63.55 50.54 C 64.07 54.05 64.59 57.57 64.53 61.13 C 60.16 58.58 55.58 56.18 50.48 55.56 C 50.40 55.31 50.23 54.83 50.14 54.58 C 46.85 54.40 42.01 55.40 40.42 51.61 C 37.98 44.04 38.99 35.89 40.13 28.16 Z" />
<path fill="#ffffff" opacity="1.00" d=" M 53.54 43.30 C 53.45 38.20 55.19 33.32 56.72 28.53 C 57.27 28.97 58.36 29.85 58.91 30.29 C 57.72 35.76 57.13 41.34 56.27 46.87 C 55.19 45.85 53.36 45.06 53.54 43.30 Z" />
<path fill="#ffffff" opacity="1.00" d=" M 31.90 48.60 C 34.27 49.58 36.58 50.77 38.53 52.46 C 42.77 56.36 48.93 57.33 52.67 61.90 C 52.47 60.20 52.28 58.50 52.12 56.79 C 56.26 58.33 60.88 59.65 63.78 63.22 C 62.77 66.18 60.68 68.67 59.89 71.71 C 60.39 73.02 61.11 74.24 61.75 75.49 C 55.89 75.43 50.02 75.45 44.20 74.67 C 44.98 72.57 46.15 70.52 46.15 68.23 C 43.87 65.42 40.82 63.30 38.81 60.25 C 36.34 56.47 33.96 52.62 31.90 48.60 Z" />
<path fill="#ffffff" opacity="1.00" d=" M 12.72 58.16 C 19.10 56.92 24.32 52.67 30.59 51.02 C 30.92 51.44 31.58 52.27 31.91 52.69 C 26.98 55.11 20.30 57.09 18.68 63.02 C 18.37 66.92 23.54 67.74 26.36 66.54 C 27.55 65.18 28.31 63.53 29.21 61.98 C 30.17 62.74 31.12 63.49 32.08 64.25 C 34.11 63.41 36.13 62.56 38.16 61.75 C 38.86 64.04 39.52 66.35 40.16 68.66 C 33.57 71.68 25.76 71.32 19.77 75.68 C 16.84 70.08 14.52 64.22 12.72 58.16 Z" />
<path fill="#ffffff" opacity="1.00" d=" M 66.42 51.16 C 74.21 50.96 79.91 57.12 87.36 58.12 C 85.08 64.03 82.99 70.00 80.26 75.73 C 74.98 71.63 68.04 71.72 61.91 69.77 C 64.19 66.46 67.25 63.86 70.74 61.91 C 71.66 63.49 72.49 65.14 73.62 66.59 C 76.07 67.33 79.71 67.37 80.93 64.63 C 81.71 62.33 80.03 60.05 78.40 58.58 C 74.76 55.56 70.22 53.93 66.42 51.16 Z" />
<path fill="#bea69e" opacity="1.00" d=" M 75.72 58.74 C 77.30 60.43 78.77 62.23 80.13 64.12 C 78.55 62.41 77.09 60.61 75.72 58.74 Z" />
<path fill="#b6bec0" opacity="1.00" d=" M 21.13 61.23 C 22.65 61.20 22.49 63.67 21.03 63.57 C 19.52 63.59 19.67 61.14 21.13 61.23 Z" />
</svg>
