<?xml version="1.0" encoding="UTF-8" ?>
<!DOCTYPE svg PUBLIC "-//W3C//DTD SVG 1.1//EN" "http://www.w3.org/Graphics/SVG/1.1/DTD/svg11.dtd">
<svg width="100pt" height="100pt" viewBox="0 0 100 100" version="1.1" xmlns="http://www.w3.org/2000/svg">
<path fill="#b7b9ba" opacity="1.00" d=" M 42.01 15.02 C 44.27 10.80 46.47 6.53 48.89 2.40 C 51.40 6.48 53.59 10.77 56.31 14.73 C 59.05 18.48 62.26 21.85 65.27 25.39 C 70.17 18.99 74.66 12.30 79.26 5.69 C 81.19 16.51 82.58 27.42 84.63 38.23 C 82.56 38.96 80.48 39.68 78.41 40.41 C 81.53 44.26 84.81 47.97 87.97 51.78 C 82.76 57.76 77.53 63.71 72.47 69.81 C 73.91 71.57 75.36 73.32 76.80 75.07 C 74.98 82.66 73.38 90.34 70.45 97.60 C 66.29 93.88 63.29 88.02 57.20 87.32 C 54.74 90.24 52.23 93.12 49.75 96.03 C 47.12 93.08 44.52 90.09 41.98 87.06 C 36.31 87.63 32.16 91.55 28.12 95.16 C 26.25 88.88 24.35 82.61 22.72 76.26 C 24.51 74.57 26.28 72.86 28.02 71.11 C 22.61 64.56 17.06 58.12 11.33 51.84 C 12.72 50.17 14.35 48.62 15.27 46.62 C 16.26 35.23 18.27 23.95 20.02 12.66 C 24.16 17.64 27.79 23.02 31.76 28.14 C 35.32 23.89 39.40 19.98 42.01 15.02 M 42.13 20.17 C 39.52 24.79 35.82 28.64 32.12 32.39 C 28.40 27.22 25.08 21.76 21.10 16.77 C 19.66 25.41 18.63 34.11 17.73 42.82 C 19.07 43.40 20.41 43.97 21.76 44.54 C 19.79 46.96 17.85 49.40 15.93 51.85 C 20.96 58.45 27.94 63.76 30.93 71.73 C 29.18 73.54 27.44 75.35 25.70 77.16 C 26.79 81.60 28.07 85.99 29.58 90.31 C 33.65 86.71 38.89 85.27 44.08 84.15 C 44.38 83.89 44.98 83.37 45.28 83.11 C 45.65 86.19 47.55 88.69 49.50 90.98 C 52.20 88.65 54.46 83.33 58.75 84.95 C 63.49 85.89 66.47 89.94 69.68 93.17 C 70.95 87.48 73.14 81.91 73.43 76.05 C 72.66 73.30 70.43 71.27 68.79 69.02 C 73.55 63.14 78.69 57.60 83.51 51.78 C 80.26 47.92 76.70 44.19 74.63 39.51 C 76.86 38.56 79.10 37.63 81.35 36.73 C 80.48 28.72 79.07 20.79 77.71 12.86 C 73.17 18.35 69.50 24.49 65.09 30.09 C 58.46 23.60 53.50 15.77 48.96 7.74 C 46.55 11.81 44.46 16.06 42.13 20.17 Z" />
<path fill="#e85a27" opacity="1.00" d=" M 42.13 20.17 C 44.46 16.06 46.55 11.81 48.96 7.74 C 53.50 15.77 58.46 23.60 65.09 30.09 C 69.50 24.49 73.17 18.35 77.71 12.86 C 79.07 20.79 80.48 28.72 81.35 36.73 C 79.10 37.63 76.86 38.56 74.63 39.51 C 76.70 44.19 80.26 47.92 83.51 51.78 C 78.69 57.60 73.55 63.14 68.79 69.02 C 70.43 71.27 72.66 73.30 73.43 76.05 C 73.14 81.91 70.95 87.48 69.68 93.17 C 66.47 89.94 63.49 85.89 58.75 84.95 C 54.46 83.33 52.20 88.65 49.50 90.98 C 47.55 88.69 45.65 86.19 45.28 83.11 C 44.76 80.72 44.43 78.15 43.03 76.09 C 41.47 74.79 39.56 74.01 37.78 73.07 C 38.42 77.38 39.11 82.78 44.08 84.15 C 38.89 85.27 33.65 86.71 29.58 90.31 C 28.07 85.99 26.79 81.60 25.70 77.16 C 27.44 75.35 29.18 73.54 30.93 71.73 C 27.94 63.76 20.96 58.45 15.93 51.85 C 17.85 49.40 19.79 46.96 21.76 44.54 C 20.41 43.97 19.07 43.40 17.73 42.82 C 18.63 34.11 19.66 25.41 21.10 16.77 C 25.08 21.76 28.40 27.22 32.12 32.39 C 35.82 28.64 39.52 24.79 42.13 20.17 M 44.14 21.70 C 45.28 22.30 46.43 22.89 47.57 23.48 C 47.45 36.63 47.59 49.79 47.32 62.94 C 48.47 62.92 49.62 62.91 50.77 62.89 C 50.75 58.09 50.62 53.26 51.29 48.49 C 51.76 52.58 51.90 56.71 52.10 60.82 C 54.44 62.29 56.78 63.76 59.15 65.20 C 58.35 60.72 58.83 56.09 57.89 51.64 C 56.04 49.63 53.29 48.80 50.91 47.60 C 50.61 40.39 50.38 33.15 50.53 25.93 C 50.38 23.64 52.01 21.89 53.21 20.13 C 51.92 17.72 50.61 15.33 49.29 12.94 C 47.49 15.81 45.80 18.75 44.14 21.70 M 66.74 32.63 C 68.21 34.60 70.42 36.66 69.40 39.37 C 65.94 53.92 62.22 68.42 59.06 83.05 C 59.96 83.31 60.87 83.58 61.77 83.85 C 66.03 68.46 69.43 52.86 73.32 37.38 C 75.09 36.57 76.87 35.77 78.65 34.97 C 77.83 29.82 77.04 24.66 76.02 19.55 C 72.71 23.75 69.64 28.14 66.74 32.63 M 22.71 23.69 C 21.92 29.53 21.21 35.38 20.55 41.23 C 22.66 42.40 25.74 42.90 26.37 45.63 C 30.11 58.37 32.66 71.45 36.81 84.07 C 37.35 83.79 38.43 83.23 38.98 82.95 C 35.92 69.65 32.68 56.38 29.39 43.13 C 30.83 41.95 32.28 40.76 33.72 39.58 C 30.23 34.17 26.69 28.77 22.71 23.69 M 40.55 55.66 C 40.26 59.78 40.05 63.91 39.27 67.98 C 41.66 65.75 44.68 63.88 46.09 60.83 C 46.84 57.01 46.41 53.08 46.24 49.22 C 44.19 51.12 40.70 52.47 40.55 55.66 M 55.08 72.96 C 53.45 76.92 52.95 81.26 51.46 85.29 C 53.74 83.98 56.38 83.04 58.15 81.03 C 59.99 77.54 60.38 73.52 61.11 69.69 C 59.06 70.69 56.85 71.48 55.08 72.96 M 66.32 70.62 C 65.33 74.33 64.00 78.04 63.84 81.91 C 64.47 84.35 66.47 86.13 67.90 88.12 C 68.61 83.89 70.32 79.79 70.38 75.47 C 69.30 73.64 67.74 72.17 66.32 70.62 M 28.88 77.08 C 29.68 80.08 30.46 83.08 31.17 86.11 C 32.53 85.01 33.89 83.90 35.25 82.81 C 34.55 79.78 33.81 76.77 33.04 73.76 C 31.65 74.86 30.27 75.97 28.88 77.08 Z" />
<path fill="#ffffff" opacity="1.00" d=" M 44.14 21.70 C 45.80 18.75 47.49 15.81 49.29 12.94 C 50.61 15.33 51.92 17.72 53.21 20.13 C 52.01 21.89 50.38 23.64 50.53 25.93 C 50.38 33.15 50.61 40.39 50.91 47.60 C 53.29 48.80 56.04 49.63 57.89 51.64 C 58.83 56.09 58.35 60.72 59.15 65.20 C 56.78 63.76 54.44 62.29 52.10 60.82 C 51.90 56.71 51.76 52.58 51.29 48.49 C 50.62 53.26 50.75 58.09 50.77 62.89 C 49.62 62.91 48.47 62.92 47.32 62.94 C 47.59 49.79 47.45 36.63 47.57 23.48 C 46.43 22.89 45.28 22.30 44.14 21.70 Z" />
<path fill="#ffffff" opacity="1.00" d=" M 66.74 32.63 C 69.64 28.14 72.71 23.75 76.02 19.55 C 77.04 24.66 77.83 29.82 78.65 34.97 C 76.87 35.77 75.09 36.57 73.32 37.38 C 69.43 52.86 66.03 68.46 61.77 83.85 C 60.87 83.58 59.96 83.31 59.06 83.05 C 62.22 68.42 65.94 53.92 69.40 39.37 C 70.42 36.66 68.21 34.60 66.74 32.63 Z" />
<path fill="#ffffff" opacity="1.00" d=" M 22.71 23.69 C 26.69 28.77 30.23 34.17 33.72 39.58 C 32.28 40.76 30.83 41.95 29.39 43.13 C 32.68 56.38 35.92 69.65 38.98 82.95 C 38.43 83.23 37.35 83.79 36.81 84.07 C 32.66 71.45 30.11 58.37 26.37 45.63 C 25.74 42.90 22.66 42.40 20.55 41.23 C 21.21 35.38 21.92 29.53 22.71 23.69 Z" />
<path fill="#ffffff" opacity="1.00" d=" M 40.55 55.66 C 40.70 52.47 44.19 51.12 46.24 49.22 C 46.41 53.08 46.84 57.01 46.09 60.83 C 44.68 63.88 41.66 65.75 39.27 67.98 C 40.05 63.91 40.26 59.78 40.55 55.66 Z" />
<path fill="#ffffff" opacity="1.00" d=" M 55.08 72.96 C 56.85 71.48 59.06 70.69 61.11 69.69 C 60.38 73.52 59.99 77.54 58.15 81.03 C 56.38 83.04 53.74 83.98 51.46 85.29 C 52.95 81.26 53.45 76.92 55.08 72.96 Z" />
<path fill="#ffffff" opacity="1.00" d=" M 66.32 70.62 C 67.74 72.17 69.30 73.64 70.38 75.47 C 70.32 79.79 68.61 83.89 67.90 88.12 C 66.47 86.13 64.47 84.35 63.84 81.91 C 64.00 78.04 65.33 74.33 66.32 70.62 Z" />
<path fill="#ffffff" opacity="1.00" d=" M 28.88 77.08 C 30.27 75.97 31.65 74.86 33.04 73.76 C 33.81 76.77 34.55 79.78 35.25 82.81 C 33.89 83.90 32.53 85.01 31.17 86.11 C 30.46 83.08 29.68 80.08 28.88 77.08 Z" />
<path fill="#ffffff" opacity="1.00" d=" M 37.78 73.07 C 39.56 74.01 41.47 74.79 43.03 76.09 C 44.43 78.15 44.76 80.72 45.28 83.11 C 44.98 83.37 44.38 83.89 44.08 84.15 C 39.11 82.78 38.42 77.38 37.78 73.07 Z" />
</svg>
