<?xml version="1.0" encoding="UTF-8" ?>
<!DOCTYPE svg PUBLIC "-//W3C//DTD SVG 1.1//EN" "http://www.w3.org/Graphics/SVG/1.1/DTD/svg11.dtd">
<svg width="100pt" height="100pt" viewBox="0 0 100 100" version="1.1" xmlns="http://www.w3.org/2000/svg">
<path fill="#bab9b9" opacity="1.00" d=" M 42.71 29.72 C 45.05 26.71 47.02 23.44 49.31 20.41 C 51.94 23.28 53.98 26.60 56.35 29.67 C 58.31 32.25 61.88 32.60 64.16 34.79 C 65.15 36.26 65.20 38.13 65.62 39.81 C 68.64 40.47 72.51 39.74 74.60 42.54 C 77.23 47.20 72.92 53.27 76.31 57.71 C 81.45 65.10 86.95 72.23 91.93 79.73 C 81.63 79.86 71.32 79.49 61.02 79.81 C 56.99 80.99 53.76 84.05 49.93 85.77 C 44.63 84.40 40.80 79.19 35.05 79.57 C 26.03 79.42 17.01 79.57 7.99 79.51 C 12.95 71.69 18.85 64.49 23.71 56.62 C 24.76 52.28 22.59 47.59 23.85 43.18 C 25.81 39.81 30.09 40.50 33.36 39.87 C 33.63 38.30 33.67 36.64 34.41 35.19 C 36.58 32.53 40.64 32.50 42.71 29.72 M 49.30 25.78 C 47.50 28.11 46.03 30.72 43.88 32.75 C 41.73 33.88 39.34 34.40 37.04 35.12 C 36.30 37.13 35.59 39.14 34.88 41.15 C 31.98 41.85 29.00 42.30 26.17 43.29 C 23.70 48.02 27.14 53.47 26.16 58.43 C 22.69 64.84 17.43 70.13 14.04 76.62 C 21.06 76.93 28.07 76.38 35.09 76.63 C 40.91 76.56 44.30 82.67 49.84 83.45 C 54.96 82.09 58.31 76.58 63.92 76.63 C 71.28 76.39 78.65 76.93 86.01 76.62 C 82.37 69.99 77.06 64.50 73.13 58.08 C 71.53 53.32 75.27 47.92 72.83 43.30 C 70.00 42.23 66.98 41.83 64.06 41.14 C 63.34 39.14 62.61 37.15 61.87 35.16 C 59.62 34.41 57.26 33.86 55.17 32.71 C 52.98 30.62 51.52 27.87 49.30 25.78 Z" />
<path fill="#217a7a" opacity="1.00" d=" M 49.30 25.78 C 51.52 27.87 52.98 30.62 55.17 32.71 C 57.26 33.86 59.62 34.41 61.87 35.16 C 62.61 37.15 63.34 39.14 64.06 41.14 C 66.98 41.83 70.00 42.23 72.83 43.30 C 75.27 47.92 71.53 53.32 73.13 58.08 C 77.06 64.50 82.37 69.99 86.01 76.62 C 78.65 76.93 71.28 76.39 63.92 76.63 C 58.31 76.58 54.96 82.09 49.84 83.45 C 44.30 82.67 40.91 76.56 35.09 76.63 C 28.07 76.38 21.06 76.93 14.04 76.62 C 17.43 70.13 22.69 64.84 26.16 58.43 C 27.14 53.47 23.70 48.02 26.17 43.29 C 29.00 42.30 31.98 41.85 34.88 41.15 C 35.59 39.14 36.30 37.13 37.04 35.12 C 39.34 34.40 41.73 33.88 43.88 32.75 C 46.03 30.72 47.50 28.11 49.30 25.78 M 39.02 36.70 C 38.30 38.72 37.78 40.87 36.54 42.64 C 33.98 44.40 30.70 44.50 27.77 45.22 C 26.96 56.06 31.60 67.08 39.47 74.50 C 42.55 77.07 45.77 80.28 49.88 80.86 C 63.48 74.98 72.54 59.51 70.98 44.76 C 68.77 44.46 66.54 44.24 64.40 43.62 C 61.21 43.02 60.96 39.21 59.92 36.74 C 53.06 35.16 45.89 35.26 39.02 36.70 Z" />
<path fill="#ffffff" opacity="1.00" d=" M 39.02 36.70 C 45.89 35.26 53.06 35.16 59.92 36.74 C 60.96 39.21 61.21 43.02 64.40 43.62 C 66.54 44.24 68.77 44.46 70.98 44.76 C 72.54 59.51 63.48 74.98 49.88 80.86 C 45.77 80.28 42.55 77.07 39.47 74.50 C 31.60 67.08 26.96 56.06 27.77 45.22 C 30.70 44.50 33.98 44.40 36.54 42.64 C 37.78 40.87 38.30 38.72 39.02 36.70 M 42.61 39.58 C 41.30 41.57 40.13 43.72 38.35 45.35 C 36.17 46.88 33.54 47.55 31.08 48.49 C 31.38 56.90 34.97 65.13 40.87 71.12 C 43.49 73.52 46.26 76.60 49.89 77.12 C 60.56 71.93 67.39 60.20 67.84 48.46 C 65.39 47.54 62.81 46.84 60.61 45.39 C 58.76 43.80 57.63 41.60 56.34 39.59 C 51.79 38.79 47.16 38.81 42.61 39.58 Z" />
<path fill="#0b6c6c" opacity="1.00" d=" M 42.61 39.58 C 47.16 38.81 51.79 38.79 56.34 39.59 C 57.63 41.60 58.76 43.80 60.61 45.39 C 62.81 46.84 65.39 47.54 67.84 48.46 C 67.39 60.20 60.56 71.93 49.89 77.12 C 46.26 76.60 43.49 73.52 40.87 71.12 C 34.97 65.13 31.38 56.90 31.08 48.49 C 33.54 47.55 36.17 46.88 38.35 45.35 C 40.13 43.72 41.30 41.57 42.61 39.58 M 34.12 51.22 C 35.52 60.21 40.63 68.79 48.51 73.51 C 49.56 74.31 50.79 73.24 51.71 72.75 C 58.90 67.82 63.45 59.66 64.79 51.13 C 61.41 49.38 58.04 47.43 55.67 44.37 C 53.45 40.99 48.76 41.36 45.36 42.33 C 42.05 45.82 38.61 49.25 34.12 51.22 Z" />
<path fill="#ffffff" opacity="1.00" d=" M 34.12 51.22 C 38.61 49.25 42.05 45.82 45.36 42.33 C 48.76 41.36 53.45 40.99 55.67 44.37 C 58.04 47.43 61.41 49.38 64.79 51.13 C 63.45 59.66 58.90 67.82 51.71 72.75 C 50.79 73.24 49.56 74.31 48.51 73.51 C 40.63 68.79 35.52 60.21 34.12 51.22 Z" />
</svg>
