<?xml version="1.0" encoding="UTF-8" ?>
<!DOCTYPE svg PUBLIC "-//W3C//DTD SVG 1.1//EN" "http://www.w3.org/Graphics/SVG/1.1/DTD/svg11.dtd">
<svg width="100pt" height="100pt" viewBox="0 0 100 100" version="1.1" xmlns="http://www.w3.org/2000/svg">
<path fill="#b8bdbf" opacity="1.00" d=" M 8.17 22.85 C 8.88 19.45 10.16 16.17 12.55 13.59 C 17.01 16.04 21.65 18.21 25.78 21.20 C 27.58 22.53 29.68 23.33 31.76 24.08 C 31.64 29.68 32.65 35.20 34.15 40.58 C 38.85 34.66 42.98 28.30 47.38 22.15 C 51.23 27.28 55.07 32.44 58.70 37.74 C 61.20 35.11 64.55 31.62 68.54 33.35 C 75.74 36.24 83.32 39.51 88.16 45.86 C 90.47 48.77 93.13 51.38 95.84 53.90 C 94.23 57.13 93.04 60.77 90.19 63.17 C 87.64 65.46 84.83 67.45 82.25 69.73 C 85.54 74.27 88.88 78.78 92.17 83.32 C 85.09 83.48 78.00 83.29 70.91 83.36 C 65.75 83.25 61.17 86.31 56.03 86.39 C 49.86 86.61 44.23 83.27 38.07 83.36 C 26.86 83.31 15.64 83.50 4.44 83.30 C 8.86 76.01 14.74 69.63 18.73 62.11 C 17.71 59.41 15.16 57.15 15.63 54.04 C 16.55 47.35 18.02 39.86 14.42 33.67 C 13.16 31.78 13.49 29.45 13.44 27.30 C 11.70 25.79 9.94 24.31 8.17 22.85 M 14.08 16.32 C 12.14 17.06 10.48 19.46 11.72 21.45 C 15.64 28.28 19.39 35.86 18.87 43.96 C 18.85 47.57 17.93 51.17 18.27 54.78 C 19.08 57.69 20.93 60.17 21.79 63.06 C 19.28 69.37 14.07 74.17 10.78 80.08 C 18.87 80.49 26.97 80.08 35.06 80.21 C 41.98 80.18 48.06 84.56 55.01 84.28 C 60.62 84.26 65.40 80.65 70.95 80.32 C 75.76 80.03 80.58 80.27 85.40 80.08 C 83.33 76.86 81.14 73.72 78.87 70.64 C 82.76 64.39 90.78 61.80 93.06 54.42 C 90.32 51.66 87.82 48.67 85.19 45.81 C 81.20 41.43 75.77 38.76 70.40 36.47 C 68.03 35.48 64.80 34.51 62.81 36.75 C 61.17 39.18 60.98 42.24 60.24 45.01 C 55.83 39.42 51.91 33.45 47.36 27.96 C 44.11 32.25 41.25 36.81 38.12 41.18 C 36.83 43.07 34.81 44.22 32.86 45.30 C 31.33 39.83 30.55 34.19 29.40 28.64 C 28.98 26.11 26.66 24.66 24.89 23.07 C 21.55 20.46 18.18 17.63 14.08 16.32 Z" />
<path fill="#bc532e" opacity="1.00" d=" M 14.08 16.32 C 18.18 17.63 21.55 20.46 24.89 23.07 C 26.66 24.66 28.98 26.11 29.40 28.64 C 30.55 34.19 31.33 39.83 32.86 45.30 C 34.81 44.22 36.83 43.07 38.12 41.18 C 41.25 36.81 44.11 32.25 47.36 27.96 C 51.91 33.45 55.83 39.42 60.24 45.01 C 60.98 42.24 61.17 39.18 62.81 36.75 C 64.80 34.51 68.03 35.48 70.40 36.47 C 75.77 38.76 81.20 41.43 85.19 45.81 C 87.82 48.67 90.32 51.66 93.06 54.42 C 90.78 61.80 82.76 64.39 78.87 70.64 C 81.14 73.72 83.33 76.86 85.40 80.08 C 80.58 80.27 75.76 80.03 70.95 80.32 C 65.40 80.65 60.62 84.26 55.01 84.28 C 48.06 84.56 41.98 80.18 35.06 80.21 C 26.97 80.08 18.87 80.49 10.78 80.08 C 14.07 74.17 19.28 69.37 21.79 63.06 C 20.93 60.17 19.08 57.69 18.27 54.78 C 17.93 51.17 18.85 47.57 18.87 43.96 C 19.39 35.86 15.64 28.28 11.72 21.45 C 10.48 19.46 12.14 17.06 14.08 16.32 M 12.93 18.90 C 14.29 21.22 15.95 23.33 17.40 25.59 C 18.79 27.66 18.56 30.27 18.88 32.63 C 21.80 31.61 24.75 30.66 27.69 29.70 C 23.47 25.33 19.55 19.44 12.93 18.90 M 26.06 31.37 C 25.30 36.27 26.06 41.23 27.33 45.97 C 26.07 46.33 24.81 46.69 23.55 47.06 C 23.38 42.82 23.03 38.58 22.22 34.41 C 19.92 41.40 21.68 48.89 20.49 56.09 C 23.83 53.07 27.52 50.42 31.77 48.85 C 29.45 43.14 29.83 36.47 26.06 31.37 M 66.10 37.56 C 63.09 38.31 63.54 42.23 62.71 44.59 C 66.39 45.51 70.20 46.40 73.32 48.67 C 78.02 52.31 81.62 57.13 86.03 61.10 C 87.53 59.19 88.99 57.26 90.41 55.30 C 86.39 50.81 82.99 45.48 77.56 42.54 C 73.90 40.59 70.22 38.35 66.10 37.56 M 64.42 47.42 C 61.85 52.75 58.96 57.93 55.90 62.98 C 53.31 67.30 47.38 67.77 43.21 65.72 C 38.26 62.27 35.45 56.72 31.75 52.11 C 29.14 53.37 26.66 54.87 24.36 56.62 C 26.27 58.48 28.22 60.30 30.10 62.19 C 27.65 61.24 25.23 60.21 22.79 59.22 C 26.32 67.16 32.48 73.86 40.32 77.68 C 44.09 79.41 48.56 81.80 52.65 79.64 C 56.51 77.71 60.86 77.30 65.11 77.87 C 61.15 79.06 57.02 79.69 53.18 81.26 C 58.35 81.68 63.33 80.11 67.91 77.84 C 67.38 77.48 66.33 76.75 65.80 76.39 C 73.03 73.74 79.74 68.44 82.53 61.17 C 80.38 57.27 76.89 54.32 73.67 51.32 C 71.15 48.95 67.65 48.28 64.42 47.42 M 41.64 62.63 C 43.59 63.72 45.58 65.30 47.96 64.91 C 50.52 64.74 52.50 62.94 54.52 61.57 C 50.24 62.07 45.94 62.38 41.64 62.63 Z" />
<path fill="#ffffff" opacity="1.00" d=" M 12.93 18.90 C 19.55 19.44 23.47 25.33 27.69 29.70 C 24.75 30.66 21.80 31.61 18.88 32.63 C 18.56 30.27 18.79 27.66 17.40 25.59 C 15.95 23.33 14.29 21.22 12.93 18.90 Z" />
<path fill="#ffffff" opacity="1.00" d=" M 26.06 31.37 C 29.83 36.47 29.45 43.14 31.77 48.85 C 27.52 50.42 23.83 53.07 20.49 56.09 C 21.68 48.89 19.92 41.40 22.22 34.41 C 23.03 38.58 23.38 42.82 23.55 47.06 C 24.81 46.69 26.07 46.33 27.33 45.97 C 26.06 41.23 25.30 36.27 26.06 31.37 Z" />
<path fill="#ffffff" opacity="1.00" d=" M 66.10 37.56 C 70.22 38.35 73.90 40.59 77.56 42.54 C 82.99 45.48 86.39 50.81 90.41 55.30 C 88.99 57.26 87.53 59.19 86.03 61.10 C 81.62 57.13 78.02 52.31 73.32 48.67 C 70.20 46.40 66.39 45.51 62.71 44.59 C 63.54 42.23 63.09 38.31 66.10 37.56 Z" />
<path fill="#ffffff" opacity="1.00" d=" M 64.42 47.42 C 67.65 48.28 71.15 48.95 73.67 51.32 C 76.89 54.32 80.38 57.27 82.53 61.17 C 79.74 68.44 73.03 73.74 65.80 76.39 C 66.33 76.75 67.38 77.48 67.91 77.84 C 63.33 80.11 58.35 81.68 53.18 81.26 C 57.02 79.69 61.15 79.06 65.11 77.87 C 60.86 77.30 56.51 77.71 52.65 79.64 C 48.56 81.80 44.09 79.41 40.32 77.68 C 32.48 73.86 26.32 67.16 22.79 59.22 C 25.23 60.21 27.65 61.24 30.10 62.19 C 28.22 60.30 26.27 58.48 24.36 56.62 C 26.66 54.87 29.14 53.37 31.75 52.11 C 35.45 56.72 38.26 62.27 43.21 65.72 C 47.38 67.77 53.31 67.30 55.90 62.98 C 58.96 57.93 61.85 52.75 64.42 47.42 Z" />
<path fill="#ffffff" opacity="1.00" d=" M 41.64 62.63 C 45.94 62.38 50.24 62.07 54.52 61.57 C 52.50 62.94 50.52 64.74 47.96 64.91 C 45.58 65.30 43.59 63.72 41.64 62.63 Z" />
</svg>
