<?xml version="1.0" encoding="UTF-8" ?>
<!DOCTYPE svg PUBLIC "-//W3C//DTD SVG 1.1//EN" "http://www.w3.org/Graphics/SVG/1.1/DTD/svg11.dtd">
<svg width="100pt" height="100pt" viewBox="0 0 100 100" version="1.1" xmlns="http://www.w3.org/2000/svg">
<path fill="#b8b8b8" opacity="1.00" d=" M 13.94 23.96 C 15.76 19.73 16.93 14.06 21.99 12.62 C 28.79 13.24 35.12 16.43 41.94 16.89 C 55.81 17.01 69.69 16.70 83.56 17.03 C 83.56 21.30 83.17 25.62 83.74 29.87 C 85.50 34.57 89.51 38.21 90.76 43.11 C 91.57 48.84 82.87 50.26 83.49 55.94 C 83.46 65.17 83.50 74.40 83.55 83.63 C 74.72 83.77 65.86 83.32 57.04 83.80 C 51.02 85.02 45.21 87.68 38.93 87.28 C 34.52 87.80 31.36 83.73 27.07 83.66 C 23.37 83.46 19.66 83.63 15.95 83.65 C 15.77 73.75 15.97 63.83 15.89 53.93 C 16.43 49.80 11.23 48.01 11.30 43.98 C 11.35 37.24 11.23 30.29 13.94 23.96 M 21.13 14.92 C 17.79 21.00 14.38 27.32 13.83 34.37 C 13.62 37.95 13.12 41.66 13.99 45.19 C 15.23 47.29 17.77 48.18 19.71 49.53 C 19.95 59.29 19.58 69.07 19.88 78.83 C 23.68 78.92 27.47 79.03 31.26 79.22 C 32.60 80.94 33.45 83.44 35.56 84.34 C 41.95 85.53 48.58 84.17 54.41 81.43 C 62.10 77.63 70.85 79.21 79.09 78.96 C 79.40 71.62 78.90 64.28 79.23 56.94 C 79.18 52.71 83.22 50.43 85.78 47.70 C 87.03 46.33 89.24 44.83 88.22 42.70 C 86.51 38.18 83.04 34.66 80.61 30.54 C 79.04 27.74 79.05 24.43 78.58 21.34 C 68.05 21.38 57.52 21.31 46.98 21.50 C 43.44 21.62 39.79 21.23 36.71 19.32 C 31.96 16.57 26.49 15.64 21.13 14.92 Z" />
<path fill="#d45b19" opacity="1.00" d=" M 21.13 14.92 C 26.49 15.64 31.96 16.57 36.71 19.32 C 39.79 21.23 43.44 21.62 46.98 21.50 C 57.52 21.31 68.05 21.38 78.58 21.34 C 79.05 24.43 79.04 27.74 80.61 30.54 C 83.04 34.66 86.51 38.18 88.22 42.70 C 89.24 44.83 87.03 46.33 85.78 47.70 C 83.22 50.43 79.18 52.71 79.23 56.94 C 78.90 64.28 79.40 71.62 79.09 78.96 C 70.85 79.21 62.10 77.63 54.41 81.43 C 48.58 84.17 41.95 85.53 35.56 84.34 C 33.45 83.44 32.60 80.94 31.26 79.22 C 27.47 79.03 23.68 78.92 19.88 78.83 C 19.58 69.07 19.95 59.29 19.71 49.53 C 17.77 48.18 15.23 47.29 13.99 45.19 C 13.12 41.66 13.62 37.95 13.83 34.37 C 14.38 27.32 17.79 21.00 21.13 14.92 M 22.69 18.87 C 21.44 23.27 19.03 27.25 17.98 31.69 C 17.42 35.82 17.65 40.01 17.08 44.14 C 20.88 45.08 24.70 45.95 28.53 46.76 C 30.20 38.19 33.04 29.87 34.27 21.21 C 30.42 20.35 26.57 19.54 22.69 18.87 M 36.27 27.41 C 39.98 28.37 43.69 27.38 47.33 26.65 C 52.29 25.62 57.28 27.01 61.98 28.52 C 62.41 28.11 63.29 27.30 63.73 26.89 C 55.12 22.77 44.57 22.25 36.27 27.41 M 61.81 33.83 C 67.11 39.24 72.25 44.81 77.24 50.51 C 79.84 48.30 82.39 46.03 84.97 43.80 C 82.73 40.73 81.00 37.31 78.58 34.38 C 75.83 31.57 72.43 29.51 69.53 26.88 C 66.92 29.15 64.35 31.48 61.81 33.83 M 35.17 28.47 C 33.57 32.17 32.76 36.13 32.62 40.15 C 35.18 40.26 37.74 40.36 40.30 40.51 C 39.97 37.96 39.75 35.39 39.12 32.90 C 38.67 30.83 36.58 29.83 35.17 28.47 M 41.03 31.60 C 41.12 34.69 41.22 37.77 41.30 40.86 C 42.78 41.25 44.26 41.64 45.75 42.03 C 45.73 38.83 45.69 35.64 45.66 32.44 C 44.12 32.16 42.57 31.88 41.03 31.60 M 47.02 33.02 C 47.30 35.52 47.60 38.02 47.92 40.51 C 48.68 38.13 49.37 35.73 50.09 33.33 C 49.32 33.25 47.79 33.10 47.02 33.02 M 51.54 32.89 C 50.72 36.70 49.85 40.50 49.22 44.34 C 50.60 43.37 52.10 42.52 53.26 41.27 C 54.13 39.44 54.49 37.42 54.99 35.48 C 53.84 34.62 52.69 33.75 51.54 32.89 M 57.62 33.48 C 56.87 36.98 56.68 40.75 54.90 43.93 C 52.91 45.52 50.12 46.23 47.68 45.33 C 43.14 43.86 38.48 42.79 33.72 42.35 C 32.41 46.34 30.56 50.43 31.28 54.73 C 31.74 59.01 34.27 62.65 37.12 65.72 C 36.54 62.01 35.30 58.44 34.55 54.77 C 34.30 52.66 34.86 49.80 37.18 49.10 C 40.22 47.93 44.56 46.93 46.57 50.34 C 48.55 54.45 48.46 59.24 49.89 63.57 C 52.08 63.84 54.32 63.91 56.44 64.56 C 57.94 65.69 58.90 67.35 60.05 68.80 C 62.74 66.61 65.58 64.40 67.32 61.32 C 69.16 58.11 69.60 54.36 70.14 50.77 C 66.22 53.65 63.61 58.22 59.21 60.38 C 55.92 61.94 53.24 58.85 51.46 56.50 C 49.17 53.96 50.53 49.89 53.05 48.05 C 56.21 45.50 59.29 42.85 62.01 39.83 C 60.52 37.73 59.06 35.61 57.62 33.48 M 60.55 45.35 C 63.69 47.18 67.05 48.92 70.81 48.61 C 68.76 45.78 66.46 43.16 64.09 40.59 C 62.91 42.18 61.73 43.77 60.55 45.35 M 56.67 48.75 C 58.76 50.10 60.76 51.63 63.08 52.58 C 64.42 52.34 65.53 51.47 66.73 50.87 C 64.41 49.17 62.05 47.52 59.69 45.86 C 58.68 46.82 57.68 47.78 56.67 48.75 M 22.06 48.88 C 21.85 57.21 24.81 65.63 31.20 71.17 C 29.79 67.85 27.90 64.74 26.63 61.35 C 25.27 57.76 25.09 53.88 24.83 50.09 C 23.90 49.68 22.98 49.28 22.06 48.88 M 37.60 51.07 C 37.25 52.35 36.89 53.64 36.54 54.93 C 39.64 54.16 42.74 53.38 45.78 52.42 C 43.39 50.57 40.43 50.56 37.60 51.07 M 52.38 51.05 C 53.19 54.09 54.92 56.72 56.99 59.05 C 58.91 57.40 60.79 55.72 62.66 54.01 C 59.46 52.34 55.98 51.32 52.38 51.05 M 71.42 67.39 C 68.86 70.98 65.15 73.44 61.96 76.40 C 70.99 72.38 77.74 63.31 77.89 53.28 C 75.36 57.81 74.48 63.14 71.42 67.39 M 40.21 55.03 C 39.33 55.27 37.82 56.09 38.35 57.22 C 39.51 58.07 41.15 57.10 41.93 56.14 C 42.67 55.07 40.93 54.64 40.21 55.03 M 38.45 63.12 C 41.00 62.14 43.49 61.05 45.98 59.94 C 45.90 58.58 45.82 57.22 45.73 55.85 C 42.51 57.41 38.38 58.81 38.45 63.12 M 38.41 67.35 C 41.79 67.05 45.12 66.37 48.42 65.56 C 47.65 63.89 46.88 62.22 46.12 60.55 C 43.32 62.55 40.63 64.72 38.41 67.35 M 34.19 72.07 C 34.87 75.02 35.54 77.97 36.20 80.92 C 39.63 80.68 43.11 80.84 46.52 80.30 C 50.15 79.46 53.48 77.70 57.00 76.51 C 56.32 73.44 55.65 70.37 54.98 67.30 C 47.98 68.59 40.95 69.79 34.19 72.07 Z" />
<path fill="#ffffff" opacity="1.00" d=" M 22.69 18.87 C 26.57 19.54 30.42 20.35 34.27 21.21 C 33.04 29.87 30.20 38.19 28.53 46.76 C 24.70 45.95 20.88 45.08 17.08 44.14 C 17.65 40.01 17.42 35.82 17.98 31.69 C 19.03 27.25 21.44 23.27 22.69 18.87 Z" />
<path fill="#ffffff" opacity="1.00" d=" M 36.27 27.41 C 44.57 22.25 55.12 22.77 63.73 26.89 C 63.29 27.30 62.41 28.11 61.98 28.52 C 57.28 27.01 52.29 25.62 47.33 26.65 C 43.69 27.38 39.98 28.37 36.27 27.41 Z" />
<path fill="#ffffff" opacity="1.00" d=" M 61.81 33.83 C 64.35 31.48 66.92 29.15 69.53 26.88 C 72.43 29.51 75.83 31.57 78.58 34.38 C 81.00 37.31 82.73 40.73 84.97 43.80 C 82.39 46.03 79.84 48.30 77.24 50.51 C 72.25 44.81 67.11 39.24 61.81 33.83 Z" />
<path fill="#ffffff" opacity="1.00" d=" M 35.17 28.47 C 36.58 29.83 38.67 30.83 39.12 32.90 C 39.75 35.39 39.97 37.96 40.30 40.51 C 37.74 40.36 35.18 40.26 32.62 40.15 C 32.76 36.13 33.57 32.17 35.17 28.47 Z" />
<path fill="#ffffff" opacity="1.00" d=" M 41.03 31.60 C 42.57 31.88 44.12 32.16 45.66 32.44 C 45.69 35.64 45.73 38.83 45.75 42.03 C 44.26 41.64 42.78 41.25 41.30 40.86 C 41.22 37.77 41.12 34.69 41.03 31.60 Z" />
<path fill="#ffffff" opacity="1.00" d=" M 47.02 33.02 C 47.79 33.10 49.32 33.25 50.09 33.33 C 49.37 35.73 48.68 38.13 47.92 40.51 C 47.60 38.02 47.30 35.52 47.02 33.02 Z" />
<path fill="#ffffff" opacity="1.00" d=" M 51.54 32.89 C 52.69 33.75 53.84 34.62 54.99 35.48 C 54.49 37.42 54.13 39.44 53.26 41.27 C 52.10 42.52 50.60 43.37 49.22 44.34 C 49.85 40.50 50.72 36.70 51.54 32.89 Z" />
<path fill="#ffffff" opacity="1.00" d=" M 57.62 33.48 C 59.06 35.61 60.52 37.73 62.01 39.83 C 59.29 42.85 56.21 45.50 53.05 48.05 C 50.53 49.89 49.17 53.96 51.46 56.50 C 53.24 58.85 55.92 61.94 59.21 60.38 C 63.61 58.22 66.22 53.65 70.14 50.77 C 69.60 54.36 69.16 58.11 67.32 61.32 C 65.58 64.40 62.74 66.61 60.05 68.80 C 58.90 67.35 57.94 65.69 56.44 64.56 C 54.32 63.91 52.08 63.84 49.89 63.57 C 48.46 59.24 48.55 54.45 46.57 50.34 C 44.56 46.93 40.22 47.93 37.18 49.10 C 34.86 49.80 34.30 52.66 34.55 54.77 C 35.30 58.44 36.54 62.01 37.12 65.72 C 34.27 62.65 31.74 59.01 31.28 54.73 C 30.56 50.43 32.41 46.34 33.72 42.35 C 38.48 42.79 43.14 43.86 47.68 45.33 C 50.12 46.23 52.91 45.52 54.90 43.93 C 56.68 40.75 56.87 36.98 57.62 33.48 Z" />
<path fill="#ffffff" opacity="1.00" d=" M 60.55 45.35 C 61.73 43.77 62.91 42.18 64.09 40.59 C 66.46 43.16 68.76 45.78 70.81 48.61 C 67.05 48.92 63.69 47.18 60.55 45.35 Z" />
<path fill="#ffffff" opacity="1.00" d=" M 56.67 48.75 C 57.68 47.78 58.68 46.82 59.69 45.86 C 62.05 47.52 64.41 49.17 66.73 50.87 C 65.53 51.47 64.42 52.34 63.08 52.58 C 60.76 51.63 58.76 50.10 56.67 48.75 Z" />
<path fill="#ffffff" opacity="1.00" d=" M 22.06 48.88 C 22.98 49.28 23.90 49.68 24.83 50.09 C 25.09 53.88 25.27 57.76 26.63 61.35 C 27.90 64.74 29.79 67.85 31.20 71.17 C 24.81 65.63 21.85 57.21 22.06 48.88 Z" />
<path fill="#fcf3ee" opacity="1.00" d=" M 37.60 51.07 C 40.43 50.56 43.39 50.57 45.78 52.42 C 42.74 53.38 39.64 54.16 36.54 54.93 C 36.89 53.64 37.25 52.35 37.60 51.07 Z" />
<path fill="#ffffff" opacity="1.00" d=" M 52.38 51.05 C 55.98 51.32 59.46 52.34 62.66 54.01 C 60.79 55.72 58.91 57.40 56.99 59.05 C 54.92 56.72 53.19 54.09 52.38 51.05 M 57.49 53.44 C 56.45 54.57 58.28 56.51 59.47 55.56 C 60.52 54.44 58.68 52.50 57.49 53.44 Z" />
<path fill="#d35737" opacity="1.00" d=" M 57.49 53.44 C 58.68 52.50 60.52 54.44 59.47 55.56 C 58.28 56.51 56.45 54.57 57.49 53.44 Z" />
<path fill="#ffffff" opacity="1.00" d=" M 71.42 67.39 C 74.48 63.14 75.36 57.81 77.89 53.28 C 77.74 63.31 70.99 72.38 61.96 76.40 C 65.15 73.44 68.86 70.98 71.42 67.39 Z" />
<path fill="#fbeee7" opacity="1.00" d=" M 40.21 55.03 C 40.93 54.64 42.67 55.07 41.93 56.14 C 41.15 57.10 39.51 58.07 38.35 57.22 C 37.82 56.09 39.33 55.27 40.21 55.03 Z" />
<path fill="#ffffff" opacity="1.00" d=" M 38.45 63.12 C 38.38 58.81 42.51 57.41 45.73 55.85 C 45.82 57.22 45.90 58.58 45.98 59.94 C 43.49 61.05 41.00 62.14 38.45 63.12 Z" />
<path fill="#ffffff" opacity="1.00" d=" M 38.41 67.35 C 40.63 64.72 43.32 62.55 46.12 60.55 C 46.88 62.22 47.65 63.89 48.42 65.56 C 45.12 66.37 41.79 67.05 38.41 67.35 Z" />
<path fill="#ffffff" opacity="1.00" d=" M 34.19 72.07 C 40.95 69.79 47.98 68.59 54.98 67.30 C 55.65 70.37 56.32 73.44 57.00 76.51 C 53.48 77.70 50.15 79.46 46.52 80.30 C 43.11 80.84 39.63 80.68 36.20 80.92 C 35.54 77.97 34.87 75.02 34.19 72.07 Z" />
</svg>
