<?xml version="1.0" encoding="UTF-8" ?>
<!DOCTYPE svg PUBLIC "-//W3C//DTD SVG 1.1//EN" "http://www.w3.org/Graphics/SVG/1.1/DTD/svg11.dtd">
<svg width="100pt" height="100pt" viewBox="0 0 100 100" version="1.1" xmlns="http://www.w3.org/2000/svg">
<path fill="#ffffff" opacity="1.00" d=" M 42.45 12.61 C 60.88 8.24 81.24 20.57 86.41 38.73 C 91.91 54.41 84.75 73.01 70.91 81.88 C 61.53 87.91 49.46 90.24 38.78 86.42 C 20.07 81.14 7.61 59.76 12.96 40.96 C 16.22 26.83 28.23 15.37 42.45 12.61 M 45.40 15.58 C 37.43 16.59 29.92 20.56 24.51 26.49 C 13.81 37.67 12.22 56.19 20.98 68.98 C 29.29 82.22 47.06 88.22 61.69 82.70 C 77.82 77.22 88.06 58.77 83.82 42.19 C 80.20 25.24 62.60 12.85 45.40 15.58 Z" />
<path fill="#482b46" opacity="1.00" d=" M 45.40 15.58 C 62.60 12.85 80.20 25.24 83.82 42.19 C 88.06 58.77 77.82 77.22 61.69 82.70 C 47.06 88.22 29.29 82.22 20.98 68.98 C 12.22 56.19 13.81 37.67 24.51 26.49 C 29.92 20.56 37.43 16.59 45.40 15.58 M 20.94 50.74 C 30.01 60.06 39.13 69.33 48.22 78.63 C 53.22 75.15 58.34 71.82 63.10 68.01 C 58.39 69.70 53.83 71.77 49.21 73.68 C 40.99 65.90 32.98 57.91 24.95 49.95 C 32.89 41.45 41.05 33.15 49.22 24.87 C 57.00 33.27 64.49 41.95 71.88 50.70 C 65.99 55.48 59.36 59.34 53.99 64.73 C 61.82 60.72 69.11 55.74 76.79 51.45 C 67.77 40.34 58.52 29.41 49.07 18.65 C 39.60 29.26 30.13 39.89 20.94 50.74 M 58.74 22.87 C 61.96 27.07 65.82 30.70 69.43 34.55 C 73.38 38.62 77.02 42.97 81.10 46.91 C 78.22 42.21 75.01 37.70 71.51 33.44 C 67.73 29.40 63.30 25.98 58.74 22.87 M 39.04 45.00 C 37.91 46.50 36.51 47.94 36.07 49.83 C 40.22 56.01 45.27 61.54 49.98 67.30 C 51.32 66.45 52.65 65.59 53.99 64.73 C 54.19 63.49 54.15 62.11 55.03 61.11 C 58.04 57.26 61.26 53.59 64.25 49.72 C 59.87 43.44 54.85 37.64 49.98 31.74 C 46.23 36.07 42.71 40.59 39.04 45.00 M 22.75 57.92 C 27.38 64.19 33.22 69.49 37.31 76.17 C 36.95 73.97 36.89 71.47 35.09 69.87 C 31.15 65.72 27.28 61.45 22.75 57.92 Z" />
<path fill="#ffffff" opacity="1.00" d=" M 20.94 50.74 C 30.13 39.89 39.60 29.26 49.07 18.65 C 58.52 29.41 67.77 40.34 76.79 51.45 C 69.11 55.74 61.82 60.72 53.99 64.73 C 59.36 59.34 65.99 55.48 71.88 50.70 C 64.49 41.95 57.00 33.27 49.22 24.87 C 41.05 33.15 32.89 41.45 24.95 49.95 C 32.98 57.91 40.99 65.90 49.21 73.68 C 53.83 71.77 58.39 69.70 63.10 68.01 C 58.34 71.82 53.22 75.15 48.22 78.63 C 39.13 69.33 30.01 60.06 20.94 50.74 Z" />
<path fill="#ffffff" opacity="1.00" d=" M 58.74 22.87 C 63.30 25.98 67.73 29.40 71.51 33.44 C 75.01 37.70 78.22 42.21 81.10 46.91 C 77.02 42.97 73.38 38.62 69.43 34.55 C 65.82 30.70 61.96 27.07 58.74 22.87 Z" />
<path fill="#ffffff" opacity="1.00" d=" M 39.04 45.00 C 42.71 40.59 46.23 36.07 49.98 31.74 C 54.85 37.64 59.87 43.44 64.25 49.72 C 61.26 53.59 58.04 57.26 55.03 61.11 C 54.15 62.11 54.19 63.49 53.99 64.73 C 52.65 65.59 51.32 66.45 49.98 67.30 C 45.27 61.54 40.22 56.01 36.07 49.83 C 36.51 47.94 37.91 46.50 39.04 45.00 M 50.10 36.48 C 49.84 41.78 49.89 47.09 50.07 52.39 C 53.58 51.45 57.06 50.37 60.48 49.14 C 57.22 44.76 53.84 40.46 50.10 36.48 M 41.03 51.85 C 43.82 55.73 46.86 59.41 49.97 63.04 C 53.04 59.39 56.10 55.71 58.92 51.86 C 55.97 52.66 53.06 53.79 50.00 54.07 C 46.92 53.78 44.00 52.65 41.03 51.85 Z" />
<path fill="#482b46" opacity="1.00" d=" M 50.10 36.48 C 53.84 40.46 57.22 44.76 60.48 49.14 C 57.06 50.37 53.58 51.45 50.07 52.39 C 49.89 47.09 49.84 41.78 50.10 36.48 Z" />
<path fill="#482b46" opacity="1.00" d=" M 41.03 51.85 C 44.00 52.65 46.92 53.78 50.00 54.07 C 53.06 53.79 55.97 52.66 58.92 51.86 C 56.10 55.71 53.04 59.39 49.97 63.04 C 46.86 59.41 43.82 55.73 41.03 51.85 Z" />
<path fill="#ffffff" opacity="1.00" d=" M 22.75 57.92 C 27.28 61.45 31.15 65.72 35.09 69.87 C 36.89 71.47 36.95 73.97 37.31 76.17 C 33.22 69.49 27.38 64.19 22.75 57.92 Z" />
</svg>
