<?xml version="1.0" encoding="UTF-8" ?>
<!DOCTYPE svg PUBLIC "-//W3C//DTD SVG 1.1//EN" "http://www.w3.org/Graphics/SVG/1.1/DTD/svg11.dtd">
<svg width="100pt" height="100pt" viewBox="0 0 100 100" version="1.1" xmlns="http://www.w3.org/2000/svg">
<path fill="#bebabf" opacity="1.00" d=" M 30.13 17.15 C 38.33 12.51 48.25 10.13 57.53 12.61 C 62.55 13.56 66.96 16.21 71.54 18.31 C 75.16 19.35 79.01 18.75 82.73 18.88 C 82.77 22.83 82.30 26.86 83.17 30.75 C 84.33 34.50 86.25 37.99 87.06 41.85 C 88.27 47.49 88.23 53.40 86.95 59.02 C 86.10 62.88 84.07 66.33 83.04 70.13 C 82.37 73.92 82.74 77.79 82.76 81.61 C 77.97 81.67 72.77 80.76 68.52 83.54 C 57.23 90.15 42.51 90.29 31.15 83.78 C 26.78 80.85 21.41 81.59 16.44 81.60 C 16.47 76.45 17.29 70.96 14.77 66.21 C 10.80 57.76 10.11 47.80 12.94 38.91 C 13.89 35.76 15.65 32.90 16.32 29.67 C 16.75 26.09 16.50 22.46 16.53 18.87 C 21.07 18.69 26.06 19.74 30.13 17.15 M 34.69 18.72 C 29.83 21.39 24.19 21.34 18.81 21.20 C 18.81 24.15 18.86 27.11 18.66 30.05 C 18.38 35.90 15.21 41.13 14.73 46.95 C 13.99 52.64 15.45 58.28 17.32 63.60 C 19.12 68.59 18.78 73.96 18.80 79.16 C 24.07 79.11 29.60 78.95 34.38 81.55 C 43.74 86.40 55.29 86.43 64.66 81.61 C 69.45 79.01 74.98 79.10 80.27 79.15 C 80.32 74.23 79.94 69.15 81.58 64.41 C 83.04 60.07 84.57 55.65 84.56 51.00 C 84.81 45.94 83.33 41.04 81.69 36.32 C 79.97 31.47 80.31 26.26 80.25 21.20 C 75.10 21.29 69.69 21.45 65.01 18.94 C 55.67 14.09 44.08 13.90 34.69 18.72 Z" />
<path fill="#2c8c19" opacity="1.00" d=" M 34.69 18.72 C 44.08 13.90 55.67 14.09 65.01 18.94 C 69.69 21.45 75.10 21.29 80.25 21.20 C 80.31 26.26 79.97 31.47 81.69 36.32 C 83.33 41.04 84.81 45.94 84.56 51.00 C 84.57 55.65 83.04 60.07 81.58 64.41 C 79.94 69.15 80.32 74.23 80.27 79.15 C 74.98 79.10 69.45 79.01 64.66 81.61 C 55.29 86.43 43.74 86.40 34.38 81.55 C 29.60 78.95 24.07 79.11 18.80 79.16 C 18.78 73.96 19.12 68.59 17.32 63.60 C 15.45 58.28 13.99 52.64 14.73 46.95 C 15.21 41.13 18.38 35.90 18.66 30.05 C 18.86 27.11 18.81 24.15 18.81 21.20 C 24.19 21.34 29.83 21.39 34.69 18.72 M 21.17 23.35 C 21.19 29.35 20.96 35.34 21.27 41.33 C 22.43 37.57 23.30 33.73 24.20 29.90 C 28.57 33.48 32.56 37.51 36.95 41.07 C 38.72 42.65 41.22 42.45 43.41 42.74 C 38.94 36.16 31.88 32.10 26.32 26.56 C 30.97 25.50 35.66 24.71 40.27 23.51 C 33.91 23.17 27.54 23.44 21.17 23.35 M 58.75 23.52 C 63.41 24.70 68.15 25.49 72.84 26.57 C 67.79 31.10 62.62 35.50 57.47 39.92 C 57.74 40.78 58.28 42.52 58.55 43.39 C 64.66 39.69 69.51 34.39 74.99 29.88 C 75.88 34.06 77.03 38.18 78.18 42.30 C 78.23 36.01 78.13 29.73 78.26 23.45 C 71.76 23.42 65.25 23.15 58.75 23.52 M 45.70 29.34 C 45.59 34.92 45.53 40.50 45.63 46.09 C 40.01 46.15 34.39 46.20 28.76 46.16 C 28.74 48.85 28.74 51.54 28.73 54.24 C 34.37 54.27 40.01 54.30 45.65 54.26 C 45.55 59.85 45.57 65.45 45.65 71.05 C 48.32 70.99 51.00 70.94 53.67 70.89 C 53.57 65.34 53.61 59.78 53.69 54.23 C 59.26 54.31 64.83 54.28 70.40 54.24 C 70.39 51.54 70.38 48.84 70.36 46.15 C 64.79 46.18 59.23 46.16 53.66 46.15 C 53.61 40.55 53.59 34.96 53.65 29.36 C 51.00 29.37 48.35 29.36 45.70 29.34 M 36.60 59.62 C 32.41 63.15 28.47 66.98 24.23 70.45 C 23.33 66.80 22.48 63.14 21.31 59.57 C 20.95 65.34 21.19 71.13 21.15 76.92 C 27.22 77.04 33.29 77.18 39.35 76.79 C 35.08 75.64 30.73 74.82 26.41 73.88 C 31.88 68.38 38.65 64.22 43.38 58.00 C 41.08 58.24 38.39 57.80 36.60 59.62 M 57.29 57.42 C 58.10 59.54 58.78 61.89 60.67 63.32 C 64.70 66.81 68.88 70.15 72.72 73.85 C 68.38 74.83 64.01 75.64 59.70 76.77 C 65.83 77.17 71.98 77.05 78.12 76.93 C 78.16 71.15 78.30 65.36 77.93 59.58 C 76.75 63.14 75.86 66.79 74.91 70.42 C 69.00 66.16 64.67 59.29 57.29 57.42 Z" />
<path fill="#ffffff" opacity="1.00" d=" M 21.17 23.35 C 27.54 23.44 33.91 23.17 40.27 23.51 C 35.66 24.71 30.97 25.50 26.32 26.56 C 31.88 32.10 38.94 36.16 43.41 42.74 C 41.22 42.45 38.72 42.65 36.95 41.07 C 32.56 37.51 28.57 33.48 24.20 29.90 C 23.30 33.73 22.43 37.57 21.27 41.33 C 20.96 35.34 21.19 29.35 21.17 23.35 Z" />
<path fill="#ffffff" opacity="1.00" d=" M 58.75 23.52 C 65.25 23.15 71.76 23.42 78.26 23.45 C 78.13 29.73 78.23 36.01 78.18 42.30 C 77.03 38.18 75.88 34.06 74.99 29.88 C 69.51 34.39 64.66 39.69 58.55 43.39 C 58.28 42.52 57.74 40.78 57.47 39.92 C 62.62 35.50 67.79 31.10 72.84 26.57 C 68.15 25.49 63.41 24.70 58.75 23.52 Z" />
<path fill="#ffffff" opacity="1.00" d=" M 45.70 29.34 C 48.35 29.36 51.00 29.37 53.65 29.36 C 53.59 34.96 53.61 40.55 53.66 46.15 C 59.23 46.16 64.79 46.18 70.36 46.15 C 70.38 48.84 70.39 51.54 70.40 54.24 C 64.83 54.28 59.26 54.31 53.69 54.23 C 53.61 59.78 53.57 65.34 53.67 70.89 C 51.00 70.94 48.32 70.99 45.65 71.05 C 45.57 65.45 45.55 59.85 45.65 54.26 C 40.01 54.30 34.37 54.27 28.73 54.24 C 28.74 51.54 28.74 48.85 28.76 46.16 C 34.39 46.20 40.01 46.15 45.63 46.09 C 45.53 40.50 45.59 34.92 45.70 29.34 Z" />
<path fill="#ffffff" opacity="1.00" d=" M 36.60 59.62 C 38.39 57.80 41.08 58.24 43.38 58.00 C 38.65 64.22 31.88 68.38 26.41 73.88 C 30.73 74.82 35.08 75.64 39.35 76.79 C 33.29 77.18 27.22 77.04 21.15 76.92 C 21.19 71.13 20.95 65.34 21.31 59.57 C 22.48 63.14 23.33 66.80 24.23 70.45 C 28.47 66.98 32.41 63.15 36.60 59.62 Z" />
<path fill="#ffffff" opacity="1.00" d=" M 57.29 57.42 C 64.67 59.29 69.00 66.16 74.91 70.42 C 75.86 66.79 76.75 63.14 77.93 59.58 C 78.30 65.36 78.16 71.15 78.12 76.93 C 71.98 77.05 65.83 77.17 59.70 76.77 C 64.01 75.64 68.38 74.83 72.72 73.85 C 68.88 70.15 64.70 66.81 60.67 63.32 C 58.78 61.89 58.10 59.54 57.29 57.42 Z" />
</svg>
