<?xml version="1.0" encoding="UTF-8" ?>
<!DOCTYPE svg PUBLIC "-//W3C//DTD SVG 1.1//EN" "http://www.w3.org/Graphics/SVG/1.1/DTD/svg11.dtd">
<svg width="100pt" height="100pt" viewBox="0 0 100 100" version="1.1" xmlns="http://www.w3.org/2000/svg">
<path fill="#b8b8b9" opacity="1.00" d=" M 9.36 41.67 C 23.11 32.85 36.68 23.74 50.26 14.65 C 64.06 23.60 77.77 32.68 91.40 41.88 C 85.90 56.38 80.94 71.08 75.63 85.65 C 58.84 85.69 42.05 85.64 25.26 85.68 C 19.83 71.06 14.89 56.26 9.36 41.67 M 14.24 42.92 C 18.94 55.66 23.25 68.53 28.09 81.22 C 42.99 81.59 57.92 81.55 72.82 81.07 C 77.54 68.42 82.03 55.68 86.46 42.92 C 80.94 38.52 74.82 34.98 69.00 31.01 C 62.74 26.97 56.74 22.52 50.22 18.90 C 38.21 26.88 25.99 34.57 14.24 42.92 Z" />
<path fill="#d45b19" opacity="1.00" d=" M 14.24 42.92 C 25.99 34.57 38.21 26.88 50.22 18.90 C 56.74 22.52 62.74 26.97 69.00 31.01 C 74.82 34.98 80.94 38.52 86.46 42.92 C 82.03 55.68 77.54 68.42 72.82 81.07 C 57.92 81.55 42.99 81.59 28.09 81.22 C 23.25 68.53 18.94 55.66 14.24 42.92 M 39.35 53.78 C 40.37 60.73 47.87 65.58 54.64 63.65 C 60.63 62.34 63.06 55.48 62.51 49.97 C 62.37 46.19 59.46 43.47 57.42 40.57 C 54.40 36.72 52.53 32.16 50.66 27.68 C 44.41 34.80 37.72 43.73 39.35 53.78 M 54.14 29.97 C 57.50 33.53 63.08 31.07 67.38 31.27 C 63.21 29.44 58.59 29.30 54.14 29.97 M 16.99 44.97 C 17.41 46.64 17.83 48.31 18.25 49.98 C 22.24 46.35 26.16 42.51 30.96 39.95 C 35.59 37.28 41.47 36.19 44.41 31.28 C 34.25 33.18 24.43 37.70 16.99 44.97 M 57.57 37.15 C 63.13 38.91 69.31 38.49 74.51 41.36 C 77.72 43.13 80.83 46.20 80.76 50.12 C 80.95 54.74 77.81 58.61 74.50 61.47 C 67.18 67.69 57.51 70.63 48.03 71.17 C 41.67 71.33 34.77 70.42 29.62 66.38 C 26.16 63.74 24.83 58.76 26.76 54.80 C 29.19 48.71 36.09 46.34 39.12 40.66 C 31.87 43.01 24.91 48.27 22.75 55.85 C 21.08 61.84 24.82 68.15 30.19 70.80 C 38.40 75.03 48.25 74.36 56.91 71.94 C 65.29 69.42 73.70 65.20 78.94 57.96 C 81.92 53.95 82.72 47.80 79.06 43.93 C 73.63 38.23 65.17 36.55 57.57 37.15 M 60.70 41.16 C 63.94 43.81 68.16 45.01 71.22 47.89 C 74.27 51.33 71.80 56.26 68.81 58.81 C 63.06 63.71 55.66 66.95 48.03 66.92 C 42.34 67.03 35.64 66.82 31.49 62.35 C 28.65 59.10 31.56 54.95 32.58 51.57 C 31.03 54.19 28.71 57.07 29.78 60.31 C 31.01 64.51 35.56 66.34 39.44 67.29 C 50.07 69.47 62.03 67.56 70.56 60.54 C 74.18 57.55 76.80 52.16 74.27 47.68 C 71.61 42.88 65.74 41.56 60.70 41.16 M 67.38 73.35 C 54.84 78.25 40.69 79.38 27.71 75.50 C 28.21 76.96 28.71 78.42 29.20 79.89 C 40.56 79.78 52.49 81.74 63.30 77.30 C 67.78 75.67 72.33 73.78 75.73 70.31 C 72.89 71.16 70.14 72.27 67.38 73.35 Z" />
<path fill="#ffffff" opacity="1.00" d=" M 39.35 53.78 C 37.72 43.73 44.41 34.80 50.66 27.68 C 52.53 32.16 54.40 36.72 57.42 40.57 C 59.46 43.47 62.37 46.19 62.51 49.97 C 63.06 55.48 60.63 62.34 54.64 63.65 C 47.87 65.58 40.37 60.73 39.35 53.78 M 51.96 54.86 C 52.16 57.47 54.90 58.27 56.81 59.35 C 58.35 56.80 60.14 53.08 57.24 50.73 C 54.59 48.26 51.11 51.97 51.96 54.86 Z" />
<path fill="#ffffff" opacity="1.00" d=" M 54.14 29.97 C 58.59 29.30 63.21 29.44 67.38 31.27 C 63.08 31.07 57.50 33.53 54.14 29.97 Z" />
<path fill="#ffffff" opacity="1.00" d=" M 16.99 44.97 C 24.43 37.70 34.25 33.18 44.41 31.28 C 41.47 36.19 35.59 37.28 30.96 39.95 C 26.16 42.51 22.24 46.35 18.25 49.98 C 17.83 48.31 17.41 46.64 16.99 44.97 Z" />
<path fill="#ffffff" opacity="1.00" d=" M 57.57 37.15 C 65.17 36.55 73.63 38.23 79.06 43.93 C 82.72 47.80 81.92 53.95 78.94 57.96 C 73.70 65.20 65.29 69.42 56.91 71.94 C 48.25 74.36 38.40 75.03 30.19 70.80 C 24.82 68.15 21.08 61.84 22.75 55.85 C 24.91 48.27 31.87 43.01 39.12 40.66 C 36.09 46.34 29.19 48.71 26.76 54.80 C 24.83 58.76 26.16 63.74 29.62 66.38 C 34.77 70.42 41.67 71.33 48.03 71.17 C 57.51 70.63 67.18 67.69 74.50 61.47 C 77.81 58.61 80.95 54.74 80.76 50.12 C 80.83 46.20 77.72 43.13 74.51 41.36 C 69.31 38.49 63.13 38.91 57.57 37.15 Z" />
<path fill="#ffffff" opacity="1.00" d=" M 60.70 41.16 C 65.74 41.56 71.61 42.88 74.27 47.68 C 76.80 52.16 74.18 57.55 70.56 60.54 C 62.03 67.56 50.07 69.47 39.44 67.29 C 35.56 66.34 31.01 64.51 29.78 60.31 C 28.71 57.07 31.03 54.19 32.58 51.57 C 31.56 54.95 28.65 59.10 31.49 62.35 C 35.64 66.82 42.34 67.03 48.03 66.92 C 55.66 66.95 63.06 63.71 68.81 58.81 C 71.80 56.26 74.27 51.33 71.22 47.89 C 68.16 45.01 63.94 43.81 60.70 41.16 Z" />
<path fill="#d45b19" opacity="1.00" d=" M 51.96 54.86 C 51.11 51.97 54.59 48.26 57.24 50.73 C 60.14 53.08 58.35 56.80 56.81 59.35 C 54.90 58.27 52.16 57.47 51.96 54.86 Z" />
<path fill="#ffffff" opacity="1.00" d=" M 67.38 73.35 C 70.14 72.27 72.89 71.16 75.73 70.31 C 72.33 73.78 67.78 75.67 63.30 77.30 C 52.49 81.74 40.56 79.78 29.20 79.89 C 28.71 78.42 28.21 76.96 27.71 75.50 C 40.69 79.38 54.84 78.25 67.38 73.35 Z" />
</svg>
