<?xml version="1.0" encoding="UTF-8" ?>
<!DOCTYPE svg PUBLIC "-//W3C//DTD SVG 1.1//EN" "http://www.w3.org/Graphics/SVG/1.1/DTD/svg11.dtd">
<svg width="100pt" height="100pt" viewBox="0 0 100 100" version="1.1" xmlns="http://www.w3.org/2000/svg">
<path fill="#c1bcbc" opacity="1.00" d=" M 56.07 19.53 C 61.11 19.63 66.16 19.78 71.20 20.12 C 71.37 23.52 70.76 27.08 71.77 30.37 C 74.01 34.07 78.02 37.07 77.52 41.88 C 81.92 41.82 86.32 41.84 90.73 41.90 C 90.70 48.30 90.70 54.70 90.73 61.10 C 83.83 61.16 76.93 61.21 70.03 61.12 C 68.19 63.89 66.77 67.06 64.21 69.26 C 60.25 71.58 55.47 71.71 51.20 73.27 C 46.11 74.78 41.53 77.83 36.28 78.78 C 30.12 74.36 24.83 68.41 22.10 61.25 C 17.79 61.15 13.48 61.15 9.17 61.11 C 9.17 54.70 9.17 48.29 9.17 41.88 C 14.72 41.85 20.28 41.83 25.83 41.83 C 27.76 37.78 29.00 33.31 31.70 29.68 C 36.45 26.86 41.74 25.06 46.73 22.71 C 49.85 21.09 52.75 24.03 55.55 25.12 C 55.72 23.26 55.89 21.39 56.07 19.53 M 58.02 21.75 C 57.79 23.87 57.56 25.99 57.34 28.11 C 54.57 26.79 51.89 25.12 48.86 24.49 C 45.41 24.88 42.36 26.77 39.19 28.05 C 36.63 29.36 33.49 30.28 32.01 32.96 C 29.99 36.53 28.57 40.41 26.91 44.15 C 21.71 44.27 16.51 44.36 11.31 44.29 C 11.30 48.82 11.30 53.34 11.31 57.87 C 15.58 58.00 19.86 58.12 24.13 58.27 C 24.93 63.44 27.34 68.26 31.08 71.93 C 32.73 73.46 34.58 75.89 37.14 75.10 C 43.76 73.55 50.23 71.43 56.83 69.80 C 63.09 68.46 65.24 61.49 70.37 58.46 C 76.41 57.55 82.57 58.32 88.66 57.92 C 88.65 53.39 88.64 48.85 88.65 44.32 C 84.01 44.31 79.37 44.26 74.73 44.21 C 74.78 42.26 74.99 40.29 74.66 38.36 C 73.43 35.52 71.03 33.35 69.87 30.47 C 69.09 27.74 69.15 24.87 68.92 22.06 C 65.29 21.96 61.66 21.85 58.02 21.75 Z" />
<path fill="#277373" opacity="1.00" d=" M 58.02 21.75 C 61.66 21.85 65.29 21.96 68.92 22.06 C 69.15 24.87 69.09 27.74 69.87 30.47 C 71.03 33.35 73.43 35.52 74.66 38.36 C 74.99 40.29 74.78 42.26 74.73 44.21 C 79.37 44.26 84.01 44.31 88.65 44.32 C 88.64 48.85 88.65 53.39 88.66 57.92 C 82.57 58.32 76.41 57.55 70.37 58.46 C 65.24 61.49 63.09 68.46 56.83 69.80 C 50.23 71.43 43.76 73.55 37.14 75.10 C 34.58 75.89 32.73 73.46 31.08 71.93 C 27.34 68.26 24.93 63.44 24.13 58.27 C 19.86 58.12 15.58 58.00 11.31 57.87 C 11.30 53.34 11.30 48.82 11.31 44.29 C 16.51 44.36 21.71 44.27 26.91 44.15 C 28.57 40.41 29.99 36.53 32.01 32.96 C 33.49 30.28 36.63 29.36 39.19 28.05 C 42.36 26.77 45.41 24.88 48.86 24.49 C 51.89 25.12 54.57 26.79 57.34 28.11 C 57.56 25.99 57.79 23.87 58.02 21.75 M 61.22 24.29 C 60.92 26.66 60.64 29.03 60.35 31.40 C 57.88 32.76 55.44 34.17 53.00 35.58 C 58.13 41.58 65.06 46.11 68.49 53.45 C 69.95 48.81 71.60 44.06 71.56 39.15 C 70.52 36.02 67.48 33.93 66.62 30.70 C 66.13 28.59 65.96 26.43 65.69 24.29 C 64.20 24.30 62.71 24.30 61.22 24.29 M 37.91 31.85 C 38.65 33.08 39.39 34.33 40.12 35.57 C 45.98 35.16 52.00 34.63 57.14 31.49 C 54.54 29.82 52.04 27.72 48.95 27.07 C 44.91 27.56 41.47 30.04 37.91 31.85 M 27.51 50.14 C 30.63 52.19 33.58 54.68 37.18 55.84 C 40.72 55.65 43.78 53.36 47.06 52.15 C 44.13 54.52 41.03 56.67 37.91 58.77 C 35.55 57.18 33.18 55.62 30.77 54.13 C 33.06 58.52 35.54 62.81 38.19 66.99 C 35.64 66.41 33.09 65.82 30.53 65.28 C 32.24 67.70 33.98 70.11 35.71 72.51 C 39.50 70.99 43.41 69.74 47.13 68.05 C 51.00 66.47 52.56 62.13 56.01 60.01 C 59.04 58.51 62.39 57.84 65.60 56.86 C 65.11 53.92 64.84 50.64 62.45 48.53 C 58.54 44.75 55.14 40.36 50.72 37.18 C 46.95 36.37 43.06 37.11 39.25 37.23 C 38.08 35.59 36.91 33.95 35.71 32.32 C 32.67 38.12 30.12 44.14 27.51 50.14 M 27.80 52.26 C 27.65 55.71 27.71 59.17 27.96 62.62 C 29.83 62.93 31.71 63.23 33.59 63.52 C 31.93 59.64 30.12 55.80 27.80 52.26 M 56.09 62.10 C 54.56 63.42 53.52 65.19 52.36 66.83 C 54.53 66.25 56.83 65.92 58.80 64.78 C 60.42 63.46 61.45 61.59 62.64 59.89 C 60.43 60.51 58.06 60.85 56.09 62.10 Z" />
<path fill="#ffffff" opacity="1.00" d=" M 61.22 24.29 C 62.71 24.30 64.20 24.30 65.69 24.29 C 65.96 26.43 66.13 28.59 66.62 30.70 C 67.48 33.93 70.52 36.02 71.56 39.15 C 71.60 44.06 69.95 48.81 68.49 53.45 C 65.06 46.11 58.13 41.58 53.00 35.58 C 55.44 34.17 57.88 32.76 60.35 31.40 C 60.64 29.03 60.92 26.66 61.22 24.29 Z" />
<path fill="#ffffff" opacity="1.00" d=" M 37.91 31.85 C 41.47 30.04 44.91 27.56 48.95 27.07 C 52.04 27.72 54.54 29.82 57.14 31.49 C 52.00 34.63 45.98 35.16 40.12 35.57 C 39.39 34.33 38.65 33.08 37.91 31.85 Z" />
<path fill="#ffffff" opacity="1.00" d=" M 27.51 50.14 C 30.12 44.14 32.67 38.12 35.71 32.32 C 36.91 33.95 38.08 35.59 39.25 37.23 C 43.06 37.11 46.95 36.37 50.72 37.18 C 55.14 40.36 58.54 44.75 62.45 48.53 C 64.84 50.64 65.11 53.92 65.60 56.86 C 62.39 57.84 59.04 58.51 56.01 60.01 C 52.56 62.13 51.00 66.47 47.13 68.05 C 43.41 69.74 39.50 70.99 35.71 72.51 C 33.98 70.11 32.24 67.70 30.53 65.28 C 33.09 65.82 35.64 66.41 38.19 66.99 C 35.54 62.81 33.06 58.52 30.77 54.13 C 33.18 55.62 35.55 57.18 37.91 58.77 C 41.03 56.67 44.13 54.52 47.06 52.15 C 43.78 53.36 40.72 55.65 37.18 55.84 C 33.58 54.68 30.63 52.19 27.51 50.14 Z" />
<path fill="#ffffff" opacity="1.00" d=" M 27.80 52.26 C 30.12 55.80 31.93 59.64 33.59 63.52 C 31.71 63.23 29.83 62.93 27.96 62.62 C 27.71 59.17 27.65 55.71 27.80 52.26 Z" />
<path fill="#ffffff" opacity="1.00" d=" M 56.09 62.10 C 58.06 60.85 60.43 60.51 62.64 59.89 C 61.45 61.59 60.42 63.46 58.80 64.78 C 56.83 65.92 54.53 66.25 52.36 66.83 C 53.52 65.19 54.56 63.42 56.09 62.10 Z" />
</svg>
