<?xml version="1.0" encoding="UTF-8" ?>
<!DOCTYPE svg PUBLIC "-//W3C//DTD SVG 1.1//EN" "http://www.w3.org/Graphics/SVG/1.1/DTD/svg11.dtd">
<svg width="100pt" height="100pt" viewBox="0 0 100 100" version="1.1" xmlns="http://www.w3.org/2000/svg">
<path fill="#ffffff" opacity="1.00" d=" M 39.44 12.61 C 42.91 11.84 46.50 11.29 50.04 11.86 C 59.68 13.71 70.00 14.12 78.52 19.53 C 84.31 23.40 89.70 29.04 90.55 36.25 C 91.43 41.43 89.61 46.55 87.00 50.96 C 83.85 55.86 83.96 62.02 81.10 67.08 C 73.19 83.52 52.31 92.63 35.05 86.19 C 16.46 80.53 4.41 58.92 10.15 40.22 C 13.62 26.41 25.49 15.33 39.44 12.61 M 42.40 15.61 C 25.29 17.47 11.46 33.81 12.30 50.98 C 12.44 68.10 27.02 83.55 44.13 84.60 C 59.89 86.22 75.85 75.44 80.06 60.14 C 81.26 54.08 86.32 49.90 87.99 44.05 C 89.49 39.11 88.71 33.49 85.76 29.22 C 82.12 24.09 76.87 20.12 70.89 18.13 C 61.83 14.61 51.91 15.13 42.40 15.61 Z" />
<path fill="#482b46" opacity="1.00" d=" M 42.40 15.61 C 51.91 15.13 61.83 14.61 70.89 18.13 C 76.87 20.12 82.12 24.09 85.76 29.22 C 88.71 33.49 89.49 39.11 87.99 44.05 C 86.32 49.90 81.26 54.08 80.06 60.14 C 75.85 75.44 59.89 86.22 44.13 84.60 C 27.02 83.55 12.44 68.10 12.30 50.98 C 11.46 33.81 25.29 17.47 42.40 15.61 M 51.40 17.52 C 51.39 17.70 51.37 18.07 51.37 18.25 C 61.42 18.22 71.92 21.63 79.05 28.93 C 77.31 27.90 75.60 26.81 73.92 25.69 C 73.69 27.57 73.74 29.96 71.41 30.40 C 66.55 31.86 63.17 35.85 58.57 37.78 C 54.70 39.63 52.05 43.14 49.15 46.17 C 51.52 47.02 55.50 47.45 55.44 50.75 C 54.70 53.07 53.22 55.07 52.04 57.18 C 57.74 56.63 63.48 55.42 68.45 52.47 C 73.46 49.78 77.19 45.41 81.49 41.81 C 77.55 48.99 70.56 54.03 63.19 57.26 C 57.34 59.92 50.84 60.06 44.65 61.36 C 48.10 64.28 52.79 64.45 57.07 63.92 C 63.38 63.49 68.84 60.10 74.30 57.26 C 80.82 53.54 85.98 46.67 86.29 39.00 C 86.34 32.43 81.62 27.01 76.42 23.56 C 68.98 18.94 60.07 17.26 51.40 17.52 M 30.89 23.48 C 40.11 21.38 49.84 20.39 59.10 22.81 C 63.66 24.04 67.03 27.64 71.39 29.33 C 69.84 24.97 65.17 23.22 61.15 21.88 C 51.22 19.18 40.58 20.32 30.89 23.48 M 28.90 27.70 C 35.35 26.85 41.88 25.59 48.38 26.76 C 51.82 27.09 56.21 28.62 58.59 25.16 C 48.79 22.52 38.11 23.41 28.90 27.70 M 53.11 29.27 C 53.82 30.56 54.53 31.85 55.24 33.14 C 50.02 38.51 45.26 45.50 37.28 46.67 C 39.54 48.34 41.80 50.02 44.05 51.71 C 48.81 42.89 57.34 36.97 62.31 28.27 C 59.25 28.66 56.18 29.02 53.11 29.27 M 61.39 32.07 C 60.96 33.49 61.44 33.96 62.84 33.50 C 63.26 32.08 62.78 31.60 61.39 32.07 M 33.46 53.49 C 28.23 57.61 24.49 63.25 19.32 67.44 C 19.93 68.64 20.54 69.84 21.14 71.05 C 24.71 67.67 28.13 64.13 31.82 60.88 C 35.00 57.71 37.77 54.13 41.08 51.08 C 40.28 50.48 39.47 49.87 38.67 49.27 C 36.92 50.67 35.18 52.06 33.46 53.49 Z" />
<path fill="#ffffff" opacity="1.00" d=" M 51.40 17.52 C 60.07 17.26 68.98 18.94 76.42 23.56 C 81.62 27.01 86.34 32.43 86.29 39.00 C 85.98 46.67 80.82 53.54 74.30 57.26 C 68.84 60.10 63.38 63.49 57.07 63.92 C 52.79 64.45 48.10 64.28 44.65 61.36 C 50.84 60.06 57.34 59.92 63.19 57.26 C 70.56 54.03 77.55 48.99 81.49 41.81 C 77.19 45.41 73.46 49.78 68.45 52.47 C 63.48 55.42 57.74 56.63 52.04 57.18 C 53.22 55.07 54.70 53.07 55.44 50.75 C 55.50 47.45 51.52 47.02 49.15 46.17 C 52.05 43.14 54.70 39.63 58.57 37.78 C 63.17 35.85 66.55 31.86 71.41 30.40 C 73.74 29.96 73.69 27.57 73.92 25.69 C 75.60 26.81 77.31 27.90 79.05 28.93 C 71.92 21.63 61.42 18.22 51.37 18.25 C 51.37 18.07 51.39 17.70 51.40 17.52 Z" />
<path fill="#ffffff" opacity="1.00" d=" M 30.89 23.48 C 40.58 20.32 51.22 19.18 61.15 21.88 C 65.17 23.22 69.84 24.97 71.39 29.33 C 67.03 27.64 63.66 24.04 59.10 22.81 C 49.84 20.39 40.11 21.38 30.89 23.48 Z" />
<path fill="#ffffff" opacity="1.00" d=" M 28.90 27.70 C 38.11 23.41 48.79 22.52 58.59 25.16 C 56.21 28.62 51.82 27.09 48.38 26.76 C 41.88 25.59 35.35 26.85 28.90 27.70 Z" />
<path fill="#ffffff" opacity="1.00" d=" M 53.11 29.27 C 56.18 29.02 59.25 28.66 62.31 28.27 C 57.34 36.97 48.81 42.89 44.05 51.71 C 41.80 50.02 39.54 48.34 37.28 46.67 C 45.26 45.50 50.02 38.51 55.24 33.14 C 54.53 31.85 53.82 30.56 53.11 29.27 Z" />
<path fill="#fcf8fc" opacity="1.00" d=" M 61.39 32.07 C 62.78 31.60 63.26 32.08 62.84 33.50 C 61.44 33.96 60.96 33.49 61.39 32.07 Z" />
<path fill="#ffffff" opacity="1.00" d=" M 33.46 53.49 C 35.18 52.06 36.92 50.67 38.67 49.27 C 39.47 49.87 40.28 50.48 41.08 51.08 C 37.77 54.13 35.00 57.71 31.82 60.88 C 28.13 64.13 24.71 67.67 21.14 71.05 C 20.54 69.84 19.93 68.64 19.32 67.44 C 24.49 63.25 28.23 57.61 33.46 53.49 Z" />
</svg>
