<?xml version="1.0" encoding="UTF-8" ?>
<!DOCTYPE svg PUBLIC "-//W3C//DTD SVG 1.1//EN" "http://www.w3.org/Graphics/SVG/1.1/DTD/svg11.dtd">
<svg width="100pt" height="100pt" viewBox="0 0 100 100" version="1.1" xmlns="http://www.w3.org/2000/svg">
<path fill="#bab9b9" opacity="1.00" d=" M 37.69 33.68 C 42.49 30.01 46.26 25.33 49.42 20.21 C 52.19 23.82 54.45 27.99 58.27 30.63 C 60.41 32.12 62.12 34.12 64.11 35.79 C 67.07 37.54 71.32 37.44 73.27 40.69 C 76.31 45.14 74.80 50.72 75.33 55.71 C 76.03 57.52 77.24 59.06 78.34 60.64 C 82.99 66.94 87.50 73.36 92.05 79.73 C 84.67 79.78 77.29 79.62 69.91 79.71 C 66.01 79.40 63.39 82.74 59.98 83.97 C 55.08 85.64 49.70 87.45 44.62 85.42 C 39.70 84.43 35.57 81.44 30.96 79.74 C 23.28 79.09 15.54 79.70 7.84 79.49 C 13.19 71.70 18.94 64.16 24.02 56.20 C 25.25 51.49 23.09 46.15 25.68 41.66 C 27.89 36.64 34.64 37.83 37.69 33.68 M 49.36 26.11 C 45.95 30.12 41.92 33.54 37.64 36.59 C 34.76 38.64 31.17 39.36 28.33 41.44 C 23.51 47.03 29.72 55.24 24.88 60.80 C 21.13 66.02 17.29 71.18 13.90 76.65 C 18.96 76.70 24.03 76.38 29.09 76.64 C 32.60 76.62 35.28 79.14 38.17 80.75 C 45.39 85.10 55.30 85.30 62.21 80.24 C 64.34 78.88 66.32 76.93 68.96 76.72 C 74.68 76.28 80.43 76.76 86.16 76.64 C 82.61 71.00 78.48 65.77 74.57 60.39 C 70.15 54.95 75.73 47.18 71.43 41.63 C 68.73 39.36 65.00 38.84 62.16 36.75 C 57.70 33.45 53.13 30.22 49.36 26.11 Z" />
<path fill="#217a7a" opacity="1.00" d=" M 49.36 26.11 C 53.13 30.22 57.70 33.45 62.16 36.75 C 65.00 38.84 68.73 39.36 71.43 41.63 C 75.73 47.18 70.15 54.95 74.57 60.39 C 78.48 65.77 82.61 71.00 86.16 76.64 C 80.43 76.76 74.68 76.28 68.96 76.72 C 66.32 76.93 64.34 78.88 62.21 80.24 C 55.30 85.30 45.39 85.10 38.17 80.75 C 35.28 79.14 32.60 76.62 29.09 76.64 C 24.03 76.38 18.96 76.70 13.90 76.65 C 17.29 71.18 21.13 66.02 24.88 60.80 C 29.72 55.24 23.51 47.03 28.33 41.44 C 31.17 39.36 34.76 38.64 37.64 36.59 C 41.92 33.54 45.95 30.12 49.36 26.11 M 39.51 38.64 C 37.09 41.35 33.16 41.44 30.13 43.13 C 28.13 46.22 28.40 50.25 29.21 53.69 C 30.19 57.60 33.73 59.99 35.62 63.38 C 36.99 67.97 36.50 72.87 36.55 77.61 C 41.74 79.77 47.30 82.48 53.07 81.25 C 56.28 80.52 60.00 79.94 62.20 77.24 C 63.92 72.90 62.81 68.06 63.83 63.59 C 65.62 59.96 69.54 57.59 70.38 53.43 C 71.03 50.18 71.31 46.48 69.60 43.50 C 68.01 41.98 65.59 41.82 63.63 40.95 C 60.36 40.04 58.75 36.75 56.03 35.01 C 52.57 33.86 48.78 34.05 45.22 34.51 C 42.64 34.69 41.23 37.06 39.51 38.64 Z" />
<path fill="#ffffff" opacity="1.00" d=" M 39.51 38.64 C 41.23 37.06 42.64 34.69 45.22 34.51 C 48.78 34.05 52.57 33.86 56.03 35.01 C 58.75 36.75 60.36 40.04 63.63 40.95 C 65.59 41.82 68.01 41.98 69.60 43.50 C 71.31 46.48 71.03 50.18 70.38 53.43 C 69.54 57.59 65.62 59.96 63.83 63.59 C 62.81 68.06 63.92 72.90 62.20 77.24 C 60.00 79.94 56.28 80.52 53.07 81.25 C 47.30 82.48 41.74 79.77 36.55 77.61 C 36.50 72.87 36.99 67.97 35.62 63.38 C 33.73 59.99 30.19 57.60 29.21 53.69 C 28.40 50.25 28.13 46.22 30.13 43.13 C 33.16 41.44 37.09 41.35 39.51 38.64 M 44.03 36.87 C 45.55 38.85 47.10 41.73 49.99 41.63 C 52.60 41.34 54.08 38.79 55.70 37.03 C 51.83 36.52 47.91 36.50 44.03 36.87 M 66.34 43.49 C 65.85 46.06 65.45 48.66 65.15 51.26 C 65.96 51.39 67.59 51.64 68.40 51.77 C 67.84 48.98 67.20 46.20 66.34 43.49 M 31.88 52.75 C 34.50 50.21 34.47 46.79 33.06 43.63 C 31.89 46.53 31.52 49.64 31.88 52.75 M 57.32 49.29 C 53.38 52.22 50.71 56.53 46.72 59.39 C 45.20 59.99 43.48 59.44 41.90 59.46 C 42.90 60.75 43.90 62.04 44.91 63.32 C 42.91 64.79 40.88 66.23 38.84 67.65 C 39.99 68.76 41.13 69.86 42.29 70.96 C 43.56 69.00 44.86 67.05 46.18 65.13 C 47.83 66.06 49.48 66.99 51.16 67.88 C 50.56 66.54 49.93 65.21 49.31 63.88 C 53.95 59.00 59.61 54.83 62.57 48.61 C 60.84 48.75 58.83 48.18 57.32 49.29 Z" />
<path fill="#227a7a" opacity="1.00" d=" M 44.03 36.87 C 47.91 36.50 51.83 36.52 55.70 37.03 C 54.08 38.79 52.60 41.34 49.99 41.63 C 47.10 41.73 45.55 38.85 44.03 36.87 Z" />
<path fill="#006161" opacity="1.00" d=" M 66.34 43.49 C 67.20 46.20 67.84 48.98 68.40 51.77 C 67.59 51.64 65.96 51.39 65.15 51.26 C 65.45 48.66 65.85 46.06 66.34 43.49 Z" />
<path fill="#177070" opacity="1.00" d=" M 31.88 52.75 C 31.52 49.64 31.89 46.53 33.06 43.63 C 34.47 46.79 34.50 50.21 31.88 52.75 Z" />
<path fill="#237b7b" opacity="1.00" d=" M 57.32 49.29 C 58.83 48.18 60.84 48.75 62.57 48.61 C 59.61 54.83 53.95 59.00 49.31 63.88 C 49.93 65.21 50.56 66.54 51.16 67.88 C 49.48 66.99 47.83 66.06 46.18 65.13 C 44.86 67.05 43.56 69.00 42.29 70.96 C 41.13 69.86 39.99 68.76 38.84 67.65 C 40.88 66.23 42.91 64.79 44.91 63.32 C 43.90 62.04 42.90 60.75 41.90 59.46 C 43.48 59.44 45.20 59.99 46.72 59.39 C 50.71 56.53 53.38 52.22 57.32 49.29 Z" />
</svg>
