<?xml version="1.0" encoding="UTF-8" ?>
<!DOCTYPE svg PUBLIC "-//W3C//DTD SVG 1.1//EN" "http://www.w3.org/Graphics/SVG/1.1/DTD/svg11.dtd">
<svg width="100pt" height="100pt" viewBox="0 0 100 100" version="1.1" xmlns="http://www.w3.org/2000/svg">
<path fill="#c1bac3" opacity="1.00" d=" M 37.82 21.70 C 42.29 20.10 46.20 17.39 50.02 14.63 C 54.25 17.61 58.46 20.73 63.27 22.74 C 67.28 24.45 71.00 26.82 74.08 29.91 C 78.64 34.54 84.28 37.83 89.66 41.39 C 87.45 48.97 88.41 56.99 86.96 64.68 C 85.81 66.85 83.37 67.95 81.78 69.78 C 77.95 74.05 76.61 79.80 74.78 85.08 C 70.86 85.26 66.84 84.98 63.04 86.18 C 59.11 87.31 55.15 88.63 51.02 88.61 C 46.53 88.75 42.25 87.28 38.00 86.07 C 33.85 84.86 29.48 85.32 25.22 85.12 C 23.45 79.90 21.85 74.59 19.44 69.61 C 14.85 60.78 13.93 50.68 10.12 41.54 C 14.40 38.79 18.83 36.11 22.34 32.36 C 26.70 27.79 31.87 23.91 37.82 21.70 M 31.30 27.23 C 24.68 31.46 20.62 38.51 14.24 43.04 C 15.74 48.13 16.14 53.44 17.31 58.60 C 19.22 67.10 25.08 73.89 27.96 82.01 C 35.92 82.10 43.02 86.72 51.01 86.44 C 58.27 86.48 64.78 82.79 71.88 81.85 C 74.64 76.53 77.55 71.12 81.96 66.96 C 83.36 65.48 85.26 64.09 85.45 61.89 C 86.29 55.53 86.45 48.93 85.08 42.64 C 82.54 39.93 79.06 38.29 76.58 35.50 C 73.19 31.84 69.80 27.95 65.16 25.84 C 60.12 23.56 54.79 21.88 50.07 18.91 C 44.09 22.32 37.00 23.29 31.30 27.23 Z" />
<path fill="#26960f" opacity="1.00" d=" M 31.30 27.23 C 37.00 23.29 44.09 22.32 50.07 18.91 C 54.79 21.88 60.12 23.56 65.16 25.84 C 69.80 27.95 73.19 31.84 76.58 35.50 C 79.06 38.29 82.54 39.93 85.08 42.64 C 86.45 48.93 86.29 55.53 85.45 61.89 C 85.26 64.09 83.36 65.48 81.96 66.96 C 77.55 71.12 74.64 76.53 71.88 81.85 C 64.78 82.79 58.27 86.48 51.01 86.44 C 43.02 86.72 35.92 82.10 27.96 82.01 C 25.08 73.89 19.22 67.10 17.31 58.60 C 16.14 53.44 15.74 48.13 14.24 43.04 C 20.62 38.51 24.68 31.46 31.30 27.23 M 44.39 24.54 C 36.73 25.63 30.20 30.46 25.03 35.97 C 20.59 40.78 17.75 47.40 18.78 54.02 C 20.35 63.83 25.23 73.65 33.79 79.13 C 43.12 84.92 55.61 85.70 65.31 80.34 C 70.25 77.83 74.14 73.68 76.72 68.81 C 78.30 65.45 82.91 64.06 83.07 60.03 C 83.45 56.74 83.89 53.39 83.45 50.09 C 82.36 47.80 79.98 46.47 78.17 44.78 C 75.47 42.73 73.12 40.04 69.90 38.80 C 66.78 38.33 63.43 38.29 60.44 39.40 C 57.02 41.07 54.09 43.56 51.02 45.77 C 56.81 44.88 62.84 43.61 68.60 45.29 C 71.03 47.00 72.59 49.64 74.31 52.00 C 70.11 50.01 65.90 47.17 61.01 47.66 C 52.09 48.74 43.15 51.44 35.91 56.92 C 40.09 55.63 44.14 53.44 48.62 53.43 C 51.27 54.87 52.53 58.69 56.00 58.55 C 60.94 59.53 64.99 56.12 68.98 53.84 C 70.63 54.68 72.29 55.52 73.93 56.37 C 73.20 60.21 71.99 64.03 69.05 66.77 C 71.54 67.30 73.99 67.97 76.47 68.50 C 71.74 74.65 65.58 80.15 57.98 82.30 C 51.55 82.82 45.04 81.76 38.80 80.19 C 32.52 78.67 27.68 73.73 24.83 68.11 C 22.06 62.52 19.26 56.41 20.25 50.01 C 20.57 44.40 24.34 39.88 28.08 36.04 C 31.16 32.74 34.30 28.99 38.92 27.92 C 47.22 25.83 56.59 25.35 64.31 29.64 C 70.14 32.76 73.51 38.70 78.12 43.21 C 72.73 30.28 58.17 22.39 44.39 24.54 M 40.66 35.44 C 37.67 36.29 35.06 37.99 33.43 40.68 C 35.72 40.67 38.01 40.53 40.29 40.46 C 36.06 42.26 31.88 44.20 27.98 46.65 C 34.02 44.98 41.34 45.90 46.06 41.02 C 48.64 37.51 47.75 32.86 46.92 28.90 C 45.14 31.32 43.83 34.57 40.66 35.44 M 28.96 62.98 C 32.35 64.83 35.98 66.46 38.61 69.39 C 40.62 71.69 43.59 72.61 46.25 73.89 C 49.03 75.05 50.38 77.92 52.08 80.20 C 52.99 76.23 56.59 71.46 53.25 67.76 C 50.25 63.35 44.50 63.48 39.78 64.01 C 43.37 65.56 47.11 67.06 49.85 69.97 C 42.91 67.57 36.27 64.22 28.96 62.98 Z" />
<path fill="#ffffff" opacity="1.00" d=" M 44.39 24.54 C 58.17 22.39 72.73 30.28 78.12 43.21 C 73.51 38.70 70.14 32.76 64.31 29.64 C 56.59 25.35 47.22 25.83 38.92 27.92 C 34.30 28.99 31.16 32.74 28.08 36.04 C 24.34 39.88 20.57 44.40 20.25 50.01 C 19.26 56.41 22.06 62.52 24.83 68.11 C 27.68 73.73 32.52 78.67 38.80 80.19 C 45.04 81.76 51.55 82.82 57.98 82.30 C 65.58 80.15 71.74 74.65 76.47 68.50 C 73.99 67.97 71.54 67.30 69.05 66.77 C 71.99 64.03 73.20 60.21 73.93 56.37 C 72.29 55.52 70.63 54.68 68.98 53.84 C 64.99 56.12 60.94 59.53 56.00 58.55 C 52.53 58.69 51.27 54.87 48.62 53.43 C 44.14 53.44 40.09 55.63 35.91 56.92 C 43.15 51.44 52.09 48.74 61.01 47.66 C 65.90 47.17 70.11 50.01 74.31 52.00 C 72.59 49.64 71.03 47.00 68.60 45.29 C 62.84 43.61 56.81 44.88 51.02 45.77 C 54.09 43.56 57.02 41.07 60.44 39.40 C 63.43 38.29 66.78 38.33 69.90 38.80 C 73.12 40.04 75.47 42.73 78.17 44.78 C 79.98 46.47 82.36 47.80 83.45 50.09 C 83.89 53.39 83.45 56.74 83.07 60.03 C 82.91 64.06 78.30 65.45 76.72 68.81 C 74.14 73.68 70.25 77.83 65.31 80.34 C 55.61 85.70 43.12 84.92 33.79 79.13 C 25.23 73.65 20.35 63.83 18.78 54.02 C 17.75 47.40 20.59 40.78 25.03 35.97 C 30.20 30.46 36.73 25.63 44.39 24.54 Z" />
<path fill="#ffffff" opacity="1.00" d=" M 40.66 35.44 C 43.83 34.57 45.14 31.32 46.92 28.90 C 47.75 32.86 48.64 37.51 46.06 41.02 C 41.34 45.90 34.02 44.98 27.98 46.65 C 31.88 44.20 36.06 42.26 40.29 40.46 C 38.01 40.53 35.72 40.67 33.43 40.68 C 35.06 37.99 37.67 36.29 40.66 35.44 Z" />
<path fill="#ffffff" opacity="1.00" d=" M 28.96 62.98 C 36.27 64.22 42.91 67.57 49.85 69.97 C 47.11 67.06 43.37 65.56 39.78 64.01 C 44.50 63.48 50.25 63.35 53.25 67.76 C 56.59 71.46 52.99 76.23 52.08 80.20 C 50.38 77.92 49.03 75.05 46.25 73.89 C 43.59 72.61 40.62 71.69 38.61 69.39 C 35.98 66.46 32.35 64.83 28.96 62.98 Z" />
</svg>
