<?xml version="1.0" encoding="UTF-8" ?>
<!DOCTYPE svg PUBLIC "-//W3C//DTD SVG 1.1//EN" "http://www.w3.org/Graphics/SVG/1.1/DTD/svg11.dtd">
<svg width="100pt" height="100pt" viewBox="0 0 100 100" version="1.1" xmlns="http://www.w3.org/2000/svg">
<path fill="#b9bcba" opacity="1.00" d=" M 35.26 6.94 C 38.73 11.78 41.81 16.89 45.26 21.75 C 48.18 21.60 51.10 21.38 54.02 21.62 C 57.02 21.84 59.76 23.27 62.74 23.61 C 65.89 22.33 68.67 20.32 71.65 18.68 C 71.33 20.77 71.01 22.86 70.67 24.95 C 79.59 25.24 88.51 24.85 97.43 25.21 C 94.72 29.40 91.71 33.40 89.00 37.59 C 90.02 38.06 91.03 38.55 92.03 39.07 C 88.53 40.65 84.94 42.50 82.93 45.95 C 80.71 49.55 76.60 53.16 77.87 57.81 C 81.24 61.48 85.53 64.14 89.09 67.63 C 84.18 67.61 79.26 66.86 74.38 67.39 C 72.20 68.85 70.35 70.89 69.15 73.23 C 69.14 78.02 70.77 82.66 71.17 87.43 C 67.52 84.90 64.83 81.19 61.01 78.92 C 56.39 82.17 54.27 87.82 50.70 92.08 C 47.44 88.11 44.62 83.81 41.60 79.66 C 38.14 83.00 35.39 86.97 31.99 90.36 C 32.19 85.25 33.22 80.22 33.57 75.13 C 33.79 73.25 31.33 71.78 29.72 72.74 C 25.38 74.32 21.25 76.46 16.87 77.95 C 19.49 73.10 23.15 68.89 25.70 64.01 C 25.48 63.71 25.05 63.12 24.83 62.82 C 19.77 62.28 14.68 63.03 9.61 62.89 C 12.93 59.61 17.01 57.19 20.24 53.82 C 21.04 51.25 19.65 48.79 18.19 46.78 C 12.99 39.48 7.55 32.34 2.64 24.84 C 13.68 24.53 24.73 24.82 35.78 24.74 C 35.80 18.81 35.37 12.88 35.26 6.94 M 37.32 13.73 C 37.38 17.71 37.46 21.69 37.69 25.66 C 35.26 26.79 32.81 28.17 30.04 28.09 C 23.04 28.16 16.03 27.68 9.02 28.06 C 12.50 33.48 16.57 38.48 20.18 43.80 C 22.43 46.93 22.15 50.93 22.37 54.59 C 20.27 56.14 18.28 57.83 16.46 59.70 C 16.94 59.85 17.91 60.14 18.39 60.29 L 17.32 60.56 C 20.25 61.15 23.25 61.08 26.22 60.92 C 26.62 62.48 28.04 64.28 26.81 65.81 C 25.20 68.55 23.35 71.15 21.76 73.91 C 24.66 72.86 27.45 71.52 30.41 70.66 C 32.41 69.96 33.86 72.09 35.46 72.96 C 35.12 75.58 34.99 78.23 35.35 80.86 L 35.68 79.80 C 35.47 80.95 35.30 82.10 35.16 83.26 C 35.47 82.87 36.10 82.09 36.42 81.70 C 38.80 79.99 40.94 77.96 42.78 75.66 C 45.41 79.20 47.95 82.80 50.73 86.22 C 53.19 83.16 54.79 78.82 58.73 77.38 C 61.22 76.24 63.68 77.99 66.03 78.62 L 65.51 78.08 C 65.62 77.77 65.84 77.16 65.96 76.85 C 66.30 78.39 66.56 79.94 66.82 81.49 C 67.27 81.70 68.17 82.12 68.63 82.34 C 68.13 79.05 67.07 75.76 67.37 72.41 C 68.88 69.76 70.99 67.37 73.53 65.66 C 76.78 65.03 80.11 65.46 83.40 65.45 C 81.04 63.17 78.39 61.17 76.26 58.67 C 75.47 54.33 75.87 49.30 78.77 45.76 C 80.60 43.37 83.62 41.89 84.59 38.91 C 85.88 35.11 88.45 31.98 90.62 28.67 C 83.17 27.82 75.67 28.72 68.20 28.10 C 68.38 26.33 68.56 24.56 68.75 22.79 C 66.80 23.74 64.91 24.89 62.79 25.44 C 59.75 25.19 56.97 23.64 53.91 23.42 C 50.74 23.17 47.56 23.42 44.39 23.59 C 42.26 20.14 39.94 16.82 37.32 13.73 Z" />
<path fill="#8a1b6c" opacity="1.00" d=" M 37.32 13.73 C 39.94 16.82 42.26 20.14 44.39 23.59 C 47.56 23.42 50.74 23.17 53.91 23.42 C 56.97 23.64 59.75 25.19 62.79 25.44 C 64.91 24.89 66.80 23.74 68.75 22.79 C 68.56 24.56 68.38 26.33 68.20 28.10 C 75.67 28.72 83.17 27.82 90.62 28.67 C 88.45 31.98 85.88 35.11 84.59 38.91 C 83.62 41.89 80.60 43.37 78.77 45.76 C 75.87 49.30 75.47 54.33 76.26 58.67 C 78.39 61.17 81.04 63.17 83.40 65.45 C 80.11 65.46 76.78 65.03 73.53 65.66 C 70.99 67.37 68.88 69.76 67.37 72.41 C 67.07 75.76 68.13 79.05 68.63 82.34 C 68.17 82.12 67.27 81.70 66.82 81.49 C 66.56 79.94 66.30 78.39 65.96 76.85 C 65.85 75.12 65.15 73.30 65.70 71.59 C 67.02 69.07 69.06 66.98 71.23 65.17 C 73.25 63.33 76.15 63.78 78.65 63.59 C 76.88 61.86 74.25 60.30 74.29 57.50 C 74.02 53.05 74.57 48.60 74.77 44.15 C 77.24 42.85 79.70 41.53 82.14 40.17 C 79.22 40.12 76.23 40.46 73.38 39.73 C 69.57 36.54 65.92 32.37 65.54 27.18 C 62.68 27.34 59.85 26.85 57.10 26.07 C 52.66 24.80 48.00 25.20 43.47 25.58 C 42.00 23.05 40.56 20.51 39.04 18.01 C 39.13 20.80 39.26 23.58 39.41 26.37 C 35.88 28.44 33.07 31.40 30.24 34.28 C 28.47 36.23 25.70 36.35 23.30 36.91 C 24.07 37.74 24.84 38.58 25.61 39.42 C 23.85 44.70 23.58 50.35 24.57 55.81 C 21.85 57.07 19.14 58.36 16.46 59.70 C 18.28 57.83 20.27 56.14 22.37 54.59 C 22.15 50.93 22.43 46.93 20.18 43.80 C 16.57 38.48 12.50 33.48 9.02 28.06 C 16.03 27.68 23.04 28.16 30.04 28.09 C 32.81 28.17 35.26 26.79 37.69 25.66 C 37.46 21.69 37.38 17.71 37.32 13.73 Z" />
<path fill="#ffffff" opacity="1.00" d=" M 39.04 18.01 C 40.56 20.51 42.00 23.05 43.47 25.58 C 48.00 25.20 52.66 24.80 57.10 26.07 C 59.85 26.85 62.68 27.34 65.54 27.18 C 65.92 32.37 69.57 36.54 73.38 39.73 C 76.23 40.46 79.22 40.12 82.14 40.17 C 79.70 41.53 77.24 42.85 74.77 44.15 C 74.57 48.60 74.02 53.05 74.29 57.50 C 74.25 60.30 76.88 61.86 78.65 63.59 C 76.15 63.78 73.25 63.33 71.23 65.17 C 69.06 66.98 67.02 69.07 65.70 71.59 C 65.15 73.30 65.85 75.12 65.96 76.85 C 65.84 77.16 65.62 77.77 65.51 78.08 C 64.31 77.05 63.35 75.64 61.90 74.97 C 58.04 74.73 53.92 75.39 50.90 77.98 C 48.35 75.26 44.85 74.03 41.20 73.69 C 39.69 76.41 38.19 79.15 36.42 81.70 C 36.10 82.09 35.47 82.87 35.16 83.26 C 35.30 82.10 35.47 80.95 35.68 79.80 C 36.40 77.27 37.06 74.72 37.73 72.17 C 35.98 71.00 34.32 69.69 32.43 68.77 C 30.63 68.48 28.85 69.20 27.10 69.53 C 27.84 67.75 28.71 66.00 29.04 64.09 C 28.66 62.17 27.84 60.38 27.14 58.56 C 24.22 59.11 21.30 59.67 18.39 60.29 C 17.91 60.14 16.94 59.85 16.46 59.70 C 19.14 58.36 21.85 57.07 24.57 55.81 C 23.58 50.35 23.85 44.70 25.61 39.42 C 24.84 38.58 24.07 37.74 23.30 36.91 C 25.70 36.35 28.47 36.23 30.24 34.28 C 33.07 31.40 35.88 28.44 39.41 26.37 C 39.26 23.58 39.13 20.80 39.04 18.01 M 47.36 27.39 C 42.81 28.14 37.61 28.75 34.44 32.48 C 30.88 36.62 26.60 40.69 25.37 46.22 C 24.09 52.03 27.64 57.20 29.61 62.39 C 31.93 68.33 37.90 72.36 44.18 72.88 C 49.22 73.30 54.44 74.50 59.44 73.43 C 64.71 70.60 68.85 66.00 72.77 61.58 C 73.91 56.89 73.81 51.97 74.08 47.17 C 74.34 40.73 68.84 36.34 64.72 32.21 C 60.18 27.73 53.52 26.29 47.36 27.39 Z" />
<path fill="#8a1b6c" opacity="1.00" d=" M 47.36 27.39 C 53.52 26.29 60.18 27.73 64.72 32.21 C 68.84 36.34 74.34 40.73 74.08 47.17 C 73.81 51.97 73.91 56.89 72.77 61.58 C 68.85 66.00 64.71 70.60 59.44 73.43 C 54.44 74.50 49.22 73.30 44.18 72.88 C 37.90 72.36 31.93 68.33 29.61 62.39 C 27.64 57.20 24.09 52.03 25.37 46.22 C 26.60 40.69 30.88 36.62 34.44 32.48 C 37.61 28.75 42.81 28.14 47.36 27.39 M 33.92 46.21 C 33.21 49.64 33.20 53.30 34.09 56.70 C 35.78 58.88 38.69 59.30 41.20 59.94 C 41.73 61.66 42.05 63.49 43.01 65.04 C 44.10 65.70 45.45 64.81 46.62 64.71 C 46.96 65.58 47.30 66.44 47.64 67.30 C 48.20 67.45 49.31 67.75 49.87 67.90 C 49.99 66.67 50.09 65.43 50.19 64.20 C 51.14 65.74 52.34 67.09 53.71 68.26 C 53.94 66.55 54.12 64.83 54.28 63.10 C 54.83 64.38 55.40 65.64 55.95 66.92 C 58.12 65.45 57.69 62.66 57.99 60.41 C 59.04 60.96 60.07 61.55 61.13 62.09 C 63.13 59.68 66.35 57.49 66.12 53.99 C 65.92 49.94 65.62 45.74 63.99 41.98 C 60.53 38.94 56.22 36.65 51.80 35.39 C 44.45 35.56 38.08 40.50 33.92 46.21 Z" />
<path fill="#ffffff" opacity="1.00" d=" M 33.92 46.21 C 38.08 40.50 44.45 35.56 51.80 35.39 C 56.22 36.65 60.53 38.94 63.99 41.98 C 65.62 45.74 65.92 49.94 66.12 53.99 C 66.35 57.49 63.13 59.68 61.13 62.09 C 60.07 61.55 59.04 60.96 57.99 60.41 C 57.69 62.66 58.12 65.45 55.95 66.92 C 55.40 65.64 54.83 64.38 54.28 63.10 C 54.12 64.83 53.94 66.55 53.71 68.26 C 52.34 67.09 51.14 65.74 50.19 64.20 C 50.09 65.43 49.99 66.67 49.87 67.90 C 49.31 67.75 48.20 67.45 47.64 67.30 C 47.30 66.44 46.96 65.58 46.62 64.71 C 45.45 64.81 44.10 65.70 43.01 65.04 C 42.05 63.49 41.73 61.66 41.20 59.94 C 38.69 59.30 35.78 58.88 34.09 56.70 C 33.20 53.30 33.21 49.64 33.92 46.21 M 39.26 47.81 C 39.50 50.46 40.19 53.04 40.76 55.63 C 42.29 55.05 43.82 54.48 45.35 53.91 C 45.21 55.27 45.05 56.62 44.90 57.98 C 45.93 58.44 46.97 58.90 48.01 59.37 C 49.15 56.40 49.90 53.31 50.42 50.18 C 47.44 47.66 44.56 45.02 41.64 42.42 C 40.74 44.14 39.05 45.72 39.26 47.81 M 50.63 50.21 C 51.12 53.43 51.81 56.62 53.03 59.65 C 54.94 58.48 55.15 56.21 55.57 54.23 C 57.26 54.76 58.96 55.24 60.66 55.75 C 61.47 51.34 62.98 46.58 60.33 42.46 C 57.09 45.04 53.94 47.71 50.63 50.21 Z" />
<path fill="#8a1b6c" opacity="1.00" d=" M 39.26 47.81 C 39.05 45.72 40.74 44.14 41.64 42.42 C 44.56 45.02 47.44 47.66 50.42 50.18 C 49.90 53.31 49.15 56.40 48.01 59.37 C 46.97 58.90 45.93 58.44 44.90 57.98 C 45.05 56.62 45.21 55.27 45.35 53.91 C 43.82 54.48 42.29 55.05 40.76 55.63 C 40.19 53.04 39.50 50.46 39.26 47.81 Z" />
<path fill="#8a1b6c" opacity="1.00" d=" M 50.63 50.21 C 53.94 47.71 57.09 45.04 60.33 42.46 C 62.98 46.58 61.47 51.34 60.66 55.75 C 58.96 55.24 57.26 54.76 55.57 54.23 C 55.15 56.21 54.94 58.48 53.03 59.65 C 51.81 56.62 51.12 53.43 50.63 50.21 Z" />
<path fill="#8a1b6c" opacity="1.00" d=" M 18.39 60.29 C 21.30 59.67 24.22 59.11 27.14 58.56 C 27.84 60.38 28.66 62.17 29.04 64.09 C 28.71 66.00 27.84 67.75 27.10 69.53 C 28.85 69.20 30.63 68.48 32.43 68.77 C 34.32 69.69 35.98 71.00 37.73 72.17 C 37.06 74.72 36.40 77.27 35.68 79.80 L 35.35 80.86 C 34.99 78.23 35.12 75.58 35.46 72.96 C 33.86 72.09 32.41 69.96 30.41 70.66 C 27.45 71.52 24.66 72.86 21.76 73.91 C 23.35 71.15 25.20 68.55 26.81 65.81 C 28.04 64.28 26.62 62.48 26.22 60.92 C 23.25 61.08 20.25 61.15 17.32 60.56 L 18.39 60.29 Z" />
<path fill="#8a1b6c" opacity="1.00" d=" M 41.20 73.69 C 44.85 74.03 48.35 75.26 50.90 77.98 C 53.92 75.39 58.04 74.73 61.90 74.97 C 63.35 75.64 64.31 77.05 65.51 78.08 L 66.03 78.62 C 63.68 77.99 61.22 76.24 58.73 77.38 C 54.79 78.82 53.19 83.16 50.73 86.22 C 47.95 82.80 45.41 79.20 42.78 75.66 C 40.94 77.96 38.80 79.99 36.42 81.70 C 38.19 79.15 39.69 76.41 41.20 73.69 Z" />
</svg>
