<?xml version="1.0" encoding="UTF-8" ?>
<!DOCTYPE svg PUBLIC "-//W3C//DTD SVG 1.1//EN" "http://www.w3.org/Graphics/SVG/1.1/DTD/svg11.dtd">
<svg width="100pt" height="100pt" viewBox="0 0 100 100" version="1.1" xmlns="http://www.w3.org/2000/svg">
<path fill="#ecc548" opacity="1.00" d=" M 44.82 11.84 C 46.40 10.83 47.95 9.64 49.80 9.17 C 51.36 9.89 52.77 10.88 54.19 11.83 C 67.00 20.71 80.05 29.26 92.88 38.11 C 87.26 54.03 81.98 70.08 76.04 85.88 C 71.02 85.89 65.99 85.64 60.97 85.92 C 56.70 86.17 53.31 89.33 49.13 89.91 C 45.00 88.88 41.48 85.79 37.06 85.85 C 32.37 85.71 27.67 85.87 22.97 85.87 C 17.08 70.06 11.75 54.04 6.15 38.12 C 18.96 29.25 32.02 20.74 44.82 11.84 M 44.33 16.29 C 33.17 24.17 21.63 31.51 10.45 39.35 C 11.91 44.76 13.86 50.02 15.77 55.28 C 19.02 64.17 21.78 73.24 25.23 82.05 C 29.48 82.31 33.75 82.19 38.00 82.48 C 42.01 82.74 45.25 85.48 49.08 86.39 C 53.00 85.96 56.22 83.12 60.14 82.60 C 64.67 82.11 69.25 82.36 73.80 82.05 C 76.48 75.44 78.54 68.61 80.92 61.89 C 83.43 54.39 86.47 47.07 88.62 39.45 C 78.09 31.86 67.05 25.02 56.46 17.52 C 54.32 16.08 52.24 14.45 49.79 13.59 C 47.74 13.87 46.04 15.22 44.33 16.29 Z" />
<path fill="#bebbc0" opacity="1.00" d=" M 44.33 16.29 C 46.04 15.22 47.74 13.87 49.79 13.59 C 52.24 14.45 54.32 16.08 56.46 17.52 C 67.05 25.02 78.09 31.86 88.62 39.45 C 86.47 47.07 83.43 54.39 80.92 61.89 C 78.54 68.61 76.48 75.44 73.80 82.05 C 69.25 82.36 64.67 82.11 60.14 82.60 C 56.22 83.12 53.00 85.96 49.08 86.39 C 45.25 85.48 42.01 82.74 38.00 82.48 C 33.75 82.19 29.48 82.31 25.23 82.05 C 21.78 73.24 19.02 64.17 15.77 55.28 C 13.86 50.02 11.91 44.76 10.45 39.35 C 21.63 31.51 33.17 24.17 44.33 16.29 M 31.60 28.60 C 26.01 32.67 19.76 35.87 14.58 40.47 C 14.49 43.23 15.67 45.83 16.53 48.41 C 20.36 58.55 23.65 68.88 27.33 79.08 C 31.21 79.35 35.11 79.29 38.99 79.55 C 42.62 79.77 45.65 82.05 49.11 82.92 C 52.66 82.57 55.61 80.10 59.15 79.65 C 63.32 79.23 67.51 79.39 71.69 79.08 C 76.09 66.33 80.69 53.63 84.96 40.83 C 82.22 38.60 79.38 36.49 76.41 34.59 C 67.45 28.77 58.74 22.56 49.79 16.74 C 43.38 20.15 37.68 24.67 31.60 28.60 Z" />
<path fill="#277373" opacity="1.00" d=" M 31.60 28.60 C 37.68 24.67 43.38 20.15 49.79 16.74 C 58.74 22.56 67.45 28.77 76.41 34.59 C 79.38 36.49 82.22 38.60 84.96 40.83 C 80.69 53.63 76.09 66.33 71.69 79.08 C 67.51 79.39 63.32 79.23 59.15 79.65 C 55.61 80.10 52.66 82.57 49.11 82.92 C 45.65 82.05 42.62 79.77 38.99 79.55 C 35.11 79.29 31.21 79.35 27.33 79.08 C 23.65 68.88 20.36 58.55 16.53 48.41 C 15.67 45.83 14.49 43.23 14.58 40.47 C 19.76 35.87 26.01 32.67 31.60 28.60 M 37.87 29.73 C 36.84 31.70 36.16 34.02 34.41 35.50 C 31.22 37.28 27.41 37.13 23.89 37.57 C 22.47 47.07 26.66 56.03 30.68 64.34 C 34.64 71.46 41.51 77.02 49.13 79.76 C 54.17 78.92 58.33 75.37 62.19 72.22 C 68.43 67.05 71.05 59.15 73.88 51.86 C 75.64 47.39 75.79 42.53 75.55 37.80 C 72.09 37.38 68.42 37.40 65.23 35.82 C 63.28 34.44 62.72 31.90 61.70 29.87 C 53.80 28.70 45.78 28.69 37.87 29.73 Z" />
<path fill="#ffffff" opacity="1.00" d=" M 37.87 29.73 C 45.78 28.69 53.80 28.70 61.70 29.87 C 62.72 31.90 63.28 34.44 65.23 35.82 C 68.42 37.40 72.09 37.38 75.55 37.80 C 75.79 42.53 75.64 47.39 73.88 51.86 C 71.05 59.15 68.43 67.05 62.19 72.22 C 58.33 75.37 54.17 78.92 49.13 79.76 C 41.51 77.02 34.64 71.46 30.68 64.34 C 26.66 56.03 22.47 47.07 23.89 37.57 C 27.41 37.13 31.22 37.28 34.41 35.50 C 36.16 34.02 36.84 31.70 37.87 29.73 M 38.85 35.91 C 36.13 39.45 31.40 39.91 27.41 41.05 C 28.10 54.27 37.09 66.32 49.22 71.31 C 61.66 66.88 71.03 54.57 71.85 41.29 C 68.01 40.12 63.50 39.62 60.81 36.28 C 59.28 34.89 58.23 32.49 55.91 32.40 C 51.68 31.89 47.36 31.84 43.13 32.43 C 41.10 32.59 40.19 34.67 38.85 35.91 M 34.68 67.82 C 38.41 72.60 43.45 76.54 49.18 78.57 C 54.88 77.18 59.80 73.23 63.49 68.76 C 59.65 70.79 56.20 73.49 52.29 75.39 C 50.97 76.01 49.42 76.75 47.99 75.98 C 43.13 74.01 39.15 70.48 34.68 67.82 Z" />
<path fill="#1f6e6e" opacity="1.00" d=" M 38.85 35.91 C 40.19 34.67 41.10 32.59 43.13 32.43 C 47.36 31.84 51.68 31.89 55.91 32.40 C 58.23 32.49 59.28 34.89 60.81 36.28 C 63.50 39.62 68.01 40.12 71.85 41.29 C 71.03 54.57 61.66 66.88 49.22 71.31 C 37.09 66.32 28.10 54.27 27.41 41.05 C 31.40 39.91 36.13 39.45 38.85 35.91 M 40.68 38.71 C 38.05 41.14 34.58 42.23 31.29 43.45 C 32.74 53.41 39.22 62.21 48.04 66.93 C 48.93 67.61 50.04 67.40 50.96 66.90 C 59.75 62.25 66.50 53.58 67.91 43.62 C 63.83 42.25 59.85 40.39 56.87 37.19 C 54.43 34.33 50.36 34.51 46.95 34.83 C 44.29 34.92 42.60 37.19 40.68 38.71 Z" />
<path fill="#ffffff" opacity="1.00" d=" M 40.68 38.71 C 42.60 37.19 44.29 34.92 46.95 34.83 C 50.36 34.51 54.43 34.33 56.87 37.19 C 59.85 40.39 63.83 42.25 67.91 43.62 C 66.50 53.58 59.75 62.25 50.96 66.90 C 50.04 67.40 48.93 67.61 48.04 66.93 C 39.22 62.21 32.74 53.41 31.29 43.45 C 34.58 42.23 38.05 41.14 40.68 38.71 Z" />
<path fill="#1f6e6e" opacity="1.00" d=" M 34.68 67.82 C 39.15 70.48 43.13 74.01 47.99 75.98 C 49.42 76.75 50.97 76.01 52.29 75.39 C 56.20 73.49 59.65 70.79 63.49 68.76 C 59.80 73.23 54.88 77.18 49.18 78.57 C 43.45 76.54 38.41 72.60 34.68 67.82 Z" />
</svg>
