<?xml version="1.0" encoding="UTF-8" ?>
<!DOCTYPE svg PUBLIC "-//W3C//DTD SVG 1.1//EN" "http://www.w3.org/Graphics/SVG/1.1/DTD/svg11.dtd">
<svg width="100pt" height="100pt" viewBox="0 0 100 100" version="1.1" xmlns="http://www.w3.org/2000/svg">
<path fill="#b6bdbf" opacity="1.00" d=" M 51.66 11.68 C 54.27 9.36 57.27 7.57 60.32 5.90 C 60.58 8.84 60.82 11.79 61.07 14.73 C 65.64 14.75 70.21 14.67 74.77 14.85 C 79.71 29.42 84.99 43.87 89.88 58.46 C 76.53 67.35 63.25 76.35 50.00 85.40 C 36.75 76.35 23.47 67.35 10.12 58.46 C 15.01 43.87 20.30 29.42 25.23 14.84 C 32.15 14.57 39.09 14.89 46.02 14.71 C 48.36 14.89 49.98 12.99 51.66 11.68 M 47.56 17.27 C 41.05 18.24 34.41 17.35 27.85 17.63 C 22.89 30.66 18.45 43.89 13.89 57.07 C 25.76 65.46 37.82 73.60 50.00 81.54 C 62.18 73.60 74.24 65.45 86.12 57.06 C 81.41 43.95 77.30 30.63 72.15 17.68 C 67.97 17.63 63.78 17.61 59.60 17.55 C 59.11 14.73 58.62 11.92 58.08 9.10 C 54.46 11.67 51.52 15.22 47.56 17.27 Z" />
<path fill="#e85a27" opacity="1.00" d=" M 47.56 17.27 C 51.52 15.22 54.46 11.67 58.08 9.10 C 58.62 11.92 59.11 14.73 59.60 17.55 C 63.78 17.61 67.97 17.63 72.15 17.68 C 77.30 30.63 81.41 43.95 86.12 57.06 C 74.24 65.45 62.18 73.60 50.00 81.54 C 37.82 73.60 25.76 65.46 13.89 57.07 C 18.45 43.89 22.89 30.66 27.85 17.63 C 34.41 17.35 41.05 18.24 47.56 17.27 M 37.19 38.12 C 34.83 44.43 35.17 52.11 39.42 57.55 C 44.50 64.22 54.11 66.50 61.88 63.80 C 69.10 60.99 72.54 52.37 71.19 45.07 C 70.32 41.11 67.34 38.15 65.02 34.99 C 68.85 34.00 72.69 33.06 76.49 31.98 C 75.61 30.67 74.78 29.33 73.80 28.10 C 69.79 28.55 65.99 30.06 62.10 31.08 C 59.03 25.63 57.06 19.66 56.22 13.46 C 48.73 20.65 41.10 28.31 37.19 38.12 M 18.23 47.32 C 23.93 46.26 30.04 45.17 34.45 41.09 C 28.69 42.01 23.05 43.98 18.23 47.32 Z" />
<path fill="#ffffff" opacity="1.00" d=" M 37.19 38.12 C 41.10 28.31 48.73 20.65 56.22 13.46 C 57.06 19.66 59.03 25.63 62.10 31.08 C 65.99 30.06 69.79 28.55 73.80 28.10 C 74.78 29.33 75.61 30.67 76.49 31.98 C 72.69 33.06 68.85 34.00 65.02 34.99 C 67.34 38.15 70.32 41.11 71.19 45.07 C 72.54 52.37 69.10 60.99 61.88 63.80 C 54.11 66.50 44.50 64.22 39.42 57.55 C 35.17 52.11 34.83 44.43 37.19 38.12 M 57.39 46.09 C 52.76 48.35 53.49 56.16 58.38 57.61 C 62.08 58.61 64.94 54.37 64.37 51.03 C 64.23 47.75 60.66 44.40 57.39 46.09 Z" />
<path fill="#ffffff" opacity="1.00" d=" M 18.23 47.32 C 23.05 43.98 28.69 42.01 34.45 41.09 C 30.04 45.17 23.93 46.26 18.23 47.32 Z" />
<path fill="#e85a27" opacity="1.00" d=" M 57.39 46.09 C 60.66 44.40 64.23 47.75 64.37 51.03 C 64.94 54.37 62.08 58.61 58.38 57.61 C 53.49 56.16 52.76 48.35 57.39 46.09 Z" />
</svg>
