<?xml version="1.0" encoding="UTF-8" ?>
<!DOCTYPE svg PUBLIC "-//W3C//DTD SVG 1.1//EN" "http://www.w3.org/Graphics/SVG/1.1/DTD/svg11.dtd">
<svg width="100pt" height="100pt" viewBox="0 0 100 100" version="1.1" xmlns="http://www.w3.org/2000/svg">
<path fill="#b4c1c5" opacity="1.00" d=" M 61.37 13.33 C 64.59 10.37 69.00 9.47 73.00 8.06 C 73.73 10.88 74.46 13.70 75.21 16.52 C 78.12 16.51 81.04 16.53 83.95 16.57 C 83.92 38.86 83.93 61.15 83.95 83.44 C 69.52 83.53 55.09 83.51 40.66 83.45 C 40.19 86.30 40.21 89.90 37.33 91.51 C 34.84 93.42 31.42 92.59 29.01 90.99 C 26.23 89.35 24.86 86.30 23.41 83.56 C 20.96 83.51 18.51 83.46 16.05 83.39 C 16.09 61.11 16.08 38.83 16.05 16.56 C 29.35 16.40 42.66 16.63 55.96 16.48 C 58.27 16.64 59.72 14.59 61.37 13.33 M 65.09 13.11 C 62.63 14.65 60.92 17.11 58.54 18.76 C 56.49 19.59 54.20 19.37 52.03 19.46 C 41.01 19.30 29.98 19.33 18.96 19.33 C 18.51 39.62 18.72 59.93 18.85 80.22 C 21.56 80.28 24.27 80.31 26.99 80.32 C 26.84 83.03 26.01 86.48 28.62 88.34 C 30.92 90.68 34.34 90.11 37.27 89.86 C 37.93 86.79 38.17 83.51 39.74 80.73 C 53.69 79.68 67.76 80.99 81.74 80.19 C 81.70 59.93 81.79 39.68 81.73 19.42 C 79.13 19.37 76.53 19.32 73.94 19.28 C 73.15 16.42 72.35 13.56 71.56 10.71 C 69.37 11.40 67.10 11.97 65.09 13.11 Z" />
<path fill="#e85a27" opacity="1.00" d=" M 65.09 13.11 C 67.10 11.97 69.37 11.40 71.56 10.71 C 72.35 13.56 73.15 16.42 73.94 19.28 C 76.53 19.32 79.13 19.37 81.73 19.42 C 81.79 39.68 81.70 59.93 81.74 80.19 C 67.76 80.99 53.69 79.68 39.74 80.73 C 38.17 83.51 37.93 86.79 37.27 89.86 C 34.34 90.11 30.92 90.68 28.62 88.34 C 26.01 86.48 26.84 83.03 26.99 80.32 C 24.27 80.31 21.56 80.28 18.85 80.22 C 18.72 59.93 18.51 39.62 18.96 19.33 C 29.98 19.33 41.01 19.30 52.03 19.46 C 54.20 19.37 56.49 19.59 58.54 18.76 C 60.92 17.11 62.63 14.65 65.09 13.11 M 62.33 19.30 C 54.14 33.95 46.27 48.77 38.03 63.40 C 34.56 61.61 31.06 59.84 27.32 58.69 C 28.82 63.69 34.60 64.50 37.49 68.30 C 36.15 74.43 33.97 80.99 28.63 84.81 C 30.65 86.19 32.77 87.42 34.97 88.52 C 34.74 82.41 38.36 77.34 41.92 72.75 C 42.70 71.56 44.16 71.15 45.48 71.58 C 48.84 72.49 51.81 74.36 54.93 75.83 C 55.34 74.97 55.75 74.11 56.16 73.24 C 53.11 71.53 50.04 69.84 47.01 68.10 C 50.01 61.82 52.48 55.21 56.31 49.36 C 57.17 47.71 59.18 47.77 60.77 47.45 C 67.38 46.64 74.05 46.38 80.67 45.62 C 80.69 44.12 80.71 42.61 80.73 41.11 C 73.41 41.83 66.17 43.16 58.89 44.16 C 62.09 37.07 66.04 30.36 69.40 23.35 C 71.02 20.34 70.58 16.87 70.13 13.63 C 67.12 14.84 63.82 16.18 62.33 19.30 M 19.59 52.80 C 25.61 52.50 31.57 51.46 37.50 50.43 C 39.84 50.10 41.86 48.84 43.77 47.53 C 35.56 48.37 27.35 49.98 19.59 52.80 Z" />
<path fill="#ffffff" opacity="1.00" d=" M 62.33 19.30 C 63.82 16.18 67.12 14.84 70.13 13.63 C 70.58 16.87 71.02 20.34 69.40 23.35 C 66.04 30.36 62.09 37.07 58.89 44.16 C 66.17 43.16 73.41 41.83 80.73 41.11 C 80.71 42.61 80.69 44.12 80.67 45.62 C 74.05 46.38 67.38 46.64 60.77 47.45 C 59.18 47.77 57.17 47.71 56.31 49.36 C 52.48 55.21 50.01 61.82 47.01 68.10 C 50.04 69.84 53.11 71.53 56.16 73.24 C 55.75 74.11 55.34 74.97 54.93 75.83 C 51.81 74.36 48.84 72.49 45.48 71.58 C 44.16 71.15 42.70 71.56 41.92 72.75 C 38.36 77.34 34.74 82.41 34.97 88.52 C 32.77 87.42 30.65 86.19 28.63 84.81 C 33.97 80.99 36.15 74.43 37.49 68.30 C 34.60 64.50 28.82 63.69 27.32 58.69 C 31.06 59.84 34.56 61.61 38.03 63.40 C 46.27 48.77 54.14 33.95 62.33 19.30 Z" />
<path fill="#ffffff" opacity="1.00" d=" M 19.59 52.80 C 27.35 49.98 35.56 48.37 43.77 47.53 C 41.86 48.84 39.84 50.10 37.50 50.43 C 31.57 51.46 25.61 52.50 19.59 52.80 Z" />
</svg>
