<?xml version="1.0" encoding="UTF-8" ?>
<!DOCTYPE svg PUBLIC "-//W3C//DTD SVG 1.1//EN" "http://www.w3.org/Graphics/SVG/1.1/DTD/svg11.dtd">
<svg width="100pt" height="100pt" viewBox="0 0 100 100" version="1.1" xmlns="http://www.w3.org/2000/svg">
<path fill="#b4c1c5" opacity="1.00" d=" M 61.38 13.33 C 64.50 10.29 68.93 9.47 72.92 8.16 C 73.69 10.94 74.51 13.71 75.30 16.48 C 78.18 16.45 81.04 16.64 83.91 16.68 C 83.95 38.90 83.95 61.12 83.91 83.34 C 69.50 83.69 55.07 83.37 40.65 83.47 C 40.31 86.88 39.74 91.15 35.85 92.26 C 30.01 93.91 25.47 88.46 23.42 83.65 C 20.97 83.58 18.54 83.33 16.09 83.25 C 16.06 61.05 16.06 38.86 16.09 16.66 C 29.39 16.28 42.70 16.68 56.00 16.51 C 58.37 16.78 59.78 14.67 61.38 13.33 M 64.99 12.98 C 62.55 14.60 60.94 17.13 58.68 18.97 C 54.86 19.81 50.89 19.30 47.00 19.36 C 37.69 19.37 28.37 19.24 19.06 19.35 C 18.71 23.22 18.58 27.11 18.67 31.00 C 18.92 47.39 18.40 63.79 18.90 80.18 C 21.67 80.19 24.44 80.35 27.21 80.30 C 26.87 82.80 25.78 85.93 28.11 87.84 C 30.46 90.45 34.22 90.81 37.36 89.53 C 37.91 86.74 38.25 83.86 39.26 81.19 C 42.22 79.66 45.79 80.49 49.00 80.31 C 59.90 80.25 70.82 80.77 81.71 80.08 C 81.70 59.86 81.81 39.64 81.68 19.42 C 79.11 19.44 76.55 19.25 73.98 19.26 C 73.20 16.48 72.34 13.73 71.62 10.94 C 69.37 11.46 66.99 11.74 64.99 12.98 Z" />
<path fill="#e85a27" opacity="1.00" d=" M 64.99 12.98 C 66.99 11.74 69.37 11.46 71.62 10.94 C 72.34 13.73 73.20 16.48 73.98 19.26 C 76.55 19.25 79.11 19.44 81.68 19.42 C 81.81 39.64 81.70 59.86 81.71 80.08 C 70.82 80.77 59.90 80.25 49.00 80.31 C 45.79 80.49 42.22 79.66 39.26 81.19 C 38.25 83.86 37.91 86.74 37.36 89.53 C 34.22 90.81 30.46 90.45 28.11 87.84 C 25.78 85.93 26.87 82.80 27.21 80.30 C 24.44 80.35 21.67 80.19 18.90 80.18 C 18.40 63.79 18.92 47.39 18.67 31.00 C 18.58 27.11 18.71 23.22 19.06 19.35 C 28.37 19.24 37.69 19.37 47.00 19.36 C 50.89 19.30 54.86 19.81 58.68 18.97 C 60.94 17.13 62.55 14.60 64.99 12.98 M 62.73 18.68 C 54.28 33.46 46.49 48.63 37.96 63.36 C 34.67 61.64 31.31 60.03 27.86 58.64 C 27.96 59.41 28.15 60.97 28.25 61.74 C 31.30 64.04 36.10 65.16 37.49 68.96 C 35.54 74.45 34.41 81.31 28.79 84.32 C 30.05 86.81 32.65 87.70 35.23 88.18 C 34.43 81.66 39.19 76.49 42.87 71.73 C 47.25 70.70 51.00 74.43 54.93 75.83 C 55.32 74.96 55.71 74.10 56.10 73.24 C 53.07 71.57 50.06 69.86 47.10 68.06 C 50.26 61.34 52.73 54.05 57.35 48.19 C 64.97 46.37 72.92 46.76 80.65 45.56 C 80.63 44.10 80.68 42.65 80.78 41.20 C 73.44 41.59 66.27 43.33 58.98 44.10 C 62.19 36.50 66.69 29.53 69.96 21.97 C 71.19 19.40 70.48 16.56 70.00 13.91 C 67.16 14.74 64.12 15.84 62.73 18.68 M 19.68 52.82 C 25.38 52.66 30.97 51.40 36.60 50.61 C 39.20 50.33 41.87 49.61 43.47 47.37 C 35.45 48.62 27.26 49.80 19.68 52.82 Z" />
<path fill="#ffffff" opacity="1.00" d=" M 62.73 18.68 C 64.12 15.84 67.16 14.74 70.00 13.91 C 70.48 16.56 71.19 19.40 69.96 21.97 C 66.69 29.53 62.19 36.50 58.98 44.10 C 66.27 43.33 73.44 41.59 80.78 41.20 C 80.68 42.65 80.63 44.10 80.65 45.56 C 72.92 46.76 64.97 46.37 57.35 48.19 C 52.73 54.05 50.26 61.34 47.10 68.06 C 50.06 69.86 53.07 71.57 56.10 73.24 C 55.71 74.10 55.32 74.96 54.93 75.83 C 51.00 74.43 47.25 70.70 42.87 71.73 C 39.19 76.49 34.43 81.66 35.23 88.18 C 32.65 87.70 30.05 86.81 28.79 84.32 C 34.41 81.31 35.54 74.45 37.49 68.96 C 36.10 65.16 31.30 64.04 28.25 61.74 C 28.15 60.97 27.96 59.41 27.86 58.64 C 31.31 60.03 34.67 61.64 37.96 63.36 C 46.49 48.63 54.28 33.46 62.73 18.68 Z" />
<path fill="#ffffff" opacity="1.00" d=" M 19.68 52.82 C 27.26 49.80 35.45 48.62 43.47 47.37 C 41.87 49.61 39.20 50.33 36.60 50.61 C 30.97 51.40 25.38 52.66 19.68 52.82 Z" />
</svg>
