<?xml version="1.0" encoding="UTF-8" ?>
<!DOCTYPE svg PUBLIC "-//W3C//DTD SVG 1.1//EN" "http://www.w3.org/Graphics/SVG/1.1/DTD/svg11.dtd">
<svg width="100pt" height="100pt" viewBox="0 0 100 100" version="1.1" xmlns="http://www.w3.org/2000/svg">
<path fill="#bab9b9" opacity="1.00" d=" M 38.49 25.52 C 43.32 22.36 46.26 17.23 50.00 12.97 C 54.25 18.05 57.92 23.91 63.93 27.14 C 72.28 31.84 79.18 40.16 79.74 50.02 C 80.20 53.88 78.58 57.78 79.34 61.57 C 83.08 67.92 88.01 73.49 91.94 79.73 C 80.64 79.78 69.33 79.65 58.03 79.71 C 57.98 82.37 57.73 85.02 57.71 87.67 C 52.57 87.81 47.43 87.81 42.29 87.67 C 42.27 85.02 42.01 82.38 41.96 79.72 C 30.63 79.39 19.30 79.56 7.97 79.49 C 11.68 73.72 15.92 68.32 19.70 62.61 C 21.65 60.10 20.38 56.84 20.35 53.99 C 19.46 46.28 22.78 38.57 28.15 33.15 C 31.17 30.06 34.97 27.95 38.49 25.52 M 42.18 25.16 C 38.40 28.48 33.71 30.58 30.08 34.08 C 24.59 39.29 21.21 47.11 22.52 54.72 C 22.70 57.87 24.37 61.44 22.34 64.30 C 19.64 68.46 16.41 72.25 14.02 76.61 C 23.96 77.02 33.93 76.10 43.86 76.85 C 44.01 79.78 44.30 82.70 44.44 85.63 C 48.14 85.90 51.85 85.90 55.56 85.62 C 55.70 82.70 55.99 79.78 56.13 76.85 C 66.09 76.10 76.07 77.02 86.03 76.61 C 83.62 72.26 80.32 68.52 77.55 64.42 C 75.60 61.81 77.17 58.48 77.36 55.57 C 78.93 47.95 75.84 39.97 70.43 34.58 C 67.39 31.48 63.52 29.43 60.03 26.92 C 56.06 24.13 53.26 20.07 50.00 16.54 C 47.39 19.41 45.03 22.52 42.18 25.16 Z" />
<path fill="#217a7a" opacity="1.00" d=" M 42.18 25.16 C 45.03 22.52 47.39 19.41 50.00 16.54 C 53.26 20.07 56.06 24.13 60.03 26.92 C 63.52 29.43 67.39 31.48 70.43 34.58 C 75.84 39.97 78.93 47.95 77.36 55.57 C 77.17 58.48 75.60 61.81 77.55 64.42 C 80.32 68.52 83.62 72.26 86.03 76.61 C 76.07 77.02 66.09 76.10 56.13 76.85 C 55.99 79.78 55.70 82.70 55.56 85.62 C 51.85 85.90 48.14 85.90 44.44 85.63 C 44.30 82.70 44.01 79.78 43.86 76.85 C 33.93 76.10 23.96 77.02 14.02 76.61 C 16.41 72.25 19.64 68.46 22.34 64.30 C 24.37 61.44 22.70 57.87 22.52 54.72 C 21.21 47.11 24.59 39.29 30.08 34.08 C 33.71 30.58 38.40 28.48 42.18 25.16 M 35.74 38.06 C 39.30 43.84 44.59 48.35 48.07 54.16 C 47.38 58.05 46.45 61.91 46.39 65.89 C 43.00 66.06 39.61 66.22 36.22 66.39 C 36.24 68.46 36.25 70.54 36.23 72.61 C 39.66 72.78 43.10 72.94 46.54 73.13 C 46.61 76.50 46.69 79.87 46.81 83.24 C 48.94 83.24 51.06 83.24 53.19 83.24 C 53.31 79.87 53.39 76.50 53.46 73.13 C 56.90 72.94 60.34 72.78 63.78 72.61 C 63.75 70.54 63.75 68.46 63.77 66.39 C 60.38 66.22 56.99 66.06 53.61 65.89 C 53.57 61.90 52.59 58.05 51.94 54.15 C 55.41 48.34 60.71 43.84 64.26 38.06 C 59.78 31.97 55.02 26.08 50.00 20.44 C 44.98 26.08 40.22 31.97 35.74 38.06 M 26.17 44.10 C 22.44 53.23 25.65 64.97 34.17 70.26 C 32.18 64.90 28.51 59.93 28.62 53.99 C 28.64 49.57 32.16 46.43 34.73 43.24 C 32.67 40.80 31.21 37.89 32.46 34.70 C 30.15 37.67 27.58 40.55 26.17 44.10 M 67.53 34.70 C 68.80 37.90 67.33 40.80 65.27 43.24 C 67.84 46.43 71.36 49.57 71.38 53.99 C 71.49 59.93 67.81 64.90 65.83 70.27 C 73.65 65.40 77.01 55.09 74.60 46.37 C 73.46 41.85 70.37 38.25 67.53 34.70 Z" />
<path fill="#ffffff" opacity="1.00" d=" M 35.74 38.06 C 40.22 31.97 44.98 26.08 50.00 20.44 C 55.02 26.08 59.78 31.97 64.26 38.06 C 60.71 43.84 55.41 48.34 51.94 54.15 C 52.59 58.05 53.57 61.90 53.61 65.89 C 56.99 66.06 60.38 66.22 63.77 66.39 C 63.75 68.46 63.75 70.54 63.78 72.61 C 60.34 72.78 56.90 72.94 53.46 73.13 C 53.39 76.50 53.31 79.87 53.19 83.24 C 51.06 83.24 48.94 83.24 46.81 83.24 C 46.69 79.87 46.61 76.50 46.54 73.13 C 43.10 72.94 39.66 72.78 36.23 72.61 C 36.25 70.54 36.24 68.46 36.22 66.39 C 39.61 66.22 43.00 66.06 46.39 65.89 C 46.45 61.91 47.38 58.05 48.07 54.16 C 44.59 48.35 39.30 43.84 35.74 38.06 M 50.08 24.83 C 49.82 30.22 49.84 35.62 50.10 41.00 C 53.67 40.26 57.16 39.09 60.42 37.43 C 57.17 33.08 53.75 28.84 50.08 24.83 M 41.53 40.86 C 44.02 44.67 46.87 48.23 50.00 51.52 C 53.13 48.23 55.97 44.68 58.47 40.88 C 55.65 41.47 52.89 42.44 50.00 42.57 C 47.11 42.42 44.34 41.46 41.53 40.86 Z" />
<path fill="#217a7a" opacity="1.00" d=" M 50.08 24.83 C 53.75 28.84 57.17 33.08 60.42 37.43 C 57.16 39.09 53.67 40.26 50.10 41.00 C 49.84 35.62 49.82 30.22 50.08 24.83 Z" />
<path fill="#ffffff" opacity="1.00" d=" M 26.17 44.10 C 27.58 40.55 30.15 37.67 32.46 34.70 C 31.21 37.89 32.67 40.80 34.73 43.24 C 32.16 46.43 28.64 49.57 28.62 53.99 C 28.51 59.93 32.18 64.90 34.17 70.26 C 25.65 64.97 22.44 53.23 26.17 44.10 Z" />
<path fill="#ffffff" opacity="1.00" d=" M 67.53 34.70 C 70.37 38.25 73.46 41.85 74.60 46.37 C 77.01 55.09 73.65 65.40 65.83 70.27 C 67.81 64.90 71.49 59.93 71.38 53.99 C 71.36 49.57 67.84 46.43 65.27 43.24 C 67.33 40.80 68.80 37.90 67.53 34.70 Z" />
<path fill="#217a7a" opacity="1.00" d=" M 41.53 40.86 C 44.34 41.46 47.11 42.42 50.00 42.57 C 52.89 42.44 55.65 41.47 58.47 40.88 C 55.97 44.68 53.13 48.23 50.00 51.52 C 46.87 48.23 44.02 44.67 41.53 40.86 Z" />
</svg>
