<?xml version="1.0" encoding="UTF-8" ?>
<!DOCTYPE svg PUBLIC "-//W3C//DTD SVG 1.1//EN" "http://www.w3.org/Graphics/SVG/1.1/DTD/svg11.dtd">
<svg width="100pt" height="100pt" viewBox="0 0 100 100" version="1.1" xmlns="http://www.w3.org/2000/svg">
<path fill="#b8c0bf" opacity="1.00" d=" M 19.68 22.15 C 23.21 19.56 26.98 17.28 30.72 14.99 C 32.21 16.89 33.68 18.81 35.10 20.76 C 38.45 19.27 41.76 16.74 45.64 17.36 C 48.44 18.33 50.79 20.72 53.94 20.51 C 62.58 20.61 71.21 20.40 79.85 20.56 C 79.83 23.89 79.84 27.22 79.90 30.54 C 84.03 31.44 88.52 32.26 91.70 35.28 C 94.39 37.74 94.58 41.93 93.14 45.10 C 91.02 49.97 86.87 53.51 82.86 56.81 C 81.60 57.99 79.72 59.03 79.91 61.03 C 79.60 67.62 79.92 74.23 79.85 80.83 C 74.23 80.79 68.47 80.38 63.07 82.23 C 59.30 83.90 55.85 80.75 52.06 80.86 C 41.26 80.71 30.46 80.88 19.66 80.84 C 19.56 78.80 19.47 76.77 19.38 74.73 C 14.73 74.32 10.08 73.87 5.46 73.18 C 10.08 71.52 14.85 70.30 19.54 68.86 C 19.69 53.29 19.11 37.71 19.68 22.15 M 21.84 28.94 C 19.72 36.29 22.93 43.61 23.14 50.96 C 23.38 57.19 23.17 63.42 22.95 69.64 C 20.22 70.54 17.49 71.44 14.80 72.44 C 17.36 72.81 19.93 73.19 22.50 73.52 C 22.88 74.87 23.27 76.23 23.66 77.59 C 33.12 77.92 42.60 77.28 52.05 77.75 C 55.91 77.85 59.21 82.03 63.11 80.13 C 67.43 78.16 72.11 77.34 76.84 77.45 C 76.87 72.60 76.68 67.75 76.83 62.90 C 77.00 61.31 76.80 59.36 78.26 58.29 C 82.44 54.46 87.60 51.48 90.51 46.44 C 92.23 43.70 93.31 39.77 90.94 37.07 C 87.55 33.15 81.95 32.95 77.18 32.29 C 77.00 29.53 76.83 26.76 76.67 24.00 C 68.33 23.90 59.95 24.15 51.67 22.94 C 48.93 22.58 47.09 20.23 44.71 19.06 C 40.58 18.79 38.32 23.45 34.42 23.97 C 32.69 21.79 31.38 19.32 29.90 16.98 C 26.15 20.11 22.82 24.02 21.84 28.94 Z" />
<path fill="#b61c2e" opacity="1.00" d=" M 21.84 28.94 C 22.82 24.02 26.15 20.11 29.90 16.98 C 31.38 19.32 32.69 21.79 34.42 23.97 C 38.32 23.45 40.58 18.79 44.71 19.06 C 47.09 20.23 48.93 22.58 51.67 22.94 C 59.95 24.15 68.33 23.90 76.67 24.00 C 76.83 26.76 77.00 29.53 77.18 32.29 C 81.95 32.95 87.55 33.15 90.94 37.07 C 93.31 39.77 92.23 43.70 90.51 46.44 C 87.60 51.48 82.44 54.46 78.26 58.29 C 76.80 59.36 77.00 61.31 76.83 62.90 C 76.68 67.75 76.87 72.60 76.84 77.45 C 72.11 77.34 67.43 78.16 63.11 80.13 C 59.21 82.03 55.91 77.85 52.05 77.75 C 42.60 77.28 33.12 77.92 23.66 77.59 C 23.27 76.23 22.88 74.87 22.50 73.52 C 19.93 73.19 17.36 72.81 14.80 72.44 C 17.49 71.44 20.22 70.54 22.95 69.64 C 23.17 63.42 23.38 57.19 23.14 50.96 C 22.93 43.61 19.72 36.29 21.84 28.94 M 27.86 50.13 C 32.07 55.88 39.18 58.60 46.11 58.98 C 44.61 55.98 42.56 53.18 41.72 49.88 C 41.37 46.70 43.58 44.05 45.09 41.47 C 48.80 45.58 50.29 50.93 50.89 56.31 C 53.03 55.33 55.16 54.33 57.31 53.35 C 55.87 50.15 53.85 47.19 50.93 45.18 C 52.49 41.46 54.52 37.93 58.05 35.75 C 56.13 34.53 54.09 33.48 52.38 31.96 C 53.16 30.07 54.28 28.36 55.35 26.63 C 55.14 25.80 54.92 24.96 54.70 24.12 C 52.51 24.66 50.33 25.18 48.16 25.79 C 47.32 24.19 46.48 22.60 45.64 21.01 C 43.85 21.24 42.06 21.48 40.27 21.72 C 40.30 24.08 40.79 26.38 40.93 28.72 C 39.45 30.43 37.08 30.90 35.10 31.80 C 35.92 30.66 36.77 29.53 37.62 28.42 C 36.01 27.72 34.30 27.16 32.86 26.12 C 31.30 24.15 30.53 21.70 29.43 19.47 C 21.38 27.50 20.89 41.28 27.86 50.13 M 66.79 36.98 C 69.05 38.71 73.10 39.66 73.27 42.98 C 72.42 47.45 68.71 50.59 65.44 53.42 C 53.66 63.10 38.30 66.05 24.49 71.63 C 44.91 71.62 65.74 65.58 81.99 52.97 C 85.56 49.94 89.42 46.47 90.46 41.70 C 91.08 38.55 87.92 36.51 85.38 35.60 C 79.30 33.17 72.69 34.91 66.79 36.98 M 52.65 59.18 C 54.91 58.18 56.93 56.72 58.53 54.83 C 56.33 55.93 54.34 57.40 52.65 59.18 M 54.67 68.81 C 55.10 69.48 55.95 70.82 56.37 71.49 C 58.60 70.28 60.65 68.78 62.60 67.16 C 59.92 67.52 57.29 68.14 54.67 68.81 M 56.49 74.84 C 59.13 74.44 61.74 73.84 64.33 73.18 C 63.57 71.84 62.80 70.49 62.03 69.16 C 60.14 71.00 58.26 72.87 56.49 74.84 M 57.79 77.11 C 58.67 78.01 59.55 78.91 60.43 79.81 C 62.36 78.51 64.18 77.04 65.95 75.53 C 63.20 75.91 60.49 76.50 57.79 77.11 Z" />
<path fill="#ffffff" opacity="1.00" d=" M 27.86 50.13 C 20.89 41.28 21.38 27.50 29.43 19.47 C 30.53 21.70 31.30 24.15 32.86 26.12 C 34.30 27.16 36.01 27.72 37.62 28.42 C 36.77 29.53 35.92 30.66 35.10 31.80 C 37.08 30.90 39.45 30.43 40.93 28.72 C 40.79 26.38 40.30 24.08 40.27 21.72 C 42.06 21.48 43.85 21.24 45.64 21.01 C 46.48 22.60 47.32 24.19 48.16 25.79 C 50.33 25.18 52.51 24.66 54.70 24.12 C 54.92 24.96 55.14 25.80 55.35 26.63 C 54.28 28.36 53.16 30.07 52.38 31.96 C 54.09 33.48 56.13 34.53 58.05 35.75 C 54.52 37.93 52.49 41.46 50.93 45.18 C 53.85 47.19 55.87 50.15 57.31 53.35 C 55.16 54.33 53.03 55.33 50.89 56.31 C 50.29 50.93 48.80 45.58 45.09 41.47 C 43.58 44.05 41.37 46.70 41.72 49.88 C 42.56 53.18 44.61 55.98 46.11 58.98 C 39.18 58.60 32.07 55.88 27.86 50.13 M 41.04 24.79 C 43.24 24.76 44.79 23.39 46.04 21.72 C 44.23 22.33 41.59 22.59 41.04 24.79 M 50.18 27.54 C 49.31 28.23 49.51 30.21 50.83 30.18 C 52.62 29.90 51.99 26.25 50.18 27.54 M 50.46 31.72 C 51.21 33.53 52.04 35.31 52.84 37.10 C 54.02 36.67 55.20 36.27 56.38 35.88 C 54.42 34.49 52.44 33.10 50.46 31.72 M 43.24 39.48 C 45.03 40.14 46.84 40.86 48.76 41.02 C 50.15 40.45 51.38 39.57 52.65 38.77 C 49.51 38.96 46.37 39.23 43.24 39.48 M 28.69 40.74 C 29.05 43.66 28.70 46.95 30.61 49.41 C 33.65 53.89 38.91 56.01 43.96 57.27 C 42.57 54.82 40.80 52.53 39.97 49.81 C 39.79 46.96 41.00 44.28 41.85 41.63 C 39.70 42.98 37.77 45.07 35.19 45.49 C 32.56 44.67 30.74 42.45 28.69 40.74 Z" />
<path fill="#b41c29" opacity="1.00" d=" M 41.04 24.79 C 41.59 22.59 44.23 22.33 46.04 21.72 C 44.79 23.39 43.24 24.76 41.04 24.79 Z" />
<path fill="#b11824" opacity="1.00" d=" M 50.18 27.54 C 51.99 26.25 52.62 29.90 50.83 30.18 C 49.51 30.21 49.31 28.23 50.18 27.54 Z" />
<path fill="#b11822" opacity="1.00" d=" M 50.46 31.72 C 52.44 33.10 54.42 34.49 56.38 35.88 C 55.20 36.27 54.02 36.67 52.84 37.10 C 52.04 35.31 51.21 33.53 50.46 31.72 Z" />
<path fill="#ffffff" opacity="1.00" d=" M 66.79 36.98 C 72.69 34.91 79.30 33.17 85.38 35.60 C 87.92 36.51 91.08 38.55 90.46 41.70 C 89.42 46.47 85.56 49.94 81.99 52.97 C 65.74 65.58 44.91 71.62 24.49 71.63 C 38.30 66.05 53.66 63.10 65.44 53.42 C 68.71 50.59 72.42 47.45 73.27 42.98 C 73.10 39.66 69.05 38.71 66.79 36.98 Z" />
<path fill="#b61c2e" opacity="1.00" d=" M 43.24 39.48 C 46.37 39.23 49.51 38.96 52.65 38.77 C 51.38 39.57 50.15 40.45 48.76 41.02 C 46.84 40.86 45.03 40.14 43.24 39.48 Z" />
<path fill="#b61c2e" opacity="1.00" d=" M 28.69 40.74 C 30.74 42.45 32.56 44.67 35.19 45.49 C 37.77 45.07 39.70 42.98 41.85 41.63 C 41.00 44.28 39.79 46.96 39.97 49.81 C 40.80 52.53 42.57 54.82 43.96 57.27 C 38.91 56.01 33.65 53.89 30.61 49.41 C 28.70 46.95 29.05 43.66 28.69 40.74 Z" />
<path fill="#ffffff" opacity="1.00" d=" M 52.65 59.18 C 54.34 57.40 56.33 55.93 58.53 54.83 C 56.93 56.72 54.91 58.18 52.65 59.18 Z" />
<path fill="#ffffff" opacity="1.00" d=" M 54.67 68.81 C 57.29 68.14 59.92 67.52 62.60 67.16 C 60.65 68.78 58.60 70.28 56.37 71.49 C 55.95 70.82 55.10 69.48 54.67 68.81 Z" />
<path fill="#ffffff" opacity="1.00" d=" M 56.49 74.84 C 58.26 72.87 60.14 71.00 62.03 69.16 C 62.80 70.49 63.57 71.84 64.33 73.18 C 61.74 73.84 59.13 74.44 56.49 74.84 Z" />
<path fill="#ffffff" opacity="1.00" d=" M 57.79 77.11 C 60.49 76.50 63.20 75.91 65.95 75.53 C 64.18 77.04 62.36 78.51 60.43 79.81 C 59.55 78.91 58.67 78.01 57.79 77.11 Z" />
</svg>
