<?xml version="1.0" encoding="UTF-8" ?>
<!DOCTYPE svg PUBLIC "-//W3C//DTD SVG 1.1//EN" "http://www.w3.org/Graphics/SVG/1.1/DTD/svg11.dtd">
<svg width="100pt" height="100pt" viewBox="0 0 100 100" version="1.1" xmlns="http://www.w3.org/2000/svg">
<path fill="#ffffff" opacity="1.00" d=" M 45.36 12.08 C 62.70 9.80 80.69 21.36 85.77 38.14 C 91.08 53.43 85.17 71.61 71.97 80.94 C 62.68 87.54 50.28 90.43 39.29 86.72 C 23.15 82.43 11.56 66.54 11.42 50.00 C 11.66 34.80 21.37 20.00 35.74 14.61 C 38.83 13.38 42.09 12.63 45.36 12.08 M 30.02 21.16 C 31.79 24.78 35.78 28.41 33.95 32.75 C 32.60 36.61 26.63 36.83 24.55 33.55 C 23.60 31.82 23.14 29.89 22.53 28.03 C 15.75 37.21 13.07 49.39 16.58 60.39 C 20.12 72.29 30.63 81.71 42.78 84.13 C 57.59 87.32 74.16 79.52 80.47 65.60 C 73.85 69.27 67.93 74.38 60.51 76.43 C 56.93 77.35 53.50 78.81 49.90 79.59 C 46.89 79.02 44.07 77.73 41.10 76.98 C 32.86 74.84 25.78 69.86 19.07 64.81 C 18.74 58.07 18.67 51.32 19.00 44.59 C 20.70 46.66 22.57 48.68 23.70 51.13 C 23.00 54.31 21.25 57.76 23.79 60.63 C 26.52 59.50 29.19 58.25 31.91 57.10 C 34.36 58.97 36.68 61.11 39.50 62.41 C 42.22 63.38 45.99 63.29 47.30 60.23 C 50.01 56.51 47.05 52.25 46.70 48.30 C 47.27 45.78 48.69 43.56 49.87 41.29 C 51.44 44.35 53.90 47.69 52.36 51.27 C 50.87 55.10 50.75 59.92 54.50 62.51 C 59.83 64.42 64.10 59.99 67.99 57.09 C 70.56 58.29 73.12 59.63 75.91 60.27 C 79.28 57.86 76.51 54.30 75.91 51.26 C 77.15 48.76 79.08 46.70 80.84 44.56 C 80.97 51.16 80.59 57.77 81.16 64.35 C 83.52 59.24 84.70 53.60 84.28 47.97 C 83.63 34.47 74.37 21.91 61.62 17.37 C 51.24 13.32 39.30 15.27 30.02 21.16 M 44.03 69.79 C 45.98 72.61 47.91 75.45 49.94 78.22 C 52.29 75.55 54.85 72.68 55.34 69.01 C 54.15 65.53 51.84 62.59 49.79 59.58 C 47.60 62.83 45.76 66.28 44.03 69.79 Z" />
<path fill="#482b46" opacity="1.00" d=" M 30.02 21.16 C 39.30 15.27 51.24 13.32 61.62 17.37 C 74.37 21.91 83.63 34.47 84.28 47.97 C 84.70 53.60 83.52 59.24 81.16 64.35 C 80.59 57.77 80.97 51.16 80.84 44.56 C 79.08 46.70 77.15 48.76 75.91 51.26 C 76.51 54.30 79.28 57.86 75.91 60.27 C 73.12 59.63 70.56 58.29 67.99 57.09 C 64.10 59.99 59.83 64.42 54.50 62.51 C 50.75 59.92 50.87 55.10 52.36 51.27 C 53.90 47.69 51.44 44.35 49.87 41.29 C 48.69 43.56 47.27 45.78 46.70 48.30 C 47.05 52.25 50.01 56.51 47.30 60.23 C 45.99 63.29 42.22 63.38 39.50 62.41 C 36.68 61.11 34.36 58.97 31.91 57.10 C 29.19 58.25 26.52 59.50 23.79 60.63 C 21.25 57.76 23.00 54.31 23.70 51.13 C 22.57 48.68 20.70 46.66 19.00 44.59 C 18.67 51.32 18.74 58.07 19.07 64.81 C 25.78 69.86 32.86 74.84 41.10 76.98 C 44.07 77.73 46.89 79.02 49.90 79.59 C 53.50 78.81 56.93 77.35 60.51 76.43 C 67.93 74.38 73.85 69.27 80.47 65.60 C 74.16 79.52 57.59 87.32 42.78 84.13 C 30.63 81.71 20.12 72.29 16.58 60.39 C 13.07 49.39 15.75 37.21 22.53 28.03 C 23.14 29.89 23.60 31.82 24.55 33.55 C 26.63 36.83 32.60 36.61 33.95 32.75 C 35.78 28.41 31.79 24.78 30.02 21.16 M 36.84 40.00 C 35.69 46.13 38.81 52.20 44.04 55.37 C 43.48 52.54 41.40 49.64 42.71 46.74 C 44.77 41.47 47.28 36.39 49.78 31.32 C 52.43 36.93 55.56 42.37 57.59 48.25 C 57.60 51.14 55.88 53.77 55.19 56.55 C 60.91 54.66 64.16 48.83 63.88 42.98 C 64.34 38.12 60.23 34.88 57.79 31.22 C 54.65 27.08 52.80 22.15 51.54 17.15 C 45.40 23.77 38.53 30.79 36.84 40.00 M 67.36 39.74 C 67.88 43.16 72.96 44.78 74.98 41.66 C 76.68 37.77 72.95 34.37 71.53 30.99 C 69.73 33.63 66.98 36.28 67.36 39.74 Z" />
<path fill="#ffffff" opacity="1.00" d=" M 36.84 40.00 C 38.53 30.79 45.40 23.77 51.54 17.15 C 52.80 22.15 54.65 27.08 57.79 31.22 C 60.23 34.88 64.34 38.12 63.88 42.98 C 64.16 48.83 60.91 54.66 55.19 56.55 C 55.88 53.77 57.60 51.14 57.59 48.25 C 55.56 42.37 52.43 36.93 49.78 31.32 C 47.28 36.39 44.77 41.47 42.71 46.74 C 41.40 49.64 43.48 52.54 44.04 55.37 C 38.81 52.20 35.69 46.13 36.84 40.00 Z" />
<path fill="#ffffff" opacity="1.00" d=" M 67.36 39.74 C 66.98 36.28 69.73 33.63 71.53 30.99 C 72.95 34.37 76.68 37.77 74.98 41.66 C 72.96 44.78 67.88 43.16 67.36 39.74 Z" />
<path fill="#462a44" opacity="1.00" d=" M 44.03 69.79 C 45.76 66.28 47.60 62.83 49.79 59.58 C 51.84 62.59 54.15 65.53 55.34 69.01 C 54.85 72.68 52.29 75.55 49.94 78.22 C 47.91 75.45 45.98 72.61 44.03 69.79 M 49.48 61.45 C 49.24 66.00 49.31 70.57 49.40 75.13 C 50.53 73.04 51.79 71.01 52.61 68.78 C 52.42 66.08 50.72 63.77 49.48 61.45 Z" />
<path fill="#ffffff" opacity="1.00" d=" M 49.48 61.45 C 50.72 63.77 52.42 66.08 52.61 68.78 C 51.79 71.01 50.53 73.04 49.40 75.13 C 49.31 70.57 49.24 66.00 49.48 61.45 Z" />
</svg>
