<?xml version="1.0" encoding="UTF-8" ?>
<!DOCTYPE svg PUBLIC "-//W3C//DTD SVG 1.1//EN" "http://www.w3.org/Graphics/SVG/1.1/DTD/svg11.dtd">
<svg width="100pt" height="100pt" viewBox="0 0 100 100" version="1.1" xmlns="http://www.w3.org/2000/svg">
<path fill="#b8bcbc" opacity="1.00" d=" M 60.61 16.68 C 64.49 13.91 68.93 12.08 73.17 9.96 C 73.02 15.07 72.72 20.19 71.73 25.22 C 79.45 25.35 87.17 25.27 94.89 25.26 C 79.99 46.51 65.39 67.97 50.32 89.10 C 45.88 83.07 41.80 76.78 37.19 70.88 C 35.06 73.73 33.37 76.86 31.95 80.13 C 30.23 84.22 24.89 85.74 20.98 84.02 C 16.85 82.44 15.02 77.31 16.08 73.25 C 17.47 70.39 20.59 68.98 22.48 66.51 C 24.04 64.44 25.70 62.36 26.80 60.00 C 26.88 54.74 23.10 50.78 20.29 46.75 C 15.14 39.47 9.88 32.26 4.86 24.88 C 18.24 25.17 31.62 24.93 45.00 25.22 C 47.57 25.20 50.17 25.37 52.70 24.84 C 55.64 22.43 57.49 18.91 60.61 16.68 M 60.76 19.73 C 58.14 22.19 56.31 25.39 53.55 27.71 C 51.48 28.49 49.20 28.31 47.03 28.36 C 35.03 28.03 23.03 28.24 11.04 28.10 C 15.89 35.18 20.88 42.16 25.94 49.08 C 27.46 51.23 29.09 53.48 29.35 56.18 C 30.82 63.05 24.30 67.79 20.13 72.18 C 15.77 75.51 19.69 83.35 24.98 82.36 C 28.51 82.36 29.82 78.73 31.12 76.11 C 32.75 72.50 35.34 69.47 37.97 66.55 C 42.31 71.99 46.01 77.88 50.29 83.36 C 52.90 80.21 55.29 76.89 57.53 73.48 C 67.78 58.50 78.25 43.68 88.38 28.62 C 81.37 28.11 74.34 28.45 67.33 28.24 C 69.42 23.69 70.64 18.80 71.11 13.81 C 67.45 15.36 63.64 16.90 60.76 19.73 Z" />
<path fill="#b61c2e" opacity="1.00" d=" M 60.76 19.73 C 63.64 16.90 67.45 15.36 71.11 13.81 C 70.64 18.80 69.42 23.69 67.33 28.24 C 74.34 28.45 81.37 28.11 88.38 28.62 C 78.25 43.68 67.78 58.50 57.53 73.48 C 55.29 76.89 52.90 80.21 50.29 83.36 C 46.01 77.88 42.31 71.99 37.97 66.55 C 35.34 69.47 32.75 72.50 31.12 76.11 C 29.82 78.73 28.51 82.36 24.98 82.36 C 19.69 83.35 15.77 75.51 20.13 72.18 C 24.30 67.79 30.82 63.05 29.35 56.18 C 29.09 53.48 27.46 51.23 25.94 49.08 C 20.88 42.16 15.89 35.18 11.04 28.10 C 23.03 28.24 35.03 28.03 47.03 28.36 C 49.20 28.31 51.48 28.49 53.55 27.71 C 56.31 25.39 58.14 22.19 60.76 19.73 M 54.41 31.48 C 48.75 38.17 43.44 45.14 37.93 51.95 C 36.17 54.32 33.60 55.84 30.94 57.01 C 34.12 59.90 37.70 62.32 41.47 64.36 C 41.50 61.89 41.45 59.22 43.12 57.19 C 50.17 47.23 57.24 37.29 64.39 27.41 C 66.53 24.63 67.54 21.24 68.17 17.84 C 61.80 20.29 58.31 26.31 54.41 31.48 M 62.51 39.58 C 60.21 39.83 58.16 40.94 56.26 42.18 C 61.64 42.27 66.95 41.27 72.31 40.93 C 63.75 46.32 54.99 51.60 47.80 58.80 C 44.95 61.59 44.34 66.19 40.52 68.06 C 41.41 68.93 42.30 69.80 43.20 70.66 C 48.94 67.73 54.83 65.07 60.90 62.90 C 64.57 61.80 66.30 58.15 68.27 55.21 C 62.15 56.53 56.40 59.05 50.69 61.54 C 57.39 54.78 65.08 49.02 73.37 44.37 C 76.52 42.85 78.90 40.25 80.71 37.31 C 74.61 37.79 68.56 38.67 62.51 39.58 M 25.71 47.67 C 31.20 47.26 37.02 46.83 41.77 43.76 C 36.27 44.25 30.78 45.42 25.71 47.67 M 23.48 72.49 C 22.27 73.76 19.74 74.76 20.79 76.89 C 20.95 80.51 26.69 81.09 27.55 77.61 C 29.48 72.13 33.77 68.07 36.97 63.35 C 35.59 62.52 34.21 61.68 32.83 60.85 C 29.64 64.66 27.56 69.47 23.48 72.49 Z" />
<path fill="#ffffff" opacity="1.00" d=" M 54.41 31.48 C 58.31 26.31 61.80 20.29 68.17 17.84 C 67.54 21.24 66.53 24.63 64.39 27.41 C 57.24 37.29 50.17 47.23 43.12 57.19 C 41.45 59.22 41.50 61.89 41.47 64.36 C 37.70 62.32 34.12 59.90 30.94 57.01 C 33.60 55.84 36.17 54.32 37.93 51.95 C 43.44 45.14 48.75 38.17 54.41 31.48 Z" />
<path fill="#ffffff" opacity="1.00" d=" M 62.51 39.58 C 68.56 38.67 74.61 37.79 80.71 37.31 C 78.90 40.25 76.52 42.85 73.37 44.37 C 65.08 49.02 57.39 54.78 50.69 61.54 C 56.40 59.05 62.15 56.53 68.27 55.21 C 66.30 58.15 64.57 61.80 60.90 62.90 C 54.83 65.07 48.94 67.73 43.20 70.66 C 42.30 69.80 41.41 68.93 40.52 68.06 C 44.34 66.19 44.95 61.59 47.80 58.80 C 54.99 51.60 63.75 46.32 72.31 40.93 C 66.95 41.27 61.64 42.27 56.26 42.18 C 58.16 40.94 60.21 39.83 62.51 39.58 Z" />
<path fill="#ffffff" opacity="1.00" d=" M 25.71 47.67 C 30.78 45.42 36.27 44.25 41.77 43.76 C 37.02 46.83 31.20 47.26 25.71 47.67 Z" />
<path fill="#ffffff" opacity="1.00" d=" M 23.48 72.49 C 27.56 69.47 29.64 64.66 32.83 60.85 C 34.21 61.68 35.59 62.52 36.97 63.35 C 33.77 68.07 29.48 72.13 27.55 77.61 C 26.69 81.09 20.95 80.51 20.79 76.89 C 19.74 74.76 22.27 73.76 23.48 72.49 Z" />
</svg>
