<?xml version="1.0" encoding="UTF-8" ?>
<!DOCTYPE svg PUBLIC "-//W3C//DTD SVG 1.1//EN" "http://www.w3.org/Graphics/SVG/1.1/DTD/svg11.dtd">
<svg width="100pt" height="100pt" viewBox="0 0 100 100" version="1.1" xmlns="http://www.w3.org/2000/svg">
<path fill="#babfbc" opacity="1.00" d=" M 39.05 12.17 C 46.35 12.18 53.65 12.17 60.95 12.17 C 60.93 17.14 60.92 22.12 60.95 27.09 C 64.27 24.41 67.08 19.81 71.92 20.33 C 80.13 20.26 88.34 19.96 96.55 19.87 C 89.99 26.44 82.97 32.54 76.39 39.10 C 80.21 39.18 84.03 39.19 87.86 39.18 C 87.81 46.42 87.81 53.66 87.86 60.90 C 84.11 60.91 80.36 60.96 76.61 61.07 C 83.23 67.55 90.07 73.79 96.66 80.30 C 88.41 80.43 80.16 80.40 71.91 80.41 C 67.12 80.88 64.30 76.37 60.96 73.77 C 60.92 78.49 60.93 83.21 60.96 87.92 C 53.65 87.94 46.35 87.94 39.05 87.92 C 39.07 83.48 39.08 79.03 39.02 74.58 C 35.99 76.89 33.36 80.80 29.09 80.40 C 20.51 80.41 11.92 80.43 3.34 80.30 C 10.17 73.74 17.37 67.58 24.24 61.06 C 20.21 60.94 16.18 60.91 12.14 60.91 C 12.19 53.67 12.19 46.43 12.14 39.18 C 15.92 39.19 19.69 39.17 23.47 39.12 C 16.93 32.73 9.96 26.81 3.38 20.46 C 11.94 20.36 20.51 20.38 29.07 20.37 C 33.41 19.87 36.01 23.89 39.04 26.25 C 39.08 21.55 39.07 16.86 39.05 12.17 M 42.02 15.18 C 41.89 21.20 41.87 27.21 41.86 33.23 C 38.24 30.21 35.26 26.08 30.77 24.33 C 24.56 23.26 18.22 24.01 11.96 24.06 C 18.23 30.18 24.97 35.80 31.16 42.00 C 25.84 42.09 20.51 42.13 15.18 42.18 C 15.11 47.44 15.10 52.70 15.18 57.97 C 20.81 58.11 26.44 58.12 32.07 58.15 C 25.47 64.46 18.50 70.38 11.92 76.71 C 18.41 76.52 25.04 77.50 31.44 76.20 C 35.50 74.19 38.42 70.55 41.83 67.67 C 41.89 73.44 41.89 79.21 42.02 84.98 C 47.34 85.15 52.67 85.15 57.99 84.98 C 58.11 78.93 58.12 72.88 58.13 66.84 C 61.88 69.99 65.00 74.11 69.49 76.24 C 75.62 77.44 81.94 76.58 88.14 76.67 C 81.81 70.34 74.97 64.55 68.69 58.17 C 74.07 58.12 79.45 58.09 84.82 57.97 C 84.89 52.71 84.89 47.45 84.82 42.19 C 79.74 42.14 74.66 42.10 69.58 41.93 C 75.51 35.71 82.09 30.18 88.13 24.07 C 81.89 24.04 75.51 23.13 69.37 24.50 C 64.93 26.74 61.82 30.84 58.11 34.06 C 58.13 27.77 58.12 21.47 57.98 15.18 C 52.66 15.10 47.34 15.10 42.02 15.18 Z" />
<path fill="#8a1b6c" opacity="1.00" d=" M 42.02 15.18 C 47.34 15.10 52.66 15.10 57.98 15.18 C 58.12 21.47 58.13 27.77 58.11 34.06 C 61.82 30.84 64.93 26.74 69.37 24.50 C 75.51 23.13 81.89 24.04 88.13 24.07 C 82.09 30.18 75.51 35.71 69.58 41.93 C 74.66 42.10 79.74 42.14 84.82 42.19 C 84.89 47.45 84.89 52.71 84.82 57.97 C 79.45 58.09 74.07 58.12 68.69 58.17 C 74.97 64.55 81.81 70.34 88.14 76.67 C 81.94 76.58 75.62 77.44 69.49 76.24 C 65.00 74.11 61.88 69.99 58.13 66.84 C 58.12 72.88 58.11 78.93 57.99 84.98 C 52.67 85.15 47.34 85.15 42.02 84.98 C 41.89 79.21 41.89 73.44 41.83 67.67 C 38.42 70.55 35.50 74.19 31.44 76.20 C 25.04 77.50 18.41 76.52 11.92 76.71 C 18.50 70.38 25.47 64.46 32.07 58.15 C 26.44 58.12 20.81 58.11 15.18 57.97 C 15.10 52.70 15.11 47.44 15.18 42.18 C 20.51 42.13 25.84 42.09 31.16 42.00 C 24.97 35.80 18.23 30.18 11.96 24.06 C 18.22 24.01 24.56 23.26 30.77 24.33 C 35.26 26.08 38.24 30.21 41.86 33.23 C 41.87 27.21 41.89 21.20 42.02 15.18 M 44.26 18.17 C 44.27 23.39 44.29 28.62 44.20 33.84 C 48.08 33.89 51.95 34.12 55.80 34.60 C 55.71 29.13 55.73 23.65 55.74 18.17 C 51.91 18.16 48.08 18.16 44.26 18.17 M 36.19 43.18 C 32.21 46.15 27.63 48.11 22.97 49.73 C 28.12 51.37 33.39 52.99 37.87 56.13 C 41.33 58.45 44.69 61.55 49.08 61.76 C 53.85 62.16 57.82 59.09 61.50 56.51 C 66.13 53.17 71.59 51.38 76.98 49.70 C 72.33 48.10 67.77 46.13 63.81 43.18 C 59.58 40.25 55.42 36.26 49.94 36.27 C 44.44 36.12 40.40 40.29 36.19 43.18 M 18.15 44.25 C 18.12 45.48 18.09 46.71 18.05 47.94 C 21.90 47.02 25.73 45.99 29.40 44.50 C 25.66 44.25 21.90 44.25 18.15 44.25 M 70.24 44.58 C 73.98 46.22 77.97 47.18 81.95 48.01 C 81.91 46.75 81.87 45.49 81.83 44.23 C 77.97 44.24 74.10 44.25 70.24 44.58 M 18.10 50.04 C 18.14 51.96 18.15 53.88 18.12 55.80 C 23.53 55.84 28.95 55.96 34.36 55.71 C 29.16 53.23 23.64 51.57 18.10 50.04 M 65.36 55.63 C 70.86 55.98 76.37 55.85 81.88 55.80 C 81.84 53.84 81.84 51.87 81.88 49.91 C 76.24 51.39 70.58 52.99 65.36 55.63 M 44.19 62.72 C 44.31 69.13 44.26 75.54 44.26 81.95 C 48.09 81.96 51.91 81.96 55.74 81.96 C 55.74 75.45 55.68 68.95 55.81 62.45 C 51.95 62.88 48.06 62.98 44.19 62.72 Z" />
<path fill="#ffffff" opacity="1.00" d=" M 44.26 18.17 C 48.08 18.16 51.91 18.16 55.74 18.17 C 55.73 23.65 55.71 29.13 55.80 34.60 C 51.95 34.12 48.08 33.89 44.20 33.84 C 44.29 28.62 44.27 23.39 44.26 18.17 Z" />
<path fill="#ffffff" opacity="1.00" d=" M 36.19 43.18 C 40.40 40.29 44.44 36.12 49.94 36.27 C 55.42 36.26 59.58 40.25 63.81 43.18 C 67.77 46.13 72.33 48.10 76.98 49.70 C 71.59 51.38 66.13 53.17 61.50 56.51 C 57.82 59.09 53.85 62.16 49.08 61.76 C 44.69 61.55 41.33 58.45 37.87 56.13 C 33.39 52.99 28.12 51.37 22.97 49.73 C 27.63 48.11 32.21 46.15 36.19 43.18 M 33.88 47.88 C 44.63 47.82 55.38 47.83 66.12 47.87 C 60.74 44.45 55.91 38.66 49.05 38.77 C 43.05 39.80 38.81 44.70 33.88 47.88 M 32.72 50.07 C 36.72 52.40 40.51 55.05 44.36 57.62 C 47.47 59.80 51.72 59.97 54.94 57.91 C 59.09 55.36 63.05 52.51 67.28 50.08 C 63.70 50.11 60.08 49.90 56.52 50.44 C 54.12 52.51 53.08 57.21 49.20 56.65 C 46.24 55.93 45.44 52.35 43.32 50.50 C 39.84 49.80 36.25 50.17 32.72 50.07 Z" />
<path fill="#8a1b6c" opacity="1.00" d=" M 33.88 47.88 C 38.81 44.70 43.05 39.80 49.05 38.77 C 55.91 38.66 60.74 44.45 66.12 47.87 C 55.38 47.83 44.63 47.82 33.88 47.88 Z" />
<path fill="#ffffff" opacity="1.00" d=" M 18.15 44.25 C 21.90 44.25 25.66 44.25 29.40 44.50 C 25.73 45.99 21.90 47.02 18.05 47.94 C 18.09 46.71 18.12 45.48 18.15 44.25 Z" />
<path fill="#ffffff" opacity="1.00" d=" M 70.24 44.58 C 74.10 44.25 77.97 44.24 81.83 44.23 C 81.87 45.49 81.91 46.75 81.95 48.01 C 77.97 47.18 73.98 46.22 70.24 44.58 Z" />
<path fill="#ffffff" opacity="1.00" d=" M 18.10 50.04 C 23.64 51.57 29.16 53.23 34.36 55.71 C 28.95 55.96 23.53 55.84 18.12 55.80 C 18.15 53.88 18.14 51.96 18.10 50.04 Z" />
<path fill="#871568" opacity="1.00" d=" M 32.72 50.07 C 36.25 50.17 39.84 49.80 43.32 50.50 C 45.44 52.35 46.24 55.93 49.20 56.65 C 53.08 57.21 54.12 52.51 56.52 50.44 C 60.08 49.90 63.70 50.11 67.28 50.08 C 63.05 52.51 59.09 55.36 54.94 57.91 C 51.72 59.97 47.47 59.80 44.36 57.62 C 40.51 55.05 36.72 52.40 32.72 50.07 Z" />
<path fill="#ffffff" opacity="1.00" d=" M 65.36 55.63 C 70.58 52.99 76.24 51.39 81.88 49.91 C 81.84 51.87 81.84 53.84 81.88 55.80 C 76.37 55.85 70.86 55.98 65.36 55.63 Z" />
<path fill="#ffffff" opacity="1.00" d=" M 44.19 62.72 C 48.06 62.98 51.95 62.88 55.81 62.45 C 55.68 68.95 55.74 75.45 55.74 81.96 C 51.91 81.96 48.09 81.96 44.26 81.95 C 44.26 75.54 44.31 69.13 44.19 62.72 Z" />
</svg>
