<?xml version="1.0" encoding="UTF-8" ?>
<!DOCTYPE svg PUBLIC "-//W3C//DTD SVG 1.1//EN" "http://www.w3.org/Graphics/SVG/1.1/DTD/svg11.dtd">
<svg width="100pt" height="100pt" viewBox="0 0 100 100" version="1.1" xmlns="http://www.w3.org/2000/svg">
<path fill="#b8bbba" opacity="1.00" d=" M 42.06 18.40 C 45.78 18.78 48.04 15.39 50.59 13.29 C 52.75 15.29 54.59 18.56 57.94 18.38 C 65.84 18.51 73.75 18.35 81.65 18.35 C 81.61 39.67 81.57 60.99 81.67 82.31 C 74.45 82.53 67.22 82.23 60.00 82.40 C 56.22 82.45 53.70 86.14 49.97 86.43 C 45.96 86.18 43.16 82.25 39.06 82.38 C 31.79 82.26 24.52 82.50 17.25 82.33 C 17.31 60.99 17.25 39.66 17.28 18.33 C 25.54 18.40 33.80 18.45 42.06 18.40 M 41.07 22.17 C 34.48 22.40 27.89 22.05 21.30 22.19 C 21.29 41.07 21.44 59.94 21.30 78.82 C 28.79 78.88 36.29 78.63 43.77 79.06 C 44.93 81.25 46.09 84.24 49.06 84.22 C 53.61 85.30 54.75 78.79 58.98 78.86 C 65.34 78.53 71.72 78.97 78.10 78.85 C 78.28 59.95 78.30 41.05 78.10 22.15 C 71.40 22.02 64.68 22.52 57.99 22.08 C 54.48 21.91 52.78 18.31 50.56 16.10 C 47.78 18.60 45.28 22.41 41.07 22.17 Z" />
<path fill="#b61c2e" opacity="1.00" d=" M 41.07 22.17 C 45.28 22.41 47.78 18.60 50.56 16.10 C 52.78 18.31 54.48 21.91 57.99 22.08 C 64.68 22.52 71.40 22.02 78.10 22.15 C 78.30 41.05 78.28 59.95 78.10 78.85 C 71.72 78.97 65.34 78.53 58.98 78.86 C 54.75 78.79 53.61 85.30 49.06 84.22 C 46.09 84.24 44.93 81.25 43.77 79.06 C 36.29 78.63 28.79 78.88 21.30 78.82 C 21.44 59.94 21.29 41.07 21.30 22.19 C 27.89 22.05 34.48 22.40 41.07 22.17 M 46.81 25.84 C 46.35 38.45 46.24 51.08 45.67 63.69 C 42.41 63.70 39.15 63.85 35.92 64.31 C 39.31 66.68 43.66 65.90 47.27 67.57 C 48.50 72.13 49.32 77.24 46.67 81.49 C 48.63 81.78 50.59 82.02 52.56 82.26 C 51.28 78.61 50.94 74.71 51.64 70.90 C 51.99 69.44 51.76 67.12 53.78 66.96 C 57.19 66.25 60.87 66.60 63.92 64.62 C 60.64 64.10 57.33 63.92 54.02 63.79 C 53.24 51.20 53.83 38.58 53.61 25.98 C 53.67 23.13 52.06 20.70 50.67 18.35 C 48.74 20.45 46.67 22.78 46.81 25.84 M 31.20 59.22 C 30.06 49.04 28.31 38.68 23.19 29.65 C 22.97 33.87 22.97 38.24 24.79 42.16 C 28.68 52.01 28.88 62.76 28.45 73.20 C 31.97 64.47 34.72 55.45 37.42 46.44 C 39.47 38.95 41.87 31.50 42.71 23.75 C 38.39 35.40 36.11 47.75 31.20 59.22 M 56.70 23.41 C 59.10 40.12 64.08 56.37 69.59 72.29 C 69.35 61.73 70.39 50.94 74.77 41.21 C 75.31 44.54 75.70 47.90 76.27 51.23 C 76.71 44.38 76.47 37.52 76.30 30.67 C 71.03 39.04 68.72 48.77 67.32 58.45 C 62.65 47.13 60.82 34.91 56.70 23.41 Z" />
<path fill="#ffffff" opacity="1.00" d=" M 46.81 25.84 C 46.67 22.78 48.74 20.45 50.67 18.35 C 52.06 20.70 53.67 23.13 53.61 25.98 C 53.83 38.58 53.24 51.20 54.02 63.79 C 57.33 63.92 60.64 64.10 63.92 64.62 C 60.87 66.60 57.19 66.25 53.78 66.96 C 51.76 67.12 51.99 69.44 51.64 70.90 C 50.94 74.71 51.28 78.61 52.56 82.26 C 50.59 82.02 48.63 81.78 46.67 81.49 C 49.32 77.24 48.50 72.13 47.27 67.57 C 43.66 65.90 39.31 66.68 35.92 64.31 C 39.15 63.85 42.41 63.70 45.67 63.69 C 46.24 51.08 46.35 38.45 46.81 25.84 Z" />
<path fill="#ffffff" opacity="1.00" d=" M 31.20 59.22 C 36.11 47.75 38.39 35.40 42.71 23.75 C 41.87 31.50 39.47 38.95 37.42 46.44 C 34.72 55.45 31.97 64.47 28.45 73.20 C 28.88 62.76 28.68 52.01 24.79 42.16 C 22.97 38.24 22.97 33.87 23.19 29.65 C 28.31 38.68 30.06 49.04 31.20 59.22 Z" />
<path fill="#ffffff" opacity="1.00" d=" M 56.70 23.41 C 60.82 34.91 62.65 47.13 67.32 58.45 C 68.72 48.77 71.03 39.04 76.30 30.67 C 76.47 37.52 76.71 44.38 76.27 51.23 C 75.70 47.90 75.31 44.54 74.77 41.21 C 70.39 50.94 69.35 61.73 69.59 72.29 C 64.08 56.37 59.10 40.12 56.70 23.41 Z" />
</svg>
