<?xml version="1.0" encoding="UTF-8" ?>
<!DOCTYPE svg PUBLIC "-//W3C//DTD SVG 1.1//EN" "http://www.w3.org/Graphics/SVG/1.1/DTD/svg11.dtd">
<svg width="100pt" height="100pt" viewBox="0 0 100 100" version="1.1" xmlns="http://www.w3.org/2000/svg">
<path fill="#b9bbb9" opacity="1.00" d=" M 66.55 15.58 C 70.42 12.41 74.49 9.30 79.60 8.54 C 79.69 10.69 79.76 12.83 79.84 14.98 C 83.37 14.44 86.90 13.95 90.45 13.52 C 89.98 15.70 89.48 17.87 88.99 20.04 C 89.98 20.33 90.97 20.62 91.96 20.91 C 90.44 22.97 88.94 25.03 87.43 27.09 C 88.86 28.03 90.29 28.96 91.71 29.90 C 89.39 32.46 86.78 34.72 83.88 36.60 C 85.97 39.15 87.93 41.79 89.80 44.50 C 85.46 45.73 80.97 45.50 76.52 45.50 C 74.49 47.12 72.80 49.13 71.13 51.10 C 68.90 54.50 67.92 58.53 66.08 62.14 C 64.84 65.24 60.97 65.58 58.98 68.00 C 55.90 71.72 53.45 75.89 50.61 79.78 C 48.26 76.72 46.00 73.60 43.81 70.43 C 41.64 70.75 39.44 71.51 37.24 71.06 C 34.63 69.67 33.16 66.93 31.38 64.68 C 29.23 66.02 26.94 67.27 25.29 69.26 C 23.92 70.59 22.81 72.65 20.70 72.82 C 14.49 73.46 9.37 65.27 13.04 60.11 C 16.47 57.95 20.53 56.87 23.65 54.15 C 22.28 51.81 20.62 49.57 19.92 46.93 C 20.12 44.34 21.53 42.07 22.47 39.71 C 20.10 37.96 17.58 36.43 15.00 35.00 C 15.57 34.11 16.14 33.22 16.71 32.32 C 13.65 28.40 10.83 24.31 7.94 20.26 C 16.52 20.16 25.18 20.80 33.68 19.37 C 35.90 18.51 37.74 16.93 39.70 15.62 C 41.13 17.19 42.40 18.97 44.18 20.17 C 48.45 20.70 52.77 20.32 57.07 20.42 C 58.29 19.01 59.50 17.60 60.72 16.19 C 62.69 16.41 64.96 17.24 66.55 15.58 M 61.36 19.43 C 59.12 21.05 57.01 23.30 54.07 23.43 C 50.84 23.67 47.46 23.87 44.34 22.87 C 42.35 21.80 40.80 20.11 39.16 18.60 C 36.59 20.28 34.04 22.29 30.92 22.75 C 25.29 23.70 19.54 23.29 13.86 23.39 C 16.40 26.74 19.06 30.29 19.40 34.63 C 21.72 36.41 24.02 38.21 26.23 40.12 C 24.75 42.00 22.70 43.65 22.04 46.04 C 22.62 49.13 24.62 51.68 26.20 54.33 C 23.54 56.78 20.61 58.95 17.25 60.35 C 16.00 61.10 14.07 61.49 13.88 63.23 C 13.46 66.55 15.83 70.12 19.17 70.75 C 21.00 71.11 22.08 69.22 23.32 68.25 C 25.75 65.68 28.71 63.72 31.78 61.99 C 33.75 64.54 35.54 67.35 38.23 69.21 C 40.59 69.36 42.56 67.57 44.60 66.59 C 46.58 69.26 48.60 71.89 50.68 74.48 C 53.36 70.32 56.04 65.76 60.83 63.77 C 64.39 62.40 65.51 58.60 66.89 55.43 C 66.22 55.20 64.88 54.75 64.21 54.52 C 67.28 50.60 70.18 46.13 74.88 44.01 C 78.67 42.93 82.70 43.50 86.59 43.24 C 84.52 40.81 82.33 38.48 80.05 36.23 C 83.07 34.47 86.01 32.57 88.79 30.44 C 86.91 29.80 85.02 29.18 83.13 28.58 C 84.76 24.41 86.34 20.22 87.97 16.06 C 84.51 16.39 81.06 16.76 77.60 17.08 C 77.48 14.94 77.35 12.80 77.18 10.65 C 71.81 13.41 67.74 18.99 61.36 19.43 Z" />
<path fill="#941171" opacity="1.00" d=" M 61.36 19.43 C 67.74 18.99 71.81 13.41 77.18 10.65 C 77.35 12.80 77.48 14.94 77.60 17.08 C 81.06 16.76 84.51 16.39 87.97 16.06 C 86.34 20.22 84.76 24.41 83.13 28.58 C 85.02 29.18 86.91 29.80 88.79 30.44 C 86.01 32.57 83.07 34.47 80.05 36.23 C 82.33 38.48 84.52 40.81 86.59 43.24 C 82.70 43.50 78.67 42.93 74.88 44.01 C 70.18 46.13 67.28 50.60 64.21 54.52 C 64.88 54.75 66.22 55.20 66.89 55.43 C 65.51 58.60 64.39 62.40 60.83 63.77 C 56.04 65.76 53.36 70.32 50.68 74.48 C 48.60 71.89 46.58 69.26 44.60 66.59 C 42.56 67.57 40.59 69.36 38.23 69.21 C 35.54 67.35 33.75 64.54 31.78 61.99 C 28.71 63.72 25.75 65.68 23.32 68.25 C 22.08 69.22 21.00 71.11 19.17 70.75 C 15.83 70.12 13.46 66.55 13.88 63.23 C 14.07 61.49 16.00 61.10 17.25 60.35 C 20.61 58.95 23.54 56.78 26.20 54.33 C 24.62 51.68 22.62 49.13 22.04 46.04 C 22.70 43.65 24.75 42.00 26.23 40.12 C 24.02 38.21 21.72 36.41 19.40 34.63 C 19.06 30.29 16.40 26.74 13.86 23.39 C 19.54 23.29 25.29 23.70 30.92 22.75 C 34.04 22.29 36.59 20.28 39.16 18.60 C 40.80 20.11 42.35 21.80 44.34 22.87 C 47.46 23.87 50.84 23.67 54.07 23.43 C 57.01 23.30 59.12 21.05 61.36 19.43 M 63.39 22.53 C 58.92 24.20 55.84 28.60 50.95 29.22 C 45.80 29.25 42.04 25.27 38.78 21.81 C 36.89 23.21 35.01 24.62 33.12 26.03 C 34.53 28.79 36.65 31.54 36.39 34.81 C 36.13 37.90 35.73 40.99 35.84 44.11 C 46.64 37.57 56.76 29.97 67.65 23.58 C 71.54 21.34 73.73 17.24 75.94 13.51 C 71.79 16.56 68.28 20.62 63.39 22.53 M 76.37 23.58 C 77.06 23.95 78.44 24.70 79.13 25.08 C 81.16 22.67 83.18 20.26 85.02 17.71 C 81.97 19.40 79.13 21.44 76.37 23.58 M 70.43 23.63 C 73.49 23.06 76.03 21.23 78.10 18.98 C 75.37 20.23 72.79 21.78 70.43 23.63 M 30.54 25.05 C 27.80 27.94 25.05 30.83 22.44 33.84 C 26.50 35.89 30.87 37.28 35.41 37.76 C 35.72 32.94 33.68 28.57 30.54 25.05 M 65.62 28.55 C 54.14 36.13 42.85 43.99 31.25 51.38 C 29.36 48.63 27.40 45.93 25.15 43.46 C 24.78 47.72 27.75 51.00 28.93 54.85 C 25.59 59.05 21.22 62.69 15.87 63.93 C 16.90 65.49 17.95 67.03 19.02 68.57 C 22.10 64.14 26.86 61.13 31.90 59.42 C 35.02 60.82 36.58 64.11 38.52 66.73 C 39.42 66.54 40.33 66.35 41.24 66.15 C 39.55 63.54 37.83 60.95 36.12 58.35 C 46.92 49.96 58.23 42.26 69.37 34.36 C 72.12 32.63 73.38 29.57 74.42 26.65 C 71.38 26.53 68.16 26.63 65.62 28.55 M 77.15 28.85 C 75.73 29.31 76.55 31.64 77.95 30.98 C 79.38 30.53 78.55 28.19 77.15 28.85 M 71.26 37.29 C 69.37 39.39 70.51 42.29 70.98 44.69 C 71.46 43.12 71.92 41.55 72.36 39.98 C 75.97 40.75 79.59 41.46 83.25 41.98 C 80.34 39.86 77.30 37.92 74.30 35.93 C 77.67 34.41 81.08 32.97 84.32 31.18 C 79.51 31.88 74.24 33.07 71.26 37.29 M 42.82 57.62 C 48.44 60.00 55.17 59.97 60.16 56.19 C 61.22 53.99 61.72 51.57 62.38 49.24 C 61.51 49.20 59.77 49.14 58.90 49.10 C 61.82 47.38 64.47 45.12 65.48 41.75 C 57.47 46.34 50.15 52.04 42.82 57.62 M 53.31 60.32 C 48.94 61.31 44.63 59.44 40.32 59.00 C 45.80 66.93 58.15 64.87 63.55 58.02 C 60.09 58.58 56.73 59.59 53.31 60.32 Z" />
<path fill="#ffffff" opacity="1.00" d=" M 63.39 22.53 C 68.28 20.62 71.79 16.56 75.94 13.51 C 73.73 17.24 71.54 21.34 67.65 23.58 C 56.76 29.97 46.64 37.57 35.84 44.11 C 35.73 40.99 36.13 37.90 36.39 34.81 C 36.65 31.54 34.53 28.79 33.12 26.03 C 35.01 24.62 36.89 23.21 38.78 21.81 C 42.04 25.27 45.80 29.25 50.95 29.22 C 55.84 28.60 58.92 24.20 63.39 22.53 Z" />
<path fill="#ffffff" opacity="1.00" d=" M 76.37 23.58 C 79.13 21.44 81.97 19.40 85.02 17.71 C 83.18 20.26 81.16 22.67 79.13 25.08 C 78.44 24.70 77.06 23.95 76.37 23.58 Z" />
<path fill="#ffffff" opacity="1.00" d=" M 70.43 23.63 C 72.79 21.78 75.37 20.23 78.10 18.98 C 76.03 21.23 73.49 23.06 70.43 23.63 Z" />
<path fill="#ffffff" opacity="1.00" d=" M 30.54 25.05 C 33.68 28.57 35.72 32.94 35.41 37.76 C 30.87 37.28 26.50 35.89 22.44 33.84 C 25.05 30.83 27.80 27.94 30.54 25.05 Z" />
<path fill="#ffffff" opacity="1.00" d=" M 65.62 28.55 C 68.16 26.63 71.38 26.53 74.42 26.65 C 73.38 29.57 72.12 32.63 69.37 34.36 C 58.23 42.26 46.92 49.96 36.12 58.35 C 37.83 60.95 39.55 63.54 41.24 66.15 C 40.33 66.35 39.42 66.54 38.52 66.73 C 36.58 64.11 35.02 60.82 31.90 59.42 C 26.86 61.13 22.10 64.14 19.02 68.57 C 17.95 67.03 16.90 65.49 15.87 63.93 C 21.22 62.69 25.59 59.05 28.93 54.85 C 27.75 51.00 24.78 47.72 25.15 43.46 C 27.40 45.93 29.36 48.63 31.25 51.38 C 42.85 43.99 54.14 36.13 65.62 28.55 Z" />
<path fill="#ead0e3" opacity="1.00" d=" M 77.15 28.85 C 78.55 28.19 79.38 30.53 77.95 30.98 C 76.55 31.64 75.73 29.31 77.15 28.85 Z" />
<path fill="#ffffff" opacity="1.00" d=" M 71.26 37.29 C 74.24 33.07 79.51 31.88 84.32 31.18 C 81.08 32.97 77.67 34.41 74.30 35.93 C 77.30 37.92 80.34 39.86 83.25 41.98 C 79.59 41.46 75.97 40.75 72.36 39.98 C 71.92 41.55 71.46 43.12 70.98 44.69 C 70.51 42.29 69.37 39.39 71.26 37.29 Z" />
<path fill="#ffffff" opacity="1.00" d=" M 42.82 57.62 C 50.15 52.04 57.47 46.34 65.48 41.75 C 64.47 45.12 61.82 47.38 58.90 49.10 C 59.77 49.14 61.51 49.20 62.38 49.24 C 61.72 51.57 61.22 53.99 60.16 56.19 C 55.17 59.97 48.44 60.00 42.82 57.62 Z" />
<path fill="#ffffff" opacity="1.00" d=" M 53.31 60.32 C 56.73 59.59 60.09 58.58 63.55 58.02 C 58.15 64.87 45.80 66.93 40.32 59.00 C 44.63 59.44 48.94 61.31 53.31 60.32 Z" />
</svg>
