<?xml version="1.0" encoding="UTF-8" ?>
<!DOCTYPE svg PUBLIC "-//W3C//DTD SVG 1.1//EN" "http://www.w3.org/Graphics/SVG/1.1/DTD/svg11.dtd">
<svg width="100pt" height="100pt" viewBox="0 0 100 100" version="1.1" xmlns="http://www.w3.org/2000/svg">
<path fill="#f0c63f" opacity="1.00" d=" M 25.88 14.51 C 39.26 14.49 52.64 14.52 66.02 14.48 C 71.28 14.40 76.47 15.81 81.75 15.14 C 80.43 18.30 79.13 21.45 77.86 24.63 C 83.30 29.51 84.79 36.80 87.92 43.07 C 87.33 44.99 86.41 46.87 86.30 48.91 C 86.83 52.07 88.20 55.00 89.31 57.99 C 83.63 61.76 77.96 65.56 72.37 69.48 C 73.73 71.41 75.09 73.34 76.42 75.30 C 71.43 76.24 66.29 76.21 61.33 77.25 C 57.17 79.11 53.66 82.11 49.99 84.75 C 45.77 81.71 41.57 78.64 37.15 75.90 C 35.35 74.64 33.12 74.52 31.00 74.36 C 26.51 74.05 22.29 72.39 18.03 71.09 C 18.80 68.87 19.55 66.64 20.29 64.40 C 17.03 62.28 13.82 60.11 10.57 57.98 C 15.90 43.57 20.76 29.00 25.88 14.51 M 28.04 17.92 C 23.59 30.88 18.73 43.71 14.67 56.81 C 17.34 58.67 20.00 60.53 22.68 62.38 C 22.02 64.97 21.36 67.56 20.70 70.15 C 25.10 71.55 29.67 72.37 34.28 72.56 C 40.49 72.76 44.97 77.59 49.88 80.74 C 53.06 78.57 56.21 76.04 60.09 75.31 C 64.34 74.52 68.68 74.44 72.99 74.07 C 71.73 72.00 70.46 69.95 69.19 67.89 C 74.37 64.24 79.66 60.73 84.82 57.03 C 83.69 52.67 84.24 48.23 84.93 43.87 C 84.72 36.73 80.57 30.27 75.66 25.31 C 76.69 22.63 77.75 19.95 78.82 17.28 C 61.92 18.44 44.96 17.43 28.04 17.92 Z" />
<path fill="#b6c5ca" opacity="1.00" d=" M 28.04 17.92 C 44.96 17.43 61.92 18.44 78.82 17.28 C 77.75 19.95 76.69 22.63 75.66 25.31 C 80.57 30.27 84.72 36.73 84.93 43.87 C 84.24 48.23 83.69 52.67 84.82 57.03 C 79.66 60.73 74.37 64.24 69.19 67.89 C 70.46 69.95 71.73 72.00 72.99 74.07 C 68.68 74.44 64.34 74.52 60.09 75.31 C 56.21 76.04 53.06 78.57 49.88 80.74 C 44.97 77.59 40.49 72.76 34.28 72.56 C 29.67 72.37 25.10 71.55 20.70 70.15 C 21.36 67.56 22.02 64.97 22.68 62.38 C 20.00 60.53 17.34 58.67 14.67 56.81 C 18.73 43.71 23.59 30.88 28.04 17.92 M 49.00 19.84 C 42.71 19.81 36.43 20.37 30.14 20.47 C 27.73 26.94 25.35 33.43 23.44 40.06 C 24.77 39.90 26.09 39.70 27.41 39.47 L 26.55 39.78 C 28.73 39.99 30.91 40.15 33.10 40.26 C 29.77 41.06 26.32 40.80 22.93 40.88 C 21.14 45.81 19.42 50.77 17.82 55.77 C 20.30 57.50 22.77 59.25 25.24 61.00 C 24.41 63.69 23.59 66.37 22.79 69.06 C 26.07 69.91 29.42 70.86 32.85 70.54 C 35.44 70.53 38.31 69.76 40.64 71.29 C 43.81 73.08 46.69 75.32 49.71 77.33 C 55.79 72.54 63.68 72.94 70.98 73.04 C 69.39 70.85 67.79 68.67 66.22 66.48 C 71.56 63.04 76.79 59.45 82.04 55.89 C 81.42 53.70 80.80 51.51 80.19 49.31 C 81.29 47.64 83.13 46.17 83.37 44.10 C 82.43 36.94 78.88 30.20 73.27 25.59 C 74.45 23.43 75.65 21.28 76.86 19.13 C 67.62 20.36 58.29 19.74 49.00 19.84 Z" />
<path fill="#b61c2e" opacity="1.00" d=" M 49.00 19.84 C 58.29 19.74 67.62 20.36 76.86 19.13 C 75.65 21.28 74.45 23.43 73.27 25.59 C 78.88 30.20 82.43 36.94 83.37 44.10 C 83.13 46.17 81.29 47.64 80.19 49.31 C 80.80 51.51 81.42 53.70 82.04 55.89 C 76.79 59.45 71.56 63.04 66.22 66.48 C 67.79 68.67 69.39 70.85 70.98 73.04 C 63.68 72.94 55.79 72.54 49.71 77.33 C 46.69 75.32 43.81 73.08 40.64 71.29 C 38.31 69.76 35.44 70.53 32.85 70.54 C 29.42 70.86 26.07 69.91 22.79 69.06 C 23.59 66.37 24.41 63.69 25.24 61.00 C 22.77 59.25 20.30 57.50 17.82 55.77 C 19.42 50.77 21.14 45.81 22.93 40.88 C 26.32 40.80 29.77 41.06 33.10 40.26 C 33.90 38.77 34.63 37.24 35.38 35.73 C 32.80 37.13 30.21 38.54 27.41 39.47 C 26.09 39.70 24.77 39.90 23.44 40.06 C 25.35 33.43 27.73 26.94 30.14 20.47 C 36.43 20.37 42.71 19.81 49.00 19.84 M 39.74 22.01 C 49.50 22.53 59.28 22.99 69.05 23.42 C 68.64 24.64 68.23 25.86 67.82 27.09 C 65.28 27.22 62.74 27.31 60.20 27.45 C 63.61 28.04 67.17 28.09 70.43 29.35 C 72.82 30.56 74.61 32.64 76.57 34.41 C 73.81 33.82 71.16 32.86 68.52 31.89 C 68.48 34.10 68.65 36.33 68.33 38.53 C 66.53 41.67 63.58 43.97 61.67 47.06 C 60.82 45.38 60.13 43.55 58.84 42.15 C 56.38 40.64 53.30 41.20 50.56 40.93 C 52.44 41.77 54.35 42.56 56.23 43.41 C 54.03 43.37 51.43 44.02 49.55 42.62 C 49.01 41.31 48.53 39.98 48.06 38.64 C 50.46 38.90 52.85 39.20 55.25 39.51 C 54.89 37.96 54.53 36.41 54.17 34.87 C 56.30 37.32 58.04 40.56 61.27 41.69 C 63.97 41.69 66.04 39.42 68.18 38.02 C 67.34 35.87 66.69 33.59 65.34 31.68 C 61.43 29.37 56.66 29.58 52.41 28.22 C 53.06 31.79 51.87 35.21 49.48 37.89 C 49.95 35.73 50.51 33.58 51.05 31.43 C 46.73 32.85 42.59 34.71 38.32 36.26 C 42.64 33.64 47.63 32.06 51.24 28.37 C 44.98 27.45 38.64 27.69 32.34 27.68 C 32.33 27.82 32.31 28.10 32.30 28.24 C 36.38 28.44 40.46 28.67 44.53 29.01 C 41.85 30.48 38.73 31.42 36.58 33.68 C 35.27 36.35 34.82 39.32 34.07 42.18 C 36.59 42.43 39.12 42.39 41.62 42.06 C 41.90 40.29 42.18 38.53 42.46 36.76 C 44.44 37.15 46.41 37.54 48.38 37.93 C 46.29 39.73 44.13 41.46 41.97 43.20 C 42.35 46.84 41.90 50.86 43.81 54.14 C 46.37 56.42 50.10 56.11 53.26 56.82 C 53.42 57.25 53.72 58.11 53.87 58.53 C 52.33 59.69 50.81 60.87 49.31 62.07 C 52.19 63.69 55.38 64.56 58.68 64.66 C 58.15 66.11 57.60 67.56 57.06 69.01 C 51.96 69.30 46.84 69.44 41.77 70.16 C 50.28 71.07 58.88 71.81 67.42 70.87 C 64.88 67.99 61.60 65.98 58.48 63.80 C 58.52 63.39 58.58 62.57 58.62 62.16 C 60.78 59.07 63.70 56.53 65.27 53.03 C 61.97 51.50 58.66 49.98 55.60 48.00 C 59.92 48.86 64.25 51.20 68.68 49.51 C 68.73 44.94 69.67 40.47 70.25 35.96 C 71.55 38.28 72.90 40.57 74.26 42.84 C 72.60 43.74 70.94 44.64 69.29 45.55 C 73.47 45.17 77.63 46.03 81.81 45.59 C 80.60 41.69 79.92 37.58 78.01 33.94 C 76.48 30.89 73.74 28.76 71.34 26.44 C 71.80 24.87 72.28 23.30 72.77 21.73 C 61.76 22.06 50.74 21.34 39.74 22.01 M 24.79 50.46 C 29.53 50.87 34.28 51.19 39.03 51.49 C 39.47 53.56 39.93 55.61 40.39 57.67 C 34.51 55.17 28.02 55.62 21.79 55.98 C 26.06 56.32 30.34 56.52 34.61 56.91 C 30.52 59.70 26.56 62.97 24.61 67.67 C 27.98 68.41 31.41 68.88 34.87 69.09 C 34.21 66.70 33.49 64.33 32.73 61.98 C 36.60 62.22 40.40 63.48 44.28 63.29 C 45.46 62.18 46.48 60.92 47.59 59.75 C 45.99 58.58 44.29 57.54 42.85 56.18 C 41.52 54.24 41.07 51.87 40.40 49.65 C 35.20 50.03 29.99 50.16 24.79 50.46 Z" />
<path fill="#ffffff" opacity="1.00" d=" M 39.74 22.01 C 50.74 21.34 61.76 22.06 72.77 21.73 C 72.28 23.30 71.80 24.87 71.34 26.44 C 73.74 28.76 76.48 30.89 78.01 33.94 C 79.92 37.58 80.60 41.69 81.81 45.59 C 77.63 46.03 73.47 45.17 69.29 45.55 C 70.94 44.64 72.60 43.74 74.26 42.84 C 72.90 40.57 71.55 38.28 70.25 35.96 C 69.67 40.47 68.73 44.94 68.68 49.51 C 64.25 51.20 59.92 48.86 55.60 48.00 C 58.66 49.98 61.97 51.50 65.27 53.03 C 63.70 56.53 60.78 59.07 58.62 62.16 C 58.58 62.57 58.52 63.39 58.48 63.80 C 61.60 65.98 64.88 67.99 67.42 70.87 C 58.88 71.81 50.28 71.07 41.77 70.16 C 46.84 69.44 51.96 69.30 57.06 69.01 C 57.60 67.56 58.15 66.11 58.68 64.66 C 55.38 64.56 52.19 63.69 49.31 62.07 C 50.81 60.87 52.33 59.69 53.87 58.53 C 53.72 58.11 53.42 57.25 53.26 56.82 C 50.10 56.11 46.37 56.42 43.81 54.14 C 41.90 50.86 42.35 46.84 41.97 43.20 C 44.13 41.46 46.29 39.73 48.38 37.93 C 46.41 37.54 44.44 37.15 42.46 36.76 C 42.18 38.53 41.90 40.29 41.62 42.06 C 39.12 42.39 36.59 42.43 34.07 42.18 C 34.82 39.32 35.27 36.35 36.58 33.68 C 38.73 31.42 41.85 30.48 44.53 29.01 C 40.46 28.67 36.38 28.44 32.30 28.24 C 32.31 28.10 32.33 27.82 32.34 27.68 C 38.64 27.69 44.98 27.45 51.24 28.37 C 47.63 32.06 42.64 33.64 38.32 36.26 C 42.59 34.71 46.73 32.85 51.05 31.43 C 50.51 33.58 49.95 35.73 49.48 37.89 C 51.87 35.21 53.06 31.79 52.41 28.22 C 56.66 29.58 61.43 29.37 65.34 31.68 C 66.69 33.59 67.34 35.87 68.18 38.02 C 66.04 39.42 63.97 41.69 61.27 41.69 C 58.04 40.56 56.30 37.32 54.17 34.87 C 54.53 36.41 54.89 37.96 55.25 39.51 C 52.85 39.20 50.46 38.90 48.06 38.64 C 48.53 39.98 49.01 41.31 49.55 42.62 C 51.43 44.02 54.03 43.37 56.23 43.41 C 54.35 42.56 52.44 41.77 50.56 40.93 C 53.30 41.20 56.38 40.64 58.84 42.15 C 60.13 43.55 60.82 45.38 61.67 47.06 C 63.58 43.97 66.53 41.67 68.33 38.53 C 68.65 36.33 68.48 34.10 68.52 31.89 C 71.16 32.86 73.81 33.82 76.57 34.41 C 74.61 32.64 72.82 30.56 70.43 29.35 C 67.17 28.09 63.61 28.04 60.20 27.45 C 62.74 27.31 65.28 27.22 67.82 27.09 C 68.23 25.86 68.64 24.64 69.05 23.42 C 59.28 22.99 49.50 22.53 39.74 22.01 M 76.23 38.28 C 75.81 39.68 76.30 40.18 77.70 39.77 C 78.12 38.37 77.63 37.88 76.23 38.28 M 42.22 44.56 C 45.64 46.81 49.89 47.20 53.86 47.61 C 50.42 45.33 46.30 44.48 42.22 44.56 M 53.60 57.14 C 56.44 56.87 59.16 55.97 61.80 54.92 C 58.82 54.25 55.88 55.18 53.60 57.14 Z" />
<path fill="#f8e7e9" opacity="1.00" d=" M 27.41 39.47 C 30.21 38.54 32.80 37.13 35.38 35.73 C 34.63 37.24 33.90 38.77 33.10 40.26 C 30.91 40.15 28.73 39.99 26.55 39.78 L 27.41 39.47 Z" />
<path fill="#b32629" opacity="1.00" d=" M 76.23 38.28 C 77.63 37.88 78.12 38.37 77.70 39.77 C 76.30 40.18 75.81 39.68 76.23 38.28 Z" />
<path fill="#b61c2e" opacity="1.00" d=" M 42.22 44.56 C 46.30 44.48 50.42 45.33 53.86 47.61 C 49.89 47.20 45.64 46.81 42.22 44.56 Z" />
<path fill="#ffffff" opacity="1.00" d=" M 24.79 50.46 C 29.99 50.16 35.20 50.03 40.40 49.65 C 41.07 51.87 41.52 54.24 42.85 56.18 C 44.29 57.54 45.99 58.58 47.59 59.75 C 46.48 60.92 45.46 62.18 44.28 63.29 C 40.40 63.48 36.60 62.22 32.73 61.98 C 33.49 64.33 34.21 66.70 34.87 69.09 C 31.41 68.88 27.98 68.41 24.61 67.67 C 26.56 62.97 30.52 59.70 34.61 56.91 C 30.34 56.52 26.06 56.32 21.79 55.98 C 28.02 55.62 34.51 55.17 40.39 57.67 C 39.93 55.61 39.47 53.56 39.03 51.49 C 34.28 51.19 29.53 50.87 24.79 50.46 M 30.18 61.07 C 29.97 61.34 29.55 61.90 29.33 62.18 C 30.12 65.34 33.53 60.58 30.18 61.07 Z" />
<path fill="#b61c2e" opacity="1.00" d=" M 53.60 57.14 C 55.88 55.18 58.82 54.25 61.80 54.92 C 59.16 55.97 56.44 56.87 53.60 57.14 Z" />
<path fill="#b72933" opacity="1.00" d=" M 30.18 61.07 C 33.53 60.58 30.12 65.34 29.33 62.18 C 29.55 61.90 29.97 61.34 30.18 61.07 Z" />
</svg>
