<?xml version="1.0" encoding="UTF-8" ?>
<!DOCTYPE svg PUBLIC "-//W3C//DTD SVG 1.1//EN" "http://www.w3.org/Graphics/SVG/1.1/DTD/svg11.dtd">
<svg width="100pt" height="100pt" viewBox="0 0 100 100" version="1.1" xmlns="http://www.w3.org/2000/svg">
<path fill="#d6d6d6" opacity="0.84" d=" M 38.37 8.69 C 42.98 7.88 47.82 7.79 52.38 8.92 C 56.99 10.58 60.86 13.72 65.21 15.93 C 70.94 18.85 75.68 23.31 79.92 28.08 C 84.25 32.98 86.47 39.53 86.66 46.01 C 86.84 52.56 86.93 59.38 84.28 65.51 C 82.53 69.43 80.21 73.15 77.31 76.33 C 74.00 79.46 69.98 81.74 65.91 83.75 C 60.36 86.49 53.99 85.68 48.00 85.82 C 41.45 85.93 34.52 84.84 29.14 80.84 C 23.41 75.88 17.57 70.31 15.58 62.72 C 10.92 50.22 13.84 35.58 22.24 25.36 C 25.93 18.55 30.26 10.76 38.37 8.69 M 41.32 9.21 C 35.43 10.22 29.69 13.54 26.81 18.91 C 25.32 22.46 25.25 26.60 22.68 29.66 C 15.70 38.70 14.01 51.37 17.97 62.03 C 22.75 75.12 35.94 84.80 50.01 84.56 C 65.50 85.19 80.15 73.75 83.89 58.82 C 87.40 46.17 82.67 31.79 72.55 23.49 C 68.82 20.37 63.98 18.86 60.51 15.40 C 55.65 10.39 48.15 8.09 41.32 9.21 Z" />
<path fill="#472b47" opacity="1.00" d=" M 41.32 9.21 C 48.15 8.09 55.65 10.39 60.51 15.40 C 63.98 18.86 68.82 20.37 72.55 23.49 C 82.67 31.79 87.40 46.17 83.89 58.82 C 80.15 73.75 65.50 85.19 50.01 84.56 C 35.94 84.80 22.75 75.12 17.97 62.03 C 14.01 51.37 15.70 38.70 22.68 29.66 C 25.25 26.60 25.32 22.46 26.81 18.91 C 29.69 13.54 35.43 10.22 41.32 9.21 M 31.52 16.51 C 27.78 20.15 25.92 26.38 28.86 31.05 C 31.28 35.47 36.98 37.49 41.68 35.74 C 45.83 34.48 47.37 29.04 45.97 25.32 C 44.72 22.77 41.73 22.96 39.38 23.41 C 38.92 26.43 39.88 29.32 41.09 32.04 C 37.67 34.78 32.66 32.33 31.51 28.44 C 29.62 23.30 33.74 17.45 39.05 16.86 C 46.60 15.38 55.47 21.95 54.39 30.00 C 53.05 35.90 47.08 38.68 42.20 41.21 C 39.02 42.82 35.09 45.60 36.13 49.73 C 38.48 53.55 41.95 56.56 44.33 60.38 C 42.24 59.68 39.99 59.19 38.20 57.85 C 36.84 56.20 36.24 54.08 35.42 52.14 C 35.16 52.87 34.63 54.35 34.37 55.09 C 32.70 51.67 32.75 47.83 32.95 44.13 C 29.73 43.34 26.00 42.73 24.79 39.14 C 25.04 40.57 25.27 42.00 25.51 43.43 C 27.19 44.34 28.86 45.26 30.55 46.15 C 25.98 51.76 25.43 60.30 29.84 66.15 C 35.20 73.64 44.62 75.88 51.86 80.94 C 55.56 78.43 59.55 76.42 63.53 74.40 C 68.94 71.71 72.22 65.90 72.94 60.04 C 73.67 54.03 71.39 48.19 71.45 42.21 C 71.55 38.83 74.43 35.92 73.56 32.45 C 73.31 30.88 71.65 30.31 70.55 29.45 C 71.09 30.98 71.66 32.50 72.23 34.02 C 69.34 37.77 67.70 42.25 65.19 46.21 C 63.77 48.44 61.09 48.82 58.72 48.17 C 59.25 42.92 64.00 39.31 64.34 34.01 C 64.91 27.10 62.70 19.36 56.88 15.15 C 49.47 9.64 38.25 10.12 31.52 16.51 Z" />
<path fill="#ffffff" opacity="1.00" d=" M 31.52 16.51 C 38.25 10.12 49.47 9.64 56.88 15.15 C 62.70 19.36 64.91 27.10 64.34 34.01 C 64.00 39.31 59.25 42.92 58.72 48.17 C 61.09 48.82 63.77 48.44 65.19 46.21 C 67.70 42.25 69.34 37.77 72.23 34.02 C 71.66 32.50 71.09 30.98 70.55 29.45 C 71.65 30.31 73.31 30.88 73.56 32.45 C 74.43 35.92 71.55 38.83 71.45 42.21 C 71.39 48.19 73.67 54.03 72.94 60.04 C 72.22 65.90 68.94 71.71 63.53 74.40 C 59.55 76.42 55.56 78.43 51.86 80.94 C 44.62 75.88 35.20 73.64 29.84 66.15 C 25.43 60.30 25.98 51.76 30.55 46.15 C 28.86 45.26 27.19 44.34 25.51 43.43 C 25.27 42.00 25.04 40.57 24.79 39.14 C 26.00 42.73 29.73 43.34 32.95 44.13 C 32.75 47.83 32.70 51.67 34.37 55.09 C 34.63 54.35 35.16 52.87 35.42 52.14 C 36.24 54.08 36.84 56.20 38.20 57.85 C 39.99 59.19 42.24 59.68 44.33 60.38 C 41.95 56.56 38.48 53.55 36.13 49.73 C 35.09 45.60 39.02 42.82 42.20 41.21 C 47.08 38.68 53.05 35.90 54.39 30.00 C 55.47 21.95 46.60 15.38 39.05 16.86 C 33.74 17.45 29.62 23.30 31.51 28.44 C 32.66 32.33 37.67 34.78 41.09 32.04 C 39.88 29.32 38.92 26.43 39.38 23.41 C 41.73 22.96 44.72 22.77 45.97 25.32 C 47.37 29.04 45.83 34.48 41.68 35.74 C 36.98 37.49 31.28 35.47 28.86 31.05 C 25.92 26.38 27.78 20.15 31.52 16.51 M 54.98 61.08 C 58.52 60.08 62.15 59.15 65.39 57.34 C 66.46 54.77 66.44 51.92 66.83 49.19 C 62.69 52.96 58.69 56.89 54.98 61.08 M 49.33 64.59 C 48.73 67.13 48.37 69.72 48.36 72.33 C 49.52 72.47 50.69 72.63 51.85 72.82 C 51.45 69.96 50.82 67.10 49.33 64.59 Z" />
<path fill="#482b48" opacity="1.00" d=" M 54.98 61.08 C 58.69 56.89 62.69 52.96 66.83 49.19 C 66.44 51.92 66.46 54.77 65.39 57.34 C 62.15 59.15 58.52 60.08 54.98 61.08 Z" />
<path fill="#482b48" opacity="1.00" d=" M 49.33 64.59 C 50.82 67.10 51.45 69.96 51.85 72.82 C 50.69 72.63 49.52 72.47 48.36 72.33 C 48.37 69.72 48.73 67.13 49.33 64.59 Z" />
</svg>
