<?xml version="1.0" encoding="UTF-8" ?>
<!DOCTYPE svg PUBLIC "-//W3C//DTD SVG 1.1//EN" "http://www.w3.org/Graphics/SVG/1.1/DTD/svg11.dtd">
<svg width="100pt" height="100pt" viewBox="0 0 100 100" version="1.1" xmlns="http://www.w3.org/2000/svg">
<path fill="#bab9b9" opacity="1.00" d=" M 55.36 24.67 C 62.58 22.15 69.19 18.19 76.48 15.88 C 75.38 20.03 73.98 24.12 73.52 28.41 C 72.96 34.39 69.43 39.41 67.10 44.78 C 75.32 56.48 83.84 67.97 91.95 79.73 C 63.95 79.73 35.96 79.52 7.96 79.52 C 15.86 67.82 24.19 56.41 32.18 44.77 C 27.19 37.51 21.69 30.41 18.61 22.06 C 23.27 22.86 27.73 24.45 32.12 26.16 C 31.77 24.56 31.42 22.96 31.07 21.36 C 35.24 22.02 39.27 23.29 43.09 25.05 C 45.24 22.77 47.44 20.53 49.64 18.29 C 51.54 20.42 53.45 22.54 55.36 24.67 M 54.96 27.14 C 53.15 25.21 51.35 23.27 49.57 21.31 C 47.60 23.37 45.63 25.44 43.75 27.59 C 40.59 26.23 37.40 24.94 34.13 23.84 C 35.06 26.01 36.02 28.17 36.98 30.32 C 32.02 28.41 27.23 25.99 21.99 24.92 C 25.28 32.37 30.49 38.71 35.30 45.19 C 29.06 56.23 20.42 65.69 14.00 76.63 C 38.01 76.69 62.03 76.69 86.04 76.63 C 82.23 71.01 79.06 64.39 73.08 60.76 L 73.76 61.07 L 73.25 60.39 C 75.06 59.07 72.20 54.86 70.86 57.04 C 70.39 56.33 69.88 55.66 69.33 55.01 L 70.01 55.73 C 69.40 51.80 66.72 48.78 64.46 45.69 C 66.67 40.19 70.13 35.23 71.52 29.40 C 70.01 29.87 68.51 30.35 67.01 30.83 C 69.58 27.15 72.22 23.41 73.51 19.05 C 67.34 21.77 61.23 24.65 54.96 27.14 Z" />
<path fill="#217a7a" opacity="1.00" d=" M 54.96 27.14 C 61.23 24.65 67.34 21.77 73.51 19.05 C 72.22 23.41 69.58 27.15 67.01 30.83 C 68.51 30.35 70.01 29.87 71.52 29.40 C 70.13 35.23 66.67 40.19 64.46 45.69 C 66.72 48.78 69.40 51.80 70.01 55.73 L 69.33 55.01 C 66.50 52.06 63.85 48.95 61.32 45.74 C 63.49 41.79 65.83 37.93 68.04 34.01 C 64.50 37.55 61.42 41.51 58.59 45.63 C 60.90 48.16 63.19 50.72 65.32 53.41 C 61.75 51.04 58.44 48.30 54.86 45.95 C 55.35 47.97 55.14 50.57 57.20 51.77 C 62.20 55.23 67.60 58.12 73.08 60.76 C 79.06 64.39 82.23 71.01 86.04 76.63 C 62.03 76.69 38.01 76.69 14.00 76.63 C 20.42 65.69 29.06 56.23 35.30 45.19 C 30.49 38.71 25.28 32.37 21.99 24.92 C 27.23 25.99 32.02 28.41 36.98 30.32 C 36.02 28.17 35.06 26.01 34.13 23.84 C 37.40 24.94 40.59 26.23 43.75 27.59 C 45.63 25.44 47.60 23.37 49.57 21.31 C 51.35 23.27 53.15 25.21 54.96 27.14 M 56.89 33.83 C 54.56 35.62 55.42 38.82 55.18 41.35 C 60.66 35.60 65.52 29.23 70.01 22.68 C 65.45 26.17 61.10 29.94 56.89 33.83 M 46.33 31.98 C 46.16 43.32 46.38 54.67 45.80 66.00 C 43.03 66.08 40.26 66.19 37.51 66.54 C 39.98 69.04 43.78 68.05 46.86 69.08 C 47.63 71.00 47.92 73.06 48.37 75.07 C 48.96 75.08 50.13 75.10 50.72 75.11 C 51.15 73.10 51.38 71.02 52.18 69.11 C 55.11 67.71 59.44 69.48 61.44 66.47 C 58.69 66.19 55.92 66.07 53.16 65.95 C 52.20 54.35 52.90 42.69 52.51 31.07 C 52.55 28.65 51.03 26.68 49.78 24.74 C 47.58 26.55 46.03 29.03 46.33 31.98 M 23.84 26.27 C 28.38 32.80 33.73 38.70 38.42 45.11 C 35.73 50.04 32.23 54.47 29.38 59.31 C 33.90 54.94 37.73 49.93 41.51 44.92 C 38.19 40.56 33.79 37.15 30.69 32.61 C 35.35 35.36 39.04 39.39 43.44 42.50 C 43.33 40.32 44.53 37.26 41.88 36.20 C 35.98 32.70 29.91 29.48 23.84 26.27 M 38.73 27.78 C 40.25 29.57 42.10 31.05 44.20 32.10 C 42.87 30.11 40.92 28.69 38.73 27.78 M 57.47 28.19 C 56.35 28.66 55.21 29.65 55.14 30.94 C 56.22 33.22 60.48 27.87 57.47 28.19 M 28.73 65.94 C 33.19 62.39 37.44 58.55 41.57 54.61 C 43.79 52.94 43.20 50.00 43.37 47.58 C 38.02 53.30 33.20 59.52 28.73 65.94 M 54.59 54.22 C 56.33 56.16 58.67 57.32 61.17 57.95 C 59.17 56.39 56.95 55.13 54.59 54.22 M 37.00 62.11 C 39.67 60.79 42.13 59.03 44.07 56.75 C 41.31 57.94 38.94 59.83 37.00 62.11 Z" />
<path fill="#ffffff" opacity="1.00" d=" M 56.89 33.83 C 61.10 29.94 65.45 26.17 70.01 22.68 C 65.52 29.23 60.66 35.60 55.18 41.35 C 55.42 38.82 54.56 35.62 56.89 33.83 Z" />
<path fill="#ffffff" opacity="1.00" d=" M 46.33 31.98 C 46.03 29.03 47.58 26.55 49.78 24.74 C 51.03 26.68 52.55 28.65 52.51 31.07 C 52.90 42.69 52.20 54.35 53.16 65.95 C 55.92 66.07 58.69 66.19 61.44 66.47 C 59.44 69.48 55.11 67.71 52.18 69.11 C 51.38 71.02 51.15 73.10 50.72 75.11 C 50.13 75.10 48.96 75.08 48.37 75.07 C 47.92 73.06 47.63 71.00 46.86 69.08 C 43.78 68.05 39.98 69.04 37.51 66.54 C 40.26 66.19 43.03 66.08 45.80 66.00 C 46.38 54.67 46.16 43.32 46.33 31.98 Z" />
<path fill="#ffffff" opacity="1.00" d=" M 23.84 26.27 C 29.91 29.48 35.98 32.70 41.88 36.20 C 44.53 37.26 43.33 40.32 43.44 42.50 C 39.04 39.39 35.35 35.36 30.69 32.61 C 33.79 37.15 38.19 40.56 41.51 44.92 C 37.73 49.93 33.90 54.94 29.38 59.31 C 32.23 54.47 35.73 50.04 38.42 45.11 C 33.73 38.70 28.38 32.80 23.84 26.27 Z" />
<path fill="#ffffff" opacity="1.00" d=" M 38.73 27.78 C 40.92 28.69 42.87 30.11 44.20 32.10 C 42.10 31.05 40.25 29.57 38.73 27.78 Z" />
<path fill="#deecec" opacity="1.00" d=" M 57.47 28.19 C 60.48 27.87 56.22 33.22 55.14 30.94 C 55.21 29.65 56.35 28.66 57.47 28.19 Z" />
<path fill="#ffffff" opacity="1.00" d=" M 58.59 45.63 C 61.42 41.51 64.50 37.55 68.04 34.01 C 65.83 37.93 63.49 41.79 61.32 45.74 C 63.85 48.95 66.50 52.06 69.33 55.01 C 69.88 55.66 70.39 56.33 70.86 57.04 C 71.62 58.18 72.40 59.31 73.25 60.39 L 73.76 61.07 L 73.08 60.76 C 67.60 58.12 62.20 55.23 57.20 51.77 C 55.14 50.57 55.35 47.97 54.86 45.95 C 58.44 48.30 61.75 51.04 65.32 53.41 C 63.19 50.72 60.90 48.16 58.59 45.63 Z" />
<path fill="#ffffff" opacity="1.00" d=" M 28.73 65.94 C 33.20 59.52 38.02 53.30 43.37 47.58 C 43.20 50.00 43.79 52.94 41.57 54.61 C 37.44 58.55 33.19 62.39 28.73 65.94 Z" />
<path fill="#ffffff" opacity="1.00" d=" M 54.59 54.22 C 56.95 55.13 59.17 56.39 61.17 57.95 C 58.67 57.32 56.33 56.16 54.59 54.22 Z" />
<path fill="#328181" opacity="1.00" d=" M 70.86 57.04 C 72.20 54.86 75.06 59.07 73.25 60.39 C 72.40 59.31 71.62 58.18 70.86 57.04 Z" />
<path fill="#ffffff" opacity="1.00" d=" M 37.00 62.11 C 38.94 59.83 41.31 57.94 44.07 56.75 C 42.13 59.03 39.67 60.79 37.00 62.11 Z" />
</svg>
