<?xml version="1.0" encoding="UTF-8" ?>
<!DOCTYPE svg PUBLIC "-//W3C//DTD SVG 1.1//EN" "http://www.w3.org/Graphics/SVG/1.1/DTD/svg11.dtd">
<svg width="100pt" height="100pt" viewBox="0 0 100 100" version="1.1" xmlns="http://www.w3.org/2000/svg">
<path fill="#b8bebd" opacity="1.00" d=" M 52.86 14.49 C 57.13 13.73 60.05 10.00 64.05 8.56 C 67.96 9.02 71.65 10.55 75.37 11.74 C 79.29 12.77 81.04 16.75 83.38 19.66 C 86.42 23.34 87.20 28.19 89.67 32.19 C 87.62 34.79 85.54 37.36 83.52 39.98 C 85.51 46.19 88.02 52.24 89.81 58.52 C 76.45 67.33 63.30 76.44 50.00 85.33 C 36.70 76.44 23.55 67.32 10.19 58.52 C 11.60 51.58 16.42 45.25 15.32 37.94 C 15.21 33.54 14.64 28.99 15.72 24.68 C 18.55 21.86 22.01 19.71 24.62 16.64 C 26.47 14.38 29.98 15.06 32.02 13.01 C 33.91 11.70 35.38 9.26 37.93 9.46 C 39.95 9.38 41.98 9.45 43.98 9.74 C 47.42 10.28 49.56 13.70 52.86 14.49 M 54.20 16.31 C 51.54 17.41 49.44 14.92 47.34 13.71 C 44.51 11.37 40.59 11.03 37.12 11.80 C 34.39 13.36 32.30 15.83 29.50 17.30 C 25.25 19.54 20.86 21.92 17.78 25.71 C 16.68 30.78 16.09 36.83 19.44 41.22 C 17.70 46.53 15.64 51.73 13.92 57.04 C 19.03 61.06 24.63 64.39 29.95 68.10 C 36.65 72.56 43.13 77.33 50.00 81.51 C 56.06 77.84 61.77 73.66 67.66 69.73 C 73.75 65.43 80.19 61.63 86.08 57.04 C 84.49 51.60 81.98 46.46 80.53 40.99 C 82.10 37.68 84.92 35.15 87.04 32.18 C 84.87 25.87 81.96 19.64 77.04 15.00 C 74.26 13.02 70.82 12.26 67.58 11.36 C 62.35 9.37 58.92 15.23 54.20 16.31 Z" />
<path fill="#c40f24" opacity="1.00" d=" M 54.20 16.31 C 58.92 15.23 62.35 9.37 67.58 11.36 C 70.82 12.26 74.26 13.02 77.04 15.00 C 81.96 19.64 84.87 25.87 87.04 32.18 C 84.92 35.15 82.10 37.68 80.53 40.99 C 81.98 46.46 84.49 51.60 86.08 57.04 C 80.19 61.63 73.75 65.43 67.66 69.73 C 61.77 73.66 56.06 77.84 50.00 81.51 C 43.13 77.33 36.65 72.56 29.95 68.10 C 24.63 64.39 19.03 61.06 13.92 57.04 C 15.64 51.73 17.70 46.53 19.44 41.22 C 16.09 36.83 16.68 30.78 17.78 25.71 C 20.86 21.92 25.25 19.54 29.50 17.30 C 32.30 15.83 34.39 13.36 37.12 11.80 C 40.59 11.03 44.51 11.37 47.34 13.71 C 49.44 14.92 51.54 17.41 54.20 16.31 M 64.32 13.56 C 60.09 15.72 56.35 19.79 51.16 19.14 C 47.44 17.44 44.52 13.53 40.04 13.96 C 36.26 13.81 34.54 17.96 31.45 19.44 C 27.29 21.42 22.88 23.45 20.03 27.23 C 19.28 30.36 19.41 33.68 19.91 36.84 C 21.54 39.51 25.09 39.58 27.90 39.77 C 30.18 41.47 32.73 42.99 35.58 43.44 C 37.76 42.68 38.36 40.24 39.37 38.42 C 35.76 37.84 32.16 37.17 28.64 36.16 C 31.16 35.22 33.82 35.70 36.38 36.16 C 36.46 35.43 36.61 33.97 36.68 33.24 C 38.93 35.38 40.37 38.18 42.45 40.46 C 44.55 41.32 46.76 41.92 48.91 42.64 C 49.78 41.14 49.25 37.26 51.78 38.23 C 52.00 41.65 50.13 44.56 48.15 47.15 C 48.99 48.72 49.94 50.23 50.78 51.80 C 47.87 51.46 44.96 51.18 42.04 50.98 C 43.22 55.47 45.23 59.70 46.30 64.22 C 46.34 66.98 44.80 69.48 44.01 72.07 C 46.15 70.68 48.56 69.52 50.19 67.51 C 50.31 66.01 50.09 64.51 50.01 63.02 C 51.19 62.46 52.38 61.91 53.57 61.36 C 53.51 59.96 53.45 58.57 53.38 57.17 C 54.58 57.08 55.77 56.99 56.96 56.91 C 56.54 50.68 56.92 44.42 56.25 38.20 C 58.60 36.54 61.27 35.42 64.10 34.90 C 61.86 37.17 59.12 39.06 57.74 42.03 C 61.44 40.71 65.82 38.30 66.37 34.00 C 66.96 33.21 67.56 32.41 68.20 31.64 C 68.42 34.12 68.73 36.58 69.17 39.03 C 71.23 36.90 73.61 35.11 76.41 34.08 C 77.08 35.48 77.75 36.87 78.43 38.26 C 80.32 36.34 82.75 34.62 83.59 31.96 C 83.27 29.70 82.56 27.52 81.99 25.32 C 80.75 25.87 79.52 26.41 78.27 26.95 C 78.83 25.61 79.41 24.28 79.99 22.95 C 78.14 20.24 76.53 16.89 73.18 15.81 C 70.33 14.79 67.40 13.46 64.32 13.56 Z" />
<path fill="#ffffff" opacity="1.00" d=" M 64.32 13.56 C 67.40 13.46 70.33 14.79 73.18 15.81 C 76.53 16.89 78.14 20.24 79.99 22.95 C 79.41 24.28 78.83 25.61 78.27 26.95 C 79.52 26.41 80.75 25.87 81.99 25.32 C 82.56 27.52 83.27 29.70 83.59 31.96 C 82.75 34.62 80.32 36.34 78.43 38.26 C 77.75 36.87 77.08 35.48 76.41 34.08 C 73.61 35.11 71.23 36.90 69.17 39.03 C 68.73 36.58 68.42 34.12 68.20 31.64 C 69.67 29.45 72.22 28.53 74.56 27.60 C 73.48 29.69 72.26 31.72 70.98 33.71 C 74.54 31.82 78.54 31.95 82.42 32.27 C 80.99 30.52 78.87 29.90 76.68 29.94 C 76.33 28.43 75.98 26.91 75.63 25.39 C 73.39 26.13 71.15 26.86 68.94 27.66 C 69.36 25.73 69.80 23.81 70.23 21.89 C 66.92 26.39 61.39 27.77 56.45 29.67 C 57.33 30.45 58.20 31.23 59.07 32.01 C 57.74 32.45 56.41 32.89 55.10 33.37 C 53.98 32.40 52.98 31.29 51.85 30.33 C 49.68 32.99 46.73 34.77 43.40 35.59 C 43.56 36.62 43.72 37.66 43.89 38.70 C 48.05 36.93 52.43 35.81 56.74 34.47 C 59.74 33.82 60.09 30.16 62.34 28.61 C 63.65 28.63 64.96 28.68 66.28 28.71 C 66.34 30.47 66.41 32.24 66.37 34.00 C 65.82 38.30 61.44 40.71 57.74 42.03 C 59.12 39.06 61.86 37.17 64.10 34.90 C 61.27 35.42 58.60 36.54 56.25 38.20 C 56.92 44.42 56.54 50.68 56.96 56.91 C 55.77 56.99 54.58 57.08 53.38 57.17 C 53.45 58.57 53.51 59.96 53.57 61.36 C 52.38 61.91 51.19 62.46 50.01 63.02 C 50.09 64.51 50.31 66.01 50.19 67.51 C 48.56 69.52 46.15 70.68 44.01 72.07 C 44.80 69.48 46.34 66.98 46.30 64.22 C 45.23 59.70 43.22 55.47 42.04 50.98 C 44.96 51.18 47.87 51.46 50.78 51.80 C 49.94 50.23 48.99 48.72 48.15 47.15 C 50.13 44.56 52.00 41.65 51.78 38.23 C 49.25 37.26 49.78 41.14 48.91 42.64 C 46.76 41.92 44.55 41.32 42.45 40.46 C 40.37 38.18 38.93 35.38 36.68 33.24 C 36.61 33.97 36.46 35.43 36.38 36.16 C 33.82 35.70 31.16 35.22 28.64 36.16 C 32.16 37.17 35.76 37.84 39.37 38.42 C 38.36 40.24 37.76 42.68 35.58 43.44 C 32.73 42.99 30.18 41.47 27.90 39.77 C 25.09 39.58 21.54 39.51 19.91 36.84 C 19.41 33.68 19.28 30.36 20.03 27.23 C 22.88 23.45 27.29 21.42 31.45 19.44 C 34.54 17.96 36.26 13.81 40.04 13.96 C 44.52 13.53 47.44 17.44 51.16 19.14 C 56.35 19.79 60.09 15.72 64.32 13.56 M 44.29 23.41 C 43.03 23.54 41.53 25.11 42.24 26.37 C 43.69 27.21 46.12 24.11 44.29 23.41 M 32.27 24.98 C 32.40 28.32 35.25 23.43 32.27 24.98 M 51.25 25.91 C 49.62 26.34 50.38 29.01 52.00 28.30 C 53.62 27.88 52.86 25.19 51.25 25.91 M 46.38 28.20 C 46.47 31.54 49.37 26.68 46.38 28.20 M 26.76 30.84 C 28.93 30.72 32.03 31.77 33.28 29.34 C 31.12 29.59 28.02 28.45 26.76 30.84 M 22.51 34.36 C 21.65 35.92 24.29 37.62 25.56 36.58 C 26.41 35.02 23.76 33.39 22.51 34.36 M 50.09 46.54 C 49.13 47.67 49.38 48.31 50.84 48.45 C 51.79 47.31 51.54 46.67 50.09 46.54 M 47.12 55.00 C 47.46 56.40 47.82 57.79 48.18 59.17 C 49.18 58.36 50.75 57.87 50.82 56.36 C 49.60 55.85 48.36 55.44 47.12 55.00 M 51.23 59.08 C 50.98 59.39 50.48 60.01 50.23 60.31 C 51.07 63.82 55.02 58.54 51.23 59.08 Z" />
<path fill="#bf000f" opacity="1.00" d=" M 56.45 29.67 C 61.39 27.77 66.92 26.39 70.23 21.89 C 69.80 23.81 69.36 25.73 68.94 27.66 C 71.15 26.86 73.39 26.13 75.63 25.39 C 75.98 26.91 76.33 28.43 76.68 29.94 C 78.87 29.90 80.99 30.52 82.42 32.27 C 78.54 31.95 74.54 31.82 70.98 33.71 C 72.26 31.72 73.48 29.69 74.56 27.60 C 72.22 28.53 69.67 29.45 68.20 31.64 C 67.56 32.41 66.96 33.21 66.37 34.00 C 66.41 32.24 66.34 30.47 66.28 28.71 C 64.96 28.68 63.65 28.63 62.34 28.61 C 60.09 30.16 59.74 33.82 56.74 34.47 C 52.43 35.81 48.05 36.93 43.89 38.70 C 43.72 37.66 43.56 36.62 43.40 35.59 C 46.73 34.77 49.68 32.99 51.85 30.33 C 52.98 31.29 53.98 32.40 55.10 33.37 C 56.41 32.89 57.74 32.45 59.07 32.01 C 58.20 31.23 57.33 30.45 56.45 29.67 Z" />
<path fill="#e38c96" opacity="1.00" d=" M 44.29 23.41 C 46.12 24.11 43.69 27.21 42.24 26.37 C 41.53 25.11 43.03 23.54 44.29 23.41 Z" />
<path fill="#cf3d4e" opacity="1.00" d=" M 32.27 24.98 C 35.25 23.43 32.40 28.32 32.27 24.98 Z" />
<path fill="#bf000f" opacity="1.00" d=" M 51.25 25.91 C 52.86 25.19 53.62 27.88 52.00 28.30 C 50.38 29.01 49.62 26.34 51.25 25.91 Z" />
<path fill="#d44f5e" opacity="1.00" d=" M 46.38 28.20 C 49.37 26.68 46.47 31.54 46.38 28.20 Z" />
<path fill="#bf000f" opacity="1.00" d=" M 26.76 30.84 C 28.02 28.45 31.12 29.59 33.28 29.34 C 32.03 31.77 28.93 30.72 26.76 30.84 Z" />
<path fill="#bf000f" opacity="1.00" d=" M 22.51 34.36 C 23.76 33.39 26.41 35.02 25.56 36.58 C 24.29 37.62 21.65 35.92 22.51 34.36 Z" />
<path fill="#c12029" opacity="1.00" d=" M 50.09 46.54 C 51.54 46.67 51.79 47.31 50.84 48.45 C 49.38 48.31 49.13 47.67 50.09 46.54 Z" />
<path fill="#bf000f" opacity="1.00" d=" M 47.12 55.00 C 48.36 55.44 49.60 55.85 50.82 56.36 C 50.75 57.87 49.18 58.36 48.18 59.17 C 47.82 57.79 47.46 56.40 47.12 55.00 Z" />
<path fill="#c1141f" opacity="1.00" d=" M 51.23 59.08 C 55.02 58.54 51.07 63.82 50.23 60.31 C 50.48 60.01 50.98 59.39 51.23 59.08 Z" />
</svg>
