<?xml version="1.0" encoding="UTF-8" ?>
<!DOCTYPE svg PUBLIC "-//W3C//DTD SVG 1.1//EN" "http://www.w3.org/Graphics/SVG/1.1/DTD/svg11.dtd">
<svg width="100pt" height="100pt" viewBox="0 0 100 100" version="1.1" xmlns="http://www.w3.org/2000/svg">
<path fill="#bbc5be" opacity="1.00" d=" M 18.86 31.83 C 22.28 26.60 22.39 19.79 25.98 14.66 C 41.99 14.40 58.04 14.41 74.05 14.65 C 77.41 19.64 77.77 26.01 80.73 31.21 C 83.55 33.36 86.95 34.61 89.97 36.44 C 87.90 37.78 85.80 39.09 83.68 40.37 C 85.71 46.41 87.86 52.41 89.89 58.45 C 83.94 62.33 78.09 66.34 72.22 70.33 C 72.48 72.03 72.71 73.74 72.99 75.43 C 70.46 74.84 67.53 73.14 65.17 75.08 C 60.05 78.36 55.12 81.93 50.08 85.32 C 47.68 83.74 45.25 82.22 42.74 80.82 C 38.20 78.36 34.83 74.03 29.93 72.19 C 27.31 72.52 24.83 73.49 22.31 74.24 C 22.73 72.17 23.24 70.10 23.46 68.00 C 19.61 64.08 14.58 61.59 10.11 58.47 C 12.15 52.37 14.31 46.31 16.39 40.22 C 14.37 38.71 12.35 37.19 10.37 35.63 C 13.20 34.39 16.26 33.56 18.86 31.83 M 22.47 31.54 C 20.33 34.08 16.82 34.82 13.94 36.26 C 15.87 37.40 17.76 38.61 19.70 39.73 C 17.96 45.59 15.92 51.35 13.84 57.09 C 17.63 59.97 21.94 62.19 25.41 65.48 C 25.61 67.52 25.26 69.56 25.09 71.59 C 27.26 70.87 29.40 69.79 31.72 69.71 C 34.60 70.76 36.85 72.96 39.25 74.79 C 42.52 77.55 46.39 79.41 50.11 81.47 C 54.75 78.72 58.99 75.35 63.61 72.57 C 65.57 71.24 67.97 72.01 70.14 72.21 C 70.58 69.99 70.87 67.38 73.02 66.11 C 77.33 63.00 81.93 60.32 86.15 57.08 C 84.08 51.34 82.06 45.57 80.27 39.74 C 82.37 38.79 84.36 37.60 86.44 36.62 C 83.48 34.93 79.96 33.96 77.56 31.46 C 75.15 27.12 74.11 22.18 72.22 17.61 C 57.41 17.59 42.60 17.60 27.80 17.61 C 25.90 22.21 24.78 27.12 22.47 31.54 Z" />
<path fill="#941271" opacity="1.00" d=" M 22.47 31.54 C 24.78 27.12 25.90 22.21 27.80 17.61 C 42.60 17.60 57.41 17.59 72.22 17.61 C 74.11 22.18 75.15 27.12 77.56 31.46 C 79.96 33.96 83.48 34.93 86.44 36.62 C 84.36 37.60 82.37 38.79 80.27 39.74 C 82.06 45.57 84.08 51.34 86.15 57.08 C 81.93 60.32 77.33 63.00 73.02 66.11 C 70.87 67.38 70.58 69.99 70.14 72.21 C 67.97 72.01 65.57 71.24 63.61 72.57 C 58.99 75.35 54.75 78.72 50.11 81.47 C 46.39 79.41 42.52 77.55 39.25 74.79 C 36.85 72.96 34.60 70.76 31.72 69.71 C 29.40 69.79 27.26 70.87 25.09 71.59 C 25.26 69.56 25.61 67.52 25.41 65.48 C 21.94 62.19 17.63 59.97 13.84 57.09 C 15.92 51.35 17.96 45.59 19.70 39.73 C 17.76 38.61 15.87 37.40 13.94 36.26 C 16.82 34.82 20.33 34.08 22.47 31.54 M 33.80 29.79 C 28.98 33.04 23.51 35.13 17.95 36.71 C 24.70 38.62 31.67 40.42 37.50 44.50 C 41.20 47.09 45.28 49.75 50.00 49.53 C 54.97 49.67 59.12 46.67 63.08 44.09 C 68.81 40.31 75.53 38.57 82.05 36.71 C 76.73 35.17 71.47 33.23 66.82 30.17 C 61.60 26.92 56.54 22.34 50.00 22.46 C 43.69 22.19 38.78 26.61 33.80 29.79 M 25.12 41.11 C 24.24 44.44 23.26 47.83 21.11 50.60 C 25.20 53.82 27.16 58.81 30.15 62.94 C 29.32 64.68 28.47 66.42 27.64 68.16 C 29.70 67.36 31.66 66.17 33.87 65.84 C 36.61 66.30 39.14 67.50 41.77 68.32 C 41.86 70.56 42.06 72.80 42.17 75.04 C 43.15 73.29 44.17 71.56 45.12 69.80 C 51.52 69.98 57.95 69.31 63.87 66.75 C 65.48 67.88 67.05 69.06 68.68 70.17 C 68.15 68.51 67.60 66.86 67.06 65.21 C 69.83 62.55 72.52 59.81 75.10 56.97 C 76.20 57.27 77.30 57.57 78.41 57.87 C 77.48 55.97 76.46 53.95 76.92 51.76 C 77.40 48.12 76.98 44.47 76.07 40.93 C 74.46 41.60 72.84 42.27 71.24 42.94 C 71.74 45.10 72.19 47.28 72.72 49.43 C 70.14 52.21 68.29 55.60 67.86 59.40 C 62.74 61.06 57.94 63.58 52.69 64.82 C 52.08 66.21 51.47 67.60 50.86 68.99 C 48.94 66.19 46.45 63.74 42.99 63.03 C 37.42 61.71 33.41 57.28 28.03 55.55 C 29.08 51.48 28.74 47.26 28.84 43.11 C 27.60 42.44 26.36 41.78 25.12 41.11 M 59.91 53.95 C 54.23 57.48 46.30 58.46 40.62 54.41 C 36.91 52.04 35.11 47.89 32.69 44.40 C 32.47 47.42 32.33 50.46 31.73 53.43 C 36.53 54.26 40.57 57.16 45.01 59.00 C 48.05 59.97 49.02 63.26 50.44 65.77 C 51.22 63.84 51.42 61.49 52.92 59.97 C 56.77 57.60 61.37 55.93 65.89 57.32 C 65.39 56.27 64.92 55.22 64.46 54.17 C 65.98 52.35 67.71 50.62 68.75 48.46 C 68.96 46.89 68.74 45.31 68.67 43.74 C 65.94 47.29 63.85 51.54 59.91 53.95 Z" />
<path fill="#ffffff" opacity="1.00" d=" M 33.80 29.79 C 38.78 26.61 43.69 22.19 50.00 22.46 C 56.54 22.34 61.60 26.92 66.82 30.17 C 71.47 33.23 76.73 35.17 82.05 36.71 C 75.53 38.57 68.81 40.31 63.08 44.09 C 59.12 46.67 54.97 49.67 50.00 49.53 C 45.28 49.75 41.20 47.09 37.50 44.50 C 31.67 40.42 24.70 38.62 17.95 36.71 C 23.51 35.13 28.98 33.04 33.80 29.79 M 31.58 34.56 C 43.86 34.67 56.15 34.67 68.43 34.55 C 63.09 31.15 58.16 26.48 51.77 25.24 C 43.78 24.18 37.84 30.74 31.58 34.56 M 29.60 37.06 C 34.26 39.41 38.74 42.08 43.10 44.92 C 47.22 47.58 52.75 47.44 56.86 44.84 C 61.28 42.07 65.76 39.42 70.42 37.06 C 65.79 36.92 61.16 37.00 56.54 37.15 C 55.31 40.09 53.90 44.27 49.94 43.98 C 45.91 44.43 44.39 40.21 43.32 37.16 C 38.75 37.00 34.17 36.92 29.60 37.06 Z" />
<path fill="#941271" opacity="1.00" d=" M 31.58 34.56 C 37.84 30.74 43.78 24.18 51.77 25.24 C 58.16 26.48 63.09 31.15 68.43 34.55 C 56.15 34.67 43.86 34.67 31.58 34.56 Z" />
<path fill="#920c6e" opacity="1.00" d=" M 29.60 37.06 C 34.17 36.92 38.75 37.00 43.32 37.16 C 44.39 40.21 45.91 44.43 49.94 43.98 C 53.90 44.27 55.31 40.09 56.54 37.15 C 61.16 37.00 65.79 36.92 70.42 37.06 C 65.76 39.42 61.28 42.07 56.86 44.84 C 52.75 47.44 47.22 47.58 43.10 44.92 C 38.74 42.08 34.26 39.41 29.60 37.06 Z" />
<path fill="#ffffff" opacity="1.00" d=" M 25.12 41.11 C 26.36 41.78 27.60 42.44 28.84 43.11 C 28.74 47.26 29.08 51.48 28.03 55.55 C 33.41 57.28 37.42 61.71 42.99 63.03 C 46.45 63.74 48.94 66.19 50.86 68.99 C 51.47 67.60 52.08 66.21 52.69 64.82 C 57.94 63.58 62.74 61.06 67.86 59.40 C 68.29 55.60 70.14 52.21 72.72 49.43 C 72.19 47.28 71.74 45.10 71.24 42.94 C 72.84 42.27 74.46 41.60 76.07 40.93 C 76.98 44.47 77.40 48.12 76.92 51.76 C 76.46 53.95 77.48 55.97 78.41 57.87 C 77.30 57.57 76.20 57.27 75.10 56.97 C 72.52 59.81 69.83 62.55 67.06 65.21 C 67.60 66.86 68.15 68.51 68.68 70.17 C 67.05 69.06 65.48 67.88 63.87 66.75 C 57.95 69.31 51.52 69.98 45.12 69.80 C 44.17 71.56 43.15 73.29 42.17 75.04 C 42.06 72.80 41.86 70.56 41.77 68.32 C 39.14 67.50 36.61 66.30 33.87 65.84 C 31.66 66.17 29.70 67.36 27.64 68.16 C 28.47 66.42 29.32 64.68 30.15 62.94 C 27.16 58.81 25.20 53.82 21.11 50.60 C 23.26 47.83 24.24 44.44 25.12 41.11 Z" />
<path fill="#ffffff" opacity="1.00" d=" M 59.91 53.95 C 63.85 51.54 65.94 47.29 68.67 43.74 C 68.74 45.31 68.96 46.89 68.75 48.46 C 67.71 50.62 65.98 52.35 64.46 54.17 C 64.92 55.22 65.39 56.27 65.89 57.32 C 61.37 55.93 56.77 57.60 52.92 59.97 C 51.42 61.49 51.22 63.84 50.44 65.77 C 49.02 63.26 48.05 59.97 45.01 59.00 C 40.57 57.16 36.53 54.26 31.73 53.43 C 32.33 50.46 32.47 47.42 32.69 44.40 C 35.11 47.89 36.91 52.04 40.62 54.41 C 46.30 58.46 54.23 57.48 59.91 53.95 Z" />
</svg>
