<?xml version="1.0" encoding="UTF-8" ?>
<!DOCTYPE svg PUBLIC "-//W3C//DTD SVG 1.1//EN" "http://www.w3.org/Graphics/SVG/1.1/DTD/svg11.dtd">
<svg width="100pt" height="100pt" viewBox="0 0 100 100" version="1.1" xmlns="http://www.w3.org/2000/svg">
<path fill="#b7b7b7" opacity="1.00" d=" M 44.44 9.72 C 54.29 8.26 64.47 10.65 72.78 16.08 C 90.23 26.39 97.77 50.57 88.88 68.87 C 85.92 75.45 81.02 80.96 75.54 85.56 C 68.48 91.02 59.62 93.48 50.91 94.71 C 39.72 93.72 28.54 89.54 20.40 81.59 C 12.62 73.41 7.74 62.34 7.70 50.99 C 8.28 40.34 12.63 29.80 20.20 22.21 C 26.52 15.40 35.38 11.29 44.44 9.72 M 43.35 13.29 C 28.22 15.85 15.38 28.22 12.22 43.23 C 11.15 48.67 11.14 54.33 12.16 59.78 C 14.46 71.16 22.28 81.15 32.59 86.41 C 43.34 92.08 56.81 92.08 67.65 86.64 C 80.89 80.15 89.68 65.73 89.39 50.99 C 89.14 39.58 83.66 28.39 74.71 21.28 C 66.07 14.25 54.31 11.20 43.35 13.29 Z" />
<path fill="#1a1a1a" opacity="1.00" d=" M 43.35 13.29 C 54.31 11.20 66.07 14.25 74.71 21.28 C 83.66 28.39 89.14 39.58 89.39 50.99 C 89.68 65.73 80.89 80.15 67.65 86.64 C 56.81 92.08 43.34 92.08 32.59 86.41 C 22.28 81.15 14.46 71.16 12.16 59.78 C 11.14 54.33 11.15 48.67 12.22 43.23 C 15.38 28.22 28.22 15.85 43.35 13.29 M 45.34 24.28 C 38.09 25.79 31.38 30.09 27.31 36.32 C 22.07 44.11 21.07 54.55 24.77 63.18 C 29.53 74.82 42.51 82.28 54.98 80.19 C 70.35 78.43 81.98 62.35 78.83 47.19 C 76.63 31.95 60.34 20.81 45.34 24.28 Z" />
<path fill="#ab4040" opacity="1.00" d=" M 45.34 24.28 C 60.34 20.81 76.63 31.95 78.83 47.19 C 81.98 62.35 70.35 78.43 54.98 80.19 C 42.51 82.28 29.53 74.82 24.77 63.18 C 21.07 54.55 22.07 44.11 27.31 36.32 C 31.38 30.09 38.09 25.79 45.34 24.28 M 37.50 33.94 C 42.30 39.64 47.89 44.59 53.07 49.93 C 58.41 55.11 63.34 60.71 69.07 65.47 C 71.71 61.12 73.78 56.20 73.35 50.99 C 72.98 39.49 62.51 29.48 51.00 29.63 C 46.12 29.43 41.61 31.52 37.50 33.94 M 28.59 53.03 C 28.67 64.31 38.71 74.33 49.97 74.44 C 55.16 74.86 60.11 72.96 64.36 70.14 C 59.22 64.13 53.30 58.87 47.80 53.20 C 42.84 48.34 38.20 43.14 32.87 38.67 C 30.03 42.90 28.17 47.86 28.59 53.03 Z" />
<path fill="#1a1a1a" opacity="1.00" d=" M 37.50 33.94 C 41.61 31.52 46.12 29.43 51.00 29.63 C 62.51 29.48 72.98 39.49 73.35 50.99 C 73.78 56.20 71.71 61.12 69.07 65.47 C 63.34 60.71 58.41 55.11 53.07 49.93 C 47.89 44.59 42.30 39.64 37.50 33.94 Z" />
<path fill="#1a1a1a" opacity="1.00" d=" M 28.59 53.03 C 28.17 47.86 30.03 42.90 32.87 38.67 C 38.20 43.14 42.84 48.34 47.80 53.20 C 53.30 58.87 59.22 64.13 64.36 70.14 C 60.11 72.96 55.16 74.86 49.97 74.44 C 38.71 74.33 28.67 64.31 28.59 53.03 Z" />
</svg>
