<?xml version="1.0" encoding="UTF-8" ?>
<!DOCTYPE svg PUBLIC "-//W3C//DTD SVG 1.1//EN" "http://www.w3.org/Graphics/SVG/1.1/DTD/svg11.dtd">
<svg width="100pt" height="100pt" viewBox="0 0 100 100" version="1.1" xmlns="http://www.w3.org/2000/svg">
<path fill="#b6b6b6" opacity="1.00" d=" M 45.35 7.17 C 55.21 5.87 65.15 9.38 73.45 14.51 C 81.34 20.51 88.01 28.72 90.55 38.44 C 93.43 49.85 91.94 62.50 85.39 72.41 C 80.66 80.69 72.42 86.35 63.66 89.71 C 54.85 92.65 45.05 92.63 36.19 89.87 C 22.37 85.30 11.42 73.15 8.15 58.98 C 5.08 48.34 7.78 36.71 13.50 27.46 C 20.17 16.21 32.47 8.78 45.35 7.17 M 41.39 11.39 C 28.28 14.06 17.03 24.03 12.66 36.65 C 8.74 47.95 10.14 61.12 16.91 71.07 C 26.05 85.15 44.83 92.43 60.92 87.00 C 78.20 82.00 90.51 63.96 88.57 46.02 C 87.45 33.61 79.95 22.06 69.20 15.80 C 60.93 10.84 50.78 9.53 41.39 11.39 Z" />
<path fill="#1a1a1a" opacity="1.00" d=" M 41.39 11.39 C 50.78 9.53 60.93 10.84 69.20 15.80 C 79.95 22.06 87.45 33.61 88.57 46.02 C 90.51 63.96 78.20 82.00 60.92 87.00 C 44.83 92.43 26.05 85.15 16.91 71.07 C 10.14 61.12 8.74 47.95 12.66 36.65 C 17.03 24.03 28.28 14.06 41.39 11.39 M 43.38 22.42 C 32.92 24.85 24.40 33.71 22.29 44.22 C 19.93 54.81 24.46 66.43 33.15 72.84 C 43.75 80.87 60.16 80.10 69.69 70.69 C 78.54 62.64 81.07 48.79 75.97 38.01 C 70.63 25.90 56.17 19.04 43.38 22.42 Z" />
<path fill="#ab4040" opacity="1.00" d=" M 43.38 22.42 C 56.17 19.04 70.63 25.90 75.97 38.01 C 81.07 48.79 78.54 62.64 69.69 70.69 C 60.16 80.10 43.75 80.87 33.15 72.84 C 24.46 66.43 19.93 54.81 22.29 44.22 C 24.40 33.71 32.92 24.85 43.38 22.42 M 36.72 31.47 C 39.28 34.81 42.03 38.02 45.15 40.85 C 53.01 48.25 60.21 56.34 68.27 63.54 C 70.65 59.40 72.92 54.91 72.69 50.00 C 72.86 39.34 64.40 29.53 53.91 27.88 C 47.93 26.55 42.02 28.89 36.72 31.47 M 31.97 36.54 C 29.42 40.93 27.26 45.82 27.76 51.03 C 27.94 61.52 36.56 70.89 46.91 72.26 C 52.82 73.41 58.65 71.16 63.65 68.17 C 58.74 62.48 53.21 57.39 47.93 52.07 C 42.66 46.84 37.63 41.36 31.97 36.54 Z" />
<path fill="#1a1a1a" opacity="1.00" d=" M 36.72 31.47 C 42.02 28.89 47.93 26.55 53.91 27.88 C 64.40 29.53 72.86 39.34 72.69 50.00 C 72.92 54.91 70.65 59.40 68.27 63.54 C 60.21 56.34 53.01 48.25 45.15 40.85 C 42.03 38.02 39.28 34.81 36.72 31.47 Z" />
<path fill="#1a1a1a" opacity="1.00" d=" M 31.97 36.54 C 37.63 41.36 42.66 46.84 47.93 52.07 C 53.21 57.39 58.74 62.48 63.65 68.17 C 58.65 71.16 52.82 73.41 46.91 72.26 C 36.56 70.89 27.94 61.52 27.76 51.03 C 27.26 45.82 29.42 40.93 31.97 36.54 Z" />
</svg>
