<?xml version="1.0" encoding="UTF-8" ?>
<!DOCTYPE svg PUBLIC "-//W3C//DTD SVG 1.1//EN" "http://www.w3.org/Graphics/SVG/1.1/DTD/svg11.dtd">
<svg width="100pt" height="100pt" viewBox="0 0 100 100" version="1.1" xmlns="http://www.w3.org/2000/svg">
<path fill="#ffffff" opacity="1.00" d=" M 42.46 12.61 C 60.89 8.25 81.23 20.57 86.41 38.72 C 91.91 54.41 84.75 73.01 70.91 81.89 C 61.52 87.92 49.45 90.22 38.77 86.42 C 20.06 81.13 7.61 59.75 12.96 40.94 C 16.23 26.82 28.24 15.35 42.46 12.61 M 45.40 15.59 C 37.44 16.59 29.92 20.56 24.51 26.48 C 13.43 38.02 12.20 57.38 21.80 70.19 C 30.96 83.58 50.00 88.58 64.58 81.52 C 79.41 74.90 87.99 57.09 83.63 41.39 C 79.68 24.81 62.31 12.93 45.40 15.59 Z" />
<path fill="#482b46" opacity="1.00" d=" M 45.40 15.59 C 62.31 12.93 79.68 24.81 83.63 41.39 C 87.99 57.09 79.41 74.90 64.58 81.52 C 50.00 88.58 30.96 83.58 21.80 70.19 C 12.20 57.38 13.43 38.02 24.51 26.48 C 29.92 20.56 37.44 16.59 45.40 15.59 M 50.26 19.45 C 50.61 24.84 51.26 30.62 48.64 35.60 C 47.04 39.04 43.32 40.50 40.14 42.08 C 44.45 44.60 47.53 48.60 49.79 52.98 C 52.38 47.69 56.69 43.30 58.46 37.63 C 59.73 30.50 55.11 24.14 50.26 19.45 M 18.67 48.18 C 23.82 48.72 29.33 49.11 33.66 52.27 C 37.00 54.35 39.37 57.90 43.15 59.22 C 45.17 59.29 47.05 58.38 48.96 57.83 C 45.53 53.43 43.99 46.92 38.35 44.74 C 31.66 42.28 24.61 45.04 18.67 48.18 M 68.29 51.14 C 63.78 52.36 59.18 51.00 54.81 49.85 C 53.91 52.05 53.02 54.26 52.10 56.45 C 56.13 57.48 59.96 59.27 64.08 59.97 C 67.99 60.48 72.68 59.41 74.71 55.70 C 76.65 52.11 77.43 48.04 78.87 44.23 C 75.78 47.10 72.50 50.11 68.29 51.14 M 45.21 68.60 C 46.28 71.96 49.29 74.08 51.90 76.21 C 52.88 70.96 54.86 65.99 57.57 61.41 C 55.15 60.69 52.69 59.58 50.13 59.92 C 46.24 60.42 43.95 65.07 45.21 68.60 Z" />
<path fill="#ffffff" opacity="1.00" d=" M 50.26 19.45 C 55.11 24.14 59.73 30.50 58.46 37.63 C 56.69 43.30 52.38 47.69 49.79 52.98 C 47.53 48.60 44.45 44.60 40.14 42.08 C 43.32 40.50 47.04 39.04 48.64 35.60 C 51.26 30.62 50.61 24.84 50.26 19.45 Z" />
<path fill="#ffffff" opacity="1.00" d=" M 18.67 48.18 C 24.61 45.04 31.66 42.28 38.35 44.74 C 43.99 46.92 45.53 53.43 48.96 57.83 C 47.05 58.38 45.17 59.29 43.15 59.22 C 39.37 57.90 37.00 54.35 33.66 52.27 C 29.33 49.11 23.82 48.72 18.67 48.18 Z" />
<path fill="#ffffff" opacity="1.00" d=" M 68.29 51.14 C 72.50 50.11 75.78 47.10 78.87 44.23 C 77.43 48.04 76.65 52.11 74.71 55.70 C 72.68 59.41 67.99 60.48 64.08 59.97 C 59.96 59.27 56.13 57.48 52.10 56.45 C 53.02 54.26 53.91 52.05 54.81 49.85 C 59.18 51.00 63.78 52.36 68.29 51.14 Z" />
<path fill="#ffffff" opacity="1.00" d=" M 45.21 68.60 C 43.95 65.07 46.24 60.42 50.13 59.92 C 52.69 59.58 55.15 60.69 57.57 61.41 C 54.86 65.99 52.88 70.96 51.90 76.21 C 49.29 74.08 46.28 71.96 45.21 68.60 Z" />
</svg>
