<?xml version="1.0" encoding="UTF-8" ?>
<!DOCTYPE svg PUBLIC "-//W3C//DTD SVG 1.1//EN" "http://www.w3.org/Graphics/SVG/1.1/DTD/svg11.dtd">
<svg width="100pt" height="100pt" viewBox="0 0 100 100" version="1.1" xmlns="http://www.w3.org/2000/svg">
<path fill="#bab9b9" opacity="1.00" d=" M 49.49 8.71 C 52.78 16.03 54.72 23.87 57.79 31.26 C 60.79 36.19 63.94 41.21 68.07 45.27 C 76.82 44.69 85.54 43.15 94.36 43.63 C 89.02 49.09 83.19 54.05 76.96 58.47 C 81.88 65.63 87.05 72.62 92.03 79.74 C 81.33 79.69 70.63 79.79 59.93 79.61 C 58.55 79.70 56.77 79.38 55.94 80.83 C 53.54 83.91 51.77 87.42 49.64 90.69 C 47.39 87.42 45.48 83.93 43.09 80.76 C 42.27 79.38 40.39 79.79 39.06 79.59 C 28.66 79.50 18.26 79.48 7.86 79.51 C 12.75 72.57 17.56 65.58 22.50 58.69 C 16.50 54.00 10.49 49.27 5.31 43.65 C 14.17 43.00 22.94 45.02 31.73 45.06 C 36.42 39.06 41.45 32.91 43.51 25.42 C 45.28 19.77 47.35 14.23 49.49 8.71 M 43.61 31.64 C 41.69 37.75 37.43 42.63 33.76 47.72 C 26.04 46.83 18.32 45.61 10.52 45.77 C 15.16 50.79 20.83 54.64 26.13 58.91 C 21.98 64.77 17.75 70.56 13.90 76.62 C 23.60 76.73 33.29 76.56 42.99 76.69 C 45.19 80.11 47.35 83.57 49.65 86.94 C 51.79 83.54 53.87 80.10 56.01 76.70 C 66.05 76.55 76.10 76.74 86.14 76.61 C 82.21 70.50 77.80 64.72 73.51 58.87 C 78.77 54.55 84.40 50.65 89.17 45.76 C 81.24 45.58 73.40 46.93 65.53 47.68 C 61.94 42.49 57.37 37.79 55.46 31.64 C 53.63 25.96 52.00 20.21 49.60 14.73 C 47.12 20.19 45.43 25.95 43.61 31.64 Z" />
<path fill="#217a7a" opacity="1.00" d=" M 43.61 31.64 C 45.43 25.95 47.12 20.19 49.60 14.73 C 52.00 20.21 53.63 25.96 55.46 31.64 C 57.37 37.79 61.94 42.49 65.53 47.68 C 73.40 46.93 81.24 45.58 89.17 45.76 C 84.40 50.65 78.77 54.55 73.51 58.87 C 77.80 64.72 82.21 70.50 86.14 76.61 C 76.10 76.74 66.05 76.55 56.01 76.70 C 53.87 80.10 51.79 83.54 49.65 86.94 C 47.35 83.57 45.19 80.11 42.99 76.69 C 33.29 76.56 23.60 76.73 13.90 76.62 C 17.75 70.56 21.98 64.77 26.13 58.91 C 20.83 54.64 15.16 50.79 10.52 45.77 C 18.32 45.61 26.04 46.83 33.76 47.72 C 37.43 42.63 41.69 37.75 43.61 31.64 M 40.96 47.63 C 45.93 46.98 51.11 46.93 56.01 48.11 C 56.49 47.77 57.45 47.09 57.93 46.75 C 55.20 38.11 52.53 29.44 49.62 20.85 C 46.42 29.67 43.62 38.64 40.96 47.63 M 15.97 48.04 C 21.23 52.12 26.56 56.12 31.85 60.16 C 33.17 60.90 34.51 62.61 36.17 61.77 C 37.02 58.11 37.79 54.42 38.97 50.85 C 31.31 49.87 23.67 48.71 15.97 48.04 M 37.98 60.03 C 37.86 67.50 46.18 74.14 53.37 71.33 C 56.94 70.32 58.72 66.88 60.37 63.88 C 61.13 63.39 61.90 62.91 62.66 62.43 C 64.79 61.29 67.20 60.69 69.08 59.10 C 73.77 55.39 78.66 51.92 83.23 48.05 C 75.22 48.73 67.26 49.91 59.30 51.01 L 59.57 51.79 L 59.31 52.73 C 55.96 50.64 52.49 47.71 48.26 48.36 C 42.48 48.82 37.59 54.18 37.98 60.03 M 42.98 71.98 C 45.20 75.37 47.33 78.83 49.63 82.17 C 51.72 78.85 53.77 75.50 56.00 72.26 C 51.70 73.45 47.23 73.27 42.98 71.98 Z" />
<path fill="#ffffff" opacity="1.00" d=" M 40.96 47.63 C 43.62 38.64 46.42 29.67 49.62 20.85 C 52.53 29.44 55.20 38.11 57.93 46.75 C 57.45 47.09 56.49 47.77 56.01 48.11 C 51.11 46.93 45.93 46.98 40.96 47.63 Z" />
<path fill="#ffffff" opacity="1.00" d=" M 15.97 48.04 C 23.67 48.71 31.31 49.87 38.97 50.85 C 37.79 54.42 37.02 58.11 36.17 61.77 C 34.51 62.61 33.17 60.90 31.85 60.16 C 26.56 56.12 21.23 52.12 15.97 48.04 Z" />
<path fill="#ffffff" opacity="1.00" d=" M 37.98 60.03 C 37.59 54.18 42.48 48.82 48.26 48.36 C 52.49 47.71 55.96 50.64 59.31 52.73 C 59.16 53.28 58.85 54.39 58.69 54.94 C 55.95 52.37 52.47 49.81 48.48 50.42 C 43.50 50.81 39.40 55.27 39.20 60.22 C 39.49 62.62 40.43 64.89 41.12 67.19 C 44.01 64.54 46.79 61.78 49.54 58.99 C 52.19 61.26 54.82 63.55 57.44 65.86 C 58.24 65.31 59.05 64.76 59.85 64.22 L 60.37 63.88 C 58.72 66.88 56.94 70.32 53.37 71.33 C 46.18 74.14 37.86 67.50 37.98 60.03 M 42.54 68.39 C 45.23 69.24 48.01 70.90 50.90 70.03 C 52.93 69.57 54.83 68.74 56.76 67.98 C 54.57 65.43 52.27 62.97 50.00 60.49 C 47.48 63.09 44.99 65.71 42.54 68.39 Z" />
<path fill="#ffffff" opacity="1.00" d=" M 59.30 51.01 C 67.26 49.91 75.22 48.73 83.23 48.05 C 78.66 51.92 73.77 55.39 69.08 59.10 C 67.20 60.69 64.79 61.29 62.66 62.43 C 61.81 58.83 60.83 55.26 59.57 51.79 L 59.30 51.01 Z" />
<path fill="#217a7a" opacity="1.00" d=" M 48.48 50.42 C 52.47 49.81 55.95 52.37 58.69 54.94 C 59.44 57.98 59.62 61.11 59.85 64.22 C 59.05 64.76 58.24 65.31 57.44 65.86 C 54.82 63.55 52.19 61.26 49.54 58.99 C 46.79 61.78 44.01 64.54 41.12 67.19 C 40.43 64.89 39.49 62.62 39.20 60.22 C 39.40 55.27 43.50 50.81 48.48 50.42 Z" />
<path fill="#5a9c9c" opacity="1.00" d=" M 59.57 51.79 C 60.83 55.26 61.81 58.83 62.66 62.43 C 61.90 62.91 61.13 63.39 60.37 63.88 L 59.85 64.22 C 59.62 61.11 59.44 57.98 58.69 54.94 C 58.85 54.39 59.16 53.28 59.31 52.73 L 59.57 51.79 Z" />
<path fill="#217a7a" opacity="1.00" d=" M 42.54 68.39 C 44.99 65.71 47.48 63.09 50.00 60.49 C 52.27 62.97 54.57 65.43 56.76 67.98 C 54.83 68.74 52.93 69.57 50.90 70.03 C 48.01 70.90 45.23 69.24 42.54 68.39 Z" />
<path fill="#ffffff" opacity="1.00" d=" M 42.98 71.98 C 47.23 73.27 51.70 73.45 56.00 72.26 C 53.77 75.50 51.72 78.85 49.63 82.17 C 47.33 78.83 45.20 75.37 42.98 71.98 Z" />
</svg>
