<?xml version="1.0" encoding="UTF-8" ?>
<!DOCTYPE svg PUBLIC "-//W3C//DTD SVG 1.1//EN" "http://www.w3.org/Graphics/SVG/1.1/DTD/svg11.dtd">
<svg width="100pt" height="100pt" viewBox="0 0 100 100" version="1.1" xmlns="http://www.w3.org/2000/svg">
<path fill="#bcc4bd" opacity="1.00" d=" M 50.25 22.46 C 51.73 19.46 52.79 16.11 55.23 13.73 C 56.92 12.84 58.60 14.10 59.60 15.42 C 60.25 17.74 60.16 20.18 60.31 22.56 C 63.51 22.52 66.71 22.51 69.91 22.55 C 71.89 28.43 73.98 34.28 76.02 40.14 C 79.21 40.08 82.50 39.45 85.62 40.36 C 87.40 40.96 88.03 42.90 87.79 44.62 C 85.62 47.23 82.24 48.28 79.32 49.82 C 80.73 53.63 82.07 57.48 83.48 61.29 C 79.25 64.31 74.90 67.16 70.65 70.16 C 71.31 73.97 73.04 77.45 74.19 81.11 C 75.11 83.36 72.67 84.88 70.98 85.72 C 66.96 83.61 64.02 79.89 59.89 77.97 C 55.44 79.65 51.83 82.93 47.95 85.58 C 41.36 80.95 34.70 76.42 27.99 71.96 C 23.67 68.48 17.95 74.08 13.68 71.30 C 11.06 68.92 14.02 66.28 15.36 64.12 C 14.44 62.62 12.40 61.24 13.27 59.27 C 15.37 51.38 19.17 44.00 20.94 36.02 C 20.12 33.20 17.75 31.05 17.14 28.14 C 17.65 24.54 21.46 25.28 24.08 25.61 C 25.54 24.35 26.80 22.34 28.99 22.56 C 36.07 22.32 43.17 22.65 50.25 22.46 M 55.26 15.85 C 53.61 18.93 52.48 22.57 49.64 24.79 C 41.82 27.04 32.25 22.23 25.67 28.35 C 23.28 27.83 20.89 27.32 18.49 26.87 C 19.82 29.92 21.58 32.78 22.87 35.86 C 23.81 37.91 22.78 40.12 22.21 42.12 C 20.08 48.08 17.85 54.01 15.83 60.01 C 17.07 61.11 18.32 62.21 19.56 63.30 C 17.72 64.90 15.88 66.50 14.05 68.12 C 14.20 68.76 14.51 70.03 14.66 70.67 C 18.42 70.10 22.16 69.24 25.98 69.23 C 29.12 69.15 31.72 71.16 34.21 72.80 C 38.73 76.00 43.29 79.16 47.95 82.16 C 50.77 80.22 53.50 78.13 56.49 76.47 C 57.37 76.02 58.37 75.40 59.38 75.91 C 63.74 77.76 67.18 81.17 70.91 84.01 C 71.43 83.65 72.48 82.91 73.00 82.54 C 71.44 77.96 68.79 73.24 69.88 68.26 C 72.62 64.88 76.59 62.84 80.04 60.29 C 78.89 56.83 77.76 53.35 76.66 49.87 C 79.63 48.03 82.67 46.32 85.72 44.64 C 85.73 43.94 85.73 42.56 85.74 41.87 C 81.82 41.65 77.82 41.99 73.99 40.98 C 70.96 36.25 69.93 30.58 67.89 25.41 C 64.74 25.28 61.59 25.15 58.45 25.00 C 58.42 21.90 58.37 18.80 58.26 15.70 C 57.51 15.74 56.01 15.82 55.26 15.85 Z" />
<path fill="#8a1b6c" opacity="1.00" d=" M 55.26 15.85 C 56.01 15.82 57.51 15.74 58.26 15.70 C 58.37 18.80 58.42 21.90 58.45 25.00 C 61.59 25.15 64.74 25.28 67.89 25.41 C 69.93 30.58 70.96 36.25 73.99 40.98 C 77.82 41.99 81.82 41.65 85.74 41.87 C 85.73 42.56 85.73 43.94 85.72 44.64 C 82.67 46.32 79.63 48.03 76.66 49.87 C 77.76 53.35 78.89 56.83 80.04 60.29 C 76.59 62.84 72.62 64.88 69.88 68.26 C 68.79 73.24 71.44 77.96 73.00 82.54 C 72.48 82.91 71.43 83.65 70.91 84.01 C 67.18 81.17 63.74 77.76 59.38 75.91 C 58.37 75.40 57.37 76.02 56.49 76.47 C 53.50 78.13 50.77 80.22 47.95 82.16 C 43.29 79.16 38.73 76.00 34.21 72.80 C 31.72 71.16 29.12 69.15 25.98 69.23 C 22.16 69.24 18.42 70.10 14.66 70.67 C 14.51 70.03 14.20 68.76 14.05 68.12 C 15.88 66.50 17.72 64.90 19.56 63.30 C 18.32 62.21 17.07 61.11 15.83 60.01 C 17.85 54.01 20.08 48.08 22.21 42.12 C 22.78 40.12 23.81 37.91 22.87 35.86 C 21.58 32.78 19.82 29.92 18.49 26.87 C 20.89 27.32 23.28 27.83 25.67 28.35 C 32.25 22.23 41.82 27.04 49.64 24.79 C 52.48 22.57 53.61 18.93 55.26 15.85 M 46.42 29.40 C 38.27 32.84 28.35 33.04 20.59 28.43 C 24.86 34.28 27.95 41.33 27.62 48.69 C 26.75 56.70 22.25 63.99 15.91 68.87 C 24.75 66.71 33.95 67.04 42.94 67.81 C 53.57 69.35 63.03 75.26 71.16 82.03 C 68.83 77.37 67.22 72.27 68.03 67.00 C 68.21 56.78 74.88 47.31 84.23 43.33 C 80.62 43.31 76.89 43.83 73.39 42.71 C 66.37 40.47 60.64 34.86 57.88 28.08 C 56.39 24.51 56.84 20.56 56.72 16.80 C 54.44 21.77 51.75 27.13 46.42 29.40 Z" />
<path fill="#ffffff" opacity="1.00" d=" M 46.42 29.40 C 51.75 27.13 54.44 21.77 56.72 16.80 C 56.84 20.56 56.39 24.51 57.88 28.08 C 60.64 34.86 66.37 40.47 73.39 42.71 C 76.89 43.83 80.62 43.31 84.23 43.33 C 74.88 47.31 68.21 56.78 68.03 67.00 C 67.22 72.27 68.83 77.37 71.16 82.03 C 63.03 75.26 53.57 69.35 42.94 67.81 C 33.95 67.04 24.75 66.71 15.91 68.87 C 22.25 63.99 26.75 56.70 27.62 48.69 C 27.95 41.33 24.86 34.28 20.59 28.43 C 28.35 33.04 38.27 32.84 46.42 29.40 M 30.49 34.36 C 33.90 37.79 37.05 41.67 41.28 44.12 C 44.18 44.70 47.50 43.62 49.50 41.43 C 51.28 37.56 51.39 33.19 52.14 29.05 C 45.33 32.24 37.91 33.54 30.49 34.36 M 52.78 41.83 C 54.11 44.84 56.99 48.58 60.72 47.73 C 64.88 46.95 68.86 45.44 72.87 44.13 C 66.03 40.79 60.28 35.71 55.71 29.66 C 54.55 33.65 52.72 37.61 52.78 41.83 M 28.18 37.51 C 28.52 41.90 29.12 46.34 28.44 50.73 C 27.80 54.67 26.24 58.36 24.92 62.10 C 28.47 60.65 32.07 59.31 35.47 57.53 C 40.00 55.70 40.28 49.43 38.44 45.59 C 35.68 42.17 31.70 40.05 28.18 37.51 M 42.93 46.25 C 44.70 47.75 46.47 49.24 48.25 50.73 C 48.72 48.57 49.16 46.41 49.61 44.26 C 47.38 44.94 45.16 45.60 42.93 46.25 M 51.31 44.07 C 50.80 46.39 50.27 48.71 49.74 51.02 C 52.14 50.32 54.55 49.62 56.96 48.93 C 55.06 47.33 53.18 45.70 51.31 44.07 M 41.42 47.12 C 41.09 49.92 40.69 52.70 40.27 55.49 C 42.88 54.24 45.49 53.00 48.09 51.73 C 45.86 50.21 43.64 48.67 41.42 47.12 M 61.40 50.35 C 58.27 52.61 56.34 56.88 57.00 60.70 C 59.15 64.87 62.71 68.08 65.82 71.52 C 66.48 67.63 66.89 63.68 68.00 59.89 C 69.31 55.40 72.23 51.66 74.67 47.75 C 70.23 48.43 65.57 48.55 61.40 50.35 M 49.38 52.08 C 51.10 54.27 52.88 56.42 54.68 58.56 C 55.83 55.88 57.01 53.22 58.21 50.57 C 55.26 51.05 52.32 51.56 49.38 52.08 M 40.59 57.32 C 44.89 58.02 49.17 58.87 53.40 59.93 C 51.83 57.51 50.24 55.10 48.66 52.68 C 45.95 54.19 43.25 55.73 40.59 57.32 M 27.36 65.22 C 34.02 66.08 40.79 66.24 47.32 67.92 C 52.46 69.21 57.28 71.43 62.23 73.27 C 59.89 69.57 57.98 65.35 54.46 62.60 C 50.36 60.26 45.53 59.56 40.87 59.28 C 35.63 58.82 31.48 62.57 27.36 65.22 Z" />
<path fill="#8a1b6c" opacity="1.00" d=" M 30.49 34.36 C 37.91 33.54 45.33 32.24 52.14 29.05 C 51.39 33.19 51.28 37.56 49.50 41.43 C 47.50 43.62 44.18 44.70 41.28 44.12 C 37.05 41.67 33.90 37.79 30.49 34.36 Z" />
<path fill="#8a1b6c" opacity="1.00" d=" M 52.78 41.83 C 52.72 37.61 54.55 33.65 55.71 29.66 C 60.28 35.71 66.03 40.79 72.87 44.13 C 68.86 45.44 64.88 46.95 60.72 47.73 C 56.99 48.58 54.11 44.84 52.78 41.83 Z" />
<path fill="#8a1b6c" opacity="1.00" d=" M 28.18 37.51 C 31.70 40.05 35.68 42.17 38.44 45.59 C 40.28 49.43 40.00 55.70 35.47 57.53 C 32.07 59.31 28.47 60.65 24.92 62.10 C 26.24 58.36 27.80 54.67 28.44 50.73 C 29.12 46.34 28.52 41.90 28.18 37.51 Z" />
<path fill="#881f69" opacity="1.00" d=" M 42.93 46.25 C 45.16 45.60 47.38 44.94 49.61 44.26 C 49.16 46.41 48.72 48.57 48.25 50.73 C 46.47 49.24 44.70 47.75 42.93 46.25 Z" />
<path fill="#89186a" opacity="1.00" d=" M 51.31 44.07 C 53.18 45.70 55.06 47.33 56.96 48.93 C 54.55 49.62 52.14 50.32 49.74 51.02 C 50.27 48.71 50.80 46.39 51.31 44.07 Z" />
<path fill="#88186a" opacity="1.00" d=" M 41.42 47.12 C 43.64 48.67 45.86 50.21 48.09 51.73 C 45.49 53.00 42.88 54.24 40.27 55.49 C 40.69 52.70 41.09 49.92 41.42 47.12 Z" />
<path fill="#8a1b6c" opacity="1.00" d=" M 61.40 50.35 C 65.57 48.55 70.23 48.43 74.67 47.75 C 72.23 51.66 69.31 55.40 68.00 59.89 C 66.89 63.68 66.48 67.63 65.82 71.52 C 62.71 68.08 59.15 64.87 57.00 60.70 C 56.34 56.88 58.27 52.61 61.40 50.35 Z" />
<path fill="#8b1c6d" opacity="1.00" d=" M 49.38 52.08 C 52.32 51.56 55.26 51.05 58.21 50.57 C 57.01 53.22 55.83 55.88 54.68 58.56 C 52.88 56.42 51.10 54.27 49.38 52.08 Z" />
<path fill="#891a6b" opacity="1.00" d=" M 40.59 57.32 C 43.25 55.73 45.95 54.19 48.66 52.68 C 50.24 55.10 51.83 57.51 53.40 59.93 C 49.17 58.87 44.89 58.02 40.59 57.32 Z" />
<path fill="#8a1b6c" opacity="1.00" d=" M 27.36 65.22 C 31.48 62.57 35.63 58.82 40.87 59.28 C 45.53 59.56 50.36 60.26 54.46 62.60 C 57.98 65.35 59.89 69.57 62.23 73.27 C 57.28 71.43 52.46 69.21 47.32 67.92 C 40.79 66.24 34.02 66.08 27.36 65.22 Z" />
</svg>
