<?xml version="1.0" encoding="UTF-8" ?>
<!DOCTYPE svg PUBLIC "-//W3C//DTD SVG 1.1//EN" "http://www.w3.org/Graphics/SVG/1.1/DTD/svg11.dtd">
<svg width="100pt" height="100pt" viewBox="0 0 100 100" version="1.1" xmlns="http://www.w3.org/2000/svg">
<path fill="#b8b8b8" opacity="1.00" d=" M 65.00 14.99 C 67.43 11.47 71.60 9.91 75.20 7.90 C 74.97 11.91 74.70 15.92 74.53 19.94 C 83.98 26.01 93.48 34.32 95.40 45.98 C 96.56 55.04 89.57 63.01 81.27 65.60 C 80.94 74.26 81.45 82.93 80.95 91.58 C 60.63 91.43 40.31 91.59 19.99 91.49 C 16.33 91.33 12.79 92.42 9.17 92.57 C 5.43 91.88 2.30 87.99 3.14 84.10 C 4.22 78.13 8.85 73.69 13.18 69.81 C 13.67 54.83 13.29 39.80 13.32 24.80 C 28.77 24.37 44.23 24.75 59.69 24.62 C 61.42 21.39 62.90 18.01 65.00 14.99 M 67.39 16.42 C 64.49 20.09 63.23 24.76 60.40 28.46 C 58.81 29.42 56.82 29.11 55.05 29.27 C 42.69 29.19 30.33 29.18 17.97 29.19 C 17.40 43.82 18.20 58.46 17.61 73.08 C 14.99 73.59 11.86 73.72 10.21 76.15 C 8.20 78.77 6.10 81.63 5.67 84.99 C 5.33 87.82 8.14 90.15 10.85 89.71 C 13.25 89.02 14.85 86.90 16.68 85.32 C 18.87 86.69 21.33 87.66 23.96 87.43 C 41.69 87.17 59.43 87.60 77.16 87.20 C 77.52 79.61 77.14 72.01 77.39 64.42 C 81.96 62.76 86.99 61.12 90.00 57.02 C 93.99 52.00 93.65 44.74 90.81 39.26 C 86.87 31.38 79.58 25.97 72.31 21.38 C 72.47 18.16 72.67 14.95 72.80 11.72 C 70.90 13.17 68.90 14.55 67.39 16.42 Z" />
<path fill="#b61c2e" opacity="1.00" d=" M 67.39 16.42 C 68.90 14.55 70.90 13.17 72.80 11.72 C 72.67 14.95 72.47 18.16 72.31 21.38 C 79.58 25.97 86.87 31.38 90.81 39.26 C 93.65 44.74 93.99 52.00 90.00 57.02 C 86.99 61.12 81.96 62.76 77.39 64.42 C 77.14 72.01 77.52 79.61 77.16 87.20 C 59.43 87.60 41.69 87.17 23.96 87.43 C 21.33 87.66 18.87 86.69 16.68 85.32 C 14.85 86.90 13.25 89.02 10.85 89.71 C 8.14 90.15 5.33 87.82 5.67 84.99 C 6.10 81.63 8.20 78.77 10.21 76.15 C 11.86 73.72 14.99 73.59 17.61 73.08 C 18.20 58.46 17.40 43.82 17.97 29.19 C 30.33 29.18 42.69 29.19 55.05 29.27 C 56.82 29.11 58.81 29.42 60.40 28.46 C 63.23 24.76 64.49 20.09 67.39 16.42 M 56.15 37.14 C 57.11 37.94 58.07 38.74 59.03 39.54 C 60.35 38.56 61.62 37.50 62.87 36.43 C 62.71 34.49 63.03 32.57 63.71 30.75 C 68.19 32.52 72.79 34.31 76.56 37.40 C 79.16 39.51 81.11 42.25 83.19 44.84 C 82.10 42.08 80.88 39.37 79.83 36.59 C 83.58 40.06 87.51 44.43 87.51 49.84 C 86.83 55.07 81.34 57.69 76.77 58.80 C 63.07 61.84 48.82 58.43 36.26 52.77 C 31.12 50.50 26.69 47.00 22.01 43.97 C 29.92 52.72 41.35 56.89 52.26 60.51 C 47.42 60.52 42.79 59.08 38.18 57.76 C 38.17 58.55 38.13 60.13 38.11 60.92 C 37.77 61.09 37.09 61.43 36.75 61.60 C 36.02 64.44 36.17 67.46 35.22 70.25 C 33.93 73.00 31.45 74.89 29.37 77.01 C 29.43 75.90 29.49 74.80 29.55 73.70 C 28.46 74.84 27.39 76.00 26.31 77.14 C 26.44 76.25 26.58 75.36 26.72 74.48 C 22.43 76.04 17.86 76.42 13.32 76.35 C 11.59 79.45 9.87 82.58 8.62 85.92 C 9.64 86.22 10.66 86.52 11.68 86.82 C 12.49 84.96 13.30 83.11 14.09 81.25 C 14.99 81.52 15.88 81.78 16.77 82.05 C 21.07 81.99 25.36 81.84 29.64 81.39 C 31.65 76.88 35.10 73.35 39.56 71.23 C 40.51 73.79 41.36 76.39 41.97 79.06 C 43.22 76.37 44.65 73.77 46.14 71.21 C 44.66 72.53 43.26 73.93 41.84 75.31 C 41.89 72.82 42.66 70.45 44.73 68.94 C 44.52 68.92 44.09 68.89 43.87 68.88 C 44.57 67.22 45.25 65.55 45.94 63.89 C 45.29 63.57 43.98 62.95 43.32 62.64 C 45.21 61.84 47.28 61.90 49.20 62.53 C 48.83 63.85 48.47 65.18 48.10 66.51 C 50.75 66.84 53.42 67.68 56.10 67.27 C 54.27 68.69 52.58 70.28 50.80 71.75 C 52.28 73.36 53.80 74.94 55.30 76.53 C 54.51 76.85 52.92 77.48 52.13 77.80 C 52.30 78.97 52.48 80.15 52.67 81.32 C 55.46 80.87 58.29 80.76 61.12 80.79 C 59.70 79.48 58.17 78.26 57.05 76.67 C 57.28 73.35 60.20 69.43 56.73 66.84 C 57.15 66.55 57.97 65.96 58.39 65.67 C 56.85 65.04 55.31 64.38 53.73 63.85 C 55.19 63.09 56.65 62.34 58.13 61.63 C 66.95 63.51 77.06 63.98 84.95 58.93 C 90.33 55.57 91.83 48.25 89.41 42.61 C 85.85 33.66 77.46 28.20 69.95 22.83 C 70.31 20.50 70.65 18.17 70.89 15.83 C 65.33 22.53 63.83 32.21 56.15 37.14 M 45.51 44.95 C 46.40 44.30 47.28 43.65 48.16 43.00 C 51.40 45.83 55.85 45.22 59.81 45.72 C 59.76 44.27 59.72 42.82 59.69 41.38 C 56.19 40.64 52.79 39.26 49.18 39.13 C 46.32 39.54 45.39 42.44 45.51 44.95 M 40.38 46.20 C 40.54 48.59 40.16 51.26 41.56 53.35 C 43.49 54.45 45.63 55.08 47.69 55.85 C 47.89 54.57 48.09 53.29 48.29 52.01 C 49.70 51.58 51.10 51.16 52.51 50.74 C 52.18 52.03 51.85 53.32 51.53 54.62 C 53.65 53.00 55.84 51.05 56.01 48.19 C 54.98 46.92 53.28 46.79 51.84 46.33 C 51.84 47.20 51.84 48.94 51.85 49.81 C 51.56 49.63 51.00 49.28 50.72 49.10 C 48.51 48.29 46.57 46.92 44.55 45.75 C 43.15 45.52 41.76 46.02 40.38 46.20 M 33.04 77.25 C 33.04 78.82 33.21 80.38 33.37 81.94 C 37.38 82.18 39.35 78.66 40.42 75.35 C 39.77 74.85 38.47 73.83 37.82 73.32 C 36.18 74.57 34.41 75.69 33.04 77.25 M 39.62 82.43 C 41.70 82.56 43.78 82.69 45.86 82.81 C 45.46 81.57 45.06 80.33 44.67 79.08 C 43.02 80.25 41.31 81.33 39.62 82.43 Z" />
<path fill="#ffffff" opacity="1.00" d=" M 56.15 37.14 C 63.83 32.21 65.33 22.53 70.89 15.83 C 70.65 18.17 70.31 20.50 69.95 22.83 C 77.46 28.20 85.85 33.66 89.41 42.61 C 91.83 48.25 90.33 55.57 84.95 58.93 C 77.06 63.98 66.95 63.51 58.13 61.63 C 56.18 61.23 54.22 60.85 52.26 60.51 C 41.35 56.89 29.92 52.72 22.01 43.97 C 26.69 47.00 31.12 50.50 36.26 52.77 C 48.82 58.43 63.07 61.84 76.77 58.80 C 81.34 57.69 86.83 55.07 87.51 49.84 C 87.51 44.43 83.58 40.06 79.83 36.59 C 80.88 39.37 82.10 42.08 83.19 44.84 C 81.11 42.25 79.16 39.51 76.56 37.40 C 72.79 34.31 68.19 32.52 63.71 30.75 C 63.03 32.57 62.71 34.49 62.87 36.43 C 61.62 37.50 60.35 38.56 59.03 39.54 C 58.07 38.74 57.11 37.94 56.15 37.14 Z" />
<path fill="#ffffff" opacity="1.00" d=" M 45.51 44.95 C 45.39 42.44 46.32 39.54 49.18 39.13 C 52.79 39.26 56.19 40.64 59.69 41.38 C 59.72 42.82 59.76 44.27 59.81 45.72 C 55.85 45.22 51.40 45.83 48.16 43.00 C 47.28 43.65 46.40 44.30 45.51 44.95 Z" />
<path fill="#ffffff" opacity="1.00" d=" M 40.38 46.20 C 41.76 46.02 43.15 45.52 44.55 45.75 C 46.57 46.92 48.51 48.29 50.72 49.10 C 51.00 49.28 51.56 49.63 51.85 49.81 C 51.84 48.94 51.84 47.20 51.84 46.33 C 53.28 46.79 54.98 46.92 56.01 48.19 C 55.84 51.05 53.65 53.00 51.53 54.62 C 51.85 53.32 52.18 52.03 52.51 50.74 C 51.10 51.16 49.70 51.58 48.29 52.01 C 48.09 53.29 47.89 54.57 47.69 55.85 C 45.63 55.08 43.49 54.45 41.56 53.35 C 40.16 51.26 40.54 48.59 40.38 46.20 Z" />
<path fill="#f0d0d4" opacity="1.00" d=" M 38.18 57.76 C 42.79 59.08 47.42 60.52 52.26 60.51 C 54.22 60.85 56.18 61.23 58.13 61.63 C 56.65 62.34 55.19 63.09 53.73 63.85 C 52.24 63.37 50.72 62.93 49.20 62.53 C 47.28 61.90 45.21 61.84 43.32 62.64 C 41.62 61.96 39.88 61.39 38.11 60.92 C 38.13 60.13 38.17 58.55 38.18 57.76 Z" />
<path fill="#fffdfe" opacity="1.00" d=" M 36.75 61.60 C 37.09 61.43 37.77 61.09 38.11 60.92 C 39.88 61.39 41.62 61.96 43.32 62.64 C 43.98 62.95 45.29 63.57 45.94 63.89 C 45.25 65.55 44.57 67.22 43.87 68.88 C 44.09 68.89 44.52 68.92 44.73 68.94 C 42.66 70.45 41.89 72.82 41.84 75.31 C 43.26 73.93 44.66 72.53 46.14 71.21 C 44.65 73.77 43.22 76.37 41.97 79.06 C 41.36 76.39 40.51 73.79 39.56 71.23 C 35.10 73.35 31.65 76.88 29.64 81.39 C 29.13 80.29 28.63 79.20 28.13 78.10 C 24.28 79.60 20.16 80.00 16.07 79.55 C 16.24 80.18 16.60 81.43 16.77 82.05 C 15.88 81.78 14.99 81.52 14.09 81.25 C 13.30 83.11 12.49 84.96 11.68 86.82 C 10.66 86.52 9.64 86.22 8.62 85.92 C 9.87 82.58 11.59 79.45 13.32 76.35 C 17.86 76.42 22.43 76.04 26.72 74.48 C 26.58 75.36 26.44 76.25 26.31 77.14 C 27.39 76.00 28.46 74.84 29.55 73.70 C 29.49 74.80 29.43 75.90 29.37 77.01 C 31.45 74.89 33.93 73.00 35.22 70.25 C 36.17 67.46 36.02 64.44 36.75 61.60 Z" />
<path fill="#ffffff" opacity="1.00" d=" M 48.10 66.51 C 48.47 65.18 48.83 63.85 49.20 62.53 C 50.72 62.93 52.24 63.37 53.73 63.85 C 55.31 64.38 56.85 65.04 58.39 65.67 C 57.97 65.96 57.15 66.55 56.73 66.84 L 56.10 67.27 C 53.42 67.68 50.75 66.84 48.10 66.51 Z" />
<path fill="#f8eaec" opacity="1.00" d=" M 56.10 67.27 L 56.73 66.84 C 60.20 69.43 57.28 73.35 57.05 76.67 C 58.17 78.26 59.70 79.48 61.12 80.79 C 58.29 80.76 55.46 80.87 52.67 81.32 C 52.48 80.15 52.30 78.97 52.13 77.80 C 52.92 77.48 54.51 76.85 55.30 76.53 C 53.80 74.94 52.28 73.36 50.80 71.75 C 52.58 70.28 54.27 68.69 56.10 67.27 Z" />
<path fill="#ffffff" opacity="1.00" d=" M 33.04 77.25 C 34.41 75.69 36.18 74.57 37.82 73.32 C 38.47 73.83 39.77 74.85 40.42 75.35 C 39.35 78.66 37.38 82.18 33.37 81.94 C 33.21 80.38 33.04 78.82 33.04 77.25 M 35.47 77.12 C 35.04 78.51 35.53 79.00 36.93 78.59 C 37.37 77.19 36.88 76.70 35.47 77.12 Z" />
<path fill="#a50006" opacity="1.00" d=" M 35.47 77.12 C 36.88 76.70 37.37 77.19 36.93 78.59 C 35.53 79.00 35.04 78.51 35.47 77.12 Z" />
<path fill="#d1717b" opacity="1.00" d=" M 16.07 79.55 C 20.16 80.00 24.28 79.60 28.13 78.10 C 28.63 79.20 29.13 80.29 29.64 81.39 C 25.36 81.84 21.07 81.99 16.77 82.05 C 16.60 81.43 16.24 80.18 16.07 79.55 Z" />
<path fill="#fffdfe" opacity="1.00" d=" M 39.62 82.43 C 41.31 81.33 43.02 80.25 44.67 79.08 C 45.06 80.33 45.46 81.57 45.86 82.81 C 43.78 82.69 41.70 82.56 39.62 82.43 Z" />
</svg>
