<?xml version="1.0" encoding="UTF-8" ?>
<!DOCTYPE svg PUBLIC "-//W3C//DTD SVG 1.1//EN" "http://www.w3.org/Graphics/SVG/1.1/DTD/svg11.dtd">
<svg width="100pt" height="100pt" viewBox="0 0 100 100" version="1.1" xmlns="http://www.w3.org/2000/svg">
<path fill="#b8b8b8" opacity="1.00" d=" M 42.77 25.79 C 45.28 22.78 47.21 19.36 49.39 16.11 C 51.24 19.10 53.01 22.15 55.09 24.98 C 57.05 27.80 60.50 28.84 63.09 30.93 C 65.27 33.45 67.00 36.32 69.01 38.98 C 68.58 41.50 67.49 44.37 69.37 46.59 C 76.63 57.63 84.05 68.57 91.22 79.66 C 63.16 79.81 35.11 79.71 7.05 79.71 C 15.31 67.99 22.92 55.82 31.00 43.98 C 33.08 41.22 33.55 37.75 34.52 34.53 C 36.32 30.84 40.08 28.74 42.77 25.79 M 49.22 23.35 C 46.89 27.67 42.61 30.03 38.84 32.87 C 36.26 36.41 36.25 41.19 33.94 44.93 C 28.08 55.74 20.35 65.39 13.95 75.88 C 37.71 76.04 61.46 75.98 85.22 75.86 C 79.29 66.51 72.79 57.55 66.62 48.37 C 63.83 45.06 67.59 40.49 64.95 37.17 C 61.17 30.94 52.90 29.75 49.22 23.35 Z" />
<path fill="#217a7a" opacity="1.00" d=" M 49.22 23.35 C 52.90 29.75 61.17 30.94 64.95 37.17 C 67.59 40.49 63.83 45.06 66.62 48.37 C 72.79 57.55 79.29 66.51 85.22 75.86 C 61.46 75.98 37.71 76.04 13.95 75.88 C 20.35 65.39 28.08 55.74 33.94 44.93 C 36.25 41.19 36.26 36.41 38.84 32.87 C 42.61 30.03 46.89 27.67 49.22 23.35 M 48.75 30.85 C 48.33 35.19 48.17 39.63 49.18 43.89 C 50.36 44.37 51.36 44.14 52.16 43.20 C 55.22 40.16 54.50 35.44 54.72 31.52 C 52.73 31.30 50.74 31.07 48.75 30.85 M 40.10 35.47 C 41.03 37.74 41.67 40.19 43.10 42.22 C 44.33 42.35 45.56 42.44 46.80 42.49 C 46.89 39.29 46.93 36.10 46.92 32.91 C 45.61 32.77 44.31 32.64 43.00 32.51 C 42.04 33.50 41.07 34.49 40.10 35.47 M 56.30 33.05 C 56.05 36.88 55.58 40.70 55.71 44.54 C 57.33 42.94 59.18 41.44 60.26 39.38 C 60.75 37.71 60.24 35.95 60.17 34.26 C 58.88 33.86 57.59 33.45 56.30 33.05 M 39.20 38.82 C 37.85 39.69 38.99 42.46 40.58 41.55 C 41.96 40.68 40.77 37.94 39.20 38.82 M 62.73 37.82 C 61.77 39.67 60.80 41.50 59.84 43.35 C 61.21 42.98 62.57 42.60 63.94 42.23 C 63.55 40.76 63.14 39.29 62.73 37.82 M 36.61 44.94 C 33.60 46.87 35.67 50.48 37.24 52.62 C 37.25 50.66 37.21 48.70 37.14 46.75 C 38.28 47.99 39.30 49.37 40.65 50.41 C 42.27 50.68 43.92 50.62 45.55 50.65 C 45.75 48.94 45.94 47.24 46.11 45.53 C 42.95 45.35 39.77 44.51 36.61 44.94 M 53.06 47.21 C 50.95 47.88 50.75 50.48 49.77 52.16 C 52.83 51.91 56.09 52.18 58.96 50.88 C 60.20 49.48 61.05 47.81 62.01 46.22 C 59.03 46.46 55.92 46.17 53.06 47.21 M 33.38 52.71 C 33.58 54.49 33.80 56.26 34.02 58.03 C 34.59 57.59 35.74 56.72 36.31 56.29 C 35.33 55.09 34.36 53.90 33.38 52.71 M 38.80 53.38 C 40.20 54.33 41.62 55.28 43.03 56.24 C 44.09 55.62 45.15 55.00 46.21 54.38 C 43.74 54.05 41.27 53.72 38.80 53.38 M 45.69 56.64 C 49.31 55.92 52.88 54.90 56.23 53.33 C 52.48 53.48 48.68 54.21 45.69 56.64 M 50.22 57.48 C 50.26 60.69 50.34 63.91 50.40 67.13 C 49.60 64.08 48.86 61.02 48.12 57.96 C 47.14 58.39 46.15 58.81 45.17 59.24 C 45.10 64.06 45.18 68.91 44.38 73.69 C 41.69 67.92 44.94 60.67 40.40 55.66 C 39.43 60.64 39.51 65.85 37.60 70.62 C 37.56 67.40 37.80 64.19 37.97 60.98 C 37.58 61.84 37.19 62.69 36.78 63.54 C 35.07 61.71 33.28 59.95 31.42 58.27 C 31.22 62.85 32.62 67.20 34.10 71.48 C 29.80 67.76 29.12 61.98 28.20 56.73 C 26.35 59.60 25.36 62.95 26.01 66.36 C 24.61 66.96 23.22 67.60 21.86 68.28 C 23.28 68.70 24.71 69.13 26.14 69.55 C 24.07 70.97 21.99 72.38 19.93 73.82 C 39.55 73.79 59.17 73.49 78.79 73.76 C 77.21 71.10 75.71 68.40 74.19 65.71 C 73.85 67.63 73.51 69.55 73.13 71.46 C 72.00 69.25 71.24 66.88 70.67 64.47 C 68.51 66.54 66.39 68.65 64.16 70.65 C 63.59 70.23 62.46 69.38 61.89 68.96 C 63.71 65.20 63.93 61.03 63.84 56.93 C 61.89 59.70 59.67 62.28 57.07 64.46 C 56.49 61.40 56.08 58.32 55.73 55.23 C 53.90 55.99 52.06 56.74 50.22 57.48 M 58.18 56.41 C 58.19 57.65 58.20 58.89 58.22 60.13 C 59.26 58.50 60.28 56.86 61.28 55.20 C 60.25 55.60 59.21 56.01 58.18 56.41 M 66.89 55.73 C 67.49 58.88 69.09 61.72 71.87 63.43 C 70.78 60.53 69.12 57.88 66.89 55.73 Z" />
<path fill="#ffffff" opacity="1.00" d=" M 48.75 30.85 C 50.74 31.07 52.73 31.30 54.72 31.52 C 54.50 35.44 55.22 40.16 52.16 43.20 C 51.36 44.14 50.36 44.37 49.18 43.89 C 48.17 39.63 48.33 35.19 48.75 30.85 Z" />
<path fill="#ffffff" opacity="1.00" d=" M 40.10 35.47 C 41.07 34.49 42.04 33.50 43.00 32.51 C 44.31 32.64 45.61 32.77 46.92 32.91 C 46.93 36.10 46.89 39.29 46.80 42.49 C 45.56 42.44 44.33 42.35 43.10 42.22 C 41.67 40.19 41.03 37.74 40.10 35.47 Z" />
<path fill="#ffffff" opacity="1.00" d=" M 56.30 33.05 C 57.59 33.45 58.88 33.86 60.17 34.26 C 60.24 35.95 60.75 37.71 60.26 39.38 C 59.18 41.44 57.33 42.94 55.71 44.54 C 55.58 40.70 56.05 36.88 56.30 33.05 Z" />
<path fill="#c1d9d9" opacity="1.00" d=" M 39.20 38.82 C 40.77 37.94 41.96 40.68 40.58 41.55 C 38.99 42.46 37.85 39.69 39.20 38.82 Z" />
<path fill="#ffffff" opacity="1.00" d=" M 62.73 37.82 C 63.14 39.29 63.55 40.76 63.94 42.23 C 62.57 42.60 61.21 42.98 59.84 43.35 C 60.80 41.50 61.77 39.67 62.73 37.82 Z" />
<path fill="#ffffff" opacity="1.00" d=" M 36.61 44.94 C 39.77 44.51 42.95 45.35 46.11 45.53 C 45.94 47.24 45.75 48.94 45.55 50.65 C 43.92 50.62 42.27 50.68 40.65 50.41 C 39.30 49.37 38.28 47.99 37.14 46.75 C 37.21 48.70 37.25 50.66 37.24 52.62 C 35.67 50.48 33.60 46.87 36.61 44.94 Z" />
<path fill="#ffffff" opacity="1.00" d=" M 53.06 47.21 C 55.92 46.17 59.03 46.46 62.01 46.22 C 61.05 47.81 60.20 49.48 58.96 50.88 C 56.09 52.18 52.83 51.91 49.77 52.16 C 50.75 50.48 50.95 47.88 53.06 47.21 Z" />
<path fill="#ffffff" opacity="1.00" d=" M 33.38 52.71 C 34.36 53.90 35.33 55.09 36.31 56.29 C 35.74 56.72 34.59 57.59 34.02 58.03 C 33.80 56.26 33.58 54.49 33.38 52.71 Z" />
<path fill="#ffffff" opacity="1.00" d=" M 38.80 53.38 C 41.27 53.72 43.74 54.05 46.21 54.38 C 45.15 55.00 44.09 55.62 43.03 56.24 C 41.62 55.28 40.20 54.33 38.80 53.38 Z" />
<path fill="#ffffff" opacity="1.00" d=" M 45.69 56.64 C 48.68 54.21 52.48 53.48 56.23 53.33 C 52.88 54.90 49.31 55.92 45.69 56.64 Z" />
<path fill="#ffffff" opacity="1.00" d=" M 50.22 57.48 C 52.06 56.74 53.90 55.99 55.73 55.23 C 56.08 58.32 56.49 61.40 57.07 64.46 C 59.67 62.28 61.89 59.70 63.84 56.93 C 63.93 61.03 63.71 65.20 61.89 68.96 C 62.46 69.38 63.59 70.23 64.16 70.65 C 66.39 68.65 68.51 66.54 70.67 64.47 C 71.24 66.88 72.00 69.25 73.13 71.46 C 73.51 69.55 73.85 67.63 74.19 65.71 C 75.71 68.40 77.21 71.10 78.79 73.76 C 59.17 73.49 39.55 73.79 19.93 73.82 C 21.99 72.38 24.07 70.97 26.14 69.55 C 24.71 69.13 23.28 68.70 21.86 68.28 C 23.22 67.60 24.61 66.96 26.01 66.36 C 25.36 62.95 26.35 59.60 28.20 56.73 C 29.12 61.98 29.80 67.76 34.10 71.48 C 32.62 67.20 31.22 62.85 31.42 58.27 C 33.28 59.95 35.07 61.71 36.78 63.54 C 37.19 62.69 37.58 61.84 37.97 60.98 C 37.80 64.19 37.56 67.40 37.60 70.62 C 39.51 65.85 39.43 60.64 40.40 55.66 C 44.94 60.67 41.69 67.92 44.38 73.69 C 45.18 68.91 45.10 64.06 45.17 59.24 C 46.15 58.81 47.14 58.39 48.12 57.96 C 48.86 61.02 49.60 64.08 50.40 67.13 C 50.34 63.91 50.26 60.69 50.22 57.48 Z" />
<path fill="#ffffff" opacity="1.00" d=" M 58.18 56.41 C 59.21 56.01 60.25 55.60 61.28 55.20 C 60.28 56.86 59.26 58.50 58.22 60.13 C 58.20 58.89 58.19 57.65 58.18 56.41 Z" />
<path fill="#ffffff" opacity="1.00" d=" M 66.89 55.73 C 69.12 57.88 70.78 60.53 71.87 63.43 C 69.09 61.72 67.49 58.88 66.89 55.73 Z" />
</svg>
