<?xml version="1.0" encoding="UTF-8" ?>
<!DOCTYPE svg PUBLIC "-//W3C//DTD SVG 1.1//EN" "http://www.w3.org/Graphics/SVG/1.1/DTD/svg11.dtd">
<svg width="100pt" height="100pt" viewBox="0 0 100 100" version="1.1" xmlns="http://www.w3.org/2000/svg">
<path fill="#bdbcbb" opacity="1.00" d=" M 9.36 12.34 C 13.04 12.44 17.01 11.81 20.38 13.67 C 24.95 15.99 29.41 18.53 33.96 20.88 C 39.19 17.84 44.88 15.32 50.99 14.86 C 54.98 14.38 58.96 15.29 62.95 15.20 C 66.87 14.64 70.84 13.00 74.82 13.96 C 78.03 15.07 81.19 16.35 84.25 17.83 C 85.49 18.51 87.14 19.39 87.15 21.03 C 87.12 24.39 85.68 27.53 85.35 30.84 C 87.59 36.38 90.65 41.80 90.76 47.94 C 92.12 61.51 84.98 75.38 73.21 82.23 C 65.27 86.77 55.56 89.09 46.58 86.51 C 40.29 85.11 34.64 81.81 29.73 77.71 C 25.29 80.19 21.50 84.73 16.09 84.77 C 11.38 84.86 8.93 78.29 11.81 74.88 C 14.71 71.53 18.61 69.23 21.78 66.15 C 19.08 66.22 16.38 66.34 13.67 66.30 C 14.58 63.47 16.66 61.35 18.95 59.56 C 18.33 54.07 17.82 48.43 19.13 43.00 C 20.19 37.95 22.69 33.40 25.34 29.04 C 21.49 26.75 17.40 24.84 13.79 22.17 C 10.86 19.82 9.40 16.04 9.36 12.34 M 11.15 14.51 C 14.09 22.48 22.89 24.70 29.29 29.03 C 26.64 33.31 23.84 37.63 22.58 42.57 C 21.05 48.22 21.62 54.13 22.14 59.88 C 20.31 61.40 18.48 62.93 16.67 64.47 C 19.02 63.95 21.36 63.42 23.71 62.89 C 24.19 63.99 24.67 65.09 25.15 66.19 C 21.42 69.50 17.18 72.25 13.76 75.91 C 10.96 78.43 13.85 84.08 17.61 82.57 C 22.55 80.82 26.47 77.14 30.82 74.34 C 37.15 80.10 45.27 84.16 53.98 84.13 C 69.64 84.73 84.40 72.59 87.14 57.22 C 89.12 48.17 86.25 38.97 81.52 31.27 C 83.12 27.96 85.63 24.43 84.67 20.59 C 81.38 18.39 77.57 17.04 73.76 16.05 C 68.91 14.87 64.64 18.55 59.83 18.29 C 56.06 18.26 52.26 17.80 48.52 18.48 C 43.74 19.34 39.41 21.64 35.10 23.78 C 27.33 20.21 20.21 13.93 11.15 14.51 Z" />
<path fill="#2f4364" opacity="1.00" d=" M 11.15 14.51 C 20.21 13.93 27.33 20.21 35.10 23.78 C 39.41 21.64 43.74 19.34 48.52 18.48 C 52.26 17.80 56.06 18.26 59.83 18.29 C 64.64 18.55 68.91 14.87 73.76 16.05 C 77.57 17.04 81.38 18.39 84.67 20.59 C 85.63 24.43 83.12 27.96 81.52 31.27 C 86.25 38.97 89.12 48.17 87.14 57.22 C 84.40 72.59 69.64 84.73 53.98 84.13 C 45.27 84.16 37.15 80.10 30.82 74.34 C 26.47 77.14 22.55 80.82 17.61 82.57 C 13.85 84.08 10.96 78.43 13.76 75.91 C 17.18 72.25 21.42 69.50 25.15 66.19 C 24.67 65.09 24.19 63.99 23.71 62.89 C 21.36 63.42 19.02 63.95 16.67 64.47 C 18.48 62.93 20.31 61.40 22.14 59.88 C 21.62 54.13 21.05 48.22 22.58 42.57 C 23.84 37.63 26.64 33.31 29.29 29.03 C 22.89 24.70 14.09 22.48 11.15 14.51 M 13.34 15.90 C 19.33 22.27 28.02 24.93 34.71 30.44 C 33.06 31.60 31.40 32.77 29.80 34.00 C 32.45 33.58 35.05 32.64 37.76 32.63 C 41.79 33.71 45.49 35.78 49.11 37.83 C 52.43 36.46 55.82 35.27 59.24 34.21 C 55.12 38.06 49.94 40.40 44.99 42.96 C 39.55 45.76 34.10 48.56 28.92 51.82 C 39.16 47.62 49.09 42.71 59.15 38.08 C 59.93 39.36 60.71 40.63 61.49 41.90 C 56.65 42.45 52.34 44.80 48.28 47.32 C 40.33 52.22 31.61 55.74 23.81 60.89 C 29.83 58.77 35.49 55.80 41.34 53.27 C 41.22 54.13 40.99 55.86 40.87 56.73 C 37.54 58.26 33.97 59.58 31.34 62.24 C 28.73 64.84 26.57 67.85 24.24 70.70 C 27.34 69.02 29.76 66.47 31.85 63.69 C 31.66 65.19 31.47 66.69 31.28 68.20 C 35.27 65.88 39.52 63.98 43.25 61.23 C 44.23 62.53 45.21 63.82 46.20 65.12 C 47.20 64.10 48.20 63.08 49.20 62.07 C 50.54 62.03 51.90 62.10 53.21 61.81 C 55.29 60.37 56.59 58.08 58.56 56.50 C 60.03 56.01 61.56 55.79 63.08 55.48 C 63.12 56.11 63.21 57.35 63.25 57.98 C 66.93 55.82 71.22 56.56 75.24 56.98 C 74.50 57.67 73.76 58.37 73.02 59.06 C 74.43 59.27 75.83 59.48 77.23 59.70 C 77.86 60.71 78.50 61.72 79.14 62.73 C 76.42 61.54 73.43 60.80 70.66 62.31 C 70.21 61.57 69.76 60.84 69.31 60.11 C 65.99 62.12 63.54 65.21 60.32 67.33 C 52.77 70.99 44.87 74.34 38.41 79.81 C 42.33 78.78 46.00 77.01 49.56 75.11 C 49.59 76.57 49.63 78.03 49.69 79.49 C 50.44 78.14 51.15 76.77 51.85 75.39 C 53.06 75.94 54.27 76.48 55.49 77.02 C 55.69 76.36 56.10 75.03 56.31 74.36 C 61.96 75.33 66.16 70.84 71.23 69.29 C 75.20 68.09 78.43 65.39 81.22 62.41 C 79.98 60.78 78.69 59.19 77.55 57.48 C 76.12 55.50 76.51 52.91 76.21 50.61 C 73.24 49.85 70.26 49.13 67.30 48.34 C 69.67 45.93 72.06 43.53 74.43 41.11 C 72.28 39.95 70.54 38.22 69.10 36.27 C 71.73 37.05 74.32 38.00 76.91 38.94 C 77.13 36.68 77.15 34.42 77.05 32.16 C 79.85 28.99 82.90 25.57 82.73 21.04 C 79.08 23.08 76.21 26.13 73.86 29.55 C 74.60 26.54 75.75 23.65 77.03 20.83 C 75.90 19.71 74.77 18.59 73.62 17.49 C 73.73 18.52 73.84 19.55 73.96 20.57 C 71.94 19.72 69.85 17.73 67.56 18.39 C 64.68 20.53 62.80 23.69 60.29 26.22 C 61.02 27.09 61.74 27.96 62.46 28.84 C 59.81 29.98 56.95 30.15 54.28 28.98 C 50.44 27.29 46.63 29.50 42.91 30.42 C 43.74 29.08 44.59 27.75 45.43 26.42 C 43.20 26.92 40.91 28.30 38.58 27.52 C 29.81 24.45 22.49 18.04 13.34 15.90 M 41.18 64.20 C 40.70 65.60 41.17 66.07 42.58 65.61 C 43.06 64.20 42.59 63.73 41.18 64.20 M 25.09 74.74 C 24.24 73.56 23.40 72.37 22.56 71.19 C 19.25 73.80 15.39 76.19 14.06 80.47 C 16.62 80.44 19.26 80.05 21.32 78.39 C 26.80 74.42 32.89 71.35 38.16 67.08 C 33.39 68.86 29.10 71.65 25.09 74.74 Z" />
<path fill="#ffffff" opacity="1.00" d=" M 13.34 15.90 C 22.49 18.04 29.81 24.45 38.58 27.52 C 40.91 28.30 43.20 26.92 45.43 26.42 C 44.59 27.75 43.74 29.08 42.91 30.42 C 46.63 29.50 50.44 27.29 54.28 28.98 C 56.95 30.15 59.81 29.98 62.46 28.84 C 61.74 27.96 61.02 27.09 60.29 26.22 C 62.80 23.69 64.68 20.53 67.56 18.39 C 69.85 17.73 71.94 19.72 73.96 20.57 C 73.84 19.55 73.73 18.52 73.62 17.49 C 74.77 18.59 75.90 19.71 77.03 20.83 C 75.75 23.65 74.60 26.54 73.86 29.55 C 76.21 26.13 79.08 23.08 82.73 21.04 C 82.90 25.57 79.85 28.99 77.05 32.16 C 77.15 34.42 77.13 36.68 76.91 38.94 C 74.32 38.00 71.73 37.05 69.10 36.27 C 70.54 38.22 72.28 39.95 74.43 41.11 C 72.06 43.53 69.67 45.93 67.30 48.34 C 70.26 49.13 73.24 49.85 76.21 50.61 C 76.51 52.91 76.12 55.50 77.55 57.48 C 78.69 59.19 79.98 60.78 81.22 62.41 C 78.43 65.39 75.20 68.09 71.23 69.29 C 66.16 70.84 61.96 75.33 56.31 74.36 C 56.10 75.03 55.69 76.36 55.49 77.02 C 54.27 76.48 53.06 75.94 51.85 75.39 C 51.15 76.77 50.44 78.14 49.69 79.49 C 49.63 78.03 49.59 76.57 49.56 75.11 C 46.00 77.01 42.33 78.78 38.41 79.81 C 44.87 74.34 52.77 70.99 60.32 67.33 C 63.54 65.21 65.99 62.12 69.31 60.11 C 69.76 60.84 70.21 61.57 70.66 62.31 C 73.43 60.80 76.42 61.54 79.14 62.73 C 78.50 61.72 77.86 60.71 77.23 59.70 C 75.83 59.48 74.43 59.27 73.02 59.06 C 73.76 58.37 74.50 57.67 75.24 56.98 C 71.22 56.56 66.93 55.82 63.25 57.98 C 63.21 57.35 63.12 56.11 63.08 55.48 C 61.56 55.79 60.03 56.01 58.56 56.50 C 56.59 58.08 55.29 60.37 53.21 61.81 C 51.90 62.10 50.54 62.03 49.20 62.07 C 48.20 63.08 47.20 64.10 46.20 65.12 C 45.21 63.82 44.23 62.53 43.25 61.23 C 39.52 63.98 35.27 65.88 31.28 68.20 C 31.47 66.69 31.66 65.19 31.85 63.69 C 29.76 66.47 27.34 69.02 24.24 70.70 C 26.57 67.85 28.73 64.84 31.34 62.24 C 33.97 59.58 37.54 58.26 40.87 56.73 C 40.99 55.86 41.22 54.13 41.34 53.27 C 35.49 55.80 29.83 58.77 23.81 60.89 C 31.61 55.74 40.33 52.22 48.28 47.32 C 52.34 44.80 56.65 42.45 61.49 41.90 C 60.71 40.63 59.93 39.36 59.15 38.08 C 49.09 42.71 39.16 47.62 28.92 51.82 C 34.10 48.56 39.55 45.76 44.99 42.96 C 49.94 40.40 55.12 38.06 59.24 34.21 C 55.82 35.27 52.43 36.46 49.11 37.83 C 45.49 35.78 41.79 33.71 37.76 32.63 C 35.05 32.64 32.45 33.58 29.80 34.00 C 31.40 32.77 33.06 31.60 34.71 30.44 C 28.02 24.93 19.33 22.27 13.34 15.90 M 72.31 22.65 C 71.08 23.22 70.50 25.20 71.36 26.29 C 73.00 26.72 74.08 22.98 72.31 22.65 M 63.70 27.22 C 65.11 27.79 66.52 28.35 67.93 28.91 C 67.75 30.45 67.59 31.99 67.46 33.53 C 68.50 32.05 69.71 30.64 70.39 28.95 C 70.56 26.85 70.28 24.75 70.14 22.65 C 67.94 24.09 65.78 25.60 63.70 27.22 M 49.72 29.19 C 48.32 30.45 50.45 32.84 51.85 31.55 C 53.29 30.28 51.13 27.89 49.72 29.19 M 63.21 29.53 C 62.01 30.44 63.65 32.29 64.74 31.33 C 65.91 30.41 64.30 28.56 63.21 29.53 M 46.72 33.68 C 49.56 34.59 52.58 34.76 55.45 33.86 C 52.55 33.49 49.63 33.45 46.72 33.68 M 60.46 35.15 C 60.01 36.55 60.49 37.03 61.90 36.60 C 62.35 35.20 61.87 34.72 60.46 35.15 M 63.96 35.36 C 63.28 37.14 67.00 38.09 67.19 36.17 C 66.89 34.85 64.82 34.31 63.96 35.36 M 49.15 58.63 C 50.21 59.60 51.36 60.45 52.50 61.32 C 54.93 58.32 57.26 55.25 59.48 52.09 C 64.97 52.17 70.14 54.07 75.29 55.75 C 75.26 54.81 75.20 52.93 75.17 51.99 C 71.27 51.14 67.36 50.10 63.34 50.11 C 60.37 50.06 57.65 51.41 54.89 52.30 C 54.77 50.51 54.66 48.71 54.56 46.92 C 53.21 51.03 50.67 54.60 49.15 58.63 M 44.76 52.85 C 42.58 55.36 44.41 58.69 45.30 61.33 C 47.72 58.35 49.33 54.82 51.12 51.46 C 49.03 51.75 46.17 50.81 44.76 52.85 M 65.17 65.24 C 63.85 65.87 63.83 66.55 65.11 67.28 C 66.44 66.64 66.46 65.96 65.17 65.24 M 70.13 65.84 C 69.90 66.15 69.42 66.79 69.18 67.11 C 70.09 70.61 73.87 65.23 70.13 65.84 M 62.28 68.13 C 62.38 71.48 65.27 66.62 62.28 68.13 M 61.28 70.92 C 59.52 71.72 61.07 73.97 62.49 72.75 C 64.29 72.01 62.67 69.72 61.28 70.92 Z" />
<path fill="#1b2d52" opacity="1.00" d=" M 72.31 22.65 C 74.08 22.98 73.00 26.72 71.36 26.29 C 70.50 25.20 71.08 23.22 72.31 22.65 Z" />
<path fill="#2e4262" opacity="1.00" d=" M 63.70 27.22 C 65.78 25.60 67.94 24.09 70.14 22.65 C 70.28 24.75 70.56 26.85 70.39 28.95 C 69.71 30.64 68.50 32.05 67.46 33.53 C 67.59 31.99 67.75 30.45 67.93 28.91 C 66.52 28.35 65.11 27.79 63.70 27.22 Z" />
<path fill="#2f4364" opacity="1.00" d=" M 49.72 29.19 C 51.13 27.89 53.29 30.28 51.85 31.55 C 50.45 32.84 48.32 30.45 49.72 29.19 Z" />
<path fill="#2e4262" opacity="1.00" d=" M 63.21 29.53 C 64.30 28.56 65.91 30.41 64.74 31.33 C 63.65 32.29 62.01 30.44 63.21 29.53 Z" />
<path fill="#2f4364" opacity="1.00" d=" M 46.72 33.68 C 49.63 33.45 52.55 33.49 55.45 33.86 C 52.58 34.76 49.56 34.59 46.72 33.68 Z" />
<path fill="#758298" opacity="1.00" d=" M 60.46 35.15 C 61.87 34.72 62.35 35.20 61.90 36.60 C 60.49 37.03 60.01 36.55 60.46 35.15 Z" />
<path fill="#8a96a8" opacity="1.00" d=" M 63.96 35.36 C 64.82 34.31 66.89 34.85 67.19 36.17 C 67.00 38.09 63.28 37.14 63.96 35.36 Z" />
<path fill="#2f4464" opacity="1.00" d=" M 49.15 58.63 C 50.67 54.60 53.21 51.03 54.56 46.92 C 54.66 48.71 54.77 50.51 54.89 52.30 C 57.65 51.41 60.37 50.06 63.34 50.11 C 67.36 50.10 71.27 51.14 75.17 51.99 C 75.20 52.93 75.26 54.81 75.29 55.75 C 70.14 54.07 64.97 52.17 59.48 52.09 C 57.26 55.25 54.93 58.32 52.50 61.32 C 51.36 60.45 50.21 59.60 49.15 58.63 Z" />
<path fill="#2e4262" opacity="1.00" d=" M 44.76 52.85 C 46.17 50.81 49.03 51.75 51.12 51.46 C 49.33 54.82 47.72 58.35 45.30 61.33 C 44.41 58.69 42.58 55.36 44.76 52.85 Z" />
<path fill="#c0c6d0" opacity="1.00" d=" M 41.18 64.20 C 42.59 63.73 43.06 64.20 42.58 65.61 C 41.17 66.07 40.70 65.60 41.18 64.20 Z" />
<path fill="#2f4364" opacity="1.00" d=" M 65.17 65.24 C 66.46 65.96 66.44 66.64 65.11 67.28 C 63.83 66.55 63.85 65.87 65.17 65.24 Z" />
<path fill="#2a3c5e" opacity="1.00" d=" M 70.13 65.84 C 73.87 65.23 70.09 70.61 69.18 67.11 C 69.42 66.79 69.90 66.15 70.13 65.84 Z" />
<path fill="#e6e8ec" opacity="1.00" d=" M 25.09 74.74 C 29.10 71.65 33.39 68.86 38.16 67.08 C 32.89 71.35 26.80 74.42 21.32 78.39 C 19.26 80.05 16.62 80.44 14.06 80.47 C 15.39 76.19 19.25 73.80 22.56 71.19 C 23.40 72.37 24.24 73.56 25.09 74.74 Z" />
<path fill="#6d7b92" opacity="1.00" d=" M 62.28 68.13 C 65.27 66.62 62.38 71.48 62.28 68.13 Z" />
<path fill="#243457" opacity="1.00" d=" M 61.28 70.92 C 62.67 69.72 64.29 72.01 62.49 72.75 C 61.07 73.97 59.52 71.72 61.28 70.92 Z" />
</svg>
