<?xml version="1.0" encoding="UTF-8" ?>
<!DOCTYPE svg PUBLIC "-//W3C//DTD SVG 1.1//EN" "http://www.w3.org/Graphics/SVG/1.1/DTD/svg11.dtd">
<svg width="100pt" height="100pt" viewBox="0 0 100 100" version="1.1" xmlns="http://www.w3.org/2000/svg">
<path fill="#b8c0bf" opacity="1.00" d=" M 50.36 15.52 C 59.25 14.82 68.12 13.83 77.03 13.37 C 78.62 20.86 80.68 28.24 82.26 35.73 C 83.10 37.98 81.05 39.58 79.94 41.26 C 82.20 48.11 84.70 54.88 86.98 61.73 C 74.67 70.01 62.43 78.39 50.08 86.61 C 37.79 78.33 25.54 69.99 13.24 61.74 C 17.89 48.28 22.58 34.82 27.33 21.40 C 34.42 21.41 41.51 21.46 48.59 21.28 C 49.17 19.35 49.76 17.43 50.36 15.52 M 52.33 17.91 C 51.65 19.88 50.97 21.84 50.30 23.81 C 43.34 24.36 36.35 24.08 29.38 24.27 C 25.19 36.42 20.67 48.45 16.86 60.72 C 27.85 68.31 38.92 75.79 50.07 83.14 C 61.31 75.93 72.26 68.28 83.31 60.78 C 81.80 54.56 79.21 48.70 77.25 42.63 C 75.84 39.53 79.98 37.44 79.52 34.41 C 78.57 28.08 76.61 21.95 75.08 15.75 C 67.48 16.29 59.87 16.75 52.33 17.91 Z" />
<path fill="#b61c2e" opacity="1.00" d=" M 52.33 17.91 C 59.87 16.75 67.48 16.29 75.08 15.75 C 76.61 21.95 78.57 28.08 79.52 34.41 C 79.98 37.44 75.84 39.53 77.25 42.63 C 79.21 48.70 81.80 54.56 83.31 60.78 C 72.26 68.28 61.31 75.93 50.07 83.14 C 38.92 75.79 27.85 68.31 16.86 60.72 C 20.67 48.45 25.19 36.42 29.38 24.27 C 36.35 24.08 43.34 24.36 50.30 23.81 C 50.97 21.84 51.65 19.88 52.33 17.91 M 54.09 19.95 C 52.76 24.42 51.47 28.90 50.46 33.46 C 53.07 30.72 55.07 27.28 58.27 25.18 C 61.43 24.31 64.75 24.40 67.99 24.13 C 68.44 27.40 68.90 30.67 69.36 33.94 C 67.52 34.97 65.75 36.17 63.75 36.86 C 60.95 37.24 58.15 36.48 55.38 36.16 C 54.14 38.28 53.12 40.58 51.43 42.41 C 48.67 44.22 45.14 44.09 42.16 45.40 C 38.79 48.73 36.64 53.64 38.45 58.31 C 41.42 54.73 44.00 50.61 48.19 48.30 C 50.15 53.61 45.11 57.57 43.56 62.24 C 48.07 62.04 51.80 58.82 53.25 54.66 C 53.78 50.95 53.09 47.05 54.45 43.46 C 55.51 40.77 58.80 41.69 61.03 41.60 C 67.18 42.32 72.24 38.13 77.57 35.79 C 76.26 29.97 74.89 24.17 73.46 18.38 C 66.98 18.62 60.53 19.25 54.09 19.95 M 36.60 64.15 C 36.83 65.19 37.17 66.21 37.61 67.20 C 40.72 63.51 45.02 59.56 44.32 54.23 C 41.04 56.88 38.15 60.19 36.60 64.15 M 29.55 66.69 C 30.04 67.29 31.01 68.49 31.50 69.08 C 33.89 66.23 35.89 63.06 37.30 59.61 C 33.38 60.23 31.10 63.33 29.55 66.69 M 35.67 71.03 C 36.52 71.80 37.37 72.57 38.22 73.35 C 40.83 70.71 43.15 67.62 43.09 63.71 C 40.46 65.98 38.05 68.49 35.67 71.03 M 34.22 68.32 C 32.70 68.22 32.76 70.68 34.24 70.62 C 35.76 70.73 35.70 68.25 34.22 68.32 Z" />
<path fill="#ffffff" opacity="1.00" d=" M 54.09 19.95 C 60.53 19.25 66.98 18.62 73.46 18.38 C 74.89 24.17 76.26 29.97 77.57 35.79 C 72.24 38.13 67.18 42.32 61.03 41.60 C 58.80 41.69 55.51 40.77 54.45 43.46 C 53.09 47.05 53.78 50.95 53.25 54.66 C 51.80 58.82 48.07 62.04 43.56 62.24 C 45.11 57.57 50.15 53.61 48.19 48.30 C 44.00 50.61 41.42 54.73 38.45 58.31 C 36.64 53.64 38.79 48.73 42.16 45.40 C 45.14 44.09 48.67 44.22 51.43 42.41 C 53.12 40.58 54.14 38.28 55.38 36.16 C 58.15 36.48 60.95 37.24 63.75 36.86 C 65.75 36.17 67.52 34.97 69.36 33.94 C 68.90 30.67 68.44 27.40 67.99 24.13 C 64.75 24.40 61.43 24.31 58.27 25.18 C 55.07 27.28 53.07 30.72 50.46 33.46 C 51.47 28.90 52.76 24.42 54.09 19.95 Z" />
<path fill="#ffffff" opacity="1.00" d=" M 36.60 64.15 C 38.15 60.19 41.04 56.88 44.32 54.23 C 45.02 59.56 40.72 63.51 37.61 67.20 C 37.17 66.21 36.83 65.19 36.60 64.15 Z" />
<path fill="#ffffff" opacity="1.00" d=" M 29.55 66.69 C 31.10 63.33 33.38 60.23 37.30 59.61 C 35.89 63.06 33.89 66.23 31.50 69.08 C 31.01 68.49 30.04 67.29 29.55 66.69 Z" />
<path fill="#ffffff" opacity="1.00" d=" M 35.67 71.03 C 38.05 68.49 40.46 65.98 43.09 63.71 C 43.15 67.62 40.83 70.71 38.22 73.35 C 37.37 72.57 36.52 71.80 35.67 71.03 Z" />
<path fill="#ffffff" opacity="1.00" d=" M 34.22 68.32 C 35.70 68.25 35.76 70.73 34.24 70.62 C 32.76 70.68 32.70 68.22 34.22 68.32 Z" />
</svg>
