<?xml version="1.0" encoding="UTF-8" ?>
<!DOCTYPE svg PUBLIC "-//W3C//DTD SVG 1.1//EN" "http://www.w3.org/Graphics/SVG/1.1/DTD/svg11.dtd">
<svg width="100pt" height="100pt" viewBox="0 0 100 100" version="1.1" xmlns="http://www.w3.org/2000/svg">
<path fill="#bfb9c0" opacity="1.00" d=" M 42.78 19.58 C 45.18 17.94 47.58 16.31 49.98 14.66 C 53.05 16.64 56.01 19.64 59.97 19.22 C 65.27 18.91 70.64 20.81 74.29 24.73 C 77.01 27.38 77.83 31.21 79.69 34.40 C 82.67 37.27 86.44 39.16 89.85 41.48 C 86.81 51.10 83.17 60.52 79.98 70.09 C 78.16 74.96 76.82 80.01 74.67 84.75 C 71.20 85.59 67.14 84.64 64.28 87.27 C 58.61 91.71 50.83 93.05 43.93 91.17 C 40.32 90.20 37.61 87.50 34.46 85.66 C 31.46 84.96 28.30 85.61 25.33 84.77 C 23.09 79.77 21.67 74.46 19.76 69.34 C 16.66 60.02 13.10 50.86 10.16 41.49 C 13.47 39.40 16.70 37.19 19.92 34.96 C 19.50 31.46 18.60 27.63 20.45 24.38 C 22.94 19.89 27.70 16.29 32.99 16.35 C 36.53 16.28 39.71 18.03 42.78 19.58 M 21.93 25.94 C 20.31 29.43 22.51 33.07 22.73 36.61 C 19.93 38.92 16.77 40.74 13.87 42.91 C 17.18 52.32 20.41 61.77 23.73 71.17 C 24.99 74.60 25.79 78.24 27.59 81.44 C 29.92 82.96 33.24 81.81 35.51 83.56 C 38.43 85.65 41.06 88.36 44.63 89.33 C 51.27 91.19 58.79 89.54 63.94 84.91 C 66.25 82.69 69.52 82.42 72.43 81.46 C 74.20 78.24 75.00 74.60 76.26 71.17 C 79.60 61.77 82.82 52.33 86.13 42.91 C 82.91 40.20 77.89 38.70 76.95 34.10 C 75.79 29.30 72.91 24.80 68.28 22.71 C 64.29 20.43 59.63 21.74 55.31 21.44 C 53.34 20.84 51.66 19.60 49.89 18.59 C 47.64 19.99 45.41 21.42 43.18 22.86 C 40.36 20.89 37.48 18.49 33.88 18.29 C 28.75 17.80 24.05 21.49 21.93 25.94 Z" />
<path fill="#26960f" opacity="1.00" d=" M 21.93 25.94 C 24.05 21.49 28.75 17.80 33.88 18.29 C 37.48 18.49 40.36 20.89 43.18 22.86 C 45.41 21.42 47.64 19.99 49.89 18.59 C 51.66 19.60 53.34 20.84 55.31 21.44 C 59.63 21.74 64.29 20.43 68.28 22.71 C 72.91 24.80 75.79 29.30 76.95 34.10 C 77.89 38.70 82.91 40.20 86.13 42.91 C 82.82 52.33 79.60 61.77 76.26 71.17 C 75.00 74.60 74.20 78.24 72.43 81.46 C 69.52 82.42 66.25 82.69 63.94 84.91 C 58.79 89.54 51.27 91.19 44.63 89.33 C 41.06 88.36 38.43 85.65 35.51 83.56 C 33.24 81.81 29.92 82.96 27.59 81.44 C 25.79 78.24 24.99 74.60 23.73 71.17 C 20.41 61.77 17.18 52.32 13.87 42.91 C 16.77 40.74 19.93 38.92 22.73 36.61 C 22.51 33.07 20.31 29.43 21.93 25.94 M 24.55 33.43 C 26.45 36.76 29.93 39.67 33.99 39.24 C 37.73 39.03 40.03 35.68 43.14 34.08 C 44.83 33.49 46.65 33.87 48.39 33.98 C 48.18 35.71 48.52 37.44 48.75 39.14 C 49.54 44.21 56.06 46.89 54.72 52.45 C 49.83 52.54 44.45 52.23 40.32 55.34 C 36.20 58.31 31.90 62.53 32.05 68.00 C 32.30 74.34 35.39 80.64 40.50 84.47 C 46.26 88.78 54.63 88.28 60.55 84.56 C 63.69 82.68 65.02 79.06 65.91 75.70 C 67.15 71.18 65.25 66.52 66.29 61.97 C 64.07 58.76 61.18 56.13 58.17 53.68 C 58.32 52.38 58.46 51.08 58.60 49.79 C 61.55 49.53 64.60 49.47 67.40 48.39 C 70.20 47.28 71.94 44.59 73.28 42.03 C 73.67 38.66 74.62 35.21 73.94 31.83 C 72.65 28.19 69.35 25.56 65.87 24.12 C 60.14 21.52 52.61 24.47 49.94 30.08 C 47.67 30.72 45.29 32.01 42.89 31.29 C 42.05 29.45 41.62 27.45 41.17 25.48 C 39.68 23.73 38.17 21.76 35.84 21.12 C 28.99 18.30 20.43 26.67 24.55 33.43 Z" />
<path fill="#a2d299" opacity="1.00" d=" M 24.55 33.43 C 20.43 26.67 28.99 18.30 35.84 21.12 C 38.17 21.76 39.68 23.73 41.17 25.48 C 38.06 23.61 34.64 22.35 31.05 21.81 C 32.36 22.42 33.68 23.02 35.01 23.58 C 32.74 23.81 30.24 23.84 28.31 25.22 C 26.41 26.92 25.76 29.53 24.91 31.84 C 24.82 32.24 24.64 33.03 24.55 33.43 Z" />
<path fill="#ffffff" opacity="1.00" d=" M 31.05 21.81 C 34.64 22.35 38.06 23.61 41.17 25.48 C 41.62 27.45 42.05 29.45 42.89 31.29 C 45.29 32.01 47.67 30.72 49.94 30.08 C 49.36 31.35 48.84 32.65 48.39 33.98 C 46.65 33.87 44.83 33.49 43.14 34.08 C 40.03 35.68 37.73 39.03 33.99 39.24 C 29.93 39.67 26.45 36.76 24.55 33.43 C 24.64 33.03 24.82 32.24 24.91 31.84 C 26.48 33.70 27.85 35.87 29.98 37.15 C 33.92 39.20 39.27 36.67 40.45 32.47 C 40.76 30.51 40.31 28.54 40.05 26.60 C 38.69 29.25 37.32 31.89 35.92 34.51 C 35.23 33.82 34.53 33.13 33.84 32.44 C 33.15 33.28 32.47 34.13 31.78 34.98 C 29.84 32.95 27.86 30.84 26.97 28.11 C 29.32 27.34 31.67 28.37 33.95 28.90 C 35.46 27.60 36.98 26.31 38.50 25.03 C 37.34 24.54 36.18 24.06 35.01 23.58 C 33.68 23.02 32.36 22.42 31.05 21.81 Z" />
<path fill="#a2d299" opacity="1.00" d=" M 49.94 30.08 C 52.61 24.47 60.14 21.52 65.87 24.12 C 69.35 25.56 72.65 28.19 73.94 31.83 C 74.62 35.21 73.67 38.66 73.28 42.03 C 73.43 37.80 73.45 32.94 70.27 29.71 C 66.25 25.04 58.42 24.70 53.97 28.94 C 51.38 32.02 50.59 36.15 50.69 40.08 C 50.19 38.69 49.71 37.29 49.23 35.90 C 49.05 36.98 48.89 38.06 48.75 39.14 C 48.52 37.44 48.18 35.71 48.39 33.98 C 48.84 32.65 49.36 31.35 49.94 30.08 Z" />
<path fill="#26960d" opacity="1.00" d=" M 28.31 25.22 C 30.24 23.84 32.74 23.81 35.01 23.58 C 36.18 24.06 37.34 24.54 38.50 25.03 C 36.98 26.31 35.46 27.60 33.95 28.90 C 31.67 28.37 29.32 27.34 26.97 28.11 C 27.86 30.84 29.84 32.95 31.78 34.98 C 32.47 34.13 33.15 33.28 33.84 32.44 C 34.53 33.13 35.23 33.82 35.92 34.51 C 37.32 31.89 38.69 29.25 40.05 26.60 C 40.31 28.54 40.76 30.51 40.45 32.47 C 39.27 36.67 33.92 39.20 29.98 37.15 C 27.85 35.87 26.48 33.70 24.91 31.84 C 25.76 29.53 26.41 26.92 28.31 25.22 Z" />
<path fill="#ffffff" opacity="1.00" d=" M 53.97 28.94 C 58.42 24.70 66.25 25.04 70.27 29.71 C 73.45 32.94 73.43 37.80 73.28 42.03 C 71.94 44.59 70.20 47.28 67.40 48.39 C 64.60 49.47 61.55 49.53 58.60 49.79 C 58.46 51.08 58.32 52.38 58.17 53.68 C 61.18 56.13 64.07 58.76 66.29 61.97 C 65.25 66.52 67.15 71.18 65.91 75.70 C 65.02 79.06 63.69 82.68 60.55 84.56 C 54.63 88.28 46.26 88.78 40.50 84.47 C 35.39 80.64 32.30 74.34 32.05 68.00 C 31.90 62.53 36.20 58.31 40.32 55.34 C 44.45 52.23 49.83 52.54 54.72 52.45 C 56.06 46.89 49.54 44.21 48.75 39.14 C 48.89 38.06 49.05 36.98 49.23 35.90 C 49.71 37.29 50.19 38.69 50.69 40.08 C 51.92 44.25 55.70 47.61 60.13 47.82 C 65.60 48.40 71.13 44.26 71.87 38.76 C 72.80 33.50 68.55 28.51 63.60 27.31 C 60.31 26.49 56.99 27.72 53.97 28.94 M 38.73 58.80 C 43.48 57.02 48.34 54.14 53.61 55.47 C 58.58 56.19 61.86 60.27 65.54 63.24 C 63.08 58.51 58.62 54.25 53.05 53.93 C 47.93 53.60 41.81 54.04 38.73 58.80 M 46.34 57.39 C 38.96 58.92 33.73 67.05 35.58 74.40 C 36.87 80.57 42.78 85.13 48.99 85.34 C 57.21 85.85 65.21 78.36 64.46 69.99 C 63.89 61.42 54.46 55.38 46.34 57.39 M 32.94 72.37 C 34.42 67.66 36.41 63.15 38.73 58.80 C 34.30 61.80 32.22 67.12 32.94 72.37 Z" />
<path fill="#26960f" opacity="1.00" d=" M 53.97 28.94 C 56.99 27.72 60.31 26.49 63.60 27.31 C 68.55 28.51 72.80 33.50 71.87 38.76 C 71.13 44.26 65.60 48.40 60.13 47.82 C 55.70 47.61 51.92 44.25 50.69 40.08 C 50.59 36.15 51.38 32.02 53.97 28.94 M 55.29 31.10 C 52.64 33.70 53.73 38.29 56.94 39.88 C 57.39 41.08 57.84 42.28 58.31 43.48 C 59.41 41.88 60.45 40.24 61.51 38.62 C 61.95 40.37 62.36 42.14 62.78 43.90 C 64.36 41.96 66.50 40.67 68.58 39.34 C 70.40 37.24 70.20 34.24 68.44 32.16 C 66.26 33.52 64.09 34.91 61.91 36.27 C 59.80 34.51 58.25 31.42 55.29 31.10 Z" />
<path fill="#ffffff" opacity="1.00" d=" M 55.29 31.10 C 58.25 31.42 59.80 34.51 61.91 36.27 C 64.09 34.91 66.26 33.52 68.44 32.16 C 70.20 34.24 70.40 37.24 68.58 39.34 C 66.50 40.67 64.36 41.96 62.78 43.90 C 62.36 42.14 61.95 40.37 61.51 38.62 C 60.45 40.24 59.41 41.88 58.31 43.48 C 57.84 42.28 57.39 41.08 56.94 39.88 C 53.73 38.29 52.64 33.70 55.29 31.10 Z" />
<path fill="#26960d" opacity="1.00" d=" M 38.73 58.80 C 41.81 54.04 47.93 53.60 53.05 53.93 C 58.62 54.25 63.08 58.51 65.54 63.24 C 61.86 60.27 58.58 56.19 53.61 55.47 C 48.34 54.14 43.48 57.02 38.73 58.80 Z" />
<path fill="#26960f" opacity="1.00" d=" M 46.34 57.39 C 54.46 55.38 63.89 61.42 64.46 69.99 C 65.21 78.36 57.21 85.85 48.99 85.34 C 42.78 85.13 36.87 80.57 35.58 74.40 C 33.73 67.05 38.96 58.92 46.34 57.39 M 42.04 62.84 C 41.18 63.98 40.25 65.09 39.56 66.34 C 39.36 69.01 40.48 71.59 41.05 74.16 C 42.44 74.21 43.82 74.24 45.21 74.27 C 45.07 76.55 45.67 78.77 47.97 79.73 C 49.03 76.56 49.91 73.31 50.49 70.01 C 47.88 67.39 45.04 65.00 42.04 62.84 M 50.57 69.98 C 51.12 73.37 51.44 77.02 53.78 79.73 C 54.40 77.95 54.95 76.15 55.46 74.34 C 56.96 74.27 58.46 74.20 59.97 74.11 C 60.52 71.56 61.62 69.00 61.42 66.35 C 60.73 65.09 59.82 63.98 58.97 62.83 C 55.97 64.97 53.14 67.35 50.57 69.98 Z" />
<path fill="#26960d" opacity="1.00" d=" M 32.94 72.37 C 32.22 67.12 34.30 61.80 38.73 58.80 C 36.41 63.15 34.42 67.66 32.94 72.37 Z" />
<path fill="#ffffff" opacity="1.00" d=" M 42.04 62.84 C 45.04 65.00 47.88 67.39 50.49 70.01 C 49.91 73.31 49.03 76.56 47.97 79.73 C 45.67 78.77 45.07 76.55 45.21 74.27 C 43.82 74.24 42.44 74.21 41.05 74.16 C 40.48 71.59 39.36 69.01 39.56 66.34 C 40.25 65.09 41.18 63.98 42.04 62.84 Z" />
<path fill="#ffffff" opacity="1.00" d=" M 50.57 69.98 C 53.14 67.35 55.97 64.97 58.97 62.83 C 59.82 63.98 60.73 65.09 61.42 66.35 C 61.62 69.00 60.52 71.56 59.97 74.11 C 58.46 74.20 56.96 74.27 55.46 74.34 C 54.95 76.15 54.40 77.95 53.78 79.73 C 51.44 77.02 51.12 73.37 50.57 69.98 Z" />
</svg>
