<?xml version="1.0" encoding="UTF-8" ?>
<!DOCTYPE svg PUBLIC "-//W3C//DTD SVG 1.1//EN" "http://www.w3.org/Graphics/SVG/1.1/DTD/svg11.dtd">
<svg width="100pt" height="100pt" viewBox="0 0 100 100" version="1.1" xmlns="http://www.w3.org/2000/svg">
<path fill="#b8c2c1" opacity="1.00" d=" M 41.70 19.44 C 45.18 17.93 47.70 14.78 50.80 12.61 C 54.67 15.16 57.80 20.01 62.93 19.67 C 68.38 19.69 73.82 19.49 79.27 19.74 C 79.42 39.16 79.49 58.60 79.23 78.02 C 77.38 78.23 75.53 78.48 73.67 78.70 C 73.45 80.98 73.21 83.26 72.91 85.53 C 70.72 83.28 68.90 80.66 66.49 78.63 C 61.03 77.96 55.49 78.54 50.00 78.38 C 44.85 78.53 39.65 77.95 34.53 78.64 C 32.13 80.68 30.32 83.30 28.15 85.58 C 27.84 83.26 27.60 80.94 27.36 78.61 C 25.03 78.48 22.70 78.18 20.37 78.00 C 20.40 58.63 20.42 39.25 20.36 19.87 C 27.46 19.17 34.61 20.08 41.70 19.44 M 39.06 22.97 C 33.99 22.98 28.92 22.74 23.84 23.03 C 23.33 31.01 23.74 39.01 23.63 47.00 C 23.79 56.27 23.27 65.55 23.88 74.82 C 25.69 75.08 27.49 75.46 29.31 75.74 C 29.72 76.75 30.12 77.75 30.53 78.76 C 32.46 77.27 34.30 75.17 36.96 75.31 C 46.00 75.27 55.04 75.34 64.08 75.29 C 66.82 74.98 68.66 77.18 70.55 78.75 C 70.96 77.80 71.37 76.86 71.80 75.91 C 73.10 75.47 74.40 75.01 75.71 74.56 C 76.03 57.41 75.84 40.23 75.80 23.07 C 70.30 22.59 64.74 23.40 59.28 22.61 C 56.04 20.93 53.63 18.06 50.82 15.79 C 47.04 18.36 44.22 23.44 39.06 22.97 Z" />
<path fill="#b61c2e" opacity="1.00" d=" M 39.06 22.97 C 44.22 23.44 47.04 18.36 50.82 15.79 C 53.63 18.06 56.04 20.93 59.28 22.61 C 64.74 23.40 70.30 22.59 75.80 23.07 C 75.84 40.23 76.03 57.41 75.71 74.56 C 74.40 75.01 73.10 75.47 71.80 75.91 C 71.37 76.86 70.96 77.80 70.55 78.75 C 68.66 77.18 66.82 74.98 64.08 75.29 C 55.04 75.34 46.00 75.27 36.96 75.31 C 34.30 75.17 32.46 77.27 30.53 78.76 C 30.12 77.75 29.72 76.75 29.31 75.74 C 27.49 75.46 25.69 75.08 23.88 74.82 C 23.27 65.55 23.79 56.27 23.63 47.00 C 23.74 39.01 23.33 31.01 23.84 23.03 C 28.92 22.74 33.99 22.98 39.06 22.97 M 39.23 30.25 C 35.92 33.00 32.26 35.28 28.85 37.90 C 33.59 37.18 38.30 36.27 43.06 35.62 C 46.00 48.03 47.74 60.71 50.48 73.17 C 53.60 60.83 55.36 48.19 58.13 35.76 C 62.87 36.22 67.55 37.15 72.27 37.88 C 68.91 35.16 65.24 32.86 61.92 30.10 C 57.82 26.80 54.35 22.81 50.77 18.97 C 46.90 22.70 43.43 26.87 39.23 30.25 M 32.61 39.80 C 32.62 50.96 32.20 62.13 32.34 73.29 C 34.32 68.08 36.76 62.85 37.37 57.28 C 36.42 51.32 34.69 45.46 32.61 39.80 M 63.70 57.18 C 64.33 62.78 66.75 68.05 68.74 73.29 C 68.81 62.13 68.44 50.97 68.40 39.80 C 66.43 45.47 64.64 51.26 63.70 57.18 Z" />
<path fill="#ffffff" opacity="1.00" d=" M 39.23 30.25 C 43.43 26.87 46.90 22.70 50.77 18.97 C 54.35 22.81 57.82 26.80 61.92 30.10 C 65.24 32.86 68.91 35.16 72.27 37.88 C 67.55 37.15 62.87 36.22 58.13 35.76 C 55.36 48.19 53.60 60.83 50.48 73.17 C 47.74 60.71 46.00 48.03 43.06 35.62 C 38.30 36.27 33.59 37.18 28.85 37.90 C 32.26 35.28 35.92 33.00 39.23 30.25 Z" />
<path fill="#ffffff" opacity="1.00" d=" M 32.61 39.80 C 34.69 45.46 36.42 51.32 37.37 57.28 C 36.76 62.85 34.32 68.08 32.34 73.29 C 32.20 62.13 32.62 50.96 32.61 39.80 Z" />
<path fill="#ffffff" opacity="1.00" d=" M 63.70 57.18 C 64.64 51.26 66.43 45.47 68.40 39.80 C 68.44 50.97 68.81 62.13 68.74 73.29 C 66.75 68.05 64.33 62.78 63.70 57.18 Z" />
</svg>
