<?xml version="1.0" encoding="UTF-8" ?>
<!DOCTYPE svg PUBLIC "-//W3C//DTD SVG 1.1//EN" "http://www.w3.org/Graphics/SVG/1.1/DTD/svg11.dtd">
<svg width="100pt" height="100pt" viewBox="0 0 100 100" version="1.1" xmlns="http://www.w3.org/2000/svg">
<path fill="#ffffff" opacity="1.00" d=" M 24.73 19.73 C 31.71 14.58 40.35 11.61 49.03 11.65 C 53.96 11.61 58.83 14.78 63.68 12.81 C 69.39 11.27 75.36 11.94 81.19 11.83 C 79.69 14.01 78.13 16.13 76.55 18.25 C 82.57 16.10 88.94 17.66 95.12 17.93 C 92.94 21.16 90.88 24.47 88.60 27.64 C 87.06 30.02 84.17 30.79 81.77 31.98 C 86.86 42.16 87.69 54.50 83.05 65.00 C 77.12 79.53 61.49 88.97 45.95 88.29 C 33.70 87.30 22.08 80.61 15.51 70.15 C 12.50 74.31 8.61 77.70 4.41 80.61 C 4.45 76.95 4.45 73.21 5.69 69.72 C 6.72 66.10 9.11 63.12 10.64 59.74 C 10.81 57.16 10.12 54.62 9.99 52.05 C 9.45 45.90 10.97 39.79 13.21 34.10 C 9.03 29.71 8.79 23.51 7.97 17.85 C 13.62 17.56 19.60 16.74 24.73 19.73 M 56.67 16.33 C 52.02 15.61 47.27 14.88 42.58 15.69 C 36.48 16.56 30.94 19.47 25.96 22.97 C 21.32 19.63 15.64 19.12 10.11 19.67 C 10.64 22.50 11.01 25.37 11.94 28.11 C 12.85 30.67 15.01 32.46 16.79 34.41 C 13.82 41.02 12.79 48.31 13.68 55.50 C 14.36 59.44 11.34 62.46 9.68 65.70 C 7.70 68.95 7.08 72.75 6.62 76.46 C 10.57 73.33 13.67 69.35 16.51 65.22 C 19.10 69.27 21.81 73.33 25.54 76.44 C 33.28 83.20 44.16 86.01 54.24 84.15 C 61.96 82.95 68.64 78.49 74.15 73.15 C 71.36 71.34 68.70 69.31 65.77 67.74 C 62.10 68.79 60.26 72.35 57.76 74.89 C 56.45 76.45 54.24 76.31 52.43 76.74 C 54.65 72.96 57.48 69.61 60.22 66.21 C 53.94 61.41 47.97 56.24 41.86 51.23 C 36.19 55.75 31.11 60.93 25.83 65.89 C 29.88 59.94 34.69 54.58 39.53 49.29 C 37.42 47.62 35.31 45.95 33.20 44.29 C 23.90 52.38 16.22 62.04 8.93 71.92 C 14.56 60.94 22.14 51.07 30.30 41.86 C 25.72 38.01 20.94 34.41 16.49 30.42 C 14.02 28.32 13.63 24.94 12.78 22.01 C 16.46 21.98 20.43 22.10 23.37 24.63 C 37.87 35.69 51.98 47.29 67.00 57.65 C 69.42 54.56 71.66 51.30 74.43 48.50 C 75.18 49.23 75.85 50.02 76.44 50.88 C 74.40 54.90 69.80 57.89 69.84 62.74 C 71.54 65.59 74.58 67.26 77.00 69.42 C 79.48 64.77 81.81 59.90 82.41 54.59 C 83.60 46.64 81.41 38.63 77.70 31.63 C 80.37 30.37 83.20 29.38 85.61 27.64 C 88.08 25.38 89.67 22.37 91.54 19.63 C 87.84 19.46 84.08 18.73 80.41 19.45 C 76.74 20.59 73.44 22.64 69.94 24.20 C 72.22 20.76 74.68 17.46 77.09 14.12 C 73.44 14.16 69.77 13.94 66.15 14.47 C 62.96 14.96 60.00 17.05 56.67 16.33 Z" />
<path fill="#482b46" opacity="1.00" d=" M 56.67 16.33 C 60.00 17.05 62.96 14.96 66.15 14.47 C 69.77 13.94 73.44 14.16 77.09 14.12 C 74.68 17.46 72.22 20.76 69.94 24.20 C 73.44 22.64 76.74 20.59 80.41 19.45 C 84.08 18.73 87.84 19.46 91.54 19.63 C 89.67 22.37 88.08 25.38 85.61 27.64 C 83.20 29.38 80.37 30.37 77.70 31.63 C 81.41 38.63 83.60 46.64 82.41 54.59 C 81.81 59.90 79.48 64.77 77.00 69.42 C 74.58 67.26 71.54 65.59 69.84 62.74 C 69.80 57.89 74.40 54.90 76.44 50.88 C 75.85 50.02 75.18 49.23 74.43 48.50 C 71.66 51.30 69.42 54.56 67.00 57.65 C 51.98 47.29 37.87 35.69 23.37 24.63 C 20.43 22.10 16.46 21.98 12.78 22.01 C 13.63 24.94 14.02 28.32 16.49 30.42 C 20.94 34.41 25.72 38.01 30.30 41.86 C 22.14 51.07 14.56 60.94 8.93 71.92 C 16.22 62.04 23.90 52.38 33.20 44.29 C 35.31 45.95 37.42 47.62 39.53 49.29 C 34.69 54.58 29.88 59.94 25.83 65.89 C 31.11 60.93 36.19 55.75 41.86 51.23 C 47.97 56.24 53.94 61.41 60.22 66.21 C 57.48 69.61 54.65 72.96 52.43 76.74 C 54.24 76.31 56.45 76.45 57.76 74.89 C 60.26 72.35 62.10 68.79 65.77 67.74 C 68.70 69.31 71.36 71.34 74.15 73.15 C 68.64 78.49 61.96 82.95 54.24 84.15 C 44.16 86.01 33.28 83.20 25.54 76.44 C 21.81 73.33 19.10 69.27 16.51 65.22 C 13.67 69.35 10.57 73.33 6.62 76.46 C 7.08 72.75 7.70 68.95 9.68 65.70 C 11.34 62.46 14.36 59.44 13.68 55.50 C 12.79 48.31 13.82 41.02 16.79 34.41 C 15.01 32.46 12.85 30.67 11.94 28.11 C 11.01 25.37 10.64 22.50 10.11 19.67 C 15.64 19.12 21.32 19.63 25.96 22.97 C 30.94 19.47 36.48 16.56 42.58 15.69 C 47.27 14.88 52.02 15.61 56.67 16.33 M 62.33 18.36 C 54.23 22.96 46.35 28.07 39.28 34.16 C 40.80 34.63 42.28 35.32 43.89 35.46 C 47.96 33.53 51.39 30.50 55.29 28.26 C 61.11 24.43 68.28 22.38 72.60 16.58 C 69.12 16.57 65.42 16.48 62.33 18.36 M 78.05 23.05 C 68.00 27.92 58.53 33.94 49.69 40.75 C 50.84 41.34 51.99 41.92 53.14 42.51 C 61.57 36.79 70.47 31.74 79.88 27.83 C 83.06 26.66 85.54 24.30 87.56 21.65 C 84.34 21.59 80.97 21.48 78.05 23.05 Z" />
<path fill="#ffffff" opacity="1.00" d=" M 62.33 18.36 C 65.42 16.48 69.12 16.57 72.60 16.58 C 68.28 22.38 61.11 24.43 55.29 28.26 C 51.39 30.50 47.96 33.53 43.89 35.46 C 42.28 35.32 40.80 34.63 39.28 34.16 C 46.35 28.07 54.23 22.96 62.33 18.36 Z" />
<path fill="#ffffff" opacity="1.00" d=" M 78.05 23.05 C 80.97 21.48 84.34 21.59 87.56 21.65 C 85.54 24.30 83.06 26.66 79.88 27.83 C 70.47 31.74 61.57 36.79 53.14 42.51 C 51.99 41.92 50.84 41.34 49.69 40.75 C 58.53 33.94 68.00 27.92 78.05 23.05 Z" />
</svg>
