<?xml version="1.0" encoding="UTF-8" ?>
<!DOCTYPE svg PUBLIC "-//W3C//DTD SVG 1.1//EN" "http://www.w3.org/Graphics/SVG/1.1/DTD/svg11.dtd">
<svg width="100pt" height="100pt" viewBox="0 0 100 100" version="1.1" xmlns="http://www.w3.org/2000/svg">
<path fill="#b7c1c0" opacity="1.00" d=" M 48.46 17.76 C 49.19 14.79 50.22 10.62 54.00 10.48 C 61.63 10.90 67.34 17.00 74.70 18.43 C 76.82 24.11 80.88 29.01 81.75 35.14 C 83.13 44.29 87.21 52.68 89.91 61.46 C 76.53 70.33 63.23 79.33 50.00 88.42 C 36.77 79.33 23.47 70.33 10.09 61.47 C 12.44 54.16 15.65 47.08 16.82 39.45 C 17.40 35.96 18.88 32.71 20.61 29.64 C 22.69 25.93 23.95 21.84 25.23 17.81 C 32.97 17.75 40.72 17.65 48.46 17.76 M 50.94 13.18 C 51.54 15.70 52.10 18.25 52.55 20.81 C 44.50 20.77 36.37 20.10 28.37 21.03 C 25.79 24.94 23.55 29.07 21.06 33.05 C 18.81 36.62 18.61 40.91 18.24 44.98 C 17.78 50.26 15.68 55.18 13.81 60.08 C 25.76 68.42 37.87 76.54 50.00 84.62 C 62.13 76.54 74.24 68.42 86.19 60.08 C 84.68 55.86 83.04 51.67 81.63 47.41 C 79.83 42.21 80.59 36.52 78.75 31.33 C 76.94 26.32 73.42 21.98 69.04 18.98 C 63.73 15.38 57.61 11.93 50.94 13.18 Z" />
<path fill="#c40f24" opacity="1.00" d=" M 50.94 13.18 C 57.61 11.93 63.73 15.38 69.04 18.98 C 73.42 21.98 76.94 26.32 78.75 31.33 C 80.59 36.52 79.83 42.21 81.63 47.41 C 83.04 51.67 84.68 55.86 86.19 60.08 C 74.24 68.42 62.13 76.54 50.00 84.62 C 37.87 76.54 25.76 68.42 13.81 60.08 C 15.68 55.18 17.78 50.26 18.24 44.98 C 18.61 40.91 18.81 36.62 21.06 33.05 C 23.55 29.07 25.79 24.94 28.37 21.03 C 36.37 20.10 44.50 20.77 52.55 20.81 C 52.10 18.25 51.54 15.70 50.94 13.18 M 53.15 15.24 C 56.46 21.05 61.41 25.97 63.49 32.44 C 65.46 40.62 60.50 49.41 53.28 53.28 C 48.04 56.03 41.64 54.23 37.13 50.87 C 34.02 48.60 31.01 45.13 31.53 41.00 C 31.92 37.41 33.83 32.81 37.98 32.52 C 41.40 32.41 45.11 33.00 47.90 35.11 C 50.15 37.03 49.05 40.25 49.19 42.79 C 45.99 42.59 42.80 42.31 39.60 42.31 C 42.91 44.20 47.06 47.12 50.90 44.93 C 55.59 41.06 55.05 32.43 49.83 29.18 C 44.26 25.50 36.50 22.55 30.24 26.28 C 21.75 31.62 18.09 43.88 23.17 52.74 C 27.78 60.87 36.07 66.76 45.11 68.92 C 53.60 70.99 62.67 67.80 68.88 61.88 C 78.33 53.01 81.30 36.58 72.92 26.05 C 67.91 20.30 60.84 15.99 53.15 15.24 Z" />
<path fill="#ffffff" opacity="1.00" d=" M 53.15 15.24 C 60.84 15.99 67.91 20.30 72.92 26.05 C 81.30 36.58 78.33 53.01 68.88 61.88 C 62.67 67.80 53.60 70.99 45.11 68.92 C 36.07 66.76 27.78 60.87 23.17 52.74 C 18.09 43.88 21.75 31.62 30.24 26.28 C 36.50 22.55 44.26 25.50 49.83 29.18 C 55.05 32.43 55.59 41.06 50.90 44.93 C 47.06 47.12 42.91 44.20 39.60 42.31 C 42.80 42.31 45.99 42.59 49.19 42.79 C 49.05 40.25 50.15 37.03 47.90 35.11 C 45.11 33.00 41.40 32.41 37.98 32.52 C 33.83 32.81 31.92 37.41 31.53 41.00 C 31.01 45.13 34.02 48.60 37.13 50.87 C 41.64 54.23 48.04 56.03 53.28 53.28 C 60.50 49.41 65.46 40.62 63.49 32.44 C 61.41 25.97 56.46 21.05 53.15 15.24 Z" />
</svg>
