<?xml version="1.0" encoding="UTF-8" ?>
<!DOCTYPE svg PUBLIC "-//W3C//DTD SVG 1.1//EN" "http://www.w3.org/Graphics/SVG/1.1/DTD/svg11.dtd">
<svg width="100pt" height="100pt" viewBox="0 0 100 100" version="1.1" xmlns="http://www.w3.org/2000/svg">
<path fill="#b7c7c6" opacity="1.00" d=" M 54.46 12.38 C 61.25 11.75 67.13 16.05 72.77 19.20 C 76.10 21.29 80.21 20.35 83.92 20.54 C 83.92 25.36 83.57 30.29 85.02 34.95 C 86.30 39.14 86.95 43.54 86.56 47.92 C 86.30 53.36 83.81 58.45 83.93 63.93 C 83.87 71.87 83.94 79.82 83.93 87.76 C 61.31 87.67 38.69 87.67 16.07 87.76 C 16.06 79.49 16.17 71.21 16.06 62.94 C 16.08 58.46 14.11 54.32 13.60 49.93 C 13.19 45.13 15.56 40.70 15.93 35.99 C 16.31 30.83 16.04 25.66 16.05 20.49 C 27.53 20.60 39.00 20.37 50.48 20.61 C 50.54 17.52 50.54 13.01 54.46 12.38 M 52.49 16.43 C 52.78 18.90 53.98 21.12 54.87 23.40 C 42.87 23.33 30.87 23.51 18.86 23.31 C 18.88 26.55 18.98 29.80 18.75 33.04 C 18.46 38.49 15.65 43.50 15.75 49.00 C 15.86 54.15 18.61 58.81 18.75 63.96 C 18.95 70.76 18.69 77.56 18.78 84.36 C 39.79 84.46 60.79 84.51 81.80 84.34 C 81.78 77.54 81.57 70.74 81.75 63.94 C 81.87 58.47 84.21 53.36 84.60 47.92 C 85.42 39.67 81.25 32.00 81.47 23.77 C 72.07 23.91 65.92 15.05 56.77 14.28 C 55.02 14.05 53.12 14.63 52.49 16.43 Z" />
<path fill="#c40f24" opacity="1.00" d=" M 52.49 16.43 C 53.12 14.63 55.02 14.05 56.77 14.28 C 65.92 15.05 72.07 23.91 81.47 23.77 C 81.25 32.00 85.42 39.67 84.60 47.92 C 84.21 53.36 81.87 58.47 81.75 63.94 C 81.57 70.74 81.78 77.54 81.80 84.34 C 60.79 84.51 39.79 84.46 18.78 84.36 C 18.69 77.56 18.95 70.76 18.75 63.96 C 18.61 58.81 15.86 54.15 15.75 49.00 C 15.65 43.50 18.46 38.49 18.75 33.04 C 18.98 29.80 18.88 26.55 18.86 23.31 C 30.87 23.51 42.87 23.33 54.87 23.40 C 53.98 21.12 52.78 18.90 52.49 16.43 M 54.49 16.48 C 58.15 23.32 64.14 28.92 66.31 36.52 C 68.20 45.92 62.24 55.79 53.79 59.80 C 46.31 62.91 37.76 58.95 32.76 53.18 C 28.50 48.55 29.91 40.33 34.92 36.84 C 39.23 35.14 44.36 36.44 48.24 38.71 C 51.28 40.67 49.99 44.65 50.12 47.63 C 46.65 47.53 43.18 47.23 39.71 47.33 C 43.35 49.31 47.80 52.42 51.98 50.04 C 57.32 45.66 56.61 35.98 50.73 32.32 C 44.56 28.23 36.01 25.05 29.01 28.98 C 19.58 34.84 15.25 48.35 20.67 58.31 C 25.40 67.14 34.07 73.57 43.58 76.46 C 51.41 78.86 60.17 77.51 67.01 73.03 C 79.72 65.28 85.90 47.85 79.88 34.05 C 75.22 24.34 64.89 18.17 54.49 16.48 Z" />
<path fill="#ffffff" opacity="1.00" d=" M 54.49 16.48 C 64.89 18.17 75.22 24.34 79.88 34.05 C 85.90 47.85 79.72 65.28 67.01 73.03 C 60.17 77.51 51.41 78.86 43.58 76.46 C 34.07 73.57 25.40 67.14 20.67 58.31 C 15.25 48.35 19.58 34.84 29.01 28.98 C 36.01 25.05 44.56 28.23 50.73 32.32 C 56.61 35.98 57.32 45.66 51.98 50.04 C 47.80 52.42 43.35 49.31 39.71 47.33 C 43.18 47.23 46.65 47.53 50.12 47.63 C 49.99 44.65 51.28 40.67 48.24 38.71 C 44.36 36.44 39.23 35.14 34.92 36.84 C 29.91 40.33 28.50 48.55 32.76 53.18 C 37.76 58.95 46.31 62.91 53.79 59.80 C 62.24 55.79 68.20 45.92 66.31 36.52 C 64.14 28.92 58.15 23.32 54.49 16.48 Z" />
</svg>
