<?xml version="1.0" encoding="UTF-8" ?>
<!DOCTYPE svg PUBLIC "-//W3C//DTD SVG 1.1//EN" "http://www.w3.org/Graphics/SVG/1.1/DTD/svg11.dtd">
<svg width="100pt" height="100pt" viewBox="0 0 100 100" version="1.1" xmlns="http://www.w3.org/2000/svg">
<path fill="#b9b8b9" opacity="1.00" d=" M 44.45 12.64 C 60.65 10.07 77.80 19.63 84.35 34.63 C 89.38 45.63 88.66 59.07 82.42 69.44 C 74.90 82.51 59.11 89.95 44.23 87.49 C 30.17 85.55 17.85 74.87 13.83 61.27 C 9.67 47.91 13.59 32.41 23.88 22.87 C 29.47 17.43 36.83 14.07 44.45 12.64 M 43.36 16.42 C 31.68 18.66 21.53 27.38 17.56 38.58 C 13.60 49.41 15.63 62.14 22.76 71.20 C 32.64 84.59 52.74 88.56 67.00 80.02 C 80.90 72.37 87.92 54.44 82.58 39.43 C 77.61 23.42 59.81 12.81 43.36 16.42 Z" />
<path fill="#2c8c19" opacity="1.00" d=" M 43.36 16.42 C 59.81 12.81 77.61 23.42 82.58 39.43 C 87.92 54.44 80.90 72.37 67.00 80.02 C 52.74 88.56 32.64 84.59 22.76 71.20 C 15.63 62.14 13.60 49.41 17.56 38.58 C 21.53 27.38 31.68 18.66 43.36 16.42 M 34.45 26.45 C 27.51 31.11 20.72 38.11 20.68 47.01 C 20.92 54.44 23.85 61.74 28.47 67.54 C 37.73 79.05 56.35 81.05 67.89 71.83 C 74.20 67.22 77.58 59.51 77.87 51.81 C 76.39 56.46 75.97 61.69 72.66 65.54 C 68.55 70.41 63.11 74.47 56.91 76.18 C 50.39 76.49 43.75 75.51 37.54 73.49 C 30.08 70.81 26.10 63.24 23.55 56.23 C 20.82 49.53 21.84 41.28 26.94 35.96 C 30.81 31.82 34.46 26.60 40.38 25.40 C 48.01 23.66 56.59 23.34 63.54 27.45 C 69.36 30.90 72.87 36.87 77.05 41.98 C 74.35 35.29 69.67 29.28 63.26 25.82 C 54.46 21.06 42.88 20.61 34.45 26.45 M 39.26 41.67 C 38.20 43.45 36.17 45.13 36.63 47.42 C 36.99 49.76 37.44 52.16 38.59 54.25 C 40.03 55.00 41.62 55.41 43.18 55.85 C 43.44 57.27 43.72 58.69 44.01 60.11 C 45.00 60.59 46.01 61.05 47.02 61.48 C 48.18 57.81 49.51 54.05 49.40 50.15 C 46.95 46.41 43.15 43.76 39.26 41.67 M 50.50 50.09 C 50.35 53.74 51.46 57.28 52.28 60.80 C 52.90 60.79 54.14 60.78 54.76 60.78 C 55.08 58.90 55.36 57.02 55.61 55.13 C 57.57 55.00 59.52 54.88 61.48 54.71 C 62.11 51.87 63.09 49.08 63.25 46.17 C 62.73 44.52 61.62 43.14 60.70 41.71 C 56.68 43.59 52.95 46.37 50.50 50.09 Z" />
<path fill="#ffffff" opacity="1.00" d=" M 34.45 26.45 C 42.88 20.61 54.46 21.06 63.26 25.82 C 69.67 29.28 74.35 35.29 77.05 41.98 C 72.87 36.87 69.36 30.90 63.54 27.45 C 56.59 23.34 48.01 23.66 40.38 25.40 C 34.46 26.60 30.81 31.82 26.94 35.96 C 21.84 41.28 20.82 49.53 23.55 56.23 C 26.10 63.24 30.08 70.81 37.54 73.49 C 43.75 75.51 50.39 76.49 56.91 76.18 C 63.11 74.47 68.55 70.41 72.66 65.54 C 75.97 61.69 76.39 56.46 77.87 51.81 C 77.58 59.51 74.20 67.22 67.89 71.83 C 56.35 81.05 37.73 79.05 28.47 67.54 C 23.85 61.74 20.92 54.44 20.68 47.01 C 20.72 38.11 27.51 31.11 34.45 26.45 Z" />
<path fill="#ffffff" opacity="1.00" d=" M 39.26 41.67 C 43.15 43.76 46.95 46.41 49.40 50.15 C 49.51 54.05 48.18 57.81 47.02 61.48 C 46.01 61.05 45.00 60.59 44.01 60.11 C 43.72 58.69 43.44 57.27 43.18 55.85 C 41.62 55.41 40.03 55.00 38.59 54.25 C 37.44 52.16 36.99 49.76 36.63 47.42 C 36.17 45.13 38.20 43.45 39.26 41.67 Z" />
<path fill="#ffffff" opacity="1.00" d=" M 50.50 50.09 C 52.95 46.37 56.68 43.59 60.70 41.71 C 61.62 43.14 62.73 44.52 63.25 46.17 C 63.09 49.08 62.11 51.87 61.48 54.71 C 59.52 54.88 57.57 55.00 55.61 55.13 C 55.36 57.02 55.08 58.90 54.76 60.78 C 54.14 60.78 52.90 60.79 52.28 60.80 C 51.46 57.28 50.35 53.74 50.50 50.09 Z" />
</svg>
