<?xml version="1.0" encoding="UTF-8" ?>
<!DOCTYPE svg PUBLIC "-//W3C//DTD SVG 1.1//EN" "http://www.w3.org/Graphics/SVG/1.1/DTD/svg11.dtd">
<svg width="100pt" height="100pt" viewBox="0 0 100 100" version="1.1" xmlns="http://www.w3.org/2000/svg">
<path fill="#bab9ba" opacity="1.00" d=" M 42.11 9.64 C 47.27 9.73 52.44 9.76 57.60 10.00 C 57.62 11.59 57.64 13.18 57.67 14.78 C 67.00 16.59 75.35 21.87 81.28 29.25 C 82.84 28.48 84.39 27.70 85.95 26.94 C 88.11 31.73 90.26 36.53 92.71 41.18 C 91.14 41.87 89.57 42.56 88.01 43.26 C 88.80 49.28 89.22 55.50 87.62 61.43 C 86.39 66.47 83.85 71.05 80.92 75.30 C 81.96 76.54 83.01 77.76 84.07 78.99 C 79.97 82.27 75.91 85.60 71.94 89.03 C 70.96 87.84 69.98 86.66 69.00 85.48 C 57.77 91.15 43.97 91.28 32.86 85.23 C 31.66 86.66 30.45 88.09 29.24 89.51 C 25.28 86.17 21.29 82.87 17.28 79.59 C 18.46 78.28 19.69 77.00 20.72 75.56 C 19.31 71.75 16.72 68.47 15.44 64.59 C 12.90 58.01 13.06 50.81 13.95 43.92 C 11.89 43.01 9.84 42.11 7.79 41.20 C 10.08 36.46 12.25 31.67 14.46 26.89 C 16.35 27.94 18.24 29.00 20.12 30.07 C 25.61 23.04 33.13 17.62 41.84 15.38 C 41.94 13.47 42.03 11.56 42.11 9.64 M 44.36 12.23 C 44.39 14.18 44.42 16.13 44.45 18.08 C 40.27 19.44 36.00 20.79 32.31 23.25 C 28.18 25.91 24.98 29.70 21.87 33.46 C 19.94 32.40 18.03 31.27 15.95 30.51 C 13.29 32.96 12.47 36.80 10.86 39.96 C 13.11 41.02 15.35 42.08 17.60 43.13 C 16.77 48.57 16.16 54.18 17.46 59.61 C 18.62 65.18 21.68 70.08 24.81 74.74 C 23.39 76.25 21.98 77.77 20.56 79.28 C 23.32 81.65 26.10 83.98 28.90 86.31 C 30.27 84.71 31.64 83.10 33.01 81.49 C 36.11 82.99 39.24 84.49 42.58 85.37 C 51.46 87.93 60.81 85.71 68.94 81.82 C 70.06 83.13 71.18 84.45 72.30 85.76 C 75.11 83.43 77.94 81.11 80.77 78.82 C 79.58 77.49 78.38 76.16 77.18 74.84 C 80.34 70.15 83.44 65.24 84.61 59.62 C 85.94 53.94 85.25 48.08 84.40 42.39 C 86.08 41.58 87.76 40.77 89.44 39.95 C 87.94 36.65 86.44 33.36 84.93 30.07 C 83.25 30.97 81.56 31.87 79.88 32.77 C 76.64 29.15 73.36 25.44 69.19 22.86 C 65.02 20.19 60.18 18.92 55.44 17.68 C 55.28 15.89 55.12 14.09 54.96 12.29 C 51.42 12.28 47.89 12.26 44.36 12.23 Z" />
<path fill="#2c8c19" opacity="1.00" d=" M 44.36 12.23 C 47.89 12.26 51.42 12.28 54.96 12.29 C 55.12 14.09 55.28 15.89 55.44 17.68 C 60.18 18.92 65.02 20.19 69.19 22.86 C 73.36 25.44 76.64 29.15 79.88 32.77 C 81.56 31.87 83.25 30.97 84.93 30.07 C 86.44 33.36 87.94 36.65 89.44 39.95 C 87.76 40.77 86.08 41.58 84.40 42.39 C 85.25 48.08 85.94 53.94 84.61 59.62 C 83.44 65.24 80.34 70.15 77.18 74.84 C 78.38 76.16 79.58 77.49 80.77 78.82 C 77.94 81.11 75.11 83.43 72.30 85.76 C 71.18 84.45 70.06 83.13 68.94 81.82 C 60.81 85.71 51.46 87.93 42.58 85.37 C 39.24 84.49 36.11 82.99 33.01 81.49 C 31.64 83.10 30.27 84.71 28.90 86.31 C 26.10 83.98 23.32 81.65 20.56 79.28 C 21.98 77.77 23.39 76.25 24.81 74.74 C 21.68 70.08 18.62 65.18 17.46 59.61 C 16.16 54.18 16.77 48.57 17.60 43.13 C 15.35 42.08 13.11 41.02 10.86 39.96 C 12.47 36.80 13.29 32.96 15.95 30.51 C 18.03 31.27 19.94 32.40 21.87 33.46 C 24.98 29.70 28.18 25.91 32.31 23.25 C 36.00 20.79 40.27 19.44 44.45 18.08 C 44.42 16.13 44.39 14.18 44.36 12.23 M 46.69 14.44 C 46.85 17.27 47.19 20.09 47.07 22.92 C 43.45 24.43 39.53 25.20 36.11 27.16 C 31.50 29.82 27.76 33.69 24.19 37.59 C 21.68 36.05 19.15 34.56 16.64 33.03 C 15.67 34.99 14.72 36.95 13.77 38.92 C 16.41 40.03 19.04 41.15 21.70 42.21 C 19.62 51.82 22.92 61.82 28.96 69.35 C 26.83 64.08 23.69 59.15 22.66 53.50 C 22.25 50.34 22.50 47.15 22.69 43.98 C 22.83 40.55 25.16 37.76 27.44 35.41 C 33.22 30.06 40.52 25.02 48.85 26.33 C 44.58 29.06 39.00 29.32 35.49 33.27 C 40.95 31.97 46.30 29.77 52.02 30.01 C 56.89 29.81 61.21 32.30 65.72 33.74 C 62.14 28.77 55.59 28.98 50.76 26.01 C 58.04 24.73 64.20 29.14 70.31 32.27 C 65.80 27.01 59.03 24.74 52.42 23.54 C 52.64 20.56 52.82 17.58 53.01 14.61 C 50.90 14.54 48.80 14.49 46.69 14.44 M 76.66 37.20 C 77.50 38.82 78.35 40.43 79.21 42.04 C 81.64 41.02 84.06 40.01 86.49 38.98 C 85.63 37.00 84.77 35.03 83.91 33.05 C 81.49 34.44 79.08 35.83 76.66 37.20 M 32.23 35.74 C 30.29 38.21 27.86 40.47 26.81 43.49 C 26.97 47.06 28.36 50.46 28.87 53.99 C 29.39 56.16 29.61 59.16 32.14 59.98 C 35.11 61.44 38.26 59.94 41.12 58.99 C 40.16 62.07 37.97 65.75 40.20 68.79 C 41.81 70.05 43.82 70.60 45.70 71.35 C 48.09 65.15 49.64 58.55 50.22 51.93 C 50.66 49.77 48.65 48.47 47.26 47.22 C 42.21 43.43 38.21 38.19 32.23 35.74 M 59.88 42.85 C 57.36 45.43 54.05 47.21 51.91 50.15 C 51.65 57.16 53.93 64.03 55.91 70.69 C 56.71 70.70 58.32 70.72 59.12 70.73 C 61.27 66.72 61.55 62.16 59.90 57.91 C 61.92 58.95 63.88 60.23 66.14 60.69 C 68.80 60.78 72.14 59.64 72.53 56.60 C 73.32 52.22 74.79 47.93 75.19 43.50 C 74.14 40.47 71.71 38.21 69.78 35.74 C 66.01 37.40 62.76 39.94 59.88 42.85 M 76.06 63.03 C 74.76 66.35 72.12 68.85 69.69 71.36 C 69.19 70.78 68.21 69.62 67.71 69.04 C 69.56 67.07 71.37 65.06 73.02 62.92 C 68.58 65.77 64.68 69.40 61.26 73.41 C 63.10 72.92 64.96 72.52 66.85 72.24 C 64.23 75.55 60.42 78.19 56.08 78.27 C 49.11 78.26 42.17 76.93 35.63 74.53 C 35.77 72.94 36.31 71.30 35.95 69.70 C 34.93 67.30 33.00 65.46 31.28 63.55 C 32.19 65.42 33.19 67.24 34.20 69.06 C 30.52 72.22 27.05 75.61 23.70 79.11 C 25.37 80.49 27.04 81.87 28.72 83.24 C 30.75 80.49 32.77 77.73 34.73 74.94 C 39.22 77.31 44.04 79.29 49.17 79.54 C 55.43 80.15 61.55 78.07 67.01 75.19 C 68.91 77.76 70.87 80.29 72.88 82.78 C 74.27 81.44 75.72 80.15 76.95 78.67 C 75.45 76.02 73.17 73.95 71.14 71.72 C 75.74 66.86 78.43 60.46 78.78 53.78 C 77.77 56.83 77.22 60.02 76.06 63.03 M 47.44 73.51 C 51.11 75.78 55.53 76.18 59.71 75.41 C 55.70 74.32 51.61 73.38 47.44 73.51 Z" />
<path fill="#ffffff" opacity="1.00" d=" M 46.69 14.44 C 48.80 14.49 50.90 14.54 53.01 14.61 C 52.82 17.58 52.64 20.56 52.42 23.54 C 59.03 24.74 65.80 27.01 70.31 32.27 C 64.20 29.14 58.04 24.73 50.76 26.01 C 55.59 28.98 62.14 28.77 65.72 33.74 C 61.21 32.30 56.89 29.81 52.02 30.01 C 46.30 29.77 40.95 31.97 35.49 33.27 C 39.00 29.32 44.58 29.06 48.85 26.33 C 40.52 25.02 33.22 30.06 27.44 35.41 C 25.16 37.76 22.83 40.55 22.69 43.98 C 22.50 47.15 22.25 50.34 22.66 53.50 C 23.69 59.15 26.83 64.08 28.96 69.35 C 22.92 61.82 19.62 51.82 21.70 42.21 C 19.04 41.15 16.41 40.03 13.77 38.92 C 14.72 36.95 15.67 34.99 16.64 33.03 C 19.15 34.56 21.68 36.05 24.19 37.59 C 27.76 33.69 31.50 29.82 36.11 27.16 C 39.53 25.20 43.45 24.43 47.07 22.92 C 47.19 20.09 46.85 17.27 46.69 14.44 Z" />
<path fill="#ffffff" opacity="1.00" d=" M 76.66 37.20 C 79.08 35.83 81.49 34.44 83.91 33.05 C 84.77 35.03 85.63 37.00 86.49 38.98 C 84.06 40.01 81.64 41.02 79.21 42.04 C 78.35 40.43 77.50 38.82 76.66 37.20 Z" />
<path fill="#ffffff" opacity="1.00" d=" M 32.23 35.74 C 38.21 38.19 42.21 43.43 47.26 47.22 C 48.65 48.47 50.66 49.77 50.22 51.93 C 49.64 58.55 48.09 65.15 45.70 71.35 C 43.82 70.60 41.81 70.05 40.20 68.79 C 37.97 65.75 40.16 62.07 41.12 58.99 C 38.26 59.94 35.11 61.44 32.14 59.98 C 29.61 59.16 29.39 56.16 28.87 53.99 C 28.36 50.46 26.97 47.06 26.81 43.49 C 27.86 40.47 30.29 38.21 32.23 35.74 Z" />
<path fill="#ffffff" opacity="1.00" d=" M 59.88 42.85 C 62.76 39.94 66.01 37.40 69.78 35.74 C 71.71 38.21 74.14 40.47 75.19 43.50 C 74.79 47.93 73.32 52.22 72.53 56.60 C 72.14 59.64 68.80 60.78 66.14 60.69 C 63.88 60.23 61.92 58.95 59.90 57.91 C 61.55 62.16 61.27 66.72 59.12 70.73 C 58.32 70.72 56.71 70.70 55.91 70.69 C 53.93 64.03 51.65 57.16 51.91 50.15 C 54.05 47.21 57.36 45.43 59.88 42.85 Z" />
<path fill="#ffffff" opacity="1.00" d=" M 76.06 63.03 C 77.22 60.02 77.77 56.83 78.78 53.78 C 78.43 60.46 75.74 66.86 71.14 71.72 C 73.17 73.95 75.45 76.02 76.95 78.67 C 75.72 80.15 74.27 81.44 72.88 82.78 C 70.87 80.29 68.91 77.76 67.01 75.19 C 61.55 78.07 55.43 80.15 49.17 79.54 C 44.04 79.29 39.22 77.31 34.73 74.94 C 32.77 77.73 30.75 80.49 28.72 83.24 C 27.04 81.87 25.37 80.49 23.70 79.11 C 27.05 75.61 30.52 72.22 34.20 69.06 C 33.19 67.24 32.19 65.42 31.28 63.55 C 33.00 65.46 34.93 67.30 35.95 69.70 C 36.31 71.30 35.77 72.94 35.63 74.53 C 42.17 76.93 49.11 78.26 56.08 78.27 C 60.42 78.19 64.23 75.55 66.85 72.24 C 64.96 72.52 63.10 72.92 61.26 73.41 C 64.68 69.40 68.58 65.77 73.02 62.92 C 71.37 65.06 69.56 67.07 67.71 69.04 C 68.21 69.62 69.19 70.78 69.69 71.36 C 72.12 68.85 74.76 66.35 76.06 63.03 Z" />
<path fill="#ffffff" opacity="1.00" d=" M 47.44 73.51 C 51.61 73.38 55.70 74.32 59.71 75.41 C 55.53 76.18 51.11 75.78 47.44 73.51 Z" />
</svg>
