<?xml version="1.0" encoding="UTF-8" ?>
<!DOCTYPE svg PUBLIC "-//W3C//DTD SVG 1.1//EN" "http://www.w3.org/Graphics/SVG/1.1/DTD/svg11.dtd">
<svg width="100pt" height="100pt" viewBox="0 0 100 100" version="1.1" xmlns="http://www.w3.org/2000/svg">
<path fill="#bbb9bb" opacity="1.00" d=" M 43.41 12.65 C 52.50 11.27 62.11 13.08 69.83 18.16 C 84.02 27.05 91.24 46.23 85.18 62.07 C 80.20 77.58 64.26 88.59 47.98 87.64 C 31.40 87.35 16.26 74.71 12.64 58.59 C 7.01 38.17 22.53 15.44 43.41 12.65 M 42.34 16.30 C 35.99 17.65 30.04 20.84 25.41 25.39 C 13.08 36.86 11.62 57.72 22.16 70.83 C 31.35 83.23 49.32 87.97 63.34 81.37 C 78.90 74.83 87.69 55.90 82.30 39.82 C 77.55 23.28 59.14 12.34 42.34 16.30 Z" />
<path fill="#2c8c19" opacity="1.00" d=" M 42.34 16.30 C 59.14 12.34 77.55 23.28 82.30 39.82 C 87.69 55.90 78.90 74.83 63.34 81.37 C 49.32 87.97 31.35 83.23 22.16 70.83 C 11.62 57.72 13.08 36.86 25.41 25.39 C 30.04 20.84 35.99 17.65 42.34 16.30 M 43.44 21.70 C 37.28 22.65 31.90 26.26 27.43 30.45 C 22.20 35.30 18.28 42.38 19.55 49.71 C 20.88 56.57 23.64 63.38 28.42 68.57 C 38.45 79.63 57.52 80.46 68.53 70.42 C 75.66 64.09 78.52 53.80 77.04 44.53 C 73.91 29.74 58.37 19.18 43.44 21.70 Z" />
<path fill="#ffffff" opacity="1.00" d=" M 43.44 21.70 C 58.37 19.18 73.91 29.74 77.04 44.53 C 78.52 53.80 75.66 64.09 68.53 70.42 C 57.52 80.46 38.45 79.63 28.42 68.57 C 23.64 63.38 20.88 56.57 19.55 49.71 C 18.28 42.38 22.20 35.30 27.43 30.45 C 31.90 26.26 37.28 22.65 43.44 21.70 M 41.33 24.30 C 37.57 24.88 33.92 26.47 31.36 29.36 C 27.15 33.93 21.77 38.42 21.07 45.02 C 19.75 51.98 23.08 58.67 26.38 64.57 C 29.51 70.05 35.11 73.82 41.37 74.65 C 47.53 75.50 54.40 77.78 60.18 74.40 C 64.27 72.27 68.16 69.60 71.18 66.09 C 75.61 61.14 76.50 54.21 77.10 47.86 C 76.80 40.73 71.75 34.91 66.97 30.07 C 60.33 23.42 50.13 22.49 41.33 24.30 Z" />
<path fill="#2c8c19" opacity="1.00" d=" M 41.33 24.30 C 50.13 22.49 60.33 23.42 66.97 30.07 C 71.75 34.91 76.80 40.73 77.10 47.86 C 76.50 54.21 75.61 61.14 71.18 66.09 C 68.16 69.60 64.27 72.27 60.18 74.40 C 54.40 77.78 47.53 75.50 41.37 74.65 C 35.11 73.82 29.51 70.05 26.38 64.57 C 23.08 58.67 19.75 51.98 21.07 45.02 C 21.77 38.42 27.15 33.93 31.36 29.36 C 33.92 26.47 37.57 24.88 41.33 24.30 M 41.36 27.48 C 38.95 27.99 36.77 29.28 35.03 31.02 C 31.01 34.93 26.51 39.17 25.68 45.02 C 24.82 49.98 27.47 54.53 29.03 59.06 C 30.68 63.87 34.27 68.00 39.04 69.90 C 43.51 71.64 48.32 72.38 53.06 72.96 C 57.63 73.67 61.22 70.10 64.42 67.40 C 66.87 64.96 70.36 62.79 70.61 58.98 C 71.24 53.39 73.41 47.42 70.85 42.00 C 68.65 37.54 65.65 33.38 61.84 30.15 C 56.12 25.55 48.13 26.03 41.36 27.48 Z" />
<path fill="#ffffff" opacity="1.00" d=" M 41.36 27.48 C 48.13 26.03 56.12 25.55 61.84 30.15 C 65.65 33.38 68.65 37.54 70.85 42.00 C 73.41 47.42 71.24 53.39 70.61 58.98 C 70.36 62.79 66.87 64.96 64.42 67.40 C 61.22 70.10 57.63 73.67 53.06 72.96 C 48.32 72.38 43.51 71.64 39.04 69.90 C 34.27 68.00 30.68 63.87 29.03 59.06 C 27.47 54.53 24.82 49.98 25.68 45.02 C 26.51 39.17 31.01 34.93 35.03 31.02 C 36.77 29.28 38.95 27.99 41.36 27.48 M 42.33 29.37 C 37.86 30.12 34.85 33.80 31.84 36.84 C 28.31 40.42 25.95 45.60 27.28 50.66 C 28.88 56.15 30.22 62.35 34.89 66.13 C 38.69 69.31 43.81 69.85 48.52 70.61 C 51.92 71.04 55.72 71.92 58.71 69.69 C 62.46 67.19 66.30 64.47 68.99 60.81 C 70.75 55.81 72.07 50.33 71.37 45.02 C 69.56 40.19 66.03 36.15 62.30 32.68 C 56.92 27.79 49.01 27.94 42.33 29.37 Z" />
<path fill="#2c8c19" opacity="1.00" d=" M 42.33 29.37 C 49.01 27.94 56.92 27.79 62.30 32.68 C 66.03 36.15 69.56 40.19 71.37 45.02 C 72.07 50.33 70.75 55.81 68.99 60.81 C 66.30 64.47 62.46 67.19 58.71 69.69 C 55.72 71.92 51.92 71.04 48.52 70.61 C 43.81 69.85 38.69 69.31 34.89 66.13 C 30.22 62.35 28.88 56.15 27.28 50.66 C 25.95 45.60 28.31 40.42 31.84 36.84 C 34.85 33.80 37.86 30.12 42.33 29.37 M 35.22 38.24 C 33.13 40.05 30.57 42.55 31.42 45.59 C 32.04 48.85 32.57 52.17 33.80 55.26 C 35.98 57.67 39.24 56.17 41.83 55.50 C 41.44 58.05 39.50 61.08 41.62 63.36 C 42.80 64.16 44.30 64.65 45.65 63.93 C 47.57 59.10 48.99 53.74 48.60 48.51 C 46.49 46.24 43.96 44.42 41.71 42.28 C 39.79 40.63 37.87 38.58 35.22 38.24 M 53.50 45.45 C 51.95 46.97 49.29 48.38 50.00 50.97 C 50.86 55.58 50.79 60.90 53.99 64.65 C 57.97 63.02 56.86 58.32 56.36 55.02 C 59.07 56.10 62.72 57.92 65.05 55.12 C 66.33 52.08 66.80 48.77 67.44 45.55 C 68.26 42.37 65.53 39.61 63.00 38.15 C 59.22 39.66 56.62 42.98 53.50 45.45 Z" />
<path fill="#ffffff" opacity="1.00" d=" M 35.22 38.24 C 37.87 38.58 39.79 40.63 41.71 42.28 C 43.96 44.42 46.49 46.24 48.60 48.51 C 48.99 53.74 47.57 59.10 45.65 63.93 C 44.30 64.65 42.80 64.16 41.62 63.36 C 39.50 61.08 41.44 58.05 41.83 55.50 C 39.24 56.17 35.98 57.67 33.80 55.26 C 32.57 52.17 32.04 48.85 31.42 45.59 C 30.57 42.55 33.13 40.05 35.22 38.24 Z" />
<path fill="#ffffff" opacity="1.00" d=" M 53.50 45.45 C 56.62 42.98 59.22 39.66 63.00 38.15 C 65.53 39.61 68.26 42.37 67.44 45.55 C 66.80 48.77 66.33 52.08 65.05 55.12 C 62.72 57.92 59.07 56.10 56.36 55.02 C 56.86 58.32 57.97 63.02 53.99 64.65 C 50.79 60.90 50.86 55.58 50.00 50.97 C 49.29 48.38 51.95 46.97 53.50 45.45 Z" />
</svg>
