<?xml version="1.0" encoding="UTF-8" ?>
<!DOCTYPE svg PUBLIC "-//W3C//DTD SVG 1.1//EN" "http://www.w3.org/Graphics/SVG/1.1/DTD/svg11.dtd">
<svg width="100pt" height="100pt" viewBox="0 0 100 100" version="1.1" xmlns="http://www.w3.org/2000/svg">
<path fill="#b8c8c6" opacity="1.00" d=" M 39.75 13.71 C 42.63 9.89 47.39 11.72 51.24 12.54 C 52.35 16.97 53.27 21.57 55.60 25.56 C 60.36 26.61 65.29 25.97 70.12 26.03 C 73.73 35.52 76.66 45.26 80.32 54.73 C 83.53 54.70 86.38 52.79 89.40 51.90 C 87.36 54.84 85.03 57.57 82.63 60.23 C 82.87 61.78 83.14 63.32 83.39 64.87 C 81.83 66.03 80.26 67.18 78.75 68.39 C 84.63 69.67 90.59 70.58 96.48 71.87 C 84.79 75.32 72.89 78.05 61.11 81.20 C 56.23 82.58 52.37 86.03 48.19 88.74 C 43.77 85.74 39.61 81.77 34.11 80.96 C 23.65 79.16 13.12 77.70 2.69 75.68 C 7.82 73.11 13.17 71.03 18.45 68.79 C 16.66 67.40 14.83 66.06 12.99 64.74 C 13.65 62.58 14.32 60.42 14.94 58.24 C 13.38 55.82 11.90 53.33 10.81 50.65 C 12.94 52.95 15.36 55.11 16.76 57.95 C 17.37 59.91 16.88 61.99 16.81 63.99 C 19.28 65.86 21.80 67.67 24.31 69.49 C 19.44 71.12 14.61 72.88 9.76 74.59 C 18.08 76.22 26.56 76.71 34.88 78.24 C 39.91 79.20 43.98 82.47 48.07 85.32 C 53.79 81.02 60.63 78.83 67.61 77.61 C 74.26 76.20 80.86 74.49 87.31 72.30 C 81.86 71.43 76.37 70.79 70.86 70.45 C 76.94 67.42 80.49 61.57 83.69 55.87 C 81.91 56.56 80.13 57.26 78.35 57.96 C 74.93 48.21 71.80 38.36 68.07 28.72 C 63.48 28.59 58.88 28.63 54.29 28.59 C 52.48 23.67 51.35 18.51 49.16 13.74 C 45.72 11.35 40.33 13.15 39.24 17.22 C 39.15 21.17 40.75 24.89 41.83 28.62 C 37.29 28.64 32.76 28.64 28.22 28.81 C 25.31 37.28 22.60 45.83 19.31 54.16 C 16.21 52.32 13.03 50.58 9.62 49.37 L 9.05 49.15 C 8.29 47.80 7.53 46.44 6.79 45.09 C 10.34 47.23 13.95 49.25 17.57 51.27 C 20.44 42.90 23.45 34.58 26.25 26.19 C 30.57 26.09 34.91 26.08 39.22 25.72 C 38.22 21.87 35.65 16.72 39.75 13.71 Z" />
<path fill="#b61c2e" opacity="1.00" d=" M 39.24 17.22 C 40.33 13.15 45.72 11.35 49.16 13.74 C 51.35 18.51 52.48 23.67 54.29 28.59 C 58.88 28.63 63.48 28.59 68.07 28.72 C 71.80 38.36 74.93 48.21 78.35 57.96 C 80.13 57.26 81.91 56.56 83.69 55.87 C 80.49 61.57 76.94 67.42 70.86 70.45 C 76.37 70.79 81.86 71.43 87.31 72.30 C 80.86 74.49 74.26 76.20 67.61 77.61 C 60.63 78.83 53.79 81.02 48.07 85.32 C 43.98 82.47 39.91 79.20 34.88 78.24 C 26.56 76.71 18.08 76.22 9.76 74.59 C 14.61 72.88 19.44 71.12 24.31 69.49 C 21.80 67.67 19.28 65.86 16.81 63.99 C 16.88 61.99 17.37 59.91 16.76 57.95 C 15.36 55.11 12.94 52.95 10.81 50.65 C 10.52 50.33 9.92 49.69 9.62 49.37 C 13.03 50.58 16.21 52.32 19.31 54.16 C 22.60 45.83 25.31 37.28 28.22 28.81 C 32.76 28.64 37.29 28.64 41.83 28.62 C 40.75 24.89 39.15 21.17 39.24 17.22 M 40.87 18.01 C 41.89 22.75 43.95 27.21 45.01 31.95 C 46.93 30.78 48.84 29.61 50.78 28.46 C 48.37 30.70 45.99 33.21 45.81 36.70 C 48.34 35.68 50.93 34.78 53.64 34.35 C 52.85 31.39 52.17 28.41 51.56 25.41 C 50.55 24.98 49.54 24.55 48.53 24.11 C 49.09 22.53 49.69 20.96 50.21 19.37 C 49.44 19.23 47.89 18.95 47.12 18.81 C 45.91 19.87 44.72 20.95 43.50 22.00 C 45.31 19.82 47.28 17.67 48.28 14.96 C 45.45 13.57 41.42 14.55 40.87 18.01 M 46.64 39.09 C 49.31 39.60 52.02 39.35 54.64 38.73 C 53.51 37.87 52.68 36.19 51.10 36.17 C 49.45 36.87 48.07 38.03 46.64 39.09 M 35.83 55.93 C 36.57 56.09 38.05 56.40 38.79 56.55 C 37.68 58.67 35.61 60.82 36.59 63.38 C 37.21 66.64 39.38 69.44 42.90 69.61 C 43.74 66.04 44.33 62.42 44.87 58.80 C 47.04 63.48 44.60 68.22 41.99 72.11 C 44.34 73.21 46.76 75.46 49.53 74.50 C 53.00 73.13 55.57 70.27 58.31 67.86 C 55.81 67.67 51.98 68.09 51.39 64.81 C 51.95 61.58 52.71 58.36 52.59 55.05 C 53.60 57.73 54.72 60.35 56.03 62.90 C 57.14 61.75 58.36 60.69 59.26 59.36 C 59.88 57.36 59.71 55.23 59.98 53.17 C 60.54 54.99 61.60 56.76 61.58 58.71 C 60.71 60.42 59.48 61.90 58.38 63.47 C 59.95 62.70 61.74 62.19 63.02 60.95 C 63.95 59.05 62.91 56.88 62.64 54.92 C 63.77 53.90 64.90 52.89 66.02 51.86 C 64.17 52.24 62.32 52.67 60.48 53.10 C 62.13 51.50 63.81 49.92 65.46 48.32 C 64.06 45.87 61.76 47.08 59.76 47.96 C 59.76 47.18 59.77 45.63 59.77 44.86 C 60.76 44.04 61.75 43.22 62.74 42.40 C 61.74 42.13 60.75 41.84 59.75 41.54 C 60.68 41.18 62.53 40.45 63.46 40.09 C 62.06 39.71 60.69 39.22 59.25 39.01 C 57.88 40.56 56.70 42.26 55.51 43.94 C 54.84 42.51 54.18 41.07 53.51 39.64 C 52.47 40.26 51.39 40.83 50.41 41.53 C 49.73 43.81 49.89 46.22 49.75 48.56 C 47.83 48.33 45.37 48.85 44.11 46.98 C 42.99 44.39 42.93 41.50 42.46 38.76 C 38.82 43.84 36.64 49.75 35.83 55.93 M 17.92 55.77 C 22.21 61.45 27.70 66.07 32.27 71.51 C 27.40 71.95 22.52 72.48 17.72 73.47 C 22.79 74.27 27.92 74.44 33.02 74.95 C 38.83 75.28 43.15 79.60 47.86 82.48 C 50.92 80.19 53.95 77.47 57.85 76.76 C 64.28 75.46 70.85 74.95 77.21 73.31 C 71.65 72.98 66.07 73.23 60.51 73.39 C 65.19 69.31 70.59 66.13 75.19 61.95 C 70.80 63.87 66.48 65.98 62.31 68.33 C 58.28 70.53 56.12 75.14 51.76 76.84 C 48.59 78.23 45.13 77.06 42.06 75.98 C 38.02 74.65 36.47 70.21 33.30 67.71 C 28.29 63.59 23.27 59.44 17.92 55.77 Z" />
<path fill="#ffffff" opacity="1.00" d=" M 40.87 18.01 C 41.42 14.55 45.45 13.57 48.28 14.96 C 47.28 17.67 45.31 19.82 43.50 22.00 C 44.72 20.95 45.91 19.87 47.12 18.81 C 47.89 18.95 49.44 19.23 50.21 19.37 C 49.69 20.96 49.09 22.53 48.53 24.11 C 49.54 24.55 50.55 24.98 51.56 25.41 C 52.17 28.41 52.85 31.39 53.64 34.35 C 50.93 34.78 48.34 35.68 45.81 36.70 C 45.99 33.21 48.37 30.70 50.78 28.46 C 48.84 29.61 46.93 30.78 45.01 31.95 C 43.95 27.21 41.89 22.75 40.87 18.01 M 46.07 24.07 C 44.73 24.75 44.71 25.43 45.99 26.10 C 47.32 25.41 47.35 24.74 46.07 24.07 Z" />
<path fill="#b61c2e" opacity="1.00" d=" M 46.07 24.07 C 47.35 24.74 47.32 25.41 45.99 26.10 C 44.71 25.43 44.73 24.75 46.07 24.07 Z" />
<path fill="#ffffff" opacity="1.00" d=" M 46.64 39.09 C 48.07 38.03 49.45 36.87 51.10 36.17 C 52.68 36.19 53.51 37.87 54.64 38.73 C 52.02 39.35 49.31 39.60 46.64 39.09 Z" />
<path fill="#ffffff" opacity="1.00" d=" M 35.83 55.93 C 36.64 49.75 38.82 43.84 42.46 38.76 C 42.93 41.50 42.99 44.39 44.11 46.98 C 45.37 48.85 47.83 48.33 49.75 48.56 C 49.89 46.22 49.73 43.81 50.41 41.53 C 51.39 40.83 52.47 40.26 53.51 39.64 C 54.18 41.07 54.84 42.51 55.51 43.94 C 56.70 42.26 57.88 40.56 59.25 39.01 C 60.69 39.22 62.06 39.71 63.46 40.09 C 62.53 40.45 60.68 41.18 59.75 41.54 C 60.75 41.84 61.74 42.13 62.74 42.40 C 61.75 43.22 60.76 44.04 59.77 44.86 C 59.77 45.63 59.76 47.18 59.76 47.96 C 61.76 47.08 64.06 45.87 65.46 48.32 C 63.81 49.92 62.13 51.50 60.48 53.10 C 62.32 52.67 64.17 52.24 66.02 51.86 C 64.90 52.89 63.77 53.90 62.64 54.92 C 62.91 56.88 63.95 59.05 63.02 60.95 C 61.74 62.19 59.95 62.70 58.38 63.47 C 59.48 61.90 60.71 60.42 61.58 58.71 C 61.60 56.76 60.54 54.99 59.98 53.17 C 59.71 55.23 59.88 57.36 59.26 59.36 C 58.36 60.69 57.14 61.75 56.03 62.90 C 54.72 60.35 53.60 57.73 52.59 55.05 C 52.71 58.36 51.95 61.58 51.39 64.81 C 51.98 68.09 55.81 67.67 58.31 67.86 C 55.57 70.27 53.00 73.13 49.53 74.50 C 46.76 75.46 44.34 73.21 41.99 72.11 C 44.60 68.22 47.04 63.48 44.87 58.80 C 44.33 62.42 43.74 66.04 42.90 69.61 C 39.38 69.44 37.21 66.64 36.59 63.38 C 35.61 60.82 37.68 58.67 38.79 56.55 C 38.05 56.40 36.57 56.09 35.83 55.93 Z" />
<path fill="#ffffff" opacity="1.00" d=" M 17.92 55.77 C 23.27 59.44 28.29 63.59 33.30 67.71 C 36.47 70.21 38.02 74.65 42.06 75.98 C 45.13 77.06 48.59 78.23 51.76 76.84 C 56.12 75.14 58.28 70.53 62.31 68.33 C 66.48 65.98 70.80 63.87 75.19 61.95 C 70.59 66.13 65.19 69.31 60.51 73.39 C 66.07 73.23 71.65 72.98 77.21 73.31 C 70.85 74.95 64.28 75.46 57.85 76.76 C 53.95 77.47 50.92 80.19 47.86 82.48 C 43.15 79.60 38.83 75.28 33.02 74.95 C 27.92 74.44 22.79 74.27 17.72 73.47 C 22.52 72.48 27.40 71.95 32.27 71.51 C 27.70 66.07 22.21 61.45 17.92 55.77 Z" />
</svg>
