<?xml version="1.0" encoding="UTF-8" ?>
<!DOCTYPE svg PUBLIC "-//W3C//DTD SVG 1.1//EN" "http://www.w3.org/Graphics/SVG/1.1/DTD/svg11.dtd">
<svg width="100pt" height="100pt" viewBox="0 0 100 100" version="1.1" xmlns="http://www.w3.org/2000/svg">
<path fill="#ffffff" opacity="1.00" d=" M 44.43 12.18 C 46.09 8.52 48.10 5.03 50.13 1.56 C 52.09 5.03 54.00 8.53 55.60 12.19 C 64.97 13.83 73.90 18.62 79.79 26.20 C 84.00 31.30 86.39 37.59 87.82 43.98 C 91.88 45.26 95.54 47.44 98.96 49.93 C 95.52 52.39 91.84 54.55 87.82 55.92 C 86.15 64.22 82.29 72.21 75.96 77.95 C 70.36 83.24 63.08 86.44 55.55 87.81 C 54.06 91.35 52.27 94.76 50.34 98.08 C 48.12 94.81 46.37 91.24 44.13 88.00 C 39.69 86.46 34.98 85.55 30.94 83.03 C 20.92 77.44 14.20 67.04 12.18 55.85 C 8.05 54.49 4.24 52.37 0.58 50.05 C 4.19 47.42 8.40 45.77 12.15 43.38 C 13.73 38.98 14.74 34.30 17.34 30.32 C 23.05 20.56 33.36 14.03 44.43 12.18 M 45.46 15.35 C 36.16 17.12 27.25 21.89 21.80 29.81 C 18.43 34.07 17.28 39.45 15.32 44.38 C 11.90 46.87 7.52 47.71 3.93 49.99 C 7.55 51.97 11.40 53.46 15.32 54.71 C 17.00 61.77 19.75 68.82 24.99 74.03 C 30.30 79.86 37.79 82.97 45.34 84.69 C 46.75 87.99 48.37 91.20 50.37 94.18 C 51.88 91.06 53.20 87.86 54.44 84.63 C 61.64 83.16 68.77 80.32 74.02 75.01 C 79.81 69.72 82.87 62.28 84.70 54.82 C 88.58 53.53 92.38 51.97 95.93 49.94 C 92.40 47.89 88.60 46.34 84.71 45.11 C 82.91 38.14 80.22 31.13 75.01 25.97 C 69.65 20.13 62.13 16.90 54.48 15.36 C 53.22 12.09 51.86 8.86 50.28 5.73 C 48.34 8.76 46.80 12.02 45.46 15.35 Z" />
<path fill="#482b46" opacity="1.00" d=" M 45.46 15.35 C 46.80 12.02 48.34 8.76 50.28 5.73 C 51.86 8.86 53.22 12.09 54.48 15.36 C 62.13 16.90 69.65 20.13 75.01 25.97 C 80.22 31.13 82.91 38.14 84.71 45.11 C 88.60 46.34 92.40 47.89 95.93 49.94 C 92.38 51.97 88.58 53.53 84.70 54.82 C 82.87 62.28 79.81 69.72 74.02 75.01 C 68.77 80.32 61.64 83.16 54.44 84.63 C 53.20 87.86 51.88 91.06 50.37 94.18 C 48.37 91.20 46.75 87.99 45.34 84.69 C 37.79 82.97 30.30 79.86 24.99 74.03 C 19.75 68.82 17.00 61.77 15.32 54.71 C 11.40 53.46 7.55 51.97 3.93 49.99 C 7.52 47.71 11.90 46.87 15.32 44.38 C 17.28 39.45 18.43 34.07 21.80 29.81 C 27.25 21.89 36.16 17.12 45.46 15.35 M 44.50 26.50 C 41.45 29.75 36.44 30.18 33.08 33.08 C 30.17 36.39 29.20 40.97 26.21 44.21 C 20.67 46.78 14.48 47.59 8.79 49.82 C 14.50 52.16 20.73 53.02 26.30 55.65 C 30.19 59.17 31.21 65.23 36.09 67.80 C 39.34 70.12 44.30 71.21 45.33 75.61 C 46.73 80.28 47.95 85.03 50.17 89.40 C 52.19 83.91 52.94 77.93 55.74 72.76 C 58.86 69.97 63.15 69.01 66.44 66.45 C 69.58 63.38 70.41 58.63 73.59 55.61 C 79.30 53.21 85.54 52.30 91.24 49.82 C 86.17 48.06 80.92 46.83 75.84 45.08 C 71.83 43.93 70.76 39.39 68.60 36.33 C 66.10 31.23 59.41 31.07 55.96 27.02 C 53.24 21.77 52.11 15.89 50.02 10.39 C 47.90 15.66 46.88 21.34 44.50 26.50 Z" />
<path fill="#ffffff" opacity="1.00" d=" M 44.50 26.50 C 46.88 21.34 47.90 15.66 50.02 10.39 C 52.11 15.89 53.24 21.77 55.96 27.02 C 59.41 31.07 66.10 31.23 68.60 36.33 C 70.76 39.39 71.83 43.93 75.84 45.08 C 80.92 46.83 86.17 48.06 91.24 49.82 C 85.54 52.30 79.30 53.21 73.59 55.61 C 70.41 58.63 69.58 63.38 66.44 66.45 C 63.15 69.01 58.86 69.97 55.74 72.76 C 52.94 77.93 52.19 83.91 50.17 89.40 C 47.95 85.03 46.73 80.28 45.33 75.61 C 44.30 71.21 39.34 70.12 36.09 67.80 C 31.21 65.23 30.19 59.17 26.30 55.65 C 20.73 53.02 14.50 52.16 8.79 49.82 C 14.48 47.59 20.67 46.78 26.21 44.21 C 29.20 40.97 30.17 36.39 33.08 33.08 C 36.44 30.18 41.45 29.75 44.50 26.50 M 47.08 29.14 C 43.71 32.22 38.83 32.63 35.05 35.04 C 32.26 38.51 31.94 43.48 28.78 46.73 C 24.97 48.60 20.57 48.66 16.53 49.80 C 20.37 51.00 24.47 51.32 28.22 52.82 C 31.36 56.03 33.49 60.12 36.85 63.15 C 39.91 66.22 43.97 67.97 47.18 70.83 C 48.46 74.60 48.91 78.60 50.11 82.40 C 51.05 78.26 51.83 74.10 52.61 69.93 C 56.67 68.36 60.94 67.04 64.51 64.49 C 67.51 61.13 69.07 56.79 70.82 52.70 C 75.31 51.78 79.82 50.91 84.28 49.83 C 80.01 48.74 75.46 48.56 71.40 46.75 C 68.29 43.43 66.42 39.09 62.97 36.05 C 60.01 33.19 56.24 31.44 52.97 29.00 C 51.39 25.51 51.12 21.59 50.02 17.93 C 48.92 21.63 48.56 25.56 47.08 29.14 Z" />
<path fill="#482b46" opacity="1.00" d=" M 47.08 29.14 C 48.56 25.56 48.92 21.63 50.02 17.93 C 51.12 21.59 51.39 25.51 52.97 29.00 C 56.24 31.44 60.01 33.19 62.97 36.05 C 66.42 39.09 68.29 43.43 71.40 46.75 C 75.46 48.56 80.01 48.74 84.28 49.83 C 79.82 50.91 75.31 51.78 70.82 52.70 C 69.07 56.79 67.51 61.13 64.51 64.49 C 60.94 67.04 56.67 68.36 52.61 69.93 C 51.83 74.10 51.05 78.26 50.11 82.40 C 48.91 78.60 48.46 74.60 47.18 70.83 C 43.97 67.97 39.91 66.22 36.85 63.15 C 33.49 60.12 31.36 56.03 28.22 52.82 C 24.47 51.32 20.37 51.00 16.53 49.80 C 20.57 48.66 24.97 48.60 28.78 46.73 C 31.94 43.48 32.26 38.51 35.05 35.04 C 38.83 32.63 43.71 32.22 47.08 29.14 M 36.05 49.07 C 40.68 54.92 45.33 60.74 50.10 66.47 C 54.99 60.83 59.62 54.97 64.22 49.09 C 59.57 43.27 54.97 37.39 50.11 31.74 C 45.36 37.47 40.76 43.32 36.05 49.07 Z" />
<path fill="#ffffff" opacity="1.00" d=" M 36.05 49.07 C 40.76 43.32 45.36 37.47 50.11 31.74 C 54.97 37.39 59.57 43.27 64.22 49.09 C 59.62 54.97 54.99 60.83 50.10 66.47 C 45.33 60.74 40.68 54.92 36.05 49.07 M 50.38 36.46 C 50.22 41.65 50.27 46.84 50.32 52.03 C 53.68 50.98 57.04 49.91 60.40 48.83 C 57.28 44.53 54.00 40.34 50.38 36.46 M 41.43 51.38 C 44.17 55.14 47.12 58.73 50.12 62.28 C 53.06 58.89 55.94 55.42 58.50 51.72 C 55.66 52.34 52.90 53.42 49.99 53.56 C 47.04 53.28 44.27 52.15 41.43 51.38 Z" />
<path fill="#482b46" opacity="1.00" d=" M 50.38 36.46 C 54.00 40.34 57.28 44.53 60.40 48.83 C 57.04 49.91 53.68 50.98 50.32 52.03 C 50.27 46.84 50.22 41.65 50.38 36.46 Z" />
<path fill="#482b46" opacity="1.00" d=" M 41.43 51.38 C 44.27 52.15 47.04 53.28 49.99 53.56 C 52.90 53.42 55.66 52.34 58.50 51.72 C 55.94 55.42 53.06 58.89 50.12 62.28 C 47.12 58.73 44.17 55.14 41.43 51.38 Z" />
</svg>
