<?xml version="1.0" encoding="UTF-8" ?>
<!DOCTYPE svg PUBLIC "-//W3C//DTD SVG 1.1//EN" "http://www.w3.org/Graphics/SVG/1.1/DTD/svg11.dtd">
<svg width="100pt" height="100pt" viewBox="0 0 100 100" version="1.1" xmlns="http://www.w3.org/2000/svg">
<path fill="#ffffff" opacity="1.00" d=" M 13.90 5.99 C 18.77 9.91 23.23 14.39 26.29 19.90 C 34.02 14.38 43.52 11.06 53.09 12.00 C 58.25 12.31 63.14 14.10 67.80 16.23 C 70.55 17.82 73.41 15.71 76.10 15.01 C 75.64 16.94 75.17 18.87 74.72 20.80 C 78.43 24.04 81.01 28.28 84.24 31.93 C 87.32 32.84 90.54 33.07 93.68 33.64 C 92.44 34.87 91.19 36.09 89.93 37.30 C 90.62 38.18 91.33 39.05 92.03 39.92 C 90.29 40.97 88.55 42.02 86.85 43.12 C 89.54 45.13 92.45 46.83 95.34 48.55 C 92.96 49.75 90.55 50.86 88.16 52.03 C 87.85 57.56 85.75 62.70 84.14 67.92 C 85.47 71.73 87.30 75.37 88.38 79.28 C 84.55 78.78 80.74 78.10 77.01 77.09 C 74.82 78.92 72.58 80.70 70.27 82.39 C 70.28 85.89 70.34 89.40 70.31 92.91 C 66.91 90.90 63.58 88.79 60.25 86.68 C 59.31 88.58 58.39 90.49 57.45 92.39 C 55.68 90.89 54.32 86.93 51.46 88.27 C 49.40 90.99 47.78 94.03 45.83 96.84 C 44.30 93.75 42.90 90.60 41.69 87.37 C 36.40 85.87 31.35 83.59 26.83 80.45 C 24.88 81.02 22.93 81.61 20.97 82.16 C 21.79 80.68 22.64 79.22 23.49 77.76 C 16.19 70.03 11.54 59.69 11.64 48.97 C 11.93 43.92 13.35 39.00 15.28 34.35 C 17.13 30.36 16.17 25.83 15.49 21.68 C 14.37 16.52 14.20 11.24 13.90 5.99 M 16.19 10.78 C 16.44 18.08 18.35 25.18 19.01 32.43 C 19.03 34.79 17.84 36.93 17.16 39.13 C 14.76 45.59 14.75 52.80 16.57 59.40 C 18.39 66.21 22.85 71.88 27.30 77.17 C 31.94 80.39 37.53 81.81 42.50 84.40 C 44.43 86.72 44.80 90.03 46.12 92.74 C 47.83 90.08 49.27 87.27 50.59 84.40 C 53.21 84.79 55.32 86.36 57.18 88.13 C 57.93 86.53 58.67 84.92 59.42 83.31 C 62.26 85.41 65.16 87.41 68.16 89.26 C 68.19 86.26 67.93 83.24 68.26 80.25 C 69.90 77.74 72.68 76.25 74.94 74.34 C 78.37 75.36 81.84 76.25 85.37 76.87 C 84.28 73.29 82.61 69.93 80.69 66.73 C 82.94 61.87 83.77 56.56 85.28 51.47 C 86.80 50.06 88.73 49.20 90.50 48.15 C 88.38 46.78 85.85 45.86 84.19 43.90 C 85.30 40.79 87.76 38.21 88.59 34.89 C 86.20 34.55 83.77 34.38 81.45 33.67 C 78.52 30.89 76.26 27.49 73.60 24.45 C 71.90 22.90 72.60 20.56 72.67 18.56 C 70.44 19.11 68.05 20.21 65.83 19.05 C 60.51 16.82 54.88 14.91 49.02 15.30 C 40.79 15.32 33.15 19.04 26.76 23.98 C 23.49 19.39 20.73 14.29 16.19 10.78 Z" />
<path fill="#482b46" opacity="1.00" d=" M 16.19 10.78 C 20.73 14.29 23.49 19.39 26.76 23.98 C 33.15 19.04 40.79 15.32 49.02 15.30 C 54.88 14.91 60.51 16.82 65.83 19.05 C 68.05 20.21 70.44 19.11 72.67 18.56 C 72.60 20.56 71.90 22.90 73.60 24.45 C 76.26 27.49 78.52 30.89 81.45 33.67 C 83.77 34.38 86.20 34.55 88.59 34.89 C 87.76 38.21 85.30 40.79 84.19 43.90 C 85.85 45.86 88.38 46.78 90.50 48.15 C 88.73 49.20 86.80 50.06 85.28 51.47 C 83.77 56.56 82.94 61.87 80.69 66.73 C 82.61 69.93 84.28 73.29 85.37 76.87 C 81.84 76.25 78.37 75.36 74.94 74.34 C 72.68 76.25 69.90 77.74 68.26 80.25 C 67.93 83.24 68.19 86.26 68.16 89.26 C 65.16 87.41 62.26 85.41 59.42 83.31 C 58.67 84.92 57.93 86.53 57.18 88.13 C 55.32 86.36 53.21 84.79 50.59 84.40 C 49.27 87.27 47.83 90.08 46.12 92.74 C 44.80 90.03 44.43 86.72 42.50 84.40 C 37.53 81.81 31.94 80.39 27.30 77.17 C 22.85 71.88 18.39 66.21 16.57 59.40 C 14.75 52.80 14.76 45.59 17.16 39.13 C 17.84 36.93 19.03 34.79 19.01 32.43 C 18.35 25.18 16.44 18.08 16.19 10.78 M 18.25 14.93 C 19.64 20.06 20.25 25.36 21.39 30.54 C 23.70 35.89 29.25 38.60 33.69 41.91 C 31.18 42.06 28.66 42.13 26.14 42.16 C 27.13 43.07 28.12 43.97 29.05 44.93 C 35.45 50.68 33.40 61.22 40.43 66.57 C 45.45 69.34 51.29 71.47 57.08 70.23 C 63.77 69.80 67.32 63.22 69.92 57.88 C 73.81 51.19 70.95 42.43 65.54 37.47 C 62.49 34.51 58.19 33.72 54.21 32.76 C 50.63 32.00 47.89 29.44 45.15 27.19 C 45.33 29.26 45.51 31.33 45.70 33.40 C 40.76 32.40 35.60 32.07 30.91 30.14 C 24.61 27.15 21.76 20.49 18.25 14.93 M 60.99 25.39 C 59.05 25.29 57.36 24.22 55.61 23.51 C 54.66 24.18 53.72 24.86 52.78 25.54 C 56.04 26.02 59.41 26.05 62.56 27.08 C 67.05 30.69 71.15 34.81 76.09 37.84 C 75.59 39.06 74.99 40.26 74.75 41.57 C 75.54 43.62 76.99 45.34 77.83 47.36 C 77.59 52.21 75.89 56.86 74.37 61.43 C 73.26 64.20 75.10 66.89 76.08 69.40 C 73.80 69.10 71.45 68.32 69.16 68.90 C 66.58 70.05 64.39 71.88 62.03 73.39 C 62.30 75.26 62.58 77.13 62.85 79.00 C 61.31 77.50 59.79 75.99 58.24 74.50 C 57.26 75.57 56.29 76.64 55.33 77.71 C 51.78 74.99 47.20 76.04 43.20 74.79 C 40.40 73.55 37.82 71.78 34.79 71.10 C 34.52 68.84 33.36 66.91 31.63 65.46 C 31.29 65.94 30.62 66.91 30.28 67.39 C 30.93 67.74 32.24 68.44 32.89 68.79 C 32.03 70.85 31.13 72.90 30.23 74.94 C 32.65 74.15 35.08 73.39 37.54 72.71 C 38.37 74.10 39.20 75.50 40.04 76.90 C 41.66 76.97 43.27 77.05 44.89 77.13 C 45.34 80.84 45.78 84.54 46.36 88.23 C 47.69 84.24 48.69 80.14 50.19 76.20 C 52.76 78.75 54.71 81.81 56.50 84.93 C 57.10 82.87 57.71 80.82 58.33 78.77 C 61.17 81.17 63.87 83.71 66.59 86.24 C 65.69 82.11 64.82 77.97 64.01 73.82 C 65.45 73.79 66.90 73.77 68.34 73.75 C 68.52 72.52 68.71 71.30 68.91 70.08 C 73.73 71.28 78.39 73.02 82.98 74.89 C 80.64 71.24 77.75 67.89 76.00 63.89 C 74.57 61.27 77.97 59.52 78.34 57.09 C 78.43 54.98 78.09 52.88 77.92 50.78 C 80.81 49.76 83.74 48.91 86.66 48.00 C 82.82 46.71 78.92 45.36 75.73 42.76 C 79.02 41.04 82.24 39.13 84.94 36.56 C 80.77 36.15 75.05 37.57 72.54 33.23 C 71.12 30.80 68.42 29.78 66.01 28.63 C 67.08 26.44 68.17 24.25 69.22 22.05 C 66.51 23.25 63.90 24.76 60.99 25.39 Z" />
<path fill="#ffffff" opacity="1.00" d=" M 18.25 14.93 C 21.76 20.49 24.61 27.15 30.91 30.14 C 35.60 32.07 40.76 32.40 45.70 33.40 C 45.51 31.33 45.33 29.26 45.15 27.19 C 47.89 29.44 50.63 32.00 54.21 32.76 C 58.19 33.72 62.49 34.51 65.54 37.47 C 70.95 42.43 73.81 51.19 69.92 57.88 C 67.32 63.22 63.77 69.80 57.08 70.23 C 51.29 71.47 45.45 69.34 40.43 66.57 C 33.40 61.22 35.45 50.68 29.05 44.93 C 28.12 43.97 27.13 43.07 26.14 42.16 C 28.66 42.13 31.18 42.06 33.69 41.91 C 29.25 38.60 23.70 35.89 21.39 30.54 C 20.25 25.36 19.64 20.06 18.25 14.93 M 21.76 24.95 C 21.52 31.29 26.64 35.59 31.62 38.48 C 34.61 40.07 35.97 43.27 37.23 46.21 C 34.81 45.18 32.43 44.03 30.03 42.94 C 31.68 45.60 33.79 48.07 34.67 51.13 C 35.88 55.13 36.65 59.40 39.05 62.91 C 41.33 66.40 45.74 67.34 49.46 68.54 C 54.63 69.47 61.15 69.18 64.38 64.35 C 67.59 59.69 71.33 54.15 69.85 48.21 C 68.84 42.30 64.53 36.83 58.54 35.45 C 54.40 34.51 50.38 33.14 46.63 31.13 C 49.11 33.80 51.69 36.38 54.08 39.13 C 48.23 35.74 41.72 33.87 35.04 32.98 C 29.56 32.45 25.84 28.11 21.76 24.95 Z" />
<path fill="#ffffff" opacity="1.00" d=" M 60.99 25.39 C 63.90 24.76 66.51 23.25 69.22 22.05 C 68.17 24.25 67.08 26.44 66.01 28.63 C 68.42 29.78 71.12 30.80 72.54 33.23 C 75.05 37.57 80.77 36.15 84.94 36.56 C 82.24 39.13 79.02 41.04 75.73 42.76 C 78.92 45.36 82.82 46.71 86.66 48.00 C 83.74 48.91 80.81 49.76 77.92 50.78 C 78.09 52.88 78.43 54.98 78.34 57.09 C 77.97 59.52 74.57 61.27 76.00 63.89 C 77.75 67.89 80.64 71.24 82.98 74.89 C 78.39 73.02 73.73 71.28 68.91 70.08 C 68.71 71.30 68.52 72.52 68.34 73.75 C 66.90 73.77 65.45 73.79 64.01 73.82 C 64.82 77.97 65.69 82.11 66.59 86.24 C 63.87 83.71 61.17 81.17 58.33 78.77 C 57.71 80.82 57.10 82.87 56.50 84.93 C 54.71 81.81 52.76 78.75 50.19 76.20 C 48.69 80.14 47.69 84.24 46.36 88.23 C 45.78 84.54 45.34 80.84 44.89 77.13 C 43.27 77.05 41.66 76.97 40.04 76.90 C 39.20 75.50 38.37 74.10 37.54 72.71 C 35.08 73.39 32.65 74.15 30.23 74.94 C 31.13 72.90 32.03 70.85 32.89 68.79 C 32.24 68.44 30.93 67.74 30.28 67.39 C 30.62 66.91 31.29 65.94 31.63 65.46 C 33.36 66.91 34.52 68.84 34.79 71.10 C 37.82 71.78 40.40 73.55 43.20 74.79 C 47.20 76.04 51.78 74.99 55.33 77.71 C 56.29 76.64 57.26 75.57 58.24 74.50 C 59.79 75.99 61.31 77.50 62.85 79.00 C 62.58 77.13 62.30 75.26 62.03 73.39 C 64.39 71.88 66.58 70.05 69.16 68.90 C 71.45 68.32 73.80 69.10 76.08 69.40 C 75.10 66.89 73.26 64.20 74.37 61.43 C 75.89 56.86 77.59 52.21 77.83 47.36 C 76.99 45.34 75.54 43.62 74.75 41.57 C 74.99 40.26 75.59 39.06 76.09 37.84 C 71.15 34.81 67.05 30.69 62.56 27.08 C 59.41 26.05 56.04 26.02 52.78 25.54 C 53.72 24.86 54.66 24.18 55.61 23.51 C 57.36 24.22 59.05 25.29 60.99 25.39 Z" />
<path fill="#452843" opacity="1.00" d=" M 21.76 24.95 C 25.84 28.11 29.56 32.45 35.04 32.98 C 41.72 33.87 48.23 35.74 54.08 39.13 C 51.69 36.38 49.11 33.80 46.63 31.13 C 50.38 33.14 54.40 34.51 58.54 35.45 C 64.53 36.83 68.84 42.30 69.85 48.21 C 71.33 54.15 67.59 59.69 64.38 64.35 C 61.15 69.18 54.63 69.47 49.46 68.54 C 45.74 67.34 41.33 66.40 39.05 62.91 C 36.65 59.40 35.88 55.13 34.67 51.13 C 33.79 48.07 31.68 45.60 30.03 42.94 C 32.43 44.03 34.81 45.18 37.23 46.21 C 35.97 43.27 34.61 40.07 31.62 38.48 C 26.64 35.59 21.52 31.29 21.76 24.95 M 28.32 33.64 C 31.36 35.91 35.30 37.37 37.18 40.87 C 39.14 44.66 39.66 48.97 40.55 53.08 C 39.27 52.51 37.99 51.93 36.71 51.35 C 37.93 54.95 38.88 58.75 41.08 61.90 C 42.43 63.97 45.03 64.45 47.15 65.38 C 47.11 64.05 47.07 62.72 47.01 61.39 C 49.63 65.26 54.52 66.06 58.86 66.15 C 61.55 65.23 63.04 62.54 64.85 60.51 C 63.15 58.74 61.22 57.13 59.96 54.99 C 58.83 52.49 58.44 49.74 57.83 47.09 C 60.11 50.96 63.30 54.14 67.09 56.56 C 68.52 52.18 68.22 47.27 65.68 43.35 C 63.93 40.12 60.54 38.43 57.36 36.95 C 56.32 39.18 55.30 41.41 54.22 43.62 C 51.12 40.77 47.77 38.16 43.83 36.56 C 48.02 41.65 50.78 47.68 51.81 54.21 C 47.62 49.78 47.88 42.85 43.20 38.79 C 39.34 34.76 33.36 34.97 28.32 33.64 Z" />
<path fill="#ffffff" opacity="1.00" d=" M 28.32 33.64 C 33.36 34.97 39.34 34.76 43.20 38.79 C 47.88 42.85 47.62 49.78 51.81 54.21 C 50.78 47.68 48.02 41.65 43.83 36.56 C 47.77 38.16 51.12 40.77 54.22 43.62 C 55.30 41.41 56.32 39.18 57.36 36.95 C 60.54 38.43 63.93 40.12 65.68 43.35 C 68.22 47.27 68.52 52.18 67.09 56.56 C 63.30 54.14 60.11 50.96 57.83 47.09 C 58.44 49.74 58.83 52.49 59.96 54.99 C 61.22 57.13 63.15 58.74 64.85 60.51 C 63.04 62.54 61.55 65.23 58.86 66.15 C 54.52 66.06 49.63 65.26 47.01 61.39 C 47.07 62.72 47.11 64.05 47.15 65.38 C 45.03 64.45 42.43 63.97 41.08 61.90 C 38.88 58.75 37.93 54.95 36.71 51.35 C 37.99 51.93 39.27 52.51 40.55 53.08 C 39.66 48.97 39.14 44.66 37.18 40.87 C 35.30 37.37 31.36 35.91 28.32 33.64 Z" />
</svg>
