<?xml version="1.0" encoding="UTF-8" ?>
<!DOCTYPE svg PUBLIC "-//W3C//DTD SVG 1.1//EN" "http://www.w3.org/Graphics/SVG/1.1/DTD/svg11.dtd">
<svg width="100pt" height="100pt" viewBox="0 0 100 100" version="1.1" xmlns="http://www.w3.org/2000/svg">
<path fill="#efc644" opacity="1.00" d=" M 47.61 15.23 C 50.65 14.49 53.56 12.67 56.79 13.15 C 62.63 14.11 67.51 17.75 72.92 19.91 C 77.83 21.26 83.02 20.43 88.05 20.66 C 88.14 25.95 87.32 31.37 88.55 36.56 C 90.55 41.50 92.42 46.63 92.46 52.03 C 92.38 57.37 89.48 62.04 88.19 67.08 C 87.56 73.59 88.22 80.15 87.92 86.68 C 66.09 86.58 44.25 86.59 22.41 86.67 C 22.37 84.16 22.32 81.64 22.24 79.13 C 17.01 78.71 11.78 78.20 6.56 77.66 C 12.02 75.58 15.95 70.58 21.89 69.72 C 19.62 73.32 15.78 75.32 11.92 76.79 C 16.38 77.06 20.82 77.55 25.26 78.11 C 25.54 79.78 25.82 81.45 26.11 83.12 C 45.68 83.08 65.25 83.30 84.82 82.99 C 84.74 76.63 83.99 70.06 86.00 63.90 C 87.34 59.71 89.28 55.55 89.14 51.04 C 89.02 46.01 86.72 41.43 85.54 36.62 C 84.50 32.50 84.63 28.22 84.68 24.00 C 80.43 23.84 76.10 23.94 71.99 22.76 C 67.17 21.36 63.18 17.98 58.33 16.68 C 55.26 16.11 52.22 17.26 49.21 17.71 C 44.82 18.61 39.92 18.20 36.19 21.10 C 33.25 23.41 29.53 24.02 25.89 24.18 C 25.28 36.15 25.78 48.14 25.74 60.11 C 25.84 63.26 24.50 66.19 22.65 68.66 C 22.00 52.71 22.65 36.74 22.31 20.78 C 25.09 20.69 27.90 20.87 30.65 20.35 C 33.60 19.11 35.87 16.50 39.06 15.79 C 41.89 15.31 44.79 15.74 47.61 15.23 Z" />
<path fill="#b5bdc6" opacity="1.00" d=" M 49.21 17.71 C 52.22 17.26 55.26 16.11 58.33 16.68 C 63.18 17.98 67.17 21.36 71.99 22.76 C 76.10 23.94 80.43 23.84 84.68 24.00 C 84.63 28.22 84.50 32.50 85.54 36.62 C 86.72 41.43 89.02 46.01 89.14 51.04 C 89.28 55.55 87.34 59.71 86.00 63.90 C 83.99 70.06 84.74 76.63 84.82 82.99 C 65.25 83.30 45.68 83.08 26.11 83.12 C 25.82 81.45 25.54 79.78 25.26 78.11 C 20.82 77.55 16.38 77.06 11.92 76.79 C 15.78 75.32 19.62 73.32 21.89 69.72 C 22.08 69.45 22.46 68.92 22.65 68.66 C 24.50 66.19 25.84 63.26 25.74 60.11 C 25.78 48.14 25.28 36.15 25.89 24.18 C 29.53 24.02 33.25 23.41 36.19 21.10 C 39.92 18.20 44.82 18.61 49.21 17.71 M 51.01 20.82 C 47.28 22.38 43.10 20.87 39.31 22.09 C 38.27 23.50 38.51 25.45 38.16 27.10 C 35.15 27.19 32.15 27.27 29.14 27.34 C 29.03 40.53 29.23 53.72 29.07 66.90 C 27.19 68.63 25.32 70.37 23.46 72.12 C 23.78 72.63 24.11 73.14 24.44 73.65 C 22.20 74.31 19.97 74.98 17.74 75.66 C 21.37 76.00 25.01 76.26 28.65 76.43 C 28.89 77.60 29.14 78.77 29.38 79.94 C 46.89 80.28 64.40 80.15 81.91 80.00 C 81.88 75.98 81.67 71.95 81.90 67.93 C 82.08 62.63 85.95 58.31 86.16 53.01 C 86.55 48.40 84.99 43.97 83.29 39.77 C 81.65 35.88 81.74 31.59 81.78 27.46 C 78.41 27.24 74.97 27.17 71.71 26.20 C 66.63 24.70 62.63 20.86 57.50 19.48 C 55.24 18.74 53.12 20.22 51.01 20.82 Z" />
<path fill="#bc532e" opacity="1.00" d=" M 51.01 20.82 C 53.12 20.22 55.24 18.74 57.50 19.48 C 62.63 20.86 66.63 24.70 71.71 26.20 C 74.97 27.17 78.41 27.24 81.78 27.46 C 81.74 31.59 81.65 35.88 83.29 39.77 C 84.99 43.97 86.55 48.40 86.16 53.01 C 85.95 58.31 82.08 62.63 81.90 67.93 C 81.67 71.95 81.88 75.98 81.91 80.00 C 64.40 80.15 46.89 80.28 29.38 79.94 C 29.14 78.77 28.89 77.60 28.65 76.43 C 25.01 76.26 21.37 76.00 17.74 75.66 C 19.97 74.98 22.20 74.31 24.44 73.65 C 24.11 73.14 23.78 72.63 23.46 72.12 C 25.32 70.37 27.19 68.63 29.07 66.90 C 29.23 53.72 29.03 40.53 29.14 27.34 C 32.15 27.27 35.15 27.19 38.16 27.10 C 38.51 25.45 38.27 23.50 39.31 22.09 C 43.10 20.87 47.28 22.38 51.01 20.82 M 53.70 21.99 C 57.15 30.51 65.12 37.29 65.28 47.01 C 65.50 54.00 59.97 59.34 54.09 62.16 C 57.78 58.29 62.85 54.78 63.39 48.99 C 64.29 41.06 59.52 34.00 54.95 27.99 C 52.06 23.48 46.06 24.95 41.55 24.72 C 48.03 30.44 55.80 35.90 58.28 44.65 C 58.08 45.33 57.69 46.68 57.49 47.36 C 55.10 40.56 50.29 34.70 44.54 30.44 C 41.98 28.11 38.78 30.30 36.09 31.13 C 41.77 37.76 52.16 39.80 55.22 48.76 C 55.11 49.15 54.88 49.93 54.76 50.32 C 51.59 43.42 44.87 39.55 38.56 35.93 C 38.15 37.37 37.32 38.80 37.55 40.34 C 42.03 43.60 48.19 44.78 51.33 49.72 C 53.19 52.21 51.54 55.29 51.14 57.98 C 47.93 59.60 44.28 60.32 41.40 62.59 C 45.67 63.00 49.38 60.59 53.37 59.55 C 50.13 62.05 46.40 63.80 42.80 65.72 C 37.47 66.83 32.29 68.76 27.83 71.92 C 29.23 71.97 30.65 72.17 32.06 71.95 C 43.39 70.36 55.88 68.77 64.62 60.63 C 69.35 56.40 73.03 50.24 72.39 43.70 C 71.67 37.79 68.75 32.39 65.38 27.58 C 62.81 23.72 57.98 22.68 53.70 21.99 M 68.98 28.00 C 71.76 34.62 75.45 41.52 74.19 48.94 C 72.75 56.68 66.10 61.89 59.83 65.87 C 52.04 71.00 42.47 71.41 33.71 73.83 C 42.51 74.60 51.71 73.34 59.31 68.59 C 57.95 71.50 56.43 74.32 54.87 77.12 C 57.95 75.89 60.89 74.26 63.21 71.85 C 68.56 70.14 73.85 67.76 78.32 64.33 C 81.88 61.59 82.66 56.92 83.33 52.77 C 77.67 60.46 70.59 67.12 61.92 71.29 C 61.58 71.13 60.91 70.82 60.58 70.67 C 62.33 69.53 64.10 68.41 65.87 67.31 C 72.16 62.96 78.37 57.92 81.77 50.90 C 83.07 48.37 82.32 45.48 82.06 42.81 C 80.98 48.79 78.88 54.92 73.70 58.59 C 75.81 54.18 79.03 50.07 79.38 45.02 C 79.64 40.71 78.84 36.16 76.51 32.46 C 74.58 30.19 71.57 29.31 68.98 28.00 M 49.07 52.27 C 47.60 53.30 49.33 55.78 50.76 54.62 C 52.23 53.60 50.50 51.13 49.07 52.27 M 64.97 73.89 C 69.05 73.26 73.32 72.31 76.25 69.15 C 72.32 70.31 68.58 71.99 64.97 73.89 Z" />
<path fill="#ffffff" opacity="1.00" d=" M 53.70 21.99 C 57.98 22.68 62.81 23.72 65.38 27.58 C 68.75 32.39 71.67 37.79 72.39 43.70 C 73.03 50.24 69.35 56.40 64.62 60.63 C 55.88 68.77 43.39 70.36 32.06 71.95 C 39.45 69.22 47.16 67.02 53.73 62.52 C 50.11 63.66 46.49 64.84 42.80 65.72 C 46.40 63.80 50.13 62.05 53.37 59.55 C 58.19 56.32 60.14 50.11 58.28 44.65 C 55.80 35.90 48.03 30.44 41.55 24.72 C 46.06 24.95 52.06 23.48 54.95 27.99 C 59.52 34.00 64.29 41.06 63.39 48.99 C 62.85 54.78 57.78 58.29 54.09 62.16 C 59.97 59.34 65.50 54.00 65.28 47.01 C 65.12 37.29 57.15 30.51 53.70 21.99 Z" />
<path fill="#ffffff" opacity="1.00" d=" M 68.98 28.00 C 71.57 29.31 74.58 30.19 76.51 32.46 C 78.84 36.16 79.64 40.71 79.38 45.02 C 79.03 50.07 75.81 54.18 73.70 58.59 C 78.88 54.92 80.98 48.79 82.06 42.81 C 82.32 45.48 83.07 48.37 81.77 50.90 C 78.37 57.92 72.16 62.96 65.87 67.31 C 65.79 66.42 65.71 65.52 65.63 64.63 C 63.54 65.97 61.46 67.33 59.31 68.59 C 51.71 73.34 42.51 74.60 33.71 73.83 C 42.47 71.41 52.04 71.00 59.83 65.87 C 66.10 61.89 72.75 56.68 74.19 48.94 C 75.45 41.52 71.76 34.62 68.98 28.00 M 66.62 64.58 C 69.36 63.18 71.73 61.14 73.44 58.57 C 70.77 60.08 68.47 62.14 66.62 64.58 Z" />
<path fill="#ffffff" opacity="1.00" d=" M 36.09 31.13 C 38.78 30.30 41.98 28.11 44.54 30.44 C 50.29 34.70 55.10 40.56 57.49 47.36 C 57.19 49.44 56.92 51.52 56.61 53.60 C 56.15 51.99 55.72 50.36 55.22 48.76 C 52.16 39.80 41.77 37.76 36.09 31.13 Z" />
<path fill="#ffffff" opacity="1.00" d=" M 38.56 35.93 C 44.87 39.55 51.59 43.42 54.76 50.32 C 53.96 53.04 52.91 55.73 51.14 57.98 C 51.54 55.29 53.19 52.21 51.33 49.72 C 48.19 44.78 42.03 43.60 37.55 40.34 C 37.32 38.80 38.15 37.37 38.56 35.93 Z" />
<path fill="#d1886e" opacity="1.00" d=" M 58.28 44.65 C 60.14 50.11 58.19 56.32 53.37 59.55 C 49.38 60.59 45.67 63.00 41.40 62.59 C 44.28 60.32 47.93 59.60 51.14 57.98 C 52.91 55.73 53.96 53.04 54.76 50.32 C 54.88 49.93 55.11 49.15 55.22 48.76 C 55.72 50.36 56.15 51.99 56.61 53.60 C 56.92 51.52 57.19 49.44 57.49 47.36 C 57.69 46.68 58.08 45.33 58.28 44.65 Z" />
<path fill="#ffffff" opacity="1.00" d=" M 49.07 52.27 C 50.50 51.13 52.23 53.60 50.76 54.62 C 49.33 55.78 47.60 53.30 49.07 52.27 Z" />
<path fill="#ffffff" opacity="1.00" d=" M 61.92 71.29 C 70.59 67.12 77.67 60.46 83.33 52.77 C 82.66 56.92 81.88 61.59 78.32 64.33 C 73.85 67.76 68.56 70.14 63.21 71.85 C 62.89 71.71 62.24 71.43 61.92 71.29 Z" />
<path fill="#bc532e" opacity="1.00" d=" M 66.62 64.58 C 68.47 62.14 70.77 60.08 73.44 58.57 C 71.73 61.14 69.36 63.18 66.62 64.58 Z" />
<path fill="#deab98" opacity="1.00" d=" M 42.80 65.72 C 46.49 64.84 50.11 63.66 53.73 62.52 C 47.16 67.02 39.45 69.22 32.06 71.95 C 30.65 72.17 29.23 71.97 27.83 71.92 C 32.29 68.76 37.47 66.83 42.80 65.72 Z" />
<path fill="#d5927b" opacity="1.00" d=" M 59.31 68.59 C 61.46 67.33 63.54 65.97 65.63 64.63 C 65.71 65.52 65.79 66.42 65.87 67.31 C 64.10 68.41 62.33 69.53 60.58 70.67 C 60.91 70.82 61.58 71.13 61.92 71.29 C 62.24 71.43 62.89 71.71 63.21 71.85 C 60.89 74.26 57.95 75.89 54.87 77.12 C 56.43 74.32 57.95 71.50 59.31 68.59 Z" />
<path fill="#ffffff" opacity="1.00" d=" M 64.97 73.89 C 68.58 71.99 72.32 70.31 76.25 69.15 C 73.32 72.31 69.05 73.26 64.97 73.89 Z" />
</svg>
