<?xml version="1.0" encoding="UTF-8" ?>
<!DOCTYPE svg PUBLIC "-//W3C//DTD SVG 1.1//EN" "http://www.w3.org/Graphics/SVG/1.1/DTD/svg11.dtd">
<svg width="100pt" height="100pt" viewBox="0 0 100 100" version="1.1" xmlns="http://www.w3.org/2000/svg">
<path fill="#b6bbbd" opacity="1.00" d=" M 40.60 11.42 C 43.72 10.65 46.73 9.23 50.00 9.26 C 53.26 9.23 56.28 10.65 59.39 11.42 C 62.41 11.86 65.60 9.88 68.50 11.42 C 74.66 14.23 79.44 19.57 82.50 25.52 C 85.07 30.73 81.86 36.64 84.13 41.90 C 86.05 47.42 88.25 52.85 89.81 58.49 C 76.46 67.30 63.30 76.40 50.00 85.30 C 36.71 76.40 23.56 67.28 10.19 58.49 C 11.83 52.59 14.20 46.93 16.13 41.13 C 18.00 36.06 14.93 30.41 17.51 25.48 C 20.62 19.58 25.34 14.22 31.50 11.42 C 34.40 9.88 37.58 11.85 40.60 11.42 M 46.82 11.74 C 43.97 12.35 41.25 14.42 38.24 13.64 C 35.83 13.21 33.14 12.31 30.96 13.94 C 25.85 17.01 21.44 21.59 19.04 27.09 C 17.40 30.59 18.95 34.30 19.84 37.76 C 20.41 39.78 19.25 41.73 18.63 43.59 C 16.79 47.96 15.29 52.46 14.00 57.02 C 16.60 59.10 19.27 61.10 22.09 62.89 C 31.49 68.93 40.44 75.66 50.01 81.45 C 59.56 75.65 68.52 68.94 77.92 62.90 C 80.79 61.05 83.53 59.01 86.23 56.93 C 85.35 54.90 84.86 52.57 83.31 50.93 C 82.84 49.79 82.43 48.60 81.77 47.55 C 81.47 44.58 80.50 41.74 80.13 38.79 C 80.41 35.18 82.63 31.62 81.20 27.97 C 79.12 22.00 74.35 17.19 69.04 13.93 C 65.57 11.37 61.45 15.07 57.80 13.30 C 54.32 12.04 50.54 10.44 46.82 11.74 Z" />
<path fill="#e85a27" opacity="1.00" d=" M 46.82 11.74 C 50.54 10.44 54.32 12.04 57.80 13.30 C 61.45 15.07 65.57 11.37 69.04 13.93 C 74.35 17.19 79.12 22.00 81.20 27.97 C 82.63 31.62 80.41 35.18 80.13 38.79 C 80.50 41.74 81.47 44.58 81.77 47.55 C 80.33 46.26 78.69 45.18 77.43 43.70 C 76.07 41.34 75.45 38.64 74.46 36.13 C 73.64 39.26 73.43 42.51 73.33 45.74 C 76.66 47.46 80.05 49.08 83.31 50.93 C 84.86 52.57 85.35 54.90 86.23 56.93 C 83.53 59.01 80.79 61.05 77.92 62.90 C 68.52 68.94 59.56 75.65 50.01 81.45 C 40.44 75.66 31.49 68.93 22.09 62.89 C 19.27 61.10 16.60 59.10 14.00 57.02 C 15.29 52.46 16.79 47.96 18.63 43.59 C 19.25 41.73 20.41 39.78 19.84 37.76 C 18.95 34.30 17.40 30.59 19.04 27.09 C 21.44 21.59 25.85 17.01 30.96 13.94 C 33.14 12.31 35.83 13.21 38.24 13.64 C 41.25 14.42 43.97 12.35 46.82 11.74 M 45.41 14.51 C 38.35 16.56 34.17 25.44 38.09 31.91 C 40.87 35.44 43.69 39.15 47.51 41.62 C 50.52 43.73 53.79 41.04 55.89 38.91 C 59.16 35.20 63.83 31.53 63.35 26.01 C 63.48 17.29 53.17 11.45 45.41 14.51 M 22.18 26.16 C 20.90 28.44 20.33 31.20 20.96 33.77 C 21.19 35.48 23.09 35.16 24.32 35.52 C 31.34 36.69 35.54 43.89 42.47 45.05 C 43.02 43.73 43.56 42.41 44.11 41.10 C 37.31 40.73 32.38 35.56 26.46 32.88 C 28.85 30.18 31.52 27.75 34.30 25.46 C 31.11 26.41 27.88 27.24 24.63 27.97 C 24.84 29.45 25.00 30.94 25.13 32.44 C 24.32 30.92 22.82 29.31 23.54 27.46 C 25.47 21.76 31.25 18.94 35.22 14.86 C 29.63 16.82 25.14 21.11 22.18 26.16 M 64.78 14.86 C 68.48 18.61 73.46 21.26 75.94 26.09 C 77.37 28.24 76.21 30.60 74.87 32.42 C 75.00 30.94 75.15 29.46 75.30 27.98 C 72.07 27.23 68.87 26.40 65.70 25.46 C 68.47 27.75 71.13 30.17 73.51 32.86 C 67.62 35.58 62.68 40.72 55.89 41.10 C 56.44 42.41 56.98 43.73 57.53 45.05 C 65.29 43.62 70.05 34.88 78.42 35.01 C 79.99 32.56 79.17 29.31 78.12 26.80 C 75.28 21.42 70.57 16.92 64.78 14.86 M 22.70 43.76 C 20.48 45.96 17.94 47.94 16.71 50.92 C 20.13 49.37 23.41 47.52 26.69 45.70 C 26.53 42.42 26.13 39.15 25.32 35.96 C 24.38 38.53 24.07 41.37 22.70 43.76 M 44.54 47.16 C 45.35 50.32 45.57 53.53 45.33 56.78 C 46.37 59.04 48.41 60.64 50.00 62.50 C 51.59 60.64 53.63 59.04 54.67 56.78 C 54.63 53.99 54.36 51.18 55.23 48.47 C 56.06 46.38 53.88 44.74 52.37 43.71 C 49.37 42.12 45.64 44.15 44.54 47.16 M 20.05 59.87 C 20.80 60.40 21.55 60.94 22.30 61.47 C 26.43 57.14 31.85 54.40 37.45 52.46 C 39.15 51.77 40.95 52.47 42.65 52.77 C 41.67 54.59 40.47 56.40 38.45 57.15 C 34.15 59.10 29.61 63.20 30.63 68.40 C 33.70 65.23 36.09 61.25 40.10 59.15 C 41.30 58.17 43.49 57.86 43.66 56.04 C 44.05 53.67 43.80 50.04 40.76 49.69 C 32.76 49.68 25.15 53.82 20.05 59.87 M 59.24 49.69 C 55.84 50.18 55.71 54.72 56.76 57.20 C 61.97 59.72 65.76 64.02 69.38 68.40 C 69.92 65.66 68.86 63.00 66.99 61.01 C 64.30 57.56 58.92 57.24 57.35 52.76 C 59.06 52.49 60.85 51.76 62.55 52.46 C 68.14 54.40 73.57 57.13 77.70 61.47 C 78.45 60.94 79.20 60.41 79.95 59.87 C 74.85 53.82 67.24 49.68 59.24 49.69 M 44.37 59.36 C 43.81 61.28 43.10 63.21 41.48 64.49 C 39.17 66.37 38.05 69.15 37.08 71.87 C 37.55 72.14 38.48 72.68 38.95 72.95 C 40.85 69.45 42.62 65.15 46.97 64.22 C 46.84 66.64 47.53 70.85 50.66 70.58 C 52.70 69.09 53.11 66.57 53.04 64.22 C 57.38 65.15 59.15 69.45 61.06 72.96 C 61.52 72.68 62.44 72.13 62.91 71.85 C 61.94 69.14 60.82 66.37 58.52 64.49 C 56.89 63.21 56.18 61.28 55.64 59.36 C 53.47 61.04 52.16 64.01 49.99 65.37 C 47.83 63.94 46.52 61.07 44.37 59.36 Z" />
<path fill="#ffffff" opacity="1.00" d=" M 45.41 14.51 C 53.17 11.45 63.48 17.29 63.35 26.01 C 63.83 31.53 59.16 35.20 55.89 38.91 C 53.79 41.04 50.52 43.73 47.51 41.62 C 43.69 39.15 40.87 35.44 38.09 31.91 C 34.17 25.44 38.35 16.56 45.41 14.51 M 42.11 19.96 C 43.55 20.87 45.09 21.68 46.38 22.81 C 48.13 24.36 45.99 26.45 45.57 28.17 C 45.97 28.85 46.37 29.54 46.76 30.23 C 46.50 31.61 46.10 32.98 46.10 34.40 C 47.05 36.51 48.63 38.26 50.00 40.11 C 51.38 38.26 52.95 36.51 53.91 34.39 C 53.90 32.98 53.49 31.60 53.23 30.22 C 53.63 29.54 54.03 28.86 54.43 28.17 C 53.85 26.82 53.23 25.47 52.81 24.05 C 53.77 21.97 56.15 21.20 57.90 19.96 C 55.62 18.65 53.05 18.04 50.42 18.05 C 51.28 18.93 52.17 19.78 53.06 20.64 C 48.92 25.84 54.35 32.77 50.00 37.86 C 45.62 32.77 51.14 25.79 46.89 20.63 C 47.94 19.80 48.91 18.87 49.77 17.84 C 47.07 17.91 44.45 18.63 42.11 19.96 Z" />
<path fill="#ffffff" opacity="1.00" d=" M 22.18 26.16 C 25.14 21.11 29.63 16.82 35.22 14.86 C 31.25 18.94 25.47 21.76 23.54 27.46 C 22.82 29.31 24.32 30.92 25.13 32.44 C 25.00 30.94 24.84 29.45 24.63 27.97 C 27.88 27.24 31.11 26.41 34.30 25.46 C 31.52 27.75 28.85 30.18 26.46 32.88 C 32.38 35.56 37.31 40.73 44.11 41.10 C 43.56 42.41 43.02 43.73 42.47 45.05 C 35.54 43.89 31.34 36.69 24.32 35.52 C 23.09 35.16 21.19 35.48 20.96 33.77 C 20.33 31.20 20.90 28.44 22.18 26.16 Z" />
<path fill="#ffffff" opacity="1.00" d=" M 64.78 14.86 C 70.57 16.92 75.28 21.42 78.12 26.80 C 79.17 29.31 79.99 32.56 78.42 35.01 C 70.05 34.88 65.29 43.62 57.53 45.05 C 56.98 43.73 56.44 42.41 55.89 41.10 C 62.68 40.72 67.62 35.58 73.51 32.86 C 71.13 30.17 68.47 27.75 65.70 25.46 C 68.87 26.40 72.07 27.23 75.30 27.98 C 75.15 29.46 75.00 30.94 74.87 32.42 C 76.21 30.60 77.37 28.24 75.94 26.09 C 73.46 21.26 68.48 18.61 64.78 14.86 Z" />
<path fill="#e85a27" opacity="1.00" d=" M 42.11 19.96 C 44.45 18.63 47.07 17.91 49.77 17.84 C 48.91 18.87 47.94 19.80 46.89 20.63 C 51.14 25.79 45.62 32.77 50.00 37.86 C 54.35 32.77 48.92 25.84 53.06 20.64 C 52.17 19.78 51.28 18.93 50.42 18.05 C 53.05 18.04 55.62 18.65 57.90 19.96 C 56.15 21.20 53.77 21.97 52.81 24.05 C 53.23 25.47 53.85 26.82 54.43 28.17 C 54.03 28.86 53.63 29.54 53.23 30.22 C 53.49 31.60 53.90 32.98 53.91 34.39 C 52.95 36.51 51.38 38.26 50.00 40.11 C 48.63 38.26 47.05 36.51 46.10 34.40 C 46.10 32.98 46.50 31.61 46.76 30.23 C 46.37 29.54 45.97 28.85 45.57 28.17 C 45.99 26.45 48.13 24.36 46.38 22.81 C 45.09 21.68 43.55 20.87 42.11 19.96 Z" />
<path fill="#ffffff" opacity="1.00" d=" M 73.33 45.74 C 73.43 42.51 73.64 39.26 74.46 36.13 C 75.45 38.64 76.07 41.34 77.43 43.70 C 78.69 45.18 80.33 46.26 81.77 47.55 C 82.43 48.60 82.84 49.79 83.31 50.93 C 80.05 49.08 76.66 47.46 73.33 45.74 Z" />
<path fill="#ffffff" opacity="1.00" d=" M 22.70 43.76 C 24.07 41.37 24.38 38.53 25.32 35.96 C 26.13 39.15 26.53 42.42 26.69 45.70 C 23.41 47.52 20.13 49.37 16.71 50.92 C 17.94 47.94 20.48 45.96 22.70 43.76 Z" />
<path fill="#ffffff" opacity="1.00" d=" M 44.54 47.16 C 45.64 44.15 49.37 42.12 52.37 43.71 C 53.88 44.74 56.06 46.38 55.23 48.47 C 54.36 51.18 54.63 53.99 54.67 56.78 C 53.63 59.04 51.59 60.64 50.00 62.50 C 48.41 60.64 46.37 59.04 45.33 56.78 C 45.57 53.53 45.35 50.32 44.54 47.16 M 46.90 48.18 C 47.73 51.04 48.71 53.87 50.00 56.56 C 51.29 53.87 52.27 51.04 53.10 48.18 C 52.06 47.50 51.03 46.82 50.00 46.14 C 48.97 46.82 47.93 47.50 46.90 48.18 Z" />
<path fill="#e85a27" opacity="1.00" d=" M 46.90 48.18 C 47.93 47.50 48.97 46.82 50.00 46.14 C 51.03 46.82 52.06 47.50 53.10 48.18 C 52.27 51.04 51.29 53.87 50.00 56.56 C 48.71 53.87 47.73 51.04 46.90 48.18 M 48.36 47.77 C 48.93 49.57 49.45 51.39 50.00 53.19 C 50.55 51.39 51.07 49.57 51.64 47.77 C 50.82 47.77 49.18 47.77 48.36 47.77 Z" />
<path fill="#ffffff" opacity="1.00" d=" M 48.36 47.77 C 49.18 47.77 50.82 47.77 51.64 47.77 C 51.07 49.57 50.55 51.39 50.00 53.19 C 49.45 51.39 48.93 49.57 48.36 47.77 Z" />
<path fill="#ffffff" opacity="1.00" d=" M 20.05 59.87 C 25.15 53.82 32.76 49.68 40.76 49.69 C 43.80 50.04 44.05 53.67 43.66 56.04 C 43.49 57.86 41.30 58.17 40.10 59.15 C 36.09 61.25 33.70 65.23 30.63 68.40 C 29.61 63.20 34.15 59.10 38.45 57.15 C 40.47 56.40 41.67 54.59 42.65 52.77 C 40.95 52.47 39.15 51.77 37.45 52.46 C 31.85 54.40 26.43 57.14 22.30 61.47 C 21.55 60.94 20.80 60.40 20.05 59.87 Z" />
<path fill="#ffffff" opacity="1.00" d=" M 59.24 49.69 C 67.24 49.68 74.85 53.82 79.95 59.87 C 79.20 60.41 78.45 60.94 77.70 61.47 C 73.57 57.13 68.14 54.40 62.55 52.46 C 60.85 51.76 59.06 52.49 57.35 52.76 C 58.92 57.24 64.30 57.56 66.99 61.01 C 68.86 63.00 69.92 65.66 69.38 68.40 C 65.76 64.02 61.97 59.72 56.76 57.20 C 55.71 54.72 55.84 50.18 59.24 49.69 Z" />
<path fill="#ffffff" opacity="1.00" d=" M 44.37 59.36 C 46.52 61.07 47.83 63.94 49.99 65.37 C 52.16 64.01 53.47 61.04 55.64 59.36 C 56.18 61.28 56.89 63.21 58.52 64.49 C 60.82 66.37 61.94 69.14 62.91 71.85 C 62.44 72.13 61.52 72.68 61.06 72.96 C 59.15 69.45 57.38 65.15 53.04 64.22 C 53.11 66.57 52.70 69.09 50.66 70.58 C 47.53 70.85 46.84 66.64 46.97 64.22 C 42.62 65.15 40.85 69.45 38.95 72.95 C 38.48 72.68 37.55 72.14 37.08 71.87 C 38.05 69.15 39.17 66.37 41.48 64.49 C 43.10 63.21 43.81 61.28 44.37 59.36 Z" />
</svg>
