<?xml version="1.0" encoding="UTF-8" ?>
<!DOCTYPE svg PUBLIC "-//W3C//DTD SVG 1.1//EN" "http://www.w3.org/Graphics/SVG/1.1/DTD/svg11.dtd">
<svg width="100pt" height="100pt" viewBox="0 0 100 100" version="1.1" xmlns="http://www.w3.org/2000/svg">
<path fill="#bfbbbb" opacity="1.00" d=" M 44.01 15.70 C 46.28 15.53 47.94 14.08 49.20 12.30 C 51.20 15.00 54.38 15.99 57.55 16.54 C 71.87 19.62 82.40 33.27 83.28 47.66 C 85.23 48.20 87.18 48.75 89.12 49.35 C 87.03 49.99 84.92 50.60 82.82 51.21 C 82.69 53.98 81.38 57.19 83.34 59.61 C 87.91 66.27 92.86 72.66 97.34 79.38 C 87.89 79.60 78.43 79.49 68.97 79.34 C 62.56 79.07 56.38 81.11 50.28 82.80 C 50.33 82.07 50.37 81.34 50.41 80.62 C 56.11 79.61 61.55 77.62 67.18 76.35 C 75.06 75.11 83.06 76.17 90.99 75.86 C 87.98 71.30 84.42 67.12 81.48 62.51 C 78.69 58.27 81.67 53.29 81.59 48.70 C 81.35 40.10 77.45 31.68 71.17 25.82 C 65.46 20.34 57.63 17.40 49.81 16.83 C 40.12 16.51 31.22 21.94 24.88 28.90 C 20.01 34.04 17.51 41.14 17.36 48.14 C 17.42 52.60 22.26 56.91 19.25 61.21 C 16.11 66.27 12.29 70.87 9.05 75.87 C 17.83 76.27 26.78 74.80 35.44 76.76 C 40.70 78.31 46.54 79.67 50.21 84.10 C 50.09 85.56 49.91 87.02 49.67 88.47 C 48.53 86.42 47.59 84.27 46.70 82.11 C 42.18 81.06 37.77 79.18 33.06 79.25 C 22.91 79.27 12.76 79.34 2.62 79.06 C 7.13 72.16 12.10 65.57 16.73 58.75 C 17.96 57.24 18.20 55.25 17.48 53.46 C 17.00 50.63 13.69 50.34 11.61 49.15 C 13.03 48.67 14.45 48.20 15.87 47.73 C 16.23 41.62 17.47 35.31 21.38 30.41 C 26.98 23.22 34.83 17.20 44.01 15.70 Z" />
<path fill="#277373" opacity="1.00" d=" M 24.88 28.90 C 31.22 21.94 40.12 16.51 49.81 16.83 C 57.63 17.40 65.46 20.34 71.17 25.82 C 77.45 31.68 81.35 40.10 81.59 48.70 C 81.67 53.29 78.69 58.27 81.48 62.51 C 84.42 67.12 87.98 71.30 90.99 75.86 C 83.06 76.17 75.06 75.11 67.18 76.35 C 61.55 77.62 56.11 79.61 50.41 80.62 C 50.37 81.34 50.33 82.07 50.28 82.80 C 50.27 83.12 50.23 83.77 50.21 84.10 C 46.54 79.67 40.70 78.31 35.44 76.76 C 26.78 74.80 17.83 76.27 9.05 75.87 C 12.29 70.87 16.11 66.27 19.25 61.21 C 22.26 56.91 17.42 52.60 17.36 48.14 C 17.51 41.14 20.01 34.04 24.88 28.90 M 26.16 30.17 C 21.79 35.04 18.37 41.83 20.29 48.47 C 21.41 43.86 21.75 38.76 24.98 34.99 C 28.02 31.38 31.06 27.68 34.74 24.71 C 38.75 21.49 44.74 22.88 48.46 19.21 C 39.61 18.40 31.88 24.02 26.16 30.17 M 49.93 18.85 C 50.26 19.34 50.93 20.31 51.27 20.80 C 56.31 21.28 61.51 22.31 65.72 25.30 C 71.03 29.06 74.50 34.68 78.22 39.87 C 74.31 27.85 62.62 19.04 49.93 18.85 M 23.40 47.44 C 26.37 42.83 26.97 36.94 31.00 32.97 C 34.84 27.98 40.90 25.93 46.43 23.47 C 34.60 25.26 24.63 35.51 23.40 47.44 M 50.80 23.28 C 55.52 25.08 60.75 25.95 64.75 29.24 C 70.34 33.38 73.04 40.10 74.37 46.71 C 75.27 47.10 76.17 47.48 77.08 47.86 C 76.29 44.00 75.44 40.06 73.41 36.62 C 68.93 28.61 60.09 23.00 50.80 23.28 M 48.90 23.67 C 47.16 30.67 46.00 37.79 44.62 44.86 C 37.46 46.71 30.10 47.67 22.92 49.43 C 30.08 51.43 37.51 52.21 44.69 54.13 C 46.00 61.21 47.19 68.32 48.90 75.32 C 51.35 68.49 51.75 61.17 53.40 54.15 C 60.54 52.23 67.93 51.44 75.09 49.60 C 67.99 47.43 60.61 46.49 53.41 44.76 C 51.72 37.77 51.36 30.46 48.90 23.67 M 26.77 46.38 C 28.84 45.40 31.06 44.42 32.36 42.42 C 35.96 37.30 39.61 32.19 42.88 26.84 C 34.46 29.81 27.67 37.33 26.77 46.38 M 56.04 26.69 C 59.19 31.87 62.90 36.67 66.36 41.64 C 67.77 43.76 69.87 45.24 72.05 46.49 C 71.51 37.30 64.78 29.30 56.04 26.69 M 20.02 50.60 C 20.61 53.67 21.70 56.62 23.44 59.23 C 26.72 69.33 36.38 77.19 47.00 78.30 C 46.73 77.15 46.46 76.01 46.19 74.86 C 39.94 73.30 33.57 70.65 29.70 65.24 C 26.24 61.31 26.04 55.78 23.31 51.45 C 23.29 52.04 23.27 53.23 23.25 53.82 C 22.26 52.66 21.13 51.63 20.02 50.60 M 74.22 52.24 C 72.64 57.97 70.47 63.85 65.86 67.87 C 62.47 71.35 57.76 72.77 53.36 74.49 C 51.72 75.01 51.46 76.93 50.66 78.22 C 59.91 78.13 68.79 73.65 74.48 66.38 C 73.82 66.49 72.49 66.69 71.83 66.80 C 74.77 62.05 76.66 56.73 77.11 51.15 C 76.15 51.51 75.19 51.87 74.22 52.24 M 77.26 61.05 C 78.39 57.68 79.09 54.17 79.38 50.62 C 78.22 53.99 77.55 57.51 77.26 61.05 Z" />
<path fill="#ffffff" opacity="1.00" d=" M 26.16 30.17 C 31.88 24.02 39.61 18.40 48.46 19.21 C 44.74 22.88 38.75 21.49 34.74 24.71 C 31.06 27.68 28.02 31.38 24.98 34.99 C 21.75 38.76 21.41 43.86 20.29 48.47 C 18.37 41.83 21.79 35.04 26.16 30.17 Z" />
<path fill="#ffffff" opacity="1.00" d=" M 49.93 18.85 C 62.62 19.04 74.31 27.85 78.22 39.87 C 74.50 34.68 71.03 29.06 65.72 25.30 C 61.51 22.31 56.31 21.28 51.27 20.80 C 50.93 20.31 50.26 19.34 49.93 18.85 Z" />
<path fill="#ffffff" opacity="1.00" d=" M 23.40 47.44 C 24.63 35.51 34.60 25.26 46.43 23.47 C 40.90 25.93 34.84 27.98 31.00 32.97 C 26.97 36.94 26.37 42.83 23.40 47.44 Z" />
<path fill="#ffffff" opacity="1.00" d=" M 50.80 23.28 C 60.09 23.00 68.93 28.61 73.41 36.62 C 75.44 40.06 76.29 44.00 77.08 47.86 C 76.17 47.48 75.27 47.10 74.37 46.71 C 73.04 40.10 70.34 33.38 64.75 29.24 C 60.75 25.95 55.52 25.08 50.80 23.28 Z" />
<path fill="#ffffff" opacity="1.00" d=" M 48.90 23.67 C 51.36 30.46 51.72 37.77 53.41 44.76 C 60.61 46.49 67.99 47.43 75.09 49.60 C 67.93 51.44 60.54 52.23 53.40 54.15 C 51.75 61.17 51.35 68.49 48.90 75.32 C 47.19 68.32 46.00 61.21 44.69 54.13 C 37.51 52.21 30.08 51.43 22.92 49.43 C 30.10 47.67 37.46 46.71 44.62 44.86 C 46.00 37.79 47.16 30.67 48.90 23.67 M 46.15 45.10 C 46.02 47.14 47.63 48.66 48.59 50.30 C 48.83 44.07 49.04 37.82 48.73 31.59 C 47.42 35.99 46.37 40.51 46.15 45.10 M 53.54 46.31 C 53.26 47.63 52.97 48.94 52.68 50.26 C 57.93 50.15 63.19 49.98 68.41 49.37 C 63.62 47.67 58.57 46.94 53.54 46.31 M 46.44 56.30 C 46.87 60.36 47.44 64.42 48.48 68.37 C 49.20 64.98 49.40 61.52 49.44 58.07 C 48.69 57.63 47.19 56.75 46.44 56.30 Z" />
<path fill="#b7b8b8" opacity="1.00" d=" M 26.77 46.38 C 27.67 37.33 34.46 29.81 42.88 26.84 C 39.61 32.19 35.96 37.30 32.36 42.42 C 31.06 44.42 28.84 45.40 26.77 46.38 Z" />
<path fill="#b6b7b7" opacity="1.00" d=" M 56.04 26.69 C 64.78 29.30 71.51 37.30 72.05 46.49 C 69.87 45.24 67.77 43.76 66.36 41.64 C 62.90 36.67 59.19 31.87 56.04 26.69 Z" />
<path fill="#176868" opacity="1.00" d=" M 46.15 45.10 C 46.37 40.51 47.42 35.99 48.73 31.59 C 49.04 37.82 48.83 44.07 48.59 50.30 C 47.63 48.66 46.02 47.14 46.15 45.10 Z" />
<path fill="#176868" opacity="1.00" d=" M 53.54 46.31 C 58.57 46.94 63.62 47.67 68.41 49.37 C 63.19 49.98 57.93 50.15 52.68 50.26 C 52.97 48.94 53.26 47.63 53.54 46.31 Z" />
<path fill="#a3c4c4" opacity="1.00" d=" M 20.02 50.60 C 21.13 51.63 22.26 52.66 23.25 53.82 C 23.30 55.62 23.33 57.43 23.44 59.23 C 21.70 56.62 20.61 53.67 20.02 50.60 Z" />
<path fill="#ffffff" opacity="1.00" d=" M 74.22 52.24 C 75.19 51.87 76.15 51.51 77.11 51.15 C 76.66 56.73 74.77 62.05 71.83 66.80 C 72.49 66.69 73.82 66.49 74.48 66.38 C 68.79 73.65 59.91 78.13 50.66 78.22 C 51.46 76.93 51.72 75.01 53.36 74.49 C 57.76 72.77 62.47 71.35 65.86 67.87 C 70.47 63.85 72.64 57.97 74.22 52.24 Z" />
<path fill="#ffffff" opacity="1.00" d=" M 77.26 61.05 C 77.55 57.51 78.22 53.99 79.38 50.62 C 79.09 54.17 78.39 57.68 77.26 61.05 Z" />
<path fill="#ffffff" opacity="1.00" d=" M 23.31 51.45 C 26.04 55.78 26.24 61.31 29.70 65.24 C 33.57 70.65 39.94 73.30 46.19 74.86 C 46.46 76.01 46.73 77.15 47.00 78.30 C 36.38 77.19 26.72 69.33 23.44 59.23 C 23.33 57.43 23.30 55.62 23.25 53.82 C 23.27 53.23 23.29 52.04 23.31 51.45 Z" />
<path fill="#1b6969" opacity="1.00" d=" M 46.44 56.30 C 47.19 56.75 48.69 57.63 49.44 58.07 C 49.40 61.52 49.20 64.98 48.48 68.37 C 47.44 64.42 46.87 60.36 46.44 56.30 Z" />
</svg>
