<?xml version="1.0" encoding="UTF-8" ?>
<!DOCTYPE svg PUBLIC "-//W3C//DTD SVG 1.1//EN" "http://www.w3.org/Graphics/SVG/1.1/DTD/svg11.dtd">
<svg width="100pt" height="100pt" viewBox="0 0 100 100" version="1.1" xmlns="http://www.w3.org/2000/svg">
<path fill="#ffffff" opacity="1.00" d=" M 42.38 12.67 C 59.27 9.11 77.68 18.92 84.08 34.95 C 91.20 51.08 84.94 71.63 69.95 80.94 C 55.86 90.43 35.52 88.49 23.47 76.52 C 11.07 64.97 8.35 44.71 17.28 30.30 C 22.61 21.18 32.02 14.65 42.38 12.67 M 23.33 27.37 C 22.04 29.12 19.76 31.27 21.16 33.59 C 23.67 39.65 26.28 45.67 29.14 51.56 C 30.31 46.64 31.03 41.63 32.36 36.76 C 32.60 46.24 32.35 55.73 32.43 65.21 C 26.39 60.65 21.30 54.97 15.20 50.48 C 15.68 61.51 21.43 72.22 30.79 78.20 C 42.22 85.90 58.30 85.50 69.41 77.39 C 77.97 71.32 83.23 61.24 83.86 50.81 C 77.86 55.14 72.84 60.63 67.06 65.23 C 66.98 55.77 66.66 46.29 67.37 36.85 C 68.24 41.67 69.01 46.51 70.19 51.27 C 73.60 45.05 75.97 38.35 79.01 31.96 C 75.12 25.92 69.69 20.78 63.00 18.01 C 49.60 12.02 32.65 16.04 23.33 27.37 M 19.39 33.17 C 17.08 38.13 14.64 43.65 15.62 49.23 C 18.52 51.13 21.85 52.18 25.07 53.39 C 23.41 46.59 22.21 39.62 19.39 33.17 M 74.20 53.46 C 77.35 52.26 80.61 51.21 83.43 49.33 C 84.28 43.77 81.98 38.32 79.71 33.36 C 77.25 39.87 75.86 46.71 74.20 53.46 Z" />
<path fill="#482b46" opacity="1.00" d=" M 23.33 27.37 C 32.65 16.04 49.60 12.02 63.00 18.01 C 69.69 20.78 75.12 25.92 79.01 31.96 C 75.97 38.35 73.60 45.05 70.19 51.27 C 69.01 46.51 68.24 41.67 67.37 36.85 C 66.66 46.29 66.98 55.77 67.06 65.23 C 72.84 60.63 77.86 55.14 83.86 50.81 C 83.23 61.24 77.97 71.32 69.41 77.39 C 58.30 85.50 42.22 85.90 30.79 78.20 C 21.43 72.22 15.68 61.51 15.20 50.48 C 21.30 54.97 26.39 60.65 32.43 65.21 C 32.35 55.73 32.60 46.24 32.36 36.76 C 31.03 41.63 30.31 46.64 29.14 51.56 C 26.28 45.67 23.67 39.65 21.16 33.59 C 19.76 31.27 22.04 29.12 23.33 27.37 M 45.44 21.69 C 41.24 22.76 37.59 26.15 36.47 30.37 C 35.50 35.18 36.06 40.13 36.01 44.99 C 36.26 52.55 35.37 60.16 36.37 67.68 C 38.00 76.53 49.48 80.39 56.76 75.78 C 60.89 73.45 63.15 68.73 63.02 64.06 C 63.13 54.70 62.99 45.32 63.07 35.95 C 63.20 31.93 62.35 27.58 59.16 24.83 C 55.63 21.26 50.15 20.63 45.44 21.69 Z" />
<path fill="#ffffff" opacity="1.00" d=" M 45.44 21.69 C 50.15 20.63 55.63 21.26 59.16 24.83 C 62.35 27.58 63.20 31.93 63.07 35.95 C 62.99 45.32 63.13 54.70 63.02 64.06 C 63.15 68.73 60.89 73.45 56.76 75.78 C 49.48 80.39 38.00 76.53 36.37 67.68 C 35.37 60.16 36.26 52.55 36.01 44.99 C 36.06 40.13 35.50 35.18 36.47 30.37 C 37.59 26.15 41.24 22.76 45.44 21.69 M 39.47 30.44 C 37.99 36.04 38.85 41.94 38.93 47.66 C 45.98 47.61 53.02 47.61 60.07 47.66 C 60.15 41.94 61.01 36.04 59.53 30.44 C 56.58 21.93 42.41 21.93 39.47 30.44 M 39.52 50.84 C 39.57 56.20 39.01 61.58 39.41 66.94 C 39.51 69.96 41.60 72.30 43.50 74.44 C 43.81 66.59 43.60 58.74 43.63 50.89 C 42.26 50.87 40.89 50.85 39.52 50.84 Z" />
<path fill="#482b46" opacity="1.00" d=" M 39.47 30.44 C 42.41 21.93 56.58 21.93 59.53 30.44 C 61.01 36.04 60.15 41.94 60.07 47.66 C 53.02 47.61 45.98 47.61 38.93 47.66 C 38.85 41.94 37.99 36.04 39.47 30.44 M 51.77 31.10 C 51.55 35.10 53.74 38.79 54.44 42.68 C 55.13 42.72 56.51 42.79 57.20 42.83 C 57.59 37.69 57.73 32.40 55.76 27.53 C 54.00 28.17 51.86 28.86 51.77 31.10 Z" />
<path fill="#ffffff" opacity="1.00" d=" M 51.77 31.10 C 51.86 28.86 54.00 28.17 55.76 27.53 C 57.73 32.40 57.59 37.69 57.20 42.83 C 56.51 42.79 55.13 42.72 54.44 42.68 C 53.74 38.79 51.55 35.10 51.77 31.10 Z" />
<path fill="#482b46" opacity="1.00" d=" M 19.39 33.17 C 22.21 39.62 23.41 46.59 25.07 53.39 C 21.85 52.18 18.52 51.13 15.62 49.23 C 14.64 43.65 17.08 38.13 19.39 33.17 Z" />
<path fill="#482b46" opacity="1.00" d=" M 74.20 53.46 C 75.86 46.71 77.25 39.87 79.71 33.36 C 81.98 38.32 84.28 43.77 83.43 49.33 C 80.61 51.21 77.35 52.26 74.20 53.46 Z" />
<path fill="#30142e" opacity="1.00" d=" M 39.52 50.84 C 40.89 50.85 42.26 50.87 43.63 50.89 C 43.60 58.74 43.81 66.59 43.50 74.44 C 41.60 72.30 39.51 69.96 39.41 66.94 C 39.01 61.58 39.57 56.20 39.52 50.84 Z" />
</svg>
