<?xml version="1.0" encoding="UTF-8" ?>
<!DOCTYPE svg PUBLIC "-//W3C//DTD SVG 1.1//EN" "http://www.w3.org/Graphics/SVG/1.1/DTD/svg11.dtd">
<svg width="100pt" height="100pt" viewBox="0 0 100 100" version="1.1" xmlns="http://www.w3.org/2000/svg">
<path fill="#b7c7c6" opacity="1.00" d=" M 56.51 14.33 C 58.34 10.71 60.72 7.42 63.36 4.35 C 64.96 8.43 65.93 12.72 66.49 17.06 C 69.46 16.55 72.20 15.32 74.75 13.74 C 78.91 11.98 83.57 12.11 87.98 11.47 C 88.72 16.98 90.08 22.43 90.47 27.99 C 87.96 31.55 84.65 34.50 82.30 38.21 C 87.56 38.03 92.92 37.87 97.94 39.71 C 95.22 42.56 92.18 45.08 88.69 46.94 C 89.54 51.02 86.00 53.40 82.95 55.17 C 82.91 64.69 82.93 74.21 82.93 83.73 C 60.31 83.69 37.69 83.69 15.07 83.73 C 15.08 61.33 15.11 38.94 15.05 16.55 C 25.06 16.49 35.07 16.49 45.08 16.57 C 46.75 16.49 48.52 16.68 50.10 16.05 C 51.93 14.42 53.29 12.35 54.83 10.47 C 55.39 11.76 55.94 13.05 56.51 14.33 M 56.43 20.03 C 55.72 18.34 55.02 16.65 54.31 14.96 C 52.84 16.38 51.49 17.97 49.74 19.06 C 47.21 19.65 44.59 19.49 42.01 19.49 C 33.97 19.27 25.92 19.38 17.87 19.31 C 17.63 39.65 17.75 59.99 17.81 80.33 C 38.80 80.45 59.79 80.53 80.78 80.30 C 81.03 71.65 80.09 62.94 81.10 54.35 C 82.86 52.36 85.16 50.96 87.23 49.32 C 85.17 48.68 83.11 48.06 81.03 47.46 C 85.76 45.85 90.45 43.93 94.35 40.73 C 89.61 39.91 84.79 40.17 80.00 40.15 C 81.24 35.10 85.23 31.69 88.03 27.56 C 88.74 22.86 86.87 18.12 86.17 13.48 C 83.40 13.86 80.59 14.07 77.90 14.85 C 74.95 15.74 72.74 18.13 69.81 19.07 C 67.75 19.47 65.64 19.44 63.56 19.53 C 63.70 15.73 63.61 11.92 62.98 8.17 C 59.99 11.64 58.19 15.86 56.43 20.03 Z" />
<path fill="#c40f24" opacity="1.00" d=" M 56.43 20.03 C 58.19 15.86 59.99 11.64 62.98 8.17 C 63.61 11.92 63.70 15.73 63.56 19.53 C 65.64 19.44 67.75 19.47 69.81 19.07 C 72.74 18.13 74.95 15.74 77.90 14.85 C 80.59 14.07 83.40 13.86 86.17 13.48 C 86.87 18.12 88.74 22.86 88.03 27.56 C 85.23 31.69 81.24 35.10 80.00 40.15 C 84.79 40.17 89.61 39.91 94.35 40.73 C 90.45 43.93 85.76 45.85 81.03 47.46 C 83.11 48.06 85.17 48.68 87.23 49.32 C 85.16 50.96 82.86 52.36 81.10 54.35 C 80.09 62.94 81.03 71.65 80.78 80.30 C 59.79 80.53 38.80 80.45 17.81 80.33 C 17.75 59.99 17.63 39.65 17.87 19.31 C 25.92 19.38 33.97 19.27 42.01 19.49 C 44.59 19.49 47.21 19.65 49.74 19.06 C 51.49 17.97 52.84 16.38 54.31 14.96 C 55.02 16.65 55.72 18.34 56.43 20.03 M 51.20 41.71 C 51.47 34.07 53.19 26.57 53.63 18.93 C 50.04 32.17 47.40 45.65 44.16 58.98 C 57.15 56.14 70.20 53.54 83.09 50.26 C 75.24 50.62 67.55 52.45 59.70 52.88 C 69.65 48.16 80.53 45.91 90.67 41.67 C 84.23 42.26 77.85 43.37 71.41 43.98 C 73.57 41.21 75.86 38.53 77.95 35.70 C 67.00 42.66 56.87 50.85 45.73 57.51 C 52.54 46.48 60.75 36.40 67.89 25.59 C 64.95 27.68 62.18 29.99 59.37 32.23 C 60.19 25.76 61.32 19.32 61.80 12.80 C 57.77 22.25 55.71 32.46 51.20 41.71 M 76.86 17.89 C 74.58 19.62 73.08 22.14 71.36 24.39 C 64.64 33.81 57.38 42.84 50.89 52.42 C 62.78 44.17 74.21 35.26 85.90 26.73 C 85.33 23.20 84.74 19.68 84.16 16.15 C 81.71 16.66 79.17 16.89 76.86 17.89 M 35.20 27.21 C 28.26 32.10 23.73 40.44 24.02 49.00 C 23.91 56.54 27.69 63.77 33.53 68.44 C 42.35 76.16 56.40 76.69 65.91 69.91 C 71.45 66.32 74.70 60.25 76.35 54.01 C 73.37 54.82 69.88 55.20 67.98 57.96 C 64.67 62.23 60.30 66.02 54.80 66.93 C 43.59 69.72 32.31 57.51 35.51 46.54 C 36.67 41.30 41.23 38.05 45.58 35.49 C 48.46 34.09 48.42 30.50 49.29 27.84 C 45.03 28.95 40.94 30.57 36.73 31.84 C 40.51 28.77 45.01 26.79 49.71 25.62 C 49.83 24.77 50.06 23.08 50.18 22.24 C 44.92 22.82 39.51 23.96 35.20 27.21 Z" />
<path fill="#ffffff" opacity="1.00" d=" M 51.20 41.71 C 55.71 32.46 57.77 22.25 61.80 12.80 C 61.32 19.32 60.19 25.76 59.37 32.23 C 62.18 29.99 64.95 27.68 67.89 25.59 C 60.75 36.40 52.54 46.48 45.73 57.51 C 56.87 50.85 67.00 42.66 77.95 35.70 C 75.86 38.53 73.57 41.21 71.41 43.98 C 77.85 43.37 84.23 42.26 90.67 41.67 C 80.53 45.91 69.65 48.16 59.70 52.88 C 67.55 52.45 75.24 50.62 83.09 50.26 C 70.20 53.54 57.15 56.14 44.16 58.98 C 47.40 45.65 50.04 32.17 53.63 18.93 C 53.19 26.57 51.47 34.07 51.20 41.71 Z" />
<path fill="#ffffff" opacity="1.00" d=" M 76.86 17.89 C 79.17 16.89 81.71 16.66 84.16 16.15 C 84.74 19.68 85.33 23.20 85.90 26.73 C 74.21 35.26 62.78 44.17 50.89 52.42 C 57.38 42.84 64.64 33.81 71.36 24.39 C 73.08 22.14 74.58 19.62 76.86 17.89 Z" />
<path fill="#ffffff" opacity="1.00" d=" M 35.20 27.21 C 39.51 23.96 44.92 22.82 50.18 22.24 C 50.06 23.08 49.83 24.77 49.71 25.62 C 45.01 26.79 40.51 28.77 36.73 31.84 C 40.94 30.57 45.03 28.95 49.29 27.84 C 48.42 30.50 48.46 34.09 45.58 35.49 C 41.23 38.05 36.67 41.30 35.51 46.54 C 32.31 57.51 43.59 69.72 54.80 66.93 C 60.30 66.02 64.67 62.23 67.98 57.96 C 69.88 55.20 73.37 54.82 76.35 54.01 C 74.70 60.25 71.45 66.32 65.91 69.91 C 56.40 76.69 42.35 76.16 33.53 68.44 C 27.69 63.77 23.91 56.54 24.02 49.00 C 23.73 40.44 28.26 32.10 35.20 27.21 Z" />
</svg>
