<?xml version="1.0" encoding="UTF-8" ?>
<!DOCTYPE svg PUBLIC "-//W3C//DTD SVG 1.1//EN" "http://www.w3.org/Graphics/SVG/1.1/DTD/svg11.dtd">
<svg width="100pt" height="100pt" viewBox="0 0 100 100" version="1.1" xmlns="http://www.w3.org/2000/svg">
<path fill="#bab9b9" opacity="1.00" d=" M 55.20 25.06 C 57.17 23.08 59.23 21.18 61.37 19.38 C 62.95 22.72 63.74 26.33 63.71 30.02 C 65.84 28.04 67.85 25.88 70.33 24.33 C 74.03 24.19 77.56 25.86 81.11 26.73 C 81.96 30.17 82.84 33.60 83.82 37.00 C 82.02 39.20 80.20 41.40 78.37 43.57 C 81.80 44.25 85.15 45.25 88.37 46.60 C 84.62 50.64 81.88 55.54 77.64 59.12 C 82.75 66.34 87.94 73.50 93.03 80.73 C 65.04 80.66 37.06 80.67 9.08 80.37 C 13.87 73.13 19.04 66.14 23.97 59.00 C 26.01 56.48 25.63 53.13 26.05 50.12 C 26.66 43.56 30.37 37.49 35.55 33.52 C 38.30 31.38 41.68 30.32 44.64 28.55 C 46.93 26.76 48.34 24.14 50.05 21.86 C 51.74 22.97 53.45 24.05 55.20 25.06 M 55.61 30.18 C 54.06 29.24 52.50 28.32 50.94 27.40 C 47.31 29.82 43.27 31.50 39.41 33.48 C 33.02 36.88 28.39 43.67 28.06 50.96 C 27.65 54.62 28.18 58.71 25.82 61.84 C 22.18 67.09 18.24 72.14 14.93 77.62 C 39.00 77.63 63.06 77.65 87.13 77.61 C 82.95 70.97 77.95 64.91 73.65 58.35 C 75.65 57.18 77.65 56.02 79.64 54.85 C 79.00 54.04 78.36 53.24 77.73 52.43 C 80.44 50.85 83.07 49.12 85.52 47.13 C 81.57 46.44 77.55 46.26 73.55 46.28 C 76.09 43.17 79.09 40.32 80.89 36.68 C 81.46 34.00 80.57 31.09 79.17 28.78 C 76.52 27.00 72.46 25.37 69.59 27.56 C 66.74 29.55 64.22 31.96 61.55 34.17 C 61.53 30.23 61.45 26.27 60.82 22.37 C 58.70 24.70 57.02 27.38 55.61 30.18 Z" />
<path fill="#217a7a" opacity="1.00" d=" M 55.61 30.18 C 57.02 27.38 58.70 24.70 60.82 22.37 C 61.45 26.27 61.53 30.23 61.55 34.17 C 64.22 31.96 66.74 29.55 69.59 27.56 C 72.46 25.37 76.52 27.00 79.17 28.78 C 80.57 31.09 81.46 34.00 80.89 36.68 C 79.09 40.32 76.09 43.17 73.55 46.28 C 77.55 46.26 81.57 46.44 85.52 47.13 C 83.07 49.12 80.44 50.85 77.73 52.43 C 78.36 53.24 79.00 54.04 79.64 54.85 C 77.65 56.02 75.65 57.18 73.65 58.35 C 77.95 64.91 82.95 70.97 87.13 77.61 C 63.06 77.65 39.00 77.63 14.93 77.62 C 18.24 72.14 22.18 67.09 25.82 61.84 C 28.18 58.71 27.65 54.62 28.06 50.96 C 28.39 43.67 33.02 36.88 39.41 33.48 C 43.27 31.50 47.31 29.82 50.94 27.40 C 52.50 28.32 54.06 29.24 55.61 30.18 M 51.61 47.77 C 51.96 42.08 52.99 36.47 53.48 30.79 C 50.40 40.84 48.54 51.20 46.10 61.41 C 56.46 59.29 66.86 57.24 77.05 54.38 C 71.09 54.99 65.18 56.10 59.19 56.43 C 66.24 52.90 74.12 51.53 81.27 48.22 C 76.69 48.45 72.15 49.13 67.60 49.72 C 69.08 47.70 70.59 45.70 72.01 43.63 C 63.68 48.85 56.10 55.20 47.56 60.08 C 52.45 51.58 58.92 44.13 64.14 35.85 C 62.11 37.23 60.11 38.67 58.10 40.10 C 58.73 35.35 59.48 30.61 59.78 25.82 C 56.60 32.96 55.04 40.72 51.61 47.77 M 71.51 29.32 C 69.03 31.63 67.26 34.57 65.25 37.27 C 60.80 43.57 55.91 49.57 51.65 56.01 C 60.97 49.55 70.01 42.68 79.11 35.91 C 78.50 34.19 77.97 32.43 77.10 30.82 C 75.69 29.41 73.42 29.00 71.51 29.32 M 30.22 53.02 C 29.65 64.52 40.69 74.54 51.99 73.75 C 61.26 73.73 69.57 66.60 71.28 57.53 C 67.86 58.21 64.97 60.13 62.77 62.80 C 58.86 67.38 51.83 69.56 46.32 66.63 C 41.08 63.77 37.40 57.36 39.37 51.39 C 40.36 47.40 44.09 45.27 47.10 42.94 C 49.06 41.64 49.45 39.17 50.29 37.15 C 47.09 37.95 43.92 38.91 40.71 39.68 C 44.40 37.53 48.51 35.97 51.62 32.95 C 40.45 32.00 30.11 41.90 30.22 53.02 Z" />
<path fill="#ffffff" opacity="1.00" d=" M 51.61 47.77 C 55.04 40.72 56.60 32.96 59.78 25.82 C 59.48 30.61 58.73 35.35 58.10 40.10 C 60.11 38.67 62.11 37.23 64.14 35.85 C 58.92 44.13 52.45 51.58 47.56 60.08 C 56.10 55.20 63.68 48.85 72.01 43.63 C 70.59 45.70 69.08 47.70 67.60 49.72 C 72.15 49.13 76.69 48.45 81.27 48.22 C 74.12 51.53 66.24 52.90 59.19 56.43 C 65.18 56.10 71.09 54.99 77.05 54.38 C 66.86 57.24 56.46 59.29 46.10 61.41 C 48.54 51.20 50.40 40.84 53.48 30.79 C 52.99 36.47 51.96 42.08 51.61 47.77 Z" />
<path fill="#ffffff" opacity="1.00" d=" M 71.51 29.32 C 73.42 29.00 75.69 29.41 77.10 30.82 C 77.97 32.43 78.50 34.19 79.11 35.91 C 70.01 42.68 60.97 49.55 51.65 56.01 C 55.91 49.57 60.80 43.57 65.25 37.27 C 67.26 34.57 69.03 31.63 71.51 29.32 Z" />
<path fill="#ffffff" opacity="1.00" d=" M 30.22 53.02 C 30.11 41.90 40.45 32.00 51.62 32.95 C 48.51 35.97 44.40 37.53 40.71 39.68 C 43.92 38.91 47.09 37.95 50.29 37.15 C 49.45 39.17 49.06 41.64 47.10 42.94 C 44.09 45.27 40.36 47.40 39.37 51.39 C 37.40 57.36 41.08 63.77 46.32 66.63 C 51.83 69.56 58.86 67.38 62.77 62.80 C 64.97 60.13 67.86 58.21 71.28 57.53 C 69.57 66.60 61.26 73.73 51.99 73.75 C 40.69 74.54 29.65 64.52 30.22 53.02 Z" />
</svg>
