<?xml version="1.0" encoding="UTF-8" ?>
<!DOCTYPE svg PUBLIC "-//W3C//DTD SVG 1.1//EN" "http://www.w3.org/Graphics/SVG/1.1/DTD/svg11.dtd">
<svg width="100pt" height="100pt" viewBox="0 0 100 100" version="1.1" xmlns="http://www.w3.org/2000/svg">
<path fill="#b6cfcc" opacity="1.00" d=" M 43.58 18.55 C 45.07 13.92 47.30 9.60 49.95 5.54 C 52.56 9.62 54.78 13.94 56.31 18.56 C 62.35 18.33 68.43 18.92 74.45 18.29 C 77.42 16.43 79.34 13.31 82.23 11.34 C 84.27 10.00 86.54 9.07 88.73 8.01 C 89.54 15.22 87.44 22.28 85.05 29.00 C 83.95 31.96 83.93 35.15 83.69 38.26 C 87.46 38.37 91.24 38.48 95.02 38.59 C 91.81 42.84 87.85 46.43 84.25 50.31 C 83.44 61.98 84.13 73.75 83.94 85.46 C 63.96 85.51 43.98 85.46 24.00 85.47 C 20.81 85.09 18.73 87.81 16.46 89.53 C 13.68 92.05 9.84 92.66 6.36 93.69 C 7.31 90.07 8.12 86.33 10.12 83.11 C 11.98 79.66 14.67 76.60 15.81 72.81 C 16.47 67.22 15.97 61.56 16.14 55.94 C 15.93 53.46 16.73 50.31 14.44 48.56 C 11.24 45.63 8.34 42.40 5.75 38.91 C 9.20 38.66 12.65 38.43 16.11 38.22 C 16.09 31.66 16.12 25.10 16.06 18.54 C 25.24 18.52 34.41 18.50 43.58 18.55 M 44.78 21.31 C 36.13 21.34 27.47 21.38 18.82 21.29 C 18.71 27.62 18.68 33.96 18.84 40.29 C 15.71 40.31 12.58 40.44 9.46 40.59 C 12.18 43.90 15.35 46.79 18.72 49.42 C 18.69 55.64 18.85 61.86 18.84 68.08 C 19.17 75.31 13.13 80.35 10.44 86.55 C 9.98 87.93 8.54 89.76 10.09 90.95 C 16.13 89.36 19.13 81.69 25.91 82.32 C 44.54 82.50 63.17 82.54 81.80 82.35 C 81.73 71.30 81.73 60.26 81.78 49.21 C 85.13 46.64 88.23 43.78 91.01 40.60 C 87.85 40.42 84.69 40.38 81.53 40.41 C 80.95 30.03 87.13 20.92 87.24 10.60 C 84.21 12.35 81.39 14.44 79.01 17.01 C 77.04 18.88 75.10 21.46 72.08 21.32 C 66.43 21.61 60.78 21.28 55.13 21.30 C 53.74 17.11 52.10 12.99 49.95 9.12 C 47.76 12.98 46.14 17.11 44.78 21.31 Z" />
<path fill="#c40f24" opacity="1.00" d=" M 44.78 21.31 C 46.14 17.11 47.76 12.98 49.95 9.12 C 52.10 12.99 53.74 17.11 55.13 21.30 C 60.78 21.28 66.43 21.61 72.08 21.32 C 75.10 21.46 77.04 18.88 79.01 17.01 C 81.39 14.44 84.21 12.35 87.24 10.60 C 87.13 20.92 80.95 30.03 81.53 40.41 C 84.69 40.38 87.85 40.42 91.01 40.60 C 88.23 43.78 85.13 46.64 81.78 49.21 C 81.73 60.26 81.73 71.30 81.80 82.35 C 63.17 82.54 44.54 82.50 25.91 82.32 C 19.13 81.69 16.13 89.36 10.09 90.95 C 8.54 89.76 9.98 87.93 10.44 86.55 C 13.13 80.35 19.17 75.31 18.84 68.08 C 18.85 61.86 18.69 55.64 18.72 49.42 C 15.35 46.79 12.18 43.90 9.46 40.59 C 12.58 40.44 15.71 40.31 18.84 40.29 C 18.68 33.96 18.71 27.62 18.82 21.29 C 27.47 21.38 36.13 21.34 44.78 21.31 M 70.93 28.98 C 68.00 32.05 64.17 33.99 60.54 36.07 C 61.16 38.22 61.79 40.37 62.41 42.52 C 65.24 41.94 68.42 41.75 70.63 39.65 C 75.18 35.53 79.78 31.21 82.47 25.60 C 79.71 27.81 77.19 30.31 74.40 32.49 C 78.27 26.39 82.90 20.68 85.18 13.71 C 80.07 18.45 75.77 23.98 70.93 28.98 M 42.36 37.45 C 42.11 38.92 40.94 40.71 42.16 42.03 C 44.64 45.27 47.65 48.07 49.88 51.51 C 52.33 47.72 56.00 44.87 58.29 40.99 C 56.13 31.94 52.73 23.18 49.94 14.29 C 47.27 21.96 44.91 29.74 42.36 37.45 M 14.82 42.92 C 19.87 47.00 25.13 50.81 30.24 54.80 C 32.13 56.07 34.06 58.07 36.55 57.47 C 40.26 56.94 43.92 56.09 47.65 55.71 C 45.70 52.74 44.08 49.57 42.57 46.35 C 33.33 45.16 24.11 43.78 14.82 42.92 M 57.58 46.42 C 56.17 49.56 54.64 52.65 52.90 55.63 C 57.17 56.08 61.33 57.52 65.64 57.53 C 72.70 53.41 78.87 47.86 85.37 42.92 C 76.08 43.81 66.83 45.13 57.58 46.42 M 24.25 69.25 C 20.05 75.50 15.50 81.53 11.76 88.07 C 17.06 83.62 21.71 78.46 26.92 73.90 C 30.41 70.87 34.76 69.17 38.84 67.12 C 38.13 65.95 37.40 64.79 36.68 63.63 C 38.24 62.68 39.80 61.74 41.36 60.81 C 37.80 61.48 34.12 61.62 30.69 60.27 C 28.07 62.88 24.81 65.34 24.25 69.25 M 41.14 64.91 C 44.12 69.52 46.97 74.21 49.96 78.81 C 52.89 74.21 55.75 69.55 58.65 64.92 C 55.72 63.26 52.80 61.58 49.97 59.77 C 47.08 61.57 44.12 63.26 41.14 64.91 M 24.86 79.35 C 28.95 76.60 33.12 73.72 35.95 69.58 C 31.17 71.40 27.59 75.15 24.86 79.35 Z" />
<path fill="#ffffff" opacity="1.00" d=" M 70.93 28.98 C 75.77 23.98 80.07 18.45 85.18 13.71 C 82.90 20.68 78.27 26.39 74.40 32.49 C 77.19 30.31 79.71 27.81 82.47 25.60 C 79.78 31.21 75.18 35.53 70.63 39.65 C 68.42 41.75 65.24 41.94 62.41 42.52 C 61.79 40.37 61.16 38.22 60.54 36.07 C 64.17 33.99 68.00 32.05 70.93 28.98 Z" />
<path fill="#ffffff" opacity="1.00" d=" M 42.36 37.45 C 44.91 29.74 47.27 21.96 49.94 14.29 C 52.73 23.18 56.13 31.94 58.29 40.99 C 56.00 44.87 52.33 47.72 49.88 51.51 C 47.65 48.07 44.64 45.27 42.16 42.03 C 40.94 40.71 42.11 38.92 42.36 37.45 Z" />
<path fill="#ffffff" opacity="1.00" d=" M 14.82 42.92 C 24.11 43.78 33.33 45.16 42.57 46.35 C 44.08 49.57 45.70 52.74 47.65 55.71 C 43.92 56.09 40.26 56.94 36.55 57.47 C 34.06 58.07 32.13 56.07 30.24 54.80 C 25.13 50.81 19.87 47.00 14.82 42.92 Z" />
<path fill="#ffffff" opacity="1.00" d=" M 57.58 46.42 C 66.83 45.13 76.08 43.81 85.37 42.92 C 78.87 47.86 72.70 53.41 65.64 57.53 C 61.33 57.52 57.17 56.08 52.90 55.63 C 54.64 52.65 56.17 49.56 57.58 46.42 Z" />
<path fill="#ffffff" opacity="1.00" d=" M 24.25 69.25 C 24.81 65.34 28.07 62.88 30.69 60.27 C 34.12 61.62 37.80 61.48 41.36 60.81 C 39.80 61.74 38.24 62.68 36.68 63.63 C 37.40 64.79 38.13 65.95 38.84 67.12 C 34.76 69.17 30.41 70.87 26.92 73.90 C 21.71 78.46 17.06 83.62 11.76 88.07 C 15.50 81.53 20.05 75.50 24.25 69.25 Z" />
<path fill="#ffffff" opacity="1.00" d=" M 41.14 64.91 C 44.12 63.26 47.08 61.57 49.97 59.77 C 52.80 61.58 55.72 63.26 58.65 64.92 C 55.75 69.55 52.89 74.21 49.96 78.81 C 46.97 74.21 44.12 69.52 41.14 64.91 Z" />
<path fill="#ffffff" opacity="1.00" d=" M 24.86 79.35 C 27.59 75.15 31.17 71.40 35.95 69.58 C 33.12 73.72 28.95 76.60 24.86 79.35 Z" />
</svg>
