<?xml version="1.0" encoding="UTF-8" ?>
<!DOCTYPE svg PUBLIC "-//W3C//DTD SVG 1.1//EN" "http://www.w3.org/Graphics/SVG/1.1/DTD/svg11.dtd">
<svg width="100pt" height="100pt" viewBox="0 0 100 100" version="1.1" xmlns="http://www.w3.org/2000/svg">
<path fill="#ffffff" opacity="1.00" d=" M 42.45 12.61 C 60.89 8.24 81.24 20.57 86.41 38.73 C 91.91 54.41 84.75 73.01 70.91 81.88 C 61.53 87.92 49.45 90.23 38.77 86.42 C 20.07 81.14 7.61 59.75 12.96 40.95 C 16.23 26.83 28.24 15.36 42.45 12.61 M 20.19 32.28 C 11.86 45.61 14.47 64.34 25.97 75.01 C 37.43 86.53 57.20 87.95 70.20 78.22 C 79.32 71.83 84.54 60.95 84.90 49.93 C 80.37 52.82 76.56 56.84 71.74 59.22 C 68.09 59.35 64.53 58.06 60.92 57.65 C 62.27 55.11 63.33 52.39 64.97 50.02 C 71.36 48.16 78.15 48.22 84.69 47.03 C 83.37 32.71 72.67 19.75 58.61 16.35 C 44.10 12.40 27.65 19.24 20.19 32.28 Z" />
<path fill="#482b46" opacity="1.00" d=" M 20.19 32.28 C 27.65 19.24 44.10 12.40 58.61 16.35 C 72.67 19.75 83.37 32.71 84.69 47.03 C 78.15 48.22 71.36 48.16 64.97 50.02 C 63.33 52.39 62.27 55.11 60.92 57.65 C 64.53 58.06 68.09 59.35 71.74 59.22 C 76.56 56.84 80.37 52.82 84.90 49.93 C 84.54 60.95 79.32 71.83 70.20 78.22 C 57.20 87.95 37.43 86.53 25.97 75.01 C 14.47 64.34 11.86 45.61 20.19 32.28 M 58.56 22.64 C 57.24 24.76 56.85 28.21 53.90 28.64 C 47.60 30.22 41.10 30.89 34.85 32.67 C 41.69 32.58 48.46 31.55 55.28 31.10 C 54.81 32.66 54.31 34.21 53.77 35.75 C 43.47 36.82 33.14 37.63 22.82 38.54 C 32.35 39.65 41.95 40.02 51.53 40.60 C 51.51 42.25 51.32 43.92 51.60 45.56 C 53.37 48.66 56.19 50.99 58.29 53.85 C 60.39 51.13 62.94 48.80 64.98 46.04 C 65.93 44.90 65.12 43.44 64.89 42.19 C 62.86 35.65 60.64 29.17 58.56 22.64 M 21.74 45.48 C 26.10 47.21 30.77 48.49 34.46 51.51 C 38.10 54.01 41.18 57.42 45.27 59.20 C 48.93 59.35 52.49 58.04 56.11 57.64 C 54.71 55.11 53.66 52.38 51.96 50.03 C 49.21 48.94 46.20 48.84 43.30 48.44 C 36.08 47.68 28.92 46.50 21.74 45.48 M 50.23 63.52 C 44.76 63.17 39.31 62.29 33.81 62.41 C 38.90 63.90 44.20 64.52 49.32 65.87 C 51.29 66.33 52.38 68.21 53.74 69.53 C 51.13 69.50 48.53 69.39 45.93 69.32 C 48.66 70.16 51.52 70.70 54.07 72.02 C 55.89 73.38 57.04 75.42 58.45 77.17 C 61.11 73.37 63.50 69.39 65.82 65.36 C 63.47 64.16 61.25 62.67 58.78 61.74 C 55.93 62.33 53.23 63.84 50.23 63.52 Z" />
<path fill="#ffffff" opacity="1.00" d=" M 58.56 22.64 C 60.64 29.17 62.86 35.65 64.89 42.19 C 65.12 43.44 65.93 44.90 64.98 46.04 C 62.94 48.80 60.39 51.13 58.29 53.85 C 56.19 50.99 53.37 48.66 51.60 45.56 C 51.32 43.92 51.51 42.25 51.53 40.60 C 41.95 40.02 32.35 39.65 22.82 38.54 C 33.14 37.63 43.47 36.82 53.77 35.75 C 54.31 34.21 54.81 32.66 55.28 31.10 C 48.46 31.55 41.69 32.58 34.85 32.67 C 41.10 30.89 47.60 30.22 53.90 28.64 C 56.85 28.21 57.24 24.76 58.56 22.64 Z" />
<path fill="#ffffff" opacity="1.00" d=" M 21.74 45.48 C 28.92 46.50 36.08 47.68 43.30 48.44 C 46.20 48.84 49.21 48.94 51.96 50.03 C 53.66 52.38 54.71 55.11 56.11 57.64 C 52.49 58.04 48.93 59.35 45.27 59.20 C 41.18 57.42 38.10 54.01 34.46 51.51 C 30.77 48.49 26.10 47.21 21.74 45.48 Z" />
<path fill="#ffffff" opacity="1.00" d=" M 50.23 63.52 C 53.23 63.84 55.93 62.33 58.78 61.74 C 61.25 62.67 63.47 64.16 65.82 65.36 C 63.50 69.39 61.11 73.37 58.45 77.17 C 57.04 75.42 55.89 73.38 54.07 72.02 C 51.52 70.70 48.66 70.16 45.93 69.32 C 48.53 69.39 51.13 69.50 53.74 69.53 C 52.38 68.21 51.29 66.33 49.32 65.87 C 44.20 64.52 38.90 63.90 33.81 62.41 C 39.31 62.29 44.76 63.17 50.23 63.52 Z" />
</svg>
