<?xml version="1.0" encoding="UTF-8" ?>
<!DOCTYPE svg PUBLIC "-//W3C//DTD SVG 1.1//EN" "http://www.w3.org/Graphics/SVG/1.1/DTD/svg11.dtd">
<svg width="100pt" height="100pt" viewBox="0 0 100 100" version="1.1" xmlns="http://www.w3.org/2000/svg">
<path fill="#b6d1ce" opacity="1.00" d=" M 43.88 16.55 C 45.48 12.10 47.53 7.82 49.86 3.70 C 52.43 8.13 54.61 12.75 56.75 17.40 C 59.77 15.58 62.19 12.91 65.29 11.22 C 69.83 9.42 74.67 8.51 79.37 7.23 C 78.41 10.21 77.42 13.19 76.35 16.13 C 79.50 16.53 82.56 17.36 85.52 18.50 C 88.66 19.05 91.78 17.73 94.87 17.33 C 93.91 21.24 93.14 25.20 92.00 29.05 C 91.17 32.20 88.37 34.18 86.26 36.44 C 88.94 36.67 91.62 36.89 94.30 37.16 C 91.31 40.92 87.66 44.07 84.33 47.50 C 83.79 49.60 83.90 51.80 83.86 53.95 C 83.95 63.78 83.88 73.62 83.93 83.46 C 68.28 83.51 52.64 83.45 36.99 83.46 C 33.58 83.16 31.20 85.90 28.60 87.61 C 25.98 89.54 22.80 90.44 19.79 91.56 C 20.44 88.94 21.19 86.35 21.95 83.77 C 19.61 83.41 17.29 82.97 14.99 82.40 C 13.08 84.34 11.32 86.47 9.07 88.03 C 6.84 89.11 4.28 89.10 1.88 89.54 C 3.05 81.01 9.99 75.28 14.37 68.36 C 16.52 65.74 16.06 62.20 16.16 59.05 C 16.06 55.19 16.46 51.27 15.68 47.46 C 12.97 44.16 9.93 41.11 7.60 37.50 C 10.42 37.13 13.25 36.78 16.08 36.46 C 16.10 29.82 16.13 23.18 16.07 16.54 C 25.34 16.52 34.61 16.50 43.88 16.55 M 44.97 19.37 C 36.25 19.31 27.53 19.37 18.81 19.30 C 18.71 25.71 18.64 32.11 18.86 38.52 C 16.26 38.66 13.67 38.83 11.07 39.06 C 13.37 41.99 16.40 44.33 18.35 47.52 C 19.12 50.96 18.80 54.54 18.88 58.04 C 18.75 61.18 19.16 64.63 17.35 67.41 C 13.18 74.28 6.70 79.79 4.35 87.71 C 10.51 85.73 14.36 80.32 18.65 75.87 C 18.79 77.37 18.93 78.88 19.07 80.39 C 21.66 80.38 24.26 80.38 26.85 80.34 C 25.20 83.02 23.68 85.77 22.45 88.67 C 28.70 86.65 32.77 79.52 39.91 80.36 C 53.87 80.47 67.84 80.55 81.80 80.36 C 81.79 70.54 81.69 60.72 81.71 50.90 C 81.24 45.15 87.29 42.54 90.45 38.70 C 87.52 38.51 84.59 38.36 81.66 38.19 C 84.23 35.59 87.17 33.27 89.22 30.20 C 90.93 27.10 91.43 23.52 92.31 20.13 C 86.06 21.61 79.82 20.23 73.71 18.84 C 74.57 15.89 75.46 12.95 76.30 10.00 C 74.11 10.54 71.89 11.02 69.73 11.69 C 64.27 13.15 60.63 17.81 55.75 20.36 C 53.88 16.14 52.10 11.86 49.91 7.79 C 47.98 11.52 46.41 15.42 44.97 19.37 Z" />
<path fill="#c40f24" opacity="1.00" d=" M 44.97 19.37 C 46.41 15.42 47.98 11.52 49.91 7.79 C 52.10 11.86 53.88 16.14 55.75 20.36 C 60.63 17.81 64.27 13.15 69.73 11.69 C 71.89 11.02 74.11 10.54 76.30 10.00 C 75.46 12.95 74.57 15.89 73.71 18.84 C 79.82 20.23 86.06 21.61 92.31 20.13 C 91.43 23.52 90.93 27.10 89.22 30.20 C 87.17 33.27 84.23 35.59 81.66 38.19 C 84.59 38.36 87.52 38.51 90.45 38.70 C 87.29 42.54 81.24 45.15 81.71 50.90 C 81.69 60.72 81.79 70.54 81.80 80.36 C 67.84 80.55 53.87 80.47 39.91 80.36 C 32.77 79.52 28.70 86.65 22.45 88.67 C 23.68 85.77 25.20 83.02 26.85 80.34 C 24.26 80.38 21.66 80.38 19.07 80.39 C 18.93 78.88 18.79 77.37 18.65 75.87 C 14.36 80.32 10.51 85.73 4.35 87.71 C 6.70 79.79 13.18 74.28 17.35 67.41 C 19.16 64.63 18.75 61.18 18.88 58.04 C 18.80 54.54 19.12 50.96 18.35 47.52 C 16.40 44.33 13.37 41.99 11.07 39.06 C 13.67 38.83 16.26 38.66 18.86 38.52 C 18.64 32.11 18.71 25.71 18.81 19.30 C 27.53 19.37 36.25 19.31 44.97 19.37 M 41.25 39.05 C 44.35 42.28 47.46 45.54 50.01 49.23 C 52.58 45.56 55.65 42.30 58.79 39.13 C 55.75 30.27 53.18 21.25 50.09 12.41 C 46.76 21.16 44.38 30.23 41.25 39.05 M 57.78 23.97 C 58.51 25.99 59.25 28.02 59.98 30.05 C 64.78 25.02 71.08 20.74 72.70 13.53 C 66.24 14.46 62.02 19.56 57.78 23.97 M 81.43 26.38 C 77.22 30.46 73.16 34.70 69.24 39.07 C 72.30 38.66 75.72 39.08 78.42 37.32 C 83.27 33.62 88.24 29.16 89.12 22.76 C 86.42 23.60 83.48 24.27 81.43 26.38 M 64.52 43.20 C 62.28 43.57 59.89 43.66 57.84 44.72 C 55.89 47.43 54.60 50.54 52.90 53.41 C 57.35 53.67 61.81 55.82 66.23 55.07 C 73.05 50.77 79.21 45.45 85.65 40.60 C 78.61 41.43 71.57 42.40 64.52 43.20 M 15.26 40.82 C 19.96 44.81 25.00 48.38 29.84 52.19 C 31.50 53.36 33.08 54.81 35.07 55.37 C 39.34 55.17 43.47 53.82 47.74 53.46 C 45.79 50.49 44.17 47.34 42.63 44.16 C 33.51 43.02 24.42 41.61 15.26 40.82 M 7.73 84.06 C 16.60 75.49 24.80 66.24 33.40 57.40 C 32.20 56.52 31.00 55.65 29.81 54.77 C 22.55 64.61 14.65 73.98 7.73 84.06 M 41.35 62.75 C 44.26 67.34 47.10 71.98 50.02 76.57 C 52.95 71.98 55.78 67.33 58.70 62.74 C 55.77 61.03 52.83 59.32 50.02 57.42 C 47.20 59.31 44.28 61.03 41.35 62.75 M 40.69 68.75 C 35.54 73.47 31.13 79.00 26.74 84.43 C 32.16 80.33 37.38 75.89 42.20 71.09 C 43.89 69.47 42.94 66.90 40.69 68.75 Z" />
<path fill="#ffffff" opacity="1.00" d=" M 41.25 39.05 C 44.38 30.23 46.76 21.16 50.09 12.41 C 53.18 21.25 55.75 30.27 58.79 39.13 C 55.65 42.30 52.58 45.56 50.01 49.23 C 47.46 45.54 44.35 42.28 41.25 39.05 Z" />
<path fill="#ffffff" opacity="1.00" d=" M 57.78 23.97 C 62.02 19.56 66.24 14.46 72.70 13.53 C 71.08 20.74 64.78 25.02 59.98 30.05 C 59.25 28.02 58.51 25.99 57.78 23.97 Z" />
<path fill="#ffffff" opacity="1.00" d=" M 81.43 26.38 C 83.48 24.27 86.42 23.60 89.12 22.76 C 88.24 29.16 83.27 33.62 78.42 37.32 C 75.72 39.08 72.30 38.66 69.24 39.07 C 73.16 34.70 77.22 30.46 81.43 26.38 Z" />
<path fill="#ffffff" opacity="1.00" d=" M 64.52 43.20 C 71.57 42.40 78.61 41.43 85.65 40.60 C 79.21 45.45 73.05 50.77 66.23 55.07 C 61.81 55.82 57.35 53.67 52.90 53.41 C 54.60 50.54 55.89 47.43 57.84 44.72 C 59.89 43.66 62.28 43.57 64.52 43.20 Z" />
<path fill="#ffffff" opacity="1.00" d=" M 15.26 40.82 C 24.42 41.61 33.51 43.02 42.63 44.16 C 44.17 47.34 45.79 50.49 47.74 53.46 C 43.47 53.82 39.34 55.17 35.07 55.37 C 33.08 54.81 31.50 53.36 29.84 52.19 C 25.00 48.38 19.96 44.81 15.26 40.82 Z" />
<path fill="#ffffff" opacity="1.00" d=" M 7.73 84.06 C 14.65 73.98 22.55 64.61 29.81 54.77 C 31.00 55.65 32.20 56.52 33.40 57.40 C 24.80 66.24 16.60 75.49 7.73 84.06 Z" />
<path fill="#ffffff" opacity="1.00" d=" M 41.35 62.75 C 44.28 61.03 47.20 59.31 50.02 57.42 C 52.83 59.32 55.77 61.03 58.70 62.74 C 55.78 67.33 52.95 71.98 50.02 76.57 C 47.10 71.98 44.26 67.34 41.35 62.75 Z" />
<path fill="#ffffff" opacity="1.00" d=" M 40.69 68.75 C 42.94 66.90 43.89 69.47 42.20 71.09 C 37.38 75.89 32.16 80.33 26.74 84.43 C 31.13 79.00 35.54 73.47 40.69 68.75 Z" />
</svg>
