<?xml version="1.0" encoding="UTF-8" ?>
<!DOCTYPE svg PUBLIC "-//W3C//DTD SVG 1.1//EN" "http://www.w3.org/Graphics/SVG/1.1/DTD/svg11.dtd">
<svg width="100pt" height="100pt" viewBox="0 0 100 100" version="1.1" xmlns="http://www.w3.org/2000/svg">
<path fill="#bab9b9" opacity="1.00" d=" M 49.41 7.51 C 53.10 16.61 54.23 27.00 61.17 34.48 C 68.96 27.88 75.08 19.42 83.72 13.80 C 82.89 22.12 83.86 31.43 78.71 38.58 C 77.77 39.97 76.72 41.29 75.72 42.64 C 82.62 41.89 89.48 40.78 96.39 40.14 C 89.85 45.49 82.97 50.40 76.22 55.48 C 81.42 62.95 86.81 70.29 92.03 77.74 C 79.68 77.69 67.33 77.78 54.99 77.60 C 53.15 80.51 51.32 83.43 49.38 86.26 C 47.54 83.37 45.73 80.46 43.95 77.53 C 40.62 77.65 37.01 77.17 34.03 79.02 C 30.01 81.29 25.64 83.05 22.18 86.18 C 19.24 88.80 15.55 90.27 12.01 91.87 C 12.09 86.74 13.81 81.90 16.57 77.60 C 13.67 77.50 10.77 77.52 7.87 77.46 C 13.00 70.24 18.01 62.94 23.17 55.74 C 16.47 50.40 9.41 45.53 2.79 40.11 C 12.22 40.96 21.56 42.78 31.01 43.49 C 33.40 41.69 34.84 38.96 36.59 36.59 C 39.11 32.75 42.27 29.22 43.77 24.80 C 45.73 19.06 47.31 13.20 49.41 7.51 M 49.39 14.54 C 47.66 18.91 46.38 23.44 44.91 27.90 C 42.72 34.77 37.52 39.99 33.68 45.94 C 25.98 45.17 18.34 43.81 10.62 43.23 C 15.71 47.88 21.46 51.72 26.85 56.00 C 22.41 62.04 18.09 68.16 13.97 74.42 C 16.28 74.49 18.60 74.63 20.92 74.70 C 18.09 79.04 15.40 83.54 13.98 88.56 C 20.01 86.06 24.68 81.28 30.57 78.51 C 34.64 75.79 39.28 73.87 44.27 74.36 C 45.93 77.03 47.63 79.67 49.37 82.29 C 51.07 79.84 52.72 77.37 54.33 74.86 C 64.93 74.36 75.54 74.81 86.14 74.61 C 81.97 68.14 77.29 62.03 72.75 55.83 C 78.09 51.47 83.80 47.59 89.06 43.12 C 82.55 43.71 76.09 44.69 69.62 45.54 C 73.33 41.56 77.85 37.89 79.58 32.53 C 81.00 27.91 81.14 23.04 81.50 18.26 C 76.59 21.69 72.53 26.12 68.47 30.48 C 65.82 33.12 63.11 36.15 59.30 36.98 C 53.27 30.97 52.95 21.90 49.39 14.54 Z" />
<path fill="#217a7a" opacity="1.00" d=" M 49.39 14.54 C 52.95 21.90 53.27 30.97 59.30 36.98 C 63.11 36.15 65.82 33.12 68.47 30.48 C 72.53 26.12 76.59 21.69 81.50 18.26 C 81.14 23.04 81.00 27.91 79.58 32.53 C 77.85 37.89 73.33 41.56 69.62 45.54 C 76.09 44.69 82.55 43.71 89.06 43.12 C 83.80 47.59 78.09 51.47 72.75 55.83 C 77.29 62.03 81.97 68.14 86.14 74.61 C 75.54 74.81 64.93 74.36 54.33 74.86 C 52.72 77.37 51.07 79.84 49.37 82.29 C 47.63 79.67 45.93 77.03 44.27 74.36 C 39.28 73.87 34.64 75.79 30.57 78.51 C 24.68 81.28 20.01 86.06 13.98 88.56 C 15.40 83.54 18.09 79.04 20.92 74.70 C 18.60 74.63 16.28 74.49 13.97 74.42 C 18.09 68.16 22.41 62.04 26.85 56.00 C 21.46 51.72 15.71 47.88 10.62 43.23 C 18.34 43.81 25.98 45.17 33.68 45.94 C 37.52 39.99 42.72 34.77 44.91 27.90 C 46.38 23.44 47.66 18.91 49.39 14.54 M 49.39 22.52 C 46.63 30.12 44.25 37.86 41.97 45.62 C 44.60 48.25 47.11 51.00 49.40 53.93 C 51.78 51.03 54.30 48.26 56.93 45.58 C 54.62 37.83 52.37 30.05 49.39 22.52 M 58.64 41.02 C 59.17 42.86 59.70 44.70 60.24 46.54 C 62.59 45.94 65.21 45.76 67.13 44.12 C 71.27 40.71 75.03 36.71 77.51 31.91 C 74.96 33.94 72.62 36.20 70.12 38.28 C 73.46 33.19 77.52 28.44 79.34 22.51 C 72.30 28.55 67.32 36.99 58.64 41.02 M 19.57 46.99 C 24.80 51.21 29.93 55.66 35.69 59.12 C 39.61 59.85 43.59 58.11 47.53 57.81 C 45.90 55.21 44.43 52.52 43.03 49.79 C 35.23 48.67 27.43 47.53 19.57 46.99 M 56.18 49.85 C 54.83 52.51 53.45 55.16 51.99 57.78 C 55.79 58.16 59.62 59.82 63.43 59.21 C 69.39 55.66 74.59 50.94 80.15 46.80 C 72.13 47.55 64.15 48.69 56.18 49.85 M 32.85 61.87 C 31.21 63.52 29.61 65.23 28.08 66.99 C 27.25 70.66 24.62 73.46 22.51 76.45 C 20.23 79.56 18.16 82.82 16.25 86.16 C 21.22 81.86 25.60 76.92 30.70 72.77 C 29.67 74.56 28.94 76.50 28.13 78.40 C 31.71 75.83 35.92 73.39 37.30 68.90 C 38.04 68.54 38.79 68.17 39.54 67.82 C 39.15 66.68 38.75 65.54 38.37 64.40 C 39.56 63.77 40.75 63.14 41.94 62.53 C 38.90 62.63 35.83 62.53 32.85 61.87 M 49.24 61.73 C 46.63 62.78 44.30 64.40 41.88 65.82 C 44.35 69.80 46.80 73.80 49.59 77.56 C 52.12 73.66 54.56 69.71 57.06 65.79 C 54.50 64.37 52.07 62.56 49.24 61.73 Z" />
<path fill="#ffffff" opacity="1.00" d=" M 49.39 22.52 C 52.37 30.05 54.62 37.83 56.93 45.58 C 54.30 48.26 51.78 51.03 49.40 53.93 C 47.11 51.00 44.60 48.25 41.97 45.62 C 44.25 37.86 46.63 30.12 49.39 22.52 Z" />
<path fill="#ffffff" opacity="1.00" d=" M 58.64 41.02 C 67.32 36.99 72.30 28.55 79.34 22.51 C 77.52 28.44 73.46 33.19 70.12 38.28 C 72.62 36.20 74.96 33.94 77.51 31.91 C 75.03 36.71 71.27 40.71 67.13 44.12 C 65.21 45.76 62.59 45.94 60.24 46.54 C 59.70 44.70 59.17 42.86 58.64 41.02 Z" />
<path fill="#ffffff" opacity="1.00" d=" M 19.57 46.99 C 27.43 47.53 35.23 48.67 43.03 49.79 C 44.43 52.52 45.90 55.21 47.53 57.81 C 43.59 58.11 39.61 59.85 35.69 59.12 C 29.93 55.66 24.80 51.21 19.57 46.99 Z" />
<path fill="#ffffff" opacity="1.00" d=" M 56.18 49.85 C 64.15 48.69 72.13 47.55 80.15 46.80 C 74.59 50.94 69.39 55.66 63.43 59.21 C 59.62 59.82 55.79 58.16 51.99 57.78 C 53.45 55.16 54.83 52.51 56.18 49.85 Z" />
<path fill="#ffffff" opacity="1.00" d=" M 32.85 61.87 C 35.83 62.53 38.90 62.63 41.94 62.53 C 40.75 63.14 39.56 63.77 38.37 64.40 C 38.75 65.54 39.15 66.68 39.54 67.82 C 38.79 68.17 38.04 68.54 37.30 68.90 C 35.01 70.02 32.67 71.12 30.70 72.77 C 25.60 76.92 21.22 81.86 16.25 86.16 C 18.16 82.82 20.23 79.56 22.51 76.45 C 24.62 73.46 27.25 70.66 28.08 66.99 C 29.61 65.23 31.21 63.52 32.85 61.87 Z" />
<path fill="#ffffff" opacity="1.00" d=" M 49.24 61.73 C 52.07 62.56 54.50 64.37 57.06 65.79 C 54.56 69.71 52.12 73.66 49.59 77.56 C 46.80 73.80 44.35 69.80 41.88 65.82 C 44.30 64.40 46.63 62.78 49.24 61.73 Z" />
<path fill="#b4d2d2" opacity="1.00" d=" M 30.70 72.77 C 32.67 71.12 35.01 70.02 37.30 68.90 C 35.92 73.39 31.71 75.83 28.13 78.40 C 28.94 76.50 29.67 74.56 30.70 72.77 Z" />
</svg>
