<?xml version="1.0" encoding="UTF-8" ?>
<!DOCTYPE svg PUBLIC "-//W3C//DTD SVG 1.1//EN" "http://www.w3.org/Graphics/SVG/1.1/DTD/svg11.dtd">
<svg width="100pt" height="100pt" viewBox="0 0 100 100" version="1.1" xmlns="http://www.w3.org/2000/svg">
<path fill="#bab9b9" opacity="1.00" d=" M 44.56 24.51 C 45.92 20.49 47.64 16.61 49.41 12.75 C 51.76 17.75 53.94 22.84 55.64 28.11 C 57.80 26.17 59.67 23.72 62.41 22.59 C 66.00 21.60 69.75 21.43 73.44 20.97 C 72.75 24.73 72.57 28.65 71.18 32.24 C 69.06 35.69 65.78 38.28 63.71 41.79 C 68.71 38.88 71.76 33.70 76.51 30.50 C 80.02 29.56 83.72 29.85 87.31 29.67 C 86.83 35.04 86.75 40.90 82.70 45.00 C 84.24 45.21 85.79 45.42 87.33 45.64 C 84.58 50.42 80.68 54.34 76.12 57.41 C 81.44 64.85 86.74 72.30 92.07 79.73 C 79.74 79.69 67.40 79.79 55.07 79.60 C 53.30 82.13 51.46 84.61 49.59 87.08 C 47.66 84.75 45.80 82.37 44.00 79.93 C 39.72 83.32 35.57 86.89 31.16 90.12 C 29.28 91.67 26.73 91.50 24.46 91.84 C 23.83 86.69 27.39 82.88 30.15 79.02 C 23.21 78.81 20.06 85.65 15.20 89.28 C 13.34 90.92 10.65 90.33 8.38 90.69 C 8.45 86.59 10.08 82.86 12.42 79.58 C 10.89 79.52 9.36 79.47 7.83 79.42 C 13.09 72.18 18.15 64.81 23.28 57.47 C 19.06 54.31 15.22 50.65 12.16 46.33 C 18.46 44.37 25.04 45.26 31.46 45.89 C 35.85 38.79 42.12 32.67 44.56 24.51 M 49.34 17.75 C 47.56 21.98 46.15 26.34 44.58 30.64 C 42.25 37.16 37.41 42.28 33.71 48.01 C 27.64 47.48 21.55 46.94 15.45 47.25 C 18.82 51.27 22.81 54.67 26.91 57.91 C 22.42 63.96 18.16 70.19 13.92 76.42 C 15.03 76.49 16.15 76.56 17.27 76.63 C 14.27 80.45 11.50 84.58 10.50 89.41 C 15.47 86.98 18.99 82.65 22.94 78.93 C 25.97 75.71 30.74 76.79 34.67 76.59 C 31.53 80.73 28.20 84.82 26.30 89.72 C 33.39 87.09 38.59 81.42 44.58 77.06 C 46.10 79.23 47.64 81.39 49.18 83.55 C 51.14 81.34 52.79 78.70 55.35 77.12 C 57.82 76.41 60.44 76.55 62.98 76.52 C 70.72 76.66 78.46 76.70 86.20 76.60 C 81.89 70.20 77.34 63.95 72.70 57.78 C 76.68 54.63 80.59 51.36 83.89 47.48 C 81.80 47.13 79.71 46.79 77.63 46.46 C 79.74 44.33 82.11 42.34 83.62 39.69 C 84.89 36.95 85.04 33.87 85.52 30.92 C 81.98 31.57 77.99 31.64 75.16 34.18 C 71.16 37.67 67.71 41.73 63.88 45.40 C 62.84 43.98 61.79 42.56 60.75 41.13 C 63.25 38.50 65.92 36.00 68.07 33.07 C 70.25 30.12 70.58 26.34 71.29 22.86 C 68.23 23.46 64.99 23.74 62.21 25.27 C 59.42 26.96 57.22 29.41 54.86 31.61 C 53.19 26.92 51.45 22.25 49.34 17.75 Z" />
<path fill="#217a7a" opacity="1.00" d=" M 49.34 17.75 C 51.45 22.25 53.19 26.92 54.86 31.61 C 57.22 29.41 59.42 26.96 62.21 25.27 C 64.99 23.74 68.23 23.46 71.29 22.86 C 70.58 26.34 70.25 30.12 68.07 33.07 C 65.92 36.00 63.25 38.50 60.75 41.13 C 61.79 42.56 62.84 43.98 63.88 45.40 C 67.71 41.73 71.16 37.67 75.16 34.18 C 77.99 31.64 81.98 31.57 85.52 30.92 C 85.04 33.87 84.89 36.95 83.62 39.69 C 82.11 42.34 79.74 44.33 77.63 46.46 C 79.71 46.79 81.80 47.13 83.89 47.48 C 80.59 51.36 76.68 54.63 72.70 57.78 C 77.34 63.95 81.89 70.20 86.20 76.60 C 78.46 76.70 70.72 76.66 62.98 76.52 C 60.44 76.55 57.82 76.41 55.35 77.12 C 52.79 78.70 51.14 81.34 49.18 83.55 C 47.64 81.39 46.10 79.23 44.58 77.06 C 38.59 81.42 33.39 87.09 26.30 89.72 C 28.20 84.82 31.53 80.73 34.67 76.59 C 30.74 76.79 25.97 75.71 22.94 78.93 C 18.99 82.65 15.47 86.98 10.50 89.41 C 11.50 84.58 14.27 80.45 17.27 76.63 C 16.15 76.56 15.03 76.49 13.92 76.42 C 18.16 70.19 22.42 63.96 26.91 57.91 C 22.81 54.67 18.82 51.27 15.45 47.25 C 21.55 46.94 27.64 47.48 33.71 48.01 C 37.41 42.28 42.25 37.16 44.58 30.64 C 46.15 26.34 47.56 21.98 49.34 17.75 M 49.40 24.41 C 46.67 32.05 44.30 39.82 41.94 47.58 C 44.58 50.23 47.12 52.99 49.43 55.93 C 51.79 53.00 54.33 50.22 56.97 47.54 C 54.57 39.79 52.29 32.00 49.40 24.41 M 56.08 34.11 C 56.75 35.88 57.42 37.66 58.09 39.43 C 62.66 35.30 67.52 31.04 69.40 24.94 C 63.94 26.29 59.86 30.20 56.08 34.11 M 66.30 47.50 C 74.62 47.81 81.57 40.91 83.41 33.17 C 75.74 34.99 71.25 42.00 66.30 47.50 M 19.50 48.95 C 24.00 52.69 28.61 56.30 33.35 59.72 C 37.46 63.13 42.84 60.01 47.49 59.83 C 45.89 57.21 44.43 54.50 43.03 51.77 C 35.20 50.73 27.38 49.53 19.50 48.95 M 57.16 51.95 C 54.52 53.72 53.60 57.17 51.87 59.75 C 55.70 60.16 59.57 61.80 63.42 61.15 C 69.45 57.71 74.61 52.90 80.18 48.77 C 72.51 49.82 64.67 50.06 57.16 51.95 M 13.70 85.23 C 21.26 78.33 27.92 70.52 35.08 63.22 C 34.03 62.46 32.98 61.69 31.92 60.92 C 25.97 69.12 19.30 76.79 13.70 85.23 M 49.33 63.32 C 46.88 64.90 44.38 66.39 41.88 67.87 C 44.41 71.82 46.89 75.81 49.54 79.68 C 52.05 75.73 54.52 71.75 57.06 67.82 C 54.46 66.35 51.88 64.87 49.33 63.32 M 29.71 86.27 C 34.61 82.68 38.97 78.42 43.70 74.61 C 43.30 73.65 42.90 72.69 42.51 71.73 C 38.04 76.38 33.51 81.04 29.71 86.27 Z" />
<path fill="#ffffff" opacity="1.00" d=" M 49.40 24.41 C 52.29 32.00 54.57 39.79 56.97 47.54 C 54.33 50.22 51.79 53.00 49.43 55.93 C 47.12 52.99 44.58 50.23 41.94 47.58 C 44.30 39.82 46.67 32.05 49.40 24.41 Z" />
<path fill="#ffffff" opacity="1.00" d=" M 56.08 34.11 C 59.86 30.20 63.94 26.29 69.40 24.94 C 67.52 31.04 62.66 35.30 58.09 39.43 C 57.42 37.66 56.75 35.88 56.08 34.11 Z" />
<path fill="#ffffff" opacity="1.00" d=" M 66.30 47.50 C 71.25 42.00 75.74 34.99 83.41 33.17 C 81.57 40.91 74.62 47.81 66.30 47.50 Z" />
<path fill="#ffffff" opacity="1.00" d=" M 19.50 48.95 C 27.38 49.53 35.20 50.73 43.03 51.77 C 44.43 54.50 45.89 57.21 47.49 59.83 C 42.84 60.01 37.46 63.13 33.35 59.72 C 28.61 56.30 24.00 52.69 19.50 48.95 Z" />
<path fill="#ffffff" opacity="1.00" d=" M 57.16 51.95 C 64.67 50.06 72.51 49.82 80.18 48.77 C 74.61 52.90 69.45 57.71 63.42 61.15 C 59.57 61.80 55.70 60.16 51.87 59.75 C 53.60 57.17 54.52 53.72 57.16 51.95 Z" />
<path fill="#ffffff" opacity="1.00" d=" M 13.70 85.23 C 19.30 76.79 25.97 69.12 31.92 60.92 C 32.98 61.69 34.03 62.46 35.08 63.22 C 27.92 70.52 21.26 78.33 13.70 85.23 Z" />
<path fill="#ffffff" opacity="1.00" d=" M 49.33 63.32 C 51.88 64.87 54.46 66.35 57.06 67.82 C 54.52 71.75 52.05 75.73 49.54 79.68 C 46.89 75.81 44.41 71.82 41.88 67.87 C 44.38 66.39 46.88 64.90 49.33 63.32 Z" />
<path fill="#ffffff" opacity="1.00" d=" M 29.71 86.27 C 33.51 81.04 38.04 76.38 42.51 71.73 C 42.90 72.69 43.30 73.65 43.70 74.61 C 38.97 78.42 34.61 82.68 29.71 86.27 Z" />
</svg>
