<?xml version="1.0" encoding="UTF-8" ?>
<!DOCTYPE svg PUBLIC "-//W3C//DTD SVG 1.1//EN" "http://www.w3.org/Graphics/SVG/1.1/DTD/svg11.dtd">
<svg width="100pt" height="100pt" viewBox="0 0 100 100" version="1.1" xmlns="http://www.w3.org/2000/svg">
<path fill="#b8b8b8" opacity="1.00" d=" M 47.26 24.36 C 51.07 21.22 54.28 17.44 57.77 13.96 C 57.73 17.75 57.76 21.55 57.90 25.35 C 69.57 25.39 81.23 25.47 92.90 25.30 C 89.77 29.61 85.42 33.67 85.12 39.32 C 82.35 40.42 79.95 42.37 78.63 45.09 C 80.21 49.02 83.08 52.24 85.36 55.76 C 81.32 54.63 77.32 53.38 73.30 52.19 C 71.95 54.58 70.05 56.86 69.75 59.69 C 73.27 64.44 76.65 69.31 79.44 74.54 C 73.15 73.70 66.54 73.50 60.85 70.37 C 57.26 75.24 53.79 80.19 50.27 85.10 C 46.87 80.30 43.32 75.60 39.93 70.78 C 34.16 73.35 27.79 73.74 21.61 74.54 C 24.62 69.33 27.50 63.93 31.84 59.69 C 30.11 57.32 28.40 54.95 26.72 52.55 C 23.05 53.60 19.39 54.73 15.71 55.77 C 17.85 52.55 20.06 49.38 22.19 46.15 C 16.31 39.80 12.22 32.14 6.88 25.38 C 18.61 25.40 30.34 25.36 42.07 25.44 C 43.82 25.31 45.84 25.64 47.26 24.36 M 47.15 27.25 C 45.13 28.78 42.42 28.39 40.04 28.55 C 31.40 28.42 22.76 28.50 14.12 28.36 C 15.77 32.00 16.76 36.19 19.86 38.94 C 21.70 40.74 23.51 42.57 25.27 44.46 C 22.99 47.38 20.79 50.36 18.79 53.47 C 22.26 52.49 25.67 51.29 29.02 49.97 C 31.12 52.92 33.21 55.88 35.27 58.86 C 30.72 62.65 27.22 67.45 24.53 72.69 C 30.58 72.47 36.19 70.30 41.77 68.22 C 45.07 71.52 47.43 75.61 50.22 79.32 C 52.83 75.93 54.90 71.94 58.44 69.41 C 60.19 68.13 62.25 69.44 64.01 69.96 C 68.00 71.59 72.28 72.24 76.54 72.70 C 74.63 69.26 72.50 65.94 69.95 62.95 C 68.98 61.59 67.46 60.30 67.55 58.49 C 67.58 55.00 69.60 52.01 71.31 49.12 C 74.80 50.97 78.47 52.46 82.26 53.58 C 80.09 50.04 77.60 46.71 75.02 43.47 C 77.16 40.84 79.93 38.83 83.24 37.96 C 83.90 34.73 84.54 31.48 85.41 28.29 C 75.30 28.55 65.18 28.56 55.07 28.29 C 55.13 25.35 55.21 22.42 55.30 19.49 C 52.64 22.13 50.18 25.01 47.15 27.25 Z" />
<path fill="#c40f24" opacity="1.00" d=" M 47.15 27.25 C 50.18 25.01 52.64 22.13 55.30 19.49 C 55.21 22.42 55.13 25.35 55.07 28.29 C 65.18 28.56 75.30 28.55 85.41 28.29 C 84.54 31.48 83.90 34.73 83.24 37.96 C 79.93 38.83 77.16 40.84 75.02 43.47 C 77.60 46.71 80.09 50.04 82.26 53.58 C 78.47 52.46 74.80 50.97 71.31 49.12 C 69.60 52.01 67.58 55.00 67.55 58.49 C 67.46 60.30 68.98 61.59 69.95 62.95 C 72.50 65.94 74.63 69.26 76.54 72.70 C 72.28 72.24 68.00 71.59 64.01 69.96 C 62.25 69.44 60.19 68.13 58.44 69.41 C 54.90 71.94 52.83 75.93 50.22 79.32 C 47.43 75.61 45.07 71.52 41.77 68.22 C 36.19 70.30 30.58 72.47 24.53 72.69 C 27.22 67.45 30.72 62.65 35.27 58.86 C 33.21 55.88 31.12 52.92 29.02 49.97 C 25.67 51.29 22.26 52.49 18.79 53.47 C 20.79 50.36 22.99 47.38 25.27 44.46 C 23.51 42.57 21.70 40.74 19.86 38.94 C 16.76 36.19 15.77 32.00 14.12 28.36 C 22.76 28.50 31.40 28.42 40.04 28.55 C 42.42 28.39 45.13 28.78 47.15 27.25 M 38.61 46.61 C 36.59 52.07 36.93 58.70 40.60 63.40 C 44.77 68.82 53.08 70.33 58.97 66.97 C 63.89 63.91 65.34 57.53 64.75 52.11 C 64.26 47.58 60.29 44.69 57.94 41.09 C 54.36 36.50 52.86 30.76 52.23 25.07 C 47.12 31.85 41.51 38.51 38.61 46.61 M 31.56 38.72 C 27.38 36.23 24.21 31.42 18.94 31.35 C 18.91 32.86 18.89 34.37 18.87 35.87 C 22.64 37.52 26.03 39.85 29.27 42.37 C 26.68 45.30 24.07 48.22 21.88 51.47 C 24.77 50.02 27.41 48.16 29.89 46.10 C 31.14 47.06 32.38 48.04 33.78 48.78 C 35.20 46.45 36.35 43.95 37.18 41.36 C 37.83 39.80 36.17 38.64 35.57 37.37 C 35.89 34.74 36.18 32.10 36.27 29.45 C 34.43 32.39 33.01 35.57 31.56 38.72 M 64.73 29.45 C 64.88 32.23 65.25 34.99 65.71 37.73 C 64.47 38.77 63.23 39.83 62.01 40.90 C 64.26 43.57 66.44 46.30 68.52 49.10 C 69.28 47.97 70.04 46.84 70.80 45.71 C 73.36 47.94 76.11 49.98 79.18 51.46 C 77.03 48.26 74.46 45.38 71.78 42.62 C 74.94 39.89 78.38 37.47 82.23 35.82 C 82.17 34.53 82.10 33.25 82.03 31.97 C 81.26 31.79 79.71 31.44 78.93 31.26 C 75.99 34.01 72.83 36.49 69.45 38.68 C 68.03 35.53 66.61 32.36 64.73 29.45 M 27.45 70.76 C 31.82 70.23 36.08 68.99 39.96 66.90 C 38.49 64.89 37.01 62.88 35.56 60.85 C 32.26 63.62 29.53 66.99 27.45 70.76 M 62.52 67.92 C 66.10 69.28 69.83 70.16 73.60 70.76 C 71.68 67.56 69.48 64.54 66.99 61.77 C 65.50 63.82 64.00 65.87 62.52 67.92 Z" />
<path fill="#ffffff" opacity="1.00" d=" M 38.61 46.61 C 41.51 38.51 47.12 31.85 52.23 25.07 C 52.86 30.76 54.36 36.50 57.94 41.09 C 60.29 44.69 64.26 47.58 64.75 52.11 C 65.34 57.53 63.89 63.91 58.97 66.97 C 53.08 70.33 44.77 68.82 40.60 63.40 C 36.93 58.70 36.59 52.07 38.61 46.61 M 55.33 53.04 C 51.75 54.33 51.58 59.70 54.50 61.78 C 56.11 63.24 59.02 62.69 59.84 60.62 C 61.97 57.58 59.23 51.97 55.33 53.04 Z" />
<path fill="#ffffff" opacity="1.00" d=" M 31.56 38.72 C 33.01 35.57 34.43 32.39 36.27 29.45 C 36.18 32.10 35.89 34.74 35.57 37.37 C 36.17 38.64 37.83 39.80 37.18 41.36 C 36.35 43.95 35.20 46.45 33.78 48.78 C 32.38 48.04 31.14 47.06 29.89 46.10 C 27.41 48.16 24.77 50.02 21.88 51.47 C 24.07 48.22 26.68 45.30 29.27 42.37 C 26.03 39.85 22.64 37.52 18.87 35.87 C 18.89 34.37 18.91 32.86 18.94 31.35 C 24.21 31.42 27.38 36.23 31.56 38.72 Z" />
<path fill="#ffffff" opacity="1.00" d=" M 64.73 29.45 C 66.61 32.36 68.03 35.53 69.45 38.68 C 72.83 36.49 75.99 34.01 78.93 31.26 C 79.71 31.44 81.26 31.79 82.03 31.97 C 82.10 33.25 82.17 34.53 82.23 35.82 C 78.38 37.47 74.94 39.89 71.78 42.62 C 74.46 45.38 77.03 48.26 79.18 51.46 C 76.11 49.98 73.36 47.94 70.80 45.71 C 70.04 46.84 69.28 47.97 68.52 49.10 C 66.44 46.30 64.26 43.57 62.01 40.90 C 63.23 39.83 64.47 38.77 65.71 37.73 C 65.25 34.99 64.88 32.23 64.73 29.45 Z" />
<path fill="#c40f24" opacity="1.00" d=" M 55.33 53.04 C 59.23 51.97 61.97 57.58 59.84 60.62 C 59.02 62.69 56.11 63.24 54.50 61.78 C 51.58 59.70 51.75 54.33 55.33 53.04 Z" />
<path fill="#ffffff" opacity="1.00" d=" M 27.45 70.76 C 29.53 66.99 32.26 63.62 35.56 60.85 C 37.01 62.88 38.49 64.89 39.96 66.90 C 36.08 68.99 31.82 70.23 27.45 70.76 Z" />
<path fill="#ffffff" opacity="1.00" d=" M 62.52 67.92 C 64.00 65.87 65.50 63.82 66.99 61.77 C 69.48 64.54 71.68 67.56 73.60 70.76 C 69.83 70.16 66.10 69.28 62.52 67.92 Z" />
</svg>
