<?xml version="1.0" encoding="UTF-8" ?>
<!DOCTYPE svg PUBLIC "-//W3C//DTD SVG 1.1//EN" "http://www.w3.org/Graphics/SVG/1.1/DTD/svg11.dtd">
<svg width="100pt" height="100pt" viewBox="0 0 100 100" version="1.1" xmlns="http://www.w3.org/2000/svg">
<path fill="#b8b8b8" opacity="1.00" d=" M 47.27 24.36 C 51.07 21.22 54.28 17.43 57.77 13.96 C 57.73 17.75 57.75 21.55 57.90 25.34 C 69.57 25.41 81.24 25.46 92.90 25.30 C 89.82 29.64 85.28 33.67 85.19 39.38 C 82.24 40.51 77.20 43.65 79.60 47.21 C 81.32 50.19 83.45 52.90 85.35 55.77 C 81.39 54.65 77.47 53.45 73.58 52.13 C 72.09 54.50 69.92 56.77 69.76 59.70 C 73.26 64.45 76.66 69.29 79.42 74.52 C 73.14 73.71 66.54 73.50 60.87 70.37 C 57.24 75.21 53.82 80.20 50.27 85.09 C 46.84 80.30 43.34 75.58 39.92 70.78 C 34.16 73.33 27.81 73.76 21.63 74.52 C 24.61 69.31 27.51 63.94 31.84 59.69 C 30.12 57.33 28.41 54.95 26.73 52.56 C 23.05 53.61 19.39 54.71 15.71 55.77 C 17.87 52.55 20.06 49.37 22.19 46.14 C 16.26 39.83 12.23 32.13 6.89 25.38 C 18.61 25.40 30.34 25.36 42.07 25.44 C 43.82 25.31 45.85 25.64 47.27 24.36 M 47.16 27.26 C 45.14 28.80 42.41 28.38 40.03 28.54 C 31.39 28.41 22.75 28.50 14.12 28.35 C 15.55 31.44 16.85 34.60 18.06 37.78 C 20.89 39.51 23.24 41.88 25.23 44.53 C 22.95 47.41 20.78 50.38 18.79 53.47 C 22.25 52.48 25.66 51.30 29.01 49.97 C 31.13 52.91 33.23 55.87 35.25 58.87 C 30.73 62.66 27.19 67.42 24.56 72.68 C 30.61 72.48 36.21 70.32 41.77 68.19 C 45.06 71.51 47.40 75.61 50.22 79.32 C 52.84 75.94 54.90 71.94 58.44 69.40 C 60.19 68.07 62.25 69.42 64.02 69.96 C 67.98 71.63 72.26 72.25 76.51 72.68 C 74.64 69.24 72.52 65.92 69.95 62.95 C 68.98 61.59 67.40 60.33 67.55 58.49 C 67.59 54.99 69.58 51.99 71.35 49.11 C 74.80 51.00 78.47 52.48 82.25 53.56 C 80.09 50.04 77.61 46.73 75.04 43.50 C 77.10 40.78 79.89 38.78 83.26 38.03 C 83.90 34.76 84.54 31.49 85.41 28.28 C 75.30 28.54 65.18 28.56 55.06 28.27 C 55.13 25.35 55.21 22.42 55.31 19.50 C 52.64 22.13 50.17 25.00 47.16 27.26 Z" />
<path fill="#c40f24" opacity="1.00" d=" M 47.16 27.26 C 50.17 25.00 52.64 22.13 55.31 19.50 C 55.21 22.42 55.13 25.35 55.06 28.27 C 65.18 28.56 75.30 28.54 85.41 28.28 C 84.54 31.49 83.90 34.76 83.26 38.03 C 79.89 38.78 77.10 40.78 75.04 43.50 C 77.61 46.73 80.09 50.04 82.25 53.56 C 78.47 52.48 74.80 51.00 71.35 49.11 C 69.58 51.99 67.59 54.99 67.55 58.49 C 67.40 60.33 68.98 61.59 69.95 62.95 C 72.52 65.92 74.64 69.24 76.51 72.68 C 72.26 72.25 67.98 71.63 64.02 69.96 C 62.25 69.42 60.19 68.07 58.44 69.40 C 54.90 71.94 52.84 75.94 50.22 79.32 C 47.40 75.61 45.06 71.51 41.77 68.19 C 36.21 70.32 30.61 72.48 24.56 72.68 C 27.19 67.42 30.73 62.66 35.25 58.87 C 33.23 55.87 31.13 52.91 29.01 49.97 C 25.66 51.30 22.25 52.48 18.79 53.47 C 20.78 50.38 22.95 47.41 25.23 44.53 C 23.24 41.88 20.89 39.51 18.06 37.78 C 16.85 34.60 15.55 31.44 14.12 28.35 C 22.75 28.50 31.39 28.41 40.03 28.54 C 42.41 28.38 45.14 28.80 47.16 27.26 M 38.62 46.60 C 36.60 52.07 36.93 58.70 40.60 63.40 C 44.77 68.82 53.08 70.34 58.97 66.97 C 63.89 63.91 65.34 57.53 64.75 52.11 C 64.27 47.57 60.28 44.69 57.94 41.09 C 54.36 36.50 52.85 30.76 52.26 25.06 C 47.12 31.82 41.52 38.50 38.62 46.60 M 31.59 38.70 C 28.16 36.51 25.27 33.56 21.82 31.41 C 19.30 30.62 19.21 34.04 18.27 35.52 C 22.21 37.34 25.87 39.67 29.26 42.37 C 26.68 45.29 24.09 48.22 21.89 51.45 C 24.77 50.03 27.40 48.18 29.85 46.12 C 31.17 47.00 32.42 47.97 33.73 48.86 C 35.46 45.87 36.65 42.61 38.04 39.45 C 37.09 38.95 36.14 38.44 35.19 37.93 C 35.75 35.14 36.19 32.32 36.33 29.47 C 34.42 32.36 33.00 35.54 31.59 38.70 M 64.73 29.46 C 64.88 32.24 65.25 35.00 65.72 37.74 C 64.46 38.77 63.24 39.83 62.01 40.89 C 64.25 43.58 66.43 46.32 68.55 49.10 C 69.30 47.96 70.05 46.83 70.81 45.69 C 73.35 47.95 76.09 49.98 79.17 51.44 C 77.03 48.25 74.46 45.38 71.79 42.64 C 74.92 39.86 78.37 37.47 82.24 35.85 C 82.16 34.55 82.09 33.26 82.03 31.97 C 81.25 31.79 79.69 31.44 78.92 31.26 C 76.00 34.04 72.81 36.49 69.43 38.67 C 68.04 35.51 66.62 32.36 64.73 29.46 M 27.48 70.76 C 31.84 70.24 36.09 69.00 39.96 66.89 C 38.48 64.89 37.02 62.88 35.58 60.86 C 32.25 63.59 29.53 66.97 27.48 70.76 M 62.53 67.92 C 66.09 69.29 69.81 70.17 73.57 70.75 C 71.68 67.54 69.49 64.52 66.97 61.78 C 65.50 63.83 64.01 65.87 62.53 67.92 Z" />
<path fill="#ffffff" opacity="1.00" d=" M 38.62 46.60 C 41.52 38.50 47.12 31.82 52.26 25.06 C 52.85 30.76 54.36 36.50 57.94 41.09 C 60.28 44.69 64.27 47.57 64.75 52.11 C 65.34 57.53 63.89 63.91 58.97 66.97 C 53.08 70.34 44.77 68.82 40.60 63.40 C 36.93 58.70 36.60 52.07 38.62 46.60 M 55.32 53.04 C 51.75 54.34 51.59 59.70 54.50 61.78 C 56.13 63.23 59.00 62.68 59.84 60.63 C 61.94 57.58 59.24 51.96 55.32 53.04 Z" />
<path fill="#ffffff" opacity="1.00" d=" M 31.59 38.70 C 33.00 35.54 34.42 32.36 36.33 29.47 C 36.19 32.32 35.75 35.14 35.19 37.93 C 36.14 38.44 37.09 38.95 38.04 39.45 C 36.65 42.61 35.46 45.87 33.73 48.86 C 32.42 47.97 31.17 47.00 29.85 46.12 C 27.40 48.18 24.77 50.03 21.89 51.45 C 24.09 48.22 26.68 45.29 29.26 42.37 C 25.87 39.67 22.21 37.34 18.27 35.52 C 19.21 34.04 19.30 30.62 21.82 31.41 C 25.27 33.56 28.16 36.51 31.59 38.70 Z" />
<path fill="#ffffff" opacity="1.00" d=" M 64.73 29.46 C 66.62 32.36 68.04 35.51 69.43 38.67 C 72.81 36.49 76.00 34.04 78.92 31.26 C 79.69 31.44 81.25 31.79 82.03 31.97 C 82.09 33.26 82.16 34.55 82.24 35.85 C 78.37 37.47 74.92 39.86 71.79 42.64 C 74.46 45.38 77.03 48.25 79.17 51.44 C 76.09 49.98 73.35 47.95 70.81 45.69 C 70.05 46.83 69.30 47.96 68.55 49.10 C 66.43 46.32 64.25 43.58 62.01 40.89 C 63.24 39.83 64.46 38.77 65.72 37.74 C 65.25 35.00 64.88 32.24 64.73 29.46 Z" />
<path fill="#c40f24" opacity="1.00" d=" M 55.32 53.04 C 59.24 51.96 61.94 57.58 59.84 60.63 C 59.00 62.68 56.13 63.23 54.50 61.78 C 51.59 59.70 51.75 54.34 55.32 53.04 Z" />
<path fill="#ffffff" opacity="1.00" d=" M 27.48 70.76 C 29.53 66.97 32.25 63.59 35.58 60.86 C 37.02 62.88 38.48 64.89 39.96 66.89 C 36.09 69.00 31.84 70.24 27.48 70.76 Z" />
<path fill="#ffffff" opacity="1.00" d=" M 62.53 67.92 C 64.01 65.87 65.50 63.83 66.97 61.78 C 69.49 64.52 71.68 67.54 73.57 70.75 C 69.81 70.17 66.09 69.29 62.53 67.92 Z" />
</svg>
