<?xml version="1.0" encoding="UTF-8" ?>
<!DOCTYPE svg PUBLIC "-//W3C//DTD SVG 1.1//EN" "http://www.w3.org/Graphics/SVG/1.1/DTD/svg11.dtd">
<svg width="100pt" height="100pt" viewBox="0 0 100 100" version="1.1" xmlns="http://www.w3.org/2000/svg">
<path fill="#b7c7c6" opacity="1.00" d=" M 82.15 13.20 C 84.97 11.36 88.12 10.10 91.24 8.86 C 90.73 11.43 90.31 14.03 89.49 16.52 C 88.50 19.57 85.90 21.66 84.37 24.39 C 83.87 26.20 83.93 28.09 83.88 29.94 C 83.97 47.78 83.92 65.62 83.92 83.46 C 74.92 83.51 65.92 83.50 56.93 83.43 C 49.09 82.77 43.48 89.48 36.21 91.24 C 26.65 94.97 17.09 89.76 7.55 88.88 C 7.17 84.87 6.69 80.87 6.34 76.86 C 10.25 74.61 16.69 72.88 16.16 67.19 C 16.53 64.87 14.67 63.79 12.81 63.04 C 14.24 58.82 16.26 54.65 16.09 50.08 C 16.12 38.90 16.06 27.72 16.08 16.54 C 35.41 16.48 54.74 16.52 74.07 16.54 C 77.20 16.84 79.67 14.75 82.15 13.20 M 72.08 19.43 C 54.36 19.29 36.64 19.38 18.92 19.32 C 18.75 24.55 18.69 29.77 18.72 35.00 C 18.60 43.52 20.05 52.49 16.03 60.40 C 19.68 62.46 19.34 67.04 18.52 70.56 C 16.18 74.14 12.16 76.01 8.58 78.08 C 8.79 80.92 8.87 83.78 9.47 86.57 C 14.23 88.52 19.40 89.32 24.43 90.32 C 33.75 91.98 42.43 86.96 49.80 81.88 C 52.14 80.12 55.20 80.37 57.96 80.31 C 65.89 80.43 73.83 80.56 81.76 80.26 C 81.65 63.49 81.88 46.72 81.59 29.95 C 81.62 27.34 81.46 24.41 83.32 22.31 C 85.84 19.25 87.96 15.86 88.71 11.91 C 83.00 14.08 78.60 19.76 72.08 19.43 Z" />
<path fill="#c40f24" opacity="1.00" d=" M 72.08 19.43 C 78.60 19.76 83.00 14.08 88.71 11.91 C 87.96 15.86 85.84 19.25 83.32 22.31 C 81.46 24.41 81.62 27.34 81.59 29.95 C 81.88 46.72 81.65 63.49 81.76 80.26 C 73.83 80.56 65.89 80.43 57.96 80.31 C 55.20 80.37 52.14 80.12 49.80 81.88 C 42.43 86.96 33.75 91.98 24.43 90.32 C 19.40 89.32 14.23 88.52 9.47 86.57 C 8.87 83.78 8.79 80.92 8.58 78.08 C 12.16 76.01 16.18 74.14 18.52 70.56 C 19.34 67.04 19.68 62.46 16.03 60.40 C 20.05 52.49 18.60 43.52 18.72 35.00 C 18.69 29.77 18.75 24.55 18.92 19.32 C 36.64 19.38 54.36 19.29 72.08 19.43 M 57.36 33.41 C 52.04 35.69 46.19 36.14 40.47 36.22 C 40.22 34.02 39.97 31.81 39.70 29.61 C 37.22 31.88 33.74 34.16 33.77 37.91 C 34.19 41.27 38.01 42.55 40.96 42.42 C 49.90 42.27 57.40 36.83 65.09 32.94 C 56.82 40.52 47.96 47.42 39.57 54.86 C 40.97 56.47 42.36 58.10 43.71 59.74 C 57.66 45.34 71.39 30.73 85.28 16.28 C 76.38 22.60 67.46 29.11 57.36 33.41 M 64.06 44.05 C 60.20 49.46 56.41 55.18 54.74 61.69 C 54.14 64.46 53.85 68.04 56.37 69.99 C 59.87 71.30 62.36 67.69 64.69 65.71 C 62.93 65.31 61.17 64.92 59.41 64.53 C 59.93 60.33 60.52 56.07 62.19 52.15 C 65.91 43.41 72.46 36.38 77.74 28.61 C 72.53 33.14 68.23 38.59 64.06 44.05 M 19.31 57.43 C 22.87 58.45 26.66 59.09 29.79 61.19 C 34.97 64.66 38.96 70.42 39.12 76.80 C 37.09 78.80 33.96 77.35 31.43 77.56 C 34.00 78.74 36.62 79.78 39.25 80.79 C 36.17 83.05 32.90 85.56 28.92 85.81 C 25.26 86.18 22.08 84.01 19.10 82.21 C 23.03 78.18 27.86 75.10 31.53 70.82 C 31.83 68.34 29.59 66.15 27.19 66.07 C 23.67 68.54 21.25 72.21 17.98 74.97 C 16.00 76.83 13.57 78.18 11.71 80.18 C 11.53 81.70 11.56 83.24 11.53 84.77 C 18.75 85.98 26.02 89.56 33.42 87.38 C 38.88 85.70 44.56 83.49 48.30 78.96 C 46.69 77.91 45.08 76.87 43.48 75.80 C 44.39 72.13 45.44 68.23 44.27 64.49 C 42.06 57.41 34.66 51.82 27.10 52.96 C 24.01 53.36 21.64 55.55 19.31 57.43 Z" />
<path fill="#ffffff" opacity="1.00" d=" M 57.36 33.41 C 67.46 29.11 76.38 22.60 85.28 16.28 C 71.39 30.73 57.66 45.34 43.71 59.74 C 42.36 58.10 40.97 56.47 39.57 54.86 C 47.96 47.42 56.82 40.52 65.09 32.94 C 57.40 36.83 49.90 42.27 40.96 42.42 C 38.01 42.55 34.19 41.27 33.77 37.91 C 33.74 34.16 37.22 31.88 39.70 29.61 C 39.97 31.81 40.22 34.02 40.47 36.22 C 46.19 36.14 52.04 35.69 57.36 33.41 Z" />
<path fill="#ffffff" opacity="1.00" d=" M 64.06 44.05 C 68.23 38.59 72.53 33.14 77.74 28.61 C 72.46 36.38 65.91 43.41 62.19 52.15 C 60.52 56.07 59.93 60.33 59.41 64.53 C 61.17 64.92 62.93 65.31 64.69 65.71 C 62.36 67.69 59.87 71.30 56.37 69.99 C 53.85 68.04 54.14 64.46 54.74 61.69 C 56.41 55.18 60.20 49.46 64.06 44.05 Z" />
<path fill="#ffffff" opacity="1.00" d=" M 19.31 57.43 C 21.64 55.55 24.01 53.36 27.10 52.96 C 34.66 51.82 42.06 57.41 44.27 64.49 C 45.44 68.23 44.39 72.13 43.48 75.80 C 45.08 76.87 46.69 77.91 48.30 78.96 C 44.56 83.49 38.88 85.70 33.42 87.38 C 26.02 89.56 18.75 85.98 11.53 84.77 C 11.56 83.24 11.53 81.70 11.71 80.18 C 13.57 78.18 16.00 76.83 17.98 74.97 C 21.25 72.21 23.67 68.54 27.19 66.07 C 29.59 66.15 31.83 68.34 31.53 70.82 C 27.86 75.10 23.03 78.18 19.10 82.21 C 22.08 84.01 25.26 86.18 28.92 85.81 C 32.90 85.56 36.17 83.05 39.25 80.79 C 36.62 79.78 34.00 78.74 31.43 77.56 C 33.96 77.35 37.09 78.80 39.12 76.80 C 38.96 70.42 34.97 64.66 29.79 61.19 C 26.66 59.09 22.87 58.45 19.31 57.43 Z" />
</svg>
