<?xml version="1.0" encoding="UTF-8" ?>
<!DOCTYPE svg PUBLIC "-//W3C//DTD SVG 1.1//EN" "http://www.w3.org/Graphics/SVG/1.1/DTD/svg11.dtd">
<svg width="100pt" height="100pt" viewBox="0 0 100 100" version="1.1" xmlns="http://www.w3.org/2000/svg">
<path fill="#b9bbb9" opacity="1.00" d=" M 37.31 15.88 C 42.20 15.57 47.05 14.48 51.97 14.69 C 55.80 14.99 59.61 15.60 63.43 16.05 C 64.08 17.42 64.74 18.79 65.51 20.10 C 74.35 21.03 83.28 20.24 92.15 20.52 C 78.25 40.23 64.48 60.04 50.59 79.76 C 36.17 60.08 22.19 40.09 7.95 20.28 C 17.47 20.26 26.98 20.33 36.50 20.24 C 36.77 18.78 37.04 17.33 37.31 15.88 M 38.88 17.47 C 38.43 19.31 37.98 21.15 37.52 22.99 C 29.65 23.78 21.75 23.26 13.86 23.37 C 20.53 33.50 27.96 43.12 34.93 53.05 C 40.21 60.13 44.90 67.67 50.67 74.39 C 57.94 64.66 64.44 54.40 71.53 44.55 C 76.41 37.51 81.50 30.61 86.08 23.36 C 78.60 23.31 71.10 23.70 63.63 23.03 C 63.17 21.18 62.73 19.34 62.28 17.49 C 54.52 16.27 46.64 16.18 38.88 17.47 Z" />
<path fill="#941271" opacity="1.00" d=" M 38.88 17.47 C 46.64 16.18 54.52 16.27 62.28 17.49 C 62.73 19.34 63.17 21.18 63.63 23.03 C 71.10 23.70 78.60 23.31 86.08 23.36 C 81.50 30.61 76.41 37.51 71.53 44.55 C 64.44 54.40 57.94 64.66 50.67 74.39 C 44.90 67.67 40.21 60.13 34.93 53.05 C 27.96 43.12 20.53 33.50 13.86 23.37 C 21.75 23.26 29.65 23.78 37.52 22.99 C 37.98 21.15 38.43 19.31 38.88 17.47 M 41.35 19.13 C 40.47 21.01 39.62 22.90 38.71 24.77 C 36.01 25.23 33.32 25.74 30.62 26.15 C 30.64 30.99 30.82 35.94 32.49 40.54 C 35.07 48.11 40.60 54.51 47.45 58.57 C 48.68 59.20 50.08 60.24 51.50 59.45 C 63.98 53.84 71.59 39.95 70.50 26.41 C 67.65 25.62 63.76 26.14 62.04 23.23 C 60.63 21.86 60.20 19.17 57.87 19.08 C 52.40 18.10 46.84 18.68 41.35 19.13 Z" />
<path fill="#ffffff" opacity="1.00" d=" M 41.35 19.13 C 46.84 18.68 52.40 18.10 57.87 19.08 C 60.20 19.17 60.63 21.86 62.04 23.23 C 63.76 26.14 67.65 25.62 70.50 26.41 C 71.59 39.95 63.98 53.84 51.50 59.45 C 50.08 60.24 48.68 59.20 47.45 58.57 C 40.60 54.51 35.07 48.11 32.49 40.54 C 30.82 35.94 30.64 30.99 30.62 26.15 C 33.32 25.74 36.01 25.23 38.71 24.77 C 39.62 22.90 40.47 21.01 41.35 19.13 M 40.04 26.04 C 38.03 27.66 35.35 27.91 32.97 28.68 C 33.25 33.31 33.76 38.04 35.79 42.28 C 38.62 48.92 44.24 53.76 50.21 57.55 C 54.61 55.03 58.89 52.06 61.91 47.91 C 66.19 42.51 67.99 35.63 68.09 28.82 C 66.29 28.31 64.45 27.88 62.72 27.15 C 60.06 26.03 58.94 22.98 56.49 21.61 C 52.58 20.79 48.41 20.74 44.51 21.60 C 42.83 22.87 41.61 24.65 40.04 26.04 Z" />
<path fill="#810057" opacity="1.00" d=" M 40.04 26.04 C 41.61 24.65 42.83 22.87 44.51 21.60 C 48.41 20.74 52.58 20.79 56.49 21.61 C 58.94 22.98 60.06 26.03 62.72 27.15 C 64.45 27.88 66.29 28.31 68.09 28.82 C 67.99 35.63 66.19 42.51 61.91 47.91 C 58.89 52.06 54.61 55.03 50.21 57.55 C 44.24 53.76 38.62 48.92 35.79 42.28 C 33.76 38.04 33.25 33.31 32.97 28.68 C 35.35 27.91 38.03 27.66 40.04 26.04 M 43.79 25.84 C 41.33 28.26 38.27 29.86 35.16 31.27 C 36.03 36.05 37.11 40.95 39.91 45.03 C 42.47 49.16 46.43 52.09 50.28 54.93 C 54.39 52.27 58.46 49.28 61.12 45.07 C 63.93 41.04 65.06 36.18 65.96 31.43 C 61.80 29.83 58.50 26.89 55.16 24.07 C 51.51 22.64 46.57 22.66 43.79 25.84 Z" />
<path fill="#ffffff" opacity="1.00" d=" M 43.79 25.84 C 46.57 22.66 51.51 22.64 55.16 24.07 C 58.50 26.89 61.80 29.83 65.96 31.43 C 65.06 36.18 63.93 41.04 61.12 45.07 C 58.46 49.28 54.39 52.27 50.28 54.93 C 46.43 52.09 42.47 49.16 39.91 45.03 C 37.11 40.95 36.03 36.05 35.16 31.27 C 38.27 29.86 41.33 28.26 43.79 25.84 Z" />
</svg>
