<?xml version="1.0" encoding="UTF-8" ?>
<!DOCTYPE svg PUBLIC "-//W3C//DTD SVG 1.1//EN" "http://www.w3.org/Graphics/SVG/1.1/DTD/svg11.dtd">
<svg width="100pt" height="100pt" viewBox="0 0 100 100" version="1.1" xmlns="http://www.w3.org/2000/svg">
<path fill="#b7b9ba" opacity="1.00" d=" M 60.62 19.69 C 64.10 16.54 68.41 14.63 72.81 13.14 C 73.13 15.84 73.43 18.54 73.70 21.25 C 77.66 21.26 81.61 21.26 85.57 21.29 C 85.50 27.21 85.38 33.13 85.51 39.04 C 85.54 43.78 87.67 48.23 87.63 52.98 C 87.75 57.75 85.61 62.20 85.52 66.95 C 85.37 73.08 85.51 79.22 85.55 85.35 C 64.02 85.41 42.50 85.38 20.97 85.37 C 20.97 72.79 21.17 60.21 21.00 47.63 C 17.83 49.33 14.69 51.08 11.47 52.69 C 12.43 47.98 13.34 43.12 15.88 38.95 C 17.39 36.16 19.64 33.76 20.75 30.77 C 21.28 27.62 21.06 24.41 21.10 21.23 C 25.06 21.28 29.03 21.32 33.00 21.31 C 40.02 21.42 46.96 19.42 53.99 20.40 C 56.18 20.38 58.83 21.44 60.62 19.69 M 60.55 24.56 C 48.61 22.07 36.65 25.53 24.64 24.93 C 24.31 28.21 24.30 31.70 22.57 34.62 C 20.35 38.42 17.90 42.09 15.98 46.05 C 18.74 44.78 21.47 43.43 24.20 42.07 C 24.43 55.28 24.27 68.50 24.27 81.71 C 43.42 81.61 62.58 81.63 81.73 81.70 C 81.57 75.89 81.25 70.02 82.30 64.27 C 82.94 60.53 84.05 56.83 84.03 53.00 C 83.99 49.20 82.88 45.54 82.26 41.82 C 81.26 36.28 81.57 30.62 81.74 25.03 C 78.19 24.90 74.64 24.79 71.09 24.67 C 70.62 22.32 70.13 19.97 69.63 17.62 C 66.39 19.64 63.31 21.92 60.55 24.56 Z" />
<path fill="#d96035" opacity="1.00" d=" M 60.55 24.56 C 63.31 21.92 66.39 19.64 69.63 17.62 C 70.13 19.97 70.62 22.32 71.09 24.67 C 74.64 24.79 78.19 24.90 81.74 25.03 C 81.57 30.62 81.26 36.28 82.26 41.82 C 82.88 45.54 83.99 49.20 84.03 53.00 C 84.05 56.83 82.94 60.53 82.30 64.27 C 81.25 70.02 81.57 75.89 81.73 81.70 C 62.58 81.63 43.42 81.61 24.27 81.71 C 24.27 68.50 24.43 55.28 24.20 42.07 C 21.47 43.43 18.74 44.78 15.98 46.05 C 17.90 42.09 20.35 38.42 22.57 34.62 C 24.30 31.70 24.31 28.21 24.64 24.93 C 36.65 25.53 48.61 22.07 60.55 24.56 M 61.48 28.58 C 56.08 27.40 50.54 26.44 45.01 27.12 C 35.47 28.16 26.59 33.20 20.57 40.63 C 25.45 37.28 30.25 33.45 36.16 32.11 C 43.90 29.99 52.09 31.27 59.45 34.18 C 57.01 38.19 54.47 42.14 51.54 45.81 C 52.21 45.84 53.57 45.91 54.24 45.94 C 53.18 48.56 52.09 51.17 51.05 53.79 C 51.73 53.82 53.08 53.87 53.76 53.89 C 54.87 51.44 56.01 49.01 57.14 46.56 C 57.78 46.93 58.42 47.29 59.06 47.66 C 60.84 42.70 62.56 37.69 65.06 33.02 C 67.02 29.47 67.87 25.47 68.29 21.46 C 65.86 23.68 63.62 26.09 61.48 28.58 M 65.81 39.68 C 68.87 42.54 72.24 45.54 73.30 49.77 C 75.21 56.82 71.89 64.08 67.50 69.48 C 64.34 72.50 59.97 73.90 55.82 74.97 C 47.95 76.91 38.75 73.37 34.99 66.02 C 33.26 61.99 32.38 57.66 31.33 53.42 C 30.68 57.81 30.46 62.49 32.43 66.61 C 36.06 75.32 45.71 80.60 55.00 79.87 C 69.15 79.42 81.69 66.30 80.76 52.02 C 80.75 43.97 75.83 37.02 69.74 32.21 C 68.47 34.72 67.15 37.20 65.81 39.68 M 36.11 43.33 C 37.78 41.89 39.41 40.39 40.99 38.84 C 39.27 40.23 37.64 41.73 36.11 43.33 M 26.74 44.02 C 29.44 48.02 32.97 51.48 37.30 53.70 C 43.85 57.11 49.58 61.85 54.93 66.90 C 54.69 65.47 54.45 64.03 54.22 62.60 C 57.49 64.46 60.69 66.45 63.83 68.53 C 64.41 68.01 65.58 66.96 66.17 66.44 C 63.18 64.49 60.17 62.57 57.18 60.64 C 58.00 59.95 58.83 59.27 59.66 58.60 C 53.06 56.12 46.50 53.35 40.67 49.33 C 36.54 46.43 31.68 44.83 26.74 44.02 Z" />
<path fill="#ffffff" opacity="1.00" d=" M 61.48 28.58 C 63.62 26.09 65.86 23.68 68.29 21.46 C 67.87 25.47 67.02 29.47 65.06 33.02 C 62.56 37.69 60.84 42.70 59.06 47.66 C 58.42 47.29 57.78 46.93 57.14 46.56 C 56.01 49.01 54.87 51.44 53.76 53.89 C 53.08 53.87 51.73 53.82 51.05 53.79 C 52.09 51.17 53.18 48.56 54.24 45.94 C 53.57 45.91 52.21 45.84 51.54 45.81 C 54.47 42.14 57.01 38.19 59.45 34.18 C 52.09 31.27 43.90 29.99 36.16 32.11 C 30.25 33.45 25.45 37.28 20.57 40.63 C 26.59 33.20 35.47 28.16 45.01 27.12 C 50.54 26.44 56.08 27.40 61.48 28.58 Z" />
<path fill="#ffffff" opacity="1.00" d=" M 65.81 39.68 C 67.15 37.20 68.47 34.72 69.74 32.21 C 75.83 37.02 80.75 43.97 80.76 52.02 C 81.69 66.30 69.15 79.42 55.00 79.87 C 45.71 80.60 36.06 75.32 32.43 66.61 C 30.46 62.49 30.68 57.81 31.33 53.42 C 32.38 57.66 33.26 61.99 34.99 66.02 C 38.75 73.37 47.95 76.91 55.82 74.97 C 59.97 73.90 64.34 72.50 67.50 69.48 C 71.89 64.08 75.21 56.82 73.30 49.77 C 72.24 45.54 68.87 42.54 65.81 39.68 Z" />
<path fill="#ffffff" opacity="1.00" d=" M 36.11 43.33 C 37.64 41.73 39.27 40.23 40.99 38.84 C 39.41 40.39 37.78 41.89 36.11 43.33 Z" />
<path fill="#ffffff" opacity="1.00" d=" M 26.74 44.02 C 31.68 44.83 36.54 46.43 40.67 49.33 C 46.50 53.35 53.06 56.12 59.66 58.60 C 58.83 59.27 58.00 59.95 57.18 60.64 C 60.17 62.57 63.18 64.49 66.17 66.44 C 65.58 66.96 64.41 68.01 63.83 68.53 C 60.69 66.45 57.49 64.46 54.22 62.60 C 54.45 64.03 54.69 65.47 54.93 66.90 C 49.58 61.85 43.85 57.11 37.30 53.70 C 32.97 51.48 29.44 48.02 26.74 44.02 Z" />
</svg>
