<?xml version="1.0" encoding="UTF-8" ?>
<!DOCTYPE svg PUBLIC "-//W3C//DTD SVG 1.1//EN" "http://www.w3.org/Graphics/SVG/1.1/DTD/svg11.dtd">
<svg width="100pt" height="100pt" viewBox="0 0 100 100" version="1.1" xmlns="http://www.w3.org/2000/svg">
<path fill="#b7b9ba" opacity="1.00" d=" M 62.37 18.33 C 65.38 15.78 69.18 14.51 72.81 13.13 C 73.13 15.84 73.43 18.54 73.70 21.25 C 77.66 21.25 81.61 21.25 85.57 21.30 C 85.49 27.21 85.38 33.13 85.51 39.04 C 85.54 43.78 87.66 48.23 87.62 52.98 C 87.75 57.75 85.61 62.21 85.52 66.96 C 85.37 73.09 85.50 79.22 85.55 85.35 C 64.03 85.41 42.50 85.38 20.97 85.38 C 20.96 72.80 21.17 60.22 21.01 47.64 C 17.83 49.33 14.69 51.08 11.47 52.68 C 12.44 47.97 13.33 43.11 15.88 38.95 C 17.39 36.16 19.63 33.77 20.75 30.77 C 21.29 27.62 21.06 24.41 21.09 21.23 C 28.64 21.27 36.22 21.66 43.71 20.48 C 48.51 19.77 53.33 20.43 58.14 20.67 C 59.91 20.83 61.03 19.19 62.37 18.33 M 60.56 24.56 C 48.62 22.06 36.65 25.53 24.64 24.93 C 25.26 33.15 19.20 39.12 15.98 46.05 C 18.75 44.79 21.48 43.44 24.20 42.07 C 24.43 55.29 24.26 68.50 24.27 81.71 C 43.42 81.62 62.58 81.63 81.73 81.70 C 81.43 74.51 81.31 67.22 83.11 60.19 C 84.32 55.50 84.27 50.58 83.06 45.89 C 81.32 39.08 81.42 32.00 81.74 25.03 C 78.19 24.91 74.65 24.80 71.11 24.66 C 70.62 22.32 70.14 19.98 69.63 17.64 C 66.38 19.63 63.30 21.90 60.56 24.56 Z" />
<path fill="#d96035" opacity="1.00" d=" M 60.56 24.56 C 63.30 21.90 66.38 19.63 69.63 17.64 C 70.14 19.98 70.62 22.32 71.11 24.66 C 74.65 24.80 78.19 24.91 81.74 25.03 C 81.42 32.00 81.32 39.08 83.06 45.89 C 84.27 50.58 84.32 55.50 83.11 60.19 C 81.31 67.22 81.43 74.51 81.73 81.70 C 62.58 81.63 43.42 81.62 24.27 81.71 C 24.26 68.50 24.43 55.29 24.20 42.07 C 21.48 43.44 18.75 44.79 15.98 46.05 C 19.20 39.12 25.26 33.15 24.64 24.93 C 36.65 25.53 48.62 22.06 60.56 24.56 M 61.47 28.58 C 53.96 26.79 45.93 26.02 38.47 28.50 C 31.41 30.57 25.23 34.99 20.57 40.63 C 25.25 37.45 29.79 33.77 35.38 32.32 C 43.33 29.93 51.85 31.15 59.45 34.18 C 57.01 38.16 54.50 42.12 51.57 45.77 C 52.23 45.83 53.54 45.95 54.20 46.00 C 53.16 48.61 52.09 51.20 51.07 53.81 C 51.74 53.83 53.07 53.86 53.74 53.88 C 54.86 51.46 56.00 49.06 57.13 46.65 C 57.78 46.96 58.43 47.27 59.07 47.58 C 60.84 42.64 62.60 37.67 65.06 33.02 C 67.01 29.47 67.88 25.48 68.28 21.48 C 65.85 23.68 63.62 26.09 61.47 28.58 M 65.79 39.67 C 68.88 42.51 72.22 45.53 73.30 49.76 C 75.21 56.81 71.90 64.08 67.50 69.48 C 64.34 72.50 59.97 73.90 55.82 74.97 C 48.17 76.86 39.33 73.58 35.32 66.67 C 33.22 62.51 32.58 57.84 31.31 53.40 C 30.79 57.56 30.41 61.96 32.14 65.91 C 35.55 75.01 45.46 80.64 55.00 79.87 C 69.15 79.42 81.69 66.29 80.76 52.01 C 80.75 43.96 75.81 37.01 69.72 32.18 C 68.50 34.73 67.20 37.23 65.79 39.67 M 36.09 43.33 C 37.81 41.92 39.44 40.41 40.99 38.82 C 39.28 40.23 37.64 41.74 36.09 43.33 M 26.74 44.02 C 29.45 48.02 32.96 51.50 37.31 53.70 C 43.85 57.10 49.55 61.85 54.91 66.87 C 54.68 65.45 54.45 64.04 54.23 62.62 C 57.50 64.46 60.69 66.45 63.83 68.51 C 64.41 68.00 65.59 66.97 66.17 66.46 C 63.20 64.50 60.20 62.59 57.21 60.65 C 58.01 59.96 58.81 59.27 59.61 58.59 C 53.03 56.10 46.49 53.35 40.67 49.33 C 36.54 46.42 31.68 44.83 26.74 44.02 Z" />
<path fill="#ffffff" opacity="1.00" d=" M 61.47 28.58 C 63.62 26.09 65.85 23.68 68.28 21.48 C 67.88 25.48 67.01 29.47 65.06 33.02 C 62.60 37.67 60.84 42.64 59.07 47.58 C 58.43 47.27 57.78 46.96 57.13 46.65 C 56.00 49.06 54.86 51.46 53.74 53.88 C 53.07 53.86 51.74 53.83 51.07 53.81 C 52.09 51.20 53.16 48.61 54.20 46.00 C 53.54 45.95 52.23 45.83 51.57 45.77 C 54.50 42.12 57.01 38.16 59.45 34.18 C 51.85 31.15 43.33 29.93 35.38 32.32 C 29.79 33.77 25.25 37.45 20.57 40.63 C 25.23 34.99 31.41 30.57 38.47 28.50 C 45.93 26.02 53.96 26.79 61.47 28.58 Z" />
<path fill="#ffffff" opacity="1.00" d=" M 65.79 39.67 C 67.20 37.23 68.50 34.73 69.72 32.18 C 75.81 37.01 80.75 43.96 80.76 52.01 C 81.69 66.29 69.15 79.42 55.00 79.87 C 45.46 80.64 35.55 75.01 32.14 65.91 C 30.41 61.96 30.79 57.56 31.31 53.40 C 32.58 57.84 33.22 62.51 35.32 66.67 C 39.33 73.58 48.17 76.86 55.82 74.97 C 59.97 73.90 64.34 72.50 67.50 69.48 C 71.90 64.08 75.21 56.81 73.30 49.76 C 72.22 45.53 68.88 42.51 65.79 39.67 Z" />
<path fill="#ffffff" opacity="1.00" d=" M 36.09 43.33 C 37.64 41.74 39.28 40.23 40.99 38.82 C 39.44 40.41 37.81 41.92 36.09 43.33 Z" />
<path fill="#ffffff" opacity="1.00" d=" M 26.74 44.02 C 31.68 44.83 36.54 46.42 40.67 49.33 C 46.49 53.35 53.03 56.10 59.61 58.59 C 58.81 59.27 58.01 59.96 57.21 60.65 C 60.20 62.59 63.20 64.50 66.17 66.46 C 65.59 66.97 64.41 68.00 63.83 68.51 C 60.69 66.45 57.50 64.46 54.23 62.62 C 54.45 64.04 54.68 65.45 54.91 66.87 C 49.55 61.85 43.85 57.10 37.31 53.70 C 32.96 51.50 29.45 48.02 26.74 44.02 Z" />
</svg>
