<?xml version="1.0" encoding="UTF-8" ?>
<!DOCTYPE svg PUBLIC "-//W3C//DTD SVG 1.1//EN" "http://www.w3.org/Graphics/SVG/1.1/DTD/svg11.dtd">
<svg width="100pt" height="100pt" viewBox="0 0 100 100" version="1.1" xmlns="http://www.w3.org/2000/svg">
<path fill="#b7b9ba" opacity="1.00" d=" M 62.38 18.33 C 65.31 15.68 69.12 14.43 72.83 13.34 C 73.13 15.91 73.40 18.47 73.65 21.04 C 77.62 21.28 81.60 21.32 85.57 21.33 C 85.55 27.23 85.41 33.12 85.51 39.02 C 85.52 43.78 87.72 48.21 87.66 52.98 C 87.82 57.76 85.62 62.21 85.53 66.96 C 85.39 73.03 85.56 79.09 85.57 85.15 C 64.07 85.61 42.54 85.36 21.03 85.29 C 20.86 72.77 21.25 60.26 20.97 47.74 C 17.85 49.34 14.77 51.01 11.60 52.50 C 12.46 47.59 13.51 42.56 16.26 38.30 C 17.68 35.76 19.77 33.57 20.75 30.80 C 21.25 27.65 21.06 24.44 21.13 21.26 C 28.67 21.19 36.26 21.73 43.74 20.49 C 48.53 19.76 53.35 20.41 58.14 20.69 C 59.94 20.92 61.05 19.22 62.38 18.33 M 60.64 24.58 C 55.13 23.94 49.55 23.00 44.02 23.91 C 37.57 24.91 31.03 24.72 24.54 25.00 C 24.24 28.25 24.53 31.82 22.63 34.66 C 20.23 38.32 17.78 41.98 16.08 46.03 C 18.79 44.77 21.47 43.44 24.15 42.11 C 24.58 55.30 24.15 68.49 24.31 81.68 C 43.44 81.65 62.57 81.67 81.69 81.67 C 81.70 77.10 81.45 72.53 81.74 67.97 C 82.04 62.90 84.14 58.10 84.11 52.99 C 84.07 47.90 81.93 43.11 81.70 38.03 C 81.48 33.72 81.70 29.40 81.71 25.09 C 78.19 24.91 74.68 24.75 71.17 24.62 C 70.66 22.36 70.19 20.09 69.65 17.84 C 66.20 19.44 63.22 21.82 60.64 24.58 Z" />
<path fill="#d96035" opacity="1.00" d=" M 60.64 24.58 C 63.22 21.82 66.20 19.44 69.65 17.84 C 70.19 20.09 70.66 22.36 71.17 24.62 C 74.68 24.75 78.19 24.91 81.71 25.09 C 81.70 29.40 81.48 33.72 81.70 38.03 C 81.93 43.11 84.07 47.90 84.11 52.99 C 84.14 58.10 82.04 62.90 81.74 67.97 C 81.45 72.53 81.70 77.10 81.69 81.67 C 62.57 81.67 43.44 81.65 24.31 81.68 C 24.15 68.49 24.58 55.30 24.15 42.11 C 21.47 43.44 18.79 44.77 16.08 46.03 C 17.78 41.98 20.23 38.32 22.63 34.66 C 24.53 31.82 24.24 28.25 24.54 25.00 C 31.03 24.72 37.57 24.91 44.02 23.91 C 49.55 23.00 55.13 23.94 60.64 24.58 M 61.52 28.53 C 56.71 27.68 51.86 26.60 46.94 26.94 C 36.80 27.59 26.88 32.54 20.69 40.67 C 24.66 37.90 28.45 34.69 33.09 33.08 C 41.53 29.91 51.06 30.64 59.26 34.21 C 57.13 38.27 54.51 42.07 51.57 45.59 C 52.19 45.74 53.41 46.04 54.03 46.19 C 53.07 48.76 52.05 51.31 51.12 53.90 C 51.76 53.86 53.03 53.79 53.66 53.76 C 54.84 51.53 55.89 49.23 57.10 47.02 C 57.78 47.08 58.46 47.15 59.14 47.22 C 61.16 42.24 62.75 37.07 65.37 32.35 C 67.25 29.08 67.98 25.33 68.21 21.60 C 65.73 23.66 63.55 26.03 61.52 28.53 M 65.89 39.73 C 69.11 42.74 72.65 45.99 73.48 50.55 C 75.01 57.42 71.66 64.22 67.52 69.50 C 64.59 72.34 60.51 73.59 56.70 74.76 C 48.36 77.25 38.39 73.38 34.61 65.38 C 32.99 61.59 32.91 57.35 31.30 53.55 C 30.46 57.90 30.56 62.51 32.43 66.60 C 35.93 74.98 45.03 80.26 54.01 79.89 C 68.18 80.00 81.16 67.27 80.78 53.00 C 81.02 44.73 76.30 37.10 69.74 32.36 C 68.32 34.74 67.04 37.21 65.89 39.73 M 36.07 43.29 C 37.88 42.01 39.52 40.51 40.95 38.82 C 39.17 40.14 37.54 41.63 36.07 43.29 M 26.89 44.06 C 29.48 48.44 33.43 51.81 37.97 54.05 C 44.21 57.38 49.72 61.94 54.76 66.87 C 54.59 65.48 54.46 64.08 54.35 62.68 C 57.59 64.59 60.80 66.54 64.02 68.49 C 64.67 67.70 65.31 66.91 65.96 66.11 C 63.11 64.29 60.22 62.54 57.31 60.82 C 58.03 60.03 58.77 59.25 59.50 58.47 C 52.99 55.95 46.40 53.40 40.67 49.33 C 36.61 46.42 31.81 44.77 26.89 44.06 Z" />
<path fill="#ffffff" opacity="1.00" d=" M 61.52 28.53 C 63.55 26.03 65.73 23.66 68.21 21.60 C 67.98 25.33 67.25 29.08 65.37 32.35 C 62.75 37.07 61.16 42.24 59.14 47.22 C 58.46 47.15 57.78 47.08 57.10 47.02 C 55.89 49.23 54.84 51.53 53.66 53.76 C 53.03 53.79 51.76 53.86 51.12 53.90 C 52.05 51.31 53.07 48.76 54.03 46.19 C 53.41 46.04 52.19 45.74 51.57 45.59 C 54.51 42.07 57.13 38.27 59.26 34.21 C 51.06 30.64 41.53 29.91 33.09 33.08 C 28.45 34.69 24.66 37.90 20.69 40.67 C 26.88 32.54 36.80 27.59 46.94 26.94 C 51.86 26.60 56.71 27.68 61.52 28.53 Z" />
<path fill="#ffffff" opacity="1.00" d=" M 65.89 39.73 C 67.04 37.21 68.32 34.74 69.74 32.36 C 76.30 37.10 81.02 44.73 80.78 53.00 C 81.16 67.27 68.18 80.00 54.01 79.89 C 45.03 80.26 35.93 74.98 32.43 66.60 C 30.56 62.51 30.46 57.90 31.30 53.55 C 32.91 57.35 32.99 61.59 34.61 65.38 C 38.39 73.38 48.36 77.25 56.70 74.76 C 60.51 73.59 64.59 72.34 67.52 69.50 C 71.66 64.22 75.01 57.42 73.48 50.55 C 72.65 45.99 69.11 42.74 65.89 39.73 Z" />
<path fill="#ffffff" opacity="1.00" d=" M 36.07 43.29 C 37.54 41.63 39.17 40.14 40.95 38.82 C 39.52 40.51 37.88 42.01 36.07 43.29 Z" />
<path fill="#ffffff" opacity="1.00" d=" M 26.89 44.06 C 31.81 44.77 36.61 46.42 40.67 49.33 C 46.40 53.40 52.99 55.95 59.50 58.47 C 58.77 59.25 58.03 60.03 57.31 60.82 C 60.22 62.54 63.11 64.29 65.96 66.11 C 65.31 66.91 64.67 67.70 64.02 68.49 C 60.80 66.54 57.59 64.59 54.35 62.68 C 54.46 64.08 54.59 65.48 54.76 66.87 C 49.72 61.94 44.21 57.38 37.97 54.05 C 33.43 51.81 29.48 48.44 26.89 44.06 Z" />
</svg>
