<?xml version="1.0" encoding="UTF-8" ?>
<!DOCTYPE svg PUBLIC "-//W3C//DTD SVG 1.1//EN" "http://www.w3.org/Graphics/SVG/1.1/DTD/svg11.dtd">
<svg width="100pt" height="100pt" viewBox="0 0 100 100" version="1.1" xmlns="http://www.w3.org/2000/svg">
<path fill="#b7b9ba" opacity="1.00" d=" M 60.63 19.70 C 64.09 16.54 68.38 14.59 72.80 13.18 C 73.13 15.85 73.43 18.52 73.71 21.19 C 77.66 21.27 81.61 21.27 85.57 21.31 C 85.51 27.22 85.39 33.13 85.51 39.04 C 85.53 43.78 87.68 48.22 87.63 52.98 C 87.77 57.75 85.61 62.21 85.52 66.96 C 85.38 73.07 85.52 79.19 85.55 85.30 C 64.03 85.47 42.51 85.37 20.99 85.35 C 20.93 72.79 21.19 60.22 21.00 47.66 C 17.84 49.34 14.71 51.07 11.50 52.65 C 12.44 47.95 13.35 43.10 15.88 38.95 C 17.38 36.16 19.64 33.77 20.75 30.78 C 21.27 27.63 21.06 24.41 21.11 21.24 C 25.07 21.28 29.03 21.32 33.00 21.31 C 40.02 21.44 46.96 19.42 53.99 20.40 C 56.18 20.37 58.85 21.46 60.63 19.70 M 59.90 24.20 C 55.17 24.42 50.46 23.08 45.72 23.74 C 38.73 24.63 31.70 24.94 24.66 24.98 C 24.29 28.24 24.28 31.71 22.56 34.62 C 20.35 38.41 17.89 42.06 15.99 46.03 C 18.75 44.78 21.47 43.45 24.19 42.11 C 24.49 55.30 24.20 68.49 24.29 81.68 C 43.43 81.64 62.56 81.66 81.70 81.67 C 81.62 76.79 81.38 71.88 81.89 67.01 C 82.33 62.63 83.81 58.41 84.01 54.00 C 84.19 50.16 83.11 46.43 82.40 42.69 C 81.25 36.90 81.60 30.96 81.71 25.09 C 78.20 24.92 74.70 24.77 71.19 24.62 C 70.65 22.31 70.12 20.00 69.56 17.69 C 66.19 19.63 63.47 22.63 59.90 24.20 Z" />
<path fill="#d96035" opacity="1.00" d=" M 59.90 24.20 C 63.47 22.63 66.19 19.63 69.56 17.69 C 70.12 20.00 70.65 22.31 71.19 24.62 C 74.70 24.77 78.20 24.92 81.71 25.09 C 81.60 30.96 81.25 36.90 82.40 42.69 C 83.11 46.43 84.19 50.16 84.01 54.00 C 83.81 58.41 82.33 62.63 81.89 67.01 C 81.38 71.88 81.62 76.79 81.70 81.67 C 62.56 81.66 43.43 81.64 24.29 81.68 C 24.20 68.49 24.49 55.30 24.19 42.11 C 21.47 43.45 18.75 44.78 15.99 46.03 C 17.89 42.06 20.35 38.41 22.56 34.62 C 24.28 31.71 24.29 28.24 24.66 24.98 C 31.70 24.94 38.73 24.63 45.72 23.74 C 50.46 23.08 55.17 24.42 59.90 24.20 M 61.48 28.54 C 56.39 27.50 51.19 26.54 45.96 27.03 C 36.09 27.84 26.76 32.93 20.57 40.65 C 25.24 37.45 29.79 33.77 35.38 32.32 C 43.31 29.96 51.83 31.10 59.39 34.18 C 57.07 38.16 54.54 42.01 51.69 45.62 C 52.29 45.76 53.48 46.04 54.08 46.18 C 53.08 48.75 52.06 51.32 51.12 53.92 C 51.73 53.88 52.96 53.80 53.57 53.77 C 54.89 50.86 56.46 47.85 59.34 46.21 C 61.30 41.84 62.79 37.26 65.06 33.02 C 67.00 29.48 67.92 25.52 68.29 21.52 C 65.84 23.68 63.60 26.06 61.48 28.54 M 65.85 39.68 C 69.10 42.71 72.61 46.00 73.49 50.56 C 74.96 57.41 71.71 64.26 67.51 69.49 C 64.57 72.33 60.51 73.65 56.67 74.78 C 49.04 76.97 40.04 74.06 35.69 67.29 C 33.14 63.07 32.85 58.02 31.25 53.44 C 30.67 57.84 30.49 62.49 32.42 66.60 C 36.06 75.32 45.71 80.60 55.00 79.87 C 69.15 79.42 81.69 66.29 80.76 52.01 C 80.73 43.99 75.88 37.00 69.74 32.24 C 68.43 34.71 67.14 37.20 65.85 39.68 M 36.10 43.31 C 37.84 41.95 39.47 40.44 40.97 38.82 C 39.25 40.21 37.62 41.71 36.10 43.31 M 26.77 44.02 C 29.54 48.30 33.39 51.79 37.96 54.07 C 44.23 57.39 49.70 62.00 54.85 66.85 C 54.66 65.45 54.46 64.06 54.28 62.67 C 57.53 64.49 60.70 66.45 63.84 68.46 C 64.42 67.98 65.59 67.04 66.17 66.57 C 63.30 64.51 60.30 62.63 57.33 60.72 C 58.05 59.99 58.77 59.25 59.49 58.52 C 52.95 56.05 46.44 53.34 40.67 49.33 C 36.55 46.43 31.70 44.82 26.77 44.02 Z" />
<path fill="#ffffff" opacity="1.00" d=" M 61.48 28.54 C 63.60 26.06 65.84 23.68 68.29 21.52 C 67.92 25.52 67.00 29.48 65.06 33.02 C 62.79 37.26 61.30 41.84 59.34 46.21 C 56.46 47.85 54.89 50.86 53.57 53.77 C 52.96 53.80 51.73 53.88 51.12 53.92 C 52.06 51.32 53.08 48.75 54.08 46.18 C 53.48 46.04 52.29 45.76 51.69 45.62 C 54.54 42.01 57.07 38.16 59.39 34.18 C 51.83 31.10 43.31 29.96 35.38 32.32 C 29.79 33.77 25.24 37.45 20.57 40.65 C 26.76 32.93 36.09 27.84 45.96 27.03 C 51.19 26.54 56.39 27.50 61.48 28.54 Z" />
<path fill="#ffffff" opacity="1.00" d=" M 65.85 39.68 C 67.14 37.20 68.43 34.71 69.74 32.24 C 75.88 37.00 80.73 43.99 80.76 52.01 C 81.69 66.29 69.15 79.42 55.00 79.87 C 45.71 80.60 36.06 75.32 32.42 66.60 C 30.49 62.49 30.67 57.84 31.25 53.44 C 32.85 58.02 33.14 63.07 35.69 67.29 C 40.04 74.06 49.04 76.97 56.67 74.78 C 60.51 73.65 64.57 72.33 67.51 69.49 C 71.71 64.26 74.96 57.41 73.49 50.56 C 72.61 46.00 69.10 42.71 65.85 39.68 Z" />
<path fill="#ffffff" opacity="1.00" d=" M 36.10 43.31 C 37.62 41.71 39.25 40.21 40.97 38.82 C 39.47 40.44 37.84 41.95 36.10 43.31 Z" />
<path fill="#ffffff" opacity="1.00" d=" M 26.77 44.02 C 31.70 44.82 36.55 46.43 40.67 49.33 C 46.44 53.34 52.95 56.05 59.49 58.52 C 58.77 59.25 58.05 59.99 57.33 60.72 C 60.30 62.63 63.30 64.51 66.17 66.57 C 65.59 67.04 64.42 67.98 63.84 68.46 C 60.70 66.45 57.53 64.49 54.28 62.67 C 54.46 64.06 54.66 65.45 54.85 66.85 C 49.70 62.00 44.23 57.39 37.96 54.07 C 33.39 51.79 29.54 48.30 26.77 44.02 Z" />
</svg>
