<?xml version="1.0" encoding="UTF-8" ?>
<!DOCTYPE svg PUBLIC "-//W3C//DTD SVG 1.1//EN" "http://www.w3.org/Graphics/SVG/1.1/DTD/svg11.dtd">
<svg width="100pt" height="100pt" viewBox="0 0 100 100" version="1.1" xmlns="http://www.w3.org/2000/svg">
<path fill="#b9beba" opacity="1.00" d=" M 70.62 8.64 C 74.18 7.31 78.01 6.95 81.76 6.47 C 81.81 10.97 83.09 15.82 81.06 20.07 C 80.27 21.79 79.19 23.36 78.27 25.02 C 82.10 36.19 86.22 47.26 89.84 58.50 C 76.48 67.33 63.28 76.41 50.00 85.36 C 45.04 81.99 40.12 78.56 35.05 75.36 C 34.23 78.14 34.38 82.04 31.24 83.36 C 25.08 86.26 17.07 79.67 18.69 73.06 C 19.39 70.22 22.63 69.57 24.87 68.36 C 19.98 65.04 15.12 61.70 10.16 58.51 C 15.05 44.03 19.94 29.52 25.34 15.22 C 29.46 14.18 33.79 14.87 38.00 14.72 C 46.25 14.59 54.53 14.99 62.77 14.59 C 65.87 13.48 67.43 9.80 70.62 8.64 M 70.77 10.79 C 68.06 12.53 66.35 15.43 63.69 17.23 C 60.84 17.84 57.88 17.43 54.98 17.47 C 46.20 17.21 37.40 17.79 28.63 17.09 C 28.91 17.57 29.46 18.54 29.74 19.02 C 24.64 24.25 22.04 31.33 21.31 38.53 C 19.82 41.62 19.05 45.00 18.11 48.29 C 15.48 50.41 15.03 54.05 13.85 57.02 C 18.52 60.68 23.68 63.63 28.39 67.21 C 26.29 69.92 22.92 71.18 20.61 73.59 C 19.49 78.76 26.34 84.41 31.00 81.11 C 32.28 77.91 33.02 74.32 35.72 71.90 C 40.48 75.24 45.21 78.64 50.22 81.62 C 50.83 80.46 51.42 79.29 51.95 78.10 L 51.57 78.94 C 53.04 78.38 54.50 77.78 55.85 76.96 L 55.30 77.59 C 60.67 75.18 65.08 71.19 70.06 68.13 C 73.66 65.89 77.28 63.50 79.79 59.99 C 81.63 59.25 83.47 58.50 85.33 57.77 C 85.63 57.54 86.25 57.09 86.55 56.86 C 82.72 48.48 80.59 39.43 76.56 31.15 L 76.86 30.26 L 76.25 31.01 C 76.34 29.09 75.79 27.21 75.54 25.32 C 76.79 23.32 78.21 21.42 79.20 19.27 C 80.85 16.05 80.05 12.31 79.93 8.85 C 76.85 9.28 73.59 9.33 70.77 10.79 Z" />
<path fill="#941271" opacity="1.00" d=" M 70.77 10.79 C 73.59 9.33 76.85 9.28 79.93 8.85 C 80.05 12.31 80.85 16.05 79.20 19.27 C 78.21 21.42 76.79 23.32 75.54 25.32 C 75.79 27.21 76.34 29.09 76.25 31.01 C 74.39 33.60 72.59 36.24 71.09 39.06 C 64.29 51.86 57.77 64.82 51.95 78.10 C 51.42 79.29 50.83 80.46 50.22 81.62 C 45.21 78.64 40.48 75.24 35.72 71.90 C 33.02 74.32 32.28 77.91 31.00 81.11 C 26.34 84.41 19.49 78.76 20.61 73.59 C 22.92 71.18 26.29 69.92 28.39 67.21 C 23.68 63.63 18.52 60.68 13.85 57.02 C 15.03 54.05 15.48 50.41 18.11 48.29 C 26.87 42.38 35.56 36.36 43.98 29.97 C 48.95 26.23 54.11 22.66 58.35 18.07 C 46.30 25.08 35.88 34.64 23.58 41.29 C 28.20 33.68 33.62 26.51 37.04 18.23 C 35.75 18.24 34.47 18.27 33.19 18.30 C 29.46 25.18 25.59 31.97 21.31 38.53 C 22.04 31.33 24.64 24.25 29.74 19.02 C 29.46 18.54 28.91 17.57 28.63 17.09 C 37.40 17.79 46.20 17.21 54.98 17.47 C 57.88 17.43 60.84 17.84 63.69 17.23 C 66.35 15.43 68.06 12.53 70.77 10.79 M 69.30 15.30 C 58.08 28.63 47.35 42.39 36.01 55.63 C 32.98 53.23 29.95 50.81 26.71 48.67 C 26.41 50.22 26.30 52.14 27.71 53.20 C 30.38 55.55 33.17 57.81 35.12 60.83 C 32.44 64.37 30.47 68.37 27.91 71.99 C 26.69 73.73 24.54 74.23 22.69 74.98 C 23.91 77.81 26.41 79.73 29.55 79.66 C 29.25 78.51 28.93 77.38 28.56 76.25 C 31.23 73.06 34.10 70.05 36.91 66.99 C 38.04 65.94 39.19 64.34 40.97 64.91 C 44.55 65.91 47.15 68.78 50.04 70.95 C 51.05 70.53 52.06 70.10 53.07 69.68 C 50.30 66.99 47.30 64.57 44.34 62.10 C 54.04 47.74 65.24 34.46 75.64 20.61 C 77.65 18.12 77.72 14.84 77.89 11.80 C 74.74 12.05 71.28 12.50 69.30 15.30 Z" />
<path fill="#ffffff" opacity="1.00" d=" M 69.30 15.30 C 71.28 12.50 74.74 12.05 77.89 11.80 C 77.72 14.84 77.65 18.12 75.64 20.61 C 65.24 34.46 54.04 47.74 44.34 62.10 C 47.30 64.57 50.30 66.99 53.07 69.68 C 52.06 70.10 51.05 70.53 50.04 70.95 C 47.15 68.78 44.55 65.91 40.97 64.91 C 39.19 64.34 38.04 65.94 36.91 66.99 C 34.10 70.05 31.23 73.06 28.56 76.25 C 28.93 77.38 29.25 78.51 29.55 79.66 C 26.41 79.73 23.91 77.81 22.69 74.98 C 24.54 74.23 26.69 73.73 27.91 71.99 C 30.47 68.37 32.44 64.37 35.12 60.83 C 33.17 57.81 30.38 55.55 27.71 53.20 C 26.30 52.14 26.41 50.22 26.71 48.67 C 29.95 50.81 32.98 53.23 36.01 55.63 C 47.35 42.39 58.08 28.63 69.30 15.30 Z" />
<path fill="#ffffff" opacity="1.00" d=" M 33.19 18.30 C 34.47 18.27 35.75 18.24 37.04 18.23 C 33.62 26.51 28.20 33.68 23.58 41.29 C 35.88 34.64 46.30 25.08 58.35 18.07 C 54.11 22.66 48.95 26.23 43.98 29.97 C 35.56 36.36 26.87 42.38 18.11 48.29 C 19.05 45.00 19.82 41.62 21.31 38.53 C 25.59 31.97 29.46 25.18 33.19 18.30 Z" />
<path fill="#ffffff" opacity="1.00" d=" M 71.09 39.06 C 72.59 36.24 74.39 33.60 76.25 31.01 L 76.86 30.26 L 76.56 31.15 C 74.73 36.47 71.74 41.27 69.32 46.33 C 65.83 53.57 62.40 60.84 59.27 68.25 C 66.79 61.59 74.09 54.49 83.03 49.72 C 83.29 51.01 83.55 52.30 83.81 53.60 C 73.42 59.98 63.83 67.71 55.85 76.96 C 54.50 77.78 53.04 78.38 51.57 78.94 L 51.95 78.10 C 57.77 64.82 64.29 51.86 71.09 39.06 Z" />
<path fill="#941271" opacity="1.00" d=" M 69.32 46.33 C 71.74 41.27 74.73 36.47 76.56 31.15 C 80.59 39.43 82.72 48.48 86.55 56.86 C 86.25 57.09 85.63 57.54 85.33 57.77 C 85.10 56.93 84.65 55.25 84.42 54.41 C 82.84 56.24 81.30 58.11 79.79 59.99 C 77.28 63.50 73.66 65.89 70.06 68.13 C 65.08 71.19 60.67 75.18 55.30 77.59 L 55.85 76.96 C 63.83 67.71 73.42 59.98 83.81 53.60 C 83.55 52.30 83.29 51.01 83.03 49.72 C 74.09 54.49 66.79 61.59 59.27 68.25 C 62.40 60.84 65.83 53.57 69.32 46.33 Z" />
<path fill="#ffffff" opacity="1.00" d=" M 79.79 59.99 C 81.30 58.11 82.84 56.24 84.42 54.41 C 84.65 55.25 85.10 56.93 85.33 57.77 C 83.47 58.50 81.63 59.25 79.79 59.99 Z" />
</svg>
