<?xml version="1.0" encoding="UTF-8" ?>
<!DOCTYPE svg PUBLIC "-//W3C//DTD SVG 1.1//EN" "http://www.w3.org/Graphics/SVG/1.1/DTD/svg11.dtd">
<svg width="100pt" height="100pt" viewBox="0 0 100 100" version="1.1" xmlns="http://www.w3.org/2000/svg">
<path fill="#b6bbbd" opacity="1.00" d=" M 44.46 14.69 C 46.05 10.70 47.88 6.82 49.90 3.03 C 51.86 6.86 53.66 10.77 55.32 14.74 C 61.81 14.73 68.30 14.66 74.78 14.85 C 77.13 21.90 79.66 28.90 82.09 35.93 C 86.29 35.75 90.49 35.58 94.69 35.60 C 91.77 39.00 88.63 42.21 85.28 45.19 C 86.89 49.59 88.42 54.01 89.89 58.45 C 76.54 67.35 63.24 76.34 50.00 85.41 C 36.76 76.34 23.46 67.35 10.11 58.45 C 11.59 53.99 13.14 49.55 14.71 45.11 C 11.43 42.11 8.30 38.95 5.38 35.60 C 9.56 35.59 13.74 35.74 17.91 35.92 C 20.35 28.90 22.87 21.90 25.22 14.84 C 31.63 14.65 38.05 14.76 44.46 14.69 M 45.50 17.51 C 39.56 17.41 33.62 17.45 27.67 17.58 C 25.03 24.10 23.60 31.11 20.43 37.40 C 17.28 38.56 13.76 37.84 10.47 37.99 C 12.87 40.46 15.35 42.85 17.89 45.18 C 16.54 49.14 15.24 53.11 13.92 57.08 C 20.05 61.73 26.65 65.71 32.88 70.20 C 35.57 72.16 38.53 73.72 41.66 74.84 L 42.19 75.44 L 41.79 74.47 C 43.41 77.91 47.07 79.63 50.01 81.75 C 52.40 80.04 55.18 78.67 56.96 76.26 C 57.31 75.87 58.02 75.11 58.37 74.72 C 64.13 72.97 68.69 68.91 73.65 65.68 C 77.86 62.91 82.05 60.10 86.09 57.08 C 85.16 54.15 84.22 51.23 83.22 48.33 C 82.85 48.68 82.10 49.38 81.72 49.73 L 82.37 49.07 L 81.31 49.47 C 82.87 44.90 85.97 41.19 89.47 37.94 C 86.37 37.98 83.25 38.22 80.16 37.85 C 76.16 31.78 75.22 24.21 72.32 17.58 C 66.29 17.49 60.25 17.43 54.22 17.32 C 52.86 14.07 51.41 10.85 49.83 7.70 C 48.25 10.91 46.83 14.19 45.50 17.51 Z" />
<path fill="#e85a27" opacity="1.00" d=" M 45.50 17.51 C 46.83 14.19 48.25 10.91 49.83 7.70 C 51.41 10.85 52.86 14.07 54.22 17.32 C 60.25 17.43 66.29 17.49 72.32 17.58 C 75.22 24.21 76.16 31.78 80.16 37.85 C 83.25 38.22 86.37 37.98 89.47 37.94 C 85.97 41.19 82.87 44.90 81.31 49.47 C 76.87 51.85 72.68 54.68 68.70 57.75 C 62.65 62.28 60.18 69.74 56.96 76.26 C 55.18 78.67 52.40 80.04 50.01 81.75 C 47.07 79.63 43.41 77.91 41.79 74.47 C 39.26 68.67 36.76 62.45 31.72 58.34 C 27.13 54.62 22.17 51.33 16.90 48.65 C 20.79 52.96 25.48 56.40 29.83 60.20 C 34.63 64.35 37.45 70.17 41.66 74.84 C 38.53 73.72 35.57 72.16 32.88 70.20 C 26.65 65.71 20.05 61.73 13.92 57.08 C 15.24 53.11 16.54 49.14 17.89 45.18 C 15.35 42.85 12.87 40.46 10.47 37.99 C 13.76 37.84 17.28 38.56 20.43 37.40 C 23.60 31.11 25.03 24.10 27.67 17.58 C 33.62 17.45 39.56 17.41 45.50 17.51 M 41.36 38.60 C 44.38 41.62 47.26 44.79 49.88 48.17 C 52.36 44.89 55.51 42.13 57.72 38.65 C 58.07 36.51 57.13 34.41 56.59 32.37 C 54.30 25.67 52.33 18.87 49.89 12.22 C 46.70 20.89 44.01 29.75 41.36 38.60 M 34.82 33.99 C 30.67 33.65 26.40 33.10 22.32 34.28 C 27.21 35.77 32.31 36.28 37.38 36.73 C 38.94 30.54 41.04 24.44 41.64 18.05 C 38.22 22.81 36.83 28.58 34.82 33.99 M 58.20 18.16 C 58.69 24.55 60.78 30.63 62.39 36.79 C 67.56 36.21 72.94 36.08 77.72 33.77 C 73.47 33.37 69.21 33.72 64.97 34.04 C 62.94 28.66 61.49 22.96 58.20 18.16 M 15.67 40.06 C 20.39 44.14 25.49 47.75 30.41 51.60 C 32.26 52.84 34.15 54.76 36.58 54.32 C 40.27 53.88 43.90 53.03 47.60 52.58 C 45.76 49.61 44.13 46.52 42.57 43.40 C 33.61 42.20 24.66 40.90 15.67 40.06 M 57.50 43.44 C 55.96 46.57 54.32 49.66 52.44 52.60 C 56.16 53.03 59.83 53.86 63.55 54.30 C 65.94 54.75 67.80 52.88 69.61 51.66 C 74.55 47.81 79.65 44.16 84.43 40.11 C 75.41 40.90 66.46 42.22 57.50 43.44 M 41.30 61.48 C 44.06 66.12 46.90 70.72 49.89 75.21 C 52.85 70.72 55.69 66.15 58.26 61.43 C 55.43 59.85 52.62 58.25 49.88 56.53 C 47.07 58.28 44.20 59.90 41.30 61.48 Z" />
<path fill="#ffffff" opacity="1.00" d=" M 41.36 38.60 C 44.01 29.75 46.70 20.89 49.89 12.22 C 52.33 18.87 54.30 25.67 56.59 32.37 C 57.13 34.41 58.07 36.51 57.72 38.65 C 55.51 42.13 52.36 44.89 49.88 48.17 C 47.26 44.79 44.38 41.62 41.36 38.60 Z" />
<path fill="#ffffff" opacity="1.00" d=" M 34.82 33.99 C 36.83 28.58 38.22 22.81 41.64 18.05 C 41.04 24.44 38.94 30.54 37.38 36.73 C 32.31 36.28 27.21 35.77 22.32 34.28 C 26.40 33.10 30.67 33.65 34.82 33.99 Z" />
<path fill="#ffffff" opacity="1.00" d=" M 58.20 18.16 C 61.49 22.96 62.94 28.66 64.97 34.04 C 69.21 33.72 73.47 33.37 77.72 33.77 C 72.94 36.08 67.56 36.21 62.39 36.79 C 60.78 30.63 58.69 24.55 58.20 18.16 Z" />
<path fill="#ffffff" opacity="1.00" d=" M 15.67 40.06 C 24.66 40.90 33.61 42.20 42.57 43.40 C 44.13 46.52 45.76 49.61 47.60 52.58 C 43.90 53.03 40.27 53.88 36.58 54.32 C 34.15 54.76 32.26 52.84 30.41 51.60 C 25.49 47.75 20.39 44.14 15.67 40.06 Z" />
<path fill="#ffffff" opacity="1.00" d=" M 57.50 43.44 C 66.46 42.22 75.41 40.90 84.43 40.11 C 79.65 44.16 74.55 47.81 69.61 51.66 C 67.80 52.88 65.94 54.75 63.55 54.30 C 59.83 53.86 56.16 53.03 52.44 52.60 C 54.32 49.66 55.96 46.57 57.50 43.44 Z" />
<path fill="#ffffff" opacity="1.00" d=" M 16.90 48.65 C 22.17 51.33 27.13 54.62 31.72 58.34 C 36.76 62.45 39.26 68.67 41.79 74.47 L 42.19 75.44 L 41.66 74.84 C 37.45 70.17 34.63 64.35 29.83 60.20 C 25.48 56.40 20.79 52.96 16.90 48.65 Z" />
<path fill="#ffffff" opacity="1.00" d=" M 68.70 57.75 C 72.68 54.68 76.87 51.85 81.31 49.47 L 82.37 49.07 L 81.72 49.73 C 76.64 55.33 69.78 59.10 65.27 65.24 C 62.92 68.37 60.89 71.73 58.37 74.72 C 58.02 75.11 57.31 75.87 56.96 76.26 C 60.18 69.74 62.65 62.28 68.70 57.75 Z" />
<path fill="#e85a27" opacity="1.00" d=" M 81.72 49.73 C 82.10 49.38 82.85 48.68 83.22 48.33 C 84.22 51.23 85.16 54.15 86.09 57.08 C 82.05 60.10 77.86 62.91 73.65 65.68 C 68.69 68.91 64.13 72.97 58.37 74.72 C 60.89 71.73 62.92 68.37 65.27 65.24 C 69.78 59.10 76.64 55.33 81.72 49.73 Z" />
<path fill="#ffffff" opacity="1.00" d=" M 41.30 61.48 C 44.20 59.90 47.07 58.28 49.88 56.53 C 52.62 58.25 55.43 59.85 58.26 61.43 C 55.69 66.15 52.85 70.72 49.89 75.21 C 46.90 70.72 44.06 66.12 41.30 61.48 Z" />
</svg>
