<?xml version="1.0" encoding="UTF-8" ?>
<!DOCTYPE svg PUBLIC "-//W3C//DTD SVG 1.1//EN" "http://www.w3.org/Graphics/SVG/1.1/DTD/svg11.dtd">
<svg width="100pt" height="100pt" viewBox="0 0 100 100" version="1.1" xmlns="http://www.w3.org/2000/svg">
<path fill="#ffffff" opacity="1.00" d=" M 19.34 27.32 C 25.93 18.15 36.82 12.71 47.95 11.71 C 63.49 11.03 79.11 20.47 85.05 34.99 C 87.08 39.49 87.78 44.42 88.25 49.30 C 91.30 48.90 94.34 48.49 97.39 48.12 C 94.03 57.97 90.29 67.81 84.93 76.78 C 83.75 75.13 82.58 73.48 81.40 71.83 C 74.05 82.16 61.61 88.43 48.97 88.36 C 40.55 87.74 32.18 84.83 25.71 79.31 C 23.14 76.79 19.51 76.39 16.20 75.54 C 10.45 74.26 4.08 70.50 3.59 64.01 C 4.05 59.06 8.09 55.63 11.81 52.85 C 11.54 43.83 13.81 34.58 19.34 27.32 M 25.48 25.47 C 18.14 32.59 14.77 42.95 15.24 53.05 C 11.84 55.65 7.53 57.93 6.13 62.27 C 5.00 65.94 7.60 69.56 10.71 71.28 C 16.60 74.97 24.40 73.58 29.86 78.13 C 41.01 86.62 57.42 86.84 68.99 79.05 C 73.97 75.95 77.34 71.05 81.18 66.76 C 82.40 68.82 83.62 70.88 84.90 72.91 C 88.63 65.76 91.71 58.27 94.39 50.67 C 91.25 50.99 88.12 51.38 85.00 51.79 C 84.64 47.78 84.35 43.72 83.17 39.84 C 80.37 30.50 73.37 22.55 64.53 18.46 C 51.72 12.36 35.34 15.25 25.48 25.47 Z" />
<path fill="#482b46" opacity="1.00" d=" M 25.48 25.47 C 35.34 15.25 51.72 12.36 64.53 18.46 C 73.37 22.55 80.37 30.50 83.17 39.84 C 84.35 43.72 84.64 47.78 85.00 51.79 C 88.12 51.38 91.25 50.99 94.39 50.67 C 91.71 58.27 88.63 65.76 84.90 72.91 C 83.62 70.88 82.40 68.82 81.18 66.76 C 77.34 71.05 73.97 75.95 68.99 79.05 C 57.42 86.84 41.01 86.62 29.86 78.13 C 24.40 73.58 16.60 74.97 10.71 71.28 C 7.60 69.56 5.00 65.94 6.13 62.27 C 7.53 57.93 11.84 55.65 15.24 53.05 C 14.77 42.95 18.14 32.59 25.48 25.47 M 38.17 20.07 C 37.24 21.29 36.30 22.51 35.37 23.74 C 37.57 22.84 39.78 21.96 42.01 21.14 C 40.73 20.79 39.45 20.43 38.17 20.07 M 40.57 25.79 C 38.21 26.98 37.07 29.71 35.45 31.70 C 39.64 28.72 44.81 28.18 49.81 28.61 C 52.07 29.66 53.72 31.67 55.94 32.81 C 58.15 33.85 60.63 34.19 62.83 35.26 C 65.27 37.61 66.79 40.73 68.90 43.36 C 67.92 39.76 67.11 36.03 65.26 32.76 C 63.82 31.31 61.67 30.92 59.88 30.02 C 56.51 28.83 54.39 25.79 51.53 23.82 C 47.83 23.88 44.20 25.11 40.57 25.79 M 62.20 26.67 C 64.69 28.54 67.08 30.54 69.35 32.69 C 68.83 31.18 68.30 29.68 67.78 28.18 C 65.92 27.67 64.06 27.17 62.20 26.67 M 40.57 34.34 C 39.55 35.48 38.75 36.79 37.91 38.06 C 36.33 38.37 34.81 38.89 33.28 39.36 C 33.28 42.82 33.50 46.28 33.74 49.73 C 26.13 51.94 18.04 53.68 11.69 58.70 C 9.55 60.37 7.24 63.34 8.85 66.11 C 11.26 69.82 15.95 70.95 19.99 71.91 C 32.07 74.16 44.51 73.53 56.61 71.78 C 65.73 70.49 74.45 67.35 82.82 63.60 C 83.59 65.05 84.36 66.51 85.15 67.97 C 86.67 62.78 88.80 57.81 91.18 52.96 C 85.84 54.22 80.44 55.21 74.96 55.53 C 76.16 56.49 77.35 57.46 78.54 58.43 C 65.98 65.74 51.41 68.73 37.04 69.64 C 30.48 69.93 23.81 70.10 17.37 68.66 C 14.56 67.96 11.25 66.93 10.07 63.97 C 11.49 60.00 15.39 57.76 18.93 55.92 C 23.44 53.76 28.08 51.74 32.96 50.56 C 34.20 51.08 34.89 52.34 35.73 53.32 C 38.59 57.40 41.70 61.70 41.98 66.87 C 48.21 66.27 54.39 65.18 60.42 63.49 C 61.68 58.81 63.43 54.27 64.48 49.53 C 65.13 47.43 63.67 45.56 62.89 43.73 C 61.56 47.02 59.79 50.30 56.03 51.15 C 55.77 49.39 52.45 49.37 52.22 51.14 L 51.54 50.88 C 51.36 53.27 51.23 55.66 51.01 58.04 C 50.35 55.74 49.95 53.33 48.82 51.20 C 46.89 49.20 44.18 48.18 41.76 46.88 C 42.96 46.32 44.16 45.77 45.36 45.22 C 44.46 47.25 46.96 48.06 48.53 47.61 C 50.46 44.11 51.04 40.07 51.69 36.18 C 50.97 35.82 49.52 35.11 48.80 34.76 C 48.32 34.94 47.36 35.31 46.88 35.50 C 46.83 35.82 46.73 36.47 46.68 36.79 C 46.49 37.05 46.10 37.57 45.91 37.83 C 45.45 37.82 44.53 37.81 44.08 37.80 C 44.32 36.92 44.81 35.16 45.06 34.29 C 43.56 34.23 42.05 34.07 40.57 34.34 M 50.13 49.40 C 51.33 49.21 52.52 48.96 53.70 48.66 C 55.92 45.52 56.47 41.57 57.69 37.99 C 56.29 37.22 54.89 36.45 53.49 35.69 C 51.25 39.91 50.46 44.68 50.13 49.40 M 58.28 39.23 C 57.10 42.56 55.97 45.91 54.91 49.29 C 56.25 49.31 57.60 49.33 58.94 49.34 C 60.18 46.65 61.41 43.95 62.56 41.21 C 62.08 40.74 61.12 39.80 60.64 39.33 C 60.05 39.31 58.87 39.25 58.28 39.23 M 13.23 63.19 C 13.32 65.92 17.42 65.66 19.32 66.85 C 18.44 64.49 17.51 62.14 16.56 59.81 C 15.41 60.90 14.22 61.95 13.23 63.19 Z" />
<path fill="#f5eaf4" opacity="1.00" d=" M 38.17 20.07 C 39.45 20.43 40.73 20.79 42.01 21.14 C 39.78 21.96 37.57 22.84 35.37 23.74 C 36.30 22.51 37.24 21.29 38.17 20.07 Z" />
<path fill="#ffffff" opacity="1.00" d=" M 40.57 25.79 C 44.20 25.11 47.83 23.88 51.53 23.82 C 54.39 25.79 56.51 28.83 59.88 30.02 C 61.67 30.92 63.82 31.31 65.26 32.76 C 67.11 36.03 67.92 39.76 68.90 43.36 C 66.79 40.73 65.27 37.61 62.83 35.26 C 60.63 34.19 58.15 33.85 55.94 32.81 C 53.72 31.67 52.07 29.66 49.81 28.61 C 44.81 28.18 39.64 28.72 35.45 31.70 C 37.07 29.71 38.21 26.98 40.57 25.79 Z" />
<path fill="#f5eaf4" opacity="1.00" d=" M 62.20 26.67 C 64.06 27.17 65.92 27.67 67.78 28.18 C 68.30 29.68 68.83 31.18 69.35 32.69 C 67.08 30.54 64.69 28.54 62.20 26.67 Z" />
<path fill="#f5eaf4" opacity="1.00" d=" M 40.57 34.34 C 42.05 34.07 43.56 34.23 45.06 34.29 C 44.81 35.16 44.32 36.92 44.08 37.80 C 42.02 37.78 39.96 37.85 37.91 38.06 C 38.75 36.79 39.55 35.48 40.57 34.34 Z" />
<path fill="#ffffff" opacity="1.00" d=" M 46.88 35.50 C 47.36 35.31 48.32 34.94 48.80 34.76 C 49.52 35.11 50.97 35.82 51.69 36.18 C 51.04 40.07 50.46 44.11 48.53 47.61 C 46.96 48.06 44.46 47.25 45.36 45.22 C 45.74 42.40 46.25 39.60 46.68 36.79 C 46.73 36.47 46.83 35.82 46.88 35.50 Z" />
<path fill="#ffffff" opacity="1.00" d=" M 50.13 49.40 C 50.46 44.68 51.25 39.91 53.49 35.69 C 54.89 36.45 56.29 37.22 57.69 37.99 C 56.47 41.57 55.92 45.52 53.70 48.66 C 52.52 48.96 51.33 49.21 50.13 49.40 Z" />
<path fill="#ffffff" opacity="1.00" d=" M 37.91 38.06 C 39.96 37.85 42.02 37.78 44.08 37.80 C 44.53 37.81 45.45 37.82 45.91 37.83 C 43.90 40.63 41.64 43.22 39.23 45.68 C 40.07 46.08 40.92 46.48 41.76 46.88 C 44.18 48.18 46.89 49.20 48.82 51.20 C 49.95 53.33 50.35 55.74 51.01 58.04 C 51.23 55.66 51.36 53.27 51.54 50.88 L 52.22 51.14 C 53.41 51.72 54.86 51.88 56.03 51.15 C 59.79 50.30 61.56 47.02 62.89 43.73 C 63.67 45.56 65.13 47.43 64.48 49.53 C 63.43 54.27 61.68 58.81 60.42 63.49 C 54.39 65.18 48.21 66.27 41.98 66.87 C 41.70 61.70 38.59 57.40 35.73 53.32 C 34.89 52.34 34.20 51.08 32.96 50.56 C 28.08 51.74 23.44 53.76 18.93 55.92 C 15.39 57.76 11.49 60.00 10.07 63.97 C 11.25 66.93 14.56 67.96 17.37 68.66 C 23.81 70.10 30.48 69.93 37.04 69.64 C 51.41 68.73 65.98 65.74 78.54 58.43 C 77.35 57.46 76.16 56.49 74.96 55.53 C 80.44 55.21 85.84 54.22 91.18 52.96 C 88.80 57.81 86.67 62.78 85.15 67.97 C 84.36 66.51 83.59 65.05 82.82 63.60 C 74.45 67.35 65.73 70.49 56.61 71.78 C 44.51 73.53 32.07 74.16 19.99 71.91 C 15.95 70.95 11.26 69.82 8.85 66.11 C 7.24 63.34 9.55 60.37 11.69 58.70 C 18.04 53.68 26.13 51.94 33.74 49.73 C 33.50 46.28 33.28 42.82 33.28 39.36 C 34.81 38.89 36.33 38.37 37.91 38.06 Z" />
<path fill="#9d839c" opacity="1.00" d=" M 46.68 36.79 C 46.25 39.60 45.74 42.40 45.36 45.22 C 44.16 45.77 42.96 46.32 41.76 46.88 C 40.92 46.48 40.07 46.08 39.23 45.68 C 41.64 43.22 43.90 40.63 45.91 37.83 C 46.10 37.57 46.49 37.05 46.68 36.79 Z" />
<path fill="#ffffff" opacity="1.00" d=" M 58.28 39.23 C 58.87 39.25 60.05 39.31 60.64 39.33 C 61.12 39.80 62.08 40.74 62.56 41.21 C 61.41 43.95 60.18 46.65 58.94 49.34 C 57.60 49.33 56.25 49.31 54.91 49.29 C 55.97 45.91 57.10 42.56 58.28 39.23 Z" />
<path fill="#2f0f2d" opacity="1.00" d=" M 52.22 51.14 C 52.45 49.37 55.77 49.39 56.03 51.15 C 54.86 51.88 53.41 51.72 52.22 51.14 Z" />
<path fill="#ffffff" opacity="1.00" d=" M 13.23 63.19 C 14.22 61.95 15.41 60.90 16.56 59.81 C 17.51 62.14 18.44 64.49 19.32 66.85 C 17.42 65.66 13.32 65.92 13.23 63.19 Z" />
</svg>
