<?xml version="1.0" encoding="UTF-8" ?>
<!DOCTYPE svg PUBLIC "-//W3C//DTD SVG 1.1//EN" "http://www.w3.org/Graphics/SVG/1.1/DTD/svg11.dtd">
<svg width="100pt" height="100pt" viewBox="0 0 100 100" version="1.1" xmlns="http://www.w3.org/2000/svg">
<path fill="#b8b8b8" opacity="1.00" d=" M 23.56 9.93 C 26.00 7.12 28.83 3.56 32.97 3.85 C 35.44 4.49 39.12 5.18 39.15 8.41 C 39.51 13.33 40.98 18.05 43.03 22.52 C 54.69 22.62 66.34 22.56 78.00 22.55 C 82.95 22.58 87.99 22.16 92.83 23.43 L 91.83 23.41 C 85.22 23.24 78.61 23.00 72.00 23.08 C 62.19 23.28 52.34 22.56 42.56 23.64 C 48.36 24.14 54.18 24.27 60.00 24.15 C 70.24 23.90 80.51 24.62 90.72 23.53 C 84.42 34.36 77.03 44.52 70.22 55.03 C 71.61 59.36 73.42 63.59 74.26 68.08 C 74.48 73.20 73.46 78.27 73.00 83.36 C 68.40 79.43 64.11 75.18 59.73 71.02 C 56.25 76.17 52.86 81.38 49.36 86.52 C 35.45 65.16 21.15 44.05 7.29 22.66 C 14.56 22.49 21.84 22.60 29.12 22.58 C 27.75 18.16 25.63 14.05 23.56 9.93 M 26.46 10.20 C 28.21 15.52 30.95 20.51 32.06 26.06 C 25.71 26.26 19.36 26.24 13.01 26.22 C 25.07 44.02 37.08 61.85 49.30 79.54 C 52.84 74.90 56.03 70.02 59.28 65.19 C 62.37 71.09 67.00 75.95 71.99 80.30 C 72.49 75.03 73.05 69.59 71.52 64.43 C 70.53 60.60 68.53 57.04 68.06 53.08 C 68.57 50.88 69.94 49.02 71.14 47.15 C 75.90 40.25 80.58 33.31 85.13 26.27 C 70.79 26.09 56.44 26.39 42.10 26.10 C 39.34 20.38 38.01 14.19 36.69 8.03 C 34.24 4.29 27.61 6.05 26.46 10.20 Z" />
<path fill="#941271" opacity="1.00" d=" M 26.46 10.20 C 27.61 6.05 34.24 4.29 36.69 8.03 C 38.01 14.19 39.34 20.38 42.10 26.10 C 56.44 26.39 70.79 26.09 85.13 26.27 C 80.58 33.31 75.90 40.25 71.14 47.15 C 69.94 49.02 68.57 50.88 68.06 53.08 C 68.53 57.04 70.53 60.60 71.52 64.43 C 73.05 69.59 72.49 75.03 71.99 80.30 C 67.00 75.95 62.37 71.09 59.28 65.19 C 56.03 70.02 52.84 74.90 49.30 79.54 C 37.08 61.85 25.07 44.02 13.01 26.22 C 19.36 26.24 25.71 26.26 32.06 26.06 C 30.95 20.51 28.21 15.52 26.46 10.20 M 28.81 9.59 C 32.35 16.27 34.32 23.62 35.90 30.97 C 31.99 33.49 27.56 35.23 24.10 38.42 C 28.26 37.46 32.27 36.01 36.38 34.89 C 35.76 38.42 36.59 41.91 37.88 45.19 C 38.73 44.80 39.58 44.41 40.43 44.02 C 40.52 50.09 43.33 55.62 45.21 61.27 C 45.51 60.38 45.81 59.49 46.12 58.61 C 47.66 59.98 49.25 61.31 50.89 62.57 C 49.76 56.33 47.00 50.45 46.79 44.04 C 46.64 40.08 45.32 36.24 42.72 33.21 C 46.66 32.00 50.69 31.08 54.61 29.79 C 51.17 28.68 47.61 29.56 44.11 29.71 C 42.89 29.62 41.13 29.84 40.44 28.58 C 36.70 22.57 35.86 15.38 33.87 8.71 C 32.13 8.44 30.46 9.16 28.81 9.59 M 58.19 31.44 C 57.66 33.07 58.22 33.63 59.85 33.11 C 60.37 31.49 59.81 30.93 58.19 31.44 M 54.48 38.19 C 53.53 37.38 52.59 36.58 51.64 35.78 C 53.36 42.29 55.97 48.50 58.22 54.83 C 61.02 62.32 63.72 70.38 70.31 75.45 C 71.10 65.93 66.51 57.35 63.30 48.72 C 61.48 44.14 59.99 39.40 57.69 35.03 C 56.55 36.01 55.52 37.10 54.48 38.19 M 52.58 54.72 C 52.59 56.38 52.63 58.05 52.70 59.71 C 53.49 58.54 54.30 57.38 55.14 56.25 C 54.50 55.86 53.22 55.10 52.58 54.72 M 48.55 68.10 C 48.68 69.55 49.31 69.81 50.44 68.87 C 50.31 67.41 49.68 67.16 48.55 68.10 Z" />
<path fill="#ffffff" opacity="1.00" d=" M 28.81 9.59 C 30.46 9.16 32.13 8.44 33.87 8.71 C 35.86 15.38 36.70 22.57 40.44 28.58 C 41.13 29.84 42.89 29.62 44.11 29.71 C 47.61 29.56 51.17 28.68 54.61 29.79 C 50.69 31.08 46.66 32.00 42.72 33.21 C 45.32 36.24 46.64 40.08 46.79 44.04 C 47.00 50.45 49.76 56.33 50.89 62.57 C 49.25 61.31 47.66 59.98 46.12 58.61 C 45.81 59.49 45.51 60.38 45.21 61.27 C 43.33 55.62 40.52 50.09 40.43 44.02 C 39.58 44.41 38.73 44.80 37.88 45.19 C 36.59 41.91 35.76 38.42 36.38 34.89 C 32.27 36.01 28.26 37.46 24.10 38.42 C 27.56 35.23 31.99 33.49 35.90 30.97 C 34.32 23.62 32.35 16.27 28.81 9.59 Z" />
<path fill="#cfcecf" opacity="1.00" d=" M 42.56 23.64 C 52.34 22.56 62.19 23.28 72.00 23.08 C 78.61 23.00 85.22 23.24 91.83 23.41 L 90.72 23.53 C 80.51 24.62 70.24 23.90 60.00 24.15 C 54.18 24.27 48.36 24.14 42.56 23.64 Z" />
<path fill="#ffffff" opacity="1.00" d=" M 58.19 31.44 C 59.81 30.93 60.37 31.49 59.85 33.11 C 58.22 33.63 57.66 33.07 58.19 31.44 Z" />
<path fill="#ffffff" opacity="1.00" d=" M 54.48 38.19 C 55.52 37.10 56.55 36.01 57.69 35.03 C 59.99 39.40 61.48 44.14 63.30 48.72 C 66.51 57.35 71.10 65.93 70.31 75.45 C 63.72 70.38 61.02 62.32 58.22 54.83 C 55.97 48.50 53.36 42.29 51.64 35.78 C 52.59 36.58 53.53 37.38 54.48 38.19 Z" />
<path fill="#ffffff" opacity="1.00" d=" M 52.58 54.72 C 53.22 55.10 54.50 55.86 55.14 56.25 C 54.30 57.38 53.49 58.54 52.70 59.71 C 52.63 58.05 52.59 56.38 52.58 54.72 Z" />
<path fill="#ffffff" opacity="1.00" d=" M 48.55 68.10 C 49.68 67.16 50.31 67.41 50.44 68.87 C 49.31 69.81 48.68 69.55 48.55 68.10 Z" />
</svg>
