<?xml version="1.0" encoding="UTF-8" ?>
<!DOCTYPE svg PUBLIC "-//W3C//DTD SVG 1.1//EN" "http://www.w3.org/Graphics/SVG/1.1/DTD/svg11.dtd">
<svg width="100pt" height="100pt" viewBox="0 0 100 100" version="1.1" xmlns="http://www.w3.org/2000/svg">
<path fill="#b9bbb9" opacity="1.00" d=" M 73.46 14.50 C 75.38 13.57 77.52 13.20 79.57 12.66 C 79.69 14.76 79.79 16.85 79.90 18.94 C 83.39 18.44 86.88 17.96 90.38 17.55 C 89.96 19.70 89.51 21.84 89.06 23.99 C 89.77 24.19 91.19 24.61 91.89 24.82 C 90.44 26.90 89.00 28.98 87.56 31.06 C 88.90 32.02 90.25 32.97 91.59 33.94 C 89.38 36.53 86.81 38.76 83.91 40.55 C 85.94 43.11 87.89 45.75 89.74 48.45 C 85.43 49.78 80.94 49.52 76.50 49.48 C 74.51 51.14 72.82 53.14 71.14 55.10 C 68.87 58.49 67.92 62.53 66.10 66.15 C 64.91 69.30 60.93 69.52 58.96 71.99 C 55.94 75.71 53.49 79.86 50.64 83.72 C 47.37 79.80 44.76 75.39 41.53 71.47 C 38.94 69.03 35.27 68.27 32.10 66.82 C 32.17 64.33 32.32 61.84 32.54 59.35 C 29.53 58.40 26.57 57.30 23.64 56.12 C 24.88 54.64 26.14 53.18 27.40 51.71 C 24.18 46.73 20.99 41.22 15.10 39.05 C 15.61 38.12 16.12 37.19 16.62 36.26 C 13.61 32.35 10.83 28.28 7.97 24.26 C 16.54 24.17 25.18 24.77 33.67 23.38 C 35.90 22.52 37.74 20.94 39.72 19.64 C 41.14 21.20 42.41 22.97 44.17 24.17 C 48.43 24.72 52.74 24.32 57.01 24.39 C 58.27 22.99 59.52 21.58 60.79 20.19 C 62.12 20.37 63.44 20.65 64.79 20.63 C 67.97 19.02 70.35 16.23 73.46 14.50 M 61.33 23.30 C 59.14 25.01 57.09 27.44 54.07 27.42 C 50.83 27.62 47.47 27.81 44.31 26.92 C 42.32 25.81 40.80 24.08 39.17 22.52 C 36.61 24.26 34.08 26.36 30.91 26.77 C 25.28 27.65 19.56 27.27 13.88 27.39 C 15.68 30.11 17.52 32.80 19.42 35.45 C 19.23 36.49 19.03 37.52 18.83 38.56 C 24.27 41.12 27.50 46.25 30.74 51.04 C 29.53 52.61 28.32 54.17 27.12 55.75 C 29.70 56.36 32.29 56.95 34.88 57.52 C 34.59 59.98 34.28 62.44 34.00 64.90 C 36.30 65.94 38.62 66.95 40.88 68.10 C 45.40 70.14 47.56 74.90 50.69 78.46 C 52.30 76.13 53.79 73.70 55.57 71.49 C 57.21 69.29 59.91 68.42 62.18 67.05 C 65.05 65.64 65.49 62.10 66.75 59.47 C 66.14 59.23 64.93 58.74 64.32 58.49 C 67.31 54.25 70.61 49.79 75.53 47.70 C 79.17 47.14 82.89 47.53 86.56 47.24 C 84.53 44.75 82.33 42.42 80.02 40.20 C 83.11 38.57 86.05 36.66 88.71 34.39 C 86.87 33.77 85.02 33.18 83.17 32.61 C 84.74 28.42 86.32 24.24 87.97 20.08 C 84.51 20.40 81.07 20.75 77.62 21.07 C 77.49 18.95 77.35 16.84 77.16 14.72 C 71.62 17.13 67.82 23.39 61.33 23.30 Z" />
<path fill="#941271" opacity="1.00" d=" M 61.33 23.30 C 67.82 23.39 71.62 17.13 77.16 14.72 C 77.35 16.84 77.49 18.95 77.62 21.07 C 81.07 20.75 84.51 20.40 87.97 20.08 C 86.32 24.24 84.74 28.42 83.17 32.61 C 85.02 33.18 86.87 33.77 88.71 34.39 C 86.05 36.66 83.11 38.57 80.02 40.20 C 82.33 42.42 84.53 44.75 86.56 47.24 C 82.89 47.53 79.17 47.14 75.53 47.70 C 70.61 49.79 67.31 54.25 64.32 58.49 C 64.93 58.74 66.14 59.23 66.75 59.47 C 65.49 62.10 65.05 65.64 62.18 67.05 C 59.91 68.42 57.21 69.29 55.57 71.49 C 53.79 73.70 52.30 76.13 50.69 78.46 C 47.56 74.90 45.40 70.14 40.88 68.10 C 38.62 66.95 36.30 65.94 34.00 64.90 C 34.28 62.44 34.59 59.98 34.88 57.52 C 32.29 56.95 29.70 56.36 27.12 55.75 C 28.32 54.17 29.53 52.61 30.74 51.04 C 27.50 46.25 24.27 41.12 18.83 38.56 C 19.03 37.52 19.23 36.49 19.42 35.45 C 17.52 32.80 15.68 30.11 13.88 27.39 C 19.56 27.27 25.28 27.65 30.91 26.77 C 34.08 26.36 36.61 24.26 39.17 22.52 C 40.80 24.08 42.32 25.81 44.31 26.92 C 47.47 27.81 50.83 27.62 54.07 27.42 C 57.09 27.44 59.14 25.01 61.33 23.30 M 63.38 26.51 C 58.79 27.94 55.98 32.82 50.95 33.19 C 45.80 33.28 42.05 29.27 38.79 25.82 C 36.90 27.22 35.01 28.63 33.10 30.02 C 34.61 33.00 37.10 36.04 36.34 39.59 C 35.57 43.26 35.15 47.43 37.52 50.65 C 38.82 51.48 40.41 51.00 41.80 50.77 C 44.90 50.03 48.55 49.81 50.49 46.90 C 47.48 45.69 44.44 44.53 41.58 42.98 C 44.76 43.38 47.88 44.15 50.97 44.97 C 53.93 39.96 58.77 36.60 63.72 33.77 C 68.90 30.84 73.61 27.18 77.99 23.16 C 75.48 24.23 72.99 25.35 70.46 26.38 C 72.19 23.40 74.11 20.54 75.84 17.56 C 71.66 20.49 68.35 24.83 63.38 26.51 M 73.50 30.40 C 78.63 29.69 82.44 26.09 85.01 21.82 C 80.68 23.93 76.76 26.85 73.50 30.40 M 30.49 29.11 C 27.75 31.93 25.04 34.79 22.53 37.81 C 26.49 39.96 30.82 41.36 35.34 41.65 C 35.83 36.84 33.71 32.52 30.49 29.11 M 60.66 38.76 C 63.70 38.45 66.72 37.99 69.73 37.46 C 69.56 35.84 69.37 34.22 69.16 32.61 C 66.22 34.50 63.34 36.51 60.66 38.76 M 71.65 34.33 C 71.20 39.07 69.50 43.87 71.00 48.59 C 71.49 47.06 71.96 45.53 72.41 44.00 C 75.99 44.75 79.58 45.44 83.21 45.94 C 80.31 43.84 77.28 41.91 74.31 39.91 C 77.64 38.41 81.00 36.99 84.24 35.31 C 81.08 35.83 77.96 36.54 74.82 37.18 C 76.24 35.72 77.67 34.27 79.08 32.80 C 76.59 33.27 74.12 33.79 71.65 34.33 M 57.61 43.63 C 54.62 45.51 53.46 49.06 51.93 52.04 C 50.01 52.22 48.10 52.40 46.19 52.59 C 44.00 54.90 41.70 57.10 39.50 59.40 C 41.67 60.73 43.91 62.01 46.37 62.72 C 51.02 64.36 56.21 62.75 60.22 60.23 C 61.32 57.88 61.72 55.28 62.30 52.78 C 58.82 53.81 55.38 54.98 51.85 55.82 C 55.47 53.11 59.84 51.79 63.76 49.62 C 65.33 47.05 65.39 43.91 65.89 41.01 C 63.09 41.72 60.21 42.32 57.61 43.63 M 29.65 54.73 C 32.24 54.88 34.82 55.00 37.41 55.13 C 36.79 53.98 36.16 52.84 35.53 51.70 C 33.57 52.70 31.61 53.71 29.65 54.73 M 37.07 59.96 C 36.69 60.98 36.30 61.99 35.92 63.01 C 40.74 65.05 45.48 67.94 50.81 68.24 C 55.44 67.41 60.78 66.32 63.42 61.99 C 59.19 62.64 55.15 64.20 50.90 64.71 C 45.89 64.85 41.25 62.48 37.07 59.96 Z" />
<path fill="#ffffff" opacity="1.00" d=" M 63.38 26.51 C 68.35 24.83 71.66 20.49 75.84 17.56 C 74.11 20.54 72.19 23.40 70.46 26.38 C 72.99 25.35 75.48 24.23 77.99 23.16 C 73.61 27.18 68.90 30.84 63.72 33.77 C 58.77 36.60 53.93 39.96 50.97 44.97 C 47.88 44.15 44.76 43.38 41.58 42.98 C 44.44 44.53 47.48 45.69 50.49 46.90 C 48.55 49.81 44.90 50.03 41.80 50.77 C 40.41 51.00 38.82 51.48 37.52 50.65 C 35.15 47.43 35.57 43.26 36.34 39.59 C 37.10 36.04 34.61 33.00 33.10 30.02 C 35.01 28.63 36.90 27.22 38.79 25.82 C 42.05 29.27 45.80 33.28 50.95 33.19 C 55.98 32.82 58.79 27.94 63.38 26.51 Z" />
<path fill="#ffffff" opacity="1.00" d=" M 73.50 30.40 C 76.76 26.85 80.68 23.93 85.01 21.82 C 82.44 26.09 78.63 29.69 73.50 30.40 Z" />
<path fill="#ffffff" opacity="1.00" d=" M 30.49 29.11 C 33.71 32.52 35.83 36.84 35.34 41.65 C 30.82 41.36 26.49 39.96 22.53 37.81 C 25.04 34.79 27.75 31.93 30.49 29.11 Z" />
<path fill="#ffffff" opacity="1.00" d=" M 60.66 38.76 C 63.34 36.51 66.22 34.50 69.16 32.61 C 69.37 34.22 69.56 35.84 69.73 37.46 C 66.72 37.99 63.70 38.45 60.66 38.76 Z" />
<path fill="#ffffff" opacity="1.00" d=" M 71.65 34.33 C 74.12 33.79 76.59 33.27 79.08 32.80 C 77.67 34.27 76.24 35.72 74.82 37.18 C 77.96 36.54 81.08 35.83 84.24 35.31 C 81.00 36.99 77.64 38.41 74.31 39.91 C 77.28 41.91 80.31 43.84 83.21 45.94 C 79.58 45.44 75.99 44.75 72.41 44.00 C 71.96 45.53 71.49 47.06 71.00 48.59 C 69.50 43.87 71.20 39.07 71.65 34.33 Z" />
<path fill="#ffffff" opacity="1.00" d=" M 57.61 43.63 C 60.21 42.32 63.09 41.72 65.89 41.01 C 65.39 43.91 65.33 47.05 63.76 49.62 C 59.84 51.79 55.47 53.11 51.85 55.82 C 55.38 54.98 58.82 53.81 62.30 52.78 C 61.72 55.28 61.32 57.88 60.22 60.23 C 56.21 62.75 51.02 64.36 46.37 62.72 C 43.91 62.01 41.67 60.73 39.50 59.40 C 41.70 57.10 44.00 54.90 46.19 52.59 C 48.10 52.40 50.01 52.22 51.93 52.04 C 53.46 49.06 54.62 45.51 57.61 43.63 Z" />
<path fill="#f3e4ef" opacity="1.00" d=" M 29.65 54.73 C 31.61 53.71 33.57 52.70 35.53 51.70 C 36.16 52.84 36.79 53.98 37.41 55.13 C 34.82 55.00 32.24 54.88 29.65 54.73 Z" />
<path fill="#ffffff" opacity="1.00" d=" M 37.07 59.96 C 41.25 62.48 45.89 64.85 50.90 64.71 C 55.15 64.20 59.19 62.64 63.42 61.99 C 60.78 66.32 55.44 67.41 50.81 68.24 C 45.48 67.94 40.74 65.05 35.92 63.01 C 36.30 61.99 36.69 60.98 37.07 59.96 Z" />
</svg>
