<?xml version="1.0" encoding="UTF-8" ?>
<!DOCTYPE svg PUBLIC "-//W3C//DTD SVG 1.1//EN" "http://www.w3.org/Graphics/SVG/1.1/DTD/svg11.dtd">
<svg width="100pt" height="100pt" viewBox="0 0 100 100" version="1.1" xmlns="http://www.w3.org/2000/svg">
<path fill="#b8b8b8" opacity="1.00" d=" M 5.34 81.08 C 20.06 58.50 35.11 36.12 49.93 13.60 C 58.20 26.13 66.71 38.51 74.94 51.07 C 75.87 52.36 76.69 53.81 78.00 54.76 C 81.74 56.02 86.08 56.04 89.17 58.80 C 95.16 63.46 96.49 72.85 92.01 78.98 C 88.37 84.11 81.16 87.41 75.10 84.72 C 72.07 83.58 69.47 81.08 66.08 81.17 C 45.83 81.07 25.59 81.28 5.34 81.08 M 49.54 21.34 C 47.99 23.24 46.69 25.32 45.35 27.38 C 34.56 44.07 23.07 60.30 12.45 77.11 C 29.66 77.52 46.89 77.17 64.11 77.24 C 67.83 76.93 70.40 79.88 73.30 81.67 C 78.22 85.08 85.47 83.74 89.39 79.38 C 94.31 74.23 93.88 65.17 88.42 60.56 C 84.86 57.15 79.65 57.32 75.07 57.45 C 68.85 48.77 62.97 39.85 56.96 31.02 C 54.63 27.71 52.83 23.84 49.54 21.34 Z" />
<path fill="#278914" opacity="1.00" d=" M 49.54 21.34 C 52.83 23.84 54.63 27.71 56.96 31.02 C 62.97 39.85 68.85 48.77 75.07 57.45 C 79.65 57.32 84.86 57.15 88.42 60.56 C 93.88 65.17 94.31 74.23 89.39 79.38 C 85.47 83.74 78.22 85.08 73.30 81.67 C 70.40 79.88 67.83 76.93 64.11 77.24 C 46.89 77.17 29.66 77.52 12.45 77.11 C 23.07 60.30 34.56 44.07 45.35 27.38 C 46.69 25.32 47.99 23.24 49.54 21.34 M 48.87 37.93 C 49.57 37.92 50.95 37.90 51.65 37.89 C 52.19 33.18 53.34 27.94 49.86 24.00 C 47.15 28.24 48.34 33.28 48.87 37.93 M 41.67 37.14 C 42.23 38.70 43.15 40.11 43.94 41.56 C 45.36 38.56 46.00 35.30 45.17 32.03 C 43.93 33.68 42.53 35.25 41.67 37.14 M 55.59 32.66 C 55.11 34.29 54.65 35.92 54.19 37.56 C 55.71 38.35 57.22 39.17 58.74 39.97 C 58.35 37.29 57.18 34.83 55.59 32.66 M 36.64 44.03 C 39.19 45.94 41.81 47.77 44.63 49.28 C 43.73 45.95 41.87 43.03 39.83 40.30 C 38.76 41.54 37.70 42.78 36.64 44.03 M 56.34 49.22 C 58.82 47.74 61.19 46.10 63.54 44.44 C 62.71 43.13 61.87 41.82 61.02 40.52 C 58.75 42.98 56.92 45.86 56.34 49.22 M 46.73 41.44 C 46.72 44.53 46.71 47.62 46.71 50.72 C 43.42 50.72 40.12 50.73 36.83 50.76 C 36.82 53.29 36.82 55.82 36.82 58.35 C 40.12 58.38 43.41 58.39 46.71 58.38 C 46.71 61.68 46.72 64.98 46.74 68.28 C 49.28 68.28 51.82 68.29 54.36 68.29 C 54.38 64.98 54.39 61.68 54.38 58.38 C 57.68 58.39 60.99 58.38 64.29 58.35 C 64.29 55.82 64.29 53.29 64.28 50.76 C 60.98 50.73 57.67 50.72 54.37 50.71 C 54.38 47.62 54.38 44.52 54.37 41.43 C 51.82 41.41 49.28 41.42 46.73 41.44 M 34.42 47.30 C 33.34 48.99 36.28 50.34 37.24 48.84 C 38.27 47.17 35.36 45.76 34.42 47.30 M 64.28 46.91 C 62.61 47.35 63.53 49.95 65.10 49.30 C 66.78 48.88 65.84 46.24 64.28 46.91 M 28.94 56.01 C 30.50 55.85 32.06 55.69 33.62 55.53 C 33.64 54.90 33.67 53.63 33.69 53.00 C 33.04 52.90 31.74 52.70 31.09 52.60 C 30.38 53.74 29.66 54.87 28.94 56.01 M 67.68 52.31 C 67.60 53.16 67.42 54.86 67.34 55.71 C 68.74 55.66 70.14 55.62 71.54 55.59 C 70.21 54.55 68.93 53.45 67.68 52.31 M 66.90 59.22 C 67.43 60.32 67.97 61.41 68.52 62.49 C 69.49 61.59 70.46 60.70 71.43 59.81 C 69.92 59.60 68.41 59.40 66.90 59.22 M 26.54 60.59 C 24.16 62.14 23.01 64.93 21.49 67.23 C 26.16 65.24 30.80 62.98 34.63 59.60 C 31.92 59.68 29.12 59.62 26.54 60.59 M 76.42 60.35 C 72.66 61.68 69.71 65.15 69.14 69.13 C 68.09 75.19 73.11 81.30 79.20 81.69 C 85.57 82.31 91.57 76.42 91.00 70.02 C 90.78 63.08 82.95 57.77 76.42 60.35 M 20.74 74.77 C 24.06 74.48 28.13 75.47 30.65 72.66 C 34.49 68.96 38.35 65.18 41.44 60.80 C 33.41 63.47 27.45 69.90 20.74 74.77 M 58.90 60.69 C 61.19 63.71 63.89 66.37 66.62 68.98 C 66.96 67.62 67.31 66.25 67.65 64.89 C 64.92 63.14 62.02 61.64 58.90 60.69 M 36.12 74.73 C 38.06 74.69 39.99 74.65 41.92 74.62 C 43.38 71.11 44.35 67.42 44.65 63.62 C 41.43 67.02 38.79 70.90 36.12 74.73 M 56.61 64.31 C 56.78 67.65 56.75 71.31 58.77 74.16 C 60.62 74.63 62.53 74.72 64.42 74.94 C 62.17 71.15 59.60 67.55 56.61 64.31 M 48.05 72.11 C 48.07 72.76 48.11 74.06 48.13 74.70 C 49.71 74.69 51.28 74.68 52.86 74.68 C 52.90 74.04 52.99 72.75 53.04 72.11 C 51.37 72.10 49.71 72.10 48.05 72.11 Z" />
<path fill="#ffffff" opacity="1.00" d=" M 48.87 37.93 C 48.34 33.28 47.15 28.24 49.86 24.00 C 53.34 27.94 52.19 33.18 51.65 37.89 C 50.95 37.90 49.57 37.92 48.87 37.93 Z" />
<path fill="#ffffff" opacity="1.00" d=" M 41.67 37.14 C 42.53 35.25 43.93 33.68 45.17 32.03 C 46.00 35.30 45.36 38.56 43.94 41.56 C 43.15 40.11 42.23 38.70 41.67 37.14 Z" />
<path fill="#ffffff" opacity="1.00" d=" M 55.59 32.66 C 57.18 34.83 58.35 37.29 58.74 39.97 C 57.22 39.17 55.71 38.35 54.19 37.56 C 54.65 35.92 55.11 34.29 55.59 32.66 Z" />
<path fill="#ffffff" opacity="1.00" d=" M 36.64 44.03 C 37.70 42.78 38.76 41.54 39.83 40.30 C 41.87 43.03 43.73 45.95 44.63 49.28 C 41.81 47.77 39.19 45.94 36.64 44.03 Z" />
<path fill="#ffffff" opacity="1.00" d=" M 56.34 49.22 C 56.92 45.86 58.75 42.98 61.02 40.52 C 61.87 41.82 62.71 43.13 63.54 44.44 C 61.19 46.10 58.82 47.74 56.34 49.22 Z" />
<path fill="#fefcfd" opacity="1.00" d=" M 46.73 41.44 C 49.28 41.42 51.82 41.41 54.37 41.43 C 54.38 44.52 54.38 47.62 54.37 50.71 C 57.67 50.72 60.98 50.73 64.28 50.76 C 64.29 53.29 64.29 55.82 64.29 58.35 C 60.99 58.38 57.68 58.39 54.38 58.38 C 54.39 61.68 54.38 64.98 54.36 68.29 C 51.82 68.29 49.28 68.28 46.74 68.28 C 46.72 64.98 46.71 61.68 46.71 58.38 C 43.41 58.39 40.12 58.38 36.82 58.35 C 36.82 55.82 36.82 53.29 36.83 50.76 C 40.12 50.73 43.42 50.72 46.71 50.72 C 46.71 47.62 46.72 44.53 46.73 41.44 Z" />
<path fill="#fefcfd" opacity="1.00" d=" M 34.42 47.30 C 35.36 45.76 38.27 47.17 37.24 48.84 C 36.28 50.34 33.34 48.99 34.42 47.30 Z" />
<path fill="#cbe3c6" opacity="1.00" d=" M 64.28 46.91 C 65.84 46.24 66.78 48.88 65.10 49.30 C 63.53 49.95 62.61 47.35 64.28 46.91 Z" />
<path fill="#ffffff" opacity="1.00" d=" M 28.94 56.01 C 29.66 54.87 30.38 53.74 31.09 52.60 C 31.74 52.70 33.04 52.90 33.69 53.00 C 33.67 53.63 33.64 54.90 33.62 55.53 C 32.06 55.69 30.50 55.85 28.94 56.01 Z" />
<path fill="#ffffff" opacity="1.00" d=" M 67.68 52.31 C 68.93 53.45 70.21 54.55 71.54 55.59 C 70.14 55.62 68.74 55.66 67.34 55.71 C 67.42 54.86 67.60 53.16 67.68 52.31 Z" />
<path fill="#ffffff" opacity="1.00" d=" M 66.90 59.22 C 68.41 59.40 69.92 59.60 71.43 59.81 C 70.46 60.70 69.49 61.59 68.52 62.49 C 67.97 61.41 67.43 60.32 66.90 59.22 Z" />
<path fill="#ffffff" opacity="1.00" d=" M 26.54 60.59 C 29.12 59.62 31.92 59.68 34.63 59.60 C 30.80 62.98 26.16 65.24 21.49 67.23 C 23.01 64.93 24.16 62.14 26.54 60.59 Z" />
<path fill="#f3f38a" opacity="1.00" d=" M 76.42 60.35 C 82.95 57.77 90.78 63.08 91.00 70.02 C 91.57 76.42 85.57 82.31 79.20 81.69 C 73.11 81.30 68.09 75.19 69.14 69.13 C 69.71 65.15 72.66 61.68 76.42 60.35 M 78.37 61.29 C 71.56 62.29 68.07 71.24 72.50 76.55 C 76.46 82.17 86.20 81.07 88.72 74.62 C 92.13 68.10 85.50 59.68 78.37 61.29 Z" />
<path fill="#ffffff" opacity="1.00" d=" M 20.74 74.77 C 27.45 69.90 33.41 63.47 41.44 60.80 C 38.35 65.18 34.49 68.96 30.65 72.66 C 28.13 75.47 24.06 74.48 20.74 74.77 Z" />
<path fill="#ffffff" opacity="1.00" d=" M 58.90 60.69 C 62.02 61.64 64.92 63.14 67.65 64.89 C 67.31 66.25 66.96 67.62 66.62 68.98 C 63.89 66.37 61.19 63.71 58.90 60.69 Z" />
<path fill="#278914" opacity="1.00" d=" M 78.37 61.29 C 85.50 59.68 92.13 68.10 88.72 74.62 C 86.20 81.07 76.46 82.17 72.50 76.55 C 68.07 71.24 71.56 62.29 78.37 61.29 M 76.52 63.46 C 71.01 65.80 70.44 74.40 75.58 77.45 C 80.48 80.95 88.22 77.11 88.07 71.00 C 88.59 65.14 81.67 60.72 76.52 63.46 Z" />
<path fill="#f3f38a" opacity="1.00" d=" M 76.52 63.46 C 81.67 60.72 88.59 65.14 88.07 71.00 C 88.22 77.11 80.48 80.95 75.58 77.45 C 70.44 74.40 71.01 65.80 76.52 63.46 M 76.98 68.04 C 77.49 70.01 77.08 73.67 79.98 73.72 C 82.70 73.70 83.56 70.76 82.50 68.61 C 80.69 68.24 78.83 68.14 76.98 68.04 Z" />
<path fill="#ffffff" opacity="1.00" d=" M 36.12 74.73 C 38.79 70.90 41.43 67.02 44.65 63.62 C 44.35 67.42 43.38 71.11 41.92 74.62 C 39.99 74.65 38.06 74.69 36.12 74.73 Z" />
<path fill="#ffffff" opacity="1.00" d=" M 56.61 64.31 C 59.60 67.55 62.17 71.15 64.42 74.94 C 62.53 74.72 60.62 74.63 58.77 74.16 C 56.75 71.31 56.78 67.65 56.61 64.31 Z" />
<path fill="#2d8c19" opacity="1.00" d=" M 76.98 68.04 C 78.83 68.14 80.69 68.24 82.50 68.61 C 83.56 70.76 82.70 73.70 79.98 73.72 C 77.08 73.67 77.49 70.01 76.98 68.04 Z" />
<path fill="#ffffff" opacity="1.00" d=" M 48.05 72.11 C 49.71 72.10 51.37 72.10 53.04 72.11 C 52.99 72.75 52.90 74.04 52.86 74.68 C 51.28 74.68 49.71 74.69 48.13 74.70 C 48.11 74.06 48.07 72.76 48.05 72.11 Z" />
</svg>
