<?xml version="1.0" encoding="UTF-8" ?>
<!DOCTYPE svg PUBLIC "-//W3C//DTD SVG 1.1//EN" "http://www.w3.org/Graphics/SVG/1.1/DTD/svg11.dtd">
<svg width="100pt" height="100pt" viewBox="0 0 100 100" version="1.1" xmlns="http://www.w3.org/2000/svg">
<path fill="#ffffff" opacity="1.00" d=" M 26.89 19.52 C 33.65 14.78 41.72 11.88 50.00 11.62 C 58.24 11.87 66.27 14.77 73.04 19.43 C 76.62 17.26 80.49 15.64 84.46 14.35 C 83.78 18.45 82.62 22.43 81.37 26.38 C 80.88 27.55 81.80 28.64 82.24 29.66 C 87.15 37.91 89.88 48.05 87.39 57.54 C 86.34 62.80 84.04 67.72 81.10 72.18 C 82.73 76.02 84.11 79.94 85.33 83.92 C 81.41 82.85 77.53 81.63 73.80 80.03 C 64.65 86.51 52.79 90.32 41.69 87.21 C 36.20 86.19 31.47 83.18 26.66 80.54 C 23.25 80.91 20.08 82.46 16.78 83.33 C 17.62 79.98 19.05 76.75 19.48 73.31 C 14.87 66.04 11.45 57.73 11.64 48.97 C 12.16 41.38 14.68 33.95 19.01 27.68 C 17.00 23.10 15.55 18.31 14.42 13.45 C 18.73 15.14 22.94 17.09 26.89 19.52 M 28.15 22.72 C 24.72 20.53 21.19 18.49 17.45 16.86 C 18.51 21.10 20.12 25.18 21.94 29.14 C 16.33 37.76 13.56 48.51 16.37 58.61 C 17.36 63.48 20.64 67.40 22.32 71.96 C 21.83 74.83 20.64 77.52 19.83 80.30 C 22.62 79.39 25.38 78.36 28.10 77.24 C 34.55 81.63 42.05 84.93 50.00 84.70 C 58.00 84.92 65.57 81.62 72.02 77.11 C 75.38 78.53 78.79 79.87 82.27 80.96 C 81.32 76.64 76.83 72.12 79.75 67.75 C 85.12 58.79 86.37 47.38 82.37 37.65 C 81.23 34.68 79.29 32.06 78.36 29.01 C 79.20 25.03 81.02 21.33 81.93 17.35 C 78.36 18.74 75.01 20.60 71.78 22.65 C 65.34 18.35 57.90 15.06 50.00 15.30 C 42.07 15.06 34.59 18.35 28.15 22.72 Z" />
<path fill="#482b46" opacity="1.00" d=" M 28.15 22.72 C 34.59 18.35 42.07 15.06 50.00 15.30 C 57.90 15.06 65.34 18.35 71.78 22.65 C 75.01 20.60 78.36 18.74 81.93 17.35 C 81.02 21.33 79.20 25.03 78.36 29.01 C 79.29 32.06 81.23 34.68 82.37 37.65 C 86.37 47.38 85.12 58.79 79.75 67.75 C 76.83 72.12 81.32 76.64 82.27 80.96 C 78.79 79.87 75.38 78.53 72.02 77.11 C 65.57 81.62 58.00 84.92 50.00 84.70 C 42.05 84.93 34.55 81.63 28.10 77.24 C 25.38 78.36 22.62 79.39 19.83 80.30 C 20.64 77.52 21.83 74.83 22.32 71.96 C 20.64 67.40 17.36 63.48 16.37 58.61 C 13.56 48.51 16.33 37.76 21.94 29.14 C 20.12 25.18 18.51 21.10 17.45 16.86 C 21.19 18.49 24.72 20.53 28.15 22.72 M 20.71 20.66 C 22.51 25.23 24.95 29.50 27.18 33.86 C 29.06 37.34 28.22 41.41 28.35 45.18 C 29.78 42.22 31.19 39.24 32.61 36.28 C 30.24 32.82 27.86 29.35 25.79 25.69 C 31.47 28.66 35.81 34.39 42.49 35.18 C 35.73 29.67 28.11 25.26 20.71 20.66 M 57.24 34.91 C 64.11 34.84 68.38 28.47 74.15 25.65 C 72.14 29.26 69.39 32.44 67.70 36.23 C 68.16 39.24 70.00 41.82 71.39 44.47 C 71.60 40.88 70.93 37.02 72.75 33.73 C 74.98 29.41 77.41 25.18 79.20 20.64 C 71.70 25.11 64.41 29.94 57.24 34.91 M 35.43 41.40 C 33.19 43.85 32.23 47.14 30.75 50.05 C 37.06 55.99 43.57 61.70 50.00 67.50 C 56.43 61.69 62.95 55.99 69.25 50.04 C 67.77 47.14 66.81 43.84 64.57 41.40 C 62.34 39.90 59.74 39.08 57.27 38.06 C 54.86 39.83 52.44 41.58 50.00 43.31 C 47.56 41.58 45.14 39.83 42.73 38.06 C 40.26 39.08 37.66 39.90 35.43 41.40 M 67.05 60.95 C 68.51 65.13 71.60 68.47 73.62 72.38 C 69.71 70.15 66.03 67.55 62.23 65.14 C 60.67 66.61 59.11 68.08 57.56 69.56 C 60.16 69.60 62.96 69.24 65.32 70.64 C 69.98 73.08 74.47 75.84 79.28 78.02 C 76.81 72.47 73.27 67.43 71.09 61.76 C 70.70 58.70 72.10 55.72 72.64 52.74 C 70.47 55.22 67.79 57.60 67.05 60.95 M 29.13 53.70 C 29.45 56.94 31.31 60.46 29.60 63.59 C 27.30 68.12 24.74 72.53 22.82 77.25 C 29.54 74.50 35.53 68.40 43.32 69.63 C 41.84 68.09 40.37 66.55 38.90 65.02 C 35.47 67.29 32.08 69.65 28.47 71.65 C 30.42 67.98 32.75 64.53 35.02 61.06 C 33.16 58.53 31.20 56.07 29.13 53.70 Z" />
<path fill="#ffffff" opacity="1.00" d=" M 20.71 20.66 C 28.11 25.26 35.73 29.67 42.49 35.18 C 35.81 34.39 31.47 28.66 25.79 25.69 C 27.86 29.35 30.24 32.82 32.61 36.28 C 31.19 39.24 29.78 42.22 28.35 45.18 C 28.22 41.41 29.06 37.34 27.18 33.86 C 24.95 29.50 22.51 25.23 20.71 20.66 Z" />
<path fill="#ffffff" opacity="1.00" d=" M 57.24 34.91 C 64.41 29.94 71.70 25.11 79.20 20.64 C 77.41 25.18 74.98 29.41 72.75 33.73 C 70.93 37.02 71.60 40.88 71.39 44.47 C 70.00 41.82 68.16 39.24 67.70 36.23 C 69.39 32.44 72.14 29.26 74.15 25.65 C 68.38 28.47 64.11 34.84 57.24 34.91 Z" />
<path fill="#ffffff" opacity="1.00" d=" M 35.43 41.40 C 37.66 39.90 40.26 39.08 42.73 38.06 C 45.14 39.83 47.56 41.58 50.00 43.31 C 52.44 41.58 54.86 39.83 57.27 38.06 C 59.74 39.08 62.34 39.90 64.57 41.40 C 66.81 43.84 67.77 47.14 69.25 50.04 C 62.95 55.99 56.43 61.69 50.00 67.50 C 43.57 61.70 37.06 55.99 30.75 50.05 C 32.23 47.14 33.19 43.85 35.43 41.40 M 39.61 41.47 C 35.83 42.55 34.90 46.77 33.30 49.84 C 38.87 54.84 44.35 59.93 50.00 64.83 C 55.65 59.93 61.13 54.84 66.70 49.84 C 65.10 46.77 64.17 42.55 60.39 41.47 C 56.38 39.32 53.18 43.70 50.00 45.50 C 46.83 43.70 43.62 39.32 39.61 41.47 Z" />
<path fill="#482b46" opacity="1.00" d=" M 39.61 41.47 C 43.62 39.32 46.83 43.70 50.00 45.50 C 53.18 43.70 56.38 39.32 60.39 41.47 C 64.17 42.55 65.10 46.77 66.70 49.84 C 61.13 54.84 55.65 59.93 50.00 64.83 C 44.35 59.93 38.87 54.84 33.30 49.84 C 34.90 46.77 35.83 42.55 39.61 41.47 M 41.68 54.74 C 44.32 57.46 47.14 59.98 49.98 62.49 C 53.43 59.46 56.85 56.40 60.20 53.26 C 54.29 56.16 47.88 53.96 41.68 54.74 Z" />
<path fill="#ffffff" opacity="1.00" d=" M 41.68 54.74 C 47.88 53.96 54.29 56.16 60.20 53.26 C 56.85 56.40 53.43 59.46 49.98 62.49 C 47.14 59.98 44.32 57.46 41.68 54.74 Z" />
<path fill="#ffffff" opacity="1.00" d=" M 67.05 60.95 C 67.79 57.60 70.47 55.22 72.64 52.74 C 72.10 55.72 70.70 58.70 71.09 61.76 C 73.27 67.43 76.81 72.47 79.28 78.02 C 74.47 75.84 69.98 73.08 65.32 70.64 C 62.96 69.24 60.16 69.60 57.56 69.56 C 59.11 68.08 60.67 66.61 62.23 65.14 C 66.03 67.55 69.71 70.15 73.62 72.38 C 71.60 68.47 68.51 65.13 67.05 60.95 Z" />
<path fill="#ffffff" opacity="1.00" d=" M 29.13 53.70 C 31.20 56.07 33.16 58.53 35.02 61.06 C 32.75 64.53 30.42 67.98 28.47 71.65 C 32.08 69.65 35.47 67.29 38.90 65.02 C 40.37 66.55 41.84 68.09 43.32 69.63 C 35.53 68.40 29.54 74.50 22.82 77.25 C 24.74 72.53 27.30 68.12 29.60 63.59 C 31.31 60.46 29.45 56.94 29.13 53.70 Z" />
</svg>
