<?xml version="1.0" encoding="UTF-8" ?>
<!DOCTYPE svg PUBLIC "-//W3C//DTD SVG 1.1//EN" "http://www.w3.org/Graphics/SVG/1.1/DTD/svg11.dtd">
<svg width="100pt" height="100pt" viewBox="0 0 100 100" version="1.1" xmlns="http://www.w3.org/2000/svg">
<path fill="#b4c1c5" opacity="1.00" d=" M 71.24 11.49 C 79.49 10.98 87.78 10.61 96.00 9.42 C 93.93 15.74 92.09 22.14 90.42 28.57 C 89.73 32.05 86.45 33.89 84.54 36.60 C 83.82 38.63 83.96 40.84 83.89 42.96 C 83.97 56.44 83.91 69.92 83.95 83.40 C 78.29 83.57 72.62 83.40 66.95 83.46 C 62.38 83.33 58.58 86.26 54.32 87.43 C 51.40 88.33 48.20 87.04 45.36 88.37 C 41.76 89.87 37.94 91.05 33.98 90.78 C 27.72 90.92 22.24 87.30 17.61 83.47 C 16.31 82.59 15.92 81.01 15.34 79.65 C 12.72 73.01 11.35 65.52 13.29 58.51 C 14.26 54.70 16.29 51.11 16.09 47.07 C 16.10 36.91 16.06 26.76 16.05 16.60 C 26.37 16.43 36.69 16.52 47.01 16.56 C 55.36 16.87 63.51 14.35 71.24 11.49 M 72.16 13.51 C 65.55 15.78 58.79 17.59 51.96 19.09 C 45.72 19.78 39.42 19.14 33.16 19.44 L 32.33 19.16 C 27.87 19.34 23.41 19.30 18.96 19.30 C 18.35 28.55 19.10 37.81 18.88 47.07 C 18.83 52.21 15.28 56.40 14.58 61.41 C 13.81 66.77 14.53 72.37 16.64 77.36 C 19.37 83.79 26.00 88.25 32.97 88.50 C 36.94 88.94 40.82 87.86 44.51 86.49 C 47.39 85.31 50.55 85.84 53.56 85.48 C 58.40 84.80 61.97 80.47 66.95 80.38 C 71.88 80.23 76.82 80.47 81.75 80.19 C 81.77 67.78 81.64 55.38 81.61 42.97 C 81.72 40.55 81.61 37.96 82.73 35.74 C 84.50 32.91 87.62 30.97 88.59 27.64 C 90.22 22.43 91.47 17.11 93.01 11.87 C 86.09 12.80 79.06 12.51 72.16 13.51 Z" />
<path fill="#e85a27" opacity="1.00" d=" M 72.16 13.51 C 79.06 12.51 86.09 12.80 93.01 11.87 C 91.47 17.11 90.22 22.43 88.59 27.64 C 87.62 30.97 84.50 32.91 82.73 35.74 C 81.61 37.96 81.72 40.55 81.61 42.97 C 81.64 55.38 81.77 67.78 81.75 80.19 C 76.82 80.47 71.88 80.23 66.95 80.38 C 61.97 80.47 58.40 84.80 53.56 85.48 C 50.55 85.84 47.39 85.31 44.51 86.49 C 40.82 87.86 36.94 88.94 32.97 88.50 C 26.00 88.25 19.37 83.79 16.64 77.36 C 14.53 72.37 13.81 66.77 14.58 61.41 C 15.28 56.40 18.83 52.21 18.88 47.07 C 19.10 37.81 18.35 28.55 18.96 19.30 C 23.41 19.30 27.87 19.34 32.33 19.16 C 33.20 22.56 33.46 26.35 35.71 29.19 C 37.61 30.78 40.33 30.75 42.62 31.40 C 41.78 28.44 41.07 25.32 39.22 22.79 C 37.81 20.81 35.30 20.26 33.16 19.44 C 39.42 19.14 45.72 19.78 51.96 19.09 C 58.79 17.59 65.55 15.78 72.16 13.51 M 68.95 17.75 C 65.48 19.26 61.51 18.72 57.98 20.06 C 53.07 22.02 48.86 25.80 46.61 30.62 C 44.16 34.77 44.27 41.16 38.98 42.95 C 35.51 44.49 32.05 46.36 28.24 46.86 C 24.24 45.53 24.73 40.93 24.47 37.58 C 22.86 37.30 21.25 37.02 19.64 36.76 C 19.81 41.62 23.31 45.10 26.35 48.48 C 23.08 50.76 19.42 53.16 18.18 57.17 C 15.95 63.99 16.56 71.81 19.89 78.17 C 24.33 85.87 34.87 87.83 42.68 84.65 C 48.34 81.55 48.89 74.48 51.19 69.12 C 52.74 64.66 57.73 61.82 62.35 62.68 C 64.60 63.53 65.94 65.73 67.59 67.37 C 69.48 67.24 71.40 66.82 73.29 67.15 C 75.87 68.24 77.90 70.27 80.13 71.91 C 78.88 67.34 75.76 62.76 77.54 57.91 C 76.71 58.64 75.88 59.38 75.06 60.11 C 72.11 58.39 68.94 57.12 65.61 56.41 C 67.45 55.59 69.37 54.88 71.07 53.78 C 71.56 52.19 71.35 50.52 71.34 48.89 C 69.43 49.33 67.53 49.79 65.63 50.24 C 65.33 52.28 65.01 54.32 64.66 56.36 C 64.10 54.22 63.78 52.00 62.92 49.95 C 60.51 47.28 56.64 47.91 53.51 48.59 C 55.77 50.49 60.49 51.61 59.43 55.44 C 59.17 59.00 55.23 60.02 52.85 61.91 C 48.69 64.36 47.61 69.37 45.23 73.22 C 42.81 77.60 38.49 80.52 34.06 82.61 C 30.58 80.76 26.59 79.02 24.69 75.31 C 21.99 70.78 23.57 65.41 23.84 60.50 C 29.52 54.91 37.76 54.01 44.84 51.09 C 43.07 52.70 41.33 54.36 39.68 56.09 C 42.50 57.11 45.48 57.53 48.48 57.62 C 45.15 59.60 41.65 62.27 37.54 61.62 C 35.62 59.80 34.37 57.44 32.91 55.28 C 31.15 56.78 29.41 58.31 27.70 59.87 C 29.58 61.76 31.48 63.63 33.37 65.50 C 31.70 64.96 30.03 64.40 28.35 63.89 C 30.52 66.12 32.70 68.88 36.00 69.31 C 39.15 69.74 42.49 69.73 45.48 68.56 C 47.54 66.57 48.81 63.90 50.93 61.96 C 52.83 60.15 55.21 58.90 56.98 56.95 C 57.78 55.38 58.03 53.62 58.47 51.94 C 55.71 51.38 52.94 50.92 50.15 50.51 C 52.76 49.11 55.13 46.30 58.36 46.86 C 61.34 47.06 64.37 48.10 67.34 47.36 C 73.01 45.23 78.26 41.07 80.13 35.11 C 81.20 31.20 85.77 29.63 86.59 25.61 C 87.67 22.05 88.55 18.43 89.64 14.87 C 82.77 16.03 75.26 14.17 68.95 17.75 M 25.55 24.08 C 27.56 23.18 29.55 22.26 31.54 21.34 C 30.82 20.84 29.37 19.85 28.65 19.35 C 27.60 20.92 26.57 22.49 25.55 24.08 M 26.42 35.46 C 26.07 38.48 26.56 41.51 26.45 44.54 C 28.35 44.81 30.26 45.04 32.16 45.27 C 31.92 43.63 31.65 42.00 31.39 40.36 C 33.79 40.97 36.20 41.91 38.70 41.70 C 41.38 41.20 41.91 38.08 43.00 36.03 C 38.25 32.90 30.91 31.00 26.42 35.46 M 72.42 46.53 C 73.16 50.83 71.02 55.78 74.22 59.40 C 76.43 56.75 78.39 53.91 80.61 51.26 C 80.59 49.63 80.57 48.00 80.56 46.36 C 77.85 45.87 75.10 45.89 72.42 46.53 M 20.12 49.13 C 19.67 50.55 20.15 51.02 21.55 50.54 C 21.99 49.13 21.52 48.66 20.12 49.13 M 55.14 65.06 C 52.60 66.97 52.36 70.43 51.47 73.24 C 53.84 73.55 56.26 74.17 58.65 73.70 C 61.51 72.98 63.74 70.93 66.01 69.16 C 65.65 67.75 65.30 66.33 64.96 64.91 C 62.04 65.86 59.10 66.73 56.09 67.33 C 58.22 66.17 60.36 65.04 62.45 63.81 C 60.00 63.91 57.21 63.42 55.14 65.06 M 36.28 72.50 C 37.65 74.03 39.05 75.54 40.45 77.04 C 41.84 75.28 43.17 73.47 44.41 71.60 C 41.66 71.25 38.91 71.68 36.28 72.50 M 51.22 77.63 C 50.25 79.25 49.30 80.89 48.35 82.53 C 54.77 84.97 61.52 80.00 64.42 74.44 C 60.48 76.98 55.92 78.33 51.22 77.63 Z" />
<path fill="#ffffff" opacity="1.00" d=" M 68.95 17.75 C 75.26 14.17 82.77 16.03 89.64 14.87 C 88.55 18.43 87.67 22.05 86.59 25.61 C 85.77 29.63 81.20 31.20 80.13 35.11 C 78.26 41.07 73.01 45.23 67.34 47.36 C 64.37 48.10 61.34 47.06 58.36 46.86 C 55.13 46.30 52.76 49.11 50.15 50.51 C 52.94 50.92 55.71 51.38 58.47 51.94 C 58.03 53.62 57.78 55.38 56.98 56.95 C 55.21 58.90 52.83 60.15 50.93 61.96 C 48.81 63.90 47.54 66.57 45.48 68.56 C 42.49 69.73 39.15 69.74 36.00 69.31 C 32.70 68.88 30.52 66.12 28.35 63.89 C 30.03 64.40 31.70 64.96 33.37 65.50 C 31.48 63.63 29.58 61.76 27.70 59.87 C 29.41 58.31 31.15 56.78 32.91 55.28 C 34.37 57.44 35.62 59.80 37.54 61.62 C 41.65 62.27 45.15 59.60 48.48 57.62 C 45.48 57.53 42.50 57.11 39.68 56.09 C 41.33 54.36 43.07 52.70 44.84 51.09 C 37.76 54.01 29.52 54.91 23.84 60.50 C 21.78 62.70 20.31 65.59 20.88 68.69 C 21.50 73.70 22.69 79.18 26.44 82.84 C 28.89 83.79 31.59 83.11 34.06 82.61 C 38.49 80.52 42.81 77.60 45.23 73.22 C 47.61 69.37 48.69 64.36 52.85 61.91 C 55.23 60.02 59.17 59.00 59.43 55.44 C 60.49 51.61 55.77 50.49 53.51 48.59 C 56.64 47.91 60.51 47.28 62.92 49.95 C 63.78 52.00 64.10 54.22 64.66 56.36 C 65.01 54.32 65.33 52.28 65.63 50.24 C 67.53 49.79 69.43 49.33 71.34 48.89 C 71.35 50.52 71.56 52.19 71.07 53.78 C 69.37 54.88 67.45 55.59 65.61 56.41 C 68.94 57.12 72.11 58.39 75.06 60.11 C 75.88 59.38 76.71 58.64 77.54 57.91 C 75.76 62.76 78.88 67.34 80.13 71.91 C 77.90 70.27 75.87 68.24 73.29 67.15 C 71.40 66.82 69.48 67.24 67.59 67.37 C 65.94 65.73 64.60 63.53 62.35 62.68 C 57.73 61.82 52.74 64.66 51.19 69.12 C 48.89 74.48 48.34 81.55 42.68 84.65 C 34.87 87.83 24.33 85.87 19.89 78.17 C 16.56 71.81 15.95 63.99 18.18 57.17 C 19.42 53.16 23.08 50.76 26.35 48.48 C 23.31 45.10 19.81 41.62 19.64 36.76 C 21.25 37.02 22.86 37.30 24.47 37.58 C 24.73 40.93 24.24 45.53 28.24 46.86 C 32.05 46.36 35.51 44.49 38.98 42.95 C 44.27 41.16 44.16 34.77 46.61 30.62 C 48.86 25.80 53.07 22.02 57.98 20.06 C 61.51 18.72 65.48 19.26 68.95 17.75 M 58.45 27.71 C 61.18 27.76 64.02 27.23 66.69 28.02 C 67.86 29.08 68.76 30.40 69.74 31.63 C 66.94 31.02 64.14 30.36 61.38 29.57 C 64.81 31.55 66.42 35.14 67.95 38.58 C 65.61 39.93 63.24 42.10 60.37 41.66 C 56.38 39.74 59.35 34.87 59.50 31.63 C 58.47 33.35 57.11 34.98 56.66 36.97 C 56.96 39.31 57.98 41.47 58.70 43.70 C 56.73 42.08 53.77 40.78 53.37 37.97 C 53.63 34.46 55.95 31.57 57.52 28.54 C 55.01 30.74 52.28 33.14 51.66 36.61 C 51.23 39.19 50.38 42.51 52.53 44.57 C 58.26 45.79 64.33 43.35 68.58 39.53 C 71.26 37.10 70.91 33.04 70.03 29.87 C 69.31 27.12 66.39 26.10 64.22 24.76 C 65.64 23.87 67.05 22.98 68.44 22.04 C 64.30 22.12 61.10 24.81 58.45 27.71 M 62.00 33.66 C 61.56 34.91 61.12 36.17 60.68 37.42 C 62.15 37.36 63.61 37.30 65.07 37.25 C 65.01 36.45 64.89 34.86 64.83 34.06 C 64.12 33.96 62.71 33.76 62.00 33.66 M 44.81 40.24 C 45.71 41.56 46.63 42.86 47.56 44.16 C 47.50 43.04 47.43 41.92 47.36 40.81 C 46.73 40.67 45.45 40.38 44.81 40.24 Z" />
<path fill="#fef5f2" opacity="1.00" d=" M 25.55 24.08 C 26.57 22.49 27.60 20.92 28.65 19.35 C 29.37 19.85 30.82 20.84 31.54 21.34 C 29.55 22.26 27.56 23.18 25.55 24.08 Z" />
<path fill="#ffffff" opacity="1.00" d=" M 32.33 19.16 L 33.16 19.44 C 35.30 20.26 37.81 20.81 39.22 22.79 C 41.07 25.32 41.78 28.44 42.62 31.40 C 40.33 30.75 37.61 30.78 35.71 29.19 C 33.46 26.35 33.20 22.56 32.33 19.16 Z" />
<path fill="#e85724" opacity="1.00" d=" M 58.45 27.71 C 61.10 24.81 64.30 22.12 68.44 22.04 C 67.05 22.98 65.64 23.87 64.22 24.76 C 66.39 26.10 69.31 27.12 70.03 29.87 C 70.91 33.04 71.26 37.10 68.58 39.53 C 64.33 43.35 58.26 45.79 52.53 44.57 C 50.38 42.51 51.23 39.19 51.66 36.61 C 52.28 33.14 55.01 30.74 57.52 28.54 C 55.95 31.57 53.63 34.46 53.37 37.97 C 53.77 40.78 56.73 42.08 58.70 43.70 C 57.98 41.47 56.96 39.31 56.66 36.97 C 57.11 34.98 58.47 33.35 59.50 31.63 C 59.35 34.87 56.38 39.74 60.37 41.66 C 63.24 42.10 65.61 39.93 67.95 38.58 C 66.42 35.14 64.81 31.55 61.38 29.57 C 64.14 30.36 66.94 31.02 69.74 31.63 C 68.76 30.40 67.86 29.08 66.69 28.02 C 64.02 27.23 61.18 27.76 58.45 27.71 M 53.15 41.79 C 52.13 42.97 54.13 44.80 55.26 43.80 C 56.23 42.63 54.28 40.83 53.15 41.79 Z" />
<path fill="#ffffff" opacity="1.00" d=" M 26.42 35.46 C 30.91 31.00 38.25 32.90 43.00 36.03 C 41.91 38.08 41.38 41.20 38.70 41.70 C 36.20 41.91 33.79 40.97 31.39 40.36 C 31.65 42.00 31.92 43.63 32.16 45.27 C 30.26 45.04 28.35 44.81 26.45 44.54 C 26.56 41.51 26.07 38.48 26.42 35.46 Z" />
<path fill="#e85826" opacity="1.00" d=" M 62.00 33.66 C 62.71 33.76 64.12 33.96 64.83 34.06 C 64.89 34.86 65.01 36.45 65.07 37.25 C 63.61 37.30 62.15 37.36 60.68 37.42 C 61.12 36.17 61.56 34.91 62.00 33.66 Z" />
<path fill="#e85724" opacity="1.00" d=" M 44.81 40.24 C 45.45 40.38 46.73 40.67 47.36 40.81 C 47.43 41.92 47.50 43.04 47.56 44.16 C 46.63 42.86 45.71 41.56 44.81 40.24 Z" />
<path fill="#ffffff" opacity="1.00" d=" M 53.15 41.79 C 54.28 40.83 56.23 42.63 55.26 43.80 C 54.13 44.80 52.13 42.97 53.15 41.79 Z" />
<path fill="#ffffff" opacity="1.00" d=" M 72.42 46.53 C 75.10 45.89 77.85 45.87 80.56 46.36 C 80.57 48.00 80.59 49.63 80.61 51.26 C 78.39 53.91 76.43 56.75 74.22 59.40 C 71.02 55.78 73.16 50.83 72.42 46.53 Z" />
<path fill="#fffaf8" opacity="1.00" d=" M 20.12 49.13 C 21.52 48.66 21.99 49.13 21.55 50.54 C 20.15 51.02 19.67 50.55 20.12 49.13 Z" />
<path fill="#fef4f1" opacity="1.00" d=" M 20.88 68.69 C 20.31 65.59 21.78 62.70 23.84 60.50 C 23.57 65.41 21.99 70.78 24.69 75.31 C 26.59 79.02 30.58 80.76 34.06 82.61 C 31.59 83.11 28.89 83.79 26.44 82.84 C 22.69 79.18 21.50 73.70 20.88 68.69 Z" />
<path fill="#ffffff" opacity="1.00" d=" M 55.14 65.06 C 57.21 63.42 60.00 63.91 62.45 63.81 C 60.36 65.04 58.22 66.17 56.09 67.33 C 59.10 66.73 62.04 65.86 64.96 64.91 C 65.30 66.33 65.65 67.75 66.01 69.16 C 63.74 70.93 61.51 72.98 58.65 73.70 C 56.26 74.17 53.84 73.55 51.47 73.24 C 52.36 70.43 52.60 66.97 55.14 65.06 Z" />
<path fill="#ffffff" opacity="1.00" d=" M 36.28 72.50 C 38.91 71.68 41.66 71.25 44.41 71.60 C 43.17 73.47 41.84 75.28 40.45 77.04 C 39.05 75.54 37.65 74.03 36.28 72.50 Z" />
<path fill="#ffffff" opacity="1.00" d=" M 51.22 77.63 C 55.92 78.33 60.48 76.98 64.42 74.44 C 61.52 80.00 54.77 84.97 48.35 82.53 C 49.30 80.89 50.25 79.25 51.22 77.63 Z" />
</svg>
