<?xml version="1.0" encoding="UTF-8" ?>
<!DOCTYPE svg PUBLIC "-//W3C//DTD SVG 1.1//EN" "http://www.w3.org/Graphics/SVG/1.1/DTD/svg11.dtd">
<svg width="100pt" height="100pt" viewBox="0 0 100 100" version="1.1" xmlns="http://www.w3.org/2000/svg">
<path fill="#bbc4bd" opacity="1.00" d=" M 30.13 16.49 C 45.12 16.62 60.11 16.28 75.09 16.61 C 77.41 20.17 78.28 24.41 79.74 28.34 C 83.10 37.95 86.35 47.59 89.88 57.13 C 77.54 65.45 65.15 73.70 52.91 82.17 C 44.67 76.39 36.20 70.96 27.97 65.18 C 24.92 66.85 21.85 68.51 18.79 70.16 C 16.57 66.08 14.29 62.04 11.86 58.09 C 13.93 56.49 16.08 55.00 18.32 53.66 C 15.74 53.42 13.14 53.33 10.54 53.23 C 10.61 48.94 10.47 44.64 10.27 40.35 C 14.48 40.73 18.69 41.21 22.92 41.08 C 18.94 38.79 14.69 37.05 10.33 35.64 C 12.53 31.81 14.59 27.90 16.54 23.95 C 19.63 25.67 22.72 27.37 25.85 29.02 C 27.30 24.85 28.75 20.68 30.13 16.49 M 32.27 19.39 C 30.72 23.85 29.15 28.31 27.63 32.79 C 24.33 31.00 21.04 29.22 17.73 27.46 C 16.45 29.68 15.15 31.87 13.81 34.05 C 17.70 35.65 21.60 37.23 25.50 38.79 C 24.91 40.52 24.31 42.25 23.72 43.98 C 20.10 43.68 16.48 43.41 12.86 43.19 C 12.92 45.72 12.97 48.25 13.04 50.78 C 15.83 50.66 18.62 50.50 21.41 50.39 C 20.54 54.07 18.81 57.48 15.93 59.99 C 17.25 62.15 18.50 64.35 19.70 66.57 C 22.60 65.22 25.41 63.20 28.68 62.95 C 31.59 63.84 33.97 65.85 36.46 67.52 C 41.80 71.48 47.47 74.98 52.94 78.74 C 64.05 71.15 75.25 63.70 86.34 56.08 C 82.15 43.84 77.72 31.67 73.64 19.40 C 59.85 19.36 46.06 19.48 32.27 19.39 Z" />
<path fill="#8a1b6c" opacity="1.00" d=" M 32.27 19.39 C 46.06 19.48 59.85 19.36 73.64 19.40 C 77.72 31.67 82.15 43.84 86.34 56.08 C 75.25 63.70 64.05 71.15 52.94 78.74 C 47.47 74.98 41.80 71.48 36.46 67.52 C 33.97 65.85 31.59 63.84 28.68 62.95 C 25.41 63.20 22.60 65.22 19.70 66.57 C 18.50 64.35 17.25 62.15 15.93 59.99 C 18.81 57.48 20.54 54.07 21.41 50.39 C 18.62 50.50 15.83 50.66 13.04 50.78 C 12.97 48.25 12.92 45.72 12.86 43.19 C 16.48 43.41 20.10 43.68 23.72 43.98 C 24.31 42.25 24.91 40.52 25.50 38.79 C 21.60 37.23 17.70 35.65 13.81 34.05 C 15.15 31.87 16.45 29.68 17.73 27.46 C 21.04 29.22 24.33 31.00 27.63 32.79 C 29.15 28.31 30.72 23.85 32.27 19.39 M 34.11 21.38 C 33.62 23.18 33.12 24.98 32.64 26.78 C 35.80 22.65 41.05 22.77 45.76 22.64 C 44.90 25.54 44.00 28.42 43.05 31.29 C 46.29 29.28 49.83 26.89 53.82 27.22 C 57.63 28.38 60.89 30.80 64.31 32.78 C 60.47 36.51 55.53 38.55 50.19 38.85 C 48.97 49.05 51.38 59.17 50.88 69.38 C 54.44 68.89 58.00 68.41 61.57 68.06 C 58.67 70.49 55.70 72.85 52.83 75.31 C 47.64 71.67 42.43 68.05 36.91 64.93 C 41.87 69.32 47.46 72.91 52.82 76.79 C 62.96 69.08 73.21 61.50 83.31 53.73 C 79.70 42.84 75.90 32.01 71.83 21.28 C 59.25 21.00 46.68 21.85 34.11 21.38 M 46.86 31.71 C 44.39 34.90 42.61 38.57 40.37 41.92 C 43.09 41.85 45.81 41.82 48.53 41.75 C 46.74 40.70 44.96 39.63 43.20 38.55 C 47.40 33.85 54.03 34.14 59.55 32.22 C 55.55 31.14 50.49 28.46 46.86 31.71 M 16.93 33.09 C 22.71 35.14 28.33 37.64 34.28 39.16 C 29.39 35.90 24.03 33.44 18.94 30.51 C 18.28 31.38 17.61 32.24 16.93 33.09 M 41.80 46.26 C 43.98 47.13 46.13 48.05 48.28 48.98 C 47.25 46.88 46.26 44.75 45.32 42.61 C 44.18 43.86 42.98 45.05 41.80 46.26 M 15.87 45.35 C 15.20 46.29 14.96 47.34 15.15 48.49 C 21.22 48.22 27.31 48.23 33.35 47.42 C 27.54 46.56 21.68 46.12 15.87 45.35 M 44.29 49.18 C 43.26 50.43 45.37 52.17 46.38 50.87 C 47.41 49.62 45.29 47.87 44.29 49.18 M 18.21 60.36 C 18.85 61.49 19.49 62.61 20.14 63.73 C 25.54 60.78 31.13 58.18 36.30 54.84 C 30.16 56.29 24.22 58.46 18.21 60.36 M 43.55 57.17 C 43.89 60.27 43.02 63.70 44.36 66.58 C 46.05 67.42 48.04 67.68 49.84 68.32 C 48.79 66.80 47.64 65.33 46.75 63.71 C 47.03 60.53 48.59 57.63 49.59 54.64 C 47.58 55.47 45.57 56.34 43.55 57.17 Z" />
<path fill="#ffffff" opacity="1.00" d=" M 34.11 21.38 C 46.68 21.85 59.25 21.00 71.83 21.28 C 75.90 32.01 79.70 42.84 83.31 53.73 C 73.21 61.50 62.96 69.08 52.82 76.79 C 47.46 72.91 41.87 69.32 36.91 64.93 C 42.43 68.05 47.64 71.67 52.83 75.31 C 55.70 72.85 58.67 70.49 61.57 68.06 C 58.00 68.41 54.44 68.89 50.88 69.38 C 51.38 59.17 48.97 49.05 50.19 38.85 C 55.53 38.55 60.47 36.51 64.31 32.78 C 60.89 30.80 57.63 28.38 53.82 27.22 C 49.83 26.89 46.29 29.28 43.05 31.29 C 44.00 28.42 44.90 25.54 45.76 22.64 C 41.05 22.77 35.80 22.65 32.64 26.78 C 33.12 24.98 33.62 23.18 34.11 21.38 M 56.84 22.19 C 60.64 25.42 64.48 28.63 68.75 31.23 C 66.78 34.00 65.03 37.14 62.05 38.96 C 59.13 40.74 55.64 41.07 52.37 41.80 C 52.34 48.22 52.86 54.63 53.61 61.00 C 56.19 59.88 58.79 58.76 61.39 57.68 C 61.69 59.94 62.06 62.19 62.50 64.43 C 70.04 63.07 75.34 57.37 81.28 53.07 C 78.26 43.87 75.23 34.67 72.78 25.30 C 67.50 24.10 62.24 22.74 56.84 22.19 Z" />
<path fill="#8a1b6c" opacity="1.00" d=" M 56.84 22.19 C 62.24 22.74 67.50 24.10 72.78 25.30 C 75.23 34.67 78.26 43.87 81.28 53.07 C 75.34 57.37 70.04 63.07 62.50 64.43 C 62.06 62.19 61.69 59.94 61.39 57.68 C 58.79 58.76 56.19 59.88 53.61 61.00 C 52.86 54.63 52.34 48.22 52.37 41.80 C 55.64 41.07 59.13 40.74 62.05 38.96 C 65.03 37.14 66.78 34.00 68.75 31.23 C 64.48 28.63 60.64 25.42 56.84 22.19 Z" />
<path fill="#ffffff" opacity="1.00" d=" M 46.86 31.71 C 50.49 28.46 55.55 31.14 59.55 32.22 C 54.03 34.14 47.40 33.85 43.20 38.55 C 44.96 39.63 46.74 40.70 48.53 41.75 C 45.81 41.82 43.09 41.85 40.37 41.92 C 42.61 38.57 44.39 34.90 46.86 31.71 Z" />
<path fill="#ffffff" opacity="1.00" d=" M 16.93 33.09 C 17.61 32.24 18.28 31.38 18.94 30.51 C 24.03 33.44 29.39 35.90 34.28 39.16 C 28.33 37.64 22.71 35.14 16.93 33.09 Z" />
<path fill="#ffffff" opacity="1.00" d=" M 41.80 46.26 C 42.98 45.05 44.18 43.86 45.32 42.61 C 46.26 44.75 47.25 46.88 48.28 48.98 C 46.13 48.05 43.98 47.13 41.80 46.26 Z" />
<path fill="#ffffff" opacity="1.00" d=" M 15.87 45.35 C 21.68 46.12 27.54 46.56 33.35 47.42 C 27.31 48.23 21.22 48.22 15.15 48.49 C 14.96 47.34 15.20 46.29 15.87 45.35 Z" />
<path fill="#ffffff" opacity="1.00" d=" M 44.29 49.18 C 45.29 47.87 47.41 49.62 46.38 50.87 C 45.37 52.17 43.26 50.43 44.29 49.18 Z" />
<path fill="#ffffff" opacity="1.00" d=" M 18.21 60.36 C 24.22 58.46 30.16 56.29 36.30 54.84 C 31.13 58.18 25.54 60.78 20.14 63.73 C 19.49 62.61 18.85 61.49 18.21 60.36 Z" />
<path fill="#ffffff" opacity="1.00" d=" M 43.55 57.17 C 45.57 56.34 47.58 55.47 49.59 54.64 C 48.59 57.63 47.03 60.53 46.75 63.71 C 47.64 65.33 48.79 66.80 49.84 68.32 C 48.04 67.68 46.05 67.42 44.36 66.58 C 43.02 63.70 43.89 60.27 43.55 57.17 Z" />
</svg>
