<?xml version="1.0" encoding="UTF-8" ?>
<!DOCTYPE svg PUBLIC "-//W3C//DTD SVG 1.1//EN" "http://www.w3.org/Graphics/SVG/1.1/DTD/svg11.dtd">
<svg width="100pt" height="100pt" viewBox="0 0 100 100" version="1.1" xmlns="http://www.w3.org/2000/svg">
<path fill="#b8baba" opacity="1.00" d=" M 40.37 18.47 C 44.95 14.01 48.19 8.45 52.01 3.37 C 57.87 11.05 62.21 19.86 64.01 29.39 C 74.98 29.58 85.94 29.44 96.91 29.51 C 93.10 34.22 89.74 39.28 86.26 44.23 C 74.39 61.18 62.50 78.12 50.66 95.09 C 34.77 73.22 19.15 51.16 3.49 29.14 C 9.48 29.02 15.59 29.96 21.49 28.80 C 24.22 23.80 26.66 18.61 27.98 13.05 C 30.55 12.58 33.12 12.10 35.70 11.63 C 37.24 13.92 38.77 16.22 40.37 18.47 M 39.43 22.34 C 37.17 19.21 35.33 14.50 30.68 15.01 C 28.87 21.11 25.77 26.69 23.45 32.59 C 18.97 32.69 14.48 32.73 10.00 32.84 C 18.77 45.41 27.84 57.76 36.74 70.22 C 41.42 76.55 45.66 83.21 50.69 89.27 C 59.52 76.87 68.10 64.29 76.81 51.81 C 81.08 45.52 85.75 39.50 89.57 32.91 C 80.10 32.41 70.62 32.85 61.15 32.69 C 60.46 23.97 57.23 15.59 52.02 8.58 C 48.26 13.54 44.98 19.13 39.43 22.34 Z" />
<path fill="#b61c2e" opacity="1.00" d=" M 39.43 22.34 C 44.98 19.13 48.26 13.54 52.02 8.58 C 57.23 15.59 60.46 23.97 61.15 32.69 C 70.62 32.85 80.10 32.41 89.57 32.91 C 85.75 39.50 81.08 45.52 76.81 51.81 C 68.10 64.29 59.52 76.87 50.69 89.27 C 45.66 83.21 41.42 76.55 36.74 70.22 C 27.84 57.76 18.77 45.41 10.00 32.84 C 14.48 32.73 18.97 32.69 23.45 32.59 C 25.77 26.69 28.87 21.11 30.68 15.01 C 35.33 14.50 37.17 19.21 39.43 22.34 M 38.77 26.21 C 36.60 23.60 34.65 20.81 32.75 18.00 C 31.10 24.69 26.71 30.27 25.36 37.07 C 27.53 35.94 29.68 34.77 31.87 33.68 C 32.55 36.10 33.01 38.61 34.13 40.88 C 40.14 52.26 40.53 65.47 44.56 77.52 C 45.73 80.46 47.76 82.92 49.66 85.41 C 49.46 83.35 49.21 81.29 48.97 79.23 C 55.39 73.47 63.86 69.73 67.88 61.66 C 64.71 63.30 61.66 65.18 58.51 66.87 C 61.04 63.33 63.88 60.03 67.02 57.03 C 71.14 52.95 76.20 49.81 79.55 44.98 C 72.49 46.67 65.79 49.53 59.01 52.05 C 54.27 53.90 49.27 55.42 45.20 58.58 C 53.83 56.38 61.82 52.24 70.46 50.03 C 66.27 54.32 61.59 58.14 57.77 62.79 C 54.01 67.18 51.12 72.21 48.11 77.11 C 46.48 71.64 45.30 66.05 44.51 60.40 C 43.00 53.88 41.41 47.35 40.95 40.64 C 45.82 39.59 47.44 45.19 49.97 48.12 C 53.75 42.40 57.69 36.13 57.69 29.04 C 57.23 23.50 54.46 18.52 52.05 13.63 C 48.61 18.77 44.27 23.28 38.77 26.21 M 33.52 63.78 C 35.71 62.99 37.75 61.83 39.51 60.30 C 37.35 61.16 35.32 62.31 33.52 63.78 Z" />
<path fill="#ffffff" opacity="1.00" d=" M 38.77 26.21 C 44.27 23.28 48.61 18.77 52.05 13.63 C 54.46 18.52 57.23 23.50 57.69 29.04 C 57.69 36.13 53.75 42.40 49.97 48.12 C 47.44 45.19 45.82 39.59 40.95 40.64 C 41.41 47.35 43.00 53.88 44.51 60.40 C 45.30 66.05 46.48 71.64 48.11 77.11 C 51.12 72.21 54.01 67.18 57.77 62.79 C 61.59 58.14 66.27 54.32 70.46 50.03 C 61.82 52.24 53.83 56.38 45.20 58.58 C 49.27 55.42 54.27 53.90 59.01 52.05 C 65.79 49.53 72.49 46.67 79.55 44.98 C 76.20 49.81 71.14 52.95 67.02 57.03 C 63.88 60.03 61.04 63.33 58.51 66.87 C 61.66 65.18 64.71 63.30 67.88 61.66 C 63.86 69.73 55.39 73.47 48.97 79.23 C 49.21 81.29 49.46 83.35 49.66 85.41 C 47.76 82.92 45.73 80.46 44.56 77.52 C 40.53 65.47 40.14 52.26 34.13 40.88 C 33.01 38.61 32.55 36.10 31.87 33.68 C 29.68 34.77 27.53 35.94 25.36 37.07 C 26.71 30.27 31.10 24.69 32.75 18.00 C 34.65 20.81 36.60 23.60 38.77 26.21 Z" />
<path fill="#ffffff" opacity="1.00" d=" M 33.52 63.78 C 35.32 62.31 37.35 61.16 39.51 60.30 C 37.75 61.83 35.71 62.99 33.52 63.78 Z" />
</svg>
