<?xml version="1.0" encoding="UTF-8" ?>
<!DOCTYPE svg PUBLIC "-//W3C//DTD SVG 1.1//EN" "http://www.w3.org/Graphics/SVG/1.1/DTD/svg11.dtd">
<svg width="100pt" height="100pt" viewBox="0 0 100 100" version="1.1" xmlns="http://www.w3.org/2000/svg">
<path fill="#bfbebc" opacity="1.00" d=" M 30.43 19.45 C 36.11 15.24 44.04 14.61 48.35 8.55 C 51.55 11.15 54.53 14.40 58.81 15.10 C 72.04 18.24 82.72 29.80 84.90 43.20 C 85.65 47.57 85.12 52.12 86.58 56.36 C 89.02 61.84 85.37 67.75 80.71 70.64 C 77.29 72.82 74.25 75.51 71.25 78.22 C 71.72 81.43 73.66 86.07 70.06 88.12 C 66.89 90.56 62.67 90.07 58.93 90.60 C 57.80 88.81 56.66 87.03 55.54 85.24 C 48.29 85.69 40.72 85.24 34.17 81.81 C 31.22 80.46 28.81 78.16 25.81 76.93 C 22.00 77.24 18.17 77.61 14.36 77.06 C 13.67 74.39 12.77 71.75 12.47 68.99 C 12.43 65.18 16.15 62.02 15.00 58.10 C 11.68 43.82 17.19 26.77 30.43 19.45 M 23.84 28.84 C 19.42 35.89 16.23 44.31 17.44 52.75 C 17.73 55.47 18.54 58.13 18.48 60.88 C 17.73 63.41 16.14 65.61 15.44 68.16 C 15.06 70.27 15.87 72.40 16.74 74.30 C 20.14 75.28 23.59 73.97 26.89 73.19 C 31.58 76.78 36.62 80.27 42.53 81.42 C 46.76 82.38 51.17 81.82 55.41 82.64 C 57.61 84.23 58.89 86.74 60.44 88.91 C 63.82 88.44 67.53 88.20 70.22 85.83 C 70.06 82.75 68.61 79.97 67.38 77.21 C 71.22 73.67 75.43 70.60 79.79 67.74 C 82.94 65.75 85.22 61.97 83.87 58.20 C 81.76 51.06 82.83 43.24 79.58 36.42 C 76.80 30.30 72.14 25.04 66.38 21.58 C 60.90 18.11 53.45 18.47 49.18 13.04 C 40.70 18.19 30.12 20.60 23.84 28.84 Z" />
<path fill="#2b4269" opacity="1.00" d=" M 23.84 28.84 C 30.12 20.60 40.70 18.19 49.18 13.04 C 53.45 18.47 60.90 18.11 66.38 21.58 C 72.14 25.04 76.80 30.30 79.58 36.42 C 82.83 43.24 81.76 51.06 83.87 58.20 C 85.22 61.97 82.94 65.75 79.79 67.74 C 75.43 70.60 71.22 73.67 67.38 77.21 C 68.61 79.97 70.06 82.75 70.22 85.83 C 67.53 88.20 63.82 88.44 60.44 88.91 C 58.89 86.74 57.61 84.23 55.41 82.64 C 51.17 81.82 46.76 82.38 42.53 81.42 C 36.62 80.27 31.58 76.78 26.89 73.19 C 23.59 73.97 20.14 75.28 16.74 74.30 C 15.87 72.40 15.06 70.27 15.44 68.16 C 16.14 65.61 17.73 63.41 18.48 60.88 C 18.54 58.13 17.73 55.47 17.44 52.75 C 16.23 44.31 19.42 35.89 23.84 28.84 M 26.84 29.81 C 21.54 38.41 23.94 48.96 26.98 57.93 C 22.65 61.41 17.53 65.70 18.20 71.90 C 20.82 71.90 23.64 71.52 25.03 68.99 C 28.77 63.60 34.76 59.02 41.60 59.33 C 43.13 60.40 44.45 61.73 45.83 62.99 C 45.21 65.08 44.60 67.17 44.00 69.26 C 47.15 70.02 50.40 70.24 53.62 69.80 C 54.38 64.57 55.54 59.30 58.72 54.94 C 59.82 57.25 61.25 59.47 61.74 62.01 C 61.83 64.49 61.28 67.00 60.29 69.27 C 58.95 70.20 57.45 70.85 55.99 71.55 C 57.56 71.46 59.12 71.38 60.70 71.31 C 59.87 74.81 57.99 77.87 55.71 80.60 C 57.14 80.11 58.57 79.63 60.00 79.16 C 60.03 80.89 60.04 82.62 60.05 84.36 C 62.38 84.49 64.72 84.64 67.06 84.74 C 65.77 80.51 62.18 75.62 65.31 71.39 C 69.45 68.97 74.59 68.53 78.38 65.41 C 80.81 63.64 82.42 60.23 80.89 57.38 C 79.37 53.79 75.69 52.04 72.34 50.56 C 72.01 51.62 71.68 52.68 71.35 53.74 C 74.17 55.47 78.87 56.83 78.81 60.81 C 76.76 65.67 71.04 67.20 66.60 69.11 C 67.28 67.49 67.99 65.89 68.69 64.28 C 68.17 62.46 66.81 60.54 67.70 58.63 C 69.08 55.00 70.53 51.35 70.79 47.44 C 68.29 49.54 66.06 52.07 63.06 53.49 C 59.97 52.05 57.44 49.72 54.68 47.77 C 55.31 44.95 55.35 42.01 56.27 39.27 C 57.71 36.27 61.30 35.58 64.21 34.81 C 62.34 36.44 60.36 37.93 58.38 39.42 C 59.50 42.46 59.82 45.69 59.88 48.92 C 60.92 49.98 61.96 51.05 63.00 52.11 C 64.85 50.78 66.74 49.50 68.63 48.22 C 67.38 45.86 66.15 43.48 65.01 41.06 C 66.79 43.22 68.51 45.44 70.35 47.57 C 70.51 45.01 71.23 42.24 70.17 39.79 C 68.55 37.13 65.75 35.55 63.56 33.44 C 60.30 30.61 57.22 26.82 52.60 26.45 C 44.35 25.73 36.34 28.50 28.71 31.32 C 31.66 28.70 34.59 26.02 37.97 23.97 C 42.02 21.36 46.83 20.14 50.61 17.08 C 41.80 19.15 33.16 23.23 26.84 29.81 Z" />
<path fill="#ffffff" opacity="1.00" d=" M 26.84 29.81 C 33.16 23.23 41.80 19.15 50.61 17.08 C 46.83 20.14 42.02 21.36 37.97 23.97 C 34.59 26.02 31.66 28.70 28.71 31.32 C 36.34 28.50 44.35 25.73 52.60 26.45 C 57.22 26.82 60.30 30.61 63.56 33.44 C 65.75 35.55 68.55 37.13 70.17 39.79 C 71.23 42.24 70.51 45.01 70.35 47.57 C 68.51 45.44 66.79 43.22 65.01 41.06 C 66.15 43.48 67.38 45.86 68.63 48.22 C 66.74 49.50 64.85 50.78 63.00 52.11 C 61.96 51.05 60.92 49.98 59.88 48.92 C 59.82 45.69 59.50 42.46 58.38 39.42 C 60.36 37.93 62.34 36.44 64.21 34.81 C 61.30 35.58 57.71 36.27 56.27 39.27 C 55.35 42.01 55.31 44.95 54.68 47.77 C 57.44 49.72 59.97 52.05 63.06 53.49 C 66.06 52.07 68.29 49.54 70.79 47.44 C 70.53 51.35 69.08 55.00 67.70 58.63 C 66.81 60.54 68.17 62.46 68.69 64.28 C 67.99 65.89 67.28 67.49 66.60 69.11 C 71.04 67.20 76.76 65.67 78.81 60.81 C 78.87 56.83 74.17 55.47 71.35 53.74 C 71.68 52.68 72.01 51.62 72.34 50.56 C 75.69 52.04 79.37 53.79 80.89 57.38 C 82.42 60.23 80.81 63.64 78.38 65.41 C 74.59 68.53 69.45 68.97 65.31 71.39 C 62.18 75.62 65.77 80.51 67.06 84.74 C 64.72 84.64 62.38 84.49 60.05 84.36 C 60.04 82.62 60.03 80.89 60.00 79.16 C 58.57 79.63 57.14 80.11 55.71 80.60 C 57.99 77.87 59.87 74.81 60.70 71.31 C 59.12 71.38 57.56 71.46 55.99 71.55 C 57.45 70.85 58.95 70.20 60.29 69.27 C 61.28 67.00 61.83 64.49 61.74 62.01 C 61.25 59.47 59.82 57.25 58.72 54.94 C 55.54 59.30 54.38 64.57 53.62 69.80 C 50.40 70.24 47.15 70.02 44.00 69.26 C 44.60 67.17 45.21 65.08 45.83 62.99 C 44.45 61.73 43.13 60.40 41.60 59.33 C 34.76 59.02 28.77 63.60 25.03 68.99 C 23.64 71.52 20.82 71.90 18.20 71.90 C 17.53 65.70 22.65 61.41 26.98 57.93 C 23.94 48.96 21.54 38.41 26.84 29.81 M 26.73 38.62 C 25.39 44.96 26.53 51.56 28.50 57.65 C 30.64 55.43 32.74 53.19 34.92 51.02 C 39.20 53.78 42.97 57.24 47.32 59.89 C 43.88 55.55 39.60 51.24 33.88 50.33 C 36.92 45.58 41.32 41.78 46.91 40.48 C 46.75 38.48 46.58 36.49 46.42 34.50 C 41.99 34.07 37.52 33.30 33.07 33.79 C 30.50 34.47 27.43 35.76 26.73 38.62 M 50.25 46.05 C 50.69 49.14 51.14 52.23 51.34 55.34 C 53.09 54.67 54.86 54.05 56.64 53.47 C 54.49 51.01 52.39 48.51 50.25 46.05 Z" />
<path fill="#2b4269" opacity="1.00" d=" M 26.73 38.62 C 27.43 35.76 30.50 34.47 33.07 33.79 C 37.52 33.30 41.99 34.07 46.42 34.50 C 46.58 36.49 46.75 38.48 46.91 40.48 C 41.32 41.78 36.92 45.58 33.88 50.33 C 39.60 51.24 43.88 55.55 47.32 59.89 C 42.97 57.24 39.20 53.78 34.92 51.02 C 32.74 53.19 30.64 55.43 28.50 57.65 C 26.53 51.56 25.39 44.96 26.73 38.62 Z" />
<path fill="#2b4269" opacity="1.00" d=" M 50.25 46.05 C 52.39 48.51 54.49 51.01 56.64 53.47 C 54.86 54.05 53.09 54.67 51.34 55.34 C 51.14 52.23 50.69 49.14 50.25 46.05 Z" />
</svg>
