<?xml version="1.0" encoding="UTF-8" ?>
<!DOCTYPE svg PUBLIC "-//W3C//DTD SVG 1.1//EN" "http://www.w3.org/Graphics/SVG/1.1/DTD/svg11.dtd">
<svg width="100pt" height="100pt" viewBox="0 0 100 100" version="1.1" xmlns="http://www.w3.org/2000/svg">
<path fill="#b9bbb9" opacity="1.00" d=" M 15.45 18.69 C 19.24 13.96 26.58 12.08 32.05 14.88 C 34.19 15.69 33.91 18.40 34.63 20.20 C 44.45 20.52 54.28 20.28 64.11 20.37 C 63.77 18.63 63.42 16.89 63.11 15.14 C 68.98 12.86 75.55 13.39 81.36 15.57 C 83.55 16.40 84.68 18.62 86.39 20.08 C 88.24 20.56 90.17 20.58 92.06 20.76 C 88.83 25.29 84.87 29.59 83.52 35.14 C 81.04 41.68 82.19 48.80 81.76 55.63 C 76.47 58.02 71.19 60.44 65.88 62.80 C 58.18 65.50 55.47 73.97 50.60 79.76 C 46.90 75.29 44.11 70.09 40.13 65.86 C 33.60 61.20 25.04 59.88 18.81 54.88 C 17.93 48.39 19.63 41.56 17.01 35.35 C 15.54 29.60 11.36 25.18 7.98 20.49 C 10.45 20.06 13.74 21.00 15.45 18.69 M 18.12 18.03 C 18.22 19.70 18.32 21.37 18.43 23.04 C 17.01 23.25 15.59 23.47 14.17 23.68 C 15.90 26.30 17.93 28.83 18.82 31.89 C 20.76 39.12 20.70 46.67 20.67 54.10 C 26.73 57.29 33.07 59.89 39.30 62.72 C 44.58 64.92 47.20 70.29 50.67 74.47 C 52.56 71.75 54.30 68.90 56.44 66.36 C 58.80 63.49 62.39 62.16 65.68 60.69 C 70.50 58.68 75.24 56.47 79.85 54.03 C 79.81 46.61 79.95 39.13 81.54 31.85 C 82.19 28.77 84.13 26.21 85.81 23.61 C 84.66 23.50 83.51 23.40 82.37 23.30 C 82.41 21.55 82.45 19.79 82.50 18.04 C 77.08 16.00 71.24 15.07 65.51 16.31 C 66.41 18.75 67.34 21.18 68.23 23.63 C 60.66 23.47 53.15 21.83 45.57 22.54 C 40.89 22.97 36.22 23.46 31.52 23.61 C 31.70 21.33 31.89 19.05 32.08 16.77 C 27.41 14.87 22.49 15.84 18.12 18.03 Z" />
<path fill="#941271" opacity="1.00" d=" M 18.12 18.03 C 22.49 15.84 27.41 14.87 32.08 16.77 C 31.89 19.05 31.70 21.33 31.52 23.61 C 36.22 23.46 40.89 22.97 45.57 22.54 C 53.15 21.83 60.66 23.47 68.23 23.63 C 67.34 21.18 66.41 18.75 65.51 16.31 C 71.24 15.07 77.08 16.00 82.50 18.04 C 82.45 19.79 82.41 21.55 82.37 23.30 C 83.51 23.40 84.66 23.50 85.81 23.61 C 84.13 26.21 82.19 28.77 81.54 31.85 C 79.95 39.13 79.81 46.61 79.85 54.03 C 75.24 56.47 70.50 58.68 65.68 60.69 C 62.39 62.16 58.80 63.49 56.44 66.36 C 54.30 68.90 52.56 71.75 50.67 74.47 C 47.20 70.29 44.58 64.92 39.30 62.72 C 33.07 59.89 26.73 57.29 20.67 54.10 C 20.70 46.67 20.76 39.12 18.82 31.89 C 17.93 28.83 15.90 26.30 14.17 23.68 C 15.59 23.47 17.01 23.25 18.43 23.04 C 18.32 21.37 18.22 19.70 18.12 18.03 M 21.13 20.07 C 20.68 21.60 20.67 23.22 20.53 24.80 C 22.12 22.28 23.75 19.79 25.41 17.32 C 23.96 18.19 22.43 18.98 21.13 20.07 M 75.35 17.69 C 76.96 20.04 78.47 22.46 79.84 24.96 C 79.83 23.35 79.83 21.73 79.84 20.12 C 78.35 19.31 76.85 18.50 75.35 17.69 M 21.76 34.75 C 23.16 37.99 25.87 40.62 26.54 44.18 C 27.22 46.33 27.12 48.84 28.41 50.74 C 31.29 53.29 34.94 54.72 38.37 56.33 C 36.23 53.93 33.68 51.89 31.80 49.25 C 30.86 47.35 31.06 45.10 30.66 43.04 C 30.44 39.74 28.11 37.14 27.33 34.01 C 28.11 29.13 29.12 24.26 29.35 19.29 C 25.21 23.46 23.67 29.38 21.76 34.75 M 70.21 19.45 C 71.33 24.35 72.04 29.35 73.72 34.11 C 72.64 35.92 71.49 37.70 70.65 39.64 C 69.42 42.64 69.93 46.02 68.87 49.05 C 66.70 52.14 63.56 54.36 60.98 57.08 C 64.99 55.17 68.85 52.96 72.68 50.73 C 73.30 47.26 73.48 43.54 75.40 40.47 C 76.49 38.38 78.15 36.52 78.65 34.18 C 76.48 28.96 75.26 22.75 70.21 19.45 M 38.44 30.36 C 36.61 31.01 34.68 31.24 32.79 31.62 C 32.87 36.97 33.24 42.48 35.63 47.37 C 38.43 53.86 43.97 58.57 49.92 62.11 C 54.34 59.29 58.81 56.24 61.78 51.81 C 65.99 46.05 67.38 38.80 67.16 31.78 C 65.10 31.27 62.84 31.20 60.99 30.09 C 59.64 28.71 58.61 27.06 57.30 25.65 C 53.37 24.32 49.06 24.54 44.99 25.00 C 41.68 25.04 41.00 29.03 38.44 30.36 M 72.37 55.34 C 74.03 54.38 75.69 53.43 77.36 52.47 C 77.54 50.33 77.74 48.20 77.97 46.07 C 76.53 49.40 74.69 52.54 72.37 55.34 M 22.87 46.98 C 23.00 48.88 23.13 50.78 23.26 52.67 C 24.45 53.28 25.63 53.90 26.81 54.51 C 25.41 52.04 24.10 49.53 22.87 46.98 Z" />
<path fill="#ffffff" opacity="1.00" d=" M 21.13 20.07 C 22.43 18.98 23.96 18.19 25.41 17.32 C 23.75 19.79 22.12 22.28 20.53 24.80 C 20.67 23.22 20.68 21.60 21.13 20.07 Z" />
<path fill="#ffffff" opacity="1.00" d=" M 75.35 17.69 C 76.85 18.50 78.35 19.31 79.84 20.12 C 79.83 21.73 79.83 23.35 79.84 24.96 C 78.47 22.46 76.96 20.04 75.35 17.69 Z" />
<path fill="#ffffff" opacity="1.00" d=" M 21.76 34.75 C 23.67 29.38 25.21 23.46 29.35 19.29 C 29.12 24.26 28.11 29.13 27.33 34.01 C 28.11 37.14 30.44 39.74 30.66 43.04 C 31.06 45.10 30.86 47.35 31.80 49.25 C 33.68 51.89 36.23 53.93 38.37 56.33 C 34.94 54.72 31.29 53.29 28.41 50.74 C 27.12 48.84 27.22 46.33 26.54 44.18 C 25.87 40.62 23.16 37.99 21.76 34.75 Z" />
<path fill="#ffffff" opacity="1.00" d=" M 70.21 19.45 C 75.26 22.75 76.48 28.96 78.65 34.18 C 78.15 36.52 76.49 38.38 75.40 40.47 C 73.48 43.54 73.30 47.26 72.68 50.73 C 68.85 52.96 64.99 55.17 60.98 57.08 C 63.56 54.36 66.70 52.14 68.87 49.05 C 69.93 46.02 69.42 42.64 70.65 39.64 C 71.49 37.70 72.64 35.92 73.72 34.11 C 72.04 29.35 71.33 24.35 70.21 19.45 Z" />
<path fill="#ffffff" opacity="1.00" d=" M 38.44 30.36 C 41.00 29.03 41.68 25.04 44.99 25.00 C 49.06 24.54 53.37 24.32 57.30 25.65 C 58.61 27.06 59.64 28.71 60.99 30.09 C 62.84 31.20 65.10 31.27 67.16 31.78 C 67.38 38.80 65.99 46.05 61.78 51.81 C 58.81 56.24 54.34 59.29 49.92 62.11 C 43.97 58.57 38.43 53.86 35.63 47.37 C 33.24 42.48 32.87 36.97 32.79 31.62 C 34.68 31.24 36.61 31.01 38.44 30.36 M 34.87 33.87 C 34.56 44.56 40.74 54.46 49.92 59.70 C 52.58 57.81 55.32 55.97 57.58 53.60 C 62.68 48.41 65.07 41.15 65.12 33.97 C 62.24 33.17 59.37 32.02 57.45 29.63 C 54.64 25.93 49.34 26.52 45.32 27.34 C 42.07 29.90 39.28 33.28 34.87 33.87 Z" />
<path fill="#941271" opacity="1.00" d=" M 34.87 33.87 C 39.28 33.28 42.07 29.90 45.32 27.34 C 49.34 26.52 54.64 25.93 57.45 29.63 C 59.37 32.02 62.24 33.17 65.12 33.97 C 65.07 41.15 62.68 48.41 57.58 53.60 C 55.32 55.97 52.58 57.81 49.92 59.70 C 40.74 54.46 34.56 44.56 34.87 33.87 M 37.01 36.01 C 37.54 40.01 38.27 44.11 40.40 47.61 C 42.66 51.61 46.32 54.53 49.94 57.25 C 53.58 54.52 57.28 51.62 59.56 47.59 C 61.69 44.13 62.46 40.08 62.97 36.10 C 57.51 34.16 53.82 27.04 47.26 29.35 C 43.71 31.35 40.83 34.41 37.01 36.01 Z" />
<path fill="#ffffff" opacity="1.00" d=" M 37.01 36.01 C 40.83 34.41 43.71 31.35 47.26 29.35 C 53.82 27.04 57.51 34.16 62.97 36.10 C 62.46 40.08 61.69 44.13 59.56 47.59 C 57.28 51.62 53.58 54.52 49.94 57.25 C 46.32 54.53 42.66 51.61 40.40 47.61 C 38.27 44.11 37.54 40.01 37.01 36.01 Z" />
<path fill="#ffffff" opacity="1.00" d=" M 72.37 55.34 C 74.69 52.54 76.53 49.40 77.97 46.07 C 77.74 48.20 77.54 50.33 77.36 52.47 C 75.69 53.43 74.03 54.38 72.37 55.34 Z" />
<path fill="#ffffff" opacity="1.00" d=" M 22.87 46.98 C 24.10 49.53 25.41 52.04 26.81 54.51 C 25.63 53.90 24.45 53.28 23.26 52.67 C 23.13 50.78 23.00 48.88 22.87 46.98 Z" />
</svg>
