<?xml version="1.0" encoding="UTF-8" ?>
<!DOCTYPE svg PUBLIC "-//W3C//DTD SVG 1.1//EN" "http://www.w3.org/Graphics/SVG/1.1/DTD/svg11.dtd">
<svg width="100pt" height="100pt" viewBox="0 0 100 100" version="1.1" xmlns="http://www.w3.org/2000/svg">
<path fill="#bab9b9" opacity="1.00" d=" M 70.14 23.59 C 72.75 18.16 76.11 11.40 83.02 11.11 C 89.95 11.93 95.82 19.82 92.62 26.60 C 90.56 32.38 83.93 33.48 79.16 36.15 C 82.76 46.17 83.23 57.65 78.45 67.37 C 71.20 83.56 51.33 93.11 34.26 87.73 C 16.77 83.31 4.37 64.95 6.53 47.10 C 8.01 37.32 12.91 27.90 20.78 21.77 C 29.51 14.78 41.42 12.00 52.34 14.46 C 59.01 15.76 64.93 19.35 70.14 23.59 M 82.46 13.57 C 75.24 14.84 73.95 23.13 70.37 28.26 C 65.90 24.70 61.43 20.87 55.93 19.01 C 44.17 14.68 30.13 17.37 21.04 26.06 C 9.91 35.92 6.61 53.30 13.44 66.52 C 20.29 80.97 38.02 89.15 53.42 84.51 C 68.40 80.55 79.58 65.52 78.67 50.00 C 78.61 44.52 75.67 39.32 76.65 33.82 C 80.83 31.14 87.13 31.64 89.84 26.91 C 93.00 21.48 88.79 13.56 82.46 13.57 Z" />
<path fill="#2f4364" opacity="1.00" d=" M 82.46 13.57 C 88.79 13.56 93.00 21.48 89.84 26.91 C 87.13 31.64 80.83 31.14 76.65 33.82 C 75.67 39.32 78.61 44.52 78.67 50.00 C 79.58 65.52 68.40 80.55 53.42 84.51 C 38.02 89.15 20.29 80.97 13.44 66.52 C 6.61 53.30 9.91 35.92 21.04 26.06 C 30.13 17.37 44.17 14.68 55.93 19.01 C 61.43 20.87 65.90 24.70 70.37 28.26 C 73.95 23.13 75.24 14.84 82.46 13.57 M 77.42 20.41 C 74.34 26.19 72.07 32.46 68.03 37.69 C 65.64 37.10 63.24 36.54 60.83 36.02 C 61.91 37.18 63.01 38.31 64.12 39.45 C 60.23 42.91 55.68 45.68 52.49 49.86 C 55.61 48.32 58.37 46.18 61.18 44.15 C 64.84 41.46 69.30 39.93 72.50 36.61 C 73.44 35.02 73.86 33.20 74.70 31.56 C 76.20 30.71 77.90 30.29 79.54 29.76 C 78.19 27.20 77.42 23.94 79.82 21.70 C 81.33 19.97 83.28 21.46 84.82 22.24 C 83.57 23.28 82.31 24.31 81.05 25.33 C 81.10 26.04 81.19 27.46 81.24 28.17 C 82.97 28.36 85.11 29.16 86.39 27.48 C 89.74 24.39 88.79 18.08 84.34 16.55 C 81.37 15.22 78.72 18.03 77.42 20.41 M 48.53 25.33 C 41.62 25.66 34.68 25.53 27.80 26.40 C 36.01 27.35 44.30 27.51 52.56 27.36 C 51.90 28.66 51.25 29.96 50.61 31.26 C 54.56 31.74 58.54 31.83 62.47 32.46 C 60.36 33.17 58.16 33.53 55.95 33.75 C 56.35 34.75 56.75 35.75 57.15 36.75 C 59.33 35.77 61.55 34.82 63.50 33.43 C 64.10 30.60 62.98 26.83 59.98 25.88 C 56.24 25.01 52.35 25.20 48.53 25.33 M 44.45 38.15 C 46.83 38.14 49.24 37.64 51.60 38.06 C 54.56 38.93 57.35 40.35 60.37 41.05 C 57.93 37.03 53.89 34.22 49.87 31.94 C 46.46 32.06 44.36 34.88 44.45 38.15 M 14.60 38.60 C 21.50 39.67 28.51 39.16 35.45 39.65 C 38.26 39.63 40.23 41.85 42.43 43.24 C 42.08 43.40 41.39 43.72 41.05 43.88 C 39.80 43.68 38.55 43.46 37.31 43.25 C 36.49 44.34 35.66 45.42 34.85 46.51 C 35.21 46.37 35.92 46.09 36.28 45.94 L 37.12 46.09 C 35.29 47.56 33.56 49.64 31.00 49.63 C 24.75 50.13 18.46 50.00 12.20 50.27 C 12.21 50.62 12.23 51.32 12.24 51.66 C 17.87 51.80 23.50 51.76 29.12 52.10 C 32.98 52.22 36.10 54.77 39.61 56.06 C 40.23 54.49 40.85 52.91 41.47 51.33 C 41.97 52.29 42.48 53.25 43.00 54.20 C 43.21 54.60 43.42 54.99 43.64 55.39 C 42.69 57.86 41.69 60.32 40.83 62.83 C 42.97 60.67 45.90 58.44 45.90 55.10 C 45.22 52.17 43.68 49.54 42.53 46.78 C 43.79 46.55 45.01 46.18 46.25 45.86 C 47.55 44.13 48.76 42.34 49.87 40.49 C 46.75 39.88 43.82 38.60 42.69 35.41 C 33.84 39.39 23.84 36.37 14.60 38.60 M 45.08 49.37 C 46.06 51.99 46.80 54.72 48.04 57.24 C 50.83 58.57 54.02 58.36 57.04 58.52 C 55.07 59.31 53.01 59.98 51.29 61.25 C 48.48 63.97 47.72 68.20 44.70 70.77 C 41.01 74.29 35.58 74.71 30.74 74.85 C 33.48 70.33 37.57 66.87 40.59 62.57 C 37.81 63.99 35.01 65.51 32.70 67.65 C 30.86 69.61 30.32 72.40 28.67 74.51 C 26.62 75.08 24.51 75.37 22.43 75.82 C 27.75 77.33 33.33 76.48 38.71 77.35 C 40.02 78.35 41.03 79.68 42.36 80.67 C 43.78 80.45 45.20 80.16 46.60 79.85 C 45.11 79.76 43.62 79.74 42.13 79.69 C 47.36 74.99 51.51 69.19 57.26 65.04 C 55.72 64.11 54.17 63.19 52.62 62.26 C 54.38 62.54 56.13 62.92 57.91 63.02 C 59.89 62.07 62.66 59.56 60.93 57.23 C 56.79 52.82 50.82 50.74 45.08 49.37 M 34.41 61.40 C 27.61 63.32 20.35 61.51 13.53 63.48 C 19.47 64.59 25.55 64.49 31.57 64.37 C 31.21 65.30 30.86 66.24 30.50 67.19 C 35.61 63.91 41.19 60.42 43.00 54.20 C 40.54 57.02 38.05 60.11 34.41 61.40 M 36.29 56.94 C 36.08 57.23 35.66 57.80 35.45 58.09 C 36.25 61.23 39.62 56.34 36.29 56.94 M 39.59 66.53 C 42.83 65.45 45.68 63.54 48.30 61.38 C 47.68 60.94 46.44 60.08 45.83 59.64 C 43.54 61.74 41.36 63.97 39.59 66.53 M 36.31 68.13 C 37.27 69.09 38.19 70.08 39.08 71.10 C 39.57 69.52 40.02 67.94 40.45 66.35 C 39.07 66.93 37.69 67.52 36.31 68.13 Z" />
<path fill="#ffffff" opacity="1.00" d=" M 77.42 20.41 C 78.72 18.03 81.37 15.22 84.34 16.55 C 88.79 18.08 89.74 24.39 86.39 27.48 C 85.11 29.16 82.97 28.36 81.24 28.17 C 81.19 27.46 81.10 26.04 81.05 25.33 C 82.31 24.31 83.57 23.28 84.82 22.24 C 83.28 21.46 81.33 19.97 79.82 21.70 C 77.42 23.94 78.19 27.20 79.54 29.76 C 77.90 30.29 76.20 30.71 74.70 31.56 C 73.86 33.20 73.44 35.02 72.50 36.61 C 69.30 39.93 64.84 41.46 61.18 44.15 C 58.37 46.18 55.61 48.32 52.49 49.86 C 55.68 45.68 60.23 42.91 64.12 39.45 C 63.01 38.31 61.91 37.18 60.83 36.02 C 63.24 36.54 65.64 37.10 68.03 37.69 C 72.07 32.46 74.34 26.19 77.42 20.41 Z" />
<path fill="#ffffff" opacity="1.00" d=" M 48.53 25.33 C 52.35 25.20 56.24 25.01 59.98 25.88 C 62.98 26.83 64.10 30.60 63.50 33.43 C 61.55 34.82 59.33 35.77 57.15 36.75 C 56.75 35.75 56.35 34.75 55.95 33.75 C 58.16 33.53 60.36 33.17 62.47 32.46 C 58.54 31.83 54.56 31.74 50.61 31.26 C 51.25 29.96 51.90 28.66 52.56 27.36 C 44.30 27.51 36.01 27.35 27.80 26.40 C 34.68 25.53 41.62 25.66 48.53 25.33 Z" />
<path fill="#ffffff" opacity="1.00" d=" M 44.45 38.15 C 44.36 34.88 46.46 32.06 49.87 31.94 C 53.89 34.22 57.93 37.03 60.37 41.05 C 57.35 40.35 54.56 38.93 51.60 38.06 C 49.24 37.64 46.83 38.14 44.45 38.15 Z" />
<path fill="#ffffff" opacity="1.00" d=" M 14.60 38.60 C 23.84 36.37 33.84 39.39 42.69 35.41 C 43.82 38.60 46.75 39.88 49.87 40.49 C 48.76 42.34 47.55 44.13 46.25 45.86 C 44.97 44.99 43.70 44.12 42.43 43.24 C 40.23 41.85 38.26 39.63 35.45 39.65 C 28.51 39.16 21.50 39.67 14.60 38.60 Z" />
<path fill="#ffffff" opacity="1.00" d=" M 37.31 43.25 C 38.55 43.46 39.80 43.68 41.05 43.88 C 39.46 44.57 37.87 45.27 36.28 45.94 C 35.92 46.09 35.21 46.37 34.85 46.51 C 35.66 45.42 36.49 44.34 37.31 43.25 Z" />
<path fill="#8e99ab" opacity="1.00" d=" M 42.43 43.24 C 43.70 44.12 44.97 44.99 46.25 45.86 C 45.01 46.18 43.79 46.55 42.53 46.78 C 40.71 46.66 38.90 46.44 37.12 46.09 L 36.28 45.94 C 37.87 45.27 39.46 44.57 41.05 43.88 C 41.39 43.72 42.08 43.40 42.43 43.24 Z" />
<path fill="#ffffff" opacity="1.00" d=" M 37.12 46.09 C 38.90 46.44 40.71 46.66 42.53 46.78 C 43.68 49.54 45.22 52.17 45.90 55.10 C 45.90 58.44 42.97 60.67 40.83 62.83 C 41.69 60.32 42.69 57.86 43.64 55.39 C 43.42 54.99 43.21 54.60 43.00 54.20 C 42.48 53.25 41.97 52.29 41.47 51.33 C 40.85 52.91 40.23 54.49 39.61 56.06 C 36.10 54.77 32.98 52.22 29.12 52.10 C 23.50 51.76 17.87 51.80 12.24 51.66 C 12.23 51.32 12.21 50.62 12.20 50.27 C 18.46 50.00 24.75 50.13 31.00 49.63 C 33.56 49.64 35.29 47.56 37.12 46.09 Z" />
<path fill="#ffffff" opacity="1.00" d=" M 45.08 49.37 C 50.82 50.74 56.79 52.82 60.93 57.23 C 62.66 59.56 59.89 62.07 57.91 63.02 C 56.13 62.92 54.38 62.54 52.62 62.26 C 54.17 63.19 55.72 64.11 57.26 65.04 C 51.51 69.19 47.36 74.99 42.13 79.69 C 43.62 79.74 45.11 79.76 46.60 79.85 C 45.20 80.16 43.78 80.45 42.36 80.67 C 41.03 79.68 40.02 78.35 38.71 77.35 C 33.33 76.48 27.75 77.33 22.43 75.82 C 24.51 75.37 26.62 75.08 28.67 74.51 C 30.32 72.40 30.86 69.61 32.70 67.65 C 35.01 65.51 37.81 63.99 40.59 62.57 C 37.57 66.87 33.48 70.33 30.74 74.85 C 35.58 74.71 41.01 74.29 44.70 70.77 C 47.72 68.20 48.48 63.97 51.29 61.25 C 53.01 59.98 55.07 59.31 57.04 58.52 C 54.02 58.36 50.83 58.57 48.04 57.24 C 46.80 54.72 46.06 51.99 45.08 49.37 Z" />
<path fill="#ffffff" opacity="1.00" d=" M 34.41 61.40 C 38.05 60.11 40.54 57.02 43.00 54.20 C 41.19 60.42 35.61 63.91 30.50 67.19 C 30.86 66.24 31.21 65.30 31.57 64.37 C 25.55 64.49 19.47 64.59 13.53 63.48 C 20.35 61.51 27.61 63.32 34.41 61.40 Z" />
<path fill="#ffffff" opacity="1.00" d=" M 36.29 56.94 C 39.62 56.34 36.25 61.23 35.45 58.09 C 35.66 57.80 36.08 57.23 36.29 56.94 Z" />
<path fill="#ffffff" opacity="1.00" d=" M 39.59 66.53 C 41.36 63.97 43.54 61.74 45.83 59.64 C 46.44 60.08 47.68 60.94 48.30 61.38 C 45.68 63.54 42.83 65.45 39.59 66.53 Z" />
<path fill="#e6e9ed" opacity="1.00" d=" M 36.31 68.13 C 37.69 67.52 39.07 66.93 40.45 66.35 C 40.02 67.94 39.57 69.52 39.08 71.10 C 38.19 70.08 37.27 69.09 36.31 68.13 Z" />
</svg>
