<?xml version="1.0" encoding="UTF-8" ?>
<!DOCTYPE svg PUBLIC "-//W3C//DTD SVG 1.1//EN" "http://www.w3.org/Graphics/SVG/1.1/DTD/svg11.dtd">
<svg width="100pt" height="100pt" viewBox="0 0 100 100" version="1.1" xmlns="http://www.w3.org/2000/svg">
<path fill="#b8b8b8" opacity="1.00" d=" M 32.18 17.23 C 37.75 14.41 43.93 13.40 49.76 11.33 C 55.42 13.48 61.46 14.49 66.92 17.22 C 69.52 14.47 73.67 11.81 77.23 14.63 C 82.38 19.34 89.60 17.13 95.87 17.73 C 92.46 23.29 88.73 28.65 85.03 34.02 C 82.45 37.40 83.89 42.10 81.71 45.66 C 80.23 48.18 78.87 50.78 78.19 53.64 C 83.26 54.45 88.70 55.71 92.22 59.78 C 98.24 65.92 98.66 76.55 93.22 83.18 C 87.06 91.46 73.37 92.35 66.44 84.59 C 64.03 82.31 62.97 78.15 59.23 77.74 C 57.99 77.60 56.60 76.72 55.41 77.40 C 53.16 79.81 51.54 82.72 49.64 85.40 C 47.54 82.77 45.59 80.02 43.75 77.22 C 40.10 77.81 36.18 78.74 32.62 77.32 C 28.21 74.89 26.51 69.84 24.46 65.56 C 21.50 59.36 21.84 51.99 17.89 46.22 C 15.42 42.52 16.81 37.52 13.97 33.99 C 10.23 28.66 6.55 23.28 3.13 17.73 C 7.41 17.55 11.69 17.80 15.96 17.55 C 19.70 17.31 22.08 13.15 25.97 13.45 C 28.64 13.32 30.32 15.70 32.18 17.23 M 48.82 15.41 C 42.72 15.91 36.92 18.04 31.27 20.25 C 29.53 18.78 27.89 17.12 25.85 16.08 C 22.37 16.26 20.92 20.60 17.66 21.40 C 15.07 21.74 12.45 21.59 9.85 21.58 C 12.00 24.94 14.43 28.11 16.60 31.45 C 18.53 34.24 18.48 37.74 19.13 40.94 C 19.82 45.09 22.70 48.44 23.55 52.55 C 25.17 59.79 26.99 67.37 31.76 73.25 C 34.12 76.11 38.13 75.45 41.40 75.54 C 41.51 72.68 41.56 69.81 41.56 66.95 C 44.17 70.76 46.91 74.49 49.75 78.14 C 52.39 74.42 55.00 70.68 57.61 66.94 C 57.66 69.52 57.70 72.11 57.80 74.69 C 60.02 75.42 62.93 75.42 64.24 77.69 C 66.34 80.57 68.04 83.99 71.31 85.74 C 77.69 89.47 86.54 87.91 91.21 82.17 C 97.05 75.67 95.61 64.45 88.57 59.41 C 84.74 56.28 79.58 56.41 74.93 56.36 C 75.33 49.55 80.69 44.31 80.67 37.44 C 80.84 31.28 85.56 26.84 88.62 21.93 C 85.25 21.48 81.09 22.37 78.62 19.47 C 77.12 18.35 75.96 16.37 74.03 16.07 C 71.69 16.83 70.01 18.83 67.84 19.94 C 61.51 18.47 55.49 15.12 48.82 15.41 Z" />
<path fill="#d96035" opacity="1.00" d=" M 48.82 15.41 C 55.49 15.12 61.51 18.47 67.84 19.94 C 70.01 18.83 71.69 16.83 74.03 16.07 C 75.96 16.37 77.12 18.35 78.62 19.47 C 81.09 22.37 85.25 21.48 88.62 21.93 C 85.56 26.84 80.84 31.28 80.67 37.44 C 80.69 44.31 75.33 49.55 74.93 56.36 C 79.58 56.41 84.74 56.28 88.57 59.41 C 95.61 64.45 97.05 75.67 91.21 82.17 C 86.54 87.91 77.69 89.47 71.31 85.74 C 68.04 83.99 66.34 80.57 64.24 77.69 C 62.93 75.42 60.02 75.42 57.80 74.69 C 57.70 72.11 57.66 69.52 57.61 66.94 C 55.00 70.68 52.39 74.42 49.75 78.14 C 46.91 74.49 44.17 70.76 41.56 66.95 C 41.56 69.81 41.51 72.68 41.40 75.54 C 38.13 75.45 34.12 76.11 31.76 73.25 C 26.99 67.37 25.17 59.79 23.55 52.55 C 22.70 48.44 19.82 45.09 19.13 40.94 C 18.48 37.74 18.53 34.24 16.60 31.45 C 14.43 28.11 12.00 24.94 9.85 21.58 C 12.45 21.59 15.07 21.74 17.66 21.40 C 20.92 20.60 22.37 16.26 25.85 16.08 C 27.89 17.12 29.53 18.78 31.27 20.25 C 36.92 18.04 42.72 15.91 48.82 15.41 M 48.59 18.87 C 47.06 19.93 46.03 21.52 44.86 22.93 C 46.55 22.16 48.18 21.20 49.97 20.69 C 54.05 22.71 56.88 26.46 60.47 29.16 C 59.25 27.23 57.93 25.37 56.58 23.52 C 57.80 22.35 59.00 21.15 60.19 19.94 C 56.29 19.92 52.42 19.45 48.59 18.87 M 24.07 19.04 C 21.97 22.77 22.51 27.18 22.55 31.28 C 23.20 28.72 23.75 26.15 24.26 23.56 C 25.23 23.93 26.19 24.30 27.16 24.66 C 26.24 22.78 26.45 19.68 24.07 19.04 M 39.96 19.96 C 40.26 21.25 40.59 22.54 40.96 23.81 C 42.79 22.49 44.33 20.83 45.42 18.84 C 43.58 19.12 41.74 19.40 39.96 19.96 M 74.61 18.55 C 73.85 20.28 73.13 22.02 72.42 23.78 C 74.97 24.97 76.09 27.54 77.04 30.02 C 76.79 26.10 76.85 21.96 74.61 18.55 M 34.00 33.00 C 36.59 34.14 39.00 35.68 41.67 36.66 C 45.08 32.53 49.70 28.42 49.40 22.57 C 45.11 25.30 41.53 28.94 37.78 32.34 C 37.79 30.54 37.81 28.74 37.85 26.95 C 38.46 27.40 39.67 28.30 40.27 28.75 C 41.86 26.86 43.44 24.95 44.86 22.93 C 43.33 23.88 41.81 24.86 40.28 25.82 C 39.10 23.76 37.88 21.71 36.60 19.71 C 33.66 23.54 33.44 28.39 34.00 33.00 M 64.97 34.46 C 66.09 29.39 65.81 23.97 62.80 19.57 C 58.43 23.82 60.46 31.15 64.97 34.46 M 32.06 36.91 C 32.44 32.10 32.53 27.26 31.96 22.46 C 27.97 26.07 26.62 34.03 32.06 36.91 M 49.63 22.53 C 49.37 28.69 54.91 32.33 57.70 37.19 C 59.26 36.21 60.83 35.22 62.37 34.20 C 58.80 29.64 54.74 25.35 49.63 22.53 M 67.46 22.42 C 66.91 27.07 66.91 31.76 66.82 36.43 C 67.58 36.23 69.10 35.84 69.86 35.64 C 71.07 31.09 71.32 25.82 67.46 22.42 M 25.42 26.47 C 24.99 28.87 24.33 31.30 24.54 33.76 C 24.88 36.34 27.02 38.11 28.62 39.97 C 28.43 40.42 28.05 41.32 27.87 41.77 C 25.80 38.84 23.82 35.84 21.48 33.12 C 21.66 34.58 21.28 36.25 22.09 37.55 C 21.86 39.43 21.17 41.46 21.93 43.30 C 22.97 45.25 24.75 46.66 26.30 48.19 C 26.11 52.76 27.29 57.23 28.78 61.51 C 32.52 57.35 27.56 52.67 27.88 48.10 C 28.71 44.07 31.65 40.98 34.28 37.98 C 39.70 40.80 44.02 45.54 49.76 47.70 C 55.22 45.20 59.65 40.96 64.84 37.97 C 67.59 40.90 70.64 44.00 71.50 48.08 C 71.50 51.56 69.62 54.67 68.39 57.83 C 69.15 58.92 69.92 60.00 70.69 61.09 C 71.81 56.93 73.21 52.78 73.41 48.44 C 73.55 45.38 71.91 42.65 70.71 39.96 C 71.64 40.50 72.58 41.03 73.53 41.53 C 77.13 40.30 77.68 36.06 78.13 32.83 C 76.24 34.90 74.58 37.17 72.93 39.44 C 74.66 35.24 75.39 30.59 73.45 26.31 C 72.16 30.48 71.18 34.74 69.93 38.92 C 67.93 37.59 65.93 36.25 63.94 34.92 C 60.09 37.80 56.37 40.98 51.94 42.95 C 50.87 43.38 49.65 43.94 48.49 43.45 C 43.67 41.66 39.73 38.20 35.76 35.03 C 33.74 36.10 31.73 37.20 29.71 38.28 C 28.09 34.42 27.02 30.35 25.42 26.47 M 45.55 34.45 C 47.87 36.42 50.67 36.54 53.30 35.09 C 52.17 33.70 51.03 32.31 49.88 30.94 C 48.43 32.10 46.99 33.27 45.55 34.45 M 49.91 38.65 C 48.16 38.41 46.52 37.70 44.85 37.16 C 44.56 37.63 43.99 38.59 43.70 39.07 C 45.52 40.22 47.27 41.52 49.28 42.32 C 51.69 41.82 53.68 40.20 55.76 38.98 C 55.49 38.11 55.22 37.24 54.95 36.38 C 53.30 37.19 51.69 38.15 49.91 38.65 M 30.01 52.05 C 32.15 57.67 34.47 63.32 37.97 68.25 C 36.37 61.24 31.77 55.23 30.86 48.05 C 31.61 44.81 34.24 42.34 35.73 39.41 C 32.11 42.34 27.83 47.07 30.01 52.05 M 63.94 39.65 C 65.32 43.10 69.32 46.09 68.15 50.12 C 66.67 56.08 63.22 61.32 61.56 67.23 C 65.32 62.97 67.10 57.41 69.20 52.23 C 71.26 47.36 67.38 42.70 63.94 39.65 M 73.83 43.00 C 74.40 44.13 74.97 45.27 75.55 46.40 C 76.33 44.51 77.07 42.60 77.77 40.68 C 76.46 41.45 75.15 42.22 73.83 43.00 M 37.76 42.73 C 41.42 47.82 45.59 52.50 49.86 57.07 C 53.85 52.40 58.03 47.85 61.42 42.70 C 57.23 44.81 53.25 47.30 49.19 49.64 C 45.42 47.26 41.67 44.86 37.76 42.73 M 30.35 64.75 C 31.00 68.29 33.52 71.05 36.16 73.32 C 35.62 68.20 33.53 63.47 31.21 58.95 C 30.82 60.86 30.22 62.78 30.35 64.75 M 75.43 59.52 C 71.67 60.66 68.67 63.73 67.19 67.32 C 64.08 74.07 68.31 82.63 75.40 84.56 C 83.05 87.12 91.84 80.99 92.17 72.97 C 93.10 64.29 83.72 56.69 75.43 59.52 M 63.07 73.40 C 65.79 69.18 68.14 64.48 68.40 59.39 C 65.54 63.55 63.50 68.33 63.07 73.40 M 61.62 73.69 C 61.66 71.80 61.65 69.92 61.52 68.04 C 60.62 69.85 59.76 72.10 61.62 73.69 M 37.61 69.30 C 36.34 69.99 36.45 72.31 37.85 72.80 C 39.93 72.97 39.68 68.79 37.61 69.30 Z" />
<path fill="#ffffff" opacity="1.00" d=" M 48.59 18.87 C 52.42 19.45 56.29 19.92 60.19 19.94 C 59.00 21.15 57.80 22.35 56.58 23.52 C 57.93 25.37 59.25 27.23 60.47 29.16 C 56.88 26.46 54.05 22.71 49.97 20.69 C 48.18 21.20 46.55 22.16 44.86 22.93 C 46.03 21.52 47.06 19.93 48.59 18.87 Z" />
<path fill="#ffffff" opacity="1.00" d=" M 24.07 19.04 C 26.45 19.68 26.24 22.78 27.16 24.66 C 26.19 24.30 25.23 23.93 24.26 23.56 C 23.75 26.15 23.20 28.72 22.55 31.28 C 22.51 27.18 21.97 22.77 24.07 19.04 Z" />
<path fill="#fcf3f0" opacity="1.00" d=" M 39.96 19.96 C 41.74 19.40 43.58 19.12 45.42 18.84 C 44.33 20.83 42.79 22.49 40.96 23.81 C 40.59 22.54 40.26 21.25 39.96 19.96 Z" />
<path fill="#ffffff" opacity="1.00" d=" M 74.61 18.55 C 76.85 21.96 76.79 26.10 77.04 30.02 C 76.09 27.54 74.97 24.97 72.42 23.78 C 73.13 22.02 73.85 20.28 74.61 18.55 Z" />
<path fill="#ffffff" opacity="1.00" d=" M 34.00 33.00 C 33.44 28.39 33.66 23.54 36.60 19.71 C 37.88 21.71 39.10 23.76 40.28 25.82 C 41.81 24.86 43.33 23.88 44.86 22.93 C 43.44 24.95 41.86 26.86 40.27 28.75 C 39.67 28.30 38.46 27.40 37.85 26.95 C 37.81 28.74 37.79 30.54 37.78 32.34 C 41.53 28.94 45.11 25.30 49.40 22.57 C 49.70 28.42 45.08 32.53 41.67 36.66 C 39.00 35.68 36.59 34.14 34.00 33.00 Z" />
<path fill="#ffffff" opacity="1.00" d=" M 64.97 34.46 C 60.46 31.15 58.43 23.82 62.80 19.57 C 65.81 23.97 66.09 29.39 64.97 34.46 Z" />
<path fill="#ffffff" opacity="1.00" d=" M 32.06 36.91 C 26.62 34.03 27.97 26.07 31.96 22.46 C 32.53 27.26 32.44 32.10 32.06 36.91 Z" />
<path fill="#ffffff" opacity="1.00" d=" M 49.63 22.53 C 54.74 25.35 58.80 29.64 62.37 34.20 C 60.83 35.22 59.26 36.21 57.70 37.19 C 54.91 32.33 49.37 28.69 49.63 22.53 Z" />
<path fill="#ffffff" opacity="1.00" d=" M 67.46 22.42 C 71.32 25.82 71.07 31.09 69.86 35.64 C 69.10 35.84 67.58 36.23 66.82 36.43 C 66.91 31.76 66.91 27.07 67.46 22.42 Z" />
<path fill="#ffffff" opacity="1.00" d=" M 25.42 26.47 C 27.02 30.35 28.09 34.42 29.71 38.28 C 31.73 37.20 33.74 36.10 35.76 35.03 C 39.73 38.20 43.67 41.66 48.49 43.45 C 49.65 43.94 50.87 43.38 51.94 42.95 C 56.37 40.98 60.09 37.80 63.94 34.92 C 65.93 36.25 67.93 37.59 69.93 38.92 C 71.18 34.74 72.16 30.48 73.45 26.31 C 75.39 30.59 74.66 35.24 72.93 39.44 C 74.58 37.17 76.24 34.90 78.13 32.83 C 77.68 36.06 77.13 40.30 73.53 41.53 C 72.58 41.03 71.64 40.50 70.71 39.96 C 71.91 42.65 73.55 45.38 73.41 48.44 C 73.21 52.78 71.81 56.93 70.69 61.09 C 69.92 60.00 69.15 58.92 68.39 57.83 C 69.62 54.67 71.50 51.56 71.50 48.08 C 70.64 44.00 67.59 40.90 64.84 37.97 C 59.65 40.96 55.22 45.20 49.76 47.70 C 44.02 45.54 39.70 40.80 34.28 37.98 C 31.65 40.98 28.71 44.07 27.88 48.10 C 27.56 52.67 32.52 57.35 28.78 61.51 C 27.29 57.23 26.11 52.76 26.30 48.19 C 27.13 43.97 24.78 40.51 22.09 37.55 C 21.28 36.25 21.66 34.58 21.48 33.12 C 23.82 35.84 25.80 38.84 27.87 41.77 C 28.05 41.32 28.43 40.42 28.62 39.97 C 27.02 38.11 24.88 36.34 24.54 33.76 C 24.33 31.30 24.99 28.87 25.42 26.47 Z" />
<path fill="#ffffff" opacity="1.00" d=" M 45.55 34.45 C 46.99 33.27 48.43 32.10 49.88 30.94 C 51.03 32.31 52.17 33.70 53.30 35.09 C 50.67 36.54 47.87 36.42 45.55 34.45 Z" />
<path fill="#ffffff" opacity="1.00" d=" M 49.91 38.65 C 51.69 38.15 53.30 37.19 54.95 36.38 C 55.22 37.24 55.49 38.11 55.76 38.98 C 53.68 40.20 51.69 41.82 49.28 42.32 C 47.27 41.52 45.52 40.22 43.70 39.07 C 43.99 38.59 44.56 37.63 44.85 37.16 C 46.52 37.70 48.16 38.41 49.91 38.65 Z" />
<path fill="#e38868" opacity="1.00" d=" M 22.09 37.55 C 24.78 40.51 27.13 43.97 26.30 48.19 C 24.75 46.66 22.97 45.25 21.93 43.30 C 21.17 41.46 21.86 39.43 22.09 37.55 Z" />
<path fill="#ffffff" opacity="1.00" d=" M 30.01 52.05 C 27.83 47.07 32.11 42.34 35.73 39.41 C 34.24 42.34 31.61 44.81 30.86 48.05 C 31.77 55.23 36.37 61.24 37.97 68.25 C 34.47 63.32 32.15 57.67 30.01 52.05 Z" />
<path fill="#ffffff" opacity="1.00" d=" M 63.94 39.65 C 67.38 42.70 71.26 47.36 69.20 52.23 C 67.10 57.41 65.32 62.97 61.56 67.23 C 63.22 61.32 66.67 56.08 68.15 50.12 C 69.32 46.09 65.32 43.10 63.94 39.65 Z" />
<path fill="#eba991" opacity="1.00" d=" M 73.83 43.00 C 75.15 42.22 76.46 41.45 77.77 40.68 C 77.07 42.60 76.33 44.51 75.55 46.40 C 74.97 45.27 74.40 44.13 73.83 43.00 Z" />
<path fill="#ffffff" opacity="1.00" d=" M 37.76 42.73 C 41.67 44.86 45.42 47.26 49.19 49.64 C 53.25 47.30 57.23 44.81 61.42 42.70 C 58.03 47.85 53.85 52.40 49.86 57.07 C 45.59 52.50 41.42 47.82 37.76 42.73 Z" />
<path fill="#ffffff" opacity="1.00" d=" M 30.35 64.75 C 30.22 62.78 30.82 60.86 31.21 58.95 C 33.53 63.47 35.62 68.20 36.16 73.32 C 33.52 71.05 31.00 68.29 30.35 64.75 Z" />
<path fill="#f3f38a" opacity="1.00" d=" M 75.43 59.52 C 83.72 56.69 93.10 64.29 92.17 72.97 C 91.84 80.99 83.05 87.12 75.40 84.56 C 68.31 82.63 64.08 74.07 67.19 67.32 C 68.67 63.73 71.67 60.66 75.43 59.52 M 75.37 61.27 C 70.92 62.79 67.66 67.27 67.75 72.00 C 67.50 78.43 73.61 84.10 80.00 83.40 C 87.21 83.18 92.59 74.93 89.90 68.25 C 88.01 62.44 81.08 59.16 75.37 61.27 Z" />
<path fill="#ffffff" opacity="1.00" d=" M 63.07 73.40 C 63.50 68.33 65.54 63.55 68.40 59.39 C 68.14 64.48 65.79 69.18 63.07 73.40 Z" />
<path fill="#d96035" opacity="1.00" d=" M 75.37 61.27 C 81.08 59.16 88.01 62.44 89.90 68.25 C 92.59 74.93 87.21 83.18 80.00 83.40 C 73.61 84.10 67.50 78.43 67.75 72.00 C 67.66 67.27 70.92 62.79 75.37 61.27 M 78.35 62.41 C 74.29 62.76 70.67 65.86 69.73 69.82 C 68.51 74.43 71.40 79.62 75.88 81.16 C 79.53 82.50 83.89 81.35 86.44 78.43 C 89.43 75.12 89.59 69.67 86.85 66.17 C 84.87 63.63 81.58 62.07 78.35 62.41 Z" />
<path fill="#f3f38a" opacity="1.00" d=" M 78.35 62.41 C 81.58 62.07 84.87 63.63 86.85 66.17 C 89.59 69.67 89.43 75.12 86.44 78.43 C 83.89 81.35 79.53 82.50 75.88 81.16 C 71.40 79.62 68.51 74.43 69.73 69.82 C 70.67 65.86 74.29 62.76 78.35 62.41 M 79.18 68.37 C 76.29 68.45 74.43 72.20 76.50 74.40 C 77.88 76.33 80.82 75.92 82.03 74.04 C 83.80 71.87 81.74 68.53 79.18 68.37 Z" />
<path fill="#ffffff" opacity="1.00" d=" M 61.62 73.69 C 59.76 72.10 60.62 69.85 61.52 68.04 C 61.65 69.92 61.66 71.80 61.62 73.69 Z" />
<path fill="#d96035" opacity="1.00" d=" M 79.18 68.37 C 81.74 68.53 83.80 71.87 82.03 74.04 C 80.82 75.92 77.88 76.33 76.50 74.40 C 74.43 72.20 76.29 68.45 79.18 68.37 Z" />
<path fill="#f8e1d9" opacity="1.00" d=" M 37.61 69.30 C 39.68 68.79 39.93 72.97 37.85 72.80 C 36.45 72.31 36.34 69.99 37.61 69.30 Z" />
</svg>
