<?xml version="1.0" encoding="UTF-8" ?>
<!DOCTYPE svg PUBLIC "-//W3C//DTD SVG 1.1//EN" "http://www.w3.org/Graphics/SVG/1.1/DTD/svg11.dtd">
<svg width="100pt" height="100pt" viewBox="0 0 100 100" version="1.1" xmlns="http://www.w3.org/2000/svg">
<path fill="#bcbbba" opacity="1.00" d=" M 44.49 13.78 C 59.87 11.26 76.24 20.08 82.84 34.16 C 85.38 39.01 86.03 44.50 86.56 49.87 C 86.88 53.36 91.03 55.30 90.89 58.92 C 90.79 62.43 87.22 64.00 84.78 65.80 C 81.45 67.79 79.69 71.36 77.20 74.18 C 71.54 80.84 63.25 84.87 54.73 86.35 C 46.01 87.66 37.05 85.01 29.73 80.31 C 23.21 76.23 19.53 69.24 14.12 64.00 C 12.65 59.83 11.08 55.68 9.44 51.57 C 7.94 47.80 12.12 45.59 13.80 42.84 C 15.48 39.39 16.25 35.54 18.19 32.20 C 23.51 22.40 33.63 15.76 44.49 13.78 M 18.40 40.39 C 17.57 44.33 14.31 46.86 12.33 50.13 C 13.79 54.38 15.26 58.69 17.50 62.60 C 20.25 66.14 23.29 69.43 26.12 72.90 C 36.59 84.61 55.74 86.55 68.54 77.54 C 74.35 74.09 77.09 67.44 82.64 63.71 C 84.38 62.40 86.23 61.21 87.72 59.59 C 88.49 56.78 85.19 55.61 83.57 53.99 C 83.11 47.64 82.82 41.01 79.75 35.27 C 74.36 24.14 62.36 16.68 50.00 16.75 C 35.83 16.63 22.06 26.57 18.40 40.39 Z" />
<path fill="#2f4364" opacity="1.00" d=" M 18.40 40.39 C 22.06 26.57 35.83 16.63 50.00 16.75 C 62.36 16.68 74.36 24.14 79.75 35.27 C 82.82 41.01 83.11 47.64 83.57 53.99 C 85.19 55.61 88.49 56.78 87.72 59.59 C 86.23 61.21 84.38 62.40 82.64 63.71 C 77.09 67.44 74.35 74.09 68.54 77.54 C 55.74 86.55 36.59 84.61 26.12 72.90 C 23.29 69.43 20.25 66.14 17.50 62.60 C 15.26 58.69 13.79 54.38 12.33 50.13 C 14.31 46.86 17.57 44.33 18.40 40.39 M 55.20 27.76 C 57.05 31.30 58.88 34.86 60.26 38.62 C 57.13 35.70 52.86 36.08 48.93 36.30 C 51.38 39.86 53.54 43.64 54.88 47.77 C 53.60 48.34 52.33 48.90 51.05 49.46 C 50.81 47.79 50.56 46.12 50.30 44.45 C 49.75 46.10 49.24 47.77 48.74 49.43 C 47.47 49.64 46.21 49.84 44.95 50.05 C 44.99 50.79 45.08 52.28 45.12 53.03 C 50.07 53.31 54.46 51.13 58.15 48.04 C 57.92 49.21 57.68 50.38 57.43 51.55 C 57.63 52.69 57.86 53.82 58.08 54.95 C 57.37 55.57 56.65 56.19 55.94 56.81 C 59.53 57.78 62.63 59.84 64.45 63.15 C 68.29 63.32 72.16 63.54 75.99 63.11 C 79.64 62.68 82.51 60.11 85.23 57.88 C 81.69 58.53 78.26 59.64 74.87 60.84 C 75.07 57.96 75.62 55.03 75.05 52.16 C 74.10 49.11 71.54 46.97 69.38 44.76 C 68.56 46.20 67.66 47.60 67.03 49.14 C 68.59 53.04 71.08 56.50 72.60 60.43 C 70.58 60.39 68.57 60.33 66.55 60.25 C 65.70 57.36 64.69 54.52 63.59 51.71 C 63.33 52.55 62.81 54.21 62.55 55.04 C 61.69 50.20 59.70 45.64 56.17 42.14 C 58.85 43.63 61.47 45.22 64.07 46.86 C 65.52 45.62 67.10 44.48 68.21 42.90 C 66.93 38.76 65.06 34.78 64.62 30.41 C 63.98 30.87 63.33 31.33 62.68 31.79 C 61.42 29.01 60.34 26.15 59.05 23.37 C 58.78 25.29 58.56 27.21 58.35 29.13 C 57.61 26.76 56.83 24.40 55.92 22.09 C 55.38 23.91 53.98 25.91 55.20 27.76 M 29.65 55.18 C 32.56 54.46 35.46 53.69 38.36 52.90 C 38.19 51.77 38.02 50.63 37.84 49.50 C 39.72 51.28 41.67 52.99 43.68 54.62 C 43.71 49.57 41.44 44.96 40.64 40.05 C 42.38 41.43 43.73 43.19 44.75 45.16 C 44.50 44.09 44.27 43.02 44.03 41.96 C 42.57 39.38 41.41 36.66 40.54 33.83 C 35.36 40.04 32.15 47.56 29.65 55.18 M 27.71 40.86 C 25.37 42.03 23.86 44.26 22.03 46.04 C 20.05 48.18 17.39 49.48 14.89 50.88 C 16.46 52.40 18.02 53.93 19.59 55.46 C 18.80 53.72 17.99 52.00 17.21 50.26 C 20.87 51.06 24.58 53.06 28.35 52.49 C 32.64 49.48 33.16 43.60 35.37 39.17 C 32.80 39.64 30.15 39.90 27.71 40.86 M 29.57 58.54 C 28.28 60.50 27.42 62.69 26.59 64.87 C 28.91 65.59 31.24 66.45 33.70 66.57 C 37.17 63.52 37.30 58.48 38.49 54.32 C 35.46 55.39 31.27 55.32 29.57 58.54 M 19.76 56.32 C 19.51 57.02 18.99 58.43 18.73 59.13 C 19.60 60.01 20.46 60.89 21.32 61.79 C 22.16 60.08 23.03 58.39 23.92 56.71 C 22.54 56.58 21.15 56.45 19.76 56.32 M 25.01 56.14 C 23.44 59.10 28.36 56.33 25.01 56.14 M 56.72 59.51 C 55.48 60.77 54.28 62.09 52.85 63.14 C 50.62 62.49 48.57 61.34 46.49 60.34 C 47.52 65.47 47.64 71.08 44.72 75.65 C 44.10 73.78 43.55 71.89 43.00 69.99 C 41.84 71.01 40.68 72.02 39.51 73.03 C 43.28 76.52 48.96 78.15 53.72 75.68 C 58.21 73.33 63.19 72.33 68.01 70.92 C 71.52 70.02 74.08 67.32 76.57 64.86 C 72.16 64.90 67.76 65.07 63.35 64.88 C 62.49 63.26 61.63 61.64 60.76 60.02 C 59.41 59.85 58.07 59.67 56.72 59.51 M 26.70 68.27 C 30.35 70.26 34.45 72.03 38.67 71.88 C 42.38 71.13 41.78 66.68 42.25 63.85 C 40.86 66.01 39.57 68.23 38.15 70.37 C 38.63 68.16 39.18 65.96 39.73 63.77 C 37.81 65.46 36.00 67.38 33.68 68.52 C 31.68 68.74 29.61 68.10 27.89 67.11 C 25.72 65.08 24.98 62.02 23.70 59.43 C 23.05 62.67 23.70 66.40 26.70 68.27 Z" />
<path fill="#ffffff" opacity="1.00" d=" M 55.20 27.76 C 53.98 25.91 55.38 23.91 55.92 22.09 C 56.83 24.40 57.61 26.76 58.35 29.13 C 58.56 27.21 58.78 25.29 59.05 23.37 C 60.34 26.15 61.42 29.01 62.68 31.79 C 63.33 31.33 63.98 30.87 64.62 30.41 C 65.06 34.78 66.93 38.76 68.21 42.90 C 67.10 44.48 65.52 45.62 64.07 46.86 C 61.47 45.22 58.85 43.63 56.17 42.14 C 59.70 45.64 61.69 50.20 62.55 55.04 C 62.81 54.21 63.33 52.55 63.59 51.71 C 64.69 54.52 65.70 57.36 66.55 60.25 C 68.57 60.33 70.58 60.39 72.60 60.43 C 71.08 56.50 68.59 53.04 67.03 49.14 C 67.66 47.60 68.56 46.20 69.38 44.76 C 71.54 46.97 74.10 49.11 75.05 52.16 C 75.62 55.03 75.07 57.96 74.87 60.84 C 78.26 59.64 81.69 58.53 85.23 57.88 C 82.51 60.11 79.64 62.68 75.99 63.11 C 72.16 63.54 68.29 63.32 64.45 63.15 C 62.63 59.84 59.53 57.78 55.94 56.81 C 56.65 56.19 57.37 55.57 58.08 54.95 C 57.86 53.82 57.63 52.69 57.43 51.55 C 57.68 50.38 57.92 49.21 58.15 48.04 C 54.46 51.13 50.07 53.31 45.12 53.03 C 45.08 52.28 44.99 50.79 44.95 50.05 C 46.21 49.84 47.47 49.64 48.74 49.43 C 49.24 47.77 49.75 46.10 50.30 44.45 C 50.56 46.12 50.81 47.79 51.05 49.46 C 52.33 48.90 53.60 48.34 54.88 47.77 C 53.54 43.64 51.38 39.86 48.93 36.30 C 52.86 36.08 57.13 35.70 60.26 38.62 C 58.88 34.86 57.05 31.30 55.20 27.76 M 56.16 37.50 C 55.08 37.13 53.51 37.29 52.91 38.39 C 52.96 40.50 58.02 39.15 56.16 37.50 Z" />
<path fill="#ffffff" opacity="1.00" d=" M 29.65 55.18 C 32.15 47.56 35.36 40.04 40.54 33.83 C 41.41 36.66 42.57 39.38 44.03 41.96 C 44.27 43.02 44.50 44.09 44.75 45.16 C 43.73 43.19 42.38 41.43 40.64 40.05 C 41.44 44.96 43.71 49.57 43.68 54.62 C 41.67 52.99 39.72 51.28 37.84 49.50 C 38.02 50.63 38.19 51.77 38.36 52.90 C 35.46 53.69 32.56 54.46 29.65 55.18 Z" />
<path fill="#2f4364" opacity="1.00" d=" M 56.16 37.50 C 58.02 39.15 52.96 40.50 52.91 38.39 C 53.51 37.29 55.08 37.13 56.16 37.50 Z" />
<path fill="#ffffff" opacity="1.00" d=" M 27.71 40.86 C 30.15 39.90 32.80 39.64 35.37 39.17 C 33.16 43.60 32.64 49.48 28.35 52.49 C 24.58 53.06 20.87 51.06 17.21 50.26 C 17.99 52.00 18.80 53.72 19.59 55.46 C 18.02 53.93 16.46 52.40 14.89 50.88 C 17.39 49.48 20.05 48.18 22.03 46.04 C 23.86 44.26 25.37 42.03 27.71 40.86 Z" />
<path fill="#ffffff" opacity="1.00" d=" M 29.57 58.54 C 31.27 55.32 35.46 55.39 38.49 54.32 C 37.30 58.48 37.17 63.52 33.70 66.57 C 31.24 66.45 28.91 65.59 26.59 64.87 C 27.42 62.69 28.28 60.50 29.57 58.54 Z" />
<path fill="#ffffff" opacity="1.00" d=" M 19.76 56.32 C 21.15 56.45 22.54 56.58 23.92 56.71 C 23.03 58.39 22.16 60.08 21.32 61.79 C 20.46 60.89 19.60 60.01 18.73 59.13 C 18.99 58.43 19.51 57.02 19.76 56.32 Z" />
<path fill="#b6bdc8" opacity="1.00" d=" M 25.01 56.14 C 28.36 56.33 23.44 59.10 25.01 56.14 Z" />
<path fill="#ffffff" opacity="1.00" d=" M 56.72 59.51 C 58.07 59.67 59.41 59.85 60.76 60.02 C 61.63 61.64 62.49 63.26 63.35 64.88 C 67.76 65.07 72.16 64.90 76.57 64.86 C 74.08 67.32 71.52 70.02 68.01 70.92 C 63.19 72.33 58.21 73.33 53.72 75.68 C 48.96 78.15 43.28 76.52 39.51 73.03 C 40.68 72.02 41.84 71.01 43.00 69.99 C 43.55 71.89 44.10 73.78 44.72 75.65 C 47.64 71.08 47.52 65.47 46.49 60.34 C 48.57 61.34 50.62 62.49 52.85 63.14 C 54.28 62.09 55.48 60.77 56.72 59.51 Z" />
<path fill="#ffffff" opacity="1.00" d=" M 26.70 68.27 C 23.70 66.40 23.05 62.67 23.70 59.43 C 24.98 62.02 25.72 65.08 27.89 67.11 C 29.61 68.10 31.68 68.74 33.68 68.52 C 36.00 67.38 37.81 65.46 39.73 63.77 C 39.18 65.96 38.63 68.16 38.15 70.37 C 39.57 68.23 40.86 66.01 42.25 63.85 C 41.78 66.68 42.38 71.13 38.67 71.88 C 34.45 72.03 30.35 70.26 26.70 68.27 Z" />
</svg>
