<?xml version="1.0" encoding="UTF-8" ?>
<!DOCTYPE svg PUBLIC "-//W3C//DTD SVG 1.1//EN" "http://www.w3.org/Graphics/SVG/1.1/DTD/svg11.dtd">
<svg width="100pt" height="100pt" viewBox="0 0 100 100" version="1.1" xmlns="http://www.w3.org/2000/svg">
<path fill="#babab9" opacity="1.00" d=" M 25.86 19.84 C 32.85 14.05 41.96 10.90 51.04 11.19 C 62.57 11.28 73.81 17.08 80.75 26.26 C 87.39 34.85 90.00 46.36 87.87 56.99 C 86.01 66.92 79.92 75.91 71.52 81.48 C 60.77 88.79 46.23 89.94 34.44 84.49 C 30.98 82.57 27.02 83.53 23.31 83.91 C 20.71 79.61 17.56 75.39 17.00 70.24 C 15.33 64.49 12.26 59.13 11.78 53.05 C 10.68 40.60 16.14 27.72 25.86 19.84 M 15.29 51.97 C 15.20 59.18 20.24 65.07 20.73 72.16 C 21.00 75.51 23.05 78.27 24.91 80.93 C 28.24 80.59 31.72 79.94 34.97 81.11 C 39.83 82.80 44.76 84.71 50.00 84.49 C 62.48 84.70 74.62 77.56 80.67 66.68 C 84.99 59.58 85.40 51.09 85.23 43.01 C 83.89 44.99 82.90 47.46 80.70 48.64 C 77.39 48.78 75.35 45.50 72.36 44.63 C 69.95 44.62 67.60 45.37 65.35 46.16 L 65.98 45.47 L 65.14 45.96 C 67.45 44.48 69.84 42.22 72.83 42.96 C 75.82 44.04 78.29 46.13 81.07 47.64 C 81.86 44.91 82.77 42.11 82.51 39.23 L 82.03 38.27 L 82.65 39.07 C 82.35 37.22 82.09 35.32 81.30 33.60 C 74.56 19.90 58.15 11.97 43.22 15.26 C 26.50 18.34 13.76 35.01 15.29 51.97 Z" />
<path fill="#2f4364" opacity="1.00" d=" M 15.29 51.97 C 13.76 35.01 26.50 18.34 43.22 15.26 C 58.15 11.97 74.56 19.90 81.30 33.60 C 82.09 35.32 82.35 37.22 82.65 39.07 L 82.03 38.27 C 78.20 32.41 71.76 29.24 66.96 24.34 C 66.35 25.55 65.75 26.77 65.15 27.99 C 63.49 26.54 61.82 25.09 60.09 23.71 C 61.31 25.32 62.56 26.89 63.85 28.44 C 71.86 27.25 76.98 34.83 82.51 39.23 C 82.77 42.11 81.86 44.91 81.07 47.64 C 78.29 46.13 75.82 44.04 72.83 42.96 C 69.84 42.22 67.45 44.48 65.14 45.96 C 62.97 47.42 60.53 48.70 59.00 50.89 C 58.06 52.89 57.69 55.10 57.11 57.22 C 59.27 53.12 62.00 49.37 65.35 46.16 C 67.60 45.37 69.95 44.62 72.36 44.63 C 75.35 45.50 77.39 48.78 80.70 48.64 C 82.90 47.46 83.89 44.99 85.23 43.01 C 85.40 51.09 84.99 59.58 80.67 66.68 C 74.62 77.56 62.48 84.70 50.00 84.49 C 44.76 84.71 39.83 82.80 34.97 81.11 C 31.72 79.94 28.24 80.59 24.91 80.93 C 23.05 78.27 21.00 75.51 20.73 72.16 C 20.24 65.07 15.20 59.18 15.29 51.97 M 39.74 18.89 C 40.51 20.94 41.34 22.97 42.14 25.02 C 40.34 23.69 38.58 22.31 36.83 20.92 C 35.78 21.51 34.74 22.11 33.69 22.70 C 34.12 23.84 34.55 24.98 34.98 26.13 C 33.89 25.36 32.81 24.58 31.73 23.79 C 27.93 26.98 24.24 30.48 21.94 34.94 C 18.27 41.36 17.79 49.01 19.03 56.17 C 21.20 56.77 23.45 57.33 25.28 58.72 C 28.94 61.37 33.23 62.90 37.18 65.06 C 34.95 67.08 32.66 69.05 30.37 71.02 C 29.45 69.88 28.53 68.74 27.60 67.61 C 26.05 68.99 23.93 70.08 23.27 72.18 C 23.84 74.43 25.13 76.40 26.17 78.46 C 29.51 77.88 32.68 76.54 35.07 74.07 C 37.93 71.22 42.02 69.89 44.58 66.72 C 44.05 62.43 39.46 60.44 36.96 57.35 C 40.52 54.85 41.57 50.69 42.89 46.83 C 46.39 42.81 51.20 39.48 56.69 39.24 C 58.28 40.68 59.61 42.67 61.75 43.33 C 63.53 43.57 65.18 42.55 66.85 42.05 C 66.63 38.84 66.75 35.24 64.25 32.81 C 60.59 27.57 54.22 25.34 50.33 20.34 C 49.74 21.42 49.17 22.52 48.52 23.56 C 45.68 21.85 42.96 19.87 39.74 18.89 M 39.09 57.54 C 39.76 58.21 40.44 58.89 41.11 59.56 C 43.30 59.34 45.49 59.14 47.68 58.97 C 46.94 63.21 45.67 67.35 43.97 71.31 C 45.25 71.23 46.53 71.15 47.81 71.07 C 48.97 66.29 51.92 62.36 55.29 58.89 C 54.18 57.36 53.07 55.84 51.96 54.31 C 47.54 54.82 42.34 53.72 39.09 57.54 M 57.81 58.98 C 61.39 60.22 65.19 60.37 68.93 60.13 C 69.64 61.29 70.34 62.45 71.04 63.62 C 67.89 66.62 65.25 70.18 64.20 74.48 C 63.65 74.64 62.54 74.95 61.99 75.11 C 61.19 74.22 60.40 73.32 59.60 72.43 C 57.21 73.70 54.75 74.92 52.73 76.75 C 50.20 78.87 47.73 81.72 44.15 81.71 C 42.64 80.55 41.63 78.85 41.02 77.07 C 41.78 75.69 42.77 74.46 43.71 73.20 C 44.84 74.42 45.96 75.66 47.06 76.91 C 49.75 74.59 52.46 72.31 55.15 69.99 C 53.81 68.83 52.47 67.67 51.10 66.54 C 51.72 67.79 52.35 69.04 52.99 70.28 C 51.33 71.66 49.67 73.03 48.00 74.40 C 46.13 73.79 44.25 73.15 42.28 72.97 C 41.10 74.06 40.12 75.42 39.70 76.99 C 40.56 79.27 41.95 81.30 43.19 83.38 C 48.85 83.08 52.13 78.30 56.45 75.44 C 59.35 74.99 62.26 75.76 65.14 76.02 C 66.10 71.04 69.11 66.99 72.70 63.55 C 71.47 61.82 70.22 60.10 68.96 58.39 C 65.26 58.82 61.53 58.84 57.81 58.98 M 55.21 64.40 C 57.51 66.66 59.83 68.90 61.97 71.31 C 64.20 68.86 65.64 65.86 65.63 62.49 C 62.09 62.68 58.58 63.29 55.21 64.40 Z" />
<path fill="#ffffff" opacity="1.00" d=" M 39.74 18.89 C 42.96 19.87 45.68 21.85 48.52 23.56 C 49.17 22.52 49.74 21.42 50.33 20.34 C 54.22 25.34 60.59 27.57 64.25 32.81 C 66.75 35.24 66.63 38.84 66.85 42.05 C 65.18 42.55 63.53 43.57 61.75 43.33 C 59.61 42.67 58.28 40.68 56.69 39.24 C 51.20 39.48 46.39 42.81 42.89 46.83 C 41.57 50.69 40.52 54.85 36.96 57.35 C 39.46 60.44 44.05 62.43 44.58 66.72 C 42.02 69.89 37.93 71.22 35.07 74.07 C 32.68 76.54 29.51 77.88 26.17 78.46 C 25.13 76.40 23.84 74.43 23.27 72.18 C 23.93 70.08 26.05 68.99 27.60 67.61 C 28.53 68.74 29.45 69.88 30.37 71.02 C 32.66 69.05 34.95 67.08 37.18 65.06 C 33.23 62.90 28.94 61.37 25.28 58.72 C 23.45 57.33 21.20 56.77 19.03 56.17 C 17.79 49.01 18.27 41.36 21.94 34.94 C 24.24 30.48 27.93 26.98 31.73 23.79 C 32.81 24.58 33.89 25.36 34.98 26.13 C 34.55 24.98 34.12 23.84 33.69 22.70 C 34.74 22.11 35.78 21.51 36.83 20.92 C 38.58 22.31 40.34 23.69 42.14 25.02 C 41.34 22.97 40.51 20.94 39.74 18.89 Z" />
<path fill="#ffffff" opacity="1.00" d=" M 60.09 23.71 C 61.82 25.09 63.49 26.54 65.15 27.99 C 65.75 26.77 66.35 25.55 66.96 24.34 C 71.76 29.24 78.20 32.41 82.03 38.27 L 82.51 39.23 C 76.98 34.83 71.86 27.25 63.85 28.44 C 62.56 26.89 61.31 25.32 60.09 23.71 Z" />
<path fill="#ffffff" opacity="1.00" d=" M 59.00 50.89 C 60.53 48.70 62.97 47.42 65.14 45.96 L 65.98 45.47 L 65.35 46.16 C 62.00 49.37 59.27 53.12 57.11 57.22 C 57.69 55.10 58.06 52.89 59.00 50.89 Z" />
<path fill="#ffffff" opacity="1.00" d=" M 39.09 57.54 C 42.34 53.72 47.54 54.82 51.96 54.31 C 53.07 55.84 54.18 57.36 55.29 58.89 C 51.92 62.36 48.97 66.29 47.81 71.07 C 46.53 71.15 45.25 71.23 43.97 71.31 C 45.67 67.35 46.94 63.21 47.68 58.97 C 45.49 59.14 43.30 59.34 41.11 59.56 C 40.44 58.89 39.76 58.21 39.09 57.54 Z" />
<path fill="#ffffff" opacity="1.00" d=" M 57.81 58.98 C 61.53 58.84 65.26 58.82 68.96 58.39 C 70.22 60.10 71.47 61.82 72.70 63.55 C 69.11 66.99 66.10 71.04 65.14 76.02 C 62.26 75.76 59.35 74.99 56.45 75.44 C 52.13 78.30 48.85 83.08 43.19 83.38 C 41.95 81.30 40.56 79.27 39.70 76.99 C 40.12 75.42 41.10 74.06 42.28 72.97 C 44.25 73.15 46.13 73.79 48.00 74.40 C 49.67 73.03 51.33 71.66 52.99 70.28 C 52.35 69.04 51.72 67.79 51.10 66.54 C 52.47 67.67 53.81 68.83 55.15 69.99 C 52.46 72.31 49.75 74.59 47.06 76.91 C 45.96 75.66 44.84 74.42 43.71 73.20 C 42.77 74.46 41.78 75.69 41.02 77.07 C 41.63 78.85 42.64 80.55 44.15 81.71 C 47.73 81.72 50.20 78.87 52.73 76.75 C 54.75 74.92 57.21 73.70 59.60 72.43 C 60.40 73.32 61.19 74.22 61.99 75.11 C 62.54 74.95 63.65 74.64 64.20 74.48 C 65.25 70.18 67.89 66.62 71.04 63.62 C 70.34 62.45 69.64 61.29 68.93 60.13 C 65.19 60.37 61.39 60.22 57.81 58.98 Z" />
<path fill="#ffffff" opacity="1.00" d=" M 55.21 64.40 C 58.58 63.29 62.09 62.68 65.63 62.49 C 65.64 65.86 64.20 68.86 61.97 71.31 C 59.83 68.90 57.51 66.66 55.21 64.40 M 57.52 64.77 C 59.01 66.18 60.51 67.59 61.98 69.04 C 62.68 68.36 63.38 67.69 64.09 67.01 C 64.07 66.19 64.03 64.54 64.01 63.72 C 61.84 64.04 59.68 64.38 57.52 64.77 Z" />
<path fill="#2f4364" opacity="1.00" d=" M 57.52 64.77 C 59.68 64.38 61.84 64.04 64.01 63.72 C 64.03 64.54 64.07 66.19 64.09 67.01 C 63.38 67.69 62.68 68.36 61.98 69.04 C 60.51 67.59 59.01 66.18 57.52 64.77 Z" />
</svg>
