<?xml version="1.0" encoding="UTF-8" ?>
<!DOCTYPE svg PUBLIC "-//W3C//DTD SVG 1.1//EN" "http://www.w3.org/Graphics/SVG/1.1/DTD/svg11.dtd">
<svg width="100pt" height="100pt" viewBox="0 0 100 100" version="1.1" xmlns="http://www.w3.org/2000/svg">
<path fill="#b5b5b4" opacity="1.00" d=" M 26.65 11.59 C 29.51 10.10 32.83 9.83 35.99 9.54 C 41.91 8.82 47.07 12.69 52.93 12.69 C 71.55 13.55 87.58 30.35 87.75 48.95 C 88.47 60.07 83.40 70.80 75.61 78.52 C 78.96 79.86 82.58 80.53 85.74 82.30 C 88.63 84.22 86.99 88.74 83.88 89.32 C 77.47 88.92 71.53 85.71 65.13 85.45 C 57.58 87.79 49.52 89.44 41.68 87.38 C 31.32 85.16 22.08 78.31 16.93 69.06 C 10.76 58.18 10.37 44.19 16.18 33.09 C 18.85 27.51 23.36 23.19 27.95 19.19 C 25.13 19.52 22.31 19.86 19.49 20.13 C 21.67 17.14 23.71 13.91 26.65 11.59 M 23.88 17.94 C 27.15 17.71 30.42 17.39 33.68 17.10 C 34.09 17.54 34.91 18.44 35.32 18.88 C 30.74 21.63 26.19 24.67 22.89 28.96 C 15.83 37.67 13.63 49.78 16.47 60.54 C 19.39 67.90 24.17 74.73 30.83 79.14 C 38.17 84.15 47.55 85.96 56.24 84.18 C 59.05 83.70 61.87 82.80 64.74 83.23 C 71.15 84.27 77.23 87.32 83.81 87.22 C 84.71 86.53 85.60 85.82 86.47 85.08 C 81.68 81.46 75.60 80.71 70.05 78.86 C 72.87 76.08 75.85 73.41 78.17 70.17 C 83.82 62.29 85.76 51.95 83.53 42.53 C 80.50 28.69 68.03 17.47 53.87 16.22 C 48.95 15.98 45.06 12.58 40.35 11.63 C 34.30 10.90 27.36 12.49 23.88 17.94 Z" />
<path fill="#2f4364" opacity="1.00" d=" M 23.88 17.94 C 27.36 12.49 34.30 10.90 40.35 11.63 C 45.06 12.58 48.95 15.98 53.87 16.22 C 68.03 17.47 80.50 28.69 83.53 42.53 C 85.76 51.95 83.82 62.29 78.17 70.17 C 75.85 73.41 72.87 76.08 70.05 78.86 C 75.60 80.71 81.68 81.46 86.47 85.08 C 85.60 85.82 84.71 86.53 83.81 87.22 C 77.23 87.32 71.15 84.27 64.74 83.23 C 61.87 82.80 59.05 83.70 56.24 84.18 C 47.55 85.96 38.17 84.15 30.83 79.14 C 24.17 74.73 19.39 67.90 16.47 60.54 C 13.63 49.78 15.83 37.67 22.89 28.96 C 26.19 24.67 30.74 21.63 35.32 18.88 C 34.91 18.44 34.09 17.54 33.68 17.10 C 30.42 17.39 27.15 17.71 23.88 17.94 M 27.88 15.33 C 31.78 15.48 35.84 15.83 39.29 17.84 C 40.59 19.21 41.65 21.36 41.00 23.27 C 39.76 27.78 37.38 32.38 38.86 37.13 C 41.76 36.37 44.75 35.78 47.46 34.47 C 47.56 34.12 47.74 33.41 47.83 33.05 C 45.14 31.65 42.19 32.23 39.54 33.36 C 40.53 32.45 41.52 31.54 42.51 30.62 C 44.43 31.13 46.35 31.63 48.28 32.11 C 48.04 28.61 47.33 25.16 46.19 21.84 C 50.56 22.40 55.07 22.89 59.05 24.92 C 63.67 27.16 66.79 31.47 71.22 33.98 C 68.59 29.03 64.03 25.35 58.95 23.11 C 55.01 21.41 50.70 20.98 46.52 20.19 C 46.49 18.69 46.48 17.18 46.29 15.68 C 44.53 15.08 43.03 16.70 41.46 17.24 C 41.81 15.94 42.16 14.63 42.49 13.32 C 37.53 12.95 32.58 13.74 27.88 15.33 M 20.08 40.97 C 22.77 37.08 25.04 32.81 28.60 29.60 C 32.03 26.45 36.53 24.86 40.22 22.07 C 30.63 24.09 23.44 32.07 20.08 40.97 M 51.41 34.78 C 49.56 36.10 48.24 38.00 46.80 39.72 C 46.44 41.49 46.15 43.27 45.83 45.04 C 47.34 43.17 48.83 41.29 50.36 39.44 C 51.24 39.95 52.12 40.46 53.01 40.97 C 52.87 44.69 50.82 47.85 49.09 51.02 C 52.13 49.94 55.21 48.00 58.54 48.50 C 61.26 49.66 63.09 52.11 65.19 54.08 C 69.26 53.55 74.12 52.81 76.89 56.66 C 72.61 55.10 68.13 54.12 63.54 54.43 C 63.48 56.35 62.65 58.88 64.45 60.29 C 66.42 61.54 68.61 62.36 70.71 63.33 C 70.08 64.32 69.44 65.31 68.82 66.30 C 67.65 65.97 66.48 65.65 65.30 65.34 C 66.51 67.10 68.07 68.57 69.95 69.58 C 70.13 69.04 70.49 67.97 70.66 67.44 C 73.34 67.42 75.73 65.69 76.18 62.95 C 75.86 60.44 73.53 58.97 71.92 57.26 C 73.31 57.96 74.71 58.66 76.10 59.35 C 78.27 56.17 80.44 52.43 79.53 48.43 C 78.52 44.19 76.40 39.82 72.74 37.29 C 68.35 35.48 63.48 35.31 58.81 34.77 C 59.00 34.32 59.36 33.41 59.54 32.96 C 56.80 33.39 53.99 33.73 51.41 34.78 M 37.36 42.37 C 35.33 44.16 34.74 46.91 33.97 49.38 C 37.75 48.51 40.06 45.55 41.15 41.99 C 40.94 43.56 40.72 45.12 40.51 46.69 C 37.86 48.62 35.05 50.32 32.09 51.75 C 31.59 51.04 31.09 50.34 30.59 49.64 C 31.93 47.62 32.96 45.42 33.47 43.04 C 32.11 43.48 30.73 43.86 29.44 44.48 C 28.17 46.56 27.44 48.91 26.58 51.18 C 26.87 48.99 27.13 46.79 27.28 44.59 C 25.99 45.48 24.38 46.13 23.67 47.62 C 21.44 51.84 18.52 55.76 17.29 60.44 C 18.34 60.53 19.38 60.62 20.43 60.70 C 22.52 56.50 27.48 55.00 29.45 50.74 C 29.03 53.18 28.76 55.64 28.58 58.11 C 30.53 58.58 32.49 59.01 34.46 59.39 C 33.46 57.56 32.37 55.78 31.23 54.05 C 33.27 55.14 35.29 56.86 37.73 56.67 C 39.49 55.92 40.82 54.44 42.09 53.05 C 43.98 51.19 43.48 48.35 43.97 45.98 C 44.15 43.61 45.65 41.69 46.80 39.72 C 47.01 39.33 47.43 38.57 47.64 38.18 C 44.08 39.11 40.17 39.80 37.36 42.37 M 48.38 53.28 C 48.73 58.77 47.64 65.92 52.95 69.44 C 54.55 68.60 56.20 67.62 56.88 65.85 C 56.23 63.72 53.71 63.20 52.06 62.04 C 54.00 62.44 55.93 62.95 57.91 63.08 C 63.02 61.31 64.69 52.85 59.42 50.30 C 55.56 47.70 51.69 51.51 48.38 53.28 M 26.70 67.25 C 28.47 69.48 30.32 71.67 32.44 73.57 C 35.05 75.80 38.58 76.31 41.78 77.18 C 40.33 75.57 38.87 73.98 37.48 72.31 C 40.69 73.20 44.16 73.93 46.64 76.34 C 48.18 77.45 49.57 79.50 51.72 79.04 C 54.53 76.99 54.56 73.23 55.14 70.14 C 53.08 69.74 51.03 69.29 48.99 68.80 C 49.29 71.21 49.66 73.62 50.04 76.02 C 48.00 74.25 45.82 72.54 43.16 71.83 C 37.71 70.17 32.30 68.35 26.70 67.25 M 61.09 68.07 C 61.67 69.66 62.37 71.22 62.70 72.89 C 62.02 75.87 59.83 78.14 57.94 80.43 C 58.54 81.24 59.58 81.08 60.45 81.15 C 68.65 81.08 76.11 85.33 84.27 85.73 C 77.78 81.93 70.08 81.17 63.08 78.65 C 64.22 76.92 65.29 75.14 66.20 73.28 C 67.80 72.71 69.41 72.17 71.03 71.65 C 67.43 71.41 63.79 70.62 61.09 68.07 Z" />
<path fill="#ffffff" opacity="1.00" d=" M 27.88 15.33 C 32.58 13.74 37.53 12.95 42.49 13.32 C 42.16 14.63 41.81 15.94 41.46 17.24 C 43.03 16.70 44.53 15.08 46.29 15.68 C 46.48 17.18 46.49 18.69 46.52 20.19 C 50.70 20.98 55.01 21.41 58.95 23.11 C 64.03 25.35 68.59 29.03 71.22 33.98 C 66.79 31.47 63.67 27.16 59.05 24.92 C 55.07 22.89 50.56 22.40 46.19 21.84 C 47.33 25.16 48.04 28.61 48.28 32.11 C 46.35 31.63 44.43 31.13 42.51 30.62 C 41.52 31.54 40.53 32.45 39.54 33.36 C 42.19 32.23 45.14 31.65 47.83 33.05 C 47.74 33.41 47.56 34.12 47.46 34.47 C 44.75 35.78 41.76 36.37 38.86 37.13 C 37.38 32.38 39.76 27.78 41.00 23.27 C 41.65 21.36 40.59 19.21 39.29 17.84 C 35.84 15.83 31.78 15.48 27.88 15.33 Z" />
<path fill="#eeeff2" opacity="1.00" d=" M 20.08 40.97 C 23.44 32.07 30.63 24.09 40.22 22.07 C 36.53 24.86 32.03 26.45 28.60 29.60 C 25.04 32.81 22.77 37.08 20.08 40.97 Z" />
<path fill="#eeeff2" opacity="1.00" d=" M 51.41 34.78 C 53.99 33.73 56.80 33.39 59.54 32.96 C 59.36 33.41 59.00 34.32 58.81 34.77 C 56.62 36.51 53.12 37.69 53.01 40.97 C 52.12 40.46 51.24 39.95 50.36 39.44 C 48.83 41.29 47.34 43.17 45.83 45.04 C 46.15 43.27 46.44 41.49 46.80 39.72 C 48.24 38.00 49.56 36.10 51.41 34.78 Z" />
<path fill="#ffffff" opacity="1.00" d=" M 53.01 40.97 C 53.12 37.69 56.62 36.51 58.81 34.77 C 63.48 35.31 68.35 35.48 72.74 37.29 C 76.40 39.82 78.52 44.19 79.53 48.43 C 80.44 52.43 78.27 56.17 76.10 59.35 C 74.71 58.66 73.31 57.96 71.92 57.26 C 73.53 58.97 75.86 60.44 76.18 62.95 C 75.73 65.69 73.34 67.42 70.66 67.44 C 70.49 67.97 70.13 69.04 69.95 69.58 C 68.07 68.57 66.51 67.10 65.30 65.34 C 66.48 65.65 67.65 65.97 68.82 66.30 C 69.44 65.31 70.08 64.32 70.71 63.33 C 68.61 62.36 66.42 61.54 64.45 60.29 C 62.65 58.88 63.48 56.35 63.54 54.43 C 68.13 54.12 72.61 55.10 76.89 56.66 C 74.12 52.81 69.26 53.55 65.19 54.08 C 63.09 52.11 61.26 49.66 58.54 48.50 C 55.21 48.00 52.13 49.94 49.09 51.02 C 50.82 47.85 52.87 44.69 53.01 40.97 M 68.42 57.06 C 68.54 60.40 71.41 55.53 68.42 57.06 Z" />
<path fill="#ffffff" opacity="1.00" d=" M 37.36 42.37 C 40.17 39.80 44.08 39.11 47.64 38.18 C 47.43 38.57 47.01 39.33 46.80 39.72 C 45.65 41.69 44.15 43.61 43.97 45.98 C 43.48 48.35 43.98 51.19 42.09 53.05 C 40.82 54.44 39.49 55.92 37.73 56.67 C 35.29 56.86 33.27 55.14 31.23 54.05 C 32.37 55.78 33.46 57.56 34.46 59.39 C 32.49 59.01 30.53 58.58 28.58 58.11 C 28.76 55.64 29.03 53.18 29.45 50.74 C 27.48 55.00 22.52 56.50 20.43 60.70 C 19.38 60.62 18.34 60.53 17.29 60.44 C 18.52 55.76 21.44 51.84 23.67 47.62 C 24.38 46.13 25.99 45.48 27.28 44.59 C 27.13 46.79 26.87 48.99 26.58 51.18 C 27.44 48.91 28.17 46.56 29.44 44.48 C 30.73 43.86 32.11 43.48 33.47 43.04 C 32.96 45.42 31.93 47.62 30.59 49.64 C 31.09 50.34 31.59 51.04 32.09 51.75 C 35.05 50.32 37.86 48.62 40.51 46.69 C 40.72 45.12 40.94 43.56 41.15 41.99 C 40.06 45.55 37.75 48.51 33.97 49.38 C 34.74 46.91 35.33 44.16 37.36 42.37 Z" />
<path fill="#ffffff" opacity="1.00" d=" M 48.38 53.28 C 51.69 51.51 55.56 47.70 59.42 50.30 C 64.69 52.85 63.02 61.31 57.91 63.08 C 55.93 62.95 54.00 62.44 52.06 62.04 C 53.71 63.20 56.23 63.72 56.88 65.85 C 56.20 67.62 54.55 68.60 52.95 69.44 C 47.64 65.92 48.73 58.77 48.38 53.28 Z" />
<path fill="#2f4264" opacity="1.00" d=" M 68.42 57.06 C 71.41 55.53 68.54 60.40 68.42 57.06 Z" />
<path fill="#ffffff" opacity="1.00" d=" M 26.70 67.25 C 32.30 68.35 37.71 70.17 43.16 71.83 C 45.82 72.54 48.00 74.25 50.04 76.02 C 49.66 73.62 49.29 71.21 48.99 68.80 C 51.03 69.29 53.08 69.74 55.14 70.14 C 54.56 73.23 54.53 76.99 51.72 79.04 C 49.57 79.50 48.18 77.45 46.64 76.34 C 44.16 73.93 40.69 73.20 37.48 72.31 C 38.87 73.98 40.33 75.57 41.78 77.18 C 38.58 76.31 35.05 75.80 32.44 73.57 C 30.32 71.67 28.47 69.48 26.70 67.25 Z" />
<path fill="#ffffff" opacity="1.00" d=" M 61.09 68.07 C 63.79 70.62 67.43 71.41 71.03 71.65 C 69.41 72.17 67.80 72.71 66.20 73.28 C 65.29 75.14 64.22 76.92 63.08 78.65 C 70.08 81.17 77.78 81.93 84.27 85.73 C 76.11 85.33 68.65 81.08 60.45 81.15 C 59.58 81.08 58.54 81.24 57.94 80.43 C 59.83 78.14 62.02 75.87 62.70 72.89 C 62.37 71.22 61.67 69.66 61.09 68.07 Z" />
</svg>
