<?xml version="1.0" encoding="UTF-8" ?>
<!DOCTYPE svg PUBLIC "-//W3C//DTD SVG 1.1//EN" "http://www.w3.org/Graphics/SVG/1.1/DTD/svg11.dtd">
<svg width="100pt" height="100pt" viewBox="0 0 100 100" version="1.1" xmlns="http://www.w3.org/2000/svg">
<path fill="#bcbcbb" opacity="1.00" d=" M 33.47 18.58 C 35.37 15.69 37.44 12.93 39.76 10.38 C 40.53 12.59 41.26 14.81 41.99 17.03 C 47.33 16.74 52.58 15.54 57.05 12.50 C 57.09 13.94 57.12 15.38 57.15 16.82 C 63.69 18.46 70.01 21.39 74.89 26.11 C 81.73 32.54 85.68 41.70 86.38 50.99 C 86.85 66.25 77.00 81.40 62.46 86.46 C 47.40 92.24 28.96 86.41 20.08 72.92 C 14.66 64.68 11.83 54.12 14.59 44.42 C 16.40 37.06 20.28 30.07 26.17 25.20 C 28.66 23.06 31.66 21.40 33.47 18.58 M 29.65 26.68 C 19.94 33.80 15.25 46.73 17.52 58.47 C 19.91 72.31 32.01 83.73 45.99 85.21 C 60.19 87.17 74.94 78.60 80.33 65.33 C 85.57 53.43 82.76 38.62 73.60 29.41 C 68.74 24.17 61.96 21.37 55.15 19.66 C 55.07 18.07 54.99 16.48 54.92 14.88 C 50.91 17.97 46.26 20.05 41.24 20.82 C 40.42 18.31 39.61 15.81 38.73 13.33 C 35.70 17.79 34.40 23.58 29.65 26.68 Z" />
<path fill="#2f4364" opacity="1.00" d=" M 29.65 26.68 C 34.40 23.58 35.70 17.79 38.73 13.33 C 39.61 15.81 40.42 18.31 41.24 20.82 C 46.26 20.05 50.91 17.97 54.92 14.88 C 54.99 16.48 55.07 18.07 55.15 19.66 C 61.96 21.37 68.74 24.17 73.60 29.41 C 82.76 38.62 85.57 53.43 80.33 65.33 C 74.94 78.60 60.19 87.17 45.99 85.21 C 32.01 83.73 19.91 72.31 17.52 58.47 C 15.25 46.73 19.94 33.80 29.65 26.68 M 37.17 16.73 C 37.04 19.70 37.19 22.71 36.62 25.64 C 33.36 30.48 28.15 33.61 24.74 38.37 C 29.39 35.61 32.89 31.32 37.50 28.54 C 41.82 27.93 46.18 29.37 50.49 29.76 C 43.30 30.87 36.36 34.11 31.86 39.99 C 34.31 40.99 36.79 41.91 39.18 43.05 C 36.33 42.59 33.54 41.89 30.76 41.10 C 28.82 43.07 26.66 44.89 25.16 47.25 C 25.19 49.21 25.85 51.09 26.35 52.97 C 24.75 54.97 23.13 56.95 21.59 59.00 C 25.03 56.47 28.68 54.00 33.12 53.87 C 30.78 56.76 28.14 59.39 25.77 62.25 C 28.32 60.68 30.64 58.77 33.25 57.30 C 35.76 55.95 38.80 56.83 41.40 55.78 C 42.43 54.95 43.04 53.70 43.49 52.47 C 39.14 49.17 33.85 47.15 28.38 46.91 C 28.41 48.09 28.43 49.26 28.45 50.44 C 27.98 50.11 27.04 49.45 26.56 49.12 C 26.75 48.26 27.12 46.56 27.31 45.70 C 30.58 45.43 33.84 45.80 37.08 46.25 C 40.69 46.10 44.02 44.40 47.46 43.43 C 45.18 45.07 42.70 46.41 40.17 47.66 C 43.57 49.71 46.83 52.07 50.52 53.58 C 54.06 54.98 57.96 54.64 61.66 54.26 C 60.76 52.23 60.07 50.06 58.71 48.27 C 55.48 46.81 51.84 46.71 48.45 45.76 C 52.15 45.69 55.87 45.77 59.54 46.33 C 59.20 44.41 58.84 42.50 58.56 40.57 C 60.42 43.18 61.20 46.28 61.54 49.42 C 64.37 49.10 67.34 48.37 68.12 45.23 C 63.64 42.28 58.62 40.31 53.75 38.12 C 53.59 38.65 53.28 39.72 53.12 40.25 C 50.99 39.06 48.89 37.81 46.83 36.50 C 52.01 35.83 57.11 37.04 62.20 37.79 C 60.45 35.02 58.72 31.98 55.76 30.32 C 51.56 27.98 47.11 26.15 42.76 24.12 C 39.72 22.80 38.77 19.34 37.17 16.73 M 49.60 23.03 C 49.35 26.35 53.08 27.29 55.32 28.71 C 53.47 25.25 51.77 21.64 52.09 17.60 C 51.16 19.36 50.07 21.08 49.60 23.03 M 68.29 42.39 C 68.53 44.15 68.71 45.91 68.85 47.68 C 71.70 47.81 74.56 47.54 77.25 46.57 C 74.43 44.84 71.37 43.59 68.29 42.39 M 63.60 50.85 C 63.32 54.30 62.82 57.73 62.51 61.17 C 64.69 60.62 67.11 60.40 68.89 58.87 C 68.65 57.43 68.22 56.03 67.82 54.63 C 69.63 54.09 71.43 53.51 73.22 52.88 C 70.12 51.77 66.87 51.17 63.60 50.85 M 74.42 53.97 C 71.55 55.18 70.65 58.41 69.28 60.92 C 71.58 60.26 73.89 59.63 76.23 59.16 C 72.56 61.30 68.35 62.17 64.14 62.33 C 57.51 69.14 49.02 73.69 42.04 80.10 C 48.04 76.93 53.40 72.75 59.13 69.14 C 64.68 65.71 71.23 64.71 77.48 63.35 C 78.90 60.78 78.56 57.70 78.89 54.88 C 77.41 54.53 75.95 54.06 74.42 53.97 M 45.71 60.17 C 47.63 59.59 49.52 58.94 51.40 58.24 C 51.68 60.22 52.00 62.20 52.34 64.18 C 54.01 63.42 55.65 62.62 57.28 61.79 C 57.79 63.36 58.30 64.93 58.85 66.49 C 59.98 63.18 59.62 59.68 58.84 56.34 C 55.93 56.06 53.01 55.60 50.07 55.74 C 48.15 56.66 47.04 58.60 45.71 60.17 M 40.01 57.78 C 39.26 62.52 36.21 66.13 32.79 69.25 C 35.63 69.76 38.41 69.11 40.69 67.33 C 42.09 69.60 43.44 73.55 46.81 72.91 C 49.98 71.41 52.68 69.07 55.77 67.39 C 55.93 66.53 56.10 65.67 56.27 64.82 C 52.19 66.39 49.44 62.52 46.25 60.74 C 45.73 63.65 45.31 66.57 44.65 69.45 C 44.77 67.28 44.99 65.12 45.21 62.97 C 43.46 61.25 41.73 59.52 40.01 57.78 M 61.70 68.24 C 60.88 70.75 60.68 73.39 61.52 75.93 C 58.82 77.89 56.10 79.82 53.63 82.07 C 58.32 80.12 62.66 77.47 67.08 74.99 C 66.51 72.87 65.94 70.75 65.39 68.63 C 64.16 68.50 62.93 68.37 61.70 68.24 M 27.38 74.04 C 29.93 75.97 33.64 78.16 36.57 75.57 C 38.26 74.94 37.61 73.15 37.41 71.82 C 33.85 70.54 29.97 71.16 27.38 74.04 Z" />
<path fill="#ffffff" opacity="1.00" d=" M 37.17 16.73 C 38.77 19.34 39.72 22.80 42.76 24.12 C 47.11 26.15 51.56 27.98 55.76 30.32 C 58.72 31.98 60.45 35.02 62.20 37.79 C 57.11 37.04 52.01 35.83 46.83 36.50 C 48.89 37.81 50.99 39.06 53.12 40.25 C 53.28 39.72 53.59 38.65 53.75 38.12 C 58.62 40.31 63.64 42.28 68.12 45.23 C 67.34 48.37 64.37 49.10 61.54 49.42 C 61.20 46.28 60.42 43.18 58.56 40.57 C 58.84 42.50 59.20 44.41 59.54 46.33 C 55.87 45.77 52.15 45.69 48.45 45.76 C 51.84 46.71 55.48 46.81 58.71 48.27 C 60.07 50.06 60.76 52.23 61.66 54.26 C 57.96 54.64 54.06 54.98 50.52 53.58 C 46.83 52.07 43.57 49.71 40.17 47.66 C 42.70 46.41 45.18 45.07 47.46 43.43 C 44.02 44.40 40.69 46.10 37.08 46.25 C 33.84 45.80 30.58 45.43 27.31 45.70 C 27.12 46.56 26.75 48.26 26.56 49.12 C 27.04 49.45 27.98 50.11 28.45 50.44 C 28.43 49.26 28.41 48.09 28.38 46.91 C 33.85 47.15 39.14 49.17 43.49 52.47 C 43.04 53.70 42.43 54.95 41.40 55.78 C 38.80 56.83 35.76 55.95 33.25 57.30 C 30.64 58.77 28.32 60.68 25.77 62.25 C 28.14 59.39 30.78 56.76 33.12 53.87 C 28.68 54.00 25.03 56.47 21.59 59.00 C 23.13 56.95 24.75 54.97 26.35 52.97 C 25.85 51.09 25.19 49.21 25.16 47.25 C 26.66 44.89 28.82 43.07 30.76 41.10 C 33.54 41.89 36.33 42.59 39.18 43.05 C 36.79 41.91 34.31 40.99 31.86 39.99 C 36.36 34.11 43.30 30.87 50.49 29.76 C 46.18 29.37 41.82 27.93 37.50 28.54 C 32.89 31.32 29.39 35.61 24.74 38.37 C 28.15 33.61 33.36 30.48 36.62 25.64 C 37.19 22.71 37.04 19.70 37.17 16.73 M 53.67 31.33 C 52.75 32.88 55.36 34.61 56.59 33.46 C 57.53 31.93 54.88 30.20 53.67 31.33 M 45.41 31.61 C 45.33 32.43 45.18 34.09 45.10 34.92 C 46.55 34.98 47.99 35.03 49.44 35.08 C 48.11 33.91 46.77 32.75 45.41 31.61 M 41.20 34.65 C 40.83 35.19 40.08 36.29 39.71 36.84 C 42.19 37.43 44.65 38.08 47.13 38.65 C 45.22 37.23 43.22 35.93 41.20 34.65 M 34.32 52.08 C 33.92 53.49 34.42 53.96 35.81 53.49 C 36.21 52.08 35.71 51.60 34.32 52.08 Z" />
<path fill="#ffffff" opacity="1.00" d=" M 49.60 23.03 C 50.07 21.08 51.16 19.36 52.09 17.60 C 51.77 21.64 53.47 25.25 55.32 28.71 C 53.08 27.29 49.35 26.35 49.60 23.03 Z" />
<path fill="#3a4969" opacity="1.00" d=" M 53.67 31.33 C 54.88 30.20 57.53 31.93 56.59 33.46 C 55.36 34.61 52.75 32.88 53.67 31.33 Z" />
<path fill="#2f4364" opacity="1.00" d=" M 45.41 31.61 C 46.77 32.75 48.11 33.91 49.44 35.08 C 47.99 35.03 46.55 34.98 45.10 34.92 C 45.18 34.09 45.33 32.43 45.41 31.61 Z" />
<path fill="#324666" opacity="1.00" d=" M 41.20 34.65 C 43.22 35.93 45.22 37.23 47.13 38.65 C 44.65 38.08 42.19 37.43 39.71 36.84 C 40.08 36.29 40.83 35.19 41.20 34.65 Z" />
<path fill="#ffffff" opacity="1.00" d=" M 68.29 42.39 C 71.37 43.59 74.43 44.84 77.25 46.57 C 74.56 47.54 71.70 47.81 68.85 47.68 C 68.71 45.91 68.53 44.15 68.29 42.39 Z" />
<path fill="#ffffff" opacity="1.00" d=" M 63.60 50.85 C 66.87 51.17 70.12 51.77 73.22 52.88 C 71.43 53.51 69.63 54.09 67.82 54.63 C 68.22 56.03 68.65 57.43 68.89 58.87 C 67.11 60.40 64.69 60.62 62.51 61.17 C 62.82 57.73 63.32 54.30 63.60 50.85 Z" />
<path fill="#77849a" opacity="1.00" d=" M 34.32 52.08 C 35.71 51.60 36.21 52.08 35.81 53.49 C 34.42 53.96 33.92 53.49 34.32 52.08 Z" />
<path fill="#ffffff" opacity="1.00" d=" M 74.42 53.97 C 75.95 54.06 77.41 54.53 78.89 54.88 C 78.56 57.70 78.90 60.78 77.48 63.35 C 71.23 64.71 64.68 65.71 59.13 69.14 C 53.40 72.75 48.04 76.93 42.04 80.10 C 49.02 73.69 57.51 69.14 64.14 62.33 C 68.35 62.17 72.56 61.30 76.23 59.16 C 73.89 59.63 71.58 60.26 69.28 60.92 C 70.65 58.41 71.55 55.18 74.42 53.97 Z" />
<path fill="#ffffff" opacity="1.00" d=" M 45.71 60.17 C 47.04 58.60 48.15 56.66 50.07 55.74 C 53.01 55.60 55.93 56.06 58.84 56.34 C 59.62 59.68 59.98 63.18 58.85 66.49 C 58.30 64.93 57.79 63.36 57.28 61.79 C 55.65 62.62 54.01 63.42 52.34 64.18 C 52.00 62.20 51.68 60.22 51.40 58.24 C 49.52 58.94 47.63 59.59 45.71 60.17 Z" />
<path fill="#ffffff" opacity="1.00" d=" M 40.01 57.78 C 41.73 59.52 43.46 61.25 45.21 62.97 C 44.99 65.12 44.77 67.28 44.65 69.45 C 45.31 66.57 45.73 63.65 46.25 60.74 C 49.44 62.52 52.19 66.39 56.27 64.82 C 56.10 65.67 55.93 66.53 55.77 67.39 C 52.68 69.07 49.98 71.41 46.81 72.91 C 43.44 73.55 42.09 69.60 40.69 67.33 C 38.41 69.11 35.63 69.76 32.79 69.25 C 36.21 66.13 39.26 62.52 40.01 57.78 Z" />
<path fill="#ffffff" opacity="1.00" d=" M 61.70 68.24 C 62.93 68.37 64.16 68.50 65.39 68.63 C 65.94 70.75 66.51 72.87 67.08 74.99 C 62.66 77.47 58.32 80.12 53.63 82.07 C 56.10 79.82 58.82 77.89 61.52 75.93 C 60.68 73.39 60.88 70.75 61.70 68.24 Z" />
<path fill="#ffffff" opacity="1.00" d=" M 27.38 74.04 C 29.97 71.16 33.85 70.54 37.41 71.82 C 37.61 73.15 38.26 74.94 36.57 75.57 C 33.64 78.16 29.93 75.97 27.38 74.04 Z" />
</svg>
