<?xml version="1.0" encoding="UTF-8" ?>
<!DOCTYPE svg PUBLIC "-//W3C//DTD SVG 1.1//EN" "http://www.w3.org/Graphics/SVG/1.1/DTD/svg11.dtd">
<svg width="100pt" height="100pt" viewBox="0 0 100 100" version="1.1" xmlns="http://www.w3.org/2000/svg">
<path fill="#b8baba" opacity="1.00" d=" M 25.98 18.74 C 29.17 17.03 32.22 14.55 35.98 14.34 C 37.90 14.84 39.46 16.16 41.13 17.18 C 42.62 16.48 44.11 15.76 45.60 15.06 C 47.25 16.33 48.60 18.63 50.94 18.49 C 52.82 18.00 54.01 16.25 55.48 15.08 C 56.96 15.78 58.43 16.48 59.91 17.17 C 61.57 16.16 63.13 14.88 65.02 14.34 C 68.81 14.50 71.88 17.02 75.05 18.81 C 76.74 17.34 78.41 15.86 80.09 14.39 C 82.17 15.73 84.04 17.49 86.38 18.37 C 89.84 18.88 93.35 18.60 96.83 18.76 C 94.87 21.81 92.68 24.70 90.69 27.73 C 87.86 31.85 88.39 37.34 85.49 41.45 C 82.93 45.89 78.37 48.41 74.44 51.45 C 70.01 56.18 67.13 62.09 63.23 67.22 C 58.94 72.82 55.05 78.72 50.97 84.46 C 46.39 78.24 42.27 71.66 37.08 65.91 C 33.10 60.34 30.48 53.32 24.34 49.67 C 20.05 47.09 16.19 43.50 14.19 38.82 C 12.63 35.18 12.70 30.93 10.37 27.61 C 8.27 24.43 5.92 21.44 3.75 18.32 C 7.45 18.24 11.18 18.57 14.84 18.02 C 17.12 17.27 18.99 15.67 21.01 14.43 C 22.67 15.87 24.31 17.32 25.98 18.74 M 26.78 21.76 C 23.96 21.52 22.70 18.29 20.79 16.56 C 18.10 19.31 14.98 21.70 11.09 22.38 C 13.40 26.25 14.24 30.68 15.02 35.05 C 16.17 41.17 20.86 46.02 26.32 48.69 C 29.77 50.38 33.00 52.74 34.91 56.16 C 37.17 59.38 37.11 64.03 40.63 66.34 C 45.00 69.60 47.76 74.36 51.00 78.63 C 53.87 74.66 56.41 70.39 59.99 67.00 C 64.79 63.01 65.15 55.98 69.88 51.90 C 73.93 48.55 79.40 46.98 82.55 42.52 C 87.53 36.85 85.85 28.61 89.63 22.36 C 85.90 21.54 82.88 19.19 80.23 16.55 C 78.74 18.31 77.39 20.23 75.59 21.69 C 72.07 21.90 70.56 17.30 67.26 16.52 C 64.58 15.59 62.66 18.16 60.70 19.51 C 59.16 18.80 57.61 18.08 56.07 17.36 C 54.64 18.86 53.30 20.49 51.57 21.67 C 48.54 22.46 46.92 19.05 44.97 17.38 C 43.42 18.09 41.87 18.80 40.32 19.50 C 38.90 18.40 37.56 17.15 35.91 16.39 C 31.89 15.80 29.86 20.06 26.78 21.76 Z" />
<path fill="#b61c2e" opacity="1.00" d=" M 26.78 21.76 C 29.86 20.06 31.89 15.80 35.91 16.39 C 37.56 17.15 38.90 18.40 40.32 19.50 C 41.87 18.80 43.42 18.09 44.97 17.38 C 46.92 19.05 48.54 22.46 51.57 21.67 C 53.30 20.49 54.64 18.86 56.07 17.36 C 57.61 18.08 59.16 18.80 60.70 19.51 C 62.66 18.16 64.58 15.59 67.26 16.52 C 70.56 17.30 72.07 21.90 75.59 21.69 C 77.39 20.23 78.74 18.31 80.23 16.55 C 82.88 19.19 85.90 21.54 89.63 22.36 C 85.85 28.61 87.53 36.85 82.55 42.52 C 79.40 46.98 73.93 48.55 69.88 51.90 C 65.15 55.98 64.79 63.01 59.99 67.00 C 56.41 70.39 53.87 74.66 51.00 78.63 C 47.76 74.36 45.00 69.60 40.63 66.34 C 37.11 64.03 37.17 59.38 34.91 56.16 C 33.00 52.74 29.77 50.38 26.32 48.69 C 20.86 46.02 16.17 41.17 15.02 35.05 C 14.24 30.68 13.40 26.25 11.09 22.38 C 14.98 21.70 18.10 19.31 20.79 16.56 C 22.70 18.29 23.96 21.52 26.78 21.76 M 30.70 21.08 C 32.73 21.63 34.83 21.33 36.87 21.10 C 36.75 20.31 36.50 18.73 36.37 17.94 C 34.39 18.80 32.43 19.76 30.70 21.08 M 64.66 17.95 C 64.54 18.70 64.30 20.19 64.18 20.94 C 66.26 21.22 68.34 21.48 70.44 21.65 C 68.81 19.98 66.82 18.77 64.66 17.95 M 16.71 27.01 C 15.21 35.24 20.32 43.91 27.89 47.19 C 31.76 48.53 35.94 48.47 39.91 49.44 C 38.26 47.30 36.17 45.34 35.35 42.70 C 34.70 39.82 36.59 37.25 37.76 34.78 C 40.08 36.60 42.82 37.69 45.59 36.13 C 45.15 34.63 44.69 33.14 44.25 31.65 C 45.91 30.99 47.57 30.33 49.23 29.66 C 47.27 28.71 45.23 27.87 43.46 26.57 C 43.88 24.29 44.77 22.14 45.45 19.93 C 42.24 20.51 40.27 22.88 39.34 25.89 C 38.86 24.39 38.37 22.89 37.87 21.39 C 34.31 22.78 30.99 25.34 27.04 25.30 C 23.64 25.28 22.08 21.81 20.10 19.64 C 18.68 21.94 17.16 24.29 16.71 27.01 M 55.42 19.98 C 56.21 22.14 57.12 24.27 58.02 26.39 C 56.05 27.53 54.02 28.58 51.99 29.61 C 53.57 30.32 55.16 31.01 56.76 31.70 C 56.34 33.18 55.91 34.66 55.50 36.15 C 56.80 36.47 58.09 36.90 59.44 37.00 C 60.65 36.38 61.72 35.52 62.84 34.76 C 64.23 36.91 66.21 39.13 65.79 41.89 C 65.23 44.78 63.20 47.07 61.74 49.54 C 65.10 47.86 68.74 47.40 72.43 47.35 C 78.82 45.33 83.20 38.96 84.45 32.57 C 85.43 27.93 83.42 23.46 81.17 19.54 C 79.08 21.74 77.42 25.23 73.96 25.30 C 70.05 25.31 66.75 22.82 63.22 21.45 C 62.71 22.92 62.22 24.40 61.72 25.88 C 60.78 22.80 58.73 20.42 55.42 19.98 M 44.19 37.69 C 42.76 40.88 45.74 44.16 46.59 47.23 C 48.07 46.31 49.55 45.40 51.03 44.49 C 49.05 41.98 47.32 38.91 44.19 37.69 M 51.65 42.08 C 52.81 43.44 53.98 44.80 55.33 45.98 C 56.18 43.28 57.83 40.45 56.95 37.54 C 54.87 38.65 53.27 40.41 51.65 42.08 M 47.86 47.87 C 48.49 49.73 49.11 51.59 49.75 53.45 C 51.70 51.30 52.96 48.65 52.49 45.69 C 50.94 46.40 49.39 47.13 47.86 47.87 M 51.60 58.23 C 53.62 57.88 55.64 57.50 57.65 57.09 C 56.44 54.53 55.18 51.99 53.86 49.48 C 52.62 52.25 51.86 55.20 51.60 58.23 M 43.43 57.15 C 45.46 57.51 47.49 57.84 49.54 58.13 C 48.55 55.83 47.39 53.61 46.12 51.45 C 45.19 53.34 44.30 55.24 43.43 57.15 M 41.68 58.28 C 42.10 59.67 42.53 61.06 42.98 62.45 C 41.75 62.42 40.53 62.41 39.30 62.40 C 40.76 63.43 42.25 64.43 43.74 65.41 C 44.77 63.66 45.79 61.90 46.81 60.15 C 45.10 59.52 43.39 58.89 41.68 58.28 M 54.22 60.08 C 55.27 61.90 56.32 63.72 57.40 65.54 C 58.92 64.32 60.41 63.05 61.85 61.74 C 60.57 62.00 59.30 62.28 58.02 62.56 C 58.60 61.16 59.17 59.76 59.73 58.35 C 57.88 58.91 56.05 59.49 54.22 60.08 Z" />
<path fill="#ffffff" opacity="1.00" d=" M 30.70 21.08 C 32.43 19.76 34.39 18.80 36.37 17.94 C 36.50 18.73 36.75 20.31 36.87 21.10 C 34.83 21.33 32.73 21.63 30.70 21.08 Z" />
<path fill="#ffffff" opacity="1.00" d=" M 64.66 17.95 C 66.82 18.77 68.81 19.98 70.44 21.65 C 68.34 21.48 66.26 21.22 64.18 20.94 C 64.30 20.19 64.54 18.70 64.66 17.95 Z" />
<path fill="#ffffff" opacity="1.00" d=" M 16.71 27.01 C 17.16 24.29 18.68 21.94 20.10 19.64 C 22.08 21.81 23.64 25.28 27.04 25.30 C 30.99 25.34 34.31 22.78 37.87 21.39 C 38.37 22.89 38.86 24.39 39.34 25.89 C 40.27 22.88 42.24 20.51 45.45 19.93 C 44.77 22.14 43.88 24.29 43.46 26.57 C 45.23 27.87 47.27 28.71 49.23 29.66 C 47.57 30.33 45.91 30.99 44.25 31.65 C 44.69 33.14 45.15 34.63 45.59 36.13 C 42.82 37.69 40.08 36.60 37.76 34.78 C 36.59 37.25 34.70 39.82 35.35 42.70 C 36.17 45.34 38.26 47.30 39.91 49.44 C 35.94 48.47 31.76 48.53 27.89 47.19 C 20.32 43.91 15.21 35.24 16.71 27.01 M 27.24 32.43 C 30.56 33.38 33.91 34.18 37.27 34.98 C 36.73 34.01 36.19 33.05 35.66 32.09 C 33.90 31.89 32.14 31.71 30.38 31.53 C 31.27 29.53 32.09 27.50 32.76 25.42 C 30.30 27.21 28.71 29.83 27.24 32.43 Z" />
<path fill="#ffffff" opacity="1.00" d=" M 55.42 19.98 C 58.73 20.42 60.78 22.80 61.72 25.88 C 62.22 24.40 62.71 22.92 63.22 21.45 C 66.75 22.82 70.05 25.31 73.96 25.30 C 77.42 25.23 79.08 21.74 81.17 19.54 C 83.42 23.46 85.43 27.93 84.45 32.57 C 83.20 38.96 78.82 45.33 72.43 47.35 C 68.74 47.40 65.10 47.86 61.74 49.54 C 63.20 47.07 65.23 44.78 65.79 41.89 C 66.21 39.13 64.23 36.91 62.84 34.76 C 61.72 35.52 60.65 36.38 59.44 37.00 C 58.09 36.90 56.80 36.47 55.50 36.15 C 55.91 34.66 56.34 33.18 56.76 31.70 C 55.16 31.01 53.57 30.32 51.99 29.61 C 54.02 28.58 56.05 27.53 58.02 26.39 C 57.12 24.27 56.21 22.14 55.42 19.98 M 68.28 25.41 C 68.95 27.48 69.77 29.50 70.64 31.50 C 68.88 31.71 67.12 31.92 65.36 32.15 C 64.83 33.10 64.31 34.06 63.78 35.01 C 67.15 34.19 70.51 33.37 73.83 32.38 C 72.34 29.79 70.71 27.22 68.28 25.41 Z" />
<path fill="#b61c2e" opacity="1.00" d=" M 27.24 32.43 C 28.71 29.83 30.30 27.21 32.76 25.42 C 32.09 27.50 31.27 29.53 30.38 31.53 C 32.14 31.71 33.90 31.89 35.66 32.09 C 36.19 33.05 36.73 34.01 37.27 34.98 C 33.91 34.18 30.56 33.38 27.24 32.43 Z" />
<path fill="#b61c2e" opacity="1.00" d=" M 68.28 25.41 C 70.71 27.22 72.34 29.79 73.83 32.38 C 70.51 33.37 67.15 34.19 63.78 35.01 C 64.31 34.06 64.83 33.10 65.36 32.15 C 67.12 31.92 68.88 31.71 70.64 31.50 C 69.77 29.50 68.95 27.48 68.28 25.41 Z" />
<path fill="#ffffff" opacity="1.00" d=" M 44.19 37.69 C 47.32 38.91 49.05 41.98 51.03 44.49 C 49.55 45.40 48.07 46.31 46.59 47.23 C 45.74 44.16 42.76 40.88 44.19 37.69 Z" />
<path fill="#ffffff" opacity="1.00" d=" M 51.65 42.08 C 53.27 40.41 54.87 38.65 56.95 37.54 C 57.83 40.45 56.18 43.28 55.33 45.98 C 53.98 44.80 52.81 43.44 51.65 42.08 Z" />
<path fill="#ffffff" opacity="1.00" d=" M 47.86 47.87 C 49.39 47.13 50.94 46.40 52.49 45.69 C 52.96 48.65 51.70 51.30 49.75 53.45 C 49.11 51.59 48.49 49.73 47.86 47.87 Z" />
<path fill="#ffffff" opacity="1.00" d=" M 51.60 58.23 C 51.86 55.20 52.62 52.25 53.86 49.48 C 55.18 51.99 56.44 54.53 57.65 57.09 C 55.64 57.50 53.62 57.88 51.60 58.23 Z" />
<path fill="#ffffff" opacity="1.00" d=" M 43.43 57.15 C 44.30 55.24 45.19 53.34 46.12 51.45 C 47.39 53.61 48.55 55.83 49.54 58.13 C 47.49 57.84 45.46 57.51 43.43 57.15 Z" />
<path fill="#ffffff" opacity="1.00" d=" M 41.68 58.28 C 43.39 58.89 45.10 59.52 46.81 60.15 C 45.79 61.90 44.77 63.66 43.74 65.41 C 42.25 64.43 40.76 63.43 39.30 62.40 C 40.53 62.41 41.75 62.42 42.98 62.45 C 42.53 61.06 42.10 59.67 41.68 58.28 Z" />
<path fill="#ffffff" opacity="1.00" d=" M 54.22 60.08 C 56.05 59.49 57.88 58.91 59.73 58.35 C 59.17 59.76 58.60 61.16 58.02 62.56 C 59.30 62.28 60.57 62.00 61.85 61.74 C 60.41 63.05 58.92 64.32 57.40 65.54 C 56.32 63.72 55.27 61.90 54.22 60.08 Z" />
</svg>
