<?xml version="1.0" encoding="UTF-8" ?>
<!DOCTYPE svg PUBLIC "-//W3C//DTD SVG 1.1//EN" "http://www.w3.org/Graphics/SVG/1.1/DTD/svg11.dtd">
<svg width="100pt" height="100pt" viewBox="0 0 100 100" version="1.1" xmlns="http://www.w3.org/2000/svg">
<path fill="#bac0bc" opacity="1.00" d=" M 62.77 11.70 C 65.08 10.91 67.26 9.82 69.49 8.85 C 68.79 12.29 67.88 15.69 67.36 19.16 C 66.80 21.90 68.17 24.47 68.91 27.03 C 76.80 27.08 84.69 27.24 92.58 27.16 C 78.35 47.53 64.06 67.84 49.82 88.19 C 47.29 84.77 44.88 81.26 42.33 77.85 C 42.47 79.86 42.64 81.86 42.80 83.86 C 40.23 86.50 38.92 91.00 34.77 91.53 C 30.06 91.57 25.43 89.52 22.16 86.13 C 23.16 81.79 25.03 77.76 26.85 73.73 C 28.21 68.43 21.60 66.55 20.81 61.95 C 20.43 58.56 23.89 56.82 26.10 54.98 C 19.32 45.61 12.63 36.17 5.91 26.76 C 17.74 26.71 29.56 26.99 41.39 26.78 C 43.51 20.70 47.94 15.77 53.16 12.14 C 56.06 9.89 59.63 12.97 62.77 11.70 M 59.93 16.90 C 58.85 15.54 57.76 14.18 56.67 12.82 C 53.39 15.07 50.03 17.36 47.55 20.53 C 45.34 23.33 44.07 26.71 42.67 29.96 C 32.44 30.37 22.20 30.04 11.96 30.15 C 18.05 39.01 24.48 47.63 30.71 56.39 C 28.14 57.78 23.31 58.21 23.24 61.84 C 24.91 65.64 28.80 67.73 31.88 70.26 C 29.37 75.23 26.43 79.96 23.95 84.93 C 27.81 87.55 32.20 89.29 36.88 89.60 C 38.54 84.26 39.48 78.72 41.22 73.41 C 45.13 75.38 47.26 79.41 49.89 82.71 C 62.15 65.29 74.49 47.91 86.30 30.19 C 79.21 30.11 72.12 30.18 65.03 30.08 C 65.46 28.54 65.90 26.99 66.32 25.45 C 64.64 20.88 66.14 16.14 67.22 11.64 C 64.76 13.35 62.33 15.11 59.93 16.90 Z" />
<path fill="#8a1b6c" opacity="1.00" d=" M 59.93 16.90 C 62.33 15.11 64.76 13.35 67.22 11.64 C 66.14 16.14 64.64 20.88 66.32 25.45 C 65.90 26.99 65.46 28.54 65.03 30.08 C 72.12 30.18 79.21 30.11 86.30 30.19 C 74.49 47.91 62.15 65.29 49.89 82.71 C 47.26 79.41 45.13 75.38 41.22 73.41 C 39.48 78.72 38.54 84.26 36.88 89.60 C 32.20 89.29 27.81 87.55 23.95 84.93 C 26.43 79.96 29.37 75.23 31.88 70.26 C 28.80 67.73 24.91 65.64 23.24 61.84 C 23.31 58.21 28.14 57.78 30.71 56.39 C 24.48 47.63 18.05 39.01 11.96 30.15 C 22.20 30.04 32.44 30.37 42.67 29.96 C 44.07 26.71 45.34 23.33 47.55 20.53 C 50.03 17.36 53.39 15.07 56.67 12.82 C 57.76 14.18 58.85 15.54 59.93 16.90 M 47.38 25.34 C 45.34 29.66 43.76 34.18 41.95 38.60 C 41.38 38.54 40.24 38.44 39.67 38.38 C 40.24 39.47 40.82 40.56 41.39 41.65 C 42.75 41.76 44.10 41.87 45.46 41.97 C 46.36 39.46 46.92 36.73 48.55 34.55 C 51.53 31.18 56.07 29.51 58.70 25.78 C 60.90 22.69 62.67 19.31 64.27 15.87 C 61.93 18.16 59.80 20.64 57.71 23.14 C 57.32 20.65 56.91 18.16 56.48 15.67 C 53.03 18.43 49.33 21.24 47.38 25.34 M 60.90 30.18 C 62.50 28.50 63.82 26.57 64.87 24.50 C 63.19 26.13 61.87 28.06 60.90 30.18 M 50.49 35.70 C 52.88 35.14 55.32 34.67 57.58 33.69 C 59.65 33.09 58.60 30.63 58.84 29.09 C 55.88 31.06 53.09 33.27 50.49 35.70 M 60.08 35.32 C 62.75 35.52 65.44 35.54 68.12 35.51 C 67.80 34.83 67.17 33.45 66.85 32.77 C 64.58 33.59 62.32 34.41 60.08 35.32 M 50.38 38.49 C 47.87 39.86 47.23 42.88 46.32 45.35 C 44.31 52.06 41.87 58.62 39.81 65.31 C 41.75 65.16 43.69 65.01 45.63 64.84 C 48.10 57.03 50.57 49.21 53.46 41.54 C 54.56 45.08 55.45 48.68 56.51 52.23 C 56.67 48.90 56.72 45.56 56.87 42.23 C 61.13 45.93 64.88 50.16 69.12 53.88 C 65.57 48.69 61.47 43.90 57.55 38.99 C 59.05 39.12 60.55 39.25 62.06 39.36 C 60.17 38.14 58.34 36.41 55.98 36.27 C 53.96 36.52 52.13 37.52 50.38 38.49 M 39.20 44.10 C 39.19 44.88 39.19 46.43 39.18 47.21 C 40.54 45.94 41.90 44.66 43.24 43.36 C 41.89 43.60 40.55 43.85 39.20 44.10 M 31.74 54.70 C 33.09 54.84 34.43 54.99 35.78 55.13 C 35.05 57.03 34.34 58.94 33.64 60.85 C 35.08 62.07 36.53 63.30 37.98 64.52 C 40.49 58.00 43.24 51.55 45.07 44.79 C 41.18 48.79 36.86 52.36 31.74 54.70 M 25.38 61.38 C 28.07 64.16 31.44 66.26 33.83 69.32 C 33.74 72.49 32.21 75.44 32.03 78.59 C 32.92 79.64 34.24 80.11 35.45 80.64 C 36.65 77.80 37.54 74.78 39.27 72.21 C 43.18 70.62 47.58 71.57 51.69 71.05 C 50.60 69.56 50.28 66.66 47.91 66.92 C 44.46 66.58 40.93 67.16 37.55 66.35 C 34.55 64.44 32.25 61.65 29.71 59.21 C 28.26 59.92 26.82 60.65 25.38 61.38 M 29.73 79.14 C 28.77 80.77 27.85 82.41 26.93 84.06 C 29.50 85.20 32.10 86.26 34.72 87.28 C 35.36 85.51 36.01 83.74 36.64 81.96 C 34.32 81.05 32.01 80.12 29.73 79.14 Z" />
<path fill="#ffffff" opacity="1.00" d=" M 47.38 25.34 C 49.33 21.24 53.03 18.43 56.48 15.67 C 56.91 18.16 57.32 20.65 57.71 23.14 C 59.80 20.64 61.93 18.16 64.27 15.87 C 62.67 19.31 60.90 22.69 58.70 25.78 C 56.07 29.51 51.53 31.18 48.55 34.55 C 46.92 36.73 46.36 39.46 45.46 41.97 C 44.10 41.87 42.75 41.76 41.39 41.65 C 40.82 40.56 40.24 39.47 39.67 38.38 C 40.24 38.44 41.38 38.54 41.95 38.60 C 43.76 34.18 45.34 29.66 47.38 25.34 Z" />
<path fill="#ffffff" opacity="1.00" d=" M 60.90 30.18 C 61.87 28.06 63.19 26.13 64.87 24.50 C 63.82 26.57 62.50 28.50 60.90 30.18 Z" />
<path fill="#ffffff" opacity="1.00" d=" M 50.49 35.70 C 53.09 33.27 55.88 31.06 58.84 29.09 C 58.60 30.63 59.65 33.09 57.58 33.69 C 55.32 34.67 52.88 35.14 50.49 35.70 Z" />
<path fill="#ffffff" opacity="1.00" d=" M 60.08 35.32 C 62.32 34.41 64.58 33.59 66.85 32.77 C 67.17 33.45 67.80 34.83 68.12 35.51 C 65.44 35.54 62.75 35.52 60.08 35.32 Z" />
<path fill="#ffffff" opacity="1.00" d=" M 50.38 38.49 C 52.13 37.52 53.96 36.52 55.98 36.27 C 58.34 36.41 60.17 38.14 62.06 39.36 C 60.55 39.25 59.05 39.12 57.55 38.99 C 61.47 43.90 65.57 48.69 69.12 53.88 C 64.88 50.16 61.13 45.93 56.87 42.23 C 56.72 45.56 56.67 48.90 56.51 52.23 C 55.45 48.68 54.56 45.08 53.46 41.54 C 50.57 49.21 48.10 57.03 45.63 64.84 C 43.69 65.01 41.75 65.16 39.81 65.31 C 41.87 58.62 44.31 52.06 46.32 45.35 C 47.23 42.88 47.87 39.86 50.38 38.49 Z" />
<path fill="#ffffff" opacity="1.00" d=" M 39.20 44.10 C 40.55 43.85 41.89 43.60 43.24 43.36 C 41.90 44.66 40.54 45.94 39.18 47.21 C 39.19 46.43 39.19 44.88 39.20 44.10 Z" />
<path fill="#ffffff" opacity="1.00" d=" M 31.74 54.70 C 36.86 52.36 41.18 48.79 45.07 44.79 C 43.24 51.55 40.49 58.00 37.98 64.52 C 36.53 63.30 35.08 62.07 33.64 60.85 C 34.34 58.94 35.05 57.03 35.78 55.13 C 34.43 54.99 33.09 54.84 31.74 54.70 Z" />
<path fill="#ffffff" opacity="1.00" d=" M 25.38 61.38 C 26.82 60.65 28.26 59.92 29.71 59.21 C 32.25 61.65 34.55 64.44 37.55 66.35 C 40.93 67.16 44.46 66.58 47.91 66.92 C 50.28 66.66 50.60 69.56 51.69 71.05 C 47.58 71.57 43.18 70.62 39.27 72.21 C 37.54 74.78 36.65 77.80 35.45 80.64 C 34.24 80.11 32.92 79.64 32.03 78.59 C 32.21 75.44 33.74 72.49 33.83 69.32 C 31.44 66.26 28.07 64.16 25.38 61.38 Z" />
<path fill="#ffffff" opacity="1.00" d=" M 29.73 79.14 C 32.01 80.12 34.32 81.05 36.64 81.96 C 36.01 83.74 35.36 85.51 34.72 87.28 C 32.10 86.26 29.50 85.20 26.93 84.06 C 27.85 82.41 28.77 80.77 29.73 79.14 Z" />
</svg>
