<?xml version="1.0" encoding="UTF-8" ?>
<!DOCTYPE svg PUBLIC "-//W3C//DTD SVG 1.1//EN" "http://www.w3.org/Graphics/SVG/1.1/DTD/svg11.dtd">
<svg width="100pt" height="100pt" viewBox="0 0 100 100" version="1.1" xmlns="http://www.w3.org/2000/svg">
<path fill="#b8bbba" opacity="1.00" d=" M 62.24 15.22 C 66.73 10.67 72.38 7.57 77.60 3.99 C 77.46 8.71 77.17 13.43 76.85 18.14 C 78.46 18.22 80.07 18.30 81.68 18.38 C 81.54 39.63 81.64 60.89 81.63 82.15 C 68.09 82.20 54.55 82.09 41.01 82.21 C 40.15 84.99 39.65 87.91 38.38 90.55 C 36.00 94.75 30.05 97.24 25.76 94.32 C 21.80 92.36 21.35 87.57 19.65 83.99 C 18.42 81.51 17.02 78.99 17.25 76.11 C 17.28 56.82 17.27 37.52 17.28 18.22 C 30.53 18.29 43.79 18.34 57.04 18.26 C 59.30 18.50 60.75 16.57 62.24 15.22 M 64.77 16.73 C 63.08 18.37 61.63 20.35 59.56 21.54 C 56.44 22.33 53.18 22.09 49.99 22.10 C 40.44 21.84 30.88 21.87 21.33 22.08 C 21.40 40.93 21.37 59.78 21.35 78.62 C 23.13 78.67 24.90 78.72 26.68 78.77 C 24.97 81.50 22.18 84.61 23.80 88.04 C 25.06 92.55 31.45 94.33 34.69 90.85 C 37.30 87.36 37.31 82.46 40.42 79.27 C 43.21 78.53 46.13 78.66 48.99 78.62 C 58.69 78.77 68.39 78.73 78.09 78.73 C 78.27 59.96 78.24 41.18 78.10 22.41 C 76.72 22.15 75.34 21.88 73.96 21.62 C 74.23 17.52 74.42 13.41 74.45 9.31 C 71.02 11.50 67.56 13.74 64.77 16.73 Z" />
<path fill="#b61c2e" opacity="1.00" d=" M 64.77 16.73 C 67.56 13.74 71.02 11.50 74.45 9.31 C 74.42 13.41 74.23 17.52 73.96 21.62 C 75.34 21.88 76.72 22.15 78.10 22.41 C 78.24 41.18 78.27 59.96 78.09 78.73 C 68.39 78.73 58.69 78.77 48.99 78.62 C 46.13 78.66 43.21 78.53 40.42 79.27 C 37.31 82.46 37.30 87.36 34.69 90.85 C 31.45 94.33 25.06 92.55 23.80 88.04 C 22.18 84.61 24.97 81.50 26.68 78.77 C 24.90 78.72 23.13 78.67 21.35 78.62 C 21.37 59.78 21.40 40.93 21.33 22.08 C 30.88 21.87 40.44 21.84 49.99 22.10 C 53.18 22.09 56.44 22.33 59.56 21.54 C 61.63 20.35 63.08 18.37 64.77 16.73 M 59.41 29.40 C 55.21 36.18 50.84 42.87 46.71 49.70 C 43.50 54.70 40.84 60.72 34.92 63.04 C 38.91 65.90 43.21 68.24 47.59 70.44 C 47.40 67.50 47.02 64.36 48.67 61.73 C 55.29 49.69 61.95 37.67 68.67 25.69 C 70.75 22.20 71.52 18.17 71.87 14.17 C 65.97 17.59 62.56 23.60 59.41 29.40 M 58.93 47.67 C 64.63 47.78 70.30 47.16 75.96 46.67 C 75.95 45.18 75.94 43.69 75.93 42.21 C 70.12 43.37 62.84 42.23 58.93 47.67 M 22.75 52.14 C 28.30 52.18 33.81 51.29 39.27 50.38 C 41.68 50.04 43.79 48.78 45.79 47.46 C 37.97 48.05 30.14 49.47 22.75 52.14 M 50.17 64.39 C 50.21 65.05 50.31 66.37 50.35 67.03 C 58.89 66.56 67.39 65.50 75.92 65.00 C 75.93 63.49 75.94 61.99 75.95 60.48 C 67.33 61.61 58.74 62.94 50.17 64.39 M 22.41 70.62 C 26.82 70.70 31.36 70.12 35.15 67.72 C 30.77 67.89 26.38 68.69 22.41 70.62 M 37.84 66.90 C 34.61 72.29 32.50 78.53 27.51 82.65 C 24.23 84.85 26.97 90.80 30.77 89.95 C 32.86 89.77 33.48 87.58 34.00 85.92 C 35.54 79.97 39.51 75.14 42.54 69.92 C 40.97 68.92 39.40 67.91 37.84 66.90 Z" />
<path fill="#ffffff" opacity="1.00" d=" M 59.41 29.40 C 62.56 23.60 65.97 17.59 71.87 14.17 C 71.52 18.17 70.75 22.20 68.67 25.69 C 61.95 37.67 55.29 49.69 48.67 61.73 C 47.02 64.36 47.40 67.50 47.59 70.44 C 43.21 68.24 38.91 65.90 34.92 63.04 C 40.84 60.72 43.50 54.70 46.71 49.70 C 50.84 42.87 55.21 36.18 59.41 29.40 Z" />
<path fill="#ffffff" opacity="1.00" d=" M 58.93 47.67 C 62.84 42.23 70.12 43.37 75.93 42.21 C 75.94 43.69 75.95 45.18 75.96 46.67 C 70.30 47.16 64.63 47.78 58.93 47.67 Z" />
<path fill="#ffffff" opacity="1.00" d=" M 22.75 52.14 C 30.14 49.47 37.97 48.05 45.79 47.46 C 43.79 48.78 41.68 50.04 39.27 50.38 C 33.81 51.29 28.30 52.18 22.75 52.14 Z" />
<path fill="#ffffff" opacity="1.00" d=" M 50.17 64.39 C 58.74 62.94 67.33 61.61 75.95 60.48 C 75.94 61.99 75.93 63.49 75.92 65.00 C 67.39 65.50 58.89 66.56 50.35 67.03 C 50.31 66.37 50.21 65.05 50.17 64.39 Z" />
<path fill="#ffffff" opacity="1.00" d=" M 22.41 70.62 C 26.38 68.69 30.77 67.89 35.15 67.72 C 31.36 70.12 26.82 70.70 22.41 70.62 Z" />
<path fill="#ffffff" opacity="1.00" d=" M 37.84 66.90 C 39.40 67.91 40.97 68.92 42.54 69.92 C 39.51 75.14 35.54 79.97 34.00 85.92 C 33.48 87.58 32.86 89.77 30.77 89.95 C 26.97 90.80 24.23 84.85 27.51 82.65 C 32.50 78.53 34.61 72.29 37.84 66.90 Z" />
</svg>
