<?xml version="1.0" encoding="UTF-8" ?>
<!DOCTYPE svg PUBLIC "-//W3C//DTD SVG 1.1//EN" "http://www.w3.org/Graphics/SVG/1.1/DTD/svg11.dtd">
<svg width="100pt" height="100pt" viewBox="0 0 100 100" version="1.1" xmlns="http://www.w3.org/2000/svg">
<path fill="#bfbbbb" opacity="1.00" d=" M 49.33 11.14 C 53.51 16.57 57.31 22.27 61.34 27.81 C 69.10 23.38 76.38 18.16 84.21 13.83 C 79.97 22.72 74.86 31.16 70.48 39.98 C 72.91 42.37 75.12 45.07 77.99 46.97 C 80.67 48.45 83.71 49.07 86.57 50.10 C 84.15 51.06 81.70 51.92 79.26 52.83 C 85.17 61.42 91.51 69.71 97.33 78.37 C 92.36 78.51 87.38 78.54 82.41 78.37 C 82.97 80.00 83.52 81.63 84.04 83.28 C 80.48 81.47 77.27 78.25 73.02 78.36 C 66.22 78.30 59.41 78.36 52.60 78.44 C 51.67 81.74 50.70 85.03 49.62 88.29 C 48.43 85.02 47.44 81.69 46.56 78.33 C 39.68 78.26 32.80 78.21 25.92 78.25 C 21.65 78.08 18.44 81.33 14.93 83.24 C 15.35 81.53 15.80 79.82 16.24 78.11 C 11.71 78.19 7.17 78.18 2.63 78.07 C 8.18 69.56 14.33 61.46 19.96 53.01 C 16.78 52.09 13.58 51.20 10.44 50.14 C 14.66 48.65 19.73 48.47 22.90 44.93 C 24.60 43.23 26.19 41.43 27.84 39.68 C 23.83 30.87 18.57 22.69 14.61 13.86 C 22.50 18.20 29.83 23.46 37.65 27.92 C 41.56 22.33 45.41 16.72 49.33 11.14 M 49.30 17.03 C 45.96 21.53 42.93 26.24 39.67 30.79 C 32.17 26.85 25.48 21.54 17.93 17.68 C 22.02 25.36 27.16 32.41 31.66 39.85 C 27.32 44.06 22.59 47.94 17.06 50.49 C 19.50 51.23 21.93 51.97 24.36 52.71 C 19.43 60.20 14.09 67.41 9.06 74.84 C 12.70 74.86 16.33 74.88 19.97 74.91 C 19.39 76.40 18.81 77.88 18.23 79.36 C 21.24 77.47 24.19 74.90 27.95 74.87 C 34.26 74.61 40.58 74.87 46.90 74.92 C 47.81 77.29 48.73 79.67 49.68 82.03 C 50.52 79.68 51.33 77.31 52.13 74.94 C 58.43 74.86 64.75 74.59 71.06 74.89 C 74.96 74.93 77.92 77.77 80.92 79.88 C 80.24 78.22 79.56 76.57 78.88 74.92 C 82.91 74.87 86.93 74.84 90.96 74.84 C 85.85 67.20 80.07 60.03 75.07 52.31 C 77.05 51.66 79.04 51.02 81.03 50.37 C 75.89 47.64 71.36 43.96 67.23 39.89 C 71.41 32.44 76.83 25.72 80.48 17.97 C 73.35 22.04 67.16 27.48 60.20 31.80 C 56.44 26.97 53.25 21.72 49.30 17.03 Z" />
<path fill="#277373" opacity="1.00" d=" M 49.30 17.03 C 53.25 21.72 56.44 26.97 60.20 31.80 C 67.16 27.48 73.35 22.04 80.48 17.97 C 76.83 25.72 71.41 32.44 67.23 39.89 C 71.36 43.96 75.89 47.64 81.03 50.37 C 79.04 51.02 77.05 51.66 75.07 52.31 C 80.07 60.03 85.85 67.20 90.96 74.84 C 86.93 74.84 82.91 74.87 78.88 74.92 C 79.56 76.57 80.24 78.22 80.92 79.88 C 77.92 77.77 74.96 74.93 71.06 74.89 C 64.75 74.59 58.43 74.86 52.13 74.94 C 51.33 77.31 50.52 79.68 49.68 82.03 C 48.73 79.67 47.81 77.29 46.90 74.92 C 40.58 74.87 34.26 74.61 27.95 74.87 C 24.19 74.90 21.24 77.47 18.23 79.36 C 18.81 77.88 19.39 76.40 19.97 74.91 C 16.33 74.88 12.70 74.86 9.06 74.84 C 14.09 67.41 19.43 60.20 24.36 52.71 C 21.93 51.97 19.50 51.23 17.06 50.49 C 22.59 47.94 27.32 44.06 31.66 39.85 C 27.16 32.41 22.02 25.36 17.93 17.68 C 25.48 21.54 32.17 26.85 39.67 30.79 C 42.93 26.24 45.96 21.53 49.30 17.03 M 23.65 23.72 C 26.98 29.54 31.53 34.51 35.30 40.04 C 34.13 41.47 32.96 42.89 31.82 44.33 C 35.11 43.94 38.50 43.84 41.68 42.79 C 43.88 39.99 44.33 36.29 45.21 32.94 C 43.74 33.87 42.29 34.84 40.84 35.81 C 35.00 31.93 29.76 27.21 23.65 23.72 M 58.02 35.83 C 56.58 34.86 55.13 33.88 53.67 32.93 C 54.55 36.36 55.82 39.67 57.13 42.96 C 60.54 43.51 63.94 44.09 67.35 44.62 C 66.04 43.10 64.69 41.62 63.32 40.15 C 67.25 34.61 71.76 29.49 75.21 23.63 C 69.13 27.18 63.81 31.85 58.02 35.83 M 45.81 45.84 C 39.11 47.59 32.17 48.16 25.49 49.98 C 32.21 51.76 39.16 52.37 45.88 54.13 C 47.44 60.78 48.39 67.58 50.31 74.14 C 51.80 67.53 52.80 60.81 54.31 54.20 C 60.89 52.39 67.71 51.83 74.33 50.21 C 67.99 47.55 60.95 47.53 54.36 45.74 C 52.75 39.16 51.81 32.45 50.31 25.85 C 48.36 32.41 47.43 39.20 45.81 45.84 M 35.08 55.06 C 33.35 62.65 26.45 67.45 22.97 74.19 C 29.19 70.25 34.78 65.43 40.88 61.31 C 42.17 62.23 43.47 63.15 44.78 64.05 C 44.00 61.91 43.37 59.70 42.24 57.72 C 40.17 56.18 37.48 55.85 35.08 55.06 M 55.68 61.06 C 63.47 63.69 68.89 70.34 75.97 74.27 C 72.34 67.59 65.42 62.72 63.80 55.05 C 60.42 56.11 56.53 57.09 55.68 61.06 Z" />
<path fill="#ffffff" opacity="1.00" d=" M 23.65 23.72 C 29.76 27.21 35.00 31.93 40.84 35.81 C 42.29 34.84 43.74 33.87 45.21 32.94 C 44.33 36.29 43.88 39.99 41.68 42.79 C 38.50 43.84 35.11 43.94 31.82 44.33 C 32.96 42.89 34.13 41.47 35.30 40.04 C 31.53 34.51 26.98 29.54 23.65 23.72 Z" />
<path fill="#ffffff" opacity="1.00" d=" M 58.02 35.83 C 63.81 31.85 69.13 27.18 75.21 23.63 C 71.76 29.49 67.25 34.61 63.32 40.15 C 64.69 41.62 66.04 43.10 67.35 44.62 C 63.94 44.09 60.54 43.51 57.13 42.96 C 55.82 39.67 54.55 36.36 53.67 32.93 C 55.13 33.88 56.58 34.86 58.02 35.83 Z" />
<path fill="#ffffff" opacity="1.00" d=" M 45.81 45.84 C 47.43 39.20 48.36 32.41 50.31 25.85 C 51.81 32.45 52.75 39.16 54.36 45.74 C 60.95 47.53 67.99 47.55 74.33 50.21 C 67.71 51.83 60.89 52.39 54.31 54.20 C 52.80 60.81 51.80 67.53 50.31 74.14 C 48.39 67.58 47.44 60.78 45.88 54.13 C 39.16 52.37 32.21 51.76 25.49 49.98 C 32.17 48.16 39.11 47.59 45.81 45.84 M 47.34 46.15 C 47.18 47.97 48.85 49.14 49.75 50.51 C 50.22 45.17 50.25 39.80 49.80 34.45 C 48.57 38.24 47.45 42.14 47.34 46.15 M 54.78 47.13 C 54.37 48.27 53.97 49.41 53.56 50.56 C 58.21 50.48 62.94 50.82 67.44 49.43 C 63.29 48.32 59.03 47.72 54.78 47.13 M 47.88 55.50 C 47.96 59.21 48.54 62.89 49.46 66.47 C 50.55 62.83 51.80 57.95 47.88 55.50 Z" />
<path fill="#277272" opacity="1.00" d=" M 47.34 46.15 C 47.45 42.14 48.57 38.24 49.80 34.45 C 50.25 39.80 50.22 45.17 49.75 50.51 C 48.85 49.14 47.18 47.97 47.34 46.15 Z" />
<path fill="#156666" opacity="1.00" d=" M 54.78 47.13 C 59.03 47.72 63.29 48.32 67.44 49.43 C 62.94 50.82 58.21 50.48 53.56 50.56 C 53.97 49.41 54.37 48.27 54.78 47.13 Z" />
<path fill="#ffffff" opacity="1.00" d=" M 35.08 55.06 C 37.48 55.85 40.17 56.18 42.24 57.72 C 43.37 59.70 44.00 61.91 44.78 64.05 C 43.47 63.15 42.17 62.23 40.88 61.31 C 34.78 65.43 29.19 70.25 22.97 74.19 C 26.45 67.45 33.35 62.65 35.08 55.06 Z" />
<path fill="#ffffff" opacity="1.00" d=" M 55.68 61.06 C 56.53 57.09 60.42 56.11 63.80 55.05 C 65.42 62.72 72.34 67.59 75.97 74.27 C 68.89 70.34 63.47 63.69 55.68 61.06 Z" />
<path fill="#226b6b" opacity="1.00" d=" M 47.88 55.50 C 51.80 57.95 50.55 62.83 49.46 66.47 C 48.54 62.89 47.96 59.21 47.88 55.50 Z" />
</svg>
