<?xml version="1.0" encoding="UTF-8" ?>
<!DOCTYPE svg PUBLIC "-//W3C//DTD SVG 1.1//EN" "http://www.w3.org/Graphics/SVG/1.1/DTD/svg11.dtd">
<svg width="100pt" height="100pt" viewBox="0 0 100 100" version="1.1" xmlns="http://www.w3.org/2000/svg">
<path fill="#c5c4c0" opacity="1.00" d=" M 28.89 12.85 C 32.34 11.15 35.59 7.92 39.68 8.35 C 44.13 9.55 45.40 14.62 46.79 18.42 C 48.23 21.61 45.95 24.82 46.32 28.04 C 47.80 31.82 50.27 35.12 52.29 38.63 C 65.72 38.62 79.15 38.63 92.59 38.63 C 92.59 46.37 92.60 54.10 92.57 61.84 C 88.71 61.80 84.86 61.83 81.01 61.80 C 81.75 65.69 82.68 69.70 81.80 73.65 C 80.63 79.34 77.79 84.66 73.96 89.00 C 72.22 91.03 69.39 91.32 66.90 91.57 C 60.50 92.09 53.61 91.47 48.16 87.76 C 44.30 85.21 42.16 80.96 39.86 77.10 C 38.27 74.28 36.46 71.57 35.24 68.56 C 34.22 66.36 35.39 64.00 35.75 61.78 C 26.31 61.86 16.87 61.77 7.44 61.84 C 7.39 54.10 7.42 46.37 7.41 38.63 C 15.94 38.46 24.49 39.04 32.99 38.24 C 29.73 35.40 24.70 35.63 21.99 32.08 C 19.36 29.04 15.58 25.10 17.74 20.78 C 20.29 16.84 25.15 15.39 28.89 12.85 M 24.00 18.03 C 22.03 19.46 18.98 20.98 19.22 23.84 C 20.42 28.73 24.61 32.49 29.48 33.58 C 33.00 34.36 34.37 38.00 36.12 40.72 C 27.53 40.82 18.93 40.58 10.34 40.91 C 10.31 47.16 10.31 53.42 10.35 59.67 C 22.26 59.74 34.18 59.47 46.10 59.79 C 45.90 60.38 45.50 61.57 45.30 62.16 C 42.31 62.84 39.32 63.56 36.36 64.36 C 37.42 68.09 38.87 71.71 40.90 75.02 C 43.81 79.91 46.76 85.48 52.35 87.73 C 58.10 90.00 64.81 90.56 70.73 88.69 C 75.30 85.71 77.65 80.29 79.33 75.29 C 81.14 70.06 79.49 64.60 77.48 59.71 C 81.54 59.68 85.60 59.65 89.66 59.64 C 89.69 53.40 89.69 47.16 89.66 40.91 C 76.86 40.49 64.05 40.90 51.24 40.71 C 48.78 36.60 45.74 32.75 44.06 28.23 C 43.65 24.23 45.86 20.07 43.96 16.18 C 42.94 13.74 41.34 10.00 38.07 10.71 C 32.95 12.18 28.57 15.40 24.00 18.03 Z" />
<path fill="#2f4364" opacity="1.00" d=" M 24.00 18.03 C 28.57 15.40 32.95 12.18 38.07 10.71 C 41.34 10.00 42.94 13.74 43.96 16.18 C 45.86 20.07 43.65 24.23 44.06 28.23 C 45.74 32.75 48.78 36.60 51.24 40.71 C 64.05 40.90 76.86 40.49 89.66 40.91 C 89.69 47.16 89.69 53.40 89.66 59.64 C 85.60 59.65 81.54 59.68 77.48 59.71 C 79.49 64.60 81.14 70.06 79.33 75.29 C 77.65 80.29 75.30 85.71 70.73 88.69 C 64.81 90.56 58.10 90.00 52.35 87.73 C 46.76 85.48 43.81 79.91 40.90 75.02 C 38.87 71.71 37.42 68.09 36.36 64.36 C 39.32 63.56 42.31 62.84 45.30 62.16 C 45.50 61.57 45.90 60.38 46.10 59.79 C 34.18 59.47 22.26 59.74 10.35 59.67 C 10.31 53.42 10.31 47.16 10.34 40.91 C 18.93 40.58 27.53 40.82 36.12 40.72 C 34.37 38.00 33.00 34.36 29.48 33.58 C 24.61 32.49 20.42 28.73 19.22 23.84 C 18.98 20.98 22.03 19.46 24.00 18.03 M 21.24 23.52 C 23.23 25.99 25.22 28.46 27.26 30.89 C 29.03 30.38 30.79 29.85 32.56 29.32 C 36.67 37.14 41.46 44.57 45.72 52.31 C 48.59 57.25 49.41 63.01 51.97 68.09 C 48.07 65.65 43.57 64.80 39.05 65.79 C 41.83 70.99 44.47 76.31 47.97 81.07 C 51.46 85.65 57.53 87.05 63.01 87.05 C 66.16 86.99 70.09 87.10 71.96 84.03 C 76.13 78.40 79.37 70.60 76.14 63.79 C 73.71 58.75 70.61 54.06 67.64 49.33 C 66.24 51.25 64.50 53.03 63.73 55.32 C 63.35 57.34 63.36 59.40 63.19 61.44 C 60.04 57.07 55.79 53.63 52.94 49.04 C 48.17 41.35 43.85 33.38 39.13 25.65 C 40.32 24.36 41.60 23.13 42.57 21.66 C 42.18 18.44 40.50 15.58 39.12 12.71 C 32.93 15.90 26.71 19.17 21.24 23.52 Z" />
<path fill="#ffffff" opacity="1.00" d=" M 21.24 23.52 C 26.71 19.17 32.93 15.90 39.12 12.71 C 40.50 15.58 42.18 18.44 42.57 21.66 C 41.60 23.13 40.32 24.36 39.13 25.65 C 43.85 33.38 48.17 41.35 52.94 49.04 C 55.79 53.63 60.04 57.07 63.19 61.44 C 63.36 59.40 63.35 57.34 63.73 55.32 C 64.50 53.03 66.24 51.25 67.64 49.33 C 70.61 54.06 73.71 58.75 76.14 63.79 C 79.37 70.60 76.13 78.40 71.96 84.03 C 70.09 87.10 66.16 86.99 63.01 87.05 C 57.53 87.05 51.46 85.65 47.97 81.07 C 44.47 76.31 41.83 70.99 39.05 65.79 C 43.57 64.80 48.07 65.65 51.97 68.09 C 49.41 63.01 48.59 57.25 45.72 52.31 C 41.46 44.57 36.67 37.14 32.56 29.32 C 30.79 29.85 29.03 30.38 27.26 30.89 C 25.22 28.46 23.23 25.99 21.24 23.52 M 26.72 23.44 C 28.15 23.97 29.55 24.59 31.04 24.92 C 33.01 24.35 34.76 23.23 36.57 22.31 C 36.49 20.73 36.40 19.16 36.31 17.58 C 33.02 19.36 29.77 21.25 26.72 23.44 Z" />
<path fill="#2b3f61" opacity="1.00" d=" M 26.72 23.44 C 29.77 21.25 33.02 19.36 36.31 17.58 C 36.40 19.16 36.49 20.73 36.57 22.31 C 34.76 23.23 33.01 24.35 31.04 24.92 C 29.55 24.59 28.15 23.97 26.72 23.44 Z" />
</svg>
