<?xml version="1.0" encoding="UTF-8" ?>
<!DOCTYPE svg PUBLIC "-//W3C//DTD SVG 1.1//EN" "http://www.w3.org/Graphics/SVG/1.1/DTD/svg11.dtd">
<svg width="100pt" height="100pt" viewBox="0 0 100 100" version="1.1" xmlns="http://www.w3.org/2000/svg">
<path fill="#ffffff" opacity="1.00" d=" M 19.77 26.75 C 26.39 17.90 37.06 12.70 47.95 11.71 C 63.49 11.03 79.11 20.47 85.05 34.99 C 87.09 39.51 87.78 44.45 88.25 49.34 C 91.31 48.91 94.38 48.48 97.44 48.07 C 94.01 57.96 90.26 67.84 84.91 76.87 C 83.74 75.18 82.60 73.47 81.45 71.78 C 74.10 82.13 61.64 88.43 48.97 88.36 C 40.55 87.74 32.18 84.83 25.71 79.30 C 23.14 76.80 19.51 76.38 16.21 75.53 C 10.45 74.26 4.07 70.50 3.59 64.01 C 4.04 59.06 8.07 55.62 11.82 52.88 C 11.50 43.60 13.96 34.11 19.77 26.75 M 27.54 23.56 C 18.92 30.69 14.63 42.03 15.26 53.09 C 11.80 55.63 7.51 57.92 6.13 62.28 C 4.99 65.95 7.61 69.57 10.71 71.28 C 16.61 74.94 24.38 73.63 29.86 78.14 C 41.22 86.76 58.00 86.84 69.60 78.64 C 74.28 75.52 77.60 70.91 81.15 66.66 C 82.38 68.78 83.60 70.90 84.88 72.99 C 88.61 65.78 91.68 58.25 94.44 50.62 C 91.27 50.97 88.11 51.39 84.95 51.83 C 84.91 40.96 80.59 29.94 71.92 23.10 C 59.56 12.55 39.68 12.75 27.54 23.56 Z" />
<path fill="#482b46" opacity="1.00" d=" M 27.54 23.56 C 39.68 12.75 59.56 12.55 71.92 23.10 C 80.59 29.94 84.91 40.96 84.95 51.83 C 88.11 51.39 91.27 50.97 94.44 50.62 C 91.68 58.25 88.61 65.78 84.88 72.99 C 83.60 70.90 82.38 68.78 81.15 66.66 C 77.60 70.91 74.28 75.52 69.60 78.64 C 58.00 86.84 41.22 86.76 29.86 78.14 C 24.38 73.63 16.61 74.94 10.71 71.28 C 7.61 69.57 4.99 65.95 6.13 62.28 C 7.51 57.92 11.80 55.63 15.26 53.09 C 14.63 42.03 18.92 30.69 27.54 23.56 M 48.51 16.94 C 48.83 18.77 49.15 20.59 49.49 22.41 C 50.16 20.76 50.78 19.09 51.39 17.42 C 50.67 17.30 49.23 17.06 48.51 16.94 M 32.41 20.73 C 33.68 25.27 36.44 29.23 39.87 32.40 C 38.32 28.02 36.28 23.55 32.41 20.73 M 59.68 32.30 C 63.09 29.03 65.74 24.97 67.14 20.44 C 63.19 23.25 61.12 27.82 59.68 32.30 M 47.03 23.58 C 46.80 26.25 46.65 28.93 46.54 31.60 C 43.40 32.74 39.88 33.13 37.08 35.04 C 34.27 39.58 32.34 44.78 32.06 50.15 C 24.80 52.31 17.05 54.15 11.14 59.16 C 8.98 60.90 7.17 64.22 9.24 66.72 C 13.14 71.14 19.50 71.87 25.01 72.70 C 44.63 74.63 65.02 72.21 82.89 63.54 C 83.63 65.03 84.36 66.54 85.07 68.06 C 86.63 62.84 88.78 57.82 91.21 52.95 C 85.85 54.23 80.41 55.22 74.90 55.56 C 76.15 56.51 77.40 57.47 78.65 58.43 C 61.89 67.87 42.11 70.69 23.12 69.55 C 18.52 68.89 12.45 68.66 10.05 63.98 C 11.03 61.23 13.32 59.23 15.72 57.72 C 20.85 54.51 26.64 52.64 32.30 50.60 C 32.31 52.64 32.31 54.68 32.34 56.72 C 33.66 57.49 34.99 58.27 36.32 59.03 C 36.28 52.95 37.57 46.90 40.60 41.58 C 41.95 44.61 44.20 47.77 43.21 51.27 C 41.92 56.86 41.01 62.56 39.20 68.02 C 41.41 67.73 43.63 67.46 45.84 67.18 C 47.14 64.75 48.41 62.30 49.67 59.85 C 50.79 61.99 51.91 64.14 53.05 66.27 C 54.93 65.88 56.80 65.48 58.68 65.08 C 58.47 59.60 56.45 54.43 55.84 49.01 C 56.15 46.28 57.72 43.91 58.88 41.48 C 61.73 46.91 62.79 52.91 63.27 58.95 C 64.51 58.22 65.74 57.49 66.98 56.76 C 66.87 51.70 67.62 46.35 65.48 41.61 C 64.44 39.36 63.71 36.89 62.11 34.96 C 59.25 33.20 55.88 32.51 52.79 31.26 C 52.62 29.10 52.89 26.82 52.09 24.77 C 51.34 22.72 48.68 23.86 47.03 23.58 M 20.38 33.21 C 23.75 37.04 28.63 39.04 33.47 40.27 C 29.66 37.05 25.27 34.39 20.38 33.21 M 65.76 40.27 C 70.82 39.01 75.87 36.88 79.43 32.93 C 74.36 34.22 69.79 36.99 65.76 40.27 M 12.43 64.01 C 14.71 65.01 17.01 65.95 19.33 66.85 C 18.44 64.51 17.51 62.19 16.58 59.87 C 15.18 61.23 13.80 62.61 12.43 64.01 Z" />
<path fill="#ffffff" opacity="1.00" d=" M 48.51 16.94 C 49.23 17.06 50.67 17.30 51.39 17.42 C 50.78 19.09 50.16 20.76 49.49 22.41 C 49.15 20.59 48.83 18.77 48.51 16.94 Z" />
<path fill="#ffffff" opacity="1.00" d=" M 32.41 20.73 C 36.28 23.55 38.32 28.02 39.87 32.40 C 36.44 29.23 33.68 25.27 32.41 20.73 Z" />
<path fill="#ffffff" opacity="1.00" d=" M 59.68 32.30 C 61.12 27.82 63.19 23.25 67.14 20.44 C 65.74 24.97 63.09 29.03 59.68 32.30 Z" />
<path fill="#ffffff" opacity="1.00" d=" M 47.03 23.58 C 48.68 23.86 51.34 22.72 52.09 24.77 C 52.89 26.82 52.62 29.10 52.79 31.26 C 55.88 32.51 59.25 33.20 62.11 34.96 C 63.71 36.89 64.44 39.36 65.48 41.61 C 67.62 46.35 66.87 51.70 66.98 56.76 C 65.74 57.49 64.51 58.22 63.27 58.95 C 62.79 52.91 61.73 46.91 58.88 41.48 C 57.72 43.91 56.15 46.28 55.84 49.01 C 56.45 54.43 58.47 59.60 58.68 65.08 C 56.80 65.48 54.93 65.88 53.05 66.27 C 51.91 64.14 50.79 61.99 49.67 59.85 C 48.41 62.30 47.14 64.75 45.84 67.18 C 43.63 67.46 41.41 67.73 39.20 68.02 C 41.01 62.56 41.92 56.86 43.21 51.27 C 44.20 47.77 41.95 44.61 40.60 41.58 C 37.57 46.90 36.28 52.95 36.32 59.03 C 34.99 58.27 33.66 57.49 32.34 56.72 C 32.31 54.68 32.31 52.64 32.30 50.60 C 26.64 52.64 20.85 54.51 15.72 57.72 C 13.32 59.23 11.03 61.23 10.05 63.98 C 12.45 68.66 18.52 68.89 23.12 69.55 C 42.11 70.69 61.89 67.87 78.65 58.43 C 77.40 57.47 76.15 56.51 74.90 55.56 C 80.41 55.22 85.85 54.23 91.21 52.95 C 88.78 57.82 86.63 62.84 85.07 68.06 C 84.36 66.54 83.63 65.03 82.89 63.54 C 65.02 72.21 44.63 74.63 25.01 72.70 C 19.50 71.87 13.14 71.14 9.24 66.72 C 7.17 64.22 8.98 60.90 11.14 59.16 C 17.05 54.15 24.80 52.31 32.06 50.15 C 32.34 44.78 34.27 39.58 37.08 35.04 C 39.88 33.13 43.40 32.74 46.54 31.60 C 46.65 28.93 46.80 26.25 47.03 23.58 Z" />
<path fill="#ffffff" opacity="1.00" d=" M 20.38 33.21 C 25.27 34.39 29.66 37.05 33.47 40.27 C 28.63 39.04 23.75 37.04 20.38 33.21 Z" />
<path fill="#ffffff" opacity="1.00" d=" M 65.76 40.27 C 69.79 36.99 74.36 34.22 79.43 32.93 C 75.87 36.88 70.82 39.01 65.76 40.27 Z" />
<path fill="#ffffff" opacity="1.00" d=" M 12.43 64.01 C 13.80 62.61 15.18 61.23 16.58 59.87 C 17.51 62.19 18.44 64.51 19.33 66.85 C 17.01 65.95 14.71 65.01 12.43 64.01 Z" />
</svg>
