<?xml version="1.0" encoding="UTF-8" ?>
<!DOCTYPE svg PUBLIC "-//W3C//DTD SVG 1.1//EN" "http://www.w3.org/Graphics/SVG/1.1/DTD/svg11.dtd">
<svg width="100pt" height="100pt" viewBox="0 0 100 100" version="1.1" xmlns="http://www.w3.org/2000/svg">
<path fill="#eec546" opacity="1.00" d=" M 14.39 11.89 C 18.14 14.30 21.23 17.69 25.23 19.69 C 30.23 20.52 35.13 18.69 39.85 17.27 C 39.96 19.38 39.88 21.52 40.38 23.57 C 41.78 25.52 43.68 27.03 45.42 28.65 C 47.15 23.14 47.90 17.40 49.36 11.83 C 51.34 17.47 52.21 23.42 53.77 29.18 C 55.74 28.00 57.95 26.90 59.11 24.81 C 59.66 22.37 59.48 19.84 59.62 17.35 C 64.52 18.67 69.61 20.65 74.75 19.61 C 78.00 18.13 80.69 15.72 83.66 13.78 C 83.70 15.81 83.73 17.84 83.76 19.87 C 88.37 19.80 92.98 19.77 97.59 20.01 C 92.26 26.20 85.78 31.25 80.28 37.26 C 78.67 38.74 79.29 41.12 79.05 43.05 C 77.28 44.00 75.50 44.93 73.75 45.91 C 77.64 46.86 81.60 47.59 85.33 49.09 C 80.42 50.40 75.39 51.23 70.52 52.70 C 72.87 55.36 76.67 54.50 79.82 54.95 C 79.52 56.91 79.23 58.87 78.95 60.83 C 85.00 67.13 91.80 72.67 97.61 79.20 C 92.78 79.46 87.95 79.41 83.13 79.31 C 83.09 82.37 83.09 85.43 83.01 88.48 C 79.48 85.70 76.61 82.15 72.92 79.57 C 68.26 79.77 63.87 81.64 59.32 82.54 C 59.43 79.78 59.56 77.03 59.70 74.27 C 57.77 72.83 55.66 71.64 53.40 70.82 C 52.05 75.58 51.17 80.46 50.03 85.27 C 48.74 82.00 48.06 78.55 47.48 75.10 C 45.05 74.86 42.61 74.72 40.16 74.71 C 40.06 77.38 39.99 80.06 39.94 82.73 C 35.41 81.58 30.97 79.66 26.26 79.44 C 22.37 81.11 19.30 84.21 15.68 86.38 C 15.66 84.03 15.69 81.67 15.72 79.32 C 11.28 79.41 6.83 79.44 2.40 79.20 C 7.69 73.22 14.15 68.41 19.50 62.49 C 21.52 60.46 19.81 57.41 19.81 54.97 C 22.98 54.77 26.20 54.58 29.23 53.49 C 24.18 51.65 18.75 51.25 13.69 49.43 C 17.81 48.17 22.02 47.22 26.19 46.16 C 24.31 44.98 22.38 43.87 20.46 42.74 C 20.33 41.03 20.63 39.09 19.44 37.67 C 14.91 30.76 7.67 26.32 2.45 20.00 C 6.70 19.79 10.96 19.82 15.22 19.82 C 14.94 17.18 14.64 14.54 14.39 11.89 M 17.11 16.81 C 17.37 18.89 17.63 20.97 17.90 23.05 C 15.28 23.14 12.65 23.21 10.03 23.28 C 14.04 27.14 18.23 30.81 22.11 34.80 C 23.72 36.34 23.94 38.65 24.51 40.68 C 25.75 41.71 27.04 42.70 28.17 43.86 C 29.72 45.09 28.11 47.00 27.93 48.50 L 26.69 48.84 C 25.02 48.35 23.29 48.85 21.63 49.07 C 25.73 51.05 30.30 51.62 34.68 52.69 C 31.80 55.95 27.81 57.71 23.55 58.25 C 23.67 59.76 23.79 61.27 23.91 62.78 C 19.60 67.29 14.58 71.10 10.62 75.94 C 13.10 76.06 15.59 76.16 18.07 76.23 C 18.07 78.19 18.07 80.15 18.08 82.11 C 20.39 80.08 22.50 77.70 25.30 76.31 C 28.87 76.06 32.31 77.37 35.74 78.19 C 36.83 75.62 38.24 73.20 40.03 71.06 C 42.23 71.66 44.44 72.24 46.64 72.84 C 45.91 70.23 46.05 67.52 46.42 64.86 C 47.47 69.14 48.04 73.70 50.45 77.49 C 50.70 75.72 50.93 73.95 51.07 72.17 C 51.62 70.57 52.15 68.97 52.62 67.36 C 55.45 68.30 58.61 68.97 60.75 71.22 C 62.59 73.00 62.68 75.72 63.32 78.05 C 66.75 77.32 70.18 76.19 73.73 76.28 C 76.63 77.98 78.51 80.93 80.82 83.31 C 80.85 80.93 80.87 78.56 80.89 76.19 C 83.93 76.14 86.98 76.07 90.02 75.98 C 85.91 71.72 81.40 67.87 77.25 63.65 C 75.77 62.31 75.70 60.22 75.31 58.40 C 71.38 57.67 68.08 55.42 65.72 52.24 C 69.58 50.84 74.39 51.30 77.36 48.07 C 76.11 48.14 74.88 48.30 73.65 48.54 C 72.07 47.64 70.49 46.68 68.75 46.12 C 70.66 44.63 72.75 43.30 74.32 41.42 C 75.74 39.12 76.23 36.23 78.39 34.41 C 82.31 30.77 86.22 27.11 89.96 23.29 C 87.06 23.21 84.16 23.13 81.26 23.01 C 81.39 21.36 81.53 19.71 81.66 18.05 C 79.48 19.82 77.42 21.83 74.85 23.01 C 71.04 23.77 67.18 22.60 63.41 22.11 C 62.56 24.51 61.96 27.21 59.95 28.97 C 58.08 30.83 55.47 31.56 53.05 32.40 C 52.55 29.97 51.57 27.69 50.50 25.46 L 50.25 24.23 C 50.80 22.75 50.00 21.26 49.67 19.83 C 48.36 23.89 47.48 28.07 46.71 32.26 C 41.60 30.72 38.24 26.41 35.73 21.96 C 32.22 22.59 28.66 23.62 25.07 23.15 C 21.93 21.75 19.70 18.98 17.11 16.81 Z" />
<path fill="#b8b8c2" opacity="1.00" d=" M 17.11 16.81 C 19.70 18.98 21.93 21.75 25.07 23.15 C 28.66 23.62 32.22 22.59 35.73 21.96 C 38.24 26.41 41.60 30.72 46.71 32.26 C 46.44 33.71 46.19 35.17 45.93 36.62 C 41.61 32.87 36.89 29.34 34.12 24.18 C 31.12 24.69 28.14 25.27 25.15 25.86 C 23.23 24.28 21.31 22.69 19.37 21.12 C 19.40 24.08 18.15 27.76 20.77 30.01 C 23.48 32.57 25.96 35.50 26.20 39.40 C 28.18 41.84 30.01 44.42 31.40 47.25 C 31.86 47.21 32.77 47.15 33.22 47.12 C 31.45 47.53 29.69 48.01 27.93 48.50 C 28.11 47.00 29.72 45.09 28.17 43.86 C 27.04 42.70 25.75 41.71 24.51 40.68 C 23.94 38.65 23.72 36.34 22.11 34.80 C 18.23 30.81 14.04 27.14 10.03 23.28 C 12.65 23.21 15.28 23.14 17.90 23.05 C 17.63 20.97 17.37 18.89 17.11 16.81 Z" />
<path fill="#b7b8c2" opacity="1.00" d=" M 74.85 23.01 C 77.42 21.83 79.48 19.82 81.66 18.05 C 81.53 19.71 81.39 21.36 81.26 23.01 C 84.16 23.13 87.06 23.21 89.96 23.29 C 86.22 27.11 82.31 30.77 78.39 34.41 C 76.23 36.23 75.74 39.12 74.32 41.42 C 72.75 43.30 70.66 44.63 68.75 46.12 C 67.18 45.65 65.59 45.25 63.98 44.94 C 66.64 44.19 69.45 43.43 71.60 41.61 C 73.50 39.31 73.88 36.14 75.74 33.80 C 77.82 31.19 80.34 28.98 82.69 26.63 C 81.72 26.26 80.74 25.88 79.77 25.51 C 79.64 24.45 79.52 23.39 79.40 22.33 C 77.61 23.48 75.90 24.88 73.82 25.48 C 70.93 25.55 68.15 24.59 65.36 23.97 C 64.17 26.64 63.33 29.86 60.54 31.35 C 57.81 32.90 55.30 34.85 53.95 37.77 C 53.69 35.97 53.41 34.18 53.05 32.40 C 55.47 31.56 58.08 30.83 59.95 28.97 C 61.96 27.21 62.56 24.51 63.41 22.11 C 67.18 22.60 71.04 23.77 74.85 23.01 Z" />
<path fill="#237070" opacity="1.00" d=" M 49.67 19.83 C 50.00 21.26 50.80 22.75 50.25 24.23 C 47.99 30.83 46.98 37.74 45.54 44.53 C 41.46 45.51 37.37 46.45 33.22 47.12 C 32.77 47.15 31.86 47.21 31.40 47.25 C 30.01 44.42 28.18 41.84 26.20 39.40 C 25.96 35.50 23.48 32.57 20.77 30.01 C 18.15 27.76 19.40 24.08 19.37 21.12 C 21.31 22.69 23.23 24.28 25.15 25.86 C 28.14 25.27 31.12 24.69 34.12 24.18 C 36.89 29.34 41.61 32.87 45.93 36.62 C 46.19 35.17 46.44 33.71 46.71 32.26 C 47.48 28.07 48.36 23.89 49.67 19.83 M 21.07 24.97 C 21.70 26.98 22.30 28.99 22.91 31.00 C 24.86 30.92 26.81 30.84 28.76 30.77 C 28.24 33.35 27.74 35.93 27.28 38.53 C 29.41 40.20 31.23 42.22 32.62 44.55 C 34.25 43.95 35.87 43.34 37.50 42.72 C 35.33 41.49 33.11 40.34 30.93 39.14 C 34.34 39.44 37.72 40.02 41.06 40.80 C 41.56 38.80 42.05 36.80 42.53 34.80 C 39.42 34.31 36.28 33.97 33.13 33.74 C 33.19 31.13 33.23 28.53 33.23 25.92 C 30.56 26.53 27.92 27.42 25.16 27.62 C 23.63 27.04 22.41 25.89 21.07 24.97 Z" />
<path fill="#206f6f" opacity="1.00" d=" M 73.82 25.48 C 75.90 24.88 77.61 23.48 79.40 22.33 C 79.52 23.39 79.64 24.45 79.77 25.51 C 80.74 25.88 81.72 26.26 82.69 26.63 C 80.34 28.98 77.82 31.19 75.74 33.80 C 73.88 36.14 73.50 39.31 71.60 41.61 C 69.45 43.43 66.64 44.19 63.98 44.94 C 61.62 45.26 59.27 45.58 56.91 45.90 C 55.43 44.43 53.66 42.99 53.27 40.80 C 52.00 35.76 51.56 30.55 50.50 25.46 C 51.57 27.69 52.55 29.97 53.05 32.40 C 53.41 34.18 53.69 35.97 53.95 37.77 C 55.30 34.85 57.81 32.90 60.54 31.35 C 63.33 29.86 64.17 26.64 65.36 23.97 C 68.15 24.59 70.93 25.55 73.82 25.48 M 74.62 27.54 C 71.73 27.55 68.96 26.51 66.16 25.89 C 66.19 28.51 66.23 31.12 66.26 33.74 C 63.11 33.94 59.97 34.28 56.87 34.84 C 57.31 36.83 57.74 38.83 58.18 40.83 C 60.74 40.24 63.30 39.63 65.85 39.03 C 64.44 40.06 63.03 41.08 61.64 42.14 C 65.41 42.10 69.42 41.87 72.19 38.95 C 71.72 36.27 71.28 33.59 70.87 30.90 C 72.87 30.87 74.88 30.85 76.88 30.82 C 77.31 28.91 77.75 27.00 78.20 25.10 C 77.02 25.93 75.89 26.85 74.62 27.54 Z" />
<path fill="#ffffff" opacity="1.00" d=" M 21.07 24.97 C 22.41 25.89 23.63 27.04 25.16 27.62 C 27.92 27.42 30.56 26.53 33.23 25.92 C 33.23 28.53 33.19 31.13 33.13 33.74 C 36.28 33.97 39.42 34.31 42.53 34.80 C 42.05 36.80 41.56 38.80 41.06 40.80 C 37.72 40.02 34.34 39.44 30.93 39.14 C 33.11 40.34 35.33 41.49 37.50 42.72 C 35.87 43.34 34.25 43.95 32.62 44.55 C 31.23 42.22 29.41 40.20 27.28 38.53 C 27.74 35.93 28.24 33.35 28.76 30.77 C 26.81 30.84 24.86 30.92 22.91 31.00 C 22.30 28.99 21.70 26.98 21.07 24.97 Z" />
<path fill="#ffffff" opacity="1.00" d=" M 45.54 44.53 C 46.98 37.74 47.99 30.83 50.25 24.23 L 50.50 25.46 C 51.56 30.55 52.00 35.76 53.27 40.80 C 53.66 42.99 55.43 44.43 56.91 45.90 L 56.20 46.00 C 55.66 46.06 54.58 46.19 54.04 46.25 C 53.92 47.06 53.68 48.68 53.55 49.49 C 58.11 49.47 62.67 49.22 67.22 48.83 C 69.36 48.74 71.51 48.62 73.65 48.54 C 67.33 50.75 60.71 51.77 54.18 53.18 C 52.79 59.12 51.45 65.10 51.14 71.21 C 50.63 71.34 49.60 71.60 49.08 71.73 C 49.32 69.59 49.57 67.46 49.71 65.33 C 50.22 61.93 49.89 58.49 48.59 55.30 L 48.35 54.38 C 47.61 55.26 46.88 56.13 46.15 57.01 C 46.04 55.76 45.92 54.51 45.79 53.26 C 39.39 51.92 32.98 50.63 26.69 48.84 L 27.93 48.50 C 29.69 48.01 31.45 47.53 33.22 47.12 C 37.37 46.45 41.46 45.51 45.54 44.53 M 47.12 44.25 C 46.68 46.34 48.44 47.84 49.53 49.37 C 49.80 43.49 49.87 37.60 49.61 31.73 C 48.35 35.80 47.44 40.00 47.12 44.25 Z" />
<path fill="#ffffff" opacity="1.00" d=" M 74.62 27.54 C 75.89 26.85 77.02 25.93 78.20 25.10 C 77.75 27.00 77.31 28.91 76.88 30.82 C 74.88 30.85 72.87 30.87 70.87 30.90 C 71.28 33.59 71.72 36.27 72.19 38.95 C 69.42 41.87 65.41 42.10 61.64 42.14 C 63.03 41.08 64.44 40.06 65.85 39.03 C 63.30 39.63 60.74 40.24 58.18 40.83 C 57.74 38.83 57.31 36.83 56.87 34.84 C 59.97 34.28 63.11 33.94 66.26 33.74 C 66.23 31.12 66.19 28.51 66.16 25.89 C 68.96 26.51 71.73 27.55 74.62 27.54 Z" />
<path fill="#206f6f" opacity="1.00" d=" M 47.12 44.25 C 47.44 40.00 48.35 35.80 49.61 31.73 C 49.87 37.60 49.80 43.49 49.53 49.37 C 48.44 47.84 46.68 46.34 47.12 44.25 Z" />
<path fill="#82aba6" opacity="1.00" d=" M 56.91 45.90 C 59.27 45.58 61.62 45.26 63.98 44.94 C 65.59 45.25 67.18 45.65 68.75 46.12 C 70.49 46.68 72.07 47.64 73.65 48.54 C 71.51 48.62 69.36 48.74 67.22 48.83 C 63.51 48.03 59.87 46.97 56.20 46.00 L 56.91 45.90 Z" />
<path fill="#126464" opacity="1.00" d=" M 54.04 46.25 C 54.58 46.19 55.66 46.06 56.20 46.00 C 59.87 46.97 63.51 48.03 67.22 48.83 C 62.67 49.22 58.11 49.47 53.55 49.49 C 53.68 48.68 53.92 47.06 54.04 46.25 Z" />
<path fill="#277373" opacity="1.00" d=" M 21.63 49.07 C 23.29 48.85 25.02 48.35 26.69 48.84 C 32.98 50.63 39.39 51.92 45.79 53.26 C 45.92 54.51 46.04 55.76 46.15 57.01 C 46.32 59.34 46.32 61.67 46.36 64.00 C 46.17 63.45 45.79 62.35 45.61 61.79 C 44.57 64.33 43.74 66.95 43.04 69.60 C 41.13 69.76 39.00 69.34 37.27 70.26 C 35.89 71.89 35.16 73.94 34.22 75.82 C 30.24 74.91 26.15 74.39 22.08 75.09 C 22.88 74.07 23.68 73.04 24.47 72.02 C 27.36 72.69 30.25 73.36 33.14 74.02 C 33.18 71.28 33.21 68.55 33.24 65.81 C 35.72 66.45 38.19 67.11 40.66 67.80 C 41.57 64.99 41.81 62.03 41.46 59.10 C 38.58 59.70 35.70 60.31 32.82 60.86 C 34.05 60.01 35.29 59.17 36.53 58.34 C 36.36 58.05 36.02 57.47 35.86 57.18 C 33.00 58.54 30.15 59.91 27.29 61.26 C 27.76 63.90 28.22 66.53 28.70 69.17 C 26.65 69.11 24.60 69.04 22.55 68.99 C 22.31 71.01 22.12 73.05 22.08 75.09 C 21.55 76.14 21.01 77.19 20.46 78.23 C 19.85 76.14 19.07 74.07 18.83 71.89 C 20.44 69.01 23.51 67.28 25.11 64.41 C 25.61 62.88 25.73 61.26 25.96 59.68 C 30.25 58.09 34.42 56.14 38.21 53.56 C 37.03 53.27 35.86 52.98 34.68 52.69 C 30.30 51.62 25.73 51.05 21.63 49.07 Z" />
<path fill="#237171" opacity="1.00" d=" M 73.65 48.54 C 74.88 48.30 76.11 48.14 77.36 48.07 C 74.39 51.30 69.58 50.84 65.72 52.24 C 64.69 52.52 63.67 52.80 62.64 53.09 C 66.55 56.25 72.04 57.94 74.24 62.81 C 76.15 66.83 79.51 69.80 82.78 72.69 C 81.21 73.08 79.65 73.47 78.08 73.86 C 77.66 72.33 77.22 70.80 76.79 69.27 C 74.87 69.16 72.96 69.05 71.04 68.94 C 71.31 66.44 71.58 63.93 71.84 61.42 C 69.13 59.66 66.48 57.80 63.84 55.93 C 63.74 56.44 63.53 57.47 63.43 57.98 C 62.29 57.68 61.16 57.38 60.03 57.08 C 60.66 57.98 61.30 58.87 61.93 59.77 C 60.66 59.65 59.40 59.54 58.13 59.43 C 57.73 61.32 57.33 63.21 56.93 65.11 C 60.00 65.57 63.08 65.96 66.17 66.30 C 66.19 68.85 66.19 71.40 66.20 73.95 C 70.22 72.92 74.75 71.54 78.28 74.58 C 78.65 75.97 79.01 77.37 79.37 78.76 C 77.23 77.16 75.43 73.98 72.37 74.56 C 69.96 74.84 67.62 75.49 65.26 76.06 C 64.46 73.82 63.91 71.42 62.55 69.43 C 60.65 67.82 58.18 67.12 55.93 66.15 C 55.37 64.60 54.81 63.06 54.25 61.51 C 53.71 63.46 53.18 65.41 52.62 67.36 C 52.15 68.97 51.62 70.57 51.07 72.17 L 51.14 71.21 C 51.45 65.10 52.79 59.12 54.18 53.18 C 60.71 51.77 67.33 50.75 73.65 48.54 Z" />
<path fill="#bab9c1" opacity="1.00" d=" M 62.64 53.09 C 63.67 52.80 64.69 52.52 65.72 52.24 C 68.08 55.42 71.38 57.67 75.31 58.40 C 75.70 60.22 75.77 62.31 77.25 63.65 C 81.40 67.87 85.91 71.72 90.02 75.98 C 86.98 76.07 83.93 76.14 80.89 76.19 C 80.87 78.56 80.85 80.93 80.82 83.31 C 78.51 80.93 76.63 77.98 73.73 76.28 C 70.18 76.19 66.75 77.32 63.32 78.05 C 62.68 75.72 62.59 73.00 60.75 71.22 C 58.61 68.97 55.45 68.30 52.62 67.36 C 53.18 65.41 53.71 63.46 54.25 61.51 C 54.81 63.06 55.37 64.60 55.93 66.15 C 58.18 67.12 60.65 67.82 62.55 69.43 C 63.91 71.42 64.46 73.82 65.26 76.06 C 67.62 75.49 69.96 74.84 72.37 74.56 C 75.43 73.98 77.23 77.16 79.37 78.76 C 79.01 77.37 78.65 75.97 78.28 74.58 L 78.08 73.86 C 79.65 73.47 81.21 73.08 82.78 72.69 C 79.51 69.80 76.15 66.83 74.24 62.81 C 72.04 57.94 66.55 56.25 62.64 53.09 Z" />
<path fill="#bab9bd" opacity="1.00" d=" M 34.68 52.69 C 35.86 52.98 37.03 53.27 38.21 53.56 C 34.42 56.14 30.25 58.09 25.96 59.68 C 25.73 61.26 25.61 62.88 25.11 64.41 C 23.51 67.28 20.44 69.01 18.83 71.89 C 19.07 74.07 19.85 76.14 20.46 78.23 C 21.01 77.19 21.55 76.14 22.08 75.09 C 26.15 74.39 30.24 74.91 34.22 75.82 C 35.16 73.94 35.89 71.89 37.27 70.26 C 39.00 69.34 41.13 69.76 43.04 69.60 C 43.74 66.95 44.57 64.33 45.61 61.79 C 45.79 62.35 46.17 63.45 46.36 64.00 L 46.42 64.86 C 46.05 67.52 45.91 70.23 46.64 72.84 C 44.44 72.24 42.23 71.66 40.03 71.06 C 38.24 73.20 36.83 75.62 35.74 78.19 C 32.31 77.37 28.87 76.06 25.30 76.31 C 22.50 77.70 20.39 80.08 18.08 82.11 C 18.07 80.15 18.07 78.19 18.07 76.23 C 15.59 76.16 13.10 76.06 10.62 75.94 C 14.58 71.10 19.60 67.29 23.91 62.78 C 23.79 61.27 23.67 59.76 23.55 58.25 C 27.81 57.71 31.80 55.95 34.68 52.69 Z" />
<path fill="#7ca69d" opacity="1.00" d=" M 46.15 57.01 C 46.88 56.13 47.61 55.26 48.35 54.38 L 48.59 55.30 C 48.47 58.68 48.88 62.05 49.71 65.33 C 49.57 67.46 49.32 69.59 49.08 71.73 C 49.60 71.60 50.63 71.34 51.14 71.21 L 51.07 72.17 C 50.93 73.95 50.70 75.72 50.45 77.49 C 48.04 73.70 47.47 69.14 46.42 64.86 L 46.36 64.00 C 46.32 61.67 46.32 59.34 46.15 57.01 Z" />
<path fill="#176767" opacity="1.00" d=" M 49.71 65.33 C 48.88 62.05 48.47 58.68 48.59 55.30 C 49.89 58.49 50.22 61.93 49.71 65.33 Z" />
<path fill="#ffffff" opacity="1.00" d=" M 63.84 55.93 C 66.48 57.80 69.13 59.66 71.84 61.42 C 71.58 63.93 71.31 66.44 71.04 68.94 C 72.96 69.05 74.87 69.16 76.79 69.27 C 77.22 70.80 77.66 72.33 78.08 73.86 L 78.28 74.58 C 74.75 71.54 70.22 72.92 66.20 73.95 C 66.19 71.40 66.19 68.85 66.17 66.30 C 63.08 65.96 60.00 65.57 56.93 65.11 C 57.33 63.21 57.73 61.32 58.13 59.43 C 59.40 59.54 60.66 59.65 61.93 59.77 C 61.30 58.87 60.66 57.98 60.03 57.08 C 61.16 57.38 62.29 57.68 63.43 57.98 C 63.53 57.47 63.74 56.44 63.84 55.93 Z" />
<path fill="#ffffff" opacity="1.00" d=" M 27.29 61.26 C 30.15 59.91 33.00 58.54 35.86 57.18 C 36.02 57.47 36.36 58.05 36.53 58.34 C 35.29 59.17 34.05 60.01 32.82 60.86 C 35.70 60.31 38.58 59.70 41.46 59.10 C 41.81 62.03 41.57 64.99 40.66 67.80 C 38.19 67.11 35.72 66.45 33.24 65.81 C 33.21 68.55 33.18 71.28 33.14 74.02 C 30.25 73.36 27.36 72.69 24.47 72.02 C 23.68 73.04 22.88 74.07 22.08 75.09 C 22.12 73.05 22.31 71.01 22.55 68.99 C 24.60 69.04 26.65 69.11 28.70 69.17 C 28.22 66.53 27.76 63.90 27.29 61.26 Z" />
</svg>
