<?xml version="1.0" encoding="UTF-8" ?>
<!DOCTYPE svg PUBLIC "-//W3C//DTD SVG 1.1//EN" "http://www.w3.org/Graphics/SVG/1.1/DTD/svg11.dtd">
<svg width="100pt" height="100pt" viewBox="0 0 100 100" version="1.1" xmlns="http://www.w3.org/2000/svg">
<path fill="#b8bec1" opacity="1.00" d=" M 41.72 13.47 C 47.71 13.46 53.68 13.69 59.66 13.90 C 59.18 19.16 58.45 24.39 57.90 29.65 C 61.12 31.47 64.22 33.52 67.11 35.84 C 70.85 33.59 74.59 31.33 78.27 28.99 C 81.02 34.26 83.55 39.65 86.06 45.03 C 81.71 46.50 77.35 47.94 72.98 49.34 C 72.92 50.81 72.87 52.28 72.83 53.75 C 76.99 55.04 81.16 56.33 85.29 57.76 C 83.61 61.73 81.96 65.71 80.35 69.71 C 84.33 75.20 88.35 80.67 92.16 86.28 C 68.11 86.51 44.05 86.11 20.00 86.19 C 15.91 86.21 11.81 86.19 7.73 85.95 C 11.40 80.25 15.54 74.87 19.20 69.17 C 17.57 65.38 15.98 61.56 14.40 57.75 C 18.81 56.25 23.26 54.89 27.70 53.49 C 27.68 52.19 27.66 50.89 27.64 49.59 C 23.14 48.10 18.64 46.63 14.11 45.25 C 16.55 39.84 19.10 34.47 21.81 29.20 C 25.57 31.47 29.33 33.72 33.07 36.02 C 36.34 33.48 39.82 31.23 43.46 29.24 C 42.78 24.00 42.28 18.73 41.72 13.47 M 44.10 15.89 C 44.57 20.80 45.06 25.71 45.59 30.62 C 41.33 32.85 37.28 35.48 33.56 38.54 C 29.96 36.54 26.39 34.48 22.83 32.41 C 20.61 36.06 18.72 39.90 17.13 43.87 C 21.39 45.32 25.64 46.82 29.90 48.27 C 29.75 50.53 29.94 52.89 29.16 55.05 C 25.32 56.76 21.19 57.67 17.22 59.02 C 18.71 62.90 20.94 66.61 21.47 70.78 C 19.52 75.19 16.17 78.80 13.76 82.96 C 26.84 83.36 39.93 83.01 53.01 83.11 C 64.08 83.02 75.15 83.36 86.21 82.96 C 83.68 78.82 80.22 75.22 78.26 70.75 C 78.82 66.62 80.91 62.90 82.32 59.02 C 78.45 57.72 74.56 56.47 70.65 55.30 C 70.71 52.90 70.75 50.50 70.79 48.09 C 74.85 46.62 78.92 45.20 83.00 43.79 C 81.43 39.79 79.59 35.90 77.56 32.11 C 73.97 34.13 70.42 36.23 66.92 38.42 C 63.31 35.61 59.50 33.07 55.52 30.81 C 56.24 25.92 56.82 21.02 57.28 16.10 C 52.89 15.79 48.49 15.71 44.10 15.89 Z" />
<path fill="#bc532e" opacity="1.00" d=" M 44.10 15.89 C 48.49 15.71 52.89 15.79 57.28 16.10 C 56.82 21.02 56.24 25.92 55.52 30.81 C 59.50 33.07 63.31 35.61 66.92 38.42 C 70.42 36.23 73.97 34.13 77.56 32.11 C 79.59 35.90 81.43 39.79 83.00 43.79 C 78.92 45.20 74.85 46.62 70.79 48.09 C 70.75 50.50 70.71 52.90 70.65 55.30 C 74.56 56.47 78.45 57.72 82.32 59.02 C 80.91 62.90 78.82 66.62 78.26 70.75 C 80.22 75.22 83.68 78.82 86.21 82.96 C 75.15 83.36 64.08 83.02 53.01 83.11 C 39.93 83.01 26.84 83.36 13.76 82.96 C 16.17 78.80 19.52 75.19 21.47 70.78 C 20.94 66.61 18.71 62.90 17.22 59.02 C 21.19 57.67 25.32 56.76 29.16 55.05 C 29.94 52.89 29.75 50.53 29.90 48.27 C 25.64 46.82 21.39 45.32 17.13 43.87 C 18.72 39.90 20.61 36.06 22.83 32.41 C 26.39 34.48 29.96 36.54 33.56 38.54 C 37.28 35.48 41.33 32.85 45.59 30.62 C 45.06 25.71 44.57 20.80 44.10 15.89 M 46.34 18.05 C 46.99 22.84 47.48 27.65 47.86 32.46 C 42.47 34.08 37.78 37.30 33.96 41.38 C 30.42 39.29 26.89 37.21 23.32 35.18 C 22.22 37.68 21.11 40.18 20.03 42.69 C 25.83 44.84 31.98 46.07 37.63 48.63 C 38.13 50.62 38.16 52.69 38.29 54.73 C 36.88 55.16 35.46 55.60 34.05 56.03 C 33.49 53.24 32.96 50.44 32.28 47.68 C 32.02 50.69 31.90 53.70 31.79 56.72 C 27.86 57.86 23.94 59.08 20.04 60.32 C 21.07 62.84 22.11 65.36 23.16 67.88 C 28.80 65.05 34.19 61.75 39.77 58.81 C 41.77 60.29 43.79 61.74 45.87 63.11 C 42.93 59.86 38.76 56.82 38.68 52.00 C 38.15 46.84 41.87 42.10 46.59 40.40 C 53.77 37.48 62.64 44.29 61.69 52.01 C 61.84 56.77 57.86 59.87 54.79 62.88 C 56.82 61.84 58.61 59.88 60.90 59.63 C 66.48 61.63 71.26 65.37 76.65 67.83 C 77.64 65.32 78.66 62.81 79.68 60.30 C 75.94 59.15 72.21 57.98 68.48 56.82 C 68.70 53.72 68.74 50.61 68.39 47.52 C 67.28 50.29 66.96 53.25 66.69 56.19 C 65.29 55.80 63.89 55.41 62.50 55.02 C 62.59 52.75 62.69 50.48 62.81 48.20 C 68.57 46.31 74.36 44.50 80.13 42.63 C 79.03 40.11 77.90 37.60 76.78 35.09 C 73.27 37.09 69.78 39.13 66.28 41.13 C 62.68 37.26 58.23 34.33 53.29 32.50 C 53.81 27.74 54.39 22.99 54.96 18.24 C 52.09 18.17 49.21 18.11 46.34 18.05 M 43.64 52.87 C 45.89 56.52 48.04 60.57 47.84 64.99 C 47.70 70.37 47.12 75.73 46.84 81.10 C 48.94 81.11 51.04 81.11 53.14 81.11 C 52.90 75.74 52.37 70.39 52.28 65.01 C 52.13 60.56 54.23 56.46 56.54 52.80 C 54.54 49.23 52.41 45.73 50.05 42.38 C 47.74 45.77 45.62 49.28 43.64 52.87 M 35.65 62.18 C 37.92 65.66 41.47 67.99 45.44 69.09 C 42.56 66.30 39.22 64.02 35.65 62.18 M 54.61 69.19 C 58.57 68.32 62.08 66.11 64.43 62.80 C 60.85 64.39 57.51 66.53 54.61 69.19 M 31.12 71.32 C 33.93 74.24 38.76 73.77 41.77 71.40 C 38.24 70.95 34.66 70.90 31.12 71.32 M 60.09 71.36 C 63.06 73.90 67.83 74.12 70.75 71.39 C 67.21 70.92 63.63 70.93 60.09 71.36 M 37.04 77.04 C 33.22 77.05 28.15 78.39 25.67 74.59 C 23.42 76.63 21.18 78.66 18.95 80.72 C 26.81 80.74 34.67 80.81 42.53 80.57 C 42.70 78.12 42.87 75.68 43.08 73.24 C 41.27 74.76 39.64 77.04 37.04 77.04 M 57.57 73.26 C 57.77 75.71 57.95 78.17 58.12 80.63 C 65.86 80.75 73.61 80.83 81.34 80.62 C 79.33 78.64 77.26 76.72 75.16 74.85 C 71.76 77.68 67.15 77.48 63.03 76.96 C 60.70 76.71 59.27 74.62 57.57 73.26 M 29.50 74.58 C 32.87 75.17 36.33 75.16 39.67 74.35 C 36.29 73.81 32.84 73.81 29.50 74.58 M 61.57 74.63 C 65.18 75.10 68.84 75.08 72.46 74.59 C 68.87 73.77 65.15 73.78 61.57 74.63 Z" />
<path fill="#ffffff" opacity="1.00" d=" M 46.34 18.05 C 49.21 18.11 52.09 18.17 54.96 18.24 C 54.39 22.99 53.81 27.74 53.29 32.50 C 58.23 34.33 62.68 37.26 66.28 41.13 C 69.78 39.13 73.27 37.09 76.78 35.09 C 77.90 37.60 79.03 40.11 80.13 42.63 C 74.36 44.50 68.57 46.31 62.81 48.20 C 62.69 50.48 62.59 52.75 62.50 55.02 C 63.89 55.41 65.29 55.80 66.69 56.19 C 66.96 53.25 67.28 50.29 68.39 47.52 C 68.74 50.61 68.70 53.72 68.48 56.82 C 72.21 57.98 75.94 59.15 79.68 60.30 C 78.66 62.81 77.64 65.32 76.65 67.83 C 71.26 65.37 66.48 61.63 60.90 59.63 C 58.61 59.88 56.82 61.84 54.79 62.88 C 57.86 59.87 61.84 56.77 61.69 52.01 C 62.64 44.29 53.77 37.48 46.59 40.40 C 41.87 42.10 38.15 46.84 38.68 52.00 C 38.76 56.82 42.93 59.86 45.87 63.11 C 43.79 61.74 41.77 60.29 39.77 58.81 C 34.19 61.75 28.80 65.05 23.16 67.88 C 22.11 65.36 21.07 62.84 20.04 60.32 C 23.94 59.08 27.86 57.86 31.79 56.72 C 31.90 53.70 32.02 50.69 32.28 47.68 C 32.96 50.44 33.49 53.24 34.05 56.03 C 35.46 55.60 36.88 55.16 38.29 54.73 C 38.16 52.69 38.13 50.62 37.63 48.63 C 31.98 46.07 25.83 44.84 20.03 42.69 C 21.11 40.18 22.22 37.68 23.32 35.18 C 26.89 37.21 30.42 39.29 33.96 41.38 C 37.78 37.30 42.47 34.08 47.86 32.46 C 47.48 27.65 46.99 22.84 46.34 18.05 M 35.49 42.66 C 36.66 43.22 37.84 43.78 39.02 44.34 C 42.07 42.08 45.27 40.03 48.56 38.15 C 48.45 37.19 48.23 35.26 48.12 34.29 C 42.90 35.24 38.32 38.15 35.49 42.66 M 52.93 34.35 C 52.81 35.31 52.58 37.22 52.46 38.18 C 55.49 40.09 58.43 42.12 61.24 44.35 C 62.44 43.57 63.65 42.79 64.85 42.01 C 61.86 38.14 57.71 35.42 52.93 34.35 Z" />
<path fill="#bc542f" opacity="1.00" d=" M 35.49 42.66 C 38.32 38.15 42.90 35.24 48.12 34.29 C 48.23 35.26 48.45 37.19 48.56 38.15 C 45.27 40.03 42.07 42.08 39.02 44.34 C 37.84 43.78 36.66 43.22 35.49 42.66 Z" />
<path fill="#bd5430" opacity="1.00" d=" M 52.93 34.35 C 57.71 35.42 61.86 38.14 64.85 42.01 C 63.65 42.79 62.44 43.57 61.24 44.35 C 58.43 42.12 55.49 40.09 52.46 38.18 C 52.58 37.22 52.81 35.31 52.93 34.35 Z" />
<path fill="#ffffff" opacity="1.00" d=" M 43.64 52.87 C 45.62 49.28 47.74 45.77 50.05 42.38 C 52.41 45.73 54.54 49.23 56.54 52.80 C 54.23 56.46 52.13 60.56 52.28 65.01 C 52.37 70.39 52.90 75.74 53.14 81.11 C 51.04 81.11 48.94 81.11 46.84 81.10 C 47.12 75.73 47.70 70.37 47.84 64.99 C 48.04 60.57 45.89 56.52 43.64 52.87 Z" />
<path fill="#ffffff" opacity="1.00" d=" M 35.65 62.18 C 39.22 64.02 42.56 66.30 45.44 69.09 C 41.47 67.99 37.92 65.66 35.65 62.18 Z" />
<path fill="#f8eeeb" opacity="1.00" d=" M 54.61 69.19 C 57.51 66.53 60.85 64.39 64.43 62.80 C 62.08 66.11 58.57 68.32 54.61 69.19 Z" />
<path fill="#e1b1a0" opacity="1.00" d=" M 31.12 71.32 C 34.66 70.90 38.24 70.95 41.77 71.40 C 38.76 73.77 33.93 74.24 31.12 71.32 Z" />
<path fill="#e1b09f" opacity="1.00" d=" M 60.09 71.36 C 63.63 70.93 67.21 70.92 70.75 71.39 C 67.83 74.12 63.06 73.90 60.09 71.36 Z" />
<path fill="#ffffff" opacity="1.00" d=" M 37.04 77.04 C 39.64 77.04 41.27 74.76 43.08 73.24 C 42.87 75.68 42.70 78.12 42.53 80.57 C 34.67 80.81 26.81 80.74 18.95 80.72 C 21.18 78.66 23.42 76.63 25.67 74.59 C 28.15 78.39 33.22 77.05 37.04 77.04 Z" />
<path fill="#ffffff" opacity="1.00" d=" M 57.57 73.26 C 59.27 74.62 60.70 76.71 63.03 76.96 C 67.15 77.48 71.76 77.68 75.16 74.85 C 77.26 76.72 79.33 78.64 81.34 80.62 C 73.61 80.83 65.86 80.75 58.12 80.63 C 57.95 78.17 57.77 75.71 57.57 73.26 Z" />
<path fill="#f4e1da" opacity="1.00" d=" M 29.50 74.58 C 32.84 73.81 36.29 73.81 39.67 74.35 C 36.33 75.16 32.87 75.17 29.50 74.58 Z" />
<path fill="#f1d9d1" opacity="1.00" d=" M 61.57 74.63 C 65.15 73.78 68.87 73.77 72.46 74.59 C 68.84 75.08 65.18 75.10 61.57 74.63 Z" />
</svg>
