<?xml version="1.0" encoding="UTF-8" ?>
<!DOCTYPE svg PUBLIC "-//W3C//DTD SVG 1.1//EN" "http://www.w3.org/Graphics/SVG/1.1/DTD/svg11.dtd">
<svg width="100pt" height="100pt" viewBox="0 0 100 100" version="1.1" xmlns="http://www.w3.org/2000/svg">
<path fill="#ffffff" opacity="1.00" d=" M 47.46 0.00 L 52.53 0.00 C 54.68 1.21 56.78 2.52 58.85 3.86 C 58.26 6.69 57.78 9.55 57.04 12.35 C 61.40 13.59 65.79 14.95 69.68 17.34 C 84.53 26.03 92.26 45.68 86.18 61.98 C 81.22 78.05 64.62 89.11 47.95 88.28 C 39.64 87.50 31.43 84.41 25.10 78.89 C 16.72 71.78 11.97 60.89 11.64 50.00 C 11.93 41.21 15.02 32.43 20.65 25.64 C 26.22 18.69 34.41 14.41 42.96 12.35 C 42.22 9.55 41.74 6.69 41.15 3.86 C 43.22 2.52 45.31 1.21 47.46 0.00 M 43.55 4.75 C 44.42 8.27 45.01 11.84 45.03 15.48 C 33.94 17.48 23.72 24.46 18.81 34.74 C 11.67 48.72 15.70 67.20 28.09 76.88 C 40.11 87.09 59.12 87.29 71.35 77.33 C 83.92 67.92 88.35 49.55 81.52 35.42 C 76.73 24.80 66.31 17.51 54.97 15.47 C 54.99 11.84 55.59 8.27 56.45 4.75 C 54.16 3.61 51.87 1.82 49.16 2.23 C 47.11 2.60 45.37 3.83 43.55 4.75 Z" />
<path fill="#482b46" opacity="1.00" d=" M 43.55 4.75 C 45.37 3.83 47.11 2.60 49.16 2.23 C 51.87 1.82 54.16 3.61 56.45 4.75 C 55.59 8.27 54.99 11.84 54.97 15.47 C 66.31 17.51 76.73 24.80 81.52 35.42 C 88.35 49.55 83.92 67.92 71.35 77.33 C 59.12 87.29 40.11 87.09 28.09 76.88 C 15.70 67.20 11.67 48.72 18.81 34.74 C 23.72 24.46 33.94 17.48 45.03 15.48 C 45.01 11.84 44.42 8.27 43.55 4.75 M 46.25 5.42 C 48.39 11.39 47.72 17.82 47.54 24.02 C 47.20 25.86 47.41 28.55 45.22 29.24 C 40.73 31.18 35.70 30.92 30.98 31.98 C 31.29 32.46 31.89 33.42 32.20 33.90 C 36.84 33.08 41.58 32.90 46.26 33.51 C 45.48 34.95 44.17 36.21 43.86 37.85 C 43.84 43.28 45.73 48.51 45.77 53.94 C 45.95 63.77 45.01 73.62 45.90 83.43 C 49.89 79.45 52.75 74.37 54.08 68.90 C 54.83 63.94 54.05 58.92 54.23 53.94 C 54.24 48.51 56.18 43.28 56.14 37.85 C 55.82 36.21 54.52 34.95 53.75 33.50 C 58.41 32.91 63.13 33.07 67.76 33.89 C 68.08 33.42 68.73 32.46 69.05 31.98 C 63.89 30.73 58.08 31.41 53.47 28.45 C 51.97 24.76 52.41 20.69 52.26 16.81 C 52.12 12.96 52.45 9.08 53.75 5.43 C 51.26 4.81 48.74 4.81 46.25 5.42 M 23.92 43.81 C 27.02 48.42 30.45 52.79 33.69 57.29 C 36.81 61.52 39.64 66.01 43.45 69.67 C 42.56 63.73 39.26 58.61 36.64 53.34 C 34.34 48.14 28.54 46.34 23.92 43.81 M 65.55 54.54 C 61.68 60.57 57.53 66.51 54.96 73.25 C 63.93 64.50 71.67 54.57 80.18 45.38 C 75.10 48.00 68.70 49.33 65.55 54.54 M 62.30 68.30 C 58.45 72.20 54.23 75.78 50.88 80.15 C 58.68 74.95 65.97 69.03 73.60 63.59 C 77.33 61.39 77.28 56.75 77.99 52.99 C 72.58 57.90 67.52 63.18 62.30 68.30 M 33.06 59.95 C 35.47 65.06 37.01 71.84 43.23 73.52 C 40.27 68.69 36.75 64.24 33.06 59.95 Z" />
<path fill="#ffffff" opacity="1.00" d=" M 46.25 5.42 C 48.74 4.81 51.26 4.81 53.75 5.43 C 52.45 9.08 52.12 12.96 52.26 16.81 C 52.41 20.69 51.97 24.76 53.47 28.45 C 58.08 31.41 63.89 30.73 69.05 31.98 C 68.73 32.46 68.08 33.42 67.76 33.89 C 63.13 33.07 58.41 32.91 53.75 33.50 C 54.52 34.95 55.82 36.21 56.14 37.85 C 56.18 43.28 54.24 48.51 54.23 53.94 C 54.05 58.92 54.83 63.94 54.08 68.90 C 52.75 74.37 49.89 79.45 45.90 83.43 C 45.01 73.62 45.95 63.77 45.77 53.94 C 45.73 48.51 43.84 43.28 43.86 37.85 C 44.17 36.21 45.48 34.95 46.26 33.51 C 41.58 32.90 36.84 33.08 32.20 33.90 C 31.89 33.42 31.29 32.46 30.98 31.98 C 35.70 30.92 40.73 31.18 45.22 29.24 C 47.41 28.55 47.20 25.86 47.54 24.02 C 47.72 17.82 48.39 11.39 46.25 5.42 Z" />
<path fill="#ffffff" opacity="1.00" d=" M 23.92 43.81 C 28.54 46.34 34.34 48.14 36.64 53.34 C 39.26 58.61 42.56 63.73 43.45 69.67 C 39.64 66.01 36.81 61.52 33.69 57.29 C 30.45 52.79 27.02 48.42 23.92 43.81 Z" />
<path fill="#ffffff" opacity="1.00" d=" M 65.55 54.54 C 68.70 49.33 75.10 48.00 80.18 45.38 C 71.67 54.57 63.93 64.50 54.96 73.25 C 57.53 66.51 61.68 60.57 65.55 54.54 Z" />
<path fill="#ffffff" opacity="1.00" d=" M 62.30 68.30 C 67.52 63.18 72.58 57.90 77.99 52.99 C 77.28 56.75 77.33 61.39 73.60 63.59 C 65.97 69.03 58.68 74.95 50.88 80.15 C 54.23 75.78 58.45 72.20 62.30 68.30 Z" />
<path fill="#ffffff" opacity="1.00" d=" M 33.06 59.95 C 36.75 64.24 40.27 68.69 43.23 73.52 C 37.01 71.84 35.47 65.06 33.06 59.95 Z" />
</svg>
