<?xml version="1.0" encoding="UTF-8" ?>
<!DOCTYPE svg PUBLIC "-//W3C//DTD SVG 1.1//EN" "http://www.w3.org/Graphics/SVG/1.1/DTD/svg11.dtd">
<svg width="100pt" height="100pt" viewBox="0 0 100 100" version="1.1" xmlns="http://www.w3.org/2000/svg">
<path fill="#b8b8b8" opacity="1.00" d=" M 8.34 10.33 C 31.44 10.41 54.55 10.42 77.65 10.33 C 77.62 23.57 77.58 36.81 77.62 50.04 C 77.12 52.90 80.36 53.63 82.18 54.91 C 87.69 57.81 91.00 63.90 91.40 69.99 C 91.50 79.80 82.81 88.56 73.00 88.54 C 66.22 88.48 60.43 84.02 56.87 78.53 C 54.37 78.63 51.71 78.11 49.32 79.00 C 46.65 81.86 44.66 85.26 42.28 88.34 C 39.90 85.05 37.51 81.77 35.11 78.51 C 26.19 78.55 17.26 78.45 8.35 78.60 C 8.40 55.84 8.41 33.09 8.34 10.33 M 13.26 15.10 C 13.33 34.79 13.35 54.47 13.25 74.16 C 20.69 74.57 28.13 74.23 35.57 74.40 C 37.62 77.77 39.80 81.06 42.09 84.28 C 44.39 81.09 46.59 77.82 48.62 74.46 C 51.58 74.40 54.53 74.36 57.49 74.34 C 59.30 77.74 61.14 81.38 64.47 83.53 C 70.33 87.50 78.81 86.85 83.92 81.92 C 89.91 76.62 90.65 66.59 85.53 60.45 C 82.72 56.69 78.04 55.29 73.77 53.92 C 73.59 40.98 73.71 28.04 73.74 15.10 C 64.46 14.84 55.18 15.12 45.90 14.89 L 46.38 15.57 C 44.03 15.56 41.68 15.53 39.33 15.48 L 39.58 14.75 C 30.81 15.24 22.03 14.78 13.26 15.10 Z" />
<path fill="#b61c2e" opacity="1.00" d=" M 13.26 15.10 C 22.03 14.78 30.81 15.24 39.58 14.75 L 39.33 15.48 C 38.04 18.43 38.02 21.66 38.29 24.81 C 37.21 25.26 36.14 25.72 35.06 26.17 C 34.08 25.15 33.10 24.12 32.12 23.09 C 32.50 24.33 32.87 25.58 33.25 26.82 C 32.09 27.63 30.94 28.45 29.78 29.26 C 26.11 26.25 22.53 23.12 18.75 20.23 C 21.73 23.78 25.00 27.08 28.29 30.34 C 26.41 33.22 24.00 36.00 20.22 35.68 C 21.23 36.11 22.24 36.55 23.24 37.00 C 23.07 38.31 22.90 39.63 22.73 40.95 C 20.42 41.29 18.11 41.62 15.80 41.95 C 17.85 42.37 19.90 42.76 21.94 43.18 C 22.23 45.69 22.53 48.21 22.84 50.72 C 21.90 51.40 20.97 52.08 20.04 52.77 C 21.27 52.50 22.51 52.23 23.75 51.96 C 24.67 53.33 25.60 54.70 26.52 56.07 C 22.92 59.61 19.26 63.09 15.76 66.72 C 19.86 63.85 23.73 60.66 27.41 57.27 C 29.64 58.55 31.87 59.83 34.11 61.09 C 33.44 62.69 32.76 64.28 32.08 65.87 C 33.44 64.19 34.80 62.50 36.18 60.84 C 37.01 67.47 38.81 73.99 42.16 79.80 C 46.41 74.01 48.24 66.97 48.84 59.90 C 50.26 60.31 51.69 60.72 53.11 61.13 C 53.61 59.28 54.15 57.19 56.04 56.28 C 58.15 57.19 60.00 58.58 61.90 59.86 C 60.72 58.17 59.42 56.55 58.54 54.68 C 58.83 52.52 60.15 50.43 62.00 49.27 C 63.64 49.27 65.25 49.57 66.85 49.82 C 65.43 49.12 63.96 48.47 62.68 47.52 C 62.47 46.02 62.50 44.50 62.47 42.99 C 65.08 42.65 67.68 42.28 70.29 41.95 C 67.79 41.64 65.30 41.33 62.80 41.04 C 62.03 38.00 61.28 34.67 63.28 31.92 C 62.30 32.30 61.31 32.67 60.33 33.05 C 59.36 31.74 58.39 30.44 57.44 29.12 C 61.25 25.39 65.16 21.74 68.88 17.90 C 64.37 21.07 60.15 24.62 55.96 28.19 C 54.61 27.42 53.27 26.64 51.93 25.86 C 52.65 24.36 53.39 22.86 54.15 21.37 C 52.22 23.07 50.14 24.60 47.96 25.96 C 47.93 23.35 48.03 20.73 48.15 18.12 C 47.56 17.27 46.97 16.42 46.38 15.57 L 45.90 14.89 C 55.18 15.12 64.46 14.84 73.74 15.10 C 73.71 28.04 73.59 40.98 73.77 53.92 C 78.04 55.29 82.72 56.69 85.53 60.45 C 90.65 66.59 89.91 76.62 83.92 81.92 C 78.81 86.85 70.33 87.50 64.47 83.53 C 61.14 81.38 59.30 77.74 57.49 74.34 C 54.53 74.36 51.58 74.40 48.62 74.46 C 46.59 77.82 44.39 81.09 42.09 84.28 C 39.80 81.06 37.62 77.77 35.57 74.40 C 28.13 74.23 20.69 74.57 13.25 74.16 C 13.35 54.47 13.33 34.79 13.26 15.10 M 70.44 57.50 C 66.13 58.43 62.43 61.72 60.87 65.83 C 57.90 73.13 63.21 82.18 70.99 83.22 C 78.74 84.80 86.72 77.89 86.25 70.00 C 86.33 62.10 78.11 55.64 70.44 57.50 Z" />
<path fill="#ffffff" opacity="1.00" d=" M 38.29 24.81 C 38.02 21.66 38.04 18.43 39.33 15.48 C 41.68 15.53 44.03 15.56 46.38 15.57 C 46.97 16.42 47.56 17.27 48.15 18.12 C 48.03 20.73 47.93 23.35 47.96 25.96 C 50.14 24.60 52.22 23.07 54.15 21.37 C 53.39 22.86 52.65 24.36 51.93 25.86 C 53.27 26.64 54.61 27.42 55.96 28.19 C 60.15 24.62 64.37 21.07 68.88 17.90 C 65.16 21.74 61.25 25.39 57.44 29.12 C 58.39 30.44 59.36 31.74 60.33 33.05 C 61.31 32.67 62.30 32.30 63.28 31.92 C 61.28 34.67 62.03 38.00 62.80 41.04 C 65.30 41.33 67.79 41.64 70.29 41.95 C 67.68 42.28 65.08 42.65 62.47 42.99 C 62.50 44.50 62.47 46.02 62.68 47.52 C 63.96 48.47 65.43 49.12 66.85 49.82 C 65.25 49.57 63.64 49.27 62.00 49.27 C 60.15 50.43 58.83 52.52 58.54 54.68 C 59.42 56.55 60.72 58.17 61.90 59.86 C 60.00 58.58 58.15 57.19 56.04 56.28 C 54.15 57.19 53.61 59.28 53.11 61.13 C 51.69 60.72 50.26 60.31 48.84 59.90 C 48.24 66.97 46.41 74.01 42.16 79.80 C 38.81 73.99 37.01 67.47 36.18 60.84 C 34.80 62.50 33.44 64.19 32.08 65.87 C 32.76 64.28 33.44 62.69 34.11 61.09 C 31.87 59.83 29.64 58.55 27.41 57.27 C 23.73 60.66 19.86 63.85 15.76 66.72 C 19.26 63.09 22.92 59.61 26.52 56.07 C 25.60 54.70 24.67 53.33 23.75 51.96 C 22.51 52.23 21.27 52.50 20.04 52.77 C 20.97 52.08 21.90 51.40 22.84 50.72 C 22.53 48.21 22.23 45.69 21.94 43.18 C 19.90 42.76 17.85 42.37 15.80 41.95 C 18.11 41.62 20.42 41.29 22.73 40.95 C 22.90 39.63 23.07 38.31 23.24 37.00 C 22.24 36.55 21.23 36.11 20.22 35.68 C 24.00 36.00 26.41 33.22 28.29 30.34 C 25.00 27.08 21.73 23.78 18.75 20.23 C 22.53 23.12 26.11 26.25 29.78 29.26 C 30.94 28.45 32.09 27.63 33.25 26.82 C 32.87 25.58 32.50 24.33 32.12 23.09 C 33.10 24.12 34.08 25.15 35.06 26.17 C 36.14 25.72 37.21 25.26 38.29 24.81 M 41.13 17.24 C 41.03 23.30 42.36 29.61 40.57 35.50 C 37.45 37.96 32.85 36.90 29.62 39.36 C 33.08 39.54 36.54 39.36 40.00 39.35 C 37.25 43.93 40.02 49.08 39.88 53.95 C 39.85 61.44 38.52 69.46 42.62 76.23 C 46.29 69.34 45.36 61.46 45.42 53.96 C 45.30 49.13 48.84 43.80 45.36 39.45 C 48.90 39.38 52.44 39.42 55.96 39.01 C 52.47 37.42 48.66 36.78 44.93 36.02 C 44.36 29.88 44.37 23.67 45.41 17.58 C 43.99 17.46 42.56 17.35 41.13 17.24 Z" />
<path fill="#b51a2c" opacity="1.00" d=" M 41.13 17.24 C 42.56 17.35 43.99 17.46 45.41 17.58 C 44.37 23.67 44.36 29.88 44.93 36.02 C 48.66 36.78 52.47 37.42 55.96 39.01 C 52.44 39.42 48.90 39.38 45.36 39.45 C 48.84 43.80 45.30 49.13 45.42 53.96 C 45.36 61.46 46.29 69.34 42.62 76.23 C 38.52 69.46 39.85 61.44 39.88 53.95 C 40.02 49.08 37.25 43.93 40.00 39.35 C 36.54 39.36 33.08 39.54 29.62 39.36 C 32.85 36.90 37.45 37.96 40.57 35.50 C 42.36 29.61 41.03 23.30 41.13 17.24 Z" />
<path fill="#f3f38a" opacity="1.00" d=" M 70.44 57.50 C 78.11 55.64 86.33 62.10 86.25 70.00 C 86.72 77.89 78.74 84.80 70.99 83.22 C 63.21 82.18 57.90 73.13 60.87 65.83 C 62.43 61.72 66.13 58.43 70.44 57.50 M 69.38 59.50 C 65.95 60.73 63.15 63.68 62.14 67.20 C 60.18 73.53 64.83 80.76 71.39 81.64 C 78.77 83.13 85.97 75.76 84.52 68.42 C 83.52 61.64 75.82 57.07 69.38 59.50 Z" />
<path fill="#b51a2c" opacity="1.00" d=" M 69.38 59.50 C 75.82 57.07 83.52 61.64 84.52 68.42 C 85.97 75.76 78.77 83.13 71.39 81.64 C 64.83 80.76 60.18 73.53 62.14 67.20 C 63.15 63.68 65.95 60.73 69.38 59.50 M 69.37 61.39 C 62.49 63.90 61.51 74.48 67.68 78.32 C 73.46 82.58 82.77 78.21 82.81 70.93 C 83.60 64.00 75.66 58.43 69.37 61.39 Z" />
<path fill="#f3f38a" opacity="1.00" d=" M 69.37 61.39 C 75.66 58.43 83.60 64.00 82.81 70.93 C 82.77 78.21 73.46 82.58 67.68 78.32 C 61.51 74.48 62.49 63.90 69.37 61.39 M 71.43 67.24 C 70.13 67.95 69.39 69.52 69.73 70.97 C 69.98 74.07 74.77 74.87 76.21 72.17 C 78.30 69.36 74.37 65.17 71.43 67.24 Z" />
<path fill="#b61c2e" opacity="1.00" d=" M 71.43 67.24 C 74.37 65.17 78.30 69.36 76.21 72.17 C 74.77 74.87 69.98 74.07 69.73 70.97 C 69.39 69.52 70.13 67.95 71.43 67.24 Z" />
</svg>
