<?xml version="1.0" encoding="UTF-8" ?>
<!DOCTYPE svg PUBLIC "-//W3C//DTD SVG 1.1//EN" "http://www.w3.org/Graphics/SVG/1.1/DTD/svg11.dtd">
<svg width="100pt" height="100pt" viewBox="0 0 100 100" version="1.1" xmlns="http://www.w3.org/2000/svg">
<path fill="#b8b8b9" opacity="1.00" d=" M 62.27 2.29 C 64.23 8.51 65.56 14.91 67.23 21.21 C 74.91 16.57 82.93 12.51 91.06 8.71 C 86.77 15.23 82.00 21.42 77.56 27.84 C 82.27 28.65 86.99 29.45 91.64 30.58 C 86.85 33.35 81.92 35.86 77.02 38.41 C 80.62 42.69 84.42 46.79 88.09 51.00 C 85.83 50.62 83.58 50.19 81.33 49.78 C 81.72 50.78 82.12 51.78 82.51 52.79 C 69.91 67.21 57.45 81.76 44.93 96.26 C 32.22 81.61 19.50 66.96 6.93 52.19 C 19.69 37.67 32.14 22.88 44.93 8.38 C 48.40 12.34 51.83 16.34 55.27 20.33 C 57.73 14.37 59.72 8.22 62.27 2.29 M 56.43 25.04 C 52.03 21.80 48.45 17.65 44.94 13.51 C 33.49 26.22 22.56 39.37 11.28 52.23 C 22.46 65.21 33.48 78.33 44.94 91.07 C 56.14 78.18 67.52 65.43 78.33 52.20 C 76.61 50.13 74.90 48.06 73.20 45.98 C 75.88 46.33 78.56 46.72 81.25 47.06 C 78.74 43.96 76.13 40.94 73.54 37.92 C 77.24 35.86 80.96 33.82 84.58 31.61 C 80.75 30.69 76.87 30.01 72.98 29.42 C 76.68 24.85 80.35 20.24 83.39 15.21 C 77.12 17.85 71.40 21.57 65.56 25.04 C 64.55 20.13 63.39 15.26 61.85 10.49 C 59.69 15.20 58.00 20.10 56.43 25.04 Z" />
<path fill="#e85a27" opacity="1.00" d=" M 56.43 25.04 C 58.00 20.10 59.69 15.20 61.85 10.49 C 63.39 15.26 64.55 20.13 65.56 25.04 C 71.40 21.57 77.12 17.85 83.39 15.21 C 80.35 20.24 76.68 24.85 72.98 29.42 C 76.87 30.01 80.75 30.69 84.58 31.61 C 80.96 33.82 77.24 35.86 73.54 37.92 C 76.13 40.94 78.74 43.96 81.25 47.06 C 78.56 46.72 75.88 46.33 73.20 45.98 C 74.90 48.06 76.61 50.13 78.33 52.20 C 67.52 65.43 56.14 78.18 44.94 91.07 C 33.48 78.33 22.46 65.21 11.28 52.23 C 22.56 39.37 33.49 26.22 44.94 13.51 C 48.45 17.65 52.03 21.80 56.43 25.04 M 57.61 30.30 C 53.26 27.24 49.26 23.72 44.88 20.70 C 47.43 24.82 50.40 28.65 53.25 32.57 C 50.65 32.97 48.04 33.30 45.45 33.76 C 48.55 35.53 51.71 37.20 54.90 38.80 C 56.65 34.76 59.10 31.08 60.86 27.05 C 61.28 28.69 61.67 30.34 62.09 31.98 C 63.84 31.22 65.58 30.45 67.33 29.71 C 66.19 31.17 65.02 32.60 63.85 34.04 C 65.21 34.38 66.57 34.71 67.92 35.05 C 66.67 35.81 65.42 36.56 64.16 37.31 C 65.39 38.52 66.62 39.72 67.84 40.92 C 66.69 40.86 65.53 40.78 64.38 40.72 C 63.59 42.46 62.78 44.20 61.98 45.94 C 63.33 44.80 64.67 43.64 66.01 42.48 C 68.79 43.05 71.59 43.56 74.40 43.97 C 72.25 41.85 70.00 39.86 67.71 37.89 C 71.62 36.58 75.49 35.17 79.23 33.44 C 75.30 33.20 71.36 33.06 67.44 32.80 C 70.26 29.17 73.37 25.77 76.30 22.24 C 71.98 25.08 67.67 27.95 63.08 30.34 C 62.59 26.72 62.03 23.10 61.22 19.53 C 59.55 22.95 58.51 26.62 57.61 30.30 M 30.80 39.80 C 34.08 39.20 37.32 38.43 40.57 37.67 C 37.38 32.74 41.42 27.47 42.56 22.55 C 38.11 27.84 31.84 32.51 30.80 39.80 M 57.97 41.87 C 55.12 40.72 52.23 39.66 49.31 38.67 C 48.97 39.25 48.27 40.41 47.92 40.99 C 51.50 42.76 54.86 44.98 57.61 47.90 C 53.20 45.67 49.03 42.53 43.98 41.94 C 34.58 40.39 24.59 49.13 26.21 58.88 C 26.36 68.01 35.60 74.00 44.00 74.12 C 51.52 74.37 58.23 68.63 60.41 61.66 C 61.12 57.81 59.22 54.08 59.23 50.24 C 59.46 45.35 61.23 40.73 62.97 36.21 C 61.83 35.18 60.64 34.20 59.41 33.28 C 57.53 35.79 57.59 38.90 57.97 41.87 M 15.93 52.03 C 18.30 54.94 20.75 57.79 23.30 60.54 C 22.98 58.60 22.59 56.67 22.41 54.71 C 21.94 50.57 24.21 46.85 25.25 42.98 C 21.96 45.80 18.93 48.91 15.93 52.03 M 65.75 51.39 C 66.54 55.52 65.98 59.67 64.15 63.45 C 67.64 60.00 71.64 56.75 73.77 52.22 C 72.29 50.08 70.41 48.26 68.65 46.37 C 67.29 47.80 64.99 49.07 65.75 51.39 M 46.89 78.95 C 42.93 79.58 39.18 77.84 35.59 76.45 C 38.59 79.85 41.69 83.17 44.89 86.39 C 48.69 82.64 52.49 78.88 56.05 74.90 C 53.03 76.31 50.17 78.21 46.89 78.95 Z" />
<path fill="#ffffff" opacity="1.00" d=" M 57.61 30.30 C 58.51 26.62 59.55 22.95 61.22 19.53 C 62.03 23.10 62.59 26.72 63.08 30.34 C 67.67 27.95 71.98 25.08 76.30 22.24 C 73.37 25.77 70.26 29.17 67.44 32.80 C 71.36 33.06 75.30 33.20 79.23 33.44 C 75.49 35.17 71.62 36.58 67.71 37.89 C 70.00 39.86 72.25 41.85 74.40 43.97 C 71.59 43.56 68.79 43.05 66.01 42.48 C 64.67 43.64 63.33 44.80 61.98 45.94 C 62.78 44.20 63.59 42.46 64.38 40.72 C 65.53 40.78 66.69 40.86 67.84 40.92 C 66.62 39.72 65.39 38.52 64.16 37.31 C 65.42 36.56 66.67 35.81 67.92 35.05 C 66.57 34.71 65.21 34.38 63.85 34.04 C 65.02 32.60 66.19 31.17 67.33 29.71 C 65.58 30.45 63.84 31.22 62.09 31.98 C 61.67 30.34 61.28 28.69 60.86 27.05 C 59.10 31.08 56.65 34.76 54.90 38.80 C 51.71 37.20 48.55 35.53 45.45 33.76 C 48.04 33.30 50.65 32.97 53.25 32.57 C 50.40 28.65 47.43 24.82 44.88 20.70 C 49.26 23.72 53.26 27.24 57.61 30.30 Z" />
<path fill="#ffffff" opacity="1.00" d=" M 30.80 39.80 C 31.84 32.51 38.11 27.84 42.56 22.55 C 41.42 27.47 37.38 32.74 40.57 37.67 C 37.32 38.43 34.08 39.20 30.80 39.80 Z" />
<path fill="#ffffff" opacity="1.00" d=" M 57.97 41.87 C 57.59 38.90 57.53 35.79 59.41 33.28 C 60.64 34.20 61.83 35.18 62.97 36.21 C 61.23 40.73 59.46 45.35 59.23 50.24 C 59.22 54.08 61.12 57.81 60.41 61.66 C 58.23 68.63 51.52 74.37 44.00 74.12 C 35.60 74.00 26.36 68.01 26.21 58.88 C 24.59 49.13 34.58 40.39 43.98 41.94 C 49.03 42.53 53.20 45.67 57.61 47.90 C 54.86 44.98 51.50 42.76 47.92 40.99 C 48.27 40.41 48.97 39.25 49.31 38.67 C 52.23 39.66 55.12 40.72 57.97 41.87 M 29.48 59.63 C 30.34 62.48 30.83 65.73 33.11 67.86 C 37.24 71.48 43.23 72.63 48.50 71.36 C 51.86 70.00 54.48 67.38 57.12 64.98 C 51.24 65.48 45.28 68.69 39.41 66.63 C 35.81 64.74 32.89 61.81 29.48 59.63 Z" />
<path fill="#ffffff" opacity="1.00" d=" M 15.93 52.03 C 18.93 48.91 21.96 45.80 25.25 42.98 C 24.21 46.85 21.94 50.57 22.41 54.71 C 22.59 56.67 22.98 58.60 23.30 60.54 C 20.75 57.79 18.30 54.94 15.93 52.03 Z" />
<path fill="#ffffff" opacity="1.00" d=" M 65.75 51.39 C 64.99 49.07 67.29 47.80 68.65 46.37 C 70.41 48.26 72.29 50.08 73.77 52.22 C 71.64 56.75 67.64 60.00 64.15 63.45 C 65.98 59.67 66.54 55.52 65.75 51.39 Z" />
<path fill="#e85824" opacity="1.00" d=" M 29.48 59.63 C 32.89 61.81 35.81 64.74 39.41 66.63 C 45.28 68.69 51.24 65.48 57.12 64.98 C 54.48 67.38 51.86 70.00 48.50 71.36 C 43.23 72.63 37.24 71.48 33.11 67.86 C 30.83 65.73 30.34 62.48 29.48 59.63 Z" />
<path fill="#ffffff" opacity="1.00" d=" M 46.89 78.95 C 50.17 78.21 53.03 76.31 56.05 74.90 C 52.49 78.88 48.69 82.64 44.89 86.39 C 41.69 83.17 38.59 79.85 35.59 76.45 C 39.18 77.84 42.93 79.58 46.89 78.95 Z" />
</svg>
