<?xml version="1.0" encoding="UTF-8" ?>
<!DOCTYPE svg PUBLIC "-//W3C//DTD SVG 1.1//EN" "http://www.w3.org/Graphics/SVG/1.1/DTD/svg11.dtd">
<svg width="100pt" height="100pt" viewBox="0 0 100 100" version="1.1" xmlns="http://www.w3.org/2000/svg">
<path fill="#ffffff" opacity="1.00" d=" M 37.95 13.67 C 38.54 10.31 39.06 6.93 39.65 3.58 C 41.86 6.31 44.07 9.04 46.26 11.79 C 54.95 11.43 63.66 13.45 71.08 18.06 C 76.34 13.54 82.24 9.87 88.44 6.78 C 86.70 13.63 84.02 20.23 79.72 25.89 C 82.34 29.58 84.51 33.56 86.32 37.70 C 88.27 38.23 90.22 38.74 92.17 39.28 C 90.68 40.57 89.15 41.81 87.64 43.06 C 88.80 50.88 87.81 58.93 84.64 66.18 C 89.65 70.35 93.25 75.80 95.86 81.73 C 89.73 80.64 83.90 78.44 78.30 75.75 C 75.82 78.14 73.06 80.20 70.37 82.34 C 68.09 83.80 68.29 86.79 67.56 89.09 C 66.06 88.03 64.57 86.95 63.06 85.90 C 54.77 88.81 45.72 88.69 37.35 86.15 C 34.92 87.98 32.47 89.78 30.00 91.56 C 29.83 88.48 29.76 85.40 29.70 82.31 C 28.07 81.14 26.45 79.95 24.85 78.73 C 19.64 82.09 13.81 84.22 7.63 84.84 C 10.01 79.51 13.42 74.74 17.63 70.70 C 16.01 67.48 14.95 63.95 12.94 60.96 C 11.26 60.31 9.49 59.96 7.75 59.49 C 9.10 58.21 10.57 57.05 11.75 55.60 C 12.15 51.77 11.70 47.88 12.36 44.07 C 13.13 37.93 16.02 32.35 19.19 27.12 C 15.03 22.20 12.17 16.43 9.94 10.42 C 12.89 11.39 15.91 12.19 18.79 13.35 C 22.07 14.65 24.55 17.37 27.82 18.67 C 31.22 17.05 34.46 15.09 37.95 13.67 M 40.82 8.63 C 40.38 11.29 40.13 13.97 39.77 16.64 C 36.01 18.26 32.37 20.13 28.85 22.21 C 24.02 18.98 19.46 15.03 13.64 13.75 C 15.44 19.25 19.16 23.74 22.60 28.28 C 19.37 33.55 16.20 39.13 15.62 45.40 C 15.00 49.68 16.58 54.65 13.16 58.08 C 17.89 60.20 18.95 65.59 21.05 69.81 C 17.54 73.65 13.74 77.36 11.44 82.11 C 16.88 81.32 21.53 78.29 26.19 75.60 C 28.25 77.07 30.31 78.54 32.37 80.00 C 32.16 82.52 31.94 85.05 31.89 87.58 C 33.89 86.07 35.79 84.43 37.60 82.69 C 41.99 83.76 46.43 84.90 50.98 84.69 C 54.74 84.68 58.31 83.32 62.02 82.96 C 63.51 83.23 64.71 84.27 66.02 84.96 C 66.92 78.95 72.82 76.33 76.87 72.63 C 81.63 75.03 86.43 77.50 91.70 78.54 C 89.72 73.17 85.22 69.53 81.15 65.79 C 83.60 59.87 85.16 53.52 84.53 47.07 C 84.10 44.57 85.23 42.34 86.63 40.37 C 81.05 38.02 79.92 31.46 76.40 27.10 C 79.86 22.06 83.50 16.99 85.08 10.98 C 79.53 13.60 74.89 17.65 70.07 21.36 C 62.89 16.94 54.57 14.76 46.14 15.22 C 44.47 12.94 42.72 10.72 40.82 8.63 Z" />
<path fill="#482b46" opacity="1.00" d=" M 40.82 8.63 C 42.72 10.72 44.47 12.94 46.14 15.22 C 54.57 14.76 62.89 16.94 70.07 21.36 C 74.89 17.65 79.53 13.60 85.08 10.98 C 83.50 16.99 79.86 22.06 76.40 27.10 C 79.92 31.46 81.05 38.02 86.63 40.37 C 85.23 42.34 84.10 44.57 84.53 47.07 C 85.16 53.52 83.60 59.87 81.15 65.79 C 85.22 69.53 89.72 73.17 91.70 78.54 C 86.43 77.50 81.63 75.03 76.87 72.63 C 72.82 76.33 66.92 78.95 66.02 84.96 C 64.71 84.27 63.51 83.23 62.02 82.96 C 58.31 83.32 54.74 84.68 50.98 84.69 C 46.43 84.90 41.99 83.76 37.60 82.69 C 35.79 84.43 33.89 86.07 31.89 87.58 C 31.94 85.05 32.16 82.52 32.37 80.00 C 30.31 78.54 28.25 77.07 26.19 75.60 C 21.53 78.29 16.88 81.32 11.44 82.11 C 13.74 77.36 17.54 73.65 21.05 69.81 C 18.95 65.59 17.89 60.20 13.16 58.08 C 16.58 54.65 15.00 49.68 15.62 45.40 C 16.20 39.13 19.37 33.55 22.60 28.28 C 19.16 23.74 15.44 19.25 13.64 13.75 C 19.46 15.03 24.02 18.98 28.85 22.21 C 32.37 20.13 36.01 18.26 39.77 16.64 C 40.13 13.97 40.38 11.29 40.82 8.63 M 42.39 13.71 C 42.36 16.74 42.66 19.79 42.25 22.81 C 40.15 24.60 37.77 26.03 35.72 27.90 C 40.79 26.75 45.73 24.72 51.00 24.73 C 55.34 24.57 59.42 26.21 63.61 27.02 C 59.43 22.25 52.78 22.41 47.00 22.75 C 45.46 19.74 43.99 16.70 42.39 13.71 M 57.80 34.78 C 53.71 37.87 53.17 43.30 51.79 47.86 C 56.66 45.76 62.49 44.34 65.31 39.38 C 70.69 31.09 76.68 23.20 81.87 14.79 C 73.64 21.20 65.88 28.19 57.80 34.78 M 16.99 16.86 C 21.65 23.81 27.19 30.13 32.17 36.85 C 34.55 39.79 36.51 43.16 39.50 45.55 C 42.22 47.02 45.33 47.45 48.31 48.15 C 47.05 44.66 45.83 41.15 44.14 37.84 C 42.66 34.75 39.53 33.04 36.90 31.07 C 30.16 26.47 23.81 21.34 16.99 16.86 M 70.15 35.79 C 71.52 38.52 73.46 41.06 74.07 44.10 C 74.45 48.59 73.43 53.05 72.92 57.49 C 74.46 57.33 76.01 57.18 77.56 57.05 C 73.62 54.24 74.53 49.30 74.83 45.11 C 77.43 43.83 80.03 42.56 82.58 41.18 C 79.89 40.90 77.16 40.87 74.52 40.30 C 72.78 39.10 71.59 37.31 70.15 35.79 M 25.78 51.99 C 22.51 53.92 19.15 55.71 15.92 57.71 C 19.58 57.32 23.23 56.44 26.93 56.54 C 28.29 57.30 29.19 58.66 30.27 59.74 C 29.12 56.15 27.62 52.64 26.98 48.91 C 26.40 44.53 28.46 40.46 29.47 36.31 C 24.85 40.17 25.36 46.60 25.78 51.99 M 52.07 50.70 C 53.94 53.57 55.69 56.52 57.82 59.21 C 60.11 62.14 63.77 63.40 66.96 65.06 C 74.38 68.55 81.54 72.54 88.96 76.02 C 80.84 68.46 72.44 61.21 64.28 53.69 C 61.11 50.41 56.20 51.15 52.07 50.70 M 38.70 55.73 C 34.98 57.45 32.46 60.81 29.71 63.70 C 24.83 69.17 19.46 74.18 14.74 79.79 C 23.49 74.98 31.84 69.47 40.48 64.49 C 45.38 62.01 46.74 56.33 48.90 51.75 C 45.47 52.98 42.00 54.16 38.70 55.73 M 54.43 74.68 C 48.45 73.82 42.36 72.92 36.87 70.25 C 36.47 74.72 34.94 78.97 33.92 83.32 C 36.40 80.16 38.15 76.45 41.01 73.60 C 42.96 73.87 44.91 74.35 46.68 75.23 C 48.03 76.52 48.81 78.27 49.78 79.83 C 50.29 78.66 50.81 77.49 51.33 76.32 C 54.47 76.58 57.61 76.62 60.75 76.30 C 62.11 78.28 63.47 80.25 64.94 82.16 C 64.51 79.44 63.99 76.75 63.45 74.06 C 65.04 72.03 66.63 69.99 68.04 67.83 C 63.60 70.19 60.01 75.71 54.43 74.68 Z" />
<path fill="#ffffff" opacity="1.00" d=" M 42.39 13.71 C 43.99 16.70 45.46 19.74 47.00 22.75 C 52.78 22.41 59.43 22.25 63.61 27.02 C 59.42 26.21 55.34 24.57 51.00 24.73 C 45.73 24.72 40.79 26.75 35.72 27.90 C 37.77 26.03 40.15 24.60 42.25 22.81 C 42.66 19.79 42.36 16.74 42.39 13.71 Z" />
<path fill="#ffffff" opacity="1.00" d=" M 57.80 34.78 C 65.88 28.19 73.64 21.20 81.87 14.79 C 76.68 23.20 70.69 31.09 65.31 39.38 C 62.49 44.34 56.66 45.76 51.79 47.86 C 53.17 43.30 53.71 37.87 57.80 34.78 Z" />
<path fill="#ffffff" opacity="1.00" d=" M 16.99 16.86 C 23.81 21.34 30.16 26.47 36.90 31.07 C 39.53 33.04 42.66 34.75 44.14 37.84 C 45.83 41.15 47.05 44.66 48.31 48.15 C 45.33 47.45 42.22 47.02 39.50 45.55 C 36.51 43.16 34.55 39.79 32.17 36.85 C 27.19 30.13 21.65 23.81 16.99 16.86 Z" />
<path fill="#ffffff" opacity="1.00" d=" M 70.15 35.79 C 71.59 37.31 72.78 39.10 74.52 40.30 C 77.16 40.87 79.89 40.90 82.58 41.18 C 80.03 42.56 77.43 43.83 74.83 45.11 C 74.53 49.30 73.62 54.24 77.56 57.05 C 76.01 57.18 74.46 57.33 72.92 57.49 C 73.43 53.05 74.45 48.59 74.07 44.10 C 73.46 41.06 71.52 38.52 70.15 35.79 Z" />
<path fill="#ffffff" opacity="1.00" d=" M 25.78 51.99 C 25.36 46.60 24.85 40.17 29.47 36.31 C 28.46 40.46 26.40 44.53 26.98 48.91 C 27.62 52.64 29.12 56.15 30.27 59.74 C 29.19 58.66 28.29 57.30 26.93 56.54 C 23.23 56.44 19.58 57.32 15.92 57.71 C 19.15 55.71 22.51 53.92 25.78 51.99 Z" />
<path fill="#ffffff" opacity="1.00" d=" M 52.07 50.70 C 56.20 51.15 61.11 50.41 64.28 53.69 C 72.44 61.21 80.84 68.46 88.96 76.02 C 81.54 72.54 74.38 68.55 66.96 65.06 C 63.77 63.40 60.11 62.14 57.82 59.21 C 55.69 56.52 53.94 53.57 52.07 50.70 Z" />
<path fill="#ffffff" opacity="1.00" d=" M 38.70 55.73 C 42.00 54.16 45.47 52.98 48.90 51.75 C 46.74 56.33 45.38 62.01 40.48 64.49 C 31.84 69.47 23.49 74.98 14.74 79.79 C 19.46 74.18 24.83 69.17 29.71 63.70 C 32.46 60.81 34.98 57.45 38.70 55.73 Z" />
<path fill="#ffffff" opacity="1.00" d=" M 54.43 74.68 C 60.01 75.71 63.60 70.19 68.04 67.83 C 66.63 69.99 65.04 72.03 63.45 74.06 C 63.99 76.75 64.51 79.44 64.94 82.16 C 63.47 80.25 62.11 78.28 60.75 76.30 C 57.61 76.62 54.47 76.58 51.33 76.32 C 50.81 77.49 50.29 78.66 49.78 79.83 C 48.81 78.27 48.03 76.52 46.68 75.23 C 44.91 74.35 42.96 73.87 41.01 73.60 C 38.15 76.45 36.40 80.16 33.92 83.32 C 34.94 78.97 36.47 74.72 36.87 70.25 C 42.36 72.92 48.45 73.82 54.43 74.68 Z" />
</svg>
