<?xml version="1.0" encoding="UTF-8" ?>
<!DOCTYPE svg PUBLIC "-//W3C//DTD SVG 1.1//EN" "http://www.w3.org/Graphics/SVG/1.1/DTD/svg11.dtd">
<svg width="100pt" height="100pt" viewBox="0 0 100 100" version="1.1" xmlns="http://www.w3.org/2000/svg">
<path fill="#ffffff" opacity="1.00" d=" M 82.17 19.22 C 83.01 18.45 83.86 17.69 84.71 16.92 C 84.43 18.12 84.15 19.32 83.87 20.52 C 86.17 20.52 88.48 20.52 90.78 20.50 C 90.80 20.70 90.84 21.11 90.85 21.31 L 90.11 21.36 C 86.99 21.63 83.85 21.72 80.72 21.72 C 82.11 22.38 83.51 23.04 84.91 23.69 C 83.09 23.00 81.24 22.39 79.40 21.75 C 80.33 20.91 81.25 20.06 82.17 19.22 Z" />
<path fill="#b9bdba" opacity="1.00" d=" M 29.82 19.79 C 39.32 17.57 49.24 17.31 58.82 19.21 C 66.46 21.03 74.51 20.89 82.17 19.22 C 81.25 20.06 80.33 20.91 79.40 21.75 C 79.10 22.02 78.49 22.57 78.18 22.85 L 77.54 23.09 C 73.68 23.43 69.78 23.59 65.91 23.32 C 61.10 22.97 56.80 20.47 52.06 19.76 C 48.34 19.20 44.55 19.13 40.81 19.51 C 35.39 20.04 30.59 23.32 25.07 23.30 C 19.88 23.34 14.69 23.05 9.50 23.22 C 14.13 31.04 20.59 37.70 24.16 46.15 C 22.67 46.79 21.19 47.42 19.70 48.07 C 23.07 50.50 26.63 52.75 30.59 54.11 C 30.15 57.12 29.72 60.12 29.30 63.13 C 30.88 62.49 32.46 61.84 34.03 61.19 C 39.36 65.73 43.76 71.20 47.71 76.95 C 53.03 68.65 59.97 61.67 66.69 54.53 C 67.26 55.32 67.82 56.11 68.39 56.89 C 69.25 54.40 70.11 51.90 70.97 49.40 C 74.92 50.71 78.89 51.96 82.88 53.15 C 80.55 50.15 78.21 47.16 75.95 44.10 C 77.57 44.07 79.19 44.03 80.81 44.03 L 81.56 44.04 C 80.90 44.51 79.57 45.43 78.91 45.90 C 81.89 49.24 84.78 52.67 87.39 56.31 C 82.14 54.79 76.95 53.02 71.80 51.19 C 70.82 55.67 69.21 59.98 68.02 64.41 C 67.46 62.13 66.90 59.85 66.29 57.58 C 58.90 64.89 53.83 74.05 47.69 82.35 C 42.78 76.13 38.66 69.33 33.67 63.19 C 31.32 64.18 29.38 65.86 27.34 67.33 C 27.78 63.73 28.26 60.13 28.74 56.53 C 24.63 53.22 20.25 50.27 15.85 47.36 C 17.63 46.76 19.41 46.17 21.19 45.57 C 15.28 37.01 9.18 28.58 3.08 20.15 C 11.99 19.94 20.95 20.68 29.82 19.79 Z" />
<path fill="#8a1b6c" opacity="1.00" d=" M 40.81 19.51 C 44.55 19.13 48.34 19.20 52.06 19.76 C 56.80 20.47 61.10 22.97 65.91 23.32 C 69.78 23.59 73.68 23.43 77.54 23.09 C 72.59 24.63 68.28 28.05 63.12 28.85 C 59.37 28.99 58.36 24.79 57.05 22.11 C 49.86 20.80 42.51 20.85 35.27 21.69 C 34.31 23.58 33.88 25.92 32.21 27.32 C 29.40 28.76 26.16 28.84 23.10 29.39 C 23.19 35.52 23.84 41.67 25.80 47.51 C 25.04 47.90 23.51 48.69 22.75 49.08 C 25.41 50.01 28.01 51.07 30.59 52.19 C 28.12 45.65 25.77 38.96 25.75 31.88 C 27.95 31.39 30.23 31.08 32.33 30.19 C 35.09 28.73 36.63 25.75 39.33 24.22 C 43.68 23.09 48.39 23.22 52.74 24.26 C 55.99 26.22 57.91 29.95 61.55 31.39 C 64.38 32.45 67.59 34.00 70.60 32.67 C 74.08 31.35 77.26 29.41 80.48 27.58 C 77.51 28.23 74.55 28.93 71.57 29.59 C 73.75 27.32 75.93 25.05 78.18 22.85 C 78.49 22.57 79.10 22.02 79.40 21.75 C 81.24 22.39 83.09 23.00 84.91 23.69 L 85.70 24.02 C 85.07 25.23 84.44 26.44 83.81 27.65 C 86.55 27.53 89.29 27.40 92.03 27.29 C 87.89 30.49 83.40 33.22 78.68 35.46 C 80.11 37.33 81.54 39.20 83.00 41.05 L 82.20 41.24 C 79.45 41.30 76.71 41.26 73.96 41.25 C 75.79 39.90 77.64 38.58 79.43 37.19 C 76.97 37.43 74.34 37.10 72.02 38.08 C 66.70 42.19 65.39 49.25 61.30 54.32 C 57.46 59.62 51.64 62.87 45.95 65.80 C 41.50 62.54 37.67 58.56 33.63 54.83 C 32.17 56.43 31.26 58.42 30.31 60.34 C 31.54 59.97 32.78 59.60 34.01 59.22 C 37.66 62.76 41.73 65.82 45.91 68.72 C 50.41 66.45 55.04 64.24 58.77 60.78 C 63.11 56.80 66.61 52.02 70.40 47.53 C 73.01 48.47 75.64 49.41 78.27 50.30 C 76.56 47.98 74.80 45.69 73.06 43.39 C 74.56 43.20 76.05 43.01 77.55 42.84 C 78.64 43.23 79.72 43.63 80.81 44.03 C 79.19 44.03 77.57 44.07 75.95 44.10 C 78.21 47.16 80.55 50.15 82.88 53.15 C 78.89 51.96 74.92 50.71 70.97 49.40 C 70.11 51.90 69.25 54.40 68.39 56.89 C 67.82 56.11 67.26 55.32 66.69 54.53 C 59.97 61.67 53.03 68.65 47.71 76.95 C 43.76 71.20 39.36 65.73 34.03 61.19 C 32.46 61.84 30.88 62.49 29.30 63.13 C 29.72 60.12 30.15 57.12 30.59 54.11 C 26.63 52.75 23.07 50.50 19.70 48.07 C 21.19 47.42 22.67 46.79 24.16 46.15 C 20.59 37.70 14.13 31.04 9.50 23.22 C 14.69 23.05 19.88 23.34 25.07 23.30 C 30.59 23.32 35.39 20.04 40.81 19.51 M 39.67 26.50 C 37.48 30.95 33.11 33.31 28.39 34.15 C 28.68 39.41 29.99 44.56 32.54 49.18 C 34.44 48.34 36.26 47.20 38.33 46.82 C 40.42 46.73 42.48 47.26 44.57 47.18 C 48.29 44.86 50.17 40.29 54.31 38.53 C 57.48 37.07 60.76 35.87 64.02 34.63 C 61.66 33.83 59.20 33.24 57.04 31.98 C 55.01 30.64 53.85 28.42 52.47 26.50 C 48.21 26.27 43.93 26.25 39.67 26.50 M 73.69 33.97 C 78.98 34.39 83.86 32.21 87.50 28.45 C 82.71 29.76 78.04 31.55 73.69 33.97 M 59.40 39.43 C 62.19 39.70 65.03 40.41 67.83 39.94 C 69.98 39.24 69.44 36.73 69.60 35.00 C 66.10 36.24 62.73 37.78 59.40 39.43 M 54.59 43.73 C 51.40 44.92 49.66 48.11 47.63 50.63 C 43.46 49.80 39.19 50.25 35.87 53.11 C 38.81 56.87 42.34 60.11 46.18 62.93 C 50.58 60.61 55.00 58.08 58.28 54.25 C 61.52 50.85 63.39 46.47 65.07 42.15 C 61.58 42.65 58.02 42.84 54.59 43.73 Z" />
<path fill="#ffffff" opacity="1.00" d=" M 35.27 21.69 C 42.51 20.85 49.86 20.80 57.05 22.11 C 58.36 24.79 59.37 28.99 63.12 28.85 C 68.28 28.05 72.59 24.63 77.54 23.09 L 78.18 22.85 C 75.93 25.05 73.75 27.32 71.57 29.59 C 74.55 28.93 77.51 28.23 80.48 27.58 C 77.26 29.41 74.08 31.35 70.60 32.67 C 67.59 34.00 64.38 32.45 61.55 31.39 C 57.91 29.95 55.99 26.22 52.74 24.26 C 48.39 23.22 43.68 23.09 39.33 24.22 C 36.63 25.75 35.09 28.73 32.33 30.19 C 30.23 31.08 27.95 31.39 25.75 31.88 C 25.77 38.96 28.12 45.65 30.59 52.19 C 28.01 51.07 25.41 50.01 22.75 49.08 C 23.51 48.69 25.04 47.90 25.80 47.51 C 23.84 41.67 23.19 35.52 23.10 29.39 C 26.16 28.84 29.40 28.76 32.21 27.32 C 33.88 25.92 34.31 23.58 35.27 21.69 Z" />
<path fill="#a04d88" opacity="1.00" d=" M 80.72 21.72 C 83.85 21.72 86.99 21.63 90.11 21.36 C 89.28 22.89 88.44 24.42 87.62 25.95 C 90.24 26.13 92.87 26.30 95.50 26.50 C 91.11 29.89 86.61 33.12 82.16 36.42 C 85.31 38.63 88.82 40.20 92.48 41.36 C 88.96 42.63 85.37 44.10 81.56 44.04 L 80.81 44.03 C 79.72 43.63 78.64 43.23 77.55 42.84 C 79.11 42.33 80.64 41.75 82.20 41.24 L 83.00 41.05 C 81.54 39.20 80.11 37.33 78.68 35.46 C 83.40 33.22 87.89 30.49 92.03 27.29 C 89.29 27.40 86.55 27.53 83.81 27.65 C 84.44 26.44 85.07 25.23 85.70 24.02 L 84.91 23.69 C 83.51 23.04 82.11 22.38 80.72 21.72 Z" />
<path fill="#ffffff" opacity="1.00" d=" M 39.67 26.50 C 43.93 26.25 48.21 26.27 52.47 26.50 C 53.85 28.42 55.01 30.64 57.04 31.98 C 59.20 33.24 61.66 33.83 64.02 34.63 C 60.76 35.87 57.48 37.07 54.31 38.53 C 50.17 40.29 48.29 44.86 44.57 47.18 C 42.48 47.26 40.42 46.73 38.33 46.82 C 36.26 47.20 34.44 48.34 32.54 49.18 C 29.99 44.56 28.68 39.41 28.39 34.15 C 33.11 33.31 37.48 30.95 39.67 26.50 Z" />
<path fill="#ffffff" opacity="1.00" d=" M 73.69 33.97 C 78.04 31.55 82.71 29.76 87.50 28.45 C 83.86 32.21 78.98 34.39 73.69 33.97 Z" />
<path fill="#ffffff" opacity="1.00" d=" M 59.40 39.43 C 62.73 37.78 66.10 36.24 69.60 35.00 C 69.44 36.73 69.98 39.24 67.83 39.94 C 65.03 40.41 62.19 39.70 59.40 39.43 Z" />
<path fill="#ffffff" opacity="1.00" d=" M 72.02 38.08 C 74.34 37.10 76.97 37.43 79.43 37.19 C 77.64 38.58 75.79 39.90 73.96 41.25 C 76.71 41.26 79.45 41.30 82.20 41.24 C 80.64 41.75 79.11 42.33 77.55 42.84 C 76.05 43.01 74.56 43.20 73.06 43.39 C 74.80 45.69 76.56 47.98 78.27 50.30 C 75.64 49.41 73.01 48.47 70.40 47.53 C 66.61 52.02 63.11 56.80 58.77 60.78 C 55.04 64.24 50.41 66.45 45.91 68.72 C 41.73 65.82 37.66 62.76 34.01 59.22 C 32.78 59.60 31.54 59.97 30.31 60.34 C 31.26 58.42 32.17 56.43 33.63 54.83 C 37.67 58.56 41.50 62.54 45.95 65.80 C 51.64 62.87 57.46 59.62 61.30 54.32 C 65.39 49.25 66.70 42.19 72.02 38.08 Z" />
<path fill="#ffffff" opacity="1.00" d=" M 54.59 43.73 C 58.02 42.84 61.58 42.65 65.07 42.15 C 63.39 46.47 61.52 50.85 58.28 54.25 C 55.00 58.08 50.58 60.61 46.18 62.93 C 42.34 60.11 38.81 56.87 35.87 53.11 C 39.19 50.25 43.46 49.80 47.63 50.63 C 49.66 48.11 51.40 44.92 54.59 43.73 Z" />
</svg>
