<?xml version="1.0" encoding="UTF-8" ?>
<!DOCTYPE svg PUBLIC "-//W3C//DTD SVG 1.1//EN" "http://www.w3.org/Graphics/SVG/1.1/DTD/svg11.dtd">
<svg width="100pt" height="100pt" viewBox="0 0 100 100" version="1.1" xmlns="http://www.w3.org/2000/svg">
<path fill="#ffffff" opacity="1.00" d=" M 42.38 12.60 C 50.89 11.13 59.96 12.25 67.55 16.53 C 82.23 24.32 90.61 42.79 85.89 58.87 C 83.09 70.06 74.82 79.69 64.16 84.11 C 50.90 89.81 34.42 87.05 23.93 77.06 C 17.10 70.84 13.03 61.99 11.92 52.89 C 10.03 34.32 23.89 15.72 42.38 12.60 M 28.15 22.68 C 31.14 25.88 34.20 29.02 37.24 32.18 C 38.24 27.67 39.12 23.12 40.39 18.67 C 40.66 24.85 40.49 31.03 40.55 37.21 C 43.60 36.18 46.69 34.85 49.98 34.99 C 52.93 35.11 55.69 36.28 58.45 37.21 C 58.51 31.03 58.33 24.85 58.61 18.67 C 59.88 23.12 60.76 27.67 61.76 32.19 C 64.80 29.02 67.86 25.88 70.85 22.67 C 64.80 18.27 57.58 15.24 50.00 15.31 C 42.09 15.02 34.45 18.05 28.15 22.68 M 15.33 48.00 C 14.77 57.25 18.49 66.32 24.65 73.12 C 27.65 69.76 30.63 66.38 33.53 62.93 C 29.17 62.08 24.89 60.88 20.62 59.70 C 26.47 59.45 32.32 59.58 38.17 59.55 C 36.63 56.22 34.75 52.80 34.93 49.01 C 35.08 45.58 36.77 42.50 38.17 39.45 C 32.32 39.42 26.47 39.55 20.62 39.29 C 24.92 38.23 29.14 36.84 33.52 36.10 C 30.65 32.62 27.65 29.24 24.64 25.87 C 19.21 31.97 15.53 39.75 15.33 48.00 M 74.35 25.88 C 71.35 29.24 68.36 32.62 65.47 36.07 C 69.82 36.91 74.10 38.12 78.38 39.30 C 72.53 39.54 66.68 39.42 60.83 39.45 C 62.23 42.50 63.92 45.58 64.07 49.01 C 64.25 52.80 62.37 56.22 60.83 59.54 C 66.68 59.58 72.53 59.46 78.37 59.70 C 74.10 60.88 69.82 62.09 65.47 62.93 C 68.36 66.38 71.35 69.76 74.35 73.13 C 79.78 67.03 83.47 59.25 83.67 51.00 C 84.23 41.75 80.52 32.68 74.35 25.88 M 45.36 38.22 C 39.31 40.30 35.78 47.66 38.21 53.64 C 40.30 59.67 47.67 63.21 53.64 60.78 C 59.69 58.70 63.21 51.34 60.79 45.36 C 58.70 39.33 51.33 35.79 45.36 38.22 M 40.55 61.79 C 40.49 67.97 40.66 74.15 40.39 80.33 C 39.12 75.88 38.24 71.34 37.24 66.83 C 34.20 69.98 31.14 73.12 28.15 76.33 C 34.45 80.95 42.09 83.98 50.00 83.69 C 57.58 83.76 64.80 80.73 70.85 76.32 C 67.85 73.12 64.80 69.97 61.76 66.82 C 60.76 71.33 59.88 75.88 58.61 80.33 C 58.34 74.15 58.51 67.97 58.45 61.79 C 55.40 62.82 52.31 64.15 49.02 64.01 C 46.07 63.89 43.31 62.72 40.55 61.79 Z" />
<path fill="#482b46" opacity="1.00" d=" M 28.15 22.68 C 34.45 18.05 42.09 15.02 50.00 15.31 C 57.58 15.24 64.80 18.27 70.85 22.67 C 67.86 25.88 64.80 29.02 61.76 32.19 C 60.76 27.67 59.88 23.12 58.61 18.67 C 58.33 24.85 58.51 31.03 58.45 37.21 C 55.69 36.28 52.93 35.11 49.98 34.99 C 46.69 34.85 43.60 36.18 40.55 37.21 C 40.49 31.03 40.66 24.85 40.39 18.67 C 39.12 23.12 38.24 27.67 37.24 32.18 C 34.20 29.02 31.14 25.88 28.15 22.68 Z" />
<path fill="#482b46" opacity="1.00" d=" M 15.33 48.00 C 15.53 39.75 19.21 31.97 24.64 25.87 C 27.65 29.24 30.65 32.62 33.52 36.10 C 29.14 36.84 24.92 38.23 20.62 39.29 C 26.47 39.55 32.32 39.42 38.17 39.45 C 36.77 42.50 35.08 45.58 34.93 49.01 C 34.75 52.80 36.63 56.22 38.17 59.55 C 32.32 59.58 26.47 59.45 20.62 59.70 C 24.89 60.88 29.17 62.08 33.53 62.93 C 30.63 66.38 27.65 69.76 24.65 73.12 C 18.49 66.32 14.77 57.25 15.33 48.00 Z" />
<path fill="#482b46" opacity="1.00" d=" M 74.35 25.88 C 80.52 32.68 84.23 41.75 83.67 51.00 C 83.47 59.25 79.78 67.03 74.35 73.13 C 71.35 69.76 68.36 66.38 65.47 62.93 C 69.82 62.09 74.10 60.88 78.37 59.70 C 72.53 59.46 66.68 59.58 60.83 59.54 C 62.37 56.22 64.25 52.80 64.07 49.01 C 63.92 45.58 62.23 42.50 60.83 39.45 C 66.68 39.42 72.53 39.54 78.38 39.30 C 74.10 38.12 69.82 36.91 65.47 36.07 C 68.36 32.62 71.35 29.24 74.35 25.88 Z" />
<path fill="#41223f" opacity="1.00" d=" M 45.36 38.22 C 51.33 35.79 58.70 39.33 60.79 45.36 C 63.21 51.34 59.69 58.70 53.64 60.78 C 47.67 63.21 40.30 59.67 38.21 53.64 C 35.78 47.66 39.31 40.30 45.36 38.22 M 46.37 40.25 C 43.24 41.28 40.81 44.03 40.03 47.21 C 38.45 52.88 43.14 59.16 49.02 59.26 C 54.92 59.74 60.17 53.91 59.15 48.10 C 58.45 42.28 51.89 38.15 46.37 40.25 Z" />
<path fill="#ffffff" opacity="1.00" d=" M 46.37 40.25 C 51.89 38.15 58.45 42.28 59.15 48.10 C 60.17 53.91 54.92 59.74 49.02 59.26 C 43.14 59.16 38.45 52.88 40.03 47.21 C 40.81 44.03 43.24 41.28 46.37 40.25 M 48.33 46.14 C 46.34 46.88 45.11 49.55 46.52 51.36 C 47.77 53.60 51.23 53.59 52.49 51.37 C 54.47 48.80 51.24 44.91 48.33 46.14 Z" />
<path fill="#482b46" opacity="1.00" d=" M 48.33 46.14 C 51.24 44.91 54.47 48.80 52.49 51.37 C 51.23 53.59 47.77 53.60 46.52 51.36 C 45.11 49.55 46.34 46.88 48.33 46.14 Z" />
<path fill="#482b46" opacity="1.00" d=" M 40.55 61.79 C 43.31 62.72 46.07 63.89 49.02 64.01 C 52.31 64.15 55.40 62.82 58.45 61.79 C 58.51 67.97 58.34 74.15 58.61 80.33 C 59.88 75.88 60.76 71.33 61.76 66.82 C 64.80 69.97 67.85 73.12 70.85 76.32 C 64.80 80.73 57.58 83.76 50.00 83.69 C 42.09 83.98 34.45 80.95 28.15 76.33 C 31.14 73.12 34.20 69.98 37.24 66.83 C 38.24 71.34 39.12 75.88 40.39 80.33 C 40.66 74.15 40.49 67.97 40.55 61.79 Z" />
</svg>
