<?xml version="1.0" encoding="UTF-8" ?>
<!DOCTYPE svg PUBLIC "-//W3C//DTD SVG 1.1//EN" "http://www.w3.org/Graphics/SVG/1.1/DTD/svg11.dtd">
<svg width="100pt" height="100pt" viewBox="0 0 100 100" version="1.1" xmlns="http://www.w3.org/2000/svg">
<path fill="#bab9b9" opacity="1.00" d=" M 44.45 12.67 C 53.00 11.39 61.96 13.12 69.35 17.62 C 77.59 22.53 83.72 30.72 86.24 39.97 C 92.10 58.51 79.90 80.06 61.40 85.46 C 45.92 91.10 27.46 84.00 18.67 70.33 C 12.81 61.20 10.33 49.44 14.06 39.02 C 18.04 25.36 30.34 14.63 44.45 12.67 M 42.38 16.45 C 27.55 19.66 16.00 33.79 15.85 48.98 C 15.42 61.92 23.18 74.54 34.74 80.28 C 45.68 85.94 59.65 84.90 69.63 77.67 C 79.43 70.93 85.12 58.80 84.07 46.95 C 83.17 35.16 75.60 24.20 64.98 19.04 C 58.03 15.62 49.92 14.74 42.38 16.45 Z" />
<path fill="#277373" opacity="1.00" d=" M 42.38 16.45 C 49.92 14.74 58.03 15.62 64.98 19.04 C 75.60 24.20 83.17 35.16 84.07 46.95 C 85.12 58.80 79.43 70.93 69.63 77.67 C 59.65 84.90 45.68 85.94 34.74 80.28 C 23.18 74.54 15.42 61.92 15.85 48.98 C 16.00 33.79 27.55 19.66 42.38 16.45 M 31.33 48.11 C 37.46 56.64 43.40 65.31 49.89 73.57 C 56.15 65.17 62.36 56.71 68.22 48.03 C 62.28 39.44 56.15 30.97 49.90 22.59 C 43.39 30.85 37.43 39.54 31.33 48.11 M 27.64 26.57 C 27.25 31.91 31.69 35.83 34.08 40.19 C 34.85 39.13 35.61 38.07 36.37 37.01 C 33.83 33.25 31.14 29.52 27.64 26.57 M 63.60 37.16 C 64.36 38.28 65.12 39.40 65.89 40.52 C 68.14 37.18 70.49 33.89 72.23 30.24 C 72.92 29.14 72.46 27.86 72.32 26.69 C 68.97 29.78 66.30 33.50 63.60 37.16 M 18.91 41.93 C 18.33 47.22 22.91 50.41 25.94 53.99 C 24.10 56.11 22.26 58.23 20.42 60.36 C 20.90 61.56 21.39 62.77 21.88 63.97 C 24.33 61.89 26.76 59.78 29.19 57.68 C 31.39 59.94 34.37 61.85 35.45 64.92 C 33.99 68.31 31.79 71.33 30.13 74.63 C 31.01 75.04 31.88 75.45 32.76 75.86 C 35.48 72.73 38.03 69.46 40.35 66.02 C 34.29 57.14 28.21 47.78 18.91 41.93 M 59.59 65.82 C 62.08 69.24 64.68 72.57 67.41 75.79 C 68.27 75.25 69.13 74.71 69.99 74.18 C 68.20 71.04 66.38 67.92 64.50 64.84 C 66.33 62.18 68.43 59.72 70.77 57.49 C 73.21 59.55 75.66 61.60 78.17 63.58 C 78.69 62.46 79.20 61.34 79.70 60.22 C 77.84 58.06 75.96 55.92 74.07 53.78 C 76.60 49.87 82.16 46.75 80.53 41.39 C 71.82 47.88 65.36 56.75 59.59 65.82 M 57.33 70.06 C 54.89 72.85 52.42 75.63 49.91 78.36 C 47.26 75.73 44.64 73.07 42.00 70.43 C 39.68 72.59 37.46 74.87 35.38 77.26 C 43.16 83.48 54.71 83.22 63.32 78.86 C 61.63 75.73 59.60 72.80 57.33 70.06 Z" />
<path fill="#ffffff" opacity="1.00" d=" M 31.33 48.11 C 37.43 39.54 43.39 30.85 49.90 22.59 C 56.15 30.97 62.28 39.44 68.22 48.03 C 62.36 56.71 56.15 65.17 49.89 73.57 C 43.40 65.31 37.46 56.64 31.33 48.11 M 49.98 28.85 C 49.70 36.65 49.70 44.47 49.95 52.27 C 54.57 51.00 59.14 49.48 63.44 47.34 C 59.06 41.11 54.73 34.82 49.98 28.85 M 38.01 51.07 C 41.69 56.76 45.61 62.29 49.88 67.54 C 53.96 62.26 57.95 56.90 61.49 51.24 C 57.64 52.37 53.98 54.22 49.98 54.80 C 45.79 54.37 41.99 52.31 38.01 51.07 Z" />
<path fill="#ffffff" opacity="1.00" d=" M 27.64 26.57 C 31.14 29.52 33.83 33.25 36.37 37.01 C 35.61 38.07 34.85 39.13 34.08 40.19 C 31.69 35.83 27.25 31.91 27.64 26.57 Z" />
<path fill="#ffffff" opacity="1.00" d=" M 63.60 37.16 C 66.30 33.50 68.97 29.78 72.32 26.69 C 72.46 27.86 72.92 29.14 72.23 30.24 C 70.49 33.89 68.14 37.18 65.89 40.52 C 65.12 39.40 64.36 38.28 63.60 37.16 Z" />
<path fill="#277373" opacity="1.00" d=" M 49.98 28.85 C 54.73 34.82 59.06 41.11 63.44 47.34 C 59.14 49.48 54.57 51.00 49.95 52.27 C 49.70 44.47 49.70 36.65 49.98 28.85 Z" />
<path fill="#ffffff" opacity="1.00" d=" M 18.91 41.93 C 28.21 47.78 34.29 57.14 40.35 66.02 C 38.03 69.46 35.48 72.73 32.76 75.86 C 31.88 75.45 31.01 75.04 30.13 74.63 C 31.79 71.33 33.99 68.31 35.45 64.92 C 34.37 61.85 31.39 59.94 29.19 57.68 C 26.76 59.78 24.33 61.89 21.88 63.97 C 21.39 62.77 20.90 61.56 20.42 60.36 C 22.26 58.23 24.10 56.11 25.94 53.99 C 22.91 50.41 18.33 47.22 18.91 41.93 Z" />
<path fill="#ffffff" opacity="1.00" d=" M 59.59 65.82 C 65.36 56.75 71.82 47.88 80.53 41.39 C 82.16 46.75 76.60 49.87 74.07 53.78 C 75.96 55.92 77.84 58.06 79.70 60.22 C 79.20 61.34 78.69 62.46 78.17 63.58 C 75.66 61.60 73.21 59.55 70.77 57.49 C 68.43 59.72 66.33 62.18 64.50 64.84 C 66.38 67.92 68.20 71.04 69.99 74.18 C 69.13 74.71 68.27 75.25 67.41 75.79 C 64.68 72.57 62.08 69.24 59.59 65.82 Z" />
<path fill="#277373" opacity="1.00" d=" M 38.01 51.07 C 41.99 52.31 45.79 54.37 49.98 54.80 C 53.98 54.22 57.64 52.37 61.49 51.24 C 57.95 56.90 53.96 62.26 49.88 67.54 C 45.61 62.29 41.69 56.76 38.01 51.07 Z" />
<path fill="#ffffff" opacity="1.00" d=" M 57.33 70.06 C 59.60 72.80 61.63 75.73 63.32 78.86 C 54.71 83.22 43.16 83.48 35.38 77.26 C 37.46 74.87 39.68 72.59 42.00 70.43 C 44.64 73.07 47.26 75.73 49.91 78.36 C 52.42 75.63 54.89 72.85 57.33 70.06 Z" />
</svg>
