<?xml version="1.0" encoding="UTF-8" ?>
<!DOCTYPE svg PUBLIC "-//W3C//DTD SVG 1.1//EN" "http://www.w3.org/Graphics/SVG/1.1/DTD/svg11.dtd">
<svg width="100pt" height="100pt" viewBox="0 0 100 100" version="1.1" xmlns="http://www.w3.org/2000/svg">
<path fill="#b8b7b7" opacity="1.00" d=" M 60.07 19.82 C 64.50 19.97 67.96 16.76 72.07 15.65 C 75.96 16.30 79.10 19.25 83.06 19.71 C 86.33 19.99 89.62 19.82 92.89 19.80 C 91.86 21.58 90.53 23.25 89.95 25.24 C 89.87 27.45 91.07 29.82 89.90 31.88 C 88.48 34.40 86.74 36.73 84.94 38.99 C 82.12 42.62 76.92 43.46 74.62 47.60 C 66.77 59.56 58.84 71.47 50.99 83.44 C 44.62 73.67 38.11 63.99 31.78 54.20 C 30.72 52.64 29.71 50.99 28.29 49.72 C 25.16 47.65 20.94 48.37 17.90 46.16 C 14.69 43.06 12.72 38.85 11.48 34.61 C 10.65 31.80 12.35 29.22 13.65 26.88 C 12.13 24.58 10.62 22.26 9.18 19.91 C 26.14 19.67 43.11 19.88 60.07 19.82 M 58.07 23.43 C 43.76 23.46 29.45 23.43 15.14 23.30 C 15.85 24.72 16.56 26.14 17.27 27.56 C 16.07 29.03 14.77 30.46 13.88 32.16 C 14.12 36.48 16.18 40.77 19.19 43.86 C 22.77 46.14 27.55 45.48 31.02 48.01 C 33.46 50.30 35.09 53.27 36.97 56.01 C 41.59 62.90 46.14 69.85 51.00 76.58 C 58.40 66.05 65.29 55.18 72.47 44.50 C 74.84 40.85 79.83 40.79 82.73 37.75 C 84.85 35.45 86.81 32.87 87.88 29.91 C 87.66 26.95 85.77 24.13 83.04 22.91 C 79.53 21.20 76.03 19.12 72.13 18.53 C 67.25 19.61 63.28 23.55 58.07 23.43 Z" />
<path fill="#941271" opacity="1.00" d=" M 58.07 23.43 C 63.28 23.55 67.25 19.61 72.13 18.53 C 76.03 19.12 79.53 21.20 83.04 22.91 C 85.77 24.13 87.66 26.95 87.88 29.91 C 86.81 32.87 84.85 35.45 82.73 37.75 C 79.83 40.79 74.84 40.85 72.47 44.50 C 65.29 55.18 58.40 66.05 51.00 76.58 C 46.14 69.85 41.59 62.90 36.97 56.01 C 35.09 53.27 33.46 50.30 31.02 48.01 C 27.55 45.48 22.77 46.14 19.19 43.86 C 16.18 40.77 14.12 36.48 13.88 32.16 C 14.77 30.46 16.07 29.03 17.27 27.56 C 16.56 26.14 15.85 24.72 15.14 23.30 C 29.45 23.43 43.76 23.46 58.07 23.43 M 62.41 29.69 C 64.14 29.18 65.86 28.66 67.61 28.18 C 64.09 31.23 60.18 33.80 56.12 36.06 C 53.79 37.30 50.78 38.05 48.36 36.58 C 42.54 33.29 36.59 29.78 29.88 28.74 C 24.75 28.86 18.44 28.80 15.44 33.80 C 17.99 33.01 20.47 32.02 22.95 31.02 C 21.59 32.35 20.17 33.62 18.93 35.07 C 17.47 36.38 18.52 38.40 18.59 40.05 C 20.22 37.82 21.92 35.62 23.86 33.65 C 22.85 36.50 21.59 39.24 20.30 41.97 C 21.18 42.42 22.07 42.87 22.95 43.32 C 23.01 40.49 24.07 37.88 26.62 36.43 C 26.72 38.62 26.74 40.81 26.71 43.00 C 27.73 43.70 28.75 44.40 29.78 45.10 C 29.47 43.37 29.14 41.64 28.82 39.91 C 30.67 38.94 32.54 37.99 34.42 37.06 C 36.03 39.46 36.70 42.26 36.72 45.12 C 37.45 43.95 38.16 42.78 38.89 41.62 C 42.71 45.76 42.03 51.50 42.36 56.68 C 43.09 52.91 43.31 49.08 43.85 45.29 C 47.70 51.61 43.05 59.67 47.24 65.83 C 48.04 60.16 47.75 54.41 47.77 48.70 C 48.50 48.94 49.94 49.44 50.66 49.69 C 50.98 51.03 51.28 52.38 51.59 53.73 C 53.63 49.55 56.98 46.20 61.65 45.17 C 61.90 47.34 62.12 49.51 62.40 51.67 C 62.93 49.28 63.35 46.87 63.77 44.45 C 64.62 44.56 65.47 44.66 66.31 44.77 C 67.66 43.00 68.76 40.77 70.96 39.94 C 73.85 38.58 77.24 38.61 79.98 36.97 C 82.38 34.74 83.98 31.82 85.86 29.18 C 81.88 25.62 77.42 21.99 72.00 21.14 C 67.27 21.69 64.04 25.50 62.41 29.69 M 54.07 58.39 C 52.43 58.42 52.09 61.37 53.85 61.48 C 55.48 61.44 55.84 58.49 54.07 58.39 Z" />
<path fill="#ffffff" opacity="1.00" d=" M 62.41 29.69 C 64.04 25.50 67.27 21.69 72.00 21.14 C 77.42 21.99 81.88 25.62 85.86 29.18 C 83.98 31.82 82.38 34.74 79.98 36.97 C 77.24 38.61 73.85 38.58 70.96 39.94 C 68.76 40.77 67.66 43.00 66.31 44.77 C 65.47 44.66 64.62 44.56 63.77 44.45 C 63.35 46.87 62.93 49.28 62.40 51.67 C 62.12 49.51 61.90 47.34 61.65 45.17 C 56.98 46.20 53.63 49.55 51.59 53.73 C 51.28 52.38 50.98 51.03 50.66 49.69 C 49.94 49.44 48.50 48.94 47.77 48.70 C 47.75 54.41 48.04 60.16 47.24 65.83 C 43.05 59.67 47.70 51.61 43.85 45.29 C 43.31 49.08 43.09 52.91 42.36 56.68 C 42.03 51.50 42.71 45.76 38.89 41.62 C 38.16 42.78 37.45 43.95 36.72 45.12 C 36.70 42.26 36.03 39.46 34.42 37.06 C 32.54 37.99 30.67 38.94 28.82 39.91 C 29.14 41.64 29.47 43.37 29.78 45.10 C 28.75 44.40 27.73 43.70 26.71 43.00 C 26.74 40.81 26.72 38.62 26.62 36.43 C 24.07 37.88 23.01 40.49 22.95 43.32 C 22.07 42.87 21.18 42.42 20.30 41.97 C 21.59 39.24 22.85 36.50 23.86 33.65 C 21.92 35.62 20.22 37.82 18.59 40.05 C 18.52 38.40 17.47 36.38 18.93 35.07 C 20.17 33.62 21.59 32.35 22.95 31.02 C 20.47 32.02 17.99 33.01 15.44 33.80 C 18.44 28.80 24.75 28.86 29.88 28.74 C 36.59 29.78 42.54 33.29 48.36 36.58 C 50.78 38.05 53.79 37.30 56.12 36.06 C 60.18 33.80 64.09 31.23 67.61 28.18 C 65.86 28.66 64.14 29.18 62.41 29.69 M 35.21 32.41 C 37.36 33.83 39.84 34.62 42.39 34.91 C 40.13 33.73 37.70 32.91 35.21 32.41 M 64.07 34.31 C 62.64 33.73 61.30 36.15 62.97 36.69 C 64.39 37.26 65.74 34.84 64.07 34.31 M 34.39 36.18 C 36.95 37.17 39.55 38.04 42.16 38.88 C 40.68 39.00 39.21 39.12 37.74 39.25 C 41.24 42.37 44.93 45.28 48.67 48.12 C 49.05 46.81 49.45 45.51 49.84 44.20 C 47.99 42.88 46.13 41.57 44.26 40.28 C 44.80 40.01 45.88 39.49 46.41 39.22 C 42.92 36.67 38.74 35.30 34.39 36.18 M 54.60 39.95 C 57.08 39.12 59.41 37.86 61.36 36.11 C 58.88 36.95 56.55 38.19 54.60 39.95 M 64.33 37.04 C 62.55 37.81 64.20 40.05 65.58 38.88 C 67.36 38.11 65.72 35.88 64.33 37.04 M 59.25 40.09 C 59.36 43.43 62.24 38.56 59.25 40.09 M 64.19 40.05 C 63.03 40.00 61.35 41.89 62.91 42.56 C 64.64 43.39 66.84 39.91 64.19 40.05 M 60.10 42.15 C 58.77 42.82 58.76 43.49 60.05 44.17 C 61.38 43.50 61.40 42.83 60.10 42.15 M 56.31 44.10 C 55.81 45.49 56.28 45.98 57.69 45.56 C 58.19 44.17 57.73 43.68 56.31 44.10 Z" />
<path fill="#941271" opacity="1.00" d=" M 35.21 32.41 C 37.70 32.91 40.13 33.73 42.39 34.91 C 39.84 34.62 37.36 33.83 35.21 32.41 Z" />
<path fill="#941271" opacity="1.00" d=" M 64.07 34.31 C 65.74 34.84 64.39 37.26 62.97 36.69 C 61.30 36.15 62.64 33.73 64.07 34.31 Z" />
<path fill="#e1c0d7" opacity="1.00" d=" M 34.39 36.18 C 38.74 35.30 42.92 36.67 46.41 39.22 C 45.88 39.49 44.80 40.01 44.26 40.28 C 46.13 41.57 47.99 42.88 49.84 44.20 C 49.45 45.51 49.05 46.81 48.67 48.12 C 44.93 45.28 41.24 42.37 37.74 39.25 C 39.21 39.12 40.68 39.00 42.16 38.88 C 39.55 38.04 36.95 37.17 34.39 36.18 Z" />
<path fill="#941271" opacity="1.00" d=" M 54.60 39.95 C 56.55 38.19 58.88 36.95 61.36 36.11 C 59.41 37.86 57.08 39.12 54.60 39.95 Z" />
<path fill="#941271" opacity="1.00" d=" M 64.33 37.04 C 65.72 35.88 67.36 38.11 65.58 38.88 C 64.20 40.05 62.55 37.81 64.33 37.04 Z" />
<path fill="#ae5593" opacity="1.00" d=" M 59.25 40.09 C 62.24 38.56 59.36 43.43 59.25 40.09 Z" />
<path fill="#941271" opacity="1.00" d=" M 64.19 40.05 C 66.84 39.91 64.64 43.39 62.91 42.56 C 61.35 41.89 63.03 40.00 64.19 40.05 Z" />
<path fill="#9a2d79" opacity="1.00" d=" M 60.10 42.15 C 61.40 42.83 61.38 43.50 60.05 44.17 C 58.76 43.49 58.77 42.82 60.10 42.15 Z" />
<path fill="#b15c98" opacity="1.00" d=" M 56.31 44.10 C 57.73 43.68 58.19 44.17 57.69 45.56 C 56.28 45.98 55.81 45.49 56.31 44.10 Z" />
<path fill="#f1e1ed" opacity="1.00" d=" M 54.07 58.39 C 55.84 58.49 55.48 61.44 53.85 61.48 C 52.09 61.37 52.43 58.42 54.07 58.39 Z" />
</svg>
