<?xml version="1.0" encoding="UTF-8" ?>
<!DOCTYPE svg PUBLIC "-//W3C//DTD SVG 1.1//EN" "http://www.w3.org/Graphics/SVG/1.1/DTD/svg11.dtd">
<svg width="100pt" height="100pt" viewBox="0 0 100 100" version="1.1" xmlns="http://www.w3.org/2000/svg">
<path fill="#ffffff" opacity="1.00" d=" M 42.45 12.62 C 60.89 8.24 81.24 20.57 86.42 38.74 C 91.90 54.42 84.75 73.02 70.91 81.88 C 61.53 87.92 49.46 90.22 38.79 86.43 C 20.07 81.15 7.61 59.76 12.96 40.96 C 16.22 26.83 28.23 15.36 42.45 12.62 M 45.39 15.58 C 37.43 16.59 29.92 20.57 24.51 26.49 C 13.81 37.68 12.21 56.19 20.98 68.98 C 29.29 82.22 47.06 88.22 61.69 82.70 C 77.82 77.22 88.06 58.77 83.82 42.19 C 80.21 25.24 62.60 12.85 45.39 15.58 Z" />
<path fill="#482b46" opacity="1.00" d=" M 45.39 15.58 C 62.60 12.85 80.21 25.24 83.82 42.19 C 88.06 58.77 77.82 77.22 61.69 82.70 C 47.06 88.22 29.29 82.22 20.98 68.98 C 12.21 56.19 13.81 37.68 24.51 26.49 C 29.92 20.57 37.43 16.59 45.39 15.58 M 49.23 17.91 C 49.36 23.89 49.51 29.86 49.54 35.83 C 50.04 35.88 51.03 35.96 51.52 36.00 C 51.97 30.37 52.51 24.75 53.08 19.14 C 51.80 18.73 50.51 18.32 49.23 17.91 M 32.82 23.93 C 34.37 26.16 35.88 28.42 37.32 30.72 C 37.94 30.63 39.18 30.46 39.80 30.37 C 38.48 27.60 37.18 24.81 35.93 22.00 C 34.90 22.65 33.86 23.28 32.82 23.93 M 60.09 29.96 C 60.90 30.23 61.70 30.51 62.51 30.79 C 63.79 28.81 65.10 26.85 66.44 24.90 C 65.61 24.13 64.79 23.36 63.95 22.60 C 62.69 25.07 61.40 27.51 60.09 29.96 M 23.33 31.67 C 22.99 32.31 22.29 33.58 21.94 34.22 C 24.41 35.14 26.87 36.07 29.38 36.89 C 27.40 35.11 25.36 33.40 23.33 31.67 M 35.99 36.99 C 36.66 40.77 38.78 44.17 41.72 46.62 C 40.11 46.52 38.35 46.00 36.91 47.01 C 37.95 52.35 40.48 57.24 41.67 62.55 C 44.40 63.46 47.10 64.65 50.00 64.88 C 52.90 64.65 55.60 63.46 58.33 62.55 C 59.52 57.26 62.04 52.37 63.07 47.05 C 61.68 45.92 59.90 46.53 58.30 46.62 C 61.28 44.05 63.88 40.39 63.83 36.33 C 62.71 35.06 61.40 33.98 60.14 32.86 C 57.30 35.70 54.27 39.01 50.00 39.34 C 45.73 39.01 42.69 35.70 39.86 32.86 C 38.55 34.20 36.68 35.20 35.99 36.99 M 71.55 38.01 C 74.34 37.53 76.88 36.17 78.42 33.73 C 75.62 34.19 73.20 35.71 71.55 38.01 M 26.19 43.17 C 29.70 44.99 33.49 46.16 37.41 46.65 C 37.48 42.55 35.83 38.80 33.18 35.74 C 30.83 38.20 28.49 40.67 26.19 43.17 M 62.58 46.65 C 66.50 46.16 70.30 45.00 73.81 43.17 C 71.51 40.67 69.17 38.20 66.82 35.74 C 64.17 38.80 62.52 42.54 62.58 46.65 M 20.16 47.23 C 19.67 48.36 19.18 49.49 18.69 50.63 C 23.96 50.51 29.25 50.34 34.46 49.42 C 29.87 47.83 24.99 47.47 20.16 47.23 M 64.59 49.43 C 69.48 51.09 74.65 51.58 79.78 51.91 C 79.66 51.31 79.44 50.09 79.33 49.49 C 74.42 49.34 69.49 48.95 64.59 49.43 M 22.64 63.78 C 23.42 64.39 24.19 65.02 25.02 65.58 C 29.64 63.13 33.90 59.95 37.65 56.29 C 32.48 58.44 27.59 61.19 22.64 63.78 M 62.74 55.76 C 66.42 59.22 70.82 61.76 75.15 64.31 C 75.76 63.55 76.37 62.80 76.99 62.04 C 72.28 59.85 67.75 57.20 62.74 55.76 M 39.07 63.97 C 44.42 70.40 55.58 70.40 60.93 63.97 C 58.15 64.37 55.43 65.03 52.68 65.50 C 48.07 66.36 43.60 64.49 39.07 63.97 M 61.67 66.57 C 62.84 70.22 65.34 73.19 68.46 75.35 C 69.17 70.98 64.41 68.97 61.67 66.57 M 32.78 74.69 C 33.82 75.50 34.87 76.31 35.91 77.12 C 37.38 74.13 38.81 71.11 39.76 67.90 C 37.09 69.79 34.78 72.11 32.78 74.69 M 48.60 81.32 C 49.32 81.31 50.74 81.27 51.45 81.25 C 51.28 77.89 51.00 74.53 50.54 71.20 C 48.47 74.18 48.82 77.89 48.60 81.32 Z" />
<path fill="#ffffff" opacity="1.00" d=" M 49.23 17.91 C 50.51 18.32 51.80 18.73 53.08 19.14 C 52.51 24.75 51.97 30.37 51.52 36.00 C 51.03 35.96 50.04 35.88 49.54 35.83 C 49.51 29.86 49.36 23.89 49.23 17.91 Z" />
<path fill="#ffffff" opacity="1.00" d=" M 32.82 23.93 C 33.86 23.28 34.90 22.65 35.93 22.00 C 37.18 24.81 38.48 27.60 39.80 30.37 C 39.18 30.46 37.94 30.63 37.32 30.72 C 35.88 28.42 34.37 26.16 32.82 23.93 Z" />
<path fill="#ffffff" opacity="1.00" d=" M 60.09 29.96 C 61.40 27.51 62.69 25.07 63.95 22.60 C 64.79 23.36 65.61 24.13 66.44 24.90 C 65.10 26.85 63.79 28.81 62.51 30.79 C 61.70 30.51 60.90 30.23 60.09 29.96 Z" />
<path fill="#ffffff" opacity="1.00" d=" M 23.33 31.67 C 25.36 33.40 27.40 35.11 29.38 36.89 C 26.87 36.07 24.41 35.14 21.94 34.22 C 22.29 33.58 22.99 32.31 23.33 31.67 Z" />
<path fill="#ffffff" opacity="1.00" d=" M 35.99 36.99 C 36.68 35.20 38.55 34.20 39.86 32.86 C 42.69 35.70 45.73 39.01 50.00 39.34 C 54.27 39.01 57.30 35.70 60.14 32.86 C 61.40 33.98 62.71 35.06 63.83 36.33 C 63.88 40.39 61.28 44.05 58.30 46.62 C 59.90 46.53 61.68 45.92 63.07 47.05 C 62.04 52.37 59.52 57.26 58.33 62.55 C 55.60 63.46 52.90 64.65 50.00 64.88 C 47.10 64.65 44.40 63.46 41.67 62.55 C 40.48 57.24 37.95 52.35 36.91 47.01 C 38.35 46.00 40.11 46.52 41.72 46.62 C 38.78 44.17 36.66 40.77 35.99 36.99 Z" />
<path fill="#ffffff" opacity="1.00" d=" M 71.55 38.01 C 73.20 35.71 75.62 34.19 78.42 33.73 C 76.88 36.17 74.34 37.53 71.55 38.01 Z" />
<path fill="#ffffff" opacity="1.00" d=" M 26.19 43.17 C 28.49 40.67 30.83 38.20 33.18 35.74 C 35.83 38.80 37.48 42.55 37.41 46.65 C 33.49 46.16 29.70 44.99 26.19 43.17 Z" />
<path fill="#ffffff" opacity="1.00" d=" M 62.58 46.65 C 62.52 42.54 64.17 38.80 66.82 35.74 C 69.17 38.20 71.51 40.67 73.81 43.17 C 70.30 45.00 66.50 46.16 62.58 46.65 Z" />
<path fill="#ffffff" opacity="1.00" d=" M 20.16 47.23 C 24.99 47.47 29.87 47.83 34.46 49.42 C 29.25 50.34 23.96 50.51 18.69 50.63 C 19.18 49.49 19.67 48.36 20.16 47.23 Z" />
<path fill="#ffffff" opacity="1.00" d=" M 64.59 49.43 C 69.49 48.95 74.42 49.34 79.33 49.49 C 79.44 50.09 79.66 51.31 79.78 51.91 C 74.65 51.58 69.48 51.09 64.59 49.43 Z" />
<path fill="#ffffff" opacity="1.00" d=" M 22.64 63.78 C 27.59 61.19 32.48 58.44 37.65 56.29 C 33.90 59.95 29.64 63.13 25.02 65.58 C 24.19 65.02 23.42 64.39 22.64 63.78 Z" />
<path fill="#ffffff" opacity="1.00" d=" M 62.74 55.76 C 67.75 57.20 72.28 59.85 76.99 62.04 C 76.37 62.80 75.76 63.55 75.15 64.31 C 70.82 61.76 66.42 59.22 62.74 55.76 Z" />
<path fill="#ffffff" opacity="1.00" d=" M 39.07 63.97 C 43.60 64.49 48.07 66.36 52.68 65.50 C 55.43 65.03 58.15 64.37 60.93 63.97 C 55.58 70.40 44.42 70.40 39.07 63.97 Z" />
<path fill="#ffffff" opacity="1.00" d=" M 61.67 66.57 C 64.41 68.97 69.17 70.98 68.46 75.35 C 65.34 73.19 62.84 70.22 61.67 66.57 Z" />
<path fill="#ffffff" opacity="1.00" d=" M 32.78 74.69 C 34.78 72.11 37.09 69.79 39.76 67.90 C 38.81 71.11 37.38 74.13 35.91 77.12 C 34.87 76.31 33.82 75.50 32.78 74.69 Z" />
<path fill="#faf8fa" opacity="1.00" d=" M 48.60 81.32 C 48.82 77.89 48.47 74.18 50.54 71.20 C 51.00 74.53 51.28 77.89 51.45 81.25 C 50.74 81.27 49.32 81.31 48.60 81.32 Z" />
</svg>
