<?xml version="1.0" encoding="UTF-8" ?>
<!DOCTYPE svg PUBLIC "-//W3C//DTD SVG 1.1//EN" "http://www.w3.org/Graphics/SVG/1.1/DTD/svg11.dtd">
<svg width="100pt" height="100pt" viewBox="0 0 100 100" version="1.1" xmlns="http://www.w3.org/2000/svg">
<path fill="#bab9bb" opacity="1.00" d=" M 16.99 19.61 C 20.96 23.09 24.83 26.74 27.90 31.07 C 30.09 34.24 33.02 36.77 36.11 39.03 C 40.67 32.84 44.97 26.48 49.42 20.22 C 53.70 25.79 57.61 31.63 61.72 37.32 C 64.58 41.54 70.01 42.85 73.07 46.91 C 77.53 51.76 76.82 59.06 80.86 64.13 C 84.60 69.33 88.36 74.50 92.05 79.73 C 85.67 79.77 79.30 79.61 72.92 79.71 C 68.56 79.68 64.69 81.99 60.49 82.82 C 53.46 85.02 46.96 79.92 39.99 79.68 C 29.28 79.39 18.56 79.55 7.84 79.49 C 12.89 72.30 18.00 65.14 23.01 57.93 C 24.47 56.34 23.70 54.26 23.27 52.45 C 24.17 52.11 25.06 51.76 25.96 51.40 C 23.82 49.07 21.30 46.79 20.53 43.60 C 18.93 35.67 16.98 27.76 16.99 19.61 M 18.98 23.84 C 19.71 30.20 20.95 36.48 22.48 42.69 C 23.46 46.67 26.97 49.16 29.72 51.92 C 28.95 52.32 28.17 52.72 27.40 53.12 C 27.34 55.63 26.84 58.18 25.25 60.20 C 21.43 65.66 17.44 70.99 13.86 76.61 C 21.60 76.77 29.33 76.46 37.07 76.61 C 44.29 76.63 50.55 81.64 57.85 81.13 C 62.27 80.84 66.11 78.45 70.24 77.11 C 75.50 76.04 80.91 76.75 86.24 76.62 C 83.87 73.06 81.25 69.67 78.79 66.17 C 74.84 60.90 76.09 53.39 71.68 48.33 C 68.24 43.87 61.96 42.93 58.74 38.27 C 55.65 33.97 52.75 29.53 49.34 25.47 C 45.68 30.22 42.78 35.52 38.96 40.15 C 37.49 41.85 35.08 40.35 33.54 39.52 C 27.51 35.49 24.33 28.62 18.98 23.84 Z" />
<path fill="#26960f" opacity="1.00" d=" M 18.98 23.84 C 24.33 28.62 27.51 35.49 33.54 39.52 C 35.08 40.35 37.49 41.85 38.96 40.15 C 42.78 35.52 45.68 30.22 49.34 25.47 C 52.75 29.53 55.65 33.97 58.74 38.27 C 61.96 42.93 68.24 43.87 71.68 48.33 C 76.09 53.39 74.84 60.90 78.79 66.17 C 81.25 69.67 83.87 73.06 86.24 76.62 C 80.91 76.75 75.50 76.04 70.24 77.11 C 66.11 78.45 62.27 80.84 57.85 81.13 C 50.55 81.64 44.29 76.63 37.07 76.61 C 29.33 76.46 21.60 76.77 13.86 76.61 C 17.44 70.99 21.43 65.66 25.25 60.20 C 26.84 58.18 27.34 55.63 27.40 53.12 C 28.17 52.72 28.95 52.32 29.72 51.92 C 26.97 49.16 23.46 46.67 22.48 42.69 C 20.95 36.48 19.71 30.20 18.98 23.84 M 21.91 29.90 C 23.16 34.47 23.86 39.20 25.43 43.68 C 28.16 48.54 33.52 50.85 38.19 53.43 C 35.80 53.64 33.40 53.74 31.01 53.99 C 33.53 56.45 36.38 58.85 37.67 62.24 C 39.19 65.98 40.26 70.01 42.79 73.23 C 45.42 76.89 50.21 77.65 54.31 78.56 C 59.37 79.06 65.41 78.07 68.35 73.44 C 71.76 68.24 75.27 61.62 72.67 55.34 C 70.79 49.28 65.32 44.55 58.94 43.96 C 54.63 43.57 50.75 41.61 47.30 39.08 C 47.52 40.92 47.77 42.75 47.98 44.59 C 43.46 44.03 38.85 43.90 34.46 42.65 C 28.52 40.50 25.35 34.75 21.91 29.90 Z" />
<path fill="#ffffff" opacity="1.00" d=" M 21.91 29.90 C 25.35 34.75 28.52 40.50 34.46 42.65 C 38.85 43.90 43.46 44.03 47.98 44.59 C 47.77 42.75 47.52 40.92 47.30 39.08 C 50.75 41.61 54.63 43.57 58.94 43.96 C 65.32 44.55 70.79 49.28 72.67 55.34 C 75.27 61.62 71.76 68.24 68.35 73.44 C 65.41 78.07 59.37 79.06 54.31 78.56 C 50.21 77.65 45.42 76.89 42.79 73.23 C 40.26 70.01 39.19 65.98 37.67 62.24 C 36.38 58.85 33.53 56.45 31.01 53.99 C 33.40 53.74 35.80 53.64 38.19 53.43 C 33.52 50.85 28.16 48.54 25.43 43.68 C 23.86 39.20 23.16 34.47 21.91 29.90 M 25.42 38.63 C 25.89 43.86 29.96 47.43 34.36 49.65 C 37.63 51.13 39.70 54.08 41.40 57.11 C 39.16 56.37 36.95 55.57 34.72 54.79 C 36.40 57.30 38.34 59.69 39.35 62.57 C 41.00 66.67 42.17 71.38 45.82 74.23 C 51.38 77.28 58.49 78.36 64.34 75.47 C 67.60 73.16 69.32 69.38 70.78 65.79 C 74.37 58.64 70.00 49.08 62.65 46.38 C 58.36 45.05 53.86 44.54 49.60 43.08 C 51.93 45.22 54.30 47.31 56.54 49.54 C 50.78 46.58 44.42 45.36 38.01 44.91 C 33.07 44.67 29.39 41.10 25.42 38.63 Z" />
<path fill="#1d9203" opacity="1.00" d=" M 25.42 38.63 C 29.39 41.10 33.07 44.67 38.01 44.91 C 44.42 45.36 50.78 46.58 56.54 49.54 C 54.30 47.31 51.93 45.22 49.60 43.08 C 53.86 44.54 58.36 45.05 62.65 46.38 C 70.00 49.08 74.37 58.64 70.78 65.79 C 69.32 69.38 67.60 73.16 64.34 75.47 C 58.49 78.36 51.38 77.28 45.82 74.23 C 42.17 71.38 41.00 66.67 39.35 62.57 C 38.34 59.69 36.40 57.30 34.72 54.79 C 36.95 55.57 39.16 56.37 41.40 57.11 C 39.70 54.08 37.63 51.13 34.36 49.65 C 29.96 47.43 25.89 43.86 25.42 38.63 M 32.32 46.11 C 35.41 48.06 39.36 49.32 41.12 52.81 C 42.92 56.26 43.80 60.10 45.06 63.77 C 43.70 63.15 42.34 62.52 40.98 61.90 C 42.25 64.92 43.33 68.09 45.29 70.76 C 46.84 72.95 49.60 73.57 51.93 74.57 C 51.60 73.24 51.27 71.91 50.94 70.58 C 54.06 73.64 58.59 74.53 62.83 74.18 C 64.86 72.70 66.32 70.61 67.92 68.71 C 63.52 65.77 61.31 61.03 59.93 56.10 C 62.57 59.68 65.92 62.61 69.55 65.15 C 70.19 61.56 70.44 57.69 68.59 54.39 C 66.86 50.55 62.92 48.60 59.26 47.04 C 58.47 49.21 57.72 51.40 56.95 53.58 C 53.76 51.22 50.40 49.07 46.71 47.59 C 50.78 52.08 53.84 57.41 54.96 63.42 C 51.31 59.32 50.63 53.24 46.18 49.78 C 42.36 46.47 37.00 46.88 32.32 46.11 Z" />
<path fill="#ffffff" opacity="1.00" d=" M 32.32 46.11 C 37.00 46.88 42.36 46.47 46.18 49.78 C 50.63 53.24 51.31 59.32 54.96 63.42 C 53.84 57.41 50.78 52.08 46.71 47.59 C 50.40 49.07 53.76 51.22 56.95 53.58 C 57.72 51.40 58.47 49.21 59.26 47.04 C 62.92 48.60 66.86 50.55 68.59 54.39 C 70.44 57.69 70.19 61.56 69.55 65.15 C 65.92 62.61 62.57 59.68 59.93 56.10 C 61.31 61.03 63.52 65.77 67.92 68.71 C 66.32 70.61 64.86 72.70 62.83 74.18 C 58.59 74.53 54.06 73.64 50.94 70.58 C 51.27 71.91 51.60 73.24 51.93 74.57 C 49.60 73.57 46.84 72.95 45.29 70.76 C 43.33 68.09 42.25 64.92 40.98 61.90 C 42.34 62.52 43.70 63.15 45.06 63.77 C 43.80 60.10 42.92 56.26 41.12 52.81 C 39.36 49.32 35.41 48.06 32.32 46.11 Z" />
</svg>
