<?xml version="1.0" encoding="UTF-8" ?>
<!DOCTYPE svg PUBLIC "-//W3C//DTD SVG 1.1//EN" "http://www.w3.org/Graphics/SVG/1.1/DTD/svg11.dtd">
<svg width="100pt" height="100pt" viewBox="0 0 100 100" version="1.1" xmlns="http://www.w3.org/2000/svg">
<path fill="#b8b9ba" opacity="1.00" d=" M 44.76 12.70 C 46.51 11.55 47.86 9.92 49.35 8.47 C 52.87 12.33 56.03 16.60 60.30 19.71 C 67.81 25.24 73.43 32.84 78.27 40.71 C 80.28 44.09 82.78 47.15 85.38 50.10 C 73.29 64.01 61.32 78.02 49.21 91.91 C 37.18 77.93 25.09 64.01 13.08 50.01 C 15.62 46.98 18.68 44.29 20.60 40.80 C 20.58 38.45 20.06 36.14 19.73 33.83 C 21.51 34.58 23.28 35.36 25.05 36.14 C 27.72 33.21 30.30 30.21 32.81 27.15 C 31.79 24.82 30.93 22.41 30.05 20.02 C 32.10 21.08 34.04 22.34 36.06 23.46 C 37.72 21.41 39.92 19.63 40.87 17.11 C 40.21 15.31 39.20 13.68 38.31 11.99 C 40.45 12.29 42.59 12.71 44.76 12.70 M 49.59 13.86 C 47.16 14.98 44.49 14.95 41.92 14.43 C 42.55 16.00 43.18 17.56 43.80 19.13 C 41.92 21.45 39.98 23.73 37.99 25.95 C 36.04 24.99 34.19 23.85 32.24 22.90 C 33.17 24.97 34.17 27.01 35.11 29.08 C 32.53 32.51 29.72 35.75 26.81 38.91 C 25.40 38.28 24.01 37.58 22.60 36.93 C 22.57 39.09 22.81 41.29 22.30 43.41 C 21.16 45.93 19.20 47.94 17.54 50.10 C 22.27 56.42 27.66 62.21 32.76 68.22 C 38.36 74.37 43.42 80.99 49.20 86.98 C 57.52 78.03 65.09 68.41 73.32 59.37 C 76.05 56.41 78.64 53.32 81.06 50.10 C 78.03 43.47 73.99 37.34 69.06 31.97 C 63.31 25.16 55.86 20.13 49.59 13.86 Z" />
<path fill="#bc532e" opacity="1.00" d=" M 49.59 13.86 C 55.86 20.13 63.31 25.16 69.06 31.97 C 73.99 37.34 78.03 43.47 81.06 50.10 C 78.64 53.32 76.05 56.41 73.32 59.37 C 65.09 68.41 57.52 78.03 49.20 86.98 C 43.42 80.99 38.36 74.37 32.76 68.22 C 27.66 62.21 22.27 56.42 17.54 50.10 C 19.20 47.94 21.16 45.93 22.30 43.41 C 22.81 41.29 22.57 39.09 22.60 36.93 C 24.01 37.58 25.40 38.28 26.81 38.91 C 29.72 35.75 32.53 32.51 35.11 29.08 C 34.17 27.01 33.17 24.97 32.24 22.90 C 34.19 23.85 36.04 24.99 37.99 25.95 C 39.98 23.73 41.92 21.45 43.80 19.13 C 43.18 17.56 42.55 16.00 41.92 14.43 C 44.49 14.95 47.16 14.98 49.59 13.86 M 45.21 16.87 C 51.54 23.49 57.97 31.03 59.34 40.41 C 60.38 47.47 60.82 55.68 55.54 61.26 C 55.91 54.69 55.64 47.67 52.11 41.90 C 48.04 36.22 42.92 31.23 36.86 27.70 C 38.53 31.33 40.45 34.91 41.27 38.86 C 42.91 47.06 41.61 56.42 35.51 62.57 C 35.60 59.14 36.20 55.50 34.70 52.27 C 32.83 48.32 29.38 45.48 26.16 42.66 C 25.70 46.52 24.89 50.32 24.29 54.15 C 23.74 56.25 25.68 57.72 26.63 59.34 C 27.56 58.23 28.48 57.12 29.41 56.01 C 29.63 58.25 29.71 60.52 30.33 62.68 C 31.43 65.12 33.46 66.97 35.18 68.97 C 37.97 66.18 40.91 63.49 43.27 60.30 C 46.19 56.23 47.13 51.19 48.45 46.47 C 49.54 50.63 50.83 55.10 49.29 59.33 C 47.33 65.02 44.42 70.39 40.74 75.16 C 42.56 77.44 44.42 79.69 46.29 81.93 C 49.56 79.32 52.60 76.41 54.95 72.93 C 58.33 67.93 62.84 63.43 64.36 57.42 C 65.96 51.59 65.74 45.50 65.48 39.53 C 69.48 44.99 71.04 51.66 72.44 58.15 C 74.65 55.76 76.78 53.31 78.86 50.82 C 73.78 42.05 68.61 32.81 60.22 26.76 C 55.52 23.03 50.60 19.55 45.21 16.87 Z" />
<path fill="#ffffff" opacity="1.00" d=" M 45.21 16.87 C 50.60 19.55 55.52 23.03 60.22 26.76 C 68.61 32.81 73.78 42.05 78.86 50.82 C 76.78 53.31 74.65 55.76 72.44 58.15 C 71.04 51.66 69.48 44.99 65.48 39.53 C 65.74 45.50 65.96 51.59 64.36 57.42 C 62.84 63.43 58.33 67.93 54.95 72.93 C 52.60 76.41 49.56 79.32 46.29 81.93 C 44.42 79.69 42.56 77.44 40.74 75.16 C 44.42 70.39 47.33 65.02 49.29 59.33 C 50.83 55.10 49.54 50.63 48.45 46.47 C 47.13 51.19 46.19 56.23 43.27 60.30 C 40.91 63.49 37.97 66.18 35.18 68.97 C 33.46 66.97 31.43 65.12 30.33 62.68 C 29.71 60.52 29.63 58.25 29.41 56.01 C 28.48 57.12 27.56 58.23 26.63 59.34 C 25.68 57.72 23.74 56.25 24.29 54.15 C 24.89 50.32 25.70 46.52 26.16 42.66 C 29.38 45.48 32.83 48.32 34.70 52.27 C 36.20 55.50 35.60 59.14 35.51 62.57 C 41.61 56.42 42.91 47.06 41.27 38.86 C 40.45 34.91 38.53 31.33 36.86 27.70 C 42.92 31.23 48.04 36.22 52.11 41.90 C 55.64 47.67 55.91 54.69 55.54 61.26 C 60.82 55.68 60.38 47.47 59.34 40.41 C 57.97 31.03 51.54 23.49 45.21 16.87 Z" />
</svg>
