<?xml version="1.0" encoding="UTF-8" ?>
<!DOCTYPE svg PUBLIC "-//W3C//DTD SVG 1.1//EN" "http://www.w3.org/Graphics/SVG/1.1/DTD/svg11.dtd">
<svg width="100pt" height="100pt" viewBox="0 0 100 100" version="1.1" xmlns="http://www.w3.org/2000/svg">
<path fill="#b8b9b9" opacity="1.00" d=" M 38.83 18.04 C 43.18 14.61 46.19 9.78 49.99 5.79 C 53.16 9.36 56.24 13.00 59.31 16.66 C 60.92 18.47 62.52 20.66 65.11 21.00 C 70.89 22.57 78.17 22.67 81.90 28.07 C 84.95 32.15 81.82 36.88 80.27 40.87 C 82.95 43.93 85.60 47.01 88.28 50.07 C 75.53 64.87 62.75 79.63 50.00 94.43 C 37.25 79.63 24.46 64.87 11.72 50.07 C 15.68 45.29 20.09 40.88 23.82 35.92 C 21.93 33.38 18.72 31.44 18.50 27.99 C 18.02 24.41 20.38 20.92 23.67 19.63 C 28.48 17.63 33.80 18.74 38.83 18.04 M 41.67 19.88 C 35.90 21.27 29.51 19.15 24.03 21.98 C 21.00 23.36 19.58 27.51 21.64 30.27 C 23.57 32.52 26.34 33.76 28.82 35.27 C 24.70 40.30 20.31 45.09 16.19 50.12 C 27.27 63.30 38.64 76.24 50.00 89.19 C 61.42 76.30 72.58 63.17 83.82 50.12 C 81.56 47.45 79.01 44.95 77.28 41.88 C 78.05 37.99 81.19 34.54 80.52 30.42 C 78.84 26.18 73.71 25.23 69.75 24.28 C 65.75 23.21 60.83 23.54 57.94 20.08 C 55.21 17.10 52.74 13.91 50.00 10.94 C 47.24 13.93 44.93 17.40 41.67 19.88 Z" />
<path fill="#bc522d" opacity="1.00" d=" M 41.67 19.88 C 44.93 17.40 47.24 13.93 50.00 10.94 C 52.74 13.91 55.21 17.10 57.94 20.08 C 60.83 23.54 65.75 23.21 69.75 24.28 C 73.71 25.23 78.84 26.18 80.52 30.42 C 81.19 34.54 78.05 37.99 77.28 41.88 C 79.01 44.95 81.56 47.45 83.82 50.12 C 72.58 63.17 61.42 76.30 50.00 89.19 C 38.64 76.24 27.27 63.30 16.19 50.12 C 20.31 45.09 24.70 40.30 28.82 35.27 C 26.34 33.76 23.57 32.52 21.64 30.27 C 19.58 27.51 21.00 23.36 24.03 21.98 C 29.51 19.15 35.90 21.27 41.67 19.88 M 23.36 25.45 C 21.95 28.45 24.87 30.45 27.09 31.77 C 30.83 26.76 37.58 28.16 43.00 27.90 C 52.88 28.41 63.04 28.06 72.59 31.00 C 59.37 33.05 46.06 30.66 32.82 30.29 C 44.37 32.85 56.22 33.81 68.04 34.00 C 71.71 34.13 75.36 33.46 78.72 31.97 C 76.41 27.27 70.80 26.81 66.27 25.77 C 55.30 23.80 44.15 22.59 33.00 22.62 C 29.74 22.93 25.60 22.58 23.36 25.45 M 29.88 33.26 C 37.37 37.83 46.33 38.61 54.86 39.50 C 61.09 39.94 67.43 40.58 73.61 39.46 C 75.45 39.18 76.41 37.40 77.61 36.20 C 69.42 34.82 61.22 37.09 52.99 36.68 C 45.11 37.04 37.45 35.16 29.88 33.26 M 28.39 39.76 C 31.58 44.78 37.95 45.00 43.25 45.67 C 52.26 46.49 61.52 47.20 70.45 45.36 C 72.64 45.13 73.54 43.06 74.52 41.41 C 71.03 41.32 67.53 41.49 64.09 42.15 C 55.70 43.70 47.05 44.46 38.56 43.35 C 34.75 43.14 32.40 38.83 28.39 39.76 M 30.36 46.39 C 31.40 48.36 32.68 50.37 34.89 51.17 C 42.11 54.39 50.28 54.43 58.05 54.25 C 60.85 54.40 63.18 52.85 65.07 50.94 C 58.05 49.20 51.00 51.44 43.95 51.39 C 40.31 51.44 36.96 49.87 33.70 48.43 C 34.48 47.58 35.25 46.73 36.03 45.88 C 34.14 46.03 32.25 46.20 30.36 46.39 M 77.26 47.73 C 76.78 49.12 76.28 50.51 75.79 51.89 C 76.57 51.69 78.13 51.28 78.91 51.08 C 78.32 49.98 77.77 48.87 77.26 47.73 M 21.71 48.60 C 22.69 51.39 24.16 54.17 27.09 55.30 C 26.11 52.50 24.13 50.26 21.71 48.60 M 73.23 48.80 C 72.10 52.25 70.64 55.80 67.20 57.53 C 67.23 55.84 67.29 54.14 67.34 52.45 C 65.87 54.24 64.21 55.94 63.24 58.06 C 63.58 59.83 64.36 61.48 64.99 63.15 C 63.93 66.08 62.79 68.99 61.76 71.94 C 66.74 66.70 71.72 61.44 76.35 55.89 C 75.28 56.28 74.21 56.68 73.14 57.08 C 73.73 54.35 73.84 51.54 73.23 48.80 M 28.35 51.08 C 28.73 53.44 29.04 55.81 29.25 58.20 C 26.63 57.10 24.11 55.78 21.63 54.40 C 28.26 61.85 34.91 69.28 41.50 76.77 C 42.57 75.13 43.64 73.51 44.78 71.92 C 43.76 70.33 42.73 68.75 41.70 67.16 C 42.33 66.70 43.57 65.77 44.19 65.31 C 39.80 59.56 32.40 57.18 28.35 51.08 M 36.90 56.23 C 39.63 58.68 42.73 60.88 46.39 61.63 C 51.43 62.75 57.57 64.06 61.63 59.92 C 56.25 57.74 50.56 59.72 45.03 59.12 C 42.52 59.08 40.87 57.18 39.57 55.28 C 38.68 55.60 37.79 55.91 36.90 56.23 M 46.26 65.30 C 50.72 68.50 56.34 67.59 61.34 66.47 C 61.49 65.91 61.78 64.78 61.93 64.22 C 57.74 65.01 53.55 65.77 49.32 66.28 C 49.33 65.61 49.35 64.27 49.36 63.60 C 48.32 64.15 47.29 64.72 46.26 65.30 M 50.34 69.59 C 53.55 72.30 57.84 72.17 61.58 70.74 C 57.90 69.85 54.11 69.56 50.34 69.59 M 49.64 73.43 C 52.26 75.12 55.35 75.80 58.38 74.79 C 55.75 73.12 52.62 73.23 49.64 73.43 M 49.62 76.37 C 48.93 78.24 52.96 79.37 53.29 77.37 C 52.85 75.99 50.69 75.40 49.62 76.37 M 47.64 79.27 C 46.71 80.81 49.40 82.10 50.33 80.78 C 51.27 79.24 48.57 77.97 47.64 79.27 Z" />
<path fill="#ffffff" opacity="1.00" d=" M 23.36 25.45 C 25.60 22.58 29.74 22.93 33.00 22.62 C 44.15 22.59 55.30 23.80 66.27 25.77 C 70.80 26.81 76.41 27.27 78.72 31.97 C 75.36 33.46 71.71 34.13 68.04 34.00 C 56.22 33.81 44.37 32.85 32.82 30.29 C 46.06 30.66 59.37 33.05 72.59 31.00 C 63.04 28.06 52.88 28.41 43.00 27.90 C 37.58 28.16 30.83 26.76 27.09 31.77 C 24.87 30.45 21.95 28.45 23.36 25.45 Z" />
<path fill="#ffffff" opacity="1.00" d=" M 29.88 33.26 C 37.45 35.16 45.11 37.04 52.99 36.68 C 61.22 37.09 69.42 34.82 77.61 36.20 C 76.41 37.40 75.45 39.18 73.61 39.46 C 67.43 40.58 61.09 39.94 54.86 39.50 C 46.33 38.61 37.37 37.83 29.88 33.26 Z" />
<path fill="#ffffff" opacity="1.00" d=" M 28.39 39.76 C 32.40 38.83 34.75 43.14 38.56 43.35 C 47.05 44.46 55.70 43.70 64.09 42.15 C 67.53 41.49 71.03 41.32 74.52 41.41 C 73.54 43.06 72.64 45.13 70.45 45.36 C 61.52 47.20 52.26 46.49 43.25 45.67 C 37.95 45.00 31.58 44.78 28.39 39.76 Z" />
<path fill="#ffffff" opacity="1.00" d=" M 30.36 46.39 C 32.25 46.20 34.14 46.03 36.03 45.88 C 35.25 46.73 34.48 47.58 33.70 48.43 C 36.96 49.87 40.31 51.44 43.95 51.39 C 51.00 51.44 58.05 49.20 65.07 50.94 C 63.18 52.85 60.85 54.40 58.05 54.25 C 50.28 54.43 42.11 54.39 34.89 51.17 C 32.68 50.37 31.40 48.36 30.36 46.39 Z" />
<path fill="#ffffff" opacity="1.00" d=" M 77.26 47.73 C 77.77 48.87 78.32 49.98 78.91 51.08 C 78.13 51.28 76.57 51.69 75.79 51.89 C 76.28 50.51 76.78 49.12 77.26 47.73 Z" />
<path fill="#ffffff" opacity="1.00" d=" M 21.71 48.60 C 24.13 50.26 26.11 52.50 27.09 55.30 C 24.16 54.17 22.69 51.39 21.71 48.60 Z" />
<path fill="#ffffff" opacity="1.00" d=" M 73.23 48.80 C 73.84 51.54 73.73 54.35 73.14 57.08 C 74.21 56.68 75.28 56.28 76.35 55.89 C 71.72 61.44 66.74 66.70 61.76 71.94 C 62.79 68.99 63.93 66.08 64.99 63.15 C 64.36 61.48 63.58 59.83 63.24 58.06 C 64.21 55.94 65.87 54.24 67.34 52.45 C 67.29 54.14 67.23 55.84 67.20 57.53 C 70.64 55.80 72.10 52.25 73.23 48.80 Z" />
<path fill="#ffffff" opacity="1.00" d=" M 28.35 51.08 C 32.40 57.18 39.80 59.56 44.19 65.31 C 43.57 65.77 42.33 66.70 41.70 67.16 C 42.73 68.75 43.76 70.33 44.78 71.92 C 43.64 73.51 42.57 75.13 41.50 76.77 C 34.91 69.28 28.26 61.85 21.63 54.40 C 24.11 55.78 26.63 57.10 29.25 58.20 C 29.04 55.81 28.73 53.44 28.35 51.08 Z" />
<path fill="#ffffff" opacity="1.00" d=" M 36.90 56.23 C 37.79 55.91 38.68 55.60 39.57 55.28 C 40.87 57.18 42.52 59.08 45.03 59.12 C 50.56 59.72 56.25 57.74 61.63 59.92 C 57.57 64.06 51.43 62.75 46.39 61.63 C 42.73 60.88 39.63 58.68 36.90 56.23 Z" />
<path fill="#ffffff" opacity="1.00" d=" M 46.26 65.30 C 47.29 64.72 48.32 64.15 49.36 63.60 C 49.35 64.27 49.33 65.61 49.32 66.28 C 53.55 65.77 57.74 65.01 61.93 64.22 C 61.78 64.78 61.49 65.91 61.34 66.47 C 56.34 67.59 50.72 68.50 46.26 65.30 Z" />
<path fill="#ffffff" opacity="1.00" d=" M 50.34 69.59 C 54.11 69.56 57.90 69.85 61.58 70.74 C 57.84 72.17 53.55 72.30 50.34 69.59 Z" />
<path fill="#ffffff" opacity="1.00" d=" M 49.64 73.43 C 52.62 73.23 55.75 73.12 58.38 74.79 C 55.35 75.80 52.26 75.12 49.64 73.43 Z" />
<path fill="#f7e9e4" opacity="1.00" d=" M 49.62 76.37 C 50.69 75.40 52.85 75.99 53.29 77.37 C 52.96 79.37 48.93 78.24 49.62 76.37 Z" />
<path fill="#ffffff" opacity="1.00" d=" M 47.64 79.27 C 48.57 77.97 51.27 79.24 50.33 80.78 C 49.40 82.10 46.71 80.81 47.64 79.27 Z" />
</svg>
