<?xml version="1.0" encoding="UTF-8" ?>
<!DOCTYPE svg PUBLIC "-//W3C//DTD SVG 1.1//EN" "http://www.w3.org/Graphics/SVG/1.1/DTD/svg11.dtd">
<svg width="100pt" height="100pt" viewBox="0 0 100 100" version="1.1" xmlns="http://www.w3.org/2000/svg">
<path fill="#b8bebd" opacity="1.00" d=" M 42.13 18.18 C 44.98 15.81 47.14 12.75 49.62 10.02 C 51.50 12.21 53.21 14.60 55.47 16.42 C 58.66 18.34 62.71 18.78 65.38 21.56 C 67.89 24.06 70.69 26.43 72.25 29.67 C 74.32 33.78 74.85 38.60 77.64 42.36 C 79.44 44.80 81.54 47.00 83.55 49.28 C 72.43 62.60 60.88 75.56 49.64 88.78 C 38.21 75.68 26.85 62.50 15.54 49.30 C 18.95 45.35 23.24 41.75 24.58 36.50 C 26.06 31.58 28.79 27.05 32.50 23.51 C 35.22 20.92 39.02 20.13 42.13 18.18 M 49.25 15.08 C 48.11 16.35 46.99 17.64 45.75 18.83 C 42.55 22.03 37.53 22.15 34.16 25.13 C 29.97 28.77 27.69 34.00 26.19 39.23 C 25.13 43.22 22.27 46.29 19.62 49.32 C 27.71 59.51 36.66 68.99 44.89 79.07 C 46.36 80.80 47.87 82.54 49.75 83.85 C 52.07 81.80 53.98 79.35 55.99 77.02 C 63.80 67.76 71.85 58.72 79.62 49.42 C 76.71 46.10 74.20 42.37 72.95 38.09 C 71.51 33.35 69.62 28.55 65.85 25.15 C 61.47 19.96 53.80 20.11 49.25 15.08 Z" />
<path fill="#b61c2e" opacity="1.00" d=" M 49.25 15.08 C 53.80 20.11 61.47 19.96 65.85 25.15 C 69.62 28.55 71.51 33.35 72.95 38.09 C 74.20 42.37 76.71 46.10 79.62 49.42 C 71.85 58.72 63.80 67.76 55.99 77.02 C 53.98 79.35 52.07 81.80 49.75 83.85 C 47.87 82.54 46.36 80.80 44.89 79.07 C 36.66 68.99 27.71 59.51 19.62 49.32 C 22.27 46.29 25.13 43.22 26.19 39.23 C 27.69 34.00 29.97 28.77 34.16 25.13 C 37.53 22.15 42.55 22.03 45.75 18.83 C 46.99 17.64 48.11 16.35 49.25 15.08 M 36.88 25.92 C 29.32 31.83 25.41 43.08 30.12 51.92 C 32.79 56.71 33.99 62.07 35.91 67.17 C 36.92 65.84 37.93 64.50 38.93 63.16 C 42.47 69.19 45.18 75.71 49.22 81.43 C 48.38 75.60 44.63 70.91 42.15 65.73 C 39.76 61.37 39.18 56.37 37.87 51.65 C 37.25 56.19 36.97 60.77 36.57 65.33 C 35.51 61.25 34.70 57.04 32.59 53.34 C 30.37 49.32 29.07 44.66 30.04 40.07 C 31.29 33.62 35.58 26.88 42.36 25.34 C 47.57 23.99 53.28 22.48 58.53 24.44 C 65.58 28.39 69.33 36.25 70.49 43.99 C 70.23 50.34 66.15 55.57 62.62 60.54 C 60.47 63.35 60.39 67.04 60.01 70.41 C 61.79 67.00 62.76 63.17 65.00 60.00 C 67.79 55.89 70.78 51.70 71.84 46.75 C 73.00 42.80 70.87 38.99 69.68 35.33 C 68.20 30.66 64.74 27.02 61.02 24.00 C 57.39 21.23 52.46 21.74 48.21 22.30 C 44.35 23.15 40.24 23.71 36.88 25.92 M 48.64 26.10 C 48.46 28.93 48.67 31.88 47.75 34.60 C 46.35 37.45 44.15 39.79 42.14 42.22 C 44.19 37.45 44.47 32.30 43.69 27.21 C 34.18 30.28 29.94 41.98 33.84 50.87 C 36.41 49.86 38.99 48.85 41.57 47.88 C 41.66 53.03 41.72 58.25 43.43 63.19 C 44.53 59.13 44.80 54.72 47.08 51.08 C 49.01 47.97 50.97 44.88 53.07 41.88 C 52.54 49.34 45.60 54.40 45.71 61.99 C 45.06 68.46 49.67 73.57 52.17 79.11 C 51.71 74.49 50.03 69.56 52.14 65.11 C 54.27 60.57 57.66 56.80 60.65 52.84 C 60.90 54.62 61.13 56.40 61.38 58.18 C 63.72 54.45 66.40 50.77 67.48 46.43 C 68.28 43.50 66.86 40.63 66.10 37.85 C 64.86 39.19 63.63 40.54 62.42 41.91 C 62.84 39.75 63.92 37.42 62.76 35.30 C 61.31 32.25 59.98 28.90 57.38 26.64 C 54.54 25.90 51.55 26.16 48.64 26.10 M 53.61 69.53 C 53.13 71.99 54.40 74.29 55.32 76.48 C 55.52 73.46 55.40 70.44 55.45 67.42 C 56.63 69.00 57.82 70.57 59.01 72.14 C 58.30 68.64 57.60 65.14 56.79 61.67 C 55.53 64.19 54.11 66.72 53.61 69.53 Z" />
<path fill="#ffffff" opacity="1.00" d=" M 36.88 25.92 C 40.24 23.71 44.35 23.15 48.21 22.30 C 52.46 21.74 57.39 21.23 61.02 24.00 C 64.74 27.02 68.20 30.66 69.68 35.33 C 70.87 38.99 73.00 42.80 71.84 46.75 C 70.78 51.70 67.79 55.89 65.00 60.00 C 62.76 63.17 61.79 67.00 60.01 70.41 C 60.39 67.04 60.47 63.35 62.62 60.54 C 66.15 55.57 70.23 50.34 70.49 43.99 C 69.33 36.25 65.58 28.39 58.53 24.44 C 53.28 22.48 47.57 23.99 42.36 25.34 C 35.58 26.88 31.29 33.62 30.04 40.07 C 29.07 44.66 30.37 49.32 32.59 53.34 C 34.70 57.04 35.51 61.25 36.57 65.33 C 36.97 60.77 37.25 56.19 37.87 51.65 C 39.18 56.37 39.76 61.37 42.15 65.73 C 44.63 70.91 48.38 75.60 49.22 81.43 C 45.18 75.71 42.47 69.19 38.93 63.16 C 37.93 64.50 36.92 65.84 35.91 67.17 C 33.99 62.07 32.79 56.71 30.12 51.92 C 25.41 43.08 29.32 31.83 36.88 25.92 Z" />
<path fill="#ffffff" opacity="1.00" d=" M 48.64 26.10 C 51.55 26.16 54.54 25.90 57.38 26.64 C 59.98 28.90 61.31 32.25 62.76 35.30 C 63.92 37.42 62.84 39.75 62.42 41.91 C 63.63 40.54 64.86 39.19 66.10 37.85 C 66.86 40.63 68.28 43.50 67.48 46.43 C 66.40 50.77 63.72 54.45 61.38 58.18 C 61.13 56.40 60.90 54.62 60.65 52.84 C 57.66 56.80 54.27 60.57 52.14 65.11 C 50.03 69.56 51.71 74.49 52.17 79.11 C 49.67 73.57 45.06 68.46 45.71 61.99 C 45.60 54.40 52.54 49.34 53.07 41.88 C 50.97 44.88 49.01 47.97 47.08 51.08 C 44.80 54.72 44.53 59.13 43.43 63.19 C 41.72 58.25 41.66 53.03 41.57 47.88 C 38.99 48.85 36.41 49.86 33.84 50.87 C 29.94 41.98 34.18 30.28 43.69 27.21 C 44.47 32.30 44.19 37.45 42.14 42.22 C 44.15 39.79 46.35 37.45 47.75 34.60 C 48.67 31.88 48.46 28.93 48.64 26.10 Z" />
<path fill="#ffffff" opacity="1.00" d=" M 53.61 69.53 C 54.11 66.72 55.53 64.19 56.79 61.67 C 57.60 65.14 58.30 68.64 59.01 72.14 C 57.82 70.57 56.63 69.00 55.45 67.42 C 55.40 70.44 55.52 73.46 55.32 76.48 C 54.40 74.29 53.13 71.99 53.61 69.53 Z" />
</svg>
