<?xml version="1.0" encoding="UTF-8" ?>
<!DOCTYPE svg PUBLIC "-//W3C//DTD SVG 1.1//EN" "http://www.w3.org/Graphics/SVG/1.1/DTD/svg11.dtd">
<svg width="100pt" height="100pt" viewBox="0 0 100 100" version="1.1" xmlns="http://www.w3.org/2000/svg">
<path fill="#b8bcbc" opacity="1.00" d=" M 44.47 12.49 C 46.21 11.27 47.55 9.59 49.00 8.06 C 50.20 9.13 51.35 10.29 52.70 11.18 C 55.90 12.24 59.40 12.10 62.51 13.50 C 65.69 14.72 67.78 17.56 70.19 19.82 C 75.99 25.06 77.39 33.12 79.73 40.21 C 80.21 44.04 82.80 46.95 85.21 49.76 C 73.08 63.61 61.11 77.58 49.10 91.53 C 37.17 77.42 24.94 63.56 12.95 49.51 C 15.15 46.94 17.89 44.65 19.29 41.50 C 20.32 36.70 20.60 31.59 23.24 27.29 C 26.17 22.44 29.77 17.41 35.23 15.26 C 38.20 13.98 41.58 13.96 44.47 12.49 M 45.17 14.94 C 40.93 16.23 36.47 17.20 32.74 19.70 C 26.80 24.48 23.07 31.73 22.45 39.32 C 22.24 43.37 19.91 46.72 17.27 49.60 C 27.69 62.09 38.45 74.28 49.07 86.60 C 58.35 76.34 67.09 65.62 76.33 55.32 C 77.72 53.64 79.40 52.06 80.17 49.97 C 78.39 45.23 76.66 40.47 75.61 35.50 C 73.79 27.84 69.17 20.79 62.49 16.54 C 57.19 13.99 50.84 13.14 45.17 14.94 Z" />
<path fill="#b61a2d" opacity="1.00" d=" M 45.17 14.94 C 50.84 13.14 57.19 13.99 62.49 16.54 C 69.17 20.79 73.79 27.84 75.61 35.50 C 76.66 40.47 78.39 45.23 80.17 49.97 C 79.40 52.06 77.72 53.64 76.33 55.32 C 67.09 65.62 58.35 76.34 49.07 86.60 C 38.45 74.28 27.69 62.09 17.27 49.60 C 19.91 46.72 22.24 43.37 22.45 39.32 C 23.07 31.73 26.80 24.48 32.74 19.70 C 36.47 17.20 40.93 16.23 45.17 14.94 M 39.29 19.36 C 33.98 20.68 30.40 25.23 27.79 29.74 C 24.03 36.38 23.78 44.87 27.44 51.60 C 29.88 56.08 31.41 60.93 33.07 65.72 C 33.23 61.52 32.83 57.16 30.47 53.56 C 26.96 47.97 25.42 41.00 27.63 34.62 C 29.82 28.49 34.13 22.08 40.95 20.74 C 46.86 19.23 53.34 17.55 59.28 19.75 C 67.23 24.26 71.33 33.18 72.70 41.89 C 72.40 48.60 68.28 54.24 64.55 59.53 C 61.96 63.00 61.21 67.35 59.62 71.29 C 58.75 68.09 58.02 64.85 57.13 61.65 C 55.74 64.66 54.12 67.65 53.59 70.96 C 53.53 73.45 54.45 75.82 55.10 78.19 C 55.56 74.75 55.61 71.27 55.98 67.82 C 56.97 69.67 57.97 71.52 59.00 73.35 C 61.77 70.02 63.37 66.01 65.15 62.11 C 69.04 55.79 74.25 49.65 74.58 41.87 C 74.31 38.49 72.84 35.34 71.79 32.15 C 69.95 26.39 65.50 21.84 60.65 18.45 C 53.87 15.21 46.14 17.57 39.29 19.36 M 48.11 21.56 C 47.82 24.76 48.06 28.10 47.04 31.19 C 45.34 34.58 42.67 37.35 40.26 40.24 C 42.95 34.82 43.04 28.83 42.54 22.93 C 36.13 24.94 31.48 30.63 30.06 37.09 C 28.90 41.29 30.22 45.54 31.30 49.59 C 34.30 48.46 37.31 47.34 40.35 46.32 C 40.11 52.12 40.08 58.04 42.23 63.54 C 43.46 58.82 43.60 53.62 46.47 49.50 C 48.77 46.05 50.90 42.49 53.15 39.01 C 52.28 42.84 51.43 46.81 49.07 50.04 C 46.31 53.78 44.57 58.31 44.64 62.99 C 44.24 69.97 49.24 75.41 52.07 81.34 C 51.50 76.49 49.56 71.40 51.59 66.63 C 53.89 61.00 58.19 56.55 61.64 51.63 C 61.87 53.66 62.09 55.70 62.33 57.74 C 65.12 53.51 68.32 49.30 69.37 44.23 C 70.10 41.06 68.59 37.99 67.83 34.98 C 66.73 36.06 65.64 37.16 64.55 38.27 C 65.14 32.40 61.97 26.90 58.32 22.59 C 55.18 21.09 51.49 21.77 48.11 21.56 M 35.99 50.50 C 35.13 56.13 34.59 61.81 34.23 67.49 C 35.16 66.03 36.06 64.55 36.96 63.06 C 40.71 70.05 43.88 77.42 48.72 83.77 C 47.09 75.61 41.08 69.31 38.57 61.48 C 37.42 57.90 36.66 54.20 35.99 50.50 Z" />
<path fill="#ffffff" opacity="1.00" d=" M 39.29 19.36 C 46.14 17.57 53.87 15.21 60.65 18.45 C 65.50 21.84 69.95 26.39 71.79 32.15 C 72.84 35.34 74.31 38.49 74.58 41.87 C 74.25 49.65 69.04 55.79 65.15 62.11 C 63.37 66.01 61.77 70.02 59.00 73.35 C 57.97 71.52 56.97 69.67 55.98 67.82 C 55.61 71.27 55.56 74.75 55.10 78.19 C 54.45 75.82 53.53 73.45 53.59 70.96 C 54.12 67.65 55.74 64.66 57.13 61.65 C 58.02 64.85 58.75 68.09 59.62 71.29 C 61.21 67.35 61.96 63.00 64.55 59.53 C 68.28 54.24 72.40 48.60 72.70 41.89 C 71.33 33.18 67.23 24.26 59.28 19.75 C 53.34 17.55 46.86 19.23 40.95 20.74 C 34.13 22.08 29.82 28.49 27.63 34.62 C 25.42 41.00 26.96 47.97 30.47 53.56 C 32.83 57.16 33.23 61.52 33.07 65.72 C 31.41 60.93 29.88 56.08 27.44 51.60 C 23.78 44.87 24.03 36.38 27.79 29.74 C 30.40 25.23 33.98 20.68 39.29 19.36 Z" />
<path fill="#ffffff" opacity="1.00" d=" M 48.11 21.56 C 51.49 21.77 55.18 21.09 58.32 22.59 C 61.97 26.90 65.14 32.40 64.55 38.27 C 65.64 37.16 66.73 36.06 67.83 34.98 C 68.59 37.99 70.10 41.06 69.37 44.23 C 68.32 49.30 65.12 53.51 62.33 57.74 C 62.09 55.70 61.87 53.66 61.64 51.63 C 58.19 56.55 53.89 61.00 51.59 66.63 C 49.56 71.40 51.50 76.49 52.07 81.34 C 49.24 75.41 44.24 69.97 44.64 62.99 C 44.57 58.31 46.31 53.78 49.07 50.04 C 51.43 46.81 52.28 42.84 53.15 39.01 C 50.90 42.49 48.77 46.05 46.47 49.50 C 43.60 53.62 43.46 58.82 42.23 63.54 C 40.08 58.04 40.11 52.12 40.35 46.32 C 37.31 47.34 34.30 48.46 31.30 49.59 C 30.22 45.54 28.90 41.29 30.06 37.09 C 31.48 30.63 36.13 24.94 42.54 22.93 C 43.04 28.83 42.95 34.82 40.26 40.24 C 42.67 37.35 45.34 34.58 47.04 31.19 C 48.06 28.10 47.82 24.76 48.11 21.56 Z" />
<path fill="#ffffff" opacity="1.00" d=" M 35.99 50.50 C 36.66 54.20 37.42 57.90 38.57 61.48 C 41.08 69.31 47.09 75.61 48.72 83.77 C 43.88 77.42 40.71 70.05 36.96 63.06 C 36.06 64.55 35.16 66.03 34.23 67.49 C 34.59 61.81 35.13 56.13 35.99 50.50 Z" />
</svg>
