<?xml version="1.0" encoding="UTF-8" ?>
<!DOCTYPE svg PUBLIC "-//W3C//DTD SVG 1.1//EN" "http://www.w3.org/Graphics/SVG/1.1/DTD/svg11.dtd">
<svg width="100pt" height="100pt" viewBox="0 0 100 100" version="1.1" xmlns="http://www.w3.org/2000/svg">
<path fill="#b8bfbf" opacity="1.00" d=" M 59.54 6.98 C 64.42 10.46 68.64 14.94 70.50 20.76 C 71.55 20.80 72.61 20.84 73.67 20.89 C 74.09 19.40 74.49 17.91 74.91 16.42 C 78.18 18.13 82.10 19.53 83.83 23.08 C 87.50 30.45 90.71 38.62 89.77 47.00 C 89.57 49.54 88.48 52.00 88.68 54.56 C 89.40 57.96 90.81 61.15 91.89 64.44 C 78.54 73.37 65.22 82.32 52.00 91.43 C 38.79 82.32 25.46 73.37 12.12 64.45 C 13.46 59.91 16.37 55.29 14.59 50.45 C 13.57 42.92 12.23 35.45 9.50 28.32 C 12.23 28.48 14.97 28.60 17.71 28.46 C 14.83 27.35 11.77 26.87 8.74 26.35 C 10.67 22.31 13.14 17.62 18.10 16.99 C 25.11 15.15 30.57 22.33 37.57 20.61 C 43.52 20.61 48.10 16.44 53.37 14.32 C 56.56 13.05 57.89 9.71 59.54 6.98 M 60.73 10.19 C 56.90 15.61 50.41 17.63 45.14 21.22 C 42.63 23.06 39.46 23.37 36.45 23.51 C 30.09 24.34 25.51 17.71 19.10 18.80 C 15.77 19.03 13.72 21.91 11.68 24.17 C 13.82 25.08 16.20 25.63 18.09 27.05 C 18.88 28.40 19.38 29.90 19.96 31.35 C 17.39 31.08 14.83 30.78 12.26 30.53 C 15.10 37.88 15.40 45.83 17.58 53.35 C 18.61 56.70 16.98 60.02 16.01 63.17 C 19.33 65.28 22.31 69.02 26.41 69.24 C 28.11 70.24 29.83 71.22 31.55 72.19 C 31.41 71.43 31.13 69.91 30.99 69.16 C 31.37 71.32 31.86 73.46 32.44 75.57 L 32.61 74.49 C 32.96 74.52 33.68 74.58 34.04 74.61 C 39.25 79.93 45.91 83.41 52.00 87.59 C 58.09 83.45 64.68 79.89 69.98 74.70 C 71.80 74.25 73.33 73.09 74.72 71.88 C 79.42 69.39 83.81 66.35 88.04 63.13 C 86.79 59.43 84.65 55.42 86.52 51.54 C 89.91 43.00 86.69 33.81 83.10 25.92 C 81.89 22.93 79.27 20.93 76.62 19.27 C 76.39 21.33 76.13 23.39 75.93 25.46 C 73.64 24.56 71.29 23.82 68.95 23.06 C 67.57 18.02 64.74 13.55 60.73 10.19 Z" />
<path fill="#c40f24" opacity="1.00" d=" M 60.73 10.19 C 64.74 13.55 67.57 18.02 68.95 23.06 C 71.29 23.82 73.64 24.56 75.93 25.46 C 76.13 23.39 76.39 21.33 76.62 19.27 C 79.27 20.93 81.89 22.93 83.10 25.92 C 86.69 33.81 89.91 43.00 86.52 51.54 C 84.65 55.42 86.79 59.43 88.04 63.13 C 83.81 66.35 79.42 69.39 74.72 71.88 C 75.82 70.87 76.88 69.82 77.95 68.77 C 73.22 68.46 68.48 68.45 63.74 68.50 C 63.78 70.70 63.80 72.90 63.81 75.10 C 65.87 74.98 67.93 74.89 69.98 74.70 C 64.68 79.89 58.09 83.45 52.00 87.59 C 45.91 83.41 39.25 79.93 34.04 74.61 C 38.34 74.81 42.66 74.90 46.97 74.84 C 46.94 72.71 46.91 70.57 46.88 68.44 C 42.40 68.46 37.93 68.46 33.45 68.38 C 33.19 70.42 32.92 72.46 32.61 74.49 L 32.44 75.57 C 31.86 73.46 31.37 71.32 30.99 69.16 L 30.84 68.35 C 29.37 68.66 27.89 68.98 26.41 69.24 C 22.31 69.02 19.33 65.28 16.01 63.17 C 16.98 60.02 18.61 56.70 17.58 53.35 C 15.40 45.83 15.10 37.88 12.26 30.53 C 14.83 30.78 17.39 31.08 19.96 31.35 C 19.38 29.90 18.88 28.40 18.09 27.05 C 16.20 25.63 13.82 25.08 11.68 24.17 C 13.72 21.91 15.77 19.03 19.10 18.80 C 25.51 17.71 30.09 24.34 36.45 23.51 C 39.46 23.37 42.63 23.06 45.14 21.22 C 50.41 17.63 56.90 15.61 60.73 10.19 M 48.00 22.10 C 44.82 24.05 44.25 27.97 43.41 31.27 C 41.54 29.18 39.67 27.08 37.87 24.92 C 35.47 29.11 34.75 33.93 33.33 38.47 C 32.10 33.51 32.71 27.23 28.06 23.91 C 24.67 20.96 19.97 21.24 15.83 21.92 C 17.84 23.63 20.55 24.91 21.59 27.48 C 22.21 30.45 21.18 33.45 20.62 36.35 C 18.89 35.09 17.18 33.81 15.44 32.55 C 16.95 36.90 17.83 41.42 18.30 46.00 C 18.82 51.63 22.56 56.13 24.94 61.07 C 24.87 55.66 22.86 50.57 22.23 45.27 C 21.92 42.81 24.40 41.88 26.15 40.93 C 26.65 38.85 27.18 36.78 27.80 34.73 C 29.03 38.62 31.38 42.15 35.60 43.10 C 37.25 40.91 38.70 38.52 40.73 36.65 C 42.64 36.45 44.52 36.96 46.40 37.25 C 47.29 34.51 47.97 31.68 49.19 29.06 C 50.54 26.24 53.11 24.33 55.45 22.39 C 54.68 25.87 53.27 29.34 53.64 32.96 C 54.22 35.47 55.49 37.74 56.53 40.08 C 54.96 39.33 53.35 38.64 51.84 37.77 C 51.12 35.26 51.37 32.62 51.39 30.05 C 50.35 33.93 48.41 37.52 45.39 40.21 C 49.43 40.33 53.50 41.08 57.54 40.43 C 59.93 40.15 62.30 39.48 64.72 39.56 C 66.42 40.39 67.88 41.62 69.44 42.69 C 73.33 40.07 76.63 36.69 79.15 32.72 C 84.54 41.61 79.40 51.73 80.02 61.25 C 81.30 56.63 83.28 52.28 85.06 47.86 C 86.89 39.15 82.34 30.90 79.01 23.14 C 77.19 29.05 71.70 32.37 68.23 37.18 C 67.91 35.41 67.60 33.64 67.30 31.87 C 65.51 33.21 63.66 34.45 61.72 35.56 C 61.02 31.90 63.06 28.88 64.95 25.98 C 67.48 21.83 63.91 17.48 61.69 14.07 C 57.66 17.63 52.50 19.31 48.00 22.10 M 26.76 45.26 C 26.76 47.40 26.76 49.55 26.78 51.69 C 31.42 51.68 36.06 51.68 40.69 51.67 C 40.70 49.54 40.70 47.41 40.71 45.28 C 36.06 45.27 31.41 45.27 26.76 45.26 M 42.18 45.28 C 42.19 47.41 42.19 49.54 42.20 51.68 C 46.77 51.68 51.34 51.67 55.91 51.68 C 55.92 49.54 55.92 47.41 55.92 45.27 C 51.34 45.27 46.76 45.27 42.18 45.28 M 57.36 45.30 C 57.40 47.41 57.43 49.52 57.46 51.64 C 62.03 51.68 66.61 51.67 71.18 51.70 C 71.20 49.55 71.22 47.40 71.22 45.25 C 66.60 45.27 61.98 45.27 57.36 45.30 M 72.80 45.20 C 72.80 47.38 72.81 49.56 72.84 51.75 C 74.44 51.71 76.05 51.69 77.65 51.70 C 77.65 49.55 77.65 47.40 77.66 45.26 C 76.04 45.26 74.42 45.24 72.80 45.20 M 26.74 53.04 C 26.73 55.11 26.72 57.18 26.70 59.25 C 28.28 59.26 29.85 59.26 31.43 59.26 C 31.42 57.18 31.41 55.10 31.39 53.02 C 29.84 53.01 28.29 53.02 26.74 53.04 M 33.15 53.08 C 33.15 55.12 33.14 57.17 33.13 59.21 C 37.73 59.29 42.34 59.31 46.94 59.24 C 46.93 57.18 46.93 55.12 46.93 53.07 C 42.34 53.07 37.74 53.08 33.15 53.08 M 48.38 53.12 C 48.39 55.13 48.40 57.14 48.40 59.15 C 53.01 59.29 57.62 59.31 62.24 59.26 C 62.23 57.19 62.22 55.11 62.21 53.04 C 57.60 53.07 52.99 53.08 48.38 53.12 M 63.79 53.05 C 63.77 55.11 63.77 57.18 63.76 59.25 C 68.39 59.29 73.02 59.31 77.65 59.17 C 77.65 57.15 77.66 55.13 77.67 53.11 C 73.04 53.08 68.42 53.08 63.79 53.05 M 26.74 60.87 C 26.74 62.93 26.74 64.99 26.74 67.05 C 31.41 67.09 36.07 67.06 40.73 66.94 C 40.72 64.95 40.71 62.97 40.71 60.98 C 36.06 60.84 31.40 60.81 26.74 60.87 M 42.18 60.91 C 42.18 62.94 42.18 64.96 42.17 66.99 C 46.76 67.08 51.35 67.07 55.94 67.01 C 55.94 64.97 55.93 62.93 55.93 60.90 C 51.35 60.84 46.76 60.83 42.18 60.91 M 57.39 61.01 C 57.39 62.98 57.39 64.95 57.38 66.93 C 61.99 67.07 66.61 67.07 71.22 67.04 C 71.23 64.98 71.23 62.93 71.23 60.88 C 66.62 60.84 62.00 60.82 57.39 61.01 M 72.79 60.79 C 72.78 62.90 72.79 65.01 72.80 67.12 C 74.43 67.02 76.06 66.94 77.69 66.89 C 77.67 64.95 77.67 63.01 77.68 61.08 C 76.05 61.00 74.42 60.90 72.79 60.79 M 48.49 68.48 C 48.44 70.58 48.39 72.69 48.34 74.79 C 52.98 74.85 57.62 74.84 62.26 74.85 C 62.23 72.70 62.19 70.56 62.14 68.41 C 57.59 68.45 53.04 68.47 48.49 68.48 Z" />
<path fill="#ffffff" opacity="1.00" d=" M 48.00 22.10 C 52.50 19.31 57.66 17.63 61.69 14.07 C 63.91 17.48 67.48 21.83 64.95 25.98 C 63.06 28.88 61.02 31.90 61.72 35.56 C 63.66 34.45 65.51 33.21 67.30 31.87 C 67.60 33.64 67.91 35.41 68.23 37.18 C 71.70 32.37 77.19 29.05 79.01 23.14 C 82.34 30.90 86.89 39.15 85.06 47.86 C 83.28 52.28 81.30 56.63 80.02 61.25 C 79.40 51.73 84.54 41.61 79.15 32.72 C 76.63 36.69 73.33 40.07 69.44 42.69 C 67.88 41.62 66.42 40.39 64.72 39.56 C 62.30 39.48 59.93 40.15 57.54 40.43 C 53.50 41.08 49.43 40.33 45.39 40.21 C 48.41 37.52 50.35 33.93 51.39 30.05 C 51.37 32.62 51.12 35.26 51.84 37.77 C 53.35 38.64 54.96 39.33 56.53 40.08 C 55.49 37.74 54.22 35.47 53.64 32.96 C 53.27 29.34 54.68 25.87 55.45 22.39 C 53.11 24.33 50.54 26.24 49.19 29.06 C 47.97 31.68 47.29 34.51 46.40 37.25 C 44.52 36.96 42.64 36.45 40.73 36.65 C 38.70 38.52 37.25 40.91 35.60 43.10 C 31.38 42.15 29.03 38.62 27.80 34.73 C 27.18 36.78 26.65 38.85 26.15 40.93 C 24.40 41.88 21.92 42.81 22.23 45.27 C 22.86 50.57 24.87 55.66 24.94 61.07 C 22.56 56.13 18.82 51.63 18.30 46.00 C 17.83 41.42 16.95 36.90 15.44 32.55 C 17.18 33.81 18.89 35.09 20.62 36.35 C 21.18 33.45 22.21 30.45 21.59 27.48 C 20.55 24.91 17.84 23.63 15.83 21.92 C 19.97 21.24 24.67 20.96 28.06 23.91 C 32.71 27.23 32.10 33.51 33.33 38.47 C 34.75 33.93 35.47 29.11 37.87 24.92 C 39.67 27.08 41.54 29.18 43.41 31.27 C 44.25 27.97 44.82 24.05 48.00 22.10 Z" />
<path fill="#ffffff" opacity="1.00" d=" M 26.76 45.26 C 31.41 45.27 36.06 45.27 40.71 45.28 C 40.70 47.41 40.70 49.54 40.69 51.67 C 36.06 51.68 31.42 51.68 26.78 51.69 C 26.76 49.55 26.76 47.40 26.76 45.26 Z" />
<path fill="#ffffff" opacity="1.00" d=" M 42.18 45.28 C 46.76 45.27 51.34 45.27 55.92 45.27 C 55.92 47.41 55.92 49.54 55.91 51.68 C 51.34 51.67 46.77 51.68 42.20 51.68 C 42.19 49.54 42.19 47.41 42.18 45.28 Z" />
<path fill="#ffffff" opacity="1.00" d=" M 57.36 45.30 C 61.98 45.27 66.60 45.27 71.22 45.25 C 71.22 47.40 71.20 49.55 71.18 51.70 C 66.61 51.67 62.03 51.68 57.46 51.64 C 57.43 49.52 57.40 47.41 57.36 45.30 Z" />
<path fill="#ffffff" opacity="1.00" d=" M 72.80 45.20 C 74.42 45.24 76.04 45.26 77.66 45.26 C 77.65 47.40 77.65 49.55 77.65 51.70 C 76.05 51.69 74.44 51.71 72.84 51.75 C 72.81 49.56 72.80 47.38 72.80 45.20 Z" />
<path fill="#ffffff" opacity="1.00" d=" M 26.74 53.04 C 28.29 53.02 29.84 53.01 31.39 53.02 C 31.41 55.10 31.42 57.18 31.43 59.26 C 29.85 59.26 28.28 59.26 26.70 59.25 C 26.72 57.18 26.73 55.11 26.74 53.04 Z" />
<path fill="#ffffff" opacity="1.00" d=" M 33.15 53.08 C 37.74 53.08 42.34 53.07 46.93 53.07 C 46.93 55.12 46.93 57.18 46.94 59.24 C 42.34 59.31 37.73 59.29 33.13 59.21 C 33.14 57.17 33.15 55.12 33.15 53.08 Z" />
<path fill="#ffffff" opacity="1.00" d=" M 48.38 53.12 C 52.99 53.08 57.60 53.07 62.21 53.04 C 62.22 55.11 62.23 57.19 62.24 59.26 C 57.62 59.31 53.01 59.29 48.40 59.15 C 48.40 57.14 48.39 55.13 48.38 53.12 Z" />
<path fill="#ffffff" opacity="1.00" d=" M 63.79 53.05 C 68.42 53.08 73.04 53.08 77.67 53.11 C 77.66 55.13 77.65 57.15 77.65 59.17 C 73.02 59.31 68.39 59.29 63.76 59.25 C 63.77 57.18 63.77 55.11 63.79 53.05 Z" />
<path fill="#ffffff" opacity="1.00" d=" M 26.74 60.87 C 31.40 60.81 36.06 60.84 40.71 60.98 C 40.71 62.97 40.72 64.95 40.73 66.94 C 36.07 67.06 31.41 67.09 26.74 67.05 C 26.74 64.99 26.74 62.93 26.74 60.87 Z" />
<path fill="#ffffff" opacity="1.00" d=" M 42.18 60.91 C 46.76 60.83 51.35 60.84 55.93 60.90 C 55.93 62.93 55.94 64.97 55.94 67.01 C 51.35 67.07 46.76 67.08 42.17 66.99 C 42.18 64.96 42.18 62.94 42.18 60.91 Z" />
<path fill="#ffffff" opacity="1.00" d=" M 57.39 61.01 C 62.00 60.82 66.62 60.84 71.23 60.88 C 71.23 62.93 71.23 64.98 71.22 67.04 C 66.61 67.07 61.99 67.07 57.38 66.93 C 57.39 64.95 57.39 62.98 57.39 61.01 Z" />
<path fill="#ffffff" opacity="1.00" d=" M 72.79 60.79 C 74.42 60.90 76.05 61.00 77.68 61.08 C 77.67 63.01 77.67 64.95 77.69 66.89 C 76.06 66.94 74.43 67.02 72.80 67.12 C 72.79 65.01 72.78 62.90 72.79 60.79 Z" />
<path fill="#ffffff" opacity="1.00" d=" M 26.41 69.24 C 27.89 68.98 29.37 68.66 30.84 68.35 L 30.99 69.16 C 31.13 69.91 31.41 71.43 31.55 72.19 C 29.83 71.22 28.11 70.24 26.41 69.24 Z" />
<path fill="#ffffff" opacity="1.00" d=" M 33.45 68.38 C 37.93 68.46 42.40 68.46 46.88 68.44 C 46.91 70.57 46.94 72.71 46.97 74.84 C 42.66 74.90 38.34 74.81 34.04 74.61 C 33.68 74.58 32.96 74.52 32.61 74.49 C 32.92 72.46 33.19 70.42 33.45 68.38 Z" />
<path fill="#ffffff" opacity="1.00" d=" M 48.49 68.48 C 53.04 68.47 57.59 68.45 62.14 68.41 C 62.19 70.56 62.23 72.70 62.26 74.85 C 57.62 74.84 52.98 74.85 48.34 74.79 C 48.39 72.69 48.44 70.58 48.49 68.48 Z" />
<path fill="#ffffff" opacity="1.00" d=" M 63.74 68.50 C 68.48 68.45 73.22 68.46 77.95 68.77 C 76.88 69.82 75.82 70.87 74.72 71.88 C 73.33 73.09 71.80 74.25 69.98 74.70 C 67.93 74.89 65.87 74.98 63.81 75.10 C 63.80 72.90 63.78 70.70 63.74 68.50 Z" />
</svg>
