<?xml version="1.0" encoding="UTF-8" ?>
<!DOCTYPE svg PUBLIC "-//W3C//DTD SVG 1.1//EN" "http://www.w3.org/Graphics/SVG/1.1/DTD/svg11.dtd">
<svg width="100pt" height="100pt" viewBox="0 0 100 100" version="1.1" xmlns="http://www.w3.org/2000/svg">
<path fill="#b8bcbd" opacity="1.00" d=" M 36.85 23.84 C 40.48 17.87 46.29 13.81 50.73 8.51 C 52.90 10.90 54.92 13.61 57.90 15.05 C 62.32 17.38 67.01 20.00 69.42 24.59 C 71.24 27.74 70.80 31.84 73.35 34.61 C 77.80 39.77 82.37 44.84 86.74 50.08 C 85.59 51.45 84.44 52.83 83.29 54.21 C 85.51 57.61 88.50 61.23 87.67 65.58 C 87.27 70.76 84.28 76.58 78.76 77.63 C 74.29 78.56 70.25 76.01 66.76 73.56 C 61.12 79.43 56.11 85.85 50.69 91.91 C 47.74 88.65 44.89 85.30 42.03 81.96 C 38.21 83.38 34.38 86.65 30.10 84.96 C 25.60 83.62 20.55 82.38 17.36 78.67 C 14.04 74.24 11.50 68.74 12.30 63.07 C 12.61 59.42 15.79 57.13 18.26 54.84 C 17.09 53.19 15.85 51.60 14.68 49.96 C 21.91 41.12 29.86 32.87 36.85 23.84 M 43.16 20.21 C 39.69 23.21 37.97 27.59 35.07 31.06 C 29.72 37.45 24.01 43.52 18.77 50.01 C 20.42 52.13 22.08 54.25 23.76 56.33 C 20.57 57.16 16.64 57.90 15.25 61.36 C 13.35 66.25 15.34 71.66 18.15 75.79 C 20.62 79.77 25.43 81.19 29.69 82.34 C 34.45 83.51 39.22 81.02 42.14 77.33 C 44.93 80.64 47.76 83.92 50.76 87.03 C 56.17 81.54 60.16 74.58 66.65 70.23 C 69.93 72.73 73.49 75.97 77.95 75.34 C 82.39 74.70 84.88 70.07 85.30 65.97 C 86.18 61.26 82.48 57.60 80.15 53.95 C 80.82 52.57 81.49 51.20 82.16 49.82 C 78.86 45.20 74.80 41.22 71.17 36.87 C 67.86 33.24 69.70 27.41 66.16 23.86 C 62.27 18.62 55.37 17.62 50.57 13.53 C 48.20 15.86 45.65 18.00 43.16 20.21 Z" />
<path fill="#bc532e" opacity="1.00" d=" M 43.16 20.21 C 45.65 18.00 48.20 15.86 50.57 13.53 C 55.37 17.62 62.27 18.62 66.16 23.86 C 69.70 27.41 67.86 33.24 71.17 36.87 C 74.80 41.22 78.86 45.20 82.16 49.82 C 81.49 51.20 80.82 52.57 80.15 53.95 C 82.48 57.60 86.18 61.26 85.30 65.97 C 84.88 70.07 82.39 74.70 77.95 75.34 C 73.49 75.97 69.93 72.73 66.65 70.23 C 60.16 74.58 56.17 81.54 50.76 87.03 C 47.76 83.92 44.93 80.64 42.14 77.33 C 39.22 81.02 34.45 83.51 29.69 82.34 C 25.43 81.19 20.62 79.77 18.15 75.79 C 15.34 71.66 13.35 66.25 15.25 61.36 C 16.64 57.90 20.57 57.16 23.76 56.33 C 22.08 54.25 20.42 52.13 18.77 50.01 C 24.01 43.52 29.72 37.45 35.07 31.06 C 37.97 27.59 39.69 23.21 43.16 20.21 M 41.84 24.95 C 41.42 29.19 42.51 33.42 41.86 37.64 C 41.28 42.47 42.16 47.30 42.38 52.13 C 42.90 48.94 43.16 45.60 44.69 42.69 C 45.66 40.68 47.99 40.15 49.83 39.26 C 49.73 39.89 49.53 41.15 49.43 41.78 C 52.73 40.11 56.42 39.67 60.00 38.92 C 64.35 37.98 68.26 33.11 66.42 28.63 C 64.62 24.40 60.70 21.30 56.53 19.60 C 51.05 18.22 45.77 21.42 41.84 24.95 M 50.96 49.04 C 53.51 48.01 55.91 46.63 58.06 44.90 C 55.20 45.29 52.69 46.73 50.96 49.04 M 32.09 45.61 C 33.93 49.43 36.88 52.76 41.08 53.97 C 39.16 50.20 35.83 47.46 32.09 45.61 M 53.22 50.31 C 51.75 50.69 51.31 52.29 50.92 53.56 C 56.32 52.18 62.24 51.23 66.41 47.20 C 62.03 48.30 57.51 48.90 53.22 50.31 M 57.24 53.44 C 55.86 53.30 54.04 53.84 53.49 55.23 C 54.06 57.16 58.86 54.81 57.24 53.44 M 66.76 54.53 C 61.36 55.47 55.95 56.45 50.82 58.44 C 55.00 57.89 60.06 56.38 63.63 59.43 C 66.12 62.71 67.01 67.03 70.05 69.94 C 72.27 72.10 75.55 73.78 78.68 72.77 C 82.32 71.27 83.59 66.76 83.11 63.17 C 81.79 58.97 78.34 55.68 74.47 53.76 C 71.91 53.07 69.29 54.14 66.76 54.53 M 30.81 55.36 C 33.46 56.63 36.37 57.04 39.28 56.68 C 36.62 55.47 33.70 55.21 30.81 55.36 M 38.26 64.64 C 32.60 62.24 27.05 56.91 20.42 59.41 C 15.32 61.30 16.09 67.88 18.29 71.74 C 21.08 78.73 31.05 82.26 37.14 77.32 C 39.53 75.77 39.80 72.65 41.47 70.53 C 44.89 66.02 47.43 60.95 49.65 55.77 C 46.67 59.39 43.89 65.55 38.26 64.64 M 43.25 57.44 C 42.09 57.36 40.80 58.20 40.60 59.38 C 41.22 61.54 45.38 58.49 43.25 57.44 M 47.82 69.44 C 48.38 69.32 49.49 69.10 50.05 68.98 C 51.02 70.74 52.02 72.49 53.05 74.21 C 53.18 69.75 52.84 65.27 51.74 60.93 C 50.31 63.71 49.05 66.56 47.82 69.44 M 58.99 63.81 C 60.42 65.80 62.22 67.48 64.23 68.87 C 62.92 66.77 61.16 65.01 58.99 63.81 M 54.68 64.51 C 55.51 67.06 56.93 69.38 58.98 71.12 C 58.23 68.53 56.79 66.21 54.68 64.51 Z" />
<path fill="#faf2ef" opacity="1.00" d=" M 41.84 24.95 C 45.77 21.42 51.05 18.22 56.53 19.60 C 60.70 21.30 64.62 24.40 66.42 28.63 C 68.26 33.11 64.35 37.98 60.00 38.92 C 56.42 39.67 52.73 40.11 49.43 41.78 C 49.53 41.15 49.73 39.89 49.83 39.26 C 47.99 40.15 45.66 40.68 44.69 42.69 C 43.16 45.60 42.90 48.94 42.38 52.13 C 42.16 47.30 41.28 42.47 41.86 37.64 C 42.51 33.42 41.42 29.19 41.84 24.95 M 44.09 28.05 C 44.31 32.03 43.64 35.98 43.74 39.95 C 46.39 39.01 49.03 37.67 51.91 37.75 C 54.49 37.72 57.10 38.17 59.65 37.64 C 63.12 36.62 66.35 32.99 65.01 29.20 C 63.57 25.16 59.68 22.45 55.82 20.99 C 50.77 20.54 47.39 24.97 44.09 28.05 Z" />
<path fill="#bc532e" opacity="1.00" d=" M 44.09 28.05 C 47.39 24.97 50.77 20.54 55.82 20.99 C 59.68 22.45 63.57 25.16 65.01 29.20 C 66.35 32.99 63.12 36.62 59.65 37.64 C 57.10 38.17 54.49 37.72 51.91 37.75 C 49.03 37.67 46.39 39.01 43.74 39.95 C 43.64 35.98 44.31 32.03 44.09 28.05 M 46.08 28.64 C 45.51 31.53 45.53 34.51 45.16 37.44 C 49.21 35.87 53.55 36.42 57.78 36.42 C 61.04 36.24 65.11 32.97 63.58 29.41 C 62.14 26.13 58.96 23.92 55.74 22.60 C 51.83 22.94 48.69 25.93 46.08 28.64 Z" />
<path fill="#ffffff" opacity="1.00" d=" M 46.08 28.64 C 48.69 25.93 51.83 22.94 55.74 22.60 C 58.96 23.92 62.14 26.13 63.58 29.41 C 65.11 32.97 61.04 36.24 57.78 36.42 C 53.55 36.42 49.21 35.87 45.16 37.44 C 45.53 34.51 45.51 31.53 46.08 28.64 Z" />
<path fill="#ffffff" opacity="1.00" d=" M 50.96 49.04 C 52.69 46.73 55.20 45.29 58.06 44.90 C 55.91 46.63 53.51 48.01 50.96 49.04 Z" />
<path fill="#ffffff" opacity="1.00" d=" M 32.09 45.61 C 35.83 47.46 39.16 50.20 41.08 53.97 C 36.88 52.76 33.93 49.43 32.09 45.61 Z" />
<path fill="#ffffff" opacity="1.00" d=" M 53.22 50.31 C 57.51 48.90 62.03 48.30 66.41 47.20 C 62.24 51.23 56.32 52.18 50.92 53.56 C 51.31 52.29 51.75 50.69 53.22 50.31 Z" />
<path fill="#e3b6a6" opacity="1.00" d=" M 57.24 53.44 C 58.86 54.81 54.06 57.16 53.49 55.23 C 54.04 53.84 55.86 53.30 57.24 53.44 Z" />
<path fill="#ffffff" opacity="1.00" d=" M 66.76 54.53 C 69.29 54.14 71.91 53.07 74.47 53.76 C 78.34 55.68 81.79 58.97 83.11 63.17 C 83.59 66.76 82.32 71.27 78.68 72.77 C 75.55 73.78 72.27 72.10 70.05 69.94 C 67.01 67.03 66.12 62.71 63.63 59.43 C 60.06 56.38 55.00 57.89 50.82 58.44 C 55.95 56.45 61.36 55.47 66.76 54.53 M 63.97 56.97 C 66.26 60.19 67.82 63.83 69.77 67.25 C 71.50 70.01 75.01 72.40 78.36 71.37 C 81.11 69.86 81.95 66.19 81.66 63.28 C 80.05 60.26 77.00 58.37 74.10 56.76 C 70.98 54.86 67.30 56.84 63.97 56.97 Z" />
<path fill="#ffffff" opacity="1.00" d=" M 30.81 55.36 C 33.70 55.21 36.62 55.47 39.28 56.68 C 36.37 57.04 33.46 56.63 30.81 55.36 Z" />
<path fill="#bc532e" opacity="1.00" d=" M 63.97 56.97 C 67.30 56.84 70.98 54.86 74.10 56.76 C 77.00 58.37 80.05 60.26 81.66 63.28 C 81.95 66.19 81.11 69.86 78.36 71.37 C 75.01 72.40 71.50 70.01 69.77 67.25 C 67.82 63.83 66.26 60.19 63.97 56.97 M 67.12 58.20 C 68.67 61.70 69.72 65.67 72.63 68.34 C 74.24 70.00 76.70 69.80 78.81 70.11 C 79.35 68.17 80.21 66.24 80.15 64.19 C 78.60 61.37 75.68 59.68 72.99 58.10 C 71.19 57.01 69.05 58.12 67.12 58.20 Z" />
<path fill="#f2ddd6" opacity="1.00" d=" M 38.26 64.64 C 43.89 65.55 46.67 59.39 49.65 55.77 C 47.43 60.95 44.89 66.02 41.47 70.53 C 39.80 72.65 39.53 75.77 37.14 77.32 C 31.05 82.26 21.08 78.73 18.29 71.74 C 16.09 67.88 15.32 61.30 20.42 59.41 C 27.05 56.91 32.60 62.24 38.26 64.64 M 18.06 65.94 C 18.62 69.41 20.21 72.87 22.82 75.29 C 26.63 77.78 31.40 76.20 35.57 75.78 C 37.55 72.86 39.65 70.00 41.22 66.82 C 38.60 66.23 35.85 65.84 33.52 64.41 C 30.34 62.57 27.14 59.93 23.23 60.34 C 20.38 60.40 17.52 62.93 18.06 65.94 Z" />
<path fill="#ffffff" opacity="1.00" d=" M 43.25 57.44 C 45.38 58.49 41.22 61.54 40.60 59.38 C 40.80 58.20 42.09 57.36 43.25 57.44 Z" />
<path fill="#ffffff" opacity="1.00" d=" M 67.12 58.20 C 69.05 58.12 71.19 57.01 72.99 58.10 C 75.68 59.68 78.60 61.37 80.15 64.19 C 80.21 66.24 79.35 68.17 78.81 70.11 C 76.70 69.80 74.24 70.00 72.63 68.34 C 69.72 65.67 68.67 61.70 67.12 58.20 Z" />
<path fill="#bc532e" opacity="1.00" d=" M 18.06 65.94 C 17.52 62.93 20.38 60.40 23.23 60.34 C 27.14 59.93 30.34 62.57 33.52 64.41 C 35.85 65.84 38.60 66.23 41.22 66.82 C 39.65 70.00 37.55 72.86 35.57 75.78 C 31.40 76.20 26.63 77.78 22.82 75.29 C 20.21 72.87 18.62 69.41 18.06 65.94 M 21.37 62.27 C 17.58 64.92 20.59 70.43 22.85 73.22 C 26.15 75.60 30.77 74.77 34.52 73.99 C 36.20 72.30 37.39 70.20 38.78 68.29 C 32.66 67.05 28.04 60.26 21.37 62.27 Z" />
<path fill="#ffffff" opacity="1.00" d=" M 47.82 69.44 C 49.05 66.56 50.31 63.71 51.74 60.93 C 52.84 65.27 53.18 69.75 53.05 74.21 C 52.02 72.49 51.02 70.74 50.05 68.98 C 49.49 69.10 48.38 69.32 47.82 69.44 Z" />
<path fill="#ffffff" opacity="1.00" d=" M 21.37 62.27 C 28.04 60.26 32.66 67.05 38.78 68.29 C 37.39 70.20 36.20 72.30 34.52 73.99 C 30.77 74.77 26.15 75.60 22.85 73.22 C 20.59 70.43 17.58 64.92 21.37 62.27 Z" />
<path fill="#ffffff" opacity="1.00" d=" M 58.99 63.81 C 61.16 65.01 62.92 66.77 64.23 68.87 C 62.22 67.48 60.42 65.80 58.99 63.81 Z" />
<path fill="#ffffff" opacity="1.00" d=" M 54.68 64.51 C 56.79 66.21 58.23 68.53 58.98 71.12 C 56.93 69.38 55.51 67.06 54.68 64.51 Z" />
</svg>
