<?xml version="1.0" encoding="UTF-8" ?>
<!DOCTYPE svg PUBLIC "-//W3C//DTD SVG 1.1//EN" "http://www.w3.org/Graphics/SVG/1.1/DTD/svg11.dtd">
<svg width="100pt" height="100pt" viewBox="0 0 100 100" version="1.1" xmlns="http://www.w3.org/2000/svg">
<path fill="#bcc9bf" opacity="1.00" d=" M 11.37 8.68 C 17.92 10.61 23.84 15.24 30.93 14.79 C 43.98 14.70 57.03 14.72 70.07 14.78 C 75.92 15.08 81.06 11.92 86.41 10.10 C 84.44 15.90 81.35 21.26 79.28 27.00 C 80.25 32.33 82.77 37.24 84.38 42.41 C 88.33 43.28 92.22 44.46 95.88 46.21 C 93.66 48.80 91.07 51.06 87.97 52.53 C 88.62 54.53 89.22 56.55 89.85 58.56 C 86.25 60.84 82.40 62.87 79.40 65.93 C 82.14 72.06 85.34 78.02 87.38 84.46 C 79.89 81.91 72.64 78.64 65.78 74.70 C 60.55 78.32 55.11 81.63 50.00 85.44 C 44.57 81.44 38.83 77.88 33.27 74.06 C 26.90 77.73 20.28 80.97 13.35 83.45 C 15.30 77.25 17.59 71.15 20.42 65.29 C 17.00 63.03 13.63 60.71 10.17 58.52 C 10.81 56.45 11.43 54.38 12.09 52.32 C 8.63 50.75 5.39 48.78 2.28 46.63 C 6.59 44.89 11.06 43.58 15.59 42.54 C 17.01 38.27 18.83 34.12 19.99 29.75 C 20.63 27.87 19.28 26.16 18.59 24.50 C 15.81 19.40 13.46 14.09 11.37 8.68 M 14.86 12.09 C 16.99 18.04 20.81 23.25 22.69 29.27 C 22.70 33.95 20.89 38.62 18.54 42.62 C 15.18 45.35 10.57 45.74 6.59 47.19 C 9.53 48.71 12.53 50.10 15.56 51.42 C 15.06 53.32 14.56 55.22 14.07 57.13 C 17.15 59.38 20.20 61.66 23.30 63.89 C 20.70 69.11 18.46 74.50 16.61 80.03 C 22.87 77.53 28.80 74.29 34.80 71.24 C 39.68 74.98 44.95 78.16 50.00 81.65 C 54.71 78.33 59.71 75.45 64.25 71.90 C 70.77 75.11 77.17 78.63 84.02 81.12 C 81.78 75.26 79.03 69.60 76.09 64.06 C 79.45 61.89 82.67 59.49 85.95 57.19 C 85.47 55.31 84.98 53.44 84.49 51.57 C 87.35 50.15 90.18 48.67 92.94 47.06 C 89.27 45.73 85.32 45.02 81.92 43.05 C 80.01 40.95 79.38 38.03 78.36 35.45 C 77.51 32.47 75.83 29.21 77.24 26.14 C 78.97 21.93 81.17 17.93 82.94 13.73 C 77.84 15.71 72.65 18.03 67.05 17.69 C 55.34 17.55 43.63 17.62 31.92 17.68 C 25.74 17.82 20.44 14.22 14.86 12.09 Z" />
<path fill="#941271" opacity="1.00" d=" M 14.86 12.09 C 20.44 14.22 25.74 17.82 31.92 17.68 C 43.63 17.62 55.34 17.55 67.05 17.69 C 72.65 18.03 77.84 15.71 82.94 13.73 C 81.17 17.93 78.97 21.93 77.24 26.14 C 75.83 29.21 77.51 32.47 78.36 35.45 C 79.38 38.03 80.01 40.95 81.92 43.05 C 85.32 45.02 89.27 45.73 92.94 47.06 C 90.18 48.67 87.35 50.15 84.49 51.57 C 84.98 53.44 85.47 55.31 85.95 57.19 C 82.67 59.49 79.45 61.89 76.09 64.06 C 79.03 69.60 81.78 75.26 84.02 81.12 C 77.17 78.63 70.77 75.11 64.25 71.90 C 59.71 75.45 54.71 78.33 50.00 81.65 C 44.95 78.16 39.68 74.98 34.80 71.24 C 28.80 74.29 22.87 77.53 16.61 80.03 C 18.46 74.50 20.70 69.11 23.30 63.89 C 20.20 61.66 17.15 59.38 14.07 57.13 C 14.56 55.22 15.06 53.32 15.56 51.42 C 12.53 50.10 9.53 48.71 6.59 47.19 C 10.57 45.74 15.18 45.35 18.54 42.62 C 20.89 38.62 22.70 33.95 22.69 29.27 C 20.81 23.25 16.99 18.04 14.86 12.09 M 19.56 16.67 C 21.78 21.60 24.71 26.17 27.01 31.05 C 28.39 33.43 27.13 36.10 26.71 38.55 C 28.47 37.03 30.34 35.61 31.87 33.83 C 30.55 29.64 27.37 26.38 25.39 22.51 C 29.23 24.41 32.48 27.60 36.68 28.69 C 38.04 27.85 39.24 26.80 40.49 25.81 C 32.77 24.66 26.59 19.61 19.56 16.67 M 59.73 26.21 C 60.83 27.28 61.92 28.36 63.02 29.44 C 66.46 27.23 69.90 25.01 73.41 22.90 C 71.25 26.50 68.97 30.02 66.75 33.57 C 68.07 34.70 69.39 35.84 70.70 36.99 C 71.39 29.84 75.74 23.89 78.79 17.60 C 72.49 20.58 66.55 24.48 59.73 26.21 M 30.02 40.02 C 24.55 43.81 18.23 46.09 11.80 47.64 C 20.54 50.06 29.58 52.48 36.89 58.11 C 40.90 61.22 45.83 63.34 50.99 62.91 C 56.02 62.92 60.38 60.17 64.28 57.29 C 71.34 52.15 79.93 49.99 88.20 47.64 C 81.77 46.09 75.46 43.81 69.98 40.03 C 63.76 36.08 57.97 30.02 50.01 30.44 C 42.04 30.02 36.24 36.08 30.02 40.02 M 28.16 55.91 C 28.18 58.25 28.11 60.68 26.93 62.77 C 24.68 67.22 22.25 71.58 20.19 76.12 C 27.05 72.85 33.38 67.31 41.38 67.44 C 39.96 65.98 38.53 64.51 37.12 63.04 C 33.42 65.65 29.67 68.18 25.82 70.53 C 28.05 66.72 30.45 63.01 32.88 59.32 C 31.30 58.20 29.72 57.07 28.16 55.91 M 66.94 59.91 C 69.51 63.66 71.98 67.48 74.27 71.40 C 70.22 68.89 66.20 66.32 62.21 63.71 C 60.45 65.36 58.67 66.98 56.85 68.56 C 59.76 68.40 62.90 67.85 65.55 69.42 C 70.39 71.93 75.05 74.77 79.98 77.11 C 77.03 70.32 71.88 64.32 71.07 56.75 C 69.70 57.81 68.32 58.86 66.94 59.91 Z" />
<path fill="#ffffff" opacity="1.00" d=" M 19.56 16.67 C 26.59 19.61 32.77 24.66 40.49 25.81 C 39.24 26.80 38.04 27.85 36.68 28.69 C 32.48 27.60 29.23 24.41 25.39 22.51 C 27.37 26.38 30.55 29.64 31.87 33.83 C 30.34 35.61 28.47 37.03 26.71 38.55 C 27.13 36.10 28.39 33.43 27.01 31.05 C 24.71 26.17 21.78 21.60 19.56 16.67 Z" />
<path fill="#ffffff" opacity="1.00" d=" M 59.73 26.21 C 66.55 24.48 72.49 20.58 78.79 17.60 C 75.74 23.89 71.39 29.84 70.70 36.99 C 69.39 35.84 68.07 34.70 66.75 33.57 C 68.97 30.02 71.25 26.50 73.41 22.90 C 69.90 25.01 66.46 27.23 63.02 29.44 C 61.92 28.36 60.83 27.28 59.73 26.21 Z" />
<path fill="#ffffff" opacity="1.00" d=" M 30.02 40.02 C 36.24 36.08 42.04 30.02 50.01 30.44 C 57.97 30.02 63.76 36.08 69.98 40.03 C 75.46 43.81 81.77 46.09 88.20 47.64 C 79.93 49.99 71.34 52.15 64.28 57.29 C 60.38 60.17 56.02 62.92 50.99 62.91 C 45.83 63.34 40.90 61.22 36.89 58.11 C 29.58 52.48 20.54 50.06 11.80 47.64 C 18.23 46.09 24.55 43.81 30.02 40.02 M 38.76 37.74 C 33.67 41.37 28.25 44.54 22.63 47.27 C 27.54 49.17 32.51 51.10 36.84 54.17 C 40.52 56.74 44.34 59.76 49.06 59.80 C 53.63 60.25 57.86 58.10 61.37 55.41 C 66.18 51.75 71.75 49.36 77.37 47.27 C 72.64 44.91 67.97 42.40 63.63 39.37 C 59.81 36.75 55.82 33.77 51.00 33.60 C 46.52 33.20 42.31 35.20 38.76 37.74 Z" />
<path fill="#941271" opacity="1.00" d=" M 38.76 37.74 C 42.31 35.20 46.52 33.20 51.00 33.60 C 55.82 33.77 59.81 36.75 63.63 39.37 C 67.97 42.40 72.64 44.91 77.37 47.27 C 71.75 49.36 66.18 51.75 61.37 55.41 C 57.86 58.10 53.63 60.25 49.06 59.80 C 44.34 59.76 40.52 56.74 36.84 54.17 C 32.51 51.10 27.54 49.17 22.63 47.27 C 28.25 44.54 33.67 41.37 38.76 37.74 M 47.50 40.49 C 42.78 41.82 41.35 48.73 45.35 51.68 C 49.33 55.42 56.98 52.55 57.01 46.94 C 57.34 42.11 51.80 38.79 47.50 40.49 Z" />
<path fill="#ffffff" opacity="1.00" d=" M 47.50 40.49 C 51.80 38.79 57.34 42.11 57.01 46.94 C 56.98 52.55 49.33 55.42 45.35 51.68 C 41.35 48.73 42.78 41.82 47.50 40.49 Z" />
<path fill="#ffffff" opacity="1.00" d=" M 28.16 55.91 C 29.72 57.07 31.30 58.20 32.88 59.32 C 30.45 63.01 28.05 66.72 25.82 70.53 C 29.67 68.18 33.42 65.65 37.12 63.04 C 38.53 64.51 39.96 65.98 41.38 67.44 C 33.38 67.31 27.05 72.85 20.19 76.12 C 22.25 71.58 24.68 67.22 26.93 62.77 C 28.11 60.68 28.18 58.25 28.16 55.91 Z" />
<path fill="#ffffff" opacity="1.00" d=" M 66.94 59.91 C 68.32 58.86 69.70 57.81 71.07 56.75 C 71.88 64.32 77.03 70.32 79.98 77.11 C 75.05 74.77 70.39 71.93 65.55 69.42 C 62.90 67.85 59.76 68.40 56.85 68.56 C 58.67 66.98 60.45 65.36 62.21 63.71 C 66.20 66.32 70.22 68.89 74.27 71.40 C 71.98 67.48 69.51 63.66 66.94 59.91 Z" />
</svg>
