<?xml version="1.0" encoding="UTF-8" ?>
<!DOCTYPE svg PUBLIC "-//W3C//DTD SVG 1.1//EN" "http://www.w3.org/Graphics/SVG/1.1/DTD/svg11.dtd">
<svg width="100pt" height="100pt" viewBox="0 0 100 100" version="1.1" xmlns="http://www.w3.org/2000/svg">
<path fill="#b8b8b8" opacity="1.00" d=" M 11.24 49.98 C 23.39 35.98 35.55 21.97 47.88 8.13 C 52.80 13.57 57.56 19.15 62.40 24.66 C 64.15 23.47 65.72 21.40 68.00 21.44 C 70.42 22.34 72.27 24.24 74.58 25.36 C 77.78 26.47 81.89 25.87 84.22 28.82 C 87.12 32.53 87.72 37.49 88.50 42.01 C 87.31 46.09 84.25 49.44 81.88 52.92 C 70.63 65.99 59.18 78.89 47.86 91.90 C 45.77 89.51 43.69 87.12 41.61 84.72 C 38.99 87.01 36.85 90.03 33.67 91.54 C 29.58 91.85 24.41 93.11 21.23 89.77 C 18.11 87.03 15.25 83.44 15.54 79.03 C 14.68 72.16 18.50 65.92 19.03 59.28 C 16.79 55.90 13.84 53.07 11.24 49.98 M 16.73 49.92 C 18.62 52.22 20.50 54.53 22.35 56.86 C 19.55 63.19 18.25 70.12 18.17 77.02 C 18.15 80.25 18.35 83.80 20.59 86.35 C 23.24 90.02 28.41 90.24 32.46 89.44 C 36.54 87.01 39.18 82.85 42.12 79.23 C 44.03 81.34 45.97 83.44 47.92 85.51 C 56.46 76.17 64.56 66.43 73.04 57.04 C 76.10 53.75 78.11 49.51 81.84 46.86 C 83.32 45.50 85.62 44.29 85.51 41.98 C 85.31 38.07 84.77 33.86 82.43 30.60 C 80.48 28.05 76.97 29.27 74.27 29.26 C 71.87 26.95 69.18 24.92 66.09 23.64 C 65.70 26.84 65.58 30.06 65.39 33.28 C 58.72 27.81 53.98 20.48 47.89 14.42 C 37.25 26.02 27.00 37.98 16.73 49.92 Z" />
<path fill="#b61c2e" opacity="1.00" d=" M 16.73 49.92 C 27.00 37.98 37.25 26.02 47.89 14.42 C 53.98 20.48 58.72 27.81 65.39 33.28 C 65.58 30.06 65.70 26.84 66.09 23.64 C 69.18 24.92 71.87 26.95 74.27 29.26 C 76.97 29.27 80.48 28.05 82.43 30.60 C 84.77 33.86 85.31 38.07 85.51 41.98 C 85.62 44.29 83.32 45.50 81.84 46.86 C 78.11 49.51 76.10 53.75 73.04 57.04 C 64.56 66.43 56.46 76.17 47.92 85.51 C 45.97 83.44 44.03 81.34 42.12 79.23 C 39.18 82.85 36.54 87.01 32.46 89.44 C 28.41 90.24 23.24 90.02 20.59 86.35 C 18.35 83.80 18.15 80.25 18.17 77.02 C 18.25 70.12 19.55 63.19 22.35 56.86 C 20.50 54.53 18.62 52.22 16.73 49.92 M 67.67 26.70 C 67.76 29.07 67.86 31.44 67.96 33.81 C 64.90 34.94 61.85 36.10 58.88 37.44 C 61.34 38.91 64.08 39.80 66.97 39.65 C 65.07 40.32 63.19 41.03 61.32 41.75 C 59.85 37.66 54.83 38.19 51.98 40.52 C 53.56 41.63 55.11 42.78 56.70 43.88 C 55.49 46.33 54.34 48.80 53.34 51.34 C 60.98 48.87 68.42 45.82 75.98 43.08 C 74.77 39.62 73.93 36.04 73.22 32.44 C 72.37 34.48 71.53 36.52 70.63 38.54 C 71.10 35.79 71.64 33.05 72.12 30.30 C 70.62 29.12 69.15 27.90 67.67 26.70 M 76.27 30.42 C 77.31 32.30 78.56 34.08 79.31 36.11 C 79.50 38.38 78.84 40.61 78.56 42.86 C 82.86 41.73 83.85 36.72 81.78 33.20 C 80.86 30.99 78.23 30.99 76.27 30.42 M 44.21 33.28 C 43.68 34.91 44.22 35.47 45.85 34.96 C 46.38 33.32 45.84 32.77 44.21 33.28 M 35.91 33.91 C 36.99 35.60 38.33 37.09 39.90 38.35 C 38.82 36.66 37.49 35.14 35.91 33.91 M 48.43 36.10 C 47.06 40.94 44.86 45.48 44.59 50.58 C 41.57 53.22 37.36 53.81 34.17 56.20 C 32.50 57.65 31.79 59.84 30.83 61.76 C 33.82 62.90 36.72 64.60 39.96 64.90 C 42.92 64.44 45.56 62.91 48.38 62.01 C 45.42 64.89 41.49 66.31 37.87 68.15 C 42.46 67.71 47.78 66.27 49.99 61.80 C 50.03 59.36 48.85 57.13 48.10 54.87 C 49.09 54.26 50.08 53.66 51.07 53.07 C 51.23 54.38 51.38 55.70 51.54 57.02 C 61.39 51.43 72.81 49.26 82.72 43.82 C 72.24 45.01 62.90 50.46 52.78 53.09 C 52.17 50.12 53.51 47.40 54.94 44.89 C 52.22 42.40 49.99 39.44 48.43 36.10 M 42.52 37.27 C 41.00 39.76 39.95 42.77 37.40 44.42 C 34.06 46.65 30.50 48.73 27.94 51.92 C 22.88 57.73 21.17 65.55 20.36 73.00 C 19.87 75.66 21.51 78.11 23.44 79.76 C 26.20 80.96 28.71 78.11 29.80 75.85 C 31.38 71.62 31.81 66.21 28.21 62.86 C 29.12 59.71 30.48 56.68 32.51 54.09 C 32.00 52.87 31.48 51.65 30.97 50.43 C 32.91 51.30 34.74 52.67 36.92 52.82 C 39.19 52.56 41.43 51.45 42.85 49.64 C 43.14 47.21 42.24 44.86 41.67 42.53 C 42.73 41.55 43.78 40.56 44.82 39.57 C 44.06 38.81 43.29 38.04 42.52 37.27 M 34.24 39.22 C 33.72 40.84 34.28 41.39 35.92 40.87 C 36.43 39.25 35.87 38.70 34.24 39.22 M 32.99 67.51 C 32.26 71.55 34.18 75.12 36.51 78.24 C 34.38 80.96 32.12 83.87 28.80 85.15 C 24.77 85.41 22.53 81.35 19.72 79.15 C 20.67 82.14 21.63 85.67 24.66 87.21 C 27.46 87.79 31.03 88.52 33.32 86.30 C 35.68 84.17 38.08 81.91 39.54 79.05 C 38.31 74.79 35.08 71.40 32.99 67.51 Z" />
<path fill="#ffffff" opacity="1.00" d=" M 67.67 26.70 C 69.15 27.90 70.62 29.12 72.12 30.30 C 71.64 33.05 71.10 35.79 70.63 38.54 C 71.53 36.52 72.37 34.48 73.22 32.44 C 73.93 36.04 74.77 39.62 75.98 43.08 C 68.42 45.82 60.98 48.87 53.34 51.34 C 54.34 48.80 55.49 46.33 56.70 43.88 C 55.11 42.78 53.56 41.63 51.98 40.52 C 54.83 38.19 59.85 37.66 61.32 41.75 C 63.19 41.03 65.07 40.32 66.97 39.65 C 64.08 39.80 61.34 38.91 58.88 37.44 C 61.85 36.10 64.90 34.94 67.96 33.81 C 67.86 31.44 67.76 29.07 67.67 26.70 Z" />
<path fill="#ffffff" opacity="1.00" d=" M 76.27 30.42 C 78.23 30.99 80.86 30.99 81.78 33.20 C 83.85 36.72 82.86 41.73 78.56 42.86 C 78.84 40.61 79.50 38.38 79.31 36.11 C 78.56 34.08 77.31 32.30 76.27 30.42 Z" />
<path fill="#e5adb4" opacity="1.00" d=" M 44.21 33.28 C 45.84 32.77 46.38 33.32 45.85 34.96 C 44.22 35.47 43.68 34.91 44.21 33.28 Z" />
<path fill="#ffffff" opacity="1.00" d=" M 35.91 33.91 C 37.49 35.14 38.82 36.66 39.90 38.35 C 38.33 37.09 36.99 35.60 35.91 33.91 Z" />
<path fill="#ffffff" opacity="1.00" d=" M 48.43 36.10 C 49.99 39.44 52.22 42.40 54.94 44.89 C 53.51 47.40 52.17 50.12 52.78 53.09 C 62.90 50.46 72.24 45.01 82.72 43.82 C 72.81 49.26 61.39 51.43 51.54 57.02 C 51.38 55.70 51.23 54.38 51.07 53.07 C 50.08 53.66 49.09 54.26 48.10 54.87 C 48.85 57.13 50.03 59.36 49.99 61.80 C 47.78 66.27 42.46 67.71 37.87 68.15 C 41.49 66.31 45.42 64.89 48.38 62.01 C 45.56 62.91 42.92 64.44 39.96 64.90 C 36.72 64.60 33.82 62.90 30.83 61.76 C 31.79 59.84 32.50 57.65 34.17 56.20 C 37.36 53.81 41.57 53.22 44.59 50.58 C 44.86 45.48 47.06 40.94 48.43 36.10 M 42.33 53.49 C 42.09 55.76 41.85 58.02 41.68 60.29 C 40.51 59.15 39.33 58.02 38.13 56.90 C 36.99 59.17 37.86 61.41 39.06 63.45 C 42.42 62.97 46.04 61.36 46.43 57.54 C 47.47 54.96 43.98 54.33 42.33 53.49 Z" />
<path fill="#ffffff" opacity="1.00" d=" M 42.52 37.27 C 43.29 38.04 44.06 38.81 44.82 39.57 C 43.78 40.56 42.73 41.55 41.67 42.53 C 42.24 44.86 43.14 47.21 42.85 49.64 C 41.43 51.45 39.19 52.56 36.92 52.82 C 34.74 52.67 32.91 51.30 30.97 50.43 C 31.48 51.65 32.00 52.87 32.51 54.09 C 30.48 56.68 29.12 59.71 28.21 62.86 C 31.81 66.21 31.38 71.62 29.80 75.85 C 28.71 78.11 26.20 80.96 23.44 79.76 C 21.51 78.11 19.87 75.66 20.36 73.00 C 21.17 65.55 22.88 57.73 27.94 51.92 C 30.50 48.73 34.06 46.65 37.40 44.42 C 39.95 42.77 41.00 39.76 42.52 37.27 Z" />
<path fill="#ecc3c8" opacity="1.00" d=" M 34.24 39.22 C 35.87 38.70 36.43 39.25 35.92 40.87 C 34.28 41.39 33.72 40.84 34.24 39.22 Z" />
<path fill="#b21023" opacity="1.00" d=" M 42.33 53.49 C 43.98 54.33 47.47 54.96 46.43 57.54 C 46.04 61.36 42.42 62.97 39.06 63.45 C 37.86 61.41 36.99 59.17 38.13 56.90 C 39.33 58.02 40.51 59.15 41.68 60.29 C 41.85 58.02 42.09 55.76 42.33 53.49 Z" />
<path fill="#ffffff" opacity="1.00" d=" M 32.99 67.51 C 35.08 71.40 38.31 74.79 39.54 79.05 C 38.08 81.91 35.68 84.17 33.32 86.30 C 31.03 88.52 27.46 87.79 24.66 87.21 C 21.63 85.67 20.67 82.14 19.72 79.15 C 22.53 81.35 24.77 85.41 28.80 85.15 C 32.12 83.87 34.38 80.96 36.51 78.24 C 34.18 75.12 32.26 71.55 32.99 67.51 Z" />
</svg>
