<?xml version="1.0" encoding="UTF-8" ?>
<!DOCTYPE svg PUBLIC "-//W3C//DTD SVG 1.1//EN" "http://www.w3.org/Graphics/SVG/1.1/DTD/svg11.dtd">
<svg width="100pt" height="100pt" viewBox="0 0 100 100" version="1.1" xmlns="http://www.w3.org/2000/svg">
<path fill="#edc548" opacity="1.00" d=" M 33.23 18.20 C 37.45 13.18 41.72 8.20 46.09 3.31 C 51.61 9.35 56.81 15.67 62.16 21.85 C 64.00 24.22 66.99 25.03 69.31 26.76 C 71.36 30.23 71.95 35.26 76.24 36.81 C 82.12 39.08 88.19 40.81 94.13 42.91 C 91.79 44.61 89.18 45.98 87.15 48.07 C 85.34 50.60 83.81 53.34 81.70 55.66 C 69.75 69.27 58.11 83.14 46.09 96.69 C 32.54 81.20 19.17 65.56 5.70 50.00 C 8.35 46.95 10.98 43.89 13.58 40.80 C 13.14 38.02 12.21 35.12 13.16 32.34 C 13.91 28.86 16.84 26.54 19.62 24.63 C 22.26 22.85 25.73 24.00 28.55 22.71 C 30.43 21.57 31.80 19.82 33.23 18.20 M 32.61 23.65 C 28.76 27.88 21.62 25.46 18.04 30.08 C 14.91 33.22 16.93 37.80 16.51 41.64 C 14.99 44.83 12.31 47.27 10.12 50.00 C 17.75 59.31 25.83 68.23 33.64 77.40 C 37.75 82.14 41.70 87.04 46.08 91.55 C 56.33 80.60 65.66 68.81 75.73 57.69 C 77.93 55.35 79.75 52.70 81.39 49.94 C 83.12 46.96 86.46 45.59 89.16 43.66 C 84.09 41.91 78.72 41.15 73.73 39.16 C 69.42 37.40 69.67 31.64 66.22 29.03 C 57.76 24.07 53.16 14.98 46.09 8.46 C 41.24 13.20 37.36 18.81 32.61 23.65 Z" />
<path fill="#b7bbbc" opacity="1.00" d=" M 32.61 23.65 C 37.36 18.81 41.24 13.20 46.09 8.46 C 53.16 14.98 57.76 24.07 66.22 29.03 C 69.67 31.64 69.42 37.40 73.73 39.16 C 78.72 41.15 84.09 41.91 89.16 43.66 C 86.46 45.59 83.12 46.96 81.39 49.94 C 79.75 52.70 77.93 55.35 75.73 57.69 C 65.66 68.81 56.33 80.60 46.08 91.55 C 41.70 87.04 37.75 82.14 33.64 77.40 C 25.83 68.23 17.75 59.31 10.12 50.00 C 12.31 47.27 14.99 44.83 16.51 41.64 C 16.93 37.80 14.91 33.22 18.04 30.08 C 21.62 25.46 28.76 27.88 32.61 23.65 M 35.83 24.84 C 31.47 29.59 23.36 26.19 19.16 31.21 C 15.85 34.82 19.23 39.59 18.94 43.73 C 17.71 46.09 15.86 48.04 14.18 50.07 C 24.60 62.59 35.38 74.79 46.10 87.05 C 48.09 85.00 49.89 82.76 51.39 80.33 L 52.40 80.49 C 52.25 79.73 51.94 78.20 51.79 77.44 C 52.30 77.56 53.33 77.81 53.85 77.93 C 61.94 69.03 69.66 59.79 77.52 50.68 C 77.21 49.51 76.90 48.34 76.59 47.17 C 79.68 46.18 82.73 45.07 85.67 43.69 C 83.69 43.68 81.70 43.60 79.75 43.94 L 80.40 43.62 L 79.94 43.49 L 80.61 43.51 C 77.70 41.09 73.64 41.38 70.44 39.60 C 68.68 36.82 67.72 33.63 66.44 30.62 C 63.34 29.65 59.87 28.96 57.68 26.34 C 53.74 21.96 50.16 17.25 46.05 13.01 C 42.48 16.82 39.37 21.02 35.83 24.84 Z" />
<path fill="#b61c2e" opacity="1.00" d=" M 35.83 24.84 C 39.37 21.02 42.48 16.82 46.05 13.01 C 50.16 17.25 53.74 21.96 57.68 26.34 C 59.87 28.96 63.34 29.65 66.44 30.62 C 67.72 33.63 68.68 36.82 70.44 39.60 C 73.64 41.38 77.70 41.09 80.61 43.51 L 79.94 43.49 C 76.50 42.93 72.90 42.81 69.67 41.38 C 67.21 38.75 66.57 34.99 65.23 31.74 C 61.36 31.02 57.49 30.30 53.62 29.56 C 52.56 27.22 51.49 24.88 50.41 22.55 C 49.10 22.13 47.79 21.72 46.48 21.30 C 49.35 24.31 51.58 27.82 53.58 31.45 C 58.02 32.11 62.56 32.87 66.43 35.29 C 64.48 36.10 62.52 36.88 60.54 37.63 C 60.26 36.89 59.98 36.15 59.70 35.42 C 57.75 35.52 55.70 35.95 53.80 35.28 C 51.41 34.15 49.53 32.24 47.48 30.62 C 48.58 32.20 49.60 33.84 50.70 35.42 C 48.83 37.02 46.98 38.63 45.13 40.24 C 47.88 39.25 50.52 37.31 53.54 37.47 C 58.38 38.72 61.78 42.66 65.16 46.07 C 61.36 48.53 57.26 50.72 54.40 54.35 C 57.52 54.07 61.32 54.74 63.71 52.22 C 65.65 50.21 68.07 48.80 70.63 47.71 C 70.17 52.66 67.45 56.83 64.88 60.92 C 66.69 59.08 68.60 57.31 70.04 55.15 C 71.66 52.62 71.83 49.32 73.93 47.09 C 75.70 45.75 77.76 44.90 79.75 43.94 C 81.70 43.60 83.69 43.68 85.67 43.69 C 82.73 45.07 79.68 46.18 76.59 47.17 C 76.90 48.34 77.21 49.51 77.52 50.68 C 69.66 59.79 61.94 69.03 53.85 77.93 C 53.33 77.81 52.30 77.56 51.79 77.44 C 48.96 76.93 46.07 76.93 43.21 76.85 C 41.18 72.78 38.54 69.03 35.09 66.02 C 34.10 67.26 33.12 68.52 32.17 69.79 C 33.16 70.68 34.16 71.58 35.15 72.48 C 35.96 71.71 36.78 70.95 37.59 70.18 C 39.40 73.02 40.82 76.30 43.57 78.38 C 45.98 79.64 48.76 79.81 51.39 80.33 C 49.89 82.76 48.09 85.00 46.10 87.05 C 35.38 74.79 24.60 62.59 14.18 50.07 C 15.86 48.04 17.71 46.09 18.94 43.73 C 19.23 39.59 15.85 34.82 19.16 31.21 C 23.36 26.19 31.47 29.59 35.83 24.84 M 23.31 30.23 C 20.52 30.83 18.60 33.94 19.36 36.69 C 19.97 39.27 20.95 41.75 21.73 44.28 C 22.32 44.45 23.49 44.77 24.07 44.93 C 22.90 41.88 21.26 38.98 20.47 35.79 C 20.11 33.49 22.19 31.60 24.33 31.25 C 28.31 30.47 32.52 29.36 36.55 30.31 C 38.22 31.91 39.52 33.93 40.26 36.12 C 40.56 39.30 39.47 42.40 38.88 45.48 C 41.07 42.00 43.28 37.29 40.53 33.48 C 39.05 31.46 37.67 28.12 34.67 28.48 C 30.83 28.58 27.02 29.28 23.31 30.23 M 35.40 36.30 C 31.28 39.43 26.83 43.02 26.56 48.66 C 27.75 49.09 28.95 49.52 30.15 49.95 C 31.09 48.46 32.03 46.96 32.92 45.44 C 33.58 45.60 34.23 45.76 34.88 45.92 C 35.51 48.03 36.10 50.16 36.71 52.28 C 41.72 50.97 46.99 52.22 51.99 50.93 C 54.00 50.50 54.97 48.48 56.27 47.10 C 58.02 46.93 59.76 46.72 61.50 46.53 C 60.62 45.27 60.39 43.64 59.33 42.52 C 54.80 41.98 51.09 45.28 47.45 47.43 C 43.66 48.52 39.82 46.59 36.21 45.56 C 36.92 43.40 37.63 41.24 38.31 39.08 C 37.34 38.15 36.37 37.22 35.40 36.30 M 17.96 50.09 C 16.90 52.38 19.53 53.76 20.74 55.30 C 21.29 52.12 21.73 48.91 21.89 45.69 C 20.31 46.86 18.19 47.89 17.96 50.09 M 24.09 46.79 C 23.74 50.09 23.24 53.37 22.40 56.58 C 25.62 60.28 27.99 64.62 31.22 68.30 C 32.92 66.75 34.37 64.94 35.14 62.75 C 33.08 61.78 31.01 60.83 28.97 59.80 C 30.97 58.89 33.01 58.11 35.07 57.38 C 35.06 56.67 35.06 55.24 35.05 54.53 C 32.40 55.99 29.87 57.66 27.28 59.25 C 26.39 58.28 25.48 57.31 24.57 56.36 C 28.38 57.65 31.46 55.28 34.10 52.84 C 34.06 51.60 34.03 50.36 33.99 49.11 C 32.33 50.10 30.72 51.20 28.93 51.92 C 26.45 51.35 25.54 48.59 24.09 46.79 M 59.87 59.98 C 57.72 59.83 55.57 59.67 53.42 59.52 C 52.95 61.78 53.67 65.14 50.87 66.04 C 48.09 67.66 45.88 64.71 43.76 63.35 C 44.95 64.98 46.15 66.60 47.33 68.24 C 49.48 67.55 51.76 67.04 53.66 65.77 C 54.56 64.40 55.06 62.81 55.67 61.30 C 57.64 61.05 59.60 60.80 61.56 60.55 C 62.39 58.73 63.23 56.93 64.05 55.11 C 62.64 56.72 61.26 58.35 59.87 59.98 Z" />
<path fill="#ffffff" opacity="1.00" d=" M 46.48 21.30 C 47.79 21.72 49.10 22.13 50.41 22.55 C 51.49 24.88 52.56 27.22 53.62 29.56 C 57.49 30.30 61.36 31.02 65.23 31.74 C 66.57 34.99 67.21 38.75 69.67 41.38 C 72.90 42.81 76.50 42.93 79.94 43.49 L 80.40 43.62 L 79.75 43.94 C 77.76 44.90 75.70 45.75 73.93 47.09 C 71.83 49.32 71.66 52.62 70.04 55.15 C 68.60 57.31 66.69 59.08 64.88 60.92 C 67.45 56.83 70.17 52.66 70.63 47.71 C 68.07 48.80 65.65 50.21 63.71 52.22 C 61.32 54.74 57.52 54.07 54.40 54.35 C 57.26 50.72 61.36 48.53 65.16 46.07 C 61.78 42.66 58.38 38.72 53.54 37.47 C 50.52 37.31 47.88 39.25 45.13 40.24 C 46.98 38.63 48.83 37.02 50.70 35.42 C 49.60 33.84 48.58 32.20 47.48 30.62 C 49.53 32.24 51.41 34.15 53.80 35.28 C 55.70 35.95 57.75 35.52 59.70 35.42 C 59.98 36.15 60.26 36.89 60.54 37.63 C 62.52 36.88 64.48 36.10 66.43 35.29 C 62.56 32.87 58.02 32.11 53.58 31.45 C 51.58 27.82 49.35 24.31 46.48 21.30 M 62.95 37.96 C 63.38 39.27 63.82 40.58 64.26 41.89 C 65.15 41.57 66.04 41.26 66.94 40.97 C 66.56 40.02 66.19 39.07 65.81 38.12 C 65.10 38.08 63.66 38.00 62.95 37.96 M 67.11 45.11 C 66.66 46.51 67.13 46.99 68.54 46.54 C 68.99 45.13 68.51 44.66 67.11 45.11 Z" />
<path fill="#ffffff" opacity="1.00" d=" M 23.31 30.23 C 27.02 29.28 30.83 28.58 34.67 28.48 C 37.67 28.12 39.05 31.46 40.53 33.48 C 43.28 37.29 41.07 42.00 38.88 45.48 C 39.47 42.40 40.56 39.30 40.26 36.12 C 39.52 33.93 38.22 31.91 36.55 30.31 C 32.52 29.36 28.31 30.47 24.33 31.25 C 22.19 31.60 20.11 33.49 20.47 35.79 C 21.26 38.98 22.90 41.88 24.07 44.93 C 23.49 44.77 22.32 44.45 21.73 44.28 C 20.95 41.75 19.97 39.27 19.36 36.69 C 18.60 33.94 20.52 30.83 23.31 30.23 Z" />
<path fill="#ffffff" opacity="1.00" d=" M 35.40 36.30 C 36.37 37.22 37.34 38.15 38.31 39.08 C 37.63 41.24 36.92 43.40 36.21 45.56 C 39.82 46.59 43.66 48.52 47.45 47.43 C 51.09 45.28 54.80 41.98 59.33 42.52 C 60.39 43.64 60.62 45.27 61.50 46.53 C 59.76 46.72 58.02 46.93 56.27 47.10 C 54.97 48.48 54.00 50.50 51.99 50.93 C 46.99 52.22 41.72 50.97 36.71 52.28 C 36.10 50.16 35.51 48.03 34.88 45.92 C 34.23 45.76 33.58 45.60 32.92 45.44 C 32.03 46.96 31.09 48.46 30.15 49.95 C 28.95 49.52 27.75 49.09 26.56 48.66 C 26.83 43.02 31.28 39.43 35.40 36.30 Z" />
<path fill="#b61c2e" opacity="1.00" d=" M 62.95 37.96 C 63.66 38.00 65.10 38.08 65.81 38.12 C 66.19 39.07 66.56 40.02 66.94 40.97 C 66.04 41.26 65.15 41.57 64.26 41.89 C 63.82 40.58 63.38 39.27 62.95 37.96 Z" />
<path fill="#bc373f" opacity="1.00" d=" M 67.11 45.11 C 68.51 44.66 68.99 45.13 68.54 46.54 C 67.13 46.99 66.66 46.51 67.11 45.11 Z" />
<path fill="#ffffff" opacity="1.00" d=" M 17.96 50.09 C 18.19 47.89 20.31 46.86 21.89 45.69 C 21.73 48.91 21.29 52.12 20.74 55.30 C 19.53 53.76 16.90 52.38 17.96 50.09 Z" />
<path fill="#ffffff" opacity="1.00" d=" M 24.09 46.79 C 25.54 48.59 26.45 51.35 28.93 51.92 C 30.72 51.20 32.33 50.10 33.99 49.11 C 34.03 50.36 34.06 51.60 34.10 52.84 C 31.46 55.28 28.38 57.65 24.57 56.36 C 25.48 57.31 26.39 58.28 27.28 59.25 C 29.87 57.66 32.40 55.99 35.05 54.53 C 35.06 55.24 35.06 56.67 35.07 57.38 C 33.01 58.11 30.97 58.89 28.97 59.80 C 31.01 60.83 33.08 61.78 35.14 62.75 C 34.37 64.94 32.92 66.75 31.22 68.30 C 27.99 64.62 25.62 60.28 22.40 56.58 C 23.24 53.37 23.74 50.09 24.09 46.79 Z" />
<path fill="#ffffff" opacity="1.00" d=" M 59.87 59.98 C 61.26 58.35 62.64 56.72 64.05 55.11 C 63.23 56.93 62.39 58.73 61.56 60.55 C 59.60 60.80 57.64 61.05 55.67 61.30 C 55.06 62.81 54.56 64.40 53.66 65.77 C 51.76 67.04 49.48 67.55 47.33 68.24 C 46.15 66.60 44.95 64.98 43.76 63.35 C 45.88 64.71 48.09 67.66 50.87 66.04 C 53.67 65.14 52.95 61.78 53.42 59.52 C 55.57 59.67 57.72 59.83 59.87 59.98 Z" />
<path fill="#ffffff" opacity="1.00" d=" M 32.17 69.79 C 33.12 68.52 34.10 67.26 35.09 66.02 C 38.54 69.03 41.18 72.78 43.21 76.85 C 46.07 76.93 48.96 76.93 51.79 77.44 C 51.94 78.20 52.25 79.73 52.40 80.49 L 51.39 80.33 C 48.76 79.81 45.98 79.64 43.57 78.38 C 40.82 76.30 39.40 73.02 37.59 70.18 C 36.78 70.95 35.96 71.71 35.15 72.48 C 34.16 71.58 33.16 70.68 32.17 69.79 Z" />
</svg>
