<?xml version="1.0" encoding="UTF-8" ?>
<!DOCTYPE svg PUBLIC "-//W3C//DTD SVG 1.1//EN" "http://www.w3.org/Graphics/SVG/1.1/DTD/svg11.dtd">
<svg width="100pt" height="100pt" viewBox="0 0 100 100" version="1.1" xmlns="http://www.w3.org/2000/svg">
<path fill="#bac0bc" opacity="1.00" d=" M 42.63 19.61 C 44.91 18.07 46.53 15.63 49.11 14.54 C 52.96 13.53 55.02 17.43 57.57 19.45 C 62.58 20.36 67.74 19.66 72.81 19.89 C 73.47 21.69 74.12 23.48 74.78 25.28 C 77.22 25.96 80.17 25.98 81.92 28.07 C 83.51 29.80 84.87 31.73 86.25 33.64 C 84.09 35.75 81.95 37.89 79.81 40.02 C 81.05 43.31 81.87 46.96 84.47 49.51 C 86.79 51.93 89.08 54.36 91.23 56.94 C 89.11 59.28 87.18 62.11 84.05 63.17 C 80.18 64.65 76.77 67.03 73.39 69.40 C 65.89 74.77 57.66 79.22 51.04 85.75 C 45.49 83.38 41.28 78.93 36.21 75.79 C 28.95 71.39 22.59 65.28 14.36 62.71 C 11.78 61.63 10.45 58.97 8.71 56.95 C 11.76 51.67 18.03 48.65 19.50 42.45 C 21.15 38.46 17.25 35.25 15.69 31.93 C 17.06 30.00 18.23 27.89 19.98 26.27 C 21.63 25.64 23.42 25.54 25.11 25.04 C 26.10 23.46 26.70 21.69 27.45 20.00 C 32.50 19.67 37.60 20.21 42.63 19.61 M 44.49 22.25 C 39.83 23.26 34.99 22.04 30.32 22.98 C 28.65 24.43 27.81 26.57 26.67 28.41 C 24.02 28.99 21.48 29.97 19.25 31.52 C 20.65 33.95 22.64 36.20 23.28 38.99 C 22.92 46.54 17.38 52.12 12.40 57.18 C 16.42 60.08 20.96 62.12 25.07 64.88 C 33.40 70.56 41.71 76.27 50.10 81.86 C 62.33 73.42 74.68 65.18 87.14 57.12 C 84.88 54.64 82.40 52.32 80.53 49.51 C 78.42 46.12 77.55 42.17 76.42 38.39 C 78.35 36.73 80.22 35.02 82.12 33.34 C 80.14 30.23 76.76 28.87 73.20 28.53 C 72.32 26.65 71.46 24.76 70.61 22.87 C 66.41 22.66 62.19 22.82 57.99 22.55 C 54.69 22.55 53.03 18.96 50.10 18.06 C 48.16 19.37 46.50 21.05 44.49 22.25 Z" />
<path fill="#8a1b6c" opacity="1.00" d=" M 44.49 22.25 C 46.50 21.05 48.16 19.37 50.10 18.06 C 53.03 18.96 54.69 22.55 57.99 22.55 C 62.19 22.82 66.41 22.66 70.61 22.87 C 71.46 24.76 72.32 26.65 73.20 28.53 C 76.76 28.87 80.14 30.23 82.12 33.34 C 80.22 35.02 78.35 36.73 76.42 38.39 C 77.55 42.17 78.42 46.12 80.53 49.51 C 82.40 52.32 84.88 54.64 87.14 57.12 C 74.68 65.18 62.33 73.42 50.10 81.86 C 41.71 76.27 33.40 70.56 25.07 64.88 C 20.96 62.12 16.42 60.08 12.40 57.18 C 17.38 52.12 22.92 46.54 23.28 38.99 C 22.64 36.20 20.65 33.95 19.25 31.52 C 21.48 29.97 24.02 28.99 26.67 28.41 C 27.81 26.57 28.65 24.43 30.32 22.98 C 34.99 22.04 39.83 23.26 44.49 22.25 M 50.50 36.27 C 51.80 30.96 54.84 24.28 50.06 19.82 C 46.63 24.93 48.94 30.97 50.50 36.27 M 34.64 34.37 C 30.56 33.38 26.68 31.38 22.35 31.63 C 23.78 33.45 25.10 35.65 27.44 36.39 C 32.21 38.09 37.15 39.27 42.11 40.25 C 40.00 38.65 37.82 37.15 35.63 35.67 C 39.28 33.15 43.20 31.07 47.09 28.95 C 42.58 29.87 38.62 32.21 34.64 34.37 M 52.98 28.91 C 57.21 30.91 61.44 32.94 65.31 35.57 C 63.38 37.07 61.46 38.58 59.60 40.17 C 66.22 38.25 74.67 38.18 78.76 31.74 C 74.40 31.41 70.25 32.80 66.45 34.81 C 62.58 31.64 57.88 29.77 52.98 28.91 M 28.35 48.77 C 29.75 48.10 31.19 47.48 32.48 46.60 C 32.91 43.90 32.73 41.14 32.60 38.42 C 29.48 40.97 28.72 44.97 28.35 48.77 M 68.44 38.45 C 68.26 41.56 68.23 44.66 68.24 47.77 C 69.68 48.01 71.12 48.25 72.57 48.49 C 72.25 44.78 71.61 40.84 68.44 38.45 M 23.87 50.96 C 20.52 52.10 17.97 54.65 15.64 57.21 C 19.04 57.28 22.62 57.34 25.71 55.67 C 30.93 53.00 35.94 49.88 40.63 46.36 C 34.96 47.55 29.35 49.08 23.87 50.96 M 58.82 46.18 C 63.50 49.59 68.47 52.61 73.53 55.42 C 76.64 57.18 80.29 57.24 83.77 57.11 C 81.69 54.58 79.37 52.00 76.13 50.99 C 70.44 49.13 64.65 47.54 58.82 46.18 M 31.55 54.23 C 32.97 56.48 34.17 58.99 36.24 60.73 C 39.10 62.52 42.50 63.14 45.70 64.08 C 45.85 62.20 46.01 60.33 46.15 58.45 C 42.02 57.39 38.28 55.28 35.47 52.05 C 34.16 52.77 32.86 53.50 31.55 54.23 M 46.63 68.03 C 46.20 71.96 48.10 75.57 49.97 78.88 C 51.90 75.60 53.85 71.97 53.28 68.01 C 52.57 62.30 51.47 56.63 50.05 51.05 C 48.44 56.60 47.11 62.26 46.63 68.03 M 53.25 58.92 C 53.69 61.02 54.12 63.12 54.53 65.23 C 61.07 64.71 66.79 60.91 70.35 55.50 C 68.65 54.44 66.95 53.37 65.25 52.31 C 62.13 55.89 57.73 57.70 53.25 58.92 Z" />
<path fill="#ffffff" opacity="1.00" d=" M 50.50 36.27 C 48.94 30.97 46.63 24.93 50.06 19.82 C 54.84 24.28 51.80 30.96 50.50 36.27 Z" />
<path fill="#ffffff" opacity="1.00" d=" M 34.64 34.37 C 38.62 32.21 42.58 29.87 47.09 28.95 C 43.20 31.07 39.28 33.15 35.63 35.67 C 37.82 37.15 40.00 38.65 42.11 40.25 C 37.15 39.27 32.21 38.09 27.44 36.39 C 25.10 35.65 23.78 33.45 22.35 31.63 C 26.68 31.38 30.56 33.38 34.64 34.37 Z" />
<path fill="#ffffff" opacity="1.00" d=" M 52.98 28.91 C 57.88 29.77 62.58 31.64 66.45 34.81 C 70.25 32.80 74.40 31.41 78.76 31.74 C 74.67 38.18 66.22 38.25 59.60 40.17 C 61.46 38.58 63.38 37.07 65.31 35.57 C 61.44 32.94 57.21 30.91 52.98 28.91 Z" />
<path fill="#ffffff" opacity="1.00" d=" M 28.35 48.77 C 28.72 44.97 29.48 40.97 32.60 38.42 C 32.73 41.14 32.91 43.90 32.48 46.60 C 31.19 47.48 29.75 48.10 28.35 48.77 Z" />
<path fill="#ffffff" opacity="1.00" d=" M 68.44 38.45 C 71.61 40.84 72.25 44.78 72.57 48.49 C 71.12 48.25 69.68 48.01 68.24 47.77 C 68.23 44.66 68.26 41.56 68.44 38.45 Z" />
<path fill="#ffffff" opacity="1.00" d=" M 23.87 50.96 C 29.35 49.08 34.96 47.55 40.63 46.36 C 35.94 49.88 30.93 53.00 25.71 55.67 C 22.62 57.34 19.04 57.28 15.64 57.21 C 17.97 54.65 20.52 52.10 23.87 50.96 Z" />
<path fill="#ffffff" opacity="1.00" d=" M 58.82 46.18 C 64.65 47.54 70.44 49.13 76.13 50.99 C 79.37 52.00 81.69 54.58 83.77 57.11 C 80.29 57.24 76.64 57.18 73.53 55.42 C 68.47 52.61 63.50 49.59 58.82 46.18 Z" />
<path fill="#ffffff" opacity="1.00" d=" M 31.55 54.23 C 32.86 53.50 34.16 52.77 35.47 52.05 C 38.28 55.28 42.02 57.39 46.15 58.45 C 46.01 60.33 45.85 62.20 45.70 64.08 C 42.50 63.14 39.10 62.52 36.24 60.73 C 34.17 58.99 32.97 56.48 31.55 54.23 Z" />
<path fill="#ffffff" opacity="1.00" d=" M 46.63 68.03 C 47.11 62.26 48.44 56.60 50.05 51.05 C 51.47 56.63 52.57 62.30 53.28 68.01 C 53.85 71.97 51.90 75.60 49.97 78.88 C 48.10 75.57 46.20 71.96 46.63 68.03 Z" />
<path fill="#ffffff" opacity="1.00" d=" M 53.25 58.92 C 57.73 57.70 62.13 55.89 65.25 52.31 C 66.95 53.37 68.65 54.44 70.35 55.50 C 66.79 60.91 61.07 64.71 54.53 65.23 C 54.12 63.12 53.69 61.02 53.25 58.92 Z" />
</svg>
