<?xml version="1.0" encoding="UTF-8" ?>
<!DOCTYPE svg PUBLIC "-//W3C//DTD SVG 1.1//EN" "http://www.w3.org/Graphics/SVG/1.1/DTD/svg11.dtd">
<svg width="100pt" height="100pt" viewBox="0 0 100 100" version="1.1" xmlns="http://www.w3.org/2000/svg">
<path fill="#ffffff" opacity="1.00" d=" M 44.41 12.66 C 60.45 10.01 77.45 19.11 84.16 33.91 C 89.83 45.72 88.70 60.47 81.22 71.24 C 73.35 83.06 58.45 89.58 44.42 87.35 C 30.81 85.44 18.76 75.47 14.35 62.46 C 9.56 49.10 13.13 33.22 23.31 23.30 C 28.96 17.62 36.48 13.84 44.41 12.66 M 41.45 16.68 C 27.33 20.12 16.31 33.43 15.66 47.97 C 14.81 60.30 21.32 72.67 31.80 79.17 C 43.22 86.51 59.06 86.05 69.98 77.97 C 80.80 70.35 86.49 56.21 83.74 43.22 C 81.62 32.59 74.14 23.20 64.28 18.70 C 57.20 15.44 49.00 14.76 41.45 16.68 Z" />
<path fill="#482b46" opacity="1.00" d=" M 41.45 16.68 C 49.00 14.76 57.20 15.44 64.28 18.70 C 74.14 23.20 81.62 32.59 83.74 43.22 C 86.49 56.21 80.80 70.35 69.98 77.97 C 59.06 86.05 43.22 86.51 31.80 79.17 C 21.32 72.67 14.81 60.30 15.66 47.97 C 16.31 33.43 27.33 20.12 41.45 16.68 M 44.85 27.89 C 44.02 30.21 46.12 32.13 46.71 34.25 C 47.76 38.05 47.65 42.04 48.06 45.94 C 46.38 45.18 44.71 44.43 43.03 43.71 C 44.62 46.21 46.32 48.65 48.04 51.06 C 47.29 51.82 46.54 52.57 45.79 53.33 C 41.50 50.63 37.40 47.63 33.18 44.81 C 28.80 41.85 22.82 40.40 20.89 34.89 C 19.67 38.06 18.07 41.24 18.01 44.71 C 20.66 47.40 24.48 48.43 27.77 50.14 C 33.20 52.42 38.40 56.25 44.58 55.71 C 45.82 58.25 47.52 60.60 48.31 63.34 C 48.43 65.83 47.61 68.26 47.65 70.75 C 48.15 73.09 49.76 74.98 50.97 76.99 C 53.92 72.08 51.82 66.50 52.68 61.23 C 53.89 58.69 56.32 56.85 58.94 55.91 C 66.89 52.91 74.45 48.99 82.25 45.61 C 81.67 41.91 80.60 38.31 79.13 34.87 C 77.87 37.28 76.44 39.78 73.79 40.87 C 66.79 44.26 60.78 49.24 54.20 53.33 C 53.45 52.57 52.70 51.81 51.95 51.05 C 53.67 48.65 55.37 46.22 56.98 43.74 C 55.14 44.48 53.32 45.27 51.49 46.04 C 52.23 40.74 50.57 33.93 55.38 30.21 C 53.73 25.63 51.95 21.09 49.79 16.71 C 47.91 20.32 46.06 23.99 44.85 27.89 M 23.54 37.32 C 31.46 41.39 38.63 46.63 46.08 51.46 C 43.27 47.20 40.84 42.54 37.15 38.95 C 32.81 37.46 28.08 37.63 23.54 37.32 M 62.85 38.95 C 59.16 42.54 56.73 47.20 53.92 51.46 C 61.36 46.63 68.54 41.40 76.45 37.32 C 71.91 37.63 67.19 37.46 62.85 38.95 M 21.11 48.80 C 21.61 49.75 22.12 50.71 22.62 51.66 C 22.03 52.92 20.31 54.03 20.89 55.58 C 22.32 59.22 24.75 62.37 26.84 65.65 C 32.83 64.58 38.82 63.46 44.60 61.53 C 41.26 64.36 37.67 66.89 34.60 70.03 C 37.11 69.16 39.79 68.53 41.97 66.95 C 43.73 65.31 44.96 63.20 46.33 61.25 C 38.35 56.27 29.46 53.06 21.11 48.80 M 53.71 61.24 C 55.06 63.20 56.27 65.31 58.02 66.95 C 60.22 68.51 62.89 69.16 65.40 70.04 C 62.34 66.90 58.75 64.36 55.41 61.54 C 61.49 63.62 67.85 64.62 74.17 65.64 C 76.12 62.10 77.96 58.51 79.83 54.94 C 78.95 53.91 78.06 52.90 77.18 51.88 C 77.75 50.86 78.32 49.85 78.89 48.82 C 70.54 53.05 61.66 56.25 53.71 61.24 Z" />
<path fill="#ffffff" opacity="1.00" d=" M 44.85 27.89 C 46.06 23.99 47.91 20.32 49.79 16.71 C 51.95 21.09 53.73 25.63 55.38 30.21 C 50.57 33.93 52.23 40.74 51.49 46.04 C 53.32 45.27 55.14 44.48 56.98 43.74 C 55.37 46.22 53.67 48.65 51.95 51.05 C 52.70 51.81 53.45 52.57 54.20 53.33 C 60.78 49.24 66.79 44.26 73.79 40.87 C 76.44 39.78 77.87 37.28 79.13 34.87 C 80.60 38.31 81.67 41.91 82.25 45.61 C 74.45 48.99 66.89 52.91 58.94 55.91 C 56.32 56.85 53.89 58.69 52.68 61.23 C 51.82 66.50 53.92 72.08 50.97 76.99 C 49.76 74.98 48.15 73.09 47.65 70.75 C 47.61 68.26 48.43 65.83 48.31 63.34 C 47.52 60.60 45.82 58.25 44.58 55.71 C 38.40 56.25 33.20 52.42 27.77 50.14 C 24.48 48.43 20.66 47.40 18.01 44.71 C 18.07 41.24 19.67 38.06 20.89 34.89 C 22.82 40.40 28.80 41.85 33.18 44.81 C 37.40 47.63 41.50 50.63 45.79 53.33 C 46.54 52.57 47.29 51.82 48.04 51.06 C 46.32 48.65 44.62 46.21 43.03 43.71 C 44.71 44.43 46.38 45.18 48.06 45.94 C 47.65 42.04 47.76 38.05 46.71 34.25 C 46.12 32.13 44.02 30.21 44.85 27.89 Z" />
<path fill="#ffffff" opacity="1.00" d=" M 23.54 37.32 C 28.08 37.63 32.81 37.46 37.15 38.95 C 40.84 42.54 43.27 47.20 46.08 51.46 C 38.63 46.63 31.46 41.39 23.54 37.32 Z" />
<path fill="#ffffff" opacity="1.00" d=" M 62.85 38.95 C 67.19 37.46 71.91 37.63 76.45 37.32 C 68.54 41.40 61.36 46.63 53.92 51.46 C 56.73 47.20 59.16 42.54 62.85 38.95 Z" />
<path fill="#ffffff" opacity="1.00" d=" M 21.11 48.80 C 29.46 53.06 38.35 56.27 46.33 61.25 C 44.96 63.20 43.73 65.31 41.97 66.95 C 39.79 68.53 37.11 69.16 34.60 70.03 C 37.67 66.89 41.26 64.36 44.60 61.53 C 38.82 63.46 32.83 64.58 26.84 65.65 C 24.75 62.37 22.32 59.22 20.89 55.58 C 20.31 54.03 22.03 52.92 22.62 51.66 C 22.12 50.71 21.61 49.75 21.11 48.80 M 23.54 54.02 C 24.56 57.18 26.08 60.30 28.47 62.66 C 32.09 63.69 35.86 62.19 39.46 61.59 C 35.90 59.42 32.27 57.37 28.72 55.19 C 27.14 54.36 25.34 52.81 23.54 54.02 Z" />
<path fill="#ffffff" opacity="1.00" d=" M 53.71 61.24 C 61.66 56.25 70.54 53.05 78.89 48.82 C 78.32 49.85 77.75 50.86 77.18 51.88 C 78.06 52.90 78.95 53.91 79.83 54.94 C 77.96 58.51 76.12 62.10 74.17 65.64 C 67.85 64.62 61.49 63.62 55.41 61.54 C 58.75 64.36 62.34 66.90 65.40 70.04 C 62.89 69.16 60.22 68.51 58.02 66.95 C 56.27 65.31 55.06 63.20 53.71 61.24 M 58.93 61.08 C 63.09 62.25 67.42 63.37 71.77 62.96 C 74.90 61.29 75.44 57.36 76.68 54.38 C 70.52 55.87 64.59 58.24 58.93 61.08 Z" />
<path fill="#482b46" opacity="1.00" d=" M 23.54 54.02 C 25.34 52.81 27.14 54.36 28.72 55.19 C 32.27 57.37 35.90 59.42 39.46 61.59 C 35.86 62.19 32.09 63.69 28.47 62.66 C 26.08 60.30 24.56 57.18 23.54 54.02 Z" />
<path fill="#482b46" opacity="1.00" d=" M 58.93 61.08 C 64.59 58.24 70.52 55.87 76.68 54.38 C 75.44 57.36 74.90 61.29 71.77 62.96 C 67.42 63.37 63.09 62.25 58.93 61.08 Z" />
</svg>
