<?xml version="1.0" encoding="UTF-8" ?>
<!DOCTYPE svg PUBLIC "-//W3C//DTD SVG 1.1//EN" "http://www.w3.org/Graphics/SVG/1.1/DTD/svg11.dtd">
<svg width="100pt" height="100pt" viewBox="0 0 100 100" version="1.1" xmlns="http://www.w3.org/2000/svg">
<path fill="#bdbcbb" opacity="1.00" d=" M 59.37 12.22 C 64.21 12.06 68.14 15.97 69.87 20.20 C 72.34 24.87 71.50 30.43 73.77 35.16 C 76.21 40.77 76.55 46.97 76.09 53.00 C 81.07 57.27 86.63 60.83 91.36 65.41 C 84.72 65.66 78.05 66.04 71.43 65.39 C 66.73 72.80 59.37 78.58 50.79 80.72 C 46.34 82.03 41.67 81.46 37.12 81.74 C 34.86 83.78 33.26 86.94 29.94 87.41 C 27.11 88.24 24.29 86.51 22.55 84.39 C 20.37 81.54 21.07 77.77 20.56 74.45 C 19.01 72.35 17.00 70.66 15.39 68.63 C 7.36 58.68 5.96 44.05 11.68 32.67 C 17.86 19.75 32.83 11.68 47.03 14.13 C 51.35 15.35 55.11 12.14 59.37 12.22 M 51.74 17.91 C 46.41 16.95 40.87 16.06 35.52 17.45 C 25.34 19.59 16.59 27.33 13.08 37.11 C 9.45 46.58 11.18 57.72 17.07 65.91 C 18.88 68.39 21.40 70.24 23.26 72.67 C 23.77 75.57 22.93 78.54 23.47 81.44 C 24.14 84.04 27.04 85.96 29.65 84.81 C 32.67 83.99 32.97 80.36 34.14 77.95 C 40.61 78.99 47.47 79.27 53.60 76.59 C 60.62 74.02 65.81 68.39 69.98 62.40 C 75.53 64.05 81.34 64.46 87.10 64.11 C 86.73 63.69 85.98 62.84 85.60 62.41 C 83.65 62.44 81.68 62.49 79.76 62.11 C 80.45 61.90 81.84 61.49 82.54 61.28 L 83.54 61.68 C 80.81 58.11 76.87 55.91 72.92 53.99 C 73.21 49.53 73.63 44.94 72.36 40.59 C 71.38 36.94 69.28 33.49 69.55 29.59 C 70.00 24.10 67.86 17.85 62.82 15.10 C 58.92 13.23 54.80 15.47 51.74 17.91 Z" />
<path fill="#2b4269" opacity="1.00" d=" M 51.74 17.91 C 54.80 15.47 58.92 13.23 62.82 15.10 C 67.86 17.85 70.00 24.10 69.55 29.59 C 69.28 33.49 71.38 36.94 72.36 40.59 C 73.63 44.94 73.21 49.53 72.92 53.99 C 76.87 55.91 80.81 58.11 83.54 61.68 L 82.54 61.28 C 73.70 57.61 64.68 54.39 55.87 50.66 C 53.28 48.91 54.97 45.26 55.15 42.73 C 55.21 44.65 55.23 46.58 55.25 48.50 C 57.76 48.78 60.28 49.03 62.80 49.25 C 62.83 46.40 61.95 43.69 60.46 41.28 C 61.19 38.80 61.99 36.35 62.74 33.87 C 61.09 36.66 59.54 39.50 57.91 42.30 C 58.34 37.85 59.26 32.96 56.20 29.17 C 57.76 29.95 59.34 30.72 60.92 31.48 C 62.75 29.25 64.62 27.05 66.57 24.92 C 64.99 22.31 64.02 18.59 60.81 17.56 C 56.52 16.79 54.27 22.40 50.05 22.11 C 42.89 22.07 35.81 19.93 28.63 20.96 C 35.40 22.69 42.29 23.86 49.16 25.11 C 52.15 26.06 54.29 23.43 56.50 21.90 C 55.70 23.62 54.92 25.36 54.19 27.11 C 51.75 26.32 49.09 25.11 46.59 26.40 C 42.71 27.74 40.75 33.08 36.12 32.33 C 29.64 32.04 23.22 30.81 16.72 31.13 C 23.28 33.25 30.17 34.00 36.91 35.34 C 35.62 38.25 34.32 41.15 33.00 44.04 C 26.08 43.64 19.19 42.54 12.23 42.71 C 18.32 45.12 24.89 45.72 31.24 47.08 C 30.74 49.05 30.24 51.01 29.74 52.98 C 24.01 52.80 18.29 52.16 12.54 52.35 C 17.71 54.11 23.14 54.88 28.50 55.79 C 27.81 58.37 27.17 60.96 26.67 63.58 C 29.04 61.53 31.20 59.25 33.22 56.86 C 33.94 56.94 35.37 57.10 36.09 57.18 C 35.37 60.27 35.20 64.41 31.63 65.64 C 26.95 66.15 22.23 65.29 17.53 65.59 C 21.33 67.61 25.58 68.48 29.81 69.03 C 26.79 73.00 25.25 78.08 27.06 82.94 C 30.79 80.43 30.80 75.58 33.24 72.19 C 35.55 70.39 38.62 70.09 41.36 69.30 C 41.78 68.22 42.20 67.14 42.63 66.06 C 43.58 67.92 44.51 69.79 45.45 71.66 C 46.14 71.83 47.52 72.18 48.21 72.35 C 48.33 70.03 48.43 67.72 48.60 65.41 C 47.47 65.72 46.35 66.14 45.18 66.24 C 44.01 65.59 43.01 64.69 41.95 63.89 C 44.51 63.16 47.12 62.16 49.83 62.41 C 51.88 63.94 53.44 66.02 55.12 67.94 C 53.22 66.97 51.33 65.98 49.41 65.05 C 50.57 66.99 51.49 69.84 54.24 69.70 C 57.40 70.67 59.62 68.09 61.64 66.12 C 60.05 62.13 58.45 58.14 56.88 54.14 C 64.45 56.91 71.88 60.31 79.76 62.11 C 81.68 62.49 83.65 62.44 85.60 62.41 C 85.98 62.84 86.73 63.69 87.10 64.11 C 81.34 64.46 75.53 64.05 69.98 62.40 C 65.81 68.39 60.62 74.02 53.60 76.59 C 47.47 79.27 40.61 78.99 34.14 77.95 C 32.97 80.36 32.67 83.99 29.65 84.81 C 27.04 85.96 24.14 84.04 23.47 81.44 C 22.93 78.54 23.77 75.57 23.26 72.67 C 21.40 70.24 18.88 68.39 17.07 65.91 C 11.18 57.72 9.45 46.58 13.08 37.11 C 16.59 27.33 25.34 19.59 35.52 17.45 C 40.87 16.06 46.41 16.95 51.74 17.91 Z" />
<path fill="#ffffff" opacity="1.00" d=" M 50.05 22.11 C 54.27 22.40 56.52 16.79 60.81 17.56 C 64.02 18.59 64.99 22.31 66.57 24.92 C 64.62 27.05 62.75 29.25 60.92 31.48 C 59.34 30.72 57.76 29.95 56.20 29.17 C 59.26 32.96 58.34 37.85 57.91 42.30 C 59.54 39.50 61.09 36.66 62.74 33.87 C 61.99 36.35 61.19 38.80 60.46 41.28 C 61.95 43.69 62.83 46.40 62.80 49.25 C 60.28 49.03 57.76 48.78 55.25 48.50 C 55.23 46.58 55.21 44.65 55.15 42.73 C 54.97 45.26 53.28 48.91 55.87 50.66 C 64.68 54.39 73.70 57.61 82.54 61.28 C 81.84 61.49 80.45 61.90 79.76 62.11 C 71.88 60.31 64.45 56.91 56.88 54.14 C 58.45 58.14 60.05 62.13 61.64 66.12 C 59.62 68.09 57.40 70.67 54.24 69.70 C 51.49 69.84 50.57 66.99 49.41 65.05 C 51.33 65.98 53.22 66.97 55.12 67.94 C 53.44 66.02 51.88 63.94 49.83 62.41 C 47.12 62.16 44.51 63.16 41.95 63.89 C 43.01 64.69 44.01 65.59 45.18 66.24 C 46.35 66.14 47.47 65.72 48.60 65.41 C 48.43 67.72 48.33 70.03 48.21 72.35 C 47.52 72.18 46.14 71.83 45.45 71.66 C 44.51 69.79 43.58 67.92 42.63 66.06 C 42.20 67.14 41.78 68.22 41.36 69.30 C 38.62 70.09 35.55 70.39 33.24 72.19 C 30.80 75.58 30.79 80.43 27.06 82.94 C 25.25 78.08 26.79 73.00 29.81 69.03 C 25.58 68.48 21.33 67.61 17.53 65.59 C 22.23 65.29 26.95 66.15 31.63 65.64 C 35.20 64.41 35.37 60.27 36.09 57.18 C 35.37 57.10 33.94 56.94 33.22 56.86 C 31.20 59.25 29.04 61.53 26.67 63.58 C 27.17 60.96 27.81 58.37 28.50 55.79 C 23.14 54.88 17.71 54.11 12.54 52.35 C 18.29 52.16 24.01 52.80 29.74 52.98 C 30.24 51.01 30.74 49.05 31.24 47.08 C 24.89 45.72 18.32 45.12 12.23 42.71 C 19.19 42.54 26.08 43.64 33.00 44.04 C 34.32 41.15 35.62 38.25 36.91 35.34 C 30.17 34.00 23.28 33.25 16.72 31.13 C 23.22 30.81 29.64 32.04 36.12 32.33 C 40.75 33.08 42.71 27.74 46.59 26.40 C 49.09 25.11 51.75 26.32 54.19 27.11 C 54.92 25.36 55.70 23.62 56.50 21.90 C 54.29 23.43 52.15 26.06 49.16 25.11 C 42.29 23.86 35.40 22.69 28.63 20.96 C 35.81 19.93 42.89 22.07 50.05 22.11 M 45.99 41.24 C 45.67 43.16 45.31 45.07 44.99 46.99 C 45.71 45.41 46.44 43.84 47.11 42.24 C 47.21 44.23 47.27 46.22 47.33 48.22 C 44.51 48.12 41.89 47.16 39.63 45.49 C 40.91 47.06 41.80 49.60 44.18 49.66 C 46.96 49.78 49.58 48.68 52.19 47.89 C 51.67 46.23 51.15 44.57 50.62 42.91 C 50.41 44.63 50.20 46.34 49.99 48.05 C 49.42 47.76 48.28 47.17 47.71 46.88 C 47.95 45.36 48.20 43.84 48.45 42.32 C 47.63 41.96 46.81 41.60 45.99 41.24 M 37.30 49.62 C 36.11 50.26 35.40 52.20 36.27 53.33 C 37.91 53.69 39.03 50.00 37.30 49.62 Z" />
<path fill="#2b4269" opacity="1.00" d=" M 45.99 41.24 C 46.81 41.60 47.63 41.96 48.45 42.32 C 48.20 43.84 47.95 45.36 47.71 46.88 C 48.28 47.17 49.42 47.76 49.99 48.05 C 50.20 46.34 50.41 44.63 50.62 42.91 C 51.15 44.57 51.67 46.23 52.19 47.89 C 49.58 48.68 46.96 49.78 44.18 49.66 C 41.80 49.60 40.91 47.06 39.63 45.49 C 41.89 47.16 44.51 48.12 47.33 48.22 C 47.27 46.22 47.21 44.23 47.11 42.24 C 46.44 43.84 45.71 45.41 44.99 46.99 C 45.31 45.07 45.67 43.16 45.99 41.24 Z" />
<path fill="#2b4269" opacity="1.00" d=" M 37.30 49.62 C 39.03 50.00 37.91 53.69 36.27 53.33 C 35.40 52.20 36.11 50.26 37.30 49.62 Z" />
</svg>
