<?xml version="1.0" encoding="UTF-8" ?>
<!DOCTYPE svg PUBLIC "-//W3C//DTD SVG 1.1//EN" "http://www.w3.org/Graphics/SVG/1.1/DTD/svg11.dtd">
<svg width="100pt" height="100pt" viewBox="0 0 100 100" version="1.1" xmlns="http://www.w3.org/2000/svg">
<path fill="#b6b7b7" opacity="1.00" d=" M 41.89 29.07 C 44.60 24.88 47.38 20.74 50.09 16.55 C 54.60 23.20 58.98 29.94 63.33 36.70 C 66.64 35.29 69.95 33.87 73.42 32.94 C 73.02 33.40 72.20 34.32 71.80 34.79 C 68.48 36.61 65.00 38.10 61.58 39.72 C 57.61 34.41 54.09 28.79 50.15 23.46 C 47.89 26.59 45.66 29.74 43.42 32.88 C 42.43 31.86 41.43 30.85 40.43 29.84 C 40.68 32.59 40.99 35.34 41.31 38.09 C 37.70 36.19 34.20 34.09 30.58 32.19 C 30.68 32.62 30.88 33.49 30.98 33.92 C 29.39 32.13 28.01 30.16 26.75 28.13 C 30.66 30.10 34.21 32.71 38.09 34.75 C 40.07 31.89 37.90 28.07 37.85 24.85 C 39.21 26.24 40.55 27.65 41.89 29.07 Z" />
<path fill="#217a7a" opacity="1.00" d=" M 43.42 32.88 C 45.66 29.74 47.89 26.59 50.15 23.46 C 54.09 28.79 57.61 34.41 61.58 39.72 C 65.00 38.10 68.48 36.61 71.80 34.79 C 71.27 35.55 70.69 36.29 70.08 37.00 C 68.52 38.32 66.87 39.54 65.19 40.70 C 62.28 41.57 59.37 42.44 56.49 43.43 C 56.26 43.10 56.03 42.76 55.81 42.41 C 52.04 38.05 52.37 31.91 50.70 26.67 C 50.37 31.88 50.18 37.10 49.89 42.32 C 47.89 39.90 45.95 37.45 43.97 35.02 C 44.51 37.79 45.10 40.54 45.68 43.30 C 42.79 41.42 39.91 39.53 36.93 37.81 C 38.66 40.10 40.26 42.59 42.61 44.30 C 49.21 48.23 58.15 47.04 63.73 41.82 C 66.78 43.78 70.05 45.42 73.50 46.55 C 76.01 47.44 78.86 48.19 80.40 50.56 C 84.07 55.60 87.48 60.83 90.45 66.32 C 86.25 65.83 82.09 65.11 77.97 64.19 C 80.65 67.89 83.02 71.80 85.40 75.69 C 61.98 75.88 38.55 75.62 15.12 75.81 C 17.64 72.10 20.03 68.31 22.44 64.54 C 18.59 65.20 14.73 65.79 10.86 66.25 C 14.58 59.44 18.84 52.95 23.19 46.53 C 28.69 48.10 33.46 44.59 37.96 42.00 C 36.22 39.47 34.21 37.14 31.86 35.16 C 31.64 34.85 31.20 34.23 30.98 33.92 C 30.88 33.49 30.68 32.62 30.58 32.19 C 34.20 34.09 37.70 36.19 41.31 38.09 C 40.99 35.34 40.68 32.59 40.43 29.84 C 41.43 30.85 42.43 31.86 43.42 32.88 M 31.65 47.25 C 34.30 47.37 36.95 47.41 39.60 47.36 C 38.40 46.60 37.25 45.70 35.87 45.27 C 34.30 45.48 33.01 46.53 31.65 47.25 M 65.46 45.41 C 64.37 46.01 63.45 46.85 62.46 47.59 C 65.11 47.53 67.76 47.34 70.41 47.12 C 68.85 46.40 67.30 44.97 65.46 45.41 M 33.54 49.08 C 33.68 50.69 33.82 52.30 33.96 53.92 C 35.45 54.01 36.94 54.10 38.43 54.18 C 38.11 52.01 37.76 49.84 37.38 47.67 C 36.10 48.14 34.82 48.61 33.54 49.08 M 41.06 47.75 C 41.37 48.91 41.69 50.07 42.02 51.23 C 41.64 51.38 40.87 51.68 40.49 51.84 C 40.66 52.58 41.00 54.08 41.17 54.83 C 43.68 54.86 46.20 55.03 48.68 54.62 C 51.31 53.07 48.27 50.56 47.04 49.15 C 46.66 49.31 45.89 49.64 45.50 49.80 C 44.06 49.04 42.57 48.37 41.06 47.75 M 57.93 48.35 C 57.80 48.58 57.55 49.05 57.43 49.28 C 55.59 50.04 53.76 50.81 51.95 51.62 C 52.35 52.70 52.76 53.78 53.18 54.85 C 55.84 54.80 58.51 54.76 61.18 54.74 C 60.87 52.61 60.59 50.48 60.38 48.34 C 59.56 48.35 58.74 48.35 57.93 48.35 M 63.89 48.56 C 63.89 50.42 63.89 52.29 63.89 54.16 C 65.55 54.06 67.21 53.95 68.87 53.85 C 68.80 52.19 68.73 50.54 68.67 48.88 C 67.07 48.78 65.48 48.66 63.89 48.56 M 21.70 51.89 C 24.20 51.66 27.15 51.73 28.54 49.19 C 25.84 48.90 22.75 48.84 21.70 51.89 M 28.33 51.33 C 29.08 52.31 29.75 53.34 30.48 54.35 C 30.54 52.55 30.69 50.75 30.86 48.96 C 30.02 49.75 29.17 50.54 28.33 51.33 M 71.63 49.58 C 70.72 50.64 70.85 52.75 71.91 53.68 C 73.95 53.64 73.59 49.47 71.63 49.58 M 73.57 49.32 C 74.88 50.95 76.83 51.64 78.77 52.20 C 78.64 51.52 78.39 50.16 78.27 49.48 C 76.70 49.40 75.13 49.34 73.57 49.32 M 20.50 54.51 C 18.00 57.76 16.05 61.38 13.72 64.74 C 18.87 63.37 24.10 62.29 29.41 61.76 C 28.78 60.58 28.18 59.39 27.44 58.28 C 25.57 57.31 23.32 57.65 21.29 57.39 C 21.28 57.18 21.28 56.77 21.28 56.56 C 23.15 56.35 25.02 56.15 26.90 55.94 C 26.46 54.99 26.02 54.04 25.58 53.08 C 23.88 53.46 21.64 52.88 20.50 54.51 M 76.51 52.98 C 76.06 53.96 75.60 54.95 75.14 55.94 C 77.00 56.15 78.87 56.35 80.73 56.56 C 80.72 56.78 80.71 57.22 80.71 57.43 C 78.87 57.52 77.02 57.53 75.20 57.81 C 74.17 59.01 73.40 60.39 72.57 61.72 C 77.54 62.33 82.45 63.27 87.36 64.25 C 85.44 61.02 83.63 57.68 81.21 54.79 C 80.10 53.34 78.10 53.45 76.51 52.98 M 28.43 54.37 C 28.92 57.07 29.73 59.71 30.86 62.21 C 30.94 59.37 30.40 56.53 28.43 54.37 M 71.17 62.17 C 72.33 59.70 73.13 57.07 73.61 54.38 C 71.64 56.52 71.14 59.36 71.17 62.17 M 38.70 57.12 C 40.63 61.32 45.91 60.72 49.73 61.24 C 49.42 59.51 49.11 57.79 48.81 56.06 C 45.43 56.18 41.89 55.76 38.70 57.12 M 52.27 56.15 C 50.15 57.13 51.75 59.58 51.73 61.29 C 56.01 60.99 61.05 61.11 63.69 57.04 C 59.96 56.33 56.06 55.30 52.27 56.15 M 32.00 56.91 C 32.22 59.28 32.19 61.72 32.99 63.99 C 34.14 65.52 36.15 66.06 37.73 67.04 C 37.44 64.74 37.46 62.37 36.67 60.17 C 35.95 58.22 33.59 57.88 32.00 56.91 M 66.02 59.10 C 64.44 61.41 64.71 64.38 64.29 67.02 C 65.88 66.06 67.91 65.54 69.06 64.02 C 69.88 61.74 69.81 59.27 70.02 56.89 C 68.67 57.58 67.24 58.18 66.02 59.10 M 38.74 61.84 C 40.86 63.45 42.92 66.08 45.87 65.69 C 47.64 65.58 48.34 63.69 49.40 62.57 C 45.87 62.06 42.31 61.68 38.74 61.84 M 52.65 62.58 C 53.69 63.69 54.40 65.55 56.13 65.68 C 59.10 66.13 61.18 63.47 63.29 61.84 C 59.72 61.68 56.17 62.07 52.65 62.58 M 39.51 65.29 C 40.53 66.55 41.58 67.80 42.53 69.11 C 42.97 68.58 43.86 67.52 44.30 66.99 C 42.70 66.45 41.10 65.89 39.51 65.29 M 57.74 67.00 C 58.18 67.53 59.04 68.60 59.48 69.13 C 60.51 67.87 61.53 66.61 62.52 65.32 C 60.93 65.88 59.34 66.45 57.74 67.00 M 40.71 73.05 C 43.44 71.89 46.03 70.43 48.59 68.95 C 48.88 70.60 49.17 72.25 49.46 73.91 C 49.94 73.84 50.91 73.70 51.39 73.63 C 51.80 72.73 52.21 71.83 52.62 70.93 C 55.70 73.66 59.79 73.87 63.69 73.90 C 63.38 73.18 63.07 72.47 62.76 71.76 C 63.62 70.60 64.50 69.47 65.42 68.36 C 63.31 69.14 61.18 69.89 59.06 70.67 C 56.30 69.19 53.57 67.67 50.90 66.02 C 47.08 67.67 43.45 69.87 40.71 73.05 M 37.12 70.15 C 35.49 71.30 34.16 72.79 32.82 74.24 C 35.98 73.52 38.95 72.19 41.67 70.44 C 40.20 70.22 38.45 68.91 37.12 70.15 Z" />
<path fill="#ffffff" opacity="1.00" d=" M 50.70 26.67 C 52.37 31.91 52.04 38.05 55.81 42.41 C 56.03 42.76 56.26 43.10 56.49 43.43 C 59.37 42.44 62.28 41.57 65.19 40.70 C 64.82 40.98 64.09 41.54 63.73 41.82 C 58.15 47.04 49.21 48.23 42.61 44.30 C 40.26 42.59 38.66 40.10 36.93 37.81 C 39.91 39.53 42.79 41.42 45.68 43.30 C 45.10 40.54 44.51 37.79 43.97 35.02 C 45.95 37.45 47.89 39.90 49.89 42.32 C 50.18 37.10 50.37 31.88 50.70 26.67 Z" />
<path fill="#b8b8b8" opacity="1.00" d=" M 31.86 35.16 C 34.21 37.14 36.22 39.47 37.96 42.00 C 33.46 44.59 28.69 48.10 23.19 46.53 C 18.84 52.95 14.58 59.44 10.86 66.25 C 14.73 65.79 18.59 65.20 22.44 64.54 C 20.03 68.31 17.64 72.10 15.12 75.81 C 38.55 75.62 61.98 75.88 85.40 75.69 C 83.02 71.80 80.65 67.89 77.97 64.19 C 82.09 65.11 86.25 65.83 90.45 66.32 C 87.48 60.83 84.07 55.60 80.40 50.56 C 78.86 48.19 76.01 47.44 73.50 46.55 C 70.05 45.42 66.78 43.78 63.73 41.82 C 64.09 41.54 64.82 40.98 65.19 40.70 C 66.87 39.54 68.52 38.32 70.08 37.00 C 69.40 38.62 68.68 40.21 67.95 41.81 C 71.48 44.10 75.37 45.60 79.50 46.32 C 84.42 52.94 88.60 60.11 93.03 67.06 C 89.85 67.15 86.67 67.13 83.49 67.16 C 86.18 71.25 88.85 75.35 91.34 79.55 C 63.83 79.59 36.32 79.58 8.80 79.56 C 11.39 75.33 14.09 71.17 16.92 67.10 C 13.65 67.37 10.37 67.64 7.09 67.78 C 11.96 60.17 16.26 52.21 20.91 44.47 C 23.20 44.57 25.48 44.72 27.77 44.86 C 29.77 43.23 32.13 42.15 34.26 40.73 C 33.68 38.79 32.68 37.00 31.86 35.16 Z" />
<path fill="#ffffff" opacity="1.00" d=" M 31.65 47.25 C 33.01 46.53 34.30 45.48 35.87 45.27 C 37.25 45.70 38.40 46.60 39.60 47.36 C 36.95 47.41 34.30 47.37 31.65 47.25 Z" />
<path fill="#ffffff" opacity="1.00" d=" M 65.46 45.41 C 67.30 44.97 68.85 46.40 70.41 47.12 C 67.76 47.34 65.11 47.53 62.46 47.59 C 63.45 46.85 64.37 46.01 65.46 45.41 Z" />
<path fill="#ffffff" opacity="1.00" d=" M 33.54 49.08 C 34.82 48.61 36.10 48.14 37.38 47.67 C 37.76 49.84 38.11 52.01 38.43 54.18 C 36.94 54.10 35.45 54.01 33.96 53.92 C 33.82 52.30 33.68 50.69 33.54 49.08 Z" />
<path fill="#74aaaa" opacity="1.00" d=" M 41.06 47.75 C 42.57 48.37 44.06 49.04 45.50 49.80 C 44.35 50.28 43.19 50.76 42.02 51.23 C 41.69 50.07 41.37 48.91 41.06 47.75 Z" />
<path fill="#ffffff" opacity="1.00" d=" M 57.93 48.35 C 58.74 48.35 59.56 48.35 60.38 48.34 C 60.59 50.48 60.87 52.61 61.18 54.74 C 58.51 54.76 55.84 54.80 53.18 54.85 C 52.76 53.78 52.35 52.70 51.95 51.62 C 53.76 50.81 55.59 50.04 57.43 49.28 C 57.55 49.05 57.80 48.58 57.93 48.35 Z" />
<path fill="#ffffff" opacity="1.00" d=" M 63.89 48.56 C 65.48 48.66 67.07 48.78 68.67 48.88 C 68.73 50.54 68.80 52.19 68.87 53.85 C 67.21 53.95 65.55 54.06 63.89 54.16 C 63.89 52.29 63.89 50.42 63.89 48.56 Z" />
<path fill="#ffffff" opacity="1.00" d=" M 21.70 51.89 C 22.75 48.84 25.84 48.90 28.54 49.19 C 27.15 51.73 24.20 51.66 21.70 51.89 Z" />
<path fill="#ffffff" opacity="1.00" d=" M 28.33 51.33 C 29.17 50.54 30.02 49.75 30.86 48.96 C 30.69 50.75 30.54 52.55 30.48 54.35 C 29.75 53.34 29.08 52.31 28.33 51.33 Z" />
<path fill="#ffffff" opacity="1.00" d=" M 45.50 49.80 C 45.89 49.64 46.66 49.31 47.04 49.15 C 48.27 50.56 51.31 53.07 48.68 54.62 C 46.20 55.03 43.68 54.86 41.17 54.83 C 41.00 54.08 40.66 52.58 40.49 51.84 C 40.87 51.68 41.64 51.38 42.02 51.23 C 43.19 50.76 44.35 50.28 45.50 49.80 Z" />
<path fill="#ffffff" opacity="1.00" d=" M 71.63 49.58 C 73.59 49.47 73.95 53.64 71.91 53.68 C 70.85 52.75 70.72 50.64 71.63 49.58 Z" />
<path fill="#ffffff" opacity="1.00" d=" M 73.57 49.32 C 75.13 49.34 76.70 49.40 78.27 49.48 C 78.39 50.16 78.64 51.52 78.77 52.20 C 76.83 51.64 74.88 50.95 73.57 49.32 Z" />
<path fill="#ffffff" opacity="1.00" d=" M 20.50 54.51 C 21.64 52.88 23.88 53.46 25.58 53.08 C 26.02 54.04 26.46 54.99 26.90 55.94 C 25.02 56.15 23.15 56.35 21.28 56.56 C 21.28 56.77 21.28 57.18 21.29 57.39 C 23.32 57.65 25.57 57.31 27.44 58.28 C 28.18 59.39 28.78 60.58 29.41 61.76 C 24.10 62.29 18.87 63.37 13.72 64.74 C 16.05 61.38 18.00 57.76 20.50 54.51 Z" />
<path fill="#ffffff" opacity="1.00" d=" M 76.51 52.98 C 78.10 53.45 80.10 53.34 81.21 54.79 C 83.63 57.68 85.44 61.02 87.36 64.25 C 82.45 63.27 77.54 62.33 72.57 61.72 C 73.40 60.39 74.17 59.01 75.20 57.81 C 77.02 57.53 78.87 57.52 80.71 57.43 C 80.71 57.22 80.72 56.78 80.73 56.56 C 78.87 56.35 77.00 56.15 75.14 55.94 C 75.60 54.95 76.06 53.96 76.51 52.98 Z" />
<path fill="#ffffff" opacity="1.00" d=" M 28.43 54.37 C 30.40 56.53 30.94 59.37 30.86 62.21 C 29.73 59.71 28.92 57.07 28.43 54.37 Z" />
<path fill="#ffffff" opacity="1.00" d=" M 71.17 62.17 C 71.14 59.36 71.64 56.52 73.61 54.38 C 73.13 57.07 72.33 59.70 71.17 62.17 Z" />
<path fill="#ffffff" opacity="1.00" d=" M 38.70 57.12 C 41.89 55.76 45.43 56.18 48.81 56.06 C 49.11 57.79 49.42 59.51 49.73 61.24 C 45.91 60.72 40.63 61.32 38.70 57.12 Z" />
<path fill="#ffffff" opacity="1.00" d=" M 52.27 56.15 C 56.06 55.30 59.96 56.33 63.69 57.04 C 61.05 61.11 56.01 60.99 51.73 61.29 C 51.75 59.58 50.15 57.13 52.27 56.15 Z" />
<path fill="#ffffff" opacity="1.00" d=" M 32.00 56.91 C 33.59 57.88 35.95 58.22 36.67 60.17 C 37.46 62.37 37.44 64.74 37.73 67.04 C 36.15 66.06 34.14 65.52 32.99 63.99 C 32.19 61.72 32.22 59.28 32.00 56.91 Z" />
<path fill="#ffffff" opacity="1.00" d=" M 66.02 59.10 C 67.24 58.18 68.67 57.58 70.02 56.89 C 69.81 59.27 69.88 61.74 69.06 64.02 C 67.91 65.54 65.88 66.06 64.29 67.02 C 64.71 64.38 64.44 61.41 66.02 59.10 Z" />
<path fill="#ffffff" opacity="1.00" d=" M 38.74 61.84 C 42.31 61.68 45.87 62.06 49.40 62.57 C 48.34 63.69 47.64 65.58 45.87 65.69 C 42.92 66.08 40.86 63.45 38.74 61.84 Z" />
<path fill="#ffffff" opacity="1.00" d=" M 52.65 62.58 C 56.17 62.07 59.72 61.68 63.29 61.84 C 61.18 63.47 59.10 66.13 56.13 65.68 C 54.40 65.55 53.69 63.69 52.65 62.58 Z" />
<path fill="#ffffff" opacity="1.00" d=" M 39.51 65.29 C 41.10 65.89 42.70 66.45 44.30 66.99 C 43.86 67.52 42.97 68.58 42.53 69.11 C 41.58 67.80 40.53 66.55 39.51 65.29 Z" />
<path fill="#ffffff" opacity="1.00" d=" M 57.74 67.00 C 59.34 66.45 60.93 65.88 62.52 65.32 C 61.53 66.61 60.51 67.87 59.48 69.13 C 59.04 68.60 58.18 67.53 57.74 67.00 Z" />
<path fill="#ffffff" opacity="1.00" d=" M 40.71 73.05 C 43.45 69.87 47.08 67.67 50.90 66.02 C 53.57 67.67 56.30 69.19 59.06 70.67 C 61.18 69.89 63.31 69.14 65.42 68.36 C 64.50 69.47 63.62 70.60 62.76 71.76 C 63.07 72.47 63.38 73.18 63.69 73.90 C 59.79 73.87 55.70 73.66 52.62 70.93 C 52.21 71.83 51.80 72.73 51.39 73.63 C 50.91 73.70 49.94 73.84 49.46 73.91 C 49.17 72.25 48.88 70.60 48.59 68.95 C 46.03 70.43 43.44 71.89 40.71 73.05 Z" />
<path fill="#ffffff" opacity="1.00" d=" M 37.12 70.15 C 38.45 68.91 40.20 70.22 41.67 70.44 C 38.95 72.19 35.98 73.52 32.82 74.24 C 34.16 72.79 35.49 71.30 37.12 70.15 Z" />
</svg>
