<?xml version="1.0" encoding="UTF-8" ?>
<!DOCTYPE svg PUBLIC "-//W3C//DTD SVG 1.1//EN" "http://www.w3.org/Graphics/SVG/1.1/DTD/svg11.dtd">
<svg width="100pt" height="100pt" viewBox="0 0 100 100" version="1.1" xmlns="http://www.w3.org/2000/svg">
<path fill="#b9b8b9" opacity="1.00" d=" M 44.44 12.65 C 60.64 10.07 77.80 19.62 84.35 34.63 C 89.28 45.41 88.69 58.53 82.79 68.81 C 75.40 82.24 59.35 90.00 44.22 87.49 C 30.16 85.55 17.85 74.86 13.83 61.26 C 9.59 47.68 13.75 31.89 24.40 22.38 C 29.91 17.21 37.07 14.04 44.44 12.65 M 43.36 16.42 C 31.68 18.66 21.53 27.38 17.55 38.59 C 13.60 49.41 15.63 62.14 22.75 71.20 C 32.78 84.80 53.34 88.64 67.62 79.65 C 81.38 71.71 88.02 53.60 82.33 38.70 C 77.08 23.06 59.54 12.88 43.36 16.42 Z" />
<path fill="#2c8c19" opacity="1.00" d=" M 43.36 16.42 C 59.54 12.88 77.08 23.06 82.33 38.70 C 88.02 53.60 81.38 71.71 67.62 79.65 C 53.34 88.64 32.78 84.80 22.75 71.20 C 15.63 62.14 13.60 49.41 17.55 38.59 C 21.53 27.38 31.68 18.66 43.36 16.42 M 34.45 26.45 C 27.51 31.11 20.72 38.11 20.68 47.01 C 20.92 54.43 23.84 61.74 28.47 67.53 C 37.57 78.85 55.74 81.02 67.31 72.27 C 73.91 67.68 77.67 59.78 77.83 51.81 C 76.42 56.24 76.08 61.20 73.10 64.97 C 69.70 69.41 65.05 72.83 59.98 75.17 C 56.31 77.03 52.10 76.15 48.20 75.81 C 42.96 75.05 37.35 74.32 33.01 71.01 C 28.05 67.17 25.36 61.24 23.29 55.49 C 20.96 49.19 21.91 41.59 26.48 36.52 C 30.50 32.20 34.22 26.67 40.39 25.39 C 48.01 23.66 56.59 23.33 63.54 27.45 C 69.36 30.90 72.87 36.87 77.04 41.98 C 74.36 35.28 69.66 29.28 63.26 25.81 C 54.45 21.06 42.87 20.61 34.45 26.45 M 39.28 41.67 C 38.28 43.09 37.10 44.46 36.56 46.14 C 36.66 49.02 37.70 51.78 38.37 54.56 C 40.01 54.95 41.65 55.33 43.30 55.67 C 43.46 57.17 43.68 58.66 43.87 60.16 C 44.93 60.59 45.99 61.02 47.05 61.44 C 48.18 57.77 49.50 54.03 49.40 50.14 C 46.94 46.41 43.14 43.78 39.28 41.67 M 50.50 50.08 C 50.37 53.73 51.47 57.27 52.26 60.80 C 52.90 60.79 54.18 60.77 54.83 60.76 C 55.14 58.86 55.32 56.96 55.55 55.05 C 57.47 55.05 59.55 55.39 61.32 54.47 C 62.35 51.83 63.15 49.01 63.24 46.17 C 62.72 44.52 61.63 43.13 60.69 41.70 C 56.70 43.61 52.96 46.36 50.50 50.08 Z" />
<path fill="#ffffff" opacity="1.00" d=" M 34.45 26.45 C 42.87 20.61 54.45 21.06 63.26 25.81 C 69.66 29.28 74.36 35.28 77.04 41.98 C 72.87 36.87 69.36 30.90 63.54 27.45 C 56.59 23.33 48.01 23.66 40.39 25.39 C 34.22 26.67 30.50 32.20 26.48 36.52 C 21.91 41.59 20.96 49.19 23.29 55.49 C 25.36 61.24 28.05 67.17 33.01 71.01 C 37.35 74.32 42.96 75.05 48.20 75.81 C 52.10 76.15 56.31 77.03 59.98 75.17 C 65.05 72.83 69.70 69.41 73.10 64.97 C 76.08 61.20 76.42 56.24 77.83 51.81 C 77.67 59.78 73.91 67.68 67.31 72.27 C 55.74 81.02 37.57 78.85 28.47 67.53 C 23.84 61.74 20.92 54.43 20.68 47.01 C 20.72 38.11 27.51 31.11 34.45 26.45 Z" />
<path fill="#ffffff" opacity="1.00" d=" M 39.28 41.67 C 43.14 43.78 46.94 46.41 49.40 50.14 C 49.50 54.03 48.18 57.77 47.05 61.44 C 45.99 61.02 44.93 60.59 43.87 60.16 C 43.68 58.66 43.46 57.17 43.30 55.67 C 41.65 55.33 40.01 54.95 38.37 54.56 C 37.70 51.78 36.66 49.02 36.56 46.14 C 37.10 44.46 38.28 43.09 39.28 41.67 Z" />
<path fill="#ffffff" opacity="1.00" d=" M 50.50 50.08 C 52.96 46.36 56.70 43.61 60.69 41.70 C 61.63 43.13 62.72 44.52 63.24 46.17 C 63.15 49.01 62.35 51.83 61.32 54.47 C 59.55 55.39 57.47 55.05 55.55 55.05 C 55.32 56.96 55.14 58.86 54.83 60.76 C 54.18 60.77 52.90 60.79 52.26 60.80 C 51.47 57.27 50.37 53.73 50.50 50.08 Z" />
</svg>
