<?xml version="1.0" encoding="UTF-8" ?>
<!DOCTYPE svg PUBLIC "-//W3C//DTD SVG 1.1//EN" "http://www.w3.org/Graphics/SVG/1.1/DTD/svg11.dtd">
<svg width="100pt" height="100pt" viewBox="0 0 100 100" version="1.1" xmlns="http://www.w3.org/2000/svg">
<path fill="#bbb9bb" opacity="1.00" d=" M 44.40 12.66 C 61.83 9.53 80.34 20.40 85.96 37.20 C 92.59 53.64 84.77 73.84 69.55 82.51 C 56.83 90.15 39.62 89.22 27.83 80.18 C 17.87 72.83 12.01 60.31 12.52 47.97 C 13.51 30.74 27.16 15.09 44.40 12.66 M 43.35 16.30 C 36.99 17.64 31.04 20.84 26.41 25.39 C 17.13 34.15 13.81 48.28 17.66 60.36 C 21.11 71.41 30.54 80.32 41.74 83.22 C 51.11 85.75 61.49 83.94 69.53 78.52 C 82.66 70.03 88.46 52.09 82.51 37.57 C 76.89 22.21 59.33 12.57 43.35 16.30 Z" />
<path fill="#2c8c19" opacity="1.00" d=" M 43.35 16.30 C 59.33 12.57 76.89 22.21 82.51 37.57 C 88.46 52.09 82.66 70.03 69.53 78.52 C 61.49 83.94 51.11 85.75 41.74 83.22 C 30.54 80.32 21.11 71.41 17.66 60.36 C 13.81 48.28 17.13 34.15 26.41 25.39 C 31.04 20.84 36.99 17.64 43.35 16.30 M 44.46 21.72 C 38.51 22.60 33.30 25.99 28.94 29.97 C 23.45 34.86 19.29 42.12 20.55 49.69 C 21.84 56.57 24.66 63.37 29.42 68.58 C 39.30 79.44 57.90 80.45 68.99 70.88 C 75.62 65.39 78.73 56.47 78.33 48.02 C 78.16 40.95 74.41 34.41 69.42 29.59 C 62.95 23.22 53.37 20.46 44.46 21.72 Z" />
<path fill="#ffffff" opacity="1.00" d=" M 44.46 21.72 C 53.37 20.46 62.95 23.22 69.42 29.59 C 74.41 34.41 78.16 40.95 78.33 48.02 C 78.73 56.47 75.62 65.39 68.99 70.88 C 57.90 80.45 39.30 79.44 29.42 68.58 C 24.66 63.37 21.84 56.57 20.55 49.69 C 19.29 42.12 23.45 34.86 28.94 29.97 C 33.30 25.99 38.51 22.60 44.46 21.72 M 42.33 24.29 C 38.57 24.88 34.93 26.49 32.36 29.36 C 28.50 33.55 23.76 37.53 22.36 43.30 C 20.29 51.73 24.35 60.16 29.04 66.94 C 34.20 74.31 43.83 75.16 52.02 76.06 C 59.03 77.14 65.15 72.49 70.16 68.20 C 76.05 63.20 77.64 55.17 78.10 47.84 C 77.84 40.70 72.73 34.91 67.96 30.06 C 61.32 23.43 51.13 22.48 42.33 24.29 Z" />
<path fill="#2c8c19" opacity="1.00" d=" M 42.33 24.29 C 51.13 22.48 61.32 23.43 67.96 30.06 C 72.73 34.91 77.84 40.70 78.10 47.84 C 77.64 55.17 76.05 63.20 70.16 68.20 C 65.15 72.49 59.03 77.14 52.02 76.06 C 43.83 75.16 34.20 74.31 29.04 66.94 C 24.35 60.16 20.29 51.73 22.36 43.30 C 23.76 37.53 28.50 33.55 32.36 29.36 C 34.93 26.49 38.57 24.88 42.33 24.29 M 42.36 27.49 C 39.96 28.02 37.78 29.28 36.04 31.01 C 31.99 34.92 27.52 39.19 26.68 45.04 C 25.90 49.17 27.79 53.08 29.16 56.87 C 30.56 60.73 32.32 64.70 35.66 67.27 C 39.83 70.75 45.38 71.58 50.55 72.50 C 52.88 72.79 55.30 73.37 57.61 72.70 C 61.06 71.43 63.80 68.87 66.48 66.45 C 68.66 64.37 71.34 62.24 71.58 58.98 C 72.38 53.20 74.43 46.89 71.55 41.35 C 69.21 36.97 66.24 32.77 62.27 29.72 C 56.56 25.58 48.92 26.05 42.36 27.49 Z" />
<path fill="#ffffff" opacity="1.00" d=" M 42.36 27.49 C 48.92 26.05 56.56 25.58 62.27 29.72 C 66.24 32.77 69.21 36.97 71.55 41.35 C 74.43 46.89 72.38 53.20 71.58 58.98 C 71.34 62.24 68.66 64.37 66.48 66.45 C 63.80 68.87 61.06 71.43 57.61 72.70 C 55.30 73.37 52.88 72.79 50.55 72.50 C 45.38 71.58 39.83 70.75 35.66 67.27 C 32.32 64.70 30.56 60.73 29.16 56.87 C 27.79 53.08 25.90 49.17 26.68 45.04 C 27.52 39.19 31.99 34.92 36.04 31.01 C 37.78 29.28 39.96 28.02 42.36 27.49 M 43.33 29.38 C 39.85 29.94 37.19 32.38 34.81 34.79 C 30.71 38.59 26.94 43.89 28.12 49.79 C 29.76 56.45 31.69 64.28 38.30 67.73 C 43.77 70.26 49.97 70.86 55.92 71.14 C 61.41 69.71 65.73 65.43 69.58 61.46 C 71.91 56.73 72.74 51.21 72.55 45.97 C 71.27 40.86 67.46 36.79 63.84 33.15 C 58.46 27.88 50.24 27.82 43.33 29.38 Z" />
<path fill="#2c8c19" opacity="1.00" d=" M 43.33 29.38 C 50.24 27.82 58.46 27.88 63.84 33.15 C 67.46 36.79 71.27 40.86 72.55 45.97 C 72.74 51.21 71.91 56.73 69.58 61.46 C 65.73 65.43 61.41 69.71 55.92 71.14 C 49.97 70.86 43.77 70.26 38.30 67.73 C 31.69 64.28 29.76 56.45 28.12 49.79 C 26.94 43.89 30.71 38.59 34.81 34.79 C 37.19 32.38 39.85 29.94 43.33 29.38 M 36.20 37.81 C 34.58 40.15 31.53 42.38 32.41 45.59 C 33.03 48.84 33.52 52.18 34.84 55.23 C 36.93 57.66 40.33 56.23 42.87 55.48 C 42.33 57.55 41.43 59.64 41.69 61.82 C 42.40 63.66 44.65 63.99 46.16 64.94 C 48.27 59.80 50.12 54.17 49.56 48.56 C 45.47 44.59 41.32 40.47 36.20 37.81 M 51.90 47.91 C 50.58 48.87 50.94 50.50 51.08 51.88 C 51.74 56.45 52.49 61.15 55.00 65.12 C 58.35 62.68 58.23 58.62 57.36 55.00 C 60.01 56.15 63.79 57.91 66.02 55.11 C 67.36 52.09 67.81 48.76 68.44 45.54 C 69.38 42.15 66.05 39.95 64.08 37.78 C 59.66 40.68 55.70 44.24 51.90 47.91 Z" />
<path fill="#ffffff" opacity="1.00" d=" M 36.20 37.81 C 41.32 40.47 45.47 44.59 49.56 48.56 C 50.12 54.17 48.27 59.80 46.16 64.94 C 44.65 63.99 42.40 63.66 41.69 61.82 C 41.43 59.64 42.33 57.55 42.87 55.48 C 40.33 56.23 36.93 57.66 34.84 55.23 C 33.52 52.18 33.03 48.84 32.41 45.59 C 31.53 42.38 34.58 40.15 36.20 37.81 Z" />
<path fill="#ffffff" opacity="1.00" d=" M 51.90 47.91 C 55.70 44.24 59.66 40.68 64.08 37.78 C 66.05 39.95 69.38 42.15 68.44 45.54 C 67.81 48.76 67.36 52.09 66.02 55.11 C 63.79 57.91 60.01 56.15 57.36 55.00 C 58.23 58.62 58.35 62.68 55.00 65.12 C 52.49 61.15 51.74 56.45 51.08 51.88 C 50.94 50.50 50.58 48.87 51.90 47.91 Z" />
</svg>
