<?xml version="1.0" encoding="UTF-8" ?>
<!DOCTYPE svg PUBLIC "-//W3C//DTD SVG 1.1//EN" "http://www.w3.org/Graphics/SVG/1.1/DTD/svg11.dtd">
<svg width="100pt" height="100pt" viewBox="0 0 100 100" version="1.1" xmlns="http://www.w3.org/2000/svg">
<path fill="#ffffff" opacity="1.00" d=" M 41.45 12.74 C 57.02 8.67 74.51 16.81 82.45 30.62 C 89.31 42.07 89.42 57.14 82.80 68.72 C 74.67 83.63 55.60 91.92 39.29 86.62 C 25.85 82.97 15.22 71.32 12.43 57.73 C 7.62 38.18 21.79 16.66 41.45 12.74 M 22.94 27.70 C 26.10 29.24 29.08 31.66 32.62 32.14 C 37.02 29.88 41.26 27.22 46.09 25.87 C 46.75 22.26 47.41 18.66 48.01 15.05 C 38.39 15.92 29.24 20.31 22.94 27.70 M 50.80 15.04 C 51.42 18.71 52.08 22.38 52.76 26.04 C 57.90 27.59 62.62 30.20 66.85 33.49 C 70.10 31.61 73.37 29.77 76.62 27.89 C 70.17 20.29 60.73 15.70 50.80 15.04 M 46.37 30.34 C 39.38 31.33 33.39 36.71 31.31 43.40 C 28.88 50.82 31.54 59.56 37.76 64.30 C 44.57 69.79 55.19 69.58 61.77 63.82 C 67.83 58.83 70.10 49.97 67.38 42.64 C 64.50 34.18 55.17 28.69 46.37 30.34 M 20.00 31.76 C 17.97 35.77 16.41 39.99 15.29 44.33 C 18.86 44.40 22.43 44.40 26.00 44.39 C 26.62 42.86 27.24 41.33 27.87 39.80 C 25.27 37.10 22.66 34.41 20.00 31.76 M 72.18 39.19 C 70.93 40.61 71.65 42.65 71.50 44.36 C 75.71 44.43 79.93 44.41 84.14 44.33 C 82.94 40.00 81.39 35.77 79.43 31.72 C 76.93 34.12 74.37 36.49 72.18 39.19 M 15.28 55.11 C 16.35 60.27 18.25 65.22 20.97 69.74 C 23.04 66.87 25.28 64.09 26.92 60.95 C 27.86 59.03 26.64 56.95 26.28 55.03 C 22.62 55.07 18.95 55.09 15.28 55.11 M 71.84 55.06 C 71.56 57.16 70.40 59.38 71.36 61.45 C 72.74 64.62 74.39 67.71 76.49 70.46 C 76.78 70.52 77.36 70.64 77.64 70.70 C 81.06 66.14 82.81 60.62 84.20 55.16 C 80.08 55.10 75.96 55.09 71.84 55.06 M 23.25 72.83 C 29.23 79.20 37.17 83.46 45.84 84.73 C 45.55 80.95 45.26 77.16 44.94 73.38 C 41.10 71.97 37.56 69.86 33.77 68.35 C 29.95 68.80 26.67 71.21 23.25 72.83 M 53.91 73.23 C 53.56 77.06 53.27 80.89 52.99 84.72 C 61.49 83.72 69.34 79.71 75.36 73.68 C 71.96 71.73 68.64 69.50 64.87 68.29 C 61.07 69.55 57.66 71.80 53.91 73.23 Z" />
<path fill="#482b46" opacity="1.00" d=" M 22.94 27.70 C 29.24 20.31 38.39 15.92 48.01 15.05 C 47.41 18.66 46.75 22.26 46.09 25.87 C 41.26 27.22 37.02 29.88 32.62 32.14 C 29.08 31.66 26.10 29.24 22.94 27.70 Z" />
<path fill="#482b46" opacity="1.00" d=" M 50.80 15.04 C 60.73 15.70 70.17 20.29 76.62 27.89 C 73.37 29.77 70.10 31.61 66.85 33.49 C 62.62 30.20 57.90 27.59 52.76 26.04 C 52.08 22.38 51.42 18.71 50.80 15.04 Z" />
<path fill="#482b46" opacity="1.00" d=" M 46.37 30.34 C 55.17 28.69 64.50 34.18 67.38 42.64 C 70.10 49.97 67.83 58.83 61.77 63.82 C 55.19 69.58 44.57 69.79 37.76 64.30 C 31.54 59.56 28.88 50.82 31.31 43.40 C 33.39 36.71 39.38 31.33 46.37 30.34 M 46.93 34.21 C 46.85 38.24 46.85 42.28 46.83 46.32 C 42.81 46.39 38.79 46.39 34.77 46.42 C 34.71 48.22 34.67 50.02 34.63 51.82 C 38.69 51.89 42.76 51.89 46.82 51.95 C 46.85 56.01 46.84 60.07 46.88 64.13 C 48.68 64.13 50.48 64.13 52.27 64.13 C 52.33 60.08 52.32 56.03 52.33 51.98 C 56.44 51.89 60.55 51.88 64.65 51.77 C 64.64 50.00 64.63 48.23 64.63 46.46 C 60.53 46.39 56.43 46.39 52.33 46.30 C 52.32 42.26 52.33 38.22 52.25 34.19 C 50.47 34.19 48.70 34.20 46.93 34.21 Z" />
<path fill="#482b46" opacity="1.00" d=" M 20.00 31.76 C 22.66 34.41 25.27 37.10 27.87 39.80 C 27.24 41.33 26.62 42.86 26.00 44.39 C 22.43 44.40 18.86 44.40 15.29 44.33 C 16.41 39.99 17.97 35.77 20.00 31.76 Z" />
<path fill="#482b46" opacity="1.00" d=" M 72.18 39.19 C 74.37 36.49 76.93 34.12 79.43 31.72 C 81.39 35.77 82.94 40.00 84.14 44.33 C 79.93 44.41 75.71 44.43 71.50 44.36 C 71.65 42.65 70.93 40.61 72.18 39.19 Z" />
<path fill="#ffffff" opacity="1.00" d=" M 46.93 34.21 C 48.70 34.20 50.47 34.19 52.25 34.19 C 52.33 38.22 52.32 42.26 52.33 46.30 C 56.43 46.39 60.53 46.39 64.63 46.46 C 64.63 48.23 64.64 50.00 64.65 51.77 C 60.55 51.88 56.44 51.89 52.33 51.98 C 52.32 56.03 52.33 60.08 52.27 64.13 C 50.48 64.13 48.68 64.13 46.88 64.13 C 46.84 60.07 46.85 56.01 46.82 51.95 C 42.76 51.89 38.69 51.89 34.63 51.82 C 34.67 50.02 34.71 48.22 34.77 46.42 C 38.79 46.39 42.81 46.39 46.83 46.32 C 46.85 42.28 46.85 38.24 46.93 34.21 Z" />
<path fill="#482b46" opacity="1.00" d=" M 15.28 55.11 C 18.95 55.09 22.62 55.07 26.28 55.03 C 26.64 56.95 27.86 59.03 26.92 60.95 C 25.28 64.09 23.04 66.87 20.97 69.74 C 18.25 65.22 16.35 60.27 15.28 55.11 Z" />
<path fill="#482b46" opacity="1.00" d=" M 71.84 55.06 C 75.96 55.09 80.08 55.10 84.20 55.16 C 82.81 60.62 81.06 66.14 77.64 70.70 C 77.36 70.64 76.78 70.52 76.49 70.46 C 74.39 67.71 72.74 64.62 71.36 61.45 C 70.40 59.38 71.56 57.16 71.84 55.06 Z" />
<path fill="#482b46" opacity="1.00" d=" M 23.25 72.83 C 26.67 71.21 29.95 68.80 33.77 68.35 C 37.56 69.86 41.10 71.97 44.94 73.38 C 45.26 77.16 45.55 80.95 45.84 84.73 C 37.17 83.46 29.23 79.20 23.25 72.83 Z" />
<path fill="#482b46" opacity="1.00" d=" M 53.91 73.23 C 57.66 71.80 61.07 69.55 64.87 68.29 C 68.64 69.50 71.96 71.73 75.36 73.68 C 69.34 79.71 61.49 83.72 52.99 84.72 C 53.27 80.89 53.56 77.06 53.91 73.23 Z" />
</svg>
