<?xml version="1.0" encoding="UTF-8" ?>
<!DOCTYPE svg PUBLIC "-//W3C//DTD SVG 1.1//EN" "http://www.w3.org/Graphics/SVG/1.1/DTD/svg11.dtd">
<svg width="100pt" height="100pt" viewBox="0 0 100 100" version="1.1" xmlns="http://www.w3.org/2000/svg">
<path fill="#c0bcbc" opacity="1.00" d=" M 39.20 21.05 C 43.13 19.53 46.58 17.07 50.00 14.66 C 55.75 19.01 62.27 22.08 68.59 25.47 C 72.32 27.22 74.31 31.05 77.62 33.34 C 81.62 36.18 85.78 38.81 89.86 41.52 C 87.94 48.42 84.51 54.91 83.50 62.04 C 83.01 70.49 76.64 76.88 74.76 84.94 C 71.01 85.24 67.11 85.07 63.58 86.55 C 59.55 88.11 55.44 89.81 51.04 89.68 C 42.05 90.37 34.20 84.66 25.24 84.84 C 23.59 77.24 16.93 71.68 16.60 63.72 C 16.09 55.92 12.19 48.95 10.14 41.51 C 14.82 38.10 20.38 35.67 24.23 31.26 C 27.36 25.68 33.80 23.69 39.20 21.05 M 31.18 27.11 C 27.41 29.10 26.73 33.90 23.39 36.33 C 20.27 38.61 16.94 40.60 13.86 42.93 C 15.10 46.42 16.49 49.85 17.58 53.38 C 19.39 58.92 17.55 65.16 20.48 70.42 C 22.83 74.57 25.23 79.10 29.25 81.86 C 38.58 86.45 49.70 89.53 59.87 85.83 C 63.90 84.27 68.30 83.34 71.93 80.94 C 74.98 77.50 77.41 73.52 79.55 69.45 C 81.99 64.69 80.77 59.14 82.22 54.12 C 83.31 50.32 84.83 46.66 86.13 42.94 C 82.87 40.43 79.35 38.30 75.99 35.94 C 72.24 33.34 70.85 28.30 66.47 26.44 C 60.99 23.80 55.00 22.24 49.98 18.66 C 44.49 23.18 37.11 23.50 31.18 27.11 Z" />
<path fill="#217a7a" opacity="1.00" d=" M 31.18 27.11 C 37.11 23.50 44.49 23.18 49.98 18.66 C 55.00 22.24 60.99 23.80 66.47 26.44 C 70.85 28.30 72.24 33.34 75.99 35.94 C 79.35 38.30 82.87 40.43 86.13 42.94 C 84.83 46.66 83.31 50.32 82.22 54.12 C 80.77 59.14 81.99 64.69 79.55 69.45 C 77.41 73.52 74.98 77.50 71.93 80.94 C 68.30 83.34 63.90 84.27 59.87 85.83 C 49.70 89.53 38.58 86.45 29.25 81.86 C 25.23 79.10 22.83 74.57 20.48 70.42 C 17.55 65.16 19.39 58.92 17.58 53.38 C 16.49 49.85 15.10 46.42 13.86 42.93 C 16.94 40.60 20.27 38.61 23.39 36.33 C 26.73 33.90 27.41 29.10 31.18 27.11 M 29.76 31.65 C 28.35 35.29 28.10 39.25 27.37 43.06 C 34.46 49.33 41.97 55.09 49.26 61.13 C 56.89 55.41 64.27 49.34 71.46 43.07 C 70.75 39.30 70.55 35.37 69.14 31.78 C 66.79 29.01 63.27 27.44 59.91 26.25 C 55.80 27.93 53.27 32.05 49.20 33.84 C 45.64 31.47 42.58 28.43 39.18 25.84 C 36.00 27.67 32.24 28.85 29.76 31.65 M 21.01 61.99 C 20.86 67.79 24.30 72.89 28.01 77.03 C 32.20 81.16 38.04 82.93 43.62 84.27 C 52.79 86.30 62.57 83.56 69.96 77.95 C 75.32 73.42 79.87 66.55 78.74 59.24 C 78.02 54.29 75.63 48.61 70.20 47.46 C 71.43 52.94 74.09 58.64 72.18 64.29 C 69.48 71.27 63.42 77.45 55.81 78.62 C 49.71 79.33 43.34 78.84 37.68 76.31 C 31.94 74.11 27.67 68.75 26.33 62.82 C 26.24 58.13 27.95 53.65 29.09 49.17 C 28.26 48.43 27.43 47.69 26.59 46.95 C 22.98 51.10 20.93 56.48 21.01 61.99 M 30.16 59.02 C 30.06 63.15 32.84 66.63 35.73 69.27 C 40.67 73.46 47.56 73.96 53.75 73.43 C 58.83 72.57 63.25 69.40 66.88 65.89 C 70.68 61.94 69.38 56.07 68.85 51.20 C 68.24 51.14 67.01 51.03 66.39 50.98 C 66.78 54.84 68.20 59.29 65.70 62.75 C 61.86 67.98 55.42 71.04 48.99 71.26 C 43.69 71.47 38.62 68.69 35.18 64.80 C 32.07 60.74 32.75 55.38 32.37 50.61 C 31.11 53.23 29.99 56.05 30.16 59.02 Z" />
<path fill="#ffffff" opacity="1.00" d=" M 29.76 31.65 C 32.24 28.85 36.00 27.67 39.18 25.84 C 42.58 28.43 45.64 31.47 49.20 33.84 C 53.27 32.05 55.80 27.93 59.91 26.25 C 63.27 27.44 66.79 29.01 69.14 31.78 C 70.55 35.37 70.75 39.30 71.46 43.07 C 64.27 49.34 56.89 55.41 49.26 61.13 C 41.97 55.09 34.46 49.33 27.37 43.06 C 28.10 39.25 28.35 35.29 29.76 31.65 Z" />
<path fill="#ffffff" opacity="1.00" d=" M 21.01 61.99 C 20.93 56.48 22.98 51.10 26.59 46.95 C 27.43 47.69 28.26 48.43 29.09 49.17 C 27.95 53.65 26.24 58.13 26.33 62.82 C 27.67 68.75 31.94 74.11 37.68 76.31 C 43.34 78.84 49.71 79.33 55.81 78.62 C 63.42 77.45 69.48 71.27 72.18 64.29 C 74.09 58.64 71.43 52.94 70.20 47.46 C 75.63 48.61 78.02 54.29 78.74 59.24 C 79.87 66.55 75.32 73.42 69.96 77.95 C 62.57 83.56 52.79 86.30 43.62 84.27 C 38.04 82.93 32.20 81.16 28.01 77.03 C 24.30 72.89 20.86 67.79 21.01 61.99 Z" />
<path fill="#ffffff" opacity="1.00" d=" M 30.16 59.02 C 29.99 56.05 31.11 53.23 32.37 50.61 C 32.75 55.38 32.07 60.74 35.18 64.80 C 38.62 68.69 43.69 71.47 48.99 71.26 C 55.42 71.04 61.86 67.98 65.70 62.75 C 68.20 59.29 66.78 54.84 66.39 50.98 C 67.01 51.03 68.24 51.14 68.85 51.20 C 69.38 56.07 70.68 61.94 66.88 65.89 C 63.25 69.40 58.83 72.57 53.75 73.43 C 47.56 73.96 40.67 73.46 35.73 69.27 C 32.84 66.63 30.06 63.15 30.16 59.02 Z" />
</svg>
