<?xml version="1.0" encoding="UTF-8" ?>
<!DOCTYPE svg PUBLIC "-//W3C//DTD SVG 1.1//EN" "http://www.w3.org/Graphics/SVG/1.1/DTD/svg11.dtd">
<svg width="100pt" height="100pt" viewBox="0 0 100 100" version="1.1" xmlns="http://www.w3.org/2000/svg">
<path fill="#ffffff" opacity="1.00" d=" M 33.08 15.19 C 33.93 10.36 35.63 5.76 38.68 1.86 C 40.68 5.19 42.65 8.58 43.88 12.29 C 48.98 11.59 54.14 11.89 59.15 13.00 C 60.92 13.59 62.61 12.80 64.23 12.14 C 67.48 16.88 73.08 18.95 76.98 23.03 C 80.59 26.57 83.05 31.04 85.74 35.27 C 86.94 36.93 86.65 39.09 86.98 41.02 C 88.83 42.27 90.90 43.35 92.23 45.20 C 92.88 49.45 91.02 53.66 91.37 57.95 C 91.27 61.16 92.61 64.75 90.66 67.65 C 89.13 70.03 87.87 72.77 85.52 74.46 C 81.63 76.84 76.78 77.23 73.20 80.20 C 66.61 85.35 58.31 88.05 50.00 88.39 C 41.44 88.06 32.92 85.16 26.21 79.77 C 22.25 76.37 15.95 76.65 12.97 72.00 C 11.10 69.31 8.54 66.60 8.93 63.05 C 9.31 57.62 8.03 52.31 7.45 46.95 C 7.30 43.52 11.75 42.89 12.98 40.15 C 14.39 36.88 15.58 33.52 17.14 30.32 C 15.88 29.56 14.61 28.82 13.34 28.07 C 20.20 24.22 27.09 20.33 33.08 15.19 M 34.11 18.13 C 30.11 23.36 23.55 25.31 17.65 27.54 C 18.83 28.43 20.01 29.31 21.18 30.20 C 19.03 34.20 17.26 38.38 15.82 42.69 C 13.73 43.64 11.54 44.42 9.66 45.77 C 9.46 51.22 11.27 56.56 11.00 62.04 C 10.68 66.07 13.25 69.45 15.88 72.19 C 18.44 74.40 21.90 74.98 24.99 76.13 C 28.10 77.07 30.83 78.88 33.63 80.46 C 42.03 85.30 52.58 85.98 61.65 82.68 C 66.40 81.01 70.29 77.52 75.19 76.22 C 78.95 74.89 83.45 74.35 86.07 71.02 C 87.98 68.46 90.06 65.56 89.58 62.17 C 89.17 56.54 89.76 50.93 90.17 45.32 C 88.11 44.26 85.67 43.68 84.00 42.02 C 83.16 39.50 83.41 36.56 81.65 34.40 C 80.11 32.26 78.51 30.15 76.83 28.11 C 73.22 23.63 68.13 20.71 64.39 16.34 C 61.10 16.75 57.81 16.24 54.56 15.72 C 50.44 15.07 46.27 15.46 42.15 15.90 C 41.43 12.32 40.43 8.77 38.74 5.51 C 36.07 9.28 35.98 14.05 34.11 18.13 Z" />
<path fill="#482b46" opacity="1.00" d=" M 34.11 18.13 C 35.98 14.05 36.07 9.28 38.74 5.51 C 40.43 8.77 41.43 12.32 42.15 15.90 C 46.27 15.46 50.44 15.07 54.56 15.72 C 57.81 16.24 61.10 16.75 64.39 16.34 C 68.13 20.71 73.22 23.63 76.83 28.11 C 78.51 30.15 80.11 32.26 81.65 34.40 C 83.41 36.56 83.16 39.50 84.00 42.02 C 85.67 43.68 88.11 44.26 90.17 45.32 C 89.76 50.93 89.17 56.54 89.58 62.17 C 90.06 65.56 87.98 68.46 86.07 71.02 C 83.45 74.35 78.95 74.89 75.19 76.22 C 70.29 77.52 66.40 81.01 61.65 82.68 C 52.58 85.98 42.03 85.30 33.63 80.46 C 30.83 78.88 28.10 77.07 24.99 76.13 C 21.90 74.98 18.44 74.40 15.88 72.19 C 13.25 69.45 10.68 66.07 11.00 62.04 C 11.27 56.56 9.46 51.22 9.66 45.77 C 11.54 44.42 13.73 43.64 15.82 42.69 C 17.26 38.38 19.03 34.20 21.18 30.20 C 20.01 29.31 18.83 28.43 17.65 27.54 C 23.55 25.31 30.11 23.36 34.11 18.13 M 38.47 13.08 C 37.53 16.85 36.75 21.03 33.74 23.77 C 31.14 26.31 27.43 26.96 24.04 27.81 C 27.73 28.76 31.81 29.57 34.42 32.59 C 37.01 35.41 37.66 39.33 38.49 42.92 C 39.48 39.14 40.24 34.99 43.13 32.13 C 45.73 29.47 49.51 28.74 52.97 27.81 C 49.58 26.94 45.87 26.26 43.30 23.69 C 40.37 20.91 39.53 16.81 38.47 13.08 M 63.86 19.92 C 63.20 24.04 62.80 28.59 59.86 31.82 C 57.44 34.72 53.63 35.63 50.15 36.57 C 53.74 37.71 57.66 38.81 60.13 41.86 C 62.80 44.96 63.15 49.21 63.85 53.07 C 64.66 49.19 65.14 44.96 67.75 41.79 C 70.07 38.98 73.69 37.89 76.95 36.60 C 73.60 35.41 69.87 34.34 67.59 31.40 C 65.02 28.15 64.60 23.86 63.86 19.92 M 11.82 46.46 C 12.66 51.28 13.53 56.11 13.55 61.02 C 13.38 65.21 15.77 69.49 19.39 71.57 C 26.32 74.67 34.41 76.15 41.74 73.55 C 44.81 72.16 47.86 74.00 50.95 74.19 C 52.91 73.91 54.78 73.11 56.76 72.91 C 60.21 73.35 63.49 74.84 67.02 74.81 C 71.52 74.82 75.98 73.77 80.15 72.11 C 84.57 70.55 87.32 65.66 86.93 61.08 C 86.81 55.95 87.34 50.84 87.40 45.72 C 80.55 46.81 73.84 48.65 66.95 49.52 C 66.47 52.58 65.68 55.62 64.04 58.29 C 62.66 55.93 61.49 53.46 60.45 50.93 C 58.76 52.21 57.30 54.25 54.99 54.29 C 51.38 54.58 47.72 54.70 44.14 54.11 C 41.51 53.13 39.70 50.55 36.88 49.99 C 33.34 49.29 29.71 49.19 26.15 48.63 C 21.35 48.00 16.73 46.01 11.82 46.46 Z" />
<path fill="#ffffff" opacity="1.00" d=" M 38.47 13.08 C 39.53 16.81 40.37 20.91 43.30 23.69 C 45.87 26.26 49.58 26.94 52.97 27.81 C 49.51 28.74 45.73 29.47 43.13 32.13 C 40.24 34.99 39.48 39.14 38.49 42.92 C 37.66 39.33 37.01 35.41 34.42 32.59 C 31.81 29.57 27.73 28.76 24.04 27.81 C 27.43 26.96 31.14 26.31 33.74 23.77 C 36.75 21.03 37.53 16.85 38.47 13.08 Z" />
<path fill="#ffffff" opacity="1.00" d=" M 63.86 19.92 C 64.60 23.86 65.02 28.15 67.59 31.40 C 69.87 34.34 73.60 35.41 76.95 36.60 C 73.69 37.89 70.07 38.98 67.75 41.79 C 65.14 44.96 64.66 49.19 63.85 53.07 C 63.15 49.21 62.80 44.96 60.13 41.86 C 57.66 38.81 53.74 37.71 50.15 36.57 C 53.63 35.63 57.44 34.72 59.86 31.82 C 62.80 28.59 63.20 24.04 63.86 19.92 Z" />
<path fill="#ffffff" opacity="1.00" d=" M 11.82 46.46 C 16.73 46.01 21.35 48.00 26.15 48.63 C 29.71 49.19 33.34 49.29 36.88 49.99 C 39.70 50.55 41.51 53.13 44.14 54.11 C 47.72 54.70 51.38 54.58 54.99 54.29 C 57.30 54.25 58.76 52.21 60.45 50.93 C 61.49 53.46 62.66 55.93 64.04 58.29 C 65.68 55.62 66.47 52.58 66.95 49.52 C 73.84 48.65 80.55 46.81 87.40 45.72 C 87.34 50.84 86.81 55.95 86.93 61.08 C 87.32 65.66 84.57 70.55 80.15 72.11 C 75.98 73.77 71.52 74.82 67.02 74.81 C 63.49 74.84 60.21 73.35 56.76 72.91 C 54.78 73.11 52.91 73.91 50.95 74.19 C 47.86 74.00 44.81 72.16 41.74 73.55 C 34.41 76.15 26.32 74.67 19.39 71.57 C 15.77 69.49 13.38 65.21 13.55 61.02 C 13.53 56.11 12.66 51.28 11.82 46.46 M 21.31 57.85 C 22.54 59.53 23.42 61.67 25.35 62.68 C 30.18 64.91 35.78 64.46 40.65 62.61 C 35.46 57.93 28.10 56.09 21.31 57.85 M 59.89 62.18 C 64.71 64.58 70.52 64.77 75.38 62.41 C 77.39 61.49 77.81 59.10 78.64 57.29 C 71.97 56.14 65.18 58.00 59.89 62.18 Z" />
<path fill="#482b46" opacity="1.00" d=" M 21.31 57.85 C 28.10 56.09 35.46 57.93 40.65 62.61 C 35.78 64.46 30.18 64.91 25.35 62.68 C 23.42 61.67 22.54 59.53 21.31 57.85 Z" />
<path fill="#482b46" opacity="1.00" d=" M 59.89 62.18 C 65.18 58.00 71.97 56.14 78.64 57.29 C 77.81 59.10 77.39 61.49 75.38 62.41 C 70.52 64.77 64.71 64.58 59.89 62.18 Z" />
</svg>
