<?xml version="1.0" encoding="UTF-8" ?>
<!DOCTYPE svg PUBLIC "-//W3C//DTD SVG 1.1//EN" "http://www.w3.org/Graphics/SVG/1.1/DTD/svg11.dtd">
<svg width="100pt" height="100pt" viewBox="0 0 100 100" version="1.1" xmlns="http://www.w3.org/2000/svg">
<path fill="#c2bac4" opacity="1.00" d=" M 52.86 9.25 C 58.12 10.30 63.36 11.46 68.54 12.82 C 66.86 16.48 65.17 20.14 63.57 23.84 C 67.11 26.25 70.67 28.64 74.19 31.09 C 76.39 29.74 78.55 28.35 80.74 27.00 C 83.40 30.41 86.36 33.59 88.79 37.18 C 89.95 38.79 89.52 40.92 89.30 42.75 C 88.32 47.00 86.59 51.03 85.12 55.12 C 87.71 55.54 90.30 55.95 92.88 56.39 C 91.23 60.56 89.57 64.72 87.93 68.90 C 85.65 68.30 83.37 67.68 81.09 67.08 C 79.81 70.70 78.20 74.23 77.35 77.99 C 78.64 80.14 81.06 81.54 81.94 83.91 C 79.96 87.98 77.08 91.52 74.64 95.32 C 71.75 92.21 69.37 88.64 66.28 85.74 C 60.67 84.60 54.81 85.53 49.11 85.28 C 48.82 88.50 48.56 91.72 48.35 94.95 C 43.49 94.34 38.66 93.56 33.83 92.74 C 34.43 90.24 35.07 87.76 35.73 85.28 C 32.28 85.23 28.74 85.64 25.35 84.79 C 23.66 81.21 22.62 77.37 21.20 73.68 C 18.46 74.88 15.73 76.09 12.97 77.24 C 11.49 72.52 10.13 67.75 8.86 62.97 C 11.50 62.23 14.14 61.51 16.79 60.80 C 15.47 56.96 14.13 53.13 12.71 49.33 C 10.26 48.82 7.81 48.30 5.35 47.78 C 6.36 43.52 7.35 39.26 8.35 34.99 C 11.13 35.66 13.87 37.04 16.77 36.82 C 19.42 35.69 21.67 33.84 24.02 32.22 C 20.58 29.62 17.14 27.00 13.80 24.26 C 18.35 21.71 22.87 19.10 27.56 16.81 C 29.92 19.59 32.35 22.32 34.83 25.00 C 40.30 21.37 45.47 17.20 51.45 14.40 C 51.92 12.69 52.39 10.97 52.86 9.25 M 54.16 11.68 C 53.68 14.14 53.21 16.61 52.71 19.06 C 45.66 19.14 40.93 25.16 35.13 28.32 C 32.38 25.27 29.64 22.23 26.90 19.18 C 23.71 20.90 20.57 22.72 17.53 24.72 C 21.06 27.50 24.62 30.23 28.15 33.01 C 24.79 35.27 21.74 38.20 17.87 39.56 C 15.12 39.38 12.51 38.34 9.87 37.62 C 9.15 40.40 8.45 43.19 7.75 45.98 C 10.42 46.73 13.10 47.47 15.77 48.22 C 17.32 52.79 18.94 57.34 20.61 61.86 C 17.58 62.64 14.54 63.41 11.50 64.18 C 12.21 67.63 13.08 71.04 14.07 74.42 C 17.20 73.22 20.28 71.91 23.34 70.56 C 24.86 74.49 26.31 78.44 27.81 82.39 C 31.29 82.38 34.76 82.37 38.24 82.35 C 37.64 85.26 37.00 88.17 36.34 91.07 C 39.71 91.72 43.09 92.33 46.48 92.91 C 46.80 89.40 47.14 85.90 47.47 82.39 C 53.72 82.65 60.09 81.66 66.25 82.82 C 69.43 85.40 71.64 88.94 74.28 92.03 C 76.23 89.37 78.10 86.66 79.95 83.93 C 77.94 81.93 75.92 79.94 73.91 77.95 C 75.46 73.42 77.02 68.89 78.49 64.34 C 81.19 65.05 83.91 65.98 86.73 65.90 C 88.18 63.46 89.07 60.75 90.04 58.10 C 87.14 57.52 84.23 56.97 81.33 56.43 C 82.93 52.03 84.47 47.61 86.01 43.20 C 85.00 42.20 83.99 41.21 82.99 40.22 C 84.35 39.49 85.72 38.77 87.09 38.04 C 84.87 35.19 82.59 32.40 80.20 29.69 C 77.94 31.15 75.80 32.94 73.19 33.76 C 68.93 31.52 64.90 28.75 61.24 25.61 C 61.48 21.48 64.31 17.90 65.83 14.10 C 61.97 13.13 58.08 12.32 54.16 11.68 Z" />
<path fill="#26960f" opacity="1.00" d=" M 54.16 11.68 C 58.08 12.32 61.97 13.13 65.83 14.10 C 64.31 17.90 61.48 21.48 61.24 25.61 C 64.90 28.75 68.93 31.52 73.19 33.76 C 75.80 32.94 77.94 31.15 80.20 29.69 C 82.59 32.40 84.87 35.19 87.09 38.04 C 85.72 38.77 84.35 39.49 82.99 40.22 C 83.99 41.21 85.00 42.20 86.01 43.20 C 84.47 47.61 82.93 52.03 81.33 56.43 C 84.23 56.97 87.14 57.52 90.04 58.10 C 89.07 60.75 88.18 63.46 86.73 65.90 C 83.91 65.98 81.19 65.05 78.49 64.34 C 77.02 68.89 75.46 73.42 73.91 77.95 C 75.92 79.94 77.94 81.93 79.95 83.93 C 78.10 86.66 76.23 89.37 74.28 92.03 C 71.64 88.94 69.43 85.40 66.25 82.82 C 60.09 81.66 53.72 82.65 47.47 82.39 C 47.14 85.90 46.80 89.40 46.48 92.91 C 43.09 92.33 39.71 91.72 36.34 91.07 C 37.00 88.17 37.64 85.26 38.24 82.35 C 34.76 82.37 31.29 82.38 27.81 82.39 C 26.31 78.44 24.86 74.49 23.34 70.56 C 20.28 71.91 17.20 73.22 14.07 74.42 C 13.08 71.04 12.21 67.63 11.50 64.18 C 14.54 63.41 17.58 62.64 20.61 61.86 C 18.94 57.34 17.32 52.79 15.77 48.22 C 13.10 47.47 10.42 46.73 7.75 45.98 C 8.45 43.19 9.15 40.40 9.87 37.62 C 12.51 38.34 15.12 39.38 17.87 39.56 C 21.74 38.20 24.79 35.27 28.15 33.01 C 24.62 30.23 21.06 27.50 17.53 24.72 C 20.57 22.72 23.71 20.90 26.90 19.18 C 29.64 22.23 32.38 25.27 35.13 28.32 C 40.93 25.16 45.66 19.14 52.71 19.06 C 53.21 16.61 53.68 14.14 54.16 11.68 M 56.16 14.66 C 55.05 20.38 53.96 26.11 52.90 31.85 C 47.74 31.99 42.61 32.99 37.98 35.35 C 34.02 31.05 30.30 26.55 26.18 22.41 C 24.73 23.25 23.29 24.09 21.84 24.93 C 26.85 28.78 31.92 32.54 36.83 36.51 C 33.78 39.44 31.08 42.72 28.82 46.30 C 22.98 44.47 17.25 42.29 11.30 40.86 C 11.25 42.08 11.21 43.31 11.17 44.53 C 16.87 45.53 22.53 46.70 28.17 47.99 C 28.41 52.75 29.65 57.35 31.18 61.84 C 25.53 63.27 19.87 64.65 14.23 66.13 C 14.79 67.76 15.35 69.40 15.91 71.03 C 21.33 68.61 26.69 66.06 32.05 63.52 C 35.31 67.45 39.18 70.85 43.71 73.25 C 42.25 78.52 40.79 83.79 39.33 89.05 C 40.95 89.32 42.56 89.59 44.18 89.87 C 44.69 84.60 45.19 79.33 45.46 74.04 C 50.68 73.94 55.88 73.30 60.89 71.81 C 65.46 77.13 69.64 82.79 74.45 87.91 C 75.19 86.65 75.94 85.40 76.69 84.15 C 71.87 79.72 67.08 75.26 62.20 70.90 C 64.01 69.19 66.05 67.62 67.34 65.45 C 68.33 63.41 68.65 61.13 69.20 58.96 C 74.53 60.01 79.58 62.10 84.89 63.22 C 85.52 62.20 86.13 61.15 86.69 60.09 C 81.08 59.09 75.41 58.39 69.86 57.09 C 69.68 52.13 69.31 46.68 65.69 42.87 C 66.02 42.62 66.68 42.12 67.01 41.86 C 67.40 42.42 67.80 42.97 68.19 43.52 C 72.91 40.78 78.12 39.14 83.16 37.14 C 82.05 35.76 80.93 34.39 79.82 33.01 C 75.75 35.76 71.64 38.46 67.68 41.36 C 66.49 39.90 65.61 37.86 63.65 37.29 C 60.97 35.02 57.76 33.57 54.56 32.21 C 57.12 26.77 59.71 21.35 62.21 15.88 C 60.20 15.46 58.18 15.05 56.16 14.66 Z" />
<path fill="#ffffff" opacity="1.00" d=" M 56.16 14.66 C 58.18 15.05 60.20 15.46 62.21 15.88 C 59.71 21.35 57.12 26.77 54.56 32.21 C 57.76 33.57 60.97 35.02 63.65 37.29 L 62.86 37.01 C 57.63 34.61 51.88 32.89 46.09 34.07 C 39.76 34.70 35.08 39.67 31.73 44.67 C 29.32 48.16 29.72 52.58 29.91 56.59 C 30.92 53.32 31.57 49.93 32.89 46.76 C 35.98 39.48 44.05 34.71 51.91 35.41 C 54.95 35.70 57.86 36.70 60.80 37.47 C 62.48 39.23 64.12 41.01 65.69 42.87 C 69.31 46.68 69.68 52.13 69.86 57.09 C 75.41 58.39 81.08 59.09 86.69 60.09 C 86.13 61.15 85.52 62.20 84.89 63.22 C 79.58 62.10 74.53 60.01 69.20 58.96 C 68.65 61.13 68.33 63.41 67.34 65.45 C 66.05 67.62 64.01 69.19 62.20 70.90 C 67.08 75.26 71.87 79.72 76.69 84.15 C 75.94 85.40 75.19 86.65 74.45 87.91 C 69.64 82.79 65.46 77.13 60.89 71.81 C 55.88 73.30 50.68 73.94 45.46 74.04 C 45.19 79.33 44.69 84.60 44.18 89.87 C 42.56 89.59 40.95 89.32 39.33 89.05 C 40.79 83.79 42.25 78.52 43.71 73.25 C 39.18 70.85 35.31 67.45 32.05 63.52 C 26.69 66.06 21.33 68.61 15.91 71.03 C 15.35 69.40 14.79 67.76 14.23 66.13 C 19.87 64.65 25.53 63.27 31.18 61.84 C 29.65 57.35 28.41 52.75 28.17 47.99 C 22.53 46.70 16.87 45.53 11.17 44.53 C 11.21 43.31 11.25 42.08 11.30 40.86 C 17.25 42.29 22.98 44.47 28.82 46.30 C 31.08 42.72 33.78 39.44 36.83 36.51 C 31.92 32.54 26.85 28.78 21.84 24.93 C 23.29 24.09 24.73 23.25 26.18 22.41 C 30.30 26.55 34.02 31.05 37.98 35.35 C 42.61 32.99 47.74 31.99 52.90 31.85 C 53.96 26.11 55.05 20.38 56.16 14.66 M 44.34 38.24 C 38.53 40.00 33.94 45.14 32.75 51.07 C 30.57 59.98 37.17 69.44 46.08 70.97 C 56.70 73.40 68.24 64.00 67.32 53.00 C 66.51 42.31 54.33 34.92 44.34 38.24 Z" />
<path fill="#ffffff" opacity="1.00" d=" M 67.68 41.36 C 71.64 38.46 75.75 35.76 79.82 33.01 C 80.93 34.39 82.05 35.76 83.16 37.14 C 78.12 39.14 72.91 40.78 68.19 43.52 C 67.80 42.97 67.40 42.42 67.01 41.86 L 67.68 41.36 Z" />
<path fill="#239118" opacity="1.00" d=" M 31.73 44.67 C 35.08 39.67 39.76 34.70 46.09 34.07 C 51.88 32.89 57.63 34.61 62.86 37.01 C 62.35 37.13 61.32 37.36 60.80 37.47 C 57.86 36.70 54.95 35.70 51.91 35.41 C 44.05 34.71 35.98 39.48 32.89 46.76 C 31.57 49.93 30.92 53.32 29.91 56.59 C 29.72 52.58 29.32 48.16 31.73 44.67 Z" />
<path fill="#7ebe78" opacity="1.00" d=" M 62.86 37.01 L 63.65 37.29 C 65.61 37.86 66.49 39.90 67.68 41.36 L 67.01 41.86 C 66.68 42.12 66.02 42.62 65.69 42.87 C 64.12 41.01 62.48 39.23 60.80 37.47 C 61.32 37.36 62.35 37.13 62.86 37.01 Z" />
<path fill="#26960f" opacity="1.00" d=" M 44.34 38.24 C 54.33 34.92 66.51 42.31 67.32 53.00 C 68.24 64.00 56.70 73.40 46.08 70.97 C 37.17 69.44 30.57 59.98 32.75 51.07 C 33.94 45.14 38.53 40.00 44.34 38.24 M 40.24 44.57 C 39.29 46.06 37.95 47.41 37.49 49.16 C 37.60 52.04 38.35 54.90 39.46 57.55 C 41.11 58.16 42.88 58.23 44.62 58.38 C 44.46 59.84 44.32 61.31 44.19 62.78 C 45.43 63.23 46.66 63.67 47.90 64.10 C 48.85 60.68 49.64 57.23 50.52 53.79 C 51.52 57.37 52.34 61.00 53.50 64.53 C 56.12 62.96 56.05 60.00 55.72 57.33 C 57.72 57.91 60.28 59.17 61.95 57.20 C 62.86 55.12 63.25 52.84 63.58 50.61 C 64.18 48.18 61.99 46.42 60.85 44.57 C 57.16 46.94 53.89 49.87 50.66 52.83 C 47.32 49.91 44.01 46.92 40.24 44.57 Z" />
<path fill="#ffffff" opacity="1.00" d=" M 40.24 44.57 C 44.01 46.92 47.32 49.91 50.66 52.83 C 53.89 49.87 57.16 46.94 60.85 44.57 C 61.99 46.42 64.18 48.18 63.58 50.61 C 63.25 52.84 62.86 55.12 61.95 57.20 C 60.28 59.17 57.72 57.91 55.72 57.33 C 56.05 60.00 56.12 62.96 53.50 64.53 C 52.34 61.00 51.52 57.37 50.52 53.79 C 49.64 57.23 48.85 60.68 47.90 64.10 C 46.66 63.67 45.43 63.23 44.19 62.78 C 44.32 61.31 44.46 59.84 44.62 58.38 C 42.88 58.23 41.11 58.16 39.46 57.55 C 38.35 54.90 37.60 52.04 37.49 49.16 C 37.95 47.41 39.29 46.06 40.24 44.57 Z" />
</svg>
