<?xml version="1.0" encoding="UTF-8" ?>
<!DOCTYPE svg PUBLIC "-//W3C//DTD SVG 1.1//EN" "http://www.w3.org/Graphics/SVG/1.1/DTD/svg11.dtd">
<svg width="100pt" height="100pt" viewBox="0 0 100 100" version="1.1" xmlns="http://www.w3.org/2000/svg">
<path fill="#bdbaba" opacity="1.00" d=" M 10.12 41.53 C 23.48 32.66 36.76 23.64 50.00 14.59 C 63.24 23.65 76.52 32.65 89.88 41.53 C 85.47 54.76 80.66 67.85 76.21 81.07 C 75.41 82.97 74.82 86.11 72.06 85.49 C 57.35 85.51 42.64 85.50 27.94 85.49 C 25.17 86.12 24.60 82.96 23.79 81.07 C 19.34 67.85 14.53 54.76 10.12 41.53 M 41.05 24.24 C 41.23 24.83 41.60 26.00 41.78 26.58 C 41.31 26.36 40.38 25.92 39.91 25.70 L 39.79 24.92 C 32.28 30.47 24.28 35.32 16.79 40.89 C 17.34 41.15 18.44 41.67 18.99 41.93 C 18.11 42.05 16.34 42.28 15.46 42.39 C 15.09 42.18 14.35 41.77 13.98 41.57 C 16.07 50.99 19.94 59.88 22.94 69.02 C 24.57 73.36 25.53 78.01 27.90 82.04 C 34.83 83.39 41.99 82.35 49.01 82.57 C 56.69 82.30 64.50 83.41 72.10 82.05 C 74.67 77.55 75.71 72.39 77.57 67.59 C 80.43 58.93 84.06 50.50 86.03 41.57 C 85.65 41.77 84.91 42.19 84.54 42.39 C 83.66 42.28 81.89 42.05 81.01 41.93 C 81.56 41.67 82.66 41.15 83.21 40.89 C 75.73 35.31 67.72 30.49 60.24 24.93 L 60.10 25.71 C 59.62 25.93 58.67 26.36 58.20 26.57 C 58.39 25.99 58.76 24.83 58.95 24.25 C 55.95 22.26 52.98 20.24 50.00 18.21 C 47.03 20.24 44.05 22.26 41.05 24.24 Z" />
<path fill="#217a7a" opacity="1.00" d=" M 41.05 24.24 C 44.05 22.26 47.03 20.24 50.00 18.21 C 52.98 20.24 55.95 22.26 58.95 24.25 C 58.76 24.83 58.39 25.99 58.20 26.57 C 56.93 30.14 56.39 33.92 56.36 37.69 C 58.27 33.94 59.50 29.88 60.10 25.71 L 60.24 24.93 C 67.72 30.49 75.73 35.31 83.21 40.89 C 82.66 41.15 81.56 41.67 81.01 41.93 C 76.88 43.76 73.05 46.22 69.63 49.17 C 74.90 47.64 79.78 45.08 84.54 42.39 C 84.91 42.19 85.65 41.77 86.03 41.57 C 84.06 50.50 80.43 58.93 77.57 67.59 C 75.71 72.39 74.67 77.55 72.10 82.05 C 64.50 83.41 56.69 82.30 49.01 82.57 C 41.99 82.35 34.83 83.39 27.90 82.04 C 25.53 78.01 24.57 73.36 22.94 69.02 C 19.94 59.88 16.07 50.99 13.98 41.57 C 14.35 41.77 15.09 42.18 15.46 42.39 C 20.22 45.08 25.09 47.64 30.37 49.16 C 26.95 46.22 23.12 43.76 18.99 41.93 C 18.44 41.67 17.34 41.15 16.79 40.89 C 24.28 35.32 32.28 30.47 39.79 24.92 L 39.91 25.70 C 40.45 29.93 41.70 34.06 43.88 37.74 C 43.61 33.96 43.04 30.17 41.78 26.58 C 41.60 26.00 41.23 24.83 41.05 24.24 M 49.36 18.96 C 49.09 21.39 48.94 23.84 48.83 26.28 C 49.52 26.25 50.89 26.19 51.58 26.16 C 51.37 23.61 51.46 20.81 49.36 18.96 M 47.04 29.99 C 46.25 32.73 46.61 35.63 46.04 38.40 C 42.61 40.63 38.01 40.35 34.79 42.82 C 32.55 46.71 30.64 50.91 29.49 55.25 C 29.13 59.65 28.83 64.14 29.42 68.53 C 30.50 69.66 31.83 70.50 33.08 71.43 C 33.63 69.75 34.35 68.13 34.91 66.46 C 33.40 60.90 36.85 55.80 38.72 50.79 C 40.26 53.42 42.14 56.03 42.63 59.10 C 42.59 62.41 41.51 65.58 40.76 68.77 C 39.60 72.94 39.27 77.27 38.31 81.48 C 40.49 81.40 42.69 81.43 44.85 81.08 C 47.47 78.88 48.47 75.41 50.00 72.47 C 51.53 75.41 52.53 78.88 55.15 81.08 C 57.31 81.43 59.51 81.40 61.70 81.48 C 60.73 77.27 60.40 72.94 59.24 68.77 C 58.49 65.58 57.40 62.40 57.37 59.10 C 57.87 56.03 59.74 53.42 61.28 50.79 C 63.16 55.81 66.60 60.91 65.09 66.48 C 65.71 68.13 66.28 69.79 66.93 71.42 C 68.39 70.11 71.03 69.30 70.82 66.94 C 70.78 61.36 71.48 55.41 68.82 50.26 C 67.49 47.63 66.79 44.54 64.71 42.38 C 61.13 40.56 57.13 39.76 53.42 38.26 C 53.50 35.51 53.98 32.63 52.99 29.98 C 51.39 28.37 48.61 28.30 47.04 29.99 M 31.98 30.42 C 32.97 33.98 35.11 37.10 38.02 39.37 C 37.04 35.82 35.41 32.22 31.98 30.42 M 61.98 39.37 C 64.89 37.10 67.03 33.99 68.02 30.42 C 64.59 32.21 62.97 35.82 61.98 39.37 M 24.50 35.54 C 26.16 39.00 29.14 41.53 32.54 43.20 C 30.93 39.71 28.21 36.78 24.50 35.54 M 67.46 43.20 C 70.86 41.53 73.84 39.00 75.50 35.54 C 71.78 36.78 69.06 39.71 67.46 43.20 M 17.20 51.58 C 19.91 54.54 23.97 55.00 27.76 54.86 C 24.67 52.68 20.93 51.78 17.20 51.58 M 72.24 54.88 C 76.03 54.99 80.08 54.54 82.80 51.59 C 79.07 51.79 75.32 52.67 72.24 54.88 M 21.15 59.86 C 21.21 60.48 21.32 61.74 21.38 62.36 C 23.77 61.82 26.15 61.27 28.50 60.59 C 26.05 60.27 23.60 60.07 21.15 59.86 M 71.51 60.59 C 73.86 61.27 76.24 61.82 78.63 62.36 C 78.68 61.73 78.78 60.48 78.83 59.86 C 76.39 60.07 73.94 60.28 71.51 60.59 M 24.33 67.19 C 23.24 68.55 25.62 69.99 26.48 68.59 C 27.58 67.22 25.20 65.79 24.33 67.19 M 73.51 67.10 C 72.47 68.40 74.72 69.98 75.67 68.68 C 76.71 67.37 74.46 65.79 73.51 67.10 M 25.63 76.30 C 28.06 75.63 30.10 74.13 31.38 71.95 C 29.05 72.78 27.05 74.27 25.63 76.30 M 68.61 71.96 C 69.91 74.13 71.94 75.62 74.37 76.30 C 72.95 74.27 70.95 72.78 68.61 71.96 Z" />
<path fill="#fefefe" opacity="1.00" d=" M 49.36 18.96 C 51.46 20.81 51.37 23.61 51.58 26.16 C 50.89 26.19 49.52 26.25 48.83 26.28 C 48.94 23.84 49.09 21.39 49.36 18.96 Z" />
<path fill="#ffffff" opacity="1.00" d=" M 39.91 25.70 C 40.38 25.92 41.31 26.36 41.78 26.58 C 43.04 30.17 43.61 33.96 43.88 37.74 C 41.70 34.06 40.45 29.93 39.91 25.70 Z" />
<path fill="#ffffff" opacity="1.00" d=" M 58.20 26.57 C 58.67 26.36 59.62 25.93 60.10 25.71 C 59.50 29.88 58.27 33.94 56.36 37.69 C 56.39 33.92 56.93 30.14 58.20 26.57 Z" />
<path fill="#ffffff" opacity="1.00" d=" M 47.04 29.99 C 48.61 28.30 51.39 28.37 52.99 29.98 C 53.98 32.63 53.50 35.51 53.42 38.26 C 57.13 39.76 61.13 40.56 64.71 42.38 C 66.79 44.54 67.49 47.63 68.82 50.26 C 71.48 55.41 70.78 61.36 70.82 66.94 C 71.03 69.30 68.39 70.11 66.93 71.42 C 66.28 69.79 65.71 68.13 65.09 66.48 C 66.60 60.91 63.16 55.81 61.28 50.79 C 59.74 53.42 57.87 56.03 57.37 59.10 C 57.40 62.40 58.49 65.58 59.24 68.77 C 60.40 72.94 60.73 77.27 61.70 81.48 C 59.51 81.40 57.31 81.43 55.15 81.08 C 52.53 78.88 51.53 75.41 50.00 72.47 C 48.47 75.41 47.47 78.88 44.85 81.08 C 42.69 81.43 40.49 81.40 38.31 81.48 C 39.27 77.27 39.60 72.94 40.76 68.77 C 41.51 65.58 42.59 62.41 42.63 59.10 C 42.14 56.03 40.26 53.42 38.72 50.79 C 36.85 55.80 33.40 60.90 34.91 66.46 C 34.35 68.13 33.63 69.75 33.08 71.43 C 31.83 70.50 30.50 69.66 29.42 68.53 C 28.83 64.14 29.13 59.65 29.49 55.25 C 30.64 50.91 32.55 46.71 34.79 42.82 C 38.01 40.35 42.61 40.63 46.04 38.40 C 46.61 35.63 46.25 32.73 47.04 29.99 Z" />
<path fill="#ffffff" opacity="1.00" d=" M 31.98 30.42 C 35.41 32.22 37.04 35.82 38.02 39.37 C 35.11 37.10 32.97 33.98 31.98 30.42 Z" />
<path fill="#ffffff" opacity="1.00" d=" M 61.98 39.37 C 62.97 35.82 64.59 32.21 68.02 30.42 C 67.03 33.99 64.89 37.10 61.98 39.37 Z" />
<path fill="#eef5f5" opacity="1.00" d=" M 24.50 35.54 C 28.21 36.78 30.93 39.71 32.54 43.20 C 29.14 41.53 26.16 39.00 24.50 35.54 Z" />
<path fill="#edf4f4" opacity="1.00" d=" M 67.46 43.20 C 69.06 39.71 71.78 36.78 75.50 35.54 C 73.84 39.00 70.86 41.53 67.46 43.20 Z" />
<path fill="#ffffff" opacity="1.00" d=" M 15.46 42.39 C 16.34 42.28 18.11 42.05 18.99 41.93 C 23.12 43.76 26.95 46.22 30.37 49.16 C 25.09 47.64 20.22 45.08 15.46 42.39 Z" />
<path fill="#ffffff" opacity="1.00" d=" M 69.63 49.17 C 73.05 46.22 76.88 43.76 81.01 41.93 C 81.89 42.05 83.66 42.28 84.54 42.39 C 79.78 45.08 74.90 47.64 69.63 49.17 Z" />
<path fill="#ffffff" opacity="1.00" d=" M 17.20 51.58 C 20.93 51.78 24.67 52.68 27.76 54.86 C 23.97 55.00 19.91 54.54 17.20 51.58 Z" />
<path fill="#ffffff" opacity="1.00" d=" M 72.24 54.88 C 75.32 52.67 79.07 51.79 82.80 51.59 C 80.08 54.54 76.03 54.99 72.24 54.88 Z" />
<path fill="#ffffff" opacity="1.00" d=" M 21.15 59.86 C 23.60 60.07 26.05 60.27 28.50 60.59 C 26.15 61.27 23.77 61.82 21.38 62.36 C 21.32 61.74 21.21 60.48 21.15 59.86 Z" />
<path fill="#ffffff" opacity="1.00" d=" M 71.51 60.59 C 73.94 60.28 76.39 60.07 78.83 59.86 C 78.78 60.48 78.68 61.73 78.63 62.36 C 76.24 61.82 73.86 61.27 71.51 60.59 Z" />
<path fill="#eef4f4" opacity="1.00" d=" M 24.33 67.19 C 25.20 65.79 27.58 67.22 26.48 68.59 C 25.62 69.99 23.24 68.55 24.33 67.19 Z" />
<path fill="#eef4f4" opacity="1.00" d=" M 73.51 67.10 C 74.46 65.79 76.71 67.37 75.67 68.68 C 74.72 69.98 72.47 68.40 73.51 67.10 Z" />
<path fill="#ffffff" opacity="1.00" d=" M 25.63 76.30 C 27.05 74.27 29.05 72.78 31.38 71.95 C 30.10 74.13 28.06 75.63 25.63 76.30 Z" />
<path fill="#ffffff" opacity="1.00" d=" M 68.61 71.96 C 70.95 72.78 72.95 74.27 74.37 76.30 C 71.94 75.62 69.91 74.13 68.61 71.96 Z" />
</svg>
