<?xml version="1.0" encoding="UTF-8" ?>
<!DOCTYPE svg PUBLIC "-//W3C//DTD SVG 1.1//EN" "http://www.w3.org/Graphics/SVG/1.1/DTD/svg11.dtd">
<svg width="100pt" height="100pt" viewBox="0 0 100 100" version="1.1" xmlns="http://www.w3.org/2000/svg">
<path fill="#b9bbb9" opacity="1.00" d=" M 8.00 20.26 C 36.03 20.28 64.05 20.47 92.08 20.45 C 78.47 40.18 64.57 59.71 50.90 79.39 C 49.00 77.49 46.95 75.41 44.01 75.71 C 38.75 76.20 36.46 70.60 35.13 66.49 C 29.80 69.34 24.67 72.64 19.10 75.01 C 16.24 71.68 14.33 67.69 12.04 63.99 C 15.45 62.81 18.86 61.68 22.20 60.32 C 18.64 60.32 15.09 60.49 11.53 60.58 C 11.40 56.55 11.21 52.52 11.01 48.49 C 14.79 48.71 18.55 49.11 22.32 49.34 C 18.63 47.54 14.72 46.25 10.83 44.96 C 12.75 40.91 14.78 36.90 17.15 33.09 C 14.05 28.85 10.99 24.58 8.00 20.26 M 13.24 24.18 L 14.25 24.07 C 17.97 29.84 22.29 35.17 26.18 40.82 C 23.15 39.48 20.14 38.09 17.11 36.76 C 15.96 39.13 14.82 41.50 13.71 43.88 C 20.57 46.79 28.15 47.90 34.55 51.82 C 27.39 52.09 20.30 50.81 13.15 50.72 C 13.21 53.41 13.27 56.10 13.32 58.79 C 20.61 58.67 27.85 57.55 35.14 57.46 C 28.72 60.78 21.60 62.33 14.95 65.09 C 16.49 67.64 18.12 70.14 19.84 72.58 C 26.08 69.33 32.14 65.74 38.46 62.64 C 38.26 65.38 37.14 68.57 39.10 70.94 C 41.79 75.15 47.36 73.26 51.50 73.56 C 55.12 67.55 60.60 62.53 62.68 55.70 C 66.46 53.80 68.16 49.74 70.54 46.48 C 75.77 38.66 81.66 31.27 86.38 23.12 C 63.90 22.91 41.41 22.91 18.93 23.23 C 17.00 23.28 15.10 23.66 13.24 24.18 Z" />
<path fill="#bf65a7" opacity="1.00" d=" M 13.24 24.18 C 15.10 23.66 17.00 23.28 18.93 23.23 C 41.41 22.91 63.90 22.91 86.38 23.12 C 81.66 31.27 75.77 38.66 70.54 46.48 C 68.16 49.74 66.46 53.80 62.68 55.70 C 64.17 53.11 65.44 50.40 66.83 47.75 C 71.53 39.95 77.59 33.09 82.39 25.35 C 76.55 25.36 70.73 26.02 64.90 25.84 C 60.81 25.19 56.67 24.99 52.54 25.41 C 50.79 25.38 49.05 25.29 47.30 25.29 C 44.50 25.22 41.71 25.26 38.91 25.40 L 38.10 25.44 C 34.52 25.42 30.95 25.13 27.39 24.74 C 23.10 23.61 18.64 23.46 14.25 24.07 L 13.24 24.18 Z" />
<path fill="#941271" opacity="1.00" d=" M 14.25 24.07 C 18.64 23.46 23.10 23.61 27.39 24.74 C 24.27 24.84 21.16 25.05 18.05 25.22 C 18.83 26.88 19.63 28.54 20.42 30.19 C 20.44 29.04 20.46 27.88 20.47 26.72 C 26.34 26.11 32.23 25.87 38.10 25.44 L 38.91 25.40 C 38.69 27.24 38.45 29.08 38.20 30.92 C 40.73 28.33 43.71 26.13 47.30 25.29 C 49.05 25.29 50.79 25.38 52.54 25.41 C 55.89 27.00 59.18 28.72 62.47 30.42 C 60.57 32.49 58.80 34.95 56.09 36.00 C 53.20 37.12 50.13 37.65 47.12 38.32 C 46.91 42.46 46.80 46.60 46.63 50.73 C 44.98 48.24 43.64 45.53 41.65 43.28 C 39.76 43.61 38.48 45.54 36.94 46.62 C 41.42 48.16 45.53 50.66 48.24 54.64 C 45.67 56.25 43.10 57.85 40.50 59.40 C 40.80 62.81 39.91 66.53 41.34 69.73 C 43.52 72.60 47.19 70.84 49.78 69.64 C 47.37 69.41 44.95 69.29 42.54 69.14 C 42.49 66.21 42.27 63.22 42.89 60.34 C 44.34 58.76 46.23 57.70 47.99 56.51 C 49.00 61.79 49.56 67.14 50.13 72.48 C 54.54 67.06 58.24 61.11 62.68 55.70 C 60.60 62.53 55.12 67.55 51.50 73.56 C 47.36 73.26 41.79 75.15 39.10 70.94 C 37.14 68.57 38.26 65.38 38.46 62.64 C 32.14 65.74 26.08 69.33 19.84 72.58 C 18.12 70.14 16.49 67.64 14.95 65.09 C 21.60 62.33 28.72 60.78 35.14 57.46 C 27.85 57.55 20.61 58.67 13.32 58.79 C 13.27 56.10 13.21 53.41 13.15 50.72 C 20.30 50.81 27.39 52.09 34.55 51.82 C 28.15 47.90 20.57 46.79 13.71 43.88 C 14.82 41.50 15.96 39.13 17.11 36.76 C 20.14 38.09 23.15 39.48 26.18 40.82 C 22.29 35.17 17.97 29.84 14.25 24.07 M 40.21 30.80 C 41.20 35.50 37.20 38.97 35.65 43.04 C 38.52 41.52 41.66 41.44 44.69 42.52 C 44.07 39.76 41.64 39.29 39.17 39.44 C 40.58 37.40 41.94 35.32 43.10 33.14 C 44.79 33.48 46.47 33.82 48.14 34.20 C 50.97 32.87 53.86 31.70 56.76 30.57 C 51.96 26.71 45.23 28.18 40.21 30.80 M 18.20 39.99 C 17.86 40.84 17.52 41.69 17.17 42.54 C 22.80 44.31 28.26 46.60 34.01 47.99 C 28.92 44.98 23.59 42.41 18.20 39.99 M 40.62 50.21 C 39.82 51.82 42.53 53.31 43.76 52.31 C 44.53 50.74 41.83 49.10 40.62 50.21 M 15.87 53.33 C 15.88 53.96 15.88 55.20 15.89 55.83 C 21.66 55.63 27.51 56.01 33.19 54.77 C 27.45 53.99 21.65 53.76 15.87 53.33 M 41.17 56.20 C 41.30 59.55 44.15 54.67 41.17 56.20 M 19.05 66.23 C 19.43 67.24 19.81 68.26 20.20 69.27 C 25.74 66.66 31.28 63.95 36.36 60.49 C 30.51 62.17 24.86 64.45 19.05 66.23 Z" />
<path fill="#ffffff" opacity="1.00" d=" M 18.05 25.22 C 21.16 25.05 24.27 24.84 27.39 24.74 C 30.95 25.13 34.52 25.42 38.10 25.44 C 32.23 25.87 26.34 26.11 20.47 26.72 C 20.46 27.88 20.44 29.04 20.42 30.19 C 19.63 28.54 18.83 26.88 18.05 25.22 Z" />
<path fill="#ffffff" opacity="1.00" d=" M 38.91 25.40 C 41.71 25.26 44.50 25.22 47.30 25.29 C 43.71 26.13 40.73 28.33 38.20 30.92 C 38.45 29.08 38.69 27.24 38.91 25.40 Z" />
<path fill="#ffffff" opacity="1.00" d=" M 52.54 25.41 C 56.67 24.99 60.81 25.19 64.90 25.84 C 65.76 27.00 66.62 28.16 67.50 29.31 C 65.75 32.20 64.12 35.32 61.32 37.33 C 58.04 39.86 53.83 40.47 49.90 41.35 C 49.60 48.76 50.99 56.08 52.37 63.32 C 59.19 60.32 62.41 53.27 66.83 47.75 C 65.44 50.40 64.17 53.11 62.68 55.70 C 58.24 61.11 54.54 67.06 50.13 72.48 C 49.56 67.14 49.00 61.79 47.99 56.51 C 46.23 57.70 44.34 58.76 42.89 60.34 C 42.27 63.22 42.49 66.21 42.54 69.14 C 44.95 69.29 47.37 69.41 49.78 69.64 C 47.19 70.84 43.52 72.60 41.34 69.73 C 39.91 66.53 40.80 62.81 40.50 59.40 C 43.10 57.85 45.67 56.25 48.24 54.64 C 45.53 50.66 41.42 48.16 36.94 46.62 C 38.48 45.54 39.76 43.61 41.65 43.28 C 43.64 45.53 44.98 48.24 46.63 50.73 C 46.80 46.60 46.91 42.46 47.12 38.32 C 50.13 37.65 53.20 37.12 56.09 36.00 C 58.80 34.95 60.57 32.49 62.47 30.42 C 59.18 28.72 55.89 27.00 52.54 25.41 Z" />
<path fill="#941271" opacity="1.00" d=" M 64.90 25.84 C 70.73 26.02 76.55 25.36 82.39 25.35 C 77.59 33.09 71.53 39.95 66.83 47.75 C 62.41 53.27 59.19 60.32 52.37 63.32 C 50.99 56.08 49.60 48.76 49.90 41.35 C 53.83 40.47 58.04 39.86 61.32 37.33 C 64.12 35.32 65.75 32.20 67.50 29.31 C 66.62 28.16 65.76 27.00 64.90 25.84 Z" />
<path fill="#ffffff" opacity="1.00" d=" M 40.21 30.80 C 45.23 28.18 51.96 26.71 56.76 30.57 C 53.86 31.70 50.97 32.87 48.14 34.20 C 46.47 33.82 44.79 33.48 43.10 33.14 C 41.94 35.32 40.58 37.40 39.17 39.44 C 41.64 39.29 44.07 39.76 44.69 42.52 C 41.66 41.44 38.52 41.52 35.65 43.04 C 37.20 38.97 41.20 35.50 40.21 30.80 Z" />
<path fill="#ffffff" opacity="1.00" d=" M 18.20 39.99 C 23.59 42.41 28.92 44.98 34.01 47.99 C 28.26 46.60 22.80 44.31 17.17 42.54 C 17.52 41.69 17.86 40.84 18.20 39.99 Z" />
<path fill="#ffffff" opacity="1.00" d=" M 40.62 50.21 C 41.83 49.10 44.53 50.74 43.76 52.31 C 42.53 53.31 39.82 51.82 40.62 50.21 Z" />
<path fill="#ffffff" opacity="1.00" d=" M 15.87 53.33 C 21.65 53.76 27.45 53.99 33.19 54.77 C 27.51 56.01 21.66 55.63 15.89 55.83 C 15.88 55.20 15.88 53.96 15.87 53.33 Z" />
<path fill="#ebd2e5" opacity="1.00" d=" M 41.17 56.20 C 44.15 54.67 41.30 59.55 41.17 56.20 Z" />
<path fill="#ffffff" opacity="1.00" d=" M 19.05 66.23 C 24.86 64.45 30.51 62.17 36.36 60.49 C 31.28 63.95 25.74 66.66 20.20 69.27 C 19.81 68.26 19.43 67.24 19.05 66.23 Z" />
</svg>
