<?xml version="1.0" encoding="UTF-8" ?>
<!DOCTYPE svg PUBLIC "-//W3C//DTD SVG 1.1//EN" "http://www.w3.org/Graphics/SVG/1.1/DTD/svg11.dtd">
<svg width="100pt" height="100pt" viewBox="0 0 100 100" version="1.1" xmlns="http://www.w3.org/2000/svg">
<path fill="#ffffff" opacity="1.00" d=" M 50.24 3.94 C 53.09 6.40 54.90 9.81 57.57 12.37 C 62.34 14.12 67.36 15.45 71.52 18.51 C 77.46 22.36 81.64 28.23 85.02 34.33 C 89.20 34.37 93.37 34.43 97.54 34.67 C 94.73 38.47 91.31 41.75 88.39 45.44 C 87.82 51.49 88.24 57.83 85.51 63.48 C 82.78 58.45 84.43 52.51 84.99 47.15 C 86.62 42.93 90.69 40.23 93.22 36.55 C 89.56 36.41 85.90 36.33 82.24 36.20 C 78.69 30.47 74.88 24.55 68.98 20.97 C 65.26 18.36 60.62 17.58 56.81 15.18 C 54.38 12.63 52.61 9.54 50.31 6.87 C 47.29 10.42 45.68 17.09 39.92 16.58 C 35.04 15.35 30.65 12.28 25.41 12.46 C 27.23 15.23 29.39 17.76 31.68 20.16 C 25.99 24.39 21.43 29.86 17.83 35.95 C 13.70 35.87 9.57 35.91 5.45 36.19 C 8.30 39.56 12.18 41.87 14.99 45.25 C 15.71 51.45 15.24 58.00 18.15 63.76 C 24.40 78.77 41.99 87.86 57.82 83.83 C 66.71 82.03 73.82 75.94 79.38 69.08 C 80.25 69.66 81.12 70.25 81.99 70.85 C 76.96 78.43 69.26 84.19 60.47 86.64 C 43.75 92.12 24.13 83.26 16.24 67.73 C 12.46 60.81 11.49 52.76 11.98 44.99 C 8.08 41.63 4.09 38.36 0.42 34.75 C 5.42 34.13 10.44 33.76 15.47 33.66 C 18.24 28.07 22.36 23.32 27.06 19.27 C 25.21 16.63 23.64 13.82 22.27 10.91 C 24.85 10.76 27.45 10.54 30.03 10.78 C 32.89 11.16 35.30 12.97 38.09 13.60 C 40.46 13.26 43.45 13.12 44.92 10.94 C 46.63 8.56 48.36 6.19 50.24 3.94 Z" />
<path fill="#482b46" opacity="1.00" d=" M 50.31 6.87 C 52.61 9.54 54.38 12.63 56.81 15.18 C 60.62 17.58 65.26 18.36 68.98 20.97 C 74.88 24.55 78.69 30.47 82.24 36.20 C 85.90 36.33 89.56 36.41 93.22 36.55 C 90.69 40.23 86.62 42.93 84.99 47.15 C 84.43 52.51 82.78 58.45 85.51 63.48 C 88.56 69.20 91.64 74.92 94.11 80.93 C 89.85 77.83 86.26 73.92 81.99 70.85 C 81.12 70.25 80.25 69.66 79.38 69.08 C 73.82 75.94 66.71 82.03 57.82 83.83 C 41.99 87.86 24.40 78.77 18.15 63.76 C 15.24 58.00 15.71 51.45 14.99 45.25 C 12.18 41.87 8.30 39.56 5.45 36.19 C 9.57 35.91 13.70 35.87 17.83 35.95 C 21.43 29.86 25.99 24.39 31.68 20.16 C 29.39 17.76 27.23 15.23 25.41 12.46 C 30.65 12.28 35.04 15.35 39.92 16.58 C 45.68 17.09 47.29 10.42 50.31 6.87 M 50.39 11.00 C 48.75 14.19 47.54 17.59 45.63 20.63 C 45.01 21.60 43.46 22.36 42.38 21.71 C 38.16 19.60 34.34 16.73 29.95 14.95 C 33.08 18.01 36.58 20.68 39.61 23.84 C 33.65 28.00 27.73 32.44 23.33 38.31 C 21.80 40.71 21.77 43.67 21.44 46.41 C 21.15 50.81 20.80 55.27 21.52 59.65 C 22.19 63.57 25.34 66.26 27.98 68.94 C 31.53 72.43 34.51 76.85 39.37 78.64 C 48.53 82.11 59.18 80.62 67.42 75.45 C 71.43 72.73 75.65 69.48 77.28 64.71 C 76.81 64.75 75.86 64.82 75.39 64.86 C 72.86 68.03 70.92 71.77 67.36 73.98 C 61.06 64.64 52.10 57.75 43.65 50.51 C 55.29 54.19 67.06 58.04 77.48 64.55 C 80.65 66.66 83.63 69.05 86.79 71.18 C 84.92 66.88 81.90 63.17 80.14 58.83 C 79.68 54.96 79.73 51.02 80.01 47.14 C 82.16 43.95 85.61 41.88 88.13 38.99 C 85.18 38.98 82.18 39.37 79.25 38.85 C 75.24 36.23 73.02 31.67 69.23 28.75 C 65.29 25.01 60.14 23.14 55.55 20.45 C 53.48 17.50 52.28 14.06 50.39 11.00 M 10.97 38.13 C 13.73 40.63 16.74 42.82 19.85 44.85 C 20.18 42.98 20.51 41.12 20.84 39.25 C 17.57 38.75 14.28 38.34 10.97 38.13 Z" />
<path fill="#ffffff" opacity="1.00" d=" M 50.39 11.00 C 52.28 14.06 53.48 17.50 55.55 20.45 C 60.14 23.14 65.29 25.01 69.23 28.75 C 73.02 31.67 75.24 36.23 79.25 38.85 C 82.18 39.37 85.18 38.98 88.13 38.99 C 85.61 41.88 82.16 43.95 80.01 47.14 C 79.73 51.02 79.68 54.96 80.14 58.83 C 81.90 63.17 84.92 66.88 86.79 71.18 C 83.63 69.05 80.65 66.66 77.48 64.55 C 67.06 58.04 55.29 54.19 43.65 50.51 C 52.10 57.75 61.06 64.64 67.36 73.98 C 70.92 71.77 72.86 68.03 75.39 64.86 C 75.86 64.82 76.81 64.75 77.28 64.71 C 75.65 69.48 71.43 72.73 67.42 75.45 C 59.18 80.62 48.53 82.11 39.37 78.64 C 34.51 76.85 31.53 72.43 27.98 68.94 C 25.34 66.26 22.19 63.57 21.52 59.65 C 20.80 55.27 21.15 50.81 21.44 46.41 C 21.77 43.67 21.80 40.71 23.33 38.31 C 27.73 32.44 33.65 28.00 39.61 23.84 C 36.58 20.68 33.08 18.01 29.95 14.95 C 34.34 16.73 38.16 19.60 42.38 21.71 C 43.46 22.36 45.01 21.60 45.63 20.63 C 47.54 17.59 48.75 14.19 50.39 11.00 M 45.45 23.83 C 48.61 27.26 52.33 30.10 55.77 33.23 C 63.87 40.32 70.69 48.66 78.06 56.45 C 78.51 51.96 78.82 47.21 76.96 42.98 C 74.79 38.18 71.26 34.14 67.53 30.49 C 61.73 24.93 53.31 22.75 45.45 23.83 M 28.84 33.92 C 25.95 37.13 23.47 41.34 24.25 45.83 C 25.04 50.79 24.98 55.81 25.51 60.79 C 25.90 64.28 28.00 67.24 30.51 69.56 C 33.06 71.97 35.00 75.22 38.33 76.67 C 43.99 79.37 50.35 77.45 56.33 77.80 C 49.98 68.04 41.83 59.49 32.51 52.52 C 30.23 50.78 27.63 49.40 25.72 47.23 C 24.75 45.49 25.57 43.51 25.86 41.70 C 43.14 45.47 59.58 52.24 75.48 59.85 C 73.57 57.04 71.36 54.44 69.03 51.98 C 60.12 42.44 50.85 33.21 40.90 24.76 C 36.07 26.58 32.31 30.24 28.84 33.92 Z" />
<path fill="#482b46" opacity="1.00" d=" M 45.45 23.83 C 53.31 22.75 61.73 24.93 67.53 30.49 C 71.26 34.14 74.79 38.18 76.96 42.98 C 78.82 47.21 78.51 51.96 78.06 56.45 C 70.69 48.66 63.87 40.32 55.77 33.23 C 52.33 30.10 48.61 27.26 45.45 23.83 Z" />
<path fill="#482b46" opacity="1.00" d=" M 28.84 33.92 C 32.31 30.24 36.07 26.58 40.90 24.76 C 50.85 33.21 60.12 42.44 69.03 51.98 C 71.36 54.44 73.57 57.04 75.48 59.85 C 59.58 52.24 43.14 45.47 25.86 41.70 C 25.57 43.51 24.75 45.49 25.72 47.23 C 27.63 49.40 30.23 50.78 32.51 52.52 C 41.83 59.49 49.98 68.04 56.33 77.80 C 50.35 77.45 43.99 79.37 38.33 76.67 C 35.00 75.22 33.06 71.97 30.51 69.56 C 28.00 67.24 25.90 64.28 25.51 60.79 C 24.98 55.81 25.04 50.79 24.25 45.83 C 23.47 41.34 25.95 37.13 28.84 33.92 Z" />
<path fill="#ffffff" opacity="1.00" d=" M 10.97 38.13 C 14.28 38.34 17.57 38.75 20.84 39.25 C 20.51 41.12 20.18 42.98 19.85 44.85 C 16.74 42.82 13.73 40.63 10.97 38.13 Z" />
</svg>
