<?xml version="1.0" encoding="UTF-8" ?>
<!DOCTYPE svg PUBLIC "-//W3C//DTD SVG 1.1//EN" "http://www.w3.org/Graphics/SVG/1.1/DTD/svg11.dtd">
<svg width="100pt" height="100pt" viewBox="0 0 100 100" version="1.1" xmlns="http://www.w3.org/2000/svg">
<path fill="#bab9b9" opacity="1.00" d=" M 44.15 26.18 C 46.24 24.17 47.72 21.64 49.42 19.31 C 52.50 23.25 55.37 27.34 58.29 31.39 C 62.11 29.01 65.77 26.38 69.54 23.92 C 72.78 28.78 76.08 33.59 79.29 38.47 C 81.73 38.66 84.17 38.90 86.60 39.17 C 85.17 42.02 83.87 45.21 80.96 46.88 C 78.38 48.87 73.34 50.46 75.22 54.65 C 80.25 63.03 86.60 70.58 92.01 78.73 C 80.01 78.70 68.01 78.78 56.00 78.61 C 48.84 78.71 41.63 78.15 34.52 79.28 C 31.67 79.70 28.88 78.63 26.04 78.58 C 20.00 78.31 13.95 78.59 7.90 78.50 C 10.94 74.27 13.77 69.89 16.52 65.46 C 18.91 61.64 22.45 58.61 24.39 54.51 C 25.18 51.03 24.93 47.38 26.01 43.95 C 27.92 37.71 32.41 32.21 38.29 29.32 C 40.24 28.27 42.39 27.55 44.15 26.18 M 38.46 31.55 C 33.71 33.97 30.23 38.43 28.31 43.34 C 26.67 47.61 27.39 52.28 26.54 56.69 C 24.80 60.06 21.20 62.00 19.25 65.24 C 17.24 68.57 16.01 72.29 14.24 75.74 C 20.56 75.27 26.86 75.91 33.14 76.45 C 50.73 74.67 68.45 76.11 86.10 75.62 C 82.79 70.16 78.77 65.19 75.03 60.03 C 72.78 57.16 71.87 52.97 73.62 49.65 C 77.01 46.72 81.37 44.82 83.65 40.73 C 79.39 40.92 75.20 41.80 71.12 43.00 C 70.75 42.51 70.03 41.55 69.67 41.06 C 71.74 39.84 73.81 38.62 75.90 37.42 C 73.86 33.70 71.52 30.17 68.96 26.79 C 65.38 29.00 62.15 32.16 57.96 33.11 C 53.94 32.53 52.29 28.07 49.97 25.24 C 46.44 27.87 42.38 29.60 38.46 31.55 Z" />
<path fill="#217a7a" opacity="1.00" d=" M 38.46 31.55 C 42.38 29.60 46.44 27.87 49.97 25.24 C 52.29 28.07 53.94 32.53 57.96 33.11 C 62.15 32.16 65.38 29.00 68.96 26.79 C 71.52 30.17 73.86 33.70 75.90 37.42 C 73.81 38.62 71.74 39.84 69.67 41.06 C 70.03 41.55 70.75 42.51 71.12 43.00 C 75.20 41.80 79.39 40.92 83.65 40.73 C 81.37 44.82 77.01 46.72 73.62 49.65 C 71.87 52.97 72.78 57.16 75.03 60.03 C 78.77 65.19 82.79 70.16 86.10 75.62 C 68.45 76.11 50.73 74.67 33.14 76.45 C 26.86 75.91 20.56 75.27 14.24 75.74 C 16.01 72.29 17.24 68.57 19.25 65.24 C 21.20 62.00 24.80 60.06 26.54 56.69 C 27.39 52.28 26.67 47.61 28.31 43.34 C 30.23 38.43 33.71 33.97 38.46 31.55 M 49.73 43.74 C 45.81 46.56 41.44 49.35 39.88 54.21 C 47.32 50.86 53.86 45.89 61.11 42.18 C 64.89 40.24 68.73 38.41 72.44 36.32 C 71.12 34.28 69.80 32.24 68.50 30.19 C 61.90 34.21 55.97 39.21 49.73 43.74 M 31.08 43.12 C 27.96 49.58 29.29 57.20 32.94 63.15 C 35.31 62.30 37.68 61.44 40.04 60.54 C 38.44 56.17 36.85 50.91 39.72 46.69 C 44.23 40.62 51.72 38.18 58.50 35.61 C 52.12 33.87 45.81 35.97 39.73 37.73 C 42.77 35.74 46.11 34.28 49.59 33.22 C 49.69 32.56 49.90 31.24 50.00 30.58 C 42.01 31.00 34.29 35.64 31.08 43.12 M 63.98 42.98 C 64.81 45.94 65.94 48.88 65.99 51.99 C 65.95 56.87 62.70 61.23 58.65 63.69 C 55.50 65.62 51.70 65.59 48.18 66.29 C 45.66 66.60 44.29 69.02 42.64 70.66 C 46.55 71.47 50.61 72.19 54.59 71.37 C 62.53 69.87 69.42 63.17 70.38 55.02 C 71.13 50.53 69.54 46.16 67.87 42.07 C 66.57 42.36 65.27 42.66 63.98 42.98 M 70.42 47.52 C 74.19 46.19 77.70 44.27 81.06 42.13 C 77.24 43.31 73.46 44.85 70.42 47.52 M 49.57 57.58 C 42.58 61.50 35.24 64.73 28.32 68.77 C 29.92 70.62 31.53 72.47 33.15 74.31 C 39.69 69.86 45.69 64.67 52.26 60.25 C 56.80 57.07 61.88 54.41 65.26 49.87 C 59.66 51.62 54.69 54.82 49.57 57.58 M 21.61 65.95 C 25.07 64.34 28.29 62.11 30.44 58.90 C 26.97 60.50 24.00 62.98 21.61 65.95 Z" />
<path fill="#ffffff" opacity="1.00" d=" M 49.73 43.74 C 55.97 39.21 61.90 34.21 68.50 30.19 C 69.80 32.24 71.12 34.28 72.44 36.32 C 68.73 38.41 64.89 40.24 61.11 42.18 C 53.86 45.89 47.32 50.86 39.88 54.21 C 41.44 49.35 45.81 46.56 49.73 43.74 Z" />
<path fill="#ffffff" opacity="1.00" d=" M 31.08 43.12 C 34.29 35.64 42.01 31.00 50.00 30.58 C 49.90 31.24 49.69 32.56 49.59 33.22 C 46.11 34.28 42.77 35.74 39.73 37.73 C 45.81 35.97 52.12 33.87 58.50 35.61 C 51.72 38.18 44.23 40.62 39.72 46.69 C 36.85 50.91 38.44 56.17 40.04 60.54 C 37.68 61.44 35.31 62.30 32.94 63.15 C 29.29 57.20 27.96 49.58 31.08 43.12 Z" />
<path fill="#ffffff" opacity="1.00" d=" M 63.98 42.98 C 65.27 42.66 66.57 42.36 67.87 42.07 C 69.54 46.16 71.13 50.53 70.38 55.02 C 69.42 63.17 62.53 69.87 54.59 71.37 C 50.61 72.19 46.55 71.47 42.64 70.66 C 44.29 69.02 45.66 66.60 48.18 66.29 C 51.70 65.59 55.50 65.62 58.65 63.69 C 62.70 61.23 65.95 56.87 65.99 51.99 C 65.94 48.88 64.81 45.94 63.98 42.98 Z" />
<path fill="#ffffff" opacity="1.00" d=" M 70.42 47.52 C 73.46 44.85 77.24 43.31 81.06 42.13 C 77.70 44.27 74.19 46.19 70.42 47.52 Z" />
<path fill="#ffffff" opacity="1.00" d=" M 49.57 57.58 C 54.69 54.82 59.66 51.62 65.26 49.87 C 61.88 54.41 56.80 57.07 52.26 60.25 C 45.69 64.67 39.69 69.86 33.15 74.31 C 31.53 72.47 29.92 70.62 28.32 68.77 C 35.24 64.73 42.58 61.50 49.57 57.58 Z" />
<path fill="#ffffff" opacity="1.00" d=" M 21.61 65.95 C 24.00 62.98 26.97 60.50 30.44 58.90 C 28.29 62.11 25.07 64.34 21.61 65.95 Z" />
</svg>
