<?xml version="1.0" encoding="UTF-8" ?>
<!DOCTYPE svg PUBLIC "-//W3C//DTD SVG 1.1//EN" "http://www.w3.org/Graphics/SVG/1.1/DTD/svg11.dtd">
<svg width="100pt" height="100pt" viewBox="0 0 100 100" version="1.1" xmlns="http://www.w3.org/2000/svg">
<path fill="#b8bbba" opacity="1.00" d=" M 14.06 16.26 C 36.68 16.28 59.31 16.28 81.94 16.26 C 82.05 22.36 82.09 28.45 81.93 34.54 C 85.62 34.23 89.32 34.28 93.02 34.42 C 90.46 39.03 86.74 42.78 82.04 45.21 C 81.84 58.05 82.26 70.90 81.94 83.74 C 59.31 83.72 36.68 83.72 14.05 83.74 C 14.06 79.64 14.06 75.55 14.04 71.45 C 11.60 71.84 9.17 72.26 6.73 72.62 C 7.97 69.66 9.07 66.58 10.90 63.91 C 12.25 61.80 14.20 59.79 14.01 57.08 C 14.26 43.48 13.85 29.87 14.06 16.26 M 16.96 19.33 C 16.63 31.25 16.85 43.17 16.91 55.09 C 17.44 61.10 11.96 64.90 9.72 69.95 C 12.13 69.47 14.54 68.99 16.93 68.42 C 16.85 72.38 16.84 76.34 16.85 80.29 C 37.82 80.35 58.78 80.56 79.75 80.24 C 79.77 68.26 79.56 56.27 79.82 44.29 C 83.41 42.10 86.86 39.62 89.54 36.33 C 86.27 36.38 83.01 36.65 79.75 37.00 C 79.72 31.11 79.70 25.22 79.72 19.33 C 58.80 19.48 37.88 19.37 16.96 19.33 Z" />
<path fill="#c40f24" opacity="1.00" d=" M 16.96 19.33 C 37.88 19.37 58.80 19.48 79.72 19.33 C 79.70 25.22 79.72 31.11 79.75 37.00 C 83.01 36.65 86.27 36.38 89.54 36.33 C 86.86 39.62 83.41 42.10 79.82 44.29 C 79.56 56.27 79.77 68.26 79.75 80.24 C 58.78 80.56 37.82 80.35 16.85 80.29 C 16.84 76.34 16.85 72.38 16.93 68.42 C 14.54 68.99 12.13 69.47 9.72 69.95 C 11.96 64.90 17.44 61.10 16.91 55.09 C 16.85 43.17 16.63 31.25 16.96 19.33 M 41.67 44.68 C 38.97 46.39 37.74 49.38 36.78 52.28 C 46.53 47.43 55.35 40.91 65.14 36.12 C 68.80 34.32 72.46 32.52 76.13 30.73 C 74.42 28.17 72.70 25.61 70.99 23.05 C 60.91 29.84 51.43 37.46 41.67 44.68 M 36.91 26.84 C 28.65 31.29 23.22 40.60 23.76 50.01 C 23.92 54.65 25.94 58.90 28.02 62.95 C 31.01 61.98 34.00 61.01 36.98 60.03 C 34.46 54.88 32.87 48.45 36.22 43.27 C 39.18 37.73 46.15 36.78 49.90 32.01 C 53.11 32.45 56.45 32.21 58.82 29.72 C 51.51 27.57 44.23 29.91 37.22 31.89 C 40.60 29.25 44.65 27.79 48.76 26.75 C 48.76 25.96 48.76 24.39 48.76 23.61 C 44.70 24.18 40.52 24.77 36.91 26.84 M 65.35 38.99 C 67.14 43.01 69.01 47.40 68.02 51.89 C 66.25 60.50 57.71 66.75 49.00 66.39 C 44.86 65.85 42.36 69.48 39.79 72.04 C 44.98 73.31 50.49 74.22 55.74 72.68 C 65.22 70.35 73.04 61.81 73.65 51.93 C 74.26 46.72 72.33 41.72 70.01 37.17 C 68.46 37.78 66.90 38.38 65.35 38.99 M 73.62 43.94 C 77.74 42.63 81.55 40.53 85.15 38.15 C 81.03 39.44 76.94 41.11 73.62 43.94 M 52.19 54.19 C 42.40 59.65 32.32 64.54 22.42 69.80 C 24.47 72.12 26.52 74.45 28.58 76.76 C 37.68 69.76 46.69 62.62 56.29 56.30 C 60.18 53.58 64.78 51.34 66.97 46.86 C 61.73 48.64 57.03 51.58 52.19 54.19 M 13.52 67.11 C 17.89 64.84 22.06 62.05 25.29 58.29 C 20.41 59.67 16.74 63.38 13.52 67.11 Z" />
<path fill="#ffffff" opacity="1.00" d=" M 41.67 44.68 C 51.43 37.46 60.91 29.84 70.99 23.05 C 72.70 25.61 74.42 28.17 76.13 30.73 C 72.46 32.52 68.80 34.32 65.14 36.12 C 55.35 40.91 46.53 47.43 36.78 52.28 C 37.74 49.38 38.97 46.39 41.67 44.68 Z" />
<path fill="#ffffff" opacity="1.00" d=" M 36.91 26.84 C 40.52 24.77 44.70 24.18 48.76 23.61 C 48.76 24.39 48.76 25.96 48.76 26.75 C 44.65 27.79 40.60 29.25 37.22 31.89 C 44.23 29.91 51.51 27.57 58.82 29.72 C 56.45 32.21 53.11 32.45 49.90 32.01 C 46.15 36.78 39.18 37.73 36.22 43.27 C 32.87 48.45 34.46 54.88 36.98 60.03 C 34.00 61.01 31.01 61.98 28.02 62.95 C 25.94 58.90 23.92 54.65 23.76 50.01 C 23.22 40.60 28.65 31.29 36.91 26.84 Z" />
<path fill="#ffffff" opacity="1.00" d=" M 65.35 38.99 C 66.90 38.38 68.46 37.78 70.01 37.17 C 72.33 41.72 74.26 46.72 73.65 51.93 C 73.04 61.81 65.22 70.35 55.74 72.68 C 50.49 74.22 44.98 73.31 39.79 72.04 C 42.36 69.48 44.86 65.85 49.00 66.39 C 57.71 66.75 66.25 60.50 68.02 51.89 C 69.01 47.40 67.14 43.01 65.35 38.99 Z" />
<path fill="#ffffff" opacity="1.00" d=" M 73.62 43.94 C 76.94 41.11 81.03 39.44 85.15 38.15 C 81.55 40.53 77.74 42.63 73.62 43.94 Z" />
<path fill="#ffffff" opacity="1.00" d=" M 52.19 54.19 C 57.03 51.58 61.73 48.64 66.97 46.86 C 64.78 51.34 60.18 53.58 56.29 56.30 C 46.69 62.62 37.68 69.76 28.58 76.76 C 26.52 74.45 24.47 72.12 22.42 69.80 C 32.32 64.54 42.40 59.65 52.19 54.19 Z" />
<path fill="#ffffff" opacity="1.00" d=" M 13.52 67.11 C 16.74 63.38 20.41 59.67 25.29 58.29 C 22.06 62.05 17.89 64.84 13.52 67.11 Z" />
</svg>
