<?xml version="1.0" encoding="UTF-8" ?>
<!DOCTYPE svg PUBLIC "-//W3C//DTD SVG 1.1//EN" "http://www.w3.org/Graphics/SVG/1.1/DTD/svg11.dtd">
<svg width="100pt" height="100pt" viewBox="0 0 100 100" version="1.1" xmlns="http://www.w3.org/2000/svg">
<path fill="#b5bec1" opacity="1.00" d=" M 43.75 14.59 C 44.55 10.56 45.71 6.62 47.06 2.75 C 49.70 6.40 51.75 10.41 53.46 14.57 C 60.50 15.11 67.75 13.77 74.67 15.19 C 78.60 24.91 81.59 35.00 85.21 44.84 C 86.81 49.36 88.57 53.83 89.75 58.48 C 79.73 65.19 69.75 71.97 59.74 78.71 C 57.00 80.62 53.98 82.20 51.59 84.57 C 49.71 86.92 48.52 89.73 47.02 92.32 C 44.50 87.41 44.73 80.51 39.12 77.82 C 36.35 76.43 33.71 72.69 30.31 74.27 C 26.57 75.57 22.79 76.75 18.90 77.52 C 20.72 74.37 22.63 71.26 24.46 68.11 C 19.84 64.73 14.97 61.71 10.25 58.49 C 14.12 45.93 18.86 33.64 23.10 21.21 C 24.50 18.19 21.45 15.72 20.19 13.22 C 27.81 15.65 35.91 14.37 43.75 14.59 M 45.70 17.60 C 39.08 17.85 32.45 17.70 25.83 17.28 C 26.17 19.65 26.36 22.11 25.43 24.38 C 21.45 35.19 17.48 46.01 14.02 57.00 C 18.35 60.79 23.52 63.38 28.05 66.89 C 26.36 69.35 24.69 71.83 23.10 74.36 C 26.74 73.33 30.32 72.16 33.88 70.88 C 37.40 73.04 41.15 74.98 44.08 77.94 C 45.75 80.70 46.11 84.03 47.07 87.08 C 48.97 84.07 50.75 80.79 53.90 78.90 C 64.62 71.64 75.64 64.77 85.99 57.00 C 83.30 47.70 79.74 38.68 76.52 29.56 C 75.23 25.54 73.93 21.50 72.05 17.71 C 65.50 17.38 58.95 17.95 52.41 17.57 C 51.09 14.12 49.66 10.70 47.81 7.49 C 46.57 10.73 46.08 14.17 45.70 17.60 Z" />
<path fill="#e85a27" opacity="1.00" d=" M 45.70 17.60 C 46.08 14.17 46.57 10.73 47.81 7.49 C 49.66 10.70 51.09 14.12 52.41 17.57 C 58.95 17.95 65.50 17.38 72.05 17.71 C 73.93 21.50 75.23 25.54 76.52 29.56 C 79.74 38.68 83.30 47.70 85.99 57.00 C 75.64 64.77 64.62 71.64 53.90 78.90 C 50.75 80.79 48.97 84.07 47.07 87.08 C 46.11 84.03 45.75 80.70 44.08 77.94 C 41.15 74.98 37.40 73.04 33.88 70.88 C 30.32 72.16 26.74 73.33 23.10 74.36 C 24.69 71.83 26.36 69.35 28.05 66.89 C 23.52 63.38 18.35 60.79 14.02 57.00 C 17.48 46.01 21.45 35.19 25.43 24.38 C 26.36 22.11 26.17 19.65 25.83 17.28 C 32.45 17.70 39.08 17.85 45.70 17.60 M 48.25 11.78 C 48.01 17.57 48.47 23.36 48.19 29.15 C 41.59 26.41 35.51 22.56 28.88 19.89 C 35.97 28.38 44.20 35.84 51.46 44.18 C 43.75 53.81 34.56 62.15 26.72 71.68 C 33.17 68.85 39.09 64.89 45.79 62.65 C 46.64 69.20 46.55 75.82 47.47 82.37 C 51.04 71.78 52.49 60.63 55.39 49.86 C 55.60 56.80 56.88 63.70 59.67 70.08 C 59.34 65.04 58.43 60.06 57.88 55.04 C 62.79 56.99 67.42 59.54 72.26 61.65 C 67.34 55.58 61.37 50.44 56.68 44.18 C 61.29 38.46 66.96 33.67 71.30 27.72 C 66.69 29.46 62.37 31.83 57.87 33.80 C 58.40 28.83 59.29 23.89 59.67 18.90 C 56.86 24.95 55.71 31.56 55.36 38.18 C 52.98 29.38 51.38 20.36 48.25 11.78 M 31.35 32.92 C 32.72 35.59 34.06 38.29 35.28 41.03 C 30.24 41.60 25.16 41.76 20.11 42.29 C 19.73 43.68 19.35 45.06 18.97 46.45 C 24.43 46.81 29.92 46.95 35.35 47.78 C 34.22 50.20 33.04 52.60 31.93 55.03 C 37.00 51.60 42.03 48.11 46.80 44.27 C 41.72 40.40 36.45 36.76 31.35 32.92 M 61.09 44.26 C 65.06 47.60 69.33 50.57 73.72 53.33 C 72.56 51.23 71.35 49.16 70.16 47.08 C 73.78 46.89 77.40 46.72 81.02 46.50 C 80.82 45.26 80.63 44.02 80.46 42.78 C 77.14 42.29 73.82 41.81 70.50 41.31 C 71.37 39.47 72.24 37.63 73.08 35.77 C 68.94 38.40 64.94 41.23 61.09 44.26 Z" />
<path fill="#ffffff" opacity="1.00" d=" M 48.25 11.78 C 51.38 20.36 52.98 29.38 55.36 38.18 C 55.71 31.56 56.86 24.95 59.67 18.90 C 59.29 23.89 58.40 28.83 57.87 33.80 C 62.37 31.83 66.69 29.46 71.30 27.72 C 66.96 33.67 61.29 38.46 56.68 44.18 C 61.37 50.44 67.34 55.58 72.26 61.65 C 67.42 59.54 62.79 56.99 57.88 55.04 C 58.43 60.06 59.34 65.04 59.67 70.08 C 56.88 63.70 55.60 56.80 55.39 49.86 C 52.49 60.63 51.04 71.78 47.47 82.37 C 46.55 75.82 46.64 69.20 45.79 62.65 C 39.09 64.89 33.17 68.85 26.72 71.68 C 34.56 62.15 43.75 53.81 51.46 44.18 C 44.20 35.84 35.97 28.38 28.88 19.89 C 35.51 22.56 41.59 26.41 48.19 29.15 C 48.47 23.36 48.01 17.57 48.25 11.78 Z" />
<path fill="#ffffff" opacity="1.00" d=" M 31.35 32.92 C 36.45 36.76 41.72 40.40 46.80 44.27 C 42.03 48.11 37.00 51.60 31.93 55.03 C 33.04 52.60 34.22 50.20 35.35 47.78 C 29.92 46.95 24.43 46.81 18.97 46.45 C 19.35 45.06 19.73 43.68 20.11 42.29 C 25.16 41.76 30.24 41.60 35.28 41.03 C 34.06 38.29 32.72 35.59 31.35 32.92 Z" />
<path fill="#ffffff" opacity="1.00" d=" M 61.09 44.26 C 64.94 41.23 68.94 38.40 73.08 35.77 C 72.24 37.63 71.37 39.47 70.50 41.31 C 73.82 41.81 77.14 42.29 80.46 42.78 C 80.63 44.02 80.82 45.26 81.02 46.50 C 77.40 46.72 73.78 46.89 70.16 47.08 C 71.35 49.16 72.56 51.23 73.72 53.33 C 69.33 50.57 65.06 47.60 61.09 44.26 Z" />
</svg>
