<?xml version="1.0" encoding="UTF-8" ?>
<!DOCTYPE svg PUBLIC "-//W3C//DTD SVG 1.1//EN" "http://www.w3.org/Graphics/SVG/1.1/DTD/svg11.dtd">
<svg width="100pt" height="100pt" viewBox="0 0 100 100" version="1.1" xmlns="http://www.w3.org/2000/svg">
<path fill="#45c099" opacity="1.00" d=" M 41.67 11.67 C 44.52 8.93 46.43 5.23 49.78 3.03 C 52.01 5.10 53.90 7.48 55.90 9.75 C 61.54 7.91 69.05 6.47 73.43 11.60 C 77.10 16.16 80.24 21.48 81.18 27.34 C 82.58 32.40 85.55 37.27 84.29 42.71 C 86.32 45.11 88.37 47.49 90.42 49.87 C 76.78 65.53 63.22 81.28 49.68 97.03 C 35.86 81.48 22.47 65.55 8.79 49.88 C 13.48 44.20 18.40 38.72 23.24 33.16 C 26.73 29.49 26.07 23.74 24.48 19.35 C 27.68 17.67 30.69 15.60 34.10 14.36 C 36.61 13.42 39.81 13.94 41.67 11.67 M 40.87 15.75 C 36.39 16.84 31.69 17.30 27.58 19.60 C 28.33 22.54 28.72 25.56 29.14 28.57 C 26.41 33.15 22.34 36.87 20.24 41.83 C 17.19 44.02 14.72 46.87 12.54 49.90 C 24.84 64.27 37.14 78.65 49.66 92.83 C 61.87 78.49 74.40 64.41 86.48 49.96 C 84.88 47.84 82.88 45.89 81.92 43.37 C 81.27 39.89 81.63 36.20 80.10 32.91 C 77.87 27.94 77.35 22.31 74.40 17.65 C 72.55 14.48 70.00 11.04 66.01 10.75 C 62.35 9.95 59.26 12.41 56.01 13.58 C 53.50 11.78 51.68 9.22 49.67 6.92 C 46.73 9.83 44.43 13.55 40.87 15.75 Z" />
<path fill="#b9b9ba" opacity="1.00" d=" M 40.87 15.75 C 44.43 13.55 46.73 9.83 49.67 6.92 C 51.68 9.22 53.50 11.78 56.01 13.58 C 59.26 12.41 62.35 9.95 66.01 10.75 C 70.00 11.04 72.55 14.48 74.40 17.65 C 77.35 22.31 77.87 27.94 80.10 32.91 C 81.63 36.20 81.27 39.89 81.92 43.37 C 82.88 45.89 84.88 47.84 86.48 49.96 C 74.40 64.41 61.87 78.49 49.66 92.83 C 37.14 78.65 24.84 64.27 12.54 49.90 C 14.72 46.87 17.19 44.02 20.24 41.83 C 19.18 44.62 18.22 47.45 17.17 50.24 C 20.36 54.53 23.80 58.63 27.45 62.54 C 35.08 70.77 42.05 79.60 49.66 87.86 C 60.31 75.31 71.34 63.08 81.78 50.36 C 78.81 44.70 80.08 38.06 77.76 32.22 C 75.91 27.38 74.73 22.26 72.18 17.71 C 70.65 14.98 67.97 12.61 64.73 12.44 C 61.60 12.79 59.07 14.99 56.06 15.77 C 53.62 15.22 51.50 13.80 49.34 12.61 C 44.78 17.73 37.87 18.59 31.54 19.82 C 30.97 22.79 30.42 25.81 29.14 28.57 C 28.72 25.56 28.33 22.54 27.58 19.60 C 31.69 17.30 36.39 16.84 40.87 15.75 Z" />
<path fill="#b61c2e" opacity="1.00" d=" M 49.34 12.61 C 51.50 13.80 53.62 15.22 56.06 15.77 C 59.07 14.99 61.60 12.79 64.73 12.44 C 67.97 12.61 70.65 14.98 72.18 17.71 C 74.73 22.26 75.91 27.38 77.76 32.22 C 80.08 38.06 78.81 44.70 81.78 50.36 C 71.34 63.08 60.31 75.31 49.66 87.86 C 42.05 79.60 35.08 70.77 27.45 62.54 C 23.80 58.63 20.36 54.53 17.17 50.24 C 18.22 47.45 19.18 44.62 20.24 41.83 C 22.34 36.87 26.41 33.15 29.14 28.57 C 30.42 25.81 30.97 22.79 31.54 19.82 C 37.87 18.59 44.78 17.73 49.34 12.61 M 60.49 16.30 C 59.31 17.57 58.12 19.08 56.27 19.26 C 52.82 16.20 48.05 18.24 44.20 19.29 C 39.07 20.75 38.83 27.02 36.47 30.95 C 36.28 30.64 35.89 30.03 35.70 29.72 C 35.48 27.62 35.26 25.52 35.04 23.42 C 36.53 22.59 38.00 21.76 39.46 20.89 C 37.48 21.10 34.68 20.38 33.71 22.71 C 33.46 24.17 33.58 25.66 33.60 27.13 C 30.41 30.84 27.75 34.95 24.84 38.88 C 21.95 42.90 20.74 47.99 20.94 52.90 C 21.78 54.75 23.18 56.27 24.44 57.85 C 25.03 56.88 25.62 55.91 26.22 54.94 C 26.66 57.37 27.18 59.79 27.85 62.16 C 29.09 59.57 30.56 56.93 30.71 53.99 C 30.60 51.70 29.64 49.57 28.95 47.42 C 27.61 48.99 26.35 50.62 25.07 52.24 C 25.03 48.77 25.20 45.31 25.38 41.85 C 26.22 42.88 27.06 43.91 27.90 44.94 C 28.35 40.85 29.16 36.79 30.66 32.94 C 30.42 36.39 30.07 39.83 29.83 43.27 C 30.85 41.99 31.86 40.70 32.91 39.44 C 32.56 41.28 32.19 43.12 31.83 44.96 C 36.22 36.70 45.55 33.26 50.87 25.83 C 51.00 27.63 51.13 29.42 51.28 31.22 C 52.09 29.42 52.88 27.60 53.71 25.80 C 53.20 29.85 51.84 33.80 51.71 37.89 C 52.15 41.87 52.90 45.82 52.93 49.84 C 54.90 48.70 56.87 47.57 58.85 46.44 C 60.23 47.68 61.54 49.05 63.19 49.95 C 66.60 50.67 69.96 49.35 73.12 48.22 C 73.06 47.44 72.94 45.88 72.88 45.11 C 70.45 47.89 66.48 49.75 63.14 47.21 C 63.48 46.22 63.77 45.21 64.02 44.20 C 66.19 44.79 68.44 44.39 70.63 44.10 C 70.70 43.41 70.86 42.04 70.94 41.36 C 68.68 42.29 66.33 43.00 63.91 43.42 C 63.82 42.81 63.64 41.59 63.55 40.97 C 63.11 40.96 62.23 40.92 61.79 40.91 L 61.41 41.76 C 59.89 41.57 58.40 42.06 56.93 42.33 C 53.21 36.61 57.21 30.58 58.55 24.85 C 61.31 25.60 64.17 25.12 66.97 25.03 C 69.07 24.71 70.39 26.65 71.90 27.73 C 67.71 26.41 63.30 26.12 59.21 28.00 C 60.14 29.81 61.14 31.60 62.20 33.34 C 62.42 31.64 62.64 29.93 62.86 28.23 C 66.44 27.81 68.65 30.33 70.33 33.11 C 71.17 30.43 72.61 27.96 73.28 25.22 C 72.74 24.09 72.02 23.06 71.35 22.00 C 69.88 22.64 68.42 23.27 66.94 23.89 C 67.88 22.76 68.84 21.64 69.79 20.52 C 68.50 18.70 67.45 16.69 65.90 15.07 C 64.12 13.81 62.14 15.68 60.49 16.30 M 73.33 29.85 C 74.56 33.15 76.42 36.37 76.43 39.99 C 76.52 43.49 76.05 46.98 75.85 50.47 C 78.03 43.75 78.47 35.37 73.33 29.85 M 65.95 35.19 C 66.14 36.60 66.33 38.02 66.53 39.43 C 67.19 37.69 67.80 35.92 68.38 34.15 C 67.77 34.41 66.56 34.93 65.95 35.19 M 33.02 48.32 C 36.34 45.77 39.18 42.61 41.29 38.99 C 37.69 41.23 34.84 44.49 33.02 48.32 M 32.53 48.80 C 34.26 54.82 40.41 57.66 43.29 63.01 C 42.87 60.06 41.77 57.29 40.07 54.84 C 41.02 55.09 41.97 55.34 42.92 55.58 C 43.34 54.39 43.76 53.19 44.17 52.00 C 40.61 49.97 36.67 48.70 32.53 48.80 M 67.40 62.46 C 65.46 64.71 62.52 65.60 59.93 66.86 C 62.37 66.10 65.07 65.73 67.18 64.19 C 70.28 61.49 72.31 57.83 74.23 54.25 C 71.88 56.92 69.80 59.82 67.40 62.46 M 53.76 73.09 C 55.86 69.21 58.24 65.48 61.04 62.06 C 57.10 64.51 53.89 68.23 53.76 73.09 Z" />
<path fill="#ffffff" opacity="1.00" d=" M 60.49 16.30 C 62.14 15.68 64.12 13.81 65.90 15.07 C 67.45 16.69 68.50 18.70 69.79 20.52 C 68.84 21.64 67.88 22.76 66.94 23.89 C 68.42 23.27 69.88 22.64 71.35 22.00 C 72.02 23.06 72.74 24.09 73.28 25.22 C 72.61 27.96 71.17 30.43 70.33 33.11 C 68.65 30.33 66.44 27.81 62.86 28.23 C 62.64 29.93 62.42 31.64 62.20 33.34 C 61.14 31.60 60.14 29.81 59.21 28.00 C 63.30 26.12 67.71 26.41 71.90 27.73 C 70.39 26.65 69.07 24.71 66.97 25.03 C 64.17 25.12 61.31 25.60 58.55 24.85 C 57.21 30.58 53.21 36.61 56.93 42.33 C 58.77 44.23 60.91 45.81 63.14 47.21 C 66.48 49.75 70.45 47.89 72.88 45.11 C 72.94 45.88 73.06 47.44 73.12 48.22 C 69.96 49.35 66.60 50.67 63.19 49.95 C 61.54 49.05 60.23 47.68 58.85 46.44 C 56.87 47.57 54.90 48.70 52.93 49.84 C 52.90 45.82 52.15 41.87 51.71 37.89 C 51.84 33.80 53.20 29.85 53.71 25.80 C 52.88 27.60 52.09 29.42 51.28 31.22 C 51.13 29.42 51.00 27.63 50.87 25.83 C 45.55 33.26 36.22 36.70 31.83 44.96 C 32.19 43.12 32.56 41.28 32.91 39.44 C 31.86 40.70 30.85 41.99 29.83 43.27 C 30.07 39.83 30.42 36.39 30.66 32.94 C 29.16 36.79 28.35 40.85 27.90 44.94 C 27.06 43.91 26.22 42.88 25.38 41.85 C 25.20 45.31 25.03 48.77 25.07 52.24 C 26.35 50.62 27.61 48.99 28.95 47.42 C 29.64 49.57 30.60 51.70 30.71 53.99 C 30.56 56.93 29.09 59.57 27.85 62.16 C 27.18 59.79 26.66 57.37 26.22 54.94 C 25.62 55.91 25.03 56.88 24.44 57.85 C 23.18 56.27 21.78 54.75 20.94 52.90 C 20.74 47.99 21.95 42.90 24.84 38.88 C 27.75 34.95 30.41 30.84 33.60 27.13 C 33.58 25.66 33.46 24.17 33.71 22.71 C 34.68 20.38 37.48 21.10 39.46 20.89 C 38.00 21.76 36.53 22.59 35.04 23.42 C 35.26 25.52 35.48 27.62 35.70 29.72 C 35.89 30.03 36.28 30.64 36.47 30.95 C 36.67 31.30 37.07 31.99 37.27 32.33 C 39.92 29.83 42.59 27.35 45.07 24.67 C 41.88 26.29 39.00 28.43 36.47 30.95 C 38.83 27.02 39.07 20.75 44.20 19.29 C 48.05 18.24 52.82 16.20 56.27 19.26 C 54.46 19.68 52.64 20.04 50.82 20.43 C 48.34 20.91 46.03 21.96 43.70 22.91 C 46.70 23.42 49.74 23.65 52.77 23.84 C 53.85 23.97 54.93 24.15 56.01 24.31 C 57.35 23.00 58.68 21.67 60.00 20.34 C 61.92 21.44 63.85 22.51 65.79 23.57 C 63.94 21.21 62.12 18.82 60.49 16.30 M 62.62 15.82 C 62.70 16.55 62.85 18.00 62.93 18.73 C 63.71 18.76 65.26 18.83 66.03 18.86 C 66.08 18.09 66.19 16.53 66.24 15.76 C 65.33 15.77 63.52 15.81 62.62 15.82 M 33.22 32.09 C 32.49 34.19 32.20 36.40 31.91 38.60 C 33.81 36.91 35.55 35.00 36.76 32.75 C 35.59 32.46 34.41 32.24 33.22 32.09 Z" />
<path fill="#cb5c69" opacity="1.00" d=" M 56.27 19.26 C 58.12 19.08 59.31 17.57 60.49 16.30 C 62.12 18.82 63.94 21.21 65.79 23.57 C 63.85 22.51 61.92 21.44 60.00 20.34 C 58.68 21.67 57.35 23.00 56.01 24.31 C 54.93 24.15 53.85 23.97 52.77 23.84 C 53.68 22.93 54.58 22.02 55.47 21.11 C 53.93 20.86 52.38 20.61 50.82 20.43 C 52.64 20.04 54.46 19.68 56.27 19.26 Z" />
<path fill="#b62732" opacity="1.00" d=" M 62.62 15.82 C 63.52 15.81 65.33 15.77 66.24 15.76 C 66.19 16.53 66.08 18.09 66.03 18.86 C 65.26 18.83 63.71 18.76 62.93 18.73 C 62.85 18.00 62.70 16.55 62.62 15.82 Z" />
<path fill="#b61c2e" opacity="1.00" d=" M 43.70 22.91 C 46.03 21.96 48.34 20.91 50.82 20.43 C 52.38 20.61 53.93 20.86 55.47 21.11 C 54.58 22.02 53.68 22.93 52.77 23.84 C 49.74 23.65 46.70 23.42 43.70 22.91 Z" />
<path fill="#b61c2e" opacity="1.00" d=" M 36.47 30.95 C 39.00 28.43 41.88 26.29 45.07 24.67 C 42.59 27.35 39.92 29.83 37.27 32.33 C 37.07 31.99 36.67 31.30 36.47 30.95 Z" />
<path fill="#ffffff" opacity="1.00" d=" M 73.33 29.85 C 78.47 35.37 78.03 43.75 75.85 50.47 C 76.05 46.98 76.52 43.49 76.43 39.99 C 76.42 36.37 74.56 33.15 73.33 29.85 Z" />
<path fill="#b72330" opacity="1.00" d=" M 33.22 32.09 C 34.41 32.24 35.59 32.46 36.76 32.75 C 35.55 35.00 33.81 36.91 31.91 38.60 C 32.20 36.40 32.49 34.19 33.22 32.09 Z" />
<path fill="#d1727d" opacity="1.00" d=" M 65.95 35.19 C 66.56 34.93 67.77 34.41 68.38 34.15 C 67.80 35.92 67.19 37.69 66.53 39.43 C 66.33 38.02 66.14 36.60 65.95 35.19 Z" />
<path fill="#ffffff" opacity="1.00" d=" M 33.02 48.32 C 34.84 44.49 37.69 41.23 41.29 38.99 C 39.18 42.61 36.34 45.77 33.02 48.32 Z" />
<path fill="#faf1f2" opacity="1.00" d=" M 61.79 40.91 C 62.23 40.92 63.11 40.96 63.55 40.97 C 63.91 42.39 62.13 42.95 61.41 41.76 L 61.79 40.91 Z" />
<path fill="#d2727d" opacity="1.00" d=" M 56.93 42.33 C 58.40 42.06 59.89 41.57 61.41 41.76 C 62.13 42.95 63.91 42.39 63.55 40.97 C 63.64 41.59 63.82 42.81 63.91 43.42 L 64.02 44.20 C 63.77 45.21 63.48 46.22 63.14 47.21 C 60.91 45.81 58.77 44.23 56.93 42.33 Z" />
<path fill="#ffffff" opacity="1.00" d=" M 63.91 43.42 C 66.33 43.00 68.68 42.29 70.94 41.36 C 70.86 42.04 70.70 43.41 70.63 44.10 C 68.44 44.39 66.19 44.79 64.02 44.20 L 63.91 43.42 Z" />
<path fill="#ffffff" opacity="1.00" d=" M 32.53 48.80 C 36.67 48.70 40.61 49.97 44.17 52.00 C 43.76 53.19 43.34 54.39 42.92 55.58 C 41.97 55.34 41.02 55.09 40.07 54.84 C 41.77 57.29 42.87 60.06 43.29 63.01 C 40.41 57.66 34.26 54.82 32.53 48.80 Z" />
<path fill="#ffffff" opacity="1.00" d=" M 67.40 62.46 C 69.80 59.82 71.88 56.92 74.23 54.25 C 72.31 57.83 70.28 61.49 67.18 64.19 C 65.07 65.73 62.37 66.10 59.93 66.86 C 62.52 65.60 65.46 64.71 67.40 62.46 Z" />
<path fill="#ffffff" opacity="1.00" d=" M 53.76 73.09 C 53.89 68.23 57.10 64.51 61.04 62.06 C 58.24 65.48 55.86 69.21 53.76 73.09 Z" />
</svg>
