<?xml version="1.0" encoding="UTF-8" ?>
<!DOCTYPE svg PUBLIC "-//W3C//DTD SVG 1.1//EN" "http://www.w3.org/Graphics/SVG/1.1/DTD/svg11.dtd">
<svg width="100pt" height="100pt" viewBox="0 0 100 100" version="1.1" xmlns="http://www.w3.org/2000/svg">
<path fill="#b8b9b9" opacity="1.00" d=" M 42.07 14.06 C 45.10 14.28 46.90 11.52 49.36 10.29 C 53.98 9.46 58.35 11.62 62.36 13.62 C 66.78 14.59 71.37 13.99 75.85 14.10 C 80.72 27.61 85.45 41.17 90.37 54.67 C 90.61 55.98 91.72 57.38 91.05 58.71 C 89.42 60.25 87.49 61.41 85.63 62.65 C 73.73 70.35 62.00 78.33 50.13 86.08 C 43.32 81.47 36.44 76.97 29.60 72.40 C 25.50 69.47 19.89 69.49 16.28 65.76 C 13.31 62.91 9.84 60.46 7.52 57.01 C 7.58 51.99 8.58 47.04 8.98 42.04 C 11.70 40.62 15.66 40.08 16.51 36.61 C 19.20 29.15 21.81 21.65 24.41 14.16 C 30.30 13.98 36.18 14.28 42.07 14.06 M 49.44 11.78 C 47.98 13.56 46.83 15.75 44.80 16.95 C 40.72 18.86 36.17 17.74 31.88 17.56 C 29.98 17.42 27.71 18.01 26.99 19.99 C 24.19 25.88 22.92 32.36 20.28 38.33 C 18.71 42.00 14.21 42.59 11.01 44.28 C 10.67 47.73 9.92 51.24 10.48 54.71 C 12.25 58.32 15.46 60.96 18.19 63.84 C 20.96 66.82 24.91 68.09 28.66 69.33 C 36.70 71.80 43.05 77.56 50.09 81.90 C 62.41 73.92 74.57 65.71 86.84 57.65 C 82.33 44.48 77.64 31.37 72.82 18.30 C 69.29 18.27 65.76 18.23 62.22 18.15 C 60.81 16.43 59.57 14.48 57.71 13.21 C 55.12 12.04 52.21 12.07 49.44 11.78 Z" />
<path fill="#c40f24" opacity="1.00" d=" M 49.44 11.78 C 52.21 12.07 55.12 12.04 57.71 13.21 C 59.57 14.48 60.81 16.43 62.22 18.15 C 65.76 18.23 69.29 18.27 72.82 18.30 C 77.64 31.37 82.33 44.48 86.84 57.65 C 74.57 65.71 62.41 73.92 50.09 81.90 C 43.05 77.56 36.70 71.80 28.66 69.33 C 24.91 68.09 20.96 66.82 18.19 63.84 C 15.46 60.96 12.25 58.32 10.48 54.71 C 9.92 51.24 10.67 47.73 11.01 44.28 C 14.21 42.59 18.71 42.00 20.28 38.33 C 22.92 32.36 24.19 25.88 26.99 19.99 C 27.71 18.01 29.98 17.42 31.88 17.56 C 36.17 17.74 40.72 18.86 44.80 16.95 C 46.83 15.75 47.98 13.56 49.44 11.78 M 45.30 19.69 C 45.29 21.34 45.33 23.01 44.99 24.63 C 42.79 25.91 40.38 26.76 38.04 27.73 C 41.40 29.27 43.74 32.13 43.95 35.90 C 41.02 36.34 38.62 34.83 36.58 32.90 C 36.93 36.42 37.60 40.05 40.53 42.37 C 40.40 44.50 40.06 46.63 40.27 48.76 C 40.46 50.15 41.94 51.68 43.39 50.85 C 46.92 49.51 50.63 48.81 54.39 48.61 C 54.40 50.42 54.40 52.24 54.41 54.05 C 49.32 57.22 43.99 60.51 37.99 61.51 C 30.11 61.78 25.52 54.58 21.82 48.72 C 24.77 47.17 27.72 45.39 31.05 44.86 C 33.80 44.58 36.56 44.76 39.32 44.69 C 36.27 42.49 33.01 39.68 28.96 40.18 C 23.12 40.02 18.22 43.52 13.37 46.28 C 13.38 49.03 13.10 51.81 13.55 54.54 C 18.26 61.51 25.01 68.34 33.93 68.84 C 40.35 68.04 46.32 65.13 51.74 61.69 C 54.05 60.15 56.81 59.64 59.50 59.18 C 61.52 55.12 65.53 52.76 68.73 49.75 C 72.24 46.68 75.43 43.28 78.50 39.78 C 76.87 36.55 75.50 33.20 74.24 29.82 C 73.01 34.13 72.30 38.79 69.39 42.37 C 66.77 46.20 62.75 48.63 58.91 51.06 C 60.36 47.88 63.44 44.65 62.05 40.92 C 61.58 38.48 60.48 36.06 60.72 33.54 C 62.21 30.56 64.71 28.25 66.53 25.48 C 64.48 25.81 62.44 26.19 60.41 26.56 C 59.74 22.96 59.72 19.15 58.22 15.77 C 56.20 13.85 52.96 14.20 50.38 13.57 C 48.79 15.69 47.13 17.77 45.30 19.69 M 30.32 19.09 C 30.82 20.33 31.33 21.56 31.85 22.79 C 28.95 24.50 26.87 27.15 25.62 30.26 C 29.72 28.38 33.67 26.21 37.45 23.75 C 35.50 21.66 33.45 19.12 30.32 19.09 M 66.57 24.43 C 68.37 27.38 70.19 30.31 72.05 33.21 C 73.14 29.39 71.96 25.71 69.42 22.78 C 68.71 23.19 67.28 24.02 66.57 24.43 M 38.35 24.11 C 37.41 24.48 36.08 25.56 36.62 26.69 C 38.28 28.04 41.25 23.79 38.35 24.11 M 73.39 47.11 C 71.70 48.87 70.01 50.64 68.30 52.39 C 70.21 54.61 72.69 56.92 72.68 60.08 C 72.53 61.92 71.85 63.67 71.37 65.44 C 74.51 63.15 77.69 60.91 80.89 58.70 C 79.41 54.25 76.75 50.35 73.39 47.11 M 39.37 51.72 C 38.82 52.50 37.72 54.06 37.17 54.84 C 39.55 55.22 41.96 55.12 44.33 54.74 C 42.70 53.68 41.03 52.71 39.37 51.72 M 45.67 69.57 C 46.13 69.94 47.06 70.69 47.53 71.06 C 49.53 69.09 51.64 66.20 54.80 66.54 C 57.76 67.16 60.46 68.59 63.21 69.80 C 63.35 69.13 63.64 67.79 63.79 67.12 C 61.03 65.85 58.22 64.24 55.09 64.35 C 51.38 64.71 48.08 66.81 45.67 69.57 M 41.82 71.20 C 44.24 73.13 46.65 75.09 49.31 76.67 C 49.95 77.19 50.64 77.27 51.37 76.93 C 54.47 75.69 57.25 73.79 60.11 72.09 C 54.02 73.78 47.79 72.89 41.82 71.20 Z" />
<path fill="#ffffff" opacity="1.00" d=" M 45.30 19.69 C 47.13 17.77 48.79 15.69 50.38 13.57 C 52.96 14.20 56.20 13.85 58.22 15.77 C 59.72 19.15 59.74 22.96 60.41 26.56 C 62.44 26.19 64.48 25.81 66.53 25.48 C 64.71 28.25 62.21 30.56 60.72 33.54 C 60.48 36.06 61.58 38.48 62.05 40.92 C 63.44 44.65 60.36 47.88 58.91 51.06 C 62.75 48.63 66.77 46.20 69.39 42.37 C 72.30 38.79 73.01 34.13 74.24 29.82 C 75.50 33.20 76.87 36.55 78.50 39.78 C 75.43 43.28 72.24 46.68 68.73 49.75 C 65.53 52.76 61.52 55.12 59.50 59.18 C 56.81 59.64 54.05 60.15 51.74 61.69 C 46.32 65.13 40.35 68.04 33.93 68.84 C 25.01 68.34 18.26 61.51 13.55 54.54 C 13.10 51.81 13.38 49.03 13.37 46.28 C 18.22 43.52 23.12 40.02 28.96 40.18 C 33.01 39.68 36.27 42.49 39.32 44.69 C 36.56 44.76 33.80 44.58 31.05 44.86 C 27.72 45.39 24.77 47.17 21.82 48.72 C 25.52 54.58 30.11 61.78 37.99 61.51 C 43.99 60.51 49.32 57.22 54.41 54.05 C 54.40 52.24 54.40 50.42 54.39 48.61 C 50.63 48.81 46.92 49.51 43.39 50.85 C 41.94 51.68 40.46 50.15 40.27 48.76 C 40.06 46.63 40.40 44.50 40.53 42.37 C 37.60 40.05 36.93 36.42 36.58 32.90 C 38.62 34.83 41.02 36.34 43.95 35.90 C 43.74 32.13 41.40 29.27 38.04 27.73 C 40.38 26.76 42.79 25.91 44.99 24.63 C 45.33 23.01 45.29 21.34 45.30 19.69 Z" />
<path fill="#ffffff" opacity="1.00" d=" M 30.32 19.09 C 33.45 19.12 35.50 21.66 37.45 23.75 C 33.67 26.21 29.72 28.38 25.62 30.26 C 26.87 27.15 28.95 24.50 31.85 22.79 C 31.33 21.56 30.82 20.33 30.32 19.09 Z" />
<path fill="#ffffff" opacity="1.00" d=" M 66.57 24.43 C 67.28 24.02 68.71 23.19 69.42 22.78 C 71.96 25.71 73.14 29.39 72.05 33.21 C 70.19 30.31 68.37 27.38 66.57 24.43 Z" />
<path fill="#fcf0f2" opacity="1.00" d=" M 38.35 24.11 C 41.25 23.79 38.28 28.04 36.62 26.69 C 36.08 25.56 37.41 24.48 38.35 24.11 Z" />
<path fill="#ffffff" opacity="1.00" d=" M 73.39 47.11 C 76.75 50.35 79.41 54.25 80.89 58.70 C 77.69 60.91 74.51 63.15 71.37 65.44 C 71.85 63.67 72.53 61.92 72.68 60.08 C 72.69 56.92 70.21 54.61 68.30 52.39 C 70.01 50.64 71.70 48.87 73.39 47.11 Z" />
<path fill="#ffffff" opacity="1.00" d=" M 39.37 51.72 C 41.03 52.71 42.70 53.68 44.33 54.74 C 41.96 55.12 39.55 55.22 37.17 54.84 C 37.72 54.06 38.82 52.50 39.37 51.72 Z" />
<path fill="#ffffff" opacity="1.00" d=" M 45.67 69.57 C 48.08 66.81 51.38 64.71 55.09 64.35 C 58.22 64.24 61.03 65.85 63.79 67.12 C 63.64 67.79 63.35 69.13 63.21 69.80 C 60.46 68.59 57.76 67.16 54.80 66.54 C 51.64 66.20 49.53 69.09 47.53 71.06 C 47.06 70.69 46.13 69.94 45.67 69.57 Z" />
<path fill="#ffffff" opacity="1.00" d=" M 41.82 71.20 C 47.79 72.89 54.02 73.78 60.11 72.09 C 57.25 73.79 54.47 75.69 51.37 76.93 C 50.64 77.27 49.95 77.19 49.31 76.67 C 46.65 75.09 44.24 73.13 41.82 71.20 Z" />
</svg>
