<?xml version="1.0" encoding="UTF-8" ?>
<!DOCTYPE svg PUBLIC "-//W3C//DTD SVG 1.1//EN" "http://www.w3.org/Graphics/SVG/1.1/DTD/svg11.dtd">
<svg width="100pt" height="100pt" viewBox="0 0 100 100" version="1.1" xmlns="http://www.w3.org/2000/svg">
<path fill="#b8b7b7" opacity="1.00" d=" M 41.13 14.65 C 44.16 11.29 47.19 7.91 50.13 4.46 C 52.80 7.55 55.10 11.06 58.34 13.61 C 60.60 13.84 62.89 13.57 65.16 13.60 C 68.45 10.42 73.11 12.66 76.44 14.60 C 80.35 17.39 84.78 20.30 86.43 25.06 C 86.23 30.19 81.85 33.83 79.42 38.04 C 82.95 42.09 86.45 46.18 90.08 50.15 C 76.78 65.39 63.41 80.58 50.04 95.76 C 37.83 82.02 25.81 68.12 13.61 54.39 C 10.79 51.41 9.87 47.30 8.26 43.64 C 5.61 37.31 7.77 29.77 12.80 25.26 C 15.31 25.87 17.82 26.47 20.34 27.00 C 21.06 24.34 20.82 21.02 23.19 19.16 C 24.97 17.56 27.01 16.31 29.00 15.00 C 30.81 15.89 32.63 16.78 34.42 17.72 C 35.12 15.85 35.87 13.99 36.65 12.16 C 38.14 12.99 39.63 13.83 41.13 14.65 M 42.01 16.20 C 39.87 16.07 37.81 15.43 35.72 15.02 C 36.09 18.44 36.79 21.82 37.91 25.08 C 36.56 26.14 35.21 27.20 33.85 28.25 C 33.58 25.64 33.66 22.90 32.61 20.44 C 31.31 19.02 29.69 17.96 28.17 16.81 C 23.42 20.64 23.45 27.21 19.58 31.62 C 17.58 30.42 15.36 26.91 12.83 28.72 C 7.57 34.08 8.38 43.83 14.46 48.31 C 16.35 46.81 18.25 45.32 20.21 43.90 C 18.98 45.85 17.68 47.76 16.35 49.65 C 27.16 62.92 38.87 75.43 50.12 88.33 C 61.77 75.77 72.83 62.66 84.18 49.81 C 81.52 46.40 78.81 43.02 75.89 39.82 C 77.47 36.89 79.57 34.30 82.00 32.04 C 85.01 29.53 84.67 24.57 82.20 21.81 C 78.15 17.36 72.96 13.47 66.73 13.10 C 67.26 15.40 68.02 17.64 69.09 19.75 C 67.46 22.07 65.99 24.50 64.77 27.05 C 63.95 26.30 63.13 25.54 62.31 24.80 C 63.10 21.55 63.77 18.26 64.22 14.94 C 61.93 15.43 59.65 15.95 57.38 16.50 C 55.10 14.59 53.05 11.91 50.01 11.28 C 46.89 12.04 44.91 14.95 42.01 16.20 Z" />
<path fill="#d45b19" opacity="1.00" d=" M 42.01 16.20 C 44.91 14.95 46.89 12.04 50.01 11.28 C 53.05 11.91 55.10 14.59 57.38 16.50 C 59.65 15.95 61.93 15.43 64.22 14.94 C 63.77 18.26 63.10 21.55 62.31 24.80 C 63.13 25.54 63.95 26.30 64.77 27.05 C 65.99 24.50 67.46 22.07 69.09 19.75 C 68.02 17.64 67.26 15.40 66.73 13.10 C 72.96 13.47 78.15 17.36 82.20 21.81 C 84.67 24.57 85.01 29.53 82.00 32.04 C 79.57 34.30 77.47 36.89 75.89 39.82 C 78.81 43.02 81.52 46.40 84.18 49.81 C 72.83 62.66 61.77 75.77 50.12 88.33 C 38.87 75.43 27.16 62.92 16.35 49.65 C 17.68 47.76 18.98 45.85 20.21 43.90 C 18.25 45.32 16.35 46.81 14.46 48.31 C 8.38 43.83 7.57 34.08 12.83 28.72 C 15.36 26.91 17.58 30.42 19.58 31.62 C 23.45 27.21 23.42 20.64 28.17 16.81 C 29.69 17.96 31.31 19.02 32.61 20.44 C 33.66 22.90 33.58 25.64 33.85 28.25 C 35.21 27.20 36.56 26.14 37.91 25.08 C 36.79 21.82 36.09 18.44 35.72 15.02 C 37.81 15.43 39.87 16.07 42.01 16.20 M 47.94 14.14 C 47.83 15.26 47.72 16.39 47.61 17.51 C 49.21 17.48 50.82 17.47 52.43 17.47 C 52.28 16.37 52.14 15.27 51.99 14.17 C 50.64 14.16 49.29 14.16 47.94 14.14 M 42.83 19.47 C 41.05 18.84 39.28 18.21 37.51 17.56 C 38.61 19.71 40.16 21.70 40.76 24.05 C 40.52 26.94 39.71 29.77 39.67 32.69 C 41.59 30.02 42.79 26.96 43.70 23.83 C 44.93 23.54 46.17 23.28 47.37 22.86 C 47.80 20.57 47.49 18.23 47.35 15.92 C 45.83 17.08 44.33 18.28 42.83 19.47 M 52.82 16.00 C 52.42 18.51 52.04 21.02 51.63 23.52 C 53.31 23.51 55.00 23.50 56.68 23.53 C 52.81 26.35 47.96 25.25 43.53 25.28 C 45.04 26.17 46.56 27.06 48.14 27.84 C 50.99 29.51 53.95 26.85 56.74 26.19 C 58.48 29.70 59.69 33.44 60.11 37.34 C 63.71 33.27 59.18 28.57 58.86 24.14 C 59.78 21.81 61.23 19.73 62.44 17.54 C 60.66 18.20 58.87 18.85 57.08 19.50 C 55.66 18.33 54.24 17.16 52.82 16.00 M 69.71 15.71 C 71.78 18.12 74.20 20.18 76.36 22.51 C 78.28 24.54 78.83 27.38 79.60 29.97 C 77.42 30.69 75.22 31.37 73.03 32.09 C 73.00 28.45 72.58 24.79 70.90 21.51 C 68.32 23.92 67.39 27.33 66.79 30.69 C 65.42 30.70 64.05 30.70 62.68 30.71 C 63.83 33.06 65.00 35.41 66.50 37.57 C 67.83 40.05 71.08 39.28 73.37 39.98 C 71.93 40.54 70.48 41.98 68.85 41.31 C 66.77 40.42 65.26 38.66 63.58 37.21 C 64.48 39.16 65.39 41.10 66.28 43.06 C 64.34 41.58 62.73 39.52 60.41 38.65 C 56.77 41.32 53.32 44.24 49.96 47.23 C 46.43 44.14 42.80 41.14 39.01 38.38 C 36.57 40.13 34.66 42.49 32.66 44.70 C 38.40 47.14 43.80 50.76 50.00 51.86 C 57.28 50.73 63.01 45.34 70.18 43.83 C 72.99 43.51 73.37 40.22 74.46 38.16 C 75.70 34.31 79.58 32.45 82.64 30.25 C 81.92 23.16 75.94 18.22 69.71 15.71 M 48.47 18.49 C 48.50 20.07 48.54 21.65 48.57 23.24 C 49.25 23.24 50.60 23.23 51.27 23.23 C 51.36 21.64 51.45 20.05 51.53 18.46 C 50.77 18.47 49.24 18.48 48.47 18.49 M 28.31 19.57 C 26.37 22.10 25.21 25.07 24.87 28.24 C 26.60 28.63 28.32 29.06 30.03 29.52 C 30.63 27.70 31.47 25.91 31.58 23.97 C 31.42 22.01 29.48 20.93 28.31 19.57 M 44.29 27.99 C 44.79 28.88 45.29 29.76 45.80 30.65 C 44.70 30.72 43.60 30.80 42.50 30.89 C 43.84 31.33 45.19 31.77 46.53 32.21 C 46.63 30.82 46.75 29.43 46.87 28.04 C 46.22 28.02 44.93 28.00 44.29 27.99 M 52.91 32.10 C 54.42 31.73 55.93 31.36 57.44 30.96 C 56.52 30.85 55.61 30.75 54.69 30.65 C 54.48 29.57 54.27 28.49 54.07 27.42 C 53.92 29.03 53.51 30.60 52.91 32.10 M 14.51 45.72 C 13.68 41.51 12.68 37.19 13.84 32.94 C 16.16 36.01 15.87 39.76 15.27 43.33 C 16.16 41.31 17.33 39.35 17.69 37.15 C 17.97 34.29 16.14 31.88 14.80 29.54 C 10.83 34.17 10.38 41.02 14.51 45.72 M 30.28 30.21 C 29.56 31.27 28.86 32.33 28.14 33.38 C 26.03 32.30 23.74 31.67 21.38 31.43 C 21.75 32.86 22.12 34.29 22.51 35.72 C 20.64 37.67 18.89 39.73 17.40 41.98 C 19.66 40.37 21.77 38.54 23.82 36.67 C 25.26 39.66 27.01 42.49 29.04 45.12 C 32.15 43.32 34.46 40.56 35.76 37.22 C 33.06 39.46 30.11 42.69 26.25 40.86 C 28.12 39.94 30.11 39.31 32.10 38.73 C 32.60 36.80 33.07 34.86 33.51 32.92 C 33.95 33.48 34.83 34.59 35.27 35.15 C 35.89 33.74 36.52 32.33 37.15 30.92 C 34.86 30.72 32.56 30.51 30.28 30.21 M 41.58 33.86 C 44.29 35.23 47.03 36.87 50.10 37.18 C 53.08 36.73 55.75 35.17 58.39 33.82 C 55.62 33.17 52.85 32.27 49.99 32.20 C 47.11 32.25 44.35 33.19 41.58 33.86 M 37.90 31.69 C 38.09 33.83 38.96 35.79 40.23 37.51 C 40.43 35.24 39.72 33.13 37.90 31.69 M 45.76 38.72 C 46.37 39.71 46.97 40.70 47.56 41.71 C 49.18 41.70 50.79 41.69 52.41 41.67 C 52.99 40.67 53.57 39.68 54.17 38.70 C 51.40 39.34 48.54 39.35 45.76 38.72 M 21.22 41.14 C 20.71 42.77 21.26 43.32 22.89 42.77 C 23.41 41.14 22.85 40.60 21.22 41.14 M 22.74 44.83 C 23.56 46.35 24.40 47.86 25.23 49.38 C 27.05 48.87 28.87 48.36 30.67 47.81 C 28.05 46.76 25.40 45.78 22.74 44.83 M 69.19 47.92 C 70.76 48.37 72.32 48.88 73.94 49.16 C 75.43 48.03 76.35 46.37 77.41 44.88 C 74.61 45.71 71.86 46.72 69.19 47.92 M 21.76 53.68 C 22.60 54.68 23.44 55.69 24.27 56.72 C 26.72 56.78 29.16 56.87 31.61 56.98 C 32.54 58.93 33.51 60.86 34.48 62.79 C 36.26 63.38 38.04 64.01 39.79 64.69 C 38.25 65.65 36.69 66.57 35.13 67.50 C 37.78 72.45 42.04 76.14 46.07 79.91 C 47.11 79.08 48.13 78.20 49.28 77.52 C 51.14 77.18 52.41 79.06 53.86 79.91 C 57.50 75.91 62.37 72.89 64.94 68.01 C 65.84 66.52 64.75 64.88 64.48 63.37 C 65.68 62.28 66.89 61.19 68.12 60.12 C 68.97 61.05 69.82 61.99 70.68 62.92 C 71.78 61.39 72.91 59.88 74.04 58.38 C 72.19 58.08 70.34 57.79 68.50 57.48 C 72.06 57.10 75.79 56.67 78.48 54.03 C 74.90 50.60 69.78 49.89 65.79 47.11 C 66.68 50.55 69.58 54.49 67.04 57.89 C 65.30 62.59 59.57 61.66 55.98 63.92 C 54.65 65.51 54.01 67.53 53.15 69.38 C 55.05 69.30 56.97 69.34 58.84 69.01 C 60.58 68.09 61.87 66.55 63.31 65.25 C 62.40 66.72 61.50 68.20 60.61 69.68 C 57.36 69.67 54.12 69.63 50.88 69.52 C 51.41 67.38 51.23 64.68 53.21 63.24 C 56.72 60.46 61.13 59.28 65.25 57.70 C 64.05 54.83 62.77 51.98 61.66 49.07 C 57.49 50.28 53.40 51.92 49.97 54.64 C 46.94 52.37 43.52 50.75 39.98 49.45 C 38.15 52.15 36.28 54.83 34.54 57.60 C 39.13 60.31 44.36 61.58 49.10 63.91 C 49.79 65.58 50.14 67.35 50.59 69.09 C 46.13 69.48 41.39 70.21 37.24 68.05 C 39.57 68.47 41.90 68.94 44.24 69.39 C 41.37 65.40 37.28 62.59 34.05 58.96 C 31.26 55.42 32.62 50.94 34.02 47.16 C 30.11 49.71 25.32 50.57 21.76 53.68 M 25.62 58.18 C 27.05 60.01 28.49 61.85 29.91 63.68 C 30.43 61.81 30.93 59.94 31.42 58.06 C 29.48 58.09 27.55 58.13 25.62 58.18 Z" />
<path fill="#ffffff" opacity="1.00" d=" M 47.94 14.14 C 49.29 14.16 50.64 14.16 51.99 14.17 C 52.14 15.27 52.28 16.37 52.43 17.47 C 50.82 17.47 49.21 17.48 47.61 17.51 C 47.72 16.39 47.83 15.26 47.94 14.14 Z" />
<path fill="#ffffff" opacity="1.00" d=" M 42.83 19.47 C 44.33 18.28 45.83 17.08 47.35 15.92 C 47.49 18.23 47.80 20.57 47.37 22.86 C 46.17 23.28 44.93 23.54 43.70 23.83 C 42.79 26.96 41.59 30.02 39.67 32.69 C 39.71 29.77 40.52 26.94 40.76 24.05 C 40.16 21.70 38.61 19.71 37.51 17.56 C 39.28 18.21 41.05 18.84 42.83 19.47 Z" />
<path fill="#ffffff" opacity="1.00" d=" M 52.82 16.00 C 54.24 17.16 55.66 18.33 57.08 19.50 C 58.87 18.85 60.66 18.20 62.44 17.54 C 61.23 19.73 59.78 21.81 58.86 24.14 C 59.18 28.57 63.71 33.27 60.11 37.34 C 59.69 33.44 58.48 29.70 56.74 26.19 C 53.95 26.85 50.99 29.51 48.14 27.84 C 46.56 27.06 45.04 26.17 43.53 25.28 C 47.96 25.25 52.81 26.35 56.68 23.53 C 55.00 23.50 53.31 23.51 51.63 23.52 C 52.04 21.02 52.42 18.51 52.82 16.00 Z" />
<path fill="#ffffff" opacity="1.00" d=" M 69.71 15.71 C 75.94 18.22 81.92 23.16 82.64 30.25 C 79.58 32.45 75.70 34.31 74.46 38.16 C 73.37 40.22 72.99 43.51 70.18 43.83 C 63.01 45.34 57.28 50.73 50.00 51.86 C 43.80 50.76 38.40 47.14 32.66 44.70 C 34.66 42.49 36.57 40.13 39.01 38.38 C 42.80 41.14 46.43 44.14 49.96 47.23 C 53.32 44.24 56.77 41.32 60.41 38.65 C 62.73 39.52 64.34 41.58 66.28 43.06 C 65.39 41.10 64.48 39.16 63.58 37.21 C 65.26 38.66 66.77 40.42 68.85 41.31 C 70.48 41.98 71.93 40.54 73.37 39.98 C 71.08 39.28 67.83 40.05 66.50 37.57 C 65.00 35.41 63.83 33.06 62.68 30.71 C 64.05 30.70 65.42 30.70 66.79 30.69 C 67.39 27.33 68.32 23.92 70.90 21.51 C 72.58 24.79 73.00 28.45 73.03 32.09 C 75.22 31.37 77.42 30.69 79.60 29.97 C 78.83 27.38 78.28 24.54 76.36 22.51 C 74.20 20.18 71.78 18.12 69.71 15.71 M 69.27 25.50 C 68.15 26.81 70.37 28.74 71.57 27.57 C 72.72 26.26 70.47 24.33 69.27 25.50 M 68.84 31.97 C 69.95 32.65 71.07 33.34 72.19 34.03 C 71.81 32.22 71.42 30.42 71.00 28.62 C 70.28 29.74 69.56 30.85 68.84 31.97 M 34.84 44.45 C 39.71 46.09 44.35 48.35 49.26 49.89 C 46.68 45.71 42.65 42.86 38.66 40.16 C 37.39 41.59 36.11 43.01 34.84 44.45 M 50.65 49.89 C 55.57 48.33 60.23 46.04 65.14 44.43 C 63.79 43.01 62.42 41.60 61.07 40.18 C 57.14 42.89 53.14 45.71 50.65 49.89 Z" />
<path fill="#fefaf8" opacity="1.00" d=" M 48.47 18.49 C 49.24 18.48 50.77 18.47 51.53 18.46 C 51.45 20.05 51.36 21.64 51.27 23.23 C 50.60 23.23 49.25 23.24 48.57 23.24 C 48.54 21.65 48.50 20.07 48.47 18.49 Z" />
<path fill="#ffffff" opacity="1.00" d=" M 28.31 19.57 C 29.48 20.93 31.42 22.01 31.58 23.97 C 31.47 25.91 30.63 27.70 30.03 29.52 C 28.32 29.06 26.60 28.63 24.87 28.24 C 25.21 25.07 26.37 22.10 28.31 19.57 M 29.12 23.41 C 28.00 23.18 26.67 24.58 27.47 25.61 C 28.79 26.93 31.12 24.05 29.12 23.41 Z" />
<path fill="#d04b05" opacity="1.00" d=" M 29.12 23.41 C 31.12 24.05 28.79 26.93 27.47 25.61 C 26.67 24.58 28.00 23.18 29.12 23.41 Z" />
<path fill="#d04b05" opacity="1.00" d=" M 69.27 25.50 C 70.47 24.33 72.72 26.26 71.57 27.57 C 70.37 28.74 68.15 26.81 69.27 25.50 Z" />
<path fill="#ffffff" opacity="1.00" d=" M 44.29 27.99 C 44.93 28.00 46.22 28.02 46.87 28.04 C 46.75 29.43 46.63 30.82 46.53 32.21 C 45.19 31.77 43.84 31.33 42.50 30.89 C 43.60 30.80 44.70 30.72 45.80 30.65 C 45.29 29.76 44.79 28.88 44.29 27.99 Z" />
<path fill="#ffffff" opacity="1.00" d=" M 52.91 32.10 C 53.51 30.60 53.92 29.03 54.07 27.42 C 54.27 28.49 54.48 29.57 54.69 30.65 C 55.61 30.75 56.52 30.85 57.44 30.96 C 55.93 31.36 54.42 31.73 52.91 32.10 Z" />
<path fill="#d04b05" opacity="1.00" d=" M 68.84 31.97 C 69.56 30.85 70.28 29.74 71.00 28.62 C 71.42 30.42 71.81 32.22 72.19 34.03 C 71.07 33.34 69.95 32.65 68.84 31.97 Z" />
<path fill="#ffffff" opacity="1.00" d=" M 14.51 45.72 C 10.38 41.02 10.83 34.17 14.80 29.54 C 16.14 31.88 17.97 34.29 17.69 37.15 C 17.33 39.35 16.16 41.31 15.27 43.33 C 15.87 39.76 16.16 36.01 13.84 32.94 C 12.68 37.19 13.68 41.51 14.51 45.72 Z" />
<path fill="#ffffff" opacity="1.00" d=" M 30.28 30.21 C 32.56 30.51 34.86 30.72 37.15 30.92 C 36.52 32.33 35.89 33.74 35.27 35.15 C 34.83 34.59 33.95 33.48 33.51 32.92 C 33.07 34.86 32.60 36.80 32.10 38.73 C 30.11 39.31 28.12 39.94 26.25 40.86 C 30.11 42.69 33.06 39.46 35.76 37.22 C 34.46 40.56 32.15 43.32 29.04 45.12 C 27.01 42.49 25.26 39.66 23.82 36.67 C 21.77 38.54 19.66 40.37 17.40 41.98 C 18.89 39.73 20.64 37.67 22.51 35.72 C 22.12 34.29 21.75 32.86 21.38 31.43 C 23.74 31.67 26.03 32.30 28.14 33.38 C 28.86 32.33 29.56 31.27 30.28 30.21 Z" />
<path fill="#ffffff" opacity="1.00" d=" M 41.58 33.86 C 44.35 33.19 47.11 32.25 49.99 32.20 C 52.85 32.27 55.62 33.17 58.39 33.82 C 55.75 35.17 53.08 36.73 50.10 37.18 C 47.03 36.87 44.29 35.23 41.58 33.86 M 49.12 32.93 C 48.60 34.55 49.15 35.10 50.79 34.58 C 51.32 32.96 50.76 32.41 49.12 32.93 Z" />
<path fill="#ffffff" opacity="1.00" d=" M 37.90 31.69 C 39.72 33.13 40.43 35.24 40.23 37.51 C 38.96 35.79 38.09 33.83 37.90 31.69 Z" />
<path fill="#d04b05" opacity="1.00" d=" M 49.12 32.93 C 50.76 32.41 51.32 32.96 50.79 34.58 C 49.15 35.10 48.60 34.55 49.12 32.93 Z" />
<path fill="#ffffff" opacity="1.00" d=" M 45.76 38.72 C 48.54 39.35 51.40 39.34 54.17 38.70 C 53.57 39.68 52.99 40.67 52.41 41.67 C 50.79 41.69 49.18 41.70 47.56 41.71 C 46.97 40.70 46.37 39.71 45.76 38.72 Z" />
<path fill="#d55f1d" opacity="1.00" d=" M 34.84 44.45 C 36.11 43.01 37.39 41.59 38.66 40.16 C 42.65 42.86 46.68 45.71 49.26 49.89 C 44.35 48.35 39.71 46.09 34.84 44.45 Z" />
<path fill="#d55f1c" opacity="1.00" d=" M 50.65 49.89 C 53.14 45.71 57.14 42.89 61.07 40.18 C 62.42 41.60 63.79 43.01 65.14 44.43 C 60.23 46.04 55.57 48.33 50.65 49.89 Z" />
<path fill="#b8b7b7" opacity="1.00" d=" M 21.22 41.14 C 22.85 40.60 23.41 41.14 22.89 42.77 C 21.26 43.32 20.71 42.77 21.22 41.14 Z" />
<path fill="#ffffff" opacity="1.00" d=" M 22.74 44.83 C 25.40 45.78 28.05 46.76 30.67 47.81 C 28.87 48.36 27.05 48.87 25.23 49.38 C 24.40 47.86 23.56 46.35 22.74 44.83 Z" />
<path fill="#ffffff" opacity="1.00" d=" M 69.19 47.92 C 71.86 46.72 74.61 45.71 77.41 44.88 C 76.35 46.37 75.43 48.03 73.94 49.16 C 72.32 48.88 70.76 48.37 69.19 47.92 Z" />
<path fill="#ffffff" opacity="1.00" d=" M 21.76 53.68 C 25.32 50.57 30.11 49.71 34.02 47.16 C 32.62 50.94 31.26 55.42 34.05 58.96 C 37.28 62.59 41.37 65.40 44.24 69.39 C 41.90 68.94 39.57 68.47 37.24 68.05 C 41.39 70.21 46.13 69.48 50.59 69.09 C 50.14 67.35 49.79 65.58 49.10 63.91 C 44.36 61.58 39.13 60.31 34.54 57.60 C 36.28 54.83 38.15 52.15 39.98 49.45 C 43.52 50.75 46.94 52.37 49.97 54.64 C 53.40 51.92 57.49 50.28 61.66 49.07 C 62.77 51.98 64.05 54.83 65.25 57.70 C 61.13 59.28 56.72 60.46 53.21 63.24 C 51.23 64.68 51.41 67.38 50.88 69.52 C 54.12 69.63 57.36 69.67 60.61 69.68 C 61.50 68.20 62.40 66.72 63.31 65.25 C 61.87 66.55 60.58 68.09 58.84 69.01 C 56.97 69.34 55.05 69.30 53.15 69.38 C 54.01 67.53 54.65 65.51 55.98 63.92 C 59.57 61.66 65.30 62.59 67.04 57.89 C 69.58 54.49 66.68 50.55 65.79 47.11 C 69.78 49.89 74.90 50.60 78.48 54.03 C 75.79 56.67 72.06 57.10 68.50 57.48 C 70.34 57.79 72.19 58.08 74.04 58.38 C 72.91 59.88 71.78 61.39 70.68 62.92 C 69.82 61.99 68.97 61.05 68.12 60.12 C 66.89 61.19 65.68 62.28 64.48 63.37 C 64.75 64.88 65.84 66.52 64.94 68.01 C 62.37 72.89 57.50 75.91 53.86 79.91 C 52.41 79.06 51.14 77.18 49.28 77.52 C 48.13 78.20 47.11 79.08 46.07 79.91 C 42.04 76.14 37.78 72.45 35.13 67.50 C 36.69 66.57 38.25 65.65 39.79 64.69 C 38.04 64.01 36.26 63.38 34.48 62.79 C 33.51 60.86 32.54 58.93 31.61 56.98 C 29.16 56.87 26.72 56.78 24.27 56.72 C 23.44 55.69 22.60 54.68 21.76 53.68 M 49.26 55.02 C 49.18 57.02 49.17 59.02 49.23 61.02 C 51.40 59.34 51.31 56.75 49.26 55.02 M 41.52 74.60 C 46.92 76.52 52.99 76.33 58.41 74.61 C 53.23 71.57 46.69 71.45 41.52 74.60 Z" />
<path fill="#e39367" opacity="1.00" d=" M 49.26 55.02 C 51.31 56.75 51.40 59.34 49.23 61.02 C 49.17 59.02 49.18 57.02 49.26 55.02 Z" />
<path fill="#ffffff" opacity="1.00" d=" M 25.62 58.18 C 27.55 58.13 29.48 58.09 31.42 58.06 C 30.93 59.94 30.43 61.81 29.91 63.68 C 28.49 61.85 27.05 60.01 25.62 58.18 Z" />
<path fill="#d04b05" opacity="1.00" d=" M 41.52 74.60 C 46.69 71.45 53.23 71.57 58.41 74.61 C 52.99 76.33 46.92 76.52 41.52 74.60 Z" />
</svg>
