<?xml version="1.0" encoding="UTF-8" ?>
<!DOCTYPE svg PUBLIC "-//W3C//DTD SVG 1.1//EN" "http://www.w3.org/Graphics/SVG/1.1/DTD/svg11.dtd">
<svg width="100pt" height="100pt" viewBox="0 0 100 100" version="1.1" xmlns="http://www.w3.org/2000/svg">
<path fill="#b8bbba" opacity="1.00" d=" M 39.01 21.78 C 49.14 22.63 57.68 16.16 66.00 11.38 C 67.48 14.81 68.90 18.25 70.27 21.72 C 74.66 21.72 79.05 21.73 83.44 21.75 C 83.50 44.09 83.58 66.43 83.40 88.77 C 61.03 88.67 38.65 88.71 16.27 88.75 C 16.28 66.43 16.30 44.11 16.26 21.78 C 23.84 21.69 31.43 21.70 39.01 21.78 M 42.70 25.30 C 35.27 26.18 27.76 25.26 20.30 25.84 C 20.41 45.56 20.35 65.28 20.31 85.01 C 40.14 85.43 59.98 85.26 79.82 85.08 C 80.00 65.33 79.74 45.58 79.86 25.83 C 76.21 25.70 72.46 26.03 68.90 25.06 C 67.09 22.13 66.11 18.78 64.85 15.60 C 57.63 19.15 50.65 23.58 42.70 25.30 Z" />
<path fill="#b61c2e" opacity="1.00" d=" M 42.70 25.30 C 50.65 23.58 57.63 19.15 64.85 15.60 C 66.11 18.78 67.09 22.13 68.90 25.06 C 72.46 26.03 76.21 25.70 79.86 25.83 C 79.74 45.58 80.00 65.33 79.82 85.08 C 59.98 85.26 40.14 85.43 20.31 85.01 C 20.35 65.28 20.41 45.56 20.30 25.84 C 27.76 25.26 35.27 26.18 42.70 25.30 M 21.68 33.52 C 22.72 35.01 23.77 36.52 25.12 37.75 C 28.01 38.83 31.24 38.62 34.10 39.86 C 35.70 42.70 36.38 45.93 37.35 49.01 C 38.58 48.88 39.81 48.76 41.04 48.64 C 40.14 49.85 39.23 51.05 38.32 52.26 C 42.93 62.33 45.11 73.22 48.13 83.81 C 50.12 83.82 52.11 83.82 54.10 83.82 C 51.62 73.47 48.88 63.20 45.86 53.00 C 44.44 48.52 44.74 43.77 44.32 39.15 C 47.66 38.14 51.08 36.68 54.63 37.16 C 58.56 39.90 55.97 45.44 55.29 49.23 C 58.95 51.17 62.68 52.97 66.46 54.65 C 67.08 50.34 67.23 45.96 68.05 41.68 C 69.76 33.96 66.07 26.51 63.38 19.48 C 50.60 27.04 36.02 30.32 21.68 33.52 M 58.12 61.14 C 55.61 61.82 53.35 63.12 51.17 64.50 C 60.50 63.62 69.56 60.96 78.68 58.90 C 78.65 57.60 78.65 56.31 78.69 55.01 C 71.79 56.93 65.00 59.18 58.12 61.14 M 21.13 73.66 C 28.32 72.61 35.08 69.83 42.03 67.87 C 42.09 67.23 42.22 65.93 42.28 65.29 C 35.26 68.16 27.58 69.53 21.13 73.66 M 57.77 74.73 C 55.75 75.22 54.30 76.72 52.96 78.20 C 61.62 77.19 69.87 74.19 78.36 72.33 C 78.48 71.15 78.61 69.98 78.75 68.81 C 71.66 70.42 64.73 72.65 57.77 74.73 M 29.79 83.95 C 34.92 83.31 40.37 82.55 44.53 79.19 C 39.33 79.67 34.38 81.55 29.79 83.95 Z" />
<path fill="#ffffff" opacity="1.00" d=" M 21.68 33.52 C 36.02 30.32 50.60 27.04 63.38 19.48 C 66.07 26.51 69.76 33.96 68.05 41.68 C 67.23 45.96 67.08 50.34 66.46 54.65 C 62.68 52.97 58.95 51.17 55.29 49.23 C 55.97 45.44 58.56 39.90 54.63 37.16 C 51.08 36.68 47.66 38.14 44.32 39.15 C 44.74 43.77 44.44 48.52 45.86 53.00 C 48.88 63.20 51.62 73.47 54.10 83.82 C 52.11 83.82 50.12 83.82 48.13 83.81 C 45.11 73.22 42.93 62.33 38.32 52.26 C 39.23 51.05 40.14 49.85 41.04 48.64 C 39.81 48.76 38.58 48.88 37.35 49.01 C 36.38 45.93 35.70 42.70 34.10 39.86 C 31.24 38.62 28.01 38.83 25.12 37.75 C 23.77 36.52 22.72 35.01 21.68 33.52 Z" />
<path fill="#ffffff" opacity="1.00" d=" M 58.12 61.14 C 65.00 59.18 71.79 56.93 78.69 55.01 C 78.65 56.31 78.65 57.60 78.68 58.90 C 69.56 60.96 60.50 63.62 51.17 64.50 C 53.35 63.12 55.61 61.82 58.12 61.14 Z" />
<path fill="#ffffff" opacity="1.00" d=" M 21.13 73.66 C 27.58 69.53 35.26 68.16 42.28 65.29 C 42.22 65.93 42.09 67.23 42.03 67.87 C 35.08 69.83 28.32 72.61 21.13 73.66 Z" />
<path fill="#ffffff" opacity="1.00" d=" M 57.77 74.73 C 64.73 72.65 71.66 70.42 78.75 68.81 C 78.61 69.98 78.48 71.15 78.36 72.33 C 69.87 74.19 61.62 77.19 52.96 78.20 C 54.30 76.72 55.75 75.22 57.77 74.73 Z" />
<path fill="#ffffff" opacity="1.00" d=" M 29.79 83.95 C 34.38 81.55 39.33 79.67 44.53 79.19 C 40.37 82.55 34.92 83.31 29.79 83.95 Z" />
</svg>
