<?xml version="1.0" encoding="UTF-8" ?>
<!DOCTYPE svg PUBLIC "-//W3C//DTD SVG 1.1//EN" "http://www.w3.org/Graphics/SVG/1.1/DTD/svg11.dtd">
<svg width="100pt" height="100pt" viewBox="0 0 100 100" version="1.1" xmlns="http://www.w3.org/2000/svg">
<path fill="#bab9b9" opacity="1.00" d=" M 40.41 31.43 C 43.55 28.26 46.37 24.79 48.87 21.08 C 50.66 21.91 52.51 23.16 54.59 22.59 C 61.28 21.38 68.27 20.63 74.98 22.12 C 79.18 23.41 78.11 28.59 77.64 31.88 C 77.08 38.28 73.43 43.66 69.87 48.77 C 77.35 59.02 84.67 69.40 92.04 79.74 C 82.00 79.73 71.96 79.71 61.92 79.68 C 58.65 79.48 55.92 81.50 52.89 82.32 C 49.35 82.38 46.00 80.99 42.66 80.00 C 40.02 84.49 38.95 90.36 34.28 93.30 C 30.16 94.49 26.48 90.91 23.61 88.41 C 20.76 86.09 21.95 82.35 22.71 79.36 C 17.82 79.56 12.93 79.55 8.04 79.38 C 15.92 67.84 24.05 56.48 32.05 45.03 C 35.19 40.71 36.60 35.29 40.41 31.43 M 42.75 31.76 C 37.56 36.59 36.73 44.08 32.62 49.64 C 26.29 58.56 19.88 67.45 13.90 76.62 C 19.24 76.67 24.58 76.68 29.92 76.51 C 27.66 78.47 24.76 80.17 23.77 83.16 C 23.25 86.16 26.25 88.21 28.36 89.77 C 30.16 90.76 32.84 92.80 34.50 90.53 C 37.59 86.69 39.15 81.88 41.88 77.79 C 45.16 78.69 48.42 79.99 51.86 80.03 C 55.33 79.22 58.15 76.32 61.91 76.57 C 69.99 76.50 78.07 76.81 86.16 76.61 C 81.18 69.08 75.79 61.84 70.40 54.61 C 69.21 52.93 67.93 51.23 67.39 49.21 C 69.58 44.58 73.40 40.79 74.77 35.76 C 75.72 32.15 76.63 28.22 75.48 24.55 C 71.55 22.84 67.13 23.19 62.96 23.35 C 55.54 23.76 47.89 26.14 42.75 31.76 Z" />
<path fill="#217a7a" opacity="1.00" d=" M 42.75 31.76 C 47.89 26.14 55.54 23.76 62.96 23.35 C 67.13 23.19 71.55 22.84 75.48 24.55 C 76.63 28.22 75.72 32.15 74.77 35.76 C 73.40 40.79 69.58 44.58 67.39 49.21 C 67.93 51.23 69.21 52.93 70.40 54.61 C 75.79 61.84 81.18 69.08 86.16 76.61 C 78.07 76.81 69.99 76.50 61.91 76.57 C 58.15 76.32 55.33 79.22 51.86 80.03 C 48.42 79.99 45.16 78.69 41.88 77.79 C 39.15 81.88 37.59 86.69 34.50 90.53 C 32.84 92.80 30.16 90.76 28.36 89.77 C 26.25 88.21 23.25 86.16 23.77 83.16 C 24.76 80.17 27.66 78.47 29.92 76.51 C 24.58 76.68 19.24 76.67 13.90 76.62 C 19.88 67.45 26.29 58.56 32.62 49.64 C 36.73 44.08 37.56 36.59 42.75 31.76 M 54.46 27.50 C 46.84 30.04 40.09 36.35 38.57 44.45 C 37.72 48.55 39.05 52.65 40.41 56.48 C 45.38 51.99 42.48 44.49 46.44 39.45 C 51.48 31.67 60.89 28.90 69.50 27.29 C 65.78 29.90 61.96 32.52 59.29 36.28 C 52.56 45.22 45.36 53.79 38.73 62.80 C 39.78 64.54 40.83 66.28 41.87 68.03 C 48.28 59.68 54.04 50.79 61.05 42.91 C 55.78 51.97 49.18 60.17 43.50 68.97 C 45.36 69.46 47.21 69.94 49.07 70.43 C 54.58 62.79 59.59 54.80 65.22 47.24 C 67.48 44.11 69.87 41.01 71.44 37.46 C 72.89 33.92 73.23 30.07 73.78 26.32 C 67.35 25.78 60.67 25.33 54.46 27.50 M 30.28 61.06 C 32.24 64.51 34.89 67.58 36.55 71.20 C 35.21 74.66 33.13 77.78 31.64 81.17 C 32.53 81.52 34.33 82.22 35.22 82.57 C 37.20 80.13 38.86 77.28 41.52 75.52 C 45.67 75.53 49.56 77.34 53.60 78.07 C 53.27 76.55 52.99 75.01 52.47 73.53 C 48.97 71.71 44.86 71.48 41.39 69.60 C 38.64 67.02 37.22 63.37 35.25 60.22 C 33.59 60.50 31.94 60.78 30.28 61.06 M 56.52 63.44 C 56.27 64.18 55.79 65.65 55.54 66.39 C 61.22 66.64 66.90 65.82 72.20 63.72 C 66.97 63.92 61.73 63.95 56.52 63.44 M 29.27 80.29 C 27.86 81.38 26.67 82.72 25.43 84.00 C 27.83 85.91 30.29 87.75 32.79 89.53 C 33.61 88.00 34.50 86.49 35.16 84.88 C 33.86 82.68 31.55 81.30 29.27 80.29 Z" />
<path fill="#ffffff" opacity="1.00" d=" M 54.46 27.50 C 60.67 25.33 67.35 25.78 73.78 26.32 C 73.23 30.07 72.89 33.92 71.44 37.46 C 69.87 41.01 67.48 44.11 65.22 47.24 C 59.59 54.80 54.58 62.79 49.07 70.43 C 47.21 69.94 45.36 69.46 43.50 68.97 C 49.18 60.17 55.78 51.97 61.05 42.91 C 54.04 50.79 48.28 59.68 41.87 68.03 C 40.83 66.28 39.78 64.54 38.73 62.80 C 45.36 53.79 52.56 45.22 59.29 36.28 C 61.96 32.52 65.78 29.90 69.50 27.29 C 60.89 28.90 51.48 31.67 46.44 39.45 C 42.48 44.49 45.38 51.99 40.41 56.48 C 39.05 52.65 37.72 48.55 38.57 44.45 C 40.09 36.35 46.84 30.04 54.46 27.50 Z" />
<path fill="#ffffff" opacity="1.00" d=" M 30.28 61.06 C 31.94 60.78 33.59 60.50 35.25 60.22 C 37.22 63.37 38.64 67.02 41.39 69.60 C 44.86 71.48 48.97 71.71 52.47 73.53 C 52.99 75.01 53.27 76.55 53.60 78.07 C 49.56 77.34 45.67 75.53 41.52 75.52 C 38.86 77.28 37.20 80.13 35.22 82.57 C 34.33 82.22 32.53 81.52 31.64 81.17 C 33.13 77.78 35.21 74.66 36.55 71.20 C 34.89 67.58 32.24 64.51 30.28 61.06 Z" />
<path fill="#ffffff" opacity="1.00" d=" M 56.52 63.44 C 61.73 63.95 66.97 63.92 72.20 63.72 C 66.90 65.82 61.22 66.64 55.54 66.39 C 55.79 65.65 56.27 64.18 56.52 63.44 Z" />
<path fill="#ffffff" opacity="1.00" d=" M 29.27 80.29 C 31.55 81.30 33.86 82.68 35.16 84.88 C 34.50 86.49 33.61 88.00 32.79 89.53 C 30.29 87.75 27.83 85.91 25.43 84.00 C 26.67 82.72 27.86 81.38 29.27 80.29 Z" />
</svg>
