<?xml version="1.0" encoding="UTF-8" ?>
<!DOCTYPE svg PUBLIC "-//W3C//DTD SVG 1.1//EN" "http://www.w3.org/Graphics/SVG/1.1/DTD/svg11.dtd">
<svg width="100pt" height="100pt" viewBox="0 0 100 100" version="1.1" xmlns="http://www.w3.org/2000/svg">
<path fill="#ffffff" opacity="1.00" d=" M 42.44 12.62 C 61.15 8.17 81.79 20.94 86.64 39.49 C 92.87 58.33 80.81 80.46 61.96 86.19 C 45.23 92.41 24.85 84.09 16.67 68.37 C 15.72 66.64 14.98 64.79 13.80 63.20 C 11.40 60.93 8.13 59.55 6.35 56.64 C 3.21 51.24 1.28 44.56 3.45 38.45 C 5.22 32.41 8.54 26.24 14.48 23.47 C 18.39 21.50 23.39 22.84 26.81 19.80 C 31.41 16.27 36.76 13.77 42.44 12.62 M 45.40 15.58 C 39.49 16.25 33.96 18.80 29.21 22.31 C 25.06 25.77 19.10 22.74 14.66 25.61 C 4.49 31.88 1.51 47.50 9.09 56.90 C 11.68 60.09 16.73 60.41 18.47 64.39 C 21.43 70.47 25.80 75.91 31.63 79.44 C 42.74 86.60 58.02 86.44 68.98 79.04 C 81.89 70.82 88.08 53.57 82.94 39.08 C 78.06 23.66 61.47 13.09 45.40 15.58 Z" />
<path fill="#482b46" opacity="1.00" d=" M 45.40 15.58 C 61.47 13.09 78.06 23.66 82.94 39.08 C 88.08 53.57 81.89 70.82 68.98 79.04 C 58.02 86.44 42.74 86.60 31.63 79.44 C 25.80 75.91 21.43 70.47 18.47 64.39 C 16.73 60.41 11.68 60.09 9.09 56.90 C 1.51 47.50 4.49 31.88 14.66 25.61 C 19.10 22.74 25.06 25.77 29.21 22.31 C 33.96 18.80 39.49 16.25 45.40 15.58 M 18.50 26.66 C 11.52 28.77 7.87 36.35 7.28 43.15 C 6.96 49.09 9.44 56.37 15.66 58.30 C 20.13 59.70 25.44 60.36 29.56 57.60 C 34.53 54.13 36.99 47.96 36.93 42.02 C 37.20 37.31 35.66 32.10 31.44 29.51 C 27.67 27.16 22.91 25.83 18.50 26.66 M 72.69 31.93 C 70.54 32.48 71.62 34.99 71.51 36.55 C 70.43 37.03 69.35 37.55 68.19 37.80 C 65.38 36.65 62.93 34.68 59.91 34.03 C 55.63 33.11 51.27 34.05 46.96 34.17 C 43.34 34.30 39.78 33.55 36.20 33.14 C 37.36 34.55 38.08 36.71 40.11 37.03 C 47.26 39.09 54.62 35.05 61.75 37.21 C 64.48 38.21 66.72 40.28 68.44 42.57 C 70.37 45.64 70.71 49.35 71.87 52.73 C 73.14 47.98 71.46 43.34 69.45 39.09 C 71.86 37.66 74.31 36.30 76.85 35.12 C 75.91 33.69 74.92 30.58 72.69 31.93 M 40.92 39.44 C 44.24 40.65 47.66 41.83 51.26 41.51 C 56.53 41.22 61.29 43.76 66.19 45.26 C 63.85 42.32 61.09 39.01 57.03 38.76 C 51.65 38.47 46.31 39.73 40.92 39.44 M 54.65 59.83 C 52.88 65.15 54.90 71.18 59.95 73.85 C 58.07 70.31 55.66 66.58 56.37 62.37 C 56.67 57.74 60.40 54.62 63.28 51.41 C 59.19 52.57 55.35 55.38 54.65 59.83 M 64.29 52.97 C 56.97 56.47 55.23 68.26 61.94 73.20 C 69.18 76.56 75.76 67.85 74.77 61.11 C 74.75 55.99 69.54 50.61 64.29 52.97 M 30.79 58.38 C 39.08 58.90 45.68 64.13 53.22 66.92 C 53.03 65.76 52.84 64.61 52.65 63.46 C 47.16 61.40 42.29 57.83 36.56 56.44 C 34.38 55.66 32.57 57.42 30.79 58.38 M 44.48 56.40 C 47.03 58.89 50.18 60.66 53.60 61.62 C 51.27 58.84 47.92 57.32 44.48 56.40 M 32.90 61.40 C 32.24 64.93 33.46 68.31 36.05 70.74 C 35.46 67.49 34.56 64.28 32.90 61.40 M 36.03 61.55 C 35.62 65.92 37.13 72.20 42.36 72.68 C 45.80 73.46 48.37 70.77 50.38 68.42 C 47.52 69.12 44.59 71.28 41.60 70.40 C 38.81 68.21 38.10 64.35 36.03 61.55 Z" />
<path fill="#ffffff" opacity="1.00" d=" M 18.50 26.66 C 22.91 25.83 27.67 27.16 31.44 29.51 C 35.66 32.10 37.20 37.31 36.93 42.02 C 36.99 47.96 34.53 54.13 29.56 57.60 C 25.44 60.36 20.13 59.70 15.66 58.30 C 9.44 56.37 6.96 49.09 7.28 43.15 C 7.87 36.35 11.52 28.77 18.50 26.66 M 17.38 30.12 C 9.69 33.31 7.08 43.98 11.03 50.95 C 13.02 54.58 18.03 55.81 21.49 53.56 C 27.01 50.14 28.14 42.94 27.22 37.00 C 26.88 32.43 21.88 28.38 17.38 30.12 M 28.81 29.23 C 29.91 32.42 31.73 35.46 31.83 38.91 C 31.91 43.08 30.97 47.31 28.98 50.99 C 27.29 54.12 24.22 56.09 21.72 58.50 C 24.70 57.56 27.96 56.53 29.85 53.85 C 32.85 49.56 34.25 44.22 34.16 39.00 C 33.97 35.10 31.60 31.78 28.81 29.23 Z" />
<path fill="#482b46" opacity="1.00" d=" M 17.38 30.12 C 21.88 28.38 26.88 32.43 27.22 37.00 C 28.14 42.94 27.01 50.14 21.49 53.56 C 18.03 55.81 13.02 54.58 11.03 50.95 C 7.08 43.98 9.69 33.31 17.38 30.12 M 17.45 32.34 C 10.11 35.08 9.40 45.40 13.51 51.17 C 13.25 46.24 11.48 40.35 15.36 36.34 C 17.15 33.71 20.58 34.59 23.26 34.36 C 21.50 33.37 19.65 31.31 17.45 32.34 M 20.17 51.61 C 23.83 48.36 25.26 43.54 25.13 38.76 C 23.22 42.93 21.55 47.23 20.17 51.61 Z" />
<path fill="#1f011d" opacity="1.00" d=" M 28.81 29.23 C 31.60 31.78 33.97 35.10 34.16 39.00 C 34.25 44.22 32.85 49.56 29.85 53.85 C 27.96 56.53 24.70 57.56 21.72 58.50 C 24.22 56.09 27.29 54.12 28.98 50.99 C 30.97 47.31 31.91 43.08 31.83 38.91 C 31.73 35.46 29.91 32.42 28.81 29.23 Z" />
<path fill="#ffffff" opacity="1.00" d=" M 72.69 31.93 C 74.92 30.58 75.91 33.69 76.85 35.12 C 74.31 36.30 71.86 37.66 69.45 39.09 C 71.46 43.34 73.14 47.98 71.87 52.73 C 70.71 49.35 70.37 45.64 68.44 42.57 C 66.72 40.28 64.48 38.21 61.75 37.21 C 54.62 35.05 47.26 39.09 40.11 37.03 C 38.08 36.71 37.36 34.55 36.20 33.14 C 39.78 33.55 43.34 34.30 46.96 34.17 C 51.27 34.05 55.63 33.11 59.91 34.03 C 62.93 34.68 65.38 36.65 68.19 37.80 C 69.35 37.55 70.43 37.03 71.51 36.55 C 71.62 34.99 70.54 32.48 72.69 31.93 Z" />
<path fill="#ffffff" opacity="1.00" d=" M 17.45 32.34 C 19.65 31.31 21.50 33.37 23.26 34.36 C 20.58 34.59 17.15 33.71 15.36 36.34 C 11.48 40.35 13.25 46.24 13.51 51.17 C 9.40 45.40 10.11 35.08 17.45 32.34 Z" />
<path fill="#ffffff" opacity="1.00" d=" M 20.17 51.61 C 21.55 47.23 23.22 42.93 25.13 38.76 C 25.26 43.54 23.83 48.36 20.17 51.61 Z" />
<path fill="#ffffff" opacity="1.00" d=" M 40.92 39.44 C 46.31 39.73 51.65 38.47 57.03 38.76 C 61.09 39.01 63.85 42.32 66.19 45.26 C 61.29 43.76 56.53 41.22 51.26 41.51 C 47.66 41.83 44.24 40.65 40.92 39.44 Z" />
<path fill="#ffffff" opacity="1.00" d=" M 54.65 59.83 C 55.35 55.38 59.19 52.57 63.28 51.41 C 60.40 54.62 56.67 57.74 56.37 62.37 C 55.66 66.58 58.07 70.31 59.95 73.85 C 54.90 71.18 52.88 65.15 54.65 59.83 Z" />
<path fill="#ffffff" opacity="1.00" d=" M 64.29 52.97 C 69.54 50.61 74.75 55.99 74.77 61.11 C 75.76 67.85 69.18 76.56 61.94 73.20 C 55.23 68.26 56.97 56.47 64.29 52.97 M 65.34 55.05 C 59.68 58.05 58.30 67.47 63.52 71.49 C 70.00 73.42 74.38 64.96 72.56 59.55 C 72.11 56.24 68.69 53.12 65.34 55.05 Z" />
<path fill="#482b46" opacity="1.00" d=" M 65.34 55.05 C 68.69 53.12 72.11 56.24 72.56 59.55 C 74.38 64.96 70.00 73.42 63.52 71.49 C 58.30 67.47 59.68 58.05 65.34 55.05 M 66.14 63.25 C 66.54 64.06 66.94 64.86 67.35 65.67 C 68.53 65.48 69.72 65.30 70.91 65.13 C 70.11 63.89 69.35 62.62 68.50 61.42 C 67.91 61.88 66.73 62.80 66.14 63.25 Z" />
<path fill="#ffffff" opacity="1.00" d=" M 30.79 58.38 C 32.57 57.42 34.38 55.66 36.56 56.44 C 42.29 57.83 47.16 61.40 52.65 63.46 C 52.84 64.61 53.03 65.76 53.22 66.92 C 45.68 64.13 39.08 58.90 30.79 58.38 Z" />
<path fill="#ffffff" opacity="1.00" d=" M 44.48 56.40 C 47.92 57.32 51.27 58.84 53.60 61.62 C 50.18 60.66 47.03 58.89 44.48 56.40 Z" />
<path fill="#ffffff" opacity="1.00" d=" M 32.90 61.40 C 34.56 64.28 35.46 67.49 36.05 70.74 C 33.46 68.31 32.24 64.93 32.90 61.40 Z" />
<path fill="#ffffff" opacity="1.00" d=" M 36.03 61.55 C 38.10 64.35 38.81 68.21 41.60 70.40 C 44.59 71.28 47.52 69.12 50.38 68.42 C 48.37 70.77 45.80 73.46 42.36 72.68 C 37.13 72.20 35.62 65.92 36.03 61.55 Z" />
<path fill="#ffffff" opacity="1.00" d=" M 66.14 63.25 C 66.73 62.80 67.91 61.88 68.50 61.42 C 69.35 62.62 70.11 63.89 70.91 65.13 C 69.72 65.30 68.53 65.48 67.35 65.67 C 66.94 64.86 66.54 64.06 66.14 63.25 Z" />
</svg>
