<?xml version="1.0" encoding="UTF-8" ?>
<!DOCTYPE svg PUBLIC "-//W3C//DTD SVG 1.1//EN" "http://www.w3.org/Graphics/SVG/1.1/DTD/svg11.dtd">
<svg width="100pt" height="100pt" viewBox="0 0 100 100" version="1.1" xmlns="http://www.w3.org/2000/svg">
<path fill="#ffffff" opacity="1.00" d=" M 44.55 19.36 C 46.16 15.86 47.43 12.20 48.93 8.65 C 50.39 12.30 51.53 16.08 53.32 19.60 C 66.63 21.66 78.15 31.69 81.70 44.73 C 85.84 45.02 89.97 44.33 94.11 44.57 C 90.61 47.96 86.35 50.59 83.24 54.37 C 82.31 60.92 81.08 67.66 77.11 73.15 C 73.53 78.48 68.47 82.82 62.63 85.49 C 58.23 87.55 53.16 87.68 48.92 90.12 C 44.80 87.95 40.02 87.87 35.73 86.21 C 25.88 82.40 17.97 73.84 15.12 63.65 C 13.99 60.05 14.13 56.22 13.31 52.57 C 10.70 49.44 7.32 47.06 4.61 44.01 C 8.03 44.08 11.45 44.22 14.87 44.25 C 17.49 37.37 21.33 30.74 27.42 26.38 C 32.34 22.44 38.46 20.58 44.55 19.36 M 48.70 13.88 C 47.62 16.67 47.23 19.83 45.46 22.30 C 40.68 23.69 35.57 24.44 31.41 27.39 C 24.48 31.70 19.97 38.87 17.50 46.51 C 14.89 46.44 12.27 46.26 9.66 46.14 C 11.88 48.28 14.45 50.07 16.42 52.46 C 17.22 55.87 17.15 59.44 18.14 62.81 C 20.41 70.79 26.08 77.67 33.32 81.67 C 38.18 84.41 43.97 84.60 48.95 87.09 C 53.76 84.49 59.43 84.06 64.12 81.20 C 72.00 76.60 77.87 68.47 79.21 59.39 C 79.61 57.47 79.72 55.44 80.57 53.65 C 83.13 50.92 86.42 49.02 89.22 46.55 C 85.91 46.55 82.61 46.76 79.31 46.90 C 76.90 39.95 73.33 33.13 67.20 28.77 C 63.00 25.25 57.58 24.12 52.54 22.39 C 50.69 19.89 50.17 16.62 48.70 13.88 Z" />
<path fill="#482b46" opacity="1.00" d=" M 48.70 13.88 C 50.17 16.62 50.69 19.89 52.54 22.39 C 57.58 24.12 63.00 25.25 67.20 28.77 C 73.33 33.13 76.90 39.95 79.31 46.90 C 82.61 46.76 85.91 46.55 89.22 46.55 C 86.42 49.02 83.13 50.92 80.57 53.65 C 79.72 55.44 79.61 57.47 79.21 59.39 C 77.87 68.47 72.00 76.60 64.12 81.20 C 59.43 84.06 53.76 84.49 48.95 87.09 C 43.97 84.60 38.18 84.41 33.32 81.67 C 26.08 77.67 20.41 70.79 18.14 62.81 C 17.15 59.44 17.22 55.87 16.42 52.46 C 14.45 50.07 11.88 48.28 9.66 46.14 C 12.27 46.26 14.89 46.44 17.50 46.51 C 19.97 38.87 24.48 31.70 31.41 27.39 C 35.57 24.44 40.68 23.69 45.46 22.30 C 47.23 19.83 47.62 16.67 48.70 13.88 M 43.41 39.35 C 45.30 37.17 47.11 34.92 48.98 32.72 C 50.96 35.17 52.85 37.69 54.89 40.09 C 53.19 33.97 51.19 27.95 49.33 21.88 C 46.67 27.44 45.32 33.51 43.41 39.35 M 37.09 52.82 C 40.94 58.13 44.72 63.53 48.96 68.54 C 53.05 63.28 57.38 58.13 60.74 52.36 C 56.83 47.12 53.08 41.76 48.97 36.67 C 44.76 41.85 40.68 47.18 37.09 52.82 M 16.90 49.22 C 22.02 53.80 27.69 57.73 33.12 61.92 C 35.18 64.05 38.04 62.60 40.45 62.06 C 38.33 58.45 36.10 54.86 33.38 51.66 C 28.04 50.14 22.40 49.94 16.90 49.22 M 64.51 51.58 C 61.63 54.63 59.74 58.59 57.22 61.98 C 60.00 62.52 63.30 63.95 65.72 61.72 C 71.17 57.57 76.68 53.48 81.98 49.13 C 76.16 49.93 70.25 50.31 64.51 51.58 M 41.11 69.28 C 43.28 73.96 46.16 78.26 49.06 82.52 C 51.99 78.43 54.57 74.10 57.07 69.74 C 55.79 69.03 54.50 68.31 53.22 67.58 C 51.79 69.16 50.40 70.76 48.96 72.33 C 47.58 70.86 46.23 69.37 44.85 67.91 C 43.59 68.35 42.35 68.81 41.11 69.28 Z" />
<path fill="#ffffff" opacity="1.00" d=" M 43.41 39.35 C 45.32 33.51 46.67 27.44 49.33 21.88 C 51.19 27.95 53.19 33.97 54.89 40.09 C 52.85 37.69 50.96 35.17 48.98 32.72 C 47.11 34.92 45.30 37.17 43.41 39.35 Z" />
<path fill="#ffffff" opacity="1.00" d=" M 37.09 52.82 C 40.68 47.18 44.76 41.85 48.97 36.67 C 53.08 41.76 56.83 47.12 60.74 52.36 C 57.38 58.13 53.05 63.28 48.96 68.54 C 44.72 63.53 40.94 58.13 37.09 52.82 M 49.09 40.88 C 48.85 45.62 48.84 50.37 49.09 55.12 C 51.98 54.42 54.80 53.44 57.50 52.19 C 54.93 48.26 52.14 44.46 49.09 40.88 M 41.84 54.97 C 43.93 58.37 46.28 61.60 48.95 64.58 C 51.58 61.56 53.94 58.33 56.10 54.97 C 53.74 55.58 51.43 56.48 48.99 56.73 C 46.54 56.48 44.22 55.58 41.84 54.97 Z" />
<path fill="#482b46" opacity="1.00" d=" M 49.09 40.88 C 52.14 44.46 54.93 48.26 57.50 52.19 C 54.80 53.44 51.98 54.42 49.09 55.12 C 48.84 50.37 48.85 45.62 49.09 40.88 Z" />
<path fill="#ffffff" opacity="1.00" d=" M 16.90 49.22 C 22.40 49.94 28.04 50.14 33.38 51.66 C 36.10 54.86 38.33 58.45 40.45 62.06 C 38.04 62.60 35.18 64.05 33.12 61.92 C 27.69 57.73 22.02 53.80 16.90 49.22 Z" />
<path fill="#ffffff" opacity="1.00" d=" M 64.51 51.58 C 70.25 50.31 76.16 49.93 81.98 49.13 C 76.68 53.48 71.17 57.57 65.72 61.72 C 63.30 63.95 60.00 62.52 57.22 61.98 C 59.74 58.59 61.63 54.63 64.51 51.58 Z" />
<path fill="#482b46" opacity="1.00" d=" M 41.84 54.97 C 44.22 55.58 46.54 56.48 48.99 56.73 C 51.43 56.48 53.74 55.58 56.10 54.97 C 53.94 58.33 51.58 61.56 48.95 64.58 C 46.28 61.60 43.93 58.37 41.84 54.97 Z" />
<path fill="#ffffff" opacity="1.00" d=" M 41.11 69.28 C 42.35 68.81 43.59 68.35 44.85 67.91 C 46.23 69.37 47.58 70.86 48.96 72.33 C 50.40 70.76 51.79 69.16 53.22 67.58 C 54.50 68.31 55.79 69.03 57.07 69.74 C 54.57 74.10 51.99 78.43 49.06 82.52 C 46.16 78.26 43.28 73.96 41.11 69.28 Z" />
</svg>
