<?xml version="1.0" encoding="UTF-8" ?>
<!DOCTYPE svg PUBLIC "-//W3C//DTD SVG 1.1//EN" "http://www.w3.org/Graphics/SVG/1.1/DTD/svg11.dtd">
<svg width="100pt" height="100pt" viewBox="0 0 100 100" version="1.1" xmlns="http://www.w3.org/2000/svg">
<path fill="#b8b8b8" opacity="1.00" d=" M 61.15 16.30 C 64.66 12.36 68.01 8.27 71.82 4.61 C 71.85 9.64 71.66 14.67 71.61 19.71 C 75.86 18.18 80.10 16.58 84.37 15.10 C 81.93 19.85 79.29 24.50 76.75 29.20 C 81.63 30.94 86.54 32.58 91.34 34.54 C 85.84 36.89 80.25 39.01 74.72 41.30 C 78.40 45.52 82.26 49.58 85.97 53.77 C 72.95 67.61 60.30 81.79 47.24 95.59 C 34.32 81.66 21.56 67.60 8.59 53.72 C 21.41 39.74 34.33 25.84 47.12 11.81 C 48.42 13.00 49.71 14.19 51.02 15.37 C 50.97 12.43 50.90 9.50 50.89 6.56 C 54.42 9.69 57.79 12.99 61.15 16.30 M 61.72 20.94 C 58.93 17.78 56.13 14.63 53.22 11.58 C 53.30 15.77 53.45 19.95 53.52 24.14 C 51.44 22.14 49.41 20.11 47.38 18.07 C 41.74 23.54 36.62 29.52 31.26 35.26 C 25.67 41.45 19.79 47.38 14.45 53.80 C 25.33 65.66 36.22 77.54 47.18 89.33 C 58.45 77.74 69.15 65.61 80.19 53.80 C 77.63 50.77 74.52 48.10 72.63 44.56 C 72.22 42.17 72.80 39.75 73.04 37.37 C 76.84 36.23 80.62 34.99 84.36 33.63 C 80.72 32.24 77.03 31.02 73.32 29.85 C 75.73 26.01 78.00 22.10 80.14 18.11 C 76.44 19.69 72.78 21.35 69.10 22.99 C 69.38 18.85 69.66 14.70 69.78 10.55 C 66.84 13.81 64.20 17.32 61.72 20.94 Z" />
<path fill="#d96035" opacity="1.00" d=" M 61.72 20.94 C 64.20 17.32 66.84 13.81 69.78 10.55 C 69.66 14.70 69.38 18.85 69.10 22.99 C 72.78 21.35 76.44 19.69 80.14 18.11 C 78.00 22.10 75.73 26.01 73.32 29.85 C 77.03 31.02 80.72 32.24 84.36 33.63 C 80.62 34.99 76.84 36.23 73.04 37.37 C 72.80 39.75 72.22 42.17 72.63 44.56 C 74.52 48.10 77.63 50.77 80.19 53.80 C 69.15 65.61 58.45 77.74 47.18 89.33 C 36.22 77.54 25.33 65.66 14.45 53.80 C 19.79 47.38 25.67 41.45 31.26 35.26 C 36.62 29.52 41.74 23.54 47.38 18.07 C 49.41 20.11 51.44 22.14 53.52 24.14 C 53.45 19.95 53.30 15.77 53.22 11.58 C 56.13 14.63 58.93 17.78 61.72 20.94 M 64.30 28.75 C 65.44 28.44 66.58 28.13 67.73 27.83 C 67.28 29.03 66.82 30.24 66.38 31.45 C 67.41 31.68 68.45 31.91 69.48 32.14 C 68.72 34.07 68.02 36.03 67.31 37.98 C 68.02 38.38 68.73 38.79 69.45 39.20 C 69.47 37.70 69.50 36.21 69.53 34.72 C 71.87 34.05 74.20 33.36 76.52 32.65 C 74.06 31.85 71.57 31.10 69.08 30.37 C 71.26 27.73 73.40 25.07 75.40 22.29 C 72.37 23.56 69.39 24.91 66.40 26.25 C 66.99 22.46 67.56 18.66 67.85 14.83 C 65.34 19.05 64.27 23.87 64.30 28.75 M 55.95 17.78 C 56.52 21.21 57.27 24.60 58.04 27.99 C 54.28 27.40 50.51 26.81 46.73 26.35 C 49.76 28.17 52.87 29.83 55.98 31.52 C 54.28 32.44 52.58 33.37 50.90 34.33 C 53.68 33.86 56.99 33.88 59.01 31.60 C 59.78 29.84 59.91 27.89 60.27 26.02 C 61.30 26.57 62.33 27.12 63.36 27.67 C 61.09 24.23 58.68 20.88 55.95 17.78 M 62.33 34.71 C 60.26 34.67 58.20 34.97 56.20 35.52 C 57.86 37.22 59.57 38.88 61.30 40.51 C 62.94 39.01 64.89 37.51 65.30 35.17 C 66.07 32.70 63.85 30.76 62.69 28.85 C 62.04 30.75 61.90 32.75 62.33 34.71 M 46.27 35.53 C 35.58 35.15 27.26 45.16 26.35 55.19 C 26.38 63.38 31.62 71.64 39.50 74.37 C 44.56 76.03 50.29 76.37 55.30 74.36 C 62.82 70.41 68.38 61.78 66.97 53.12 C 66.22 47.61 62.57 43.03 58.47 39.53 C 55.23 36.42 50.64 35.41 46.27 35.53 M 65.12 41.23 C 63.62 40.77 62.62 43.30 64.26 43.73 C 65.75 44.20 66.77 41.64 65.12 41.23 Z" />
<path fill="#ffffff" opacity="1.00" d=" M 64.30 28.75 C 64.27 23.87 65.34 19.05 67.85 14.83 C 67.56 18.66 66.99 22.46 66.40 26.25 C 69.39 24.91 72.37 23.56 75.40 22.29 C 73.40 25.07 71.26 27.73 69.08 30.37 C 71.57 31.10 74.06 31.85 76.52 32.65 C 74.20 33.36 71.87 34.05 69.53 34.72 C 69.50 36.21 69.47 37.70 69.45 39.20 C 68.73 38.79 68.02 38.38 67.31 37.98 C 68.02 36.03 68.72 34.07 69.48 32.14 C 68.45 31.91 67.41 31.68 66.38 31.45 C 66.82 30.24 67.28 29.03 67.73 27.83 C 66.58 28.13 65.44 28.44 64.30 28.75 Z" />
<path fill="#ffffff" opacity="1.00" d=" M 55.95 17.78 C 58.68 20.88 61.09 24.23 63.36 27.67 C 62.33 27.12 61.30 26.57 60.27 26.02 C 59.91 27.89 59.78 29.84 59.01 31.60 C 56.99 33.88 53.68 33.86 50.90 34.33 C 52.58 33.37 54.28 32.44 55.98 31.52 C 52.87 29.83 49.76 28.17 46.73 26.35 C 50.51 26.81 54.28 27.40 58.04 27.99 C 57.27 24.60 56.52 21.21 55.95 17.78 Z" />
<path fill="#ffffff" opacity="1.00" d=" M 62.33 34.71 C 61.90 32.75 62.04 30.75 62.69 28.85 C 63.85 30.76 66.07 32.70 65.30 35.17 C 64.89 37.51 62.94 39.01 61.30 40.51 C 59.57 38.88 57.86 37.22 56.20 35.52 C 58.20 34.97 60.26 34.67 62.33 34.71 Z" />
<path fill="#ffffff" opacity="1.00" d=" M 46.27 35.53 C 50.64 35.41 55.23 36.42 58.47 39.53 C 62.57 43.03 66.22 47.61 66.97 53.12 C 68.38 61.78 62.82 70.41 55.30 74.36 C 50.29 76.37 44.56 76.03 39.50 74.37 C 31.62 71.64 26.38 63.38 26.35 55.19 C 27.26 45.16 35.58 35.15 46.27 35.53 M 61.21 47.28 C 61.33 49.40 61.52 51.51 61.70 53.62 C 56.76 54.08 51.16 52.67 46.89 55.92 C 44.32 58.07 42.29 60.82 40.52 63.65 C 38.16 67.35 40.71 73.20 45.17 73.68 C 49.01 74.18 53.34 74.07 56.55 71.60 C 59.61 69.32 62.23 66.36 63.83 62.88 C 66.00 57.70 64.69 51.57 61.21 47.28 M 29.13 57.43 C 29.67 61.85 31.20 66.12 34.30 69.41 C 36.04 66.96 37.63 64.41 39.15 61.82 C 35.75 60.50 32.52 58.78 29.13 57.43 Z" />
<path fill="#f2c6b7" opacity="1.00" d=" M 65.12 41.23 C 66.77 41.64 65.75 44.20 64.26 43.73 C 62.62 43.30 63.62 40.77 65.12 41.23 Z" />
<path fill="#d96035" opacity="1.00" d=" M 61.21 47.28 C 64.69 51.57 66.00 57.70 63.83 62.88 C 62.23 66.36 59.61 69.32 56.55 71.60 C 53.34 74.07 49.01 74.18 45.17 73.68 C 40.71 73.20 38.16 67.35 40.52 63.65 C 42.29 60.82 44.32 58.07 46.89 55.92 C 51.16 52.67 56.76 54.08 61.70 53.62 C 61.52 51.51 61.33 49.40 61.21 47.28 Z" />
<path fill="#d96035" opacity="1.00" d=" M 29.13 57.43 C 32.52 58.78 35.75 60.50 39.15 61.82 C 37.63 64.41 36.04 66.96 34.30 69.41 C 31.20 66.12 29.67 61.85 29.13 57.43 Z" />
</svg>
