<?xml version="1.0" encoding="UTF-8" ?>
<!DOCTYPE svg PUBLIC "-//W3C//DTD SVG 1.1//EN" "http://www.w3.org/Graphics/SVG/1.1/DTD/svg11.dtd">
<svg width="100pt" height="100pt" viewBox="0 0 100 100" version="1.1" xmlns="http://www.w3.org/2000/svg">
<path fill="#bab9b9" opacity="1.00" d=" M 46.05 25.93 C 49.54 23.56 51.91 20.05 54.19 16.59 C 57.62 20.89 60.28 25.83 64.10 29.80 C 67.33 31.67 71.06 32.59 74.06 34.90 C 76.15 32.98 78.74 31.79 81.46 31.07 C 81.31 29.61 81.17 28.15 81.03 26.69 C 84.37 26.48 88.65 25.99 90.54 29.47 C 93.10 34.15 93.85 40.08 92.15 45.17 C 89.99 49.68 87.65 54.39 83.47 57.38 C 88.76 64.62 94.02 71.89 99.18 79.23 C 93.51 79.43 87.81 78.93 82.15 79.48 C 77.45 80.60 72.84 82.35 67.97 82.58 C 61.79 82.71 56.25 79.16 50.08 79.25 C 36.88 79.20 23.68 79.41 10.49 79.18 C 12.51 76.04 14.65 72.98 16.83 69.95 C 12.93 66.24 8.69 62.63 6.33 57.68 C 4.16 53.21 2.28 48.56 1.01 43.75 C -0.06 40.09 0.88 36.06 2.94 32.93 C 4.73 30.82 7.77 30.74 10.24 29.94 C 10.83 32.95 11.15 36.26 13.31 38.63 C 15.36 41.54 19.71 40.42 22.04 42.93 C 24.67 45.84 26.71 49.22 29.05 52.36 C 30.21 50.77 31.36 49.19 32.52 47.60 C 27.48 41.22 26.32 32.67 26.00 24.77 C 30.46 27.65 34.45 31.29 39.17 33.76 C 43.21 33.11 42.93 27.82 46.05 25.93 M 54.44 22.29 C 52.32 25.14 49.59 27.52 46.05 28.33 C 45.53 32.22 42.67 34.74 39.23 36.25 C 35.54 33.61 31.77 31.09 27.88 28.75 C 28.41 32.66 28.96 36.63 30.63 40.24 C 31.77 43.00 33.80 45.28 34.84 48.08 C 34.45 51.18 32.25 53.64 30.65 56.20 C 27.00 53.80 25.01 49.86 22.55 46.42 C 20.18 42.89 15.29 43.26 12.19 40.76 C 10.05 38.22 9.38 34.83 8.21 31.79 C 6.40 32.75 3.97 33.32 3.41 35.60 C 0.92 42.19 4.45 48.99 6.96 55.01 C 9.63 61.51 15.01 66.26 20.58 70.27 C 19.29 72.30 18.04 74.35 16.77 76.39 C 26.85 76.90 36.95 76.44 47.03 76.52 C 54.82 76.35 61.83 81.09 69.66 80.43 C 74.36 80.16 78.24 76.88 82.92 76.60 C 86.29 76.37 89.67 76.56 93.04 76.62 C 88.66 69.73 83.51 63.37 79.01 56.57 C 89.14 53.35 94.58 40.06 89.25 30.76 C 88.17 28.88 85.82 28.52 83.92 27.96 C 83.63 29.59 83.34 31.22 83.06 32.85 C 80.72 33.58 78.40 34.36 76.09 35.18 C 76.43 38.31 76.84 41.43 77.23 44.55 C 75.39 41.49 73.94 38.14 71.51 35.49 C 68.29 32.54 62.91 33.58 60.07 30.06 C 57.99 27.63 56.27 24.91 54.44 22.29 Z" />
<path fill="#277373" opacity="1.00" d=" M 54.44 22.29 C 56.27 24.91 57.99 27.63 60.07 30.06 C 62.91 33.58 68.29 32.54 71.51 35.49 C 73.94 38.14 75.39 41.49 77.23 44.55 C 76.84 41.43 76.43 38.31 76.09 35.18 C 78.40 34.36 80.72 33.58 83.06 32.85 C 83.34 31.22 83.63 29.59 83.92 27.96 C 85.82 28.52 88.17 28.88 89.25 30.76 C 94.58 40.06 89.14 53.35 79.01 56.57 C 83.51 63.37 88.66 69.73 93.04 76.62 C 89.67 76.56 86.29 76.37 82.92 76.60 C 78.24 76.88 74.36 80.16 69.66 80.43 C 61.83 81.09 54.82 76.35 47.03 76.52 C 36.95 76.44 26.85 76.90 16.77 76.39 C 18.04 74.35 19.29 72.30 20.58 70.27 C 15.01 66.26 9.63 61.51 6.96 55.01 C 4.45 48.99 0.92 42.19 3.41 35.60 C 3.97 33.32 6.40 32.75 8.21 31.79 C 9.38 34.83 10.05 38.22 12.19 40.76 C 15.29 43.26 20.18 42.89 22.55 46.42 C 25.01 49.86 27.00 53.80 30.65 56.20 C 32.25 53.64 34.45 51.18 34.84 48.08 C 33.80 45.28 31.77 43.00 30.63 40.24 C 28.96 36.63 28.41 32.66 27.88 28.75 C 31.77 31.09 35.54 33.61 39.23 36.25 C 42.67 34.74 45.53 32.22 46.05 28.33 C 49.59 27.52 52.32 25.14 54.44 22.29 M 52.09 29.24 C 47.45 32.54 42.32 36.03 40.84 41.89 C 45.70 40.29 49.36 36.71 53.44 33.84 C 52.31 34.99 51.48 36.38 50.56 37.69 C 51.21 37.99 52.50 38.58 53.14 38.87 C 52.66 39.11 51.70 39.58 51.22 39.81 C 51.54 40.73 51.85 41.65 52.17 42.56 C 47.11 40.32 41.91 43.50 36.70 42.51 C 37.99 41.26 39.30 40.04 40.61 38.82 C 36.82 36.93 33.33 34.52 29.80 32.20 C 31.88 36.56 32.08 42.74 37.36 44.56 C 36.79 47.43 36.88 50.46 35.99 53.26 C 33.76 56.56 30.23 58.76 28.13 62.17 C 26.84 64.14 27.19 66.59 27.19 68.82 C 29.22 67.00 31.11 65.05 33.02 63.12 C 31.73 65.81 30.41 68.48 29.11 71.17 C 31.42 71.59 33.74 72.02 36.06 72.40 C 37.22 69.87 38.84 67.59 40.89 65.70 C 39.59 68.58 38.30 71.47 37.58 74.56 C 39.27 73.96 42.45 74.39 42.53 71.87 C 42.83 65.93 43.04 59.39 38.83 54.64 C 40.70 55.43 42.55 56.26 44.42 57.06 C 44.61 55.19 44.77 53.32 44.96 51.45 C 45.56 52.30 46.15 53.15 46.75 54.01 C 44.63 57.78 43.63 62.01 43.66 66.33 C 45.58 64.36 48.24 62.66 48.81 59.78 C 49.49 56.25 48.63 52.68 48.19 49.17 C 51.18 50.60 54.28 51.78 57.41 52.86 C 55.05 53.36 52.66 53.72 50.26 54.02 C 50.18 55.61 50.10 57.19 50.04 58.78 C 57.59 60.70 65.40 61.55 73.18 61.49 C 73.95 58.13 74.99 54.84 76.36 51.69 C 77.67 49.24 76.00 46.68 75.04 44.43 C 74.71 46.56 74.46 48.71 74.08 50.83 C 72.54 46.01 74.61 39.46 69.64 36.30 C 65.73 33.36 60.61 34.28 56.85 36.94 C 57.87 35.38 57.42 33.43 57.47 31.69 C 55.98 30.50 54.19 27.75 52.09 29.24 M 47.16 29.51 C 46.22 30.64 46.47 31.28 47.92 31.42 C 48.87 30.29 48.62 29.65 47.16 29.51 M 86.16 29.68 C 84.61 33.44 82.93 37.46 84.29 41.57 C 84.71 39.17 85.02 36.76 85.37 34.35 C 86.03 38.68 86.62 43.03 87.69 47.28 C 90.26 41.61 90.26 34.64 86.16 29.68 M 4.54 42.64 C 5.77 47.88 7.77 52.95 10.33 57.68 C 12.71 62.13 17.09 64.81 20.88 67.90 C 19.91 63.50 19.46 59.00 19.75 54.50 C 20.69 54.92 21.63 55.33 22.58 55.74 C 23.33 54.80 24.13 53.91 24.97 53.05 C 23.47 50.90 22.14 48.59 20.22 46.77 C 17.51 44.97 13.81 45.05 11.45 42.63 C 9.04 40.11 7.95 36.71 6.34 33.69 C 5.11 36.48 3.69 39.51 4.54 42.64 M 78.98 35.13 C 79.69 36.33 80.41 37.51 81.13 38.70 C 79.99 38.63 78.86 38.55 77.72 38.48 C 78.94 40.66 80.03 42.91 81.41 45.00 C 83.06 42.00 82.30 38.58 81.86 35.38 C 81.14 35.32 79.70 35.20 78.98 35.13 M 78.25 44.71 C 80.19 46.15 82.15 47.58 84.12 48.98 C 83.90 49.58 83.46 50.79 83.24 51.39 C 81.62 49.82 79.97 48.29 78.30 46.79 C 78.33 48.91 78.39 51.03 78.44 53.15 C 81.81 54.17 84.18 51.76 85.92 49.22 C 84.03 46.71 81.44 44.96 78.25 44.71 M 24.20 56.14 C 23.71 57.55 24.17 58.02 25.58 57.56 C 26.07 56.15 25.61 55.68 24.20 56.14 M 24.56 62.05 C 26.61 60.45 28.51 58.67 30.20 56.70 C 27.07 56.86 25.37 59.26 24.56 62.05 M 21.35 58.57 C 21.59 61.56 22.01 64.53 22.70 67.45 C 23.44 66.40 24.10 65.29 24.47 64.06 C 23.89 62.00 22.53 60.31 21.35 58.57 M 57.16 62.73 C 57.20 67.37 57.19 72.02 56.48 76.61 C 57.66 76.81 58.84 77.00 60.01 77.20 C 60.58 75.47 61.14 73.73 61.70 71.99 C 61.85 73.91 62.01 75.83 62.18 77.75 C 64.34 78.12 66.51 78.50 68.67 78.89 C 68.63 76.22 68.57 73.55 68.57 70.88 C 69.18 73.20 69.77 75.52 70.33 77.85 C 71.82 77.81 73.32 77.77 74.82 77.74 C 74.98 76.26 75.13 74.78 75.28 73.31 C 76.22 73.78 77.16 74.27 78.10 74.74 C 77.65 72.17 77.16 69.60 76.67 67.03 C 75.06 67.76 73.51 68.67 71.79 69.11 C 69.72 68.80 67.87 67.80 66.01 66.93 C 68.87 66.86 71.88 67.66 74.65 66.69 C 76.69 65.96 76.51 63.40 76.72 61.64 C 70.68 65.30 63.69 62.74 57.16 62.73 Z" />
<path fill="#ffffff" opacity="1.00" d=" M 52.09 29.24 C 54.19 27.75 55.98 30.50 57.47 31.69 C 56.11 32.39 54.74 33.05 53.44 33.84 C 49.36 36.71 45.70 40.29 40.84 41.89 C 42.32 36.03 47.45 32.54 52.09 29.24 Z" />
<path fill="#ffffff" opacity="1.00" d=" M 47.16 29.51 C 48.62 29.65 48.87 30.29 47.92 31.42 C 46.47 31.28 46.22 30.64 47.16 29.51 Z" />
<path fill="#ffffff" opacity="1.00" d=" M 86.16 29.68 C 90.26 34.64 90.26 41.61 87.69 47.28 C 86.62 43.03 86.03 38.68 85.37 34.35 C 85.02 36.76 84.71 39.17 84.29 41.57 C 82.93 37.46 84.61 33.44 86.16 29.68 Z" />
<path fill="#ffffff" opacity="1.00" d=" M 29.80 32.20 C 33.33 34.52 36.82 36.93 40.61 38.82 C 39.30 40.04 37.99 41.26 36.70 42.51 C 41.91 43.50 47.11 40.32 52.17 42.56 C 51.85 41.65 51.54 40.73 51.22 39.81 C 51.70 39.58 52.66 39.11 53.14 38.87 C 54.39 38.25 55.62 37.61 56.85 36.94 C 60.61 34.28 65.73 33.36 69.64 36.30 C 74.61 39.46 72.54 46.01 74.08 50.83 C 74.46 48.71 74.71 46.56 75.04 44.43 C 76.00 46.68 77.67 49.24 76.36 51.69 C 74.99 54.84 73.95 58.13 73.18 61.49 C 65.40 61.55 57.59 60.70 50.04 58.78 C 50.10 57.19 50.18 55.61 50.26 54.02 C 52.66 53.72 55.05 53.36 57.41 52.86 C 54.28 51.78 51.18 50.60 48.19 49.17 C 48.63 52.68 49.49 56.25 48.81 59.78 C 48.24 62.66 45.58 64.36 43.66 66.33 C 43.63 62.01 44.63 57.78 46.75 54.01 C 46.15 53.15 45.56 52.30 44.96 51.45 C 44.77 53.32 44.61 55.19 44.42 57.06 C 42.55 56.26 40.70 55.43 38.83 54.64 C 43.04 59.39 42.83 65.93 42.53 71.87 C 42.45 74.39 39.27 73.96 37.58 74.56 C 38.30 71.47 39.59 68.58 40.89 65.70 C 38.84 67.59 37.22 69.87 36.06 72.40 C 33.74 72.02 31.42 71.59 29.11 71.17 C 30.41 68.48 31.73 65.81 33.02 63.12 C 31.11 65.05 29.22 67.00 27.19 68.82 C 27.19 66.59 26.84 64.14 28.13 62.17 C 30.23 58.76 33.76 56.56 35.99 53.26 C 36.88 50.46 36.79 47.43 37.36 44.56 C 32.08 42.74 31.88 36.56 29.80 32.20 M 59.61 36.59 C 62.50 39.90 65.72 42.89 68.65 46.16 C 68.45 44.24 68.27 42.31 68.12 40.38 C 65.39 38.89 62.59 37.52 59.61 36.59 M 62.97 55.11 C 60.62 58.70 55.85 56.58 52.35 57.07 C 55.78 58.36 59.81 60.43 63.41 58.61 C 65.25 56.70 66.42 54.24 68.30 52.36 C 69.65 50.81 71.93 51.59 73.71 51.33 C 72.92 50.08 72.15 48.82 71.41 47.54 C 67.35 48.40 65.23 52.04 62.97 55.11 M 36.30 54.23 C 36.85 57.17 37.56 60.06 38.12 62.99 C 36.14 61.54 34.17 60.08 32.11 58.76 C 33.52 61.45 35.48 63.81 37.88 65.69 C 38.71 63.70 40.23 61.61 39.56 59.35 C 38.94 57.39 37.49 55.86 36.30 54.23 Z" />
<path fill="#c4d9d9" opacity="1.00" d=" M 53.44 33.84 C 54.74 33.05 56.11 32.39 57.47 31.69 C 57.42 33.43 57.87 35.38 56.85 36.94 C 55.62 37.61 54.39 38.25 53.14 38.87 C 52.50 38.58 51.21 37.99 50.56 37.69 C 51.48 36.38 52.31 34.99 53.44 33.84 Z" />
<path fill="#ffffff" opacity="1.00" d=" M 4.54 42.64 C 3.69 39.51 5.11 36.48 6.34 33.69 C 7.95 36.71 9.04 40.11 11.45 42.63 C 13.81 45.05 17.51 44.97 20.22 46.77 C 22.14 48.59 23.47 50.90 24.97 53.05 C 24.13 53.91 23.33 54.80 22.58 55.74 C 21.63 55.33 20.69 54.92 19.75 54.50 C 19.46 59.00 19.91 63.50 20.88 67.90 C 17.09 64.81 12.71 62.13 10.33 57.68 C 7.77 52.95 5.77 47.88 4.54 42.64 Z" />
<path fill="#ffffff" opacity="1.00" d=" M 78.98 35.13 C 79.70 35.20 81.14 35.32 81.86 35.38 C 82.30 38.58 83.06 42.00 81.41 45.00 C 80.03 42.91 78.94 40.66 77.72 38.48 C 78.86 38.55 79.99 38.63 81.13 38.70 C 80.41 37.51 79.69 36.33 78.98 35.13 Z" />
<path fill="#277373" opacity="1.00" d=" M 59.61 36.59 C 62.59 37.52 65.39 38.89 68.12 40.38 C 68.27 42.31 68.45 44.24 68.65 46.16 C 65.72 42.89 62.50 39.90 59.61 36.59 Z" />
<path fill="#ffffff" opacity="1.00" d=" M 78.25 44.71 C 81.44 44.96 84.03 46.71 85.92 49.22 C 84.18 51.76 81.81 54.17 78.44 53.15 C 78.39 51.03 78.33 48.91 78.30 46.79 C 79.97 48.29 81.62 49.82 83.24 51.39 C 83.46 50.79 83.90 49.58 84.12 48.98 C 82.15 47.58 80.19 46.15 78.25 44.71 Z" />
<path fill="#267070" opacity="1.00" d=" M 62.97 55.11 C 65.23 52.04 67.35 48.40 71.41 47.54 C 72.15 48.82 72.92 50.08 73.71 51.33 C 71.93 51.59 69.65 50.81 68.30 52.36 C 66.42 54.24 65.25 56.70 63.41 58.61 C 59.81 60.43 55.78 58.36 52.35 57.07 C 55.85 56.58 60.62 58.70 62.97 55.11 Z" />
<path fill="#277373" opacity="1.00" d=" M 36.30 54.23 C 37.49 55.86 38.94 57.39 39.56 59.35 C 40.23 61.61 38.71 63.70 37.88 65.69 C 35.48 63.81 33.52 61.45 32.11 58.76 C 34.17 60.08 36.14 61.54 38.12 62.99 C 37.56 60.06 36.85 57.17 36.30 54.23 Z" />
<path fill="#ebf2f2" opacity="1.00" d=" M 24.20 56.14 C 25.61 55.68 26.07 56.15 25.58 57.56 C 24.17 58.02 23.71 57.55 24.20 56.14 Z" />
<path fill="#ffffff" opacity="1.00" d=" M 24.56 62.05 C 25.37 59.26 27.07 56.86 30.20 56.70 C 28.51 58.67 26.61 60.45 24.56 62.05 Z" />
<path fill="#bab9b9" opacity="1.00" d=" M 21.35 58.57 C 22.53 60.31 23.89 62.00 24.47 64.06 C 24.10 65.29 23.44 66.40 22.70 67.45 C 22.01 64.53 21.59 61.56 21.35 58.57 Z" />
<path fill="#ffffff" opacity="1.00" d=" M 57.16 62.73 C 63.69 62.74 70.68 65.30 76.72 61.64 C 76.51 63.40 76.69 65.96 74.65 66.69 C 71.88 67.66 68.87 66.86 66.01 66.93 C 67.87 67.80 69.72 68.80 71.79 69.11 C 73.51 68.67 75.06 67.76 76.67 67.03 C 77.16 69.60 77.65 72.17 78.10 74.74 C 77.16 74.27 76.22 73.78 75.28 73.31 C 75.13 74.78 74.98 76.26 74.82 77.74 C 73.32 77.77 71.82 77.81 70.33 77.85 C 69.77 75.52 69.18 73.20 68.57 70.88 C 68.57 73.55 68.63 76.22 68.67 78.89 C 66.51 78.50 64.34 78.12 62.18 77.75 C 62.01 75.83 61.85 73.91 61.70 71.99 C 61.14 73.73 60.58 75.47 60.01 77.20 C 58.84 77.00 57.66 76.81 56.48 76.61 C 57.19 72.02 57.20 67.37 57.16 62.73 Z" />
</svg>
