<?xml version="1.0" encoding="UTF-8" ?>
<!DOCTYPE svg PUBLIC "-//W3C//DTD SVG 1.1//EN" "http://www.w3.org/Graphics/SVG/1.1/DTD/svg11.dtd">
<svg width="100pt" height="100pt" viewBox="0 0 100 100" version="1.1" xmlns="http://www.w3.org/2000/svg">
<path fill="#b8b8b8" opacity="1.00" d=" M 17.49 15.49 C 20.40 12.22 24.79 11.23 28.80 9.98 C 30.27 11.62 31.61 13.41 33.39 14.73 C 35.55 15.22 37.77 15.12 39.96 15.16 C 51.82 15.08 63.69 15.09 75.55 15.14 C 80.59 29.68 85.91 44.13 91.03 58.65 C 77.38 67.61 63.70 76.54 50.17 85.68 C 36.71 76.40 22.99 67.49 9.27 58.59 C 12.79 50.02 15.57 41.17 18.85 32.50 C 16.22 30.83 13.70 28.98 11.17 27.15 C 12.82 23.06 14.03 18.51 17.49 15.49 M 19.24 17.22 C 16.74 19.77 15.38 23.14 13.77 26.27 C 16.98 28.13 20.29 29.80 23.67 31.33 C 20.48 40.10 17.21 48.84 14.27 57.71 C 26.25 65.56 38.16 73.51 50.13 81.37 C 62.32 73.75 74.15 65.59 86.17 57.71 C 81.95 44.79 77.04 32.12 72.64 19.27 C 62.09 19.10 51.54 19.15 40.99 19.30 C 38.47 19.25 35.87 19.39 33.44 18.62 C 31.09 17.13 29.50 14.76 27.71 12.69 C 24.77 13.95 21.58 14.95 19.24 17.22 Z" />
<path fill="#941271" opacity="1.00" d=" M 19.24 17.22 C 21.58 14.95 24.77 13.95 27.71 12.69 C 29.50 14.76 31.09 17.13 33.44 18.62 C 35.87 19.39 38.47 19.25 40.99 19.30 C 51.54 19.15 62.09 19.10 72.64 19.27 C 77.04 32.12 81.95 44.79 86.17 57.71 C 74.15 65.59 62.32 73.75 50.13 81.37 C 38.16 73.51 26.25 65.56 14.27 57.71 C 17.21 48.84 20.48 40.10 23.67 31.33 C 20.29 29.80 16.98 28.13 13.77 26.27 C 15.38 23.14 16.74 19.77 19.24 17.22 M 21.06 19.02 C 19.20 20.87 18.26 23.38 17.04 25.65 C 20.31 27.04 23.94 27.91 26.65 30.33 C 33.26 36.24 39.33 42.71 44.97 49.54 C 47.47 47.26 49.93 44.93 52.35 42.57 C 45.58 37.08 39.03 31.29 33.02 24.96 C 30.41 22.30 29.11 18.74 27.44 15.49 C 25.25 16.53 22.91 17.41 21.06 19.02 M 52.66 44.65 C 48.01 47.81 45.43 52.93 42.42 57.50 C 38.66 52.31 35.15 46.94 31.21 41.89 C 33.59 48.28 36.28 54.55 38.49 61.01 C 34.98 59.31 31.53 57.49 27.97 55.91 C 31.16 58.56 34.53 60.99 37.67 63.69 C 32.52 62.45 27.50 60.71 22.33 59.55 C 27.05 62.59 32.15 64.95 37.19 67.39 C 36.32 67.65 34.58 68.17 33.71 68.43 C 39.05 70.86 43.84 74.33 49.18 76.74 C 50.28 77.36 51.53 77.23 52.61 76.66 C 61.85 72.40 70.36 66.67 78.12 60.11 C 74.63 61.48 71.23 63.03 67.76 64.44 C 69.11 62.55 70.51 60.70 71.88 58.83 C 68.18 60.78 64.54 62.86 60.82 64.77 C 66.29 59.93 70.31 53.82 73.81 47.47 C 70.45 44.33 67.16 41.12 63.91 37.88 C 60.22 40.24 56.37 42.33 52.66 44.65 Z" />
<path fill="#ffffff" opacity="1.00" d=" M 21.06 19.02 C 22.91 17.41 25.25 16.53 27.44 15.49 C 29.11 18.74 30.41 22.30 33.02 24.96 C 39.03 31.29 45.58 37.08 52.35 42.57 C 49.93 44.93 47.47 47.26 44.97 49.54 C 39.33 42.71 33.26 36.24 26.65 30.33 C 23.94 27.91 20.31 27.04 17.04 25.65 C 18.26 23.38 19.20 20.87 21.06 19.02 M 28.08 26.17 C 28.43 27.42 28.78 28.66 29.14 29.91 C 30.38 30.07 31.61 30.23 32.85 30.38 C 32.80 29.52 32.70 27.80 32.66 26.93 C 31.13 26.67 29.61 26.42 28.08 26.17 M 36.44 33.69 C 36.49 35.00 36.54 36.31 36.60 37.62 C 38.25 37.88 39.91 38.06 41.58 38.07 C 40.69 35.81 38.76 34.28 36.44 33.69 Z" />
<path fill="#83005b" opacity="1.00" d=" M 28.08 26.17 C 29.61 26.42 31.13 26.67 32.66 26.93 C 32.70 27.80 32.80 29.52 32.85 30.38 C 31.61 30.23 30.38 30.07 29.14 29.91 C 28.78 28.66 28.43 27.42 28.08 26.17 Z" />
<path fill="#83005b" opacity="1.00" d=" M 36.44 33.69 C 38.76 34.28 40.69 35.81 41.58 38.07 C 39.91 38.06 38.25 37.88 36.60 37.62 C 36.54 36.31 36.49 35.00 36.44 33.69 Z" />
<path fill="#ffffff" opacity="1.00" d=" M 52.66 44.65 C 56.37 42.33 60.22 40.24 63.91 37.88 C 67.16 41.12 70.45 44.33 73.81 47.47 C 70.31 53.82 66.29 59.93 60.82 64.77 C 64.54 62.86 68.18 60.78 71.88 58.83 C 70.51 60.70 69.11 62.55 67.76 64.44 C 71.23 63.03 74.63 61.48 78.12 60.11 C 70.36 66.67 61.85 72.40 52.61 76.66 C 51.53 77.23 50.28 77.36 49.18 76.74 C 43.84 74.33 39.05 70.86 33.71 68.43 C 34.58 68.17 36.32 67.65 37.19 67.39 C 32.15 64.95 27.05 62.59 22.33 59.55 C 27.50 60.71 32.52 62.45 37.67 63.69 C 34.53 60.99 31.16 58.56 27.97 55.91 C 31.53 57.49 34.98 59.31 38.49 61.01 C 36.28 54.55 33.59 48.28 31.21 41.89 C 35.15 46.94 38.66 52.31 42.42 57.50 C 45.43 52.93 48.01 47.81 52.66 44.65 M 50.13 52.12 C 51.99 51.32 53.87 50.54 55.74 49.78 C 55.71 48.07 55.68 46.36 55.64 44.64 C 53.88 47.19 52.05 49.69 50.13 52.12 M 60.59 58.56 C 57.91 60.63 55.09 62.51 52.50 64.70 C 56.44 63.15 60.40 61.39 63.61 58.56 C 66.12 56.14 67.62 52.90 69.17 49.83 C 66.28 52.71 63.84 56.06 60.59 58.56 Z" />
<path fill="#83005b" opacity="1.00" d=" M 50.13 52.12 C 52.05 49.69 53.88 47.19 55.64 44.64 C 55.68 46.36 55.71 48.07 55.74 49.78 C 53.87 50.54 51.99 51.32 50.13 52.12 Z" />
<path fill="#83005b" opacity="1.00" d=" M 60.59 58.56 C 63.84 56.06 66.28 52.71 69.17 49.83 C 67.62 52.90 66.12 56.14 63.61 58.56 C 60.40 61.39 56.44 63.15 52.50 64.70 C 55.09 62.51 57.91 60.63 60.59 58.56 Z" />
</svg>
