<?xml version="1.0" encoding="UTF-8" ?>
<!DOCTYPE svg PUBLIC "-//W3C//DTD SVG 1.1//EN" "http://www.w3.org/Graphics/SVG/1.1/DTD/svg11.dtd">
<svg width="100pt" height="100pt" viewBox="0 0 100 100" version="1.1" xmlns="http://www.w3.org/2000/svg">
<path fill="#b8b8b8" opacity="1.00" d=" M 15.43 15.42 C 18.59 11.66 23.54 10.63 27.98 9.16 C 30.26 11.69 31.78 15.63 35.16 16.73 C 51.55 17.00 67.95 16.68 84.34 16.85 C 84.40 39.14 84.48 61.44 84.30 83.73 C 61.66 83.66 39.03 83.73 16.39 83.69 C 16.53 67.09 16.40 50.49 16.47 33.89 C 13.81 31.99 11.20 30.02 8.59 28.05 C 10.42 23.63 11.67 18.68 15.43 15.42 M 17.30 17.29 C 14.44 19.91 13.18 23.67 11.79 27.17 C 14.49 29.02 17.26 30.75 20.12 32.34 C 20.65 47.82 20.20 63.31 20.30 78.80 C 40.09 78.93 59.89 78.89 79.68 78.82 C 79.64 59.65 79.58 40.48 79.67 21.31 C 66.45 21.34 53.22 21.25 39.99 21.42 C 37.76 21.40 35.50 21.45 33.31 20.95 C 30.81 18.40 29.13 15.19 27.08 12.30 C 23.61 13.47 19.89 14.54 17.30 17.29 Z" />
<path fill="#d45b19" opacity="1.00" d=" M 17.30 17.29 C 19.89 14.54 23.61 13.47 27.08 12.30 C 29.13 15.19 30.81 18.40 33.31 20.95 C 35.50 21.45 37.76 21.40 39.99 21.42 C 53.22 21.25 66.45 21.34 79.67 21.31 C 79.58 40.48 79.64 59.65 79.68 78.82 C 59.89 78.89 40.09 78.93 20.30 78.80 C 20.20 63.31 20.65 47.82 20.12 32.34 C 17.26 30.75 14.49 29.02 11.79 27.17 C 13.18 23.67 14.44 19.91 17.30 17.29 M 14.89 26.16 C 17.18 27.20 19.52 28.12 21.81 29.16 C 25.55 30.85 28.14 34.17 31.06 36.93 C 34.82 40.54 38.49 44.25 41.79 48.29 C 43.36 50.32 45.76 51.78 46.83 54.14 C 46.12 56.81 44.22 58.93 42.75 61.21 C 38.52 55.98 35.13 50.14 30.87 44.93 C 32.99 51.76 36.01 58.25 38.27 65.02 C 34.76 63.33 31.32 61.48 27.73 59.93 C 30.84 62.74 34.26 65.19 37.39 67.98 C 32.16 66.76 27.07 64.98 21.78 64.02 C 27.14 67.54 33.15 69.88 38.68 73.10 C 33.36 74.32 27.94 75.10 22.70 76.64 C 40.90 76.92 59.11 76.54 77.32 76.81 C 74.83 75.88 72.31 75.05 69.79 74.21 C 73.21 71.21 76.88 68.22 78.76 63.94 C 76.05 65.06 73.42 66.38 70.81 67.72 C 71.88 66.10 72.96 64.49 74.03 62.86 C 70.26 64.85 66.54 66.93 62.69 68.75 C 68.07 63.23 73.08 57.30 76.30 50.22 C 72.77 46.65 69.23 43.09 65.35 39.91 C 61.98 42.27 58.53 44.50 55.01 46.62 C 50.73 42.32 45.58 39.03 41.34 34.68 C 38.17 31.50 34.79 28.55 31.72 25.28 C 29.18 22.60 28.12 18.98 26.53 15.73 C 20.79 16.48 17.19 21.27 14.89 26.16 Z" />
<path fill="#ffffff" opacity="1.00" d=" M 14.89 26.16 C 17.19 21.27 20.79 16.48 26.53 15.73 C 28.12 18.98 29.18 22.60 31.72 25.28 C 34.79 28.55 38.17 31.50 41.34 34.68 C 45.58 39.03 50.73 42.32 55.01 46.62 C 58.53 44.50 61.98 42.27 65.35 39.91 C 69.23 43.09 72.77 46.65 76.30 50.22 C 73.08 57.30 68.07 63.23 62.69 68.75 C 66.54 66.93 70.26 64.85 74.03 62.86 C 72.96 64.49 71.88 66.10 70.81 67.72 C 73.42 66.38 76.05 65.06 78.76 63.94 C 76.88 68.22 73.21 71.21 69.79 74.21 C 72.31 75.05 74.83 75.88 77.32 76.81 C 59.11 76.54 40.90 76.92 22.70 76.64 C 27.94 75.10 33.36 74.32 38.68 73.10 C 33.15 69.88 27.14 67.54 21.78 64.02 C 27.07 64.98 32.16 66.76 37.39 67.98 C 34.26 65.19 30.84 62.74 27.73 59.93 C 31.32 61.48 34.76 63.33 38.27 65.02 C 36.01 58.25 32.99 51.76 30.87 44.93 C 35.13 50.14 38.52 55.98 42.75 61.21 C 44.22 58.93 46.12 56.81 46.83 54.14 C 45.76 51.78 43.36 50.32 41.79 48.29 C 38.49 44.25 34.82 40.54 31.06 36.93 C 28.14 34.17 25.55 30.85 21.81 29.16 C 19.52 28.12 17.18 27.20 14.89 26.16 M 26.96 27.03 C 27.30 28.35 27.64 29.67 27.98 30.99 C 29.36 31.30 30.73 31.61 32.10 31.93 C 32.10 30.59 32.10 29.24 32.11 27.90 C 30.40 27.57 28.68 27.28 26.96 27.03 M 35.73 35.96 C 36.00 37.19 36.26 38.42 36.53 39.65 C 37.98 39.89 39.43 40.12 40.89 40.35 C 40.81 39.02 40.73 37.68 40.65 36.35 C 39.01 36.22 37.37 36.10 35.73 35.96 M 46.49 52.47 C 49.79 51.28 52.25 48.73 53.51 45.48 C 50.71 47.30 48.31 49.67 46.49 52.47 M 50.23 55.41 C 52.46 54.59 54.69 53.76 56.92 52.93 C 56.95 51.10 56.98 49.26 57.01 47.43 C 54.76 50.10 52.58 52.82 50.23 55.41 M 61.75 62.71 C 58.46 65.06 55.04 67.23 51.95 69.84 C 56.70 67.90 61.50 65.79 65.47 62.46 C 68.49 59.52 70.26 55.59 72.07 51.85 C 68.55 55.39 65.91 59.83 61.75 62.71 Z" />
<path fill="#d2520a" opacity="1.00" d=" M 26.96 27.03 C 28.68 27.28 30.40 27.57 32.11 27.90 C 32.10 29.24 32.10 30.59 32.10 31.93 C 30.73 31.61 29.36 31.30 27.98 30.99 C 27.64 29.67 27.30 28.35 26.96 27.03 Z" />
<path fill="#d04b02" opacity="1.00" d=" M 35.73 35.96 C 37.37 36.10 39.01 36.22 40.65 36.35 C 40.73 37.68 40.81 39.02 40.89 40.35 C 39.43 40.12 37.98 39.89 36.53 39.65 C 36.26 38.42 36.00 37.19 35.73 35.96 Z" />
<path fill="#cc3d14" opacity="1.00" d=" M 46.49 52.47 C 48.31 49.67 50.71 47.30 53.51 45.48 C 52.25 48.73 49.79 51.28 46.49 52.47 Z" />
<path fill="#d04b02" opacity="1.00" d=" M 50.23 55.41 C 52.58 52.82 54.76 50.10 57.01 47.43 C 56.98 49.26 56.95 51.10 56.92 52.93 C 54.69 53.76 52.46 54.59 50.23 55.41 Z" />
<path fill="#d04b02" opacity="1.00" d=" M 61.75 62.71 C 65.91 59.83 68.55 55.39 72.07 51.85 C 70.26 55.59 68.49 59.52 65.47 62.46 C 61.50 65.79 56.70 67.90 51.95 69.84 C 55.04 67.23 58.46 65.06 61.75 62.71 Z" />
</svg>
