<?xml version="1.0" encoding="UTF-8" ?>
<!DOCTYPE svg PUBLIC "-//W3C//DTD SVG 1.1//EN" "http://www.w3.org/Graphics/SVG/1.1/DTD/svg11.dtd">
<svg width="100pt" height="100pt" viewBox="0 0 100 100" version="1.1" xmlns="http://www.w3.org/2000/svg">
<path fill="#b5bfc2" opacity="1.00" d=" M 23.83 18.83 C 24.65 16.98 25.19 13.85 27.91 14.51 C 43.29 14.61 58.69 14.30 74.06 14.65 C 76.09 17.42 76.78 20.88 77.98 24.04 C 79.93 24.67 81.88 25.29 83.84 25.91 C 83.36 31.23 82.45 36.75 84.18 41.95 C 85.99 47.48 88.12 52.89 89.88 58.43 C 87.60 60.00 85.24 61.46 82.98 63.06 C 84.31 65.10 85.73 67.08 87.11 69.09 C 84.89 71.17 82.91 73.58 80.30 75.21 C 74.81 76.59 68.93 74.84 63.48 76.46 C 58.71 79.00 54.49 82.43 50.01 85.41 C 36.76 76.35 23.48 67.35 10.12 58.46 C 14.55 45.21 19.36 32.08 23.83 18.83 M 13.86 57.07 C 25.72 65.53 37.87 73.58 50.04 81.60 C 53.80 79.24 57.20 76.18 61.33 74.46 C 66.97 73.00 72.90 74.44 78.60 73.40 C 80.94 72.65 82.59 70.67 84.44 69.15 C 82.93 66.68 81.34 64.27 79.82 61.81 C 81.87 60.12 84.07 58.64 86.12 56.95 C 84.61 52.50 82.65 48.18 81.66 43.58 C 80.81 38.30 81.44 32.92 81.57 27.61 C 79.48 26.68 77.06 26.23 75.34 24.65 C 73.80 22.58 72.97 20.09 71.91 17.76 C 57.21 17.54 42.52 17.75 27.82 17.62 C 22.85 30.65 18.53 43.93 13.86 57.07 Z" />
<path fill="#e85a27" opacity="1.00" d=" M 13.86 57.07 C 18.53 43.93 22.85 30.65 27.82 17.62 C 42.52 17.75 57.21 17.54 71.91 17.76 C 72.97 20.09 73.80 22.58 75.34 24.65 C 77.06 26.23 79.48 26.68 81.57 27.61 C 81.44 32.92 80.81 38.30 81.66 43.58 C 82.65 48.18 84.61 52.50 86.12 56.95 C 84.07 58.64 81.87 60.12 79.82 61.81 C 81.34 64.27 82.93 66.68 84.44 69.15 C 82.59 70.67 80.94 72.65 78.60 73.40 C 72.90 74.44 66.97 73.00 61.33 74.46 C 57.20 76.18 53.80 79.24 50.04 81.60 C 37.87 73.58 25.72 65.53 13.86 57.07 M 36.02 21.57 C 36.33 24.20 36.79 26.81 37.17 29.42 C 46.29 31.02 55.63 31.37 64.77 29.73 C 65.67 27.10 66.54 24.46 67.42 21.83 C 57.04 19.85 46.48 21.57 36.02 21.57 M 67.69 26.01 C 69.55 28.51 72.53 30.62 72.57 34.03 C 73.34 38.69 69.81 42.69 66.27 45.16 C 59.09 47.43 51.48 45.62 44.14 45.46 C 40.30 46.45 36.92 48.81 32.98 49.58 C 35.56 47.74 38.24 46.01 40.53 43.79 C 37.34 43.58 34.64 45.45 32.15 47.16 C 27.23 50.30 24.37 55.99 23.32 61.57 C 24.54 62.80 25.90 63.89 27.25 64.98 C 30.42 61.57 33.16 57.77 36.48 54.51 C 39.77 51.04 44.91 52.40 49.14 52.26 C 45.23 52.83 40.43 52.22 37.58 55.54 C 34.37 59.16 32.32 63.66 30.99 68.28 C 35.11 64.12 38.06 59.02 41.53 54.35 C 47.37 54.65 53.17 55.74 59.02 55.67 C 63.17 55.27 67.19 53.78 70.84 51.80 C 73.43 50.38 73.06 47.02 73.53 44.52 C 74.09 45.03 74.66 45.55 75.24 46.06 C 76.70 43.59 78.78 41.15 78.62 38.11 C 78.62 35.13 78.52 32.15 78.64 29.17 C 77.86 28.81 77.08 28.45 76.29 28.08 C 76.44 31.52 76.55 34.96 76.41 38.40 C 75.54 34.96 75.13 31.43 74.73 27.91 C 72.39 27.27 70.05 26.61 67.69 26.01 M 29.00 35.08 C 30.84 36.87 32.55 39.14 35.19 39.74 C 37.60 40.29 40.10 40.31 42.56 40.46 C 38.36 37.73 35.11 33.89 33.45 29.13 C 31.99 31.12 30.48 33.09 29.00 35.08 M 38.61 31.73 C 40.24 35.36 43.26 37.96 46.53 40.08 C 45.20 40.69 43.87 41.30 42.54 41.92 C 48.35 43.90 54.53 43.94 60.58 43.61 C 60.75 39.98 60.91 36.34 61.00 32.71 C 57.80 33.26 54.58 34.51 51.30 33.86 C 47.07 33.16 42.87 32.22 38.61 31.73 M 41.72 57.12 C 44.06 59.03 46.48 60.85 48.92 62.63 C 51.32 61.14 53.72 59.67 56.10 58.16 C 51.33 57.56 46.53 57.14 41.72 57.12 M 63.21 57.72 C 57.94 57.92 53.97 62.02 49.00 63.22 C 45.85 62.99 43.51 60.48 40.93 58.92 C 39.80 62.02 39.07 65.24 38.69 68.51 C 41.62 68.77 44.56 68.91 47.49 69.23 C 44.47 69.76 41.44 70.21 38.45 70.85 C 40.52 71.42 42.62 72.15 44.80 71.99 C 46.68 71.58 48.08 70.09 49.62 69.02 C 57.96 72.74 67.22 71.26 76.05 71.24 C 78.47 71.47 80.08 69.64 81.70 68.18 C 74.48 69.27 67.20 69.77 59.90 69.35 C 64.60 68.66 69.35 68.67 74.07 68.31 C 76.33 68.29 78.10 66.74 79.85 65.50 C 77.74 63.31 76.11 60.04 72.84 59.47 C 69.64 58.86 66.47 57.93 63.21 57.72 Z" />
<path fill="#ffffff" opacity="1.00" d=" M 36.02 21.57 C 46.48 21.57 57.04 19.85 67.42 21.83 C 66.54 24.46 65.67 27.10 64.77 29.73 C 55.63 31.37 46.29 31.02 37.17 29.42 C 36.79 26.81 36.33 24.20 36.02 21.57 Z" />
<path fill="#ffffff" opacity="1.00" d=" M 67.69 26.01 C 70.05 26.61 72.39 27.27 74.73 27.91 C 75.13 31.43 75.54 34.96 76.41 38.40 C 76.55 34.96 76.44 31.52 76.29 28.08 C 77.08 28.45 77.86 28.81 78.64 29.17 C 78.52 32.15 78.62 35.13 78.62 38.11 C 78.78 41.15 76.70 43.59 75.24 46.06 C 74.66 45.55 74.09 45.03 73.53 44.52 C 73.06 47.02 73.43 50.38 70.84 51.80 C 67.19 53.78 63.17 55.27 59.02 55.67 C 53.17 55.74 47.37 54.65 41.53 54.35 C 38.06 59.02 35.11 64.12 30.99 68.28 C 32.32 63.66 34.37 59.16 37.58 55.54 C 40.43 52.22 45.23 52.83 49.14 52.26 C 44.91 52.40 39.77 51.04 36.48 54.51 C 33.16 57.77 30.42 61.57 27.25 64.98 C 25.90 63.89 24.54 62.80 23.32 61.57 C 24.37 55.99 27.23 50.30 32.15 47.16 C 34.64 45.45 37.34 43.58 40.53 43.79 C 38.24 46.01 35.56 47.74 32.98 49.58 C 36.92 48.81 40.30 46.45 44.14 45.46 C 51.48 45.62 59.09 47.43 66.27 45.16 C 69.81 42.69 73.34 38.69 72.57 34.03 C 72.53 30.62 69.55 28.51 67.69 26.01 Z" />
<path fill="#ffffff" opacity="1.00" d=" M 29.00 35.08 C 30.48 33.09 31.99 31.12 33.45 29.13 C 35.11 33.89 38.36 37.73 42.56 40.46 C 40.10 40.31 37.60 40.29 35.19 39.74 C 32.55 39.14 30.84 36.87 29.00 35.08 Z" />
<path fill="#ffffff" opacity="1.00" d=" M 38.61 31.73 C 42.87 32.22 47.07 33.16 51.30 33.86 C 54.58 34.51 57.80 33.26 61.00 32.71 C 60.91 36.34 60.75 39.98 60.58 43.61 C 54.53 43.94 48.35 43.90 42.54 41.92 C 43.87 41.30 45.20 40.69 46.53 40.08 C 43.26 37.96 40.24 35.36 38.61 31.73 Z" />
<path fill="#ffffff" opacity="1.00" d=" M 41.72 57.12 C 46.53 57.14 51.33 57.56 56.10 58.16 C 53.72 59.67 51.32 61.14 48.92 62.63 C 46.48 60.85 44.06 59.03 41.72 57.12 Z" />
<path fill="#ffffff" opacity="1.00" d=" M 63.21 57.72 C 66.47 57.93 69.64 58.86 72.84 59.47 C 76.11 60.04 77.74 63.31 79.85 65.50 C 78.10 66.74 76.33 68.29 74.07 68.31 C 69.35 68.67 64.60 68.66 59.90 69.35 C 67.20 69.77 74.48 69.27 81.70 68.18 C 80.08 69.64 78.47 71.47 76.05 71.24 C 67.22 71.26 57.96 72.74 49.62 69.02 C 48.08 70.09 46.68 71.58 44.80 71.99 C 42.62 72.15 40.52 71.42 38.45 70.85 C 41.44 70.21 44.47 69.76 47.49 69.23 C 44.56 68.91 41.62 68.77 38.69 68.51 C 39.07 65.24 39.80 62.02 40.93 58.92 C 43.51 60.48 45.85 62.99 49.00 63.22 C 53.97 62.02 57.94 57.92 63.21 57.72 Z" />
</svg>
