<?xml version="1.0" encoding="UTF-8" ?>
<!DOCTYPE svg PUBLIC "-//W3C//DTD SVG 1.1//EN" "http://www.w3.org/Graphics/SVG/1.1/DTD/svg11.dtd">
<svg width="100pt" height="100pt" viewBox="0 0 100 100" version="1.1" xmlns="http://www.w3.org/2000/svg">
<path fill="#b8b8b8" opacity="1.00" d=" M 52.06 24.28 C 55.66 15.46 61.47 7.68 69.02 1.86 C 69.99 9.33 69.98 16.92 68.13 24.26 C 72.64 24.28 77.15 24.28 81.66 24.28 C 81.60 45.31 81.54 66.34 81.69 87.36 C 68.66 87.67 55.63 87.39 42.59 87.52 C 42.07 90.26 41.52 93.00 40.83 95.70 C 37.85 96.36 34.57 98.35 31.67 96.42 C 28.04 95.02 27.06 90.90 26.35 87.49 C 23.30 87.50 20.24 87.46 17.19 87.39 C 17.35 66.35 17.26 45.31 17.24 24.27 C 28.85 24.29 40.45 24.27 52.06 24.28 M 52.78 28.23 C 42.51 28.66 32.22 28.36 21.94 28.36 C 21.45 46.67 21.70 65.00 21.81 83.31 C 25.28 83.42 28.75 83.50 32.22 83.58 C 31.01 85.83 29.75 88.06 28.48 90.29 C 29.60 91.62 30.65 93.03 31.99 94.15 C 33.92 95.60 36.73 95.21 38.63 93.89 C 40.17 90.66 40.77 87.10 41.82 83.70 C 53.84 83.54 65.86 83.65 77.87 83.69 C 78.14 65.26 78.14 46.81 77.86 28.38 C 73.52 28.43 69.18 28.41 64.83 28.28 C 67.03 21.01 68.26 13.42 67.55 5.81 C 60.43 11.59 55.97 19.79 52.78 28.23 Z" />
<path fill="#b61c2e" opacity="1.00" d=" M 52.78 28.23 C 55.97 19.79 60.43 11.59 67.55 5.81 C 68.26 13.42 67.03 21.01 64.83 28.28 C 69.18 28.41 73.52 28.43 77.86 28.38 C 78.14 46.81 78.14 65.26 77.87 83.69 C 65.86 83.65 53.84 83.54 41.82 83.70 C 40.77 87.10 40.17 90.66 38.63 93.89 C 36.73 95.21 33.92 95.60 31.99 94.15 C 30.65 93.03 29.60 91.62 28.48 90.29 C 29.75 88.06 31.01 85.83 32.22 83.58 C 28.75 83.50 25.28 83.42 21.81 83.31 C 21.70 65.00 21.45 46.67 21.94 28.36 C 32.22 28.36 42.51 28.66 52.78 28.23 M 48.40 47.40 C 46.18 53.82 39.84 58.78 40.52 66.09 C 36.84 64.76 33.26 63.15 29.49 62.12 C 32.11 65.71 36.99 66.71 39.43 70.42 C 38.51 77.65 35.05 84.40 31.60 90.75 C 33.03 91.33 34.54 93.40 36.12 92.18 C 38.48 85.92 40.00 79.25 43.50 73.47 C 44.01 72.38 44.87 71.85 46.07 71.89 C 49.85 71.96 53.53 73.05 57.33 72.96 C 53.87 70.86 50.02 69.62 46.31 68.07 C 51.10 64.53 50.81 58.20 52.16 53.00 C 56.30 39.13 64.97 26.43 65.22 11.57 C 56.10 21.56 53.57 35.30 48.40 47.40 M 27.99 31.02 C 34.92 34.35 41.81 38.00 49.27 39.97 C 42.80 35.73 35.24 33.56 27.99 31.02 M 57.53 43.23 C 61.07 46.15 65.44 47.66 69.44 49.79 C 65.38 49.57 61.37 48.53 57.31 48.74 C 56.73 49.18 55.58 50.05 55.00 50.48 C 61.92 51.54 68.93 51.90 75.84 53.02 C 75.87 52.26 75.94 50.73 75.97 49.97 C 69.92 47.51 64.01 44.46 57.53 43.23 M 24.18 51.17 C 24.15 51.81 24.09 53.09 24.06 53.73 C 28.45 54.36 32.78 55.39 37.19 55.80 C 39.12 56.12 40.64 54.68 42.21 53.84 C 40.82 53.32 39.42 52.82 38.01 52.33 C 41.11 51.86 44.48 51.18 45.83 47.94 C 38.47 47.62 31.17 48.95 24.18 51.17 M 53.78 56.24 C 53.90 57.43 54.02 58.63 54.15 59.83 C 61.51 62.26 68.82 64.88 75.91 68.05 C 75.93 67.27 75.97 65.71 76.00 64.93 C 68.98 61.11 61.39 58.57 53.78 56.24 Z" />
<path fill="#ffffff" opacity="1.00" d=" M 48.40 47.40 C 53.57 35.30 56.10 21.56 65.22 11.57 C 64.97 26.43 56.30 39.13 52.16 53.00 C 50.81 58.20 51.10 64.53 46.31 68.07 C 50.02 69.62 53.87 70.86 57.33 72.96 C 53.53 73.05 49.85 71.96 46.07 71.89 C 44.87 71.85 44.01 72.38 43.50 73.47 C 40.00 79.25 38.48 85.92 36.12 92.18 C 34.54 93.40 33.03 91.33 31.60 90.75 C 35.05 84.40 38.51 77.65 39.43 70.42 C 36.99 66.71 32.11 65.71 29.49 62.12 C 33.26 63.15 36.84 64.76 40.52 66.09 C 39.84 58.78 46.18 53.82 48.40 47.40 Z" />
<path fill="#ffffff" opacity="1.00" d=" M 27.99 31.02 C 35.24 33.56 42.80 35.73 49.27 39.97 C 41.81 38.00 34.92 34.35 27.99 31.02 Z" />
<path fill="#ffffff" opacity="1.00" d=" M 57.53 43.23 C 64.01 44.46 69.92 47.51 75.97 49.97 C 75.94 50.73 75.87 52.26 75.84 53.02 C 68.93 51.90 61.92 51.54 55.00 50.48 C 55.58 50.05 56.73 49.18 57.31 48.74 C 61.37 48.53 65.38 49.57 69.44 49.79 C 65.44 47.66 61.07 46.15 57.53 43.23 Z" />
<path fill="#ffffff" opacity="1.00" d=" M 24.18 51.17 C 31.17 48.95 38.47 47.62 45.83 47.94 C 44.48 51.18 41.11 51.86 38.01 52.33 C 39.42 52.82 40.82 53.32 42.21 53.84 C 40.64 54.68 39.12 56.12 37.19 55.80 C 32.78 55.39 28.45 54.36 24.06 53.73 C 24.09 53.09 24.15 51.81 24.18 51.17 Z" />
<path fill="#ffffff" opacity="1.00" d=" M 53.78 56.24 C 61.39 58.57 68.98 61.11 76.00 64.93 C 75.97 65.71 75.93 67.27 75.91 68.05 C 68.82 64.88 61.51 62.26 54.15 59.83 C 54.02 58.63 53.90 57.43 53.78 56.24 Z" />
</svg>
