<?xml version="1.0" encoding="UTF-8" ?>
<!DOCTYPE svg PUBLIC "-//W3C//DTD SVG 1.1//EN" "http://www.w3.org/Graphics/SVG/1.1/DTD/svg11.dtd">
<svg width="100pt" height="100pt" viewBox="0 0 100 100" version="1.1" xmlns="http://www.w3.org/2000/svg">
<path fill="#b8b8b8" opacity="1.00" d=" M 60.67 12.72 C 63.58 8.48 67.57 5.17 71.29 1.69 C 72.15 9.25 72.19 16.92 70.37 24.36 C 74.13 24.39 77.89 24.40 81.64 24.40 C 81.59 45.47 81.59 66.54 81.64 87.61 C 69.39 87.61 57.13 87.60 44.87 87.61 C 44.23 90.28 44.20 93.26 42.57 95.58 C 40.10 96.86 37.00 98.31 34.33 96.71 C 30.54 95.35 29.28 91.20 28.36 87.69 C 24.65 87.62 20.94 87.61 17.24 87.59 C 17.30 66.52 17.28 45.45 17.24 24.38 C 29.56 24.42 41.88 24.34 54.19 24.43 C 56.09 20.39 58.07 16.36 60.67 12.72 M 54.69 28.60 C 43.74 28.80 32.78 28.40 21.83 28.77 C 21.62 46.95 21.63 65.13 21.82 83.31 C 26.00 83.48 30.19 83.59 34.37 83.70 C 33.26 86.44 29.82 89.68 32.31 92.61 C 34.21 95.68 38.08 94.78 41.06 94.54 C 41.94 90.94 42.90 87.36 44.01 83.82 C 55.29 83.36 66.58 83.76 77.87 83.66 C 78.15 65.38 78.01 47.09 77.95 28.81 C 74.31 28.70 70.66 28.63 67.02 28.55 C 69.04 21.28 70.58 13.71 69.44 6.14 C 62.33 11.97 58.16 20.29 54.69 28.60 Z" />
<path fill="#b61c2e" opacity="1.00" d=" M 54.69 28.60 C 58.16 20.29 62.33 11.97 69.44 6.14 C 70.58 13.71 69.04 21.28 67.02 28.55 C 70.66 28.63 74.31 28.70 77.95 28.81 C 78.01 47.09 78.15 65.38 77.87 83.66 C 66.58 83.76 55.29 83.36 44.01 83.82 C 42.90 87.36 41.94 90.94 41.06 94.54 C 38.08 94.78 34.21 95.68 32.31 92.61 C 29.82 89.68 33.26 86.44 34.37 83.70 C 30.19 83.59 26.00 83.48 21.82 83.31 C 21.63 65.13 21.62 46.95 21.83 28.77 C 32.78 28.40 43.74 28.80 54.69 28.60 M 51.43 45.40 C 49.13 52.63 42.85 58.16 42.42 66.05 C 38.82 64.70 35.30 63.12 31.57 62.14 C 34.53 65.34 38.84 66.91 41.64 70.26 C 40.99 77.45 37.13 83.80 34.34 90.31 C 34.28 92.30 36.69 92.53 38.18 92.65 C 41.09 85.77 42.09 77.71 47.20 71.97 C 51.36 71.86 55.44 73.14 59.60 72.65 C 56.22 71.03 52.63 69.92 49.10 68.69 C 53.89 62.20 53.36 53.80 56.58 46.68 C 61.13 35.06 67.17 23.67 67.74 10.96 C 59.13 20.70 56.13 33.61 51.43 45.40 M 23.46 34.60 C 31.93 37.73 41.01 38.54 49.73 40.71 C 50.14 39.88 50.56 39.05 50.97 38.22 C 41.80 37.04 32.72 35.03 23.46 34.60 M 60.16 42.35 C 64.60 45.85 70.31 46.73 75.61 48.18 C 75.50 47.02 75.39 45.86 75.28 44.70 C 70.29 43.61 65.29 42.35 60.16 42.35 M 24.19 47.68 C 30.16 50.12 36.54 51.21 42.70 53.03 C 43.04 52.59 43.74 51.71 44.08 51.27 C 37.51 49.80 30.93 48.20 24.19 47.68 M 55.95 55.54 C 56.05 56.30 56.25 57.81 56.35 58.56 C 62.85 60.50 69.24 62.86 75.89 64.24 C 75.16 62.68 75.29 60.15 73.14 59.84 C 67.53 57.98 61.70 56.89 55.95 55.54 Z" />
<path fill="#ffffff" opacity="1.00" d=" M 51.43 45.40 C 56.13 33.61 59.13 20.70 67.74 10.96 C 67.17 23.67 61.13 35.06 56.58 46.68 C 53.36 53.80 53.89 62.20 49.10 68.69 C 52.63 69.92 56.22 71.03 59.60 72.65 C 55.44 73.14 51.36 71.86 47.20 71.97 C 42.09 77.71 41.09 85.77 38.18 92.65 C 36.69 92.53 34.28 92.30 34.34 90.31 C 37.13 83.80 40.99 77.45 41.64 70.26 C 38.84 66.91 34.53 65.34 31.57 62.14 C 35.30 63.12 38.82 64.70 42.42 66.05 C 42.85 58.16 49.13 52.63 51.43 45.40 Z" />
<path fill="#ffffff" opacity="1.00" d=" M 23.46 34.60 C 32.72 35.03 41.80 37.04 50.97 38.22 C 50.56 39.05 50.14 39.88 49.73 40.71 C 41.01 38.54 31.93 37.73 23.46 34.60 Z" />
<path fill="#ffffff" opacity="1.00" d=" M 60.16 42.35 C 65.29 42.35 70.29 43.61 75.28 44.70 C 75.39 45.86 75.50 47.02 75.61 48.18 C 70.31 46.73 64.60 45.85 60.16 42.35 Z" />
<path fill="#ffffff" opacity="1.00" d=" M 24.19 47.68 C 30.93 48.20 37.51 49.80 44.08 51.27 C 43.74 51.71 43.04 52.59 42.70 53.03 C 36.54 51.21 30.16 50.12 24.19 47.68 Z" />
<path fill="#ffffff" opacity="1.00" d=" M 55.95 55.54 C 61.70 56.89 67.53 57.98 73.14 59.84 C 75.29 60.15 75.16 62.68 75.89 64.24 C 69.24 62.86 62.85 60.50 56.35 58.56 C 56.25 57.81 56.05 56.30 55.95 55.54 Z" />
</svg>
