<?xml version="1.0" encoding="UTF-8" ?>
<!DOCTYPE svg PUBLIC "-//W3C//DTD SVG 1.1//EN" "http://www.w3.org/Graphics/SVG/1.1/DTD/svg11.dtd">
<svg width="100pt" height="100pt" viewBox="0 0 100 100" version="1.1" xmlns="http://www.w3.org/2000/svg">
<path fill="#b8b8b8" opacity="1.00" d=" M 61.69 12.73 C 64.59 8.48 68.60 5.19 72.32 1.71 C 73.17 9.22 73.24 16.83 71.47 24.22 C 74.87 24.27 78.26 24.28 81.65 24.30 C 81.60 45.33 81.54 66.37 81.68 87.40 C 69.74 87.64 57.79 87.41 45.84 87.53 C 45.24 90.21 45.34 93.28 43.60 95.55 C 41.16 96.75 38.17 98.24 35.54 96.69 C 31.61 95.43 30.32 91.15 29.40 87.59 C 25.34 87.50 21.29 87.49 17.24 87.50 C 17.30 66.42 17.28 45.34 17.24 24.27 C 29.92 24.31 42.59 24.23 55.27 24.32 C 57.16 20.32 59.12 16.34 61.69 12.73 M 55.91 28.31 C 44.59 28.65 33.26 28.36 21.94 28.39 C 21.46 46.70 21.70 65.02 21.82 83.33 C 26.51 83.49 31.20 83.57 35.90 83.70 C 34.48 85.89 33.08 88.10 31.66 90.29 C 32.92 91.74 34.13 93.29 35.69 94.45 C 37.62 95.51 40.03 95.11 41.86 94.03 C 43.40 90.81 44.04 87.25 45.01 83.83 C 55.96 83.37 66.92 83.75 77.88 83.67 C 78.21 65.37 78.02 47.06 77.98 28.75 C 74.67 28.64 71.37 28.56 68.06 28.49 C 70.14 21.25 71.65 13.69 70.46 6.15 C 63.48 11.91 59.24 20.06 55.91 28.31 Z" />
<path fill="#b61c2e" opacity="1.00" d=" M 55.91 28.31 C 59.24 20.06 63.48 11.91 70.46 6.15 C 71.65 13.69 70.14 21.25 68.06 28.49 C 71.37 28.56 74.67 28.64 77.98 28.75 C 78.02 47.06 78.21 65.37 77.88 83.67 C 66.92 83.75 55.96 83.37 45.01 83.83 C 44.04 87.25 43.40 90.81 41.86 94.03 C 40.03 95.11 37.62 95.51 35.69 94.45 C 34.13 93.29 32.92 91.74 31.66 90.29 C 33.08 88.10 34.48 85.89 35.90 83.70 C 31.20 83.57 26.51 83.49 21.82 83.33 C 21.70 65.02 21.46 46.70 21.94 28.39 C 33.26 28.36 44.59 28.65 55.91 28.31 M 49.26 52.24 C 46.48 56.30 43.61 60.74 44.03 65.89 C 40.18 64.79 36.48 63.21 32.64 62.09 C 34.91 64.35 37.63 66.04 40.23 67.89 C 41.36 68.87 43.31 69.88 42.59 71.68 C 41.08 78.44 38.31 84.94 34.72 90.87 C 36.29 91.17 38.64 93.76 39.71 91.61 C 42.17 84.96 43.45 77.47 48.18 71.94 C 52.33 71.72 56.40 72.94 60.55 72.94 C 57.13 71.10 53.60 69.51 49.95 68.23 C 55.27 62.46 54.23 54.16 57.34 47.41 C 61.76 35.70 68.20 24.35 68.62 11.55 C 58.02 22.82 56.48 39.07 49.26 52.24 M 23.72 40.19 C 29.39 42.61 35.46 43.86 41.33 45.69 C 44.11 46.60 47.05 46.83 49.96 46.49 C 41.60 43.15 32.62 41.42 23.72 40.19 M 61.32 48.87 C 60.56 49.66 59.79 50.45 59.03 51.23 C 64.66 52.89 70.21 54.79 75.82 56.51 C 75.83 55.59 75.87 53.77 75.88 52.86 C 71.11 51.25 66.26 49.87 61.32 48.87 Z" />
<path fill="#ffffff" opacity="1.00" d=" M 49.26 52.24 C 56.48 39.07 58.02 22.82 68.62 11.55 C 68.20 24.35 61.76 35.70 57.34 47.41 C 54.23 54.16 55.27 62.46 49.95 68.23 C 53.60 69.51 57.13 71.10 60.55 72.94 C 56.40 72.94 52.33 71.72 48.18 71.94 C 43.45 77.47 42.17 84.96 39.71 91.61 C 38.64 93.76 36.29 91.17 34.72 90.87 C 38.31 84.94 41.08 78.44 42.59 71.68 C 43.31 69.88 41.36 68.87 40.23 67.89 C 37.63 66.04 34.91 64.35 32.64 62.09 C 36.48 63.21 40.18 64.79 44.03 65.89 C 43.61 60.74 46.48 56.30 49.26 52.24 Z" />
<path fill="#ffffff" opacity="1.00" d=" M 23.72 40.19 C 32.62 41.42 41.60 43.15 49.96 46.49 C 47.05 46.83 44.11 46.60 41.33 45.69 C 35.46 43.86 29.39 42.61 23.72 40.19 Z" />
<path fill="#ffffff" opacity="1.00" d=" M 61.32 48.87 C 66.26 49.87 71.11 51.25 75.88 52.86 C 75.87 53.77 75.83 55.59 75.82 56.51 C 70.21 54.79 64.66 52.89 59.03 51.23 C 59.79 50.45 60.56 49.66 61.32 48.87 Z" />
</svg>
