<?xml version="1.0" encoding="UTF-8" ?>
<!DOCTYPE svg PUBLIC "-//W3C//DTD SVG 1.1//EN" "http://www.w3.org/Graphics/SVG/1.1/DTD/svg11.dtd">
<svg width="100pt" height="100pt" viewBox="0 0 100 100" version="1.1" xmlns="http://www.w3.org/2000/svg">
<path fill="#c8bfbf" opacity="1.00" d=" M 39.88 15.64 C 46.42 13.75 53.56 13.77 60.09 15.70 C 63.34 16.60 64.37 20.29 66.72 22.35 C 69.87 23.47 73.55 23.47 76.21 25.73 C 78.87 28.24 79.04 32.18 80.88 35.17 C 83.48 37.78 86.82 39.49 89.86 41.53 C 85.73 54.04 81.13 66.39 76.96 78.89 C 76.16 81.10 75.52 83.46 74.06 85.35 C 58.04 85.58 41.98 85.59 25.96 85.35 C 24.46 83.48 23.85 81.10 23.04 78.89 C 18.88 66.39 14.27 54.05 10.14 41.53 C 13.16 39.49 16.55 37.82 19.04 35.11 C 20.69 32.01 20.97 28.13 23.63 25.61 C 26.36 23.44 30.04 23.49 33.17 22.22 C 35.46 20.10 36.55 16.44 39.88 15.64 M 32.39 24.71 C 29.78 25.65 26.78 25.79 24.52 27.53 C 22.26 30.49 22.33 34.53 20.47 37.69 C 18.64 39.84 16.20 41.34 13.97 43.03 C 18.50 56.17 22.79 69.41 27.87 82.35 C 42.62 82.45 57.38 82.45 72.13 82.35 C 77.21 69.41 81.50 56.17 86.04 43.03 C 83.79 41.34 81.35 39.82 79.48 37.69 C 77.52 34.60 77.48 30.65 75.35 27.65 C 73.23 25.75 70.16 25.69 67.57 24.77 C 63.25 23.75 62.34 17.84 57.83 17.18 C 52.68 16.18 47.31 16.18 42.16 17.16 C 37.65 17.80 36.55 23.46 32.39 24.71 Z" />
<path fill="#217a7a" opacity="1.00" d=" M 32.39 24.71 C 36.55 23.46 37.65 17.80 42.16 17.16 C 47.31 16.18 52.68 16.18 57.83 17.18 C 62.34 17.84 63.25 23.75 67.57 24.77 C 70.16 25.69 73.23 25.75 75.35 27.65 C 77.48 30.65 77.52 34.60 79.48 37.69 C 81.35 39.82 83.79 41.34 86.04 43.03 C 81.50 56.17 77.21 69.41 72.13 82.35 C 57.38 82.45 42.62 82.45 27.87 82.35 C 22.79 69.41 18.50 56.17 13.97 43.03 C 16.20 41.34 18.64 39.84 20.47 37.69 C 22.33 34.53 22.26 30.49 24.52 27.53 C 26.78 25.79 29.78 25.65 32.39 24.71 M 43.50 19.52 C 39.78 19.89 38.73 24.12 35.98 26.03 C 33.06 27.91 29.34 27.74 26.33 29.42 C 23.29 33.48 23.92 39.19 25.17 43.81 C 26.33 48.20 30.57 50.56 32.75 54.30 C 34.25 60.01 33.61 66.04 34.00 71.89 C 40.49 74.92 47.75 78.02 55.02 76.08 C 58.61 75.14 62.85 74.44 65.18 71.24 C 67.33 65.76 65.51 59.62 67.10 54.05 C 69.43 50.43 73.56 47.99 74.65 43.59 C 75.85 39.05 76.42 33.51 73.55 29.48 C 70.74 27.85 67.29 27.92 64.42 26.43 C 61.71 24.87 60.60 21.55 57.94 19.99 C 53.28 18.63 48.26 18.81 43.50 19.52 Z" />
<path fill="#ffffff" opacity="1.00" d=" M 43.50 19.52 C 48.26 18.81 53.28 18.63 57.94 19.99 C 60.60 21.55 61.71 24.87 64.42 26.43 C 67.29 27.92 70.74 27.85 73.55 29.48 C 76.42 33.51 75.85 39.05 74.65 43.59 C 73.56 47.99 69.43 50.43 67.10 54.05 C 65.51 59.62 67.33 65.76 65.18 71.24 C 62.85 74.44 58.61 75.14 55.02 76.08 C 47.75 78.02 40.49 74.92 34.00 71.89 C 33.61 66.04 34.25 60.01 32.75 54.30 C 30.57 50.56 26.33 48.20 25.17 43.81 C 23.92 39.19 23.29 33.48 26.33 29.42 C 29.34 27.74 33.06 27.91 35.98 26.03 C 38.73 24.12 39.78 19.89 43.50 19.52 M 43.37 24.04 C 45.09 25.95 47.31 27.81 49.99 27.96 C 52.55 27.55 54.53 25.67 56.66 24.33 C 56.21 23.68 55.30 22.37 54.85 21.71 C 51.92 21.70 48.97 21.53 46.05 21.89 C 44.59 21.89 43.70 22.61 43.37 24.04 M 27.78 41.00 C 32.32 39.27 30.61 33.98 29.88 30.43 C 27.84 33.58 27.22 37.31 27.78 41.00 M 71.02 41.72 C 72.76 38.05 72.10 34.08 70.51 30.49 C 68.34 34.06 68.12 38.46 71.02 41.72 M 46.47 34.31 C 43.90 40.50 41.24 46.65 38.86 52.92 C 43.38 52.97 47.91 53.03 52.43 53.11 C 51.02 57.91 49.34 62.63 48.05 67.46 C 53.29 60.67 57.78 53.34 62.37 46.10 C 58.14 45.93 53.91 45.84 49.68 45.74 C 51.43 41.84 53.26 37.97 55.02 34.08 C 52.17 34.15 49.32 34.21 46.47 34.31 Z" />
<path fill="#1b7676" opacity="1.00" d=" M 43.37 24.04 C 43.70 22.61 44.59 21.89 46.05 21.89 C 48.97 21.53 51.92 21.70 54.85 21.71 C 55.30 22.37 56.21 23.68 56.66 24.33 C 54.53 25.67 52.55 27.55 49.99 27.96 C 47.31 27.81 45.09 25.95 43.37 24.04 Z" />
<path fill="#0e6f6f" opacity="1.00" d=" M 27.78 41.00 C 27.22 37.31 27.84 33.58 29.88 30.43 C 30.61 33.98 32.32 39.27 27.78 41.00 Z" />
<path fill="#106f6f" opacity="1.00" d=" M 71.02 41.72 C 68.12 38.46 68.34 34.06 70.51 30.49 C 72.10 34.08 72.76 38.05 71.02 41.72 Z" />
<path fill="#217a7a" opacity="1.00" d=" M 46.47 34.31 C 49.32 34.21 52.17 34.15 55.02 34.08 C 53.26 37.97 51.43 41.84 49.68 45.74 C 53.91 45.84 58.14 45.93 62.37 46.10 C 57.78 53.34 53.29 60.67 48.05 67.46 C 49.34 62.63 51.02 57.91 52.43 53.11 C 47.91 53.03 43.38 52.97 38.86 52.92 C 41.24 46.65 43.90 40.50 46.47 34.31 Z" />
</svg>
