<?xml version="1.0" encoding="UTF-8" ?>
<!DOCTYPE svg PUBLIC "-//W3C//DTD SVG 1.1//EN" "http://www.w3.org/Graphics/SVG/1.1/DTD/svg11.dtd">
<svg width="100pt" height="100pt" viewBox="0 0 100 100" version="1.1" xmlns="http://www.w3.org/2000/svg">
<path fill="#c4bdbd" opacity="1.00" d=" M 39.67 21.71 C 43.08 19.33 46.52 16.99 50.00 14.70 C 56.58 18.56 62.21 24.43 69.86 26.17 C 73.99 27.24 78.13 28.31 82.21 29.57 C 83.15 32.76 82.84 36.96 85.99 38.97 C 87.21 39.92 88.50 40.77 89.77 41.64 C 85.51 54.87 80.59 67.87 76.21 81.06 C 75.40 82.96 74.82 86.11 72.06 85.49 C 56.71 85.39 41.33 85.70 25.98 85.34 C 24.41 83.52 23.87 81.09 23.04 78.89 C 18.92 66.42 14.22 54.15 10.23 41.64 C 12.16 40.21 14.43 39.06 15.89 37.09 C 16.89 34.72 17.23 32.13 17.80 29.63 C 25.09 27.00 33.34 26.55 39.67 21.71 M 34.92 26.95 C 29.78 28.33 24.56 29.43 19.60 31.38 C 18.94 35.97 16.62 39.95 14.61 44.02 C 15.33 48.85 17.66 53.25 19.08 57.89 C 22.12 66.00 24.43 74.37 27.91 82.31 C 42.64 82.45 57.37 82.45 72.09 82.31 C 76.56 71.65 79.71 60.48 83.87 49.69 C 84.47 47.35 86.28 44.65 84.65 42.35 C 82.55 38.98 81.15 35.24 80.39 31.34 C 75.42 29.31 70.14 28.31 64.97 26.95 C 59.28 25.54 54.95 21.36 50.00 18.48 C 45.05 21.42 40.63 25.52 34.92 26.95 Z" />
<path fill="#217a7a" opacity="1.00" d=" M 34.92 26.95 C 40.63 25.52 45.05 21.42 50.00 18.48 C 54.95 21.36 59.28 25.54 64.97 26.95 C 70.14 28.31 75.42 29.31 80.39 31.34 C 81.15 35.24 82.55 38.98 84.65 42.35 C 86.28 44.65 84.47 47.35 83.87 49.69 C 79.71 60.48 76.56 71.65 72.09 82.31 C 57.37 82.45 42.64 82.45 27.91 82.31 C 24.43 74.37 22.12 66.00 19.08 57.89 C 17.66 53.25 15.33 48.85 14.61 44.02 C 16.62 39.95 18.94 35.97 19.60 31.38 C 24.56 29.43 29.78 28.33 34.92 26.95 M 45.38 27.65 C 41.81 28.38 40.57 32.81 37.03 33.72 C 34.79 34.78 31.32 34.64 30.37 37.36 C 29.01 41.69 29.55 46.87 32.50 50.44 C 33.81 52.13 35.42 53.61 36.49 55.48 C 37.51 59.33 36.03 63.34 36.74 67.23 C 39.81 71.68 45.86 72.94 50.94 73.08 C 55.38 72.36 60.74 71.47 63.49 67.54 C 64.07 63.57 62.80 59.51 63.67 55.56 C 65.46 52.42 68.80 50.28 69.84 46.68 C 70.71 43.66 70.83 40.33 69.83 37.32 C 68.96 34.57 65.50 34.75 63.31 33.69 C 60.12 32.91 58.76 29.52 56.05 27.99 C 52.61 26.99 48.90 27.12 45.38 27.65 M 21.52 33.40 C 20.86 36.54 19.93 39.67 19.86 42.90 C 20.23 45.00 21.57 46.74 22.58 48.57 C 22.63 44.42 22.18 40.00 24.09 36.16 C 25.64 33.96 27.99 32.53 29.98 30.77 C 27.13 31.55 24.32 32.44 21.52 33.40 M 69.99 30.77 C 71.98 32.53 74.36 33.95 75.91 36.15 C 77.82 39.99 77.38 44.41 77.43 48.56 C 78.43 46.74 79.72 44.98 80.13 42.90 C 80.08 39.65 79.17 36.49 78.56 33.31 C 75.73 32.38 72.87 31.52 69.99 30.77 M 28.73 55.30 C 31.42 58.45 32.50 62.50 33.93 66.30 C 33.91 64.18 33.91 62.06 33.70 59.96 C 33.42 55.00 28.69 51.87 27.76 47.10 C 26.28 42.50 28.06 37.83 29.30 33.42 C 22.95 38.93 23.53 49.22 28.73 55.30 M 70.73 33.41 C 71.79 37.58 73.37 41.91 72.37 46.26 C 71.84 49.57 69.83 52.30 68.04 55.03 C 65.66 58.27 66.24 62.51 66.07 66.28 C 67.49 62.49 68.60 58.46 71.28 55.30 C 76.43 49.19 77.04 38.97 70.73 33.41 Z" />
<path fill="#ffffff" opacity="1.00" d=" M 45.38 27.65 C 48.90 27.12 52.61 26.99 56.05 27.99 C 58.76 29.52 60.12 32.91 63.31 33.69 C 65.50 34.75 68.96 34.57 69.83 37.32 C 70.83 40.33 70.71 43.66 69.84 46.68 C 68.80 50.28 65.46 52.42 63.67 55.56 C 62.80 59.51 64.07 63.57 63.49 67.54 C 60.74 71.47 55.38 72.36 50.94 73.08 C 45.86 72.94 39.81 71.68 36.74 67.23 C 36.03 63.34 37.51 59.33 36.49 55.48 C 35.42 53.61 33.81 52.13 32.50 50.44 C 29.55 46.87 29.01 41.69 30.37 37.36 C 31.32 34.64 34.79 34.78 37.03 33.72 C 40.57 32.81 41.81 28.38 45.38 27.65 M 44.59 30.09 C 45.91 32.09 47.53 34.34 50.14 34.51 C 52.76 34.38 54.48 32.18 55.47 29.98 C 51.86 29.53 48.20 29.55 44.59 30.09 M 66.26 36.55 C 66.04 39.01 65.91 41.47 65.82 43.94 C 66.45 43.89 67.71 43.81 68.34 43.77 C 67.79 41.32 67.14 38.90 66.26 36.55 M 33.32 39.00 C 32.29 39.94 32.07 42.02 33.15 42.99 C 34.78 42.90 34.99 39.09 33.32 39.00 M 37.32 47.68 C 39.75 50.66 42.06 53.72 44.20 56.91 C 43.68 55.11 43.28 53.26 42.47 51.56 C 41.04 49.94 39.09 48.89 37.32 47.68 M 55.91 57.01 C 58.10 53.86 60.40 50.78 62.69 47.70 C 58.95 49.55 56.53 52.88 55.91 57.01 Z" />
<path fill="#1e7878" opacity="1.00" d=" M 44.59 30.09 C 48.20 29.55 51.86 29.53 55.47 29.98 C 54.48 32.18 52.76 34.38 50.14 34.51 C 47.53 34.34 45.91 32.09 44.59 30.09 Z" />
<path fill="#ffffff" opacity="1.00" d=" M 21.52 33.40 C 24.32 32.44 27.13 31.55 29.98 30.77 C 27.99 32.53 25.64 33.96 24.09 36.16 C 22.18 40.00 22.63 44.42 22.58 48.57 C 21.57 46.74 20.23 45.00 19.86 42.90 C 19.93 39.67 20.86 36.54 21.52 33.40 Z" />
<path fill="#ffffff" opacity="1.00" d=" M 69.99 30.77 C 72.87 31.52 75.73 32.38 78.56 33.31 C 79.17 36.49 80.08 39.65 80.13 42.90 C 79.72 44.98 78.43 46.74 77.43 48.56 C 77.38 44.41 77.82 39.99 75.91 36.15 C 74.36 33.95 71.98 32.53 69.99 30.77 Z" />
<path fill="#ffffff" opacity="1.00" d=" M 28.73 55.30 C 23.53 49.22 22.95 38.93 29.30 33.42 C 28.06 37.83 26.28 42.50 27.76 47.10 C 28.69 51.87 33.42 55.00 33.70 59.96 C 33.91 62.06 33.91 64.18 33.93 66.30 C 32.50 62.50 31.42 58.45 28.73 55.30 Z" />
<path fill="#ffffff" opacity="1.00" d=" M 70.73 33.41 C 77.04 38.97 76.43 49.19 71.28 55.30 C 68.60 58.46 67.49 62.49 66.07 66.28 C 66.24 62.51 65.66 58.27 68.04 55.03 C 69.83 52.30 71.84 49.57 72.37 46.26 C 73.37 41.91 71.79 37.58 70.73 33.41 Z" />
<path fill="#1e7878" opacity="1.00" d=" M 66.26 36.55 C 67.14 38.90 67.79 41.32 68.34 43.77 C 67.71 43.81 66.45 43.89 65.82 43.94 C 65.91 41.47 66.04 39.01 66.26 36.55 Z" />
<path fill="#035d5d" opacity="1.00" d=" M 33.32 39.00 C 34.99 39.09 34.78 42.90 33.15 42.99 C 32.07 42.02 32.29 39.94 33.32 39.00 Z" />
<path fill="#1e7878" opacity="1.00" d=" M 37.32 47.68 C 39.09 48.89 41.04 49.94 42.47 51.56 C 43.28 53.26 43.68 55.11 44.20 56.91 C 42.06 53.72 39.75 50.66 37.32 47.68 Z" />
<path fill="#1e7878" opacity="1.00" d=" M 55.91 57.01 C 56.53 52.88 58.95 49.55 62.69 47.70 C 60.40 50.78 58.10 53.86 55.91 57.01 Z" />
</svg>
