<?xml version="1.0" encoding="UTF-8" ?>
<!DOCTYPE svg PUBLIC "-//W3C//DTD SVG 1.1//EN" "http://www.w3.org/Graphics/SVG/1.1/DTD/svg11.dtd">
<svg width="100pt" height="100pt" viewBox="0 0 100 100" version="1.1" xmlns="http://www.w3.org/2000/svg">
<path fill="#ffffff" opacity="1.00" d=" M 42.46 12.61 C 60.89 8.25 81.24 20.57 86.41 38.73 C 91.91 54.41 84.75 73.01 70.91 81.88 C 61.53 87.92 49.45 90.23 38.77 86.42 C 20.07 81.14 7.61 59.75 12.96 40.95 C 16.23 26.82 28.24 15.36 42.46 12.61 M 19.45 33.57 C 13.57 44.08 14.12 57.44 20.09 67.80 C 22.68 63.34 24.63 58.56 27.11 54.05 C 29.38 49.92 33.92 47.82 38.19 46.36 C 36.69 48.07 35.11 49.69 33.59 51.37 C 36.55 50.23 39.35 48.03 42.68 48.33 C 47.88 48.57 53.18 49.35 58.32 48.21 C 60.90 46.93 62.91 44.40 63.94 41.74 C 64.87 38.02 62.27 35.06 60.00 32.51 C 62.00 33.03 63.99 33.56 65.98 34.08 C 66.24 36.79 66.51 39.50 66.82 42.21 C 67.02 39.45 67.42 36.72 67.78 33.99 C 69.00 38.02 69.91 42.77 67.51 46.56 C 65.51 49.75 63.52 53.49 59.69 54.73 C 53.17 58.00 45.86 55.69 38.99 55.44 C 34.12 61.68 30.36 68.65 26.40 75.47 C 35.28 83.77 48.55 86.87 60.17 83.21 C 74.74 78.95 85.38 64.22 84.69 49.03 C 84.54 32.52 71.01 17.44 54.60 15.59 C 40.61 13.50 25.99 21.07 19.45 33.57 M 33.43 57.40 C 30.16 62.83 25.33 67.62 23.96 73.98 C 28.67 69.05 31.10 62.54 35.21 57.18 C 37.21 54.34 40.91 53.90 43.95 52.81 C 40.13 53.33 35.52 53.57 33.43 57.40 Z" />
<path fill="#482b46" opacity="1.00" d=" M 19.45 33.57 C 25.99 21.07 40.61 13.50 54.60 15.59 C 71.01 17.44 84.54 32.52 84.69 49.03 C 85.38 64.22 74.74 78.95 60.17 83.21 C 48.55 86.87 35.28 83.77 26.40 75.47 C 30.36 68.65 34.12 61.68 38.99 55.44 C 45.86 55.69 53.17 58.00 59.69 54.73 C 63.52 53.49 65.51 49.75 67.51 46.56 C 69.91 42.77 69.00 38.02 67.78 33.99 C 67.42 36.72 67.02 39.45 66.82 42.21 C 66.51 39.50 66.24 36.79 65.98 34.08 C 63.99 33.56 62.00 33.03 60.00 32.51 C 62.27 35.06 64.87 38.02 63.94 41.74 C 62.91 44.40 60.90 46.93 58.32 48.21 C 53.18 49.35 47.88 48.57 42.68 48.33 C 39.35 48.03 36.55 50.23 33.59 51.37 C 35.11 49.69 36.69 48.07 38.19 46.36 C 33.92 47.82 29.38 49.92 27.11 54.05 C 24.63 58.56 22.68 63.34 20.09 67.80 C 14.12 57.44 13.57 44.08 19.45 33.57 M 34.18 29.10 C 34.66 31.18 35.12 33.25 35.58 35.33 C 42.89 36.60 50.35 36.91 57.67 35.59 C 58.44 33.40 59.23 31.21 60.00 29.02 C 51.43 27.95 42.77 28.59 34.18 29.10 M 28.77 39.71 C 30.05 40.86 31.16 42.27 32.75 43.00 C 39.67 45.62 46.99 47.55 54.46 46.73 C 54.54 43.87 54.65 41.01 54.74 38.15 C 48.66 39.54 42.55 38.09 36.52 37.18 C 38.37 39.80 40.51 42.19 42.48 44.72 C 40.21 43.66 37.83 42.70 35.92 41.03 C 34.35 39.35 33.50 37.16 32.41 35.16 C 31.20 36.69 29.99 38.20 28.77 39.71 M 39.24 57.54 C 40.99 59.10 42.78 60.72 44.94 61.70 C 46.96 60.90 48.80 59.71 50.60 58.52 C 46.83 58.01 43.04 57.61 39.24 57.54 M 44.87 62.46 C 42.38 62.35 40.49 60.32 38.36 59.25 C 37.68 61.71 37.00 64.17 36.47 66.67 C 38.58 66.90 40.71 67.08 42.82 67.32 C 40.74 68.09 38.57 68.57 36.48 69.32 C 39.72 69.84 43.01 69.45 45.70 67.47 C 52.22 69.89 59.27 69.34 66.07 69.03 C 68.24 69.10 69.99 67.79 71.66 66.61 C 67.05 66.74 62.48 67.46 57.87 67.58 C 61.18 67.01 64.52 66.63 67.87 66.33 C 68.34 65.72 69.29 64.50 69.76 63.89 C 68.34 62.49 67.02 60.93 65.34 59.84 C 62.61 58.96 59.75 58.49 56.91 58.23 C 52.47 58.13 49.05 61.57 44.87 62.46 Z" />
<path fill="#ffffff" opacity="1.00" d=" M 34.18 29.10 C 42.77 28.59 51.43 27.95 60.00 29.02 C 59.23 31.21 58.44 33.40 57.67 35.59 C 50.35 36.91 42.89 36.60 35.58 35.33 C 35.12 33.25 34.66 31.18 34.18 29.10 Z" />
<path fill="#ffffff" opacity="1.00" d=" M 28.77 39.71 C 29.99 38.20 31.20 36.69 32.41 35.16 C 33.50 37.16 34.35 39.35 35.92 41.03 C 37.83 42.70 40.21 43.66 42.48 44.72 C 40.51 42.19 38.37 39.80 36.52 37.18 C 42.55 38.09 48.66 39.54 54.74 38.15 C 54.65 41.01 54.54 43.87 54.46 46.73 C 46.99 47.55 39.67 45.62 32.75 43.00 C 31.16 42.27 30.05 40.86 28.77 39.71 Z" />
<path fill="#482b46" opacity="1.00" d=" M 33.43 57.40 C 35.52 53.57 40.13 53.33 43.95 52.81 C 40.91 53.90 37.21 54.34 35.21 57.18 C 31.10 62.54 28.67 69.05 23.96 73.98 C 25.33 67.62 30.16 62.83 33.43 57.40 Z" />
<path fill="#ffffff" opacity="1.00" d=" M 39.24 57.54 C 43.04 57.61 46.83 58.01 50.60 58.52 C 48.80 59.71 46.96 60.90 44.94 61.70 C 42.78 60.72 40.99 59.10 39.24 57.54 Z" />
<path fill="#ffffff" opacity="1.00" d=" M 44.87 62.46 C 49.05 61.57 52.47 58.13 56.91 58.23 C 59.75 58.49 62.61 58.96 65.34 59.84 C 67.02 60.93 68.34 62.49 69.76 63.89 C 69.29 64.50 68.34 65.72 67.87 66.33 C 64.52 66.63 61.18 67.01 57.87 67.58 C 62.48 67.46 67.05 66.74 71.66 66.61 C 69.99 67.79 68.24 69.10 66.07 69.03 C 59.27 69.34 52.22 69.89 45.70 67.47 C 43.01 69.45 39.72 69.84 36.48 69.32 C 38.57 68.57 40.74 68.09 42.82 67.32 C 40.71 67.08 38.58 66.90 36.47 66.67 C 37.00 64.17 37.68 61.71 38.36 59.25 C 40.49 60.32 42.38 62.35 44.87 62.46 Z" />
</svg>
