<?xml version="1.0" encoding="UTF-8" ?>
<!DOCTYPE svg PUBLIC "-//W3C//DTD SVG 1.1//EN" "http://www.w3.org/Graphics/SVG/1.1/DTD/svg11.dtd">
<svg width="100pt" height="100pt" viewBox="0 0 100 100" version="1.1" xmlns="http://www.w3.org/2000/svg">
<path fill="#b9bbba" opacity="1.00" d=" M 43.77 11.74 C 46.26 8.89 49.63 6.87 53.52 7.00 C 55.95 11.35 59.17 15.20 62.95 18.45 C 62.02 18.69 61.09 18.93 60.17 19.17 C 57.20 15.77 54.32 12.30 51.59 8.71 C 46.96 10.63 44.10 14.84 40.33 17.88 C 36.89 19.86 33.53 22.11 29.82 23.51 C 24.64 24.30 19.37 23.69 14.15 23.89 C 16.17 26.87 18.16 29.87 20.11 32.89 C 18.82 34.54 17.52 36.19 16.24 37.85 C 17.38 41.25 18.09 44.78 19.25 48.17 C 20.70 51.77 22.89 55.02 24.33 58.63 C 25.38 60.80 26.06 63.32 27.91 64.97 C 30.45 66.08 33.23 66.45 35.86 67.30 C 41.40 68.92 45.88 72.72 50.25 76.31 C 54.02 72.97 57.91 69.50 62.73 67.76 C 65.79 66.61 69.10 66.27 72.12 64.99 C 74.00 63.36 74.65 60.80 75.72 58.64 C 77.14 55.05 79.36 51.84 80.81 48.28 C 81.98 44.86 82.63 41.30 83.75 37.87 C 82.54 36.20 81.33 34.54 80.11 32.88 C 82.01 29.87 83.93 26.88 85.88 23.90 C 80.97 23.78 76.03 24.14 71.14 23.62 C 68.11 23.27 66.07 20.72 63.97 18.79 C 72.89 22.11 82.45 20.16 91.70 20.90 C 89.41 25.37 86.11 29.21 83.68 33.59 C 82.65 35.36 84.98 36.72 85.68 38.18 C 84.87 39.84 84.04 41.49 83.22 43.14 C 83.71 44.68 84.36 46.19 84.55 47.80 C 83.98 51.87 79.18 53.14 77.85 56.81 C 76.37 60.52 74.97 64.28 72.73 67.62 C 67.56 67.22 62.11 68.70 58.28 72.30 C 55.12 75.98 52.91 80.37 50.00 84.25 C 45.92 79.26 43.82 72.10 37.45 69.45 C 34.33 67.83 30.78 67.43 27.31 67.61 C 25.09 64.26 23.65 60.53 22.19 56.82 C 21.21 53.96 18.23 52.67 16.57 50.31 C 15.43 48.87 15.85 46.96 15.79 45.27 C 15.95 42.55 14.01 40.35 12.94 38.00 C 14.08 36.56 15.25 35.13 16.42 33.72 C 13.81 29.39 10.83 25.30 8.34 20.89 C 14.58 20.58 20.82 20.78 27.05 20.80 C 28.99 20.75 31.11 20.90 32.76 19.68 C 36.55 17.20 40.79 15.27 43.77 11.74 Z" />
<path fill="#941271" opacity="1.00" d=" M 40.33 17.88 C 44.10 14.84 46.96 10.63 51.59 8.71 C 54.32 12.30 57.20 15.77 60.17 19.17 C 61.09 18.93 62.02 18.69 62.95 18.45 L 63.48 18.31 L 63.97 18.79 C 66.07 20.72 68.11 23.27 71.14 23.62 C 76.03 24.14 80.97 23.78 85.88 23.90 C 83.93 26.88 82.01 29.87 80.11 32.88 C 81.33 34.54 82.54 36.20 83.75 37.87 C 82.63 41.30 81.98 44.86 80.81 48.28 C 79.36 51.84 77.14 55.05 75.72 58.64 C 74.65 60.80 74.00 63.36 72.12 64.99 C 69.10 66.27 65.79 66.61 62.73 67.76 C 57.91 69.50 54.02 72.97 50.25 76.31 C 45.88 72.72 41.40 68.92 35.86 67.30 C 33.23 66.45 30.45 66.08 27.91 64.97 C 26.06 63.32 25.38 60.80 24.33 58.63 C 22.89 55.02 20.70 51.77 19.25 48.17 C 18.09 44.78 17.38 41.25 16.24 37.85 C 17.52 36.19 18.82 34.54 20.11 32.89 C 18.16 29.87 16.17 26.87 14.15 23.89 C 19.37 23.69 24.64 24.30 29.82 23.51 C 33.53 22.11 36.89 19.86 40.33 17.88 M 39.87 22.79 C 38.88 23.86 37.58 22.73 36.47 22.50 C 30.27 27.44 24.49 32.89 18.59 38.18 C 19.66 39.97 20.77 41.73 21.95 43.44 C 22.60 41.04 22.49 38.26 24.18 36.26 C 26.68 33.05 29.42 30.00 32.71 27.60 C 29.42 35.00 25.15 41.89 20.06 48.18 C 21.49 47.14 22.88 46.04 24.25 44.91 C 23.86 47.22 22.97 49.69 24.11 51.93 C 25.57 55.39 26.84 58.99 28.92 62.14 C 32.01 64.02 35.83 64.24 39.07 65.89 C 43.00 67.47 45.94 70.78 49.83 72.42 C 53.96 70.50 57.40 67.34 61.64 65.62 C 64.70 64.21 68.14 63.82 71.13 62.25 C 73.25 59.09 74.45 55.42 75.93 51.94 C 77.08 49.70 76.20 47.23 75.80 44.92 C 77.16 46.03 78.54 47.13 79.97 48.16 C 75.06 41.94 70.55 35.34 67.76 27.86 C 70.84 30.25 73.45 33.16 75.85 36.22 C 77.59 38.22 77.44 41.04 78.06 43.47 C 79.25 41.74 80.39 39.98 81.48 38.19 C 75.67 32.83 69.66 27.68 63.79 22.38 C 62.86 22.78 61.93 23.19 61.01 23.59 C 56.61 20.20 54.11 15.09 50.03 11.38 C 46.14 14.75 43.96 19.67 39.87 22.79 Z" />
<path fill="#ffffff" opacity="1.00" d=" M 39.87 22.79 C 43.96 19.67 46.14 14.75 50.03 11.38 C 54.11 15.09 56.61 20.20 61.01 23.59 C 61.93 23.19 62.86 22.78 63.79 22.38 C 69.66 27.68 75.67 32.83 81.48 38.19 C 80.39 39.98 79.25 41.74 78.06 43.47 C 77.44 41.04 77.59 38.22 75.85 36.22 C 73.45 33.16 70.84 30.25 67.76 27.86 C 70.55 35.34 75.06 41.94 79.97 48.16 C 78.54 47.13 77.16 46.03 75.80 44.92 C 76.20 47.23 77.08 49.70 75.93 51.94 C 74.45 55.42 73.25 59.09 71.13 62.25 C 68.14 63.82 64.70 64.21 61.64 65.62 C 57.40 67.34 53.96 70.50 49.83 72.42 C 45.94 70.78 43.00 67.47 39.07 65.89 C 35.83 64.24 32.01 64.02 28.92 62.14 C 26.84 58.99 25.57 55.39 24.11 51.93 C 22.97 49.69 23.86 47.22 24.25 44.91 C 22.88 46.04 21.49 47.14 20.06 48.18 C 25.15 41.89 29.42 35.00 32.71 27.60 C 29.42 30.00 26.68 33.05 24.18 36.26 C 22.49 38.26 22.60 41.04 21.95 43.44 C 20.77 41.73 19.66 39.97 18.59 38.18 C 24.49 32.89 30.27 27.44 36.47 22.50 C 37.58 22.73 38.88 23.86 39.87 22.79 M 39.34 26.77 C 41.67 30.39 45.64 33.22 50.00 33.57 C 54.82 33.30 58.72 29.85 61.28 26.00 C 59.76 24.65 58.36 22.68 56.11 22.67 C 53.92 23.57 52.00 24.99 50.01 26.24 C 48.01 24.97 46.10 23.53 43.89 22.65 C 41.71 22.81 39.37 24.40 39.34 26.77 M 34.43 32.42 C 30.56 34.28 28.45 38.35 26.74 42.09 C 27.22 42.21 28.19 42.46 28.67 42.58 C 27.97 45.65 27.30 48.76 27.24 51.93 C 27.14 55.12 29.22 57.76 31.03 60.18 C 31.07 58.47 31.04 56.76 31.13 55.05 C 31.04 52.25 33.19 50.15 34.56 47.92 C 33.27 51.56 34.11 55.21 36.20 58.36 C 37.77 58.48 39.35 58.63 40.92 58.80 C 39.81 59.92 38.70 61.04 37.60 62.16 C 38.45 63.14 39.29 64.12 40.12 65.10 C 40.74 61.91 42.77 59.37 44.86 56.99 C 46.41 58.91 48.10 60.75 50.15 62.13 C 51.00 59.66 51.86 57.19 52.87 54.78 C 54.75 57.00 56.85 59.06 58.45 61.50 C 58.60 62.96 58.41 64.42 58.33 65.89 C 59.52 65.12 60.71 64.37 61.90 63.62 C 60.45 61.30 58.76 59.14 56.94 57.10 C 58.91 55.34 61.59 53.74 61.88 50.84 C 62.71 47.53 58.29 46.94 56.32 45.38 C 56.59 44.61 56.86 43.85 57.13 43.09 C 57.70 43.70 58.83 44.92 59.40 45.53 C 59.67 44.89 60.22 43.62 60.49 42.98 C 58.64 42.08 56.78 41.18 54.95 40.25 C 56.22 40.07 57.50 39.92 58.78 39.80 C 63.36 39.01 65.91 44.01 68.31 47.05 C 66.14 45.72 64.07 44.25 62.01 42.76 C 63.63 48.22 62.72 53.83 61.22 59.18 C 66.10 58.56 66.25 52.71 66.45 48.90 C 69.19 52.07 69.76 56.12 69.22 60.16 C 70.64 57.86 72.47 55.59 72.79 52.82 C 72.90 49.31 72.16 45.85 71.34 42.46 C 71.83 42.39 72.82 42.23 73.32 42.15 C 71.61 38.38 69.53 34.23 65.60 32.40 C 62.06 31.47 59.17 34.44 56.37 36.11 C 56.54 35.50 56.88 34.29 57.05 33.69 C 54.73 34.57 52.47 35.76 50.00 36.17 C 47.54 35.73 45.29 34.54 42.97 33.65 C 43.13 34.26 43.44 35.48 43.60 36.09 C 40.83 34.43 37.94 31.44 34.43 32.42 M 44.35 65.56 C 43.51 66.83 45.62 68.44 46.69 67.44 C 47.53 66.17 45.42 64.56 44.35 65.56 M 53.15 65.85 C 52.94 66.14 52.51 66.70 52.29 66.98 C 53.09 70.09 56.52 65.30 53.15 65.85 Z" />
<path fill="#920b6e" opacity="1.00" d=" M 39.34 26.77 C 39.37 24.40 41.71 22.81 43.89 22.65 C 46.10 23.53 48.01 24.97 50.01 26.24 C 52.00 24.99 53.92 23.57 56.11 22.67 C 58.36 22.68 59.76 24.65 61.28 26.00 C 58.72 29.85 54.82 33.30 50.00 33.57 C 45.64 33.22 41.67 30.39 39.34 26.77 M 42.96 25.91 C 44.43 27.58 46.15 29.00 48.10 30.07 C 47.15 27.88 45.07 26.74 42.96 25.91 M 51.89 30.06 C 53.87 29.03 55.59 27.61 57.04 25.91 C 54.92 26.74 52.93 27.95 51.89 30.06 Z" />
<path fill="#ffffff" opacity="1.00" d=" M 42.96 25.91 C 45.07 26.74 47.15 27.88 48.10 30.07 C 46.15 29.00 44.43 27.58 42.96 25.91 Z" />
<path fill="#ffffff" opacity="1.00" d=" M 51.89 30.06 C 52.93 27.95 54.92 26.74 57.04 25.91 C 55.59 27.61 53.87 29.03 51.89 30.06 Z" />
<path fill="#941271" opacity="1.00" d=" M 34.43 32.42 C 37.94 31.44 40.83 34.43 43.60 36.09 C 43.44 35.48 43.13 34.26 42.97 33.65 C 45.29 34.54 47.54 35.73 50.00 36.17 C 52.47 35.76 54.73 34.57 57.05 33.69 C 56.88 34.29 56.54 35.50 56.37 36.11 C 59.17 34.44 62.06 31.47 65.60 32.40 C 69.53 34.23 71.61 38.38 73.32 42.15 C 72.82 42.23 71.83 42.39 71.34 42.46 C 72.16 45.85 72.90 49.31 72.79 52.82 C 72.47 55.59 70.64 57.86 69.22 60.16 C 69.76 56.12 69.19 52.07 66.45 48.90 C 66.25 52.71 66.10 58.56 61.22 59.18 C 62.72 53.83 63.63 48.22 62.01 42.76 C 64.07 44.25 66.14 45.72 68.31 47.05 C 65.91 44.01 63.36 39.01 58.78 39.80 C 57.50 39.92 56.22 40.07 54.95 40.25 C 56.78 41.18 58.64 42.08 60.49 42.98 C 60.22 43.62 59.67 44.89 59.40 45.53 C 58.83 44.92 57.70 43.70 57.13 43.09 C 56.86 43.85 56.59 44.61 56.32 45.38 C 58.29 46.94 62.71 47.53 61.88 50.84 C 61.59 53.74 58.91 55.34 56.94 57.10 C 58.76 59.14 60.45 61.30 61.90 63.62 C 60.71 64.37 59.52 65.12 58.33 65.89 C 58.41 64.42 58.60 62.96 58.45 61.50 C 56.85 59.06 54.75 57.00 52.87 54.78 C 51.86 57.19 51.00 59.66 50.15 62.13 C 48.10 60.75 46.41 58.91 44.86 56.99 C 42.77 59.37 40.74 61.91 40.12 65.10 C 39.29 64.12 38.45 63.14 37.60 62.16 C 38.70 61.04 39.81 59.92 40.92 58.80 C 39.35 58.63 37.77 58.48 36.20 58.36 C 34.11 55.21 33.27 51.56 34.56 47.92 C 33.19 50.15 31.04 52.25 31.13 55.05 C 31.04 56.76 31.07 58.47 31.03 60.18 C 29.22 57.76 27.14 55.12 27.24 51.93 C 27.30 48.76 27.97 45.65 28.67 42.58 C 28.19 42.46 27.22 42.21 26.74 42.09 C 28.45 38.35 30.56 34.28 34.43 32.42 M 45.28 37.16 C 44.86 38.57 45.35 39.05 46.75 38.60 C 47.17 37.19 46.67 36.71 45.28 37.16 M 31.68 47.80 C 34.15 45.95 36.48 43.92 38.84 41.93 C 37.43 46.30 36.11 51.36 38.32 55.69 C 39.22 57.49 41.48 57.55 43.15 58.17 C 40.95 55.29 38.18 52.53 38.06 48.67 C 40.21 47.17 44.71 46.42 43.20 42.97 C 42.56 43.60 41.29 44.86 40.65 45.49 C 40.42 44.87 39.95 43.62 39.72 43.00 C 41.51 42.08 43.30 41.17 45.07 40.21 C 44.33 40.12 42.86 39.95 42.12 39.86 C 36.97 38.58 34.05 44.24 31.68 47.80 M 48.39 43.27 C 45.34 44.73 44.07 49.80 46.68 52.28 C 47.88 54.27 50.82 56.03 52.56 53.59 C 56.96 50.51 54.26 41.21 48.39 43.27 M 46.01 54.44 C 46.64 56.86 47.87 59.09 50.00 60.48 C 49.35 58.07 48.05 55.92 46.01 54.44 Z" />
<path fill="#d3a2c6" opacity="1.00" d=" M 45.28 37.16 C 46.67 36.71 47.17 37.19 46.75 38.60 C 45.35 39.05 44.86 38.57 45.28 37.16 Z" />
<path fill="#ffffff" opacity="1.00" d=" M 31.68 47.80 C 34.05 44.24 36.97 38.58 42.12 39.86 C 42.86 39.95 44.33 40.12 45.07 40.21 C 43.30 41.17 41.51 42.08 39.72 43.00 C 39.95 43.62 40.42 44.87 40.65 45.49 C 41.29 44.86 42.56 43.60 43.20 42.97 C 44.71 46.42 40.21 47.17 38.06 48.67 C 38.18 52.53 40.95 55.29 43.15 58.17 C 41.48 57.55 39.22 57.49 38.32 55.69 C 36.11 51.36 37.43 46.30 38.84 41.93 C 36.48 43.92 34.15 45.95 31.68 47.80 Z" />
<path fill="#ffffff" opacity="1.00" d=" M 48.39 43.27 C 54.26 41.21 56.96 50.51 52.56 53.59 C 50.82 56.03 47.88 54.27 46.68 52.28 C 44.07 49.80 45.34 44.73 48.39 43.27 Z" />
<path fill="#efddea" opacity="1.00" d=" M 46.01 54.44 C 48.05 55.92 49.35 58.07 50.00 60.48 C 47.87 59.09 46.64 56.86 46.01 54.44 Z" />
<path fill="#920b6e" opacity="1.00" d=" M 44.35 65.56 C 45.42 64.56 47.53 66.17 46.69 67.44 C 45.62 68.44 43.51 66.83 44.35 65.56 Z" />
<path fill="#ab5190" opacity="1.00" d=" M 53.15 65.85 C 56.52 65.30 53.09 70.09 52.29 66.98 C 52.51 66.70 52.94 66.14 53.15 65.85 Z" />
</svg>
