<?xml version="1.0" encoding="UTF-8" ?>
<!DOCTYPE svg PUBLIC "-//W3C//DTD SVG 1.1//EN" "http://www.w3.org/Graphics/SVG/1.1/DTD/svg11.dtd">
<svg width="100pt" height="100pt" viewBox="0 0 100 100" version="1.1" xmlns="http://www.w3.org/2000/svg">
<path fill="#c1bbbb" opacity="1.00" d=" M 43.98 17.04 C 45.90 12.75 47.89 8.50 50.13 4.37 C 52.29 8.50 54.17 12.76 56.02 17.04 C 57.06 19.85 59.79 21.34 62.11 22.94 C 71.42 29.00 80.49 35.44 89.82 41.47 C 89.21 43.45 88.65 45.44 88.03 47.42 C 91.95 49.03 95.62 51.16 99.02 53.68 C 94.28 57.52 88.38 59.22 83.11 62.04 C 79.69 69.49 77.59 77.50 74.76 85.20 C 69.06 85.27 63.37 85.28 57.67 85.32 C 56.06 90.54 53.71 95.51 50.34 99.83 C 46.47 95.61 43.72 90.57 41.68 85.25 C 36.20 85.30 30.71 85.28 25.23 85.19 C 23.14 78.87 20.86 72.60 18.76 66.28 C 17.92 64.27 17.54 61.57 15.14 60.85 C 10.19 58.83 5.33 56.61 0.75 53.82 C 4.37 51.49 8.07 49.29 12.00 47.52 C 11.37 45.51 10.79 43.48 10.18 41.47 C 19.51 35.44 28.58 29.00 37.89 22.94 C 40.22 21.34 42.91 19.83 43.98 17.04 M 44.85 19.97 C 43.13 23.77 39.22 25.68 35.95 27.92 C 28.64 32.84 21.15 37.50 14.12 42.83 C 14.57 44.57 15.03 46.31 15.49 48.05 C 11.53 49.87 7.61 51.76 3.78 53.82 C 8.26 56.00 12.98 57.60 17.55 59.56 C 20.61 60.58 21.34 64.02 22.32 66.70 C 23.93 71.99 25.75 77.22 27.83 82.35 C 32.80 82.37 37.78 82.40 42.75 82.35 C 44.70 87.64 47.17 92.73 50.18 97.50 C 52.78 92.71 54.98 87.70 56.57 82.48 C 61.77 82.43 66.97 82.33 72.17 82.34 C 74.90 76.05 76.59 69.37 79.08 62.99 C 79.85 60.43 82.59 59.68 84.79 58.79 C 88.59 57.42 92.28 55.77 95.80 53.78 C 92.20 51.57 88.42 49.67 84.53 48.01 C 84.98 46.28 85.43 44.55 85.88 42.83 C 78.64 37.39 71.00 32.52 63.46 27.53 C 60.38 25.44 56.72 23.63 55.15 20.04 C 53.40 16.41 51.94 12.64 50.06 9.06 C 48.15 12.61 46.63 16.35 44.85 19.97 Z" />
<path fill="#217a7a" opacity="1.00" d=" M 44.85 19.97 C 46.63 16.35 48.15 12.61 50.06 9.06 C 51.94 12.64 53.40 16.41 55.15 20.04 C 56.72 23.63 60.38 25.44 63.46 27.53 C 71.00 32.52 78.64 37.39 85.88 42.83 C 85.43 44.55 84.98 46.28 84.53 48.01 C 88.42 49.67 92.20 51.57 95.80 53.78 C 92.28 55.77 88.59 57.42 84.79 58.79 C 82.59 59.68 79.85 60.43 79.08 62.99 C 76.59 69.37 74.90 76.05 72.17 82.34 C 66.97 82.33 61.77 82.43 56.57 82.48 C 54.98 87.70 52.78 92.71 50.18 97.50 C 47.17 92.73 44.70 87.64 42.75 82.35 C 37.78 82.40 32.80 82.37 27.83 82.35 C 25.75 77.22 23.93 71.99 22.32 66.70 C 21.34 64.02 20.61 60.58 17.55 59.56 C 12.98 57.60 8.26 56.00 3.78 53.82 C 7.61 51.76 11.53 49.87 15.49 48.05 C 15.03 46.31 14.57 44.57 14.12 42.83 C 21.15 37.50 28.64 32.84 35.95 27.92 C 39.22 25.68 43.13 23.77 44.85 19.97 M 44.23 29.24 C 41.70 32.00 37.76 32.79 34.64 34.71 C 29.43 37.37 29.09 44.27 24.91 47.87 C 19.28 50.30 13.12 51.26 7.46 53.67 C 13.35 55.92 19.72 56.83 25.40 59.60 C 29.31 63.12 30.37 69.08 35.07 71.87 C 38.66 74.51 44.20 75.75 45.27 80.72 C 46.53 85.43 48.17 90.02 50.10 94.50 C 52.21 89.00 53.05 83.02 55.76 77.76 C 58.95 74.33 64.04 73.59 67.46 70.42 C 70.38 67.19 71.35 62.55 74.55 59.56 C 80.34 57.00 86.72 56.08 92.59 53.69 C 86.73 51.20 80.28 50.29 74.57 47.49 C 71.62 44.58 70.41 40.40 67.68 37.30 C 64.47 33.95 59.29 33.33 56.22 29.85 C 53.33 24.40 52.15 18.25 50.02 12.50 C 47.86 18.00 46.84 23.93 44.23 29.24 Z" />
<path fill="#ffffff" opacity="1.00" d=" M 44.23 29.24 C 46.84 23.93 47.86 18.00 50.02 12.50 C 52.15 18.25 53.33 24.40 56.22 29.85 C 59.29 33.33 64.47 33.95 67.68 37.30 C 70.41 40.40 71.62 44.58 74.57 47.49 C 80.28 50.29 86.73 51.20 92.59 53.69 C 86.72 56.08 80.34 57.00 74.55 59.56 C 71.35 62.55 70.38 67.19 67.46 70.42 C 64.04 73.59 58.95 74.33 55.76 77.76 C 53.05 83.02 52.21 89.00 50.10 94.50 C 48.17 90.02 46.53 85.43 45.27 80.72 C 44.20 75.75 38.66 74.51 35.07 71.87 C 30.37 69.08 29.31 63.12 25.40 59.60 C 19.72 56.83 13.35 55.92 7.46 53.67 C 13.12 51.26 19.28 50.30 24.91 47.87 C 29.09 44.27 29.43 37.37 34.64 34.71 C 37.76 32.79 41.70 32.00 44.23 29.24 M 47.00 32.04 C 43.38 35.24 38.23 35.66 34.28 38.30 C 32.86 40.04 32.22 42.24 31.34 44.27 C 34.66 42.31 37.70 39.90 41.10 38.08 C 44.96 36.03 49.52 35.76 53.78 36.38 C 58.70 37.12 62.51 40.57 66.79 42.79 C 63.25 37.99 57.90 35.23 53.17 31.84 C 51.22 28.12 51.16 23.69 50.05 19.67 C 49.18 23.82 48.40 28.03 47.00 32.04 M 37.94 43.90 C 32.77 47.59 27.26 50.75 21.64 53.68 C 26.92 55.72 32.26 57.81 36.86 61.19 C 40.49 63.81 44.39 66.65 49.07 66.69 C 53.87 67.15 58.29 64.84 61.97 62.00 C 66.89 58.25 72.62 55.84 78.36 53.68 C 73.40 51.05 68.46 48.35 63.85 45.12 C 59.96 42.44 55.84 39.46 50.92 39.35 C 46.14 38.93 41.71 41.19 37.94 43.90 M 50.00 69.94 C 43.23 70.36 37.90 65.77 32.40 62.61 C 35.78 68.32 41.82 71.28 46.86 75.19 C 48.41 79.13 49.07 83.35 50.04 87.45 C 51.08 83.22 51.92 78.94 52.60 74.63 C 56.36 73.13 60.20 71.73 63.73 69.70 C 66.83 67.95 67.94 64.31 69.47 61.33 C 63.25 64.71 57.63 70.42 50.00 69.94 Z" />
<path fill="#197575" opacity="1.00" d=" M 47.00 32.04 C 48.40 28.03 49.18 23.82 50.05 19.67 C 51.16 23.69 51.22 28.12 53.17 31.84 C 57.90 35.23 63.25 37.99 66.79 42.79 C 62.51 40.57 58.70 37.12 53.78 36.38 C 49.52 35.76 44.96 36.03 41.10 38.08 C 37.70 39.90 34.66 42.31 31.34 44.27 C 32.22 42.24 32.86 40.04 34.28 38.30 C 38.23 35.66 43.38 35.24 47.00 32.04 Z" />
<path fill="#217a7a" opacity="1.00" d=" M 37.94 43.90 C 41.71 41.19 46.14 38.93 50.92 39.35 C 55.84 39.46 59.96 42.44 63.85 45.12 C 68.46 48.35 73.40 51.05 78.36 53.68 C 72.62 55.84 66.89 58.25 61.97 62.00 C 58.29 64.84 53.87 67.15 49.07 66.69 C 44.39 66.65 40.49 63.81 36.86 61.19 C 32.26 57.81 26.92 55.72 21.64 53.68 C 27.26 50.75 32.77 47.59 37.94 43.90 M 47.50 46.50 C 42.92 47.76 40.99 54.18 44.47 57.57 C 48.20 61.98 56.62 59.85 57.28 53.92 C 58.13 48.72 52.21 44.67 47.50 46.50 Z" />
<path fill="#ffffff" opacity="1.00" d=" M 47.50 46.50 C 52.21 44.67 58.13 48.72 57.28 53.92 C 56.62 59.85 48.20 61.98 44.47 57.57 C 40.99 54.18 42.92 47.76 47.50 46.50 Z" />
<path fill="#1f7979" opacity="1.00" d=" M 50.00 69.94 C 57.63 70.42 63.25 64.71 69.47 61.33 C 67.94 64.31 66.83 67.95 63.73 69.70 C 60.20 71.73 56.36 73.13 52.60 74.63 C 51.92 78.94 51.08 83.22 50.04 87.45 C 49.07 83.35 48.41 79.13 46.86 75.19 C 41.82 71.28 35.78 68.32 32.40 62.61 C 37.90 65.77 43.23 70.36 50.00 69.94 Z" />
</svg>
