<?xml version="1.0" encoding="UTF-8" ?>
<!DOCTYPE svg PUBLIC "-//W3C//DTD SVG 1.1//EN" "http://www.w3.org/Graphics/SVG/1.1/DTD/svg11.dtd">
<svg width="100pt" height="100pt" viewBox="0 0 100 100" version="1.1" xmlns="http://www.w3.org/2000/svg">
<path fill="#bbb9bc" opacity="1.00" d=" M 26.95 20.97 C 38.34 10.16 56.69 7.93 70.41 15.50 C 83.11 22.20 91.38 36.67 90.08 51.06 C 89.22 56.35 91.21 61.44 91.60 66.66 C 88.81 67.70 85.40 67.92 83.45 70.44 C 81.41 72.76 79.23 75.00 77.52 77.59 C 77.27 81.30 77.54 85.05 76.74 88.72 C 74.61 88.68 72.47 88.77 70.36 88.44 C 67.02 87.76 64.29 84.49 60.66 85.61 C 52.98 87.14 44.79 86.71 37.61 83.41 C 34.53 82.11 31.86 79.98 28.76 78.72 C 25.22 78.72 21.77 80.18 18.21 79.76 C 15.61 79.20 13.21 77.99 10.76 76.98 C 12.76 72.71 15.53 68.85 18.98 65.63 C 18.08 64.01 17.30 62.31 16.13 60.86 C 13.87 58.97 11.13 57.78 8.60 56.31 C 11.15 52.46 14.75 48.89 15.13 44.04 C 16.18 35.25 20.38 26.91 26.95 20.97 M 24.23 29.22 C 19.67 35.35 18.34 43.08 17.82 50.52 C 15.94 51.96 14.08 53.44 12.25 54.95 C 14.48 56.32 16.84 57.52 18.84 59.22 C 20.68 61.13 21.67 63.65 22.91 65.96 C 19.43 68.79 16.45 72.20 14.17 76.08 C 18.68 77.42 23.34 76.85 27.85 75.89 C 30.72 75.11 33.13 77.22 35.52 78.44 C 40.45 81.43 46.17 83.25 51.98 83.06 C 55.61 83.05 59.20 82.09 62.83 82.38 C 66.84 83.51 70.49 85.66 74.50 86.82 C 74.66 83.24 74.46 79.66 73.78 76.15 C 76.07 73.61 78.25 70.97 80.71 68.60 C 82.85 66.50 85.83 65.71 88.52 64.56 C 87.47 61.84 85.86 59.15 86.19 56.12 C 86.55 50.84 87.38 45.42 85.84 40.23 C 82.40 26.23 69.36 15.26 54.95 14.41 C 43.02 13.42 30.97 19.40 24.23 29.22 Z" />
<path fill="#2c8c19" opacity="1.00" d=" M 24.23 29.22 C 30.97 19.40 43.02 13.42 54.95 14.41 C 69.36 15.26 82.40 26.23 85.84 40.23 C 87.38 45.42 86.55 50.84 86.19 56.12 C 85.86 59.15 87.47 61.84 88.52 64.56 C 85.83 65.71 82.85 66.50 80.71 68.60 C 78.25 70.97 76.07 73.61 73.78 76.15 C 74.46 79.66 74.66 83.24 74.50 86.82 C 70.49 85.66 66.84 83.51 62.83 82.38 C 59.20 82.09 55.61 83.05 51.98 83.06 C 46.17 83.25 40.45 81.43 35.52 78.44 C 33.13 77.22 30.72 75.11 27.85 75.89 C 23.34 76.85 18.68 77.42 14.17 76.08 C 16.45 72.20 19.43 68.79 22.91 65.96 C 21.67 63.65 20.68 61.13 18.84 59.22 C 16.84 57.52 14.48 56.32 12.25 54.95 C 14.08 53.44 15.94 51.96 17.82 50.52 C 18.34 43.08 19.67 35.35 24.23 29.22 M 53.15 31.79 C 55.90 27.12 57.09 21.74 57.42 16.38 C 55.00 21.17 53.36 26.40 53.15 31.79 M 39.74 39.91 C 43.31 32.78 44.98 24.86 46.24 17.05 C 42.92 24.26 40.85 32.06 39.74 39.91 M 64.12 18.94 C 61.42 26.99 58.67 35.03 56.12 43.13 C 55.30 45.72 54.42 48.33 52.97 50.65 C 48.32 51.27 44.86 47.84 41.21 45.60 C 41.36 47.13 41.54 48.67 41.72 50.20 C 37.98 51.40 34.54 53.39 30.81 54.60 C 25.93 54.62 21.06 53.70 16.18 54.34 C 20.13 56.61 24.69 57.22 29.17 57.39 C 29.45 60.29 30.10 63.15 30.92 65.95 C 25.90 67.65 21.19 70.34 17.88 74.59 C 24.53 74.73 30.77 72.15 36.01 68.21 C 39.12 69.73 42.15 71.44 45.46 72.49 C 50.02 73.77 54.83 72.90 59.46 73.65 C 63.50 77.53 67.23 81.94 72.62 84.06 C 71.97 79.83 70.08 75.94 67.12 72.86 C 69.22 71.78 71.49 70.88 73.24 69.24 C 74.74 67.63 75.17 65.38 75.91 63.37 C 79.23 63.55 82.58 63.57 85.88 63.06 C 82.24 61.40 78.27 60.76 74.49 59.51 C 71.55 58.14 69.07 55.98 66.33 54.25 C 67.66 52.95 68.96 51.62 70.23 50.26 C 65.86 51.18 61.44 52.11 56.96 51.46 C 59.78 40.94 62.66 30.44 65.69 19.98 C 65.30 19.72 64.51 19.20 64.12 18.94 M 31.81 33.79 C 30.30 38.96 28.43 44.10 28.17 49.53 C 30.66 46.37 31.75 42.48 32.64 38.63 C 34.05 32.56 36.22 26.64 36.86 20.40 C 34.37 24.53 33.19 29.23 31.81 33.79 M 72.12 46.41 C 75.32 40.88 77.02 34.58 77.85 28.27 C 74.65 33.80 72.76 40.06 72.12 46.41 M 78.66 56.88 C 81.75 51.62 82.93 45.53 83.50 39.52 C 80.93 44.98 79.06 50.84 78.66 56.88 Z" />
<path fill="#ffffff" opacity="1.00" d=" M 53.15 31.79 C 53.36 26.40 55.00 21.17 57.42 16.38 C 57.09 21.74 55.90 27.12 53.15 31.79 Z" />
<path fill="#ffffff" opacity="1.00" d=" M 39.74 39.91 C 40.85 32.06 42.92 24.26 46.24 17.05 C 44.98 24.86 43.31 32.78 39.74 39.91 Z" />
<path fill="#ffffff" opacity="1.00" d=" M 64.12 18.94 C 64.51 19.20 65.30 19.72 65.69 19.98 C 62.66 30.44 59.78 40.94 56.96 51.46 C 61.44 52.11 65.86 51.18 70.23 50.26 C 68.96 51.62 67.66 52.95 66.33 54.25 C 69.07 55.98 71.55 58.14 74.49 59.51 C 78.27 60.76 82.24 61.40 85.88 63.06 C 82.58 63.57 79.23 63.55 75.91 63.37 C 75.17 65.38 74.74 67.63 73.24 69.24 C 71.49 70.88 69.22 71.78 67.12 72.86 C 70.08 75.94 71.97 79.83 72.62 84.06 C 67.23 81.94 63.50 77.53 59.46 73.65 C 54.83 72.90 50.02 73.77 45.46 72.49 C 42.15 71.44 39.12 69.73 36.01 68.21 C 30.77 72.15 24.53 74.73 17.88 74.59 C 21.19 70.34 25.90 67.65 30.92 65.95 C 30.10 63.15 29.45 60.29 29.17 57.39 C 24.69 57.22 20.13 56.61 16.18 54.34 C 21.06 53.70 25.93 54.62 30.81 54.60 C 34.54 53.39 37.98 51.40 41.72 50.20 C 41.54 48.67 41.36 47.13 41.21 45.60 C 44.86 47.84 48.32 51.27 52.97 50.65 C 54.42 48.33 55.30 45.72 56.12 43.13 C 58.67 35.03 61.42 26.99 64.12 18.94 M 33.36 55.31 C 36.32 56.12 39.31 56.84 42.26 57.70 C 38.92 57.84 35.59 57.83 32.25 57.87 C 33.42 60.02 34.63 62.15 35.87 64.26 C 38.59 63.43 41.30 62.56 44.04 61.82 C 42.72 63.16 41.36 64.46 40.01 65.78 C 45.61 68.33 51.72 69.16 57.84 69.00 C 57.19 67.27 56.53 65.54 55.91 63.81 C 57.95 65.31 59.95 66.87 61.94 68.44 C 64.28 67.25 66.64 66.08 68.97 64.86 C 68.97 63.79 68.96 62.72 68.96 61.65 C 66.57 60.91 64.11 60.46 61.71 59.74 C 64.42 59.64 67.14 59.64 69.85 59.46 C 68.22 57.95 66.66 56.28 64.69 55.21 C 62.72 55.14 60.78 55.60 58.84 55.87 C 59.55 54.87 60.27 53.87 60.98 52.86 C 59.44 52.66 57.91 52.47 56.37 52.30 C 56.18 54.08 55.99 55.85 55.81 57.64 C 57.60 57.74 59.39 57.84 61.18 57.96 C 60.12 58.42 59.05 58.89 57.99 59.35 C 59.76 60.93 61.52 62.51 63.23 64.15 C 60.18 63.48 57.20 62.33 54.05 62.19 C 51.12 62.47 48.41 63.73 45.62 64.59 C 47.06 63.11 48.52 61.66 49.98 60.20 C 47.12 60.16 44.26 60.10 41.40 59.93 C 43.63 59.19 45.88 58.54 48.14 57.90 C 46.73 56.86 45.31 55.81 43.92 54.74 C 46.43 55.37 48.92 56.09 51.41 56.81 C 51.99 55.01 52.56 53.20 53.13 51.39 C 51.37 51.14 49.60 50.89 47.84 50.63 C 48.12 51.87 48.40 53.12 48.68 54.36 C 46.82 53.26 45.09 51.78 42.96 51.22 C 39.35 51.25 36.32 53.53 33.36 55.31 Z" />
<path fill="#ffffff" opacity="1.00" d=" M 31.81 33.79 C 33.19 29.23 34.37 24.53 36.86 20.40 C 36.22 26.64 34.05 32.56 32.64 38.63 C 31.75 42.48 30.66 46.37 28.17 49.53 C 28.43 44.10 30.30 38.96 31.81 33.79 Z" />
<path fill="#ffffff" opacity="1.00" d=" M 72.12 46.41 C 72.76 40.06 74.65 33.80 77.85 28.27 C 77.02 34.58 75.32 40.88 72.12 46.41 Z" />
<path fill="#ffffff" opacity="1.00" d=" M 78.66 56.88 C 79.06 50.84 80.93 44.98 83.50 39.52 C 82.93 45.53 81.75 51.62 78.66 56.88 Z" />
<path fill="#288a14" opacity="1.00" d=" M 33.36 55.31 C 36.32 53.53 39.35 51.25 42.96 51.22 C 45.09 51.78 46.82 53.26 48.68 54.36 C 48.40 53.12 48.12 51.87 47.84 50.63 C 49.60 50.89 51.37 51.14 53.13 51.39 C 52.56 53.20 51.99 55.01 51.41 56.81 C 48.92 56.09 46.43 55.37 43.92 54.74 C 45.31 55.81 46.73 56.86 48.14 57.90 C 45.88 58.54 43.63 59.19 41.40 59.93 C 44.26 60.10 47.12 60.16 49.98 60.20 C 48.52 61.66 47.06 63.11 45.62 64.59 C 48.41 63.73 51.12 62.47 54.05 62.19 C 57.20 62.33 60.18 63.48 63.23 64.15 C 61.52 62.51 59.76 60.93 57.99 59.35 C 59.05 58.89 60.12 58.42 61.18 57.96 C 59.39 57.84 57.60 57.74 55.81 57.64 C 55.99 55.85 56.18 54.08 56.37 52.30 C 57.91 52.47 59.44 52.66 60.98 52.86 C 60.27 53.87 59.55 54.87 58.84 55.87 C 60.78 55.60 62.72 55.14 64.69 55.21 C 66.66 56.28 68.22 57.95 69.85 59.46 C 67.14 59.64 64.42 59.64 61.71 59.74 C 64.11 60.46 66.57 60.91 68.96 61.65 C 68.96 62.72 68.97 63.79 68.97 64.86 C 66.64 66.08 64.28 67.25 61.94 68.44 C 59.95 66.87 57.95 65.31 55.91 63.81 C 56.53 65.54 57.19 67.27 57.84 69.00 C 51.72 69.16 45.61 68.33 40.01 65.78 C 41.36 64.46 42.72 63.16 44.04 61.82 C 41.30 62.56 38.59 63.43 35.87 64.26 C 34.63 62.15 33.42 60.02 32.25 57.87 C 35.59 57.83 38.92 57.84 42.26 57.70 C 39.31 56.84 36.32 56.12 33.36 55.31 Z" />
</svg>
