<?xml version="1.0" encoding="UTF-8" ?>
<!DOCTYPE svg PUBLIC "-//W3C//DTD SVG 1.1//EN" "http://www.w3.org/Graphics/SVG/1.1/DTD/svg11.dtd">
<svg width="100pt" height="100pt" viewBox="0 0 100 100" version="1.1" xmlns="http://www.w3.org/2000/svg">
<path fill="#bab9b9" opacity="1.00" d=" M 44.90 22.97 C 46.51 20.81 48.05 18.61 49.65 16.45 C 51.74 19.32 53.58 22.39 55.99 25.02 C 58.73 27.66 62.41 29.16 64.93 32.07 C 68.76 36.36 69.30 42.55 73.04 46.89 C 74.61 48.98 76.99 50.28 78.52 52.39 C 80.49 56.23 81.26 60.63 83.77 64.20 C 88.29 70.77 93.15 77.10 97.59 83.72 C 65.94 83.59 34.29 83.52 2.63 83.35 C 6.36 77.85 10.27 72.48 14.06 67.02 C 16.95 63.03 17.89 58.11 19.75 53.64 C 20.87 50.66 24.20 49.48 25.83 46.87 C 28.72 42.55 29.23 36.87 33.18 33.21 C 36.62 29.25 41.83 27.28 44.90 22.97 M 36.80 34.82 C 33.37 37.61 32.33 42.03 30.92 46.00 C 29.49 50.47 24.61 52.47 22.69 56.63 C 20.96 60.30 19.94 64.31 17.73 67.76 C 15.10 71.91 12.11 75.81 9.55 80.01 C 36.71 80.36 63.89 80.25 91.05 80.07 C 86.34 72.73 80.16 66.29 76.93 58.07 C 75.25 53.47 70.60 51.09 68.16 47.02 C 65.79 42.42 65.06 36.69 60.77 33.29 C 56.75 30.16 52.74 26.95 49.66 22.84 C 46.04 27.52 41.27 31.02 36.80 34.82 Z" />
<path fill="#237171" opacity="1.00" d=" M 36.80 34.82 C 41.27 31.02 46.04 27.52 49.66 22.84 C 52.74 26.95 56.75 30.16 60.77 33.29 C 65.06 36.69 65.79 42.42 68.16 47.02 C 70.60 51.09 75.25 53.47 76.93 58.07 C 80.16 66.29 86.34 72.73 91.05 80.07 C 63.89 80.25 36.71 80.36 9.55 80.01 C 12.11 75.81 15.10 71.91 17.73 67.76 C 19.94 64.31 20.96 60.30 22.69 56.63 C 24.61 52.47 29.49 50.47 30.92 46.00 C 32.33 42.03 33.37 37.61 36.80 34.82 M 37.73 38.77 C 34.80 42.12 35.15 46.87 33.61 50.81 C 31.07 53.83 27.05 55.42 25.16 59.03 C 21.65 65.17 17.93 71.20 14.49 77.38 C 21.36 77.50 28.24 77.42 35.11 77.30 C 33.68 74.88 32.28 72.43 30.86 70.01 C 30.38 71.59 29.87 73.15 29.33 74.72 C 27.89 73.29 25.02 72.52 25.45 70.00 C 25.64 65.64 28.22 61.94 30.19 58.20 C 32.96 58.87 35.74 59.47 38.52 60.10 C 37.84 55.98 36.58 51.77 37.53 47.58 C 38.33 43.94 40.00 40.36 42.79 37.83 C 45.70 35.14 50.13 34.88 53.77 35.98 C 57.87 37.64 59.77 42.10 61.02 46.04 C 62.53 50.67 61.22 55.49 60.42 60.12 C 63.26 59.46 66.09 58.80 68.92 58.11 C 71.70 63.17 74.41 68.29 76.65 73.61 C 75.23 73.64 73.80 73.68 72.38 73.71 C 72.05 72.14 71.73 70.56 71.43 68.98 C 69.92 71.82 68.42 74.67 66.90 77.50 C 73.69 77.57 80.47 77.68 87.26 77.64 C 82.75 71.50 77.02 66.20 73.65 59.28 C 72.36 56.37 69.63 54.63 67.27 52.68 C 63.56 49.96 63.88 44.81 61.97 41.00 C 60.03 35.36 54.15 31.28 48.13 32.14 C 43.83 32.54 40.46 35.70 37.73 38.77 M 42.98 41.94 C 41.30 46.53 42.36 51.56 42.34 56.34 C 43.23 56.02 44.12 55.69 45.01 55.37 C 45.45 57.24 45.89 59.12 46.30 61.00 C 48.76 60.98 51.21 60.96 53.66 60.94 C 53.77 59.85 53.88 58.75 53.99 57.66 C 51.48 57.68 48.97 57.68 46.47 57.56 C 50.06 56.76 53.61 55.71 57.27 55.23 C 57.41 51.16 58.13 46.96 56.91 43.00 C 54.89 37.39 46.09 37.49 42.98 41.94 M 43.91 61.70 C 43.12 63.07 43.46 65.39 41.57 65.83 C 37.48 66.86 33.32 65.37 29.29 64.67 C 31.54 69.19 34.04 73.75 37.71 77.27 C 46.28 78.35 55.01 77.17 63.65 77.47 C 66.04 73.35 68.94 69.40 69.95 64.65 C 66.43 65.28 62.85 66.56 59.25 65.89 C 57.16 65.65 56.91 63.19 56.07 61.68 C 52.09 62.90 47.91 62.77 43.91 61.70 Z" />
<path fill="#ffffff" opacity="1.00" d=" M 37.73 38.77 C 40.46 35.70 43.83 32.54 48.13 32.14 C 54.15 31.28 60.03 35.36 61.97 41.00 C 63.88 44.81 63.56 49.96 67.27 52.68 C 69.63 54.63 72.36 56.37 73.65 59.28 C 77.02 66.20 82.75 71.50 87.26 77.64 C 80.47 77.68 73.69 77.57 66.90 77.50 C 68.42 74.67 69.92 71.82 71.43 68.98 C 71.73 70.56 72.05 72.14 72.38 73.71 C 73.80 73.68 75.23 73.64 76.65 73.61 C 74.41 68.29 71.70 63.17 68.92 58.11 C 66.09 58.80 63.26 59.46 60.42 60.12 C 61.22 55.49 62.53 50.67 61.02 46.04 C 59.77 42.10 57.87 37.64 53.77 35.98 C 50.13 34.88 45.70 35.14 42.79 37.83 C 40.00 40.36 38.33 43.94 37.53 47.58 C 36.58 51.77 37.84 55.98 38.52 60.10 C 35.74 59.47 32.96 58.87 30.19 58.20 C 28.22 61.94 25.64 65.64 25.45 70.00 C 25.02 72.52 27.89 73.29 29.33 74.72 C 29.87 73.15 30.38 71.59 30.86 70.01 C 32.28 72.43 33.68 74.88 35.11 77.30 C 28.24 77.42 21.36 77.50 14.49 77.38 C 17.93 71.20 21.65 65.17 25.16 59.03 C 27.05 55.42 31.07 53.83 33.61 50.81 C 35.15 46.87 34.80 42.12 37.73 38.77 Z" />
<path fill="#ffffff" opacity="1.00" d=" M 42.98 41.94 C 46.09 37.49 54.89 37.39 56.91 43.00 C 58.13 46.96 57.41 51.16 57.27 55.23 C 53.61 55.71 50.06 56.76 46.47 57.56 C 48.97 57.68 51.48 57.68 53.99 57.66 C 53.88 58.75 53.77 59.85 53.66 60.94 C 51.21 60.96 48.76 60.98 46.30 61.00 C 45.89 59.12 45.45 57.24 45.01 55.37 C 44.12 55.69 43.23 56.02 42.34 56.34 C 42.36 51.56 41.30 46.53 42.98 41.94 Z" />
<path fill="#ffffff" opacity="1.00" d=" M 43.91 61.70 C 47.91 62.77 52.09 62.90 56.07 61.68 C 56.91 63.19 57.16 65.65 59.25 65.89 C 62.85 66.56 66.43 65.28 69.95 64.65 C 68.94 69.40 66.04 73.35 63.65 77.47 C 55.01 77.17 46.28 78.35 37.71 77.27 C 34.04 73.75 31.54 69.19 29.29 64.67 C 33.32 65.37 37.48 66.86 41.57 65.83 C 43.46 65.39 43.12 63.07 43.91 61.70 Z" />
</svg>
