<?xml version="1.0" encoding="UTF-8" ?>
<!DOCTYPE svg PUBLIC "-//W3C//DTD SVG 1.1//EN" "http://www.w3.org/Graphics/SVG/1.1/DTD/svg11.dtd">
<svg width="100pt" height="100pt" viewBox="0 0 100 100" version="1.1" xmlns="http://www.w3.org/2000/svg">
<path fill="#b8babb" opacity="1.00" d=" M 33.63 22.63 C 38.99 16.81 44.75 11.36 50.07 5.50 C 57.42 13.97 66.38 21.13 72.17 30.87 C 77.01 37.70 82.95 43.68 88.33 50.09 C 85.54 53.36 82.37 56.36 80.00 59.98 C 78.50 63.01 78.26 66.54 76.45 69.45 C 73.39 74.49 69.87 79.54 64.75 82.70 C 61.88 84.56 58.59 85.74 55.93 87.91 C 53.72 89.82 51.92 92.14 50.03 94.35 C 47.79 91.83 45.70 89.02 42.70 87.35 C 38.84 85.18 34.48 83.83 31.05 80.95 C 24.88 75.91 21.02 68.51 19.11 60.88 C 18.17 56.41 14.50 53.40 11.69 50.06 C 15.80 45.38 19.89 40.67 23.95 35.96 C 27.63 31.84 29.88 26.69 33.63 22.63 M 50.09 9.11 C 42.60 16.98 33.82 24.01 28.83 33.86 C 25.63 39.89 20.64 44.63 16.38 49.87 C 22.23 56.56 22.60 66.03 27.88 73.07 C 32.93 81.14 43.04 82.79 50.03 88.57 C 56.29 82.79 65.17 80.39 70.37 73.41 C 73.32 69.84 75.18 65.55 76.45 61.14 C 77.61 56.71 80.87 53.38 83.82 50.07 C 79.32 44.59 74.12 39.60 70.74 33.29 C 65.71 23.81 57.27 16.88 50.09 9.11 Z" />
<path fill="#bc532e" opacity="1.00" d=" M 50.09 9.11 C 57.27 16.88 65.71 23.81 70.74 33.29 C 74.12 39.60 79.32 44.59 83.82 50.07 C 80.87 53.38 77.61 56.71 76.45 61.14 C 75.18 65.55 73.32 69.84 70.37 73.41 C 65.17 80.39 56.29 82.79 50.03 88.57 C 43.04 82.79 32.93 81.14 27.88 73.07 C 22.60 66.03 22.23 56.56 16.38 49.87 C 20.64 44.63 25.63 39.89 28.83 33.86 C 33.82 24.01 42.60 16.98 50.09 9.11 M 33.66 30.64 C 30.79 34.53 29.48 39.26 28.72 43.97 C 31.05 38.23 34.17 32.77 38.74 28.50 C 40.54 31.46 41.13 34.90 41.50 38.29 C 42.16 32.69 43.87 26.91 48.60 23.39 C 49.41 29.92 49.09 36.51 48.81 43.06 C 48.68 55.38 44.27 67.04 41.65 78.94 C 44.34 80.15 46.90 82.09 49.93 82.22 C 53.13 81.47 55.84 79.51 58.63 77.86 C 56.10 68.50 53.07 59.20 51.78 49.55 C 51.15 40.90 51.08 32.16 51.95 23.52 C 56.42 27.96 57.74 34.20 57.97 40.28 C 58.60 36.48 58.95 32.66 59.26 28.83 C 66.21 31.28 68.93 38.65 71.27 44.98 C 70.59 40.21 69.49 35.36 66.67 31.36 C 61.98 24.48 55.68 18.94 50.04 12.87 C 44.53 18.74 38.38 24.08 33.66 30.64 M 42.08 52.20 C 40.53 52.53 40.86 55.33 42.57 54.67 C 44.10 54.32 43.77 51.58 42.08 52.20 M 31.01 71.56 C 33.84 74.18 36.89 76.55 40.28 78.40 C 42.08 69.86 43.87 61.33 45.76 52.81 C 41.73 59.71 37.17 66.38 31.01 71.56 M 54.19 53.75 C 56.01 61.69 57.89 69.62 60.14 77.45 C 62.96 75.38 65.57 73.04 68.12 70.63 C 62.41 65.95 58.03 60.00 54.19 53.75 M 57.41 54.28 C 56.47 55.40 58.39 56.93 59.28 55.78 C 60.22 54.65 58.30 53.13 57.41 54.28 M 35.24 55.17 C 34.78 56.57 35.25 57.05 36.66 56.60 C 37.12 55.20 36.64 54.72 35.24 55.17 M 29.32 56.14 C 29.54 59.48 32.27 54.54 29.32 56.14 M 61.62 58.90 C 65.26 59.64 68.97 59.97 72.68 60.09 C 73.20 58.82 73.73 57.54 74.24 56.27 C 70.10 57.42 65.85 58.15 61.62 58.90 M 24.68 58.14 C 25.28 59.53 25.88 60.91 26.45 62.31 C 31.36 61.78 36.00 60.03 40.25 57.56 C 35.14 58.81 29.86 59.24 24.68 58.14 M 27.01 64.42 C 28.02 65.78 29.03 67.14 30.04 68.50 C 32.71 66.05 35.31 63.54 37.87 60.99 C 34.28 62.22 30.67 63.40 27.01 64.42 M 61.44 61.66 C 63.98 63.72 66.54 65.74 69.11 67.75 C 70.49 66.00 71.85 64.23 73.19 62.45 C 69.26 62.40 65.34 62.16 61.44 61.66 Z" />
<path fill="#ffffff" opacity="1.00" d=" M 33.66 30.64 C 38.38 24.08 44.53 18.74 50.04 12.87 C 55.68 18.94 61.98 24.48 66.67 31.36 C 69.49 35.36 70.59 40.21 71.27 44.98 C 68.93 38.65 66.21 31.28 59.26 28.83 C 58.95 32.66 58.60 36.48 57.97 40.28 C 57.74 34.20 56.42 27.96 51.95 23.52 C 51.08 32.16 51.15 40.90 51.78 49.55 C 53.07 59.20 56.10 68.50 58.63 77.86 C 55.84 79.51 53.13 81.47 49.93 82.22 C 46.90 82.09 44.34 80.15 41.65 78.94 C 44.27 67.04 48.68 55.38 48.81 43.06 C 49.09 36.51 49.41 29.92 48.60 23.39 C 43.87 26.91 42.16 32.69 41.50 38.29 C 41.13 34.90 40.54 31.46 38.74 28.50 C 34.17 32.77 31.05 38.23 28.72 43.97 C 29.48 39.26 30.79 34.53 33.66 30.64 Z" />
<path fill="#ffffff" opacity="1.00" d=" M 42.08 52.20 C 43.77 51.58 44.10 54.32 42.57 54.67 C 40.86 55.33 40.53 52.53 42.08 52.20 Z" />
<path fill="#ffffff" opacity="1.00" d=" M 31.01 71.56 C 37.17 66.38 41.73 59.71 45.76 52.81 C 43.87 61.33 42.08 69.86 40.28 78.40 C 36.89 76.55 33.84 74.18 31.01 71.56 Z" />
<path fill="#ffffff" opacity="1.00" d=" M 54.19 53.75 C 58.03 60.00 62.41 65.95 68.12 70.63 C 65.57 73.04 62.96 75.38 60.14 77.45 C 57.89 69.62 56.01 61.69 54.19 53.75 Z" />
<path fill="#f2ddd5" opacity="1.00" d=" M 57.41 54.28 C 58.30 53.13 60.22 54.65 59.28 55.78 C 58.39 56.93 56.47 55.40 57.41 54.28 Z" />
<path fill="#e6beaf" opacity="1.00" d=" M 35.24 55.17 C 36.64 54.72 37.12 55.20 36.66 56.60 C 35.25 57.05 34.78 56.57 35.24 55.17 Z" />
<path fill="#f7e9e5" opacity="1.00" d=" M 29.32 56.14 C 32.27 54.54 29.54 59.48 29.32 56.14 Z" />
<path fill="#ffffff" opacity="1.00" d=" M 61.62 58.90 C 65.85 58.15 70.10 57.42 74.24 56.27 C 73.73 57.54 73.20 58.82 72.68 60.09 C 68.97 59.97 65.26 59.64 61.62 58.90 Z" />
<path fill="#ffffff" opacity="1.00" d=" M 24.68 58.14 C 29.86 59.24 35.14 58.81 40.25 57.56 C 36.00 60.03 31.36 61.78 26.45 62.31 C 25.88 60.91 25.28 59.53 24.68 58.14 Z" />
<path fill="#ffffff" opacity="1.00" d=" M 27.01 64.42 C 30.67 63.40 34.28 62.22 37.87 60.99 C 35.31 63.54 32.71 66.05 30.04 68.50 C 29.03 67.14 28.02 65.78 27.01 64.42 Z" />
<path fill="#ffffff" opacity="1.00" d=" M 61.44 61.66 C 65.34 62.16 69.26 62.40 73.19 62.45 C 71.85 64.23 70.49 66.00 69.11 67.75 C 66.54 65.74 63.98 63.72 61.44 61.66 Z" />
</svg>
