<?xml version="1.0" encoding="UTF-8" ?>
<!DOCTYPE svg PUBLIC "-//W3C//DTD SVG 1.1//EN" "http://www.w3.org/Graphics/SVG/1.1/DTD/svg11.dtd">
<svg width="100pt" height="100pt" viewBox="0 0 100 100" version="1.1" xmlns="http://www.w3.org/2000/svg">
<path fill="#c9c0c0" opacity="1.00" d=" M 54.55 12.55 C 58.53 11.47 64.05 13.45 64.65 17.99 C 64.02 21.78 60.09 24.62 60.88 28.75 C 62.17 32.12 65.03 35.86 69.04 35.62 C 71.93 35.84 75.63 36.26 76.90 39.32 C 77.52 41.70 77.05 44.20 77.45 46.62 C 79.49 50.94 83.28 54.87 82.80 60.01 C 82.94 62.55 81.71 65.43 83.34 67.69 C 86.21 72.13 89.52 76.26 92.54 80.59 C 84.03 80.63 75.52 80.59 67.01 80.48 C 59.93 80.26 55.22 87.46 48.17 87.49 C 41.59 86.42 36.73 80.58 29.90 80.42 C 22.41 80.20 14.92 80.50 7.43 80.33 C 10.77 75.59 14.05 70.81 17.42 66.10 C 16.40 63.76 15.10 61.50 14.58 58.97 C 15.80 51.64 21.49 46.40 26.92 41.88 C 30.06 39.54 29.59 35.26 30.96 31.98 C 32.73 30.00 35.55 29.47 37.47 27.69 C 39.04 24.35 39.86 20.35 43.06 18.10 C 46.61 15.76 50.48 13.81 54.55 12.55 M 47.24 18.21 C 43.22 20.13 41.94 24.59 40.15 28.29 C 39.05 30.90 36.00 31.55 33.76 32.83 C 32.79 36.45 32.15 40.51 29.19 43.11 C 24.82 47.39 19.26 51.33 17.79 57.63 C 17.49 60.92 19.40 63.90 20.49 66.90 C 18.17 70.35 15.85 73.78 13.62 77.27 C 21.19 77.66 29.24 76.28 36.33 79.67 C 40.54 81.39 44.28 84.60 48.94 85.00 C 55.26 83.88 59.97 78.51 66.44 77.75 C 73.08 76.97 79.79 77.59 86.45 77.26 C 84.59 74.55 82.54 71.96 80.93 69.08 C 79.07 66.04 80.03 62.35 79.75 59.01 C 79.75 53.82 75.18 50.13 74.65 45.07 C 74.11 43.00 74.44 40.53 73.13 38.77 C 70.51 37.44 67.43 38.42 64.64 38.57 C 62.30 35.46 59.24 32.63 58.21 28.76 C 57.52 24.34 61.47 20.88 61.53 16.59 C 57.44 12.36 51.42 16.00 47.24 18.21 Z" />
<path fill="#277373" opacity="1.00" d=" M 47.24 18.21 C 51.42 16.00 57.44 12.36 61.53 16.59 C 61.47 20.88 57.52 24.34 58.21 28.76 C 59.24 32.63 62.30 35.46 64.64 38.57 C 67.43 38.42 70.51 37.44 73.13 38.77 C 74.44 40.53 74.11 43.00 74.65 45.07 C 75.18 50.13 79.75 53.82 79.75 59.01 C 80.03 62.35 79.07 66.04 80.93 69.08 C 82.54 71.96 84.59 74.55 86.45 77.26 C 79.79 77.59 73.08 76.97 66.44 77.75 C 59.97 78.51 55.26 83.88 48.94 85.00 C 44.28 84.60 40.54 81.39 36.33 79.67 C 29.24 76.28 21.19 77.66 13.62 77.27 C 15.85 73.78 18.17 70.35 20.49 66.90 C 19.40 63.90 17.49 60.92 17.79 57.63 C 19.26 51.33 24.82 47.39 29.19 43.11 C 32.15 40.51 32.79 36.45 33.76 32.83 C 36.00 31.55 39.05 30.90 40.15 28.29 C 41.94 24.59 43.22 20.13 47.24 18.21 M 45.76 22.70 C 42.41 27.23 43.04 33.21 43.81 38.46 C 41.65 36.42 39.51 34.35 37.24 32.44 C 35.91 36.41 35.45 41.11 32.14 44.06 C 28.14 47.76 23.36 51.09 21.22 56.31 C 19.66 59.54 21.99 62.84 23.17 65.78 C 25.20 70.80 30.03 73.65 34.47 76.28 C 30.05 70.73 23.59 65.77 23.20 58.11 C 24.46 52.78 29.28 49.50 33.08 45.98 C 36.14 43.44 37.78 39.74 39.91 36.47 C 40.34 39.43 40.61 42.41 40.85 45.39 C 42.68 43.15 45.09 41.10 45.84 38.22 C 46.12 34.28 44.94 30.23 46.37 26.40 C 47.31 22.92 50.93 21.43 53.64 19.55 C 53.27 22.98 52.50 26.45 52.98 29.90 C 53.88 33.29 56.44 35.85 58.35 38.69 C 60.90 42.16 63.02 45.91 64.97 49.74 C 66.06 47.30 67.03 44.81 68.05 42.34 C 68.74 45.33 69.27 48.45 70.98 51.06 C 73.07 54.50 75.85 58.31 74.63 62.57 C 73.12 68.89 66.55 71.64 62.72 76.34 C 69.20 73.85 75.92 69.17 77.20 61.87 C 78.15 57.12 74.69 53.23 72.57 49.35 C 70.82 46.41 71.35 42.87 71.18 39.62 C 68.73 40.57 66.36 41.70 63.97 42.80 C 61.33 38.85 58.13 35.25 55.87 31.06 C 53.70 26.05 56.72 20.95 59.00 16.59 C 54.29 17.69 49.13 18.97 45.76 22.70 M 36.52 52.58 C 34.10 53.72 31.39 53.97 28.81 54.55 C 29.70 65.66 35.80 76.94 46.06 81.92 C 49.09 83.70 52.32 81.51 54.84 79.85 C 63.00 74.06 67.45 64.33 68.80 54.63 C 66.71 54.19 64.58 53.90 62.56 53.20 C 59.92 52.06 58.36 49.34 55.76 48.14 C 50.75 47.06 45.58 47.71 40.53 48.05 C 39.26 49.60 38.24 51.47 36.52 52.58 Z" />
<path fill="#ffffff" opacity="1.00" d=" M 45.76 22.70 C 49.13 18.97 54.29 17.69 59.00 16.59 C 56.72 20.95 53.70 26.05 55.87 31.06 C 58.13 35.25 61.33 38.85 63.97 42.80 C 66.36 41.70 68.73 40.57 71.18 39.62 C 71.35 42.87 70.82 46.41 72.57 49.35 C 74.69 53.23 78.15 57.12 77.20 61.87 C 75.92 69.17 69.20 73.85 62.72 76.34 C 66.55 71.64 73.12 68.89 74.63 62.57 C 75.85 58.31 73.07 54.50 70.98 51.06 C 69.27 48.45 68.74 45.33 68.05 42.34 C 67.03 44.81 66.06 47.30 64.97 49.74 C 63.02 45.91 60.90 42.16 58.35 38.69 C 56.44 35.85 53.88 33.29 52.98 29.90 C 52.50 26.45 53.27 22.98 53.64 19.55 C 50.93 21.43 47.31 22.92 46.37 26.40 C 44.94 30.23 46.12 34.28 45.84 38.22 C 45.09 41.10 42.68 43.15 40.85 45.39 C 40.61 42.41 40.34 39.43 39.91 36.47 C 37.78 39.74 36.14 43.44 33.08 45.98 C 29.28 49.50 24.46 52.78 23.20 58.11 C 23.59 65.77 30.05 70.73 34.47 76.28 C 30.03 73.65 25.20 70.80 23.17 65.78 C 21.99 62.84 19.66 59.54 21.22 56.31 C 23.36 51.09 28.14 47.76 32.14 44.06 C 35.45 41.11 35.91 36.41 37.24 32.44 C 39.51 34.35 41.65 36.42 43.81 38.46 C 43.04 33.21 42.41 27.23 45.76 22.70 Z" />
<path fill="#ffffff" opacity="1.00" d=" M 36.52 52.58 C 38.24 51.47 39.26 49.60 40.53 48.05 C 45.58 47.71 50.75 47.06 55.76 48.14 C 58.36 49.34 59.92 52.06 62.56 53.20 C 64.58 53.90 66.71 54.19 68.80 54.63 C 67.45 64.33 63.00 74.06 54.84 79.85 C 52.32 81.51 49.09 83.70 46.06 81.92 C 35.80 76.94 29.70 65.66 28.81 54.55 C 31.39 53.97 34.10 53.72 36.52 52.58 M 31.94 56.92 C 32.90 63.97 36.04 70.82 41.87 75.14 C 44.44 76.93 47.73 80.17 51.01 78.12 C 59.17 74.20 64.41 66.05 65.83 57.25 C 62.51 56.15 59.18 54.87 56.55 52.48 C 53.15 49.27 47.75 49.20 43.59 50.75 C 40.05 53.42 36.40 56.04 31.94 56.92 Z" />
<path fill="#015a5a" opacity="1.00" d=" M 31.94 56.92 C 36.40 56.04 40.05 53.42 43.59 50.75 C 47.75 49.20 53.15 49.27 56.55 52.48 C 59.18 54.87 62.51 56.15 65.83 57.25 C 64.41 66.05 59.17 74.20 51.01 78.12 C 47.73 80.17 44.44 76.93 41.87 75.14 C 36.04 70.82 32.90 63.97 31.94 56.92 M 34.67 58.72 C 35.84 62.22 36.93 65.84 39.15 68.85 C 41.67 72.30 45.34 74.63 48.84 76.96 C 52.14 74.61 55.63 72.36 58.16 69.14 C 60.56 66.13 61.75 62.42 62.99 58.83 C 57.19 57.01 52.88 50.18 46.23 52.09 C 42.21 53.97 38.87 57.11 34.67 58.72 Z" />
<path fill="#ffffff" opacity="1.00" d=" M 34.67 58.72 C 38.87 57.11 42.21 53.97 46.23 52.09 C 52.88 50.18 57.19 57.01 62.99 58.83 C 61.75 62.42 60.56 66.13 58.16 69.14 C 55.63 72.36 52.14 74.61 48.84 76.96 C 45.34 74.63 41.67 72.30 39.15 68.85 C 36.93 65.84 35.84 62.22 34.67 58.72 Z" />
</svg>
