<?xml version="1.0" encoding="UTF-8" ?>
<!DOCTYPE svg PUBLIC "-//W3C//DTD SVG 1.1//EN" "http://www.w3.org/Graphics/SVG/1.1/DTD/svg11.dtd">
<svg width="100pt" height="100pt" viewBox="0 0 100 100" version="1.1" xmlns="http://www.w3.org/2000/svg">
<path fill="#ffffff" opacity="1.00" d=" M 42.44 12.62 C 60.88 8.24 81.25 20.57 86.42 38.75 C 91.90 54.42 84.74 73.01 70.91 81.88 C 61.53 87.91 49.46 90.23 38.78 86.43 C 20.07 81.15 7.61 59.76 12.96 40.96 C 16.22 26.83 28.23 15.37 42.44 12.62 M 29.80 21.79 C 17.04 30.69 11.63 48.63 17.84 62.99 C 21.29 60.40 24.49 57.34 28.58 55.78 C 26.42 59.97 21.59 61.45 18.44 64.73 C 20.42 68.46 22.83 71.98 25.88 74.93 C 30.72 71.47 35.16 67.44 40.25 64.32 C 54.74 56.30 68.59 47.19 82.85 38.79 C 81.72 35.50 80.08 32.41 78.01 29.61 C 73.50 31.64 69.18 34.06 64.76 36.27 C 63.71 34.94 62.66 33.62 61.61 32.30 C 65.47 29.63 69.53 27.25 73.45 24.67 C 62.19 13.22 42.55 12.27 29.80 21.79 M 42.86 66.87 C 37.22 69.18 31.97 72.35 27.13 76.04 C 39.38 87.43 60.00 87.55 72.46 76.43 C 80.75 69.48 85.26 58.59 84.77 47.83 C 70.13 52.61 57.20 61.34 42.86 66.87 Z" />
<path fill="#482b46" opacity="1.00" d=" M 29.80 21.79 C 42.55 12.27 62.19 13.22 73.45 24.67 C 69.53 27.25 65.47 29.63 61.61 32.30 C 62.66 33.62 63.71 34.94 64.76 36.27 C 69.18 34.06 73.50 31.64 78.01 29.61 C 80.08 32.41 81.72 35.50 82.85 38.79 C 68.59 47.19 54.74 56.30 40.25 64.32 C 35.16 67.44 30.72 71.47 25.88 74.93 C 22.83 71.98 20.42 68.46 18.44 64.73 C 21.59 61.45 26.42 59.97 28.58 55.78 C 24.49 57.34 21.29 60.40 17.84 62.99 C 11.63 48.63 17.04 30.69 29.80 21.79 M 49.25 23.00 C 41.82 31.92 34.47 40.91 27.25 50.00 C 30.71 54.54 34.30 58.99 38.11 63.25 C 39.21 62.58 40.33 61.93 41.45 61.29 C 39.43 58.63 37.35 56.01 35.41 53.29 C 39.91 54.36 44.19 56.50 48.83 56.91 C 51.70 56.18 54.01 54.16 56.39 52.50 C 54.04 53.20 51.69 53.91 49.35 54.67 C 49.42 46.35 49.29 38.02 49.45 29.70 C 54.87 35.30 59.27 41.77 64.40 47.62 C 65.55 47.01 66.73 46.44 67.91 45.90 C 62.02 38.01 55.78 30.36 49.25 23.00 Z" />
<path fill="#ffffff" opacity="1.00" d=" M 49.25 23.00 C 55.78 30.36 62.02 38.01 67.91 45.90 C 66.73 46.44 65.55 47.01 64.40 47.62 C 59.27 41.77 54.87 35.30 49.45 29.70 C 49.29 38.02 49.42 46.35 49.35 54.67 C 51.69 53.91 54.04 53.20 56.39 52.50 C 54.01 54.16 51.70 56.18 48.83 56.91 C 44.19 56.50 39.91 54.36 35.41 53.29 C 37.35 56.01 39.43 58.63 41.45 61.29 C 40.33 61.93 39.21 62.58 38.11 63.25 C 34.30 58.99 30.71 54.54 27.25 50.00 C 34.47 40.91 41.82 31.92 49.25 23.00 Z" />
<path fill="#482b46" opacity="1.00" d=" M 42.86 66.87 C 57.20 61.34 70.13 52.61 84.77 47.83 C 85.26 58.59 80.75 69.48 72.46 76.43 C 60.00 87.55 39.38 87.43 27.13 76.04 C 31.97 72.35 37.22 69.18 42.86 66.87 M 49.51 70.13 C 48.31 69.27 47.11 68.41 45.89 67.57 C 44.86 68.02 43.81 68.45 42.77 68.87 C 44.71 71.74 46.90 74.44 49.24 77.00 C 54.27 71.51 59.03 65.73 63.31 59.63 C 57.38 61.13 53.31 65.67 49.51 70.13 Z" />
<path fill="#ffffff" opacity="1.00" d=" M 49.51 70.13 C 53.31 65.67 57.38 61.13 63.31 59.63 C 59.03 65.73 54.27 71.51 49.24 77.00 C 46.90 74.44 44.71 71.74 42.77 68.87 C 43.81 68.45 44.86 68.02 45.89 67.57 C 47.11 68.41 48.31 69.27 49.51 70.13 Z" />
</svg>
