<?xml version="1.0" encoding="UTF-8" ?>
<!DOCTYPE svg PUBLIC "-//W3C//DTD SVG 1.1//EN" "http://www.w3.org/Graphics/SVG/1.1/DTD/svg11.dtd">
<svg width="100pt" height="100pt" viewBox="0 0 100 100" version="1.1" xmlns="http://www.w3.org/2000/svg">
<path fill="#bfbcbc" opacity="1.00" d=" M 24.93 26.98 C 25.51 20.02 28.45 13.53 31.94 7.57 C 35.04 14.96 40.43 21.77 40.56 30.10 C 40.73 33.09 40.74 36.09 40.78 39.09 C 44.34 37.35 48.04 35.88 51.83 34.71 C 55.21 33.66 58.79 35.32 62.16 34.27 C 65.42 32.96 67.37 29.82 70.26 27.99 C 72.63 27.13 75.49 28.29 76.79 30.40 C 77.49 32.66 77.20 35.08 77.31 37.41 C 79.60 38.36 82.36 38.89 83.92 40.99 C 84.92 42.86 85.06 45.03 85.45 47.08 C 86.84 47.23 88.23 47.38 89.62 47.54 C 89.62 54.73 89.59 61.91 89.65 69.10 C 82.89 69.44 76.12 69.21 69.35 69.29 C 67.41 73.53 63.96 76.62 60.53 79.62 C 58.83 82.54 62.32 84.87 63.93 86.90 C 59.31 88.60 54.80 90.59 50.13 92.14 C 47.76 93.05 45.47 91.45 43.28 90.73 C 39.42 88.93 35.12 87.95 31.59 85.52 C 29.45 80.42 27.87 74.87 28.82 69.30 C 22.31 69.21 15.79 69.40 9.28 69.14 C 9.29 61.86 9.26 54.59 9.31 47.32 C 15.16 47.40 21.02 47.56 26.87 47.15 C 26.18 40.44 24.75 33.76 24.93 26.98 M 26.76 31.00 C 27.19 37.25 28.52 43.39 28.85 49.65 C 23.32 49.59 17.79 49.49 12.27 49.84 C 12.27 55.57 12.27 61.30 12.28 67.04 C 18.19 67.38 24.11 67.26 30.02 67.24 C 30.77 73.01 30.46 79.17 33.63 84.34 C 37.85 87.07 42.77 88.67 47.53 90.21 C 51.93 90.56 55.86 87.84 59.82 86.30 C 59.13 84.03 58.12 81.71 58.39 79.28 C 59.35 77.64 61.07 76.67 62.42 75.39 C 65.08 73.27 66.66 70.21 68.33 67.32 C 74.50 67.18 80.67 67.39 86.83 67.07 C 86.92 61.23 86.98 55.38 86.70 49.54 C 82.57 49.72 78.41 49.59 74.32 48.97 C 74.32 48.22 74.32 46.72 74.32 45.98 C 75.84 46.82 77.30 47.85 78.98 48.36 C 80.54 48.12 81.99 47.47 83.49 47.01 C 83.13 45.29 83.26 43.31 82.24 41.82 C 80.24 40.13 77.27 40.19 75.27 38.54 C 74.26 35.96 76.11 32.70 74.37 30.47 C 70.78 27.83 68.32 32.91 65.57 34.50 C 61.42 38.15 55.69 35.20 50.94 36.89 C 47.64 38.01 44.11 39.13 41.57 41.64 C 40.17 44.26 40.09 47.36 39.19 50.17 C 38.46 42.92 39.30 35.62 38.57 28.38 C 38.01 22.31 34.59 17.08 31.76 11.85 C 28.45 17.64 26.26 24.27 26.76 31.00 Z" />
<path fill="#2c6d6d" opacity="1.00" d=" M 26.76 31.00 C 26.26 24.27 28.45 17.64 31.76 11.85 C 34.59 17.08 38.01 22.31 38.57 28.38 C 39.30 35.62 38.46 42.92 39.19 50.17 C 40.09 47.36 40.17 44.26 41.57 41.64 C 44.11 39.13 47.64 38.01 50.94 36.89 C 55.69 35.20 61.42 38.15 65.57 34.50 C 68.32 32.91 70.78 27.83 74.37 30.47 C 76.11 32.70 74.26 35.96 75.27 38.54 C 77.27 40.19 80.24 40.13 82.24 41.82 C 83.26 43.31 83.13 45.29 83.49 47.01 C 81.99 47.47 80.54 48.12 78.98 48.36 C 77.30 47.85 75.84 46.82 74.32 45.98 C 74.32 46.72 74.32 48.22 74.32 48.97 C 78.41 49.59 82.57 49.72 86.70 49.54 C 86.98 55.38 86.92 61.23 86.83 67.07 C 80.67 67.39 74.50 67.18 68.33 67.32 C 66.66 70.21 65.08 73.27 62.42 75.39 C 61.07 76.67 59.35 77.64 58.39 79.28 C 58.12 81.71 59.13 84.03 59.82 86.30 C 55.86 87.84 51.93 90.56 47.53 90.21 C 42.77 88.67 37.85 87.07 33.63 84.34 C 30.46 79.17 30.77 73.01 30.02 67.24 C 24.11 67.26 18.19 67.38 12.28 67.04 C 12.27 61.30 12.27 55.57 12.27 49.84 C 17.79 49.49 23.32 49.59 28.85 49.65 C 28.52 43.39 27.19 37.25 26.76 31.00 M 29.19 24.22 C 27.47 36.68 33.73 49.06 30.75 61.45 C 28.99 61.68 27.23 61.94 25.49 62.28 C 28.21 63.26 31.07 63.87 33.96 63.88 C 37.82 63.87 41.97 64.46 45.46 62.43 C 43.30 62.15 41.12 62.02 38.94 61.88 C 35.08 52.68 37.30 42.57 36.65 32.93 C 36.81 26.82 34.86 20.93 31.97 15.63 C 30.86 18.43 29.75 21.25 29.19 24.22 M 68.00 36.88 C 64.55 38.82 60.40 39.01 56.54 38.50 C 51.70 37.73 47.33 40.54 43.29 42.78 C 42.24 46.53 42.30 50.43 43.41 54.15 C 44.89 56.21 46.15 58.63 48.44 59.91 C 52.64 58.10 54.75 53.63 58.18 50.80 C 57.52 53.18 56.25 55.29 54.92 57.34 C 58.25 57.43 61.08 55.97 62.90 53.20 C 66.17 54.60 69.58 55.64 73.05 56.45 C 73.98 54.54 74.93 52.63 75.85 50.71 C 74.15 51.47 72.48 52.29 70.80 53.09 C 69.99 52.30 69.18 51.52 68.34 50.77 C 71.03 49.17 72.45 46.37 74.36 44.02 C 76.92 43.96 79.44 44.54 81.96 44.95 C 80.09 42.05 76.65 41.98 73.62 41.31 C 71.74 38.17 71.66 34.27 72.39 30.76 C 70.94 32.81 69.68 35.01 68.00 36.88 M 55.93 57.91 C 60.30 60.12 63.84 63.47 66.79 67.32 C 65.32 63.95 63.73 60.31 60.67 58.08 C 59.10 57.88 57.51 57.93 55.93 57.91 M 47.44 62.94 C 48.57 63.69 49.75 64.35 50.98 64.92 C 49.04 64.58 47.09 64.35 45.15 64.04 C 44.68 65.51 44.17 66.98 43.65 68.44 C 40.08 69.71 37.47 72.30 35.88 75.73 C 34.65 75.53 33.41 75.37 32.17 75.25 C 33.82 78.02 35.17 81.19 37.91 83.09 C 40.41 84.77 43.23 85.93 46.06 86.91 C 49.96 88.28 53.96 86.21 57.32 84.36 C 53.14 82.49 48.54 82.22 44.05 81.88 C 42.04 81.63 39.57 81.62 38.31 79.74 C 36.11 77.11 38.97 74.02 39.85 71.42 C 41.68 71.49 43.54 71.77 45.35 71.37 C 47.28 70.88 48.03 68.82 49.03 67.33 C 51.36 67.54 53.69 67.73 56.03 67.76 C 56.05 68.28 56.10 69.32 56.12 69.84 C 55.09 71.27 54.13 72.75 53.21 74.26 C 55.29 72.72 57.41 71.09 58.78 68.85 L 59.17 69.70 C 58.07 72.87 55.45 75.19 53.79 78.05 C 57.90 76.49 62.41 74.24 64.23 69.97 C 63.91 67.26 62.42 64.90 61.05 62.61 C 60.57 64.45 60.11 66.31 59.60 68.15 C 59.37 65.80 58.59 63.56 57.98 61.29 L 57.63 61.79 C 57.80 60.13 56.08 60.23 54.92 60.10 C 52.08 59.70 49.75 61.64 47.44 62.94 M 31.70 65.47 C 32.07 66.62 32.41 67.79 32.73 68.97 C 35.12 68.21 37.54 67.53 40.01 67.06 C 39.97 66.60 39.89 65.66 39.85 65.19 C 37.13 65.32 34.42 65.41 31.70 65.47 M 41.13 65.18 C 40.60 66.81 41.15 67.37 42.77 66.84 C 43.30 65.21 42.75 64.65 41.13 65.18 M 32.60 73.86 C 33.37 73.84 34.91 73.81 35.68 73.79 C 36.45 71.98 37.24 70.18 37.98 68.36 C 35.62 69.56 33.59 71.34 32.60 73.86 M 53.27 69.15 C 52.30 69.46 50.98 70.60 51.62 71.70 C 53.27 73.10 56.13 68.82 53.27 69.15 M 49.19 70.32 C 47.44 70.50 47.32 73.65 49.12 73.84 C 50.85 73.67 50.96 70.50 49.19 70.32 M 39.93 73.10 C 40.22 74.07 40.53 75.04 40.84 76.01 C 40.33 76.83 39.82 77.66 39.31 78.49 C 41.72 78.28 44.15 77.99 46.44 77.17 C 44.95 74.97 42.09 74.42 39.93 73.10 M 45.34 73.08 C 45.46 76.42 48.32 71.55 45.34 73.08 M 45.81 78.91 C 48.81 78.63 51.63 77.47 53.17 74.73 C 50.37 75.43 47.93 76.99 45.81 78.91 M 54.24 78.91 C 52.54 79.32 53.48 81.93 55.05 81.29 C 56.76 80.89 55.81 78.27 54.24 78.91 Z" />
<path fill="#ffffff" opacity="1.00" d=" M 29.19 24.22 C 29.75 21.25 30.86 18.43 31.97 15.63 C 34.86 20.93 36.81 26.82 36.65 32.93 C 37.30 42.57 35.08 52.68 38.94 61.88 C 41.12 62.02 43.30 62.15 45.46 62.43 C 41.97 64.46 37.82 63.87 33.96 63.88 C 31.07 63.87 28.21 63.26 25.49 62.28 C 27.23 61.94 28.99 61.68 30.75 61.45 C 33.73 49.06 27.47 36.68 29.19 24.22 M 33.44 30.86 C 32.65 41.14 34.79 51.59 32.31 61.73 C 32.59 62.07 33.14 62.76 33.42 63.10 C 33.78 61.32 34.16 59.55 34.56 57.78 C 35.01 59.65 35.53 61.51 35.91 63.40 C 36.18 63.00 36.72 62.20 37.00 61.80 C 33.72 51.83 34.22 41.20 33.44 30.86 Z" />
<path fill="#2c6d6d" opacity="1.00" d=" M 33.44 30.86 C 34.22 41.20 33.72 51.83 37.00 61.80 C 36.72 62.20 36.18 63.00 35.91 63.40 C 35.53 61.51 35.01 59.65 34.56 57.78 C 34.16 59.55 33.78 61.32 33.42 63.10 C 33.14 62.76 32.59 62.07 32.31 61.73 C 34.79 51.59 32.65 41.14 33.44 30.86 Z" />
<path fill="#ffffff" opacity="1.00" d=" M 68.00 36.88 C 69.68 35.01 70.94 32.81 72.39 30.76 C 71.66 34.27 71.74 38.17 73.62 41.31 C 76.65 41.98 80.09 42.05 81.96 44.95 C 79.44 44.54 76.92 43.96 74.36 44.02 C 72.45 46.37 71.03 49.17 68.34 50.77 C 69.18 51.52 69.99 52.30 70.80 53.09 C 72.48 52.29 74.15 51.47 75.85 50.71 C 74.93 52.63 73.98 54.54 73.05 56.45 C 69.58 55.64 66.17 54.60 62.90 53.20 C 61.08 55.97 58.25 57.43 54.92 57.34 C 56.25 55.29 57.52 53.18 58.18 50.80 C 54.75 53.63 52.64 58.10 48.44 59.91 C 46.15 58.63 44.89 56.21 43.41 54.15 C 44.37 51.04 45.28 47.91 46.24 44.79 C 45.25 44.13 44.27 43.45 43.29 42.78 C 47.33 40.54 51.70 37.73 56.54 38.50 C 60.40 39.01 64.55 38.82 68.00 36.88 M 70.23 37.03 C 69.73 38.41 70.19 38.91 71.61 38.51 C 72.11 37.12 71.65 36.63 70.23 37.03 M 46.79 46.70 C 51.38 48.38 56.75 50.61 61.32 47.61 C 57.13 47.62 52.93 47.81 48.78 47.09 C 49.95 45.47 51.03 43.73 52.58 42.43 C 57.12 41.95 61.68 43.07 66.24 42.69 C 61.66 41.75 56.91 40.22 52.21 41.18 C 49.79 42.29 48.40 44.71 46.79 46.70 M 45.57 54.13 C 46.93 54.17 48.29 54.15 49.64 54.12 C 49.66 53.25 49.71 51.51 49.73 50.64 C 48.29 51.73 46.97 52.98 45.57 54.13 Z" />
<path fill="#759e9e" opacity="1.00" d=" M 70.23 37.03 C 71.65 36.63 72.11 37.12 71.61 38.51 C 70.19 38.91 69.73 38.41 70.23 37.03 Z" />
<path fill="#2c6d6d" opacity="1.00" d=" M 46.79 46.70 C 48.40 44.71 49.79 42.29 52.21 41.18 C 56.91 40.22 61.66 41.75 66.24 42.69 C 61.68 43.07 57.12 41.95 52.58 42.43 C 51.03 43.73 49.95 45.47 48.78 47.09 C 52.93 47.81 57.13 47.62 61.32 47.61 C 56.75 50.61 51.38 48.38 46.79 46.70 Z" />
<path fill="#9ab9b9" opacity="1.00" d=" M 43.41 54.15 C 42.30 50.43 42.24 46.53 43.29 42.78 C 44.27 43.45 45.25 44.13 46.24 44.79 C 45.28 47.91 44.37 51.04 43.41 54.15 Z" />
<path fill="#2c6d6d" opacity="1.00" d=" M 45.57 54.13 C 46.97 52.98 48.29 51.73 49.73 50.64 C 49.71 51.51 49.66 53.25 49.64 54.12 C 48.29 54.15 46.93 54.17 45.57 54.13 Z" />
<path fill="#ffffff" opacity="1.00" d=" M 55.93 57.91 C 57.51 57.93 59.10 57.88 60.67 58.08 C 63.73 60.31 65.32 63.95 66.79 67.32 C 63.84 63.47 60.30 60.12 55.93 57.91 Z" />
<path fill="#ffffff" opacity="1.00" d=" M 47.44 62.94 C 49.75 61.64 52.08 59.70 54.92 60.10 C 56.08 60.23 57.80 60.13 57.63 61.79 C 56.82 62.94 56.01 64.09 54.96 65.03 C 53.73 65.69 52.27 65.03 50.98 64.92 C 49.75 64.35 48.57 63.69 47.44 62.94 Z" />
<path fill="#7da5a5" opacity="1.00" d=" M 54.96 65.03 C 56.01 64.09 56.82 62.94 57.63 61.79 L 57.98 61.29 C 58.59 63.56 59.37 65.80 59.60 68.15 C 59.49 68.54 59.28 69.31 59.17 69.70 L 58.78 68.85 C 58.59 68.43 58.21 67.58 58.03 67.15 C 57.39 68.04 56.75 68.94 56.12 69.84 C 56.10 69.32 56.05 68.28 56.03 67.76 C 53.69 67.73 51.36 67.54 49.03 67.33 C 48.05 67.22 47.07 67.08 46.09 66.97 C 45.30 67.50 44.48 67.97 43.65 68.44 C 44.17 66.98 44.68 65.51 45.15 64.04 C 47.09 64.35 49.04 64.58 50.98 64.92 C 52.27 65.03 53.73 65.69 54.96 65.03 Z" />
<path fill="#ffffff" opacity="1.00" d=" M 61.05 62.61 C 62.42 64.90 63.91 67.26 64.23 69.97 C 62.41 74.24 57.90 76.49 53.79 78.05 C 55.45 75.19 58.07 72.87 59.17 69.70 C 59.28 69.31 59.49 68.54 59.60 68.15 C 60.11 66.31 60.57 64.45 61.05 62.61 Z" />
<path fill="#ffffff" opacity="1.00" d=" M 31.70 65.47 C 34.42 65.41 37.13 65.32 39.85 65.19 C 39.89 65.66 39.97 66.60 40.01 67.06 C 37.54 67.53 35.12 68.21 32.73 68.97 C 32.41 67.79 32.07 66.62 31.70 65.47 Z" />
<path fill="#d1dfdf" opacity="1.00" d=" M 41.13 65.18 C 42.75 64.65 43.30 65.21 42.77 66.84 C 41.15 67.37 40.60 66.81 41.13 65.18 Z" />
<path fill="#ffffff" opacity="1.00" d=" M 43.65 68.44 C 44.48 67.97 45.30 67.50 46.09 66.97 C 47.07 67.08 48.05 67.22 49.03 67.33 C 48.03 68.82 47.28 70.88 45.35 71.37 C 43.54 71.77 41.68 71.49 39.85 71.42 C 38.97 74.02 36.11 77.11 38.31 79.74 C 39.57 81.62 42.04 81.63 44.05 81.88 C 48.54 82.22 53.14 82.49 57.32 84.36 C 53.96 86.21 49.96 88.28 46.06 86.91 C 43.23 85.93 40.41 84.77 37.91 83.09 C 35.17 81.19 33.82 78.02 32.17 75.25 C 33.41 75.37 34.65 75.53 35.88 75.73 C 37.47 72.30 40.08 69.71 43.65 68.44 Z" />
<path fill="#ffffff" opacity="1.00" d=" M 56.12 69.84 C 56.75 68.94 57.39 68.04 58.03 67.15 C 58.21 67.58 58.59 68.43 58.78 68.85 C 57.41 71.09 55.29 72.72 53.21 74.26 C 54.13 72.75 55.09 71.27 56.12 69.84 Z" />
<path fill="#eef3f3" opacity="1.00" d=" M 32.60 73.86 C 33.59 71.34 35.62 69.56 37.98 68.36 C 37.24 70.18 36.45 71.98 35.68 73.79 C 34.91 73.81 33.37 73.84 32.60 73.86 Z" />
<path fill="#ffffff" opacity="1.00" d=" M 53.27 69.15 C 56.13 68.82 53.27 73.10 51.62 71.70 C 50.98 70.60 52.30 69.46 53.27 69.15 Z" />
<path fill="#dfe9e9" opacity="1.00" d=" M 49.19 70.32 C 50.96 70.50 50.85 73.67 49.12 73.84 C 47.32 73.65 47.44 70.50 49.19 70.32 Z" />
<path fill="#ffffff" opacity="1.00" d=" M 39.93 73.10 C 42.09 74.42 44.95 74.97 46.44 77.17 C 44.15 77.99 41.72 78.28 39.31 78.49 C 39.82 77.66 40.33 76.83 40.84 76.01 C 40.53 75.04 40.22 74.07 39.93 73.10 Z" />
<path fill="#b6cdcd" opacity="1.00" d=" M 45.34 73.08 C 48.32 71.55 45.46 76.42 45.34 73.08 Z" />
<path fill="#ffffff" opacity="1.00" d=" M 45.81 78.91 C 47.93 76.99 50.37 75.43 53.17 74.73 C 51.63 77.47 48.81 78.63 45.81 78.91 Z" />
<path fill="#8aaeae" opacity="1.00" d=" M 54.24 78.91 C 55.81 78.27 56.76 80.89 55.05 81.29 C 53.48 81.93 52.54 79.32 54.24 78.91 Z" />
</svg>
