<?xml version="1.0" encoding="UTF-8" ?>
<!DOCTYPE svg PUBLIC "-//W3C//DTD SVG 1.1//EN" "http://www.w3.org/Graphics/SVG/1.1/DTD/svg11.dtd">
<svg width="100pt" height="100pt" viewBox="0 0 100 100" version="1.1" xmlns="http://www.w3.org/2000/svg">
<path fill="#c2bac4" opacity="1.00" d=" M 33.13 21.13 C 37.71 17.01 43.97 15.35 49.97 14.72 C 57.53 14.56 65.51 17.71 69.98 24.01 C 72.08 26.88 73.30 30.53 76.41 32.54 C 80.82 35.64 85.38 38.54 89.86 41.54 C 88.81 45.00 87.12 48.34 86.75 51.98 C 87.24 56.58 88.28 61.33 86.78 65.88 C 84.91 73.61 79.38 79.68 73.69 84.90 C 68.47 85.78 63.13 85.72 57.87 85.39 C 47.23 84.89 36.58 85.76 25.95 85.23 C 23.23 80.38 18.75 76.82 16.12 71.92 C 14.08 68.32 12.89 64.20 13.11 60.04 C 13.10 56.95 14.11 53.81 13.23 50.77 C 12.34 47.65 11.16 44.62 10.13 41.55 C 15.22 38.15 20.34 34.79 25.41 31.35 C 29.30 29.05 29.86 24.03 33.13 21.13 M 36.19 21.20 C 31.17 24.22 31.47 31.41 26.41 34.34 C 22.24 37.14 17.96 39.77 14.00 42.86 C 14.95 46.00 16.46 49.17 16.10 52.53 C 15.54 57.04 14.34 61.71 15.84 66.18 C 17.97 72.62 22.31 78.49 28.16 82.00 C 33.74 85.07 40.05 82.02 45.97 82.32 C 53.22 81.66 60.34 84.35 67.56 83.39 C 76.90 81.73 83.16 72.93 85.17 64.16 C 86.27 60.09 85.04 55.99 84.28 51.99 C 83.66 48.83 85.11 45.78 85.97 42.82 C 82.06 39.74 77.60 37.41 73.84 34.14 C 70.62 30.54 69.54 25.40 65.74 22.22 C 57.70 15.08 44.90 15.57 36.19 21.20 Z" />
<path fill="#26960f" opacity="1.00" d=" M 36.19 21.20 C 44.90 15.57 57.70 15.08 65.74 22.22 C 69.54 25.40 70.62 30.54 73.84 34.14 C 77.60 37.41 82.06 39.74 85.97 42.82 C 85.11 45.78 83.66 48.83 84.28 51.99 C 85.04 55.99 86.27 60.09 85.17 64.16 C 83.16 72.93 76.90 81.73 67.56 83.39 C 60.34 84.35 53.22 81.66 45.97 82.32 C 40.05 82.02 33.74 85.07 28.16 82.00 C 22.31 78.49 17.97 72.62 15.84 66.18 C 14.34 61.71 15.54 57.04 16.10 52.53 C 16.46 49.17 14.95 46.00 14.00 42.86 C 17.96 39.77 22.24 37.14 26.41 34.34 C 31.47 31.41 31.17 24.22 36.19 21.20 M 33.54 27.43 C 37.23 25.32 40.79 22.65 45.09 21.99 C 52.39 20.79 60.30 24.90 63.35 31.67 C 64.88 34.92 63.55 38.50 63.62 41.90 C 64.06 43.92 65.30 45.66 66.25 47.47 C 68.58 43.81 70.53 39.58 69.86 35.12 C 68.92 26.00 60.02 19.06 51.01 19.52 C 44.28 19.36 38.22 22.86 33.54 27.43 M 50.26 25.91 C 42.14 39.90 34.03 53.90 26.01 67.95 C 42.17 68.10 58.35 68.17 74.51 67.91 C 66.61 53.81 58.52 39.80 50.26 25.91 M 25.44 45.42 C 18.64 49.69 15.73 58.91 18.63 66.36 C 21.27 73.97 28.17 79.31 35.83 81.25 C 32.90 79.54 29.80 78.05 27.24 75.79 C 21.10 70.40 19.91 60.31 24.59 53.63 C 26.59 50.64 30.29 49.82 33.21 48.06 C 34.99 46.75 35.90 44.63 37.09 42.83 C 33.13 43.07 28.87 43.14 25.44 45.42 M 81.77 52.83 C 81.49 57.47 81.85 62.42 79.64 66.67 C 76.52 72.62 69.78 76.70 63.02 76.13 C 59.38 75.79 56.85 72.83 53.64 71.46 C 51.72 71.07 49.75 71.12 47.81 71.03 C 49.72 74.07 51.76 77.25 54.98 79.05 C 62.95 83.69 73.99 80.46 78.73 72.69 C 82.79 66.91 83.17 59.54 81.77 52.83 Z" />
<path fill="#ffffff" opacity="1.00" d=" M 33.54 27.43 C 38.22 22.86 44.28 19.36 51.01 19.52 C 60.02 19.06 68.92 26.00 69.86 35.12 C 70.53 39.58 68.58 43.81 66.25 47.47 C 65.30 45.66 64.06 43.92 63.62 41.90 C 63.55 38.50 64.88 34.92 63.35 31.67 C 60.30 24.90 52.39 20.79 45.09 21.99 C 40.79 22.65 37.23 25.32 33.54 27.43 Z" />
<path fill="#ffffff" opacity="1.00" d=" M 50.26 25.91 C 58.52 39.80 66.61 53.81 74.51 67.91 C 58.35 68.17 42.17 68.10 26.01 67.95 C 34.03 53.90 42.14 39.90 50.26 25.91 M 51.24 31.41 C 51.07 38.78 51.11 46.16 51.26 53.53 C 57.63 57.04 63.79 60.93 70.28 64.24 C 64.13 53.19 57.93 42.14 51.24 31.41 M 31.52 66.04 C 43.95 66.30 56.40 66.40 68.82 65.98 C 62.86 61.91 56.49 58.47 50.17 55.01 C 43.95 58.69 37.55 62.06 31.52 66.04 Z" />
<path fill="#26960f" opacity="1.00" d=" M 51.24 31.41 C 57.93 42.14 64.13 53.19 70.28 64.24 C 63.79 60.93 57.63 57.04 51.26 53.53 C 51.11 46.16 51.07 38.78 51.24 31.41 Z" />
<path fill="#ffffff" opacity="1.00" d=" M 25.44 45.42 C 28.87 43.14 33.13 43.07 37.09 42.83 C 35.90 44.63 34.99 46.75 33.21 48.06 C 30.29 49.82 26.59 50.64 24.59 53.63 C 19.91 60.31 21.10 70.40 27.24 75.79 C 29.80 78.05 32.90 79.54 35.83 81.25 C 28.17 79.31 21.27 73.97 18.63 66.36 C 15.73 58.91 18.64 49.69 25.44 45.42 Z" />
<path fill="#ffffff" opacity="1.00" d=" M 81.77 52.83 C 83.17 59.54 82.79 66.91 78.73 72.69 C 73.99 80.46 62.95 83.69 54.98 79.05 C 51.76 77.25 49.72 74.07 47.81 71.03 C 49.75 71.12 51.72 71.07 53.64 71.46 C 56.85 72.83 59.38 75.79 63.02 76.13 C 69.78 76.70 76.52 72.62 79.64 66.67 C 81.85 62.42 81.49 57.47 81.77 52.83 Z" />
<path fill="#26960f" opacity="1.00" d=" M 31.52 66.04 C 37.55 62.06 43.95 58.69 50.17 55.01 C 56.49 58.47 62.86 61.91 68.82 65.98 C 56.40 66.40 43.95 66.30 31.52 66.04 Z" />
</svg>
