<?xml version="1.0" encoding="UTF-8" ?>
<!DOCTYPE svg PUBLIC "-//W3C//DTD SVG 1.1//EN" "http://www.w3.org/Graphics/SVG/1.1/DTD/svg11.dtd">
<svg width="100pt" height="100pt" viewBox="0 0 100 100" version="1.1" xmlns="http://www.w3.org/2000/svg">
<path fill="#bab9b9" opacity="1.00" d=" M 43.44 28.39 C 45.75 25.92 47.45 22.97 49.42 20.24 C 51.82 23.24 53.69 26.69 56.47 29.37 C 59.37 30.77 62.53 31.54 65.40 33.03 C 66.48 31.72 67.56 30.40 68.65 29.10 C 70.02 32.69 71.22 36.41 73.32 39.66 C 76.03 43.32 74.95 48.22 76.90 52.20 C 78.85 55.77 77.74 60.30 80.43 63.53 C 84.28 68.94 88.24 74.28 92.03 79.73 C 83.00 79.78 73.96 79.63 64.93 79.73 C 60.47 79.66 57.31 83.31 53.80 85.50 C 47.82 83.67 42.57 79.14 36.05 79.56 C 26.65 79.48 17.26 79.51 7.86 79.49 C 12.51 72.92 17.08 66.28 21.79 59.75 C 22.80 58.23 23.99 56.76 24.56 54.99 C 24.80 50.47 22.81 45.53 25.45 41.39 C 27.65 37.65 28.19 32.50 32.33 30.24 C 35.71 28.25 39.78 29.24 43.44 28.39 M 49.21 25.91 C 47.76 27.83 46.30 29.74 44.85 31.66 C 41.44 31.10 37.82 30.03 34.43 31.27 C 31.74 32.21 30.51 34.99 29.39 37.38 C 27.86 41.03 25.72 44.74 26.19 48.86 C 26.26 52.37 27.36 56.19 25.44 59.42 C 22.12 65.49 17.45 70.68 13.91 76.62 C 19.60 76.73 25.30 76.63 30.99 76.49 C 34.70 76.48 38.63 76.27 42.03 78.02 C 45.66 79.68 49.02 82.25 53.08 82.78 C 57.77 81.72 60.80 76.61 65.91 76.64 C 72.65 76.35 79.40 76.84 86.15 76.61 C 83.63 72.58 80.67 68.87 77.93 64.99 C 75.83 62.32 76.31 58.78 75.62 55.65 C 74.94 52.52 73.99 49.46 73.37 46.32 C 72.46 41.58 69.90 37.44 67.93 33.11 C 66.71 34.64 65.49 36.18 64.28 37.72 C 63.61 36.39 63.04 34.98 62.14 33.79 C 59.65 32.35 56.64 32.15 54.12 30.78 C 52.21 29.46 50.78 27.59 49.21 25.91 Z" />
<path fill="#217a7a" opacity="1.00" d=" M 49.21 25.91 C 50.78 27.59 52.21 29.46 54.12 30.78 C 56.64 32.15 59.65 32.35 62.14 33.79 C 63.04 34.98 63.61 36.39 64.28 37.72 C 65.49 36.18 66.71 34.64 67.93 33.11 C 69.90 37.44 72.46 41.58 73.37 46.32 C 73.99 49.46 74.94 52.52 75.62 55.65 C 76.31 58.78 75.83 62.32 77.93 64.99 C 80.67 68.87 83.63 72.58 86.15 76.61 C 79.40 76.84 72.65 76.35 65.91 76.64 C 60.80 76.61 57.77 81.72 53.08 82.78 C 49.02 82.25 45.66 79.68 42.03 78.02 C 38.63 76.27 34.70 76.48 30.99 76.49 C 25.30 76.63 19.60 76.73 13.91 76.62 C 17.45 70.68 22.12 65.49 25.44 59.42 C 27.36 56.19 26.26 52.37 26.19 48.86 C 25.72 44.74 27.86 41.03 29.39 37.38 C 30.51 34.99 31.74 32.21 34.43 31.27 C 37.82 30.03 41.44 31.10 44.85 31.66 C 46.30 29.74 47.76 27.83 49.21 25.91 M 32.11 36.31 C 31.52 38.30 31.69 40.42 31.61 42.47 C 34.13 41.07 36.44 39.29 39.04 38.03 C 41.40 39.61 43.15 41.89 45.24 43.79 C 49.19 47.73 55.60 48.67 60.70 46.66 C 64.72 45.05 66.71 40.97 68.41 37.28 C 64.46 40.71 59.86 44.55 54.23 43.72 C 48.30 42.90 46.14 36.33 41.42 33.50 C 38.28 31.95 33.74 33.08 32.11 36.31 M 45.73 34.30 C 46.33 35.25 46.93 36.21 47.54 37.16 C 50.22 37.22 52.93 37.12 55.56 37.74 C 57.85 38.45 59.70 40.07 61.72 41.31 C 61.43 39.18 61.12 37.05 60.82 34.93 C 55.82 34.25 50.77 33.97 45.73 34.30 M 28.23 43.60 C 28.31 47.73 28.92 51.85 28.91 55.99 C 28.39 60.13 25.04 63.62 25.58 67.96 C 25.82 71.65 29.83 75.01 33.48 73.45 C 39.55 70.76 43.94 64.42 51.05 64.12 C 58.46 63.13 67.77 65.50 73.40 59.24 C 75.65 56.98 72.53 54.65 71.81 52.44 C 70.86 49.13 71.17 45.59 70.76 42.19 C 69.42 42.72 68.06 43.22 66.79 43.92 C 67.95 48.15 68.12 52.55 67.33 56.87 C 69.20 56.51 71.08 56.17 72.96 55.90 C 71.14 57.20 69.29 58.73 66.97 58.95 C 60.36 59.75 53.69 57.59 47.11 58.85 C 40.83 60.09 36.90 66.79 30.20 66.60 C 30.11 64.56 30.03 62.51 29.99 60.47 C 31.35 61.98 32.69 63.50 34.07 65.00 C 32.32 60.77 30.39 56.55 29.63 51.99 C 29.22 49.36 28.73 46.44 30.23 44.04 C 31.72 45.71 31.53 48.17 32.00 50.24 C 32.53 54.76 33.94 59.11 35.69 63.30 C 36.75 62.70 37.82 62.10 38.89 61.50 C 37.22 56.63 35.90 51.65 35.11 46.56 C 37.45 45.63 39.78 44.66 42.09 43.64 C 41.44 42.65 40.78 41.65 40.13 40.66 C 36.33 42.23 32.31 43.16 28.23 43.60 M 50.45 40.03 C 52.55 41.36 54.98 41.88 57.45 41.81 C 55.22 40.87 52.85 40.30 50.45 40.03 M 37.91 48.90 C 38.86 52.27 39.86 55.63 40.95 58.96 C 48.28 55.71 56.35 56.79 64.07 57.37 C 64.69 54.35 65.28 51.32 65.82 48.29 C 61.86 48.40 57.96 49.34 53.99 49.24 C 50.44 49.12 47.36 47.14 43.97 46.36 C 41.82 46.85 39.90 47.99 37.91 48.90 M 62.06 68.01 C 59.42 71.32 56.45 74.34 53.08 76.89 C 49.76 74.38 46.60 71.67 43.65 68.74 C 42.10 70.01 40.57 71.30 39.03 72.58 C 43.21 75.88 47.62 79.45 53.01 80.39 C 59.98 77.58 64.85 70.96 67.93 64.31 C 65.76 65.15 63.47 66.04 62.06 68.01 M 46.14 66.90 C 48.33 69.10 50.63 71.20 52.99 73.22 C 55.45 70.88 57.81 68.42 59.96 65.78 C 55.33 65.52 50.66 65.81 46.14 66.90 Z" />
<path fill="#ffffff" opacity="1.00" d=" M 32.11 36.31 C 33.74 33.08 38.28 31.95 41.42 33.50 C 46.14 36.33 48.30 42.90 54.23 43.72 C 59.86 44.55 64.46 40.71 68.41 37.28 C 66.71 40.97 64.72 45.05 60.70 46.66 C 55.60 48.67 49.19 47.73 45.24 43.79 C 43.15 41.89 41.40 39.61 39.04 38.03 C 36.44 39.29 34.13 41.07 31.61 42.47 C 31.69 40.42 31.52 38.30 32.11 36.31 Z" />
<path fill="#ffffff" opacity="1.00" d=" M 45.73 34.30 C 50.77 33.97 55.82 34.25 60.82 34.93 C 61.12 37.05 61.43 39.18 61.72 41.31 C 59.70 40.07 57.85 38.45 55.56 37.74 C 52.93 37.12 50.22 37.22 47.54 37.16 C 46.93 36.21 46.33 35.25 45.73 34.30 Z" />
<path fill="#ffffff" opacity="1.00" d=" M 28.23 43.60 C 32.31 43.16 36.33 42.23 40.13 40.66 C 40.78 41.65 41.44 42.65 42.09 43.64 C 39.78 44.66 37.45 45.63 35.11 46.56 C 35.90 51.65 37.22 56.63 38.89 61.50 C 37.82 62.10 36.75 62.70 35.69 63.30 C 33.94 59.11 32.53 54.76 32.00 50.24 C 31.53 48.17 31.72 45.71 30.23 44.04 C 28.73 46.44 29.22 49.36 29.63 51.99 C 30.39 56.55 32.32 60.77 34.07 65.00 C 32.69 63.50 31.35 61.98 29.99 60.47 C 30.03 62.51 30.11 64.56 30.20 66.60 C 36.90 66.79 40.83 60.09 47.11 58.85 C 53.69 57.59 60.36 59.75 66.97 58.95 C 69.29 58.73 71.14 57.20 72.96 55.90 C 71.08 56.17 69.20 56.51 67.33 56.87 C 68.12 52.55 67.95 48.15 66.79 43.92 C 68.06 43.22 69.42 42.72 70.76 42.19 C 71.17 45.59 70.86 49.13 71.81 52.44 C 72.53 54.65 75.65 56.98 73.40 59.24 C 67.77 65.50 58.46 63.13 51.05 64.12 C 43.94 64.42 39.55 70.76 33.48 73.45 C 29.83 75.01 25.82 71.65 25.58 67.96 C 25.04 63.62 28.39 60.13 28.91 55.99 C 28.92 51.85 28.31 47.73 28.23 43.60 Z" />
<path fill="#ffffff" opacity="1.00" d=" M 50.45 40.03 C 52.85 40.30 55.22 40.87 57.45 41.81 C 54.98 41.88 52.55 41.36 50.45 40.03 Z" />
<path fill="#ffffff" opacity="1.00" d=" M 37.91 48.90 C 39.90 47.99 41.82 46.85 43.97 46.36 C 47.36 47.14 50.44 49.12 53.99 49.24 C 57.96 49.34 61.86 48.40 65.82 48.29 C 65.28 51.32 64.69 54.35 64.07 57.37 C 56.35 56.79 48.28 55.71 40.95 58.96 C 39.86 55.63 38.86 52.27 37.91 48.90 Z" />
<path fill="#ffffff" opacity="1.00" d=" M 62.06 68.01 C 63.47 66.04 65.76 65.15 67.93 64.31 C 64.85 70.96 59.98 77.58 53.01 80.39 C 47.62 79.45 43.21 75.88 39.03 72.58 C 40.57 71.30 42.10 70.01 43.65 68.74 C 46.60 71.67 49.76 74.38 53.08 76.89 C 56.45 74.34 59.42 71.32 62.06 68.01 Z" />
<path fill="#ffffff" opacity="1.00" d=" M 46.14 66.90 C 50.66 65.81 55.33 65.52 59.96 65.78 C 57.81 68.42 55.45 70.88 52.99 73.22 C 50.63 71.20 48.33 69.10 46.14 66.90 Z" />
</svg>
