<?xml version="1.0" encoding="UTF-8" ?>
<!DOCTYPE svg PUBLIC "-//W3C//DTD SVG 1.1//EN" "http://www.w3.org/Graphics/SVG/1.1/DTD/svg11.dtd">
<svg width="100pt" height="100pt" viewBox="0 0 100 100" version="1.1" xmlns="http://www.w3.org/2000/svg">
<path fill="#bbbaba" opacity="1.00" d=" M 4.29 21.39 C 12.54 21.22 20.81 21.22 29.07 21.28 C 32.50 20.93 34.43 24.22 37.22 25.51 C 40.61 25.00 43.75 23.34 47.20 22.99 C 52.14 22.28 57.00 23.77 61.59 25.44 C 63.80 23.69 65.82 20.95 68.97 21.27 C 77.10 21.22 85.24 21.24 93.37 21.37 C 86.86 27.58 80.23 33.67 73.71 39.88 C 81.95 43.79 90.28 47.47 98.61 51.16 C 90.33 54.17 81.93 56.86 73.85 60.39 C 80.38 66.46 86.94 72.49 93.40 78.63 C 85.26 78.76 77.12 78.79 68.98 78.72 C 66.06 78.99 64.07 76.62 61.95 75.05 C 56.94 76.92 51.49 78.44 46.13 77.18 C 43.04 76.66 40.20 75.14 37.10 74.74 C 34.32 75.89 32.40 79.04 29.07 78.72 C 20.77 78.76 12.47 78.82 4.18 78.58 C 10.95 72.16 17.96 66.01 24.81 59.70 C 17.35 55.97 9.57 52.89 1.40 51.15 C 9.23 47.63 17.19 44.35 24.86 40.46 C 18.06 34.04 10.95 27.95 4.29 21.39 M 12.66 24.97 C 18.18 30.47 24.13 35.52 29.67 40.99 C 23.17 44.47 16.35 47.28 9.63 50.29 C 16.31 53.24 23.14 55.84 29.70 59.06 C 24.17 64.54 18.20 69.56 12.66 75.03 C 18.10 75.16 23.57 75.63 29.00 75.06 C 31.88 74.75 34.08 72.70 36.38 71.14 C 40.82 72.57 45.28 74.29 50.00 74.44 C 54.30 74.56 58.40 73.07 62.44 71.77 C 68.82 77.12 77.52 74.93 85.11 75.05 C 79.80 69.85 74.28 64.87 68.82 59.83 C 75.84 56.28 83.20 53.48 90.38 50.30 C 83.23 47.05 76.00 43.97 68.99 40.43 C 74.20 35.10 79.80 30.18 85.11 24.95 C 80.07 24.82 75.00 24.45 69.96 24.87 C 66.85 25.01 64.39 27.06 61.91 28.70 C 57.45 27.22 52.83 25.53 48.05 26.08 C 44.29 26.41 40.82 28.18 37.07 28.55 C 33.98 27.54 31.39 25.19 28.06 24.87 C 22.94 24.40 17.79 24.84 12.66 24.97 Z" />
<path fill="#2f4364" opacity="1.00" d=" M 12.66 24.97 C 17.79 24.84 22.94 24.40 28.06 24.87 C 31.39 25.19 33.98 27.54 37.07 28.55 C 40.82 28.18 44.29 26.41 48.05 26.08 C 52.83 25.53 57.45 27.22 61.91 28.70 C 64.39 27.06 66.85 25.01 69.96 24.87 C 75.00 24.45 80.07 24.82 85.11 24.95 C 79.80 30.18 74.20 35.10 68.99 40.43 C 76.00 43.97 83.23 47.05 90.38 50.30 C 83.20 53.48 75.84 56.28 68.82 59.83 C 74.28 64.87 79.80 69.85 85.11 75.05 C 77.52 74.93 68.82 77.12 62.44 71.77 C 58.40 73.07 54.30 74.56 50.00 74.44 C 45.28 74.29 40.82 72.57 36.38 71.14 C 34.08 72.70 31.88 74.75 29.00 75.06 C 23.57 75.63 18.10 75.16 12.66 75.03 C 18.20 69.56 24.17 64.54 29.70 59.06 C 23.14 55.84 16.31 53.24 9.63 50.29 C 16.35 47.28 23.17 44.47 29.67 40.99 C 24.13 35.52 18.18 30.47 12.66 24.97 M 31.88 36.76 C 36.67 34.42 41.55 31.86 46.98 31.56 C 54.51 30.84 61.36 34.53 68.25 36.95 C 62.81 32.45 56.57 27.61 49.07 28.15 C 42.30 28.19 36.76 32.56 31.88 36.76 M 36.76 39.77 C 30.28 44.79 23.00 48.87 14.97 50.76 C 22.87 52.91 30.99 55.30 37.53 60.46 C 41.09 63.29 45.28 65.80 50.00 65.57 C 55.24 65.75 59.61 62.58 63.63 59.64 C 69.97 55.02 77.61 52.83 85.06 50.76 C 79.21 49.22 73.56 46.89 68.57 43.46 C 63.02 39.89 57.91 34.65 50.93 34.31 C 45.60 33.77 40.78 36.59 36.76 39.77 M 30.92 63.23 C 36.67 68.45 43.94 72.89 51.99 72.30 C 58.75 71.87 64.03 67.22 69.05 63.18 C 64.25 65.63 59.39 68.41 53.89 68.82 C 45.84 69.68 37.97 66.86 30.92 63.23 Z" />
<path fill="#ffffff" opacity="1.00" d=" M 31.88 36.76 C 36.76 32.56 42.30 28.19 49.07 28.15 C 56.57 27.61 62.81 32.45 68.25 36.95 C 61.36 34.53 54.51 30.84 46.98 31.56 C 41.55 31.86 36.67 34.42 31.88 36.76 Z" />
<path fill="#ffffff" opacity="1.00" d=" M 36.76 39.77 C 40.78 36.59 45.60 33.77 50.93 34.31 C 57.91 34.65 63.02 39.89 68.57 43.46 C 73.56 46.89 79.21 49.22 85.06 50.76 C 77.61 52.83 69.97 55.02 63.63 59.64 C 59.61 62.58 55.24 65.75 50.00 65.57 C 45.28 65.80 41.09 63.29 37.53 60.46 C 30.99 55.30 22.87 52.91 14.97 50.76 C 23.00 48.87 30.28 44.79 36.76 39.77 M 42.50 39.48 C 38.12 42.33 33.98 45.54 29.58 48.36 C 43.18 48.43 56.78 48.40 70.38 48.38 C 65.81 45.33 61.52 41.86 56.75 39.13 C 52.40 36.60 46.71 36.69 42.50 39.48 M 27.56 51.16 C 31.49 53.27 35.53 55.19 39.09 57.90 C 42.26 60.30 45.82 62.77 50.00 62.56 C 54.41 62.68 58.06 59.92 61.49 57.51 C 64.93 55.04 68.76 53.20 72.46 51.17 C 67.25 51.10 62.03 51.17 56.81 51.18 C 56.11 53.28 55.73 55.59 54.34 57.38 C 52.12 59.87 47.85 59.85 45.55 57.47 C 44.12 55.68 43.78 53.32 43.08 51.20 C 37.91 51.16 32.74 51.10 27.56 51.16 Z" />
<path fill="#2f4364" opacity="1.00" d=" M 42.50 39.48 C 46.71 36.69 52.40 36.60 56.75 39.13 C 61.52 41.86 65.81 45.33 70.38 48.38 C 56.78 48.40 43.18 48.43 29.58 48.36 C 33.98 45.54 38.12 42.33 42.50 39.48 Z" />
<path fill="#2f4364" opacity="1.00" d=" M 27.56 51.16 C 32.74 51.10 37.91 51.16 43.08 51.20 C 43.78 53.32 44.12 55.68 45.55 57.47 C 47.85 59.85 52.12 59.87 54.34 57.38 C 55.73 55.59 56.11 53.28 56.81 51.18 C 62.03 51.17 67.25 51.10 72.46 51.17 C 68.76 53.20 64.93 55.04 61.49 57.51 C 58.06 59.92 54.41 62.68 50.00 62.56 C 45.82 62.77 42.26 60.30 39.09 57.90 C 35.53 55.19 31.49 53.27 27.56 51.16 Z" />
<path fill="#ffffff" opacity="1.00" d=" M 30.92 63.23 C 37.97 66.86 45.84 69.68 53.89 68.82 C 59.39 68.41 64.25 65.63 69.05 63.18 C 64.03 67.22 58.75 71.87 51.99 72.30 C 43.94 72.89 36.67 68.45 30.92 63.23 Z" />
</svg>
