<?xml version="1.0" encoding="UTF-8" ?>
<!DOCTYPE svg PUBLIC "-//W3C//DTD SVG 1.1//EN" "http://www.w3.org/Graphics/SVG/1.1/DTD/svg11.dtd">
<svg width="100pt" height="100pt" viewBox="0 0 100 100" version="1.1" xmlns="http://www.w3.org/2000/svg">
<path fill="#b8b8b8" opacity="1.00" d=" M 70.63 17.52 C 78.28 15.34 85.88 12.95 93.57 10.90 C 91.99 13.45 90.32 15.93 88.66 18.43 C 91.71 18.50 94.76 18.52 97.80 18.62 C 89.72 31.15 81.27 43.44 73.21 55.99 C 75.97 62.34 82.91 64.28 88.45 67.39 C 83.89 70.06 78.72 72.09 75.27 76.25 C 72.19 80.00 69.91 84.31 67.43 88.46 C 64.78 84.79 61.84 81.34 58.63 78.14 C 55.99 81.77 53.54 85.54 51.06 89.28 C 48.04 84.84 44.98 80.43 41.89 76.04 C 32.99 79.42 23.31 78.02 14.39 75.48 C 11.62 74.58 9.28 72.77 6.95 71.08 C 7.49 67.64 8.03 64.21 8.61 60.77 C 12.36 60.17 15.61 58.24 17.98 55.30 C 16.85 52.18 15.79 49.04 14.65 45.92 C 15.92 44.65 17.18 43.36 18.45 42.09 C 12.98 34.30 7.51 26.51 2.20 18.60 C 19.80 18.37 37.40 18.55 55.00 18.51 C 60.21 18.42 65.55 19.03 70.63 17.52 M 68.09 21.76 C 58.12 20.31 48.03 21.23 38.00 20.97 C 28.84 21.30 19.53 19.94 10.50 22.05 C 14.74 28.72 19.37 35.12 23.73 41.72 C 22.07 43.44 20.11 45.00 19.07 47.20 C 19.10 50.37 20.35 53.39 20.42 56.55 C 17.66 59.81 13.50 61.32 9.74 63.09 C 9.48 65.34 9.24 67.59 8.98 69.84 C 14.90 72.03 20.61 75.41 27.06 75.61 C 32.89 75.54 38.33 73.12 43.74 71.21 C 46.15 74.69 48.57 78.18 51.05 81.62 C 53.43 78.32 55.75 74.99 58.12 71.69 C 61.76 75.04 64.85 78.92 67.37 83.16 C 68.85 79.82 70.13 76.32 72.44 73.44 C 75.17 70.15 79.44 68.89 83.23 67.26 C 77.26 65.14 71.90 61.47 68.66 55.92 C 75.54 44.74 83.33 34.13 90.28 22.99 C 87.75 22.74 85.21 22.53 82.68 22.30 C 84.51 19.76 86.35 17.22 88.10 14.62 C 81.30 16.64 74.99 20.11 68.09 21.76 Z" />
<path fill="#b61c2e" opacity="1.00" d=" M 68.09 21.76 C 74.99 20.11 81.30 16.64 88.10 14.62 C 86.35 17.22 84.51 19.76 82.68 22.30 C 85.21 22.53 87.75 22.74 90.28 22.99 C 83.33 34.13 75.54 44.74 68.66 55.92 C 71.90 61.47 77.26 65.14 83.23 67.26 C 79.44 68.89 75.17 70.15 72.44 73.44 C 70.13 76.32 68.85 79.82 67.37 83.16 C 64.85 78.92 61.76 75.04 58.12 71.69 C 55.75 74.99 53.43 78.32 51.05 81.62 C 48.57 78.18 46.15 74.69 43.74 71.21 C 38.33 73.12 32.89 75.54 27.06 75.61 C 20.61 75.41 14.90 72.03 8.98 69.84 C 9.24 67.59 9.48 65.34 9.74 63.09 C 13.50 61.32 17.66 59.81 20.42 56.55 C 20.35 53.39 19.10 50.37 19.07 47.20 C 20.11 45.00 22.07 43.44 23.73 41.72 C 19.37 35.12 14.74 28.72 10.50 22.05 C 22.32 22.78 34.16 22.26 46.00 22.41 C 53.36 22.36 60.79 23.05 68.09 21.76 M 54.79 30.78 C 49.65 32.07 44.30 31.71 39.08 31.27 C 38.94 29.22 38.78 27.18 38.63 25.13 C 36.41 26.88 33.51 28.30 32.48 31.10 C 31.61 34.45 35.35 36.55 38.18 36.78 C 47.70 37.90 56.40 33.10 65.03 29.89 C 56.40 35.89 47.19 40.98 38.42 46.77 C 39.46 48.27 40.51 49.76 41.54 51.26 C 50.62 44.46 59.43 37.31 68.40 30.38 C 72.74 26.94 77.27 23.73 81.34 19.98 C 72.60 23.81 64.12 28.46 54.79 30.78 M 51.41 53.43 C 49.86 56.28 48.12 60.05 49.94 63.14 C 52.24 66.15 55.65 62.93 58.16 61.90 C 56.54 61.19 54.93 60.48 53.32 59.76 C 54.29 56.18 55.20 52.49 57.21 49.31 C 60.76 43.62 65.99 39.30 70.28 34.20 C 63.00 39.48 56.16 45.72 51.41 53.43 M 20.51 46.51 C 24.66 47.95 29.05 49.62 31.66 53.37 C 34.76 57.01 35.51 61.89 35.41 66.51 C 32.72 65.74 30.08 64.82 27.44 63.89 C 29.89 65.69 32.40 67.40 34.98 69.00 C 32.14 70.28 29.24 71.81 26.05 71.87 C 22.65 71.87 20.01 69.43 17.45 67.51 C 21.36 64.65 25.85 62.62 29.47 59.39 C 30.29 57.39 28.04 55.78 27.25 54.11 C 21.97 57.68 17.23 62.13 11.24 64.52 C 11.13 65.92 11.05 67.32 10.99 68.73 C 16.96 70.85 22.84 74.66 29.44 73.65 C 33.89 72.90 38.52 71.84 42.25 69.16 C 41.84 67.38 40.22 66.08 40.14 64.22 C 40.41 60.86 41.93 57.51 41.04 54.13 C 39.51 48.71 34.75 44.00 28.99 43.53 C 25.86 43.25 23.16 45.12 20.51 46.51 M 57.57 67.50 C 61.81 69.04 65.03 72.27 66.64 76.47 C 68.22 72.13 71.35 68.63 75.56 66.70 C 71.09 65.45 67.74 62.21 66.07 57.92 C 64.56 62.13 61.58 65.53 57.57 67.50 M 20.25 68.32 C 23.75 69.69 27.52 69.97 31.23 69.42 C 29.46 67.57 27.66 65.74 25.86 63.92 C 23.96 65.35 22.09 66.82 20.25 68.32 Z" />
<path fill="#ffffff" opacity="1.00" d=" M 54.79 30.78 C 64.12 28.46 72.60 23.81 81.34 19.98 C 77.27 23.73 72.74 26.94 68.40 30.38 C 59.43 37.31 50.62 44.46 41.54 51.26 C 40.51 49.76 39.46 48.27 38.42 46.77 C 47.19 40.98 56.40 35.89 65.03 29.89 C 56.40 33.10 47.70 37.90 38.18 36.78 C 35.35 36.55 31.61 34.45 32.48 31.10 C 33.51 28.30 36.41 26.88 38.63 25.13 C 38.78 27.18 38.94 29.22 39.08 31.27 C 44.30 31.71 49.65 32.07 54.79 30.78 Z" />
<path fill="#b8d2cf" opacity="1.00" d=" M 10.50 22.05 C 19.53 19.94 28.84 21.30 38.00 20.97 C 48.03 21.23 58.12 20.31 68.09 21.76 C 60.79 23.05 53.36 22.36 46.00 22.41 C 34.16 22.26 22.32 22.78 10.50 22.05 Z" />
<path fill="#ffffff" opacity="1.00" d=" M 51.41 53.43 C 56.16 45.72 63.00 39.48 70.28 34.20 C 65.99 39.30 60.76 43.62 57.21 49.31 C 55.20 52.49 54.29 56.18 53.32 59.76 C 54.93 60.48 56.54 61.19 58.16 61.90 C 55.65 62.93 52.24 66.15 49.94 63.14 C 48.12 60.05 49.86 56.28 51.41 53.43 Z" />
<path fill="#ffffff" opacity="1.00" d=" M 20.51 46.51 C 23.16 45.12 25.86 43.25 28.99 43.53 C 34.75 44.00 39.51 48.71 41.04 54.13 C 41.93 57.51 40.41 60.86 40.14 64.22 C 40.22 66.08 41.84 67.38 42.25 69.16 C 38.52 71.84 33.89 72.90 29.44 73.65 C 22.84 74.66 16.96 70.85 10.99 68.73 C 11.05 67.32 11.13 65.92 11.24 64.52 C 17.23 62.13 21.97 57.68 27.25 54.11 C 28.04 55.78 30.29 57.39 29.47 59.39 C 25.85 62.62 21.36 64.65 17.45 67.51 C 20.01 69.43 22.65 71.87 26.05 71.87 C 29.24 71.81 32.14 70.28 34.98 69.00 C 32.40 67.40 29.89 65.69 27.44 63.89 C 30.08 64.82 32.72 65.74 35.41 66.51 C 35.51 61.89 34.76 57.01 31.66 53.37 C 29.05 49.62 24.66 47.95 20.51 46.51 Z" />
<path fill="#ecac45" opacity="1.00" d=" M 57.57 67.50 C 61.58 65.53 64.56 62.13 66.07 57.92 C 67.74 62.21 71.09 65.45 75.56 66.70 C 71.35 68.63 68.22 72.13 66.64 76.47 C 65.03 72.27 61.81 69.04 57.57 67.50 Z" />
<path fill="#b8bfbe" opacity="1.00" d=" M 20.25 68.32 C 22.09 66.82 23.96 65.35 25.86 63.92 C 27.66 65.74 29.46 67.57 31.23 69.42 C 27.52 69.97 23.75 69.69 20.25 68.32 Z" />
</svg>
