<?xml version="1.0" encoding="UTF-8" ?>
<!DOCTYPE svg PUBLIC "-//W3C//DTD SVG 1.1//EN" "http://www.w3.org/Graphics/SVG/1.1/DTD/svg11.dtd">
<svg width="100pt" height="100pt" viewBox="0 0 100 100" version="1.1" xmlns="http://www.w3.org/2000/svg">
<path fill="#b8b8b8" opacity="1.00" d=" M 41.69 16.69 C 44.26 13.15 46.48 9.36 48.95 5.75 C 51.59 9.56 53.98 13.55 56.74 17.28 C 58.65 19.94 62.01 20.72 64.70 22.34 C 72.89 27.28 79.61 35.40 80.97 45.10 C 81.79 48.98 80.73 53.39 83.16 56.81 C 84.96 59.66 86.84 62.47 88.88 65.16 C 91.24 68.24 94.76 70.07 97.87 72.26 C 94.00 74.50 89.50 76.03 86.45 79.45 C 83.29 83.79 81.55 88.95 79.24 93.76 C 76.99 89.54 74.71 85.14 70.91 82.09 C 69.04 80.63 66.60 78.50 64.19 80.14 C 55.47 84.66 44.69 85.46 35.67 81.33 C 32.86 80.16 30.19 78.27 27.03 78.29 C 18.34 78.14 9.65 78.40 0.96 78.22 C 5.30 71.50 9.88 64.93 14.22 58.21 C 15.99 55.84 15.46 52.79 15.61 50.03 C 15.69 38.23 22.94 26.72 33.62 21.67 C 36.40 20.19 39.87 19.49 41.69 16.69 M 41.59 21.46 C 37.45 23.23 32.99 24.52 29.52 27.52 C 22.69 33.20 18.06 41.98 18.47 50.98 C 18.41 54.34 19.14 58.07 17.09 61.03 C 14.35 65.37 11.18 69.43 8.69 73.93 C 13.82 74.13 18.95 73.85 24.08 73.93 C 30.92 73.73 35.76 79.69 42.36 80.63 C 50.95 82.74 59.67 79.79 67.01 75.36 C 72.31 78.34 76.00 83.25 79.02 88.41 C 80.58 84.95 81.87 81.27 84.28 78.29 C 86.88 75.27 90.70 73.80 94.16 72.03 C 89.34 69.76 84.57 66.87 81.91 62.07 C 76.99 55.49 79.75 46.74 76.50 39.55 C 73.04 31.48 65.86 25.20 57.63 22.25 C 53.55 20.90 51.35 17.03 48.98 13.77 C 46.81 16.56 45.04 20.06 41.59 21.46 Z" />
<path fill="#277373" opacity="1.00" d=" M 41.59 21.46 C 45.04 20.06 46.81 16.56 48.98 13.77 C 51.35 17.03 53.55 20.90 57.63 22.25 C 65.86 25.20 73.04 31.48 76.50 39.55 C 79.75 46.74 76.99 55.49 81.91 62.07 C 84.57 66.87 89.34 69.76 94.16 72.03 C 90.70 73.80 86.88 75.27 84.28 78.29 C 81.87 81.27 80.58 84.95 79.02 88.41 C 76.00 83.25 72.31 78.34 67.01 75.36 C 59.67 79.79 50.95 82.74 42.36 80.63 C 35.76 79.69 30.92 73.73 24.08 73.93 C 18.95 73.85 13.82 74.13 8.69 73.93 C 11.18 69.43 14.35 65.37 17.09 61.03 C 19.14 58.07 18.41 54.34 18.47 50.98 C 18.06 41.98 22.69 33.20 29.52 27.52 C 32.99 24.52 37.45 23.23 41.59 21.46 M 39.65 25.63 C 37.13 28.88 36.59 33.19 36.21 37.16 C 35.64 43.32 39.61 49.10 38.28 55.24 C 35.56 58.32 31.05 57.74 27.36 58.12 C 29.77 59.21 32.18 60.70 34.91 60.68 C 37.78 60.49 39.70 58.03 41.74 56.31 C 44.02 58.04 46.01 60.18 46.89 62.96 C 42.01 64.38 36.92 64.63 31.86 64.63 C 36.50 65.32 41.44 66.78 46.01 65.11 C 47.20 63.78 47.86 62.08 48.66 60.51 C 52.46 65.44 57.60 69.05 63.12 71.84 C 59.30 73.58 55.43 75.74 51.14 75.88 C 48.26 75.02 45.78 73.23 42.97 72.17 C 37.23 69.79 30.80 68.18 26.18 63.81 C 21.40 56.73 23.74 47.76 23.54 39.79 C 22.09 44.01 20.99 48.45 21.37 52.95 C 21.96 63.75 29.89 73.36 39.81 77.19 C 49.28 80.28 59.78 77.12 67.32 70.97 C 62.58 69.30 57.46 67.87 53.86 64.14 C 48.26 58.40 46.10 50.42 43.72 43.00 C 41.76 43.14 39.80 43.30 37.85 43.47 C 37.88 40.13 37.82 36.62 39.53 33.62 C 41.24 29.34 45.46 27.11 48.57 24.00 C 45.59 24.27 42.31 24.03 39.65 25.63 M 49.98 23.67 C 44.30 32.81 46.68 44.25 50.40 53.64 C 53.63 61.48 60.54 67.48 68.86 69.30 C 74.39 62.55 77.16 53.48 74.99 44.87 C 73.53 39.32 70.76 32.88 64.78 31.05 C 61.14 29.72 56.62 31.57 55.47 35.39 C 54.34 39.35 55.44 43.49 55.57 47.51 C 53.39 43.04 52.04 37.46 54.88 32.94 C 56.67 29.64 60.73 29.24 63.97 28.31 C 59.62 25.93 54.92 24.23 49.98 23.67 M 25.96 36.21 C 25.09 39.75 25.65 43.45 25.78 47.04 C 26.13 49.97 26.01 53.55 28.50 55.61 C 31.64 56.92 34.49 54.42 37.01 52.90 C 36.16 48.60 34.87 44.38 34.50 40.00 C 34.11 35.58 35.16 31.22 35.78 26.88 C 32.04 29.38 27.85 31.93 25.96 36.21 M 77.57 62.36 C 76.56 66.54 73.90 69.96 70.30 72.25 C 74.01 74.39 76.88 77.64 78.47 81.62 C 79.28 79.47 79.85 77.14 81.33 75.32 C 83.06 73.55 85.43 72.64 87.62 71.55 C 85.46 70.76 83.10 70.22 81.31 68.70 C 79.57 66.93 78.65 64.56 77.57 62.36 M 17.43 64.46 C 16.25 66.50 15.10 68.56 13.99 70.63 C 16.90 70.77 19.81 70.87 22.73 70.90 C 21.09 68.65 19.33 66.49 17.43 64.46 Z" />
<path fill="#ffffff" opacity="1.00" d=" M 39.65 25.63 C 42.31 24.03 45.59 24.27 48.57 24.00 C 45.46 27.11 41.24 29.34 39.53 33.62 C 37.82 36.62 37.88 40.13 37.85 43.47 C 39.80 43.30 41.76 43.14 43.72 43.00 C 46.10 50.42 48.26 58.40 53.86 64.14 C 57.46 67.87 62.58 69.30 67.32 70.97 C 59.78 77.12 49.28 80.28 39.81 77.19 C 29.89 73.36 21.96 63.75 21.37 52.95 C 20.99 48.45 22.09 44.01 23.54 39.79 C 23.74 47.76 21.40 56.73 26.18 63.81 C 30.80 68.18 37.23 69.79 42.97 72.17 C 45.78 73.23 48.26 75.02 51.14 75.88 C 55.43 75.74 59.30 73.58 63.12 71.84 C 57.60 69.05 52.46 65.44 48.66 60.51 C 47.86 62.08 47.20 63.78 46.01 65.11 C 41.44 66.78 36.50 65.32 31.86 64.63 C 36.92 64.63 42.01 64.38 46.89 62.96 C 46.01 60.18 44.02 58.04 41.74 56.31 C 39.70 58.03 37.78 60.49 34.91 60.68 C 32.18 60.70 29.77 59.21 27.36 58.12 C 31.05 57.74 35.56 58.32 38.28 55.24 C 39.61 49.10 35.64 43.32 36.21 37.16 C 36.59 33.19 37.13 28.88 39.65 25.63 M 32.42 70.01 C 36.11 74.67 41.99 77.63 48.00 76.34 C 43.18 73.41 37.73 71.78 32.42 70.01 Z" />
<path fill="#ffffff" opacity="1.00" d=" M 49.98 23.67 C 54.92 24.23 59.62 25.93 63.97 28.31 C 60.73 29.24 56.67 29.64 54.88 32.94 C 52.04 37.46 53.39 43.04 55.57 47.51 C 55.44 43.49 54.34 39.35 55.47 35.39 C 56.62 31.57 61.14 29.72 64.78 31.05 C 70.76 32.88 73.53 39.32 74.99 44.87 C 77.16 53.48 74.39 62.55 68.86 69.30 C 60.54 67.48 53.63 61.48 50.40 53.64 C 46.68 44.25 44.30 32.81 49.98 23.67 M 50.23 27.22 C 48.32 30.85 48.17 35.05 47.71 39.04 C 48.94 38.54 50.16 38.03 51.39 37.52 C 52.33 32.91 55.19 29.15 59.27 26.85 C 56.43 26.54 51.86 23.52 50.23 27.22 M 66.01 34.63 C 65.07 39.08 61.24 41.71 58.70 45.16 C 58.42 48.84 61.49 51.22 64.22 53.05 C 65.89 51.48 67.38 49.44 69.73 48.89 C 71.26 51.00 71.35 53.70 71.89 56.16 C 72.85 52.28 74.15 48.19 72.86 44.22 C 71.94 40.22 68.80 37.39 66.01 34.63 M 54.24 59.04 C 57.54 62.97 61.59 66.83 66.91 67.51 C 70.38 65.05 71.80 60.81 73.60 57.14 C 71.15 57.86 68.72 59.21 66.10 58.96 C 63.24 58.25 60.94 56.29 58.55 54.68 C 57.05 56.07 55.62 57.53 54.24 59.04 Z" />
<path fill="#267272" opacity="1.00" d=" M 50.23 27.22 C 51.86 23.52 56.43 26.54 59.27 26.85 C 55.19 29.15 52.33 32.91 51.39 37.52 C 50.16 38.03 48.94 38.54 47.71 39.04 C 48.17 35.05 48.32 30.85 50.23 27.22 Z" />
<path fill="#ffffff" opacity="1.00" d=" M 25.96 36.21 C 27.85 31.93 32.04 29.38 35.78 26.88 C 35.16 31.22 34.11 35.58 34.50 40.00 C 34.87 44.38 36.16 48.60 37.01 52.90 C 34.49 54.42 31.64 56.92 28.50 55.61 C 26.01 53.55 26.13 49.97 25.78 47.04 C 25.65 43.45 25.09 39.75 25.96 36.21 M 26.63 37.94 C 29.63 35.56 32.41 32.86 34.49 29.62 C 30.81 31.19 28.06 34.23 26.63 37.94 M 29.84 43.27 C 28.93 43.11 28.02 42.96 27.11 42.80 C 27.56 46.53 27.18 50.58 28.95 54.00 C 30.93 55.47 33.37 53.45 35.45 53.09 C 34.51 48.29 33.61 43.47 33.09 38.60 C 31.99 40.15 30.91 41.71 29.84 43.27 Z" />
<path fill="#267272" opacity="1.00" d=" M 26.63 37.94 C 28.06 34.23 30.81 31.19 34.49 29.62 C 32.41 32.86 29.63 35.56 26.63 37.94 Z" />
<path fill="#277373" opacity="1.00" d=" M 66.01 34.63 C 68.80 37.39 71.94 40.22 72.86 44.22 C 74.15 48.19 72.85 52.28 71.89 56.16 C 71.35 53.70 71.26 51.00 69.73 48.89 C 67.38 49.44 65.89 51.48 64.22 53.05 C 61.49 51.22 58.42 48.84 58.70 45.16 C 61.24 41.71 65.07 39.08 66.01 34.63 Z" />
<path fill="#277373" opacity="1.00" d=" M 29.84 43.27 C 30.91 41.71 31.99 40.15 33.09 38.60 C 33.61 43.47 34.51 48.29 35.45 53.09 C 33.37 53.45 30.93 55.47 28.95 54.00 C 27.18 50.58 27.56 46.53 27.11 42.80 C 28.02 42.96 28.93 43.11 29.84 43.27 Z" />
<path fill="#277373" opacity="1.00" d=" M 54.24 59.04 C 55.62 57.53 57.05 56.07 58.55 54.68 C 60.94 56.29 63.24 58.25 66.10 58.96 C 68.72 59.21 71.15 57.86 73.60 57.14 C 71.80 60.81 70.38 65.05 66.91 67.51 C 61.59 66.83 57.54 62.97 54.24 59.04 Z" />
<path fill="#ecac49" opacity="1.00" d=" M 77.57 62.36 C 78.65 64.56 79.57 66.93 81.31 68.70 C 83.10 70.22 85.46 70.76 87.62 71.55 C 85.43 72.64 83.06 73.55 81.33 75.32 C 79.85 77.14 79.28 79.47 78.47 81.62 C 76.88 77.64 74.01 74.39 70.30 72.25 C 73.90 69.96 76.56 66.54 77.57 62.36 Z" />
<path fill="#ffffff" opacity="1.00" d=" M 17.43 64.46 C 19.33 66.49 21.09 68.65 22.73 70.90 C 19.81 70.87 16.90 70.77 13.99 70.63 C 15.10 68.56 16.25 66.50 17.43 64.46 Z" />
<path fill="#297272" opacity="1.00" d=" M 32.42 70.01 C 37.73 71.78 43.18 73.41 48.00 76.34 C 41.99 77.63 36.11 74.67 32.42 70.01 Z" />
</svg>
