<?xml version="1.0" encoding="UTF-8" ?>
<!DOCTYPE svg PUBLIC "-//W3C//DTD SVG 1.1//EN" "http://www.w3.org/Graphics/SVG/1.1/DTD/svg11.dtd">
<svg width="100pt" height="100pt" viewBox="0 0 100 100" version="1.1" xmlns="http://www.w3.org/2000/svg">
<path fill="#bab9b9" opacity="1.00" d=" M 49.35 8.72 C 53.57 14.08 55.94 20.60 59.85 26.17 C 62.91 23.78 65.95 21.36 69.02 18.99 C 71.62 24.32 74.92 29.84 74.25 36.02 C 73.62 42.81 71.52 50.37 75.51 56.57 C 80.91 64.34 86.67 71.87 91.94 79.73 C 63.95 79.74 35.96 79.51 7.97 79.52 C 12.90 72.02 18.29 64.83 23.35 57.42 C 27.23 51.31 25.75 43.76 24.85 37.03 C 23.83 30.52 27.21 24.60 30.00 18.99 C 33.08 21.36 36.12 23.78 39.17 26.18 C 42.94 20.58 45.68 14.38 49.35 8.72 M 39.85 29.15 C 36.86 26.91 33.89 24.65 30.89 22.42 C 28.30 26.45 26.21 31.10 26.78 36.01 C 27.58 43.22 28.93 50.80 26.65 57.88 C 22.83 64.37 17.66 70.00 14.02 76.62 C 20.67 76.81 27.33 76.53 33.99 76.70 C 37.45 76.74 41.03 77.06 44.34 75.80 L 44.63 76.38 C 45.22 76.57 46.40 76.95 46.99 77.14 L 46.83 76.10 C 48.60 76.09 50.37 76.09 52.13 76.06 C 52.61 76.31 53.57 76.79 54.05 77.03 L 54.23 76.26 C 54.80 75.48 55.34 74.69 55.85 73.87 C 55.87 74.56 55.91 75.93 55.93 76.62 C 65.96 76.73 75.99 76.68 86.03 76.62 C 82.30 70.01 77.11 64.40 73.05 58.03 C 69.78 51.11 71.48 43.27 72.24 36.00 C 72.82 31.11 70.74 26.48 68.16 22.46 C 65.15 24.67 62.16 26.93 59.16 29.14 C 55.68 23.89 53.17 18.07 49.67 12.82 C 45.64 17.79 43.49 23.92 39.85 29.15 Z" />
<path fill="#217a7a" opacity="1.00" d=" M 39.85 29.15 C 43.49 23.92 45.64 17.79 49.67 12.82 C 53.17 18.07 55.68 23.89 59.16 29.14 C 62.16 26.93 65.15 24.67 68.16 22.46 C 70.74 26.48 72.82 31.11 72.24 36.00 C 71.48 43.27 69.78 51.11 73.05 58.03 C 77.11 64.40 82.30 70.01 86.03 76.62 C 75.99 76.68 65.96 76.73 55.93 76.62 C 55.91 75.93 55.87 74.56 55.85 73.87 C 56.57 71.58 56.82 69.02 58.23 67.03 C 61.47 64.33 66.17 63.18 68.15 59.15 C 70.49 55.15 68.45 50.60 68.43 46.35 C 68.62 41.88 70.21 37.54 69.84 33.03 C 69.60 30.47 68.38 28.15 67.35 25.84 C 64.41 28.28 61.56 30.82 58.75 33.40 C 55.61 28.27 53.01 22.82 49.68 17.80 C 45.76 22.56 43.40 28.30 40.50 33.68 C 37.62 30.99 34.69 28.35 31.67 25.82 C 30.64 28.15 29.41 30.47 29.18 33.04 C 28.83 37.54 30.42 41.89 30.59 46.35 C 30.57 50.57 28.56 55.08 30.85 59.05 C 32.79 63.14 37.52 64.28 40.73 67.03 C 42.31 69.78 42.86 72.99 44.34 75.80 C 41.03 77.06 37.45 76.74 33.99 76.70 C 27.33 76.53 20.67 76.81 14.02 76.62 C 17.66 70.00 22.83 64.37 26.65 57.88 C 28.93 50.80 27.58 43.22 26.78 36.01 C 26.21 31.10 28.30 26.45 30.89 22.42 C 33.89 24.65 36.86 26.91 39.85 29.15 Z" />
<path fill="#ffffff" opacity="1.00" d=" M 40.50 33.68 C 43.40 28.30 45.76 22.56 49.68 17.80 C 53.01 22.82 55.61 28.27 58.75 33.40 C 61.56 30.82 64.41 28.28 67.35 25.84 C 68.38 28.15 69.60 30.47 69.84 33.03 C 70.21 37.54 68.62 41.88 68.43 46.35 C 68.45 50.60 70.49 55.15 68.15 59.15 C 66.17 63.18 61.47 64.33 58.23 67.03 C 56.82 69.02 56.57 71.58 55.85 73.87 C 55.34 74.69 54.80 75.48 54.23 76.26 C 55.14 72.90 55.63 69.41 55.12 65.94 C 59.54 64.22 65.06 62.93 67.12 58.12 C 69.87 52.42 65.83 46.68 63.68 41.52 C 64.98 42.05 66.28 42.58 67.59 43.11 C 68.71 38.03 69.03 32.70 67.12 27.76 C 63.21 30.69 59.23 34.25 58.16 39.24 C 56.97 44.55 60.72 49.32 60.68 54.55 C 59.17 57.09 55.94 57.27 53.38 57.98 C 52.58 50.18 52.86 42.35 53.02 34.53 C 54.71 34.92 56.40 35.32 58.09 35.69 C 55.51 30.30 52.69 25.02 49.42 20.02 C 46.32 25.13 43.52 30.41 40.91 35.78 C 42.60 35.37 44.29 34.93 45.98 34.50 C 46.15 42.33 46.38 50.18 45.63 57.99 C 43.06 57.26 39.88 57.05 38.32 54.55 C 38.34 49.32 42.03 44.55 40.86 39.24 C 39.78 34.24 35.79 30.68 31.89 27.74 C 30.04 32.71 30.35 38.03 31.43 43.13 C 32.73 42.59 34.03 42.05 35.34 41.51 C 33.20 46.67 29.13 52.41 31.91 58.11 C 33.96 62.94 39.49 64.22 43.92 65.93 C 43.46 69.43 43.88 72.95 44.63 76.38 L 44.34 75.80 C 42.86 72.99 42.31 69.78 40.73 67.03 C 37.52 64.28 32.79 63.14 30.85 59.05 C 28.56 55.08 30.57 50.57 30.59 46.35 C 30.42 41.89 28.83 37.54 29.18 33.04 C 29.41 30.47 30.64 28.15 31.67 25.82 C 34.69 28.35 37.62 30.99 40.50 33.68 M 42.33 37.21 C 43.24 43.36 40.40 48.97 39.68 54.92 C 41.34 55.35 42.99 55.78 44.66 56.19 C 44.75 49.47 44.69 42.75 44.73 36.02 C 43.93 36.42 43.13 36.82 42.33 37.21 M 54.27 36.03 C 54.31 42.75 54.25 49.47 54.35 56.19 C 56.01 55.78 57.68 55.36 59.34 54.93 C 58.63 48.97 55.79 43.35 56.69 37.19 C 55.88 36.80 55.07 36.42 54.27 36.03 Z" />
<path fill="#076b6b" opacity="1.00" d=" M 49.42 20.02 C 52.69 25.02 55.51 30.30 58.09 35.69 C 56.40 35.32 54.71 34.92 53.02 34.53 C 52.86 42.35 52.58 50.18 53.38 57.98 C 55.94 57.27 59.17 57.09 60.68 54.55 C 60.72 49.32 56.97 44.55 58.16 39.24 C 59.23 34.25 63.21 30.69 67.12 27.76 C 69.03 32.70 68.71 38.03 67.59 43.11 C 66.28 42.58 64.98 42.05 63.68 41.52 C 65.83 46.68 69.87 52.42 67.12 58.12 C 65.06 62.93 59.54 64.22 55.12 65.94 C 55.63 69.41 55.14 72.90 54.23 76.26 L 54.05 77.03 C 53.57 76.79 52.61 76.31 52.13 76.06 C 53.09 72.24 53.12 68.28 52.33 64.43 C 56.98 62.92 63.04 62.29 65.41 57.35 C 67.47 53.41 64.84 49.31 63.45 45.63 C 62.22 43.05 62.29 40.15 62.42 37.36 C 63.88 38.08 65.33 38.83 66.79 39.56 C 66.70 36.59 66.62 33.62 66.46 30.65 C 63.62 33.23 60.46 36.09 59.94 40.13 C 59.31 45.16 62.80 49.61 62.58 54.59 C 61.24 59.15 55.70 59.63 51.69 59.56 C 50.67 51.69 51.09 43.74 51.04 35.83 C 50.80 33.68 52.14 31.99 53.46 30.47 C 52.29 27.84 51.01 25.26 49.64 22.72 C 48.12 25.26 46.73 27.87 45.47 30.55 C 46.92 31.96 48.24 33.66 47.97 35.83 C 47.88 43.73 48.35 51.69 47.31 59.56 C 43.31 59.65 37.77 59.13 36.44 54.58 C 36.21 49.33 40.16 44.56 38.91 39.25 C 38.11 35.56 35.15 32.99 32.42 30.65 C 32.39 33.38 32.42 36.12 32.48 38.85 C 33.89 38.42 35.29 37.99 36.69 37.57 C 37.23 42.19 35.32 46.42 33.57 50.55 C 31.91 54.06 33.19 58.50 36.39 60.66 C 39.49 62.69 43.22 63.36 46.73 64.39 C 45.93 68.27 45.98 72.23 46.83 76.10 L 46.99 77.14 C 46.40 76.95 45.22 76.57 44.63 76.38 C 43.88 72.95 43.46 69.43 43.92 65.93 C 39.49 64.22 33.96 62.94 31.91 58.11 C 29.13 52.41 33.20 46.67 35.34 41.51 C 34.03 42.05 32.73 42.59 31.43 43.13 C 30.35 38.03 30.04 32.71 31.89 27.74 C 35.79 30.68 39.78 34.24 40.86 39.24 C 42.03 44.55 38.34 49.32 38.32 54.55 C 39.88 57.05 43.06 57.26 45.63 57.99 C 46.38 50.18 46.15 42.33 45.98 34.50 C 44.29 34.93 42.60 35.37 40.91 35.78 C 43.52 30.41 46.32 25.13 49.42 20.02 Z" />
<path fill="#ffffff" opacity="1.00" d=" M 45.47 30.55 C 46.73 27.87 48.12 25.26 49.64 22.72 C 51.01 25.26 52.29 27.84 53.46 30.47 C 52.14 31.99 50.80 33.68 51.04 35.83 C 51.09 43.74 50.67 51.69 51.69 59.56 C 55.70 59.63 61.24 59.15 62.58 54.59 C 62.80 49.61 59.31 45.16 59.94 40.13 C 60.46 36.09 63.62 33.23 66.46 30.65 C 66.62 33.62 66.70 36.59 66.79 39.56 C 65.33 38.83 63.88 38.08 62.42 37.36 C 62.29 40.15 62.22 43.05 63.45 45.63 C 64.84 49.31 67.47 53.41 65.41 57.35 C 63.04 62.29 56.98 62.92 52.33 64.43 C 53.12 68.28 53.09 72.24 52.13 76.06 C 50.37 76.09 48.60 76.09 46.83 76.10 C 45.98 72.23 45.93 68.27 46.73 64.39 C 43.22 63.36 39.49 62.69 36.39 60.66 C 33.19 58.50 31.91 54.06 33.57 50.55 C 35.32 46.42 37.23 42.19 36.69 37.57 C 35.29 37.99 33.89 38.42 32.48 38.85 C 32.42 36.12 32.39 33.38 32.42 30.65 C 35.15 32.99 38.11 35.56 38.91 39.25 C 40.16 44.56 36.21 49.33 36.44 54.58 C 37.77 59.13 43.31 59.65 47.31 59.56 C 48.35 51.69 47.88 43.73 47.97 35.83 C 48.24 33.66 46.92 31.96 45.47 30.55 Z" />
<path fill="#0d6e6e" opacity="1.00" d=" M 42.33 37.21 C 43.13 36.82 43.93 36.42 44.73 36.02 C 44.69 42.75 44.75 49.47 44.66 56.19 C 42.99 55.78 41.34 55.35 39.68 54.92 C 40.40 48.97 43.24 43.36 42.33 37.21 Z" />
<path fill="#0d6e6e" opacity="1.00" d=" M 54.27 36.03 C 55.07 36.42 55.88 36.80 56.69 37.19 C 55.79 43.35 58.63 48.97 59.34 54.93 C 57.68 55.36 56.01 55.78 54.35 56.19 C 54.25 49.47 54.31 42.75 54.27 36.03 Z" />
</svg>
