<?xml version="1.0" encoding="UTF-8" ?>
<!DOCTYPE svg PUBLIC "-//W3C//DTD SVG 1.1//EN" "http://www.w3.org/Graphics/SVG/1.1/DTD/svg11.dtd">
<svg width="100pt" height="100pt" viewBox="0 0 100 100" version="1.1" xmlns="http://www.w3.org/2000/svg">
<path fill="#ffffff" opacity="1.00" d=" M 36.88 6.00 C 42.92 5.47 48.99 3.94 55.05 5.04 C 58.26 5.52 61.53 5.56 64.70 6.29 C 66.69 7.26 68.24 8.93 69.97 10.29 C 69.77 11.96 69.54 13.61 69.32 15.27 C 72.13 15.65 74.98 15.54 77.79 15.85 C 79.34 16.75 80.76 17.94 81.83 19.40 C 82.58 21.52 82.25 23.82 82.31 26.03 C 81.76 30.74 85.35 34.41 86.41 38.78 C 91.99 54.68 84.50 73.55 70.31 82.27 C 61.23 87.86 49.75 90.11 39.48 86.64 C 22.68 82.20 10.87 65.14 11.71 47.95 C 12.23 41.98 14.18 36.26 16.92 30.97 C 19.14 26.85 15.65 21.01 19.75 17.74 C 22.38 14.56 26.78 16.14 30.34 15.53 C 30.34 13.85 30.09 12.14 30.46 10.48 C 32.10 8.46 34.07 6.14 36.88 6.00 M 36.49 8.72 C 32.81 9.46 33.50 13.86 32.42 16.56 C 29.13 19.54 23.36 16.86 20.59 20.57 C 19.57 25.04 21.47 29.92 19.18 34.14 C 15.60 41.15 14.33 49.29 15.99 57.02 C 18.87 72.05 32.77 84.03 48.06 84.65 C 61.96 85.64 75.80 77.18 81.53 64.53 C 85.89 55.23 85.79 43.99 81.12 34.82 C 78.49 30.42 80.36 25.23 79.47 20.48 C 76.57 16.90 70.99 19.33 67.55 16.57 C 66.49 13.84 67.25 9.41 63.52 8.69 C 54.62 7.04 45.38 7.05 36.49 8.72 Z" />
<path fill="#482b46" opacity="1.00" d=" M 36.49 8.72 C 45.38 7.05 54.62 7.04 63.52 8.69 C 67.25 9.41 66.49 13.84 67.55 16.57 C 70.99 19.33 76.57 16.90 79.47 20.48 C 80.36 25.23 78.49 30.42 81.12 34.82 C 85.79 43.99 85.89 55.23 81.53 64.53 C 75.80 77.18 61.96 85.64 48.06 84.65 C 32.77 84.03 18.87 72.05 15.99 57.02 C 14.33 49.29 15.60 41.15 19.18 34.14 C 21.47 29.92 19.57 25.04 20.59 20.57 C 23.36 16.86 29.13 19.54 32.42 16.56 C 33.50 13.86 32.81 9.46 36.49 8.72 M 36.89 11.61 C 36.16 14.35 36.24 17.96 33.46 19.57 C 30.30 21.31 26.52 21.08 23.18 22.30 C 22.29 40.75 33.43 58.70 50.03 66.64 C 54.79 64.06 59.43 61.12 63.20 57.19 C 72.50 47.98 77.41 34.71 76.79 21.68 C 73.34 21.28 69.65 21.30 66.56 19.53 C 63.74 17.95 63.83 14.33 63.10 11.58 C 54.41 10.10 45.57 10.12 36.89 11.61 M 19.42 58.45 C 22.03 58.70 24.74 58.78 27.17 59.84 C 28.26 60.12 28.74 60.81 28.62 61.91 C 27.92 64.12 26.42 65.96 25.17 67.87 C 27.68 66.91 30.19 65.66 32.93 65.53 C 34.38 65.35 35.32 65.95 35.75 67.34 C 36.52 70.47 35.56 73.69 35.14 76.81 C 37.69 74.69 40.09 71.26 43.68 71.32 C 47.25 73.47 48.26 77.92 50.00 81.44 C 51.74 77.92 52.75 73.46 56.32 71.32 C 59.91 71.27 62.32 74.69 64.85 76.81 C 64.04 73.01 63.70 69.06 64.79 65.27 C 67.86 65.67 70.87 66.47 73.71 67.71 C 72.59 65.35 71.66 62.91 70.96 60.40 C 74.08 59.37 77.30 58.70 80.57 58.42 C 77.42 55.58 75.38 51.83 73.99 47.88 C 68.79 56.75 61.29 64.46 51.96 68.94 C 50.72 69.66 49.28 69.65 48.04 68.94 C 38.68 64.49 31.31 56.67 26.01 47.88 C 24.62 51.85 22.55 55.59 19.42 58.45 Z" />
<path fill="#ffffff" opacity="1.00" d=" M 36.89 11.61 C 45.57 10.12 54.41 10.10 63.10 11.58 C 63.83 14.33 63.74 17.95 66.56 19.53 C 69.65 21.30 73.34 21.28 76.79 21.68 C 77.41 34.71 72.50 47.98 63.20 57.19 C 59.43 61.12 54.79 64.06 50.03 66.64 C 33.43 58.70 22.29 40.75 23.18 22.30 C 26.52 21.08 30.30 21.31 33.46 19.57 C 36.24 17.96 36.16 14.35 36.89 11.61 M 41.29 15.11 C 39.90 17.68 38.79 20.58 36.45 22.46 C 33.74 24.46 30.33 25.02 27.15 25.87 C 27.69 30.84 28.55 35.83 30.52 40.47 C 34.12 49.76 41.45 57.15 50.03 62.02 C 53.88 59.64 57.71 57.14 60.84 53.83 C 68.18 46.39 72.07 36.14 72.85 25.82 C 69.68 24.96 66.27 24.41 63.56 22.42 C 61.20 20.56 60.09 17.66 58.71 15.09 C 52.93 14.32 47.07 14.33 41.29 15.11 Z" />
<path fill="#432741" opacity="1.00" d=" M 41.29 15.11 C 47.07 14.33 52.93 14.32 58.71 15.09 C 60.09 17.66 61.20 20.56 63.56 22.42 C 66.27 24.41 69.68 24.96 72.85 25.82 C 72.07 36.14 68.18 46.39 60.84 53.83 C 57.71 57.14 53.88 59.64 50.03 62.02 C 41.45 57.15 34.12 49.76 30.52 40.47 C 28.55 35.83 27.69 30.84 27.15 25.87 C 30.33 25.02 33.74 24.46 36.45 22.46 C 38.79 20.58 39.90 17.68 41.29 15.11 M 44.61 18.74 C 42.52 20.63 41.15 23.19 38.98 25.00 C 36.71 26.87 33.93 27.92 31.30 29.16 C 32.79 40.97 39.91 51.62 50.03 57.82 C 60.27 51.63 67.28 40.77 68.79 28.91 C 66.32 27.88 63.75 26.99 61.56 25.42 C 59.06 23.62 57.64 20.77 55.40 18.72 C 51.90 17.85 48.11 17.85 44.61 18.74 Z" />
<path fill="#ffffff" opacity="1.00" d=" M 44.61 18.74 C 48.11 17.85 51.90 17.85 55.40 18.72 C 57.64 20.77 59.06 23.62 61.56 25.42 C 63.75 26.99 66.32 27.88 68.79 28.91 C 67.28 40.77 60.27 51.63 50.03 57.82 C 39.91 51.62 32.79 40.97 31.30 29.16 C 33.93 27.92 36.71 26.87 38.98 25.00 C 41.15 23.19 42.52 20.63 44.61 18.74 Z" />
<path fill="#ffffff" opacity="1.00" d=" M 19.42 58.45 C 22.55 55.59 24.62 51.85 26.01 47.88 C 31.31 56.67 38.68 64.49 48.04 68.94 C 49.28 69.65 50.72 69.66 51.96 68.94 C 61.29 64.46 68.79 56.75 73.99 47.88 C 75.38 51.83 77.42 55.58 80.57 58.42 C 77.30 58.70 74.08 59.37 70.96 60.40 C 71.66 62.91 72.59 65.35 73.71 67.71 C 70.87 66.47 67.86 65.67 64.79 65.27 C 63.70 69.06 64.04 73.01 64.85 76.81 C 62.32 74.69 59.91 71.27 56.32 71.32 C 52.75 73.46 51.74 77.92 50.00 81.44 C 48.26 77.92 47.25 73.47 43.68 71.32 C 40.09 71.26 37.69 74.69 35.14 76.81 C 35.56 73.69 36.52 70.47 35.75 67.34 C 35.32 65.95 34.38 65.35 32.93 65.53 C 30.19 65.66 27.68 66.91 25.17 67.87 C 26.42 65.96 27.92 64.12 28.62 61.91 C 28.74 60.81 28.26 60.12 27.17 59.84 C 24.74 58.78 22.03 58.70 19.42 58.45 Z" />
</svg>
