<?xml version="1.0" encoding="UTF-8" ?>
<!DOCTYPE svg PUBLIC "-//W3C//DTD SVG 1.1//EN" "http://www.w3.org/Graphics/SVG/1.1/DTD/svg11.dtd">
<svg width="100pt" height="100pt" viewBox="0 0 100 100" version="1.1" xmlns="http://www.w3.org/2000/svg">
<path fill="#bab9b9" opacity="1.00" d=" M 42.69 29.75 C 44.90 26.63 47.09 23.51 49.31 20.39 C 51.85 23.28 54.09 26.41 56.20 29.62 C 60.12 28.38 64.12 27.41 68.19 26.77 C 67.47 30.15 66.59 33.49 65.71 36.82 C 68.55 39.12 70.96 41.90 72.60 45.18 C 75.16 46.09 78.44 46.44 79.91 49.03 C 80.65 51.64 80.40 54.56 82.08 56.86 C 84.58 60.69 84.06 65.45 85.24 69.70 C 87.02 73.33 89.80 76.35 91.97 79.74 C 63.96 79.70 35.95 79.55 7.94 79.55 C 9.80 76.58 12.19 73.91 13.66 70.71 C 14.14 66.68 13.35 62.30 15.65 58.68 C 17.33 56.15 17.61 53.14 18.20 50.25 C 18.91 47.46 21.94 46.62 24.40 46.08 C 25.14 47.43 25.85 48.80 26.54 50.17 C 26.44 47.90 26.05 45.62 26.31 43.34 C 27.71 40.21 30.79 38.31 33.17 35.97 C 32.40 32.91 31.70 29.82 31.14 26.71 C 35.10 27.23 38.95 28.34 42.69 29.75 M 49.34 25.70 C 47.63 27.93 45.91 30.16 44.12 32.33 C 40.60 30.85 36.98 29.64 33.26 28.77 C 33.86 31.38 35.02 33.96 34.88 36.68 C 32.75 39.33 29.37 40.98 27.94 44.16 C 27.79 46.20 28.91 48.06 29.52 49.95 C 27.81 50.61 26.09 51.27 24.38 51.93 C 24.03 50.58 23.67 49.22 23.31 47.87 C 22.09 48.75 20.51 49.34 19.74 50.70 C 19.39 52.41 19.63 54.17 19.69 55.89 C 17.59 58.86 15.16 62.10 15.74 65.97 C 16.16 69.66 16.60 73.56 14.22 76.73 C 20.81 76.61 27.41 76.58 34.01 76.72 C 36.45 76.68 39.12 77.02 41.29 75.61 L 40.95 75.17 C 41.30 75.54 42.01 76.28 42.36 76.65 C 47.77 76.71 53.19 76.73 58.61 76.62 C 58.96 76.24 59.65 75.48 60.00 75.09 L 59.74 75.41 C 60.61 75.16 61.49 74.92 62.38 74.69 C 63.30 75.08 64.20 75.53 65.11 75.94 L 65.08 77.02 C 66.57 76.67 68.06 76.31 69.54 75.91 C 69.97 75.96 70.83 76.06 71.26 76.11 L 71.58 76.85 C 73.17 76.52 75.20 77.16 76.44 75.89 C 76.35 75.17 76.18 73.73 76.10 73.01 C 76.54 73.84 76.96 74.68 77.37 75.53 C 77.99 75.60 79.22 75.74 79.83 75.81 L 79.95 74.90 C 79.89 75.34 79.78 76.24 79.72 76.69 C 81.78 76.70 83.84 76.72 85.90 76.74 C 84.10 73.82 82.63 70.62 82.73 67.11 C 82.71 62.88 81.77 58.60 78.67 55.52 C 78.59 53.60 78.63 51.65 78.26 49.76 C 77.28 48.59 75.68 48.20 74.39 47.47 C 74.13 48.99 73.88 50.51 73.63 52.03 C 71.91 51.33 70.20 50.63 68.49 49.93 C 69.08 48.05 69.83 46.18 69.93 44.18 C 68.51 41.23 65.62 39.33 63.38 37.03 C 64.33 34.39 65.18 31.71 65.92 28.99 C 62.09 29.58 58.42 30.86 54.97 32.61 C 53.22 30.21 51.32 27.92 49.34 25.70 M 71.31 48.26 C 71.85 48.79 71.85 48.79 71.31 48.26 Z" />
<path fill="#217a7a" opacity="1.00" d=" M 49.34 25.70 C 51.32 27.92 53.22 30.21 54.97 32.61 C 58.42 30.86 62.09 29.58 65.92 28.99 C 65.18 31.71 64.33 34.39 63.38 37.03 C 65.62 39.33 68.51 41.23 69.93 44.18 C 69.83 46.18 69.08 48.05 68.49 49.93 C 70.20 50.63 71.91 51.33 73.63 52.03 C 73.88 50.51 74.13 48.99 74.39 47.47 C 75.68 48.20 77.28 48.59 78.26 49.76 C 78.63 51.65 78.59 53.60 78.67 55.52 C 81.77 58.60 82.71 62.88 82.73 67.11 C 82.63 70.62 84.10 73.82 85.90 76.74 C 83.84 76.72 81.78 76.70 79.72 76.69 C 79.78 76.24 79.89 75.34 79.95 74.90 C 80.62 70.10 80.87 65.10 79.36 60.42 C 78.82 57.98 75.95 58.00 74.02 57.38 C 75.12 55.00 76.19 52.60 77.24 50.19 C 75.84 51.57 74.48 53.02 72.92 54.23 C 69.79 53.55 67.26 51.46 64.74 49.62 C 65.95 47.86 67.15 46.08 68.30 44.28 C 66.22 45.79 64.02 47.22 62.38 49.22 C 62.97 51.04 63.90 52.71 64.74 54.42 C 62.89 53.34 61.04 52.28 59.19 51.22 C 60.57 49.18 62.18 47.21 62.96 44.84 C 63.23 42.87 62.22 41.00 61.84 39.10 C 60.68 36.20 62.77 33.46 63.67 30.80 C 60.87 32.19 57.76 33.23 55.45 35.40 C 54.29 37.29 54.00 39.55 53.44 41.66 C 51.43 41.28 49.35 41.07 47.46 40.24 C 45.40 38.39 44.15 35.78 41.94 34.08 C 39.90 32.67 37.57 31.78 35.33 30.75 C 36.27 32.86 37.57 34.87 37.98 37.17 C 37.64 39.49 36.52 41.63 36.18 43.95 C 36.50 46.58 38.33 48.69 39.66 50.89 C 37.42 52.04 35.20 53.24 32.97 54.41 C 33.93 52.62 34.89 50.84 35.85 49.06 C 33.81 47.45 31.76 45.85 29.71 44.25 C 30.83 46.18 31.98 48.10 33.13 50.01 C 30.49 51.60 27.80 53.09 25.07 54.50 C 23.64 53.45 22.22 52.40 20.79 51.35 C 21.92 53.53 23.10 55.69 24.26 57.86 C 23.31 59.26 22.36 60.67 21.42 62.08 C 21.13 61.19 20.54 59.41 20.25 58.52 C 16.69 63.74 17.72 70.18 19.15 75.93 C 20.58 75.85 22.02 75.81 23.45 75.73 C 25.51 71.16 29.09 67.56 33.22 64.80 C 32.62 68.83 31.27 72.67 30.01 76.53 C 32.06 74.90 33.96 73.09 35.74 71.17 C 35.83 72.58 35.92 74.00 36.02 75.41 C 37.78 75.43 39.53 75.51 41.29 75.61 C 39.12 77.02 36.45 76.68 34.01 76.72 C 27.41 76.58 20.81 76.61 14.22 76.73 C 16.60 73.56 16.16 69.66 15.74 65.97 C 15.16 62.10 17.59 58.86 19.69 55.89 C 19.63 54.17 19.39 52.41 19.74 50.70 C 20.51 49.34 22.09 48.75 23.31 47.87 C 23.67 49.22 24.03 50.58 24.38 51.93 C 26.09 51.27 27.81 50.61 29.52 49.95 C 28.91 48.06 27.79 46.20 27.94 44.16 C 29.37 40.98 32.75 39.33 34.88 36.68 C 35.02 33.96 33.86 31.38 33.26 28.77 C 36.98 29.64 40.60 30.85 44.12 32.33 C 45.91 30.16 47.63 27.93 49.34 25.70 Z" />
<path fill="#ffffff" opacity="1.00" d=" M 35.33 30.75 C 37.57 31.78 39.90 32.67 41.94 34.08 C 44.15 35.78 45.40 38.39 47.46 40.24 C 49.35 41.07 51.43 41.28 53.44 41.66 C 54.00 39.55 54.29 37.29 55.45 35.40 C 57.76 33.23 60.87 32.19 63.67 30.80 C 62.77 33.46 60.68 36.20 61.84 39.10 C 62.22 41.00 63.23 42.87 62.96 44.84 C 62.18 47.21 60.57 49.18 59.19 51.22 C 61.04 52.28 62.89 53.34 64.74 54.42 C 63.90 52.71 62.97 51.04 62.38 49.22 C 64.02 47.22 66.22 45.79 68.30 44.28 C 67.15 46.08 65.95 47.86 64.74 49.62 C 67.26 51.46 69.79 53.55 72.92 54.23 C 74.48 53.02 75.84 51.57 77.24 50.19 C 76.19 52.60 75.12 55.00 74.02 57.38 C 75.95 58.00 78.82 57.98 79.36 60.42 C 80.87 65.10 80.62 70.10 79.95 74.90 L 79.83 75.81 C 79.22 75.74 77.99 75.60 77.37 75.53 C 76.96 74.68 76.54 73.84 76.10 73.01 C 74.29 69.45 70.89 67.15 67.80 64.81 C 68.23 68.77 69.57 72.53 71.26 76.11 C 70.83 76.06 69.97 75.96 69.54 75.91 C 68.01 74.34 66.65 72.62 65.28 70.93 C 65.22 72.60 65.16 74.27 65.11 75.94 C 64.20 75.53 63.30 75.08 62.38 74.69 C 61.49 74.92 60.61 75.16 59.74 75.41 L 60.00 75.09 C 64.19 71.25 66.46 66.07 67.63 60.59 C 70.63 64.33 73.91 67.99 78.30 70.12 C 77.46 65.46 74.77 61.50 71.69 58.02 C 67.03 58.73 62.40 59.66 57.78 60.56 C 60.49 59.53 63.22 58.54 65.96 57.58 C 62.11 55.73 58.32 53.77 54.61 51.66 C 56.65 49.34 59.10 47.29 60.49 44.48 C 60.81 41.50 58.32 39.15 57.00 36.71 C 56.96 39.19 57.13 41.66 57.35 44.12 C 52.30 44.91 47.17 44.75 42.09 44.36 C 42.22 41.77 42.33 39.17 42.28 36.57 C 40.90 39.15 38.28 41.69 38.85 44.84 C 40.03 47.51 42.74 49.03 44.86 50.88 C 41.39 53.84 37.29 55.88 33.11 57.62 C 35.76 58.66 38.40 59.71 41.02 60.81 C 36.55 60.08 32.12 57.99 27.54 58.52 C 23.54 61.71 20.77 66.74 21.54 71.97 C 25.93 68.68 29.84 64.82 33.40 60.66 C 34.57 66.12 36.89 71.24 40.95 75.17 L 41.29 75.61 C 39.53 75.51 37.78 75.43 36.02 75.41 C 35.92 74.00 35.83 72.58 35.74 71.17 C 33.96 73.09 32.06 74.90 30.01 76.53 C 31.27 72.67 32.62 68.83 33.22 64.80 C 29.09 67.56 25.51 71.16 23.45 75.73 C 22.02 75.81 20.58 75.85 19.15 75.93 C 17.72 70.18 16.69 63.74 20.25 58.52 C 20.54 59.41 21.13 61.19 21.42 62.08 C 22.36 60.67 23.31 59.26 24.26 57.86 C 23.10 55.69 21.92 53.53 20.79 51.35 C 22.22 52.40 23.64 53.45 25.07 54.50 C 27.80 53.09 30.49 51.60 33.13 50.01 C 31.98 48.10 30.83 46.18 29.71 44.25 C 31.76 45.85 33.81 47.45 35.85 49.06 C 34.89 50.84 33.93 52.62 32.97 54.41 C 35.20 53.24 37.42 52.04 39.66 50.89 C 38.33 48.69 36.50 46.58 36.18 43.95 C 36.52 41.63 37.64 39.49 37.98 37.17 C 37.57 34.87 36.27 32.86 35.33 30.75 Z" />
<path fill="#217a7a" opacity="1.00" d=" M 38.85 44.84 C 38.28 41.69 40.90 39.15 42.28 36.57 C 42.33 39.17 42.22 41.77 42.09 44.36 C 47.17 44.75 52.30 44.91 57.35 44.12 C 57.13 41.66 56.96 39.19 57.00 36.71 C 58.32 39.15 60.81 41.50 60.49 44.48 C 59.10 47.29 56.65 49.34 54.61 51.66 C 58.32 53.77 62.11 55.73 65.96 57.58 C 63.22 58.54 60.49 59.53 57.78 60.56 C 62.40 59.66 67.03 58.73 71.69 58.02 C 74.77 61.50 77.46 65.46 78.30 70.12 C 73.91 67.99 70.63 64.33 67.63 60.59 C 66.46 66.07 64.19 71.25 60.00 75.09 C 59.65 75.48 58.96 76.24 58.61 76.62 C 53.19 76.73 47.77 76.71 42.36 76.65 C 42.01 76.28 41.30 75.54 40.95 75.17 C 36.89 71.24 34.57 66.12 33.40 60.66 C 29.84 64.82 25.93 68.68 21.54 71.97 C 20.77 66.74 23.54 61.71 27.54 58.52 C 32.12 57.99 36.55 60.08 41.02 60.81 C 38.40 59.71 35.76 58.66 33.11 57.62 C 37.29 55.88 41.39 53.84 44.86 50.88 C 42.74 49.03 40.03 47.51 38.85 44.84 M 46.34 52.16 C 45.94 53.57 46.43 54.04 47.82 53.56 C 48.23 52.15 47.73 51.68 46.34 52.16 M 51.35 52.09 C 51.40 55.43 54.36 50.61 51.35 52.09 M 49.22 54.18 C 47.92 54.86 47.92 55.53 49.23 56.21 C 50.54 55.52 50.54 54.85 49.22 54.18 M 46.37 62.31 C 48.12 64.25 49.25 66.60 50.14 69.03 C 50.64 66.70 51.42 64.43 52.52 62.31 C 50.49 62.70 48.41 62.70 46.37 62.31 Z" />
<path fill="#96c0c0" opacity="1.00" d=" M 46.34 52.16 C 47.73 51.68 48.23 52.15 47.82 53.56 C 46.43 54.04 45.94 53.57 46.34 52.16 Z" />
<path fill="#afcfcf" opacity="1.00" d=" M 51.35 52.09 C 54.36 50.61 51.40 55.43 51.35 52.09 Z" />
<path fill="#ffffff" opacity="1.00" d=" M 49.22 54.18 C 50.54 54.85 50.54 55.52 49.23 56.21 C 47.92 55.53 47.92 54.86 49.22 54.18 Z" />
<path fill="#ffffff" opacity="1.00" d=" M 46.37 62.31 C 48.41 62.70 50.49 62.70 52.52 62.31 C 51.42 64.43 50.64 66.70 50.14 69.03 C 49.25 66.60 48.12 64.25 46.37 62.31 Z" />
<path fill="#217a7a" opacity="1.00" d=" M 67.80 64.81 C 70.89 67.15 74.29 69.45 76.10 73.01 C 76.18 73.73 76.35 75.17 76.44 75.89 C 75.20 77.16 73.17 76.52 71.58 76.85 L 71.26 76.11 C 69.57 72.53 68.23 68.77 67.80 64.81 Z" />
<path fill="#217a7a" opacity="1.00" d=" M 65.28 70.93 C 66.65 72.62 68.01 74.34 69.54 75.91 C 68.06 76.31 66.57 76.67 65.08 77.02 L 65.11 75.94 C 65.16 74.27 65.22 72.60 65.28 70.93 Z" />
</svg>
