<?xml version="1.0" encoding="UTF-8" ?>
<!DOCTYPE svg PUBLIC "-//W3C//DTD SVG 1.1//EN" "http://www.w3.org/Graphics/SVG/1.1/DTD/svg11.dtd">
<svg width="100pt" height="100pt" viewBox="0 0 100 100" version="1.1" xmlns="http://www.w3.org/2000/svg">
<path fill="#bab9b9" opacity="1.00" d=" M 35.36 32.26 C 40.82 27.72 45.64 22.36 49.38 16.26 C 51.79 19.30 53.79 22.67 56.54 25.43 C 58.69 27.31 61.02 28.97 63.13 30.89 C 65.95 33.84 71.04 33.02 73.41 36.55 C 76.34 40.52 75.45 45.67 75.26 50.26 C 74.99 52.29 76.51 53.88 77.51 55.47 C 82.41 62.18 87.25 68.93 92.02 75.74 C 84.66 75.80 77.30 75.58 69.94 75.73 C 67.19 75.65 64.95 77.40 62.61 78.59 C 56.89 81.40 50.16 83.84 43.93 81.09 C 38.26 80.09 34.06 74.84 28.04 75.47 C 21.32 75.46 14.60 75.55 7.88 75.50 C 12.87 68.31 17.93 61.16 22.98 54.01 C 26.80 49.21 23.08 42.43 26.36 37.32 C 28.00 33.84 32.20 33.55 35.36 32.26 M 49.35 21.93 C 46.27 26.31 41.94 29.49 37.91 32.92 C 35.22 35.24 31.18 35.18 28.61 37.61 C 25.41 42.05 27.58 47.69 27.12 52.68 C 26.46 54.91 24.89 56.72 23.59 58.60 C 20.17 63.14 16.95 67.83 13.93 72.64 C 19.64 72.80 25.35 72.36 31.05 72.67 C 33.27 72.66 34.95 74.24 36.67 75.41 C 42.29 79.76 50.11 81.25 56.87 78.95 C 61.07 77.82 64.24 74.63 68.18 72.97 C 74.11 72.05 80.15 72.90 86.12 72.64 C 82.09 65.64 76.28 59.79 72.47 52.70 C 72.84 47.66 75.11 41.92 71.55 37.44 C 68.81 35.26 64.95 35.08 62.20 32.84 C 57.81 29.33 52.80 26.49 49.35 21.93 Z" />
<path fill="#217a7a" opacity="1.00" d=" M 49.35 21.93 C 52.80 26.49 57.81 29.33 62.20 32.84 C 64.95 35.08 68.81 35.26 71.55 37.44 C 75.11 41.92 72.84 47.66 72.47 52.70 C 76.28 59.79 82.09 65.64 86.12 72.64 C 80.15 72.90 74.11 72.05 68.18 72.97 C 64.24 74.63 61.07 77.82 56.87 78.95 C 50.11 81.25 42.29 79.76 36.67 75.41 C 34.95 74.24 33.27 72.66 31.05 72.67 C 25.35 72.36 19.64 72.80 13.93 72.64 C 16.95 67.83 20.17 63.14 23.59 58.60 C 24.89 56.72 26.46 54.91 27.12 52.68 C 27.58 47.69 25.41 42.05 28.61 37.61 C 31.18 35.18 35.22 35.24 37.91 32.92 C 41.94 29.49 46.27 26.31 49.35 21.93 M 41.90 32.87 C 37.82 37.19 34.01 41.80 29.20 45.35 C 30.21 46.54 31.21 47.73 32.22 48.93 C 36.24 47.81 40.47 47.17 44.20 45.23 C 45.68 43.71 46.05 41.47 46.84 39.56 C 45.00 37.65 43.38 35.55 42.17 33.19 C 47.25 31.42 52.82 30.72 57.84 33.11 C 55.95 36.53 52.23 37.81 48.77 39.02 C 53.68 39.46 58.94 40.90 63.55 38.37 C 60.39 35.30 57.89 30.35 52.90 30.30 C 49.16 30.10 44.63 29.76 41.90 32.87 M 30.86 38.89 C 29.95 40.39 29.52 42.12 28.97 43.78 C 31.60 42.15 33.82 39.97 35.55 37.41 C 34.01 37.89 32.14 37.79 30.86 38.89 M 61.53 40.12 C 63.00 42.14 64.37 44.28 66.29 45.92 C 67.94 46.39 69.68 46.44 71.39 46.62 C 70.76 43.81 71.30 40.00 68.57 38.20 C 66.06 36.48 63.68 39.03 61.53 40.12 M 47.85 39.48 C 47.48 41.36 47.12 43.24 46.77 45.13 C 52.44 44.27 58.16 44.59 63.85 45.06 C 60.49 39.49 53.26 40.93 47.85 39.48 M 33.65 50.21 C 35.74 52.11 37.86 53.98 40.04 55.77 C 41.14 57.35 42.57 58.82 44.36 59.60 C 47.09 60.02 49.87 59.76 52.61 59.73 C 53.00 55.14 53.37 50.56 53.72 45.97 C 46.89 46.62 40.19 48.16 33.65 50.21 M 55.26 45.90 C 54.87 50.73 54.48 55.57 54.36 60.42 C 56.32 61.36 58.27 62.32 60.22 63.28 C 63.49 60.00 65.77 55.95 68.08 51.98 C 66.95 50.44 66.27 48.36 64.56 47.38 C 61.55 46.44 58.37 46.27 55.26 45.90 M 28.87 47.87 C 29.93 51.24 31.74 54.31 34.23 56.83 C 36.55 59.04 36.75 62.37 37.45 65.31 C 39.41 63.66 41.36 62.01 43.32 60.37 C 42.84 60.00 41.88 59.26 41.40 58.89 C 41.06 59.49 40.39 60.69 40.06 61.28 C 39.25 59.57 38.52 57.81 37.92 56.01 C 35.19 52.99 32.18 50.24 28.87 47.87 M 66.97 47.77 C 67.41 49.03 67.85 50.29 68.29 51.55 C 69.21 50.38 70.15 49.21 71.10 48.06 C 69.72 47.96 68.34 47.86 66.97 47.77 M 43.10 61.81 C 46.85 62.32 50.64 62.35 54.37 62.98 C 48.39 63.68 41.69 62.91 36.77 67.10 C 40.63 69.73 44.63 74.01 49.76 72.77 C 52.30 72.43 53.48 69.81 54.57 67.81 C 54.53 69.13 54.64 70.45 54.72 71.77 C 54.03 72.83 53.46 73.96 52.87 75.08 C 50.08 74.17 47.07 74.32 45.20 76.89 C 51.54 78.62 57.97 76.29 63.42 73.10 C 62.21 70.39 61.00 67.69 59.71 65.02 L 60.07 64.55 C 58.82 64.00 57.58 63.45 56.35 62.89 C 52.30 60.57 47.50 60.67 43.10 61.81 M 64.76 72.24 C 64.64 68.64 64.21 65.04 63.53 61.50 C 59.87 64.62 63.22 68.94 64.76 72.24 M 38.21 73.81 C 40.15 75.65 43.04 75.67 45.51 76.19 C 43.39 73.23 40.40 71.10 37.21 69.42 C 37.47 70.89 37.43 72.49 38.21 73.81 Z" />
<path fill="#ffffff" opacity="1.00" d=" M 41.90 32.87 C 44.63 29.76 49.16 30.10 52.90 30.30 C 57.89 30.35 60.39 35.30 63.55 38.37 C 58.94 40.90 53.68 39.46 48.77 39.02 C 52.23 37.81 55.95 36.53 57.84 33.11 C 52.82 30.72 47.25 31.42 42.17 33.19 C 43.38 35.55 45.00 37.65 46.84 39.56 C 46.05 41.47 45.68 43.71 44.20 45.23 C 40.47 47.17 36.24 47.81 32.22 48.93 C 31.21 47.73 30.21 46.54 29.20 45.35 C 34.01 41.80 37.82 37.19 41.90 32.87 M 43.34 38.55 C 42.24 39.44 43.43 41.83 44.81 41.19 C 45.95 40.28 44.74 37.90 43.34 38.55 Z" />
<path fill="#f0f6f6" opacity="1.00" d=" M 30.86 38.89 C 32.14 37.79 34.01 37.89 35.55 37.41 C 33.82 39.97 31.60 42.15 28.97 43.78 C 29.52 42.12 29.95 40.39 30.86 38.89 Z" />
<path fill="#297f7f" opacity="1.00" d=" M 43.34 38.55 C 44.74 37.90 45.95 40.28 44.81 41.19 C 43.43 41.83 42.24 39.44 43.34 38.55 Z" />
<path fill="#ffffff" opacity="1.00" d=" M 61.53 40.12 C 63.68 39.03 66.06 36.48 68.57 38.20 C 71.30 40.00 70.76 43.81 71.39 46.62 C 69.68 46.44 67.94 46.39 66.29 45.92 C 64.37 44.28 63.00 42.14 61.53 40.12 Z" />
<path fill="#ffffff" opacity="1.00" d=" M 47.85 39.48 C 53.26 40.93 60.49 39.49 63.85 45.06 C 58.16 44.59 52.44 44.27 46.77 45.13 C 47.12 43.24 47.48 41.36 47.85 39.48 Z" />
<path fill="#ffffff" opacity="1.00" d=" M 33.65 50.21 C 40.19 48.16 46.89 46.62 53.72 45.97 C 53.37 50.56 53.00 55.14 52.61 59.73 C 49.87 59.76 47.09 60.02 44.36 59.60 C 42.57 58.82 41.14 57.35 40.04 55.77 C 40.32 54.40 40.56 52.97 41.24 51.73 C 44.38 50.04 47.98 49.46 51.32 48.25 C 46.79 48.72 42.33 49.58 37.90 50.60 C 38.62 52.32 39.34 54.04 40.04 55.77 C 37.86 53.98 35.74 52.11 33.65 50.21 Z" />
<path fill="#ffffff" opacity="1.00" d=" M 55.26 45.90 C 58.37 46.27 61.55 46.44 64.56 47.38 C 66.27 48.36 66.95 50.44 68.08 51.98 C 65.77 55.95 63.49 60.00 60.22 63.28 C 58.27 62.32 56.32 61.36 54.36 60.42 C 54.48 55.57 54.87 50.73 55.26 45.90 M 56.26 48.22 C 55.78 52.44 55.56 56.79 56.91 60.89 C 57.15 56.46 57.29 52.00 58.25 47.65 C 57.75 47.80 56.75 48.08 56.26 48.22 Z" />
<path fill="#ffffff" opacity="1.00" d=" M 28.87 47.87 C 32.18 50.24 35.19 52.99 37.92 56.01 C 38.52 57.81 39.25 59.57 40.06 61.28 C 40.39 60.69 41.06 59.49 41.40 58.89 C 41.88 59.26 42.84 60.00 43.32 60.37 C 41.36 62.01 39.41 63.66 37.45 65.31 C 36.75 62.37 36.55 59.04 34.23 56.83 C 31.74 54.31 29.93 51.24 28.87 47.87 Z" />
<path fill="#217a7a" opacity="1.00" d=" M 37.90 50.60 C 42.33 49.58 46.79 48.72 51.32 48.25 C 47.98 49.46 44.38 50.04 41.24 51.73 C 40.56 52.97 40.32 54.40 40.04 55.77 C 39.34 54.04 38.62 52.32 37.90 50.60 Z" />
<path fill="#217a7a" opacity="1.00" d=" M 56.26 48.22 C 56.75 48.08 57.75 47.80 58.25 47.65 C 57.29 52.00 57.15 56.46 56.91 60.89 C 55.56 56.79 55.78 52.44 56.26 48.22 Z" />
<path fill="#ffffff" opacity="1.00" d=" M 66.97 47.77 C 68.34 47.86 69.72 47.96 71.10 48.06 C 70.15 49.21 69.21 50.38 68.29 51.55 C 67.85 50.29 67.41 49.03 66.97 47.77 Z" />
<path fill="#ffffff" opacity="1.00" d=" M 43.10 61.81 C 47.50 60.67 52.30 60.57 56.35 62.89 C 55.75 64.53 55.16 66.17 54.57 67.81 C 53.48 69.81 52.30 72.43 49.76 72.77 C 44.63 74.01 40.63 69.73 36.77 67.10 C 41.69 62.91 48.39 63.68 54.37 62.98 C 50.64 62.35 46.85 62.32 43.10 61.81 Z" />
<path fill="#ffffff" opacity="1.00" d=" M 64.76 72.24 C 63.22 68.94 59.87 64.62 63.53 61.50 C 64.21 65.04 64.64 68.64 64.76 72.24 Z" />
<path fill="#6ea8a8" opacity="1.00" d=" M 56.35 62.89 C 57.58 63.45 58.82 64.00 60.07 64.55 L 59.71 65.02 C 58.01 67.24 56.30 69.46 54.72 71.77 C 54.64 70.45 54.53 69.13 54.57 67.81 C 55.16 66.17 55.75 64.53 56.35 62.89 Z" />
<path fill="#ffffff" opacity="1.00" d=" M 54.72 71.77 C 56.30 69.46 58.01 67.24 59.71 65.02 C 61.00 67.69 62.21 70.39 63.42 73.10 C 57.97 76.29 51.54 78.62 45.20 76.89 C 47.07 74.32 50.08 74.17 52.87 75.08 C 53.46 73.96 54.03 72.83 54.72 71.77 Z" />
<path fill="#ffffff" opacity="1.00" d=" M 38.21 73.81 C 37.43 72.49 37.47 70.89 37.21 69.42 C 40.40 71.10 43.39 73.23 45.51 76.19 C 43.04 75.67 40.15 75.65 38.21 73.81 Z" />
</svg>
