<?xml version="1.0" encoding="UTF-8" ?>
<!DOCTYPE svg PUBLIC "-//W3C//DTD SVG 1.1//EN" "http://www.w3.org/Graphics/SVG/1.1/DTD/svg11.dtd">
<svg width="100pt" height="100pt" viewBox="0 0 100 100" version="1.1" xmlns="http://www.w3.org/2000/svg">
<path fill="#b8b8b8" opacity="1.00" d=" M 62.83 20.92 C 69.34 16.90 76.06 13.22 82.61 9.26 C 83.24 15.53 83.66 21.81 84.16 28.08 C 85.02 34.08 80.29 38.67 77.87 43.69 C 80.98 45.52 84.10 47.34 87.23 49.15 C 83.41 52.66 78.95 55.54 75.76 59.67 C 74.79 69.97 75.73 80.42 75.35 90.78 C 54.02 90.67 32.69 90.71 11.36 90.76 C 11.40 69.47 11.41 48.17 11.36 26.87 C 27.12 26.82 42.88 26.82 58.64 26.87 C 59.72 24.70 60.58 22.17 62.83 20.92 M 65.93 22.95 C 63.98 24.13 63.01 26.26 62.15 28.27 C 62.22 27.90 62.35 27.17 62.42 26.81 C 56.52 30.34 49.49 28.83 43.00 29.01 C 33.50 29.23 23.93 28.23 14.51 29.84 L 15.40 29.92 C 15.23 49.14 15.25 68.36 15.28 87.58 C 34.18 87.61 53.09 87.50 71.99 87.58 C 72.40 77.52 72.03 67.44 72.25 57.38 C 75.35 54.93 78.30 52.31 81.18 49.61 C 78.47 48.01 75.77 46.41 73.06 44.83 C 75.83 40.11 79.67 35.91 81.46 30.69 C 82.12 25.15 81.08 19.59 80.72 14.06 C 75.82 17.08 70.71 19.75 65.93 22.95 Z" />
<path fill="#c40f24" opacity="1.00" d=" M 65.93 22.95 C 70.71 19.75 75.82 17.08 80.72 14.06 C 81.08 19.59 82.12 25.15 81.46 30.69 C 79.67 35.91 75.83 40.11 73.06 44.83 C 75.77 46.41 78.47 48.01 81.18 49.61 C 78.30 52.31 75.35 54.93 72.25 57.38 C 72.03 67.44 72.40 77.52 71.99 87.58 C 53.09 87.50 34.18 87.61 15.28 87.58 C 15.25 68.36 15.23 49.14 15.40 29.92 C 30.74 30.92 46.15 30.35 61.51 30.23 C 61.67 29.74 61.99 28.76 62.15 28.27 C 63.01 26.26 63.98 24.13 65.93 22.95 M 66.42 27.42 C 63.92 34.06 62.86 41.14 60.85 47.94 C 55.94 49.44 50.45 51.13 45.77 48.01 C 44.40 48.72 43.03 49.45 41.67 50.19 C 38.63 46.86 36.34 42.96 33.51 39.49 C 30.11 35.94 24.47 38.64 22.01 41.98 C 20.70 44.96 20.82 48.48 21.51 51.61 C 22.82 53.73 24.77 55.34 26.53 57.08 L 25.21 57.01 L 24.45 56.03 C 22.28 61.81 24.56 67.97 23.32 73.91 C 21.00 74.68 18.70 75.47 16.39 76.26 C 16.42 78.37 16.43 80.47 16.46 82.58 C 19.11 83.86 21.74 85.17 24.45 86.32 C 22.34 84.09 20.13 81.95 17.94 79.80 C 21.91 79.42 25.92 79.82 29.44 81.83 C 28.65 83.27 27.85 84.71 27.07 86.16 C 37.54 86.22 48.01 86.26 58.49 86.13 C 56.97 83.04 54.59 80.11 54.62 76.50 C 54.61 72.70 53.65 69.02 52.50 65.43 C 55.49 62.97 58.51 60.50 62.12 59.02 C 64.54 58.05 66.24 56.05 67.81 54.07 C 70.59 53.18 73.29 52.03 75.75 50.45 C 72.40 50.43 69.04 50.63 65.69 50.69 C 68.08 49.72 70.51 48.86 72.95 48.02 C 71.14 47.82 69.34 47.66 67.53 47.49 C 70.28 42.39 73.73 37.72 76.74 32.77 C 79.41 28.64 78.11 23.52 78.17 18.91 C 74.23 21.66 69.43 23.57 66.42 27.42 Z" />
<path fill="#ffffff" opacity="1.00" d=" M 66.42 27.42 C 69.43 23.57 74.23 21.66 78.17 18.91 C 78.11 23.52 79.41 28.64 76.74 32.77 C 73.73 37.72 70.28 42.39 67.53 47.49 C 69.34 47.66 71.14 47.82 72.95 48.02 C 70.51 48.86 68.08 49.72 65.69 50.69 C 69.04 50.63 72.40 50.43 75.75 50.45 C 73.29 52.03 70.59 53.18 67.81 54.07 C 66.24 56.05 64.54 58.05 62.12 59.02 C 58.51 60.50 55.49 62.97 52.50 65.43 C 53.65 69.02 54.61 72.70 54.62 76.50 C 54.59 80.11 56.97 83.04 58.49 86.13 C 48.01 86.26 37.54 86.22 27.07 86.16 C 27.85 84.71 28.65 83.27 29.44 81.83 C 25.92 79.82 21.91 79.42 17.94 79.80 C 20.13 81.95 22.34 84.09 24.45 86.32 C 21.74 85.17 19.11 83.86 16.46 82.58 C 16.43 80.47 16.42 78.37 16.39 76.26 C 18.70 75.47 21.00 74.68 23.32 73.91 C 24.56 67.97 22.28 61.81 24.45 56.03 L 25.21 57.01 C 26.18 58.25 27.14 59.51 28.10 60.76 C 29.16 59.61 30.22 58.45 31.29 57.30 C 29.70 57.24 28.12 57.16 26.53 57.08 C 24.77 55.34 22.82 53.73 21.51 51.61 C 20.82 48.48 20.70 44.96 22.01 41.98 C 24.47 38.64 30.11 35.94 33.51 39.49 C 36.34 42.96 38.63 46.86 41.67 50.19 C 43.03 49.45 44.40 48.72 45.77 48.01 C 50.45 51.13 55.94 49.44 60.85 47.94 C 62.86 41.14 63.92 34.06 66.42 27.42 M 26.82 43.24 C 29.25 45.08 31.87 46.63 34.48 48.20 C 34.47 49.60 34.45 51.01 34.42 52.42 C 36.44 52.12 38.45 51.85 40.47 51.54 C 36.45 47.99 31.55 45.67 26.82 43.24 M 48.70 55.88 C 50.02 56.25 51.34 56.62 52.66 56.99 C 52.48 55.86 52.30 54.72 52.12 53.59 C 55.75 53.46 59.49 53.46 62.90 52.02 C 57.94 51.21 51.38 50.47 48.70 55.88 M 25.59 52.90 C 27.50 53.58 29.46 54.09 31.44 54.51 C 29.80 53.09 27.71 52.69 25.59 52.90 M 41.74 60.35 C 42.80 61.95 43.88 63.54 44.96 65.13 C 43.35 64.65 41.74 64.16 40.12 63.71 C 41.97 65.15 43.92 66.47 45.86 67.79 C 44.60 68.93 43.39 70.13 41.95 71.05 C 39.66 70.21 37.61 68.87 35.50 67.66 C 37.66 69.39 39.71 71.31 42.19 72.58 C 44.28 72.23 45.93 70.78 47.62 69.62 C 49.53 72.13 51.57 74.56 54.00 76.60 C 52.69 73.78 50.77 71.30 49.53 68.46 C 48.55 66.84 50.01 65.31 50.61 63.85 C 47.06 64.87 44.20 62.59 41.74 60.35 Z" />
<path fill="#b6d5d2" opacity="1.00" d=" M 43.00 29.01 C 49.49 28.83 56.52 30.34 62.42 26.81 C 62.35 27.17 62.22 27.90 62.15 28.27 C 61.99 28.76 61.67 29.74 61.51 30.23 C 46.15 30.35 30.74 30.92 15.40 29.92 L 14.51 29.84 C 23.93 28.23 33.50 29.23 43.00 29.01 Z" />
<path fill="#bb0002" opacity="1.00" d=" M 26.82 43.24 C 31.55 45.67 36.45 47.99 40.47 51.54 C 38.45 51.85 36.44 52.12 34.42 52.42 C 34.45 51.01 34.47 49.60 34.48 48.20 C 31.87 46.63 29.25 45.08 26.82 43.24 Z" />
<path fill="#bb0002" opacity="1.00" d=" M 48.70 55.88 C 51.38 50.47 57.94 51.21 62.90 52.02 C 59.49 53.46 55.75 53.46 52.12 53.59 C 52.30 54.72 52.48 55.86 52.66 56.99 C 51.34 56.62 50.02 56.25 48.70 55.88 Z" />
<path fill="#c40f24" opacity="1.00" d=" M 25.59 52.90 C 27.71 52.69 29.80 53.09 31.44 54.51 C 29.46 54.09 27.50 53.58 25.59 52.90 Z" />
<path fill="#bb0002" opacity="1.00" d=" M 25.21 57.01 L 26.53 57.08 C 28.12 57.16 29.70 57.24 31.29 57.30 C 30.22 58.45 29.16 59.61 28.10 60.76 C 27.14 59.51 26.18 58.25 25.21 57.01 Z" />
<path fill="#c2061c" opacity="1.00" d=" M 41.74 60.35 C 44.20 62.59 47.06 64.87 50.61 63.85 C 50.01 65.31 48.55 66.84 49.53 68.46 C 50.77 71.30 52.69 73.78 54.00 76.60 C 51.57 74.56 49.53 72.13 47.62 69.62 C 45.93 70.78 44.28 72.23 42.19 72.58 C 39.71 71.31 37.66 69.39 35.50 67.66 C 37.61 68.87 39.66 70.21 41.95 71.05 C 43.39 70.13 44.60 68.93 45.86 67.79 C 43.92 66.47 41.97 65.15 40.12 63.71 C 41.74 64.16 43.35 64.65 44.96 65.13 C 43.88 63.54 42.80 61.95 41.74 60.35 Z" />
</svg>
