<?xml version="1.0" encoding="UTF-8" ?>
<!DOCTYPE svg PUBLIC "-//W3C//DTD SVG 1.1//EN" "http://www.w3.org/Graphics/SVG/1.1/DTD/svg11.dtd">
<svg width="100pt" height="100pt" viewBox="0 0 100 100" version="1.1" xmlns="http://www.w3.org/2000/svg">
<path fill="#bab9b9" opacity="1.00" d=" M 40.76 30.64 C 44.71 28.24 46.67 23.86 49.35 20.29 C 53.07 25.30 56.72 30.45 61.72 34.30 C 64.68 37.90 70.75 36.60 73.00 41.00 C 75.98 45.30 73.90 50.68 74.81 55.34 C 80.23 63.67 86.44 71.49 92.00 79.74 C 84.31 79.78 76.62 79.61 68.94 79.72 C 65.43 79.62 62.89 82.43 59.76 83.55 C 56.30 84.86 52.70 86.05 48.99 86.28 C 45.43 85.87 41.95 84.78 38.68 83.33 C 35.53 81.93 32.71 79.35 29.05 79.52 C 22.01 79.39 14.96 79.59 7.91 79.52 C 13.02 71.78 18.78 64.47 23.71 56.62 C 25.17 51.53 23.08 45.61 25.75 40.77 C 27.63 37.39 31.92 37.47 35.02 35.91 C 36.90 34.12 38.50 32.01 40.76 30.64 M 36.96 36.95 C 34.57 39.42 30.43 38.72 28.03 41.11 C 24.58 46.29 27.43 52.74 26.29 58.36 C 22.56 64.69 17.60 70.23 13.95 76.64 C 19.93 76.91 25.96 76.14 31.91 76.89 C 35.37 78.30 37.96 81.34 41.59 82.46 C 48.47 85.20 56.59 83.87 62.55 79.58 C 64.50 78.28 66.43 76.54 68.94 76.63 C 74.65 76.43 80.38 76.82 86.10 76.64 C 81.94 69.48 76.17 63.39 72.00 56.28 C 71.56 51.96 73.93 47.40 71.87 43.20 C 70.42 38.81 64.81 39.77 61.81 37.12 C 57.61 33.48 52.71 30.52 49.57 25.83 C 46.70 30.99 40.65 32.60 36.96 36.95 Z" />
<path fill="#217a7a" opacity="1.00" d=" M 36.96 36.95 C 40.65 32.60 46.70 30.99 49.57 25.83 C 52.71 30.52 57.61 33.48 61.81 37.12 C 64.81 39.77 70.42 38.81 71.87 43.20 C 73.93 47.40 71.56 51.96 72.00 56.28 C 76.17 63.39 81.94 69.48 86.10 76.64 C 80.38 76.82 74.65 76.43 68.94 76.63 C 66.43 76.54 64.50 78.28 62.55 79.58 C 56.59 83.87 48.47 85.20 41.59 82.46 C 37.96 81.34 35.37 78.30 31.91 76.89 C 25.96 76.14 19.93 76.91 13.95 76.64 C 17.60 70.23 22.56 64.69 26.29 58.36 C 27.43 52.74 24.58 46.29 28.03 41.11 C 30.43 38.72 34.57 39.42 36.96 36.95 M 42.28 35.20 C 39.89 37.20 38.08 39.79 35.90 42.01 C 37.62 43.47 39.27 45.03 41.19 46.22 C 45.00 47.11 48.52 44.93 50.78 42.02 C 46.45 42.12 42.06 42.79 37.81 41.63 C 39.45 41.66 41.08 41.73 42.72 41.83 C 42.48 40.22 42.24 38.62 42.02 37.01 C 46.59 35.14 51.60 34.57 56.20 36.70 C 55.92 37.97 55.62 39.23 55.33 40.50 C 59.99 40.47 62.51 44.45 65.99 46.73 C 67.49 46.26 68.90 45.54 70.33 44.87 C 68.61 42.35 65.75 41.55 62.96 40.87 C 58.82 39.93 57.48 34.34 52.96 34.31 C 49.42 34.10 45.61 33.76 42.28 35.20 M 43.10 47.59 C 38.97 46.96 36.35 42.25 32.07 42.48 C 28.97 42.72 28.62 46.00 27.75 48.30 C 28.26 50.88 28.75 53.47 29.23 56.06 C 32.09 58.08 34.57 61.22 38.26 61.65 C 43.61 62.07 46.55 55.56 51.95 56.14 C 56.46 55.94 57.68 62.04 61.94 62.42 C 66.66 58.41 70.90 52.83 70.53 46.31 C 69.45 46.64 68.36 46.96 67.26 47.25 C 62.60 49.14 61.24 41.97 56.92 41.76 C 51.43 40.79 48.35 47.33 43.10 47.59 M 39.78 63.79 C 37.07 65.44 37.43 68.89 36.99 71.60 C 42.19 69.76 45.97 64.03 51.98 64.98 C 56.41 64.71 57.60 72.47 62.16 70.40 C 64.54 69.03 62.76 66.02 62.79 63.90 C 61.05 63.24 59.16 62.67 57.87 61.24 C 55.70 59.28 53.62 55.92 50.19 56.86 C 46.27 58.36 43.11 61.30 39.78 63.79 M 47.65 65.74 C 49.95 66.97 52.26 68.17 54.49 69.51 C 51.79 68.92 49.10 68.29 46.44 67.56 C 43.50 69.41 40.41 71.00 37.21 72.36 C 37.83 73.83 38.46 75.29 39.10 76.75 C 38.34 76.73 36.82 76.69 36.06 76.68 C 37.16 77.34 38.22 78.08 39.18 78.94 C 41.87 77.89 43.78 75.52 46.47 74.45 C 50.52 73.20 53.89 76.40 57.65 77.34 C 58.10 77.99 58.56 78.63 59.02 79.28 C 60.57 78.09 62.30 77.05 63.51 75.49 C 63.78 74.13 63.91 72.75 64.09 71.38 C 62.21 71.46 60.33 71.55 58.45 71.62 C 56.82 69.90 55.36 67.93 53.34 66.63 C 51.55 65.90 49.54 66.02 47.65 65.74 M 41.51 79.79 C 46.15 81.54 51.15 81.97 55.83 80.12 C 54.21 78.20 52.96 75.27 49.97 75.52 C 46.35 74.69 43.61 77.23 41.51 79.79 Z" />
<path fill="#ffffff" opacity="1.00" d=" M 42.28 35.20 C 45.61 33.76 49.42 34.10 52.96 34.31 C 57.48 34.34 58.82 39.93 62.96 40.87 C 65.75 41.55 68.61 42.35 70.33 44.87 C 68.90 45.54 67.49 46.26 65.99 46.73 C 62.51 44.45 59.99 40.47 55.33 40.50 C 55.62 39.23 55.92 37.97 56.20 36.70 C 51.60 34.57 46.59 35.14 42.02 37.01 C 42.24 38.62 42.48 40.22 42.72 41.83 C 41.08 41.73 39.45 41.66 37.81 41.63 C 42.06 42.79 46.45 42.12 50.78 42.02 C 48.52 44.93 45.00 47.11 41.19 46.22 C 39.27 45.03 37.62 43.47 35.90 42.01 C 38.08 39.79 39.89 37.20 42.28 35.20 Z" />
<path fill="#ffffff" opacity="1.00" d=" M 43.10 47.59 C 48.35 47.33 51.43 40.79 56.92 41.76 C 61.24 41.97 62.60 49.14 67.26 47.25 C 68.36 46.96 69.45 46.64 70.53 46.31 C 70.90 52.83 66.66 58.41 61.94 62.42 C 57.68 62.04 56.46 55.94 51.95 56.14 C 46.55 55.56 43.61 62.07 38.26 61.65 C 34.57 61.22 32.09 58.08 29.23 56.06 C 30.15 54.72 31.07 53.38 31.99 52.04 C 35.17 53.57 38.44 55.00 41.90 55.73 C 46.56 54.67 49.82 49.71 54.82 49.92 C 58.07 51.22 60.23 54.23 63.25 55.93 C 65.62 56.43 67.11 53.77 69.01 52.78 C 67.04 53.18 65.08 53.60 63.11 54.01 C 60.38 51.67 57.80 48.48 54.03 48.00 C 49.41 48.53 46.21 52.55 41.85 53.83 C 37.05 52.31 32.87 49.05 27.75 48.30 C 28.62 46.00 28.97 42.72 32.07 42.48 C 36.35 42.25 38.97 46.96 43.10 47.59 M 52.72 43.94 C 55.36 44.92 58.04 45.80 60.79 46.44 C 59.62 45.49 58.67 44.19 57.26 43.57 C 55.75 43.25 54.22 43.80 52.72 43.94 M 59.13 58.69 C 58.06 60.55 62.00 61.86 62.52 59.90 C 62.42 58.41 60.18 57.79 59.13 58.69 Z" />
<path fill="#217a7a" opacity="1.00" d=" M 52.72 43.94 C 54.22 43.80 55.75 43.25 57.26 43.57 C 58.67 44.19 59.62 45.49 60.79 46.44 C 58.04 45.80 55.36 44.92 52.72 43.94 Z" />
<path fill="#9dc4c4" opacity="1.00" d=" M 41.85 53.83 C 46.21 52.55 49.41 48.53 54.03 48.00 C 57.80 48.48 60.38 51.67 63.11 54.01 C 65.08 53.60 67.04 53.18 69.01 52.78 C 67.11 53.77 65.62 56.43 63.25 55.93 C 60.23 54.23 58.07 51.22 54.82 49.92 C 49.82 49.71 46.56 54.67 41.90 55.73 C 38.44 55.00 35.17 53.57 31.99 52.04 C 31.07 53.38 30.15 54.72 29.23 56.06 C 28.75 53.47 28.26 50.88 27.75 48.30 C 32.87 49.05 37.05 52.31 41.85 53.83 Z" />
<path fill="#ffffff" opacity="1.00" d=" M 39.78 63.79 C 43.11 61.30 46.27 58.36 50.19 56.86 C 53.62 55.92 55.70 59.28 57.87 61.24 C 59.16 62.67 61.05 63.24 62.79 63.90 C 62.76 66.02 64.54 69.03 62.16 70.40 C 57.60 72.47 56.41 64.71 51.98 64.98 C 45.97 64.03 42.19 69.76 36.99 71.60 C 37.43 68.89 37.07 65.44 39.78 63.79 Z" />
<path fill="#217a7a" opacity="1.00" d=" M 59.13 58.69 C 60.18 57.79 62.42 58.41 62.52 59.90 C 62.00 61.86 58.06 60.55 59.13 58.69 Z" />
<path fill="#ffffff" opacity="1.00" d=" M 47.65 65.74 C 49.54 66.02 51.55 65.90 53.34 66.63 C 55.36 67.93 56.82 69.90 58.45 71.62 C 60.33 71.55 62.21 71.46 64.09 71.38 C 63.91 72.75 63.78 74.13 63.51 75.49 C 62.30 77.05 60.57 78.09 59.02 79.28 C 58.56 78.63 58.10 77.99 57.65 77.34 C 53.89 76.40 50.52 73.20 46.47 74.45 C 43.78 75.52 41.87 77.89 39.18 78.94 C 38.22 78.08 37.16 77.34 36.06 76.68 C 36.82 76.69 38.34 76.73 39.10 76.75 C 38.46 75.29 37.83 73.83 37.21 72.36 C 40.41 71.00 43.50 69.41 46.44 67.56 C 49.10 68.29 51.79 68.92 54.49 69.51 C 52.26 68.17 49.95 66.97 47.65 65.74 Z" />
<path fill="#ffffff" opacity="1.00" d=" M 41.51 79.79 C 43.61 77.23 46.35 74.69 49.97 75.52 C 52.96 75.27 54.21 78.20 55.83 80.12 C 51.15 81.97 46.15 81.54 41.51 79.79 Z" />
</svg>
