<?xml version="1.0" encoding="UTF-8" ?>
<!DOCTYPE svg PUBLIC "-//W3C//DTD SVG 1.1//EN" "http://www.w3.org/Graphics/SVG/1.1/DTD/svg11.dtd">
<svg width="100pt" height="100pt" viewBox="0 0 100 100" version="1.1" xmlns="http://www.w3.org/2000/svg">
<path fill="#b8b8b8" opacity="1.00" d=" M 33.07 15.42 C 38.57 15.85 40.68 9.62 43.95 6.32 C 46.93 9.30 49.25 13.31 53.10 15.18 C 61.22 15.75 69.39 15.24 77.53 15.35 C 77.63 29.20 77.22 43.08 77.70 56.91 C 80.76 59.32 84.66 60.71 87.07 63.92 C 92.50 70.50 92.11 81.04 86.20 87.19 C 80.87 93.25 71.26 94.72 64.29 90.74 C 61.12 88.99 58.87 86.06 56.66 83.28 C 40.56 83.21 24.45 83.39 8.35 83.19 C 8.42 60.58 8.39 37.96 8.36 15.35 C 16.60 15.38 24.83 15.43 33.07 15.42 M 37.59 19.68 C 29.47 19.97 21.34 19.64 13.22 19.97 C 13.33 39.63 13.32 59.29 13.24 78.95 C 27.96 79.30 42.70 78.60 57.42 79.23 C 59.19 82.42 60.94 85.85 64.01 88.00 C 70.21 92.45 79.63 91.44 84.65 85.66 C 89.75 80.28 90.12 71.25 85.52 65.45 C 82.74 61.63 78.04 60.15 73.76 58.72 C 73.35 45.83 73.62 32.92 73.66 20.02 C 65.90 19.64 58.13 19.93 50.37 19.71 C 48.39 16.39 46.35 13.11 44.30 9.85 C 41.84 12.97 39.62 16.27 37.59 19.68 Z" />
<path fill="#b61c2e" opacity="1.00" d=" M 37.59 19.68 C 39.62 16.27 41.84 12.97 44.30 9.85 C 46.35 13.11 48.39 16.39 50.37 19.71 C 58.13 19.93 65.90 19.64 73.66 20.02 C 73.62 32.92 73.35 45.83 73.76 58.72 C 78.04 60.15 82.74 61.63 85.52 65.45 C 90.12 71.25 89.75 80.28 84.65 85.66 C 79.63 91.44 70.21 92.45 64.01 88.00 C 60.94 85.85 59.19 82.42 57.42 79.23 C 42.70 78.60 27.96 79.30 13.24 78.95 C 13.32 59.29 13.33 39.63 13.22 19.97 C 21.34 19.64 29.47 19.97 37.59 19.68 M 41.08 33.01 C 41.73 39.68 38.29 46.31 40.59 52.87 C 37.19 52.72 33.77 52.53 30.37 52.78 C 33.62 54.58 37.42 54.75 40.82 56.12 C 43.16 62.14 41.59 68.98 41.24 75.28 C 42.74 75.28 44.23 75.27 45.72 75.26 C 45.22 68.98 44.23 62.38 46.21 56.28 C 48.95 54.65 52.23 54.53 55.32 54.18 C 55.56 53.69 56.03 52.71 56.27 52.22 C 53.02 52.49 49.76 52.71 46.49 52.87 C 49.29 46.81 45.92 40.32 46.62 34.03 C 47.08 27.30 47.16 20.32 43.97 14.17 C 41.05 20.02 40.71 26.60 41.08 33.01 M 14.56 21.43 C 16.63 28.12 23.77 30.86 27.74 36.17 C 26.02 40.41 23.82 44.48 22.75 48.98 C 19.85 49.10 16.93 49.19 14.05 49.62 C 16.63 51.37 19.78 51.35 22.77 51.38 C 23.99 55.90 26.02 60.16 28.83 63.92 C 24.04 68.42 18.46 72.19 14.60 77.60 C 21.27 75.66 24.88 69.19 29.94 64.94 C 32.94 66.36 36.02 67.62 39.28 68.33 C 36.64 66.65 33.86 65.23 31.12 63.74 C 32.91 61.79 34.68 59.80 36.28 57.69 C 33.97 59.27 31.79 61.04 29.61 62.80 C 26.82 59.53 24.94 55.63 23.83 51.49 C 26.04 51.10 28.26 50.72 30.45 50.26 C 28.30 49.71 26.12 49.27 23.95 48.79 C 24.77 44.60 26.41 40.62 28.78 37.06 C 31.58 39.39 34.32 41.82 37.35 43.87 C 35.21 40.98 32.66 38.43 30.17 35.85 C 32.76 33.88 35.40 31.99 37.94 29.95 C 34.91 31.49 32.01 33.27 29.15 35.10 C 24.28 30.56 20.39 24.84 14.56 21.43 M 61.07 32.08 C 57.48 35.67 53.69 39.10 50.66 43.19 C 55.49 39.92 59.49 35.64 63.89 31.84 C 67.16 28.89 71.18 26.26 72.40 21.75 C 68.11 24.59 64.71 28.50 61.07 32.08 M 48.74 29.03 C 51.63 30.96 54.85 32.29 58.22 33.11 C 55.49 30.90 52.21 29.55 48.74 29.03 M 61.25 35.91 C 62.51 39.93 63.74 43.98 64.51 48.14 C 61.85 48.59 59.19 48.99 56.55 49.56 C 59.01 50.08 61.49 50.50 63.97 50.95 C 62.48 54.66 60.54 58.16 58.11 61.33 C 56.06 59.87 54.03 58.37 51.92 57.01 C 53.36 58.94 54.90 60.80 56.40 62.68 C 53.42 64.39 50.37 66.01 47.65 68.12 C 50.94 67.23 53.90 65.46 57.12 64.39 C 58.37 64.61 59.55 65.11 60.74 65.53 C 60.32 64.39 59.88 63.24 59.62 62.04 C 61.34 58.21 63.68 54.66 65.13 50.69 C 67.39 50.67 69.64 50.66 71.90 50.64 C 71.87 50.12 71.81 49.08 71.78 48.57 C 69.58 48.53 67.37 48.48 65.17 48.41 C 64.46 44.08 63.21 39.84 61.25 35.91 M 69.41 62.48 C 65.69 63.55 62.57 66.41 61.00 69.93 C 57.60 77.10 62.53 86.31 70.22 87.81 C 78.02 89.80 86.33 83.00 86.07 75.00 C 86.28 66.72 77.35 59.88 69.41 62.48 Z" />
<path fill="#ffffff" opacity="1.00" d=" M 41.08 33.01 C 40.71 26.60 41.05 20.02 43.97 14.17 C 47.16 20.32 47.08 27.30 46.62 34.03 C 45.92 40.32 49.29 46.81 46.49 52.87 C 49.76 52.71 53.02 52.49 56.27 52.22 C 56.03 52.71 55.56 53.69 55.32 54.18 C 52.23 54.53 48.95 54.65 46.21 56.28 C 44.23 62.38 45.22 68.98 45.72 75.26 C 44.23 75.27 42.74 75.28 41.24 75.28 C 41.59 68.98 43.16 62.14 40.82 56.12 C 37.42 54.75 33.62 54.58 30.37 52.78 C 33.77 52.53 37.19 52.72 40.59 52.87 C 38.29 46.31 41.73 39.68 41.08 33.01 Z" />
<path fill="#ffffff" opacity="1.00" d=" M 14.56 21.43 C 20.39 24.84 24.28 30.56 29.15 35.10 C 32.01 33.27 34.91 31.49 37.94 29.95 C 35.40 31.99 32.76 33.88 30.17 35.85 C 32.66 38.43 35.21 40.98 37.35 43.87 C 34.32 41.82 31.58 39.39 28.78 37.06 C 26.41 40.62 24.77 44.60 23.95 48.79 C 26.12 49.27 28.30 49.71 30.45 50.26 C 28.26 50.72 26.04 51.10 23.83 51.49 C 24.94 55.63 26.82 59.53 29.61 62.80 C 31.79 61.04 33.97 59.27 36.28 57.69 C 34.68 59.80 32.91 61.79 31.12 63.74 C 33.86 65.23 36.64 66.65 39.28 68.33 C 36.02 67.62 32.94 66.36 29.94 64.94 C 24.88 69.19 21.27 75.66 14.60 77.60 C 18.46 72.19 24.04 68.42 28.83 63.92 C 26.02 60.16 23.99 55.90 22.77 51.38 C 19.78 51.35 16.63 51.37 14.05 49.62 C 16.93 49.19 19.85 49.10 22.75 48.98 C 23.82 44.48 26.02 40.41 27.74 36.17 C 23.77 30.86 16.63 28.12 14.56 21.43 Z" />
<path fill="#ffffff" opacity="1.00" d=" M 61.07 32.08 C 64.71 28.50 68.11 24.59 72.40 21.75 C 71.18 26.26 67.16 28.89 63.89 31.84 C 59.49 35.64 55.49 39.92 50.66 43.19 C 53.69 39.10 57.48 35.67 61.07 32.08 Z" />
<path fill="#c64e5c" opacity="1.00" d=" M 48.74 29.03 C 52.21 29.55 55.49 30.90 58.22 33.11 C 54.85 32.29 51.63 30.96 48.74 29.03 Z" />
<path fill="#ffffff" opacity="1.00" d=" M 61.25 35.91 C 63.21 39.84 64.46 44.08 65.17 48.41 C 67.37 48.48 69.58 48.53 71.78 48.57 C 71.81 49.08 71.87 50.12 71.90 50.64 C 69.64 50.66 67.39 50.67 65.13 50.69 C 63.68 54.66 61.34 58.21 59.62 62.04 C 59.88 63.24 60.32 64.39 60.74 65.53 C 59.55 65.11 58.37 64.61 57.12 64.39 C 53.90 65.46 50.94 67.23 47.65 68.12 C 50.37 66.01 53.42 64.39 56.40 62.68 C 54.90 60.80 53.36 58.94 51.92 57.01 C 54.03 58.37 56.06 59.87 58.11 61.33 C 60.54 58.16 62.48 54.66 63.97 50.95 C 61.49 50.50 59.01 50.08 56.55 49.56 C 59.19 48.99 61.85 48.59 64.51 48.14 C 63.74 43.98 62.51 39.93 61.25 35.91 Z" />
<path fill="#f3f38a" opacity="1.00" d=" M 69.41 62.48 C 77.35 59.88 86.28 66.72 86.07 75.00 C 86.33 83.00 78.02 89.80 70.22 87.81 C 62.53 86.31 57.60 77.10 61.00 69.93 C 62.57 66.41 65.69 63.55 69.41 62.48 M 69.35 64.23 C 64.19 65.89 60.74 71.56 61.75 76.91 C 62.57 82.98 68.92 87.48 74.92 86.30 C 80.98 85.44 85.46 79.10 84.25 73.09 C 83.29 66.41 75.70 61.89 69.35 64.23 Z" />
<path fill="#b61c2e" opacity="1.00" d=" M 69.35 64.23 C 75.70 61.89 83.29 66.41 84.25 73.09 C 85.46 79.10 80.98 85.44 74.92 86.30 C 68.92 87.48 62.57 82.98 61.75 76.91 C 60.74 71.56 64.19 65.89 69.35 64.23 M 68.53 66.48 C 61.99 69.47 61.57 79.67 67.83 83.21 C 73.84 87.45 83.09 82.33 82.71 75.00 C 82.98 68.00 74.59 63.10 68.53 66.48 Z" />
<path fill="#f3f38a" opacity="1.00" d=" M 68.53 66.48 C 74.59 63.10 82.98 68.00 82.71 75.00 C 83.09 82.33 73.84 87.45 67.83 83.21 C 61.57 79.67 61.99 69.47 68.53 66.48 M 72.34 71.43 C 70.22 72.18 68.21 74.92 70.06 76.93 C 71.33 79.18 74.67 79.18 75.99 76.99 C 78.02 74.60 74.95 70.76 72.34 71.43 Z" />
<path fill="#b61d2f" opacity="1.00" d=" M 72.34 71.43 C 74.95 70.76 78.02 74.60 75.99 76.99 C 74.67 79.18 71.33 79.18 70.06 76.93 C 68.21 74.92 70.22 72.18 72.34 71.43 Z" />
</svg>
