<?xml version="1.0" encoding="UTF-8" ?>
<!DOCTYPE svg PUBLIC "-//W3C//DTD SVG 1.1//EN" "http://www.w3.org/Graphics/SVG/1.1/DTD/svg11.dtd">
<svg width="100pt" height="100pt" viewBox="0 0 100 100" version="1.1" xmlns="http://www.w3.org/2000/svg">
<path fill="#bcc6bf" opacity="1.00" d=" M 50.34 12.72 C 51.69 15.50 52.98 18.31 54.26 21.12 C 60.29 21.53 66.32 21.09 72.35 21.42 C 73.07 22.96 73.80 24.50 74.53 26.05 C 77.79 25.08 81.00 23.95 84.24 22.90 C 83.10 27.19 81.29 31.24 79.08 35.07 C 77.58 37.08 78.95 39.45 79.51 41.53 C 80.52 43.95 81.01 47.10 83.64 48.33 C 85.72 49.54 87.90 50.55 90.04 51.65 C 88.13 52.45 86.20 53.22 84.29 54.00 C 84.80 55.98 85.32 57.96 85.84 59.94 C 83.32 61.83 80.76 63.65 78.16 65.41 C 80.56 69.82 82.82 74.32 84.36 79.12 C 78.70 77.39 73.31 74.90 67.91 72.50 C 61.76 76.49 54.98 79.99 50.32 85.82 C 46.25 79.51 39.19 76.23 33.11 72.22 C 27.57 74.77 21.91 77.08 16.10 78.92 C 18.16 74.26 20.59 69.77 22.99 65.27 C 20.49 63.54 18.03 61.77 15.60 59.95 C 16.07 58.05 16.52 56.15 16.95 54.24 C 14.55 53.28 12.13 52.34 9.73 51.35 C 12.97 49.70 16.46 48.50 19.50 46.48 C 21.47 43.84 22.32 40.52 23.16 37.38 C 23.63 35.85 22.40 34.56 21.80 33.27 C 19.80 29.97 18.11 26.50 16.74 22.91 C 20.17 23.87 23.57 24.95 27.04 25.76 C 27.81 24.26 28.59 22.77 29.38 21.29 C 35.15 21.18 40.93 21.59 46.68 21.01 C 47.88 18.24 49.10 15.47 50.34 12.72 M 50.24 16.83 C 49.53 19.00 48.83 21.18 48.14 23.36 C 42.60 24.10 36.99 23.34 31.45 24.04 C 30.52 25.58 29.52 27.09 28.57 28.62 C 25.68 27.66 22.79 26.67 19.89 25.72 C 21.33 28.38 22.97 30.92 24.62 33.45 C 25.46 34.81 26.58 36.32 25.96 38.01 C 25.12 41.18 24.19 44.51 22.11 47.10 C 20.02 48.68 17.50 49.50 15.13 50.55 C 16.88 51.46 18.62 52.36 20.36 53.28 C 19.93 55.19 19.50 57.11 19.08 59.02 C 21.51 60.91 23.99 62.71 26.55 64.42 C 24.14 68.39 21.35 72.10 19.04 76.12 C 24.19 74.40 28.92 71.70 33.90 69.59 C 39.88 72.69 44.85 77.36 50.78 80.54 C 56.42 77.33 61.29 72.96 67.06 69.96 C 72.13 71.93 76.87 74.69 82.08 76.34 C 79.86 72.38 77.18 68.72 74.74 64.89 C 77.30 62.93 79.86 60.96 82.38 58.94 C 82.06 56.90 81.72 54.85 81.42 52.80 C 82.72 52.20 84.02 51.59 85.32 50.98 C 82.84 49.52 79.54 48.69 78.25 45.84 C 76.95 43.07 75.78 40.11 75.60 37.02 C 76.98 32.95 80.02 29.67 81.96 25.85 C 78.92 26.89 75.86 27.89 72.76 28.74 C 71.77 27.11 70.76 25.51 69.78 23.88 C 64.28 23.49 58.77 23.87 53.27 23.69 C 52.23 21.42 51.22 19.13 50.24 16.83 Z" />
<path fill="#8a1b6c" opacity="1.00" d=" M 50.24 16.83 C 51.22 19.13 52.23 21.42 53.27 23.69 C 58.77 23.87 64.28 23.49 69.78 23.88 C 70.76 25.51 71.77 27.11 72.76 28.74 C 75.86 27.89 78.92 26.89 81.96 25.85 C 80.02 29.67 76.98 32.95 75.60 37.02 C 75.78 40.11 76.95 43.07 78.25 45.84 C 79.54 48.69 82.84 49.52 85.32 50.98 C 84.02 51.59 82.72 52.20 81.42 52.80 C 81.72 54.85 82.06 56.90 82.38 58.94 C 79.86 60.96 77.30 62.93 74.74 64.89 C 77.18 68.72 79.86 72.38 82.08 76.34 C 76.87 74.69 72.13 71.93 67.06 69.96 C 61.29 72.96 56.42 77.33 50.78 80.54 C 44.85 77.36 39.88 72.69 33.90 69.59 C 28.92 71.70 24.19 74.40 19.04 76.12 C 21.35 72.10 24.14 68.39 26.55 64.42 C 23.99 62.71 21.51 60.91 19.08 59.02 C 19.50 57.11 19.93 55.19 20.36 53.28 C 18.62 52.36 16.88 51.46 15.13 50.55 C 17.50 49.50 20.02 48.68 22.11 47.10 C 24.19 44.51 25.12 41.18 25.96 38.01 C 26.58 36.32 25.46 34.81 24.62 33.45 C 22.97 30.92 21.33 28.38 19.89 25.72 C 22.79 26.67 25.68 27.66 28.57 28.62 C 29.52 27.09 30.52 25.58 31.45 24.04 C 36.99 23.34 42.60 24.10 48.14 23.36 C 48.83 21.18 49.53 19.00 50.24 16.83 M 50.34 24.76 C 49.23 27.89 48.21 31.06 47.21 34.23 C 42.60 36.02 38.01 37.93 33.92 40.73 C 39.14 39.05 44.42 37.01 50.01 37.23 C 55.59 37.09 60.79 39.28 66.04 40.84 C 62.21 38.11 57.89 36.21 53.58 34.39 C 52.68 31.12 51.64 27.89 50.34 24.76 M 24.97 29.74 C 27.00 33.40 29.52 36.84 32.94 39.33 C 34.27 38.30 35.60 37.27 36.92 36.23 C 33.35 33.38 29.27 31.24 24.97 29.74 M 64.79 36.87 C 66.11 37.84 67.45 38.82 68.79 39.78 C 72.10 37.00 74.76 33.57 76.92 29.84 C 72.50 31.44 68.13 33.47 64.79 36.87 M 35.07 46.19 C 31.03 48.57 26.48 49.83 21.94 50.82 C 27.60 52.27 33.46 53.44 38.56 56.44 C 42.11 58.51 45.70 61.08 50.01 61.03 C 54.38 61.31 58.21 58.93 61.82 56.80 C 67.08 53.61 73.17 52.36 79.05 50.83 C 74.77 49.84 70.45 48.72 66.59 46.53 C 61.30 43.76 56.33 39.34 49.99 39.63 C 44.29 39.70 39.85 43.65 35.07 46.19 M 29.83 58.56 C 33.19 61.05 36.53 65.08 41.18 64.16 C 39.22 59.80 34.19 58.60 29.83 58.56 M 59.85 64.14 C 64.52 65.22 67.84 61.06 71.18 58.56 C 66.83 58.61 61.83 59.82 59.85 64.14 M 24.88 71.32 C 28.90 69.97 32.65 67.90 35.75 64.99 C 34.52 64.23 33.28 63.47 32.04 62.71 C 29.10 65.07 26.69 68.02 24.88 71.32 M 65.61 65.65 C 68.81 68.33 72.49 70.37 76.40 71.83 C 74.54 68.28 71.96 65.17 68.81 62.71 C 67.72 63.67 66.65 64.65 65.61 65.65 M 47.94 65.35 C 47.77 69.70 48.86 73.92 49.94 78.09 C 51.91 74.12 53.08 69.78 52.96 65.32 C 51.28 65.33 49.61 65.34 47.94 65.35 Z" />
<path fill="#ffffff" opacity="1.00" d=" M 50.34 24.76 C 51.64 27.89 52.68 31.12 53.58 34.39 C 57.89 36.21 62.21 38.11 66.04 40.84 C 60.79 39.28 55.59 37.09 50.01 37.23 C 44.42 37.01 39.14 39.05 33.92 40.73 C 38.01 37.93 42.60 36.02 47.21 34.23 C 48.21 31.06 49.23 27.89 50.34 24.76 Z" />
<path fill="#ffffff" opacity="1.00" d=" M 24.97 29.74 C 29.27 31.24 33.35 33.38 36.92 36.23 C 35.60 37.27 34.27 38.30 32.94 39.33 C 29.52 36.84 27.00 33.40 24.97 29.74 Z" />
<path fill="#ffffff" opacity="1.00" d=" M 64.79 36.87 C 68.13 33.47 72.50 31.44 76.92 29.84 C 74.76 33.57 72.10 37.00 68.79 39.78 C 67.45 38.82 66.11 37.84 64.79 36.87 Z" />
<path fill="#ffffff" opacity="1.00" d=" M 35.07 46.19 C 39.85 43.65 44.29 39.70 49.99 39.63 C 56.33 39.34 61.30 43.76 66.59 46.53 C 70.45 48.72 74.77 49.84 79.05 50.83 C 73.17 52.36 67.08 53.61 61.82 56.80 C 58.21 58.93 54.38 61.31 50.01 61.03 C 45.70 61.08 42.11 58.51 38.56 56.44 C 33.46 53.44 27.60 52.27 21.94 50.82 C 26.48 49.83 31.03 48.57 35.07 46.19 M 35.44 49.01 C 45.48 49.44 55.55 49.45 65.58 49.00 C 60.93 45.72 55.98 41.80 50.00 41.75 C 44.41 42.20 39.86 45.92 35.44 49.01 M 32.86 51.16 C 39.72 53.58 45.74 60.52 53.56 58.43 C 58.63 56.49 63.15 53.34 68.15 51.18 C 64.27 51.02 60.39 51.08 56.53 51.38 C 54.87 53.57 53.45 57.22 50.10 56.74 C 46.76 56.87 46.14 52.70 43.64 51.45 C 40.08 50.84 36.45 51.13 32.86 51.16 Z" />
<path fill="#8a1b6c" opacity="1.00" d=" M 35.44 49.01 C 39.86 45.92 44.41 42.20 50.00 41.75 C 55.98 41.80 60.93 45.72 65.58 49.00 C 55.55 49.45 45.48 49.44 35.44 49.01 Z" />
<path fill="#861367" opacity="1.00" d=" M 32.86 51.16 C 36.45 51.13 40.08 50.84 43.64 51.45 C 46.14 52.70 46.76 56.87 50.10 56.74 C 53.45 57.22 54.87 53.57 56.53 51.38 C 60.39 51.08 64.27 51.02 68.15 51.18 C 63.15 53.34 58.63 56.49 53.56 58.43 C 45.74 60.52 39.72 53.58 32.86 51.16 Z" />
<path fill="#ffffff" opacity="1.00" d=" M 29.83 58.56 C 34.19 58.60 39.22 59.80 41.18 64.16 C 36.53 65.08 33.19 61.05 29.83 58.56 Z" />
<path fill="#ffffff" opacity="1.00" d=" M 59.85 64.14 C 61.83 59.82 66.83 58.61 71.18 58.56 C 67.84 61.06 64.52 65.22 59.85 64.14 Z" />
<path fill="#ffffff" opacity="1.00" d=" M 24.88 71.32 C 26.69 68.02 29.10 65.07 32.04 62.71 C 33.28 63.47 34.52 64.23 35.75 64.99 C 32.65 67.90 28.90 69.97 24.88 71.32 Z" />
<path fill="#ffffff" opacity="1.00" d=" M 65.61 65.65 C 66.65 64.65 67.72 63.67 68.81 62.71 C 71.96 65.17 74.54 68.28 76.40 71.83 C 72.49 70.37 68.81 68.33 65.61 65.65 Z" />
<path fill="#ffffff" opacity="1.00" d=" M 47.94 65.35 C 49.61 65.34 51.28 65.33 52.96 65.32 C 53.08 69.78 51.91 74.12 49.94 78.09 C 48.86 73.92 47.77 69.70 47.94 65.35 Z" />
</svg>
