<?xml version="1.0" encoding="UTF-8" ?>
<!DOCTYPE svg PUBLIC "-//W3C//DTD SVG 1.1//EN" "http://www.w3.org/Graphics/SVG/1.1/DTD/svg11.dtd">
<svg width="100pt" height="100pt" viewBox="0 0 100 100" version="1.1" xmlns="http://www.w3.org/2000/svg">
<path fill="#b8b8b8" opacity="1.00" d=" M 42.40 15.39 C 46.20 10.10 54.33 10.46 59.45 13.51 C 59.77 16.69 60.25 19.98 59.01 23.04 C 57.80 25.41 60.73 27.53 62.96 27.17 C 73.30 27.27 83.64 27.12 93.98 27.18 C 85.04 38.82 76.03 50.40 67.04 62.01 C 64.44 65.45 61.45 68.65 59.63 72.60 C 57.81 76.25 56.07 80.16 52.91 82.87 C 50.86 83.86 48.43 83.44 46.28 84.13 C 43.85 85.47 41.80 87.38 39.59 89.04 C 38.97 85.21 39.11 81.14 37.56 77.53 C 34.22 74.30 29.98 72.01 27.50 67.91 C 28.59 65.90 29.71 63.90 30.89 61.93 C 28.73 60.50 26.56 59.07 24.40 57.66 C 24.77 57.29 25.52 56.57 25.90 56.20 C 24.88 55.14 23.83 54.10 22.82 53.02 C 24.56 53.86 26.34 54.60 28.15 55.27 C 29.10 56.47 29.77 57.87 30.29 59.31 C 31.82 60.57 33.40 61.76 34.99 62.94 C 33.24 64.60 28.50 66.75 31.55 69.43 C 32.95 71.88 35.54 70.12 37.56 69.62 C 37.35 71.90 37.51 74.24 38.73 76.24 C 40.45 79.31 40.57 82.87 40.76 86.30 C 42.54 84.18 44.30 82.05 46.05 79.90 C 47.58 80.52 49.09 81.19 50.70 81.56 C 56.32 77.82 56.77 70.44 60.13 65.11 C 68.60 53.40 78.09 42.41 86.15 30.41 C 75.94 29.87 65.54 31.59 55.51 29.06 C 55.86 24.30 57.23 19.72 58.19 15.07 C 53.90 13.59 49.34 13.43 44.90 14.19 C 44.80 19.05 45.99 23.82 45.91 28.68 C 35.17 31.72 23.95 29.87 12.97 30.42 C 18.16 37.67 24.26 44.23 29.25 51.63 C 26.97 51.26 24.75 50.61 22.66 49.65 C 17.83 41.59 11.12 34.89 5.72 27.23 C 18.40 26.97 31.09 27.50 43.76 26.97 C 42.93 23.18 41.90 19.30 42.40 15.39 Z" />
<path fill="#c40f24" opacity="1.00" d=" M 44.90 14.19 C 49.34 13.43 53.90 13.59 58.19 15.07 C 57.23 19.72 55.86 24.30 55.51 29.06 C 65.54 31.59 75.94 29.87 86.15 30.41 C 78.09 42.41 68.60 53.40 60.13 65.11 C 56.77 70.44 56.32 77.82 50.70 81.56 C 49.09 81.19 47.58 80.52 46.05 79.90 C 44.30 82.05 42.54 84.18 40.76 86.30 C 40.57 82.87 40.45 79.31 38.73 76.24 C 37.51 74.24 37.35 71.90 37.56 69.62 C 35.54 70.12 32.95 71.88 31.55 69.43 C 28.50 66.75 33.24 64.60 34.99 62.94 C 33.40 61.76 31.82 60.57 30.29 59.31 C 29.77 57.87 29.10 56.47 28.15 55.27 C 29.04 55.32 29.94 55.32 30.84 55.34 C 34.16 57.19 37.42 59.15 40.72 61.04 C 40.30 61.67 39.48 62.92 39.07 63.55 C 43.29 63.31 48.75 61.52 49.61 56.80 C 49.93 49.48 49.61 42.15 49.65 34.83 C 47.99 35.52 46.29 36.14 44.79 37.13 C 43.96 44.13 44.95 51.20 44.51 58.22 C 42.12 55.41 39.84 52.51 37.49 49.66 C 38.71 52.69 39.97 55.71 41.21 58.73 C 38.27 57.51 35.32 56.29 32.28 55.34 C 31.23 54.14 30.21 52.91 29.25 51.63 C 24.26 44.23 18.16 37.67 12.97 30.42 C 23.95 29.87 35.17 31.72 45.91 28.68 C 45.99 23.82 44.80 19.05 44.90 14.19 M 47.22 16.01 C 47.23 17.56 47.24 19.10 47.25 20.65 C 49.86 20.64 52.46 20.69 55.06 20.76 C 55.13 19.20 55.19 17.64 55.22 16.09 C 52.56 15.93 49.89 15.89 47.22 16.01 M 50.07 21.14 C 49.69 21.44 48.93 22.04 48.55 22.33 C 48.29 24.72 48.75 27.35 47.64 29.54 C 44.46 31.69 40.36 31.90 36.84 33.37 C 37.82 34.48 38.56 36.07 40.13 36.43 C 43.86 35.82 47.26 33.88 51.04 33.46 C 54.29 33.90 57.08 35.95 60.29 36.62 C 62.19 37.33 63.18 35.08 64.44 34.12 C 61.05 32.53 57.27 31.94 53.95 30.22 C 52.74 27.74 53.38 24.72 53.02 22.02 C 52.04 21.73 51.05 21.43 50.07 21.14 M 51.42 35.04 C 51.40 40.92 50.88 46.80 51.01 52.68 C 53.45 51.05 53.91 47.91 55.89 45.89 C 57.49 44.24 59.29 42.80 61.01 41.28 C 59.66 41.49 58.31 41.71 56.96 41.93 C 56.87 40.31 56.79 38.69 56.70 37.08 C 54.94 36.40 53.18 35.72 51.42 35.04 M 55.33 50.28 C 54.23 50.64 53.47 52.81 55.02 53.08 C 57.05 53.45 57.79 49.38 55.33 50.28 M 51.93 55.04 C 51.77 57.50 51.93 60.02 51.30 62.42 C 49.41 66.02 45.58 68.37 44.41 72.39 C 43.38 75.54 42.69 78.79 42.19 82.05 C 43.69 79.72 44.96 77.24 46.19 74.76 C 47.47 76.36 48.75 77.97 50.05 79.56 C 51.80 77.13 53.70 74.75 54.83 71.95 C 56.77 66.91 54.14 60.74 57.69 56.26 C 57.15 55.76 56.60 55.28 56.04 54.80 C 54.67 54.88 53.30 54.96 51.93 55.04 M 42.10 66.27 C 41.50 67.75 42.94 68.48 43.85 69.32 C 45.66 66.97 47.42 64.56 48.92 61.99 C 46.54 63.22 44.03 64.36 42.10 66.27 M 33.11 66.32 C 33.41 67.21 33.71 68.10 34.02 68.99 C 36.13 67.80 38.19 66.51 40.10 65.00 C 37.74 65.32 35.42 65.79 33.11 66.32 M 40.21 70.37 C 38.83 70.96 38.36 73.16 39.23 74.35 C 41.03 74.86 42.03 70.82 40.21 70.37 Z" />
<path fill="#ffffff" opacity="1.00" d=" M 47.22 16.01 C 49.89 15.89 52.56 15.93 55.22 16.09 C 55.19 17.64 55.13 19.20 55.06 20.76 C 52.46 20.69 49.86 20.64 47.25 20.65 C 47.24 19.10 47.23 17.56 47.22 16.01 Z" />
<path fill="#ffffff" opacity="1.00" d=" M 50.07 21.14 C 51.05 21.43 52.04 21.73 53.02 22.02 C 53.38 24.72 52.74 27.74 53.95 30.22 C 57.27 31.94 61.05 32.53 64.44 34.12 C 63.18 35.08 62.19 37.33 60.29 36.62 C 57.08 35.95 54.29 33.90 51.04 33.46 C 47.26 33.88 43.86 35.82 40.13 36.43 C 38.56 36.07 37.82 34.48 36.84 33.37 C 40.36 31.90 44.46 31.69 47.64 29.54 C 48.75 27.35 48.29 24.72 48.55 22.33 C 48.93 22.04 49.69 21.44 50.07 21.14 Z" />
<path fill="#ffffff" opacity="1.00" d=" M 44.79 37.13 C 46.29 36.14 47.99 35.52 49.65 34.83 C 49.61 42.15 49.93 49.48 49.61 56.80 C 48.75 61.52 43.29 63.31 39.07 63.55 C 39.48 62.92 40.30 61.67 40.72 61.04 C 37.42 59.15 34.16 57.19 30.84 55.34 C 31.20 55.34 31.92 55.34 32.28 55.34 C 35.32 56.29 38.27 57.51 41.21 58.73 C 39.97 55.71 38.71 52.69 37.49 49.66 C 39.84 52.51 42.12 55.41 44.51 58.22 C 44.95 51.20 43.96 44.13 44.79 37.13 Z" />
<path fill="#ffffff" opacity="1.00" d=" M 51.42 35.04 C 53.18 35.72 54.94 36.40 56.70 37.08 C 56.79 38.69 56.87 40.31 56.96 41.93 C 58.31 41.71 59.66 41.49 61.01 41.28 C 59.29 42.80 57.49 44.24 55.89 45.89 C 53.91 47.91 53.45 51.05 51.01 52.68 C 50.88 46.80 51.40 40.92 51.42 35.04 Z" />
<path fill="#e37b84" opacity="1.00" d=" M 16.90 48.15 C 18.85 48.52 20.81 48.90 22.66 49.65 C 24.75 50.61 26.97 51.26 29.25 51.63 C 30.21 52.91 31.23 54.14 32.28 55.34 C 31.92 55.34 31.20 55.34 30.84 55.34 C 29.94 55.32 29.04 55.32 28.15 55.27 C 26.34 54.60 24.56 53.86 22.82 53.02 C 20.53 51.83 18.69 49.97 16.90 48.15 Z" />
<path fill="#faebed" opacity="1.00" d=" M 55.33 50.28 C 57.79 49.38 57.05 53.45 55.02 53.08 C 53.47 52.81 54.23 50.64 55.33 50.28 Z" />
<path fill="#ffffff" opacity="1.00" d=" M 51.93 55.04 C 53.30 54.96 54.67 54.88 56.04 54.80 C 56.60 55.28 57.15 55.76 57.69 56.26 C 54.14 60.74 56.77 66.91 54.83 71.95 C 53.70 74.75 51.80 77.13 50.05 79.56 C 48.75 77.97 47.47 76.36 46.19 74.76 C 44.96 77.24 43.69 79.72 42.19 82.05 C 42.69 78.79 43.38 75.54 44.41 72.39 C 45.58 68.37 49.41 66.02 51.30 62.42 C 51.93 60.02 51.77 57.50 51.93 55.04 Z" />
<path fill="#ffffff" opacity="1.00" d=" M 42.10 66.27 C 44.03 64.36 46.54 63.22 48.92 61.99 C 47.42 64.56 45.66 66.97 43.85 69.32 C 42.94 68.48 41.50 67.75 42.10 66.27 Z" />
<path fill="#ffffff" opacity="1.00" d=" M 33.11 66.32 C 35.42 65.79 37.74 65.32 40.10 65.00 C 38.19 66.51 36.13 67.80 34.02 68.99 C 33.71 68.10 33.41 67.21 33.11 66.32 Z" />
<path fill="#ffffff" opacity="1.00" d=" M 40.21 70.37 C 42.03 70.82 41.03 74.86 39.23 74.35 C 38.36 73.16 38.83 70.96 40.21 70.37 Z" />
</svg>
