<?xml version="1.0" encoding="UTF-8" ?>
<!DOCTYPE svg PUBLIC "-//W3C//DTD SVG 1.1//EN" "http://www.w3.org/Graphics/SVG/1.1/DTD/svg11.dtd">
<svg width="100pt" height="100pt" viewBox="0 0 100 100" version="1.1" xmlns="http://www.w3.org/2000/svg">
<path fill="#b7b9ba" opacity="1.00" d=" M 42.73 9.76 C 45.05 6.47 49.73 4.28 53.60 6.11 C 56.03 7.17 58.48 8.97 59.12 11.68 C 59.81 14.43 59.91 17.27 60.26 20.07 C 70.88 20.80 81.53 20.39 92.16 20.51 C 87.26 27.49 82.30 34.42 77.45 41.43 C 74.33 45.32 78.18 51.03 74.96 54.82 C 71.67 57.64 68.19 60.30 64.25 62.14 C 62.21 63.06 60.95 64.98 59.67 66.72 C 56.66 71.08 53.67 75.46 50.59 79.77 C 46.12 74.38 42.81 68.05 37.99 62.96 C 33.57 60.53 29.18 57.86 25.58 54.29 C 23.88 51.26 25.19 47.59 24.67 44.30 C 23.98 42.48 22.75 40.94 21.65 39.36 C 17.01 33.05 12.49 26.64 7.94 20.27 C 18.87 20.16 29.81 20.57 40.74 20.02 C 41.33 16.60 41.24 12.95 42.73 9.76 M 44.30 11.27 C 43.15 14.39 43.17 17.79 42.82 21.07 C 33.59 24.85 23.52 22.96 13.85 23.37 C 17.46 29.26 21.91 34.56 25.91 40.17 C 29.02 44.25 25.09 49.79 27.74 53.97 C 29.38 54.35 31.08 54.41 32.76 54.52 C 33.16 55.98 33.52 57.46 34.13 58.85 C 35.78 59.22 37.49 59.12 39.18 59.12 C 43.05 64.21 46.55 69.58 50.67 74.47 C 54.44 69.36 57.90 64.03 61.70 58.93 C 63.22 59.03 64.75 59.22 66.27 59.05 C 67.39 57.78 68.17 56.27 69.03 54.84 C 70.65 54.61 72.28 54.40 73.90 54.19 C 74.19 50.66 73.84 47.14 73.69 43.62 C 73.39 40.95 75.30 38.81 76.71 36.76 C 80.04 32.43 83.21 27.99 86.11 23.36 C 76.77 23.03 67.04 24.75 58.13 21.11 C 57.81 17.81 57.90 14.39 56.71 11.26 C 54.50 6.50 46.48 6.48 44.30 11.27 Z" />
<path fill="#e85a27" opacity="1.00" d=" M 44.30 11.27 C 46.48 6.48 54.50 6.50 56.71 11.26 C 57.90 14.39 57.81 17.81 58.13 21.11 C 67.04 24.75 76.77 23.03 86.11 23.36 C 83.21 27.99 80.04 32.43 76.71 36.76 C 75.30 38.81 73.39 40.95 73.69 43.62 C 73.84 47.14 74.19 50.66 73.90 54.19 C 72.28 54.40 70.65 54.61 69.03 54.84 C 68.17 56.27 67.39 57.78 66.27 59.05 C 64.75 59.22 63.22 59.03 61.70 58.93 C 57.90 64.03 54.44 69.36 50.67 74.47 C 46.55 69.58 43.05 64.21 39.18 59.12 C 37.49 59.12 35.78 59.22 34.13 58.85 C 33.52 57.46 33.16 55.98 32.76 54.52 C 31.08 54.41 29.38 54.35 27.74 53.97 C 25.09 49.79 29.02 44.25 25.91 40.17 C 21.91 34.56 17.46 29.26 13.85 23.37 C 23.52 22.96 33.59 24.85 42.82 21.07 C 43.17 17.79 43.15 14.39 44.30 11.27 M 46.41 13.30 C 45.74 17.54 45.42 22.10 42.14 25.26 C 43.16 25.68 44.17 26.11 45.18 26.54 C 44.24 26.95 43.31 27.37 42.37 27.78 C 41.17 26.65 39.97 25.53 38.76 24.41 C 34.75 25.94 31.00 28.22 28.46 31.76 C 31.58 29.96 34.34 27.39 37.84 26.34 C 41.60 27.32 43.07 31.43 44.63 34.56 C 45.43 34.27 46.23 33.98 47.03 33.70 C 47.52 29.42 47.08 25.15 46.12 20.97 C 47.55 21.49 48.99 22.01 50.42 22.54 C 49.95 19.29 49.33 16.08 48.44 12.92 C 49.82 12.92 51.19 12.92 52.56 12.92 C 51.67 16.09 51.03 19.31 50.54 22.57 C 51.89 22.06 53.24 21.56 54.59 21.06 C 53.93 25.26 53.52 29.50 53.90 33.74 C 54.74 34.02 55.58 34.30 56.42 34.58 C 57.93 31.47 59.30 27.19 63.13 26.37 C 66.64 27.43 69.40 30.01 72.53 31.83 C 69.93 28.61 66.62 25.10 62.20 24.98 C 60.42 25.99 58.97 27.47 57.44 28.81 C 56.82 27.98 56.20 27.15 55.59 26.31 C 56.80 26.06 58.02 25.81 59.23 25.57 C 57.81 23.80 55.84 22.18 55.55 19.78 C 55.00 17.12 55.03 14.33 54.12 11.75 C 52.06 9.36 46.84 9.76 46.41 13.30 M 48.02 34.13 C 45.12 36.81 41.08 37.64 37.47 38.96 C 39.06 37.43 40.71 35.96 42.32 34.46 C 40.35 34.10 38.37 33.54 36.35 33.62 C 34.16 34.23 31.77 35.69 31.46 38.16 C 30.41 42.70 29.56 47.28 28.88 51.89 C 31.74 51.40 34.59 50.91 37.46 50.46 C 36.23 48.83 34.96 47.23 33.68 45.65 C 34.22 45.64 35.29 45.63 35.83 45.62 C 35.71 44.33 35.59 43.05 35.49 41.76 C 36.92 44.27 38.27 46.82 39.65 49.36 C 42.53 48.24 45.32 46.65 46.71 43.75 C 48.14 40.89 50.81 39.13 53.62 37.80 C 52.66 34.03 51.87 30.22 50.78 26.49 C 49.85 29.03 49.21 31.69 48.02 34.13 M 27.22 35.67 C 32.14 34.37 36.49 29.66 41.89 31.64 C 40.53 30.37 39.21 29.06 37.90 27.75 C 34.26 30.29 30.49 32.67 27.22 35.67 M 62.40 27.67 C 61.50 29.13 60.59 30.59 59.69 32.05 C 64.68 31.65 69.25 33.82 73.83 35.46 C 70.25 32.54 66.32 30.08 62.40 27.67 M 59.18 34.31 C 61.11 36.66 62.57 39.36 63.09 42.38 C 64.77 42.48 66.44 42.57 68.12 42.67 C 66.66 43.81 65.19 44.96 63.74 46.12 C 61.01 42.94 57.02 41.56 53.17 40.27 C 53.40 42.13 53.20 44.16 54.14 45.84 C 55.54 47.74 57.69 48.84 59.63 50.09 C 55.63 50.09 51.64 50.23 47.65 50.34 C 42.63 50.44 37.84 52.92 34.50 56.61 C 37.71 55.65 40.85 54.46 44.02 53.39 C 44.39 56.82 44.59 60.30 45.49 63.64 C 46.49 66.66 48.77 68.98 50.69 71.43 C 52.43 68.93 54.52 66.57 55.52 63.65 C 56.37 60.62 56.54 57.46 56.78 54.34 C 53.45 56.64 50.30 59.25 48.07 62.68 C 47.37 59.72 46.47 56.82 45.60 53.90 C 47.03 54.72 48.44 55.54 49.86 56.37 C 51.83 55.25 53.70 53.62 56.03 53.41 C 59.71 53.66 62.99 55.56 66.38 56.83 C 64.81 54.40 63.02 52.12 61.06 49.99 C 64.67 51.01 68.37 51.69 72.10 52.09 C 71.29 46.64 69.82 41.25 70.08 35.70 C 66.59 34.44 62.87 34.20 59.18 34.31 M 48.33 45.12 C 48.19 46.56 48.05 47.99 47.91 49.42 C 49.57 49.36 51.23 49.28 52.89 49.21 C 52.57 47.73 52.25 46.26 51.93 44.78 C 50.73 44.90 49.53 45.01 48.33 45.12 Z" />
<path fill="#ffffff" opacity="1.00" d=" M 46.41 13.30 C 46.84 9.76 52.06 9.36 54.12 11.75 C 55.03 14.33 55.00 17.12 55.55 19.78 C 55.84 22.18 57.81 23.80 59.23 25.57 C 58.02 25.81 56.80 26.06 55.59 26.31 C 56.20 27.15 56.82 27.98 57.44 28.81 C 58.97 27.47 60.42 25.99 62.20 24.98 C 66.62 25.10 69.93 28.61 72.53 31.83 C 69.40 30.01 66.64 27.43 63.13 26.37 C 59.30 27.19 57.93 31.47 56.42 34.58 C 55.58 34.30 54.74 34.02 53.90 33.74 C 53.52 29.50 53.93 25.26 54.59 21.06 C 53.24 21.56 51.89 22.06 50.54 22.57 C 51.03 19.31 51.67 16.09 52.56 12.92 C 51.19 12.92 49.82 12.92 48.44 12.92 C 49.33 16.08 49.95 19.29 50.42 22.54 C 48.99 22.01 47.55 21.49 46.12 20.97 C 47.08 25.15 47.52 29.42 47.03 33.70 C 46.23 33.98 45.43 34.27 44.63 34.56 C 43.07 31.43 41.60 27.32 37.84 26.34 C 34.34 27.39 31.58 29.96 28.46 31.76 C 31.00 28.22 34.75 25.94 38.76 24.41 C 39.97 25.53 41.17 26.65 42.37 27.78 C 43.31 27.37 44.24 26.95 45.18 26.54 C 44.17 26.11 43.16 25.68 42.14 25.26 C 45.42 22.10 45.74 17.54 46.41 13.30 Z" />
<path fill="#ffffff" opacity="1.00" d=" M 48.02 34.13 C 49.21 31.69 49.85 29.03 50.78 26.49 C 51.87 30.22 52.66 34.03 53.62 37.80 C 50.81 39.13 48.14 40.89 46.71 43.75 C 45.32 46.65 42.53 48.24 39.65 49.36 C 38.27 46.82 36.92 44.27 35.49 41.76 C 35.59 43.05 35.71 44.33 35.83 45.62 C 35.29 45.63 34.22 45.64 33.68 45.65 C 34.96 47.23 36.23 48.83 37.46 50.46 C 34.59 50.91 31.74 51.40 28.88 51.89 C 29.56 47.28 30.41 42.70 31.46 38.16 C 31.77 35.69 34.16 34.23 36.35 33.62 C 38.37 33.54 40.35 34.10 42.32 34.46 C 40.71 35.96 39.06 37.43 37.47 38.96 C 41.08 37.64 45.12 36.81 48.02 34.13 Z" />
<path fill="#ffffff" opacity="1.00" d=" M 27.22 35.67 C 30.49 32.67 34.26 30.29 37.90 27.75 C 39.21 29.06 40.53 30.37 41.89 31.64 C 36.49 29.66 32.14 34.37 27.22 35.67 Z" />
<path fill="#ffffff" opacity="1.00" d=" M 62.40 27.67 C 66.32 30.08 70.25 32.54 73.83 35.46 C 69.25 33.82 64.68 31.65 59.69 32.05 C 60.59 30.59 61.50 29.13 62.40 27.67 Z" />
<path fill="#ffffff" opacity="1.00" d=" M 59.18 34.31 C 62.87 34.20 66.59 34.44 70.08 35.70 C 69.82 41.25 71.29 46.64 72.10 52.09 C 68.37 51.69 64.67 51.01 61.06 49.99 C 63.02 52.12 64.81 54.40 66.38 56.83 C 62.99 55.56 59.71 53.66 56.03 53.41 C 53.70 53.62 51.83 55.25 49.86 56.37 C 48.44 55.54 47.03 54.72 45.60 53.90 C 46.47 56.82 47.37 59.72 48.07 62.68 C 50.30 59.25 53.45 56.64 56.78 54.34 C 56.54 57.46 56.37 60.62 55.52 63.65 C 54.52 66.57 52.43 68.93 50.69 71.43 C 48.77 68.98 46.49 66.66 45.49 63.64 C 44.59 60.30 44.39 56.82 44.02 53.39 C 40.85 54.46 37.71 55.65 34.50 56.61 C 37.84 52.92 42.63 50.44 47.65 50.34 C 51.64 50.23 55.63 50.09 59.63 50.09 C 57.69 48.84 55.54 47.74 54.14 45.84 C 53.20 44.16 53.40 42.13 53.17 40.27 C 57.02 41.56 61.01 42.94 63.74 46.12 C 65.19 44.96 66.66 43.81 68.12 42.67 C 66.44 42.57 64.77 42.48 63.09 42.38 C 62.57 39.36 61.11 36.66 59.18 34.31 M 51.28 52.42 C 49.85 52.09 48.71 54.58 50.39 54.99 C 51.83 55.35 52.96 52.81 51.28 52.42 Z" />
<path fill="#ffffff" opacity="1.00" d=" M 48.33 45.12 C 49.53 45.01 50.73 44.90 51.93 44.78 C 52.25 46.26 52.57 47.73 52.89 49.21 C 51.23 49.28 49.57 49.36 47.91 49.42 C 48.05 47.99 48.19 46.56 48.33 45.12 Z" />
<path fill="#e85930" opacity="1.00" d=" M 51.28 52.42 C 52.96 52.81 51.83 55.35 50.39 54.99 C 48.71 54.58 49.85 52.09 51.28 52.42 Z" />
</svg>
