<?xml version="1.0" encoding="UTF-8" ?>
<!DOCTYPE svg PUBLIC "-//W3C//DTD SVG 1.1//EN" "http://www.w3.org/Graphics/SVG/1.1/DTD/svg11.dtd">
<svg width="100pt" height="100pt" viewBox="0 0 100 100" version="1.1" xmlns="http://www.w3.org/2000/svg">
<path fill="#ffffff" opacity="1.00" d=" M 42.45 12.61 C 60.89 8.25 81.24 20.57 86.41 38.73 C 91.91 54.41 84.75 73.01 70.92 81.88 C 61.53 87.92 49.46 90.23 38.77 86.42 C 20.07 81.14 7.61 59.75 12.96 40.95 C 16.23 26.82 28.24 15.36 42.45 12.61 M 15.84 43.53 C 20.60 44.20 25.37 44.78 30.13 45.41 C 29.34 47.71 28.52 50.01 27.65 52.29 C 30.23 54.87 32.85 57.43 35.08 60.34 C 27.43 57.62 22.00 51.19 15.22 46.97 C 14.51 58.98 19.85 71.25 29.79 78.21 C 42.21 87.48 60.86 86.72 72.46 76.44 C 81.05 69.31 85.37 58.01 84.78 46.97 C 78.00 51.19 72.57 57.62 64.92 60.34 C 67.15 57.43 69.77 54.86 72.36 52.28 C 71.42 50.03 70.71 47.69 69.86 45.41 C 74.62 44.78 79.40 44.20 84.16 43.53 C 81.31 28.09 67.23 15.72 51.46 15.28 C 53.31 22.25 55.75 29.05 57.88 35.94 C 55.25 37.64 52.67 39.42 50.08 41.18 C 47.33 39.40 44.56 37.65 41.65 36.14 C 43.72 29.17 46.19 22.32 48.16 15.32 C 32.53 15.90 18.68 28.23 15.84 43.53 Z" />
<path fill="#482b46" opacity="1.00" d=" M 15.84 43.53 C 18.68 28.23 32.53 15.90 48.16 15.32 C 46.19 22.32 43.72 29.17 41.65 36.14 C 44.56 37.65 47.33 39.40 50.08 41.18 C 52.67 39.42 55.25 37.64 57.88 35.94 C 55.75 29.05 53.31 22.25 51.46 15.28 C 67.23 15.72 81.31 28.09 84.16 43.53 C 79.40 44.20 74.62 44.78 69.86 45.41 C 70.71 47.69 71.42 50.03 72.36 52.28 C 69.77 54.86 67.15 57.43 64.92 60.34 C 72.57 57.62 78.00 51.19 84.78 46.97 C 85.37 58.01 81.05 69.31 72.46 76.44 C 60.86 86.72 42.21 87.48 29.79 78.21 C 19.85 71.25 14.51 58.98 15.22 46.97 C 22.00 51.19 27.43 57.62 35.08 60.34 C 32.85 57.43 30.23 54.87 27.65 52.29 C 28.52 50.01 29.34 47.71 30.13 45.41 C 25.37 44.78 20.60 44.20 15.84 43.53 M 37.58 41.59 C 33.46 43.29 32.60 48.13 30.86 51.75 C 37.21 57.52 43.56 63.30 50.00 68.97 C 56.44 63.30 62.79 57.52 69.14 51.75 C 67.35 47.61 66.01 42.25 61.01 40.97 C 56.81 38.45 53.29 42.67 50.00 44.76 C 47.65 43.12 45.42 41.23 42.75 40.12 C 40.93 40.09 39.20 40.84 37.58 41.59 M 39.95 67.18 C 42.92 72.71 46.31 77.99 49.80 83.20 C 52.94 77.55 57.98 72.64 58.99 66.05 C 55.57 67.61 52.76 70.15 49.99 72.63 C 47.56 70.56 45.15 68.48 42.75 66.38 C 41.81 66.64 40.88 66.91 39.95 67.18 Z" />
<path fill="#ffffff" opacity="1.00" d=" M 37.58 41.59 C 39.20 40.84 40.93 40.09 42.75 40.12 C 45.42 41.23 47.65 43.12 50.00 44.76 C 53.29 42.67 56.81 38.45 61.01 40.97 C 66.01 42.25 67.35 47.61 69.14 51.75 C 62.79 57.52 56.44 63.30 50.00 68.97 C 43.56 63.30 37.21 57.52 30.86 51.75 C 32.60 48.13 33.46 43.29 37.58 41.59 M 33.30 51.13 C 38.67 56.41 44.38 61.34 50.00 66.35 C 55.62 61.34 61.34 56.42 66.70 51.13 C 65.08 46.98 62.44 42.02 57.24 42.31 C 54.60 43.49 52.36 45.38 50.00 47.02 C 47.64 45.38 45.40 43.49 42.76 42.31 C 37.56 42.02 34.92 46.98 33.30 51.13 Z" />
<path fill="#482b46" opacity="1.00" d=" M 33.30 51.13 C 34.92 46.98 37.56 42.02 42.76 42.31 C 45.40 43.49 47.64 45.38 50.00 47.02 C 52.36 45.38 54.60 43.49 57.24 42.31 C 62.44 42.02 65.08 46.98 66.70 51.13 C 61.34 56.42 55.62 61.34 50.00 66.35 C 44.38 61.34 38.67 56.41 33.30 51.13 M 41.84 56.02 C 44.28 58.95 47.11 61.50 49.97 64.00 C 53.33 61.01 56.73 58.05 60.04 55.01 C 57.20 55.66 54.37 56.85 51.40 56.44 C 48.23 56.03 45.04 55.72 41.84 56.02 Z" />
<path fill="#ffffff" opacity="1.00" d=" M 41.84 56.02 C 45.04 55.72 48.23 56.03 51.40 56.44 C 54.37 56.85 57.20 55.66 60.04 55.01 C 56.73 58.05 53.33 61.01 49.97 64.00 C 47.11 61.50 44.28 58.95 41.84 56.02 Z" />
<path fill="#ffffff" opacity="1.00" d=" M 39.95 67.18 C 40.88 66.91 41.81 66.64 42.75 66.38 C 45.15 68.48 47.56 70.56 49.99 72.63 C 52.76 70.15 55.57 67.61 58.99 66.05 C 57.98 72.64 52.94 77.55 49.80 83.20 C 46.31 77.99 42.92 72.71 39.95 67.18 Z" />
</svg>
