<?xml version="1.0" encoding="UTF-8" ?>
<!DOCTYPE svg PUBLIC "-//W3C//DTD SVG 1.1//EN" "http://www.w3.org/Graphics/SVG/1.1/DTD/svg11.dtd">
<svg width="100pt" height="100pt" viewBox="0 0 100 100" version="1.1" xmlns="http://www.w3.org/2000/svg">
<path fill="#b8b8b9" opacity="1.00" d=" M 62.27 2.34 C 64.27 8.52 65.53 14.91 67.22 21.17 C 74.93 16.61 82.90 12.48 91.03 8.74 C 86.80 15.28 81.94 21.38 77.62 27.85 C 82.27 28.66 86.95 29.38 91.52 30.62 C 86.81 33.42 81.90 35.86 77.04 38.40 C 80.58 42.72 84.43 46.76 88.06 50.99 C 85.94 50.67 83.86 50.18 81.75 49.80 C 82.08 51.53 82.31 53.43 80.82 54.71 C 68.82 68.52 56.91 82.40 44.94 96.23 C 32.20 81.61 19.48 66.97 6.95 52.18 C 19.70 37.66 32.12 22.86 44.94 8.41 C 48.42 12.33 51.81 16.34 55.25 20.31 C 57.76 14.39 59.68 8.23 62.27 2.34 M 56.46 25.00 C 51.95 21.91 48.52 17.61 44.94 13.54 C 33.48 26.22 22.54 39.36 11.31 52.23 C 22.46 65.22 33.47 78.34 44.95 91.04 C 51.22 84.24 57.01 77.02 63.16 70.11 C 68.18 64.12 73.61 58.46 78.30 52.18 C 76.61 50.12 74.90 48.05 73.21 45.98 C 75.88 46.36 78.56 46.71 81.24 47.07 C 78.76 43.95 76.12 40.96 73.55 37.92 C 77.24 35.86 80.95 33.84 84.56 31.63 C 80.75 30.64 76.88 29.99 72.99 29.45 C 76.62 24.83 80.39 20.29 83.38 15.21 C 77.15 17.84 71.42 21.42 65.80 25.12 C 64.52 20.24 63.36 15.33 61.86 10.50 C 59.64 15.17 58.02 20.08 56.46 25.00 Z" />
<path fill="#e85a27" opacity="1.00" d=" M 56.46 25.00 C 58.02 20.08 59.64 15.17 61.86 10.50 C 63.36 15.33 64.52 20.24 65.80 25.12 C 71.42 21.42 77.15 17.84 83.38 15.21 C 80.39 20.29 76.62 24.83 72.99 29.45 C 76.88 29.99 80.75 30.64 84.56 31.63 C 80.95 33.84 77.24 35.86 73.55 37.92 C 76.12 40.96 78.76 43.95 81.24 47.07 C 78.56 46.71 75.88 46.36 73.21 45.98 C 74.90 48.05 76.61 50.12 78.30 52.18 C 73.61 58.46 68.18 64.12 63.16 70.11 C 57.01 77.02 51.22 84.24 44.95 91.04 C 33.47 78.34 22.46 65.22 11.31 52.23 C 22.54 39.36 33.48 26.22 44.94 13.54 C 48.52 17.61 51.95 21.91 56.46 25.00 M 57.67 30.28 C 53.23 27.34 49.32 23.68 44.90 20.72 C 47.43 24.84 50.42 28.64 53.23 32.57 C 50.65 32.95 48.07 33.32 45.51 33.76 C 48.57 35.59 51.72 37.25 54.94 38.79 C 56.46 34.64 59.33 31.17 60.81 27.00 C 61.24 28.66 61.67 30.32 62.12 31.97 C 63.81 31.20 65.51 30.44 67.21 29.69 C 66.16 31.22 65.09 32.74 64.02 34.26 C 65.35 34.51 66.68 34.76 68.01 35.02 C 66.73 35.78 65.45 36.54 64.17 37.30 C 65.39 38.50 66.61 39.71 67.83 40.92 C 66.68 40.84 65.52 40.76 64.37 40.75 C 63.59 42.48 62.76 44.19 61.97 45.92 C 63.33 44.78 64.68 43.64 66.02 42.49 C 68.79 43.05 71.57 43.56 74.37 43.96 C 72.25 41.83 70.00 39.85 67.73 37.89 C 71.63 36.59 75.49 35.18 79.21 33.42 C 75.30 33.22 71.38 33.08 67.47 32.80 C 70.24 29.14 73.37 25.78 76.29 22.24 C 71.97 25.07 67.71 28.00 63.07 30.30 C 62.58 26.70 62.08 23.11 61.26 19.58 C 59.46 22.91 58.48 26.60 57.67 30.28 M 30.86 39.79 C 34.16 39.21 37.41 38.42 40.66 37.63 C 37.17 32.82 41.52 27.49 42.57 22.58 C 38.15 27.86 31.72 32.48 30.86 39.79 M 58.00 41.87 C 55.14 40.71 52.24 39.66 49.30 38.70 C 48.95 39.28 48.25 40.42 47.90 40.99 C 51.49 42.74 54.87 44.95 57.58 47.92 C 52.92 45.50 48.45 42.12 43.00 41.84 C 38.38 41.28 33.88 43.49 30.55 46.56 C 24.85 51.64 24.94 60.99 29.01 67.03 C 33.34 72.05 40.31 74.94 46.92 73.91 C 53.28 72.84 58.48 67.69 60.42 61.66 C 61.19 57.82 59.17 54.10 59.19 50.26 C 59.50 45.37 61.20 40.72 62.96 36.20 C 61.84 35.22 60.70 34.26 59.55 33.30 C 57.31 35.68 57.61 38.87 58.00 41.87 M 15.96 52.02 C 18.27 54.97 20.72 57.82 23.34 60.50 C 22.88 57.50 21.95 54.44 22.51 51.39 C 23.23 48.53 24.40 45.82 25.25 43.00 C 21.93 45.77 18.92 48.87 15.96 52.02 M 65.65 49.33 C 65.53 52.17 66.44 54.99 66.05 57.83 C 65.62 59.76 64.80 61.57 64.12 63.42 C 67.64 59.99 71.69 56.76 73.78 52.20 C 72.31 50.10 70.47 48.32 68.72 46.47 C 67.64 47.37 66.56 48.27 65.65 49.33 M 46.90 78.97 C 42.95 79.60 39.19 77.86 35.62 76.44 C 38.58 79.86 41.66 83.18 44.89 86.36 C 48.71 82.64 52.50 78.89 56.03 74.90 C 53.02 76.31 50.18 78.21 46.90 78.97 Z" />
<path fill="#ffffff" opacity="1.00" d=" M 57.67 30.28 C 58.48 26.60 59.46 22.91 61.26 19.58 C 62.08 23.11 62.58 26.70 63.07 30.30 C 67.71 28.00 71.97 25.07 76.29 22.24 C 73.37 25.78 70.24 29.14 67.47 32.80 C 71.38 33.08 75.30 33.22 79.21 33.42 C 75.49 35.18 71.63 36.59 67.73 37.89 C 70.00 39.85 72.25 41.83 74.37 43.96 C 71.57 43.56 68.79 43.05 66.02 42.49 C 64.68 43.64 63.33 44.78 61.97 45.92 C 62.76 44.19 63.59 42.48 64.37 40.75 C 65.52 40.76 66.68 40.84 67.83 40.92 C 66.61 39.71 65.39 38.50 64.17 37.30 C 65.45 36.54 66.73 35.78 68.01 35.02 C 66.68 34.76 65.35 34.51 64.02 34.26 C 65.09 32.74 66.16 31.22 67.21 29.69 C 65.51 30.44 63.81 31.20 62.12 31.97 C 61.67 30.32 61.24 28.66 60.81 27.00 C 59.33 31.17 56.46 34.64 54.94 38.79 C 51.72 37.25 48.57 35.59 45.51 33.76 C 48.07 33.32 50.65 32.95 53.23 32.57 C 50.42 28.64 47.43 24.84 44.90 20.72 C 49.32 23.68 53.23 27.34 57.67 30.28 Z" />
<path fill="#ffffff" opacity="1.00" d=" M 30.86 39.79 C 31.72 32.48 38.15 27.86 42.57 22.58 C 41.52 27.49 37.17 32.82 40.66 37.63 C 37.41 38.42 34.16 39.21 30.86 39.79 Z" />
<path fill="#ffffff" opacity="1.00" d=" M 58.00 41.87 C 57.61 38.87 57.31 35.68 59.55 33.30 C 60.70 34.26 61.84 35.22 62.96 36.20 C 61.20 40.72 59.50 45.37 59.19 50.26 C 59.17 54.10 61.19 57.82 60.42 61.66 C 58.48 67.69 53.28 72.84 46.92 73.91 C 40.31 74.94 33.34 72.05 29.01 67.03 C 24.94 60.99 24.85 51.64 30.55 46.56 C 33.88 43.49 38.38 41.28 43.00 41.84 C 48.45 42.12 52.92 45.50 57.58 47.92 C 54.87 44.95 51.49 42.74 47.90 40.99 C 48.25 40.42 48.95 39.28 49.30 38.70 C 52.24 39.66 55.14 40.71 58.00 41.87 M 29.51 59.65 C 30.34 62.50 30.81 65.76 33.11 67.87 C 37.25 71.48 43.24 72.63 48.51 71.36 C 51.86 70.01 54.47 67.39 57.09 64.99 C 51.20 65.47 45.26 68.70 39.38 66.65 C 35.82 64.73 32.94 61.80 29.51 59.65 Z" />
<path fill="#ffffff" opacity="1.00" d=" M 15.96 52.02 C 18.92 48.87 21.93 45.77 25.25 43.00 C 24.40 45.82 23.23 48.53 22.51 51.39 C 21.95 54.44 22.88 57.50 23.34 60.50 C 20.72 57.82 18.27 54.97 15.96 52.02 Z" />
<path fill="#ffffff" opacity="1.00" d=" M 65.65 49.33 C 66.56 48.27 67.64 47.37 68.72 46.47 C 70.47 48.32 72.31 50.10 73.78 52.20 C 71.69 56.76 67.64 59.99 64.12 63.42 C 64.80 61.57 65.62 59.76 66.05 57.83 C 66.44 54.99 65.53 52.17 65.65 49.33 Z" />
<path fill="#e85824" opacity="1.00" d=" M 29.51 59.65 C 32.94 61.80 35.82 64.73 39.38 66.65 C 45.26 68.70 51.20 65.47 57.09 64.99 C 54.47 67.39 51.86 70.01 48.51 71.36 C 43.24 72.63 37.25 71.48 33.11 67.87 C 30.81 65.76 30.34 62.50 29.51 59.65 Z" />
<path fill="#ffffff" opacity="1.00" d=" M 46.90 78.97 C 50.18 78.21 53.02 76.31 56.03 74.90 C 52.50 78.89 48.71 82.64 44.89 86.36 C 41.66 83.18 38.58 79.86 35.62 76.44 C 39.19 77.86 42.95 79.60 46.90 78.97 Z" />
</svg>
