<?xml version="1.0" encoding="UTF-8" ?>
<!DOCTYPE svg PUBLIC "-//W3C//DTD SVG 1.1//EN" "http://www.w3.org/Graphics/SVG/1.1/DTD/svg11.dtd">
<svg width="100pt" height="100pt" viewBox="0 0 100 100" version="1.1" xmlns="http://www.w3.org/2000/svg">
<path fill="#b4b3b4" opacity="1.00" d=" M 42.45 12.61 C 60.62 8.34 80.68 20.20 86.17 37.98 C 92.46 54.76 84.07 75.08 68.39 83.39 C 60.77 87.36 51.77 89.58 43.25 87.56 C 34.99 85.96 27.18 81.77 21.58 75.43 C 15.34 68.51 11.97 59.26 11.63 50.00 C 11.96 40.74 15.35 31.48 21.58 24.56 C 27.00 18.44 34.48 14.30 42.45 12.61 M 44.41 15.68 C 36.59 16.97 29.27 21.05 24.02 26.98 C 13.87 38.04 12.33 55.84 20.58 68.41 C 29.03 82.45 48.08 88.78 63.16 82.14 C 79.07 75.94 88.50 57.00 83.46 40.60 C 79.07 24.06 61.31 12.56 44.41 15.68 Z" />
<path fill="#26960f" opacity="1.00" d=" M 44.41 15.68 C 61.31 12.56 79.07 24.06 83.46 40.60 C 88.50 57.00 79.07 75.94 63.16 82.14 C 48.08 88.78 29.03 82.45 20.58 68.41 C 12.33 55.84 13.87 38.04 24.02 26.98 C 29.27 21.05 36.59 16.97 44.41 15.68 M 34.23 27.23 C 28.84 32.04 22.95 37.95 22.71 45.64 C 27.34 38.80 31.16 30.72 38.80 26.71 C 46.81 22.74 55.89 25.52 64.25 26.55 C 54.75 23.27 42.84 20.23 34.23 27.23 M 68.01 31.05 C 70.91 35.84 74.09 40.47 77.21 45.12 C 75.94 39.44 71.33 35.55 68.01 31.05 M 35.17 42.15 C 30.21 45.55 24.62 47.87 18.87 49.55 C 25.63 51.53 32.63 53.36 38.41 57.56 C 41.78 60.02 45.64 62.28 49.98 62.01 C 54.58 62.21 58.52 59.58 62.16 57.13 C 67.86 53.25 74.59 51.47 81.12 49.55 C 75.61 47.92 70.23 45.76 65.44 42.54 C 60.73 39.44 55.95 35.54 50.00 35.59 C 44.25 35.34 39.66 39.14 35.17 42.15 M 23.02 53.26 C 22.60 59.92 25.99 66.91 32.20 69.74 C 38.26 72.24 44.14 76.28 50.99 75.71 C 57.04 75.78 62.03 71.98 66.81 68.77 C 69.29 66.98 72.08 65.48 74.10 63.13 C 75.69 60.32 76.06 57.02 76.78 53.92 C 76.32 54.12 75.39 54.52 74.93 54.72 C 74.06 57.22 73.80 60.01 72.25 62.23 C 70.20 64.57 67.49 66.18 65.05 68.06 C 61.18 70.84 57.23 74.04 52.32 74.61 C 48.02 75.35 43.65 74.20 39.87 72.16 C 35.25 69.70 29.46 68.08 27.03 62.96 C 25.73 59.72 24.64 56.37 23.02 53.26 Z" />
<path fill="#ffffff" opacity="1.00" d=" M 34.23 27.23 C 42.84 20.23 54.75 23.27 64.25 26.55 C 55.89 25.52 46.81 22.74 38.80 26.71 C 31.16 30.72 27.34 38.80 22.71 45.64 C 22.95 37.95 28.84 32.04 34.23 27.23 Z" />
<path fill="#ffffff" opacity="1.00" d=" M 68.01 31.05 C 71.33 35.55 75.94 39.44 77.21 45.12 C 74.09 40.47 70.91 35.84 68.01 31.05 Z" />
<path fill="#ffffff" opacity="1.00" d=" M 35.17 42.15 C 39.66 39.14 44.25 35.34 50.00 35.59 C 55.95 35.54 60.73 39.44 65.44 42.54 C 70.23 45.76 75.61 47.92 81.12 49.55 C 74.59 51.47 67.86 53.25 62.16 57.13 C 58.52 59.58 54.58 62.21 49.98 62.01 C 45.64 62.28 41.78 60.02 38.41 57.56 C 32.63 53.36 25.63 51.53 18.87 49.55 C 24.62 47.87 30.21 45.55 35.17 42.15 M 31.72 47.49 C 43.91 47.54 56.09 47.54 68.28 47.48 C 62.87 44.30 58.04 39.64 51.75 38.33 C 43.81 37.22 38.09 43.98 31.72 47.49 M 30.47 49.98 C 34.90 52.30 39.16 54.91 43.35 57.63 C 47.32 60.20 52.62 60.03 56.59 57.55 C 60.83 54.90 65.11 52.33 69.53 49.98 C 65.16 49.80 60.79 49.81 56.42 49.95 C 55.25 52.84 53.92 57.00 50.01 56.69 C 46.03 57.13 44.49 52.98 43.45 49.95 C 39.13 49.81 34.80 49.80 30.47 49.98 Z" />
<path fill="#26960f" opacity="1.00" d=" M 31.72 47.49 C 38.09 43.98 43.81 37.22 51.75 38.33 C 58.04 39.64 62.87 44.30 68.28 47.48 C 56.09 47.54 43.91 47.54 31.72 47.49 Z" />
<path fill="#229409" opacity="1.00" d=" M 30.47 49.98 C 34.80 49.80 39.13 49.81 43.45 49.95 C 44.49 52.98 46.03 57.13 50.01 56.69 C 53.92 57.00 55.25 52.84 56.42 49.95 C 60.79 49.81 65.16 49.80 69.53 49.98 C 65.11 52.33 60.83 54.90 56.59 57.55 C 52.62 60.03 47.32 60.20 43.35 57.63 C 39.16 54.91 34.90 52.30 30.47 49.98 Z" />
<path fill="#ffffff" opacity="1.00" d=" M 23.02 53.26 C 24.64 56.37 25.73 59.72 27.03 62.96 C 29.46 68.08 35.25 69.70 39.87 72.16 C 43.65 74.20 48.02 75.35 52.32 74.61 C 57.23 74.04 61.18 70.84 65.05 68.06 C 67.49 66.18 70.20 64.57 72.25 62.23 C 73.80 60.01 74.06 57.22 74.93 54.72 C 75.39 54.52 76.32 54.12 76.78 53.92 C 76.06 57.02 75.69 60.32 74.10 63.13 C 72.08 65.48 69.29 66.98 66.81 68.77 C 62.03 71.98 57.04 75.78 50.99 75.71 C 44.14 76.28 38.26 72.24 32.20 69.74 C 25.99 66.91 22.60 59.92 23.02 53.26 Z" />
</svg>
