<?xml version="1.0" encoding="UTF-8" ?>
<!DOCTYPE svg PUBLIC "-//W3C//DTD SVG 1.1//EN" "http://www.w3.org/Graphics/SVG/1.1/DTD/svg11.dtd">
<svg width="100pt" height="100pt" viewBox="0 0 100 100" version="1.1" xmlns="http://www.w3.org/2000/svg">
<path fill="#b8b9ba" opacity="1.00" d=" M 32.68 21.24 C 33.78 18.10 34.58 14.03 38.21 12.88 C 41.79 11.26 44.44 14.94 46.60 17.19 C 51.62 15.97 56.81 16.06 61.94 16.11 C 65.70 16.17 68.46 18.94 71.30 21.01 C 74.49 21.74 77.82 21.32 81.07 21.36 C 81.54 28.42 81.09 35.50 81.37 42.56 C 86.51 45.67 89.08 51.35 90.42 56.97 C 88.99 61.24 86.29 64.98 83.34 68.35 C 82.46 69.45 81.27 70.54 81.34 72.08 C 81.11 76.93 81.43 81.80 81.08 86.66 C 59.48 86.60 37.88 86.62 16.28 86.65 C 16.21 82.48 16.56 78.29 16.09 74.15 C 13.89 70.42 9.80 67.90 8.56 63.58 C 7.49 59.20 8.70 54.19 12.16 51.18 C 13.83 49.36 16.63 47.94 16.27 45.05 C 16.43 37.16 16.17 29.25 16.29 21.35 C 21.76 21.39 27.22 21.48 32.68 21.24 M 37.55 16.42 C 36.04 18.94 35.36 21.85 34.43 24.62 C 29.73 25.29 24.97 25.30 20.24 25.23 C 19.97 33.08 20.49 40.93 20.04 48.78 C 17.43 50.51 14.51 52.03 12.65 54.65 C 10.72 57.72 10.70 61.74 11.98 65.06 C 13.37 68.60 17.10 70.20 20.07 72.16 C 20.16 75.89 20.20 79.62 20.37 83.35 C 21.17 82.97 21.96 82.57 22.73 82.14 C 24.54 82.50 26.38 82.61 28.22 82.58 L 27.64 83.21 C 29.26 82.86 31.22 83.24 32.53 82.03 C 33.09 82.22 34.20 82.61 34.75 82.80 C 37.69 83.00 40.63 83.07 43.57 83.15 L 43.53 82.35 C 45.43 82.39 47.34 82.42 49.25 82.43 L 48.90 83.11 C 52.43 83.01 56.11 83.58 59.54 82.54 C 62.00 80.89 63.97 78.65 66.22 76.75 C 64.90 78.97 63.51 81.15 62.17 83.35 C 65.01 83.20 67.72 82.33 69.85 80.40 C 69.67 81.28 69.50 82.16 69.34 83.04 C 72.14 83.06 74.94 83.02 77.75 82.94 C 78.29 77.83 76.62 71.64 80.60 67.58 C 83.27 64.32 86.42 61.07 87.36 56.83 C 86.97 52.81 84.92 48.88 81.69 46.40 C 80.35 45.04 78.21 44.04 77.99 41.94 C 77.43 36.43 78.01 30.88 77.79 25.35 C 75.26 25.24 72.74 25.11 70.22 24.95 C 67.76 22.19 65.02 18.92 61.01 18.76 C 56.90 18.61 52.61 18.25 48.65 19.57 C 46.24 21.22 44.55 23.69 42.37 25.60 C 42.81 23.16 43.52 20.76 43.66 18.28 C 43.21 15.58 39.38 14.23 37.55 16.42 Z" />
<path fill="#bc532e" opacity="1.00" d=" M 37.55 16.42 C 39.38 14.23 43.21 15.58 43.66 18.28 C 43.52 20.76 42.81 23.16 42.37 25.60 C 44.55 23.69 46.24 21.22 48.65 19.57 C 52.61 18.25 56.90 18.61 61.01 18.76 C 65.02 18.92 67.76 22.19 70.22 24.95 C 72.74 25.11 75.26 25.24 77.79 25.35 C 78.01 30.88 77.43 36.43 77.99 41.94 C 78.21 44.04 80.35 45.04 81.69 46.40 C 84.92 48.88 86.97 52.81 87.36 56.83 C 86.42 61.07 83.27 64.32 80.60 67.58 C 76.62 71.64 78.29 77.83 77.75 82.94 C 74.94 83.02 72.14 83.06 69.34 83.04 C 69.50 82.16 69.67 81.28 69.85 80.40 C 67.72 82.33 65.01 83.20 62.17 83.35 C 63.51 81.15 64.90 78.97 66.22 76.75 C 63.97 78.65 62.00 80.89 59.54 82.54 C 56.11 83.58 52.43 83.01 48.90 83.11 L 49.25 82.43 C 50.26 80.47 51.28 78.52 52.29 76.56 C 49.60 75.63 46.85 74.86 44.00 74.68 C 43.45 77.19 43.36 79.78 43.53 82.35 L 43.57 83.15 C 40.63 83.07 37.69 83.00 34.75 82.80 C 36.83 80.33 38.63 77.63 40.31 74.87 C 37.59 77.12 35.11 79.63 32.53 82.03 C 31.22 83.24 29.26 82.86 27.64 83.21 L 28.22 82.58 C 32.22 78.07 36.99 74.32 41.01 69.81 C 34.61 73.46 28.94 78.22 22.73 82.14 C 21.96 82.57 21.17 82.97 20.37 83.35 C 20.20 79.62 20.16 75.89 20.07 72.16 C 17.10 70.20 13.37 68.60 11.98 65.06 C 10.70 61.74 10.72 57.72 12.65 54.65 C 14.51 52.03 17.43 50.51 20.04 48.78 C 20.49 40.93 19.97 33.08 20.24 25.23 C 24.97 25.30 29.73 25.29 34.43 24.62 C 35.36 21.85 36.04 18.94 37.55 16.42 M 37.16 29.89 C 36.13 29.23 35.10 28.58 34.06 27.94 C 33.12 28.67 32.18 29.41 31.24 30.14 C 32.46 32.82 34.34 35.73 32.84 38.71 C 30.05 45.98 28.89 53.96 24.54 60.54 C 22.89 62.90 23.66 65.89 23.59 68.56 C 26.80 65.48 30.98 67.44 34.70 68.16 C 34.65 64.60 31.66 63.05 28.84 61.76 C 29.41 61.68 30.56 61.51 31.13 61.43 C 30.25 60.48 29.36 59.54 28.47 58.61 C 30.26 52.12 32.71 45.82 34.37 39.29 C 39.34 42.39 44.15 47.40 50.55 46.21 C 49.48 45.63 48.41 45.06 47.34 44.50 C 50.66 43.71 52.83 41.23 54.13 38.18 C 53.00 41.25 51.87 44.32 50.62 47.35 C 53.56 48.43 56.65 48.97 59.75 49.38 C 59.60 52.14 57.85 55.45 60.08 57.80 C 62.00 60.22 64.63 62.72 67.84 62.95 C 72.04 61.55 70.95 56.31 73.29 53.36 C 74.86 51.39 76.08 48.82 74.97 46.32 C 73.17 43.72 70.43 41.70 69.41 38.60 C 69.06 35.85 70.16 32.89 68.76 30.30 C 67.57 27.86 66.64 25.17 64.78 23.14 C 61.82 20.83 57.86 21.66 54.40 21.50 C 52.38 21.62 49.84 21.24 48.45 23.07 C 48.51 25.27 48.00 28.46 50.37 29.60 C 52.27 29.50 54.06 28.80 55.88 28.28 C 56.78 29.46 57.68 30.64 58.56 31.83 L 58.05 31.83 C 56.73 31.43 55.40 31.13 54.05 30.92 C 52.25 31.27 50.32 33.51 52.03 35.12 C 51.19 35.24 49.52 35.48 48.68 35.60 C 43.67 36.43 39.14 33.99 34.56 32.41 C 36.36 32.32 38.16 32.28 39.97 32.25 C 39.55 30.30 38.67 28.37 38.86 26.35 C 39.45 23.42 40.54 20.63 41.06 17.68 C 37.30 20.31 36.45 25.61 37.16 29.89 M 77.25 46.49 C 76.35 51.63 73.39 56.02 71.84 60.95 C 71.26 63.42 69.05 64.84 67.22 66.35 C 68.36 69.35 69.44 72.39 70.82 75.30 C 71.46 76.57 72.17 78.11 73.84 78.07 C 76.04 75.46 75.92 71.83 74.38 68.95 C 75.66 68.48 77.12 68.19 78.03 67.09 C 80.86 64.07 83.44 60.68 84.70 56.68 C 82.27 56.75 79.84 56.87 77.41 56.94 C 79.84 55.71 82.56 55.47 85.25 55.49 C 83.67 51.64 81.05 48.33 77.25 46.49 M 18.00 53.07 C 14.87 55.05 12.85 59.15 14.01 62.81 C 14.80 65.23 16.83 66.90 18.60 68.61 C 18.48 66.96 18.33 65.32 18.20 63.68 C 19.36 64.37 20.51 65.07 21.66 65.77 C 23.53 61.15 21.86 55.85 24.46 51.51 C 22.29 51.95 20.02 52.11 18.00 53.07 M 52.47 62.43 C 51.03 64.99 50.25 67.89 48.67 70.39 C 48.89 68.78 49.15 67.18 49.39 65.57 C 45.68 66.74 44.36 70.63 44.87 74.21 C 46.46 74.16 47.98 73.71 49.49 73.23 C 50.71 74.31 51.62 77.26 53.54 75.69 C 58.49 72.86 63.98 69.77 66.21 64.21 C 63.44 62.22 60.59 60.33 57.81 58.35 C 55.99 59.65 54.00 60.77 52.47 62.43 Z" />
<path fill="#ffffff" opacity="1.00" d=" M 37.16 29.89 C 36.45 25.61 37.30 20.31 41.06 17.68 C 40.54 20.63 39.45 23.42 38.86 26.35 C 38.67 28.37 39.55 30.30 39.97 32.25 C 38.16 32.28 36.36 32.32 34.56 32.41 C 39.14 33.99 43.67 36.43 48.68 35.60 C 52.66 35.70 56.64 36.77 60.62 36.28 C 62.23 35.08 63.27 33.31 64.47 31.74 C 62.50 31.76 60.53 31.82 58.56 31.83 C 57.68 30.64 56.78 29.46 55.88 28.28 C 54.06 28.80 52.27 29.50 50.37 29.60 C 48.00 28.46 48.51 25.27 48.45 23.07 C 49.84 21.24 52.38 21.62 54.40 21.50 C 57.86 21.66 61.82 20.83 64.78 23.14 C 66.64 25.17 67.57 27.86 68.76 30.30 C 70.16 32.89 69.06 35.85 69.41 38.60 C 70.43 41.70 73.17 43.72 74.97 46.32 C 76.08 48.82 74.86 51.39 73.29 53.36 C 70.95 56.31 72.04 61.55 67.84 62.95 C 64.63 62.72 62.00 60.22 60.08 57.80 C 57.85 55.45 59.60 52.14 59.75 49.38 C 56.65 48.97 53.56 48.43 50.62 47.35 C 51.87 44.32 53.00 41.25 54.13 38.18 C 52.83 41.23 50.66 43.71 47.34 44.50 C 48.41 45.06 49.48 45.63 50.55 46.21 C 44.15 47.40 39.34 42.39 34.37 39.29 C 32.71 45.82 30.26 52.12 28.47 58.61 C 29.36 59.54 30.25 60.48 31.13 61.43 C 30.56 61.51 29.41 61.68 28.84 61.76 C 31.66 63.05 34.65 64.60 34.70 68.16 C 30.98 67.44 26.80 65.48 23.59 68.56 C 23.66 65.89 22.89 62.90 24.54 60.54 C 28.89 53.96 30.05 45.98 32.84 38.71 C 34.34 35.73 32.46 32.82 31.24 30.14 C 32.18 29.41 33.12 28.67 34.06 27.94 C 35.10 28.58 36.13 29.23 37.16 29.89 M 66.23 33.44 C 65.09 34.31 66.54 36.26 67.70 35.42 C 68.85 34.56 67.39 32.60 66.23 33.44 M 65.51 48.98 C 68.58 49.17 72.09 49.68 74.31 47.01 C 71.26 47.06 68.29 47.77 65.51 48.98 Z" />
<path fill="#ffffff" opacity="1.00" d=" M 52.03 35.12 C 50.32 33.51 52.25 31.27 54.05 30.92 C 55.40 31.13 56.73 31.43 58.05 31.83 C 57.80 32.74 57.55 33.64 57.30 34.55 C 55.54 34.74 53.79 34.93 52.03 35.12 Z" />
<path fill="#d6967f" opacity="1.00" d=" M 58.56 31.83 C 60.53 31.82 62.50 31.76 64.47 31.74 C 63.27 33.31 62.23 35.08 60.62 36.28 C 56.64 36.77 52.66 35.70 48.68 35.60 C 49.52 35.48 51.19 35.24 52.03 35.12 C 53.79 34.93 55.54 34.74 57.30 34.55 C 57.55 33.64 57.80 32.74 58.05 31.83 L 58.56 31.83 Z" />
<path fill="#bc532e" opacity="1.00" d=" M 66.23 33.44 C 67.39 32.60 68.85 34.56 67.70 35.42 C 66.54 36.26 65.09 34.31 66.23 33.44 Z" />
<path fill="#e6beb0" opacity="1.00" d=" M 65.51 48.98 C 68.29 47.77 71.26 47.06 74.31 47.01 C 72.09 49.68 68.58 49.17 65.51 48.98 Z" />
<path fill="#ffffff" opacity="1.00" d=" M 77.25 46.49 C 81.05 48.33 83.67 51.64 85.25 55.49 C 82.56 55.47 79.84 55.71 77.41 56.94 C 79.84 56.87 82.27 56.75 84.70 56.68 C 83.44 60.68 80.86 64.07 78.03 67.09 C 77.12 68.19 75.66 68.48 74.38 68.95 C 75.92 71.83 76.04 75.46 73.84 78.07 C 72.17 78.11 71.46 76.57 70.82 75.30 C 69.44 72.39 68.36 69.35 67.22 66.35 C 69.05 64.84 71.26 63.42 71.84 60.95 C 73.39 56.02 76.35 51.63 77.25 46.49 Z" />
<path fill="#ffffff" opacity="1.00" d=" M 18.00 53.07 C 20.02 52.11 22.29 51.95 24.46 51.51 C 21.86 55.85 23.53 61.15 21.66 65.77 C 20.51 65.07 19.36 64.37 18.20 63.68 C 18.33 65.32 18.48 66.96 18.60 68.61 C 16.83 66.90 14.80 65.23 14.01 62.81 C 12.85 59.15 14.87 55.05 18.00 53.07 Z" />
<path fill="#ffffff" opacity="1.00" d=" M 52.47 62.43 C 54.00 60.77 55.99 59.65 57.81 58.35 C 60.59 60.33 63.44 62.22 66.21 64.21 C 63.98 69.77 58.49 72.86 53.54 75.69 C 51.62 77.26 50.71 74.31 49.49 73.23 C 47.98 73.71 46.46 74.16 44.87 74.21 C 44.36 70.63 45.68 66.74 49.39 65.57 C 49.15 67.18 48.89 68.78 48.67 70.39 C 50.25 67.89 51.03 64.99 52.47 62.43 Z" />
<path fill="#ffffff" opacity="1.00" d=" M 22.73 82.14 C 28.94 78.22 34.61 73.46 41.01 69.81 C 36.99 74.32 32.22 78.07 28.22 82.58 C 26.38 82.61 24.54 82.50 22.73 82.14 Z" />
<path fill="#ffffff" opacity="1.00" d=" M 32.53 82.03 C 35.11 79.63 37.59 77.12 40.31 74.87 C 38.63 77.63 36.83 80.33 34.75 82.80 C 34.20 82.61 33.09 82.22 32.53 82.03 Z" />
<path fill="#ffffff" opacity="1.00" d=" M 44.00 74.68 C 46.85 74.86 49.60 75.63 52.29 76.56 C 51.28 78.52 50.26 80.47 49.25 82.43 C 47.34 82.42 45.43 82.39 43.53 82.35 C 43.36 79.78 43.45 77.19 44.00 74.68 Z" />
</svg>
