<?xml version="1.0" encoding="UTF-8" ?>
<!DOCTYPE svg PUBLIC "-//W3C//DTD SVG 1.1//EN" "http://www.w3.org/Graphics/SVG/1.1/DTD/svg11.dtd">
<svg width="100pt" height="100pt" viewBox="0 0 100 100" version="1.1" xmlns="http://www.w3.org/2000/svg">
<path fill="#b8b9ba" opacity="1.00" d=" M 32.66 21.31 C 33.73 18.11 34.57 14.04 38.23 12.85 C 41.80 11.26 44.43 14.96 46.63 17.16 C 51.64 15.95 56.82 16.09 61.93 16.14 C 65.69 16.20 68.42 19.01 71.35 20.95 C 74.53 21.83 77.91 21.30 81.17 21.38 C 81.36 28.43 81.22 35.49 81.32 42.54 C 86.48 45.63 89.11 51.32 90.40 56.96 C 89.02 61.25 86.25 64.96 83.34 68.35 C 82.47 69.46 81.31 70.56 81.35 72.10 C 81.07 76.95 81.36 81.81 81.18 86.66 C 59.54 86.59 37.89 86.60 16.25 86.65 C 15.78 81.29 18.20 74.55 13.33 70.63 C 9.78 67.25 7.02 62.42 8.53 57.38 C 9.20 52.72 13.84 50.49 16.06 46.82 C 16.67 38.36 16.10 29.84 16.26 21.35 C 21.73 21.41 27.19 21.43 32.66 21.31 M 37.61 16.46 C 35.98 18.94 35.35 21.90 34.41 24.68 C 29.69 25.16 24.94 25.30 20.19 25.24 C 20.10 33.08 20.35 40.92 20.07 48.76 C 17.44 50.48 14.52 52.03 12.67 54.66 C 10.71 57.71 10.70 61.75 11.98 65.06 C 13.42 68.57 17.08 70.23 20.07 72.17 C 20.14 75.95 20.22 79.72 20.42 83.50 C 21.18 83.05 21.94 82.60 22.69 82.14 C 24.50 82.41 26.33 82.71 28.16 82.46 L 27.50 83.10 C 29.21 82.78 31.23 83.09 32.60 81.81 C 33.14 82.11 34.22 82.70 34.76 82.99 C 37.68 83.04 40.60 83.08 43.52 83.12 L 43.51 82.31 C 45.43 82.35 47.35 82.39 49.27 82.47 L 48.94 83.15 C 52.45 83.06 56.10 83.56 59.49 82.47 C 62.01 80.93 63.99 78.68 66.21 76.75 C 64.86 79.01 63.48 81.24 62.17 83.52 C 64.96 83.02 67.64 82.05 70.01 80.49 C 69.75 81.33 69.48 82.18 69.22 83.02 C 72.06 83.03 74.91 83.00 77.76 82.97 C 78.10 77.61 76.76 71.20 81.04 67.04 C 83.93 63.23 88.95 58.79 86.67 53.53 C 85.49 48.77 80.89 46.43 78.20 42.72 C 77.24 36.98 77.99 31.11 77.84 25.32 C 75.30 25.25 72.77 25.08 70.24 24.98 C 67.89 22.37 65.38 19.32 61.66 18.86 C 58.34 18.46 54.97 18.50 51.66 18.85 C 47.49 19.11 45.13 22.96 42.43 25.60 C 42.87 23.18 43.61 20.77 43.54 18.28 C 43.37 15.55 39.26 14.20 37.61 16.46 Z" />
<path fill="#bc532e" opacity="1.00" d=" M 37.61 16.46 C 39.26 14.20 43.37 15.55 43.54 18.28 C 43.61 20.77 42.87 23.18 42.43 25.60 C 45.13 22.96 47.49 19.11 51.66 18.85 C 54.97 18.50 58.34 18.46 61.66 18.86 C 65.38 19.32 67.89 22.37 70.24 24.98 C 72.77 25.08 75.30 25.25 77.84 25.32 C 77.99 31.11 77.24 36.98 78.20 42.72 C 80.89 46.43 85.49 48.77 86.67 53.53 C 88.95 58.79 83.93 63.23 81.04 67.04 C 76.76 71.20 78.10 77.61 77.76 82.97 C 74.91 83.00 72.06 83.03 69.22 83.02 C 69.48 82.18 69.75 81.33 70.01 80.49 C 67.64 82.05 64.96 83.02 62.17 83.52 C 63.48 81.24 64.86 79.01 66.21 76.75 C 63.99 78.68 62.01 80.93 59.49 82.47 C 56.10 83.56 52.45 83.06 48.94 83.15 L 49.27 82.47 C 50.18 80.61 51.08 78.74 51.90 76.84 C 49.27 75.81 46.61 74.81 43.83 74.27 C 43.47 76.93 43.51 79.63 43.51 82.31 L 43.52 83.12 C 40.60 83.08 37.68 83.04 34.76 82.99 C 36.68 80.32 38.58 77.63 40.33 74.85 C 37.69 77.10 35.25 79.57 32.60 81.81 C 31.23 83.09 29.21 82.78 27.50 83.10 L 28.16 82.46 C 32.47 78.25 36.90 74.16 41.04 69.79 C 34.64 73.48 28.95 78.23 22.69 82.14 C 21.94 82.60 21.18 83.05 20.42 83.50 C 20.22 79.72 20.14 75.95 20.07 72.17 C 17.08 70.23 13.42 68.57 11.98 65.06 C 10.70 61.75 10.71 57.71 12.67 54.66 C 14.52 52.03 17.44 50.48 20.07 48.76 C 20.35 40.92 20.10 33.08 20.19 25.24 C 24.94 25.30 29.69 25.16 34.41 24.68 C 35.35 21.90 35.98 18.94 37.61 16.46 M 37.07 29.95 C 36.08 29.25 35.10 28.54 34.12 27.82 C 33.20 28.62 32.25 29.38 31.27 30.11 C 32.03 32.00 33.09 33.83 33.39 35.87 C 33.14 38.46 32.10 40.88 31.33 43.34 C 29.35 48.94 28.16 54.91 24.89 59.97 C 23.13 62.46 23.55 65.60 23.45 68.46 C 26.90 65.73 31.10 67.38 34.92 68.10 C 34.32 64.79 31.59 63.01 28.82 61.60 C 29.35 61.62 30.43 61.67 30.96 61.69 C 30.11 60.20 28.30 58.77 28.97 56.86 C 30.58 50.94 32.94 45.24 34.39 39.26 C 39.26 42.59 44.20 47.15 50.58 46.28 C 49.53 45.69 48.47 45.13 47.40 44.58 C 50.59 43.58 52.80 41.16 54.21 38.21 C 52.97 41.28 51.81 44.38 50.57 47.45 C 53.57 48.29 56.63 48.86 59.69 49.43 C 59.54 52.17 57.95 55.43 60.08 57.80 C 61.79 60.18 64.20 62.24 67.10 62.95 C 70.59 62.90 71.01 58.76 72.08 56.27 C 72.98 53.17 75.91 50.60 75.23 47.17 C 73.53 43.42 68.78 40.90 69.41 36.25 C 70.03 31.63 67.72 27.35 65.24 23.65 C 62.67 20.93 58.60 21.57 55.23 21.47 C 52.94 21.60 50.16 21.17 48.43 23.04 C 48.48 25.26 48.06 28.35 50.34 29.61 C 52.27 29.48 54.09 28.79 55.93 28.26 C 56.80 29.41 57.66 30.57 58.50 31.74 L 57.96 31.72 C 55.55 31.01 53.09 31.24 50.94 32.57 C 51.22 33.23 51.77 34.53 52.04 35.19 C 51.19 35.31 49.50 35.56 48.66 35.69 C 43.71 36.02 39.03 34.26 34.56 32.36 C 36.35 32.29 38.15 32.29 39.94 32.29 C 37.73 27.37 40.00 22.41 40.95 17.51 C 37.55 20.66 36.46 25.49 37.07 29.95 M 77.34 46.38 C 76.10 51.72 73.41 56.54 71.51 61.65 C 70.75 63.75 68.79 64.99 67.20 66.41 C 68.95 70.44 69.93 74.99 72.99 78.29 C 76.62 76.33 75.59 71.62 74.33 68.49 C 75.10 68.58 75.87 68.68 76.65 68.77 C 79.82 65.07 83.06 61.32 84.84 56.71 C 82.34 56.72 79.84 56.78 77.34 56.78 C 79.95 56.04 82.63 55.62 85.32 55.36 C 83.56 51.65 80.92 48.45 77.34 46.38 M 19.46 52.57 C 15.88 53.53 13.62 57.39 13.68 60.96 C 13.80 64.24 16.49 66.51 18.56 68.72 C 18.45 67.00 18.32 65.29 18.20 63.57 C 19.39 64.33 20.57 65.10 21.76 65.87 C 22.81 61.07 22.46 56.02 24.26 51.39 C 22.66 51.76 21.04 52.09 19.46 52.57 M 52.19 63.05 C 50.87 65.43 49.95 68.00 48.75 70.44 C 48.93 68.76 49.13 67.08 49.31 65.40 C 45.80 66.98 44.70 70.64 44.35 74.20 C 45.31 74.28 47.22 74.43 48.18 74.50 C 48.42 74.05 48.90 73.15 49.14 72.69 C 50.12 73.88 51.15 75.04 52.22 76.15 C 57.87 73.57 63.54 70.00 66.35 64.24 C 63.47 62.29 60.56 60.38 57.78 58.27 C 55.86 59.77 53.58 60.98 52.19 63.05 Z" />
<path fill="#ffffff" opacity="1.00" d=" M 37.07 29.95 C 36.46 25.49 37.55 20.66 40.95 17.51 C 40.00 22.41 37.73 27.37 39.94 32.29 C 38.15 32.29 36.35 32.29 34.56 32.36 C 39.03 34.26 43.71 36.02 48.66 35.69 C 51.97 35.86 55.26 36.34 58.57 36.36 C 61.50 36.72 62.86 33.60 64.62 31.86 C 62.58 31.81 60.54 31.79 58.50 31.74 C 57.66 30.57 56.80 29.41 55.93 28.26 C 54.09 28.79 52.27 29.48 50.34 29.61 C 48.06 28.35 48.48 25.26 48.43 23.04 C 50.16 21.17 52.94 21.60 55.23 21.47 C 58.60 21.57 62.67 20.93 65.24 23.65 C 67.72 27.35 70.03 31.63 69.41 36.25 C 68.78 40.90 73.53 43.42 75.23 47.17 C 75.91 50.60 72.98 53.17 72.08 56.27 C 71.01 58.76 70.59 62.90 67.10 62.95 C 64.20 62.24 61.79 60.18 60.08 57.80 C 57.95 55.43 59.54 52.17 59.69 49.43 C 56.63 48.86 53.57 48.29 50.57 47.45 C 51.81 44.38 52.97 41.28 54.21 38.21 C 52.80 41.16 50.59 43.58 47.40 44.58 C 48.47 45.13 49.53 45.69 50.58 46.28 C 44.20 47.15 39.26 42.59 34.39 39.26 C 32.94 45.24 30.58 50.94 28.97 56.86 C 28.30 58.77 30.11 60.20 30.96 61.69 C 30.43 61.67 29.35 61.62 28.82 61.60 C 31.59 63.01 34.32 64.79 34.92 68.10 C 31.10 67.38 26.90 65.73 23.45 68.46 C 23.55 65.60 23.13 62.46 24.89 59.97 C 28.16 54.91 29.35 48.94 31.33 43.34 C 32.10 40.88 33.14 38.46 33.39 35.87 C 33.09 33.83 32.03 32.00 31.27 30.11 C 32.25 29.38 33.20 28.62 34.12 27.82 C 35.10 28.54 36.08 29.25 37.07 29.95 M 66.23 33.45 C 65.06 34.30 66.53 36.25 67.69 35.39 C 68.87 34.54 67.39 32.59 66.23 33.45 M 65.46 48.97 C 68.60 49.28 71.92 49.23 74.43 47.04 C 71.36 47.22 68.34 47.88 65.46 48.97 Z" />
<path fill="#ffffff" opacity="1.00" d=" M 50.94 32.57 C 53.09 31.24 55.55 31.01 57.96 31.72 C 57.79 32.65 57.62 33.58 57.45 34.51 C 55.64 34.72 53.84 34.94 52.04 35.19 C 51.77 34.53 51.22 33.23 50.94 32.57 Z" />
<path fill="#d6967f" opacity="1.00" d=" M 58.50 31.74 C 60.54 31.79 62.58 31.81 64.62 31.86 C 62.86 33.60 61.50 36.72 58.57 36.36 C 55.26 36.34 51.97 35.86 48.66 35.69 C 49.50 35.56 51.19 35.31 52.04 35.19 C 53.84 34.94 55.64 34.72 57.45 34.51 C 57.62 33.58 57.79 32.65 57.96 31.72 L 58.50 31.74 Z" />
<path fill="#bc532e" opacity="1.00" d=" M 66.23 33.45 C 67.39 32.59 68.87 34.54 67.69 35.39 C 66.53 36.25 65.06 34.30 66.23 33.45 Z" />
<path fill="#e6beb0" opacity="1.00" d=" M 65.46 48.97 C 68.34 47.88 71.36 47.22 74.43 47.04 C 71.92 49.23 68.60 49.28 65.46 48.97 Z" />
<path fill="#ffffff" opacity="1.00" d=" M 77.34 46.38 C 80.92 48.45 83.56 51.65 85.32 55.36 C 82.63 55.62 79.95 56.04 77.34 56.78 C 79.84 56.78 82.34 56.72 84.84 56.71 C 83.06 61.32 79.82 65.07 76.65 68.77 C 75.87 68.68 75.10 68.58 74.33 68.49 C 75.59 71.62 76.62 76.33 72.99 78.29 C 69.93 74.99 68.95 70.44 67.20 66.41 C 68.79 64.99 70.75 63.75 71.51 61.65 C 73.41 56.54 76.10 51.72 77.34 46.38 Z" />
<path fill="#ffffff" opacity="1.00" d=" M 19.46 52.57 C 21.04 52.09 22.66 51.76 24.26 51.39 C 22.46 56.02 22.81 61.07 21.76 65.87 C 20.57 65.10 19.39 64.33 18.20 63.57 C 18.32 65.29 18.45 67.00 18.56 68.72 C 16.49 66.51 13.80 64.24 13.68 60.96 C 13.62 57.39 15.88 53.53 19.46 52.57 Z" />
<path fill="#ffffff" opacity="1.00" d=" M 52.19 63.05 C 53.58 60.98 55.86 59.77 57.78 58.27 C 60.56 60.38 63.47 62.29 66.35 64.24 C 63.54 70.00 57.87 73.57 52.22 76.15 C 51.15 75.04 50.12 73.88 49.14 72.69 C 48.90 73.15 48.42 74.05 48.18 74.50 C 47.22 74.43 45.31 74.28 44.35 74.20 C 44.70 70.64 45.80 66.98 49.31 65.40 C 49.13 67.08 48.93 68.76 48.75 70.44 C 49.95 68.00 50.87 65.43 52.19 63.05 Z" />
<path fill="#ffffff" opacity="1.00" d=" M 22.69 82.14 C 28.95 78.23 34.64 73.48 41.04 69.79 C 36.90 74.16 32.47 78.25 28.16 82.46 C 26.33 82.71 24.50 82.41 22.69 82.14 Z" />
<path fill="#ffffff" opacity="1.00" d=" M 32.60 81.81 C 35.25 79.57 37.69 77.10 40.33 74.85 C 38.58 77.63 36.68 80.32 34.76 82.99 C 34.22 82.70 33.14 82.11 32.60 81.81 Z" />
<path fill="#ffffff" opacity="1.00" d=" M 43.83 74.27 C 46.61 74.81 49.27 75.81 51.90 76.84 C 51.08 78.74 50.18 80.61 49.27 82.47 C 47.35 82.39 45.43 82.35 43.51 82.31 C 43.51 79.63 43.47 76.93 43.83 74.27 Z" />
</svg>
