<?xml version="1.0" encoding="UTF-8" ?>
<!DOCTYPE svg PUBLIC "-//W3C//DTD SVG 1.1//EN" "http://www.w3.org/Graphics/SVG/1.1/DTD/svg11.dtd">
<svg width="100pt" height="100pt" viewBox="0 0 100 100" version="1.1" xmlns="http://www.w3.org/2000/svg">
<path fill="#c8c6c2" opacity="1.00" d=" M 14.20 17.22 C 14.71 14.47 17.57 11.61 20.52 12.55 C 22.70 13.52 24.35 15.33 26.05 16.95 C 30.98 21.90 36.06 26.69 41.02 31.61 C 42.70 30.02 44.14 26.91 46.90 27.68 C 50.76 28.55 54.69 28.15 58.59 28.38 C 62.98 31.22 67.42 35.84 66.64 41.53 C 75.31 41.49 83.97 41.56 92.64 41.50 C 92.55 49.27 92.56 57.04 92.63 64.81 C 86.63 64.80 80.64 64.76 74.64 64.86 C 77.75 69.21 81.95 72.55 85.54 76.46 C 88.84 79.55 87.13 85.93 82.77 86.94 C 79.40 87.28 76.35 85.22 73.00 85.28 C 69.48 85.22 65.94 85.90 62.43 85.45 C 60.18 84.46 58.24 82.89 55.99 81.89 C 53.67 80.71 50.71 79.64 49.94 76.87 C 49.35 74.05 49.81 71.15 49.82 68.30 C 47.93 69.41 46.04 70.51 44.15 71.61 C 45.00 73.69 46.08 75.75 46.27 78.03 C 46.36 83.04 42.08 87.89 36.97 87.94 C 31.02 88.13 26.12 83.57 23.49 78.61 C 21.15 74.40 21.46 69.42 21.75 64.79 C 16.96 64.81 12.16 64.80 7.37 64.81 C 7.44 57.04 7.45 49.27 7.36 41.50 C 15.98 41.45 24.61 41.77 33.23 41.25 C 28.03 34.97 22.25 29.23 16.80 23.17 C 15.40 21.52 13.60 19.59 14.20 17.22 M 16.10 18.06 C 16.92 20.58 18.88 22.48 20.60 24.40 C 26.26 30.29 31.78 36.30 37.17 42.43 C 28.33 44.33 19.26 43.45 10.30 43.78 C 10.34 49.97 10.35 56.16 10.28 62.34 C 15.04 62.49 19.81 62.52 24.57 62.38 C 23.78 67.21 22.79 72.43 24.98 77.06 C 27.13 81.67 31.52 86.01 36.93 85.90 C 40.98 85.86 44.32 81.99 44.25 78.04 C 43.81 75.33 42.03 73.11 40.61 70.84 C 44.76 69.16 48.30 66.37 51.15 62.94 C 51.45 67.23 51.43 71.55 52.08 75.80 C 52.39 79.27 56.66 79.01 59.13 80.09 C 60.26 81.13 61.32 82.27 62.62 83.10 C 65.70 83.79 68.90 83.21 72.03 83.37 C 75.65 83.29 79.10 84.63 82.70 84.79 C 84.93 83.86 86.14 80.65 84.49 78.68 C 80.77 73.49 74.71 70.16 72.10 64.15 C 77.57 61.53 83.79 62.73 89.63 62.61 C 89.67 56.34 89.67 50.07 89.71 43.80 C 80.26 43.61 70.80 43.46 61.36 43.90 C 62.56 42.06 63.91 40.26 64.64 38.16 C 62.93 34.58 60.01 30.34 55.55 30.51 C 51.37 30.25 47.03 29.60 43.00 31.14 C 44.19 33.19 45.44 35.22 46.71 37.22 C 46.30 37.47 45.49 37.97 45.09 38.22 C 38.72 32.14 32.36 26.06 26.15 19.83 C 24.20 17.96 22.28 15.95 19.84 14.71 C 17.73 14.44 16.34 16.11 16.10 18.06 Z" />
<path fill="#2f4364" opacity="1.00" d=" M 16.10 18.06 C 16.34 16.11 17.73 14.44 19.84 14.71 C 22.28 15.95 24.20 17.96 26.15 19.83 C 32.36 26.06 38.72 32.14 45.09 38.22 C 45.49 37.97 46.30 37.47 46.71 37.22 C 45.44 35.22 44.19 33.19 43.00 31.14 C 47.03 29.60 51.37 30.25 55.55 30.51 C 60.01 30.34 62.93 34.58 64.64 38.16 C 63.91 40.26 62.56 42.06 61.36 43.90 C 70.80 43.46 80.26 43.61 89.71 43.80 C 89.67 50.07 89.67 56.34 89.63 62.61 C 83.79 62.73 77.57 61.53 72.10 64.15 C 74.71 70.16 80.77 73.49 84.49 78.68 C 86.14 80.65 84.93 83.86 82.70 84.79 C 79.10 84.63 75.65 83.29 72.03 83.37 C 68.90 83.21 65.70 83.79 62.62 83.10 C 61.32 82.27 60.26 81.13 59.13 80.09 C 56.66 79.01 52.39 79.27 52.08 75.80 C 51.43 71.55 51.45 67.23 51.15 62.94 C 48.30 66.37 44.76 69.16 40.61 70.84 C 42.03 73.11 43.81 75.33 44.25 78.04 C 44.32 81.99 40.98 85.86 36.93 85.90 C 31.52 86.01 27.13 81.67 24.98 77.06 C 22.79 72.43 23.78 67.21 24.57 62.38 C 19.81 62.52 15.04 62.49 10.28 62.34 C 10.35 56.16 10.34 49.97 10.30 43.78 C 19.26 43.45 28.33 44.33 37.17 42.43 C 31.78 36.30 26.26 30.29 20.60 24.40 C 18.88 22.48 16.92 20.58 16.10 18.06 M 18.49 16.98 C 21.29 21.55 25.21 25.25 28.80 29.19 C 33.12 33.90 37.39 38.65 41.82 43.25 C 42.45 42.83 43.71 41.98 44.34 41.56 C 39.34 36.26 33.98 31.33 28.79 26.22 C 25.48 23.00 22.29 19.62 18.49 16.98 M 46.50 32.46 C 47.84 34.03 49.19 35.58 50.55 37.14 C 47.04 40.70 43.57 44.29 39.84 47.62 C 38.22 46.64 36.59 45.69 34.93 44.78 C 35.89 46.29 36.87 47.78 37.88 49.25 C 36.54 50.33 35.36 51.60 33.95 52.61 C 33.78 51.25 33.61 49.89 33.45 48.54 C 32.21 48.54 30.98 48.52 29.74 48.48 C 30.12 51.44 31.91 54.59 30.48 57.49 C 28.86 61.26 26.37 64.84 26.24 69.09 C 25.74 75.01 29.40 81.34 35.20 83.11 C 38.37 84.13 41.59 81.20 41.60 78.04 C 40.14 74.78 37.74 72.09 35.87 69.07 C 39.64 67.68 44.23 67.23 46.85 63.82 C 49.04 61.23 46.59 58.06 45.90 55.35 C 46.66 55.37 47.42 55.39 48.17 55.41 C 50.55 48.21 57.30 43.94 62.21 38.58 C 60.61 36.76 59.00 34.96 57.37 33.18 C 53.77 34.84 50.00 33.77 46.50 32.46 M 53.03 49.93 C 52.29 50.99 51.55 52.05 50.82 53.12 C 52.36 55.02 53.92 56.91 55.46 58.82 C 53.27 64.47 54.84 70.49 54.61 76.35 C 56.32 76.36 58.04 76.22 59.74 76.48 C 61.16 77.38 62.46 78.46 63.90 79.33 C 66.46 80.86 69.57 80.50 72.42 80.50 C 76.12 80.36 79.72 81.32 83.38 81.66 C 78.50 75.81 72.56 70.86 68.44 64.37 C 71.33 62.00 74.44 59.84 76.82 56.92 C 74.27 55.02 70.99 55.35 68.02 54.79 C 64.97 54.18 61.88 54.69 58.91 55.44 C 56.94 53.61 54.99 51.77 53.03 49.93 Z" />
<path fill="#ffffff" opacity="1.00" d=" M 18.49 16.98 C 22.29 19.62 25.48 23.00 28.79 26.22 C 33.98 31.33 39.34 36.26 44.34 41.56 C 43.71 41.98 42.45 42.83 41.82 43.25 C 37.39 38.65 33.12 33.90 28.80 29.19 C 25.21 25.25 21.29 21.55 18.49 16.98 Z" />
<path fill="#ffffff" opacity="1.00" d=" M 46.50 32.46 C 50.00 33.77 53.77 34.84 57.37 33.18 C 59.00 34.96 60.61 36.76 62.21 38.58 C 57.30 43.94 50.55 48.21 48.17 55.41 C 47.42 55.39 46.66 55.37 45.90 55.35 C 46.59 58.06 49.04 61.23 46.85 63.82 C 44.23 67.23 39.64 67.68 35.87 69.07 C 37.74 72.09 40.14 74.78 41.60 78.04 C 41.59 81.20 38.37 84.13 35.20 83.11 C 29.40 81.34 25.74 75.01 26.24 69.09 C 26.37 64.84 28.86 61.26 30.48 57.49 C 31.91 54.59 30.12 51.44 29.74 48.48 C 30.98 48.52 32.21 48.54 33.45 48.54 C 33.61 49.89 33.78 51.25 33.95 52.61 C 35.36 51.60 36.54 50.33 37.88 49.25 C 36.87 47.78 35.89 46.29 34.93 44.78 C 36.59 45.69 38.22 46.64 39.84 47.62 C 43.57 44.29 47.04 40.70 50.55 37.14 C 49.19 35.58 47.84 34.03 46.50 32.46 M 40.08 58.45 C 41.00 60.02 41.95 61.56 42.91 63.11 C 41.44 62.90 39.98 62.68 38.52 62.47 C 38.47 63.20 38.39 64.68 38.34 65.41 C 40.16 65.32 42.00 65.28 43.76 64.80 C 46.14 63.60 45.61 60.56 45.95 58.37 C 43.99 58.36 42.03 58.39 40.08 58.45 Z" />
<path fill="#ffffff" opacity="1.00" d=" M 53.03 49.93 C 54.99 51.77 56.94 53.61 58.91 55.44 C 61.88 54.69 64.97 54.18 68.02 54.79 C 70.99 55.35 74.27 55.02 76.82 56.92 C 74.44 59.84 71.33 62.00 68.44 64.37 C 72.56 70.86 78.50 75.81 83.38 81.66 C 79.72 81.32 76.12 80.36 72.42 80.50 C 69.57 80.50 66.46 80.86 63.90 79.33 C 62.46 78.46 61.16 77.38 59.74 76.48 C 58.04 76.22 56.32 76.36 54.61 76.35 C 54.84 70.49 53.27 64.47 55.46 58.82 C 53.92 56.91 52.36 55.02 50.82 53.12 C 51.55 52.05 52.29 50.99 53.03 49.93 M 63.83 69.23 C 66.13 72.57 68.55 75.82 70.98 79.07 C 72.17 78.37 73.35 77.67 74.53 76.97 C 71.20 74.09 67.84 71.15 63.83 69.23 M 61.53 72.46 C 62.42 74.89 64.14 76.77 66.50 77.84 C 65.70 75.33 63.97 73.44 61.53 72.46 Z" />
<path fill="#213659" opacity="1.00" d=" M 40.08 58.45 C 42.03 58.39 43.99 58.36 45.95 58.37 C 45.61 60.56 46.14 63.60 43.76 64.80 C 42.00 65.28 40.16 65.32 38.34 65.41 C 38.39 64.68 38.47 63.20 38.52 62.47 C 39.98 62.68 41.44 62.90 42.91 63.11 C 41.95 61.56 41.00 60.02 40.08 58.45 Z" />
<path fill="#213659" opacity="1.00" d=" M 63.83 69.23 C 67.84 71.15 71.20 74.09 74.53 76.97 C 73.35 77.67 72.17 78.37 70.98 79.07 C 68.55 75.82 66.13 72.57 63.83 69.23 Z" />
<path fill="#233559" opacity="1.00" d=" M 61.53 72.46 C 63.97 73.44 65.70 75.33 66.50 77.84 C 64.14 76.77 62.42 74.89 61.53 72.46 Z" />
</svg>
