<?xml version="1.0" encoding="UTF-8" ?>
<!DOCTYPE svg PUBLIC "-//W3C//DTD SVG 1.1//EN" "http://www.w3.org/Graphics/SVG/1.1/DTD/svg11.dtd">
<svg width="100pt" height="100pt" viewBox="0 0 100 100" version="1.1" xmlns="http://www.w3.org/2000/svg">
<path fill="#b9bdba" opacity="1.00" d=" M 30.37 16.39 C 35.74 13.37 42.15 14.45 48.04 13.74 C 55.17 12.98 62.28 13.99 69.34 14.93 C 69.00 16.21 68.66 17.49 68.32 18.76 C 78.12 18.72 87.92 18.88 97.72 18.89 C 89.58 30.65 81.35 42.36 73.10 54.04 C 75.94 58.30 79.57 62.18 81.26 67.09 C 79.58 69.92 77.31 72.60 74.42 74.24 C 69.38 75.02 64.23 74.11 59.19 74.89 C 55.57 77.98 53.47 82.45 50.66 86.23 C 47.99 82.62 45.39 78.96 42.79 75.30 C 39.42 75.27 36.05 75.27 32.68 75.22 C 31.79 70.53 31.35 65.79 31.14 61.03 C 31.09 58.87 29.79 57.08 28.63 55.37 C 19.78 43.16 11.02 30.88 2.32 18.56 C 9.58 18.32 16.84 18.73 24.09 18.61 C 26.41 18.69 28.39 17.40 30.37 16.39 M 31.51 17.32 C 31.25 18.91 30.99 20.50 30.73 22.09 C 23.44 22.16 16.15 22.18 8.87 22.17 C 16.34 32.99 24.20 43.55 31.85 54.24 C 35.73 58.90 32.18 65.59 35.34 70.45 C 38.15 71.78 41.38 71.69 44.28 72.79 C 47.04 74.60 48.70 77.61 50.71 80.16 C 52.86 77.30 54.46 73.70 57.66 71.85 C 62.66 70.71 67.87 71.91 72.91 70.99 C 75.34 70.37 77.30 68.71 79.37 67.38 C 76.56 62.40 73.31 57.68 69.45 53.46 C 76.53 42.94 84.00 32.69 91.05 22.15 C 82.41 22.15 73.76 22.24 65.12 22.03 C 65.35 20.30 65.59 18.57 65.82 16.84 C 54.45 14.55 42.92 16.59 31.51 17.32 Z" />
<path fill="#8a1b6c" opacity="1.00" d=" M 31.51 17.32 C 42.92 16.59 54.45 14.55 65.82 16.84 C 65.59 18.57 65.35 20.30 65.12 22.03 C 73.76 22.24 82.41 22.15 91.05 22.15 C 84.00 32.69 76.53 42.94 69.45 53.46 C 73.31 57.68 76.56 62.40 79.37 67.38 C 77.30 68.71 75.34 70.37 72.91 70.99 C 67.87 71.91 62.66 70.71 57.66 71.85 C 54.46 73.70 52.86 77.30 50.71 80.16 C 48.70 77.61 47.04 74.60 44.28 72.79 C 41.38 71.69 38.15 71.78 35.34 70.45 C 32.18 65.59 35.73 58.90 31.85 54.24 C 24.20 43.55 16.34 32.99 8.87 22.17 C 16.15 22.18 23.44 22.16 30.73 22.09 C 30.99 20.50 31.25 18.91 31.51 17.32 M 33.10 19.07 C 33.52 21.64 33.95 24.22 34.38 26.80 C 42.58 28.19 51.21 29.40 59.35 27.09 C 61.66 25.22 61.93 21.69 63.10 19.05 C 53.16 17.53 43.08 18.62 33.10 19.07 M 64.05 23.37 C 63.79 23.72 63.28 24.42 63.02 24.77 C 64.86 25.83 66.71 26.87 68.55 27.93 C 68.47 33.72 66.62 40.11 61.23 43.09 C 54.65 44.82 47.80 43.22 41.11 43.41 C 37.26 44.36 33.87 46.63 30.04 47.69 C 32.64 45.50 35.33 43.41 37.79 41.06 C 34.74 41.90 31.53 42.97 29.40 45.44 C 29.41 47.72 30.72 49.68 31.60 51.70 C 34.55 50.33 37.48 48.30 40.89 48.63 C 45.08 48.80 49.23 49.47 53.33 50.34 C 46.54 50.61 39.39 49.81 33.26 53.41 C 33.74 54.18 34.71 55.72 35.20 56.49 C 36.49 55.00 37.78 53.51 39.07 52.02 C 46.30 52.64 53.95 55.11 60.93 52.01 C 63.44 50.89 66.79 50.03 67.68 47.06 C 69.76 40.01 71.12 32.70 70.77 25.32 C 68.53 24.68 66.28 24.03 64.05 23.37 M 77.47 25.07 C 78.68 27.17 79.78 29.34 80.76 31.56 C 82.08 29.49 83.45 27.45 84.83 25.41 C 82.37 25.33 79.92 25.22 77.47 25.07 M 15.45 25.70 C 17.50 28.84 19.60 31.94 21.74 35.02 C 21.51 32.74 21.26 30.47 21.01 28.20 C 24.38 28.02 27.75 27.80 31.08 27.26 C 26.16 25.07 20.69 25.50 15.45 25.70 M 72.36 25.96 C 72.75 32.34 71.47 38.55 69.20 44.49 C 70.11 43.30 71.02 42.11 71.82 40.84 C 74.74 36.57 73.95 31.14 74.69 26.27 C 74.11 26.19 72.94 26.04 72.36 25.96 M 35.49 29.12 C 37.42 32.51 40.19 35.27 43.22 37.69 C 41.85 38.41 40.48 39.13 39.11 39.85 C 44.83 40.99 50.66 41.50 56.49 41.23 C 56.59 37.55 56.72 33.87 56.78 30.19 C 53.75 30.75 50.68 31.87 47.56 31.29 C 43.52 30.70 39.54 29.71 35.49 29.12 M 35.51 36.17 C 34.46 37.82 37.30 39.32 38.30 37.80 C 39.34 36.17 36.50 34.64 35.51 36.17 M 35.63 66.44 C 38.60 66.71 41.57 66.95 44.53 67.32 C 41.95 67.71 39.35 67.99 36.75 68.26 C 36.77 68.69 36.81 69.53 36.83 69.96 C 38.93 69.99 41.03 70.03 43.13 70.08 C 44.07 68.99 45.01 67.89 45.95 66.79 C 50.00 68.79 54.43 69.91 58.96 69.55 C 64.91 69.13 71.81 70.74 76.68 66.36 C 70.06 66.77 63.47 67.79 56.82 67.22 C 62.87 66.67 69.24 67.04 74.79 64.11 C 73.66 62.58 72.58 61.02 71.32 59.60 C 69.07 56.77 65.13 56.95 61.93 56.07 C 57.15 54.87 52.71 57.71 48.44 59.39 C 49.56 58.23 50.71 57.09 51.86 55.95 C 47.80 55.66 43.75 55.28 39.71 54.78 C 37.47 58.31 36.07 62.28 35.63 66.44 Z" />
<path fill="#ffffff" opacity="1.00" d=" M 33.10 19.07 C 43.08 18.62 53.16 17.53 63.10 19.05 C 61.93 21.69 61.66 25.22 59.35 27.09 C 51.21 29.40 42.58 28.19 34.38 26.80 C 33.95 24.22 33.52 21.64 33.10 19.07 Z" />
<path fill="#ffffff" opacity="1.00" d=" M 64.05 23.37 C 66.28 24.03 68.53 24.68 70.77 25.32 C 71.12 32.70 69.76 40.01 67.68 47.06 C 66.79 50.03 63.44 50.89 60.93 52.01 C 53.95 55.11 46.30 52.64 39.07 52.02 C 37.78 53.51 36.49 55.00 35.20 56.49 C 34.71 55.72 33.74 54.18 33.26 53.41 C 39.39 49.81 46.54 50.61 53.33 50.34 C 49.23 49.47 45.08 48.80 40.89 48.63 C 37.48 48.30 34.55 50.33 31.60 51.70 C 30.72 49.68 29.41 47.72 29.40 45.44 C 31.53 42.97 34.74 41.90 37.79 41.06 C 35.33 43.41 32.64 45.50 30.04 47.69 C 33.87 46.63 37.26 44.36 41.11 43.41 C 47.80 43.22 54.65 44.82 61.23 43.09 C 66.62 40.11 68.47 33.72 68.55 27.93 C 66.71 26.87 64.86 25.83 63.02 24.77 C 63.28 24.42 63.79 23.72 64.05 23.37 Z" />
<path fill="#ffffff" opacity="1.00" d=" M 77.47 25.07 C 79.92 25.22 82.37 25.33 84.83 25.41 C 83.45 27.45 82.08 29.49 80.76 31.56 C 79.78 29.34 78.68 27.17 77.47 25.07 Z" />
<path fill="#ffffff" opacity="1.00" d=" M 15.45 25.70 C 20.69 25.50 26.16 25.07 31.08 27.26 C 27.75 27.80 24.38 28.02 21.01 28.20 C 21.26 30.47 21.51 32.74 21.74 35.02 C 19.60 31.94 17.50 28.84 15.45 25.70 Z" />
<path fill="#ffffff" opacity="1.00" d=" M 72.36 25.96 C 72.94 26.04 74.11 26.19 74.69 26.27 C 73.95 31.14 74.74 36.57 71.82 40.84 C 71.02 42.11 70.11 43.30 69.20 44.49 C 71.47 38.55 72.75 32.34 72.36 25.96 Z" />
<path fill="#ffffff" opacity="1.00" d=" M 35.49 29.12 C 39.54 29.71 43.52 30.70 47.56 31.29 C 50.68 31.87 53.75 30.75 56.78 30.19 C 56.72 33.87 56.59 37.55 56.49 41.23 C 50.66 41.50 44.83 40.99 39.11 39.85 C 40.48 39.13 41.85 38.41 43.22 37.69 C 40.19 35.27 37.42 32.51 35.49 29.12 Z" />
<path fill="#e8d2e2" opacity="1.00" d=" M 35.51 36.17 C 36.50 34.64 39.34 36.17 38.30 37.80 C 37.30 39.32 34.46 37.82 35.51 36.17 Z" />
<path fill="#ffffff" opacity="1.00" d=" M 35.63 66.44 C 36.07 62.28 37.47 58.31 39.71 54.78 C 43.75 55.28 47.80 55.66 51.86 55.95 C 50.71 57.09 49.56 58.23 48.44 59.39 C 52.71 57.71 57.15 54.87 61.93 56.07 C 65.13 56.95 69.07 56.77 71.32 59.60 C 72.58 61.02 73.66 62.58 74.79 64.11 C 69.24 67.04 62.87 66.67 56.82 67.22 C 63.47 67.79 70.06 66.77 76.68 66.36 C 71.81 70.74 64.91 69.13 58.96 69.55 C 54.43 69.91 50.00 68.79 45.95 66.79 C 45.01 67.89 44.07 68.99 43.13 70.08 C 41.03 70.03 38.93 69.99 36.83 69.96 C 36.81 69.53 36.77 68.69 36.75 68.26 C 39.35 67.99 41.95 67.71 44.53 67.32 C 41.57 66.95 38.60 66.71 35.63 66.44 M 39.02 57.18 C 41.44 60.27 45.11 61.29 48.89 60.78 C 45.62 59.51 42.38 58.18 39.02 57.18 Z" />
<path fill="#8a1b6c" opacity="1.00" d=" M 39.02 57.18 C 42.38 58.18 45.62 59.51 48.89 60.78 C 45.11 61.29 41.44 60.27 39.02 57.18 Z" />
</svg>
