<?xml version="1.0" encoding="UTF-8" ?>
<!DOCTYPE svg PUBLIC "-//W3C//DTD SVG 1.1//EN" "http://www.w3.org/Graphics/SVG/1.1/DTD/svg11.dtd">
<svg width="100pt" height="100pt" viewBox="0 0 100 100" version="1.1" xmlns="http://www.w3.org/2000/svg">
<path fill="#b8c2c1" opacity="1.00" d=" M 46.24 17.20 C 47.81 18.24 49.35 19.32 50.93 20.35 C 52.57 19.08 54.15 17.65 56.06 16.76 C 60.11 17.16 63.19 20.09 66.91 21.41 C 68.81 20.15 70.38 18.50 72.05 16.96 C 74.67 18.76 77.26 20.62 80.06 22.14 C 80.07 26.44 80.67 30.71 80.75 35.00 C 79.58 50.85 80.42 66.75 80.12 82.63 C 59.77 82.59 39.42 82.57 19.07 82.64 C 19.07 62.18 19.08 41.73 19.07 21.27 C 27.11 21.33 35.16 21.23 43.21 21.35 C 44.23 19.97 45.24 18.59 46.24 17.20 M 51.73 22.66 C 50.07 21.74 48.43 20.76 46.77 19.84 C 45.67 21.42 44.60 23.03 43.51 24.63 C 36.59 24.68 29.67 24.67 22.76 24.75 C 22.62 42.89 22.62 61.03 22.76 79.17 C 40.86 79.31 58.96 79.27 77.06 79.17 C 77.68 65.74 75.66 52.09 78.76 38.87 C 80.41 31.44 77.61 23.72 72.24 18.49 C 70.76 20.76 69.35 23.06 67.95 25.37 C 64.61 23.69 61.91 21.04 58.72 19.15 C 55.75 17.69 53.76 21.09 51.73 22.66 Z" />
<path fill="#b61c2e" opacity="1.00" d=" M 51.73 22.66 C 53.76 21.09 55.75 17.69 58.72 19.15 C 61.91 21.04 64.61 23.69 67.95 25.37 C 69.35 23.06 70.76 20.76 72.24 18.49 C 77.61 23.72 80.41 31.44 78.76 38.87 C 75.66 52.09 77.68 65.74 77.06 79.17 C 58.96 79.27 40.86 79.31 22.76 79.17 C 22.62 61.03 22.62 42.89 22.76 24.75 C 29.67 24.67 36.59 24.68 43.51 24.63 C 44.60 23.03 45.67 21.42 46.77 19.84 C 48.43 20.76 50.07 21.74 51.73 22.66 M 54.20 23.00 C 56.64 24.36 59.30 25.27 61.94 26.17 C 61.51 23.93 60.77 21.03 57.98 20.88 C 56.16 20.10 55.20 21.83 54.20 23.00 M 46.64 21.60 C 45.83 24.94 47.28 28.11 47.58 31.38 C 46.01 32.18 44.32 32.70 42.65 33.25 C 42.43 33.64 41.98 34.43 41.76 34.83 C 43.47 35.85 45.20 36.86 46.92 37.87 C 46.59 39.15 46.26 40.43 45.94 41.71 C 47.60 42.69 49.26 43.67 50.89 44.71 C 51.97 43.62 53.05 42.54 54.15 41.46 C 55.19 44.16 56.83 46.90 56.42 49.89 C 55.38 53.37 52.62 55.92 50.57 58.82 C 54.78 58.88 59.15 58.90 63.06 57.12 C 71.45 53.71 77.17 45.03 77.30 36.00 C 77.80 30.65 75.58 25.58 72.67 21.22 C 70.98 23.60 70.02 26.84 67.38 28.36 C 62.59 29.66 58.29 26.18 53.90 24.84 C 53.59 26.92 53.28 29.01 52.96 31.08 C 52.09 27.20 50.46 23.37 46.64 21.60 M 40.01 51.68 C 42.00 53.16 44.00 54.61 46.01 56.07 C 47.24 52.59 48.22 49.04 49.14 45.47 C 48.02 44.98 46.90 44.49 45.77 44.00 C 43.86 46.57 41.89 49.09 40.01 51.68 M 24.89 53.17 C 24.86 53.93 24.81 55.45 24.79 56.21 C 27.89 57.45 31.18 58.38 34.56 57.86 C 31.48 56.02 28.18 54.58 24.89 53.17 M 38.36 53.35 C 38.38 57.16 40.19 60.54 42.29 63.60 C 43.23 61.31 44.12 59.00 45.06 56.72 C 42.84 55.56 40.62 54.41 38.36 53.35 M 33.09 66.99 C 35.56 67.74 38.04 68.47 40.53 69.16 C 40.56 64.98 38.96 61.09 37.14 57.41 C 35.73 60.58 34.38 63.77 33.09 66.99 M 45.16 62.96 C 44.91 63.36 44.42 64.16 44.17 64.57 C 54.40 67.85 64.54 71.50 75.03 73.92 C 65.16 70.04 55.01 66.90 45.16 62.96 M 24.84 63.88 C 24.96 64.77 25.19 66.55 25.31 67.44 C 26.98 67.16 28.65 66.90 30.32 66.57 C 28.50 65.66 26.68 64.76 24.84 63.88 M 30.95 68.64 C 31.87 70.51 32.84 72.35 33.80 74.21 C 32.49 73.39 31.18 72.57 29.88 71.76 C 29.57 72.81 29.27 73.85 28.98 74.90 C 30.74 75.87 32.49 76.85 34.26 77.78 C 35.63 75.56 36.90 73.28 38.20 71.02 C 35.80 70.18 33.38 69.37 30.95 68.64 M 39.53 72.27 C 43.47 75.27 48.34 76.67 53.22 77.08 C 48.94 74.80 44.37 72.95 39.53 72.27 Z" />
<path fill="#ffffff" opacity="1.00" d=" M 54.20 23.00 C 55.20 21.83 56.16 20.10 57.98 20.88 C 60.77 21.03 61.51 23.93 61.94 26.17 C 59.30 25.27 56.64 24.36 54.20 23.00 Z" />
<path fill="#ffffff" opacity="1.00" d=" M 46.64 21.60 C 50.46 23.37 52.09 27.20 52.96 31.08 C 53.28 29.01 53.59 26.92 53.90 24.84 C 58.29 26.18 62.59 29.66 67.38 28.36 C 70.02 26.84 70.98 23.60 72.67 21.22 C 75.58 25.58 77.80 30.65 77.30 36.00 C 77.17 45.03 71.45 53.71 63.06 57.12 C 59.15 58.90 54.78 58.88 50.57 58.82 C 52.62 55.92 55.38 53.37 56.42 49.89 C 56.83 46.90 55.19 44.16 54.15 41.46 C 53.05 42.54 51.97 43.62 50.89 44.71 C 49.26 43.67 47.60 42.69 45.94 41.71 C 46.26 40.43 46.59 39.15 46.92 37.87 C 45.20 36.86 43.47 35.85 41.76 34.83 C 41.98 34.43 42.43 33.64 42.65 33.25 C 44.32 32.70 46.01 32.18 47.58 31.38 C 47.28 28.11 45.83 24.94 46.64 21.60 M 59.93 29.25 C 60.38 31.69 61.04 34.09 61.79 36.45 C 58.87 37.04 56.26 38.47 54.32 40.75 C 58.06 40.13 61.74 39.22 65.42 38.30 C 63.96 35.08 62.31 31.91 59.93 29.25 M 69.15 51.22 C 72.44 48.27 74.71 44.35 75.21 39.91 C 73.01 43.58 71.02 47.38 69.15 51.22 M 58.24 54.86 C 56.62 55.31 57.39 57.97 59.02 57.24 C 60.63 56.80 59.86 54.11 58.24 54.86 Z" />
<path fill="#b61c2e" opacity="1.00" d=" M 59.93 29.25 C 62.31 31.91 63.96 35.08 65.42 38.30 C 61.74 39.22 58.06 40.13 54.32 40.75 C 56.26 38.47 58.87 37.04 61.79 36.45 C 61.04 34.09 60.38 31.69 59.93 29.25 Z" />
<path fill="#b61c2e" opacity="1.00" d=" M 69.15 51.22 C 71.02 47.38 73.01 43.58 75.21 39.91 C 74.71 44.35 72.44 48.27 69.15 51.22 Z" />
<path fill="#ffffff" opacity="1.00" d=" M 40.01 51.68 C 41.89 49.09 43.86 46.57 45.77 44.00 C 46.90 44.49 48.02 44.98 49.14 45.47 C 48.22 49.04 47.24 52.59 46.01 56.07 C 44.00 54.61 42.00 53.16 40.01 51.68 Z" />
<path fill="#ffffff" opacity="1.00" d=" M 24.89 53.17 C 28.18 54.58 31.48 56.02 34.56 57.86 C 31.18 58.38 27.89 57.45 24.79 56.21 C 24.81 55.45 24.86 53.93 24.89 53.17 Z" />
<path fill="#ffffff" opacity="1.00" d=" M 38.36 53.35 C 40.62 54.41 42.84 55.56 45.06 56.72 C 44.12 59.00 43.23 61.31 42.29 63.60 C 40.19 60.54 38.38 57.16 38.36 53.35 Z" />
<path fill="#b61c2e" opacity="1.00" d=" M 58.24 54.86 C 59.86 54.11 60.63 56.80 59.02 57.24 C 57.39 57.97 56.62 55.31 58.24 54.86 Z" />
<path fill="#ffffff" opacity="1.00" d=" M 33.09 66.99 C 34.38 63.77 35.73 60.58 37.14 57.41 C 38.96 61.09 40.56 64.98 40.53 69.16 C 38.04 68.47 35.56 67.74 33.09 66.99 Z" />
<path fill="#ffffff" opacity="1.00" d=" M 45.16 62.96 C 55.01 66.90 65.16 70.04 75.03 73.92 C 64.54 71.50 54.40 67.85 44.17 64.57 C 44.42 64.16 44.91 63.36 45.16 62.96 Z" />
<path fill="#ffffff" opacity="1.00" d=" M 24.84 63.88 C 26.68 64.76 28.50 65.66 30.32 66.57 C 28.65 66.90 26.98 67.16 25.31 67.44 C 25.19 66.55 24.96 64.77 24.84 63.88 Z" />
<path fill="#ffffff" opacity="1.00" d=" M 30.95 68.64 C 33.38 69.37 35.80 70.18 38.20 71.02 C 36.90 73.28 35.63 75.56 34.26 77.78 C 32.49 76.85 30.74 75.87 28.98 74.90 C 29.27 73.85 29.57 72.81 29.88 71.76 C 31.18 72.57 32.49 73.39 33.80 74.21 C 32.84 72.35 31.87 70.51 30.95 68.64 Z" />
<path fill="#ffffff" opacity="1.00" d=" M 39.53 72.27 C 44.37 72.95 48.94 74.80 53.22 77.08 C 48.34 76.67 43.47 75.27 39.53 72.27 Z" />
</svg>
