<?xml version="1.0" encoding="UTF-8" ?>
<!DOCTYPE svg PUBLIC "-//W3C//DTD SVG 1.1//EN" "http://www.w3.org/Graphics/SVG/1.1/DTD/svg11.dtd">
<svg width="100pt" height="100pt" viewBox="0 0 100 100" version="1.1" xmlns="http://www.w3.org/2000/svg">
<path fill="#b8b8b8" opacity="1.00" d=" M 27.01 28.10 C 34.49 19.31 42.01 10.55 49.65 1.89 C 63.25 17.67 76.78 33.52 90.54 49.16 C 76.85 64.90 63.19 80.66 49.66 96.54 C 47.05 93.55 44.46 90.54 41.82 87.57 C 41.47 89.17 41.12 90.76 40.77 92.36 C 37.61 92.13 33.69 93.45 31.25 90.78 C 28.74 88.66 28.54 85.15 27.71 82.20 C 26.67 78.02 24.73 74.13 23.89 69.90 C 23.36 67.47 22.56 65.05 20.85 63.18 C 16.86 58.50 12.76 53.92 8.77 49.24 C 10.42 47.13 12.64 45.28 13.54 42.70 C 13.49 39.29 11.43 36.31 11.07 32.95 C 10.52 28.80 9.89 24.17 12.26 20.43 C 14.34 18.33 17.35 16.50 20.40 17.51 C 25.32 18.18 26.57 23.98 27.01 28.10 M 26.51 33.73 C 24.89 29.69 24.28 25.33 22.57 21.33 C 20.63 17.34 13.86 19.11 13.14 23.20 C 11.44 29.87 14.69 36.20 16.60 42.40 C 17.61 45.12 14.97 47.26 13.82 49.45 C 16.56 52.94 19.63 56.15 22.35 59.66 C 25.84 64.13 26.01 70.05 27.89 75.22 C 29.44 79.46 30.31 83.93 31.94 88.15 C 32.85 91.19 36.60 90.71 39.05 91.42 C 40.84 86.86 40.02 82.08 38.02 77.76 C 41.88 82.19 45.69 86.68 49.67 91.01 C 61.69 77.05 73.77 63.16 85.76 49.17 C 73.73 35.30 61.84 21.31 49.71 7.53 C 41.57 15.90 34.54 25.27 26.51 33.73 Z" />
<path fill="#b61c2e" opacity="1.00" d=" M 26.51 33.73 C 34.54 25.27 41.57 15.90 49.71 7.53 C 61.84 21.31 73.73 35.30 85.76 49.17 C 73.77 63.16 61.69 77.05 49.67 91.01 C 45.69 86.68 41.88 82.19 38.02 77.76 C 40.02 82.08 40.84 86.86 39.05 91.42 C 36.60 90.71 32.85 91.19 31.94 88.15 C 30.31 83.93 29.44 79.46 27.89 75.22 C 26.01 70.05 25.84 64.13 22.35 59.66 C 19.63 56.15 16.56 52.94 13.82 49.45 C 14.97 47.26 17.61 45.12 16.60 42.40 C 14.69 36.20 11.44 29.87 13.14 23.20 C 13.86 19.11 20.63 17.34 22.57 21.33 C 24.28 25.33 24.89 29.69 26.51 33.73 M 42.19 19.15 C 41.14 20.25 40.08 21.34 39.01 22.43 C 41.51 26.00 44.75 29.02 48.87 30.60 C 47.56 31.46 46.27 32.33 44.99 33.21 C 42.59 32.52 40.19 31.83 37.77 31.26 C 40.08 32.58 42.39 34.04 45.01 34.65 C 46.85 34.11 48.50 33.10 50.20 32.23 C 54.27 35.00 58.28 38.11 63.08 39.48 C 68.30 40.94 72.87 44.12 78.21 45.21 C 76.87 43.14 75.70 40.91 73.94 39.16 C 71.80 37.49 69.17 36.61 67.02 34.96 C 65.06 33.60 63.43 31.74 61.23 30.75 C 56.89 29.12 51.97 30.34 47.73 28.33 C 45.60 27.43 43.90 25.81 42.18 24.31 C 45.49 25.19 48.79 26.11 52.16 26.70 C 57.02 27.46 61.47 29.72 66.33 30.43 C 63.92 28.89 61.48 27.37 58.88 26.18 C 55.67 24.70 52.06 24.51 48.79 23.22 C 46.42 22.16 44.37 20.54 42.19 19.15 M 15.89 24.75 C 15.20 28.35 16.07 32.11 17.54 35.41 C 22.57 47.69 26.46 60.40 29.96 73.18 C 32.03 78.27 32.59 84.01 35.87 88.56 C 36.40 87.06 37.07 85.59 37.33 84.01 C 36.93 81.62 35.57 79.54 34.57 77.37 C 30.33 69.60 30.31 60.42 26.78 52.37 C 30.22 54.50 33.76 56.95 37.95 57.10 C 43.02 57.46 48.25 56.67 53.09 58.65 C 53.24 55.64 52.92 52.63 52.37 49.68 C 47.86 50.82 43.14 53.54 38.44 51.73 C 35.06 50.68 31.62 49.79 28.29 48.59 C 24.75 47.45 22.87 43.73 21.78 40.44 C 21.79 37.32 23.34 34.26 22.42 31.12 C 21.60 28.06 22.05 23.88 18.89 22.11 C 17.66 22.64 16.08 23.20 15.89 24.75 M 34.47 27.36 C 34.56 29.44 34.41 31.56 34.86 33.61 C 35.74 36.36 37.94 38.38 39.23 40.92 C 40.38 43.19 41.07 45.65 41.90 48.05 C 41.25 44.16 40.43 40.19 38.14 36.89 C 36.48 34.59 36.25 31.75 36.45 29.02 C 35.79 28.46 35.13 27.91 34.47 27.36 M 44.32 48.69 C 46.21 46.45 48.21 44.30 50.52 42.49 C 52.32 45.86 54.05 49.51 57.05 51.98 C 61.03 53.91 65.69 54.12 69.45 56.59 C 71.63 58.43 74.08 56.18 76.26 55.48 C 74.74 53.47 73.25 51.44 71.85 49.34 C 70.87 50.55 70.29 52.49 68.48 52.64 C 65.39 53.00 62.36 52.07 59.33 51.61 C 59.26 50.57 59.17 49.54 59.09 48.51 C 60.59 48.21 62.10 47.90 63.60 47.61 C 58.70 46.94 57.38 40.04 52.12 40.97 C 47.70 40.95 45.28 44.88 44.32 48.69 M 54.16 57.64 C 56.16 58.70 58.22 59.63 60.31 60.52 C 60.36 61.77 60.42 63.02 60.53 64.27 C 57.67 63.03 54.92 61.55 52.26 59.93 C 55.13 62.55 57.08 66.01 56.61 70.00 C 58.97 70.42 61.27 71.20 63.67 71.38 C 66.63 69.09 69.34 65.51 68.52 61.54 C 67.88 59.94 66.75 58.06 64.86 57.87 C 61.31 57.56 57.72 57.71 54.16 57.64 M 41.71 73.34 C 43.95 71.36 46.03 69.21 48.09 67.05 C 47.84 66.46 47.32 65.26 47.06 64.67 C 45.20 67.51 43.33 70.35 41.71 73.34 M 55.94 72.87 C 52.18 75.03 51.83 79.89 50.79 83.65 C 55.86 82.04 58.77 77.35 61.88 73.40 C 59.98 72.95 57.79 71.51 55.94 72.87 Z" />
<path fill="#ffffff" opacity="1.00" d=" M 42.19 19.15 C 44.37 20.54 46.42 22.16 48.79 23.22 C 52.06 24.51 55.67 24.70 58.88 26.18 C 61.48 27.37 63.92 28.89 66.33 30.43 C 61.47 29.72 57.02 27.46 52.16 26.70 C 48.79 26.11 45.49 25.19 42.18 24.31 C 43.90 25.81 45.60 27.43 47.73 28.33 C 51.97 30.34 56.89 29.12 61.23 30.75 C 63.43 31.74 65.06 33.60 67.02 34.96 C 69.17 36.61 71.80 37.49 73.94 39.16 C 75.70 40.91 76.87 43.14 78.21 45.21 C 72.87 44.12 68.30 40.94 63.08 39.48 C 58.28 38.11 54.27 35.00 50.20 32.23 C 48.50 33.10 46.85 34.11 45.01 34.65 C 42.39 34.04 40.08 32.58 37.77 31.26 C 40.19 31.83 42.59 32.52 44.99 33.21 C 46.27 32.33 47.56 31.46 48.87 30.60 C 44.75 29.02 41.51 26.00 39.01 22.43 C 40.08 21.34 41.14 20.25 42.19 19.15 M 52.31 31.76 C 55.90 34.57 59.66 37.27 63.93 38.95 C 62.79 36.89 62.08 34.31 60.05 32.91 C 57.61 31.89 54.90 31.97 52.31 31.76 Z" />
<path fill="#ffffff" opacity="1.00" d=" M 15.89 24.75 C 16.08 23.20 17.66 22.64 18.89 22.11 C 22.05 23.88 21.60 28.06 22.42 31.12 C 23.34 34.26 21.79 37.32 21.78 40.44 C 22.87 43.73 24.75 47.45 28.29 48.59 C 31.62 49.79 35.06 50.68 38.44 51.73 C 43.14 53.54 47.86 50.82 52.37 49.68 C 52.92 52.63 53.24 55.64 53.09 58.65 C 48.25 56.67 43.02 57.46 37.95 57.10 C 33.76 56.95 30.22 54.50 26.78 52.37 C 30.31 60.42 30.33 69.60 34.57 77.37 C 35.57 79.54 36.93 81.62 37.33 84.01 C 37.07 85.59 36.40 87.06 35.87 88.56 C 32.59 84.01 32.03 78.27 29.96 73.18 C 26.46 60.40 22.57 47.69 17.54 35.41 C 16.07 32.11 15.20 28.35 15.89 24.75 Z" />
<path fill="#ffffff" opacity="1.00" d=" M 34.47 27.36 C 35.13 27.91 35.79 28.46 36.45 29.02 C 36.25 31.75 36.48 34.59 38.14 36.89 C 40.43 40.19 41.25 44.16 41.90 48.05 C 41.07 45.65 40.38 43.19 39.23 40.92 C 37.94 38.38 35.74 36.36 34.86 33.61 C 34.41 31.56 34.56 29.44 34.47 27.36 Z" />
<path fill="#b31826" opacity="1.00" d=" M 52.31 31.76 C 54.90 31.97 57.61 31.89 60.05 32.91 C 62.08 34.31 62.79 36.89 63.93 38.95 C 59.66 37.27 55.90 34.57 52.31 31.76 Z" />
<path fill="#ffffff" opacity="1.00" d=" M 44.32 48.69 C 45.28 44.88 47.70 40.95 52.12 40.97 C 57.38 40.04 58.70 46.94 63.60 47.61 C 62.10 47.90 60.59 48.21 59.09 48.51 C 59.17 49.54 59.26 50.57 59.33 51.61 C 62.36 52.07 65.39 53.00 68.48 52.64 C 70.29 52.49 70.87 50.55 71.85 49.34 C 73.25 51.44 74.74 53.47 76.26 55.48 C 74.08 56.18 71.63 58.43 69.45 56.59 C 65.69 54.12 61.03 53.91 57.05 51.98 C 54.05 49.51 52.32 45.86 50.52 42.49 C 48.21 44.30 46.21 46.45 44.32 48.69 Z" />
<path fill="#ffffff" opacity="1.00" d=" M 54.16 57.64 C 57.72 57.71 61.31 57.56 64.86 57.87 C 66.75 58.06 67.88 59.94 68.52 61.54 C 69.34 65.51 66.63 69.09 63.67 71.38 C 61.27 71.20 58.97 70.42 56.61 70.00 C 57.08 66.01 55.13 62.55 52.26 59.93 C 54.92 61.55 57.67 63.03 60.53 64.27 C 60.42 63.02 60.36 61.77 60.31 60.52 C 58.22 59.63 56.16 58.70 54.16 57.64 M 57.07 65.11 C 59.59 66.99 62.45 68.35 65.48 69.19 C 63.47 66.49 60.32 65.36 57.07 65.11 Z" />
<path fill="#ffffff" opacity="1.00" d=" M 41.71 73.34 C 43.33 70.35 45.20 67.51 47.06 64.67 C 47.32 65.26 47.84 66.46 48.09 67.05 C 46.03 69.21 43.95 71.36 41.71 73.34 Z" />
<path fill="#b61c2e" opacity="1.00" d=" M 57.07 65.11 C 60.32 65.36 63.47 66.49 65.48 69.19 C 62.45 68.35 59.59 66.99 57.07 65.11 Z" />
<path fill="#ffffff" opacity="1.00" d=" M 55.94 72.87 C 57.79 71.51 59.98 72.95 61.88 73.40 C 58.77 77.35 55.86 82.04 50.79 83.65 C 51.83 79.89 52.18 75.03 55.94 72.87 Z" />
</svg>
