<?xml version="1.0" encoding="UTF-8" ?>
<!DOCTYPE svg PUBLIC "-//W3C//DTD SVG 1.1//EN" "http://www.w3.org/Graphics/SVG/1.1/DTD/svg11.dtd">
<svg width="100pt" height="100pt" viewBox="0 0 100 100" version="1.1" xmlns="http://www.w3.org/2000/svg">
<path fill="#b8b7b7" opacity="1.00" d=" M 10.32 50.00 C 23.43 34.57 36.76 19.33 49.97 3.98 C 51.71 5.92 53.25 8.14 55.44 9.61 C 59.54 10.56 65.01 10.58 67.20 14.85 C 68.14 19.22 67.24 24.03 70.01 27.91 C 68.57 27.31 67.12 26.71 65.68 26.11 C 65.40 22.07 66.54 17.32 64.11 13.85 C 59.49 11.77 54.07 12.48 49.41 10.33 C 43.33 16.32 38.09 23.07 32.48 29.48 C 26.67 36.35 20.58 42.99 14.93 50.00 C 26.48 63.63 37.97 77.32 50.01 90.51 C 55.32 84.96 60.15 78.96 65.20 73.18 C 71.79 65.42 78.72 57.95 85.07 49.99 C 81.71 45.66 77.87 41.74 74.38 37.53 C 72.24 35.11 71.45 31.93 70.86 28.85 C 77.79 35.27 83.44 42.93 89.68 50.00 C 76.56 65.44 63.22 80.70 50.00 96.05 C 36.78 80.69 23.43 65.45 10.32 50.00 Z" />
<path fill="#b61c2e" opacity="1.00" d=" M 32.48 29.48 C 38.09 23.07 43.33 16.32 49.41 10.33 C 54.07 12.48 59.49 11.77 64.11 13.85 C 66.54 17.32 65.40 22.07 65.68 26.11 C 67.12 26.71 68.57 27.31 70.01 27.91 L 70.72 28.20 L 70.86 28.85 C 71.45 31.93 72.24 35.11 74.38 37.53 C 77.87 41.74 81.71 45.66 85.07 49.99 C 78.72 57.95 71.79 65.42 65.20 73.18 C 60.15 78.96 55.32 84.96 50.01 90.51 C 37.97 77.32 26.48 63.63 14.93 50.00 C 20.58 42.99 26.67 36.35 32.48 29.48 M 51.74 16.16 C 53.66 18.25 55.97 19.96 57.73 22.19 C 59.02 24.44 59.48 27.07 60.77 29.32 C 63.13 31.35 66.00 32.86 67.55 35.70 C 64.03 38.91 60.83 42.49 58.55 46.70 C 55.35 52.78 47.31 53.09 43.38 58.49 C 41.24 57.93 39.09 57.35 36.94 56.82 C 37.89 60.50 40.96 62.54 44.24 63.99 C 46.63 62.02 48.56 59.48 48.72 56.27 C 49.44 57.16 50.15 58.05 50.87 58.95 C 54.94 54.65 60.12 51.52 63.90 46.95 C 66.08 43.64 67.98 39.93 71.59 37.95 C 70.20 35.44 68.93 32.86 68.05 30.13 C 65.01 29.31 62.46 27.43 60.61 24.89 C 61.26 24.79 62.57 24.59 63.22 24.49 C 63.33 23.54 63.44 22.60 63.55 21.65 C 62.32 20.89 61.08 20.12 59.85 19.35 C 61.08 19.04 62.31 18.73 63.55 18.42 C 63.63 17.80 63.78 16.55 63.86 15.93 C 60.09 13.44 55.49 13.82 51.74 16.16 M 39.61 22.61 C 42.98 22.56 46.36 22.49 49.72 22.87 C 46.29 26.78 41.75 29.87 39.83 34.92 C 43.37 30.98 47.64 27.82 52.46 25.61 C 53.09 31.15 51.30 36.77 53.15 42.21 C 53.32 38.28 53.59 34.32 54.72 30.53 C 55.41 30.75 56.80 31.18 57.50 31.39 C 57.87 34.53 58.32 37.69 59.46 40.66 C 59.72 36.91 60.23 32.93 58.65 29.38 C 56.86 24.13 52.05 20.87 49.05 16.37 C 46.26 18.96 42.92 20.79 39.61 22.61 M 31.00 45.00 C 29.56 47.42 27.99 50.02 28.00 52.92 C 28.10 55.42 31.02 56.11 32.67 57.44 C 31.60 55.64 30.35 53.93 29.62 51.95 C 30.98 46.22 35.38 41.67 40.89 39.73 C 37.26 40.61 33.21 41.73 31.00 45.00 M 69.88 39.99 C 68.13 47.05 73.70 52.55 76.00 58.69 C 76.45 58.22 77.34 57.28 77.79 56.81 C 75.25 51.17 74.18 44.66 69.88 39.99 M 40.70 43.61 C 36.30 46.56 40.09 52.17 40.34 56.18 C 41.56 56.20 42.79 56.21 44.01 56.22 C 44.14 52.82 45.03 49.52 46.72 46.55 C 47.14 48.36 47.51 50.18 47.84 52.01 C 48.58 51.51 49.31 51.02 50.05 50.52 C 48.30 47.11 45.23 42.05 40.70 43.61 M 28.59 64.01 C 29.01 64.59 29.85 65.77 30.27 66.36 C 32.36 64.93 34.45 63.50 36.58 62.12 C 36.25 60.30 35.91 58.49 35.55 56.68 C 32.91 58.80 30.74 61.41 28.59 64.01 M 51.21 62.64 C 49.79 63.07 49.37 65.31 50.37 66.35 C 52.27 67.05 53.11 62.98 51.21 62.64 M 37.74 69.18 C 38.21 72.60 38.76 76.14 40.90 78.97 C 43.60 77.26 46.30 74.02 49.80 74.85 C 52.33 76.81 53.83 79.72 55.81 82.18 C 52.93 77.57 49.54 73.09 48.99 67.48 C 47.77 67.56 46.55 67.66 45.33 67.76 C 45.38 66.67 45.41 65.57 45.44 64.48 C 42.71 65.75 40.22 67.47 37.74 69.18 Z" />
<path fill="#ffffff" opacity="1.00" d=" M 51.74 16.16 C 55.49 13.82 60.09 13.44 63.86 15.93 C 63.78 16.55 63.63 17.80 63.55 18.42 C 62.31 18.73 61.08 19.04 59.85 19.35 C 61.08 20.12 62.32 20.89 63.55 21.65 C 63.44 22.60 63.33 23.54 63.22 24.49 C 62.57 24.59 61.26 24.79 60.61 24.89 C 62.46 27.43 65.01 29.31 68.05 30.13 C 68.93 32.86 70.20 35.44 71.59 37.95 C 67.98 39.93 66.08 43.64 63.90 46.95 C 60.12 51.52 54.94 54.65 50.87 58.95 C 50.15 58.05 49.44 57.16 48.72 56.27 C 48.56 59.48 46.63 62.02 44.24 63.99 C 40.96 62.54 37.89 60.50 36.94 56.82 C 39.09 57.35 41.24 57.93 43.38 58.49 C 47.31 53.09 55.35 52.78 58.55 46.70 C 60.83 42.49 64.03 38.91 67.55 35.70 C 66.00 32.86 63.13 31.35 60.77 29.32 C 59.48 27.07 59.02 24.44 57.73 22.19 C 55.97 19.96 53.66 18.25 51.74 16.16 Z" />
<path fill="#ffffff" opacity="1.00" d=" M 39.61 22.61 C 42.92 20.79 46.26 18.96 49.05 16.37 C 52.05 20.87 56.86 24.13 58.65 29.38 C 60.23 32.93 59.72 36.91 59.46 40.66 C 58.32 37.69 57.87 34.53 57.50 31.39 C 56.80 31.18 55.41 30.75 54.72 30.53 C 53.59 34.32 53.32 38.28 53.15 42.21 C 51.30 36.77 53.09 31.15 52.46 25.61 C 47.64 27.82 43.37 30.98 39.83 34.92 C 41.75 29.87 46.29 26.78 49.72 22.87 C 46.36 22.49 42.98 22.56 39.61 22.61 Z" />
<path fill="#ffffff" opacity="1.00" d=" M 31.00 45.00 C 33.21 41.73 37.26 40.61 40.89 39.73 C 35.38 41.67 30.98 46.22 29.62 51.95 C 30.35 53.93 31.60 55.64 32.67 57.44 C 31.02 56.11 28.10 55.42 28.00 52.92 C 27.99 50.02 29.56 47.42 31.00 45.00 Z" />
<path fill="#ffffff" opacity="1.00" d=" M 69.88 39.99 C 74.18 44.66 75.25 51.17 77.79 56.81 C 77.34 57.28 76.45 58.22 76.00 58.69 C 73.70 52.55 68.13 47.05 69.88 39.99 Z" />
<path fill="#ffffff" opacity="1.00" d=" M 40.70 43.61 C 45.23 42.05 48.30 47.11 50.05 50.52 C 49.31 51.02 48.58 51.51 47.84 52.01 C 47.51 50.18 47.14 48.36 46.72 46.55 C 45.03 49.52 44.14 52.82 44.01 56.22 C 42.79 56.21 41.56 56.20 40.34 56.18 C 40.09 52.17 36.30 46.56 40.70 43.61 Z" />
<path fill="#ffffff" opacity="1.00" d=" M 28.59 64.01 C 30.74 61.41 32.91 58.80 35.55 56.68 C 35.91 58.49 36.25 60.30 36.58 62.12 C 34.45 63.50 32.36 64.93 30.27 66.36 C 29.85 65.77 29.01 64.59 28.59 64.01 Z" />
<path fill="#d8848e" opacity="1.00" d=" M 51.21 62.64 C 53.11 62.98 52.27 67.05 50.37 66.35 C 49.37 65.31 49.79 63.07 51.21 62.64 Z" />
<path fill="#ffffff" opacity="1.00" d=" M 37.74 69.18 C 40.22 67.47 42.71 65.75 45.44 64.48 C 45.41 65.57 45.38 66.67 45.33 67.76 C 46.55 67.66 47.77 67.56 48.99 67.48 C 49.54 73.09 52.93 77.57 55.81 82.18 C 53.83 79.72 52.33 76.81 49.80 74.85 C 46.30 74.02 43.60 77.26 40.90 78.97 C 38.76 76.14 38.21 72.60 37.74 69.18 M 41.70 75.03 C 44.24 74.31 46.57 73.02 48.36 71.06 C 45.82 71.77 43.49 73.07 41.70 75.03 Z" />
<path fill="#b61c2e" opacity="1.00" d=" M 41.70 75.03 C 43.49 73.07 45.82 71.77 48.36 71.06 C 46.57 73.02 44.24 74.31 41.70 75.03 Z" />
</svg>
