<?xml version="1.0" encoding="UTF-8" ?>
<!DOCTYPE svg PUBLIC "-//W3C//DTD SVG 1.1//EN" "http://www.w3.org/Graphics/SVG/1.1/DTD/svg11.dtd">
<svg width="100pt" height="100pt" viewBox="0 0 100 100" version="1.1" xmlns="http://www.w3.org/2000/svg">
<path fill="#ffffff" opacity="1.00" d=" M 26.20 20.20 C 32.63 15.01 40.78 12.25 48.97 11.64 C 62.03 11.51 74.67 18.29 82.07 29.01 C 85.56 28.81 89.05 28.65 92.55 28.55 C 90.29 31.11 87.96 33.60 85.67 36.13 C 89.39 46.61 88.94 58.64 83.40 68.40 C 75.21 83.93 55.47 91.94 38.78 86.42 C 35.39 85.62 32.47 83.14 29.05 82.74 C 22.47 85.17 16.09 88.19 9.31 90.08 C 12.14 84.11 15.59 78.47 19.31 73.01 C 15.26 66.73 12.21 59.63 11.93 52.07 C 11.20 39.97 16.67 27.70 26.20 20.20 M 28.64 22.66 C 19.93 29.32 15.15 40.18 15.11 51.05 C 22.07 49.48 28.62 46.32 35.73 45.41 C 29.81 49.93 21.86 49.92 15.18 52.90 C 16.05 59.76 18.94 66.10 22.67 71.86 C 19.40 76.53 16.06 81.19 13.67 86.39 C 19.32 84.95 24.44 82.12 29.85 80.03 C 32.33 79.24 34.60 81.33 36.90 82.01 C 48.96 87.39 63.98 84.54 73.52 75.50 C 78.76 70.75 82.19 64.33 84.01 57.55 C 78.31 58.31 72.77 59.84 67.24 61.38 C 67.69 59.45 68.12 57.51 68.57 55.57 C 73.88 53.83 79.33 52.57 84.84 51.63 C 84.88 46.40 83.37 41.39 82.44 36.30 C 83.87 34.37 85.73 32.81 87.43 31.12 C 84.76 31.03 82.05 31.23 79.43 30.65 C 76.02 27.71 73.47 23.82 69.62 21.36 C 57.60 12.84 40.10 13.36 28.64 22.66 Z" />
<path fill="#482b46" opacity="1.00" d=" M 28.64 22.66 C 40.10 13.36 57.60 12.84 69.62 21.36 C 73.47 23.82 76.02 27.71 79.43 30.65 C 82.05 31.23 84.76 31.03 87.43 31.12 C 85.73 32.81 83.87 34.37 82.44 36.30 C 83.37 41.39 84.88 46.40 84.84 51.63 C 79.33 52.57 73.88 53.83 68.57 55.57 C 68.12 57.51 67.69 59.45 67.24 61.38 C 72.77 59.84 78.31 58.31 84.01 57.55 C 82.19 64.33 78.76 70.75 73.52 75.50 C 63.98 84.54 48.96 87.39 36.90 82.01 C 34.60 81.33 32.33 79.24 29.85 80.03 C 24.44 82.12 19.32 84.95 13.67 86.39 C 16.06 81.19 19.40 76.53 22.67 71.86 C 18.94 66.10 16.05 59.76 15.18 52.90 C 21.86 49.92 29.81 49.93 35.73 45.41 C 28.62 46.32 22.07 49.48 15.11 51.05 C 15.15 40.18 19.93 29.32 28.64 22.66 M 37.04 47.03 C 34.89 52.94 35.52 60.28 40.08 64.92 C 44.87 69.83 52.94 71.08 59.07 68.10 C 65.13 65.05 67.22 57.03 65.00 50.94 C 63.06 47.09 59.42 44.49 56.90 41.03 C 53.51 36.95 51.75 31.86 50.42 26.80 C 44.94 32.77 39.84 39.35 37.04 47.03 M 58.23 38.57 C 58.37 39.01 58.63 39.88 58.76 40.32 C 60.38 40.23 62.00 40.12 63.62 40.02 C 62.74 41.01 61.87 41.99 60.99 42.98 C 61.52 43.29 62.57 43.91 63.10 44.22 C 69.97 40.01 77.06 36.18 84.09 32.24 C 75.41 34.09 66.81 36.31 58.23 38.57 M 17.67 82.92 C 26.51 78.81 35.26 74.52 44.13 70.47 C 42.49 69.58 40.89 68.58 39.09 68.04 C 36.90 68.56 34.90 69.68 32.86 70.60 C 34.28 68.77 35.73 66.96 37.16 65.15 C 36.51 64.06 35.85 62.98 35.20 61.89 C 28.68 68.30 22.80 75.36 17.67 82.92 Z" />
<path fill="#ffffff" opacity="1.00" d=" M 37.04 47.03 C 39.84 39.35 44.94 32.77 50.42 26.80 C 51.75 31.86 53.51 36.95 56.90 41.03 C 59.42 44.49 63.06 47.09 65.00 50.94 C 67.22 57.03 65.13 65.05 59.07 68.10 C 52.94 71.08 44.87 69.83 40.08 64.92 C 35.52 60.28 34.89 52.94 37.04 47.03 M 55.30 53.28 C 52.16 53.84 50.86 57.87 52.30 60.49 C 53.23 62.71 56.27 64.30 58.33 62.54 C 62.03 59.96 59.90 52.91 55.30 53.28 Z" />
<path fill="#ffffff" opacity="1.00" d=" M 58.23 38.57 C 66.81 36.31 75.41 34.09 84.09 32.24 C 77.06 36.18 69.97 40.01 63.10 44.22 C 62.57 43.91 61.52 43.29 60.99 42.98 C 61.87 41.99 62.74 41.01 63.62 40.02 C 62.00 40.12 60.38 40.23 58.76 40.32 C 58.63 39.88 58.37 39.01 58.23 38.57 Z" />
<path fill="#482b46" opacity="1.00" d=" M 55.30 53.28 C 59.90 52.91 62.03 59.96 58.33 62.54 C 56.27 64.30 53.23 62.71 52.30 60.49 C 50.86 57.87 52.16 53.84 55.30 53.28 Z" />
<path fill="#ffffff" opacity="1.00" d=" M 17.67 82.92 C 22.80 75.36 28.68 68.30 35.20 61.89 C 35.85 62.98 36.51 64.06 37.16 65.15 C 35.73 66.96 34.28 68.77 32.86 70.60 C 34.90 69.68 36.90 68.56 39.09 68.04 C 40.89 68.58 42.49 69.58 44.13 70.47 C 35.26 74.52 26.51 78.81 17.67 82.92 Z" />
</svg>
