<?xml version="1.0" encoding="UTF-8" ?>
<!DOCTYPE svg PUBLIC "-//W3C//DTD SVG 1.1//EN" "http://www.w3.org/Graphics/SVG/1.1/DTD/svg11.dtd">
<svg width="100pt" height="100pt" viewBox="0 0 100 100" version="1.1" xmlns="http://www.w3.org/2000/svg">
<path fill="#bab9b9" opacity="1.00" d=" M 41.08 27.01 C 44.05 23.23 46.57 19.12 49.40 15.23 C 52.41 19.03 55.01 23.15 57.98 26.97 C 59.60 29.45 62.88 29.12 65.43 29.79 C 65.73 31.95 66.04 34.12 66.39 36.27 C 69.89 36.57 73.39 36.62 76.89 36.87 C 76.94 41.58 76.65 46.27 76.48 50.96 C 76.26 53.01 77.76 54.61 78.77 56.22 C 83.23 62.36 87.66 68.51 92.02 74.72 C 85.00 74.73 77.98 74.74 70.97 74.67 C 68.07 74.73 64.76 74.30 62.44 76.44 C 58.49 79.58 54.19 82.21 49.87 84.81 C 44.50 82.04 39.86 78.14 34.82 74.89 C 25.88 73.98 16.85 74.76 7.87 74.47 C 12.90 66.89 18.80 59.83 23.28 51.91 C 23.52 46.81 23.02 41.69 23.09 36.58 C 26.65 36.39 30.20 36.33 33.75 36.03 C 34.09 33.96 34.36 31.87 34.69 29.80 C 36.87 29.05 39.64 29.11 41.08 27.01 M 49.35 20.63 C 47.60 23.11 45.97 25.69 43.95 27.97 C 42.15 30.11 39.34 30.85 36.86 31.90 C 36.24 33.72 35.64 35.56 35.04 37.39 C 31.70 37.89 28.34 38.19 24.99 38.64 C 25.01 43.19 25.41 47.74 25.44 52.29 C 25.58 55.26 23.56 57.64 21.98 59.94 C 19.14 63.72 16.42 67.60 13.94 71.63 C 20.56 71.92 27.25 71.01 33.83 71.97 C 39.72 74.30 43.42 80.71 49.90 81.87 C 56.36 80.52 60.14 74.18 66.12 71.93 C 72.74 71.04 79.46 71.92 86.11 71.62 C 83.49 67.40 80.53 63.41 77.51 59.48 C 76.16 57.52 74.44 55.51 74.47 52.99 C 74.44 48.38 74.97 43.78 75.03 39.17 C 71.69 38.56 68.33 38.06 65.00 37.41 C 64.42 35.55 63.88 33.68 63.30 31.83 C 60.64 30.95 57.54 30.61 55.55 28.44 C 53.27 26.01 51.40 23.24 49.35 20.63 Z" />
<path fill="#217a7a" opacity="1.00" d=" M 49.35 20.63 C 51.40 23.24 53.27 26.01 55.55 28.44 C 57.54 30.61 60.64 30.95 63.30 31.83 C 63.88 33.68 64.42 35.55 65.00 37.41 C 68.33 38.06 71.69 38.56 75.03 39.17 C 74.97 43.78 74.44 48.38 74.47 52.99 C 74.44 55.51 76.16 57.52 77.51 59.48 C 80.53 63.41 83.49 67.40 86.11 71.62 C 79.46 71.92 72.74 71.04 66.12 71.93 C 60.14 74.18 56.36 80.52 49.90 81.87 C 43.42 80.71 39.72 74.30 33.83 71.97 C 27.25 71.01 20.56 71.92 13.94 71.63 C 16.42 67.60 19.14 63.72 21.98 59.94 C 23.56 57.64 25.58 55.26 25.44 52.29 C 25.41 47.74 25.01 43.19 24.99 38.64 C 28.34 38.19 31.70 37.89 35.04 37.39 C 35.64 35.56 36.24 33.72 36.86 31.90 C 39.34 30.85 42.15 30.11 43.95 27.97 C 45.97 25.69 47.60 23.11 49.35 20.63 M 39.74 33.40 C 38.08 35.01 37.86 37.70 36.07 39.18 C 33.37 40.49 30.28 40.47 27.36 40.87 C 27.36 45.72 27.30 50.66 28.74 55.34 C 31.47 65.22 38.55 73.64 47.49 78.54 C 48.61 79.08 49.93 79.81 51.12 79.01 C 58.16 75.54 64.20 69.90 67.99 63.01 C 71.75 56.46 72.83 48.83 72.75 41.38 C 70.40 40.97 68.01 40.69 65.71 40.05 C 62.51 39.44 62.22 35.56 60.27 33.49 C 53.57 32.02 46.45 31.95 39.74 33.40 Z" />
<path fill="#ffffff" opacity="1.00" d=" M 39.74 33.40 C 46.45 31.95 53.57 32.02 60.27 33.49 C 62.22 35.56 62.51 39.44 65.71 40.05 C 68.01 40.69 70.40 40.97 72.75 41.38 C 72.83 48.83 71.75 56.46 67.99 63.01 C 64.20 69.90 58.16 75.54 51.12 79.01 C 49.93 79.81 48.61 79.08 47.49 78.54 C 38.55 73.64 31.47 65.22 28.74 55.34 C 27.30 50.66 27.36 45.72 27.36 40.87 C 30.28 40.47 33.37 40.49 36.07 39.18 C 37.86 37.70 38.08 35.01 39.74 33.40 M 42.65 35.78 C 40.37 37.42 39.41 40.45 36.85 41.76 C 34.64 42.75 32.23 43.11 29.89 43.67 C 29.98 49.17 30.71 54.77 33.19 59.74 C 36.54 67.22 42.82 72.90 49.85 76.88 C 54.92 73.80 59.89 70.28 63.33 65.35 C 67.96 59.19 70.07 51.50 70.11 43.85 C 66.99 42.97 63.14 42.88 61.02 40.07 C 59.42 38.41 58.44 35.61 55.79 35.45 C 51.46 34.80 46.92 34.66 42.65 35.78 Z" />
<path fill="#1e7878" opacity="1.00" d=" M 42.65 35.78 C 46.92 34.66 51.46 34.80 55.79 35.45 C 58.44 35.61 59.42 38.41 61.02 40.07 C 63.14 42.88 66.99 42.97 70.11 43.85 C 70.07 51.50 67.96 59.19 63.33 65.35 C 59.89 70.28 54.92 73.80 49.85 76.88 C 42.82 72.90 36.54 67.22 33.19 59.74 C 30.71 54.77 29.98 49.17 29.89 43.67 C 32.23 43.11 34.64 42.75 36.85 41.76 C 39.41 40.45 40.37 37.42 42.65 35.78 M 40.11 41.18 C 37.84 43.68 34.44 44.46 31.41 45.63 C 31.90 49.53 32.33 53.49 33.82 57.16 C 36.70 64.92 42.86 70.90 49.89 75.01 C 53.45 72.61 57.10 70.24 59.96 66.98 C 65.28 61.27 67.86 53.63 68.58 45.97 C 65.54 44.69 62.12 43.79 59.86 41.22 C 58.46 39.93 57.41 38.15 55.65 37.31 C 52.22 36.47 48.60 36.50 45.13 37.08 C 42.86 37.48 41.73 39.78 40.11 41.18 Z" />
<path fill="#ffffff" opacity="1.00" d=" M 40.11 41.18 C 41.73 39.78 42.86 37.48 45.13 37.08 C 48.60 36.50 52.22 36.47 55.65 37.31 C 57.41 38.15 58.46 39.93 59.86 41.22 C 62.12 43.79 65.54 44.69 68.58 45.97 C 67.86 53.63 65.28 61.27 59.96 66.98 C 57.10 70.24 53.45 72.61 49.89 75.01 C 42.86 70.90 36.70 64.92 33.82 57.16 C 32.33 53.49 31.90 49.53 31.41 45.63 C 34.44 44.46 37.84 43.68 40.11 41.18 M 44.76 38.84 C 41.21 42.06 37.65 45.42 32.87 46.69 C 33.57 57.84 40.16 68.08 49.92 73.47 C 54.33 70.47 58.77 67.22 61.64 62.61 C 64.93 57.98 66.35 52.38 67.06 46.82 C 63.63 45.57 60.25 43.97 57.82 41.16 C 54.80 37.24 49.00 37.29 44.76 38.84 Z" />
<path fill="#217a7a" opacity="1.00" d=" M 44.76 38.84 C 49.00 37.29 54.80 37.24 57.82 41.16 C 60.25 43.97 63.63 45.57 67.06 46.82 C 66.35 52.38 64.93 57.98 61.64 62.61 C 58.77 67.22 54.33 70.47 49.92 73.47 C 40.16 68.08 33.57 57.84 32.87 46.69 C 37.65 45.42 41.21 42.06 44.76 38.84 M 39.37 54.36 C 42.74 58.88 46.27 63.28 50.00 67.51 C 53.72 63.28 57.23 58.87 60.61 54.36 C 57.14 49.99 53.68 45.62 49.99 41.43 C 46.31 45.61 42.84 49.99 39.37 54.36 Z" />
<path fill="#ffffff" opacity="1.00" d=" M 39.37 54.36 C 42.84 49.99 46.31 45.61 49.99 41.43 C 53.68 45.62 57.14 49.99 60.61 54.36 C 57.23 58.87 53.72 63.28 50.00 67.51 C 46.27 63.28 42.74 58.88 39.37 54.36 M 50.05 44.75 C 49.94 48.67 49.95 52.59 50.01 56.51 C 52.58 55.74 55.16 54.98 57.73 54.18 C 55.29 50.95 52.76 47.77 50.05 44.75 M 43.51 56.56 C 45.68 59.16 47.83 61.77 49.99 64.37 C 52.13 61.79 54.27 59.20 56.44 56.64 C 52.18 57.78 47.76 57.70 43.51 56.56 Z" />
<path fill="#1e7878" opacity="1.00" d=" M 50.05 44.75 C 52.76 47.77 55.29 50.95 57.73 54.18 C 55.16 54.98 52.58 55.74 50.01 56.51 C 49.95 52.59 49.94 48.67 50.05 44.75 Z" />
<path fill="#1f7979" opacity="1.00" d=" M 43.51 56.56 C 47.76 57.70 52.18 57.78 56.44 56.64 C 54.27 59.20 52.13 61.79 49.99 64.37 C 47.83 61.77 45.68 59.16 43.51 56.56 Z" />
</svg>
