<?xml version="1.0" encoding="UTF-8" ?>
<!DOCTYPE svg PUBLIC "-//W3C//DTD SVG 1.1//EN" "http://www.w3.org/Graphics/SVG/1.1/DTD/svg11.dtd">
<svg width="100pt" height="100pt" viewBox="0 0 100 100" version="1.1" xmlns="http://www.w3.org/2000/svg">
<path fill="#ffffff" opacity="1.00" d=" M 45.31 7.25 C 49.52 6.85 53.84 6.86 57.97 7.83 C 59.83 8.08 60.82 9.81 62.03 11.03 C 64.19 14.32 69.12 13.37 71.42 16.51 C 75.04 21.85 80.46 25.77 83.39 31.60 C 87.50 39.45 89.70 48.80 87.39 57.54 C 85.55 66.46 80.52 74.72 73.24 80.23 C 66.63 85.35 58.30 88.03 50.00 88.39 C 40.51 88.00 31.01 84.49 24.03 77.94 C 16.28 70.84 12.01 60.42 11.62 50.00 C 12.01 40.30 15.65 30.52 22.58 23.58 C 24.82 21.43 26.73 18.99 28.58 16.51 C 30.10 14.45 32.83 14.11 35.06 13.21 C 37.54 12.50 38.57 9.80 40.56 8.35 C 42.05 7.66 43.70 7.46 45.31 7.25 M 44.32 9.40 C 41.47 9.62 40.00 12.31 38.05 14.00 C 35.49 16.30 30.87 15.66 29.32 19.16 C 27.52 22.89 24.98 26.15 22.30 29.28 C 16.47 36.52 14.30 46.32 15.70 55.43 C 17.85 70.53 31.09 83.07 46.25 84.51 C 59.47 86.12 73.11 79.20 79.82 67.75 C 86.19 57.32 86.35 43.43 80.18 32.88 C 78.40 29.78 75.87 27.22 73.75 24.37 C 72.12 22.20 71.21 19.57 69.49 17.45 C 67.01 15.75 63.59 15.79 61.46 13.53 C 59.89 12.13 58.68 10.01 56.46 9.57 C 52.48 8.73 48.32 8.74 44.32 9.40 Z" />
<path fill="#482b46" opacity="1.00" d=" M 44.32 9.40 C 48.32 8.74 52.48 8.73 56.46 9.57 C 58.68 10.01 59.89 12.13 61.46 13.53 C 63.59 15.79 67.01 15.75 69.49 17.45 C 71.21 19.57 72.12 22.20 73.75 24.37 C 75.87 27.22 78.40 29.78 80.18 32.88 C 86.35 43.43 86.19 57.32 79.82 67.75 C 73.11 79.20 59.47 86.12 46.25 84.51 C 31.09 83.07 17.85 70.53 15.70 55.43 C 14.30 46.32 16.47 36.52 22.30 29.28 C 24.98 26.15 27.52 22.89 29.32 19.16 C 30.87 15.66 35.49 16.30 38.05 14.00 C 40.00 12.31 41.47 9.62 44.32 9.40 M 37.53 17.45 C 35.59 18.31 33.25 18.43 31.61 19.85 C 29.71 22.92 29.99 26.90 30.93 30.25 C 31.97 33.75 35.30 35.82 36.87 39.00 C 37.85 42.58 37.60 46.35 37.81 50.02 C 39.82 49.33 41.83 48.63 43.84 47.94 C 45.89 49.36 47.93 50.80 50.00 52.20 C 52.06 50.80 54.10 49.36 56.16 47.94 C 58.20 48.64 60.24 49.35 62.29 50.04 C 62.63 46.18 62.33 42.20 63.39 38.44 C 65.45 35.23 68.92 32.74 69.47 28.72 C 69.89 25.63 70.26 21.74 67.85 19.37 C 64.67 17.90 60.75 17.62 58.56 14.54 C 55.73 10.52 50.25 11.30 45.99 11.66 C 42.22 11.94 41.00 16.48 37.53 17.45 M 39.03 53.00 C 35.20 54.48 34.36 58.94 32.49 62.15 C 38.16 67.67 44.16 72.83 50.00 78.16 C 55.84 72.83 61.84 67.67 67.51 62.15 C 66.20 59.61 65.17 56.87 63.43 54.58 C 61.61 53.04 59.30 52.08 56.96 51.69 C 54.33 52.56 52.24 54.50 50.00 56.05 C 48.09 54.67 46.24 53.16 44.13 52.10 C 42.46 51.13 40.61 52.42 39.03 53.00 Z" />
<path fill="#ffffff" opacity="1.00" d=" M 37.53 17.45 C 41.00 16.48 42.22 11.94 45.99 11.66 C 50.25 11.30 55.73 10.52 58.56 14.54 C 60.75 17.62 64.67 17.90 67.85 19.37 C 70.26 21.74 69.89 25.63 69.47 28.72 C 68.92 32.74 65.45 35.23 63.39 38.44 C 62.33 42.20 62.63 46.18 62.29 50.04 C 60.24 49.35 58.20 48.64 56.16 47.94 C 54.10 49.36 52.06 50.80 50.00 52.20 C 47.93 50.80 45.89 49.36 43.84 47.94 C 41.83 48.63 39.82 49.33 37.81 50.02 C 37.60 46.35 37.85 42.58 36.87 39.00 C 35.30 35.82 31.97 33.75 30.93 30.25 C 29.99 26.90 29.71 22.92 31.61 19.85 C 33.25 18.43 35.59 18.31 37.53 17.45 M 44.41 14.17 C 46.03 15.86 47.56 17.99 50.01 18.45 C 52.16 17.65 53.96 16.17 55.78 14.81 C 52.12 13.47 48.20 13.39 44.41 14.17 M 34.19 20.18 C 33.33 22.90 32.97 25.75 32.89 28.59 C 36.19 26.74 35.61 23.06 34.19 20.18 M 67.17 28.57 C 67.02 25.73 66.60 22.91 65.79 20.19 C 64.63 23.06 63.40 27.04 67.17 28.57 M 46.86 35.94 C 45.53 35.57 44.20 35.21 42.87 34.85 C 43.76 36.10 44.64 37.36 45.54 38.60 C 43.75 39.99 41.96 41.37 40.18 42.76 C 41.01 43.68 41.85 44.61 42.69 45.52 C 44.09 43.71 45.47 41.90 46.89 40.12 C 48.21 40.92 49.53 41.72 50.87 42.49 C 50.39 41.32 49.89 40.16 49.39 39.00 C 53.56 34.35 59.52 30.81 61.43 24.54 C 54.83 25.36 51.50 31.94 46.86 35.94 Z" />
<path fill="#462a44" opacity="1.00" d=" M 44.41 14.17 C 48.20 13.39 52.12 13.47 55.78 14.81 C 53.96 16.17 52.16 17.65 50.01 18.45 C 47.56 17.99 46.03 15.86 44.41 14.17 Z" />
<path fill="#4a2847" opacity="1.00" d=" M 34.19 20.18 C 35.61 23.06 36.19 26.74 32.89 28.59 C 32.97 25.75 33.33 22.90 34.19 20.18 Z" />
<path fill="#452543" opacity="1.00" d=" M 67.17 28.57 C 63.40 27.04 64.63 23.06 65.79 20.19 C 66.60 22.91 67.02 25.73 67.17 28.57 Z" />
<path fill="#472b46" opacity="1.00" d=" M 46.86 35.94 C 51.50 31.94 54.83 25.36 61.43 24.54 C 59.52 30.81 53.56 34.35 49.39 39.00 C 49.89 40.16 50.39 41.32 50.87 42.49 C 49.53 41.72 48.21 40.92 46.89 40.12 C 45.47 41.90 44.09 43.71 42.69 45.52 C 41.85 44.61 41.01 43.68 40.18 42.76 C 41.96 41.37 43.75 39.99 45.54 38.60 C 44.64 37.36 43.76 36.10 42.87 34.85 C 44.20 35.21 45.53 35.57 46.86 35.94 Z" />
<path fill="#ffffff" opacity="1.00" d=" M 39.03 53.00 C 40.61 52.42 42.46 51.13 44.13 52.10 C 46.24 53.16 48.09 54.67 50.00 56.05 C 52.24 54.50 54.33 52.56 56.96 51.69 C 59.30 52.08 61.61 53.04 63.43 54.58 C 65.17 56.87 66.20 59.61 67.51 62.15 C 61.84 67.67 55.84 72.83 50.00 78.16 C 44.16 72.83 38.16 67.67 32.49 62.15 C 34.36 58.94 35.20 54.48 39.03 53.00 M 36.55 57.57 C 35.74 58.97 35.06 60.44 34.35 61.90 C 39.56 66.61 44.74 71.36 50.00 76.02 C 55.26 71.36 60.44 66.61 65.65 61.90 C 64.94 60.44 64.26 58.97 63.45 57.57 C 62.30 55.00 59.32 54.28 57.04 53.03 C 54.69 54.70 52.36 56.40 50.00 58.07 C 47.64 56.40 45.31 54.71 42.96 53.03 C 40.68 54.28 37.70 54.99 36.55 57.57 Z" />
<path fill="#462a44" opacity="1.00" d=" M 36.55 57.57 C 37.70 54.99 40.68 54.28 42.96 53.03 C 45.31 54.71 47.64 56.40 50.00 58.07 C 52.36 56.40 54.69 54.70 57.04 53.03 C 59.32 54.28 62.30 55.00 63.45 57.57 C 64.26 58.97 64.94 60.44 65.65 61.90 C 60.44 66.61 55.26 71.36 50.00 76.02 C 44.74 71.36 39.56 66.61 34.35 61.90 C 35.06 60.44 35.74 58.97 36.55 57.57 M 37.01 61.71 C 40.80 66.29 45.81 69.67 50.00 73.88 C 53.74 70.29 57.80 67.05 61.54 63.45 C 62.33 62.58 63.72 61.54 62.95 60.20 C 62.31 57.36 59.36 56.30 57.12 54.99 C 54.75 56.68 52.38 58.39 50.00 60.08 C 47.62 58.39 45.25 56.68 42.88 54.99 C 40.27 56.35 36.38 58.21 37.01 61.71 Z" />
<path fill="#ffffff" opacity="1.00" d=" M 37.01 61.71 C 36.38 58.21 40.27 56.35 42.88 54.99 C 45.25 56.68 47.62 58.39 50.00 60.08 C 52.38 58.39 54.75 56.68 57.12 54.99 C 59.36 56.30 62.31 57.36 62.95 60.20 C 63.72 61.54 62.33 62.58 61.54 63.45 C 57.80 67.05 53.74 70.29 50.00 73.88 C 45.81 69.67 40.80 66.29 37.01 61.71 Z" />
</svg>
