<?xml version="1.0" encoding="UTF-8" ?>
<!DOCTYPE svg PUBLIC "-//W3C//DTD SVG 1.1//EN" "http://www.w3.org/Graphics/SVG/1.1/DTD/svg11.dtd">
<svg width="100pt" height="100pt" viewBox="0 0 100 100" version="1.1" xmlns="http://www.w3.org/2000/svg">
<path fill="#b8bebd" opacity="1.00" d=" M 45.01 18.12 C 50.59 16.14 55.72 13.14 60.74 10.04 C 62.98 15.15 64.90 20.39 66.57 25.71 C 75.64 25.78 84.71 25.63 93.78 25.90 C 79.33 46.73 64.72 67.45 50.18 88.22 C 35.33 67.27 20.39 46.37 5.40 25.53 C 10.82 25.30 16.44 26.24 21.69 24.51 C 29.41 22.17 37.48 21.09 45.01 18.12 M 34.61 23.56 C 26.95 25.11 19.66 28.21 11.86 29.10 C 24.64 47.00 37.40 64.91 50.17 82.82 C 62.75 64.96 75.35 47.11 87.50 28.95 C 80.06 28.68 72.62 28.67 65.17 28.70 C 63.39 23.62 61.88 18.44 59.57 13.56 C 51.79 18.10 43.43 21.64 34.61 23.56 Z" />
<path fill="#b61c2e" opacity="1.00" d=" M 34.61 23.56 C 43.43 21.64 51.79 18.10 59.57 13.56 C 61.88 18.44 63.39 23.62 65.17 28.70 C 72.62 28.67 80.06 28.68 87.50 28.95 C 75.35 47.11 62.75 64.96 50.17 82.82 C 37.40 64.91 24.64 47.00 11.86 29.10 C 19.66 28.21 26.95 25.11 34.61 23.56 M 43.43 23.51 C 36.53 25.86 29.30 26.93 22.33 29.03 C 25.11 32.43 29.37 33.27 33.50 33.80 C 36.26 41.34 39.03 48.89 41.44 56.56 C 44.03 64.77 44.96 73.70 49.85 81.00 C 50.73 79.93 51.61 78.86 52.48 77.79 C 50.77 71.39 49.04 64.99 47.41 58.57 C 45.30 50.30 41.49 42.14 42.54 33.41 C 45.65 31.84 49.22 31.81 52.62 31.90 C 52.66 35.31 52.34 38.72 51.63 42.06 C 54.78 43.58 57.95 45.04 61.15 46.44 C 61.74 42.48 62.23 38.50 62.66 34.52 C 63.32 28.37 60.68 22.55 58.69 16.88 C 53.71 19.33 48.75 21.87 43.43 23.51 M 48.39 53.01 C 54.53 52.20 60.35 49.95 66.39 48.69 C 61.84 52.69 56.70 56.16 53.07 61.10 C 51.71 62.85 51.55 65.12 51.21 67.22 C 57.03 64.02 63.87 61.68 67.75 55.93 C 63.90 57.18 60.27 58.98 56.59 60.63 C 62.00 54.31 69.09 49.91 75.58 44.85 C 66.34 46.82 56.98 48.98 48.39 53.01 M 36.26 55.84 C 34.28 56.07 34.88 58.99 36.81 58.20 C 38.80 57.98 38.20 55.04 36.26 55.84 Z" />
<path fill="#ffffff" opacity="1.00" d=" M 43.43 23.51 C 48.75 21.87 53.71 19.33 58.69 16.88 C 60.68 22.55 63.32 28.37 62.66 34.52 C 62.23 38.50 61.74 42.48 61.15 46.44 C 57.95 45.04 54.78 43.58 51.63 42.06 C 52.34 38.72 52.66 35.31 52.62 31.90 C 49.22 31.81 45.65 31.84 42.54 33.41 C 41.49 42.14 45.30 50.30 47.41 58.57 C 49.04 64.99 50.77 71.39 52.48 77.79 C 51.61 78.86 50.73 79.93 49.85 81.00 C 44.96 73.70 44.03 64.77 41.44 56.56 C 39.03 48.89 36.26 41.34 33.50 33.80 C 29.37 33.27 25.11 32.43 22.33 29.03 C 29.30 26.93 36.53 25.86 43.43 23.51 Z" />
<path fill="#ffffff" opacity="1.00" d=" M 48.39 53.01 C 56.98 48.98 66.34 46.82 75.58 44.85 C 69.09 49.91 62.00 54.31 56.59 60.63 C 60.27 58.98 63.90 57.18 67.75 55.93 C 63.87 61.68 57.03 64.02 51.21 67.22 C 51.55 65.12 51.71 62.85 53.07 61.10 C 56.70 56.16 61.84 52.69 66.39 48.69 C 60.35 49.95 54.53 52.20 48.39 53.01 Z" />
<path fill="#e1a1a8" opacity="1.00" d=" M 36.26 55.84 C 38.20 55.04 38.80 57.98 36.81 58.20 C 34.88 58.99 34.28 56.07 36.26 55.84 Z" />
</svg>
