<?xml version="1.0" encoding="UTF-8" ?>
<!DOCTYPE svg PUBLIC "-//W3C//DTD SVG 1.1//EN" "http://www.w3.org/Graphics/SVG/1.1/DTD/svg11.dtd">
<svg width="100pt" height="100pt" viewBox="0 0 100 100" version="1.1" xmlns="http://www.w3.org/2000/svg">
<path fill="#b8bdbc" opacity="1.00" d=" M 34.17 17.21 C 40.70 15.62 47.46 17.01 54.06 15.99 C 58.26 14.98 61.90 17.98 65.98 18.29 C 71.40 18.65 76.83 18.33 82.26 18.36 C 82.32 24.25 82.15 30.15 82.27 36.05 C 82.33 40.53 84.62 44.58 85.14 48.99 C 86.16 54.92 83.87 60.65 82.57 66.33 C 81.88 71.61 82.38 76.96 82.28 82.27 C 74.16 82.39 65.98 81.74 57.93 83.13 C 52.28 84.15 46.71 82.19 41.06 82.26 C 33.48 82.22 25.91 82.30 18.33 82.26 C 17.93 75.76 19.99 68.54 16.31 62.69 C 12.77 56.60 12.51 49.06 14.48 42.41 C 15.54 38.87 18.19 35.85 18.36 32.06 C 18.58 27.51 18.38 22.96 18.32 18.41 C 23.63 18.53 28.99 18.53 34.17 17.21 M 35.89 18.44 C 37.71 19.67 39.55 20.85 41.39 22.05 C 35.02 22.20 28.64 22.18 22.27 22.16 C 22.28 27.30 23.08 32.84 20.54 37.57 C 18.74 41.16 16.82 44.85 16.68 48.96 C 16.11 54.18 18.13 59.16 20.38 63.75 L 21.16 63.24 C 22.46 63.71 23.78 63.95 25.13 63.99 C 24.17 64.33 23.20 64.68 22.24 65.04 C 22.30 69.64 22.28 74.25 22.24 78.85 C 31.89 78.79 41.57 78.56 51.18 79.69 C 60.45 79.89 69.67 78.21 78.95 78.86 C 78.92 75.22 78.82 71.58 79.16 67.96 C 79.60 62.58 81.83 57.46 81.71 52.01 C 81.70 46.89 79.47 42.13 79.15 37.06 C 78.77 32.10 79.04 27.11 79.03 22.14 C 71.63 22.45 63.88 22.67 57.15 19.05 C 57.65 20.23 58.15 21.40 58.64 22.59 C 51.22 20.41 43.75 17.76 35.89 18.44 Z" />
<path fill="#b61c2e" opacity="1.00" d=" M 35.89 18.44 C 43.75 17.76 51.22 20.41 58.64 22.59 C 58.15 21.40 57.65 20.23 57.15 19.05 C 63.88 22.67 71.63 22.45 79.03 22.14 C 79.04 27.11 78.77 32.10 79.15 37.06 C 79.47 42.13 81.70 46.89 81.71 52.01 C 81.83 57.46 79.60 62.58 79.16 67.96 C 78.82 71.58 78.92 75.22 78.95 78.86 C 69.67 78.21 60.45 79.89 51.18 79.69 C 41.57 78.56 31.89 78.79 22.24 78.85 C 22.28 74.25 22.30 69.64 22.24 65.04 C 23.20 64.68 24.17 64.33 25.13 63.99 C 29.25 62.72 32.97 60.46 36.01 57.42 C 30.44 57.31 25.60 60.20 21.16 63.24 L 20.38 63.75 C 18.13 59.16 16.11 54.18 16.68 48.96 C 16.82 44.85 18.74 41.16 20.54 37.57 C 23.08 32.84 22.28 27.30 22.27 22.16 C 28.64 22.18 35.02 22.20 41.39 22.05 C 39.55 20.85 37.71 19.67 35.89 18.44 M 46.98 20.66 C 53.48 24.30 60.18 28.38 64.08 34.96 C 67.19 39.94 66.73 46.02 67.95 51.55 C 71.01 49.13 69.85 44.98 69.24 41.72 C 66.61 31.24 57.09 23.53 46.98 20.66 M 63.90 23.33 C 66.39 26.75 69.47 29.80 71.18 33.72 C 73.07 38.08 74.66 42.61 75.49 47.29 C 76.35 52.01 74.83 56.68 73.60 61.19 C 74.00 56.77 74.33 52.35 74.23 47.91 C 73.04 49.55 72.01 51.35 70.50 52.72 C 67.91 53.58 65.14 52.60 62.48 53.03 C 56.30 54.27 49.80 54.39 44.11 57.40 C 44.74 59.21 45.52 60.99 45.81 62.90 C 44.83 64.76 43.25 66.20 41.90 67.79 C 45.49 69.15 49.13 70.64 53.02 70.71 C 58.96 70.93 64.60 68.82 70.28 67.37 C 64.02 71.41 56.39 73.36 48.98 72.26 C 44.47 71.62 40.47 69.34 36.22 67.86 C 44.95 80.52 66.15 78.75 74.19 66.21 C 83.20 52.31 77.67 31.97 63.90 23.33 M 21.67 42.63 C 19.45 47.48 20.02 53.06 21.29 58.09 C 25.30 53.85 22.86 47.50 25.81 42.79 C 27.77 39.27 31.40 37.24 34.89 35.52 C 32.89 37.65 30.65 39.54 28.77 41.79 C 26.70 44.21 26.09 47.43 25.27 50.42 C 29.87 50.83 34.58 51.02 38.86 48.97 C 39.42 49.92 39.97 50.86 40.53 51.81 C 43.98 50.23 47.46 48.71 50.99 47.33 C 49.48 46.35 47.89 45.48 46.55 44.26 C 45.68 41.94 48.00 39.98 48.88 38.00 C 46.60 36.91 44.31 35.84 42.05 34.71 C 46.08 35.65 49.96 37.10 53.85 38.48 C 50.95 34.95 47.10 31.97 42.38 31.64 C 33.95 29.92 25.28 35.04 21.67 42.63 M 54.24 41.84 C 54.10 43.82 53.95 45.81 53.78 47.80 C 48.18 50.31 42.70 55.04 36.15 53.35 C 37.08 55.49 37.97 57.65 38.85 59.82 C 43.76 55.31 50.26 53.30 55.65 49.50 C 57.14 50.46 58.65 51.39 60.19 52.29 C 59.72 50.94 59.24 49.60 58.73 48.26 C 59.89 47.11 61.05 45.94 62.19 44.77 C 59.50 43.92 56.85 42.92 54.24 41.84 Z" />
<path fill="#ffffff" opacity="1.00" d=" M 46.98 20.66 C 57.09 23.53 66.61 31.24 69.24 41.72 C 69.85 44.98 71.01 49.13 67.95 51.55 C 66.73 46.02 67.19 39.94 64.08 34.96 C 60.18 28.38 53.48 24.30 46.98 20.66 Z" />
<path fill="#ffffff" opacity="1.00" d=" M 63.90 23.33 C 77.67 31.97 83.20 52.31 74.19 66.21 C 66.15 78.75 44.95 80.52 36.22 67.86 C 40.47 69.34 44.47 71.62 48.98 72.26 C 56.39 73.36 64.02 71.41 70.28 67.37 C 64.60 68.82 58.96 70.93 53.02 70.71 C 49.13 70.64 45.49 69.15 41.90 67.79 C 43.25 66.20 44.83 64.76 45.81 62.90 C 45.52 60.99 44.74 59.21 44.11 57.40 C 49.80 54.39 56.30 54.27 62.48 53.03 C 65.14 52.60 67.91 53.58 70.50 52.72 C 72.01 51.35 73.04 49.55 74.23 47.91 C 74.33 52.35 74.00 56.77 73.60 61.19 C 74.83 56.68 76.35 52.01 75.49 47.29 C 74.66 42.61 73.07 38.08 71.18 33.72 C 69.47 29.80 66.39 26.75 63.90 23.33 Z" />
<path fill="#ffffff" opacity="1.00" d=" M 21.67 42.63 C 25.28 35.04 33.95 29.92 42.38 31.64 C 47.10 31.97 50.95 34.95 53.85 38.48 C 49.96 37.10 46.08 35.65 42.05 34.71 C 44.31 35.84 46.60 36.91 48.88 38.00 C 48.00 39.98 45.68 41.94 46.55 44.26 C 47.89 45.48 49.48 46.35 50.99 47.33 C 47.46 48.71 43.98 50.23 40.53 51.81 C 39.97 50.86 39.42 49.92 38.86 48.97 C 34.58 51.02 29.87 50.83 25.27 50.42 C 26.09 47.43 26.70 44.21 28.77 41.79 C 30.65 39.54 32.89 37.65 34.89 35.52 C 31.40 37.24 27.77 39.27 25.81 42.79 C 22.86 47.50 25.30 53.85 21.29 58.09 C 20.02 53.06 19.45 47.48 21.67 42.63 Z" />
<path fill="#ffffff" opacity="1.00" d=" M 54.24 41.84 C 56.85 42.92 59.50 43.92 62.19 44.77 C 61.05 45.94 59.89 47.11 58.73 48.26 C 59.24 49.60 59.72 50.94 60.19 52.29 C 58.65 51.39 57.14 50.46 55.65 49.50 C 50.26 53.30 43.76 55.31 38.85 59.82 C 37.97 57.65 37.08 55.49 36.15 53.35 C 42.70 55.04 48.18 50.31 53.78 47.80 C 53.95 45.81 54.10 43.82 54.24 41.84 Z" />
<path fill="#ffffff" opacity="1.00" d=" M 21.16 63.24 C 25.60 60.20 30.44 57.31 36.01 57.42 C 32.97 60.46 29.25 62.72 25.13 63.99 C 23.78 63.95 22.46 63.71 21.16 63.24 Z" />
</svg>
