<?xml version="1.0" encoding="UTF-8" ?>
<!DOCTYPE svg PUBLIC "-//W3C//DTD SVG 1.1//EN" "http://www.w3.org/Graphics/SVG/1.1/DTD/svg11.dtd">
<svg width="100pt" height="100pt" viewBox="0 0 100 100" version="1.1" xmlns="http://www.w3.org/2000/svg">
<path fill="#ffffff" opacity="1.00" d=" M 28.64 15.11 C 31.35 12.82 34.17 10.65 36.90 8.38 C 37.98 9.93 39.06 11.48 40.15 13.02 C 46.64 11.57 53.36 11.57 59.85 13.02 C 60.94 11.48 62.02 9.93 63.10 8.38 C 65.83 10.65 68.65 12.82 71.36 15.11 C 72.32 14.30 73.26 13.48 74.21 12.66 C 80.30 19.12 86.54 25.43 92.70 31.82 C 90.23 32.97 87.76 34.11 85.28 35.24 C 89.78 46.58 88.93 59.98 82.28 70.31 C 79.35 75.57 73.95 78.78 70.84 83.90 C 64.12 95.39 46.28 97.57 37.06 87.96 C 32.94 83.23 26.67 81.20 22.54 76.48 C 12.02 65.83 9.09 49.01 14.72 35.24 C 12.24 34.11 9.77 32.97 7.30 31.82 C 13.46 25.43 19.70 19.12 25.79 12.66 C 26.74 13.48 27.68 14.30 28.64 15.11 M 36.23 12.23 C 33.87 14.06 31.64 16.33 28.65 17.07 C 26.55 17.63 24.19 17.85 22.62 19.55 C 18.80 23.21 15.35 27.23 11.62 31.00 C 13.99 32.14 16.38 33.27 18.76 34.38 C 16.05 41.01 14.46 48.27 15.71 55.42 C 17.20 65.26 23.24 74.17 31.67 79.41 C 36.17 82.12 38.68 87.19 43.42 89.56 C 50.26 92.94 59.18 92.02 64.95 86.94 C 68.76 83.59 70.31 78.47 73.98 74.99 C 78.95 70.11 82.67 63.91 83.99 57.03 C 85.71 49.41 84.19 41.50 81.23 34.39 C 83.62 33.27 86.00 32.14 88.38 31.00 C 84.65 27.23 81.20 23.20 77.37 19.54 C 75.14 17.16 71.55 17.72 68.91 16.10 C 67.07 14.99 65.44 13.58 63.78 12.24 C 62.48 13.66 61.17 15.09 59.86 16.51 C 53.38 15.02 46.62 15.01 40.14 16.52 C 38.83 15.09 37.53 13.67 36.23 12.23 Z" />
<path fill="#482b46" opacity="1.00" d=" M 36.23 12.23 C 37.53 13.67 38.83 15.09 40.14 16.52 C 46.62 15.01 53.38 15.02 59.86 16.51 C 61.17 15.09 62.48 13.66 63.78 12.24 C 65.44 13.58 67.07 14.99 68.91 16.10 C 71.55 17.72 75.14 17.16 77.37 19.54 C 81.20 23.20 84.65 27.23 88.38 31.00 C 86.00 32.14 83.62 33.27 81.23 34.39 C 84.19 41.50 85.71 49.41 83.99 57.03 C 82.67 63.91 78.95 70.11 73.98 74.99 C 70.31 78.47 68.76 83.59 64.95 86.94 C 59.18 92.02 50.26 92.94 43.42 89.56 C 38.68 87.19 36.17 82.12 31.67 79.41 C 23.24 74.17 17.20 65.26 15.71 55.42 C 14.46 48.27 16.05 41.01 18.76 34.38 C 16.38 33.27 13.99 32.14 11.62 31.00 C 15.35 27.23 18.80 23.21 22.62 19.55 C 24.19 17.85 26.55 17.63 28.65 17.07 C 31.64 16.33 33.87 14.06 36.23 12.23 M 28.91 21.01 C 30.75 24.31 32.10 27.85 33.96 31.13 C 35.73 33.15 38.38 34.05 40.68 35.31 C 43.71 36.68 46.60 38.49 49.86 39.24 C 53.00 38.66 55.76 36.90 58.65 35.62 C 61.18 34.27 64.07 33.30 66.06 31.15 C 67.91 27.86 69.25 24.31 71.09 21.01 C 68.75 19.29 66.45 17.51 64.18 15.70 C 60.45 19.97 56.05 24.54 50.00 24.83 C 43.95 24.54 39.55 19.97 35.82 15.70 C 33.55 17.51 31.25 19.29 28.91 21.01 M 15.78 30.35 C 20.65 32.79 25.82 34.63 31.25 35.26 C 31.35 32.84 31.90 30.31 31.04 27.96 C 29.91 24.93 27.78 22.45 25.90 19.87 C 22.46 23.30 19.09 26.79 15.78 30.35 M 74.10 19.86 C 72.22 22.45 70.08 24.93 68.96 27.96 C 68.10 30.31 68.65 32.84 68.76 35.26 C 74.19 34.63 79.36 32.79 84.22 30.35 C 80.91 26.79 77.53 23.30 74.10 19.86 M 31.43 34.29 C 31.89 38.07 32.62 41.80 33.37 45.53 C 37.98 46.99 42.39 49.05 47.10 50.16 C 53.99 51.16 60.25 47.50 66.61 45.52 C 67.37 41.79 68.10 38.05 68.57 34.27 C 63.14 34.60 58.47 37.50 53.64 39.65 C 52.02 40.25 50.25 41.30 48.52 40.48 C 42.80 38.47 37.68 34.60 31.43 34.29 M 35.33 47.63 C 36.00 50.42 36.68 53.21 37.33 56.01 C 39.67 54.38 42.05 52.81 44.45 51.27 C 41.41 50.08 38.37 48.86 35.33 47.63 M 58.25 50.04 C 60.23 52.43 61.23 55.36 61.98 58.32 C 62.89 54.78 63.79 51.23 64.73 47.70 C 62.57 48.48 60.41 49.27 58.25 50.04 M 37.13 65.08 C 33.08 72.42 36.25 82.47 43.36 86.67 C 50.64 91.14 61.23 89.21 66.06 82.03 C 68.91 78.54 69.12 73.89 69.24 69.59 C 65.92 68.60 62.22 67.90 59.71 65.30 C 57.15 62.61 56.40 58.84 54.73 55.64 C 47.57 54.37 40.45 58.90 37.13 65.08 M 64.07 59.31 C 62.41 59.13 62.17 61.89 63.89 61.88 C 65.53 62.06 65.77 59.30 64.07 59.31 Z" />
<path fill="#ffffff" opacity="1.00" d=" M 28.91 21.01 C 31.25 19.29 33.55 17.51 35.82 15.70 C 39.55 19.97 43.95 24.54 50.00 24.83 C 56.05 24.54 60.45 19.97 64.18 15.70 C 66.45 17.51 68.75 19.29 71.09 21.01 C 69.25 24.31 67.91 27.86 66.06 31.15 C 64.07 33.30 61.18 34.27 58.65 35.62 C 55.76 36.90 53.00 38.66 49.86 39.24 C 46.60 38.49 43.71 36.68 40.68 35.31 C 38.38 34.05 35.73 33.15 33.96 31.13 C 32.10 27.85 30.75 24.31 28.91 21.01 Z" />
<path fill="#ffffff" opacity="1.00" d=" M 15.78 30.35 C 19.09 26.79 22.46 23.30 25.90 19.87 C 27.78 22.45 29.91 24.93 31.04 27.96 C 31.90 30.31 31.35 32.84 31.25 35.26 C 25.82 34.63 20.65 32.79 15.78 30.35 Z" />
<path fill="#ffffff" opacity="1.00" d=" M 74.10 19.86 C 77.53 23.30 80.91 26.79 84.22 30.35 C 79.36 32.79 74.19 34.63 68.76 35.26 C 68.65 32.84 68.10 30.31 68.96 27.96 C 70.08 24.93 72.22 22.45 74.10 19.86 Z" />
<path fill="#ffffff" opacity="1.00" d=" M 31.43 34.29 C 37.68 34.60 42.80 38.47 48.52 40.48 C 50.25 41.30 52.02 40.25 53.64 39.65 C 58.47 37.50 63.14 34.60 68.57 34.27 C 68.10 38.05 67.37 41.79 66.61 45.52 C 60.25 47.50 53.99 51.16 47.10 50.16 C 42.39 49.05 37.98 46.99 33.37 45.53 C 32.62 41.80 31.89 38.07 31.43 34.29 Z" />
<path fill="#ffffff" opacity="1.00" d=" M 35.33 47.63 C 38.37 48.86 41.41 50.08 44.45 51.27 C 42.05 52.81 39.67 54.38 37.33 56.01 C 36.68 53.21 36.00 50.42 35.33 47.63 Z" />
<path fill="#ffffff" opacity="1.00" d=" M 58.25 50.04 C 60.41 49.27 62.57 48.48 64.73 47.70 C 63.79 51.23 62.89 54.78 61.98 58.32 C 61.23 55.36 60.23 52.43 58.25 50.04 Z" />
<path fill="#ffffff" opacity="1.00" d=" M 37.13 65.08 C 40.45 58.90 47.57 54.37 54.73 55.64 C 56.40 58.84 57.15 62.61 59.71 65.30 C 62.22 67.90 65.92 68.60 69.24 69.59 C 69.12 73.89 68.91 78.54 66.06 82.03 C 61.23 89.21 50.64 91.14 43.36 86.67 C 36.25 82.47 33.08 72.42 37.13 65.08 M 48.05 63.26 C 47.87 65.11 47.72 66.97 47.58 68.82 C 45.76 68.98 43.93 69.14 42.12 69.31 C 42.11 72.10 42.11 74.89 42.11 77.69 C 43.93 77.85 45.75 78.01 47.58 78.18 C 47.72 80.03 47.87 81.88 48.05 83.73 C 50.83 83.71 53.62 83.69 56.41 83.66 C 56.54 81.83 56.66 79.99 56.79 78.15 C 58.55 78.00 60.30 77.84 62.06 77.68 C 62.06 74.89 62.06 72.11 62.06 69.32 C 60.31 69.16 58.56 69.00 56.81 68.85 C 56.67 67.01 56.54 65.18 56.39 63.35 C 53.61 63.31 50.83 63.29 48.05 63.26 Z" />
<path fill="#ffffff" opacity="1.00" d=" M 64.07 59.31 C 65.77 59.30 65.53 62.06 63.89 61.88 C 62.17 61.89 62.41 59.13 64.07 59.31 Z" />
<path fill="#3e233c" opacity="1.00" d=" M 48.05 63.26 C 50.83 63.29 53.61 63.31 56.39 63.35 C 56.54 65.18 56.67 67.01 56.81 68.85 C 58.56 69.00 60.31 69.16 62.06 69.32 C 62.06 72.11 62.06 74.89 62.06 77.68 C 60.30 77.84 58.55 78.00 56.79 78.15 C 56.66 79.99 56.54 81.83 56.41 83.66 C 53.62 83.69 50.83 83.71 48.05 83.73 C 47.87 81.88 47.72 80.03 47.58 78.18 C 45.75 78.01 43.93 77.85 42.11 77.69 C 42.11 74.89 42.11 72.10 42.12 69.31 C 43.93 69.14 45.76 68.98 47.58 68.82 C 47.72 66.97 47.87 65.11 48.05 63.26 M 49.19 64.68 C 49.06 66.47 48.93 68.26 48.80 70.05 C 46.98 70.25 45.15 70.45 43.33 70.66 C 43.33 72.55 43.33 74.45 43.34 76.34 C 45.15 76.55 46.97 76.75 48.79 76.95 C 48.93 78.74 49.06 80.54 49.20 82.33 C 51.09 82.34 52.98 82.34 54.87 82.33 C 55.07 80.61 55.27 78.89 55.46 77.18 C 57.27 76.80 59.09 76.43 60.90 76.03 C 60.89 74.34 60.89 72.65 60.90 70.97 C 59.09 70.57 57.27 70.20 55.46 69.82 C 55.27 68.11 55.08 66.39 54.88 64.68 C 52.98 64.68 51.09 64.68 49.19 64.68 Z" />
<path fill="#ffffff" opacity="1.00" d=" M 49.19 64.68 C 51.09 64.68 52.98 64.68 54.88 64.68 C 55.08 66.39 55.27 68.11 55.46 69.82 C 57.27 70.20 59.09 70.57 60.90 70.97 C 60.89 72.65 60.89 74.34 60.90 76.03 C 59.09 76.43 57.27 76.80 55.46 77.18 C 55.27 78.89 55.07 80.61 54.87 82.33 C 52.98 82.34 51.09 82.34 49.20 82.33 C 49.06 80.54 48.93 78.74 48.79 76.95 C 46.97 76.75 45.15 76.55 43.34 76.34 C 43.33 74.45 43.33 72.55 43.33 70.66 C 45.15 70.45 46.98 70.25 48.80 70.05 C 48.93 68.26 49.06 66.47 49.19 64.68 M 50.39 66.05 C 50.26 67.91 50.13 69.77 49.98 71.62 C 48.25 71.73 46.53 71.83 44.80 71.94 C 44.81 72.72 44.81 74.29 44.81 75.07 C 46.54 75.17 48.26 75.27 49.98 75.37 C 50.13 77.25 50.26 79.13 50.39 81.02 C 51.53 81.05 52.68 81.08 53.83 81.10 C 53.94 79.19 54.05 77.27 54.17 75.36 C 55.91 75.27 57.65 75.20 59.40 75.12 C 59.40 74.31 59.40 72.69 59.40 71.88 C 57.66 71.80 55.92 71.72 54.17 71.64 C 54.05 69.75 53.93 67.87 53.81 65.99 C 52.67 66.00 51.53 66.03 50.39 66.05 Z" />
<path fill="#3e233c" opacity="1.00" d=" M 50.39 66.05 C 51.53 66.03 52.67 66.00 53.81 65.99 C 53.93 67.87 54.05 69.75 54.17 71.64 C 55.92 71.72 57.66 71.80 59.40 71.88 C 59.40 72.69 59.40 74.31 59.40 75.12 C 57.65 75.20 55.91 75.27 54.17 75.36 C 54.05 77.27 53.94 79.19 53.83 81.10 C 52.68 81.08 51.53 81.05 50.39 81.02 C 50.26 79.13 50.13 77.25 49.98 75.37 C 48.26 75.27 46.54 75.17 44.81 75.07 C 44.81 74.29 44.81 72.72 44.80 71.94 C 46.53 71.83 48.25 71.73 49.98 71.62 C 50.13 69.77 50.26 67.91 50.39 66.05 Z" />
</svg>
