<?xml version="1.0" encoding="UTF-8" ?>
<!DOCTYPE svg PUBLIC "-//W3C//DTD SVG 1.1//EN" "http://www.w3.org/Graphics/SVG/1.1/DTD/svg11.dtd">
<svg width="100pt" height="100pt" viewBox="0 0 100 100" version="1.1" xmlns="http://www.w3.org/2000/svg">
<path fill="#ffffff" opacity="1.00" d=" M 27.87 14.91 C 30.89 12.74 33.78 10.41 36.72 8.13 C 37.39 9.93 38.02 11.74 38.65 13.55 C 43.66 12.27 48.88 11.36 54.05 12.14 C 56.87 12.45 59.60 13.35 62.44 13.47 C 63.64 12.33 64.63 10.99 65.69 9.72 C 68.18 12.09 70.49 14.71 73.36 16.65 C 76.65 18.55 80.29 19.71 83.80 21.12 C 82.51 23.96 81.25 27.17 82.88 30.17 C 85.90 36.72 88.58 43.70 88.36 51.03 C 87.74 59.21 84.99 67.38 79.79 73.80 C 76.88 77.54 72.76 80.16 70.10 84.12 C 64.76 92.09 53.67 96.22 44.66 92.30 C 39.29 90.45 36.01 85.44 31.00 82.98 C 18.87 76.37 11.59 62.61 11.65 48.97 C 12.32 41.64 14.72 34.60 16.31 27.45 C 16.95 24.93 15.69 22.49 15.10 20.09 C 19.45 18.65 24.15 17.75 27.87 14.91 M 18.30 21.30 C 18.94 27.00 16.79 32.44 16.61 38.09 C 16.34 41.76 15.50 45.36 15.36 49.04 C 14.85 59.86 20.00 70.79 28.70 77.24 C 31.16 79.12 33.88 80.70 35.97 83.01 C 38.22 85.43 40.40 88.05 43.42 89.54 C 50.47 93.08 59.71 91.91 65.46 86.45 C 67.59 84.46 68.99 81.87 70.52 79.43 C 72.73 75.76 76.20 73.10 78.61 69.58 C 84.37 61.54 86.03 50.92 83.63 41.38 C 82.34 34.99 79.37 28.73 80.47 22.07 C 75.15 20.20 70.19 17.39 66.28 13.27 C 64.49 14.40 62.77 15.78 60.68 16.30 C 57.10 16.41 53.59 15.30 49.99 15.37 C 46.06 15.27 42.27 16.47 38.37 16.72 C 37.03 15.33 36.21 13.54 35.25 11.88 C 30.24 16.06 24.71 19.70 18.30 21.30 Z" />
<path fill="#482b46" opacity="1.00" d=" M 18.30 21.30 C 24.71 19.70 30.24 16.06 35.25 11.88 C 36.21 13.54 37.03 15.33 38.37 16.72 C 42.27 16.47 46.06 15.27 49.99 15.37 C 53.59 15.30 57.10 16.41 60.68 16.30 C 62.77 15.78 64.49 14.40 66.28 13.27 C 70.19 17.39 75.15 20.20 80.47 22.07 C 79.37 28.73 82.34 34.99 83.63 41.38 C 86.03 50.92 84.37 61.54 78.61 69.58 C 76.20 73.10 72.73 75.76 70.52 79.43 C 68.99 81.87 67.59 84.46 65.46 86.45 C 59.71 91.91 50.47 93.08 43.42 89.54 C 40.40 88.05 38.22 85.43 35.97 83.01 C 33.88 80.70 31.16 79.12 28.70 77.24 C 20.00 70.79 14.85 59.86 15.36 49.04 C 15.50 45.36 16.34 41.76 16.61 38.09 C 16.79 32.44 18.94 27.00 18.30 21.30 M 29.18 19.31 C 29.97 22.43 30.81 25.54 31.37 28.72 C 29.83 26.22 28.64 23.53 27.48 20.84 C 25.24 21.64 22.98 22.43 20.71 23.15 C 21.69 25.79 22.44 28.58 23.94 30.99 C 25.36 32.61 27.34 33.57 29.08 34.78 C 31.08 33.22 33.40 31.96 34.93 29.89 C 37.54 25.47 35.28 20.35 34.50 15.75 C 32.72 16.93 30.95 18.12 29.18 19.31 M 66.02 16.87 C 63.00 21.56 62.01 27.85 56.93 30.92 C 49.31 36.33 41.73 41.79 34.18 47.29 C 34.32 49.69 34.44 52.09 34.54 54.49 C 44.25 48.00 54.00 41.56 63.64 34.98 C 63.09 33.29 62.53 31.60 62.00 29.90 C 63.76 31.44 65.37 33.20 67.36 34.47 C 72.75 33.53 75.42 28.19 77.80 23.86 C 73.62 21.99 69.60 19.75 66.02 16.87 M 35.97 18.44 C 36.89 21.41 37.59 24.46 38.77 27.34 C 40.97 30.41 44.37 32.35 47.19 34.80 C 50.45 32.51 53.85 30.40 57.01 27.97 C 60.07 25.80 60.93 21.95 62.31 18.69 C 57.85 20.29 53.70 22.89 49.02 23.82 C 44.43 22.72 40.33 20.21 35.97 18.44 M 69.36 37.88 C 73.01 39.33 76.61 37.94 79.90 36.30 C 79.10 33.48 78.32 30.66 77.56 27.84 C 74.70 31.07 71.75 34.26 69.36 37.88 M 19.42 35.62 C 20.08 37.46 21.22 39.07 22.19 40.76 C 24.27 39.30 26.28 37.75 28.16 36.04 C 25.33 33.85 22.80 31.31 20.45 28.62 C 20.02 30.93 19.19 33.25 19.42 35.62 M 37.38 28.88 C 35.31 31.37 32.83 33.53 31.11 36.29 C 31.15 39.31 32.10 42.23 32.77 45.15 C 36.96 42.08 41.13 38.99 45.28 35.87 C 42.64 33.55 40.00 31.22 37.38 28.88 M 55.36 43.10 C 58.04 45.75 60.74 48.38 63.39 51.06 C 63.79 46.33 64.79 41.68 65.91 37.07 C 62.35 39.00 58.85 41.04 55.36 43.10 M 33.44 58.42 C 38.53 55.95 42.66 51.48 48.40 50.45 C 52.60 49.49 56.80 50.82 60.80 51.99 C 60.99 53.97 61.17 55.94 61.35 57.92 C 62.23 57.96 64.00 58.03 64.88 58.07 C 63.98 51.52 57.06 48.75 52.93 44.43 C 46.45 49.10 38.63 52.14 33.44 58.42 M 38.27 63.25 C 32.84 70.39 35.46 81.45 42.73 86.29 C 50.00 91.24 61.13 89.46 66.05 82.02 C 68.90 78.52 69.11 73.88 69.23 69.58 C 65.90 68.60 62.24 67.85 59.72 65.27 C 56.97 62.63 56.14 58.77 54.97 55.29 C 48.48 55.03 41.87 57.67 38.27 63.25 M 61.74 59.78 C 63.11 60.99 64.53 62.14 65.98 63.24 C 65.88 61.54 65.73 59.84 65.60 58.14 C 64.64 58.55 62.71 59.37 61.74 59.78 Z" />
<path fill="#ffffff" opacity="1.00" d=" M 29.18 19.31 C 30.95 18.12 32.72 16.93 34.50 15.75 C 35.28 20.35 37.54 25.47 34.93 29.89 C 33.40 31.96 31.08 33.22 29.08 34.78 C 27.34 33.57 25.36 32.61 23.94 30.99 C 22.44 28.58 21.69 25.79 20.71 23.15 C 22.98 22.43 25.24 21.64 27.48 20.84 C 28.64 23.53 29.83 26.22 31.37 28.72 C 30.81 25.54 29.97 22.43 29.18 19.31 Z" />
<path fill="#ffffff" opacity="1.00" d=" M 66.02 16.87 C 69.60 19.75 73.62 21.99 77.80 23.86 C 75.42 28.19 72.75 33.53 67.36 34.47 C 65.37 33.20 63.76 31.44 62.00 29.90 C 62.53 31.60 63.09 33.29 63.64 34.98 C 54.00 41.56 44.25 48.00 34.54 54.49 C 34.44 52.09 34.32 49.69 34.18 47.29 C 41.73 41.79 49.31 36.33 56.93 30.92 C 62.01 27.85 63.00 21.56 66.02 16.87 Z" />
<path fill="#ffffff" opacity="1.00" d=" M 35.97 18.44 C 40.33 20.21 44.43 22.72 49.02 23.82 C 53.70 22.89 57.85 20.29 62.31 18.69 C 60.93 21.95 60.07 25.80 57.01 27.97 C 53.85 30.40 50.45 32.51 47.19 34.80 C 44.37 32.35 40.97 30.41 38.77 27.34 C 37.59 24.46 36.89 21.41 35.97 18.44 Z" />
<path fill="#ffffff" opacity="1.00" d=" M 69.36 37.88 C 71.75 34.26 74.70 31.07 77.56 27.84 C 78.32 30.66 79.10 33.48 79.90 36.30 C 76.61 37.94 73.01 39.33 69.36 37.88 Z" />
<path fill="#ffffff" opacity="1.00" d=" M 19.42 35.62 C 19.19 33.25 20.02 30.93 20.45 28.62 C 22.80 31.31 25.33 33.85 28.16 36.04 C 26.28 37.75 24.27 39.30 22.19 40.76 C 21.22 39.07 20.08 37.46 19.42 35.62 Z" />
<path fill="#ffffff" opacity="1.00" d=" M 37.38 28.88 C 40.00 31.22 42.64 33.55 45.28 35.87 C 41.13 38.99 36.96 42.08 32.77 45.15 C 32.10 42.23 31.15 39.31 31.11 36.29 C 32.83 33.53 35.31 31.37 37.38 28.88 Z" />
<path fill="#ffffff" opacity="1.00" d=" M 55.36 43.10 C 58.85 41.04 62.35 39.00 65.91 37.07 C 64.79 41.68 63.79 46.33 63.39 51.06 C 60.74 48.38 58.04 45.75 55.36 43.10 Z" />
<path fill="#ffffff" opacity="1.00" d=" M 33.44 58.42 C 38.63 52.14 46.45 49.10 52.93 44.43 C 57.06 48.75 63.98 51.52 64.88 58.07 C 64.00 58.03 62.23 57.96 61.35 57.92 C 61.17 55.94 60.99 53.97 60.80 51.99 C 56.80 50.82 52.60 49.49 48.40 50.45 C 42.66 51.48 38.53 55.95 33.44 58.42 Z" />
<path fill="#ffffff" opacity="1.00" d=" M 38.27 63.25 C 41.87 57.67 48.48 55.03 54.97 55.29 C 56.14 58.77 56.97 62.63 59.72 65.27 C 62.24 67.85 65.90 68.60 69.23 69.58 C 69.11 73.88 68.90 78.52 66.05 82.02 C 61.13 89.46 50.00 91.24 42.73 86.29 C 35.46 81.45 32.84 70.39 38.27 63.25 M 48.14 63.25 C 47.91 65.08 47.70 66.92 47.50 68.75 C 45.70 68.96 43.91 69.16 42.12 69.37 C 42.12 72.12 42.12 74.88 42.12 77.63 C 43.91 77.84 45.70 78.04 47.50 78.25 C 47.70 80.08 47.91 81.91 48.13 83.75 C 50.87 83.72 53.60 83.69 56.33 83.66 C 56.52 81.84 56.71 80.02 56.90 78.21 C 58.61 78.01 60.33 77.82 62.04 77.63 C 62.06 74.87 62.06 72.12 62.04 69.38 C 60.34 69.18 58.63 68.99 56.92 68.79 C 56.72 66.98 56.52 65.17 56.31 63.35 C 53.59 63.31 50.86 63.28 48.14 63.25 Z" />
<path fill="#ffffff" opacity="1.00" d=" M 61.74 59.78 C 62.71 59.37 64.64 58.55 65.60 58.14 C 65.73 59.84 65.88 61.54 65.98 63.24 C 64.53 62.14 63.11 60.99 61.74 59.78 Z" />
<path fill="#3e233c" opacity="1.00" d=" M 48.14 63.25 C 50.86 63.28 53.59 63.31 56.31 63.35 C 56.52 65.17 56.72 66.98 56.92 68.79 C 58.63 68.99 60.34 69.18 62.04 69.38 C 62.06 72.12 62.06 74.87 62.04 77.63 C 60.33 77.82 58.61 78.01 56.90 78.21 C 56.71 80.02 56.52 81.84 56.33 83.66 C 53.60 83.69 50.87 83.72 48.13 83.75 C 47.91 81.91 47.70 80.08 47.50 78.25 C 45.70 78.04 43.91 77.84 42.12 77.63 C 42.12 74.88 42.12 72.12 42.12 69.37 C 43.91 69.16 45.70 68.96 47.50 68.75 C 47.70 66.92 47.91 65.08 48.14 63.25 M 49.31 64.70 C 49.12 66.45 48.93 68.19 48.73 69.94 C 46.95 70.19 45.17 70.44 43.39 70.70 C 43.33 72.57 43.33 74.43 43.39 76.30 C 45.17 76.55 46.95 76.81 48.74 77.07 C 48.94 78.81 49.13 80.56 49.31 82.31 C 51.13 82.36 52.96 82.37 54.78 82.34 C 55.02 80.61 55.25 78.88 55.50 77.15 C 57.24 76.86 58.99 76.58 60.73 76.31 C 60.78 74.44 60.78 72.57 60.74 70.70 C 58.99 70.42 57.24 70.14 55.50 69.85 C 55.25 68.13 55.02 66.40 54.79 64.68 C 52.96 64.65 51.13 64.66 49.31 64.70 Z" />
<path fill="#ffffff" opacity="1.00" d=" M 49.31 64.70 C 51.13 64.66 52.96 64.65 54.79 64.68 C 55.02 66.40 55.25 68.13 55.50 69.85 C 57.24 70.14 58.99 70.42 60.74 70.70 C 60.78 72.57 60.78 74.44 60.73 76.31 C 58.99 76.58 57.24 76.86 55.50 77.15 C 55.25 78.88 55.02 80.61 54.78 82.34 C 52.96 82.37 51.13 82.36 49.31 82.31 C 49.13 80.56 48.94 78.81 48.74 77.07 C 46.95 76.81 45.17 76.55 43.39 76.30 C 43.33 74.43 43.33 72.57 43.39 70.70 C 45.17 70.44 46.95 70.19 48.73 69.94 C 48.93 68.19 49.12 66.45 49.31 64.70 M 50.44 66.05 C 50.27 67.90 50.08 69.74 49.89 71.59 C 48.19 71.73 46.50 71.87 44.81 72.01 C 44.81 72.76 44.80 74.25 44.80 74.99 C 46.50 75.13 48.20 75.26 49.89 75.41 C 50.08 77.27 50.26 79.14 50.43 81.02 C 51.55 81.04 52.66 81.06 53.78 81.08 C 53.93 79.18 54.09 77.29 54.25 75.39 C 55.97 75.27 57.69 75.15 59.41 75.04 C 59.41 74.27 59.41 72.73 59.41 71.96 C 57.69 71.84 55.97 71.73 54.26 71.60 C 54.09 69.73 53.92 67.85 53.76 65.98 C 52.65 66.00 51.55 66.03 50.44 66.05 Z" />
<path fill="#3e233c" opacity="1.00" d=" M 50.44 66.05 C 51.55 66.03 52.65 66.00 53.76 65.98 C 53.92 67.85 54.09 69.73 54.26 71.60 C 55.97 71.73 57.69 71.84 59.41 71.96 C 59.41 72.73 59.41 74.27 59.41 75.04 C 57.69 75.15 55.97 75.27 54.25 75.39 C 54.09 77.29 53.93 79.18 53.78 81.08 C 52.66 81.06 51.55 81.04 50.43 81.02 C 50.26 79.14 50.08 77.27 49.89 75.41 C 48.20 75.26 46.50 75.13 44.80 74.99 C 44.80 74.25 44.81 72.76 44.81 72.01 C 46.50 71.87 48.19 71.73 49.89 71.59 C 50.08 69.74 50.27 67.90 50.44 66.05 Z" />
</svg>
