<?xml version="1.0" encoding="UTF-8" ?>
<!DOCTYPE svg PUBLIC "-//W3C//DTD SVG 1.1//EN" "http://www.w3.org/Graphics/SVG/1.1/DTD/svg11.dtd">
<svg width="100pt" height="100pt" viewBox="0 0 100 100" version="1.1" xmlns="http://www.w3.org/2000/svg">
<path fill="#ffffff" opacity="1.00" d=" M 28.02 15.36 C 30.79 13.15 33.59 10.97 36.34 8.72 C 37.51 10.17 38.67 11.63 39.84 13.09 C 46.53 11.55 53.47 11.55 60.16 13.09 C 61.33 11.64 62.49 10.17 63.66 8.72 C 66.41 10.97 69.21 13.15 71.98 15.37 C 72.93 14.57 73.87 13.78 74.82 12.99 C 80.60 19.19 86.49 25.30 92.49 31.29 C 90.00 32.46 87.51 33.62 85.03 34.79 C 91.45 49.45 87.62 67.91 75.40 78.38 C 70.56 82.24 68.08 88.62 62.15 91.17 C 54.49 95.65 44.29 94.14 37.93 88.08 C 33.53 83.63 27.28 81.62 23.03 76.98 C 12.05 66.26 8.85 48.82 14.97 34.79 C 12.49 33.62 10.00 32.46 7.51 31.29 C 13.52 25.29 19.42 19.16 25.22 12.95 C 26.15 13.76 27.09 14.56 28.02 15.36 M 24.72 16.63 C 20.03 21.18 15.53 25.93 11.08 30.71 C 13.64 31.92 16.21 33.13 18.79 34.32 C 16.08 40.97 14.43 48.24 15.71 55.43 C 17.21 65.26 23.23 74.17 31.67 79.40 C 36.19 82.10 38.66 87.20 43.42 89.56 C 50.26 92.93 59.17 92.03 64.95 86.94 C 68.77 83.60 70.30 78.46 73.99 74.99 C 78.75 70.30 82.39 64.39 83.82 57.82 C 85.81 49.95 84.28 41.70 81.21 34.32 C 83.79 33.13 86.36 31.92 88.93 30.71 C 84.47 25.93 79.97 21.19 75.28 16.64 C 70.70 18.65 67.42 13.97 64.04 11.71 C 62.63 13.30 61.22 14.88 59.81 16.47 C 53.35 15.04 46.65 15.04 40.19 16.47 C 38.78 14.88 37.37 13.30 35.96 11.71 C 32.58 13.98 29.30 18.64 24.72 16.63 Z" />
<path fill="#482b46" opacity="1.00" d=" M 24.72 16.63 C 29.30 18.64 32.58 13.98 35.96 11.71 C 37.37 13.30 38.78 14.88 40.19 16.47 C 46.65 15.04 53.35 15.04 59.81 16.47 C 61.22 14.88 62.63 13.30 64.04 11.71 C 67.42 13.97 70.70 18.65 75.28 16.64 C 79.97 21.19 84.47 25.93 88.93 30.71 C 86.36 31.92 83.79 33.13 81.21 34.32 C 84.28 41.70 85.81 49.95 83.82 57.82 C 82.39 64.39 78.75 70.30 73.99 74.99 C 70.30 78.46 68.77 83.60 64.95 86.94 C 59.17 92.03 50.26 92.93 43.42 89.56 C 38.66 87.20 36.19 82.10 31.67 79.40 C 23.23 74.17 17.21 65.26 15.71 55.43 C 14.43 48.24 16.08 40.97 18.79 34.32 C 16.21 33.13 13.64 31.92 11.08 30.71 C 15.53 25.93 20.03 21.18 24.72 16.63 M 28.31 20.80 C 30.39 24.23 32.35 27.96 35.95 30.03 C 41.28 33.32 46.71 38.78 53.53 37.15 C 57.74 35.01 61.41 31.93 65.23 29.18 C 68.17 27.09 69.75 23.76 71.56 20.77 C 69.21 18.88 66.86 17.01 64.48 15.16 C 60.70 19.57 56.13 24.09 49.98 24.47 C 43.84 24.12 39.31 19.54 35.53 15.17 C 33.11 17.04 30.71 18.92 28.31 20.80 M 15.32 29.94 C 20.19 32.51 25.41 34.44 30.93 34.96 C 31.03 32.84 31.43 30.69 31.03 28.58 C 30.12 25.02 27.54 22.26 25.31 19.47 C 21.93 22.92 18.56 26.37 15.32 29.94 M 69.27 27.26 C 68.36 29.74 68.96 32.41 69.08 34.96 C 74.60 34.43 79.81 32.51 84.68 29.94 C 81.44 26.37 78.06 22.92 74.70 19.47 C 72.68 21.90 70.37 24.24 69.27 27.26 M 33.28 29.85 C 32.90 31.90 32.50 33.93 32.09 35.97 C 33.68 37.13 35.26 38.31 36.84 39.47 C 37.63 37.68 38.41 35.89 39.19 34.10 C 37.21 32.69 35.25 31.27 33.28 29.85 M 60.66 34.13 C 61.38 35.88 62.11 37.63 62.85 39.38 C 64.48 38.17 66.10 36.95 67.74 35.76 C 67.40 33.76 67.07 31.76 66.74 29.75 C 64.71 31.20 62.69 32.67 60.66 34.13 M 38.13 40.06 C 40.04 41.77 41.96 43.48 43.89 45.19 C 44.99 43.38 46.11 41.57 47.22 39.77 C 45.11 38.25 42.98 36.75 40.86 35.24 C 39.95 36.85 39.04 38.46 38.13 40.06 M 52.58 39.83 C 53.68 41.60 54.78 43.37 55.88 45.14 C 57.74 43.44 59.61 41.74 61.49 40.05 C 60.67 38.47 59.84 36.89 59.02 35.31 C 56.87 36.81 54.72 38.32 52.58 39.83 M 63.61 41.14 C 64.36 42.67 65.11 44.20 65.87 45.72 C 66.91 42.81 67.91 39.89 68.91 36.96 C 67.13 38.34 65.38 39.75 63.61 41.14 M 31.18 37.42 C 32.15 40.14 33.18 42.85 34.29 45.52 C 34.93 44.04 35.57 42.55 36.20 41.06 C 34.53 39.85 32.87 38.62 31.18 37.42 M 45.17 46.04 C 46.73 47.36 48.29 48.69 49.85 50.01 C 51.30 48.60 52.75 47.21 54.20 45.81 C 52.82 43.29 51.43 40.76 50.01 38.26 C 48.39 40.85 46.80 43.45 45.17 46.04 M 56.72 47.09 C 57.55 48.67 58.38 50.25 59.21 51.83 C 61.10 50.20 62.98 48.58 64.88 46.96 C 64.08 45.35 63.28 43.74 62.49 42.12 C 60.56 43.77 58.64 45.43 56.72 47.09 M 35.06 46.96 C 36.90 48.44 38.73 49.92 40.58 51.37 C 41.39 49.96 42.21 48.55 43.02 47.14 C 41.21 45.61 39.42 44.07 37.64 42.52 C 36.78 44.00 35.92 45.48 35.06 46.96 M 44.25 48.16 C 43.19 49.79 42.13 51.42 41.08 53.06 C 43.06 52.28 45.03 51.49 47.01 50.70 C 46.09 49.85 45.17 49.01 44.25 48.16 M 55.09 48.35 C 53.23 48.64 54.05 51.52 55.77 51.11 C 57.61 50.84 56.78 47.93 55.09 48.35 M 36.47 50.35 C 36.73 52.27 36.99 54.18 37.25 56.10 C 38.14 55.29 39.02 54.47 39.91 53.66 C 38.77 52.55 37.63 51.44 36.47 50.35 M 62.45 56.73 C 62.76 54.52 62.97 52.30 63.09 50.07 C 60.99 51.99 60.94 54.44 62.45 56.73 M 37.12 65.08 C 33.19 72.19 36.07 81.88 42.74 86.27 C 50.02 91.23 61.09 89.42 66.07 82.03 C 68.87 78.52 69.19 73.88 69.22 69.57 C 65.90 68.59 62.21 67.88 59.70 65.29 C 57.11 62.63 56.46 58.82 54.73 55.66 C 47.57 54.36 40.45 58.91 37.12 65.08 M 61.26 57.18 C 59.80 60.19 64.60 57.23 61.26 57.18 M 61.92 59.93 C 62.98 60.98 64.05 62.04 65.12 63.09 C 65.79 61.41 66.46 59.72 67.10 58.03 C 65.36 58.64 63.64 59.28 61.92 59.93 Z" />
<path fill="#ffffff" opacity="1.00" d=" M 28.31 20.80 C 30.71 18.92 33.11 17.04 35.53 15.17 C 39.31 19.54 43.84 24.12 49.98 24.47 C 56.13 24.09 60.70 19.57 64.48 15.16 C 66.86 17.01 69.21 18.88 71.56 20.77 C 69.75 23.76 68.17 27.09 65.23 29.18 C 61.41 31.93 57.74 35.01 53.53 37.15 C 46.71 38.78 41.28 33.32 35.95 30.03 C 32.35 27.96 30.39 24.23 28.31 20.80 Z" />
<path fill="#ffffff" opacity="1.00" d=" M 15.32 29.94 C 18.56 26.37 21.93 22.92 25.31 19.47 C 27.54 22.26 30.12 25.02 31.03 28.58 C 31.43 30.69 31.03 32.84 30.93 34.96 C 25.41 34.44 20.19 32.51 15.32 29.94 Z" />
<path fill="#ffffff" opacity="1.00" d=" M 69.27 27.26 C 70.37 24.24 72.68 21.90 74.70 19.47 C 78.06 22.92 81.44 26.37 84.68 29.94 C 79.81 32.51 74.60 34.43 69.08 34.96 C 68.96 32.41 68.36 29.74 69.27 27.26 Z" />
<path fill="#ffffff" opacity="1.00" d=" M 33.28 29.85 C 35.25 31.27 37.21 32.69 39.19 34.10 C 38.41 35.89 37.63 37.68 36.84 39.47 C 35.26 38.31 33.68 37.13 32.09 35.97 C 32.50 33.93 32.90 31.90 33.28 29.85 Z" />
<path fill="#ffffff" opacity="1.00" d=" M 60.66 34.13 C 62.69 32.67 64.71 31.20 66.74 29.75 C 67.07 31.76 67.40 33.76 67.74 35.76 C 66.10 36.95 64.48 38.17 62.85 39.38 C 62.11 37.63 61.38 35.88 60.66 34.13 Z" />
<path fill="#ffffff" opacity="1.00" d=" M 38.13 40.06 C 39.04 38.46 39.95 36.85 40.86 35.24 C 42.98 36.75 45.11 38.25 47.22 39.77 C 46.11 41.57 44.99 43.38 43.89 45.19 C 41.96 43.48 40.04 41.77 38.13 40.06 Z" />
<path fill="#ffffff" opacity="1.00" d=" M 52.58 39.83 C 54.72 38.32 56.87 36.81 59.02 35.31 C 59.84 36.89 60.67 38.47 61.49 40.05 C 59.61 41.74 57.74 43.44 55.88 45.14 C 54.78 43.37 53.68 41.60 52.58 39.83 Z" />
<path fill="#ffffff" opacity="1.00" d=" M 63.61 41.14 C 65.38 39.75 67.13 38.34 68.91 36.96 C 67.91 39.89 66.91 42.81 65.87 45.72 C 65.11 44.20 64.36 42.67 63.61 41.14 Z" />
<path fill="#ffffff" opacity="1.00" d=" M 31.18 37.42 C 32.87 38.62 34.53 39.85 36.20 41.06 C 35.57 42.55 34.93 44.04 34.29 45.52 C 33.18 42.85 32.15 40.14 31.18 37.42 Z" />
<path fill="#ffffff" opacity="1.00" d=" M 45.17 46.04 C 46.80 43.45 48.39 40.85 50.01 38.26 C 51.43 40.76 52.82 43.29 54.20 45.81 C 52.75 47.21 51.30 48.60 49.85 50.01 C 48.29 48.69 46.73 47.36 45.17 46.04 Z" />
<path fill="#ffffff" opacity="1.00" d=" M 56.72 47.09 C 58.64 45.43 60.56 43.77 62.49 42.12 C 63.28 43.74 64.08 45.35 64.88 46.96 C 62.98 48.58 61.10 50.20 59.21 51.83 C 58.38 50.25 57.55 48.67 56.72 47.09 Z" />
<path fill="#ffffff" opacity="1.00" d=" M 35.06 46.96 C 35.92 45.48 36.78 44.00 37.64 42.52 C 39.42 44.07 41.21 45.61 43.02 47.14 C 42.21 48.55 41.39 49.96 40.58 51.37 C 38.73 49.92 36.90 48.44 35.06 46.96 Z" />
<path fill="#ffffff" opacity="1.00" d=" M 44.25 48.16 C 45.17 49.01 46.09 49.85 47.01 50.70 C 45.03 51.49 43.06 52.28 41.08 53.06 C 42.13 51.42 43.19 49.79 44.25 48.16 Z" />
<path fill="#ffffff" opacity="1.00" d=" M 55.09 48.35 C 56.78 47.93 57.61 50.84 55.77 51.11 C 54.05 51.52 53.23 48.64 55.09 48.35 Z" />
<path fill="#ffffff" opacity="1.00" d=" M 36.47 50.35 C 37.63 51.44 38.77 52.55 39.91 53.66 C 39.02 54.47 38.14 55.29 37.25 56.10 C 36.99 54.18 36.73 52.27 36.47 50.35 Z" />
<path fill="#f4eaf3" opacity="1.00" d=" M 62.45 56.73 C 60.94 54.44 60.99 51.99 63.09 50.07 C 62.97 52.30 62.76 54.52 62.45 56.73 Z" />
<path fill="#ffffff" opacity="1.00" d=" M 37.12 65.08 C 40.45 58.91 47.57 54.36 54.73 55.66 C 56.46 58.82 57.11 62.63 59.70 65.29 C 62.21 67.88 65.90 68.59 69.22 69.57 C 69.19 73.88 68.87 78.52 66.07 82.03 C 61.09 89.42 50.02 91.23 42.74 86.27 C 36.07 81.88 33.19 72.19 37.12 65.08 M 48.02 63.27 C 47.86 65.12 47.72 66.97 47.59 68.83 C 45.76 68.99 43.94 69.15 42.12 69.31 C 42.11 72.10 42.11 74.90 42.12 77.69 C 43.94 77.85 45.76 78.01 47.59 78.17 C 47.72 80.02 47.86 81.88 48.02 83.73 C 50.82 83.71 53.62 83.69 56.42 83.66 C 56.54 81.82 56.66 79.98 56.78 78.15 C 58.54 77.99 60.30 77.84 62.06 77.68 C 62.06 74.89 62.06 72.10 62.06 69.31 C 60.30 69.16 58.54 69.01 56.79 68.86 C 56.66 67.02 56.54 65.18 56.41 63.35 C 53.61 63.31 50.82 63.29 48.02 63.27 Z" />
<path fill="#bea5bc" opacity="1.00" d=" M 61.26 57.18 C 64.60 57.23 59.80 60.19 61.26 57.18 Z" />
<path fill="#ffffff" opacity="1.00" d=" M 61.92 59.93 C 63.64 59.28 65.36 58.64 67.10 58.03 C 66.46 59.72 65.79 61.41 65.12 63.09 C 64.05 62.04 62.98 60.98 61.92 59.93 Z" />
<path fill="#3e233c" opacity="1.00" d=" M 48.02 63.27 C 50.82 63.29 53.61 63.31 56.41 63.35 C 56.54 65.18 56.66 67.02 56.79 68.86 C 58.54 69.01 60.30 69.16 62.06 69.31 C 62.06 72.10 62.06 74.89 62.06 77.68 C 60.30 77.84 58.54 77.99 56.78 78.15 C 56.66 79.98 56.54 81.82 56.42 83.66 C 53.62 83.69 50.82 83.71 48.02 83.73 C 47.86 81.88 47.72 80.02 47.59 78.17 C 45.76 78.01 43.94 77.85 42.12 77.69 C 42.11 74.90 42.11 72.10 42.12 69.31 C 43.94 69.15 45.76 68.99 47.59 68.83 C 47.72 66.97 47.86 65.12 48.02 63.27 M 49.17 64.69 C 49.04 66.48 48.92 68.27 48.79 70.06 C 46.97 70.25 45.16 70.44 43.34 70.65 C 43.33 72.55 43.33 74.45 43.34 76.35 C 45.15 76.56 46.97 76.75 48.79 76.94 C 48.92 78.74 49.05 80.53 49.18 82.33 C 51.09 82.33 52.99 82.33 54.90 82.31 C 55.09 80.68 55.28 79.05 55.48 77.42 C 57.29 76.90 59.16 76.48 60.85 75.61 C 60.99 74.21 60.99 72.79 60.85 71.38 C 59.15 70.52 57.28 70.10 55.47 69.58 C 55.28 67.95 55.10 66.33 54.91 64.70 C 53.00 64.69 51.08 64.68 49.17 64.69 Z" />
<path fill="#ffffff" opacity="1.00" d=" M 49.17 64.69 C 51.08 64.68 53.00 64.69 54.91 64.70 C 55.10 66.33 55.28 67.95 55.47 69.58 C 57.28 70.10 59.15 70.52 60.85 71.38 C 60.99 72.79 60.99 74.21 60.85 75.61 C 59.16 76.48 57.29 76.90 55.48 77.42 C 55.28 79.05 55.09 80.68 54.90 82.31 C 52.99 82.33 51.09 82.33 49.18 82.33 C 49.05 80.53 48.92 78.74 48.79 76.94 C 46.97 76.75 45.15 76.56 43.34 76.35 C 43.33 74.45 43.33 72.55 43.34 70.65 C 45.16 70.44 46.97 70.25 48.79 70.06 C 48.92 68.27 49.04 66.48 49.17 64.69 M 50.39 66.06 C 50.26 67.91 50.14 69.77 50.01 71.62 C 48.28 71.72 46.55 71.82 44.81 71.92 C 44.81 72.71 44.81 74.29 44.81 75.08 C 46.55 75.18 48.28 75.28 50.02 75.38 C 50.15 77.25 50.27 79.13 50.38 81.01 C 51.53 81.05 52.68 81.08 53.83 81.10 C 53.95 79.19 54.06 77.27 54.17 75.36 C 55.91 75.27 57.65 75.19 59.39 75.11 C 59.39 74.30 59.39 72.69 59.39 71.89 C 57.65 71.80 55.91 71.72 54.18 71.64 C 54.06 69.75 53.94 67.87 53.81 65.99 C 52.67 66.01 51.53 66.04 50.39 66.06 Z" />
<path fill="#3e233c" opacity="1.00" d=" M 50.39 66.06 C 51.53 66.04 52.67 66.01 53.81 65.99 C 53.94 67.87 54.06 69.75 54.18 71.64 C 55.91 71.72 57.65 71.80 59.39 71.89 C 59.39 72.69 59.39 74.30 59.39 75.11 C 57.65 75.19 55.91 75.27 54.17 75.36 C 54.06 77.27 53.95 79.19 53.83 81.10 C 52.68 81.08 51.53 81.05 50.38 81.01 C 50.27 79.13 50.15 77.25 50.02 75.38 C 48.28 75.28 46.55 75.18 44.81 75.08 C 44.81 74.29 44.81 72.71 44.81 71.92 C 46.55 71.82 48.28 71.72 50.01 71.62 C 50.14 69.77 50.26 67.91 50.39 66.06 Z" />
</svg>
