<?xml version="1.0" encoding="UTF-8" ?>
<!DOCTYPE svg PUBLIC "-//W3C//DTD SVG 1.1//EN" "http://www.w3.org/Graphics/SVG/1.1/DTD/svg11.dtd">
<svg width="100pt" height="100pt" viewBox="0 0 100 100" version="1.1" xmlns="http://www.w3.org/2000/svg">
<path fill="#4dbf9b" opacity="1.00" d=" M 12.89 2.10 C 15.81 3.70 18.54 5.72 21.69 6.84 C 23.83 6.92 26.03 5.96 28.09 6.89 C 32.96 8.78 37.66 11.11 42.59 12.86 C 45.01 10.00 47.49 7.19 50.00 4.40 C 63.61 19.84 76.91 35.55 90.43 51.07 C 86.74 55.48 82.74 59.64 79.27 64.23 C 75.92 68.58 74.15 74.41 68.92 77.02 C 61.66 82.94 56.60 91.10 50.00 97.73 C 36.36 82.31 23.06 66.60 9.56 51.05 C 12.15 48.01 15.09 45.22 17.23 41.82 C 17.46 37.14 15.84 32.57 15.13 27.97 C 16.41 28.33 17.68 28.70 18.96 29.06 C 17.83 26.12 16.85 23.12 15.74 20.18 C 13.43 14.44 13.49 8.16 12.89 2.10 M 15.24 5.78 C 15.41 9.54 15.71 13.39 17.31 16.86 C 19.91 22.49 21.03 28.68 23.94 34.17 C 21.69 33.05 19.44 31.94 17.18 30.84 C 17.81 35.17 19.05 39.45 19.02 43.85 C 18.08 46.67 15.88 48.82 14.10 51.13 C 25.76 65.33 38.02 79.03 50.00 92.97 C 56.24 86.51 60.88 78.33 68.70 73.57 C 72.03 71.50 73.61 67.78 75.58 64.57 C 78.44 59.62 82.49 55.53 85.98 51.05 C 74.24 37.02 62.23 23.19 50.05 9.54 C 47.97 11.71 45.90 13.89 43.85 16.09 C 37.92 13.97 32.28 11.15 26.45 8.79 C 26.84 10.35 27.24 11.91 27.63 13.47 C 23.58 10.78 19.63 7.91 15.24 5.78 Z" />
<path fill="#bababb" opacity="1.00" d=" M 15.24 5.78 C 19.63 7.91 23.58 10.78 27.63 13.47 C 27.24 11.91 26.84 10.35 26.45 8.79 C 32.28 11.15 37.92 13.97 43.85 16.09 C 45.90 13.89 47.97 11.71 50.05 9.54 C 62.23 23.19 74.24 37.02 85.98 51.05 C 82.49 55.53 78.44 59.62 75.58 64.57 C 73.61 67.78 72.03 71.50 68.70 73.57 C 60.88 78.33 56.24 86.51 50.00 92.97 C 38.02 79.03 25.76 65.33 14.10 51.13 C 15.88 48.82 18.08 46.67 19.02 43.85 C 19.05 39.45 17.81 35.17 17.18 30.84 C 19.44 31.94 21.69 33.05 23.94 34.17 C 21.03 28.68 19.91 22.49 17.31 16.86 C 15.71 13.39 15.41 9.54 15.24 5.78 M 17.61 9.54 C 17.92 12.22 18.44 14.89 19.71 17.29 C 21.93 21.46 21.97 26.44 24.64 30.41 C 26.59 33.31 26.32 36.92 26.51 40.25 C 24.01 37.77 21.52 35.27 18.91 32.90 C 19.59 37.27 21.09 41.52 21.34 45.94 C 20.89 47.96 19.36 49.53 18.27 51.24 C 22.36 56.63 27.46 61.22 30.94 67.07 C 33.52 71.41 37.91 74.12 41.15 77.88 C 44.09 81.26 46.91 84.76 50.00 88.00 C 53.46 84.44 56.48 80.50 59.76 76.78 C 62.13 74.00 65.73 72.81 68.42 70.42 C 70.50 68.07 71.80 65.17 73.44 62.53 C 75.82 58.38 78.87 54.67 81.90 51.00 C 71.36 38.62 60.67 26.36 50.05 14.05 C 48.55 15.70 47.05 17.35 45.56 19.01 C 40.57 17.16 35.79 14.81 30.96 12.59 C 31.59 13.74 32.21 14.90 32.85 16.05 C 27.08 15.75 22.16 12.84 17.61 9.54 Z" />
<path fill="#bc532e" opacity="1.00" d=" M 17.61 9.54 C 22.16 12.84 27.08 15.75 32.85 16.05 C 32.21 14.90 31.59 13.74 30.96 12.59 C 35.79 14.81 40.57 17.16 45.56 19.01 C 47.05 17.35 48.55 15.70 50.05 14.05 C 60.67 26.36 71.36 38.62 81.90 51.00 C 78.87 54.67 75.82 58.38 73.44 62.53 C 71.80 65.17 70.50 68.07 68.42 70.42 C 65.73 72.81 62.13 74.00 59.76 76.78 C 56.48 80.50 53.46 84.44 50.00 88.00 C 46.91 84.76 44.09 81.26 41.15 77.88 C 37.91 74.12 33.52 71.41 30.94 67.07 C 27.46 61.22 22.36 56.63 18.27 51.24 C 19.36 49.53 20.89 47.96 21.34 45.94 C 21.09 41.52 19.59 37.27 18.91 32.90 C 21.52 35.27 24.01 37.77 26.51 40.25 C 26.32 36.92 26.59 33.31 24.64 30.41 C 21.97 26.44 21.93 21.46 19.71 17.29 C 18.44 14.89 17.92 12.22 17.61 9.54 M 19.52 13.46 C 21.51 17.98 26.28 19.55 30.47 21.33 C 29.65 22.68 29.05 24.13 28.50 25.60 C 26.81 24.82 25.12 24.03 23.42 23.28 C 24.50 27.20 27.08 30.38 30.42 32.63 C 32.05 33.85 35.18 36.33 32.52 38.18 C 30.97 38.17 29.45 37.81 27.92 37.57 C 29.84 42.82 33.04 47.51 34.64 52.88 C 36.47 48.48 39.46 44.59 40.83 40.00 C 39.20 36.41 35.92 33.95 33.61 30.82 C 36.89 32.02 40.10 33.43 43.35 34.72 C 41.88 32.07 40.52 29.33 38.70 26.90 C 36.68 24.74 33.89 23.54 31.55 21.80 C 37.04 21.52 41.01 26.62 46.46 26.05 C 48.20 29.05 49.03 32.44 49.43 35.85 C 54.17 38.63 59.78 39.51 64.28 42.75 C 66.01 44.17 68.27 43.57 70.30 43.44 C 67.25 41.71 64.18 39.83 62.11 36.93 C 59.50 33.87 60.01 28.94 56.48 26.56 C 51.70 23.45 46.22 21.62 40.92 19.62 C 40.76 20.21 40.46 21.39 40.30 21.98 C 34.37 16.68 25.66 18.28 19.52 13.46 M 22.09 38.91 C 23.19 42.97 23.33 49.82 29.17 49.36 C 29.21 44.63 25.34 41.68 22.09 38.91 M 36.40 59.50 C 38.50 62.86 41.22 65.93 44.39 68.31 C 48.71 68.27 53.07 67.89 57.33 67.15 C 62.40 65.28 64.92 59.88 66.13 54.95 C 63.04 59.21 60.95 64.78 55.47 66.53 C 56.66 62.12 58.90 58.11 61.27 54.24 C 63.12 54.01 64.97 53.79 66.82 53.57 C 66.53 48.10 63.23 42.93 58.20 40.64 C 60.58 44.12 63.20 47.43 65.48 50.97 C 61.33 50.55 55.42 53.22 52.65 48.94 C 53.32 45.94 55.31 43.50 56.86 40.93 C 46.04 37.26 34.47 48.70 36.40 59.50 M 65.34 44.56 C 66.70 47.49 68.75 50.48 68.11 53.88 C 67.33 59.35 64.93 65.12 60.04 68.12 C 57.00 70.18 53.18 69.48 49.73 69.88 C 47.19 69.91 44.17 71.00 42.10 68.97 C 38.69 65.81 34.86 62.30 34.15 57.46 C 33.61 54.46 32.25 51.70 30.71 49.09 C 28.43 53.01 28.34 58.18 31.14 61.87 C 34.59 68.60 40.80 73.87 48.13 75.81 C 54.75 76.26 59.86 71.22 65.29 68.23 C 68.04 65.37 70.69 62.21 72.62 58.72 C 73.02 54.32 72.48 49.62 70.32 45.71 C 68.69 45.19 67.01 44.90 65.34 44.56 Z" />
<path fill="#ffffff" opacity="1.00" d=" M 19.52 13.46 C 25.66 18.28 34.37 16.68 40.30 21.98 C 40.46 21.39 40.76 20.21 40.92 19.62 C 46.22 21.62 51.70 23.45 56.48 26.56 C 60.01 28.94 59.50 33.87 62.11 36.93 C 64.18 39.83 67.25 41.71 70.30 43.44 C 68.27 43.57 66.01 44.17 64.28 42.75 C 59.78 39.51 54.17 38.63 49.43 35.85 C 49.03 32.44 48.20 29.05 46.46 26.05 C 41.01 26.62 37.04 21.52 31.55 21.80 C 33.89 23.54 36.68 24.74 38.70 26.90 C 40.52 29.33 41.88 32.07 43.35 34.72 C 40.10 33.43 36.89 32.02 33.61 30.82 C 35.92 33.95 39.20 36.41 40.83 40.00 C 39.46 44.59 36.47 48.48 34.64 52.88 C 33.04 47.51 29.84 42.82 27.92 37.57 C 29.45 37.81 30.97 38.17 32.52 38.18 C 35.18 36.33 32.05 33.85 30.42 32.63 C 27.08 30.38 24.50 27.20 23.42 23.28 C 25.12 24.03 26.81 24.82 28.50 25.60 C 29.05 24.13 29.65 22.68 30.47 21.33 C 26.28 19.55 21.51 17.98 19.52 13.46 M 52.32 26.48 C 53.56 29.90 53.70 35.02 58.39 35.23 C 58.29 31.24 55.54 28.42 52.32 26.48 Z" />
<path fill="#b6441b" opacity="1.00" d=" M 52.32 26.48 C 55.54 28.42 58.29 31.24 58.39 35.23 C 53.70 35.02 53.56 29.90 52.32 26.48 Z" />
<path fill="#ffffff" opacity="1.00" d=" M 22.09 38.91 C 25.34 41.68 29.21 44.63 29.17 49.36 C 23.33 49.82 23.19 42.97 22.09 38.91 Z" />
<path fill="#fbf5f2" opacity="1.00" d=" M 36.40 59.50 C 34.47 48.70 46.04 37.26 56.86 40.93 C 55.31 43.50 53.32 45.94 52.65 48.94 C 55.42 53.22 61.33 50.55 65.48 50.97 C 63.20 47.43 60.58 44.12 58.20 40.64 C 63.23 42.93 66.53 48.10 66.82 53.57 C 64.97 53.79 63.12 54.01 61.27 54.24 C 58.90 58.11 56.66 62.12 55.47 66.53 C 60.95 64.78 63.04 59.21 66.13 54.95 C 64.92 59.88 62.40 65.28 57.33 67.15 C 53.07 67.89 48.71 68.27 44.39 68.31 C 41.22 65.93 38.50 62.86 36.40 59.50 M 45.96 43.71 C 47.28 45.04 48.62 46.34 49.98 47.62 C 47.59 47.49 44.40 46.20 42.85 48.78 C 40.83 51.71 38.02 54.47 37.34 58.08 C 38.29 60.68 40.54 62.52 42.30 64.59 C 43.78 64.48 45.26 64.38 46.74 64.28 C 45.83 65.22 44.93 66.16 44.03 67.10 C 44.66 67.05 45.93 66.96 46.57 66.91 C 48.58 63.14 51.84 60.34 54.45 57.04 C 55.85 53.49 52.26 51.04 51.02 48.11 C 52.10 45.72 53.69 43.63 55.10 41.43 C 51.90 41.45 48.74 42.08 45.96 43.71 M 44.18 44.20 C 42.84 44.87 42.82 45.54 44.12 46.22 C 45.45 45.55 45.47 44.87 44.18 44.20 M 39.22 50.07 C 37.92 50.80 37.93 51.48 39.25 52.10 C 40.54 51.37 40.53 50.69 39.22 50.07 M 56.65 53.51 C 56.28 54.81 55.99 56.12 55.78 57.46 C 58.14 56.78 59.36 54.49 60.54 52.55 C 59.23 52.64 57.62 52.46 56.65 53.51 M 48.79 66.48 C 53.72 67.04 55.43 61.94 57.06 58.32 C 53.16 59.62 50.44 62.82 48.79 66.48 Z" />
<path fill="#bc532e" opacity="1.00" d=" M 45.96 43.71 C 48.74 42.08 51.90 41.45 55.10 41.43 C 53.69 43.63 52.10 45.72 51.02 48.11 C 52.26 51.04 55.85 53.49 54.45 57.04 C 51.84 60.34 48.58 63.14 46.57 66.91 C 45.93 66.96 44.66 67.05 44.03 67.10 C 44.93 66.16 45.83 65.22 46.74 64.28 C 45.26 64.38 43.78 64.48 42.30 64.59 C 40.54 62.52 38.29 60.68 37.34 58.08 C 38.02 54.47 40.83 51.71 42.85 48.78 C 44.40 46.20 47.59 47.49 49.98 47.62 C 48.62 46.34 47.28 45.04 45.96 43.71 Z" />
<path fill="#b23810" opacity="1.00" d=" M 44.18 44.20 C 45.47 44.87 45.45 45.55 44.12 46.22 C 42.82 45.54 42.84 44.87 44.18 44.20 Z" />
<path fill="#ffffff" opacity="1.00" d=" M 65.34 44.56 C 67.01 44.90 68.69 45.19 70.32 45.71 C 72.48 49.62 73.02 54.32 72.62 58.72 C 70.69 62.21 68.04 65.37 65.29 68.23 C 59.86 71.22 54.75 76.26 48.13 75.81 C 40.80 73.87 34.59 68.60 31.14 61.87 C 28.34 58.18 28.43 53.01 30.71 49.09 C 32.25 51.70 33.61 54.46 34.15 57.46 C 34.86 62.30 38.69 65.81 42.10 68.97 C 44.17 71.00 47.19 69.91 49.73 69.88 C 53.18 69.48 57.00 70.18 60.04 68.12 C 64.93 65.12 67.33 59.35 68.11 53.88 C 68.75 50.48 66.70 47.49 65.34 44.56 Z" />
<path fill="#b33c21" opacity="1.00" d=" M 39.22 50.07 C 40.53 50.69 40.54 51.37 39.25 52.10 C 37.93 51.48 37.92 50.80 39.22 50.07 Z" />
<path fill="#b7441d" opacity="1.00" d=" M 56.65 53.51 C 57.62 52.46 59.23 52.64 60.54 52.55 C 59.36 54.49 58.14 56.78 55.78 57.46 C 55.99 56.12 56.28 54.81 56.65 53.51 Z" />
<path fill="#b6441b" opacity="1.00" d=" M 48.79 66.48 C 50.44 62.82 53.16 59.62 57.06 58.32 C 55.43 61.94 53.72 67.04 48.79 66.48 Z" />
</svg>
