<?xml version="1.0" encoding="UTF-8" ?>
<!DOCTYPE svg PUBLIC "-//W3C//DTD SVG 1.1//EN" "http://www.w3.org/Graphics/SVG/1.1/DTD/svg11.dtd">
<svg width="100pt" height="100pt" viewBox="0 0 100 100" version="1.1" xmlns="http://www.w3.org/2000/svg">
<path fill="#b7c6c5" opacity="1.00" d=" M 23.28 20.38 C 24.01 18.41 24.63 16.34 25.93 14.64 C 41.96 14.41 58.04 14.41 74.07 14.64 C 75.37 16.33 75.99 18.41 76.72 20.38 C 79.44 28.55 82.36 36.64 85.14 44.78 C 88.39 45.00 91.64 45.23 94.86 45.74 C 92.76 48.35 90.44 50.77 87.92 52.96 C 88.29 53.90 88.66 54.84 89.02 55.78 C 92.52 56.70 95.90 58.04 99.02 59.88 C 94.76 63.02 89.57 64.10 84.44 64.83 C 86.71 66.53 89.04 68.13 91.24 69.91 C 86.15 71.20 80.93 71.90 75.68 72.01 C 77.33 73.76 79.02 75.48 80.65 77.26 C 75.74 77.17 70.88 76.56 66.02 75.95 C 64.07 75.59 62.47 76.98 60.89 77.88 C 57.22 80.35 53.61 82.89 50.00 85.43 C 45.26 82.28 40.85 78.56 35.73 76.03 C 30.28 76.00 24.85 77.38 19.35 77.26 C 20.98 75.48 22.68 73.76 24.34 72.01 C 19.08 71.90 13.86 71.21 8.76 69.90 C 10.97 68.13 13.29 66.52 15.56 64.83 C 10.43 64.10 5.24 63.01 0.98 59.88 C 4.10 58.04 7.48 56.70 10.98 55.78 C 11.34 54.84 11.71 53.90 12.08 52.96 C 9.55 50.77 7.24 48.35 5.14 45.74 C 8.36 45.23 11.61 45.00 14.86 44.78 C 17.64 36.64 20.56 28.55 23.28 20.38 M 17.20 47.43 C 14.32 47.23 11.43 47.16 8.54 47.08 C 10.78 49.01 13.14 50.80 15.54 52.52 C 14.98 54.16 14.42 55.79 13.87 57.43 C 10.62 58.13 7.38 58.93 4.22 59.97 C 10.00 62.29 16.21 63.02 22.31 64.04 C 19.31 65.59 16.31 67.15 13.43 68.93 C 18.93 70.08 24.56 70.23 30.16 70.09 C 28.28 71.72 26.40 73.36 24.59 75.07 C 28.96 74.82 33.29 73.52 37.67 73.78 C 42.20 75.68 45.86 79.13 50.00 81.71 C 54.14 79.13 57.81 75.68 62.33 73.78 C 66.72 73.52 71.04 74.83 75.41 75.07 C 73.60 73.36 71.72 71.72 69.84 70.09 C 75.44 70.22 81.07 70.07 86.57 68.93 C 83.70 67.15 80.70 65.59 77.70 64.04 C 83.79 63.02 90.00 62.30 95.77 59.97 C 92.61 58.93 89.38 58.12 86.13 57.42 C 85.58 55.79 85.02 54.16 84.46 52.52 C 86.86 50.80 89.22 49.01 91.46 47.08 C 88.57 47.16 85.68 47.23 82.80 47.42 C 79.23 37.48 75.97 27.43 72.22 17.56 C 57.41 17.70 42.59 17.69 27.77 17.56 C 24.03 27.44 20.77 37.49 17.20 47.43 Z" />
<path fill="#c40f24" opacity="1.00" d=" M 17.20 47.43 C 20.77 37.49 24.03 27.44 27.77 17.56 C 42.59 17.69 57.41 17.70 72.22 17.56 C 75.97 27.43 79.23 37.48 82.80 47.42 C 85.68 47.23 88.57 47.16 91.46 47.08 C 89.22 49.01 86.86 50.80 84.46 52.52 C 85.02 54.16 85.58 55.79 86.13 57.42 C 89.38 58.12 92.61 58.93 95.77 59.97 C 90.00 62.30 83.79 63.02 77.70 64.04 C 80.70 65.59 83.70 67.15 86.57 68.93 C 81.07 70.07 75.44 70.22 69.84 70.09 C 71.72 71.72 73.60 73.36 75.41 75.07 C 71.04 74.83 66.72 73.52 62.33 73.78 C 57.81 75.68 54.14 79.13 50.00 81.71 C 45.86 79.13 42.20 75.68 37.67 73.78 C 33.29 73.52 28.96 74.82 24.59 75.07 C 26.40 73.36 28.28 71.72 30.16 70.09 C 24.56 70.23 18.93 70.08 13.43 68.93 C 16.31 67.15 19.31 65.59 22.31 64.04 C 16.21 63.02 10.00 62.29 4.22 59.97 C 7.38 58.93 10.62 58.13 13.87 57.43 C 14.42 55.79 14.98 54.16 15.54 52.52 C 13.14 50.80 10.78 49.01 8.54 47.08 C 11.43 47.16 14.32 47.23 17.20 47.43 M 41.04 21.55 C 40.20 23.20 39.62 25.03 38.33 26.39 C 35.84 27.87 32.82 27.94 30.05 28.51 C 29.76 36.98 32.57 45.17 36.48 52.57 C 38.22 55.82 41.00 58.35 44.11 60.27 C 47.19 63.09 52.91 63.38 55.90 60.26 C 59.17 58.16 62.08 55.41 63.87 51.91 C 67.52 44.69 70.17 36.78 69.98 28.60 C 67.18 28.03 64.14 27.97 61.65 26.44 C 60.43 25.04 59.83 23.23 59.03 21.58 C 53.06 20.76 47.01 20.72 41.04 21.55 M 24.14 38.83 C 25.62 43.37 27.54 47.75 29.20 52.22 C 23.40 50.95 17.69 49.31 11.86 48.17 C 18.79 52.12 26.29 54.92 33.30 58.71 C 25.35 59.42 17.32 58.94 9.41 60.08 C 21.08 62.14 32.92 62.96 44.67 64.40 C 41.14 61.25 37.44 58.23 34.55 54.46 C 30.56 49.60 27.71 43.97 24.14 38.83 M 65.45 54.46 C 62.56 58.23 58.86 61.25 55.33 64.40 C 67.07 62.96 78.90 62.16 90.55 60.09 C 82.66 58.92 74.64 59.42 66.70 58.70 C 73.71 54.92 81.21 52.12 88.14 48.17 C 82.31 49.31 76.60 50.95 70.80 52.22 C 72.46 47.75 74.38 43.37 75.86 38.83 C 72.29 43.98 69.44 49.61 65.45 54.46 M 19.37 68.00 C 26.57 68.45 33.90 67.80 40.65 65.11 C 37.20 64.67 33.71 64.06 30.23 64.42 C 26.44 64.99 22.86 66.48 19.37 68.00 M 59.35 65.11 C 66.10 67.80 73.43 68.45 80.63 68.00 C 77.86 66.78 75.04 65.63 72.10 64.88 C 67.92 63.72 63.55 64.60 59.35 65.11 M 41.38 67.36 C 37.46 69.12 33.51 70.86 29.76 72.99 C 35.48 71.94 41.04 70.19 46.69 68.80 C 47.79 71.47 48.82 74.17 50.00 76.81 C 51.17 74.17 52.21 71.47 53.32 68.80 C 58.96 70.19 64.52 71.95 70.24 72.99 C 66.71 70.98 63.00 69.34 59.30 67.66 C 53.82 64.83 46.95 64.66 41.38 67.36 Z" />
<path fill="#ffffff" opacity="1.00" d=" M 41.04 21.55 C 47.01 20.72 53.06 20.76 59.03 21.58 C 59.83 23.23 60.43 25.04 61.65 26.44 C 64.14 27.97 67.18 28.03 69.98 28.60 C 70.17 36.78 67.52 44.69 63.87 51.91 C 62.08 55.41 59.17 58.16 55.90 60.26 C 56.82 59.17 57.70 58.06 58.59 56.94 C 55.73 58.01 52.98 59.63 49.90 59.91 C 46.86 59.70 44.17 58.03 41.37 56.97 C 42.27 58.08 43.17 59.19 44.11 60.27 C 41.00 58.35 38.22 55.82 36.48 52.57 C 32.57 45.17 29.76 36.98 30.05 28.51 C 32.82 27.94 35.84 27.87 38.33 26.39 C 39.62 25.03 40.20 23.20 41.04 21.55 M 33.00 31.46 C 33.59 34.88 34.13 38.34 35.46 41.57 C 38.10 48.41 43.83 53.37 49.92 57.13 C 54.73 54.01 59.52 50.49 62.49 45.46 C 65.17 41.30 66.20 36.39 66.98 31.57 C 64.11 30.50 60.93 29.71 58.78 27.36 C 57.26 26.07 56.10 24.01 53.94 23.77 C 50.70 23.34 47.43 23.58 44.18 23.79 C 41.88 28.09 37.53 30.27 33.00 31.46 Z" />
<path fill="#bb0002" opacity="1.00" d=" M 33.00 31.46 C 37.53 30.27 41.88 28.09 44.18 23.79 C 47.43 23.58 50.70 23.34 53.94 23.77 C 56.10 24.01 57.26 26.07 58.78 27.36 C 60.93 29.71 64.11 30.50 66.98 31.57 C 66.20 36.39 65.17 41.30 62.49 45.46 C 59.52 50.49 54.73 54.01 49.92 57.13 C 43.83 53.37 38.10 48.41 35.46 41.57 C 34.13 38.34 33.59 34.88 33.00 31.46 M 44.65 27.71 C 42.07 30.14 39.02 31.97 35.84 33.50 C 36.86 37.42 37.90 41.43 40.21 44.82 C 42.68 48.60 46.33 51.35 49.89 54.02 C 53.34 51.46 56.89 48.88 59.36 45.31 C 61.90 41.85 63.05 37.66 64.11 33.57 C 60.93 32.04 57.92 30.16 55.34 27.72 C 52.59 24.88 47.41 24.86 44.65 27.71 Z" />
<path fill="#ffffff" opacity="1.00" d=" M 44.65 27.71 C 47.41 24.86 52.59 24.88 55.34 27.72 C 57.92 30.16 60.93 32.04 64.11 33.57 C 63.05 37.66 61.90 41.85 59.36 45.31 C 56.89 48.88 53.34 51.46 49.89 54.02 C 46.33 51.35 42.68 48.60 40.21 44.82 C 37.90 41.43 36.86 37.42 35.84 33.50 C 39.02 31.97 42.07 30.14 44.65 27.71 Z" />
<path fill="#ffffff" opacity="1.00" d=" M 24.14 38.83 C 27.71 43.97 30.56 49.60 34.55 54.46 C 37.44 58.23 41.14 61.25 44.67 64.40 C 32.92 62.96 21.08 62.14 9.41 60.08 C 17.32 58.94 25.35 59.42 33.30 58.71 C 26.29 54.92 18.79 52.12 11.86 48.17 C 17.69 49.31 23.40 50.95 29.20 52.22 C 27.54 47.75 25.62 43.37 24.14 38.83 Z" />
<path fill="#ffffff" opacity="1.00" d=" M 65.45 54.46 C 69.44 49.61 72.29 43.98 75.86 38.83 C 74.38 43.37 72.46 47.75 70.80 52.22 C 76.60 50.95 82.31 49.31 88.14 48.17 C 81.21 52.12 73.71 54.92 66.70 58.70 C 74.64 59.42 82.66 58.92 90.55 60.09 C 78.90 62.16 67.07 62.96 55.33 64.40 C 58.86 61.25 62.56 58.23 65.45 54.46 Z" />
<path fill="#b7c6c5" opacity="1.00" d=" M 41.37 56.97 C 44.17 58.03 46.86 59.70 49.90 59.91 C 52.98 59.63 55.73 58.01 58.59 56.94 C 57.70 58.06 56.82 59.17 55.90 60.26 C 52.91 63.38 47.19 63.09 44.11 60.27 C 43.17 59.19 42.27 58.08 41.37 56.97 Z" />
<path fill="#ffffff" opacity="1.00" d=" M 19.37 68.00 C 22.86 66.48 26.44 64.99 30.23 64.42 C 33.71 64.06 37.20 64.67 40.65 65.11 C 33.90 67.80 26.57 68.45 19.37 68.00 Z" />
<path fill="#ffffff" opacity="1.00" d=" M 59.35 65.11 C 63.55 64.60 67.92 63.72 72.10 64.88 C 75.04 65.63 77.86 66.78 80.63 68.00 C 73.43 68.45 66.10 67.80 59.35 65.11 Z" />
<path fill="#ffffff" opacity="1.00" d=" M 41.38 67.36 C 46.95 64.66 53.82 64.83 59.30 67.66 C 63.00 69.34 66.71 70.98 70.24 72.99 C 64.52 71.95 58.96 70.19 53.32 68.80 C 52.21 71.47 51.17 74.17 50.00 76.81 C 48.82 74.17 47.79 71.47 46.69 68.80 C 41.04 70.19 35.48 71.94 29.76 72.99 C 33.51 70.86 37.46 69.12 41.38 67.36 Z" />
</svg>
