<?xml version="1.0" encoding="UTF-8" ?>
<!DOCTYPE svg PUBLIC "-//W3C//DTD SVG 1.1//EN" "http://www.w3.org/Graphics/SVG/1.1/DTD/svg11.dtd">
<svg width="100pt" height="100pt" viewBox="0 0 100 100" version="1.1" xmlns="http://www.w3.org/2000/svg">
<path fill="#ffffff" opacity="1.00" d=" M 42.46 12.61 C 60.89 8.25 81.24 20.57 86.41 38.73 C 91.91 54.41 84.75 73.01 70.92 81.88 C 61.53 87.92 49.45 90.23 38.77 86.42 C 20.06 81.14 7.61 59.75 12.96 40.95 C 16.23 26.82 28.24 15.36 42.46 12.61 M 45.40 15.59 C 37.43 16.59 29.92 20.57 24.51 26.49 C 13.62 37.85 12.21 56.79 21.39 69.59 C 30.12 82.91 48.53 88.43 63.16 82.14 C 78.51 76.10 87.89 58.23 83.82 42.18 C 80.21 25.23 62.59 12.86 45.40 15.59 Z" />
<path fill="#482b46" opacity="1.00" d=" M 45.40 15.59 C 62.59 12.86 80.21 25.23 83.82 42.18 C 87.89 58.23 78.51 76.10 63.16 82.14 C 48.53 88.43 30.12 82.91 21.39 69.59 C 12.21 56.79 13.62 37.85 24.51 26.49 C 29.92 20.57 37.43 16.59 45.40 15.59 M 45.12 26.63 C 43.62 25.86 42.13 25.07 40.64 24.28 C 40.25 25.64 39.86 27.00 39.45 28.36 C 37.22 27.49 35.09 26.39 32.93 25.36 C 33.26 27.45 33.57 29.54 33.83 31.63 C 32.32 31.87 30.80 32.10 29.28 32.32 C 29.19 33.65 29.10 34.99 29.01 36.33 C 26.76 36.31 24.51 36.25 22.27 36.16 C 23.60 37.99 24.89 39.85 26.14 41.74 C 24.99 42.61 23.83 43.47 22.67 44.32 C 23.22 45.54 23.77 46.77 24.31 48.00 C 22.55 49.11 20.77 50.20 18.98 51.27 C 20.54 52.20 22.10 53.14 23.65 54.11 C 23.98 56.70 24.76 59.21 26.01 61.51 C 25.15 62.98 24.25 64.44 23.36 65.89 C 25.17 65.87 26.99 65.86 28.80 65.85 C 31.36 68.55 34.44 71.20 34.54 75.22 C 39.47 72.96 45.63 74.78 48.57 79.33 C 50.90 75.66 55.37 75.61 59.11 74.50 C 60.66 75.59 62.18 76.70 63.71 77.82 C 63.76 75.60 63.83 73.39 63.95 71.18 C 65.38 71.23 66.81 71.30 68.24 71.38 C 68.60 69.91 68.98 68.45 69.37 67.00 C 71.95 67.39 74.52 67.91 77.07 68.49 C 75.53 66.22 74.06 63.91 72.73 61.51 C 74.26 60.97 75.79 60.43 77.34 59.92 C 76.68 58.32 76.01 56.71 75.58 55.03 C 77.82 53.34 80.52 52.46 83.10 51.47 C 80.51 50.34 77.93 49.16 75.42 47.86 C 76.44 46.39 77.49 44.93 78.57 43.50 C 76.81 42.54 74.52 42.06 73.56 40.12 C 74.95 37.56 76.95 35.42 78.88 33.26 C 75.94 34.08 72.97 34.75 69.97 35.25 C 69.86 33.56 69.78 31.88 69.71 30.19 C 67.92 30.36 66.14 30.51 64.35 30.63 C 64.40 28.07 64.53 25.50 64.73 22.94 C 62.70 24.56 60.64 26.15 58.46 27.58 C 57.66 26.19 56.87 24.79 56.08 23.39 C 54.62 24.40 53.15 25.39 51.64 26.32 C 50.51 24.29 49.41 22.24 48.34 20.17 C 47.31 22.34 46.25 24.50 45.12 26.63 Z" />
<path fill="#ffffff" opacity="1.00" d=" M 45.12 26.63 C 46.25 24.50 47.31 22.34 48.34 20.17 C 49.41 22.24 50.51 24.29 51.64 26.32 C 53.15 25.39 54.62 24.40 56.08 23.39 C 56.87 24.79 57.66 26.19 58.46 27.58 C 60.64 26.15 62.70 24.56 64.73 22.94 C 64.53 25.50 64.40 28.07 64.35 30.63 C 66.14 30.51 67.92 30.36 69.71 30.19 C 69.78 31.88 69.86 33.56 69.97 35.25 C 72.97 34.75 75.94 34.08 78.88 33.26 C 76.95 35.42 74.95 37.56 73.56 40.12 C 74.52 42.06 76.81 42.54 78.57 43.50 C 77.49 44.93 76.44 46.39 75.42 47.86 C 77.93 49.16 80.51 50.34 83.10 51.47 C 80.52 52.46 77.82 53.34 75.58 55.03 C 76.01 56.71 76.68 58.32 77.34 59.92 C 75.79 60.43 74.26 60.97 72.73 61.51 C 74.06 63.91 75.53 66.22 77.07 68.49 C 74.52 67.91 71.95 67.39 69.37 67.00 C 68.98 68.45 68.60 69.91 68.24 71.38 C 66.81 71.30 65.38 71.23 63.95 71.18 C 63.83 73.39 63.76 75.60 63.71 77.82 C 62.18 76.70 60.66 75.59 59.11 74.50 C 55.37 75.61 50.90 75.66 48.57 79.33 C 45.63 74.78 39.47 72.96 34.54 75.22 C 34.44 71.20 31.36 68.55 28.80 65.85 C 26.99 65.86 25.17 65.87 23.36 65.89 C 24.25 64.44 25.15 62.98 26.01 61.51 C 24.76 59.21 23.98 56.70 23.65 54.11 C 22.10 53.14 20.54 52.20 18.98 51.27 C 20.77 50.20 22.55 49.11 24.31 48.00 C 23.77 46.77 23.22 45.54 22.67 44.32 C 23.83 43.47 24.99 42.61 26.14 41.74 C 24.89 39.85 23.60 37.99 22.27 36.16 C 24.51 36.25 26.76 36.31 29.01 36.33 C 29.10 34.99 29.19 33.65 29.28 32.32 C 30.80 32.10 32.32 31.87 33.83 31.63 C 33.57 29.54 33.26 27.45 32.93 25.36 C 35.09 26.39 37.22 27.49 39.45 28.36 C 39.86 27.00 40.25 25.64 40.64 24.28 C 42.13 25.07 43.62 25.86 45.12 26.63 M 48.29 24.33 C 46.81 26.16 45.51 28.26 43.45 29.48 C 40.78 30.38 37.95 29.36 35.27 28.98 C 35.60 31.83 35.76 34.69 35.71 37.56 C 32.58 38.16 29.41 38.50 26.23 38.58 C 26.88 40.85 28.01 43.16 27.64 45.58 C 26.76 47.97 24.72 49.66 23.08 51.51 C 25.74 53.15 29.23 54.30 30.57 57.36 C 30.76 59.74 28.99 61.76 28.02 63.83 C 30.04 64.78 32.28 65.45 33.93 67.02 C 35.11 68.59 35.71 70.49 36.48 72.28 C 39.04 71.31 41.69 69.59 44.52 70.27 C 46.53 71.60 47.59 73.86 48.88 75.82 C 50.88 74.52 52.78 72.79 55.20 72.36 C 57.34 72.32 59.37 73.08 61.41 73.63 C 61.81 70.66 61.05 66.70 63.83 64.71 C 66.57 63.87 69.39 65.07 72.07 65.64 C 71.42 62.91 70.06 60.06 70.84 57.22 C 72.36 54.71 75.21 53.52 77.56 51.95 C 74.55 50.24 70.60 49.11 69.01 45.74 C 68.55 42.00 71.99 39.36 74.11 36.71 C 71.08 36.50 67.59 37.02 65.04 35.03 C 63.09 32.88 63.22 29.73 62.66 27.05 C 60.29 28.53 58.00 30.60 55.10 30.82 C 51.74 30.27 50.17 26.77 48.29 24.33 Z" />
<path fill="#482b46" opacity="1.00" d=" M 48.29 24.33 C 50.17 26.77 51.74 30.27 55.10 30.82 C 58.00 30.60 60.29 28.53 62.66 27.05 C 63.22 29.73 63.09 32.88 65.04 35.03 C 67.59 37.02 71.08 36.50 74.11 36.71 C 71.99 39.36 68.55 42.00 69.01 45.74 C 70.60 49.11 74.55 50.24 77.56 51.95 C 75.21 53.52 72.36 54.71 70.84 57.22 C 70.06 60.06 71.42 62.91 72.07 65.64 C 69.39 65.07 66.57 63.87 63.83 64.71 C 61.05 66.70 61.81 70.66 61.41 73.63 C 59.37 73.08 57.34 72.32 55.20 72.36 C 52.78 72.79 50.88 74.52 48.88 75.82 C 47.59 73.86 46.53 71.60 44.52 70.27 C 41.69 69.59 39.04 71.31 36.48 72.28 C 35.71 70.49 35.11 68.59 33.93 67.02 C 32.28 65.45 30.04 64.78 28.02 63.83 C 28.99 61.76 30.76 59.74 30.57 57.36 C 29.23 54.30 25.74 53.15 23.08 51.51 C 24.72 49.66 26.76 47.97 27.64 45.58 C 28.01 43.16 26.88 40.85 26.23 38.58 C 29.41 38.50 32.58 38.16 35.71 37.56 C 35.76 34.69 35.60 31.83 35.27 28.98 C 37.95 29.36 40.78 30.38 43.45 29.48 C 45.51 28.26 46.81 26.16 48.29 24.33 M 48.61 32.96 C 48.91 36.43 50.32 40.69 47.26 43.37 C 45.76 43.20 44.27 43.04 42.77 42.87 C 44.66 42.24 46.54 41.61 48.41 40.94 C 47.95 38.39 47.46 35.84 46.89 33.30 C 40.51 35.50 36.32 42.36 36.58 49.00 L 37.45 48.44 C 38.42 49.18 39.38 49.91 40.35 50.66 C 38.44 50.71 36.53 50.77 34.63 50.88 C 34.94 52.93 34.97 55.09 35.91 56.98 C 37.58 57.78 39.42 58.11 41.19 58.59 C 40.08 59.30 38.98 60.02 37.88 60.74 C 39.60 62.55 41.46 64.22 43.41 65.78 L 43.37 64.94 C 43.24 62.70 43.14 60.46 43.02 58.22 C 40.70 56.95 38.34 55.76 36.09 54.36 C 39.04 54.89 41.92 55.90 44.92 56.14 C 47.53 55.65 47.48 52.23 48.51 50.27 C 47.43 49.27 46.34 48.27 45.25 47.29 C 45.62 46.87 46.36 46.03 46.73 45.60 C 47.85 47.21 49.38 48.80 48.98 50.94 C 48.51 56.57 49.17 62.23 48.54 67.85 C 49.51 67.85 50.49 67.85 51.46 67.85 C 50.83 62.23 51.50 56.58 51.01 50.95 C 50.61 48.79 52.16 47.19 53.30 45.59 C 53.66 46.02 54.37 46.87 54.72 47.30 C 53.64 48.29 52.56 49.28 51.49 50.28 C 52.32 52.21 52.61 54.61 54.28 56.03 C 57.56 56.26 60.70 54.85 63.91 54.36 C 61.66 55.76 59.30 56.95 56.98 58.21 C 56.86 60.45 56.75 62.70 56.63 64.94 L 56.59 65.78 C 58.54 64.22 60.40 62.54 62.13 60.74 C 61.02 60.02 59.91 59.31 58.81 58.60 C 60.58 58.12 62.41 57.77 64.09 56.99 C 65.03 55.09 65.06 52.93 65.37 50.88 C 63.47 50.77 61.56 50.72 59.66 50.66 C 60.62 49.92 61.58 49.18 62.55 48.44 L 63.42 48.99 C 63.68 42.36 59.49 35.51 53.11 33.31 C 52.54 35.84 52.05 38.39 51.59 40.95 C 53.46 41.62 55.34 42.25 57.23 42.87 C 55.73 43.04 54.24 43.20 52.74 43.37 C 49.66 40.69 51.09 36.43 51.40 32.95 C 50.47 32.95 49.54 32.96 48.61 32.96 M 35.12 48.27 C 33.64 51.28 38.46 48.35 35.12 48.27 M 64.06 48.25 C 62.44 51.20 67.39 48.48 64.06 48.25 M 45.17 56.17 C 44.47 59.07 43.93 62.01 43.37 64.94 C 44.66 63.30 45.91 61.63 47.19 59.98 C 46.40 62.60 45.52 65.19 44.70 67.81 C 46.37 66.23 48.59 64.61 48.11 61.99 C 48.42 59.57 46.55 57.86 45.17 56.17 M 51.89 61.99 C 51.41 64.62 53.64 66.23 55.31 67.81 C 54.49 65.19 53.59 62.60 52.81 59.98 C 54.09 61.63 55.34 63.30 56.63 64.94 C 56.07 62.01 55.53 59.07 54.84 56.18 C 53.45 57.86 51.57 59.57 51.89 61.99 Z" />
<path fill="#ffffff" opacity="1.00" d=" M 48.61 32.96 C 49.54 32.96 50.47 32.95 51.40 32.95 C 51.09 36.43 49.66 40.69 52.74 43.37 C 53.68 44.38 54.66 45.35 55.69 46.27 C 54.03 49.18 53.35 52.48 54.79 55.63 C 55.94 55.08 57.09 54.53 58.24 53.98 C 56.86 53.00 55.50 52.02 54.14 51.03 C 55.56 50.09 56.97 49.13 58.44 48.27 L 59.31 48.13 C 59.73 47.95 60.57 47.61 60.99 47.44 C 61.38 47.69 62.16 48.19 62.55 48.44 C 61.58 49.18 60.62 49.92 59.66 50.66 C 61.56 50.72 63.47 50.77 65.37 50.88 C 65.06 52.93 65.03 55.09 64.09 56.99 C 62.41 57.77 60.58 58.12 58.81 58.60 C 59.91 59.31 61.02 60.02 62.13 60.74 C 60.40 62.54 58.54 64.22 56.59 65.78 L 56.63 64.94 C 56.75 62.70 56.86 60.45 56.98 58.21 C 59.30 56.95 61.66 55.76 63.91 54.36 C 60.70 54.85 57.56 56.26 54.28 56.03 C 52.61 54.61 52.32 52.21 51.49 50.28 C 52.56 49.28 53.64 48.29 54.72 47.30 C 54.37 46.87 53.66 46.02 53.30 45.59 C 52.16 47.19 50.61 48.79 51.01 50.95 C 51.50 56.58 50.83 62.23 51.46 67.85 C 50.49 67.85 49.51 67.85 48.54 67.85 C 49.17 62.23 48.51 56.57 48.98 50.94 C 49.38 48.80 47.85 47.21 46.73 45.60 C 46.36 46.03 45.62 46.87 45.25 47.29 C 46.34 48.27 47.43 49.27 48.51 50.27 C 47.48 52.23 47.53 55.65 44.92 56.14 C 41.92 55.90 39.04 54.89 36.09 54.36 C 38.34 55.76 40.70 56.95 43.02 58.22 C 43.14 60.46 43.24 62.70 43.37 64.94 L 43.41 65.78 C 41.46 64.22 39.60 62.55 37.88 60.74 C 38.98 60.02 40.08 59.30 41.19 58.59 C 39.42 58.11 37.58 57.78 35.91 56.98 C 34.97 55.09 34.94 52.93 34.63 50.88 C 36.53 50.77 38.44 50.71 40.35 50.66 C 39.38 49.91 38.42 49.18 37.45 48.44 C 37.84 48.19 38.62 47.69 39.01 47.43 C 39.43 47.61 40.27 47.95 40.69 48.13 L 41.56 48.27 C 43.03 49.14 44.44 50.09 45.86 51.04 C 44.50 52.03 43.13 53.00 41.76 53.98 C 42.91 54.53 44.06 55.08 45.21 55.63 C 46.65 52.48 45.97 49.18 44.31 46.27 C 45.34 45.36 46.32 44.38 47.26 43.37 C 50.32 40.69 48.91 36.43 48.61 32.96 M 47.75 45.37 C 49.25 45.38 50.75 45.38 52.25 45.37 C 51.50 44.50 50.75 43.63 50.00 42.76 C 49.25 43.63 48.50 44.49 47.75 45.37 Z" />
<path fill="#d1bfcf" opacity="1.00" d=" M 36.58 49.00 C 36.32 42.36 40.51 35.50 46.89 33.30 C 47.46 35.84 47.95 38.39 48.41 40.94 C 46.54 41.61 44.66 42.24 42.77 42.87 C 44.27 43.04 45.76 43.20 47.26 43.37 C 46.32 44.38 45.34 45.36 44.31 46.27 C 43.41 46.97 42.50 47.63 41.56 48.27 L 40.69 48.13 C 40.90 46.62 40.34 46.39 39.01 47.43 C 38.62 47.69 37.84 48.19 37.45 48.44 L 36.58 49.00 M 43.40 36.01 C 44.28 36.90 45.16 37.79 46.01 38.72 C 44.29 39.38 42.56 40.00 40.83 40.63 C 42.72 40.76 44.61 40.85 46.50 40.98 C 46.57 39.13 46.54 37.26 46.49 35.41 C 45.46 35.61 44.43 35.81 43.40 36.01 Z" />
<path fill="#d1bfcf" opacity="1.00" d=" M 53.11 33.31 C 59.49 35.51 63.68 42.36 63.42 48.99 L 62.55 48.44 C 62.16 48.19 61.38 47.69 60.99 47.44 C 59.66 46.39 59.10 46.62 59.31 48.13 L 58.44 48.27 C 57.50 47.63 56.59 46.97 55.69 46.27 C 54.66 45.35 53.68 44.38 52.74 43.37 C 54.24 43.20 55.73 43.04 57.23 42.87 C 55.34 42.25 53.46 41.62 51.59 40.95 C 52.05 38.39 52.54 35.84 53.11 33.31 M 53.51 35.41 C 53.46 37.27 53.43 39.13 53.50 40.99 C 55.39 40.86 57.28 40.76 59.17 40.63 C 57.44 40.00 55.70 39.38 53.99 38.72 C 54.84 37.79 55.72 36.91 56.60 36.01 C 55.57 35.81 54.54 35.61 53.51 35.41 Z" />
<path fill="#482b46" opacity="1.00" d=" M 43.40 36.01 C 44.43 35.81 45.46 35.61 46.49 35.41 C 46.54 37.26 46.57 39.13 46.50 40.98 C 44.61 40.85 42.72 40.76 40.83 40.63 C 42.56 40.00 44.29 39.38 46.01 38.72 C 45.16 37.79 44.28 36.90 43.40 36.01 Z" />
<path fill="#482b46" opacity="1.00" d=" M 53.51 35.41 C 54.54 35.61 55.57 35.81 56.60 36.01 C 55.72 36.91 54.84 37.79 53.99 38.72 C 55.70 39.38 57.44 40.00 59.17 40.63 C 57.28 40.76 55.39 40.86 53.50 40.99 C 53.43 39.13 53.46 37.27 53.51 35.41 Z" />
<path fill="#482b46" opacity="1.00" d=" M 47.75 45.37 C 48.50 44.49 49.25 43.63 50.00 42.76 C 50.75 43.63 51.50 44.50 52.25 45.37 C 50.75 45.38 49.25 45.38 47.75 45.37 Z" />
<path fill="#482b46" opacity="1.00" d=" M 41.56 48.27 C 42.50 47.63 43.41 46.97 44.31 46.27 C 45.97 49.18 46.65 52.48 45.21 55.63 C 44.06 55.08 42.91 54.53 41.76 53.98 C 43.13 53.00 44.50 52.03 45.86 51.04 C 44.44 50.09 43.03 49.14 41.56 48.27 Z" />
<path fill="#482b46" opacity="1.00" d=" M 55.69 46.27 C 56.59 46.97 57.50 47.63 58.44 48.27 C 56.97 49.13 55.56 50.09 54.14 51.03 C 55.50 52.02 56.86 53.00 58.24 53.98 C 57.09 54.53 55.94 55.08 54.79 55.63 C 53.35 52.48 54.03 49.18 55.69 46.27 Z" />
<path fill="#380e35" opacity="1.00" d=" M 39.01 47.43 C 40.34 46.39 40.90 46.62 40.69 48.13 C 40.27 47.95 39.43 47.61 39.01 47.43 Z" />
<path fill="#380e35" opacity="1.00" d=" M 59.31 48.13 C 59.10 46.62 59.66 46.39 60.99 47.44 C 60.57 47.61 59.73 47.95 59.31 48.13 Z" />
<path fill="#f4eaf4" opacity="1.00" d=" M 35.12 48.27 C 38.46 48.35 33.64 51.28 35.12 48.27 Z" />
<path fill="#f3e8f3" opacity="1.00" d=" M 64.06 48.25 C 67.39 48.48 62.44 51.20 64.06 48.25 Z" />
<path fill="#ffffff" opacity="1.00" d=" M 45.17 56.17 C 46.55 57.86 48.42 59.57 48.11 61.99 C 48.59 64.61 46.37 66.23 44.70 67.81 C 45.52 65.19 46.40 62.60 47.19 59.98 C 45.91 61.63 44.66 63.30 43.37 64.94 C 43.93 62.01 44.47 59.07 45.17 56.17 Z" />
<path fill="#ffffff" opacity="1.00" d=" M 51.89 61.99 C 51.57 59.57 53.45 57.86 54.84 56.18 C 55.53 59.07 56.07 62.01 56.63 64.94 C 55.34 63.30 54.09 61.63 52.81 59.98 C 53.59 62.60 54.49 65.19 55.31 67.81 C 53.64 66.23 51.41 64.62 51.89 61.99 Z" />
</svg>
