<?xml version="1.0" encoding="UTF-8" ?>
<!DOCTYPE svg PUBLIC "-//W3C//DTD SVG 1.1//EN" "http://www.w3.org/Graphics/SVG/1.1/DTD/svg11.dtd">
<svg width="100pt" height="100pt" viewBox="0 0 100 100" version="1.1" xmlns="http://www.w3.org/2000/svg">
<path fill="#ffffff" opacity="1.00" d=" M 54.09 1.30 C 55.46 0.97 56.84 0.65 58.21 0.32 C 62.15 3.88 66.20 7.34 69.99 11.06 C 72.51 13.45 72.68 17.15 73.42 20.32 C 78.97 17.67 84.39 14.74 89.85 11.91 C 87.00 17.26 84.15 22.62 81.28 27.97 C 86.25 35.65 89.05 44.90 87.90 54.07 C 87.31 60.60 84.64 66.72 81.15 72.19 C 84.12 78.37 87.69 84.24 90.54 90.47 C 84.30 87.60 78.34 84.17 72.20 81.10 C 64.30 86.47 54.50 89.18 44.98 87.78 C 38.85 87.08 33.12 84.51 27.95 81.25 C 22.85 84.06 17.82 86.98 12.62 89.59 C 14.83 84.25 17.54 79.13 20.05 73.93 C 14.26 65.89 10.83 55.90 12.10 45.93 C 12.69 39.08 15.66 32.73 19.32 27.00 C 16.31 21.52 13.42 15.98 10.26 10.59 C 15.92 13.35 21.46 16.36 27.05 19.27 C 34.79 13.98 44.09 11.34 53.46 11.81 C 53.44 8.30 53.58 4.78 54.09 1.30 M 55.97 2.28 C 55.48 6.68 55.45 11.10 55.55 15.52 C 50.82 15.31 46.00 15.11 41.39 16.37 C 36.85 17.51 32.77 19.88 28.79 22.26 C 24.38 20.19 20.09 17.88 15.68 15.79 C 17.85 20.13 20.22 24.37 22.32 28.74 C 18.18 35.05 15.07 42.32 15.29 50.00 C 15.04 58.08 18.50 65.67 23.00 72.19 C 21.13 76.28 19.15 80.31 17.44 84.46 C 21.48 82.58 25.38 80.43 29.24 78.22 C 34.80 81.27 40.67 84.25 47.13 84.59 C 55.60 85.55 63.78 82.39 70.89 78.08 C 75.72 80.65 80.51 83.29 85.53 85.47 C 83.36 80.47 80.69 75.71 78.11 70.92 C 80.12 67.20 82.24 63.48 83.41 59.39 C 85.87 50.85 84.87 41.34 80.45 33.60 C 79.78 31.85 77.98 29.94 79.06 28.01 C 80.78 24.18 83.03 20.62 84.88 16.86 C 80.64 18.99 76.44 21.19 72.15 23.21 C 69.26 21.42 66.34 19.53 64.35 16.69 C 66.71 16.66 69.07 16.70 71.42 16.69 C 67.50 10.83 62.26 5.55 55.97 2.28 Z" />
<path fill="#482b46" opacity="1.00" d=" M 55.97 2.28 C 62.26 5.55 67.50 10.83 71.42 16.69 C 69.07 16.70 66.71 16.66 64.35 16.69 C 66.34 19.53 69.26 21.42 72.15 23.21 C 76.44 21.19 80.64 18.99 84.88 16.86 C 83.03 20.62 80.78 24.18 79.06 28.01 C 77.98 29.94 79.78 31.85 80.45 33.60 C 84.87 41.34 85.87 50.85 83.41 59.39 C 82.24 63.48 80.12 67.20 78.11 70.92 C 80.69 75.71 83.36 80.47 85.53 85.47 C 80.51 83.29 75.72 80.65 70.89 78.08 C 63.78 82.39 55.60 85.55 47.13 84.59 C 40.67 84.25 34.80 81.27 29.24 78.22 C 25.38 80.43 21.48 82.58 17.44 84.46 C 19.15 80.31 21.13 76.28 23.00 72.19 C 18.50 65.67 15.04 58.08 15.29 50.00 C 15.07 42.32 18.18 35.05 22.32 28.74 C 20.22 24.37 17.85 20.13 15.68 15.79 C 20.09 17.88 24.38 20.19 28.79 22.26 C 32.77 19.88 36.85 17.51 41.39 16.37 C 46.00 15.11 50.82 15.31 55.55 15.52 C 55.45 11.10 55.48 6.68 55.97 2.28 M 58.05 5.06 C 57.78 16.84 58.10 28.61 58.04 40.38 C 54.22 39.61 50.12 38.84 46.39 40.39 C 41.61 42.21 37.18 46.55 37.15 51.94 C 37.09 56.73 41.55 60.47 46.13 60.71 C 53.69 61.70 62.55 56.16 62.61 48.02 C 62.79 36.23 62.44 24.43 62.72 12.65 C 64.57 13.33 66.41 14.04 68.26 14.71 C 64.97 11.37 61.48 8.25 58.05 5.06 M 21.81 21.75 C 24.02 26.61 26.94 31.11 29.21 35.94 C 30.55 38.60 29.65 41.62 29.54 44.43 C 31.12 42.44 33.04 40.57 33.88 38.11 C 32.19 34.35 29.48 31.17 27.54 27.54 C 31.16 29.52 34.58 31.85 38.05 34.06 C 39.52 32.68 40.98 31.30 42.45 29.92 C 34.58 30.61 28.80 24.23 21.81 21.75 M 66.13 29.32 C 65.98 30.51 65.83 31.70 65.69 32.90 C 68.43 31.18 71.13 29.42 73.91 27.77 C 71.72 31.25 69.40 34.65 67.14 38.08 C 68.23 39.47 69.33 40.87 70.42 42.27 C 71.80 35.22 75.66 29.09 78.88 22.78 C 74.52 24.75 70.31 27.01 66.13 29.32 M 67.30 62.96 C 69.68 66.74 72.18 70.45 74.38 74.34 C 70.48 72.08 66.80 69.49 63.03 67.05 C 61.17 68.74 59.36 70.48 57.55 72.23 C 60.21 71.87 63.16 70.74 65.64 72.36 C 70.43 74.89 75.06 77.74 79.97 80.05 C 77.72 75.08 74.86 70.42 72.43 65.53 C 70.60 62.15 72.64 58.37 72.95 54.86 C 70.80 57.36 68.90 60.07 67.30 62.96 M 29.24 55.41 C 29.54 58.70 31.36 62.29 29.47 65.41 C 27.17 69.88 24.69 74.26 22.76 78.91 C 27.23 76.70 31.45 74.00 36.00 71.94 C 38.48 70.60 41.31 71.41 43.95 71.64 C 42.22 69.98 40.54 68.28 38.85 66.58 C 35.08 68.96 31.44 71.55 27.68 73.95 C 29.95 70.12 32.47 66.45 34.97 62.78 C 33.27 60.16 31.34 57.71 29.24 55.41 Z" />
<path fill="#ffffff" opacity="1.00" d=" M 58.05 5.06 C 61.48 8.25 64.97 11.37 68.26 14.71 C 66.41 14.04 64.57 13.33 62.72 12.65 C 62.44 24.43 62.79 36.23 62.61 48.02 C 62.55 56.16 53.69 61.70 46.13 60.71 C 41.55 60.47 37.09 56.73 37.15 51.94 C 37.18 46.55 41.61 42.21 46.39 40.39 C 50.12 38.84 54.22 39.61 58.04 40.38 C 58.10 28.61 57.78 16.84 58.05 5.06 Z" />
<path fill="#ffffff" opacity="1.00" d=" M 21.81 21.75 C 28.80 24.23 34.58 30.61 42.45 29.92 C 40.98 31.30 39.52 32.68 38.05 34.06 C 34.58 31.85 31.16 29.52 27.54 27.54 C 29.48 31.17 32.19 34.35 33.88 38.11 C 33.04 40.57 31.12 42.44 29.54 44.43 C 29.65 41.62 30.55 38.60 29.21 35.94 C 26.94 31.11 24.02 26.61 21.81 21.75 Z" />
<path fill="#ffffff" opacity="1.00" d=" M 66.13 29.32 C 70.31 27.01 74.52 24.75 78.88 22.78 C 75.66 29.09 71.80 35.22 70.42 42.27 C 69.33 40.87 68.23 39.47 67.14 38.08 C 69.40 34.65 71.72 31.25 73.91 27.77 C 71.13 29.42 68.43 31.18 65.69 32.90 C 65.83 31.70 65.98 30.51 66.13 29.32 Z" />
<path fill="#ffffff" opacity="1.00" d=" M 67.30 62.96 C 68.90 60.07 70.80 57.36 72.95 54.86 C 72.64 58.37 70.60 62.15 72.43 65.53 C 74.86 70.42 77.72 75.08 79.97 80.05 C 75.06 77.74 70.43 74.89 65.64 72.36 C 63.16 70.74 60.21 71.87 57.55 72.23 C 59.36 70.48 61.17 68.74 63.03 67.05 C 66.80 69.49 70.48 72.08 74.38 74.34 C 72.18 70.45 69.68 66.74 67.30 62.96 Z" />
<path fill="#ffffff" opacity="1.00" d=" M 29.24 55.41 C 31.34 57.71 33.27 60.16 34.97 62.78 C 32.47 66.45 29.95 70.12 27.68 73.95 C 31.44 71.55 35.08 68.96 38.85 66.58 C 40.54 68.28 42.22 69.98 43.95 71.64 C 41.31 71.41 38.48 70.60 36.00 71.94 C 31.45 74.00 27.23 76.70 22.76 78.91 C 24.69 74.26 27.17 69.88 29.47 65.41 C 31.36 62.29 29.54 58.70 29.24 55.41 Z" />
</svg>
