<?xml version="1.0" encoding="UTF-8" ?>
<!DOCTYPE svg PUBLIC "-//W3C//DTD SVG 1.1//EN" "http://www.w3.org/Graphics/SVG/1.1/DTD/svg11.dtd">
<svg width="100pt" height="100pt" viewBox="0 0 100 100" version="1.1" xmlns="http://www.w3.org/2000/svg">
<path fill="#bab9b9" opacity="1.00" d=" M 37.22 29.25 C 40.33 26.01 42.83 22.26 45.67 18.79 C 46.06 20.22 46.44 21.65 46.83 23.08 C 47.84 22.27 48.85 21.45 49.86 20.63 C 52.47 24.26 55.05 27.90 57.58 31.59 C 62.91 30.57 69.68 29.59 73.46 34.49 C 77.51 40.27 74.29 47.35 73.73 53.61 C 79.32 62.64 86.07 70.94 92.06 79.73 C 64.04 79.68 36.02 79.64 8.00 79.40 C 12.33 73.07 16.78 66.82 21.16 60.52 C 19.21 59.33 17.15 58.33 15.24 57.07 C 19.52 55.93 24.09 55.25 27.70 52.47 C 25.13 49.90 21.78 47.58 20.98 43.79 C 19.84 39.43 22.62 34.46 26.98 33.24 C 30.42 32.04 34.61 32.16 37.22 29.25 M 38.06 31.07 C 34.69 34.06 29.90 34.07 26.01 36.02 C 22.86 37.62 21.65 42.30 23.83 45.14 C 25.49 47.99 28.88 49.85 29.59 53.18 C 29.24 57.18 23.89 56.54 21.08 57.70 C 22.41 58.57 23.74 59.43 25.07 60.30 C 21.28 65.70 17.51 71.11 13.87 76.61 C 37.97 76.60 62.07 76.58 86.16 76.61 C 82.54 71.05 78.60 65.70 74.57 60.43 C 72.96 58.11 70.74 55.54 71.62 52.50 C 72.42 46.96 75.60 40.47 71.61 35.44 C 67.49 31.03 60.85 33.42 55.60 33.66 C 53.55 30.97 51.50 28.27 49.40 25.61 C 48.09 27.40 46.83 29.23 45.53 31.02 C 45.40 28.53 45.22 26.05 45.02 23.57 C 42.69 26.07 40.61 28.79 38.06 31.07 Z" />
<path fill="#217a7a" opacity="1.00" d=" M 38.06 31.07 C 40.61 28.79 42.69 26.07 45.02 23.57 C 45.22 26.05 45.40 28.53 45.53 31.02 C 46.83 29.23 48.09 27.40 49.40 25.61 C 51.50 28.27 53.55 30.97 55.60 33.66 C 60.85 33.42 67.49 31.03 71.61 35.44 C 75.60 40.47 72.42 46.96 71.62 52.50 C 70.74 55.54 72.96 58.11 74.57 60.43 C 78.60 65.70 82.54 71.05 86.16 76.61 C 62.07 76.58 37.97 76.60 13.87 76.61 C 17.51 71.11 21.28 65.70 25.07 60.30 C 23.74 59.43 22.41 58.57 21.08 57.70 C 23.89 56.54 29.24 57.18 29.59 53.18 C 28.88 49.85 25.49 47.99 23.83 45.14 C 21.65 42.30 22.86 37.62 26.01 36.02 C 29.90 34.07 34.69 34.06 38.06 31.07 M 32.52 36.37 C 29.92 37.42 25.61 37.59 25.28 41.15 C 24.78 44.73 28.49 46.56 30.91 48.34 C 30.36 45.92 29.70 43.52 29.08 41.11 C 31.88 39.54 34.84 38.25 37.55 36.50 C 40.28 34.74 41.85 31.81 43.35 29.04 C 40.02 31.85 36.96 35.36 32.52 36.37 M 62.03 34.64 C 64.17 36.08 66.50 37.32 68.27 39.23 C 69.50 43.85 66.59 48.31 63.78 51.73 C 59.19 56.76 53.35 61.18 46.55 62.54 C 38.79 63.91 32.45 57.63 24.79 57.73 C 32.52 60.38 39.15 67.36 47.89 65.86 C 60.53 64.62 72.05 53.19 71.04 40.10 C 70.75 35.51 65.46 35.29 62.03 34.64 M 37.38 39.33 C 32.39 42.94 30.83 49.87 32.38 55.62 C 33.03 58.60 36.35 59.50 38.56 61.06 C 38.38 58.51 37.63 55.90 38.22 53.35 C 39.73 49.63 45.39 49.13 47.59 52.47 C 49.92 55.33 47.29 58.76 46.36 61.62 C 48.13 60.75 50.01 60.03 51.58 58.81 C 52.91 56.53 52.84 53.62 54.43 51.47 C 56.68 49.52 59.83 50.91 62.42 51.24 C 63.93 49.14 65.48 47.01 66.41 44.57 C 67.51 42.65 65.17 41.20 64.04 39.96 C 56.61 34.11 45.10 33.97 37.38 39.33 M 58.76 63.87 C 52.55 67.64 45.04 67.97 38.01 67.09 C 38.10 68.96 38.17 70.82 38.25 72.69 C 40.93 72.22 43.62 71.52 46.36 72.01 C 51.91 72.71 57.43 71.95 62.97 71.73 C 62.64 65.89 65.44 60.86 68.30 56.02 C 65.25 58.79 62.39 61.85 58.76 63.87 M 64.86 66.11 C 64.81 66.87 64.72 68.37 64.67 69.13 C 66.24 68.25 67.82 67.38 69.38 66.51 C 67.88 66.35 66.37 66.22 64.86 66.11 Z" />
<path fill="#ffffff" opacity="1.00" d=" M 32.52 36.37 C 36.96 35.36 40.02 31.85 43.35 29.04 C 41.85 31.81 40.28 34.74 37.55 36.50 C 34.84 38.25 31.88 39.54 29.08 41.11 C 29.70 43.52 30.36 45.92 30.91 48.34 C 28.49 46.56 24.78 44.73 25.28 41.15 C 25.61 37.59 29.92 37.42 32.52 36.37 Z" />
<path fill="#ffffff" opacity="1.00" d=" M 62.03 34.64 C 65.46 35.29 70.75 35.51 71.04 40.10 C 72.05 53.19 60.53 64.62 47.89 65.86 C 39.15 67.36 32.52 60.38 24.79 57.73 C 32.45 57.63 38.79 63.91 46.55 62.54 C 53.35 61.18 59.19 56.76 63.78 51.73 C 66.59 48.31 69.50 43.85 68.27 39.23 C 66.50 37.32 64.17 36.08 62.03 34.64 Z" />
<path fill="#ffffff" opacity="1.00" d=" M 37.38 39.33 C 45.10 33.97 56.61 34.11 64.04 39.96 C 65.17 41.20 67.51 42.65 66.41 44.57 C 65.48 47.01 63.93 49.14 62.42 51.24 C 59.83 50.91 56.68 49.52 54.43 51.47 C 52.84 53.62 52.91 56.53 51.58 58.81 C 50.01 60.03 48.13 60.75 46.36 61.62 C 47.29 58.76 49.92 55.33 47.59 52.47 C 45.39 49.13 39.73 49.63 38.22 53.35 C 37.63 55.90 38.38 58.51 38.56 61.06 C 36.35 59.50 33.03 58.60 32.38 55.62 C 30.83 49.87 32.39 42.94 37.38 39.33 Z" />
<path fill="#ffffff" opacity="1.00" d=" M 58.76 63.87 C 62.39 61.85 65.25 58.79 68.30 56.02 C 65.44 60.86 62.64 65.89 62.97 71.73 C 57.43 71.95 51.91 72.71 46.36 72.01 C 43.62 71.52 40.93 72.22 38.25 72.69 C 38.17 70.82 38.10 68.96 38.01 67.09 C 45.04 67.97 52.55 67.64 58.76 63.87 Z" />
<path fill="#ffffff" opacity="1.00" d=" M 64.86 66.11 C 66.37 66.22 67.88 66.35 69.38 66.51 C 67.82 67.38 66.24 68.25 64.67 69.13 C 64.72 68.37 64.81 66.87 64.86 66.11 Z" />
</svg>
