<?xml version="1.0" encoding="UTF-8" ?>
<!DOCTYPE svg PUBLIC "-//W3C//DTD SVG 1.1//EN" "http://www.w3.org/Graphics/SVG/1.1/DTD/svg11.dtd">
<svg width="100pt" height="100pt" viewBox="0 0 100 100" version="1.1" xmlns="http://www.w3.org/2000/svg">
<path fill="#ffffff" opacity="1.00" d=" M 22.06 24.04 C 29.15 16.28 39.58 12.02 50.00 11.62 C 58.00 11.84 65.75 14.65 72.43 18.98 C 73.32 15.67 75.10 11.90 79.00 11.58 C 83.86 11.96 87.98 16.22 88.55 21.01 C 88.46 25.00 84.27 26.57 81.10 27.67 C 86.66 36.39 90.08 47.26 87.39 57.55 C 85.61 66.23 80.78 74.29 73.80 79.80 C 67.09 85.17 58.54 88.03 50.00 88.38 C 39.58 87.99 29.16 83.72 22.06 75.96 C 15.51 68.99 12.00 59.49 11.61 50.00 C 11.99 40.51 15.51 31.01 22.06 24.04 M 77.47 14.25 C 74.88 16.37 75.10 21.33 71.19 21.93 C 67.91 20.63 65.01 18.51 61.68 17.32 C 53.97 14.48 45.23 14.64 37.57 17.57 C 23.21 22.89 13.57 38.51 15.49 53.75 C 17.02 70.47 32.17 84.62 49.02 84.69 C 65.39 85.54 80.93 73.04 84.00 57.02 C 86.28 47.14 83.21 36.92 77.70 28.67 C 79.89 25.90 83.31 24.75 85.99 22.60 C 87.38 17.98 82.14 12.45 77.47 14.25 Z" />
<path fill="#482b46" opacity="1.00" d=" M 77.47 14.25 C 82.14 12.45 87.38 17.98 85.99 22.60 C 83.31 24.75 79.89 25.90 77.70 28.67 C 83.21 36.92 86.28 47.14 84.00 57.02 C 80.93 73.04 65.39 85.54 49.02 84.69 C 32.17 84.62 17.02 70.47 15.49 53.75 C 13.57 38.51 23.21 22.89 37.57 17.57 C 45.23 14.64 53.97 14.48 61.68 17.32 C 65.01 18.51 67.91 20.63 71.19 21.93 C 75.10 21.33 74.88 16.37 77.47 14.25 M 79.19 15.84 C 78.17 22.13 71.97 24.92 67.79 28.90 C 64.86 27.40 62.43 25.16 59.92 23.08 C 58.83 21.91 57.19 22.60 55.81 22.56 C 59.31 26.32 63.60 29.81 64.10 35.32 C 66.86 35.63 69.63 35.91 72.39 36.18 C 72.50 34.45 71.97 32.52 72.98 30.98 C 75.70 26.64 78.94 22.08 84.24 20.84 C 82.90 18.85 81.19 17.15 79.19 15.84 M 41.89 31.60 C 41.19 33.33 40.78 35.21 39.66 36.74 C 37.23 37.82 34.54 37.95 31.96 38.40 C 31.85 44.14 32.30 50.02 34.69 55.31 C 37.72 62.81 43.88 68.57 50.91 72.35 C 55.53 69.70 60.04 66.60 63.24 62.26 C 68.50 55.62 70.56 46.96 70.12 38.60 C 67.48 37.99 64.77 37.74 62.15 37.01 C 61.54 35.22 60.94 33.43 60.37 31.62 C 54.24 30.76 48.02 30.64 41.89 31.60 M 72.40 36.20 C 72.24 40.06 75.05 42.66 78.18 44.33 C 77.93 42.80 77.81 41.23 77.28 39.76 C 76.06 38.10 74.09 37.26 72.40 36.20 M 27.95 72.23 C 32.59 72.79 36.32 70.12 39.25 66.84 C 37.76 64.73 36.21 62.67 34.71 60.56 C 31.02 63.44 27.93 67.30 27.95 72.23 Z" />
<path fill="#ffffff" opacity="1.00" d=" M 79.19 15.84 C 81.19 17.15 82.90 18.85 84.24 20.84 C 78.94 22.08 75.70 26.64 72.98 30.98 C 71.97 32.52 72.50 34.45 72.39 36.18 C 69.63 35.91 66.86 35.63 64.10 35.32 C 63.60 29.81 59.31 26.32 55.81 22.56 C 57.19 22.60 58.83 21.91 59.92 23.08 C 62.43 25.16 64.86 27.40 67.79 28.90 C 71.97 24.92 78.17 22.13 79.19 15.84 Z" />
<path fill="#ffffff" opacity="1.00" d=" M 41.89 31.60 C 48.02 30.64 54.24 30.76 60.37 31.62 C 60.94 33.43 61.54 35.22 62.15 37.01 C 64.77 37.74 67.48 37.99 70.12 38.60 C 70.56 46.96 68.50 55.62 63.24 62.26 C 60.04 66.60 55.53 69.70 50.91 72.35 C 43.88 68.57 37.72 62.81 34.69 55.31 C 32.30 50.02 31.85 44.14 31.96 38.40 C 34.54 37.95 37.23 37.82 39.66 36.74 C 40.78 35.21 41.19 33.33 41.89 31.60 M 40.20 39.19 C 38.33 40.05 36.27 40.39 34.28 40.88 C 33.90 52.69 40.65 63.94 50.95 69.59 C 54.24 67.41 57.55 65.15 60.14 62.14 C 65.30 56.39 67.78 48.65 67.79 40.99 C 65.55 40.41 63.16 40.13 61.16 38.88 C 59.58 37.54 58.70 35.59 57.60 33.87 C 53.53 33.53 49.35 33.00 45.31 33.88 C 43.13 35.09 42.41 37.96 40.20 39.19 Z" />
<path fill="#160013" opacity="1.00" d=" M 40.20 39.19 C 42.41 37.96 43.13 35.09 45.31 33.88 C 49.35 33.00 53.53 33.53 57.60 33.87 C 58.70 35.59 59.58 37.54 61.16 38.88 C 63.16 40.13 65.55 40.41 67.79 40.99 C 67.78 48.65 65.30 56.39 60.14 62.14 C 57.55 65.15 54.24 67.41 50.95 69.59 C 40.65 63.94 33.90 52.69 34.28 40.88 C 36.27 40.39 38.33 40.05 40.20 39.19 M 42.28 40.18 C 40.52 41.67 38.26 42.28 36.23 43.27 C 36.90 53.08 42.46 62.12 50.95 67.09 C 59.31 62.06 65.30 53.22 65.72 43.32 C 63.28 42.23 60.61 41.38 58.78 39.33 C 57.27 38.01 56.18 35.83 53.98 35.67 C 51.72 35.36 49.39 35.33 47.16 35.84 C 45.20 36.89 44.03 38.88 42.28 40.18 Z" />
<path fill="#ffffff" opacity="1.00" d=" M 42.28 40.18 C 44.03 38.88 45.20 36.89 47.16 35.84 C 49.39 35.33 51.72 35.36 53.98 35.67 C 56.18 35.83 57.27 38.01 58.78 39.33 C 60.61 41.38 63.28 42.23 65.72 43.32 C 65.30 53.22 59.31 62.06 50.95 67.09 C 42.46 62.12 36.90 53.08 36.23 43.27 C 38.26 42.28 40.52 41.67 42.28 40.18 Z" />
<path fill="#ffffff" opacity="1.00" d=" M 72.40 36.20 C 74.09 37.26 76.06 38.10 77.28 39.76 C 77.81 41.23 77.93 42.80 78.18 44.33 C 75.05 42.66 72.24 40.06 72.40 36.20 Z" />
<path fill="#ffffff" opacity="1.00" d=" M 27.95 72.23 C 27.93 67.30 31.02 63.44 34.71 60.56 C 36.21 62.67 37.76 64.73 39.25 66.84 C 36.32 70.12 32.59 72.79 27.95 72.23 Z" />
</svg>
