<?xml version="1.0" encoding="UTF-8" ?>
<!DOCTYPE svg PUBLIC "-//W3C//DTD SVG 1.1//EN" "http://www.w3.org/Graphics/SVG/1.1/DTD/svg11.dtd">
<svg width="100pt" height="100pt" viewBox="0 0 100 100" version="1.1" xmlns="http://www.w3.org/2000/svg">
<path fill="#ffffff" opacity="1.00" d=" M 42.45 12.61 C 60.89 8.24 81.24 20.57 86.41 38.73 C 91.91 54.41 84.75 73.01 70.91 81.88 C 61.53 87.92 49.45 90.23 38.77 86.42 C 20.06 81.14 7.61 59.75 12.96 40.95 C 16.23 26.82 28.24 15.36 42.45 12.61 M 15.30 50.00 C 14.91 67.47 29.62 83.49 47.08 84.60 C 45.22 80.25 45.75 75.65 47.36 71.34 C 41.40 70.22 33.87 69.25 31.01 63.04 C 28.44 57.83 31.94 52.68 34.05 48.04 C 35.52 45.20 34.81 41.98 34.31 39.00 C 32.81 39.95 31.31 40.93 29.81 41.89 C 29.66 38.44 29.65 34.98 29.87 31.54 C 34.48 35.09 38.64 40.54 37.50 46.70 C 36.96 51.56 32.71 56.15 34.74 61.12 C 37.11 65.50 42.70 65.58 47.02 66.24 C 47.80 63.23 48.40 60.15 48.33 57.02 C 48.24 48.77 48.29 40.52 48.23 32.28 C 47.01 32.40 45.79 32.52 44.57 32.65 C 46.34 28.94 48.11 25.24 50.00 21.59 C 51.89 25.24 53.66 28.94 55.43 32.65 C 54.21 32.52 52.99 32.40 51.78 32.28 C 51.70 40.53 51.76 48.78 51.67 57.03 C 51.60 60.15 52.19 63.23 52.96 66.24 C 57.47 65.59 63.63 65.41 65.55 60.40 C 66.86 55.00 62.25 50.36 62.34 45.00 C 62.11 39.40 66.00 34.82 70.13 31.53 C 70.35 34.98 70.34 38.44 70.19 41.90 C 68.69 40.93 67.20 39.96 65.69 39.00 C 65.18 41.98 64.47 45.21 65.96 48.04 C 68.05 52.68 71.56 57.83 68.99 63.04 C 66.14 69.25 58.60 70.22 52.64 71.34 C 53.16 73.49 53.91 75.60 54.21 77.80 C 54.35 80.14 53.39 82.35 52.92 84.60 C 58.85 83.91 64.74 82.17 69.61 78.63 C 81.89 70.41 87.78 53.93 83.19 39.84 C 78.75 24.63 62.97 13.75 47.14 15.41 C 29.67 16.42 14.91 32.53 15.30 50.00 Z" />
<path fill="#482b46" opacity="1.00" d=" M 15.30 50.00 C 14.91 32.53 29.67 16.42 47.14 15.41 C 62.97 13.75 78.75 24.63 83.19 39.84 C 87.78 53.93 81.89 70.41 69.61 78.63 C 64.74 82.17 58.85 83.91 52.92 84.60 C 53.39 82.35 54.35 80.14 54.21 77.80 C 53.91 75.60 53.16 73.49 52.64 71.34 C 58.60 70.22 66.14 69.25 68.99 63.04 C 71.56 57.83 68.05 52.68 65.96 48.04 C 64.47 45.21 65.18 41.98 65.69 39.00 C 67.20 39.96 68.69 40.93 70.19 41.90 C 70.34 38.44 70.35 34.98 70.13 31.53 C 66.00 34.82 62.11 39.40 62.34 45.00 C 62.25 50.36 66.86 55.00 65.55 60.40 C 63.63 65.41 57.47 65.59 52.96 66.24 C 52.19 63.23 51.60 60.15 51.67 57.03 C 51.76 48.78 51.70 40.53 51.78 32.28 C 52.99 32.40 54.21 32.52 55.43 32.65 C 53.66 28.94 51.89 25.24 50.00 21.59 C 48.11 25.24 46.34 28.94 44.57 32.65 C 45.79 32.52 47.01 32.40 48.23 32.28 C 48.29 40.52 48.24 48.77 48.33 57.02 C 48.40 60.15 47.80 63.23 47.02 66.24 C 42.70 65.58 37.11 65.50 34.74 61.12 C 32.71 56.15 36.96 51.56 37.50 46.70 C 38.64 40.54 34.48 35.09 29.87 31.54 C 29.65 34.98 29.66 38.44 29.81 41.89 C 31.31 40.93 32.81 39.95 34.31 39.00 C 34.81 41.98 35.52 45.20 34.05 48.04 C 31.94 52.68 28.44 57.83 31.01 63.04 C 33.87 69.25 41.40 70.22 47.36 71.34 C 45.75 75.65 45.22 80.25 47.08 84.60 C 29.62 83.49 14.91 67.47 15.30 50.00 Z" />
</svg>
