<?xml version="1.0" encoding="UTF-8" ?>
<!DOCTYPE svg PUBLIC "-//W3C//DTD SVG 1.1//EN" "http://www.w3.org/Graphics/SVG/1.1/DTD/svg11.dtd">
<svg width="100pt" height="100pt" viewBox="0 0 100 100" version="1.1" xmlns="http://www.w3.org/2000/svg">
<path fill="#b9bbb9" opacity="1.00" d=" M 38.95 20.20 C 42.35 19.20 44.40 15.77 46.99 13.49 C 51.59 14.66 55.44 17.33 59.19 20.10 C 70.10 20.87 81.09 20.35 92.04 20.47 C 89.88 23.46 87.62 26.60 87.45 30.42 C 86.59 39.98 81.28 48.28 75.75 55.82 C 71.84 61.71 63.26 61.47 59.31 67.32 C 56.33 71.40 53.59 75.64 50.62 79.73 C 46.32 74.27 42.46 68.50 38.38 62.90 C 37.74 64.33 37.10 65.76 36.45 67.19 C 33.23 66.14 29.78 65.19 27.36 62.66 C 24.27 59.96 22.83 56.02 21.23 52.36 C 23.70 51.34 26.15 50.31 28.60 49.25 C 21.79 39.54 14.79 29.97 7.97 20.27 C 18.30 20.18 28.63 20.47 38.95 20.20 M 47.43 15.86 C 44.17 18.96 41.18 23.72 36.08 23.40 C 28.68 23.55 21.28 23.17 13.88 23.39 C 19.56 32.20 26.09 40.42 32.07 49.03 C 29.42 50.70 26.72 52.27 23.96 53.75 C 25.70 58.83 29.53 62.75 34.54 64.66 C 35.83 62.40 37.13 60.13 38.49 57.90 C 42.53 63.43 46.15 69.29 50.71 74.42 C 53.21 71.04 55.22 67.23 58.31 64.32 C 63.24 60.36 70.30 59.54 74.32 54.35 C 79.45 47.78 83.75 40.33 85.30 32.05 C 82.79 33.28 80.31 34.55 77.80 35.78 C 80.51 31.61 83.37 27.55 86.09 23.39 C 77.16 22.91 68.12 24.18 59.28 22.92 C 55.39 20.46 52.07 16.98 47.43 15.86 Z" />
<path fill="#941271" opacity="1.00" d=" M 47.43 15.86 C 52.07 16.98 55.39 20.46 59.28 22.92 C 68.12 24.18 77.16 22.91 86.09 23.39 C 83.37 27.55 80.51 31.61 77.80 35.78 C 80.31 34.55 82.79 33.28 85.30 32.05 C 83.75 40.33 79.45 47.78 74.32 54.35 C 70.30 59.54 63.24 60.36 58.31 64.32 C 55.22 67.23 53.21 71.04 50.71 74.42 C 46.15 69.29 42.53 63.43 38.49 57.90 C 37.13 60.13 35.83 62.40 34.54 64.66 C 29.53 62.75 25.70 58.83 23.96 53.75 C 26.72 52.27 29.42 50.70 32.07 49.03 C 26.09 40.42 19.56 32.20 13.88 23.39 C 21.28 23.17 28.68 23.55 36.08 23.40 C 41.18 23.72 44.17 18.96 47.43 15.86 M 39.70 28.15 C 39.99 32.32 43.66 34.96 46.16 37.91 C 39.83 43.86 34.45 51.01 26.83 55.42 C 28.77 57.45 30.73 59.47 32.72 61.45 C 37.77 54.14 44.70 48.46 50.85 42.13 C 53.94 45.17 56.74 48.49 59.33 51.95 C 57.48 52.08 55.63 52.22 53.78 52.37 C 56.69 53.50 59.62 54.60 62.53 55.73 C 61.07 57.54 59.48 59.24 58.05 61.07 C 62.46 58.90 67.33 57.36 71.11 54.12 C 75.50 49.39 78.55 43.59 81.25 37.77 C 79.64 38.97 78.06 40.22 76.48 41.45 C 76.01 37.42 75.63 33.38 75.02 29.37 C 73.98 33.27 73.23 37.24 72.42 41.20 C 70.63 38.71 68.91 36.17 67.07 33.72 C 67.66 37.63 68.40 41.52 69.02 45.43 C 66.06 44.27 63.14 43.02 60.21 41.79 C 61.54 44.21 62.89 46.62 64.19 49.05 C 62.03 49.05 59.88 49.03 57.72 48.98 C 59.12 48.55 60.51 48.12 61.91 47.68 C 60.09 44.73 58.29 41.76 56.63 38.71 C 59.89 39.78 63.11 40.97 66.35 42.10 C 65.57 38.37 65.52 34.12 62.86 31.12 C 60.22 28.11 57.29 25.37 54.44 22.55 C 52.70 20.98 50.77 19.03 48.23 19.15 C 44.83 21.47 41.58 24.43 39.70 28.15 Z" />
<path fill="#ffffff" opacity="1.00" d=" M 39.70 28.15 C 41.58 24.43 44.83 21.47 48.23 19.15 C 50.77 19.03 52.70 20.98 54.44 22.55 C 57.29 25.37 60.22 28.11 62.86 31.12 C 65.52 34.12 65.57 38.37 66.35 42.10 C 63.11 40.97 59.89 39.78 56.63 38.71 C 58.29 41.76 60.09 44.73 61.91 47.68 C 60.51 48.12 59.12 48.55 57.72 48.98 C 59.88 49.03 62.03 49.05 64.19 49.05 C 62.89 46.62 61.54 44.21 60.21 41.79 C 63.14 43.02 66.06 44.27 69.02 45.43 C 68.40 41.52 67.66 37.63 67.07 33.72 C 68.91 36.17 70.63 38.71 72.42 41.20 C 73.23 37.24 73.98 33.27 75.02 29.37 C 75.63 33.38 76.01 37.42 76.48 41.45 C 78.06 40.22 79.64 38.97 81.25 37.77 C 78.55 43.59 75.50 49.39 71.11 54.12 C 67.33 57.36 62.46 58.90 58.05 61.07 C 59.48 59.24 61.07 57.54 62.53 55.73 C 59.62 54.60 56.69 53.50 53.78 52.37 C 55.63 52.22 57.48 52.08 59.33 51.95 C 56.74 48.49 53.94 45.17 50.85 42.13 C 44.70 48.46 37.77 54.14 32.72 61.45 C 30.73 59.47 28.77 57.45 26.83 55.42 C 34.45 51.01 39.83 43.86 46.16 37.91 C 43.66 34.96 39.99 32.32 39.70 28.15 M 71.01 44.36 C 71.30 45.83 71.59 47.30 71.90 48.77 C 72.73 46.93 73.50 45.06 74.28 43.20 C 73.19 43.59 72.10 43.98 71.01 44.36 M 67.30 47.52 C 66.22 48.83 68.42 50.78 69.63 49.66 C 70.72 48.34 68.51 46.40 67.30 47.52 M 62.53 51.42 C 64.79 52.31 67.21 52.36 69.50 51.56 C 67.18 51.34 64.85 51.30 62.53 51.42 Z" />
<path fill="#941271" opacity="1.00" d=" M 71.01 44.36 C 72.10 43.98 73.19 43.59 74.28 43.20 C 73.50 45.06 72.73 46.93 71.90 48.77 C 71.59 47.30 71.30 45.83 71.01 44.36 Z" />
<path fill="#941271" opacity="1.00" d=" M 67.30 47.52 C 68.51 46.40 70.72 48.34 69.63 49.66 C 68.42 50.78 66.22 48.83 67.30 47.52 Z" />
<path fill="#941271" opacity="1.00" d=" M 62.53 51.42 C 64.85 51.30 67.18 51.34 69.50 51.56 C 67.21 52.36 64.79 52.31 62.53 51.42 Z" />
</svg>
