<?xml version="1.0" encoding="UTF-8" ?>
<!DOCTYPE svg PUBLIC "-//W3C//DTD SVG 1.1//EN" "http://www.w3.org/Graphics/SVG/1.1/DTD/svg11.dtd">
<svg width="100pt" height="100pt" viewBox="0 0 100 100" version="1.1" xmlns="http://www.w3.org/2000/svg">
<path fill="#b8bdbd" opacity="1.00" d=" M 45.55 15.55 C 47.80 13.26 49.80 10.75 51.94 8.36 C 54.39 11.12 56.63 14.23 59.91 16.07 C 64.03 18.46 68.16 21.41 70.00 25.98 C 72.33 31.57 75.74 36.71 80.24 40.79 C 82.79 42.97 86.18 43.99 88.49 46.47 C 92.28 51.07 92.47 57.81 90.01 63.07 C 87.57 67.02 83.03 68.74 79.55 71.57 C 76.89 73.54 74.78 76.16 72.07 78.06 C 68.65 80.11 64.49 80.30 60.93 82.02 C 57.51 84.87 55.03 88.65 51.94 91.83 C 49.17 88.84 46.88 85.15 43.06 83.38 C 38.43 81.07 36.29 75.77 31.82 73.29 C 29.53 73.14 27.12 74.06 24.92 73.09 C 19.29 70.95 12.47 69.20 9.91 63.05 C 5.93 55.69 9.96 46.89 15.91 41.96 C 18.48 39.72 22.18 40.29 25.11 38.95 C 27.13 37.36 28.72 35.32 30.33 33.34 C 33.27 29.75 34.39 25.00 37.56 21.58 C 39.93 19.19 43.22 17.98 45.55 15.55 M 44.15 20.15 C 41.18 21.67 38.23 23.63 36.92 26.86 C 34.55 32.40 31.75 38.21 26.58 41.66 C 23.30 42.69 19.25 41.94 16.63 44.59 C 13.97 47.18 11.71 50.40 10.84 54.07 C 10.20 59.00 12.28 64.67 16.86 67.06 C 20.12 68.82 23.57 70.20 26.86 71.91 C 27.72 71.05 28.57 70.19 29.42 69.33 C 34.93 71.06 37.98 76.13 41.56 80.24 C 42.38 79.49 43.21 78.74 44.03 77.99 C 46.59 81.07 49.23 84.08 51.96 87.02 C 54.04 84.74 55.89 82.16 58.48 80.42 C 62.94 78.03 68.25 77.41 72.36 74.30 C 75.55 71.84 78.51 69.06 81.94 66.92 C 84.48 65.15 87.61 63.40 88.33 60.13 C 89.25 56.20 89.26 51.60 86.76 48.23 C 84.20 45.57 80.30 44.88 77.52 42.49 C 74.08 39.44 71.43 35.56 69.71 31.30 C 68.03 27.31 66.23 23.01 62.38 20.64 C 58.72 18.36 54.74 16.51 51.75 13.32 C 49.54 15.92 47.27 18.60 44.15 20.15 Z" />
<path fill="#b61c2e" opacity="1.00" d=" M 44.15 20.15 C 47.27 18.60 49.54 15.92 51.75 13.32 C 54.74 16.51 58.72 18.36 62.38 20.64 C 66.23 23.01 68.03 27.31 69.71 31.30 C 71.43 35.56 74.08 39.44 77.52 42.49 C 80.30 44.88 84.20 45.57 86.76 48.23 C 89.26 51.60 89.25 56.20 88.33 60.13 C 87.61 63.40 84.48 65.15 81.94 66.92 C 78.51 69.06 75.55 71.84 72.36 74.30 C 68.25 77.41 62.94 78.03 58.48 80.42 C 55.89 82.16 54.04 84.74 51.96 87.02 C 49.23 84.08 46.59 81.07 44.03 77.99 C 43.21 78.74 42.38 79.49 41.56 80.24 C 37.98 76.13 34.93 71.06 29.42 69.33 C 28.57 70.19 27.72 71.05 26.86 71.91 C 23.57 70.20 20.12 68.82 16.86 67.06 C 12.28 64.67 10.20 59.00 10.84 54.07 C 11.71 50.40 13.97 47.18 16.63 44.59 C 19.25 41.94 23.30 42.69 26.58 41.66 C 31.75 38.21 34.55 32.40 36.92 26.86 C 38.23 23.63 41.18 21.67 44.15 20.15 M 43.19 23.28 C 37.01 27.45 34.61 36.81 38.95 43.12 C 41.16 46.34 42.36 50.08 42.67 53.97 C 43.81 52.92 44.95 51.85 46.10 50.80 C 48.37 54.27 51.14 57.48 52.66 61.37 C 54.29 66.60 52.37 71.96 51.17 77.06 C 53.42 73.43 56.11 70.09 58.34 66.45 C 60.12 62.11 58.58 57.32 57.86 52.91 C 59.32 54.04 60.78 55.18 62.23 56.32 C 62.33 53.13 62.27 49.76 63.90 46.90 C 65.92 42.94 68.77 38.88 68.29 34.23 C 66.72 28.54 63.22 22.84 57.57 20.51 C 52.66 19.42 47.56 21.10 43.19 23.28 M 14.76 50.72 C 11.97 55.06 12.86 61.73 17.37 64.57 C 20.46 66.38 23.84 67.63 26.83 69.61 C 26.98 68.96 27.30 67.65 27.45 67.00 C 30.10 67.72 32.92 68.16 35.28 69.65 C 37.76 71.52 39.44 74.19 41.42 76.55 C 41.16 73.88 41.18 71.13 40.32 68.57 C 39.21 66.41 37.42 64.72 35.85 62.89 C 36.54 62.86 37.91 62.79 38.59 62.75 C 36.02 59.54 34.96 55.58 34.12 51.64 C 33.23 46.96 28.03 44.86 23.79 44.43 C 19.67 44.02 16.66 47.51 14.76 50.72 M 66.97 58.03 C 66.75 59.30 66.51 60.56 66.28 61.82 C 66.97 61.81 68.34 61.78 69.03 61.76 C 68.42 64.22 68.37 66.76 68.31 69.27 C 67.22 72.19 64.91 74.35 62.81 76.55 C 65.26 75.57 67.75 74.68 70.32 74.05 C 70.58 73.33 70.87 72.61 71.18 71.90 C 72.86 71.67 73.50 70.75 73.11 69.14 C 73.51 69.08 74.31 68.95 74.72 68.88 L 75.00 69.49 C 78.11 66.22 82.18 64.15 85.60 61.24 C 84.01 61.90 82.46 62.62 80.90 63.34 C 81.89 61.85 83.29 60.53 83.79 58.77 C 84.06 55.47 83.56 52.18 83.28 48.91 C 80.79 46.84 77.59 44.99 74.25 46.04 C 70.12 48.64 66.10 52.68 66.97 58.03 Z" />
<path fill="#ffffff" opacity="1.00" d=" M 43.19 23.28 C 47.56 21.10 52.66 19.42 57.57 20.51 C 63.22 22.84 66.72 28.54 68.29 34.23 C 68.77 38.88 65.92 42.94 63.90 46.90 C 62.27 49.76 62.33 53.13 62.23 56.32 C 60.78 55.18 59.32 54.04 57.86 52.91 C 58.58 57.32 60.12 62.11 58.34 66.45 C 56.11 70.09 53.42 73.43 51.17 77.06 C 52.37 71.96 54.29 66.60 52.66 61.37 C 51.14 57.48 48.37 54.27 46.10 50.80 C 44.95 51.85 43.81 52.92 42.67 53.97 C 42.36 50.08 41.16 46.34 38.95 43.12 C 34.61 36.81 37.01 27.45 43.19 23.28 M 46.34 23.36 C 40.78 25.10 37.69 31.36 38.10 36.91 C 38.73 41.54 41.92 45.20 43.97 49.26 C 44.10 47.09 44.22 44.93 44.37 42.77 C 46.06 47.67 48.45 52.29 51.56 56.45 C 54.32 59.90 54.51 64.43 55.28 68.59 C 58.93 65.04 57.72 59.73 56.85 55.31 C 56.13 52.75 57.41 50.31 58.32 47.98 C 59.06 49.70 59.77 51.42 60.49 53.15 C 61.08 46.56 66.81 41.73 66.92 35.10 C 65.78 29.55 62.36 23.95 56.92 21.79 C 53.34 21.07 49.69 22.17 46.34 23.36 Z" />
<path fill="#af081b" opacity="1.00" d=" M 46.34 23.36 C 49.69 22.17 53.34 21.07 56.92 21.79 C 62.36 23.95 65.78 29.55 66.92 35.10 C 66.81 41.73 61.08 46.56 60.49 53.15 C 59.77 51.42 59.06 49.70 58.32 47.98 C 57.41 50.31 56.13 52.75 56.85 55.31 C 57.72 59.73 58.93 65.04 55.28 68.59 C 54.51 64.43 54.32 59.90 51.56 56.45 C 48.45 52.29 46.06 47.67 44.37 42.77 C 44.22 44.93 44.10 47.09 43.97 49.26 C 41.92 45.20 38.73 41.54 38.10 36.91 C 37.69 31.36 40.78 25.10 46.34 23.36 M 50.52 23.21 C 50.82 27.19 50.06 31.13 47.55 34.31 C 47.58 31.05 47.53 27.80 47.38 24.54 C 40.40 26.90 38.33 35.49 41.06 41.78 C 42.99 41.09 44.92 40.39 46.86 39.72 C 47.16 42.93 47.56 46.14 48.37 49.27 C 49.64 44.54 50.84 39.60 54.22 35.85 C 53.44 40.38 50.31 44.31 50.52 49.03 C 50.48 53.38 53.73 56.66 55.95 60.08 C 55.55 57.44 54.64 54.79 54.97 52.09 C 55.79 48.28 58.32 45.18 60.39 41.97 C 60.69 42.74 61.29 44.28 61.59 45.06 C 63.23 41.66 65.65 38.12 65.07 34.18 C 62.90 30.98 60.30 28.09 58.17 24.86 C 56.57 22.22 53.05 23.53 50.52 23.21 Z" />
<path fill="#ffffff" opacity="1.00" d=" M 50.52 23.21 C 53.05 23.53 56.57 22.22 58.17 24.86 C 60.30 28.09 62.90 30.98 65.07 34.18 C 65.65 38.12 63.23 41.66 61.59 45.06 C 61.29 44.28 60.69 42.74 60.39 41.97 C 58.32 45.18 55.79 48.28 54.97 52.09 C 54.64 54.79 55.55 57.44 55.95 60.08 C 53.73 56.66 50.48 53.38 50.52 49.03 C 50.31 44.31 53.44 40.38 54.22 35.85 C 50.84 39.60 49.64 44.54 48.37 49.27 C 47.56 46.14 47.16 42.93 46.86 39.72 C 44.92 40.39 42.99 41.09 41.06 41.78 C 38.33 35.49 40.40 26.90 47.38 24.54 C 47.53 27.80 47.58 31.05 47.55 34.31 C 50.06 31.13 50.82 27.19 50.52 23.21 Z" />
<path fill="#ffffff" opacity="1.00" d=" M 14.76 50.72 C 16.66 47.51 19.67 44.02 23.79 44.43 C 28.03 44.86 33.23 46.96 34.12 51.64 C 34.96 55.58 36.02 59.54 38.59 62.75 C 37.91 62.79 36.54 62.86 35.85 62.89 C 37.42 64.72 39.21 66.41 40.32 68.57 C 41.18 71.13 41.16 73.88 41.42 76.55 C 39.44 74.19 37.76 71.52 35.28 69.65 C 32.92 68.16 30.10 67.72 27.45 67.00 C 27.30 67.65 26.98 68.96 26.83 69.61 C 23.84 67.63 20.46 66.38 17.37 64.57 C 12.86 61.73 11.97 55.06 14.76 50.72 M 15.61 51.02 C 17.47 53.29 19.35 55.56 21.23 57.82 C 20.55 55.01 19.51 52.31 18.05 49.82 C 19.05 48.84 20.06 47.87 21.07 46.91 C 24.34 47.89 28.16 47.90 30.95 50.01 C 34.41 53.69 29.96 58.57 32.23 62.58 C 32.97 63.75 33.91 64.76 34.85 65.78 C 34.24 63.87 33.56 62.00 32.88 60.13 C 33.81 60.46 34.74 60.80 35.67 61.14 C 34.30 57.42 33.98 53.36 32.26 49.78 C 30.10 47.06 26.44 45.66 23.02 45.65 C 19.58 45.48 17.68 48.84 15.61 51.02 M 15.27 60.59 C 16.92 63.93 20.64 65.11 23.91 66.22 C 23.63 65.23 23.35 64.25 23.07 63.26 C 28.64 66.71 35.56 67.40 40.50 72.00 C 39.47 70.03 39.16 66.53 36.30 66.58 C 33.98 66.14 31.21 66.34 29.51 64.39 C 27.11 61.72 26.59 58.00 25.06 54.85 C 25.28 58.24 26.35 61.46 27.62 64.58 C 26.01 63.32 24.42 62.03 22.85 60.73 C 22.03 61.85 21.22 62.98 20.40 64.11 C 18.90 62.76 17.11 61.57 16.22 59.70 C 15.41 57.35 15.42 54.83 15.08 52.40 C 14.14 55.04 13.68 58.08 15.27 60.59 Z" />
<path fill="#af081b" opacity="1.00" d=" M 15.61 51.02 C 17.68 48.84 19.58 45.48 23.02 45.65 C 26.44 45.66 30.10 47.06 32.26 49.78 C 33.98 53.36 34.30 57.42 35.67 61.14 C 34.74 60.80 33.81 60.46 32.88 60.13 C 33.56 62.00 34.24 63.87 34.85 65.78 C 33.91 64.76 32.97 63.75 32.23 62.58 C 29.96 58.57 34.41 53.69 30.95 50.01 C 28.16 47.90 24.34 47.89 21.07 46.91 C 20.06 47.87 19.05 48.84 18.05 49.82 C 19.51 52.31 20.55 55.01 21.23 57.82 C 19.35 55.56 17.47 53.29 15.61 51.02 Z" />
<path fill="#d06c77" opacity="1.00" d=" M 66.97 58.03 C 66.10 52.68 70.12 48.64 74.25 46.04 C 77.59 44.99 80.79 46.84 83.28 48.91 C 80.55 50.17 77.93 51.65 75.41 53.29 C 76.01 51.38 76.59 49.47 77.12 47.54 C 74.49 48.72 72.07 50.33 69.98 52.32 C 73.17 56.56 71.72 61.82 70.79 66.53 C 73.01 64.88 75.15 62.94 77.85 62.11 C 78.92 62.61 79.97 63.17 80.98 63.78 C 78.53 64.73 76.05 65.58 73.51 66.29 C 73.92 67.15 74.32 68.01 74.72 68.88 C 74.31 68.95 73.51 69.08 73.11 69.14 C 71.51 68.99 71.11 70.65 71.18 71.90 C 70.87 72.61 70.58 73.33 70.32 74.05 C 69.83 73.72 68.85 73.04 68.37 72.71 C 68.94 70.14 69.48 67.57 70.03 65.01 C 69.47 66.43 68.91 67.86 68.31 69.27 C 68.37 66.76 68.42 64.22 69.03 61.76 C 69.26 60.79 69.51 59.83 69.76 58.87 C 68.83 58.59 67.90 58.31 66.97 58.03 Z" />
<path fill="#ffffff" opacity="1.00" d=" M 69.98 52.32 C 72.07 50.33 74.49 48.72 77.12 47.54 C 76.59 49.47 76.01 51.38 75.41 53.29 C 77.93 51.65 80.55 50.17 83.28 48.91 C 83.56 52.18 84.06 55.47 83.79 58.77 C 83.29 60.53 81.89 61.85 80.90 63.34 C 82.46 62.62 84.01 61.90 85.60 61.24 C 82.18 64.15 78.11 66.22 75.00 69.49 L 74.72 68.88 C 74.32 68.01 73.92 67.15 73.51 66.29 C 76.05 65.58 78.53 64.73 80.98 63.78 C 79.97 63.17 78.92 62.61 77.85 62.11 C 75.15 62.94 73.01 64.88 70.79 66.53 C 71.72 61.82 73.17 56.56 69.98 52.32 M 75.35 57.08 C 74.39 57.33 72.78 58.22 73.28 59.42 C 74.81 60.80 78.42 56.90 75.35 57.08 Z" />
<path fill="#af081b" opacity="1.00" d=" M 15.27 60.59 C 13.68 58.08 14.14 55.04 15.08 52.40 C 15.42 54.83 15.41 57.35 16.22 59.70 C 17.11 61.57 18.90 62.76 20.40 64.11 C 21.22 62.98 22.03 61.85 22.85 60.73 C 24.42 62.03 26.01 63.32 27.62 64.58 C 26.35 61.46 25.28 58.24 25.06 54.85 C 26.59 58.00 27.11 61.72 29.51 64.39 C 31.21 66.34 33.98 66.14 36.30 66.58 C 39.16 66.53 39.47 70.03 40.50 72.00 C 35.56 67.40 28.64 66.71 23.07 63.26 C 23.35 64.25 23.63 65.23 23.91 66.22 C 20.64 65.11 16.92 63.93 15.27 60.59 Z" />
<path fill="#c95764" opacity="1.00" d=" M 75.35 57.08 C 78.42 56.90 74.81 60.80 73.28 59.42 C 72.78 58.22 74.39 57.33 75.35 57.08 Z" />
<path fill="#ffffff" opacity="1.00" d=" M 66.97 58.03 C 67.90 58.31 68.83 58.59 69.76 58.87 C 69.51 59.83 69.26 60.79 69.03 61.76 C 68.34 61.78 66.97 61.81 66.28 61.82 C 66.51 60.56 66.75 59.30 66.97 58.03 Z" />
<path fill="#ffffff" opacity="1.00" d=" M 70.03 65.01 C 69.48 67.57 68.94 70.14 68.37 72.71 C 68.85 73.04 69.83 73.72 70.32 74.05 C 67.75 74.68 65.26 75.57 62.81 76.55 C 64.91 74.35 67.22 72.19 68.31 69.27 C 68.91 67.86 69.47 66.43 70.03 65.01 Z" />
<path fill="#ffffff" opacity="1.00" d=" M 71.18 71.90 C 71.11 70.65 71.51 68.99 73.11 69.14 C 73.50 70.75 72.86 71.67 71.18 71.90 Z" />
</svg>
