<?xml version="1.0" encoding="UTF-8" ?>
<!DOCTYPE svg PUBLIC "-//W3C//DTD SVG 1.1//EN" "http://www.w3.org/Graphics/SVG/1.1/DTD/svg11.dtd">
<svg width="100pt" height="100pt" viewBox="0 0 100 100" version="1.1" xmlns="http://www.w3.org/2000/svg">
<path fill="#b8b8b8" opacity="1.00" d=" M 13.09 14.23 C 16.37 13.59 19.64 12.63 23.00 12.59 C 26.54 12.92 29.52 15.13 32.88 16.14 C 39.10 18.07 45.76 18.09 51.96 20.14 C 55.92 21.37 59.71 23.49 63.95 23.50 C 75.51 23.61 87.07 23.33 98.63 23.61 C 93.12 31.37 87.10 38.76 81.44 46.43 C 79.19 49.15 80.64 52.86 80.36 56.06 C 80.43 62.95 76.41 68.78 73.86 74.90 C 72.68 77.44 73.50 80.25 73.83 82.89 C 71.17 84.83 68.76 88.24 65.05 87.56 C 60.22 87.58 59.20 81.89 57.14 78.58 C 54.93 81.36 52.79 84.19 50.64 87.02 C 46.79 82.29 43.12 77.42 39.41 72.59 C 37.96 70.67 36.21 68.94 33.96 67.99 C 28.61 64.97 22.32 66.99 16.54 66.89 C 19.28 62.69 22.21 58.60 25.28 54.63 C 17.43 44.19 9.15 34.09 1.36 23.61 C 6.54 23.45 11.71 23.49 16.89 23.52 C 15.59 20.43 14.32 17.34 13.09 14.23 M 15.55 15.25 C 16.96 20.03 20.30 23.73 23.89 27.03 C 19.16 27.36 14.42 27.41 9.69 27.45 C 14.31 34.06 19.43 40.29 24.41 46.63 C 26.10 48.96 28.21 51.55 27.83 54.62 C 25.76 58.27 22.55 61.09 20.08 64.45 C 25.63 64.79 31.10 63.61 36.61 63.42 C 42.10 68.31 45.58 75.01 50.63 80.34 C 52.02 78.58 53.40 76.81 54.77 75.04 C 58.43 77.20 60.58 80.84 62.91 84.23 C 64.95 85.31 68.00 85.59 69.76 83.85 C 71.29 80.05 71.33 75.80 73.08 72.06 C 75.66 66.28 79.25 60.35 78.29 53.75 C 78.16 50.16 76.19 46.01 78.83 42.88 C 82.57 37.64 86.75 32.72 90.29 27.33 C 82.84 27.12 75.39 27.48 67.94 27.32 C 63.48 27.39 59.60 25.05 55.63 23.38 C 46.79 19.35 36.59 20.30 27.81 16.08 C 23.99 14.05 19.64 14.47 15.55 15.25 Z" />
<path fill="#c40f24" opacity="1.00" d=" M 15.55 15.25 C 19.64 14.47 23.99 14.05 27.81 16.08 C 36.59 20.30 46.79 19.35 55.63 23.38 C 59.60 25.05 63.48 27.39 67.94 27.32 C 75.39 27.48 82.84 27.12 90.29 27.33 C 86.75 32.72 82.57 37.64 78.83 42.88 C 76.19 46.01 78.16 50.16 78.29 53.75 C 79.25 60.35 75.66 66.28 73.08 72.06 C 71.33 75.80 71.29 80.05 69.76 83.85 C 68.00 85.59 64.95 85.31 62.91 84.23 C 60.58 80.84 58.43 77.20 54.77 75.04 C 53.40 76.81 52.02 78.58 50.63 80.34 C 45.58 75.01 42.10 68.31 36.61 63.42 C 31.10 63.61 25.63 64.79 20.08 64.45 C 22.55 61.09 25.76 58.27 27.83 54.62 C 28.21 51.55 26.10 48.96 24.41 46.63 C 19.43 40.29 14.31 34.06 9.69 27.45 C 14.42 27.41 19.16 27.36 23.89 27.03 C 20.30 23.73 16.96 20.03 15.55 15.25 M 19.22 16.87 C 20.90 21.25 26.59 22.97 26.83 27.99 C 28.23 37.17 29.81 46.33 31.03 55.54 C 28.23 57.80 25.66 60.32 23.09 62.83 C 25.87 62.34 28.71 62.08 31.42 61.25 C 35.82 59.35 39.06 55.60 43.18 53.21 C 51.16 48.46 59.40 44.16 67.48 39.58 C 69.95 38.14 72.67 37.20 75.44 36.52 C 78.79 35.88 80.38 32.47 82.25 30.00 C 79.32 30.26 76.41 30.66 73.53 31.23 C 72.47 33.47 70.91 35.48 68.64 36.58 C 60.46 41.07 52.29 45.58 44.22 50.25 C 40.95 52.21 37.43 53.67 33.79 54.76 C 31.79 44.66 30.44 34.45 29.62 24.20 C 37.16 25.72 44.75 27.25 51.92 30.10 C 56.36 31.86 59.37 35.75 62.29 39.35 C 64.25 38.26 66.21 37.16 68.16 36.05 C 61.79 26.02 49.14 23.39 38.19 21.84 C 31.58 21.24 25.83 17.39 19.22 16.87 M 64.48 42.00 C 66.72 46.79 70.06 51.44 69.95 56.95 C 69.87 62.95 67.07 68.40 64.85 73.84 C 57.47 69.98 50.13 66.05 42.76 62.20 C 40.21 60.82 37.36 60.23 34.52 59.85 C 42.44 66.14 51.78 70.27 60.19 75.82 C 63.11 77.80 63.99 81.46 65.77 84.32 C 66.96 82.66 68.01 80.84 68.07 78.74 C 68.40 71.16 74.49 65.47 75.34 58.01 C 76.49 51.23 73.45 44.75 70.15 39.03 C 68.26 40.02 66.37 41.01 64.48 42.00 M 59.33 68.99 C 60.54 69.72 61.75 70.45 62.95 71.19 C 64.44 67.41 65.86 63.60 66.88 59.67 C 64.11 62.56 61.69 65.76 59.33 68.99 Z" />
<path fill="#ffffff" opacity="1.00" d=" M 19.22 16.87 C 25.83 17.39 31.58 21.24 38.19 21.84 C 49.14 23.39 61.79 26.02 68.16 36.05 C 66.21 37.16 64.25 38.26 62.29 39.35 C 59.37 35.75 56.36 31.86 51.92 30.10 C 44.75 27.25 37.16 25.72 29.62 24.20 C 30.44 34.45 31.79 44.66 33.79 54.76 C 37.43 53.67 40.95 52.21 44.22 50.25 C 52.29 45.58 60.46 41.07 68.64 36.58 C 70.91 35.48 72.47 33.47 73.53 31.23 C 76.41 30.66 79.32 30.26 82.25 30.00 C 80.38 32.47 78.79 35.88 75.44 36.52 C 72.67 37.20 69.95 38.14 67.48 39.58 C 59.40 44.16 51.16 48.46 43.18 53.21 C 39.06 55.60 35.82 59.35 31.42 61.25 C 28.71 62.08 25.87 62.34 23.09 62.83 C 25.66 60.32 28.23 57.80 31.03 55.54 C 29.81 46.33 28.23 37.17 26.83 27.99 C 26.59 22.97 20.90 21.25 19.22 16.87 Z" />
<path fill="#ffffff" opacity="1.00" d=" M 64.48 42.00 C 66.37 41.01 68.26 40.02 70.15 39.03 C 73.45 44.75 76.49 51.23 75.34 58.01 C 74.49 65.47 68.40 71.16 68.07 78.74 C 68.01 80.84 66.96 82.66 65.77 84.32 C 63.99 81.46 63.11 77.80 60.19 75.82 C 51.78 70.27 42.44 66.14 34.52 59.85 C 37.36 60.23 40.21 60.82 42.76 62.20 C 50.13 66.05 57.47 69.98 64.85 73.84 C 67.07 68.40 69.87 62.95 69.95 56.95 C 70.06 51.44 66.72 46.79 64.48 42.00 Z" />
<path fill="#b7bfbe" opacity="1.00" d=" M 59.33 68.99 C 61.69 65.76 64.11 62.56 66.88 59.67 C 65.86 63.60 64.44 67.41 62.95 71.19 C 61.75 70.45 60.54 69.72 59.33 68.99 Z" />
</svg>
