<?xml version="1.0" encoding="UTF-8" ?>
<!DOCTYPE svg PUBLIC "-//W3C//DTD SVG 1.1//EN" "http://www.w3.org/Graphics/SVG/1.1/DTD/svg11.dtd">
<svg width="100pt" height="100pt" viewBox="0 0 100 100" version="1.1" xmlns="http://www.w3.org/2000/svg">
<path fill="#b5c0c4" opacity="1.00" d=" M 47.50 9.46 C 49.36 7.80 52.50 7.97 54.18 9.80 C 57.21 13.16 58.47 17.62 60.39 21.63 C 61.09 23.53 63.08 24.31 64.67 25.31 C 70.56 28.50 75.65 32.91 80.56 37.41 C 84.86 41.49 89.24 45.70 92.13 50.95 C 93.80 53.93 94.64 57.81 92.91 60.96 C 91.45 63.39 88.62 64.38 86.26 65.68 C 89.46 69.94 92.52 74.31 95.63 78.65 C 84.00 78.36 72.38 78.59 60.75 78.42 C 59.49 83.03 60.00 89.60 54.52 91.43 C 51.00 91.79 46.96 92.32 43.88 90.17 C 39.64 87.81 41.85 82.19 41.63 78.26 C 29.23 78.52 16.83 78.18 4.44 78.22 C 10.01 70.19 15.70 62.23 21.22 54.16 C 15.87 48.99 9.89 43.81 7.26 36.63 C 5.60 32.57 7.69 27.45 11.91 26.01 C 20.99 22.95 30.43 26.23 38.95 29.43 C 41.36 22.64 42.21 14.85 47.50 9.46 M 40.35 33.30 C 34.73 30.56 28.92 27.77 22.57 27.38 C 18.75 27.20 14.51 27.03 11.16 29.19 C 8.33 31.41 9.05 35.59 10.62 38.35 C 14.14 44.69 19.75 49.47 25.01 54.32 C 20.48 61.38 15.39 68.06 10.86 75.13 C 22.48 75.56 34.11 74.93 45.73 75.52 C 44.80 79.44 42.77 83.59 44.21 87.62 C 48.07 89.16 52.74 89.54 56.53 87.56 C 57.29 83.49 56.67 79.33 56.30 75.25 C 67.27 75.22 78.24 75.45 89.20 75.12 C 86.61 71.22 83.92 67.39 81.14 63.63 C 84.81 62.67 90.71 62.78 91.38 57.92 C 91.57 52.09 87.05 47.60 83.43 43.56 C 77.60 37.69 71.43 31.98 64.19 27.90 C 62.02 26.52 59.38 25.37 58.27 22.89 C 56.08 18.59 54.95 13.45 50.96 10.36 C 43.03 15.23 43.96 25.75 40.35 33.30 Z" />
<path fill="#d96035" opacity="1.00" d=" M 40.35 33.30 C 43.96 25.75 43.03 15.23 50.96 10.36 C 54.95 13.45 56.08 18.59 58.27 22.89 C 59.38 25.37 62.02 26.52 64.19 27.90 C 71.43 31.98 77.60 37.69 83.43 43.56 C 87.05 47.60 91.57 52.09 91.38 57.92 C 90.71 62.78 84.81 62.67 81.14 63.63 C 83.92 67.39 86.61 71.22 89.20 75.12 C 78.24 75.45 67.27 75.22 56.30 75.25 C 56.67 79.33 57.29 83.49 56.53 87.56 C 52.74 89.54 48.07 89.16 44.21 87.62 C 42.77 83.59 44.80 79.44 45.73 75.52 C 34.11 74.93 22.48 75.56 10.86 75.13 C 15.39 68.06 20.48 61.38 25.01 54.32 C 19.75 49.47 14.14 44.69 10.62 38.35 C 9.05 35.59 8.33 31.41 11.16 29.19 C 14.51 27.03 18.75 27.20 22.57 27.38 C 28.92 27.77 34.73 30.56 40.35 33.30 M 45.36 26.93 C 44.93 38.51 44.52 50.08 44.22 61.66 C 46.03 62.44 47.83 63.22 49.64 64.00 C 49.65 51.60 49.91 39.21 50.55 26.83 C 50.67 39.23 51.29 51.62 51.41 64.02 C 53.16 63.26 54.91 62.51 56.66 61.76 C 56.29 50.49 56.32 39.20 56.01 27.93 C 55.99 22.44 53.42 17.51 50.77 12.87 C 48.15 17.17 45.39 21.73 45.36 26.93 M 13.62 30.68 C 11.27 31.05 11.52 33.98 12.19 35.67 C 13.81 39.74 16.91 42.97 19.90 46.09 C 25.14 51.32 30.72 56.29 37.02 60.22 C 31.60 53.50 23.89 48.28 21.12 39.73 C 27.85 40.42 34.16 42.94 40.35 45.53 C 40.30 42.76 40.49 39.94 39.93 37.21 C 37.86 34.34 34.32 33.07 31.16 31.78 C 25.60 29.89 19.32 28.80 13.62 30.68 M 57.92 29.67 C 60.11 34.66 63.06 39.31 66.63 43.41 C 68.84 46.11 72.39 46.89 75.56 47.89 C 70.71 40.95 64.94 34.48 57.92 29.67 M 63.95 30.63 C 69.31 37.24 76.91 42.43 79.57 50.89 C 72.85 50.02 66.50 47.57 60.33 44.88 C 60.35 47.86 60.36 50.84 60.36 53.82 C 65.94 57.49 72.21 60.49 79.00 60.68 C 82.28 60.69 86.23 61.14 88.74 58.57 C 89.47 54.70 86.71 51.37 84.49 48.53 C 78.46 41.72 71.74 35.38 63.95 30.63 M 24.93 42.89 C 26.45 44.72 27.99 46.54 29.53 48.35 C 30.24 47.12 30.95 45.90 31.67 44.68 C 29.42 44.07 27.18 43.47 24.93 42.89 M 36.24 64.96 C 39.90 66.70 43.94 67.62 47.43 69.71 C 48.44 72.79 48.21 76.10 48.44 79.30 C 49.85 79.37 51.27 79.43 52.69 79.47 C 52.89 76.46 52.79 73.39 53.49 70.44 C 56.46 67.90 60.55 67.40 63.90 65.54 C 63.57 64.22 62.86 62.99 61.70 62.23 C 57.61 62.67 54.00 65.04 49.93 65.55 C 46.54 64.94 43.61 62.84 40.21 62.23 C 38.78 62.98 37.53 64.02 36.24 64.96 M 46.04 80.64 C 46.27 82.45 46.56 84.26 47.09 86.01 C 49.49 86.33 51.92 86.29 54.34 86.32 C 54.28 84.31 54.22 82.31 54.14 80.30 C 51.44 80.45 48.74 80.54 46.04 80.64 Z" />
<path fill="#ffffff" opacity="1.00" d=" M 45.36 26.93 C 45.39 21.73 48.15 17.17 50.77 12.87 C 53.42 17.51 55.99 22.44 56.01 27.93 C 56.32 39.20 56.29 50.49 56.66 61.76 C 54.91 62.51 53.16 63.26 51.41 64.02 C 51.29 51.62 50.67 39.23 50.55 26.83 C 49.91 39.21 49.65 51.60 49.64 64.00 C 47.83 63.22 46.03 62.44 44.22 61.66 C 44.52 50.08 44.93 38.51 45.36 26.93 Z" />
<path fill="#ffffff" opacity="1.00" d=" M 13.62 30.68 C 19.32 28.80 25.60 29.89 31.16 31.78 C 34.32 33.07 37.86 34.34 39.93 37.21 C 40.49 39.94 40.30 42.76 40.35 45.53 C 34.16 42.94 27.85 40.42 21.12 39.73 C 23.89 48.28 31.60 53.50 37.02 60.22 C 30.72 56.29 25.14 51.32 19.90 46.09 C 16.91 42.97 13.81 39.74 12.19 35.67 C 11.52 33.98 11.27 31.05 13.62 30.68 Z" />
<path fill="#b8b8b9" opacity="1.00" d=" M 57.92 29.67 C 64.94 34.48 70.71 40.95 75.56 47.89 C 72.39 46.89 68.84 46.11 66.63 43.41 C 63.06 39.31 60.11 34.66 57.92 29.67 Z" />
<path fill="#ffffff" opacity="1.00" d=" M 63.95 30.63 C 71.74 35.38 78.46 41.72 84.49 48.53 C 86.71 51.37 89.47 54.70 88.74 58.57 C 86.23 61.14 82.28 60.69 79.00 60.68 C 72.21 60.49 65.94 57.49 60.36 53.82 C 60.36 50.84 60.35 47.86 60.33 44.88 C 66.50 47.57 72.85 50.02 79.57 50.89 C 76.91 42.43 69.31 37.24 63.95 30.63 Z" />
<path fill="#b8b7b7" opacity="1.00" d=" M 24.93 42.89 C 27.18 43.47 29.42 44.07 31.67 44.68 C 30.95 45.90 30.24 47.12 29.53 48.35 C 27.99 46.54 26.45 44.72 24.93 42.89 Z" />
<path fill="#ffffff" opacity="1.00" d=" M 36.24 64.96 C 37.53 64.02 38.78 62.98 40.21 62.23 C 43.61 62.84 46.54 64.94 49.93 65.55 C 54.00 65.04 57.61 62.67 61.70 62.23 C 62.86 62.99 63.57 64.22 63.90 65.54 C 60.55 67.40 56.46 67.90 53.49 70.44 C 52.79 73.39 52.89 76.46 52.69 79.47 C 51.27 79.43 49.85 79.37 48.44 79.30 C 48.21 76.10 48.44 72.79 47.43 69.71 C 43.94 67.62 39.90 66.70 36.24 64.96 Z" />
<path fill="#ffffff" opacity="1.00" d=" M 46.04 80.64 C 48.74 80.54 51.44 80.45 54.14 80.30 C 54.22 82.31 54.28 84.31 54.34 86.32 C 51.92 86.29 49.49 86.33 47.09 86.01 C 46.56 84.26 46.27 82.45 46.04 80.64 Z" />
</svg>
