<?xml version="1.0" encoding="UTF-8" ?>
<!DOCTYPE svg PUBLIC "-//W3C//DTD SVG 1.1//EN" "http://www.w3.org/Graphics/SVG/1.1/DTD/svg11.dtd">
<svg width="100pt" height="100pt" viewBox="0 0 100 100" version="1.1" xmlns="http://www.w3.org/2000/svg">
<path fill="#b8b8b8" opacity="1.00" d=" M 44.09 19.04 C 46.59 18.32 48.17 16.18 49.78 14.30 C 50.96 15.73 52.00 17.33 53.50 18.45 C 56.26 20.19 59.61 20.77 62.26 22.70 C 64.10 25.43 65.33 28.53 66.47 31.61 C 67.64 34.63 65.72 38.27 68.04 40.93 C 71.78 46.16 74.89 51.93 79.64 56.34 C 83.78 60.29 87.35 64.86 90.15 69.85 C 91.44 72.14 91.50 74.87 92.78 77.16 C 94.15 79.61 95.83 81.87 97.32 84.24 C 78.22 84.50 59.11 84.18 40.00 84.15 C 27.18 84.33 14.38 83.47 1.55 83.70 C 3.32 80.04 7.87 76.70 5.61 72.27 C 8.68 67.51 11.73 62.71 15.52 58.48 C 18.81 54.78 23.14 52.09 26.03 48.02 C 28.11 45.10 30.26 42.21 32.13 39.16 C 34.00 36.21 32.63 32.56 33.43 29.34 C 34.54 24.13 39.39 20.79 44.09 19.04 M 36.45 27.47 C 33.90 31.70 36.94 37.09 34.31 41.27 C 31.46 45.93 28.28 50.53 23.96 53.94 C 17.83 58.78 12.68 64.90 8.96 71.74 C 9.02 74.54 10.51 77.42 9.16 80.27 C 36.03 80.41 62.90 80.41 89.77 80.27 C 88.72 77.04 88.67 73.59 87.64 70.37 C 84.44 64.24 79.55 59.16 74.32 54.71 C 69.80 50.83 66.54 45.78 63.39 40.80 C 64.88 36.68 65.27 32.11 62.83 28.25 C 61.35 23.57 56.40 21.96 52.14 20.80 C 46.17 19.07 39.71 22.45 36.45 27.47 Z" />
<path fill="#277373" opacity="1.00" d=" M 36.45 27.47 C 39.71 22.45 46.17 19.07 52.14 20.80 C 56.40 21.96 61.35 23.57 62.83 28.25 C 65.27 32.11 64.88 36.68 63.39 40.80 C 66.54 45.78 69.80 50.83 74.32 54.71 C 79.55 59.16 84.44 64.24 87.64 70.37 C 88.67 73.59 88.72 77.04 89.77 80.27 C 62.90 80.41 36.03 80.41 9.16 80.27 C 10.51 77.42 9.02 74.54 8.96 71.74 C 12.68 64.90 17.83 58.78 23.96 53.94 C 28.28 50.53 31.46 45.93 34.31 41.27 C 36.94 37.09 33.90 31.70 36.45 27.47 M 37.81 29.70 C 36.67 34.47 37.84 39.49 38.88 44.19 C 39.66 47.91 43.00 50.17 44.74 53.36 C 45.09 55.71 44.46 58.06 44.26 60.40 C 45.43 59.06 47.07 57.91 47.42 56.06 C 48.45 52.26 44.28 50.00 42.60 47.13 C 44.80 48.64 47.29 50.04 48.63 52.44 C 49.75 55.86 47.92 59.08 45.90 61.70 C 44.50 61.28 43.10 60.86 41.69 60.46 C 42.68 66.18 47.94 69.62 50.10 74.84 C 49.40 76.05 48.71 77.28 48.02 78.50 C 49.40 78.76 50.78 79.03 52.16 79.29 C 54.43 78.05 57.25 76.02 56.81 73.10 C 56.26 69.34 51.68 69.64 49.33 67.54 C 50.19 63.20 52.16 59.05 51.46 54.48 C 53.02 52.75 54.58 51.03 56.10 49.26 C 53.25 46.77 49.81 45.19 46.53 43.39 C 43.94 42.13 43.85 38.88 43.49 36.40 C 42.93 32.94 46.52 29.43 49.98 30.13 C 52.59 30.32 54.38 32.52 56.48 33.83 C 56.00 31.80 55.97 29.05 53.60 28.26 C 51.40 27.68 49.11 27.60 46.86 27.34 C 49.08 26.91 51.31 26.30 53.60 26.39 C 56.78 27.38 57.58 30.90 58.28 33.74 C 57.48 34.38 56.68 35.02 55.88 35.67 C 54.28 35.08 52.68 34.51 51.06 33.98 C 51.38 35.55 51.63 37.16 52.18 38.68 C 54.55 41.62 58.45 39.96 61.51 39.45 C 63.56 35.07 62.04 30.33 59.40 26.59 C 53.38 20.78 41.42 21.52 37.81 29.70 M 10.85 72.94 C 12.62 74.85 14.01 77.92 17.04 77.79 C 24.17 78.28 31.61 75.84 37.01 71.15 C 38.45 68.53 37.66 65.14 37.98 62.21 C 31.17 65.07 24.39 68.34 17.01 69.42 C 17.72 68.01 18.44 66.61 19.18 65.21 C 19.94 65.84 20.70 66.46 21.46 67.09 C 22.77 58.83 30.66 54.55 35.23 48.25 C 25.62 54.80 16.52 62.61 10.85 72.94 M 62.17 47.88 C 65.69 52.64 70.43 56.34 73.98 61.08 C 75.39 62.78 75.54 65.05 75.88 67.15 C 76.85 66.49 77.85 65.89 78.81 65.23 C 79.36 66.61 79.89 67.99 80.41 69.38 C 73.17 68.23 66.46 65.16 59.65 62.61 C 59.88 66.07 58.52 70.78 62.20 72.86 C 68.12 76.77 75.62 78.39 82.64 77.64 C 84.19 76.32 85.29 74.59 86.52 72.99 C 80.95 62.51 71.57 54.80 62.17 47.88 Z" />
<path fill="#ffffff" opacity="1.00" d=" M 37.81 29.70 C 41.42 21.52 53.38 20.78 59.40 26.59 C 62.04 30.33 63.56 35.07 61.51 39.45 C 58.45 39.96 54.55 41.62 52.18 38.68 C 51.63 37.16 51.38 35.55 51.06 33.98 C 52.68 34.51 54.28 35.08 55.88 35.67 C 56.68 35.02 57.48 34.38 58.28 33.74 C 57.58 30.90 56.78 27.38 53.60 26.39 C 51.31 26.30 49.08 26.91 46.86 27.34 C 49.11 27.60 51.40 27.68 53.60 28.26 C 55.97 29.05 56.00 31.80 56.48 33.83 C 54.38 32.52 52.59 30.32 49.98 30.13 C 46.52 29.43 42.93 32.94 43.49 36.40 C 43.85 38.88 43.94 42.13 46.53 43.39 C 49.81 45.19 53.25 46.77 56.10 49.26 C 54.58 51.03 53.02 52.75 51.46 54.48 C 52.16 59.05 50.19 63.20 49.33 67.54 C 51.68 69.64 56.26 69.34 56.81 73.10 C 57.25 76.02 54.43 78.05 52.16 79.29 C 52.42 78.02 52.69 76.75 52.97 75.48 C 52.01 75.27 51.05 75.05 50.10 74.84 C 47.94 69.62 42.68 66.18 41.69 60.46 C 43.10 60.86 44.50 61.28 45.90 61.70 C 47.92 59.08 49.75 55.86 48.63 52.44 C 47.29 50.04 44.80 48.64 42.60 47.13 C 44.28 50.00 48.45 52.26 47.42 56.06 C 47.07 57.91 45.43 59.06 44.26 60.40 C 44.46 58.06 45.09 55.71 44.74 53.36 C 43.00 50.17 39.66 47.91 38.88 44.19 C 37.84 39.49 36.67 34.47 37.81 29.70 Z" />
<path fill="#ffffff" opacity="1.00" d=" M 10.85 72.94 C 16.52 62.61 25.62 54.80 35.23 48.25 C 30.66 54.55 22.77 58.83 21.46 67.09 C 20.70 66.46 19.94 65.84 19.18 65.21 C 18.44 66.61 17.72 68.01 17.01 69.42 C 24.39 68.34 31.17 65.07 37.98 62.21 C 37.66 65.14 38.45 68.53 37.01 71.15 C 31.61 75.84 24.17 78.28 17.04 77.79 C 14.01 77.92 12.62 74.85 10.85 72.94 Z" />
<path fill="#ffffff" opacity="1.00" d=" M 62.17 47.88 C 71.57 54.80 80.95 62.51 86.52 72.99 C 85.29 74.59 84.19 76.32 82.64 77.64 C 75.62 78.39 68.12 76.77 62.20 72.86 C 58.52 70.78 59.88 66.07 59.65 62.61 C 66.46 65.16 73.17 68.23 80.41 69.38 C 79.89 67.99 79.36 66.61 78.81 65.23 C 77.85 65.89 76.85 66.49 75.88 67.15 C 75.54 65.05 75.39 62.78 73.98 61.08 C 70.43 56.34 65.69 52.64 62.17 47.88 Z" />
<path fill="#7facac" opacity="1.00" d=" M 50.10 74.84 C 51.05 75.05 52.01 75.27 52.97 75.48 C 52.69 76.75 52.42 78.02 52.16 79.29 C 50.78 79.03 49.40 78.76 48.02 78.50 C 48.71 77.28 49.40 76.05 50.10 74.84 Z" />
</svg>
