<?xml version="1.0" encoding="UTF-8" ?>
<!DOCTYPE svg PUBLIC "-//W3C//DTD SVG 1.1//EN" "http://www.w3.org/Graphics/SVG/1.1/DTD/svg11.dtd">
<svg width="100pt" height="100pt" viewBox="0 0 100 100" version="1.1" xmlns="http://www.w3.org/2000/svg">
<path fill="#f0c641" opacity="1.00" d=" M 1.50 82.30 C 16.42 60.47 31.73 38.90 46.94 17.27 C 50.98 22.84 54.97 28.43 58.89 34.08 C 60.02 35.60 61.06 37.26 62.59 38.41 C 66.28 39.77 70.24 40.14 74.07 40.94 C 73.47 42.01 72.87 43.07 72.28 44.14 C 80.97 44.60 89.66 45.25 98.34 45.82 C 93.89 49.00 89.41 52.32 84.24 54.26 C 81.41 55.33 78.63 56.54 75.89 57.83 C 81.83 66.05 87.73 74.31 93.61 82.59 C 62.90 82.66 32.20 82.46 1.50 82.30 M 33.14 42.17 C 24.70 54.53 15.65 66.48 7.60 79.10 C 34.20 79.72 60.81 79.16 87.42 79.48 C 82.68 71.96 77.08 65.04 72.18 57.63 C 77.85 51.42 87.14 52.00 93.42 46.71 C 88.59 46.23 83.75 45.70 78.88 45.58 C 73.81 45.38 69.01 47.60 63.92 47.36 C 66.28 45.51 68.74 43.80 71.22 42.12 C 66.45 40.88 60.35 41.28 57.16 36.85 C 53.70 32.18 50.63 27.23 46.96 22.71 C 42.11 29.02 37.76 35.69 33.14 42.17 Z" />
<path fill="#bdbbbe" opacity="1.00" d=" M 33.14 42.17 C 37.76 35.69 42.11 29.02 46.96 22.71 C 50.63 27.23 53.70 32.18 57.16 36.85 C 60.35 41.28 66.45 40.88 71.22 42.12 C 68.74 43.80 66.28 45.51 63.92 47.36 C 69.01 47.60 73.81 45.38 78.88 45.58 C 83.75 45.70 88.59 46.23 93.42 46.71 C 87.14 52.00 77.85 51.42 72.18 57.63 C 77.08 65.04 82.68 71.96 87.42 79.48 C 60.81 79.16 34.20 79.72 7.60 79.10 C 15.65 66.48 24.70 54.53 33.14 42.17 M 29.06 53.03 C 23.72 60.91 18.01 68.54 12.92 76.60 C 35.97 76.60 59.03 76.61 82.09 76.59 C 79.08 71.76 75.43 67.37 72.24 62.66 C 70.90 60.84 71.03 58.50 70.93 56.36 C 70.46 56.19 69.52 55.83 69.05 55.66 C 76.02 52.63 83.25 50.27 90.30 47.44 C 83.94 46.78 77.27 45.85 71.13 48.23 C 68.07 49.47 64.74 48.93 61.58 48.50 C 61.45 47.95 61.18 46.84 61.05 46.28 C 63.46 45.02 65.88 43.74 68.28 42.44 C 63.73 41.63 57.89 42.43 54.78 38.25 C 52.01 34.80 49.66 31.05 46.96 27.54 C 40.75 35.86 35.06 44.55 29.06 53.03 Z" />
<path fill="#277373" opacity="1.00" d=" M 29.06 53.03 C 35.06 44.55 40.75 35.86 46.96 27.54 C 49.66 31.05 52.01 34.80 54.78 38.25 C 57.89 42.43 63.73 41.63 68.28 42.44 C 65.88 43.74 63.46 45.02 61.05 46.28 C 61.18 46.84 61.45 47.95 61.58 48.50 C 64.74 48.93 68.07 49.47 71.13 48.23 C 77.27 45.85 83.94 46.78 90.30 47.44 C 83.25 50.27 76.02 52.63 69.05 55.66 C 69.52 55.83 70.46 56.19 70.93 56.36 C 71.03 58.50 70.90 60.84 72.24 62.66 C 75.43 67.37 79.08 71.76 82.09 76.59 C 59.03 76.61 35.97 76.60 12.92 76.60 C 18.01 68.54 23.72 60.91 29.06 53.03 M 44.23 39.03 C 43.05 40.46 45.53 42.21 46.55 40.72 C 47.73 39.29 45.26 37.55 44.23 39.03 M 51.61 43.60 C 53.98 43.66 56.35 43.31 58.46 42.18 C 56.11 42.26 53.79 42.72 51.61 43.60 M 54.03 44.75 C 48.09 44.46 42.28 46.63 36.35 45.44 C 35.70 49.80 32.65 52.90 29.29 55.46 C 34.58 58.18 40.52 57.91 46.24 57.24 C 44.52 58.89 42.89 60.73 40.76 61.87 C 35.91 63.00 30.99 61.41 26.36 60.04 C 24.44 62.85 22.52 65.65 20.61 68.46 C 25.30 71.92 31.26 73.28 36.98 73.53 C 41.81 72.80 46.57 71.68 51.44 71.14 C 47.68 69.83 43.70 69.10 39.72 69.62 C 34.52 70.30 29.26 68.64 25.09 65.53 C 34.30 67.36 43.70 67.60 53.06 67.76 C 57.04 67.88 60.58 65.83 64.08 64.20 C 61.83 64.55 59.59 65.00 57.34 65.29 C 53.40 65.91 49.66 64.13 45.99 62.99 C 47.83 61.41 49.18 58.43 51.96 58.63 C 55.15 58.41 58.44 59.25 61.56 58.42 C 65.13 56.66 68.45 54.42 71.87 52.39 C 75.90 51.48 79.69 49.82 83.32 47.89 C 79.87 47.75 76.30 47.71 73.13 49.26 C 69.63 50.98 65.76 50.57 62.00 50.46 C 57.59 50.25 54.72 55.02 50.29 54.71 C 46.26 54.52 42.24 54.14 38.22 53.72 C 42.14 49.75 47.34 46.94 52.98 46.70 C 56.60 46.56 59.96 45.17 63.07 43.40 C 60.09 44.02 57.10 44.80 54.03 44.75 M 67.30 58.01 C 65.99 57.94 64.49 60.07 66.16 60.72 C 68.15 61.67 70.13 57.81 67.30 58.01 M 54.03 72.38 C 56.91 72.79 59.76 72.03 61.21 69.33 C 58.58 69.69 56.09 70.68 54.03 72.38 Z" />
<path fill="#ffffff" opacity="1.00" d=" M 44.23 39.03 C 45.26 37.55 47.73 39.29 46.55 40.72 C 45.53 42.21 43.05 40.46 44.23 39.03 Z" />
<path fill="#ffffff" opacity="1.00" d=" M 51.61 43.60 C 53.79 42.72 56.11 42.26 58.46 42.18 C 56.35 43.31 53.98 43.66 51.61 43.60 Z" />
<path fill="#ffffff" opacity="1.00" d=" M 54.03 44.75 C 57.10 44.80 60.09 44.02 63.07 43.40 C 59.96 45.17 56.60 46.56 52.98 46.70 C 47.34 46.94 42.14 49.75 38.22 53.72 C 42.24 54.14 46.26 54.52 50.29 54.71 C 54.72 55.02 57.59 50.25 62.00 50.46 C 65.76 50.57 69.63 50.98 73.13 49.26 C 73.58 49.12 74.48 48.82 74.93 48.67 C 73.94 49.93 72.96 51.21 71.87 52.39 C 68.45 54.42 65.13 56.66 61.56 58.42 C 58.44 59.25 55.15 58.41 51.96 58.63 C 49.18 58.43 47.83 61.41 45.99 62.99 C 49.66 64.13 53.40 65.91 57.34 65.29 C 59.59 65.00 61.83 64.55 64.08 64.20 C 60.58 65.83 57.04 67.88 53.06 67.76 C 43.70 67.60 34.30 67.36 25.09 65.53 C 29.26 68.64 34.52 70.30 39.72 69.62 C 43.70 69.10 47.68 69.83 51.44 71.14 C 46.57 71.68 41.81 72.80 36.98 73.53 C 31.26 73.28 25.30 71.92 20.61 68.46 C 22.52 65.65 24.44 62.85 26.36 60.04 C 30.99 61.41 35.91 63.00 40.76 61.87 C 42.89 60.73 44.52 58.89 46.24 57.24 C 40.52 57.91 34.58 58.18 29.29 55.46 C 32.65 52.90 35.70 49.80 36.35 45.44 C 42.28 46.63 48.09 44.46 54.03 44.75 M 55.67 56.13 C 60.08 56.88 64.08 54.84 67.34 52.07 C 62.95 51.54 58.54 52.58 55.67 56.13 Z" />
<path fill="#9fc2c2" opacity="1.00" d=" M 73.13 49.26 C 76.30 47.71 79.87 47.75 83.32 47.89 C 79.69 49.82 75.90 51.48 71.87 52.39 C 72.96 51.21 73.94 49.93 74.93 48.67 C 74.48 48.82 73.58 49.12 73.13 49.26 Z" />
<path fill="#166868" opacity="1.00" d=" M 55.67 56.13 C 58.54 52.58 62.95 51.54 67.34 52.07 C 64.08 54.84 60.08 56.88 55.67 56.13 Z" />
<path fill="#ffffff" opacity="1.00" d=" M 67.30 58.01 C 70.13 57.81 68.15 61.67 66.16 60.72 C 64.49 60.07 65.99 57.94 67.30 58.01 Z" />
<path fill="#ffffff" opacity="1.00" d=" M 54.03 72.38 C 56.09 70.68 58.58 69.69 61.21 69.33 C 59.76 72.03 56.91 72.79 54.03 72.38 Z" />
</svg>
