<?xml version="1.0" encoding="UTF-8" ?>
<!DOCTYPE svg PUBLIC "-//W3C//DTD SVG 1.1//EN" "http://www.w3.org/Graphics/SVG/1.1/DTD/svg11.dtd">
<svg width="100pt" height="100pt" viewBox="0 0 100 100" version="1.1" xmlns="http://www.w3.org/2000/svg">
<path fill="#b9bdba" opacity="1.00" d=" M 52.40 11.42 C 56.93 12.81 61.55 13.93 66.27 14.44 C 67.26 17.49 69.56 19.68 72.24 21.29 C 72.23 22.29 72.21 23.28 72.20 24.28 C 79.55 24.52 86.90 24.29 94.26 24.42 C 84.39 34.17 74.00 43.38 64.00 52.99 C 68.16 56.82 72.22 60.76 76.43 64.55 C 79.00 67.19 82.99 66.20 86.28 66.60 C 84.68 67.47 83.07 68.30 81.47 69.15 C 85.66 73.29 90.17 77.10 94.30 81.30 C 85.87 81.65 77.42 81.44 68.98 81.40 C 70.36 82.84 71.76 84.27 73.12 85.74 C 66.23 83.97 59.39 82.04 52.48 80.38 C 51.38 81.60 50.24 82.78 49.15 84.00 C 48.05 83.11 46.94 82.22 45.76 81.43 C 42.14 83.36 39.41 86.56 36.16 89.03 C 35.96 87.01 35.76 85.00 35.56 82.98 C 31.41 84.98 27.28 87.02 23.11 88.98 C 24.01 86.44 24.98 83.93 25.93 81.40 C 19.17 81.46 12.42 81.63 5.67 81.29 C 9.31 77.61 13.24 74.24 17.14 70.83 C 15.05 70.04 12.96 69.26 10.89 68.41 C 16.17 67.20 22.09 66.91 26.12 62.81 C 23.17 56.66 19.36 50.97 16.57 44.75 C 20.83 47.06 24.82 49.84 29.09 52.14 C 29.46 50.67 29.85 49.21 30.25 47.75 C 31.17 51.28 31.97 54.84 32.73 58.40 C 28.68 55.35 24.77 52.12 20.75 49.02 C 23.40 54.17 26.36 59.16 29.20 64.21 C 26.00 66.74 22.09 67.95 18.08 68.42 C 19.29 69.06 20.50 69.71 21.70 70.36 C 19.09 72.88 16.48 75.41 13.90 77.96 C 19.27 78.05 24.64 78.06 30.01 78.04 C 29.37 80.09 28.71 82.14 28.07 84.19 C 31.53 82.36 34.98 80.49 38.44 78.67 C 38.36 80.74 38.24 82.82 38.16 84.90 C 40.48 82.59 42.83 80.30 45.29 78.15 C 48.42 78.47 51.57 78.16 54.70 78.45 C 58.31 78.90 61.75 80.12 65.25 81.04 C 62.65 78.89 60.02 76.77 57.49 74.54 C 58.96 74.22 60.41 73.78 61.92 73.70 C 65.05 74.85 67.48 77.68 70.93 77.98 C 75.99 78.48 81.09 78.03 86.16 77.91 C 83.26 75.02 80.32 72.19 77.34 69.39 C 78.58 68.76 79.81 68.13 81.05 67.51 C 78.05 66.93 74.70 66.83 72.26 64.75 C 67.97 61.27 64.28 57.15 60.50 53.15 C 68.81 44.48 77.70 36.40 86.14 27.87 C 80.16 27.62 74.17 27.65 68.19 27.76 C 68.63 25.93 68.96 24.08 69.41 22.25 C 65.51 17.09 59.08 13.68 52.53 14.70 C 49.00 15.91 44.69 17.63 43.56 21.57 C 42.24 25.83 41.45 30.23 40.25 34.52 C 36.90 31.78 33.78 27.80 29.08 27.68 C 24.03 27.30 18.97 27.70 13.92 27.91 C 17.72 31.87 21.98 35.33 25.97 39.09 C 28.08 40.95 29.17 43.60 29.85 46.27 C 25.75 43.39 22.24 39.79 18.55 36.43 C 14.29 32.41 9.78 28.66 5.71 24.43 C 14.15 24.37 22.59 24.34 31.03 24.38 C 34.37 24.26 36.40 27.38 38.82 29.17 C 40.02 25.04 41.25 20.91 42.62 16.83 C 46.20 15.67 49.58 13.94 52.40 11.42 Z" />
<path fill="#8a1b6c" opacity="1.00" d=" M 52.53 14.70 C 59.08 13.68 65.51 17.09 69.41 22.25 C 68.96 24.08 68.63 25.93 68.19 27.76 C 74.17 27.65 80.16 27.62 86.14 27.87 C 77.70 36.40 68.81 44.48 60.50 53.15 C 64.28 57.15 67.97 61.27 72.26 64.75 C 74.70 66.83 78.05 66.93 81.05 67.51 C 79.81 68.13 78.58 68.76 77.34 69.39 C 80.32 72.19 83.26 75.02 86.16 77.91 C 81.09 78.03 75.99 78.48 70.93 77.98 C 67.48 77.68 65.05 74.85 61.92 73.70 C 60.41 73.78 58.96 74.22 57.49 74.54 C 60.02 76.77 62.65 78.89 65.25 81.04 C 61.75 80.12 58.31 78.90 54.70 78.45 C 51.57 78.16 48.42 78.47 45.29 78.15 C 42.83 80.30 40.48 82.59 38.16 84.90 C 38.24 82.82 38.36 80.74 38.44 78.67 C 34.98 80.49 31.53 82.36 28.07 84.19 C 28.71 82.14 29.37 80.09 30.01 78.04 C 24.64 78.06 19.27 78.05 13.90 77.96 C 16.48 75.41 19.09 72.88 21.70 70.36 C 20.50 69.71 19.29 69.06 18.08 68.42 C 22.09 67.95 26.00 66.74 29.20 64.21 C 26.36 59.16 23.40 54.17 20.75 49.02 C 24.77 52.12 28.68 55.35 32.73 58.40 C 31.97 54.84 31.17 51.28 30.25 47.75 C 30.15 47.38 29.95 46.64 29.85 46.27 C 29.17 43.60 28.08 40.95 25.97 39.09 C 21.98 35.33 17.72 31.87 13.92 27.91 C 18.97 27.70 24.03 27.30 29.08 27.68 C 33.78 27.80 36.90 31.78 40.25 34.52 C 41.45 30.23 42.24 25.83 43.56 21.57 C 44.69 17.63 49.00 15.91 52.53 14.70 M 46.26 20.26 C 44.21 23.28 44.27 27.16 43.68 30.64 C 45.69 30.49 47.70 30.35 49.71 30.21 C 49.53 28.80 49.29 27.39 49.11 25.98 C 50.23 27.17 51.15 28.53 52.26 29.72 C 53.23 29.09 54.19 28.44 55.14 27.79 C 54.23 25.14 51.63 23.65 49.84 21.63 C 53.66 22.98 55.89 26.52 59.28 28.53 C 58.60 24.68 55.35 22.36 52.88 19.68 C 55.76 21.35 58.44 23.34 61.30 25.06 C 60.09 21.12 56.58 18.76 53.82 15.96 C 51.26 17.30 48.47 18.35 46.26 20.26 M 57.35 17.76 C 59.11 19.35 60.93 20.88 62.80 22.35 C 62.84 20.99 62.88 19.64 62.92 18.28 C 61.06 18.10 59.21 17.92 57.35 17.76 M 60.88 27.51 C 62.17 26.92 63.57 26.54 64.72 25.68 C 66.39 24.70 65.06 22.72 65.02 21.27 C 63.16 23.00 61.74 25.11 60.88 27.51 M 53.30 31.03 C 56.03 32.25 58.81 31.63 60.68 29.29 C 58.07 29.02 55.24 28.91 53.30 31.03 M 56.32 38.62 C 60.72 38.54 64.98 39.74 68.32 42.67 C 70.91 40.38 73.40 37.98 75.85 35.53 C 73.61 33.64 71.40 30.92 68.15 31.23 C 63.13 30.84 57.65 33.44 56.32 38.62 M 42.59 33.57 C 47.00 33.88 51.42 34.00 55.84 34.37 C 52.64 30.55 46.50 31.24 42.59 33.57 M 43.27 36.15 C 42.86 37.36 42.46 38.57 42.06 39.79 C 46.48 39.53 50.90 39.35 55.32 39.35 C 54.37 38.02 53.87 35.92 51.98 35.67 C 49.07 35.25 46.15 35.80 43.27 36.15 M 57.05 39.70 C 57.97 43.61 58.59 47.58 58.87 51.60 C 61.98 49.12 64.87 46.38 67.37 43.29 C 64.43 40.88 60.92 39.31 57.05 39.70 M 41.71 41.61 C 41.06 43.27 40.44 44.93 39.79 46.58 C 45.56 45.63 51.43 45.96 57.18 46.91 C 56.21 44.97 55.67 42.51 53.68 41.33 C 49.74 40.37 45.66 41.16 41.71 41.61 M 35.30 48.48 C 34.35 49.62 36.16 51.58 37.36 50.66 C 38.32 49.52 36.50 47.58 35.30 48.48 M 40.88 47.88 C 40.18 53.02 39.08 58.21 39.55 63.41 C 39.84 64.84 40.23 67.15 42.08 67.18 C 46.85 67.55 52.21 66.65 55.45 62.78 C 53.27 63.34 51.15 64.07 49.04 64.84 C 53.42 60.74 58.37 55.67 57.21 49.10 C 51.89 47.66 46.36 47.38 40.88 47.88 M 32.94 50.78 C 33.95 56.07 36.00 61.07 37.23 66.30 C 34.53 63.87 31.98 61.29 29.38 58.76 C 31.45 61.72 33.47 64.74 35.18 67.94 C 32.08 68.26 28.97 68.49 25.86 68.73 C 28.74 69.40 31.64 70.00 34.53 70.62 C 32.98 71.98 31.44 73.34 29.93 74.73 C 32.05 74.29 34.17 73.83 36.29 73.38 C 35.11 75.32 33.90 77.24 32.74 79.20 C 35.40 77.70 38.00 76.09 40.64 74.55 C 40.47 76.31 40.31 78.07 40.14 79.83 C 41.81 78.29 43.47 76.74 45.16 75.22 C 48.52 75.58 51.89 75.91 55.23 76.44 C 53.77 75.21 52.30 73.98 50.84 72.75 C 57.45 72.50 63.75 70.22 70.09 68.56 C 64.63 69.01 59.17 69.91 53.67 69.53 C 57.06 66.52 61.29 64.74 65.01 62.20 C 58.45 64.13 52.97 69.14 45.96 69.49 C 43.07 69.76 39.35 68.55 38.74 65.33 C 37.42 60.26 36.22 55.02 32.94 50.78 M 58.18 54.96 C 56.75 57.47 55.28 59.96 53.91 62.50 C 57.40 62.84 59.93 60.34 62.26 58.13 C 60.90 57.07 59.54 56.01 58.18 54.96 Z" />
<path fill="#ffffff" opacity="1.00" d=" M 46.26 20.26 C 48.47 18.35 51.26 17.30 53.82 15.96 C 56.58 18.76 60.09 21.12 61.30 25.06 C 58.44 23.34 55.76 21.35 52.88 19.68 C 55.35 22.36 58.60 24.68 59.28 28.53 C 55.89 26.52 53.66 22.98 49.84 21.63 C 51.63 23.65 54.23 25.14 55.14 27.79 C 54.19 28.44 53.23 29.09 52.26 29.72 C 51.15 28.53 50.23 27.17 49.11 25.98 C 49.29 27.39 49.53 28.80 49.71 30.21 C 47.70 30.35 45.69 30.49 43.68 30.64 C 44.27 27.16 44.21 23.28 46.26 20.26 Z" />
<path fill="#ffffff" opacity="1.00" d=" M 57.35 17.76 C 59.21 17.92 61.06 18.10 62.92 18.28 C 62.88 19.64 62.84 20.99 62.80 22.35 C 60.93 20.88 59.11 19.35 57.35 17.76 Z" />
<path fill="#ffffff" opacity="1.00" d=" M 60.88 27.51 C 61.74 25.11 63.16 23.00 65.02 21.27 C 65.06 22.72 66.39 24.70 64.72 25.68 C 63.57 26.54 62.17 26.92 60.88 27.51 Z" />
<path fill="#ffffff" opacity="1.00" d=" M 53.30 31.03 C 55.24 28.91 58.07 29.02 60.68 29.29 C 58.81 31.63 56.03 32.25 53.30 31.03 Z" />
<path fill="#ffffff" opacity="1.00" d=" M 56.32 38.62 C 57.65 33.44 63.13 30.84 68.15 31.23 C 71.40 30.92 73.61 33.64 75.85 35.53 C 73.40 37.98 70.91 40.38 68.32 42.67 C 64.98 39.74 60.72 38.54 56.32 38.62 Z" />
<path fill="#ffffff" opacity="1.00" d=" M 42.59 33.57 C 46.50 31.24 52.64 30.55 55.84 34.37 C 51.42 34.00 47.00 33.88 42.59 33.57 Z" />
<path fill="#ffffff" opacity="1.00" d=" M 43.27 36.15 C 46.15 35.80 49.07 35.25 51.98 35.67 C 53.87 35.92 54.37 38.02 55.32 39.35 C 50.90 39.35 46.48 39.53 42.06 39.79 C 42.46 38.57 42.86 37.36 43.27 36.15 Z" />
<path fill="#ffffff" opacity="1.00" d=" M 57.05 39.70 C 60.92 39.31 64.43 40.88 67.37 43.29 C 64.87 46.38 61.98 49.12 58.87 51.60 C 58.59 47.58 57.97 43.61 57.05 39.70 Z" />
<path fill="#ffffff" opacity="1.00" d=" M 41.71 41.61 C 45.66 41.16 49.74 40.37 53.68 41.33 C 55.67 42.51 56.21 44.97 57.18 46.91 C 51.43 45.96 45.56 45.63 39.79 46.58 C 40.44 44.93 41.06 43.27 41.71 41.61 Z" />
<path fill="#b6b0b4" opacity="1.00" d=" M 35.30 48.48 C 36.50 47.58 38.32 49.52 37.36 50.66 C 36.16 51.58 34.35 49.62 35.30 48.48 Z" />
<path fill="#ffffff" opacity="1.00" d=" M 40.88 47.88 C 46.36 47.38 51.89 47.66 57.21 49.10 C 58.37 55.67 53.42 60.74 49.04 64.84 C 51.15 64.07 53.27 63.34 55.45 62.78 C 52.21 66.65 46.85 67.55 42.08 67.18 C 40.23 67.15 39.84 64.84 39.55 63.41 C 39.08 58.21 40.18 53.02 40.88 47.88 Z" />
<path fill="#ffffff" opacity="1.00" d=" M 32.94 50.78 C 36.22 55.02 37.42 60.26 38.74 65.33 C 39.35 68.55 43.07 69.76 45.96 69.49 C 52.97 69.14 58.45 64.13 65.01 62.20 C 61.29 64.74 57.06 66.52 53.67 69.53 C 59.17 69.91 64.63 69.01 70.09 68.56 C 63.75 70.22 57.45 72.50 50.84 72.75 C 52.30 73.98 53.77 75.21 55.23 76.44 C 51.89 75.91 48.52 75.58 45.16 75.22 C 43.47 76.74 41.81 78.29 40.14 79.83 C 40.31 78.07 40.47 76.31 40.64 74.55 C 38.00 76.09 35.40 77.70 32.74 79.20 C 33.90 77.24 35.11 75.32 36.29 73.38 C 34.17 73.83 32.05 74.29 29.93 74.73 C 31.44 73.34 32.98 71.98 34.53 70.62 C 31.64 70.00 28.74 69.40 25.86 68.73 C 28.97 68.49 32.08 68.26 35.18 67.94 C 33.47 64.74 31.45 61.72 29.38 58.76 C 31.98 61.29 34.53 63.87 37.23 66.30 C 36.00 61.07 33.95 56.07 32.94 50.78 Z" />
<path fill="#ffffff" opacity="1.00" d=" M 58.18 54.96 C 59.54 56.01 60.90 57.07 62.26 58.13 C 59.93 60.34 57.40 62.84 53.91 62.50 C 55.28 59.96 56.75 57.47 58.18 54.96 Z" />
</svg>
