<?xml version="1.0" encoding="UTF-8" ?>
<!DOCTYPE svg PUBLIC "-//W3C//DTD SVG 1.1//EN" "http://www.w3.org/Graphics/SVG/1.1/DTD/svg11.dtd">
<svg width="100pt" height="100pt" viewBox="0 0 100 100" version="1.1" xmlns="http://www.w3.org/2000/svg">
<path fill="#bab9b9" opacity="1.00" d=" M 7.92 79.31 C 21.85 59.73 35.49 39.94 49.37 20.31 C 52.05 23.76 54.65 27.27 57.17 30.84 C 64.85 29.25 72.67 30.48 80.36 31.22 C 80.71 36.49 81.53 41.72 81.66 47.00 C 81.86 51.42 79.07 55.13 77.11 58.85 C 82.13 65.78 87.08 72.74 92.01 79.73 C 81.65 79.72 71.29 79.75 60.93 79.61 C 57.29 79.43 53.79 80.57 50.53 82.07 C 50.00 81.29 49.48 80.52 48.95 79.75 C 47.79 82.75 46.37 85.71 43.99 87.94 C 39.88 91.96 35.92 96.14 31.65 100.00 L 30.87 100.00 C 30.12 94.36 29.25 88.74 28.54 83.09 C 21.60 82.20 14.66 81.22 7.92 79.31 M 49.34 25.58 C 37.47 42.39 25.64 59.25 14.12 76.31 C 14.93 76.40 15.75 76.50 16.57 76.60 C 16.49 77.44 16.41 78.29 16.33 79.14 C 20.87 79.88 25.40 80.72 29.98 81.23 C 30.91 86.20 31.82 91.16 32.42 96.18 C 36.47 92.33 40.74 88.67 44.35 84.38 C 46.27 82.23 45.41 79.14 45.54 76.53 C 48.79 77.05 52.09 77.81 55.40 77.39 C 65.57 75.79 75.88 77.07 86.12 76.62 C 82.48 70.82 78.30 65.39 74.19 59.94 C 76.14 56.32 78.63 52.85 79.48 48.76 C 80.09 43.45 78.83 38.17 78.16 32.93 C 70.80 32.50 62.80 30.21 56.13 34.57 C 54.10 31.40 51.69 28.50 49.34 25.58 Z" />
<path fill="#217a7a" opacity="1.00" d=" M 49.34 25.58 C 51.69 28.50 54.10 31.40 56.13 34.57 C 62.80 30.21 70.80 32.50 78.16 32.93 C 78.83 38.17 80.09 43.45 79.48 48.76 C 78.63 52.85 76.14 56.32 74.19 59.94 C 78.30 65.39 82.48 70.82 86.12 76.62 C 75.88 77.07 65.57 75.79 55.40 77.39 C 52.09 77.81 48.79 77.05 45.54 76.53 C 45.41 79.14 46.27 82.23 44.35 84.38 C 40.74 88.67 36.47 92.33 32.42 96.18 C 31.82 91.16 30.91 86.20 29.98 81.23 C 25.40 80.72 20.87 79.88 16.33 79.14 C 16.41 78.29 16.49 77.44 16.57 76.60 C 15.75 76.50 14.93 76.40 14.12 76.31 C 25.64 59.25 37.47 42.39 49.34 25.58 M 59.73 35.73 C 54.66 38.35 49.57 41.00 44.81 44.16 C 48.69 43.14 52.40 41.60 56.14 40.17 C 62.37 37.78 69.03 36.92 75.57 35.77 C 74.66 42.37 73.76 49.06 71.35 55.31 C 69.58 59.90 67.56 64.39 66.16 69.11 C 69.62 63.77 72.40 58.03 75.46 52.46 C 78.53 47.31 76.48 41.21 76.34 35.62 C 70.87 35.15 64.91 32.97 59.73 35.73 M 56.31 45.08 C 56.13 47.36 56.79 50.10 54.93 51.87 C 51.61 55.56 47.83 58.81 44.44 62.43 C 42.24 64.58 40.29 67.07 37.63 68.67 C 34.97 68.97 32.28 68.43 29.61 68.71 C 26.01 70.83 23.54 74.38 20.56 77.25 C 24.34 78.06 28.69 77.73 31.97 79.95 C 33.56 83.40 33.57 87.31 34.20 91.00 C 37.36 88.16 40.34 85.14 43.24 82.04 C 43.08 78.81 41.28 74.76 44.11 72.18 C 49.06 67.11 54.10 62.12 59.13 57.13 C 60.96 54.93 63.89 55.37 66.42 55.34 C 67.30 51.10 68.20 46.87 68.99 42.61 C 64.73 43.30 60.51 44.14 56.31 45.08 M 37.79 55.95 C 42.50 54.16 47.09 51.90 52.12 51.10 C 51.77 49.66 51.43 48.22 51.08 46.78 C 46.53 49.65 41.93 52.50 37.79 55.95 M 60.58 59.26 C 59.48 64.10 57.45 68.63 55.83 73.30 C 59.25 69.26 62.05 64.76 64.83 60.27 C 63.41 59.93 61.99 59.60 60.58 59.26 Z" />
<path fill="#ffffff" opacity="1.00" d=" M 59.73 35.73 C 64.91 32.97 70.87 35.15 76.34 35.62 C 76.48 41.21 78.53 47.31 75.46 52.46 C 72.40 58.03 69.62 63.77 66.16 69.11 C 67.56 64.39 69.58 59.90 71.35 55.31 C 73.76 49.06 74.66 42.37 75.57 35.77 C 69.03 36.92 62.37 37.78 56.14 40.17 C 52.40 41.60 48.69 43.14 44.81 44.16 C 49.57 41.00 54.66 38.35 59.73 35.73 Z" />
<path fill="#ffffff" opacity="1.00" d=" M 56.31 45.08 C 60.51 44.14 64.73 43.30 68.99 42.61 C 68.20 46.87 67.30 51.10 66.42 55.34 C 63.89 55.37 60.96 54.93 59.13 57.13 C 54.10 62.12 49.06 67.11 44.11 72.18 C 41.28 74.76 43.08 78.81 43.24 82.04 C 40.34 85.14 37.36 88.16 34.20 91.00 C 33.57 87.31 33.56 83.40 31.97 79.95 C 28.69 77.73 24.34 78.06 20.56 77.25 C 23.54 74.38 26.01 70.83 29.61 68.71 C 32.28 68.43 34.97 68.97 37.63 68.67 C 40.29 67.07 42.24 64.58 44.44 62.43 C 47.83 58.81 51.61 55.56 54.93 51.87 C 56.79 50.10 56.13 47.36 56.31 45.08 Z" />
<path fill="#ffffff" opacity="1.00" d=" M 37.79 55.95 C 41.93 52.50 46.53 49.65 51.08 46.78 C 51.43 48.22 51.77 49.66 52.12 51.10 C 47.09 51.90 42.50 54.16 37.79 55.95 Z" />
<path fill="#ffffff" opacity="1.00" d=" M 60.58 59.26 C 61.99 59.60 63.41 59.93 64.83 60.27 C 62.05 64.76 59.25 69.26 55.83 73.30 C 57.45 68.63 59.48 64.10 60.58 59.26 Z" />
</svg>
