<?xml version="1.0" encoding="UTF-8" ?>
<!DOCTYPE svg PUBLIC "-//W3C//DTD SVG 1.1//EN" "http://www.w3.org/Graphics/SVG/1.1/DTD/svg11.dtd">
<svg width="100pt" height="100pt" viewBox="0 0 100 100" version="1.1" xmlns="http://www.w3.org/2000/svg">
<path fill="#b8c2c1" opacity="1.00" d=" M 28.11 18.27 C 42.69 18.31 57.27 18.30 71.85 18.27 C 76.58 31.16 80.74 44.25 85.62 57.08 C 73.76 65.14 61.82 73.11 49.98 81.21 C 38.10 73.15 26.22 65.12 14.31 57.11 C 19.17 44.26 23.34 31.15 28.11 18.27 M 30.11 21.05 C 25.82 32.65 21.89 44.37 17.81 56.05 C 28.40 63.53 39.20 70.70 49.98 77.90 C 60.71 70.63 71.57 63.56 82.13 56.05 C 78.07 44.37 74.07 32.68 69.86 21.06 C 56.61 20.77 43.36 20.79 30.11 21.05 Z" />
<path fill="#b61c2e" opacity="1.00" d=" M 30.11 21.05 C 43.36 20.79 56.61 20.77 69.86 21.06 C 74.07 32.68 78.07 44.37 82.13 56.05 C 71.57 63.56 60.71 70.63 49.98 77.90 C 39.20 70.70 28.40 63.53 17.81 56.05 C 21.89 44.37 25.82 32.65 30.11 21.05 M 48.41 23.26 C 46.36 34.70 44.18 46.12 42.02 57.54 C 36.63 56.98 31.26 56.20 25.93 55.25 C 34.65 60.03 42.92 65.67 49.86 72.84 C 56.66 65.75 64.83 60.24 73.34 55.43 C 68.17 56.15 63.00 56.90 57.82 57.58 C 55.26 46.09 53.54 34.44 51.04 22.94 C 50.38 23.02 49.07 23.18 48.41 23.26 M 56.09 22.95 C 57.97 32.88 60.50 42.67 62.53 52.57 C 64.96 52.68 67.38 52.77 69.80 52.90 C 65.17 42.95 60.95 32.79 56.09 22.95 M 28.84 52.75 C 31.15 52.74 33.47 52.73 35.79 52.72 C 38.54 43.13 41.57 33.60 43.94 23.91 C 38.60 33.35 33.64 43.02 28.84 52.75 Z" />
<path fill="#ffffff" opacity="1.00" d=" M 48.41 23.26 C 49.07 23.18 50.38 23.02 51.04 22.94 C 53.54 34.44 55.26 46.09 57.82 57.58 C 63.00 56.90 68.17 56.15 73.34 55.43 C 64.83 60.24 56.66 65.75 49.86 72.84 C 42.92 65.67 34.65 60.03 25.93 55.25 C 31.26 56.20 36.63 56.98 42.02 57.54 C 44.18 46.12 46.36 34.70 48.41 23.26 Z" />
<path fill="#ffffff" opacity="1.00" d=" M 56.09 22.95 C 60.95 32.79 65.17 42.95 69.80 52.90 C 67.38 52.77 64.96 52.68 62.53 52.57 C 60.50 42.67 57.97 32.88 56.09 22.95 Z" />
<path fill="#ffffff" opacity="1.00" d=" M 28.84 52.75 C 33.64 43.02 38.60 33.35 43.94 23.91 C 41.57 33.60 38.54 43.13 35.79 52.72 C 33.47 52.73 31.15 52.74 28.84 52.75 Z" />
</svg>
