<?xml version="1.0" encoding="UTF-8" ?>
<!DOCTYPE svg PUBLIC "-//W3C//DTD SVG 1.1//EN" "http://www.w3.org/Graphics/SVG/1.1/DTD/svg11.dtd">
<svg width="100pt" height="100pt" viewBox="0 0 100 100" version="1.1" xmlns="http://www.w3.org/2000/svg">
<path fill="#b8bbba" opacity="1.00" d=" M 63.07 20.32 C 68.35 20.80 72.30 16.83 76.48 14.28 C 77.57 16.06 78.66 17.84 79.76 19.61 C 81.55 18.96 83.34 18.32 85.13 17.69 C 86.58 22.57 88.36 27.36 90.97 31.76 C 92.74 36.77 92.26 42.23 92.73 47.47 C 89.77 47.56 86.81 47.61 83.85 47.74 C 83.82 60.41 83.83 73.08 83.84 85.75 C 62.08 85.72 40.32 85.65 18.56 85.79 C 18.43 72.43 18.55 59.08 18.48 45.72 C 14.48 45.10 10.47 44.58 6.45 44.13 C 7.18 39.13 7.76 34.11 8.24 29.08 C 11.52 29.66 14.78 30.30 18.05 30.88 C 18.40 27.33 18.54 23.77 18.66 20.20 C 33.46 20.38 48.27 20.21 63.07 20.32 M 65.82 23.78 C 61.60 24.59 57.27 24.18 53.00 24.20 C 42.92 24.19 32.85 24.02 22.78 24.32 C 21.57 27.44 20.27 30.53 19.04 33.65 C 16.11 33.10 13.18 32.56 10.25 32.07 C 9.98 35.31 9.66 38.55 9.29 41.79 C 13.59 42.49 17.87 43.30 22.15 44.13 C 22.64 56.78 22.24 69.44 22.33 82.10 C 41.77 82.44 61.23 82.44 80.67 82.10 C 80.77 69.88 80.35 57.66 80.84 45.44 C 83.78 45.08 86.74 44.82 89.68 44.47 C 89.98 36.27 86.28 28.93 83.27 21.55 C 81.66 21.91 80.05 22.26 78.43 22.61 C 77.44 21.19 76.45 19.78 75.46 18.37 C 72.35 20.33 69.42 22.77 65.82 23.78 Z" />
<path fill="#b61c2e" opacity="1.00" d=" M 65.82 23.78 C 69.42 22.77 72.35 20.33 75.46 18.37 C 76.45 19.78 77.44 21.19 78.43 22.61 C 80.05 22.26 81.66 21.91 83.27 21.55 C 86.28 28.93 89.98 36.27 89.68 44.47 C 86.74 44.82 83.78 45.08 80.84 45.44 C 80.35 57.66 80.77 69.88 80.67 82.10 C 61.23 82.44 41.77 82.44 22.33 82.10 C 22.24 69.44 22.64 56.78 22.15 44.13 C 17.87 43.30 13.59 42.49 9.29 41.79 C 9.66 38.55 9.98 35.31 10.25 32.07 C 13.18 32.56 16.11 33.10 19.04 33.65 C 20.27 30.53 21.57 27.44 22.78 24.32 C 32.85 24.02 42.92 24.19 53.00 24.20 C 57.27 24.18 61.60 24.59 65.82 23.78 M 33.93 70.08 C 41.85 58.15 50.31 46.09 62.12 37.67 C 58.82 41.84 54.88 45.42 51.40 49.43 C 45.26 56.44 39.99 64.15 35.10 72.07 C 33.30 74.97 31.76 78.04 30.63 81.27 C 36.09 76.43 39.12 69.35 45.15 65.10 C 49.10 62.45 51.90 58.53 55.40 55.38 C 63.88 47.59 74.99 42.86 86.46 41.91 C 86.43 40.02 86.38 38.14 86.33 36.26 C 82.50 37.04 78.71 38.02 74.88 38.81 C 78.10 37.05 81.45 35.55 84.81 34.09 C 83.80 31.15 82.83 28.20 81.91 25.23 C 80.38 25.64 78.86 26.07 77.33 26.49 C 76.38 25.03 75.42 23.59 74.46 22.14 C 57.00 34.05 42.58 50.76 33.93 70.08 M 22.27 31.37 C 21.93 32.75 21.62 34.13 21.34 35.53 C 29.48 38.33 37.33 41.98 44.54 46.71 C 45.64 45.34 46.74 43.97 47.83 42.59 C 43.30 39.61 38.93 36.35 34.15 33.75 C 30.51 31.74 26.23 32.13 22.27 31.37 M 12.35 34.78 C 12.24 36.44 12.15 38.10 12.09 39.76 C 17.86 40.69 23.62 41.89 29.16 43.79 C 34.14 45.45 38.84 47.92 44.00 49.03 C 42.06 46.84 39.75 45.01 37.11 43.74 C 29.23 39.85 21.01 36.51 12.35 34.78 M 61.93 55.65 C 66.74 61.93 72.96 66.95 78.18 72.88 C 73.66 66.43 68.96 59.58 61.93 55.65 M 59.02 57.96 C 61.03 60.68 63.57 62.96 66.32 64.92 C 64.50 62.04 62.11 59.48 59.02 57.96 Z" />
<path fill="#ffffff" opacity="1.00" d=" M 33.93 70.08 C 42.58 50.76 57.00 34.05 74.46 22.14 C 75.42 23.59 76.38 25.03 77.33 26.49 C 78.86 26.07 80.38 25.64 81.91 25.23 C 82.83 28.20 83.80 31.15 84.81 34.09 C 81.45 35.55 78.10 37.05 74.88 38.81 C 78.71 38.02 82.50 37.04 86.33 36.26 C 86.38 38.14 86.43 40.02 86.46 41.91 C 74.99 42.86 63.88 47.59 55.40 55.38 C 51.90 58.53 49.10 62.45 45.15 65.10 C 39.12 69.35 36.09 76.43 30.63 81.27 C 31.76 78.04 33.30 74.97 35.10 72.07 C 39.99 64.15 45.26 56.44 51.40 49.43 C 54.88 45.42 58.82 41.84 62.12 37.67 C 50.31 46.09 41.85 58.15 33.93 70.08 Z" />
<path fill="#ffffff" opacity="1.00" d=" M 22.27 31.37 C 26.23 32.13 30.51 31.74 34.15 33.75 C 38.93 36.35 43.30 39.61 47.83 42.59 C 46.74 43.97 45.64 45.34 44.54 46.71 C 37.33 41.98 29.48 38.33 21.34 35.53 C 21.62 34.13 21.93 32.75 22.27 31.37 Z" />
<path fill="#ffffff" opacity="1.00" d=" M 12.35 34.78 C 21.01 36.51 29.23 39.85 37.11 43.74 C 39.75 45.01 42.06 46.84 44.00 49.03 C 38.84 47.92 34.14 45.45 29.16 43.79 C 23.62 41.89 17.86 40.69 12.09 39.76 C 12.15 38.10 12.24 36.44 12.35 34.78 Z" />
<path fill="#ffffff" opacity="1.00" d=" M 61.93 55.65 C 68.96 59.58 73.66 66.43 78.18 72.88 C 72.96 66.95 66.74 61.93 61.93 55.65 Z" />
<path fill="#ffffff" opacity="1.00" d=" M 59.02 57.96 C 62.11 59.48 64.50 62.04 66.32 64.92 C 63.57 62.96 61.03 60.68 59.02 57.96 Z" />
</svg>
