<?xml version="1.0" encoding="UTF-8" ?>
<!DOCTYPE svg PUBLIC "-//W3C//DTD SVG 1.1//EN" "http://www.w3.org/Graphics/SVG/1.1/DTD/svg11.dtd">
<svg width="100pt" height="100pt" viewBox="0 0 100 100" version="1.1" xmlns="http://www.w3.org/2000/svg">
<path fill="#cac1c1" opacity="1.00" d=" M 31.43 20.39 C 38.83 19.40 45.64 16.16 52.73 14.01 C 56.32 16.84 59.94 19.64 63.53 22.46 C 63.78 26.13 63.44 29.92 64.44 33.50 C 66.53 35.69 69.02 37.44 71.23 39.49 C 76.55 35.85 81.68 31.95 86.92 28.21 C 89.20 31.83 91.43 35.49 93.60 39.19 C 89.96 41.14 86.22 42.89 82.71 45.07 C 86.42 44.71 90.10 44.05 93.79 43.54 C 94.18 47.71 94.54 51.89 94.84 56.08 C 91.47 56.18 88.10 56.21 84.73 56.40 C 88.03 57.58 91.39 58.54 94.70 59.66 C 93.03 64.06 91.40 68.48 89.71 72.87 C 85.01 70.64 80.44 68.17 75.68 66.08 C 79.95 72.75 85.00 78.89 89.27 85.57 C 61.04 85.55 32.80 85.43 4.57 85.27 C 9.90 77.06 15.88 69.29 21.25 61.10 C 19.24 57.07 16.76 53.10 16.33 48.51 C 15.81 44.03 15.11 39.57 14.88 35.06 C 15.08 30.10 19.44 26.89 22.52 23.51 C 24.72 20.90 28.36 21.01 31.43 20.39 M 30.97 22.90 C 24.79 23.27 20.14 28.39 17.66 33.64 C 17.09 43.05 19.77 52.41 23.70 60.90 C 24.06 60.62 24.76 60.08 25.11 59.81 C 24.71 61.98 23.97 64.07 23.51 66.23 L 23.84 65.93 C 17.81 69.82 14.43 76.28 10.71 82.19 C 20.80 82.61 30.90 82.30 40.99 82.39 C 55.09 82.26 69.20 82.66 83.29 82.18 C 78.95 74.51 72.36 68.29 68.80 60.17 C 75.54 62.77 81.70 66.62 88.31 69.53 C 89.56 66.82 90.59 64.01 91.41 61.13 C 84.90 58.61 77.71 58.04 71.57 54.60 C 78.49 53.99 85.44 54.48 92.36 54.07 C 92.26 51.39 92.12 48.71 91.97 46.03 C 85.27 46.82 78.68 48.29 72.06 49.55 C 71.85 49.22 71.42 48.55 71.20 48.22 C 77.52 44.62 84.31 41.93 90.53 38.16 C 89.12 35.91 87.68 33.68 86.20 31.48 C 80.61 35.32 75.22 39.43 69.75 43.43 C 68.01 39.64 64.87 36.87 61.50 34.56 C 61.43 31.12 61.64 27.63 60.88 24.25 C 58.71 20.97 55.09 19.06 51.99 16.77 C 45.11 19.21 38.27 21.97 30.97 22.90 Z" />
<path fill="#277373" opacity="1.00" d=" M 30.97 22.90 C 38.27 21.97 45.11 19.21 51.99 16.77 C 55.09 19.06 58.71 20.97 60.88 24.25 C 61.64 27.63 61.43 31.12 61.50 34.56 C 64.87 36.87 68.01 39.64 69.75 43.43 C 75.22 39.43 80.61 35.32 86.20 31.48 C 87.68 33.68 89.12 35.91 90.53 38.16 C 84.31 41.93 77.52 44.62 71.20 48.22 C 71.42 48.55 71.85 49.22 72.06 49.55 C 78.68 48.29 85.27 46.82 91.97 46.03 C 92.12 48.71 92.26 51.39 92.36 54.07 C 85.44 54.48 78.49 53.99 71.57 54.60 C 77.71 58.04 84.90 58.61 91.41 61.13 C 90.59 64.01 89.56 66.82 88.31 69.53 C 81.70 66.62 75.54 62.77 68.80 60.17 C 72.36 68.29 78.95 74.51 83.29 82.18 C 69.20 82.66 55.09 82.26 40.99 82.39 C 30.90 82.30 20.80 82.61 10.71 82.19 C 14.43 76.28 17.81 69.82 23.84 65.93 C 26.66 63.58 26.70 59.43 26.50 56.06 C 25.04 51.53 22.59 47.37 20.75 42.98 C 21.19 48.85 24.35 54.02 25.11 59.81 C 24.76 60.08 24.06 60.62 23.70 60.90 C 19.77 52.41 17.09 43.05 17.66 33.64 C 20.14 28.39 24.79 23.27 30.97 22.90 M 41.93 23.01 C 37.27 24.80 32.21 25.01 27.45 26.43 C 24.12 28.27 21.93 31.55 19.41 34.31 C 19.62 35.14 19.83 35.98 20.04 36.81 C 21.90 33.00 24.86 29.93 28.14 27.31 C 29.40 27.62 30.65 27.92 31.91 28.23 C 28.51 29.81 25.34 31.88 22.87 34.73 C 25.96 33.48 29.04 32.21 32.21 31.18 C 31.08 35.48 28.51 39.15 26.93 43.27 C 28.93 43.51 30.94 43.74 32.95 43.97 C 32.30 42.91 31.64 41.86 30.99 40.81 C 32.63 40.10 34.27 39.40 35.92 38.72 C 35.77 39.71 35.61 40.70 35.46 41.69 C 37.57 41.28 39.71 40.59 41.89 40.86 C 44.41 41.41 46.58 42.89 48.78 44.17 C 48.80 44.80 48.84 46.05 48.86 46.68 C 46.88 46.74 44.85 46.56 42.91 47.05 C 41.72 48.37 41.00 50.01 40.17 51.56 C 43.42 55.06 46.54 58.70 50.01 61.99 C 48.58 59.49 47.08 57.03 45.78 54.46 C 50.39 54.93 51.76 59.64 54.41 62.62 C 56.45 63.97 59.08 63.73 61.41 64.10 C 58.93 61.97 56.23 60.10 53.82 57.90 C 57.69 59.02 63.18 60.12 63.75 64.98 C 62.70 68.95 58.45 70.18 54.92 70.92 C 56.77 71.17 58.62 71.53 60.50 71.48 C 62.53 69.97 64.17 67.91 65.28 65.64 C 64.82 62.02 63.04 58.60 63.35 54.87 C 63.75 50.41 64.80 46.00 66.40 41.82 C 63.69 39.48 60.87 37.29 58.07 35.06 C 58.59 31.90 59.36 28.60 58.50 25.44 C 56.80 23.09 54.40 21.23 51.75 20.07 C 48.29 20.11 45.20 22.04 41.93 23.01 M 71.81 45.05 C 77.03 42.93 81.92 40.13 86.98 37.68 C 86.64 36.69 86.29 35.70 85.94 34.72 C 81.02 37.86 76.16 41.14 71.81 45.05 M 24.34 46.11 C 26.37 49.32 29.83 50.99 32.59 53.43 C 36.40 59.69 36.51 67.35 36.77 74.47 C 32.64 72.68 29.19 69.76 25.84 66.81 C 25.74 67.36 25.54 68.45 25.44 69.00 C 23.58 69.16 21.72 69.32 19.86 69.50 C 25.78 71.64 31.20 75.14 37.44 76.34 C 41.36 77.14 45.26 78.02 49.21 78.60 C 46.81 77.38 44.19 76.55 41.95 75.02 C 39.44 72.80 39.03 69.28 38.46 66.17 C 42.63 67.13 46.78 68.16 51.00 68.87 C 47.78 67.42 44.46 66.24 41.25 64.78 C 35.54 62.69 37.41 54.57 32.68 51.49 C 29.91 49.68 27.13 47.89 24.34 46.11 M 30.78 48.13 C 29.94 49.86 33.51 50.62 33.56 48.73 C 33.38 47.49 31.49 47.17 30.78 48.13 M 72.80 51.72 C 78.49 52.10 84.19 51.90 89.88 51.73 C 89.90 50.98 89.92 49.48 89.94 48.73 C 84.18 49.46 78.42 50.28 72.80 51.72 M 69.89 57.30 C 75.64 60.65 81.69 63.49 87.78 66.16 C 88.21 65.07 88.63 63.98 89.06 62.89 C 82.71 60.92 76.34 58.95 69.89 57.30 M 18.95 72.04 C 22.05 74.61 25.14 77.22 28.50 79.44 C 31.02 81.17 34.24 80.69 37.12 80.91 C 31.35 77.42 25.42 74.08 18.95 72.04 M 45.47 71.77 C 45.41 72.28 45.29 73.28 45.23 73.79 C 47.24 73.72 49.25 73.65 51.27 73.55 C 49.34 72.92 47.41 72.33 45.47 71.77 M 61.37 74.77 C 62.21 76.79 63.02 78.91 64.56 80.52 C 67.26 81.07 70.00 80.49 72.67 80.06 C 69.66 76.96 65.62 75.30 61.37 74.77 M 48.88 80.63 C 50.51 80.68 52.14 80.73 53.77 80.78 C 53.71 80.34 53.59 79.47 53.52 79.03 C 51.97 79.56 50.43 80.09 48.88 80.63 Z" />
<path fill="#ffffff" opacity="1.00" d=" M 41.93 23.01 C 45.20 22.04 48.29 20.11 51.75 20.07 C 54.40 21.23 56.80 23.09 58.50 25.44 C 59.36 28.60 58.59 31.90 58.07 35.06 C 60.87 37.29 63.69 39.48 66.40 41.82 C 64.80 46.00 63.75 50.41 63.35 54.87 C 63.04 58.60 64.82 62.02 65.28 65.64 C 64.17 67.91 62.53 69.97 60.50 71.48 C 58.62 71.53 56.77 71.17 54.92 70.92 C 58.45 70.18 62.70 68.95 63.75 64.98 C 63.18 60.12 57.69 59.02 53.82 57.90 C 56.23 60.10 58.93 61.97 61.41 64.10 C 59.08 63.73 56.45 63.97 54.41 62.62 C 51.76 59.64 50.39 54.93 45.78 54.46 C 47.08 57.03 48.58 59.49 50.01 61.99 C 46.54 58.70 43.42 55.06 40.17 51.56 C 41.00 50.01 41.72 48.37 42.91 47.05 C 44.85 46.56 46.88 46.74 48.86 46.68 C 48.84 46.05 48.80 44.80 48.78 44.17 C 46.58 42.89 44.41 41.41 41.89 40.86 C 39.71 40.59 37.57 41.28 35.46 41.69 C 35.61 40.70 35.77 39.71 35.92 38.72 C 34.27 39.40 32.63 40.10 30.99 40.81 C 31.64 41.86 32.30 42.91 32.95 43.97 C 30.94 43.74 28.93 43.51 26.93 43.27 C 28.51 39.15 31.08 35.48 32.21 31.18 C 29.04 32.21 25.96 33.48 22.87 34.73 C 25.34 31.88 28.51 29.81 31.91 28.23 C 30.65 27.92 29.40 27.62 28.14 27.31 C 24.86 29.93 21.90 33.00 20.04 36.81 C 19.83 35.98 19.62 35.14 19.41 34.31 C 21.93 31.55 24.12 28.27 27.45 26.43 C 32.21 25.01 37.27 24.80 41.93 23.01 M 46.77 21.88 C 49.07 23.00 51.58 23.78 53.65 25.31 C 54.75 26.58 55.19 28.25 55.91 29.72 C 54.53 29.01 53.28 27.94 51.72 27.65 C 45.51 27.04 38.92 25.55 33.01 28.41 C 41.08 27.88 49.20 29.40 56.22 33.53 C 56.91 31.28 57.56 28.83 56.50 26.56 C 55.07 22.74 50.52 21.38 46.77 21.88 M 41.57 34.73 C 43.69 34.50 45.80 34.06 47.94 34.04 C 50.56 34.66 52.80 36.26 55.27 37.28 C 53.19 34.41 50.38 31.76 46.68 31.44 C 44.28 30.83 42.95 33.27 41.57 34.73 M 45.85 35.88 C 48.27 36.99 50.73 38.01 53.26 38.84 C 51.29 36.81 48.84 34.88 45.85 35.88 M 60.20 38.55 C 61.08 39.97 61.98 41.36 62.87 42.76 C 60.39 42.45 57.90 42.19 55.40 42.09 C 57.13 43.40 59.00 44.51 60.94 45.49 C 59.26 45.95 57.51 46.27 55.94 47.05 C 54.55 48.43 53.82 50.31 52.82 51.96 C 54.97 54.13 57.29 56.20 60.11 57.47 C 62.43 52.46 63.18 46.99 64.64 41.73 C 63.17 40.65 61.70 39.59 60.20 38.55 Z" />
<path fill="#085f5f" opacity="1.00" d=" M 46.77 21.88 C 50.52 21.38 55.07 22.74 56.50 26.56 C 57.56 28.83 56.91 31.28 56.22 33.53 C 49.20 29.40 41.08 27.88 33.01 28.41 C 38.92 25.55 45.51 27.04 51.72 27.65 C 53.28 27.94 54.53 29.01 55.91 29.72 C 55.19 28.25 54.75 26.58 53.65 25.31 C 51.58 23.78 49.07 23.00 46.77 21.88 Z" />
<path fill="#085f5f" opacity="1.00" d=" M 41.57 34.73 C 42.95 33.27 44.28 30.83 46.68 31.44 C 50.38 31.76 53.19 34.41 55.27 37.28 C 52.80 36.26 50.56 34.66 47.94 34.04 C 45.80 34.06 43.69 34.50 41.57 34.73 Z" />
<path fill="#277373" opacity="1.00" d=" M 45.85 35.88 C 48.84 34.88 51.29 36.81 53.26 38.84 C 50.73 38.01 48.27 36.99 45.85 35.88 Z" />
<path fill="#ffffff" opacity="1.00" d=" M 71.81 45.05 C 76.16 41.14 81.02 37.86 85.94 34.72 C 86.29 35.70 86.64 36.69 86.98 37.68 C 81.92 40.13 77.03 42.93 71.81 45.05 Z" />
<path fill="#277373" opacity="1.00" d=" M 60.20 38.55 C 61.70 39.59 63.17 40.65 64.64 41.73 C 63.18 46.99 62.43 52.46 60.11 57.47 C 57.29 56.20 54.97 54.13 52.82 51.96 C 53.82 50.31 54.55 48.43 55.94 47.05 C 57.51 46.27 59.26 45.95 60.94 45.49 C 59.00 44.51 57.13 43.40 55.40 42.09 C 57.90 42.19 60.39 42.45 62.87 42.76 C 61.98 41.36 61.08 39.97 60.20 38.55 M 55.55 48.17 C 57.27 49.35 59.22 50.15 61.17 50.89 C 61.46 50.07 62.03 48.42 62.32 47.59 C 60.04 47.00 57.62 46.85 55.55 48.17 Z" />
<path fill="#ffffff" opacity="1.00" d=" M 20.75 42.98 C 22.59 47.37 25.04 51.53 26.50 56.06 C 26.70 59.43 26.66 63.58 23.84 65.93 L 23.51 66.23 C 23.97 64.07 24.71 61.98 25.11 59.81 C 24.35 54.02 21.19 48.85 20.75 42.98 Z" />
<path fill="#ffffff" opacity="1.00" d=" M 24.34 46.11 C 27.13 47.89 29.91 49.68 32.68 51.49 C 37.41 54.57 35.54 62.69 41.25 64.78 C 44.46 66.24 47.78 67.42 51.00 68.87 C 46.78 68.16 42.63 67.13 38.46 66.17 C 39.03 69.28 39.44 72.80 41.95 75.02 C 44.19 76.55 46.81 77.38 49.21 78.60 C 45.26 78.02 41.36 77.14 37.44 76.34 C 31.20 75.14 25.78 71.64 19.86 69.50 C 21.72 69.32 23.58 69.16 25.44 69.00 C 25.54 68.45 25.74 67.36 25.84 66.81 C 29.19 69.76 32.64 72.68 36.77 74.47 C 36.51 67.35 36.40 59.69 32.59 53.43 C 29.83 50.99 26.37 49.32 24.34 46.11 Z" />
<path fill="#ffffff" opacity="1.00" d=" M 55.55 48.17 C 57.62 46.85 60.04 47.00 62.32 47.59 C 62.03 48.42 61.46 50.07 61.17 50.89 C 59.22 50.15 57.27 49.35 55.55 48.17 Z" />
<path fill="#ffffff" opacity="1.00" d=" M 30.78 48.13 C 31.49 47.17 33.38 47.49 33.56 48.73 C 33.51 50.62 29.94 49.86 30.78 48.13 Z" />
<path fill="#ffffff" opacity="1.00" d=" M 72.80 51.72 C 78.42 50.28 84.18 49.46 89.94 48.73 C 89.92 49.48 89.90 50.98 89.88 51.73 C 84.19 51.90 78.49 52.10 72.80 51.72 Z" />
<path fill="#ffffff" opacity="1.00" d=" M 69.89 57.30 C 76.34 58.95 82.71 60.92 89.06 62.89 C 88.63 63.98 88.21 65.07 87.78 66.16 C 81.69 63.49 75.64 60.65 69.89 57.30 Z" />
<path fill="#ffffff" opacity="1.00" d=" M 18.95 72.04 C 25.42 74.08 31.35 77.42 37.12 80.91 C 34.24 80.69 31.02 81.17 28.50 79.44 C 25.14 77.22 22.05 74.61 18.95 72.04 Z" />
<path fill="#ffffff" opacity="1.00" d=" M 45.47 71.77 C 47.41 72.33 49.34 72.92 51.27 73.55 C 49.25 73.65 47.24 73.72 45.23 73.79 C 45.29 73.28 45.41 72.28 45.47 71.77 Z" />
<path fill="#ffffff" opacity="1.00" d=" M 61.37 74.77 C 65.62 75.30 69.66 76.96 72.67 80.06 C 70.00 80.49 67.26 81.07 64.56 80.52 C 63.02 78.91 62.21 76.79 61.37 74.77 Z" />
<path fill="#ffffff" opacity="1.00" d=" M 48.88 80.63 C 50.43 80.09 51.97 79.56 53.52 79.03 C 53.59 79.47 53.71 80.34 53.77 80.78 C 52.14 80.73 50.51 80.68 48.88 80.63 Z" />
</svg>
