<?xml version="1.0" encoding="UTF-8" ?>
<!DOCTYPE svg PUBLIC "-//W3C//DTD SVG 1.1//EN" "http://www.w3.org/Graphics/SVG/1.1/DTD/svg11.dtd">
<svg width="100pt" height="100pt" viewBox="0 0 100 100" version="1.1" xmlns="http://www.w3.org/2000/svg">
<path fill="#ffffff" opacity="1.00" d=" M 42.42 12.60 C 60.56 8.34 80.73 20.19 86.15 38.00 C 92.79 55.48 83.26 76.83 66.35 84.39 C 59.99 87.18 52.93 89.14 45.94 88.08 C 37.46 86.73 29.08 83.21 23.04 76.96 C 15.87 69.93 12.01 59.94 11.61 50.00 C 12.01 39.59 16.27 29.14 24.05 22.07 C 29.09 17.20 35.66 14.22 42.42 12.60 M 45.40 15.54 C 32.48 17.17 21.11 26.73 17.08 39.08 C 12.19 52.59 17.36 68.64 28.65 77.33 C 37.53 84.49 50.15 86.69 60.93 82.95 C 74.47 78.64 84.41 65.21 84.73 51.02 C 85.11 40.41 80.12 29.81 71.91 23.13 C 64.66 17.02 54.77 14.29 45.40 15.54 Z" />
<path fill="#482b46" opacity="1.00" d=" M 45.40 15.54 C 54.77 14.29 64.66 17.02 71.91 23.13 C 80.12 29.81 85.11 40.41 84.73 51.02 C 84.41 65.21 74.47 78.64 60.93 82.95 C 50.15 86.69 37.53 84.49 28.65 77.33 C 17.36 68.64 12.19 52.59 17.08 39.08 C 21.11 26.73 32.48 17.17 45.40 15.54 M 35.86 27.89 C 30.60 31.54 25.44 36.12 23.41 42.38 C 21.56 48.30 23.45 54.59 25.92 60.02 C 29.75 68.69 38.39 75.30 47.98 75.79 C 55.18 76.06 62.93 74.42 68.32 69.33 C 73.21 65.01 76.15 58.48 75.79 51.93 C 74.07 55.48 74.72 59.85 72.21 63.09 C 68.67 68.01 63.68 72.08 57.94 74.09 C 48.10 74.90 36.31 73.64 30.16 64.87 C 26.43 59.11 22.53 52.26 24.37 45.15 C 25.31 39.21 30.27 35.30 34.10 31.11 C 38.04 26.68 44.46 26.36 49.98 26.17 C 56.56 25.77 63.35 28.29 67.75 33.26 C 70.66 36.08 72.40 39.80 74.91 42.93 C 74.43 38.92 71.68 35.79 69.14 32.87 C 61.01 23.87 46.18 21.13 35.86 27.89 M 49.18 31.25 C 49.01 33.52 49.20 35.80 49.50 38.05 C 47.96 41.08 47.79 44.61 47.96 47.93 C 47.68 47.64 47.12 47.06 46.84 46.77 C 41.64 47.38 36.55 48.72 31.35 49.37 C 31.34 49.68 31.33 50.29 31.33 50.59 C 36.39 51.47 41.56 51.94 46.49 53.46 C 47.73 58.44 48.25 63.56 49.44 68.56 C 49.73 68.59 50.30 68.66 50.59 68.69 C 51.51 63.62 52.00 58.44 53.51 53.49 C 58.46 52.00 63.62 51.43 68.70 50.55 C 68.66 50.28 68.57 49.73 68.53 49.45 C 63.58 48.22 58.46 47.80 53.55 46.41 C 51.89 41.56 51.61 36.38 50.61 31.37 C 50.25 31.34 49.54 31.28 49.18 31.25 Z" />
<path fill="#ffffff" opacity="1.00" d=" M 35.86 27.89 C 46.18 21.13 61.01 23.87 69.14 32.87 C 71.68 35.79 74.43 38.92 74.91 42.93 C 72.40 39.80 70.66 36.08 67.75 33.26 C 63.35 28.29 56.56 25.77 49.98 26.17 C 44.46 26.36 38.04 26.68 34.10 31.11 C 30.27 35.30 25.31 39.21 24.37 45.15 C 22.53 52.26 26.43 59.11 30.16 64.87 C 36.31 73.64 48.10 74.90 57.94 74.09 C 63.68 72.08 68.67 68.01 72.21 63.09 C 74.72 59.85 74.07 55.48 75.79 51.93 C 76.15 58.48 73.21 65.01 68.32 69.33 C 62.93 74.42 55.18 76.06 47.98 75.79 C 38.39 75.30 29.75 68.69 25.92 60.02 C 23.45 54.59 21.56 48.30 23.41 42.38 C 25.44 36.12 30.60 31.54 35.86 27.89 Z" />
<path fill="#ffffff" opacity="1.00" d=" M 49.18 31.25 C 49.54 31.28 50.25 31.34 50.61 31.37 C 51.61 36.38 51.89 41.56 53.55 46.41 C 58.46 47.80 63.58 48.22 68.53 49.45 C 68.57 49.73 68.66 50.28 68.70 50.55 C 63.62 51.43 58.46 52.00 53.51 53.49 C 52.00 58.44 51.51 63.62 50.59 68.69 C 50.30 68.66 49.73 68.59 49.44 68.56 C 48.25 63.56 47.73 58.44 46.49 53.46 C 41.56 51.94 36.39 51.47 31.33 50.59 C 31.33 50.29 31.34 49.68 31.35 49.37 C 36.55 48.72 41.64 47.38 46.84 46.77 C 47.12 47.06 47.68 47.64 47.96 47.93 C 48.59 48.69 49.24 49.43 49.91 50.15 C 50.15 46.12 50.11 42.06 49.50 38.05 C 49.20 35.80 49.01 33.52 49.18 31.25 M 53.21 48.07 C 53.13 48.61 52.98 49.67 52.90 50.21 C 55.96 50.55 59.07 50.40 62.12 50.00 L 61.94 49.06 C 59.09 48.41 56.14 47.67 53.21 48.07 M 48.04 54.86 C 48.63 57.09 47.71 60.99 49.93 62.01 C 50.16 60.10 50.44 58.13 50.01 56.22 C 49.52 55.88 48.53 55.20 48.04 54.86 Z" />
<path fill="#5a3657" opacity="1.00" d=" M 47.96 47.93 C 47.79 44.61 47.96 41.08 49.50 38.05 C 50.11 42.06 50.15 46.12 49.91 50.15 C 49.24 49.43 48.59 48.69 47.96 47.93 Z" />
<path fill="#3b1939" opacity="1.00" d=" M 53.21 48.07 C 56.14 47.67 59.09 48.41 61.94 49.06 L 62.12 50.00 C 59.07 50.40 55.96 50.55 52.90 50.21 C 52.98 49.67 53.13 48.61 53.21 48.07 Z" />
<path fill="#442241" opacity="1.00" d=" M 48.04 54.86 C 48.53 55.20 49.52 55.88 50.01 56.22 C 50.44 58.13 50.16 60.10 49.93 62.01 C 47.71 60.99 48.63 57.09 48.04 54.86 Z" />
</svg>
