<?xml version="1.0" encoding="UTF-8" ?>
<!DOCTYPE svg PUBLIC "-//W3C//DTD SVG 1.1//EN" "http://www.w3.org/Graphics/SVG/1.1/DTD/svg11.dtd">
<svg width="100pt" height="100pt" viewBox="0 0 100 100" version="1.1" xmlns="http://www.w3.org/2000/svg">
<path fill="#bab9b9" opacity="1.00" d=" M 43.91 27.77 C 46.26 23.89 48.54 19.98 51.00 16.18 C 52.85 21.12 54.26 26.25 56.82 30.89 C 59.06 29.03 61.25 27.12 63.48 25.25 C 63.87 29.13 64.12 33.02 64.10 36.92 C 68.15 36.14 72.23 35.56 76.32 35.11 C 75.06 37.26 73.75 39.39 72.45 41.52 C 76.67 42.09 80.89 42.64 85.09 43.30 C 82.36 45.97 79.54 48.55 76.69 51.09 C 80.68 53.25 84.60 55.55 88.37 58.09 C 85.39 59.40 82.39 60.64 79.40 61.92 C 83.55 67.90 87.85 73.77 92.02 79.73 C 83.59 79.74 75.16 79.66 66.73 79.77 C 68.44 82.90 70.20 86.00 71.89 89.14 C 69.27 88.00 66.67 86.81 64.06 85.63 C 63.98 86.57 63.81 88.44 63.73 89.38 C 59.90 87.76 56.07 86.14 52.31 84.38 C 48.74 89.77 44.04 94.22 39.15 98.39 C 39.50 95.72 39.90 93.06 40.27 90.40 C 38.77 90.79 37.27 91.19 35.77 91.59 C 36.63 89.14 37.48 86.69 38.34 84.24 C 37.10 84.52 35.86 84.80 34.63 85.09 C 34.76 83.28 34.89 81.48 35.01 79.67 C 25.98 79.38 16.95 79.53 7.92 79.51 C 10.12 76.41 12.33 73.27 13.82 69.74 C 15.37 65.93 19.05 63.64 21.17 60.22 C 22.16 57.88 22.47 55.33 23.15 52.89 C 19.96 50.23 16.89 47.43 13.80 44.66 C 18.91 44.05 24.71 45.34 29.14 42.12 C 31.53 40.62 34.11 39.48 36.69 38.36 C 36.57 32.10 36.82 25.84 37.57 19.62 C 39.68 22.34 41.77 25.08 43.91 27.77 M 44.13 31.16 C 42.43 29.29 40.74 27.42 39.01 25.59 C 38.73 30.24 38.66 34.89 38.60 39.55 C 35.50 41.06 32.52 42.78 29.53 44.49 C 26.36 46.46 22.49 46.20 18.92 46.48 C 21.03 48.33 23.12 50.20 25.20 52.08 C 25.12 54.68 25.13 57.27 25.22 59.87 C 22.95 62.03 20.37 64.10 19.20 67.11 C 17.87 70.49 16.07 73.66 14.01 76.66 C 21.86 76.67 29.71 76.56 37.56 76.72 C 37.43 78.44 37.30 80.16 37.18 81.88 C 38.85 81.05 40.51 80.22 42.17 79.39 C 41.16 82.16 40.16 84.92 39.18 87.69 C 40.35 87.63 41.53 87.57 42.70 87.52 C 42.57 89.36 42.45 91.20 42.34 93.04 C 45.73 89.55 48.82 85.78 51.86 81.98 C 54.87 83.35 57.91 84.69 60.96 85.99 C 60.81 84.65 60.67 83.31 60.52 81.98 C 62.65 82.75 64.79 83.51 66.94 84.25 C 65.40 81.69 63.81 79.18 62.18 76.68 C 70.17 76.57 78.15 76.73 86.13 76.62 C 82.74 71.31 78.96 66.28 75.21 61.22 C 78.15 60.08 81.07 58.93 84.00 57.77 C 80.45 55.69 77.01 53.44 73.95 50.68 C 76.16 48.72 78.39 46.76 80.59 44.78 C 77.08 44.22 73.57 43.72 70.05 43.22 C 70.62 41.34 71.13 39.45 71.71 37.58 C 68.37 38.21 65.05 38.90 61.73 39.63 C 61.83 36.28 61.93 32.94 61.96 29.59 C 59.86 31.34 57.80 33.13 55.74 34.92 C 53.54 30.47 52.02 25.74 50.61 21.00 C 48.34 24.32 46.21 27.72 44.13 31.16 Z" />
<path fill="#217a7a" opacity="1.00" d=" M 44.13 31.16 C 46.21 27.72 48.34 24.32 50.61 21.00 C 52.02 25.74 53.54 30.47 55.74 34.92 C 57.80 33.13 59.86 31.34 61.96 29.59 C 61.93 32.94 61.83 36.28 61.73 39.63 C 65.05 38.90 68.37 38.21 71.71 37.58 C 71.13 39.45 70.62 41.34 70.05 43.22 C 73.57 43.72 77.08 44.22 80.59 44.78 C 78.39 46.76 76.16 48.72 73.95 50.68 C 77.01 53.44 80.45 55.69 84.00 57.77 C 81.07 58.93 78.15 60.08 75.21 61.22 C 78.96 66.28 82.74 71.31 86.13 76.62 C 78.15 76.73 70.17 76.57 62.18 76.68 C 63.81 79.18 65.40 81.69 66.94 84.25 C 64.79 83.51 62.65 82.75 60.52 81.98 C 60.67 83.31 60.81 84.65 60.96 85.99 C 57.91 84.69 54.87 83.35 51.86 81.98 C 48.82 85.78 45.73 89.55 42.34 93.04 C 42.45 91.20 42.57 89.36 42.70 87.52 C 41.53 87.57 40.35 87.63 39.18 87.69 C 40.16 84.92 41.16 82.16 42.17 79.39 C 40.51 80.22 38.85 81.05 37.18 81.88 C 37.30 80.16 37.43 78.44 37.56 76.72 C 29.71 76.56 21.86 76.67 14.01 76.66 C 16.07 73.66 17.87 70.49 19.20 67.11 C 20.37 64.10 22.95 62.03 25.22 59.87 C 25.13 57.27 25.12 54.68 25.20 52.08 C 23.12 50.20 21.03 48.33 18.92 46.48 C 22.49 46.20 26.36 46.46 29.53 44.49 C 32.52 42.78 35.50 41.06 38.60 39.55 C 38.66 34.89 38.73 30.24 39.01 25.59 C 40.74 27.42 42.43 29.29 44.13 31.16 M 49.43 26.44 C 48.89 31.06 48.97 35.73 49.44 40.35 C 50.28 38.05 51.38 35.74 51.46 33.25 C 51.34 30.85 50.31 28.63 49.43 26.44 M 40.46 29.86 C 40.70 33.61 41.08 37.35 41.44 41.09 C 37.74 42.64 34.12 44.42 30.99 46.94 C 29.07 48.75 26.31 48.24 23.92 48.41 C 25.57 49.31 27.23 50.20 28.88 51.10 C 28.28 52.93 27.69 54.77 27.12 56.60 C 30.23 59.31 33.25 62.11 36.28 64.91 C 35.58 66.00 34.88 67.09 34.19 68.18 C 35.43 67.57 36.67 66.95 37.91 66.33 C 40.99 69.16 44.10 72.02 47.69 74.22 C 46.37 71.71 44.66 69.40 42.49 67.55 C 38.04 63.68 33.62 59.76 29.28 55.76 C 31.24 51.52 32.70 45.97 37.93 44.77 C 41.16 43.01 44.18 45.63 46.98 47.00 C 46.87 42.57 46.83 38.15 46.64 33.73 C 45.87 35.76 45.16 37.81 44.44 39.87 C 43.22 36.49 41.94 33.13 40.46 29.86 M 55.74 42.18 C 55.48 40.19 55.23 38.20 54.91 36.21 C 54.03 37.98 52.62 39.71 52.65 41.77 C 52.98 43.83 53.71 45.80 54.06 47.86 C 55.57 46.73 57.08 45.58 58.73 44.64 C 60.57 43.30 62.82 44.64 64.67 45.28 C 69.17 46.86 70.17 52.02 72.04 55.84 C 65.23 62.17 57.94 67.99 51.51 74.72 C 55.04 76.71 58.59 78.68 62.36 80.17 C 60.11 77.72 57.40 75.76 54.44 74.27 C 57.10 72.01 59.46 69.32 62.53 67.60 C 65.01 67.18 67.54 67.61 70.03 67.70 C 68.33 66.80 66.63 65.91 64.93 65.01 C 68.14 62.07 71.33 59.13 74.44 56.09 C 72.32 51.10 70.44 45.42 65.18 42.89 C 66.14 42.01 67.11 41.13 68.07 40.25 C 64.95 41.05 61.77 41.64 58.54 41.79 C 59.01 39.16 59.51 36.53 59.91 33.89 C 58.44 36.61 57.10 39.41 55.74 42.18 M 72.74 46.10 C 71.75 47.58 74.35 48.55 75.11 47.25 C 76.14 45.78 73.50 44.82 72.74 46.10 M 38.59 47.47 C 34.91 48.30 33.52 52.04 31.94 55.00 C 37.38 59.88 42.58 65.06 48.45 69.44 C 48.86 66.48 48.28 63.55 47.27 60.77 C 45.97 57.18 46.67 53.24 45.53 49.63 C 43.94 47.56 41.10 46.14 38.59 47.47 M 52.85 52.29 C 49.89 56.55 51.80 61.73 54.56 65.52 C 53.36 67.43 52.16 69.35 51.03 71.31 C 57.42 66.19 63.33 60.50 69.38 54.99 C 67.85 52.19 66.67 48.55 63.21 47.66 C 59.17 45.60 55.23 49.36 52.85 52.29 M 75.84 55.96 C 75.27 57.00 74.71 58.04 74.14 59.08 C 76.17 58.54 78.19 57.98 80.21 57.43 C 78.76 56.93 77.30 56.44 75.84 55.96 M 22.74 64.89 C 25.53 64.26 28.30 63.55 31.07 62.84 C 30.30 62.13 29.53 61.42 28.76 60.71 C 26.74 62.08 24.71 63.45 22.74 64.89 M 40.44 74.17 C 40.00 75.81 39.55 77.45 39.11 79.09 C 40.75 77.79 42.39 76.47 44.02 75.16 C 42.83 74.83 41.64 74.50 40.44 74.17 M 41.51 84.55 C 42.99 84.03 44.46 83.48 45.92 82.94 C 45.35 84.66 44.78 86.39 44.24 88.13 C 47.05 84.72 49.53 81.02 51.22 76.92 C 47.34 78.51 43.85 81.02 41.51 84.55 M 53.15 78.11 C 53.46 80.80 56.47 81.61 58.38 82.95 C 56.93 81.12 55.92 78.04 53.15 78.11 Z" />
<path fill="#ffffff" opacity="1.00" d=" M 49.43 26.44 C 50.31 28.63 51.34 30.85 51.46 33.25 C 51.38 35.74 50.28 38.05 49.44 40.35 C 48.97 35.73 48.89 31.06 49.43 26.44 Z" />
<path fill="#ffffff" opacity="1.00" d=" M 40.46 29.86 C 41.94 33.13 43.22 36.49 44.44 39.87 C 45.16 37.81 45.87 35.76 46.64 33.73 C 46.83 38.15 46.87 42.57 46.98 47.00 C 44.18 45.63 41.16 43.01 37.93 44.77 C 32.70 45.97 31.24 51.52 29.28 55.76 C 33.62 59.76 38.04 63.68 42.49 67.55 C 44.66 69.40 46.37 71.71 47.69 74.22 C 44.10 72.02 40.99 69.16 37.91 66.33 C 36.67 66.95 35.43 67.57 34.19 68.18 C 34.88 67.09 35.58 66.00 36.28 64.91 C 33.25 62.11 30.23 59.31 27.12 56.60 C 27.69 54.77 28.28 52.93 28.88 51.10 C 27.23 50.20 25.57 49.31 23.92 48.41 C 26.31 48.24 29.07 48.75 30.99 46.94 C 34.12 44.42 37.74 42.64 41.44 41.09 C 41.08 37.35 40.70 33.61 40.46 29.86 Z" />
<path fill="#ffffff" opacity="1.00" d=" M 55.74 42.18 C 57.10 39.41 58.44 36.61 59.91 33.89 C 59.51 36.53 59.01 39.16 58.54 41.79 C 61.77 41.64 64.95 41.05 68.07 40.25 C 67.11 41.13 66.14 42.01 65.18 42.89 C 70.44 45.42 72.32 51.10 74.44 56.09 C 71.33 59.13 68.14 62.07 64.93 65.01 C 66.63 65.91 68.33 66.80 70.03 67.70 C 67.54 67.61 65.01 67.18 62.53 67.60 C 59.46 69.32 57.10 72.01 54.44 74.27 C 57.40 75.76 60.11 77.72 62.36 80.17 C 58.59 78.68 55.04 76.71 51.51 74.72 C 57.94 67.99 65.23 62.17 72.04 55.84 C 70.17 52.02 69.17 46.86 64.67 45.28 C 62.82 44.64 60.57 43.30 58.73 44.64 C 57.08 45.58 55.57 46.73 54.06 47.86 C 53.71 45.80 52.98 43.83 52.65 41.77 C 52.62 39.71 54.03 37.98 54.91 36.21 C 55.23 38.20 55.48 40.19 55.74 42.18 Z" />
<path fill="#ffffff" opacity="1.00" d=" M 72.74 46.10 C 73.50 44.82 76.14 45.78 75.11 47.25 C 74.35 48.55 71.75 47.58 72.74 46.10 Z" />
<path fill="#ffffff" opacity="1.00" d=" M 38.59 47.47 C 41.10 46.14 43.94 47.56 45.53 49.63 C 46.67 53.24 45.97 57.18 47.27 60.77 C 48.28 63.55 48.86 66.48 48.45 69.44 C 42.58 65.06 37.38 59.88 31.94 55.00 C 33.52 52.04 34.91 48.30 38.59 47.47 Z" />
<path fill="#ffffff" opacity="1.00" d=" M 52.85 52.29 C 55.23 49.36 59.17 45.60 63.21 47.66 C 66.67 48.55 67.85 52.19 69.38 54.99 C 63.33 60.50 57.42 66.19 51.03 71.31 C 52.16 69.35 53.36 67.43 54.56 65.52 C 51.80 61.73 49.89 56.55 52.85 52.29 Z" />
<path fill="#ffffff" opacity="1.00" d=" M 75.84 55.96 C 77.30 56.44 78.76 56.93 80.21 57.43 C 78.19 57.98 76.17 58.54 74.14 59.08 C 74.71 58.04 75.27 57.00 75.84 55.96 Z" />
<path fill="#ffffff" opacity="1.00" d=" M 22.74 64.89 C 24.71 63.45 26.74 62.08 28.76 60.71 C 29.53 61.42 30.30 62.13 31.07 62.84 C 28.30 63.55 25.53 64.26 22.74 64.89 Z" />
<path fill="#ffffff" opacity="1.00" d=" M 40.44 74.17 C 41.64 74.50 42.83 74.83 44.02 75.16 C 42.39 76.47 40.75 77.79 39.11 79.09 C 39.55 77.45 40.00 75.81 40.44 74.17 Z" />
<path fill="#ffffff" opacity="1.00" d=" M 41.51 84.55 C 43.85 81.02 47.34 78.51 51.22 76.92 C 49.53 81.02 47.05 84.72 44.24 88.13 C 44.78 86.39 45.35 84.66 45.92 82.94 C 44.46 83.48 42.99 84.03 41.51 84.55 Z" />
<path fill="#ffffff" opacity="1.00" d=" M 53.15 78.11 C 55.92 78.04 56.93 81.12 58.38 82.95 C 56.47 81.61 53.46 80.80 53.15 78.11 Z" />
</svg>
