<?xml version="1.0" encoding="UTF-8" ?>
<!DOCTYPE svg PUBLIC "-//W3C//DTD SVG 1.1//EN" "http://www.w3.org/Graphics/SVG/1.1/DTD/svg11.dtd">
<svg width="100pt" height="100pt" viewBox="0 0 100 100" version="1.1" xmlns="http://www.w3.org/2000/svg">
<path fill="#b7c1bf" opacity="1.00" d=" M 39.32 15.15 C 41.55 14.66 43.73 13.85 46.03 13.80 C 49.74 13.98 53.19 15.69 56.91 15.72 C 62.87 15.80 68.83 15.70 74.79 15.82 C 79.68 30.42 84.97 44.89 89.91 59.47 C 76.52 68.33 63.23 77.34 49.99 86.42 C 44.11 82.41 38.45 77.93 31.88 75.07 C 29.01 73.81 26.46 71.96 24.23 69.77 C 20.06 65.66 15.00 62.63 10.09 59.49 C 15.17 45.06 19.91 30.48 25.35 16.18 C 29.94 15.17 34.74 16.31 39.32 15.15 M 27.76 18.75 C 22.89 31.77 18.59 45.00 13.86 58.08 C 18.35 60.83 22.40 64.23 25.73 68.32 C 28.42 71.66 32.47 73.31 36.41 74.64 C 41.45 76.33 45.68 79.63 49.97 82.65 C 62.13 74.61 74.08 66.25 86.18 58.12 C 81.21 45.05 77.13 31.68 72.21 18.60 C 64.02 18.61 55.83 18.54 47.65 18.88 C 47.67 17.76 47.68 16.64 47.70 15.52 C 41.05 16.69 34.62 19.31 27.76 18.75 Z" />
<path fill="#c40f24" opacity="1.00" d=" M 27.76 18.75 C 34.62 19.31 41.05 16.69 47.70 15.52 C 47.68 16.64 47.67 17.76 47.65 18.88 C 55.83 18.54 64.02 18.61 72.21 18.60 C 77.13 31.68 81.21 45.05 86.18 58.12 C 74.08 66.25 62.13 74.61 49.97 82.65 C 45.68 79.63 41.45 76.33 36.41 74.64 C 32.47 73.31 28.42 71.66 25.73 68.32 C 22.40 64.23 18.35 60.83 13.86 58.08 C 18.59 45.00 22.89 31.77 27.76 18.75 M 32.46 25.46 C 27.23 32.84 22.05 41.37 23.13 50.81 C 23.44 57.23 27.32 62.59 31.36 67.28 C 29.05 66.32 26.77 65.30 24.44 64.37 C 32.07 74.30 46.11 75.32 57.33 72.13 C 61.97 70.41 66.38 68.02 70.47 65.25 C 73.78 61.84 74.76 56.96 76.42 52.65 C 76.81 55.02 77.19 57.39 77.64 59.76 C 78.61 56.64 79.61 53.39 78.87 50.10 C 77.60 39.42 71.29 29.48 61.94 24.12 C 54.34 20.54 45.56 21.44 37.75 23.86 C 39.96 21.77 42.23 19.75 44.32 17.54 C 39.65 18.87 35.31 21.46 32.46 25.46 Z" />
<path fill="#ffffff" opacity="1.00" d=" M 32.46 25.46 C 35.31 21.46 39.65 18.87 44.32 17.54 C 42.23 19.75 39.96 21.77 37.75 23.86 C 45.56 21.44 54.34 20.54 61.94 24.12 C 71.29 29.48 77.60 39.42 78.87 50.10 C 79.61 53.39 78.61 56.64 77.64 59.76 C 77.19 57.39 76.81 55.02 76.42 52.65 C 74.76 56.96 73.78 61.84 70.47 65.25 C 66.38 68.02 61.97 70.41 57.33 72.13 C 46.11 75.32 32.07 74.30 24.44 64.37 C 26.77 65.30 29.05 66.32 31.36 67.28 C 27.32 62.59 23.44 57.23 23.13 50.81 C 22.05 41.37 27.23 32.84 32.46 25.46 M 39.28 26.32 C 32.33 29.67 29.78 38.56 31.34 45.68 C 32.54 51.93 38.48 57.13 45.00 56.49 C 48.23 56.57 50.18 53.77 52.21 51.72 C 49.46 50.95 46.53 50.49 44.12 48.87 C 41.09 46.75 39.02 42.85 39.99 39.13 C 41.31 33.24 46.08 28.05 52.00 26.66 C 57.76 25.79 62.99 28.95 68.26 30.74 C 63.80 27.40 58.80 24.05 53.03 23.91 C 48.37 23.83 43.58 24.42 39.28 26.32 M 44.59 36.62 C 43.03 39.07 43.68 42.08 43.70 44.80 C 47.47 40.40 53.87 37.76 59.35 40.65 C 65.28 44.24 66.54 52.25 65.38 58.58 C 64.40 64.22 59.28 67.51 55.65 71.42 C 62.08 69.64 66.33 64.28 71.03 59.95 C 74.47 57.05 74.49 52.08 74.47 47.95 C 73.38 39.58 66.33 32.24 57.90 31.06 C 52.90 30.08 47.17 32.05 44.59 36.62 M 25.79 54.22 C 28.00 62.04 35.36 67.54 43.02 69.35 C 49.59 69.84 56.45 66.51 60.16 61.06 C 64.42 54.53 62.03 42.98 53.22 42.06 C 54.09 45.99 55.69 50.19 54.16 54.18 C 53.05 57.29 49.96 59.30 46.76 59.70 C 41.45 60.39 35.86 58.67 31.78 55.22 C 28.00 51.73 27.56 46.28 26.09 41.64 C 25.23 45.76 24.54 50.11 25.79 54.22 M 46.30 46.84 C 46.88 49.55 50.00 48.93 52.06 49.43 C 52.11 47.48 52.13 45.53 52.11 43.58 C 49.87 43.87 46.19 43.62 46.30 46.84 Z" />
<path fill="#c40f24" opacity="1.00" d=" M 39.28 26.32 C 43.58 24.42 48.37 23.83 53.03 23.91 C 58.80 24.05 63.80 27.40 68.26 30.74 C 62.99 28.95 57.76 25.79 52.00 26.66 C 46.08 28.05 41.31 33.24 39.99 39.13 C 39.02 42.85 41.09 46.75 44.12 48.87 C 46.53 50.49 49.46 50.95 52.21 51.72 C 50.18 53.77 48.23 56.57 45.00 56.49 C 38.48 57.13 32.54 51.93 31.34 45.68 C 29.78 38.56 32.33 29.67 39.28 26.32 Z" />
<path fill="#c40f24" opacity="1.00" d=" M 44.59 36.62 C 47.17 32.05 52.90 30.08 57.90 31.06 C 66.33 32.24 73.38 39.58 74.47 47.95 C 74.49 52.08 74.47 57.05 71.03 59.95 C 66.33 64.28 62.08 69.64 55.65 71.42 C 59.28 67.51 64.40 64.22 65.38 58.58 C 66.54 52.25 65.28 44.24 59.35 40.65 C 53.87 37.76 47.47 40.40 43.70 44.80 C 43.68 42.08 43.03 39.07 44.59 36.62 Z" />
<path fill="#c40f24" opacity="1.00" d=" M 25.79 54.22 C 24.54 50.11 25.23 45.76 26.09 41.64 C 27.56 46.28 28.00 51.73 31.78 55.22 C 35.86 58.67 41.45 60.39 46.76 59.70 C 49.96 59.30 53.05 57.29 54.16 54.18 C 55.69 50.19 54.09 45.99 53.22 42.06 C 62.03 42.98 64.42 54.53 60.16 61.06 C 56.45 66.51 49.59 69.84 43.02 69.35 C 35.36 67.54 28.00 62.04 25.79 54.22 Z" />
<path fill="#c40e23" opacity="1.00" d=" M 46.30 46.84 C 46.19 43.62 49.87 43.87 52.11 43.58 C 52.13 45.53 52.11 47.48 52.06 49.43 C 50.00 48.93 46.88 49.55 46.30 46.84 Z" />
</svg>
