<?xml version="1.0" encoding="UTF-8" ?>
<!DOCTYPE svg PUBLIC "-//W3C//DTD SVG 1.1//EN" "http://www.w3.org/Graphics/SVG/1.1/DTD/svg11.dtd">
<svg width="100pt" height="100pt" viewBox="0 0 100 100" version="1.1" xmlns="http://www.w3.org/2000/svg">
<path fill="#ffffff" opacity="1.00" d=" M 29.64 9.04 C 36.44 8.59 43.20 7.73 50.01 7.50 C 56.86 7.79 63.66 8.72 70.50 9.23 C 70.71 12.22 70.95 15.21 71.22 18.20 C 76.15 19.40 81.24 19.44 86.28 19.56 C 86.31 24.40 86.12 29.23 86.07 34.07 C 85.92 39.84 88.75 45.24 88.36 51.03 C 87.69 60.39 84.08 69.70 77.47 76.47 C 70.38 83.92 60.19 88.00 50.00 88.38 C 40.28 88.00 30.55 84.31 23.53 77.46 C 16.31 70.62 12.32 60.86 11.64 51.03 C 11.24 44.89 14.41 39.17 13.88 33.03 C 13.67 28.42 13.78 23.81 13.86 19.20 C 18.86 19.09 23.87 19.00 28.80 18.09 C 29.16 15.08 29.43 12.06 29.64 9.04 M 31.71 10.95 C 31.47 13.52 31.45 16.15 30.72 18.65 C 26.67 22.04 20.84 20.93 15.94 21.34 C 15.43 28.45 16.53 35.51 16.65 42.61 L 15.96 43.07 C 14.00 53.14 16.46 64.03 23.11 71.92 C 32.79 84.18 51.14 88.35 65.10 81.23 C 79.87 74.38 88.45 56.16 83.17 40.54 C 83.96 34.26 84.03 27.90 84.22 21.58 C 79.37 21.31 73.95 22.14 69.68 19.31 C 68.52 16.80 68.71 13.92 68.40 11.22 C 62.26 10.68 56.15 9.89 50.00 9.62 C 43.89 9.82 37.81 10.64 31.71 10.95 Z" />
<path fill="#1a0018" opacity="1.00" d=" M 31.71 10.95 C 37.81 10.64 43.89 9.82 50.00 9.62 C 56.15 9.89 62.26 10.68 68.40 11.22 C 68.71 13.92 68.52 16.80 69.68 19.31 C 73.95 22.14 79.37 21.31 84.22 21.58 C 84.03 27.90 83.96 34.26 83.17 40.54 C 83.08 40.83 82.91 41.40 82.82 41.68 C 82.19 41.81 80.91 42.07 80.28 42.20 C 81.77 36.21 81.75 30.00 81.85 23.87 C 77.65 23.51 73.15 23.79 69.31 21.75 C 66.34 20.07 66.87 16.10 66.12 13.24 C 55.54 11.79 44.85 11.86 34.25 12.98 C 33.50 15.59 33.52 18.64 31.76 20.82 C 27.87 23.66 22.70 23.17 18.14 23.59 C 18.15 29.31 18.22 35.05 19.30 40.69 C 19.06 40.87 18.57 41.25 18.33 41.44 C 17.91 41.73 17.07 42.31 16.65 42.61 C 16.53 35.51 15.43 28.45 15.94 21.34 C 20.84 20.93 26.67 22.04 30.72 18.65 C 31.45 16.15 31.47 13.52 31.71 10.95 Z" />
<path fill="#ffffff" opacity="1.00" d=" M 34.25 12.98 C 44.85 11.86 55.54 11.79 66.12 13.24 C 66.87 16.10 66.34 20.07 69.31 21.75 C 73.15 23.79 77.65 23.51 81.85 23.87 C 81.75 30.00 81.77 36.21 80.28 42.20 C 77.68 51.23 73.19 59.83 66.49 66.49 C 61.69 71.47 55.73 75.08 49.79 78.53 C 43.88 75.22 38.07 71.57 33.35 66.65 C 26.30 59.57 21.57 50.38 19.30 40.69 C 18.22 35.05 18.15 29.31 18.14 23.59 C 22.70 23.17 27.87 23.66 31.76 20.82 C 33.52 18.64 33.50 15.59 34.25 12.98 M 37.76 16.62 C 36.80 19.20 36.30 22.26 33.99 24.04 C 30.51 26.72 25.92 26.89 21.74 27.45 C 21.62 41.10 26.48 54.99 36.48 64.51 C 40.48 68.15 44.70 72.01 49.90 73.77 C 55.62 71.35 60.50 67.22 64.84 62.84 C 73.83 53.53 78.28 40.51 78.10 27.67 C 74.34 27.20 70.34 26.97 67.02 24.94 C 64.16 23.22 63.61 19.64 61.92 17.01 C 54.01 15.07 45.78 15.91 37.76 16.62 Z" />
<path fill="#482b46" opacity="1.00" d=" M 37.76 16.62 C 45.78 15.91 54.01 15.07 61.92 17.01 C 63.61 19.64 64.16 23.22 67.02 24.94 C 70.34 26.97 74.34 27.20 78.10 27.67 C 78.28 40.51 73.83 53.53 64.84 62.84 C 60.50 67.22 55.62 71.35 49.90 73.77 C 44.70 72.01 40.48 68.15 36.48 64.51 C 26.48 54.99 21.62 41.10 21.74 27.45 C 25.92 26.89 30.51 26.72 33.99 24.04 C 36.30 22.26 36.80 19.20 37.76 16.62 M 35.86 37.12 C 40.52 42.97 45.19 48.83 50.00 54.57 C 54.81 48.82 59.48 42.97 64.15 37.11 C 59.32 31.48 55.11 25.32 50.00 19.94 C 44.89 25.32 40.68 31.48 35.86 37.12 M 47.98 55.39 C 48.06 57.00 48.14 58.61 48.22 60.23 C 47.36 60.36 45.65 60.62 44.80 60.75 C 46.52 62.52 48.26 64.27 50.00 66.01 C 51.75 64.27 53.48 62.52 55.20 60.75 C 54.35 60.62 52.64 60.36 51.79 60.23 C 51.86 58.61 51.94 57.00 52.02 55.39 C 50.67 55.41 49.32 55.41 47.98 55.39 Z" />
<path fill="#ffffff" opacity="1.00" d=" M 35.86 37.12 C 40.68 31.48 44.89 25.32 50.00 19.94 C 55.11 25.32 59.32 31.48 64.15 37.11 C 59.48 42.97 54.81 48.82 50.00 54.57 C 45.19 48.83 40.52 42.97 35.86 37.12 M 50.11 24.27 C 49.90 29.54 49.93 34.82 50.04 40.10 C 53.49 39.02 56.93 37.93 60.37 36.82 C 57.10 32.52 53.75 28.27 50.11 24.27 M 41.50 39.69 C 44.18 43.40 47.09 46.94 50.00 50.47 C 52.91 46.94 55.81 43.40 58.50 39.71 C 55.67 40.35 52.91 41.41 50.00 41.61 C 47.09 41.39 44.33 40.34 41.50 39.69 Z" />
<path fill="#482b46" opacity="1.00" d=" M 50.11 24.27 C 53.75 28.27 57.10 32.52 60.37 36.82 C 56.93 37.93 53.49 39.02 50.04 40.10 C 49.93 34.82 49.90 29.54 50.11 24.27 Z" />
<path fill="#482b46" opacity="1.00" d=" M 41.50 39.69 C 44.33 40.34 47.09 41.39 50.00 41.61 C 52.91 41.41 55.67 40.35 58.50 39.71 C 55.81 43.40 52.91 46.94 50.00 50.47 C 47.09 46.94 44.18 43.40 41.50 39.69 Z" />
<path fill="#482b46" opacity="1.00" d=" M 19.30 40.69 C 21.57 50.38 26.30 59.57 33.35 66.65 C 38.07 71.57 43.88 75.22 49.79 78.53 C 55.73 75.08 61.69 71.47 66.49 66.49 C 73.19 59.83 77.68 51.23 80.28 42.20 C 80.91 42.07 82.19 41.81 82.82 41.68 C 82.91 41.40 83.08 40.83 83.17 40.54 C 88.45 56.16 79.87 74.38 65.10 81.23 C 51.14 88.35 32.79 84.18 23.11 71.92 C 16.46 64.03 14.00 53.14 15.96 43.07 L 16.65 42.61 C 17.07 42.31 17.91 41.73 18.33 41.44 C 18.57 41.25 19.06 40.87 19.30 40.69 Z" />
<path fill="#ffffff" opacity="1.00" d=" M 47.98 55.39 C 49.32 55.41 50.67 55.41 52.02 55.39 C 51.94 57.00 51.86 58.61 51.79 60.23 C 52.64 60.36 54.35 60.62 55.20 60.75 C 53.48 62.52 51.75 64.27 50.00 66.01 C 48.26 64.27 46.52 62.52 44.80 60.75 C 45.65 60.62 47.36 60.36 48.22 60.23 C 48.14 58.61 48.06 57.00 47.98 55.39 Z" />
</svg>
