<?xml version="1.0" encoding="UTF-8" ?>
<!DOCTYPE svg PUBLIC "-//W3C//DTD SVG 1.1//EN" "http://www.w3.org/Graphics/SVG/1.1/DTD/svg11.dtd">
<svg width="100pt" height="100pt" viewBox="0 0 100 100" version="1.1" xmlns="http://www.w3.org/2000/svg">
<path fill="#ffffff" opacity="1.00" d=" M 65.00 15.33 C 67.63 14.87 70.15 13.95 72.69 13.16 C 72.88 16.10 71.84 19.55 74.02 21.99 C 77.01 25.64 80.68 28.80 82.88 33.06 C 90.46 46.53 88.42 65.25 76.90 75.90 C 66.55 87.17 48.81 90.61 35.04 83.87 C 26.84 79.92 19.89 72.90 16.48 64.42 C 15.74 59.48 17.29 54.51 17.46 49.57 C 17.78 51.15 18.17 52.72 18.57 54.29 C 19.56 52.64 20.67 51.03 21.34 49.21 C 20.50 46.90 18.98 44.93 17.71 42.86 C 18.04 42.32 18.69 41.24 19.01 40.70 C 19.52 42.59 20.27 44.40 20.99 46.22 C 24.82 44.72 28.46 42.75 31.89 40.48 C 30.41 38.44 28.98 36.37 27.62 34.25 C 30.21 36.08 32.75 37.96 35.23 39.93 C 33.61 42.10 31.96 44.25 30.34 46.41 C 33.23 44.83 36.08 43.17 38.97 41.59 C 37.44 39.17 35.48 36.82 35.11 33.89 C 34.99 31.24 36.60 28.94 37.69 26.65 C 36.53 23.98 35.33 21.33 34.18 18.66 C 37.33 20.11 40.72 21.31 43.38 23.61 C 45.25 25.55 46.39 28.05 47.72 30.37 C 50.29 30.27 52.88 30.46 55.28 31.47 C 55.69 28.99 55.66 26.26 57.12 24.12 C 59.82 21.48 63.55 20.31 66.90 18.74 C 65.79 21.39 64.63 24.01 63.49 26.64 C 64.54 28.71 65.76 30.76 66.21 33.07 C 66.10 36.57 63.59 39.32 61.80 42.13 C 64.08 43.45 66.36 44.76 68.58 46.17 C 67.35 44.23 66.05 42.31 65.20 40.17 C 66.88 37.43 69.49 35.44 71.82 33.29 C 71.03 35.93 69.76 38.40 67.96 40.49 C 71.24 42.62 74.50 45.25 78.51 45.71 C 79.63 43.88 80.58 41.95 81.64 40.07 C 81.34 43.09 80.55 46.04 78.78 48.55 C 78.94 48.79 79.27 49.26 79.43 49.50 C 81.51 52.39 83.05 55.69 83.22 59.29 C 80.76 56.25 78.87 52.60 75.63 50.29 C 71.36 49.94 67.20 51.33 63.03 52.04 C 65.17 51.12 67.32 50.21 69.46 49.28 C 64.79 47.39 60.31 45.05 56.38 41.88 C 58.98 39.36 63.21 37.23 63.22 33.12 C 62.54 30.26 60.47 28.00 58.89 25.59 C 58.79 28.51 58.89 31.43 59.01 34.35 C 53.43 34.63 47.85 34.59 42.27 34.41 C 42.30 31.22 42.30 28.03 42.00 24.85 C 40.39 28.16 37.37 31.58 38.39 35.51 C 39.87 38.27 42.71 39.91 45.05 41.87 C 40.92 45.00 36.34 47.44 31.54 49.37 C 33.68 50.31 35.83 51.21 37.97 52.15 C 34.57 51.48 31.20 50.54 27.74 50.22 C 23.75 49.68 21.86 54.21 19.86 56.90 C 17.76 59.54 17.96 62.89 18.86 65.94 C 23.46 61.72 28.08 57.52 32.13 52.77 C 33.42 56.93 33.78 61.73 36.99 64.99 C 40.28 68.69 44.45 71.58 47.30 75.67 C 49.27 78.33 49.05 81.80 49.03 84.93 C 46.61 82.14 45.51 78.62 44.77 75.07 C 43.81 77.32 42.95 79.66 41.49 81.65 C 39.98 81.96 38.43 81.91 36.89 81.92 C 37.96 79.63 39.45 77.44 39.84 74.90 C 39.62 72.82 38.94 70.84 38.36 68.85 C 37.02 71.30 36.02 74.04 34.05 76.08 C 32.66 76.83 31.17 77.42 29.68 77.94 C 31.11 75.98 32.62 74.08 33.90 72.02 C 35.12 69.72 34.54 67.02 34.61 64.54 C 32.28 67.71 30.40 71.18 28.43 74.58 C 26.97 68.58 31.71 63.63 31.70 57.72 C 27.63 60.81 23.99 64.41 20.57 68.19 C 24.92 74.91 31.20 80.43 38.79 83.15 C 48.63 86.55 60.01 85.43 68.84 79.84 C 75.49 75.82 80.42 69.32 83.24 62.15 C 84.50 58.78 85.28 55.24 85.66 51.66 C 84.90 43.96 83.12 36.01 78.22 29.81 C 75.67 26.42 72.37 23.70 69.12 21.02 C 69.86 19.02 70.57 17.02 71.30 15.02 C 67.61 16.27 63.78 18.13 59.78 17.17 C 53.94 15.90 47.90 15.75 42.04 17.00 C 38.95 17.76 35.83 17.02 32.92 15.95 C 40.78 15.11 48.70 12.59 56.61 14.30 C 59.39 14.72 62.16 15.66 65.00 15.33 Z" />
<path fill="#482b46" opacity="1.00" d=" M 59.78 17.17 C 63.78 18.13 67.61 16.27 71.30 15.02 C 70.57 17.02 69.86 19.02 69.12 21.02 C 72.37 23.70 75.67 26.42 78.22 29.81 C 83.12 36.01 84.90 43.96 85.66 51.66 C 83.70 50.64 81.59 49.94 79.43 49.50 C 79.27 49.26 78.94 48.79 78.78 48.55 C 80.55 46.04 81.34 43.09 81.64 40.07 C 80.58 41.95 79.63 43.88 78.51 45.71 C 74.50 45.25 71.24 42.62 67.96 40.49 C 69.76 38.40 71.03 35.93 71.82 33.29 C 69.49 35.44 66.88 37.43 65.20 40.17 C 66.05 42.31 67.35 44.23 68.58 46.17 C 66.36 44.76 64.08 43.45 61.80 42.13 C 63.59 39.32 66.10 36.57 66.21 33.07 C 65.76 30.76 64.54 28.71 63.49 26.64 C 64.63 24.01 65.79 21.39 66.90 18.74 C 63.55 20.31 59.82 21.48 57.12 24.12 C 55.66 26.26 55.69 28.99 55.28 31.47 C 52.88 30.46 50.29 30.27 47.72 30.37 C 46.39 28.05 45.25 25.55 43.38 23.61 C 40.72 21.31 37.33 20.11 34.18 18.66 C 35.33 21.33 36.53 23.98 37.69 26.65 C 36.60 28.94 34.99 31.24 35.11 33.89 C 35.48 36.82 37.44 39.17 38.97 41.59 C 36.08 43.17 33.23 44.83 30.34 46.41 C 31.96 44.25 33.61 42.10 35.23 39.93 C 32.75 37.96 30.21 36.08 27.62 34.25 C 28.98 36.37 30.41 38.44 31.89 40.48 C 28.46 42.75 24.82 44.72 20.99 46.22 C 20.27 44.40 19.52 42.59 19.01 40.70 C 20.09 34.07 25.28 29.31 29.68 24.65 C 32.07 22.35 32.13 18.86 32.46 15.79 L 32.92 15.95 C 35.83 17.02 38.95 17.76 42.04 17.00 C 47.90 15.75 53.94 15.90 59.78 17.17 Z" />
<path fill="#482b46" opacity="1.00" d=" M 42.00 24.85 C 42.30 28.03 42.30 31.22 42.27 34.41 C 47.85 34.59 53.43 34.63 59.01 34.35 C 58.89 31.43 58.79 28.51 58.89 25.59 C 60.47 28.00 62.54 30.26 63.22 33.12 C 63.21 37.23 58.98 39.36 56.38 41.88 C 60.31 45.05 64.79 47.39 69.46 49.28 C 67.32 50.21 65.17 51.12 63.03 52.04 C 67.20 51.33 71.36 49.94 75.63 50.29 C 78.87 52.60 80.76 56.25 83.22 59.29 C 83.23 60.01 83.24 61.44 83.24 62.15 C 80.42 69.32 75.49 75.82 68.84 79.84 C 60.01 85.43 48.63 86.55 38.79 83.15 C 31.20 80.43 24.92 74.91 20.57 68.19 C 23.99 64.41 27.63 60.81 31.70 57.72 C 31.71 63.63 26.97 68.58 28.43 74.58 C 30.40 71.18 32.28 67.71 34.61 64.54 C 34.54 67.02 35.12 69.72 33.90 72.02 C 32.62 74.08 31.11 75.98 29.68 77.94 C 31.17 77.42 32.66 76.83 34.05 76.08 C 36.02 74.04 37.02 71.30 38.36 68.85 C 38.94 70.84 39.62 72.82 39.84 74.90 C 39.45 77.44 37.96 79.63 36.89 81.92 C 38.43 81.91 39.98 81.96 41.49 81.65 C 42.95 79.66 43.81 77.32 44.77 75.07 C 45.51 78.62 46.61 82.14 49.03 84.93 C 49.05 81.80 49.27 78.33 47.30 75.67 C 44.45 71.58 40.28 68.69 36.99 64.99 C 33.78 61.73 33.42 56.93 32.13 52.77 C 28.08 57.52 23.46 61.72 18.86 65.94 C 17.96 62.89 17.76 59.54 19.86 56.90 C 21.86 54.21 23.75 49.68 27.74 50.22 C 31.20 50.54 34.57 51.48 37.97 52.15 C 35.83 51.21 33.68 50.31 31.54 49.37 C 36.34 47.44 40.92 45.00 45.05 41.87 C 42.71 39.91 39.87 38.27 38.39 35.51 C 37.37 31.58 40.39 28.16 42.00 24.85 M 45.45 41.42 C 48.21 44.69 53.59 44.62 56.41 41.44 C 52.80 42.51 49.06 42.48 45.45 41.42 M 48.53 45.79 C 49.52 46.55 50.51 47.32 51.50 48.09 C 52.08 47.23 52.64 46.36 53.18 45.47 C 51.63 45.60 50.08 45.68 48.53 45.79 M 71.01 52.68 C 70.10 55.93 69.54 59.29 68.35 62.45 C 64.72 67.39 59.34 70.78 55.81 75.81 C 54.03 78.34 54.22 81.57 54.13 84.51 C 57.56 82.54 57.34 77.99 58.86 74.73 C 59.87 77.08 59.85 80.28 62.13 81.84 C 63.06 81.61 63.98 81.36 64.90 81.09 C 64.53 78.98 63.74 76.97 63.43 74.84 C 63.13 72.68 64.39 70.75 65.07 68.78 C 66.37 72.49 68.09 76.42 72.39 77.24 C 69.83 73.49 67.48 69.33 68.52 64.59 C 71.06 67.40 72.68 70.83 74.26 74.23 C 76.09 72.07 75.60 69.14 74.08 66.96 C 72.22 64.21 71.53 60.96 71.66 57.67 C 74.75 60.50 77.80 63.49 81.66 65.25 C 79.55 60.04 74.31 57.10 71.01 52.68 M 46.08 55.26 C 47.17 55.91 48.29 56.50 49.39 57.13 C 50.03 59.17 50.66 61.21 51.10 63.30 C 51.57 61.24 51.66 59.12 52.11 57.07 C 53.06 56.45 54.01 55.84 54.97 55.24 C 52.01 55.39 49.04 55.39 46.08 55.26 Z" />
<path fill="#ffffff" opacity="1.00" d=" M 45.45 41.42 C 49.06 42.48 52.80 42.51 56.41 41.44 C 53.59 44.62 48.21 44.69 45.45 41.42 Z" />
<path fill="#4a2d48" opacity="1.00" d=" M 17.46 49.57 C 17.14 47.33 17.49 45.08 17.71 42.86 C 18.98 44.93 20.50 46.90 21.34 49.21 C 20.67 51.03 19.56 52.64 18.57 54.29 C 18.17 52.72 17.78 51.15 17.46 49.57 Z" />
<path fill="#ffffff" opacity="1.00" d=" M 48.53 45.79 C 50.08 45.68 51.63 45.60 53.18 45.47 C 52.64 46.36 52.08 47.23 51.50 48.09 C 50.51 47.32 49.52 46.55 48.53 45.79 Z" />
<path fill="#af9aae" opacity="1.00" d=" M 79.43 49.50 C 81.59 49.94 83.70 50.64 85.66 51.66 C 85.28 55.24 84.50 58.78 83.24 62.15 C 83.24 61.44 83.23 60.01 83.22 59.29 C 83.05 55.69 81.51 52.39 79.43 49.50 Z" />
<path fill="#ffffff" opacity="1.00" d=" M 71.01 52.68 C 74.31 57.10 79.55 60.04 81.66 65.25 C 77.80 63.49 74.75 60.50 71.66 57.67 C 71.53 60.96 72.22 64.21 74.08 66.96 C 75.60 69.14 76.09 72.07 74.26 74.23 C 72.68 70.83 71.06 67.40 68.52 64.59 C 67.48 69.33 69.83 73.49 72.39 77.24 C 68.09 76.42 66.37 72.49 65.07 68.78 C 64.39 70.75 63.13 72.68 63.43 74.84 C 63.74 76.97 64.53 78.98 64.90 81.09 C 63.98 81.36 63.06 81.61 62.13 81.84 C 59.85 80.28 59.87 77.08 58.86 74.73 C 57.34 77.99 57.56 82.54 54.13 84.51 C 54.22 81.57 54.03 78.34 55.81 75.81 C 59.34 70.78 64.72 67.39 68.35 62.45 C 69.54 59.29 70.10 55.93 71.01 52.68 Z" />
<path fill="#ffffff" opacity="1.00" d=" M 46.08 55.26 C 49.04 55.39 52.01 55.39 54.97 55.24 C 54.01 55.84 53.06 56.45 52.11 57.07 C 51.66 59.12 51.57 61.24 51.10 63.30 C 50.66 61.21 50.03 59.17 49.39 57.13 C 48.29 56.50 47.17 55.91 46.08 55.26 Z" />
</svg>
