<?xml version="1.0" encoding="UTF-8" ?>
<!DOCTYPE svg PUBLIC "-//W3C//DTD SVG 1.1//EN" "http://www.w3.org/Graphics/SVG/1.1/DTD/svg11.dtd">
<svg width="100pt" height="100pt" viewBox="0 0 100 100" version="1.1" xmlns="http://www.w3.org/2000/svg">
<path fill="#b4c2c8" opacity="1.00" d=" M 59.08 18.05 C 63.20 18.05 67.11 16.63 71.03 15.55 C 73.03 23.56 81.69 27.16 84.06 34.98 C 85.76 39.26 83.34 43.55 82.88 47.80 C 83.45 51.46 85.13 54.84 86.45 58.27 C 74.08 66.67 61.70 75.05 49.28 83.39 C 45.78 80.96 42.49 78.13 38.61 76.32 C 35.39 76.17 32.30 77.42 29.18 78.03 C 28.51 75.26 28.09 72.42 27.10 69.75 C 23.10 64.92 17.48 61.84 12.38 58.32 C 15.66 52.79 13.58 45.70 17.42 40.47 C 22.21 33.88 23.63 25.64 26.51 18.15 C 37.36 17.94 48.22 18.19 59.08 18.05 M 56.06 20.72 C 46.99 20.73 37.92 20.52 28.85 20.72 C 27.00 25.37 25.72 30.23 23.63 34.79 C 21.96 38.56 18.49 41.26 17.18 45.21 C 16.31 49.26 16.67 53.45 16.57 57.56 C 20.04 60.36 23.55 63.14 26.56 66.44 C 29.18 69.06 29.38 72.97 30.38 76.34 C 33.15 75.18 35.91 74.01 38.65 72.79 C 42.29 75.05 45.54 78.25 49.76 79.38 C 52.61 78.27 55.00 76.29 57.51 74.60 C 65.81 68.63 74.62 63.40 82.75 57.19 C 81.84 54.49 80.64 51.81 80.43 48.94 C 80.80 44.05 84.31 39.10 81.82 34.24 C 78.78 28.01 72.88 23.84 69.48 17.82 C 65.15 19.32 60.71 20.84 56.06 20.72 Z" />
<path fill="#d96035" opacity="1.00" d=" M 56.06 20.72 C 60.71 20.84 65.15 19.32 69.48 17.82 C 72.88 23.84 78.78 28.01 81.82 34.24 C 84.31 39.10 80.80 44.05 80.43 48.94 C 80.64 51.81 81.84 54.49 82.75 57.19 C 74.62 63.40 65.81 68.63 57.51 74.60 C 55.00 76.29 52.61 78.27 49.76 79.38 C 45.54 78.25 42.29 75.05 38.65 72.79 C 35.91 74.01 33.15 75.18 30.38 76.34 C 29.38 72.97 29.18 69.06 26.56 66.44 C 23.55 63.14 20.04 60.36 16.57 57.56 C 16.67 53.45 16.31 49.26 17.18 45.21 C 18.49 41.26 21.96 38.56 23.63 34.79 C 25.72 30.23 27.00 25.37 28.85 20.72 C 37.92 20.52 46.99 20.73 56.06 20.72 M 60.56 27.57 C 53.59 37.46 47.14 47.80 38.79 56.62 C 37.10 56.53 35.40 56.45 33.71 56.39 C 35.62 57.41 37.54 58.41 39.46 59.42 C 36.59 64.12 33.04 68.47 31.08 73.68 C 35.92 70.62 38.65 65.49 41.67 60.84 C 43.31 63.04 44.96 65.23 46.70 67.35 C 45.98 65.12 45.12 62.94 44.20 60.79 C 49.73 49.02 58.00 38.91 65.29 28.23 C 66.94 25.89 67.75 23.12 68.38 20.36 C 65.12 21.96 62.45 24.49 60.56 27.57 M 71.16 24.37 C 73.00 27.52 75.53 30.41 76.37 34.04 C 76.63 38.76 73.15 43.48 68.49 44.48 C 64.78 45.31 60.96 44.48 57.22 44.97 C 55.84 45.97 54.81 47.36 53.66 48.61 C 60.04 50.58 67.15 52.11 73.60 49.60 C 78.72 47.69 82.14 41.77 80.65 36.42 C 79.09 31.38 75.13 27.61 71.16 24.37 M 18.79 46.08 C 17.81 50.60 19.58 55.21 22.04 58.94 C 24.58 62.72 28.01 67.09 33.14 66.30 C 29.96 64.06 26.34 62.04 24.54 58.41 C 22.27 54.27 20.21 48.57 23.49 44.41 C 25.96 41.05 30.41 40.70 34.18 40.02 C 30.68 42.42 25.74 43.93 24.42 48.43 C 22.90 54.16 26.18 59.67 29.94 63.72 C 28.10 58.40 23.55 52.03 27.64 46.66 C 32.13 41.19 39.80 43.61 45.66 44.82 C 46.42 43.59 47.18 42.35 47.94 41.12 C 42.22 38.93 36.29 36.22 30.01 36.96 C 24.99 37.52 19.98 41.00 18.79 46.08 Z" />
<path fill="#ffffff" opacity="1.00" d=" M 60.56 27.57 C 62.45 24.49 65.12 21.96 68.38 20.36 C 67.75 23.12 66.94 25.89 65.29 28.23 C 58.00 38.91 49.73 49.02 44.20 60.79 C 45.12 62.94 45.98 65.12 46.70 67.35 C 44.96 65.23 43.31 63.04 41.67 60.84 C 38.65 65.49 35.92 70.62 31.08 73.68 C 33.04 68.47 36.59 64.12 39.46 59.42 C 37.54 58.41 35.62 57.41 33.71 56.39 C 35.40 56.45 37.10 56.53 38.79 56.62 C 47.14 47.80 53.59 37.46 60.56 27.57 Z" />
<path fill="#ffffff" opacity="1.00" d=" M 71.16 24.37 C 75.13 27.61 79.09 31.38 80.65 36.42 C 82.14 41.77 78.72 47.69 73.60 49.60 C 67.15 52.11 60.04 50.58 53.66 48.61 C 54.81 47.36 55.84 45.97 57.22 44.97 C 60.96 44.48 64.78 45.31 68.49 44.48 C 73.15 43.48 76.63 38.76 76.37 34.04 C 75.53 30.41 73.00 27.52 71.16 24.37 M 79.55 35.78 C 78.26 38.41 77.37 41.28 75.60 43.65 C 73.24 46.21 69.89 47.46 66.97 49.25 C 70.73 48.49 75.10 47.88 77.50 44.51 C 79.54 42.08 79.37 38.75 79.55 35.78 Z" />
<path fill="#d96035" opacity="1.00" d=" M 79.55 35.78 C 79.37 38.75 79.54 42.08 77.50 44.51 C 75.10 47.88 70.73 48.49 66.97 49.25 C 69.89 47.46 73.24 46.21 75.60 43.65 C 77.37 41.28 78.26 38.41 79.55 35.78 Z" />
<path fill="#ffffff" opacity="1.00" d=" M 18.79 46.08 C 19.98 41.00 24.99 37.52 30.01 36.96 C 36.29 36.22 42.22 38.93 47.94 41.12 C 47.18 42.35 46.42 43.59 45.66 44.82 C 39.80 43.61 32.13 41.19 27.64 46.66 C 23.55 52.03 28.10 58.40 29.94 63.72 C 26.18 59.67 22.90 54.16 24.42 48.43 C 25.74 43.93 30.68 42.42 34.18 40.02 C 30.41 40.70 25.96 41.05 23.49 44.41 C 20.21 48.57 22.27 54.27 24.54 58.41 C 26.34 62.04 29.96 64.06 33.14 66.30 C 28.01 67.09 24.58 62.72 22.04 58.94 C 19.58 55.21 17.81 50.60 18.79 46.08 Z" />
</svg>
