<?xml version="1.0" encoding="UTF-8" ?>
<!DOCTYPE svg PUBLIC "-//W3C//DTD SVG 1.1//EN" "http://www.w3.org/Graphics/SVG/1.1/DTD/svg11.dtd">
<svg width="100pt" height="100pt" viewBox="0 0 100 100" version="1.1" xmlns="http://www.w3.org/2000/svg">
<path fill="#b8b9b9" opacity="1.00" d=" M 72.16 13.23 C 75.87 11.42 81.27 10.12 84.39 13.68 C 87.48 17.24 85.11 22.08 83.85 25.89 C 81.98 30.02 82.52 34.62 82.47 39.01 C 82.52 53.63 82.51 68.25 82.48 82.87 C 67.64 82.77 52.79 82.91 37.95 82.78 C 35.06 82.77 31.93 82.68 29.57 84.65 C 25.83 87.46 20.48 89.05 16.09 86.86 C 12.60 84.80 12.78 80.25 13.51 76.79 C 14.07 73.19 17.25 70.89 18.71 67.72 C 18.56 64.51 15.81 62.15 15.38 59.01 C 15.99 55.53 18.87 52.75 18.62 49.07 C 18.68 39.06 18.55 29.06 18.63 19.05 C 33.11 18.90 47.60 19.20 62.08 19.03 C 66.41 19.34 68.59 14.85 72.16 13.23 M 67.41 21.28 C 65.36 22.97 62.55 22.69 60.07 22.81 C 47.59 22.68 35.12 22.64 22.64 22.78 C 22.32 31.88 22.73 41.00 22.57 50.11 C 22.58 53.38 20.42 56.00 19.40 58.97 C 20.37 62.26 23.27 65.22 22.45 68.84 C 21.26 71.69 18.75 73.71 17.41 76.47 C 16.41 79.03 16.65 81.84 16.55 84.53 C 20.43 84.43 24.41 83.92 27.72 81.73 C 30.75 79.71 34.43 79.30 37.98 79.43 C 51.70 79.72 65.42 79.44 79.13 79.62 C 79.54 63.72 79.14 47.81 79.28 31.91 C 79.23 27.06 81.81 22.75 82.41 18.02 C 82.94 16.11 80.72 14.63 79.00 14.86 C 74.21 14.81 70.94 18.67 67.41 21.28 Z" />
<path fill="#b61c2e" opacity="1.00" d=" M 67.41 21.28 C 70.94 18.67 74.21 14.81 79.00 14.86 C 80.72 14.63 82.94 16.11 82.41 18.02 C 81.81 22.75 79.23 27.06 79.28 31.91 C 79.14 47.81 79.54 63.72 79.13 79.62 C 65.42 79.44 51.70 79.72 37.98 79.43 C 34.43 79.30 30.75 79.71 27.72 81.73 C 24.41 83.92 20.43 84.43 16.55 84.53 C 16.65 81.84 16.41 79.03 17.41 76.47 C 18.75 73.71 21.26 71.69 22.45 68.84 C 23.27 65.22 20.37 62.26 19.40 58.97 C 20.42 56.00 22.58 53.38 22.57 50.11 C 22.73 41.00 22.32 31.88 22.64 22.78 C 35.12 22.64 47.59 22.68 60.07 22.81 C 62.55 22.69 65.36 22.97 67.41 21.28 M 64.92 28.94 C 58.21 35.90 51.59 42.94 44.91 49.93 C 41.16 53.96 36.29 56.71 32.63 60.82 C 29.02 59.86 25.35 59.21 21.68 58.58 C 25.50 60.28 29.31 62.03 33.19 63.59 C 29.38 70.35 21.83 74.29 19.26 81.81 C 26.56 78.68 30.80 71.58 36.25 66.17 C 37.63 70.06 39.50 73.76 41.79 77.19 C 41.30 73.66 40.27 70.24 38.86 66.98 C 42.89 62.87 45.46 57.62 49.44 53.46 C 58.06 44.06 67.01 34.96 75.73 25.65 C 77.89 23.46 78.71 20.43 79.56 17.56 C 73.13 18.98 69.25 24.51 64.92 28.94 M 60.81 60.81 C 56.67 67.19 51.54 72.85 45.90 77.94 C 48.94 77.66 52.27 78.27 55.11 77.00 C 59.15 73.60 61.59 68.78 64.90 64.74 C 63.77 69.35 62.23 73.84 61.14 78.46 C 63.00 77.68 65.52 77.41 66.11 75.12 C 70.45 63.82 71.84 51.66 73.09 39.70 C 68.86 46.66 65.50 54.13 60.81 60.81 Z" />
<path fill="#ffffff" opacity="1.00" d=" M 64.92 28.94 C 69.25 24.51 73.13 18.98 79.56 17.56 C 78.71 20.43 77.89 23.46 75.73 25.65 C 67.01 34.96 58.06 44.06 49.44 53.46 C 45.46 57.62 42.89 62.87 38.86 66.98 C 40.27 70.24 41.30 73.66 41.79 77.19 C 39.50 73.76 37.63 70.06 36.25 66.17 C 30.80 71.58 26.56 78.68 19.26 81.81 C 21.83 74.29 29.38 70.35 33.19 63.59 C 29.31 62.03 25.50 60.28 21.68 58.58 C 25.35 59.21 29.02 59.86 32.63 60.82 C 36.29 56.71 41.16 53.96 44.91 49.93 C 51.59 42.94 58.21 35.90 64.92 28.94 Z" />
<path fill="#ffffff" opacity="1.00" d=" M 60.81 60.81 C 65.50 54.13 68.86 46.66 73.09 39.70 C 71.84 51.66 70.45 63.82 66.11 75.12 C 65.52 77.41 63.00 77.68 61.14 78.46 C 62.23 73.84 63.77 69.35 64.90 64.74 C 61.59 68.78 59.15 73.60 55.11 77.00 C 52.27 78.27 48.94 77.66 45.90 77.94 C 51.54 72.85 56.67 67.19 60.81 60.81 Z" />
</svg>
