<?xml version="1.0" encoding="UTF-8" ?>
<!DOCTYPE svg PUBLIC "-//W3C//DTD SVG 1.1//EN" "http://www.w3.org/Graphics/SVG/1.1/DTD/svg11.dtd">
<svg width="100pt" height="100pt" viewBox="0 0 100 100" version="1.1" xmlns="http://www.w3.org/2000/svg">
<path fill="#ffffff" opacity="1.00" d=" M 43.37 13.60 C 58.99 10.51 75.86 18.83 82.93 33.08 C 88.07 43.05 88.35 55.41 83.58 65.57 C 80.05 73.21 73.82 79.58 66.25 83.27 C 55.73 88.42 42.73 88.21 32.43 82.59 C 20.02 76.03 12.08 62.00 13.09 47.96 C 13.61 31.31 26.95 16.26 43.37 13.60 M 28.51 23.84 C 32.15 28.17 35.76 32.52 39.59 36.67 C 40.57 32.66 41.28 28.57 42.40 24.59 C 42.68 30.26 42.49 35.94 42.54 41.61 C 36.91 41.62 31.29 41.80 25.67 41.53 C 29.26 40.44 32.93 39.64 36.58 38.76 C 33.09 34.55 29.45 30.47 25.73 26.47 C 20.27 32.72 16.40 40.62 16.33 49.04 C 15.93 58.10 19.77 66.85 25.73 73.53 C 29.45 69.53 33.09 65.44 36.59 61.24 C 32.94 60.36 29.27 59.56 25.67 58.47 C 31.29 58.19 36.91 58.38 42.53 58.39 C 42.48 64.07 42.71 69.75 42.36 75.42 C 41.28 71.45 40.59 67.38 39.72 63.35 C 35.76 67.42 32.15 71.79 28.53 76.15 C 34.51 80.48 41.55 83.65 49.04 83.67 C 57.17 84.05 65.02 80.92 71.48 76.16 C 67.86 71.80 64.24 67.42 60.28 63.36 C 59.41 67.38 58.72 71.44 57.63 75.41 C 57.29 69.74 57.52 64.06 57.47 58.39 C 63.09 58.38 68.71 58.20 74.33 58.47 C 70.73 59.56 67.06 60.36 63.41 61.24 C 66.91 65.44 70.54 69.53 74.27 73.52 C 79.96 67.06 83.86 58.74 83.69 50.00 C 83.82 41.26 80.00 32.92 74.27 26.47 C 70.55 30.47 66.91 34.55 63.42 38.76 C 67.06 39.64 70.74 40.44 74.33 41.53 C 68.71 41.80 63.09 41.62 57.47 41.61 C 57.52 35.93 57.29 30.25 57.63 24.58 C 58.72 28.55 59.41 32.62 60.28 36.64 C 64.24 32.58 67.85 28.21 71.47 23.85 C 65.49 19.52 58.45 16.35 50.96 16.33 C 42.83 15.94 34.98 19.08 28.51 23.84 Z" />
<path fill="#482b46" opacity="1.00" d=" M 28.51 23.84 C 34.98 19.08 42.83 15.94 50.96 16.33 C 58.45 16.35 65.49 19.52 71.47 23.85 C 67.85 28.21 64.24 32.58 60.28 36.64 C 59.41 32.62 58.72 28.55 57.63 24.58 C 57.29 30.25 57.52 35.93 57.47 41.61 C 63.09 41.62 68.71 41.80 74.33 41.53 C 70.74 40.44 67.06 39.64 63.42 38.76 C 66.91 34.55 70.55 30.47 74.27 26.47 C 80.00 32.92 83.82 41.26 83.69 50.00 C 83.86 58.74 79.96 67.06 74.27 73.52 C 70.54 69.53 66.91 65.44 63.41 61.24 C 67.06 60.36 70.73 59.56 74.33 58.47 C 68.71 58.20 63.09 58.38 57.47 58.39 C 57.52 64.06 57.29 69.74 57.63 75.41 C 58.72 71.44 59.41 67.38 60.28 63.36 C 64.24 67.42 67.86 71.80 71.48 76.16 C 65.02 80.92 57.17 84.05 49.04 83.67 C 41.55 83.65 34.51 80.48 28.53 76.15 C 32.15 71.79 35.76 67.42 39.72 63.35 C 40.59 67.38 41.28 71.45 42.36 75.42 C 42.71 69.75 42.48 64.07 42.53 58.39 C 36.91 58.38 31.29 58.19 25.67 58.47 C 29.27 59.56 32.94 60.36 36.59 61.24 C 33.09 65.44 29.45 69.53 25.73 73.53 C 19.77 66.85 15.93 58.10 16.33 49.04 C 16.40 40.62 20.27 32.72 25.73 26.47 C 29.45 30.47 33.09 34.55 36.58 38.76 C 32.93 39.64 29.26 40.44 25.67 41.53 C 31.29 41.80 36.91 41.62 42.54 41.61 C 42.49 35.94 42.68 30.26 42.40 24.59 C 41.28 28.57 40.57 32.66 39.59 36.67 C 35.76 32.52 32.15 28.17 28.51 23.84 M 45.50 44.49 C 42.58 47.84 38.06 48.83 33.99 50.04 C 38.07 51.17 42.60 52.13 45.49 55.50 C 48.88 59.11 49.35 64.27 49.99 68.94 C 50.63 64.26 51.14 59.12 54.51 55.50 C 57.40 52.13 61.94 51.18 66.02 50.04 C 61.94 48.84 57.43 47.84 54.50 44.50 C 51.61 41.37 50.94 37.00 50.03 33.00 C 49.07 37.00 48.36 41.34 45.50 44.49 Z" />
<path fill="#ffffff" opacity="1.00" d=" M 45.50 44.49 C 48.36 41.34 49.07 37.00 50.03 33.00 C 50.94 37.00 51.61 41.37 54.50 44.50 C 57.43 47.84 61.94 48.84 66.02 50.04 C 61.94 51.18 57.40 52.13 54.51 55.50 C 51.14 59.12 50.63 64.26 49.99 68.94 C 49.35 64.27 48.88 59.11 45.49 55.50 C 42.60 52.13 38.07 51.17 33.99 50.04 C 38.06 48.83 42.58 47.84 45.50 44.49 Z" />
</svg>
