<?xml version="1.0" encoding="UTF-8" ?>
<!DOCTYPE svg PUBLIC "-//W3C//DTD SVG 1.1//EN" "http://www.w3.org/Graphics/SVG/1.1/DTD/svg11.dtd">
<svg width="100pt" height="100pt" viewBox="0 0 100 100" version="1.1" xmlns="http://www.w3.org/2000/svg">
<path fill="#ffffff" opacity="1.00" d=" M 15.75 7.18 C 21.04 9.97 25.70 13.85 30.87 16.73 C 36.93 14.09 43.26 11.66 50.00 11.86 C 63.58 11.81 77.03 19.52 83.33 31.63 C 84.72 33.83 85.32 36.99 88.08 37.90 C 92.27 39.48 96.12 41.80 99.23 45.04 C 95.63 47.18 91.92 49.11 88.17 50.95 C 87.77 59.67 84.68 68.31 78.89 74.90 C 72.43 82.43 62.91 87.31 52.99 87.92 C 51.16 88.30 48.77 87.80 47.57 89.58 C 44.51 93.49 40.61 96.56 36.53 99.33 C 36.03 94.72 35.58 90.10 35.74 85.46 C 24.32 80.72 15.36 70.46 12.78 58.30 C 9.67 47.16 13.50 35.22 20.08 26.08 C 17.90 19.97 16.69 13.58 15.75 7.18 M 18.58 11.39 C 19.17 16.36 20.71 21.13 22.10 25.92 C 23.18 28.53 20.97 30.77 19.93 32.98 C 13.16 44.08 13.95 59.02 21.38 69.59 C 25.28 75.56 31.31 79.69 37.68 82.65 C 37.74 86.98 37.76 91.32 38.17 95.64 C 41.67 93.35 44.43 90.21 47.02 86.97 C 48.67 84.47 51.97 84.84 54.56 84.28 C 63.27 83.36 71.39 78.70 76.88 71.91 C 82.08 65.86 84.24 57.94 85.01 50.15 C 88.69 48.40 92.37 46.63 95.88 44.57 C 92.65 41.95 88.78 40.42 84.93 38.95 C 82.24 38.11 81.46 35.11 80.07 32.97 C 75.05 23.51 65.18 16.94 54.59 15.59 C 46.74 14.37 38.87 16.58 31.90 20.11 C 27.44 17.23 23.28 13.89 18.58 11.39 Z" />
<path fill="#482b46" opacity="1.00" d=" M 18.58 11.39 C 23.28 13.89 27.44 17.23 31.90 20.11 C 38.87 16.58 46.74 14.37 54.59 15.59 C 65.18 16.94 75.05 23.51 80.07 32.97 C 81.46 35.11 82.24 38.11 84.93 38.95 C 88.78 40.42 92.65 41.95 95.88 44.57 C 92.37 46.63 88.69 48.40 85.01 50.15 C 84.24 57.94 82.08 65.86 76.88 71.91 C 71.39 78.70 63.27 83.36 54.56 84.28 C 51.97 84.84 48.67 84.47 47.02 86.97 C 44.43 90.21 41.67 93.35 38.17 95.64 C 37.76 91.32 37.74 86.98 37.68 82.65 C 31.31 79.69 25.28 75.56 21.38 69.59 C 13.95 59.02 13.16 44.08 19.93 32.98 C 20.97 30.77 23.18 28.53 22.10 25.92 C 20.71 21.13 19.17 16.36 18.58 11.39 M 21.78 16.13 C 22.93 20.36 24.54 24.48 25.37 28.80 C 26.38 32.32 23.37 35.06 22.04 38.02 C 19.22 42.70 19.23 48.72 21.41 53.64 C 23.76 58.90 24.77 64.90 28.69 69.33 C 31.46 72.73 35.63 74.42 39.13 76.91 C 40.99 81.44 40.13 86.52 40.27 91.30 C 43.73 87.42 46.32 82.67 50.54 79.54 C 53.93 78.72 57.66 80.64 60.91 78.93 C 65.93 76.58 69.71 72.41 73.77 68.77 C 75.20 67.28 77.12 65.88 77.41 63.68 C 78.20 59.32 78.07 54.76 79.56 50.55 C 83.00 47.05 88.19 46.22 92.53 44.24 C 87.43 42.14 81.44 41.59 77.17 37.86 C 72.69 32.12 69.01 25.03 61.91 22.08 C 52.86 18.25 42.82 20.83 33.78 23.27 C 29.10 22.55 25.63 18.64 21.78 16.13 Z" />
<path fill="#ffffff" opacity="1.00" d=" M 21.78 16.13 C 25.63 18.64 29.10 22.55 33.78 23.27 C 42.82 20.83 52.86 18.25 61.91 22.08 C 69.01 25.03 72.69 32.12 77.17 37.86 C 81.44 41.59 87.43 42.14 92.53 44.24 C 88.19 46.22 83.00 47.05 79.56 50.55 C 78.07 54.76 78.20 59.32 77.41 63.68 C 77.12 65.88 75.20 67.28 73.77 68.77 C 69.71 72.41 65.93 76.58 60.91 78.93 C 57.66 80.64 53.93 78.72 50.54 79.54 C 46.32 82.67 43.73 87.42 40.27 91.30 C 40.13 86.52 40.99 81.44 39.13 76.91 C 35.63 74.42 31.46 72.73 28.69 69.33 C 24.77 64.90 23.76 58.90 21.41 53.64 C 19.23 48.72 19.22 42.70 22.04 38.02 C 23.37 35.06 26.38 32.32 25.37 28.80 C 24.54 24.48 22.93 20.36 21.78 16.13 M 42.34 23.38 C 35.82 23.87 31.89 29.45 27.54 33.57 C 22.67 38.32 19.79 45.86 22.41 52.44 C 24.80 58.27 25.64 65.06 30.41 69.60 C 34.59 74.05 40.74 75.54 46.57 76.29 C 50.58 76.72 54.58 77.92 58.63 77.58 C 63.73 75.96 67.56 72.00 71.65 68.74 C 73.65 66.93 76.35 65.24 76.48 62.25 C 77.17 56.14 78.68 49.86 77.16 43.76 C 75.93 37.18 71.41 31.74 66.58 27.35 C 59.96 21.55 50.47 21.94 42.34 23.38 Z" />
<path fill="#482b46" opacity="1.00" d=" M 42.34 23.38 C 50.47 21.94 59.96 21.55 66.58 27.35 C 71.41 31.74 75.93 37.18 77.16 43.76 C 78.68 49.86 77.17 56.14 76.48 62.25 C 76.35 65.24 73.65 66.93 71.65 68.74 C 67.56 72.00 63.73 75.96 58.63 77.58 C 54.58 77.92 50.58 76.72 46.57 76.29 C 40.74 75.54 34.59 74.05 30.41 69.60 C 25.64 65.06 24.80 58.27 22.41 52.44 C 19.79 45.86 22.67 38.32 27.54 33.57 C 31.89 29.45 35.82 23.87 42.34 23.38 M 38.75 36.72 C 37.14 37.72 34.47 38.01 34.21 40.28 C 33.17 44.08 34.59 48.01 37.12 50.88 C 40.71 54.63 39.78 60.15 40.26 64.87 C 46.23 67.63 54.04 69.12 59.43 64.42 C 61.01 60.22 59.23 55.02 62.46 51.45 C 65.12 48.42 66.95 44.36 65.79 40.29 C 65.54 38.01 62.86 37.72 61.25 36.73 C 57.36 35.18 54.64 30.82 50.00 31.47 C 45.35 30.82 42.64 35.18 38.75 36.72 Z" />
<path fill="#ffffff" opacity="1.00" d=" M 38.75 36.72 C 42.64 35.18 45.35 30.82 50.00 31.47 C 54.64 30.82 57.36 35.18 61.25 36.73 C 62.86 37.72 65.54 38.01 65.79 40.29 C 66.95 44.36 65.12 48.42 62.46 51.45 C 59.23 55.02 61.01 60.22 59.43 64.42 C 54.04 69.12 46.23 67.63 40.26 64.87 C 39.78 60.15 40.71 54.63 37.12 50.88 C 34.59 48.01 33.17 44.08 34.21 40.28 C 34.47 38.01 37.14 37.72 38.75 36.72 M 45.27 33.94 C 46.77 35.01 48.07 36.67 49.97 36.98 C 51.68 36.48 53.18 35.47 54.73 34.63 C 51.75 33.23 48.44 33.35 45.27 33.94 M 35.62 44.50 C 36.26 44.57 37.53 44.70 38.16 44.77 C 38.01 42.89 37.85 41.01 37.65 39.14 C 36.92 40.91 36.26 42.70 35.62 44.50 M 62.38 39.21 C 62.12 41.07 61.91 42.92 61.71 44.78 C 62.37 44.72 63.69 44.60 64.35 44.53 C 63.73 42.75 63.07 40.97 62.38 39.21 M 40.29 47.49 C 41.84 50.06 43.58 52.51 45.47 54.86 C 44.75 51.78 42.93 49.21 40.29 47.49 M 54.63 54.94 C 56.51 52.58 58.26 50.11 59.81 47.53 C 57.09 49.20 55.21 51.77 54.63 54.94 Z" />
<path fill="#2d0e2b" opacity="1.00" d=" M 45.27 33.94 C 48.44 33.35 51.75 33.23 54.73 34.63 C 53.18 35.47 51.68 36.48 49.97 36.98 C 48.07 36.67 46.77 35.01 45.27 33.94 Z" />
<path fill="#2d0e2b" opacity="1.00" d=" M 35.62 44.50 C 36.26 42.70 36.92 40.91 37.65 39.14 C 37.85 41.01 38.01 42.89 38.16 44.77 C 37.53 44.70 36.26 44.57 35.62 44.50 Z" />
<path fill="#2d0e2b" opacity="1.00" d=" M 62.38 39.21 C 63.07 40.97 63.73 42.75 64.35 44.53 C 63.69 44.60 62.37 44.72 61.71 44.78 C 61.91 42.92 62.12 41.07 62.38 39.21 Z" />
<path fill="#482b46" opacity="1.00" d=" M 40.29 47.49 C 42.93 49.21 44.75 51.78 45.47 54.86 C 43.58 52.51 41.84 50.06 40.29 47.49 Z" />
<path fill="#2d0e2b" opacity="1.00" d=" M 54.63 54.94 C 55.21 51.77 57.09 49.20 59.81 47.53 C 58.26 50.11 56.51 52.58 54.63 54.94 Z" />
</svg>
