<?xml version="1.0" encoding="UTF-8" ?>
<!DOCTYPE svg PUBLIC "-//W3C//DTD SVG 1.1//EN" "http://www.w3.org/Graphics/SVG/1.1/DTD/svg11.dtd">
<svg width="100pt" height="100pt" viewBox="0 0 100 100" version="1.1" xmlns="http://www.w3.org/2000/svg">
<path fill="#bab9b9" opacity="1.00" d=" M 49.25 13.43 C 52.05 18.40 53.87 23.81 56.13 29.02 C 59.55 34.84 63.87 40.08 67.78 45.58 C 75.35 44.44 83.01 43.58 90.68 44.16 C 86.47 49.29 81.46 53.65 76.17 57.61 C 81.55 64.92 86.78 72.33 92.03 79.74 C 79.71 79.71 67.38 79.75 55.06 79.63 C 53.15 82.73 51.24 85.83 49.33 88.93 C 47.17 85.91 45.82 82.09 42.82 79.82 C 31.19 79.25 19.51 79.62 7.87 79.50 C 12.95 72.27 17.98 65.01 23.11 57.82 C 17.71 53.82 12.62 49.39 8.27 44.25 C 16.12 43.07 23.90 45.05 31.70 45.10 C 35.43 40.62 38.70 35.74 41.77 30.79 C 44.31 25.03 46.16 18.96 49.25 13.43 M 49.23 18.36 C 46.63 23.11 45.24 28.35 43.27 33.36 C 41.45 38.11 36.94 41.35 35.68 46.35 L 35.79 46.20 L 35.44 46.99 L 36.18 47.44 C 28.31 47.40 20.54 45.78 12.66 45.96 C 17.25 51.42 24.07 54.67 27.58 61.06 C 27.08 61.17 26.06 61.40 25.55 61.51 C 25.35 61.30 24.94 60.89 24.74 60.68 C 21.13 65.99 17.33 71.17 13.93 76.62 C 23.93 76.75 33.94 76.51 43.95 76.72 C 45.71 79.47 47.47 82.22 49.23 84.98 C 51.62 81.84 53.15 76.37 57.92 76.62 C 67.32 76.46 76.73 76.82 86.13 76.62 C 81.97 70.05 77.01 64.03 72.95 57.40 C 77.69 53.97 82.34 50.35 86.30 46.01 C 78.90 45.92 71.59 47.29 64.20 47.58 L 63.70 46.90 C 63.03 43.73 61.27 40.94 58.40 39.36 C 58.07 38.94 57.40 38.09 57.07 37.67 C 54.66 31.16 52.39 24.56 49.23 18.36 Z" />
<path fill="#217a7a" opacity="1.00" d=" M 49.23 18.36 C 52.39 24.56 54.66 31.16 57.07 37.67 C 57.96 41.02 58.70 44.41 59.49 47.78 C 61.06 47.72 62.63 47.65 64.20 47.58 C 71.59 47.29 78.90 45.92 86.30 46.01 C 82.34 50.35 77.69 53.97 72.95 57.40 C 77.01 64.03 81.97 70.05 86.13 76.62 C 76.73 76.82 67.32 76.46 57.92 76.62 C 53.15 76.37 51.62 81.84 49.23 84.98 C 47.47 82.22 45.71 79.47 43.95 76.72 C 33.94 76.51 23.93 76.75 13.93 76.62 C 17.33 71.17 21.13 65.99 24.74 60.68 C 24.94 60.89 25.35 61.30 25.55 61.51 C 27.10 63.10 28.67 64.68 30.24 66.25 C 27.00 68.82 23.73 71.37 20.61 74.08 C 24.98 73.18 29.24 71.39 33.74 71.35 C 36.31 72.24 38.15 74.45 40.30 76.04 C 38.64 72.73 37.13 69.23 34.52 66.54 C 32.42 64.45 29.95 62.81 27.58 61.06 C 24.07 54.67 17.25 51.42 12.66 45.96 C 20.54 45.78 28.31 47.40 36.18 47.44 C 36.88 47.59 38.29 47.88 38.99 48.03 C 39.78 45.24 40.48 42.42 41.06 39.58 C 39.27 41.76 37.51 43.97 35.79 46.20 L 35.68 46.35 C 36.94 41.35 41.45 38.11 43.27 33.36 C 45.24 28.35 46.63 23.11 49.23 18.36 M 49.25 23.33 C 46.37 31.08 44.05 39.03 41.56 46.91 C 44.24 49.81 46.90 52.73 49.26 55.90 C 51.64 52.74 54.31 49.81 57.03 46.94 C 54.46 39.06 52.26 31.06 49.25 23.33 M 17.91 48.24 C 22.70 52.13 27.61 55.85 32.53 59.55 C 36.65 63.33 42.28 59.96 47.03 59.72 C 45.50 56.97 44.06 54.18 42.63 51.38 C 34.39 50.34 26.15 49.26 17.91 48.24 M 56.25 51.42 C 54.86 54.21 53.45 56.98 51.96 59.71 C 55.62 60.23 59.22 61.32 62.93 61.38 C 64.72 60.97 66.14 59.68 67.62 58.66 C 71.91 55.34 76.29 52.13 80.43 48.61 C 72.32 49.13 64.31 50.46 56.25 51.42 M 64.21 66.23 C 61.41 68.95 59.92 72.68 58.63 76.29 C 60.60 74.51 62.40 72.56 64.16 70.59 C 68.89 71.45 73.58 72.50 78.35 73.12 C 75.18 70.68 71.78 68.55 68.48 66.30 C 70.53 64.22 72.55 62.12 74.32 59.80 C 70.65 61.41 67.16 63.50 64.21 66.23 M 49.18 63.35 C 46.69 64.95 44.16 66.48 41.63 68.02 C 44.08 72.15 46.62 76.24 49.23 80.28 C 51.97 76.25 54.51 72.09 57.09 67.95 C 54.44 66.44 51.79 64.92 49.18 63.35 Z" />
<path fill="#ffffff" opacity="1.00" d=" M 49.25 23.33 C 52.26 31.06 54.46 39.06 57.03 46.94 C 54.31 49.81 51.64 52.74 49.26 55.90 C 46.90 52.73 44.24 49.81 41.56 46.91 C 44.05 39.03 46.37 31.08 49.25 23.33 Z" />
<path fill="#ffffff" opacity="1.00" d=" M 57.07 37.67 C 57.40 38.09 58.07 38.94 58.40 39.36 C 60.19 41.85 61.85 44.44 63.70 46.90 L 64.20 47.58 C 62.63 47.65 61.06 47.72 59.49 47.78 C 58.70 44.41 57.96 41.02 57.07 37.67 Z" />
<path fill="#217a7a" opacity="1.00" d=" M 58.40 39.36 C 61.27 40.94 63.03 43.73 63.70 46.90 C 61.85 44.44 60.19 41.85 58.40 39.36 Z" />
<path fill="#ffffff" opacity="1.00" d=" M 35.79 46.20 C 37.51 43.97 39.27 41.76 41.06 39.58 C 40.48 42.42 39.78 45.24 38.99 48.03 C 38.29 47.88 36.88 47.59 36.18 47.44 L 35.44 46.99 L 35.79 46.20 Z" />
<path fill="#ffffff" opacity="1.00" d=" M 17.91 48.24 C 26.15 49.26 34.39 50.34 42.63 51.38 C 44.06 54.18 45.50 56.97 47.03 59.72 C 42.28 59.96 36.65 63.33 32.53 59.55 C 27.61 55.85 22.70 52.13 17.91 48.24 Z" />
<path fill="#ffffff" opacity="1.00" d=" M 56.25 51.42 C 64.31 50.46 72.32 49.13 80.43 48.61 C 76.29 52.13 71.91 55.34 67.62 58.66 C 66.14 59.68 64.72 60.97 62.93 61.38 C 59.22 61.32 55.62 60.23 51.96 59.71 C 53.45 56.98 54.86 54.21 56.25 51.42 Z" />
<path fill="#ffffff" opacity="1.00" d=" M 64.21 66.23 C 67.16 63.50 70.65 61.41 74.32 59.80 C 72.55 62.12 70.53 64.22 68.48 66.30 C 71.78 68.55 75.18 70.68 78.35 73.12 C 73.58 72.50 68.89 71.45 64.16 70.59 C 62.40 72.56 60.60 74.51 58.63 76.29 C 59.92 72.68 61.41 68.95 64.21 66.23 Z" />
<path fill="#ffffff" opacity="1.00" d=" M 25.55 61.51 C 26.06 61.40 27.08 61.17 27.58 61.06 C 29.95 62.81 32.42 64.45 34.52 66.54 C 37.13 69.23 38.64 72.73 40.30 76.04 C 38.15 74.45 36.31 72.24 33.74 71.35 C 29.24 71.39 24.98 73.18 20.61 74.08 C 23.73 71.37 27.00 68.82 30.24 66.25 C 28.67 64.68 27.10 63.10 25.55 61.51 Z" />
<path fill="#ffffff" opacity="1.00" d=" M 49.18 63.35 C 51.79 64.92 54.44 66.44 57.09 67.95 C 54.51 72.09 51.97 76.25 49.23 80.28 C 46.62 76.24 44.08 72.15 41.63 68.02 C 44.16 66.48 46.69 64.95 49.18 63.35 Z" />
</svg>
