<?xml version="1.0" encoding="UTF-8" ?>
<!DOCTYPE svg PUBLIC "-//W3C//DTD SVG 1.1//EN" "http://www.w3.org/Graphics/SVG/1.1/DTD/svg11.dtd">
<svg width="100pt" height="100pt" viewBox="0 0 100 100" version="1.1" xmlns="http://www.w3.org/2000/svg">
<path fill="#b8b8b8" opacity="1.00" d=" M 45.85 19.33 C 47.88 13.71 49.40 7.89 52.07 2.52 C 53.64 8.04 53.92 13.92 56.10 19.26 C 62.44 19.78 68.86 18.92 75.17 19.82 C 77.28 24.03 78.04 28.78 80.27 32.94 C 85.93 33.11 91.44 30.01 97.08 28.99 C 92.93 34.21 88.26 38.98 83.95 44.06 C 86.09 50.03 88.24 56.01 90.29 62.02 C 87.90 63.69 85.50 65.37 83.17 67.12 C 87.41 69.63 92.06 71.30 96.57 73.23 C 92.28 75.33 87.30 76.39 83.69 79.67 C 80.24 84.53 78.73 90.45 76.58 95.95 C 73.87 89.73 70.51 82.97 64.00 80.04 C 59.28 82.22 55.27 85.63 50.87 88.35 C 43.69 84.10 37.11 78.91 29.88 74.76 C 22.97 77.46 17.42 82.76 10.86 86.19 C 13.63 80.03 16.77 74.04 19.64 67.92 C 16.60 65.79 13.70 63.41 10.43 61.63 C 7.23 61.28 4.07 62.30 0.91 62.70 C 4.92 59.69 9.65 57.74 13.46 54.49 C 16.16 48.95 18.07 42.97 19.81 37.06 C 18.26 32.26 14.64 28.39 12.58 23.78 C 16.04 25.47 19.35 27.46 22.76 29.24 C 24.29 25.55 24.68 20.69 28.82 18.87 C 28.33 15.48 27.56 12.14 27.08 8.75 C 28.35 10.22 30.19 11.47 30.72 13.43 C 30.88 16.32 30.92 19.22 30.94 22.12 C 28.71 25.08 27.03 28.40 25.52 31.78 C 22.65 30.78 19.77 29.78 16.88 28.81 C 19.08 31.97 21.32 35.11 23.61 38.21 C 21.91 43.00 20.63 47.95 18.47 52.56 C 16.91 56.08 13.26 57.81 10.10 59.60 C 15.38 60.07 19.87 62.95 23.86 66.23 C 21.76 70.53 19.63 74.81 17.70 79.18 C 21.30 77.00 24.62 74.37 28.31 72.35 C 30.45 70.97 32.90 72.38 35.08 72.87 C 37.04 73.45 39.01 73.98 41.02 74.36 C 39.97 74.72 38.91 75.08 37.86 75.42 C 42.13 78.37 46.46 81.25 50.92 83.91 C 54.88 81.31 58.51 77.95 63.06 76.43 C 69.92 77.32 73.42 84.33 76.51 89.74 C 77.84 85.90 78.91 81.77 81.63 78.62 C 84.34 75.69 88.37 74.66 91.96 73.25 C 87.28 71.43 82.81 68.97 79.21 65.40 C 81.33 63.77 83.48 62.17 85.63 60.58 C 83.63 54.83 81.58 49.10 79.77 43.28 C 83.66 39.92 87.49 36.50 91.19 32.94 C 86.49 34.10 81.82 35.39 77.15 36.71 C 75.61 32.40 74.69 27.75 72.17 23.88 C 66.49 21.37 60.05 22.10 54.04 22.62 C 53.27 18.04 52.60 13.45 51.58 8.92 C 50.34 13.66 49.21 18.42 48.04 23.18 C 44.55 23.08 40.93 23.46 37.56 22.36 C 34.89 20.49 33.38 17.47 31.62 14.82 C 33.81 16.27 35.59 18.43 38.08 19.36 C 40.66 19.67 43.27 19.44 45.85 19.33 Z" />
<path fill="#d96035" opacity="1.00" d=" M 51.58 8.92 C 52.60 13.45 53.27 18.04 54.04 22.62 C 60.05 22.10 66.49 21.37 72.17 23.88 C 74.69 27.75 75.61 32.40 77.15 36.71 C 81.82 35.39 86.49 34.10 91.19 32.94 C 87.49 36.50 83.66 39.92 79.77 43.28 C 81.58 49.10 83.63 54.83 85.63 60.58 C 83.48 62.17 81.33 63.77 79.21 65.40 C 82.81 68.97 87.28 71.43 91.96 73.25 C 88.37 74.66 84.34 75.69 81.63 78.62 C 78.91 81.77 77.84 85.90 76.51 89.74 C 73.42 84.33 69.92 77.32 63.06 76.43 C 58.51 77.95 54.88 81.31 50.92 83.91 C 46.46 81.25 42.13 78.37 37.86 75.42 C 38.91 75.08 39.97 74.72 41.02 74.36 C 46.35 73.51 46.54 67.64 46.91 63.41 C 50.06 66.28 51.94 70.15 53.04 74.22 C 53.98 72.57 54.92 70.93 55.87 69.29 C 60.06 70.59 65.20 72.23 68.93 68.91 C 73.15 66.04 72.76 60.53 72.38 56.06 C 73.77 55.18 75.17 54.33 76.57 53.46 C 73.98 51.81 71.45 50.05 68.99 48.20 C 73.30 43.94 78.37 40.60 83.24 37.05 C 79.66 38.19 76.13 39.50 72.66 40.96 C 72.80 37.87 73.29 34.66 72.32 31.65 C 70.58 27.23 65.89 23.96 61.08 24.24 C 57.93 24.54 55.17 26.24 52.42 27.66 C 52.21 24.03 51.91 20.40 51.57 16.78 C 50.20 22.82 48.98 28.92 46.72 34.71 C 41.19 31.19 37.38 25.79 33.14 20.94 C 34.92 26.51 36.88 32.21 36.29 38.16 C 31.26 36.71 26.43 34.67 21.74 32.35 C 24.15 35.36 26.52 38.40 28.81 41.51 C 27.15 43.02 25.28 44.39 24.08 46.33 C 23.86 48.65 24.29 50.97 24.56 53.27 C 22.38 54.42 20.17 55.54 17.95 56.63 C 21.59 56.89 25.43 56.77 28.78 58.42 C 28.67 62.79 26.75 66.81 25.12 70.78 C 27.52 69.90 29.93 69.04 32.35 68.21 C 33.25 69.77 34.16 71.33 35.08 72.87 C 32.90 72.38 30.45 70.97 28.31 72.35 C 24.62 74.37 21.30 77.00 17.70 79.18 C 19.63 74.81 21.76 70.53 23.86 66.23 C 19.87 62.95 15.38 60.07 10.10 59.60 C 13.26 57.81 16.91 56.08 18.47 52.56 C 20.63 47.95 21.91 43.00 23.61 38.21 C 21.32 35.11 19.08 31.97 16.88 28.81 C 19.77 29.78 22.65 30.78 25.52 31.78 C 27.03 28.40 28.71 25.08 30.94 22.12 C 30.92 19.22 30.88 16.32 30.72 13.43 C 30.94 13.77 31.40 14.47 31.62 14.82 C 33.38 17.47 34.89 20.49 37.56 22.36 C 40.93 23.46 44.55 23.08 48.04 23.18 C 49.21 18.42 50.34 13.66 51.58 8.92 M 75.49 63.29 C 74.73 65.51 73.89 67.71 73.00 69.88 C 72.74 70.15 72.21 70.68 71.95 70.95 C 70.06 71.72 68.16 72.47 66.24 73.17 C 68.60 74.21 71.23 75.03 73.01 77.00 C 74.58 78.91 74.97 81.44 75.61 83.76 C 76.38 81.32 77.07 78.76 78.65 76.70 C 80.18 74.91 82.56 74.25 84.64 73.33 C 82.49 72.25 80.13 71.34 78.52 69.48 C 77.12 67.63 76.36 65.42 75.49 63.29 Z" />
<path fill="#ffffff" opacity="1.00" d=" M 46.72 34.71 C 48.98 28.92 50.20 22.82 51.57 16.78 C 51.91 20.40 52.21 24.03 52.42 27.66 C 55.17 26.24 57.93 24.54 61.08 24.24 C 65.89 23.96 70.58 27.23 72.32 31.65 C 73.29 34.66 72.80 37.87 72.66 40.96 C 76.13 39.50 79.66 38.19 83.24 37.05 C 78.37 40.60 73.30 43.94 68.99 48.20 C 71.45 50.05 73.98 51.81 76.57 53.46 C 75.17 54.33 73.77 55.18 72.38 56.06 C 72.76 60.53 73.15 66.04 68.93 68.91 C 65.20 72.23 60.06 70.59 55.87 69.29 C 54.92 70.93 53.98 72.57 53.04 74.22 C 51.94 70.15 50.06 66.28 46.91 63.41 C 46.54 67.64 46.35 73.51 41.02 74.36 C 39.01 73.98 37.04 73.45 35.08 72.87 C 34.16 71.33 33.25 69.77 32.35 68.21 C 29.93 69.04 27.52 69.90 25.12 70.78 C 26.75 66.81 28.67 62.79 28.78 58.42 C 25.43 56.77 21.59 56.89 17.95 56.63 C 20.17 55.54 22.38 54.42 24.56 53.27 C 24.29 50.97 23.86 48.65 24.08 46.33 C 25.28 44.39 27.15 43.02 28.81 41.51 C 26.52 38.40 24.15 35.36 21.74 32.35 C 26.43 34.67 31.26 36.71 36.29 38.16 C 36.88 32.21 34.92 26.51 33.14 20.94 C 37.38 25.79 41.19 31.19 46.72 34.71 M 62.40 25.42 C 62.51 27.82 64.34 32.11 60.68 32.56 C 57.01 33.34 56.99 28.77 57.13 26.33 C 54.38 28.61 51.30 31.28 51.28 35.18 C 50.54 41.46 56.71 47.31 62.94 46.17 C 69.26 45.41 73.37 38.06 70.88 32.24 C 69.71 28.39 65.82 26.75 62.40 25.42 M 40.70 34.85 C 40.44 35.47 39.93 36.72 39.68 37.34 C 38.65 37.39 37.62 37.45 36.59 37.51 C 37.33 39.02 37.54 41.12 39.27 41.89 C 41.06 42.34 43.05 41.28 43.48 39.44 C 44.31 37.39 41.76 36.23 40.70 34.85 M 30.49 43.38 C 30.23 44.28 29.70 46.08 29.43 46.98 C 28.18 46.28 26.93 45.60 25.67 44.91 C 25.39 47.14 24.36 49.84 26.26 51.65 C 28.71 54.56 33.92 52.64 34.21 48.93 C 34.73 46.31 32.23 44.78 30.49 43.38 M 44.21 45.82 C 44.32 47.24 44.45 48.66 44.57 50.08 C 42.91 49.74 41.26 49.40 39.60 49.07 C 39.50 51.60 39.15 54.78 41.72 56.29 C 45.22 58.93 50.70 55.43 49.88 51.16 C 49.67 48.11 46.46 47.09 44.21 45.82 M 61.32 52.30 C 61.79 53.82 62.36 55.32 62.66 56.88 C 62.14 58.33 60.75 58.93 59.29 58.77 C 58.22 57.61 57.51 56.18 56.70 54.83 C 55.52 57.36 53.89 60.05 54.71 62.95 C 55.67 68.02 61.88 70.91 66.43 68.53 C 71.20 66.45 72.54 59.66 69.26 55.74 C 67.43 53.21 64.10 52.98 61.32 52.30 M 40.48 61.79 C 40.16 63.26 39.86 64.73 39.57 66.20 C 38.30 65.25 36.91 64.50 35.41 63.99 C 34.78 66.31 33.79 69.15 35.84 71.10 C 38.38 74.30 44.18 72.71 44.73 68.65 C 45.58 65.49 42.52 63.54 40.48 61.79 Z" />
<path fill="#d96035" opacity="1.00" d=" M 62.40 25.42 C 65.82 26.75 69.71 28.39 70.88 32.24 C 73.37 38.06 69.26 45.41 62.94 46.17 C 56.71 47.31 50.54 41.46 51.28 35.18 C 51.30 31.28 54.38 28.61 57.13 26.33 C 56.99 28.77 57.01 33.34 60.68 32.56 C 64.34 32.11 62.51 27.82 62.40 25.42 Z" />
<path fill="#d96036" opacity="1.00" d=" M 40.70 34.85 C 41.76 36.23 44.31 37.39 43.48 39.44 C 43.05 41.28 41.06 42.34 39.27 41.89 C 37.54 41.12 37.33 39.02 36.59 37.51 C 37.62 37.45 38.65 37.39 39.68 37.34 C 39.93 36.72 40.44 35.47 40.70 34.85 Z" />
<path fill="#d96035" opacity="1.00" d=" M 30.49 43.38 C 32.23 44.78 34.73 46.31 34.21 48.93 C 33.92 52.64 28.71 54.56 26.26 51.65 C 24.36 49.84 25.39 47.14 25.67 44.91 C 26.93 45.60 28.18 46.28 29.43 46.98 C 29.70 46.08 30.23 44.28 30.49 43.38 Z" />
<path fill="#d96035" opacity="1.00" d=" M 44.21 45.82 C 46.46 47.09 49.67 48.11 49.88 51.16 C 50.70 55.43 45.22 58.93 41.72 56.29 C 39.15 54.78 39.50 51.60 39.60 49.07 C 41.26 49.40 42.91 49.74 44.57 50.08 C 44.45 48.66 44.32 47.24 44.21 45.82 Z" />
<path fill="#d96035" opacity="1.00" d=" M 61.32 52.30 C 64.10 52.98 67.43 53.21 69.26 55.74 C 72.54 59.66 71.20 66.45 66.43 68.53 C 61.88 70.91 55.67 68.02 54.71 62.95 C 53.89 60.05 55.52 57.36 56.70 54.83 C 57.51 56.18 58.22 57.61 59.29 58.77 C 60.75 58.93 62.14 58.33 62.66 56.88 C 62.36 55.32 61.79 53.82 61.32 52.30 Z" />
<path fill="#d96035" opacity="1.00" d=" M 40.48 61.79 C 42.52 63.54 45.58 65.49 44.73 68.65 C 44.18 72.71 38.38 74.30 35.84 71.10 C 33.79 69.15 34.78 66.31 35.41 63.99 C 36.91 64.50 38.30 65.25 39.57 66.20 C 39.86 64.73 40.16 63.26 40.48 61.79 Z" />
<path fill="#ffffff" opacity="1.00" d=" M 75.49 63.29 C 76.36 65.42 77.12 67.63 78.52 69.48 C 80.13 71.34 82.49 72.25 84.64 73.33 C 82.56 74.25 80.18 74.91 78.65 76.70 C 77.07 78.76 76.38 81.32 75.61 83.76 C 74.97 81.44 74.58 78.91 73.01 77.00 C 71.23 75.03 68.60 74.21 66.24 73.17 C 68.16 72.47 70.06 71.72 71.95 70.95 C 71.25 71.66 70.56 72.37 69.86 73.09 C 71.85 75.07 73.84 77.06 75.83 79.05 C 77.55 77.07 79.27 75.08 80.99 73.10 C 79.21 71.12 77.44 69.13 75.67 67.14 C 74.78 68.05 73.89 68.96 73.00 69.88 C 73.89 67.71 74.73 65.51 75.49 63.29 Z" />
<path fill="#ecac49" opacity="1.00" d=" M 73.00 69.88 C 73.89 68.96 74.78 68.05 75.67 67.14 C 77.44 69.13 79.21 71.12 80.99 73.10 C 79.27 75.08 77.55 77.07 75.83 79.05 C 73.84 77.06 71.85 75.07 69.86 73.09 C 70.56 72.37 71.25 71.66 71.95 70.95 C 72.21 70.68 72.74 70.15 73.00 69.88 Z" />
</svg>
