<?xml version="1.0" encoding="UTF-8" ?>
<!DOCTYPE svg PUBLIC "-//W3C//DTD SVG 1.1//EN" "http://www.w3.org/Graphics/SVG/1.1/DTD/svg11.dtd">
<svg width="100pt" height="100pt" viewBox="0 0 100 100" version="1.1" xmlns="http://www.w3.org/2000/svg">
<path fill="#ffffff" opacity="1.00" d=" M 42.46 12.61 C 60.89 8.25 81.23 20.57 86.41 38.72 C 91.83 54.17 84.96 72.48 71.51 81.49 C 62.04 87.83 49.67 90.30 38.76 86.42 C 20.06 81.13 7.61 59.74 12.97 40.94 C 16.23 26.82 28.25 15.35 42.46 12.61 M 15.45 48.81 C 16.66 49.30 17.90 49.68 19.12 50.15 C 19.38 52.12 17.05 52.39 15.80 53.25 C 15.44 57.87 17.41 62.38 19.44 66.43 C 25.58 78.08 38.73 85.59 51.91 84.64 C 68.36 84.12 83.76 69.86 84.21 53.24 C 82.96 52.38 80.59 52.14 80.89 50.16 C 82.10 49.68 83.34 49.30 84.55 48.80 C 84.67 30.74 68.02 14.79 50.00 15.31 C 31.98 14.79 15.32 30.74 15.45 48.81 Z" />
<path fill="#482b46" opacity="1.00" d=" M 15.45 48.81 C 15.32 30.74 31.98 14.79 50.00 15.31 C 68.02 14.79 84.67 30.74 84.55 48.80 C 83.34 49.30 82.10 49.68 80.89 50.16 C 80.59 52.14 82.96 52.38 84.21 53.24 C 83.76 69.86 68.36 84.12 51.91 84.64 C 38.73 85.59 25.58 78.08 19.44 66.43 C 17.41 62.38 15.44 57.87 15.80 53.25 C 17.05 52.39 19.38 52.12 19.12 50.15 C 17.90 49.68 16.66 49.30 15.45 48.81 M 35.14 71.57 C 32.37 67.73 28.88 64.24 27.47 59.60 C 25.45 53.18 25.47 46.04 27.72 39.69 C 29.22 35.36 32.52 32.08 35.13 28.43 C 18.26 36.00 18.25 64.02 35.14 71.57 M 64.87 28.43 C 67.64 32.27 71.12 35.77 72.54 40.41 C 74.50 46.58 74.48 53.42 72.53 59.60 C 71.12 64.24 67.62 67.73 64.86 71.57 C 81.75 64.02 81.74 36.00 64.87 28.43 M 32.55 41.58 C 30.66 42.88 29.70 45.01 28.88 47.07 C 36.17 44.16 41.61 36.77 50.00 36.86 C 58.39 36.76 63.83 44.16 71.12 47.07 C 69.73 42.12 64.90 39.70 60.97 37.02 C 56.90 34.32 51.85 33.12 47.01 33.90 C 41.45 34.70 36.92 38.32 32.55 41.58 M 48.45 43.49 C 43.88 44.19 41.25 50.12 44.22 53.82 C 47.34 58.39 55.47 57.17 56.81 51.69 C 58.33 46.87 53.13 42.23 48.45 43.49 M 28.88 53.48 C 29.76 55.35 30.75 57.27 32.53 58.44 C 37.69 62.21 43.26 66.47 50.00 66.30 C 56.74 66.47 62.30 62.21 67.47 58.44 C 69.25 57.27 70.24 55.35 71.12 53.48 C 63.39 55.31 58.38 63.42 50.00 63.14 C 41.62 63.42 36.61 55.31 28.88 53.48 Z" />
<path fill="#ffffff" opacity="1.00" d=" M 35.14 71.57 C 18.25 64.02 18.26 36.00 35.13 28.43 C 32.52 32.08 29.22 35.36 27.72 39.69 C 25.47 46.04 25.45 53.18 27.47 59.60 C 28.88 64.24 32.37 67.73 35.14 71.57 Z" />
<path fill="#ffffff" opacity="1.00" d=" M 64.87 28.43 C 81.74 36.00 81.75 64.02 64.86 71.57 C 67.62 67.73 71.12 64.24 72.53 59.60 C 74.48 53.42 74.50 46.58 72.54 40.41 C 71.12 35.77 67.64 32.27 64.87 28.43 Z" />
<path fill="#ffffff" opacity="1.00" d=" M 32.55 41.58 C 36.92 38.32 41.45 34.70 47.01 33.90 C 51.85 33.12 56.90 34.32 60.97 37.02 C 64.90 39.70 69.73 42.12 71.12 47.07 C 63.83 44.16 58.39 36.76 50.00 36.86 C 41.61 36.77 36.17 44.16 28.88 47.07 C 29.70 45.01 30.66 42.88 32.55 41.58 Z" />
<path fill="#ffffff" opacity="1.00" d=" M 48.45 43.49 C 53.13 42.23 58.33 46.87 56.81 51.69 C 55.47 57.17 47.34 58.39 44.22 53.82 C 41.25 50.12 43.88 44.19 48.45 43.49 Z" />
<path fill="#ffffff" opacity="1.00" d=" M 28.88 53.48 C 36.61 55.31 41.62 63.42 50.00 63.14 C 58.38 63.42 63.39 55.31 71.12 53.48 C 70.24 55.35 69.25 57.27 67.47 58.44 C 62.30 62.21 56.74 66.47 50.00 66.30 C 43.26 66.47 37.69 62.21 32.53 58.44 C 30.75 57.27 29.76 55.35 28.88 53.48 Z" />
</svg>
