<?xml version="1.0" encoding="UTF-8" ?>
<!DOCTYPE svg PUBLIC "-//W3C//DTD SVG 1.1//EN" "http://www.w3.org/Graphics/SVG/1.1/DTD/svg11.dtd">
<svg width="100pt" height="100pt" viewBox="0 0 100 100" version="1.1" xmlns="http://www.w3.org/2000/svg">
<path fill="#b8b8b8" opacity="1.00" d=" M 43.39 10.35 C 46.09 8.62 47.89 5.87 50.00 3.51 C 52.73 6.63 55.19 10.52 59.50 11.55 C 67.08 13.97 74.39 19.02 77.38 26.65 C 79.19 30.79 79.77 35.35 81.55 39.49 C 83.90 43.38 87.29 46.50 90.16 49.99 C 76.80 65.52 63.38 81.00 50.00 96.52 C 36.62 81.01 23.20 65.52 9.84 49.99 C 12.43 46.86 15.52 44.07 17.51 40.50 C 18.51 37.63 18.79 34.58 19.75 31.70 C 22.07 24.57 27.15 18.41 33.57 14.58 C 36.64 12.71 40.17 11.87 43.39 10.35 M 32.01 18.01 C 27.64 21.41 24.00 25.89 22.06 31.11 C 20.77 34.58 20.56 38.31 19.77 41.89 C 19.15 45.17 16.64 47.56 14.70 50.10 C 26.29 63.89 38.07 77.53 50.00 91.02 C 61.93 77.52 73.72 63.89 85.30 50.09 C 83.16 47.39 80.74 44.75 79.66 41.39 C 78.22 37.02 77.61 32.40 75.86 28.12 C 73.46 21.73 67.89 16.86 61.58 14.51 C 57.67 13.11 53.69 11.88 50.00 9.96 C 44.23 13.17 37.28 13.86 32.01 18.01 Z" />
<path fill="#e85a27" opacity="1.00" d=" M 32.01 18.01 C 37.28 13.86 44.23 13.17 50.00 9.96 C 53.69 11.88 57.67 13.11 61.58 14.51 C 67.89 16.86 73.46 21.73 75.86 28.12 C 77.61 32.40 78.22 37.02 79.66 41.39 C 80.74 44.75 83.16 47.39 85.30 50.09 C 73.72 63.89 61.93 77.52 50.00 91.02 C 38.07 77.53 26.29 63.89 14.70 50.10 C 16.64 47.56 19.15 45.17 19.77 41.89 C 20.56 38.31 20.77 34.58 22.06 31.11 C 24.00 25.89 27.64 21.41 32.01 18.01 M 33.67 20.83 C 36.28 21.11 39.19 22.14 41.66 20.75 C 43.72 19.41 44.92 17.17 46.28 15.19 C 41.65 15.90 37.11 17.54 33.67 20.83 M 53.72 15.19 C 55.08 17.17 56.27 19.41 58.34 20.75 C 60.81 22.13 63.71 21.11 66.32 20.83 C 62.89 17.53 58.35 15.90 53.72 15.19 M 42.85 26.21 C 39.12 27.05 35.51 25.16 32.04 24.05 C 33.13 27.75 35.43 31.78 33.85 35.65 C 31.69 39.11 27.54 40.42 24.10 42.24 C 27.74 43.93 32.51 45.09 34.16 49.18 C 35.03 52.92 33.09 56.56 32.06 60.08 C 33.79 59.46 35.52 58.84 37.25 58.22 C 37.47 59.30 37.70 60.38 37.91 61.46 C 36.16 62.03 34.41 62.60 32.66 63.18 C 34.54 64.62 36.61 65.87 38.20 67.66 C 39.09 70.10 39.30 72.73 39.80 75.27 C 41.48 68.44 42.17 61.30 41.54 54.29 C 40.33 51.14 37.46 48.89 36.45 45.62 C 35.24 41.50 35.41 36.63 38.09 33.09 C 40.90 29.41 45.52 27.36 50.10 27.20 C 57.77 27.04 64.26 35.25 62.48 42.70 C 61.49 46.87 58.89 50.58 58.70 54.95 C 58.39 62.09 58.07 69.33 59.67 76.36 C 60.11 73.41 60.64 70.46 61.68 67.67 C 63.29 65.85 65.45 64.63 67.37 63.17 C 65.56 62.59 63.74 62.03 61.92 61.48 C 62.19 60.38 62.45 59.28 62.69 58.17 C 64.43 58.81 66.18 59.45 67.92 60.08 C 66.91 56.56 64.97 52.92 65.84 49.18 C 67.50 45.09 72.26 43.93 75.90 42.24 C 72.46 40.42 68.31 39.11 66.15 35.65 C 64.57 31.78 66.87 27.75 67.96 24.05 C 64.49 25.16 60.88 27.05 57.15 26.21 C 53.20 24.56 51.90 20.02 50.00 16.56 C 48.10 20.02 46.80 24.56 42.85 26.21 M 23.17 38.30 C 25.34 36.78 28.14 35.52 29.02 32.81 C 29.57 30.44 29.03 28.00 28.85 25.63 C 25.59 29.11 23.85 33.63 23.17 38.30 M 71.16 25.62 C 70.97 28.00 70.43 30.44 70.98 32.81 C 71.86 35.51 74.66 36.78 76.82 38.31 C 76.12 33.65 74.41 29.12 71.16 25.62 M 43.25 45.65 C 45.18 47.96 48.26 50.16 47.74 53.56 C 47.14 62.54 45.77 71.46 45.29 80.44 C 44.77 84.04 48.00 86.38 50.00 88.87 C 51.84 86.46 55.03 84.34 54.75 80.94 C 54.39 71.78 52.81 62.71 52.26 53.56 C 51.74 50.16 54.82 47.96 56.74 45.65 C 54.65 42.21 52.42 38.86 50.00 35.66 C 47.57 38.86 45.34 42.22 43.25 45.65 M 23.18 45.72 C 23.82 50.41 25.49 55.00 28.86 58.42 C 29.04 56.04 29.59 53.58 28.99 51.22 C 27.99 48.61 25.31 47.28 23.18 45.72 M 71.01 51.22 C 70.41 53.58 70.96 56.04 71.14 58.42 C 74.51 54.99 76.18 50.41 76.82 45.72 C 74.69 47.28 72.00 48.60 71.01 51.22 Z" />
<path fill="#ffffff" opacity="1.00" d=" M 33.67 20.83 C 37.11 17.54 41.65 15.90 46.28 15.19 C 44.92 17.17 43.72 19.41 41.66 20.75 C 39.19 22.14 36.28 21.11 33.67 20.83 Z" />
<path fill="#ffffff" opacity="1.00" d=" M 53.72 15.19 C 58.35 15.90 62.89 17.53 66.32 20.83 C 63.71 21.11 60.81 22.13 58.34 20.75 C 56.27 19.41 55.08 17.17 53.72 15.19 Z" />
<path fill="#ffffff" opacity="1.00" d=" M 42.85 26.21 C 46.80 24.56 48.10 20.02 50.00 16.56 C 51.90 20.02 53.20 24.56 57.15 26.21 C 60.88 27.05 64.49 25.16 67.96 24.05 C 66.87 27.75 64.57 31.78 66.15 35.65 C 68.31 39.11 72.46 40.42 75.90 42.24 C 72.26 43.93 67.50 45.09 65.84 49.18 C 64.97 52.92 66.91 56.56 67.92 60.08 C 66.18 59.45 64.43 58.81 62.69 58.17 C 62.45 59.28 62.19 60.38 61.92 61.48 C 63.74 62.03 65.56 62.59 67.37 63.17 C 65.45 64.63 63.29 65.85 61.68 67.67 C 60.64 70.46 60.11 73.41 59.67 76.36 C 58.07 69.33 58.39 62.09 58.70 54.95 C 58.89 50.58 61.49 46.87 62.48 42.70 C 64.26 35.25 57.77 27.04 50.10 27.20 C 45.52 27.36 40.90 29.41 38.09 33.09 C 35.41 36.63 35.24 41.50 36.45 45.62 C 37.46 48.89 40.33 51.14 41.54 54.29 C 42.17 61.30 41.48 68.44 39.80 75.27 C 39.30 72.73 39.09 70.10 38.20 67.66 C 36.61 65.87 34.54 64.62 32.66 63.18 C 34.41 62.60 36.16 62.03 37.91 61.46 C 37.70 60.38 37.47 59.30 37.25 58.22 C 35.52 58.84 33.79 59.46 32.06 60.08 C 33.09 56.56 35.03 52.92 34.16 49.18 C 32.51 45.09 27.74 43.93 24.10 42.24 C 27.54 40.42 31.69 39.11 33.85 35.65 C 35.43 31.78 33.13 27.75 32.04 24.05 C 35.51 25.16 39.12 27.05 42.85 26.21 Z" />
<path fill="#ffffff" opacity="1.00" d=" M 23.17 38.30 C 23.85 33.63 25.59 29.11 28.85 25.63 C 29.03 28.00 29.57 30.44 29.02 32.81 C 28.14 35.52 25.34 36.78 23.17 38.30 Z" />
<path fill="#ffffff" opacity="1.00" d=" M 71.16 25.62 C 74.41 29.12 76.12 33.65 76.82 38.31 C 74.66 36.78 71.86 35.51 70.98 32.81 C 70.43 30.44 70.97 28.00 71.16 25.62 Z" />
<path fill="#ffffff" opacity="1.00" d=" M 43.25 45.65 C 45.34 42.22 47.57 38.86 50.00 35.66 C 52.42 38.86 54.65 42.21 56.74 45.65 C 54.82 47.96 51.74 50.16 52.26 53.56 C 52.81 62.71 54.39 71.78 54.75 80.94 C 55.03 84.34 51.84 86.46 50.00 88.87 C 48.00 86.38 44.77 84.04 45.29 80.44 C 45.77 71.46 47.14 62.54 47.74 53.56 C 48.26 50.16 45.18 47.96 43.25 45.65 Z" />
<path fill="#ffffff" opacity="1.00" d=" M 23.18 45.72 C 25.31 47.28 27.99 48.61 28.99 51.22 C 29.59 53.58 29.04 56.04 28.86 58.42 C 25.49 55.00 23.82 50.41 23.18 45.72 Z" />
<path fill="#ffffff" opacity="1.00" d=" M 71.01 51.22 C 72.00 48.60 74.69 47.28 76.82 45.72 C 76.18 50.41 74.51 54.99 71.14 58.42 C 70.96 56.04 70.41 53.58 71.01 51.22 Z" />
</svg>
