<?xml version="1.0" encoding="UTF-8" ?>
<!DOCTYPE svg PUBLIC "-//W3C//DTD SVG 1.1//EN" "http://www.w3.org/Graphics/SVG/1.1/DTD/svg11.dtd">
<svg width="100pt" height="100pt" viewBox="0 0 100 100" version="1.1" xmlns="http://www.w3.org/2000/svg">
<path fill="#bab9b9" opacity="1.00" d=" M 37.69 33.68 C 42.50 30.02 46.24 25.33 49.42 20.23 C 52.22 23.80 54.44 28.00 58.26 30.63 C 60.42 32.11 62.13 34.11 64.12 35.78 C 67.29 37.58 71.88 37.58 73.65 41.31 C 77.22 46.68 72.95 53.87 77.11 58.88 C 82.11 65.81 87.11 72.74 92.04 79.73 C 84.66 79.78 77.28 79.62 69.90 79.71 C 66.01 79.40 63.39 82.74 59.98 83.97 C 56.75 85.11 53.39 86.07 49.97 86.41 C 46.05 86.15 42.27 84.78 38.64 83.37 C 35.44 82.12 32.68 79.49 29.08 79.53 C 22.01 79.34 14.93 79.60 7.85 79.48 C 13.19 71.69 18.95 64.16 24.02 56.20 C 25.26 51.29 22.95 45.58 26.05 41.03 C 28.54 36.63 34.80 37.69 37.69 33.68 M 30.11 40.34 C 24.88 42.83 26.63 49.59 26.78 54.20 C 27.45 57.69 25.10 60.57 23.20 63.20 C 19.92 67.55 16.80 72.03 13.91 76.65 C 18.97 76.70 24.03 76.37 29.09 76.65 C 32.85 76.69 35.65 79.48 38.82 81.11 C 45.75 85.00 54.95 85.16 61.63 80.62 C 64.21 78.99 66.65 76.62 69.92 76.65 C 75.32 76.36 80.73 76.73 86.14 76.64 C 82.64 70.97 78.45 65.79 74.58 60.38 C 70.21 54.95 75.70 47.17 71.41 41.66 C 68.70 39.39 65.04 38.75 62.16 36.73 C 57.71 33.53 53.24 30.28 49.56 26.18 C 43.95 31.96 37.77 37.50 30.11 40.34 Z" />
<path fill="#217a7a" opacity="1.00" d=" M 30.11 40.34 C 37.77 37.50 43.95 31.96 49.56 26.18 C 53.24 30.28 57.71 33.53 62.16 36.73 C 65.04 38.75 68.70 39.39 71.41 41.66 C 75.70 47.17 70.21 54.95 74.58 60.38 C 78.45 65.79 82.64 70.97 86.14 76.64 C 80.73 76.73 75.32 76.36 69.92 76.65 C 66.65 76.62 64.21 78.99 61.63 80.62 C 54.95 85.16 45.75 85.00 38.82 81.11 C 35.65 79.48 32.85 76.69 29.09 76.65 C 24.03 76.37 18.97 76.70 13.91 76.65 C 16.80 72.03 19.92 67.55 23.20 63.20 C 25.10 60.57 27.45 57.69 26.78 54.20 C 26.63 49.59 24.88 42.83 30.11 40.34 M 38.01 39.92 C 35.58 41.41 32.63 41.75 30.15 43.15 C 28.10 46.21 28.41 50.26 29.22 53.69 C 30.21 57.59 33.73 59.99 35.61 63.38 C 36.97 67.97 36.50 72.86 36.58 77.59 C 41.27 79.59 46.20 81.99 51.44 81.48 C 55.19 80.83 59.58 80.30 62.20 77.23 C 63.91 72.90 62.81 68.06 63.84 63.59 C 65.49 60.17 69.07 57.95 70.16 54.19 C 71.08 50.74 71.39 46.72 69.61 43.49 C 67.04 41.41 63.25 41.54 60.73 39.30 C 58.90 37.86 57.58 35.66 55.35 34.78 C 52.05 33.96 48.57 34.03 45.22 34.52 C 41.97 34.90 40.52 38.26 38.01 39.92 Z" />
<path fill="#ffffff" opacity="1.00" d=" M 38.01 39.92 C 40.52 38.26 41.97 34.90 45.22 34.52 C 48.57 34.03 52.05 33.96 55.35 34.78 C 57.58 35.66 58.90 37.86 60.73 39.30 C 63.25 41.54 67.04 41.41 69.61 43.49 C 71.39 46.72 71.08 50.74 70.16 54.19 C 69.07 57.95 65.49 60.17 63.84 63.59 C 62.81 68.06 63.91 72.90 62.20 77.23 C 59.58 80.30 55.19 80.83 51.44 81.48 C 46.20 81.99 41.27 79.59 36.58 77.59 C 36.50 72.86 36.97 67.97 35.61 63.38 C 33.73 59.99 30.21 57.59 29.22 53.69 C 28.41 50.26 28.10 46.21 30.15 43.15 C 32.63 41.75 35.58 41.41 38.01 39.92 M 44.03 36.87 C 45.55 38.87 47.08 41.74 49.99 41.63 C 52.62 41.35 54.09 38.81 55.68 37.02 C 51.82 36.50 47.91 36.48 44.03 36.87 M 66.31 43.47 C 65.81 46.04 65.45 48.64 65.18 51.24 C 65.98 51.38 67.58 51.65 68.38 51.78 C 67.86 48.97 67.22 46.18 66.31 43.47 M 31.88 52.76 C 34.51 50.21 34.50 46.79 33.06 43.61 C 31.87 46.52 31.50 49.64 31.88 52.76 M 57.00 49.01 C 54.92 51.28 53.30 53.94 51.10 56.10 C 47.70 59.81 42.43 60.52 38.38 63.27 C 42.13 64.52 44.79 67.27 45.95 71.05 C 47.62 68.71 48.90 66.13 49.87 63.42 C 51.53 58.90 55.80 56.26 59.39 53.39 C 61.52 51.93 61.70 49.12 62.49 46.88 C 60.66 47.54 58.54 47.75 57.00 49.01 Z" />
<path fill="#227a7a" opacity="1.00" d=" M 44.03 36.87 C 47.91 36.48 51.82 36.50 55.68 37.02 C 54.09 38.81 52.62 41.35 49.99 41.63 C 47.08 41.74 45.55 38.87 44.03 36.87 Z" />
<path fill="#006161" opacity="1.00" d=" M 66.31 43.47 C 67.22 46.18 67.86 48.97 68.38 51.78 C 67.58 51.65 65.98 51.38 65.18 51.24 C 65.45 48.64 65.81 46.04 66.31 43.47 Z" />
<path fill="#177070" opacity="1.00" d=" M 31.88 52.76 C 31.50 49.64 31.87 46.52 33.06 43.61 C 34.50 46.79 34.51 50.21 31.88 52.76 Z" />
<path fill="#207979" opacity="1.00" d=" M 57.00 49.01 C 58.54 47.75 60.66 47.54 62.49 46.88 C 61.70 49.12 61.52 51.93 59.39 53.39 C 55.80 56.26 51.53 58.90 49.87 63.42 C 48.90 66.13 47.62 68.71 45.95 71.05 C 44.79 67.27 42.13 64.52 38.38 63.27 C 42.43 60.52 47.70 59.81 51.10 56.10 C 53.30 53.94 54.92 51.28 57.00 49.01 Z" />
</svg>
