<?xml version="1.0" encoding="UTF-8" ?>
<!DOCTYPE svg PUBLIC "-//W3C//DTD SVG 1.1//EN" "http://www.w3.org/Graphics/SVG/1.1/DTD/svg11.dtd">
<svg width="100pt" height="100pt" viewBox="0 0 100 100" version="1.1" xmlns="http://www.w3.org/2000/svg">
<path fill="#b8b8b8" opacity="1.00" d=" M 13.25 48.98 C 25.38 34.97 37.54 20.97 49.88 7.14 C 54.83 12.56 59.55 18.17 64.42 23.66 C 66.16 22.47 67.72 20.39 70.00 20.44 C 73.20 21.58 75.46 24.76 79.03 24.94 C 82.34 25.22 85.96 26.27 87.45 29.57 C 89.11 33.36 90.28 37.55 90.43 41.68 C 88.51 45.77 85.78 49.46 83.00 53.01 C 71.96 65.64 60.91 78.26 49.86 90.89 C 47.77 88.51 45.69 86.13 43.62 83.73 C 40.98 85.99 38.85 89.03 35.67 90.54 C 31.58 90.85 26.42 92.11 23.23 88.77 C 20.45 86.20 17.56 83.10 17.61 79.04 C 16.63 72.11 19.83 65.69 21.12 59.05 C 19.59 55.10 15.79 52.36 13.25 48.98 M 18.73 48.93 C 20.62 51.23 22.51 53.53 24.36 55.87 C 21.54 62.19 20.26 69.12 20.17 76.03 C 20.15 79.25 20.35 82.80 22.60 85.34 C 25.24 89.03 30.41 89.23 34.46 88.45 C 38.54 86.01 41.18 81.84 44.12 78.21 C 46.03 80.33 47.96 82.44 49.92 84.52 C 58.46 75.18 66.56 65.43 75.04 56.04 C 78.15 52.78 80.07 48.46 83.84 45.85 C 85.34 44.52 87.62 43.30 87.51 40.98 C 87.30 37.08 86.77 32.86 84.43 29.60 C 82.49 27.02 78.98 28.26 76.26 28.28 C 73.87 25.97 71.22 23.88 68.09 22.66 C 67.67 25.85 67.56 29.07 67.42 32.28 C 60.71 26.85 56.00 19.47 49.90 13.42 C 39.25 25.02 28.99 36.98 18.73 48.93 Z" />
<path fill="#b61c2e" opacity="1.00" d=" M 18.73 48.93 C 28.99 36.98 39.25 25.02 49.90 13.42 C 56.00 19.47 60.71 26.85 67.42 32.28 C 67.56 29.07 67.67 25.85 68.09 22.66 C 71.22 23.88 73.87 25.97 76.26 28.28 C 78.98 28.26 82.49 27.02 84.43 29.60 C 86.77 32.86 87.30 37.08 87.51 40.98 C 87.62 43.30 85.34 44.52 83.84 45.85 C 80.07 48.46 78.15 52.78 75.04 56.04 C 66.56 65.43 58.46 75.18 49.92 84.52 C 47.96 82.44 46.03 80.33 44.12 78.21 C 41.18 81.84 38.54 86.01 34.46 88.45 C 30.41 89.23 25.24 89.03 22.60 85.34 C 20.35 82.80 20.15 79.25 20.17 76.03 C 20.26 69.12 21.54 62.19 24.36 55.87 C 22.51 53.53 20.62 51.23 18.73 48.93 M 69.73 25.55 C 69.76 27.97 69.87 30.40 69.95 32.82 C 66.90 33.95 63.85 35.10 60.88 36.43 C 63.34 37.94 66.08 38.82 68.99 38.63 C 67.07 39.30 65.19 40.03 63.30 40.76 C 62.09 37.23 58.21 37.33 55.18 38.19 C 53.61 40.64 57.29 41.51 58.65 42.96 C 57.45 45.37 56.32 47.82 55.35 50.35 C 62.98 47.85 70.43 44.83 77.97 42.08 C 76.79 38.62 75.94 35.06 75.22 31.47 C 74.34 33.50 73.52 35.54 72.61 37.55 C 73.06 34.86 74.06 32.17 73.76 29.41 C 72.57 27.97 71.10 26.80 69.73 25.55 M 78.26 29.45 C 79.31 31.31 80.55 33.09 81.31 35.10 C 81.50 37.37 80.83 39.60 80.54 41.83 C 84.88 40.76 85.85 35.71 83.78 32.20 C 82.87 29.97 80.24 30.00 78.26 29.45 M 46.21 32.28 C 45.68 33.91 46.22 34.47 47.85 33.95 C 48.38 32.32 47.84 31.76 46.21 32.28 M 37.93 32.89 C 38.96 34.61 40.31 36.12 41.90 37.35 C 40.84 35.65 39.50 34.13 37.93 32.89 M 50.42 35.08 C 49.91 37.23 49.29 39.36 48.32 41.35 C 46.96 43.90 47.37 46.88 46.60 49.58 C 43.57 52.22 39.36 52.80 36.18 55.20 C 34.48 56.63 33.80 58.83 32.84 60.76 C 35.83 61.91 38.73 63.60 41.96 63.90 C 44.92 63.46 47.55 61.90 50.37 60.99 C 47.45 63.93 43.48 65.28 39.88 67.13 C 44.47 66.73 49.78 65.26 51.99 60.80 C 52.04 58.36 50.85 56.13 50.08 53.87 C 51.09 53.27 52.08 52.67 53.08 52.06 C 53.24 53.38 53.39 54.70 53.53 56.02 C 63.38 50.42 74.82 48.27 84.71 42.81 C 79.00 43.24 73.74 45.59 68.38 47.38 C 63.67 48.88 59.25 51.57 54.19 51.68 C 54.62 48.93 55.63 46.32 56.93 43.86 C 54.19 41.39 51.94 38.44 50.42 35.08 M 44.51 36.28 C 42.80 39.50 41.08 42.98 37.61 44.62 C 30.10 48.76 24.97 56.43 23.52 64.83 C 22.84 69.02 20.82 74.19 24.33 77.68 C 25.55 79.74 28.32 79.25 29.72 77.68 C 33.36 74.55 32.69 69.34 32.98 65.06 C 32.00 64.07 31.05 63.06 30.06 62.07 C 31.07 58.87 32.43 55.76 34.50 53.09 C 34.00 51.87 33.49 50.65 32.99 49.43 C 35.35 50.40 37.73 52.55 40.41 51.53 C 42.09 50.99 43.80 50.13 44.80 48.63 C 45.27 46.23 44.18 43.86 43.67 41.54 C 44.72 40.55 45.77 39.56 46.81 38.56 C 46.06 37.79 45.29 37.03 44.51 36.28 M 36.24 38.22 C 35.72 39.84 36.28 40.39 37.92 39.87 C 38.44 38.25 37.88 37.70 36.24 38.22 M 35.01 66.51 C 34.20 70.56 36.20 74.11 38.50 77.24 C 36.40 79.97 34.11 82.86 30.80 84.15 C 26.76 84.43 24.54 80.35 21.73 78.14 C 22.45 80.33 23.01 82.69 24.55 84.48 C 26.60 87.26 30.52 86.86 33.54 86.52 C 36.21 84.95 38.27 82.53 40.24 80.17 C 40.90 79.20 42.02 78.08 41.27 76.84 C 39.42 73.27 37.06 69.98 35.01 66.51 Z" />
<path fill="#ffffff" opacity="1.00" d=" M 69.73 25.55 C 71.10 26.80 72.57 27.97 73.76 29.41 C 74.06 32.17 73.06 34.86 72.61 37.55 C 73.52 35.54 74.34 33.50 75.22 31.47 C 75.94 35.06 76.79 38.62 77.97 42.08 C 70.43 44.83 62.98 47.85 55.35 50.35 C 56.32 47.82 57.45 45.37 58.65 42.96 C 57.29 41.51 53.61 40.64 55.18 38.19 C 58.21 37.33 62.09 37.23 63.30 40.76 C 65.19 40.03 67.07 39.30 68.99 38.63 C 66.08 38.82 63.34 37.94 60.88 36.43 C 63.85 35.10 66.90 33.95 69.95 32.82 C 69.87 30.40 69.76 27.97 69.73 25.55 Z" />
<path fill="#ffffff" opacity="1.00" d=" M 78.26 29.45 C 80.24 30.00 82.87 29.97 83.78 32.20 C 85.85 35.71 84.88 40.76 80.54 41.83 C 80.83 39.60 81.50 37.37 81.31 35.10 C 80.55 33.09 79.31 31.31 78.26 29.45 Z" />
<path fill="#e5adb4" opacity="1.00" d=" M 46.21 32.28 C 47.84 31.76 48.38 32.32 47.85 33.95 C 46.22 34.47 45.68 33.91 46.21 32.28 Z" />
<path fill="#ffffff" opacity="1.00" d=" M 37.93 32.89 C 39.50 34.13 40.84 35.65 41.90 37.35 C 40.31 36.12 38.96 34.61 37.93 32.89 Z" />
<path fill="#ffffff" opacity="1.00" d=" M 50.42 35.08 C 51.94 38.44 54.19 41.39 56.93 43.86 C 55.63 46.32 54.62 48.93 54.19 51.68 C 59.25 51.57 63.67 48.88 68.38 47.38 C 73.74 45.59 79.00 43.24 84.71 42.81 C 74.82 48.27 63.38 50.42 53.53 56.02 C 53.39 54.70 53.24 53.38 53.08 52.06 C 52.08 52.67 51.09 53.27 50.08 53.87 C 50.85 56.13 52.04 58.36 51.99 60.80 C 49.78 65.26 44.47 66.73 39.88 67.13 C 43.48 65.28 47.45 63.93 50.37 60.99 C 47.55 61.90 44.92 63.46 41.96 63.90 C 38.73 63.60 35.83 61.91 32.84 60.76 C 33.80 58.83 34.48 56.63 36.18 55.20 C 39.36 52.80 43.57 52.22 46.60 49.58 C 47.37 46.88 46.96 43.90 48.32 41.35 C 49.29 39.36 49.91 37.23 50.42 35.08 M 44.33 52.52 C 44.07 54.79 43.85 57.07 43.66 59.35 C 42.62 58.27 41.59 57.18 40.58 56.08 C 39.95 57.01 39.34 57.94 38.74 58.89 C 40.04 60.02 40.98 62.19 42.99 62.00 C 46.70 61.82 48.76 57.87 48.53 54.51 C 47.21 53.69 45.76 53.12 44.33 52.52 Z" />
<path fill="#ffffff" opacity="1.00" d=" M 44.51 36.28 C 45.29 37.03 46.06 37.79 46.81 38.56 C 45.77 39.56 44.72 40.55 43.67 41.54 C 44.18 43.86 45.27 46.23 44.80 48.63 C 43.80 50.13 42.09 50.99 40.41 51.53 C 37.73 52.55 35.35 50.40 32.99 49.43 C 33.49 50.65 34.00 51.87 34.50 53.09 C 32.43 55.76 31.07 58.87 30.06 62.07 C 31.05 63.06 32.00 64.07 32.98 65.06 C 32.69 69.34 33.36 74.55 29.72 77.68 C 28.32 79.25 25.55 79.74 24.33 77.68 C 20.82 74.19 22.84 69.02 23.52 64.83 C 24.97 56.43 30.10 48.76 37.61 44.62 C 41.08 42.98 42.80 39.50 44.51 36.28 Z" />
<path fill="#ecc3c8" opacity="1.00" d=" M 36.24 38.22 C 37.88 37.70 38.44 38.25 37.92 39.87 C 36.28 40.39 35.72 39.84 36.24 38.22 Z" />
<path fill="#b21023" opacity="1.00" d=" M 44.33 52.52 C 45.76 53.12 47.21 53.69 48.53 54.51 C 48.76 57.87 46.70 61.82 42.99 62.00 C 40.98 62.19 40.04 60.02 38.74 58.89 C 39.34 57.94 39.95 57.01 40.58 56.08 C 41.59 57.18 42.62 58.27 43.66 59.35 C 43.85 57.07 44.07 54.79 44.33 52.52 Z" />
<path fill="#ffffff" opacity="1.00" d=" M 35.01 66.51 C 37.06 69.98 39.42 73.27 41.27 76.84 C 42.02 78.08 40.90 79.20 40.24 80.17 C 38.27 82.53 36.21 84.95 33.54 86.52 C 30.52 86.86 26.60 87.26 24.55 84.48 C 23.01 82.69 22.45 80.33 21.73 78.14 C 24.54 80.35 26.76 84.43 30.80 84.15 C 34.11 82.86 36.40 79.97 38.50 77.24 C 36.20 74.11 34.20 70.56 35.01 66.51 Z" />
</svg>
