<?xml version="1.0" encoding="UTF-8" ?>
<!DOCTYPE svg PUBLIC "-//W3C//DTD SVG 1.1//EN" "http://www.w3.org/Graphics/SVG/1.1/DTD/svg11.dtd">
<svg width="100pt" height="100pt" viewBox="0 0 100 100" version="1.1" xmlns="http://www.w3.org/2000/svg">
<path fill="#b8bbba" opacity="1.00" d=" M 74.66 5.57 C 77.40 4.16 79.66 6.92 81.86 8.14 C 84.86 10.57 89.46 8.98 92.25 11.80 C 96.43 15.97 96.53 22.72 95.03 28.07 C 92.79 34.84 83.49 32.47 79.92 37.93 C 70.13 51.82 60.45 65.80 50.65 79.68 C 48.97 77.56 47.34 75.40 45.71 73.23 C 41.27 73.80 36.67 73.97 32.30 72.88 C 29.92 71.27 27.98 68.99 26.62 66.47 C 25.03 62.14 25.72 57.41 26.12 52.93 C 26.28 50.17 27.40 47.00 25.37 44.65 C 19.62 36.49 13.68 28.46 7.98 20.27 C 15.67 20.24 23.36 20.35 31.05 20.30 C 35.00 20.36 38.66 18.77 42.40 17.76 C 42.49 15.67 42.62 13.58 42.77 11.49 C 45.18 12.31 47.49 13.62 50.06 13.87 C 53.17 13.72 56.11 12.61 59.12 11.91 C 59.86 13.95 60.32 17.10 62.96 17.41 C 65.97 16.86 68.70 15.39 71.58 14.39 C 72.05 11.39 71.26 7.07 74.66 5.57 M 74.36 7.54 C 74.23 10.09 74.09 12.64 73.92 15.20 C 69.92 16.87 65.97 19.92 61.44 19.39 C 59.45 17.91 57.82 15.99 55.85 14.48 C 53.86 15.13 52.21 16.45 50.51 17.62 C 48.51 16.38 46.51 15.15 44.49 13.95 C 44.44 15.74 44.39 17.52 44.38 19.31 C 41.32 21.41 37.94 23.65 34.06 23.45 C 27.33 23.42 20.59 23.24 13.86 23.39 C 17.71 29.38 21.98 35.07 26.24 40.76 C 27.44 42.60 29.20 44.48 28.83 46.85 C 28.47 52.23 27.06 57.60 27.83 63.01 C 28.27 66.22 30.35 69.05 32.98 70.86 C 37.31 72.76 42.42 71.84 46.20 69.11 C 47.74 70.84 49.25 72.59 50.75 74.35 C 57.31 65.33 63.47 56.04 69.92 46.96 C 72.61 43.28 74.74 39.18 77.80 35.79 C 81.85 32.17 87.99 32.52 92.16 29.15 C 94.78 24.99 94.35 19.15 92.22 14.85 C 90.50 11.21 86.07 12.57 82.95 11.53 C 80.67 10.51 78.91 8.65 77.01 7.09 C 76.34 7.20 75.02 7.42 74.36 7.54 Z" />
<path fill="#c40f24" opacity="1.00" d=" M 74.36 7.54 C 75.02 7.42 76.34 7.20 77.01 7.09 C 78.91 8.65 80.67 10.51 82.95 11.53 C 86.07 12.57 90.50 11.21 92.22 14.85 C 94.35 19.15 94.78 24.99 92.16 29.15 C 87.99 32.52 81.85 32.17 77.80 35.79 C 74.74 39.18 72.61 43.28 69.92 46.96 C 63.47 56.04 57.31 65.33 50.75 74.35 C 49.25 72.59 47.74 70.84 46.20 69.11 C 42.42 71.84 37.31 72.76 32.98 70.86 C 30.35 69.05 28.27 66.22 27.83 63.01 C 27.06 57.60 28.47 52.23 28.83 46.85 C 29.20 44.48 27.44 42.60 26.24 40.76 C 21.98 35.07 17.71 29.38 13.86 23.39 C 20.59 23.24 27.33 23.42 34.06 23.45 C 37.94 23.65 41.32 21.41 44.38 19.31 C 44.39 17.52 44.44 15.74 44.49 13.95 C 46.51 15.15 48.51 16.38 50.51 17.62 C 52.21 16.45 53.86 15.13 55.85 14.48 C 57.82 15.99 59.45 17.91 61.44 19.39 C 65.97 19.92 69.92 16.87 73.92 15.20 C 74.09 12.64 74.23 10.09 74.36 7.54 M 76.30 9.73 C 76.48 12.17 76.71 14.61 76.96 17.05 C 74.23 18.07 71.51 19.10 68.78 20.13 C 70.06 21.37 71.33 22.61 72.61 23.85 C 72.23 24.03 71.84 24.21 71.46 24.39 C 69.99 23.43 68.57 22.32 66.87 21.79 C 64.76 21.62 62.89 22.82 61.01 23.58 C 62.58 24.64 64.15 25.71 65.75 26.73 C 64.58 29.21 63.44 31.70 62.43 34.25 C 69.94 31.63 77.32 28.63 84.85 26.07 C 83.59 23.00 82.65 19.82 81.83 16.61 C 81.01 18.50 80.22 20.40 79.36 22.27 C 79.86 19.60 80.73 16.95 80.72 14.20 C 79.46 12.52 77.83 11.16 76.30 9.73 M 85.14 13.64 C 86.15 15.76 87.45 17.79 88.08 20.07 C 87.95 22.05 87.28 23.93 86.80 25.83 C 88.90 24.89 91.57 23.74 91.30 20.95 C 91.79 17.07 88.88 14.02 85.14 13.64 M 54.08 16.56 C 53.14 17.70 53.39 18.33 54.85 18.45 C 55.79 17.31 55.53 16.68 54.08 16.56 M 46.29 17.70 C 45.15 18.57 46.62 20.52 47.77 19.64 C 48.91 18.77 47.43 16.82 46.29 17.70 M 57.66 19.05 C 57.00 23.85 53.13 27.85 54.59 32.93 C 51.87 34.71 48.96 36.21 45.84 37.14 C 48.02 35.54 50.44 34.25 52.40 32.37 C 52.66 30.27 51.88 28.21 51.83 26.11 C 52.30 24.69 53.12 23.42 53.82 22.10 C 53.38 21.74 52.51 21.01 52.07 20.64 C 50.41 23.34 48.96 26.41 46.05 28.01 C 40.91 31.04 36.21 35.17 33.79 40.75 C 31.67 45.78 30.43 51.25 30.32 56.71 C 30.79 59.05 32.76 62.58 35.64 61.62 C 38.49 60.61 40.07 57.60 40.47 54.75 C 41.52 49.58 37.73 44.08 41.38 39.38 C 41.39 41.19 41.36 42.99 41.32 44.79 C 43.91 45.54 46.42 46.60 49.08 47.08 C 52.10 46.95 54.78 45.28 57.62 44.42 C 54.76 47.00 51.24 48.58 47.83 50.26 C 51.99 49.76 56.60 48.54 59.01 44.78 C 59.55 42.14 58.17 39.53 57.68 36.97 C 58.57 36.62 59.47 36.28 60.37 35.93 C 60.52 37.21 60.67 38.48 60.83 39.76 C 70.49 33.90 81.98 32.02 91.81 26.53 C 82.70 27.82 74.28 31.82 65.64 34.76 C 64.28 35.36 62.84 34.97 61.50 34.52 C 61.51 32.08 62.97 30.02 64.04 27.92 C 61.41 25.35 59.26 22.35 57.66 19.05 M 43.38 22.20 C 42.24 23.64 44.70 25.40 45.70 23.86 C 46.84 22.43 44.38 20.66 43.38 22.20 M 42.85 48.75 C 41.77 52.89 43.78 56.46 45.72 59.93 C 44.57 63.07 41.66 65.34 38.70 66.69 C 34.81 67.03 32.52 63.09 29.69 61.08 C 30.78 64.61 32.59 69.20 37.02 69.14 C 41.58 70.41 44.76 66.43 47.39 63.41 C 48.24 62.26 49.68 60.83 48.62 59.35 C 46.62 55.86 44.42 52.47 42.85 48.75 Z" />
<path fill="#ffffff" opacity="1.00" d=" M 76.30 9.73 C 77.83 11.16 79.46 12.52 80.72 14.20 C 80.73 16.95 79.86 19.60 79.36 22.27 C 80.22 20.40 81.01 18.50 81.83 16.61 C 82.65 19.82 83.59 23.00 84.85 26.07 C 77.32 28.63 69.94 31.63 62.43 34.25 C 63.44 31.70 64.58 29.21 65.75 26.73 C 64.15 25.71 62.58 24.64 61.01 23.58 C 62.89 22.82 64.76 21.62 66.87 21.79 C 68.57 22.32 69.99 23.43 71.46 24.39 C 71.84 24.21 72.23 24.03 72.61 23.85 C 71.33 22.61 70.06 21.37 68.78 20.13 C 71.51 19.10 74.23 18.07 76.96 17.05 C 76.71 14.61 76.48 12.17 76.30 9.73 Z" />
<path fill="#ffffff" opacity="1.00" d=" M 85.14 13.64 C 88.88 14.02 91.79 17.07 91.30 20.95 C 91.57 23.74 88.90 24.89 86.80 25.83 C 87.28 23.93 87.95 22.05 88.08 20.07 C 87.45 17.79 86.15 15.76 85.14 13.64 Z" />
<path fill="#ffffff" opacity="1.00" d=" M 54.08 16.56 C 55.53 16.68 55.79 17.31 54.85 18.45 C 53.39 18.33 53.14 17.70 54.08 16.56 Z" />
<path fill="#ffffff" opacity="1.00" d=" M 46.29 17.70 C 47.43 16.82 48.91 18.77 47.77 19.64 C 46.62 20.52 45.15 18.57 46.29 17.70 Z" />
<path fill="#ffffff" opacity="1.00" d=" M 57.66 19.05 C 59.26 22.35 61.41 25.35 64.04 27.92 C 62.97 30.02 61.51 32.08 61.50 34.52 C 62.84 34.97 64.28 35.36 65.64 34.76 C 74.28 31.82 82.70 27.82 91.81 26.53 C 81.98 32.02 70.49 33.90 60.83 39.76 C 60.67 38.48 60.52 37.21 60.37 35.93 C 59.47 36.28 58.57 36.62 57.68 36.97 C 58.17 39.53 59.55 42.14 59.01 44.78 C 56.60 48.54 51.99 49.76 47.83 50.26 C 51.24 48.58 54.76 47.00 57.62 44.42 C 54.78 45.28 52.10 46.95 49.08 47.08 C 46.42 46.60 43.91 45.54 41.32 44.79 C 41.36 42.99 41.39 41.19 41.38 39.38 C 37.73 44.08 41.52 49.58 40.47 54.75 C 40.07 57.60 38.49 60.61 35.64 61.62 C 32.76 62.58 30.79 59.05 30.32 56.71 C 30.43 51.25 31.67 45.78 33.79 40.75 C 36.21 35.17 40.91 31.04 46.05 28.01 C 48.96 26.41 50.41 23.34 52.07 20.64 C 52.51 21.01 53.38 21.74 53.82 22.10 C 53.12 23.42 52.30 24.69 51.83 26.11 C 51.88 28.21 52.66 30.27 52.40 32.37 C 50.44 34.25 48.02 35.54 45.84 37.14 C 48.96 36.21 51.87 34.71 54.59 32.93 C 53.13 27.85 57.00 23.85 57.66 19.05 M 43.24 31.20 C 42.27 31.44 40.93 32.56 41.57 33.65 C 43.25 35.08 46.16 30.92 43.24 31.20 M 51.29 37.31 C 51.41 39.16 51.52 41.01 51.64 42.86 C 49.99 41.85 48.36 40.78 46.72 39.75 C 47.24 41.70 47.28 44.12 49.14 45.37 C 54.20 46.31 57.83 39.63 54.13 35.97 C 53.18 36.42 52.24 36.86 51.29 37.31 Z" />
<path fill="#ffffff" opacity="1.00" d=" M 43.38 22.20 C 44.38 20.66 46.84 22.43 45.70 23.86 C 44.70 25.40 42.24 23.64 43.38 22.20 Z" />
<path fill="#c40f24" opacity="1.00" d=" M 43.24 31.20 C 46.16 30.92 43.25 35.08 41.57 33.65 C 40.93 32.56 42.27 31.44 43.24 31.20 Z" />
<path fill="#c3081f" opacity="1.00" d=" M 51.29 37.31 C 52.24 36.86 53.18 36.42 54.13 35.97 C 57.83 39.63 54.20 46.31 49.14 45.37 C 47.28 44.12 47.24 41.70 46.72 39.75 C 48.36 40.78 49.99 41.85 51.64 42.86 C 51.52 41.01 51.41 39.16 51.29 37.31 Z" />
<path fill="#ffffff" opacity="1.00" d=" M 42.85 48.75 C 44.42 52.47 46.62 55.86 48.62 59.35 C 49.68 60.83 48.24 62.26 47.39 63.41 C 44.76 66.43 41.58 70.41 37.02 69.14 C 32.59 69.20 30.78 64.61 29.69 61.08 C 32.52 63.09 34.81 67.03 38.70 66.69 C 41.66 65.34 44.57 63.07 45.72 59.93 C 43.78 56.46 41.77 52.89 42.85 48.75 Z" />
</svg>
