<?xml version="1.0" encoding="UTF-8" ?>
<!DOCTYPE svg PUBLIC "-//W3C//DTD SVG 1.1//EN" "http://www.w3.org/Graphics/SVG/1.1/DTD/svg11.dtd">
<svg width="100pt" height="100pt" viewBox="0 0 100 100" version="1.1" xmlns="http://www.w3.org/2000/svg">
<path fill="#b8b8b8" opacity="1.00" d=" M 13.14 48.99 C 25.41 35.02 37.62 20.99 49.87 7.00 C 54.63 12.59 59.61 17.99 64.29 23.65 C 66.08 22.48 67.68 20.44 69.97 20.44 C 73.12 21.69 75.53 24.59 79.06 24.89 C 82.59 25.23 86.43 26.59 87.78 30.21 C 89.10 33.85 90.44 37.77 90.36 41.67 C 86.80 49.48 80.64 55.65 75.08 62.06 C 66.70 71.71 58.20 81.25 49.87 90.95 C 47.76 88.52 45.66 86.07 43.56 83.62 C 41.01 85.99 38.88 89.07 35.64 90.54 C 31.56 90.88 26.41 92.09 23.22 88.77 C 20.09 86.04 17.26 82.44 17.53 78.04 C 16.72 71.19 20.38 64.97 21.06 58.32 C 18.84 54.88 15.85 52.04 13.14 48.99 M 18.68 48.91 C 20.57 51.19 22.46 53.48 24.33 55.78 C 21.66 62.18 20.19 69.09 20.14 76.03 C 20.12 79.50 20.49 83.33 23.07 85.91 C 24.82 88.05 27.64 88.72 30.27 88.82 C 36.98 89.58 40.39 82.51 44.17 78.23 C 46.07 80.36 47.99 82.48 49.92 84.59 C 60.20 72.83 70.73 61.29 80.59 49.17 C 82.73 46.57 85.96 44.77 87.43 41.70 C 87.64 37.76 86.87 33.60 84.84 30.18 C 83.10 27.18 79.22 28.25 76.36 28.07 C 73.69 26.11 70.99 24.18 68.19 22.40 C 67.78 25.72 67.56 29.05 67.30 32.38 C 60.92 26.57 55.78 19.60 49.88 13.33 C 39.31 25.04 29.02 37.00 18.68 48.91 Z" />
<path fill="#b61c2e" opacity="1.00" d=" M 18.68 48.91 C 29.02 37.00 39.31 25.04 49.88 13.33 C 55.78 19.60 60.92 26.57 67.30 32.38 C 67.56 29.05 67.78 25.72 68.19 22.40 C 70.99 24.18 73.69 26.11 76.36 28.07 C 79.22 28.25 83.10 27.18 84.84 30.18 C 86.87 33.60 87.64 37.76 87.43 41.70 C 85.96 44.77 82.73 46.57 80.59 49.17 C 70.73 61.29 60.20 72.83 49.92 84.59 C 47.99 82.48 46.07 80.36 44.17 78.23 C 40.39 82.51 36.98 89.58 30.27 88.82 C 27.64 88.72 24.82 88.05 23.07 85.91 C 20.49 83.33 20.12 79.50 20.14 76.03 C 20.19 69.09 21.66 62.18 24.33 55.78 C 22.46 53.48 20.57 51.19 18.68 48.91 M 69.68 25.33 C 69.73 27.82 69.88 30.31 70.00 32.81 C 66.88 33.96 63.77 35.14 60.74 36.52 C 63.39 37.55 66.11 38.44 68.93 38.89 C 67.16 39.39 65.43 39.99 63.67 40.52 C 62.24 39.41 61.05 37.41 59.01 37.71 C 57.28 37.83 54.82 37.55 54.52 39.82 C 55.81 40.92 57.21 41.89 58.59 42.88 C 57.43 45.37 56.30 47.89 55.27 50.44 C 62.89 47.81 70.38 44.81 77.99 42.13 C 76.75 38.64 75.90 35.02 75.24 31.37 C 74.41 33.47 73.57 35.56 72.71 37.64 C 73.04 35.63 73.48 33.64 73.69 31.62 C 74.37 28.73 71.20 27.25 69.68 25.33 M 78.44 29.05 C 79.40 31.06 80.51 33.01 81.21 35.13 C 81.57 37.49 80.96 39.86 80.81 42.21 C 81.98 41.21 83.02 40.06 84.22 39.09 C 85.34 36.48 84.74 33.19 82.94 31.03 C 81.42 30.40 79.94 29.71 78.44 29.05 M 46.22 32.29 C 45.68 33.92 46.23 34.48 47.85 33.97 C 48.39 32.33 47.84 31.78 46.22 32.29 M 37.90 32.89 C 39.15 34.45 40.49 35.94 41.89 37.36 C 40.69 35.76 39.36 34.26 37.90 32.89 M 50.46 35.17 C 48.87 39.59 47.40 44.07 46.74 48.75 C 45.16 51.73 41.39 52.16 38.69 53.71 C 35.58 54.91 34.12 58.06 32.63 60.79 C 35.70 61.89 38.68 63.53 41.97 63.85 C 44.96 63.39 47.66 61.93 50.55 61.10 C 47.30 63.68 43.47 65.33 39.85 67.32 C 44.32 66.56 49.81 65.39 51.88 60.83 C 51.76 58.60 50.85 56.50 50.75 54.28 C 51.22 53.21 52.06 52.39 52.76 51.48 C 53.04 53.02 53.27 54.56 53.52 56.10 C 63.40 50.41 74.86 48.19 84.87 42.77 C 74.06 43.79 64.68 50.19 54.02 51.77 C 54.90 49.12 55.80 46.47 56.78 43.85 C 54.20 41.33 52.13 38.36 50.46 35.17 M 44.60 36.29 C 43.04 38.76 41.90 41.69 39.39 43.38 C 36.08 45.67 32.53 47.76 29.94 50.92 C 24.90 56.74 23.09 64.55 22.37 72.03 C 21.98 74.97 23.91 78.69 26.99 79.17 C 33.75 76.78 34.82 66.53 30.16 61.68 C 31.21 58.59 32.66 55.64 34.59 53.01 C 34.00 51.84 33.39 50.69 32.78 49.53 C 34.79 50.37 36.72 51.54 38.90 51.83 C 41.22 51.61 43.38 50.36 44.93 48.64 C 44.91 46.19 44.24 43.81 43.68 41.44 C 44.75 40.51 45.82 39.58 46.89 38.65 C 46.14 37.85 45.38 37.06 44.60 36.29 M 36.25 38.23 C 35.73 39.85 36.28 40.40 37.92 39.88 C 38.45 38.26 37.89 37.71 36.25 38.23 M 34.87 66.48 C 34.83 70.32 36.35 73.76 37.90 77.17 C 37.06 80.54 33.73 82.72 30.78 84.15 C 26.78 84.27 24.43 80.34 21.53 78.20 C 22.79 81.04 23.67 84.67 26.70 86.14 C 29.49 86.78 33.03 87.49 35.32 85.30 C 37.70 83.19 40.07 80.89 41.56 78.04 C 40.19 73.77 37.09 70.32 34.87 66.48 Z" />
<path fill="#ffffff" opacity="1.00" d=" M 69.68 25.33 C 71.20 27.25 74.37 28.73 73.69 31.62 C 73.48 33.64 73.04 35.63 72.71 37.64 C 73.57 35.56 74.41 33.47 75.24 31.37 C 75.90 35.02 76.75 38.64 77.99 42.13 C 70.38 44.81 62.89 47.81 55.27 50.44 C 56.30 47.89 57.43 45.37 58.59 42.88 C 57.21 41.89 55.81 40.92 54.52 39.82 C 54.82 37.55 57.28 37.83 59.01 37.71 C 61.05 37.41 62.24 39.41 63.67 40.52 C 65.43 39.99 67.16 39.39 68.93 38.89 C 66.11 38.44 63.39 37.55 60.74 36.52 C 63.77 35.14 66.88 33.96 70.00 32.81 C 69.88 30.31 69.73 27.82 69.68 25.33 Z" />
<path fill="#ffffff" opacity="1.00" d=" M 78.44 29.05 C 79.94 29.71 81.42 30.40 82.94 31.03 C 84.74 33.19 85.34 36.48 84.22 39.09 C 83.02 40.06 81.98 41.21 80.81 42.21 C 80.96 39.86 81.57 37.49 81.21 35.13 C 80.51 33.01 79.40 31.06 78.44 29.05 Z" />
<path fill="#e5adb4" opacity="1.00" d=" M 46.22 32.29 C 47.84 31.78 48.39 32.33 47.85 33.97 C 46.23 34.48 45.68 33.92 46.22 32.29 Z" />
<path fill="#ffffff" opacity="1.00" d=" M 37.90 32.89 C 39.36 34.26 40.69 35.76 41.89 37.36 C 40.49 35.94 39.15 34.45 37.90 32.89 Z" />
<path fill="#ffffff" opacity="1.00" d=" M 50.46 35.17 C 52.13 38.36 54.20 41.33 56.78 43.85 C 55.80 46.47 54.90 49.12 54.02 51.77 C 64.68 50.19 74.06 43.79 84.87 42.77 C 74.86 48.19 63.40 50.41 53.52 56.10 C 53.27 54.56 53.04 53.02 52.76 51.48 C 52.06 52.39 51.22 53.21 50.75 54.28 C 50.85 56.50 51.76 58.60 51.88 60.83 C 49.81 65.39 44.32 66.56 39.85 67.32 C 43.47 65.33 47.30 63.68 50.55 61.10 C 47.66 61.93 44.96 63.39 41.97 63.85 C 38.68 63.53 35.70 61.89 32.63 60.79 C 34.12 58.06 35.58 54.91 38.69 53.71 C 41.39 52.16 45.16 51.73 46.74 48.75 C 47.40 44.07 48.87 39.59 50.46 35.17 M 44.50 52.27 C 44.08 54.68 43.90 57.13 43.58 59.55 C 42.60 58.37 41.63 57.19 40.65 56.01 C 40.01 56.84 39.40 57.69 38.84 58.58 C 39.79 59.90 40.65 61.27 41.58 62.59 C 44.53 61.57 48.19 60.23 48.36 56.54 C 49.36 53.97 46.06 53.38 44.50 52.27 Z" />
<path fill="#ffffff" opacity="1.00" d=" M 44.60 36.29 C 45.38 37.06 46.14 37.85 46.89 38.65 C 45.82 39.58 44.75 40.51 43.68 41.44 C 44.24 43.81 44.91 46.19 44.93 48.64 C 43.38 50.36 41.22 51.61 38.90 51.83 C 36.72 51.54 34.79 50.37 32.78 49.53 C 33.39 50.69 34.00 51.84 34.59 53.01 C 32.66 55.64 31.21 58.59 30.16 61.68 C 34.82 66.53 33.75 76.78 26.99 79.17 C 23.91 78.69 21.98 74.97 22.37 72.03 C 23.09 64.55 24.90 56.74 29.94 50.92 C 32.53 47.76 36.08 45.67 39.39 43.38 C 41.90 41.69 43.04 38.76 44.60 36.29 Z" />
<path fill="#ecc3c8" opacity="1.00" d=" M 36.25 38.23 C 37.89 37.71 38.45 38.26 37.92 39.88 C 36.28 40.40 35.73 39.85 36.25 38.23 Z" />
<path fill="#b21023" opacity="1.00" d=" M 44.50 52.27 C 46.06 53.38 49.36 53.97 48.36 56.54 C 48.19 60.23 44.53 61.57 41.58 62.59 C 40.65 61.27 39.79 59.90 38.84 58.58 C 39.40 57.69 40.01 56.84 40.65 56.01 C 41.63 57.19 42.60 58.37 43.58 59.55 C 43.90 57.13 44.08 54.68 44.50 52.27 Z" />
<path fill="#ffffff" opacity="1.00" d=" M 34.87 66.48 C 37.09 70.32 40.19 73.77 41.56 78.04 C 40.07 80.89 37.70 83.19 35.32 85.30 C 33.03 87.49 29.49 86.78 26.70 86.14 C 23.67 84.67 22.79 81.04 21.53 78.20 C 24.43 80.34 26.78 84.27 30.78 84.15 C 33.73 82.72 37.06 80.54 37.90 77.17 C 36.35 73.76 34.83 70.32 34.87 66.48 Z" />
</svg>
