<?xml version="1.0" encoding="UTF-8" ?>
<!DOCTYPE svg PUBLIC "-//W3C//DTD SVG 1.1//EN" "http://www.w3.org/Graphics/SVG/1.1/DTD/svg11.dtd">
<svg width="100pt" height="100pt" viewBox="0 0 100 100" version="1.1" xmlns="http://www.w3.org/2000/svg">
<path fill="#ffffff" opacity="1.00" d=" M 42.44 12.61 C 60.88 8.24 81.24 20.57 86.42 38.74 C 91.91 54.43 84.73 73.05 70.87 81.91 C 61.49 87.92 49.44 90.22 38.78 86.43 C 20.07 81.14 7.61 59.76 12.96 40.96 C 16.22 26.83 28.23 15.36 42.44 12.61 M 27.01 24.03 C 18.63 31.29 14.46 42.60 15.28 53.57 C 19.00 53.34 22.79 52.73 26.46 53.61 C 31.68 54.79 36.53 57.49 41.97 57.71 C 46.46 57.91 51.09 58.63 54.74 61.47 C 53.68 58.95 52.77 56.21 53.64 53.48 C 55.25 47.63 55.17 41.19 52.29 35.73 C 51.29 35.62 50.29 35.50 49.29 35.36 C 47.98 32.17 45.03 30.26 41.58 30.39 C 41.50 30.94 41.34 32.05 41.27 32.60 C 40.82 32.29 39.92 31.67 39.47 31.35 C 41.42 28.52 43.58 25.82 46.09 23.45 C 50.03 25.85 53.89 28.55 57.02 31.96 C 58.72 35.14 59.25 38.81 60.90 42.02 C 63.76 47.65 65.08 53.88 66.22 60.05 C 66.47 62.62 67.24 65.50 65.95 67.92 C 61.93 70.80 56.76 71.11 51.99 71.33 C 45.69 71.42 39.26 71.64 33.16 69.80 C 29.29 68.61 25.18 68.71 21.25 69.59 C 26.88 77.50 35.68 83.24 45.40 84.41 C 60.64 86.75 76.48 77.43 82.12 63.14 C 88.24 48.98 83.23 31.26 70.79 22.22 C 58.18 12.36 38.75 13.16 27.01 24.03 M 45.07 27.20 C 44.55 28.83 45.10 29.38 46.73 28.86 C 47.25 27.23 46.69 26.68 45.07 27.20 Z" />
<path fill="#482b46" opacity="1.00" d=" M 27.01 24.03 C 38.75 13.16 58.18 12.36 70.79 22.22 C 83.23 31.26 88.24 48.98 82.12 63.14 C 76.48 77.43 60.64 86.75 45.40 84.41 C 35.68 83.24 26.88 77.50 21.25 69.59 C 25.18 68.71 29.29 68.61 33.16 69.80 C 39.26 71.64 45.69 71.42 51.99 71.33 C 56.76 71.11 61.93 70.80 65.95 67.92 C 67.24 65.50 66.47 62.62 66.22 60.05 C 65.08 53.88 63.76 47.65 60.90 42.02 C 59.25 38.81 58.72 35.14 57.02 31.96 C 53.89 28.55 50.03 25.85 46.09 23.45 C 43.58 25.82 41.42 28.52 39.47 31.35 C 39.92 31.67 40.82 32.29 41.27 32.60 C 43.52 34.51 46.43 35.10 49.29 35.36 C 50.29 35.50 51.29 35.62 52.29 35.73 C 55.17 41.19 55.25 47.63 53.64 53.48 C 52.77 56.21 53.68 58.95 54.74 61.47 C 51.09 58.63 46.46 57.91 41.97 57.71 C 36.53 57.49 31.68 54.79 26.46 53.61 C 22.79 52.73 19.00 53.34 15.28 53.57 C 14.46 42.60 18.63 31.29 27.01 24.03 Z" />
<path fill="#b599b4" opacity="1.00" d=" M 45.07 27.20 C 46.69 26.68 47.25 27.23 46.73 28.86 C 45.10 29.38 44.55 28.83 45.07 27.20 Z" />
<path fill="#d6c4d5" opacity="1.00" d=" M 41.58 30.39 C 45.03 30.26 47.98 32.17 49.29 35.36 C 46.43 35.10 43.52 34.51 41.27 32.60 C 41.34 32.05 41.50 30.94 41.58 30.39 Z" />
</svg>
