<?xml version="1.0" encoding="UTF-8" ?>
<!DOCTYPE svg PUBLIC "-//W3C//DTD SVG 1.1//EN" "http://www.w3.org/Graphics/SVG/1.1/DTD/svg11.dtd">
<svg width="100pt" height="100pt" viewBox="0 0 100 100" version="1.1" xmlns="http://www.w3.org/2000/svg">
<path fill="#beb9bf" opacity="1.00" d=" M 22.33 24.46 C 24.08 20.61 27.03 17.39 30.26 14.72 C 34.76 14.70 38.66 17.38 42.15 19.95 C 44.78 18.19 47.41 16.42 50.01 14.62 C 52.67 16.48 55.35 18.30 58.05 20.11 C 61.58 17.29 65.71 15.43 70.03 14.20 C 73.04 17.46 76.54 20.53 78.26 24.72 C 79.40 27.50 78.06 30.42 77.44 33.15 C 81.57 35.98 85.66 38.86 89.90 41.54 C 84.97 56.06 79.76 70.48 74.82 85.00 C 72.71 85.17 70.61 85.30 68.50 85.45 C 67.50 87.48 66.48 89.50 65.46 91.52 C 63.44 90.11 61.88 87.19 59.10 87.52 C 57.83 89.41 56.96 91.53 56.00 93.59 C 51.31 90.01 45.46 88.72 40.43 85.76 C 35.46 84.66 30.28 85.47 25.23 85.20 C 20.32 70.60 15.03 56.13 10.10 41.54 C 14.43 38.80 18.61 35.83 22.88 32.99 C 22.36 30.21 21.01 27.22 22.33 24.46 M 24.17 25.38 C 23.39 28.58 24.92 31.75 25.63 34.84 C 21.62 37.39 17.75 40.17 13.86 42.90 C 18.53 56.06 22.88 69.34 27.81 82.40 C 32.99 82.59 38.95 81.05 43.37 84.57 C 46.80 86.95 50.76 88.36 54.62 89.86 C 56.27 88.17 57.77 86.07 60.11 85.29 C 61.69 85.80 63.16 86.57 64.66 87.28 C 67.33 84.73 70.57 82.78 72.92 79.92 C 74.99 76.27 75.76 72.07 77.23 68.17 C 80.27 59.78 83.23 51.35 86.13 42.91 C 82.39 40.26 78.65 37.61 74.84 35.07 C 75.53 31.99 76.99 28.85 76.37 25.64 C 75.17 22.22 72.71 19.18 69.66 17.22 C 64.78 16.61 61.11 20.65 57.74 23.55 C 55.17 21.84 52.59 20.14 50.01 18.45 C 47.58 20.03 45.17 21.61 42.75 23.21 C 39.32 20.58 35.84 17.09 31.23 17.06 C 27.97 18.82 25.53 21.98 24.17 25.38 Z" />
<path fill="#26960f" opacity="1.00" d=" M 24.17 25.38 C 25.53 21.98 27.97 18.82 31.23 17.06 C 35.84 17.09 39.32 20.58 42.75 23.21 C 45.17 21.61 47.58 20.03 50.01 18.45 C 52.59 20.14 55.17 21.84 57.74 23.55 C 61.11 20.65 64.78 16.61 69.66 17.22 C 72.71 19.18 75.17 22.22 76.37 25.64 C 76.99 28.85 75.53 31.99 74.84 35.07 C 78.65 37.61 82.39 40.26 86.13 42.91 C 83.23 51.35 80.27 59.78 77.23 68.17 C 75.76 72.07 74.99 76.27 72.92 79.92 C 70.57 82.78 67.33 84.73 64.66 87.28 C 63.16 86.57 61.69 85.80 60.11 85.29 C 57.77 86.07 56.27 88.17 54.62 89.86 C 50.76 88.36 46.80 86.95 43.37 84.57 C 38.95 81.05 32.99 82.59 27.81 82.40 C 22.88 69.34 18.53 56.06 13.86 42.90 C 17.75 40.17 21.62 37.39 25.63 34.84 C 24.92 31.75 23.39 28.58 24.17 25.38 M 26.44 27.07 C 27.34 31.82 28.17 36.68 29.74 41.25 C 32.48 45.01 37.62 43.21 40.98 41.34 C 39.97 44.05 38.09 46.81 38.75 49.82 C 39.39 52.49 42.40 53.59 44.89 53.44 C 47.80 49.46 47.69 44.30 48.91 39.70 C 49.27 36.93 50.61 33.18 47.65 31.39 C 42.43 27.27 38.13 21.91 32.00 19.03 C 30.03 21.54 26.89 23.76 26.44 27.07 M 58.47 26.49 C 56.17 28.87 52.91 30.34 51.16 33.21 C 50.58 36.92 51.80 40.58 52.48 44.19 C 53.14 47.22 53.44 50.48 55.30 53.08 C 56.62 53.73 58.32 53.37 58.82 51.86 C 61.15 48.57 59.95 44.46 59.06 40.91 C 62.46 43.08 67.22 45.00 70.59 41.66 C 72.35 37.86 72.51 33.53 73.60 29.52 C 74.96 25.48 71.71 21.99 68.77 19.71 C 64.34 19.90 61.59 23.88 58.47 26.49 M 58.22 55.38 C 59.52 57.11 60.89 58.78 62.35 60.38 C 63.82 58.77 65.31 57.18 66.80 55.58 C 64.98 53.96 63.34 52.16 61.88 50.21 C 60.68 51.95 59.45 53.67 58.22 55.38 M 27.77 53.16 C 28.10 54.45 28.42 55.75 28.69 57.05 C 29.63 56.35 30.59 55.66 31.55 54.99 C 31.31 53.66 31.09 52.34 30.88 51.01 C 29.85 51.74 28.81 52.46 27.77 53.16 M 37.11 52.97 C 37.18 55.34 37.28 57.70 37.36 60.07 C 35.51 61.13 33.66 62.20 31.77 63.18 C 34.07 63.43 36.39 63.57 38.65 64.12 C 40.50 65.65 41.75 67.74 43.23 69.61 C 43.54 67.24 43.62 64.81 44.35 62.52 C 45.34 61.16 46.65 60.09 47.85 58.95 C 45.75 58.56 43.24 58.92 41.57 57.33 C 39.98 55.99 38.58 54.44 37.11 52.97 M 75.33 55.12 C 75.03 56.04 74.72 56.95 74.42 57.87 C 74.80 58.21 75.58 58.89 75.96 59.23 C 76.43 58.87 77.35 58.15 77.81 57.79 C 76.98 56.90 76.15 56.01 75.33 55.12 M 64.87 64.73 C 65.82 66.99 66.61 69.30 67.30 71.65 C 68.92 69.86 70.87 68.32 73.39 68.24 C 71.95 66.18 70.92 63.87 70.27 61.44 C 68.51 62.61 66.72 63.72 64.87 64.73 M 47.97 63.01 C 48.83 65.31 50.00 67.54 50.40 69.98 C 50.00 72.06 48.96 73.94 48.14 75.88 C 50.33 75.26 52.49 74.25 54.80 74.25 C 56.48 74.64 58.03 75.41 59.61 76.07 C 58.83 74.40 57.90 72.76 57.48 70.95 C 57.86 68.15 59.16 65.59 60.07 62.94 C 57.75 64.22 55.47 65.55 53.18 66.87 C 51.44 65.59 49.70 64.29 47.97 63.01 M 33.88 72.83 C 34.32 74.05 35.03 75.14 35.65 76.27 C 36.64 75.21 37.62 74.14 38.61 73.07 C 37.46 71.73 36.34 70.37 35.22 69.00 C 34.74 70.26 34.16 71.50 33.88 72.83 M 43.03 78.49 C 41.22 78.90 41.81 82.06 43.67 81.71 C 45.43 81.28 44.82 78.19 43.03 78.49 M 63.41 78.25 C 62.52 79.34 61.64 80.43 60.75 81.52 C 61.90 82.64 63.03 83.77 64.15 84.92 C 64.93 83.76 65.71 82.60 66.51 81.45 C 65.44 80.42 64.44 79.32 63.41 78.25 M 52.12 82.29 C 51.91 83.52 51.68 84.76 51.44 85.99 C 52.43 86.60 53.41 87.21 54.39 87.82 C 54.74 86.72 55.10 85.62 55.46 84.52 C 54.35 83.78 53.23 83.03 52.12 82.29 Z" />
<path fill="#ffffff" opacity="1.00" d=" M 26.44 27.07 C 26.89 23.76 30.03 21.54 32.00 19.03 C 38.13 21.91 42.43 27.27 47.65 31.39 C 50.61 33.18 49.27 36.93 48.91 39.70 C 47.69 44.30 47.80 49.46 44.89 53.44 C 42.40 53.59 39.39 52.49 38.75 49.82 C 38.09 46.81 39.97 44.05 40.98 41.34 C 37.62 43.21 32.48 45.01 29.74 41.25 C 28.17 36.68 27.34 31.82 26.44 27.07 Z" />
<path fill="#ffffff" opacity="1.00" d=" M 58.47 26.49 C 61.59 23.88 64.34 19.90 68.77 19.71 C 71.71 21.99 74.96 25.48 73.60 29.52 C 72.51 33.53 72.35 37.86 70.59 41.66 C 67.22 45.00 62.46 43.08 59.06 40.91 C 59.95 44.46 61.15 48.57 58.82 51.86 C 58.32 53.37 56.62 53.73 55.30 53.08 C 53.44 50.48 53.14 47.22 52.48 44.19 C 51.80 40.58 50.58 36.92 51.16 33.21 C 52.91 30.34 56.17 28.87 58.47 26.49 Z" />
<path fill="#ffffff" opacity="1.00" d=" M 58.22 55.38 C 59.45 53.67 60.68 51.95 61.88 50.21 C 63.34 52.16 64.98 53.96 66.80 55.58 C 65.31 57.18 63.82 58.77 62.35 60.38 C 60.89 58.78 59.52 57.11 58.22 55.38 Z" />
<path fill="#ffffff" opacity="1.00" d=" M 27.77 53.16 C 28.81 52.46 29.85 51.74 30.88 51.01 C 31.09 52.34 31.31 53.66 31.55 54.99 C 30.59 55.66 29.63 56.35 28.69 57.05 C 28.42 55.75 28.10 54.45 27.77 53.16 Z" />
<path fill="#ffffff" opacity="1.00" d=" M 37.11 52.97 C 38.58 54.44 39.98 55.99 41.57 57.33 C 43.24 58.92 45.75 58.56 47.85 58.95 C 46.65 60.09 45.34 61.16 44.35 62.52 C 43.62 64.81 43.54 67.24 43.23 69.61 C 41.75 67.74 40.50 65.65 38.65 64.12 C 36.39 63.57 34.07 63.43 31.77 63.18 C 33.66 62.20 35.51 61.13 37.36 60.07 C 37.28 57.70 37.18 55.34 37.11 52.97 Z" />
<path fill="#ffffff" opacity="1.00" d=" M 75.33 55.12 C 76.15 56.01 76.98 56.90 77.81 57.79 C 77.35 58.15 76.43 58.87 75.96 59.23 C 75.58 58.89 74.80 58.21 74.42 57.87 C 74.72 56.95 75.03 56.04 75.33 55.12 Z" />
<path fill="#ffffff" opacity="1.00" d=" M 64.87 64.73 C 66.72 63.72 68.51 62.61 70.27 61.44 C 70.92 63.87 71.95 66.18 73.39 68.24 C 70.87 68.32 68.92 69.86 67.30 71.65 C 66.61 69.30 65.82 66.99 64.87 64.73 Z" />
<path fill="#ffffff" opacity="1.00" d=" M 47.97 63.01 C 49.70 64.29 51.44 65.59 53.18 66.87 C 55.47 65.55 57.75 64.22 60.07 62.94 C 59.16 65.59 57.86 68.15 57.48 70.95 C 57.90 72.76 58.83 74.40 59.61 76.07 C 58.03 75.41 56.48 74.64 54.80 74.25 C 52.49 74.25 50.33 75.26 48.14 75.88 C 48.96 73.94 50.00 72.06 50.40 69.98 C 50.00 67.54 48.83 65.31 47.97 63.01 Z" />
<path fill="#ffffff" opacity="1.00" d=" M 33.88 72.83 C 34.16 71.50 34.74 70.26 35.22 69.00 C 36.34 70.37 37.46 71.73 38.61 73.07 C 37.62 74.14 36.64 75.21 35.65 76.27 C 35.03 75.14 34.32 74.05 33.88 72.83 Z" />
<path fill="#ffffff" opacity="1.00" d=" M 43.03 78.49 C 44.82 78.19 45.43 81.28 43.67 81.71 C 41.81 82.06 41.22 78.90 43.03 78.49 Z" />
<path fill="#ffffff" opacity="1.00" d=" M 63.41 78.25 C 64.44 79.32 65.44 80.42 66.51 81.45 C 65.71 82.60 64.93 83.76 64.15 84.92 C 63.03 83.77 61.90 82.64 60.75 81.52 C 61.64 80.43 62.52 79.34 63.41 78.25 Z" />
<path fill="#ffffff" opacity="1.00" d=" M 52.12 82.29 C 53.23 83.03 54.35 83.78 55.46 84.52 C 55.10 85.62 54.74 86.72 54.39 87.82 C 53.41 87.21 52.43 86.60 51.44 85.99 C 51.68 84.76 51.91 83.52 52.12 82.29 Z" />
</svg>
