<?xml version="1.0" encoding="UTF-8" ?>
<!DOCTYPE svg PUBLIC "-//W3C//DTD SVG 1.1//EN" "http://www.w3.org/Graphics/SVG/1.1/DTD/svg11.dtd">
<svg width="100pt" height="100pt" viewBox="0 0 100 100" version="1.1" xmlns="http://www.w3.org/2000/svg">
<path fill="#b9bbb9" opacity="1.00" d=" M 33.64 17.97 C 36.31 15.93 38.89 13.61 42.12 12.52 C 46.09 11.88 49.19 14.92 52.05 17.17 C 53.36 16.12 54.66 15.06 55.96 14.00 C 57.63 16.14 59.28 18.29 60.98 20.40 C 71.38 20.46 81.78 20.53 92.18 20.53 C 89.60 24.17 86.83 27.68 84.52 31.50 C 83.03 33.91 82.56 36.77 81.20 39.23 C 79.36 41.05 77.05 42.37 75.42 44.41 C 72.68 47.56 71.06 51.45 69.03 55.05 C 66.93 58.81 63.47 61.51 60.99 64.99 C 57.44 69.87 54.08 74.89 50.57 79.80 C 45.31 73.24 41.38 65.56 34.98 59.99 C 32.27 57.47 30.54 54.14 29.05 50.81 C 27.28 46.86 24.52 43.49 22.03 39.98 C 17.37 33.46 12.63 26.99 8.12 20.36 C 17.65 20.26 27.18 20.14 36.71 20.46 C 35.69 19.63 34.66 18.80 33.64 17.97 M 37.40 16.99 C 38.41 19.04 39.40 21.10 40.36 23.18 C 31.53 23.56 22.69 23.26 13.85 23.39 C 17.83 29.59 22.33 35.43 26.67 41.38 C 29.57 45.21 30.73 49.96 32.94 54.17 C 35.17 58.43 39.56 60.79 42.72 64.25 C 45.58 67.42 47.88 71.04 50.39 74.48 C 54.58 69.00 58.30 63.08 63.67 58.62 C 67.80 55.15 69.01 49.74 71.21 45.08 C 72.78 41.71 76.53 40.42 79.06 37.97 C 80.16 36.28 80.50 34.23 81.15 32.34 C 82.10 29.03 84.09 26.18 85.98 23.34 C 78.63 23.20 71.27 23.68 63.93 23.33 C 60.20 23.34 58.11 19.82 55.76 17.46 C 54.34 18.13 52.93 18.82 51.51 19.48 C 49.18 17.61 46.95 15.31 43.92 14.66 C 41.58 14.76 39.53 16.13 37.40 16.99 Z" />
<path fill="#941271" opacity="1.00" d=" M 37.40 16.99 C 39.53 16.13 41.58 14.76 43.92 14.66 C 46.95 15.31 49.18 17.61 51.51 19.48 C 52.93 18.82 54.34 18.13 55.76 17.46 C 58.11 19.82 60.20 23.34 63.93 23.33 C 71.27 23.68 78.63 23.20 85.98 23.34 C 84.09 26.18 82.10 29.03 81.15 32.34 C 80.50 34.23 80.16 36.28 79.06 37.97 C 76.53 40.42 72.78 41.71 71.21 45.08 C 69.01 49.74 67.80 55.15 63.67 58.62 C 58.30 63.08 54.58 69.00 50.39 74.48 C 47.88 71.04 45.58 67.42 42.72 64.25 C 39.56 60.79 35.17 58.43 32.94 54.17 C 30.73 49.96 29.57 45.21 26.67 41.38 C 22.33 35.43 17.83 29.59 13.85 23.39 C 22.69 23.26 31.53 23.56 40.36 23.18 C 39.40 21.10 38.41 19.04 37.40 16.99 M 40.50 16.93 C 41.84 21.41 43.06 26.46 47.60 28.78 C 47.74 30.39 47.91 31.99 48.07 33.60 C 46.14 31.51 44.28 28.37 41.03 28.56 C 36.40 28.75 32.85 32.80 32.17 37.20 C 30.78 45.07 33.49 54.16 40.24 58.85 C 42.93 61.00 46.40 59.55 49.46 59.48 C 53.12 59.22 57.31 61.36 60.44 58.51 C 66.76 54.04 68.53 45.89 68.46 38.59 C 64.75 42.02 60.76 45.59 55.68 46.72 C 53.69 46.84 51.87 45.74 50.00 45.22 C 50.78 42.96 51.40 40.65 51.97 38.33 C 54.12 38.04 56.59 38.57 58.50 37.34 C 60.73 34.92 61.85 31.73 63.26 28.81 C 58.82 28.34 54.58 29.69 50.73 31.78 C 52.63 28.68 54.80 25.74 57.15 22.96 C 56.71 22.04 56.26 21.12 55.83 20.20 C 54.09 21.53 52.28 22.75 50.56 24.09 C 49.14 21.99 48.04 19.51 45.94 17.98 C 44.23 17.25 42.32 17.19 40.50 16.93 M 66.40 29.38 C 63.34 31.72 62.01 35.57 59.21 38.14 C 57.35 39.64 55.01 40.32 52.86 41.28 C 52.98 42.08 53.22 43.67 53.34 44.47 C 56.30 44.09 59.67 44.16 61.95 41.91 C 65.55 38.62 67.42 33.57 72.24 31.68 C 74.13 33.78 76.05 35.87 78.15 37.77 C 77.77 34.72 78.04 30.77 75.00 28.95 C 72.33 27.71 68.90 27.74 66.40 29.38 Z" />
<path fill="#ffffff" opacity="1.00" d=" M 40.50 16.93 C 42.32 17.19 44.23 17.25 45.94 17.98 C 48.04 19.51 49.14 21.99 50.56 24.09 C 52.28 22.75 54.09 21.53 55.83 20.20 C 56.26 21.12 56.71 22.04 57.15 22.96 C 54.80 25.74 52.63 28.68 50.73 31.78 C 54.58 29.69 58.82 28.34 63.26 28.81 C 61.85 31.73 60.73 34.92 58.50 37.34 C 56.59 38.57 54.12 38.04 51.97 38.33 C 51.40 40.65 50.78 42.96 50.00 45.22 C 51.87 45.74 53.69 46.84 55.68 46.72 C 60.76 45.59 64.75 42.02 68.46 38.59 C 68.53 45.89 66.76 54.04 60.44 58.51 C 57.31 61.36 53.12 59.22 49.46 59.48 C 46.40 59.55 42.93 61.00 40.24 58.85 C 33.49 54.16 30.78 45.07 32.17 37.20 C 32.85 32.80 36.40 28.75 41.03 28.56 C 44.28 28.37 46.14 31.51 48.07 33.60 C 47.91 31.99 47.74 30.39 47.60 28.78 C 43.06 26.46 41.84 21.41 40.50 16.93 M 44.64 21.01 C 45.83 23.25 47.27 25.33 48.96 27.22 C 47.75 25.00 46.31 22.91 44.64 21.01 M 34.61 35.55 C 33.97 37.40 33.93 39.38 33.70 41.30 C 35.68 38.12 37.50 34.84 38.97 31.39 C 37.42 32.65 35.60 33.76 34.61 35.55 Z" />
<path fill="#941271" opacity="1.00" d=" M 44.64 21.01 C 46.31 22.91 47.75 25.00 48.96 27.22 C 47.27 25.33 45.83 23.25 44.64 21.01 Z" />
<path fill="#ffffff" opacity="1.00" d=" M 66.40 29.38 C 68.90 27.74 72.33 27.71 75.00 28.95 C 78.04 30.77 77.77 34.72 78.15 37.77 C 76.05 35.87 74.13 33.78 72.24 31.68 C 67.42 33.57 65.55 38.62 61.95 41.91 C 59.67 44.16 56.30 44.09 53.34 44.47 C 53.22 43.67 52.98 42.08 52.86 41.28 C 55.01 40.32 57.35 39.64 59.21 38.14 C 62.01 35.57 63.34 31.72 66.40 29.38 Z" />
<path fill="#941271" opacity="1.00" d=" M 34.61 35.55 C 35.60 33.76 37.42 32.65 38.97 31.39 C 37.50 34.84 35.68 38.12 33.70 41.30 C 33.93 39.38 33.97 37.40 34.61 35.55 Z" />
</svg>
