<?xml version="1.0" encoding="UTF-8" ?>
<!DOCTYPE svg PUBLIC "-//W3C//DTD SVG 1.1//EN" "http://www.w3.org/Graphics/SVG/1.1/DTD/svg11.dtd">
<svg width="100pt" height="100pt" viewBox="0 0 100 100" version="1.1" xmlns="http://www.w3.org/2000/svg">
<path fill="#ffffff" opacity="1.00" d=" M 44.41 11.63 C 55.37 10.07 66.86 13.51 75.16 20.82 C 83.06 27.60 87.67 37.69 88.58 47.97 C 89.38 64.62 78.50 81.23 62.59 86.55 C 46.88 92.38 27.91 86.43 18.31 72.70 C 10.62 62.19 8.90 47.70 13.76 35.64 C 18.71 22.90 30.86 13.37 44.41 11.63 M 27.43 22.80 C 33.85 25.18 40.49 26.92 47.09 28.76 C 47.34 24.22 47.27 19.66 46.59 15.17 C 39.52 15.08 32.76 18.34 27.43 22.80 M 54.22 15.07 C 53.06 15.66 52.27 16.83 52.24 18.14 C 51.90 21.80 52.25 25.48 52.41 29.15 C 59.50 28.04 66.40 25.92 73.25 23.83 C 67.99 19.11 61.30 15.75 54.22 15.07 M 15.02 43.44 C 23.00 42.73 28.65 36.14 36.04 33.64 C 40.90 36.05 45.31 39.23 50.06 41.84 C 54.82 39.32 59.14 36.07 63.95 33.63 C 71.09 36.18 76.64 42.14 84.23 43.46 C 83.18 36.41 79.49 30.07 74.72 24.89 C 69.90 26.75 65.49 29.47 60.92 31.86 C 56.92 33.93 53.76 37.20 50.12 39.79 C 46.07 37.27 42.98 33.52 38.87 31.10 C 34.68 28.52 30.54 25.85 26.11 23.69 C 20.44 28.90 16.49 35.88 15.02 43.44 M 32.81 42.58 C 29.88 45.51 26.44 47.84 23.18 50.36 C 25.08 55.13 30.58 56.56 35.09 57.63 C 39.15 56.83 43.31 56.53 47.33 55.52 C 45.82 54.88 44.08 54.49 43.01 53.14 C 39.72 49.52 36.41 45.91 32.81 42.58 M 56.98 53.14 C 55.91 54.49 54.17 54.88 52.67 55.53 C 56.69 56.50 60.84 56.87 64.91 57.64 C 69.37 56.64 74.31 55.08 76.83 50.93 C 73.87 47.86 70.21 45.58 67.19 42.57 C 63.58 45.89 60.27 49.51 56.98 53.14 M 15.01 44.33 C 12.86 55.86 17.21 68.27 25.92 76.08 C 31.23 80.98 38.08 84.02 45.20 85.12 C 45.22 81.41 45.09 77.71 44.90 74.01 C 47.79 75.05 50.80 75.88 53.90 75.54 C 53.65 78.75 53.46 81.97 53.36 85.19 C 64.50 83.91 75.00 77.29 80.41 67.38 C 84.40 60.57 85.58 52.45 84.70 44.67 C 83.32 47.41 82.36 50.33 81.13 53.14 C 80.10 56.15 76.18 56.05 74.35 58.37 C 71.86 61.53 70.20 65.25 68.00 68.60 C 66.74 68.15 65.49 67.69 64.24 67.24 C 62.54 68.70 60.87 70.61 58.43 70.51 C 55.51 70.57 53.12 72.34 50.75 73.83 C 47.21 72.10 43.44 71.04 39.64 70.09 C 37.33 68.65 35.06 66.89 32.14 67.42 C 29.94 64.71 28.23 61.65 26.09 58.91 C 24.44 56.67 21.47 56.19 19.46 54.43 C 17.77 51.16 16.92 47.50 15.01 44.33 M 43.15 64.24 C 44.28 65.58 45.39 66.92 46.52 68.26 C 47.68 67.61 48.84 66.95 49.99 66.29 C 51.15 66.95 52.31 67.61 53.47 68.27 C 54.60 66.93 55.69 65.57 56.83 64.24 C 54.67 61.64 52.43 59.13 50.00 56.80 C 47.56 59.13 45.30 61.64 43.15 64.24 Z" />
<path fill="#482b46" opacity="1.00" d=" M 27.43 22.80 C 32.76 18.34 39.52 15.08 46.59 15.17 C 47.27 19.66 47.34 24.22 47.09 28.76 C 40.49 26.92 33.85 25.18 27.43 22.80 Z" />
<path fill="#482b46" opacity="1.00" d=" M 54.22 15.07 C 61.30 15.75 67.99 19.11 73.25 23.83 C 66.40 25.92 59.50 28.04 52.41 29.15 C 52.25 25.48 51.90 21.80 52.24 18.14 C 52.27 16.83 53.06 15.66 54.22 15.07 Z" />
<path fill="#482b46" opacity="1.00" d=" M 15.02 43.44 C 16.49 35.88 20.44 28.90 26.11 23.69 C 30.54 25.85 34.68 28.52 38.87 31.10 C 42.98 33.52 46.07 37.27 50.12 39.79 C 53.76 37.20 56.92 33.93 60.92 31.86 C 65.49 29.47 69.90 26.75 74.72 24.89 C 79.49 30.07 83.18 36.41 84.23 43.46 C 76.64 42.14 71.09 36.18 63.95 33.63 C 59.14 36.07 54.82 39.32 50.06 41.84 C 45.31 39.23 40.90 36.05 36.04 33.64 C 28.65 36.14 23.00 42.73 15.02 43.44 Z" />
<path fill="#482b46" opacity="1.00" d=" M 32.81 42.58 C 36.41 45.91 39.72 49.52 43.01 53.14 C 44.08 54.49 45.82 54.88 47.33 55.52 C 43.31 56.53 39.15 56.83 35.09 57.63 C 30.58 56.56 25.08 55.13 23.18 50.36 C 26.44 47.84 29.88 45.51 32.81 42.58 Z" />
<path fill="#482b46" opacity="1.00" d=" M 56.98 53.14 C 60.27 49.51 63.58 45.89 67.19 42.57 C 70.21 45.58 73.87 47.86 76.83 50.93 C 74.31 55.08 69.37 56.64 64.91 57.64 C 60.84 56.87 56.69 56.50 52.67 55.53 C 54.17 54.88 55.91 54.49 56.98 53.14 Z" />
<path fill="#482b46" opacity="1.00" d=" M 15.01 44.33 C 16.92 47.50 17.77 51.16 19.46 54.43 C 21.47 56.19 24.44 56.67 26.09 58.91 C 28.23 61.65 29.94 64.71 32.14 67.42 C 35.06 66.89 37.33 68.65 39.64 70.09 C 43.44 71.04 47.21 72.10 50.75 73.83 C 53.12 72.34 55.51 70.57 58.43 70.51 C 60.87 70.61 62.54 68.70 64.24 67.24 C 65.49 67.69 66.74 68.15 68.00 68.60 C 70.20 65.25 71.86 61.53 74.35 58.37 C 76.18 56.05 80.10 56.15 81.13 53.14 C 82.36 50.33 83.32 47.41 84.70 44.67 C 85.58 52.45 84.40 60.57 80.41 67.38 C 75.00 77.29 64.50 83.91 53.36 85.19 C 53.46 81.97 53.65 78.75 53.90 75.54 C 50.80 75.88 47.79 75.05 44.90 74.01 C 45.09 77.71 45.22 81.41 45.20 85.12 C 38.08 84.02 31.23 80.98 25.92 76.08 C 17.21 68.27 12.86 55.86 15.01 44.33 Z" />
<path fill="#492b47" opacity="1.00" d=" M 43.15 64.24 C 45.30 61.64 47.56 59.13 50.00 56.80 C 52.43 59.13 54.67 61.64 56.83 64.24 C 55.69 65.57 54.60 66.93 53.47 68.27 C 52.31 67.61 51.15 66.95 49.99 66.29 C 48.84 66.95 47.68 67.61 46.52 68.26 C 45.39 66.92 44.28 65.58 43.15 64.24 Z" />
</svg>
