<?xml version="1.0" encoding="UTF-8" ?>
<!DOCTYPE svg PUBLIC "-//W3C//DTD SVG 1.1//EN" "http://www.w3.org/Graphics/SVG/1.1/DTD/svg11.dtd">
<svg width="100pt" height="100pt" viewBox="0 0 100 100" version="1.1" xmlns="http://www.w3.org/2000/svg">
<path fill="#b8bbba" opacity="1.00" d=" M 71.25 11.23 C 73.16 8.17 77.60 8.93 79.91 11.09 C 82.83 13.22 83.28 17.02 83.63 20.34 C 86.45 20.38 89.27 20.56 92.10 20.58 C 78.23 40.26 64.49 60.03 50.62 79.71 C 45.98 74.22 42.52 67.82 37.75 62.44 C 32.85 63.15 27.82 64.25 22.75 63.63 C 22.97 58.07 23.98 52.38 27.92 48.18 C 21.24 38.90 14.57 29.61 7.98 20.27 C 21.93 20.24 35.89 20.31 49.84 20.40 C 50.78 17.49 51.72 13.77 55.27 13.16 C 59.31 11.77 61.99 16.00 64.52 18.36 C 67.29 16.51 69.35 13.91 71.25 11.23 M 74.37 11.41 C 71.08 14.70 68.40 18.66 64.29 21.08 C 62.21 18.98 60.33 16.55 57.73 15.06 C 56.11 14.56 54.51 15.60 53.20 16.42 C 52.37 18.87 54.08 21.18 54.76 23.45 C 41.13 23.44 27.50 23.26 13.86 23.40 C 19.30 31.80 25.51 39.66 31.23 47.87 C 27.40 51.59 24.83 56.39 24.87 61.83 C 29.82 62.24 34.70 61.09 38.77 58.22 C 42.65 63.68 46.24 69.37 50.68 74.40 C 57.08 65.83 62.74 56.73 69.09 48.12 C 74.52 39.73 80.70 31.86 86.07 23.44 C 82.58 23.37 79.08 23.34 75.59 23.27 C 77.46 22.11 79.45 21.09 81.11 19.62 C 82.44 15.57 78.57 10.96 74.37 11.41 Z" />
<path fill="#c40f24" opacity="1.00" d=" M 74.37 11.41 C 78.57 10.96 82.44 15.57 81.11 19.62 C 79.45 21.09 77.46 22.11 75.59 23.27 C 79.08 23.34 82.58 23.37 86.07 23.44 C 80.70 31.86 74.52 39.73 69.09 48.12 C 62.74 56.73 57.08 65.83 50.68 74.40 C 46.24 69.37 42.65 63.68 38.77 58.22 C 34.70 61.09 29.82 62.24 24.87 61.83 C 24.83 56.39 27.40 51.59 31.23 47.87 C 25.51 39.66 19.30 31.80 13.86 23.40 C 27.50 23.26 41.13 23.44 54.76 23.45 C 54.08 21.18 52.37 18.87 53.20 16.42 C 54.51 15.60 56.11 14.56 57.73 15.06 C 60.33 16.55 62.21 18.98 64.29 21.08 C 68.40 18.66 71.08 14.70 74.37 11.41 M 75.69 13.66 C 73.34 18.10 69.28 21.41 64.84 23.60 C 61.37 23.07 59.46 19.46 57.03 17.24 C 56.54 17.45 55.55 17.86 55.06 18.06 C 57.73 21.24 59.29 25.10 61.46 28.57 C 65.10 31.89 69.25 34.64 72.79 38.10 C 72.66 34.10 69.43 31.40 67.90 27.96 C 70.37 23.34 74.43 19.57 79.34 17.66 C 78.08 16.36 76.87 15.02 75.69 13.66 M 42.65 28.60 C 36.55 31.00 34.41 38.99 37.56 44.50 C 39.41 47.73 41.05 51.11 41.48 54.86 C 47.54 54.71 53.61 54.87 59.68 54.75 C 59.65 47.66 66.63 41.66 63.50 34.46 C 60.17 26.67 49.63 25.60 42.65 28.60 M 36.66 47.02 C 32.67 50.38 27.98 53.79 27.46 59.46 C 32.01 59.66 36.38 57.45 38.86 53.63 C 39.70 51.14 37.80 49.04 36.66 47.02 Z" />
<path fill="#ffffff" opacity="1.00" d=" M 75.69 13.66 C 76.87 15.02 78.08 16.36 79.34 17.66 C 74.43 19.57 70.37 23.34 67.90 27.96 C 69.43 31.40 72.66 34.10 72.79 38.10 C 69.25 34.64 65.10 31.89 61.46 28.57 C 59.29 25.10 57.73 21.24 55.06 18.06 C 55.55 17.86 56.54 17.45 57.03 17.24 C 59.46 19.46 61.37 23.07 64.84 23.60 C 69.28 21.41 73.34 18.10 75.69 13.66 Z" />
<path fill="#ffffff" opacity="1.00" d=" M 42.65 28.60 C 49.63 25.60 60.17 26.67 63.50 34.46 C 66.63 41.66 59.65 47.66 59.68 54.75 C 53.61 54.87 47.54 54.71 41.48 54.86 C 41.05 51.11 39.41 47.73 37.56 44.50 C 34.41 38.99 36.55 31.00 42.65 28.60 M 43.54 38.41 C 40.70 39.18 39.54 43.18 41.77 45.22 C 43.72 47.67 47.87 46.52 48.72 43.65 C 49.77 40.67 46.57 37.26 43.54 38.41 M 55.31 38.30 C 52.26 38.74 50.58 42.90 52.90 45.14 C 54.61 47.34 58.27 46.90 59.56 44.49 C 61.51 41.71 58.52 37.61 55.31 38.30 Z" />
<path fill="#c40f24" opacity="1.00" d=" M 43.54 38.41 C 46.57 37.26 49.77 40.67 48.72 43.65 C 47.87 46.52 43.72 47.67 41.77 45.22 C 39.54 43.18 40.70 39.18 43.54 38.41 Z" />
<path fill="#c40f24" opacity="1.00" d=" M 55.31 38.30 C 58.52 37.61 61.51 41.71 59.56 44.49 C 58.27 46.90 54.61 47.34 52.90 45.14 C 50.58 42.90 52.26 38.74 55.31 38.30 Z" />
<path fill="#ffffff" opacity="1.00" d=" M 36.66 47.02 C 37.80 49.04 39.70 51.14 38.86 53.63 C 36.38 57.45 32.01 59.66 27.46 59.46 C 27.98 53.79 32.67 50.38 36.66 47.02 Z" />
</svg>
