<?xml version="1.0" encoding="UTF-8" ?>
<!DOCTYPE svg PUBLIC "-//W3C//DTD SVG 1.1//EN" "http://www.w3.org/Graphics/SVG/1.1/DTD/svg11.dtd">
<svg width="100pt" height="100pt" viewBox="0 0 100 100" version="1.1" xmlns="http://www.w3.org/2000/svg">
<path fill="#b7c7c6" opacity="1.00" d=" M 77.04 16.51 C 77.90 13.41 79.52 9.64 83.22 9.35 C 88.92 9.20 94.01 15.28 93.27 20.83 C 92.20 24.86 87.48 24.85 84.50 26.68 C 82.90 31.99 84.78 37.49 84.81 42.88 C 83.14 56.42 84.24 70.11 83.93 83.73 C 61.31 83.69 38.69 83.69 16.07 83.73 C 16.08 61.34 16.12 38.94 16.05 16.55 C 27.40 16.45 38.74 16.56 50.09 16.53 C 53.58 16.70 56.69 14.92 60.03 14.28 C 62.80 14.61 65.26 16.20 68.05 16.42 C 71.04 16.67 74.04 16.54 77.04 16.51 M 75.04 19.39 C 69.74 20.50 64.85 18.21 60.03 16.46 C 56.38 17.46 53.00 19.66 49.07 19.41 C 39.00 19.38 28.94 19.33 18.87 19.30 C 18.55 39.64 18.86 59.99 18.83 80.33 C 39.81 80.45 60.80 80.53 81.78 80.29 C 81.98 68.38 80.99 56.40 82.54 44.54 C 83.14 38.75 80.69 32.97 82.04 27.21 C 83.42 23.63 88.04 23.56 90.78 21.43 C 92.77 16.56 87.47 10.35 82.33 11.77 C 79.50 13.94 79.27 19.25 75.04 19.39 Z" />
<path fill="#c40f24" opacity="1.00" d=" M 75.04 19.39 C 79.27 19.25 79.50 13.94 82.33 11.77 C 87.47 10.35 92.77 16.56 90.78 21.43 C 88.04 23.56 83.42 23.63 82.04 27.21 C 80.69 32.97 83.14 38.75 82.54 44.54 C 80.99 56.40 81.98 68.38 81.78 80.29 C 60.80 80.53 39.81 80.45 18.83 80.33 C 18.86 59.99 18.55 39.64 18.87 19.30 C 28.94 19.33 39.00 19.38 49.07 19.41 C 53.00 19.66 56.38 17.46 60.03 16.46 C 64.85 18.21 69.74 20.50 75.04 19.39 M 84.20 13.48 C 82.40 20.00 75.90 23.20 70.63 26.53 C 66.11 26.52 63.80 21.47 60.97 18.59 C 60.10 18.80 58.37 19.22 57.50 19.43 C 59.93 23.11 65.12 26.15 63.79 31.21 C 66.22 33.36 68.68 35.50 71.46 37.20 C 74.96 39.36 77.41 42.75 80.48 45.43 C 81.41 39.67 75.60 36.41 73.80 31.48 C 76.74 28.83 79.25 25.77 81.97 22.90 C 83.94 20.81 86.80 20.08 89.42 19.16 C 87.83 17.14 86.10 15.22 84.20 13.48 M 36.72 36.73 C 33.38 40.35 32.71 45.72 33.80 50.37 C 34.53 53.49 36.52 56.07 38.15 58.77 C 39.88 61.28 39.46 64.48 39.74 67.36 C 40.67 67.40 42.52 67.49 43.45 67.53 C 43.68 66.59 43.91 65.65 44.13 64.71 C 45.19 65.65 46.22 66.64 47.42 67.40 C 49.00 67.38 50.53 66.89 52.06 66.51 C 56.06 67.04 60.09 66.82 64.10 66.80 C 64.30 64.40 64.24 61.94 64.89 59.60 C 66.13 56.43 68.38 53.70 69.21 50.36 C 70.31 45.71 69.63 40.33 66.31 36.70 C 62.49 32.46 56.52 30.96 50.99 31.11 C 45.79 31.13 40.28 32.74 36.72 36.73 M 22.05 72.62 C 28.04 73.77 33.37 70.10 36.80 65.54 C 38.04 62.36 35.62 59.50 34.13 56.92 C 29.10 61.26 22.84 65.39 22.05 72.62 Z" />
<path fill="#ffffff" opacity="1.00" d=" M 84.20 13.48 C 86.10 15.22 87.83 17.14 89.42 19.16 C 86.80 20.08 83.94 20.81 81.97 22.90 C 79.25 25.77 76.74 28.83 73.80 31.48 C 75.60 36.41 81.41 39.67 80.48 45.43 C 77.41 42.75 74.96 39.36 71.46 37.20 C 68.68 35.50 66.22 33.36 63.79 31.21 C 65.12 26.15 59.93 23.11 57.50 19.43 C 58.37 19.22 60.10 18.80 60.97 18.59 C 63.80 21.47 66.11 26.52 70.63 26.53 C 75.90 23.20 82.40 20.00 84.20 13.48 Z" />
<path fill="#ffffff" opacity="1.00" d=" M 36.72 36.73 C 40.28 32.74 45.79 31.13 50.99 31.11 C 56.52 30.96 62.49 32.46 66.31 36.70 C 69.63 40.33 70.31 45.71 69.21 50.36 C 68.38 53.70 66.13 56.43 64.89 59.60 C 64.24 61.94 64.30 64.40 64.10 66.80 C 60.09 66.82 56.06 67.04 52.06 66.51 C 50.53 66.89 49.00 67.38 47.42 67.40 C 46.22 66.64 45.19 65.65 44.13 64.71 C 43.91 65.65 43.68 66.59 43.45 67.53 C 42.52 67.49 40.67 67.40 39.74 67.36 C 39.46 64.48 39.88 61.28 38.15 58.77 C 36.52 56.07 34.53 53.49 33.80 50.37 C 32.71 45.72 33.38 40.35 36.72 36.73 M 41.55 46.36 C 38.29 48.32 38.31 53.61 41.68 55.46 C 44.96 57.84 49.98 54.93 49.87 50.98 C 50.09 46.89 44.92 43.87 41.55 46.36 M 56.47 46.12 C 52.99 47.80 52.61 53.15 55.86 55.26 C 59.13 57.98 64.46 55.12 64.43 51.00 C 64.63 47.08 59.89 44.05 56.47 46.12 Z" />
<path fill="#c40f24" opacity="1.00" d=" M 41.55 46.36 C 44.92 43.87 50.09 46.89 49.87 50.98 C 49.98 54.93 44.96 57.84 41.68 55.46 C 38.31 53.61 38.29 48.32 41.55 46.36 Z" />
<path fill="#c40f24" opacity="1.00" d=" M 56.47 46.12 C 59.89 44.05 64.63 47.08 64.43 51.00 C 64.46 55.12 59.13 57.98 55.86 55.26 C 52.61 53.15 52.99 47.80 56.47 46.12 Z" />
<path fill="#ffffff" opacity="1.00" d=" M 22.05 72.62 C 22.84 65.39 29.10 61.26 34.13 56.92 C 35.62 59.50 38.04 62.36 36.80 65.54 C 33.37 70.10 28.04 73.77 22.05 72.62 Z" />
</svg>
