<?xml version="1.0" encoding="UTF-8" ?>
<!DOCTYPE svg PUBLIC "-//W3C//DTD SVG 1.1//EN" "http://www.w3.org/Graphics/SVG/1.1/DTD/svg11.dtd">
<svg width="100pt" height="100pt" viewBox="0 0 100 100" version="1.1" xmlns="http://www.w3.org/2000/svg">
<path fill="#ffffff" opacity="1.00" d=" M 42.47 12.61 C 60.89 8.25 81.23 20.57 86.41 38.72 C 91.91 54.40 84.75 73.01 70.91 81.88 C 61.52 87.92 49.44 90.23 38.76 86.42 C 20.06 81.13 7.61 59.74 12.97 40.94 C 16.23 26.82 28.25 15.35 42.47 12.61 M 39.23 16.85 C 43.79 23.45 48.77 29.76 53.94 35.89 C 56.22 34.34 58.33 32.39 60.97 31.51 C 64.82 32.37 68.66 33.84 71.87 36.15 C 74.78 39.91 76.13 44.62 78.17 48.88 C 75.57 51.25 72.97 53.61 70.38 55.99 C 73.50 59.99 76.58 64.03 79.89 67.88 C 83.72 60.80 85.68 52.59 84.29 44.58 C 82.43 32.28 73.42 21.41 61.69 17.30 C 54.50 14.60 46.56 14.90 39.23 16.85 M 29.49 21.77 C 31.28 24.79 32.77 28.07 35.19 30.65 C 37.25 31.90 39.80 31.98 41.92 33.13 C 45.82 35.19 49.39 38.09 51.57 42.00 C 46.48 39.76 42.43 35.79 37.38 33.48 C 39.26 37.25 40.70 42.96 45.75 43.26 C 48.85 44.43 53.32 43.27 55.16 46.68 C 57.44 49.97 59.46 53.45 61.66 56.80 C 59.68 58.60 57.70 60.41 55.72 62.21 C 55.98 62.80 56.51 63.98 56.78 64.57 C 59.17 62.59 61.65 60.55 64.76 59.87 C 62.95 62.44 60.76 64.71 58.52 66.91 C 61.38 70.98 64.35 74.98 66.83 79.30 C 62.30 74.73 58.64 69.42 54.67 64.37 C 44.67 51.58 34.98 38.55 25.47 25.39 C 16.99 33.97 13.21 46.90 16.37 58.61 C 19.95 73.24 33.91 84.58 49.03 84.69 C 59.79 85.22 70.07 79.94 77.07 71.98 C 64.99 53.21 51.30 35.55 38.93 16.98 C 35.70 18.41 32.55 20.02 29.49 21.77 M 55.41 37.66 C 55.88 38.29 56.82 39.55 57.29 40.18 C 61.10 40.23 64.90 40.25 68.70 40.32 C 69.74 42.63 70.78 44.94 71.78 47.27 C 69.94 49.32 68.23 51.51 67.07 54.02 C 70.30 52.84 72.91 50.58 75.39 48.27 C 72.94 44.02 72.15 37.85 66.95 36.03 C 65.08 35.22 63.15 34.39 61.11 34.20 C 59.04 35.05 57.27 36.44 55.41 37.66 Z" />
<path fill="#482b46" opacity="1.00" d=" M 39.23 16.85 C 46.56 14.90 54.50 14.60 61.69 17.30 C 73.42 21.41 82.43 32.28 84.29 44.58 C 85.68 52.59 83.72 60.80 79.89 67.88 C 76.58 64.03 73.50 59.99 70.38 55.99 C 72.97 53.61 75.57 51.25 78.17 48.88 C 76.13 44.62 74.78 39.91 71.87 36.15 C 68.66 33.84 64.82 32.37 60.97 31.51 C 58.33 32.39 56.22 34.34 53.94 35.89 C 48.77 29.76 43.79 23.45 39.23 16.85 Z" />
<path fill="#482b46" opacity="1.00" d=" M 29.49 21.77 C 32.55 20.02 35.70 18.41 38.93 16.98 C 51.30 35.55 64.99 53.21 77.07 71.98 C 70.07 79.94 59.79 85.22 49.03 84.69 C 33.91 84.58 19.95 73.24 16.37 58.61 C 13.21 46.90 16.99 33.97 25.47 25.39 C 34.98 38.55 44.67 51.58 54.67 64.37 C 58.64 69.42 62.30 74.73 66.83 79.30 C 64.35 74.98 61.38 70.98 58.52 66.91 C 60.76 64.71 62.95 62.44 64.76 59.87 C 61.65 60.55 59.17 62.59 56.78 64.57 C 56.51 63.98 55.98 62.80 55.72 62.21 C 57.70 60.41 59.68 58.60 61.66 56.80 C 59.46 53.45 57.44 49.97 55.16 46.68 C 53.32 43.27 48.85 44.43 45.75 43.26 C 40.70 42.96 39.26 37.25 37.38 33.48 C 42.43 35.79 46.48 39.76 51.57 42.00 C 49.39 38.09 45.82 35.19 41.92 33.13 C 39.80 31.98 37.25 31.90 35.19 30.65 C 32.77 28.07 31.28 24.79 29.49 21.77 M 27.65 35.99 C 25.70 40.29 23.72 44.57 21.80 48.89 C 31.27 57.37 40.66 65.93 50.15 74.38 C 52.05 72.44 53.91 70.46 55.60 68.33 C 53.56 69.00 51.56 69.78 49.58 70.61 C 41.20 63.22 32.91 55.73 24.70 48.17 C 26.27 44.80 27.83 41.43 29.39 38.05 C 28.81 37.36 28.23 36.67 27.65 35.99 M 28.30 44.45 C 28.20 49.67 33.46 52.06 36.64 55.32 C 41.73 59.30 45.65 65.14 52.01 67.22 C 49.85 62.02 45.68 58.09 42.27 53.73 C 39.76 50.82 37.67 47.48 34.66 45.04 C 32.61 44.39 30.42 44.59 28.30 44.45 Z" />
<path fill="#422640" opacity="1.00" d=" M 55.41 37.66 C 57.27 36.44 59.04 35.05 61.11 34.20 C 63.15 34.39 65.08 35.22 66.95 36.03 C 72.15 37.85 72.94 44.02 75.39 48.27 C 72.91 50.58 70.30 52.84 67.07 54.02 C 68.23 51.51 69.94 49.32 71.78 47.27 C 70.78 44.94 69.74 42.63 68.70 40.32 C 64.90 40.25 61.10 40.23 57.29 40.18 C 56.82 39.55 55.88 38.29 55.41 37.66 Z" />
<path fill="#ffffff" opacity="1.00" d=" M 27.65 35.99 C 28.23 36.67 28.81 37.36 29.39 38.05 C 27.83 41.43 26.27 44.80 24.70 48.17 C 32.91 55.73 41.20 63.22 49.58 70.61 C 51.56 69.78 53.56 69.00 55.60 68.33 C 53.91 70.46 52.05 72.44 50.15 74.38 C 40.66 65.93 31.27 57.37 21.80 48.89 C 23.72 44.57 25.70 40.29 27.65 35.99 Z" />
<path fill="#ffffff" opacity="1.00" d=" M 28.30 44.45 C 30.42 44.59 32.61 44.39 34.66 45.04 C 37.67 47.48 39.76 50.82 42.27 53.73 C 45.68 58.09 49.85 62.02 52.01 67.22 C 45.65 65.14 41.73 59.30 36.64 55.32 C 33.46 52.06 28.20 49.67 28.30 44.45 Z" />
</svg>
