<?xml version="1.0" encoding="UTF-8" ?>
<!DOCTYPE svg PUBLIC "-//W3C//DTD SVG 1.1//EN" "http://www.w3.org/Graphics/SVG/1.1/DTD/svg11.dtd">
<svg width="100pt" height="100pt" viewBox="0 0 100 100" version="1.1" xmlns="http://www.w3.org/2000/svg">
<path fill="#b8b8b8" opacity="1.00" d=" M 36.61 19.98 C 41.61 15.48 45.49 9.87 50.00 4.88 C 56.63 12.75 63.44 20.46 70.12 28.29 C 75.79 26.75 81.64 26.06 87.46 25.28 C 85.33 30.34 83.32 35.50 80.26 40.09 C 83.18 43.37 86.03 46.72 88.94 50.01 C 84.66 55.37 78.61 59.87 77.07 66.91 C 75.78 71.77 72.67 76.36 73.37 81.58 C 74.73 86.75 68.47 92.07 63.56 89.69 C 61.78 88.13 60.57 86.05 59.28 84.09 C 56.28 87.84 53.09 91.44 50.00 95.11 C 42.88 87.01 36.19 78.49 28.71 70.73 C 25.50 70.21 22.24 70.80 19.01 70.93 C 20.56 68.82 22.11 66.73 23.67 64.64 C 19.53 59.70 15.32 54.83 11.06 50.00 C 14.90 45.48 19.05 41.22 22.63 36.50 C 24.72 34.14 23.45 30.57 20.99 29.05 C 17.37 26.56 16.14 22.21 14.50 18.38 C 17.65 17.61 20.77 16.36 24.06 16.35 C 28.41 16.89 32.10 20.39 36.61 19.98 M 38.98 22.78 C 34.61 21.78 30.37 20.32 26.11 18.95 C 22.90 17.85 19.56 18.94 16.39 19.58 C 18.34 22.88 20.66 25.93 23.19 28.81 C 25.62 31.64 27.19 36.30 24.54 39.50 C 21.83 43.22 18.55 46.48 15.56 49.97 C 19.37 54.43 23.19 58.88 27.07 63.28 C 25.77 65.15 24.46 67.02 23.14 68.88 C 25.85 68.88 28.68 68.32 31.33 69.08 C 33.33 70.22 34.74 72.11 36.24 73.79 C 40.72 79.22 45.32 84.54 50.00 89.78 C 52.97 86.39 55.95 83.00 58.98 79.66 C 60.70 82.24 62.21 84.94 63.73 87.64 C 65.89 87.43 68.07 87.16 70.13 86.44 C 71.31 82.53 71.38 78.37 72.63 74.48 C 74.01 70.15 75.41 65.82 76.63 61.44 C 77.82 56.83 81.38 53.48 84.34 49.96 C 81.84 46.99 79.31 44.03 76.81 41.06 C 79.78 36.89 82.18 32.35 84.12 27.61 C 78.67 28.25 73.26 29.28 68.01 30.92 C 61.98 24.04 56.08 17.05 50.01 10.22 C 46.31 14.38 42.66 18.59 38.98 22.78 Z" />
<path fill="#c40f24" opacity="1.00" d=" M 38.98 22.78 C 42.66 18.59 46.31 14.38 50.01 10.22 C 56.08 17.05 61.98 24.04 68.01 30.92 C 73.26 29.28 78.67 28.25 84.12 27.61 C 82.18 32.35 79.78 36.89 76.81 41.06 C 79.31 44.03 81.84 46.99 84.34 49.96 C 81.38 53.48 77.82 56.83 76.63 61.44 C 75.41 65.82 74.01 70.15 72.63 74.48 C 71.38 78.37 71.31 82.53 70.13 86.44 C 68.07 87.16 65.89 87.43 63.73 87.64 C 62.21 84.94 60.70 82.24 58.98 79.66 C 55.95 83.00 52.97 86.39 50.00 89.78 C 45.32 84.54 40.72 79.22 36.24 73.79 C 34.74 72.11 33.33 70.22 31.33 69.08 C 28.68 68.32 25.85 68.88 23.14 68.88 C 24.46 67.02 25.77 65.15 27.07 63.28 C 23.19 58.88 19.37 54.43 15.56 49.97 C 18.55 46.48 21.83 43.22 24.54 39.50 C 27.19 36.30 25.62 31.64 23.19 28.81 C 20.66 25.93 18.34 22.88 16.39 19.58 C 19.56 18.94 22.90 17.85 26.11 18.95 C 30.37 20.32 34.61 21.78 38.98 22.78 M 20.04 20.81 C 22.14 23.66 25.05 25.86 26.89 28.89 C 28.66 33.72 29.04 38.91 30.18 43.90 C 31.02 48.84 32.60 53.70 32.71 58.74 C 31.37 61.88 28.58 64.20 26.62 66.99 C 29.11 66.35 31.70 65.98 34.05 64.91 C 37.99 62.71 40.70 58.94 44.35 56.34 C 53.50 49.71 63.01 43.58 72.39 37.28 C 72.42 38.17 72.48 39.95 72.51 40.84 C 74.74 37.61 77.04 34.40 78.87 30.92 C 77.48 31.21 76.10 31.53 74.72 31.87 C 71.14 32.62 69.33 36.13 66.97 38.55 C 61.17 29.50 50.12 26.12 39.96 25.22 C 33.08 24.83 26.87 21.46 20.04 20.81 M 63.13 44.10 C 65.20 48.38 68.05 52.44 68.77 57.23 C 69.62 63.80 67.11 70.10 65.18 76.24 C 58.43 72.87 51.77 69.35 45.04 65.94 C 42.40 64.54 39.43 64.00 36.48 63.69 C 43.91 69.15 52.31 73.09 60.11 77.97 C 63.66 79.89 64.23 84.84 68.31 86.05 C 68.49 82.23 68.12 78.28 69.57 74.65 C 71.64 68.94 74.55 63.25 74.20 57.00 C 73.99 51.15 71.11 45.92 68.50 40.83 C 66.68 41.86 64.97 43.09 63.13 44.10 Z" />
<path fill="#ffffff" opacity="1.00" d=" M 20.04 20.81 C 26.87 21.46 33.08 24.83 39.96 25.22 C 50.12 26.12 61.17 29.50 66.97 38.55 C 69.33 36.13 71.14 32.62 74.72 31.87 C 76.10 31.53 77.48 31.21 78.87 30.92 C 77.04 34.40 74.74 37.61 72.51 40.84 C 72.48 39.95 72.42 38.17 72.39 37.28 C 63.01 43.58 53.50 49.71 44.35 56.34 C 40.70 58.94 37.99 62.71 34.05 64.91 C 31.70 65.98 29.11 66.35 26.62 66.99 C 28.58 64.20 31.37 61.88 32.71 58.74 C 32.60 53.70 31.02 48.84 30.18 43.90 C 29.04 38.91 28.66 33.72 26.89 28.89 C 25.05 25.86 22.14 23.66 20.04 20.81 M 30.23 27.76 C 31.55 38.09 33.56 48.31 35.65 58.51 C 45.11 54.44 52.86 47.43 61.51 41.96 C 58.44 38.55 55.59 34.55 51.19 32.76 C 44.48 30.12 37.32 28.93 30.23 27.76 Z" />
<path fill="#c40f24" opacity="1.00" d=" M 30.23 27.76 C 37.32 28.93 44.48 30.12 51.19 32.76 C 55.59 34.55 58.44 38.55 61.51 41.96 C 52.86 47.43 45.11 54.44 35.65 58.51 C 33.56 48.31 31.55 38.09 30.23 27.76 Z" />
<path fill="#ffffff" opacity="1.00" d=" M 63.13 44.10 C 64.97 43.09 66.68 41.86 68.50 40.83 C 71.11 45.92 73.99 51.15 74.20 57.00 C 74.55 63.25 71.64 68.94 69.57 74.65 C 68.12 78.28 68.49 82.23 68.31 86.05 C 64.23 84.84 63.66 79.89 60.11 77.97 C 52.31 73.09 43.91 69.15 36.48 63.69 C 39.43 64.00 42.40 64.54 45.04 65.94 C 51.77 69.35 58.43 72.87 65.18 76.24 C 67.11 70.10 69.62 63.80 68.77 57.23 C 68.05 52.44 65.20 48.38 63.13 44.10 Z" />
</svg>
