<?xml version="1.0" encoding="UTF-8" ?>
<!DOCTYPE svg PUBLIC "-//W3C//DTD SVG 1.1//EN" "http://www.w3.org/Graphics/SVG/1.1/DTD/svg11.dtd">
<svg width="100pt" height="100pt" viewBox="0 0 100 100" version="1.1" xmlns="http://www.w3.org/2000/svg">
<path fill="#ffffff" opacity="1.00" d=" M 42.45 12.61 C 60.88 8.24 81.25 20.57 86.42 38.74 C 91.91 54.42 84.74 73.01 70.92 81.88 C 61.53 87.91 49.47 90.24 38.79 86.43 C 20.07 81.15 7.61 59.76 12.96 40.96 C 16.22 26.83 28.23 15.37 42.45 12.61 M 27.54 23.57 C 20.02 29.86 15.68 39.40 15.14 49.13 C 24.12 48.54 33.06 44.88 39.33 38.33 C 45.16 32.05 48.48 23.65 49.08 15.15 C 41.25 15.66 33.47 18.33 27.54 23.57 M 50.85 15.14 C 51.38 23.68 54.74 32.13 60.59 38.41 C 66.90 44.94 75.87 48.57 84.86 49.15 C 84.32 39.41 79.99 29.87 72.46 23.56 C 66.51 18.32 58.70 15.64 50.85 15.14 M 37.14 44.07 C 33.10 46.79 28.47 48.41 23.96 50.16 C 28.94 51.53 34.11 52.69 38.52 55.51 C 42.10 57.71 45.58 60.79 50.04 60.73 C 54.56 61.06 58.28 58.20 61.87 55.91 C 66.53 52.88 71.99 51.52 77.29 50.04 C 72.63 48.56 68.01 46.81 63.95 44.04 C 59.72 41.29 55.40 37.73 50.03 38.03 C 45.02 38.02 41.11 41.51 37.14 44.07 M 15.15 50.92 C 15.69 60.87 20.27 70.61 28.09 76.89 C 33.94 81.85 41.49 84.34 49.07 84.85 C 48.44 76.84 45.47 68.93 40.23 62.79 C 33.97 55.58 24.54 51.67 15.15 50.92 M 60.17 62.19 C 54.61 68.39 51.40 76.57 50.85 84.86 C 58.94 84.36 66.97 81.49 72.99 75.97 C 80.20 69.69 84.31 60.39 84.86 50.92 C 75.66 51.55 66.47 55.34 60.17 62.19 Z" />
<path fill="#482b46" opacity="1.00" d=" M 27.54 23.57 C 33.47 18.33 41.25 15.66 49.08 15.15 C 48.48 23.65 45.16 32.05 39.33 38.33 C 33.06 44.88 24.12 48.54 15.14 49.13 C 15.68 39.40 20.02 29.86 27.54 23.57 Z" />
<path fill="#482b46" opacity="1.00" d=" M 50.85 15.14 C 58.70 15.64 66.51 18.32 72.46 23.56 C 79.99 29.87 84.32 39.41 84.86 49.15 C 75.87 48.57 66.90 44.94 60.59 38.41 C 54.74 32.13 51.38 23.68 50.85 15.14 Z" />
<path fill="#452743" opacity="1.00" d=" M 37.14 44.07 C 41.11 41.51 45.02 38.02 50.03 38.03 C 55.40 37.73 59.72 41.29 63.95 44.04 C 68.01 46.81 72.63 48.56 77.29 50.04 C 71.99 51.52 66.53 52.88 61.87 55.91 C 58.28 58.20 54.56 61.06 50.04 60.73 C 45.58 60.79 42.10 57.71 38.52 55.51 C 34.11 52.69 28.94 51.53 23.96 50.16 C 28.47 48.41 33.10 46.79 37.14 44.07 M 35.79 47.93 C 45.62 48.14 55.46 48.16 65.28 47.92 C 61.02 45.11 57.01 41.39 51.86 40.37 C 45.50 39.64 40.77 44.84 35.79 47.93 M 33.78 50.47 C 39.06 52.71 43.51 56.71 49.02 58.36 C 55.97 58.80 61.01 52.77 67.27 50.62 C 63.44 50.31 59.60 50.34 55.77 50.61 C 54.40 52.73 53.28 56.29 50.12 55.86 C 47.32 55.77 46.49 52.54 45.18 50.61 C 41.38 50.39 37.58 50.33 33.78 50.47 Z" />
<path fill="#ffffff" opacity="1.00" d=" M 35.79 47.93 C 40.77 44.84 45.50 39.64 51.86 40.37 C 57.01 41.39 61.02 45.11 65.28 47.92 C 55.46 48.16 45.62 48.14 35.79 47.93 Z" />
<path fill="#ffffff" opacity="1.00" d=" M 33.78 50.47 C 37.58 50.33 41.38 50.39 45.18 50.61 C 46.49 52.54 47.32 55.77 50.12 55.86 C 53.28 56.29 54.40 52.73 55.77 50.61 C 59.60 50.34 63.44 50.31 67.27 50.62 C 61.01 52.77 55.97 58.80 49.02 58.36 C 43.51 56.71 39.06 52.71 33.78 50.47 Z" />
<path fill="#482b46" opacity="1.00" d=" M 15.15 50.92 C 24.54 51.67 33.97 55.58 40.23 62.79 C 45.47 68.93 48.44 76.84 49.07 84.85 C 41.49 84.34 33.94 81.85 28.09 76.89 C 20.27 70.61 15.69 60.87 15.15 50.92 Z" />
<path fill="#482b46" opacity="1.00" d=" M 60.17 62.19 C 66.47 55.34 75.66 51.55 84.86 50.92 C 84.31 60.39 80.20 69.69 72.99 75.97 C 66.97 81.49 58.94 84.36 50.85 84.86 C 51.40 76.57 54.61 68.39 60.17 62.19 Z" />
</svg>
