<?xml version="1.0" encoding="UTF-8" ?>
<!DOCTYPE svg PUBLIC "-//W3C//DTD SVG 1.1//EN" "http://www.w3.org/Graphics/SVG/1.1/DTD/svg11.dtd">
<svg width="100pt" height="100pt" viewBox="0 0 100 100" version="1.1" xmlns="http://www.w3.org/2000/svg">
<path fill="#ffffff" opacity="1.00" d=" M 42.45 12.61 C 60.89 8.24 81.24 20.57 86.42 38.74 C 91.83 54.20 84.94 72.52 71.46 81.51 C 62.01 87.83 49.66 90.30 38.78 86.42 C 20.07 81.14 7.61 59.75 12.96 40.95 C 16.22 26.83 28.23 15.36 42.45 12.61 M 22.23 29.23 C 12.36 41.84 13.18 61.23 24.04 72.99 C 34.52 85.39 54.06 88.40 67.81 79.80 C 77.16 74.41 82.76 64.46 84.96 54.14 C 84.14 54.99 83.33 55.83 82.52 56.68 C 81.77 55.77 81.02 54.87 80.27 53.97 C 80.46 56.31 80.68 58.65 80.88 61.00 C 79.05 59.94 77.23 58.88 75.39 57.84 C 75.91 58.95 76.44 60.05 76.97 61.16 C 74.56 61.56 72.14 61.91 69.72 62.21 C 70.60 61.22 71.48 60.24 72.37 59.26 C 71.73 58.61 71.10 57.96 70.47 57.31 C 69.44 59.57 68.46 61.85 67.52 64.14 C 65.99 62.25 64.47 60.35 62.84 58.55 C 63.22 60.02 63.63 61.48 64.05 62.94 C 62.98 62.30 61.92 61.66 60.85 61.02 C 60.29 61.31 59.16 61.88 58.60 62.17 C 58.29 61.27 57.99 60.37 57.68 59.46 C 56.60 59.32 55.53 59.17 54.45 59.03 C 54.82 54.05 52.26 49.29 50.38 44.78 C 51.94 50.87 54.36 57.46 51.49 63.58 C 50.76 66.34 48.12 67.58 45.69 68.51 C 46.98 66.52 48.39 64.60 49.71 62.63 C 45.17 67.01 40.10 72.76 33.11 71.89 C 30.44 71.96 29.46 69.17 28.13 67.38 C 28.81 67.07 30.17 66.46 30.86 66.16 C 29.06 65.73 27.22 65.41 25.51 64.70 C 24.32 63.44 23.46 61.92 22.53 60.48 C 25.80 60.81 29.05 61.24 32.34 61.42 C 29.04 59.79 25.42 59.05 21.80 58.53 C 21.76 56.83 21.75 55.12 21.76 53.42 C 24.91 53.57 28.06 53.72 31.21 53.70 C 27.79 52.60 24.31 51.66 20.91 50.50 C 21.62 48.77 21.42 45.38 24.04 45.52 C 27.64 45.79 31.27 45.49 34.42 43.58 C 31.82 43.72 29.23 44.01 26.63 44.21 C 27.57 41.95 27.57 38.34 30.44 37.61 C 34.45 36.69 38.63 35.86 42.74 36.44 C 45.90 36.81 47.75 39.67 49.88 41.69 C 52.58 40.41 55.34 39.26 58.17 38.28 C 58.51 35.99 58.95 33.73 59.46 31.48 C 61.02 32.79 62.56 34.13 64.08 35.49 C 64.19 32.67 66.63 31.74 69.08 31.52 C 69.68 30.30 70.26 29.08 70.85 27.85 C 71.60 29.12 72.33 30.40 73.07 31.67 C 74.57 30.73 76.09 29.82 77.60 28.90 C 73.87 24.39 69.32 20.45 63.88 18.17 C 49.61 11.65 31.38 16.48 22.23 29.23 M 74.44 34.55 C 75.50 34.19 76.55 33.82 77.61 33.46 C 78.42 34.68 79.26 35.89 80.11 37.08 C 79.68 35.09 79.27 33.09 78.64 31.15 C 76.49 30.68 75.75 33.36 74.44 34.55 M 64.73 40.85 C 66.16 39.61 67.54 38.34 68.91 37.05 C 70.24 38.53 71.60 40.00 73.06 41.36 C 72.01 38.85 70.65 36.50 69.14 34.25 C 67.56 36.37 66.07 38.56 64.73 40.85 M 55.69 45.98 C 56.81 44.83 57.90 43.66 58.97 42.47 C 60.14 42.78 61.32 43.08 62.49 43.37 C 61.19 42.23 59.87 41.12 58.54 40.01 C 57.52 41.97 56.56 43.95 55.69 45.98 M 78.13 39.78 C 79.47 40.78 80.82 41.77 82.17 42.77 C 81.19 44.65 80.23 46.54 79.39 48.49 C 81.59 46.53 83.21 44.05 84.32 41.34 C 82.27 40.77 80.20 40.25 78.13 39.78 M 52.17 42.44 C 52.61 45.55 53.54 48.57 55.03 51.34 C 55.04 48.13 54.29 44.93 52.17 42.44 M 70.11 44.63 C 71.76 46.09 73.48 47.47 75.18 48.88 C 74.31 50.46 73.44 52.03 72.60 53.62 C 74.36 52.17 76.04 50.61 77.65 49.00 C 75.65 46.77 73.04 45.27 70.11 44.63 M 41.00 47.16 C 40.49 48.83 44.17 49.95 44.46 48.13 C 44.03 46.85 42.01 46.21 41.00 47.16 M 61.28 46.54 C 63.02 47.89 64.80 49.20 66.56 50.53 C 64.88 52.05 63.01 53.33 61.11 54.55 C 63.19 54.29 66.73 54.77 66.87 51.81 C 67.43 48.44 63.70 47.44 61.28 46.54 M 84.07 48.28 C 82.68 47.78 81.29 50.17 82.92 50.73 C 84.31 51.23 85.70 48.84 84.07 48.28 M 40.44 61.69 C 42.44 60.14 43.95 58.11 45.02 55.84 C 43.35 57.67 41.82 59.63 40.44 61.69 Z" />
<path fill="#482b46" opacity="1.00" d=" M 22.23 29.23 C 31.38 16.48 49.61 11.65 63.88 18.17 C 69.32 20.45 73.87 24.39 77.60 28.90 C 76.09 29.82 74.57 30.73 73.07 31.67 C 72.33 30.40 71.60 29.12 70.85 27.85 C 70.26 29.08 69.68 30.30 69.08 31.52 C 66.63 31.74 64.19 32.67 64.08 35.49 C 62.56 34.13 61.02 32.79 59.46 31.48 C 58.95 33.73 58.51 35.99 58.17 38.28 C 55.34 39.26 52.58 40.41 49.88 41.69 C 47.75 39.67 45.90 36.81 42.74 36.44 C 38.63 35.86 34.45 36.69 30.44 37.61 C 27.57 38.34 27.57 41.95 26.63 44.21 C 29.23 44.01 31.82 43.72 34.42 43.58 C 31.27 45.49 27.64 45.79 24.04 45.52 C 21.42 45.38 21.62 48.77 20.91 50.50 C 24.31 51.66 27.79 52.60 31.21 53.70 C 28.06 53.72 24.91 53.57 21.76 53.42 C 21.75 55.12 21.76 56.83 21.80 58.53 C 25.42 59.05 29.04 59.79 32.34 61.42 C 29.05 61.24 25.80 60.81 22.53 60.48 C 23.46 61.92 24.32 63.44 25.51 64.70 C 27.22 65.41 29.06 65.73 30.86 66.16 C 30.17 66.46 28.81 67.07 28.13 67.38 C 29.46 69.17 30.44 71.96 33.11 71.89 C 40.10 72.76 45.17 67.01 49.71 62.63 C 48.39 64.60 46.98 66.52 45.69 68.51 C 48.12 67.58 50.76 66.34 51.49 63.58 C 54.36 57.46 51.94 50.87 50.38 44.78 C 52.26 49.29 54.82 54.05 54.45 59.03 C 53.99 61.00 53.43 62.94 52.89 64.89 C 54.80 64.00 56.71 63.11 58.60 62.17 C 59.16 61.88 60.29 61.31 60.85 61.02 C 61.92 61.66 62.98 62.30 64.05 62.94 C 63.63 61.48 63.22 60.02 62.84 58.55 C 64.47 60.35 65.99 62.25 67.52 64.14 C 68.46 61.85 69.44 59.57 70.47 57.31 C 71.10 57.96 71.73 58.61 72.37 59.26 C 71.48 60.24 70.60 61.22 69.72 62.21 C 72.14 61.91 74.56 61.56 76.97 61.16 C 76.44 60.05 75.91 58.95 75.39 57.84 C 77.23 58.88 79.05 59.94 80.88 61.00 C 80.68 58.65 80.46 56.31 80.27 53.97 C 81.02 54.87 81.77 55.77 82.52 56.68 C 83.33 55.83 84.14 54.99 84.96 54.14 C 82.76 64.46 77.16 74.41 67.81 79.80 C 54.06 88.40 34.52 85.39 24.04 72.99 C 13.18 61.23 12.36 41.84 22.23 29.23 M 66.95 27.27 C 65.40 30.24 70.29 27.42 66.95 27.27 M 52.61 35.32 C 51.67 36.44 53.58 37.97 54.48 36.83 C 55.41 35.71 53.50 34.17 52.61 35.32 Z" />
<path fill="#b9a1b8" opacity="1.00" d=" M 66.95 27.27 C 70.29 27.42 65.40 30.24 66.95 27.27 Z" />
<path fill="#482b46" opacity="1.00" d=" M 74.44 34.55 C 75.75 33.36 76.49 30.68 78.64 31.15 C 79.27 33.09 79.68 35.09 80.11 37.08 C 79.26 35.89 78.42 34.68 77.61 33.46 C 76.55 33.82 75.50 34.19 74.44 34.55 Z" />
<path fill="#c0a1be" opacity="1.00" d=" M 52.61 35.32 C 53.50 34.17 55.41 35.71 54.48 36.83 C 53.58 37.97 51.67 36.44 52.61 35.32 Z" />
<path fill="#482b46" opacity="1.00" d=" M 64.73 40.85 C 66.07 38.56 67.56 36.37 69.14 34.25 C 70.65 36.50 72.01 38.85 73.06 41.36 C 71.60 40.00 70.24 38.53 68.91 37.05 C 67.54 38.34 66.16 39.61 64.73 40.85 Z" />
<path fill="#482b46" opacity="1.00" d=" M 55.69 45.98 C 56.56 43.95 57.52 41.97 58.54 40.01 C 59.87 41.12 61.19 42.23 62.49 43.37 C 61.32 43.08 60.14 42.78 58.97 42.47 C 57.90 43.66 56.81 44.83 55.69 45.98 Z" />
<path fill="#482b46" opacity="1.00" d=" M 78.13 39.78 C 80.20 40.25 82.27 40.77 84.32 41.34 C 83.21 44.05 81.59 46.53 79.39 48.49 C 80.23 46.54 81.19 44.65 82.17 42.77 C 80.82 41.77 79.47 40.78 78.13 39.78 Z" />
<path fill="#926e90" opacity="1.00" d=" M 52.17 42.44 C 54.29 44.93 55.04 48.13 55.03 51.34 C 53.54 48.57 52.61 45.55 52.17 42.44 Z" />
<path fill="#482b46" opacity="1.00" d=" M 70.11 44.63 C 73.04 45.27 75.65 46.77 77.65 49.00 C 76.04 50.61 74.36 52.17 72.60 53.62 C 73.44 52.03 74.31 50.46 75.18 48.88 C 73.48 47.47 71.76 46.09 70.11 44.63 Z" />
<path fill="#bb9dba" opacity="1.00" d=" M 41.00 47.16 C 42.01 46.21 44.03 46.85 44.46 48.13 C 44.17 49.95 40.49 48.83 41.00 47.16 Z" />
<path fill="#482b46" opacity="1.00" d=" M 61.28 46.54 C 63.70 47.44 67.43 48.44 66.87 51.81 C 66.73 54.77 63.19 54.29 61.11 54.55 C 63.01 53.33 64.88 52.05 66.56 50.53 C 64.80 49.20 63.02 47.89 61.28 46.54 Z" />
<path fill="#482b46" opacity="1.00" d=" M 84.07 48.28 C 85.70 48.84 84.31 51.23 82.92 50.73 C 81.29 50.17 82.68 47.78 84.07 48.28 Z" />
<path fill="#482b46" opacity="1.00" d=" M 40.44 61.69 C 41.82 59.63 43.35 57.67 45.02 55.84 C 43.95 58.11 42.44 60.14 40.44 61.69 Z" />
<path fill="#b498b2" opacity="1.00" d=" M 52.89 64.89 C 53.43 62.94 53.99 61.00 54.45 59.03 C 55.53 59.17 56.60 59.32 57.68 59.46 C 57.99 60.37 58.29 61.27 58.60 62.17 C 56.71 63.11 54.80 64.00 52.89 64.89 Z" />
</svg>
