<?xml version="1.0" encoding="UTF-8" ?>
<!DOCTYPE svg PUBLIC "-//W3C//DTD SVG 1.1//EN" "http://www.w3.org/Graphics/SVG/1.1/DTD/svg11.dtd">
<svg width="100pt" height="100pt" viewBox="0 0 100 100" version="1.1" xmlns="http://www.w3.org/2000/svg">
<path fill="#b8b8b8" opacity="1.00" d=" M 45.81 15.79 C 47.96 13.56 49.16 10.63 50.74 8.00 C 52.19 10.63 53.64 13.27 55.10 15.90 C 64.68 15.94 74.26 15.80 83.84 15.97 C 83.81 38.55 83.87 61.12 83.80 83.70 C 60.98 83.58 38.15 83.60 15.33 83.68 C 15.38 61.14 15.41 38.61 15.31 16.07 C 25.47 15.57 35.65 16.20 45.81 15.79 M 46.99 20.35 C 38.08 20.46 29.17 20.36 20.26 20.31 C 20.39 39.97 19.84 59.67 20.57 79.32 C 40.10 79.31 59.63 79.54 79.15 79.21 C 79.43 69.66 79.42 60.11 79.35 50.56 C 80.13 40.51 79.67 30.38 79.86 20.30 C 71.28 20.32 62.69 20.58 54.12 20.22 C 53.00 18.41 51.88 16.60 50.75 14.80 C 49.48 16.64 48.23 18.50 46.99 20.35 Z" />
<path fill="#c40f24" opacity="1.00" d=" M 46.99 20.35 C 48.23 18.50 49.48 16.64 50.75 14.80 C 51.88 16.60 53.00 18.41 54.12 20.22 C 62.69 20.58 71.28 20.32 79.86 20.30 C 79.67 30.38 80.13 40.51 79.35 50.56 L 78.37 50.30 C 78.09 49.54 77.52 48.01 77.24 47.25 C 75.05 47.36 72.85 47.46 70.66 47.63 C 69.59 47.06 68.55 46.45 67.50 45.84 C 65.67 42.81 65.85 39.23 66.62 35.90 C 68.16 36.85 69.68 37.81 71.22 38.77 C 71.24 35.75 71.22 32.73 71.11 29.72 C 67.82 32.55 64.04 35.69 63.45 40.29 C 62.98 45.44 67.31 49.68 66.95 54.78 C 65.57 59.30 60.06 60.35 55.95 60.64 C 53.28 61.15 52.40 57.98 52.42 55.92 C 52.16 47.47 52.50 39.01 52.39 30.55 C 53.10 30.29 54.52 29.76 55.23 29.49 C 53.76 26.66 52.28 23.83 50.80 21.00 C 48.88 24.22 47.01 27.46 45.14 30.70 C 46.38 30.49 47.62 30.28 48.86 30.07 C 48.74 38.72 49.03 47.37 48.82 56.02 C 48.76 57.87 48.33 61.02 45.78 60.60 C 41.49 60.51 35.68 59.34 34.34 54.60 C 34.15 49.57 38.35 45.35 37.78 40.24 C 37.28 35.64 33.51 32.50 30.20 29.71 C 30.09 32.74 30.04 35.78 30.01 38.81 C 31.53 37.84 33.06 36.87 34.59 35.91 C 34.93 37.89 35.44 39.89 35.29 41.92 C 34.36 45.88 31.55 49.09 30.64 53.06 C 30.06 56.58 32.32 60.01 35.33 61.67 C 39.22 63.87 43.74 64.36 48.04 65.24 C 47.38 67.83 46.67 70.40 46.15 73.01 C 41.14 74.64 35.95 75.65 30.71 76.27 C 32.96 72.41 35.39 68.67 37.85 64.95 C 37.36 64.75 36.38 64.36 35.88 64.16 C 32.04 68.44 28.22 72.74 24.94 77.47 C 23.93 77.39 22.92 77.29 21.92 77.21 C 21.97 73.92 21.99 70.63 21.93 67.34 C 21.26 71.31 20.86 75.31 20.57 79.32 C 19.84 59.67 20.39 39.97 20.26 20.31 C 29.17 20.36 38.08 20.46 46.99 20.35 M 28.76 21.67 C 32.18 26.44 36.63 30.38 41.23 33.99 C 37.51 29.51 33.99 24.49 28.76 21.67 M 60.10 34.29 C 64.77 30.53 69.09 26.30 72.89 21.67 C 67.21 24.07 63.92 29.73 60.10 34.29 M 21.57 35.38 C 23.67 36.91 26.21 37.37 28.76 37.46 C 26.71 35.83 24.12 35.40 21.57 35.38 M 73.56 36.37 C 72.28 38.69 77.87 38.16 77.32 36.12 C 76.28 35.21 74.56 35.56 73.56 36.37 M 39.52 46.19 C 38.15 48.04 42.03 48.24 42.36 46.63 C 42.35 45.22 40.23 45.48 39.52 46.19 M 58.69 46.10 C 58.34 47.88 62.36 48.67 62.73 46.89 C 62.10 45.49 59.82 45.11 58.69 46.10 M 22.22 47.39 C 22.14 48.08 21.98 49.46 21.89 50.14 C 25.21 49.81 28.63 49.37 31.42 47.37 C 28.35 47.22 25.29 47.31 22.22 47.39 M 63.29 51.25 C 62.05 52.22 63.64 54.44 64.93 53.45 C 66.18 52.47 64.59 50.24 63.29 51.25 M 36.26 52.09 C 35.71 53.72 36.25 54.27 37.88 53.75 C 38.44 52.12 37.90 51.57 36.26 52.09 M 43.25 55.30 C 42.13 55.30 40.88 56.73 41.62 57.78 C 43.00 58.87 45.17 55.81 43.25 55.30 M 57.30 55.53 C 56.48 56.71 58.27 58.63 59.48 57.75 C 60.32 56.57 58.48 54.66 57.30 55.53 M 23.01 66.24 C 25.94 64.31 28.67 61.95 30.44 58.87 C 27.45 60.75 25.00 63.35 23.01 66.24 Z" />
<path fill="#ffffff" opacity="1.00" d=" M 45.14 30.70 C 47.01 27.46 48.88 24.22 50.80 21.00 C 52.28 23.83 53.76 26.66 55.23 29.49 C 54.52 29.76 53.10 30.29 52.39 30.55 C 52.50 39.01 52.16 47.47 52.42 55.92 C 52.40 57.98 53.28 61.15 55.95 60.64 C 60.06 60.35 65.57 59.30 66.95 54.78 C 67.31 49.68 62.98 45.44 63.45 40.29 C 64.04 35.69 67.82 32.55 71.11 29.72 C 71.22 32.73 71.24 35.75 71.22 38.77 C 69.68 37.81 68.16 36.85 66.62 35.90 C 65.85 39.23 65.67 42.81 67.50 45.84 C 68.67 48.11 69.93 50.34 71.17 52.58 C 70.42 55.61 69.81 59.11 67.03 61.00 C 62.97 63.86 57.83 64.24 53.12 65.29 C 53.90 68.09 54.71 70.88 55.45 73.69 C 60.37 74.94 65.37 75.82 70.43 76.32 C 67.99 72.28 65.33 68.31 63.80 63.81 C 69.06 67.34 72.73 72.62 76.37 77.68 C 67.58 78.08 58.79 77.65 50.00 77.76 C 41.65 77.65 33.28 78.16 24.94 77.47 C 28.22 72.74 32.04 68.44 35.88 64.16 C 36.38 64.36 37.36 64.75 37.85 64.95 C 35.39 68.67 32.96 72.41 30.71 76.27 C 35.95 75.65 41.14 74.64 46.15 73.01 C 46.67 70.40 47.38 67.83 48.04 65.24 C 43.74 64.36 39.22 63.87 35.33 61.67 C 32.32 60.01 30.06 56.58 30.64 53.06 C 31.55 49.09 34.36 45.88 35.29 41.92 C 35.44 39.89 34.93 37.89 34.59 35.91 C 33.06 36.87 31.53 37.84 30.01 38.81 C 30.04 35.78 30.09 32.74 30.20 29.71 C 33.51 32.50 37.28 35.64 37.78 40.24 C 38.35 45.35 34.15 49.57 34.34 54.60 C 35.68 59.34 41.49 60.51 45.78 60.60 C 48.33 61.02 48.76 57.87 48.82 56.02 C 49.03 47.37 48.74 38.72 48.86 30.07 C 47.62 30.28 46.38 30.49 45.14 30.70 Z" />
<path fill="#ffffff" opacity="1.00" d=" M 28.76 21.67 C 33.99 24.49 37.51 29.51 41.23 33.99 C 36.63 30.38 32.18 26.44 28.76 21.67 Z" />
<path fill="#ffffff" opacity="1.00" d=" M 60.10 34.29 C 63.92 29.73 67.21 24.07 72.89 21.67 C 69.09 26.30 64.77 30.53 60.10 34.29 Z" />
<path fill="#ffffff" opacity="1.00" d=" M 21.57 35.38 C 24.12 35.40 26.71 35.83 28.76 37.46 C 26.21 37.37 23.67 36.91 21.57 35.38 Z" />
<path fill="#ffffff" opacity="1.00" d=" M 73.56 36.37 C 74.56 35.56 76.28 35.21 77.32 36.12 C 77.87 38.16 72.28 38.69 73.56 36.37 Z" />
<path fill="#c3030a" opacity="1.00" d=" M 67.50 45.84 C 68.55 46.45 69.59 47.06 70.66 47.63 C 73.07 48.95 75.73 49.65 78.37 50.30 L 79.35 50.56 C 79.42 60.11 79.43 69.66 79.15 79.21 C 59.63 79.54 40.10 79.31 20.57 79.32 C 20.86 75.31 21.26 71.31 21.93 67.34 C 21.99 70.63 21.97 73.92 21.92 77.21 C 22.92 77.29 23.93 77.39 24.94 77.47 C 33.28 78.16 41.65 77.65 50.00 77.76 C 58.79 77.65 67.58 78.08 76.37 77.68 L 77.23 77.61 C 78.06 73.53 78.31 69.29 77.59 65.16 C 76.29 62.77 74.46 60.70 72.41 58.92 C 74.41 59.70 76.35 60.63 78.27 61.60 C 77.77 58.19 79.10 53.87 76.55 51.18 C 74.65 50.92 72.90 51.96 71.17 52.58 C 69.93 50.34 68.67 48.11 67.50 45.84 Z" />
<path fill="#f2c8ce" opacity="1.00" d=" M 39.52 46.19 C 40.23 45.48 42.35 45.22 42.36 46.63 C 42.03 48.24 38.15 48.04 39.52 46.19 Z" />
<path fill="#ffffff" opacity="1.00" d=" M 58.69 46.10 C 59.82 45.11 62.10 45.49 62.73 46.89 C 62.36 48.67 58.34 47.88 58.69 46.10 Z" />
<path fill="#ffffff" opacity="1.00" d=" M 22.22 47.39 C 25.29 47.31 28.35 47.22 31.42 47.37 C 28.63 49.37 25.21 49.81 21.89 50.14 C 21.98 49.46 22.14 48.08 22.22 47.39 Z" />
<path fill="#ffffff" opacity="1.00" d=" M 70.66 47.63 C 72.85 47.46 75.05 47.36 77.24 47.25 C 77.52 48.01 78.09 49.54 78.37 50.30 C 75.73 49.65 73.07 48.95 70.66 47.63 Z" />
<path fill="#f6dcdf" opacity="1.00" d=" M 63.29 51.25 C 64.59 50.24 66.18 52.47 64.93 53.45 C 63.64 54.44 62.05 52.22 63.29 51.25 Z" />
<path fill="#c40f24" opacity="1.00" d=" M 71.17 52.58 C 72.90 51.96 74.65 50.92 76.55 51.18 C 79.10 53.87 77.77 58.19 78.27 61.60 C 76.35 60.63 74.41 59.70 72.41 58.92 C 72.00 58.75 71.18 58.43 70.76 58.26 C 72.67 60.91 75.01 63.19 77.59 65.16 C 78.31 69.29 78.06 73.53 77.23 77.61 L 76.37 77.68 C 72.73 72.62 69.06 67.34 63.80 63.81 C 65.33 68.31 67.99 72.28 70.43 76.32 C 65.37 75.82 60.37 74.94 55.45 73.69 C 54.71 70.88 53.90 68.09 53.12 65.29 C 57.83 64.24 62.97 63.86 67.03 61.00 C 69.81 59.11 70.42 55.61 71.17 52.58 Z" />
<path fill="#f7dfe1" opacity="1.00" d=" M 36.26 52.09 C 37.90 51.57 38.44 52.12 37.88 53.75 C 36.25 54.27 35.71 53.72 36.26 52.09 Z" />
<path fill="#f2ccd0" opacity="1.00" d=" M 43.25 55.30 C 45.17 55.81 43.00 58.87 41.62 57.78 C 40.88 56.73 42.13 55.30 43.25 55.30 Z" />
<path fill="#ffffff" opacity="1.00" d=" M 57.30 55.53 C 58.48 54.66 60.32 56.57 59.48 57.75 C 58.27 58.63 56.48 56.71 57.30 55.53 Z" />
<path fill="#ffffff" opacity="1.00" d=" M 23.01 66.24 C 25.00 63.35 27.45 60.75 30.44 58.87 C 28.67 61.95 25.94 64.31 23.01 66.24 Z" />
<path fill="#ffffff" opacity="1.00" d=" M 70.76 58.26 C 71.18 58.43 72.00 58.75 72.41 58.92 C 74.46 60.70 76.29 62.77 77.59 65.16 C 75.01 63.19 72.67 60.91 70.76 58.26 Z" />
</svg>
