<?xml version="1.0" encoding="UTF-8" ?>
<!DOCTYPE svg PUBLIC "-//W3C//DTD SVG 1.1//EN" "http://www.w3.org/Graphics/SVG/1.1/DTD/svg11.dtd">
<svg width="100pt" height="100pt" viewBox="0 0 100 100" version="1.1" xmlns="http://www.w3.org/2000/svg">
<path fill="#ffffff" opacity="1.00" d=" M 44.75 5.61 C 50.67 3.73 57.37 5.56 62.75 1.88 C 64.19 4.20 65.83 6.55 68.53 7.52 C 77.41 11.45 84.53 19.40 86.86 28.90 C 87.47 31.01 87.65 33.28 88.65 35.26 C 91.43 38.45 94.61 41.29 97.32 44.55 C 94.29 45.45 91.25 46.30 88.17 47.05 C 88.45 55.63 86.46 64.41 81.49 71.51 C 74.40 82.16 61.65 88.38 48.97 88.36 C 41.26 87.77 33.56 85.33 27.32 80.66 C 20.18 75.45 15.06 67.62 12.97 59.05 C 9.39 46.64 13.77 32.75 22.57 23.55 C 25.89 20.16 27.85 15.64 31.52 12.56 C 35.34 9.31 39.92 6.96 44.75 5.61 M 42.56 8.44 C 36.47 10.74 30.68 14.70 27.68 20.65 C 24.43 27.58 18.29 32.94 16.56 40.61 C 12.64 53.82 17.76 68.55 28.20 77.30 C 29.11 73.28 30.61 69.44 31.95 65.55 C 29.94 67.96 28.28 70.62 26.52 73.20 C 27.16 70.74 27.45 68.06 28.96 65.94 C 30.66 63.94 32.98 62.62 35.08 61.09 C 33.61 61.55 32.15 62.01 30.68 62.46 C 29.80 60.00 28.95 57.52 28.07 55.06 C 30.80 55.86 33.75 58.31 36.60 56.65 C 43.54 52.93 51.54 52.68 59.13 51.24 C 53.36 53.52 46.72 54.67 42.76 59.95 C 46.57 58.32 50.36 56.64 54.25 55.24 C 57.45 54.06 60.78 52.51 62.70 49.55 C 63.01 46.78 62.37 44.01 62.13 41.26 C 64.61 43.23 66.97 45.35 69.27 47.54 C 73.85 45.33 76.55 40.89 77.22 35.94 C 75.15 38.79 73.32 41.82 71.08 44.55 C 72.14 41.70 73.73 39.01 74.22 35.98 C 74.43 33.21 73.72 30.48 73.24 27.77 C 70.50 27.81 67.76 28.00 65.02 28.00 C 66.50 26.27 68.03 24.58 69.50 22.84 C 66.48 20.28 63.30 17.69 59.44 16.54 C 55.01 15.02 50.27 15.59 45.70 15.92 C 47.84 14.96 50.00 14.02 52.10 12.96 C 49.53 13.27 46.85 13.38 44.49 14.55 C 43.40 16.89 44.05 19.53 44.05 22.01 C 42.36 20.72 40.65 19.45 38.93 18.20 C 35.62 22.20 31.07 26.31 31.58 32.01 C 31.79 37.60 37.15 40.55 40.46 44.32 C 37.55 43.55 34.34 43.04 32.08 40.88 C 29.89 38.79 29.66 35.60 28.24 33.06 C 26.97 32.47 25.59 32.20 24.25 31.82 C 26.63 29.09 28.19 25.82 29.58 22.51 C 32.36 16.13 38.75 12.22 45.13 10.14 C 49.94 8.55 54.99 10.00 59.70 11.24 C 59.65 9.99 59.62 8.73 59.60 7.48 C 64.62 10.64 67.72 15.76 69.65 21.25 C 69.55 20.05 69.44 18.84 69.34 17.64 C 70.91 18.48 72.49 19.33 74.08 20.14 C 71.33 17.57 68.52 14.99 66.64 11.68 C 75.28 15.13 81.11 23.27 83.29 32.11 C 81.91 31.05 80.55 29.97 79.18 28.90 C 80.49 31.52 81.66 34.25 83.41 36.63 C 85.35 38.98 88.00 40.58 90.39 42.43 C 87.72 42.61 85.05 42.75 82.38 42.84 C 79.10 51.76 71.25 58.52 62.28 61.34 C 65.97 55.88 73.65 55.07 76.66 48.98 C 71.79 52.73 66.32 55.66 61.59 59.58 C 58.52 61.90 57.99 65.85 57.35 69.37 C 55.54 67.67 53.76 65.95 51.98 64.23 C 47.89 65.59 43.43 66.24 39.83 68.75 C 36.83 71.06 38.12 75.26 38.25 78.48 C 38.96 75.59 39.57 72.69 40.12 69.78 C 40.28 71.63 40.14 73.53 40.61 75.34 C 42.68 76.57 45.04 77.15 47.29 77.96 C 45.30 79.11 43.28 80.21 41.28 81.34 C 41.34 81.97 41.45 83.22 41.51 83.84 C 55.07 87.04 70.19 81.69 78.21 70.20 C 83.61 63.14 85.08 54.05 84.78 45.38 C 87.97 44.93 91.15 44.39 94.31 43.73 C 91.90 41.13 89.03 38.96 86.82 36.18 C 85.68 34.01 85.49 31.50 84.81 29.17 C 83.47 23.39 80.02 18.25 75.58 14.39 C 71.40 10.71 65.87 9.02 61.83 5.16 C 55.49 6.75 48.72 6.03 42.56 8.44 M 30.61 25.46 C 32.79 23.72 34.68 21.65 36.28 19.38 C 33.68 20.64 31.66 22.75 30.61 25.46 Z" />
<path fill="#482b46" opacity="1.00" d=" M 42.56 8.44 C 48.72 6.03 55.49 6.75 61.83 5.16 C 65.87 9.02 71.40 10.71 75.58 14.39 C 80.02 18.25 83.47 23.39 84.81 29.17 C 85.49 31.50 85.68 34.01 86.82 36.18 C 89.03 38.96 91.90 41.13 94.31 43.73 C 91.15 44.39 87.97 44.93 84.78 45.38 C 85.08 54.05 83.61 63.14 78.21 70.20 C 70.19 81.69 55.07 87.04 41.51 83.84 C 41.45 83.22 41.34 81.97 41.28 81.34 C 43.28 80.21 45.30 79.11 47.29 77.96 C 45.04 77.15 42.68 76.57 40.61 75.34 C 40.14 73.53 40.28 71.63 40.12 69.78 C 39.57 72.69 38.96 75.59 38.25 78.48 C 38.12 75.26 36.83 71.06 39.83 68.75 C 43.43 66.24 47.89 65.59 51.98 64.23 C 53.76 65.95 55.54 67.67 57.35 69.37 C 57.99 65.85 58.52 61.90 61.59 59.58 C 66.32 55.66 71.79 52.73 76.66 48.98 C 73.65 55.07 65.97 55.88 62.28 61.34 C 71.25 58.52 79.10 51.76 82.38 42.84 C 85.05 42.75 87.72 42.61 90.39 42.43 C 88.00 40.58 85.35 38.98 83.41 36.63 C 81.66 34.25 80.49 31.52 79.18 28.90 C 80.55 29.97 81.91 31.05 83.29 32.11 C 81.11 23.27 75.28 15.13 66.64 11.68 C 68.52 14.99 71.33 17.57 74.08 20.14 C 72.49 19.33 70.91 18.48 69.34 17.64 C 69.44 18.84 69.55 20.05 69.65 21.25 C 67.72 15.76 64.62 10.64 59.60 7.48 C 59.62 8.73 59.65 9.99 59.70 11.24 C 54.99 10.00 49.94 8.55 45.13 10.14 C 38.75 12.22 32.36 16.13 29.58 22.51 C 28.19 25.82 26.63 29.09 24.25 31.82 C 25.59 32.20 26.97 32.47 28.24 33.06 C 29.66 35.60 29.89 38.79 32.08 40.88 C 34.34 43.04 37.55 43.55 40.46 44.32 C 37.15 40.55 31.79 37.60 31.58 32.01 C 31.07 26.31 35.62 22.20 38.93 18.20 C 40.65 19.45 42.36 20.72 44.05 22.01 C 44.05 19.53 43.40 16.89 44.49 14.55 C 46.85 13.38 49.53 13.27 52.10 12.96 C 50.00 14.02 47.84 14.96 45.70 15.92 C 50.27 15.59 55.01 15.02 59.44 16.54 C 63.30 17.69 66.48 20.28 69.50 22.84 C 68.03 24.58 66.50 26.27 65.02 28.00 C 67.76 28.00 70.50 27.81 73.24 27.77 C 73.72 30.48 74.43 33.21 74.22 35.98 C 73.73 39.01 72.14 41.70 71.08 44.55 C 73.32 41.82 75.15 38.79 77.22 35.94 C 76.55 40.89 73.85 45.33 69.27 47.54 C 66.97 45.35 64.61 43.23 62.13 41.26 C 62.37 44.01 63.01 46.78 62.70 49.55 C 60.78 52.51 57.45 54.06 54.25 55.24 C 50.36 56.64 46.57 58.32 42.76 59.95 C 46.72 54.67 53.36 53.52 59.13 51.24 C 51.54 52.68 43.54 52.93 36.60 56.65 C 33.75 58.31 30.80 55.86 28.07 55.06 C 28.95 57.52 29.80 60.00 30.68 62.46 C 32.15 62.01 33.61 61.55 35.08 61.09 C 32.98 62.62 30.66 63.94 28.96 65.94 C 27.45 68.06 27.16 70.74 26.52 73.20 C 28.28 70.62 29.94 67.96 31.95 65.55 C 30.61 69.44 29.11 73.28 28.20 77.30 C 17.76 68.55 12.64 53.82 16.56 40.61 C 18.29 32.94 24.43 27.58 27.68 20.65 C 30.68 14.70 36.47 10.74 42.56 8.44 Z" />
<path fill="#482b46" opacity="1.00" d=" M 30.61 25.46 C 31.66 22.75 33.68 20.64 36.28 19.38 C 34.68 21.65 32.79 23.72 30.61 25.46 Z" />
</svg>
