<?xml version="1.0" encoding="UTF-8" ?>
<!DOCTYPE svg PUBLIC "-//W3C//DTD SVG 1.1//EN" "http://www.w3.org/Graphics/SVG/1.1/DTD/svg11.dtd">
<svg width="100pt" height="100pt" viewBox="0 0 100 100" version="1.1" xmlns="http://www.w3.org/2000/svg">
<path fill="#b9bdbc" opacity="1.00" d=" M 20.38 20.43 C 21.18 18.69 22.36 15.68 24.82 16.78 C 30.73 19.32 37.21 18.51 43.46 18.55 C 50.81 18.48 58.15 18.68 65.50 18.54 C 68.60 18.59 71.54 17.13 74.64 17.34 C 76.68 18.04 78.67 19.00 80.42 20.29 C 79.88 23.54 79.16 26.77 78.49 30.01 C 80.53 31.56 82.39 33.36 83.96 35.40 C 84.80 36.56 85.72 37.66 86.71 38.70 C 89.95 41.14 89.62 45.27 89.54 48.87 C 88.87 53.99 86.07 58.81 81.62 61.55 C 73.45 66.68 65.61 72.31 57.48 77.50 C 54.81 79.34 52.25 81.35 49.99 83.68 C 41.00 75.13 29.28 70.17 20.02 61.96 C 19.21 61.18 18.25 60.58 17.25 60.08 C 12.80 58.73 12.07 53.93 10.24 50.32 C 10.48 47.16 10.03 43.89 11.19 40.85 C 12.35 36.15 17.00 33.78 20.23 30.65 C 21.06 27.22 18.44 23.64 20.38 20.43 M 22.46 19.90 C 22.68 23.48 23.51 27.10 22.86 30.67 C 20.76 33.92 17.26 35.93 14.99 39.04 C 12.01 42.93 12.07 48.51 14.15 52.80 C 15.65 55.86 18.51 57.92 21.32 59.68 C 31.12 65.61 40.29 72.49 49.97 78.60 C 59.16 72.65 68.01 66.19 77.29 60.37 C 79.11 59.18 80.96 58.00 82.55 56.52 C 86.69 52.78 87.94 46.33 85.85 41.22 C 83.88 36.76 79.03 34.57 76.67 30.42 C 76.15 27.02 76.92 23.58 76.74 20.16 C 69.25 21.66 61.63 22.24 53.99 21.78 C 43.48 21.31 32.67 23.25 22.46 19.90 Z" />
<path fill="#b61c2e" opacity="1.00" d=" M 22.46 19.90 C 32.67 23.25 43.48 21.31 53.99 21.78 C 61.63 22.24 69.25 21.66 76.74 20.16 C 76.92 23.58 76.15 27.02 76.67 30.42 C 79.03 34.57 83.88 36.76 85.85 41.22 C 87.94 46.33 86.69 52.78 82.55 56.52 C 80.96 58.00 79.11 59.18 77.29 60.37 C 68.01 66.19 59.16 72.65 49.97 78.60 C 40.29 72.49 31.12 65.61 21.32 59.68 C 18.51 57.92 15.65 55.86 14.15 52.80 C 12.07 48.51 12.01 42.93 14.99 39.04 C 17.26 35.93 20.76 33.92 22.86 30.67 C 23.51 27.10 22.68 23.48 22.46 19.90 M 24.60 20.83 C 24.75 24.14 25.50 27.46 25.02 30.77 C 23.51 34.14 19.98 35.93 17.64 38.66 C 12.97 43.35 13.89 51.98 19.16 55.86 C 22.42 59.01 27.04 59.68 31.31 60.36 C 30.99 57.57 31.50 54.44 30.09 51.92 C 26.89 49.22 22.30 47.67 21.29 43.09 C 22.74 44.53 24.12 46.04 25.51 47.54 C 25.45 45.07 24.65 42.33 26.04 40.08 C 27.43 37.39 29.60 34.99 30.08 31.91 C 30.23 27.57 27.71 23.65 24.60 20.83 M 69.56 30.06 C 68.81 34.80 73.24 38.00 74.41 42.22 C 74.45 44.04 73.94 45.82 73.62 47.61 C 75.18 46.04 76.76 44.48 78.44 43.03 C 76.90 47.53 72.41 49.30 69.01 52.06 C 67.65 54.58 67.91 57.60 67.58 60.37 C 71.98 59.74 76.75 59.24 80.27 56.26 C 84.86 52.69 86.27 45.66 83.47 40.59 C 81.61 37.96 78.25 37.14 75.50 35.74 C 75.70 35.42 76.10 34.79 76.30 34.47 C 73.89 30.34 74.39 25.52 74.62 20.96 C 72.08 23.41 69.77 26.39 69.56 30.06 M 47.07 48.14 C 49.23 48.08 51.39 48.01 53.55 47.93 C 53.11 40.58 55.36 32.21 50.11 26.04 C 45.44 32.51 47.14 40.72 47.07 48.14 M 32.11 46.87 C 32.30 52.00 32.80 57.11 32.66 62.25 C 37.51 62.84 42.30 61.71 47.09 61.20 C 52.21 60.65 57.21 62.22 62.28 62.60 C 63.59 62.76 64.93 62.39 66.01 61.61 C 66.53 56.75 66.62 51.84 67.31 46.98 C 62.19 47.67 57.21 49.27 52.03 49.53 C 45.28 49.86 38.67 48.24 32.11 46.87 M 46.56 62.36 C 47.38 65.56 48.63 68.62 50.15 71.55 C 51.75 68.72 53.07 65.76 54.09 62.68 C 51.59 62.53 49.08 62.42 46.56 62.36 Z" />
<path fill="#ffffff" opacity="1.00" d=" M 24.60 20.83 C 27.71 23.65 30.23 27.57 30.08 31.91 C 29.60 34.99 27.43 37.39 26.04 40.08 C 24.65 42.33 25.45 45.07 25.51 47.54 C 24.12 46.04 22.74 44.53 21.29 43.09 C 22.30 47.67 26.89 49.22 30.09 51.92 C 31.50 54.44 30.99 57.57 31.31 60.36 C 27.04 59.68 22.42 59.01 19.16 55.86 C 13.89 51.98 12.97 43.35 17.64 38.66 C 19.98 35.93 23.51 34.14 25.02 30.77 C 25.50 27.46 24.75 24.14 24.60 20.83 Z" />
<path fill="#ffffff" opacity="1.00" d=" M 69.56 30.06 C 69.77 26.39 72.08 23.41 74.62 20.96 C 74.39 25.52 73.89 30.34 76.30 34.47 C 76.10 34.79 75.70 35.42 75.50 35.74 C 78.25 37.14 81.61 37.96 83.47 40.59 C 86.27 45.66 84.86 52.69 80.27 56.26 C 76.75 59.24 71.98 59.74 67.58 60.37 C 67.91 57.60 67.65 54.58 69.01 52.06 C 72.41 49.30 76.90 47.53 78.44 43.03 C 76.76 44.48 75.18 46.04 73.62 47.61 C 73.94 45.82 74.45 44.04 74.41 42.22 C 73.24 38.00 68.81 34.80 69.56 30.06 Z" />
<path fill="#ffffff" opacity="1.00" d=" M 47.07 48.14 C 47.14 40.72 45.44 32.51 50.11 26.04 C 55.36 32.21 53.11 40.58 53.55 47.93 C 51.39 48.01 49.23 48.08 47.07 48.14 Z" />
<path fill="#47a184" opacity="0.85" d=" M 83.96 35.40 C 85.74 33.86 88.41 37.17 86.71 38.70 C 85.72 37.66 84.80 36.56 83.96 35.40 Z" />
<path fill="#ffffff" opacity="1.00" d=" M 32.11 46.87 C 38.67 48.24 45.28 49.86 52.03 49.53 C 57.21 49.27 62.19 47.67 67.31 46.98 C 66.62 51.84 66.53 56.75 66.01 61.61 C 64.93 62.39 63.59 62.76 62.28 62.60 C 57.21 62.22 52.21 60.65 47.09 61.20 C 42.30 61.71 37.51 62.84 32.66 62.25 C 32.80 57.11 32.30 52.00 32.11 46.87 M 34.74 49.11 C 34.29 53.15 34.53 57.24 35.42 61.20 C 37.36 60.79 39.31 60.39 41.26 59.96 C 39.38 58.80 37.49 57.68 35.61 56.51 C 44.49 60.69 54.40 59.70 63.87 60.84 C 64.43 56.99 64.58 53.08 64.27 49.20 C 61.07 49.49 57.87 49.75 54.67 50.04 C 56.43 50.70 58.20 51.35 59.96 52.00 C 51.41 52.96 43.22 49.50 34.74 49.11 Z" />
<path fill="#b61c2e" opacity="1.00" d=" M 34.74 49.11 C 43.22 49.50 51.41 52.96 59.96 52.00 C 58.20 51.35 56.43 50.70 54.67 50.04 C 57.87 49.75 61.07 49.49 64.27 49.20 C 64.58 53.08 64.43 56.99 63.87 60.84 C 54.40 59.70 44.49 60.69 35.61 56.51 C 37.49 57.68 39.38 58.80 41.26 59.96 C 39.31 60.39 37.36 60.79 35.42 61.20 C 34.53 57.24 34.29 53.15 34.74 49.11 Z" />
<path fill="#39a180" opacity="0.84" d=" M 17.25 60.08 C 18.25 60.58 19.21 61.18 20.02 61.96 C 19.33 64.17 15.58 61.61 17.25 60.08 Z" />
<path fill="#ffffff" opacity="1.00" d=" M 46.56 62.36 C 49.08 62.42 51.59 62.53 54.09 62.68 C 53.07 65.76 51.75 68.72 50.15 71.55 C 48.63 68.62 47.38 65.56 46.56 62.36 Z" />
</svg>
