<?xml version="1.0" encoding="UTF-8" ?>
<!DOCTYPE svg PUBLIC "-//W3C//DTD SVG 1.1//EN" "http://www.w3.org/Graphics/SVG/1.1/DTD/svg11.dtd">
<svg width="100pt" height="100pt" viewBox="0 0 100 100" version="1.1" xmlns="http://www.w3.org/2000/svg">
<path fill="#ffffff" opacity="1.00" d=" M 42.45 12.61 C 60.89 8.24 81.25 20.57 86.42 38.74 C 91.91 54.42 84.74 73.01 70.91 81.88 C 61.53 87.91 49.46 90.24 38.78 86.42 C 20.07 81.15 7.61 59.76 12.96 40.96 C 16.22 26.83 28.23 15.37 42.45 12.61 M 45.40 15.58 C 37.43 16.60 29.93 20.58 24.52 26.49 C 13.81 37.67 12.21 56.19 20.98 68.98 C 29.29 82.20 47.06 88.23 61.69 82.70 C 77.82 77.21 88.06 58.77 83.83 42.19 C 80.20 25.25 62.60 12.86 45.40 15.58 Z" />
<path fill="#482b46" opacity="1.00" d=" M 45.40 15.58 C 62.60 12.86 80.20 25.25 83.83 42.19 C 88.06 58.77 77.82 77.21 61.69 82.70 C 47.06 88.23 29.29 82.20 20.98 68.98 C 12.21 56.19 13.81 37.67 24.52 26.49 C 29.93 20.58 37.43 16.60 45.40 15.58 M 22.18 38.13 C 17.73 47.79 19.19 59.83 25.90 68.09 C 33.55 77.83 47.38 82.15 59.17 78.24 C 67.61 75.65 74.85 69.09 77.76 60.70 C 81.13 51.41 79.03 40.09 71.79 33.19 C 66.11 27.72 57.83 25.59 50.10 26.37 C 45.44 26.80 41.12 28.76 36.60 29.83 C 40.25 26.99 44.72 25.59 49.16 24.56 C 49.20 23.08 49.23 21.59 49.24 20.11 C 37.73 20.32 26.80 27.60 22.18 38.13 Z" />
<path fill="#ffffff" opacity="1.00" d=" M 22.18 38.13 C 26.80 27.60 37.73 20.32 49.24 20.11 C 49.23 21.59 49.20 23.08 49.16 24.56 C 44.72 25.59 40.25 26.99 36.60 29.83 C 41.12 28.76 45.44 26.80 50.10 26.37 C 57.83 25.59 66.11 27.72 71.79 33.19 C 79.03 40.09 81.13 51.41 77.76 60.70 C 74.85 69.09 67.61 75.65 59.17 78.24 C 47.38 82.15 33.55 77.83 25.90 68.09 C 19.19 59.83 17.73 47.79 22.18 38.13 M 50.36 30.23 C 45.93 31.16 41.01 30.40 37.06 33.00 C 34.02 35.02 29.97 35.72 27.68 38.71 C 22.91 47.08 23.02 58.30 28.81 66.15 C 32.83 70.49 39.34 68.65 44.38 70.67 C 54.35 74.33 65.45 68.10 70.42 59.37 C 75.42 50.93 72.13 39.16 63.98 33.96 C 59.97 31.45 55.20 29.31 50.36 30.23 Z" />
<path fill="#482b46" opacity="1.00" d=" M 50.36 30.23 C 55.20 29.31 59.97 31.45 63.98 33.96 C 72.13 39.16 75.42 50.93 70.42 59.37 C 65.45 68.10 54.35 74.33 44.38 70.67 C 39.34 68.65 32.83 70.49 28.81 66.15 C 23.02 58.30 22.91 47.08 27.68 38.71 C 29.97 35.72 34.02 35.02 37.06 33.00 C 41.01 30.40 45.93 31.16 50.36 30.23 M 36.74 39.85 C 39.67 40.22 42.61 40.44 45.53 40.79 C 41.39 43.46 36.87 41.11 33.06 39.06 C 32.10 40.31 31.14 41.57 30.21 42.84 C 32.70 44.99 35.35 46.94 38.02 48.87 C 35.31 47.81 32.61 46.72 29.88 45.72 C 29.34 46.99 28.81 48.27 28.28 49.54 C 31.12 51.36 33.91 53.26 36.50 55.43 C 33.80 54.26 31.14 52.98 28.38 51.92 C 29.02 54.31 30.40 56.38 31.34 58.64 C 32.06 60.56 31.34 63.47 33.64 64.35 C 37.82 66.42 42.63 64.72 47.07 64.85 C 50.32 65.00 53.04 63.16 55.50 61.28 C 55.57 62.47 55.64 63.67 55.71 64.86 C 58.56 64.40 61.58 64.40 64.27 63.26 C 70.94 58.26 72.13 48.34 68.05 41.30 C 64.93 42.21 61.85 43.24 58.77 44.27 C 58.93 47.68 58.84 51.15 57.76 54.42 C 57.79 49.08 57.63 43.23 53.98 38.96 C 50.66 36.15 46.08 35.67 41.92 35.17 C 39.12 34.86 38.01 37.96 36.74 39.85 Z" />
<path fill="#ffffff" opacity="1.00" d=" M 36.74 39.85 C 38.01 37.96 39.12 34.86 41.92 35.17 C 46.08 35.67 50.66 36.15 53.98 38.96 C 57.63 43.23 57.79 49.08 57.76 54.42 C 58.84 51.15 58.93 47.68 58.77 44.27 C 61.85 43.24 64.93 42.21 68.05 41.30 C 72.13 48.34 70.94 58.26 64.27 63.26 C 61.58 64.40 58.56 64.40 55.71 64.86 C 55.64 63.67 55.57 62.47 55.50 61.28 C 53.04 63.16 50.32 65.00 47.07 64.85 C 42.63 64.72 37.82 66.42 33.64 64.35 C 31.34 63.47 32.06 60.56 31.34 58.64 C 30.40 56.38 29.02 54.31 28.38 51.92 C 31.14 52.98 33.80 54.26 36.50 55.43 C 33.91 53.26 31.12 51.36 28.28 49.54 C 28.81 48.27 29.34 46.99 29.88 45.72 C 32.61 46.72 35.31 47.81 38.02 48.87 C 35.35 46.94 32.70 44.99 30.21 42.84 C 31.14 41.57 32.10 40.31 33.06 39.06 C 36.87 41.11 41.39 43.46 45.53 40.79 C 42.61 40.44 39.67 40.22 36.74 39.85 Z" />
</svg>
