<?xml version="1.0" encoding="UTF-8" ?>
<!DOCTYPE svg PUBLIC "-//W3C//DTD SVG 1.1//EN" "http://www.w3.org/Graphics/SVG/1.1/DTD/svg11.dtd">
<svg width="100pt" height="100pt" viewBox="0 0 100 100" version="1.1" xmlns="http://www.w3.org/2000/svg">
<path fill="#bbb9b9" opacity="1.00" d=" M 49.45 20.13 C 52.43 23.87 54.46 28.99 59.36 30.58 C 62.90 31.88 65.93 34.23 69.38 35.70 C 74.46 34.93 79.57 33.95 84.73 34.83 C 82.41 38.43 79.01 41.35 77.24 45.29 C 77.45 48.59 79.08 51.65 79.17 54.99 C 79.55 58.05 78.84 61.51 80.90 64.11 C 84.49 69.33 88.28 74.41 92.01 79.53 C 85.36 79.44 78.91 82.15 72.25 81.10 C 69.70 80.43 67.58 82.24 65.49 83.36 C 58.07 87.80 48.69 89.14 40.42 86.49 C 36.46 85.29 33.33 82.48 29.76 80.54 C 26.53 80.73 23.32 81.96 20.07 81.15 C 16.07 80.25 12.05 79.37 7.93 79.26 C 11.45 74.33 15.11 69.47 18.42 64.38 C 20.06 62.23 19.00 59.44 19.03 56.99 C 18.45 52.53 20.14 48.27 21.73 44.21 C 19.69 41.44 17.66 38.67 15.70 35.84 C 20.31 34.71 25.02 35.21 29.68 35.37 C 33.34 33.46 36.77 31.10 40.68 29.68 C 45.05 28.19 46.84 23.54 49.45 20.13 M 40.90 31.92 C 36.46 33.48 32.53 36.10 28.80 38.92 C 25.91 37.67 22.83 36.95 19.72 36.47 C 20.84 39.08 22.49 41.51 23.14 44.30 C 22.86 48.24 20.92 51.94 21.13 55.95 C 21.04 59.06 22.06 62.25 21.26 65.32 C 19.37 69.33 16.38 72.69 13.99 76.40 C 15.55 76.55 17.10 76.71 18.66 76.87 C 19.84 77.76 20.80 79.03 22.18 79.61 C 24.77 79.57 26.94 77.93 29.18 76.84 C 34.19 81.37 40.11 85.61 47.15 85.75 C 55.71 86.58 63.81 82.86 70.41 77.70 C 73.34 78.57 76.31 79.35 79.36 79.67 C 79.46 78.58 79.55 77.50 79.64 76.41 C 81.81 76.49 83.98 76.56 86.15 76.60 C 83.66 72.62 80.42 69.13 78.23 64.97 C 76.85 61.21 77.53 57.07 76.65 53.19 C 76.26 50.43 74.95 47.75 75.24 44.94 C 76.39 41.73 78.80 39.18 80.63 36.36 C 76.84 36.24 73.15 37.29 69.95 39.29 C 66.26 36.32 62.21 33.80 57.73 32.20 C 54.47 31.13 51.90 28.82 49.64 26.32 C 47.09 28.70 44.26 30.82 40.90 31.92 Z" />
<path fill="#217a7a" opacity="1.00" d=" M 40.90 31.92 C 44.26 30.82 47.09 28.70 49.64 26.32 C 51.90 28.82 54.47 31.13 57.73 32.20 C 62.21 33.80 66.26 36.32 69.95 39.29 C 73.15 37.29 76.84 36.24 80.63 36.36 C 78.80 39.18 76.39 41.73 75.24 44.94 C 74.95 47.75 76.26 50.43 76.65 53.19 C 77.53 57.07 76.85 61.21 78.23 64.97 C 80.42 69.13 83.66 72.62 86.15 76.60 C 83.98 76.56 81.81 76.49 79.64 76.41 C 79.55 77.50 79.46 78.58 79.36 79.67 C 76.31 79.35 73.34 78.57 70.41 77.70 C 63.81 82.86 55.71 86.58 47.15 85.75 C 40.11 85.61 34.19 81.37 29.18 76.84 C 26.94 77.93 24.77 79.57 22.18 79.61 C 20.80 79.03 19.84 77.76 18.66 76.87 C 17.10 76.71 15.55 76.55 13.99 76.40 C 16.38 72.69 19.37 69.33 21.26 65.32 C 22.06 62.25 21.04 59.06 21.13 55.95 C 20.92 51.94 22.86 48.24 23.14 44.30 C 22.49 41.51 20.84 39.08 19.72 36.47 C 22.83 36.95 25.91 37.67 28.80 38.92 C 32.53 36.10 36.46 33.48 40.90 31.92 M 40.47 34.48 C 35.80 36.15 32.47 40.06 28.14 42.32 C 26.05 41.03 24.21 39.37 22.28 37.85 C 23.93 39.93 25.53 42.04 27.12 44.16 C 25.27 47.87 23.09 51.70 23.23 55.99 C 23.31 61.60 26.05 66.65 28.45 71.57 C 26.25 73.66 24.20 75.91 22.23 78.22 C 24.44 76.67 26.52 74.83 29.01 73.78 C 33.80 76.71 37.58 81.53 43.36 82.67 C 53.41 85.27 63.70 80.73 70.81 73.71 C 72.79 75.25 74.75 76.82 76.75 78.33 C 75.15 76.49 73.34 74.85 71.77 72.99 C 74.06 68.22 75.27 63.00 75.13 57.70 C 74.31 59.09 73.45 60.46 72.78 61.93 C 73.57 55.84 70.61 50.24 68.71 44.66 C 70.60 46.65 72.32 48.78 74.05 50.92 C 73.07 48.87 72.09 46.82 71.09 44.79 C 73.05 42.55 74.94 40.24 76.83 37.94 C 74.64 39.53 72.59 41.39 70.10 42.50 C 66.68 40.46 63.98 37.37 60.34 35.69 C 54.22 32.78 46.88 32.18 40.47 34.48 Z" />
<path fill="#ffffff" opacity="1.00" d=" M 40.47 34.48 C 46.88 32.18 54.22 32.78 60.34 35.69 C 63.98 37.37 66.68 40.46 70.10 42.50 C 72.59 41.39 74.64 39.53 76.83 37.94 C 74.94 40.24 73.05 42.55 71.09 44.79 C 72.09 46.82 73.07 48.87 74.05 50.92 C 72.32 48.78 70.60 46.65 68.71 44.66 C 70.61 50.24 73.57 55.84 72.78 61.93 C 71.97 65.44 68.85 69.71 71.77 72.99 C 73.34 74.85 75.15 76.49 76.75 78.33 C 74.75 76.82 72.79 75.25 70.81 73.71 C 63.70 80.73 53.41 85.27 43.36 82.67 C 37.58 81.53 33.80 76.71 29.01 73.78 C 26.52 74.83 24.44 76.67 22.23 78.22 C 24.20 75.91 26.25 73.66 28.45 71.57 C 26.05 66.65 23.31 61.60 23.23 55.99 C 23.09 51.70 25.27 47.87 27.12 44.16 C 25.53 42.04 23.93 39.93 22.28 37.85 C 24.21 39.37 26.05 41.03 28.14 42.32 C 32.47 40.06 35.80 36.15 40.47 34.48 M 40.35 36.27 C 36.02 37.29 33.04 40.87 30.79 44.48 C 35.08 42.30 38.82 39.02 43.52 37.71 C 48.44 36.03 53.91 36.48 58.66 38.47 C 62.15 40.01 65.08 42.50 68.42 44.31 C 66.50 41.68 64.33 39.09 61.37 37.58 C 54.97 34.10 47.21 34.51 40.35 36.27 M 34.20 43.57 C 35.70 43.80 37.21 44.02 38.72 44.23 C 38.59 45.80 38.47 47.37 38.35 48.94 C 41.63 49.57 44.84 50.59 47.61 52.51 C 47.62 47.41 48.08 42.33 48.26 37.24 C 43.14 38.22 38.29 40.33 34.20 43.57 M 49.62 37.20 C 49.99 42.48 50.70 47.71 51.26 52.97 C 53.92 50.72 57.15 49.46 60.59 49.02 C 60.60 47.46 60.61 45.89 60.62 44.32 C 61.63 44.13 63.66 43.75 64.67 43.57 C 60.28 40.20 55.10 38.01 49.62 37.20 M 25.12 62.71 C 26.42 56.44 28.64 50.45 30.45 44.32 C 24.81 48.65 23.86 56.15 25.12 62.71 M 29.56 50.58 C 26.63 56.57 27.72 63.50 29.82 69.56 C 31.58 69.34 33.34 69.12 35.10 68.91 C 34.85 67.04 34.59 65.16 34.34 63.28 C 37.23 62.95 40.19 62.82 42.98 61.94 C 45.26 61.21 46.42 58.94 47.93 57.27 C 44.08 54.40 39.41 53.25 34.69 53.00 C 34.74 50.78 34.78 48.56 34.77 46.34 C 32.88 47.51 30.47 48.35 29.56 50.58 M 63.95 46.99 C 64.19 49.00 64.44 51.00 64.69 53.01 C 60.29 53.55 55.06 53.49 52.01 57.28 C 51.26 59.25 53.39 60.38 54.74 61.30 C 57.82 62.89 61.39 62.83 64.75 63.27 C 64.46 65.25 64.16 67.24 63.87 69.23 C 65.24 69.07 66.61 68.92 67.98 68.76 C 69.13 65.27 70.36 61.72 70.30 58.00 C 70.18 54.37 68.89 50.93 67.64 47.57 C 66.41 47.38 65.18 47.19 63.95 46.99 M 38.51 67.53 C 38.47 69.13 38.42 70.73 38.37 72.33 C 36.04 72.01 33.71 71.68 31.37 71.43 C 35.39 76.95 41.79 79.91 48.49 80.54 C 48.37 74.87 47.73 69.22 47.69 63.55 C 45.01 65.63 41.82 66.86 38.51 67.53 M 51.12 63.34 C 50.78 69.07 50.10 74.76 49.73 80.49 C 55.82 79.55 61.42 76.67 65.71 72.24 C 64.01 72.24 62.31 72.22 60.61 72.21 C 60.60 70.64 60.59 69.08 60.58 67.52 C 57.15 66.81 53.90 65.48 51.12 63.34 Z" />
<path fill="#1f7474" opacity="1.00" d=" M 40.35 36.27 C 47.21 34.51 54.97 34.10 61.37 37.58 C 64.33 39.09 66.50 41.68 68.42 44.31 C 65.08 42.50 62.15 40.01 58.66 38.47 C 53.91 36.48 48.44 36.03 43.52 37.71 C 38.82 39.02 35.08 42.30 30.79 44.48 C 33.04 40.87 36.02 37.29 40.35 36.27 Z" />
<path fill="#217a7a" opacity="1.00" d=" M 34.20 43.57 C 38.29 40.33 43.14 38.22 48.26 37.24 C 48.08 42.33 47.62 47.41 47.61 52.51 C 44.84 50.59 41.63 49.57 38.35 48.94 C 38.47 47.37 38.59 45.80 38.72 44.23 C 37.21 44.02 35.70 43.80 34.20 43.57 Z" />
<path fill="#217a7a" opacity="1.00" d=" M 49.62 37.20 C 55.10 38.01 60.28 40.20 64.67 43.57 C 63.66 43.75 61.63 44.13 60.62 44.32 C 60.61 45.89 60.60 47.46 60.59 49.02 C 57.15 49.46 53.92 50.72 51.26 52.97 C 50.70 47.71 49.99 42.48 49.62 37.20 Z" />
<path fill="#1a7171" opacity="1.00" d=" M 25.12 62.71 C 23.86 56.15 24.81 48.65 30.45 44.32 C 28.64 50.45 26.42 56.44 25.12 62.71 Z" />
<path fill="#217a7a" opacity="1.00" d=" M 29.56 50.58 C 30.47 48.35 32.88 47.51 34.77 46.34 C 34.78 48.56 34.74 50.78 34.69 53.00 C 39.41 53.25 44.08 54.40 47.93 57.27 C 46.42 58.94 45.26 61.21 42.98 61.94 C 40.19 62.82 37.23 62.95 34.34 63.28 C 34.59 65.16 34.85 67.04 35.10 68.91 C 33.34 69.12 31.58 69.34 29.82 69.56 C 27.72 63.50 26.63 56.57 29.56 50.58 Z" />
<path fill="#217a7a" opacity="1.00" d=" M 63.95 46.99 C 65.18 47.19 66.41 47.38 67.64 47.57 C 68.89 50.93 70.18 54.37 70.30 58.00 C 70.36 61.72 69.13 65.27 67.98 68.76 C 66.61 68.92 65.24 69.07 63.87 69.23 C 64.16 67.24 64.46 65.25 64.75 63.27 C 61.39 62.83 57.82 62.89 54.74 61.30 C 53.39 60.38 51.26 59.25 52.01 57.28 C 55.06 53.49 60.29 53.55 64.69 53.01 C 64.44 51.00 64.19 49.00 63.95 46.99 Z" />
<path fill="#64a2a2" opacity="1.00" d=" M 72.78 61.93 C 73.45 60.46 74.31 59.09 75.13 57.70 C 75.27 63.00 74.06 68.22 71.77 72.99 C 68.85 69.71 71.97 65.44 72.78 61.93 Z" />
<path fill="#217a7a" opacity="1.00" d=" M 38.51 67.53 C 41.82 66.86 45.01 65.63 47.69 63.55 C 47.73 69.22 48.37 74.87 48.49 80.54 C 41.79 79.91 35.39 76.95 31.37 71.43 C 33.71 71.68 36.04 72.01 38.37 72.33 C 38.42 70.73 38.47 69.13 38.51 67.53 Z" />
<path fill="#217a7a" opacity="1.00" d=" M 51.12 63.34 C 53.90 65.48 57.15 66.81 60.58 67.52 C 60.59 69.08 60.60 70.64 60.61 72.21 C 62.31 72.22 64.01 72.24 65.71 72.24 C 61.42 76.67 55.82 79.55 49.73 80.49 C 50.10 74.76 50.78 69.07 51.12 63.34 Z" />
</svg>
