<?xml version="1.0" encoding="UTF-8" ?>
<!DOCTYPE svg PUBLIC "-//W3C//DTD SVG 1.1//EN" "http://www.w3.org/Graphics/SVG/1.1/DTD/svg11.dtd">
<svg width="100pt" height="100pt" viewBox="0 0 100 100" version="1.1" xmlns="http://www.w3.org/2000/svg">
<path fill="#b8bebd" opacity="1.00" d=" M 25.31 15.30 C 41.40 15.28 57.49 15.25 73.58 15.32 C 74.46 18.06 75.38 20.80 76.27 23.54 C 80.24 23.63 84.55 24.10 87.10 27.55 L 86.14 27.37 C 82.11 26.54 78.04 25.94 73.94 25.60 C 73.09 23.19 72.28 20.76 71.34 18.38 C 71.22 18.11 70.98 17.56 70.86 17.28 C 56.56 16.83 42.22 17.36 27.91 17.07 C 27.80 17.39 27.60 18.02 27.50 18.34 C 25.99 22.96 24.36 27.54 22.73 32.11 C 26.72 32.78 30.72 33.38 34.75 33.81 C 33.06 34.46 31.41 35.21 29.72 35.86 C 25.49 33.74 21.25 31.58 16.68 30.27 C 16.25 30.05 15.38 29.59 14.95 29.36 C 14.12 28.91 13.28 28.46 12.44 28.01 C 13.25 33.00 15.44 37.71 19.60 40.75 C 17.85 46.21 15.96 51.61 14.07 57.02 C 23.15 63.68 32.75 69.59 41.91 76.14 C 44.24 77.70 46.50 79.51 49.21 80.36 C 51.94 79.81 54.18 77.97 56.47 76.49 C 65.79 69.81 75.50 63.70 84.82 57.01 C 82.03 49.03 79.05 41.11 76.57 33.02 C 79.19 31.54 81.82 30.08 84.38 28.52 C 83.12 30.46 81.54 32.17 80.31 34.13 C 82.52 42.28 85.69 50.18 88.64 58.10 C 77.08 66.08 65.33 73.79 53.79 81.80 C 52.34 82.74 50.91 83.80 49.24 84.33 C 47.57 83.57 46.07 82.48 44.56 81.46 C 33.21 73.55 21.59 66.05 10.28 58.10 C 12.41 52.55 14.34 46.92 16.23 41.28 C 11.88 37.16 10.76 31.00 10.53 25.27 C 14.01 25.82 17.21 27.82 20.74 27.93 C 22.66 23.88 23.83 19.52 25.31 15.30 Z" />
<path fill="#b8d3d0" opacity="1.00" d=" M 27.91 17.07 C 42.22 17.36 56.56 16.83 70.86 17.28 C 70.98 17.56 71.22 18.11 71.34 18.38 C 56.73 18.37 42.11 18.44 27.50 18.34 C 27.60 18.02 27.80 17.39 27.91 17.07 Z" />
<path fill="#b61c2e" opacity="1.00" d=" M 27.50 18.34 C 42.11 18.44 56.73 18.37 71.34 18.38 C 72.28 20.76 73.09 23.19 73.94 25.60 C 78.04 25.94 82.11 26.54 86.14 27.37 C 85.70 27.66 84.82 28.23 84.38 28.52 C 81.82 30.08 79.19 31.54 76.57 33.02 C 79.05 41.11 82.03 49.03 84.82 57.01 C 75.50 63.70 65.79 69.81 56.47 76.49 C 54.18 77.97 51.94 79.81 49.21 80.36 C 46.50 79.51 44.24 77.70 41.91 76.14 C 32.75 69.59 23.15 63.68 14.07 57.02 C 15.96 51.61 17.85 46.21 19.60 40.75 C 15.44 37.71 13.25 33.00 12.44 28.01 C 13.28 28.46 14.12 28.91 14.95 29.36 C 16.01 32.44 16.26 37.06 20.22 37.81 C 25.74 39.72 31.73 37.86 35.82 33.88 L 34.75 33.81 C 30.72 33.38 26.72 32.78 22.73 32.11 C 24.36 27.54 25.99 22.96 27.50 18.34 M 55.56 26.55 C 53.68 26.13 51.71 25.20 49.80 25.99 C 45.70 27.40 41.66 29.04 37.37 29.85 C 36.60 33.39 36.03 36.97 35.62 40.57 C 33.33 41.42 31.11 42.63 30.17 45.04 C 41.02 44.09 50.82 39.14 61.15 36.15 C 67.73 33.79 74.94 32.47 80.46 27.89 C 72.55 28.09 65.36 31.75 57.89 33.94 C 52.26 36.17 46.22 36.86 40.47 38.67 C 41.84 36.32 42.92 33.64 45.05 31.85 C 46.82 31.20 48.73 31.29 50.58 31.22 C 50.37 32.65 50.16 34.08 49.94 35.50 C 50.78 35.42 52.45 35.26 53.28 35.18 C 52.73 32.23 52.20 29.28 51.78 26.31 C 53.60 27.54 55.38 28.82 57.12 30.14 C 58.73 30.27 60.34 30.44 61.94 30.61 C 62.19 28.56 62.44 26.51 62.71 24.47 C 61.24 24.19 59.76 23.87 58.27 23.76 C 57.27 24.60 56.43 25.60 55.56 26.55 M 64.59 36.12 C 66.04 36.51 67.50 36.89 68.96 37.26 C 70.06 40.11 71.55 42.86 72.10 45.89 C 71.29 49.19 68.11 50.73 65.20 51.79 C 64.18 48.81 63.28 45.79 62.14 42.85 C 62.71 46.16 62.56 50.20 65.32 52.58 C 70.48 52.73 76.75 46.77 73.56 41.64 C 72.59 39.56 71.84 37.27 70.16 35.63 C 68.62 33.81 66.40 35.78 64.59 36.12 M 46.51 42.55 C 44.11 45.62 43.94 50.68 39.87 52.24 C 37.23 52.27 34.74 51.26 32.27 50.44 C 30.81 53.24 29.31 56.02 27.94 58.86 C 29.38 58.78 30.81 58.68 32.25 58.58 C 32.23 57.07 32.22 55.55 32.22 54.04 C 34.28 54.37 36.34 54.80 38.41 55.07 C 37.17 55.45 35.97 55.96 34.76 56.45 C 38.51 58.44 42.58 60.26 46.95 59.56 C 44.99 58.86 43.01 58.20 41.03 57.58 C 41.29 56.65 41.55 55.73 41.81 54.82 C 44.52 54.89 46.34 52.70 48.20 51.08 C 48.76 51.34 49.87 51.87 50.43 52.14 C 49.66 54.08 48.89 56.01 48.12 57.95 C 49.52 55.87 50.75 53.48 53.08 52.30 C 53.76 57.47 51.85 62.57 50.20 67.40 C 53.32 69.34 56.67 70.99 60.40 71.25 C 59.25 69.08 57.93 67.00 56.60 64.93 C 58.14 62.39 60.15 60.07 61.17 57.25 C 61.71 54.51 61.26 51.71 61.23 48.94 C 58.77 48.08 56.30 47.24 53.84 46.38 C 54.84 43.60 56.25 40.99 57.79 38.47 C 53.99 39.68 49.99 40.54 46.51 42.55 Z" />
<path fill="#ffffff" opacity="1.00" d=" M 55.56 26.55 C 56.43 25.60 57.27 24.60 58.27 23.76 C 59.76 23.87 61.24 24.19 62.71 24.47 C 62.44 26.51 62.19 28.56 61.94 30.61 C 60.34 30.44 58.73 30.27 57.12 30.14 C 55.38 28.82 53.60 27.54 51.78 26.31 C 52.20 29.28 52.73 32.23 53.28 35.18 C 52.45 35.26 50.78 35.42 49.94 35.50 C 50.16 34.08 50.37 32.65 50.58 31.22 C 48.73 31.29 46.82 31.20 45.05 31.85 C 42.92 33.64 41.84 36.32 40.47 38.67 C 46.22 36.86 52.26 36.17 57.89 33.94 C 65.36 31.75 72.55 28.09 80.46 27.89 C 74.94 32.47 67.73 33.79 61.15 36.15 C 50.82 39.14 41.02 44.09 30.17 45.04 C 31.11 42.63 33.33 41.42 35.62 40.57 C 36.03 36.97 36.60 33.39 37.37 29.85 C 41.66 29.04 45.70 27.40 49.80 25.99 C 51.71 25.20 53.68 26.13 55.56 26.55 Z" />
<path fill="#ffffff" opacity="1.00" d=" M 14.95 29.36 C 15.38 29.59 16.25 30.05 16.68 30.27 C 20.36 33.36 24.62 36.50 29.72 35.86 C 31.41 35.21 33.06 34.46 34.75 33.81 L 35.82 33.88 C 31.73 37.86 25.74 39.72 20.22 37.81 C 16.26 37.06 16.01 32.44 14.95 29.36 Z" />
<path fill="#b61c2e" opacity="1.00" d=" M 16.68 30.27 C 21.25 31.58 25.49 33.74 29.72 35.86 C 24.62 36.50 20.36 33.36 16.68 30.27 Z" />
<path fill="#ffffff" opacity="1.00" d=" M 64.59 36.12 C 66.40 35.78 68.62 33.81 70.16 35.63 C 71.84 37.27 72.59 39.56 73.56 41.64 C 76.75 46.77 70.48 52.73 65.32 52.58 C 62.56 50.20 62.71 46.16 62.14 42.85 C 63.28 45.79 64.18 48.81 65.20 51.79 C 68.11 50.73 71.29 49.19 72.10 45.89 C 71.55 42.86 70.06 40.11 68.96 37.26 C 67.50 36.89 66.04 36.51 64.59 36.12 Z" />
<path fill="#ffffff" opacity="1.00" d=" M 46.51 42.55 C 49.99 40.54 53.99 39.68 57.79 38.47 C 56.25 40.99 54.84 43.60 53.84 46.38 C 56.30 47.24 58.77 48.08 61.23 48.94 C 61.26 51.71 61.71 54.51 61.17 57.25 C 60.15 60.07 58.14 62.39 56.60 64.93 C 57.93 67.00 59.25 69.08 60.40 71.25 C 56.67 70.99 53.32 69.34 50.20 67.40 C 51.85 62.57 53.76 57.47 53.08 52.30 C 50.75 53.48 49.52 55.87 48.12 57.95 C 48.89 56.01 49.66 54.08 50.43 52.14 C 49.87 51.87 48.76 51.34 48.20 51.08 C 46.34 52.70 44.52 54.89 41.81 54.82 C 40.68 54.91 39.55 55.00 38.41 55.07 C 36.34 54.80 34.28 54.37 32.22 54.04 C 32.22 55.55 32.23 57.07 32.25 58.58 C 30.81 58.68 29.38 58.78 27.94 58.86 C 29.31 56.02 30.81 53.24 32.27 50.44 C 34.74 51.26 37.23 52.27 39.87 52.24 C 43.94 50.68 44.11 45.62 46.51 42.55 M 55.55 52.92 C 54.55 55.76 53.68 58.65 53.39 61.66 C 54.24 61.67 55.95 61.70 56.80 61.71 C 58.04 60.07 59.31 58.45 60.55 56.82 C 58.89 55.51 57.23 54.21 55.55 52.92 Z" />
<path fill="#b61f30" opacity="1.00" d=" M 55.55 52.92 C 57.23 54.21 58.89 55.51 60.55 56.82 C 59.31 58.45 58.04 60.07 56.80 61.71 C 55.95 61.70 54.24 61.67 53.39 61.66 C 53.68 58.65 54.55 55.76 55.55 52.92 Z" />
<path fill="#cc5f6c" opacity="1.00" d=" M 38.41 55.07 C 39.55 55.00 40.68 54.91 41.81 54.82 C 41.55 55.73 41.29 56.65 41.03 57.58 C 43.01 58.20 44.99 58.86 46.95 59.56 C 42.58 60.26 38.51 58.44 34.76 56.45 C 35.97 55.96 37.17 55.45 38.41 55.07 Z" />
</svg>
