<?xml version="1.0" encoding="UTF-8" ?>
<!DOCTYPE svg PUBLIC "-//W3C//DTD SVG 1.1//EN" "http://www.w3.org/Graphics/SVG/1.1/DTD/svg11.dtd">
<svg width="100pt" height="100pt" viewBox="0 0 100 100" version="1.1" xmlns="http://www.w3.org/2000/svg">
<path fill="#ffffff" opacity="1.00" d=" M 42.45 12.61 C 60.89 8.24 81.24 20.57 86.41 38.73 C 91.91 54.41 84.75 73.01 70.92 81.88 C 61.53 87.92 49.45 90.23 38.77 86.42 C 20.06 81.14 7.61 59.75 12.96 40.95 C 16.23 26.82 28.24 15.36 42.45 12.61 M 45.40 15.58 C 37.43 16.59 29.92 20.57 24.51 26.49 C 13.62 37.85 12.20 56.78 21.39 69.59 C 29.97 82.67 47.91 88.27 62.43 82.43 C 78.17 76.66 87.98 58.49 83.82 42.18 C 80.20 25.23 62.60 12.86 45.40 15.58 Z" />
<path fill="#482b46" opacity="1.00" d=" M 45.40 15.58 C 62.60 12.86 80.20 25.23 83.82 42.18 C 87.98 58.49 78.17 76.66 62.43 82.43 C 47.91 88.27 29.97 82.67 21.39 69.59 C 12.20 56.78 13.62 37.85 24.51 26.49 C 29.92 20.57 37.43 16.59 45.40 15.58 M 44.61 44.67 C 36.08 46.75 27.37 48.01 18.78 49.80 C 27.17 52.52 36.12 53.00 44.64 55.33 C 46.64 63.92 47.49 72.80 50.16 81.22 C 52.16 72.65 53.22 63.88 55.34 55.34 C 63.82 52.94 72.81 52.69 81.14 49.83 C 72.60 47.81 63.91 46.51 55.34 44.63 C 53.19 36.12 52.18 27.39 50.21 18.86 C 47.33 27.19 46.76 36.13 44.61 44.67 M 55.54 23.41 C 59.08 25.67 63.22 26.66 67.37 26.98 C 63.84 24.69 59.74 23.50 55.54 23.41 M 27.41 46.36 C 28.85 46.13 30.28 45.90 31.72 45.66 C 32.86 41.49 33.82 37.05 36.66 33.64 C 39.12 30.69 42.20 28.27 44.29 25.00 C 34.26 26.84 28.10 36.75 27.41 46.36 M 56.48 27.85 C 57.72 31.47 61.47 32.73 64.35 34.71 C 68.41 37.35 71.36 41.31 75.26 44.15 C 73.08 35.53 65.32 28.80 56.48 27.85 M 23.33 44.41 C 25.00 41.80 25.95 38.82 26.68 35.82 C 25.21 38.53 24.03 41.40 23.33 44.41 M 74.34 63.29 C 75.46 60.83 76.17 58.21 76.57 55.54 C 75.34 57.96 74.68 60.61 74.34 63.29 M 63.57 67.56 C 60.95 69.94 57.96 71.89 55.52 74.48 C 56.75 74.64 58.09 75.11 59.21 74.32 C 66.05 70.92 71.24 64.21 72.13 56.53 C 69.07 60.05 67.08 64.42 63.57 67.56 M 31.61 71.16 C 35.76 74.01 40.46 76.27 45.56 76.55 C 41.44 73.63 36.34 72.69 31.61 71.16 Z" />
<path fill="#ffffff" opacity="1.00" d=" M 44.61 44.67 C 46.76 36.13 47.33 27.19 50.21 18.86 C 52.18 27.39 53.19 36.12 55.34 44.63 C 63.91 46.51 72.60 47.81 81.14 49.83 C 72.81 52.69 63.82 52.94 55.34 55.34 C 53.22 63.88 52.16 72.65 50.16 81.22 C 47.49 72.80 46.64 63.92 44.64 55.33 C 36.12 53.00 27.17 52.52 18.78 49.80 C 27.37 48.01 36.08 46.75 44.61 44.67 M 46.38 44.55 C 45.85 47.07 48.17 48.78 49.48 50.59 C 49.69 42.94 49.97 35.27 49.65 27.62 C 48.12 33.16 47.17 38.86 46.38 44.55 M 55.38 46.21 C 54.94 47.77 54.50 49.33 54.05 50.89 C 60.52 50.54 67.10 51.02 73.46 49.55 C 67.53 48.00 61.45 47.06 55.38 46.21 M 46.79 57.16 C 47.26 62.64 48.11 68.11 49.63 73.40 C 50.07 69.63 50.46 65.82 50.27 62.01 C 50.42 59.74 48.09 58.63 46.79 57.16 Z" />
<path fill="#a889a6" opacity="1.00" d=" M 55.54 23.41 C 59.74 23.50 63.84 24.69 67.37 26.98 C 63.22 26.66 59.08 25.67 55.54 23.41 Z" />
<path fill="#ffffff" opacity="1.00" d=" M 27.41 46.36 C 28.10 36.75 34.26 26.84 44.29 25.00 C 42.20 28.27 39.12 30.69 36.66 33.64 C 33.82 37.05 32.86 41.49 31.72 45.66 C 30.28 45.90 28.85 46.13 27.41 46.36 Z" />
<path fill="#30132e" opacity="1.00" d=" M 46.38 44.55 C 47.17 38.86 48.12 33.16 49.65 27.62 C 49.97 35.27 49.69 42.94 49.48 50.59 C 48.17 48.78 45.85 47.07 46.38 44.55 Z" />
<path fill="#ffffff" opacity="1.00" d=" M 56.48 27.85 C 65.32 28.80 73.08 35.53 75.26 44.15 C 71.36 41.31 68.41 37.35 64.35 34.71 C 61.47 32.73 57.72 31.47 56.48 27.85 Z" />
<path fill="#ffffff" opacity="1.00" d=" M 23.33 44.41 C 24.03 41.40 25.21 38.53 26.68 35.82 C 25.95 38.82 25.00 41.80 23.33 44.41 Z" />
<path fill="#361a34" opacity="1.00" d=" M 55.38 46.21 C 61.45 47.06 67.53 48.00 73.46 49.55 C 67.10 51.02 60.52 50.54 54.05 50.89 C 54.50 49.33 54.94 47.77 55.38 46.21 Z" />
<path fill="#ffffff" opacity="1.00" d=" M 74.34 63.29 C 74.68 60.61 75.34 57.96 76.57 55.54 C 76.17 58.21 75.46 60.83 74.34 63.29 Z" />
<path fill="#ffffff" opacity="1.00" d=" M 63.57 67.56 C 67.08 64.42 69.07 60.05 72.13 56.53 C 71.24 64.21 66.05 70.92 59.21 74.32 C 58.09 75.11 56.75 74.64 55.52 74.48 C 57.96 71.89 60.95 69.94 63.57 67.56 Z" />
<path fill="#30132e" opacity="1.00" d=" M 46.79 57.16 C 48.09 58.63 50.42 59.74 50.27 62.01 C 50.46 65.82 50.07 69.63 49.63 73.40 C 48.11 68.11 47.26 62.64 46.79 57.16 Z" />
<path fill="#ffffff" opacity="1.00" d=" M 31.61 71.16 C 36.34 72.69 41.44 73.63 45.56 76.55 C 40.46 76.27 35.76 74.01 31.61 71.16 Z" />
</svg>
