<?xml version="1.0" encoding="UTF-8" ?>
<!DOCTYPE svg PUBLIC "-//W3C//DTD SVG 1.1//EN" "http://www.w3.org/Graphics/SVG/1.1/DTD/svg11.dtd">
<svg width="100pt" height="100pt" viewBox="0 0 100 100" version="1.1" xmlns="http://www.w3.org/2000/svg">
<path fill="#b8b8b8" opacity="1.00" d=" M 38.52 12.65 C 41.50 9.55 45.43 6.69 49.98 7.17 C 53.73 6.76 56.79 9.28 59.47 11.54 C 61.84 13.17 61.26 16.32 61.68 18.79 C 66.20 18.71 70.71 18.73 75.23 18.70 C 80.68 33.67 85.87 48.73 91.30 63.71 C 77.29 72.92 63.31 82.17 49.42 91.56 C 35.69 82.03 21.64 72.94 7.70 63.71 C 13.13 48.73 18.33 33.67 23.77 18.70 C 28.27 18.73 32.77 18.71 37.27 18.78 C 37.62 16.74 37.51 14.52 38.52 12.65 M 43.14 12.18 C 39.88 14.71 42.47 19.02 42.89 22.26 C 37.47 22.39 32.04 22.46 26.62 22.53 C 21.95 35.70 17.20 48.84 12.61 62.04 C 24.67 70.52 37.17 78.35 49.31 86.73 C 61.71 78.62 74.09 70.48 86.29 62.08 C 82.64 51.37 78.62 40.80 75.08 30.06 C 74.22 27.65 73.45 25.16 72.02 23.01 C 66.79 21.78 61.35 22.50 56.03 22.30 C 56.62 19.69 57.56 17.10 57.49 14.39 C 55.02 9.09 47.19 8.10 43.14 12.18 Z" />
<path fill="#d96035" opacity="1.00" d=" M 43.14 12.18 C 47.19 8.10 55.02 9.09 57.49 14.39 C 57.56 17.10 56.62 19.69 56.03 22.30 C 61.35 22.50 66.79 21.78 72.02 23.01 C 73.45 25.16 74.22 27.65 75.08 30.06 C 78.62 40.80 82.64 51.37 86.29 62.08 C 74.09 70.48 61.71 78.62 49.31 86.73 C 37.17 78.35 24.67 70.52 12.61 62.04 C 17.20 48.84 21.95 35.70 26.62 22.53 C 32.04 22.46 37.47 22.39 42.89 22.26 C 42.47 19.02 39.88 14.71 43.14 12.18 M 44.82 14.51 C 46.02 18.45 46.87 22.48 47.64 26.53 C 47.98 24.05 48.20 21.55 48.45 19.06 C 48.89 19.15 49.76 19.33 50.19 19.42 C 50.32 21.85 50.58 24.26 50.79 26.67 C 52.50 22.77 53.40 18.57 54.96 14.60 C 53.32 14.01 51.72 13.20 49.98 12.92 C 48.18 13.12 46.51 13.91 44.82 14.51 M 46.95 26.48 C 46.10 31.70 47.23 37.30 45.10 42.25 C 41.61 46.34 35.69 46.46 30.73 46.84 C 27.48 46.99 25.09 49.48 22.64 51.30 C 30.24 50.84 37.97 48.76 45.49 51.09 C 43.86 52.98 42.16 54.80 40.46 56.63 C 42.06 60.04 42.12 63.80 42.34 67.48 C 43.29 73.56 44.67 80.04 49.41 84.36 C 51.06 82.74 53.32 81.34 53.74 78.88 C 54.83 73.73 56.72 68.69 56.72 63.37 C 56.73 60.96 57.55 58.67 58.45 56.46 C 56.69 54.75 54.94 53.04 53.22 51.29 C 60.54 48.47 68.25 50.63 75.75 51.12 C 73.50 49.29 71.34 46.68 68.19 46.68 C 63.27 46.32 57.33 46.30 53.87 42.22 C 51.81 37.23 53.03 31.64 52.29 26.40 C 49.96 32.55 49.39 39.99 53.85 45.38 C 50.48 45.66 47.10 45.70 43.72 45.63 C 49.36 40.91 48.98 32.88 46.95 26.48 M 61.27 31.65 C 64.61 33.92 68.21 35.97 70.77 39.16 C 72.80 41.71 74.38 44.58 76.33 47.18 C 75.26 44.02 74.04 40.78 71.70 38.31 C 68.88 35.20 64.96 33.50 61.27 31.65 M 25.33 40.33 C 23.43 42.94 22.66 46.13 21.90 49.20 C 23.50 46.64 24.78 43.89 26.36 41.31 C 28.46 37.83 31.79 35.39 34.75 32.70 C 31.31 34.81 27.71 36.97 25.33 40.33 M 21.98 52.50 C 22.36 62.60 31.11 70.19 40.55 72.06 C 37.40 68.14 32.52 66.41 28.85 63.13 C 25.85 60.09 24.40 55.96 21.98 52.50 M 69.47 63.44 C 65.69 66.63 60.76 68.28 57.53 72.16 C 67.25 70.49 76.28 62.75 76.69 52.42 C 74.20 56.04 72.71 60.38 69.47 63.44 Z" />
<path fill="#ffffff" opacity="1.00" d=" M 44.82 14.51 C 46.51 13.91 48.18 13.12 49.98 12.92 C 51.72 13.20 53.32 14.01 54.96 14.60 C 53.40 18.57 52.50 22.77 50.79 26.67 C 50.58 24.26 50.32 21.85 50.19 19.42 C 49.76 19.33 48.89 19.15 48.45 19.06 C 48.20 21.55 47.98 24.05 47.64 26.53 C 46.87 22.48 46.02 18.45 44.82 14.51 Z" />
<path fill="#ffffff" opacity="1.00" d=" M 46.95 26.48 C 48.98 32.88 49.36 40.91 43.72 45.63 C 47.10 45.70 50.48 45.66 53.85 45.38 C 49.39 39.99 49.96 32.55 52.29 26.40 C 53.03 31.64 51.81 37.23 53.87 42.22 C 57.33 46.30 63.27 46.32 68.19 46.68 C 71.34 46.68 73.50 49.29 75.75 51.12 C 68.25 50.63 60.54 48.47 53.22 51.29 C 54.94 53.04 56.69 54.75 58.45 56.46 C 57.55 58.67 56.73 60.96 56.72 63.37 C 56.72 68.69 54.83 73.73 53.74 78.88 C 53.32 81.34 51.06 82.74 49.41 84.36 C 44.67 80.04 43.29 73.56 42.34 67.48 C 42.12 63.80 42.06 60.04 40.46 56.63 C 42.16 54.80 43.86 52.98 45.49 51.09 C 37.97 48.76 30.24 50.84 22.64 51.30 C 25.09 49.48 27.48 46.99 30.73 46.84 C 35.69 46.46 41.61 46.34 45.10 42.25 C 47.23 37.30 46.10 31.70 46.95 26.48 M 49.28 68.50 C 50.27 64.90 51.27 61.28 51.65 57.56 C 52.06 54.69 50.32 52.19 49.16 49.72 C 45.26 55.52 47.79 62.38 49.28 68.50 Z" />
<path fill="#ffffff" opacity="1.00" d=" M 61.27 31.65 C 64.96 33.50 68.88 35.20 71.70 38.31 C 74.04 40.78 75.26 44.02 76.33 47.18 C 74.38 44.58 72.80 41.71 70.77 39.16 C 68.21 35.97 64.61 33.92 61.27 31.65 Z" />
<path fill="#ffffff" opacity="1.00" d=" M 25.33 40.33 C 27.71 36.97 31.31 34.81 34.75 32.70 C 31.79 35.39 28.46 37.83 26.36 41.31 C 24.78 43.89 23.50 46.64 21.90 49.20 C 22.66 46.13 23.43 42.94 25.33 40.33 Z" />
<path fill="#d75a2d" opacity="1.00" d=" M 49.28 68.50 C 47.79 62.38 45.26 55.52 49.16 49.72 C 50.32 52.19 52.06 54.69 51.65 57.56 C 51.27 61.28 50.27 64.90 49.28 68.50 Z" />
<path fill="#ffffff" opacity="1.00" d=" M 21.98 52.50 C 24.40 55.96 25.85 60.09 28.85 63.13 C 32.52 66.41 37.40 68.14 40.55 72.06 C 31.11 70.19 22.36 62.60 21.98 52.50 Z" />
<path fill="#ffffff" opacity="1.00" d=" M 69.47 63.44 C 72.71 60.38 74.20 56.04 76.69 52.42 C 76.28 62.75 67.25 70.49 57.53 72.16 C 60.76 68.28 65.69 66.63 69.47 63.44 Z" />
</svg>
