<?xml version="1.0" encoding="UTF-8" ?>
<!DOCTYPE svg PUBLIC "-//W3C//DTD SVG 1.1//EN" "http://www.w3.org/Graphics/SVG/1.1/DTD/svg11.dtd">
<svg width="100pt" height="100pt" viewBox="0 0 100 100" version="1.1" xmlns="http://www.w3.org/2000/svg">
<path fill="#b8c4c8" opacity="1.00" d=" M 15.77 16.77 C 18.71 14.24 22.81 12.04 26.73 12.75 C 30.49 16.49 33.69 20.79 37.21 24.75 C 36.51 26.67 35.58 28.55 35.30 30.59 C 40.03 35.58 45.38 39.97 50.24 44.84 C 55.63 39.70 61.34 34.89 66.50 29.52 C 66.36 27.73 65.74 26.02 65.28 24.29 C 69.12 20.55 72.19 16.08 76.14 12.47 C 81.95 12.66 88.17 16.12 89.91 21.95 C 90.72 24.59 91.23 27.34 91.44 30.09 C 90.43 32.31 88.55 34.02 87.11 35.97 C 88.01 40.17 91.57 45.16 88.06 49.04 C 85.50 51.52 81.14 50.92 78.67 53.61 C 75.64 56.65 72.53 59.61 69.59 62.73 C 77.18 70.02 85.11 76.94 92.59 84.34 C 84.71 84.54 76.83 84.59 68.96 84.44 C 65.84 84.50 63.86 81.67 61.64 79.91 C 57.90 81.41 54.44 83.48 51.18 85.84 C 47.68 83.17 43.75 81.15 39.88 79.08 C 37.22 81.25 34.90 84.81 31.05 84.48 C 23.16 84.53 15.26 84.57 7.38 84.34 C 15.42 76.60 23.81 69.22 32.08 61.71 C 29.15 59.01 26.27 56.27 23.49 53.42 C 20.90 50.55 15.80 51.66 13.75 48.12 C 11.20 44.49 14.91 40.39 14.42 36.45 C 12.33 34.03 9.81 32.05 7.54 29.82 C 8.88 29.68 10.22 29.56 11.57 29.44 C 11.64 24.96 12.12 19.88 15.77 16.77 M 13.23 25.23 C 12.37 30.21 17.68 34.22 15.97 39.16 C 15.61 42.07 13.13 45.78 15.86 48.21 C 17.58 50.22 20.19 49.08 22.33 48.67 C 25.84 53.92 30.71 58.00 34.75 62.81 C 28.57 69.15 21.47 74.52 15.47 81.05 C 20.65 81.31 25.85 81.75 31.02 81.26 C 34.65 80.93 36.96 77.77 39.52 75.54 C 42.86 78.60 46.50 81.93 51.13 82.71 C 55.30 82.10 58.59 79.04 62.15 77.00 C 64.57 78.69 66.88 80.97 69.97 81.25 C 74.81 81.75 79.69 81.32 84.54 81.04 C 79.15 74.85 72.60 69.85 66.89 63.99 C 70.82 58.50 76.31 54.37 80.04 48.72 C 82.32 49.19 85.26 50.27 86.91 47.91 C 89.84 43.78 84.38 38.85 86.53 34.47 C 87.42 32.29 88.60 30.20 89.13 27.89 C 90.28 20.78 83.48 13.63 76.33 14.50 C 74.26 14.91 75.55 17.54 75.39 19.00 C 73.31 19.51 70.82 19.74 69.66 21.83 C 68.71 23.33 67.10 25.16 68.03 27.03 C 68.72 28.79 69.63 30.44 70.49 32.12 C 63.00 34.84 58.57 41.82 52.50 46.54 C 51.66 47.13 50.63 48.13 49.56 47.37 C 46.24 45.50 43.78 42.50 40.98 39.98 C 38.19 37.21 34.92 34.90 32.44 31.82 C 33.00 29.60 34.16 27.57 34.56 25.31 C 33.78 21.77 30.65 19.68 27.56 18.30 C 27.55 17.07 27.54 15.84 27.54 14.61 C 20.84 13.51 13.94 18.39 13.23 25.23 Z" />
<path fill="#bc532e" opacity="1.00" d=" M 13.23 25.23 C 13.94 18.39 20.84 13.51 27.54 14.61 C 27.54 15.84 27.55 17.07 27.56 18.30 C 30.65 19.68 33.78 21.77 34.56 25.31 C 34.16 27.57 33.00 29.60 32.44 31.82 C 34.92 34.90 38.19 37.21 40.98 39.98 C 43.78 42.50 46.24 45.50 49.56 47.37 C 50.63 48.13 51.66 47.13 52.50 46.54 C 58.57 41.82 63.00 34.84 70.49 32.12 C 69.63 30.44 68.72 28.79 68.03 27.03 C 67.10 25.16 68.71 23.33 69.66 21.83 C 70.82 19.74 73.31 19.51 75.39 19.00 C 75.55 17.54 74.26 14.91 76.33 14.50 C 83.48 13.63 90.28 20.78 89.13 27.89 C 88.60 30.20 87.42 32.29 86.53 34.47 C 84.38 38.85 89.84 43.78 86.91 47.91 C 85.26 50.27 82.32 49.19 80.04 48.72 C 76.31 54.37 70.82 58.50 66.89 63.99 C 72.60 69.85 79.15 74.85 84.54 81.04 C 79.69 81.32 74.81 81.75 69.97 81.25 C 66.88 80.97 64.57 78.69 62.15 77.00 C 58.59 79.04 55.30 82.10 51.13 82.71 C 46.50 81.93 42.86 78.60 39.52 75.54 C 36.96 77.77 34.65 80.93 31.02 81.26 C 25.85 81.75 20.65 81.31 15.47 81.05 C 21.47 74.52 28.57 69.15 34.75 62.81 C 30.71 58.00 25.84 53.92 22.33 48.67 C 20.19 49.08 17.58 50.22 15.86 48.21 C 13.13 45.78 15.61 42.07 15.97 39.16 C 17.68 34.22 12.37 30.21 13.23 25.23 M 15.70 22.69 C 13.80 26.92 15.62 31.54 18.66 34.68 C 18.85 32.52 19.00 30.34 19.11 28.17 C 20.82 28.64 22.53 29.09 24.25 29.55 C 20.90 33.47 17.94 37.79 16.72 42.88 C 18.22 43.42 19.69 44.08 21.25 44.40 C 23.01 44.31 24.55 43.29 26.15 42.64 C 25.21 44.05 24.29 45.47 23.37 46.90 C 26.17 51.25 29.76 55.02 33.84 58.19 C 36.53 60.17 37.86 63.30 38.96 66.34 C 39.24 67.09 39.81 68.59 40.09 69.34 C 41.51 69.65 42.98 69.62 44.44 69.64 C 41.68 71.97 42.16 75.56 43.70 78.45 C 44.18 77.56 45.15 75.77 45.63 74.88 C 46.03 76.36 46.43 77.84 46.82 79.32 C 49.52 80.36 52.41 80.58 55.18 79.69 C 55.55 77.06 55.97 74.43 56.47 71.82 C 57.40 73.99 58.25 76.19 59.14 78.38 C 59.80 76.13 59.55 73.81 58.96 71.58 C 60.22 70.63 61.49 69.69 62.76 68.76 C 60.81 68.92 58.87 69.08 56.93 69.20 C 56.76 68.90 56.43 68.30 56.27 68.00 C 58.96 67.14 63.36 67.75 64.26 64.38 C 64.14 60.64 61.87 56.93 63.84 53.26 C 64.02 54.88 64.17 56.51 64.31 58.13 C 66.15 56.32 68.01 54.50 69.97 52.82 C 68.30 55.61 66.35 58.22 64.61 60.97 C 70.39 57.47 75.34 52.71 78.93 46.99 C 78.24 45.89 77.55 44.80 76.86 43.70 C 79.79 44.64 83.43 45.09 85.29 41.99 C 85.11 36.92 80.19 34.01 78.95 29.50 C 80.30 28.90 81.68 28.41 83.06 27.88 C 83.22 30.15 83.42 32.42 83.68 34.68 C 86.63 31.70 88.65 27.36 86.91 23.21 C 85.73 18.89 81.37 17.03 77.52 15.72 C 77.27 18.03 76.97 20.34 76.57 22.63 C 77.30 23.15 78.03 23.67 78.76 24.19 C 78.45 25.22 78.13 26.24 77.82 27.26 C 76.36 24.96 74.97 22.61 73.51 20.30 C 72.22 22.27 70.97 24.25 69.63 26.18 C 70.72 27.49 71.85 28.75 73.07 29.94 C 74.27 30.67 75.48 31.42 76.48 32.42 C 77.11 35.39 76.00 38.66 73.58 40.53 C 70.32 43.26 66.69 45.64 64.01 48.99 C 61.93 51.99 60.72 55.50 58.49 58.41 C 56.78 61.04 54.10 63.31 53.72 66.59 C 53.13 70.54 52.60 74.50 52.04 78.45 C 51.30 78.10 50.55 77.74 49.81 77.38 L 50.44 77.64 C 50.17 77.19 49.63 76.29 49.36 75.84 C 50.12 72.87 49.90 69.72 47.44 67.59 L 47.13 67.54 C 47.78 67.17 49.08 66.43 49.73 66.06 C 46.39 61.81 42.81 57.63 40.72 52.58 C 44.12 55.49 46.25 59.56 49.53 62.57 C 50.94 62.92 52.70 63.06 53.74 61.83 C 56.33 59.34 58.19 56.24 60.13 53.25 C 59.05 52.95 57.97 52.66 56.89 52.37 C 61.45 50.61 61.81 45.30 63.41 41.33 C 60.06 43.02 57.67 45.95 56.99 49.68 C 53.24 49.62 49.49 49.61 45.74 49.67 C 44.78 46.09 42.45 43.17 39.19 41.42 C 40.41 45.76 42.11 49.98 44.75 53.66 C 38.81 50.71 35.16 44.89 29.71 41.26 C 26.73 39.38 25.30 35.72 25.86 32.30 C 27.08 31.45 28.45 30.85 29.77 30.19 C 30.70 28.74 31.74 27.37 32.78 26.00 C 31.32 24.23 30.02 22.34 28.91 20.34 C 27.25 22.69 25.64 25.07 24.01 27.43 C 24.62 23.53 25.42 19.65 25.60 15.69 C 21.66 16.79 17.16 18.44 15.70 22.69 M 15.26 44.40 C 16.79 45.72 18.23 47.13 19.53 48.67 C 19.74 47.70 20.16 45.76 20.37 44.78 C 18.67 44.65 16.97 44.52 15.26 44.40 M 82.65 44.67 C 82.46 45.46 82.07 47.03 81.87 47.82 C 84.26 47.91 85.72 46.23 86.77 44.30 C 85.40 44.41 84.02 44.54 82.65 44.67 Z" />
<path fill="#ffffff" opacity="1.00" d=" M 15.70 22.69 C 17.16 18.44 21.66 16.79 25.60 15.69 C 25.42 19.65 24.62 23.53 24.01 27.43 C 25.64 25.07 27.25 22.69 28.91 20.34 C 30.02 22.34 31.32 24.23 32.78 26.00 C 31.74 27.37 30.70 28.74 29.77 30.19 C 28.45 30.85 27.08 31.45 25.86 32.30 C 25.30 35.72 26.73 39.38 29.71 41.26 C 35.16 44.89 38.81 50.71 44.75 53.66 C 42.11 49.98 40.41 45.76 39.19 41.42 C 42.45 43.17 44.78 46.09 45.74 49.67 C 49.49 49.61 53.24 49.62 56.99 49.68 C 57.67 45.95 60.06 43.02 63.41 41.33 C 61.81 45.30 61.45 50.61 56.89 52.37 C 57.97 52.66 59.05 52.95 60.13 53.25 C 58.19 56.24 56.33 59.34 53.74 61.83 C 52.70 63.06 50.94 62.92 49.53 62.57 C 46.25 59.56 44.12 55.49 40.72 52.58 C 42.81 57.63 46.39 61.81 49.73 66.06 C 49.08 66.43 47.78 67.17 47.13 67.54 C 44.41 67.10 41.69 66.70 38.96 66.34 C 37.86 63.30 36.53 60.17 33.84 58.19 C 29.76 55.02 26.17 51.25 23.37 46.90 C 24.29 45.47 25.21 44.05 26.15 42.64 C 24.55 43.29 23.01 44.31 21.25 44.40 C 19.69 44.08 18.22 43.42 16.72 42.88 C 17.94 37.79 20.90 33.47 24.25 29.55 C 22.53 29.09 20.82 28.64 19.11 28.17 C 19.00 30.34 18.85 32.52 18.66 34.68 C 15.62 31.54 13.80 26.92 15.70 22.69 M 19.77 40.28 C 21.61 40.13 23.45 40.04 25.29 40.05 C 24.19 39.88 23.08 39.70 21.97 39.53 C 21.80 38.19 21.62 36.86 21.43 35.53 C 20.86 37.11 20.31 38.69 19.77 40.28 M 27.47 42.23 C 28.50 44.53 29.64 46.78 30.84 49.00 C 30.24 50.03 29.65 51.06 29.06 52.10 C 30.61 51.02 32.16 49.92 33.71 48.83 C 31.54 46.71 29.52 44.46 27.47 42.23 M 45.75 53.37 C 47.11 54.19 48.47 55.01 49.83 55.83 C 49.63 54.58 49.43 53.34 49.24 52.10 C 50.41 52.03 51.59 51.98 52.76 51.94 C 52.87 52.71 53.08 54.25 53.18 55.02 C 54.37 54.53 55.56 54.05 56.75 53.57 C 55.41 52.36 54.26 50.86 52.64 50.02 C 49.79 49.15 47.78 51.88 45.75 53.37 M 33.29 53.75 C 32.40 55.00 34.20 57.23 35.60 56.52 C 36.43 55.27 34.69 53.03 33.29 53.75 M 38.80 53.42 C 37.65 56.34 37.00 59.54 38.33 62.52 C 39.41 59.59 39.96 56.42 38.80 53.42 M 47.10 58.01 C 48.59 58.90 49.92 60.93 51.90 60.33 C 53.55 59.55 54.98 58.39 56.44 57.31 C 53.32 57.42 50.20 57.65 47.10 58.01 Z" />
<path fill="#ffffff" opacity="1.00" d=" M 77.52 15.72 C 81.37 17.03 85.73 18.89 86.91 23.21 C 88.65 27.36 86.63 31.70 83.68 34.68 C 83.42 32.42 83.22 30.15 83.06 27.88 C 81.68 28.41 80.30 28.90 78.95 29.50 C 80.19 34.01 85.11 36.92 85.29 41.99 C 83.43 45.09 79.79 44.64 76.86 43.70 C 77.55 44.80 78.24 45.89 78.93 46.99 C 75.34 52.71 70.39 57.47 64.61 60.97 C 66.35 58.22 68.30 55.61 69.97 52.82 C 68.01 54.50 66.15 56.32 64.31 58.13 C 64.17 56.51 64.02 54.88 63.84 53.26 C 61.87 56.93 64.14 60.64 64.26 64.38 C 63.36 67.75 58.96 67.14 56.27 68.00 C 56.43 68.30 56.76 68.90 56.93 69.20 C 58.87 69.08 60.81 68.92 62.76 68.76 C 61.49 69.69 60.22 70.63 58.96 71.58 C 59.55 73.81 59.80 76.13 59.14 78.38 C 58.25 76.19 57.40 73.99 56.47 71.82 C 55.97 74.43 55.55 77.06 55.18 79.69 C 52.41 80.58 49.52 80.36 46.82 79.32 C 46.88 78.50 47.00 76.87 47.06 76.06 C 47.97 76.51 48.89 76.95 49.81 77.38 C 50.55 77.74 51.30 78.10 52.04 78.45 C 52.60 74.50 53.13 70.54 53.72 66.59 C 54.10 63.31 56.78 61.04 58.49 58.41 C 60.72 55.50 61.93 51.99 64.01 48.99 C 66.69 45.64 70.32 43.26 73.58 40.53 C 76.00 38.66 77.11 35.39 76.48 32.42 C 75.48 31.42 74.27 30.67 73.07 29.94 C 71.85 28.75 70.72 27.49 69.63 26.18 C 70.97 24.25 72.22 22.27 73.51 20.30 C 74.97 22.61 76.36 24.96 77.82 27.26 C 78.13 26.24 78.45 25.22 78.76 24.19 C 78.03 23.67 77.30 23.15 76.57 22.63 C 76.97 20.34 77.27 18.03 77.52 15.72 M 80.66 34.76 C 80.54 36.22 80.46 37.68 80.39 39.15 C 79.47 39.62 78.55 40.10 77.64 40.59 C 78.89 40.49 80.14 40.40 81.37 40.14 C 82.34 38.39 81.04 36.50 80.66 34.76 M 74.01 42.45 C 72.46 44.87 70.46 46.95 68.02 48.48 C 68.90 48.91 69.78 49.34 70.67 49.78 C 72.09 47.59 73.51 45.39 74.88 43.17 C 74.66 42.99 74.23 42.63 74.01 42.45 Z" />
<path fill="#bc532e" opacity="1.00" d=" M 80.66 34.76 C 81.04 36.50 82.34 38.39 81.37 40.14 C 80.14 40.40 78.89 40.49 77.64 40.59 C 78.55 40.10 79.47 39.62 80.39 39.15 C 80.46 37.68 80.54 36.22 80.66 34.76 Z" />
<path fill="#bc532e" opacity="1.00" d=" M 19.77 40.28 C 20.31 38.69 20.86 37.11 21.43 35.53 C 21.62 36.86 21.80 38.19 21.97 39.53 C 23.08 39.70 24.19 39.88 25.29 40.05 C 23.45 40.04 21.61 40.13 19.77 40.28 Z" />
<path fill="#bc532e" opacity="1.00" d=" M 27.47 42.23 C 29.52 44.46 31.54 46.71 33.71 48.83 C 32.16 49.92 30.61 51.02 29.06 52.10 C 29.65 51.06 30.24 50.03 30.84 49.00 C 29.64 46.78 28.50 44.53 27.47 42.23 Z" />
<path fill="#bc532e" opacity="1.00" d=" M 74.01 42.45 C 74.23 42.63 74.66 42.99 74.88 43.17 C 73.51 45.39 72.09 47.59 70.67 49.78 C 69.78 49.34 68.90 48.91 68.02 48.48 C 70.46 46.95 72.46 44.87 74.01 42.45 Z" />
<path fill="#f8ede9" opacity="1.00" d=" M 15.26 44.40 C 16.97 44.52 18.67 44.65 20.37 44.78 C 20.16 45.76 19.74 47.70 19.53 48.67 C 18.23 47.13 16.79 45.72 15.26 44.40 Z" />
<path fill="#ffffff" opacity="1.00" d=" M 82.65 44.67 C 84.02 44.54 85.40 44.41 86.77 44.30 C 85.72 46.23 84.26 47.91 81.87 47.82 C 82.07 47.03 82.46 45.46 82.65 44.67 Z" />
<path fill="#bc532e" opacity="1.00" d=" M 45.75 53.37 C 47.78 51.88 49.79 49.15 52.64 50.02 C 54.26 50.86 55.41 52.36 56.75 53.57 C 55.56 54.05 54.37 54.53 53.18 55.02 C 53.08 54.25 52.87 52.71 52.76 51.94 C 51.59 51.98 50.41 52.03 49.24 52.10 C 49.43 53.34 49.63 54.58 49.83 55.83 C 48.47 55.01 47.11 54.19 45.75 53.37 Z" />
<path fill="#bc532e" opacity="1.00" d=" M 33.29 53.75 C 34.69 53.03 36.43 55.27 35.60 56.52 C 34.20 57.23 32.40 55.00 33.29 53.75 Z" />
<path fill="#bc532e" opacity="1.00" d=" M 38.80 53.42 C 39.96 56.42 39.41 59.59 38.33 62.52 C 37.00 59.54 37.65 56.34 38.80 53.42 Z" />
<path fill="#b94c27" opacity="1.00" d=" M 47.10 58.01 C 50.20 57.65 53.32 57.42 56.44 57.31 C 54.98 58.39 53.55 59.55 51.90 60.33 C 49.92 60.93 48.59 58.90 47.10 58.01 Z" />
<path fill="#f3dfd8" opacity="1.00" d=" M 38.96 66.34 C 41.69 66.70 44.41 67.10 47.13 67.54 L 47.44 67.59 C 46.79 70.54 47.56 73.44 49.36 75.84 C 49.63 76.29 50.17 77.19 50.44 77.64 L 49.81 77.38 C 48.89 76.95 47.97 76.51 47.06 76.06 C 47.00 76.87 46.88 78.50 46.82 79.32 C 46.43 77.84 46.03 76.36 45.63 74.88 C 45.15 75.77 44.18 77.56 43.70 78.45 C 42.16 75.56 41.68 71.97 44.44 69.64 C 42.98 69.62 41.51 69.65 40.09 69.34 C 39.81 68.59 39.24 67.09 38.96 66.34 Z" />
<path fill="#fbf4f2" opacity="1.00" d=" M 49.36 75.84 C 47.56 73.44 46.79 70.54 47.44 67.59 C 49.90 69.72 50.12 72.87 49.36 75.84 Z" />
</svg>
