<?xml version="1.0" encoding="UTF-8" ?>
<!DOCTYPE svg PUBLIC "-//W3C//DTD SVG 1.1//EN" "http://www.w3.org/Graphics/SVG/1.1/DTD/svg11.dtd">
<svg width="100pt" height="100pt" viewBox="0 0 100 100" version="1.1" xmlns="http://www.w3.org/2000/svg">
<path fill="#bab9bb" opacity="1.00" d=" M 33.43 23.08 C 37.21 20.61 39.96 16.70 44.16 14.87 C 48.99 13.80 54.00 14.90 58.65 16.34 C 62.35 17.42 64.10 21.86 67.89 22.66 C 77.75 22.71 87.62 22.49 97.48 22.67 C 92.42 27.56 87.25 32.33 82.05 37.07 C 80.68 38.40 79.16 39.66 78.23 41.35 C 77.78 43.19 77.79 45.10 77.64 46.98 C 77.43 52.01 74.93 56.54 73.15 61.14 C 80.94 69.18 89.54 76.37 97.50 84.22 C 88.98 84.26 80.44 84.36 71.92 84.26 C 69.66 84.32 67.67 83.20 65.74 82.21 C 63.39 80.73 60.54 81.80 57.98 81.87 C 55.32 81.91 53.01 83.26 50.85 84.67 C 46.94 82.01 42.20 81.68 37.62 81.46 C 34.10 80.90 31.59 84.51 28.07 84.24 C 19.21 84.37 10.35 84.27 1.50 84.21 C 9.76 76.29 18.44 68.82 26.76 60.96 C 24.70 56.17 22.28 51.32 22.15 45.99 C 21.84 44.09 22.23 41.76 20.61 40.37 C 14.43 34.29 7.71 28.77 1.53 22.69 C 12.17 22.62 22.83 22.34 33.43 23.08 M 35.76 25.85 C 34.11 27.46 31.71 26.95 29.66 26.78 C 23.31 26.04 16.91 26.15 10.54 26.40 C 14.58 30.73 19.30 34.35 23.48 38.53 C 25.80 40.68 25.60 44.06 26.19 46.91 C 26.70 51.20 29.01 54.97 29.93 59.15 C 30.75 62.15 27.96 64.26 26.12 66.14 C 20.74 70.96 15.31 75.75 10.02 80.67 C 16.01 80.58 22.01 81.01 27.99 80.58 C 31.73 80.38 34.27 77.29 37.04 75.15 C 40.90 77.92 45.39 79.90 50.17 80.23 C 54.74 80.09 58.93 77.87 62.53 75.19 C 65.46 77.31 68.13 80.46 72.00 80.61 C 77.66 80.99 83.34 80.60 89.02 80.66 C 83.96 75.80 78.75 71.13 73.58 66.40 C 71.92 64.62 69.49 62.76 69.81 60.05 C 70.41 55.79 73.01 52.10 73.64 47.83 C 74.42 44.43 73.86 40.30 76.71 37.74 C 80.65 33.75 85.01 30.19 89.01 26.26 C 81.24 25.83 73.48 26.76 65.75 26.77 C 60.72 24.11 57.54 18.16 51.44 17.42 C 44.69 15.77 40.45 22.33 35.76 25.85 Z" />
<path fill="#2c8c19" opacity="1.00" d=" M 35.76 25.85 C 40.45 22.33 44.69 15.77 51.44 17.42 C 57.54 18.16 60.72 24.11 65.75 26.77 C 73.48 26.76 81.24 25.83 89.01 26.26 C 85.01 30.19 80.65 33.75 76.71 37.74 C 73.86 40.30 74.42 44.43 73.64 47.83 C 73.01 52.10 70.41 55.79 69.81 60.05 C 69.49 62.76 71.92 64.62 73.58 66.40 C 78.75 71.13 83.96 75.80 89.02 80.66 C 83.34 80.60 77.66 80.99 72.00 80.61 C 68.13 80.46 65.46 77.31 62.53 75.19 C 58.93 77.87 54.74 80.09 50.17 80.23 C 45.39 79.90 40.90 77.92 37.04 75.15 C 34.27 77.29 31.73 80.38 27.99 80.58 C 22.01 81.01 16.01 80.58 10.02 80.67 C 15.31 75.75 20.74 70.96 26.12 66.14 C 27.96 64.26 30.75 62.15 29.93 59.15 C 29.01 54.97 26.70 51.20 26.19 46.91 C 25.60 44.06 25.80 40.68 23.48 38.53 C 19.30 34.35 14.58 30.73 10.54 26.40 C 16.91 26.15 23.31 26.04 29.66 26.78 C 31.71 26.95 34.11 27.46 35.76 25.85 M 40.28 26.42 C 40.03 29.66 41.65 32.64 42.79 35.58 C 41.87 34.98 40.95 34.39 40.03 33.80 C 39.63 38.19 39.41 42.59 39.09 46.98 C 41.78 48.78 44.25 50.94 47.15 52.42 C 50.11 52.83 50.83 48.95 52.31 47.06 C 54.20 47.67 56.19 49.23 58.22 48.32 C 59.99 44.49 59.14 40.15 59.80 36.10 C 60.59 33.29 61.90 30.63 62.43 27.74 C 59.59 31.01 57.42 34.82 54.36 37.92 C 55.95 33.99 57.86 30.20 59.29 26.21 C 57.56 24.80 55.83 23.39 54.14 21.93 C 53.95 27.50 53.82 33.22 51.69 38.46 C 51.25 32.27 51.79 26.07 51.62 19.88 C 47.38 21.10 43.38 23.27 40.28 26.42 M 15.71 28.55 C 20.10 32.42 24.17 37.33 30.24 38.43 C 28.08 35.25 25.31 32.58 22.51 29.97 C 24.37 29.43 26.24 28.90 28.10 28.36 C 23.97 28.43 19.84 28.47 15.71 28.55 M 70.87 28.33 C 72.70 28.88 74.54 29.43 76.37 29.99 C 73.52 32.54 70.72 35.19 68.63 38.43 C 74.70 37.26 78.74 32.31 83.27 28.56 C 79.14 28.48 75.00 28.43 70.87 28.33 M 32.25 39.73 C 31.05 40.70 29.09 41.41 29.15 43.25 C 28.61 47.08 30.70 50.50 32.08 53.91 C 33.23 56.55 33.21 59.50 34.07 62.23 C 35.61 64.47 38.06 65.88 39.76 68.00 C 41.05 69.76 41.59 71.97 42.98 73.67 C 46.27 76.37 51.17 77.32 54.92 74.94 C 58.38 73.65 58.53 69.41 60.99 67.11 C 63.00 64.90 66.32 63.31 66.37 59.92 C 66.72 56.32 68.10 52.99 69.65 49.77 C 71.16 46.70 70.66 43.20 70.61 39.90 C 69.22 40.41 67.86 41.02 66.56 41.72 C 66.21 43.22 65.86 44.71 65.54 46.21 C 66.32 46.38 67.87 46.73 68.64 46.91 C 65.60 51.86 61.37 55.93 58.37 60.90 C 60.41 60.02 62.44 59.10 64.50 58.25 C 61.85 62.73 56.92 65.20 54.45 69.83 C 50.97 69.95 46.74 70.66 44.03 67.92 C 40.94 64.80 37.56 61.86 35.36 58.00 C 37.46 59.20 39.45 60.57 41.48 61.87 C 40.67 59.91 39.87 57.94 38.84 56.08 C 36.41 51.39 31.52 48.28 30.30 42.91 C 32.22 43.83 34.10 44.80 35.99 45.77 C 35.86 42.98 35.42 40.16 35.71 37.37 C 36.26 34.92 37.66 32.80 39.00 30.72 C 38.48 30.02 37.96 29.32 37.45 28.62 C 34.59 31.70 32.84 35.58 32.25 39.73 M 38.08 51.01 C 39.79 53.75 42.62 55.31 45.75 55.84 C 43.47 53.82 40.87 52.21 38.08 51.01 M 54.53 55.87 C 57.78 55.35 60.74 53.79 62.65 51.05 C 59.69 52.20 56.94 53.81 54.53 55.87 M 15.77 78.70 C 19.60 78.73 23.44 78.76 27.27 78.80 C 25.49 78.41 23.70 78.04 21.92 77.66 C 24.96 74.99 28.06 72.30 30.25 68.85 C 24.19 69.95 20.13 74.82 15.77 78.70 M 68.61 68.85 C 70.70 72.22 73.70 74.85 76.69 77.41 C 75.08 77.90 73.45 78.37 71.83 78.83 C 75.59 78.75 79.35 78.72 83.11 78.70 C 78.70 74.87 74.66 69.98 68.61 68.85 Z" />
<path fill="#ffffff" opacity="1.00" d=" M 40.28 26.42 C 43.38 23.27 47.38 21.10 51.62 19.88 C 51.79 26.07 51.25 32.27 51.69 38.46 C 53.82 33.22 53.95 27.50 54.14 21.93 C 55.83 23.39 57.56 24.80 59.29 26.21 C 57.86 30.20 55.95 33.99 54.36 37.92 C 57.42 34.82 59.59 31.01 62.43 27.74 C 61.90 30.63 60.59 33.29 59.80 36.10 C 59.14 40.15 59.99 44.49 58.22 48.32 C 56.19 49.23 54.20 47.67 52.31 47.06 C 50.83 48.95 50.11 52.83 47.15 52.42 C 44.25 50.94 41.78 48.78 39.09 46.98 C 39.41 42.59 39.63 38.19 40.03 33.80 C 40.95 34.39 41.87 34.98 42.79 35.58 C 41.65 32.64 40.03 29.66 40.28 26.42 Z" />
<path fill="#ffffff" opacity="1.00" d=" M 15.71 28.55 C 19.84 28.47 23.97 28.43 28.10 28.36 C 26.24 28.90 24.37 29.43 22.51 29.97 C 25.31 32.58 28.08 35.25 30.24 38.43 C 24.17 37.33 20.10 32.42 15.71 28.55 Z" />
<path fill="#ffffff" opacity="1.00" d=" M 70.87 28.33 C 75.00 28.43 79.14 28.48 83.27 28.56 C 78.74 32.31 74.70 37.26 68.63 38.43 C 70.72 35.19 73.52 32.54 76.37 29.99 C 74.54 29.43 72.70 28.88 70.87 28.33 Z" />
<path fill="#ffffff" opacity="1.00" d=" M 32.25 39.73 C 32.84 35.58 34.59 31.70 37.45 28.62 C 37.96 29.32 38.48 30.02 39.00 30.72 C 37.66 32.80 36.26 34.92 35.71 37.37 C 35.42 40.16 35.86 42.98 35.99 45.77 C 34.10 44.80 32.22 43.83 30.30 42.91 C 31.52 48.28 36.41 51.39 38.84 56.08 C 39.87 57.94 40.67 59.91 41.48 61.87 C 39.45 60.57 37.46 59.20 35.36 58.00 C 37.56 61.86 40.94 64.80 44.03 67.92 C 46.74 70.66 50.97 69.95 54.45 69.83 C 56.92 65.20 61.85 62.73 64.50 58.25 C 62.44 59.10 60.41 60.02 58.37 60.90 C 61.37 55.93 65.60 51.86 68.64 46.91 C 67.87 46.73 66.32 46.38 65.54 46.21 C 65.86 44.71 66.21 43.22 66.56 41.72 C 67.86 41.02 69.22 40.41 70.61 39.90 C 70.66 43.20 71.16 46.70 69.65 49.77 C 68.10 52.99 66.72 56.32 66.37 59.92 C 66.32 63.31 63.00 64.90 60.99 67.11 C 58.53 69.41 58.38 73.65 54.92 74.94 C 51.17 77.32 46.27 76.37 42.98 73.67 C 41.59 71.97 41.05 69.76 39.76 68.00 C 38.06 65.88 35.61 64.47 34.07 62.23 C 33.21 59.50 33.23 56.55 32.08 53.91 C 30.70 50.50 28.61 47.08 29.15 43.25 C 29.09 41.41 31.05 40.70 32.25 39.73 Z" />
<path fill="#ffffff" opacity="1.00" d=" M 38.08 51.01 C 40.87 52.21 43.47 53.82 45.75 55.84 C 42.62 55.31 39.79 53.75 38.08 51.01 Z" />
<path fill="#ffffff" opacity="1.00" d=" M 54.53 55.87 C 56.94 53.81 59.69 52.20 62.65 51.05 C 60.74 53.79 57.78 55.35 54.53 55.87 Z" />
<path fill="#ffffff" opacity="1.00" d=" M 15.77 78.70 C 20.13 74.82 24.19 69.95 30.25 68.85 C 28.06 72.30 24.96 74.99 21.92 77.66 C 23.70 78.04 25.49 78.41 27.27 78.80 C 23.44 78.76 19.60 78.73 15.77 78.70 Z" />
<path fill="#ffffff" opacity="1.00" d=" M 68.61 68.85 C 74.66 69.98 78.70 74.87 83.11 78.70 C 79.35 78.72 75.59 78.75 71.83 78.83 C 73.45 78.37 75.08 77.90 76.69 77.41 C 73.70 74.85 70.70 72.22 68.61 68.85 Z" />
</svg>
