<?xml version="1.0" encoding="UTF-8" ?>
<!DOCTYPE svg PUBLIC "-//W3C//DTD SVG 1.1//EN" "http://www.w3.org/Graphics/SVG/1.1/DTD/svg11.dtd">
<svg width="100pt" height="100pt" viewBox="0 0 100 100" version="1.1" xmlns="http://www.w3.org/2000/svg">
<path fill="#c1bcbc" opacity="1.00" d=" M 39.40 20.43 C 43.29 19.25 46.73 17.05 49.99 14.69 C 53.24 17.05 56.69 19.21 60.58 20.32 C 65.41 21.79 69.78 24.40 73.74 27.51 C 77.43 24.75 81.75 23.12 86.18 21.98 C 85.19 26.77 83.43 31.42 80.08 35.07 C 83.37 37.22 86.64 39.43 89.94 41.58 C 87.94 47.24 85.60 52.85 84.84 58.85 C 84.22 63.48 82.48 67.84 80.38 71.97 C 83.15 75.44 84.62 79.63 85.49 83.93 C 82.34 83.17 79.21 82.34 76.15 81.25 C 75.60 82.59 75.03 83.92 74.46 85.25 C 70.42 85.17 66.25 85.04 62.44 86.60 C 54.68 89.58 45.93 89.61 38.15 86.68 C 34.15 85.03 29.79 85.17 25.55 85.25 C 25.00 84.02 24.47 82.79 23.94 81.55 C 20.81 82.56 17.57 83.17 14.32 83.67 C 15.52 79.48 17.45 75.55 19.97 72.00 C 17.83 67.86 16.24 63.44 15.46 58.84 C 14.34 52.89 12.05 47.27 10.06 41.59 C 13.34 39.44 16.60 37.24 19.87 35.08 C 16.82 31.51 15.06 27.14 14.20 22.55 C 18.50 23.57 22.65 25.21 26.25 27.83 C 30.21 24.68 34.55 21.96 39.40 20.43 M 26.36 30.07 C 23.27 28.31 20.09 26.70 16.79 25.36 C 18.41 29.14 20.51 32.69 22.85 36.06 C 19.99 38.43 17.04 40.69 14.07 42.92 C 17.87 52.32 16.82 63.02 22.03 71.96 C 20.35 75.06 18.77 78.21 17.41 81.47 C 20.14 80.31 22.83 79.05 25.51 77.77 C 26.85 79.36 27.93 81.46 30.06 82.09 C 34.62 83.59 39.24 84.91 43.88 86.16 C 49.79 87.70 55.97 86.62 61.68 84.76 C 66.35 83.20 72.14 82.58 74.54 77.62 C 77.36 78.97 80.20 80.27 83.09 81.48 C 81.68 78.22 80.03 75.07 78.24 72.00 C 80.38 67.55 82.39 62.93 82.86 57.96 C 83.33 52.87 84.14 47.81 85.83 42.97 C 82.84 40.70 80.00 38.25 77.41 35.54 C 79.87 32.22 82.03 28.68 83.54 24.83 C 80.09 26.19 76.81 27.93 73.65 29.87 C 66.84 24.52 58.64 20.72 50.00 19.73 C 41.34 20.76 33.22 24.77 26.36 30.07 Z" />
<path fill="#1f7979" opacity="1.00" d=" M 26.36 30.07 C 33.22 24.77 41.34 20.76 50.00 19.73 C 58.64 20.72 66.84 24.52 73.65 29.87 C 76.81 27.93 80.09 26.19 83.54 24.83 C 82.03 28.68 79.87 32.22 77.41 35.54 C 80.00 38.25 82.84 40.70 85.83 42.97 C 84.14 47.81 83.33 52.87 82.86 57.96 C 82.39 62.93 80.38 67.55 78.24 72.00 C 80.03 75.07 81.68 78.22 83.09 81.48 C 80.20 80.27 77.36 78.97 74.54 77.62 C 72.14 82.58 66.35 83.20 61.68 84.76 C 55.97 86.62 49.79 87.70 43.88 86.16 C 39.24 84.91 34.62 83.59 30.06 82.09 C 27.93 81.46 26.85 79.36 25.51 77.77 C 22.83 79.05 20.14 80.31 17.41 81.47 C 18.77 78.21 20.35 75.06 22.03 71.96 C 16.82 63.02 17.87 52.32 14.07 42.92 C 17.04 40.69 19.99 38.43 22.85 36.06 C 20.51 32.69 18.41 29.14 16.79 25.36 C 20.09 26.70 23.27 28.31 26.36 30.07 M 26.50 33.86 C 24.33 31.89 22.11 29.97 19.80 28.17 C 21.62 30.55 23.58 32.83 25.57 35.07 C 22.07 40.77 19.35 47.19 19.54 54.00 C 19.39 60.51 21.93 66.68 25.25 72.16 C 24.04 73.81 22.83 75.46 21.66 77.15 C 23.24 76.05 24.78 74.91 26.33 73.77 C 32.19 79.54 39.69 84.12 48.12 84.40 C 57.91 85.28 67.35 80.66 73.98 73.67 C 76.02 75.41 78.08 77.14 80.20 78.79 C 78.53 76.56 76.74 74.42 74.93 72.30 C 77.81 67.59 80.29 62.45 80.68 56.86 C 81.59 49.10 78.87 41.46 74.71 35.01 C 75.57 33.59 76.44 32.16 77.28 30.72 C 76.03 31.67 74.79 32.63 73.56 33.60 C 67.10 27.16 58.34 22.59 49.02 23.18 C 40.32 23.24 32.54 27.93 26.50 33.86 Z" />
<path fill="#ffffff" opacity="1.00" d=" M 26.50 33.86 C 32.54 27.93 40.32 23.24 49.02 23.18 C 58.34 22.59 67.10 27.16 73.56 33.60 C 74.79 32.63 76.03 31.67 77.28 30.72 C 76.44 32.16 75.57 33.59 74.71 35.01 C 78.87 41.46 81.59 49.10 80.68 56.86 C 80.29 62.45 77.81 67.59 74.93 72.30 C 76.74 74.42 78.53 76.56 80.20 78.79 C 78.08 77.14 76.02 75.41 73.98 73.67 C 67.35 80.66 57.91 85.28 48.12 84.40 C 39.69 84.12 32.19 79.54 26.33 73.77 C 24.78 74.91 23.24 76.05 21.66 77.15 C 22.83 75.46 24.04 73.81 25.25 72.16 C 21.93 66.68 19.39 60.51 19.54 54.00 C 19.35 47.19 22.07 40.77 25.57 35.07 C 23.58 32.83 21.62 30.55 19.80 28.17 C 22.11 29.97 24.33 31.89 26.50 33.86 M 29.28 35.19 C 29.88 37.22 31.86 38.48 33.16 40.07 C 37.88 36.02 43.49 32.34 49.99 32.66 C 56.49 32.21 62.21 35.78 66.91 39.88 C 68.42 38.30 69.99 36.77 71.51 35.19 C 67.41 31.83 63.05 28.47 57.80 27.17 C 47.81 24.36 36.25 27.43 29.28 35.19 M 40.06 36.14 C 40.17 38.50 40.30 40.87 40.42 43.23 C 38.03 43.16 35.64 43.08 33.26 43.02 C 33.99 49.78 33.87 56.57 33.46 63.34 C 35.85 63.26 38.24 63.18 40.64 63.10 C 40.41 65.36 40.21 67.63 40.02 69.89 C 46.77 69.44 53.55 69.92 60.30 69.63 C 60.52 67.47 60.37 65.29 60.30 63.12 C 62.60 63.18 64.90 63.25 67.20 63.30 C 66.62 56.51 66.63 49.70 67.23 42.91 C 64.84 43.02 62.46 43.12 60.07 43.21 C 60.27 40.86 60.47 38.52 60.65 36.17 C 53.80 36.78 46.91 36.76 40.06 36.14 M 21.93 48.84 C 20.16 56.64 22.28 64.67 26.22 71.46 C 28.04 69.38 29.89 67.34 31.78 65.33 C 30.29 61.72 28.80 57.98 28.89 54.01 C 28.82 49.76 30.37 45.75 31.97 41.89 C 30.48 40.23 28.99 38.55 27.50 36.89 C 25.19 40.63 22.78 44.46 21.93 48.84 M 68.17 41.66 C 69.58 44.95 71.10 48.32 71.28 51.95 C 71.77 56.70 69.78 61.16 69.17 65.78 C 70.42 68.00 72.29 69.78 73.98 71.68 C 76.39 67.09 78.75 62.24 78.91 56.95 C 79.62 49.64 76.84 42.62 72.80 36.67 C 71.25 38.33 69.71 40.00 68.17 41.66 M 27.20 72.94 C 33.18 79.12 41.08 84.19 50.00 83.79 C 59.06 84.27 67.19 79.25 73.17 72.85 C 71.13 71.11 69.11 69.36 67.11 67.59 C 62.45 71.92 56.61 75.57 49.99 75.10 C 43.47 75.46 37.83 71.73 33.17 67.61 C 31.18 69.39 29.19 71.17 27.20 72.94 Z" />
<path fill="#217a7a" opacity="1.00" d=" M 29.28 35.19 C 36.25 27.43 47.81 24.36 57.80 27.17 C 63.05 28.47 67.41 31.83 71.51 35.19 C 69.99 36.77 68.42 38.30 66.91 39.88 C 62.21 35.78 56.49 32.21 49.99 32.66 C 43.49 32.34 37.88 36.02 33.16 40.07 C 31.86 38.48 29.88 37.22 29.28 35.19 Z" />
<path fill="#217a7a" opacity="1.00" d=" M 40.06 36.14 C 46.91 36.76 53.80 36.78 60.65 36.17 C 60.47 38.52 60.27 40.86 60.07 43.21 C 62.46 43.12 64.84 43.02 67.23 42.91 C 66.63 49.70 66.62 56.51 67.20 63.30 C 64.90 63.25 62.60 63.18 60.30 63.12 C 60.37 65.29 60.52 67.47 60.30 69.63 C 53.55 69.92 46.77 69.44 40.02 69.89 C 40.21 67.63 40.41 65.36 40.64 63.10 C 38.24 63.18 35.85 63.26 33.46 63.34 C 33.87 56.57 33.99 49.78 33.26 43.02 C 35.64 43.08 38.03 43.16 40.42 43.23 C 40.30 40.87 40.17 38.50 40.06 36.14 M 47.56 41.79 C 47.67 44.79 47.78 47.79 47.88 50.79 C 44.95 50.62 42.03 50.47 39.11 50.26 C 39.05 52.13 38.99 53.99 38.94 55.85 C 41.93 55.74 44.93 55.65 47.93 55.57 C 47.81 58.52 47.65 61.47 47.53 64.42 C 49.37 64.35 51.21 64.35 53.05 64.41 C 52.91 61.46 52.77 58.50 52.68 55.55 C 55.69 55.63 58.71 55.73 61.72 55.83 C 61.69 53.98 61.67 52.14 61.67 50.30 C 58.67 50.48 55.67 50.61 52.67 50.78 C 52.78 47.78 52.91 44.78 53.06 41.78 C 51.23 41.84 49.39 41.84 47.56 41.79 Z" />
<path fill="#217a7a" opacity="1.00" d=" M 21.93 48.84 C 22.78 44.46 25.19 40.63 27.50 36.89 C 28.99 38.55 30.48 40.23 31.97 41.89 C 30.37 45.75 28.82 49.76 28.89 54.01 C 28.80 57.98 30.29 61.72 31.78 65.33 C 29.89 67.34 28.04 69.38 26.22 71.46 C 22.28 64.67 20.16 56.64 21.93 48.84 Z" />
<path fill="#217a7a" opacity="1.00" d=" M 68.17 41.66 C 69.71 40.00 71.25 38.33 72.80 36.67 C 76.84 42.62 79.62 49.64 78.91 56.95 C 78.75 62.24 76.39 67.09 73.98 71.68 C 72.29 69.78 70.42 68.00 69.17 65.78 C 69.78 61.16 71.77 56.70 71.28 51.95 C 71.10 48.32 69.58 44.95 68.17 41.66 Z" />
<path fill="#ffffff" opacity="1.00" d=" M 47.56 41.79 C 49.39 41.84 51.23 41.84 53.06 41.78 C 52.91 44.78 52.78 47.78 52.67 50.78 C 55.67 50.61 58.67 50.48 61.67 50.30 C 61.67 52.14 61.69 53.98 61.72 55.83 C 58.71 55.73 55.69 55.63 52.68 55.55 C 52.77 58.50 52.91 61.46 53.05 64.41 C 51.21 64.35 49.37 64.35 47.53 64.42 C 47.65 61.47 47.81 58.52 47.93 55.57 C 44.93 55.65 41.93 55.74 38.94 55.85 C 38.99 53.99 39.05 52.13 39.11 50.26 C 42.03 50.47 44.95 50.62 47.88 50.79 C 47.78 47.79 47.67 44.79 47.56 41.79 Z" />
<path fill="#217a7a" opacity="1.00" d=" M 27.20 72.94 C 29.19 71.17 31.18 69.39 33.17 67.61 C 37.83 71.73 43.47 75.46 49.99 75.10 C 56.61 75.57 62.45 71.92 67.11 67.59 C 69.11 69.36 71.13 71.11 73.17 72.85 C 67.19 79.25 59.06 84.27 50.00 83.79 C 41.08 84.19 33.18 79.12 27.20 72.94 Z" />
</svg>
