<?xml version="1.0" encoding="UTF-8" ?>
<!DOCTYPE svg PUBLIC "-//W3C//DTD SVG 1.1//EN" "http://www.w3.org/Graphics/SVG/1.1/DTD/svg11.dtd">
<svg width="100pt" height="100pt" viewBox="0 0 100 100" version="1.1" xmlns="http://www.w3.org/2000/svg">
<path fill="#fbce3b" opacity="1.00" d=" M 31.41 21.36 C 37.92 14.62 43.56 7.06 50.00 0.23 C 64.39 16.62 78.64 33.15 92.80 49.75 C 78.47 66.19 64.32 82.77 50.00 99.20 C 43.67 92.48 38.31 84.80 31.58 78.50 C 27.29 77.97 22.95 78.33 18.65 78.00 C 20.46 75.21 22.42 72.52 24.41 69.86 C 18.93 62.94 12.93 56.46 7.20 49.75 C 12.72 42.99 18.64 36.59 24.22 29.88 C 22.48 27.17 20.68 24.51 18.92 21.82 C 23.07 21.61 27.31 22.18 31.41 21.36 M 33.57 24.70 C 30.34 24.04 27.02 24.18 23.74 24.19 C 25.01 26.37 26.31 28.54 27.61 30.70 C 26.11 32.69 24.61 34.67 23.09 36.65 C 19.16 40.86 15.30 45.15 11.92 49.83 C 15.78 54.47 19.62 59.15 23.86 63.45 C 25.12 65.52 26.36 67.60 27.58 69.68 C 26.18 71.56 24.80 73.44 23.44 75.35 C 26.85 75.74 30.37 76.28 33.73 75.30 C 39.23 81.45 44.52 87.78 50.00 93.96 C 62.73 79.28 75.48 64.61 88.08 49.82 C 86.13 47.15 84.06 44.57 81.84 42.12 C 71.11 30.03 60.87 17.51 50.00 5.54 C 44.36 11.77 38.70 18.03 33.57 24.70 Z" />
<path fill="#b8b9ba" opacity="1.00" d=" M 33.57 24.70 C 38.70 18.03 44.36 11.77 50.00 5.54 C 60.87 17.51 71.11 30.03 81.84 42.12 C 84.06 44.57 86.13 47.15 88.08 49.82 C 75.48 64.61 62.73 79.28 50.00 93.96 C 44.52 87.78 39.23 81.45 33.73 75.30 C 34.87 74.98 36.01 74.64 37.14 74.30 C 41.62 78.90 45.46 84.08 49.99 88.64 C 56.19 82.24 61.68 75.22 67.61 68.58 C 72.95 62.16 78.79 56.15 83.78 49.43 C 72.46 36.54 61.48 23.34 50.00 10.59 C 45.40 15.35 41.41 20.65 36.84 25.45 C 35.75 25.19 34.66 24.93 33.57 24.70 Z" />
<path fill="#c40f24" opacity="1.00" d=" M 36.84 25.45 C 41.41 20.65 45.40 15.35 50.00 10.59 C 61.48 23.34 72.46 36.54 83.78 49.43 C 78.79 56.15 72.95 62.16 67.61 68.58 C 61.68 75.22 56.19 82.24 49.99 88.64 C 45.46 84.08 41.62 78.90 37.14 74.30 C 36.01 74.64 34.87 74.98 33.73 75.30 C 30.37 76.28 26.85 75.74 23.44 75.35 C 24.80 73.44 26.18 71.56 27.58 69.68 C 26.36 67.60 25.12 65.52 23.86 63.45 C 24.68 63.28 26.33 62.93 27.15 62.75 C 23.57 58.26 19.66 54.02 16.20 49.43 C 19.80 45.33 23.41 41.23 26.90 37.03 C 25.63 36.90 24.36 36.77 23.09 36.65 C 24.61 34.67 26.11 32.69 27.61 30.70 C 26.31 28.54 25.01 26.37 23.74 24.19 C 27.02 24.18 30.34 24.04 33.57 24.70 C 34.66 24.93 35.75 25.19 36.84 25.45 M 29.12 26.35 C 30.12 29.08 30.07 31.94 29.06 34.66 C 33.52 34.17 37.35 31.05 41.97 31.59 C 48.34 32.08 55.08 30.58 61.10 33.27 C 62.44 32.33 63.77 31.36 65.09 30.38 C 63.42 29.77 61.76 28.55 59.90 29.04 C 53.64 30.24 47.26 29.55 40.93 29.68 C 36.60 30.17 33.37 26.51 29.12 26.35 M 35.26 35.91 C 36.05 37.29 36.85 38.66 37.67 40.01 C 37.07 41.48 36.48 42.94 35.91 44.42 C 39.26 44.39 42.08 42.60 45.12 41.52 C 50.07 41.04 55.06 41.55 60.03 41.38 C 64.23 40.94 68.67 43.96 72.37 40.79 C 70.84 39.90 69.37 38.14 67.41 38.69 C 61.32 39.84 55.12 39.40 48.97 39.41 C 44.00 39.96 40.20 35.82 35.26 35.91 M 25.07 45.81 C 25.64 47.21 26.22 48.61 26.82 50.00 C 26.19 51.40 25.59 52.81 25.00 54.22 C 29.55 54.01 33.33 50.72 37.96 51.12 C 46.98 51.19 56.00 51.39 65.03 51.24 C 69.16 50.97 73.67 53.75 77.12 50.27 C 75.50 49.55 73.97 47.74 72.04 48.31 C 65.84 50.05 59.36 49.10 53.02 49.21 C 47.02 48.95 41.00 49.46 35.02 48.98 C 31.67 48.03 28.68 45.89 25.07 45.81 M 35.99 55.58 C 36.52 57.05 37.07 58.52 37.64 59.98 C 36.82 61.34 36.02 62.71 35.23 64.09 C 40.10 64.06 44.04 60.30 48.96 60.82 C 55.20 61.14 61.56 60.39 67.67 61.99 C 69.46 62.45 70.88 60.72 72.40 60.05 C 70.75 59.22 69.12 57.38 67.10 58.18 C 61.83 59.56 56.37 58.74 51.00 58.88 C 48.36 58.80 45.52 59.18 43.13 57.80 C 40.92 56.56 38.51 55.81 35.99 55.58 M 28.91 65.41 C 29.33 66.72 29.79 68.03 30.24 69.34 C 29.77 70.76 29.31 72.19 28.87 73.63 C 33.42 73.24 37.30 70.06 41.98 70.58 C 47.99 70.87 54.15 70.00 60.01 71.72 C 62.06 72.53 63.53 70.33 65.09 69.39 C 63.43 68.76 61.76 67.52 59.89 68.03 C 53.64 69.26 47.25 68.50 40.93 68.68 C 36.52 69.20 33.28 65.31 28.91 65.41 Z" />
<path fill="#ffffff" opacity="1.00" d=" M 29.12 26.35 C 33.37 26.51 36.60 30.17 40.93 29.68 C 47.26 29.55 53.64 30.24 59.90 29.04 C 61.76 28.55 63.42 29.77 65.09 30.38 C 63.77 31.36 62.44 32.33 61.10 33.27 C 55.08 30.58 48.34 32.08 41.97 31.59 C 37.35 31.05 33.52 34.17 29.06 34.66 C 30.07 31.94 30.12 29.08 29.12 26.35 Z" />
<path fill="#ffffff" opacity="1.00" d=" M 35.26 35.91 C 40.20 35.82 44.00 39.96 48.97 39.41 C 55.12 39.40 61.32 39.84 67.41 38.69 C 69.37 38.14 70.84 39.90 72.37 40.79 C 68.67 43.96 64.23 40.94 60.03 41.38 C 55.06 41.55 50.07 41.04 45.12 41.52 C 42.08 42.60 39.26 44.39 35.91 44.42 C 36.48 42.94 37.07 41.48 37.67 40.01 C 36.85 38.66 36.05 37.29 35.26 35.91 Z" />
<path fill="#b8baba" opacity="1.00" d=" M 11.92 49.83 C 15.30 45.15 19.16 40.86 23.09 36.65 C 24.36 36.77 25.63 36.90 26.90 37.03 C 23.41 41.23 19.80 45.33 16.20 49.43 C 19.66 54.02 23.57 58.26 27.15 62.75 C 26.33 62.93 24.68 63.28 23.86 63.45 C 19.62 59.15 15.78 54.47 11.92 49.83 Z" />
<path fill="#ffffff" opacity="1.00" d=" M 25.07 45.81 C 28.68 45.89 31.67 48.03 35.02 48.98 C 41.00 49.46 47.02 48.95 53.02 49.21 C 59.36 49.10 65.84 50.05 72.04 48.31 C 73.97 47.74 75.50 49.55 77.12 50.27 C 73.67 53.75 69.16 50.97 65.03 51.24 C 56.00 51.39 46.98 51.19 37.96 51.12 C 33.33 50.72 29.55 54.01 25.00 54.22 C 25.59 52.81 26.19 51.40 26.82 50.00 C 26.22 48.61 25.64 47.21 25.07 45.81 Z" />
<path fill="#ffffff" opacity="1.00" d=" M 35.99 55.58 C 38.51 55.81 40.92 56.56 43.13 57.80 C 45.52 59.18 48.36 58.80 51.00 58.88 C 56.37 58.74 61.83 59.56 67.10 58.18 C 69.12 57.38 70.75 59.22 72.40 60.05 C 70.88 60.72 69.46 62.45 67.67 61.99 C 61.56 60.39 55.20 61.14 48.96 60.82 C 44.04 60.30 40.10 64.06 35.23 64.09 C 36.02 62.71 36.82 61.34 37.64 59.98 C 37.07 58.52 36.52 57.05 35.99 55.58 Z" />
<path fill="#ffffff" opacity="1.00" d=" M 28.91 65.41 C 33.28 65.31 36.52 69.20 40.93 68.68 C 47.25 68.50 53.64 69.26 59.89 68.03 C 61.76 67.52 63.43 68.76 65.09 69.39 C 63.53 70.33 62.06 72.53 60.01 71.72 C 54.15 70.00 47.99 70.87 41.98 70.58 C 37.30 70.06 33.42 73.24 28.87 73.63 C 29.31 72.19 29.77 70.76 30.24 69.34 C 29.79 68.03 29.33 66.72 28.91 65.41 Z" />
</svg>
