<?xml version="1.0" encoding="UTF-8" ?>
<!DOCTYPE svg PUBLIC "-//W3C//DTD SVG 1.1//EN" "http://www.w3.org/Graphics/SVG/1.1/DTD/svg11.dtd">
<svg width="100pt" height="100pt" viewBox="0 0 100 100" version="1.1" xmlns="http://www.w3.org/2000/svg">
<path fill="#b7c7c6" opacity="1.00" d=" M 13.65 8.59 C 16.64 7.97 19.70 9.76 22.70 8.76 C 25.14 8.47 28.07 6.54 30.13 8.76 C 32.86 10.73 31.25 14.14 30.46 16.68 C 43.60 16.34 56.74 16.62 69.89 16.53 C 69.52 14.11 67.87 11.07 70.14 9.09 C 72.41 6.16 76.01 8.79 78.90 9.04 C 82.08 9.96 85.77 6.86 88.47 9.54 C 91.64 12.52 95.16 15.70 96.46 19.96 C 93.88 25.84 87.55 28.85 84.24 34.22 C 83.67 37.44 83.94 40.74 83.91 44.00 C 83.94 57.25 83.96 70.49 83.90 83.73 C 61.30 83.69 38.70 83.69 16.10 83.73 C 16.07 68.47 16.06 53.21 16.12 37.95 C 16.08 36.42 16.09 34.86 15.70 33.37 C 12.63 28.83 7.74 25.88 4.64 21.38 C 3.38 19.26 5.27 17.12 6.49 15.51 C 8.65 13.00 10.74 10.27 13.65 8.59 M 14.37 10.54 C 10.89 12.73 7.98 16.07 6.32 19.84 C 9.24 25.27 15.26 28.20 18.35 33.52 C 19.21 37.61 18.65 41.85 18.74 46.00 C 18.77 57.42 18.60 68.85 18.83 80.27 C 39.81 80.44 60.80 80.55 81.77 80.21 C 81.66 66.46 81.80 52.72 81.64 38.97 C 81.76 36.66 81.46 33.99 83.13 32.12 C 86.74 27.85 91.09 24.25 94.69 19.95 C 92.36 16.22 89.45 12.88 86.01 10.13 C 81.51 12.60 76.78 10.38 72.13 9.89 C 68.72 12.58 73.38 15.91 74.53 18.65 C 68.08 19.85 61.51 19.27 55.00 19.34 C 45.33 19.20 35.65 19.73 26.00 18.98 C 27.38 16.31 30.30 13.80 29.51 10.51 C 27.13 9.27 24.53 10.80 22.08 11.04 C 19.50 11.74 16.94 10.67 14.37 10.54 Z" />
<path fill="#c40f24" opacity="1.00" d=" M 14.37 10.54 C 16.94 10.67 19.50 11.74 22.08 11.04 C 24.53 10.80 27.13 9.27 29.51 10.51 C 30.30 13.80 27.38 16.31 26.00 18.98 C 35.65 19.73 45.33 19.20 55.00 19.34 C 61.51 19.27 68.08 19.85 74.53 18.65 C 73.38 15.91 68.72 12.58 72.13 9.89 C 76.78 10.38 81.51 12.60 86.01 10.13 C 89.45 12.88 92.36 16.22 94.69 19.95 C 91.09 24.25 86.74 27.85 83.13 32.12 C 81.46 33.99 81.76 36.66 81.64 38.97 C 81.80 52.72 81.66 66.46 81.77 80.21 C 60.80 80.55 39.81 80.44 18.83 80.27 C 18.60 68.85 18.77 57.42 18.74 46.00 C 18.65 41.85 19.21 37.61 18.35 33.52 C 15.26 28.20 9.24 25.27 6.32 19.84 C 7.98 16.07 10.89 12.73 14.37 10.54 M 19.14 15.45 C 17.78 14.55 16.41 13.65 15.03 12.76 C 12.92 15.06 10.86 17.41 8.85 19.80 C 14.46 25.32 20.23 30.71 25.10 36.90 C 24.72 38.14 24.33 39.38 23.96 40.62 C 24.97 40.13 25.98 39.63 27.00 39.14 C 27.28 39.53 27.86 40.32 28.14 40.71 C 27.01 43.11 24.52 45.80 26.31 48.52 C 28.29 52.78 33.22 53.51 37.24 54.70 C 38.59 54.91 39.34 56.42 38.99 57.68 C 37.34 60.40 34.48 62.27 33.24 65.25 C 32.31 69.38 36.71 73.64 40.81 72.11 C 47.39 69.93 51.56 62.79 51.16 56.00 C 50.98 50.00 47.39 44.95 44.67 39.84 C 45.88 37.16 46.67 34.31 47.03 31.39 C 45.49 31.45 43.96 31.50 42.42 31.51 C 42.48 33.15 42.50 34.80 42.50 36.44 C 40.74 35.17 39.04 33.81 37.40 32.38 C 38.68 30.61 39.97 28.84 41.17 27.02 C 39.14 28.07 37.15 29.21 35.22 30.44 C 30.75 26.57 26.64 22.32 22.53 18.08 C 24.16 16.18 25.78 14.28 27.33 12.32 C 24.58 13.32 21.85 14.34 19.14 15.45 M 73.39 12.34 C 74.92 14.30 76.51 16.20 78.11 18.10 C 73.89 22.32 69.76 26.63 65.25 30.56 C 63.44 29.28 61.57 28.08 59.64 26.98 C 60.76 28.84 61.98 30.64 63.21 32.43 C 61.57 33.80 59.90 35.13 58.20 36.44 C 58.22 34.76 58.26 33.07 58.34 31.39 C 56.67 31.41 55.00 31.38 53.33 31.33 C 53.09 35.57 55.80 38.84 58.80 41.47 C 58.36 44.41 57.73 47.32 57.45 50.28 C 57.12 53.08 58.72 55.58 59.64 58.12 C 58.40 56.43 56.96 54.81 56.17 52.84 C 55.70 48.92 56.29 44.93 55.40 41.04 C 54.25 43.01 52.76 44.90 52.32 47.19 C 52.50 50.17 53.56 53.02 53.67 56.01 C 53.86 59.42 52.87 62.74 51.98 66.00 C 54.43 68.77 57.10 71.99 61.04 72.38 C 65.39 73.04 69.43 67.24 66.46 63.66 C 64.53 61.10 62.33 58.74 60.70 55.95 C 65.38 53.69 71.86 53.62 74.39 48.33 C 76.09 45.30 73.22 42.43 72.14 39.73 C 73.68 39.81 75.22 39.94 76.76 40.08 C 76.27 39.03 75.77 37.99 75.29 36.95 C 80.46 30.89 86.10 25.27 91.80 19.72 C 89.69 17.30 87.52 14.92 85.26 12.63 C 84.07 13.59 82.88 14.55 81.70 15.51 C 78.95 14.39 76.17 13.36 73.39 12.34 Z" />
<path fill="#ffffff" opacity="1.00" d=" M 19.14 15.45 C 21.85 14.34 24.58 13.32 27.33 12.32 C 25.78 14.28 24.16 16.18 22.53 18.08 C 26.64 22.32 30.75 26.57 35.22 30.44 C 37.15 29.21 39.14 28.07 41.17 27.02 C 39.97 28.84 38.68 30.61 37.40 32.38 C 39.04 33.81 40.74 35.17 42.50 36.44 C 42.50 34.80 42.48 33.15 42.42 31.51 C 43.96 31.50 45.49 31.45 47.03 31.39 C 46.67 34.31 45.88 37.16 44.67 39.84 C 47.39 44.95 50.98 50.00 51.16 56.00 C 51.56 62.79 47.39 69.93 40.81 72.11 C 36.71 73.64 32.31 69.38 33.24 65.25 C 34.48 62.27 37.34 60.40 38.99 57.68 C 39.34 56.42 38.59 54.91 37.24 54.70 C 33.22 53.51 28.29 52.78 26.31 48.52 C 24.52 45.80 27.01 43.11 28.14 40.71 C 27.86 40.32 27.28 39.53 27.00 39.14 C 25.98 39.63 24.97 40.13 23.96 40.62 C 24.33 39.38 24.72 38.14 25.10 36.90 C 20.23 30.71 14.46 25.32 8.85 19.80 C 10.86 17.41 12.92 15.06 15.03 12.76 C 16.41 13.65 17.78 14.55 19.14 15.45 M 42.09 39.79 C 42.25 45.37 43.37 50.91 42.67 56.50 C 46.16 51.37 43.83 45.11 42.09 39.79 M 28.88 42.42 C 28.45 44.61 26.91 47.23 28.79 49.18 C 30.52 52.05 34.07 51.26 36.83 51.14 C 36.77 50.37 36.65 48.85 36.59 48.08 C 34.72 48.31 32.85 48.55 30.98 48.77 C 32.36 47.12 33.76 45.48 35.14 43.82 C 33.06 43.31 30.97 42.86 28.88 42.42 Z" />
<path fill="#ffffff" opacity="1.00" d=" M 73.39 12.34 C 76.17 13.36 78.95 14.39 81.70 15.51 C 82.88 14.55 84.07 13.59 85.26 12.63 C 87.52 14.92 89.69 17.30 91.80 19.72 C 86.10 25.27 80.46 30.89 75.29 36.95 C 75.77 37.99 76.27 39.03 76.76 40.08 C 75.22 39.94 73.68 39.81 72.14 39.73 C 73.22 42.43 76.09 45.30 74.39 48.33 C 71.86 53.62 65.38 53.69 60.70 55.95 C 62.33 58.74 64.53 61.10 66.46 63.66 C 69.43 67.24 65.39 73.04 61.04 72.38 C 57.10 71.99 54.43 68.77 51.98 66.00 C 52.87 62.74 53.86 59.42 53.67 56.01 C 53.56 53.02 52.50 50.17 52.32 47.19 C 52.76 44.90 54.25 43.01 55.40 41.04 C 56.29 44.93 55.70 48.92 56.17 52.84 C 56.96 54.81 58.40 56.43 59.64 58.12 C 58.72 55.58 57.12 53.08 57.45 50.28 C 57.73 47.32 58.36 44.41 58.80 41.47 C 55.80 38.84 53.09 35.57 53.33 31.33 C 55.00 31.38 56.67 31.41 58.34 31.39 C 58.26 33.07 58.22 34.76 58.20 36.44 C 59.90 35.13 61.57 33.80 63.21 32.43 C 61.98 30.64 60.76 28.84 59.64 26.98 C 61.57 28.08 63.44 29.28 65.25 30.56 C 69.76 26.63 73.89 22.32 78.11 18.10 C 76.51 16.20 74.92 14.30 73.39 12.34 M 65.46 43.72 C 66.88 45.48 68.36 47.20 69.86 48.90 C 67.89 48.60 65.92 48.29 63.95 48.00 C 63.95 48.80 63.94 50.38 63.94 51.18 C 66.50 51.19 69.70 51.97 71.51 49.58 C 73.60 47.73 72.23 44.88 72.05 42.57 C 69.86 42.99 67.66 43.34 65.46 43.72 Z" />
<path fill="#c40f24" opacity="1.00" d=" M 42.09 39.79 C 43.83 45.11 46.16 51.37 42.67 56.50 C 43.37 50.91 42.25 45.37 42.09 39.79 Z" />
<path fill="#c3091f" opacity="1.00" d=" M 28.88 42.42 C 30.97 42.86 33.06 43.31 35.14 43.82 C 33.76 45.48 32.36 47.12 30.98 48.77 C 32.85 48.55 34.72 48.31 36.59 48.08 C 36.65 48.85 36.77 50.37 36.83 51.14 C 34.07 51.26 30.52 52.05 28.79 49.18 C 26.91 47.23 28.45 44.61 28.88 42.42 Z" />
<path fill="#c1041a" opacity="1.00" d=" M 65.46 43.72 C 67.66 43.34 69.86 42.99 72.05 42.57 C 72.23 44.88 73.60 47.73 71.51 49.58 C 69.70 51.97 66.50 51.19 63.94 51.18 C 63.94 50.38 63.95 48.80 63.95 48.00 C 65.92 48.29 67.89 48.60 69.86 48.90 C 68.36 47.20 66.88 45.48 65.46 43.72 Z" />
</svg>
