<?xml version="1.0" encoding="UTF-8" ?>
<!DOCTYPE svg PUBLIC "-//W3C//DTD SVG 1.1//EN" "http://www.w3.org/Graphics/SVG/1.1/DTD/svg11.dtd">
<svg width="100pt" height="100pt" viewBox="0 0 100 100" version="1.1" xmlns="http://www.w3.org/2000/svg">
<path fill="#b8b9b8" opacity="1.00" d=" M 76.78 13.80 C 79.98 12.42 83.27 14.36 85.87 16.13 C 92.94 21.10 96.83 29.62 97.75 38.03 C 98.25 42.87 96.95 48.88 92.11 51.09 C 88.01 52.90 83.71 54.24 79.40 55.43 C 75.93 56.45 72.29 54.69 68.86 55.85 C 66.71 56.53 65.54 58.60 64.31 60.32 C 58.50 69.29 52.56 78.16 46.68 87.08 C 42.61 81.50 38.87 75.68 34.91 70.02 C 33.22 66.86 29.23 67.70 26.29 67.02 C 23.22 71.10 17.78 74.67 12.59 72.44 C 8.38 70.97 6.49 66.54 5.37 62.58 C 4.13 59.14 5.51 54.49 9.11 53.09 C 12.99 50.93 17.53 51.88 21.74 51.36 C 15.47 41.20 8.23 31.68 1.71 21.68 C 19.83 21.54 37.95 21.61 56.07 21.66 C 57.98 21.64 59.97 21.59 61.68 20.61 C 66.59 18.09 71.58 15.68 76.78 13.80 M 61.12 24.10 C 58.68 25.56 55.75 25.42 53.01 25.46 C 38.37 25.20 23.73 25.51 9.10 25.25 C 13.39 31.52 17.68 37.78 22.05 43.99 C 23.14 45.84 24.99 47.88 24.13 50.18 C 23.60 52.27 21.82 54.16 19.56 54.16 C 16.05 54.63 11.89 53.40 9.00 56.02 C 6.72 57.99 7.12 61.36 8.07 63.89 C 9.15 67.07 11.44 70.49 15.11 70.77 C 18.55 71.18 20.99 68.32 23.56 66.55 C 26.30 64.33 29.94 64.12 33.24 63.37 C 32.18 62.85 31.11 62.35 30.03 61.87 C 31.30 62.22 32.58 62.27 33.87 62.04 C 38.44 67.84 42.23 74.22 46.69 80.11 C 50.87 74.13 54.93 68.07 58.85 61.92 C 60.70 59.18 62.50 56.10 65.61 54.64 C 68.33 53.22 71.47 53.32 74.45 53.32 C 80.24 53.49 85.79 51.33 90.96 48.94 C 94.33 47.42 95.52 43.46 95.42 40.02 C 95.23 33.36 92.74 26.70 88.39 21.62 C 85.87 19.00 82.83 16.10 79.03 15.86 C 72.48 17.10 66.78 20.78 61.12 24.10 Z" />
<path fill="#8a1b6c" opacity="1.00" d=" M 61.12 24.10 C 66.78 20.78 72.48 17.10 79.03 15.86 C 82.83 16.10 85.87 19.00 88.39 21.62 C 92.74 26.70 95.23 33.36 95.42 40.02 C 95.52 43.46 94.33 47.42 90.96 48.94 C 85.79 51.33 80.24 53.49 74.45 53.32 C 71.47 53.32 68.33 53.22 65.61 54.64 C 62.50 56.10 60.70 59.18 58.85 61.92 C 54.93 68.07 50.87 74.13 46.69 80.11 C 42.23 74.22 38.44 67.84 33.87 62.04 C 37.67 60.96 41.24 59.19 45.06 58.19 C 48.91 57.16 52.99 57.88 56.83 56.78 C 60.06 55.89 63.05 54.33 66.18 53.16 C 71.73 50.81 77.99 51.83 83.61 49.69 C 87.57 48.28 93.26 46.82 93.54 41.71 C 93.98 34.04 90.67 26.19 85.08 20.94 C 83.12 19.32 80.69 17.14 77.94 18.04 C 72.51 19.61 67.49 22.51 63.30 26.29 C 59.02 30.17 53.38 31.83 48.36 34.47 C 44.02 36.60 42.14 41.53 38.01 43.93 C 34.08 46.34 29.40 47.68 26.17 51.13 C 24.01 53.11 22.19 56.27 18.89 56.26 C 15.81 56.59 11.38 55.23 9.57 58.58 C 8.68 61.77 10.21 65.34 12.42 67.66 C 15.11 70.17 18.67 67.66 21.55 66.83 C 19.59 66.01 17.48 65.37 15.83 63.97 C 14.44 61.94 14.55 59.32 14.40 56.96 C 16.09 58.96 17.11 61.41 18.53 63.60 C 22.08 61.79 26.10 60.26 30.03 61.87 C 31.11 62.35 32.18 62.85 33.24 63.37 C 29.94 64.12 26.30 64.33 23.56 66.55 C 20.99 68.32 18.55 71.18 15.11 70.77 C 11.44 70.49 9.15 67.07 8.07 63.89 C 7.12 61.36 6.72 57.99 9.00 56.02 C 11.89 53.40 16.05 54.63 19.56 54.16 C 21.82 54.16 23.60 52.27 24.13 50.18 C 24.99 47.88 23.14 45.84 22.05 43.99 C 17.68 37.78 13.39 31.52 9.10 25.25 C 23.73 25.51 38.37 25.20 53.01 25.46 C 55.75 25.42 58.68 25.56 61.12 24.10 Z" />
<path fill="#ffffff" opacity="1.00" d=" M 77.94 18.04 C 80.69 17.14 83.12 19.32 85.08 20.94 C 90.67 26.19 93.98 34.04 93.54 41.71 C 93.26 46.82 87.57 48.28 83.61 49.69 C 77.99 51.83 71.73 50.81 66.18 53.16 C 63.05 54.33 60.06 55.89 56.83 56.78 C 52.99 57.88 48.91 57.16 45.06 58.19 C 41.24 59.19 37.67 60.96 33.87 62.04 C 32.58 62.27 31.30 62.22 30.03 61.87 C 26.10 60.26 22.08 61.79 18.53 63.60 C 17.11 61.41 16.09 58.96 14.40 56.96 C 14.55 59.32 14.44 61.94 15.83 63.97 C 17.48 65.37 19.59 66.01 21.55 66.83 C 18.67 67.66 15.11 70.17 12.42 67.66 C 10.21 65.34 8.68 61.77 9.57 58.58 C 11.38 55.23 15.81 56.59 18.89 56.26 C 22.19 56.27 24.01 53.11 26.17 51.13 C 29.40 47.68 34.08 46.34 38.01 43.93 C 42.14 41.53 44.02 36.60 48.36 34.47 C 53.38 31.83 59.02 30.17 63.30 26.29 C 67.49 22.51 72.51 19.61 77.94 18.04 M 80.24 19.98 C 77.48 22.23 78.05 26.11 77.65 29.25 L 79.05 29.30 C 79.57 26.51 80.08 23.73 80.71 20.96 C 87.82 25.98 93.32 35.58 90.03 44.28 C 85.22 41.68 82.61 36.81 79.63 32.47 C 81.08 37.93 84.10 45.40 90.83 45.28 C 92.67 42.59 92.50 39.16 91.94 36.11 C 90.99 31.16 88.82 26.35 85.28 22.72 C 83.89 21.40 82.27 19.96 80.24 19.98 M 80.54 28.53 C 81.77 34.16 84.74 39.44 89.86 42.36 C 89.99 40.89 90.22 39.45 90.56 38.01 C 86.55 35.61 83.56 32.01 80.54 28.53 M 46.83 38.80 C 47.34 39.62 47.84 40.45 48.35 41.27 C 47.23 43.60 45.35 46.05 46.18 48.77 C 47.03 52.16 50.44 53.80 52.98 55.80 C 58.30 53.30 63.72 51.03 69.11 48.68 C 65.58 43.32 62.88 37.33 62.57 30.83 C 57.31 33.45 52.02 36.02 46.83 38.80 M 40.80 54.76 C 36.79 56.23 32.68 57.85 29.62 60.96 C 35.37 60.29 40.62 57.74 45.96 55.70 C 44.67 54.00 43.38 52.30 42.11 50.58 C 41.67 51.98 41.25 53.37 40.80 54.76 Z" />
<path fill="#8a1b6c" opacity="1.00" d=" M 80.24 19.98 C 82.27 19.96 83.89 21.40 85.28 22.72 C 88.82 26.35 90.99 31.16 91.94 36.11 C 92.50 39.16 92.67 42.59 90.83 45.28 C 84.10 45.40 81.08 37.93 79.63 32.47 C 82.61 36.81 85.22 41.68 90.03 44.28 C 93.32 35.58 87.82 25.98 80.71 20.96 C 80.08 23.73 79.57 26.51 79.05 29.30 L 77.65 29.25 C 78.05 26.11 77.48 22.23 80.24 19.98 Z" />
<path fill="#8b1d6d" opacity="1.00" d=" M 80.54 28.53 C 83.56 32.01 86.55 35.61 90.56 38.01 C 90.22 39.45 89.99 40.89 89.86 42.36 C 84.74 39.44 81.77 34.16 80.54 28.53 Z" />
<path fill="#8a1b6c" opacity="1.00" d=" M 46.83 38.80 C 52.02 36.02 57.31 33.45 62.57 30.83 C 62.88 37.33 65.58 43.32 69.11 48.68 C 63.72 51.03 58.30 53.30 52.98 55.80 C 50.44 53.80 47.03 52.16 46.18 48.77 C 45.35 46.05 47.23 43.60 48.35 41.27 C 47.84 40.45 47.34 39.62 46.83 38.80 Z" />
<path fill="#8a1b6c" opacity="1.00" d=" M 40.80 54.76 C 41.25 53.37 41.67 51.98 42.11 50.58 C 43.38 52.30 44.67 54.00 45.96 55.70 C 40.62 57.74 35.37 60.29 29.62 60.96 C 32.68 57.85 36.79 56.23 40.80 54.76 Z" />
</svg>
