<?xml version="1.0" encoding="UTF-8" ?>
<!DOCTYPE svg PUBLIC "-//W3C//DTD SVG 1.1//EN" "http://www.w3.org/Graphics/SVG/1.1/DTD/svg11.dtd">
<svg width="100pt" height="100pt" viewBox="0 0 100 100" version="1.1" xmlns="http://www.w3.org/2000/svg">
<path fill="#b7babc" opacity="1.00" d=" M 34.85 6.88 C 39.33 3.24 45.57 1.28 51.24 2.85 C 56.02 4.95 60.42 8.38 63.12 12.90 C 64.85 15.77 64.02 19.25 64.79 22.36 C 67.11 26.17 70.21 29.94 74.58 31.39 C 80.09 33.54 86.00 36.84 88.02 42.78 C 90.35 49.30 92.73 57.24 88.56 63.53 C 85.59 67.25 82.02 70.86 77.37 72.35 C 73.21 73.91 68.37 74.71 65.46 78.40 C 60.16 84.54 54.89 90.68 49.63 96.85 C 44.06 93.60 36.09 95.73 31.82 90.22 C 29.12 86.84 27.33 82.81 24.51 79.50 C 22.41 76.59 19.43 74.35 17.68 71.18 C 16.63 67.79 17.76 64.14 16.83 60.76 C 14.72 57.08 11.49 54.21 8.76 51.02 C 11.28 48.15 13.79 45.27 16.31 42.40 C 14.72 41.25 13.13 40.11 11.55 38.96 C 14.78 37.44 18.20 36.21 21.04 33.99 C 23.46 32.07 24.61 29.10 25.99 26.44 C 24.23 25.74 22.48 25.05 20.71 24.37 C 22.60 22.70 24.53 21.06 26.20 19.18 C 29.60 15.44 30.86 10.14 34.85 6.88 M 34.00 10.93 C 31.04 15.19 28.50 19.74 25.18 23.75 C 26.39 24.27 27.60 24.79 28.81 25.31 C 27.52 27.85 26.35 30.46 24.70 32.79 C 22.51 35.88 19.04 37.62 15.91 39.59 C 17.51 40.57 19.12 41.55 20.73 42.53 C 18.34 45.32 15.95 48.10 13.59 50.92 C 15.57 53.35 18.04 55.57 19.19 58.55 C 19.89 62.43 18.55 66.49 19.77 70.29 C 21.99 74.23 25.54 77.21 27.99 81.00 C 30.67 84.57 32.44 89.20 36.58 91.39 C 41.10 93.29 47.15 93.67 50.92 90.00 C 55.81 85.24 59.11 78.96 64.58 74.79 C 69.14 72.13 74.67 71.84 79.29 69.28 C 84.39 66.40 89.09 61.30 88.54 55.03 C 88.19 48.29 86.55 40.44 80.44 36.54 C 75.54 33.09 68.69 33.07 64.62 28.38 C 60.53 24.04 63.77 17.31 60.54 12.58 C 58.12 9.20 54.68 6.44 50.74 5.07 C 44.68 3.43 37.59 5.67 34.00 10.93 Z" />
<path fill="#e85a27" opacity="1.00" d=" M 34.00 10.93 C 37.59 5.67 44.68 3.43 50.74 5.07 C 54.68 6.44 58.12 9.20 60.54 12.58 C 63.77 17.31 60.53 24.04 64.62 28.38 C 68.69 33.07 75.54 33.09 80.44 36.54 C 86.55 40.44 88.19 48.29 88.54 55.03 C 89.09 61.30 84.39 66.40 79.29 69.28 C 74.67 71.84 69.14 72.13 64.58 74.79 C 59.11 78.96 55.81 85.24 50.92 90.00 C 47.15 93.67 41.10 93.29 36.58 91.39 C 32.44 89.20 30.67 84.57 27.99 81.00 C 25.54 77.21 21.99 74.23 19.77 70.29 C 18.55 66.49 19.89 62.43 19.19 58.55 C 18.04 55.57 15.57 53.35 13.59 50.92 C 15.95 48.10 18.34 45.32 20.73 42.53 C 19.12 41.55 17.51 40.57 15.91 39.59 C 19.04 37.62 22.51 35.88 24.70 32.79 C 26.35 30.46 27.52 27.85 28.81 25.31 C 27.60 24.79 26.39 24.27 25.18 23.75 C 28.50 19.74 31.04 15.19 34.00 10.93 M 37.10 11.06 C 33.95 14.81 31.83 19.29 28.97 23.26 C 31.70 21.30 34.33 19.19 37.08 17.26 C 33.98 21.28 31.17 25.51 29.12 30.17 C 27.30 34.60 23.43 37.53 20.03 40.68 C 27.75 40.88 32.27 33.89 38.71 30.94 C 37.71 32.61 36.68 34.27 35.65 35.92 C 41.41 33.81 47.89 34.18 53.40 31.38 C 57.60 28.11 60.19 22.63 59.83 17.28 C 59.21 13.82 56.34 11.34 53.64 9.37 C 48.80 5.51 41.21 6.68 37.10 11.06 M 60.94 36.11 C 56.29 38.17 51.53 39.96 46.54 41.03 C 51.37 41.43 56.23 41.33 61.04 41.95 C 57.66 42.70 54.21 43.16 50.90 44.18 C 46.17 45.66 42.05 48.51 37.58 50.58 C 32.60 52.87 26.98 51.91 21.72 51.52 C 23.93 53.20 25.98 55.22 28.61 56.22 C 33.06 57.40 37.69 56.51 42.21 56.45 C 45.22 56.44 48.06 57.57 50.89 58.43 C 47.53 59.37 44.12 60.16 40.73 60.99 C 44.77 61.69 49.01 62.21 52.54 64.46 C 57.23 67.24 62.04 70.94 67.79 70.60 C 74.75 69.48 82.08 66.06 85.40 59.51 C 87.00 53.98 85.34 48.01 83.04 42.91 C 78.56 35.87 68.63 32.72 60.94 36.11 M 20.38 67.51 C 23.34 71.45 27.35 74.34 31.70 76.57 C 30.87 76.71 29.21 77.00 28.38 77.14 C 31.29 80.78 33.10 85.31 36.62 88.44 C 40.33 90.73 45.77 91.25 49.30 88.35 C 52.44 84.87 53.94 79.10 50.96 75.05 C 47.65 69.92 40.87 70.20 35.66 68.44 C 36.58 69.40 37.50 70.36 38.41 71.33 C 32.19 71.24 26.05 70.11 20.38 67.51 Z" />
<path fill="#ffffff" opacity="1.00" d=" M 37.10 11.06 C 41.21 6.68 48.80 5.51 53.64 9.37 C 56.34 11.34 59.21 13.82 59.83 17.28 C 60.19 22.63 57.60 28.11 53.40 31.38 C 47.89 34.18 41.41 33.81 35.65 35.92 C 36.68 34.27 37.71 32.61 38.71 30.94 C 32.27 33.89 27.75 40.88 20.03 40.68 C 23.43 37.53 27.30 34.60 29.12 30.17 C 31.17 25.51 33.98 21.28 37.08 17.26 C 34.33 19.19 31.70 21.30 28.97 23.26 C 31.83 19.29 33.95 14.81 37.10 11.06 M 35.92 14.56 C 37.40 15.75 38.90 16.93 40.40 18.11 C 35.00 21.90 32.08 27.87 29.44 33.71 C 34.18 30.30 39.97 29.48 45.63 29.04 C 45.11 30.13 44.59 31.22 44.08 32.32 C 47.97 31.26 52.59 30.65 54.98 26.98 C 57.79 23.75 57.83 19.28 57.88 15.24 C 57.02 17.70 56.37 20.22 55.53 22.69 C 54.69 25.44 52.22 27.18 50.16 29.00 C 51.16 27.15 52.24 25.35 53.33 23.55 C 52.09 23.88 50.86 24.22 49.63 24.56 C 51.20 23.00 52.78 21.45 54.32 19.87 C 51.31 21.32 48.45 23.36 45.04 23.69 C 42.12 24.05 39.19 24.20 36.27 24.39 C 41.08 22.26 46.27 20.37 49.40 15.84 C 46.47 14.58 43.49 13.44 40.52 12.27 C 42.91 11.58 45.31 10.44 47.84 10.70 C 51.11 11.51 53.89 13.52 56.93 14.87 C 54.03 12.37 51.13 8.88 46.97 8.90 C 42.53 8.73 39.11 11.94 35.92 14.56 Z" />
<path fill="#e85825" opacity="1.00" d=" M 35.92 14.56 C 39.11 11.94 42.53 8.73 46.97 8.90 C 51.13 8.88 54.03 12.37 56.93 14.87 C 53.89 13.52 51.11 11.51 47.84 10.70 C 45.31 10.44 42.91 11.58 40.52 12.27 C 43.49 13.44 46.47 14.58 49.40 15.84 C 46.27 20.37 41.08 22.26 36.27 24.39 C 39.19 24.20 42.12 24.05 45.04 23.69 C 48.45 23.36 51.31 21.32 54.32 19.87 C 52.78 21.45 51.20 23.00 49.63 24.56 C 50.86 24.22 52.09 23.88 53.33 23.55 C 52.24 25.35 51.16 27.15 50.16 29.00 C 52.22 27.18 54.69 25.44 55.53 22.69 C 56.37 20.22 57.02 17.70 57.88 15.24 C 57.83 19.28 57.79 23.75 54.98 26.98 C 52.59 30.65 47.97 31.26 44.08 32.32 C 44.59 31.22 45.11 30.13 45.63 29.04 C 39.97 29.48 34.18 30.30 29.44 33.71 C 32.08 27.87 35.00 21.90 40.40 18.11 C 38.90 16.93 37.40 15.75 35.92 14.56 Z" />
<path fill="#ffffff" opacity="1.00" d=" M 60.94 36.11 C 68.63 32.72 78.56 35.87 83.04 42.91 C 85.34 48.01 87.00 53.98 85.40 59.51 C 82.08 66.06 74.75 69.48 67.79 70.60 C 62.04 70.94 57.23 67.24 52.54 64.46 C 49.01 62.21 44.77 61.69 40.73 60.99 C 44.12 60.16 47.53 59.37 50.89 58.43 C 48.06 57.57 45.22 56.44 42.21 56.45 C 37.69 56.51 33.06 57.40 28.61 56.22 C 25.98 55.22 23.93 53.20 21.72 51.52 C 26.98 51.91 32.60 52.87 37.58 50.58 C 42.05 48.51 46.17 45.66 50.90 44.18 C 54.21 43.16 57.66 42.70 61.04 41.95 C 56.23 41.33 51.37 41.43 46.54 41.03 C 51.53 39.96 56.29 38.17 60.94 36.11 M 60.82 38.32 C 61.61 40.74 62.41 43.15 63.16 45.59 C 59.08 45.65 54.85 45.36 50.96 46.87 C 46.30 48.68 42.00 51.27 37.59 53.60 C 41.13 53.65 44.84 53.32 48.16 54.80 C 52.15 56.59 55.56 59.38 59.15 61.81 C 57.60 62.18 56.05 62.54 54.50 62.91 C 58.62 65.10 62.83 68.12 67.72 67.83 C 72.49 67.15 77.31 65.29 80.61 61.65 C 82.40 59.95 83.81 57.65 83.52 55.08 C 83.11 49.38 81.66 42.66 76.10 39.80 C 71.59 36.67 65.90 37.39 60.82 38.32 Z" />
<path fill="#e85a27" opacity="1.00" d=" M 60.82 38.32 C 65.90 37.39 71.59 36.67 76.10 39.80 C 81.66 42.66 83.11 49.38 83.52 55.08 C 83.81 57.65 82.40 59.95 80.61 61.65 C 77.31 65.29 72.49 67.15 67.72 67.83 C 62.83 68.12 58.62 65.10 54.50 62.91 C 56.05 62.54 57.60 62.18 59.15 61.81 C 55.56 59.38 52.15 56.59 48.16 54.80 C 44.84 53.32 41.13 53.65 37.59 53.60 C 42.00 51.27 46.30 48.68 50.96 46.87 C 54.85 45.36 59.08 45.65 63.16 45.59 C 62.41 43.15 61.61 40.74 60.82 38.32 M 66.91 39.62 C 69.21 41.93 71.60 44.14 73.97 46.39 C 71.63 46.58 69.30 46.73 66.98 46.97 C 68.35 47.55 69.71 48.25 71.18 48.55 C 73.40 48.46 75.38 47.27 77.41 46.49 C 77.55 46.86 77.85 47.60 77.99 47.97 C 75.00 49.35 72.05 50.86 68.90 51.87 C 66.43 52.84 64.10 51.07 61.83 50.36 C 58.68 48.84 55.15 49.44 51.80 49.59 C 56.12 50.65 60.22 52.45 63.63 55.34 C 67.54 58.75 73.05 57.75 77.78 58.62 C 74.47 59.21 71.12 59.56 67.79 59.96 C 70.00 60.84 72.23 61.71 74.43 62.62 C 70.79 63.13 67.14 63.56 63.51 64.14 C 65.98 64.75 68.51 65.58 71.08 65.13 C 75.92 64.61 79.73 60.76 81.81 56.61 C 82.25 52.60 80.87 48.51 78.97 45.02 C 76.40 40.90 71.38 39.97 66.91 39.62 Z" />
<path fill="#ffffff" opacity="1.00" d=" M 66.91 39.62 C 71.38 39.97 76.40 40.90 78.97 45.02 C 80.87 48.51 82.25 52.60 81.81 56.61 C 79.73 60.76 75.92 64.61 71.08 65.13 C 68.51 65.58 65.98 64.75 63.51 64.14 C 67.14 63.56 70.79 63.13 74.43 62.62 C 72.23 61.71 70.00 60.84 67.79 59.96 C 71.12 59.56 74.47 59.21 77.78 58.62 C 73.05 57.75 67.54 58.75 63.63 55.34 C 60.22 52.45 56.12 50.65 51.80 49.59 C 55.15 49.44 58.68 48.84 61.83 50.36 C 64.10 51.07 66.43 52.84 68.90 51.87 C 72.05 50.86 75.00 49.35 77.99 47.97 C 77.85 47.60 77.55 46.86 77.41 46.49 C 75.38 47.27 73.40 48.46 71.18 48.55 C 69.71 48.25 68.35 47.55 66.98 46.97 C 69.30 46.73 71.63 46.58 73.97 46.39 C 71.60 44.14 69.21 41.93 66.91 39.62 Z" />
<path fill="#ffffff" opacity="1.00" d=" M 20.38 67.51 C 26.05 70.11 32.19 71.24 38.41 71.33 C 37.50 70.36 36.58 69.40 35.66 68.44 C 40.87 70.20 47.65 69.92 50.96 75.05 C 53.94 79.10 52.44 84.87 49.30 88.35 C 45.77 91.25 40.33 90.73 36.62 88.44 C 33.10 85.31 31.29 80.78 28.38 77.14 C 29.21 77.00 30.87 76.71 31.70 76.57 C 27.35 74.34 23.34 71.45 20.38 67.51 M 29.28 71.74 C 33.59 76.14 35.06 82.24 36.78 87.94 C 40.72 88.67 44.77 88.68 48.66 87.69 C 46.49 87.48 44.30 87.35 42.12 87.25 C 42.02 86.85 41.81 86.04 41.71 85.64 C 42.96 85.57 44.21 85.50 45.46 85.43 C 43.98 84.57 42.51 83.71 41.03 82.85 C 39.45 79.86 37.90 76.86 36.26 73.90 C 38.32 75.79 40.20 77.89 42.46 79.55 C 44.36 80.68 46.70 80.54 48.84 80.76 C 47.01 79.71 45.14 78.75 43.32 77.70 C 44.51 78.06 45.70 78.44 46.89 78.83 C 46.81 77.17 46.74 75.51 46.71 73.85 C 49.98 77.47 49.90 82.28 49.29 86.81 C 49.99 84.02 50.94 81.21 50.75 78.30 C 50.03 75.32 47.48 72.75 44.42 72.27 C 43.40 73.06 42.48 73.97 41.54 74.85 C 37.59 73.35 33.44 72.49 29.28 71.74 Z" />
<path fill="#e85723" opacity="1.00" d=" M 29.28 71.74 C 33.44 72.49 37.59 73.35 41.54 74.85 C 42.48 73.97 43.40 73.06 44.42 72.27 C 47.48 72.75 50.03 75.32 50.75 78.30 C 50.94 81.21 49.99 84.02 49.29 86.81 C 49.90 82.28 49.98 77.47 46.71 73.85 C 46.74 75.51 46.81 77.17 46.89 78.83 C 45.70 78.44 44.51 78.06 43.32 77.70 C 45.14 78.75 47.01 79.71 48.84 80.76 C 46.70 80.54 44.36 80.68 42.46 79.55 C 40.20 77.89 38.32 75.79 36.26 73.90 C 37.90 76.86 39.45 79.86 41.03 82.85 C 39.61 84.54 38.18 86.24 36.78 87.94 C 35.06 82.24 33.59 76.14 29.28 71.74 Z" />
<path fill="#f19c7d" opacity="1.00" d=" M 41.03 82.85 C 42.51 83.71 43.98 84.57 45.46 85.43 C 44.21 85.50 42.96 85.57 41.71 85.64 C 41.81 86.04 42.02 86.85 42.12 87.25 C 44.30 87.35 46.49 87.48 48.66 87.69 C 44.77 88.68 40.72 88.67 36.78 87.94 C 38.18 86.24 39.61 84.54 41.03 82.85 Z" />
</svg>
