<?xml version="1.0" encoding="UTF-8" ?>
<!DOCTYPE svg PUBLIC "-//W3C//DTD SVG 1.1//EN" "http://www.w3.org/Graphics/SVG/1.1/DTD/svg11.dtd">
<svg width="100pt" height="100pt" viewBox="0 0 100 100" version="1.1" xmlns="http://www.w3.org/2000/svg">
<path fill="#b8b8b8" opacity="1.00" d=" M 33.14 0.00 L 33.92 0.00 C 35.76 2.77 38.43 5.40 38.45 8.95 C 38.71 14.15 38.15 19.35 38.45 24.55 C 42.51 20.55 45.38 15.59 48.49 10.87 C 52.91 15.91 60.39 12.81 65.41 16.56 C 68.17 18.64 67.69 22.40 67.84 25.44 C 72.12 27.37 77.18 29.51 78.65 34.43 C 80.38 39.30 76.90 43.77 73.94 47.27 C 78.38 54.09 82.95 60.82 87.44 67.61 C 89.96 71.66 94.09 74.18 97.96 76.76 C 93.47 79.06 88.20 80.87 85.40 85.36 C 82.92 89.35 81.26 93.77 79.39 98.06 C 76.48 93.06 73.51 87.68 68.35 84.67 C 65.59 82.90 62.25 82.54 59.04 82.56 C 39.69 82.66 20.33 82.62 0.97 82.61 C 6.05 74.82 11.25 67.11 16.43 59.39 C 17.22 57.87 18.76 56.32 18.21 54.48 C 17.84 52.08 16.57 49.72 16.95 47.26 C 19.28 43.55 26.05 43.34 25.89 38.05 C 26.68 28.18 25.99 18.19 27.64 8.38 C 28.08 4.88 30.76 2.35 33.14 0.00 M 29.08 19.94 C 28.55 26.29 28.77 32.67 28.60 39.03 C 28.85 44.42 22.32 45.28 19.18 48.28 C 19.88 51.28 21.42 54.04 21.93 57.09 C 18.86 65.07 11.67 70.86 9.00 79.08 C 8.61 79.14 7.84 79.26 7.45 79.33 C 9.94 79.76 12.46 80.05 14.99 80.06 C 30.00 79.98 45.02 79.93 60.03 80.09 C 62.12 80.10 64.18 79.68 66.20 79.16 C 72.83 80.76 76.04 87.67 79.05 93.14 C 80.56 89.45 81.79 85.51 84.44 82.44 C 87.03 79.67 90.62 78.19 93.92 76.46 C 90.74 75.08 87.18 73.88 85.13 70.88 C 81.59 66.04 78.51 60.88 74.97 56.03 C 73.29 53.46 71.15 51.03 70.36 48.00 C 71.15 45.30 73.86 43.62 75.29 41.23 C 77.32 38.61 76.89 34.78 74.68 32.41 C 72.02 28.90 67.42 28.25 63.38 27.58 C 64.19 24.84 66.63 21.42 64.19 18.87 C 60.96 16.05 56.12 16.28 52.13 16.87 C 47.75 17.78 46.35 22.61 43.39 25.37 C 40.84 26.38 38.04 26.43 35.35 26.82 C 35.56 21.20 36.24 15.58 36.17 9.95 C 36.33 7.26 34.48 5.16 33.06 3.09 C 28.77 7.65 29.61 14.20 29.08 19.94 Z" />
<path fill="#277373" opacity="1.00" d=" M 29.08 19.94 C 29.61 14.20 28.77 7.65 33.06 3.09 C 34.48 5.16 36.33 7.26 36.17 9.95 C 36.24 15.58 35.56 21.20 35.35 26.82 C 38.04 26.43 40.84 26.38 43.39 25.37 C 46.35 22.61 47.75 17.78 52.13 16.87 C 56.12 16.28 60.96 16.05 64.19 18.87 C 66.63 21.42 64.19 24.84 63.38 27.58 C 67.42 28.25 72.02 28.90 74.68 32.41 C 76.89 34.78 77.32 38.61 75.29 41.23 C 73.86 43.62 71.15 45.30 70.36 48.00 C 71.15 51.03 73.29 53.46 74.97 56.03 C 78.51 60.88 81.59 66.04 85.13 70.88 C 87.18 73.88 90.74 75.08 93.92 76.46 C 90.62 78.19 87.03 79.67 84.44 82.44 C 81.79 85.51 80.56 89.45 79.05 93.14 C 76.04 87.67 72.83 80.76 66.20 79.16 C 62.50 78.59 58.74 78.51 55.00 78.56 C 45.00 78.69 35.00 78.61 25.00 78.62 C 19.67 78.65 14.30 78.30 9.00 79.08 C 11.67 70.86 18.86 65.07 21.93 57.09 C 21.42 54.04 19.88 51.28 19.18 48.28 C 22.32 45.28 28.85 44.42 28.60 39.03 C 28.77 32.67 28.55 26.29 29.08 19.94 M 30.25 43.40 C 28.35 46.14 25.33 47.83 22.32 49.08 C 23.91 52.10 24.69 55.44 25.35 58.77 C 26.67 58.59 27.99 58.41 29.31 58.25 C 28.01 59.05 26.71 59.84 25.39 60.62 C 27.53 65.11 30.34 69.80 29.26 74.98 C 35.71 74.85 42.24 75.60 48.64 74.62 C 51.77 72.62 53.40 69.08 55.43 66.11 C 55.29 65.55 55.00 64.43 54.86 63.87 C 53.19 61.08 51.68 58.02 48.98 56.06 C 46.74 54.33 43.81 54.16 41.14 53.60 C 40.82 51.30 40.52 48.99 40.23 46.69 C 39.22 47.54 38.24 48.42 37.19 49.22 C 35.68 46.52 32.99 44.26 32.69 41.05 C 32.35 29.25 34.36 17.45 33.41 5.66 C 30.18 17.97 32.03 30.92 30.25 43.40 M 49.76 21.88 C 49.30 23.76 49.91 25.68 50.15 27.55 C 48.75 29.28 47.44 31.06 46.21 32.91 C 48.26 33.29 50.28 33.83 52.32 34.24 C 47.89 34.65 43.44 34.88 39.02 35.46 C 38.78 35.08 38.29 34.30 38.05 33.92 C 40.86 33.04 43.73 32.40 46.60 31.75 C 45.92 30.68 45.52 29.35 44.48 28.56 C 41.52 28.05 37.54 27.81 35.71 30.72 C 34.22 32.77 33.99 37.28 37.33 37.41 C 42.93 37.83 48.49 36.49 53.90 35.17 C 55.99 34.49 58.08 33.80 60.16 33.09 C 63.15 32.89 66.39 32.28 69.18 33.75 C 71.42 34.74 71.59 37.53 72.48 39.52 C 71.38 39.00 70.29 38.47 69.19 37.94 C 69.55 39.73 69.91 41.52 70.30 43.31 C 72.78 41.31 75.62 37.91 73.35 34.70 C 70.02 30.10 63.63 30.12 58.65 28.60 C 57.10 27.84 56.57 29.70 55.76 30.60 C 54.65 30.46 53.53 30.33 52.42 30.20 C 52.23 26.12 52.81 22.06 54.59 18.36 C 52.93 19.39 50.53 19.87 49.76 21.88 M 56.50 20.31 C 53.35 22.18 54.14 26.41 53.66 29.48 C 55.45 27.84 57.19 26.15 58.92 24.45 C 59.70 24.85 60.48 25.25 61.27 25.65 C 62.03 24.07 62.77 22.48 63.51 20.89 C 61.30 20.11 58.69 18.67 56.50 20.31 M 41.95 38.73 C 39.07 38.90 37.67 41.64 35.99 43.57 C 37.21 43.80 38.43 44.03 39.65 44.26 C 40.20 45.14 40.75 46.03 41.31 46.91 C 43.23 47.13 45.15 47.34 47.08 47.55 C 45.85 48.59 44.62 49.63 43.40 50.68 C 48.46 51.55 53.60 51.35 58.70 51.58 C 60.54 48.81 63.58 47.62 66.47 46.33 C 69.08 45.28 67.82 42.05 68.06 39.93 C 65.93 39.74 63.29 38.67 61.58 40.53 C 58.97 43.82 58.27 49.29 53.16 49.57 C 55.08 45.37 57.59 41.37 58.41 36.76 C 52.88 36.93 47.40 37.82 41.95 38.73 M 62.13 58.07 C 65.21 55.76 67.70 52.61 67.83 48.59 C 65.57 51.52 63.84 54.80 62.13 58.07 M 62.14 51.01 C 60.84 51.72 60.86 52.39 62.18 53.03 C 63.48 52.33 63.46 51.65 62.14 51.01 M 57.49 53.55 C 58.82 58.13 59.53 63.01 58.53 67.73 C 57.43 70.46 55.26 72.58 53.56 74.94 C 56.74 75.00 59.92 75.00 63.09 74.98 C 61.80 70.04 60.98 64.99 60.55 59.90 C 61.70 60.60 62.85 61.31 64.00 62.01 C 61.99 59.07 59.84 56.23 57.49 53.55 M 61.59 63.42 C 62.05 65.84 62.78 68.21 63.87 70.43 C 64.24 67.75 64.72 64.57 61.59 63.42 M 77.52 66.20 C 76.82 68.49 76.37 70.96 74.94 72.94 C 73.26 74.93 70.59 75.58 68.28 76.54 C 70.42 77.39 72.68 78.10 74.50 79.57 C 76.30 81.29 77.31 83.64 78.48 85.80 C 79.34 83.65 79.93 81.28 81.50 79.51 C 83.12 77.98 85.19 77.08 87.12 76.04 C 85.05 75.13 82.80 74.44 81.08 72.92 C 79.35 71.02 78.52 68.52 77.52 66.20 Z" />
<path fill="#ffffff" opacity="1.00" d=" M 30.25 43.40 C 32.03 30.92 30.18 17.97 33.41 5.66 C 34.36 17.45 32.35 29.25 32.69 41.05 C 32.99 44.26 35.68 46.52 37.19 49.22 L 36.54 49.66 C 32.66 50.13 28.75 50.05 24.85 50.05 C 28.19 51.18 31.68 52.30 34.32 54.76 C 34.55 55.10 35.00 55.78 35.23 56.12 C 38.06 59.66 39.73 63.91 40.12 68.43 C 41.09 64.76 41.20 60.92 40.28 57.23 C 44.74 56.85 49.23 58.71 51.01 63.06 C 53.08 66.77 48.41 69.29 46.49 71.83 C 49.47 70.72 52.10 68.80 53.60 65.92 C 53.91 65.41 54.54 64.38 54.86 63.87 C 55.00 64.43 55.29 65.55 55.43 66.11 C 53.40 69.08 51.77 72.62 48.64 74.62 C 42.24 75.60 35.71 74.85 29.26 74.98 C 30.34 69.80 27.53 65.11 25.39 60.62 C 26.71 59.84 28.01 59.05 29.31 58.25 C 27.99 58.41 26.67 58.59 25.35 58.77 C 24.69 55.44 23.91 52.10 22.32 49.08 C 25.33 47.83 28.35 46.14 30.25 43.40 M 31.89 70.03 C 31.89 70.53 31.89 71.54 31.89 72.05 C 33.59 72.03 35.29 72.01 36.98 71.99 C 36.99 71.50 37.00 70.52 37.01 70.03 C 35.30 70.03 33.59 70.03 31.89 70.03 Z" />
<path fill="#ffffff" opacity="1.00" d=" M 49.76 21.88 C 50.53 19.87 52.93 19.39 54.59 18.36 C 52.81 22.06 52.23 26.12 52.42 30.20 C 52.13 30.36 51.54 30.69 51.25 30.85 C 52.26 31.29 53.27 31.73 54.29 32.17 C 54.16 33.17 54.02 34.17 53.90 35.17 C 48.49 36.49 42.93 37.83 37.33 37.41 C 33.99 37.28 34.22 32.77 35.71 30.72 C 37.54 27.81 41.52 28.05 44.48 28.56 C 45.52 29.35 45.92 30.68 46.60 31.75 C 43.73 32.40 40.86 33.04 38.05 33.92 C 38.29 34.30 38.78 35.08 39.02 35.46 C 43.44 34.88 47.89 34.65 52.32 34.24 C 50.28 33.83 48.26 33.29 46.21 32.91 C 47.44 31.06 48.75 29.28 50.15 27.55 C 49.91 25.68 49.30 23.76 49.76 21.88 Z" />
<path fill="#ffffff" opacity="1.00" d=" M 56.50 20.31 C 58.69 18.67 61.30 20.11 63.51 20.89 C 62.77 22.48 62.03 24.07 61.27 25.65 C 60.48 25.25 59.70 24.85 58.92 24.45 C 57.19 26.15 55.45 27.84 53.66 29.48 C 54.14 26.41 53.35 22.18 56.50 20.31 Z" />
<path fill="#ffffff" opacity="1.00" d=" M 55.76 30.60 C 56.57 29.70 57.10 27.84 58.65 28.60 C 63.63 30.12 70.02 30.10 73.35 34.70 C 75.62 37.91 72.78 41.31 70.30 43.31 C 69.91 41.52 69.55 39.73 69.19 37.94 C 70.29 38.47 71.38 39.00 72.48 39.52 C 71.59 37.53 71.42 34.74 69.18 33.75 C 66.39 32.28 63.15 32.89 60.16 33.09 C 59.75 33.13 58.93 33.21 58.52 33.24 C 58.89 32.53 59.25 31.82 59.62 31.10 C 58.33 30.93 57.05 30.76 55.76 30.60 Z" />
<path fill="#96bbbb" opacity="1.00" d=" M 51.25 30.85 C 51.54 30.69 52.13 30.36 52.42 30.20 C 53.53 30.33 54.65 30.46 55.76 30.60 C 57.05 30.76 58.33 30.93 59.62 31.10 C 59.25 31.82 58.89 32.53 58.52 33.24 C 58.93 33.21 59.75 33.13 60.16 33.09 C 58.08 33.80 55.99 34.49 53.90 35.17 C 54.02 34.17 54.16 33.17 54.29 32.17 C 53.27 31.73 52.26 31.29 51.25 30.85 Z" />
<path fill="#ffffff" opacity="1.00" d=" M 41.95 38.73 C 47.40 37.82 52.88 36.93 58.41 36.76 C 57.59 41.37 55.08 45.37 53.16 49.57 C 58.27 49.29 58.97 43.82 61.58 40.53 C 63.29 38.67 65.93 39.74 68.06 39.93 C 67.82 42.05 69.08 45.28 66.47 46.33 C 63.58 47.62 60.54 48.81 58.70 51.58 C 53.60 51.35 48.46 51.55 43.40 50.68 C 44.62 49.63 45.85 48.59 47.08 47.55 C 45.15 47.34 43.23 47.13 41.31 46.91 C 40.75 46.03 40.20 45.14 39.65 44.26 C 38.43 44.03 37.21 43.80 35.99 43.57 C 37.67 41.64 39.07 38.90 41.95 38.73 M 48.11 40.12 C 48.09 43.47 52.51 42.34 54.65 42.21 C 53.97 41.20 53.24 40.24 52.46 39.32 C 50.96 39.11 49.49 39.60 48.11 40.12 M 60.33 43.04 C 61.68 44.96 64.02 45.61 66.08 46.45 C 66.11 44.46 66.09 42.48 66.04 40.49 C 63.98 40.93 61.81 41.40 60.33 43.04 Z" />
<path fill="#206e6e" opacity="1.00" d=" M 48.11 40.12 C 49.49 39.60 50.96 39.11 52.46 39.32 C 53.24 40.24 53.97 41.20 54.65 42.21 C 52.51 42.34 48.09 43.47 48.11 40.12 Z" />
<path fill="#206e6e" opacity="1.00" d=" M 60.33 43.04 C 61.81 41.40 63.98 40.93 66.04 40.49 C 66.09 42.48 66.11 44.46 66.08 46.45 C 64.02 45.61 61.68 44.96 60.33 43.04 Z" />
<path fill="#94b9b9" opacity="1.00" d=" M 37.19 49.22 C 38.24 48.42 39.22 47.54 40.23 46.69 C 40.52 48.99 40.82 51.30 41.14 53.60 C 43.81 54.16 46.74 54.33 48.98 56.06 C 51.68 58.02 53.19 61.08 54.86 63.87 C 54.54 64.38 53.91 65.41 53.60 65.92 C 51.90 62.08 49.99 57.59 45.72 56.07 C 43.56 55.83 41.43 56.42 39.32 56.76 L 40.28 57.23 C 41.20 60.92 41.09 64.76 40.12 68.43 C 39.73 63.91 38.06 59.66 35.23 56.12 C 36.46 55.33 37.68 54.55 38.90 53.76 C 38.95 53.06 39.03 51.66 39.08 50.96 C 37.26 50.93 35.44 50.91 33.63 50.89 C 33.84 52.18 34.07 53.48 34.32 54.76 C 31.68 52.30 28.19 51.18 24.85 50.05 C 28.75 50.05 32.66 50.13 36.54 49.66 L 37.19 49.22 M 37.22 56.21 C 36.77 57.62 37.24 58.09 38.64 57.62 C 39.10 56.21 38.62 55.74 37.22 56.21 Z" />
<path fill="#ffffff" opacity="1.00" d=" M 62.13 58.07 C 63.84 54.80 65.57 51.52 67.83 48.59 C 67.70 52.61 65.21 55.76 62.13 58.07 Z" />
<path fill="#277373" opacity="1.00" d=" M 33.63 50.89 C 35.44 50.91 37.26 50.93 39.08 50.96 C 39.03 51.66 38.95 53.06 38.90 53.76 C 37.68 54.55 36.46 55.33 35.23 56.12 C 35.00 55.78 34.55 55.10 34.32 54.76 C 34.07 53.48 33.84 52.18 33.63 50.89 Z" />
<path fill="#95baba" opacity="1.00" d=" M 62.14 51.01 C 63.46 51.65 63.48 52.33 62.18 53.03 C 60.86 52.39 60.84 51.72 62.14 51.01 Z" />
<path fill="#ffffff" opacity="1.00" d=" M 57.49 53.55 C 59.84 56.23 61.99 59.07 64.00 62.01 C 62.85 61.31 61.70 60.60 60.55 59.90 C 60.98 64.99 61.80 70.04 63.09 74.98 C 59.92 75.00 56.74 75.00 53.56 74.94 C 55.26 72.58 57.43 70.46 58.53 67.73 C 59.53 63.01 58.82 58.13 57.49 53.55 Z" />
<path fill="#125e5e" opacity="1.00" d=" M 37.22 56.21 C 38.62 55.74 39.10 56.21 38.64 57.62 C 37.24 58.09 36.77 57.62 37.22 56.21 Z" />
<path fill="#206e6e" opacity="1.00" d=" M 39.32 56.76 C 41.43 56.42 43.56 55.83 45.72 56.07 C 49.99 57.59 51.90 62.08 53.60 65.92 C 52.10 68.80 49.47 70.72 46.49 71.83 C 48.41 69.29 53.08 66.77 51.01 63.06 C 49.23 58.71 44.74 56.85 40.28 57.23 L 39.32 56.76 Z" />
<path fill="#f5f9f9" opacity="1.00" d=" M 61.59 63.42 C 64.72 64.57 64.24 67.75 63.87 70.43 C 62.78 68.21 62.05 65.84 61.59 63.42 Z" />
<path fill="#ecaa45" opacity="1.00" d=" M 77.52 66.20 C 78.52 68.52 79.35 71.02 81.08 72.92 C 82.80 74.44 85.05 75.13 87.12 76.04 C 85.19 77.08 83.12 77.98 81.50 79.51 C 79.93 81.28 79.34 83.65 78.48 85.80 C 77.31 83.64 76.30 81.29 74.50 79.57 C 72.68 78.10 70.42 77.39 68.28 76.54 C 70.59 75.58 73.26 74.93 74.94 72.94 C 76.37 70.96 76.82 68.49 77.52 66.20 Z" />
<path fill="#8bb4b4" opacity="1.00" d=" M 31.89 70.03 C 33.59 70.03 35.30 70.03 37.01 70.03 C 37.00 70.52 36.99 71.50 36.98 71.99 C 35.29 72.01 33.59 72.03 31.89 72.05 C 31.89 71.54 31.89 70.53 31.89 70.03 Z" />
<path fill="#d1c4c4" opacity="1.00" d=" M 7.45 79.33 C 7.84 79.26 8.61 79.14 9.00 79.08 C 14.30 78.30 19.67 78.65 25.00 78.62 C 35.00 78.61 45.00 78.69 55.00 78.56 C 58.74 78.51 62.50 78.59 66.20 79.16 C 64.18 79.68 62.12 80.10 60.03 80.09 C 45.02 79.93 30.00 79.98 14.99 80.06 C 12.46 80.05 9.94 79.76 7.45 79.33 Z" />
</svg>
