<?xml version="1.0" encoding="UTF-8" ?>
<!DOCTYPE svg PUBLIC "-//W3C//DTD SVG 1.1//EN" "http://www.w3.org/Graphics/SVG/1.1/DTD/svg11.dtd">
<svg width="100pt" height="100pt" viewBox="0 0 100 100" version="1.1" xmlns="http://www.w3.org/2000/svg">
<path fill="#bab9b9" opacity="1.00" d=" M 37.69 33.68 C 42.52 30.03 46.24 25.31 49.43 20.21 C 52.21 23.80 54.44 28.00 58.27 30.63 C 60.42 32.11 62.13 34.11 64.13 35.77 C 67.09 37.52 71.31 37.48 73.27 40.70 C 76.31 45.14 74.80 50.71 75.33 55.70 C 76.02 57.51 77.24 59.06 78.34 60.64 C 82.99 66.95 87.49 73.36 92.06 79.73 C 84.67 79.78 77.29 79.62 69.90 79.72 C 66.01 79.42 63.38 82.74 59.98 83.97 C 56.74 85.11 53.39 86.08 49.97 86.41 C 46.04 86.15 42.27 84.78 38.63 83.36 C 35.44 82.11 32.68 79.50 29.08 79.53 C 22.00 79.34 14.91 79.59 7.83 79.49 C 13.20 71.71 18.94 64.16 24.02 56.20 C 25.25 51.50 23.09 46.15 25.68 41.66 C 27.90 36.66 34.62 37.81 37.69 33.68 M 49.35 26.16 C 45.73 30.25 41.62 33.92 37.06 36.92 C 34.12 38.82 30.46 39.55 27.87 41.99 C 25.38 45.84 26.79 50.65 26.80 54.92 C 27.18 57.88 25.21 60.34 23.63 62.61 C 20.22 67.18 16.93 71.84 13.88 76.65 C 18.95 76.69 24.02 76.33 29.08 76.66 C 32.83 76.76 35.66 79.46 38.82 81.09 C 45.75 85.01 54.94 85.15 61.62 80.61 C 64.21 78.98 66.67 76.69 69.92 76.66 C 75.33 76.33 80.76 76.72 86.18 76.64 C 82.62 71.00 78.45 65.80 74.58 60.38 C 70.24 54.94 75.66 47.16 71.41 41.67 C 68.66 39.46 65.08 38.67 62.17 36.71 C 57.59 33.58 53.26 30.09 49.35 26.16 Z" />
<path fill="#217a7a" opacity="1.00" d=" M 49.35 26.16 C 53.26 30.09 57.59 33.58 62.17 36.71 C 65.08 38.67 68.66 39.46 71.41 41.67 C 75.66 47.16 70.24 54.94 74.58 60.38 C 78.45 65.80 82.62 71.00 86.18 76.64 C 80.76 76.72 75.33 76.33 69.92 76.66 C 66.67 76.69 64.21 78.98 61.62 80.61 C 54.94 85.15 45.75 85.01 38.82 81.09 C 35.66 79.46 32.83 76.76 29.08 76.66 C 24.02 76.33 18.95 76.69 13.88 76.65 C 16.93 71.84 20.22 67.18 23.63 62.61 C 25.21 60.34 27.18 57.88 26.80 54.92 C 26.79 50.65 25.38 45.84 27.87 41.99 C 30.46 39.55 34.12 38.82 37.06 36.92 C 41.62 33.92 45.73 30.25 49.35 26.16 M 39.50 38.62 C 37.06 41.32 33.15 41.41 30.16 43.18 C 28.20 45.94 28.45 49.64 29.00 52.82 C 29.74 57.14 33.56 59.77 35.60 63.39 C 37.00 67.99 36.50 72.89 36.57 77.63 C 41.76 79.77 47.32 82.48 53.08 81.25 C 56.28 80.51 60.01 79.94 62.19 77.23 C 63.91 72.90 62.81 68.07 63.86 63.61 C 65.63 59.97 69.51 57.57 70.38 53.42 C 71.05 50.18 71.31 46.48 69.61 43.50 C 67.01 41.44 63.27 41.50 60.74 39.29 C 58.90 37.86 57.55 35.72 55.35 34.79 C 52.06 33.95 48.57 34.02 45.23 34.52 C 42.70 34.78 41.23 37.05 39.50 38.62 Z" />
<path fill="#ffffff" opacity="1.00" d=" M 39.50 38.62 C 41.23 37.05 42.70 34.78 45.23 34.52 C 48.57 34.02 52.06 33.95 55.35 34.79 C 57.55 35.72 58.90 37.86 60.74 39.29 C 63.27 41.50 67.01 41.44 69.61 43.50 C 71.31 46.48 71.05 50.18 70.38 53.42 C 69.51 57.57 65.63 59.97 63.86 63.61 C 62.81 68.07 63.91 72.90 62.19 77.23 C 60.01 79.94 56.28 80.51 53.08 81.25 C 47.32 82.48 41.76 79.77 36.57 77.63 C 36.50 72.89 37.00 67.99 35.60 63.39 C 33.56 59.77 29.74 57.14 29.00 52.82 C 28.45 49.64 28.20 45.94 30.16 43.18 C 33.15 41.41 37.06 41.32 39.50 38.62 M 43.96 36.88 C 45.60 38.76 47.10 41.74 49.99 41.63 C 52.59 41.28 54.10 38.77 55.77 37.02 C 51.85 36.51 47.89 36.49 43.96 36.88 M 66.35 43.47 C 65.83 46.04 65.44 48.64 65.14 51.25 C 65.96 51.37 67.60 51.61 68.42 51.73 C 67.85 48.95 67.20 46.18 66.35 43.47 M 31.87 52.82 C 34.43 50.20 34.49 46.78 33.05 43.57 C 31.91 46.52 31.55 49.67 31.87 52.82 M 46.05 50.89 C 43.98 55.29 42.10 59.80 40.50 64.40 C 39.36 67.98 43.22 70.25 45.28 72.51 C 45.29 70.49 45.09 68.44 45.43 66.44 C 46.97 63.78 49.30 61.70 51.35 59.45 C 51.74 61.69 51.96 63.95 52.03 66.22 C 53.41 65.91 54.80 65.61 56.19 65.32 C 55.60 67.71 54.91 70.07 54.27 72.45 C 56.77 70.16 60.36 67.85 60.18 64.02 C 59.71 59.12 54.91 56.51 52.65 52.54 C 52.05 50.88 52.22 49.07 52.07 47.34 C 49.96 48.25 47.14 48.58 46.05 50.89 Z" />
<path fill="#227a7a" opacity="1.00" d=" M 43.96 36.88 C 47.89 36.49 51.85 36.51 55.77 37.02 C 54.10 38.77 52.59 41.28 49.99 41.63 C 47.10 41.74 45.60 38.76 43.96 36.88 Z" />
<path fill="#006161" opacity="1.00" d=" M 66.35 43.47 C 67.20 46.18 67.85 48.95 68.42 51.73 C 67.60 51.61 65.96 51.37 65.14 51.25 C 65.44 48.64 65.83 46.04 66.35 43.47 Z" />
<path fill="#177070" opacity="1.00" d=" M 31.87 52.82 C 31.55 49.67 31.91 46.52 33.05 43.57 C 34.49 46.78 34.43 50.20 31.87 52.82 Z" />
<path fill="#217a7a" opacity="1.00" d=" M 46.05 50.89 C 47.14 48.58 49.96 48.25 52.07 47.34 C 52.22 49.07 52.05 50.88 52.65 52.54 C 54.91 56.51 59.71 59.12 60.18 64.02 C 60.36 67.85 56.77 70.16 54.27 72.45 C 54.91 70.07 55.60 67.71 56.19 65.32 C 54.80 65.61 53.41 65.91 52.03 66.22 C 51.96 63.95 51.74 61.69 51.35 59.45 C 49.30 61.70 46.97 63.78 45.43 66.44 C 45.09 68.44 45.29 70.49 45.28 72.51 C 43.22 70.25 39.36 67.98 40.50 64.40 C 42.10 59.80 43.98 55.29 46.05 50.89 Z" />
</svg>
