<?xml version="1.0" encoding="UTF-8" ?>
<!DOCTYPE svg PUBLIC "-//W3C//DTD SVG 1.1//EN" "http://www.w3.org/Graphics/SVG/1.1/DTD/svg11.dtd">
<svg width="100pt" height="100pt" viewBox="0 0 100 100" version="1.1" xmlns="http://www.w3.org/2000/svg">
<path fill="#bab9b9" opacity="1.00" d=" M 7.91 79.50 C 21.68 59.74 35.51 40.02 49.37 20.32 C 52.11 23.74 54.67 27.30 57.19 30.89 C 64.71 27.61 72.93 30.53 80.75 30.63 C 81.28 36.10 81.88 41.57 82.27 47.06 C 82.72 51.61 79.13 55.09 77.16 58.86 C 82.06 65.85 87.16 72.70 91.99 79.73 C 83.31 79.73 74.64 79.73 65.97 79.67 C 58.62 79.29 52.22 83.50 45.25 85.11 C 43.68 83.79 42.11 82.49 40.51 81.21 C 38.82 84.70 37.62 88.39 36.50 92.10 C 32.33 90.81 27.65 89.82 24.76 86.25 C 22.79 84.31 21.90 81.45 19.76 79.71 C 15.83 79.23 11.86 79.55 7.91 79.50 M 49.29 25.67 C 44.12 32.45 39.55 39.66 34.59 46.59 C 27.81 56.61 20.54 66.31 14.03 76.51 C 16.50 76.59 18.97 76.64 21.45 76.70 C 22.98 79.70 24.34 82.87 26.65 85.36 C 28.80 87.70 31.99 88.49 34.84 89.60 C 36.17 85.67 37.77 81.79 40.46 78.58 C 42.31 79.90 44.05 81.48 46.16 82.37 C 52.88 82.16 58.16 76.58 64.94 76.59 C 71.98 76.45 79.03 76.86 86.07 76.62 C 82.56 70.77 78.22 65.50 74.28 59.95 C 76.25 56.32 78.93 52.97 80.01 48.93 C 80.54 43.60 79.41 38.28 79.04 32.96 C 71.45 31.43 63.08 29.92 56.00 34.04 C 53.85 31.18 51.64 28.37 49.29 25.67 Z" />
<path fill="#217a7a" opacity="1.00" d=" M 49.29 25.67 C 51.64 28.37 53.85 31.18 56.00 34.04 C 63.08 29.92 71.45 31.43 79.04 32.96 C 79.41 38.28 80.54 43.60 80.01 48.93 C 78.93 52.97 76.25 56.32 74.28 59.95 C 78.22 65.50 82.56 70.77 86.07 76.62 C 79.03 76.86 71.98 76.45 64.94 76.59 C 58.16 76.58 52.88 82.16 46.16 82.37 C 44.05 81.48 42.31 79.90 40.46 78.58 C 37.77 81.79 36.17 85.67 34.84 89.60 C 31.99 88.49 28.80 87.70 26.65 85.36 C 24.34 82.87 22.98 79.70 21.45 76.70 C 18.97 76.64 16.50 76.59 14.03 76.51 C 20.54 66.31 27.81 56.61 34.59 46.59 C 39.55 39.66 44.12 32.45 49.29 25.67 M 57.73 36.77 C 52.44 39.73 46.95 42.36 41.92 45.75 C 46.48 44.14 50.89 42.15 55.41 40.43 C 61.86 37.94 68.74 36.88 75.55 35.83 C 74.66 42.67 73.63 49.58 71.06 56.02 C 69.35 60.36 67.48 64.64 66.15 69.11 C 69.59 63.74 72.40 58.01 75.44 52.41 C 78.45 47.28 76.61 41.21 76.30 35.67 C 70.16 34.75 63.26 32.86 57.73 36.77 M 61.08 44.11 C 53.60 51.36 46.47 58.97 38.93 66.17 C 36.96 64.70 35.02 63.21 33.04 61.76 C 32.72 62.81 32.39 63.85 32.07 64.89 C 33.78 66.75 35.48 68.61 37.19 70.46 C 34.35 74.41 30.24 77.07 25.69 78.67 C 27.23 81.77 29.72 84.20 32.64 86.03 C 34.40 81.47 37.08 77.34 40.84 74.17 C 43.40 76.68 46.14 79.64 50.11 79.03 C 48.61 76.83 46.93 74.77 45.19 72.77 C 52.52 64.90 60.52 57.69 67.87 49.85 C 70.03 47.82 69.07 44.71 69.13 42.12 C 66.38 42.33 63.12 41.79 61.08 44.11 M 36.57 53.78 C 39.38 53.95 42.41 55.03 45.13 53.97 C 49.04 51.49 52.21 48.03 55.40 44.71 C 48.94 47.33 42.58 50.25 36.57 53.78 M 57.52 66.48 C 56.80 69.36 57.43 72.38 57.53 75.31 C 61.23 69.03 64.28 62.38 67.14 55.68 C 63.69 59.04 60.02 62.33 57.52 66.48 Z" />
<path fill="#ffffff" opacity="1.00" d=" M 57.73 36.77 C 63.26 32.86 70.16 34.75 76.30 35.67 C 76.61 41.21 78.45 47.28 75.44 52.41 C 72.40 58.01 69.59 63.74 66.15 69.11 C 67.48 64.64 69.35 60.36 71.06 56.02 C 73.63 49.58 74.66 42.67 75.55 35.83 C 68.74 36.88 61.86 37.94 55.41 40.43 C 50.89 42.15 46.48 44.14 41.92 45.75 C 46.95 42.36 52.44 39.73 57.73 36.77 Z" />
<path fill="#ffffff" opacity="1.00" d=" M 61.08 44.11 C 63.12 41.79 66.38 42.33 69.13 42.12 C 69.07 44.71 70.03 47.82 67.87 49.85 C 60.52 57.69 52.52 64.90 45.19 72.77 C 46.93 74.77 48.61 76.83 50.11 79.03 C 46.14 79.64 43.40 76.68 40.84 74.17 C 37.08 77.34 34.40 81.47 32.64 86.03 C 29.72 84.20 27.23 81.77 25.69 78.67 C 30.24 77.07 34.35 74.41 37.19 70.46 C 35.48 68.61 33.78 66.75 32.07 64.89 C 32.39 63.85 32.72 62.81 33.04 61.76 C 35.02 63.21 36.96 64.70 38.93 66.17 C 46.47 58.97 53.60 51.36 61.08 44.11 Z" />
<path fill="#ffffff" opacity="1.00" d=" M 36.57 53.78 C 42.58 50.25 48.94 47.33 55.40 44.71 C 52.21 48.03 49.04 51.49 45.13 53.97 C 42.41 55.03 39.38 53.95 36.57 53.78 Z" />
<path fill="#ffffff" opacity="1.00" d=" M 57.52 66.48 C 60.02 62.33 63.69 59.04 67.14 55.68 C 64.28 62.38 61.23 69.03 57.53 75.31 C 57.43 72.38 56.80 69.36 57.52 66.48 Z" />
</svg>
