<?xml version="1.0" encoding="UTF-8" ?>
<!DOCTYPE svg PUBLIC "-//W3C//DTD SVG 1.1//EN" "http://www.w3.org/Graphics/SVG/1.1/DTD/svg11.dtd">
<svg width="100pt" height="100pt" viewBox="0 0 100 100" version="1.1" xmlns="http://www.w3.org/2000/svg">
<path fill="#b5b3b5" opacity="1.00" d=" M 44.34 1.19 C 57.24 -0.99 71.31 6.29 76.78 18.26 C 78.45 21.91 79.55 25.83 81.84 29.18 C 85.89 35.34 88.12 42.65 88.37 50.00 C 87.98 60.64 83.51 71.31 75.43 78.41 C 68.51 84.65 59.26 88.03 50.00 88.37 C 40.04 88.01 30.08 84.10 23.03 76.96 C 16.13 70.15 12.32 60.62 11.65 51.03 C 11.56 43.77 13.77 36.59 17.41 30.33 C 20.18 25.67 20.11 19.84 23.36 15.40 C 28.32 8.38 35.83 2.88 44.34 1.19 M 43.37 3.48 C 35.80 5.33 29.23 10.47 24.83 16.81 C 20.96 22.12 22.08 29.20 18.92 34.82 C 12.98 45.90 14.41 60.15 21.78 70.21 C 30.54 82.81 48.15 88.31 62.42 82.44 C 77.42 76.92 87.19 60.20 84.34 44.42 C 83.57 37.08 78.12 31.45 76.76 24.28 C 73.72 9.77 57.61 0.33 43.37 3.48 Z" />
<path fill="#26960f" opacity="1.00" d=" M 43.37 3.48 C 57.61 0.33 73.72 9.77 76.76 24.28 C 78.12 31.45 83.57 37.08 84.34 44.42 C 87.19 60.20 77.42 76.92 62.42 82.44 C 48.15 88.31 30.54 82.81 21.78 70.21 C 14.41 60.15 12.98 45.90 18.92 34.82 C 22.08 29.20 20.96 22.12 24.83 16.81 C 29.23 10.47 35.80 5.33 43.37 3.48 M 26.26 19.28 C 22.23 25.62 24.04 33.63 27.13 39.95 C 29.52 45.36 34.29 49.06 37.85 53.63 C 39.33 51.95 40.82 50.28 42.35 48.64 C 40.16 48.76 37.62 49.95 35.69 48.42 C 30.56 45.03 28.92 38.55 28.32 32.80 C 27.53 23.47 33.75 14.41 42.43 11.19 C 49.32 8.35 57.51 10.14 63.18 14.77 C 68.75 19.31 71.44 26.94 70.19 33.99 C 69.31 39.45 66.15 44.32 61.99 47.88 C 60.21 47.02 58.43 46.16 56.63 45.33 C 58.49 47.88 60.42 50.38 62.25 52.95 C 63.24 50.25 65.15 48.12 67.22 46.18 C 71.96 41.61 73.58 34.57 72.69 28.20 C 71.28 17.80 61.65 8.92 51.01 9.18 C 41.70 8.53 32.80 14.52 28.91 22.81 C 27.00 26.78 27.07 31.28 26.34 35.54 C 23.90 29.59 25.22 22.34 29.61 17.64 C 33.00 13.99 36.27 9.55 41.39 8.38 C 48.15 6.69 55.76 6.47 61.96 10.06 C 67.22 13.04 70.40 18.36 74.07 22.95 C 70.63 13.19 61.24 5.89 50.84 5.43 C 40.74 4.43 31.39 11.02 26.26 19.28 M 41.14 23.56 C 37.56 27.22 38.68 34.80 44.14 35.88 C 44.74 37.84 45.61 39.83 47.71 40.57 C 48.45 38.41 49.14 36.23 49.44 33.97 C 50.70 28.69 44.81 25.90 41.14 23.56 M 50.86 30.25 C 50.39 33.69 50.92 37.78 53.36 40.46 C 54.12 38.96 54.66 37.33 55.65 35.96 C 57.07 35.27 58.62 34.87 60.03 34.13 C 60.87 31.88 61.38 29.46 61.35 27.04 C 60.91 25.66 59.87 23.81 58.15 24.13 C 55.32 25.61 52.92 27.84 50.86 30.25 M 73.24 40.43 C 74.74 37.71 75.33 34.64 75.08 31.55 C 73.60 34.28 73.16 37.37 73.24 40.43 M 21.67 41.00 C 21.60 42.72 21.62 44.45 21.71 46.17 C 22.74 45.66 23.77 45.14 24.78 44.60 C 24.76 44.04 24.72 42.93 24.70 42.37 C 23.69 41.91 22.68 41.45 21.67 41.00 M 75.12 44.03 C 76.44 44.74 77.77 45.42 79.12 46.07 C 79.04 44.55 79.02 43.01 78.70 41.51 C 76.78 40.53 76.15 42.94 75.12 44.03 M 36.20 61.01 C 40.88 67.06 45.64 73.07 50.68 78.83 C 55.47 72.93 60.35 67.10 64.92 61.02 C 60.32 54.97 55.46 49.12 50.67 43.22 C 45.64 48.98 40.95 55.02 36.20 61.01 M 24.61 54.87 C 26.09 55.57 27.54 56.39 29.13 56.80 C 30.97 56.95 31.93 55.00 33.18 54.01 C 32.00 52.22 30.61 50.57 29.04 49.09 C 26.92 50.47 25.36 52.45 24.61 54.87 M 67.58 54.88 C 68.74 55.57 69.83 56.45 71.14 56.86 C 73.16 56.75 74.64 55.21 76.20 54.11 C 74.88 52.39 73.47 50.73 71.99 49.13 C 69.71 50.35 68.15 52.36 67.58 54.88 Z" />
<path fill="#ffffff" opacity="1.00" d=" M 26.26 19.28 C 31.39 11.02 40.74 4.43 50.84 5.43 C 61.24 5.89 70.63 13.19 74.07 22.95 C 70.40 18.36 67.22 13.04 61.96 10.06 C 55.76 6.47 48.15 6.69 41.39 8.38 C 36.27 9.55 33.00 13.99 29.61 17.64 C 25.22 22.34 23.90 29.59 26.34 35.54 C 27.07 31.28 27.00 26.78 28.91 22.81 C 32.80 14.52 41.70 8.53 51.01 9.18 C 61.65 8.92 71.28 17.80 72.69 28.20 C 73.58 34.57 71.96 41.61 67.22 46.18 C 65.15 48.12 63.24 50.25 62.25 52.95 C 60.42 50.38 58.49 47.88 56.63 45.33 C 58.43 46.16 60.21 47.02 61.99 47.88 C 66.15 44.32 69.31 39.45 70.19 33.99 C 71.44 26.94 68.75 19.31 63.18 14.77 C 57.51 10.14 49.32 8.35 42.43 11.19 C 33.75 14.41 27.53 23.47 28.32 32.80 C 28.92 38.55 30.56 45.03 35.69 48.42 C 37.62 49.95 40.16 48.76 42.35 48.64 C 40.82 50.28 39.33 51.95 37.85 53.63 C 34.29 49.06 29.52 45.36 27.13 39.95 C 24.04 33.63 22.23 25.62 26.26 19.28 Z" />
<path fill="#ffffff" opacity="1.00" d=" M 41.14 23.56 C 44.81 25.90 50.70 28.69 49.44 33.97 C 49.14 36.23 48.45 38.41 47.71 40.57 C 45.61 39.83 44.74 37.84 44.14 35.88 C 38.68 34.80 37.56 27.22 41.14 23.56 Z" />
<path fill="#ffffff" opacity="1.00" d=" M 50.86 30.25 C 52.92 27.84 55.32 25.61 58.15 24.13 C 59.87 23.81 60.91 25.66 61.35 27.04 C 61.38 29.46 60.87 31.88 60.03 34.13 C 58.62 34.87 57.07 35.27 55.65 35.96 C 54.66 37.33 54.12 38.96 53.36 40.46 C 50.92 37.78 50.39 33.69 50.86 30.25 Z" />
<path fill="#7bbf6e" opacity="1.00" d=" M 73.24 40.43 C 73.16 37.37 73.60 34.28 75.08 31.55 C 75.33 34.64 74.74 37.71 73.24 40.43 Z" />
<path fill="#ffffff" opacity="1.00" d=" M 21.67 41.00 C 22.68 41.45 23.69 41.91 24.70 42.37 C 24.72 42.93 24.76 44.04 24.78 44.60 C 23.77 45.14 22.74 45.66 21.71 46.17 C 21.62 44.45 21.60 42.72 21.67 41.00 Z" />
<path fill="#ffffff" opacity="1.00" d=" M 75.12 44.03 C 76.15 42.94 76.78 40.53 78.70 41.51 C 79.02 43.01 79.04 44.55 79.12 46.07 C 77.77 45.42 76.44 44.74 75.12 44.03 Z" />
<path fill="#ffffff" opacity="1.00" d=" M 36.20 61.01 C 40.95 55.02 45.64 48.98 50.67 43.22 C 55.46 49.12 60.32 54.97 64.92 61.02 C 60.35 67.10 55.47 72.93 50.68 78.83 C 45.64 73.07 40.88 67.06 36.20 61.01 M 50.87 48.30 C 50.46 53.51 50.50 58.73 50.76 63.95 C 54.24 63.03 57.68 61.96 61.07 60.74 C 58.06 56.29 54.68 52.09 50.87 48.30 M 41.62 63.29 C 44.35 67.23 47.31 71.03 50.75 74.38 C 53.89 70.88 56.82 67.20 59.51 63.34 C 56.64 64.14 53.85 65.27 50.89 65.66 C 47.68 65.48 44.69 64.11 41.62 63.29 Z" />
<path fill="#26960f" opacity="1.00" d=" M 50.87 48.30 C 54.68 52.09 58.06 56.29 61.07 60.74 C 57.68 61.96 54.24 63.03 50.76 63.95 C 50.50 58.73 50.46 53.51 50.87 48.30 Z" />
<path fill="#ffffff" opacity="1.00" d=" M 24.61 54.87 C 25.36 52.45 26.92 50.47 29.04 49.09 C 30.61 50.57 32.00 52.22 33.18 54.01 C 31.93 55.00 30.97 56.95 29.13 56.80 C 27.54 56.39 26.09 55.57 24.61 54.87 Z" />
<path fill="#ffffff" opacity="1.00" d=" M 67.58 54.88 C 68.15 52.36 69.71 50.35 71.99 49.13 C 73.47 50.73 74.88 52.39 76.20 54.11 C 74.64 55.21 73.16 56.75 71.14 56.86 C 69.83 56.45 68.74 55.57 67.58 54.88 Z" />
<path fill="#26960f" opacity="1.00" d=" M 41.62 63.29 C 44.69 64.11 47.68 65.48 50.89 65.66 C 53.85 65.27 56.64 64.14 59.51 63.34 C 56.82 67.20 53.89 70.88 50.75 74.38 C 47.31 71.03 44.35 67.23 41.62 63.29 Z" />
</svg>
