<?xml version="1.0" encoding="UTF-8" ?>
<!DOCTYPE svg PUBLIC "-//W3C//DTD SVG 1.1//EN" "http://www.w3.org/Graphics/SVG/1.1/DTD/svg11.dtd">
<svg width="100pt" height="100pt" viewBox="0 0 100 100" version="1.1" xmlns="http://www.w3.org/2000/svg">
<path fill="#ffffff" opacity="1.00" d=" M 42.47 12.61 C 60.90 8.25 81.23 20.57 86.41 38.71 C 91.83 54.18 84.95 72.51 71.47 81.51 C 62.01 87.84 49.66 90.29 38.76 86.42 C 20.06 81.13 7.61 59.74 12.97 40.94 C 16.23 26.82 28.25 15.35 42.47 12.61 M 33.41 19.28 C 35.61 20.83 38.08 22.11 39.89 24.14 C 41.85 26.68 42.41 29.94 43.27 32.95 C 44.20 31.93 45.12 30.91 46.06 29.90 C 45.47 32.18 44.81 34.45 44.21 36.73 C 46.84 35.62 49.37 34.28 51.68 32.61 C 53.77 35.00 56.64 36.37 59.57 37.42 C 59.07 34.18 58.10 30.73 59.50 27.57 C 60.66 23.76 64.30 21.75 67.35 19.63 C 61.88 17.21 56.08 15.12 50.00 15.30 C 44.21 15.11 38.67 17.06 33.41 19.28 M 15.62 43.82 C 18.65 45.61 24.10 46.49 23.91 50.96 C 23.09 55.24 19.06 57.77 16.56 61.04 C 22.40 59.02 27.16 54.81 33.17 53.17 C 29.50 49.73 25.61 45.79 25.24 40.46 C 24.15 35.83 27.37 31.93 30.23 28.72 C 29.35 26.93 28.46 25.15 27.56 23.37 C 21.53 28.77 17.48 35.96 15.62 43.82 M 73.41 24.24 C 72.64 25.74 71.86 27.25 71.10 28.75 C 74.16 31.98 77.36 36.11 76.07 40.86 C 75.62 46.21 71.50 49.96 67.80 53.36 C 72.15 56.05 76.67 58.48 81.45 60.34 C 79.06 57.13 74.95 54.45 74.83 50.10 C 75.75 46.11 80.77 45.70 83.49 43.29 C 83.43 35.80 78.26 29.51 73.41 24.24 M 34.76 24.86 C 34.71 27.08 34.73 29.30 34.74 31.51 C 32.50 33.79 28.94 36.19 29.85 39.88 C 30.37 46.19 36.62 49.06 41.08 52.38 C 40.51 54.14 39.50 55.83 37.83 56.75 C 31.68 60.40 25.08 63.21 18.49 65.95 C 24.02 67.94 29.68 69.59 35.16 71.72 C 30.32 71.00 25.56 69.92 20.76 69.02 C 23.16 72.00 25.62 74.98 28.64 77.35 C 34.76 82.43 42.70 84.42 50.48 84.97 C 49.92 82.46 49.34 79.96 48.76 77.46 C 46.48 76.70 44.20 75.94 41.93 75.15 C 47.74 75.98 53.68 76.37 59.38 74.65 C 57.43 75.60 55.42 76.47 53.64 77.72 C 52.53 79.91 52.34 82.42 51.80 84.78 C 62.85 84.11 72.90 78.02 79.25 69.07 C 75.13 69.74 71.01 70.48 66.85 70.85 C 71.79 69.09 76.91 67.83 81.80 65.92 C 74.38 61.56 65.06 59.66 59.64 52.50 C 64.42 49.66 70.41 46.62 71.40 40.54 C 72.48 37.42 69.84 35.04 68.25 32.72 C 66.52 30.59 66.65 27.69 66.04 25.16 C 64.97 27.65 62.81 30.29 64.01 33.13 C 64.45 35.60 66.81 39.09 63.79 40.78 C 59.98 44.48 55.28 40.11 50.95 40.32 C 46.54 39.88 41.96 44.54 37.97 41.10 C 34.57 39.65 36.66 35.77 37.27 33.21 C 38.68 30.15 36.22 27.35 34.76 24.86 M 78.10 50.06 C 80.17 51.72 82.28 53.33 84.41 54.91 C 84.57 51.60 84.63 48.29 84.71 44.98 C 82.51 46.68 80.30 48.36 78.10 50.06 M 15.43 45.86 C 15.42 48.70 15.46 51.54 15.57 54.38 C 16.97 53.17 18.43 52.02 19.65 50.63 C 19.74 48.28 16.81 47.39 15.43 45.86 Z" />
<path fill="#482b46" opacity="1.00" d=" M 33.41 19.28 C 38.67 17.06 44.21 15.11 50.00 15.30 C 56.08 15.12 61.88 17.21 67.35 19.63 C 64.30 21.75 60.66 23.76 59.50 27.57 C 58.10 30.73 59.07 34.18 59.57 37.42 C 56.64 36.37 53.77 35.00 51.68 32.61 C 49.37 34.28 46.84 35.62 44.21 36.73 C 44.81 34.45 45.47 32.18 46.06 29.90 C 45.12 30.91 44.20 31.93 43.27 32.95 C 42.41 29.94 41.85 26.68 39.89 24.14 C 38.08 22.11 35.61 20.83 33.41 19.28 Z" />
<path fill="#482b46" opacity="1.00" d=" M 15.62 43.82 C 17.48 35.96 21.53 28.77 27.56 23.37 C 28.46 25.15 29.35 26.93 30.23 28.72 C 27.37 31.93 24.15 35.83 25.24 40.46 C 25.61 45.79 29.50 49.73 33.17 53.17 C 27.16 54.81 22.40 59.02 16.56 61.04 C 19.06 57.77 23.09 55.24 23.91 50.96 C 24.10 46.49 18.65 45.61 15.62 43.82 Z" />
<path fill="#482b46" opacity="1.00" d=" M 73.41 24.24 C 78.26 29.51 83.43 35.80 83.49 43.29 C 80.77 45.70 75.75 46.11 74.83 50.10 C 74.95 54.45 79.06 57.13 81.45 60.34 C 76.67 58.48 72.15 56.05 67.80 53.36 C 71.50 49.96 75.62 46.21 76.07 40.86 C 77.36 36.11 74.16 31.98 71.10 28.75 C 71.86 27.25 72.64 25.74 73.41 24.24 Z" />
<path fill="#482b46" opacity="1.00" d=" M 34.76 24.86 C 36.22 27.35 38.68 30.15 37.27 33.21 C 36.66 35.77 34.57 39.65 37.97 41.10 C 41.96 44.54 46.54 39.88 50.95 40.32 C 55.28 40.11 59.98 44.48 63.79 40.78 C 66.81 39.09 64.45 35.60 64.01 33.13 C 62.81 30.29 64.97 27.65 66.04 25.16 C 66.65 27.69 66.52 30.59 68.25 32.72 C 69.84 35.04 72.48 37.42 71.40 40.54 C 70.41 46.62 64.42 49.66 59.64 52.50 C 65.06 59.66 74.38 61.56 81.80 65.92 C 76.91 67.83 71.79 69.09 66.85 70.85 C 71.01 70.48 75.13 69.74 79.25 69.07 C 72.90 78.02 62.85 84.11 51.80 84.78 C 52.34 82.42 52.53 79.91 53.64 77.72 C 55.42 76.47 57.43 75.60 59.38 74.65 C 53.68 76.37 47.74 75.98 41.93 75.15 C 44.20 75.94 46.48 76.70 48.76 77.46 C 49.34 79.96 49.92 82.46 50.48 84.97 C 42.70 84.42 34.76 82.43 28.64 77.35 C 25.62 74.98 23.16 72.00 20.76 69.02 C 25.56 69.92 30.32 71.00 35.16 71.72 C 29.68 69.59 24.02 67.94 18.49 65.95 C 25.08 63.21 31.68 60.40 37.83 56.75 C 39.50 55.83 40.51 54.14 41.08 52.38 C 36.62 49.06 30.37 46.19 29.85 39.88 C 28.94 36.19 32.50 33.79 34.74 31.51 C 34.73 29.30 34.71 27.08 34.76 24.86 M 44.37 55.60 C 43.44 57.14 46.01 58.95 47.22 57.69 C 48.19 56.16 45.55 54.43 44.37 55.60 M 55.42 55.08 C 54.18 55.07 52.50 57.16 54.22 57.79 C 56.20 58.69 58.31 54.81 55.42 55.08 M 48.09 61.85 C 49.34 62.32 50.59 62.78 51.84 63.24 C 51.59 61.78 51.32 60.31 51.05 58.85 C 50.06 59.85 49.08 60.85 48.09 61.85 Z" />
<path fill="#472b45" opacity="1.00" d=" M 78.10 50.06 C 80.30 48.36 82.51 46.68 84.71 44.98 C 84.63 48.29 84.57 51.60 84.41 54.91 C 82.28 53.33 80.17 51.72 78.10 50.06 Z" />
<path fill="#321530" opacity="1.00" d=" M 15.43 45.86 C 16.81 47.39 19.74 48.28 19.65 50.63 C 18.43 52.02 16.97 53.17 15.57 54.38 C 15.46 51.54 15.42 48.70 15.43 45.86 Z" />
<path fill="#ffffff" opacity="1.00" d=" M 44.37 55.60 C 45.55 54.43 48.19 56.16 47.22 57.69 C 46.01 58.95 43.44 57.14 44.37 55.60 Z" />
<path fill="#ffffff" opacity="1.00" d=" M 55.42 55.08 C 58.31 54.81 56.20 58.69 54.22 57.79 C 52.50 57.16 54.18 55.07 55.42 55.08 Z" />
<path fill="#ffffff" opacity="1.00" d=" M 48.09 61.85 C 49.08 60.85 50.06 59.85 51.05 58.85 C 51.32 60.31 51.59 61.78 51.84 63.24 C 50.59 62.78 49.34 62.32 48.09 61.85 Z" />
</svg>
