<?xml version="1.0" encoding="UTF-8" ?>
<!DOCTYPE svg PUBLIC "-//W3C//DTD SVG 1.1//EN" "http://www.w3.org/Graphics/SVG/1.1/DTD/svg11.dtd">
<svg width="100pt" height="100pt" viewBox="0 0 100 100" version="1.1" xmlns="http://www.w3.org/2000/svg">
<path fill="#ffffff" opacity="1.00" d=" M 42.46 12.61 C 60.89 8.25 81.23 20.57 86.41 38.72 C 91.83 54.19 84.95 72.52 71.46 81.51 C 62.00 87.84 49.66 90.30 38.76 86.42 C 20.06 81.13 7.61 59.75 12.96 40.95 C 16.23 26.82 28.24 15.36 42.46 12.61 M 33.51 19.34 C 35.83 21.03 38.55 22.34 40.30 24.68 C 41.88 27.13 42.45 30.04 43.21 32.80 C 44.15 31.87 45.09 30.95 46.04 30.03 C 45.47 32.23 44.82 34.40 44.25 36.60 C 46.88 35.60 49.40 34.33 51.69 32.68 C 53.74 35.07 56.64 36.32 59.57 37.28 C 59.07 34.08 58.15 30.69 59.50 27.56 C 60.65 23.78 64.26 21.79 67.27 19.67 C 56.87 14.10 43.98 13.80 33.51 19.34 M 15.72 43.80 C 18.70 45.63 24.08 46.54 23.90 50.97 C 23.14 55.23 19.08 57.71 16.61 60.98 C 22.50 59.16 27.09 54.70 33.11 53.17 C 29.52 49.67 25.60 45.79 25.26 40.47 C 24.15 35.85 27.39 31.99 30.15 28.73 C 29.34 26.96 28.50 25.20 27.67 23.45 C 21.48 28.64 17.43 35.94 15.72 43.80 M 73.28 24.30 C 72.58 25.78 71.89 27.26 71.21 28.75 C 74.11 32.07 77.37 36.14 76.07 40.88 C 75.62 46.19 71.51 49.89 67.89 53.32 C 72.13 56.13 76.63 58.52 81.40 60.27 C 78.99 56.92 74.15 53.96 75.02 49.28 C 76.88 45.95 81.11 45.03 84.14 43.00 C 82.30 35.90 78.81 29.22 73.28 24.30 M 34.95 25.07 C 34.74 27.17 34.84 29.32 34.29 31.37 C 32.73 34.14 28.97 36.27 29.86 39.89 C 30.49 46.21 36.64 49.45 41.48 52.39 C 40.16 54.35 38.78 56.41 36.60 57.50 C 30.80 60.74 24.68 63.36 18.58 65.95 C 24.04 68.02 29.70 69.54 35.13 71.72 C 30.33 71.01 25.60 69.92 20.83 69.05 C 27.44 78.78 38.69 84.81 50.47 84.88 C 49.88 82.42 49.32 79.96 48.71 77.51 C 46.47 76.65 44.18 75.96 41.96 75.07 C 47.75 76.03 53.69 76.38 59.37 74.65 C 57.43 75.60 55.42 76.47 53.65 77.73 C 52.35 79.77 52.45 82.37 51.93 84.67 C 62.91 84.19 72.93 77.98 79.18 69.09 C 75.08 69.75 71.00 70.49 66.87 70.85 C 71.77 69.07 76.87 67.89 81.70 65.92 C 76.11 62.85 70.15 60.52 64.61 57.35 C 62.55 56.22 61.17 54.26 59.80 52.42 C 64.73 49.49 70.97 46.19 71.53 39.76 C 72.24 36.89 69.62 34.90 68.23 32.75 C 66.48 30.67 66.70 27.76 66.12 25.26 C 64.92 27.67 62.69 30.30 64.00 33.13 C 64.50 35.61 66.84 39.09 63.77 40.77 C 59.97 44.53 55.29 40.08 50.96 40.29 C 46.53 39.82 41.97 44.61 37.98 41.10 C 34.55 39.64 36.60 35.78 37.28 33.22 C 38.73 30.25 36.35 27.51 34.95 25.07 M 78.13 50.06 C 80.17 51.71 82.24 53.31 84.36 54.86 C 84.58 51.57 84.67 48.29 84.72 45.00 C 82.51 46.67 80.31 48.35 78.13 50.06 M 15.38 45.96 C 15.39 48.73 15.43 51.50 15.54 54.27 C 16.97 53.12 18.45 52.02 19.70 50.68 C 19.92 48.27 16.81 47.46 15.38 45.96 Z" />
<path fill="#482b46" opacity="1.00" d=" M 33.51 19.34 C 43.98 13.80 56.87 14.10 67.27 19.67 C 64.26 21.79 60.65 23.78 59.50 27.56 C 58.15 30.69 59.07 34.08 59.57 37.28 C 56.64 36.32 53.74 35.07 51.69 32.68 C 49.40 34.33 46.88 35.60 44.25 36.60 C 44.82 34.40 45.47 32.23 46.04 30.03 C 45.09 30.95 44.15 31.87 43.21 32.80 C 42.45 30.04 41.88 27.13 40.30 24.68 C 38.55 22.34 35.83 21.03 33.51 19.34 Z" />
<path fill="#482b46" opacity="1.00" d=" M 15.72 43.80 C 17.43 35.94 21.48 28.64 27.67 23.45 C 28.50 25.20 29.34 26.96 30.15 28.73 C 27.39 31.99 24.15 35.85 25.26 40.47 C 25.60 45.79 29.52 49.67 33.11 53.17 C 27.09 54.70 22.50 59.16 16.61 60.98 C 19.08 57.71 23.14 55.23 23.90 50.97 C 24.08 46.54 18.70 45.63 15.72 43.80 Z" />
<path fill="#482b46" opacity="1.00" d=" M 73.28 24.30 C 78.81 29.22 82.30 35.90 84.14 43.00 C 81.11 45.03 76.88 45.95 75.02 49.28 C 74.15 53.96 78.99 56.92 81.40 60.27 C 76.63 58.52 72.13 56.13 67.89 53.32 C 71.51 49.89 75.62 46.19 76.07 40.88 C 77.37 36.14 74.11 32.07 71.21 28.75 C 71.89 27.26 72.58 25.78 73.28 24.30 Z" />
<path fill="#482b46" opacity="1.00" d=" M 34.95 25.07 C 36.35 27.51 38.73 30.25 37.28 33.22 C 36.60 35.78 34.55 39.64 37.98 41.10 C 41.97 44.61 46.53 39.82 50.96 40.29 C 55.29 40.08 59.97 44.53 63.77 40.77 C 66.84 39.09 64.50 35.61 64.00 33.13 C 62.69 30.30 64.92 27.67 66.12 25.26 C 66.70 27.76 66.48 30.67 68.23 32.75 C 69.62 34.90 72.24 36.89 71.53 39.76 C 70.97 46.19 64.73 49.49 59.80 52.42 C 61.17 54.26 62.55 56.22 64.61 57.35 C 70.15 60.52 76.11 62.85 81.70 65.92 C 76.87 67.89 71.77 69.07 66.87 70.85 C 71.00 70.49 75.08 69.75 79.18 69.09 C 72.93 77.98 62.91 84.19 51.93 84.67 C 52.45 82.37 52.35 79.77 53.65 77.73 C 55.42 76.47 57.43 75.60 59.37 74.65 C 53.69 76.38 47.75 76.03 41.96 75.07 C 44.18 75.96 46.47 76.65 48.71 77.51 C 49.32 79.96 49.88 82.42 50.47 84.88 C 38.69 84.81 27.44 78.78 20.83 69.05 C 25.60 69.92 30.33 71.01 35.13 71.72 C 29.70 69.54 24.04 68.02 18.58 65.95 C 24.68 63.36 30.80 60.74 36.60 57.50 C 38.78 56.41 40.16 54.35 41.48 52.39 C 36.64 49.45 30.49 46.21 29.86 39.89 C 28.97 36.27 32.73 34.14 34.29 31.37 C 34.84 29.32 34.74 27.17 34.95 25.07 M 44.34 55.59 C 43.45 57.14 46.02 58.92 47.25 57.70 C 48.19 56.17 45.54 54.46 44.34 55.59 M 55.42 55.09 C 54.21 55.10 52.46 57.17 54.18 57.81 C 56.14 58.69 58.33 54.81 55.42 55.09 M 48.11 61.76 C 49.35 62.26 50.59 62.75 51.82 63.25 C 51.57 61.80 51.31 60.35 51.04 58.91 C 50.04 59.84 49.07 60.79 48.11 61.76 Z" />
<path fill="#472b45" opacity="1.00" d=" M 78.13 50.06 C 80.31 48.35 82.51 46.67 84.72 45.00 C 84.67 48.29 84.58 51.57 84.36 54.86 C 82.24 53.31 80.17 51.71 78.13 50.06 Z" />
<path fill="#321530" opacity="1.00" d=" M 15.38 45.96 C 16.81 47.46 19.92 48.27 19.70 50.68 C 18.45 52.02 16.97 53.12 15.54 54.27 C 15.43 51.50 15.39 48.73 15.38 45.96 Z" />
<path fill="#ffffff" opacity="1.00" d=" M 44.34 55.59 C 45.54 54.46 48.19 56.17 47.25 57.70 C 46.02 58.92 43.45 57.14 44.34 55.59 Z" />
<path fill="#ffffff" opacity="1.00" d=" M 55.42 55.09 C 58.33 54.81 56.14 58.69 54.18 57.81 C 52.46 57.17 54.21 55.10 55.42 55.09 Z" />
<path fill="#ffffff" opacity="1.00" d=" M 48.11 61.76 C 49.07 60.79 50.04 59.84 51.04 58.91 C 51.31 60.35 51.57 61.80 51.82 63.25 C 50.59 62.75 49.35 62.26 48.11 61.76 Z" />
</svg>
