<?xml version="1.0" encoding="UTF-8" ?>
<!DOCTYPE svg PUBLIC "-//W3C//DTD SVG 1.1//EN" "http://www.w3.org/Graphics/SVG/1.1/DTD/svg11.dtd">
<svg width="100pt" height="100pt" viewBox="0 0 100 100" version="1.1" xmlns="http://www.w3.org/2000/svg">
<path fill="#ffffff" opacity="1.00" d=" M 42.44 12.62 C 60.88 8.24 81.25 20.58 86.42 38.75 C 92.34 55.63 83.55 75.76 67.73 83.74 C 60.25 87.43 51.51 89.60 43.24 87.56 C 34.04 85.79 25.43 80.75 19.76 73.24 C 14.65 66.63 11.97 58.30 11.61 50.00 C 11.99 40.99 15.15 31.95 21.11 25.10 C 26.56 18.69 34.24 14.36 42.44 12.62 M 33.64 19.54 C 35.77 20.99 38.12 22.19 39.93 24.07 C 41.92 26.56 42.34 29.85 43.08 32.85 C 44.02 31.89 44.96 30.93 45.93 29.99 C 45.41 32.11 44.83 34.21 44.28 36.32 C 47.30 35.87 49.91 34.33 51.89 32.03 C 52.50 33.10 53.10 34.17 53.70 35.25 C 55.74 35.76 57.76 36.33 59.76 36.93 C 58.96 33.87 58.09 30.57 59.52 27.54 C 60.54 23.72 64.21 21.84 67.23 19.81 C 57.07 14.06 43.80 13.55 33.64 19.54 M 15.82 43.86 C 18.80 45.67 24.14 46.51 23.88 50.98 C 23.30 55.24 19.10 57.57 16.69 60.78 C 19.68 60.10 22.55 58.88 24.82 56.78 C 27.13 54.69 30.32 54.33 33.12 53.23 C 29.62 49.63 25.54 45.86 25.31 40.46 C 24.08 35.84 27.33 31.99 30.16 28.79 C 29.38 27.06 28.59 25.33 27.78 23.61 C 21.35 28.47 17.34 36.03 15.82 43.86 M 73.18 24.51 C 72.50 25.93 71.84 27.37 71.19 28.81 C 74.15 32.10 77.44 36.15 76.04 40.91 C 75.68 46.20 71.54 49.82 67.96 53.20 C 71.99 56.26 76.56 58.50 81.32 60.15 C 79.02 56.97 74.79 54.41 74.87 50.09 C 75.46 45.56 81.72 46.08 83.64 42.72 C 82.71 35.66 78.64 29.03 73.18 24.51 M 34.64 25.31 C 34.62 27.39 34.66 29.47 34.70 31.55 C 32.49 33.85 28.88 36.22 29.88 39.92 C 30.36 45.55 35.47 48.72 39.86 51.30 C 41.93 52.27 40.23 54.99 38.97 55.97 C 32.68 60.15 25.57 62.84 18.72 65.93 C 24.03 68.24 29.79 69.31 35.05 71.74 C 30.31 71.08 25.67 69.90 20.96 69.07 C 27.39 78.77 38.64 84.88 50.32 84.74 C 49.86 82.31 49.31 79.90 48.65 77.51 C 46.39 76.76 44.17 75.92 41.96 75.08 C 47.76 76.07 53.69 76.46 59.39 74.64 C 57.42 75.61 55.41 76.49 53.58 77.71 C 52.30 79.66 52.51 82.19 52.07 84.41 C 62.97 84.43 72.99 77.89 79.04 69.09 C 75.02 69.77 71.01 70.56 66.93 70.84 C 71.68 68.86 76.84 68.13 81.50 65.92 C 75.66 62.41 69.15 60.19 63.36 56.61 C 61.66 55.67 60.91 53.81 60.00 52.22 C 64.94 49.44 70.99 46.10 71.57 39.78 C 72.48 36.22 68.82 34.19 67.09 31.66 C 66.56 29.64 66.68 27.52 66.49 25.45 C 65.10 27.12 63.57 28.93 63.43 31.20 C 63.85 33.53 65.08 35.62 65.45 37.96 C 65.28 40.62 62.25 41.96 60.00 42.55 C 56.96 41.90 54.15 40.22 50.98 40.20 C 47.48 39.99 44.49 42.13 41.14 42.68 C 39.28 42.08 37.58 41.00 36.22 39.60 C 34.68 36.14 38.94 33.02 37.57 29.56 C 37.03 27.88 35.76 26.61 34.64 25.31 M 78.26 50.05 C 80.09 51.78 82.10 53.32 84.24 54.65 C 84.70 51.48 84.80 48.27 84.74 45.06 C 82.49 46.60 80.33 48.27 78.26 50.05 M 15.29 46.07 C 15.30 48.75 15.35 51.42 15.47 54.10 C 16.96 53.05 18.50 52.05 19.78 50.75 C 20.11 48.21 16.81 47.52 15.29 46.07 Z" />
<path fill="#482b46" opacity="1.00" d=" M 33.64 19.54 C 43.80 13.55 57.07 14.06 67.23 19.81 C 64.21 21.84 60.54 23.72 59.52 27.54 C 58.09 30.57 58.96 33.87 59.76 36.93 C 57.76 36.33 55.74 35.76 53.70 35.25 C 53.10 34.17 52.50 33.10 51.89 32.03 C 49.91 34.33 47.30 35.87 44.28 36.32 C 44.83 34.21 45.41 32.11 45.93 29.99 C 44.96 30.93 44.02 31.89 43.08 32.85 C 42.34 29.85 41.92 26.56 39.93 24.07 C 38.12 22.19 35.77 20.99 33.64 19.54 Z" />
<path fill="#482b46" opacity="1.00" d=" M 15.82 43.86 C 17.34 36.03 21.35 28.47 27.78 23.61 C 28.59 25.33 29.38 27.06 30.16 28.79 C 27.33 31.99 24.08 35.84 25.31 40.46 C 25.54 45.86 29.62 49.63 33.12 53.23 C 30.32 54.33 27.13 54.69 24.82 56.78 C 22.55 58.88 19.68 60.10 16.69 60.78 C 19.10 57.57 23.30 55.24 23.88 50.98 C 24.14 46.51 18.80 45.67 15.82 43.86 Z" />
<path fill="#482b46" opacity="1.00" d=" M 73.18 24.51 C 78.64 29.03 82.71 35.66 83.64 42.72 C 81.72 46.08 75.46 45.56 74.87 50.09 C 74.79 54.41 79.02 56.97 81.32 60.15 C 76.56 58.50 71.99 56.26 67.96 53.20 C 71.54 49.82 75.68 46.20 76.04 40.91 C 77.44 36.15 74.15 32.10 71.19 28.81 C 71.84 27.37 72.50 25.93 73.18 24.51 Z" />
<path fill="#482b46" opacity="1.00" d=" M 34.64 25.31 C 35.76 26.61 37.03 27.88 37.57 29.56 C 38.94 33.02 34.68 36.14 36.22 39.60 C 37.58 41.00 39.28 42.08 41.14 42.68 C 44.49 42.13 47.48 39.99 50.98 40.20 C 54.15 40.22 56.96 41.90 60.00 42.55 C 62.25 41.96 65.28 40.62 65.45 37.96 C 65.08 35.62 63.85 33.53 63.43 31.20 C 63.57 28.93 65.10 27.12 66.49 25.45 C 66.68 27.52 66.56 29.64 67.09 31.66 C 68.82 34.19 72.48 36.22 71.57 39.78 C 70.99 46.10 64.94 49.44 60.00 52.22 C 60.91 53.81 61.66 55.67 63.36 56.61 C 69.15 60.19 75.66 62.41 81.50 65.92 C 76.84 68.13 71.68 68.86 66.93 70.84 C 71.01 70.56 75.02 69.77 79.04 69.09 C 72.99 77.89 62.97 84.43 52.07 84.41 C 52.51 82.19 52.30 79.66 53.58 77.71 C 55.41 76.49 57.42 75.61 59.39 74.64 C 53.69 76.46 47.76 76.07 41.96 75.08 C 44.17 75.92 46.39 76.76 48.65 77.51 C 49.31 79.90 49.86 82.31 50.32 84.74 C 38.64 84.88 27.39 78.77 20.96 69.07 C 25.67 69.90 30.31 71.08 35.05 71.74 C 29.79 69.31 24.03 68.24 18.72 65.93 C 25.57 62.84 32.68 60.15 38.97 55.97 C 40.23 54.99 41.93 52.27 39.86 51.30 C 35.47 48.72 30.36 45.55 29.88 39.92 C 28.88 36.22 32.49 33.85 34.70 31.55 C 34.66 29.47 34.62 27.39 34.64 25.31 M 44.26 55.57 C 43.48 57.15 46.09 58.82 47.35 57.75 C 48.17 56.19 45.49 54.57 44.26 55.57 M 55.43 55.13 C 54.43 55.38 52.86 56.47 53.54 57.65 C 55.35 59.26 58.73 54.87 55.43 55.13 M 48.02 61.61 C 49.29 62.15 50.56 62.69 51.83 63.23 C 51.56 61.82 51.29 60.42 51.02 59.02 C 50.03 59.90 49.03 60.76 48.02 61.61 Z" />
<path fill="#472b45" opacity="1.00" d=" M 78.26 50.05 C 80.33 48.27 82.49 46.60 84.74 45.06 C 84.80 48.27 84.70 51.48 84.24 54.65 C 82.10 53.32 80.09 51.78 78.26 50.05 Z" />
<path fill="#321530" opacity="1.00" d=" M 15.29 46.07 C 16.81 47.52 20.11 48.21 19.78 50.75 C 18.50 52.05 16.96 53.05 15.47 54.10 C 15.35 51.42 15.30 48.75 15.29 46.07 Z" />
<path fill="#ffffff" opacity="1.00" d=" M 44.26 55.57 C 45.49 54.57 48.17 56.19 47.35 57.75 C 46.09 58.82 43.48 57.15 44.26 55.57 Z" />
<path fill="#ffffff" opacity="1.00" d=" M 55.43 55.13 C 58.73 54.87 55.35 59.26 53.54 57.65 C 52.86 56.47 54.43 55.38 55.43 55.13 Z" />
<path fill="#ffffff" opacity="1.00" d=" M 48.02 61.61 C 49.03 60.76 50.03 59.90 51.02 59.02 C 51.29 60.42 51.56 61.82 51.83 63.23 C 50.56 62.69 49.29 62.15 48.02 61.61 Z" />
</svg>
