<?xml version="1.0" encoding="UTF-8" ?>
<!DOCTYPE svg PUBLIC "-//W3C//DTD SVG 1.1//EN" "http://www.w3.org/Graphics/SVG/1.1/DTD/svg11.dtd">
<svg width="100pt" height="100pt" viewBox="0 0 100 100" version="1.1" xmlns="http://www.w3.org/2000/svg">
<path fill="#bab9b9" opacity="1.00" d=" M 40.67 29.70 C 45.04 28.38 46.63 23.62 49.31 20.39 C 52.75 23.71 54.36 29.23 59.37 30.59 C 69.00 33.79 76.52 42.28 78.91 52.08 C 79.93 56.04 78.23 60.66 80.88 64.13 C 84.52 69.36 88.44 74.40 91.95 79.74 C 85.02 79.95 78.05 79.24 71.16 79.99 C 67.78 81.58 64.97 84.19 61.43 85.47 C 53.01 88.75 42.83 89.00 35.06 83.93 C 32.15 82.28 29.70 79.20 26.05 79.51 C 20.02 79.41 13.99 79.62 7.97 79.53 C 11.13 74.55 14.74 69.87 18.08 65.00 C 20.89 61.53 18.13 56.95 19.00 52.98 C 20.68 41.76 30.42 33.34 40.67 29.70 M 42.42 31.41 C 32.37 34.34 22.88 42.39 21.00 53.05 C 19.91 57.77 23.71 63.17 20.30 67.30 C 18.11 70.36 15.85 73.37 13.98 76.64 C 18.91 76.87 23.91 76.14 28.79 76.98 C 32.22 78.83 34.81 81.95 38.40 83.56 C 45.36 86.78 53.58 86.29 60.64 83.64 C 64.63 82.22 67.59 79.03 71.26 77.05 C 76.11 76.06 81.14 76.90 86.06 76.65 C 83.75 72.26 80.17 68.72 77.76 64.42 C 76.74 60.44 77.76 56.22 76.82 52.21 C 75.33 45.74 71.15 40.07 65.87 36.14 C 62.80 33.77 59.01 32.78 55.47 31.37 C 52.86 30.47 51.38 27.99 49.67 26.00 C 47.58 28.20 45.50 30.66 42.42 31.41 Z" />
<path fill="#217a7a" opacity="1.00" d=" M 42.42 31.41 C 45.50 30.66 47.58 28.20 49.67 26.00 C 51.38 27.99 52.86 30.47 55.47 31.37 C 59.01 32.78 62.80 33.77 65.87 36.14 C 71.15 40.07 75.33 45.74 76.82 52.21 C 77.76 56.22 76.74 60.44 77.76 64.42 C 80.17 68.72 83.75 72.26 86.06 76.65 C 81.14 76.90 76.11 76.06 71.26 77.05 C 67.59 79.03 64.63 82.22 60.64 83.64 C 53.58 86.29 45.36 86.78 38.40 83.56 C 34.81 81.95 32.22 78.83 28.79 76.98 C 23.91 76.14 18.91 76.87 13.98 76.64 C 15.85 73.37 18.11 70.36 20.30 67.30 C 23.71 63.17 19.91 57.77 21.00 53.05 C 22.88 42.39 32.37 34.34 42.42 31.41 M 27.00 45.01 C 23.62 49.30 22.38 55.11 23.77 60.40 C 25.89 68.60 30.68 76.59 38.32 80.68 C 44.76 84.24 52.68 84.00 59.41 81.41 C 62.75 79.97 66.46 78.33 68.46 75.15 C 73.94 71.33 75.55 64.22 75.04 57.91 C 74.28 59.22 73.50 60.54 72.88 61.94 C 74.25 49.16 63.21 36.00 49.98 37.09 C 41.37 36.47 33.19 41.66 29.15 49.10 C 26.68 53.20 26.54 58.10 25.59 62.66 C 23.26 56.85 24.90 49.74 29.20 45.23 C 32.61 41.56 35.93 37.07 41.15 36.03 C 47.80 34.51 55.24 34.17 61.39 37.58 C 66.89 40.61 70.24 46.12 74.01 50.91 C 70.40 40.56 60.06 32.93 49.01 33.09 C 40.11 32.65 32.24 38.27 27.00 45.01 Z" />
<path fill="#ffffff" opacity="1.00" d=" M 27.00 45.01 C 32.24 38.27 40.11 32.65 49.01 33.09 C 60.06 32.93 70.40 40.56 74.01 50.91 C 70.24 46.12 66.89 40.61 61.39 37.58 C 55.24 34.17 47.80 34.51 41.15 36.03 C 35.93 37.07 32.61 41.56 29.20 45.23 C 24.90 49.74 23.26 56.85 25.59 62.66 C 26.54 58.10 26.68 53.20 29.15 49.10 C 33.19 41.66 41.37 36.47 49.98 37.09 C 63.21 36.00 74.25 49.16 72.88 61.94 C 71.39 66.33 70.00 70.76 68.46 75.15 C 66.46 78.33 62.75 79.97 59.41 81.41 C 52.68 84.00 44.76 84.24 38.32 80.68 C 30.68 76.59 25.89 68.60 23.77 60.40 C 22.38 55.11 23.62 49.30 27.00 45.01 M 44.27 38.16 C 34.58 40.43 27.24 50.04 27.72 60.01 C 27.72 68.81 34.13 77.02 42.57 79.39 C 50.44 81.79 59.48 79.01 64.83 72.82 C 69.99 67.01 71.81 58.35 68.96 51.06 C 65.57 41.26 54.23 35.59 44.27 38.16 Z" />
<path fill="#217a7a" opacity="1.00" d=" M 44.27 38.16 C 54.23 35.59 65.57 41.26 68.96 51.06 C 71.81 58.35 69.99 67.01 64.83 72.82 C 59.48 79.01 50.44 81.79 42.57 79.39 C 34.13 77.02 27.72 68.81 27.72 60.01 C 27.24 50.04 34.58 40.43 44.27 38.16 M 43.79 48.15 C 44.09 51.08 46.52 53.09 48.20 55.30 C 44.16 60.07 39.64 64.44 34.66 68.22 C 36.00 69.60 37.35 70.97 38.70 72.34 C 42.62 67.45 46.99 62.91 51.76 58.82 C 53.96 60.51 55.94 63.04 58.89 63.31 C 61.69 61.80 63.61 59.17 65.70 56.86 C 63.47 52.43 59.53 49.33 56.18 45.81 C 54.46 43.96 52.37 42.53 50.19 41.30 C 47.91 43.42 45.27 45.34 43.79 48.15 Z" />
<path fill="#ffffff" opacity="1.00" d=" M 43.79 48.15 C 45.27 45.34 47.91 43.42 50.19 41.30 C 52.37 42.53 54.46 43.96 56.18 45.81 C 59.53 49.33 63.47 52.43 65.70 56.86 C 63.61 59.17 61.69 61.80 58.89 63.31 C 55.94 63.04 53.96 60.51 51.76 58.82 C 46.99 62.91 42.62 67.45 38.70 72.34 C 37.35 70.97 36.00 69.60 34.66 68.22 C 39.64 64.44 44.16 60.07 48.20 55.30 C 46.52 53.09 44.09 51.08 43.79 48.15 Z" />
<path fill="#68a5a5" opacity="1.00" d=" M 72.88 61.94 C 73.50 60.54 74.28 59.22 75.04 57.91 C 75.55 64.22 73.94 71.33 68.46 75.15 C 70.00 70.76 71.39 66.33 72.88 61.94 Z" />
</svg>
