<?xml version="1.0" encoding="UTF-8" ?>
<!DOCTYPE svg PUBLIC "-//W3C//DTD SVG 1.1//EN" "http://www.w3.org/Graphics/SVG/1.1/DTD/svg11.dtd">
<svg width="100pt" height="100pt" viewBox="0 0 100 100" version="1.1" xmlns="http://www.w3.org/2000/svg">
<path fill="#b8b9b9" opacity="1.00" d=" M 15.55 13.87 C 20.19 15.66 24.71 17.77 29.31 19.68 C 34.24 21.91 39.76 21.05 45.00 21.17 C 52.98 20.95 60.98 21.73 68.94 21.07 C 75.07 19.55 80.46 15.99 86.36 13.79 C 85.26 16.29 84.09 18.75 82.95 21.23 C 87.54 21.42 92.14 21.43 96.73 21.28 C 91.07 28.83 85.86 36.71 80.33 44.35 C 77.53 48.22 75.04 52.85 75.29 57.74 C 78.76 66.02 83.55 73.71 87.11 81.97 C 78.66 78.42 70.40 74.42 62.01 70.72 C 58.13 75.87 54.64 81.29 50.82 86.48 C 46.66 81.34 43.16 75.72 39.06 70.54 C 31.59 73.58 24.47 77.38 17.02 80.46 C 19.86 73.01 23.39 65.85 26.45 58.49 C 27.76 55.43 25.98 52.21 24.33 49.67 C 17.57 40.10 10.59 30.68 3.94 21.03 C 8.87 21.02 13.81 21.06 18.74 21.01 C 17.67 18.63 16.58 16.26 15.55 13.87 M 19.89 17.79 C 20.81 20.07 21.77 22.34 22.74 24.60 C 18.72 24.57 14.69 24.60 10.68 24.77 C 15.42 32.70 21.52 39.70 26.52 47.45 C 28.53 51.07 30.69 55.60 28.74 59.69 C 26.36 65.06 23.53 70.25 21.63 75.83 C 28.09 73.19 34.15 69.63 40.75 67.29 C 44.23 71.75 47.34 76.47 50.81 80.94 C 54.12 76.39 56.97 71.48 60.90 67.41 C 67.97 70.54 74.75 74.29 81.96 77.10 C 79.52 71.35 76.29 66.00 73.54 60.41 C 72.12 57.97 72.67 55.11 73.35 52.54 C 75.61 41.73 84.54 34.33 89.48 24.81 C 86.00 24.65 82.52 24.58 79.03 24.52 C 79.96 22.31 80.89 20.10 81.80 17.88 C 77.47 19.82 73.41 22.53 68.76 23.64 L 69.04 23.58 C 62.75 22.50 56.35 23.13 50.00 23.04 C 44.65 23.09 39.22 22.47 33.95 23.66 L 34.27 23.72 C 29.14 22.71 24.75 19.60 19.89 17.79 Z" />
<path fill="#b61c2e" opacity="1.00" d=" M 19.89 17.79 C 24.75 19.60 29.14 22.71 34.27 23.72 C 40.11 24.89 46.08 24.37 52.00 24.43 C 57.59 24.43 63.25 24.82 68.76 23.64 C 73.41 22.53 77.47 19.82 81.80 17.88 C 80.89 20.10 79.96 22.31 79.03 24.52 C 82.52 24.58 86.00 24.65 89.48 24.81 C 84.54 34.33 75.61 41.73 73.35 52.54 C 72.67 55.11 72.12 57.97 73.54 60.41 C 76.29 66.00 79.52 71.35 81.96 77.10 C 74.75 74.29 67.97 70.54 60.90 67.41 C 56.97 71.48 54.12 76.39 50.81 80.94 C 47.34 76.47 44.23 71.75 40.75 67.29 C 34.15 69.63 28.09 73.19 21.63 75.83 C 23.53 70.25 26.36 65.06 28.74 59.69 C 30.69 55.60 28.53 51.07 26.52 47.45 C 21.52 39.70 15.42 32.70 10.68 24.77 C 14.69 24.60 18.72 24.57 22.74 24.60 C 21.77 22.34 20.81 20.07 19.89 17.79 M 24.58 22.22 C 27.26 28.56 33.15 34.08 31.87 41.52 C 33.17 39.92 34.49 38.33 35.80 36.74 C 33.79 33.45 31.57 30.29 29.52 27.03 C 32.76 28.89 35.91 30.91 39.09 32.87 C 40.39 31.84 41.68 30.81 42.98 29.79 C 36.13 29.36 30.71 24.75 24.58 22.22 M 59.97 30.60 C 60.76 31.44 61.55 32.27 62.34 33.11 C 65.40 31.47 68.38 29.68 71.41 27.97 C 69.56 30.94 67.61 33.85 65.78 36.84 C 66.95 38.33 68.11 39.82 69.26 41.32 C 68.96 34.50 73.54 29.06 76.28 23.21 C 70.88 25.75 65.64 28.67 59.97 30.60 M 39.51 49.02 C 40.26 58.45 53.02 62.43 60.01 57.00 C 63.33 54.30 64.35 49.51 63.39 45.47 C 62.27 42.56 59.67 40.60 57.78 38.21 C 54.92 35.04 53.15 31.11 51.53 27.22 C 45.98 33.31 38.95 40.10 39.51 49.02 M 66.31 58.00 C 67.76 61.66 70.48 64.62 72.44 68.00 C 68.92 65.95 65.51 63.71 61.97 61.68 C 60.47 62.88 58.97 64.09 57.47 65.31 C 64.97 64.66 70.76 70.14 77.32 72.76 C 75.16 67.97 71.93 63.71 70.06 58.79 C 69.71 56.01 70.69 53.25 70.95 50.48 C 69.05 52.71 66.76 54.96 66.31 58.00 M 31.45 51.70 C 31.75 54.53 33.11 57.66 31.43 60.31 C 29.45 64.12 27.24 67.81 25.56 71.77 C 31.58 69.18 37.16 64.16 44.16 65.26 C 42.73 63.92 41.32 62.55 39.92 61.18 C 36.64 63.24 33.40 65.38 30.07 67.34 C 32.12 64.11 34.31 60.98 36.44 57.80 C 34.84 55.72 33.17 53.68 31.45 51.70 Z" />
<path fill="#ffffff" opacity="1.00" d=" M 24.58 22.22 C 30.71 24.75 36.13 29.36 42.98 29.79 C 41.68 30.81 40.39 31.84 39.09 32.87 C 35.91 30.91 32.76 28.89 29.52 27.03 C 31.57 30.29 33.79 33.45 35.80 36.74 C 34.49 38.33 33.17 39.92 31.87 41.52 C 33.15 34.08 27.26 28.56 24.58 22.22 Z" />
<path fill="#b8d3d0" opacity="1.00" d=" M 33.95 23.66 C 39.22 22.47 44.65 23.09 50.00 23.04 C 56.35 23.13 62.75 22.50 69.04 23.58 L 68.76 23.64 C 63.25 24.82 57.59 24.43 52.00 24.43 C 46.08 24.37 40.11 24.89 34.27 23.72 L 33.95 23.66 Z" />
<path fill="#ffffff" opacity="1.00" d=" M 59.97 30.60 C 65.64 28.67 70.88 25.75 76.28 23.21 C 73.54 29.06 68.96 34.50 69.26 41.32 C 68.11 39.82 66.95 38.33 65.78 36.84 C 67.61 33.85 69.56 30.94 71.41 27.97 C 68.38 29.68 65.40 31.47 62.34 33.11 C 61.55 32.27 60.76 31.44 59.97 30.60 Z" />
<path fill="#ffffff" opacity="1.00" d=" M 39.51 49.02 C 38.95 40.10 45.98 33.31 51.53 27.22 C 53.15 31.11 54.92 35.04 57.78 38.21 C 59.67 40.60 62.27 42.56 63.39 45.47 C 64.35 49.51 63.33 54.30 60.01 57.00 C 53.02 62.43 40.26 58.45 39.51 49.02 M 55.33 47.20 C 53.17 47.84 51.92 50.63 53.25 52.57 C 54.19 54.55 57.10 55.51 58.70 53.73 C 61.49 51.44 58.80 46.28 55.33 47.20 Z" />
<path fill="#b61c2e" opacity="1.00" d=" M 55.33 47.20 C 58.80 46.28 61.49 51.44 58.70 53.73 C 57.10 55.51 54.19 54.55 53.25 52.57 C 51.92 50.63 53.17 47.84 55.33 47.20 Z" />
<path fill="#ffffff" opacity="1.00" d=" M 66.31 58.00 C 66.76 54.96 69.05 52.71 70.95 50.48 C 70.69 53.25 69.71 56.01 70.06 58.79 C 71.93 63.71 75.16 67.97 77.32 72.76 C 70.76 70.14 64.97 64.66 57.47 65.31 C 58.97 64.09 60.47 62.88 61.97 61.68 C 65.51 63.71 68.92 65.95 72.44 68.00 C 70.48 64.62 67.76 61.66 66.31 58.00 Z" />
<path fill="#ffffff" opacity="1.00" d=" M 31.45 51.70 C 33.17 53.68 34.84 55.72 36.44 57.80 C 34.31 60.98 32.12 64.11 30.07 67.34 C 33.40 65.38 36.64 63.24 39.92 61.18 C 41.32 62.55 42.73 63.92 44.16 65.26 C 37.16 64.16 31.58 69.18 25.56 71.77 C 27.24 67.81 29.45 64.12 31.43 60.31 C 33.11 57.66 31.75 54.53 31.45 51.70 Z" />
</svg>
