<?xml version="1.0" encoding="UTF-8" ?>
<!DOCTYPE svg PUBLIC "-//W3C//DTD SVG 1.1//EN" "http://www.w3.org/Graphics/SVG/1.1/DTD/svg11.dtd">
<svg width="100pt" height="100pt" viewBox="0 0 100 100" version="1.1" xmlns="http://www.w3.org/2000/svg">
<path fill="#b8bbba" opacity="1.00" d=" M 21.50 10.44 C 30.57 6.52 40.98 6.28 50.28 9.58 C 54.96 10.86 58.79 13.97 63.20 15.82 C 67.86 16.60 72.63 16.07 77.33 16.13 C 77.43 29.67 77.41 43.21 77.33 56.75 C 82.32 59.03 87.25 62.33 89.28 67.68 C 93.26 76.02 88.22 86.52 80.03 90.06 C 75.45 92.43 69.78 92.25 65.31 89.72 C 61.25 87.75 59.10 83.30 54.90 81.54 C 53.91 83.39 53.23 85.50 51.68 86.98 C 46.97 88.07 42.05 87.31 37.38 86.40 C 34.07 85.86 32.63 81.61 29.04 81.97 C 22.92 81.77 16.79 82.12 10.66 81.96 C 10.57 62.62 10.61 43.27 10.65 23.93 C 10.82 18.76 8.58 13.94 8.21 8.82 C 12.56 9.80 17.10 13.02 21.50 10.44 M 18.33 13.83 C 15.58 14.06 13.03 12.62 10.41 11.97 C 11.36 14.48 12.41 16.94 13.53 19.37 C 15.96 24.22 14.87 29.79 14.98 35.00 C 14.95 49.33 14.87 63.66 15.03 77.99 C 21.91 78.07 28.79 77.98 35.67 78.13 C 35.62 80.04 35.58 81.95 35.53 83.87 C 39.97 84.71 44.46 85.78 49.01 85.52 C 50.79 85.55 52.41 84.53 53.36 83.07 C 51.92 81.01 49.69 79.73 47.90 78.02 C 51.17 78.11 54.44 77.99 57.71 78.05 C 59.66 81.38 61.56 85.01 64.95 87.10 C 70.78 90.85 79.08 89.88 83.89 84.89 C 89.43 79.58 89.81 70.04 84.77 64.26 C 82.10 60.71 77.34 60.21 73.96 57.68 C 73.11 45.48 73.88 33.20 73.70 20.97 C 70.92 20.81 68.10 20.85 65.36 20.30 C 63.05 19.67 61.26 17.99 59.31 16.69 C 51.34 10.69 40.84 8.78 31.09 10.05 C 26.63 10.56 22.64 12.75 18.33 13.83 Z" />
<path fill="#b61c2e" opacity="1.00" d=" M 18.33 13.83 C 22.64 12.75 26.63 10.56 31.09 10.05 C 40.84 8.78 51.34 10.69 59.31 16.69 C 61.26 17.99 63.05 19.67 65.36 20.30 C 68.10 20.85 70.92 20.81 73.70 20.97 C 73.88 33.20 73.11 45.48 73.96 57.68 C 77.34 60.21 82.10 60.71 84.77 64.26 C 89.81 70.04 89.43 79.58 83.89 84.89 C 79.08 89.88 70.78 90.85 64.95 87.10 C 61.56 85.01 59.66 81.38 57.71 78.05 C 54.44 77.99 51.17 78.11 47.90 78.02 C 49.69 79.73 51.92 81.01 53.36 83.07 C 52.41 84.53 50.79 85.55 49.01 85.52 C 44.46 85.78 39.97 84.71 35.53 83.87 C 35.58 81.95 35.62 80.04 35.67 78.13 C 28.79 77.98 21.91 78.07 15.03 77.99 C 14.87 63.66 14.95 49.33 14.98 35.00 C 14.87 29.79 15.96 24.22 13.53 19.37 C 12.41 16.94 11.36 14.48 10.41 11.97 C 13.03 12.62 15.58 14.06 18.33 13.83 M 15.97 17.38 C 19.31 20.64 22.54 24.01 25.55 27.58 C 26.79 29.14 28.45 30.28 30.20 31.22 C 27.88 27.38 24.65 24.25 21.60 21.01 C 29.58 18.59 38.21 17.14 46.36 19.66 C 51.11 20.83 54.79 24.17 58.63 26.98 C 56.97 23.59 54.24 20.97 51.38 18.60 C 56.80 21.49 62.42 25.01 65.22 30.71 C 67.41 36.02 64.43 41.43 62.30 46.22 C 64.42 43.46 66.66 40.54 67.16 36.99 C 68.17 31.01 65.65 24.79 61.20 20.78 C 53.21 13.42 41.69 10.69 31.09 12.21 C 25.75 12.93 20.89 15.35 15.97 17.38 M 32.14 29.84 C 30.70 30.28 31.53 32.62 32.93 31.97 C 34.37 31.53 33.54 29.19 32.14 29.84 M 27.23 31.82 C 25.64 32.31 26.49 34.92 28.07 34.24 C 29.67 33.77 28.80 31.12 27.23 31.82 M 31.34 33.28 C 30.16 34.74 32.71 36.38 33.71 34.92 C 34.88 33.46 32.34 31.82 31.34 33.28 M 35.44 33.26 C 33.40 37.55 30.69 41.55 29.45 46.19 C 32.51 47.02 35.70 46.51 37.52 43.68 C 35.82 43.67 34.11 43.67 32.41 43.69 C 33.14 42.06 33.87 40.43 34.63 38.82 C 36.09 39.53 37.54 40.25 39.00 40.94 C 38.22 39.34 37.41 37.77 36.62 36.18 C 38.22 36.37 39.81 36.57 41.41 36.75 C 39.44 35.55 37.43 34.42 35.44 33.26 M 42.97 35.52 C 45.08 38.05 47.38 40.42 49.39 43.03 C 46.61 41.51 43.86 39.94 40.99 38.60 C 41.66 40.38 42.37 42.15 43.08 43.92 C 41.53 43.82 39.97 43.72 38.42 43.67 C 41.68 45.58 45.51 45.59 49.17 45.78 C 49.93 43.26 50.53 40.68 51.03 38.09 C 48.48 36.86 45.76 36.01 42.97 35.52 M 37.30 48.03 C 38.12 49.26 38.95 50.48 39.78 51.71 C 38.77 53.70 37.52 55.63 37.08 57.85 C 37.54 60.67 40.19 62.29 42.17 64.05 C 41.08 61.97 39.85 59.97 38.64 57.96 C 39.35 56.00 40.27 54.08 40.66 52.02 C 40.37 49.58 39.00 47.41 38.20 45.11 C 37.90 46.08 37.60 47.05 37.30 48.03 M 41.71 47.03 C 42.21 48.74 42.76 50.43 43.29 52.13 L 42.54 52.32 C 42.40 53.69 42.26 55.06 42.12 56.44 L 42.73 56.42 C 43.31 56.99 44.47 58.13 45.05 58.70 C 45.70 58.84 46.34 58.96 46.99 59.08 C 45.16 61.92 43.91 65.07 43.11 68.33 C 45.09 69.47 47.08 70.59 49.04 71.77 C 47.53 71.26 46.03 70.72 44.53 70.17 C 44.42 72.04 44.52 73.97 44.02 75.78 C 42.70 76.42 41.18 76.50 39.83 77.08 C 42.30 79.82 45.28 82.11 48.99 82.85 C 47.52 81.29 46.02 79.77 44.55 78.22 C 47.90 73.79 51.91 69.94 55.62 65.83 C 55.16 63.75 54.25 61.79 53.51 59.80 C 54.95 59.31 56.30 58.61 57.67 57.95 C 55.92 57.35 54.18 56.65 52.34 56.34 C 51.82 56.33 50.77 56.31 50.25 56.30 C 49.26 55.72 48.27 55.13 47.28 54.56 C 48.11 52.32 48.85 50.04 49.53 47.75 C 48.19 47.70 46.84 47.70 45.49 47.68 C 44.23 47.48 42.97 47.24 41.71 47.03 M 68.41 62.32 C 64.45 63.84 61.43 67.50 60.60 71.64 C 58.96 78.79 64.83 86.39 72.12 86.75 C 80.09 87.59 87.40 79.42 85.46 71.60 C 84.14 64.12 75.42 59.34 68.41 62.32 M 30.97 67.25 C 34.21 67.38 37.46 67.05 40.62 66.32 C 37.37 65.83 33.97 65.70 30.97 67.25 M 34.81 68.75 C 33.59 70.09 33.06 71.88 32.27 73.48 C 35.30 71.17 38.79 69.64 42.36 68.37 C 39.85 68.41 37.26 68.04 34.81 68.75 M 37.79 82.79 C 38.25 82.57 39.16 82.15 39.62 81.94 C 39.10 80.65 38.58 79.37 38.07 78.08 C 37.96 79.65 37.87 81.22 37.79 82.79 Z" />
<path fill="#ffffff" opacity="1.00" d=" M 15.97 17.38 C 20.89 15.35 25.75 12.93 31.09 12.21 C 41.69 10.69 53.21 13.42 61.20 20.78 C 65.65 24.79 68.17 31.01 67.16 36.99 C 66.66 40.54 64.42 43.46 62.30 46.22 C 64.43 41.43 67.41 36.02 65.22 30.71 C 62.42 25.01 56.80 21.49 51.38 18.60 C 54.24 20.97 56.97 23.59 58.63 26.98 C 54.79 24.17 51.11 20.83 46.36 19.66 C 38.21 17.14 29.58 18.59 21.60 21.01 C 24.65 24.25 27.88 27.38 30.20 31.22 C 28.45 30.28 26.79 29.14 25.55 27.58 C 22.54 24.01 19.31 20.64 15.97 17.38 Z" />
<path fill="#dd969e" opacity="1.00" d=" M 32.14 29.84 C 33.54 29.19 34.37 31.53 32.93 31.97 C 31.53 32.62 30.70 30.28 32.14 29.84 Z" />
<path fill="#ffffff" opacity="1.00" d=" M 27.23 31.82 C 28.80 31.12 29.67 33.77 28.07 34.24 C 26.49 34.92 25.64 32.31 27.23 31.82 Z" />
<path fill="#eecbcf" opacity="1.00" d=" M 31.34 33.28 C 32.34 31.82 34.88 33.46 33.71 34.92 C 32.71 36.38 30.16 34.74 31.34 33.28 Z" />
<path fill="#ffffff" opacity="1.00" d=" M 35.44 33.26 C 37.43 34.42 39.44 35.55 41.41 36.75 C 39.81 36.57 38.22 36.37 36.62 36.18 C 37.41 37.77 38.22 39.34 39.00 40.94 C 37.54 40.25 36.09 39.53 34.63 38.82 C 33.87 40.43 33.14 42.06 32.41 43.69 C 34.11 43.67 35.82 43.67 37.52 43.68 C 35.70 46.51 32.51 47.02 29.45 46.19 C 30.69 41.55 33.40 37.55 35.44 33.26 Z" />
<path fill="#ffffff" opacity="1.00" d=" M 42.97 35.52 C 45.76 36.01 48.48 36.86 51.03 38.09 C 50.53 40.68 49.93 43.26 49.17 45.78 C 45.51 45.59 41.68 45.58 38.42 43.67 C 39.97 43.72 41.53 43.82 43.08 43.92 C 42.37 42.15 41.66 40.38 40.99 38.60 C 43.86 39.94 46.61 41.51 49.39 43.03 C 47.38 40.42 45.08 38.05 42.97 35.52 Z" />
<path fill="#ffffff" opacity="1.00" d=" M 37.30 48.03 C 37.60 47.05 37.90 46.08 38.20 45.11 C 39.00 47.41 40.37 49.58 40.66 52.02 C 40.27 54.08 39.35 56.00 38.64 57.96 C 39.85 59.97 41.08 61.97 42.17 64.05 C 40.19 62.29 37.54 60.67 37.08 57.85 C 37.52 55.63 38.77 53.70 39.78 51.71 C 38.95 50.48 38.12 49.26 37.30 48.03 Z" />
<path fill="#ffffff" opacity="1.00" d=" M 41.71 47.03 C 42.97 47.24 44.23 47.48 45.49 47.68 C 46.84 47.70 48.19 47.70 49.53 47.75 C 48.85 50.04 48.11 52.32 47.28 54.56 C 47.05 53.47 46.81 52.38 46.59 51.30 C 45.49 51.57 44.39 51.85 43.29 52.13 C 42.76 50.43 42.21 48.74 41.71 47.03 Z" />
<path fill="#d47b85" opacity="1.00" d=" M 43.29 52.13 C 44.39 51.85 45.49 51.57 46.59 51.30 C 46.81 52.38 47.05 53.47 47.28 54.56 C 48.27 55.13 49.26 55.72 50.25 56.30 C 47.74 56.29 45.24 56.36 42.73 56.42 L 42.12 56.44 C 42.26 55.06 42.40 53.69 42.54 52.32 L 43.29 52.13 Z" />
<path fill="#fcf5f5" opacity="1.00" d=" M 42.73 56.42 C 45.24 56.36 47.74 56.29 50.25 56.30 C 50.77 56.31 51.82 56.33 52.34 56.34 C 49.88 57.02 47.47 57.87 45.05 58.70 C 44.47 58.13 43.31 56.99 42.73 56.42 Z" />
<path fill="#df9ba3" opacity="1.00" d=" M 52.34 56.34 C 54.18 56.65 55.92 57.35 57.67 57.95 C 56.30 58.61 54.95 59.31 53.51 59.80 C 51.32 59.74 49.14 59.46 46.99 59.08 C 46.34 58.96 45.70 58.84 45.05 58.70 C 47.47 57.87 49.88 57.02 52.34 56.34 Z" />
<path fill="#ffffff" opacity="1.00" d=" M 46.99 59.08 C 49.14 59.46 51.32 59.74 53.51 59.80 C 54.25 61.79 55.16 63.75 55.62 65.83 C 51.91 69.94 47.90 73.79 44.55 78.22 C 46.02 79.77 47.52 81.29 48.99 82.85 C 45.28 82.11 42.30 79.82 39.83 77.08 C 41.18 76.50 42.70 76.42 44.02 75.78 C 44.52 73.97 44.42 72.04 44.53 70.17 C 46.03 70.72 47.53 71.26 49.04 71.77 C 47.08 70.59 45.09 69.47 43.11 68.33 C 43.91 65.07 45.16 61.92 46.99 59.08 M 44.24 67.25 C 45.59 67.64 46.94 68.03 48.29 68.42 C 48.94 65.67 49.00 62.80 48.07 60.10 C 46.66 62.41 45.47 64.85 44.24 67.25 Z" />
<path fill="#b00b1c" opacity="1.00" d=" M 44.24 67.25 C 45.47 64.85 46.66 62.41 48.07 60.10 C 49.00 62.80 48.94 65.67 48.29 68.42 C 46.94 68.03 45.59 67.64 44.24 67.25 Z" />
<path fill="#f3f38a" opacity="1.00" d=" M 68.41 62.32 C 75.42 59.34 84.14 64.12 85.46 71.60 C 87.40 79.42 80.09 87.59 72.12 86.75 C 64.83 86.39 58.96 78.79 60.60 71.64 C 61.43 67.50 64.45 63.84 68.41 62.32 M 70.39 63.36 C 66.51 64.30 63.32 67.52 62.33 71.38 C 60.50 77.66 65.52 84.71 72.04 85.09 C 78.27 85.86 84.32 80.31 84.07 74.04 C 84.26 67.18 77.01 61.46 70.39 63.36 Z" />
<path fill="#b00b1c" opacity="1.00" d=" M 70.39 63.36 C 77.01 61.46 84.26 67.18 84.07 74.04 C 84.32 80.31 78.27 85.86 72.04 85.09 C 65.52 84.71 60.50 77.66 62.33 71.38 C 63.32 67.52 66.51 64.30 70.39 63.36 M 69.44 65.40 C 65.38 66.99 62.88 71.65 63.80 75.91 C 64.62 80.91 70.00 84.44 74.92 83.31 C 79.94 82.45 83.43 77.02 82.22 72.09 C 81.24 66.49 74.59 63.08 69.44 65.40 Z" />
<path fill="#f3f38a" opacity="1.00" d=" M 69.44 65.40 C 74.59 63.08 81.24 66.49 82.22 72.09 C 83.43 77.02 79.94 82.45 74.92 83.31 C 70.00 84.44 64.62 80.91 63.80 75.91 C 62.88 71.65 65.38 66.99 69.44 65.40 M 71.30 71.08 C 67.15 73.14 71.47 80.00 74.94 76.92 C 78.61 74.70 74.95 68.76 71.30 71.08 Z" />
<path fill="#e7b3b9" opacity="1.00" d=" M 30.97 67.25 C 33.97 65.70 37.37 65.83 40.62 66.32 C 37.46 67.05 34.21 67.38 30.97 67.25 Z" />
<path fill="#ffffff" opacity="1.00" d=" M 34.81 68.75 C 37.26 68.04 39.85 68.41 42.36 68.37 C 38.79 69.64 35.30 71.17 32.27 73.48 C 33.06 71.88 33.59 70.09 34.81 68.75 Z" />
<path fill="#b61c2e" opacity="1.00" d=" M 71.30 71.08 C 74.95 68.76 78.61 74.70 74.94 76.92 C 71.47 80.00 67.15 73.14 71.30 71.08 Z" />
<path fill="#ffffff" opacity="1.00" d=" M 37.79 82.79 C 37.87 81.22 37.96 79.65 38.07 78.08 C 38.58 79.37 39.10 80.65 39.62 81.94 C 39.16 82.15 38.25 82.57 37.79 82.79 Z" />
</svg>
