<?xml version="1.0" encoding="UTF-8" ?>
<!DOCTYPE svg PUBLIC "-//W3C//DTD SVG 1.1//EN" "http://www.w3.org/Graphics/SVG/1.1/DTD/svg11.dtd">
<svg width="100pt" height="100pt" viewBox="0 0 100 100" version="1.1" xmlns="http://www.w3.org/2000/svg">
<path fill="#b7baba" opacity="1.00" d=" M 16.93 7.34 C 20.42 6.15 24.04 5.15 27.77 5.37 C 32.38 5.62 37.04 4.72 41.62 5.57 C 43.85 6.39 45.49 8.22 47.27 9.71 C 48.16 9.29 49.04 8.86 49.93 8.44 C 53.83 10.97 57.16 6.47 61.04 6.21 C 67.94 6.06 75.29 5.64 81.50 9.24 C 80.80 12.32 78.69 14.56 76.04 16.15 C 77.66 17.55 79.01 19.44 81.06 20.23 C 84.71 20.77 88.42 20.44 92.09 20.46 C 78.37 40.26 64.49 59.95 50.65 79.67 C 46.36 74.44 42.67 68.76 38.68 63.31 C 28.47 48.95 18.15 34.67 8.00 20.28 C 12.01 20.28 16.02 20.28 20.03 20.24 C 18.99 15.94 18.01 11.63 16.93 7.34 M 19.08 8.75 C 21.08 13.07 22.01 17.75 22.73 22.43 C 19.89 23.24 16.98 23.70 14.02 23.53 C 24.73 39.51 36.46 54.78 47.41 70.59 C 48.37 72.43 50.27 73.15 51.75 74.43 C 51.60 73.98 51.31 73.08 51.16 72.63 C 51.83 71.37 52.53 70.13 53.17 68.86 C 54.91 67.73 56.61 66.46 57.70 64.66 C 66.85 50.90 76.76 37.65 85.75 23.78 C 80.13 23.35 76.01 19.40 72.72 15.18 C 74.69 13.65 78.58 13.18 78.75 10.28 C 73.38 7.53 67.00 8.02 61.16 8.34 C 56.43 9.74 52.06 12.94 46.85 12.32 C 44.55 10.24 42.37 7.27 38.98 7.20 C 34.91 7.15 30.86 7.94 26.78 7.60 C 24.15 7.38 21.57 7.94 19.08 8.75 Z" />
<path fill="#e85a27" opacity="1.00" d=" M 19.08 8.75 C 21.57 7.94 24.15 7.38 26.78 7.60 C 30.86 7.94 34.91 7.15 38.98 7.20 C 42.37 7.27 44.55 10.24 46.85 12.32 C 52.06 12.94 56.43 9.74 61.16 8.34 C 67.00 8.02 73.38 7.53 78.75 10.28 C 78.58 13.18 74.69 13.65 72.72 15.18 C 76.01 19.40 80.13 23.35 85.75 23.78 C 76.76 37.65 66.85 50.90 57.70 64.66 C 56.61 66.46 54.91 67.73 53.17 68.86 C 55.07 64.72 56.98 60.56 59.43 56.72 C 56.70 54.86 54.02 52.92 51.34 50.99 C 51.32 53.38 51.31 55.78 51.29 58.18 C 50.18 55.99 49.09 53.79 48.00 51.60 C 48.62 51.54 49.86 51.44 50.47 51.39 C 49.80 50.32 49.13 49.25 48.44 48.19 C 50.61 44.92 53.96 42.82 57.02 40.49 C 59.58 44.84 60.83 49.75 61.64 54.69 C 64.30 51.12 67.54 47.26 67.41 42.54 C 67.19 40.48 66.80 37.88 64.64 36.96 C 61.55 35.35 58.37 33.77 56.00 31.14 C 54.12 33.53 52.94 36.33 51.89 39.15 C 50.90 41.79 48.53 43.49 46.51 45.29 C 46.75 42.34 47.62 39.25 46.62 36.35 C 45.29 33.57 43.57 30.99 42.40 28.12 C 43.44 29.01 44.52 29.86 45.60 30.70 C 46.43 29.22 47.24 27.74 48.14 26.30 C 49.81 24.50 51.68 22.79 54.01 21.90 C 56.84 20.56 59.42 23.04 61.86 24.16 C 68.55 21.66 74.85 25.86 80.61 28.75 C 81.01 27.93 81.41 27.11 81.81 26.29 C 78.26 23.99 74.93 20.49 70.40 20.49 C 65.44 20.45 60.48 20.52 55.54 19.99 C 52.10 19.55 49.16 21.59 46.67 23.67 C 45.10 24.87 43.57 26.10 42.05 27.35 C 43.53 24.49 45.40 21.84 47.83 19.71 C 46.70 20.17 45.57 20.64 44.45 21.12 C 44.60 20.01 44.75 18.91 44.93 17.81 C 48.91 17.40 52.91 16.88 56.73 15.66 C 62.81 13.67 69.20 13.00 75.37 11.36 C 69.90 10.69 64.08 9.70 58.81 11.88 C 54.32 13.77 49.77 15.52 45.10 16.89 C 43.67 17.21 42.23 17.46 40.79 17.73 C 41.51 15.11 42.27 12.51 43.00 9.89 C 42.10 10.93 41.21 11.97 40.32 13.02 C 39.71 13.08 39.10 13.15 38.49 13.21 L 38.43 13.96 C 38.14 15.48 37.84 16.99 37.52 18.50 C 36.50 16.29 35.52 14.07 34.44 11.89 C 34.75 14.63 35.17 17.35 35.76 20.04 C 34.39 18.67 33.00 17.32 31.58 16.00 C 32.74 18.71 33.98 21.38 35.19 24.07 C 33.96 23.30 32.73 22.52 31.50 21.75 C 28.81 24.18 25.44 25.59 21.80 25.65 C 20.81 29.15 21.94 32.54 24.09 35.35 C 26.63 31.97 28.86 28.38 31.12 24.81 C 32.38 24.75 33.65 24.69 34.91 24.64 C 34.29 30.90 32.29 36.88 30.85 42.97 C 31.74 47.34 35.20 50.59 37.77 54.07 C 34.09 44.60 33.12 33.55 37.16 24.05 C 38.97 27.46 38.22 31.22 37.69 34.83 C 37.17 37.52 38.70 39.93 39.71 42.30 C 42.64 48.29 41.90 55.62 46.05 61.09 C 48.66 64.48 50.01 68.57 51.16 72.63 C 51.31 73.08 51.60 73.98 51.75 74.43 C 50.27 73.15 48.37 72.43 47.41 70.59 C 36.46 54.78 24.73 39.51 14.02 23.53 C 16.98 23.70 19.89 23.24 22.73 22.43 C 22.01 17.75 21.08 13.07 19.08 8.75 M 31.27 10.29 C 31.17 11.95 31.07 13.61 30.98 15.27 C 32.44 13.27 33.92 11.28 35.40 9.29 C 34.02 9.62 32.64 9.96 31.27 10.29 M 38.22 9.50 C 36.81 9.56 36.74 12.01 38.25 11.90 C 39.66 11.86 39.72 9.39 38.22 9.50 M 22.02 9.89 C 23.12 11.55 24.25 13.20 25.36 14.85 C 23.85 18.02 24.42 21.63 27.40 23.71 C 26.95 22.15 26.47 20.59 25.98 19.05 C 27.18 17.62 28.41 16.20 29.63 14.78 C 28.90 13.33 28.83 11.42 27.54 10.32 C 25.78 9.71 23.86 9.98 22.02 9.89 M 53.50 25.14 C 52.45 26.45 54.71 28.04 55.64 26.69 C 56.68 25.38 54.44 23.80 53.50 25.14 M 68.08 27.81 C 68.49 29.27 68.91 30.73 69.33 32.18 C 71.60 32.13 73.76 31.49 75.57 30.07 C 73.26 28.78 70.70 28.12 68.08 27.81 M 27.17 36.39 C 25.79 37.26 27.21 39.65 28.58 38.53 C 29.96 37.66 28.53 35.27 27.17 36.39 M 69.11 38.21 C 68.59 39.84 69.15 40.39 70.77 39.86 C 71.29 38.23 70.73 37.68 69.11 38.21 M 52.64 46.25 C 52.75 49.42 54.68 51.78 57.29 53.38 C 58.21 50.74 56.17 49.45 54.15 48.40 C 55.44 48.20 56.74 48.00 58.03 47.80 C 58.07 47.18 58.14 45.95 58.17 45.33 C 56.33 45.63 54.48 45.94 52.64 46.25 Z" />
<path fill="#ffffff" opacity="1.00" d=" M 31.27 10.29 C 32.64 9.96 34.02 9.62 35.40 9.29 C 33.92 11.28 32.44 13.27 30.98 15.27 C 31.07 13.61 31.17 11.95 31.27 10.29 Z" />
<path fill="#fce5dd" opacity="1.00" d=" M 38.22 9.50 C 39.72 9.39 39.66 11.86 38.25 11.90 C 36.74 12.01 36.81 9.56 38.22 9.50 Z" />
<path fill="#ffffff" opacity="1.00" d=" M 22.02 9.89 C 23.86 9.98 25.78 9.71 27.54 10.32 C 28.83 11.42 28.90 13.33 29.63 14.78 C 28.41 16.20 27.18 17.62 25.98 19.05 C 26.47 20.59 26.95 22.15 27.40 23.71 C 24.42 21.63 23.85 18.02 25.36 14.85 C 24.25 13.20 23.12 11.55 22.02 9.89 Z" />
<path fill="#f7c6b5" opacity="1.00" d=" M 40.32 13.02 C 41.21 11.97 42.10 10.93 43.00 9.89 C 42.27 12.51 41.51 15.11 40.79 17.73 C 42.23 17.46 43.67 17.21 45.10 16.89 L 44.93 17.81 C 44.75 18.91 44.60 20.01 44.45 21.12 C 43.43 21.57 42.43 22.04 41.42 22.51 C 40.38 19.67 39.30 16.85 38.43 13.96 L 38.49 13.21 C 39.10 13.15 39.71 13.08 40.32 13.02 Z" />
<path fill="#ffffff" opacity="1.00" d=" M 58.81 11.88 C 64.08 9.70 69.90 10.69 75.37 11.36 C 69.20 13.00 62.81 13.67 56.73 15.66 C 52.91 16.88 48.91 17.40 44.93 17.81 L 45.10 16.89 C 49.77 15.52 54.32 13.77 58.81 11.88 Z" />
<path fill="#ffffff" opacity="1.00" d=" M 35.76 20.04 C 35.17 17.35 34.75 14.63 34.44 11.89 C 35.52 14.07 36.50 16.29 37.52 18.50 C 37.84 16.99 38.14 15.48 38.43 13.96 C 39.30 16.85 40.38 19.67 41.42 22.51 C 42.43 22.04 43.43 21.57 44.45 21.12 C 45.57 20.64 46.70 20.17 47.83 19.71 C 45.40 21.84 43.53 24.49 42.05 27.35 L 42.40 28.12 C 43.57 30.99 45.29 33.57 46.62 36.35 C 47.62 39.25 46.75 42.34 46.51 45.29 C 48.53 43.49 50.90 41.79 51.89 39.15 C 52.94 36.33 54.12 33.53 56.00 31.14 C 58.37 33.77 61.55 35.35 64.64 36.96 C 66.80 37.88 67.19 40.48 67.41 42.54 C 67.54 47.26 64.30 51.12 61.64 54.69 C 60.83 49.75 59.58 44.84 57.02 40.49 C 53.96 42.82 50.61 44.92 48.44 48.19 C 49.13 49.25 49.80 50.32 50.47 51.39 C 49.86 51.44 48.62 51.54 48.00 51.60 C 49.09 53.79 50.18 55.99 51.29 58.18 C 51.31 55.78 51.32 53.38 51.34 50.99 C 54.02 52.92 56.70 54.86 59.43 56.72 C 56.98 60.56 55.07 64.72 53.17 68.86 C 52.53 70.13 51.83 71.37 51.16 72.63 C 50.01 68.57 48.66 64.48 46.05 61.09 C 41.90 55.62 42.64 48.29 39.71 42.30 C 38.70 39.93 37.17 37.52 37.69 34.83 C 38.22 31.22 38.97 27.46 37.16 24.05 C 33.12 33.55 34.09 44.60 37.77 54.07 C 35.20 50.59 31.74 47.34 30.85 42.97 C 32.29 36.88 34.29 30.90 34.91 24.64 C 33.65 24.69 32.38 24.75 31.12 24.81 C 28.86 28.38 26.63 31.97 24.09 35.35 C 21.94 32.54 20.81 29.15 21.80 25.65 C 25.44 25.59 28.81 24.18 31.50 21.75 C 32.73 22.52 33.96 23.30 35.19 24.07 C 33.98 21.38 32.74 18.71 31.58 16.00 C 33.00 17.32 34.39 18.67 35.76 20.04 M 40.84 40.10 C 43.16 39.63 45.82 39.13 45.81 36.21 C 44.00 37.30 42.30 38.57 40.84 40.10 M 55.38 36.56 C 54.47 37.69 56.20 39.72 57.41 38.78 C 58.32 37.65 56.59 35.64 55.38 36.56 M 59.76 39.84 C 60.56 41.37 61.31 42.92 62.03 44.50 C 62.67 43.34 63.60 42.40 64.63 41.58 C 63.87 41.90 63.11 42.21 62.35 42.51 C 61.49 41.62 60.62 40.73 59.76 39.84 M 43.74 46.84 C 44.76 49.26 45.85 51.64 47.01 53.99 C 46.57 51.49 46.28 48.97 45.87 46.46 C 45.16 46.59 44.45 46.72 43.74 46.84 M 63.16 48.11 C 62.07 48.34 61.42 50.32 62.81 50.61 C 64.67 51.06 65.43 47.43 63.16 48.11 Z" />
<path fill="#ffffff" opacity="1.00" d=" M 55.54 19.99 C 60.48 20.52 65.44 20.45 70.40 20.49 C 74.93 20.49 78.26 23.99 81.81 26.29 C 81.41 27.11 81.01 27.93 80.61 28.75 C 74.85 25.86 68.55 21.66 61.86 24.16 C 59.42 23.04 56.84 20.56 54.01 21.90 C 51.68 22.79 49.81 24.50 48.14 26.30 C 47.77 25.64 47.03 24.33 46.67 23.67 C 49.16 21.59 52.10 19.55 55.54 19.99 Z" />
<path fill="#f7c6b5" opacity="1.00" d=" M 42.05 27.35 C 43.57 26.10 45.10 24.87 46.67 23.67 C 47.03 24.33 47.77 25.64 48.14 26.30 C 47.24 27.74 46.43 29.22 45.60 30.70 C 44.52 29.86 43.44 29.01 42.40 28.12 L 42.05 27.35 Z" />
<path fill="#ffffff" opacity="1.00" d=" M 53.50 25.14 C 54.44 23.80 56.68 25.38 55.64 26.69 C 54.71 28.04 52.45 26.45 53.50 25.14 Z" />
<path fill="#ffffff" opacity="1.00" d=" M 68.08 27.81 C 70.70 28.12 73.26 28.78 75.57 30.07 C 73.76 31.49 71.60 32.13 69.33 32.18 C 68.91 30.73 68.49 29.27 68.08 27.81 Z" />
<path fill="#fef6f3" opacity="1.00" d=" M 27.17 36.39 C 28.53 35.27 29.96 37.66 28.58 38.53 C 27.21 39.65 25.79 37.26 27.17 36.39 Z" />
<path fill="#f19879" opacity="1.00" d=" M 40.84 40.10 C 42.30 38.57 44.00 37.30 45.81 36.21 C 45.82 39.13 43.16 39.63 40.84 40.10 Z" />
<path fill="#ed825b" opacity="1.00" d=" M 55.38 36.56 C 56.59 35.64 58.32 37.65 57.41 38.78 C 56.20 39.72 54.47 37.69 55.38 36.56 Z" />
<path fill="#f5b39b" opacity="1.00" d=" M 69.11 38.21 C 70.73 37.68 71.29 38.23 70.77 39.86 C 69.15 40.39 68.59 39.84 69.11 38.21 Z" />
<path fill="#e85a27" opacity="1.00" d=" M 59.76 39.84 C 60.62 40.73 61.49 41.62 62.35 42.51 C 63.11 42.21 63.87 41.90 64.63 41.58 C 63.60 42.40 62.67 43.34 62.03 44.50 C 61.31 42.92 60.56 41.37 59.76 39.84 Z" />
<path fill="#ffffff" opacity="1.00" d=" M 52.64 46.25 C 54.48 45.94 56.33 45.63 58.17 45.33 C 58.14 45.95 58.07 47.18 58.03 47.80 C 56.74 48.00 55.44 48.20 54.15 48.40 C 56.17 49.45 58.21 50.74 57.29 53.38 C 54.68 51.78 52.75 49.42 52.64 46.25 Z" />
<path fill="#e85a27" opacity="1.00" d=" M 43.74 46.84 C 44.45 46.72 45.16 46.59 45.87 46.46 C 46.28 48.97 46.57 51.49 47.01 53.99 C 45.85 51.64 44.76 49.26 43.74 46.84 Z" />
<path fill="#e85a27" opacity="1.00" d=" M 63.16 48.11 C 65.43 47.43 64.67 51.06 62.81 50.61 C 61.42 50.32 62.07 48.34 63.16 48.11 Z" />
</svg>
