<?xml version="1.0" encoding="UTF-8" ?>
<!DOCTYPE svg PUBLIC "-//W3C//DTD SVG 1.1//EN" "http://www.w3.org/Graphics/SVG/1.1/DTD/svg11.dtd">
<svg width="100pt" height="100pt" viewBox="0 0 100 100" version="1.1" xmlns="http://www.w3.org/2000/svg">
<path fill="#bab9b9" opacity="1.00" d=" M 35.99 24.41 C 40.75 23.53 45.09 21.11 49.93 20.64 C 56.86 22.26 59.44 30.04 65.81 32.64 C 65.68 35.66 65.13 38.67 65.31 41.70 C 66.67 44.81 68.99 47.36 70.90 50.13 C 77.95 59.98 85.04 69.82 92.01 79.74 C 63.97 79.74 35.93 79.52 7.89 79.50 C 13.99 70.73 20.12 61.97 26.32 53.26 C 28.06 50.98 28.77 48.19 29.70 45.53 C 31.17 43.65 33.46 42.60 34.91 40.70 C 35.72 35.31 35.15 29.81 35.99 24.41 M 37.49 26.67 C 37.23 32.01 37.72 37.40 37.02 42.72 C 35.59 44.28 33.61 45.16 31.84 46.26 C 31.58 48.60 31.52 51.10 30.14 53.11 C 24.86 61.04 18.79 68.43 13.86 76.60 C 37.90 76.88 61.94 76.72 85.97 76.65 C 85.64 75.92 85.31 75.19 84.99 74.46 C 81.36 76.79 77.03 76.29 72.98 75.83 L 72.91 74.84 C 75.70 74.72 78.57 74.64 81.23 73.70 C 82.99 72.47 82.10 70.39 81.02 69.06 C 75.63 61.46 70.04 54.00 64.57 46.45 C 61.77 42.72 64.01 37.93 63.39 33.70 C 61.74 32.75 59.94 32.09 58.17 31.37 C 57.08 28.55 55.78 25.38 52.68 24.27 C 47.57 21.77 42.38 25.35 37.49 26.67 Z" />
<path fill="#217a7a" opacity="1.00" d=" M 37.49 26.67 C 42.38 25.35 47.57 21.77 52.68 24.27 C 55.78 25.38 57.08 28.55 58.17 31.37 C 59.94 32.09 61.74 32.75 63.39 33.70 C 64.01 37.93 61.77 42.72 64.57 46.45 C 70.04 54.00 75.63 61.46 81.02 69.06 C 82.10 70.39 82.99 72.47 81.23 73.70 C 78.57 74.64 75.70 74.72 72.91 74.84 C 67.30 75.06 61.71 74.54 56.18 73.63 C 50.78 72.75 45.41 74.15 40.03 74.43 C 31.92 74.89 23.80 74.35 15.69 74.20 C 20.21 74.93 24.78 75.42 29.37 75.27 C 37.91 75.01 46.45 75.73 55.00 75.60 C 60.99 75.52 67.00 75.24 72.98 75.83 C 77.03 76.29 81.36 76.79 84.99 74.46 C 85.31 75.19 85.64 75.92 85.97 76.65 C 61.94 76.72 37.90 76.88 13.86 76.60 C 18.79 68.43 24.86 61.04 30.14 53.11 C 31.52 51.10 31.58 48.60 31.84 46.26 C 33.61 45.16 35.59 44.28 37.02 42.72 C 37.72 37.40 37.23 32.01 37.49 26.67 M 46.23 25.90 C 45.47 31.91 45.24 38.00 46.14 44.01 C 47.31 44.16 48.48 44.31 49.65 44.47 C 48.46 38.41 48.50 32.22 48.65 26.07 C 48.04 26.03 46.84 25.94 46.23 25.90 M 40.53 27.37 C 39.04 34.87 39.67 42.76 41.94 50.03 C 44.11 53.22 48.31 54.25 51.19 56.74 C 47.65 55.67 43.77 54.76 41.18 51.90 C 39.11 49.68 36.81 47.63 33.91 46.58 C 37.59 53.18 41.51 59.81 47.15 64.94 C 49.22 66.73 46.88 69.44 46.45 71.55 C 51.61 71.64 56.78 72.87 61.93 72.27 C 66.01 70.86 70.05 69.34 74.18 68.04 C 68.93 67.98 63.96 69.96 58.73 70.10 C 59.42 66.79 60.84 63.66 61.41 60.32 C 60.53 58.81 59.32 57.52 58.21 56.19 C 59.49 56.46 60.77 56.72 62.05 56.97 C 61.81 54.65 61.83 52.24 61.02 50.01 C 59.71 47.62 56.93 46.06 54.19 46.32 C 50.73 46.52 47.38 45.58 44.08 44.68 C 43.20 40.49 42.59 36.26 42.30 32.00 C 42.30 30.27 41.42 28.78 40.53 27.37 M 53.50 27.42 C 51.67 33.02 51.41 38.98 51.97 44.81 C 52.54 44.46 53.69 43.75 54.26 43.40 C 54.58 38.13 55.84 32.38 53.50 27.42 M 59.23 47.47 C 60.84 43.24 60.96 38.58 60.72 34.11 C 57.56 37.66 56.68 43.35 59.23 47.47 M 31.69 59.26 C 35.65 63.09 39.87 66.66 44.30 69.92 C 42.75 67.47 41.24 64.91 39.03 62.98 C 36.85 61.28 34.21 60.33 31.69 59.26 M 61.89 67.01 C 65.17 65.71 68.28 63.99 71.07 61.83 C 67.56 62.63 64.42 64.47 61.89 67.01 M 18.86 72.25 C 21.04 70.19 22.77 67.71 24.15 65.05 C 22.13 67.25 20.34 69.66 18.86 72.25 M 28.92 65.89 C 32.78 68.26 36.88 70.21 41.10 71.85 C 37.81 68.54 33.56 66.41 28.92 65.89 Z" />
<path fill="#ffffff" opacity="1.00" d=" M 46.23 25.90 C 46.84 25.94 48.04 26.03 48.65 26.07 C 48.50 32.22 48.46 38.41 49.65 44.47 C 48.48 44.31 47.31 44.16 46.14 44.01 C 45.24 38.00 45.47 31.91 46.23 25.90 Z" />
<path fill="#ffffff" opacity="1.00" d=" M 40.53 27.37 C 41.42 28.78 42.30 30.27 42.30 32.00 C 42.59 36.26 43.20 40.49 44.08 44.68 C 47.38 45.58 50.73 46.52 54.19 46.32 C 56.93 46.06 59.71 47.62 61.02 50.01 C 61.83 52.24 61.81 54.65 62.05 56.97 C 60.77 56.72 59.49 56.46 58.21 56.19 C 59.32 57.52 60.53 58.81 61.41 60.32 C 60.84 63.66 59.42 66.79 58.73 70.10 C 63.96 69.96 68.93 67.98 74.18 68.04 C 70.05 69.34 66.01 70.86 61.93 72.27 C 56.78 72.87 51.61 71.64 46.45 71.55 C 46.88 69.44 49.22 66.73 47.15 64.94 C 41.51 59.81 37.59 53.18 33.91 46.58 C 36.81 47.63 39.11 49.68 41.18 51.90 C 43.77 54.76 47.65 55.67 51.19 56.74 C 48.31 54.25 44.11 53.22 41.94 50.03 C 39.67 42.76 39.04 34.87 40.53 27.37 Z" />
<path fill="#ffffff" opacity="1.00" d=" M 53.50 27.42 C 55.84 32.38 54.58 38.13 54.26 43.40 C 53.69 43.75 52.54 44.46 51.97 44.81 C 51.41 38.98 51.67 33.02 53.50 27.42 Z" />
<path fill="#f3f8f8" opacity="1.00" d=" M 59.23 47.47 C 56.68 43.35 57.56 37.66 60.72 34.11 C 60.96 38.58 60.84 43.24 59.23 47.47 Z" />
<path fill="#ffffff" opacity="1.00" d=" M 31.69 59.26 C 34.21 60.33 36.85 61.28 39.03 62.98 C 41.24 64.91 42.75 67.47 44.30 69.92 C 39.87 66.66 35.65 63.09 31.69 59.26 Z" />
<path fill="#ffffff" opacity="1.00" d=" M 61.89 67.01 C 64.42 64.47 67.56 62.63 71.07 61.83 C 68.28 63.99 65.17 65.71 61.89 67.01 Z" />
<path fill="#ffffff" opacity="1.00" d=" M 18.86 72.25 C 20.34 69.66 22.13 67.25 24.15 65.05 C 22.77 67.71 21.04 70.19 18.86 72.25 Z" />
<path fill="#ffffff" opacity="1.00" d=" M 28.92 65.89 C 33.56 66.41 37.81 68.54 41.10 71.85 C 36.88 70.21 32.78 68.26 28.92 65.89 Z" />
<path fill="#ffffff" opacity="1.00" d=" M 15.69 74.20 C 23.80 74.35 31.92 74.89 40.03 74.43 C 45.41 74.15 50.78 72.75 56.18 73.63 C 61.71 74.54 67.30 75.06 72.91 74.84 L 72.98 75.83 C 67.00 75.24 60.99 75.52 55.00 75.60 C 46.45 75.73 37.91 75.01 29.37 75.27 C 24.78 75.42 20.21 74.93 15.69 74.20 Z" />
</svg>
