<?xml version="1.0" encoding="UTF-8" ?>
<!DOCTYPE svg PUBLIC "-//W3C//DTD SVG 1.1//EN" "http://www.w3.org/Graphics/SVG/1.1/DTD/svg11.dtd">
<svg width="100pt" height="100pt" viewBox="0 0 100 100" version="1.1" xmlns="http://www.w3.org/2000/svg">
<path fill="#ffffff" opacity="1.00" d=" M 41.24 7.44 C 43.69 5.34 46.57 3.03 50.00 3.29 C 53.43 3.03 56.31 5.34 58.76 7.44 C 59.25 9.26 59.37 11.15 59.60 13.01 C 70.58 16.03 80.16 23.83 84.74 34.34 C 85.78 37.75 89.53 38.36 92.30 39.81 C 94.97 41.02 97.08 43.11 99.23 45.05 C 95.63 47.17 91.93 49.11 88.17 50.94 C 87.82 65.56 78.53 79.53 64.93 85.08 C 59.82 87.57 54.06 87.58 48.59 88.58 C 45.04 92.67 41.12 96.41 36.52 99.32 C 36.03 94.71 35.58 90.09 35.73 85.45 C 24.32 80.72 15.36 70.45 12.78 58.31 C 9.66 47.16 13.50 35.23 20.07 26.08 C 17.96 20.07 16.66 13.83 15.89 7.52 C 21.04 9.98 25.60 13.42 30.28 16.63 C 33.81 16.08 36.95 13.99 40.40 13.00 C 40.63 11.14 40.75 9.26 41.24 7.44 M 42.89 8.97 C 43.49 11.13 44.08 13.28 44.74 15.42 C 40.39 16.55 36.32 18.47 32.02 19.73 C 27.10 17.79 23.42 13.61 18.60 11.40 C 19.16 16.38 20.72 21.13 22.11 25.92 C 23.20 28.53 20.97 30.77 19.92 32.98 C 13.56 43.43 13.85 57.33 20.19 67.73 C 24.09 74.57 30.60 79.45 37.69 82.63 C 37.74 86.96 37.76 91.30 38.15 95.62 C 42.43 93.08 45.11 88.83 48.58 85.43 C 51.05 84.59 53.68 84.50 56.22 84.03 C 64.33 82.81 71.73 78.22 76.88 71.91 C 82.07 65.85 84.28 57.94 84.99 50.13 C 88.68 48.40 92.35 46.64 95.87 44.59 C 92.66 41.94 88.78 40.41 84.93 38.96 C 81.99 38.00 81.28 34.62 79.70 32.33 C 74.76 23.19 65.21 17.54 55.25 15.46 C 55.90 13.31 56.51 11.14 57.11 8.97 C 54.86 7.77 52.68 5.99 50.00 6.06 C 47.32 5.99 45.14 7.77 42.89 8.97 Z" />
<path fill="#482b46" opacity="1.00" d=" M 42.89 8.97 C 45.14 7.77 47.32 5.99 50.00 6.06 C 52.68 5.99 54.86 7.77 57.11 8.97 C 56.51 11.14 55.90 13.31 55.25 15.46 C 65.21 17.54 74.76 23.19 79.70 32.33 C 81.28 34.62 81.99 38.00 84.93 38.96 C 88.78 40.41 92.66 41.94 95.87 44.59 C 92.35 46.64 88.68 48.40 84.99 50.13 C 84.28 57.94 82.07 65.85 76.88 71.91 C 71.73 78.22 64.33 82.81 56.22 84.03 C 53.68 84.50 51.05 84.59 48.58 85.43 C 45.11 88.83 42.43 93.08 38.15 95.62 C 37.76 91.30 37.74 86.96 37.69 82.63 C 30.60 79.45 24.09 74.57 20.19 67.73 C 13.85 57.33 13.56 43.43 19.92 32.98 C 20.97 30.77 23.20 28.53 22.11 25.92 C 20.72 21.13 19.16 16.38 18.60 11.40 C 23.42 13.61 27.10 17.79 32.02 19.73 C 36.32 18.47 40.39 16.55 44.74 15.42 C 44.08 13.28 43.49 11.13 42.89 8.97 M 46.11 9.40 C 48.00 15.82 47.56 22.56 47.43 29.16 C 47.16 31.53 47.39 34.84 44.55 35.64 C 39.73 38.48 33.19 35.68 29.15 40.06 C 35.00 40.04 40.91 39.15 46.69 40.47 C 45.38 41.67 44.09 42.90 42.77 44.09 C 43.70 47.80 43.79 51.64 44.62 55.37 C 46.05 62.26 45.38 69.33 45.15 76.30 C 42.43 75.66 39.68 75.06 37.06 74.06 C 31.60 71.83 27.22 67.09 25.50 61.43 C 24.34 57.51 22.71 53.75 21.64 49.81 C 20.50 43.30 23.81 36.87 28.53 32.56 C 31.86 29.55 34.63 25.45 39.22 24.29 C 41.57 23.59 43.83 22.54 45.64 20.85 C 41.35 20.97 37.36 22.71 33.17 23.31 C 28.81 21.97 25.45 18.67 21.78 16.13 C 23.03 21.10 25.32 25.89 25.57 31.07 C 24.22 35.57 20.33 39.12 19.99 43.99 C 18.98 50.87 23.15 56.86 25.01 63.20 C 27.22 69.86 33.43 73.52 39.10 76.89 C 41.03 81.39 40.12 86.51 40.27 91.29 C 43.74 87.42 46.31 82.67 50.54 79.54 C 53.70 78.70 57.12 80.48 60.24 79.22 C 65.37 77.08 69.18 72.90 73.24 69.27 C 74.68 67.78 76.53 66.46 77.24 64.44 C 78.25 59.85 77.96 55.00 79.56 50.54 C 83.01 47.07 88.17 46.23 92.50 44.24 C 88.59 42.81 84.53 41.81 80.70 40.18 C 76.00 38.42 74.33 33.26 71.24 29.74 C 67.24 24.73 61.16 19.67 54.31 21.11 C 58.92 23.67 64.44 24.81 68.17 28.77 C 72.21 32.99 76.14 37.84 77.16 43.76 C 78.66 49.58 77.21 55.57 76.62 61.41 C 76.58 65.78 72.32 67.91 69.51 70.52 C 65.36 74.21 60.69 77.66 55.02 78.37 C 54.56 70.45 53.87 62.39 55.52 54.56 C 56.26 51.09 56.34 47.53 57.24 44.09 C 55.91 42.90 54.62 41.67 53.30 40.48 C 59.09 39.15 65.00 40.04 70.86 40.06 C 69.41 39.03 68.01 37.54 66.09 37.54 C 61.81 37.24 57.07 37.22 53.53 34.42 C 52.79 32.54 52.63 30.49 52.54 28.49 C 52.44 22.11 52.05 15.60 53.89 9.40 C 51.32 8.82 48.68 8.82 46.11 9.40 Z" />
<path fill="#ffffff" opacity="1.00" d=" M 46.11 9.40 C 48.68 8.82 51.32 8.82 53.89 9.40 C 52.05 15.60 52.44 22.11 52.54 28.49 C 52.63 30.49 52.79 32.54 53.53 34.42 C 57.07 37.22 61.81 37.24 66.09 37.54 C 68.01 37.54 69.41 39.03 70.86 40.06 C 65.00 40.04 59.09 39.15 53.30 40.48 C 54.62 41.67 55.91 42.90 57.24 44.09 C 56.34 47.53 56.26 51.09 55.52 54.56 C 53.87 62.39 54.56 70.45 55.02 78.37 C 60.69 77.66 65.36 74.21 69.51 70.52 C 72.32 67.91 76.58 65.78 76.62 61.41 C 77.21 55.57 78.66 49.58 77.16 43.76 C 76.14 37.84 72.21 32.99 68.17 28.77 C 64.44 24.81 58.92 23.67 54.31 21.11 C 61.16 19.67 67.24 24.73 71.24 29.74 C 74.33 33.26 76.00 38.42 80.70 40.18 C 84.53 41.81 88.59 42.81 92.50 44.24 C 88.17 46.23 83.01 47.07 79.56 50.54 C 77.96 55.00 78.25 59.85 77.24 64.44 C 76.53 66.46 74.68 67.78 73.24 69.27 C 69.18 72.90 65.37 77.08 60.24 79.22 C 57.12 80.48 53.70 78.70 50.54 79.54 C 46.31 82.67 43.74 87.42 40.27 91.29 C 40.12 86.51 41.03 81.39 39.10 76.89 C 33.43 73.52 27.22 69.86 25.01 63.20 C 23.15 56.86 18.98 50.87 19.99 43.99 C 20.33 39.12 24.22 35.57 25.57 31.07 C 25.32 25.89 23.03 21.10 21.78 16.13 C 25.45 18.67 28.81 21.97 33.17 23.31 C 37.36 22.71 41.35 20.97 45.64 20.85 C 43.83 22.54 41.57 23.59 39.22 24.29 C 34.63 25.45 31.86 29.55 28.53 32.56 C 23.81 36.87 20.50 43.30 21.64 49.81 C 22.71 53.75 24.34 57.51 25.50 61.43 C 27.22 67.09 31.60 71.83 37.06 74.06 C 39.68 75.06 42.43 75.66 45.15 76.30 C 45.38 69.33 46.05 62.26 44.62 55.37 C 43.79 51.64 43.70 47.80 42.77 44.09 C 44.09 42.90 45.38 41.67 46.69 40.47 C 40.91 39.15 35.00 40.04 29.15 40.06 C 33.19 35.68 39.73 38.48 44.55 35.64 C 47.39 34.84 47.16 31.53 47.43 29.16 C 47.56 22.56 48.00 15.82 46.11 9.40 Z" />
</svg>
