<?xml version="1.0" encoding="UTF-8" ?>
<!DOCTYPE svg PUBLIC "-//W3C//DTD SVG 1.1//EN" "http://www.w3.org/Graphics/SVG/1.1/DTD/svg11.dtd">
<svg width="100pt" height="100pt" viewBox="0 0 100 100" version="1.1" xmlns="http://www.w3.org/2000/svg">
<path fill="#bbbabb" opacity="1.00" d=" M 60.26 24.12 C 66.47 18.62 71.64 11.94 78.22 6.90 C 84.73 7.27 89.17 13.24 91.97 18.62 C 85.19 24.76 78.37 30.86 71.63 37.05 C 72.71 40.49 73.98 43.94 74.16 47.57 C 74.38 50.16 74.09 53.01 75.85 55.17 C 81.78 63.37 87.81 71.51 93.52 79.88 C 83.00 79.99 72.48 80.11 61.96 79.94 C 60.13 79.98 58.26 79.88 56.48 80.37 C 53.62 82.63 51.17 85.38 48.12 87.42 C 45.32 85.01 42.64 82.42 39.53 80.42 C 36.27 79.59 32.73 79.71 29.44 80.34 C 25.80 83.02 23.31 87.02 19.46 89.43 C 16.58 91.06 13.59 92.49 10.68 94.06 C 10.22 89.12 11.74 84.36 14.93 80.58 C 11.27 79.96 7.54 79.96 3.84 79.84 C 9.40 71.75 15.36 63.92 20.83 55.76 C 22.41 53.73 22.27 51.09 22.96 48.75 C 25.23 44.62 28.87 41.43 31.41 37.48 C 32.51 34.99 32.23 32.07 33.67 29.70 C 36.73 24.39 39.78 19.07 42.64 13.65 C 44.04 11.17 46.28 7.89 49.60 9.13 C 54.03 13.44 55.99 19.63 60.26 24.12 M 60.63 26.88 C 57.24 23.58 54.72 19.57 52.55 15.39 C 51.50 13.12 49.39 11.73 47.31 10.50 C 41.26 18.30 36.44 27.10 33.15 36.41 C 31.54 40.44 28.13 43.33 25.84 46.93 C 24.46 49.00 24.79 51.59 24.44 53.93 C 24.34 56.41 22.74 58.41 21.40 60.35 C 17.41 65.77 13.50 71.26 9.92 76.96 C 12.86 77.00 15.79 77.17 18.73 77.17 C 15.95 81.41 13.51 85.96 12.60 91.01 C 18.27 88.58 22.76 84.32 26.73 79.72 C 29.82 75.88 35.42 76.72 39.71 77.40 C 43.06 79.36 45.25 82.81 48.13 85.36 C 51.87 82.80 53.79 76.92 58.93 77.12 C 68.63 77.00 78.33 77.45 88.02 77.01 C 83.73 70.39 78.98 64.08 74.25 57.76 C 73.35 56.45 72.32 55.18 71.86 53.64 C 71.78 50.77 72.73 47.89 71.93 45.06 C 71.18 42.13 70.14 39.30 69.22 36.43 C 75.83 30.54 82.89 25.16 89.09 18.83 C 88.04 16.64 87.18 14.31 85.61 12.42 C 83.75 10.73 81.29 9.94 79.05 8.88 C 72.53 14.48 66.70 20.81 60.63 26.88 Z" />
<path fill="#217a7b" opacity="1.00" d=" M 60.63 26.88 C 66.70 20.81 72.53 14.48 79.05 8.88 C 81.29 9.94 83.75 10.73 85.61 12.42 C 87.18 14.31 88.04 16.64 89.09 18.83 C 82.89 25.16 75.83 30.54 69.22 36.43 C 70.14 39.30 71.18 42.13 71.93 45.06 C 72.73 47.89 71.78 50.77 71.86 53.64 C 72.32 55.18 73.35 56.45 74.25 57.76 C 78.98 64.08 83.73 70.39 88.02 77.01 C 78.33 77.45 68.63 77.00 58.93 77.12 C 53.79 76.92 51.87 82.80 48.13 85.36 C 45.25 82.81 43.06 79.36 39.71 77.40 C 35.42 76.72 29.82 75.88 26.73 79.72 C 22.76 84.32 18.27 88.58 12.60 91.01 C 13.51 85.96 15.95 81.41 18.73 77.17 C 15.79 77.17 12.86 77.00 9.92 76.96 C 13.50 71.26 17.41 65.77 21.40 60.35 C 22.74 58.41 24.34 56.41 24.44 53.93 C 24.79 51.59 24.46 49.00 25.84 46.93 C 28.13 43.33 31.54 40.44 33.15 36.41 C 36.44 27.10 41.26 18.30 47.31 10.50 C 49.39 11.73 51.50 13.12 52.55 15.39 C 54.72 19.57 57.24 23.58 60.63 26.88 M 77.34 14.30 C 71.37 19.39 66.21 25.33 60.72 30.92 C 55.35 26.16 51.60 20.03 48.46 13.65 C 44.34 18.78 41.29 24.65 37.76 30.19 C 41.88 26.98 45.37 23.04 48.20 18.67 C 53.74 28.53 62.19 36.20 69.01 45.12 C 68.02 42.04 66.91 39.00 65.79 35.96 C 72.11 30.06 78.98 24.79 85.25 18.83 C 84.57 17.15 83.94 15.45 83.03 13.88 C 81.21 12.98 78.84 12.64 77.34 14.30 M 27.50 49.91 C 34.12 58.48 41.01 66.84 47.90 75.20 C 54.94 66.96 61.69 58.47 68.40 49.96 C 61.96 41.21 54.92 32.92 47.97 24.58 C 40.96 32.86 34.03 41.24 27.50 49.91 M 29.00 56.91 C 29.66 60.08 32.35 63.75 29.83 66.72 C 25.09 73.57 19.51 79.89 15.73 87.37 C 22.67 81.21 27.80 73.35 34.65 67.10 C 39.46 71.87 43.79 77.10 48.53 81.95 C 51.71 77.61 55.17 73.45 58.18 68.98 C 54.31 71.75 51.04 75.23 48.07 78.92 C 41.81 71.50 35.54 64.09 29.00 56.91 Z" />
<path fill="#ffffff" opacity="1.00" d=" M 77.34 14.30 C 78.84 12.64 81.21 12.98 83.03 13.88 C 83.94 15.45 84.57 17.15 85.25 18.83 C 78.98 24.79 72.11 30.06 65.79 35.96 C 66.91 39.00 68.02 42.04 69.01 45.12 C 62.19 36.20 53.74 28.53 48.20 18.67 C 45.37 23.04 41.88 26.98 37.76 30.19 C 41.29 24.65 44.34 18.78 48.46 13.65 C 51.60 20.03 55.35 26.16 60.72 30.92 C 66.21 25.33 71.37 19.39 77.34 14.30 Z" />
<path fill="#ffffff" opacity="1.00" d=" M 27.50 49.91 C 34.03 41.24 40.96 32.86 47.97 24.58 C 54.92 32.92 61.96 41.21 68.40 49.96 C 61.69 58.47 54.94 66.96 47.90 75.20 C 41.01 66.84 34.12 58.48 27.50 49.91 M 48.20 30.99 C 48.13 38.64 48.14 46.30 48.20 53.96 C 53.24 52.60 58.24 51.06 63.12 49.23 C 58.20 43.11 53.27 36.99 48.20 30.99 M 34.98 52.96 C 39.17 58.44 43.46 63.84 47.91 69.12 C 52.40 63.83 56.72 58.40 61.01 52.95 C 56.66 54.10 52.48 56.04 47.99 56.54 C 43.49 56.12 39.33 54.10 34.98 52.96 Z" />
<path fill="#217a7b" opacity="1.00" d=" M 48.20 30.99 C 53.27 36.99 58.20 43.11 63.12 49.23 C 58.24 51.06 53.24 52.60 48.20 53.96 C 48.14 46.30 48.13 38.64 48.20 30.99 Z" />
<path fill="#217a7b" opacity="1.00" d=" M 34.98 52.96 C 39.33 54.10 43.49 56.12 47.99 56.54 C 52.48 56.04 56.66 54.10 61.01 52.95 C 56.72 58.40 52.40 63.83 47.91 69.12 C 43.46 63.84 39.17 58.44 34.98 52.96 Z" />
<path fill="#ffffff" opacity="1.00" d=" M 29.00 56.91 C 35.54 64.09 41.81 71.50 48.07 78.92 C 51.04 75.23 54.31 71.75 58.18 68.98 C 55.17 73.45 51.71 77.61 48.53 81.95 C 43.79 77.10 39.46 71.87 34.65 67.10 C 27.80 73.35 22.67 81.21 15.73 87.37 C 19.51 79.89 25.09 73.57 29.83 66.72 C 32.35 63.75 29.66 60.08 29.00 56.91 Z" />
</svg>
