<?xml version="1.0" encoding="UTF-8" ?>
<!DOCTYPE svg PUBLIC "-//W3C//DTD SVG 1.1//EN" "http://www.w3.org/Graphics/SVG/1.1/DTD/svg11.dtd">
<svg width="100pt" height="100pt" viewBox="0 0 100 100" version="1.1" xmlns="http://www.w3.org/2000/svg">
<path fill="#b8b9b8" opacity="1.00" d=" M 79.31 9.96 C 79.62 7.52 84.64 9.00 83.57 11.23 C 82.12 10.93 80.67 10.57 79.31 9.96 Z" />
<path fill="#c30f23" opacity="1.00" d=" M 72.05 14.85 C 74.65 13.51 76.92 11.63 79.31 9.96 C 80.67 10.57 82.12 10.93 83.57 11.23 C 86.17 11.41 87.48 14.54 86.82 16.81 C 85.77 20.31 82.84 22.77 81.14 25.94 C 79.54 32.51 80.39 39.31 80.31 46.00 C 80.22 56.33 80.30 66.66 80.21 76.99 C 73.10 77.17 66.00 76.84 58.89 76.95 C 56.45 76.83 54.33 78.12 52.44 79.50 C 50.45 81.11 47.56 83.49 45.57 80.47 C 41.97 76.17 36.00 76.41 30.94 77.01 C 28.90 77.17 27.23 78.45 25.76 79.77 C 22.61 83.19 19.49 86.70 15.61 89.33 C 14.71 88.82 13.77 88.39 12.79 88.06 C 13.34 86.08 14.04 84.12 15.22 82.42 C 16.35 80.53 17.87 78.62 17.78 76.29 C 16.90 56.25 17.75 36.19 17.31 16.14 C 26.25 15.99 35.20 16.08 44.15 15.98 C 44.30 14.85 44.46 13.72 44.61 12.58 L 44.72 11.72 C 47.27 12.00 49.70 12.85 51.91 14.15 C 58.06 17.46 65.56 16.65 72.05 14.85 M 38.66 29.20 C 42.64 26.14 46.05 22.38 48.55 18.02 C 53.80 27.88 62.43 35.22 68.98 44.14 C 68.07 41.11 67.01 38.13 65.94 35.16 C 71.01 30.48 76.31 26.06 81.58 21.60 C 82.95 20.20 85.46 18.86 84.43 16.54 C 84.25 13.00 79.26 11.33 77.01 14.05 C 71.27 19.02 66.21 24.73 60.89 30.15 C 55.54 25.39 51.77 19.28 48.68 12.88 C 45.26 18.27 41.79 23.64 38.66 29.20 M 48.31 23.85 C 41.42 32.11 34.76 40.56 28.02 48.94 C 34.85 57.23 41.51 65.66 48.32 73.95 C 55.11 65.65 61.93 57.36 68.50 48.88 C 61.92 40.42 55.22 32.05 48.31 23.85 M 29.06 54.96 C 30.03 57.70 31.16 60.38 32.30 63.06 C 26.70 70.98 20.26 78.40 15.80 87.07 C 22.68 80.39 28.23 72.47 35.24 65.90 C 39.88 70.60 44.34 75.45 48.63 80.47 C 52.21 75.81 55.98 71.30 59.75 66.80 C 55.35 69.68 51.58 73.42 48.50 77.67 C 42.33 69.85 35.62 62.46 29.06 54.96 Z" />
<path fill="#b8b9b8" opacity="1.00" d=" M 15.00 12.99 C 24.87 12.81 34.76 13.41 44.61 12.58 C 44.46 13.72 44.30 14.85 44.15 15.98 C 35.20 16.08 26.25 15.99 17.31 16.14 C 17.75 36.19 16.90 56.25 17.78 76.29 C 17.87 78.62 16.35 80.53 15.22 82.42 C 14.67 59.29 15.12 36.13 15.00 12.99 Z" />
<path fill="#ffffff" opacity="1.00" d=" M 38.66 29.20 C 41.79 23.64 45.26 18.27 48.68 12.88 C 51.77 19.28 55.54 25.39 60.89 30.15 C 66.21 24.73 71.27 19.02 77.01 14.05 C 79.26 11.33 84.25 13.00 84.43 16.54 C 85.46 18.86 82.95 20.20 81.58 21.60 C 76.31 26.06 71.01 30.48 65.94 35.16 C 67.01 38.13 68.07 41.11 68.98 44.14 C 62.43 35.22 53.80 27.88 48.55 18.02 C 46.05 22.38 42.64 26.14 38.66 29.20 Z" />
<path fill="#b3b2b3" opacity="1.00" d=" M 51.91 14.15 C 58.56 15.36 65.34 14.98 72.05 14.85 C 65.56 16.65 58.06 17.46 51.91 14.15 Z" />
<path fill="#ffffff" opacity="1.00" d=" M 48.31 23.85 C 55.22 32.05 61.92 40.42 68.50 48.88 C 61.93 57.36 55.11 65.65 48.32 73.95 C 41.51 65.66 34.85 57.23 28.02 48.94 C 34.76 40.56 41.42 32.11 48.31 23.85 M 48.80 30.69 C 48.36 38.13 48.53 45.58 48.66 53.03 C 53.50 51.52 58.35 50.04 63.18 48.48 C 58.61 42.38 53.86 36.40 48.80 30.69 M 35.80 51.97 C 39.66 57.50 44.15 62.54 48.29 67.86 C 52.68 62.65 57.02 57.38 61.10 51.90 C 57.98 52.80 54.91 53.83 51.80 54.77 C 46.35 56.75 41.06 53.05 35.80 51.97 Z" />
<path fill="#b8b9b8" opacity="1.00" d=" M 80.31 46.00 C 80.39 39.31 79.54 32.51 81.14 25.94 C 80.89 43.62 81.11 61.32 81.01 79.01 C 71.49 79.19 61.94 78.63 52.44 79.50 C 54.33 78.12 56.45 76.83 58.89 76.95 C 66.00 76.84 73.10 77.17 80.21 76.99 C 80.30 66.66 80.22 56.33 80.31 46.00 Z" />
<path fill="#c30f23" opacity="1.00" d=" M 48.80 30.69 C 53.86 36.40 58.61 42.38 63.18 48.48 C 58.35 50.04 53.50 51.52 48.66 53.03 C 48.53 45.58 48.36 38.13 48.80 30.69 Z" />
<path fill="#c30f23" opacity="1.00" d=" M 35.80 51.97 C 41.06 53.05 46.35 56.75 51.80 54.77 C 54.91 53.83 57.98 52.80 61.10 51.90 C 57.02 57.38 52.68 62.65 48.29 67.86 C 44.15 62.54 39.66 57.50 35.80 51.97 Z" />
<path fill="#ffffff" opacity="1.00" d=" M 29.06 54.96 C 35.62 62.46 42.33 69.85 48.50 77.67 C 51.58 73.42 55.35 69.68 59.75 66.80 C 55.98 71.30 52.21 75.81 48.63 80.47 C 44.34 75.45 39.88 70.60 35.24 65.90 C 28.23 72.47 22.68 80.39 15.80 87.07 C 20.26 78.40 26.70 70.98 32.30 63.06 C 31.16 60.38 30.03 57.70 29.06 54.96 Z" />
<path fill="#b8b9b8" opacity="1.00" d=" M 25.76 79.77 C 27.23 78.45 28.90 77.17 30.94 77.01 C 36.00 76.41 41.97 76.17 45.57 80.47 C 39.15 78.49 32.33 78.71 25.76 79.77 Z" />
<path fill="#5d5555" opacity="0.51" d=" M 12.32 88.33 L 12.79 88.06 C 13.77 88.39 14.71 88.82 15.61 89.33 C 15.45 91.32 11.56 90.21 12.32 88.33 Z" />
</svg>
