<?xml version="1.0" encoding="UTF-8" ?>
<!DOCTYPE svg PUBLIC "-//W3C//DTD SVG 1.1//EN" "http://www.w3.org/Graphics/SVG/1.1/DTD/svg11.dtd">
<svg width="78pt" height="84pt" viewBox="0 0 78 84" version="1.1" xmlns="http://www.w3.org/2000/svg">
<path fill="#b8b9b8" opacity="1.00" d=" M 68.33 2.01 C 68.60 -0.45 73.63 0.99 72.56 3.22 C 71.12 2.93 69.67 2.61 68.33 2.01 Z" />
<path fill="#c30f23" opacity="1.00" d=" M 61.02 6.83 C 63.61 5.47 65.91 3.64 68.33 2.01 C 69.67 2.61 71.12 2.93 72.56 3.22 C 75.45 3.49 76.72 7.17 75.57 9.57 C 74.24 12.65 71.77 15.05 70.17 17.98 C 69.38 20.91 69.20 23.95 69.18 26.97 C 69.31 40.97 69.32 54.97 69.17 68.96 C 62.08 69.22 54.98 68.75 47.90 69.00 C 45.48 68.97 43.35 70.16 41.44 71.52 C 40.02 72.46 38.65 73.51 37.09 74.20 C 36.22 73.68 35.39 73.10 34.62 72.45 C 30.62 68.21 24.42 68.24 19.09 69.19 C 17.40 69.53 16.06 70.69 14.79 71.78 C 11.55 75.13 8.52 78.74 4.59 81.32 C 3.70 80.80 2.77 80.38 1.79 80.04 C 2.43 78.09 3.13 76.15 4.23 74.41 C 8.18 69.75 6.32 63.50 6.42 57.99 C 6.36 41.38 6.52 24.77 6.36 8.16 C 15.22 7.92 24.08 8.12 32.94 7.98 C 33.22 6.85 33.48 5.72 33.74 4.58 L 33.93 3.68 C 36.37 4.17 38.74 4.96 40.93 6.14 C 47.09 9.32 54.57 8.74 61.02 6.83 M 27.66 21.25 C 31.60 18.15 35.01 14.40 37.54 10.06 C 42.86 19.87 51.42 27.25 57.98 36.15 C 57.07 33.13 56.00 30.16 54.97 27.17 C 60.89 21.31 67.85 16.58 73.59 10.55 C 74.19 6.99 71.14 4.82 68.03 4.17 C 61.65 9.82 55.79 16.00 49.89 22.14 C 44.51 17.42 40.82 11.27 37.69 4.92 C 34.20 10.27 30.78 15.68 27.66 21.25 M 37.31 15.89 C 30.40 24.10 23.74 32.54 17.06 40.94 C 23.82 49.26 30.50 57.65 37.32 65.93 C 44.12 57.66 50.94 49.39 57.46 40.89 C 50.94 32.40 44.24 24.04 37.31 15.89 M 18.06 46.93 C 19.03 49.68 20.15 52.36 21.26 55.05 C 15.73 63.03 9.22 70.40 4.78 79.09 C 11.67 72.43 17.18 64.47 24.23 57.95 C 28.92 62.54 33.29 67.45 37.58 72.41 C 41.32 67.88 44.96 63.27 48.72 58.76 C 44.36 61.68 40.64 65.44 37.49 69.63 C 31.28 61.84 24.61 54.43 18.06 46.93 Z" />
<path fill="#b8b9b8" opacity="1.00" d=" M 4.01 5.01 C 13.92 4.80 23.85 5.41 33.74 4.58 C 33.48 5.72 33.22 6.85 32.94 7.98 C 24.08 8.12 15.22 7.92 6.36 8.16 C 6.52 24.77 6.36 41.38 6.42 57.99 C 6.32 63.50 8.18 69.75 4.23 74.41 C 3.67 51.29 4.10 28.14 4.01 5.01 Z" />
<path fill="#ffffff" opacity="1.00" d=" M 27.66 21.25 C 30.78 15.68 34.20 10.27 37.69 4.92 C 40.82 11.27 44.51 17.42 49.89 22.14 C 55.79 16.00 61.65 9.82 68.03 4.17 C 71.14 4.82 74.19 6.99 73.59 10.55 C 67.85 16.58 60.89 21.31 54.97 27.17 C 56.00 30.16 57.07 33.13 57.98 36.15 C 51.42 27.25 42.86 19.87 37.54 10.06 C 35.01 14.40 31.60 18.15 27.66 21.25 Z" />
<path fill="#b3b2b3" opacity="1.00" d=" M 40.93 6.14 C 47.56 7.38 54.33 6.96 61.02 6.83 C 54.57 8.74 47.09 9.32 40.93 6.14 Z" />
<path fill="#ffffff" opacity="1.00" d=" M 37.31 15.89 C 44.24 24.04 50.94 32.40 57.46 40.89 C 50.94 49.39 44.12 57.66 37.32 65.93 C 30.50 57.65 23.82 49.26 17.06 40.94 C 23.74 32.54 30.40 24.10 37.31 15.89 M 37.78 22.67 C 37.37 30.11 37.51 37.57 37.66 45.02 C 42.50 43.55 47.33 42.06 52.14 40.49 C 47.64 34.33 42.82 28.40 37.78 22.67 M 24.79 43.96 C 28.66 49.47 33.11 54.54 37.29 59.82 C 41.72 54.65 46.02 49.36 50.10 43.90 C 46.98 44.79 43.90 45.83 40.80 46.77 C 35.34 48.74 30.05 45.04 24.79 43.96 Z" />
<path fill="#b8b9b8" opacity="1.00" d=" M 69.18 26.97 C 69.20 23.95 69.38 20.91 70.17 17.98 C 69.85 35.65 70.15 53.32 70.00 70.99 C 60.48 71.22 50.93 70.60 41.44 71.52 C 43.35 70.16 45.48 68.97 47.90 69.00 C 54.98 68.75 62.08 69.22 69.17 68.96 C 69.32 54.97 69.31 40.97 69.18 26.97 Z" />
<path fill="#c30f23" opacity="1.00" d=" M 37.78 22.67 C 42.82 28.40 47.64 34.33 52.14 40.49 C 47.33 42.06 42.50 43.55 37.66 45.02 C 37.51 37.57 37.37 30.11 37.78 22.67 Z" />
<path fill="#c30f23" opacity="1.00" d=" M 24.79 43.96 C 30.05 45.04 35.34 48.74 40.80 46.77 C 43.90 45.83 46.98 44.79 50.10 43.90 C 46.02 49.36 41.72 54.65 37.29 59.82 C 33.11 54.54 28.66 49.47 24.79 43.96 Z" />
<path fill="#ffffff" opacity="1.00" d=" M 18.06 46.93 C 24.61 54.43 31.28 61.84 37.49 69.63 C 40.64 65.44 44.36 61.68 48.72 58.76 C 44.96 63.27 41.32 67.88 37.58 72.41 C 33.29 67.45 28.92 62.54 24.23 57.95 C 17.18 64.47 11.67 72.43 4.78 79.09 C 9.22 70.40 15.73 63.03 21.26 55.05 C 20.15 52.36 19.03 49.68 18.06 46.93 Z" />
<path fill="#b8b9b8" opacity="1.00" d=" M 14.79 71.78 C 16.06 70.69 17.40 69.53 19.09 69.19 C 24.42 68.24 30.62 68.21 34.62 72.45 C 28.18 70.54 21.36 70.68 14.79 71.78 Z" />
<path fill="#5d5555" opacity="0.51" d=" M 1.33 80.34 L 1.79 80.04 C 2.77 80.38 3.70 80.80 4.59 81.32 C 4.48 83.32 0.57 82.22 1.33 80.34 Z" />
</svg>
