<?xml version="1.0" encoding="UTF-8" ?>
<!DOCTYPE svg PUBLIC "-//W3C//DTD SVG 1.1//EN" "http://www.w3.org/Graphics/SVG/1.1/DTD/svg11.dtd">
<svg width="100pt" height="100pt" viewBox="0 0 100 100" version="1.1" xmlns="http://www.w3.org/2000/svg">
<path fill="#b8b8b8" opacity="1.00" d=" M 74.25 8.19 C 75.91 5.16 81.00 6.74 81.17 10.02 C 81.29 14.57 80.19 19.13 80.87 23.68 C 84.70 23.90 88.27 22.30 91.99 21.79 C 95.81 22.61 95.95 27.26 96.89 30.31 C 98.16 34.12 98.51 39.18 94.81 41.78 C 92.38 43.34 90.75 45.82 88.41 47.44 C 85.94 49.12 83.41 47.05 81.09 46.16 C 82.15 49.68 82.66 53.31 83.01 56.96 C 86.06 56.76 90.13 54.50 92.29 57.79 C 93.86 61.01 90.89 63.89 89.70 66.69 C 87.40 70.48 87.13 75.16 84.89 78.92 C 82.01 81.33 79.21 78.45 77.26 76.43 C 71.44 85.42 61.50 91.25 50.96 92.64 C 41.75 93.63 32.65 90.11 25.26 84.83 C 18.46 82.71 10.39 83.34 4.75 78.27 C 1.48 75.77 0.15 70.96 2.34 67.33 C 4.33 63.25 8.67 61.44 12.07 58.81 C 12.26 52.26 13.55 45.66 16.91 39.95 C 22.20 30.40 32.21 23.62 43.05 22.33 C 46.97 21.83 50.88 22.48 54.80 22.50 C 56.62 19.86 58.36 16.87 61.44 15.53 C 63.73 14.95 66.10 15.55 68.42 15.36 C 70.01 12.68 72.62 10.84 74.25 8.19 M 75.81 9.67 C 73.99 12.91 69.85 14.37 69.80 18.53 C 68.46 18.13 67.16 17.59 65.80 17.24 C 62.29 16.50 58.68 19.15 57.54 22.37 C 56.88 23.51 57.24 25.48 55.84 26.03 C 49.88 25.14 43.60 24.57 37.83 26.74 C 34.04 28.21 30.28 29.82 26.63 31.59 C 22.75 36.88 18.43 42.14 16.63 48.58 C 15.45 52.12 15.81 55.87 15.53 59.53 C 11.07 62.15 5.57 64.31 3.48 69.48 C 2.33 72.85 4.57 76.03 7.35 77.73 C 13.36 81.52 20.70 81.67 27.52 82.64 C 32.27 85.63 37.30 88.47 43.00 89.10 C 53.71 90.66 65.19 86.46 72.01 77.97 C 73.68 75.72 76.16 74.28 78.89 73.75 C 79.72 75.07 80.31 76.55 81.32 77.76 C 82.62 78.17 83.93 77.49 84.11 76.08 C 85.33 71.90 86.72 67.74 88.95 63.97 C 89.70 62.14 91.91 59.69 89.79 57.98 C 86.42 57.93 83.28 59.51 79.95 59.87 C 79.60 57.13 79.79 54.35 79.27 51.63 C 78.63 48.82 77.37 46.18 77.03 43.30 C 80.27 43.31 83.16 44.79 86.03 46.11 C 89.20 45.79 90.01 41.99 92.71 40.73 C 95.63 39.24 96.46 35.55 95.41 32.63 C 94.40 29.72 94.58 25.80 91.87 23.88 C 87.62 24.70 83.43 26.16 79.02 25.94 C 77.59 20.68 79.70 15.33 79.03 10.06 C 79.07 8.50 76.28 8.21 75.81 9.67 Z" />
<path fill="#1a1a1a" opacity="1.00" d=" M 75.81 9.67 C 76.28 8.21 79.07 8.50 79.03 10.06 C 79.70 15.33 77.59 20.68 79.02 25.94 C 83.43 26.16 87.62 24.70 91.87 23.88 C 94.58 25.80 94.40 29.72 95.41 32.63 C 96.46 35.55 95.63 39.24 92.71 40.73 C 90.01 41.99 89.20 45.79 86.03 46.11 C 83.16 44.79 80.27 43.31 77.03 43.30 C 77.37 46.18 78.63 48.82 79.27 51.63 C 79.79 54.35 79.60 57.13 79.95 59.87 C 83.28 59.51 86.42 57.93 89.79 57.98 C 91.91 59.69 89.70 62.14 88.95 63.97 C 86.72 67.74 85.33 71.90 84.11 76.08 C 83.93 77.49 82.62 78.17 81.32 77.76 C 80.31 76.55 79.72 75.07 78.89 73.75 C 76.16 74.28 73.68 75.72 72.01 77.97 C 65.19 86.46 53.71 90.66 43.00 89.10 C 37.30 88.47 32.27 85.63 27.52 82.64 C 20.70 81.67 13.36 81.52 7.35 77.73 C 4.57 76.03 2.33 72.85 3.48 69.48 C 5.57 64.31 11.07 62.15 15.53 59.53 C 15.81 55.87 15.45 52.12 16.63 48.58 C 18.43 42.14 22.75 36.88 26.63 31.59 C 30.28 29.82 34.04 28.21 37.83 26.74 C 43.60 24.57 49.88 25.14 55.84 26.03 C 57.24 25.48 56.88 23.51 57.54 22.37 C 58.68 19.15 62.29 16.50 65.80 17.24 C 67.16 17.59 68.46 18.13 69.80 18.53 C 69.85 14.37 73.99 12.91 75.81 9.67 M 72.30 16.34 C 71.77 18.93 72.54 21.54 72.81 24.12 C 70.27 21.66 67.33 18.33 63.37 19.39 C 58.93 20.64 58.14 25.83 58.75 29.76 C 54.73 30.47 52.11 33.99 50.68 37.57 C 54.19 37.05 56.36 40.40 57.82 43.07 C 55.62 41.90 53.77 40.18 51.64 38.89 C 51.92 41.76 55.17 42.96 55.74 45.76 C 58.32 46.97 60.68 48.55 62.89 50.37 C 64.28 48.21 65.33 45.85 66.78 43.73 C 67.97 42.82 69.51 42.55 70.82 41.86 C 72.12 40.51 72.10 38.49 72.46 36.78 C 70.74 37.68 69.04 38.67 67.10 39.03 C 69.22 36.85 71.84 35.24 74.61 34.03 C 74.03 36.52 73.37 39.24 74.64 41.64 C 77.16 41.65 79.69 41.20 82.20 41.59 C 83.61 42.11 84.70 43.24 86.02 43.96 C 87.66 43.70 88.96 41.91 88.60 40.28 C 87.43 39.46 86.16 38.78 84.83 38.25 C 82.23 37.12 79.50 38.80 76.86 38.96 C 76.71 37.63 77.51 36.48 78.19 35.43 C 81.25 35.57 84.32 35.85 87.33 36.41 C 89.27 36.77 90.48 39.85 92.60 38.67 C 93.47 37.48 94.03 35.94 93.71 34.46 C 93.22 34.09 92.24 33.36 91.76 32.99 C 92.06 32.74 92.66 32.26 92.95 32.02 C 92.64 30.11 92.29 28.19 91.76 26.33 C 87.99 27.65 83.99 27.60 80.10 28.24 C 79.94 29.22 80.11 30.19 80.62 31.13 C 79.67 30.30 78.68 29.06 77.26 29.25 C 75.54 30.10 74.20 32.10 72.15 31.99 C 69.34 30.95 66.42 29.82 64.19 27.75 C 64.23 27.36 64.30 26.58 64.34 26.18 L 65.04 25.71 C 67.26 26.44 68.28 29.51 70.92 29.26 C 72.98 28.34 75.25 27.44 76.73 25.69 C 75.18 21.50 77.03 17.33 77.06 13.08 C 75.37 14.01 73.69 14.99 72.30 16.34 M 35.87 30.99 C 37.06 32.51 38.80 34.21 40.91 33.80 C 44.16 33.20 47.43 32.89 50.72 32.68 C 52.23 31.77 53.25 30.27 54.28 28.88 C 50.90 27.22 46.82 27.94 43.19 28.30 C 40.71 28.89 37.67 28.99 35.87 30.99 M 28.69 32.67 C 25.54 34.42 24.82 38.91 26.97 41.72 C 27.66 41.25 28.36 40.78 29.05 40.31 C 30.18 41.33 29.61 42.99 28.95 44.11 C 24.55 44.16 19.61 48.25 21.96 52.92 C 21.43 55.82 25.00 56.53 26.21 58.67 C 24.81 58.14 22.96 55.44 21.69 57.52 C 20.27 63.38 22.80 69.21 24.23 74.83 C 25.76 75.16 27.33 75.18 28.88 75.22 C 28.04 73.99 26.57 72.97 26.83 71.30 C 28.06 71.39 29.73 73.34 30.61 71.80 C 30.62 70.06 28.84 69.41 27.74 68.43 C 27.86 66.19 26.92 63.57 24.18 63.81 C 24.64 65.28 25.22 66.71 25.71 68.17 C 21.98 67.42 22.73 62.73 22.26 59.85 C 24.80 60.51 26.31 62.85 28.24 64.43 C 28.85 61.90 28.10 59.07 29.96 56.93 C 30.41 56.90 31.30 56.85 31.75 56.82 C 34.55 59.51 36.63 63.03 39.92 65.15 C 40.90 64.48 41.84 63.75 42.84 63.11 C 42.65 63.60 42.27 64.59 42.08 65.08 C 40.36 66.20 38.29 66.59 36.43 67.42 C 35.40 69.45 35.20 71.76 34.94 73.98 C 35.90 73.59 36.66 72.87 37.23 71.82 C 39.33 71.38 40.70 73.88 42.73 73.90 C 42.76 71.60 42.46 69.01 44.33 67.28 C 45.28 67.15 46.16 67.37 46.96 67.94 C 46.51 69.69 45.73 71.39 45.76 73.23 C 48.02 73.05 50.44 72.81 52.40 71.60 C 52.96 69.88 53.47 68.07 55.22 67.21 C 58.36 65.24 60.24 61.70 59.96 57.99 C 59.19 55.18 63.35 53.90 62.11 51.17 C 60.15 48.07 56.48 47.02 53.32 45.62 C 51.14 44.54 48.61 45.62 46.56 46.52 C 44.00 47.51 44.80 51.28 42.18 52.13 C 40.97 52.68 39.96 54.11 38.49 53.66 C 37.87 52.88 37.26 52.10 36.64 51.33 C 34.41 51.01 32.01 51.04 30.45 49.13 L 29.72 49.64 C 29.93 48.07 30.14 46.50 30.33 44.93 C 31.27 46.60 31.49 48.91 33.27 49.95 C 35.08 50.56 36.47 48.91 37.96 48.22 C 38.38 49.40 38.80 50.59 39.23 51.78 C 40.41 49.24 39.13 46.68 38.80 44.14 C 39.69 43.10 40.80 42.26 42.03 41.66 C 43.71 42.89 45.90 43.40 47.02 45.29 C 47.99 44.67 48.30 43.63 47.96 42.19 C 45.13 39.68 40.73 39.64 37.91 42.17 C 36.92 41.82 35.73 41.45 35.20 40.46 C 36.81 39.60 38.47 38.21 38.05 36.15 C 36.29 33.01 32.07 31.25 28.69 32.67 M 49.29 39.55 C 47.01 40.62 49.90 43.63 51.57 42.84 C 51.71 41.59 50.60 39.73 49.29 39.55 M 23.50 41.29 C 22.51 41.92 21.72 43.38 22.27 44.52 C 24.28 45.60 26.46 40.60 23.50 41.29 M 69.13 45.13 C 71.08 50.06 71.92 55.23 71.63 60.53 C 73.27 60.61 75.70 61.50 76.63 59.61 C 76.92 54.04 76.46 47.76 72.94 43.20 C 71.58 43.64 70.29 44.29 69.13 45.13 M 40.97 50.77 C 43.04 50.54 42.24 46.82 42.77 45.10 C 39.76 44.61 41.12 48.92 40.97 50.77 M 8.32 66.28 C 6.56 67.81 4.75 70.10 5.44 72.57 C 6.55 75.36 9.45 76.87 12.12 77.85 C 21.07 80.89 30.65 80.40 39.96 80.36 C 53.79 80.09 67.48 76.77 79.96 70.83 C 81.02 71.79 80.90 73.40 81.44 74.65 C 81.73 74.63 82.31 74.60 82.60 74.59 C 83.82 69.41 86.09 64.60 88.75 60.01 C 83.34 61.48 77.85 62.72 72.20 62.37 C 72.29 64.35 75.09 64.16 75.61 65.78 C 63.99 72.37 50.71 75.63 37.45 76.57 C 29.45 77.55 21.23 77.61 13.37 75.68 C 10.95 74.93 7.67 73.93 7.23 71.03 C 8.28 67.49 11.80 65.53 14.79 63.81 C 16.59 62.68 19.09 62.29 20.12 60.24 C 15.85 61.44 11.74 63.43 8.32 66.28 M 9.33 71.67 C 12.48 73.75 16.31 74.45 20.01 74.77 C 19.17 71.40 17.54 68.25 15.98 65.16 C 13.59 66.95 9.80 68.44 9.33 71.67 M 57.62 80.67 C 56.96 81.70 56.55 82.85 56.14 83.99 C 59.38 82.79 63.06 81.74 65.24 78.87 C 62.65 79.20 60.04 79.67 57.62 80.67 M 45.19 83.14 C 45.62 84.45 46.24 85.73 47.29 86.66 C 50.59 86.68 53.56 83.72 54.88 80.96 C 51.60 81.49 48.44 82.65 45.19 83.14 M 36.18 83.03 C 36.82 86.10 41.15 84.49 41.96 82.22 C 40.02 82.35 38.08 82.60 36.18 83.03 Z" />
<path fill="#ffffff" opacity="1.00" d=" M 72.30 16.34 C 73.69 14.99 75.37 14.01 77.06 13.08 C 77.03 17.33 75.18 21.50 76.73 25.69 C 75.25 27.44 72.98 28.34 70.92 29.26 C 68.28 29.51 67.26 26.44 65.04 25.71 L 64.34 26.18 C 64.30 26.58 64.23 27.36 64.19 27.75 C 66.42 29.82 69.34 30.95 72.15 31.99 C 74.20 32.10 75.54 30.10 77.26 29.25 C 78.68 29.06 79.67 30.30 80.62 31.13 C 80.11 30.19 79.94 29.22 80.10 28.24 C 83.99 27.60 87.99 27.65 91.76 26.33 C 92.29 28.19 92.64 30.11 92.95 32.02 C 90.04 30.99 86.57 29.50 84.16 32.32 C 83.53 31.09 82.99 29.79 81.96 28.82 C 82.11 30.47 81.14 33.13 83.34 33.77 C 86.09 35.18 89.05 33.69 91.76 32.99 C 92.24 33.36 93.22 34.09 93.71 34.46 C 94.03 35.94 93.47 37.48 92.60 38.67 C 90.48 39.85 89.27 36.77 87.33 36.41 C 84.32 35.85 81.25 35.57 78.19 35.43 C 77.51 36.48 76.71 37.63 76.86 38.96 C 79.50 38.80 82.23 37.12 84.83 38.25 C 86.16 38.78 87.43 39.46 88.60 40.28 C 88.96 41.91 87.66 43.70 86.02 43.96 C 84.70 43.24 83.61 42.11 82.20 41.59 C 79.69 41.20 77.16 41.65 74.64 41.64 C 73.37 39.24 74.03 36.52 74.61 34.03 C 71.84 35.24 69.22 36.85 67.10 39.03 C 69.04 38.67 70.74 37.68 72.46 36.78 C 72.10 38.49 72.12 40.51 70.82 41.86 C 69.51 42.55 67.97 42.82 66.78 43.73 C 65.33 45.85 64.28 48.21 62.89 50.37 C 60.68 48.55 58.32 46.97 55.74 45.76 C 55.17 42.96 51.92 41.76 51.64 38.89 C 53.77 40.18 55.62 41.90 57.82 43.07 C 56.36 40.40 54.19 37.05 50.68 37.57 C 52.11 33.99 54.73 30.47 58.75 29.76 C 58.14 25.83 58.93 20.64 63.37 19.39 C 67.33 18.33 70.27 21.66 72.81 24.12 C 72.54 21.54 71.77 18.93 72.30 16.34 M 58.47 32.20 C 58.19 33.37 57.69 34.40 56.95 35.29 C 55.90 35.03 54.86 34.75 53.83 34.46 C 54.79 35.64 55.78 36.79 56.92 37.80 C 58.04 36.37 59.04 34.83 59.79 33.17 C 59.46 32.93 58.80 32.44 58.47 32.20 M 59.04 41.73 C 61.15 40.30 61.25 37.08 62.04 34.79 C 58.97 35.58 59.25 39.24 59.04 41.73 Z" />
<path fill="#bd1c2f" opacity="1.00" d=" M 35.87 30.99 C 37.67 28.99 40.71 28.89 43.19 28.30 C 46.82 27.94 50.90 27.22 54.28 28.88 C 53.25 30.27 52.23 31.77 50.72 32.68 C 47.43 32.89 44.16 33.20 40.91 33.80 C 38.80 34.21 37.06 32.51 35.87 30.99 Z" />
<path fill="#9e9e9e" opacity="1.00" d=" M 81.96 28.82 C 82.99 29.79 83.53 31.09 84.16 32.32 C 86.57 29.50 90.04 30.99 92.95 32.02 C 92.66 32.26 92.06 32.74 91.76 32.99 C 89.05 33.69 86.09 35.18 83.34 33.77 C 81.14 33.13 82.11 30.47 81.96 28.82 Z" />
<path fill="#ffffff" opacity="1.00" d=" M 28.69 32.67 C 32.07 31.25 36.29 33.01 38.05 36.15 C 38.47 38.21 36.81 39.60 35.20 40.46 C 35.73 41.45 36.92 41.82 37.91 42.17 C 40.73 39.64 45.13 39.68 47.96 42.19 C 48.30 43.63 47.99 44.67 47.02 45.29 C 45.90 43.40 43.71 42.89 42.03 41.66 C 40.80 42.26 39.69 43.10 38.80 44.14 C 39.13 46.68 40.41 49.24 39.23 51.78 C 38.80 50.59 38.38 49.40 37.96 48.22 C 36.47 48.91 35.08 50.56 33.27 49.95 C 31.49 48.91 31.27 46.60 30.33 44.93 C 30.14 46.50 29.93 48.07 29.72 49.64 C 29.11 48.41 28.46 47.20 27.82 45.99 C 28.10 45.52 28.67 44.58 28.95 44.11 C 29.61 42.99 30.18 41.33 29.05 40.31 C 28.36 40.78 27.66 41.25 26.97 41.72 C 24.82 38.91 25.54 34.42 28.69 32.67 M 27.89 38.72 C 29.02 37.95 30.09 37.07 31.29 36.41 C 32.55 36.39 33.80 36.56 35.05 36.63 C 32.64 33.92 28.63 35.31 27.89 38.72 M 33.42 45.32 C 32.06 46.62 34.56 47.48 35.29 46.32 C 36.70 45.04 34.15 44.12 33.42 45.32 Z" />
<path fill="#171717" opacity="1.00" d=" M 58.47 32.20 C 58.80 32.44 59.46 32.93 59.79 33.17 C 59.04 34.83 58.04 36.37 56.92 37.80 C 55.78 36.79 54.79 35.64 53.83 34.46 C 54.86 34.75 55.90 35.03 56.95 35.29 C 57.69 34.40 58.19 33.37 58.47 32.20 Z" />
<path fill="#1a1a1a" opacity="1.00" d=" M 27.89 38.72 C 28.63 35.31 32.64 33.92 35.05 36.63 C 33.80 36.56 32.55 36.39 31.29 36.41 C 30.09 37.07 29.02 37.95 27.89 38.72 Z" />
<path fill="#171717" opacity="1.00" d=" M 59.04 41.73 C 59.25 39.24 58.97 35.58 62.04 34.79 C 61.25 37.08 61.15 40.30 59.04 41.73 Z" />
<path fill="#f1f1f1" opacity="1.00" d=" M 49.29 39.55 C 50.60 39.73 51.71 41.59 51.57 42.84 C 49.90 43.63 47.01 40.62 49.29 39.55 Z" />
<path fill="#951c2a" opacity="1.00" d=" M 23.50 41.29 C 26.46 40.60 24.28 45.60 22.27 44.52 C 21.72 43.38 22.51 41.92 23.50 41.29 Z" />
<path fill="#b81c2e" opacity="1.00" d=" M 69.13 45.13 C 70.29 44.29 71.58 43.64 72.94 43.20 C 76.46 47.76 76.92 54.04 76.63 59.61 C 75.70 61.50 73.27 60.61 71.63 60.53 C 71.92 55.23 71.08 50.06 69.13 45.13 Z" />
<path fill="#b8b8b8" opacity="1.00" d=" M 21.96 52.92 C 19.61 48.25 24.55 44.16 28.95 44.11 C 28.67 44.58 28.10 45.52 27.82 45.99 C 25.91 47.00 23.32 47.73 22.89 50.18 C 25.92 50.60 27.67 53.09 29.46 55.30 C 29.65 55.52 30.03 55.95 30.22 56.17 C 32.59 54.90 35.16 53.43 37.76 55.11 C 37.06 57.42 33.62 56.16 31.75 56.82 C 31.30 56.85 30.41 56.90 29.96 56.93 C 26.97 56.57 24.61 54.89 23.10 52.34 C 22.81 52.49 22.25 52.78 21.96 52.92 Z" />
<path fill="#888888" opacity="1.00" d=" M 33.42 45.32 C 34.15 44.12 36.70 45.04 35.29 46.32 C 34.56 47.48 32.06 46.62 33.42 45.32 Z" />
<path fill="#ffffff" opacity="1.00" d=" M 40.97 50.77 C 41.12 48.92 39.76 44.61 42.77 45.10 C 42.24 46.82 43.04 50.54 40.97 50.77 Z" />
<path fill="#ffffff" opacity="1.00" d=" M 46.56 46.52 C 48.61 45.62 51.14 44.54 53.32 45.62 C 56.48 47.02 60.15 48.07 62.11 51.17 C 63.35 53.90 59.19 55.18 59.96 57.99 C 60.24 61.70 58.36 65.24 55.22 67.21 C 53.47 68.07 52.96 69.88 52.40 71.60 C 50.44 72.81 48.02 73.05 45.76 73.23 C 45.73 71.39 46.51 69.69 46.96 67.94 C 46.16 67.37 45.28 67.15 44.33 67.28 C 42.46 69.01 42.76 71.60 42.73 73.90 C 40.70 73.88 39.33 71.38 37.23 71.82 C 36.66 72.87 35.90 73.59 34.94 73.98 C 35.20 71.76 35.40 69.45 36.43 67.42 C 38.29 66.59 40.36 66.20 42.08 65.08 C 42.27 64.59 42.65 63.60 42.84 63.11 C 41.84 63.75 40.90 64.48 39.92 65.15 C 36.63 63.03 34.55 59.51 31.75 56.82 C 33.62 56.16 37.06 57.42 37.76 55.11 C 35.16 53.43 32.59 54.90 30.22 56.17 C 30.03 55.95 29.65 55.52 29.46 55.30 C 30.00 52.28 26.88 50.50 25.73 48.02 C 27.29 49.01 28.76 50.11 30.24 51.21 C 30.32 51.30 30.48 51.47 30.56 51.56 C 30.48 51.47 30.32 51.30 30.24 51.21 C 30.11 50.82 29.85 50.03 29.72 49.64 L 30.45 49.13 C 32.01 51.04 34.41 51.01 36.64 51.33 C 37.26 52.10 37.87 52.88 38.49 53.66 C 39.96 54.11 40.97 52.68 42.18 52.13 C 44.80 51.28 44.00 47.51 46.56 46.52 M 49.32 48.12 C 49.59 50.29 50.62 52.49 49.83 54.67 C 47.56 54.90 45.27 54.82 43.00 55.02 C 42.98 58.91 43.76 63.42 47.08 65.89 C 49.56 67.02 53.00 67.36 55.07 65.25 C 53.18 65.61 51.24 66.83 49.30 65.97 C 45.70 65.15 44.64 61.17 43.72 58.09 C 45.16 58.76 46.54 59.56 48.01 60.16 C 51.34 59.07 54.48 57.00 55.26 53.36 C 56.26 54.24 57.20 55.19 58.21 56.07 C 57.12 52.03 54.06 47.55 49.32 48.12 M 46.24 49.33 C 45.18 49.80 44.54 51.92 46.02 52.28 C 48.12 52.75 48.45 48.71 46.24 49.33 M 56.14 63.97 C 57.81 62.44 58.57 60.27 58.95 58.09 C 57.57 59.81 56.77 61.88 56.14 63.97 Z" />
<path fill="#171717" opacity="1.00" d=" M 22.89 50.18 C 23.32 47.73 25.91 47.00 27.82 45.99 C 28.46 47.20 29.11 48.41 29.72 49.64 C 29.85 50.03 30.11 50.82 30.24 51.21 C 28.76 50.11 27.29 49.01 25.73 48.02 C 26.88 50.50 30.00 52.28 29.46 55.30 C 27.67 53.09 25.92 50.60 22.89 50.18 Z" />
<path fill="#171717" opacity="1.00" d=" M 49.32 48.12 C 54.06 47.55 57.12 52.03 58.21 56.07 C 57.20 55.19 56.26 54.24 55.26 53.36 C 54.48 57.00 51.34 59.07 48.01 60.16 C 46.54 59.56 45.16 58.76 43.72 58.09 C 44.64 61.17 45.70 65.15 49.30 65.97 C 51.24 66.83 53.18 65.61 55.07 65.25 C 53.00 67.36 49.56 67.02 47.08 65.89 C 43.76 63.42 42.98 58.91 43.00 55.02 C 45.27 54.82 47.56 54.90 49.83 54.67 C 50.62 52.49 49.59 50.29 49.32 48.12 Z" />
<path fill="#171717" opacity="1.00" d=" M 46.24 49.33 C 48.45 48.71 48.12 52.75 46.02 52.28 C 44.54 51.92 45.18 49.80 46.24 49.33 Z" />
<path fill="#1e1e1e" opacity="1.00" d=" M 30.24 51.21 C 30.32 51.30 30.48 51.47 30.56 51.56 C 30.48 51.47 30.32 51.30 30.24 51.21 Z" />
<path fill="#ffffff" opacity="1.00" d=" M 23.10 52.34 C 24.61 54.89 26.97 56.57 29.96 56.93 C 28.10 59.07 28.85 61.90 28.24 64.43 C 26.31 62.85 24.80 60.51 22.26 59.85 C 22.73 62.73 21.98 67.42 25.71 68.17 C 25.22 66.71 24.64 65.28 24.18 63.81 C 26.92 63.57 27.86 66.19 27.74 68.43 C 28.84 69.41 30.62 70.06 30.61 71.80 C 29.73 73.34 28.06 71.39 26.83 71.30 C 26.57 72.97 28.04 73.99 28.88 75.22 C 27.33 75.18 25.76 75.16 24.23 74.83 C 22.80 69.21 20.27 63.38 21.69 57.52 C 22.96 55.44 24.81 58.14 26.21 58.67 C 25.00 56.53 21.43 55.82 21.96 52.92 C 22.25 52.78 22.81 52.49 23.10 52.34 Z" />
<path fill="#1a1a1a" opacity="1.00" d=" M 56.14 63.97 C 56.77 61.88 57.57 59.81 58.95 58.09 C 58.57 60.27 57.81 62.44 56.14 63.97 Z" />
<path fill="#edad49" opacity="1.00" d=" M 8.32 66.28 C 11.74 63.43 15.85 61.44 20.12 60.24 C 19.09 62.29 16.59 62.68 14.79 63.81 C 11.80 65.53 8.28 67.49 7.23 71.03 C 7.67 73.93 10.95 74.93 13.37 75.68 C 21.23 77.61 29.45 77.55 37.45 76.57 C 50.71 75.63 63.99 72.37 75.61 65.78 C 75.09 64.16 72.29 64.35 72.20 62.37 C 77.85 62.72 83.34 61.48 88.75 60.01 C 86.09 64.60 83.82 69.41 82.60 74.59 C 82.31 74.60 81.73 74.63 81.44 74.65 C 80.90 73.40 81.02 71.79 79.96 70.83 C 67.48 76.77 53.79 80.09 39.96 80.36 C 30.65 80.40 21.07 80.89 12.12 77.85 C 9.45 76.87 6.55 75.36 5.44 72.57 C 4.75 70.10 6.56 67.81 8.32 66.28 Z" />
<path fill="#b3b3b3" opacity="1.00" d=" M 9.33 71.67 C 9.80 68.44 13.59 66.95 15.98 65.16 C 17.54 68.25 19.17 71.40 20.01 74.77 C 16.31 74.45 12.48 73.75 9.33 71.67 Z" />
<path fill="#b21c2e" opacity="1.00" d=" M 57.62 80.67 C 60.04 79.67 62.65 79.20 65.24 78.87 C 63.06 81.74 59.38 82.79 56.14 83.99 C 56.55 82.85 56.96 81.70 57.62 80.67 Z" />
<path fill="#e7e7e7" opacity="1.00" d=" M 45.19 83.14 C 48.44 82.65 51.60 81.49 54.88 80.96 C 53.56 83.72 50.59 86.68 47.29 86.66 C 46.24 85.73 45.62 84.45 45.19 83.14 Z" />
<path fill="#ffffff" opacity="1.00" d=" M 36.18 83.03 C 38.08 82.60 40.02 82.35 41.96 82.22 C 41.15 84.49 36.82 86.10 36.18 83.03 Z" />
</svg>
