<?xml version="1.0" encoding="UTF-8" ?>
<!DOCTYPE svg PUBLIC "-//W3C//DTD SVG 1.1//EN" "http://www.w3.org/Graphics/SVG/1.1/DTD/svg11.dtd">
<svg width="100pt" height="100pt" viewBox="0 0 100 100" version="1.1" xmlns="http://www.w3.org/2000/svg">
<path fill="#b9b9b9" opacity="1.00" d=" M 58.07 6.94 C 63.70 4.25 70.23 10.01 69.71 15.80 C 68.81 20.08 64.59 22.09 61.03 23.82 C 62.45 24.39 63.88 24.97 65.30 25.55 C 66.77 24.02 67.91 21.58 70.29 21.43 C 72.88 21.30 76.14 20.80 78.09 22.92 C 79.47 25.30 79.04 28.24 79.33 30.88 C 82.44 31.41 87.68 30.22 88.57 34.37 C 88.70 37.29 89.89 41.95 86.42 43.32 C 85.29 43.83 84.14 44.30 82.98 44.73 C 84.15 48.93 85.23 53.18 85.70 57.53 C 88.78 57.08 93.00 54.59 95.40 57.73 C 97.66 60.07 95.01 62.78 94.08 65.08 C 91.36 69.51 90.53 74.75 88.19 79.33 C 85.26 82.13 82.27 78.65 79.95 76.87 C 74.88 83.73 68.12 89.63 59.75 91.94 C 49.72 95.61 38.31 93.25 29.61 87.39 C 24.36 83.28 17.22 84.35 11.39 81.59 C 7.11 79.93 2.87 76.07 3.36 71.08 C 3.86 65.45 9.19 62.30 13.47 59.56 C 13.57 52.38 14.98 45.05 18.89 38.92 C 21.74 34.02 26.26 30.51 30.36 26.73 C 23.83 28.44 17.24 29.91 10.66 31.45 C 5.95 32.39 3.56 25.46 6.11 22.15 C 7.71 19.44 11.20 19.96 13.86 19.66 C 20.40 19.41 26.35 16.18 32.86 15.68 C 38.05 15.24 42.40 11.79 47.61 11.61 C 51.67 11.63 54.35 8.02 58.07 6.94 M 48.34 13.67 C 43.25 14.06 38.75 16.76 33.74 17.55 C 29.61 18.21 25.54 19.17 21.53 20.36 C 17.29 21.65 12.79 21.41 8.51 22.47 C 5.88 24.49 7.92 27.59 8.77 29.96 C 15.13 28.03 21.72 27.02 28.10 25.20 C 32.49 24.37 36.83 22.18 41.38 22.97 C 40.65 25.93 37.86 27.23 35.35 28.39 C 30.11 30.77 25.58 34.61 22.41 39.42 C 18.01 45.50 16.78 53.10 16.48 60.43 C 12.56 62.66 8.03 64.75 5.93 68.99 C 4.43 72.00 5.85 75.65 8.45 77.54 C 13.48 81.48 20.12 81.76 26.16 82.86 C 29.96 83.47 33.04 85.94 36.46 87.50 C 45.71 91.94 57.04 90.96 65.82 85.85 C 71.61 82.66 75.05 76.39 81.38 73.98 C 82.92 75.74 84.58 77.42 86.42 78.88 C 88.04 74.40 89.44 69.83 91.64 65.58 C 92.90 63.19 93.88 60.56 93.64 57.82 C 89.77 58.63 85.92 59.54 82.05 60.32 C 82.27 57.80 83.35 55.15 82.41 52.65 C 81.14 49.12 79.62 45.70 78.18 42.24 C 80.96 42.05 83.74 41.85 86.51 41.58 C 86.60 39.02 86.67 36.45 86.75 33.89 C 83.60 33.47 80.43 33.22 77.27 32.99 C 77.11 30.18 77.25 27.30 76.51 24.56 C 74.60 22.43 71.25 23.81 68.73 23.52 C 68.49 25.91 68.21 28.30 68.02 30.70 C 61.82 26.78 54.63 25.03 47.36 24.67 C 47.92 23.04 48.45 21.40 49.16 19.84 C 52.54 19.94 55.59 21.75 58.95 21.92 C 62.63 21.19 66.98 19.05 67.74 15.01 C 67.46 11.68 64.61 8.33 61.13 8.29 C 56.36 8.80 53.15 13.35 48.34 13.67 Z" />
<path fill="#1a1a1a" opacity="1.00" d=" M 48.34 13.67 C 53.15 13.35 56.36 8.80 61.13 8.29 C 64.61 8.33 67.46 11.68 67.74 15.01 C 66.98 19.05 62.63 21.19 58.95 21.92 C 55.59 21.75 52.54 19.94 49.16 19.84 C 48.45 21.40 47.92 23.04 47.36 24.67 C 54.63 25.03 61.82 26.78 68.02 30.70 C 68.21 28.30 68.49 25.91 68.73 23.52 C 71.25 23.81 74.60 22.43 76.51 24.56 C 77.25 27.30 77.11 30.18 77.27 32.99 C 80.43 33.22 83.60 33.47 86.75 33.89 C 86.67 36.45 86.60 39.02 86.51 41.58 C 83.74 41.85 80.96 42.05 78.18 42.24 C 79.62 45.70 81.14 49.12 82.41 52.65 C 83.35 55.15 82.27 57.80 82.05 60.32 C 85.92 59.54 89.77 58.63 93.64 57.82 C 93.88 60.56 92.90 63.19 91.64 65.58 C 89.44 69.83 88.04 74.40 86.42 78.88 C 84.58 77.42 82.92 75.74 81.38 73.98 C 75.05 76.39 71.61 82.66 65.82 85.85 C 57.04 90.96 45.71 91.94 36.46 87.50 C 33.04 85.94 29.96 83.47 26.16 82.86 C 20.12 81.76 13.48 81.48 8.45 77.54 C 5.85 75.65 4.43 72.00 5.93 68.99 C 8.03 64.75 12.56 62.66 16.48 60.43 C 16.78 53.10 18.01 45.50 22.41 39.42 C 25.58 34.61 30.11 30.77 35.35 28.39 C 37.86 27.23 40.65 25.93 41.38 22.97 C 36.83 22.18 32.49 24.37 28.10 25.20 C 21.72 27.02 15.13 28.03 8.77 29.96 C 7.92 27.59 5.88 24.49 8.51 22.47 C 12.79 21.41 17.29 21.65 21.53 20.36 C 25.54 19.17 29.61 18.21 33.74 17.55 C 38.75 16.76 43.25 14.06 48.34 13.67 M 48.02 16.17 C 43.41 16.46 39.27 18.79 34.72 19.49 C 26.07 20.66 17.88 24.33 9.04 24.33 C 9.23 25.46 9.60 26.55 9.81 27.68 C 20.64 24.52 31.72 22.22 42.72 19.69 C 42.41 26.00 41.89 32.71 44.59 38.57 C 44.46 40.16 44.29 41.73 44.06 43.30 C 43.35 45.02 41.71 46.73 42.48 48.70 C 43.42 51.32 43.98 54.04 43.77 56.83 C 43.45 58.97 45.96 59.78 47.45 60.63 C 50.38 61.48 52.58 58.57 54.56 56.90 C 52.86 57.25 51.17 57.65 49.49 58.07 C 51.50 55.37 52.86 52.27 54.25 49.22 C 52.75 49.74 51.25 50.29 49.76 50.83 C 50.25 49.71 50.73 48.58 51.22 47.45 C 55.90 48.83 60.53 50.41 65.18 51.89 C 67.15 52.64 69.28 52.38 71.28 51.94 C 71.01 51.43 70.49 50.42 70.23 49.91 C 66.15 47.81 61.25 48.01 57.31 45.48 C 58.55 43.20 60.13 40.75 59.10 38.06 C 58.74 34.83 56.38 30.51 52.51 31.55 C 48.61 32.64 47.44 36.70 46.87 40.24 C 46.64 40.08 46.16 39.78 45.92 39.63 C 46.48 37.09 46.58 34.48 46.25 31.90 C 45.66 27.13 45.89 22.31 45.51 17.53 C 49.41 17.98 53.33 17.43 57.10 16.39 C 56.31 17.41 55.52 18.44 54.74 19.47 C 59.22 20.25 63.30 18.04 66.46 15.05 C 65.06 13.32 63.81 11.35 61.84 10.20 C 56.74 11.11 53.39 16.18 48.02 16.17 M 70.38 25.84 C 70.38 29.00 70.38 32.17 70.35 35.34 C 67.19 35.38 64.03 35.39 60.87 35.39 C 60.80 36.82 60.80 38.26 60.86 39.69 C 64.01 39.72 67.16 39.74 70.31 39.77 C 70.34 42.70 70.42 45.63 70.46 48.57 C 71.89 48.81 73.30 49.10 74.71 49.42 C 74.73 46.21 74.73 42.99 74.76 39.78 C 78.05 39.74 81.34 39.71 84.63 39.66 C 84.57 38.25 84.57 36.84 84.62 35.43 C 81.33 35.39 78.04 35.37 74.76 35.33 C 74.73 32.14 74.72 28.96 74.71 25.77 C 73.27 25.73 71.82 25.75 70.38 25.84 M 48.06 27.65 C 48.03 28.43 47.96 29.98 47.93 30.75 C 50.66 30.15 53.72 28.88 56.33 30.59 C 59.40 32.36 62.78 33.50 66.38 33.22 C 61.23 29.01 54.59 27.54 48.06 27.65 M 20.79 59.29 C 22.41 58.21 24.97 57.81 25.50 55.65 C 26.88 51.68 27.34 47.31 29.73 43.74 C 32.50 39.42 36.96 36.64 41.20 33.93 C 40.97 32.49 40.78 31.04 40.63 29.58 C 27.95 33.08 19.81 46.44 20.79 59.29 M 73.15 49.96 C 72.68 51.12 72.15 52.24 71.55 53.33 C 74.69 54.71 78.11 55.10 81.52 54.89 C 79.77 51.72 76.60 50.36 73.15 49.96 M 74.07 57.25 C 74.00 58.45 73.93 59.65 73.86 60.85 C 75.51 60.81 77.16 60.77 78.81 60.74 C 78.79 59.57 78.76 58.41 78.74 57.24 C 77.18 57.26 75.63 57.26 74.07 57.25 M 10.47 66.52 C 8.15 68.32 6.10 71.91 8.37 74.55 C 12.07 78.73 18.03 79.54 23.25 80.41 C 43.62 82.64 64.83 80.13 83.40 71.14 C 84.02 72.54 84.67 73.95 85.33 75.34 C 87.20 70.16 89.35 65.09 91.89 60.21 C 86.65 61.70 81.27 62.65 75.85 63.15 C 76.87 64.14 77.89 65.12 78.91 66.11 C 64.63 74.00 48.24 77.21 32.06 77.66 C 26.36 77.72 20.54 77.67 15.04 76.03 C 12.69 75.34 10.37 74.08 9.11 71.90 C 9.91 68.81 12.55 66.71 15.14 65.10 C 20.11 62.07 25.71 60.36 31.01 58.04 C 23.73 59.49 16.33 61.80 10.47 66.52 M 37.63 66.97 C 37.58 70.01 37.50 73.05 37.48 76.09 C 38.70 75.04 40.71 74.19 40.27 72.22 C 39.84 67.61 40.13 63.00 41.62 58.59 C 39.79 61.08 37.62 63.72 37.63 66.97 M 46.61 65.27 C 47.64 65.18 48.67 65.08 49.70 64.99 C 48.09 68.12 46.96 71.48 46.57 74.98 C 49.64 71.00 50.56 65.87 53.41 61.75 C 54.88 65.30 56.17 68.93 58.07 72.29 C 57.80 67.66 55.71 63.48 53.95 59.29 C 51.42 61.18 48.95 63.15 46.61 65.27 M 21.61 64.06 C 22.87 67.41 23.94 70.95 26.21 73.80 C 27.73 76.26 30.94 75.29 33.35 75.50 C 30.62 71.26 28.07 66.89 26.20 62.21 C 24.67 62.82 23.14 63.44 21.61 64.06 M 42.31 62.49 C 41.08 63.08 40.49 65.05 41.32 66.17 C 42.93 66.52 44.11 62.83 42.31 62.49 M 45.15 62.09 C 44.71 63.49 45.18 63.97 46.59 63.54 C 47.03 62.14 46.56 61.66 45.15 62.09 M 50.28 73.51 C 52.32 73.28 54.35 73.02 56.38 72.75 C 55.41 69.72 54.36 66.70 53.09 63.78 C 51.62 66.84 50.72 70.14 50.28 73.51 M 10.62 71.86 C 14.14 73.56 17.90 74.67 21.72 75.41 C 20.32 72.19 18.92 68.98 17.53 65.76 C 15.07 67.61 12.75 69.63 10.62 71.86 M 38.65 83.62 C 48.39 87.59 59.99 86.09 68.18 79.40 C 58.48 81.73 48.57 82.76 38.65 83.62 Z" />
<path fill="#ffffff" opacity="1.00" d=" M 48.02 16.17 C 53.39 16.18 56.74 11.11 61.84 10.20 C 63.81 11.35 65.06 13.32 66.46 15.05 C 63.30 18.04 59.22 20.25 54.74 19.47 C 55.52 18.44 56.31 17.41 57.10 16.39 C 53.33 17.43 49.41 17.98 45.51 17.53 C 45.89 22.31 45.66 27.13 46.25 31.90 C 46.58 34.48 46.48 37.09 45.92 39.63 C 45.59 39.36 44.92 38.84 44.59 38.57 C 41.89 32.71 42.41 26.00 42.72 19.69 C 31.72 22.22 20.64 24.52 9.81 27.68 C 9.60 26.55 9.23 25.46 9.04 24.33 C 17.88 24.33 26.07 20.66 34.72 19.49 C 39.27 18.79 43.41 16.46 48.02 16.17 M 57.85 14.95 C 59.74 14.11 61.57 13.11 63.19 11.82 C 61.26 12.59 59.49 13.68 57.85 14.95 Z" />
<path fill="#1a1a1a" opacity="1.00" d=" M 57.85 14.95 C 59.49 13.68 61.26 12.59 63.19 11.82 C 61.57 13.11 59.74 14.11 57.85 14.95 Z" />
<path fill="#ffffff" opacity="1.00" d=" M 70.38 25.84 C 71.82 25.75 73.27 25.73 74.71 25.77 C 74.72 28.96 74.73 32.14 74.76 35.33 C 78.04 35.37 81.33 35.39 84.62 35.43 C 84.57 36.84 84.57 38.25 84.63 39.66 C 81.34 39.71 78.05 39.74 74.76 39.78 C 74.73 42.99 74.73 46.21 74.71 49.42 C 73.30 49.10 71.89 48.81 70.46 48.57 C 70.42 45.63 70.34 42.70 70.31 39.77 C 67.16 39.74 64.01 39.72 60.86 39.69 C 60.80 38.26 60.80 36.82 60.87 35.39 C 64.03 35.39 67.19 35.38 70.35 35.34 C 70.38 32.17 70.38 29.00 70.38 25.84 Z" />
<path fill="#2c8c19" opacity="1.00" d=" M 48.06 27.65 C 54.59 27.54 61.23 29.01 66.38 33.22 C 62.78 33.50 59.40 32.36 56.33 30.59 C 53.72 28.88 50.66 30.15 47.93 30.75 C 47.96 29.98 48.03 28.43 48.06 27.65 Z" />
<path fill="#2c8c19" opacity="1.00" d=" M 20.79 59.29 C 19.81 46.44 27.95 33.08 40.63 29.58 C 40.78 31.04 40.97 32.49 41.20 33.93 C 36.96 36.64 32.50 39.42 29.73 43.74 C 27.34 47.31 26.88 51.68 25.50 55.65 C 24.97 57.81 22.41 58.21 20.79 59.29 Z" />
<path fill="#ffffff" opacity="1.00" d=" M 52.51 31.55 C 56.38 30.51 58.74 34.83 59.10 38.06 C 60.13 40.75 58.55 43.20 57.31 45.48 C 61.25 48.01 66.15 47.81 70.23 49.91 C 70.49 50.42 71.01 51.43 71.28 51.94 C 69.28 52.38 67.15 52.64 65.18 51.89 C 60.53 50.41 55.90 48.83 51.22 47.45 C 50.73 48.58 50.25 49.71 49.76 50.83 C 51.25 50.29 52.75 49.74 54.25 49.22 C 52.86 52.27 51.50 55.37 49.49 58.07 C 51.17 57.65 52.86 57.25 54.56 56.90 C 52.58 58.57 50.38 61.48 47.45 60.63 C 45.96 59.78 43.45 58.97 43.77 56.83 C 43.98 54.04 43.42 51.32 42.48 48.70 C 41.71 46.73 43.35 45.02 44.06 43.30 C 44.64 43.33 45.81 43.39 46.40 43.42 C 45.51 45.02 44.62 46.62 43.76 48.24 C 45.87 46.72 47.98 45.20 49.96 43.52 C 50.88 42.70 51.78 41.85 52.70 41.03 C 53.65 40.20 54.59 39.35 55.54 38.52 C 55.32 37.98 54.88 36.92 54.66 36.39 C 53.43 37.96 52.19 39.53 51.00 41.13 C 49.60 40.93 48.23 40.63 46.87 40.24 C 47.44 36.70 48.61 32.64 52.51 31.55 M 52.82 33.15 C 52.11 34.54 54.42 36.28 55.60 35.31 C 56.28 33.89 54.03 32.16 52.82 33.15 Z" />
<path fill="#1a1a1a" opacity="1.00" d=" M 52.82 33.15 C 54.03 32.16 56.28 33.89 55.60 35.31 C 54.42 36.28 52.11 34.54 52.82 33.15 Z" />
<path fill="#1a1a1a" opacity="1.00" d=" M 51.00 41.13 C 52.19 39.53 53.43 37.96 54.66 36.39 C 54.88 36.92 55.32 37.98 55.54 38.52 C 54.59 39.35 53.65 40.20 52.70 41.03 C 52.27 41.06 51.42 41.11 51.00 41.13 Z" />
<path fill="#bbbbbb" opacity="1.00" d=" M 44.59 38.57 C 44.92 38.84 45.59 39.36 45.92 39.63 C 46.16 39.78 46.64 40.08 46.87 40.24 C 48.23 40.63 49.60 40.93 51.00 41.13 C 51.42 41.11 52.27 41.06 52.70 41.03 C 51.78 41.85 50.88 42.70 49.96 43.52 C 48.77 43.49 47.59 43.47 46.40 43.42 C 45.81 43.39 44.64 43.33 44.06 43.30 C 44.29 41.73 44.46 40.16 44.59 38.57 Z" />
<path fill="#1a1a1a" opacity="1.00" d=" M 46.40 43.42 C 47.59 43.47 48.77 43.49 49.96 43.52 C 47.98 45.20 45.87 46.72 43.76 48.24 C 44.62 46.62 45.51 45.02 46.40 43.42 Z" />
<path fill="#ffffff" opacity="1.00" d=" M 73.15 49.96 C 76.60 50.36 79.77 51.72 81.52 54.89 C 78.11 55.10 74.69 54.71 71.55 53.33 C 72.15 52.24 72.68 51.12 73.15 49.96 Z" />
<path fill="#2f9d19" opacity="1.00" d=" M 74.07 57.25 C 75.63 57.26 77.18 57.26 78.74 57.24 C 78.76 58.41 78.79 59.57 78.81 60.74 C 77.16 60.77 75.51 60.81 73.86 60.85 C 73.93 59.65 74.00 58.45 74.07 57.25 Z" />
<path fill="#edad49" opacity="1.00" d=" M 10.47 66.52 C 16.33 61.80 23.73 59.49 31.01 58.04 C 25.71 60.36 20.11 62.07 15.14 65.10 C 12.55 66.71 9.91 68.81 9.11 71.90 C 10.37 74.08 12.69 75.34 15.04 76.03 C 20.54 77.67 26.36 77.72 32.06 77.66 C 48.24 77.21 64.63 74.00 78.91 66.11 C 77.89 65.12 76.87 64.14 75.85 63.15 C 81.27 62.65 86.65 61.70 91.89 60.21 C 89.35 65.09 87.20 70.16 85.33 75.34 C 84.67 73.95 84.02 72.54 83.40 71.14 C 64.83 80.13 43.62 82.64 23.25 80.41 C 18.03 79.54 12.07 78.73 8.37 74.55 C 6.10 71.91 8.15 68.32 10.47 66.52 Z" />
<path fill="#ffffff" opacity="1.00" d=" M 37.63 66.97 C 37.62 63.72 39.79 61.08 41.62 58.59 C 40.13 63.00 39.84 67.61 40.27 72.22 C 40.71 74.19 38.70 75.04 37.48 76.09 C 37.50 73.05 37.58 70.01 37.63 66.97 Z" />
<path fill="#ffffff" opacity="1.00" d=" M 46.61 65.27 C 48.95 63.15 51.42 61.18 53.95 59.29 C 55.71 63.48 57.80 67.66 58.07 72.29 C 56.17 68.93 54.88 65.30 53.41 61.75 C 50.56 65.87 49.64 71.00 46.57 74.98 C 46.96 71.48 48.09 68.12 49.70 64.99 C 48.67 65.08 47.64 65.18 46.61 65.27 Z" />
<path fill="#2c8c19" opacity="1.00" d=" M 21.61 64.06 C 23.14 63.44 24.67 62.82 26.20 62.21 C 28.07 66.89 30.62 71.26 33.35 75.50 C 30.94 75.29 27.73 76.26 26.21 73.80 C 23.94 70.95 22.87 67.41 21.61 64.06 Z" />
<path fill="#ffffff" opacity="1.00" d=" M 42.31 62.49 C 44.11 62.83 42.93 66.52 41.32 66.17 C 40.49 65.05 41.08 63.08 42.31 62.49 Z" />
<path fill="#b3b3b3" opacity="1.00" d=" M 45.15 62.09 C 46.56 61.66 47.03 62.14 46.59 63.54 C 45.18 63.97 44.71 63.49 45.15 62.09 Z" />
<path fill="#ffffff" opacity="1.00" d=" M 50.28 73.51 C 50.72 70.14 51.62 66.84 53.09 63.78 C 54.36 66.70 55.41 69.72 56.38 72.75 C 54.35 73.02 52.32 73.28 50.28 73.51 Z" />
<path fill="#b3b3b3" opacity="1.00" d=" M 10.62 71.86 C 12.75 69.63 15.07 67.61 17.53 65.76 C 18.92 68.98 20.32 72.19 21.72 75.41 C 17.90 74.67 14.14 73.56 10.62 71.86 Z" />
<path fill="#2e9819" opacity="1.00" d=" M 38.65 83.62 C 48.57 82.76 58.48 81.73 68.18 79.40 C 59.99 86.09 48.39 87.59 38.65 83.62 Z" />
</svg>
