<?xml version="1.0" encoding="UTF-8" ?>
<!DOCTYPE svg PUBLIC "-//W3C//DTD SVG 1.1//EN" "http://www.w3.org/Graphics/SVG/1.1/DTD/svg11.dtd">
<svg width="100pt" height="100pt" viewBox="0 0 100 100" version="1.1" xmlns="http://www.w3.org/2000/svg">
<path fill="#bababa" opacity="1.00" d=" M 3.14 18.27 C 3.34 14.60 3.27 9.17 8.01 8.52 C 10.44 9.42 11.73 11.83 13.36 13.67 C 15.30 16.41 19.11 16.42 21.46 18.67 C 22.47 20.63 22.42 22.93 22.83 25.06 C 26.48 24.01 29.93 22.26 32.80 19.77 C 35.13 17.50 33.50 12.27 37.37 11.48 C 40.49 10.70 43.67 9.54 46.91 9.80 C 50.02 10.83 52.50 13.09 55.27 14.75 C 59.58 17.74 64.93 18.72 69.20 21.79 C 71.68 23.35 73.84 25.73 76.91 26.02 C 79.81 26.83 84.36 26.43 85.08 30.23 C 86.45 32.99 84.01 35.19 82.50 37.22 C 84.19 41.91 85.18 46.82 85.57 51.79 C 88.91 51.18 93.34 48.65 95.98 52.04 C 98.00 54.41 95.25 57.09 94.35 59.34 C 91.54 63.75 90.90 69.11 88.38 73.62 C 85.39 76.14 82.56 72.74 80.47 70.80 C 76.98 74.53 73.75 78.62 69.41 81.43 C 66.48 83.45 63.08 84.57 59.84 85.98 C 56.57 87.27 55.02 91.48 51.17 91.55 C 48.17 92.25 45.19 91.07 43.08 88.93 C 40.06 85.85 35.80 84.79 32.15 82.74 C 29.41 81.27 26.93 79.10 23.76 78.63 C 18.00 77.58 11.73 76.87 7.10 72.91 C 4.32 70.64 2.85 66.69 4.08 63.22 C 5.57 58.74 9.92 56.26 13.60 53.75 C 13.74 48.43 14.63 43.16 16.17 38.07 C 11.89 35.58 9.42 31.22 6.80 27.20 C 5.13 24.46 2.69 21.71 3.14 18.27 M 6.07 11.16 C 5.64 14.71 4.21 18.63 6.00 22.02 C 9.46 28.03 13.04 34.56 19.71 37.50 C 17.97 43.04 16.95 48.77 16.63 54.56 C 12.74 56.89 8.09 59.00 6.16 63.39 C 4.86 66.26 6.18 69.62 8.56 71.47 C 13.25 75.30 19.53 75.83 25.29 76.74 C 30.19 77.36 34.31 80.30 38.70 82.34 C 42.01 83.85 43.71 87.35 46.70 89.27 C 48.88 90.14 51.42 89.68 53.52 88.79 C 54.71 87.34 55.27 85.52 56.02 83.83 C 59.12 82.74 62.29 81.75 65.21 80.21 C 71.58 77.13 75.07 69.98 82.19 68.17 C 83.41 69.95 84.68 71.69 86.02 73.39 C 89.28 67.09 91.06 60.12 94.79 54.03 C 94.16 53.40 93.54 52.76 92.92 52.12 C 89.43 52.96 85.93 53.73 82.40 54.40 C 82.32 49.25 81.34 44.19 79.89 39.27 C 78.38 35.40 85.42 33.28 82.61 29.43 C 79.72 28.06 76.44 28.69 73.37 28.21 C 71.16 27.45 69.43 25.76 67.46 24.55 C 63.84 22.02 59.41 20.89 55.99 18.04 C 53.06 15.83 50.25 13.27 46.78 11.96 C 43.38 11.74 40.13 13.23 36.82 13.83 C 36.40 17.31 36.63 21.99 32.85 23.70 C 29.44 25.32 25.58 27.27 21.73 26.38 C 20.08 24.61 20.53 21.76 19.37 19.67 C 17.41 18.50 15.11 18.02 13.23 16.72 C 11.45 15.05 10.19 12.91 8.78 10.94 C 8.10 11.00 6.75 11.10 6.07 11.16 Z" />
<path fill="#1a1a1a" opacity="1.00" d=" M 6.07 11.16 C 6.75 11.10 8.10 11.00 8.78 10.94 C 10.19 12.91 11.45 15.05 13.23 16.72 C 15.11 18.02 17.41 18.50 19.37 19.67 C 20.53 21.76 20.08 24.61 21.73 26.38 C 25.58 27.27 29.44 25.32 32.85 23.70 C 36.63 21.99 36.40 17.31 36.82 13.83 C 40.13 13.23 43.38 11.74 46.78 11.96 C 50.25 13.27 53.06 15.83 55.99 18.04 C 59.41 20.89 63.84 22.02 67.46 24.55 C 69.43 25.76 71.16 27.45 73.37 28.21 C 76.44 28.69 79.72 28.06 82.61 29.43 C 85.42 33.28 78.38 35.40 79.89 39.27 C 81.34 44.19 82.32 49.25 82.40 54.40 C 85.93 53.73 89.43 52.96 92.92 52.12 C 93.54 52.76 94.16 53.40 94.79 54.03 C 91.06 60.12 89.28 67.09 86.02 73.39 C 84.68 71.69 83.41 69.95 82.19 68.17 C 75.07 69.98 71.58 77.13 65.21 80.21 C 62.29 81.75 59.12 82.74 56.02 83.83 C 55.27 85.52 54.71 87.34 53.52 88.79 C 51.42 89.68 48.88 90.14 46.70 89.27 C 43.71 87.35 42.01 83.85 38.70 82.34 C 34.31 80.30 30.19 77.36 25.29 76.74 C 19.53 75.83 13.25 75.30 8.56 71.47 C 6.18 69.62 4.86 66.26 6.16 63.39 C 8.09 59.00 12.74 56.89 16.63 54.56 C 16.95 48.77 17.97 43.04 19.71 37.50 C 13.04 34.56 9.46 28.03 6.00 22.02 C 4.21 18.63 5.64 14.71 6.07 11.16 M 7.74 13.50 C 7.60 16.23 6.55 19.30 8.20 21.78 C 10.49 25.69 13.11 29.40 15.65 33.14 C 15.12 30.69 14.55 28.24 14.15 25.76 C 16.78 29.81 17.93 35.89 23.48 36.92 C 26.59 36.09 29.70 35.05 32.99 35.54 C 32.69 32.75 32.71 29.06 29.79 27.64 C 26.62 28.07 23.49 28.76 20.30 29.04 C 19.02 26.56 17.84 24.02 17.27 21.29 C 12.89 20.42 10.22 16.90 7.74 13.50 M 37.81 16.15 C 38.57 16.75 39.32 17.35 40.07 17.96 C 43.49 17.06 47.07 16.87 50.18 18.84 C 48.13 18.74 46.10 18.51 44.06 18.29 C 44.13 19.47 44.20 20.64 44.28 21.82 C 48.83 23.62 53.59 24.82 58.47 25.24 C 56.00 19.92 51.21 16.22 45.96 13.88 C 43.22 14.57 40.62 15.73 37.81 16.15 M 38.08 20.25 C 38.62 21.21 39.17 22.17 39.73 23.12 C 39.18 23.73 38.63 24.34 38.08 24.96 C 40.58 25.71 43.14 26.38 45.46 27.60 C 50.67 29.79 49.55 38.57 44.09 39.76 C 42.50 38.94 41.12 37.82 39.69 36.78 C 41.15 35.91 42.58 34.99 44.00 34.05 C 40.23 34.33 36.02 33.57 32.77 36.01 C 34.76 36.36 36.78 36.53 38.79 36.63 C 40.72 39.33 42.75 41.96 44.67 44.67 C 47.72 43.71 51.21 45.01 53.97 43.09 C 57.38 41.24 59.99 38.37 62.62 35.59 C 64.72 33.35 67.98 34.76 70.63 34.68 C 70.51 35.94 70.39 37.20 70.28 38.47 C 72.43 37.94 75.12 38.08 76.61 36.14 C 78.13 34.35 79.66 32.57 81.30 30.89 C 74.74 30.37 68.21 31.85 61.64 31.59 C 60.24 29.88 58.99 27.98 57.19 26.66 C 54.62 25.30 51.57 25.83 48.84 25.01 C 45.07 23.87 41.66 21.86 38.08 20.25 M 59.53 23.84 C 60.85 28.07 65.40 28.81 69.21 29.15 C 66.55 26.49 63.24 24.57 59.53 23.84 M 32.03 28.76 C 33.73 30.44 35.36 32.31 37.52 33.40 C 39.18 33.76 40.86 33.12 42.51 32.92 C 42.63 31.29 42.72 29.67 42.85 28.04 C 44.21 31.21 45.01 34.57 46.20 37.79 C 48.24 34.80 48.65 29.91 44.81 28.14 C 40.87 25.23 35.80 25.99 32.03 28.76 M 22.84 40.85 C 20.81 44.63 21.20 49.11 21.07 53.25 C 22.46 52.59 23.90 51.99 25.18 51.13 C 26.98 46.50 27.77 41.51 29.68 36.90 C 27.34 38.08 24.64 38.88 22.84 40.85 M 72.31 40.26 C 73.35 45.14 73.95 50.11 74.17 55.10 C 75.79 55.01 77.41 54.92 79.04 54.83 C 79.32 49.53 78.65 44.22 76.92 39.19 C 75.38 39.54 73.85 39.90 72.31 40.26 M 50.28 46.96 C 51.10 51.31 49.30 55.46 48.30 59.62 C 50.58 59.94 51.91 58.24 53.07 56.58 C 54.99 57.40 56.95 58.09 58.92 58.76 C 57.04 59.78 55.16 60.79 53.29 61.83 C 53.46 60.79 53.62 59.75 53.77 58.71 C 51.48 60.15 48.88 61.09 46.77 62.80 C 45.31 64.48 44.42 66.55 43.40 68.50 C 45.35 68.10 47.36 67.86 49.23 67.16 C 50.81 65.70 52.06 63.94 53.50 62.34 C 53.17 64.13 52.76 65.91 52.38 67.70 C 55.38 66.93 58.65 66.31 60.98 64.11 C 62.01 62.59 62.56 60.80 63.23 59.11 C 61.40 58.19 59.60 57.22 57.84 56.18 C 58.91 55.62 59.97 55.07 61.03 54.52 C 61.83 54.93 62.64 55.34 63.45 55.74 C 61.36 50.92 59.09 45.99 59.58 40.58 C 56.37 42.55 53.34 44.77 50.28 46.96 M 45.54 50.77 C 46.87 51.06 48.20 51.35 49.53 51.64 C 49.08 49.30 48.62 46.95 48.11 44.62 C 45.95 45.96 45.65 48.46 45.54 50.77 M 44.12 50.92 C 43.78 53.30 43.50 55.68 43.24 58.06 C 43.61 58.19 44.33 58.44 44.69 58.57 C 44.81 60.00 44.91 61.43 45.05 62.86 C 46.89 60.08 48.13 56.99 49.15 53.84 C 47.48 52.87 45.81 51.88 44.12 50.92 M 10.20 61.18 C 7.95 63.02 6.70 66.66 8.97 68.99 C 13.18 73.26 19.59 73.84 25.22 74.68 C 45.08 76.60 65.71 74.04 83.76 65.20 C 84.35 66.78 84.95 68.36 85.55 69.94 C 87.46 64.62 89.58 59.38 92.17 54.36 C 86.90 55.86 81.49 56.82 76.02 57.16 C 77.04 58.18 78.07 59.20 79.09 60.23 C 62.73 69.40 43.50 72.27 24.96 71.65 C 19.99 71.21 14.28 70.97 10.47 67.36 C 8.47 65.71 10.67 63.31 11.92 61.93 C 17.30 57.01 24.55 55.15 31.01 52.11 C 23.64 53.84 15.99 56.07 10.20 61.18 M 21.82 58.06 C 23.28 61.99 24.48 66.38 27.79 69.20 C 29.91 69.93 32.21 69.61 34.41 69.68 C 31.05 65.65 28.23 61.18 26.37 56.25 C 24.85 56.85 23.33 57.46 21.82 58.06 M 73.00 57.88 C 72.62 59.21 72.24 60.54 71.86 61.87 C 72.96 61.25 74.06 60.62 75.16 60.00 C 74.44 59.30 73.72 58.59 73.00 57.88 M 11.85 65.11 C 13.20 68.88 18.57 68.33 21.85 69.36 C 20.52 66.20 19.15 63.05 17.76 59.91 C 15.66 61.48 13.47 63.01 11.85 65.11 M 61.66 76.97 C 64.08 76.11 66.31 74.80 68.24 73.10 C 65.66 73.63 63.17 74.70 61.66 76.97 M 51.94 76.85 C 54.36 78.82 57.27 79.98 60.42 79.32 C 60.43 78.30 60.45 76.24 60.46 75.21 C 57.61 75.68 54.75 76.17 51.94 76.85 M 44.49 76.93 C 44.74 79.59 44.62 82.27 44.31 84.93 C 46.52 87.69 49.87 87.59 53.00 86.83 C 53.06 84.39 53.52 81.94 53.19 79.52 C 51.89 76.05 47.35 77.61 44.49 76.93 Z" />
<path fill="#ffffff" opacity="1.00" d=" M 7.74 13.50 C 10.22 16.90 12.89 20.42 17.27 21.29 C 17.84 24.02 19.02 26.56 20.30 29.04 C 23.49 28.76 26.62 28.07 29.79 27.64 C 32.71 29.06 32.69 32.75 32.99 35.54 C 29.70 35.05 26.59 36.09 23.48 36.92 C 17.93 35.89 16.78 29.81 14.15 25.76 C 14.55 28.24 15.12 30.69 15.65 33.14 C 13.11 29.40 10.49 25.69 8.20 21.78 C 6.55 19.30 7.60 16.23 7.74 13.50 M 23.20 31.33 C 22.22 31.69 21.52 33.72 22.95 33.95 C 24.74 34.21 25.39 30.47 23.20 31.33 Z" />
<path fill="#ffffff" opacity="1.00" d=" M 37.81 16.15 C 40.62 15.73 43.22 14.57 45.96 13.88 C 51.21 16.22 56.00 19.92 58.47 25.24 C 53.59 24.82 48.83 23.62 44.28 21.82 C 44.20 20.64 44.13 19.47 44.06 18.29 C 46.10 18.51 48.13 18.74 50.18 18.84 C 47.07 16.87 43.49 17.06 40.07 17.96 C 39.32 17.35 38.57 16.75 37.81 16.15 Z" />
<path fill="#ffffff" opacity="1.00" d=" M 38.08 20.25 C 41.66 21.86 45.07 23.87 48.84 25.01 C 51.57 25.83 54.62 25.30 57.19 26.66 C 58.99 27.98 60.24 29.88 61.64 31.59 C 68.21 31.85 74.74 30.37 81.30 30.89 C 79.66 32.57 78.13 34.35 76.61 36.14 C 75.12 38.08 72.43 37.94 70.28 38.47 C 70.39 37.20 70.51 35.94 70.63 34.68 C 67.98 34.76 64.72 33.35 62.62 35.59 C 59.99 38.37 57.38 41.24 53.97 43.09 C 51.21 45.01 47.72 43.71 44.67 44.67 C 42.75 41.96 40.72 39.33 38.79 36.63 C 36.78 36.53 34.76 36.36 32.77 36.01 C 36.02 33.57 40.23 34.33 44.00 34.05 C 42.58 34.99 41.15 35.91 39.69 36.78 C 41.12 37.82 42.50 38.94 44.09 39.76 C 49.55 38.57 50.67 29.79 45.46 27.60 C 43.14 26.38 40.58 25.71 38.08 24.96 C 38.63 24.34 39.18 23.73 39.73 23.12 C 39.17 22.17 38.62 21.21 38.08 20.25 Z" />
<path fill="#bd1c2f" opacity="1.00" d=" M 59.53 23.84 C 63.24 24.57 66.55 26.49 69.21 29.15 C 65.40 28.81 60.85 28.07 59.53 23.84 Z" />
<path fill="#ffffff" opacity="1.00" d=" M 32.03 28.76 C 35.80 25.99 40.87 25.23 44.81 28.14 C 48.65 29.91 48.24 34.80 46.20 37.79 C 45.01 34.57 44.21 31.21 42.85 28.04 C 42.72 29.67 42.63 31.29 42.51 32.92 C 40.86 33.12 39.18 33.76 37.52 33.40 C 35.36 32.31 33.73 30.44 32.03 28.76 Z" />
<path fill="#1a1a1a" opacity="1.00" d=" M 23.20 31.33 C 25.39 30.47 24.74 34.21 22.95 33.95 C 21.52 33.72 22.22 31.69 23.20 31.33 Z" />
<path fill="#ba1c2f" opacity="1.00" d=" M 22.84 40.85 C 24.64 38.88 27.34 38.08 29.68 36.90 C 27.77 41.51 26.98 46.50 25.18 51.13 C 23.90 51.99 22.46 52.59 21.07 53.25 C 21.20 49.11 20.81 44.63 22.84 40.85 Z" />
<path fill="#bd1c2f" opacity="1.00" d=" M 72.31 40.26 C 73.85 39.90 75.38 39.54 76.92 39.19 C 78.65 44.22 79.32 49.53 79.04 54.83 C 77.41 54.92 75.79 55.01 74.17 55.10 C 73.95 50.11 73.35 45.14 72.31 40.26 Z" />
<path fill="#ffffff" opacity="1.00" d=" M 50.28 46.96 C 53.34 44.77 56.37 42.55 59.58 40.58 C 59.09 45.99 61.36 50.92 63.45 55.74 C 62.64 55.34 61.83 54.93 61.03 54.52 C 59.97 55.07 58.91 55.62 57.84 56.18 C 59.60 57.22 61.40 58.19 63.23 59.11 C 62.56 60.80 62.01 62.59 60.98 64.11 C 58.65 66.31 55.38 66.93 52.38 67.70 C 52.76 65.91 53.17 64.13 53.50 62.34 C 52.06 63.94 50.81 65.70 49.23 67.16 C 47.36 67.86 45.35 68.10 43.40 68.50 C 44.42 66.55 45.31 64.48 46.77 62.80 C 48.88 61.09 51.48 60.15 53.77 58.71 C 53.62 59.75 53.46 60.79 53.29 61.83 C 55.16 60.79 57.04 59.78 58.92 58.76 C 56.95 58.09 54.99 57.40 53.07 56.58 C 51.91 58.24 50.58 59.94 48.30 59.62 C 49.30 55.46 51.10 51.31 50.28 46.96 Z" />
<path fill="#ffffff" opacity="1.00" d=" M 45.54 50.77 C 45.65 48.46 45.95 45.96 48.11 44.62 C 48.62 46.95 49.08 49.30 49.53 51.64 C 48.20 51.35 46.87 51.06 45.54 50.77 Z" />
<path fill="#e8e8e8" opacity="1.00" d=" M 44.12 50.92 C 45.81 51.88 47.48 52.87 49.15 53.84 C 48.13 56.99 46.89 60.08 45.05 62.86 C 44.91 61.43 44.81 60.00 44.69 58.57 C 44.33 58.44 43.61 58.19 43.24 58.06 C 43.50 55.68 43.78 53.30 44.12 50.92 Z" />
<path fill="#edac49" opacity="1.00" d=" M 10.20 61.18 C 15.99 56.07 23.64 53.84 31.01 52.11 C 24.55 55.15 17.30 57.01 11.92 61.93 C 10.67 63.31 8.47 65.71 10.47 67.36 C 14.28 70.97 19.99 71.21 24.96 71.65 C 43.50 72.27 62.73 69.40 79.09 60.23 C 78.07 59.20 77.04 58.18 76.02 57.16 C 81.49 56.82 86.90 55.86 92.17 54.36 C 89.58 59.38 87.46 64.62 85.55 69.94 C 84.95 68.36 84.35 66.78 83.76 65.20 C 65.71 74.04 45.08 76.60 25.22 74.68 C 19.59 73.84 13.18 73.26 8.97 68.99 C 6.70 66.66 7.95 63.02 10.20 61.18 Z" />
<path fill="#b61c2e" opacity="1.00" d=" M 21.82 58.06 C 23.33 57.46 24.85 56.85 26.37 56.25 C 28.23 61.18 31.05 65.65 34.41 69.68 C 32.21 69.61 29.91 69.93 27.79 69.20 C 24.48 66.38 23.28 61.99 21.82 58.06 Z" />
<path fill="#bd1c2f" opacity="1.00" d=" M 73.00 57.88 C 73.72 58.59 74.44 59.30 75.16 60.00 C 74.06 60.62 72.96 61.25 71.86 61.87 C 72.24 60.54 72.62 59.21 73.00 57.88 Z" />
<path fill="#b4b4b4" opacity="1.00" d=" M 11.85 65.11 C 13.47 63.01 15.66 61.48 17.76 59.91 C 19.15 63.05 20.52 66.20 21.85 69.36 C 18.57 68.33 13.20 68.88 11.85 65.11 Z" />
<path fill="#bd1c2f" opacity="1.00" d=" M 61.66 76.97 C 63.17 74.70 65.66 73.63 68.24 73.10 C 66.31 74.80 64.08 76.11 61.66 76.97 Z" />
<path fill="#ffffff" opacity="1.00" d=" M 51.94 76.85 C 54.75 76.17 57.61 75.68 60.46 75.21 C 60.45 76.24 60.43 78.30 60.42 79.32 C 57.27 79.98 54.36 78.82 51.94 76.85 Z" />
<path fill="#ffffff" opacity="1.00" d=" M 44.49 76.93 C 47.35 77.61 51.89 76.05 53.19 79.52 C 53.52 81.94 53.06 84.39 53.00 86.83 C 49.87 87.59 46.52 87.69 44.31 84.93 C 44.62 82.27 44.74 79.59 44.49 76.93 Z" />
</svg>
