<?xml version="1.0" encoding="UTF-8" ?>
<!DOCTYPE svg PUBLIC "-//W3C//DTD SVG 1.1//EN" "http://www.w3.org/Graphics/SVG/1.1/DTD/svg11.dtd">
<svg width="100pt" height="100pt" viewBox="0 0 100 100" version="1.1" xmlns="http://www.w3.org/2000/svg">
<path fill="#b9b9b9" opacity="1.00" d=" M 71.54 10.44 C 73.71 9.23 76.77 10.68 77.15 13.16 C 77.96 18.03 74.21 22.02 73.66 26.66 C 76.58 30.61 79.93 34.26 82.19 38.66 C 85.29 38.26 90.12 36.40 91.47 40.51 C 92.77 44.22 88.40 45.56 86.08 47.22 C 84.14 48.06 85.13 50.46 84.82 52.09 C 88.73 52.83 95.29 50.52 96.44 55.96 C 95.45 58.94 93.68 61.58 92.44 64.45 C 90.51 68.52 89.86 73.26 86.71 76.67 C 84.22 79.71 82.32 84.34 77.83 84.67 C 75.20 85.24 72.83 83.85 70.67 82.56 C 64.20 86.67 56.76 89.63 49.00 89.60 C 41.88 89.37 34.91 86.93 29.05 82.93 C 25.64 80.36 21.26 80.33 17.27 79.45 C 11.69 78.28 4.96 75.70 3.50 69.53 C 2.32 64.48 6.40 60.55 9.94 57.67 C 7.99 55.39 4.25 53.02 5.61 49.55 C 7.11 46.31 11.20 47.62 14.01 47.41 C 15.38 41.90 17.32 36.39 20.90 31.89 C 23.72 28.07 27.77 25.43 30.80 21.81 C 32.49 19.82 34.45 17.55 37.31 17.61 C 41.88 17.73 46.46 17.85 51.04 17.85 C 55.33 17.86 59.37 19.73 63.63 19.76 C 67.06 17.38 68.42 13.12 71.54 10.44 M 65.08 21.12 C 61.06 23.56 56.28 21.52 52.02 21.01 C 48.30 20.23 44.46 21.04 40.76 20.18 C 38.97 19.95 36.96 19.11 35.27 20.14 C 33.67 21.32 32.74 23.14 31.61 24.73 C 29.23 28.56 25.33 31.09 22.77 34.78 C 19.68 39.00 18.20 44.09 16.74 49.04 C 13.72 49.35 10.69 49.49 7.66 49.56 C 7.48 50.20 7.12 51.46 6.93 52.10 C 9.45 54.68 12.82 55.91 16.36 56.31 C 12.56 58.75 7.99 60.83 5.93 65.11 C 4.47 68.09 5.86 71.69 8.43 73.57 C 13.94 77.92 21.28 77.79 27.82 79.24 C 32.42 80.65 36.23 83.91 40.94 85.06 C 52.04 88.23 64.72 84.73 72.58 76.27 C 72.59 78.29 71.73 80.95 73.77 82.31 C 77.36 83.84 82.03 81.73 83.23 78.01 C 82.39 75.29 81.63 72.55 80.62 69.89 C 82.60 71.53 84.59 73.16 86.47 74.91 C 88.41 68.01 91.91 61.73 94.30 55.03 C 90.33 54.21 86.26 54.19 82.23 53.82 C 81.91 51.50 81.61 49.18 81.26 46.87 C 84.14 45.54 87.02 44.23 89.89 42.88 C 89.59 41.77 89.28 40.67 88.94 39.58 C 85.96 40.15 82.99 40.79 80.05 41.50 C 77.43 36.50 74.11 31.89 70.01 28.00 C 72.32 22.72 77.08 17.05 74.06 11.08 C 70.52 13.94 68.56 18.24 65.08 21.12 Z" />
<path fill="#191a1a" opacity="1.00" d=" M 65.08 21.12 C 68.56 18.24 70.52 13.94 74.06 11.08 C 77.08 17.05 72.32 22.72 70.01 28.00 C 74.11 31.89 77.43 36.50 80.05 41.50 C 82.99 40.79 85.96 40.15 88.94 39.58 C 89.28 40.67 89.59 41.77 89.89 42.88 C 87.02 44.23 84.14 45.54 81.26 46.87 C 81.61 49.18 81.91 51.50 82.23 53.82 C 86.26 54.19 90.33 54.21 94.30 55.03 C 91.91 61.73 88.41 68.01 86.47 74.91 C 84.59 73.16 82.60 71.53 80.62 69.89 C 81.63 72.55 82.39 75.29 83.23 78.01 C 82.03 81.73 77.36 83.84 73.77 82.31 C 71.73 80.95 72.59 78.29 72.58 76.27 C 64.72 84.73 52.04 88.23 40.94 85.06 C 36.23 83.91 32.42 80.65 27.82 79.24 C 21.28 77.79 13.94 77.92 8.43 73.57 C 5.86 71.69 4.47 68.09 5.93 65.11 C 7.99 60.83 12.56 58.75 16.36 56.31 C 12.82 55.91 9.45 54.68 6.93 52.10 C 7.12 51.46 7.48 50.20 7.66 49.56 C 10.69 49.49 13.72 49.35 16.74 49.04 C 18.20 44.09 19.68 39.00 22.77 34.78 C 25.33 31.09 29.23 28.56 31.61 24.73 C 32.74 23.14 33.67 21.32 35.27 20.14 C 36.96 19.11 38.97 19.95 40.76 20.18 C 44.46 21.04 48.30 20.23 52.02 21.01 C 56.28 21.52 61.06 23.56 65.08 21.12 M 64.50 24.22 C 59.18 25.19 53.14 24.50 48.88 28.50 C 48.81 27.60 48.69 26.71 48.51 25.82 C 49.33 25.32 50.15 24.82 50.98 24.33 C 49.90 23.59 48.80 22.88 47.69 22.19 C 46.25 22.79 44.82 23.39 43.39 24.00 C 41.16 23.13 38.79 20.63 36.32 22.03 C 32.23 23.86 34.34 29.22 34.52 32.65 C 35.65 32.61 36.78 32.57 37.91 32.52 C 37.32 30.65 36.73 28.77 36.18 26.89 C 37.04 27.96 37.89 29.03 38.74 30.11 C 39.51 28.14 40.27 26.18 41.11 24.25 C 40.54 26.45 39.55 28.60 39.48 30.90 C 40.02 33.21 41.63 35.07 43.14 36.82 C 43.01 35.07 42.86 33.33 42.67 31.59 C 43.38 32.73 44.08 33.88 44.83 35.00 C 49.09 33.59 53.13 31.63 57.26 29.89 C 60.38 28.61 64.47 30.90 66.85 27.87 C 70.06 24.08 72.16 19.39 73.41 14.61 C 70.42 17.78 68.46 22.09 64.50 24.22 M 21.02 48.61 C 23.12 47.68 25.67 47.10 26.85 44.92 C 28.81 41.86 30.80 38.82 32.70 35.72 C 34.18 33.84 32.36 31.73 31.84 29.84 C 26.05 34.53 22.26 41.28 21.02 48.61 M 63.92 32.83 C 67.53 36.87 71.39 41.11 76.93 42.28 C 75.11 37.43 71.93 33.27 68.09 29.85 C 66.70 30.84 65.31 31.84 63.92 32.83 M 57.91 31.39 C 60.83 35.12 64.49 38.37 66.06 42.98 C 69.66 43.89 73.04 45.86 76.82 45.87 C 80.41 45.24 83.71 43.57 87.03 42.13 C 82.32 42.83 77.47 44.76 72.72 43.21 C 66.66 40.76 64.02 33.86 57.91 31.39 M 34.70 36.63 C 35.99 36.54 37.28 36.46 38.57 36.39 C 34.64 39.88 29.51 42.77 28.44 48.38 C 22.13 50.80 15.36 51.45 8.66 51.87 C 12.17 53.57 16.10 53.74 19.90 53.09 C 22.70 52.34 25.23 53.91 27.81 54.74 C 30.37 53.28 33.88 51.81 34.10 48.41 C 35.03 46.34 32.40 45.34 31.44 43.87 C 33.33 44.72 35.26 45.49 37.23 46.13 C 36.33 44.73 35.38 43.36 34.41 42.01 C 35.59 42.33 36.76 42.66 37.94 42.98 C 38.88 42.12 39.82 41.26 40.77 40.41 C 43.36 42.21 46.26 43.57 49.32 44.35 C 51.71 43.69 53.90 42.44 56.27 41.70 C 54.03 43.95 51.29 45.59 48.40 46.87 C 50.64 48.74 53.05 50.42 55.30 52.29 C 53.78 51.99 52.23 51.75 50.77 51.20 C 49.06 49.73 47.98 47.70 46.69 45.88 C 45.50 46.16 44.32 46.48 43.14 46.82 C 45.05 49.22 46.79 51.83 49.19 53.79 C 51.33 55.18 53.88 55.75 56.20 56.77 C 54.17 56.55 51.98 56.77 50.07 55.92 C 46.81 53.77 44.58 50.46 42.12 47.51 C 39.45 49.21 36.64 50.69 33.91 52.29 C 36.49 54.32 39.21 56.19 41.84 58.16 C 45.27 60.75 49.46 61.88 53.32 63.65 C 50.04 63.28 46.73 62.68 43.76 61.17 C 40.72 59.64 38.78 56.56 35.66 55.14 C 34.90 57.30 34.25 59.49 33.64 61.69 C 34.75 61.19 35.85 60.69 36.96 60.20 C 41.08 62.32 45.33 64.53 49.99 65.12 C 54.26 65.38 58.59 64.94 62.81 65.88 L 62.27 66.43 C 66.23 66.44 69.81 64.61 72.82 62.17 L 73.72 62.22 C 72.06 56.98 65.57 56.02 63.59 50.99 C 67.07 52.00 70.23 53.80 73.45 55.41 C 76.30 56.90 79.61 56.53 82.71 56.73 C 82.71 56.46 82.72 55.93 82.72 55.66 C 75.17 55.90 68.17 52.27 62.64 47.39 C 58.73 42.95 53.58 39.26 51.92 33.29 C 48.66 34.61 45.48 36.13 42.28 37.61 C 40.74 36.31 39.27 34.93 37.72 33.64 C 36.70 34.62 35.70 35.62 34.70 36.63 M 73.19 47.86 C 73.52 49.48 73.86 51.11 74.20 52.73 C 75.75 52.88 77.30 53.02 78.86 53.15 C 78.83 51.50 78.79 49.86 78.74 48.21 C 76.89 48.10 75.04 47.98 73.19 47.86 M 8.15 65.25 C 6.11 68.09 8.35 71.58 11.07 72.92 C 17.45 76.34 24.92 76.71 32.01 77.18 C 43.61 77.42 55.34 76.56 66.58 73.53 C 72.41 71.99 77.92 69.52 83.47 67.20 C 84.12 68.78 84.77 70.36 85.43 71.94 C 86.98 66.48 89.20 61.23 92.00 56.30 C 86.45 57.81 80.78 58.78 75.04 59.18 C 76.37 60.12 77.71 61.06 79.03 62.01 C 63.27 70.90 44.84 73.95 26.93 73.70 C 21.28 73.37 14.97 73.26 10.32 69.63 C 8.51 68.49 9.56 66.06 10.69 64.82 C 14.36 60.77 19.77 59.09 24.19 56.07 C 18.25 57.68 11.83 60.03 8.15 65.25 M 21.63 60.07 C 22.88 63.41 24.00 66.91 26.23 69.76 C 28.00 72.45 31.61 71.42 34.32 71.68 C 30.90 67.66 28.03 63.17 26.27 58.16 C 24.72 58.79 23.18 59.43 21.63 60.07 M 10.67 67.89 C 14.16 69.67 17.94 70.76 21.79 71.42 C 20.41 68.21 18.99 65.01 17.58 61.81 C 15.10 63.62 12.77 65.64 10.67 67.89 M 38.26 62.55 C 38.74 65.47 39.27 68.39 39.87 71.30 C 41.39 71.07 42.91 70.81 44.42 70.51 C 44.61 68.74 44.81 66.98 45.00 65.21 C 42.74 64.36 40.49 63.48 38.26 62.55 M 74.61 72.83 C 75.00 75.43 74.85 78.05 74.37 80.62 C 76.08 80.41 78.06 80.75 79.49 79.60 C 80.98 78.65 80.73 76.69 81.15 75.20 C 79.79 75.32 78.44 75.43 77.08 75.56 C 77.83 74.41 78.57 73.24 79.34 72.10 C 77.75 72.29 76.18 72.55 74.61 72.83 M 51.23 78.40 C 49.10 78.51 47.38 79.78 45.71 80.98 C 53.37 82.96 61.45 80.41 67.52 75.61 C 62.13 76.76 56.71 77.75 51.23 78.40 M 33.58 79.81 C 37.45 81.01 42.14 82.36 45.61 79.47 C 41.60 79.03 37.56 79.33 33.58 79.81 Z" />
<path fill="#ffffff" opacity="1.00" d=" M 64.50 24.22 C 68.46 22.09 70.42 17.78 73.41 14.61 C 72.16 19.39 70.06 24.08 66.85 27.87 C 64.47 30.90 60.38 28.61 57.26 29.89 C 53.13 31.63 49.09 33.59 44.83 35.00 C 44.08 33.88 43.38 32.73 42.67 31.59 C 42.86 33.33 43.01 35.07 43.14 36.82 C 41.63 35.07 40.02 33.21 39.48 30.90 C 39.55 28.60 40.54 26.45 41.11 24.25 C 40.27 26.18 39.51 28.14 38.74 30.11 C 37.89 29.03 37.04 27.96 36.18 26.89 C 36.73 28.77 37.32 30.65 37.91 32.52 C 36.78 32.57 35.65 32.61 34.52 32.65 C 34.34 29.22 32.23 23.86 36.32 22.03 C 38.79 20.63 41.16 23.13 43.39 24.00 C 44.82 23.39 46.25 22.79 47.69 22.19 C 48.80 22.88 49.90 23.59 50.98 24.33 C 50.15 24.82 49.33 25.32 48.51 25.82 C 48.69 26.71 48.81 27.60 48.88 28.50 C 53.14 24.50 59.18 25.19 64.50 24.22 M 46.33 28.14 C 45.35 28.40 44.01 29.50 44.60 30.62 C 46.22 32.10 49.20 27.92 46.33 28.14 Z" />
<path fill="#939393" opacity="1.00" d=" M 46.33 28.14 C 49.20 27.92 46.22 32.10 44.60 30.62 C 44.01 29.50 45.35 28.40 46.33 28.14 Z" />
<path fill="#b61c2e" opacity="1.00" d=" M 21.02 48.61 C 22.26 41.28 26.05 34.53 31.84 29.84 C 32.36 31.73 34.18 33.84 32.70 35.72 C 30.80 38.82 28.81 41.86 26.85 44.92 C 25.67 47.10 23.12 47.68 21.02 48.61 Z" />
<path fill="#b51c2e" opacity="1.00" d=" M 63.92 32.83 C 65.31 31.84 66.70 30.84 68.09 29.85 C 71.93 33.27 75.11 37.43 76.93 42.28 C 71.39 41.11 67.53 36.87 63.92 32.83 Z" />
<path fill="#ffffff" opacity="1.00" d=" M 57.91 31.39 C 64.02 33.86 66.66 40.76 72.72 43.21 C 77.47 44.76 82.32 42.83 87.03 42.13 C 83.71 43.57 80.41 45.24 76.82 45.87 C 73.04 45.86 69.66 43.89 66.06 42.98 C 64.49 38.37 60.83 35.12 57.91 31.39 Z" />
<path fill="#ffffff" opacity="1.00" d=" M 34.70 36.63 C 35.70 35.62 36.70 34.62 37.72 33.64 C 39.27 34.93 40.74 36.31 42.28 37.61 C 45.48 36.13 48.66 34.61 51.92 33.29 C 53.58 39.26 58.73 42.95 62.64 47.39 C 68.17 52.27 75.17 55.90 82.72 55.66 C 82.72 55.93 82.71 56.46 82.71 56.73 C 79.61 56.53 76.30 56.90 73.45 55.41 C 70.23 53.80 67.07 52.00 63.59 50.99 C 65.57 56.02 72.06 56.98 73.72 62.22 L 72.82 62.17 C 68.95 61.29 65.26 62.88 62.81 65.88 C 58.59 64.94 54.26 65.38 49.99 65.12 C 45.33 64.53 41.08 62.32 36.96 60.20 C 35.85 60.69 34.75 61.19 33.64 61.69 C 34.25 59.49 34.90 57.30 35.66 55.14 C 38.78 56.56 40.72 59.64 43.76 61.17 C 46.73 62.68 50.04 63.28 53.32 63.65 C 49.46 61.88 45.27 60.75 41.84 58.16 C 39.21 56.19 36.49 54.32 33.91 52.29 C 36.64 50.69 39.45 49.21 42.12 47.51 C 44.58 50.46 46.81 53.77 50.07 55.92 C 51.98 56.77 54.17 56.55 56.20 56.77 C 53.88 55.75 51.33 55.18 49.19 53.79 C 46.79 51.83 45.05 49.22 43.14 46.82 C 44.32 46.48 45.50 46.16 46.69 45.88 C 47.98 47.70 49.06 49.73 50.77 51.20 C 52.23 51.75 53.78 51.99 55.30 52.29 C 53.05 50.42 50.64 48.74 48.40 46.87 C 51.29 45.59 54.03 43.95 56.27 41.70 C 53.90 42.44 51.71 43.69 49.32 44.35 C 46.26 43.57 43.36 42.21 40.77 40.41 C 39.82 41.26 38.88 42.12 37.94 42.98 C 36.76 42.66 35.59 42.33 34.41 42.01 C 35.38 43.36 36.33 44.73 37.23 46.13 C 35.26 45.49 33.33 44.72 31.44 43.87 C 32.40 45.34 35.03 46.34 34.10 48.41 C 33.88 51.81 30.37 53.28 27.81 54.74 C 25.23 53.91 22.70 52.34 19.90 53.09 C 16.10 53.74 12.17 53.57 8.66 51.87 C 15.36 51.45 22.13 50.80 28.44 48.38 C 29.51 42.77 34.64 39.88 38.57 36.39 C 37.28 36.46 35.99 36.54 34.70 36.63 M 38.64 51.63 C 42.13 55.34 46.25 58.65 51.17 60.22 C 47.26 57.00 43.14 53.99 38.64 51.63 Z" />
<path fill="#c41c30" opacity="1.00" d=" M 73.19 47.86 C 75.04 47.98 76.89 48.10 78.74 48.21 C 78.79 49.86 78.83 51.50 78.86 53.15 C 77.30 53.02 75.75 52.88 74.20 52.73 C 73.86 51.11 73.52 49.48 73.19 47.86 Z" />
<path fill="#191a1a" opacity="1.00" d=" M 38.64 51.63 C 43.14 53.99 47.26 57.00 51.17 60.22 C 46.25 58.65 42.13 55.34 38.64 51.63 Z" />
<path fill="#ecac49" opacity="1.00" d=" M 8.15 65.25 C 11.83 60.03 18.25 57.68 24.19 56.07 C 19.77 59.09 14.36 60.77 10.69 64.82 C 9.56 66.06 8.51 68.49 10.32 69.63 C 14.97 73.26 21.28 73.37 26.93 73.70 C 44.84 73.95 63.27 70.90 79.03 62.01 C 77.71 61.06 76.37 60.12 75.04 59.18 C 80.78 58.78 86.45 57.81 92.00 56.30 C 89.20 61.23 86.98 66.48 85.43 71.94 C 84.77 70.36 84.12 68.78 83.47 67.20 C 77.92 69.52 72.41 71.99 66.58 73.53 C 55.34 76.56 43.61 77.42 32.01 77.18 C 24.92 76.71 17.45 76.34 11.07 72.92 C 8.35 71.58 6.11 68.09 8.15 65.25 Z" />
<path fill="#b61c2e" opacity="1.00" d=" M 21.63 60.07 C 23.18 59.43 24.72 58.79 26.27 58.16 C 28.03 63.17 30.90 67.66 34.32 71.68 C 31.61 71.42 28.00 72.45 26.23 69.76 C 24.00 66.91 22.88 63.41 21.63 60.07 Z" />
<path fill="#a7a7a7" opacity="1.00" d=" M 62.81 65.88 C 65.26 62.88 68.95 61.29 72.82 62.17 C 69.81 64.61 66.23 66.44 62.27 66.43 L 62.81 65.88 Z" />
<path fill="#b3b3b3" opacity="1.00" d=" M 10.67 67.89 C 12.77 65.64 15.10 63.62 17.58 61.81 C 18.99 65.01 20.41 68.21 21.79 71.42 C 17.94 70.76 14.16 69.67 10.67 67.89 Z" />
<path fill="#ffffff" opacity="1.00" d=" M 38.26 62.55 C 40.49 63.48 42.74 64.36 45.00 65.21 C 44.81 66.98 44.61 68.74 44.42 70.51 C 42.91 70.81 41.39 71.07 39.87 71.30 C 39.27 68.39 38.74 65.47 38.26 62.55 Z" />
<path fill="#ffffff" opacity="1.00" d=" M 74.61 72.83 C 76.18 72.55 77.75 72.29 79.34 72.10 C 78.57 73.24 77.83 74.41 77.08 75.56 C 78.44 75.43 79.79 75.32 81.15 75.20 C 80.73 76.69 80.98 78.65 79.49 79.60 C 78.06 80.75 76.08 80.41 74.37 80.62 C 74.85 78.05 75.00 75.43 74.61 72.83 Z" />
<path fill="#c91c30" opacity="1.00" d=" M 51.23 78.40 C 56.71 77.75 62.13 76.76 67.52 75.61 C 61.45 80.41 53.37 82.96 45.71 80.98 C 47.38 79.78 49.10 78.51 51.23 78.40 Z" />
<path fill="#ffffff" opacity="1.00" d=" M 33.58 79.81 C 37.56 79.33 41.60 79.03 45.61 79.47 C 42.14 82.36 37.45 81.01 33.58 79.81 Z" />
</svg>
