<?xml version="1.0" encoding="UTF-8" ?>
<!DOCTYPE svg PUBLIC "-//W3C//DTD SVG 1.1//EN" "http://www.w3.org/Graphics/SVG/1.1/DTD/svg11.dtd">
<svg width="100pt" height="100pt" viewBox="0 0 100 100" version="1.1" xmlns="http://www.w3.org/2000/svg">
<path fill="#b9b9b9" opacity="1.00" d=" M 12.28 9.28 C 13.31 6.66 16.72 4.96 19.15 6.84 C 25.50 10.59 25.17 18.75 27.45 24.92 C 34.40 24.41 39.98 18.91 46.98 18.55 C 52.20 18.99 57.48 19.62 62.46 21.35 C 67.45 23.07 71.52 26.57 76.28 28.77 C 77.85 29.68 80.05 30.37 80.33 32.45 C 82.00 39.82 86.00 46.56 86.07 54.29 C 88.63 53.84 91.19 53.05 93.82 53.16 C 96.00 53.70 97.47 56.34 96.34 58.41 C 94.40 62.75 91.84 66.84 90.66 71.49 C 89.86 73.61 89.56 76.74 86.84 77.22 C 84.22 77.88 82.62 75.17 80.85 73.75 C 78.05 77.29 75.26 80.92 71.58 83.60 C 67.44 86.77 62.37 88.30 57.91 90.93 C 55.72 92.19 53.09 93.52 50.58 92.26 C 44.81 89.68 38.15 89.64 32.74 86.19 C 29.80 84.59 27.35 81.89 23.91 81.39 C 18.17 80.36 11.93 79.61 7.32 75.68 C 4.75 73.41 2.64 69.64 4.14 66.21 C 5.75 61.47 10.35 58.90 14.27 56.28 C 14.44 51.65 14.88 46.97 16.59 42.63 C 17.10 40.67 18.55 38.57 17.45 36.57 C 16.48 33.68 13.61 32.18 11.94 29.79 C 11.37 26.55 15.00 23.76 13.48 20.52 C 12.51 16.92 9.93 12.88 12.28 9.28 M 13.36 12.86 C 13.96 16.62 15.65 20.08 16.80 23.67 C 15.73 25.31 14.25 26.83 13.88 28.81 C 16.78 31.72 19.47 34.80 21.77 38.21 C 19.31 43.48 17.61 49.09 17.52 54.94 C 17.74 57.74 14.58 58.46 12.79 59.81 C 9.23 61.84 5.21 65.25 5.98 69.82 C 7.05 74.51 11.99 76.65 16.16 77.87 C 21.61 79.67 27.90 78.77 32.72 82.33 C 36.41 84.85 40.68 86.25 45.04 87.12 C 47.75 87.60 49.87 89.48 52.34 90.55 C 54.81 90.92 56.71 88.88 58.58 87.61 C 61.81 84.96 65.90 83.73 69.27 81.29 C 73.86 78.10 76.56 72.35 82.39 71.04 C 83.56 72.71 84.77 74.35 86.04 75.94 C 88.92 72.32 89.44 67.57 91.59 63.58 C 92.81 60.81 95.11 58.12 94.18 54.90 C 90.44 55.57 86.73 56.40 83.01 57.15 C 82.76 52.49 82.26 47.80 80.54 43.43 C 79.17 39.97 79.12 36.20 78.28 32.62 C 75.40 29.85 71.21 29.05 67.73 27.22 C 61.04 23.71 53.61 21.98 46.28 20.46 C 42.86 21.86 39.93 24.25 36.43 25.52 C 33.17 27.08 29.51 27.12 25.97 27.14 C 24.67 22.99 23.75 18.74 22.53 14.57 C 21.76 11.67 19.69 9.13 16.90 7.96 C 14.68 8.25 13.31 10.79 13.36 12.86 Z" />
<path fill="#1a1a1a" opacity="1.00" d=" M 13.36 12.86 C 13.31 10.79 14.68 8.25 16.90 7.96 C 19.69 9.13 21.76 11.67 22.53 14.57 C 23.75 18.74 24.67 22.99 25.97 27.14 C 29.51 27.12 33.17 27.08 36.43 25.52 C 39.93 24.25 42.86 21.86 46.28 20.46 C 53.61 21.98 61.04 23.71 67.73 27.22 C 71.21 29.05 75.40 29.85 78.28 32.62 C 79.12 36.20 79.17 39.97 80.54 43.43 C 82.26 47.80 82.76 52.49 83.01 57.15 C 86.73 56.40 90.44 55.57 94.18 54.90 C 95.11 58.12 92.81 60.81 91.59 63.58 C 89.44 67.57 88.92 72.32 86.04 75.94 C 84.77 74.35 83.56 72.71 82.39 71.04 C 76.56 72.35 73.86 78.10 69.27 81.29 C 65.90 83.73 61.81 84.96 58.58 87.61 C 56.71 88.88 54.81 90.92 52.34 90.55 C 49.87 89.48 47.75 87.60 45.04 87.12 C 40.68 86.25 36.41 84.85 32.72 82.33 C 27.90 78.77 21.61 79.67 16.16 77.87 C 11.99 76.65 7.05 74.51 5.98 69.82 C 5.21 65.25 9.23 61.84 12.79 59.81 C 14.58 58.46 17.74 57.74 17.52 54.94 C 17.61 49.09 19.31 43.48 21.77 38.21 C 19.47 34.80 16.78 31.72 13.88 28.81 C 14.25 26.83 15.73 25.31 16.80 23.67 C 15.65 20.08 13.96 16.62 13.36 12.86 M 16.19 14.65 C 17.54 19.48 19.67 24.04 21.36 28.76 C 19.50 28.22 17.64 27.68 15.74 27.27 C 17.35 28.87 19.22 30.16 21.15 31.35 C 21.05 33.86 22.64 35.61 24.63 36.90 C 25.47 35.95 26.31 35.00 27.15 34.05 C 28.66 34.73 30.17 35.41 31.69 36.07 C 32.19 35.01 32.71 33.96 33.24 32.91 L 33.71 32.91 C 35.08 35.90 38.05 37.93 41.38 37.86 C 41.64 38.37 42.16 39.39 42.42 39.91 C 42.84 42.11 44.06 44.07 44.92 46.12 C 48.46 46.18 51.85 47.19 55.18 48.27 C 55.62 44.13 54.82 39.77 56.56 35.85 C 56.44 37.56 56.24 39.27 56.01 40.98 C 58.68 44.28 61.57 47.40 64.98 49.95 C 67.82 48.90 71.01 47.96 72.82 45.34 C 73.68 44.21 75.34 43.42 75.54 41.94 C 76.60 39.30 77.75 35.85 75.44 33.50 C 72.03 31.22 68.07 29.61 63.99 29.10 C 59.61 28.57 55.51 30.48 51.59 32.16 C 50.76 31.57 49.93 30.99 49.09 30.41 C 48.34 30.79 46.84 31.55 46.09 31.93 C 47.41 33.06 48.63 34.34 50.16 35.19 C 51.75 35.84 52.87 33.97 54.09 33.30 C 54.38 34.15 54.67 35.01 54.96 35.87 C 53.45 36.20 51.94 36.75 50.37 36.68 C 47.68 36.09 46.56 33.28 45.10 31.26 C 46.63 30.35 48.73 30.09 49.79 28.59 C 50.38 26.78 50.59 24.16 48.66 23.08 C 47.45 22.50 45.52 22.39 44.73 23.69 C 43.06 25.37 44.34 27.75 44.57 29.74 C 42.39 29.16 40.14 28.82 37.89 28.66 C 36.65 29.46 35.37 30.22 34.20 31.12 C 34.04 30.76 33.71 30.03 33.55 29.67 C 30.41 29.17 27.22 29.38 24.05 29.28 C 22.66 24.50 21.64 19.62 20.16 14.87 C 19.60 12.91 17.94 11.61 16.63 10.18 C 16.24 11.63 15.57 13.15 16.19 14.65 M 52.33 25.10 C 52.31 25.81 52.27 27.23 52.25 27.94 C 54.95 27.80 57.65 27.46 60.18 26.46 C 57.59 25.85 54.97 25.43 52.33 25.10 M 26.04 38.95 C 22.26 43.46 21.73 49.65 21.27 55.28 C 22.81 54.94 24.44 54.82 25.85 54.06 C 26.79 52.64 26.83 50.85 27.29 49.25 C 28.02 45.24 30.13 41.73 31.86 38.11 C 29.91 37.84 27.43 36.97 26.04 38.95 M 74.52 47.51 C 73.92 50.91 74.40 54.38 74.47 57.80 C 76.20 57.74 77.92 57.67 79.65 57.60 C 79.89 52.88 79.35 48.15 77.83 43.66 C 76.67 44.88 75.29 45.98 74.52 47.51 M 45.18 48.03 C 44.95 48.31 44.51 48.88 44.28 49.16 C 45.10 52.23 48.58 47.40 45.18 48.03 M 49.34 48.18 C 49.48 51.54 52.32 46.64 49.34 48.18 M 52.86 50.80 C 56.34 53.34 59.57 56.50 64.05 57.09 C 61.36 54.18 58.30 51.55 56.28 48.08 C 55.13 48.97 53.99 49.88 52.86 50.80 M 43.80 52.74 C 42.92 56.86 44.12 61.17 43.09 65.33 C 44.46 65.51 45.83 65.70 47.19 65.89 C 47.35 67.62 47.48 69.34 47.61 71.07 C 49.85 70.77 52.09 70.44 54.33 70.11 C 54.07 68.59 53.80 67.07 53.55 65.55 C 54.47 66.72 55.34 67.94 56.36 69.03 C 57.75 69.45 59.19 68.84 60.59 68.72 C 61.00 66.39 61.47 64.00 60.88 61.65 C 61.34 61.43 62.26 60.99 62.72 60.77 C 62.77 60.15 62.86 58.91 62.91 58.29 C 59.67 56.95 56.70 55.07 54.04 52.79 C 53.66 53.27 52.91 54.23 52.53 54.71 C 52.24 53.50 51.96 52.29 51.67 51.09 C 48.94 50.22 45.40 49.69 43.80 52.74 M 12.97 61.95 C 10.64 63.58 7.84 65.75 7.99 68.92 C 8.22 72.41 11.85 74.13 14.71 75.24 C 24.13 78.41 34.25 78.06 44.06 77.82 C 57.81 77.39 71.39 74.04 83.79 68.08 C 84.52 69.51 85.25 70.94 85.99 72.37 C 87.64 67.15 89.83 62.14 92.28 57.25 C 86.98 58.63 81.60 59.68 76.13 60.02 C 77.15 61.01 78.16 62.01 79.17 63.01 C 62.53 72.43 42.88 75.18 24.01 74.31 C 19.22 73.80 13.53 73.55 10.12 69.68 C 9.33 67.32 11.34 65.35 12.98 63.96 C 19.10 59.04 26.87 57.17 33.99 54.20 C 26.66 55.67 19.34 57.93 12.97 61.95 M 22.07 60.95 C 23.39 64.44 24.60 68.09 26.98 71.03 C 28.63 73.51 31.93 72.32 34.40 72.35 C 31.06 68.40 28.48 63.88 26.69 59.02 C 25.15 59.66 23.61 60.30 22.07 60.95 M 73.18 62.08 C 72.71 63.47 73.18 63.96 74.59 63.52 C 75.06 62.13 74.60 61.64 73.18 62.08 M 11.56 68.86 C 14.77 70.68 18.33 71.71 21.99 72.13 C 20.89 68.92 19.56 65.79 18.05 62.74 C 15.50 64.33 13.20 66.32 11.56 68.86 M 59.90 81.06 C 63.48 80.48 66.65 78.63 69.13 76.04 C 65.59 76.68 62.25 78.27 59.90 81.06 M 51.12 79.21 C 51.10 79.89 51.06 81.24 51.05 81.91 C 53.01 81.72 54.97 81.53 56.94 81.32 C 54.29 82.27 51.79 83.64 50.08 85.93 C 51.05 86.79 52.06 87.60 53.11 88.36 C 56.58 87.68 57.45 83.91 58.29 81.01 C 57.49 77.52 53.61 79.30 51.12 79.21 M 38.73 80.41 C 41.84 81.99 45.27 82.72 48.73 83.03 C 48.74 82.27 48.75 80.74 48.76 79.98 C 45.41 79.90 42.06 80.00 38.73 80.41 Z" />
<path fill="#ffffff" opacity="1.00" d=" M 16.19 14.65 C 15.57 13.15 16.24 11.63 16.63 10.18 C 17.94 11.61 19.60 12.91 20.16 14.87 C 21.64 19.62 22.66 24.50 24.05 29.28 C 27.22 29.38 30.41 29.17 33.55 29.67 C 33.71 30.03 34.04 30.76 34.20 31.12 C 33.96 31.57 33.48 32.47 33.24 32.91 C 32.71 33.96 32.19 35.01 31.69 36.07 C 30.17 35.41 28.66 34.73 27.15 34.05 C 26.31 35.00 25.47 35.95 24.63 36.90 C 22.64 35.61 21.05 33.86 21.15 31.35 C 19.22 30.16 17.35 28.87 15.74 27.27 C 17.64 27.68 19.50 28.22 21.36 28.76 C 19.67 24.04 17.54 19.48 16.19 14.65 Z" />
<path fill="#ffffff" opacity="1.00" d=" M 44.73 23.69 C 45.52 22.39 47.45 22.50 48.66 23.08 C 50.59 24.16 50.38 26.78 49.79 28.59 C 48.73 30.09 46.63 30.35 45.10 31.26 C 46.56 33.28 47.68 36.09 50.37 36.68 C 51.94 36.75 53.45 36.20 54.96 35.87 C 54.67 35.01 54.38 34.15 54.09 33.30 C 52.87 33.97 51.75 35.84 50.16 35.19 C 48.63 34.34 47.41 33.06 46.09 31.93 C 46.84 31.55 48.34 30.79 49.09 30.41 C 49.93 30.99 50.76 31.57 51.59 32.16 C 55.51 30.48 59.61 28.57 63.99 29.10 C 68.07 29.61 72.03 31.22 75.44 33.50 C 77.75 35.85 76.60 39.30 75.54 41.94 C 75.51 41.38 75.45 40.24 75.42 39.68 C 75.38 38.51 75.25 37.35 75.02 36.20 C 69.81 31.68 62.53 30.49 55.85 31.47 C 57.07 34.26 58.04 37.16 58.53 40.17 C 62.49 37.37 67.21 39.16 71.14 41.05 C 70.76 41.85 70.38 42.64 70.00 43.44 C 66.59 43.30 63.17 43.39 59.77 43.70 C 61.23 45.15 62.62 46.72 64.35 47.85 C 67.68 48.57 70.39 45.98 72.78 44.08 C 72.79 44.40 72.81 45.02 72.82 45.34 C 71.01 47.96 67.82 48.90 64.98 49.95 C 61.57 47.40 58.68 44.28 56.01 40.98 C 56.24 39.27 56.44 37.56 56.56 35.85 C 54.82 39.77 55.62 44.13 55.18 48.27 C 51.85 47.19 48.46 46.18 44.92 46.12 C 44.06 44.07 42.84 42.11 42.42 39.91 C 42.22 38.00 42.28 36.04 41.79 34.17 C 40.88 32.09 39.24 30.45 37.89 28.66 C 40.14 28.82 42.39 29.16 44.57 29.74 C 44.34 27.75 43.06 25.37 44.73 23.69 Z" />
<path fill="#d11c32" opacity="1.00" d=" M 52.33 25.10 C 54.97 25.43 57.59 25.85 60.18 26.46 C 57.65 27.46 54.95 27.80 52.25 27.94 C 52.27 27.23 52.31 25.81 52.33 25.10 Z" />
<path fill="#7e7e7e" opacity="1.00" d=" M 34.20 31.12 C 35.37 30.22 36.65 29.46 37.89 28.66 C 39.24 30.45 40.88 32.09 41.79 34.17 C 42.28 36.04 42.22 38.00 42.42 39.91 C 42.16 39.39 41.64 38.37 41.38 37.86 C 40.64 36.50 40.05 35.02 38.94 33.91 C 37.48 32.71 35.46 32.99 33.71 32.91 L 33.24 32.91 C 33.48 32.47 33.96 31.57 34.20 31.12 Z" />
<path fill="#1a1a1a" opacity="1.00" d=" M 55.85 31.47 C 62.53 30.49 69.81 31.68 75.02 36.20 C 75.25 37.35 75.38 38.51 75.42 39.68 L 74.59 40.09 C 73.97 38.52 73.20 37.04 72.40 35.57 C 72.37 37.40 72.40 39.22 72.54 41.05 C 72.62 42.06 72.70 43.07 72.78 44.08 C 70.39 45.98 67.68 48.57 64.35 47.85 C 62.62 46.72 61.23 45.15 59.77 43.70 C 63.17 43.39 66.59 43.30 70.00 43.44 C 70.38 42.64 70.76 41.85 71.14 41.05 C 67.21 39.16 62.49 37.37 58.53 40.17 C 58.04 37.16 57.07 34.26 55.85 31.47 Z" />
<path fill="#ffffff" opacity="1.00" d=" M 33.71 32.91 C 35.46 32.99 37.48 32.71 38.94 33.91 C 40.05 35.02 40.64 36.50 41.38 37.86 C 38.05 37.93 35.08 35.90 33.71 32.91 Z" />
<path fill="#ffffff" opacity="1.00" d=" M 72.40 35.57 C 73.20 37.04 73.97 38.52 74.59 40.09 C 74.07 40.33 73.05 40.81 72.54 41.05 C 72.40 39.22 72.37 37.40 72.40 35.57 Z" />
<path fill="#b71c2e" opacity="1.00" d=" M 26.04 38.95 C 27.43 36.97 29.91 37.84 31.86 38.11 C 30.13 41.73 28.02 45.24 27.29 49.25 C 26.83 50.85 26.79 52.64 25.85 54.06 C 24.44 54.82 22.81 54.94 21.27 55.28 C 21.73 49.65 22.26 43.46 26.04 38.95 Z" />
<path fill="#5f5f5f" opacity="1.00" d=" M 74.59 40.09 L 75.42 39.68 C 75.45 40.24 75.51 41.38 75.54 41.94 C 75.34 43.42 73.68 44.21 72.82 45.34 C 72.81 45.02 72.79 44.40 72.78 44.08 C 72.70 43.07 72.62 42.06 72.54 41.05 C 73.05 40.81 74.07 40.33 74.59 40.09 Z" />
<path fill="#b81c2e" opacity="1.00" d=" M 74.52 47.51 C 75.29 45.98 76.67 44.88 77.83 43.66 C 79.35 48.15 79.89 52.88 79.65 57.60 C 77.92 57.67 76.20 57.74 74.47 57.80 C 74.40 54.38 73.92 50.91 74.52 47.51 Z" />
<path fill="#fefefe" opacity="1.00" d=" M 45.18 48.03 C 48.58 47.40 45.10 52.23 44.28 49.16 C 44.51 48.88 44.95 48.31 45.18 48.03 Z" />
<path fill="#ffffff" opacity="1.00" d=" M 49.34 48.18 C 52.32 46.64 49.48 51.54 49.34 48.18 Z" />
<path fill="#ffffff" opacity="1.00" d=" M 52.86 50.80 C 53.99 49.88 55.13 48.97 56.28 48.08 C 58.30 51.55 61.36 54.18 64.05 57.09 C 59.57 56.50 56.34 53.34 52.86 50.80 Z" />
<path fill="#ffffff" opacity="1.00" d=" M 43.80 52.74 C 45.40 49.69 48.94 50.22 51.67 51.09 C 51.96 52.29 52.24 53.50 52.53 54.71 C 52.91 54.23 53.66 53.27 54.04 52.79 C 56.70 55.07 59.67 56.95 62.91 58.29 C 62.86 58.91 62.77 60.15 62.72 60.77 C 62.26 60.99 61.34 61.43 60.88 61.65 C 61.47 64.00 61.00 66.39 60.59 68.72 C 59.19 68.84 57.75 69.45 56.36 69.03 C 55.34 67.94 54.47 66.72 53.55 65.55 C 53.80 67.07 54.07 68.59 54.33 70.11 C 52.09 70.44 49.85 70.77 47.61 71.07 C 47.48 69.34 47.35 67.62 47.19 65.89 C 45.83 65.70 44.46 65.51 43.09 65.33 C 44.12 61.17 42.92 56.86 43.80 52.74 M 49.58 54.12 C 51.11 58.08 53.76 61.46 55.47 65.34 C 55.72 62.43 55.58 59.51 55.55 56.59 C 54.21 56.61 52.88 56.60 51.55 56.61 C 50.90 55.77 50.24 54.94 49.58 54.12 Z" />
<path fill="#efae4a" opacity="1.00" d=" M 12.97 61.95 C 19.34 57.93 26.66 55.67 33.99 54.20 C 26.87 57.17 19.10 59.04 12.98 63.96 C 11.34 65.35 9.33 67.32 10.12 69.68 C 13.53 73.55 19.22 73.80 24.01 74.31 C 42.88 75.18 62.53 72.43 79.17 63.01 C 78.16 62.01 77.15 61.01 76.13 60.02 C 81.60 59.68 86.98 58.63 92.28 57.25 C 89.83 62.14 87.64 67.15 85.99 72.37 C 85.25 70.94 84.52 69.51 83.79 68.08 C 71.39 74.04 57.81 77.39 44.06 77.82 C 34.25 78.06 24.13 78.41 14.71 75.24 C 11.85 74.13 8.22 72.41 7.99 68.92 C 7.84 65.75 10.64 63.58 12.97 61.95 Z" />
<path fill="#1a1a1a" opacity="1.00" d=" M 49.58 54.12 C 50.24 54.94 50.90 55.77 51.55 56.61 C 52.88 56.60 54.21 56.61 55.55 56.59 C 55.58 59.51 55.72 62.43 55.47 65.34 C 53.76 61.46 51.11 58.08 49.58 54.12 Z" />
<path fill="#b61c2e" opacity="1.00" d=" M 22.07 60.95 C 23.61 60.30 25.15 59.66 26.69 59.02 C 28.48 63.88 31.06 68.40 34.40 72.35 C 31.93 72.32 28.63 73.51 26.98 71.03 C 24.60 68.09 23.39 64.44 22.07 60.95 Z" />
<path fill="#c21c30" opacity="1.00" d=" M 73.18 62.08 C 74.60 61.64 75.06 62.13 74.59 63.52 C 73.18 63.96 72.71 63.47 73.18 62.08 Z" />
<path fill="#b3b3b3" opacity="1.00" d=" M 11.56 68.86 C 13.20 66.32 15.50 64.33 18.05 62.74 C 19.56 65.79 20.89 68.92 21.99 72.13 C 18.33 71.71 14.77 70.68 11.56 68.86 Z" />
<path fill="#d11c32" opacity="1.00" d=" M 59.90 81.06 C 62.25 78.27 65.59 76.68 69.13 76.04 C 66.65 78.63 63.48 80.48 59.90 81.06 Z" />
<path fill="#ffffff" opacity="1.00" d=" M 51.12 79.21 C 53.61 79.30 57.49 77.52 58.29 81.01 C 57.45 83.91 56.58 87.68 53.11 88.36 C 52.06 87.60 51.05 86.79 50.08 85.93 C 51.79 83.64 54.29 82.27 56.94 81.32 C 54.97 81.53 53.01 81.72 51.05 81.91 C 51.06 81.24 51.10 79.89 51.12 79.21 Z" />
<path fill="#d11c32" opacity="1.00" d=" M 38.73 80.41 C 42.06 80.00 45.41 79.90 48.76 79.98 C 48.75 80.74 48.74 82.27 48.73 83.03 C 45.27 82.72 41.84 81.99 38.73 80.41 Z" />
</svg>
