<?xml version="1.0" encoding="UTF-8" ?>
<!DOCTYPE svg PUBLIC "-//W3C//DTD SVG 1.1//EN" "http://www.w3.org/Graphics/SVG/1.1/DTD/svg11.dtd">
<svg width="100pt" height="100pt" viewBox="0 0 100 100" version="1.1" xmlns="http://www.w3.org/2000/svg">
<path fill="#bbbbbb" opacity="1.00" d=" M 38.07 10.17 C 38.76 6.86 42.93 6.76 45.57 7.43 C 49.55 8.22 52.07 11.63 54.33 14.70 C 55.95 17.06 58.80 18.18 60.41 20.55 C 61.73 22.41 63.29 24.11 65.34 25.16 C 67.21 22.58 68.79 17.83 72.83 18.80 C 77.27 20.00 74.93 25.22 75.67 28.47 C 75.67 34.08 80.18 37.92 82.15 42.82 C 84.09 47.16 84.69 51.93 85.19 56.61 C 88.46 56.09 92.93 53.36 95.46 56.72 C 97.55 59.09 94.93 61.76 94.03 64.05 C 91.32 68.46 90.55 73.72 88.16 78.25 C 85.21 81.07 82.14 77.44 79.79 75.70 C 77.20 78.76 75.91 82.57 73.91 85.98 C 70.68 88.16 66.47 88.26 62.95 89.94 C 54.15 93.63 43.92 93.59 35.17 89.75 C 31.56 87.97 27.44 89.20 23.67 88.21 C 20.24 87.35 19.52 82.89 16.08 82.08 C 12.34 80.73 8.17 79.67 5.54 76.45 C 3.11 73.76 2.64 69.56 4.42 66.39 C 6.40 62.80 10.09 60.72 13.37 58.48 C 13.22 51.05 15.39 43.85 18.91 37.37 C 17.67 34.81 15.51 31.59 18.01 29.05 C 21.15 26.16 24.38 23.33 27.45 20.36 C 29.62 20.34 31.66 21.28 33.81 21.44 C 35.79 20.99 37.61 20.05 39.48 19.30 C 38.88 16.29 37.90 13.27 38.07 10.17 M 39.61 9.73 C 40.24 13.39 41.20 16.99 42.55 20.45 C 39.27 21.40 36.12 22.91 33.97 25.65 C 32.20 24.32 30.52 22.69 28.32 22.11 C 26.43 23.90 25.29 26.43 22.96 27.74 C 21.40 28.95 19.23 29.87 18.70 31.97 C 19.49 34.21 20.97 36.11 22.20 38.12 C 18.47 44.58 16.46 51.85 16.30 59.30 C 12.67 61.50 8.56 63.48 6.24 67.21 C 4.56 69.85 5.17 73.48 7.45 75.56 C 11.07 79.08 16.29 79.86 20.91 81.36 C 21.44 82.73 21.85 84.18 22.68 85.41 C 25.91 87.91 29.99 85.68 33.59 85.91 C 37.73 87.01 41.62 89.12 45.98 89.39 C 51.40 90.09 56.73 88.65 61.87 87.07 C 65.36 85.92 69.31 86.33 72.59 84.59 C 73.52 82.28 73.33 79.65 74.45 77.42 C 76.13 75.08 79.03 74.19 81.49 72.94 C 82.85 74.86 84.44 76.60 86.59 77.65 C 88.25 72.20 90.25 66.86 92.89 61.80 C 93.87 60.25 93.64 58.44 93.51 56.72 C 89.72 57.54 85.95 58.46 82.15 59.21 C 81.73 54.54 81.45 49.76 79.72 45.34 C 78.16 41.15 75.45 37.55 72.74 34.04 C 73.13 33.05 73.51 32.06 73.89 31.06 C 72.72 28.17 72.92 25.08 73.90 22.16 C 73.36 21.66 72.29 20.67 71.75 20.17 C 68.76 22.47 67.37 28.87 62.64 27.33 C 59.29 26.60 59.46 22.54 57.85 20.18 C 56.42 19.61 54.90 19.34 53.40 19.02 C 52.31 15.68 50.93 12.01 47.54 10.37 C 45.17 8.77 42.24 9.29 39.61 9.73 Z" />
<path fill="#1a1a1a" opacity="1.00" d=" M 39.61 9.73 C 42.24 9.29 45.17 8.77 47.54 10.37 C 50.93 12.01 52.31 15.68 53.40 19.02 C 54.90 19.34 56.42 19.61 57.85 20.18 C 59.46 22.54 59.29 26.60 62.64 27.33 C 67.37 28.87 68.76 22.47 71.75 20.17 C 72.29 20.67 73.36 21.66 73.90 22.16 C 72.92 25.08 72.72 28.17 73.89 31.06 C 73.51 32.06 73.13 33.05 72.74 34.04 C 75.45 37.55 78.16 41.15 79.72 45.34 C 81.45 49.76 81.73 54.54 82.15 59.21 C 85.95 58.46 89.72 57.54 93.51 56.72 C 93.64 58.44 93.87 60.25 92.89 61.80 C 90.25 66.86 88.25 72.20 86.59 77.65 C 84.44 76.60 82.85 74.86 81.49 72.94 C 79.03 74.19 76.13 75.08 74.45 77.42 C 73.33 79.65 73.52 82.28 72.59 84.59 C 69.31 86.33 65.36 85.92 61.87 87.07 C 56.73 88.65 51.40 90.09 45.98 89.39 C 41.62 89.12 37.73 87.01 33.59 85.91 C 29.99 85.68 25.91 87.91 22.68 85.41 C 21.85 84.18 21.44 82.73 20.91 81.36 C 16.29 79.86 11.07 79.08 7.45 75.56 C 5.17 73.48 4.56 69.85 6.24 67.21 C 8.56 63.48 12.67 61.50 16.30 59.30 C 16.46 51.85 18.47 44.58 22.20 38.12 C 20.97 36.11 19.49 34.21 18.70 31.97 C 19.23 29.87 21.40 28.95 22.96 27.74 C 25.29 26.43 26.43 23.90 28.32 22.11 C 30.52 22.69 32.20 24.32 33.97 25.65 C 36.12 22.91 39.27 21.40 42.55 20.45 C 41.20 16.99 40.24 13.39 39.61 9.73 M 42.11 10.72 C 42.47 12.93 42.54 15.26 43.52 17.31 C 45.59 19.41 48.39 20.52 50.95 21.88 C 50.76 19.83 50.80 17.73 50.17 15.75 C 48.38 12.97 45.00 11.94 42.11 10.72 M 51.29 25.07 C 50.34 24.21 49.39 23.35 48.44 22.49 L 49.27 22.02 C 45.19 21.74 41.15 22.67 37.46 24.40 C 36.91 25.77 38.44 25.99 39.32 26.51 C 38.45 27.48 37.50 28.37 36.45 29.15 C 40.70 28.89 44.65 27.23 48.76 26.31 L 49.64 26.52 C 44.94 27.60 40.38 30.87 35.40 29.57 C 32.67 28.01 30.61 25.55 28.03 23.78 C 27.99 25.63 27.14 27.77 28.44 29.38 C 30.29 32.14 33.93 32.68 37.00 32.48 C 41.97 32.06 47.18 30.58 50.59 26.71 L 51.39 26.87 C 52.85 25.51 54.31 24.17 55.79 22.85 C 56.08 23.63 56.65 25.21 56.94 25.99 C 57.22 24.80 57.49 23.60 57.75 22.40 C 56.95 21.89 56.15 21.39 55.35 20.89 C 54.00 22.28 52.65 23.68 51.29 25.07 M 66.61 29.58 C 64.37 31.25 61.94 32.67 59.82 34.51 C 61.36 35.95 62.91 37.38 64.36 38.90 C 62.16 37.87 60.03 36.72 57.84 35.68 C 58.33 40.60 60.95 45.33 60.32 50.32 C 58.16 56.40 52.05 60.20 46.20 62.19 C 43.23 63.56 40.90 60.76 38.77 59.16 C 39.38 61.13 38.96 63.87 41.00 65.05 C 42.68 66.20 44.74 66.96 46.80 66.75 C 49.42 65.91 51.74 64.36 54.18 63.10 C 53.11 64.46 52.03 65.81 50.95 67.16 C 53.81 67.67 56.70 68.44 59.63 68.07 C 61.09 66.01 61.10 63.40 61.46 61.00 C 61.53 62.48 61.72 64.01 62.39 65.36 C 61.19 66.10 60.75 68.98 62.28 69.56 C 63.46 69.02 63.44 67.32 63.10 66.27 C 63.37 66.59 63.91 67.23 64.18 67.55 C 64.14 67.95 64.07 68.74 64.03 69.14 C 65.56 68.70 67.09 68.26 68.63 67.82 C 67.63 62.72 66.80 57.58 65.46 52.55 C 65.50 52.18 65.57 51.43 65.60 51.06 C 65.20 50.73 64.39 50.08 63.99 49.75 C 65.50 46.22 64.05 42.38 64.79 38.75 C 66.05 35.12 69.51 32.96 72.32 30.60 C 71.12 30.61 69.92 30.62 68.73 30.62 C 69.73 28.04 70.87 25.51 71.88 22.92 C 70.19 25.19 68.93 27.87 66.61 29.58 M 50.89 28.53 C 50.45 29.59 50.24 30.71 49.96 31.81 C 45.45 31.20 41.17 32.87 37.16 34.73 C 38.12 37.56 38.14 41.70 41.80 42.32 C 45.97 43.15 50.28 41.58 54.21 40.26 C 56.64 39.72 57.41 37.17 57.49 34.98 C 56.52 32.57 54.25 30.75 53.94 28.08 C 55.29 28.67 56.33 29.74 57.40 30.72 C 57.44 29.59 57.48 28.45 57.52 27.32 C 55.27 27.34 52.91 27.41 50.89 28.53 M 59.29 29.35 C 57.71 30.64 59.97 32.98 61.32 31.45 C 62.90 30.17 60.63 27.83 59.29 29.35 M 22.07 29.44 C 21.93 30.90 20.99 32.58 22.08 33.88 C 23.94 36.80 25.87 39.74 28.31 42.21 C 28.68 43.55 29.02 44.89 29.37 46.24 C 30.15 45.40 30.93 44.56 31.71 43.72 C 29.96 38.14 26.54 33.18 22.07 29.44 M 29.94 34.15 C 30.63 35.74 31.35 37.31 32.12 38.87 C 32.76 38.71 34.02 38.40 34.65 38.25 C 34.38 36.94 34.17 35.61 34.02 34.28 C 32.66 34.23 31.30 34.18 29.94 34.15 M 67.07 38.87 C 69.09 41.98 71.28 45.06 72.48 48.60 C 73.72 52.29 73.57 56.23 73.64 60.06 C 75.32 59.90 77.00 59.74 78.69 59.58 C 79.41 50.73 76.60 41.53 70.07 35.33 C 69.06 36.51 68.07 37.69 67.07 38.87 M 57.34 40.94 C 54.87 41.05 52.45 41.85 51.08 44.04 C 46.76 43.52 42.30 43.85 38.19 42.14 C 37.99 42.74 37.59 43.94 37.38 44.54 C 38.23 44.60 39.93 44.71 40.78 44.76 C 38.00 45.98 35.02 47.17 31.94 46.36 C 30.36 47.87 28.75 49.34 27.11 50.78 C 31.38 52.65 36.02 52.74 40.60 52.67 C 41.09 51.12 41.57 49.57 42.06 48.01 C 41.70 52.45 41.52 56.89 41.79 61.33 C 47.60 61.84 52.84 58.63 56.74 54.62 C 57.05 48.63 49.81 47.85 45.81 45.42 C 49.01 45.84 52.37 46.03 55.29 47.52 C 56.61 48.80 57.63 50.34 58.80 51.75 C 59.00 47.66 58.51 43.57 57.87 39.54 C 57.74 39.89 57.47 40.59 57.34 40.94 M 20.74 58.12 C 22.44 57.33 24.17 56.60 25.74 55.55 C 25.36 51.20 23.52 47.04 23.88 42.60 C 21.48 47.42 20.43 52.75 20.74 58.12 M 25.02 46.94 C 26.15 47.77 27.30 48.58 28.46 49.37 C 28.40 47.10 27.96 44.87 27.64 42.63 C 26.75 44.05 25.88 45.49 25.02 46.94 M 10.98 65.01 C 9.03 66.60 6.90 68.95 7.47 71.68 C 8.36 74.53 11.26 76.07 13.86 77.09 C 21.88 80.02 30.57 80.01 39.00 79.94 C 50.37 79.85 61.81 78.28 72.56 74.49 C 76.09 73.28 79.37 71.46 82.92 70.33 C 83.85 71.52 84.67 72.79 85.54 74.03 C 87.16 68.86 89.41 63.93 91.87 59.12 C 86.66 60.63 81.32 61.58 75.92 62.08 C 76.89 63.07 77.87 64.05 78.85 65.04 C 63.70 73.42 46.18 76.56 29.01 76.51 C 24.08 76.44 19.04 76.29 14.33 74.71 C 12.54 74.03 10.53 73.19 9.60 71.39 C 8.53 69.57 10.51 67.91 11.61 66.65 C 17.09 61.76 24.37 59.82 30.98 56.98 C 23.91 58.37 16.79 60.61 10.98 65.01 M 21.46 63.03 C 22.93 67.94 24.73 73.59 30.08 75.48 C 32.20 70.20 27.39 65.75 25.75 61.04 C 24.32 61.70 22.89 62.36 21.46 63.03 M 72.18 63.47 C 70.69 64.80 73.02 67.06 74.34 65.59 C 75.82 64.27 73.49 62.01 72.18 63.47 M 36.95 65.90 C 39.50 68.54 41.89 71.32 44.28 74.10 C 46.84 73.07 48.11 70.66 49.24 68.31 C 45.42 67.70 41.65 66.55 38.50 64.24 C 37.98 64.79 37.47 65.34 36.95 65.90 M 10.77 70.83 C 14.04 72.44 17.54 73.53 21.13 74.17 C 19.89 70.99 18.67 67.79 17.13 64.73 C 14.85 66.59 12.63 68.54 10.77 70.83 M 32.81 74.17 C 35.99 74.31 39.16 74.09 42.33 73.93 C 40.52 71.69 38.64 69.51 36.74 67.35 C 34.92 69.30 33.46 71.55 32.81 74.17 M 49.81 68.45 C 49.30 69.96 48.77 71.46 48.24 72.95 C 52.64 72.35 57.06 71.59 61.16 69.82 C 57.48 68.70 53.62 68.54 49.81 68.45 M 60.76 79.72 C 62.94 81.36 65.21 82.89 67.46 84.44 L 67.40 83.69 C 68.55 83.72 69.71 83.75 70.87 83.79 C 71.19 82.88 71.51 81.98 71.84 81.08 C 70.31 80.21 68.69 79.49 67.01 78.95 C 64.92 79.21 62.84 79.44 60.76 79.72 M 37.65 82.46 C 44.98 85.89 53.49 85.82 60.99 82.95 C 60.23 82.12 59.47 81.29 58.71 80.45 C 51.70 81.28 44.66 81.74 37.65 82.46 M 24.28 81.46 C 23.84 82.10 23.40 82.75 22.95 83.41 C 26.10 84.48 29.74 85.21 32.22 82.35 C 29.58 81.97 26.94 81.69 24.28 81.46 Z" />
<path fill="#ffffff" opacity="1.00" d=" M 42.11 10.72 C 45.00 11.94 48.38 12.97 50.17 15.75 C 50.80 17.73 50.76 19.83 50.95 21.88 C 48.39 20.52 45.59 19.41 43.52 17.31 C 42.54 15.26 42.47 12.93 42.11 10.72 Z" />
<path fill="#bbbbbb" opacity="1.00" d=" M 51.29 25.07 C 52.65 23.68 54.00 22.28 55.35 20.89 C 56.15 21.39 56.95 21.89 57.75 22.40 C 57.49 23.60 57.22 24.80 56.94 25.99 C 56.65 25.21 56.08 23.63 55.79 22.85 C 54.31 24.17 52.85 25.51 51.39 26.87 L 50.59 26.71 L 49.64 26.52 L 48.76 26.31 C 47.09 25.90 45.42 25.46 43.74 25.04 C 45.32 24.21 46.89 23.37 48.44 22.49 C 49.39 23.35 50.34 24.21 51.29 25.07 Z" />
<path fill="#ffffff" opacity="1.00" d=" M 37.46 24.40 C 41.15 22.67 45.19 21.74 49.27 22.02 L 48.44 22.49 C 46.89 23.37 45.32 24.21 43.74 25.04 C 45.42 25.46 47.09 25.90 48.76 26.31 C 44.65 27.23 40.70 28.89 36.45 29.15 C 37.50 28.37 38.45 27.48 39.32 26.51 C 38.44 25.99 36.91 25.77 37.46 24.40 Z" />
<path fill="#ffffff" opacity="1.00" d=" M 66.61 29.58 C 68.93 27.87 70.19 25.19 71.88 22.92 C 70.87 25.51 69.73 28.04 68.73 30.62 C 69.92 30.62 71.12 30.61 72.32 30.60 C 69.51 32.96 66.05 35.12 64.79 38.75 C 64.05 42.38 65.50 46.22 63.99 49.75 C 63.63 50.85 63.25 51.94 62.85 53.02 C 62.69 53.61 62.36 54.79 62.19 55.38 C 61.92 57.25 61.65 59.12 61.46 61.00 C 61.10 63.40 61.09 66.01 59.63 68.07 C 56.70 68.44 53.81 67.67 50.95 67.16 C 52.03 65.81 53.11 64.46 54.18 63.10 C 51.74 64.36 49.42 65.91 46.80 66.75 C 44.74 66.96 42.68 66.20 41.00 65.05 C 38.96 63.87 39.38 61.13 38.77 59.16 C 40.90 60.76 43.23 63.56 46.20 62.19 C 52.05 60.20 58.16 56.40 60.32 50.32 C 60.95 45.33 58.33 40.60 57.84 35.68 C 60.03 36.72 62.16 37.87 64.36 38.90 C 62.91 37.38 61.36 35.95 59.82 34.51 C 61.94 32.67 64.37 31.25 66.61 29.58 M 58.29 63.24 C 56.96 64.16 58.48 66.46 59.81 65.42 C 61.14 64.50 59.62 62.20 58.29 63.24 Z" />
<path fill="#ffffff" opacity="1.00" d=" M 28.03 23.78 C 30.61 25.55 32.67 28.01 35.40 29.57 C 40.38 30.87 44.94 27.60 49.64 26.52 L 50.59 26.71 C 47.18 30.58 41.97 32.06 37.00 32.48 C 33.93 32.68 30.29 32.14 28.44 29.38 C 27.14 27.77 27.99 25.63 28.03 23.78 Z" />
<path fill="#ffffff" opacity="1.00" d=" M 50.89 28.53 C 52.91 27.41 55.27 27.34 57.52 27.32 C 57.48 28.45 57.44 29.59 57.40 30.72 C 56.33 29.74 55.29 28.67 53.94 28.08 C 54.25 30.75 56.52 32.57 57.49 34.98 C 57.41 37.17 56.64 39.72 54.21 40.26 C 50.28 41.58 45.97 43.15 41.80 42.32 C 38.14 41.70 38.12 37.56 37.16 34.73 C 41.17 32.87 45.45 31.20 49.96 31.81 C 50.24 30.71 50.45 29.59 50.89 28.53 M 41.33 37.24 C 41.83 38.48 42.32 39.73 42.79 40.98 C 44.70 40.25 46.58 39.44 48.39 38.50 C 46.92 38.67 45.46 38.87 44.00 39.08 C 44.41 38.06 44.81 37.04 45.21 36.03 C 43.91 36.43 42.62 36.84 41.33 37.24 Z" />
<path fill="#9f1c2c" opacity="1.00" d=" M 59.29 29.35 C 60.63 27.83 62.90 30.17 61.32 31.45 C 59.97 32.98 57.71 30.64 59.29 29.35 Z" />
<path fill="#ffffff" opacity="1.00" d=" M 22.07 29.44 C 26.54 33.18 29.96 38.14 31.71 43.72 C 30.93 44.56 30.15 45.40 29.37 46.24 C 29.02 44.89 28.68 43.55 28.31 42.21 C 25.87 39.74 23.94 36.80 22.08 33.88 C 20.99 32.58 21.93 30.90 22.07 29.44 Z" />
<path fill="#c01c2f" opacity="1.00" d=" M 29.94 34.15 C 31.30 34.18 32.66 34.23 34.02 34.28 C 34.17 35.61 34.38 36.94 34.65 38.25 C 34.02 38.40 32.76 38.71 32.12 38.87 C 31.35 37.31 30.63 35.74 29.94 34.15 Z" />
<path fill="#1a1a1a" opacity="1.00" d=" M 41.33 37.24 C 42.62 36.84 43.91 36.43 45.21 36.03 C 44.81 37.04 44.41 38.06 44.00 39.08 C 45.46 38.87 46.92 38.67 48.39 38.50 C 46.58 39.44 44.70 40.25 42.79 40.98 C 42.32 39.73 41.83 38.48 41.33 37.24 Z" />
<path fill="#b61c2e" opacity="1.00" d=" M 67.07 38.87 C 68.07 37.69 69.06 36.51 70.07 35.33 C 76.60 41.53 79.41 50.73 78.69 59.58 C 77.00 59.74 75.32 59.90 73.64 60.06 C 73.57 56.23 73.72 52.29 72.48 48.60 C 71.28 45.06 69.09 41.98 67.07 38.87 Z" />
<path fill="#ffffff" opacity="1.00" d=" M 57.34 40.94 C 57.47 40.59 57.74 39.89 57.87 39.54 C 58.51 43.57 59.00 47.66 58.80 51.75 C 57.63 50.34 56.61 48.80 55.29 47.52 C 52.37 46.03 49.01 45.84 45.81 45.42 C 49.81 47.85 57.05 48.63 56.74 54.62 C 52.84 58.63 47.60 61.84 41.79 61.33 C 41.52 56.89 41.70 52.45 42.06 48.01 C 41.57 49.57 41.09 51.12 40.60 52.67 C 36.02 52.74 31.38 52.65 27.11 50.78 C 28.75 49.34 30.36 47.87 31.94 46.36 C 35.02 47.17 38.00 45.98 40.78 44.76 C 39.93 44.71 38.23 44.60 37.38 44.54 C 37.59 43.94 37.99 42.74 38.19 42.14 C 42.30 43.85 46.76 43.52 51.08 44.04 C 52.67 44.36 54.25 44.72 55.84 45.07 C 56.33 43.69 56.83 42.31 57.34 40.94 Z" />
<path fill="#d7d7d7" opacity="1.00" d=" M 51.08 44.04 C 52.45 41.85 54.87 41.05 57.34 40.94 C 56.83 42.31 56.33 43.69 55.84 45.07 C 54.25 44.72 52.67 44.36 51.08 44.04 Z" />
<path fill="#bf1c2f" opacity="1.00" d=" M 20.74 58.12 C 20.43 52.75 21.48 47.42 23.88 42.60 C 23.52 47.04 25.36 51.20 25.74 55.55 C 24.17 56.60 22.44 57.33 20.74 58.12 Z" />
<path fill="#ffffff" opacity="1.00" d=" M 25.02 46.94 C 25.88 45.49 26.75 44.05 27.64 42.63 C 27.96 44.87 28.40 47.10 28.46 49.37 C 27.30 48.58 26.15 47.77 25.02 46.94 Z" />
<path fill="#8a8a8a" opacity="1.00" d=" M 62.85 53.02 C 63.25 51.94 63.63 50.85 63.99 49.75 C 64.39 50.08 65.20 50.73 65.60 51.06 C 65.57 51.43 65.50 52.18 65.46 52.55 C 64.98 57.55 64.73 62.56 64.18 67.55 C 63.91 67.23 63.37 66.59 63.10 66.27 C 62.92 66.04 62.57 65.58 62.39 65.36 C 61.72 64.01 61.53 62.48 61.46 61.00 C 61.65 59.12 61.92 57.25 62.19 55.38 C 64.29 56.81 65.21 53.20 62.85 53.02 Z" />
<path fill="#1a1a1a" opacity="1.00" d=" M 62.85 53.02 C 65.21 53.20 64.29 56.81 62.19 55.38 C 62.36 54.79 62.69 53.61 62.85 53.02 Z" />
<path fill="#ffffff" opacity="1.00" d=" M 64.18 67.55 C 64.73 62.56 64.98 57.55 65.46 52.55 C 66.80 57.58 67.63 62.72 68.63 67.82 C 67.09 68.26 65.56 68.70 64.03 69.14 C 64.07 68.74 64.14 67.95 64.18 67.55 Z" />
<path fill="#efad49" opacity="1.00" d=" M 10.98 65.01 C 16.79 60.61 23.91 58.37 30.98 56.98 C 24.37 59.82 17.09 61.76 11.61 66.65 C 10.51 67.91 8.53 69.57 9.60 71.39 C 10.53 73.19 12.54 74.03 14.33 74.71 C 19.04 76.29 24.08 76.44 29.01 76.51 C 46.18 76.56 63.70 73.42 78.85 65.04 C 77.87 64.05 76.89 63.07 75.92 62.08 C 81.32 61.58 86.66 60.63 91.87 59.12 C 89.41 63.93 87.16 68.86 85.54 74.03 C 84.67 72.79 83.85 71.52 82.92 70.33 C 79.37 71.46 76.09 73.28 72.56 74.49 C 61.81 78.28 50.37 79.85 39.00 79.94 C 30.57 80.01 21.88 80.02 13.86 77.09 C 11.26 76.07 8.36 74.53 7.47 71.68 C 6.90 68.95 9.03 66.60 10.98 65.01 Z" />
<path fill="#b61c2e" opacity="1.00" d=" M 21.46 63.03 C 22.89 62.36 24.32 61.70 25.75 61.04 C 27.39 65.75 32.20 70.20 30.08 75.48 C 24.73 73.59 22.93 67.94 21.46 63.03 Z" />
<path fill="#8b8b8b" opacity="1.00" d=" M 58.29 63.24 C 59.62 62.20 61.14 64.50 59.81 65.42 C 58.48 66.46 56.96 64.16 58.29 63.24 Z" />
<path fill="#c01c2f" opacity="1.00" d=" M 72.18 63.47 C 73.49 62.01 75.82 64.27 74.34 65.59 C 73.02 67.06 70.69 64.80 72.18 63.47 Z" />
<path fill="#ffffff" opacity="1.00" d=" M 36.95 65.90 C 37.47 65.34 37.98 64.79 38.50 64.24 C 41.65 66.55 45.42 67.70 49.24 68.31 C 48.11 70.66 46.84 73.07 44.28 74.10 C 41.89 71.32 39.50 68.54 36.95 65.90 Z" />
<path fill="#b3b3b3" opacity="1.00" d=" M 10.77 70.83 C 12.63 68.54 14.85 66.59 17.13 64.73 C 18.67 67.79 19.89 70.99 21.13 74.17 C 17.54 73.53 14.04 72.44 10.77 70.83 Z" />
<path fill="#eaeaea" opacity="1.00" d=" M 62.39 65.36 C 62.57 65.58 62.92 66.04 63.10 66.27 C 63.44 67.32 63.46 69.02 62.28 69.56 C 60.75 68.98 61.19 66.10 62.39 65.36 Z" />
<path fill="#ffffff" opacity="1.00" d=" M 32.81 74.17 C 33.46 71.55 34.92 69.30 36.74 67.35 C 38.64 69.51 40.52 71.69 42.33 73.93 C 39.16 74.09 35.99 74.31 32.81 74.17 Z" />
<path fill="#ffffff" opacity="1.00" d=" M 49.81 68.45 C 53.62 68.54 57.48 68.70 61.16 69.82 C 57.06 71.59 52.64 72.35 48.24 72.95 C 48.77 71.46 49.30 69.96 49.81 68.45 Z" />
<path fill="#ffffff" opacity="1.00" d=" M 60.76 79.72 C 62.84 79.44 64.92 79.21 67.01 78.95 C 67.13 80.53 67.26 82.11 67.40 83.69 L 67.46 84.44 C 65.21 82.89 62.94 81.36 60.76 79.72 Z" />
<path fill="#b3b3b3" opacity="1.00" d=" M 67.01 78.95 C 68.69 79.49 70.31 80.21 71.84 81.08 C 71.51 81.98 71.19 82.88 70.87 83.79 C 69.71 83.75 68.55 83.72 67.40 83.69 C 67.26 82.11 67.13 80.53 67.01 78.95 Z" />
<path fill="#c01c2f" opacity="1.00" d=" M 37.65 82.46 C 44.66 81.74 51.70 81.28 58.71 80.45 C 59.47 81.29 60.23 82.12 60.99 82.95 C 53.49 85.82 44.98 85.89 37.65 82.46 Z" />
<path fill="#ffffff" opacity="1.00" d=" M 24.28 81.46 C 26.94 81.69 29.58 81.97 32.22 82.35 C 29.74 85.21 26.10 84.48 22.95 83.41 C 23.40 82.75 23.84 82.10 24.28 81.46 Z" />
</svg>
