<?xml version="1.0" encoding="UTF-8" ?>
<!DOCTYPE svg PUBLIC "-//W3C//DTD SVG 1.1//EN" "http://www.w3.org/Graphics/SVG/1.1/DTD/svg11.dtd">
<svg width="100pt" height="100pt" viewBox="0 0 100 100" version="1.1" xmlns="http://www.w3.org/2000/svg">
<path fill="#bbbbbb" opacity="1.00" d=" M 52.83 10.63 C 56.37 10.63 59.96 10.00 63.45 10.74 C 68.16 12.45 72.91 15.32 74.95 20.13 C 77.60 23.99 76.12 29.22 79.08 32.92 C 83.33 38.75 85.44 45.82 85.79 52.98 C 89.14 52.62 94.66 50.50 95.77 55.24 C 95.23 59.99 91.65 63.81 90.48 68.44 C 89.22 71.34 89.13 76.20 85.06 76.45 C 83.10 75.83 81.64 74.32 80.07 73.09 C 74.95 80.62 67.19 86.30 58.28 88.43 C 49.78 91.06 40.62 89.01 32.84 85.16 C 29.78 83.74 27.38 80.93 23.88 80.53 C 17.63 79.45 10.67 78.75 5.85 74.15 C 3.05 71.62 2.20 67.27 3.89 63.88 C 5.95 59.68 10.26 57.41 14.03 54.98 C 14.06 48.82 15.40 42.74 17.96 37.14 C 15.08 35.69 11.42 33.84 11.70 30.02 C 12.17 24.03 14.76 17.24 20.69 14.73 C 24.08 13.24 27.51 10.13 31.45 11.60 C 35.16 12.68 36.46 16.67 37.60 19.93 C 38.72 19.64 39.84 19.35 40.96 19.06 C 42.08 16.37 42.90 13.10 45.73 11.68 C 47.87 10.39 50.45 10.73 52.83 10.63 M 25.07 15.54 C 21.98 16.63 18.32 17.52 16.70 20.69 C 14.86 24.16 12.64 28.55 14.39 32.44 C 16.58 35.77 20.94 34.45 24.08 33.62 C 19.29 40.02 17.06 47.89 17.05 55.82 C 13.09 58.08 8.61 60.09 6.06 64.05 C 4.10 67.00 5.05 71.14 7.82 73.22 C 12.93 77.39 19.78 77.80 26.02 78.78 C 29.51 79.09 31.63 82.34 34.87 83.29 C 38.51 84.46 42.24 85.40 46.02 85.96 C 52.65 86.94 59.44 85.36 65.39 82.43 C 71.63 79.39 75.03 72.73 81.31 69.73 C 82.61 71.55 83.94 73.35 85.32 75.12 C 88.39 68.61 91.23 61.95 93.83 55.25 C 93.56 55.00 93.02 54.50 92.75 54.25 C 89.30 54.23 85.98 55.37 82.64 56.07 C 82.44 50.72 82.07 45.20 79.69 40.30 C 78.32 37.23 76.07 34.67 74.51 31.70 C 73.93 29.06 75.02 26.27 74.34 23.62 C 73.07 20.26 71.02 17.04 67.88 15.14 C 62.13 11.09 54.73 13.09 48.21 13.23 C 43.94 13.33 43.92 18.32 43.45 21.43 C 39.87 22.60 36.37 23.97 33.00 25.65 C 34.28 22.29 36.44 17.81 33.02 14.94 C 30.73 12.24 27.18 13.23 25.07 15.54 Z" />
<path fill="#1a1a1a" opacity="1.00" d=" M 25.07 15.54 C 27.18 13.23 30.73 12.24 33.02 14.94 C 36.44 17.81 34.28 22.29 33.00 25.65 C 36.37 23.97 39.87 22.60 43.45 21.43 C 43.92 18.32 43.94 13.33 48.21 13.23 C 54.73 13.09 62.13 11.09 67.88 15.14 C 71.02 17.04 73.07 20.26 74.34 23.62 C 75.02 26.27 73.93 29.06 74.51 31.70 C 76.07 34.67 78.32 37.23 79.69 40.30 C 82.07 45.20 82.44 50.72 82.64 56.07 C 85.98 55.37 89.30 54.23 92.75 54.25 C 93.02 54.50 93.56 55.00 93.83 55.25 C 91.23 61.95 88.39 68.61 85.32 75.12 C 83.94 73.35 82.61 71.55 81.31 69.73 C 75.03 72.73 71.63 79.39 65.39 82.43 C 59.44 85.36 52.65 86.94 46.02 85.96 C 42.24 85.40 38.51 84.46 34.87 83.29 C 31.63 82.34 29.51 79.09 26.02 78.78 C 19.78 77.80 12.93 77.39 7.82 73.22 C 5.05 71.14 4.10 67.00 6.06 64.05 C 8.61 60.09 13.09 58.08 17.05 55.82 C 17.06 47.89 19.29 40.02 24.08 33.62 C 20.94 34.45 16.58 35.77 14.39 32.44 C 12.64 28.55 14.86 24.16 16.70 20.69 C 18.32 17.52 21.98 16.63 25.07 15.54 M 29.61 14.78 C 28.69 16.25 27.78 17.72 26.87 19.20 C 25.80 18.96 24.73 18.71 23.66 18.47 C 23.00 20.20 22.29 21.91 21.53 23.60 C 20.62 22.67 19.72 21.73 18.82 20.80 C 17.45 24.17 16.33 27.64 15.55 31.20 C 18.88 32.92 22.29 31.99 25.31 30.14 C 24.14 28.15 24.14 25.97 25.42 24.03 C 27.65 26.73 29.90 29.49 31.38 32.69 C 32.57 35.23 31.75 38.72 34.47 40.43 C 37.93 43.01 40.14 46.75 42.69 50.15 C 43.40 48.78 44.10 47.40 44.80 46.03 C 43.79 50.45 43.22 54.99 43.58 59.54 C 44.37 58.41 45.14 57.26 45.91 56.10 C 45.77 57.38 45.64 58.66 45.52 59.94 C 46.78 61.06 48.04 62.20 49.29 63.34 C 47.20 63.61 45.12 63.84 43.03 64.05 C 43.96 63.61 44.90 63.17 45.83 62.73 C 43.54 60.49 41.33 58.13 38.66 56.32 C 38.34 59.29 38.06 62.26 37.67 65.22 C 38.49 64.60 39.32 63.97 40.14 63.34 C 39.67 65.87 39.42 68.43 39.18 70.98 C 42.85 70.85 47.05 70.77 49.09 67.13 C 46.23 67.15 43.37 67.30 40.50 67.25 C 43.35 66.57 46.33 66.38 49.08 65.32 C 51.87 62.57 52.99 58.73 53.26 54.91 C 54.02 56.00 54.77 57.10 55.53 58.19 C 56.02 53.30 58.58 48.00 55.57 43.42 C 55.30 46.02 55.20 48.63 55.06 51.24 C 54.32 48.63 53.61 46.00 52.61 43.47 C 52.53 47.01 52.68 50.57 52.09 54.09 C 51.31 51.39 51.42 48.46 50.34 45.86 C 48.22 44.65 45.98 43.65 43.89 42.37 C 43.01 42.88 42.14 43.39 41.26 43.89 C 40.49 42.56 39.73 41.22 38.97 39.89 C 40.03 39.80 41.10 39.72 42.16 39.64 C 41.73 37.79 41.31 35.94 40.93 34.08 C 41.59 35.31 42.23 36.56 42.87 37.81 C 44.79 36.21 46.68 32.98 49.60 34.27 C 51.82 34.87 52.33 37.43 53.31 39.20 C 51.38 37.67 49.52 36.06 47.59 34.54 C 46.50 36.40 45.33 38.21 44.43 40.17 C 45.40 41.78 46.77 43.91 48.96 43.28 C 53.50 42.69 58.06 42.48 62.62 42.33 C 60.01 40.36 57.00 39.05 53.87 38.15 C 54.40 35.97 55.12 33.83 55.64 31.64 C 56.30 29.35 54.89 27.21 54.17 25.12 C 56.71 23.49 59.09 21.47 62.02 20.57 C 65.17 20.26 68.28 21.00 71.37 21.49 C 68.67 18.78 65.79 15.75 61.88 14.96 C 56.38 13.62 50.62 18.76 49.82 23.80 C 48.04 22.48 46.92 26.36 49.19 26.00 C 47.69 26.96 46.00 27.64 44.62 28.80 C 43.69 30.66 43.69 32.81 43.34 34.82 C 43.19 34.42 42.89 33.61 42.74 33.20 C 40.09 33.37 37.43 33.42 34.78 33.27 C 36.00 34.82 37.21 36.39 38.26 38.06 C 33.50 33.88 31.59 27.55 27.90 22.53 C 29.36 22.57 30.82 22.65 32.28 22.71 C 33.20 19.60 32.03 16.81 29.61 14.78 M 45.59 16.58 C 46.15 18.60 46.74 20.61 47.35 22.62 C 49.18 20.18 50.93 17.67 52.43 15.01 C 50.10 15.31 47.81 15.83 45.59 16.58 M 58.95 26.72 C 58.27 27.31 57.58 27.91 56.91 28.52 C 57.27 29.51 57.62 30.50 57.97 31.50 C 56.84 33.75 55.73 36.02 54.80 38.36 C 56.40 37.36 57.95 36.26 59.47 35.14 C 59.58 36.54 59.70 37.93 59.84 39.33 C 60.80 37.85 61.74 36.34 62.70 34.86 C 62.66 36.82 62.61 38.78 62.62 40.75 C 63.58 39.05 64.46 37.31 65.33 35.57 C 65.20 37.58 65.09 39.60 65.06 41.61 C 65.67 40.39 66.56 39.24 66.77 37.85 C 67.58 36.28 68.40 34.72 69.28 33.18 C 71.66 31.08 72.44 27.99 72.91 24.97 C 70.64 23.91 68.48 22.37 65.94 22.12 C 62.84 21.95 60.98 24.85 58.95 26.72 M 59.19 23.23 C 57.95 22.99 55.87 24.26 56.67 25.66 C 58.06 27.12 61.26 24.30 59.19 23.23 M 33.86 29.12 C 35.26 29.79 36.64 30.56 38.12 31.06 C 41.28 30.86 40.90 26.85 41.88 24.67 C 39.13 26.01 36.45 27.50 33.86 29.12 M 21.06 54.00 C 22.65 53.69 24.23 53.37 25.81 53.06 C 27.43 46.33 30.32 39.71 29.48 32.63 C 23.80 38.26 21.29 46.14 21.06 54.00 M 69.65 36.57 C 70.01 39.31 71.67 41.65 72.64 44.20 C 74.40 48.18 74.32 52.62 74.44 56.89 C 76.03 56.81 77.63 56.73 79.23 56.66 C 80.34 48.30 77.53 40.02 72.49 33.39 C 71.52 34.43 70.50 35.43 69.65 36.57 M 57.76 43.75 C 57.59 47.25 57.77 50.76 58.56 54.18 C 59.43 52.46 60.24 50.71 61.04 48.95 C 60.85 51.45 60.65 53.94 60.52 56.43 C 59.45 56.29 58.38 56.14 57.32 56.01 C 57.25 56.68 57.10 58.04 57.03 58.72 C 58.15 59.13 59.28 59.54 60.40 59.94 C 58.76 60.81 57.13 61.69 55.50 62.58 C 57.66 63.37 59.85 64.06 62.03 64.80 C 59.48 64.60 56.94 64.17 54.37 64.27 C 52.93 65.49 52.92 67.53 52.38 69.20 C 56.55 68.53 60.58 67.23 64.36 65.36 C 63.49 63.64 62.57 61.95 61.57 60.30 C 64.57 60.69 67.47 59.92 69.99 58.29 C 67.87 53.45 65.95 48.39 62.58 44.26 C 60.99 43.95 59.37 43.89 57.76 43.75 M 35.53 54.39 C 37.88 54.58 40.23 54.76 42.58 54.93 C 42.13 52.96 41.57 51.02 41.04 49.07 C 39.13 50.77 37.29 52.54 35.53 54.39 M 10.31 62.31 C 7.81 64.17 5.72 68.02 8.23 70.74 C 12.40 75.00 18.78 75.67 24.40 76.49 C 44.24 78.25 64.92 76.06 82.91 67.02 C 83.61 68.50 84.31 69.98 85.01 71.46 C 86.81 66.26 88.93 61.18 91.38 56.26 C 86.04 57.72 80.57 58.68 75.04 59.06 C 76.18 60.06 77.32 61.06 78.46 62.06 C 61.64 71.31 41.99 74.34 22.99 73.34 C 18.22 72.80 12.56 72.53 9.20 68.61 C 8.47 66.06 10.78 64.04 12.54 62.59 C 18.91 57.89 26.64 55.71 33.96 52.99 C 25.70 54.81 17.09 56.99 10.31 62.31 M 21.98 59.30 C 23.44 63.37 24.53 68.05 28.05 70.89 C 30.07 71.70 32.31 71.47 34.45 71.58 C 31.25 67.41 28.47 62.92 26.59 58.00 C 25.05 58.43 23.52 58.87 21.98 59.30 M 10.36 67.81 C 14.04 69.66 18.03 70.74 22.10 71.34 C 20.73 67.96 19.31 64.60 17.89 61.24 C 15.15 63.16 12.57 65.30 10.36 67.81 M 59.63 77.60 C 58.49 77.39 57.33 77.37 56.18 77.30 C 58.64 79.71 61.93 80.84 65.33 80.86 C 65.50 79.12 65.65 77.39 65.79 75.66 C 63.71 76.24 61.65 76.87 59.63 77.60 M 43.56 80.67 C 48.07 82.07 52.85 81.91 57.42 80.89 C 55.65 79.93 53.97 78.55 51.91 78.28 C 48.96 78.26 46.25 79.62 43.56 80.67 M 32.31 79.78 C 35.44 82.41 39.40 81.02 42.63 79.39 C 39.18 79.20 35.72 79.28 32.31 79.78 Z" />
<path fill="#ffffff" opacity="1.00" d=" M 29.61 14.78 C 32.03 16.81 33.20 19.60 32.28 22.71 C 30.82 22.65 29.36 22.57 27.90 22.53 C 31.59 27.55 33.50 33.88 38.26 38.06 C 37.21 36.39 36.00 34.82 34.78 33.27 C 37.43 33.42 40.09 33.37 42.74 33.20 C 42.89 33.61 43.19 34.42 43.34 34.82 C 43.69 32.81 43.69 30.66 44.62 28.80 C 46.00 27.64 47.69 26.96 49.19 26.00 L 49.85 25.53 C 49.84 25.10 49.83 24.24 49.82 23.80 C 50.62 18.76 56.38 13.62 61.88 14.96 C 65.79 15.75 68.67 18.78 71.37 21.49 C 68.28 21.00 65.17 20.26 62.02 20.57 C 59.09 21.47 56.71 23.49 54.17 25.12 C 54.89 27.21 56.30 29.35 55.64 31.64 C 55.12 33.83 54.40 35.97 53.87 38.15 C 57.00 39.05 60.01 40.36 62.62 42.33 C 58.06 42.48 53.50 42.69 48.96 43.28 C 46.77 43.91 45.40 41.78 44.43 40.17 C 45.33 38.21 46.50 36.40 47.59 34.54 C 49.52 36.06 51.38 37.67 53.31 39.20 C 52.33 37.43 51.82 34.87 49.60 34.27 C 46.68 32.98 44.79 36.21 42.87 37.81 C 42.23 36.56 41.59 35.31 40.93 34.08 C 41.31 35.94 41.73 37.79 42.16 39.64 C 41.10 39.72 40.03 39.80 38.97 39.89 C 39.73 41.22 40.49 42.56 41.26 43.89 C 42.14 43.39 43.01 42.88 43.89 42.37 C 45.98 43.65 48.22 44.65 50.34 45.86 C 51.42 48.46 51.31 51.39 52.09 54.09 C 52.68 50.57 52.53 47.01 52.61 43.47 C 53.61 46.00 54.32 48.63 55.06 51.24 C 55.20 48.63 55.30 46.02 55.57 43.42 C 58.58 48.00 56.02 53.30 55.53 58.19 C 54.77 57.10 54.02 56.00 53.26 54.91 C 52.99 58.73 51.87 62.57 49.08 65.32 C 46.33 66.38 43.35 66.57 40.50 67.25 C 43.37 67.30 46.23 67.15 49.09 67.13 C 47.05 70.77 42.85 70.85 39.18 70.98 C 39.42 68.43 39.67 65.87 40.14 63.34 C 39.32 63.97 38.49 64.60 37.67 65.22 C 38.06 62.26 38.34 59.29 38.66 56.32 C 41.33 58.13 43.54 60.49 45.83 62.73 C 44.90 63.17 43.96 63.61 43.03 64.05 C 45.12 63.84 47.20 63.61 49.29 63.34 C 48.04 62.20 46.78 61.06 45.52 59.94 C 45.64 58.66 45.77 57.38 45.91 56.10 C 45.14 57.26 44.37 58.41 43.58 59.54 C 43.22 54.99 43.79 50.45 44.80 46.03 C 44.10 47.40 43.40 48.78 42.69 50.15 C 40.14 46.75 37.93 43.01 34.47 40.43 C 31.75 38.72 32.57 35.23 31.38 32.69 C 29.90 29.49 27.65 26.73 25.42 24.03 C 24.14 25.97 24.14 28.15 25.31 30.14 C 22.29 31.99 18.88 32.92 15.55 31.20 C 16.33 27.64 17.45 24.17 18.82 20.80 C 19.72 21.73 20.62 22.67 21.53 23.60 C 22.29 21.91 23.00 20.20 23.66 18.47 C 24.73 18.71 25.80 18.96 26.87 19.20 C 27.78 17.72 28.69 16.25 29.61 14.78 Z" />
<path fill="#ffffff" opacity="1.00" d=" M 45.59 16.58 C 47.81 15.83 50.10 15.31 52.43 15.01 C 50.93 17.67 49.18 20.18 47.35 22.62 C 46.74 20.61 46.15 18.60 45.59 16.58 Z" />
<path fill="#ffffff" opacity="1.00" d=" M 58.95 26.72 C 60.98 24.85 62.84 21.95 65.94 22.12 C 68.48 22.37 70.64 23.91 72.91 24.97 C 72.44 27.99 71.66 31.08 69.28 33.18 C 65.97 30.83 62.53 28.66 58.95 26.72 Z" />
<path fill="#ffffff" opacity="1.00" d=" M 59.19 23.23 C 61.26 24.30 58.06 27.12 56.67 25.66 C 55.87 24.26 57.95 22.99 59.19 23.23 Z" />
<path fill="#a5a5a5" opacity="1.00" d=" M 49.19 26.00 C 46.92 26.36 48.04 22.48 49.82 23.80 C 49.83 24.24 49.84 25.10 49.85 25.53 L 49.19 26.00 Z" />
<path fill="#bf1c2f" opacity="1.00" d=" M 33.86 29.12 C 36.45 27.50 39.13 26.01 41.88 24.67 C 40.90 26.85 41.28 30.86 38.12 31.06 C 36.64 30.56 35.26 29.79 33.86 29.12 Z" />
<path fill="#a5a5a5" opacity="1.00" d=" M 56.91 28.52 C 57.58 27.91 58.27 27.31 58.95 26.72 C 62.53 28.66 65.97 30.83 69.28 33.18 C 68.40 34.72 67.58 36.28 66.77 37.85 C 66.98 36.17 67.11 34.49 67.26 32.80 C 64.17 32.29 61.08 31.85 57.97 31.50 C 57.62 30.50 57.27 29.51 56.91 28.52 Z" />
<path fill="#ffffff" opacity="1.00" d=" M 57.97 31.50 C 61.08 31.85 64.17 32.29 67.26 32.80 C 67.11 34.49 66.98 36.17 66.77 37.85 C 66.56 39.24 65.67 40.39 65.06 41.61 C 65.09 39.60 65.20 37.58 65.33 35.57 C 64.46 37.31 63.58 39.05 62.62 40.75 C 62.61 38.78 62.66 36.82 62.70 34.86 C 61.74 36.34 60.80 37.85 59.84 39.33 C 59.70 37.93 59.58 36.54 59.47 35.14 C 57.95 36.26 56.40 37.36 54.80 38.36 C 55.73 36.02 56.84 33.75 57.97 31.50 Z" />
<path fill="#b61c2e" opacity="1.00" d=" M 21.06 54.00 C 21.29 46.14 23.80 38.26 29.48 32.63 C 30.32 39.71 27.43 46.33 25.81 53.06 C 24.23 53.37 22.65 53.69 21.06 54.00 Z" />
<path fill="#b61c2e" opacity="1.00" d=" M 69.65 36.57 C 70.50 35.43 71.52 34.43 72.49 33.39 C 77.53 40.02 80.34 48.30 79.23 56.66 C 77.63 56.73 76.03 56.81 74.44 56.89 C 74.32 52.62 74.40 48.18 72.64 44.20 C 71.67 41.65 70.01 39.31 69.65 36.57 Z" />
<path fill="#ffffff" opacity="1.00" d=" M 57.76 43.75 C 59.37 43.89 60.99 43.95 62.58 44.26 C 65.95 48.39 67.87 53.45 69.99 58.29 C 67.47 59.92 64.57 60.69 61.57 60.30 C 62.57 61.95 63.49 63.64 64.36 65.36 C 60.58 67.23 56.55 68.53 52.38 69.20 C 52.92 67.53 52.93 65.49 54.37 64.27 C 56.94 64.17 59.48 64.60 62.03 64.80 C 59.85 64.06 57.66 63.37 55.50 62.58 C 57.13 61.69 58.76 60.81 60.40 59.94 C 59.28 59.54 58.15 59.13 57.03 58.72 C 57.10 58.04 57.25 56.68 57.32 56.01 C 58.38 56.14 59.45 56.29 60.52 56.43 C 60.65 53.94 60.85 51.45 61.04 48.95 C 60.24 50.71 59.43 52.46 58.56 54.18 C 57.77 50.76 57.59 47.25 57.76 43.75 Z" />
<path fill="#fefefe" opacity="1.00" d=" M 35.53 54.39 C 37.29 52.54 39.13 50.77 41.04 49.07 C 41.57 51.02 42.13 52.96 42.58 54.93 C 40.23 54.76 37.88 54.58 35.53 54.39 Z" />
<path fill="#edad49" opacity="1.00" d=" M 10.31 62.31 C 17.09 56.99 25.70 54.81 33.96 52.99 C 26.64 55.71 18.91 57.89 12.54 62.59 C 10.78 64.04 8.47 66.06 9.20 68.61 C 12.56 72.53 18.22 72.80 22.99 73.34 C 41.99 74.34 61.64 71.31 78.46 62.06 C 77.32 61.06 76.18 60.06 75.04 59.06 C 80.57 58.68 86.04 57.72 91.38 56.26 C 88.93 61.18 86.81 66.26 85.01 71.46 C 84.31 69.98 83.61 68.50 82.91 67.02 C 64.92 76.06 44.24 78.25 24.40 76.49 C 18.78 75.67 12.40 75.00 8.23 70.74 C 5.72 68.02 7.81 64.17 10.31 62.31 Z" />
<path fill="#b61c2e" opacity="1.00" d=" M 21.98 59.30 C 23.52 58.87 25.05 58.43 26.59 58.00 C 28.47 62.92 31.25 67.41 34.45 71.58 C 32.31 71.47 30.07 71.70 28.05 70.89 C 24.53 68.05 23.44 63.37 21.98 59.30 Z" />
<path fill="#b3b3b3" opacity="1.00" d=" M 10.36 67.81 C 12.57 65.30 15.15 63.16 17.89 61.24 C 19.31 64.60 20.73 67.96 22.10 71.34 C 18.03 70.74 14.04 69.66 10.36 67.81 Z" />
<path fill="#ffffff" opacity="1.00" d=" M 59.63 77.60 C 61.65 76.87 63.71 76.24 65.79 75.66 C 65.65 77.39 65.50 79.12 65.33 80.86 C 63.45 79.73 61.59 78.58 59.63 77.60 Z" />
<path fill="#bbbbbb" opacity="1.00" d=" M 56.18 77.30 C 57.33 77.37 58.49 77.39 59.63 77.60 C 61.59 78.58 63.45 79.73 65.33 80.86 C 61.93 80.84 58.64 79.71 56.18 77.30 Z" />
<path fill="#c81c30" opacity="1.00" d=" M 43.56 80.67 C 46.25 79.62 48.96 78.26 51.91 78.28 C 53.97 78.55 55.65 79.93 57.42 80.89 C 52.85 81.91 48.07 82.07 43.56 80.67 Z" />
<path fill="#bbbbbb" opacity="1.00" d=" M 32.31 79.78 C 35.72 79.28 39.18 79.20 42.63 79.39 C 39.40 81.02 35.44 82.41 32.31 79.78 Z" />
</svg>
