<?xml version="1.0" encoding="UTF-8" ?>
<!DOCTYPE svg PUBLIC "-//W3C//DTD SVG 1.1//EN" "http://www.w3.org/Graphics/SVG/1.1/DTD/svg11.dtd">
<svg width="100pt" height="100pt" viewBox="0 0 100 100" version="1.1" xmlns="http://www.w3.org/2000/svg">
<path fill="#bababa" opacity="1.00" d=" M 62.42 9.23 C 65.62 7.54 69.63 8.48 72.36 10.65 C 74.53 12.66 74.85 15.79 75.57 18.50 C 80.06 18.66 83.91 21.15 87.64 23.40 C 89.90 24.78 91.63 28.08 89.77 30.44 C 87.26 32.32 84.23 33.34 81.50 34.84 C 83.45 40.05 84.90 45.46 85.37 51.03 C 89.18 50.24 94.74 47.96 96.53 53.03 C 95.31 57.02 92.82 60.47 91.42 64.39 C 90.22 67.27 89.75 70.49 88.00 73.12 C 85.04 75.43 82.24 72.32 80.24 70.34 C 76.73 75.10 72.55 79.36 67.49 82.47 C 63.87 84.16 64.83 89.69 60.97 90.94 C 56.02 92.77 50.76 90.66 46.20 88.72 C 41.53 86.08 36.05 85.34 31.49 82.47 C 28.73 80.90 26.28 78.54 23.03 78.05 C 17.18 76.90 10.69 76.14 6.19 71.81 C 3.32 69.21 2.47 64.72 4.30 61.29 C 6.14 57.57 10.09 55.81 12.98 53.09 C 13.82 51.25 13.65 49.12 14.01 47.15 C 15.20 34.62 23.93 23.31 35.53 18.57 C 41.95 15.77 49.11 15.32 56.00 16.17 C 57.72 13.54 59.33 10.48 62.42 9.23 M 62.63 11.45 C 60.20 13.09 59.05 15.96 56.93 17.92 C 53.83 19.27 50.30 18.81 47.01 19.18 C 37.63 19.59 28.72 24.65 23.20 32.19 C 18.43 38.31 16.78 46.14 16.53 53.75 C 12.93 55.96 8.97 57.99 6.47 61.53 C 4.53 64.25 5.07 68.24 7.61 70.40 C 12.32 74.69 18.99 75.21 24.98 76.24 C 28.80 76.69 31.86 79.14 35.23 80.74 C 38.84 82.52 43.00 83.19 46.21 85.74 C 50.80 89.41 57.40 90.90 62.72 87.91 C 62.32 85.98 61.89 84.06 61.44 82.14 C 66.07 79.78 70.50 76.90 73.92 72.93 C 75.99 70.46 78.84 68.88 81.67 67.42 C 82.61 68.86 83.54 70.31 84.48 71.76 C 85.03 71.78 86.13 71.84 86.68 71.87 C 88.57 64.92 92.27 58.66 94.37 51.79 C 90.31 52.15 86.29 52.92 82.34 53.89 C 82.00 47.70 80.82 41.55 78.24 35.88 C 81.25 32.52 85.18 30.32 89.30 28.60 C 87.16 25.26 83.63 23.38 80.17 21.67 C 76.54 19.43 72.89 23.26 69.80 24.89 C 71.44 21.98 74.19 18.84 72.89 15.27 C 71.95 10.86 66.22 9.46 62.63 11.45 Z" />
<path fill="#1a1a1a" opacity="1.00" d=" M 62.63 11.45 C 66.22 9.46 71.95 10.86 72.89 15.27 C 74.19 18.84 71.44 21.98 69.80 24.89 C 72.89 23.26 76.54 19.43 80.17 21.67 C 83.63 23.38 87.16 25.26 89.30 28.60 C 85.18 30.32 81.25 32.52 78.24 35.88 C 80.82 41.55 82.00 47.70 82.34 53.89 C 86.29 52.92 90.31 52.15 94.37 51.79 C 92.27 58.66 88.57 64.92 86.68 71.87 C 86.13 71.84 85.03 71.78 84.48 71.76 C 83.54 70.31 82.61 68.86 81.67 67.42 C 78.84 68.88 75.99 70.46 73.92 72.93 C 70.50 76.90 66.07 79.78 61.44 82.14 C 61.89 84.06 62.32 85.98 62.72 87.91 C 57.40 90.90 50.80 89.41 46.21 85.74 C 43.00 83.19 38.84 82.52 35.23 80.74 C 31.86 79.14 28.80 76.69 24.98 76.24 C 18.99 75.21 12.32 74.69 7.61 70.40 C 5.07 68.24 4.53 64.25 6.47 61.53 C 8.97 57.99 12.93 55.96 16.53 53.75 C 16.78 46.14 18.43 38.31 23.20 32.19 C 28.72 24.65 37.63 19.59 47.01 19.18 C 50.30 18.81 53.83 19.27 56.93 17.92 C 59.05 15.96 60.20 13.09 62.63 11.45 M 63.52 13.30 C 61.20 14.37 60.98 17.26 60.14 19.37 C 56.96 20.31 53.79 21.26 50.65 22.32 C 53.45 24.43 56.34 26.82 56.45 30.65 C 53.19 30.20 49.93 29.50 47.03 27.88 C 49.81 28.32 52.55 28.91 55.33 29.32 C 54.16 26.85 52.21 24.96 50.03 23.38 C 48.20 25.54 46.55 27.84 45.09 30.27 C 44.22 29.49 43.34 28.72 42.47 27.94 C 39.29 30.89 36.64 34.42 33.08 36.93 C 30.66 37.91 27.96 37.88 25.42 38.40 C 26.22 39.58 26.97 40.81 27.92 41.87 C 29.42 42.47 31.06 41.83 32.61 41.71 C 33.07 42.88 33.53 44.04 34.00 45.21 C 35.22 42.82 35.52 39.43 38.33 38.32 C 42.51 36.43 46.87 34.95 51.01 32.96 C 46.83 36.18 42.74 39.76 39.98 44.31 C 39.19 48.26 41.50 52.21 44.11 55.02 C 46.30 57.57 49.93 57.27 52.96 57.69 C 50.87 58.49 48.38 58.99 47.05 60.99 C 45.75 62.94 45.44 65.33 44.93 67.57 C 45.92 67.73 46.91 67.89 47.91 68.05 C 47.73 66.84 47.42 65.62 47.52 64.38 C 49.44 61.57 52.64 60.09 55.34 58.17 C 54.73 57.20 54.12 56.23 53.50 55.26 C 54.50 55.42 55.49 55.56 56.49 55.70 C 56.17 56.99 55.86 58.28 55.56 59.57 C 57.72 57.85 59.41 55.29 62.14 54.44 C 63.82 54.75 65.32 55.62 66.88 56.27 C 66.88 55.00 66.88 53.72 66.88 52.45 C 62.85 51.96 58.21 51.85 55.45 48.38 C 53.44 45.27 54.56 41.42 56.27 38.46 C 54.96 37.87 53.66 37.27 52.38 36.64 C 55.10 36.88 57.84 37.43 60.58 37.05 C 62.05 34.33 63.34 31.45 64.08 28.44 C 64.22 25.72 62.54 23.18 62.81 20.45 C 63.46 18.95 64.56 17.73 65.55 16.46 C 65.57 19.05 64.60 21.46 63.66 23.82 C 64.35 24.30 65.72 25.27 66.41 25.75 C 68.20 22.81 71.36 19.98 70.89 16.25 C 70.66 12.80 66.11 11.86 63.52 13.30 M 24.74 36.17 C 27.27 35.74 30.09 35.82 32.26 34.25 C 35.26 32.04 37.72 29.11 41.03 27.32 C 43.78 25.82 46.40 24.07 48.67 21.91 C 38.80 21.87 29.60 27.71 24.74 36.17 M 74.54 24.38 C 72.75 25.51 71.43 27.21 69.97 28.72 C 70.79 29.59 71.62 30.45 72.45 31.32 C 71.55 33.25 70.73 35.21 70.00 37.21 C 72.70 35.13 75.21 32.79 77.96 30.78 C 77.41 32.25 76.82 33.72 76.26 35.20 C 79.18 31.91 82.56 29.08 86.56 27.20 C 84.22 26.62 81.83 26.18 79.65 25.13 C 78.06 24.45 76.24 23.30 74.54 24.38 M 65.61 31.81 C 66.25 33.13 67.21 34.25 68.07 35.43 C 69.76 32.61 68.76 29.68 66.92 27.25 C 66.43 28.75 65.83 30.24 65.61 31.81 M 71.43 39.17 C 72.99 44.34 73.77 49.69 74.24 55.05 C 75.75 54.67 77.28 54.34 78.70 53.69 C 79.61 47.68 77.89 41.67 75.12 36.37 C 73.89 37.30 72.66 38.24 71.43 39.17 M 58.68 40.38 C 59.87 41.71 60.94 43.16 61.93 44.65 C 62.09 42.35 62.21 40.05 62.30 37.75 C 61.09 38.62 59.88 39.50 58.68 40.38 M 22.96 39.62 C 21.52 43.65 20.89 47.90 20.65 52.16 C 22.40 51.67 24.14 51.19 25.89 50.70 C 26.07 48.56 26.53 46.40 26.25 44.25 C 25.41 42.54 24.11 41.12 22.96 39.62 M 9.24 61.31 C 7.05 63.26 6.66 66.91 9.03 68.88 C 13.55 72.82 19.87 73.47 25.59 74.24 C 45.09 75.83 65.35 73.54 83.04 64.77 C 83.83 66.18 84.61 67.59 85.40 69.01 C 87.15 63.83 89.29 58.78 91.81 53.92 C 86.46 55.26 81.02 56.20 75.54 56.77 C 76.67 57.71 77.80 58.64 78.93 59.58 C 67.88 65.80 55.44 69.17 42.87 70.48 C 34.01 71.38 24.91 71.92 16.15 69.90 C 13.40 69.15 10.02 68.09 9.13 65.02 C 12.86 57.39 22.19 55.81 29.04 52.04 C 21.96 53.76 14.52 56.03 9.24 61.31 M 21.65 57.35 C 22.66 61.57 24.49 65.53 27.07 69.03 C 29.31 69.09 31.55 69.16 33.80 69.24 C 30.57 65.11 27.92 60.56 25.87 55.73 C 24.46 56.27 23.06 56.81 21.65 57.35 M 57.42 65.79 C 59.48 65.11 61.87 64.93 63.59 63.50 C 64.95 61.77 65.51 59.58 66.36 57.59 C 64.77 56.78 63.18 55.96 61.59 55.14 C 59.35 58.30 57.86 61.92 57.42 65.79 M 72.33 58.37 C 70.87 59.54 72.91 61.74 74.20 60.41 C 75.66 59.25 73.60 57.04 72.33 58.37 M 10.79 65.17 C 14.07 67.08 17.67 68.36 21.42 68.95 C 20.10 65.70 18.69 62.49 17.22 59.30 C 15.04 61.22 12.89 63.16 10.79 65.17 M 51.33 67.08 C 53.28 66.71 55.25 66.41 57.12 65.76 C 57.41 63.83 57.43 61.89 57.49 59.95 C 54.76 61.67 52.69 64.17 51.33 67.08 M 57.38 75.27 C 57.32 76.52 57.25 77.78 57.19 79.04 C 61.19 77.61 65.06 75.76 68.37 73.06 C 64.67 73.59 61.01 74.40 57.38 75.27 M 44.89 76.46 C 47.47 78.81 48.22 82.18 48.55 85.52 C 52.67 86.35 56.91 88.57 61.05 86.46 C 58.08 83.36 54.88 80.13 54.35 75.63 C 51.20 75.98 48.05 76.28 44.89 76.46 M 39.03 77.04 C 38.39 78.98 42.46 79.76 42.58 77.71 C 42.20 76.29 39.91 75.87 39.03 77.04 Z" />
<path fill="#ffffff" opacity="1.00" d=" M 63.52 13.30 C 66.11 11.86 70.66 12.80 70.89 16.25 C 71.36 19.98 68.20 22.81 66.41 25.75 C 65.72 25.27 64.35 24.30 63.66 23.82 C 64.60 21.46 65.57 19.05 65.55 16.46 C 64.56 17.73 63.46 18.95 62.81 20.45 C 62.54 23.18 64.22 25.72 64.08 28.44 C 63.34 31.45 62.05 34.33 60.58 37.05 C 57.84 37.43 55.10 36.88 52.38 36.64 C 53.66 37.27 54.96 37.87 56.27 38.46 C 54.56 41.42 53.44 45.27 55.45 48.38 C 58.21 51.85 62.85 51.96 66.88 52.45 C 66.88 53.72 66.88 55.00 66.88 56.27 C 65.32 55.62 63.82 54.75 62.14 54.44 C 59.41 55.29 57.72 57.85 55.56 59.57 C 55.86 58.28 56.17 56.99 56.49 55.70 C 55.49 55.56 54.50 55.42 53.50 55.26 C 54.12 56.23 54.73 57.20 55.34 58.17 C 52.64 60.09 49.44 61.57 47.52 64.38 C 47.42 65.62 47.73 66.84 47.91 68.05 C 46.91 67.89 45.92 67.73 44.93 67.57 C 45.44 65.33 45.75 62.94 47.05 60.99 C 48.38 58.99 50.87 58.49 52.96 57.69 C 49.93 57.27 46.30 57.57 44.11 55.02 C 41.50 52.21 39.19 48.26 39.98 44.31 C 42.74 39.76 46.83 36.18 51.01 32.96 C 46.87 34.95 42.51 36.43 38.33 38.32 C 35.52 39.43 35.22 42.82 34.00 45.21 C 33.53 44.04 33.07 42.88 32.61 41.71 C 31.06 41.83 29.42 42.47 27.92 41.87 C 26.97 40.81 26.22 39.58 25.42 38.40 C 27.96 37.88 30.66 37.91 33.08 36.93 C 36.64 34.42 39.29 30.89 42.47 27.94 C 43.34 28.72 44.22 29.49 45.09 30.27 C 46.55 27.84 48.20 25.54 50.03 23.38 C 52.21 24.96 54.16 26.85 55.33 29.32 C 52.55 28.91 49.81 28.32 47.03 27.88 C 49.93 29.50 53.19 30.20 56.45 30.65 C 56.34 26.82 53.45 24.43 50.65 22.32 C 53.79 21.26 56.96 20.31 60.14 19.37 C 60.98 17.26 61.20 14.37 63.52 13.30 M 58.14 20.48 C 59.00 22.31 60.15 24.02 60.73 25.97 C 60.25 27.30 59.55 28.53 58.88 29.77 C 57.86 27.31 56.92 24.82 55.91 22.36 C 56.69 25.62 57.41 28.90 58.01 32.20 C 59.58 30.03 61.63 27.85 61.57 24.99 C 62.07 22.75 59.39 21.85 58.14 20.48 M 47.13 51.53 C 48.39 49.67 49.82 47.92 51.30 46.23 C 48.92 44.33 46.44 42.55 43.94 40.80 C 45.60 44.21 48.73 47.46 47.13 51.53 Z" />
<path fill="#1a1a1a" opacity="1.00" d=" M 58.14 20.48 C 59.39 21.85 62.07 22.75 61.57 24.99 C 61.63 27.85 59.58 30.03 58.01 32.20 C 57.41 28.90 56.69 25.62 55.91 22.36 C 56.92 24.82 57.86 27.31 58.88 29.77 C 59.55 28.53 60.25 27.30 60.73 25.97 C 60.15 24.02 59.00 22.31 58.14 20.48 Z" />
<path fill="#b61c2e" opacity="1.00" d=" M 24.74 36.17 C 29.60 27.71 38.80 21.87 48.67 21.91 C 46.40 24.07 43.78 25.82 41.03 27.32 C 37.72 29.11 35.26 32.04 32.26 34.25 C 30.09 35.82 27.27 35.74 24.74 36.17 Z" />
<path fill="#fcfcfc" opacity="1.00" d=" M 74.54 24.38 C 76.24 23.30 78.06 24.45 79.65 25.13 C 81.83 26.18 84.22 26.62 86.56 27.20 C 82.56 29.08 79.18 31.91 76.26 35.20 C 76.82 33.72 77.41 32.25 77.96 30.78 C 75.21 32.79 72.70 35.13 70.00 37.21 C 70.73 35.21 71.55 33.25 72.45 31.32 C 71.62 30.45 70.79 29.59 69.97 28.72 C 71.43 27.21 72.75 25.51 74.54 24.38 M 75.37 28.94 C 73.60 29.71 75.25 31.94 76.63 30.80 C 78.44 30.05 76.75 27.84 75.37 28.94 Z" />
<path fill="#af1c2d" opacity="1.00" d=" M 65.61 31.81 C 65.83 30.24 66.43 28.75 66.92 27.25 C 68.76 29.68 69.76 32.61 68.07 35.43 C 67.21 34.25 66.25 33.13 65.61 31.81 Z" />
<path fill="#606060" opacity="1.00" d=" M 75.37 28.94 C 76.75 27.84 78.44 30.05 76.63 30.80 C 75.25 31.94 73.60 29.71 75.37 28.94 Z" />
<path fill="#b91c2e" opacity="1.00" d=" M 71.43 39.17 C 72.66 38.24 73.89 37.30 75.12 36.37 C 77.89 41.67 79.61 47.68 78.70 53.69 C 77.28 54.34 75.75 54.67 74.24 55.05 C 73.77 49.69 72.99 44.34 71.43 39.17 Z" />
<path fill="#ffffff" opacity="1.00" d=" M 58.68 40.38 C 59.88 39.50 61.09 38.62 62.30 37.75 C 62.21 40.05 62.09 42.35 61.93 44.65 C 60.94 43.16 59.87 41.71 58.68 40.38 Z" />
<path fill="#bb1c2f" opacity="1.00" d=" M 22.96 39.62 C 24.11 41.12 25.41 42.54 26.25 44.25 C 26.53 46.40 26.07 48.56 25.89 50.70 C 24.14 51.19 22.40 51.67 20.65 52.16 C 20.89 47.90 21.52 43.65 22.96 39.62 Z" />
<path fill="#1a1a1a" opacity="1.00" d=" M 47.13 51.53 C 48.73 47.46 45.60 44.21 43.94 40.80 C 46.44 42.55 48.92 44.33 51.30 46.23 C 49.82 47.92 48.39 49.67 47.13 51.53 Z" />
<path fill="#eead49" opacity="1.00" d=" M 9.24 61.31 C 14.52 56.03 21.96 53.76 29.04 52.04 C 22.19 55.81 12.86 57.39 9.13 65.02 C 10.02 68.09 13.40 69.15 16.15 69.90 C 24.91 71.92 34.01 71.38 42.87 70.48 C 55.44 69.17 67.88 65.80 78.93 59.58 C 77.80 58.64 76.67 57.71 75.54 56.77 C 81.02 56.20 86.46 55.26 91.81 53.92 C 89.29 58.78 87.15 63.83 85.40 69.01 C 84.61 67.59 83.83 66.18 83.04 64.77 C 65.35 73.54 45.09 75.83 25.59 74.24 C 19.87 73.47 13.55 72.82 9.03 68.88 C 6.66 66.91 7.05 63.26 9.24 61.31 Z" />
<path fill="#b61c2e" opacity="1.00" d=" M 21.65 57.35 C 23.06 56.81 24.46 56.27 25.87 55.73 C 27.92 60.56 30.57 65.11 33.80 69.24 C 31.55 69.16 29.31 69.09 27.07 69.03 C 24.49 65.53 22.66 61.57 21.65 57.35 Z" />
<path fill="#ffffff" opacity="1.00" d=" M 57.42 65.79 C 57.86 61.92 59.35 58.30 61.59 55.14 C 63.18 55.96 64.77 56.78 66.36 57.59 C 65.51 59.58 64.95 61.77 63.59 63.50 C 61.87 64.93 59.48 65.11 57.42 65.79 Z" />
<path fill="#9d1c2b" opacity="1.00" d=" M 72.33 58.37 C 73.60 57.04 75.66 59.25 74.20 60.41 C 72.91 61.74 70.87 59.54 72.33 58.37 Z" />
<path fill="#b3b3b3" opacity="1.00" d=" M 10.79 65.17 C 12.89 63.16 15.04 61.22 17.22 59.30 C 18.69 62.49 20.10 65.70 21.42 68.95 C 17.67 68.36 14.07 67.08 10.79 65.17 Z" />
<path fill="#ffffff" opacity="1.00" d=" M 51.33 67.08 C 52.69 64.17 54.76 61.67 57.49 59.95 C 57.43 61.89 57.41 63.83 57.12 65.76 C 55.25 66.41 53.28 66.71 51.33 67.08 Z" />
<path fill="#bb1c2f" opacity="1.00" d=" M 57.38 75.27 C 61.01 74.40 64.67 73.59 68.37 73.06 C 65.06 75.76 61.19 77.61 57.19 79.04 C 57.25 77.78 57.32 76.52 57.38 75.27 Z" />
<path fill="#ffffff" opacity="1.00" d=" M 44.89 76.46 C 48.05 76.28 51.20 75.98 54.35 75.63 C 54.88 80.13 58.08 83.36 61.05 86.46 C 56.91 88.57 52.67 86.35 48.55 85.52 C 48.22 82.18 47.47 78.81 44.89 76.46 Z" />
<path fill="#b11c2d" opacity="1.00" d=" M 39.03 77.04 C 39.91 75.87 42.20 76.29 42.58 77.71 C 42.46 79.76 38.39 78.98 39.03 77.04 Z" />
</svg>
