<?xml version="1.0" encoding="UTF-8" ?>
<!DOCTYPE svg PUBLIC "-//W3C//DTD SVG 1.1//EN" "http://www.w3.org/Graphics/SVG/1.1/DTD/svg11.dtd">
<svg width="100pt" height="100pt" viewBox="0 0 100 100" version="1.1" xmlns="http://www.w3.org/2000/svg">
<path fill="#b6b6b6" opacity="1.00" d=" M 25.95 5.53 C 29.28 6.01 32.83 6.33 35.67 8.31 C 38.80 10.36 40.85 13.66 43.87 15.82 C 46.33 16.71 49.05 16.60 51.51 17.51 C 53.55 19.16 55.20 21.50 57.97 21.96 C 68.26 24.43 77.21 31.73 81.72 41.29 C 84.08 46.04 84.73 51.36 85.71 56.51 C 88.32 55.94 90.95 54.85 93.67 55.16 C 95.28 55.98 97.20 57.91 96.28 59.86 C 94.28 64.36 91.57 68.58 90.36 73.41 C 89.52 75.47 89.38 78.57 86.86 79.31 C 84.04 80.34 82.11 77.47 80.13 75.99 C 77.65 79.47 74.50 82.36 71.71 85.57 C 70.61 88.09 72.22 91.75 69.42 93.44 C 66.87 95.48 63.46 94.64 60.91 93.10 C 58.71 91.58 56.07 92.43 53.64 92.63 C 49.95 93.17 46.22 92.78 42.53 92.51 C 38.77 92.15 35.17 95.39 31.47 93.56 C 27.69 92.07 30.10 86.29 26.19 84.79 C 21.39 82.75 15.89 83.11 11.11 80.90 C 6.63 79.20 2.10 75.22 2.48 70.02 C 3.38 64.56 8.38 61.34 12.72 58.65 C 13.15 51.09 14.59 43.35 19.00 37.01 C 23.00 30.53 29.46 26.14 36.23 22.96 C 33.60 20.19 30.59 17.75 28.38 14.60 C 26.48 11.98 26.40 8.61 25.95 5.53 M 28.12 7.78 C 29.04 15.45 36.38 19.38 40.89 24.84 C 33.57 27.43 26.51 31.53 22.16 38.15 C 17.58 44.38 16.13 52.18 16.01 59.76 C 11.70 62.35 6.14 64.74 4.79 70.09 C 3.93 74.83 8.37 78.27 12.35 79.67 C 18.82 82.49 26.39 81.30 32.54 84.99 C 31.84 86.98 31.17 88.98 30.54 90.99 C 32.02 91.43 33.44 92.29 35.03 92.29 C 37.98 91.44 40.39 88.59 43.70 89.36 C 48.70 90.00 53.75 89.67 58.67 88.65 C 61.29 90.67 64.47 94.24 68.03 92.02 C 70.79 90.26 68.10 86.92 67.26 84.74 C 72.03 80.87 75.65 75.28 81.87 73.57 C 82.73 74.97 83.58 76.39 84.44 77.79 C 85.02 77.81 86.17 77.84 86.75 77.86 C 88.22 73.67 89.46 69.38 91.51 65.42 C 92.69 62.82 95.04 60.03 93.23 57.14 C 89.60 58.14 85.94 59.02 82.27 59.87 C 82.17 51.72 80.47 43.29 75.19 36.83 C 69.83 29.54 61.28 25.54 52.58 23.87 C 51.99 22.27 52.04 20.26 50.75 19.02 C 48.82 19.04 46.91 19.43 45.01 19.76 C 39.51 15.57 35.80 8.15 28.12 7.78 Z" />
<path fill="#1a1a1a" opacity="1.00" d=" M 28.12 7.78 C 35.80 8.15 39.51 15.57 45.01 19.76 C 46.91 19.43 48.82 19.04 50.75 19.02 C 52.04 20.26 51.99 22.27 52.58 23.87 C 61.28 25.54 69.83 29.54 75.19 36.83 C 80.47 43.29 82.17 51.72 82.27 59.87 C 85.94 59.02 89.60 58.14 93.23 57.14 C 95.04 60.03 92.69 62.82 91.51 65.42 C 89.46 69.38 88.22 73.67 86.75 77.86 C 86.17 77.84 85.02 77.81 84.44 77.79 C 83.58 76.39 82.73 74.97 81.87 73.57 C 75.65 75.28 72.03 80.87 67.26 84.74 C 68.10 86.92 70.79 90.26 68.03 92.02 C 64.47 94.24 61.29 90.67 58.67 88.65 C 53.75 89.67 48.70 90.00 43.70 89.36 C 40.39 88.59 37.98 91.44 35.03 92.29 C 33.44 92.29 32.02 91.43 30.54 90.99 C 31.17 88.98 31.84 86.98 32.54 84.99 C 26.39 81.30 18.82 82.49 12.35 79.67 C 8.37 78.27 3.93 74.83 4.79 70.09 C 6.14 64.74 11.70 62.35 16.01 59.76 C 16.13 52.18 17.58 44.38 22.16 38.15 C 26.51 31.53 33.57 27.43 40.89 24.84 C 36.38 19.38 29.04 15.45 28.12 7.78 M 30.74 9.99 C 33.76 16.90 41.05 20.54 44.76 27.06 C 44.12 28.31 43.49 29.55 42.87 30.82 C 44.03 30.17 45.18 29.51 46.33 28.87 C 45.83 30.81 45.30 32.74 44.77 34.68 C 44.59 34.86 44.23 35.22 44.05 35.40 C 46.48 41.83 46.85 48.80 46.25 55.58 C 44.38 59.49 41.40 62.86 40.45 67.20 C 44.09 65.77 47.69 64.20 51.42 62.98 C 52.07 63.60 52.65 64.29 53.24 64.97 C 51.04 64.11 49.01 65.09 47.55 66.74 C 44.96 66.10 42.48 67.20 40.06 67.99 C 39.40 70.29 38.66 72.56 37.91 74.84 C 40.00 74.68 42.09 74.52 44.18 74.36 C 43.21 73.23 42.22 72.12 41.23 71.01 C 42.77 71.68 44.23 72.97 45.95 72.98 C 48.37 72.18 50.78 71.32 53.34 71.07 C 53.27 70.36 53.13 68.92 53.06 68.20 C 53.94 69.22 54.75 70.31 55.80 71.17 C 58.33 73.55 60.72 67.11 57.81 66.28 C 56.67 63.19 55.48 60.13 54.20 57.10 C 54.46 56.40 54.98 55.00 55.24 54.30 C 58.41 56.43 61.25 59.24 65.06 60.17 C 64.45 55.75 59.15 54.99 58.03 50.92 C 57.25 48.48 55.64 46.54 53.34 45.39 C 53.49 46.52 53.65 47.64 53.81 48.76 C 52.78 48.21 51.75 47.65 50.72 47.10 C 49.89 50.45 49.67 53.91 48.81 57.25 C 48.76 54.23 48.88 51.17 48.11 48.21 C 50.28 46.12 52.85 44.50 55.59 43.25 C 55.58 41.84 56.34 40.06 54.90 39.08 C 53.39 37.40 51.23 38.87 49.48 39.27 L 48.96 38.81 C 48.92 35.88 48.94 32.94 49.11 30.01 C 50.38 31.05 51.62 32.11 52.89 33.15 C 53.06 32.74 53.41 31.91 53.58 31.50 C 51.57 29.91 49.69 28.05 48.74 25.61 C 48.91 24.01 49.64 22.53 50.13 21.01 C 49.06 21.79 47.99 22.57 46.93 23.36 C 40.68 19.91 37.02 13.33 30.74 9.99 M 52.80 27.19 C 55.11 31.61 59.27 34.22 63.58 36.40 C 71.97 41.33 74.32 51.73 73.89 60.80 C 75.54 60.51 77.19 60.23 78.84 59.95 C 79.48 52.54 77.69 44.90 73.08 38.98 C 68.34 32.37 60.67 28.57 52.80 27.19 M 26.27 39.32 C 25.55 38.89 24.83 38.47 24.10 38.06 C 23.80 38.88 23.50 39.70 23.21 40.52 C 30.25 43.82 36.93 47.89 44.09 50.92 C 39.87 46.98 34.48 44.66 29.75 41.42 C 33.45 37.86 37.60 34.75 42.40 32.85 C 41.65 31.51 40.91 30.16 40.18 28.81 C 34.59 30.77 29.47 34.24 26.27 39.32 M 59.93 47.98 C 63.40 46.71 67.13 45.36 69.39 42.24 C 65.92 43.57 62.80 45.65 59.93 47.98 M 23.27 43.10 C 21.30 47.82 20.21 52.85 20.15 57.97 C 21.83 57.49 23.51 57.00 25.20 56.52 C 25.91 52.39 26.80 48.29 27.74 44.21 C 26.25 43.83 24.76 43.47 23.27 43.10 M 59.86 51.68 C 63.31 51.27 67.89 52.31 70.29 49.18 C 66.70 49.43 63.17 50.29 59.86 51.68 M 29.44 50.96 C 34.03 53.18 39.26 52.55 44.19 52.60 C 39.38 51.38 34.41 50.65 29.44 50.96 M 11.39 64.35 C 9.20 65.93 6.77 68.05 6.77 70.98 C 6.98 74.23 10.14 76.08 12.85 77.16 C 19.28 79.56 26.23 80.02 33.02 80.31 C 45.09 80.49 57.29 79.38 68.88 75.89 C 73.90 74.42 78.61 72.13 83.48 70.24 C 84.17 71.80 84.86 73.35 85.56 74.91 C 87.05 69.45 89.34 64.27 91.94 59.26 C 86.69 60.70 81.32 61.68 75.88 62.11 C 76.87 63.10 77.86 64.09 78.85 65.07 C 62.83 74.01 44.10 77.14 25.92 76.73 C 20.51 76.49 14.59 76.22 10.04 72.94 C 7.97 71.56 8.81 68.73 10.42 67.37 C 15.80 62.10 23.33 60.22 29.99 57.14 C 23.46 58.49 16.93 60.54 11.39 64.35 M 29.74 64.02 C 34.56 63.20 38.96 60.90 43.06 58.33 C 38.68 60.25 32.99 60.21 29.74 64.02 M 58.77 60.14 C 61.17 63.15 63.89 65.96 67.23 67.94 C 65.27 64.54 62.11 62.08 58.77 60.14 M 21.06 63.24 C 22.24 67.23 23.46 71.49 26.52 74.49 C 28.77 75.66 31.53 74.97 33.99 75.13 C 30.42 71.23 27.58 66.72 25.73 61.75 C 24.17 62.24 22.62 62.74 21.06 63.24 M 72.35 64.34 C 70.32 65.08 71.65 67.98 73.49 66.67 C 75.61 65.99 74.18 63.02 72.35 64.34 M 10.57 71.75 C 13.90 73.30 17.45 74.33 21.08 74.90 C 19.88 71.66 18.48 68.51 16.97 65.41 C 14.39 67.02 11.75 68.80 10.57 71.75 M 65.37 79.22 C 64.23 80.61 66.67 81.98 67.51 80.57 C 68.64 79.19 66.21 77.82 65.37 79.22 M 60.16 83.89 C 59.92 86.54 61.95 88.47 63.72 90.12 C 64.45 89.43 65.18 88.75 65.91 88.07 C 64.54 85.36 63.83 82.00 61.01 80.38 C 58.56 78.46 57.21 83.76 60.16 83.89 M 43.19 82.92 C 42.90 83.45 42.32 84.52 42.03 85.05 C 47.36 86.04 52.86 86.16 58.12 84.74 C 57.38 83.72 56.88 82.46 55.85 81.70 C 51.60 81.45 47.39 82.41 43.19 82.92 M 32.74 90.34 C 34.45 90.02 37.30 90.31 37.60 87.99 C 39.70 89.29 42.14 85.31 39.52 84.53 C 39.93 84.10 40.74 83.24 41.14 82.80 C 39.88 82.86 38.62 82.97 37.37 83.15 C 35.25 85.09 34.00 87.80 32.74 90.34 M 66.09 88.96 C 64.77 89.67 64.77 90.34 66.08 90.99 C 67.39 90.28 67.40 89.60 66.09 88.96 Z" />
<path fill="#ffffff" opacity="1.00" d=" M 30.74 9.99 C 37.02 13.33 40.68 19.91 46.93 23.36 C 47.99 22.57 49.06 21.79 50.13 21.01 C 49.64 22.53 48.91 24.01 48.74 25.61 C 49.69 28.05 51.57 29.91 53.58 31.50 C 53.41 31.91 53.06 32.74 52.89 33.15 C 51.62 32.11 50.38 31.05 49.11 30.01 C 47.71 31.61 46.28 33.18 44.77 34.68 C 45.30 32.74 45.83 30.81 46.33 28.87 C 45.18 29.51 44.03 30.17 42.87 30.82 C 43.49 29.55 44.12 28.31 44.76 27.06 C 41.05 20.54 33.76 16.90 30.74 9.99 M 44.22 23.23 C 43.74 24.60 44.20 25.11 45.62 24.75 C 46.10 23.37 45.64 22.86 44.22 23.23 Z" />
<path fill="#1a1a1a" opacity="1.00" d=" M 44.22 23.23 C 45.64 22.86 46.10 23.37 45.62 24.75 C 44.20 25.11 43.74 24.60 44.22 23.23 Z" />
<path fill="#b61c2e" opacity="1.00" d=" M 52.80 27.19 C 60.67 28.57 68.34 32.37 73.08 38.98 C 77.69 44.90 79.48 52.54 78.84 59.95 C 77.19 60.23 75.54 60.51 73.89 60.80 C 74.32 51.73 71.97 41.33 63.58 36.40 C 59.27 34.22 55.11 31.61 52.80 27.19 Z" />
<path fill="#b51c2e" opacity="1.00" d=" M 26.27 39.32 C 29.47 34.24 34.59 30.77 40.18 28.81 C 40.91 30.16 41.65 31.51 42.40 32.85 C 37.60 34.75 33.45 37.86 29.75 41.42 C 28.60 40.71 27.44 40.01 26.27 39.32 Z" />
<path fill="#a1a1a1" opacity="1.00" d=" M 44.77 34.68 C 46.28 33.18 47.71 31.61 49.11 30.01 C 48.94 32.94 48.92 35.88 48.96 38.81 C 47.52 37.42 45.81 36.34 44.05 35.40 C 44.23 35.22 44.59 34.86 44.77 34.68 Z" />
<path fill="#ffffff" opacity="1.00" d=" M 44.05 35.40 C 45.81 36.34 47.52 37.42 48.96 38.81 L 49.48 39.27 C 51.23 38.87 53.39 37.40 54.90 39.08 C 56.34 40.06 55.58 41.84 55.59 43.25 C 52.85 44.50 50.28 46.12 48.11 48.21 C 48.88 51.17 48.76 54.23 48.81 57.25 C 49.67 53.91 49.89 50.45 50.72 47.10 C 51.75 47.65 52.78 48.21 53.81 48.76 C 53.65 47.64 53.49 46.52 53.34 45.39 C 55.64 46.54 57.25 48.48 58.03 50.92 C 59.15 54.99 64.45 55.75 65.06 60.17 C 61.25 59.24 58.41 56.43 55.24 54.30 C 54.98 55.00 54.46 56.40 54.20 57.10 C 51.75 58.94 48.54 58.24 45.71 58.27 C 47.68 59.76 49.63 61.28 51.42 62.98 C 47.69 64.20 44.09 65.77 40.45 67.20 C 41.40 62.86 44.38 59.49 46.25 55.58 C 46.85 48.80 46.48 41.83 44.05 35.40 M 56.11 50.72 C 54.98 51.28 55.42 53.67 56.83 53.30 C 57.94 52.73 57.52 50.35 56.11 50.72 M 45.26 60.25 C 44.80 61.64 45.27 62.12 46.67 61.69 C 47.14 60.29 46.67 59.81 45.26 60.25 Z" />
<path fill="#ffffff" opacity="1.00" d=" M 24.10 38.06 C 24.83 38.47 25.55 38.89 26.27 39.32 C 27.44 40.01 28.60 40.71 29.75 41.42 C 34.48 44.66 39.87 46.98 44.09 50.92 C 36.93 47.89 30.25 43.82 23.21 40.52 C 23.50 39.70 23.80 38.88 24.10 38.06 Z" />
<path fill="#ffffff" opacity="1.00" d=" M 59.93 47.98 C 62.80 45.65 65.92 43.57 69.39 42.24 C 67.13 45.36 63.40 46.71 59.93 47.98 Z" />
<path fill="#b71c2e" opacity="1.00" d=" M 23.27 43.10 C 24.76 43.47 26.25 43.83 27.74 44.21 C 26.80 48.29 25.91 52.39 25.20 56.52 C 23.51 57.00 21.83 57.49 20.15 57.97 C 20.21 52.85 21.30 47.82 23.27 43.10 Z" />
<path fill="#cdcdcd" opacity="1.00" d=" M 59.86 51.68 C 63.17 50.29 66.70 49.43 70.29 49.18 C 67.89 52.31 63.31 51.27 59.86 51.68 Z" />
<path fill="#525252" opacity="1.00" d=" M 56.11 50.72 C 57.52 50.35 57.94 52.73 56.83 53.30 C 55.42 53.67 54.98 51.28 56.11 50.72 Z" />
<path fill="#ffffff" opacity="1.00" d=" M 29.44 50.96 C 34.41 50.65 39.38 51.38 44.19 52.60 C 39.26 52.55 34.03 53.18 29.44 50.96 Z" />
<path fill="#ecac49" opacity="1.00" d=" M 11.39 64.35 C 16.93 60.54 23.46 58.49 29.99 57.14 C 23.33 60.22 15.80 62.10 10.42 67.37 C 8.81 68.73 7.97 71.56 10.04 72.94 C 14.59 76.22 20.51 76.49 25.92 76.73 C 44.10 77.14 62.83 74.01 78.85 65.07 C 77.86 64.09 76.87 63.10 75.88 62.11 C 81.32 61.68 86.69 60.70 91.94 59.26 C 89.34 64.27 87.05 69.45 85.56 74.91 C 84.86 73.35 84.17 71.80 83.48 70.24 C 78.61 72.13 73.90 74.42 68.88 75.89 C 57.29 79.38 45.09 80.49 33.02 80.31 C 26.23 80.02 19.28 79.56 12.85 77.16 C 10.14 76.08 6.98 74.23 6.77 70.98 C 6.77 68.05 9.20 65.93 11.39 64.35 Z" />
<path fill="#cdcdcd" opacity="1.00" d=" M 54.20 57.10 C 55.48 60.13 56.67 63.19 57.81 66.28 C 56.30 65.78 54.78 65.34 53.24 64.97 C 52.65 64.29 52.07 63.60 51.42 62.98 C 49.63 61.28 47.68 59.76 45.71 58.27 C 48.54 58.24 51.75 58.94 54.20 57.10 Z" />
<path fill="#ffffff" opacity="1.00" d=" M 29.74 64.02 C 32.99 60.21 38.68 60.25 43.06 58.33 C 38.96 60.90 34.56 63.20 29.74 64.02 Z" />
<path fill="#1a1a1a" opacity="1.00" d=" M 45.26 60.25 C 46.67 59.81 47.14 60.29 46.67 61.69 C 45.27 62.12 44.80 61.64 45.26 60.25 Z" />
<path fill="#ffffff" opacity="1.00" d=" M 58.77 60.14 C 62.11 62.08 65.27 64.54 67.23 67.94 C 63.89 65.96 61.17 63.15 58.77 60.14 Z" />
<path fill="#b61c2e" opacity="1.00" d=" M 21.06 63.24 C 22.62 62.74 24.17 62.24 25.73 61.75 C 27.58 66.72 30.42 71.23 33.99 75.13 C 31.53 74.97 28.77 75.66 26.52 74.49 C 23.46 71.49 22.24 67.23 21.06 63.24 Z" />
<path fill="#c41c30" opacity="1.00" d=" M 72.35 64.34 C 74.18 63.02 75.61 65.99 73.49 66.67 C 71.65 67.98 70.32 65.08 72.35 64.34 Z" />
<path fill="#ffffff" opacity="1.00" d=" M 47.55 66.74 C 49.01 65.09 51.04 64.11 53.24 64.97 C 54.78 65.34 56.30 65.78 57.81 66.28 C 60.72 67.11 58.33 73.55 55.80 71.17 C 54.75 70.31 53.94 69.22 53.06 68.20 C 53.13 68.92 53.27 70.36 53.34 71.07 C 50.78 71.32 48.37 72.18 45.95 72.98 C 44.23 72.97 42.77 71.68 41.23 71.01 C 42.22 72.12 43.21 73.23 44.18 74.36 C 42.09 74.52 40.00 74.68 37.91 74.84 C 38.66 72.56 39.40 70.29 40.06 67.99 C 42.48 67.20 44.96 66.10 47.55 66.74 Z" />
<path fill="#b3b3b3" opacity="1.00" d=" M 10.57 71.75 C 11.75 68.80 14.39 67.02 16.97 65.41 C 18.48 68.51 19.88 71.66 21.08 74.90 C 17.45 74.33 13.90 73.30 10.57 71.75 Z" />
<path fill="#a51c2c" opacity="1.00" d=" M 65.37 79.22 C 66.21 77.82 68.64 79.19 67.51 80.57 C 66.67 81.98 64.23 80.61 65.37 79.22 Z" />
<path fill="#808080" opacity="1.00" d=" M 60.16 83.89 C 57.21 83.76 58.56 78.46 61.01 80.38 C 60.76 81.56 60.44 82.72 60.16 83.89 Z" />
<path fill="#c41c30" opacity="1.00" d=" M 43.19 82.92 C 47.39 82.41 51.60 81.45 55.85 81.70 C 56.88 82.46 57.38 83.72 58.12 84.74 C 52.86 86.16 47.36 86.04 42.03 85.05 C 42.32 84.52 42.90 83.45 43.19 82.92 Z" />
<path fill="#ffffff" opacity="1.00" d=" M 60.16 83.89 C 60.44 82.72 60.76 81.56 61.01 80.38 C 63.83 82.00 64.54 85.36 65.91 88.07 C 65.18 88.75 64.45 89.43 63.72 90.12 C 61.95 88.47 59.92 86.54 60.16 83.89 Z" />
<path fill="#ffffff" opacity="1.00" d=" M 32.74 90.34 C 34.00 87.80 35.25 85.09 37.37 83.15 C 38.62 82.97 39.88 82.86 41.14 82.80 C 40.74 83.24 39.93 84.10 39.52 84.53 C 38.46 85.41 37.93 86.69 37.60 87.99 C 37.30 90.31 34.45 90.02 32.74 90.34 Z" />
<path fill="#7f7f7f" opacity="1.00" d=" M 37.60 87.99 C 37.93 86.69 38.46 85.41 39.52 84.53 C 42.14 85.31 39.70 89.29 37.60 87.99 Z" />
<path fill="#dedede" opacity="1.00" d=" M 66.09 88.96 C 67.40 89.60 67.39 90.28 66.08 90.99 C 64.77 90.34 64.77 89.67 66.09 88.96 Z" />
</svg>
