<?xml version="1.0" encoding="UTF-8" ?>
<!DOCTYPE svg PUBLIC "-//W3C//DTD SVG 1.1//EN" "http://www.w3.org/Graphics/SVG/1.1/DTD/svg11.dtd">
<svg width="100pt" height="100pt" viewBox="0 0 100 100" version="1.1" xmlns="http://www.w3.org/2000/svg">
<path fill="#bababa" opacity="1.00" d=" M 38.73 34.05 C 42.50 28.45 46.03 22.69 49.94 17.19 C 53.77 22.68 57.26 28.40 61.10 33.88 C 63.74 32.83 66.34 31.60 69.13 30.99 C 71.75 30.21 74.46 33.18 73.55 35.73 C 72.57 39.36 70.67 42.64 68.99 45.98 C 76.38 57.24 83.84 68.47 91.20 79.75 C 63.56 79.80 35.92 79.58 8.28 79.86 C 15.93 68.79 23.35 57.55 30.56 46.19 C 28.73 42.85 26.80 39.49 25.77 35.80 C 24.83 33.36 27.34 30.35 29.91 30.95 C 32.97 31.58 35.82 32.93 38.73 34.05 M 49.64 23.90 C 46.70 28.31 43.87 32.80 40.81 37.14 C 37.01 35.45 33.13 33.94 29.18 32.61 C 28.66 33.01 27.61 33.81 27.09 34.21 C 28.70 38.88 31.02 43.26 33.90 47.26 C 28.03 57.14 21.10 66.33 15.05 76.10 C 28.37 76.48 41.69 76.13 55.00 76.24 C 65.08 76.15 75.15 76.49 85.22 76.07 C 79.20 66.10 72.13 56.82 65.93 46.96 C 68.16 42.64 71.86 38.45 71.58 33.33 C 67.15 32.29 63.11 35.53 59.07 36.92 C 55.89 32.61 53.32 27.83 49.64 23.90 Z" />
<path fill="#217a7a" opacity="1.00" d=" M 49.64 23.90 C 53.32 27.83 55.89 32.61 59.07 36.92 C 63.11 35.53 67.15 32.29 71.58 33.33 C 71.86 38.45 68.16 42.64 65.93 46.96 C 72.13 56.82 79.20 66.10 85.22 76.07 C 75.15 76.49 65.08 76.15 55.00 76.24 C 41.69 76.13 28.37 76.48 15.05 76.10 C 21.10 66.33 28.03 57.14 33.90 47.26 C 31.02 43.26 28.70 38.88 27.09 34.21 C 27.61 33.81 28.66 33.01 29.18 32.61 C 33.13 33.94 37.01 35.45 40.81 37.14 C 43.87 32.80 46.70 28.31 49.64 23.90 M 49.45 31.66 C 48.56 34.39 47.74 37.13 46.95 39.88 C 45.81 39.39 44.68 38.90 43.53 38.43 C 46.37 44.35 51.84 48.25 56.75 52.33 C 62.27 47.47 67.45 41.94 69.84 34.82 C 63.85 36.43 58.85 40.15 54.30 44.22 C 52.80 39.99 51.32 35.75 49.45 31.66 M 29.70 34.96 C 31.21 39.20 33.31 43.29 36.54 46.48 C 43.57 53.68 50.67 60.85 58.18 67.55 C 59.96 65.61 61.84 63.78 63.80 62.03 C 56.60 55.29 49.07 48.88 42.06 41.93 C 38.74 38.40 34.24 36.41 29.70 34.96 M 62.07 50.14 C 60.63 51.47 59.18 52.81 57.75 54.15 C 59.07 54.98 60.36 55.90 61.81 56.52 C 64.05 55.65 66.12 54.37 68.24 53.22 C 66.18 52.19 64.13 51.17 62.07 50.14 M 31.84 53.53 C 33.77 54.07 35.70 54.60 37.64 55.12 C 37.26 55.71 36.87 56.30 36.49 56.89 C 37.70 57.01 38.91 57.12 40.12 57.24 C 38.62 58.97 37.07 60.66 35.52 62.35 C 37.60 63.99 39.59 65.75 41.47 67.61 C 43.64 65.43 45.83 63.28 48.00 61.10 C 44.42 57.52 40.77 53.98 36.89 50.71 C 35.21 51.65 33.52 52.58 31.84 53.53 M 28.56 61.07 C 30.04 67.80 35.77 73.44 42.71 74.19 C 42.71 73.48 42.73 72.06 42.74 71.36 C 37.72 69.27 33.65 65.47 31.61 60.39 C 30.60 60.63 29.58 60.85 28.56 61.07 M 67.65 60.46 C 66.31 62.79 64.93 65.09 63.50 67.36 C 63.51 66.01 63.53 64.67 63.54 63.32 C 62.34 64.42 61.14 65.53 59.95 66.65 C 60.33 67.14 61.10 68.13 61.49 68.62 C 59.74 69.55 57.98 70.48 56.22 71.39 C 56.52 72.38 56.80 73.36 57.08 74.36 C 63.83 72.99 69.19 67.60 70.96 61.00 C 69.85 60.82 68.75 60.64 67.65 60.46 M 48.86 61.69 C 46.75 65.21 48.09 69.01 49.80 72.35 C 50.78 70.24 52.08 68.22 52.59 65.93 C 51.54 64.35 50.15 63.06 48.86 61.69 M 35.68 64.33 C 35.07 65.81 37.18 67.93 38.66 67.33 C 39.33 65.83 37.19 63.66 35.68 64.33 M 31.09 70.35 C 30.60 71.74 31.07 72.23 32.48 71.83 C 32.97 70.44 32.50 69.94 31.09 70.35 M 66.59 69.63 C 67.33 72.90 69.88 74.69 73.07 75.17 C 71.32 72.89 69.12 71.00 66.59 69.63 M 26.62 74.93 C 28.08 74.59 29.53 74.23 30.98 73.88 C 30.63 72.89 30.28 71.90 29.92 70.91 C 28.82 72.26 27.70 73.58 26.62 74.93 Z" />
<path fill="#ffffff" opacity="1.00" d=" M 49.45 31.66 C 51.32 35.75 52.80 39.99 54.30 44.22 C 58.85 40.15 63.85 36.43 69.84 34.82 C 67.45 41.94 62.27 47.47 56.75 52.33 C 51.84 48.25 46.37 44.35 43.53 38.43 C 44.68 38.90 45.81 39.39 46.95 39.88 C 47.74 37.13 48.56 34.39 49.45 31.66 Z" />
<path fill="#ffffff" opacity="1.00" d=" M 29.70 34.96 C 34.24 36.41 38.74 38.40 42.06 41.93 C 49.07 48.88 56.60 55.29 63.80 62.03 C 61.84 63.78 59.96 65.61 58.18 67.55 C 50.67 60.85 43.57 53.68 36.54 46.48 C 33.31 43.29 31.21 39.20 29.70 34.96 Z" />
<path fill="#ffffff" opacity="1.00" d=" M 62.07 50.14 C 64.13 51.17 66.18 52.19 68.24 53.22 C 66.12 54.37 64.05 55.65 61.81 56.52 C 60.36 55.90 59.07 54.98 57.75 54.15 C 59.18 52.81 60.63 51.47 62.07 50.14 Z" />
<path fill="#ffffff" opacity="1.00" d=" M 31.84 53.53 C 33.52 52.58 35.21 51.65 36.89 50.71 C 40.77 53.98 44.42 57.52 48.00 61.10 C 45.83 63.28 43.64 65.43 41.47 67.61 C 39.59 65.75 37.60 63.99 35.52 62.35 C 37.07 60.66 38.62 58.97 40.12 57.24 C 38.91 57.12 37.70 57.01 36.49 56.89 C 36.87 56.30 37.26 55.71 37.64 55.12 C 35.70 54.60 33.77 54.07 31.84 53.53 Z" />
<path fill="#ffffff" opacity="1.00" d=" M 28.56 61.07 C 29.58 60.85 30.60 60.63 31.61 60.39 C 33.65 65.47 37.72 69.27 42.74 71.36 C 42.73 72.06 42.71 73.48 42.71 74.19 C 35.77 73.44 30.04 67.80 28.56 61.07 Z" />
<path fill="#ffffff" opacity="1.00" d=" M 67.65 60.46 C 68.75 60.64 69.85 60.82 70.96 61.00 C 69.19 67.60 63.83 72.99 57.08 74.36 C 56.80 73.36 56.52 72.38 56.22 71.39 C 57.98 70.48 59.74 69.55 61.49 68.62 C 61.10 68.13 60.33 67.14 59.95 66.65 C 61.14 65.53 62.34 64.42 63.54 63.32 C 63.53 64.67 63.51 66.01 63.50 67.36 C 64.93 65.09 66.31 62.79 67.65 60.46 Z" />
<path fill="#ffffff" opacity="1.00" d=" M 48.86 61.69 C 50.15 63.06 51.54 64.35 52.59 65.93 C 52.08 68.22 50.78 70.24 49.80 72.35 C 48.09 69.01 46.75 65.21 48.86 61.69 Z" />
<path fill="#fdfefe" opacity="1.00" d=" M 35.68 64.33 C 37.19 63.66 39.33 65.83 38.66 67.33 C 37.18 67.93 35.07 65.81 35.68 64.33 Z" />
<path fill="#d9e8e8" opacity="1.00" d=" M 31.09 70.35 C 32.50 69.94 32.97 70.44 32.48 71.83 C 31.07 72.23 30.60 71.74 31.09 70.35 Z" />
<path fill="#ffffff" opacity="1.00" d=" M 66.59 69.63 C 69.12 71.00 71.32 72.89 73.07 75.17 C 69.88 74.69 67.33 72.90 66.59 69.63 Z" />
<path fill="#ffffff" opacity="1.00" d=" M 26.62 74.93 C 27.70 73.58 28.82 72.26 29.92 70.91 C 30.28 71.90 30.63 72.89 30.98 73.88 C 29.53 74.23 28.08 74.59 26.62 74.93 Z" />
</svg>
