<?xml version="1.0" encoding="UTF-8" ?>
<!DOCTYPE svg PUBLIC "-//W3C//DTD SVG 1.1//EN" "http://www.w3.org/Graphics/SVG/1.1/DTD/svg11.dtd">
<svg width="100pt" height="100pt" viewBox="0 0 100 100" version="1.1" xmlns="http://www.w3.org/2000/svg">
<path fill="#bab9b9" opacity="1.00" d=" M 43.33 28.34 C 45.78 25.99 47.43 22.97 49.41 20.24 C 51.50 22.93 53.24 25.93 55.74 28.28 C 58.34 29.24 61.09 30.18 63.88 30.31 C 67.91 29.29 71.68 27.47 75.64 26.21 C 76.06 29.61 76.72 33.17 75.36 36.46 C 74.93 38.30 73.66 40.21 74.42 42.13 C 77.67 42.75 80.97 43.07 84.23 43.61 C 81.61 48.03 78.44 52.10 74.97 55.88 C 80.73 63.79 86.37 71.77 92.05 79.73 C 64.04 79.67 36.04 79.65 8.03 79.39 C 13.34 71.56 18.86 63.88 24.26 56.11 C 20.75 52.09 17.39 47.92 14.54 43.40 C 18.12 42.89 21.71 42.51 25.30 42.14 C 23.13 37.47 21.35 32.61 20.88 27.43 C 25.76 27.63 30.46 28.89 35.11 30.22 C 37.92 30.16 40.68 29.22 43.33 28.34 M 49.34 25.76 C 47.86 27.66 46.39 29.56 44.91 31.46 C 40.76 31.65 36.55 32.48 32.43 31.56 C 29.26 30.90 26.10 30.16 22.92 29.58 C 24.53 34.32 26.59 39.02 26.70 44.11 C 23.81 44.41 20.93 44.70 18.05 45.04 C 21.01 49.13 24.22 53.03 27.42 56.93 C 22.94 63.51 18.18 69.90 13.90 76.62 C 37.98 76.63 62.07 76.65 86.15 76.61 C 82.05 69.51 75.92 63.68 72.39 56.28 C 74.86 52.33 78.24 49.06 80.96 45.29 C 78.16 44.78 75.15 44.74 72.62 43.31 C 71.52 38.57 74.27 33.78 74.45 28.97 C 70.95 30.07 67.54 31.65 63.85 32.05 C 60.61 32.18 57.40 31.60 54.17 31.42 C 52.56 29.53 50.96 27.64 49.34 25.76 Z" />
<path fill="#217a7a" opacity="1.00" d=" M 49.34 25.76 C 50.96 27.64 52.56 29.53 54.17 31.42 C 57.40 31.60 60.61 32.18 63.85 32.05 C 67.54 31.65 70.95 30.07 74.45 28.97 C 74.27 33.78 71.52 38.57 72.62 43.31 C 75.15 44.74 78.16 44.78 80.96 45.29 C 78.24 49.06 74.86 52.33 72.39 56.28 C 75.92 63.68 82.05 69.51 86.15 76.61 C 62.07 76.65 37.98 76.63 13.90 76.62 C 18.18 69.90 22.94 63.51 27.42 56.93 C 24.22 53.03 21.01 49.13 18.05 45.04 C 20.93 44.70 23.81 44.41 26.70 44.11 C 26.59 39.02 24.53 34.32 22.92 29.58 C 26.10 30.16 29.26 30.90 32.43 31.56 C 36.55 32.48 40.76 31.65 44.91 31.46 C 46.39 29.56 47.86 27.66 49.34 25.76 M 28.67 33.33 C 30.55 35.11 32.43 36.90 34.31 38.69 C 36.41 37.47 38.48 36.22 40.52 34.91 C 36.50 35.09 32.51 34.52 28.67 33.33 M 58.45 34.91 C 60.48 36.22 62.55 37.46 64.64 38.66 C 66.53 36.87 68.42 35.08 70.32 33.30 C 66.47 34.51 62.48 35.10 58.45 34.91 M 26.57 33.53 C 27.55 35.73 28.81 37.83 29.41 40.17 C 29.46 42.63 28.76 45.03 28.35 47.43 C 25.89 46.99 23.42 46.55 20.95 46.16 C 24.13 48.50 27.40 50.72 30.64 52.97 C 30.42 48.44 31.12 43.92 31.05 39.39 C 30.11 37.09 28.15 35.40 26.57 33.53 M 41.23 37.24 C 38.94 39.23 35.91 39.97 33.36 41.53 C 31.81 43.55 32.03 46.37 32.31 48.76 C 32.85 52.77 36.52 55.21 38.02 58.76 C 38.94 62.44 38.66 66.29 38.81 70.05 C 45.14 72.97 53.09 74.65 59.17 70.24 C 61.31 67.75 60.33 63.99 60.91 60.97 C 60.83 56.08 66.27 53.55 66.81 48.80 C 67.09 46.10 67.57 41.96 64.41 40.77 C 61.69 39.56 58.95 38.33 56.71 36.32 C 52.43 32.34 45.13 33.03 41.23 37.24 M 67.93 39.39 C 67.81 43.91 68.54 48.44 68.35 52.98 C 71.43 50.82 74.51 48.68 77.47 46.36 C 75.18 46.67 72.89 47.04 70.61 47.42 C 70.28 45.75 69.93 44.08 69.69 42.40 C 69.06 39.35 70.92 36.60 71.79 33.80 C 70.43 35.60 68.83 37.29 67.93 39.39 M 28.81 54.01 C 32.25 57.93 35.06 62.32 36.87 67.22 C 36.71 64.68 36.77 62.09 36.18 59.60 C 34.45 56.98 31.34 55.72 28.81 54.01 M 63.13 58.98 C 62.11 61.55 62.31 64.41 62.01 67.13 C 63.90 62.27 66.73 57.90 70.17 54.01 C 67.74 55.53 65.10 56.85 63.13 58.98 Z" />
<path fill="#ffffff" opacity="1.00" d=" M 28.67 33.33 C 32.51 34.52 36.50 35.09 40.52 34.91 C 38.48 36.22 36.41 37.47 34.31 38.69 C 32.43 36.90 30.55 35.11 28.67 33.33 Z" />
<path fill="#ffffff" opacity="1.00" d=" M 58.45 34.91 C 62.48 35.10 66.47 34.51 70.32 33.30 C 68.42 35.08 66.53 36.87 64.64 38.66 C 62.55 37.46 60.48 36.22 58.45 34.91 Z" />
<path fill="#ffffff" opacity="1.00" d=" M 26.57 33.53 C 28.15 35.40 30.11 37.09 31.05 39.39 C 31.12 43.92 30.42 48.44 30.64 52.97 C 27.40 50.72 24.13 48.50 20.95 46.16 C 23.42 46.55 25.89 46.99 28.35 47.43 C 28.76 45.03 29.46 42.63 29.41 40.17 C 28.81 37.83 27.55 35.73 26.57 33.53 Z" />
<path fill="#ffffff" opacity="1.00" d=" M 41.23 37.24 C 45.13 33.03 52.43 32.34 56.71 36.32 C 58.95 38.33 61.69 39.56 64.41 40.77 C 67.57 41.96 67.09 46.10 66.81 48.80 C 66.27 53.55 60.83 56.08 60.91 60.97 C 60.33 63.99 61.31 67.75 59.17 70.24 C 53.09 74.65 45.14 72.97 38.81 70.05 C 38.66 66.29 38.94 62.44 38.02 58.76 C 36.52 55.21 32.85 52.77 32.31 48.76 C 32.03 46.37 31.81 43.55 33.36 41.53 C 35.91 39.97 38.94 39.23 41.23 37.24 M 44.21 36.81 C 46.00 37.98 47.69 39.53 49.86 39.95 C 51.68 39.19 53.24 37.95 54.85 36.82 C 51.36 35.85 47.70 35.85 44.21 36.81 M 63.11 41.47 C 62.41 44.25 62.61 47.12 63.99 49.66 C 64.72 46.88 64.40 44.03 63.11 41.47 M 35.31 44.10 C 34.21 44.57 34.14 46.46 35.26 46.95 C 37.11 47.37 37.20 43.67 35.31 44.10 M 39.22 51.46 C 40.78 54.07 42.55 56.54 44.46 58.90 C 43.78 55.77 41.92 53.18 39.22 51.46 M 55.59 54.60 C 55.42 56.41 55.24 58.21 55.07 60.02 C 56.45 57.49 57.84 54.98 59.24 52.47 C 58.02 53.17 56.80 53.89 55.59 54.60 Z" />
<path fill="#ffffff" opacity="1.00" d=" M 67.93 39.39 C 68.83 37.29 70.43 35.60 71.79 33.80 C 70.92 36.60 69.06 39.35 69.69 42.40 C 69.93 44.08 70.28 45.75 70.61 47.42 C 72.89 47.04 75.18 46.67 77.47 46.36 C 74.51 48.68 71.43 50.82 68.35 52.98 C 68.54 48.44 67.81 43.91 67.93 39.39 Z" />
<path fill="#177474" opacity="1.00" d=" M 44.21 36.81 C 47.70 35.85 51.36 35.85 54.85 36.82 C 53.24 37.95 51.68 39.19 49.86 39.95 C 47.69 39.53 46.00 37.98 44.21 36.81 Z" />
<path fill="#177474" opacity="1.00" d=" M 63.11 41.47 C 64.40 44.03 64.72 46.88 63.99 49.66 C 62.61 47.12 62.41 44.25 63.11 41.47 Z" />
<path fill="#005151" opacity="1.00" d=" M 35.31 44.10 C 37.20 43.67 37.11 47.37 35.26 46.95 C 34.14 46.46 34.21 44.57 35.31 44.10 Z" />
<path fill="#177474" opacity="1.00" d=" M 39.22 51.46 C 41.92 53.18 43.78 55.77 44.46 58.90 C 42.55 56.54 40.78 54.07 39.22 51.46 Z" />
<path fill="#177474" opacity="1.00" d=" M 55.59 54.60 C 56.80 53.89 58.02 53.17 59.24 52.47 C 57.84 54.98 56.45 57.49 55.07 60.02 C 55.24 58.21 55.42 56.41 55.59 54.60 Z" />
<path fill="#ffffff" opacity="1.00" d=" M 28.81 54.01 C 31.34 55.72 34.45 56.98 36.18 59.60 C 36.77 62.09 36.71 64.68 36.87 67.22 C 35.06 62.32 32.25 57.93 28.81 54.01 Z" />
<path fill="#ffffff" opacity="1.00" d=" M 63.13 58.98 C 65.10 56.85 67.74 55.53 70.17 54.01 C 66.73 57.90 63.90 62.27 62.01 67.13 C 62.31 64.41 62.11 61.55 63.13 58.98 Z" />
</svg>
