<?xml version="1.0" encoding="UTF-8" ?>
<!DOCTYPE svg PUBLIC "-//W3C//DTD SVG 1.1//EN" "http://www.w3.org/Graphics/SVG/1.1/DTD/svg11.dtd">
<svg width="100pt" height="100pt" viewBox="0 0 100 100" version="1.1" xmlns="http://www.w3.org/2000/svg">
<path fill="#bab9b9" opacity="1.00" d=" M 33.92 38.95 C 41.04 34.58 44.39 26.57 49.40 20.23 C 54.37 26.06 57.53 33.66 64.32 37.73 C 71.43 42.57 78.54 48.19 87.29 49.52 C 91.30 50.11 95.02 51.78 98.62 53.57 C 95.60 55.65 92.71 58.13 89.12 59.16 C 85.90 60.13 82.62 60.92 79.40 61.89 C 83.53 67.91 87.86 73.79 92.05 79.76 C 63.99 79.72 35.92 79.51 7.85 79.51 C 11.99 73.61 16.16 67.72 20.25 61.78 C 14.01 60.08 7.51 58.70 2.30 54.61 C 5.44 52.35 8.72 49.97 12.69 49.53 C 20.70 48.30 27.42 43.46 33.92 38.95 M 49.33 25.53 C 46.20 29.89 43.60 34.87 39.05 37.94 C 34.24 41.22 29.46 44.57 24.40 47.46 C 18.53 50.86 11.48 51.21 5.61 54.60 C 11.56 57.59 18.10 59.02 24.39 61.08 C 20.95 66.30 17.30 71.38 13.89 76.61 C 37.98 76.66 62.07 76.67 86.15 76.61 C 82.76 71.42 79.07 66.43 75.40 61.43 C 81.71 58.58 89.14 58.23 94.62 53.64 C 88.52 51.62 81.96 50.94 76.26 47.81 C 70.71 44.79 65.67 40.95 60.30 37.62 C 55.52 34.75 52.73 29.76 49.33 25.53 Z" />
<path fill="#217a7a" opacity="1.00" d=" M 49.33 25.53 C 52.73 29.76 55.52 34.75 60.30 37.62 C 65.67 40.95 70.71 44.79 76.26 47.81 C 81.96 50.94 88.52 51.62 94.62 53.64 C 89.14 58.23 81.71 58.58 75.40 61.43 C 79.07 66.43 82.76 71.42 86.15 76.61 C 62.07 76.67 37.98 76.66 13.89 76.61 C 17.30 71.38 20.95 66.30 24.39 61.08 C 18.10 59.02 11.56 57.59 5.61 54.60 C 11.48 51.21 18.53 50.86 24.40 47.46 C 29.46 44.57 34.24 41.22 39.05 37.94 C 43.60 34.87 46.20 29.89 49.33 25.53 M 37.65 41.69 C 29.93 47.57 21.46 52.76 11.80 54.63 C 19.35 56.89 27.21 58.76 33.90 63.11 C 38.02 65.80 41.99 69.28 47.10 69.77 C 52.85 70.72 58.65 68.73 63.13 65.13 C 70.44 59.49 79.49 57.13 88.21 54.63 C 78.54 52.76 70.07 47.57 62.35 41.69 C 55.35 36.05 44.65 36.05 37.65 41.69 Z" />
<path fill="#ffffff" opacity="1.00" d=" M 37.65 41.69 C 44.65 36.05 55.35 36.05 62.35 41.69 C 70.07 47.57 78.54 52.76 88.21 54.63 C 79.49 57.13 70.44 59.49 63.13 65.13 C 58.65 68.73 52.85 70.72 47.10 69.77 C 41.99 69.28 38.02 65.80 33.90 63.11 C 27.21 58.76 19.35 56.89 11.80 54.63 C 21.46 52.76 29.93 47.57 37.65 41.69 M 38.18 45.17 C 33.30 48.69 28.06 51.67 22.65 54.30 C 27.56 56.19 32.54 58.08 36.84 61.17 C 40.53 63.75 44.38 66.75 49.11 66.82 C 53.93 67.28 58.27 64.78 61.96 61.99 C 66.58 58.51 71.97 56.32 77.34 54.30 C 72.61 51.95 67.94 49.46 63.61 46.40 C 59.81 43.77 55.81 40.83 51.00 40.62 C 46.27 40.19 41.90 42.49 38.18 45.17 Z" />
<path fill="#217a7a" opacity="1.00" d=" M 38.18 45.17 C 41.90 42.49 46.27 40.19 51.00 40.62 C 55.81 40.83 59.81 43.77 63.61 46.40 C 67.94 49.46 72.61 51.95 77.34 54.30 C 71.97 56.32 66.58 58.51 61.96 61.99 C 58.27 64.78 53.93 67.28 49.11 66.82 C 44.38 66.75 40.53 63.75 36.84 61.17 C 32.54 58.08 27.56 56.19 22.65 54.30 C 28.06 51.67 33.30 48.69 38.18 45.17 M 47.50 47.49 C 42.79 48.82 41.46 55.63 45.28 58.67 C 49.26 62.49 56.99 59.63 56.97 53.94 C 57.34 49.10 51.79 45.79 47.50 47.49 Z" />
<path fill="#ffffff" opacity="1.00" d=" M 47.50 47.49 C 51.79 45.79 57.34 49.10 56.97 53.94 C 56.99 59.63 49.26 62.49 45.28 58.67 C 41.46 55.63 42.79 48.82 47.50 47.49 Z" />
</svg>
