<?xml version="1.0" encoding="UTF-8" ?>
<!DOCTYPE svg PUBLIC "-//W3C//DTD SVG 1.1//EN" "http://www.w3.org/Graphics/SVG/1.1/DTD/svg11.dtd">
<svg width="100pt" height="100pt" viewBox="0 0 100 100" version="1.1" xmlns="http://www.w3.org/2000/svg">
<path fill="#ffffff" opacity="1.00" d=" M 44.40 12.53 C 52.31 11.40 60.62 12.49 67.71 16.28 C 77.08 20.97 84.17 29.80 86.95 39.88 C 92.70 57.58 82.20 78.23 65.17 85.15 C 58.32 87.84 50.68 89.44 43.41 87.57 C 31.51 85.33 20.86 77.22 15.86 66.15 C 9.84 53.44 11.67 37.49 20.51 26.53 C 26.34 19.08 35.04 13.95 44.40 12.53 M 42.36 16.36 C 30.98 18.88 21.41 27.69 17.64 38.68 C 13.34 50.39 16.27 64.22 24.62 73.41 C 34.99 85.29 53.74 88.38 67.37 80.40 C 82.16 72.40 89.03 52.92 82.56 37.40 C 76.76 21.71 58.59 12.14 42.36 16.36 Z" />
<path fill="#482b46" opacity="1.00" d=" M 42.36 16.36 C 58.59 12.14 76.76 21.71 82.56 37.40 C 89.03 52.92 82.16 72.40 67.37 80.40 C 53.74 88.38 34.99 85.29 24.62 73.41 C 16.27 64.22 13.34 50.39 17.64 38.68 C 21.41 27.69 30.98 18.88 42.36 16.36 M 52.30 17.98 C 52.64 19.26 52.99 20.54 53.33 21.83 C 52.11 21.22 50.89 20.61 49.66 20.02 C 51.62 23.20 53.62 26.36 55.89 29.33 C 56.33 26.59 57.47 23.78 56.92 20.98 C 55.88 19.46 53.82 18.96 52.30 17.98 M 58.58 25.15 C 59.71 28.11 61.24 30.94 63.63 33.06 C 62.42 35.66 61.24 38.27 60.01 40.86 C 62.43 42.30 64.83 43.80 67.20 45.32 C 68.48 41.99 69.59 38.59 70.69 35.20 C 68.77 34.63 66.84 34.05 64.92 33.48 C 67.41 33.30 69.90 33.08 72.38 32.79 C 72.11 31.04 71.87 29.28 71.39 27.58 C 67.68 24.95 62.88 25.38 58.58 25.15 M 43.85 30.85 C 42.68 32.12 41.66 33.56 41.02 35.17 C 41.24 36.80 41.97 38.57 43.46 39.42 C 47.07 40.04 50.75 39.63 54.39 39.53 C 53.11 37.50 51.94 35.40 50.93 33.22 C 49.18 33.12 47.42 33.04 45.67 32.93 C 47.49 31.66 49.35 30.44 51.19 29.21 C 48.76 29.61 45.62 28.66 43.85 30.85 M 24.64 38.57 C 27.30 37.62 30.23 37.68 32.81 36.54 C 32.10 35.50 31.28 34.52 30.51 33.53 C 30.98 32.35 31.45 31.17 31.91 29.98 C 28.26 31.64 25.47 34.55 24.64 38.57 M 52.77 30.63 C 53.72 33.70 54.73 37.22 58.13 38.38 C 57.43 35.16 55.40 32.53 52.77 30.63 M 26.58 40.63 C 25.22 43.60 24.62 46.84 23.89 50.00 C 28.35 50.18 32.82 50.42 37.21 51.29 C 36.88 48.90 36.56 46.51 36.23 44.12 C 34.28 44.05 32.17 44.70 30.34 43.82 C 30.30 42.09 30.45 40.35 30.50 38.61 C 29.17 39.23 27.74 39.71 26.58 40.63 M 46.88 42.53 C 46.63 42.82 46.12 43.40 45.87 43.69 C 43.56 43.75 40.88 42.56 38.86 44.12 C 38.64 46.03 38.67 47.97 38.63 49.90 C 41.03 50.61 43.64 50.91 45.80 52.24 C 47.25 53.65 48.26 55.42 49.36 57.09 C 46.64 55.34 43.91 53.60 41.04 52.08 C 40.58 53.27 40.11 54.45 39.62 55.62 C 40.39 55.75 41.94 56.01 42.71 56.14 C 40.26 59.06 37.76 61.94 35.07 64.63 C 34.49 63.05 33.92 61.46 33.34 59.88 C 31.99 62.42 31.54 65.21 33.22 67.74 C 31.54 68.92 29.91 70.17 28.41 71.56 C 28.34 72.21 28.19 73.49 28.12 74.14 C 28.82 74.24 30.23 74.44 30.93 74.54 C 32.09 72.97 32.93 71.05 34.55 69.89 C 37.24 69.79 40.00 69.92 42.49 68.68 C 40.87 68.29 39.25 67.91 37.63 67.54 C 40.20 64.44 42.91 61.45 45.72 58.57 C 45.84 59.40 46.06 61.07 46.17 61.90 C 46.90 61.11 47.64 60.33 48.39 59.55 C 50.12 61.76 51.25 64.37 50.13 67.15 C 53.42 71.18 58.46 72.69 63.00 74.77 C 63.77 72.93 64.58 71.12 65.52 69.37 C 65.14 68.55 64.81 67.70 64.31 66.95 C 66.76 61.85 68.49 56.12 67.70 50.41 C 65.91 47.92 63.31 46.19 60.93 44.31 C 59.84 45.47 58.75 46.63 57.65 47.78 C 58.14 45.99 58.57 44.18 58.90 42.36 C 58.50 42.59 57.69 43.05 57.28 43.28 L 57.96 42.37 C 55.90 42.46 53.06 41.67 52.23 44.24 C 50.45 43.65 48.66 43.10 46.88 42.53 M 66.54 67.74 C 66.17 70.18 65.77 72.61 65.28 75.02 C 66.10 74.57 66.93 74.12 67.75 73.67 C 67.29 71.70 66.91 69.73 66.54 67.74 M 48.94 70.16 C 47.14 74.43 46.36 79.06 47.12 83.66 C 50.17 80.34 52.48 76.16 56.56 73.97 C 53.96 72.84 51.43 71.53 48.94 70.16 M 70.62 71.37 C 69.32 73.33 68.30 75.46 67.27 77.57 C 70.97 76.01 74.14 73.44 76.59 70.28 C 74.60 70.56 72.43 70.40 70.62 71.37 M 55.44 76.42 C 53.36 78.23 52.24 80.84 50.86 83.17 C 54.85 82.85 58.69 81.69 62.49 80.52 C 62.18 78.87 61.86 77.23 61.56 75.58 C 59.51 75.83 57.45 75.97 55.44 76.42 M 63.67 78.07 C 62.74 79.64 65.44 80.91 66.31 79.47 C 67.29 77.91 64.54 76.68 63.67 78.07 Z" />
<path fill="#ffffff" opacity="1.00" d=" M 52.30 17.98 C 53.82 18.96 55.88 19.46 56.92 20.98 C 57.47 23.78 56.33 26.59 55.89 29.33 C 53.62 26.36 51.62 23.20 49.66 20.02 C 50.89 20.61 52.11 21.22 53.33 21.83 C 52.99 20.54 52.64 19.26 52.30 17.98 Z" />
<path fill="#ffffff" opacity="1.00" d=" M 58.58 25.15 C 62.88 25.38 67.68 24.95 71.39 27.58 C 71.87 29.28 72.11 31.04 72.38 32.79 C 69.90 33.08 67.41 33.30 64.92 33.48 C 66.84 34.05 68.77 34.63 70.69 35.20 C 69.59 38.59 68.48 41.99 67.20 45.32 C 64.83 43.80 62.43 42.30 60.01 40.86 C 61.24 38.27 62.42 35.66 63.63 33.06 C 61.24 30.94 59.71 28.11 58.58 25.15 Z" />
<path fill="#ffffff" opacity="1.00" d=" M 43.85 30.85 C 45.62 28.66 48.76 29.61 51.19 29.21 C 49.35 30.44 47.49 31.66 45.67 32.93 C 47.42 33.04 49.18 33.12 50.93 33.22 C 51.94 35.40 53.11 37.50 54.39 39.53 C 50.75 39.63 47.07 40.04 43.46 39.42 C 41.97 38.57 41.24 36.80 41.02 35.17 C 41.66 33.56 42.68 32.12 43.85 30.85 Z" />
<path fill="#ddcedc" opacity="1.00" d=" M 24.64 38.57 C 25.47 34.55 28.26 31.64 31.91 29.98 C 31.45 31.17 30.98 32.35 30.51 33.53 C 31.28 34.52 32.10 35.50 32.81 36.54 C 30.23 37.68 27.30 37.62 24.64 38.57 Z" />
<path fill="#ffffff" opacity="1.00" d=" M 52.77 30.63 C 55.40 32.53 57.43 35.16 58.13 38.38 C 54.73 37.22 53.72 33.70 52.77 30.63 Z" />
<path fill="#ffffff" opacity="1.00" d=" M 26.58 40.63 C 27.74 39.71 29.17 39.23 30.50 38.61 C 30.45 40.35 30.30 42.09 30.34 43.82 C 32.17 44.70 34.28 44.05 36.23 44.12 C 36.56 46.51 36.88 48.90 37.21 51.29 C 32.82 50.42 28.35 50.18 23.89 50.00 C 24.62 46.84 25.22 43.60 26.58 40.63 Z" />
<path fill="#ffffff" opacity="1.00" d=" M 46.88 42.53 C 48.66 43.10 50.45 43.65 52.23 44.24 C 53.37 44.63 54.52 45.02 55.66 45.42 C 56.06 44.88 56.87 43.82 57.28 43.28 C 57.69 43.05 58.50 42.59 58.90 42.36 C 58.57 44.18 58.14 45.99 57.65 47.78 C 58.75 46.63 59.84 45.47 60.93 44.31 C 63.31 46.19 65.91 47.92 67.70 50.41 C 68.49 56.12 66.76 61.85 64.31 66.95 C 61.64 64.90 58.16 63.72 56.18 60.88 C 54.41 57.55 53.32 53.90 51.58 50.55 C 51.81 53.26 52.14 55.96 52.43 58.67 C 51.18 58.63 49.93 58.60 48.68 58.58 C 54.35 62.09 60.71 64.59 65.52 69.37 C 64.58 71.12 63.77 72.93 63.00 74.77 C 58.46 72.69 53.42 71.18 50.13 67.15 C 51.25 64.37 50.12 61.76 48.39 59.55 C 47.64 60.33 46.90 61.11 46.17 61.90 C 46.06 61.07 45.84 59.40 45.72 58.57 C 42.91 61.45 40.20 64.44 37.63 67.54 C 39.25 67.91 40.87 68.29 42.49 68.68 C 40.00 69.92 37.24 69.79 34.55 69.89 C 32.93 71.05 32.09 72.97 30.93 74.54 C 30.23 74.44 28.82 74.24 28.12 74.14 C 28.19 73.49 28.34 72.21 28.41 71.56 C 29.91 70.17 31.54 68.92 33.22 67.74 C 31.54 65.21 31.99 62.42 33.34 59.88 C 33.92 61.46 34.49 63.05 35.07 64.63 C 37.76 61.94 40.26 59.06 42.71 56.14 C 41.94 56.01 40.39 55.75 39.62 55.62 C 40.11 54.45 40.58 53.27 41.04 52.08 C 43.91 53.60 46.64 55.34 49.36 57.09 C 48.26 55.42 47.25 53.65 45.80 52.24 C 43.64 50.91 41.03 50.61 38.63 49.90 C 38.67 47.97 38.64 46.03 38.86 44.12 C 40.88 42.56 43.56 43.75 45.87 43.69 C 47.14 45.72 48.64 47.60 50.34 49.28 C 49.04 47.28 47.55 45.40 45.87 43.69 C 46.12 43.40 46.63 42.82 46.88 42.53 Z" />
<path fill="#967e95" opacity="1.00" d=" M 52.23 44.24 C 53.06 41.67 55.90 42.46 57.96 42.37 L 57.28 43.28 C 56.87 43.82 56.06 44.88 55.66 45.42 C 54.52 45.02 53.37 44.63 52.23 44.24 Z" />
<path fill="#170016" opacity="1.00" d=" M 45.87 43.69 C 47.55 45.40 49.04 47.28 50.34 49.28 C 48.64 47.60 47.14 45.72 45.87 43.69 Z" />
<path fill="#170016" opacity="1.00" d=" M 51.58 50.55 C 53.32 53.90 54.41 57.55 56.18 60.88 C 58.16 63.72 61.64 64.90 64.31 66.95 C 64.81 67.70 65.14 68.55 65.52 69.37 C 60.71 64.59 54.35 62.09 48.68 58.58 C 49.93 58.60 51.18 58.63 52.43 58.67 C 52.14 55.96 51.81 53.26 51.58 50.55 Z" />
<path fill="#ffffff" opacity="1.00" d=" M 66.54 67.74 C 66.91 69.73 67.29 71.70 67.75 73.67 C 66.93 74.12 66.10 74.57 65.28 75.02 C 65.77 72.61 66.17 70.18 66.54 67.74 Z" />
<path fill="#ffffff" opacity="1.00" d=" M 48.94 70.16 C 51.43 71.53 53.96 72.84 56.56 73.97 C 52.48 76.16 50.17 80.34 47.12 83.66 C 46.36 79.06 47.14 74.43 48.94 70.16 Z" />
<path fill="#ffffff" opacity="1.00" d=" M 70.62 71.37 C 72.43 70.40 74.60 70.56 76.59 70.28 C 74.14 73.44 70.97 76.01 67.27 77.57 C 68.30 75.46 69.32 73.33 70.62 71.37 Z" />
<path fill="#ffffff" opacity="1.00" d=" M 55.44 76.42 C 57.45 75.97 59.51 75.83 61.56 75.58 C 61.86 77.23 62.18 78.87 62.49 80.52 C 58.69 81.69 54.85 82.85 50.86 83.17 C 52.24 80.84 53.36 78.23 55.44 76.42 Z" />
<path fill="#ffffff" opacity="1.00" d=" M 63.67 78.07 C 64.54 76.68 67.29 77.91 66.31 79.47 C 65.44 80.91 62.74 79.64 63.67 78.07 Z" />
</svg>
