<?xml version="1.0" encoding="UTF-8" ?>
<!DOCTYPE svg PUBLIC "-//W3C//DTD SVG 1.1//EN" "http://www.w3.org/Graphics/SVG/1.1/DTD/svg11.dtd">
<svg width="100pt" height="100pt" viewBox="0 0 100 100" version="1.1" xmlns="http://www.w3.org/2000/svg">
<path fill="#b9bbb9" opacity="1.00" d=" M 42.75 14.72 C 45.84 9.57 55.08 9.91 57.51 15.51 C 58.24 18.50 56.70 21.42 56.01 24.27 C 68.04 24.52 80.08 24.50 92.11 24.48 C 89.86 27.73 87.59 30.98 85.39 34.26 C 87.11 34.27 88.84 34.28 90.57 34.29 C 89.92 39.03 86.74 42.58 83.33 45.65 C 85.48 48.79 87.60 52.57 86.32 56.49 C 84.33 62.91 77.99 66.60 72.15 69.07 C 67.75 71.10 62.75 71.32 58.35 73.27 C 55.27 76.35 53.22 80.27 50.62 83.74 C 47.81 80.37 45.71 76.39 42.52 73.35 C 36.58 71.68 30.30 71.08 24.72 68.26 C 19.39 65.72 13.68 61.87 12.30 55.75 C 11.28 51.58 13.92 47.88 16.25 44.72 C 13.27 42.05 10.61 39.02 8.79 35.43 C 10.96 35.12 13.13 34.84 15.31 34.57 C 12.85 31.15 10.39 27.72 7.97 24.26 C 19.87 24.34 31.76 24.17 43.66 24.42 C 42.66 21.36 41.09 17.84 42.75 14.72 M 44.29 16.33 C 44.68 19.99 45.69 23.58 45.56 27.29 C 34.99 27.49 24.42 27.25 13.86 27.38 C 16.66 31.77 19.76 35.95 22.93 40.08 C 19.22 38.39 15.37 36.90 11.27 36.58 C 13.58 39.83 16.58 42.46 19.77 44.81 C 17.46 47.17 14.33 49.48 14.17 53.08 C 13.85 58.04 17.76 61.92 21.66 64.33 C 27.79 68.30 35.06 69.68 42.13 70.87 C 46.28 71.38 48.21 75.54 50.67 78.37 C 52.47 75.98 53.86 73.09 56.39 71.38 C 61.72 69.49 67.56 69.23 72.69 66.69 C 77.63 64.38 83.08 61.07 84.49 55.41 C 85.52 51.53 82.43 48.40 80.34 45.54 C 83.63 42.81 87.01 39.93 88.67 35.86 C 84.85 36.78 81.20 38.25 77.59 39.80 C 80.33 35.60 83.18 31.48 86.06 27.37 C 75.54 27.24 65.02 27.53 54.49 27.23 C 54.21 23.31 55.20 19.49 55.43 15.62 C 52.82 12.23 46.05 11.98 44.29 16.33 Z" />
<path fill="#941271" opacity="1.00" d=" M 44.29 16.33 C 46.05 11.98 52.82 12.23 55.43 15.62 C 55.20 19.49 54.21 23.31 54.49 27.23 C 65.02 27.53 75.54 27.24 86.06 27.37 C 83.18 31.48 80.33 35.60 77.59 39.80 C 81.20 38.25 84.85 36.78 88.67 35.86 C 87.01 39.93 83.63 42.81 80.34 45.54 C 82.43 48.40 85.52 51.53 84.49 55.41 C 83.08 61.07 77.63 64.38 72.69 66.69 C 67.56 69.23 61.72 69.49 56.39 71.38 C 53.86 73.09 52.47 75.98 50.67 78.37 C 48.21 75.54 46.28 71.38 42.13 70.87 C 35.06 69.68 27.79 68.30 21.66 64.33 C 17.76 61.92 13.85 58.04 14.17 53.08 C 14.33 49.48 17.46 47.17 19.77 44.81 C 16.58 42.46 13.58 39.83 11.27 36.58 C 15.37 36.90 19.22 38.39 22.93 40.08 C 19.76 35.95 16.66 31.77 13.86 27.38 C 24.42 27.25 34.99 27.49 45.56 27.29 C 45.69 23.58 44.68 19.99 44.29 16.33 M 47.07 16.16 C 49.48 21.25 48.54 27.08 47.28 32.33 C 44.12 33.68 40.61 33.37 37.26 33.49 C 36.85 34.32 36.45 35.16 36.05 35.99 C 39.29 36.10 42.52 36.15 45.76 36.20 C 46.35 43.97 46.36 51.76 46.47 59.54 C 48.92 59.60 51.36 59.64 53.81 59.69 C 54.26 51.87 54.31 44.04 54.30 36.22 C 57.74 36.19 61.17 36.06 64.58 35.64 C 61.49 31.91 55.94 34.68 52.66 31.66 C 51.28 26.48 50.86 20.89 52.71 15.76 C 50.84 15.99 48.94 15.92 47.07 16.16 M 72.74 46.49 C 75.19 48.52 78.08 50.30 79.56 53.21 C 79.23 57.48 74.80 59.76 71.44 61.54 C 57.46 67.84 40.64 67.73 26.73 61.29 C 23.62 59.54 19.43 57.29 19.28 53.28 C 20.91 49.55 25.00 47.88 28.19 45.75 C 24.57 43.59 20.88 41.51 16.95 39.95 C 19.52 41.91 22.22 43.69 24.93 45.46 C 22.16 47.09 18.67 48.27 17.14 51.34 C 15.70 54.24 17.35 57.50 19.51 59.51 C 23.76 63.53 29.42 65.59 34.98 67.06 C 47.70 70.11 61.66 69.29 73.50 63.48 C 77.27 61.46 81.68 58.66 82.17 54.00 C 82.31 50.05 78.27 48.12 75.65 45.98 C 79.15 43.41 82.65 40.83 85.92 37.96 C 81.21 40.28 76.88 43.28 72.74 46.49 M 29.14 42.89 C 29.67 44.28 30.22 45.65 30.79 47.03 C 28.72 48.29 26.36 49.30 24.84 51.27 C 23.31 54.57 26.73 57.29 29.27 58.73 C 39.13 64.07 51.11 64.64 61.82 61.85 C 66.27 60.46 71.32 58.82 73.92 54.66 C 75.61 51.55 71.79 49.55 70.06 47.55 C 70.71 45.96 71.36 44.37 71.99 42.76 C 69.90 44.70 67.88 46.70 65.85 48.71 C 68.05 50.12 70.24 51.55 72.37 53.05 C 65.50 59.72 55.29 61.31 46.09 60.76 C 39.03 60.01 31.11 58.54 26.51 52.57 C 28.98 51.13 31.47 49.74 34.01 48.43 C 32.41 46.56 30.80 44.70 29.14 42.89 Z" />
<path fill="#ffffff" opacity="1.00" d=" M 47.07 16.16 C 48.94 15.92 50.84 15.99 52.71 15.76 C 50.86 20.89 51.28 26.48 52.66 31.66 C 55.94 34.68 61.49 31.91 64.58 35.64 C 61.17 36.06 57.74 36.19 54.30 36.22 C 54.31 44.04 54.26 51.87 53.81 59.69 C 51.36 59.64 48.92 59.60 46.47 59.54 C 46.36 51.76 46.35 43.97 45.76 36.20 C 42.52 36.15 39.29 36.10 36.05 35.99 C 36.45 35.16 36.85 34.32 37.26 33.49 C 40.61 33.37 44.12 33.68 47.28 32.33 C 48.54 27.08 49.48 21.25 47.07 16.16 Z" />
<path fill="#ffffff" opacity="1.00" d=" M 72.74 46.49 C 76.88 43.28 81.21 40.28 85.92 37.96 C 82.65 40.83 79.15 43.41 75.65 45.98 C 78.27 48.12 82.31 50.05 82.17 54.00 C 81.68 58.66 77.27 61.46 73.50 63.48 C 61.66 69.29 47.70 70.11 34.98 67.06 C 29.42 65.59 23.76 63.53 19.51 59.51 C 17.35 57.50 15.70 54.24 17.14 51.34 C 18.67 48.27 22.16 47.09 24.93 45.46 C 22.22 43.69 19.52 41.91 16.95 39.95 C 20.88 41.51 24.57 43.59 28.19 45.75 C 25.00 47.88 20.91 49.55 19.28 53.28 C 19.43 57.29 23.62 59.54 26.73 61.29 C 40.64 67.73 57.46 67.84 71.44 61.54 C 74.80 59.76 79.23 57.48 79.56 53.21 C 78.08 50.30 75.19 48.52 72.74 46.49 Z" />
<path fill="#ffffff" opacity="1.00" d=" M 29.14 42.89 C 30.80 44.70 32.41 46.56 34.01 48.43 C 31.47 49.74 28.98 51.13 26.51 52.57 C 31.11 58.54 39.03 60.01 46.09 60.76 C 55.29 61.31 65.50 59.72 72.37 53.05 C 70.24 51.55 68.05 50.12 65.85 48.71 C 67.88 46.70 69.90 44.70 71.99 42.76 C 71.36 44.37 70.71 45.96 70.06 47.55 C 71.79 49.55 75.61 51.55 73.92 54.66 C 71.32 58.82 66.27 60.46 61.82 61.85 C 51.11 64.64 39.13 64.07 29.27 58.73 C 26.73 57.29 23.31 54.57 24.84 51.27 C 26.36 49.30 28.72 48.29 30.79 47.03 C 30.22 45.65 29.67 44.28 29.14 42.89 Z" />
</svg>
