<?xml version="1.0" encoding="UTF-8" ?>
<!DOCTYPE svg PUBLIC "-//W3C//DTD SVG 1.1//EN" "http://www.w3.org/Graphics/SVG/1.1/DTD/svg11.dtd">
<svg width="100pt" height="100pt" viewBox="0 0 100 100" version="1.1" xmlns="http://www.w3.org/2000/svg">
<path fill="#3dbc94" opacity="0.93" d=" M 28.69 30.02 C 36.72 20.69 44.68 11.29 52.84 2.07 C 66.54 17.96 80.43 33.70 93.90 49.79 C 89.01 55.61 83.81 61.16 79.02 67.05 C 77.53 68.37 78.58 70.34 79.06 71.88 C 81.79 78.96 85.02 85.86 87.29 93.12 C 78.59 91.77 70.22 88.66 61.52 87.56 C 58.29 90.46 55.82 94.07 52.92 97.27 C 39.06 81.59 25.51 65.63 11.81 49.81 C 14.11 46.88 16.49 44.02 18.87 41.16 C 14.59 36.36 10.02 31.80 5.94 26.81 C 13.56 27.61 21.05 29.38 28.69 30.02 M 29.03 32.67 C 22.71 31.30 16.42 29.79 9.99 28.98 C 13.55 33.47 17.87 37.27 21.43 41.76 C 19.17 44.39 16.98 47.07 14.89 49.84 C 27.56 64.58 40.26 79.30 53.01 93.98 C 55.63 91.04 58.28 88.12 60.99 85.27 C 68.71 86.99 76.39 88.91 84.09 90.72 C 81.49 83.11 78.09 75.81 75.36 68.25 C 80.57 62.04 86.11 56.12 91.22 49.81 C 88.95 46.75 86.53 43.81 83.98 40.98 C 73.57 29.23 63.64 17.06 53.04 5.48 C 44.76 14.30 37.45 23.99 29.03 32.67 Z" />
<path fill="#b8b8b8" opacity="1.00" d=" M 29.03 32.67 C 37.45 23.99 44.76 14.30 53.04 5.48 C 63.64 17.06 73.57 29.23 83.98 40.98 C 86.53 43.81 88.95 46.75 91.22 49.81 C 86.11 56.12 80.57 62.04 75.36 68.25 C 78.09 75.81 81.49 83.11 84.09 90.72 C 76.39 88.91 68.71 86.99 60.99 85.27 C 58.28 88.12 55.63 91.04 53.01 93.98 C 40.26 79.30 27.56 64.58 14.89 49.84 C 16.98 47.07 19.17 44.39 21.43 41.76 C 17.87 37.27 13.55 33.47 9.99 28.98 C 16.42 29.79 22.71 31.30 29.03 32.67 M 31.82 34.83 C 25.80 33.57 19.84 31.97 13.74 31.15 C 14.74 32.21 15.76 33.26 16.80 34.28 L 17.56 34.23 C 19.37 37.56 22.98 39.69 24.62 42.97 C 23.10 45.45 21.04 47.53 19.20 49.76 C 30.55 62.77 41.68 75.97 53.13 88.89 C 55.80 85.75 58.50 82.64 61.31 79.62 C 61.27 80.75 61.22 81.89 61.18 83.02 C 67.68 84.86 74.26 86.40 80.85 87.91 C 78.20 80.81 75.36 73.79 72.29 66.87 C 76.94 60.87 82.42 55.58 86.88 49.43 C 75.49 36.56 64.53 23.31 53.04 10.54 C 45.77 18.46 39.10 26.91 31.82 34.83 Z" />
<path fill="#c40f24" opacity="1.00" d=" M 31.82 34.83 C 39.10 26.91 45.77 18.46 53.04 10.54 C 64.53 23.31 75.49 36.56 86.88 49.43 C 82.42 55.58 76.94 60.87 72.29 66.87 C 75.36 73.79 78.20 80.81 80.85 87.91 C 74.26 86.40 67.68 84.86 61.18 83.02 C 61.22 81.89 61.27 80.75 61.31 79.62 C 58.50 82.64 55.80 85.75 53.13 88.89 C 41.68 75.97 30.55 62.77 19.20 49.76 C 21.04 47.53 23.10 45.45 24.62 42.97 C 22.98 39.69 19.37 37.56 17.56 34.23 C 22.74 37.66 26.31 43.12 31.98 45.85 C 30.78 42.95 28.95 40.40 26.95 38.00 C 29.50 39.24 32.09 40.40 34.73 41.42 C 34.74 40.09 34.74 38.75 34.75 37.42 C 29.04 36.30 23.48 33.69 17.56 34.23 L 16.80 34.28 C 15.76 33.26 14.74 32.21 13.74 31.15 C 19.84 31.97 25.80 33.57 31.82 34.83 M 45.58 20.60 C 45.61 21.89 45.82 23.22 46.93 24.03 C 55.23 31.75 63.89 39.10 72.01 47.02 C 62.88 44.99 53.91 42.34 44.83 40.14 C 46.37 41.90 47.48 44.37 49.84 45.16 C 53.70 46.46 57.73 47.18 61.66 48.25 C 68.84 49.81 75.81 52.66 83.22 52.90 C 78.86 47.55 72.95 43.80 67.93 39.12 C 60.41 33.04 53.54 26.11 45.58 20.60 M 37.20 36.84 C 36.93 40.76 36.60 44.99 33.36 47.69 C 42.66 58.25 54.89 65.69 64.38 76.05 C 64.00 77.76 63.62 79.47 63.24 81.18 C 67.90 82.67 72.59 84.12 77.42 84.98 C 75.59 80.06 73.43 75.27 71.65 70.32 C 70.06 71.15 68.47 71.99 66.89 72.83 C 61.70 68.81 57.26 63.95 52.22 59.76 C 47.06 55.16 41.22 51.26 36.96 45.73 C 39.63 47.47 42.04 49.56 44.42 51.68 C 44.83 49.25 45.23 46.82 45.62 44.39 C 42.57 42.15 39.78 39.60 37.20 36.84 M 26.24 51.39 C 28.63 54.28 31.58 56.63 34.20 59.31 C 36.50 58.40 38.80 57.49 41.07 56.51 C 38.25 54.14 35.46 51.73 32.82 49.17 C 30.62 49.89 28.40 50.58 26.24 51.39 Z" />
<path fill="#ffffff" opacity="1.00" d=" M 45.58 20.60 C 53.54 26.11 60.41 33.04 67.93 39.12 C 72.95 43.80 78.86 47.55 83.22 52.90 C 75.81 52.66 68.84 49.81 61.66 48.25 C 57.73 47.18 53.70 46.46 49.84 45.16 C 47.48 44.37 46.37 41.90 44.83 40.14 C 53.91 42.34 62.88 44.99 72.01 47.02 C 63.89 39.10 55.23 31.75 46.93 24.03 C 45.82 23.22 45.61 21.89 45.58 20.60 Z" />
<path fill="#ffffff" opacity="1.00" d=" M 17.56 34.23 C 23.48 33.69 29.04 36.30 34.75 37.42 C 34.74 38.75 34.74 40.09 34.73 41.42 C 32.09 40.40 29.50 39.24 26.95 38.00 C 28.95 40.40 30.78 42.95 31.98 45.85 C 26.31 43.12 22.74 37.66 17.56 34.23 Z" />
<path fill="#ffffff" opacity="1.00" d=" M 37.20 36.84 C 39.78 39.60 42.57 42.15 45.62 44.39 C 45.23 46.82 44.83 49.25 44.42 51.68 C 42.04 49.56 39.63 47.47 36.96 45.73 C 41.22 51.26 47.06 55.16 52.22 59.76 C 57.26 63.95 61.70 68.81 66.89 72.83 C 68.47 71.99 70.06 71.15 71.65 70.32 C 73.43 75.27 75.59 80.06 77.42 84.98 C 72.59 84.12 67.90 82.67 63.24 81.18 C 63.62 79.47 64.00 77.76 64.38 76.05 C 54.89 65.69 42.66 58.25 33.36 47.69 C 36.60 44.99 36.93 40.76 37.20 36.84 Z" />
<path fill="#ffffff" opacity="1.00" d=" M 26.24 51.39 C 28.40 50.58 30.62 49.89 32.82 49.17 C 35.46 51.73 38.25 54.14 41.07 56.51 C 38.80 57.49 36.50 58.40 34.20 59.31 C 31.58 56.63 28.63 54.28 26.24 51.39 Z" />
</svg>
