<?xml version="1.0" encoding="UTF-8" ?>
<!DOCTYPE svg PUBLIC "-//W3C//DTD SVG 1.1//EN" "http://www.w3.org/Graphics/SVG/1.1/DTD/svg11.dtd">
<svg width="100pt" height="100pt" viewBox="0 0 100 100" version="1.1" xmlns="http://www.w3.org/2000/svg">
<path fill="#b8b8b8" opacity="1.00" d=" M 56.27 12.24 C 58.72 8.56 62.68 6.39 66.27 4.01 C 68.26 8.84 69.49 14.01 68.68 19.25 C 73.86 19.94 78.61 22.28 83.71 23.35 C 87.86 24.20 91.36 27.80 91.77 32.06 C 91.98 36.00 91.64 39.95 91.46 43.88 C 91.28 47.84 89.37 51.39 88.42 55.17 C 88.67 58.61 90.36 61.76 91.44 64.99 C 77.36 74.37 63.27 83.75 49.16 93.09 C 46.98 91.63 44.80 90.16 42.63 88.69 C 41.70 90.43 41.00 92.34 39.68 93.85 C 36.82 95.39 33.23 96.28 30.13 94.88 C 26.82 93.87 24.82 90.75 23.51 87.75 C 23.80 85.74 24.86 83.96 25.69 82.14 C 21.55 81.11 17.27 79.87 14.00 77.00 C 10.48 74.06 8.77 69.61 7.64 65.29 C 7.24 63.69 8.03 62.11 8.46 60.59 C 13.39 46.96 18.25 33.30 23.04 19.62 C 32.53 19.45 42.04 19.92 51.52 19.44 C 53.59 17.41 54.52 14.53 56.27 12.24 M 53.67 23.15 C 44.50 23.55 35.33 23.34 26.17 23.33 C 22.82 32.03 19.89 40.89 16.71 49.66 C 15.21 54.02 12.72 57.98 11.41 62.42 C 9.97 67.33 12.51 72.61 16.43 75.61 C 20.66 78.91 26.19 79.48 31.30 80.42 C 29.52 82.78 27.70 85.10 25.90 87.44 C 27.83 89.40 29.36 92.35 32.32 92.81 C 34.36 92.75 36.35 92.29 38.34 91.88 C 38.72 88.70 39.09 85.52 39.58 82.35 C 42.83 84.21 45.99 86.19 49.12 88.24 C 59.50 81.66 69.54 74.57 79.91 67.99 C 81.88 66.66 83.98 65.43 85.57 63.62 C 85.57 60.94 84.59 58.28 85.04 55.60 C 86.05 51.95 88.08 48.60 88.62 44.80 C 89.20 40.60 89.43 36.30 88.94 32.07 C 88.58 28.83 85.81 26.09 82.59 25.70 C 76.58 24.77 70.47 24.44 64.57 22.86 C 66.38 17.97 66.52 12.70 65.07 7.70 C 59.54 11.34 55.86 16.98 53.67 23.15 Z" />
<path fill="#b61c2e" opacity="1.00" d=" M 53.67 23.15 C 55.86 16.98 59.54 11.34 65.07 7.70 C 66.52 12.70 66.38 17.97 64.57 22.86 C 70.47 24.44 76.58 24.77 82.59 25.70 C 85.81 26.09 88.58 28.83 88.94 32.07 C 89.43 36.30 89.20 40.60 88.62 44.80 C 88.08 48.60 86.05 51.95 85.04 55.60 C 84.59 58.28 85.57 60.94 85.57 63.62 C 83.98 65.43 81.88 66.66 79.91 67.99 C 69.54 74.57 59.50 81.66 49.12 88.24 C 45.99 86.19 42.83 84.21 39.58 82.35 C 39.09 85.52 38.72 88.70 38.34 91.88 C 36.35 92.29 34.36 92.75 32.32 92.81 C 29.36 92.35 27.83 89.40 25.90 87.44 C 27.70 85.10 29.52 82.78 31.30 80.42 C 26.19 79.48 20.66 78.91 16.43 75.61 C 12.51 72.61 9.97 67.33 11.41 62.42 C 12.72 57.98 15.21 54.02 16.71 49.66 C 19.89 40.89 22.82 32.03 26.17 23.33 C 35.33 23.34 44.50 23.55 53.67 23.15 M 57.61 19.46 C 54.45 27.03 51.37 34.63 48.17 42.18 C 45.80 48.40 39.38 52.79 39.43 59.93 C 35.13 58.60 30.92 56.98 26.51 56.04 C 30.09 59.54 35.36 60.59 38.77 64.26 C 38.49 69.19 36.06 73.65 34.35 78.20 C 33.00 81.82 30.92 85.11 28.35 87.99 C 30.55 89.92 33.25 91.04 36.20 91.02 C 36.15 86.08 37.79 81.39 39.73 76.92 C 41.40 73.32 42.42 69.10 45.44 66.36 C 50.91 64.93 56.31 68.39 61.84 67.04 C 57.14 65.27 52.33 63.82 47.58 62.20 C 50.50 60.28 51.69 57.08 51.85 53.72 C 52.10 47.73 54.32 42.14 56.64 36.69 C 59.65 28.19 64.86 20.04 64.18 10.68 C 61.52 13.21 58.99 16.00 57.61 19.46 M 74.38 27.41 C 69.20 28.86 64.21 32.71 62.92 38.13 C 62.01 41.61 64.20 45.36 67.59 46.43 C 73.75 48.38 80.66 45.43 84.62 40.57 C 86.94 37.75 88.19 33.30 85.83 30.14 C 83.22 26.64 78.26 26.39 74.38 27.41 M 25.52 40.23 C 29.50 38.31 33.19 35.76 37.42 34.36 C 41.64 32.88 46.16 32.66 50.59 32.47 C 50.77 31.74 51.14 30.28 51.32 29.56 C 41.82 29.96 32.13 33.11 25.52 40.23 M 80.96 54.98 C 75.47 62.46 67.24 67.40 58.76 70.83 C 53.18 73.18 47.16 74.30 41.63 76.80 C 48.50 76.34 55.04 73.97 61.30 71.27 C 69.17 67.78 76.67 62.89 81.92 55.96 C 85.40 51.56 87.26 46.00 86.97 40.38 C 85.17 45.31 84.15 50.67 80.96 54.98 M 20.96 51.97 C 17.38 54.84 13.92 58.47 13.03 63.13 C 12.26 66.89 13.80 70.85 16.66 73.35 C 20.92 77.27 26.98 78.20 32.57 77.93 C 27.01 75.93 19.95 76.05 16.15 70.82 C 13.00 66.80 14.35 61.11 17.28 57.38 C 19.69 53.83 24.08 52.80 27.46 50.48 C 31.67 47.66 35.82 44.76 40.00 41.91 C 33.23 44.34 26.67 47.55 20.96 51.97 M 73.24 48.56 C 70.69 49.32 69.21 51.69 67.47 53.51 C 64.54 56.98 60.91 59.73 57.15 62.24 C 59.69 63.52 62.09 65.07 64.31 66.84 C 69.55 63.75 74.77 60.40 78.64 55.62 C 81.48 52.34 83.01 48.22 84.42 44.18 C 80.85 46.01 77.07 47.38 73.24 48.56 M 52.54 62.87 C 59.64 59.52 66.33 54.49 69.99 47.38 C 64.47 52.88 58.61 57.99 52.54 62.87 M 16.75 63.03 C 16.15 66.31 18.80 69.19 21.67 70.31 C 26.23 71.97 31.26 71.18 35.74 69.65 C 31.42 69.59 27.04 70.09 22.76 69.27 C 20.12 68.67 17.63 66.09 18.27 63.23 C 19.15 59.60 21.55 56.62 23.19 53.32 C 20.33 55.96 17.29 58.98 16.75 63.03 M 46.47 68.04 C 45.62 70.05 44.74 72.04 43.88 74.04 C 48.22 72.98 52.51 71.67 56.69 70.08 C 53.49 68.58 50.00 67.87 46.47 68.04 M 18.00 70.21 C 17.99 70.38 17.97 70.73 17.96 70.90 C 17.97 70.73 17.99 70.38 18.00 70.21 C 17.53 69.63 17.53 69.63 18.00 70.21 M 17.96 70.90 C 22.01 74.63 27.57 75.20 32.81 75.48 C 33.28 74.38 33.74 73.28 34.21 72.18 C 28.75 72.93 23.25 72.41 17.96 70.90 Z" />
<path fill="#ffffff" opacity="1.00" d=" M 57.61 19.46 C 58.99 16.00 61.52 13.21 64.18 10.68 C 64.86 20.04 59.65 28.19 56.64 36.69 C 54.32 42.14 52.10 47.73 51.85 53.72 C 51.69 57.08 50.50 60.28 47.58 62.20 C 52.33 63.82 57.14 65.27 61.84 67.04 C 56.31 68.39 50.91 64.93 45.44 66.36 C 42.42 69.10 41.40 73.32 39.73 76.92 C 37.79 81.39 36.15 86.08 36.20 91.02 C 33.25 91.04 30.55 89.92 28.35 87.99 C 30.92 85.11 33.00 81.82 34.35 78.20 C 36.06 73.65 38.49 69.19 38.77 64.26 C 35.36 60.59 30.09 59.54 26.51 56.04 C 30.92 56.98 35.13 58.60 39.43 59.93 C 39.38 52.79 45.80 48.40 48.17 42.18 C 51.37 34.63 54.45 27.03 57.61 19.46 M 51.95 38.90 C 50.09 43.39 47.88 47.77 46.85 52.55 C 49.08 49.64 50.60 46.28 51.81 42.84 C 54.79 34.54 58.36 26.45 60.92 18.00 C 57.61 24.83 54.93 31.93 51.95 38.90 M 40.36 61.42 C 40.01 63.46 40.71 65.51 40.96 67.52 C 42.44 66.17 44.06 64.93 45.24 63.28 C 46.42 60.20 46.37 56.82 46.75 53.58 C 44.48 56.06 41.98 58.44 40.36 61.42 M 29.95 86.98 C 30.42 87.91 30.90 88.83 31.38 89.76 C 32.56 89.83 33.74 89.90 34.92 89.97 C 34.81 89.36 34.58 88.16 34.47 87.55 C 32.96 87.35 31.45 87.16 29.95 86.98 Z" />
<path fill="#b41628" opacity="1.00" d=" M 51.95 38.90 C 54.93 31.93 57.61 24.83 60.92 18.00 C 58.36 26.45 54.79 34.54 51.81 42.84 C 50.60 46.28 49.08 49.64 46.85 52.55 C 47.88 47.77 50.09 43.39 51.95 38.90 Z" />
<path fill="#ffffff" opacity="1.00" d=" M 74.38 27.41 C 78.26 26.39 83.22 26.64 85.83 30.14 C 88.19 33.30 86.94 37.75 84.62 40.57 C 80.66 45.43 73.75 48.38 67.59 46.43 C 64.20 45.36 62.01 41.61 62.92 38.13 C 64.21 32.71 69.20 28.86 74.38 27.41 M 75.44 28.40 C 71.33 29.28 67.50 31.82 65.41 35.51 C 63.46 38.47 63.98 42.98 67.32 44.70 C 74.53 48.21 84.56 42.63 85.59 34.72 C 85.85 29.61 79.73 27.08 75.44 28.40 Z" />
<path fill="#b41628" opacity="1.00" d=" M 75.44 28.40 C 79.73 27.08 85.85 29.61 85.59 34.72 C 84.56 42.63 74.53 48.21 67.32 44.70 C 63.98 42.98 63.46 38.47 65.41 35.51 C 67.50 31.82 71.33 29.28 75.44 28.40 M 73.41 30.38 C 69.31 31.87 65.09 35.93 66.12 40.66 C 67.40 44.54 72.39 44.98 75.74 43.83 C 80.08 42.48 84.73 38.35 83.74 33.38 C 82.40 29.17 76.88 28.94 73.41 30.38 Z" />
<path fill="#ffffff" opacity="1.00" d=" M 25.52 40.23 C 32.13 33.11 41.82 29.96 51.32 29.56 C 51.14 30.28 50.77 31.74 50.59 32.47 C 46.16 32.66 41.64 32.88 37.42 34.36 C 33.19 35.76 29.50 38.31 25.52 40.23 Z" />
<path fill="#ffffff" opacity="1.00" d=" M 73.41 30.38 C 76.88 28.94 82.40 29.17 83.74 33.38 C 84.73 38.35 80.08 42.48 75.74 43.83 C 72.39 44.98 67.40 44.54 66.12 40.66 C 65.09 35.93 69.31 31.87 73.41 30.38 M 70.95 39.43 C 73.21 39.22 76.43 40.13 77.66 37.56 C 79.17 36.25 77.85 33.94 75.98 34.28 C 72.92 33.92 72.11 37.36 70.95 39.43 Z" />
<path fill="#b61c2e" opacity="1.00" d=" M 70.95 39.43 C 72.11 37.36 72.92 33.92 75.98 34.28 C 77.85 33.94 79.17 36.25 77.66 37.56 C 76.43 40.13 73.21 39.22 70.95 39.43 Z" />
<path fill="#ffffff" opacity="1.00" d=" M 80.96 54.98 C 84.15 50.67 85.17 45.31 86.97 40.38 C 87.26 46.00 85.40 51.56 81.92 55.96 C 76.67 62.89 69.17 67.78 61.30 71.27 C 55.04 73.97 48.50 76.34 41.63 76.80 C 47.16 74.30 53.18 73.18 58.76 70.83 C 67.24 67.40 75.47 62.46 80.96 54.98 Z" />
<path fill="#ffffff" opacity="1.00" d=" M 20.96 51.97 C 26.67 47.55 33.23 44.34 40.00 41.91 C 35.82 44.76 31.67 47.66 27.46 50.48 C 24.08 52.80 19.69 53.83 17.28 57.38 C 14.35 61.11 13.00 66.80 16.15 70.82 C 19.95 76.05 27.01 75.93 32.57 77.93 C 26.98 78.20 20.92 77.27 16.66 73.35 C 13.80 70.85 12.26 66.89 13.03 63.13 C 13.92 58.47 17.38 54.84 20.96 51.97 Z" />
<path fill="#ffffff" opacity="1.00" d=" M 73.24 48.56 C 77.07 47.38 80.85 46.01 84.42 44.18 C 83.01 48.22 81.48 52.34 78.64 55.62 C 74.77 60.40 69.55 63.75 64.31 66.84 C 62.09 65.07 59.69 63.52 57.15 62.24 C 60.91 59.73 64.54 56.98 67.47 53.51 C 69.21 51.69 70.69 49.32 73.24 48.56 Z" />
<path fill="#ffffff" opacity="1.00" d=" M 52.54 62.87 C 58.61 57.99 64.47 52.88 69.99 47.38 C 66.33 54.49 59.64 59.52 52.54 62.87 Z" />
<path fill="#ffffff" opacity="1.00" d=" M 16.75 63.03 C 17.29 58.98 20.33 55.96 23.19 53.32 C 21.55 56.62 19.15 59.60 18.27 63.23 C 17.63 66.09 20.12 68.67 22.76 69.27 C 27.04 70.09 31.42 69.59 35.74 69.65 C 31.26 71.18 26.23 71.97 21.67 70.31 C 18.80 69.19 16.15 66.31 16.75 63.03 Z" />
<path fill="#b41628" opacity="1.00" d=" M 40.36 61.42 C 41.98 58.44 44.48 56.06 46.75 53.58 C 46.37 56.82 46.42 60.20 45.24 63.28 C 44.06 64.93 42.44 66.17 40.96 67.52 C 40.71 65.51 40.01 63.46 40.36 61.42 Z" />
<path fill="#ffffff" opacity="1.00" d=" M 46.47 68.04 C 50.00 67.87 53.49 68.58 56.69 70.08 C 52.51 71.67 48.22 72.98 43.88 74.04 C 44.74 72.04 45.62 70.05 46.47 68.04 Z" />
<path fill="#fdf8f9" opacity="1.00" d=" M 18.00 70.21 C 17.53 69.63 17.53 69.63 18.00 70.21 Z" />
<path fill="#ffffff" opacity="1.00" d=" M 18.00 70.21 C 17.99 70.38 17.97 70.73 17.96 70.90 C 17.97 70.73 17.99 70.38 18.00 70.21 Z" />
<path fill="#ffffff" opacity="1.00" d=" M 17.96 70.90 C 23.25 72.41 28.75 72.93 34.21 72.18 C 33.74 73.28 33.28 74.38 32.81 75.48 C 27.57 75.20 22.01 74.63 17.96 70.90 Z" />
<path fill="#b41628" opacity="1.00" d=" M 29.95 86.98 C 31.45 87.16 32.96 87.35 34.47 87.55 C 34.58 88.16 34.81 89.36 34.92 89.97 C 33.74 89.90 32.56 89.83 31.38 89.76 C 30.90 88.83 30.42 87.91 29.95 86.98 Z" />
</svg>
