<?xml version="1.0" encoding="UTF-8" ?>
<!DOCTYPE svg PUBLIC "-//W3C//DTD SVG 1.1//EN" "http://www.w3.org/Graphics/SVG/1.1/DTD/svg11.dtd">
<svg width="100pt" height="100pt" viewBox="0 0 100 100" version="1.1" xmlns="http://www.w3.org/2000/svg">
<path fill="#b8b8b8" opacity="1.00" d=" M 46.56 9.66 C 51.59 7.92 56.79 9.97 60.31 13.69 C 63.26 15.61 62.15 19.48 62.41 22.41 C 69.58 22.53 76.74 22.54 83.91 22.42 C 83.99 45.20 83.93 67.98 83.94 90.75 C 60.98 90.71 38.02 90.71 15.06 90.75 C 15.07 67.98 15.01 45.20 15.09 22.43 C 22.97 22.54 30.86 22.53 38.75 22.42 C 38.79 20.01 38.85 17.61 38.93 15.20 C 41.46 13.34 43.80 11.19 46.56 9.66 M 46.07 13.13 C 44.50 14.26 42.06 15.65 42.53 17.93 C 42.90 21.02 44.06 23.95 44.96 26.91 C 36.57 27.13 28.17 26.91 19.78 27.01 C 19.54 46.75 19.56 66.49 19.76 86.22 C 39.83 86.44 59.90 86.45 79.97 86.22 C 80.14 66.49 79.99 46.76 79.96 27.03 C 71.99 26.93 64.02 27.11 56.05 26.88 C 57.06 23.47 58.62 20.09 58.58 16.46 C 56.10 12.37 50.25 10.39 46.07 13.13 Z" />
<path fill="#d96035" opacity="1.00" d=" M 46.07 13.13 C 50.25 10.39 56.10 12.37 58.58 16.46 C 58.62 20.09 57.06 23.47 56.05 26.88 C 64.02 27.11 71.99 26.93 79.96 27.03 C 79.99 46.76 80.14 66.49 79.97 86.22 C 59.90 86.45 39.83 86.44 19.76 86.22 C 19.56 66.49 19.54 46.75 19.78 27.01 C 28.17 26.91 36.57 27.13 44.96 26.91 C 44.06 23.95 42.90 21.02 42.53 17.93 C 42.06 15.65 44.50 14.26 46.07 13.13 M 45.35 17.45 C 46.37 19.66 47.45 21.92 47.55 24.39 C 47.85 31.93 46.92 39.44 46.49 46.96 C 48.31 44.84 49.32 42.14 49.19 39.33 C 49.19 33.57 48.92 27.80 49.23 22.04 C 49.82 21.99 51.00 21.89 51.59 21.84 C 51.39 23.79 51.19 25.74 51.01 27.70 C 51.47 28.01 52.40 28.65 52.86 28.97 C 53.26 24.99 54.06 21.03 55.71 17.36 C 54.18 16.48 52.64 15.56 50.93 15.10 C 48.85 15.10 47.13 16.54 45.35 17.45 M 54.97 48.27 C 52.21 48.77 49.38 49.04 46.63 48.29 C 42.10 47.06 37.76 49.77 33.22 49.72 C 30.34 49.64 27.78 51.00 25.44 52.54 C 24.21 50.13 22.77 47.84 21.06 45.74 C 21.94 48.79 22.86 52.00 25.05 54.40 C 32.11 53.89 39.33 51.82 46.29 54.27 C 44.55 56.28 42.75 58.24 40.89 60.14 C 44.09 63.98 41.94 69.04 43.46 73.39 C 44.46 76.76 45.25 80.18 45.73 83.66 C 48.59 83.66 51.46 83.66 54.32 83.66 C 54.99 77.88 57.90 72.48 57.52 66.58 C 57.31 64.15 58.33 61.91 59.48 59.85 C 57.62 58.15 55.93 56.27 54.11 54.53 C 61.42 51.28 69.25 53.74 76.76 54.55 C 74.54 52.59 72.45 49.66 69.18 49.68 C 64.22 49.47 58.20 49.39 54.77 45.24 C 52.68 40.27 53.95 34.70 53.21 29.48 C 51.01 35.55 50.28 43.14 54.97 48.27 M 31.09 35.85 C 32.08 40.09 33.16 44.70 36.76 47.54 C 35.73 43.28 33.62 39.39 31.09 35.85 M 73.94 49.34 C 76.12 48.03 77.49 45.89 78.24 43.50 C 76.47 45.18 75.03 47.16 73.94 49.34 M 26.42 57.62 C 28.77 64.11 32.22 70.11 34.79 76.51 C 29.95 72.71 25.85 68.02 20.69 64.62 C 22.25 69.84 25.12 74.51 27.96 79.11 C 25.37 80.52 22.83 82.03 20.37 83.64 C 27.89 84.30 35.44 84.02 42.98 83.81 C 41.94 78.71 40.31 73.77 39.07 68.72 C 38.11 64.68 34.95 61.68 32.13 58.84 C 30.72 57.08 28.37 57.69 26.42 57.62 M 65.23 57.36 C 65.35 58.85 65.48 60.35 65.61 61.84 C 63.79 62.59 61.97 63.35 60.16 64.11 C 60.59 66.88 61.75 69.84 60.48 72.56 C 58.99 76.21 57.88 80.00 57.39 83.92 C 62.84 84.10 68.29 84.03 73.73 83.84 C 75.34 81.43 77.20 79.16 78.35 76.48 C 79.19 73.72 78.95 70.79 79.08 67.94 C 75.65 70.66 72.32 73.52 68.79 76.10 C 70.90 72.25 73.31 68.56 75.30 64.64 C 71.59 67.75 68.27 71.29 64.58 74.43 C 66.70 68.51 69.63 62.93 72.07 57.14 C 69.79 57.20 67.51 57.27 65.23 57.36 Z" />
<path fill="#ffffff" opacity="1.00" d=" M 45.35 17.45 C 47.13 16.54 48.85 15.10 50.93 15.10 C 52.64 15.56 54.18 16.48 55.71 17.36 C 54.06 21.03 53.26 24.99 52.86 28.97 C 52.40 28.65 51.47 28.01 51.01 27.70 C 51.19 25.74 51.39 23.79 51.59 21.84 C 51.00 21.89 49.82 21.99 49.23 22.04 C 48.92 27.80 49.19 33.57 49.19 39.33 C 49.32 42.14 48.31 44.84 46.49 46.96 C 46.92 39.44 47.85 31.93 47.55 24.39 C 47.45 21.92 46.37 19.66 45.35 17.45 Z" />
<path fill="#ffffff" opacity="1.00" d=" M 54.97 48.27 C 50.28 43.14 51.01 35.55 53.21 29.48 C 53.95 34.70 52.68 40.27 54.77 45.24 C 58.20 49.39 64.22 49.47 69.18 49.68 C 72.45 49.66 74.54 52.59 76.76 54.55 C 69.25 53.74 61.42 51.28 54.11 54.53 C 55.93 56.27 57.62 58.15 59.48 59.85 C 58.33 61.91 57.31 64.15 57.52 66.58 C 57.90 72.48 54.99 77.88 54.32 83.66 C 51.46 83.66 48.59 83.66 45.73 83.66 C 45.25 80.18 44.46 76.76 43.46 73.39 C 41.94 69.04 44.09 63.98 40.89 60.14 C 42.75 58.24 44.55 56.28 46.29 54.27 C 39.33 51.82 32.11 53.89 25.05 54.40 C 22.86 52.00 21.94 48.79 21.06 45.74 C 22.77 47.84 24.21 50.13 25.44 52.54 C 27.78 51.00 30.34 49.64 33.22 49.72 C 37.76 49.77 42.10 47.06 46.63 48.29 C 49.38 49.04 52.21 48.77 54.97 48.27 M 50.22 53.11 C 46.17 58.96 48.98 65.96 50.44 72.16 C 51.36 68.09 52.47 64.03 52.74 59.86 C 52.87 57.36 51.26 55.25 50.22 53.11 Z" />
<path fill="#ffffff" opacity="1.00" d=" M 31.09 35.85 C 33.62 39.39 35.73 43.28 36.76 47.54 C 33.16 44.70 32.08 40.09 31.09 35.85 Z" />
<path fill="#ffffff" opacity="1.00" d=" M 73.94 49.34 C 75.03 47.16 76.47 45.18 78.24 43.50 C 77.49 45.89 76.12 48.03 73.94 49.34 Z" />
<path fill="#d85a2d" opacity="1.00" d=" M 50.22 53.11 C 51.26 55.25 52.87 57.36 52.74 59.86 C 52.47 64.03 51.36 68.09 50.44 72.16 C 48.98 65.96 46.17 58.96 50.22 53.11 Z" />
<path fill="#ffffff" opacity="1.00" d=" M 26.42 57.62 C 28.37 57.69 30.72 57.08 32.13 58.84 C 34.95 61.68 38.11 64.68 39.07 68.72 C 40.31 73.77 41.94 78.71 42.98 83.81 C 35.44 84.02 27.89 84.30 20.37 83.64 C 22.83 82.03 25.37 80.52 27.96 79.11 C 25.12 74.51 22.25 69.84 20.69 64.62 C 25.85 68.02 29.95 72.71 34.79 76.51 C 32.22 70.11 28.77 64.11 26.42 57.62 Z" />
<path fill="#ffffff" opacity="1.00" d=" M 65.23 57.36 C 67.51 57.27 69.79 57.20 72.07 57.14 C 69.63 62.93 66.70 68.51 64.58 74.43 C 68.27 71.29 71.59 67.75 75.30 64.64 C 73.31 68.56 70.90 72.25 68.79 76.10 C 72.32 73.52 75.65 70.66 79.08 67.94 C 78.95 70.79 79.19 73.72 78.35 76.48 C 77.20 79.16 75.34 81.43 73.73 83.84 C 68.29 84.03 62.84 84.10 57.39 83.92 C 57.88 80.00 58.99 76.21 60.48 72.56 C 61.75 69.84 60.59 66.88 60.16 64.11 C 61.97 63.35 63.79 62.59 65.61 61.84 C 65.48 60.35 65.35 58.85 65.23 57.36 Z" />
</svg>
