<?xml version="1.0" encoding="UTF-8" ?>
<!DOCTYPE svg PUBLIC "-//W3C//DTD SVG 1.1//EN" "http://www.w3.org/Graphics/SVG/1.1/DTD/svg11.dtd">
<svg width="100pt" height="100pt" viewBox="0 0 100 100" version="1.1" xmlns="http://www.w3.org/2000/svg">
<path fill="#d1b04d" opacity="0.93" d=" M 46.24 9.28 C 60.70 18.83 75.11 28.48 89.56 38.04 C 87.76 43.20 85.94 48.35 84.10 53.49 C 87.60 55.63 91.24 57.97 93.32 61.65 C 96.87 67.48 96.79 75.29 93.13 81.06 C 89.47 87.10 82.14 90.60 75.14 89.70 C 71.79 89.37 68.86 87.61 65.92 86.12 C 63.22 84.59 60.00 84.93 57.02 84.85 C 44.61 84.98 32.20 84.82 19.78 84.95 C 14.01 69.39 8.67 53.67 3.01 38.07 C 17.41 28.46 31.89 18.97 46.24 9.28 M 46.20 12.33 C 32.85 21.28 19.31 29.96 6.13 39.17 C 11.06 53.69 16.39 68.07 21.44 82.55 C 33.98 82.77 46.53 82.44 59.07 82.53 C 66.25 82.37 71.64 89.14 78.95 88.13 C 88.83 87.38 96.50 76.87 93.82 67.23 C 92.59 60.71 86.68 56.93 81.32 53.93 C 83.12 49.02 84.80 44.07 86.37 39.08 C 73.12 29.96 59.70 21.08 46.20 12.33 Z" />
<path fill="#b7b8bc" opacity="1.00" d=" M 46.20 12.33 C 59.70 21.08 73.12 29.96 86.37 39.08 C 84.80 44.07 83.12 49.02 81.32 53.93 C 86.68 56.93 92.59 60.71 93.82 67.23 C 96.50 76.87 88.83 87.38 78.95 88.13 C 71.64 89.14 66.25 82.37 59.07 82.53 C 46.53 82.44 33.98 82.77 21.44 82.55 C 16.39 68.07 11.06 53.69 6.13 39.17 C 19.31 29.96 32.85 21.28 46.20 12.33 M 10.93 40.39 C 15.03 53.26 19.83 65.89 24.32 78.63 C 36.24 78.93 48.17 78.47 60.08 78.70 C 64.15 78.61 66.90 81.94 70.08 83.92 C 75.25 87.56 82.73 86.43 87.27 82.27 C 93.08 77.34 93.82 67.85 89.04 61.97 C 86.12 58.11 81.19 56.94 76.82 55.57 C 78.45 50.51 80.16 45.48 81.80 40.43 C 69.94 32.60 58.25 24.49 46.20 16.95 C 34.42 24.72 22.67 32.55 10.93 40.39 Z" />
<path fill="#2c6d6d" opacity="1.00" d=" M 10.93 40.39 C 22.67 32.55 34.42 24.72 46.20 16.95 C 58.25 24.49 69.94 32.60 81.80 40.43 C 80.16 45.48 78.45 50.51 76.82 55.57 C 81.19 56.94 86.12 58.11 89.04 61.97 C 93.82 67.85 93.08 77.34 87.27 82.27 C 82.73 86.43 75.25 87.56 70.08 83.92 C 66.90 81.94 64.15 78.61 60.08 78.70 C 48.17 78.47 36.24 78.93 24.32 78.63 C 19.83 65.89 15.03 53.26 10.93 40.39 M 43.50 21.38 C 44.17 25.21 44.90 29.04 46.11 32.73 C 48.86 28.95 51.43 22.83 46.83 19.40 C 46.00 19.89 44.33 20.89 43.50 21.38 M 35.20 28.41 C 36.72 29.90 38.36 31.26 39.97 32.66 C 39.82 30.55 39.67 28.44 39.48 26.33 C 38.06 27.04 36.63 27.73 35.20 28.41 M 54.78 26.76 C 54.57 28.74 54.36 30.71 54.17 32.69 C 55.89 31.38 57.57 30.02 59.23 28.64 C 57.74 28.02 56.26 27.39 54.78 26.76 M 25.54 33.77 C 28.36 35.71 31.25 37.55 34.38 38.95 C 33.41 35.91 31.88 33.12 30.16 30.45 C 28.62 31.55 27.08 32.66 25.54 33.77 M 59.55 39.21 C 62.70 37.97 65.61 36.24 68.41 34.36 C 66.83 33.32 65.25 32.28 63.68 31.22 C 62.12 33.79 60.68 36.42 59.55 39.21 M 36.74 37.81 C 34.30 40.72 30.44 41.49 26.98 42.51 C 27.58 48.05 28.53 53.71 31.38 58.59 C 34.83 65.07 40.65 69.80 46.88 73.45 C 51.82 70.37 56.76 66.98 60.18 62.18 C 64.51 56.60 66.38 49.61 67.04 42.68 C 63.79 41.66 60.08 41.08 57.73 38.37 C 55.90 36.75 54.65 34.00 51.96 33.76 C 48.69 33.24 45.32 33.22 42.05 33.73 C 39.62 33.94 38.39 36.33 36.74 37.81 M 13.37 42.04 C 17.29 42.77 21.26 43.26 25.22 43.72 C 25.26 42.69 25.33 40.63 25.37 39.59 C 23.64 38.81 21.95 37.87 20.10 37.41 C 17.56 38.46 15.51 40.36 13.37 42.04 M 68.77 40.93 C 68.77 41.77 68.77 43.45 68.77 44.29 C 71.86 43.94 74.96 43.58 78.05 43.23 C 78.23 42.72 78.58 41.69 78.75 41.18 C 77.18 40.15 75.59 39.13 73.99 38.13 C 72.24 39.05 70.50 39.98 68.77 40.93 M 16.58 47.75 C 17.18 49.81 17.79 51.86 18.40 53.91 C 21.51 53.33 24.62 52.70 27.68 51.90 C 24.83 48.74 20.56 48.22 16.58 47.75 M 68.15 49.05 C 67.94 49.85 67.52 51.45 67.31 52.25 C 69.60 52.74 71.90 53.23 74.19 53.74 C 74.88 51.76 75.56 49.78 76.22 47.80 C 73.53 48.21 70.84 48.63 68.15 49.05 M 22.57 57.95 C 23.05 59.45 23.52 60.94 24.01 62.44 C 25.93 60.84 27.82 59.20 29.63 57.48 C 27.27 57.58 24.92 57.76 22.57 57.95 M 63.69 58.68 C 64.54 59.51 65.39 60.34 66.24 61.17 C 67.18 60.14 68.13 59.10 69.07 58.06 C 67.28 58.25 65.48 58.45 63.69 58.68 M 75.41 59.37 C 66.41 60.75 61.98 72.96 68.41 79.59 C 74.09 86.89 86.87 84.23 89.43 75.45 C 92.73 66.97 84.21 57.30 75.41 59.37 M 24.09 69.32 C 24.85 71.60 25.63 73.87 26.41 76.14 C 29.17 72.67 31.73 69.05 34.19 65.36 C 33.64 64.94 32.54 64.09 31.99 63.67 C 29.38 65.59 26.74 67.46 24.09 69.32 M 60.25 63.83 C 60.67 65.79 61.18 67.73 61.72 69.66 C 62.53 68.08 63.32 66.50 64.11 64.92 C 62.83 64.55 61.54 64.18 60.25 63.83 M 34.74 75.81 C 36.33 75.78 37.91 75.75 39.50 75.72 C 39.23 73.52 38.90 71.33 38.54 69.14 C 37.23 71.34 35.98 73.57 34.74 75.81 M 53.42 75.11 C 54.75 75.60 56.10 76.04 57.47 76.43 C 56.60 74.05 55.62 71.72 54.54 69.44 C 54.03 71.30 53.42 73.16 53.42 75.11 M 44.98 74.64 C 43.43 76.66 48.79 77.31 48.69 75.11 C 47.90 73.99 46.10 74.12 44.98 74.64 Z" />
<path fill="#ffffff" opacity="1.00" d=" M 43.50 21.38 C 44.33 20.89 46.00 19.89 46.83 19.40 C 51.43 22.83 48.86 28.95 46.11 32.73 C 44.90 29.04 44.17 25.21 43.50 21.38 Z" />
<path fill="#ffffff" opacity="1.00" d=" M 35.20 28.41 C 36.63 27.73 38.06 27.04 39.48 26.33 C 39.67 28.44 39.82 30.55 39.97 32.66 C 38.36 31.26 36.72 29.90 35.20 28.41 Z" />
<path fill="#ffffff" opacity="1.00" d=" M 54.78 26.76 C 56.26 27.39 57.74 28.02 59.23 28.64 C 57.57 30.02 55.89 31.38 54.17 32.69 C 54.36 30.71 54.57 28.74 54.78 26.76 Z" />
<path fill="#ffffff" opacity="1.00" d=" M 25.54 33.77 C 27.08 32.66 28.62 31.55 30.16 30.45 C 31.88 33.12 33.41 35.91 34.38 38.95 C 31.25 37.55 28.36 35.71 25.54 33.77 Z" />
<path fill="#ffffff" opacity="1.00" d=" M 59.55 39.21 C 60.68 36.42 62.12 33.79 63.68 31.22 C 65.25 32.28 66.83 33.32 68.41 34.36 C 65.61 36.24 62.70 37.97 59.55 39.21 Z" />
<path fill="#ffffff" opacity="1.00" d=" M 36.74 37.81 C 38.39 36.33 39.62 33.94 42.05 33.73 C 45.32 33.22 48.69 33.24 51.96 33.76 C 54.65 34.00 55.90 36.75 57.73 38.37 C 60.08 41.08 63.79 41.66 67.04 42.68 C 66.38 49.61 64.51 56.60 60.18 62.18 C 56.76 66.98 51.82 70.37 46.88 73.45 C 40.65 69.80 34.83 65.07 31.38 58.59 C 28.53 53.71 27.58 48.05 26.98 42.51 C 30.44 41.49 34.30 40.72 36.74 37.81 M 32.87 45.85 C 33.36 51.74 35.68 57.36 39.75 61.69 C 37.66 57.17 35.57 52.61 34.71 47.67 C 38.42 45.88 41.47 42.93 45.29 41.41 C 51.04 40.21 55.25 45.47 60.22 47.37 C 58.54 54.89 53.78 61.27 47.34 65.43 C 45.32 64.63 43.29 63.83 41.22 63.13 C 43.04 64.58 44.81 66.18 46.99 67.07 C 55.33 64.10 59.75 55.41 60.46 47.01 C 55.77 44.67 52.72 38.87 46.96 39.16 C 41.24 38.58 38.00 44.39 32.87 45.85 Z" />
<path fill="#ffffff" opacity="1.00" d=" M 13.37 42.04 C 15.51 40.36 17.56 38.46 20.10 37.41 C 21.95 37.87 23.64 38.81 25.37 39.59 C 25.33 40.63 25.26 42.69 25.22 43.72 C 21.26 43.26 17.29 42.77 13.37 42.04 Z" />
<path fill="#ffffff" opacity="1.00" d=" M 68.77 40.93 C 70.50 39.98 72.24 39.05 73.99 38.13 C 75.59 39.13 77.18 40.15 78.75 41.18 C 78.58 41.69 78.23 42.72 78.05 43.23 C 74.96 43.58 71.86 43.94 68.77 44.29 C 68.77 43.45 68.77 41.77 68.77 40.93 Z" />
<path fill="#2c6d6d" opacity="1.00" d=" M 32.87 45.85 C 38.00 44.39 41.24 38.58 46.96 39.16 C 52.72 38.87 55.77 44.67 60.46 47.01 C 59.75 55.41 55.33 64.10 46.99 67.07 C 44.81 66.18 43.04 64.58 41.22 63.13 C 43.29 63.83 45.32 64.63 47.34 65.43 C 53.78 61.27 58.54 54.89 60.22 47.37 C 55.25 45.47 51.04 40.21 45.29 41.41 C 41.47 42.93 38.42 45.88 34.71 47.67 C 35.57 52.61 37.66 57.17 39.75 61.69 C 35.68 57.36 33.36 51.74 32.87 45.85 Z" />
<path fill="#ffffff" opacity="1.00" d=" M 16.58 47.75 C 20.56 48.22 24.83 48.74 27.68 51.90 C 24.62 52.70 21.51 53.33 18.40 53.91 C 17.79 51.86 17.18 49.81 16.58 47.75 Z" />
<path fill="#ffffff" opacity="1.00" d=" M 68.15 49.05 C 70.84 48.63 73.53 48.21 76.22 47.80 C 75.56 49.78 74.88 51.76 74.19 53.74 C 71.90 53.23 69.60 52.74 67.31 52.25 C 67.52 51.45 67.94 49.85 68.15 49.05 Z" />
<path fill="#ffffff" opacity="1.00" d=" M 22.57 57.95 C 24.92 57.76 27.27 57.58 29.63 57.48 C 27.82 59.20 25.93 60.84 24.01 62.44 C 23.52 60.94 23.05 59.45 22.57 57.95 Z" />
<path fill="#ffffff" opacity="1.00" d=" M 63.69 58.68 C 65.48 58.45 67.28 58.25 69.07 58.06 C 68.13 59.10 67.18 60.14 66.24 61.17 C 65.39 60.34 64.54 59.51 63.69 58.68 Z" />
<path fill="#f3f38a" opacity="1.00" d=" M 75.41 59.37 C 84.21 57.30 92.73 66.97 89.43 75.45 C 86.87 84.23 74.09 86.89 68.41 79.59 C 61.98 72.96 66.41 60.75 75.41 59.37 M 74.37 61.26 C 69.57 62.74 66.27 67.89 67.00 72.87 C 67.59 78.55 73.27 83.06 78.95 82.21 C 85.18 81.77 89.78 75.11 88.22 69.11 C 87.07 63.04 80.15 59.25 74.37 61.26 Z" />
<path fill="#2c6d6d" opacity="1.00" d=" M 74.37 61.26 C 80.15 59.25 87.07 63.04 88.22 69.11 C 89.78 75.11 85.18 81.77 78.95 82.21 C 73.27 83.06 67.59 78.55 67.00 72.87 C 66.27 67.89 69.57 62.74 74.37 61.26 M 75.52 62.63 C 71.38 63.59 68.29 67.72 68.62 71.99 C 68.69 76.78 73.14 80.84 77.89 80.65 C 82.88 80.68 87.22 76.06 86.83 71.08 C 86.78 65.52 80.86 61.13 75.52 62.63 Z" />
<path fill="#f3f38a" opacity="1.00" d=" M 75.52 62.63 C 80.86 61.13 86.78 65.52 86.83 71.08 C 87.22 76.06 82.88 80.68 77.89 80.65 C 73.14 80.84 68.69 76.78 68.62 71.99 C 68.29 67.72 71.38 63.59 75.52 62.63 M 76.37 68.39 C 74.78 69.27 73.63 71.46 74.82 73.11 C 75.99 75.64 80.04 75.32 80.85 72.67 C 82.00 70.04 78.92 67.24 76.37 68.39 Z" />
<path fill="#ffffff" opacity="1.00" d=" M 24.09 69.32 C 26.74 67.46 29.38 65.59 31.99 63.67 C 32.54 64.09 33.64 64.94 34.19 65.36 C 31.73 69.05 29.17 72.67 26.41 76.14 C 25.63 73.87 24.85 71.60 24.09 69.32 Z" />
<path fill="#ffffff" opacity="1.00" d=" M 60.25 63.83 C 61.54 64.18 62.83 64.55 64.11 64.92 C 63.32 66.50 62.53 68.08 61.72 69.66 C 61.18 67.73 60.67 65.79 60.25 63.83 Z" />
<path fill="#2c6d6d" opacity="1.00" d=" M 76.37 68.39 C 78.92 67.24 82.00 70.04 80.85 72.67 C 80.04 75.32 75.99 75.64 74.82 73.11 C 73.63 71.46 74.78 69.27 76.37 68.39 Z" />
<path fill="#ffffff" opacity="1.00" d=" M 34.74 75.81 C 35.98 73.57 37.23 71.34 38.54 69.14 C 38.90 71.33 39.23 73.52 39.50 75.72 C 37.91 75.75 36.33 75.78 34.74 75.81 Z" />
<path fill="#ffffff" opacity="1.00" d=" M 53.42 75.11 C 53.42 73.16 54.03 71.30 54.54 69.44 C 55.62 71.72 56.60 74.05 57.47 76.43 C 56.10 76.04 54.75 75.60 53.42 75.11 Z" />
<path fill="#ffffff" opacity="1.00" d=" M 44.98 74.64 C 46.10 74.12 47.90 73.99 48.69 75.11 C 48.79 77.31 43.43 76.66 44.98 74.64 Z" />
</svg>
