<?xml version="1.0" encoding="UTF-8" ?>
<!DOCTYPE svg PUBLIC "-//W3C//DTD SVG 1.1//EN" "http://www.w3.org/Graphics/SVG/1.1/DTD/svg11.dtd">
<svg width="100pt" height="100pt" viewBox="0 0 100 100" version="1.1" xmlns="http://www.w3.org/2000/svg">
<path fill="#ffffff" opacity="1.00" d=" M 29.99 17.01 C 38.21 11.55 48.63 9.93 58.22 11.97 C 63.91 13.12 69.03 16.01 73.78 19.23 C 78.33 16.95 82.94 14.78 87.59 12.69 C 85.34 17.40 83.03 22.08 80.72 26.75 C 86.91 35.81 89.26 47.46 86.36 58.11 C 85.33 62.65 82.86 66.62 80.63 70.63 C 79.87 71.69 80.69 72.88 81.07 73.90 C 83.44 78.96 85.97 83.95 88.37 89.00 C 82.27 86.16 76.18 83.31 70.12 80.40 C 57.73 88.17 41.17 87.80 29.00 79.77 C 23.85 82.35 18.66 84.84 13.45 87.30 C 15.59 81.91 17.82 76.55 20.05 71.18 C 13.68 62.37 10.97 50.89 13.54 40.23 C 14.35 35.81 16.76 31.96 18.45 27.86 C 16.91 22.57 13.80 17.86 11.73 12.76 C 16.34 14.60 20.73 16.96 25.38 18.67 C 27.10 19.32 28.55 17.67 29.99 17.01 M 27.76 22.50 C 23.89 20.57 19.98 18.72 16.04 16.95 C 17.97 20.95 19.97 24.91 21.99 28.87 C 16.27 37.79 14.19 49.16 17.68 59.31 C 18.89 63.13 21.42 66.34 22.79 70.08 C 21.89 74.35 19.64 78.18 18.15 82.26 C 22.14 80.52 25.81 77.94 30.06 76.86 C 32.28 77.47 34.24 78.74 36.33 79.67 C 43.19 83.01 51.27 83.55 58.61 81.62 C 62.27 80.71 65.50 78.63 69.08 77.51 C 73.96 78.76 78.20 81.73 82.88 83.54 C 81.10 79.06 78.00 74.98 77.21 70.19 C 79.26 65.56 82.43 61.38 83.37 56.29 C 85.84 46.47 83.06 36.06 77.47 27.82 C 79.27 24.45 81.04 21.07 82.62 17.59 C 79.12 19.08 75.71 20.77 72.31 22.48 C 65.91 17.64 58.15 14.26 50.00 14.46 C 41.86 14.28 34.19 17.76 27.76 22.50 Z" />
<path fill="#482b46" opacity="1.00" d=" M 27.76 22.50 C 34.19 17.76 41.86 14.28 50.00 14.46 C 58.15 14.26 65.91 17.64 72.31 22.48 C 75.71 20.77 79.12 19.08 82.62 17.59 C 81.04 21.07 79.27 24.45 77.47 27.82 C 83.06 36.06 85.84 46.47 83.37 56.29 C 82.43 61.38 79.26 65.56 77.21 70.19 C 78.00 74.98 81.10 79.06 82.88 83.54 C 78.20 81.73 73.96 78.76 69.08 77.51 C 65.50 78.63 62.27 80.71 58.61 81.62 C 51.27 83.55 43.19 83.01 36.33 79.67 C 34.24 78.74 32.28 77.47 30.06 76.86 C 25.81 77.94 22.14 80.52 18.15 82.26 C 19.64 78.18 21.89 74.35 22.79 70.08 C 21.42 66.34 18.89 63.13 17.68 59.31 C 14.19 49.16 16.27 37.79 21.99 28.87 C 19.97 24.91 17.97 20.95 16.04 16.95 C 19.98 18.72 23.89 20.57 27.76 22.50 M 19.75 20.49 C 22.22 25.82 25.41 30.77 27.92 36.07 C 29.38 38.89 28.34 42.09 28.17 45.07 C 30.16 42.63 32.21 40.23 34.30 37.86 C 32.79 35.45 31.27 33.05 29.88 30.57 C 32.26 31.93 34.57 33.41 36.87 34.90 C 38.56 33.06 40.27 31.25 42.02 29.47 C 39.57 29.38 36.98 29.48 34.76 28.25 C 29.75 25.69 24.92 22.76 19.75 20.49 M 58.04 30.04 C 59.64 31.64 61.21 33.27 62.76 34.92 C 64.62 33.80 66.48 32.70 68.39 31.67 C 67.32 33.60 66.18 35.49 65.04 37.38 C 66.88 39.59 68.69 41.83 70.40 44.15 C 69.03 35.70 75.44 29.03 78.37 21.69 C 71.55 24.34 65.60 29.65 58.04 30.04 M 33.21 49.44 C 38.57 56.49 44.24 63.29 49.81 70.17 C 55.33 63.35 60.82 56.52 66.35 49.71 C 61.00 42.68 55.32 35.91 49.80 29.01 C 44.24 35.80 38.82 42.70 33.21 49.44 M 27.19 53.08 C 27.81 56.24 29.40 59.45 28.83 62.69 C 26.44 68.33 23.19 73.58 20.89 79.27 C 25.89 76.84 30.60 73.86 35.66 71.55 C 38.09 70.23 40.85 71.16 43.41 71.46 C 41.43 69.34 39.50 67.18 37.61 64.98 C 35.33 66.44 33.05 67.90 30.70 69.25 C 32.05 66.81 33.52 64.44 35.00 62.08 C 32.36 59.11 29.76 56.10 27.19 53.08 M 64.69 62.14 C 66.32 64.81 67.99 67.46 69.49 70.21 C 66.88 68.69 64.37 67.03 61.86 65.36 C 59.87 67.51 57.87 69.65 55.80 71.73 C 58.48 71.59 61.39 70.71 63.88 72.13 C 69.09 74.79 74.10 77.85 79.46 80.22 C 77.05 74.87 73.99 69.85 71.41 64.58 C 69.57 61.10 71.68 57.24 72.09 53.67 C 69.54 56.41 67.09 59.26 64.69 62.14 Z" />
<path fill="#ffffff" opacity="1.00" d=" M 19.75 20.49 C 24.92 22.76 29.75 25.69 34.76 28.25 C 36.98 29.48 39.57 29.38 42.02 29.47 C 40.27 31.25 38.56 33.06 36.87 34.90 C 34.57 33.41 32.26 31.93 29.88 30.57 C 31.27 33.05 32.79 35.45 34.30 37.86 C 32.21 40.23 30.16 42.63 28.17 45.07 C 28.34 42.09 29.38 38.89 27.92 36.07 C 25.41 30.77 22.22 25.82 19.75 20.49 Z" />
<path fill="#ffffff" opacity="1.00" d=" M 58.04 30.04 C 65.60 29.65 71.55 24.34 78.37 21.69 C 75.44 29.03 69.03 35.70 70.40 44.15 C 68.69 41.83 66.88 39.59 65.04 37.38 C 66.18 35.49 67.32 33.60 68.39 31.67 C 66.48 32.70 64.62 33.80 62.76 34.92 C 61.21 33.27 59.64 31.64 58.04 30.04 Z" />
<path fill="#ffffff" opacity="1.00" d=" M 33.21 49.44 C 38.82 42.70 44.24 35.80 49.80 29.01 C 55.32 35.91 61.00 42.68 66.35 49.71 C 60.82 56.52 55.33 63.35 49.81 70.17 C 44.24 63.29 38.57 56.49 33.21 49.44 M 49.99 34.45 C 49.76 40.65 49.83 46.85 49.92 53.05 C 54.00 51.79 58.07 50.50 62.13 49.18 C 58.12 44.23 54.26 39.17 49.99 34.45 M 39.36 52.20 C 42.68 56.68 46.25 60.98 49.85 65.23 C 53.24 61.06 56.73 56.96 59.79 52.52 C 56.52 53.27 53.35 54.52 49.99 54.80 C 46.31 54.67 42.88 53.12 39.36 52.20 Z" />
<path fill="#482b46" opacity="1.00" d=" M 49.99 34.45 C 54.26 39.17 58.12 44.23 62.13 49.18 C 58.07 50.50 54.00 51.79 49.92 53.05 C 49.83 46.85 49.76 40.65 49.99 34.45 Z" />
<path fill="#482b46" opacity="1.00" d=" M 39.36 52.20 C 42.88 53.12 46.31 54.67 49.99 54.80 C 53.35 54.52 56.52 53.27 59.79 52.52 C 56.73 56.96 53.24 61.06 49.85 65.23 C 46.25 60.98 42.68 56.68 39.36 52.20 Z" />
<path fill="#ffffff" opacity="1.00" d=" M 27.19 53.08 C 29.76 56.10 32.36 59.11 35.00 62.08 C 33.52 64.44 32.05 66.81 30.70 69.25 C 33.05 67.90 35.33 66.44 37.61 64.98 C 39.50 67.18 41.43 69.34 43.41 71.46 C 40.85 71.16 38.09 70.23 35.66 71.55 C 30.60 73.86 25.89 76.84 20.89 79.27 C 23.19 73.58 26.44 68.33 28.83 62.69 C 29.40 59.45 27.81 56.24 27.19 53.08 Z" />
<path fill="#ffffff" opacity="1.00" d=" M 64.69 62.14 C 67.09 59.26 69.54 56.41 72.09 53.67 C 71.68 57.24 69.57 61.10 71.41 64.58 C 73.99 69.85 77.05 74.87 79.46 80.22 C 74.10 77.85 69.09 74.79 63.88 72.13 C 61.39 70.71 58.48 71.59 55.80 71.73 C 57.87 69.65 59.87 67.51 61.86 65.36 C 64.37 67.03 66.88 68.69 69.49 70.21 C 67.99 67.46 66.32 64.81 64.69 62.14 Z" />
</svg>
