<?xml version="1.0" encoding="UTF-8" ?>
<!DOCTYPE svg PUBLIC "-//W3C//DTD SVG 1.1//EN" "http://www.w3.org/Graphics/SVG/1.1/DTD/svg11.dtd">
<svg width="100pt" height="100pt" viewBox="0 0 100 100" version="1.1" xmlns="http://www.w3.org/2000/svg">
<path fill="#b8bdbc" opacity="1.00" d=" M 51.03 21.96 C 52.62 20.69 54.09 19.11 56.07 18.44 C 59.71 18.97 62.43 21.75 65.83 22.91 C 67.71 21.77 69.29 20.21 70.96 18.79 C 73.40 20.54 75.82 22.30 78.37 23.88 C 78.39 27.94 79.19 31.94 79.25 35.99 C 77.68 50.86 78.95 65.86 78.37 80.79 C 59.12 80.66 39.87 80.71 20.62 80.77 C 20.40 61.43 20.49 42.10 20.58 22.76 C 27.68 22.59 34.79 22.93 41.88 22.67 C 44.08 22.79 45.16 20.57 46.60 19.30 C 48.08 20.18 49.55 21.08 51.03 21.96 M 51.74 23.81 C 50.22 23.24 48.70 22.66 47.18 22.09 C 45.35 23.69 43.75 26.17 41.03 26.11 C 35.45 26.44 29.86 26.05 24.28 26.19 C 24.29 43.20 24.31 60.21 24.26 77.22 C 41.26 77.67 58.29 77.46 75.30 77.30 C 76.18 64.66 73.86 51.75 77.20 39.36 C 78.79 32.58 76.01 25.71 71.71 20.52 C 69.59 22.40 68.02 25.51 65.15 26.18 C 62.09 24.42 60.05 20.34 56.14 20.47 C 54.49 21.31 53.16 22.63 51.74 23.81 Z" />
<path fill="#b61c2e" opacity="1.00" d=" M 51.74 23.81 C 53.16 22.63 54.49 21.31 56.14 20.47 C 60.05 20.34 62.09 24.42 65.15 26.18 C 68.02 25.51 69.59 22.40 71.71 20.52 C 76.01 25.71 78.79 32.58 77.20 39.36 C 73.86 51.75 76.18 64.66 75.30 77.30 C 58.29 77.46 41.26 77.67 24.26 77.22 C 24.31 60.21 24.29 43.20 24.28 26.19 C 29.86 26.05 35.45 26.44 41.03 26.11 C 43.75 26.17 45.35 23.69 47.18 22.09 C 48.70 22.66 50.22 23.24 51.74 23.81 M 55.56 21.85 C 55.08 22.91 54.61 23.97 54.13 25.04 C 56.55 25.78 58.98 26.49 61.44 27.10 C 60.93 23.99 58.41 22.47 55.56 21.85 M 64.80 29.83 C 60.79 29.73 57.28 27.41 53.57 26.12 C 53.31 28.11 53.04 30.10 52.76 32.09 C 51.87 28.52 50.68 24.67 46.77 23.44 C 46.09 26.36 47.04 29.19 48.10 31.88 C 46.04 33.05 43.92 34.09 41.88 35.29 C 43.45 36.32 45.03 37.34 46.63 38.34 C 46.50 39.81 46.37 41.28 46.26 42.76 C 47.59 43.29 48.90 43.89 50.27 44.31 C 51.62 43.92 52.80 43.10 54.04 42.47 C 55.16 45.02 56.96 47.83 55.81 50.69 C 54.58 53.50 52.47 55.80 50.72 58.29 C 54.22 58.35 57.84 58.43 61.18 57.18 C 69.58 54.29 75.62 45.87 75.76 37.01 C 76.26 31.84 74.16 26.94 71.39 22.70 C 69.54 25.25 68.56 29.63 64.80 29.83 M 40.65 51.70 C 42.53 53.02 44.41 54.36 46.31 55.67 C 47.49 52.35 48.39 48.93 49.05 45.47 C 48.26 45.22 46.68 44.72 45.89 44.47 C 44.09 46.84 42.29 49.22 40.65 51.70 M 39.35 52.95 C 38.81 56.62 40.74 59.83 42.77 62.69 C 43.56 60.54 44.32 58.38 45.07 56.22 C 43.17 55.12 41.27 54.02 39.35 52.95 M 26.14 56.83 C 26.21 57.59 26.34 59.13 26.41 59.90 C 28.77 60.32 31.14 60.72 33.53 60.91 C 31.54 58.79 28.84 57.72 26.14 56.83 M 37.72 56.94 C 36.48 59.97 35.25 63.01 34.09 66.07 C 36.44 66.76 38.80 67.41 41.17 68.00 C 40.91 64.08 39.54 60.38 37.72 56.94 M 44.11 65.31 C 43.84 65.68 43.29 66.41 43.02 66.78 C 52.26 70.07 61.63 73.01 71.08 75.65 C 62.35 71.57 52.98 69.08 44.11 65.31 M 32.09 67.55 C 32.95 69.27 33.83 70.99 34.75 72.69 C 33.08 72.12 31.41 71.57 29.72 71.09 C 30.73 73.67 32.83 75.36 35.41 76.24 C 36.56 74.12 37.67 71.99 38.82 69.88 C 36.60 69.04 34.34 68.30 32.09 67.55 Z" />
<path fill="#ffffff" opacity="1.00" d=" M 55.56 21.85 C 58.41 22.47 60.93 23.99 61.44 27.10 C 58.98 26.49 56.55 25.78 54.13 25.04 C 54.61 23.97 55.08 22.91 55.56 21.85 Z" />
<path fill="#ffffff" opacity="1.00" d=" M 64.80 29.83 C 68.56 29.63 69.54 25.25 71.39 22.70 C 74.16 26.94 76.26 31.84 75.76 37.01 C 75.62 45.87 69.58 54.29 61.18 57.18 C 57.84 58.43 54.22 58.35 50.72 58.29 C 52.47 55.80 54.58 53.50 55.81 50.69 C 56.96 47.83 55.16 45.02 54.04 42.47 C 52.80 43.10 51.62 43.92 50.27 44.31 C 48.90 43.89 47.59 43.29 46.26 42.76 C 46.37 41.28 46.50 39.81 46.63 38.34 C 45.03 37.34 43.45 36.32 41.88 35.29 C 43.92 34.09 46.04 33.05 48.10 31.88 C 47.04 29.19 46.09 26.36 46.77 23.44 C 50.68 24.67 51.87 28.52 52.76 32.09 C 53.04 30.10 53.31 28.11 53.57 26.12 C 57.28 27.41 60.79 29.73 64.80 29.83 M 59.32 30.43 C 59.72 32.65 60.36 34.81 60.99 36.97 C 58.31 37.76 55.84 39.11 54.21 41.43 C 57.66 40.72 61.06 39.79 64.44 38.83 C 63.19 35.77 61.69 32.77 59.32 30.43 M 68.05 51.14 C 70.82 48.66 72.99 45.49 73.43 41.71 C 71.33 44.67 69.58 47.85 68.05 51.14 M 58.24 54.19 C 56.94 54.28 55.60 56.53 57.28 57.10 C 59.25 57.82 60.93 53.83 58.24 54.19 Z" />
<path fill="#b61c2e" opacity="1.00" d=" M 59.32 30.43 C 61.69 32.77 63.19 35.77 64.44 38.83 C 61.06 39.79 57.66 40.72 54.21 41.43 C 55.84 39.11 58.31 37.76 60.99 36.97 C 60.36 34.81 59.72 32.65 59.32 30.43 Z" />
<path fill="#b61c2e" opacity="1.00" d=" M 68.05 51.14 C 69.58 47.85 71.33 44.67 73.43 41.71 C 72.99 45.49 70.82 48.66 68.05 51.14 Z" />
<path fill="#ffffff" opacity="1.00" d=" M 40.65 51.70 C 42.29 49.22 44.09 46.84 45.89 44.47 C 46.68 44.72 48.26 45.22 49.05 45.47 C 48.39 48.93 47.49 52.35 46.31 55.67 C 44.41 54.36 42.53 53.02 40.65 51.70 Z" />
<path fill="#ffffff" opacity="1.00" d=" M 39.35 52.95 C 41.27 54.02 43.17 55.12 45.07 56.22 C 44.32 58.38 43.56 60.54 42.77 62.69 C 40.74 59.83 38.81 56.62 39.35 52.95 Z" />
<path fill="#b61c2e" opacity="1.00" d=" M 58.24 54.19 C 60.93 53.83 59.25 57.82 57.28 57.10 C 55.60 56.53 56.94 54.28 58.24 54.19 Z" />
<path fill="#ffffff" opacity="1.00" d=" M 26.14 56.83 C 28.84 57.72 31.54 58.79 33.53 60.91 C 31.14 60.72 28.77 60.32 26.41 59.90 C 26.34 59.13 26.21 57.59 26.14 56.83 Z" />
<path fill="#ffffff" opacity="1.00" d=" M 37.72 56.94 C 39.54 60.38 40.91 64.08 41.17 68.00 C 38.80 67.41 36.44 66.76 34.09 66.07 C 35.25 63.01 36.48 59.97 37.72 56.94 Z" />
<path fill="#ffffff" opacity="1.00" d=" M 44.11 65.31 C 52.98 69.08 62.35 71.57 71.08 75.65 C 61.63 73.01 52.26 70.07 43.02 66.78 C 43.29 66.41 43.84 65.68 44.11 65.31 Z" />
<path fill="#ffffff" opacity="1.00" d=" M 32.09 67.55 C 34.34 68.30 36.60 69.04 38.82 69.88 C 37.67 71.99 36.56 74.12 35.41 76.24 C 32.83 75.36 30.73 73.67 29.72 71.09 C 31.41 71.57 33.08 72.12 34.75 72.69 C 33.83 70.99 32.95 69.27 32.09 67.55 Z" />
</svg>
