<?xml version="1.0" encoding="UTF-8" ?>
<!DOCTYPE svg PUBLIC "-//W3C//DTD SVG 1.1//EN" "http://www.w3.org/Graphics/SVG/1.1/DTD/svg11.dtd">
<svg width="100pt" height="100pt" viewBox="0 0 100 100" version="1.1" xmlns="http://www.w3.org/2000/svg">
<path fill="#b8c6c5" opacity="1.00" d=" M 17.83 19.40 C 37.98 19.39 58.13 19.39 78.29 19.40 C 78.22 26.36 78.33 33.32 78.20 40.28 C 85.55 41.26 92.00 45.06 98.62 48.14 C 92.02 51.44 85.68 55.74 78.20 56.74 C 78.34 64.40 78.20 72.07 78.29 79.73 C 58.13 79.68 37.97 79.70 17.82 79.72 C 17.88 71.95 17.86 64.18 17.81 56.41 C 13.41 57.29 8.41 59.83 4.25 56.81 C -0.80 53.79 -1.02 46.05 3.54 42.47 C 7.38 38.24 13.08 41.35 17.70 42.03 C 17.97 34.49 17.83 26.95 17.83 19.40 M 21.35 22.85 C 21.53 30.03 21.44 37.21 21.32 44.39 C 16.64 44.31 12.02 43.25 7.35 43.33 C 3.81 44.29 1.45 49.04 3.37 52.37 C 4.29 54.14 6.05 55.77 8.17 55.64 C 12.68 55.52 17.10 54.44 21.59 53.98 C 21.37 61.54 21.49 69.10 21.64 76.66 C 39.48 76.49 57.32 76.53 75.15 76.64 C 75.19 69.27 75.37 61.90 75.21 54.53 C 81.56 54.20 87.53 51.84 92.78 48.32 C 87.36 45.31 81.44 43.28 75.23 42.77 C 75.31 36.11 75.20 29.45 75.21 22.79 C 57.26 22.75 39.30 22.65 21.35 22.85 Z" />
<path fill="#b61c2e" opacity="1.00" d=" M 21.35 22.85 C 39.30 22.65 57.26 22.75 75.21 22.79 C 75.20 29.45 75.31 36.11 75.23 42.77 C 81.44 43.28 87.36 45.31 92.78 48.32 C 87.53 51.84 81.56 54.20 75.21 54.53 C 75.37 61.90 75.19 69.27 75.15 76.64 C 57.32 76.53 39.48 76.49 21.64 76.66 C 21.49 69.10 21.37 61.54 21.59 53.98 C 17.10 54.44 12.68 55.52 8.17 55.64 C 6.05 55.77 4.29 54.14 3.37 52.37 C 1.45 49.04 3.81 44.29 7.35 43.33 C 12.02 43.25 16.64 44.31 21.32 44.39 C 21.44 37.21 21.53 30.03 21.35 22.85 M 29.68 42.98 C 29.80 47.45 30.02 51.91 30.12 56.38 C 32.47 54.80 34.90 52.98 37.89 53.02 C 50.93 52.44 64.00 52.22 77.05 51.69 C 80.77 51.62 84.27 50.27 87.65 48.83 C 83.69 46.97 79.41 45.73 75.00 45.96 C 65.99 46.39 57.00 45.48 47.98 45.59 C 41.81 45.51 35.33 45.94 29.68 42.98 M 7.26 46.31 C 5.54 47.59 4.42 50.14 6.02 51.98 C 7.28 54.09 9.88 53.06 11.78 52.75 C 17.13 51.50 22.67 51.82 28.11 51.98 C 28.09 50.19 28.08 48.39 28.07 46.60 C 22.60 46.81 16.95 48.07 11.60 46.36 C 10.19 46.18 8.48 45.11 7.26 46.31 Z" />
<path fill="#ffffff" opacity="1.00" d=" M 29.68 42.98 C 35.33 45.94 41.81 45.51 47.98 45.59 C 57.00 45.48 65.99 46.39 75.00 45.96 C 79.41 45.73 83.69 46.97 87.65 48.83 C 84.27 50.27 80.77 51.62 77.05 51.69 C 64.00 52.22 50.93 52.44 37.89 53.02 C 34.90 52.98 32.47 54.80 30.12 56.38 C 30.02 51.91 29.80 47.45 29.68 42.98 Z" />
<path fill="#ffffff" opacity="1.00" d=" M 7.26 46.31 C 8.48 45.11 10.19 46.18 11.60 46.36 C 16.95 48.07 22.60 46.81 28.07 46.60 C 28.08 48.39 28.09 50.19 28.11 51.98 C 22.67 51.82 17.13 51.50 11.78 52.75 C 9.88 53.06 7.28 54.09 6.02 51.98 C 4.42 50.14 5.54 47.59 7.26 46.31 Z" />
</svg>
