<?xml version="1.0" encoding="UTF-8" ?>
<!DOCTYPE svg PUBLIC "-//W3C//DTD SVG 1.1//EN" "http://www.w3.org/Graphics/SVG/1.1/DTD/svg11.dtd">
<svg width="100pt" height="100pt" viewBox="0 0 100 100" version="1.1" xmlns="http://www.w3.org/2000/svg">
<path fill="#bab9b9" opacity="1.00" d=" M 42.89 28.91 C 45.52 26.42 47.26 23.19 49.37 20.28 C 51.67 23.10 53.50 26.34 56.17 28.85 C 58.51 30.54 61.12 31.82 63.37 33.64 C 66.92 36.46 72.16 37.36 74.20 41.82 C 76.80 46.42 75.38 51.82 75.96 56.78 C 80.83 64.74 86.84 71.96 92.01 79.74 C 84.65 79.81 77.29 79.56 69.94 79.75 C 66.70 79.77 64.39 82.36 61.58 83.60 C 55.94 86.10 49.46 87.78 43.42 85.64 C 39.05 84.82 35.42 82.29 31.77 79.94 C 23.89 78.85 15.84 79.83 7.89 79.50 C 12.85 72.03 18.47 64.97 23.18 57.35 C 24.22 52.35 22.23 46.73 24.98 42.01 C 26.94 37.50 32.13 36.48 35.72 33.74 C 38.00 31.96 40.56 30.60 42.89 28.91 M 49.37 26.01 C 46.32 30.94 40.63 32.72 36.23 36.09 C 32.76 38.62 27.52 39.54 26.19 44.21 C 24.16 49.02 26.71 54.19 25.79 59.07 C 22.28 65.20 17.41 70.46 13.95 76.65 C 19.31 76.79 24.67 76.32 30.02 76.73 C 32.40 76.92 34.12 78.76 36.00 80.02 C 43.57 85.84 54.79 85.93 62.63 80.58 C 64.98 79.17 67.07 76.95 69.93 76.72 C 75.32 76.34 80.71 76.78 86.10 76.64 C 83.25 72.00 80.02 67.62 76.68 63.32 C 75.47 61.58 73.97 59.90 73.51 57.78 C 73.14 52.98 74.85 47.89 72.72 43.32 C 71.14 39.34 66.54 38.50 63.36 36.27 C 58.73 32.76 52.82 30.93 49.37 26.01 Z" />
<path fill="#217a7a" opacity="1.00" d=" M 49.37 26.01 C 52.82 30.93 58.73 32.76 63.36 36.27 C 66.54 38.50 71.14 39.34 72.72 43.32 C 74.85 47.89 73.14 52.98 73.51 57.78 C 73.97 59.90 75.47 61.58 76.68 63.32 C 80.02 67.62 83.25 72.00 86.10 76.64 C 80.71 76.78 75.32 76.34 69.93 76.72 C 67.07 76.95 64.98 79.17 62.63 80.58 C 54.79 85.93 43.57 85.84 36.00 80.02 C 34.12 78.76 32.40 76.92 30.02 76.73 C 24.67 76.32 19.31 76.79 13.95 76.65 C 17.41 70.46 22.28 65.20 25.79 59.07 C 26.71 54.19 24.16 49.02 26.19 44.21 C 27.52 39.54 32.76 38.62 36.23 36.09 C 40.63 32.72 46.32 30.94 49.37 26.01 M 43.32 34.41 C 40.35 35.39 38.65 38.41 35.78 39.60 C 33.21 40.90 29.76 41.59 28.69 44.64 C 26.46 50.44 27.89 57.31 32.15 61.82 C 36.57 65.92 31.18 73.13 36.03 77.02 C 43.58 83.93 56.25 83.51 63.80 76.82 C 67.89 72.80 62.81 66.01 67.05 62.00 C 71.41 57.40 73.00 50.35 70.52 44.45 C 69.32 41.46 65.88 40.83 63.31 39.52 C 60.24 38.18 58.49 34.58 54.97 34.17 C 51.12 33.57 47.12 33.51 43.32 34.41 Z" />
<path fill="#ffffff" opacity="1.00" d=" M 43.32 34.41 C 47.12 33.51 51.12 33.57 54.97 34.17 C 58.49 34.58 60.24 38.18 63.31 39.52 C 65.88 40.83 69.32 41.46 70.52 44.45 C 73.00 50.35 71.41 57.40 67.05 62.00 C 62.81 66.01 67.89 72.80 63.80 76.82 C 56.25 83.51 43.58 83.93 36.03 77.02 C 31.18 73.13 36.57 65.92 32.15 61.82 C 27.89 57.31 26.46 50.44 28.69 44.64 C 29.76 41.59 33.21 40.90 35.78 39.60 C 38.65 38.41 40.35 35.39 43.32 34.41 M 46.40 35.51 C 41.67 35.20 39.95 40.56 35.77 41.57 C 33.76 42.45 31.03 42.85 30.23 45.22 C 28.08 50.68 29.65 57.13 33.77 61.23 C 37.61 64.62 34.43 69.95 35.82 74.14 C 38.77 78.77 44.75 80.17 49.88 80.52 C 54.78 79.93 60.46 78.74 63.55 74.52 C 64.63 70.20 61.73 64.88 65.39 61.38 C 69.64 57.24 71.22 50.63 68.97 45.09 C 67.93 42.47 64.75 42.28 62.53 41.18 C 59.83 40.20 58.40 37.39 55.88 36.14 C 52.83 35.19 49.55 35.22 46.40 35.51 Z" />
<path fill="#026868" opacity="1.00" d=" M 46.40 35.51 C 49.55 35.22 52.83 35.19 55.88 36.14 C 58.40 37.39 59.83 40.20 62.53 41.18 C 64.75 42.28 67.93 42.47 68.97 45.09 C 71.22 50.63 69.64 57.24 65.39 61.38 C 61.73 64.88 64.63 70.20 63.55 74.52 C 60.46 78.74 54.78 79.93 49.88 80.52 C 44.75 80.17 38.77 78.77 35.82 74.14 C 34.43 69.95 37.61 64.62 33.77 61.23 C 29.65 57.13 28.08 50.68 30.23 45.22 C 31.03 42.85 33.76 42.45 35.77 41.57 C 39.95 40.56 41.67 35.20 46.40 35.51 M 44.68 37.77 C 42.16 38.96 40.82 41.80 38.17 42.81 C 36.23 43.69 34.04 44.09 32.28 45.34 C 30.90 47.82 31.07 50.85 31.50 53.57 C 32.17 57.30 35.42 59.64 37.24 62.75 C 38.26 66.21 36.92 69.88 37.63 73.39 C 39.58 76.51 43.43 77.52 46.79 78.31 C 52.23 79.45 57.63 77.03 62.07 74.08 C 61.88 70.44 61.23 66.75 61.88 63.13 C 63.45 60.06 66.50 57.89 67.53 54.51 C 68.53 51.36 67.77 48.05 67.28 44.89 C 65.40 44.35 63.52 43.80 61.68 43.14 C 58.75 42.05 57.21 38.92 54.38 37.71 C 51.21 37.02 47.84 37.00 44.68 37.77 Z" />
<path fill="#ffffff" opacity="1.00" d=" M 44.68 37.77 C 47.84 37.00 51.21 37.02 54.38 37.71 C 57.21 38.92 58.75 42.05 61.68 43.14 C 63.52 43.80 65.40 44.35 67.28 44.89 C 67.77 48.05 68.53 51.36 67.53 54.51 C 66.50 57.89 63.45 60.06 61.88 63.13 C 61.23 66.75 61.88 70.44 62.07 74.08 C 57.63 77.03 52.23 79.45 46.79 78.31 C 43.43 77.52 39.58 76.51 37.63 73.39 C 36.92 69.88 38.26 66.21 37.24 62.75 C 35.42 59.64 32.17 57.30 31.50 53.57 C 31.07 50.85 30.90 47.82 32.28 45.34 C 34.04 44.09 36.23 43.69 38.17 42.81 C 40.82 41.80 42.16 38.96 44.68 37.77 M 44.43 40.05 C 45.87 41.37 47.16 43.16 49.15 43.66 C 51.65 43.96 53.15 41.43 54.78 39.98 C 51.35 39.34 47.84 39.32 44.43 40.05 M 34.37 47.99 C 33.34 48.60 33.25 50.43 34.29 51.09 C 36.03 51.40 36.16 47.69 34.37 47.99 M 64.17 46.20 C 64.11 48.45 64.09 50.70 64.28 52.95 C 66.42 50.98 65.25 48.37 64.17 46.20 M 38.35 55.64 C 40.32 58.38 42.34 61.08 44.36 63.78 C 43.73 60.19 41.45 57.43 38.35 55.64 M 54.89 63.98 C 56.67 61.54 58.32 59.01 59.79 56.37 C 57.01 58.05 55.49 60.86 54.89 63.98 Z" />
<path fill="#026868" opacity="1.00" d=" M 44.43 40.05 C 47.84 39.32 51.35 39.34 54.78 39.98 C 53.15 41.43 51.65 43.96 49.15 43.66 C 47.16 43.16 45.87 41.37 44.43 40.05 Z" />
<path fill="#066262" opacity="1.00" d=" M 34.37 47.99 C 36.16 47.69 36.03 51.40 34.29 51.09 C 33.25 50.43 33.34 48.60 34.37 47.99 Z" />
<path fill="#026868" opacity="1.00" d=" M 64.17 46.20 C 65.25 48.37 66.42 50.98 64.28 52.95 C 64.09 50.70 64.11 48.45 64.17 46.20 Z" />
<path fill="#026868" opacity="1.00" d=" M 38.35 55.64 C 41.45 57.43 43.73 60.19 44.36 63.78 C 42.34 61.08 40.32 58.38 38.35 55.64 Z" />
<path fill="#217a7a" opacity="1.00" d=" M 54.89 63.98 C 55.49 60.86 57.01 58.05 59.79 56.37 C 58.32 59.01 56.67 61.54 54.89 63.98 Z" />
</svg>
