<?xml version="1.0" encoding="UTF-8" ?>
<!DOCTYPE svg PUBLIC "-//W3C//DTD SVG 1.1//EN" "http://www.w3.org/Graphics/SVG/1.1/DTD/svg11.dtd">
<svg width="100pt" height="100pt" viewBox="0 0 100 100" version="1.1" xmlns="http://www.w3.org/2000/svg">
<path fill="#bab9b9" opacity="1.00" d=" M 40.90 28.09 C 40.88 22.20 41.57 16.36 42.84 10.61 C 47.16 16.28 50.92 22.34 55.12 28.09 C 57.71 25.09 60.55 22.32 63.66 19.87 C 65.97 25.99 65.53 32.58 64.52 38.91 C 69.02 38.60 73.54 38.59 78.04 38.90 C 76.10 42.89 73.64 46.59 70.77 49.97 C 77.91 59.84 84.92 69.80 92.05 79.69 C 89.11 79.70 86.15 79.53 83.23 79.92 C 81.02 82.78 79.34 86.20 76.14 88.14 C 73.96 89.45 71.02 91.68 68.55 89.79 C 65.54 87.51 65.68 83.20 63.49 80.32 C 61.48 79.39 59.19 79.65 57.04 79.55 C 40.64 79.74 24.24 79.43 7.84 79.49 C 11.94 73.78 15.88 67.96 20.02 62.27 C 14.31 62.37 8.62 61.54 3.39 59.17 C 6.21 57.31 8.97 55.26 12.17 54.10 C 18.49 51.80 25.43 51.07 31.22 47.42 C 27.89 42.58 24.85 37.50 23.10 31.85 C 28.63 32.22 33.84 34.08 38.93 36.13 C 40.07 33.59 41.00 30.92 40.90 28.09 M 44.02 15.56 C 42.00 23.31 44.41 31.84 40.48 39.11 C 35.81 36.95 30.97 35.02 25.85 34.30 C 28.23 39.29 31.29 43.89 34.45 48.41 C 26.39 53.83 15.83 53.05 7.96 58.84 C 13.56 60.26 19.34 60.35 25.08 60.40 C 21.26 65.74 17.46 71.11 13.89 76.62 C 28.68 76.63 43.47 76.80 58.26 76.42 C 60.22 76.60 62.73 76.15 64.12 77.90 C 66.55 80.88 67.42 84.76 69.49 87.97 C 73.87 88.47 78.06 85.00 79.75 81.15 C 78.78 79.38 77.45 77.86 76.20 76.29 C 79.52 76.50 82.84 76.62 86.15 76.69 C 80.46 67.75 73.72 59.53 67.74 50.79 C 70.20 47.55 72.61 44.26 74.66 40.74 C 70.39 40.59 66.14 40.89 61.91 41.42 C 63.15 35.47 63.65 29.37 62.95 23.32 C 59.79 25.93 57.06 29.02 54.51 32.23 C 50.12 27.26 47.36 21.22 44.02 15.56 Z" />
<path fill="#217a7a" opacity="1.00" d=" M 44.02 15.56 C 47.36 21.22 50.12 27.26 54.51 32.23 C 57.06 29.02 59.79 25.93 62.95 23.32 C 63.65 29.37 63.15 35.47 61.91 41.42 C 66.14 40.89 70.39 40.59 74.66 40.74 C 72.61 44.26 70.20 47.55 67.74 50.79 C 73.72 59.53 80.46 67.75 86.15 76.69 C 82.84 76.62 79.52 76.50 76.20 76.29 C 77.45 77.86 78.78 79.38 79.75 81.15 C 78.06 85.00 73.87 88.47 69.49 87.97 C 67.42 84.76 66.55 80.88 64.12 77.90 C 62.73 76.15 60.22 76.60 58.26 76.42 C 43.47 76.80 28.68 76.63 13.89 76.62 C 17.46 71.11 21.26 65.74 25.08 60.40 C 19.34 60.35 13.56 60.26 7.96 58.84 C 15.83 53.05 26.39 53.83 34.45 48.41 C 31.29 43.89 28.23 39.29 25.85 34.30 C 30.97 35.02 35.81 36.95 40.48 39.11 C 44.41 31.84 42.00 23.31 44.02 15.56 M 44.91 20.64 C 44.90 28.62 45.38 36.61 45.01 44.60 C 39.68 41.37 34.30 38.18 28.44 36.00 C 32.00 41.31 36.35 46.00 40.48 50.85 C 30.63 53.59 20.62 55.67 10.78 58.42 C 20.55 58.34 30.32 58.21 40.08 57.86 C 38.05 61.60 36.07 65.37 34.17 69.18 C 39.49 66.73 44.72 64.12 49.97 61.52 C 48.96 60.45 47.95 59.39 46.95 58.33 C 46.11 58.92 45.27 59.50 44.43 60.09 C 44.91 56.41 44.85 52.38 42.76 49.16 C 40.69 46.28 38.00 43.93 35.67 41.28 C 39.29 43.11 42.82 45.11 46.46 46.91 C 46.58 42.19 46.41 37.46 46.50 32.74 C 47.82 37.29 48.79 41.93 49.96 46.52 C 52.00 44.34 54.00 42.12 56.03 39.93 C 55.34 42.83 54.58 45.71 53.92 48.62 C 57.43 48.66 60.86 47.85 64.21 46.86 C 62.62 48.46 60.81 49.89 59.53 51.77 C 60.95 54.37 62.75 56.73 64.45 59.15 C 63.87 56.59 63.11 54.06 62.22 51.58 C 65.85 48.67 69.26 45.48 72.30 41.94 C 67.44 42.79 62.68 44.10 57.93 45.42 C 59.81 39.27 61.37 33.00 61.82 26.57 C 58.08 31.26 54.84 36.33 51.16 41.07 C 49.02 34.28 47.33 27.34 44.91 20.64 M 47.41 48.65 C 49.04 56.18 53.55 62.57 57.38 69.10 C 55.71 70.80 54.06 72.53 52.57 74.40 C 56.05 73.78 59.42 72.70 62.66 71.31 C 66.08 75.80 69.60 80.39 70.83 86.04 C 73.01 84.59 75.13 83.06 77.26 81.54 C 72.44 78.28 68.72 73.81 65.02 69.40 C 67.62 66.88 69.94 64.04 71.28 60.64 C 68.94 61.62 66.69 62.79 64.54 64.15 C 59.87 58.04 55.15 51.04 47.41 48.65 Z" />
<path fill="#ffffff" opacity="1.00" d=" M 44.91 20.64 C 47.33 27.34 49.02 34.28 51.16 41.07 C 54.84 36.33 58.08 31.26 61.82 26.57 C 61.37 33.00 59.81 39.27 57.93 45.42 C 62.68 44.10 67.44 42.79 72.30 41.94 C 69.26 45.48 65.85 48.67 62.22 51.58 C 63.11 54.06 63.87 56.59 64.45 59.15 C 62.75 56.73 60.95 54.37 59.53 51.77 C 60.81 49.89 62.62 48.46 64.21 46.86 C 60.86 47.85 57.43 48.66 53.92 48.62 C 54.58 45.71 55.34 42.83 56.03 39.93 C 54.00 42.12 52.00 44.34 49.96 46.52 C 48.79 41.93 47.82 37.29 46.50 32.74 C 46.41 37.46 46.58 42.19 46.46 46.91 C 42.82 45.11 39.29 43.11 35.67 41.28 C 38.00 43.93 40.69 46.28 42.76 49.16 C 44.85 52.38 44.91 56.41 44.43 60.09 C 45.27 59.50 46.11 58.92 46.95 58.33 C 47.95 59.39 48.96 60.45 49.97 61.52 C 44.72 64.12 39.49 66.73 34.17 69.18 C 36.07 65.37 38.05 61.60 40.08 57.86 C 30.32 58.21 20.55 58.34 10.78 58.42 C 20.62 55.67 30.63 53.59 40.48 50.85 C 36.35 46.00 32.00 41.31 28.44 36.00 C 34.30 38.18 39.68 41.37 45.01 44.60 C 45.38 36.61 44.90 28.62 44.91 20.64 Z" />
<path fill="#ffffff" opacity="1.00" d=" M 47.41 48.65 C 55.15 51.04 59.87 58.04 64.54 64.15 C 66.69 62.79 68.94 61.62 71.28 60.64 C 69.94 64.04 67.62 66.88 65.02 69.40 C 68.72 73.81 72.44 78.28 77.26 81.54 C 75.13 83.06 73.01 84.59 70.83 86.04 C 69.60 80.39 66.08 75.80 62.66 71.31 C 59.42 72.70 56.05 73.78 52.57 74.40 C 54.06 72.53 55.71 70.80 57.38 69.10 C 53.55 62.57 49.04 56.18 47.41 48.65 Z" />
</svg>
