<?xml version="1.0" encoding="UTF-8" ?>
<!DOCTYPE svg PUBLIC "-//W3C//DTD SVG 1.1//EN" "http://www.w3.org/Graphics/SVG/1.1/DTD/svg11.dtd">
<svg width="100pt" height="100pt" viewBox="0 0 100 100" version="1.1" xmlns="http://www.w3.org/2000/svg">
<path fill="#ffffff" opacity="1.00" d=" M 66.30 5.31 C 71.29 2.00 78.28 6.68 79.17 12.07 C 79.67 15.80 75.84 17.65 73.48 19.72 C 82.74 27.33 88.45 39.02 88.36 51.03 C 87.69 60.39 84.08 69.70 77.46 76.47 C 70.37 83.92 60.19 88.00 50.00 88.39 C 41.46 88.02 32.89 85.19 26.20 79.79 C 19.83 74.77 15.23 67.60 13.16 59.77 C 8.03 42.95 17.23 23.48 32.92 15.91 C 42.21 11.12 53.29 10.82 63.13 14.05 C 63.74 11.05 63.29 7.14 66.30 5.31 M 65.95 10.13 C 65.47 13.03 64.33 18.15 60.30 16.70 C 50.46 14.11 39.53 15.12 31.02 20.98 C 18.51 28.87 12.35 45.21 16.57 59.40 C 20.70 74.98 36.79 86.23 52.87 84.60 C 69.94 83.49 84.63 68.15 84.69 50.99 C 85.30 39.58 79.30 28.86 70.63 21.79 C 71.86 18.43 74.58 16.14 76.94 13.61 C 78.68 7.61 66.69 2.89 65.95 10.13 Z" />
<path fill="#482b46" opacity="1.00" d=" M 65.95 10.13 C 66.69 2.89 78.68 7.61 76.94 13.61 C 74.58 16.14 71.86 18.43 70.63 21.79 C 79.30 28.86 85.30 39.58 84.69 50.99 C 84.63 68.15 69.94 83.49 52.87 84.60 C 36.79 86.23 20.70 74.98 16.57 59.40 C 12.35 45.21 18.51 28.87 31.02 20.98 C 39.53 15.12 50.46 14.11 60.30 16.70 C 64.33 18.15 65.47 13.03 65.95 10.13 M 68.92 8.50 C 69.58 14.40 65.08 18.91 61.71 23.16 C 57.78 24.25 54.42 20.84 51.09 19.25 C 50.36 19.90 49.63 20.55 48.91 21.20 C 51.68 22.96 54.52 24.62 57.38 26.23 C 56.92 27.56 56.46 28.88 56.00 30.20 C 50.86 30.00 45.72 30.17 40.60 30.57 C 39.75 32.35 39.45 34.59 37.92 35.94 C 35.45 37.10 32.64 37.12 29.98 37.53 C 29.25 46.66 32.14 55.69 37.68 62.93 C 35.26 66.99 33.32 71.58 34.69 76.37 C 38.72 75.09 41.65 72.05 43.57 68.38 C 45.69 69.60 47.84 70.76 49.97 71.97 C 55.77 68.70 61.35 64.62 64.84 58.82 C 68.98 52.56 70.25 44.93 69.98 37.55 C 67.53 37.32 65.07 37.06 62.63 36.77 C 63.51 34.83 64.42 32.90 65.33 30.97 C 68.50 32.64 71.63 34.39 74.83 36.01 C 74.70 34.88 74.57 33.75 74.44 32.62 C 71.60 30.70 67.64 29.48 66.27 26.07 C 67.96 20.62 70.37 15.20 74.63 11.24 C 72.75 10.27 70.85 9.35 68.92 8.50 Z" />
<path fill="#ffffff" opacity="1.00" d=" M 68.92 8.50 C 70.85 9.35 72.75 10.27 74.63 11.24 C 70.37 15.20 67.96 20.62 66.27 26.07 C 67.64 29.48 71.60 30.70 74.44 32.62 C 74.57 33.75 74.70 34.88 74.83 36.01 C 71.63 34.39 68.50 32.64 65.33 30.97 C 64.42 32.90 63.51 34.83 62.63 36.77 C 65.07 37.06 67.53 37.32 69.98 37.55 C 70.25 44.93 68.98 52.56 64.84 58.82 C 61.35 64.62 55.77 68.70 49.97 71.97 C 47.84 70.76 45.69 69.60 43.57 68.38 C 41.65 72.05 38.72 75.09 34.69 76.37 C 33.32 71.58 35.26 66.99 37.68 62.93 C 32.14 55.69 29.25 46.66 29.98 37.53 C 32.64 37.12 35.45 37.10 37.92 35.94 C 39.45 34.59 39.75 32.35 40.60 30.57 C 45.72 30.17 50.86 30.00 56.00 30.20 C 56.46 28.88 56.92 27.56 57.38 26.23 C 54.52 24.62 51.68 22.96 48.91 21.20 C 49.63 20.55 50.36 19.90 51.09 19.25 C 54.42 20.84 57.78 24.25 61.71 23.16 C 65.08 18.91 69.58 14.40 68.92 8.50 M 43.02 32.75 C 41.94 34.40 41.06 36.23 39.58 37.58 C 37.28 38.90 34.60 39.33 32.21 40.46 C 31.68 52.58 39.30 63.89 49.91 69.34 C 53.98 66.70 58.11 63.94 61.10 60.03 C 65.60 54.53 67.54 47.45 67.87 40.45 C 65.35 39.64 62.57 39.26 60.36 37.68 C 58.92 36.30 58.02 34.48 56.95 32.82 C 52.32 32.33 47.66 32.31 43.02 32.75 Z" />
<path fill="#422740" opacity="1.00" d=" M 43.02 32.75 C 47.66 32.31 52.32 32.33 56.95 32.82 C 58.02 34.48 58.92 36.30 60.36 37.68 C 62.57 39.26 65.35 39.64 67.87 40.45 C 67.54 47.45 65.60 54.53 61.10 60.03 C 58.11 63.94 53.98 66.70 49.91 69.34 C 39.30 63.89 31.68 52.58 32.21 40.46 C 34.60 39.33 37.28 38.90 39.58 37.58 C 41.06 36.23 41.94 34.40 43.02 32.75 M 33.46 41.87 C 34.13 52.40 40.10 62.96 49.94 67.34 C 59.59 62.73 66.13 52.33 66.13 41.62 C 61.68 40.70 57.86 38.15 55.63 34.16 C 51.86 33.96 48.08 33.94 44.31 34.11 C 42.04 38.29 37.84 40.52 33.46 41.87 Z" />
<path fill="#ffffff" opacity="1.00" d=" M 33.46 41.87 C 37.84 40.52 42.04 38.29 44.31 34.11 C 48.08 33.94 51.86 33.96 55.63 34.16 C 57.86 38.15 61.68 40.70 66.13 41.62 C 66.13 52.33 59.59 62.73 49.94 67.34 C 40.10 62.96 34.13 52.40 33.46 41.87 M 43.42 37.47 C 41.19 40.09 38.07 41.57 34.87 42.65 C 35.48 47.50 36.63 52.42 39.43 56.51 C 42.00 60.64 45.91 63.63 49.88 66.31 C 53.86 63.54 57.85 60.54 60.45 56.36 C 63.21 52.34 64.35 47.53 65.04 42.78 C 60.64 41.74 57.50 38.59 54.34 35.61 C 50.76 34.71 45.97 34.17 43.42 37.47 Z" />
<path fill="#482b46" opacity="1.00" d=" M 43.42 37.47 C 45.97 34.17 50.76 34.71 54.34 35.61 C 57.50 38.59 60.64 41.74 65.04 42.78 C 64.35 47.53 63.21 52.34 60.45 56.36 C 57.85 60.54 53.86 63.54 49.88 66.31 C 45.91 63.63 42.00 60.64 39.43 56.51 C 36.63 52.42 35.48 47.50 34.87 42.65 C 38.07 41.57 41.19 40.09 43.42 37.47 M 41.05 49.80 C 43.54 53.94 46.95 57.42 49.96 61.16 C 52.96 57.40 56.37 53.93 58.89 49.80 C 56.90 45.21 52.95 41.82 49.97 37.87 C 46.95 41.79 43.05 45.21 41.05 49.80 Z" />
<path fill="#ffffff" opacity="1.00" d=" M 41.05 49.80 C 43.05 45.21 46.95 41.79 49.97 37.87 C 52.95 41.82 56.90 45.21 58.89 49.80 C 56.37 53.93 52.96 57.40 49.96 61.16 C 46.95 57.42 43.54 53.94 41.05 49.80 M 50.11 41.28 C 50.01 44.62 50.01 47.96 50.03 51.30 C 52.29 50.61 54.53 49.90 56.78 49.17 C 54.65 46.46 52.47 43.79 50.11 41.28 M 44.42 51.50 C 46.26 53.76 48.10 56.01 49.97 58.25 C 51.81 56.03 53.63 53.79 55.47 51.57 C 51.83 52.56 48.06 52.47 44.42 51.50 Z" />
<path fill="#422740" opacity="1.00" d=" M 50.11 41.28 C 52.47 43.79 54.65 46.46 56.78 49.17 C 54.53 49.90 52.29 50.61 50.03 51.30 C 50.01 47.96 50.01 44.62 50.11 41.28 Z" />
<path fill="#422740" opacity="1.00" d=" M 44.42 51.50 C 48.06 52.47 51.83 52.56 55.47 51.57 C 53.63 53.79 51.81 56.03 49.97 58.25 C 48.10 56.01 46.26 53.76 44.42 51.50 Z" />
</svg>
