<?xml version="1.0" encoding="UTF-8" ?>
<!DOCTYPE svg PUBLIC "-//W3C//DTD SVG 1.1//EN" "http://www.w3.org/Graphics/SVG/1.1/DTD/svg11.dtd">
<svg width="100pt" height="100pt" viewBox="0 0 100 100" version="1.1" xmlns="http://www.w3.org/2000/svg">
<path fill="#b8bbba" opacity="1.00" d=" M 46.24 7.12 C 48.15 5.04 51.75 3.57 54.23 5.58 C 57.83 7.89 56.02 12.90 56.60 16.49 C 64.66 16.54 72.72 16.43 80.78 16.58 C 80.66 37.13 80.73 57.68 80.74 78.22 C 73.17 78.31 65.59 78.27 58.01 78.26 C 58.24 81.85 58.56 85.45 58.38 89.05 C 58.39 92.95 53.96 96.25 50.26 95.17 C 46.33 93.21 45.85 88.16 42.53 85.55 C 39.64 83.10 36.95 80.28 33.52 78.59 C 28.48 77.83 23.34 78.42 18.26 78.24 C 18.27 57.68 18.34 37.13 18.22 16.58 C 27.21 16.43 36.20 16.51 45.18 16.53 C 45.45 13.40 44.98 10.07 46.24 7.12 M 47.54 20.64 C 39.14 20.70 30.73 20.40 22.34 20.85 C 22.37 38.81 22.37 56.77 22.34 74.73 C 26.10 74.79 29.96 74.31 33.63 75.27 C 37.45 77.70 40.57 81.08 43.87 84.16 C 46.50 86.62 47.66 90.30 50.42 92.61 C 52.56 93.03 55.08 91.23 54.88 88.93 C 55.11 84.09 54.53 79.23 54.87 74.38 C 62.29 74.20 69.72 74.18 77.14 73.84 C 77.44 56.15 77.37 38.44 77.18 20.75 C 69.33 20.51 61.47 20.71 53.62 20.54 C 53.58 15.68 53.67 10.55 50.97 6.28 C 46.65 9.85 47.70 15.70 47.54 20.64 Z" />
<path fill="#b61c2e" opacity="1.00" d=" M 47.54 20.64 C 47.70 15.70 46.65 9.85 50.97 6.28 C 53.67 10.55 53.58 15.68 53.62 20.54 C 61.47 20.71 69.33 20.51 77.18 20.75 C 77.37 38.44 77.44 56.15 77.14 73.84 C 69.72 74.18 62.29 74.20 54.87 74.38 C 54.53 79.23 55.11 84.09 54.88 88.93 C 55.08 91.23 52.56 93.03 50.42 92.61 C 47.66 90.30 46.50 86.62 43.87 84.16 C 40.57 81.08 37.45 77.70 33.63 75.27 C 29.96 74.31 26.10 74.79 22.34 74.73 C 22.37 56.77 22.37 38.81 22.34 20.85 C 30.73 20.40 39.14 20.70 47.54 20.64 M 50.77 9.41 C 49.10 23.77 49.23 38.28 47.86 52.68 C 41.78 55.50 38.49 61.46 34.31 66.35 C 35.62 67.51 37.03 68.56 38.19 69.88 C 38.65 71.80 38.34 73.86 38.94 75.75 C 40.67 79.03 43.90 81.05 46.46 83.61 C 48.65 85.98 50.11 88.91 52.07 91.48 C 53.34 83.60 52.35 75.59 52.94 67.66 C 51.10 67.83 49.26 68.00 47.42 68.17 C 48.04 72.60 48.59 77.05 48.82 81.52 C 45.92 80.23 42.44 78.88 41.39 75.54 C 40.53 72.86 40.35 68.55 43.61 67.48 C 50.84 63.96 58.76 66.95 66.34 66.55 C 63.32 62.99 60.68 59.06 57.24 55.90 C 55.66 54.29 52.67 53.42 52.63 50.80 C 51.78 37.03 52.36 23.12 50.77 9.41 M 56.46 38.44 C 54.75 39.43 53.54 41.03 52.96 42.91 C 60.84 40.48 67.59 35.45 74.95 31.85 C 74.99 30.27 75.03 28.70 75.09 27.12 C 68.84 30.82 62.57 34.50 56.46 38.44 M 23.91 61.14 C 28.78 58.78 33.21 55.63 37.86 52.88 C 40.44 51.39 42.77 49.49 44.54 47.07 C 37.03 50.70 30.23 55.75 23.91 61.14 Z" />
<path fill="#ffffff" opacity="1.00" d=" M 50.77 9.41 C 52.36 23.12 51.78 37.03 52.63 50.80 C 52.67 53.42 55.66 54.29 57.24 55.90 C 60.68 59.06 63.32 62.99 66.34 66.55 C 58.76 66.95 50.84 63.96 43.61 67.48 C 40.35 68.55 40.53 72.86 41.39 75.54 C 42.44 78.88 45.92 80.23 48.82 81.52 C 48.59 77.05 48.04 72.60 47.42 68.17 C 49.26 68.00 51.10 67.83 52.94 67.66 C 52.35 75.59 53.34 83.60 52.07 91.48 C 50.11 88.91 48.65 85.98 46.46 83.61 C 43.90 81.05 40.67 79.03 38.94 75.75 C 38.34 73.86 38.65 71.80 38.19 69.88 C 37.03 68.56 35.62 67.51 34.31 66.35 C 38.49 61.46 41.78 55.50 47.86 52.68 C 49.23 38.28 49.10 23.77 50.77 9.41 Z" />
<path fill="#ffffff" opacity="1.00" d=" M 56.46 38.44 C 62.57 34.50 68.84 30.82 75.09 27.12 C 75.03 28.70 74.99 30.27 74.95 31.85 C 67.59 35.45 60.84 40.48 52.96 42.91 C 53.54 41.03 54.75 39.43 56.46 38.44 Z" />
<path fill="#ffffff" opacity="1.00" d=" M 23.91 61.14 C 30.23 55.75 37.03 50.70 44.54 47.07 C 42.77 49.49 40.44 51.39 37.86 52.88 C 33.21 55.63 28.78 58.78 23.91 61.14 Z" />
</svg>
