<?xml version="1.0" encoding="UTF-8" ?>
<!DOCTYPE svg PUBLIC "-//W3C//DTD SVG 1.1//EN" "http://www.w3.org/Graphics/SVG/1.1/DTD/svg11.dtd">
<svg width="100pt" height="100pt" viewBox="0 0 100 100" version="1.1" xmlns="http://www.w3.org/2000/svg">
<path fill="#b8b8b8" opacity="1.00" d=" M 48.62 5.43 C 51.16 3.50 53.85 5.75 56.14 6.93 C 56.12 9.73 56.12 12.53 56.12 15.34 C 64.33 15.42 72.54 15.41 80.75 15.35 C 80.70 35.94 80.71 56.52 80.75 77.10 C 72.80 77.21 64.85 77.14 56.90 77.18 C 57.09 81.71 57.81 86.31 56.96 90.80 C 55.79 94.20 50.91 96.92 47.77 94.38 C 44.98 91.97 44.41 87.89 41.52 85.55 C 38.25 82.83 35.27 79.72 31.69 77.41 C 27.24 76.81 22.73 77.23 18.26 77.12 C 18.29 56.53 18.30 35.95 18.25 15.36 C 27.09 15.41 35.94 15.42 44.79 15.34 C 45.15 11.83 44.50 6.96 48.62 5.43 M 50.12 6.42 C 46.94 9.96 47.11 14.83 47.05 19.28 C 38.81 19.56 30.56 19.41 22.32 19.35 C 22.38 37.46 22.40 55.57 22.30 73.68 C 26.17 73.65 30.03 73.67 33.90 73.86 C 35.42 78.10 39.16 80.74 42.39 83.61 C 45.34 86.16 46.39 90.18 49.24 92.81 C 51.34 92.69 54.04 91.45 53.78 88.95 C 53.92 83.72 53.40 78.48 53.96 73.26 C 61.68 73.03 69.40 72.83 77.12 72.71 C 77.39 54.93 77.51 37.12 77.06 19.34 C 69.12 19.42 61.18 19.55 53.24 19.27 C 53.14 14.82 53.63 9.80 50.12 6.42 Z" />
<path fill="#b61c2e" opacity="1.00" d=" M 50.12 6.42 C 53.63 9.80 53.14 14.82 53.24 19.27 C 61.18 19.55 69.12 19.42 77.06 19.34 C 77.51 37.12 77.39 54.93 77.12 72.71 C 69.40 72.83 61.68 73.03 53.96 73.26 C 53.40 78.48 53.92 83.72 53.78 88.95 C 54.04 91.45 51.34 92.69 49.24 92.81 C 46.39 90.18 45.34 86.16 42.39 83.61 C 39.16 80.74 35.42 78.10 33.90 73.86 C 30.03 73.67 26.17 73.65 22.30 73.68 C 22.40 55.57 22.38 37.46 22.32 19.35 C 30.56 19.41 38.81 19.56 47.05 19.28 C 47.11 14.83 46.94 9.96 50.12 6.42 M 47.12 52.90 C 43.78 54.41 40.71 56.54 38.70 59.67 C 37.23 62.14 34.04 63.73 33.73 66.74 C 35.04 67.80 36.48 68.67 37.88 69.59 C 37.72 71.51 37.20 73.44 37.43 75.37 C 39.27 78.52 42.34 80.65 45.01 83.04 C 47.27 85.04 48.27 87.98 49.46 90.66 C 50.00 90.60 51.08 90.46 51.62 90.39 C 51.58 82.76 51.44 75.12 52.25 67.52 C 50.31 67.58 48.36 67.65 46.42 67.72 C 47.15 72.28 47.71 76.87 47.90 81.49 C 45.58 80.58 42.95 79.67 41.68 77.33 C 39.58 74.41 40.17 70.67 40.36 67.32 C 44.46 66.18 48.70 64.98 53.01 65.48 C 56.89 65.83 60.59 67.33 64.50 67.39 C 65.07 64.12 61.42 62.49 60.01 59.98 C 58.11 56.78 55.25 54.40 51.87 52.90 C 51.82 51.57 51.79 50.24 51.80 48.92 C 59.28 45.73 67.02 43.17 74.74 40.62 C 74.81 39.09 74.86 37.56 74.90 36.03 C 67.07 38.90 59.57 42.56 51.82 45.64 C 51.76 43.44 51.70 41.25 51.66 39.05 C 59.26 35.40 66.95 31.93 74.74 28.72 C 74.80 27.06 74.86 25.39 74.90 23.72 C 66.82 27.26 59.17 31.70 51.46 35.97 C 51.23 27.13 51.51 18.26 50.44 9.47 C 48.64 23.87 48.52 38.44 47.12 52.90 M 24.79 53.06 C 30.68 49.98 37.56 47.67 41.68 42.16 C 35.56 44.93 29.96 48.80 24.79 53.06 M 24.54 59.67 C 30.75 56.89 37.84 55.02 42.59 49.89 C 36.11 52.16 30.03 55.57 24.54 59.67 Z" />
<path fill="#ffffff" opacity="1.00" d=" M 47.12 52.90 C 48.52 38.44 48.64 23.87 50.44 9.47 C 51.51 18.26 51.23 27.13 51.46 35.97 C 59.17 31.70 66.82 27.26 74.90 23.72 C 74.86 25.39 74.80 27.06 74.74 28.72 C 66.95 31.93 59.26 35.40 51.66 39.05 C 51.70 41.25 51.76 43.44 51.82 45.64 C 59.57 42.56 67.07 38.90 74.90 36.03 C 74.86 37.56 74.81 39.09 74.74 40.62 C 67.02 43.17 59.28 45.73 51.80 48.92 C 51.79 50.24 51.82 51.57 51.87 52.90 C 55.25 54.40 58.11 56.78 60.01 59.98 C 61.42 62.49 65.07 64.12 64.50 67.39 C 60.59 67.33 56.89 65.83 53.01 65.48 C 48.70 64.98 44.46 66.18 40.36 67.32 C 40.17 70.67 39.58 74.41 41.68 77.33 C 42.95 79.67 45.58 80.58 47.90 81.49 C 47.71 76.87 47.15 72.28 46.42 67.72 C 48.36 67.65 50.31 67.58 52.25 67.52 C 51.44 75.12 51.58 82.76 51.62 90.39 C 51.08 90.46 50.00 90.60 49.46 90.66 C 48.27 87.98 47.27 85.04 45.01 83.04 C 42.34 80.65 39.27 78.52 37.43 75.37 C 37.20 73.44 37.72 71.51 37.88 69.59 C 36.48 68.67 35.04 67.80 33.73 66.74 C 34.04 63.73 37.23 62.14 38.70 59.67 C 40.71 56.54 43.78 54.41 47.12 52.90 Z" />
<path fill="#ffffff" opacity="1.00" d=" M 24.79 53.06 C 29.96 48.80 35.56 44.93 41.68 42.16 C 37.56 47.67 30.68 49.98 24.79 53.06 Z" />
<path fill="#ffffff" opacity="1.00" d=" M 24.54 59.67 C 30.03 55.57 36.11 52.16 42.59 49.89 C 37.84 55.02 30.75 56.89 24.54 59.67 Z" />
</svg>
