<?xml version="1.0" encoding="UTF-8" ?>
<!DOCTYPE svg PUBLIC "-//W3C//DTD SVG 1.1//EN" "http://www.w3.org/Graphics/SVG/1.1/DTD/svg11.dtd">
<svg width="100pt" height="100pt" viewBox="0 0 100 100" version="1.1" xmlns="http://www.w3.org/2000/svg">
<path fill="#b8b8b8" opacity="1.00" d=" M 46.29 13.86 C 46.25 9.97 47.07 4.65 51.99 4.45 C 56.73 5.06 57.31 10.13 57.22 13.97 C 65.06 14.19 72.91 13.80 80.75 14.10 C 80.70 34.64 80.72 55.18 80.74 75.72 C 72.78 75.76 64.81 75.64 56.85 75.80 C 56.65 80.48 57.19 85.18 56.78 89.85 C 56.31 94.15 50.45 96.51 47.05 93.96 C 44.50 91.36 43.92 87.35 40.98 85.06 C 37.40 82.23 34.51 78.55 30.81 75.94 C 26.65 75.42 22.44 75.77 18.26 75.73 C 18.28 55.19 18.30 34.65 18.25 14.10 C 27.60 13.75 36.95 14.33 46.29 13.86 M 48.58 18.00 C 39.83 18.47 31.07 18.01 22.32 18.25 C 22.39 36.38 22.33 54.52 22.36 72.66 C 26.67 72.50 30.98 72.39 35.29 72.21 C 35.55 73.77 35.39 75.50 36.18 76.92 C 39.05 80.61 43.53 82.81 45.82 86.98 C 47.18 88.92 47.92 91.54 50.11 92.74 C 52.04 92.42 54.36 91.24 54.20 88.96 C 54.57 83.30 54.06 77.60 54.87 71.96 C 62.23 71.49 69.62 71.64 77.00 71.64 C 77.61 63.10 77.21 54.54 77.30 46.00 C 77.25 36.73 77.57 27.46 77.13 18.19 C 69.60 18.10 62.05 18.43 54.53 17.95 C 54.52 13.96 54.64 9.70 52.09 6.36 C 48.64 9.27 48.87 13.92 48.58 18.00 Z" />
<path fill="#b61c2e" opacity="1.00" d=" M 48.58 18.00 C 48.87 13.92 48.64 9.27 52.09 6.36 C 54.64 9.70 54.52 13.96 54.53 17.95 C 62.05 18.43 69.60 18.10 77.13 18.19 C 77.57 27.46 77.25 36.73 77.30 46.00 C 77.21 54.54 77.61 63.10 77.00 71.64 C 69.62 71.64 62.23 71.49 54.87 71.96 C 54.06 77.60 54.57 83.30 54.20 88.96 C 54.36 91.24 52.04 92.42 50.11 92.74 C 47.92 91.54 47.18 88.92 45.82 86.98 C 43.53 82.81 39.05 80.61 36.18 76.92 C 35.39 75.50 35.55 73.77 35.29 72.21 C 30.98 72.39 26.67 72.50 22.36 72.66 C 22.33 54.52 22.39 36.38 22.32 18.25 C 31.07 18.01 39.83 18.47 48.58 18.00 M 50.65 23.31 C 49.86 33.12 49.28 42.95 48.03 52.71 C 41.73 54.92 38.97 61.31 34.13 65.38 C 35.63 66.77 37.14 68.16 38.61 69.59 C 38.50 71.42 37.96 73.32 38.42 75.14 C 39.84 78.04 42.45 80.08 44.81 82.18 C 47.67 84.64 49.07 88.25 51.09 91.35 C 53.03 87.22 52.14 82.61 52.32 78.22 C 52.45 74.86 52.70 71.50 52.83 68.14 C 50.99 68.16 49.15 68.18 47.30 68.19 C 47.99 72.63 48.95 77.11 48.36 81.62 C 45.63 80.14 42.51 78.58 41.44 75.43 C 40.09 72.62 40.40 67.82 43.95 66.91 C 50.48 64.91 57.31 66.62 63.79 67.98 C 64.52 67.27 65.26 66.56 66.00 65.85 C 61.36 61.70 59.02 55.25 52.96 52.75 C 52.70 46.92 52.68 41.08 53.07 35.26 C 57.36 32.92 61.63 30.52 66.15 28.64 C 61.61 34.64 56.94 40.72 54.63 48.00 C 61.54 43.23 68.42 38.32 76.06 34.77 C 76.07 33.52 76.07 32.27 76.08 31.01 C 71.57 32.44 67.46 34.79 63.41 37.18 C 66.80 31.05 72.73 26.99 76.59 21.22 C 68.19 24.20 60.74 29.20 52.83 33.19 C 52.40 25.29 53.16 17.36 52.33 9.49 C 50.63 13.89 51.06 18.69 50.65 23.31 M 32.36 45.33 C 29.33 47.36 26.36 49.52 23.88 52.22 C 29.85 49.78 34.86 45.60 40.46 42.47 C 42.71 41.30 44.56 39.51 45.49 37.11 C 40.76 39.25 36.66 42.47 32.36 45.33 Z" />
<path fill="#ffffff" opacity="1.00" d=" M 50.65 23.31 C 51.06 18.69 50.63 13.89 52.33 9.49 C 53.16 17.36 52.40 25.29 52.83 33.19 C 60.74 29.20 68.19 24.20 76.59 21.22 C 72.73 26.99 66.80 31.05 63.41 37.18 C 67.46 34.79 71.57 32.44 76.08 31.01 C 76.07 32.27 76.07 33.52 76.06 34.77 C 68.42 38.32 61.54 43.23 54.63 48.00 C 56.94 40.72 61.61 34.64 66.15 28.64 C 61.63 30.52 57.36 32.92 53.07 35.26 C 52.68 41.08 52.70 46.92 52.96 52.75 C 59.02 55.25 61.36 61.70 66.00 65.85 C 65.26 66.56 64.52 67.27 63.79 67.98 C 57.31 66.62 50.48 64.91 43.95 66.91 C 40.40 67.82 40.09 72.62 41.44 75.43 C 42.51 78.58 45.63 80.14 48.36 81.62 C 48.95 77.11 47.99 72.63 47.30 68.19 C 49.15 68.18 50.99 68.16 52.83 68.14 C 52.70 71.50 52.45 74.86 52.32 78.22 C 52.14 82.61 53.03 87.22 51.09 91.35 C 49.07 88.25 47.67 84.64 44.81 82.18 C 42.45 80.08 39.84 78.04 38.42 75.14 C 37.96 73.32 38.50 71.42 38.61 69.59 C 37.14 68.16 35.63 66.77 34.13 65.38 C 38.97 61.31 41.73 54.92 48.03 52.71 C 49.28 42.95 49.86 33.12 50.65 23.31 Z" />
<path fill="#ffffff" opacity="1.00" d=" M 32.36 45.33 C 36.66 42.47 40.76 39.25 45.49 37.11 C 44.56 39.51 42.71 41.30 40.46 42.47 C 34.86 45.60 29.85 49.78 23.88 52.22 C 26.36 49.52 29.33 47.36 32.36 45.33 Z" />
</svg>
