<?xml version="1.0" encoding="UTF-8" ?>
<!DOCTYPE svg PUBLIC "-//W3C//DTD SVG 1.1//EN" "http://www.w3.org/Graphics/SVG/1.1/DTD/svg11.dtd">
<svg width="100pt" height="100pt" viewBox="0 0 100 100" version="1.1" xmlns="http://www.w3.org/2000/svg">
<path fill="#bab9b9" opacity="1.00" d=" M 49.41 6.77 C 50.81 10.39 51.56 14.29 53.45 17.71 C 56.53 18.73 59.78 19.13 62.84 20.22 C 72.95 23.73 81.26 31.90 85.14 41.86 C 89.43 52.64 88.37 65.41 82.27 75.30 C 73.67 89.76 54.51 97.56 38.48 91.65 C 23.63 87.12 12.55 72.58 12.29 57.03 C 11.57 42.87 19.75 28.81 32.33 22.32 C 36.54 19.90 41.42 19.30 45.91 17.65 C 47.66 14.24 48.25 10.39 49.41 6.77 M 47.16 21.12 C 43.72 21.91 40.25 22.64 36.96 23.94 C 22.57 29.49 13.41 45.70 16.01 60.90 C 18.14 76.86 32.88 89.89 48.99 90.05 C 64.31 90.79 79.12 79.85 83.09 65.07 C 86.82 52.48 82.41 38.07 72.40 29.63 C 66.94 24.66 59.73 22.42 52.61 21.15 C 51.66 18.29 50.72 15.43 49.74 12.59 C 48.85 15.42 48.00 18.27 47.16 21.12 Z" />
<path fill="#277373" opacity="1.00" d=" M 47.16 21.12 C 48.00 18.27 48.85 15.42 49.74 12.59 C 50.72 15.43 51.66 18.29 52.61 21.15 C 59.73 22.42 66.94 24.66 72.40 29.63 C 82.41 38.07 86.82 52.48 83.09 65.07 C 79.12 79.85 64.31 90.79 48.99 90.05 C 32.88 89.89 18.14 76.86 16.01 60.90 C 13.41 45.70 22.57 29.49 36.96 23.94 C 40.25 22.64 43.72 21.91 47.16 21.12 M 49.74 16.80 C 48.48 22.48 48.05 28.40 45.92 33.85 C 42.37 35.44 38.40 35.71 34.61 36.36 C 34.77 34.96 34.95 33.57 35.14 32.18 C 33.99 34.81 32.06 36.92 29.37 38.02 C 30.76 38.44 32.15 38.87 33.54 39.32 C 29.99 47.24 20.62 51.80 19.74 60.96 C 19.41 64.90 19.17 69.70 22.48 72.55 C 25.93 75.59 30.01 77.84 34.04 80.00 C 36.58 81.42 39.46 80.01 42.09 79.68 C 35.87 76.37 28.34 72.60 26.74 65.03 C 25.34 60.75 29.24 57.50 31.22 54.19 C 34.66 49.90 33.94 44.08 34.38 38.95 C 39.19 39.86 44.21 40.35 48.61 42.65 C 49.03 45.42 49.44 48.20 49.82 50.98 C 49.58 53.47 49.45 55.98 49.42 58.48 C 51.66 53.05 52.30 47.16 53.39 41.43 C 57.44 40.49 61.50 39.59 65.57 38.72 C 65.86 43.96 65.29 49.86 68.75 54.25 C 70.68 57.52 74.44 60.69 73.19 64.88 C 71.72 72.54 64.07 76.32 57.86 79.70 C 60.50 80.03 63.40 81.43 65.94 79.98 C 69.98 77.81 74.06 75.57 77.49 72.50 C 80.96 69.40 80.53 64.25 80.06 60.07 C 79.09 52.94 72.55 48.78 68.70 43.26 C 67.22 41.62 67.38 39.33 67.35 37.28 C 66.64 35.52 65.93 33.75 65.24 31.97 C 65.26 33.46 65.27 34.95 65.27 36.44 C 61.28 35.68 57.30 34.88 53.34 33.95 C 52.34 28.19 51.27 22.44 49.74 16.80 M 47.35 61.24 C 47.27 64.06 47.24 66.88 47.15 69.71 C 44.35 69.74 41.55 69.75 38.76 69.79 C 38.75 71.59 38.75 73.40 38.76 75.21 C 41.55 75.25 44.35 75.26 47.15 75.29 C 47.24 78.12 47.27 80.94 47.35 83.76 C 49.12 83.76 50.88 83.76 52.65 83.76 C 52.73 80.94 52.76 78.11 52.85 75.29 C 55.65 75.26 58.45 75.25 61.25 75.21 C 61.25 73.40 61.25 71.60 61.24 69.79 C 58.45 69.75 55.65 69.74 52.85 69.71 C 52.76 66.88 52.73 64.06 52.65 61.23 C 50.88 61.24 49.12 61.24 47.35 61.24 Z" />
<path fill="#ffffff" opacity="1.00" d=" M 49.74 16.80 C 51.27 22.44 52.34 28.19 53.34 33.95 C 57.30 34.88 61.28 35.68 65.27 36.44 C 65.27 34.95 65.26 33.46 65.24 31.97 C 65.93 33.75 66.64 35.52 67.35 37.28 C 67.38 39.33 67.22 41.62 68.70 43.26 C 72.55 48.78 79.09 52.94 80.06 60.07 C 80.53 64.25 80.96 69.40 77.49 72.50 C 74.06 75.57 69.98 77.81 65.94 79.98 C 63.40 81.43 60.50 80.03 57.86 79.70 C 64.07 76.32 71.72 72.54 73.19 64.88 C 74.44 60.69 70.68 57.52 68.75 54.25 C 65.29 49.86 65.86 43.96 65.57 38.72 C 61.50 39.59 57.44 40.49 53.39 41.43 C 52.30 47.16 51.66 53.05 49.42 58.48 C 49.45 55.98 49.58 53.47 49.82 50.98 C 50.05 48.15 49.82 45.25 48.61 42.65 C 44.21 40.35 39.19 39.86 34.38 38.95 C 33.94 44.08 34.66 49.90 31.22 54.19 C 29.24 57.50 25.34 60.75 26.74 65.03 C 28.34 72.60 35.87 76.37 42.09 79.68 C 39.46 80.01 36.58 81.42 34.04 80.00 C 30.01 77.84 25.93 75.59 22.48 72.55 C 19.17 69.70 19.41 64.90 19.74 60.96 C 20.62 51.80 29.99 47.24 33.54 39.32 C 32.15 38.87 30.76 38.44 29.37 38.02 C 32.06 36.92 33.99 34.81 35.14 32.18 C 34.95 33.57 34.77 34.96 34.61 36.36 C 38.40 35.71 42.37 35.44 45.92 33.85 C 48.05 28.40 48.48 22.48 49.74 16.80 M 47.17 35.65 C 48.04 36.47 48.90 37.30 49.77 38.12 C 49.79 33.58 49.87 29.03 49.47 24.51 C 48.40 28.15 47.75 31.90 47.17 35.65 M 52.28 36.31 C 55.35 39.27 59.66 38.06 63.43 37.68 C 59.79 36.72 56.05 36.09 52.28 36.31 M 28.91 49.02 C 30.73 47.55 32.15 45.69 33.27 43.65 C 31.56 45.21 30.08 47.02 28.91 49.02 M 67.39 44.62 C 66.47 45.85 68.21 48.10 69.62 47.40 C 70.56 46.17 68.79 43.93 67.39 44.62 M 25.79 58.14 C 29.03 55.24 31.68 51.69 33.30 47.65 C 30.03 50.52 27.49 54.14 25.79 58.14 M 66.64 47.67 C 68.23 51.74 70.92 55.27 74.19 58.15 C 72.43 54.17 69.92 50.54 66.64 47.67 M 69.62 47.40 C 70.84 49.50 72.22 51.50 73.58 53.52 C 77.79 59.13 74.95 66.44 74.77 72.79 C 78.38 68.41 78.70 62.22 77.10 56.97 C 75.59 53.14 72.57 50.16 69.62 47.40 M 22.61 57.58 C 21.30 62.70 21.61 68.60 25.19 72.77 C 24.82 67.89 23.67 63.00 24.28 58.09 C 25.01 54.71 27.41 52.05 28.91 49.02 C 26.34 51.45 23.64 54.09 22.61 57.58 Z" />
<path fill="#277373" opacity="1.00" d=" M 47.17 35.65 C 47.75 31.90 48.40 28.15 49.47 24.51 C 49.87 29.03 49.79 33.58 49.77 38.12 C 48.90 37.30 48.04 36.47 47.17 35.65 Z" />
<path fill="#277373" opacity="1.00" d=" M 52.28 36.31 C 56.05 36.09 59.79 36.72 63.43 37.68 C 59.66 38.06 55.35 39.27 52.28 36.31 Z" />
<path fill="#bab9b9" opacity="1.00" d=" M 48.61 42.65 C 49.82 45.25 50.05 48.15 49.82 50.98 C 49.44 48.20 49.03 45.42 48.61 42.65 Z" />
<path fill="#277373" opacity="1.00" d=" M 28.91 49.02 C 30.08 47.02 31.56 45.21 33.27 43.65 C 32.15 45.69 30.73 47.55 28.91 49.02 Z" />
<path fill="#448686" opacity="1.00" d=" M 67.39 44.62 C 68.79 43.93 70.56 46.17 69.62 47.40 C 68.21 48.10 66.47 45.85 67.39 44.62 Z" />
<path fill="#277373" opacity="1.00" d=" M 25.79 58.14 C 27.49 54.14 30.03 50.52 33.30 47.65 C 31.68 51.69 29.03 55.24 25.79 58.14 Z" />
<path fill="#277373" opacity="1.00" d=" M 66.64 47.67 C 69.92 50.54 72.43 54.17 74.19 58.15 C 70.92 55.27 68.23 51.74 66.64 47.67 Z" />
<path fill="#277373" opacity="1.00" d=" M 69.62 47.40 C 72.57 50.16 75.59 53.14 77.10 56.97 C 78.70 62.22 78.38 68.41 74.77 72.79 C 74.95 66.44 77.79 59.13 73.58 53.52 C 72.22 51.50 70.84 49.50 69.62 47.40 Z" />
<path fill="#277373" opacity="1.00" d=" M 22.61 57.58 C 23.64 54.09 26.34 51.45 28.91 49.02 C 27.41 52.05 25.01 54.71 24.28 58.09 C 23.67 63.00 24.82 67.89 25.19 72.77 C 21.61 68.60 21.30 62.70 22.61 57.58 Z" />
<path fill="#ffffff" opacity="1.00" d=" M 47.35 61.24 C 49.12 61.24 50.88 61.24 52.65 61.23 C 52.73 64.06 52.76 66.88 52.85 69.71 C 55.65 69.74 58.45 69.75 61.24 69.79 C 61.25 71.60 61.25 73.40 61.25 75.21 C 58.45 75.25 55.65 75.26 52.85 75.29 C 52.76 78.11 52.73 80.94 52.65 83.76 C 50.88 83.76 49.12 83.76 47.35 83.76 C 47.27 80.94 47.24 78.12 47.15 75.29 C 44.35 75.26 41.55 75.25 38.76 75.21 C 38.75 73.40 38.75 71.59 38.76 69.79 C 41.55 69.75 44.35 69.74 47.15 69.71 C 47.24 66.88 47.27 64.06 47.35 61.24 Z" />
</svg>
