<?xml version="1.0" encoding="UTF-8" ?>
<!DOCTYPE svg PUBLIC "-//W3C//DTD SVG 1.1//EN" "http://www.w3.org/Graphics/SVG/1.1/DTD/svg11.dtd">
<svg width="100pt" height="100pt" viewBox="0 0 100 100" version="1.1" xmlns="http://www.w3.org/2000/svg">
<path fill="#c0bcbc" opacity="1.00" d=" M 44.16 17.33 C 46.09 16.65 47.98 15.82 50.00 15.42 C 53.99 16.56 58.27 17.68 61.36 20.62 C 63.96 23.27 68.19 23.49 70.51 26.46 C 75.27 33.37 83.33 36.68 89.88 41.55 C 87.87 48.42 84.53 54.94 83.55 62.08 C 83.06 70.51 76.68 76.87 74.76 84.91 C 71.00 85.21 67.12 85.10 63.58 86.57 C 59.55 88.12 55.42 89.78 51.03 89.67 C 42.06 90.30 34.19 84.67 25.24 84.82 C 23.59 77.34 17.18 71.80 16.71 63.99 C 16.14 56.11 12.27 49.04 10.12 41.55 C 14.99 38.26 19.99 35.14 24.76 31.69 C 28.05 29.39 29.45 24.95 33.51 23.68 C 37.59 22.43 40.07 18.52 44.16 17.33 M 37.85 23.69 C 35.80 25.02 33.46 25.96 31.67 27.65 C 29.44 30.08 27.96 33.21 25.19 35.12 C 21.46 37.78 17.52 40.13 13.90 42.94 C 15.13 46.42 16.48 49.86 17.52 53.40 C 19.32 59.16 17.85 65.63 20.85 71.07 C 22.94 74.84 25.27 78.68 28.66 81.42 C 33.38 84.29 38.81 85.76 44.15 86.93 C 53.32 88.88 62.45 85.46 70.66 81.69 C 74.57 78.88 76.91 74.38 79.24 70.27 C 82.12 65.08 80.81 58.93 82.50 53.42 C 83.51 49.86 84.87 46.42 86.10 42.93 C 82.30 39.96 78.10 37.57 74.25 34.68 C 71.03 32.28 69.84 27.91 66.19 26.02 C 63.39 24.48 60.69 22.78 58.10 20.92 C 54.95 18.56 50.78 18.53 47.04 18.94 C 43.44 19.27 40.80 21.92 37.85 23.69 Z" />
<path fill="#217a7a" opacity="1.00" d=" M 37.85 23.69 C 40.80 21.92 43.44 19.27 47.04 18.94 C 50.78 18.53 54.95 18.56 58.10 20.92 C 60.69 22.78 63.39 24.48 66.19 26.02 C 69.84 27.91 71.03 32.28 74.25 34.68 C 78.10 37.57 82.30 39.96 86.10 42.93 C 84.87 46.42 83.51 49.86 82.50 53.42 C 80.81 58.93 82.12 65.08 79.24 70.27 C 76.91 74.38 74.57 78.88 70.66 81.69 C 62.45 85.46 53.32 88.88 44.15 86.93 C 38.81 85.76 33.38 84.29 28.66 81.42 C 25.27 78.68 22.94 74.84 20.85 71.07 C 17.85 65.63 19.32 59.16 17.52 53.40 C 16.48 49.86 15.13 46.42 13.90 42.94 C 17.52 40.13 21.46 37.78 25.19 35.12 C 27.96 33.21 29.44 30.08 31.67 27.65 C 33.46 25.96 35.80 25.02 37.85 23.69 M 43.92 22.82 C 40.71 26.06 36.48 27.64 32.54 29.72 C 31.27 32.22 31.36 35.21 31.93 37.90 C 32.76 41.64 36.10 43.98 37.74 47.29 C 38.33 50.73 37.42 54.26 38.14 57.68 C 40.73 61.43 45.73 62.46 50.00 62.76 C 54.29 62.41 59.33 61.47 62.07 57.84 C 62.53 54.34 61.76 50.79 62.34 47.31 C 63.33 45.12 65.15 43.46 66.46 41.47 C 68.56 38.54 68.95 34.64 68.11 31.20 C 67.80 28.81 64.99 28.55 63.25 27.58 C 59.90 26.55 57.74 23.62 54.77 21.97 C 51.27 21.18 47.04 20.72 43.92 22.82 M 67.02 44.13 C 68.54 48.02 71.46 51.27 72.49 55.37 C 74.96 65.48 66.93 75.87 57.30 78.33 C 50.55 79.57 43.33 78.94 37.07 76.00 C 31.66 73.67 27.65 68.50 26.39 62.80 C 25.94 55.99 29.37 49.83 33.18 44.47 C 30.01 45.50 26.52 46.62 24.60 49.56 C 22.16 53.20 21.16 57.68 21.07 62.02 C 20.93 67.78 24.31 72.87 28.03 76.97 C 32.41 81.29 38.55 83.13 44.41 84.42 C 57.41 86.77 72.51 80.34 77.70 67.72 C 81.62 58.69 76.02 47.49 67.02 44.13 M 64.91 46.70 C 65.54 51.76 68.94 57.21 66.14 62.15 C 61.39 69.21 51.77 72.94 43.57 70.45 C 39.05 68.75 34.47 65.58 33.21 60.65 C 31.63 56.12 34.01 51.61 34.86 47.20 C 30.97 51.13 29.23 57.04 30.74 62.39 C 33.00 67.93 38.21 72.10 44.11 73.10 C 49.22 73.83 54.85 74.23 59.46 71.46 C 64.15 68.81 69.62 65.10 69.58 59.06 C 70.17 54.39 68.26 49.89 64.91 46.70 Z" />
<path fill="#ffffff" opacity="1.00" d=" M 43.92 22.82 C 47.04 20.72 51.27 21.18 54.77 21.97 C 57.74 23.62 59.90 26.55 63.25 27.58 C 64.99 28.55 67.80 28.81 68.11 31.20 C 68.95 34.64 68.56 38.54 66.46 41.47 C 65.15 43.46 63.33 45.12 62.34 47.31 C 61.76 50.79 62.53 54.34 62.07 57.84 C 59.33 61.47 54.29 62.41 50.00 62.76 C 45.73 62.46 40.73 61.43 38.14 57.68 C 37.42 54.26 38.33 50.73 37.74 47.29 C 36.10 43.98 32.76 41.64 31.93 37.90 C 31.36 35.21 31.27 32.22 32.54 29.72 C 36.48 27.64 40.71 26.06 43.92 22.82 M 44.98 23.87 C 46.43 25.38 47.62 27.80 50.00 27.87 C 52.41 27.85 53.60 25.41 55.03 23.87 C 51.69 23.56 48.32 23.56 44.98 23.87 M 34.16 37.59 C 35.60 35.12 35.95 32.28 35.68 29.47 C 34.47 32.01 33.99 34.79 34.16 37.59 M 63.97 30.30 C 64.25 32.79 64.77 35.25 65.69 37.59 C 65.99 35.00 66.38 32.05 63.97 30.30 M 38.38 39.53 C 40.42 42.34 42.56 45.08 44.77 47.76 C 43.88 44.18 41.50 41.39 38.38 39.53 M 55.27 47.75 C 57.49 45.09 59.62 42.35 61.65 39.54 C 58.53 41.40 56.17 44.18 55.27 47.75 Z" />
<path fill="#237b7b" opacity="1.00" d=" M 44.98 23.87 C 48.32 23.56 51.69 23.56 55.03 23.87 C 53.60 25.41 52.41 27.85 50.00 27.87 C 47.62 27.80 46.43 25.38 44.98 23.87 Z" />
<path fill="#217a7a" opacity="1.00" d=" M 34.16 37.59 C 33.99 34.79 34.47 32.01 35.68 29.47 C 35.95 32.28 35.60 35.12 34.16 37.59 Z" />
<path fill="#217a7a" opacity="1.00" d=" M 63.97 30.30 C 66.38 32.05 65.99 35.00 65.69 37.59 C 64.77 35.25 64.25 32.79 63.97 30.30 Z" />
<path fill="#217a7a" opacity="1.00" d=" M 38.38 39.53 C 41.50 41.39 43.88 44.18 44.77 47.76 C 42.56 45.08 40.42 42.34 38.38 39.53 Z" />
<path fill="#217a7a" opacity="1.00" d=" M 55.27 47.75 C 56.17 44.18 58.53 41.40 61.65 39.54 C 59.62 42.35 57.49 45.09 55.27 47.75 Z" />
<path fill="#ffffff" opacity="1.00" d=" M 67.02 44.13 C 76.02 47.49 81.62 58.69 77.70 67.72 C 72.51 80.34 57.41 86.77 44.41 84.42 C 38.55 83.13 32.41 81.29 28.03 76.97 C 24.31 72.87 20.93 67.78 21.07 62.02 C 21.16 57.68 22.16 53.20 24.60 49.56 C 26.52 46.62 30.01 45.50 33.18 44.47 C 29.37 49.83 25.94 55.99 26.39 62.80 C 27.65 68.50 31.66 73.67 37.07 76.00 C 43.33 78.94 50.55 79.57 57.30 78.33 C 66.93 75.87 74.96 65.48 72.49 55.37 C 71.46 51.27 68.54 48.02 67.02 44.13 Z" />
<path fill="#ffffff" opacity="1.00" d=" M 64.91 46.70 C 68.26 49.89 70.17 54.39 69.58 59.06 C 69.62 65.10 64.15 68.81 59.46 71.46 C 54.85 74.23 49.22 73.83 44.11 73.10 C 38.21 72.10 33.00 67.93 30.74 62.39 C 29.23 57.04 30.97 51.13 34.86 47.20 C 34.01 51.61 31.63 56.12 33.21 60.65 C 34.47 65.58 39.05 68.75 43.57 70.45 C 51.77 72.94 61.39 69.21 66.14 62.15 C 68.94 57.21 65.54 51.76 64.91 46.70 Z" />
</svg>
