<?xml version="1.0" encoding="UTF-8" ?>
<!DOCTYPE svg PUBLIC "-//W3C//DTD SVG 1.1//EN" "http://www.w3.org/Graphics/SVG/1.1/DTD/svg11.dtd">
<svg width="100pt" height="100pt" viewBox="0 0 100 100" version="1.1" xmlns="http://www.w3.org/2000/svg">
<path fill="#b8b8b8" opacity="1.00" d=" M 42.23 10.19 C 47.74 10.32 53.26 10.32 58.77 10.18 C 58.91 11.91 59.05 13.64 59.19 15.37 C 67.68 15.38 76.16 15.44 84.65 15.35 C 84.61 38.34 84.58 61.33 84.67 84.32 C 75.80 84.52 66.93 84.25 58.07 84.40 C 54.82 84.38 53.00 87.62 50.77 89.49 C 48.46 87.47 46.53 84.00 43.00 84.38 C 33.79 84.30 24.57 84.50 15.35 84.32 C 15.43 61.33 15.39 38.33 15.37 15.34 C 24.19 15.44 33.00 15.38 41.81 15.37 C 41.95 13.64 42.08 11.91 42.23 10.19 M 44.19 12.69 C 44.06 14.88 43.92 17.06 43.80 19.25 C 35.66 19.46 27.52 19.37 19.37 19.32 C 19.49 39.78 19.46 60.25 19.37 80.71 C 27.27 80.91 35.18 80.41 43.06 80.84 C 46.38 80.92 48.56 83.69 50.89 85.66 C 53.26 83.63 55.52 80.79 58.94 80.81 C 66.21 80.45 73.50 80.87 80.78 80.73 C 81.03 60.26 80.74 39.78 80.79 19.30 C 72.93 19.39 65.07 19.44 57.21 19.25 C 57.09 17.06 56.95 14.88 56.83 12.69 C 52.61 12.65 48.40 12.65 44.19 12.69 Z" />
<path fill="#ac4a0e" opacity="1.00" d=" M 44.19 12.69 C 48.40 12.65 52.61 12.65 56.83 12.69 C 56.95 14.88 57.09 17.06 57.21 19.25 C 65.07 19.44 72.93 19.39 80.79 19.30 C 80.74 39.78 81.03 60.26 80.78 80.73 C 73.50 80.87 66.21 80.45 58.94 80.81 C 55.52 80.79 53.26 83.63 50.89 85.66 C 48.56 83.69 46.38 80.92 43.06 80.84 C 35.18 80.41 27.27 80.91 19.37 80.71 C 19.46 60.25 19.49 39.78 19.37 19.32 C 27.52 19.37 35.66 19.46 43.80 19.25 C 43.92 17.06 44.06 14.88 44.19 12.69 M 46.32 14.89 C 46.36 18.09 46.39 21.29 46.47 24.48 C 49.71 21.54 52.80 18.43 55.54 15.01 C 52.47 14.92 49.39 14.88 46.32 14.89 M 45.56 29.36 C 48.74 29.53 51.91 29.61 55.09 29.68 C 55.12 25.94 55.15 22.19 55.06 18.45 C 51.28 21.49 47.77 24.98 45.56 29.36 M 46.27 31.19 C 46.27 31.88 46.27 33.24 46.27 33.92 C 49.23 33.98 52.20 34.03 55.17 34.08 C 55.15 33.35 55.09 31.88 55.06 31.14 C 52.13 31.17 49.20 31.18 46.27 31.19 M 46.29 35.91 C 46.29 36.59 46.30 37.95 46.30 38.62 C 49.15 38.61 52.00 38.63 54.85 38.66 C 54.94 37.94 55.12 36.51 55.21 35.79 C 52.24 35.83 49.26 35.86 46.29 35.91 M 23.94 38.92 C 26.80 45.00 29.88 51.01 33.51 56.68 C 33.03 53.63 33.17 50.25 31.28 47.65 C 29.11 44.52 26.55 41.68 23.94 38.92 M 39.26 39.08 C 38.11 42.82 36.88 46.59 36.44 50.50 C 36.04 54.67 37.62 58.72 39.80 62.20 C 43.49 68.21 47.09 74.26 50.74 80.29 C 53.95 75.59 56.83 70.67 59.76 65.79 C 61.79 62.35 64.28 59.00 65.02 54.99 C 66.20 49.53 63.98 44.15 62.31 39.04 C 60.10 41.68 58.06 44.44 56.06 47.23 C 53.91 44.68 50.47 44.77 47.43 44.61 C 46.86 45.51 46.22 46.38 45.69 47.30 C 43.63 44.49 41.54 41.70 39.26 39.08 M 46.45 40.30 C 46.39 41.00 46.26 42.39 46.20 43.09 C 49.20 43.12 52.20 43.15 55.21 43.18 C 55.14 42.44 54.99 40.96 54.92 40.22 C 52.10 40.26 49.27 40.29 46.45 40.30 M 70.53 47.48 C 68.67 49.79 68.93 52.93 68.61 55.70 C 72.07 50.70 74.89 45.28 77.27 39.69 C 74.85 42.13 72.52 44.67 70.53 47.48 M 68.47 58.44 C 66.32 61.93 64.55 65.63 62.74 69.31 C 67.94 65.92 72.72 61.92 77.96 58.57 C 74.72 63.70 71.06 68.54 67.61 73.52 C 71.52 73.06 75.44 72.65 79.35 72.16 C 79.19 69.37 78.62 66.64 77.33 64.16 C 78.13 61.52 78.95 58.88 79.40 56.15 C 77.17 56.86 74.95 57.61 72.73 58.33 C 74.38 55.41 76.14 52.56 77.76 49.63 C 74.44 52.30 70.93 54.91 68.47 58.44 M 24.79 50.54 C 26.16 53.31 27.71 55.98 29.24 58.66 C 26.53 57.61 23.82 56.56 21.06 55.64 C 21.23 59.37 23.26 62.46 25.79 65.03 C 24.36 65.03 22.92 65.03 21.48 65.02 C 21.54 67.47 21.60 69.93 21.69 72.38 C 25.82 72.65 29.94 73.01 34.06 73.33 C 30.40 68.19 26.66 63.10 23.16 57.85 C 28.52 61.65 33.62 65.79 39.09 69.42 C 37.52 66.19 35.88 62.99 34.14 59.84 C 32.04 55.86 28.31 53.16 24.79 50.54 M 31.70 66.60 C 33.36 69.62 35.29 72.48 37.18 75.36 C 32.38 75.01 27.61 74.41 22.80 74.19 C 25.80 75.59 28.86 76.89 32.02 77.90 C 36.37 79.33 41.02 78.82 45.51 78.78 C 42.23 73.42 37.16 69.55 31.70 66.60 C 31.16 66.12 31.16 66.12 31.70 66.60 M 56.34 78.79 C 58.91 78.86 61.49 78.94 64.07 78.85 C 69.18 78.75 73.87 76.41 78.40 74.28 C 73.78 74.45 69.19 75.02 64.58 75.32 C 66.71 72.04 69.00 68.86 71.08 65.55 C 65.53 69.16 59.75 72.91 56.34 78.79 Z" />
<path fill="#ffffff" opacity="1.00" d=" M 46.32 14.89 C 49.39 14.88 52.47 14.92 55.54 15.01 C 52.80 18.43 49.71 21.54 46.47 24.48 C 46.39 21.29 46.36 18.09 46.32 14.89 Z" />
<path fill="#ffffff" opacity="1.00" d=" M 45.56 29.36 C 47.77 24.98 51.28 21.49 55.06 18.45 C 55.15 22.19 55.12 25.94 55.09 29.68 C 51.91 29.61 48.74 29.53 45.56 29.36 Z" />
<path fill="#ffffff" opacity="1.00" d=" M 46.27 31.19 C 49.20 31.18 52.13 31.17 55.06 31.14 C 55.09 31.88 55.15 33.35 55.17 34.08 C 52.20 34.03 49.23 33.98 46.27 33.92 C 46.27 33.24 46.27 31.88 46.27 31.19 Z" />
<path fill="#ffffff" opacity="1.00" d=" M 46.29 35.91 C 49.26 35.86 52.24 35.83 55.21 35.79 C 55.12 36.51 54.94 37.94 54.85 38.66 C 52.00 38.63 49.15 38.61 46.30 38.62 C 46.30 37.95 46.29 36.59 46.29 35.91 Z" />
<path fill="#ffffff" opacity="1.00" d=" M 23.94 38.92 C 26.55 41.68 29.11 44.52 31.28 47.65 C 33.17 50.25 33.03 53.63 33.51 56.68 C 29.88 51.01 26.80 45.00 23.94 38.92 Z" />
<path fill="#ffffff" opacity="1.00" d=" M 39.26 39.08 C 41.54 41.70 43.63 44.49 45.69 47.30 C 46.22 46.38 46.86 45.51 47.43 44.61 C 50.47 44.77 53.91 44.68 56.06 47.23 C 58.06 44.44 60.10 41.68 62.31 39.04 C 63.98 44.15 66.20 49.53 65.02 54.99 C 64.28 59.00 61.79 62.35 59.76 65.79 C 56.83 70.67 53.95 75.59 50.74 80.29 C 47.09 74.26 43.49 68.21 39.80 62.20 C 37.62 58.72 36.04 54.67 36.44 50.50 C 36.88 46.59 38.11 42.82 39.26 39.08 Z" />
<path fill="#ffffff" opacity="1.00" d=" M 46.45 40.30 C 49.27 40.29 52.10 40.26 54.92 40.22 C 54.99 40.96 55.14 42.44 55.21 43.18 C 52.20 43.15 49.20 43.12 46.20 43.09 C 46.26 42.39 46.39 41.00 46.45 40.30 Z" />
<path fill="#ffffff" opacity="1.00" d=" M 70.53 47.48 C 72.52 44.67 74.85 42.13 77.27 39.69 C 74.89 45.28 72.07 50.70 68.61 55.70 C 68.93 52.93 68.67 49.79 70.53 47.48 Z" />
<path fill="#ffffff" opacity="1.00" d=" M 68.47 58.44 C 70.93 54.91 74.44 52.30 77.76 49.63 C 76.14 52.56 74.38 55.41 72.73 58.33 C 74.95 57.61 77.17 56.86 79.40 56.15 C 78.95 58.88 78.13 61.52 77.33 64.16 C 78.62 66.64 79.19 69.37 79.35 72.16 C 75.44 72.65 71.52 73.06 67.61 73.52 C 71.06 68.54 74.72 63.70 77.96 58.57 C 72.72 61.92 67.94 65.92 62.74 69.31 C 64.55 65.63 66.32 61.93 68.47 58.44 Z" />
<path fill="#ffffff" opacity="1.00" d=" M 24.79 50.54 C 28.31 53.16 32.04 55.86 34.14 59.84 C 35.88 62.99 37.52 66.19 39.09 69.42 C 33.62 65.79 28.52 61.65 23.16 57.85 C 26.66 63.10 30.40 68.19 34.06 73.33 C 29.94 73.01 25.82 72.65 21.69 72.38 C 21.60 69.93 21.54 67.47 21.48 65.02 C 22.92 65.03 24.36 65.03 25.79 65.03 C 23.26 62.46 21.23 59.37 21.06 55.64 C 23.82 56.56 26.53 57.61 29.24 58.66 C 27.71 55.98 26.16 53.31 24.79 50.54 Z" />
<path fill="#ffffff" opacity="1.00" d=" M 31.70 66.60 C 31.16 66.12 31.16 66.12 31.70 66.60 Z" />
<path fill="#ffffff" opacity="1.00" d=" M 56.34 78.79 C 59.75 72.91 65.53 69.16 71.08 65.55 C 69.00 68.86 66.71 72.04 64.58 75.32 C 69.19 75.02 73.78 74.45 78.40 74.28 C 73.87 76.41 69.18 78.75 64.07 78.85 C 61.49 78.94 58.91 78.86 56.34 78.79 Z" />
<path fill="#ffffff" opacity="1.00" d=" M 31.70 66.60 C 37.16 69.55 42.23 73.42 45.51 78.78 C 41.02 78.82 36.37 79.33 32.02 77.90 C 28.86 76.89 25.80 75.59 22.80 74.19 C 27.61 74.41 32.38 75.01 37.18 75.36 C 35.29 72.48 33.36 69.62 31.70 66.60 Z" />
</svg>
