<?xml version="1.0" encoding="UTF-8" ?>
<!DOCTYPE svg PUBLIC "-//W3C//DTD SVG 1.1//EN" "http://www.w3.org/Graphics/SVG/1.1/DTD/svg11.dtd">
<svg width="100pt" height="100pt" viewBox="0 0 100 100" version="1.1" xmlns="http://www.w3.org/2000/svg">
<path fill="#ffffff" opacity="1.00" d=" M 44.45 12.84 C 60.62 10.08 77.81 19.68 84.36 34.66 C 88.94 44.73 88.72 56.84 83.76 66.73 C 79.09 76.21 70.24 83.47 60.05 86.27 C 41.74 92.09 20.46 80.34 14.68 62.21 C 8.85 47.24 15.09 29.19 27.89 19.89 C 32.74 16.25 38.53 14.03 44.45 12.84 M 44.35 16.42 C 37.19 17.60 30.49 21.23 25.48 26.46 C 14.33 37.73 12.86 56.96 22.28 69.74 C 31.46 83.36 51.01 88.26 65.53 80.55 C 80.28 73.45 88.03 54.91 82.59 39.43 C 77.76 23.72 60.53 13.26 44.35 16.42 Z" />
<path fill="#482b46" opacity="1.00" d=" M 44.35 16.42 C 60.53 13.26 77.76 23.72 82.59 39.43 C 88.03 54.91 80.28 73.45 65.53 80.55 C 51.01 88.26 31.46 83.36 22.28 69.74 C 12.86 56.96 14.33 37.73 25.48 26.46 C 30.49 21.23 37.19 17.60 44.35 16.42 M 35.32 31.46 C 33.07 29.57 30.84 27.65 28.61 25.73 C 27.57 26.71 26.52 27.68 25.47 28.66 C 27.91 30.91 30.39 33.11 32.82 35.37 C 28.33 36.43 23.77 37.20 19.40 38.69 C 25.89 39.32 32.42 39.08 38.93 38.91 C 39.07 32.37 39.30 25.82 38.70 19.30 C 37.25 23.26 36.37 27.39 35.32 31.46 M 61.57 19.34 C 61.09 25.83 61.44 32.34 61.36 38.85 C 68.02 39.10 74.72 39.32 81.37 38.66 C 76.81 37.24 72.09 36.46 67.45 35.39 C 69.95 33.05 72.50 30.76 74.98 28.41 C 73.94 27.53 72.91 26.65 71.87 25.77 C 69.55 27.63 67.24 29.51 64.91 31.36 C 63.96 27.31 63.10 23.22 61.57 19.34 M 46.33 29.71 C 46.40 35.14 46.39 40.57 46.28 45.99 C 40.84 45.95 35.40 46.00 29.97 46.09 C 29.97 48.66 29.98 51.24 30.00 53.81 C 35.43 53.85 40.85 53.85 46.28 53.91 C 46.39 59.33 46.39 64.75 46.35 70.18 C 48.97 70.23 51.59 70.27 54.21 70.31 C 54.32 64.86 54.31 59.42 54.30 53.97 C 59.76 53.84 65.22 53.84 70.68 53.79 C 70.66 51.24 70.67 48.69 70.68 46.14 C 65.22 46.04 59.75 45.96 54.29 45.93 C 54.31 40.47 54.31 35.02 54.22 29.57 C 51.59 29.60 48.96 29.64 46.33 29.71 M 19.31 61.40 C 23.70 62.97 28.33 63.70 32.86 64.74 C 30.43 66.98 27.96 69.16 25.52 71.38 C 26.51 72.38 27.52 73.38 28.53 74.35 C 30.83 72.48 33.11 70.59 35.44 68.76 C 36.40 72.80 37.25 76.87 38.67 80.77 C 39.32 74.26 39.07 67.71 38.92 61.19 C 32.38 61.19 25.83 60.81 19.31 61.40 M 61.36 61.22 C 61.43 67.95 61.12 74.68 61.55 81.40 C 62.98 77.27 63.87 72.97 64.92 68.73 C 67.23 70.59 69.53 72.48 71.85 74.34 C 72.89 73.44 73.94 72.54 74.99 71.64 C 72.48 69.32 69.92 67.04 67.40 64.73 C 72.07 63.68 76.83 62.92 81.38 61.36 C 74.72 60.84 68.03 61.18 61.36 61.22 Z" />
<path fill="#ffffff" opacity="1.00" d=" M 35.32 31.46 C 36.37 27.39 37.25 23.26 38.70 19.30 C 39.30 25.82 39.07 32.37 38.93 38.91 C 32.42 39.08 25.89 39.32 19.40 38.69 C 23.77 37.20 28.33 36.43 32.82 35.37 C 30.39 33.11 27.91 30.91 25.47 28.66 C 26.52 27.68 27.57 26.71 28.61 25.73 C 30.84 27.65 33.07 29.57 35.32 31.46 Z" />
<path fill="#ffffff" opacity="1.00" d=" M 61.57 19.34 C 63.10 23.22 63.96 27.31 64.91 31.36 C 67.24 29.51 69.55 27.63 71.87 25.77 C 72.91 26.65 73.94 27.53 74.98 28.41 C 72.50 30.76 69.95 33.05 67.45 35.39 C 72.09 36.46 76.81 37.24 81.37 38.66 C 74.72 39.32 68.02 39.10 61.36 38.85 C 61.44 32.34 61.09 25.83 61.57 19.34 Z" />
<path fill="#ffffff" opacity="1.00" d=" M 46.33 29.71 C 48.96 29.64 51.59 29.60 54.22 29.57 C 54.31 35.02 54.31 40.47 54.29 45.93 C 59.75 45.96 65.22 46.04 70.68 46.14 C 70.67 48.69 70.66 51.24 70.68 53.79 C 65.22 53.84 59.76 53.84 54.30 53.97 C 54.31 59.42 54.32 64.86 54.21 70.31 C 51.59 70.27 48.97 70.23 46.35 70.18 C 46.39 64.75 46.39 59.33 46.28 53.91 C 40.85 53.85 35.43 53.85 30.00 53.81 C 29.98 51.24 29.97 48.66 29.97 46.09 C 35.40 46.00 40.84 45.95 46.28 45.99 C 46.39 40.57 46.40 35.14 46.33 29.71 Z" />
<path fill="#ffffff" opacity="1.00" d=" M 19.31 61.40 C 25.83 60.81 32.38 61.19 38.92 61.19 C 39.07 67.71 39.32 74.26 38.67 80.77 C 37.25 76.87 36.40 72.80 35.44 68.76 C 33.11 70.59 30.83 72.48 28.53 74.35 C 27.52 73.38 26.51 72.38 25.52 71.38 C 27.96 69.16 30.43 66.98 32.86 64.74 C 28.33 63.70 23.70 62.97 19.31 61.40 Z" />
<path fill="#ffffff" opacity="1.00" d=" M 61.36 61.22 C 68.03 61.18 74.72 60.84 81.38 61.36 C 76.83 62.92 72.07 63.68 67.40 64.73 C 69.92 67.04 72.48 69.32 74.99 71.64 C 73.94 72.54 72.89 73.44 71.85 74.34 C 69.53 72.48 67.23 70.59 64.92 68.73 C 63.87 72.97 62.98 77.27 61.55 81.40 C 61.12 74.68 61.43 67.95 61.36 61.22 Z" />
</svg>
