<?xml version="1.0" encoding="UTF-8" ?>
<!DOCTYPE svg PUBLIC "-//W3C//DTD SVG 1.1//EN" "http://www.w3.org/Graphics/SVG/1.1/DTD/svg11.dtd">
<svg width="100pt" height="100pt" viewBox="0 0 100 100" version="1.1" xmlns="http://www.w3.org/2000/svg">
<path fill="#ffffff" opacity="1.00" d=" M 24.69 11.48 C 28.53 12.93 32.21 14.85 36.21 15.83 C 40.50 15.55 44.63 13.86 48.99 14.02 C 53.77 13.70 58.35 15.31 63.03 15.91 C 67.30 15.17 71.17 13.01 75.25 11.61 C 74.08 14.71 72.74 17.73 71.45 20.78 C 78.14 25.96 83.58 32.99 85.73 41.28 C 91.46 58.83 81.08 79.41 64.05 86.09 C 48.83 92.68 29.63 87.56 19.81 74.17 C 11.62 63.60 9.85 48.52 15.36 36.34 C 18.05 30.01 22.68 24.70 28.17 20.62 C 27.00 17.58 25.76 14.56 24.69 11.48 M 29.21 15.78 C 30.08 17.88 30.97 19.97 31.87 22.06 C 23.24 27.95 16.62 37.25 15.71 47.84 C 14.70 52.48 15.29 57.22 16.90 61.64 C 21.73 76.82 37.77 87.73 53.75 85.44 C 63.82 84.17 73.26 78.27 78.61 69.60 C 84.69 60.35 85.43 48.07 81.02 37.98 C 78.45 31.59 73.53 26.53 68.01 22.57 C 68.91 20.34 69.84 18.13 70.75 15.91 C 67.80 17.05 64.97 18.69 61.81 19.17 C 58.17 18.83 54.70 17.37 51.01 17.32 C 46.60 16.97 42.37 18.53 38.02 18.87 C 34.89 18.54 32.11 16.88 29.21 15.78 Z" />
<path fill="#482b46" opacity="1.00" d=" M 29.21 15.78 C 32.11 16.88 34.89 18.54 38.02 18.87 C 42.37 18.53 46.60 16.97 51.01 17.32 C 54.70 17.37 58.17 18.83 61.81 19.17 C 64.97 18.69 67.80 17.05 70.75 15.91 C 69.84 18.13 68.91 20.34 68.01 22.57 C 73.53 26.53 78.45 31.59 81.02 37.98 C 85.43 48.07 84.69 60.35 78.61 69.60 C 73.26 78.27 63.82 84.17 53.75 85.44 C 37.77 87.73 21.73 76.82 16.90 61.64 C 17.20 61.20 17.81 60.32 18.12 59.88 C 20.35 56.83 22.13 53.25 25.32 51.07 C 29.73 50.98 33.93 52.63 38.15 53.67 C 35.76 52.53 33.35 51.42 30.94 50.30 C 35.34 48.31 39.88 46.50 43.79 43.63 C 42.03 40.90 39.15 39.05 37.59 36.19 C 37.07 32.39 39.80 29.14 41.11 25.77 C 41.53 28.92 41.40 32.13 42.08 35.24 C 43.59 36.48 45.74 35.72 47.51 35.85 C 50.79 35.50 54.22 36.38 57.40 35.44 C 58.29 32.30 58.01 28.98 58.59 25.78 C 60.00 29.05 62.07 32.26 62.13 35.91 C 61.03 39.06 57.90 40.81 55.57 42.98 C 59.41 46.15 63.90 48.34 68.46 50.27 C 66.30 51.17 64.14 52.05 61.98 52.96 C 66.15 52.29 70.32 50.84 74.59 51.27 C 77.72 53.78 79.69 57.39 82.38 60.32 C 82.19 56.25 80.06 52.78 77.42 49.83 C 78.51 47.34 79.53 44.83 80.44 42.27 C 79.20 43.93 77.97 45.59 76.73 47.25 C 73.19 45.57 69.78 43.65 66.52 41.47 C 67.86 39.86 69.21 38.26 70.54 36.64 C 70.43 35.92 70.33 35.19 70.23 34.47 C 68.25 36.78 66.10 38.94 63.96 41.10 C 64.93 42.93 65.91 44.76 66.87 46.60 C 64.79 45.50 62.74 44.37 60.68 43.24 C 62.34 40.65 64.59 38.17 64.98 35.01 C 64.92 32.39 63.46 30.10 62.42 27.78 C 63.61 25.20 64.82 22.62 65.98 20.02 C 62.71 21.64 59.11 22.88 56.42 25.41 C 54.93 27.46 54.88 30.14 54.36 32.54 C 51.90 31.72 49.30 31.48 46.76 32.03 C 45.48 29.24 44.42 26.08 41.80 24.26 C 39.32 22.56 36.55 21.35 33.88 20.00 C 34.83 22.35 36.05 24.63 36.55 27.14 C 36.39 30.15 34.75 32.91 34.78 35.94 C 35.43 38.56 37.21 40.68 38.70 42.87 C 35.84 44.23 33.07 45.79 30.32 47.36 C 31.62 45.34 33.06 43.38 33.94 41.13 C 32.34 38.89 30.13 37.21 28.15 35.34 C 27.90 35.82 27.65 36.31 27.39 36.80 C 28.78 38.33 30.18 39.85 31.57 41.38 C 28.59 43.33 25.71 45.84 22.11 46.50 C 20.31 46.04 19.02 44.53 17.54 43.49 C 18.75 45.84 20.52 48.06 20.84 50.75 C 20.14 52.34 19.10 53.75 18.13 55.19 C 18.12 53.98 18.11 52.77 18.09 51.56 C 17.44 51.55 16.15 51.53 15.51 51.52 C 15.56 50.29 15.63 49.07 15.71 47.84 C 16.62 37.25 23.24 27.95 31.87 22.06 C 30.97 19.97 30.08 17.88 29.21 15.78 M 44.56 42.51 C 47.44 45.61 52.62 45.64 55.51 42.54 C 51.89 43.53 48.18 43.50 44.56 42.51 M 47.40 46.82 C 48.09 47.34 48.81 47.82 49.56 48.27 C 50.83 49.27 51.64 47.29 52.60 46.72 C 50.86 46.72 49.13 46.75 47.40 46.82 M 80.25 50.68 C 79.47 51.95 81.25 54.18 82.65 53.50 C 83.46 52.21 81.65 50.04 80.25 50.68 M 21.10 64.16 C 19.72 65.15 20.41 66.93 20.54 68.31 C 24.03 64.81 27.68 61.49 31.17 57.99 C 31.16 61.39 30.66 64.82 28.79 67.74 C 27.38 69.76 27.73 72.24 27.97 74.54 C 29.96 71.49 31.80 68.34 34.00 65.43 C 34.11 67.56 34.58 69.74 34.05 71.84 C 32.91 73.99 31.02 75.59 29.54 77.48 C 29.90 77.71 30.62 78.18 30.98 78.41 C 34.56 76.68 36.21 72.97 37.72 69.54 C 38.47 71.91 39.79 74.34 39.28 76.89 C 38.53 78.76 37.11 80.23 35.94 81.82 C 37.49 82.18 39.05 82.57 40.66 82.67 C 42.18 80.56 42.95 78.03 43.96 75.65 C 45.49 78.67 44.88 83.29 48.42 84.76 C 48.33 81.91 48.37 78.79 46.60 76.38 C 43.14 71.54 38.02 68.20 34.46 63.46 C 33.21 60.31 32.72 56.92 31.76 53.68 C 28.57 57.54 24.95 60.98 21.10 64.16 M 69.95 53.66 C 68.95 56.87 68.41 60.21 67.27 63.37 C 63.85 67.87 59.13 71.19 55.60 75.58 C 53.68 77.92 53.38 81.02 52.85 83.88 C 53.52 83.91 54.86 83.97 55.53 84.00 C 56.03 81.13 56.71 78.28 57.59 75.50 C 58.49 77.60 59.21 79.80 60.45 81.74 C 61.87 81.95 63.29 81.59 64.70 81.43 C 63.80 79.63 62.63 77.91 62.26 75.91 C 62.20 73.45 63.34 71.19 64.16 68.93 C 65.19 72.68 66.96 76.33 70.51 78.28 C 70.50 75.39 68.23 73.34 67.36 70.75 C 67.18 68.90 67.56 67.06 67.81 65.24 C 70.10 68.24 71.65 71.68 73.01 75.18 C 73.75 73.07 74.78 70.71 73.30 68.64 C 71.42 65.57 70.30 62.14 70.59 58.50 C 73.63 61.29 76.61 64.23 80.31 66.15 C 78.50 60.87 73.02 58.15 69.95 53.66 M 46.38 56.06 C 48.76 58.09 49.63 61.12 50.33 64.06 C 50.72 61.11 51.00 57.87 53.67 56.05 C 51.24 56.25 48.80 56.26 46.38 56.06 Z" />
<path fill="#ffffff" opacity="1.00" d=" M 33.88 20.00 C 36.55 21.35 39.32 22.56 41.80 24.26 C 44.42 26.08 45.48 29.24 46.76 32.03 C 49.30 31.48 51.90 31.72 54.36 32.54 C 54.88 30.14 54.93 27.46 56.42 25.41 C 59.11 22.88 62.71 21.64 65.98 20.02 C 64.82 22.62 63.61 25.20 62.42 27.78 C 63.46 30.10 64.92 32.39 64.98 35.01 C 64.59 38.17 62.34 40.65 60.68 43.24 C 62.74 44.37 64.79 45.50 66.87 46.60 C 65.91 44.76 64.93 42.93 63.96 41.10 C 66.10 38.94 68.25 36.78 70.23 34.47 C 70.33 35.19 70.43 35.92 70.54 36.64 C 69.21 38.26 67.86 39.86 66.52 41.47 C 69.78 43.65 73.19 45.57 76.73 47.25 C 77.97 45.59 79.20 43.93 80.44 42.27 C 79.53 44.83 78.51 47.34 77.42 49.83 C 80.06 52.78 82.19 56.25 82.38 60.32 C 79.69 57.39 77.72 53.78 74.59 51.27 C 70.32 50.84 66.15 52.29 61.98 52.96 C 64.14 52.05 66.30 51.17 68.46 50.27 C 63.90 48.34 59.41 46.15 55.57 42.98 C 57.90 40.81 61.03 39.06 62.13 35.91 C 62.07 32.26 60.00 29.05 58.59 25.78 C 58.01 28.98 58.29 32.30 57.40 35.44 C 54.22 36.38 50.79 35.50 47.51 35.85 C 45.74 35.72 43.59 36.48 42.08 35.24 C 41.40 32.13 41.53 28.92 41.11 25.77 C 39.80 29.14 37.07 32.39 37.59 36.19 C 39.15 39.05 42.03 40.90 43.79 43.63 C 39.88 46.50 35.34 48.31 30.94 50.30 C 33.35 51.42 35.76 52.53 38.15 53.67 C 33.93 52.63 29.73 50.98 25.32 51.07 C 22.13 53.25 20.35 56.83 18.12 59.88 C 18.12 58.32 18.14 56.76 18.13 55.19 C 19.10 53.75 20.14 52.34 20.84 50.75 C 20.52 48.06 18.75 45.84 17.54 43.49 C 19.02 44.53 20.31 46.04 22.11 46.50 C 25.71 45.84 28.59 43.33 31.57 41.38 C 30.18 39.85 28.78 38.33 27.39 36.80 C 27.65 36.31 27.90 35.82 28.15 35.34 C 30.13 37.21 32.34 38.89 33.94 41.13 C 33.06 43.38 31.62 45.34 30.32 47.36 C 33.07 45.79 35.84 44.23 38.70 42.87 C 37.21 40.68 35.43 38.56 34.78 35.94 C 34.75 32.91 36.39 30.15 36.55 27.14 C 36.05 24.63 34.83 22.35 33.88 20.00 Z" />
<path fill="#ffffff" opacity="1.00" d=" M 44.56 42.51 C 48.18 43.50 51.89 43.53 55.51 42.54 C 52.62 45.64 47.44 45.61 44.56 42.51 Z" />
<path fill="#ffffff" opacity="1.00" d=" M 47.40 46.82 C 49.13 46.75 50.86 46.72 52.60 46.72 C 51.64 47.29 50.83 49.27 49.56 48.27 C 48.81 47.82 48.09 47.34 47.40 46.82 Z" />
<path fill="#a187a0" opacity="1.00" d=" M 16.90 61.64 C 15.29 57.22 14.70 52.48 15.71 47.84 C 15.63 49.07 15.56 50.29 15.51 51.52 C 16.15 51.53 17.44 51.55 18.09 51.56 C 18.11 52.77 18.12 53.98 18.13 55.19 C 18.14 56.76 18.12 58.32 18.12 59.88 C 17.81 60.32 17.20 61.20 16.90 61.64 Z" />
<path fill="#ebe4eb" opacity="1.00" d=" M 80.25 50.68 C 81.65 50.04 83.46 52.21 82.65 53.50 C 81.25 54.18 79.47 51.95 80.25 50.68 Z" />
<path fill="#ffffff" opacity="1.00" d=" M 21.10 64.16 C 24.95 60.98 28.57 57.54 31.76 53.68 C 32.72 56.92 33.21 60.31 34.46 63.46 C 38.02 68.20 43.14 71.54 46.60 76.38 C 48.37 78.79 48.33 81.91 48.42 84.76 C 44.88 83.29 45.49 78.67 43.96 75.65 C 42.95 78.03 42.18 80.56 40.66 82.67 C 39.05 82.57 37.49 82.18 35.94 81.82 C 37.11 80.23 38.53 78.76 39.28 76.89 C 39.79 74.34 38.47 71.91 37.72 69.54 C 36.21 72.97 34.56 76.68 30.98 78.41 C 30.62 78.18 29.90 77.71 29.54 77.48 C 31.02 75.59 32.91 73.99 34.05 71.84 C 34.58 69.74 34.11 67.56 34.00 65.43 C 31.80 68.34 29.96 71.49 27.97 74.54 C 27.73 72.24 27.38 69.76 28.79 67.74 C 30.66 64.82 31.16 61.39 31.17 57.99 C 27.68 61.49 24.03 64.81 20.54 68.31 C 20.41 66.93 19.72 65.15 21.10 64.16 Z" />
<path fill="#ffffff" opacity="1.00" d=" M 69.95 53.66 C 73.02 58.15 78.50 60.87 80.31 66.15 C 76.61 64.23 73.63 61.29 70.59 58.50 C 70.30 62.14 71.42 65.57 73.30 68.64 C 74.78 70.71 73.75 73.07 73.01 75.18 C 71.65 71.68 70.10 68.24 67.81 65.24 C 67.56 67.06 67.18 68.90 67.36 70.75 C 68.23 73.34 70.50 75.39 70.51 78.28 C 66.96 76.33 65.19 72.68 64.16 68.93 C 63.34 71.19 62.20 73.45 62.26 75.91 C 62.63 77.91 63.80 79.63 64.70 81.43 C 63.29 81.59 61.87 81.95 60.45 81.74 C 59.21 79.80 58.49 77.60 57.59 75.50 C 56.71 78.28 56.03 81.13 55.53 84.00 C 54.86 83.97 53.52 83.91 52.85 83.88 C 53.38 81.02 53.68 77.92 55.60 75.58 C 59.13 71.19 63.85 67.87 67.27 63.37 C 68.41 60.21 68.95 56.87 69.95 53.66 Z" />
<path fill="#ffffff" opacity="1.00" d=" M 46.38 56.06 C 48.80 56.26 51.24 56.25 53.67 56.05 C 51.00 57.87 50.72 61.11 50.33 64.06 C 49.63 61.12 48.76 58.09 46.38 56.06 Z" />
</svg>
