<?xml version="1.0" encoding="UTF-8" ?>
<!DOCTYPE svg PUBLIC "-//W3C//DTD SVG 1.1//EN" "http://www.w3.org/Graphics/SVG/1.1/DTD/svg11.dtd">
<svg width="100pt" height="100pt" viewBox="0 0 100 100" version="1.1" xmlns="http://www.w3.org/2000/svg">
<path fill="#b9bbb9" opacity="1.00" d=" M 62.18 11.13 C 64.72 8.22 68.51 10.37 71.20 11.85 C 73.88 13.49 77.46 15.97 76.63 19.60 C 75.16 22.83 71.94 24.78 69.65 27.38 C 77.05 27.68 84.46 27.32 91.86 27.65 C 87.99 33.77 83.53 39.50 79.51 45.51 C 77.77 47.95 77.95 51.06 77.46 53.88 C 76.52 61.95 71.27 69.36 63.98 72.94 C 61.67 74.22 58.95 75.06 57.32 77.27 C 54.93 80.29 52.89 83.58 50.65 86.71 C 47.93 83.32 45.39 79.79 42.91 76.22 C 39.28 78.41 35.75 82.01 31.27 81.77 C 26.14 80.33 27.76 73.98 28.10 70.06 C 29.44 65.47 25.20 62.17 23.84 58.17 C 21.07 52.96 22.15 46.39 18.32 41.69 C 14.85 36.90 11.34 32.14 7.99 27.27 C 15.01 27.19 22.04 27.44 29.06 27.25 C 32.85 27.18 35.72 24.34 39.08 22.97 C 45.04 20.13 51.86 20.95 58.13 22.12 C 59.82 18.59 60.34 14.58 62.18 11.13 M 63.57 11.93 C 62.25 15.91 62.09 20.91 58.65 23.75 C 53.09 23.94 47.39 22.09 41.95 23.95 C 37.57 25.25 34.27 28.76 29.93 30.11 C 24.61 30.83 19.22 30.19 13.87 30.36 C 15.99 33.78 18.44 36.96 20.78 40.22 C 23.72 44.08 22.97 49.23 24.32 53.67 C 25.38 58.27 28.69 61.87 30.27 66.24 C 30.36 70.85 29.38 75.48 30.19 80.09 C 35.36 79.77 39.01 75.98 43.21 73.48 C 46.61 74.85 48.16 78.74 50.64 81.28 C 52.41 78.91 53.96 76.28 56.33 74.44 C 59.68 72.31 63.66 71.31 66.81 68.83 C 71.49 65.15 74.82 59.62 75.40 53.65 C 76.00 49.75 75.55 45.39 78.05 42.06 C 80.75 38.18 83.65 34.43 86.07 30.36 C 79.56 30.32 73.05 30.57 66.56 30.03 C 67.90 26.78 70.03 23.96 72.58 21.56 C 73.45 20.36 75.44 19.19 74.50 17.49 C 72.28 13.70 67.80 11.98 63.57 11.93 Z" />
<path fill="#941271" opacity="1.00" d=" M 63.57 11.93 C 67.80 11.98 72.28 13.70 74.50 17.49 C 75.44 19.19 73.45 20.36 72.58 21.56 C 70.03 23.96 67.90 26.78 66.56 30.03 C 73.05 30.57 79.56 30.32 86.07 30.36 C 83.65 34.43 80.75 38.18 78.05 42.06 C 75.55 45.39 76.00 49.75 75.40 53.65 C 74.82 59.62 71.49 65.15 66.81 68.83 C 63.66 71.31 59.68 72.31 56.33 74.44 C 53.96 76.28 52.41 78.91 50.64 81.28 C 48.16 78.74 46.61 74.85 43.21 73.48 C 39.01 75.98 35.36 79.77 30.19 80.09 C 29.38 75.48 30.36 70.85 30.27 66.24 C 28.69 61.87 25.38 58.27 24.32 53.67 C 22.97 49.23 23.72 44.08 20.78 40.22 C 18.44 36.96 15.99 33.78 13.87 30.36 C 19.22 30.19 24.61 30.83 29.93 30.11 C 34.27 28.76 37.57 25.25 41.95 23.95 C 47.39 22.09 53.09 23.94 58.65 23.75 C 62.09 20.91 62.25 15.91 63.57 11.93 M 65.98 13.93 C 64.56 21.18 60.13 27.14 56.97 33.65 C 53.22 32.04 49.22 31.09 45.13 31.03 C 45.28 32.46 45.43 33.89 45.58 35.32 C 47.43 35.89 49.29 36.45 51.14 37.03 C 45.01 44.09 41.90 53.11 36.91 60.93 C 33.68 65.86 31.68 71.53 32.03 77.50 C 36.65 75.64 40.59 72.40 43.00 68.00 C 48.26 59.18 54.92 51.18 59.17 41.79 C 60.48 43.15 61.82 44.48 63.12 45.85 C 64.48 45.23 65.85 44.61 67.21 43.98 C 65.03 40.67 62.45 37.66 59.61 34.90 C 63.93 29.44 66.35 22.46 72.36 18.46 C 70.27 16.89 68.14 15.39 65.98 13.93 M 37.05 29.01 C 31.23 32.89 25.66 38.76 25.40 46.14 C 25.44 52.38 28.34 58.23 31.88 63.23 C 29.89 57.61 25.97 52.24 26.80 46.00 C 27.00 41.82 29.52 38.27 32.26 35.31 C 34.86 32.51 37.58 29.43 41.40 28.38 C 46.92 26.70 52.74 27.56 58.40 27.42 C 51.61 24.31 43.25 24.72 37.05 29.01 M 63.97 30.68 C 66.36 34.38 69.20 37.76 72.20 40.97 C 70.47 36.85 67.83 33.06 63.97 30.68 M 68.02 63.00 C 64.90 66.18 61.20 69.01 56.89 70.32 C 52.13 71.06 47.32 69.95 42.53 70.25 C 50.06 73.61 59.36 71.86 65.64 66.68 C 70.84 62.68 73.14 56.19 73.75 49.86 C 72.16 54.35 71.53 59.48 68.02 63.00 Z" />
<path fill="#ffffff" opacity="1.00" d=" M 65.98 13.93 C 68.14 15.39 70.27 16.89 72.36 18.46 C 66.35 22.46 63.93 29.44 59.61 34.90 C 62.45 37.66 65.03 40.67 67.21 43.98 C 65.85 44.61 64.48 45.23 63.12 45.85 C 61.82 44.48 60.48 43.15 59.17 41.79 C 54.92 51.18 48.26 59.18 43.00 68.00 C 40.59 72.40 36.65 75.64 32.03 77.50 C 31.68 71.53 33.68 65.86 36.91 60.93 C 41.90 53.11 45.01 44.09 51.14 37.03 C 49.29 36.45 47.43 35.89 45.58 35.32 C 45.43 33.89 45.28 32.46 45.13 31.03 C 49.22 31.09 53.22 32.04 56.97 33.65 C 60.13 27.14 64.56 21.18 65.98 13.93 Z" />
<path fill="#ffffff" opacity="1.00" d=" M 37.05 29.01 C 43.25 24.72 51.61 24.31 58.40 27.42 C 52.74 27.56 46.92 26.70 41.40 28.38 C 37.58 29.43 34.86 32.51 32.26 35.31 C 29.52 38.27 27.00 41.82 26.80 46.00 C 25.97 52.24 29.89 57.61 31.88 63.23 C 28.34 58.23 25.44 52.38 25.40 46.14 C 25.66 38.76 31.23 32.89 37.05 29.01 Z" />
<path fill="#ffffff" opacity="1.00" d=" M 63.97 30.68 C 67.83 33.06 70.47 36.85 72.20 40.97 C 69.20 37.76 66.36 34.38 63.97 30.68 Z" />
<path fill="#ffffff" opacity="1.00" d=" M 68.02 63.00 C 71.53 59.48 72.16 54.35 73.75 49.86 C 73.14 56.19 70.84 62.68 65.64 66.68 C 59.36 71.86 50.06 73.61 42.53 70.25 C 47.32 69.95 52.13 71.06 56.89 70.32 C 61.20 69.01 64.90 66.18 68.02 63.00 Z" />
</svg>
