<?xml version="1.0" encoding="UTF-8" ?>
<!DOCTYPE svg PUBLIC "-//W3C//DTD SVG 1.1//EN" "http://www.w3.org/Graphics/SVG/1.1/DTD/svg11.dtd">
<svg width="100pt" height="100pt" viewBox="0 0 100 100" version="1.1" xmlns="http://www.w3.org/2000/svg">
<path fill="#ffffff" opacity="1.00" d=" M 42.46 12.61 C 60.89 8.25 81.23 20.57 86.41 38.72 C 91.91 54.42 84.74 73.05 70.87 81.91 C 61.49 87.93 49.43 90.22 38.77 86.42 C 20.06 81.13 7.61 59.74 12.97 40.94 C 16.23 26.82 28.25 15.35 42.46 12.61 M 29.80 21.79 C 22.48 26.92 17.69 34.98 15.76 43.62 C 23.27 44.70 30.83 45.51 38.35 46.62 C 34.02 49.40 29.56 52.82 24.22 53.03 C 20.84 51.63 18.14 49.04 15.15 46.99 C 14.68 58.50 19.34 70.29 28.64 77.35 C 40.86 87.30 59.91 87.10 71.92 76.90 C 80.88 69.80 85.29 58.26 84.85 46.99 C 81.86 49.03 79.17 51.63 75.78 53.03 C 70.44 52.82 65.98 49.40 61.65 46.62 C 69.17 45.51 76.72 44.70 84.24 43.63 C 82.31 34.98 77.52 26.92 70.20 21.79 C 64.78 17.68 58.05 15.81 51.35 15.21 C 53.68 24.53 57.75 33.37 59.35 42.88 C 52.85 41.62 46.33 42.84 39.81 42.52 C 42.34 33.34 45.66 24.40 48.26 15.23 C 41.70 15.90 35.12 17.75 29.80 21.79 Z" />
<path fill="#482b46" opacity="1.00" d=" M 29.80 21.79 C 35.12 17.75 41.70 15.90 48.26 15.23 C 45.66 24.40 42.34 33.34 39.81 42.52 C 46.33 42.84 52.85 41.62 59.35 42.88 C 57.75 33.37 53.68 24.53 51.35 15.21 C 58.05 15.81 64.78 17.68 70.20 21.79 C 77.52 26.92 82.31 34.98 84.24 43.63 C 76.72 44.70 69.17 45.51 61.65 46.62 C 65.98 49.40 70.44 52.82 75.78 53.03 C 79.17 51.63 81.86 49.03 84.85 46.99 C 85.29 58.26 80.88 69.80 71.92 76.90 C 59.91 87.10 40.86 87.30 28.64 77.35 C 19.34 70.29 14.68 58.50 15.15 46.99 C 18.14 49.04 20.84 51.63 24.22 53.03 C 29.56 52.82 34.02 49.40 38.35 46.62 C 30.83 45.51 23.27 44.70 15.76 43.62 C 17.69 34.98 22.48 26.92 29.80 21.79 M 36.16 51.13 C 32.49 53.63 28.22 55.00 23.95 56.07 C 28.92 57.52 34.02 58.81 38.48 61.55 C 42.07 63.68 45.56 66.70 50.00 66.54 C 54.43 66.68 57.94 63.70 61.52 61.55 C 65.95 58.81 71.04 57.49 76.04 56.20 C 71.80 54.96 67.52 53.64 63.85 51.12 C 59.48 48.48 55.48 44.29 50.00 44.46 C 44.52 44.30 40.51 48.46 36.16 51.13 M 39.84 66.97 C 42.85 72.58 46.32 77.93 49.80 83.25 C 53.20 77.95 56.67 72.68 59.57 67.08 C 56.12 67.90 52.68 69.16 49.08 68.92 C 45.93 68.70 42.91 67.65 39.84 66.97 Z" />
<path fill="#ffffff" opacity="1.00" d=" M 36.16 51.13 C 40.51 48.46 44.52 44.30 50.00 44.46 C 55.48 44.29 59.48 48.48 63.85 51.12 C 67.52 53.64 71.80 54.96 76.04 56.20 C 71.04 57.49 65.95 58.81 61.52 61.55 C 57.94 63.70 54.43 66.68 50.00 66.54 C 45.56 66.70 42.07 63.68 38.48 61.55 C 34.02 58.81 28.92 57.52 23.95 56.07 C 28.22 55.00 32.49 53.63 36.16 51.13 M 45.68 47.65 C 40.91 50.13 36.64 53.46 31.82 55.87 C 36.27 57.60 40.37 60.03 44.37 62.62 C 47.72 64.90 52.28 64.90 55.64 62.62 C 59.62 60.03 63.72 57.61 68.16 55.86 C 64.29 53.81 60.59 51.44 56.91 49.05 C 53.67 46.82 49.33 45.72 45.68 47.65 Z" />
<path fill="#482b46" opacity="1.00" d=" M 45.68 47.65 C 49.33 45.72 53.67 46.82 56.91 49.05 C 60.59 51.44 64.29 53.81 68.16 55.86 C 63.72 57.61 59.62 60.03 55.64 62.62 C 52.28 64.90 47.72 64.90 44.37 62.62 C 40.37 60.03 36.27 57.60 31.82 55.87 C 36.64 53.46 40.91 50.13 45.68 47.65 M 48.39 51.26 C 45.61 51.97 44.21 55.63 45.95 57.96 C 48.02 61.17 53.76 60.42 54.67 56.61 C 55.73 53.07 51.65 49.98 48.39 51.26 Z" />
<path fill="#ffffff" opacity="1.00" d=" M 48.39 51.26 C 51.65 49.98 55.73 53.07 54.67 56.61 C 53.76 60.42 48.02 61.17 45.95 57.96 C 44.21 55.63 45.61 51.97 48.39 51.26 Z" />
<path fill="#ffffff" opacity="1.00" d=" M 39.84 66.97 C 42.91 67.65 45.93 68.70 49.08 68.92 C 52.68 69.16 56.12 67.90 59.57 67.08 C 56.67 72.68 53.20 77.95 49.80 83.25 C 46.32 77.93 42.85 72.58 39.84 66.97 Z" />
</svg>
