<?xml version="1.0" encoding="UTF-8" ?>
<!DOCTYPE svg PUBLIC "-//W3C//DTD SVG 1.1//EN" "http://www.w3.org/Graphics/SVG/1.1/DTD/svg11.dtd">
<svg width="100pt" height="100pt" viewBox="0 0 100 100" version="1.1" xmlns="http://www.w3.org/2000/svg">
<path fill="#ffffff" opacity="1.00" d=" M 39.79 5.70 C 45.88 3.69 52.80 2.19 58.77 5.43 C 59.99 7.70 59.34 10.49 59.55 12.98 C 70.27 15.96 79.76 23.45 84.43 33.64 C 87.62 40.80 89.48 48.97 87.56 56.73 C 85.83 65.95 80.76 74.56 73.25 80.23 C 66.64 85.35 58.30 88.03 50.00 88.39 C 40.51 88.00 31.01 84.49 24.04 77.95 C 16.28 70.85 12.01 60.42 11.62 50.00 C 12.01 38.15 17.61 26.34 27.32 19.34 C 30.90 16.52 35.23 15.03 39.31 13.14 C 39.98 10.72 39.69 8.17 39.79 5.70 M 42.05 7.05 C 41.85 10.01 41.74 12.97 41.66 15.93 C 37.13 17.76 32.52 19.62 28.65 22.67 C 17.43 31.14 12.53 46.78 16.79 60.16 C 19.61 69.88 27.13 77.60 36.09 81.99 C 36.26 77.18 35.64 72.29 36.52 67.54 C 37.79 65.73 39.61 64.42 41.23 62.94 C 40.87 55.41 40.48 47.88 40.35 40.34 C 42.94 39.24 45.51 38.09 48.09 36.95 C 48.54 44.69 47.67 52.54 49.18 60.19 C 51.26 52.59 50.16 44.62 50.60 36.85 C 53.12 37.93 55.64 39.02 58.16 40.09 C 58.10 44.99 57.90 49.89 57.82 54.79 C 59.81 54.26 61.81 53.73 63.81 53.21 C 64.03 62.78 63.63 72.34 63.76 81.91 C 67.86 79.84 71.87 77.43 75.02 74.03 C 86.16 62.90 87.90 43.97 79.03 30.98 C 74.17 23.22 65.96 18.44 57.42 15.72 C 57.40 12.74 57.39 9.77 57.33 6.79 C 52.29 5.54 47.04 5.63 42.05 7.05 M 38.37 67.50 C 38.24 72.62 38.35 77.74 38.49 82.86 C 45.82 85.22 53.70 85.21 61.07 83.06 C 61.05 74.37 61.51 65.68 61.21 57.00 C 53.47 60.21 45.88 63.78 38.37 67.50 Z" />
<path fill="#482b46" opacity="1.00" d=" M 42.05 7.05 C 47.04 5.63 52.29 5.54 57.33 6.79 C 57.39 9.77 57.40 12.74 57.42 15.72 C 65.96 18.44 74.17 23.22 79.03 30.98 C 87.90 43.97 86.16 62.90 75.02 74.03 C 71.87 77.43 67.86 79.84 63.76 81.91 C 63.63 72.34 64.03 62.78 63.81 53.21 C 61.81 53.73 59.81 54.26 57.82 54.79 C 57.90 49.89 58.10 44.99 58.16 40.09 C 55.64 39.02 53.12 37.93 50.60 36.85 C 50.16 44.62 51.26 52.59 49.18 60.19 C 47.67 52.54 48.54 44.69 48.09 36.95 C 45.51 38.09 42.94 39.24 40.35 40.34 C 40.48 47.88 40.87 55.41 41.23 62.94 C 39.61 64.42 37.79 65.73 36.52 67.54 C 35.64 72.29 36.26 77.18 36.09 81.99 C 27.13 77.60 19.61 69.88 16.79 60.16 C 12.53 46.78 17.43 31.14 28.65 22.67 C 32.52 19.62 37.13 17.76 41.66 15.93 C 41.74 12.97 41.85 10.01 42.05 7.05 M 45.50 8.71 C 43.07 10.43 44.72 13.81 45.03 16.19 C 48.26 15.53 51.50 15.46 54.78 15.64 C 54.80 13.23 54.82 10.82 54.81 8.42 C 51.71 8.40 48.57 8.14 45.50 8.71 M 49.27 15.95 C 45.69 19.28 47.20 24.34 46.50 28.62 C 46.24 30.42 44.34 31.20 42.83 31.72 C 39.08 32.90 35.34 34.14 31.80 35.88 C 33.20 37.39 34.62 38.88 36.05 40.37 C 40.45 38.83 44.51 36.36 49.00 35.10 C 54.15 35.81 58.64 38.94 63.79 39.65 C 65.67 39.03 66.73 37.08 68.17 35.82 C 63.63 32.64 57.24 32.78 53.43 28.60 C 52.79 25.19 53.23 21.68 52.65 18.26 C 51.72 17.25 50.50 16.54 49.27 15.95 M 71.01 39.74 C 70.85 41.75 70.69 43.75 70.55 45.76 C 68.57 45.92 66.59 46.07 64.62 46.24 C 64.62 47.45 64.62 48.66 64.61 49.87 C 66.59 50.04 68.57 50.21 70.54 50.37 C 70.69 52.36 70.83 54.36 70.99 56.35 C 72.21 56.32 73.43 56.29 74.65 56.27 C 74.81 54.29 74.97 52.32 75.14 50.35 C 77.14 50.19 79.13 50.02 81.13 49.85 C 81.13 48.64 81.14 47.44 81.14 46.24 C 79.13 46.09 77.12 45.94 75.11 45.80 C 74.95 43.80 74.80 41.80 74.65 39.81 C 73.44 39.78 72.23 39.76 71.01 39.74 Z" />
<path fill="#ffffff" opacity="1.00" d=" M 45.50 8.71 C 48.57 8.14 51.71 8.40 54.81 8.42 C 54.82 10.82 54.80 13.23 54.78 15.64 C 51.50 15.46 48.26 15.53 45.03 16.19 C 44.72 13.81 43.07 10.43 45.50 8.71 Z" />
<path fill="#ffffff" opacity="1.00" d=" M 49.27 15.95 C 50.50 16.54 51.72 17.25 52.65 18.26 C 53.23 21.68 52.79 25.19 53.43 28.60 C 57.24 32.78 63.63 32.64 68.17 35.82 C 66.73 37.08 65.67 39.03 63.79 39.65 C 58.64 38.94 54.15 35.81 49.00 35.10 C 44.51 36.36 40.45 38.83 36.05 40.37 C 34.62 38.88 33.20 37.39 31.80 35.88 C 35.34 34.14 39.08 32.90 42.83 31.72 C 44.34 31.20 46.24 30.42 46.50 28.62 C 47.20 24.34 45.69 19.28 49.27 15.95 Z" />
<path fill="#ffffff" opacity="1.00" d=" M 71.01 39.74 C 72.23 39.76 73.44 39.78 74.65 39.81 C 74.80 41.80 74.95 43.80 75.11 45.80 C 77.12 45.94 79.13 46.09 81.14 46.24 C 81.14 47.44 81.13 48.64 81.13 49.85 C 79.13 50.02 77.14 50.19 75.14 50.35 C 74.97 52.32 74.81 54.29 74.65 56.27 C 73.43 56.29 72.21 56.32 70.99 56.35 C 70.83 54.36 70.69 52.36 70.54 50.37 C 68.57 50.21 66.59 50.04 64.61 49.87 C 64.62 48.66 64.62 47.45 64.62 46.24 C 66.59 46.07 68.57 45.92 70.55 45.76 C 70.69 43.75 70.85 41.75 71.01 39.74 Z" />
<path fill="#482b46" opacity="1.00" d=" M 38.37 67.50 C 45.88 63.78 53.47 60.21 61.21 57.00 C 61.51 65.68 61.05 74.37 61.07 83.06 C 53.70 85.21 45.82 85.22 38.49 82.86 C 38.35 77.74 38.24 72.62 38.37 67.50 Z" />
</svg>
