<?xml version="1.0" encoding="UTF-8" ?>
<!DOCTYPE svg PUBLIC "-//W3C//DTD SVG 1.1//EN" "http://www.w3.org/Graphics/SVG/1.1/DTD/svg11.dtd">
<svg width="100pt" height="100pt" viewBox="0 0 100 100" version="1.1" xmlns="http://www.w3.org/2000/svg">
<path fill="#b8bbbb" opacity="1.00" d=" M 16.05 16.26 C 38.68 16.28 61.31 16.29 83.94 16.26 C 84.23 26.01 83.78 35.76 84.10 45.51 C 88.02 46.86 91.91 48.33 95.73 49.94 C 91.97 52.03 88.11 53.95 84.12 55.56 C 83.78 64.95 84.22 74.35 83.94 83.74 C 61.31 83.71 38.68 83.72 16.05 83.74 C 16.04 74.34 16.16 64.93 15.91 55.53 C 12.35 53.80 9.00 51.67 5.75 49.42 C 9.14 48.22 12.55 47.09 15.96 45.96 C 16.15 36.06 16.03 26.16 16.05 16.26 M 18.91 19.31 C 18.71 28.45 18.85 37.59 18.83 46.73 C 15.98 47.90 13.13 49.05 10.30 50.25 C 13.09 51.76 15.94 53.16 18.83 54.46 C 18.82 63.08 18.77 71.69 18.85 80.31 C 39.82 80.36 60.80 80.43 81.78 80.27 C 81.69 71.63 81.63 62.99 81.82 54.35 C 84.80 53.07 87.74 51.73 90.66 50.31 C 87.86 49.08 84.91 48.12 82.35 46.42 C 80.74 37.52 82.15 28.32 81.75 19.30 C 60.80 19.47 39.86 19.46 18.91 19.31 Z" />
<path fill="#c40f24" opacity="1.00" d=" M 18.91 19.31 C 39.86 19.46 60.80 19.47 81.75 19.30 C 82.15 28.32 80.74 37.52 82.35 46.42 C 84.91 48.12 87.86 49.08 90.66 50.31 C 87.74 51.73 84.80 53.07 81.82 54.35 C 81.63 62.99 81.69 71.63 81.78 80.27 C 60.80 80.43 39.82 80.36 18.85 80.31 C 18.77 71.69 18.82 63.08 18.83 54.46 C 15.94 53.16 13.09 51.76 10.30 50.25 C 13.13 49.05 15.98 47.90 18.83 46.73 C 18.85 37.59 18.71 28.45 18.91 19.31 M 45.91 31.83 C 42.40 29.42 39.69 26.11 37.17 22.71 C 38.04 26.94 38.63 31.23 38.31 35.55 C 34.73 34.50 31.36 32.89 28.19 30.94 C 29.50 34.27 30.64 37.71 30.86 41.31 C 28.56 40.90 26.27 40.45 23.98 39.96 C 24.42 41.73 24.83 43.51 25.25 45.29 C 30.27 42.82 34.70 39.42 39.28 36.25 C 45.83 31.75 55.08 31.82 61.57 36.41 C 66.06 39.57 70.46 42.89 75.41 45.31 C 75.89 43.39 76.38 41.46 76.92 39.55 C 74.49 40.27 72.02 40.85 69.54 41.34 C 70.08 37.71 71.14 34.19 72.56 30.81 C 69.42 32.80 66.08 34.44 62.56 35.65 C 61.80 31.05 62.61 26.43 63.78 21.98 C 61.40 25.21 59.27 28.83 55.83 31.06 C 51.57 30.05 51.44 24.53 50.29 21.08 C 49.44 24.89 48.02 28.55 45.91 31.83 M 32.93 42.89 C 27.47 46.56 21.33 49.05 14.97 50.65 C 22.56 52.55 30.35 54.55 36.80 59.20 C 40.91 62.26 45.68 65.08 51.02 64.59 C 56.74 64.54 61.24 60.72 65.84 57.86 C 71.73 54.14 78.58 52.54 85.19 50.63 C 78.90 48.87 72.77 46.40 67.35 42.69 C 62.10 39.19 56.69 34.81 50.00 35.11 C 43.33 34.84 38.18 39.52 32.93 42.89 M 25.29 54.64 C 24.84 56.37 24.38 58.10 23.91 59.83 C 26.35 59.40 28.81 59.05 31.27 58.79 C 30.51 62.24 29.43 65.62 28.07 68.89 C 31.26 66.82 34.76 65.20 38.56 64.66 C 38.61 68.87 37.97 73.04 37.11 77.15 C 39.60 73.87 42.23 70.68 45.31 67.93 C 48.12 70.98 49.56 74.89 50.26 78.92 C 51.40 75.38 51.52 69.82 55.86 68.72 C 59.34 70.99 61.46 74.67 63.80 77.98 C 62.69 73.57 61.95 69.04 62.23 64.46 C 65.99 65.26 69.43 66.98 72.63 69.06 C 71.19 65.73 70.10 62.27 69.45 58.71 C 71.91 59.03 74.36 59.43 76.79 59.92 C 76.32 58.14 75.87 56.35 75.43 54.57 C 70.64 56.87 66.31 59.97 62.03 63.09 C 55.34 68.06 45.53 68.11 38.78 63.22 C 34.45 60.11 30.12 56.97 25.29 54.64 Z" />
<path fill="#ffffff" opacity="1.00" d=" M 45.91 31.83 C 48.02 28.55 49.44 24.89 50.29 21.08 C 51.44 24.53 51.57 30.05 55.83 31.06 C 59.27 28.83 61.40 25.21 63.78 21.98 C 62.61 26.43 61.80 31.05 62.56 35.65 C 66.08 34.44 69.42 32.80 72.56 30.81 C 71.14 34.19 70.08 37.71 69.54 41.34 C 72.02 40.85 74.49 40.27 76.92 39.55 C 76.38 41.46 75.89 43.39 75.41 45.31 C 70.46 42.89 66.06 39.57 61.57 36.41 C 55.08 31.82 45.83 31.75 39.28 36.25 C 34.70 39.42 30.27 42.82 25.25 45.29 C 24.83 43.51 24.42 41.73 23.98 39.96 C 26.27 40.45 28.56 40.90 30.86 41.31 C 30.64 37.71 29.50 34.27 28.19 30.94 C 31.36 32.89 34.73 34.50 38.31 35.55 C 38.63 31.23 38.04 26.94 37.17 22.71 C 39.69 26.11 42.40 29.42 45.91 31.83 Z" />
<path fill="#ffffff" opacity="1.00" d=" M 32.93 42.89 C 38.18 39.52 43.33 34.84 50.00 35.11 C 56.69 34.81 62.10 39.19 67.35 42.69 C 72.77 46.40 78.90 48.87 85.19 50.63 C 78.58 52.54 71.73 54.14 65.84 57.86 C 61.24 60.72 56.74 64.54 51.02 64.59 C 45.68 65.08 40.91 62.26 36.80 59.20 C 30.35 54.55 22.56 52.55 14.97 50.65 C 21.33 49.05 27.47 46.56 32.93 42.89 M 30.28 48.21 C 43.69 48.52 57.11 48.46 70.52 48.25 C 63.94 44.42 58.04 38.11 49.99 37.88 C 42.24 38.29 36.61 44.44 30.28 48.21 M 27.67 51.04 C 31.49 52.92 35.41 54.65 38.90 57.12 C 41.96 59.23 45.19 61.59 49.07 61.71 C 53.08 62.14 56.85 60.36 60.07 58.13 C 64.02 55.39 68.35 53.29 72.60 51.07 C 67.41 50.88 62.22 50.96 57.03 51.14 C 56.36 53.04 55.96 55.13 54.72 56.77 C 52.35 59.32 47.69 59.31 45.47 56.59 C 44.31 54.95 43.86 52.95 43.19 51.09 C 38.02 50.96 32.84 50.90 27.67 51.04 Z" />
<path fill="#c40f24" opacity="1.00" d=" M 30.28 48.21 C 36.61 44.44 42.24 38.29 49.99 37.88 C 58.04 38.11 63.94 44.42 70.52 48.25 C 57.11 48.46 43.69 48.52 30.28 48.21 Z" />
<path fill="#c30a21" opacity="1.00" d=" M 27.67 51.04 C 32.84 50.90 38.02 50.96 43.19 51.09 C 43.86 52.95 44.31 54.95 45.47 56.59 C 47.69 59.31 52.35 59.32 54.72 56.77 C 55.96 55.13 56.36 53.04 57.03 51.14 C 62.22 50.96 67.41 50.88 72.60 51.07 C 68.35 53.29 64.02 55.39 60.07 58.13 C 56.85 60.36 53.08 62.14 49.07 61.71 C 45.19 61.59 41.96 59.23 38.90 57.12 C 35.41 54.65 31.49 52.92 27.67 51.04 Z" />
<path fill="#ffffff" opacity="1.00" d=" M 25.29 54.64 C 30.12 56.97 34.45 60.11 38.78 63.22 C 45.53 68.11 55.34 68.06 62.03 63.09 C 66.31 59.97 70.64 56.87 75.43 54.57 C 75.87 56.35 76.32 58.14 76.79 59.92 C 74.36 59.43 71.91 59.03 69.45 58.71 C 70.10 62.27 71.19 65.73 72.63 69.06 C 69.43 66.98 65.99 65.26 62.23 64.46 C 61.95 69.04 62.69 73.57 63.80 77.98 C 61.46 74.67 59.34 70.99 55.86 68.72 C 51.52 69.82 51.40 75.38 50.26 78.92 C 49.56 74.89 48.12 70.98 45.31 67.93 C 42.23 70.68 39.60 73.87 37.11 77.15 C 37.97 73.04 38.61 68.87 38.56 64.66 C 34.76 65.20 31.26 66.82 28.07 68.89 C 29.43 65.62 30.51 62.24 31.27 58.79 C 28.81 59.05 26.35 59.40 23.91 59.83 C 24.38 58.10 24.84 56.37 25.29 54.64 Z" />
</svg>
