<?xml version="1.0" encoding="UTF-8" ?>
<!DOCTYPE svg PUBLIC "-//W3C//DTD SVG 1.1//EN" "http://www.w3.org/Graphics/SVG/1.1/DTD/svg11.dtd">
<svg width="100pt" height="100pt" viewBox="0 0 100 100" version="1.1" xmlns="http://www.w3.org/2000/svg">
<path fill="#b7c1c0" opacity="1.00" d=" M 45.62 14.95 C 47.02 12.64 48.47 10.35 49.97 8.09 C 51.51 10.33 53.01 12.61 54.43 14.94 C 56.42 14.76 58.45 14.85 60.40 14.36 C 62.86 13.18 65.03 11.48 67.30 9.98 C 67.65 11.51 68.00 13.04 68.35 14.58 C 70.50 14.74 72.64 14.88 74.79 15.09 C 76.57 19.21 77.92 23.48 79.29 27.74 C 79.79 29.77 81.81 30.65 83.40 31.70 C 83.36 34.52 82.52 37.54 83.72 40.22 C 87.78 42.39 92.42 43.37 96.22 46.07 C 93.51 48.01 90.71 49.82 87.78 51.41 C 88.41 53.80 89.12 56.17 89.75 58.56 C 86.50 60.68 83.15 62.66 80.11 65.07 C 78.16 66.52 77.98 69.11 77.12 71.21 C 74.14 70.46 70.21 70.05 68.52 73.28 C 68.05 76.26 67.87 79.28 67.53 82.28 C 65.30 80.85 63.05 79.46 60.88 77.95 C 57.26 80.44 53.59 82.87 50.00 85.39 C 46.40 82.87 42.74 80.44 39.12 77.95 C 36.95 79.46 34.70 80.85 32.47 82.28 C 31.45 78.59 33.28 73.00 29.00 71.06 C 27.09 70.07 24.89 71.09 22.88 71.21 C 22.01 69.12 21.85 66.52 19.90 65.07 C 16.83 62.65 13.45 60.66 10.19 58.52 C 10.88 56.25 11.58 53.98 12.31 51.72 C 9.27 49.90 6.31 47.97 3.57 45.73 C 7.71 43.18 12.86 42.58 16.70 39.58 C 17.12 36.97 16.73 34.33 16.61 31.71 C 18.20 30.65 20.20 29.77 20.71 27.74 C 22.08 23.48 23.43 19.20 25.22 15.09 C 27.35 14.87 29.50 14.74 31.64 14.58 C 32.00 13.05 32.35 11.52 32.70 9.99 C 34.97 11.49 37.14 13.18 39.60 14.36 C 41.57 14.84 43.61 14.78 45.62 14.95 M 46.41 17.85 C 42.30 18.09 38.25 17.18 35.22 14.27 C 32.90 16.43 30.01 17.73 27.37 19.43 C 23.27 23.53 25.04 30.95 19.62 34.11 C 19.18 36.41 19.37 38.98 18.06 41.01 C 14.98 43.67 10.83 44.52 7.20 46.19 C 9.98 47.81 12.81 49.36 15.70 50.78 C 15.18 52.90 14.63 55.02 14.10 57.14 C 18.33 60.14 23.83 62.68 24.67 68.42 C 27.02 68.31 29.67 67.59 31.77 69.03 C 35.19 71.08 33.46 75.80 34.02 79.09 C 35.83 77.59 37.60 76.07 39.37 74.53 C 42.86 76.88 46.42 79.12 50.00 81.34 C 53.58 79.12 57.14 76.88 60.64 74.53 C 62.40 76.07 64.17 77.59 65.97 79.09 C 66.53 75.80 64.82 71.08 68.23 69.03 C 70.32 67.58 72.98 68.31 75.33 68.42 C 76.17 62.69 81.66 60.14 85.89 57.15 C 85.36 55.01 84.81 52.87 84.29 50.73 C 87.17 49.31 89.97 47.77 92.75 46.17 C 89.10 44.56 85.00 43.67 81.85 41.11 C 80.57 39.04 80.80 36.43 80.42 34.10 C 74.93 31.00 76.73 23.54 72.63 19.42 C 69.98 17.74 67.08 16.45 64.79 14.26 C 61.72 17.23 57.61 18.07 53.46 17.89 C 52.46 15.95 51.49 14.00 50.34 12.15 C 48.77 13.85 47.60 15.87 46.41 17.85 Z" />
<path fill="#c40f24" opacity="1.00" d=" M 46.41 17.85 C 47.60 15.87 48.77 13.85 50.34 12.15 C 51.49 14.00 52.46 15.95 53.46 17.89 C 57.61 18.07 61.72 17.23 64.79 14.26 C 67.08 16.45 69.98 17.74 72.63 19.42 C 76.73 23.54 74.93 31.00 80.42 34.10 C 80.80 36.43 80.57 39.04 81.85 41.11 C 85.00 43.67 89.10 44.56 92.75 46.17 C 89.97 47.77 87.17 49.31 84.29 50.73 C 84.81 52.87 85.36 55.01 85.89 57.15 C 81.66 60.14 76.17 62.69 75.33 68.42 C 72.98 68.31 70.32 67.58 68.23 69.03 C 64.82 71.08 66.53 75.80 65.97 79.09 C 64.17 77.59 62.40 76.07 60.64 74.53 C 57.14 76.88 53.58 79.12 50.00 81.34 C 46.42 79.12 42.86 76.88 39.37 74.53 C 37.60 76.07 35.83 77.59 34.02 79.09 C 33.46 75.80 35.19 71.08 31.77 69.03 C 29.67 67.59 27.02 68.31 24.67 68.42 C 23.83 62.68 18.33 60.14 14.10 57.14 C 14.63 55.02 15.18 52.90 15.70 50.78 C 12.81 49.36 9.98 47.81 7.20 46.19 C 10.83 44.52 14.98 43.67 18.06 41.01 C 19.37 38.98 19.18 36.41 19.62 34.11 C 25.04 30.95 23.27 23.53 27.37 19.43 C 30.01 17.73 32.90 16.43 35.22 14.27 C 38.25 17.18 42.30 18.09 46.41 17.85 M 44.25 26.03 C 40.82 23.05 38.00 19.49 35.30 15.85 C 36.53 20.57 37.67 25.54 36.22 30.37 C 32.39 29.04 28.78 27.17 25.42 24.92 C 27.10 28.55 28.36 32.38 28.75 36.38 C 26.17 36.08 23.60 35.67 21.04 35.18 C 21.51 37.14 21.93 39.10 22.32 41.08 C 27.75 38.47 32.57 34.87 37.42 31.35 C 44.53 26.27 54.71 26.08 61.97 30.95 C 67.08 34.53 72.02 38.39 77.68 41.08 C 78.07 39.10 78.49 37.14 78.96 35.18 C 76.40 35.67 73.83 36.08 71.25 36.38 C 71.64 32.38 72.90 28.55 74.58 24.92 C 71.21 27.18 67.60 29.05 63.77 30.37 C 62.33 25.55 63.47 20.58 64.70 15.85 C 62.00 19.49 59.17 23.05 55.74 26.04 C 52.31 23.32 50.98 19.11 50.06 15.01 C 48.97 19.07 47.70 23.31 44.25 26.03 M 36.56 34.54 C 28.84 40.16 20.33 44.96 10.86 46.84 C 19.64 49.08 28.71 51.39 36.06 56.95 C 40.06 60.03 44.81 62.51 50.00 62.29 C 55.71 62.46 60.61 59.24 65.09 56.10 C 72.26 51.13 80.81 48.98 89.14 46.84 C 82.86 45.43 76.77 43.16 71.31 39.73 C 65.30 36.29 60.02 31.03 52.92 29.98 C 47.08 28.91 41.20 31.06 36.56 34.54 M 22.34 51.16 C 21.94 53.11 21.52 55.06 21.06 56.99 C 23.56 56.47 26.07 56.02 28.59 55.64 C 28.52 59.71 27.16 63.57 25.41 67.20 C 28.85 64.79 32.64 62.78 36.90 62.38 C 37.08 66.73 36.58 71.06 35.87 75.34 C 38.46 72.08 41.16 68.88 44.30 66.13 C 47.46 68.83 48.95 72.73 50.00 76.63 C 51.05 72.73 52.54 68.83 55.70 66.13 C 58.84 68.89 61.54 72.08 64.13 75.35 C 63.42 71.06 62.92 66.73 63.10 62.38 C 67.35 62.77 71.14 64.79 74.59 67.20 C 72.84 63.57 71.48 59.71 71.40 55.64 C 73.93 56.02 76.44 56.47 78.94 56.99 C 78.48 55.05 78.06 53.11 77.66 51.16 C 72.52 53.63 67.85 56.91 63.32 60.33 C 56.29 65.71 45.96 66.28 38.48 61.51 C 33.20 57.91 28.18 53.86 22.34 51.16 Z" />
<path fill="#ffffff" opacity="1.00" d=" M 44.25 26.03 C 47.70 23.31 48.97 19.07 50.06 15.01 C 50.98 19.11 52.31 23.32 55.74 26.04 C 59.17 23.05 62.00 19.49 64.70 15.85 C 63.47 20.58 62.33 25.55 63.77 30.37 C 67.60 29.05 71.21 27.18 74.58 24.92 C 72.90 28.55 71.64 32.38 71.25 36.38 C 73.83 36.08 76.40 35.67 78.96 35.18 C 78.49 37.14 78.07 39.10 77.68 41.08 C 72.02 38.39 67.08 34.53 61.97 30.95 C 54.71 26.08 44.53 26.27 37.42 31.35 C 32.57 34.87 27.75 38.47 22.32 41.08 C 21.93 39.10 21.51 37.14 21.04 35.18 C 23.60 35.67 26.17 36.08 28.75 36.38 C 28.36 32.38 27.10 28.55 25.42 24.92 C 28.78 27.17 32.39 29.04 36.22 30.37 C 37.67 25.54 36.53 20.57 35.30 15.85 C 38.00 19.49 40.82 23.05 44.25 26.03 Z" />
<path fill="#ffffff" opacity="1.00" d=" M 36.56 34.54 C 41.20 31.06 47.08 28.91 52.92 29.98 C 60.02 31.03 65.30 36.29 71.31 39.73 C 76.77 43.16 82.86 45.43 89.14 46.84 C 80.81 48.98 72.26 51.13 65.09 56.10 C 60.61 59.24 55.71 62.46 50.00 62.29 C 44.81 62.51 40.06 60.03 36.06 56.95 C 28.71 51.39 19.64 49.08 10.86 46.84 C 20.33 44.96 28.84 40.16 36.56 34.54 M 43.27 34.31 C 37.57 37.34 32.50 41.42 26.86 44.57 C 42.29 44.47 57.72 44.46 73.15 44.57 C 69.28 42.23 65.45 39.84 61.71 37.30 C 56.50 33.46 49.38 31.24 43.27 34.31 M 24.71 47.29 C 29.17 49.39 33.79 51.26 37.78 54.21 C 41.10 56.63 44.74 59.05 49.00 59.14 C 53.67 59.52 57.91 57.18 61.59 54.57 C 65.81 51.52 70.60 49.47 75.29 47.28 C 69.39 47.17 63.48 47.29 57.58 47.32 C 56.77 49.51 56.22 51.90 54.70 53.73 C 52.11 56.45 47.05 56.37 44.68 53.41 C 43.39 51.61 42.92 49.39 42.22 47.33 C 36.38 47.28 30.55 47.17 24.71 47.29 Z" />
<path fill="#c40f24" opacity="1.00" d=" M 43.27 34.31 C 49.38 31.24 56.50 33.46 61.71 37.30 C 65.45 39.84 69.28 42.23 73.15 44.57 C 57.72 44.46 42.29 44.47 26.86 44.57 C 32.50 41.42 37.57 37.34 43.27 34.31 Z" />
<path fill="#c40f24" opacity="1.00" d=" M 24.71 47.29 C 30.55 47.17 36.38 47.28 42.22 47.33 C 42.92 49.39 43.39 51.61 44.68 53.41 C 47.05 56.37 52.11 56.45 54.70 53.73 C 56.22 51.90 56.77 49.51 57.58 47.32 C 63.48 47.29 69.39 47.17 75.29 47.28 C 70.60 49.47 65.81 51.52 61.59 54.57 C 57.91 57.18 53.67 59.52 49.00 59.14 C 44.74 59.05 41.10 56.63 37.78 54.21 C 33.79 51.26 29.17 49.39 24.71 47.29 Z" />
<path fill="#ffffff" opacity="1.00" d=" M 22.34 51.16 C 28.18 53.86 33.20 57.91 38.48 61.51 C 45.96 66.28 56.29 65.71 63.32 60.33 C 67.85 56.91 72.52 53.63 77.66 51.16 C 78.06 53.11 78.48 55.05 78.94 56.99 C 76.44 56.47 73.93 56.02 71.40 55.64 C 71.48 59.71 72.84 63.57 74.59 67.20 C 71.14 64.79 67.35 62.77 63.10 62.38 C 62.92 66.73 63.42 71.06 64.13 75.35 C 61.54 72.08 58.84 68.89 55.70 66.13 C 52.54 68.83 51.05 72.73 50.00 76.63 C 48.95 72.73 47.46 68.83 44.30 66.13 C 41.16 68.88 38.46 72.08 35.87 75.34 C 36.58 71.06 37.08 66.73 36.90 62.38 C 32.64 62.78 28.85 64.79 25.41 67.20 C 27.16 63.57 28.52 59.71 28.59 55.64 C 26.07 56.02 23.56 56.47 21.06 56.99 C 21.52 55.06 21.94 53.11 22.34 51.16 Z" />
</svg>
