<?xml version="1.0" encoding="UTF-8" ?>
<!DOCTYPE svg PUBLIC "-//W3C//DTD SVG 1.1//EN" "http://www.w3.org/Graphics/SVG/1.1/DTD/svg11.dtd">
<svg width="100pt" height="100pt" viewBox="0 0 100 100" version="1.1" xmlns="http://www.w3.org/2000/svg">
<path fill="#b8bdbd" opacity="1.00" d=" M 25.23 15.56 C 36.50 15.17 47.83 16.20 59.06 14.76 C 63.75 14.18 68.39 15.22 73.04 15.68 C 75.12 19.62 78.82 22.63 79.98 27.04 C 81.53 32.29 81.39 37.89 83.16 43.09 C 84.84 48.17 86.69 53.20 88.68 58.17 C 75.53 66.96 62.48 75.88 49.35 84.69 C 36.40 75.75 23.26 67.09 10.29 58.17 C 15.42 44.02 20.30 29.78 25.23 15.56 M 54.54 17.47 C 45.63 19.19 36.52 18.25 27.52 18.48 C 22.98 31.34 18.51 44.24 13.98 57.11 C 25.68 65.18 37.54 73.03 49.29 81.04 C 61.27 73.23 73.07 65.15 84.84 57.04 C 82.81 51.49 80.42 45.97 79.97 40.01 C 79.29 34.79 79.44 29.12 76.61 24.49 C 74.26 21.63 71.22 19.29 67.87 17.72 C 63.68 15.69 58.91 16.75 54.54 17.47 Z" />
<path fill="#b61c2e" opacity="1.00" d=" M 54.54 17.47 C 58.91 16.75 63.68 15.69 67.87 17.72 C 71.22 19.29 74.26 21.63 76.61 24.49 C 79.44 29.12 79.29 34.79 79.97 40.01 C 80.42 45.97 82.81 51.49 84.84 57.04 C 73.07 65.15 61.27 73.23 49.29 81.04 C 37.54 73.03 25.68 65.18 13.98 57.11 C 18.51 44.24 22.98 31.34 27.52 18.48 C 36.52 18.25 45.63 19.19 54.54 17.47 M 46.47 22.52 C 44.93 23.43 42.67 24.20 42.47 26.27 C 41.87 28.26 42.25 30.96 40.22 32.18 C 33.69 36.81 25.50 38.43 19.13 43.34 C 24.78 42.36 30.10 40.16 35.58 38.59 C 36.78 41.26 37.95 43.94 39.01 46.66 C 31.28 50.26 23.15 53.00 15.69 57.15 C 24.22 55.27 32.30 51.85 40.66 49.34 C 42.83 52.02 45.07 54.63 47.33 57.23 C 41.02 60.18 34.32 62.36 28.44 66.14 C 35.87 65.04 42.50 61.01 49.89 59.86 C 52.88 60.70 55.54 62.37 58.32 63.72 C 51.82 66.98 44.79 69.12 38.59 72.96 C 47.28 71.07 55.33 67.06 63.95 64.92 C 66.31 64.25 68.78 63.93 71.00 62.86 C 73.05 61.11 74.01 58.44 75.07 56.04 C 78.99 46.31 78.38 35.30 75.19 25.45 C 73.14 25.02 70.94 24.96 69.05 23.98 C 67.03 22.50 65.87 20.07 63.69 18.82 C 57.75 18.20 51.81 20.05 46.47 22.52 Z" />
<path fill="#ffffff" opacity="1.00" d=" M 46.47 22.52 C 51.81 20.05 57.75 18.20 63.69 18.82 C 65.87 20.07 67.03 22.50 69.05 23.98 C 70.94 24.96 73.14 25.02 75.19 25.45 C 78.38 35.30 78.99 46.31 75.07 56.04 C 74.01 58.44 73.05 61.11 71.00 62.86 C 68.78 63.93 66.31 64.25 63.95 64.92 C 55.33 67.06 47.28 71.07 38.59 72.96 C 44.79 69.12 51.82 66.98 58.32 63.72 C 55.54 62.37 52.88 60.70 49.89 59.86 C 42.50 61.01 35.87 65.04 28.44 66.14 C 34.32 62.36 41.02 60.18 47.33 57.23 C 45.07 54.63 42.83 52.02 40.66 49.34 C 32.30 51.85 24.22 55.27 15.69 57.15 C 23.15 53.00 31.28 50.26 39.01 46.66 C 37.95 43.94 36.78 41.26 35.58 38.59 C 30.10 40.16 24.78 42.36 19.13 43.34 C 25.50 38.43 33.69 36.81 40.22 32.18 C 42.25 30.96 41.87 28.26 42.47 26.27 C 42.67 24.20 44.93 23.43 46.47 22.52 M 53.82 23.79 C 52.79 25.95 52.36 28.35 51.26 30.48 C 49.99 32.53 47.87 33.83 46.05 35.36 C 49.04 42.09 52.68 48.79 58.39 53.62 C 61.74 56.58 65.84 58.48 69.95 60.13 C 71.83 56.44 73.61 52.66 74.50 48.60 C 76.06 42.06 75.27 35.26 73.91 28.77 C 71.38 27.93 68.61 27.35 66.63 25.43 C 64.86 24.13 63.45 21.67 60.94 22.01 C 58.48 22.04 55.96 22.53 53.82 23.79 M 42.85 25.83 C 43.21 27.65 43.57 29.48 43.94 31.31 C 45.45 30.03 47.29 29.01 48.35 27.31 C 48.78 25.81 48.82 24.24 48.98 22.70 C 46.92 23.71 44.88 24.75 42.85 25.83 M 35.65 35.99 C 37.83 41.60 40.17 47.29 44.10 51.93 C 49.33 58.49 57.07 63.64 65.71 63.61 C 61.40 60.52 56.60 58.02 52.99 54.04 C 47.33 48.18 43.92 40.64 41.16 33.08 C 39.32 34.04 37.48 35.01 35.65 35.99 Z" />
<path fill="#ad0115" opacity="1.00" d=" M 53.82 23.79 C 55.96 22.53 58.48 22.04 60.94 22.01 C 63.45 21.67 64.86 24.13 66.63 25.43 C 68.61 27.35 71.38 27.93 73.91 28.77 C 75.27 35.26 76.06 42.06 74.50 48.60 C 73.61 52.66 71.83 56.44 69.95 60.13 C 65.84 58.48 61.74 56.58 58.39 53.62 C 52.68 48.79 49.04 42.09 46.05 35.36 C 47.87 33.83 49.99 32.53 51.26 30.48 C 52.36 28.35 52.79 25.95 53.82 23.79 M 55.71 27.52 C 54.21 31.11 52.31 34.52 49.62 37.37 C 53.70 45.79 60.02 53.44 68.98 56.86 C 73.10 49.14 74.26 40.19 72.67 31.62 C 68.57 29.97 64.97 27.39 61.83 24.30 C 59.76 25.18 56.65 25.09 55.71 27.52 Z" />
<path fill="#b71e30" opacity="1.00" d=" M 42.85 25.83 C 44.88 24.75 46.92 23.71 48.98 22.70 C 48.82 24.24 48.78 25.81 48.35 27.31 C 47.29 29.01 45.45 30.03 43.94 31.31 C 43.57 29.48 43.21 27.65 42.85 25.83 Z" />
<path fill="#ffffff" opacity="1.00" d=" M 55.71 27.52 C 56.65 25.09 59.76 25.18 61.83 24.30 C 64.97 27.39 68.57 29.97 72.67 31.62 C 74.26 40.19 73.10 49.14 68.98 56.86 C 60.02 53.44 53.70 45.79 49.62 37.37 C 52.31 34.52 54.21 31.11 55.71 27.52 Z" />
<path fill="#b61c2e" opacity="1.00" d=" M 35.65 35.99 C 37.48 35.01 39.32 34.04 41.16 33.08 C 43.92 40.64 47.33 48.18 52.99 54.04 C 56.60 58.02 61.40 60.52 65.71 63.61 C 57.07 63.64 49.33 58.49 44.10 51.93 C 40.17 47.29 37.83 41.60 35.65 35.99 Z" />
</svg>
