<?xml version="1.0" encoding="UTF-8" ?>
<!DOCTYPE svg PUBLIC "-//W3C//DTD SVG 1.1//EN" "http://www.w3.org/Graphics/SVG/1.1/DTD/svg11.dtd">
<svg width="100pt" height="100pt" viewBox="0 0 100 100" version="1.1" xmlns="http://www.w3.org/2000/svg">
<path fill="#b8bbba" opacity="1.00" d=" M 12.24 17.53 C 33.54 17.47 54.85 17.49 76.15 17.52 C 76.14 25.73 76.23 33.93 76.07 42.13 C 81.20 44.55 87.10 46.82 89.90 52.13 C 91.00 54.31 92.25 57.14 90.61 59.39 C 87.16 64.75 81.54 68.12 76.18 71.30 C 76.15 74.75 76.15 78.19 76.13 81.63 C 55.03 81.58 33.93 81.62 12.83 81.61 C 12.44 78.25 10.57 75.57 7.78 73.76 C 9.27 73.46 10.77 73.16 12.27 72.86 C 12.27 54.42 12.32 35.98 12.24 17.53 M 16.09 21.33 C 15.74 38.47 16.04 55.62 16.02 72.77 C 14.29 73.42 12.56 74.06 10.83 74.72 C 15.17 77.14 19.99 78.66 25.00 78.38 C 40.89 78.12 56.77 78.30 72.66 78.09 C 72.81 75.78 72.96 73.48 73.11 71.18 C 78.10 68.39 83.65 65.81 86.89 60.87 C 88.66 58.27 88.92 54.60 86.93 52.05 C 83.54 47.58 77.93 45.82 72.99 43.66 C 72.77 36.22 72.80 28.77 72.83 21.33 C 53.91 21.39 35.00 21.39 16.09 21.33 Z" />
<path fill="#b61c2e" opacity="1.00" d=" M 16.09 21.33 C 35.00 21.39 53.91 21.39 72.83 21.33 C 72.80 28.77 72.77 36.22 72.99 43.66 C 77.93 45.82 83.54 47.58 86.93 52.05 C 88.92 54.60 88.66 58.27 86.89 60.87 C 83.65 65.81 78.10 68.39 73.11 71.18 C 72.96 73.48 72.81 75.78 72.66 78.09 C 56.77 78.30 40.89 78.12 25.00 78.38 C 19.99 78.66 15.17 77.14 10.83 74.72 C 12.56 74.06 14.29 73.42 16.02 72.77 C 16.04 55.62 15.74 38.47 16.09 21.33 M 31.37 25.93 C 30.90 27.90 30.42 29.86 29.92 31.82 C 27.08 32.45 24.24 33.07 21.41 33.75 C 21.77 43.31 24.00 53.21 30.26 60.72 C 34.08 65.83 39.86 69.03 46.12 70.03 C 36.02 72.15 25.79 73.52 15.59 75.00 C 33.40 76.94 51.86 75.81 68.85 69.83 C 74.88 67.44 81.51 64.70 85.06 58.96 C 86.64 56.52 85.44 53.40 83.29 51.75 C 78.15 47.53 71.49 45.90 65.17 44.33 C 67.84 46.85 71.26 48.78 73.03 52.11 C 74.62 55.57 72.05 59.27 69.33 61.30 C 64.10 65.06 57.74 66.73 51.63 68.48 C 54.71 64.53 57.99 60.64 59.95 55.98 C 62.85 49.56 63.55 42.44 63.55 35.47 C 61.97 34.70 60.33 34.02 58.85 33.07 C 55.94 31.20 56.33 26.23 52.62 25.41 C 45.68 23.41 38.29 24.34 31.37 25.93 Z" />
<path fill="#ffffff" opacity="1.00" d=" M 31.37 25.93 C 38.29 24.34 45.68 23.41 52.62 25.41 C 56.33 26.23 55.94 31.20 58.85 33.07 C 60.33 34.02 61.97 34.70 63.55 35.47 C 63.55 42.44 62.85 49.56 59.95 55.98 C 57.99 60.64 54.71 64.53 51.63 68.48 C 57.74 66.73 64.10 65.06 69.33 61.30 C 72.05 59.27 74.62 55.57 73.03 52.11 C 71.26 48.78 67.84 46.85 65.17 44.33 C 71.49 45.90 78.15 47.53 83.29 51.75 C 85.44 53.40 86.64 56.52 85.06 58.96 C 81.51 64.70 74.88 67.44 68.85 69.83 C 51.86 75.81 33.40 76.94 15.59 75.00 C 25.79 73.52 36.02 72.15 46.12 70.03 C 39.86 69.03 34.08 65.83 30.26 60.72 C 24.00 53.21 21.77 43.31 21.41 33.75 C 24.24 33.07 27.08 32.45 29.92 31.82 C 30.42 29.86 30.90 27.90 31.37 25.93 M 31.84 26.81 C 31.76 28.72 31.69 30.62 31.63 32.53 C 35.05 31.54 38.07 29.55 38.94 25.88 C 36.57 26.15 34.20 26.48 31.84 26.81 M 38.68 33.59 C 36.88 35.04 34.74 35.95 32.87 37.29 C 33.63 48.76 39.13 60.20 48.91 66.63 C 51.98 63.40 55.03 60.04 57.01 56.01 C 59.83 50.56 60.76 44.41 61.38 38.38 C 58.33 36.54 55.54 34.22 53.84 31.03 C 51.96 27.22 46.93 27.36 43.32 27.86 C 41.64 29.66 40.57 31.98 38.68 33.59 M 22.55 34.18 C 22.81 42.39 24.66 50.76 29.37 57.62 C 32.72 62.78 37.73 66.85 43.64 68.70 C 40.54 64.69 36.80 61.15 34.39 56.64 C 30.37 49.54 29.09 41.34 28.44 33.32 C 26.48 33.60 24.51 33.88 22.55 34.18 Z" />
<path fill="#b51a2c" opacity="1.00" d=" M 31.84 26.81 C 34.20 26.48 36.57 26.15 38.94 25.88 C 38.07 29.55 35.05 31.54 31.63 32.53 C 31.69 30.62 31.76 28.72 31.84 26.81 Z" />
<path fill="#ac0012" opacity="1.00" d=" M 38.68 33.59 C 40.57 31.98 41.64 29.66 43.32 27.86 C 46.93 27.36 51.96 27.22 53.84 31.03 C 55.54 34.22 58.33 36.54 61.38 38.38 C 60.76 44.41 59.83 50.56 57.01 56.01 C 55.03 60.04 51.98 63.40 48.91 66.63 C 39.13 60.20 33.63 48.76 32.87 37.29 C 34.74 35.95 36.88 35.04 38.68 33.59 M 44.09 31.86 C 41.65 34.89 38.90 37.65 35.55 39.68 C 37.04 48.85 41.28 57.71 48.88 63.34 C 54.37 57.58 58.58 50.17 58.91 42.07 C 59.11 39.90 56.97 38.67 55.83 37.13 C 53.75 35.11 52.33 32.31 49.73 30.90 C 47.88 30.47 45.32 29.98 44.09 31.86 Z" />
<path fill="#ffffff" opacity="1.00" d=" M 44.09 31.86 C 45.32 29.98 47.88 30.47 49.73 30.90 C 52.33 32.31 53.75 35.11 55.83 37.13 C 56.97 38.67 59.11 39.90 58.91 42.07 C 58.58 50.17 54.37 57.58 48.88 63.34 C 41.28 57.71 37.04 48.85 35.55 39.68 C 38.90 37.65 41.65 34.89 44.09 31.86 Z" />
<path fill="#b61c2e" opacity="1.00" d=" M 22.55 34.18 C 24.51 33.88 26.48 33.60 28.44 33.32 C 29.09 41.34 30.37 49.54 34.39 56.64 C 36.80 61.15 40.54 64.69 43.64 68.70 C 37.73 66.85 32.72 62.78 29.37 57.62 C 24.66 50.76 22.81 42.39 22.55 34.18 Z" />
</svg>
