<?xml version="1.0" encoding="UTF-8" ?>
<!DOCTYPE svg PUBLIC "-//W3C//DTD SVG 1.1//EN" "http://www.w3.org/Graphics/SVG/1.1/DTD/svg11.dtd">
<svg width="100pt" height="100pt" viewBox="0 0 100 100" version="1.1" xmlns="http://www.w3.org/2000/svg">
<path fill="#bac1bc" opacity="1.00" d=" M 12.35 57.05 C 17.51 43.66 21.84 29.97 26.77 16.50 C 41.88 16.53 57.00 16.48 72.11 16.53 C 76.94 30.03 81.41 43.66 86.44 57.08 C 74.04 65.40 61.77 73.90 49.28 82.08 C 37.03 73.65 24.65 65.41 12.35 57.05 M 28.70 19.58 C 24.54 31.73 20.14 43.79 15.97 55.94 C 25.25 62.83 35.13 68.86 44.51 75.60 C 46.42 76.56 48.53 79.01 50.80 77.67 C 53.59 76.31 56.05 74.37 58.62 72.62 C 66.62 66.96 74.93 61.76 82.86 56.00 C 78.49 43.80 74.58 31.44 69.80 19.39 C 56.10 19.53 42.40 19.19 28.70 19.58 Z" />
<path fill="#8a1b6c" opacity="1.00" d=" M 28.70 19.58 C 42.40 19.19 56.10 19.53 69.80 19.39 C 74.58 31.44 78.49 43.80 82.86 56.00 C 74.93 61.76 66.62 66.96 58.62 72.62 C 56.05 74.37 53.59 76.31 50.80 77.67 C 48.53 79.01 46.42 76.56 44.51 75.60 C 35.13 68.86 25.25 62.83 15.97 55.94 C 20.14 43.79 24.54 31.73 28.70 19.58 M 43.06 23.74 C 39.01 23.63 38.45 28.88 34.98 29.97 C 32.62 30.71 30.15 30.92 27.72 31.30 C 27.06 39.75 30.14 47.83 33.83 55.26 C 34.86 57.41 36.76 58.93 38.83 60.01 C 41.13 64.01 44.46 67.90 49.16 68.96 C 51.84 69.05 54.45 67.46 56.09 65.41 C 59.90 62.88 63.39 59.70 65.59 55.65 C 69.45 48.19 72.47 40.04 72.05 31.51 C 69.20 30.99 66.17 30.91 63.54 29.58 C 61.85 28.11 60.86 26.02 59.35 24.38 C 54.07 22.99 48.46 23.19 43.06 23.74 M 72.62 41.60 C 74.03 42.48 75.45 43.35 76.86 44.23 C 76.50 43.16 76.14 42.10 75.77 41.03 C 74.98 41.17 73.41 41.45 72.62 41.60 M 20.30 47.09 C 22.55 46.53 24.78 45.87 26.98 45.16 C 26.62 43.86 26.26 42.57 25.89 41.28 C 23.62 42.79 21.64 44.69 20.30 47.09 M 72.42 45.51 C 71.69 47.29 70.96 49.07 70.22 50.85 C 73.12 52.86 76.02 54.87 78.89 56.90 C 79.52 56.48 80.77 55.63 81.39 55.20 C 78.90 52.44 75.84 50.30 72.69 48.35 C 74.97 48.45 77.25 48.62 79.54 48.57 C 77.22 47.43 74.84 46.43 72.42 45.51 M 19.61 51.54 C 18.69 52.89 18.10 54.41 17.41 55.88 C 21.09 54.53 24.63 52.83 28.13 51.07 C 28.15 50.22 28.19 48.53 28.21 47.68 C 25.31 48.86 22.10 49.56 19.61 51.54 M 20.36 57.83 C 23.70 58.64 26.53 56.65 28.59 54.22 C 25.70 55.05 22.93 56.27 20.36 57.83 M 66.16 58.87 C 67.50 60.08 68.84 61.29 70.18 62.51 C 71.55 61.69 72.92 60.86 74.28 60.03 C 72.50 58.30 70.71 56.57 68.92 54.85 C 68.00 56.19 67.08 57.53 66.16 58.87 M 23.83 59.45 C 26.15 61.10 28.51 62.70 30.88 64.29 C 32.27 63.20 33.67 62.10 35.06 61.01 C 34.00 59.63 32.94 58.24 31.88 56.86 C 29.19 57.70 26.51 58.57 23.83 59.45 M 58.28 70.23 C 60.77 68.91 63.18 67.46 65.57 65.97 C 64.75 64.70 63.92 63.45 63.08 62.20 C 60.79 64.41 58.81 66.99 58.28 70.23 M 39.02 65.20 C 38.43 66.37 37.80 67.51 37.13 68.64 C 39.80 70.39 42.45 72.16 45.12 73.91 C 45.35 72.46 45.57 71.02 45.80 69.58 C 43.51 68.15 41.26 66.68 39.02 65.20 M 51.14 71.26 C 51.21 72.52 51.28 73.78 51.35 75.04 C 52.21 74.60 53.08 74.16 53.95 73.73 C 54.08 72.13 54.21 70.52 54.33 68.92 C 53.27 69.70 52.21 70.48 51.14 71.26 Z" />
<path fill="#ffffff" opacity="1.00" d=" M 43.06 23.74 C 48.46 23.19 54.07 22.99 59.35 24.38 C 60.86 26.02 61.85 28.11 63.54 29.58 C 66.17 30.91 69.20 30.99 72.05 31.51 C 72.47 40.04 69.45 48.19 65.59 55.65 C 63.39 59.70 59.90 62.88 56.09 65.41 C 56.96 64.19 57.79 62.95 58.62 61.72 C 55.57 62.83 52.67 64.80 49.34 64.86 C 45.50 64.14 42.26 61.75 38.83 60.01 C 36.76 58.93 34.86 57.41 33.83 55.26 C 30.14 47.83 27.06 39.75 27.72 31.30 C 30.15 30.92 32.62 30.71 34.98 29.97 C 38.45 28.88 39.01 23.63 43.06 23.74 M 40.06 30.13 C 37.67 32.67 34.11 33.35 30.94 34.41 C 31.59 38.86 32.39 43.40 34.65 47.35 C 37.94 53.65 43.66 58.21 49.82 61.53 C 53.40 59.29 57.07 57.09 60.01 54.02 C 65.25 48.95 67.80 41.87 68.85 34.79 C 64.93 33.54 60.94 32.03 58.24 28.76 C 55.27 25.13 50.02 26.26 45.93 26.33 C 43.28 26.20 41.79 28.56 40.06 30.13 Z" />
<path fill="#7d025d" opacity="1.00" d=" M 40.06 30.13 C 41.79 28.56 43.28 26.20 45.93 26.33 C 50.02 26.26 55.27 25.13 58.24 28.76 C 60.94 32.03 64.93 33.54 68.85 34.79 C 67.80 41.87 65.25 48.95 60.01 54.02 C 57.07 57.09 53.40 59.29 49.82 61.53 C 43.66 58.21 37.94 53.65 34.65 47.35 C 32.39 43.40 31.59 38.86 30.94 34.41 C 34.11 33.35 37.67 32.67 40.06 30.13 M 43.69 30.72 C 40.89 33.27 37.54 35.08 34.07 36.56 C 35.12 40.63 36.26 44.79 38.70 48.27 C 41.48 52.50 45.63 55.54 49.84 58.22 C 53.80 55.48 57.89 52.67 60.65 48.64 C 63.18 45.17 64.43 41.01 65.66 36.95 C 62.28 35.27 58.99 33.39 56.18 30.84 C 52.93 27.62 46.98 27.50 43.69 30.72 Z" />
<path fill="#ffffff" opacity="1.00" d=" M 43.69 30.72 C 46.98 27.50 52.93 27.62 56.18 30.84 C 58.99 33.39 62.28 35.27 65.66 36.95 C 64.43 41.01 63.18 45.17 60.65 48.64 C 57.89 52.67 53.80 55.48 49.84 58.22 C 45.63 55.54 41.48 52.50 38.70 48.27 C 36.26 44.79 35.12 40.63 34.07 36.56 C 37.54 35.08 40.89 33.27 43.69 30.72 Z" />
<path fill="#ffffff" opacity="1.00" d=" M 72.62 41.60 C 73.41 41.45 74.98 41.17 75.77 41.03 C 76.14 42.10 76.50 43.16 76.86 44.23 C 75.45 43.35 74.03 42.48 72.62 41.60 Z" />
<path fill="#ffffff" opacity="1.00" d=" M 20.30 47.09 C 21.64 44.69 23.62 42.79 25.89 41.28 C 26.26 42.57 26.62 43.86 26.98 45.16 C 24.78 45.87 22.55 46.53 20.30 47.09 Z" />
<path fill="#ffffff" opacity="1.00" d=" M 72.42 45.51 C 74.84 46.43 77.22 47.43 79.54 48.57 C 77.25 48.62 74.97 48.45 72.69 48.35 C 75.84 50.30 78.90 52.44 81.39 55.20 C 80.77 55.63 79.52 56.48 78.89 56.90 C 76.02 54.87 73.12 52.86 70.22 50.85 C 70.96 49.07 71.69 47.29 72.42 45.51 Z" />
<path fill="#ffffff" opacity="1.00" d=" M 19.61 51.54 C 22.10 49.56 25.31 48.86 28.21 47.68 C 28.19 48.53 28.15 50.22 28.13 51.07 C 24.63 52.83 21.09 54.53 17.41 55.88 C 18.10 54.41 18.69 52.89 19.61 51.54 Z" />
<path fill="#ffffff" opacity="1.00" d=" M 20.36 57.83 C 22.93 56.27 25.70 55.05 28.59 54.22 C 26.53 56.65 23.70 58.64 20.36 57.83 Z" />
<path fill="#ffffff" opacity="1.00" d=" M 66.16 58.87 C 67.08 57.53 68.00 56.19 68.92 54.85 C 70.71 56.57 72.50 58.30 74.28 60.03 C 72.92 60.86 71.55 61.69 70.18 62.51 C 68.84 61.29 67.50 60.08 66.16 58.87 Z" />
<path fill="#ffffff" opacity="1.00" d=" M 23.83 59.45 C 26.51 58.57 29.19 57.70 31.88 56.86 C 32.94 58.24 34.00 59.63 35.06 61.01 C 33.67 62.10 32.27 63.20 30.88 64.29 C 28.51 62.70 26.15 61.10 23.83 59.45 Z" />
<path fill="#ac6596" opacity="1.00" d=" M 38.83 60.01 C 42.26 61.75 45.50 64.14 49.34 64.86 C 52.67 64.80 55.57 62.83 58.62 61.72 C 57.79 62.95 56.96 64.19 56.09 65.41 C 54.45 67.46 51.84 69.05 49.16 68.96 C 44.46 67.90 41.13 64.01 38.83 60.01 Z" />
<path fill="#ffffff" opacity="1.00" d=" M 58.28 70.23 C 58.81 66.99 60.79 64.41 63.08 62.20 C 63.92 63.45 64.75 64.70 65.57 65.97 C 63.18 67.46 60.77 68.91 58.28 70.23 Z" />
<path fill="#ffffff" opacity="1.00" d=" M 39.02 65.20 C 41.26 66.68 43.51 68.15 45.80 69.58 C 45.57 71.02 45.35 72.46 45.12 73.91 C 42.45 72.16 39.80 70.39 37.13 68.64 C 37.80 67.51 38.43 66.37 39.02 65.20 Z" />
<path fill="#ffffff" opacity="1.00" d=" M 51.14 71.26 C 52.21 70.48 53.27 69.70 54.33 68.92 C 54.21 70.52 54.08 72.13 53.95 73.73 C 53.08 74.16 52.21 74.60 51.35 75.04 C 51.28 73.78 51.21 72.52 51.14 71.26 Z" />
</svg>
