<?xml version="1.0" encoding="UTF-8" ?>
<!DOCTYPE svg PUBLIC "-//W3C//DTD SVG 1.1//EN" "http://www.w3.org/Graphics/SVG/1.1/DTD/svg11.dtd">
<svg width="100pt" height="100pt" viewBox="0 0 100 100" version="1.1" xmlns="http://www.w3.org/2000/svg">
<path fill="#b9bbb9" opacity="1.00" d=" M 34.24 15.19 C 43.92 13.98 53.65 14.03 63.31 15.36 C 63.53 17.17 63.74 18.98 63.96 20.79 C 71.55 19.37 77.94 14.18 85.86 14.00 C 84.89 16.14 83.92 18.29 82.92 20.42 C 86.08 20.48 89.24 20.52 92.40 20.59 C 91.90 25.85 88.15 29.64 83.96 32.38 C 86.20 33.63 88.43 34.90 90.59 36.29 C 88.20 38.92 85.08 40.61 81.73 41.71 C 83.80 44.73 85.68 47.88 87.42 51.11 C 82.49 50.59 77.67 49.43 72.98 47.87 C 65.48 58.47 58.09 69.15 50.60 79.76 C 45.59 73.20 40.93 66.40 36.12 59.69 C 34.68 60.14 33.23 60.59 31.79 61.04 C 31.45 58.15 31.41 55.21 30.67 52.39 C 28.86 48.24 23.59 47.03 21.69 42.96 C 21.08 40.54 20.80 37.92 19.16 35.91 C 15.46 30.67 11.61 25.54 7.95 20.27 C 16.53 20.27 25.12 20.33 33.70 20.23 C 33.88 18.55 34.06 16.87 34.24 15.19 M 36.17 16.97 C 35.86 18.88 35.55 20.78 35.25 22.69 C 28.14 23.59 20.98 23.41 13.83 23.36 C 17.70 29.31 21.98 34.96 26.07 40.74 C 25.10 41.41 24.14 42.07 23.18 42.73 C 26.24 45.33 29.80 47.44 32.33 50.61 C 33.34 52.90 33.06 55.51 33.38 57.95 C 34.87 57.65 36.35 57.36 37.84 57.09 C 42.08 62.90 46.03 68.94 50.67 74.46 C 57.96 64.99 63.57 54.21 72.18 45.80 C 76.13 46.95 80.10 48.06 84.12 48.94 C 82.29 46.02 80.34 43.18 78.31 40.40 C 81.13 39.62 84.02 38.97 86.68 37.72 C 86.77 34.90 82.82 34.15 81.00 32.45 C 84.36 29.83 87.55 27.00 90.43 23.85 C 86.90 23.21 83.34 22.72 79.78 22.28 C 80.70 20.19 81.61 18.09 82.47 15.97 C 75.63 17.98 69.58 22.11 62.51 23.41 C 62.16 21.30 61.82 19.19 61.48 17.08 C 53.09 15.89 44.57 15.79 36.17 16.97 Z" />
<path fill="#941271" opacity="1.00" d=" M 36.17 16.97 C 44.57 15.79 53.09 15.89 61.48 17.08 C 61.82 19.19 62.16 21.30 62.51 23.41 C 69.58 22.11 75.63 17.98 82.47 15.97 C 81.61 18.09 80.70 20.19 79.78 22.28 C 83.34 22.72 86.90 23.21 90.43 23.85 C 87.55 27.00 84.36 29.83 81.00 32.45 C 82.82 34.15 86.77 34.90 86.68 37.72 C 84.02 38.97 81.13 39.62 78.31 40.40 C 80.34 43.18 82.29 46.02 84.12 48.94 C 80.10 48.06 76.13 46.95 72.18 45.80 C 63.57 54.21 57.96 64.99 50.67 74.46 C 46.03 68.94 42.08 62.90 37.84 57.09 C 36.35 57.36 34.87 57.65 33.38 57.95 C 33.06 55.51 33.34 52.90 32.33 50.61 C 29.80 47.44 26.24 45.33 23.18 42.73 C 24.14 42.07 25.10 41.41 26.07 40.74 C 21.98 34.96 17.70 29.31 13.83 23.36 C 20.98 23.41 28.14 23.59 35.25 22.69 C 35.55 20.78 35.86 18.88 36.17 16.97 M 38.65 19.09 C 37.91 20.86 37.42 22.80 36.21 24.33 C 33.56 25.63 30.51 25.60 27.64 26.04 C 27.59 31.68 28.35 37.30 30.12 42.66 C 29.20 42.94 27.36 43.50 26.45 43.78 C 29.10 45.02 31.81 46.14 34.59 47.05 C 32.41 41.07 30.13 35.02 29.95 28.56 C 32.00 28.07 34.10 27.71 36.07 26.93 C 38.73 25.77 39.86 22.66 42.36 21.34 C 46.64 20.38 51.28 20.28 55.49 21.58 C 57.85 23.50 59.42 26.44 62.39 27.55 C 64.54 28.39 66.72 29.36 69.05 29.59 C 72.48 28.92 75.45 26.89 78.45 25.20 C 76.30 25.41 74.16 25.69 72.03 25.95 C 74.54 23.64 77.06 21.33 79.37 18.81 C 74.43 20.79 70.10 24.20 64.94 25.59 C 61.02 26.14 59.79 21.87 58.58 19.05 C 51.96 18.24 45.27 18.17 38.65 19.09 M 40.45 26.46 C 38.20 28.71 35.17 29.80 32.30 30.99 C 32.99 35.46 34.20 39.83 35.96 43.99 C 39.70 42.46 43.72 41.90 47.72 42.48 C 49.28 40.78 50.81 39.06 52.42 37.42 C 55.76 33.86 60.71 32.71 65.06 30.87 C 62.03 29.82 58.89 28.72 56.67 26.30 C 52.73 21.64 44.33 21.80 40.45 26.46 M 74.49 30.22 C 79.42 30.36 83.93 28.17 87.27 24.63 C 82.69 25.65 78.36 27.58 74.49 30.22 M 60.55 35.34 C 63.44 35.56 66.42 36.04 69.28 35.43 C 69.97 34.08 70.25 32.58 70.66 31.13 C 67.21 32.33 63.82 33.70 60.55 35.34 M 71.21 35.08 C 67.41 39.01 66.20 44.59 62.83 48.81 C 59.29 53.62 54.07 56.70 48.89 59.46 C 44.51 56.46 40.62 52.83 37.11 48.87 C 36.12 50.86 35.21 52.88 34.33 54.92 C 35.40 54.35 36.48 53.77 37.55 53.19 C 41.05 56.33 44.33 60.22 48.94 61.65 C 58.78 58.88 64.88 50.13 71.06 42.65 C 74.14 43.95 77.24 45.23 80.39 46.35 C 78.25 43.88 75.97 41.56 73.70 39.21 C 76.34 38.51 78.98 37.83 81.58 37.01 C 79.04 36.87 76.50 36.82 73.96 36.79 C 75.86 35.62 77.74 34.43 79.57 33.16 C 76.80 33.50 73.11 32.45 71.21 35.08 M 51.00 44.07 C 49.76 45.56 47.61 45.09 45.92 45.42 C 43.50 45.43 41.38 46.70 39.30 47.79 C 42.14 51.25 45.48 54.26 49.07 56.93 C 53.13 54.52 57.34 52.11 60.40 48.41 C 63.08 45.31 64.69 41.49 66.21 37.72 C 63.47 38.05 60.72 38.30 58.00 38.76 C 54.92 39.26 53.14 42.12 51.00 44.07 Z" />
<path fill="#ffffff" opacity="1.00" d=" M 38.65 19.09 C 45.27 18.17 51.96 18.24 58.58 19.05 C 59.79 21.87 61.02 26.14 64.94 25.59 C 70.10 24.20 74.43 20.79 79.37 18.81 C 77.06 21.33 74.54 23.64 72.03 25.95 C 74.16 25.69 76.30 25.41 78.45 25.20 C 75.45 26.89 72.48 28.92 69.05 29.59 C 66.72 29.36 64.54 28.39 62.39 27.55 C 59.42 26.44 57.85 23.50 55.49 21.58 C 51.28 20.28 46.64 20.38 42.36 21.34 C 39.86 22.66 38.73 25.77 36.07 26.93 C 34.10 27.71 32.00 28.07 29.95 28.56 C 30.13 35.02 32.41 41.07 34.59 47.05 C 31.81 46.14 29.10 45.02 26.45 43.78 C 27.36 43.50 29.20 42.94 30.12 42.66 C 28.35 37.30 27.59 31.68 27.64 26.04 C 30.51 25.60 33.56 25.63 36.21 24.33 C 37.42 22.80 37.91 20.86 38.65 19.09 Z" />
<path fill="#ffffff" opacity="1.00" d=" M 40.45 26.46 C 44.33 21.80 52.73 21.64 56.67 26.30 C 58.89 28.72 62.03 29.82 65.06 30.87 C 60.71 32.71 55.76 33.86 52.42 37.42 C 50.81 39.06 49.28 40.78 47.72 42.48 C 43.72 41.90 39.70 42.46 35.96 43.99 C 34.20 39.83 32.99 35.46 32.30 30.99 C 35.17 29.80 38.20 28.71 40.45 26.46 Z" />
<path fill="#ffffff" opacity="1.00" d=" M 74.49 30.22 C 78.36 27.58 82.69 25.65 87.27 24.63 C 83.93 28.17 79.42 30.36 74.49 30.22 Z" />
<path fill="#ffffff" opacity="1.00" d=" M 60.55 35.34 C 63.82 33.70 67.21 32.33 70.66 31.13 C 70.25 32.58 69.97 34.08 69.28 35.43 C 66.42 36.04 63.44 35.56 60.55 35.34 Z" />
<path fill="#ffffff" opacity="1.00" d=" M 71.21 35.08 C 73.11 32.45 76.80 33.50 79.57 33.16 C 77.74 34.43 75.86 35.62 73.96 36.79 C 76.50 36.82 79.04 36.87 81.58 37.01 C 78.98 37.83 76.34 38.51 73.70 39.21 C 75.97 41.56 78.25 43.88 80.39 46.35 C 77.24 45.23 74.14 43.95 71.06 42.65 C 64.88 50.13 58.78 58.88 48.94 61.65 C 44.33 60.22 41.05 56.33 37.55 53.19 C 36.48 53.77 35.40 54.35 34.33 54.92 C 35.21 52.88 36.12 50.86 37.11 48.87 C 40.62 52.83 44.51 56.46 48.89 59.46 C 54.07 56.70 59.29 53.62 62.83 48.81 C 66.20 44.59 67.41 39.01 71.21 35.08 Z" />
<path fill="#ffffff" opacity="1.00" d=" M 51.00 44.07 C 53.14 42.12 54.92 39.26 58.00 38.76 C 60.72 38.30 63.47 38.05 66.21 37.72 C 64.69 41.49 63.08 45.31 60.40 48.41 C 57.34 52.11 53.13 54.52 49.07 56.93 C 45.48 54.26 42.14 51.25 39.30 47.79 C 41.38 46.70 43.50 45.43 45.92 45.42 C 47.61 45.09 49.76 45.56 51.00 44.07 Z" />
</svg>
