<?xml version="1.0" encoding="UTF-8" ?>
<!DOCTYPE svg PUBLIC "-//W3C//DTD SVG 1.1//EN" "http://www.w3.org/Graphics/SVG/1.1/DTD/svg11.dtd">
<svg width="100pt" height="100pt" viewBox="0 0 100 100" version="1.1" xmlns="http://www.w3.org/2000/svg">
<path fill="#4ebf9b" opacity="1.00" d=" M 14.10 14.15 C 37.65 14.19 61.19 14.14 84.74 14.17 C 84.76 17.66 84.33 21.22 85.07 24.66 C 86.51 26.89 89.35 28.43 89.35 31.38 C 89.82 37.14 89.87 42.98 89.35 48.73 C 88.85 53.80 84.78 57.78 84.73 62.93 C 84.60 70.23 84.77 77.53 84.76 84.83 C 61.18 84.85 37.61 84.82 14.04 84.84 C 13.78 77.20 14.25 69.56 14.01 61.92 C 14.11 57.80 10.48 54.93 9.95 50.99 C 9.22 45.06 9.34 39.03 9.84 33.09 C 10.02 29.58 12.20 26.75 13.63 23.69 C 14.38 20.58 14.03 17.33 14.10 14.15 M 17.96 17.81 C 17.87 19.90 17.85 21.99 17.58 24.07 C 17.15 27.78 13.68 30.31 13.31 34.04 C 12.92 38.36 12.90 42.73 13.23 47.06 C 13.65 52.61 17.44 57.31 17.41 62.95 C 17.53 69.19 17.21 75.43 17.32 81.68 C 38.56 81.60 59.80 81.61 81.04 81.68 C 81.54 75.43 81.26 69.18 81.27 62.92 C 81.17 57.19 85.55 52.68 86.02 47.06 C 86.45 42.70 86.52 38.29 86.04 33.93 C 85.64 30.72 82.55 28.80 81.58 25.82 C 81.06 23.19 81.13 20.49 81.02 17.82 C 60.00 17.54 38.98 17.55 17.96 17.81 Z" />
<path fill="#babdbd" opacity="1.00" d=" M 17.96 17.81 C 38.98 17.55 60.00 17.54 81.02 17.82 C 81.13 20.49 81.06 23.19 81.58 25.82 C 82.55 28.80 85.64 30.72 86.04 33.93 C 86.52 38.29 86.45 42.70 86.02 47.06 C 85.55 52.68 81.17 57.19 81.27 62.92 C 81.26 69.18 81.54 75.43 81.04 81.68 C 59.80 81.61 38.56 81.60 17.32 81.68 C 17.21 75.43 17.53 69.19 17.41 62.95 C 17.44 57.31 13.65 52.61 13.23 47.06 C 12.90 42.73 12.92 38.36 13.31 34.04 C 13.68 30.31 17.15 27.78 17.58 24.07 C 17.85 21.99 17.87 19.90 17.96 17.81 M 21.52 21.26 C 21.40 23.44 21.42 25.65 20.94 27.79 C 20.07 30.21 17.68 31.71 16.79 34.10 C 16.16 38.37 16.29 42.75 16.67 47.04 C 17.09 52.36 21.47 56.50 21.32 61.93 C 21.44 67.46 21.21 72.99 21.31 78.52 C 40.16 78.35 59.00 78.34 77.85 78.51 C 78.20 72.65 77.91 66.78 78.01 60.92 C 77.96 55.80 82.14 51.94 82.61 46.93 C 83.11 42.15 82.65 37.34 82.57 32.55 C 81.14 31.90 79.70 31.26 78.26 30.62 C 78.13 27.49 77.98 24.37 77.81 21.26 C 59.04 21.31 40.28 21.31 21.52 21.26 Z" />
<path fill="#b61c2e" opacity="1.00" d=" M 21.52 21.26 C 40.28 21.31 59.04 21.31 77.81 21.26 C 77.98 24.37 78.13 27.49 78.26 30.62 C 79.70 31.26 81.14 31.90 82.57 32.55 C 82.65 37.34 83.11 42.15 82.61 46.93 C 82.14 51.94 77.96 55.80 78.01 60.92 C 77.91 66.78 78.20 72.65 77.85 78.51 C 59.00 78.34 40.16 78.35 21.31 78.52 C 21.21 72.99 21.44 67.46 21.32 61.93 C 21.47 56.50 17.09 52.36 16.67 47.04 C 16.29 42.75 16.16 38.37 16.79 34.10 C 17.68 31.71 20.07 30.21 20.94 27.79 C 21.42 25.65 21.40 23.44 21.52 21.26 M 29.69 32.58 C 26.26 33.32 22.72 33.25 19.24 33.39 C 19.40 39.02 18.34 44.81 19.84 50.31 C 22.61 57.40 29.93 60.98 36.30 64.26 C 33.41 64.86 30.54 65.55 27.65 66.12 C 30.66 66.40 33.68 66.65 36.70 66.95 C 35.09 68.51 33.45 70.05 31.83 71.61 C 34.77 70.55 37.83 67.78 41.05 68.88 C 42.55 71.52 43.01 74.57 43.84 77.45 C 46.85 77.38 49.87 77.34 52.89 77.35 C 53.78 74.21 54.69 71.07 55.79 67.99 C 58.54 68.94 61.28 69.94 64.02 70.91 C 62.58 69.53 61.12 68.18 59.67 66.82 C 62.87 66.63 66.08 66.49 69.28 66.29 C 66.75 65.61 64.19 65.01 61.64 64.40 C 68.31 61.00 76.06 57.62 79.26 50.32 C 81.06 45.10 79.97 39.44 80.11 34.03 C 76.66 33.81 73.16 33.86 69.77 33.05 C 66.43 32.29 64.76 28.27 61.13 28.28 C 53.75 27.67 46.29 27.52 38.90 28.04 C 35.21 28.10 33.18 31.92 29.69 32.58 Z" />
<path fill="#ffffff" opacity="1.00" d=" M 29.69 32.58 C 33.18 31.92 35.21 28.10 38.90 28.04 C 46.29 27.52 53.75 27.67 61.13 28.28 C 64.76 28.27 66.43 32.29 69.77 33.05 C 73.16 33.86 76.66 33.81 80.11 34.03 C 79.97 39.44 81.06 45.10 79.26 50.32 C 76.06 57.62 68.31 61.00 61.64 64.40 C 64.19 65.01 66.75 65.61 69.28 66.29 C 66.08 66.49 62.87 66.63 59.67 66.82 C 61.12 68.18 62.58 69.53 64.02 70.91 C 61.28 69.94 58.54 68.94 55.79 67.99 C 54.69 71.07 53.78 74.21 52.89 77.35 C 49.87 77.34 46.85 77.38 43.84 77.45 C 43.01 74.57 42.55 71.52 41.05 68.88 C 37.83 67.78 34.77 70.55 31.83 71.61 C 33.45 70.05 35.09 68.51 36.70 66.95 C 33.68 66.65 30.66 66.40 27.65 66.12 C 30.54 65.55 33.41 64.86 36.30 64.26 C 29.93 60.98 22.61 57.40 19.84 50.31 C 18.34 44.81 19.40 39.02 19.24 33.39 C 22.72 33.25 26.26 33.32 29.69 32.58 M 37.19 32.25 C 33.11 34.85 28.19 35.15 23.52 35.67 C 25.05 42.22 30.09 47.14 36.02 49.95 C 41.34 52.38 47.34 55.65 53.27 53.36 C 62.36 50.65 72.40 46.03 75.64 36.32 C 71.12 35.62 66.30 35.25 62.42 32.57 C 58.01 29.22 52.17 30.00 46.98 29.86 C 43.56 29.81 40.06 30.24 37.19 32.25 M 19.84 43.06 C 20.47 47.18 21.06 51.68 24.20 54.74 C 30.36 61.10 39.07 64.02 47.41 66.31 C 47.28 63.50 47.14 60.69 47.05 57.88 C 41.19 55.97 35.20 54.23 29.82 51.14 C 26.08 49.00 23.00 45.95 19.84 43.06 M 69.58 50.57 C 63.23 54.32 56.00 56.17 48.93 58.07 C 48.74 60.91 48.52 63.75 48.25 66.59 C 57.69 64.49 67.56 61.54 74.70 54.68 C 78.00 51.64 78.88 47.10 79.29 42.83 C 76.17 45.56 73.18 48.48 69.58 50.57 Z" />
<path fill="#b41628" opacity="1.00" d=" M 37.19 32.25 C 40.06 30.24 43.56 29.81 46.98 29.86 C 52.17 30.00 58.01 29.22 62.42 32.57 C 66.30 35.25 71.12 35.62 75.64 36.32 C 72.40 46.03 62.36 50.65 53.27 53.36 C 47.34 55.65 41.34 52.38 36.02 49.95 C 30.09 47.14 25.05 42.22 23.52 35.67 C 28.19 35.15 33.11 34.85 37.19 32.25 M 39.89 33.90 C 36.14 35.78 32.00 36.60 27.93 37.44 C 31.74 45.61 40.36 50.65 48.99 52.04 C 57.79 50.51 66.41 45.79 71.16 37.99 C 66.28 36.99 61.56 35.37 57.18 32.99 C 51.67 30.95 45.13 31.11 39.89 33.90 Z" />
<path fill="#ffffff" opacity="1.00" d=" M 39.89 33.90 C 45.13 31.11 51.67 30.95 57.18 32.99 C 61.56 35.37 66.28 36.99 71.16 37.99 C 66.41 45.79 57.79 50.51 48.99 52.04 C 40.36 50.65 31.74 45.61 27.93 37.44 C 32.00 36.60 36.14 35.78 39.89 33.90 Z" />
<path fill="#b61c2e" opacity="1.00" d=" M 19.84 43.06 C 23.00 45.95 26.08 49.00 29.82 51.14 C 35.20 54.23 41.19 55.97 47.05 57.88 C 47.14 60.69 47.28 63.50 47.41 66.31 C 39.07 64.02 30.36 61.10 24.20 54.74 C 21.06 51.68 20.47 47.18 19.84 43.06 Z" />
<path fill="#b61c2e" opacity="1.00" d=" M 69.58 50.57 C 73.18 48.48 76.17 45.56 79.29 42.83 C 78.88 47.10 78.00 51.64 74.70 54.68 C 67.56 61.54 57.69 64.49 48.25 66.59 C 48.52 63.75 48.74 60.91 48.93 58.07 C 56.00 56.17 63.23 54.32 69.58 50.57 Z" />
</svg>
