<?xml version="1.0" encoding="UTF-8" ?>
<!DOCTYPE svg PUBLIC "-//W3C//DTD SVG 1.1//EN" "http://www.w3.org/Graphics/SVG/1.1/DTD/svg11.dtd">
<svg width="100pt" height="100pt" viewBox="0 0 100 100" version="1.1" xmlns="http://www.w3.org/2000/svg">
<path fill="#bbc2bd" opacity="1.00" d=" M 28.02 16.60 C 43.10 16.41 58.18 16.60 73.26 16.50 C 75.85 22.95 77.92 29.58 80.27 36.11 C 83.60 34.73 86.87 33.23 90.28 32.05 C 89.41 33.21 88.58 34.42 87.50 35.39 C 84.35 36.44 81.21 37.49 78.12 38.69 C 75.84 32.32 73.66 25.92 71.38 19.55 C 57.67 18.93 43.95 19.28 30.22 19.38 C 27.82 25.66 25.84 32.10 23.27 38.32 C 20.41 37.13 17.55 35.95 14.66 34.83 C 16.96 37.44 19.36 39.97 21.78 42.47 C 20.48 46.92 18.99 51.30 17.51 55.69 C 22.05 60.74 26.36 66.55 33.00 68.95 C 39.42 71.22 45.26 74.73 50.77 78.68 C 54.71 75.98 58.58 73.09 62.99 71.20 C 66.88 69.44 71.08 68.19 74.48 65.51 C 78.03 62.68 80.79 59.05 83.85 55.74 C 82.45 51.11 81.09 46.47 79.59 41.89 C 79.20 41.91 78.43 41.97 78.05 42.00 L 77.23 42.08 C 80.12 40.19 83.32 38.80 86.22 36.91 C 85.16 38.95 83.80 40.84 83.01 43.01 C 83.90 47.84 86.05 52.32 87.65 56.94 C 83.92 59.39 80.68 62.44 77.70 65.74 C 72.89 70.90 65.51 71.87 59.92 75.86 C 56.88 77.90 53.87 80.00 50.84 82.07 C 45.23 78.69 40.23 74.22 34.00 71.96 C 29.72 70.31 25.57 68.03 22.50 64.54 C 20.01 61.60 17.04 59.16 13.89 56.98 C 15.62 52.05 17.35 47.11 19.05 42.16 C 15.67 38.40 12.22 34.70 8.99 30.80 C 13.14 32.25 17.17 34.02 21.17 35.85 C 23.60 29.49 25.72 23.01 28.02 16.60 Z" />
<path fill="#8a1b6c" opacity="1.00" d=" M 30.22 19.38 C 43.95 19.28 57.67 18.93 71.38 19.55 C 73.66 25.92 75.84 32.32 78.12 38.69 C 81.21 37.49 84.35 36.44 87.50 35.39 C 87.18 35.77 86.54 36.53 86.22 36.91 C 83.32 38.80 80.12 40.19 77.23 42.08 C 74.96 43.46 72.94 45.19 70.91 46.89 C 73.04 49.36 76.21 51.51 76.77 54.91 C 75.83 59.63 71.06 62.22 67.07 64.14 C 55.79 69.03 42.15 68.63 31.36 62.65 C 28.32 60.74 24.61 58.07 24.66 54.11 C 26.08 50.64 29.40 48.55 32.07 46.13 C 28.83 43.92 25.54 41.76 22.11 39.86 C 24.40 41.95 26.79 43.92 29.20 45.87 C 26.49 48.18 22.61 50.24 22.26 54.18 C 22.07 58.51 25.47 61.92 28.82 64.15 C 37.77 69.93 49.09 71.42 59.44 69.37 C 65.33 68.12 71.22 65.83 75.67 61.66 C 77.87 59.53 79.75 56.41 78.98 53.24 C 78.03 50.55 75.73 48.67 73.86 46.62 C 75.24 45.07 76.61 43.50 78.05 42.00 C 78.43 41.97 79.20 41.91 79.59 41.89 C 81.09 46.47 82.45 51.11 83.85 55.74 C 80.79 59.05 78.03 62.68 74.48 65.51 C 71.08 68.19 66.88 69.44 62.99 71.20 C 58.58 73.09 54.71 75.98 50.77 78.68 C 45.26 74.73 39.42 71.22 33.00 68.95 C 26.36 66.55 22.05 60.74 17.51 55.69 C 18.99 51.30 20.48 46.92 21.78 42.47 C 19.36 39.97 16.96 37.44 14.66 34.83 C 17.55 35.95 20.41 37.13 23.27 38.32 C 25.84 32.10 27.82 25.66 30.22 19.38 M 42.77 21.94 C 40.82 23.02 40.11 25.39 38.90 27.14 C 35.87 28.17 30.28 27.67 30.24 32.10 C 30.32 44.22 39.56 55.24 51.04 58.52 C 63.11 55.22 72.55 42.31 70.51 29.65 C 70.07 28.96 69.18 27.58 68.74 26.89 C 66.65 27.06 64.56 27.22 62.48 27.42 C 61.26 25.56 60.43 23.48 59.47 21.48 C 53.93 20.99 48.19 20.25 42.77 21.94 M 29.63 51.69 C 27.68 55.13 31.06 58.50 33.80 60.19 C 43.81 66.29 57.27 66.26 67.36 60.34 C 70.03 58.67 73.40 55.76 72.07 52.24 C 71.36 49.96 68.87 49.42 66.92 48.67 C 67.89 50.71 69.12 52.64 69.86 54.79 C 65.93 59.35 59.76 61.19 53.95 61.82 C 45.79 62.51 36.57 60.80 31.09 54.19 C 32.50 52.46 33.86 50.68 35.13 48.84 C 33.11 49.30 30.57 49.50 29.63 51.69 Z" />
<path fill="#ffffff" opacity="1.00" d=" M 42.77 21.94 C 48.19 20.25 53.93 20.99 59.47 21.48 C 60.43 23.48 61.26 25.56 62.48 27.42 C 64.35 30.05 67.69 29.68 70.51 29.65 C 72.55 42.31 63.11 55.22 51.04 58.52 C 39.56 55.24 30.32 44.22 30.24 32.10 C 30.28 27.67 35.87 28.17 38.90 27.14 C 40.11 25.39 40.82 23.02 42.77 21.94 M 41.60 23.54 C 47.31 23.52 53.04 23.00 58.74 23.64 C 58.79 23.21 58.88 22.36 58.93 21.93 C 53.14 21.59 46.99 20.82 41.60 23.54 M 43.75 26.58 C 42.76 28.27 41.97 30.16 40.50 31.50 C 38.44 32.97 35.92 33.54 33.58 34.39 C 34.84 42.51 39.73 50.04 46.93 54.11 C 48.80 55.11 51.07 56.37 53.16 55.18 C 61.50 51.29 66.68 42.57 67.89 33.64 C 65.73 33.02 63.48 32.59 61.48 31.53 C 59.51 30.22 58.27 28.10 56.48 26.58 C 52.30 25.66 47.97 26.31 43.75 26.58 M 33.72 29.25 C 33.26 30.70 35.70 31.08 36.15 29.84 C 36.60 28.39 34.17 28.02 33.72 29.25 Z" />
<path fill="#8a1b6c" opacity="1.00" d=" M 41.60 23.54 C 46.99 20.82 53.14 21.59 58.93 21.93 C 58.88 22.36 58.79 23.21 58.74 23.64 C 53.04 23.00 47.31 23.52 41.60 23.54 Z" />
<path fill="#71004c" opacity="1.00" d=" M 43.75 26.58 C 47.97 26.31 52.30 25.66 56.48 26.58 C 58.27 28.10 59.51 30.22 61.48 31.53 C 63.48 32.59 65.73 33.02 67.89 33.64 C 66.68 42.57 61.50 51.29 53.16 55.18 C 51.07 56.37 48.80 55.11 46.93 54.11 C 39.73 50.04 34.84 42.51 33.58 34.39 C 35.92 33.54 38.44 32.97 40.50 31.50 C 41.97 30.16 42.76 28.27 43.75 26.58 M 36.54 36.40 C 38.16 42.89 42.18 48.69 47.89 52.22 C 49.24 52.91 50.81 54.38 52.35 53.30 C 59.03 49.80 63.52 42.98 64.88 35.64 C 61.78 34.49 58.82 32.93 56.47 30.57 C 54.00 27.74 49.60 27.93 46.40 29.17 C 43.41 31.96 40.44 34.87 36.54 36.40 Z" />
<path fill="#b772a4" opacity="1.00" d=" M 62.48 27.42 C 64.56 27.22 66.65 27.06 68.74 26.89 C 69.18 27.58 70.07 28.96 70.51 29.65 C 67.69 29.68 64.35 30.05 62.48 27.42 Z" />
<path fill="#8e2371" opacity="1.00" d=" M 33.72 29.25 C 34.17 28.02 36.60 28.39 36.15 29.84 C 35.70 31.08 33.26 30.70 33.72 29.25 Z" />
<path fill="#ffffff" opacity="1.00" d=" M 36.54 36.40 C 40.44 34.87 43.41 31.96 46.40 29.17 C 49.60 27.93 54.00 27.74 56.47 30.57 C 58.82 32.93 61.78 34.49 64.88 35.64 C 63.52 42.98 59.03 49.80 52.35 53.30 C 50.81 54.38 49.24 52.91 47.89 52.22 C 42.18 48.69 38.16 42.89 36.54 36.40 Z" />
<path fill="#ffffff" opacity="1.00" d=" M 22.11 39.86 C 25.54 41.76 28.83 43.92 32.07 46.13 C 29.40 48.55 26.08 50.64 24.66 54.11 C 24.61 58.07 28.32 60.74 31.36 62.65 C 42.15 68.63 55.79 69.03 67.07 64.14 C 71.06 62.22 75.83 59.63 76.77 54.91 C 76.21 51.51 73.04 49.36 70.91 46.89 C 72.94 45.19 74.96 43.46 77.23 42.08 L 78.05 42.00 C 76.61 43.50 75.24 45.07 73.86 46.62 C 75.73 48.67 78.03 50.55 78.98 53.24 C 79.75 56.41 77.87 59.53 75.67 61.66 C 71.22 65.83 65.33 68.12 59.44 69.37 C 49.09 71.42 37.77 69.93 28.82 64.15 C 25.47 61.92 22.07 58.51 22.26 54.18 C 22.61 50.24 26.49 48.18 29.20 45.87 C 26.79 43.92 24.40 41.95 22.11 39.86 Z" />
<path fill="#ffffff" opacity="1.00" d=" M 29.63 51.69 C 30.57 49.50 33.11 49.30 35.13 48.84 C 33.86 50.68 32.50 52.46 31.09 54.19 C 36.57 60.80 45.79 62.51 53.95 61.82 C 59.76 61.19 65.93 59.35 69.86 54.79 C 69.12 52.64 67.89 50.71 66.92 48.67 C 68.87 49.42 71.36 49.96 72.07 52.24 C 73.40 55.76 70.03 58.67 67.36 60.34 C 57.27 66.26 43.81 66.29 33.80 60.19 C 31.06 58.50 27.68 55.13 29.63 51.69 Z" />
</svg>
