<?xml version="1.0" encoding="UTF-8" ?>
<!DOCTYPE svg PUBLIC "-//W3C//DTD SVG 1.1//EN" "http://www.w3.org/Graphics/SVG/1.1/DTD/svg11.dtd">
<svg width="100pt" height="100pt" viewBox="0 0 100 100" version="1.1" xmlns="http://www.w3.org/2000/svg">
<path fill="#b8b9b8" opacity="1.00" d=" M 44.38 20.75 C 44.13 15.86 47.58 12.06 49.99 8.17 C 52.95 11.90 56.23 15.72 56.69 20.67 C 68.81 20.70 80.94 20.61 93.07 20.72 C 78.92 41.95 64.92 63.29 50.78 84.53 C 48.96 81.90 47.32 79.15 45.41 76.58 C 43.34 73.63 39.32 73.24 36.82 70.74 C 36.33 67.68 37.74 64.19 35.57 61.56 C 26.51 47.98 17.51 34.37 8.54 20.73 C 20.49 20.63 32.43 20.62 44.38 20.75 M 46.98 17.32 C 46.96 19.65 47.75 21.89 48.19 24.16 C 36.99 24.62 25.78 23.96 14.58 24.30 C 19.96 33.17 26.17 41.50 31.87 50.17 C 34.63 54.55 38.29 58.43 40.28 63.24 C 40.12 65.45 38.89 67.39 38.10 69.42 C 40.35 71.08 43.11 71.25 45.76 70.70 C 47.40 73.06 49.01 75.44 50.61 77.83 C 56.72 69.45 62.14 60.61 68.04 52.09 C 74.04 42.79 80.54 33.81 86.26 24.33 C 75.90 24.12 65.53 24.59 55.17 24.12 C 54.56 19.55 53.18 15.06 50.13 11.50 C 49.00 13.39 47.54 15.16 46.98 17.32 Z" />
<path fill="#941271" opacity="1.00" d=" M 46.98 17.32 C 47.54 15.16 49.00 13.39 50.13 11.50 C 53.18 15.06 54.56 19.55 55.17 24.12 C 65.53 24.59 75.90 24.12 86.26 24.33 C 80.54 33.81 74.04 42.79 68.04 52.09 C 62.14 60.61 56.72 69.45 50.61 77.83 C 49.01 75.44 47.40 73.06 45.76 70.70 C 43.11 71.25 40.35 71.08 38.10 69.42 C 38.89 67.39 40.12 65.45 40.28 63.24 C 38.29 58.43 34.63 54.55 31.87 50.17 C 26.17 41.50 19.96 33.17 14.58 24.30 C 25.78 23.96 36.99 24.62 48.19 24.16 C 47.75 21.89 46.96 19.65 46.98 17.32 M 50.79 29.61 C 48.77 32.59 44.91 33.94 43.23 37.22 C 42.42 39.09 42.20 41.14 41.85 43.12 C 44.15 39.54 46.28 35.67 50.03 33.37 C 48.23 36.74 45.79 39.80 44.63 43.47 C 43.79 47.05 44.53 50.75 44.06 54.37 C 43.28 59.54 42.38 64.70 41.17 69.79 C 45.65 67.38 47.98 62.75 50.64 58.65 C 54.73 52.22 55.63 44.49 57.13 37.18 C 54.70 37.99 52.02 38.38 49.90 39.90 C 48.36 43.15 48.07 46.81 47.02 50.22 C 47.13 46.68 47.33 43.01 48.86 39.75 C 50.44 36.00 55.34 36.46 57.99 33.85 C 56.55 31.93 54.30 30.75 52.98 28.74 C 52.10 24.09 53.29 18.74 49.82 14.88 C 48.90 19.85 51.14 24.66 50.79 29.61 M 25.01 24.62 C 27.20 27.69 29.66 30.56 32.30 33.25 C 31.40 29.30 28.74 26.17 25.01 24.62 M 69.58 25.57 C 69.03 29.49 68.69 33.44 67.98 37.34 C 67.06 36.16 66.15 34.97 65.24 33.79 C 62.80 35.82 59.99 37.90 59.21 41.17 C 57.96 46.25 57.10 51.44 56.29 56.61 C 57.85 54.26 59.39 51.75 59.68 48.87 C 60.08 45.54 60.34 42.01 62.60 39.32 C 62.51 42.67 61.70 45.93 61.24 49.24 C 63.94 45.57 64.82 41.10 65.06 36.64 C 66.45 38.80 67.82 40.97 69.33 43.06 C 67.28 47.35 64.77 51.38 62.33 55.45 C 66.79 52.04 69.56 47.07 72.23 42.25 C 73.33 40.60 71.90 38.85 71.44 37.23 C 70.35 38.11 69.28 39.01 68.17 39.86 C 70.05 35.32 71.80 30.36 69.58 25.57 M 32.93 30.48 C 35.24 36.06 38.08 41.42 39.68 47.28 C 39.67 42.36 38.77 37.45 37.01 32.86 C 36.48 31.08 34.32 31.17 32.93 30.48 M 27.81 31.45 C 27.34 34.49 26.58 37.88 28.36 40.66 C 30.79 44.70 33.58 48.54 36.73 52.05 C 35.39 46.58 31.02 42.72 28.84 37.67 C 30.85 39.40 32.70 41.32 34.62 43.15 C 32.88 38.96 30.32 35.20 27.81 31.45 Z" />
<path fill="#ffffff" opacity="1.00" d=" M 50.79 29.61 C 51.14 24.66 48.90 19.85 49.82 14.88 C 53.29 18.74 52.10 24.09 52.98 28.74 C 54.30 30.75 56.55 31.93 57.99 33.85 C 55.34 36.46 50.44 36.00 48.86 39.75 C 47.33 43.01 47.13 46.68 47.02 50.22 C 48.07 46.81 48.36 43.15 49.90 39.90 C 52.02 38.38 54.70 37.99 57.13 37.18 C 55.63 44.49 54.73 52.22 50.64 58.65 C 47.98 62.75 45.65 67.38 41.17 69.79 C 42.38 64.70 43.28 59.54 44.06 54.37 C 44.53 50.75 43.79 47.05 44.63 43.47 C 45.79 39.80 48.23 36.74 50.03 33.37 C 46.28 35.67 44.15 39.54 41.85 43.12 C 42.20 41.14 42.42 39.09 43.23 37.22 C 44.91 33.94 48.77 32.59 50.79 29.61 M 44.07 59.89 C 45.83 58.15 46.77 55.87 46.99 53.43 C 45.70 55.42 44.74 57.60 44.07 59.89 Z" />
<path fill="#ffffff" opacity="1.00" d=" M 25.01 24.62 C 28.74 26.17 31.40 29.30 32.30 33.25 C 29.66 30.56 27.20 27.69 25.01 24.62 Z" />
<path fill="#ffffff" opacity="1.00" d=" M 69.58 25.57 C 71.80 30.36 70.05 35.32 68.17 39.86 C 69.28 39.01 70.35 38.11 71.44 37.23 C 71.90 38.85 73.33 40.60 72.23 42.25 C 69.56 47.07 66.79 52.04 62.33 55.45 C 64.77 51.38 67.28 47.35 69.33 43.06 C 67.82 40.97 66.45 38.80 65.06 36.64 C 64.82 41.10 63.94 45.57 61.24 49.24 C 61.70 45.93 62.51 42.67 62.60 39.32 C 60.34 42.01 60.08 45.54 59.68 48.87 C 59.39 51.75 57.85 54.26 56.29 56.61 C 57.10 51.44 57.96 46.25 59.21 41.17 C 59.99 37.90 62.80 35.82 65.24 33.79 C 66.15 34.97 67.06 36.16 67.98 37.34 C 68.69 33.44 69.03 29.49 69.58 25.57 Z" />
<path fill="#ffffff" opacity="1.00" d=" M 32.93 30.48 C 34.32 31.17 36.48 31.08 37.01 32.86 C 38.77 37.45 39.67 42.36 39.68 47.28 C 38.08 41.42 35.24 36.06 32.93 30.48 Z" />
<path fill="#ffffff" opacity="1.00" d=" M 27.81 31.45 C 30.32 35.20 32.88 38.96 34.62 43.15 C 32.70 41.32 30.85 39.40 28.84 37.67 C 31.02 42.72 35.39 46.58 36.73 52.05 C 33.58 48.54 30.79 44.70 28.36 40.66 C 26.58 37.88 27.34 34.49 27.81 31.45 Z" />
<path fill="#b869a1" opacity="1.00" d=" M 44.07 59.89 C 44.74 57.60 45.70 55.42 46.99 53.43 C 46.77 55.87 45.83 58.15 44.07 59.89 Z" />
</svg>
