<?xml version="1.0" encoding="UTF-8" ?>
<!DOCTYPE svg PUBLIC "-//W3C//DTD SVG 1.1//EN" "http://www.w3.org/Graphics/SVG/1.1/DTD/svg11.dtd">
<svg width="100pt" height="100pt" viewBox="0 0 100 100" version="1.1" xmlns="http://www.w3.org/2000/svg">
<path fill="#b9bbb9" opacity="1.00" d=" M 49.51 16.01 C 56.79 25.93 63.81 36.03 70.98 46.02 C 72.99 48.99 76.33 50.60 78.64 53.26 C 80.23 56.16 80.64 59.61 82.63 62.32 C 87.56 69.37 92.78 76.23 97.57 83.38 C 65.86 83.56 34.14 83.56 2.44 83.38 C 6.87 76.57 11.73 70.03 16.32 63.33 C 19.26 59.47 17.40 53.62 21.28 50.29 C 23.54 47.44 28.55 47.44 29.43 43.50 C 30.02 40.71 28.22 37.93 28.86 35.11 C 29.97 30.77 32.52 26.80 35.87 23.84 C 38.83 22.11 42.47 22.13 45.53 20.58 C 47.08 19.28 48.23 17.57 49.51 16.01 M 40.13 24.16 C 35.14 25.38 32.35 30.39 30.80 34.90 C 29.60 37.63 32.15 39.85 32.99 42.26 C 32.12 44.63 30.29 46.49 28.78 48.47 C 25.98 49.46 22.68 50.40 21.27 53.30 C 20.21 55.89 20.56 58.78 20.20 61.51 C 20.10 64.03 18.51 66.10 17.15 68.09 C 14.38 71.90 11.64 75.73 9.00 79.64 C 36.35 79.76 63.70 79.82 91.05 79.60 C 87.64 74.50 83.77 69.72 80.32 64.65 C 78.07 61.40 78.12 57.19 76.20 53.81 C 73.48 51.15 69.69 49.75 67.39 46.62 C 61.37 38.66 56.07 30.18 49.96 22.28 C 46.67 22.84 43.35 23.25 40.13 24.16 Z" />
<path fill="#8a1b6c" opacity="1.00" d=" M 40.13 24.16 C 43.35 23.25 46.67 22.84 49.96 22.28 C 56.07 30.18 61.37 38.66 67.39 46.62 C 69.69 49.75 73.48 51.15 76.20 53.81 C 78.12 57.19 78.07 61.40 80.32 64.65 C 83.77 69.72 87.64 74.50 91.05 79.60 C 63.70 79.82 36.35 79.76 9.00 79.64 C 11.64 75.73 14.38 71.90 17.15 68.09 C 18.51 66.10 20.10 64.03 20.20 61.51 C 20.56 58.78 20.21 55.89 21.27 53.30 C 22.68 50.40 25.98 49.46 28.78 48.47 C 30.29 46.49 32.12 44.63 32.99 42.26 C 32.15 39.85 29.60 37.63 30.80 34.90 C 32.35 30.39 35.14 25.38 40.13 24.16 M 42.55 26.44 C 38.43 26.98 35.59 30.52 34.13 34.15 C 32.76 36.84 35.29 39.32 36.29 41.68 C 39.63 48.17 46.74 50.96 52.68 54.47 C 58.87 58.36 65.10 62.45 69.90 68.05 C 66.37 60.69 60.15 55.29 53.89 50.30 C 55.06 50.32 56.23 50.33 57.40 50.34 C 54.60 47.31 51.67 44.38 48.42 41.83 C 48.30 42.51 48.05 43.85 47.93 44.52 C 47.02 45.05 46.11 45.57 45.21 46.09 C 44.12 44.43 43.00 42.77 42.17 40.96 C 44.15 38.73 47.00 37.64 49.67 36.52 C 49.99 38.13 50.31 39.75 50.62 41.37 C 52.09 39.37 54.23 37.49 54.42 34.87 C 53.67 29.54 48.00 24.88 42.55 26.44 M 34.12 44.41 C 33.43 45.89 32.68 47.34 32.16 48.89 C 29.09 59.32 37.76 68.02 37.70 78.23 C 39.20 78.20 40.69 78.17 42.19 78.13 C 41.65 73.20 39.76 68.56 37.09 64.42 C 37.14 63.99 37.26 63.15 37.31 62.72 C 39.66 65.72 42.37 68.49 44.00 71.98 C 45.06 73.99 45.66 76.28 47.13 78.06 C 48.56 78.24 49.99 78.37 51.43 78.44 C 50.32 74.66 48.89 70.84 46.10 67.94 C 42.49 64.08 38.41 60.60 35.52 56.10 C 35.77 55.72 36.27 54.95 36.52 54.57 C 39.25 60.37 45.52 62.89 50.06 66.96 C 53.54 69.94 55.42 74.21 57.21 78.31 C 59.53 78.32 61.86 78.31 64.18 78.27 C 62.06 73.57 59.57 68.85 55.53 65.52 C 51.44 61.91 46.07 60.37 41.63 57.32 C 38.66 55.29 37.05 51.96 35.22 48.98 C 34.89 47.45 34.51 45.93 34.12 44.41 M 23.29 56.85 C 22.02 62.23 26.97 65.95 30.14 69.47 C 29.35 65.05 27.34 60.93 26.98 56.43 C 28.11 57.95 29.23 59.48 30.31 61.04 C 29.72 57.70 28.96 54.39 27.96 51.14 C 26.10 52.71 23.42 54.10 23.29 56.85 M 60.18 53.74 C 62.92 57.17 66.98 58.97 70.19 61.81 C 74.62 67.18 79.71 72.00 83.37 77.97 C 82.40 73.99 79.86 70.76 77.35 67.63 C 74.56 64.28 75.65 59.59 74.22 55.73 C 70.76 51.58 64.76 51.73 60.18 53.74 M 52.00 56.83 C 55.42 60.46 59.31 63.65 62.43 67.56 C 65.18 70.94 67.23 74.80 69.72 78.36 C 68.83 73.84 68.09 68.79 64.53 65.50 C 60.78 62.05 56.42 59.32 52.00 56.83 M 22.43 68.39 C 19.66 71.98 16.56 75.28 13.53 78.65 C 16.19 78.43 18.94 78.48 21.49 77.61 C 23.32 76.11 24.66 74.15 26.12 72.32 C 24.88 71.02 23.65 69.71 22.43 68.39 M 73.31 70.53 C 73.43 73.12 73.63 75.70 73.82 78.28 C 75.50 78.25 77.17 78.21 78.85 78.15 C 77.59 75.22 75.79 72.56 73.31 70.53 M 25.61 77.83 C 28.11 77.85 30.62 77.84 33.12 77.92 C 33.00 76.37 32.88 74.83 32.76 73.28 C 29.68 73.45 27.50 75.62 25.61 77.83 Z" />
<path fill="#ffffff" opacity="1.00" d=" M 42.55 26.44 C 48.00 24.88 53.67 29.54 54.42 34.87 C 54.23 37.49 52.09 39.37 50.62 41.37 C 50.31 39.75 49.99 38.13 49.67 36.52 C 47.00 37.64 44.15 38.73 42.17 40.96 C 43.00 42.77 44.12 44.43 45.21 46.09 C 46.11 45.57 47.02 45.05 47.93 44.52 C 48.05 43.85 48.30 42.51 48.42 41.83 C 51.67 44.38 54.60 47.31 57.40 50.34 C 56.23 50.33 55.06 50.32 53.89 50.30 C 60.15 55.29 66.37 60.69 69.90 68.05 C 65.10 62.45 58.87 58.36 52.68 54.47 C 46.74 50.96 39.63 48.17 36.29 41.68 C 35.29 39.32 32.76 36.84 34.13 34.15 C 35.59 30.52 38.43 26.98 42.55 26.44 M 41.43 31.06 C 40.29 32.41 42.64 33.86 43.54 32.48 C 44.70 31.14 42.31 29.66 41.43 31.06 M 47.42 33.08 C 47.51 36.43 50.42 31.57 47.42 33.08 Z" />
<path fill="#8a1b6c" opacity="1.00" d=" M 41.43 31.06 C 42.31 29.66 44.70 31.14 43.54 32.48 C 42.64 33.86 40.29 32.41 41.43 31.06 Z" />
<path fill="#771654" opacity="1.00" d=" M 47.42 33.08 C 50.42 31.57 47.51 36.43 47.42 33.08 Z" />
<path fill="#bf82ae" opacity="1.00" d=" M 34.12 44.41 C 34.51 45.93 34.89 47.45 35.22 48.98 C 35.62 50.85 36.00 52.73 36.52 54.57 C 36.27 54.95 35.77 55.72 35.52 56.10 L 35.16 56.72 C 35.75 58.76 36.55 60.74 37.31 62.72 C 37.26 63.15 37.14 63.99 37.09 64.42 C 33.91 59.86 32.37 54.40 32.16 48.89 C 32.68 47.34 33.43 45.89 34.12 44.41 Z" />
<path fill="#ffffff" opacity="1.00" d=" M 32.16 48.89 C 32.37 54.40 33.91 59.86 37.09 64.42 C 39.76 68.56 41.65 73.20 42.19 78.13 C 40.69 78.17 39.20 78.20 37.70 78.23 C 37.76 68.02 29.09 59.32 32.16 48.89 Z" />
<path fill="#ffffff" opacity="1.00" d=" M 36.52 54.57 C 36.00 52.73 35.62 50.85 35.22 48.98 C 37.05 51.96 38.66 55.29 41.63 57.32 C 46.07 60.37 51.44 61.91 55.53 65.52 C 59.57 68.85 62.06 73.57 64.18 78.27 C 61.86 78.31 59.53 78.32 57.21 78.31 C 55.42 74.21 53.54 69.94 50.06 66.96 C 45.52 62.89 39.25 60.37 36.52 54.57 Z" />
<path fill="#ffffff" opacity="1.00" d=" M 23.29 56.85 C 23.42 54.10 26.10 52.71 27.96 51.14 C 28.96 54.39 29.72 57.70 30.31 61.04 C 29.23 59.48 28.11 57.95 26.98 56.43 C 27.34 60.93 29.35 65.05 30.14 69.47 C 26.97 65.95 22.02 62.23 23.29 56.85 Z" />
<path fill="#ffffff" opacity="1.00" d=" M 60.18 53.74 C 64.76 51.73 70.76 51.58 74.22 55.73 C 75.65 59.59 74.56 64.28 77.35 67.63 C 79.86 70.76 82.40 73.99 83.37 77.97 C 79.71 72.00 74.62 67.18 70.19 61.81 C 66.98 58.97 62.92 57.17 60.18 53.74 M 68.13 55.60 C 69.76 56.94 71.47 58.18 73.26 59.29 C 72.46 56.84 70.94 54.97 68.13 55.60 Z" />
<path fill="#8a1b6c" opacity="1.00" d=" M 68.13 55.60 C 70.94 54.97 72.46 56.84 73.26 59.29 C 71.47 58.18 69.76 56.94 68.13 55.60 Z" />
<path fill="#ffffff" opacity="1.00" d=" M 35.16 56.72 L 35.52 56.10 C 38.41 60.60 42.49 64.08 46.10 67.94 C 48.89 70.84 50.32 74.66 51.43 78.44 C 49.99 78.37 48.56 78.24 47.13 78.06 C 45.66 76.28 45.06 73.99 44.00 71.98 C 42.37 68.49 39.66 65.72 37.31 62.72 C 36.55 60.74 35.75 58.76 35.16 56.72 Z" />
<path fill="#ffffff" opacity="1.00" d=" M 52.00 56.83 C 56.42 59.32 60.78 62.05 64.53 65.50 C 68.09 68.79 68.83 73.84 69.72 78.36 C 67.23 74.80 65.18 70.94 62.43 67.56 C 59.31 63.65 55.42 60.46 52.00 56.83 Z" />
<path fill="#ffffff" opacity="1.00" d=" M 22.43 68.39 C 23.65 69.71 24.88 71.02 26.12 72.32 C 24.66 74.15 23.32 76.11 21.49 77.61 C 18.94 78.48 16.19 78.43 13.53 78.65 C 16.56 75.28 19.66 71.98 22.43 68.39 Z" />
<path fill="#ffffff" opacity="1.00" d=" M 73.31 70.53 C 75.79 72.56 77.59 75.22 78.85 78.15 C 77.17 78.21 75.50 78.25 73.82 78.28 C 73.63 75.70 73.43 73.12 73.31 70.53 Z" />
<path fill="#faf4f8" opacity="1.00" d=" M 25.61 77.83 C 27.50 75.62 29.68 73.45 32.76 73.28 C 32.88 74.83 33.00 76.37 33.12 77.92 C 30.62 77.84 28.11 77.85 25.61 77.83 Z" />
</svg>
