<?xml version="1.0" encoding="UTF-8" ?>
<!DOCTYPE svg PUBLIC "-//W3C//DTD SVG 1.1//EN" "http://www.w3.org/Graphics/SVG/1.1/DTD/svg11.dtd">
<svg width="100pt" height="100pt" viewBox="0 0 100 100" version="1.1" xmlns="http://www.w3.org/2000/svg">
<path fill="#b8baba" opacity="1.00" d=" M 39.27 21.91 C 43.84 17.46 47.07 11.92 50.86 6.84 C 53.53 10.98 56.49 14.99 58.40 19.57 C 59.33 21.57 60.03 23.73 61.41 25.49 C 68.55 25.92 75.72 25.42 82.88 25.68 C 82.78 47.56 82.84 69.43 82.85 91.31 C 61.01 91.39 39.18 91.51 17.35 91.25 C 17.43 69.45 17.40 47.65 17.34 25.85 C 19.72 25.69 22.10 25.56 24.48 25.39 C 25.26 22.53 25.79 19.57 27.01 16.86 C 29.42 15.91 32.00 15.56 34.52 15.05 C 36.08 17.35 37.66 19.64 39.27 21.91 M 38.38 25.95 C 36.59 23.33 34.80 20.72 32.98 18.12 C 31.80 18.49 30.61 18.86 29.42 19.21 C 28.60 21.74 28.02 24.39 26.69 26.72 C 25.42 28.41 23.27 29.07 21.50 30.07 C 21.17 49.27 21.46 68.47 21.32 87.68 C 40.76 87.66 60.20 87.63 79.64 87.67 C 79.57 68.22 79.62 48.77 79.64 29.32 C 72.80 29.36 65.97 29.45 59.14 29.22 C 57.06 23.17 54.51 17.25 50.83 11.98 C 47.18 17.05 43.68 22.42 38.38 25.95 Z" />
<path fill="#b61c2e" opacity="1.00" d=" M 38.38 25.95 C 43.68 22.42 47.18 17.05 50.83 11.98 C 54.51 17.25 57.06 23.17 59.14 29.22 C 65.97 29.45 72.80 29.36 79.64 29.32 C 79.62 48.77 79.57 68.22 79.64 87.67 C 60.20 87.63 40.76 87.66 21.32 87.68 C 21.46 68.47 21.17 49.27 21.50 30.07 C 23.27 29.07 25.42 28.41 26.69 26.72 C 28.02 24.39 28.60 21.74 29.42 19.21 C 30.61 18.86 31.80 18.49 32.98 18.12 C 34.80 20.72 36.59 23.33 38.38 25.95 M 37.26 29.51 C 35.44 26.87 33.69 24.20 31.91 21.54 C 29.71 28.18 25.83 34.10 23.99 40.88 C 26.25 39.48 28.56 38.14 30.99 37.04 C 32.25 43.33 35.41 48.98 37.37 55.05 C 38.69 54.96 40.01 54.77 41.33 54.60 C 40.79 51.11 40.26 47.63 39.78 44.13 C 40.62 44.00 42.28 43.73 43.11 43.59 C 45.01 46.16 46.89 48.75 48.86 51.26 C 52.47 45.75 56.15 39.77 56.45 33.00 C 56.20 27.26 53.28 22.12 50.89 17.04 C 47.33 22.14 43.15 27.05 37.26 29.51 M 57.98 57.96 C 53.87 60.68 49.14 62.82 46.25 67.00 C 52.21 65.20 57.47 61.77 63.05 59.07 C 67.63 56.60 72.53 54.73 76.93 51.93 C 79.25 50.62 77.91 47.46 78.34 45.31 C 71.25 49.02 64.76 53.73 57.98 57.96 M 38.32 60.59 C 40.57 68.31 41.92 76.25 44.07 83.99 C 44.26 86.06 46.64 86.02 48.11 86.75 C 47.47 82.03 46.21 77.44 45.08 72.83 C 43.61 67.09 43.85 60.87 40.93 55.55 C 37.86 54.37 37.51 58.59 38.32 60.59 M 51.14 80.25 C 51.08 81.06 50.97 82.70 50.91 83.52 C 60.23 78.70 69.26 73.36 78.37 68.17 C 78.30 66.58 78.22 64.99 78.14 63.41 C 68.96 68.74 60.15 74.65 51.14 80.25 M 21.82 82.31 C 27.95 80.03 33.12 75.93 38.69 72.61 C 38.48 71.69 38.27 70.76 38.06 69.84 C 32.51 73.79 26.38 77.15 21.82 82.31 Z" />
<path fill="#ffffff" opacity="1.00" d=" M 37.26 29.51 C 43.15 27.05 47.33 22.14 50.89 17.04 C 53.28 22.12 56.20 27.26 56.45 33.00 C 56.15 39.77 52.47 45.75 48.86 51.26 C 46.89 48.75 45.01 46.16 43.11 43.59 C 42.28 43.73 40.62 44.00 39.78 44.13 C 40.26 47.63 40.79 51.11 41.33 54.60 C 40.01 54.77 38.69 54.96 37.37 55.05 C 35.41 48.98 32.25 43.33 30.99 37.04 C 28.56 38.14 26.25 39.48 23.99 40.88 C 25.83 34.10 29.71 28.18 31.91 21.54 C 33.69 24.20 35.44 26.87 37.26 29.51 Z" />
<path fill="#ffffff" opacity="1.00" d=" M 57.98 57.96 C 64.76 53.73 71.25 49.02 78.34 45.31 C 77.91 47.46 79.25 50.62 76.93 51.93 C 72.53 54.73 67.63 56.60 63.05 59.07 C 57.47 61.77 52.21 65.20 46.25 67.00 C 49.14 62.82 53.87 60.68 57.98 57.96 Z" />
<path fill="#ffffff" opacity="1.00" d=" M 38.32 60.59 C 37.51 58.59 37.86 54.37 40.93 55.55 C 43.85 60.87 43.61 67.09 45.08 72.83 C 46.21 77.44 47.47 82.03 48.11 86.75 C 46.64 86.02 44.26 86.06 44.07 83.99 C 41.92 76.25 40.57 68.31 38.32 60.59 Z" />
<path fill="#ffffff" opacity="1.00" d=" M 51.14 80.25 C 60.15 74.65 68.96 68.74 78.14 63.41 C 78.22 64.99 78.30 66.58 78.37 68.17 C 69.26 73.36 60.23 78.70 50.91 83.52 C 50.97 82.70 51.08 81.06 51.14 80.25 Z" />
<path fill="#ffffff" opacity="1.00" d=" M 21.82 82.31 C 26.38 77.15 32.51 73.79 38.06 69.84 C 38.27 70.76 38.48 71.69 38.69 72.61 C 33.12 75.93 27.95 80.03 21.82 82.31 Z" />
</svg>
