<?xml version="1.0" encoding="UTF-8" ?>
<!DOCTYPE svg PUBLIC "-//W3C//DTD SVG 1.1//EN" "http://www.w3.org/Graphics/SVG/1.1/DTD/svg11.dtd">
<svg width="100pt" height="100pt" viewBox="0 0 100 100" version="1.1" xmlns="http://www.w3.org/2000/svg">
<path fill="#b7c0bf" opacity="1.00" d=" M 45.02 21.28 C 47.38 16.64 49.76 12.01 52.13 7.38 C 54.41 12.01 56.67 16.65 58.92 21.29 C 66.25 21.28 73.59 21.32 80.92 21.25 C 80.95 41.66 80.92 62.07 80.94 82.48 C 72.99 82.50 65.05 82.51 57.10 82.47 C 57.71 84.56 58.33 86.66 58.93 88.76 C 56.25 90.22 53.58 91.68 50.91 93.18 C 48.94 91.80 46.63 90.77 45.14 88.82 C 43.72 86.95 44.50 84.51 44.61 82.39 C 36.24 82.60 27.88 82.46 19.51 82.49 C 19.52 62.07 19.47 41.66 19.54 21.25 C 28.03 21.32 36.52 21.28 45.02 21.28 M 46.82 24.78 C 38.91 24.78 31.00 24.84 23.10 24.74 C 21.33 33.73 22.43 42.91 22.22 52.00 C 22.40 61.11 21.37 70.31 23.10 79.33 C 31.37 79.30 39.63 79.19 47.90 79.51 C 47.10 82.10 46.30 84.69 45.49 87.28 C 47.29 88.57 49.04 89.99 51.08 90.90 C 52.92 90.47 55.03 89.52 55.77 87.66 C 56.19 84.90 55.68 82.10 55.49 79.34 C 62.95 79.32 70.40 79.32 77.86 79.24 C 77.83 61.11 77.85 42.98 77.85 24.86 C 70.98 24.79 64.10 24.78 57.23 24.76 C 55.57 20.55 53.90 16.34 52.08 12.19 C 50.21 16.34 48.48 20.55 46.82 24.78 Z" />
<path fill="#c40f24" opacity="1.00" d=" M 46.82 24.78 C 48.48 20.55 50.21 16.34 52.08 12.19 C 53.90 16.34 55.57 20.55 57.23 24.76 C 64.10 24.78 70.98 24.79 77.85 24.86 C 77.85 42.98 77.83 61.11 77.86 79.24 C 70.40 79.32 62.95 79.32 55.49 79.34 C 55.68 82.10 56.19 84.90 55.77 87.66 C 55.03 89.52 52.92 90.47 51.08 90.90 C 49.04 89.99 47.29 88.57 45.49 87.28 C 46.30 84.69 47.10 82.10 47.90 79.51 C 39.63 79.19 31.37 79.30 23.10 79.33 C 23.62 70.56 23.39 61.78 23.42 53.00 C 23.37 43.58 23.66 34.15 23.10 24.74 C 31.00 24.84 38.91 24.78 46.82 24.78 M 48.36 43.04 C 48.15 51.30 50.22 59.90 47.31 67.87 C 46.39 71.32 42.10 71.59 39.57 73.42 C 42.99 73.52 46.40 73.41 49.82 73.25 C 49.75 78.53 48.69 83.96 50.34 89.11 C 51.53 88.56 52.73 88.02 53.92 87.48 C 53.38 82.95 53.32 78.40 53.55 73.85 C 57.11 75.07 60.69 76.26 64.38 77.01 C 61.88 74.86 59.09 73.09 56.16 71.60 C 54.49 62.12 55.61 52.54 55.80 43.01 C 55.59 34.42 56.03 25.42 52.09 17.50 C 48.20 25.41 48.58 34.47 48.36 43.04 M 58.59 33.64 C 57.85 36.32 58.36 39.15 58.43 41.89 C 62.21 37.71 65.60 33.06 67.11 27.54 C 64.08 29.24 60.74 30.79 58.59 33.64 M 35.64 57.21 C 33.55 57.52 31.43 57.33 29.33 57.41 C 31.46 58.63 33.64 59.74 35.81 60.87 C 33.06 63.86 30.38 66.92 28.01 70.22 C 28.95 70.40 30.84 70.75 31.79 70.93 C 33.81 67.98 36.08 65.22 38.52 62.61 C 40.57 64.66 42.63 66.70 44.85 68.56 C 43.95 66.41 42.95 64.31 41.88 62.24 C 44.93 58.43 46.39 53.73 46.12 48.85 C 42.87 51.90 39.80 55.37 35.64 57.21 Z" />
<path fill="#ffffff" opacity="1.00" d=" M 48.36 43.04 C 48.58 34.47 48.20 25.41 52.09 17.50 C 56.03 25.42 55.59 34.42 55.80 43.01 C 55.61 52.54 54.49 62.12 56.16 71.60 C 59.09 73.09 61.88 74.86 64.38 77.01 C 60.69 76.26 57.11 75.07 53.55 73.85 C 53.32 78.40 53.38 82.95 53.92 87.48 C 52.73 88.02 51.53 88.56 50.34 89.11 C 48.69 83.96 49.75 78.53 49.82 73.25 C 46.40 73.41 42.99 73.52 39.57 73.42 C 42.10 71.59 46.39 71.32 47.31 67.87 C 50.22 59.90 48.15 51.30 48.36 43.04 Z" />
<path fill="#b6d5d2" opacity="1.00" d=" M 22.22 52.00 C 22.43 42.91 21.33 33.73 23.10 24.74 C 23.66 34.15 23.37 43.58 23.42 53.00 C 23.39 61.78 23.62 70.56 23.10 79.33 C 21.37 70.31 22.40 61.11 22.22 52.00 Z" />
<path fill="#ffffff" opacity="1.00" d=" M 58.59 33.64 C 60.74 30.79 64.08 29.24 67.11 27.54 C 65.60 33.06 62.21 37.71 58.43 41.89 C 58.36 39.15 57.85 36.32 58.59 33.64 Z" />
<path fill="#ffffff" opacity="1.00" d=" M 35.64 57.21 C 39.80 55.37 42.87 51.90 46.12 48.85 C 46.39 53.73 44.93 58.43 41.88 62.24 C 42.95 64.31 43.95 66.41 44.85 68.56 C 42.63 66.70 40.57 64.66 38.52 62.61 C 36.08 65.22 33.81 67.98 31.79 70.93 C 30.84 70.75 28.95 70.40 28.01 70.22 C 30.38 66.92 33.06 63.86 35.81 60.87 C 33.64 59.74 31.46 58.63 29.33 57.41 C 31.43 57.33 33.55 57.52 35.64 57.21 Z" />
</svg>
