<?xml version="1.0" encoding="UTF-8" ?>
<!DOCTYPE svg PUBLIC "-//W3C//DTD SVG 1.1//EN" "http://www.w3.org/Graphics/SVG/1.1/DTD/svg11.dtd">
<svg width="100pt" height="100pt" viewBox="0 0 100 100" version="1.1" xmlns="http://www.w3.org/2000/svg">
<path fill="#b7c7c6" opacity="1.00" d=" M 65.00 16.52 C 70.96 16.44 77.03 17.04 82.87 15.53 C 82.32 18.42 81.99 21.34 81.74 24.26 C 85.92 23.97 90.09 23.64 94.28 23.52 C 90.77 28.59 86.66 33.22 82.02 37.29 C 85.80 37.83 89.56 38.55 93.29 39.40 C 90.37 43.18 86.58 46.18 82.08 47.84 C 84.61 50.71 86.39 54.11 87.96 57.58 C 85.97 57.66 83.97 57.73 81.97 57.79 C 81.88 66.44 81.97 75.09 81.90 83.73 C 59.30 83.69 36.70 83.68 14.10 83.74 C 14.05 61.36 14.13 38.98 14.06 16.60 C 31.04 16.43 48.02 16.57 65.00 16.52 M 59.00 19.34 C 44.98 19.33 30.96 19.38 16.94 19.30 C 16.52 39.61 16.72 59.95 16.83 80.27 C 37.81 80.45 58.80 80.55 79.77 80.22 C 79.74 72.12 79.63 64.02 79.79 55.93 C 81.56 55.77 83.33 55.61 85.10 55.44 C 83.21 52.64 81.25 49.89 79.33 47.10 C 82.95 45.38 86.46 43.42 89.66 41.00 C 86.10 40.17 82.53 39.27 79.27 37.57 C 83.02 33.76 86.90 30.05 90.18 25.82 C 86.70 25.89 83.23 26.08 79.75 26.28 C 79.75 23.69 79.67 21.09 79.70 18.50 C 72.87 19.77 65.90 19.33 59.00 19.34 Z" />
<path fill="#c40f24" opacity="1.00" d=" M 59.00 19.34 C 65.90 19.33 72.87 19.77 79.70 18.50 C 79.67 21.09 79.75 23.69 79.75 26.28 C 83.23 26.08 86.70 25.89 90.18 25.82 C 86.90 30.05 83.02 33.76 79.27 37.57 C 82.53 39.27 86.10 40.17 89.66 41.00 C 86.46 43.42 82.95 45.38 79.33 47.10 C 81.25 49.89 83.21 52.64 85.10 55.44 C 83.33 55.61 81.56 55.77 79.79 55.93 C 79.63 64.02 79.74 72.12 79.77 80.22 C 58.80 80.55 37.81 80.45 16.83 80.27 C 16.72 59.95 16.52 39.61 16.94 19.30 C 30.96 19.38 44.98 19.33 59.00 19.34 M 61.92 29.97 C 59.04 31.82 55.90 29.39 52.97 28.91 C 46.40 26.71 39.96 30.30 34.28 33.25 C 32.30 34.44 29.35 35.28 29.31 38.07 C 28.20 45.44 27.41 52.87 25.98 60.19 C 22.65 60.37 20.69 62.88 19.47 65.74 C 21.88 64.83 24.45 64.13 26.55 62.58 C 29.14 60.15 31.01 56.97 34.06 55.04 C 36.78 53.20 40.35 53.77 43.18 52.26 C 46.29 50.01 47.82 46.25 50.82 43.89 C 53.70 41.94 56.81 40.35 59.87 38.73 C 58.82 39.98 57.76 41.22 56.71 42.48 C 59.38 42.04 62.25 42.09 64.71 40.85 C 65.79 39.12 66.22 37.02 67.54 35.44 C 69.61 33.40 72.11 31.87 74.37 30.05 C 72.37 30.52 70.38 31.05 68.39 31.56 C 70.69 28.60 73.08 25.71 75.25 22.66 C 70.63 24.78 66.42 27.63 61.92 29.97 M 70.55 36.44 C 76.42 35.47 82.09 32.88 85.39 27.70 C 79.94 29.65 75.09 32.92 70.55 36.44 M 70.05 39.90 C 69.53 41.08 69.22 42.34 68.86 43.58 C 68.04 43.94 67.22 44.30 66.39 44.65 C 66.45 47.33 66.50 50.01 66.52 52.69 C 62.54 52.62 58.65 51.67 54.97 50.19 C 54.89 48.36 54.81 46.52 54.73 44.69 C 53.43 46.79 52.14 48.89 50.80 50.96 C 51.77 53.11 52.66 55.28 53.61 57.44 C 49.92 57.64 46.24 57.85 42.55 58.04 C 43.97 56.67 45.41 55.33 46.85 53.99 C 39.60 56.77 32.80 61.12 28.59 67.83 C 30.41 67.02 32.21 66.15 34.00 65.28 C 35.46 67.15 36.80 69.13 38.42 70.88 C 40.20 70.66 41.59 69.44 43.05 68.51 C 45.20 69.56 47.57 69.57 49.79 68.73 C 53.25 69.73 56.73 70.69 60.14 71.87 C 60.84 70.00 61.28 67.99 62.40 66.30 C 64.87 63.69 68.52 62.51 70.85 59.75 C 70.93 56.67 70.32 53.63 69.97 50.58 C 74.03 51.62 78.05 52.81 82.11 53.89 C 79.36 51.33 76.48 48.92 73.65 46.46 C 77.76 44.67 81.96 43.10 86.11 41.38 C 81.63 41.97 77.19 42.74 72.71 43.28 C 74.58 41.79 76.43 40.28 78.28 38.76 C 75.52 38.92 72.68 38.96 70.05 39.90 Z" />
<path fill="#ffffff" opacity="1.00" d=" M 61.92 29.97 C 66.42 27.63 70.63 24.78 75.25 22.66 C 73.08 25.71 70.69 28.60 68.39 31.56 C 70.38 31.05 72.37 30.52 74.37 30.05 C 72.11 31.87 69.61 33.40 67.54 35.44 C 66.22 37.02 65.79 39.12 64.71 40.85 C 62.25 42.09 59.38 42.04 56.71 42.48 C 57.76 41.22 58.82 39.98 59.87 38.73 C 56.81 40.35 53.70 41.94 50.82 43.89 C 47.82 46.25 46.29 50.01 43.18 52.26 C 40.35 53.77 36.78 53.20 34.06 55.04 C 31.01 56.97 29.14 60.15 26.55 62.58 C 24.45 64.13 21.88 64.83 19.47 65.74 C 20.69 62.88 22.65 60.37 25.98 60.19 C 27.41 52.87 28.20 45.44 29.31 38.07 C 29.35 35.28 32.30 34.44 34.28 33.25 C 39.96 30.30 46.40 26.71 52.97 28.91 C 55.90 29.39 59.04 31.82 61.92 29.97 M 31.38 43.27 C 31.11 46.34 30.81 49.40 30.58 52.47 C 35.49 52.79 40.26 51.29 44.48 48.86 C 42.67 46.29 41.00 43.54 38.57 41.49 C 36.08 41.28 33.74 42.63 31.38 43.27 Z" />
<path fill="#ffffff" opacity="1.00" d=" M 70.55 36.44 C 75.09 32.92 79.94 29.65 85.39 27.70 C 82.09 32.88 76.42 35.47 70.55 36.44 Z" />
<path fill="#ffffff" opacity="1.00" d=" M 70.05 39.90 C 72.68 38.96 75.52 38.92 78.28 38.76 C 76.43 40.28 74.58 41.79 72.71 43.28 C 77.19 42.74 81.63 41.97 86.11 41.38 C 81.96 43.10 77.76 44.67 73.65 46.46 C 76.48 48.92 79.36 51.33 82.11 53.89 C 78.05 52.81 74.03 51.62 69.97 50.58 C 70.32 53.63 70.93 56.67 70.85 59.75 C 68.52 62.51 64.87 63.69 62.40 66.30 C 61.28 67.99 60.84 70.00 60.14 71.87 C 56.73 70.69 53.25 69.73 49.79 68.73 C 47.57 69.57 45.20 69.56 43.05 68.51 C 41.59 69.44 40.20 70.66 38.42 70.88 C 36.80 69.13 35.46 67.15 34.00 65.28 C 32.21 66.15 30.41 67.02 28.59 67.83 C 32.80 61.12 39.60 56.77 46.85 53.99 C 45.41 55.33 43.97 56.67 42.55 58.04 C 46.24 57.85 49.92 57.64 53.61 57.44 C 52.66 55.28 51.77 53.11 50.80 50.96 C 52.14 48.89 53.43 46.79 54.73 44.69 C 54.81 46.52 54.89 48.36 54.97 50.19 C 58.65 51.67 62.54 52.62 66.52 52.69 C 66.50 50.01 66.45 47.33 66.39 44.65 C 67.22 44.30 68.04 43.94 68.86 43.58 C 69.22 42.34 69.53 41.08 70.05 39.90 Z" />
<path fill="#c40f24" opacity="1.00" d=" M 31.38 43.27 C 33.74 42.63 36.08 41.28 38.57 41.49 C 41.00 43.54 42.67 46.29 44.48 48.86 C 40.26 51.29 35.49 52.79 30.58 52.47 C 30.81 49.40 31.11 46.34 31.38 43.27 Z" />
</svg>
