<?xml version="1.0" encoding="UTF-8" ?>
<!DOCTYPE svg PUBLIC "-//W3C//DTD SVG 1.1//EN" "http://www.w3.org/Graphics/SVG/1.1/DTD/svg11.dtd">
<svg width="100pt" height="100pt" viewBox="0 0 100 100" version="1.1" xmlns="http://www.w3.org/2000/svg">
<path fill="#b9bbb9" opacity="1.00" d=" M 68.67 19.66 C 72.64 17.58 77.03 16.59 81.29 15.32 C 80.56 17.83 79.77 20.31 79.01 22.80 C 83.64 21.76 88.37 21.25 93.11 20.96 C 91.52 26.05 88.87 30.67 85.63 34.88 C 88.68 35.51 91.73 36.10 94.76 36.80 C 90.81 39.77 86.69 42.55 82.14 44.52 C 84.35 47.40 86.24 50.49 87.99 53.67 C 84.12 53.90 80.25 53.86 76.40 53.37 C 76.03 55.00 75.84 56.68 75.16 58.22 C 73.12 60.85 69.78 62.02 67.54 64.45 C 66.35 66.01 65.63 67.88 64.40 69.42 C 62.40 71.11 59.71 71.93 58.10 74.09 C 55.43 77.56 53.13 81.28 50.59 84.84 C 47.57 81.04 45.14 76.79 41.92 73.15 C 39.46 70.96 36.62 69.19 34.65 66.49 C 32.14 67.36 29.62 68.23 27.09 69.07 C 27.37 67.42 27.66 65.79 27.95 64.15 C 24.19 65.00 20.37 65.61 16.53 66.04 C 18.89 60.42 21.00 54.39 25.58 50.13 C 19.87 41.73 13.78 33.60 7.97 25.27 C 16.67 25.25 25.36 25.33 34.06 25.31 C 38.97 25.51 43.19 22.54 47.96 21.92 C 52.32 20.98 56.43 23.32 60.71 23.53 C 63.51 22.57 66.01 20.93 68.67 19.66 M 63.61 24.57 C 59.91 26.78 55.79 24.32 51.92 24.00 C 45.16 22.70 39.64 28.16 33.07 28.38 C 26.68 28.60 20.28 28.18 13.88 28.38 C 17.50 34.24 21.80 39.62 25.83 45.19 C 27.32 47.16 28.75 50.10 26.70 52.23 C 23.75 55.69 21.13 59.45 19.69 63.81 C 23.34 63.07 26.93 62.15 30.51 61.13 C 30.36 62.64 30.22 64.15 30.09 65.67 C 31.90 65.25 33.70 64.82 35.52 64.41 C 37.81 66.60 40.51 68.25 43.04 70.13 C 46.05 72.82 48.07 76.40 50.67 79.45 C 52.43 76.96 54.06 74.35 56.01 71.99 C 57.69 69.80 60.50 69.10 62.90 68.00 C 64.61 63.85 68.09 61.08 71.68 58.63 C 74.40 57.06 73.38 53.53 73.67 50.93 C 77.28 51.38 80.90 51.74 84.54 51.90 C 82.83 49.13 80.90 46.51 78.87 43.97 C 82.56 42.19 86.17 40.26 89.63 38.07 C 86.68 37.32 83.72 36.65 80.77 35.96 C 83.72 31.81 86.77 27.72 89.52 23.42 C 84.69 23.57 79.94 24.56 75.31 25.89 C 76.29 23.44 77.23 20.96 78.10 18.47 C 72.90 19.56 68.27 22.15 63.61 24.57 Z" />
<path fill="#941271" opacity="1.00" d=" M 63.61 24.57 C 68.27 22.15 72.90 19.56 78.10 18.47 C 77.23 20.96 76.29 23.44 75.31 25.89 C 79.94 24.56 84.69 23.57 89.52 23.42 C 86.77 27.72 83.72 31.81 80.77 35.96 C 83.72 36.65 86.68 37.32 89.63 38.07 C 86.17 40.26 82.56 42.19 78.87 43.97 C 80.90 46.51 82.83 49.13 84.54 51.90 C 80.90 51.74 77.28 51.38 73.67 50.93 C 73.38 53.53 74.40 57.06 71.68 58.63 C 68.09 61.08 64.61 63.85 62.90 68.00 C 60.50 69.10 57.69 69.80 56.01 71.99 C 54.06 74.35 52.43 76.96 50.67 79.45 C 48.07 76.40 46.05 72.82 43.04 70.13 C 40.51 68.25 37.81 66.60 35.52 64.41 C 33.70 64.82 31.90 65.25 30.09 65.67 C 30.22 64.15 30.36 62.64 30.51 61.13 C 26.93 62.15 23.34 63.07 19.69 63.81 C 21.13 59.45 23.75 55.69 26.70 52.23 C 28.75 50.10 27.32 47.16 25.83 45.19 C 21.80 39.62 17.50 34.24 13.88 28.38 C 20.28 28.18 26.68 28.60 33.07 28.38 C 39.64 28.16 45.16 22.70 51.92 24.00 C 55.79 24.32 59.91 26.78 63.61 24.57 M 60.82 28.58 C 56.66 28.09 52.72 25.72 48.43 26.43 C 42.61 27.33 37.68 30.78 32.55 33.44 C 31.67 39.62 31.03 45.84 29.95 52.00 C 29.62 56.30 24.89 57.82 22.74 61.08 C 25.04 60.40 27.50 59.90 29.48 58.46 C 31.99 56.32 33.71 53.36 36.51 51.55 C 39.08 49.97 42.27 50.07 44.97 48.80 C 48.12 46.72 49.63 42.96 52.67 40.75 C 55.25 38.93 58.03 37.42 60.76 35.86 C 57.77 39.50 55.03 43.34 52.30 47.18 C 53.17 49.34 54.03 51.51 54.88 53.68 C 51.73 53.74 48.58 53.89 45.43 54.15 C 45.42 53.54 45.40 52.33 45.39 51.72 C 39.82 54.01 35.27 58.14 31.66 62.88 C 33.37 62.34 35.07 61.75 36.77 61.17 C 38.17 62.82 39.44 64.60 41.11 65.99 C 42.50 65.49 43.81 64.79 45.14 64.14 C 50.37 64.43 55.78 64.50 60.60 66.85 C 62.31 61.67 66.84 58.61 71.31 55.96 C 70.91 52.99 70.50 50.03 70.12 47.06 C 73.80 48.08 77.47 49.14 81.18 50.05 C 78.73 47.68 76.16 45.42 73.65 43.11 C 77.16 41.79 80.69 40.53 84.15 39.08 C 80.36 39.33 76.59 39.83 72.82 40.28 C 74.45 38.92 76.10 37.58 77.70 36.18 C 75.35 36.36 72.88 36.26 70.68 37.23 C 67.41 40.30 66.78 44.95 66.53 49.20 C 62.85 48.73 59.22 47.91 55.68 46.79 C 55.99 45.39 56.29 43.98 56.70 42.60 C 59.54 39.57 64.64 39.40 66.55 35.43 C 68.27 32.18 71.45 30.18 74.26 27.98 C 72.38 28.48 70.51 29.01 68.64 29.54 C 70.65 26.96 72.66 24.37 74.47 21.64 C 69.73 23.57 65.64 26.85 60.82 28.58 M 70.84 33.87 C 76.46 33.04 81.63 30.30 85.03 25.67 C 79.82 27.48 75.17 30.53 70.84 33.87 Z" />
<path fill="#ffffff" opacity="1.00" d=" M 60.82 28.58 C 65.64 26.85 69.73 23.57 74.47 21.64 C 72.66 24.37 70.65 26.96 68.64 29.54 C 70.51 29.01 72.38 28.48 74.26 27.98 C 71.45 30.18 68.27 32.18 66.55 35.43 C 64.64 39.40 59.54 39.57 56.70 42.60 C 56.29 43.98 55.99 45.39 55.68 46.79 C 59.22 47.91 62.85 48.73 66.53 49.20 C 66.78 44.95 67.41 40.30 70.68 37.23 C 72.88 36.26 75.35 36.36 77.70 36.18 C 76.10 37.58 74.45 38.92 72.82 40.28 C 76.59 39.83 80.36 39.33 84.15 39.08 C 80.69 40.53 77.16 41.79 73.65 43.11 C 76.16 45.42 78.73 47.68 81.18 50.05 C 77.47 49.14 73.80 48.08 70.12 47.06 C 70.50 50.03 70.91 52.99 71.31 55.96 C 66.84 58.61 62.31 61.67 60.60 66.85 C 55.78 64.50 50.37 64.43 45.14 64.14 C 43.81 64.79 42.50 65.49 41.11 65.99 C 39.44 64.60 38.17 62.82 36.77 61.17 C 35.07 61.75 33.37 62.34 31.66 62.88 C 35.27 58.14 39.82 54.01 45.39 51.72 C 45.40 52.33 45.42 53.54 45.43 54.15 C 48.58 53.89 51.73 53.74 54.88 53.68 C 54.03 51.51 53.17 49.34 52.30 47.18 C 55.03 43.34 57.77 39.50 60.76 35.86 C 58.03 37.42 55.25 38.93 52.67 40.75 C 49.63 42.96 48.12 46.72 44.97 48.80 C 42.27 50.07 39.08 49.97 36.51 51.55 C 33.71 53.36 31.99 56.32 29.48 58.46 C 27.50 59.90 25.04 60.40 22.74 61.08 C 24.89 57.82 29.62 56.30 29.95 52.00 C 31.03 45.84 31.67 39.62 32.55 33.44 C 37.68 30.78 42.61 27.33 48.43 26.43 C 52.72 25.72 56.66 28.09 60.82 28.58 M 34.31 40.36 C 33.95 43.23 33.64 46.11 33.36 48.99 C 38.01 48.98 42.61 47.86 46.55 45.35 C 44.65 42.95 42.71 40.57 40.78 38.20 C 38.62 38.92 36.47 39.64 34.31 40.36 Z" />
<path fill="#ffffff" opacity="1.00" d=" M 70.84 33.87 C 75.17 30.53 79.82 27.48 85.03 25.67 C 81.63 30.30 76.46 33.04 70.84 33.87 Z" />
<path fill="#941271" opacity="1.00" d=" M 34.31 40.36 C 36.47 39.64 38.62 38.92 40.78 38.20 C 42.71 40.57 44.65 42.95 46.55 45.35 C 42.61 47.86 38.01 48.98 33.36 48.99 C 33.64 46.11 33.95 43.23 34.31 40.36 Z" />
</svg>
