<?xml version="1.0" encoding="UTF-8" ?>
<!DOCTYPE svg PUBLIC "-//W3C//DTD SVG 1.1//EN" "http://www.w3.org/Graphics/SVG/1.1/DTD/svg11.dtd">
<svg width="100pt" height="100pt" viewBox="0 0 100 100" version="1.1" xmlns="http://www.w3.org/2000/svg">
<path fill="#b9bbb9" opacity="1.00" d=" M 39.75 18.85 C 45.49 16.03 52.24 15.79 58.25 17.90 C 62.51 18.96 65.94 21.91 70.06 23.26 C 77.72 23.91 85.44 23.29 93.12 23.51 C 89.11 29.36 84.91 35.08 80.90 40.92 C 78.98 43.43 79.17 46.69 78.72 49.64 C 77.86 57.85 72.57 65.43 65.19 69.10 C 62.66 70.49 59.64 71.37 57.89 73.83 C 55.66 76.69 53.73 79.78 51.63 82.74 C 48.85 79.37 46.68 75.51 43.65 72.35 C 40.70 70.13 36.98 69.19 34.06 66.91 C 26.83 61.55 23.02 52.68 21.91 43.95 C 21.72 41.64 20.69 39.54 19.32 37.71 C 15.86 32.90 12.34 28.14 8.98 23.27 C 15.68 23.21 22.38 23.39 29.07 23.29 C 33.17 23.50 36.20 20.35 39.75 18.85 M 42.82 19.86 C 38.47 21.20 35.17 24.65 30.87 26.06 C 25.57 26.87 20.19 26.20 14.85 26.36 C 17.10 29.97 19.78 33.28 22.14 36.82 C 23.94 39.45 23.90 42.76 24.44 45.78 C 25.32 52.50 28.49 58.93 33.37 63.63 C 36.42 66.63 40.57 67.94 44.32 69.79 C 47.51 71.31 49.29 74.55 51.38 77.23 C 53.30 74.92 54.98 72.31 57.45 70.52 C 60.82 68.43 64.80 67.42 67.93 64.92 C 72.60 61.25 75.91 55.74 76.53 49.79 C 77.17 45.87 76.64 41.48 79.06 38.07 C 81.72 34.16 84.64 30.42 87.08 26.35 C 82.04 26.26 76.99 26.64 71.96 26.30 C 68.77 26.09 66.22 23.98 63.51 22.52 C 57.39 18.81 49.67 17.77 42.82 19.86 Z" />
<path fill="#941271" opacity="1.00" d=" M 42.82 19.86 C 49.67 17.77 57.39 18.81 63.51 22.52 C 66.22 23.98 68.77 26.09 71.96 26.30 C 76.99 26.64 82.04 26.26 87.08 26.35 C 84.64 30.42 81.72 34.16 79.06 38.07 C 76.64 41.48 77.17 45.87 76.53 49.79 C 75.91 55.74 72.60 61.25 67.93 64.92 C 64.80 67.42 60.82 68.43 57.45 70.52 C 54.98 72.31 53.30 74.92 51.38 77.23 C 49.29 74.55 47.51 71.31 44.32 69.79 C 40.57 67.94 36.42 66.63 33.37 63.63 C 28.49 58.93 25.32 52.50 24.44 45.78 C 23.90 42.76 23.94 39.45 22.14 36.82 C 19.78 33.28 17.10 29.97 14.85 26.36 C 20.19 26.20 25.57 26.87 30.87 26.06 C 35.17 24.65 38.47 21.20 42.82 19.86 M 41.21 23.25 C 34.61 26.58 28.38 32.19 26.68 39.65 C 25.50 46.72 28.94 53.60 32.88 59.24 C 31.32 55.08 29.08 51.17 28.00 46.84 C 27.03 42.17 28.30 37.11 31.42 33.48 C 34.67 29.71 38.06 25.35 43.17 24.17 C 49.62 22.69 56.95 22.52 62.75 26.16 C 67.05 28.89 69.83 33.29 73.21 36.98 C 68.61 24.71 53.27 17.80 41.21 23.25 M 40.05 43.74 C 40.09 46.93 42.24 49.19 45.21 50.02 C 45.62 51.24 46.02 52.47 46.42 53.69 C 47.06 53.79 48.35 53.98 48.99 54.08 C 49.64 51.10 50.43 48.12 50.53 45.06 C 48.65 41.90 45.42 39.88 42.67 37.55 C 41.31 39.40 39.02 41.17 40.05 43.74 M 51.47 45.05 C 51.56 48.13 52.36 51.12 53.01 54.12 C 53.61 53.95 54.82 53.63 55.42 53.46 C 55.47 51.89 55.50 50.33 55.53 48.76 C 57.14 48.99 58.77 49.19 60.39 49.37 C 61.11 46.68 62.02 44.00 62.15 41.20 C 61.26 39.95 60.27 38.77 59.34 37.55 C 56.59 39.88 53.36 41.90 51.47 45.05 M 69.01 59.00 C 65.90 62.20 62.19 65.00 57.89 66.33 C 51.40 67.49 44.97 65.30 38.58 64.41 C 47.16 69.52 58.90 69.22 66.65 62.68 C 71.86 58.68 74.12 52.17 74.76 45.84 C 73.17 50.34 72.52 55.47 69.01 59.00 M 34.08 60.43 C 33.66 61.83 34.14 62.32 35.54 61.89 C 35.97 60.50 35.49 60.01 34.08 60.43 Z" />
<path fill="#ffffff" opacity="1.00" d=" M 41.21 23.25 C 53.27 17.80 68.61 24.71 73.21 36.98 C 69.83 33.29 67.05 28.89 62.75 26.16 C 56.95 22.52 49.62 22.69 43.17 24.17 C 38.06 25.35 34.67 29.71 31.42 33.48 C 28.30 37.11 27.03 42.17 28.00 46.84 C 29.08 51.17 31.32 55.08 32.88 59.24 C 28.94 53.60 25.50 46.72 26.68 39.65 C 28.38 32.19 34.61 26.58 41.21 23.25 Z" />
<path fill="#ffffff" opacity="1.00" d=" M 40.05 43.74 C 39.02 41.17 41.31 39.40 42.67 37.55 C 45.42 39.88 48.65 41.90 50.53 45.06 C 50.43 48.12 49.64 51.10 48.99 54.08 C 48.35 53.98 47.06 53.79 46.42 53.69 C 46.02 52.47 45.62 51.24 45.21 50.02 C 42.24 49.19 40.09 46.93 40.05 43.74 Z" />
<path fill="#ffffff" opacity="1.00" d=" M 51.47 45.05 C 53.36 41.90 56.59 39.88 59.34 37.55 C 60.27 38.77 61.26 39.95 62.15 41.20 C 62.02 44.00 61.11 46.68 60.39 49.37 C 58.77 49.19 57.14 48.99 55.53 48.76 C 55.50 50.33 55.47 51.89 55.42 53.46 C 54.82 53.63 53.61 53.95 53.01 54.12 C 52.36 51.12 51.56 48.13 51.47 45.05 Z" />
<path fill="#ffffff" opacity="1.00" d=" M 69.01 59.00 C 72.52 55.47 73.17 50.34 74.76 45.84 C 74.12 52.17 71.86 58.68 66.65 62.68 C 58.90 69.22 47.16 69.52 38.58 64.41 C 44.97 65.30 51.40 67.49 57.89 66.33 C 62.19 65.00 65.90 62.20 69.01 59.00 Z" />
<path fill="#ffffff" opacity="1.00" d=" M 34.08 60.43 C 35.49 60.01 35.97 60.50 35.54 61.89 C 34.14 62.32 33.66 61.83 34.08 60.43 Z" />
</svg>
