<?xml version="1.0" encoding="UTF-8" ?>
<!DOCTYPE svg PUBLIC "-//W3C//DTD SVG 1.1//EN" "http://www.w3.org/Graphics/SVG/1.1/DTD/svg11.dtd">
<svg width="100pt" height="100pt" viewBox="0 0 100 100" version="1.1" xmlns="http://www.w3.org/2000/svg">
<path fill="#b7c7c6" opacity="1.00" d=" M 76.50 4.29 C 79.61 2.65 83.76 3.27 85.31 6.69 C 87.12 11.66 82.79 16.03 82.94 20.94 C 82.87 41.86 83.04 62.79 82.87 83.72 C 60.29 83.69 37.72 83.68 15.14 83.73 C 15.01 61.37 15.13 39.02 15.08 16.67 C 27.62 16.23 40.17 16.90 52.71 16.33 C 56.46 15.88 60.21 16.48 63.97 16.37 C 69.14 13.38 70.40 6.04 76.50 4.29 M 74.54 7.52 C 70.71 11.02 68.71 16.25 64.33 19.19 C 61.66 20.51 59.04 17.89 56.34 18.03 C 53.57 18.52 50.86 19.44 48.02 19.40 C 38.02 19.34 28.01 19.32 18.00 19.31 C 17.30 33.53 17.96 47.78 17.65 62.01 C 17.98 64.38 16.88 67.99 19.78 69.06 L 18.66 68.66 L 18.85 69.95 L 17.93 69.38 C 17.64 72.98 17.67 76.60 17.83 80.21 C 31.21 80.62 44.61 80.27 58.00 80.38 C 65.58 80.28 73.17 80.66 80.74 80.15 C 80.31 71.71 81.71 63.18 80.25 54.83 L 80.21 53.90 L 80.75 53.50 C 80.62 43.00 80.86 32.49 80.66 22.00 C 80.87 20.44 79.38 19.75 78.42 18.86 C 80.21 17.05 82.33 15.34 83.07 12.81 C 83.80 10.59 83.29 8.24 83.06 5.99 C 80.16 5.65 76.89 5.44 74.54 7.52 Z" />
<path fill="#c40f24" opacity="1.00" d=" M 74.54 7.52 C 76.89 5.44 80.16 5.65 83.06 5.99 C 83.29 8.24 83.80 10.59 83.07 12.81 C 82.33 15.34 80.21 17.05 78.42 18.86 C 79.38 19.75 80.87 20.44 80.66 22.00 C 80.86 32.49 80.62 43.00 80.75 53.50 L 80.21 53.90 C 75.31 57.57 70.27 61.17 64.57 63.52 C 54.88 67.89 44.32 69.46 34.07 71.94 C 41.97 67.16 49.05 61.04 54.80 53.81 C 57.06 51.15 56.86 47.48 57.60 44.26 C 58.34 39.93 61.58 36.71 64.18 33.38 C 67.17 34.49 70.33 35.83 73.51 34.57 C 71.48 32.56 69.36 30.65 67.19 28.79 C 69.66 23.96 73.28 19.88 77.24 16.23 C 79.89 14.19 80.98 11.02 81.20 7.78 C 79.03 8.53 76.43 8.88 75.03 10.92 C 71.23 15.74 68.14 21.40 62.93 24.89 C 60.35 23.52 58.14 21.58 55.74 19.95 C 55.75 23.16 57.07 26.09 58.66 28.82 C 54.52 33.33 50.39 37.86 46.49 42.58 C 43.87 45.12 46.85 49.03 44.89 51.81 C 39.69 60.02 31.84 66.14 26.65 74.35 C 44.70 76.22 63.08 73.85 80.19 67.91 C 80.42 63.55 80.45 59.19 80.25 54.83 C 81.71 63.18 80.31 71.71 80.74 80.15 C 73.17 80.66 65.58 80.28 58.00 80.38 C 44.61 80.27 31.21 80.62 17.83 80.21 C 17.67 76.60 17.64 72.98 17.93 69.38 L 18.85 69.95 C 21.16 71.49 23.78 72.50 26.47 73.13 C 24.60 71.24 22.27 69.94 19.78 69.06 C 16.88 67.99 17.98 64.38 17.65 62.01 C 17.96 47.78 17.30 33.53 18.00 19.31 C 28.01 19.32 38.02 19.34 48.02 19.40 C 50.86 19.44 53.57 18.52 56.34 18.03 C 59.04 17.89 61.66 20.51 64.33 19.19 C 68.71 16.25 70.71 11.02 74.54 7.52 Z" />
<path fill="#ffffff" opacity="1.00" d=" M 75.03 10.92 C 76.43 8.88 79.03 8.53 81.20 7.78 C 80.98 11.02 79.89 14.19 77.24 16.23 C 73.28 19.88 69.66 23.96 67.19 28.79 C 69.36 30.65 71.48 32.56 73.51 34.57 C 70.33 35.83 67.17 34.49 64.18 33.38 C 61.58 36.71 58.34 39.93 57.60 44.26 C 56.86 47.48 57.06 51.15 54.80 53.81 C 49.05 61.04 41.97 67.16 34.07 71.94 C 44.32 69.46 54.88 67.89 64.57 63.52 C 70.27 61.17 75.31 57.57 80.21 53.90 L 80.25 54.83 C 80.45 59.19 80.42 63.55 80.19 67.91 C 63.08 73.85 44.70 76.22 26.65 74.35 C 31.84 66.14 39.69 60.02 44.89 51.81 C 46.85 49.03 43.87 45.12 46.49 42.58 C 50.39 37.86 54.52 33.33 58.66 28.82 C 57.07 26.09 55.75 23.16 55.74 19.95 C 58.14 21.58 60.35 23.52 62.93 24.89 C 68.14 21.40 71.23 15.74 75.03 10.92 Z" />
<path fill="#ffffff" opacity="1.00" d=" M 18.66 68.66 L 19.78 69.06 C 22.27 69.94 24.60 71.24 26.47 73.13 C 23.78 72.50 21.16 71.49 18.85 69.95 L 18.66 68.66 Z" />
</svg>
