<?xml version="1.0" encoding="UTF-8" ?>
<!DOCTYPE svg PUBLIC "-//W3C//DTD SVG 1.1//EN" "http://www.w3.org/Graphics/SVG/1.1/DTD/svg11.dtd">
<svg width="100pt" height="100pt" viewBox="0 0 100 100" version="1.1" xmlns="http://www.w3.org/2000/svg">
<path fill="#ffffff" opacity="1.00" d=" M 42.45 12.61 C 60.89 8.25 81.24 20.57 86.41 38.73 C 91.91 54.42 84.74 73.01 70.91 81.88 C 61.53 87.91 49.45 90.23 38.78 86.42 C 20.07 81.14 7.61 59.75 12.96 40.95 C 16.22 26.82 28.24 15.36 42.45 12.61 M 45.40 15.58 C 37.43 16.59 29.92 20.56 24.51 26.49 C 13.81 37.67 12.21 56.19 20.98 68.98 C 29.29 82.22 47.05 88.22 61.68 82.70 C 77.82 77.22 88.06 58.77 83.82 42.18 C 80.20 25.24 62.60 12.85 45.40 15.58 Z" />
<path fill="#482b46" opacity="1.00" d=" M 45.40 15.58 C 62.60 12.85 80.20 25.24 83.82 42.18 C 88.06 58.77 77.82 77.22 61.68 82.70 C 47.05 88.22 29.29 82.22 20.98 68.98 C 12.21 56.19 13.81 37.67 24.51 26.49 C 29.92 20.56 37.43 16.59 45.40 15.58 M 49.85 18.76 C 47.86 27.35 46.46 36.07 44.64 44.69 C 36.05 46.71 27.31 48.01 18.69 49.84 C 27.18 52.36 36.08 53.12 44.67 55.30 C 46.55 63.94 47.57 72.80 50.15 81.26 C 52.12 72.66 53.28 63.90 55.31 55.31 C 63.86 53.05 72.81 52.55 81.24 49.86 C 72.65 47.86 63.94 46.44 55.31 44.65 C 53.05 36.11 52.53 27.18 49.85 18.76 M 24.26 41.44 C 27.98 40.55 32.27 40.00 34.91 36.91 C 37.38 33.63 38.15 29.48 39.07 25.57 C 31.44 27.11 25.34 33.76 24.26 41.44 M 59.83 25.58 C 61.26 29.27 62.32 33.19 64.50 36.54 C 67.17 39.74 71.63 40.31 75.44 41.24 C 74.64 38.13 73.74 34.91 71.68 32.37 C 68.74 28.70 64.16 27.01 59.83 25.58 M 24.77 59.02 C 26.57 63.09 28.22 67.39 31.31 70.69 C 33.57 73.18 36.90 74.11 39.98 75.15 C 39.42 71.83 39.53 68.17 37.71 65.23 C 34.30 61.69 29.19 60.74 24.77 59.02 M 63.13 65.13 C 60.59 67.93 59.69 71.71 59.02 75.33 C 62.93 74.35 67.26 73.24 69.90 69.94 C 72.19 66.87 73.52 63.22 74.88 59.68 C 70.75 60.84 66.02 61.63 63.13 65.13 Z" />
<path fill="#ffffff" opacity="1.00" d=" M 49.85 18.76 C 52.53 27.18 53.05 36.11 55.31 44.65 C 63.94 46.44 72.65 47.86 81.24 49.86 C 72.81 52.55 63.86 53.05 55.31 55.31 C 53.28 63.90 52.12 72.66 50.15 81.26 C 47.57 72.80 46.55 63.94 44.67 55.30 C 36.08 53.12 27.18 52.36 18.69 49.84 C 27.31 48.01 36.05 46.71 44.64 44.69 C 46.46 36.07 47.86 27.35 49.85 18.76 M 46.38 44.56 C 45.86 47.07 48.18 48.78 49.48 50.59 C 49.68 42.94 49.97 35.28 49.65 27.63 C 48.12 33.18 47.18 38.87 46.38 44.56 M 55.39 46.18 C 54.95 47.75 54.51 49.33 54.06 50.90 C 60.54 50.61 67.05 50.76 73.48 49.80 C 67.64 47.80 61.45 47.17 55.39 46.18 M 46.79 57.17 C 47.28 62.65 48.13 68.11 49.63 73.41 C 50.07 69.63 50.46 65.82 50.26 62.02 C 50.40 59.75 48.09 58.63 46.79 57.17 Z" />
<path fill="#ffffff" opacity="1.00" d=" M 24.26 41.44 C 25.34 33.76 31.44 27.11 39.07 25.57 C 38.15 29.48 37.38 33.63 34.91 36.91 C 32.27 40.00 27.98 40.55 24.26 41.44 Z" />
<path fill="#ffffff" opacity="1.00" d=" M 59.83 25.58 C 64.16 27.01 68.74 28.70 71.68 32.37 C 73.74 34.91 74.64 38.13 75.44 41.24 C 71.63 40.31 67.17 39.74 64.50 36.54 C 62.32 33.19 61.26 29.27 59.83 25.58 Z" />
<path fill="#30132e" opacity="1.00" d=" M 46.38 44.56 C 47.18 38.87 48.12 33.18 49.65 27.63 C 49.97 35.28 49.68 42.94 49.48 50.59 C 48.18 48.78 45.86 47.07 46.38 44.56 Z" />
<path fill="#361a34" opacity="1.00" d=" M 55.39 46.18 C 61.45 47.17 67.64 47.80 73.48 49.80 C 67.05 50.76 60.54 50.61 54.06 50.90 C 54.51 49.33 54.95 47.75 55.39 46.18 Z" />
<path fill="#30132e" opacity="1.00" d=" M 46.79 57.17 C 48.09 58.63 50.40 59.75 50.26 62.02 C 50.46 65.82 50.07 69.63 49.63 73.41 C 48.13 68.11 47.28 62.65 46.79 57.17 Z" />
<path fill="#ffffff" opacity="1.00" d=" M 24.77 59.02 C 29.19 60.74 34.30 61.69 37.71 65.23 C 39.53 68.17 39.42 71.83 39.98 75.15 C 36.90 74.11 33.57 73.18 31.31 70.69 C 28.22 67.39 26.57 63.09 24.77 59.02 Z" />
<path fill="#ffffff" opacity="1.00" d=" M 63.13 65.13 C 66.02 61.63 70.75 60.84 74.88 59.68 C 73.52 63.22 72.19 66.87 69.90 69.94 C 67.26 73.24 62.93 74.35 59.02 75.33 C 59.69 71.71 60.59 67.93 63.13 65.13 Z" />
</svg>
