<?xml version="1.0" encoding="UTF-8" ?>
<!DOCTYPE svg PUBLIC "-//W3C//DTD SVG 1.1//EN" "http://www.w3.org/Graphics/SVG/1.1/DTD/svg11.dtd">
<svg width="100pt" height="100pt" viewBox="0 0 100 100" version="1.1" xmlns="http://www.w3.org/2000/svg">
<path fill="#b8b8b8" opacity="1.00" d=" M 40.02 24.55 C 49.07 25.18 56.84 19.62 64.16 15.07 C 65.45 18.19 66.73 21.32 67.97 24.45 C 71.86 24.50 75.74 24.50 79.63 24.44 C 79.60 44.52 79.60 64.59 79.63 84.67 C 59.54 84.59 39.45 84.60 19.35 84.66 C 19.39 64.58 19.39 44.51 19.35 24.43 C 26.24 24.53 33.13 24.47 40.02 24.55 M 42.80 27.69 C 36.32 28.44 29.77 27.83 23.26 28.07 C 23.31 45.76 23.32 63.44 23.26 81.12 C 41.05 81.41 58.86 81.52 76.65 81.06 C 76.60 63.45 76.49 45.84 76.67 28.23 C 73.28 28.07 69.88 27.91 66.49 27.73 C 65.39 24.77 64.24 21.83 63.06 18.90 C 56.57 22.33 50.13 26.35 42.80 27.69 Z" />
<path fill="#b61c2e" opacity="1.00" d=" M 42.80 27.69 C 50.13 26.35 56.57 22.33 63.06 18.90 C 64.24 21.83 65.39 24.77 66.49 27.73 C 69.88 27.91 73.28 28.07 76.67 28.23 C 76.49 45.84 76.60 63.45 76.65 81.06 C 58.86 81.52 41.05 81.41 23.26 81.12 C 23.32 63.44 23.31 45.76 23.26 28.07 C 29.77 27.83 36.32 28.44 42.80 27.69 M 45.65 29.64 C 38.69 32.00 31.40 33.14 24.36 35.19 C 25.49 36.47 26.51 37.91 27.91 38.92 C 30.34 39.85 32.99 39.93 35.53 40.38 C 41.03 53.13 44.53 66.63 48.14 80.01 C 49.99 80.06 51.84 80.10 53.70 80.15 C 50.63 69.72 48.83 58.87 44.54 48.83 C 45.06 46.01 45.03 43.14 45.32 40.29 C 47.91 38.43 51.35 37.94 54.46 38.39 C 57.05 41.48 55.21 45.67 54.56 49.13 C 57.83 50.83 61.14 52.46 64.46 54.07 C 65.06 50.00 65.32 45.88 66.11 41.83 C 67.38 35.10 64.12 28.71 61.96 22.53 C 56.65 25.18 51.31 27.83 45.65 29.64 M 58.07 65.03 C 55.76 65.61 53.76 66.94 52.16 68.69 C 57.35 68.14 62.33 66.53 67.39 65.35 C 70.70 64.44 75.20 64.28 75.86 60.06 C 69.83 61.37 63.98 63.32 58.07 65.03 M 24.49 76.45 C 31.31 74.38 38.79 73.51 44.77 69.41 C 37.67 70.55 30.90 73.26 24.49 76.45 Z" />
<path fill="#ffffff" opacity="1.00" d=" M 45.65 29.64 C 51.31 27.83 56.65 25.18 61.96 22.53 C 64.12 28.71 67.38 35.10 66.11 41.83 C 65.32 45.88 65.06 50.00 64.46 54.07 C 61.14 52.46 57.83 50.83 54.56 49.13 C 55.21 45.67 57.05 41.48 54.46 38.39 C 51.35 37.94 47.91 38.43 45.32 40.29 C 45.03 43.14 45.06 46.01 44.54 48.83 C 48.83 58.87 50.63 69.72 53.70 80.15 C 51.84 80.10 49.99 80.06 48.14 80.01 C 44.53 66.63 41.03 53.13 35.53 40.38 C 32.99 39.93 30.34 39.85 27.91 38.92 C 26.51 37.91 25.49 36.47 24.36 35.19 C 31.40 33.14 38.69 32.00 45.65 29.64 Z" />
<path fill="#ffffff" opacity="1.00" d=" M 58.07 65.03 C 63.98 63.32 69.83 61.37 75.86 60.06 C 75.20 64.28 70.70 64.44 67.39 65.35 C 62.33 66.53 57.35 68.14 52.16 68.69 C 53.76 66.94 55.76 65.61 58.07 65.03 Z" />
<path fill="#ffffff" opacity="1.00" d=" M 24.49 76.45 C 30.90 73.26 37.67 70.55 44.77 69.41 C 38.79 73.51 31.31 74.38 24.49 76.45 Z" />
</svg>
