<?xml version="1.0" encoding="UTF-8" ?>
<!DOCTYPE svg PUBLIC "-//W3C//DTD SVG 1.1//EN" "http://www.w3.org/Graphics/SVG/1.1/DTD/svg11.dtd">
<svg width="100pt" height="100pt" viewBox="0 0 100 100" version="1.1" xmlns="http://www.w3.org/2000/svg">
<path fill="#ffffff" opacity="1.00" d=" M 49.10 3.70 C 52.30 6.53 55.16 9.77 58.56 12.36 C 63.07 14.54 68.07 15.79 72.10 18.91 C 80.11 24.39 85.19 33.15 87.56 42.42 C 91.30 48.32 89.62 55.41 89.96 61.99 C 89.77 66.93 91.16 73.14 86.69 76.66 C 83.87 79.44 79.72 79.13 76.08 79.21 C 74.28 79.19 72.92 80.58 71.45 81.42 C 62.07 87.90 49.66 90.28 38.78 86.42 C 21.40 81.47 9.36 62.83 12.30 44.94 C 13.98 40.27 7.99 37.17 9.51 32.49 C 10.31 28.09 14.51 25.82 18.19 24.11 C 18.14 17.88 18.18 11.65 18.13 5.42 C 23.34 7.65 28.44 10.12 33.61 12.45 C 38.47 15.24 43.81 11.72 48.94 11.73 C 48.98 9.05 49.03 6.37 49.10 3.70 M 20.17 8.61 C 20.00 14.23 20.67 19.91 19.84 25.49 C 16.73 27.64 11.94 28.85 11.39 33.25 C 10.63 36.83 14.08 39.03 16.34 41.12 C 13.84 51.51 15.90 62.97 22.67 71.35 C 32.06 83.84 50.35 88.39 64.43 81.54 C 68.20 79.94 71.14 76.67 75.18 75.70 C 79.35 78.62 85.57 76.92 87.46 72.17 C 88.30 64.23 87.77 56.23 87.93 48.26 C 86.86 48.00 85.79 47.73 84.72 47.47 C 83.60 34.88 75.57 22.99 63.71 18.24 C 58.57 16.41 55.13 12.05 51.20 8.51 C 51.07 10.69 50.97 12.86 50.86 15.04 C 45.75 15.15 40.37 17.90 35.46 15.50 C 30.36 13.22 25.36 10.70 20.17 8.61 Z" />
<path fill="#4a2944" opacity="1.00" d=" M 20.17 8.61 C 25.36 10.70 30.36 13.22 35.46 15.50 C 40.37 17.90 45.75 15.15 50.86 15.04 C 50.97 12.86 51.07 10.69 51.20 8.51 C 55.13 12.05 58.57 16.41 63.71 18.24 C 75.57 22.99 83.60 34.88 84.72 47.47 C 85.79 47.73 86.86 48.00 87.93 48.26 C 87.77 56.23 88.30 64.23 87.46 72.17 C 87.62 64.51 87.35 56.84 86.98 49.19 C 86.46 48.94 85.43 48.45 84.91 48.21 C 85.02 49.16 85.13 50.11 85.23 51.06 C 79.19 51.67 73.23 52.85 67.29 54.08 C 67.26 58.92 67.24 63.75 67.20 68.59 C 64.22 69.95 58.89 70.54 59.09 74.83 C 59.97 79.44 67.50 78.68 68.71 74.63 C 69.83 69.92 69.24 65.03 69.32 60.24 C 74.12 59.29 78.91 58.33 83.70 57.32 C 83.66 60.17 83.63 63.03 83.60 65.88 C 80.86 66.66 77.23 66.74 75.71 69.54 C 75.54 71.53 76.29 73.44 76.72 75.35 C 76.34 75.44 75.56 75.61 75.18 75.70 C 71.14 76.67 68.20 79.94 64.43 81.54 C 50.35 88.39 32.06 83.84 22.67 71.35 C 15.90 62.97 13.84 51.51 16.34 41.12 C 14.08 39.03 10.63 36.83 11.39 33.25 C 11.94 28.85 16.73 27.64 19.84 25.49 C 20.67 19.91 20.00 14.23 20.17 8.61 M 22.70 12.57 C 22.57 17.90 22.57 23.24 22.67 28.57 C 20.49 29.02 18.18 29.18 16.18 30.23 C 14.19 31.40 12.92 34.36 14.51 36.34 C 17.46 39.81 24.51 37.51 24.52 32.81 C 24.87 28.32 24.59 23.81 24.75 19.32 C 29.41 21.26 33.97 23.45 38.54 25.59 C 38.59 28.78 38.63 31.97 38.71 35.15 C 35.02 35.06 29.64 36.16 29.83 40.87 C 31.00 46.24 39.86 44.72 40.45 39.74 C 41.01 33.34 40.51 26.90 40.59 20.48 C 34.63 17.85 28.75 15.02 22.70 12.57 M 51.89 24.01 C 52.16 31.73 52.29 39.49 51.34 47.18 C 47.74 46.70 43.87 46.75 40.63 48.62 C 35.81 50.99 31.80 57.10 34.61 62.37 C 40.67 71.91 57.92 66.05 57.96 55.05 C 58.22 43.70 57.75 32.34 58.00 20.99 C 59.99 21.96 61.98 22.95 63.99 23.89 C 60.46 20.30 56.71 16.95 53.06 13.49 C 52.04 16.90 51.72 20.46 51.89 24.01 Z" />
<path fill="#ffffff" opacity="1.00" d=" M 22.70 12.57 C 28.75 15.02 34.63 17.85 40.59 20.48 C 40.51 26.90 41.01 33.34 40.45 39.74 C 39.86 44.72 31.00 46.24 29.83 40.87 C 29.64 36.16 35.02 35.06 38.71 35.15 C 38.63 31.97 38.59 28.78 38.54 25.59 C 33.97 23.45 29.41 21.26 24.75 19.32 C 24.59 23.81 24.87 28.32 24.52 32.81 C 24.51 37.51 17.46 39.81 14.51 36.34 C 12.92 34.36 14.19 31.40 16.18 30.23 C 18.18 29.18 20.49 29.02 22.67 28.57 C 22.57 23.24 22.57 17.90 22.70 12.57 Z" />
<path fill="#2a0423" opacity="1.00" d=" M 51.89 24.01 C 51.72 20.46 52.04 16.90 53.06 13.49 C 53.83 24.78 53.21 36.10 53.46 47.39 C 52.93 47.34 51.87 47.24 51.34 47.18 C 52.29 39.49 52.16 31.73 51.89 24.01 Z" />
<path fill="#ffffff" opacity="1.00" d=" M 53.06 13.49 C 56.71 16.95 60.46 20.30 63.99 23.89 C 61.98 22.95 59.99 21.96 58.00 20.99 C 57.75 32.34 58.22 43.70 57.96 55.05 C 57.92 66.05 40.67 71.91 34.61 62.37 C 31.80 57.10 35.81 50.99 40.63 48.62 C 43.87 46.75 47.74 46.70 51.34 47.18 C 51.87 47.24 52.93 47.34 53.46 47.39 C 53.21 36.10 53.83 24.78 53.06 13.49 Z" />
<path fill="#320f2b" opacity="1.00" d=" M 84.91 48.21 C 85.43 48.45 86.46 48.94 86.98 49.19 C 87.35 56.84 87.62 64.51 87.46 72.17 C 85.57 76.92 79.35 78.62 75.18 75.70 C 75.56 75.61 76.34 75.44 76.72 75.35 C 79.74 74.44 84.73 74.62 85.30 70.58 C 86.03 64.11 85.67 57.54 85.23 51.06 C 85.13 50.11 85.02 49.16 84.91 48.21 Z" />
<path fill="#ffffff" opacity="1.00" d=" M 67.29 54.08 C 73.23 52.85 79.19 51.67 85.23 51.06 C 85.67 57.54 86.03 64.11 85.30 70.58 C 84.73 74.62 79.74 74.44 76.72 75.35 C 76.29 73.44 75.54 71.53 75.71 69.54 C 77.23 66.74 80.86 66.66 83.60 65.88 C 83.63 63.03 83.66 60.17 83.70 57.32 C 78.91 58.33 74.12 59.29 69.32 60.24 C 69.24 65.03 69.83 69.92 68.71 74.63 C 67.50 78.68 59.97 79.44 59.09 74.83 C 58.89 70.54 64.22 69.95 67.20 68.59 C 67.24 63.75 67.26 58.92 67.29 54.08 Z" />
</svg>
