<?xml version="1.0" encoding="UTF-8" ?>
<!DOCTYPE svg PUBLIC "-//W3C//DTD SVG 1.1//EN" "http://www.w3.org/Graphics/SVG/1.1/DTD/svg11.dtd">
<svg width="100pt" height="100pt" viewBox="0 0 100 100" version="1.1" xmlns="http://www.w3.org/2000/svg">
<path fill="#c6bebe" opacity="1.00" d=" M 45.07 18.06 C 48.02 16.31 49.58 13.20 51.07 10.26 C 58.66 13.53 65.48 18.25 72.58 22.43 C 77.52 25.30 81.51 29.46 85.82 33.15 C 84.54 34.18 83.25 35.22 81.97 36.25 C 84.58 38.04 87.20 39.82 89.86 41.54 C 88.32 46.64 86.22 51.55 84.72 56.66 C 83.87 59.17 86.14 61.62 85.16 64.12 C 83.70 68.33 82.27 72.79 79.09 76.05 C 76.50 78.61 76.07 82.45 74.01 85.35 C 58.03 85.57 42.00 85.62 26.03 85.32 C 23.65 82.52 23.49 78.50 21.61 75.39 C 19.30 73.19 16.22 72.07 13.52 70.46 C 15.48 69.48 17.45 68.52 19.40 67.50 C 14.54 63.69 9.10 60.65 2.95 59.57 C 6.68 57.32 10.51 55.23 14.41 53.27 C 11.13 52.23 7.82 51.25 4.55 50.17 C 6.89 48.81 9.25 47.50 11.60 46.17 C 11.14 44.60 10.69 43.03 10.25 41.45 C 21.92 33.76 33.43 25.81 45.07 18.06 M 52.25 12.98 C 50.30 16.93 47.63 20.60 43.66 22.71 C 34.54 28.50 25.78 34.85 16.78 40.82 C 14.54 41.98 14.49 44.59 14.21 46.78 C 12.83 47.79 11.49 48.87 10.09 49.87 C 12.49 50.57 14.89 51.24 17.28 51.93 C 17.45 52.77 17.62 53.61 17.78 54.45 C 14.53 55.74 11.34 57.20 8.28 58.92 C 12.65 59.79 17.04 60.49 21.39 61.42 C 20.05 62.11 18.70 62.79 17.35 63.48 C 19.27 65.04 21.19 66.62 23.08 68.21 C 21.62 69.10 20.15 69.98 18.69 70.86 C 20.64 72.02 22.83 72.92 24.43 74.60 C 26.07 76.93 26.87 79.72 27.94 82.34 C 42.59 82.41 57.24 82.47 71.89 82.30 C 73.20 79.08 74.89 75.93 77.71 73.77 C 81.29 71.00 82.20 66.40 83.61 62.37 C 82.54 61.39 81.47 60.42 80.40 59.44 C 82.23 53.92 84.21 48.46 86.12 42.97 C 83.44 40.99 80.74 39.05 78.03 37.13 C 79.49 35.71 80.95 34.30 82.41 32.88 C 73.82 24.30 62.84 18.67 52.25 12.98 Z" />
<path fill="#217a7a" opacity="1.00" d=" M 52.25 12.98 C 62.84 18.67 73.82 24.30 82.41 32.88 C 80.95 34.30 79.49 35.71 78.03 37.13 C 80.74 39.05 83.44 40.99 86.12 42.97 C 84.21 48.46 82.23 53.92 80.40 59.44 C 81.47 60.42 82.54 61.39 83.61 62.37 C 82.20 66.40 81.29 71.00 77.71 73.77 C 74.89 75.93 73.20 79.08 71.89 82.30 C 57.24 82.47 42.59 82.41 27.94 82.34 C 26.87 79.72 26.07 76.93 24.43 74.60 C 22.83 72.92 20.64 72.02 18.69 70.86 C 20.15 69.98 21.62 69.10 23.08 68.21 C 21.19 66.62 19.27 65.04 17.35 63.48 C 18.70 62.79 20.05 62.11 21.39 61.42 C 17.04 60.49 12.65 59.79 8.28 58.92 C 11.34 57.20 14.53 55.74 17.78 54.45 C 17.62 53.61 17.45 52.77 17.28 51.93 C 14.89 51.24 12.49 50.57 10.09 49.87 C 11.49 48.87 12.83 47.79 14.21 46.78 C 14.49 44.59 14.54 41.98 16.78 40.82 C 25.78 34.85 34.54 28.50 43.66 22.71 C 47.63 20.60 50.30 16.93 52.25 12.98 M 53.16 16.14 C 52.18 18.40 51.20 20.67 50.20 22.93 C 56.52 29.22 63.99 34.23 72.11 37.90 C 74.31 36.25 76.52 34.61 78.73 32.96 C 71.30 25.85 61.88 21.40 53.16 16.14 M 44.18 41.21 C 40.03 46.78 35.64 52.18 31.78 57.96 C 34.80 59.45 37.91 60.75 40.87 62.35 C 44.36 64.23 46.75 67.62 50.22 69.54 C 53.11 69.59 55.89 68.59 58.71 68.04 C 63.46 66.80 69.07 66.72 72.35 62.51 C 69.79 60.61 67.41 57.35 63.83 57.95 C 59.45 58.27 55.11 57.36 50.83 56.54 C 52.84 56.26 54.84 56.01 56.84 55.76 C 58.81 49.09 63.33 43.82 67.74 38.64 C 60.86 36.19 55.71 30.99 50.83 25.78 C 49.18 31.14 47.45 36.58 44.18 41.21 M 38.05 37.77 C 32.16 38.32 26.35 39.56 20.81 41.61 C 27.73 41.23 34.75 39.67 41.59 41.63 C 43.07 39.46 44.55 37.28 46.07 35.14 C 43.54 36.40 40.91 37.58 38.05 37.77 M 30.99 47.08 C 25.54 47.50 20.06 47.95 14.74 49.33 C 21.14 49.52 27.61 49.02 33.89 50.50 C 35.23 48.36 36.58 46.22 37.97 44.13 C 35.81 45.43 33.63 47.01 30.99 47.08 M 12.78 58.33 C 18.21 58.27 23.64 58.36 29.01 59.26 C 29.81 57.73 30.61 56.21 31.41 54.70 C 25.22 56.00 18.78 56.10 12.78 58.33 M 70.72 57.84 C 72.83 60.01 75.11 62.00 77.36 64.01 C 76.87 65.66 76.37 67.32 75.89 68.98 C 69.28 70.81 62.65 72.55 55.97 74.11 C 50.98 75.44 46.88 71.30 42.62 69.42 C 36.42 65.51 28.97 64.97 21.86 64.46 C 25.76 65.96 29.82 67.00 33.82 68.21 C 39.37 69.86 44.10 73.31 49.30 75.73 C 53.07 77.76 57.31 75.76 61.19 75.13 C 66.48 73.70 72.15 73.46 77.18 71.20 C 78.87 68.77 79.69 65.87 80.79 63.14 C 77.48 61.28 74.17 59.42 70.72 57.84 M 30.70 60.08 C 33.82 62.64 37.58 65.03 41.82 64.16 C 38.54 61.83 34.66 60.59 30.70 60.08 M 61.37 68.21 C 57.88 68.80 54.37 69.37 50.99 70.46 C 54.47 72.55 58.43 70.62 62.09 70.14 C 66.47 69.00 72.08 69.27 74.60 64.76 C 70.12 65.65 65.88 67.46 61.37 68.21 M 23.70 71.19 C 30.15 73.18 36.85 74.23 43.50 75.31 C 37.30 72.46 30.60 70.42 23.70 71.19 Z" />
<path fill="#ffffff" opacity="1.00" d=" M 53.16 16.14 C 61.88 21.40 71.30 25.85 78.73 32.96 C 76.52 34.61 74.31 36.25 72.11 37.90 C 63.99 34.23 56.52 29.22 50.20 22.93 C 51.20 20.67 52.18 18.40 53.16 16.14 Z" />
<path fill="#ffffff" opacity="1.00" d=" M 44.18 41.21 C 47.45 36.58 49.18 31.14 50.83 25.78 C 55.71 30.99 60.86 36.19 67.74 38.64 C 63.33 43.82 58.81 49.09 56.84 55.76 C 54.84 56.01 52.84 56.26 50.83 56.54 C 55.11 57.36 59.45 58.27 63.83 57.95 C 67.41 57.35 69.79 60.61 72.35 62.51 C 69.07 66.72 63.46 66.80 58.71 68.04 C 55.89 68.59 53.11 69.59 50.22 69.54 C 46.75 67.62 44.36 64.23 40.87 62.35 C 37.91 60.75 34.80 59.45 31.78 57.96 C 35.64 52.18 40.03 46.78 44.18 41.21 Z" />
<path fill="#ffffff" opacity="1.00" d=" M 38.05 37.77 C 40.91 37.58 43.54 36.40 46.07 35.14 C 44.55 37.28 43.07 39.46 41.59 41.63 C 34.75 39.67 27.73 41.23 20.81 41.61 C 26.35 39.56 32.16 38.32 38.05 37.77 Z" />
<path fill="#ffffff" opacity="1.00" d=" M 30.99 47.08 C 33.63 47.01 35.81 45.43 37.97 44.13 C 36.58 46.22 35.23 48.36 33.89 50.50 C 27.61 49.02 21.14 49.52 14.74 49.33 C 20.06 47.95 25.54 47.50 30.99 47.08 Z" />
<path fill="#ffffff" opacity="1.00" d=" M 12.78 58.33 C 18.78 56.10 25.22 56.00 31.41 54.70 C 30.61 56.21 29.81 57.73 29.01 59.26 C 23.64 58.36 18.21 58.27 12.78 58.33 Z" />
<path fill="#ffffff" opacity="1.00" d=" M 70.72 57.84 C 74.17 59.42 77.48 61.28 80.79 63.14 C 79.69 65.87 78.87 68.77 77.18 71.20 C 72.15 73.46 66.48 73.70 61.19 75.13 C 57.31 75.76 53.07 77.76 49.30 75.73 C 44.10 73.31 39.37 69.86 33.82 68.21 C 29.82 67.00 25.76 65.96 21.86 64.46 C 28.97 64.97 36.42 65.51 42.62 69.42 C 46.88 71.30 50.98 75.44 55.97 74.11 C 62.65 72.55 69.28 70.81 75.89 68.98 C 76.37 67.32 76.87 65.66 77.36 64.01 C 75.11 62.00 72.83 60.01 70.72 57.84 Z" />
<path fill="#ffffff" opacity="1.00" d=" M 30.70 60.08 C 34.66 60.59 38.54 61.83 41.82 64.16 C 37.58 65.03 33.82 62.64 30.70 60.08 Z" />
<path fill="#ffffff" opacity="1.00" d=" M 61.37 68.21 C 65.88 67.46 70.12 65.65 74.60 64.76 C 72.08 69.27 66.47 69.00 62.09 70.14 C 58.43 70.62 54.47 72.55 50.99 70.46 C 54.37 69.37 57.88 68.80 61.37 68.21 Z" />
<path fill="#ffffff" opacity="1.00" d=" M 23.70 71.19 C 30.60 70.42 37.30 72.46 43.50 75.31 C 36.85 74.23 30.15 73.18 23.70 71.19 Z" />
</svg>
