<?xml version="1.0" encoding="UTF-8" ?>
<!DOCTYPE svg PUBLIC "-//W3C//DTD SVG 1.1//EN" "http://www.w3.org/Graphics/SVG/1.1/DTD/svg11.dtd">
<svg width="100pt" height="100pt" viewBox="0 0 100 100" version="1.1" xmlns="http://www.w3.org/2000/svg">
<path fill="#c0bac2" opacity="1.00" d=" M 37.24 22.19 C 41.92 20.43 46.00 17.51 50.01 14.59 C 54.99 18.21 60.09 21.70 65.72 24.24 C 71.22 26.78 75.00 31.71 80.00 34.97 C 83.26 37.22 86.57 39.39 89.90 41.54 C 87.36 49.05 84.40 56.44 83.03 64.28 C 80.72 71.39 76.54 77.78 74.78 85.12 C 70.82 85.28 66.77 84.94 62.90 85.99 C 58.68 87.08 54.43 88.49 50.01 88.34 C 46.27 88.17 42.67 87.11 39.08 86.15 C 34.58 84.83 29.85 85.32 25.23 85.16 C 22.93 77.88 20.23 70.75 17.19 63.76 C 14.79 56.37 12.87 48.82 10.11 41.54 C 14.59 38.63 19.26 35.88 23.01 32.01 C 27.09 27.90 31.83 24.34 37.24 22.19 M 31.51 27.44 C 24.93 31.72 20.73 38.68 14.16 43.00 C 16.49 50.02 16.49 57.65 19.53 64.46 C 21.57 69.01 24.33 73.21 26.10 77.89 C 26.99 79.60 27.53 82.35 29.99 82.16 C 37.18 82.61 43.75 86.33 51.01 86.19 C 58.23 86.18 64.77 82.51 71.92 81.92 C 73.93 77.42 76.69 73.34 79.10 69.05 C 81.49 64.80 81.90 59.86 82.50 55.12 C 83.01 50.87 84.64 46.89 86.11 42.91 C 81.06 39.74 76.40 36.02 72.46 31.53 C 66.49 24.91 57.09 23.88 50.08 18.78 C 44.31 22.57 37.21 23.54 31.51 27.44 Z" />
<path fill="#26960f" opacity="1.00" d=" M 31.51 27.44 C 37.21 23.54 44.31 22.57 50.08 18.78 C 57.09 23.88 66.49 24.91 72.46 31.53 C 76.40 36.02 81.06 39.74 86.11 42.91 C 84.64 46.89 83.01 50.87 82.50 55.12 C 81.90 59.86 81.49 64.80 79.10 69.05 C 76.69 73.34 73.93 77.42 71.92 81.92 C 64.77 82.51 58.23 86.18 51.01 86.19 C 43.75 86.33 37.18 82.61 29.99 82.16 C 27.53 82.35 26.99 79.60 26.10 77.89 C 24.33 73.21 21.57 69.01 19.53 64.46 C 16.49 57.65 16.49 50.02 14.16 43.00 C 20.73 38.68 24.93 31.72 31.51 27.44 M 32.46 29.48 C 25.05 34.58 18.16 42.48 18.61 52.03 C 19.24 59.62 22.21 67.07 26.95 73.03 C 34.25 82.14 47.13 85.79 58.31 83.06 C 70.35 80.27 80.56 68.94 79.69 56.21 C 78.55 61.15 78.22 66.62 74.76 70.64 C 70.39 75.93 64.62 80.37 57.98 82.30 C 51.58 82.82 45.10 81.76 38.90 80.21 C 32.57 78.72 27.69 73.77 24.83 68.11 C 22.06 62.52 19.26 56.42 20.25 50.01 C 20.57 44.40 24.34 39.88 28.08 36.04 C 31.17 32.74 34.30 28.98 38.92 27.93 C 47.22 25.83 56.59 25.35 64.31 29.64 C 70.91 33.31 74.88 39.98 79.25 45.87 C 75.76 35.84 67.23 27.60 56.79 25.22 C 48.56 23.09 39.35 24.31 32.46 29.48 M 43.33 30.36 C 40.37 30.93 37.46 32.12 35.35 34.33 C 31.08 38.49 26.25 42.93 25.27 49.12 C 24.27 54.22 26.89 58.93 28.51 63.59 C 30.06 68.14 33.04 72.26 37.25 74.69 C 43.03 77.77 49.76 78.58 56.19 79.23 C 61.90 78.43 65.97 73.63 70.02 69.93 C 73.25 67.30 73.29 62.89 73.93 59.11 C 74.48 54.46 75.52 49.30 72.96 45.04 C 70.39 40.50 67.28 36.10 63.07 32.93 C 57.38 28.88 49.89 29.09 43.33 30.36 Z" />
<path fill="#ffffff" opacity="1.00" d=" M 32.46 29.48 C 39.35 24.31 48.56 23.09 56.79 25.22 C 67.23 27.60 75.76 35.84 79.25 45.87 C 74.88 39.98 70.91 33.31 64.31 29.64 C 56.59 25.35 47.22 25.83 38.92 27.93 C 34.30 28.98 31.17 32.74 28.08 36.04 C 24.34 39.88 20.57 44.40 20.25 50.01 C 19.26 56.42 22.06 62.52 24.83 68.11 C 27.69 73.77 32.57 78.72 38.90 80.21 C 45.10 81.76 51.58 82.82 57.98 82.30 C 64.62 80.37 70.39 75.93 74.76 70.64 C 78.22 66.62 78.55 61.15 79.69 56.21 C 80.56 68.94 70.35 80.27 58.31 83.06 C 47.13 85.79 34.25 82.14 26.95 73.03 C 22.21 67.07 19.24 59.62 18.61 52.03 C 18.16 42.48 25.05 34.58 32.46 29.48 Z" />
<path fill="#ffffff" opacity="1.00" d=" M 43.33 30.36 C 49.89 29.09 57.38 28.88 63.07 32.93 C 67.28 36.10 70.39 40.50 72.96 45.04 C 75.52 49.30 74.48 54.46 73.93 59.11 C 73.29 62.89 73.25 67.30 70.02 69.93 C 65.97 73.63 61.90 78.43 56.19 79.23 C 49.76 78.58 43.03 77.77 37.25 74.69 C 33.04 72.26 30.06 68.14 28.51 63.59 C 26.89 58.93 24.27 54.22 25.27 49.12 C 26.25 42.93 31.08 38.49 35.35 34.33 C 37.46 32.12 40.37 30.93 43.33 30.36 M 44.32 32.36 C 38.43 32.95 34.48 37.73 30.76 41.79 C 27.24 45.74 25.57 51.45 27.30 56.57 C 28.97 61.81 30.23 67.66 34.60 71.41 C 39.61 75.94 46.74 76.17 53.09 77.09 C 59.40 78.37 64.13 73.07 68.56 69.49 C 72.47 66.73 72.97 61.71 73.75 57.38 C 74.24 53.73 74.99 49.62 72.73 46.38 C 69.91 41.97 66.67 37.64 62.32 34.64 C 57.06 31.09 50.31 31.35 44.32 32.36 Z" />
<path fill="#26960f" opacity="1.00" d=" M 44.32 32.36 C 50.31 31.35 57.06 31.09 62.32 34.64 C 66.67 37.64 69.91 41.97 72.73 46.38 C 74.99 49.62 74.24 53.73 73.75 57.38 C 72.97 61.71 72.47 66.73 68.56 69.49 C 64.13 73.07 59.40 78.37 53.09 77.09 C 46.74 76.17 39.61 75.94 34.60 71.41 C 30.23 67.66 28.97 61.81 27.30 56.57 C 25.57 51.45 27.24 45.74 30.76 41.79 C 34.48 37.73 38.43 32.95 44.32 32.36 M 39.08 44.81 C 37.94 46.55 36.21 48.08 35.75 50.16 C 35.97 53.28 36.76 56.38 37.88 59.29 C 39.66 60.22 41.71 60.30 43.67 60.50 C 43.57 62.22 43.49 63.95 43.44 65.67 C 44.92 65.98 46.40 66.28 47.89 66.56 C 48.83 62.42 49.70 58.26 50.46 54.08 C 46.76 50.88 43.17 47.51 39.08 44.81 M 50.67 54.09 C 51.48 58.69 52.28 63.35 54.17 67.66 C 56.31 65.42 57.01 62.47 56.60 59.46 C 58.71 59.87 61.41 61.21 63.15 59.26 C 64.41 56.40 65.16 53.25 65.39 50.13 C 64.93 48.05 63.15 46.54 61.99 44.81 C 57.93 47.55 54.36 50.89 50.67 54.09 Z" />
<path fill="#ffffff" opacity="1.00" d=" M 39.08 44.81 C 43.17 47.51 46.76 50.88 50.46 54.08 C 49.70 58.26 48.83 62.42 47.89 66.56 C 46.40 66.28 44.92 65.98 43.44 65.67 C 43.49 63.95 43.57 62.22 43.67 60.50 C 41.71 60.30 39.66 60.22 37.88 59.29 C 36.76 56.38 35.97 53.28 35.75 50.16 C 36.21 48.08 37.94 46.55 39.08 44.81 Z" />
<path fill="#ffffff" opacity="1.00" d=" M 50.67 54.09 C 54.36 50.89 57.93 47.55 61.99 44.81 C 63.15 46.54 64.93 48.05 65.39 50.13 C 65.16 53.25 64.41 56.40 63.15 59.26 C 61.41 61.21 58.71 59.87 56.60 59.46 C 57.01 62.47 56.31 65.42 54.17 67.66 C 52.28 63.35 51.48 58.69 50.67 54.09 Z" />
</svg>
