<?xml version="1.0" encoding="UTF-8" ?>
<!DOCTYPE svg PUBLIC "-//W3C//DTD SVG 1.1//EN" "http://www.w3.org/Graphics/SVG/1.1/DTD/svg11.dtd">
<svg width="100pt" height="100pt" viewBox="0 0 100 100" version="1.1" xmlns="http://www.w3.org/2000/svg">
<path fill="#ffffff" opacity="1.00" d=" M 49.41 1.31 C 52.82 4.73 55.48 8.76 58.38 12.56 C 65.65 14.87 72.81 18.20 77.94 24.04 C 84.47 31.02 88.00 40.51 88.39 50.00 C 87.97 61.13 83.09 72.27 74.35 79.35 C 69.77 83.26 64.15 85.68 58.39 87.30 C 58.08 90.18 58.24 93.72 55.55 95.57 C 51.47 99.23 44.43 97.90 41.68 93.29 C 40.98 91.37 41.34 89.28 41.37 87.28 C 31.05 84.57 21.66 77.93 16.61 68.40 C 12.51 60.54 10.28 51.19 12.61 42.44 C 15.09 30.14 23.91 19.17 35.73 14.74 C 37.65 13.79 40.25 13.55 41.29 11.44 C 43.44 7.64 46.49 4.51 49.41 1.31 M 42.10 16.09 C 35.33 18.22 28.73 21.54 24.07 27.05 C 16.26 35.70 13.29 48.46 16.77 59.62 C 24.74 53.83 32.56 47.53 41.81 43.87 C 41.63 45.01 41.45 46.14 41.26 47.28 C 32.95 51.73 24.60 56.38 17.67 62.87 C 19.54 66.66 21.60 70.41 24.55 73.48 C 29.99 79.73 37.90 82.84 45.75 84.82 C 44.84 87.03 42.99 89.19 43.27 91.67 C 45.33 96.55 53.80 96.67 55.92 91.77 C 56.82 89.13 54.37 87.04 53.22 84.92 C 57.23 83.84 61.32 82.96 65.08 81.16 C 72.50 77.60 78.55 71.29 81.81 63.74 C 86.10 54.02 85.56 42.27 80.17 33.09 C 72.15 35.05 64.22 37.45 56.55 40.50 C 55.50 41.05 53.73 41.49 53.93 43.04 C 53.66 51.36 54.36 59.69 54.51 68.01 C 58.36 68.33 62.23 68.37 66.09 68.42 C 65.67 69.48 65.25 70.55 64.83 71.61 C 60.77 71.96 55.88 70.58 52.53 73.53 C 51.68 77.04 51.68 80.69 51.34 84.27 C 51.03 86.94 52.58 89.28 53.24 91.76 C 50.99 93.87 47.73 92.94 45.50 91.31 C 50.18 86.22 46.41 79.09 46.54 73.09 C 42.78 71.23 38.58 72.03 34.59 71.45 C 33.88 70.50 33.20 69.53 32.60 68.50 C 36.46 68.30 40.32 68.31 44.18 68.16 C 44.83 50.77 44.51 33.34 45.14 15.95 C 44.99 12.67 47.26 10.19 49.24 7.87 C 51.11 10.00 53.36 12.21 53.41 15.24 C 53.80 22.54 53.42 29.87 53.84 37.18 C 61.63 34.19 69.50 31.41 77.47 28.92 C 74.26 24.94 70.39 21.41 65.74 19.19 C 62.81 17.68 59.55 17.00 56.58 15.58 C 54.76 11.64 52.89 7.68 49.69 4.63 C 45.83 7.41 43.24 11.49 42.10 16.09 Z" />
<path fill="#3f293f" opacity="1.00" d=" M 42.10 16.09 C 43.24 11.49 45.83 7.41 49.69 4.63 C 52.89 7.68 54.76 11.64 56.58 15.58 C 59.55 17.00 62.81 17.68 65.74 19.19 C 70.39 21.41 74.26 24.94 77.47 28.92 C 69.50 31.41 61.63 34.19 53.84 37.18 C 53.42 29.87 53.80 22.54 53.41 15.24 C 53.36 12.21 51.11 10.00 49.24 7.87 C 47.26 10.19 44.99 12.67 45.14 15.95 C 44.51 33.34 44.83 50.77 44.18 68.16 C 40.32 68.31 36.46 68.30 32.60 68.50 C 33.20 69.53 33.88 70.50 34.59 71.45 C 38.58 72.03 42.78 71.23 46.54 73.09 C 46.41 79.09 50.18 86.22 45.50 91.31 C 47.73 92.94 50.99 93.87 53.24 91.76 C 52.58 89.28 51.03 86.94 51.34 84.27 C 51.68 80.69 51.68 77.04 52.53 73.53 C 55.88 70.58 60.77 71.96 64.83 71.61 C 65.25 70.55 65.67 69.48 66.09 68.42 C 62.23 68.37 58.36 68.33 54.51 68.01 C 54.36 59.69 53.66 51.36 53.93 43.04 C 53.73 41.49 55.50 41.05 56.55 40.50 C 64.22 37.45 72.15 35.05 80.17 33.09 C 85.56 42.27 86.10 54.02 81.81 63.74 C 78.55 71.29 72.50 77.60 65.08 81.16 C 61.32 82.96 57.23 83.84 53.22 84.92 C 54.37 87.04 56.82 89.13 55.92 91.77 C 53.80 96.67 45.33 96.55 43.27 91.67 C 42.99 89.19 44.84 87.03 45.75 84.82 C 37.90 82.84 29.99 79.73 24.55 73.48 C 21.60 70.41 19.54 66.66 17.67 62.87 C 24.60 56.38 32.95 51.73 41.26 47.28 C 41.45 46.14 41.63 45.01 41.81 43.87 C 32.56 47.53 24.74 53.83 16.77 59.62 C 13.29 48.46 16.26 35.70 24.07 27.05 C 28.73 21.54 35.33 18.22 42.10 16.09 Z" />
</svg>
