<?xml version="1.0" encoding="UTF-8" ?>
<!DOCTYPE svg PUBLIC "-//W3C//DTD SVG 1.1//EN" "http://www.w3.org/Graphics/SVG/1.1/DTD/svg11.dtd">
<svg width="100pt" height="100pt" viewBox="0 0 100 100" version="1.1" xmlns="http://www.w3.org/2000/svg">
<path fill="#b5bec1" opacity="1.00" d=" M 65.14 10.88 C 67.66 8.63 70.25 6.45 72.92 4.36 C 73.10 8.05 71.73 12.31 74.27 15.48 C 76.66 19.08 77.77 23.30 79.02 27.39 C 83.36 26.75 87.75 26.54 92.13 26.75 C 90.58 29.15 88.98 31.52 87.26 33.80 C 89.08 33.80 90.90 33.81 92.72 33.85 C 90.09 36.66 87.22 39.25 84.06 41.46 C 86.06 47.10 87.99 52.77 89.90 58.45 C 77.50 66.45 65.53 75.12 53.11 83.06 C 48.35 85.02 44.05 87.81 40.41 91.45 C 40.31 89.13 40.24 86.80 40.14 84.48 C 36.84 88.37 32.86 91.56 28.64 94.38 C 29.16 87.42 31.30 80.78 33.88 74.34 C 28.07 70.82 22.87 66.29 16.80 63.24 C 12.00 63.56 7.28 64.78 2.44 64.73 C 5.35 61.07 8.40 57.49 11.86 54.34 C 9.67 54.06 7.47 53.81 5.28 53.54 C 8.21 50.06 12.13 47.50 14.96 43.99 C 18.83 34.55 21.39 24.60 25.34 15.20 C 27.10 14.40 29.11 14.67 30.98 14.56 C 39.57 14.66 48.15 14.58 56.74 14.65 C 59.00 11.48 61.60 8.57 64.29 5.76 C 64.58 7.47 64.86 9.17 65.14 10.88 M 63.74 16.06 C 63.46 14.18 63.16 12.31 62.85 10.44 C 60.93 12.73 59.12 15.10 57.44 17.56 C 47.67 17.99 37.86 17.11 28.12 17.88 C 24.14 25.24 22.41 33.62 19.43 41.42 C 18.18 46.38 13.15 48.59 9.58 51.66 C 11.82 51.90 14.06 52.15 16.29 52.41 C 13.76 56.32 10.13 59.26 6.70 62.34 C 10.72 62.08 14.63 60.99 18.63 60.74 C 22.39 62.40 25.47 65.25 29.01 67.31 C 29.57 67.45 30.70 67.73 31.26 67.87 C 31.03 68.06 30.58 68.45 30.35 68.64 C 32.47 69.87 34.59 71.11 36.71 72.34 C 34.63 78.05 32.25 83.70 31.21 89.73 C 36.55 86.68 39.40 81.04 43.49 76.68 C 42.99 80.18 42.53 83.68 42.12 87.19 C 47.00 81.63 54.23 79.35 60.00 74.97 C 68.61 68.83 77.62 63.27 86.18 57.07 C 84.31 51.78 82.51 46.46 80.40 41.26 C 82.83 39.60 85.24 37.92 87.59 36.15 C 85.39 35.96 83.18 35.80 80.98 35.67 C 83.81 33.74 86.32 31.39 88.58 28.82 C 84.53 28.84 80.50 29.20 76.50 29.77 C 75.33 24.98 73.78 20.12 70.33 16.44 C 70.50 13.86 70.70 11.28 70.85 8.70 C 68.31 10.98 65.94 13.44 63.74 16.06 Z" />
<path fill="#e85a27" opacity="1.00" d=" M 63.74 16.06 C 65.94 13.44 68.31 10.98 70.85 8.70 C 70.70 11.28 70.50 13.86 70.33 16.44 C 73.78 20.12 75.33 24.98 76.50 29.77 C 80.50 29.20 84.53 28.84 88.58 28.82 C 86.32 31.39 83.81 33.74 80.98 35.67 C 83.18 35.80 85.39 35.96 87.59 36.15 C 85.24 37.92 82.83 39.60 80.40 41.26 C 82.51 46.46 84.31 51.78 86.18 57.07 C 77.62 63.27 68.61 68.83 60.00 74.97 C 54.23 79.35 47.00 81.63 42.12 87.19 C 42.53 83.68 42.99 80.18 43.49 76.68 C 39.40 81.04 36.55 86.68 31.21 89.73 C 32.25 83.70 34.63 78.05 36.71 72.34 C 34.59 71.11 32.47 69.87 30.35 68.64 C 30.58 68.45 31.03 68.06 31.26 67.87 C 36.10 63.76 40.77 59.46 45.40 55.10 C 46.41 57.50 47.34 59.92 48.21 62.37 C 48.65 57.07 49.19 51.78 49.36 46.47 C 44.19 47.02 39.03 47.64 33.88 48.34 C 36.12 49.27 38.38 50.17 40.64 51.08 C 36.17 55.64 31.67 60.19 27.08 64.64 C 27.72 65.53 28.37 66.42 29.01 67.31 C 25.47 65.25 22.39 62.40 18.63 60.74 C 14.63 60.99 10.72 62.08 6.70 62.34 C 10.13 59.26 13.76 56.32 16.29 52.41 C 14.06 52.15 11.82 51.90 9.58 51.66 C 13.15 48.59 18.18 46.38 19.43 41.42 C 22.41 33.62 24.14 25.24 28.12 17.88 C 37.86 17.11 47.67 17.99 57.44 17.56 C 59.12 15.10 60.93 12.73 62.85 10.44 C 63.16 12.31 63.46 14.18 63.74 16.06 M 62.97 21.88 C 62.05 23.52 63.62 25.16 64.01 26.73 C 66.10 22.29 67.85 17.68 68.98 12.90 C 66.82 15.78 64.56 18.63 62.97 21.88 M 55.22 27.13 C 53.52 30.93 54.78 35.11 55.11 39.06 C 53.84 39.54 52.43 39.88 51.14 39.25 C 47.07 37.64 42.87 34.50 38.30 36.24 C 31.93 38.81 25.56 41.48 19.58 44.89 C 22.44 44.53 25.37 44.39 28.13 43.49 C 23.05 45.87 17.97 48.25 13.02 50.89 C 18.95 49.36 24.72 47.27 30.58 45.48 C 38.26 43.09 46.37 42.88 54.28 41.69 C 54.56 42.20 55.13 43.21 55.41 43.72 C 54.28 49.49 53.48 55.32 52.10 61.03 C 50.06 68.59 46.40 75.57 44.21 83.08 C 48.56 76.29 51.99 68.97 56.00 61.99 C 58.55 57.80 57.38 52.74 56.71 48.20 C 57.07 46.09 57.54 43.98 57.57 41.84 C 61.53 43.23 65.99 44.58 70.13 43.09 C 74.91 41.49 79.48 39.34 84.02 37.16 C 75.29 39.30 66.50 41.66 57.41 41.08 C 57.22 40.21 57.04 39.33 56.85 38.47 C 56.43 30.64 59.27 23.31 61.10 15.85 C 58.89 19.47 56.82 23.19 55.22 27.13 M 63.12 31.34 C 62.44 29.87 61.75 28.41 61.06 26.95 C 60.68 30.28 60.30 33.62 59.95 36.96 C 63.65 37.23 67.36 37.49 71.07 37.76 C 69.36 36.77 67.65 35.79 65.95 34.81 C 68.59 32.21 71.69 29.96 73.69 26.79 C 73.70 25.41 73.48 24.04 73.33 22.67 C 69.82 25.44 66.45 28.37 63.12 31.34 M 71.12 34.25 C 72.41 34.83 73.69 35.45 75.06 35.84 C 78.84 34.81 82.02 32.34 85.25 30.22 C 80.45 31.25 75.73 32.58 71.12 34.25 M 58.22 44.92 C 58.94 51.03 60.18 57.27 58.25 63.31 C 59.66 60.81 62.34 58.39 61.64 55.25 C 61.01 51.66 59.59 48.27 58.22 44.92 M 11.79 60.14 C 18.92 58.23 25.82 55.60 32.87 53.43 C 31.94 51.57 29.77 50.98 28.13 49.95 C 22.73 53.42 16.96 56.30 11.79 60.14 M 34.06 85.15 C 38.32 79.95 41.79 74.17 45.78 68.76 C 44.83 66.93 43.89 65.10 42.94 63.27 C 40.00 70.58 36.74 77.75 34.06 85.15 Z" />
<path fill="#ffffff" opacity="1.00" d=" M 62.97 21.88 C 64.56 18.63 66.82 15.78 68.98 12.90 C 67.85 17.68 66.10 22.29 64.01 26.73 C 63.62 25.16 62.05 23.52 62.97 21.88 Z" />
<path fill="#ffffff" opacity="1.00" d=" M 55.22 27.13 C 56.82 23.19 58.89 19.47 61.10 15.85 C 59.27 23.31 56.43 30.64 56.85 38.47 C 56.41 38.61 55.54 38.91 55.11 39.06 C 54.78 35.11 53.52 30.93 55.22 27.13 Z" />
<path fill="#ffffff" opacity="1.00" d=" M 63.12 31.34 C 66.45 28.37 69.82 25.44 73.33 22.67 C 73.48 24.04 73.70 25.41 73.69 26.79 C 71.69 29.96 68.59 32.21 65.95 34.81 C 67.65 35.79 69.36 36.77 71.07 37.76 C 67.36 37.49 63.65 37.23 59.95 36.96 C 60.30 33.62 60.68 30.28 61.06 26.95 C 61.75 28.41 62.44 29.87 63.12 31.34 Z" />
<path fill="#ffffff" opacity="1.00" d=" M 71.12 34.25 C 75.73 32.58 80.45 31.25 85.25 30.22 C 82.02 32.34 78.84 34.81 75.06 35.84 C 73.69 35.45 72.41 34.83 71.12 34.25 Z" />
<path fill="#eb6e42" opacity="1.00" d=" M 38.30 36.24 C 42.87 34.50 47.07 37.64 51.14 39.25 C 52.43 39.88 53.84 39.54 55.11 39.06 C 55.54 38.91 56.41 38.61 56.85 38.47 C 57.04 39.33 57.22 40.21 57.41 41.08 L 57.57 41.84 C 57.54 43.98 57.07 46.09 56.71 48.20 C 56.35 46.69 55.92 45.19 55.41 43.72 C 55.13 43.21 54.56 42.20 54.28 41.69 C 50.24 40.38 46.04 39.44 41.79 39.22 C 36.88 39.07 32.54 41.72 28.13 43.49 C 25.37 44.39 22.44 44.53 19.58 44.89 C 25.56 41.48 31.93 38.81 38.30 36.24 Z" />
<path fill="#ffffff" opacity="1.00" d=" M 57.41 41.08 C 66.50 41.66 75.29 39.30 84.02 37.16 C 79.48 39.34 74.91 41.49 70.13 43.09 C 65.99 44.58 61.53 43.23 57.57 41.84 L 57.41 41.08 Z" />
<path fill="#ffffff" opacity="1.00" d=" M 28.13 43.49 C 32.54 41.72 36.88 39.07 41.79 39.22 C 46.04 39.44 50.24 40.38 54.28 41.69 C 46.37 42.88 38.26 43.09 30.58 45.48 C 24.72 47.27 18.95 49.36 13.02 50.89 C 17.97 48.25 23.05 45.87 28.13 43.49 Z" />
<path fill="#ffffff" opacity="1.00" d=" M 55.41 43.72 C 55.92 45.19 56.35 46.69 56.71 48.20 C 57.38 52.74 58.55 57.80 56.00 61.99 C 51.99 68.97 48.56 76.29 44.21 83.08 C 46.40 75.57 50.06 68.59 52.10 61.03 C 53.48 55.32 54.28 49.49 55.41 43.72 Z" />
<path fill="#ffffff" opacity="1.00" d=" M 58.22 44.92 C 59.59 48.27 61.01 51.66 61.64 55.25 C 62.34 58.39 59.66 60.81 58.25 63.31 C 60.18 57.27 58.94 51.03 58.22 44.92 Z" />
<path fill="#ffffff" opacity="1.00" d=" M 33.88 48.34 C 39.03 47.64 44.19 47.02 49.36 46.47 C 49.19 51.78 48.65 57.07 48.21 62.37 C 47.34 59.92 46.41 57.50 45.40 55.10 C 40.77 59.46 36.10 63.76 31.26 67.87 C 30.70 67.73 29.57 67.45 29.01 67.31 C 28.37 66.42 27.72 65.53 27.08 64.64 C 31.67 60.19 36.17 55.64 40.64 51.08 C 38.38 50.17 36.12 49.27 33.88 48.34 Z" />
<path fill="#ffffff" opacity="1.00" d=" M 11.79 60.14 C 16.96 56.30 22.73 53.42 28.13 49.95 C 29.77 50.98 31.94 51.57 32.87 53.43 C 25.82 55.60 18.92 58.23 11.79 60.14 Z" />
<path fill="#ffffff" opacity="1.00" d=" M 34.06 85.15 C 36.74 77.75 40.00 70.58 42.94 63.27 C 43.89 65.10 44.83 66.93 45.78 68.76 C 41.79 74.17 38.32 79.95 34.06 85.15 Z" />
</svg>
