<?xml version="1.0" encoding="UTF-8" ?>
<!DOCTYPE svg PUBLIC "-//W3C//DTD SVG 1.1//EN" "http://www.w3.org/Graphics/SVG/1.1/DTD/svg11.dtd">
<svg width="100pt" height="100pt" viewBox="0 0 100 100" version="1.1" xmlns="http://www.w3.org/2000/svg">
<path fill="#b8b8b8" opacity="1.00" d=" M 35.66 17.67 C 42.26 14.07 49.76 12.60 57.18 11.96 C 53.44 14.64 49.53 17.07 45.83 19.81 C 51.89 18.79 58.02 18.19 64.17 18.32 C 62.64 19.57 61.11 20.83 59.58 22.09 C 67.97 22.25 76.36 22.13 84.75 22.16 C 84.72 44.02 84.68 65.87 84.77 87.72 C 62.92 87.73 41.07 87.74 19.21 87.72 C 19.25 83.46 19.47 79.20 19.21 74.94 C 19.06 70.37 15.03 66.75 15.68 62.07 C 15.98 55.71 17.79 49.54 17.63 43.13 C 18.91 36.24 19.74 29.28 19.23 22.25 C 22.35 22.14 25.55 22.46 28.59 21.64 C 31.08 20.57 33.26 18.91 35.66 17.67 M 36.83 18.88 C 32.56 21.58 28.59 24.80 23.91 26.83 C 22.81 30.66 21.34 34.38 20.27 38.22 C 19.15 42.20 19.40 46.37 19.31 50.45 C 19.24 54.94 17.98 59.38 18.46 63.88 C 19.00 67.11 20.81 69.90 21.97 72.92 C 23.41 76.39 23.32 80.23 23.52 83.92 C 42.86 84.00 62.21 84.23 81.55 83.85 C 81.46 64.58 81.64 45.31 81.54 26.04 C 71.24 25.53 60.92 25.98 50.60 25.76 C 53.41 23.73 56.29 21.79 59.10 19.76 C 51.32 19.61 44.52 23.47 37.37 25.85 C 41.19 20.86 46.57 17.52 51.46 13.70 C 46.35 14.63 41.25 16.07 36.83 18.88 Z" />
<path fill="#b61c2e" opacity="1.00" d=" M 36.83 18.88 C 41.25 16.07 46.35 14.63 51.46 13.70 C 46.57 17.52 41.19 20.86 37.37 25.85 C 44.52 23.47 51.32 19.61 59.10 19.76 C 56.29 21.79 53.41 23.73 50.60 25.76 C 60.92 25.98 71.24 25.53 81.54 26.04 C 81.64 45.31 81.46 64.58 81.55 83.85 C 62.21 84.23 42.86 84.00 23.52 83.92 C 23.32 80.23 23.41 76.39 21.97 72.92 C 20.81 69.90 19.00 67.11 18.46 63.88 C 17.98 59.38 19.24 54.94 19.31 50.45 C 19.40 46.37 19.15 42.20 20.27 38.22 C 21.34 34.38 22.81 30.66 23.91 26.83 C 28.59 24.80 32.56 21.58 36.83 18.88 M 25.56 32.46 C 22.13 37.93 21.33 44.54 21.90 50.86 C 25.84 49.68 28.29 46.44 30.37 43.12 C 35.93 43.33 41.90 43.43 47.02 41.09 C 51.25 36.79 55.81 32.86 61.02 29.77 C 56.80 30.90 52.74 32.57 48.57 33.87 C 51.73 31.09 55.35 28.93 58.91 26.70 C 51.33 28.62 44.98 33.25 38.45 37.31 C 41.08 30.60 46.83 26.13 52.26 21.77 C 44.13 24.47 38.10 30.78 32.84 37.25 C 33.38 34.95 33.97 32.66 34.53 30.36 C 31.79 33.13 29.33 36.14 26.71 39.00 C 28.06 34.88 29.67 30.77 32.30 27.28 C 35.00 23.54 38.82 20.87 42.12 17.70 C 35.36 20.93 29.38 25.98 25.56 32.46 M 67.81 41.01 C 73.31 44.58 77.31 49.82 80.29 55.58 C 80.56 50.19 80.61 44.78 80.34 39.39 C 76.12 39.52 71.92 40.04 67.81 41.01 M 67.86 43.47 C 70.73 47.58 74.52 51.25 75.86 56.23 C 77.39 61.33 76.43 66.69 76.57 71.91 C 81.63 62.17 77.55 48.72 67.86 43.47 C 66.64 40.36 65.54 45.90 67.86 43.47 M 33.06 45.14 C 29.62 44.94 28.87 48.85 27.49 51.19 C 30.33 51.06 33.17 50.85 36.01 50.77 C 32.10 53.22 27.47 53.06 23.10 52.29 C 22.38 53.84 21.63 55.38 20.89 56.92 C 24.93 58.69 29.14 60.00 33.26 61.57 C 29.31 61.25 25.38 60.71 21.43 60.30 C 21.48 61.89 21.44 63.49 21.24 65.07 C 25.19 66.08 29.14 67.27 32.73 69.26 C 29.15 68.80 25.60 68.13 22.01 67.69 C 23.69 72.47 28.82 73.17 33.03 74.52 C 30.94 74.46 28.85 74.40 26.75 74.37 C 28.31 76.35 29.47 79.43 32.43 79.47 C 37.57 79.74 42.38 77.29 47.31 76.18 C 54.63 74.37 59.75 66.04 57.40 58.75 C 56.07 53.63 51.63 50.38 48.02 46.87 C 43.85 43.36 38.00 44.80 33.06 45.14 M 57.37 48.63 C 59.61 52.15 62.07 55.66 63.18 59.74 C 64.16 63.51 63.11 67.38 62.44 71.11 C 66.68 70.32 70.87 69.28 75.03 68.14 C 74.92 62.90 74.96 57.37 72.39 52.63 C 70.50 49.27 68.09 45.54 64.19 44.37 C 61.76 45.52 59.63 47.19 57.37 48.63 M 53.90 49.83 C 56.02 53.62 58.63 57.51 58.63 62.02 C 58.65 66.06 58.05 70.07 57.74 74.10 C 59.80 71.78 61.53 69.03 61.65 65.84 C 62.42 59.74 59.07 54.26 56.02 49.29 C 55.49 49.42 54.43 49.69 53.90 49.83 M 67.61 71.72 C 70.06 71.88 72.52 71.51 74.62 70.17 C 72.23 70.43 69.87 70.91 67.61 71.72 Z" />
<path fill="#ffffff" opacity="1.00" d=" M 25.56 32.46 C 29.38 25.98 35.36 20.93 42.12 17.70 C 38.82 20.87 35.00 23.54 32.30 27.28 C 29.67 30.77 28.06 34.88 26.71 39.00 C 29.33 36.14 31.79 33.13 34.53 30.36 C 33.97 32.66 33.38 34.95 32.84 37.25 C 38.10 30.78 44.13 24.47 52.26 21.77 C 46.83 26.13 41.08 30.60 38.45 37.31 C 44.98 33.25 51.33 28.62 58.91 26.70 C 55.35 28.93 51.73 31.09 48.57 33.87 C 52.74 32.57 56.80 30.90 61.02 29.77 C 55.81 32.86 51.25 36.79 47.02 41.09 C 41.90 43.43 35.93 43.33 30.37 43.12 C 28.29 46.44 25.84 49.68 21.90 50.86 C 21.33 44.54 22.13 37.93 25.56 32.46 Z" />
<path fill="#ffffff" opacity="1.00" d=" M 67.81 41.01 C 71.92 40.04 76.12 39.52 80.34 39.39 C 80.61 44.78 80.56 50.19 80.29 55.58 C 77.31 49.82 73.31 44.58 67.81 41.01 Z" />
<path fill="#f6e2e5" opacity="1.00" d=" M 67.86 43.47 C 65.54 45.90 66.64 40.36 67.86 43.47 Z" />
<path fill="#ffffff" opacity="1.00" d=" M 33.06 45.14 C 38.00 44.80 43.85 43.36 48.02 46.87 C 51.63 50.38 56.07 53.63 57.40 58.75 C 59.75 66.04 54.63 74.37 47.31 76.18 C 42.38 77.29 37.57 79.74 32.43 79.47 C 29.47 79.43 28.31 76.35 26.75 74.37 C 28.85 74.40 30.94 74.46 33.03 74.52 C 28.82 73.17 23.69 72.47 22.01 67.69 C 25.60 68.13 29.15 68.80 32.73 69.26 C 29.14 67.27 25.19 66.08 21.24 65.07 C 21.44 63.49 21.48 61.89 21.43 60.30 C 25.38 60.71 29.31 61.25 33.26 61.57 C 29.14 60.00 24.93 58.69 20.89 56.92 C 21.63 55.38 22.38 53.84 23.10 52.29 C 27.47 53.06 32.10 53.22 36.01 50.77 C 33.17 50.85 30.33 51.06 27.49 51.19 C 28.87 48.85 29.62 44.94 33.06 45.14 Z" />
<path fill="#ffffff" opacity="1.00" d=" M 57.37 48.63 C 59.63 47.19 61.76 45.52 64.19 44.37 C 68.09 45.54 70.50 49.27 72.39 52.63 C 74.96 57.37 74.92 62.90 75.03 68.14 C 70.87 69.28 66.68 70.32 62.44 71.11 C 63.11 67.38 64.16 63.51 63.18 59.74 C 62.07 55.66 59.61 52.15 57.37 48.63 Z" />
<path fill="#ffffff" opacity="1.00" d=" M 67.86 43.47 C 77.55 48.72 81.63 62.17 76.57 71.91 C 76.43 66.69 77.39 61.33 75.86 56.23 C 74.52 51.25 70.73 47.58 67.86 43.47 Z" />
<path fill="#ffffff" opacity="1.00" d=" M 53.90 49.83 C 54.43 49.69 55.49 49.42 56.02 49.29 C 59.07 54.26 62.42 59.74 61.65 65.84 C 61.53 69.03 59.80 71.78 57.74 74.10 C 58.05 70.07 58.65 66.06 58.63 62.02 C 58.63 57.51 56.02 53.62 53.90 49.83 Z" />
<path fill="#ffffff" opacity="1.00" d=" M 67.61 71.72 C 69.87 70.91 72.23 70.43 74.62 70.17 C 72.52 71.51 70.06 71.88 67.61 71.72 Z" />
</svg>
