<?xml version="1.0" encoding="UTF-8" ?>
<!DOCTYPE svg PUBLIC "-//W3C//DTD SVG 1.1//EN" "http://www.w3.org/Graphics/SVG/1.1/DTD/svg11.dtd">
<svg width="100pt" height="100pt" viewBox="0 0 100 100" version="1.1" xmlns="http://www.w3.org/2000/svg">
<path fill="#bebebc" opacity="1.00" d=" M 43.84 14.80 C 48.55 14.02 53.18 12.28 58.02 12.70 C 65.81 13.43 73.53 16.35 79.39 21.62 C 89.29 30.33 94.05 45.06 89.74 57.72 C 86.38 69.41 76.48 78.92 64.60 81.65 C 58.84 82.76 53.85 88.52 47.67 86.38 C 42.20 84.95 40.40 78.91 35.91 76.07 C 28.58 70.92 23.45 62.80 21.94 53.97 C 21.21 49.91 21.43 45.77 21.60 41.67 C 18.87 42.42 16.06 43.75 13.16 43.13 C 10.58 42.43 8.01 39.95 8.64 37.06 C 9.52 32.41 12.31 27.82 16.67 25.69 C 19.32 24.18 22.23 23.21 24.98 21.91 C 27.83 20.57 29.77 17.81 32.78 16.73 C 36.29 15.27 40.16 15.44 43.84 14.80 M 37.16 17.24 C 33.84 17.54 31.24 19.74 28.68 21.65 C 24.29 24.92 18.40 25.55 14.38 29.38 C 11.72 32.07 9.85 36.03 10.85 39.85 C 11.87 40.71 13.11 41.62 14.53 41.36 C 17.96 41.05 21.37 40.37 24.84 40.57 C 24.16 48.55 24.45 57.09 28.95 64.03 C 32.02 70.15 39.03 72.93 41.92 79.16 C 43.79 83.51 48.98 86.49 53.59 84.64 C 57.94 82.84 61.41 79.36 65.98 77.98 C 73.68 75.58 80.30 70.13 84.20 63.08 C 90.47 51.93 89.01 37.06 80.68 27.36 C 74.84 20.54 66.13 16.03 57.06 16.10 C 50.42 16.14 43.76 16.46 37.16 17.24 Z" />
<path fill="#2b4269" opacity="1.00" d=" M 37.16 17.24 C 43.76 16.46 50.42 16.14 57.06 16.10 C 66.13 16.03 74.84 20.54 80.68 27.36 C 89.01 37.06 90.47 51.93 84.20 63.08 C 80.30 70.13 73.68 75.58 65.98 77.98 C 61.41 79.36 57.94 82.84 53.59 84.64 C 48.98 86.49 43.79 83.51 41.92 79.16 C 39.03 72.93 32.02 70.15 28.95 64.03 C 24.45 57.09 24.16 48.55 24.84 40.57 C 21.37 40.37 17.96 41.05 14.53 41.36 C 13.11 41.62 11.87 40.71 10.85 39.85 C 9.85 36.03 11.72 32.07 14.38 29.38 C 18.40 25.55 24.29 24.92 28.68 21.65 C 31.24 19.74 33.84 17.54 37.16 17.24 M 31.40 22.20 C 34.85 24.07 38.94 25.33 41.40 28.59 C 43.54 32.04 43.41 36.28 43.86 40.18 C 46.37 41.11 49.00 41.70 51.69 41.63 C 50.52 37.19 49.49 32.72 48.84 28.18 C 58.00 27.75 67.57 29.45 75.16 34.86 C 79.91 38.06 83.12 42.88 86.75 47.19 C 83.15 39.89 77.37 33.59 69.96 30.07 C 64.10 27.05 57.50 26.08 50.99 25.64 C 48.33 26.06 49.10 22.88 48.57 21.27 C 55.05 21.01 61.68 21.07 67.90 23.12 C 72.27 24.45 76.11 26.97 80.18 28.95 C 75.62 24.12 69.32 21.44 62.93 20.03 C 54.84 18.07 46.45 18.80 38.26 19.62 C 35.80 19.92 33.58 21.09 31.40 22.20 M 16.74 30.72 C 14.13 32.76 13.39 36.15 12.75 39.21 C 15.45 38.86 18.23 38.45 20.61 37.01 C 22.90 38.05 25.21 39.03 27.55 39.94 C 35.77 43.52 41.62 50.83 45.68 58.60 C 44.56 59.53 43.46 60.47 42.36 61.43 C 45.32 62.28 48.38 64.02 51.51 63.49 C 55.68 60.05 58.83 55.39 63.44 52.48 C 68.32 50.26 73.84 49.60 78.33 46.51 C 75.52 42.78 72.55 38.38 67.61 37.48 C 60.63 35.93 54.43 40.51 49.19 44.47 C 40.52 40.35 32.85 33.83 28.56 25.12 C 24.50 26.68 20.20 27.97 16.74 30.72 M 76.35 60.34 C 74.96 63.49 72.40 65.87 69.92 68.16 C 72.90 62.48 75.15 56.44 76.51 50.17 C 72.65 51.37 68.71 52.39 65.01 54.03 C 61.05 55.76 59.59 60.13 57.74 63.67 C 60.39 62.17 63.14 60.79 66.06 59.88 C 62.93 62.64 59.42 65.09 55.45 66.47 C 52.80 67.32 50.01 66.52 47.33 66.26 C 44.31 65.79 41.28 65.39 38.25 64.96 C 39.26 63.52 40.25 62.06 41.26 60.62 L 42.63 60.53 C 41.66 59.26 40.41 58.26 39.32 57.09 C 38.28 58.32 37.34 59.61 36.39 60.92 L 37.50 60.85 C 36.82 63.53 36.76 66.31 37.19 69.04 C 40.40 70.54 43.74 71.76 47.20 72.51 C 46.32 71.08 45.41 69.67 44.51 68.25 C 45.49 68.16 46.47 68.09 47.46 68.02 C 47.36 70.08 48.59 72.03 50.41 72.94 C 52.50 73.36 54.60 72.53 56.71 72.74 C 58.85 73.19 60.83 74.22 62.96 74.71 C 67.06 73.31 69.81 69.32 74.15 68.34 C 77.67 67.46 82.03 66.21 82.67 62.01 C 80.37 57.70 79.22 53.01 78.94 48.14 C 78.36 52.25 78.23 56.55 76.35 60.34 M 43.32 76.12 C 43.85 79.71 47.25 82.68 50.88 82.66 C 55.29 82.28 58.51 78.86 61.30 75.76 C 56.53 74.79 51.66 74.49 46.85 73.74 C 45.19 73.32 43.76 74.59 43.32 76.12 Z" />
<path fill="#ffffff" opacity="1.00" d=" M 31.40 22.20 C 33.58 21.09 35.80 19.92 38.26 19.62 C 46.45 18.80 54.84 18.07 62.93 20.03 C 69.32 21.44 75.62 24.12 80.18 28.95 C 76.11 26.97 72.27 24.45 67.90 23.12 C 61.68 21.07 55.05 21.01 48.57 21.27 C 49.10 22.88 48.33 26.06 50.99 25.64 C 57.50 26.08 64.10 27.05 69.96 30.07 C 77.37 33.59 83.15 39.89 86.75 47.19 C 83.12 42.88 79.91 38.06 75.16 34.86 C 67.57 29.45 58.00 27.75 48.84 28.18 C 49.49 32.72 50.52 37.19 51.69 41.63 C 49.00 41.70 46.37 41.11 43.86 40.18 C 43.41 36.28 43.54 32.04 41.40 28.59 C 38.94 25.33 34.85 24.07 31.40 22.20 Z" />
<path fill="#ffffff" opacity="1.00" d=" M 16.74 30.72 C 20.20 27.97 24.50 26.68 28.56 25.12 C 32.85 33.83 40.52 40.35 49.19 44.47 C 54.43 40.51 60.63 35.93 67.61 37.48 C 72.55 38.38 75.52 42.78 78.33 46.51 C 73.84 49.60 68.32 50.26 63.44 52.48 C 58.83 55.39 55.68 60.05 51.51 63.49 C 48.38 64.02 45.32 62.28 42.36 61.43 C 43.46 60.47 44.56 59.53 45.68 58.60 C 41.62 50.83 35.77 43.52 27.55 39.94 C 27.16 37.83 26.74 35.73 26.38 33.62 C 24.46 34.76 22.56 35.93 20.61 37.01 C 18.23 38.45 15.45 38.86 12.75 39.21 C 13.39 36.15 14.13 32.76 16.74 30.72 M 34.24 37.49 C 32.87 37.38 31.23 38.10 30.70 39.43 C 31.31 41.42 36.01 38.86 34.24 37.49 Z" />
<path fill="#485b7d" opacity="1.00" d=" M 20.61 37.01 C 22.56 35.93 24.46 34.76 26.38 33.62 C 26.74 35.73 27.16 37.83 27.55 39.94 C 25.21 39.03 22.90 38.05 20.61 37.01 Z" />
<path fill="#2b4269" opacity="1.00" d=" M 34.24 37.49 C 36.01 38.86 31.31 41.42 30.70 39.43 C 31.23 38.10 32.87 37.38 34.24 37.49 Z" />
<path fill="#ffffff" opacity="1.00" d=" M 76.35 60.34 C 78.23 56.55 78.36 52.25 78.94 48.14 C 79.22 53.01 80.37 57.70 82.67 62.01 C 82.03 66.21 77.67 67.46 74.15 68.34 C 69.81 69.32 67.06 73.31 62.96 74.71 C 60.83 74.22 58.85 73.19 56.71 72.74 C 54.60 72.53 52.50 73.36 50.41 72.94 C 48.59 72.03 47.36 70.08 47.46 68.02 C 47.43 67.58 47.36 66.70 47.33 66.26 C 50.01 66.52 52.80 67.32 55.45 66.47 C 59.42 65.09 62.93 62.64 66.06 59.88 C 63.14 60.79 60.39 62.17 57.74 63.67 C 59.59 60.13 61.05 55.76 65.01 54.03 C 68.71 52.39 72.65 51.37 76.51 50.17 C 75.15 56.44 72.90 62.48 69.92 68.16 C 72.40 65.87 74.96 63.49 76.35 60.34 Z" />
<path fill="#ffffff" opacity="1.00" d=" M 39.32 57.09 C 40.41 58.26 41.66 59.26 42.63 60.53 L 41.26 60.62 C 40.32 60.67 38.44 60.79 37.50 60.85 L 36.39 60.92 C 37.34 59.61 38.28 58.32 39.32 57.09 Z" />
<path fill="#a0abbc" opacity="1.00" d=" M 37.50 60.85 C 38.44 60.79 40.32 60.67 41.26 60.62 C 40.25 62.06 39.26 63.52 38.25 64.96 C 41.28 65.39 44.31 65.79 47.33 66.26 C 47.36 66.70 47.43 67.58 47.46 68.02 C 46.47 68.09 45.49 68.16 44.51 68.25 C 42.07 68.49 39.63 68.75 37.19 69.04 C 36.76 66.31 36.82 63.53 37.50 60.85 Z" />
<path fill="#ffffff" opacity="1.00" d=" M 37.19 69.04 C 39.63 68.75 42.07 68.49 44.51 68.25 C 45.41 69.67 46.32 71.08 47.20 72.51 C 43.74 71.76 40.40 70.54 37.19 69.04 Z" />
<path fill="#ffffff" opacity="1.00" d=" M 43.32 76.12 C 43.76 74.59 45.19 73.32 46.85 73.74 C 51.66 74.49 56.53 74.79 61.30 75.76 C 58.51 78.86 55.29 82.28 50.88 82.66 C 47.25 82.68 43.85 79.71 43.32 76.12 Z" />
</svg>
