<?xml version="1.0" encoding="UTF-8" ?>
<!DOCTYPE svg PUBLIC "-//W3C//DTD SVG 1.1//EN" "http://www.w3.org/Graphics/SVG/1.1/DTD/svg11.dtd">
<svg width="100pt" height="100pt" viewBox="0 0 100 100" version="1.1" xmlns="http://www.w3.org/2000/svg">
<path fill="#ffffff" opacity="1.00" d=" M 42.45 12.61 C 60.89 8.24 81.24 20.57 86.42 38.74 C 91.91 54.43 84.73 73.05 70.87 81.91 C 61.49 87.92 49.44 90.22 38.78 86.42 C 20.07 81.14 7.61 59.76 12.96 40.95 C 16.22 26.83 28.23 15.36 42.45 12.61 M 38.45 17.41 C 32.89 21.57 30.88 28.77 29.18 35.18 C 26.86 43.78 29.58 53.75 36.62 59.38 C 40.17 62.27 45.42 62.65 49.41 60.44 C 53.87 58.19 55.44 52.82 59.81 50.42 C 58.25 48.71 56.37 47.17 55.36 45.04 C 57.15 42.14 59.31 39.50 61.47 36.87 C 61.19 38.19 60.90 39.50 60.61 40.81 C 65.26 40.66 70.75 40.19 74.44 43.61 C 78.74 48.64 80.87 55.04 82.85 61.24 C 86.53 50.55 84.64 38.21 77.79 29.20 C 75.81 26.76 73.61 23.46 70.06 23.65 C 62.05 23.59 52.58 25.80 48.50 33.44 C 46.82 38.05 45.58 43.65 48.82 47.90 C 48.69 45.24 48.35 42.59 48.04 39.95 C 49.01 42.24 49.70 44.70 51.15 46.76 C 52.56 47.91 54.45 48.19 56.10 48.87 C 54.92 51.55 53.60 54.17 52.20 56.75 C 48.77 55.50 44.91 54.47 42.74 51.26 C 39.70 47.95 39.59 43.01 40.97 38.95 C 42.83 33.47 46.77 28.74 51.70 25.75 C 57.69 22.33 64.83 22.65 71.49 22.74 C 62.37 15.53 49.33 13.04 38.45 17.41 M 26.48 24.50 C 16.37 33.62 12.54 48.91 17.32 61.68 C 20.21 69.30 25.51 76.80 33.52 79.52 C 42.28 82.70 52.68 80.85 59.64 74.61 C 63.24 71.41 64.78 66.57 65.52 61.96 C 66.12 58.90 64.01 56.36 62.65 53.84 C 62.57 56.47 63.30 59.38 61.90 61.78 C 58.34 67.37 53.09 72.10 46.54 73.75 C 43.23 69.76 37.48 69.66 33.69 66.31 C 25.36 59.77 23.30 48.05 25.05 38.12 C 26.26 30.89 30.87 25.03 34.50 18.88 C 31.67 20.51 28.88 22.26 26.48 24.50 M 59.27 48.52 C 64.23 50.32 70.87 52.62 71.31 58.83 C 70.47 65.45 69.92 72.93 64.97 77.96 C 60.12 82.02 53.60 82.80 47.80 84.81 C 61.08 85.55 74.33 78.22 80.58 66.47 C 82.85 62.70 80.73 57.97 78.05 55.01 C 75.23 52.29 72.69 48.85 68.85 47.53 C 65.64 47.30 62.44 48.09 59.27 48.52 Z" />
<path fill="#482b46" opacity="1.00" d=" M 38.45 17.41 C 49.33 13.04 62.37 15.53 71.49 22.74 C 64.83 22.65 57.69 22.33 51.70 25.75 C 46.77 28.74 42.83 33.47 40.97 38.95 C 39.59 43.01 39.70 47.95 42.74 51.26 C 44.91 54.47 48.77 55.50 52.20 56.75 C 53.60 54.17 54.92 51.55 56.10 48.87 C 54.45 48.19 52.56 47.91 51.15 46.76 C 49.70 44.70 49.01 42.24 48.04 39.95 C 48.35 42.59 48.69 45.24 48.82 47.90 C 45.58 43.65 46.82 38.05 48.50 33.44 C 52.58 25.80 62.05 23.59 70.06 23.65 C 73.61 23.46 75.81 26.76 77.79 29.20 C 84.64 38.21 86.53 50.55 82.85 61.24 C 80.87 55.04 78.74 48.64 74.44 43.61 C 70.75 40.19 65.26 40.66 60.61 40.81 C 60.90 39.50 61.19 38.19 61.47 36.87 C 59.31 39.50 57.15 42.14 55.36 45.04 C 56.37 47.17 58.25 48.71 59.81 50.42 C 55.44 52.82 53.87 58.19 49.41 60.44 C 45.42 62.65 40.17 62.27 36.62 59.38 C 29.58 53.75 26.86 43.78 29.18 35.18 C 30.88 28.77 32.89 21.57 38.45 17.41 Z" />
<path fill="#482b46" opacity="1.00" d=" M 26.48 24.50 C 28.88 22.26 31.67 20.51 34.50 18.88 C 30.87 25.03 26.26 30.89 25.05 38.12 C 23.30 48.05 25.36 59.77 33.69 66.31 C 37.48 69.66 43.23 69.76 46.54 73.75 C 53.09 72.10 58.34 67.37 61.90 61.78 C 63.30 59.38 62.57 56.47 62.65 53.84 C 64.01 56.36 66.12 58.90 65.52 61.96 C 64.78 66.57 63.24 71.41 59.64 74.61 C 52.68 80.85 42.28 82.70 33.52 79.52 C 25.51 76.80 20.21 69.30 17.32 61.68 C 12.54 48.91 16.37 33.62 26.48 24.50 Z" />
<path fill="#482b46" opacity="1.00" d=" M 59.27 48.52 C 62.44 48.09 65.64 47.30 68.85 47.53 C 72.69 48.85 75.23 52.29 78.05 55.01 C 80.73 57.97 82.85 62.70 80.58 66.47 C 74.33 78.22 61.08 85.55 47.80 84.81 C 53.60 82.80 60.12 82.02 64.97 77.96 C 69.92 72.93 70.47 65.45 71.31 58.83 C 70.87 52.62 64.23 50.32 59.27 48.52 Z" />
</svg>
