<?xml version="1.0" encoding="UTF-8" ?>
<!DOCTYPE svg PUBLIC "-//W3C//DTD SVG 1.1//EN" "http://www.w3.org/Graphics/SVG/1.1/DTD/svg11.dtd">
<svg width="100pt" height="100pt" viewBox="0 0 100 100" version="1.1" xmlns="http://www.w3.org/2000/svg">
<path fill="#ffffff" opacity="1.00" d=" M 42.46 12.61 C 60.89 8.25 81.23 20.57 86.41 38.72 C 91.91 54.40 84.75 73.01 70.91 81.88 C 61.53 87.92 49.45 90.23 38.76 86.42 C 20.06 81.13 7.61 59.75 12.96 40.95 C 16.23 26.82 28.24 15.35 42.46 12.61 M 45.41 15.59 C 37.44 16.59 29.92 20.56 24.51 26.48 C 13.41 38.02 12.21 57.38 21.80 70.19 C 30.96 83.57 49.99 88.58 64.57 81.52 C 79.41 74.90 87.99 57.09 83.63 41.39 C 79.68 24.81 62.31 12.93 45.41 15.59 Z" />
<path fill="#482b46" opacity="1.00" d=" M 45.41 15.59 C 62.31 12.93 79.68 24.81 83.63 41.39 C 87.99 57.09 79.41 74.90 64.57 81.52 C 49.99 88.58 30.96 83.57 21.80 70.19 C 12.21 57.38 13.41 38.02 24.51 26.48 C 29.92 20.56 37.44 16.59 45.41 15.59 M 32.39 38.43 C 30.29 41.37 29.13 44.85 27.58 48.09 C 34.93 54.99 42.49 61.68 50.01 68.40 C 57.50 61.67 65.08 55.02 72.40 48.10 C 70.87 44.83 69.72 41.32 67.59 38.37 C 65.20 36.29 62.04 35.14 58.96 34.53 C 55.52 35.45 52.94 38.28 50.01 40.20 C 47.07 38.28 44.49 35.45 41.04 34.53 C 37.95 35.15 34.76 36.30 32.39 38.43 M 18.00 40.31 C 18.36 41.58 18.72 42.86 19.09 44.14 C 19.55 41.91 20.05 39.68 20.58 37.47 C 19.72 38.41 18.86 39.36 18.00 40.31 M 22.42 44.27 C 22.27 47.07 20.65 50.56 23.23 52.71 C 26.01 55.43 27.80 58.88 29.99 62.04 C 32.82 63.73 36.19 64.12 39.34 64.91 C 37.14 63.38 34.70 62.18 32.70 60.38 C 30.84 57.78 29.79 54.68 27.75 52.19 C 24.03 48.16 25.78 42.23 26.65 37.44 C 24.86 39.44 22.47 41.35 22.42 44.27 M 72.63 37.32 C 73.58 42.02 75.45 47.87 71.92 51.92 C 69.91 54.39 68.77 57.39 67.08 60.05 C 65.04 62.15 62.30 63.36 59.91 65.02 C 63.67 63.79 68.91 64.09 70.89 60.01 C 72.64 56.57 75.51 53.94 77.67 50.80 C 77.67 47.70 77.27 44.54 76.41 41.56 C 75.34 39.98 73.93 38.69 72.63 37.32 M 78.25 37.35 C 79.06 39.31 79.86 41.27 80.65 43.24 C 81.09 42.21 81.52 41.17 81.96 40.14 C 80.73 39.21 79.49 38.28 78.25 37.35 M 24.50 60.26 C 25.55 63.23 27.75 65.41 30.75 66.41 C 28.72 64.30 26.64 62.24 24.50 60.26 M 69.03 66.34 C 71.51 65.32 73.55 63.59 74.71 61.14 C 72.68 62.72 70.79 64.46 69.03 66.34 Z" />
<path fill="#ffffff" opacity="1.00" d=" M 32.39 38.43 C 34.76 36.30 37.95 35.15 41.04 34.53 C 44.49 35.45 47.07 38.28 50.01 40.20 C 52.94 38.28 55.52 35.45 58.96 34.53 C 62.04 35.14 65.20 36.29 67.59 38.37 C 69.72 41.32 70.87 44.83 72.40 48.10 C 65.08 55.02 57.50 61.67 50.01 68.40 C 42.49 61.68 34.93 54.99 27.58 48.09 C 29.13 44.85 30.29 41.37 32.39 38.43 M 33.89 39.85 C 32.14 42.25 31.15 45.10 29.91 47.78 C 36.65 53.73 43.25 59.84 50.00 65.78 C 56.76 59.84 63.36 53.73 70.11 47.78 C 68.86 45.10 67.87 42.24 66.12 39.84 C 64.09 38.05 61.38 37.33 58.99 36.18 C 56.00 38.30 53.00 40.43 50.00 42.55 C 47.00 40.43 44.01 38.30 41.01 36.18 C 38.62 37.34 35.91 38.06 33.89 39.85 Z" />
<path fill="#482b46" opacity="1.00" d=" M 33.89 39.85 C 35.91 38.06 38.62 37.34 41.01 36.18 C 44.01 38.30 47.00 40.43 50.00 42.55 C 53.00 40.43 56.00 38.30 58.99 36.18 C 61.38 37.33 64.09 38.05 66.12 39.84 C 67.87 42.24 68.86 45.10 70.11 47.78 C 63.36 53.73 56.76 59.84 50.00 65.78 C 43.25 59.84 36.65 53.73 29.91 47.78 C 31.15 45.10 32.14 42.25 33.89 39.85 M 32.36 46.94 C 38.17 52.35 44.10 57.64 50.01 62.94 C 55.92 57.64 61.85 52.35 67.65 46.94 C 66.06 43.26 63.51 39.44 59.04 39.35 C 55.65 40.65 52.96 43.21 50.01 45.25 C 47.06 43.21 44.36 40.65 40.97 39.35 C 36.51 39.45 33.95 43.25 32.36 46.94 Z" />
<path fill="#ffffff" opacity="1.00" d=" M 18.00 40.31 C 18.86 39.36 19.72 38.41 20.58 37.47 C 20.05 39.68 19.55 41.91 19.09 44.14 C 18.72 42.86 18.36 41.58 18.00 40.31 Z" />
<path fill="#ffffff" opacity="1.00" d=" M 22.42 44.27 C 22.47 41.35 24.86 39.44 26.65 37.44 C 25.78 42.23 24.03 48.16 27.75 52.19 C 29.79 54.68 30.84 57.78 32.70 60.38 C 34.70 62.18 37.14 63.38 39.34 64.91 C 36.19 64.12 32.82 63.73 29.99 62.04 C 27.80 58.88 26.01 55.43 23.23 52.71 C 20.65 50.56 22.27 47.07 22.42 44.27 Z" />
<path fill="#ffffff" opacity="1.00" d=" M 72.63 37.32 C 73.93 38.69 75.34 39.98 76.41 41.56 C 77.27 44.54 77.67 47.70 77.67 50.80 C 75.51 53.94 72.64 56.57 70.89 60.01 C 68.91 64.09 63.67 63.79 59.91 65.02 C 62.30 63.36 65.04 62.15 67.08 60.05 C 68.77 57.39 69.91 54.39 71.92 51.92 C 75.45 47.87 73.58 42.02 72.63 37.32 Z" />
<path fill="#d3bdd2" opacity="1.00" d=" M 78.25 37.35 C 79.49 38.28 80.73 39.21 81.96 40.14 C 81.52 41.17 81.09 42.21 80.65 43.24 C 79.86 41.27 79.06 39.31 78.25 37.35 Z" />
<path fill="#ffffff" opacity="1.00" d=" M 32.36 46.94 C 33.95 43.25 36.51 39.45 40.97 39.35 C 44.36 40.65 47.06 43.21 50.01 45.25 C 52.96 43.21 55.65 40.65 59.04 39.35 C 63.51 39.44 66.06 43.26 67.65 46.94 C 61.85 52.35 55.92 57.64 50.01 62.94 C 44.10 57.64 38.17 52.35 32.36 46.94 Z" />
<path fill="#ffffff" opacity="1.00" d=" M 24.50 60.26 C 26.64 62.24 28.72 64.30 30.75 66.41 C 27.75 65.41 25.55 63.23 24.50 60.26 Z" />
<path fill="#ffffff" opacity="1.00" d=" M 69.03 66.34 C 70.79 64.46 72.68 62.72 74.71 61.14 C 73.55 63.59 71.51 65.32 69.03 66.34 Z" />
</svg>
