<?xml version="1.0" encoding="UTF-8" ?>
<!DOCTYPE svg PUBLIC "-//W3C//DTD SVG 1.1//EN" "http://www.w3.org/Graphics/SVG/1.1/DTD/svg11.dtd">
<svg width="100pt" height="100pt" viewBox="0 0 100 100" version="1.1" xmlns="http://www.w3.org/2000/svg">
<path fill="#bab9b9" opacity="1.00" d=" M 36.61 38.63 C 40.65 32.54 44.98 26.65 49.09 20.61 C 51.80 24.18 56.10 25.28 59.94 27.10 C 64.52 29.65 64.48 35.31 64.32 39.87 C 64.53 44.08 69.34 44.68 72.53 45.53 C 78.10 47.59 84.05 44.03 89.60 46.34 C 94.70 48.02 97.76 53.67 96.85 58.88 C 96.01 64.81 91.52 69.21 87.41 73.17 C 88.92 75.33 90.44 77.48 91.97 79.61 C 89.72 79.68 87.44 79.61 85.20 79.96 C 82.43 81.49 80.51 84.21 77.74 85.78 C 71.65 89.63 63.92 89.68 57.18 87.71 C 51.60 85.85 45.14 87.41 40.05 83.99 C 37.42 82.46 35.42 79.37 32.04 79.59 C 23.99 79.32 15.92 79.60 7.86 79.50 C 11.11 74.91 14.28 70.26 17.61 65.74 C 15.25 61.66 12.90 57.06 14.02 52.19 C 14.69 45.86 19.42 40.30 25.53 38.56 C 29.15 37.45 32.95 38.17 36.61 38.63 M 48.98 26.19 C 45.42 31.37 41.73 36.46 38.05 41.56 C 34.03 40.51 29.71 39.13 25.62 40.62 C 19.93 42.47 15.90 48.05 15.79 54.02 C 15.33 58.72 18.34 62.64 20.90 66.25 C 18.56 69.70 16.15 73.11 13.91 76.63 C 19.97 76.78 26.03 76.42 32.09 76.62 C 37.09 76.40 39.09 82.27 43.58 83.49 C 47.61 84.60 51.86 84.38 55.92 85.32 C 60.46 86.36 65.14 87.60 69.81 86.68 C 75.69 85.83 80.48 81.78 84.00 77.22 C 85.07 76.05 84.72 74.35 84.89 72.92 C 88.43 69.08 92.90 65.64 94.44 60.43 C 95.65 56.65 94.75 52.00 91.39 49.60 C 87.92 46.85 83.25 47.87 79.19 48.05 C 75.00 48.47 70.87 47.41 66.87 46.32 C 64.79 45.75 62.33 44.74 61.80 42.40 C 61.18 38.42 63.44 33.81 60.65 30.33 C 57.89 26.83 52.95 27.07 48.98 26.19 Z" />
<path fill="#217a7a" opacity="1.00" d=" M 48.98 26.19 C 52.95 27.07 57.89 26.83 60.65 30.33 C 63.44 33.81 61.18 38.42 61.80 42.40 C 62.33 44.74 64.79 45.75 66.87 46.32 C 70.87 47.41 75.00 48.47 79.19 48.05 C 83.25 47.87 87.92 46.85 91.39 49.60 C 94.75 52.00 95.65 56.65 94.44 60.43 C 92.90 65.64 88.43 69.08 84.89 72.92 C 84.72 74.35 85.07 76.05 84.00 77.22 C 80.48 81.78 75.69 85.83 69.81 86.68 C 65.14 87.60 60.46 86.36 55.92 85.32 C 51.86 84.38 47.61 84.60 43.58 83.49 C 39.09 82.27 37.09 76.40 32.09 76.62 C 26.03 76.42 19.97 76.78 13.91 76.63 C 16.15 73.11 18.56 69.70 20.90 66.25 C 18.34 62.64 15.33 58.72 15.79 54.02 C 15.90 48.05 19.93 42.47 25.62 40.62 C 29.71 39.13 34.03 40.51 38.05 41.56 C 41.73 36.46 45.42 31.37 48.98 26.19 M 53.28 29.46 C 48.63 29.67 45.59 35.59 48.53 39.36 C 51.18 43.60 58.52 42.56 59.83 37.72 C 61.33 33.62 57.51 29.07 53.28 29.46 M 21.52 48.09 C 21.44 47.54 21.28 46.45 21.21 45.90 C 18.70 49.89 16.87 55.18 19.51 59.58 C 21.64 62.67 24.60 65.52 28.29 66.54 C 34.75 67.55 41.68 62.61 42.29 55.96 C 43.34 49.26 37.70 42.53 30.94 42.31 C 26.85 41.90 24.09 45.51 21.52 48.09 M 60.40 49.38 C 55.02 50.80 51.32 55.30 49.09 60.16 C 46.89 65.41 39.72 66.62 38.39 72.42 C 37.31 76.82 41.31 80.72 45.40 81.40 C 50.24 82.24 55.30 81.88 59.94 83.77 C 59.31 82.86 58.67 81.95 58.04 81.04 C 62.22 82.66 66.73 83.45 71.14 82.26 C 70.10 81.14 69.04 80.03 67.99 78.93 C 69.69 77.92 71.40 76.93 73.10 75.92 C 72.84 78.39 72.79 80.89 72.78 83.38 C 74.76 82.23 76.90 81.23 78.51 79.57 C 80.95 76.74 81.14 72.53 83.98 69.97 C 87.29 66.77 91.28 63.66 92.28 58.89 C 93.17 55.67 91.52 51.90 88.33 50.69 C 83.51 48.80 78.41 52.02 73.55 50.49 C 69.32 49.22 64.75 47.68 60.40 49.38 Z" />
<path fill="#ffffff" opacity="1.00" d=" M 53.28 29.46 C 57.51 29.07 61.33 33.62 59.83 37.72 C 58.52 42.56 51.18 43.60 48.53 39.36 C 45.59 35.59 48.63 29.67 53.28 29.46 M 58.20 32.83 C 56.98 34.24 55.77 35.66 54.54 37.05 C 55.81 37.73 57.09 38.40 58.36 39.08 C 58.35 36.99 58.29 34.91 58.20 32.83 Z" />
<path fill="#086b6b" opacity="1.00" d=" M 58.20 32.83 C 58.29 34.91 58.35 36.99 58.36 39.08 C 57.09 38.40 55.81 37.73 54.54 37.05 C 55.77 35.66 56.98 34.24 58.20 32.83 Z" />
<path fill="#ffffff" opacity="1.00" d=" M 21.52 48.09 C 24.09 45.51 26.85 41.90 30.94 42.31 C 37.70 42.53 43.34 49.26 42.29 55.96 C 41.68 62.61 34.75 67.55 28.29 66.54 C 24.60 65.52 21.64 62.67 19.51 59.58 C 16.87 55.18 18.70 49.89 21.21 45.90 C 21.28 46.45 21.44 47.54 21.52 48.09 C 22.03 52.82 23.92 57.25 25.85 61.55 C 25.80 58.44 25.63 55.33 25.63 52.22 C 27.64 56.50 28.23 61.29 26.83 65.85 C 29.58 64.82 34.32 65.47 34.90 61.75 C 35.01 58.12 33.30 54.78 31.96 51.51 C 31.50 54.98 31.09 58.47 30.58 61.94 C 27.94 57.38 26.25 52.29 26.07 47.00 C 24.69 48.04 23.31 49.06 21.92 50.08 C 21.82 49.58 21.62 48.59 21.52 48.09 M 33.96 44.22 C 36.60 48.00 38.66 52.17 39.15 56.82 C 37.90 55.81 36.67 54.78 35.43 53.75 C 36.10 56.77 36.72 59.80 37.44 62.80 C 39.40 59.62 41.03 55.89 40.06 52.08 C 39.74 48.45 36.70 46.14 33.96 44.22 Z" />
<path fill="#046969" opacity="1.00" d=" M 33.96 44.22 C 36.70 46.14 39.74 48.45 40.06 52.08 C 41.03 55.89 39.40 59.62 37.44 62.80 C 36.72 59.80 36.10 56.77 35.43 53.75 C 36.67 54.78 37.90 55.81 39.15 56.82 C 38.66 52.17 36.60 48.00 33.96 44.22 Z" />
<path fill="#0f6f6f" opacity="1.00" d=" M 21.92 50.08 C 23.31 49.06 24.69 48.04 26.07 47.00 C 26.25 52.29 27.94 57.38 30.58 61.94 C 31.09 58.47 31.50 54.98 31.96 51.51 C 33.30 54.78 35.01 58.12 34.90 61.75 C 34.32 65.47 29.58 64.82 26.83 65.85 C 28.23 61.29 27.64 56.50 25.63 52.22 C 25.63 55.33 25.80 58.44 25.85 61.55 C 23.92 57.25 22.03 52.82 21.52 48.09 C 21.62 48.59 21.82 49.58 21.92 50.08 Z" />
<path fill="#ffffff" opacity="1.00" d=" M 60.40 49.38 C 64.75 47.68 69.32 49.22 73.55 50.49 C 78.41 52.02 83.51 48.80 88.33 50.69 C 91.52 51.90 93.17 55.67 92.28 58.89 C 91.28 63.66 87.29 66.77 83.98 69.97 C 81.14 72.53 80.95 76.74 78.51 79.57 C 76.90 81.23 74.76 82.23 72.78 83.38 C 72.79 80.89 72.84 78.39 73.10 75.92 C 71.40 76.93 69.69 77.92 67.99 78.93 C 69.04 80.03 70.10 81.14 71.14 82.26 C 66.73 83.45 62.22 82.66 58.04 81.04 C 58.67 81.95 59.31 82.86 59.94 83.77 C 55.30 81.88 50.24 82.24 45.40 81.40 C 41.31 80.72 37.31 76.82 38.39 72.42 C 39.72 66.62 46.89 65.41 49.09 60.16 C 51.32 55.30 55.02 50.80 60.40 49.38 M 52.39 58.33 C 50.41 63.27 49.45 68.88 51.17 74.05 C 52.70 70.42 53.52 66.56 54.34 62.72 C 53.59 62.67 52.08 62.57 51.33 62.51 C 53.56 58.26 56.53 54.36 60.61 51.73 C 61.47 53.17 61.77 55.56 63.88 55.57 C 66.61 55.69 69.16 56.62 70.80 58.92 C 70.24 57.40 69.72 55.86 69.23 54.31 C 72.51 57.48 75.32 61.24 79.39 63.49 C 77.88 60.01 75.78 56.58 72.40 54.63 C 69.85 52.99 66.69 53.50 63.82 53.52 C 64.22 52.11 64.62 50.70 65.00 49.29 C 59.86 50.53 54.62 53.26 52.39 58.33 M 80.13 52.16 C 81.67 54.36 84.25 56.21 84.58 59.01 C 83.60 63.79 79.15 66.80 75.31 69.29 C 67.61 73.72 58.49 77.05 49.52 75.46 C 45.39 74.75 46.08 69.75 45.45 66.67 C 43.29 69.17 39.02 72.09 41.00 75.86 C 43.89 80.38 50.07 80.01 54.75 79.61 C 65.79 77.99 76.70 73.57 85.03 66.02 C 87.77 63.26 91.12 59.51 89.94 55.33 C 88.39 51.41 83.44 52.50 80.13 52.16 M 68.25 60.85 C 68.20 61.49 68.09 62.78 68.03 63.42 C 71.18 63.98 74.28 64.78 77.35 65.68 C 75.16 62.74 71.96 60.93 68.25 60.85 M 57.67 71.48 C 60.29 68.70 62.90 65.88 65.08 62.73 C 63.36 63.84 61.71 65.05 60.08 66.28 C 59.21 64.98 58.34 63.68 57.45 62.40 C 57.36 65.43 57.40 68.46 57.67 71.48 M 60.64 71.06 C 60.77 72.50 61.42 72.75 62.57 71.83 C 62.43 70.38 61.78 70.12 60.64 71.06 Z" />
<path fill="#086b6b" opacity="1.00" d=" M 52.39 58.33 C 54.62 53.26 59.86 50.53 65.00 49.29 C 64.62 50.70 64.22 52.11 63.82 53.52 C 66.69 53.50 69.85 52.99 72.40 54.63 C 75.78 56.58 77.88 60.01 79.39 63.49 C 75.32 61.24 72.51 57.48 69.23 54.31 C 69.72 55.86 70.24 57.40 70.80 58.92 C 69.16 56.62 66.61 55.69 63.88 55.57 C 61.77 55.56 61.47 53.17 60.61 51.73 C 56.53 54.36 53.56 58.26 51.33 62.51 C 52.08 62.57 53.59 62.67 54.34 62.72 C 53.52 66.56 52.70 70.42 51.17 74.05 C 49.45 68.88 50.41 63.27 52.39 58.33 Z" />
<path fill="#1b7777" opacity="1.00" d=" M 80.13 52.16 C 83.44 52.50 88.39 51.41 89.94 55.33 C 91.12 59.51 87.77 63.26 85.03 66.02 C 76.70 73.57 65.79 77.99 54.75 79.61 C 50.07 80.01 43.89 80.38 41.00 75.86 C 39.02 72.09 43.29 69.17 45.45 66.67 C 46.08 69.75 45.39 74.75 49.52 75.46 C 58.49 77.05 67.61 73.72 75.31 69.29 C 79.15 66.80 83.60 63.79 84.58 59.01 C 84.25 56.21 81.67 54.36 80.13 52.16 Z" />
<path fill="#046969" opacity="1.00" d=" M 68.25 60.85 C 71.96 60.93 75.16 62.74 77.35 65.68 C 74.28 64.78 71.18 63.98 68.03 63.42 C 68.09 62.78 68.20 61.49 68.25 60.85 Z" />
<path fill="#046969" opacity="1.00" d=" M 57.67 71.48 C 57.40 68.46 57.36 65.43 57.45 62.40 C 58.34 63.68 59.21 64.98 60.08 66.28 C 61.71 65.05 63.36 63.84 65.08 62.73 C 62.90 65.88 60.29 68.70 57.67 71.48 Z" />
<path fill="#0c6666" opacity="1.00" d=" M 60.64 71.06 C 61.78 70.12 62.43 70.38 62.57 71.83 C 61.42 72.75 60.77 72.50 60.64 71.06 Z" />
</svg>
