<?xml version="1.0" encoding="UTF-8" ?>
<!DOCTYPE svg PUBLIC "-//W3C//DTD SVG 1.1//EN" "http://www.w3.org/Graphics/SVG/1.1/DTD/svg11.dtd">
<svg width="100pt" height="100pt" viewBox="0 0 100 100" version="1.1" xmlns="http://www.w3.org/2000/svg">
<path fill="#ffffff" opacity="1.00" d=" M 51.25 7.86 C 52.94 10.51 54.22 13.46 56.33 15.81 C 60.67 17.46 65.38 18.18 69.41 20.61 C 77.90 25.08 83.95 33.09 87.36 41.93 C 89.66 41.79 91.97 41.79 94.28 41.67 C 92.53 43.52 90.57 45.19 89.09 47.28 C 88.60 49.13 89.03 51.08 89.02 52.98 C 89.59 64.75 84.01 76.52 74.80 83.80 C 68.09 89.17 59.54 92.02 51.00 92.39 C 42.46 92.02 33.91 89.17 27.20 83.80 C 18.80 77.15 13.42 66.79 12.97 56.07 C 12.84 53.41 13.20 50.77 13.11 48.11 C 11.73 45.82 9.47 44.26 7.61 42.40 C 9.97 42.32 12.32 42.16 14.68 42.10 C 18.03 32.63 24.81 24.30 33.94 19.91 C 37.89 17.76 42.39 17.12 46.63 15.79 C 48.65 13.47 49.75 10.52 51.25 7.86 M 51.31 12.48 C 49.94 14.67 49.09 17.29 47.18 19.09 C 42.03 20.78 36.45 21.64 31.98 24.96 C 25.09 29.30 20.60 36.34 17.59 43.74 C 16.18 43.98 14.76 44.24 13.35 44.52 C 14.67 46.23 16.72 47.83 16.43 50.23 C 16.38 54.90 16.25 59.69 17.81 64.17 C 21.96 78.04 35.45 88.56 50.01 88.70 C 64.70 89.41 78.89 79.48 83.69 65.65 C 85.79 60.49 85.66 54.87 85.55 49.41 C 85.44 47.25 87.47 45.90 88.61 44.31 C 87.21 44.10 85.80 43.89 84.40 43.69 C 81.43 36.55 77.21 29.69 70.62 25.37 C 66.26 21.97 60.75 21.02 55.69 19.19 C 53.96 17.14 52.78 14.71 51.31 12.48 Z" />
<path fill="#482b46" opacity="1.00" d=" M 51.31 12.48 C 52.78 14.71 53.96 17.14 55.69 19.19 C 60.75 21.02 66.26 21.97 70.62 25.37 C 77.21 29.69 81.43 36.55 84.40 43.69 C 85.80 43.89 87.21 44.10 88.61 44.31 C 87.47 45.90 85.44 47.25 85.55 49.41 C 85.66 54.87 85.79 60.49 83.69 65.65 C 78.89 79.48 64.70 89.41 50.01 88.70 C 35.45 88.56 21.96 78.04 17.81 64.17 C 16.25 59.69 16.38 54.90 16.43 50.23 C 16.72 47.83 14.67 46.23 13.35 44.52 C 14.76 44.24 16.18 43.98 17.59 43.74 C 20.60 36.34 25.09 29.30 31.98 24.96 C 36.45 21.64 42.03 20.78 47.18 19.09 C 49.09 17.29 49.94 14.67 51.31 12.48 M 44.45 37.53 C 46.93 38.40 49.30 39.70 51.91 40.10 C 54.31 39.78 56.31 38.21 58.43 37.15 C 56.23 30.38 54.12 23.56 51.60 16.89 C 48.60 23.53 46.72 30.62 44.45 37.53 M 37.25 49.88 C 38.22 55.77 43.24 60.18 48.30 62.79 C 50.79 64.15 52.98 61.98 54.21 60.01 C 51.88 58.58 49.35 57.44 47.21 55.72 C 45.60 54.46 46.18 52.33 46.23 50.58 C 49.68 51.15 53.15 50.77 56.60 50.54 C 58.91 51.44 59.12 54.45 58.43 56.50 C 56.72 61.27 52.87 65.19 48.41 67.47 C 44.10 69.89 37.38 67.88 36.42 62.68 C 35.35 58.26 37.08 52.31 32.67 49.34 C 28.72 47.45 24.16 47.57 19.89 47.12 C 23.07 50.00 26.68 52.35 30.05 54.99 C 34.14 57.72 31.88 63.65 34.82 67.19 C 37.28 71.05 42.25 70.71 46.09 72.07 C 48.20 74.47 49.70 77.33 51.55 79.92 C 53.90 75.22 56.02 70.38 58.97 66.01 C 61.97 61.51 65.32 57.05 66.69 51.73 C 68.06 46.99 63.87 41.65 59.02 41.61 C 56.44 42.19 54.16 43.60 51.86 44.85 C 49.62 43.69 47.40 42.40 44.95 41.76 C 40.61 41.24 36.37 45.49 37.25 49.88 M 71.31 48.41 C 70.26 51.65 69.12 54.87 68.11 58.13 C 72.92 54.64 77.68 51.07 82.12 47.12 C 78.49 47.26 74.89 47.79 71.31 48.41 M 37.18 58.63 C 37.68 60.66 37.78 63.04 39.36 64.61 C 40.90 65.90 42.81 66.64 44.60 67.53 C 42.12 64.56 40.25 61.06 37.18 58.63 Z" />
<path fill="#ffffff" opacity="1.00" d=" M 44.45 37.53 C 46.72 30.62 48.60 23.53 51.60 16.89 C 54.12 23.56 56.23 30.38 58.43 37.15 C 56.31 38.21 54.31 39.78 51.91 40.10 C 49.30 39.70 46.93 38.40 44.45 37.53 Z" />
<path fill="#ffffff" opacity="1.00" d=" M 37.25 49.88 C 36.37 45.49 40.61 41.24 44.95 41.76 C 47.40 42.40 49.62 43.69 51.86 44.85 C 54.16 43.60 56.44 42.19 59.02 41.61 C 63.87 41.65 68.06 46.99 66.69 51.73 C 65.32 57.05 61.97 61.51 58.97 66.01 C 56.02 70.38 53.90 75.22 51.55 79.92 C 49.70 77.33 48.20 74.47 46.09 72.07 C 42.25 70.71 37.28 71.05 34.82 67.19 C 31.88 63.65 34.14 57.72 30.05 54.99 C 26.68 52.35 23.07 50.00 19.89 47.12 C 24.16 47.57 28.72 47.45 32.67 49.34 C 37.08 52.31 35.35 58.26 36.42 62.68 C 37.38 67.88 44.10 69.89 48.41 67.47 C 52.87 65.19 56.72 61.27 58.43 56.50 C 59.12 54.45 58.91 51.44 56.60 50.54 C 53.15 50.77 49.68 51.15 46.23 50.58 C 46.18 52.33 45.60 54.46 47.21 55.72 C 49.35 57.44 51.88 58.58 54.21 60.01 C 52.98 61.98 50.79 64.15 48.30 62.79 C 43.24 60.18 38.22 55.77 37.25 49.88 Z" />
<path fill="#ffffff" opacity="1.00" d=" M 71.31 48.41 C 74.89 47.79 78.49 47.26 82.12 47.12 C 77.68 51.07 72.92 54.64 68.11 58.13 C 69.12 54.87 70.26 51.65 71.31 48.41 Z" />
<path fill="#ffffff" opacity="1.00" d=" M 37.18 58.63 C 40.25 61.06 42.12 64.56 44.60 67.53 C 42.81 66.64 40.90 65.90 39.36 64.61 C 37.78 63.04 37.68 60.66 37.18 58.63 Z" />
</svg>
