<?xml version="1.0" encoding="UTF-8" ?>
<!DOCTYPE svg PUBLIC "-//W3C//DTD SVG 1.1//EN" "http://www.w3.org/Graphics/SVG/1.1/DTD/svg11.dtd">
<svg width="100pt" height="100pt" viewBox="0 0 100 100" version="1.1" xmlns="http://www.w3.org/2000/svg">
<path fill="#bbc4bd" opacity="1.00" d=" M 45.51 14.69 C 46.79 13.01 48.08 11.34 49.38 9.68 C 50.68 11.33 51.71 13.28 53.43 14.55 C 60.54 15.10 67.70 14.51 74.83 14.80 C 76.90 20.56 78.53 26.49 80.83 32.17 C 82.02 35.15 84.24 37.55 85.61 40.44 C 86.14 42.25 85.71 44.16 85.66 46.00 C 87.89 47.08 90.13 48.14 92.37 49.21 C 90.92 50.44 89.46 51.66 88.01 52.89 C 88.63 54.75 89.25 56.61 89.85 58.49 C 86.16 60.85 82.54 63.33 78.92 65.82 C 80.00 69.33 80.89 72.90 81.71 76.48 C 77.97 75.01 74.31 73.33 70.90 71.19 C 63.94 75.95 56.89 80.57 50.00 85.42 C 43.39 80.76 36.62 76.34 29.96 71.76 C 27.85 72.76 25.75 73.76 23.65 74.77 C 23.15 72.12 23.12 69.33 22.12 66.81 C 18.50 63.52 14.12 61.22 10.10 58.47 C 13.07 49.67 16.23 40.93 19.04 32.08 C 20.83 27.43 18.07 22.75 17.54 18.12 C 19.59 18.38 21.64 18.65 23.69 18.92 C 24.35 17.50 25.01 16.08 25.68 14.66 C 32.29 14.78 38.90 14.74 45.51 14.69 M 48.92 13.19 C 48.08 14.65 47.25 16.11 46.42 17.58 C 40.27 17.64 34.11 17.65 27.96 17.62 C 27.41 18.98 26.87 20.34 26.34 21.71 C 24.27 21.38 22.21 21.05 20.14 20.74 C 21.01 24.43 22.40 28.31 21.03 32.07 C 18.33 40.35 17.39 49.12 13.83 57.13 C 17.28 59.67 21.19 61.65 24.26 64.67 C 25.00 67.05 25.00 69.58 25.28 72.04 C 27.02 70.83 28.75 69.61 30.47 68.39 C 36.95 72.84 43.36 77.39 50.00 81.60 C 56.78 77.28 63.36 72.66 69.98 68.11 C 72.88 69.95 75.85 71.70 78.93 73.23 C 78.07 70.12 77.06 67.05 75.99 64.01 C 79.19 61.81 82.42 59.65 85.71 57.59 C 85.50 56.08 85.28 54.57 85.06 53.05 C 86.10 51.94 87.14 50.84 88.18 49.73 C 86.11 48.55 84.04 47.38 81.97 46.21 C 82.83 44.76 83.68 43.31 84.53 41.86 C 81.59 37.65 77.98 33.78 76.19 28.89 C 74.80 25.14 73.69 21.30 72.28 17.56 C 66.23 17.49 60.16 17.94 54.12 17.56 C 51.58 17.52 50.50 14.75 48.92 13.19 Z" />
<path fill="#941271" opacity="1.00" d=" M 48.92 13.19 C 50.50 14.75 51.58 17.52 54.12 17.56 C 60.16 17.94 66.23 17.49 72.28 17.56 C 73.69 21.30 74.80 25.14 76.19 28.89 C 77.98 33.78 81.59 37.65 84.53 41.86 C 83.68 43.31 82.83 44.76 81.97 46.21 C 84.04 47.38 86.11 48.55 88.18 49.73 C 87.14 50.84 86.10 51.94 85.06 53.05 C 85.28 54.57 85.50 56.08 85.71 57.59 C 82.42 59.65 79.19 61.81 75.99 64.01 C 77.06 67.05 78.07 70.12 78.93 73.23 C 75.85 71.70 72.88 69.95 69.98 68.11 C 63.36 72.66 56.78 77.28 50.00 81.60 C 43.36 77.39 36.95 72.84 30.47 68.39 C 28.75 69.61 27.02 70.83 25.28 72.04 C 25.00 69.58 25.00 67.05 24.26 64.67 C 21.19 61.65 17.28 59.67 13.83 57.13 C 17.39 49.12 18.33 40.35 21.03 32.07 C 22.40 28.31 21.01 24.43 20.14 20.74 C 22.21 21.05 24.27 21.38 26.34 21.71 C 26.87 20.34 27.41 18.98 27.96 17.62 C 34.11 17.65 40.27 17.64 46.42 17.58 C 47.25 16.11 48.08 14.65 48.92 13.19 M 46.09 27.58 C 47.61 28.40 49.14 29.22 50.68 30.03 C 50.56 28.98 50.44 27.94 50.33 26.89 C 55.55 30.96 62.06 32.75 68.62 32.43 C 69.91 34.24 71.21 36.04 72.58 37.80 C 72.91 36.59 73.29 35.38 73.44 34.12 C 72.21 32.16 70.11 31.02 68.28 29.69 C 69.60 27.50 70.90 25.30 72.14 23.06 C 69.15 25.25 66.26 27.55 63.33 29.80 C 59.85 26.75 55.37 25.61 50.93 24.85 C 50.44 21.82 49.95 18.78 49.37 15.75 C 48.04 19.63 46.99 23.59 46.09 27.58 M 22.15 22.57 C 23.38 24.78 24.68 26.94 26.00 29.09 C 24.91 30.58 23.82 32.07 22.76 33.58 C 24.70 32.83 26.64 32.07 28.60 31.38 C 26.23 34.76 23.30 37.68 20.53 40.72 C 26.31 39.70 31.49 36.82 35.31 32.35 C 31.04 28.94 26.72 25.57 22.15 22.57 M 33.44 24.49 C 36.10 26.62 39.39 26.20 42.40 25.16 C 39.49 24.33 36.44 24.20 33.44 24.49 M 33.41 29.01 C 35.55 29.93 37.67 31.02 39.99 31.38 C 42.08 31.25 43.89 30.01 45.64 28.98 C 42.05 26.12 37.36 28.35 33.41 29.01 M 35.31 40.30 C 30.95 43.18 26.00 45.00 20.98 46.37 C 26.93 47.82 33.02 49.38 38.18 52.83 C 41.75 55.18 45.49 58.00 50.01 57.76 C 54.76 57.90 58.59 54.78 62.43 52.43 C 67.47 49.27 73.30 47.76 79.02 46.37 C 74.24 45.05 69.52 43.38 65.32 40.69 C 60.52 37.80 55.94 33.60 50.00 33.59 C 44.29 33.43 39.88 37.49 35.31 40.30 M 63.68 33.85 C 65.61 35.96 67.97 37.62 70.54 38.86 C 68.70 36.65 66.31 34.99 63.68 33.85 M 73.47 39.73 C 74.02 40.74 74.73 41.65 75.40 42.58 C 75.43 40.19 75.40 37.80 75.26 35.41 C 74.62 36.83 73.79 38.19 73.47 39.73 M 79.24 38.90 C 78.51 40.25 77.79 41.61 77.06 42.97 C 78.73 42.81 80.40 42.65 82.07 42.48 C 81.14 41.28 80.19 40.08 79.24 38.90 M 71.41 55.39 C 75.95 54.21 80.71 53.11 84.29 49.86 C 79.53 50.30 74.58 51.55 71.41 55.39 M 20.76 50.91 C 21.54 52.85 22.00 55.01 23.35 56.66 C 24.91 58.18 26.84 59.23 28.66 60.41 C 28.01 63.12 27.40 65.84 26.91 68.58 C 30.25 65.15 32.75 61.05 35.13 56.93 C 30.72 54.11 25.90 51.96 20.76 50.91 M 61.06 59.09 C 67.27 61.02 71.39 66.22 76.31 70.11 C 74.99 67.64 73.53 65.23 72.03 62.86 C 72.82 61.66 73.61 60.47 74.38 59.27 C 73.11 59.92 71.84 60.59 70.57 61.25 C 69.67 59.18 68.83 57.09 68.07 54.97 C 65.71 56.31 63.38 57.69 61.06 59.09 M 36.53 58.44 C 36.91 60.42 37.35 62.39 37.74 64.37 C 41.04 65.31 44.11 66.84 47.02 68.64 C 46.89 67.66 46.76 66.69 46.64 65.72 C 47.78 64.85 48.93 63.98 50.07 63.10 C 48.05 62.78 46.05 62.44 44.04 62.11 C 41.67 60.62 39.14 59.44 36.53 58.44 M 54.00 60.89 C 55.18 61.97 56.37 63.05 57.55 64.13 C 54.15 64.65 50.75 65.22 47.37 65.86 C 48.37 68.39 49.37 70.91 50.44 73.41 C 50.94 71.32 51.41 69.22 51.89 67.12 C 56.84 67.36 61.38 65.42 65.56 62.99 C 61.70 62.36 57.85 61.63 54.00 60.89 Z" />
<path fill="#ffffff" opacity="1.00" d=" M 46.09 27.58 C 46.99 23.59 48.04 19.63 49.37 15.75 C 49.95 18.78 50.44 21.82 50.93 24.85 C 55.37 25.61 59.85 26.75 63.33 29.80 C 66.26 27.55 69.15 25.25 72.14 23.06 C 70.90 25.30 69.60 27.50 68.28 29.69 C 70.11 31.02 72.21 32.16 73.44 34.12 C 73.29 35.38 72.91 36.59 72.58 37.80 C 71.21 36.04 69.91 34.24 68.62 32.43 C 62.06 32.75 55.55 30.96 50.33 26.89 C 50.44 27.94 50.56 28.98 50.68 30.03 C 49.14 29.22 47.61 28.40 46.09 27.58 Z" />
<path fill="#ffffff" opacity="1.00" d=" M 22.15 22.57 C 26.72 25.57 31.04 28.94 35.31 32.35 C 31.49 36.82 26.31 39.70 20.53 40.72 C 23.30 37.68 26.23 34.76 28.60 31.38 C 26.64 32.07 24.70 32.83 22.76 33.58 C 23.82 32.07 24.91 30.58 26.00 29.09 C 24.68 26.94 23.38 24.78 22.15 22.57 Z" />
<path fill="#ffffff" opacity="1.00" d=" M 33.44 24.49 C 36.44 24.20 39.49 24.33 42.40 25.16 C 39.39 26.20 36.10 26.62 33.44 24.49 Z" />
<path fill="#ffffff" opacity="1.00" d=" M 33.41 29.01 C 37.36 28.35 42.05 26.12 45.64 28.98 C 43.89 30.01 42.08 31.25 39.99 31.38 C 37.67 31.02 35.55 29.93 33.41 29.01 Z" />
<path fill="#ffffff" opacity="1.00" d=" M 35.31 40.30 C 39.88 37.49 44.29 33.43 50.00 33.59 C 55.94 33.60 60.52 37.80 65.32 40.69 C 69.52 43.38 74.24 45.05 79.02 46.37 C 73.30 47.76 67.47 49.27 62.43 52.43 C 58.59 54.78 54.76 57.90 50.01 57.76 C 45.49 58.00 41.75 55.18 38.18 52.83 C 33.02 49.38 26.93 47.82 20.98 46.37 C 26.00 45.00 30.95 43.18 35.31 40.30 M 33.52 44.39 C 44.50 44.62 55.50 44.63 66.48 44.38 C 61.49 41.32 56.90 36.87 50.89 36.05 C 44.03 35.59 39.00 41.17 33.52 44.39 M 30.90 46.44 C 35.09 48.29 39.11 50.48 42.91 53.04 C 46.41 55.55 51.22 56.26 55.05 54.05 C 59.68 51.43 64.16 48.52 69.09 46.44 C 64.68 46.57 60.27 46.59 55.86 46.59 C 54.68 49.20 53.63 53.13 50.00 52.85 C 46.29 53.25 45.07 49.33 44.01 46.59 C 39.64 46.58 35.27 46.57 30.90 46.44 Z" />
<path fill="#ffffff" opacity="1.00" d=" M 63.68 33.85 C 66.31 34.99 68.70 36.65 70.54 38.86 C 67.97 37.62 65.61 35.96 63.68 33.85 Z" />
<path fill="#941271" opacity="1.00" d=" M 33.52 44.39 C 39.00 41.17 44.03 35.59 50.89 36.05 C 56.90 36.87 61.49 41.32 66.48 44.38 C 55.50 44.63 44.50 44.62 33.52 44.39 Z" />
<path fill="#ffffff" opacity="1.00" d=" M 73.47 39.73 C 73.79 38.19 74.62 36.83 75.26 35.41 C 75.40 37.80 75.43 40.19 75.40 42.58 C 74.73 41.65 74.02 40.74 73.47 39.73 Z" />
<path fill="#ffffff" opacity="1.00" d=" M 79.24 38.90 C 80.19 40.08 81.14 41.28 82.07 42.48 C 80.40 42.65 78.73 42.81 77.06 42.97 C 77.79 41.61 78.51 40.25 79.24 38.90 Z" />
<path fill="#90086b" opacity="1.00" d=" M 30.90 46.44 C 35.27 46.57 39.64 46.58 44.01 46.59 C 45.07 49.33 46.29 53.25 50.00 52.85 C 53.63 53.13 54.68 49.20 55.86 46.59 C 60.27 46.59 64.68 46.57 69.09 46.44 C 64.16 48.52 59.68 51.43 55.05 54.05 C 51.22 56.26 46.41 55.55 42.91 53.04 C 39.11 50.48 35.09 48.29 30.90 46.44 Z" />
<path fill="#ffffff" opacity="1.00" d=" M 71.41 55.39 C 74.58 51.55 79.53 50.30 84.29 49.86 C 80.71 53.11 75.95 54.21 71.41 55.39 Z" />
<path fill="#ffffff" opacity="1.00" d=" M 20.76 50.91 C 25.90 51.96 30.72 54.11 35.13 56.93 C 32.75 61.05 30.25 65.15 26.91 68.58 C 27.40 65.84 28.01 63.12 28.66 60.41 C 26.84 59.23 24.91 58.18 23.35 56.66 C 22.00 55.01 21.54 52.85 20.76 50.91 Z" />
<path fill="#ffffff" opacity="1.00" d=" M 61.06 59.09 C 63.38 57.69 65.71 56.31 68.07 54.97 C 68.83 57.09 69.67 59.18 70.57 61.25 C 71.84 60.59 73.11 59.92 74.38 59.27 C 73.61 60.47 72.82 61.66 72.03 62.86 C 73.53 65.23 74.99 67.64 76.31 70.11 C 71.39 66.22 67.27 61.02 61.06 59.09 Z" />
<path fill="#ffffff" opacity="1.00" d=" M 36.53 58.44 C 39.14 59.44 41.67 60.62 44.04 62.11 C 46.05 62.44 48.05 62.78 50.07 63.10 C 48.93 63.98 47.78 64.85 46.64 65.72 C 46.76 66.69 46.89 67.66 47.02 68.64 C 44.11 66.84 41.04 65.31 37.74 64.37 C 37.35 62.39 36.91 60.42 36.53 58.44 Z" />
<path fill="#ffffff" opacity="1.00" d=" M 54.00 60.89 C 57.85 61.63 61.70 62.36 65.56 62.99 C 61.38 65.42 56.84 67.36 51.89 67.12 C 51.41 69.22 50.94 71.32 50.44 73.41 C 49.37 70.91 48.37 68.39 47.37 65.86 C 50.75 65.22 54.15 64.65 57.55 64.13 C 56.37 63.05 55.18 61.97 54.00 60.89 Z" />
</svg>
