<?xml version="1.0" encoding="UTF-8" ?>
<!DOCTYPE svg PUBLIC "-//W3C//DTD SVG 1.1//EN" "http://www.w3.org/Graphics/SVG/1.1/DTD/svg11.dtd">
<svg width="100pt" height="100pt" viewBox="0 0 100 100" version="1.1" xmlns="http://www.w3.org/2000/svg">
<path fill="#ffffff" opacity="1.00" d=" M 42.45 12.61 C 60.89 8.25 81.23 20.57 86.41 38.72 C 91.91 54.41 84.75 73.01 70.91 81.88 C 61.53 87.92 49.45 90.23 38.77 86.42 C 20.06 81.13 7.61 59.75 12.96 40.95 C 16.23 26.82 28.24 15.36 42.45 12.61 M 45.40 15.59 C 37.43 16.59 29.92 20.57 24.51 26.49 C 13.62 37.85 12.21 56.79 21.39 69.59 C 30.11 82.91 48.53 88.42 63.16 82.14 C 78.51 76.11 87.89 58.23 83.82 42.18 C 80.22 25.23 62.60 12.86 45.40 15.59 Z" />
<path fill="#482b46" opacity="1.00" d=" M 45.40 15.59 C 62.60 12.86 80.22 25.23 83.82 42.18 C 87.89 58.23 78.51 76.11 63.16 82.14 C 48.53 88.42 30.11 82.91 21.39 69.59 C 12.21 56.79 13.62 37.85 24.51 26.49 C 29.92 20.57 37.43 16.59 45.40 15.59 M 35.87 27.90 C 30.31 31.62 25.00 36.60 23.17 43.24 C 21.60 49.71 23.94 56.39 26.93 62.10 C 31.27 70.24 40.19 76.00 49.55 75.59 C 43.96 72.66 36.93 72.45 32.43 67.57 C 27.81 62.52 24.39 55.89 23.96 48.99 C 23.58 41.00 29.82 35.17 35.15 30.15 C 37.97 27.46 42.01 27.06 45.67 26.51 C 46.03 29.38 46.64 32.26 46.42 35.17 C 45.96 37.50 44.77 39.60 43.90 41.79 C 46.30 43.79 48.72 45.77 51.12 47.78 C 46.18 48.50 41.25 49.28 36.45 50.66 C 40.29 56.41 44.57 61.85 48.62 67.45 C 52.13 71.79 49.75 77.62 49.68 82.59 C 52.78 79.44 55.50 75.93 57.96 72.25 C 56.49 69.90 55.01 67.55 53.58 65.17 C 55.90 63.97 58.25 62.82 60.63 61.73 C 59.32 59.27 58.05 56.80 56.82 54.31 C 59.03 53.86 61.24 53.44 63.44 52.97 C 61.30 48.71 58.95 44.43 58.23 39.65 C 57.47 34.84 55.47 30.39 53.65 25.91 C 57.65 27.04 61.85 28.12 65.11 30.83 C 69.23 34.18 72.00 38.76 75.24 42.89 C 72.60 35.55 67.01 29.24 59.73 26.29 C 52.11 23.24 42.84 23.20 35.87 27.90 M 71.33 64.29 C 67.90 69.04 62.50 71.63 57.91 75.05 C 61.88 73.65 65.83 71.87 68.87 68.88 C 73.68 64.58 75.65 58.10 76.01 51.84 C 74.62 56.04 74.13 60.70 71.33 64.29 Z" />
<path fill="#ffffff" opacity="1.00" d=" M 35.87 27.90 C 42.84 23.20 52.11 23.24 59.73 26.29 C 67.01 29.24 72.60 35.55 75.24 42.89 C 72.00 38.76 69.23 34.18 65.11 30.83 C 61.85 28.12 57.65 27.04 53.65 25.91 C 55.47 30.39 57.47 34.84 58.23 39.65 C 58.95 44.43 61.30 48.71 63.44 52.97 C 61.24 53.44 59.03 53.86 56.82 54.31 C 58.05 56.80 59.32 59.27 60.63 61.73 C 58.25 62.82 55.90 63.97 53.58 65.17 C 55.01 67.55 56.49 69.90 57.96 72.25 C 55.50 75.93 52.78 79.44 49.68 82.59 C 49.75 77.62 52.13 71.79 48.62 67.45 C 44.57 61.85 40.29 56.41 36.45 50.66 C 41.25 49.28 46.18 48.50 51.12 47.78 C 48.72 45.77 46.30 43.79 43.90 41.79 C 44.77 39.60 45.96 37.50 46.42 35.17 C 46.64 32.26 46.03 29.38 45.67 26.51 C 42.01 27.06 37.97 27.46 35.15 30.15 C 29.82 35.17 23.58 41.00 23.96 48.99 C 24.39 55.89 27.81 62.52 32.43 67.57 C 36.93 72.45 43.96 72.66 49.55 75.59 C 40.19 76.00 31.27 70.24 26.93 62.10 C 23.94 56.39 21.60 49.71 23.17 43.24 C 25.00 36.60 30.31 31.62 35.87 27.90 M 52.41 29.26 C 53.20 32.45 54.42 35.54 56.17 38.34 C 55.84 34.99 54.69 31.77 52.41 29.26 M 45.54 41.75 C 46.86 42.64 48.18 43.53 49.51 44.41 C 49.12 42.15 48.66 39.89 48.10 37.66 C 47.23 39.02 46.39 40.38 45.54 41.75 M 46.28 54.78 C 47.59 56.80 48.91 58.81 50.24 60.82 C 51.57 58.84 52.82 56.81 53.97 54.72 C 51.41 54.69 48.84 54.72 46.28 54.78 M 56.25 56.42 C 54.86 59.04 53.40 61.63 52.18 64.34 C 54.53 63.31 56.85 62.20 59.18 61.11 C 58.20 59.55 57.23 57.98 56.25 56.42 Z" />
<path fill="#462b44" opacity="1.00" d=" M 52.41 29.26 C 54.69 31.77 55.84 34.99 56.17 38.34 C 54.42 35.54 53.20 32.45 52.41 29.26 Z" />
<path fill="#462b44" opacity="1.00" d=" M 45.54 41.75 C 46.39 40.38 47.23 39.02 48.10 37.66 C 48.66 39.89 49.12 42.15 49.51 44.41 C 48.18 43.53 46.86 42.64 45.54 41.75 Z" />
<path fill="#ffffff" opacity="1.00" d=" M 71.33 64.29 C 74.13 60.70 74.62 56.04 76.01 51.84 C 75.65 58.10 73.68 64.58 68.87 68.88 C 65.83 71.87 61.88 73.65 57.91 75.05 C 62.50 71.63 67.90 69.04 71.33 64.29 Z" />
<path fill="#462b44" opacity="1.00" d=" M 46.28 54.78 C 48.84 54.72 51.41 54.69 53.97 54.72 C 52.82 56.81 51.57 58.84 50.24 60.82 C 48.91 58.81 47.59 56.80 46.28 54.78 Z" />
<path fill="#391a37" opacity="1.00" d=" M 56.25 56.42 C 57.23 57.98 58.20 59.55 59.18 61.11 C 56.85 62.20 54.53 63.31 52.18 64.34 C 53.40 61.63 54.86 59.04 56.25 56.42 Z" />
</svg>
