<?xml version="1.0" encoding="UTF-8" ?>
<!DOCTYPE svg PUBLIC "-//W3C//DTD SVG 1.1//EN" "http://www.w3.org/Graphics/SVG/1.1/DTD/svg11.dtd">
<svg width="100pt" height="100pt" viewBox="0 0 100 100" version="1.1" xmlns="http://www.w3.org/2000/svg">
<path fill="#b8b8b8" opacity="1.00" d=" M 36.64 19.93 C 41.64 15.46 45.48 9.84 50.00 4.90 C 56.65 12.74 63.43 20.47 70.10 28.29 C 75.76 26.73 81.59 26.06 87.39 25.34 C 85.31 30.38 83.33 35.53 80.26 40.08 C 83.19 43.36 86.03 46.72 88.93 50.01 C 84.66 55.39 78.60 59.87 77.07 66.91 C 75.79 71.78 72.64 76.37 73.38 81.59 C 74.75 86.79 68.40 92.10 63.50 89.66 C 61.77 88.10 60.62 86.05 59.37 84.12 C 56.29 87.81 53.10 91.41 50.00 95.10 C 43.51 87.53 37.03 79.96 30.50 72.42 C 27.80 68.88 22.79 71.18 19.04 70.93 C 20.56 68.83 22.10 66.75 23.65 64.67 C 19.57 59.69 15.30 54.85 11.08 49.99 C 14.48 46.08 17.93 42.21 21.30 38.27 C 22.42 36.78 24.01 35.17 23.65 33.14 C 23.43 30.00 20.07 28.79 18.35 26.57 C 16.60 24.09 15.75 21.13 14.59 18.35 C 17.73 17.59 20.82 16.34 24.08 16.33 C 28.43 16.85 32.16 20.50 36.64 19.93 M 39.02 22.73 C 34.62 21.86 30.36 20.46 26.16 18.93 C 23.01 17.62 19.69 18.93 16.59 19.70 C 18.21 22.84 20.22 25.76 22.75 28.25 C 25.36 30.72 26.77 34.91 25.34 38.32 C 22.55 42.56 18.79 46.06 15.59 49.98 C 19.38 54.41 23.14 58.87 27.02 63.23 C 25.73 65.16 24.44 67.09 23.14 69.01 C 26.50 69.03 30.84 67.42 33.31 70.55 C 38.99 76.83 44.20 83.53 50.00 89.72 C 52.96 86.44 55.86 83.12 58.78 79.81 C 61.43 82.75 63.16 88.94 68.20 87.37 C 70.93 87.07 70.67 84.01 71.08 81.98 C 71.66 75.11 74.89 68.90 76.37 62.24 C 77.35 57.25 81.18 53.70 84.35 50.01 C 81.84 47.01 79.31 44.02 76.80 41.01 C 79.83 36.92 82.17 32.39 84.05 27.67 C 78.63 28.25 73.25 29.23 68.06 30.92 C 61.91 24.14 56.19 16.98 49.97 10.27 C 46.34 14.44 42.62 18.53 39.02 22.73 Z" />
<path fill="#c40f24" opacity="1.00" d=" M 39.02 22.73 C 42.62 18.53 46.34 14.44 49.97 10.27 C 56.19 16.98 61.91 24.14 68.06 30.92 C 73.25 29.23 78.63 28.25 84.05 27.67 C 82.17 32.39 79.83 36.92 76.80 41.01 C 79.31 44.02 81.84 47.01 84.35 50.01 C 81.18 53.70 77.35 57.25 76.37 62.24 C 74.89 68.90 71.66 75.11 71.08 81.98 C 70.67 84.01 70.93 87.07 68.20 87.37 C 63.16 88.94 61.43 82.75 58.78 79.81 C 55.86 83.12 52.96 86.44 50.00 89.72 C 44.20 83.53 38.99 76.83 33.31 70.55 C 30.84 67.42 26.50 69.03 23.14 69.01 C 24.44 67.09 25.73 65.16 27.02 63.23 C 23.14 58.87 19.38 54.41 15.59 49.98 C 18.79 46.06 22.55 42.56 25.34 38.32 C 26.77 34.91 25.36 30.72 22.75 28.25 C 20.22 25.76 18.21 22.84 16.59 19.70 C 19.69 18.93 23.01 17.62 26.16 18.93 C 30.36 20.46 34.62 21.86 39.02 22.73 M 20.21 20.83 C 21.60 23.04 23.39 24.94 25.28 26.72 C 28.10 29.09 27.92 33.13 28.75 36.42 C 29.85 43.90 32.22 51.20 32.73 58.75 C 31.41 61.86 28.64 64.15 26.70 66.91 C 29.80 66.12 33.27 65.93 35.84 63.81 C 39.02 61.35 41.61 58.20 44.92 55.90 C 53.89 49.57 63.00 43.43 72.24 37.49 C 72.30 38.33 72.43 40.01 72.50 40.85 C 74.73 37.68 77.01 34.51 78.74 31.03 C 76.50 31.57 74.04 31.66 72.03 32.88 C 70.06 34.47 68.74 36.70 67.00 38.54 C 63.64 33.59 58.68 29.90 53.02 27.99 C 45.61 24.98 37.34 25.75 29.84 23.11 C 26.72 22.01 23.54 21.04 20.21 20.83 M 63.20 44.08 C 65.20 48.38 67.98 52.44 68.78 57.20 C 69.64 63.76 67.16 70.08 65.14 76.20 C 59.75 73.49 54.35 70.79 49.02 67.96 C 45.17 65.81 41.11 63.83 36.60 63.77 C 44.18 69.34 52.76 73.34 60.71 78.33 C 63.73 79.97 64.59 83.51 66.05 86.36 C 66.89 85.73 67.74 85.09 68.58 84.45 C 66.97 75.37 73.92 67.88 74.20 59.02 C 74.61 52.47 71.48 46.51 68.54 40.90 C 66.73 41.92 64.97 43.00 63.20 44.08 Z" />
<path fill="#ffffff" opacity="1.00" d=" M 20.21 20.83 C 23.54 21.04 26.72 22.01 29.84 23.11 C 37.34 25.75 45.61 24.98 53.02 27.99 C 58.68 29.90 63.64 33.59 67.00 38.54 C 68.74 36.70 70.06 34.47 72.03 32.88 C 74.04 31.66 76.50 31.57 78.74 31.03 C 77.01 34.51 74.73 37.68 72.50 40.85 C 72.43 40.01 72.30 38.33 72.24 37.49 C 63.00 43.43 53.89 49.57 44.92 55.90 C 41.61 58.20 39.02 61.35 35.84 63.81 C 33.27 65.93 29.80 66.12 26.70 66.91 C 28.64 64.15 31.41 61.86 32.73 58.75 C 32.22 51.20 29.85 43.90 28.75 36.42 C 27.92 33.13 28.10 29.09 25.28 26.72 C 23.39 24.94 21.60 23.04 20.21 20.83 M 30.24 27.85 C 31.51 38.09 33.56 48.21 35.57 58.33 C 38.56 57.26 41.44 55.87 44.05 54.06 C 49.82 50.01 55.62 45.99 61.43 41.99 C 58.43 38.52 55.60 34.51 51.18 32.76 C 44.48 30.13 37.34 28.87 30.24 27.85 Z" />
<path fill="#c40f24" opacity="1.00" d=" M 30.24 27.85 C 37.34 28.87 44.48 30.13 51.18 32.76 C 55.60 34.51 58.43 38.52 61.43 41.99 C 55.62 45.99 49.82 50.01 44.05 54.06 C 41.44 55.87 38.56 57.26 35.57 58.33 C 33.56 48.21 31.51 38.09 30.24 27.85 Z" />
<path fill="#ffffff" opacity="1.00" d=" M 63.20 44.08 C 64.97 43.00 66.73 41.92 68.54 40.90 C 71.48 46.51 74.61 52.47 74.20 59.02 C 73.92 67.88 66.97 75.37 68.58 84.45 C 67.74 85.09 66.89 85.73 66.05 86.36 C 64.59 83.51 63.73 79.97 60.71 78.33 C 52.76 73.34 44.18 69.34 36.60 63.77 C 41.11 63.83 45.17 65.81 49.02 67.96 C 54.35 70.79 59.75 73.49 65.14 76.20 C 67.16 70.08 69.64 63.76 68.78 57.20 C 67.98 52.44 65.20 48.38 63.20 44.08 Z" />
</svg>
