<?xml version="1.0" encoding="UTF-8" ?>
<!DOCTYPE svg PUBLIC "-//W3C//DTD SVG 1.1//EN" "http://www.w3.org/Graphics/SVG/1.1/DTD/svg11.dtd">
<svg width="100pt" height="100pt" viewBox="0 0 100 100" version="1.1" xmlns="http://www.w3.org/2000/svg">
<path fill="#ffffff" opacity="1.00" d=" M 36.47 16.52 C 39.31 12.87 41.34 8.68 43.98 4.89 C 45.72 9.55 47.19 14.31 49.19 18.87 C 50.42 14.51 50.83 9.99 51.55 5.53 C 54.68 8.72 57.76 11.97 60.69 15.35 C 64.56 20.17 70.99 21.52 75.55 25.50 C 79.47 28.55 81.19 33.35 83.47 37.58 C 87.66 45.49 89.92 54.87 87.65 63.71 C 86.00 71.49 82.09 78.82 76.21 84.22 C 66.70 93.37 52.28 96.86 39.61 93.25 C 22.88 88.92 10.83 72.17 11.31 55.03 C 11.42 48.63 14.28 42.76 15.81 36.65 C 17.03 31.67 19.83 27.02 24.12 24.11 C 27.95 21.12 33.07 20.08 36.47 16.52 M 35.78 20.68 C 31.29 23.55 25.87 25.18 22.36 29.40 C 18.12 34.33 17.94 41.14 16.20 47.12 C 12.98 58.93 16.32 72.30 25.14 80.87 C 30.68 86.66 38.33 89.85 46.13 91.21 C 46.38 86.22 46.23 81.18 47.19 76.25 C 47.84 73.07 46.63 69.92 46.79 66.73 C 46.61 62.28 46.95 57.72 45.95 53.35 C 43.82 49.47 36.96 50.96 36.39 55.34 C 35.07 60.17 39.24 63.81 41.98 67.15 C 37.90 65.74 33.73 64.32 30.19 61.77 C 26.31 59.17 23.74 55.19 20.93 51.56 C 19.63 61.22 22.35 71.64 29.57 78.44 C 33.75 82.80 39.54 84.82 44.96 87.12 C 33.27 84.76 22.72 76.43 19.25 64.79 C 16.48 56.69 19.34 48.34 20.64 40.27 C 21.25 36.86 22.36 33.38 24.77 30.79 C 27.61 27.69 31.61 26.13 35.19 24.10 C 38.28 22.43 40.81 19.97 43.60 17.89 C 42.59 21.41 40.39 24.33 38.28 27.25 C 35.55 30.76 35.91 36.04 38.63 39.43 C 40.55 41.34 43.38 41.70 45.84 42.53 C 46.35 38.65 46.77 34.63 49.07 31.31 C 51.68 34.45 52.14 38.54 52.79 42.42 C 55.51 41.55 58.77 41.11 60.56 38.63 C 62.52 35.32 62.95 30.71 60.42 27.57 C 58.09 24.55 55.67 21.54 54.54 17.83 C 57.65 20.25 60.55 23.00 64.09 24.82 C 68.63 27.34 73.96 29.81 75.95 35.00 C 77.61 39.56 78.49 44.38 79.95 49.01 C 82.80 58.96 79.48 69.99 72.31 77.29 C 67.54 82.58 60.78 85.39 54.03 87.12 C 59.68 84.76 65.70 82.59 69.93 77.93 C 77.12 70.83 79.49 60.13 77.90 50.35 C 75.14 54.05 72.73 58.14 69.00 60.98 C 65.45 63.92 61.08 65.54 56.75 66.91 C 59.16 63.37 62.92 59.80 62.28 55.14 C 61.50 50.73 55.45 49.98 52.60 52.75 C 51.57 56.12 52.58 59.77 52.01 63.24 C 51.03 72.60 51.49 81.97 51.98 91.34 C 59.01 90.43 66.06 88.24 71.59 83.65 C 80.52 76.72 85.66 65.27 84.78 53.99 C 84.59 47.52 81.64 41.66 79.28 35.78 C 78.18 33.08 76.85 30.36 74.63 28.39 C 70.57 24.51 64.90 23.00 60.72 19.30 C 57.72 16.36 55.29 12.90 52.66 9.64 C 52.44 13.54 52.58 17.45 52.47 21.35 C 50.26 21.34 48.04 21.38 45.82 21.38 C 45.45 17.09 44.78 12.82 43.89 8.60 C 41.44 12.76 40.11 17.99 35.78 20.68 Z" />
<path fill="#482b46" opacity="1.00" d=" M 35.78 20.68 C 40.11 17.99 41.44 12.76 43.89 8.60 C 44.78 12.82 45.45 17.09 45.82 21.38 C 48.04 21.38 50.26 21.34 52.47 21.35 C 52.58 17.45 52.44 13.54 52.66 9.64 C 55.29 12.90 57.72 16.36 60.72 19.30 C 64.90 23.00 70.57 24.51 74.63 28.39 C 76.85 30.36 78.18 33.08 79.28 35.78 C 81.64 41.66 84.59 47.52 84.78 53.99 C 85.66 65.27 80.52 76.72 71.59 83.65 C 66.06 88.24 59.01 90.43 51.98 91.34 C 51.49 81.97 51.03 72.60 52.01 63.24 C 52.58 59.77 51.57 56.12 52.60 52.75 C 55.45 49.98 61.50 50.73 62.28 55.14 C 62.92 59.80 59.16 63.37 56.75 66.91 C 61.08 65.54 65.45 63.92 69.00 60.98 C 72.73 58.14 75.14 54.05 77.90 50.35 C 79.49 60.13 77.12 70.83 69.93 77.93 C 65.70 82.59 59.68 84.76 54.03 87.12 C 60.78 85.39 67.54 82.58 72.31 77.29 C 79.48 69.99 82.80 58.96 79.95 49.01 C 78.49 44.38 77.61 39.56 75.95 35.00 C 73.96 29.81 68.63 27.34 64.09 24.82 C 60.55 23.00 57.65 20.25 54.54 17.83 C 55.67 21.54 58.09 24.55 60.42 27.57 C 62.95 30.71 62.52 35.32 60.56 38.63 C 58.77 41.11 55.51 41.55 52.79 42.42 C 52.14 38.54 51.68 34.45 49.07 31.31 C 46.77 34.63 46.35 38.65 45.84 42.53 C 43.38 41.70 40.55 41.34 38.63 39.43 C 35.91 36.04 35.55 30.76 38.28 27.25 C 40.39 24.33 42.59 21.41 43.60 17.89 C 40.81 19.97 38.28 22.43 35.19 24.10 C 31.61 26.13 27.61 27.69 24.77 30.79 C 22.36 33.38 21.25 36.86 20.64 40.27 C 19.34 48.34 16.48 56.69 19.25 64.79 C 22.72 76.43 33.27 84.76 44.96 87.12 C 39.54 84.82 33.75 82.80 29.57 78.44 C 22.35 71.64 19.63 61.22 20.93 51.56 C 23.74 55.19 26.31 59.17 30.19 61.77 C 33.73 64.32 37.90 65.74 41.98 67.15 C 39.24 63.81 35.07 60.17 36.39 55.34 C 36.96 50.96 43.82 49.47 45.95 53.35 C 46.95 57.72 46.61 62.28 46.79 66.73 C 46.63 69.92 47.84 73.07 47.19 76.25 C 46.23 81.18 46.38 86.22 46.13 91.21 C 38.33 89.85 30.68 86.66 25.14 80.87 C 16.32 72.30 12.98 58.93 16.20 47.12 C 17.94 41.14 18.12 34.33 22.36 29.40 C 25.87 25.18 31.29 23.55 35.78 20.68 M 22.15 54.28 C 21.88 60.92 23.98 67.60 28.24 72.73 C 32.40 78.30 38.72 81.63 45.18 83.82 C 39.71 80.89 33.85 78.06 30.17 72.84 C 25.78 67.45 25.82 60.04 22.15 54.28 M 69.26 72.25 C 65.59 77.79 59.51 80.80 53.83 83.84 C 59.59 81.82 65.32 79.08 69.37 74.36 C 74.46 68.96 77.21 61.59 76.89 54.17 C 73.22 59.72 73.32 66.90 69.26 72.25 M 28.84 62.69 C 31.56 70.22 37.81 75.82 44.98 79.06 C 42.79 77.24 40.47 75.58 38.35 73.68 C 34.66 70.47 32.58 65.85 28.84 62.69 M 64.03 69.99 C 61.33 73.66 57.50 76.21 54.05 79.11 C 61.17 75.78 67.46 70.23 70.15 62.67 C 67.75 64.79 65.90 67.41 64.03 69.99 M 39.25 68.20 C 41.18 70.32 43.55 71.97 46.08 73.28 C 44.07 71.26 41.79 69.51 39.25 68.20 M 52.90 73.28 C 55.45 71.97 57.82 70.32 59.75 68.20 C 57.21 69.51 54.92 71.26 52.90 73.28 Z" />
<path fill="#ffffff" opacity="1.00" d=" M 22.15 54.28 C 25.82 60.04 25.78 67.45 30.17 72.84 C 33.85 78.06 39.71 80.89 45.18 83.82 C 38.72 81.63 32.40 78.30 28.24 72.73 C 23.98 67.60 21.88 60.92 22.15 54.28 Z" />
<path fill="#ffffff" opacity="1.00" d=" M 69.26 72.25 C 73.32 66.90 73.22 59.72 76.89 54.17 C 77.21 61.59 74.46 68.96 69.37 74.36 C 65.32 79.08 59.59 81.82 53.83 83.84 C 59.51 80.80 65.59 77.79 69.26 72.25 Z" />
<path fill="#ffffff" opacity="1.00" d=" M 28.84 62.69 C 32.58 65.85 34.66 70.47 38.35 73.68 C 40.47 75.58 42.79 77.24 44.98 79.06 C 37.81 75.82 31.56 70.22 28.84 62.69 Z" />
<path fill="#ffffff" opacity="1.00" d=" M 64.03 69.99 C 65.90 67.41 67.75 64.79 70.15 62.67 C 67.46 70.23 61.17 75.78 54.05 79.11 C 57.50 76.21 61.33 73.66 64.03 69.99 Z" />
<path fill="#ffffff" opacity="1.00" d=" M 39.25 68.20 C 41.79 69.51 44.07 71.26 46.08 73.28 C 43.55 71.97 41.18 70.32 39.25 68.20 Z" />
<path fill="#ffffff" opacity="1.00" d=" M 52.90 73.28 C 54.92 71.26 57.21 69.51 59.75 68.20 C 57.82 70.32 55.45 71.97 52.90 73.28 Z" />
</svg>
