<?xml version="1.0" encoding="UTF-8" ?>
<!DOCTYPE svg PUBLIC "-//W3C//DTD SVG 1.1//EN" "http://www.w3.org/Graphics/SVG/1.1/DTD/svg11.dtd">
<svg width="100pt" height="100pt" viewBox="0 0 100 100" version="1.1" xmlns="http://www.w3.org/2000/svg">
<path fill="#b8b8b8" opacity="1.00" d=" M 50.39 9.35 C 54.66 15.35 58.43 21.76 60.52 28.88 C 67.26 29.07 74.01 29.07 80.75 29.07 C 80.71 49.66 80.70 70.25 80.76 90.85 C 60.18 90.83 39.61 90.83 19.04 90.85 C 19.05 70.41 19.09 49.97 19.02 29.53 C 21.08 28.90 23.84 29.12 25.10 27.02 C 26.59 24.48 26.97 21.47 27.76 18.66 C 30.19 18.16 32.62 17.66 35.06 17.17 C 36.57 19.37 38.08 21.56 39.62 23.73 C 43.69 19.31 46.99 14.28 50.39 9.35 M 38.66 27.47 C 36.85 24.75 35.03 22.04 33.14 19.38 C 29.32 23.08 27.38 28.12 24.55 32.52 C 22.19 35.88 22.51 40.12 22.52 44.01 C 22.83 58.54 22.37 73.08 22.79 87.61 C 41.08 87.47 59.38 87.49 77.67 87.60 C 77.63 69.22 77.70 50.84 77.65 32.46 C 71.39 32.60 65.13 32.58 58.87 32.51 C 56.96 26.08 54.26 19.89 50.43 14.36 C 47.12 19.24 43.45 23.96 38.66 27.47 Z" />
<path fill="#b61c2e" opacity="1.00" d=" M 38.66 27.47 C 43.45 23.96 47.12 19.24 50.43 14.36 C 54.26 19.89 56.96 26.08 58.87 32.51 C 65.13 32.58 71.39 32.60 77.65 32.46 C 77.70 50.84 77.63 69.22 77.67 87.60 C 59.38 87.49 41.08 87.47 22.79 87.61 C 22.37 73.08 22.83 58.54 22.52 44.01 C 22.51 40.12 22.19 35.88 24.55 32.52 C 27.38 28.12 29.32 23.08 33.14 19.38 C 35.03 22.04 36.85 24.75 38.66 27.47 M 37.88 31.02 C 36.03 28.46 34.28 25.82 32.57 23.16 C 30.42 29.57 26.86 35.40 24.91 41.89 C 26.99 40.47 29.07 39.04 31.18 37.66 C 33.41 43.42 36.03 49.04 37.55 55.04 C 40.12 65.60 42.54 76.20 45.11 86.76 C 46.00 86.80 47.80 86.86 48.70 86.89 C 45.20 73.04 42.23 59.06 39.87 44.96 C 40.92 44.62 41.98 44.27 43.04 43.92 C 44.87 46.42 46.67 48.94 48.51 51.43 C 51.95 46.17 55.58 40.49 55.75 34.00 C 55.47 28.63 52.72 23.83 50.59 19.02 C 47.22 23.86 43.08 28.14 37.88 31.02 M 55.11 70.10 C 52.51 71.67 50.87 74.24 49.91 77.07 C 55.90 74.21 61.27 70.27 67.05 67.02 C 69.97 65.25 73.12 63.77 75.71 61.49 C 76.38 59.64 76.48 57.66 76.77 55.73 C 69.29 60.11 62.28 65.24 55.11 70.10 M 32.59 87.42 C 36.47 86.74 39.85 84.48 41.43 80.79 C 38.14 82.50 35.14 84.73 32.59 87.42 Z" />
<path fill="#ffffff" opacity="1.00" d=" M 37.88 31.02 C 43.08 28.14 47.22 23.86 50.59 19.02 C 52.72 23.83 55.47 28.63 55.75 34.00 C 55.58 40.49 51.95 46.17 48.51 51.43 C 46.67 48.94 44.87 46.42 43.04 43.92 C 41.98 44.27 40.92 44.62 39.87 44.96 C 42.23 59.06 45.20 73.04 48.70 86.89 C 47.80 86.86 46.00 86.80 45.11 86.76 C 42.54 76.20 40.12 65.60 37.55 55.04 C 36.03 49.04 33.41 43.42 31.18 37.66 C 29.07 39.04 26.99 40.47 24.91 41.89 C 26.86 35.40 30.42 29.57 32.57 23.16 C 34.28 25.82 36.03 28.46 37.88 31.02 Z" />
<path fill="#ffffff" opacity="1.00" d=" M 55.11 70.10 C 62.28 65.24 69.29 60.11 76.77 55.73 C 76.48 57.66 76.38 59.64 75.71 61.49 C 73.12 63.77 69.97 65.25 67.05 67.02 C 61.27 70.27 55.90 74.21 49.91 77.07 C 50.87 74.24 52.51 71.67 55.11 70.10 Z" />
<path fill="#ffffff" opacity="1.00" d=" M 32.59 87.42 C 35.14 84.73 38.14 82.50 41.43 80.79 C 39.85 84.48 36.47 86.74 32.59 87.42 Z" />
</svg>
