<?xml version="1.0" encoding="UTF-8" ?>
<!DOCTYPE svg PUBLIC "-//W3C//DTD SVG 1.1//EN" "http://www.w3.org/Graphics/SVG/1.1/DTD/svg11.dtd">
<svg width="100pt" height="100pt" viewBox="0 0 100 100" version="1.1" xmlns="http://www.w3.org/2000/svg">
<path fill="#ffffff" opacity="1.00" d=" M 46.51 5.79 C 50.66 4.65 55.36 5.49 58.71 8.23 C 60.92 10.10 61.67 13.38 64.46 14.58 C 68.78 16.71 73.11 19.02 76.53 22.49 C 80.58 26.20 82.78 31.43 86.92 35.06 C 89.32 38.16 92.11 41.71 91.65 45.88 C 91.40 49.68 91.71 53.98 89.00 57.04 C 86.48 60.19 85.66 64.22 83.82 67.74 C 79.16 76.86 70.56 83.82 60.73 86.66 C 42.73 92.59 21.29 81.97 14.72 64.26 C 13.65 60.67 11.49 57.63 9.52 54.50 C 8.33 50.83 8.38 46.85 8.57 43.04 C 9.61 39.94 11.37 37.04 13.60 34.65 C 17.94 30.56 20.32 24.80 25.09 21.10 C 28.66 17.68 33.47 16.14 37.48 13.42 C 39.60 9.99 42.23 6.47 46.51 5.79 M 43.22 9.22 C 40.16 11.11 40.76 15.86 37.46 17.47 C 34.09 19.39 30.46 20.95 27.53 23.56 C 24.42 26.14 22.27 29.62 19.58 32.60 C 17.36 35.08 14.05 36.51 12.38 39.49 C 10.04 43.21 10.55 47.83 11.02 51.98 C 11.29 54.52 13.30 56.30 14.74 58.24 C 17.92 61.99 19.28 66.87 22.24 70.76 C 25.28 75.12 29.68 78.22 34.09 81.07 C 34.73 77.11 35.69 73.21 36.91 69.39 C 39.00 70.49 41.11 71.59 43.06 72.94 C 47.33 75.79 48.74 81.04 51.07 85.34 C 52.19 82.06 53.13 78.71 54.47 75.51 C 56.08 72.01 59.55 69.98 62.69 68.03 C 64.33 72.04 65.92 76.07 67.85 79.95 C 73.66 76.05 78.66 70.87 81.47 64.39 C 83.07 60.30 86.45 57.35 88.58 53.61 C 89.67 48.58 90.20 42.60 86.81 38.29 C 84.82 35.91 81.93 34.49 79.95 32.09 C 77.22 28.84 74.82 25.22 71.35 22.66 C 68.32 20.20 64.56 18.91 61.38 16.68 C 59.26 14.37 59.32 10.26 56.13 8.86 C 52.11 6.99 47.12 7.03 43.22 9.22 M 37.57 83.55 C 38.32 80.51 37.97 77.37 37.14 74.38 C 35.85 77.39 36.26 80.63 37.57 83.55 M 62.02 81.38 C 62.88 81.50 64.59 81.73 65.45 81.85 C 64.61 79.29 63.77 76.72 62.87 74.19 C 62.54 76.58 62.27 78.98 62.02 81.38 Z" />
<path fill="#482b46" opacity="1.00" d=" M 43.22 9.22 C 47.12 7.03 52.11 6.99 56.13 8.86 C 59.32 10.26 59.26 14.37 61.38 16.68 C 64.56 18.91 68.32 20.20 71.35 22.66 C 74.82 25.22 77.22 28.84 79.95 32.09 C 81.93 34.49 84.82 35.91 86.81 38.29 C 90.20 42.60 89.67 48.58 88.58 53.61 C 86.45 57.35 83.07 60.30 81.47 64.39 C 78.66 70.87 73.66 76.05 67.85 79.95 C 65.92 76.07 64.33 72.04 62.69 68.03 C 59.55 69.98 56.08 72.01 54.47 75.51 C 53.13 78.71 52.19 82.06 51.07 85.34 C 48.74 81.04 47.33 75.79 43.06 72.94 C 41.11 71.59 39.00 70.49 36.91 69.39 C 35.69 73.21 34.73 77.11 34.09 81.07 C 29.68 78.22 25.28 75.12 22.24 70.76 C 19.28 66.87 17.92 61.99 14.74 58.24 C 13.30 56.30 11.29 54.52 11.02 51.98 C 10.55 47.83 10.04 43.21 12.38 39.49 C 14.05 36.51 17.36 35.08 19.58 32.60 C 22.27 29.62 24.42 26.14 27.53 23.56 C 30.46 20.95 34.09 19.39 37.46 17.47 C 40.76 15.86 40.16 11.11 43.22 9.22 M 42.62 14.04 C 42.01 19.31 43.25 25.30 47.41 28.89 C 49.53 29.74 51.90 29.47 54.14 29.68 C 56.56 24.34 58.76 18.21 56.85 12.38 C 54.42 9.85 50.51 9.70 47.25 10.25 C 45.28 10.66 42.74 11.69 42.62 14.04 M 39.67 30.02 C 41.79 30.47 43.91 30.87 46.04 31.24 C 45.12 29.78 44.18 28.32 43.25 26.87 C 42.05 27.92 40.87 28.97 39.67 30.02 M 16.99 38.07 C 12.15 41.38 12.52 48.21 13.93 53.20 C 18.89 60.14 26.09 66.40 34.89 67.41 C 36.18 64.83 37.50 62.26 38.84 59.71 C 35.28 57.11 30.92 56.21 26.58 56.51 C 25.06 51.62 23.12 46.87 21.91 41.89 C 23.19 43.55 24.51 45.20 25.69 46.94 C 27.36 46.20 29.05 45.47 30.74 44.78 C 32.25 48.38 34.27 51.88 38.12 53.35 C 36.52 50.10 34.50 47.09 32.51 44.08 C 33.31 43.28 34.10 42.47 34.89 41.65 C 35.05 45.92 37.21 49.92 40.66 52.42 C 43.84 54.02 47.17 51.88 49.98 50.45 C 52.80 51.84 56.15 54.17 59.33 52.43 C 62.79 49.93 64.95 45.93 65.11 41.66 C 65.90 42.47 66.69 43.28 67.49 44.07 C 65.36 47.23 63.31 50.45 61.67 53.90 C 65.34 51.93 67.69 48.53 69.29 44.79 C 70.97 45.47 72.64 46.20 74.31 46.94 C 75.49 45.20 76.80 43.55 78.09 41.89 C 76.88 46.87 74.94 51.62 73.42 56.51 C 69.07 56.20 64.73 57.14 61.13 59.67 C 62.48 62.23 63.81 64.81 65.11 67.40 C 73.92 66.40 81.11 60.14 86.07 53.19 C 87.25 48.79 87.81 43.21 84.60 39.49 C 80.55 35.63 75.41 33.22 70.61 30.45 C 66.97 28.35 62.24 27.87 58.37 29.60 C 55.58 31.81 53.66 34.93 50.83 37.10 C 48.17 36.72 46.82 33.94 44.42 32.96 C 41.36 31.74 38.41 30.28 35.78 28.27 C 28.87 30.02 22.73 33.96 16.99 38.07 M 39.20 54.38 C 41.52 58.72 44.15 62.94 45.33 67.79 C 45.83 70.59 49.13 72.42 51.72 71.05 C 54.95 69.97 55.39 66.15 56.44 63.38 C 57.28 60.18 59.31 57.52 60.97 54.71 C 57.51 55.46 54.21 56.79 50.79 57.66 C 46.86 56.90 43.25 54.80 39.20 54.38 M 38.69 65.60 C 40.24 66.46 41.79 67.31 43.36 68.14 C 42.78 65.03 41.95 61.96 40.85 58.99 C 40.08 61.18 39.37 63.38 38.69 65.60 M 59.10 59.28 C 58.53 62.00 57.99 64.73 57.58 67.48 C 58.83 66.77 60.11 66.12 61.43 65.54 C 60.68 63.44 59.91 61.35 59.10 59.28 Z" />
<path fill="#ffffff" opacity="1.00" d=" M 42.62 14.04 C 42.74 11.69 45.28 10.66 47.25 10.25 C 50.51 9.70 54.42 9.85 56.85 12.38 C 58.76 18.21 56.56 24.34 54.14 29.68 C 51.90 29.47 49.53 29.74 47.41 28.89 C 43.25 25.30 42.01 19.31 42.62 14.04 Z" />
<path fill="#ffffff" opacity="1.00" d=" M 39.67 30.02 C 40.87 28.97 42.05 27.92 43.25 26.87 C 44.18 28.32 45.12 29.78 46.04 31.24 C 43.91 30.87 41.79 30.47 39.67 30.02 Z" />
<path fill="#ffffff" opacity="1.00" d=" M 16.99 38.07 C 22.73 33.96 28.87 30.02 35.78 28.27 C 38.41 30.28 41.36 31.74 44.42 32.96 C 46.82 33.94 48.17 36.72 50.83 37.10 C 53.66 34.93 55.58 31.81 58.37 29.60 C 62.24 27.87 66.97 28.35 70.61 30.45 C 75.41 33.22 80.55 35.63 84.60 39.49 C 87.81 43.21 87.25 48.79 86.07 53.19 C 81.11 60.14 73.92 66.40 65.11 67.40 C 63.81 64.81 62.48 62.23 61.13 59.67 C 64.73 57.14 69.07 56.20 73.42 56.51 C 74.94 51.62 76.88 46.87 78.09 41.89 C 76.80 43.55 75.49 45.20 74.31 46.94 C 72.64 46.20 70.97 45.47 69.29 44.79 C 67.69 48.53 65.34 51.93 61.67 53.90 C 63.31 50.45 65.36 47.23 67.49 44.07 C 66.69 43.28 65.90 42.47 65.11 41.66 C 64.95 45.93 62.79 49.93 59.33 52.43 C 56.15 54.17 52.80 51.84 49.98 50.45 C 47.17 51.88 43.84 54.02 40.66 52.42 C 37.21 49.92 35.05 45.92 34.89 41.65 C 34.10 42.47 33.31 43.28 32.51 44.08 C 34.50 47.09 36.52 50.10 38.12 53.35 C 34.27 51.88 32.25 48.38 30.74 44.78 C 29.05 45.47 27.36 46.20 25.69 46.94 C 24.51 45.20 23.19 43.55 21.91 41.89 C 23.12 46.87 25.06 51.62 26.58 56.51 C 30.92 56.21 35.28 57.11 38.84 59.71 C 37.50 62.26 36.18 64.83 34.89 67.41 C 26.09 66.40 18.89 60.14 13.93 53.20 C 12.52 48.21 12.15 41.38 16.99 38.07 Z" />
<path fill="#ffffff" opacity="1.00" d=" M 39.20 54.38 C 43.25 54.80 46.86 56.90 50.79 57.66 C 54.21 56.79 57.51 55.46 60.97 54.71 C 59.31 57.52 57.28 60.18 56.44 63.38 C 55.39 66.15 54.95 69.97 51.72 71.05 C 49.13 72.42 45.83 70.59 45.33 67.79 C 44.15 62.94 41.52 58.72 39.20 54.38 Z" />
<path fill="#ffffff" opacity="1.00" d=" M 38.69 65.60 C 39.37 63.38 40.08 61.18 40.85 58.99 C 41.95 61.96 42.78 65.03 43.36 68.14 C 41.79 67.31 40.24 66.46 38.69 65.60 Z" />
<path fill="#ffffff" opacity="1.00" d=" M 59.10 59.28 C 59.91 61.35 60.68 63.44 61.43 65.54 C 60.11 66.12 58.83 66.77 57.58 67.48 C 57.99 64.73 58.53 62.00 59.10 59.28 Z" />
<path fill="#482b46" opacity="1.00" d=" M 37.57 83.55 C 36.26 80.63 35.85 77.39 37.14 74.38 C 37.97 77.37 38.32 80.51 37.57 83.55 Z" />
<path fill="#482b46" opacity="1.00" d=" M 62.02 81.38 C 62.27 78.98 62.54 76.58 62.87 74.19 C 63.77 76.72 64.61 79.29 65.45 81.85 C 64.59 81.73 62.88 81.50 62.02 81.38 Z" />
</svg>
