<?xml version="1.0" encoding="UTF-8" ?>
<!DOCTYPE svg PUBLIC "-//W3C//DTD SVG 1.1//EN" "http://www.w3.org/Graphics/SVG/1.1/DTD/svg11.dtd">
<svg width="100pt" height="100pt" viewBox="0 0 100 100" version="1.1" xmlns="http://www.w3.org/2000/svg">
<path fill="#bcc6bf" opacity="1.00" d=" M 61.29 23.13 C 68.76 22.91 74.68 17.76 81.71 15.95 C 81.44 16.34 80.91 17.12 80.64 17.52 C 73.96 20.99 67.38 25.27 59.72 26.11 C 59.23 24.14 58.78 22.15 58.30 20.18 C 50.39 18.76 42.34 18.75 34.40 19.89 C 33.71 21.78 33.03 23.68 32.35 25.57 C 25.08 25.78 17.79 25.62 10.52 25.92 C 13.34 30.84 16.79 35.33 20.24 39.82 C 22.40 42.41 22.50 45.88 23.62 48.92 C 25.04 51.21 27.55 52.57 29.06 54.80 C 30.04 56.89 30.22 59.24 30.69 61.47 C 33.45 62.38 36.61 62.97 38.47 65.43 C 41.66 69.43 44.29 73.84 47.39 77.90 C 52.91 70.61 57.69 62.77 64.04 56.13 C 64.85 57.16 65.63 58.20 66.40 59.25 C 67.36 56.24 68.25 53.20 69.15 50.17 C 73.19 51.39 77.24 52.60 81.28 53.81 C 79.22 50.73 77.14 47.66 75.09 44.57 C 78.68 43.67 82.28 42.77 85.88 41.89 C 83.15 39.99 80.42 38.09 77.71 36.16 C 81.40 33.09 85.01 29.95 88.65 26.83 C 84.62 26.22 80.59 25.68 76.55 25.15 C 77.84 22.89 79.12 20.62 80.27 18.28 C 80.51 19.74 80.75 21.21 80.98 22.67 C 85.45 22.71 89.80 23.75 94.03 25.17 C 89.82 28.88 85.49 32.43 81.27 36.13 C 83.90 38.15 86.58 40.13 89.23 42.12 C 85.89 43.51 82.51 44.84 79.14 46.16 C 80.70 49.51 82.25 52.86 83.79 56.22 C 79.57 55.19 75.35 54.13 71.13 53.05 C 69.10 56.54 67.26 60.14 65.64 63.84 C 64.99 62.74 64.33 61.64 63.67 60.55 C 57.86 67.70 53.01 75.56 47.59 83.00 C 43.90 78.42 40.67 73.51 37.27 68.72 C 35.23 65.30 31.01 64.72 27.70 63.12 C 27.85 61.12 28.17 59.11 28.10 57.10 C 26.76 53.73 23.06 52.11 21.25 49.07 C 20.35 46.89 19.96 44.48 18.54 42.54 C 13.93 35.92 8.93 29.56 4.60 22.75 C 13.36 22.46 22.13 22.70 30.89 22.75 C 31.16 21.20 31.38 19.64 31.63 18.09 C 41.20 16.36 50.93 16.59 60.50 18.11 C 60.77 19.79 61.01 21.46 61.29 23.13 Z" />
<path fill="#8a1b6c" opacity="1.00" d=" M 59.72 26.11 C 67.38 25.27 73.96 20.99 80.64 17.52 L 80.27 18.28 C 79.12 20.62 77.84 22.89 76.55 25.15 C 80.59 25.68 84.62 26.22 88.65 26.83 C 85.01 29.95 81.40 33.09 77.71 36.16 C 80.42 38.09 83.15 39.99 85.88 41.89 C 82.28 42.77 78.68 43.67 75.09 44.57 C 77.14 47.66 79.22 50.73 81.28 53.81 C 77.24 52.60 73.19 51.39 69.15 50.17 C 68.25 53.20 67.36 56.24 66.40 59.25 C 65.63 58.20 64.85 57.16 64.04 56.13 C 57.69 62.77 52.91 70.61 47.39 77.90 C 44.29 73.84 41.66 69.43 38.47 65.43 C 36.61 62.97 33.45 62.38 30.69 61.47 C 30.22 59.24 30.04 56.89 29.06 54.80 C 27.55 52.57 25.04 51.21 23.62 48.92 C 22.50 45.88 22.40 42.41 20.24 39.82 C 16.79 35.33 13.34 30.84 10.52 25.92 C 17.79 25.62 25.08 25.78 32.35 25.57 C 33.03 23.68 33.71 21.78 34.40 19.89 C 42.34 18.75 50.39 18.76 58.30 20.18 C 58.78 22.15 59.23 24.14 59.72 26.11 M 35.80 22.20 C 35.32 23.90 34.95 25.64 34.20 27.24 C 31.62 29.07 28.25 28.90 25.26 29.45 C 25.07 35.50 25.90 41.52 27.73 47.29 C 26.97 47.58 25.45 48.16 24.69 48.45 C 26.89 49.71 29.12 50.95 31.36 52.14 C 31.64 48.01 29.43 44.38 28.48 40.49 C 27.69 37.65 27.90 34.67 27.90 31.76 C 30.27 31.26 32.77 31.03 34.95 29.87 C 36.70 28.52 37.48 26.33 38.55 24.46 C 43.44 23.92 48.51 23.26 53.33 24.64 C 55.04 26.57 55.83 29.50 58.40 30.52 C 60.92 31.64 63.54 32.54 66.05 33.70 C 69.91 31.85 73.72 29.89 77.35 27.63 C 74.76 28.18 72.18 28.77 69.58 29.29 C 71.76 26.79 74.07 24.40 76.19 21.85 C 71.31 23.93 67.11 27.54 61.97 29.00 C 58.06 29.29 56.78 25.36 56.27 22.25 C 49.48 21.17 42.59 21.10 35.80 22.20 M 30.02 34.38 C 30.29 39.39 31.53 44.28 33.79 48.77 C 37.17 46.72 41.05 46.00 44.93 46.91 C 47.33 44.38 49.40 41.50 52.10 39.26 C 55.20 37.34 58.69 36.14 62.04 34.72 C 57.81 33.30 53.83 30.95 51.72 26.85 C 47.93 26.44 44.12 26.44 40.33 26.85 C 38.23 30.88 34.29 33.22 30.02 34.38 M 70.85 34.01 C 76.06 34.23 80.84 31.90 84.09 27.88 C 79.36 29.13 74.94 31.35 70.85 34.01 M 57.72 39.49 C 60.92 39.86 64.15 39.73 67.33 39.25 C 67.29 37.83 67.24 36.41 67.17 34.98 C 63.95 36.33 60.73 37.71 57.72 39.49 M 58.99 54.97 C 55.58 59.28 50.98 62.38 46.14 64.89 C 41.63 61.76 38.06 57.57 34.21 53.72 C 33.34 56.07 32.52 58.44 31.74 60.82 C 32.84 59.99 33.93 59.14 35.03 58.30 C 38.30 61.90 42.03 65.05 46.06 67.79 C 50.86 65.24 55.76 62.56 59.36 58.38 C 62.44 54.75 65.14 50.80 68.19 47.15 C 71.19 48.50 74.20 49.84 77.26 51.07 C 75.14 48.40 72.91 45.82 70.79 43.16 C 74.61 42.47 78.43 41.78 82.22 41.00 C 78.52 40.59 74.78 40.62 71.07 40.95 C 72.89 39.69 74.72 38.45 76.51 37.14 C 74.45 37.16 72.36 37.04 70.33 37.44 C 64.35 41.69 63.64 49.67 58.99 54.97 M 53.53 43.52 C 50.87 44.91 49.34 47.62 47.63 49.95 C 45.51 49.89 43.37 49.58 41.25 49.89 C 39.59 50.52 38.30 51.84 36.88 52.87 C 39.58 56.32 42.74 59.37 46.19 62.05 C 54.56 58.30 60.93 50.81 63.18 41.90 C 59.96 42.39 56.64 42.50 53.53 43.52 Z" />
<path fill="#ffffff" opacity="1.00" d=" M 35.80 22.20 C 42.59 21.10 49.48 21.17 56.27 22.25 C 56.78 25.36 58.06 29.29 61.97 29.00 C 67.11 27.54 71.31 23.93 76.19 21.85 C 74.07 24.40 71.76 26.79 69.58 29.29 C 72.18 28.77 74.76 28.18 77.35 27.63 C 73.72 29.89 69.91 31.85 66.05 33.70 C 63.54 32.54 60.92 31.64 58.40 30.52 C 55.83 29.50 55.04 26.57 53.33 24.64 C 48.51 23.26 43.44 23.92 38.55 24.46 C 37.48 26.33 36.70 28.52 34.95 29.87 C 32.77 31.03 30.27 31.26 27.90 31.76 C 27.90 34.67 27.69 37.65 28.48 40.49 C 29.43 44.38 31.64 48.01 31.36 52.14 C 29.12 50.95 26.89 49.71 24.69 48.45 C 25.45 48.16 26.97 47.58 27.73 47.29 C 25.90 41.52 25.07 35.50 25.26 29.45 C 28.25 28.90 31.62 29.07 34.20 27.24 C 34.95 25.64 35.32 23.90 35.80 22.20 Z" />
<path fill="#ffffff" opacity="1.00" d=" M 30.02 34.38 C 34.29 33.22 38.23 30.88 40.33 26.85 C 44.12 26.44 47.93 26.44 51.72 26.85 C 53.83 30.95 57.81 33.30 62.04 34.72 C 58.69 36.14 55.20 37.34 52.10 39.26 C 49.40 41.50 47.33 44.38 44.93 46.91 C 41.05 46.00 37.17 46.72 33.79 48.77 C 31.53 44.28 30.29 39.39 30.02 34.38 Z" />
<path fill="#ffffff" opacity="1.00" d=" M 70.85 34.01 C 74.94 31.35 79.36 29.13 84.09 27.88 C 80.84 31.90 76.06 34.23 70.85 34.01 Z" />
<path fill="#ffffff" opacity="1.00" d=" M 57.72 39.49 C 60.73 37.71 63.95 36.33 67.17 34.98 C 67.24 36.41 67.29 37.83 67.33 39.25 C 64.15 39.73 60.92 39.86 57.72 39.49 Z" />
<path fill="#ffffff" opacity="1.00" d=" M 58.99 54.97 C 63.64 49.67 64.35 41.69 70.33 37.44 C 72.36 37.04 74.45 37.16 76.51 37.14 C 74.72 38.45 72.89 39.69 71.07 40.95 C 74.78 40.62 78.52 40.59 82.22 41.00 C 78.43 41.78 74.61 42.47 70.79 43.16 C 72.91 45.82 75.14 48.40 77.26 51.07 C 74.20 49.84 71.19 48.50 68.19 47.15 C 65.14 50.80 62.44 54.75 59.36 58.38 C 55.76 62.56 50.86 65.24 46.06 67.79 C 42.03 65.05 38.30 61.90 35.03 58.30 C 33.93 59.14 32.84 59.99 31.74 60.82 C 32.52 58.44 33.34 56.07 34.21 53.72 C 38.06 57.57 41.63 61.76 46.14 64.89 C 50.98 62.38 55.58 59.28 58.99 54.97 Z" />
<path fill="#ffffff" opacity="1.00" d=" M 53.53 43.52 C 56.64 42.50 59.96 42.39 63.18 41.90 C 60.93 50.81 54.56 58.30 46.19 62.05 C 42.74 59.37 39.58 56.32 36.88 52.87 C 38.30 51.84 39.59 50.52 41.25 49.89 C 43.37 49.58 45.51 49.89 47.63 49.95 C 49.34 47.62 50.87 44.91 53.53 43.52 Z" />
</svg>
