<?xml version="1.0" encoding="UTF-8" ?>
<!DOCTYPE svg PUBLIC "-//W3C//DTD SVG 1.1//EN" "http://www.w3.org/Graphics/SVG/1.1/DTD/svg11.dtd">
<svg width="100pt" height="100pt" viewBox="0 0 100 100" version="1.1" xmlns="http://www.w3.org/2000/svg">
<path fill="#b8b8b8" opacity="1.00" d=" M 46.62 21.37 C 47.97 19.70 49.17 17.91 50.52 16.24 C 51.82 17.91 52.87 19.88 54.64 21.12 C 58.28 22.44 62.92 22.10 65.48 25.49 C 68.92 29.41 73.87 32.25 75.70 37.39 C 77.65 42.18 76.07 47.34 74.32 51.92 C 80.46 61.27 86.64 70.59 92.87 79.88 C 64.61 79.82 36.35 79.85 8.09 79.87 C 14.27 70.61 20.43 61.34 26.56 52.06 C 24.66 47.58 23.18 42.48 24.90 37.70 C 26.68 32.34 31.85 29.44 35.40 25.40 C 38.09 22.06 42.74 22.02 46.62 21.37 M 50.34 23.08 C 49.09 24.70 47.89 26.37 46.64 27.99 C 46.24 26.63 45.86 25.28 45.49 23.91 C 42.58 24.48 39.43 24.97 37.28 27.22 C 33.38 31.06 28.04 34.35 26.82 40.07 C 25.82 44.66 28.09 49.01 29.97 53.03 C 25.32 60.98 19.56 68.21 14.89 76.14 C 28.26 76.52 41.63 76.21 55.00 76.32 C 65.49 76.19 76.00 76.58 86.48 76.08 C 81.88 68.01 76.13 60.69 71.12 52.88 C 72.89 48.37 75.38 43.41 73.51 38.53 C 71.57 33.54 66.79 30.58 63.09 26.99 C 60.96 24.74 57.81 24.38 54.89 24.10 C 54.72 25.33 54.55 26.57 54.38 27.80 C 53.00 26.25 51.73 24.62 50.34 23.08 Z" />
<path fill="#217a7a" opacity="1.00" d=" M 50.34 23.08 C 51.73 24.62 53.00 26.25 54.38 27.80 C 54.55 26.57 54.72 25.33 54.89 24.10 C 57.81 24.38 60.96 24.74 63.09 26.99 C 66.79 30.58 71.57 33.54 73.51 38.53 C 75.38 43.41 72.89 48.37 71.12 52.88 C 76.13 60.69 81.88 68.01 86.48 76.08 C 76.00 76.58 65.49 76.19 55.00 76.32 C 41.63 76.21 28.26 76.52 14.89 76.14 C 19.56 68.21 25.32 60.98 29.97 53.03 C 28.09 49.01 25.82 44.66 26.82 40.07 C 28.04 34.35 33.38 31.06 37.28 27.22 C 39.43 24.97 42.58 24.48 45.49 23.91 C 45.86 25.28 46.24 26.63 46.64 27.99 C 47.89 26.37 49.09 24.70 50.34 23.08 M 31.50 35.47 C 27.92 39.15 27.85 45.23 30.65 49.38 C 33.18 53.11 37.09 55.62 41.08 57.56 C 40.19 54.32 39.11 51.13 38.03 47.95 C 39.16 48.03 40.30 48.11 41.43 48.19 C 39.22 47.18 36.93 46.31 34.86 45.01 C 33.44 42.06 34.30 38.04 36.83 35.96 C 39.37 34.73 42.23 34.43 44.94 33.72 C 44.74 31.18 44.42 28.65 44.16 26.12 C 39.61 28.73 35.14 31.65 31.50 35.47 M 56.71 26.47 C 56.39 28.89 56.04 31.30 55.81 33.72 C 58.55 34.47 61.46 34.77 64.00 36.09 C 66.68 38.12 66.24 41.89 66.51 44.86 C 63.93 46.03 61.36 47.22 58.82 48.49 C 60.04 48.34 61.27 48.21 62.49 48.09 C 61.55 51.20 60.57 54.30 59.76 57.45 C 64.01 55.45 68.18 52.72 70.56 48.56 C 72.84 44.55 72.60 39.08 69.36 35.65 C 65.80 31.80 61.40 28.78 56.71 26.47 M 39.25 44.40 C 41.17 45.86 43.05 47.38 44.91 48.92 C 45.76 44.83 46.16 40.60 47.73 36.71 C 48.20 34.58 50.86 34.63 52.42 35.47 C 54.56 39.67 54.85 44.50 55.88 49.04 C 57.85 47.29 59.86 45.59 61.92 43.95 C 57.89 38.80 53.59 33.83 50.66 27.93 C 47.04 33.55 43.02 38.88 39.25 44.40 M 46.73 52.09 C 44.52 51.55 42.38 50.77 40.17 50.22 C 41.37 54.18 43.21 57.88 45.57 61.28 C 48.22 65.53 46.11 72.44 50.90 75.26 C 53.60 71.21 53.12 66.10 54.91 61.74 C 57.30 58.28 59.38 54.58 60.29 50.42 C 58.19 50.93 56.12 51.49 54.02 52.00 C 53.21 46.68 52.93 41.09 50.17 36.33 C 48.09 41.34 47.45 46.75 46.73 52.09 M 37.41 38.51 C 36.98 40.02 36.55 41.53 36.13 43.04 C 37.44 41.41 38.70 39.75 39.98 38.10 C 39.34 38.20 38.05 38.41 37.41 38.51 M 61.83 38.35 C 60.99 39.71 62.80 42.13 64.33 41.53 C 65.19 40.17 63.38 37.67 61.83 38.35 M 32.56 54.89 C 28.34 61.97 21.97 67.60 18.62 75.23 C 25.49 71.19 30.63 64.88 37.30 60.56 C 35.57 65.38 33.42 70.03 31.65 74.84 C 33.07 74.91 34.49 74.90 35.90 74.81 C 38.77 70.62 41.36 66.25 44.09 61.97 C 40.22 59.66 36.21 57.56 32.56 54.89 M 57.14 62.12 C 55.43 66.20 55.12 70.72 54.08 75.00 C 55.34 74.92 56.61 74.84 57.87 74.75 C 57.53 70.94 57.19 67.13 57.07 63.31 C 59.81 66.51 61.77 70.28 64.43 73.55 C 65.72 75.14 68.03 74.76 69.82 75.25 C 67.61 70.02 64.89 65.03 62.79 59.76 C 69.92 64.44 75.91 70.65 83.17 75.14 C 80.18 69.58 76.31 64.56 71.87 60.09 C 70.22 58.57 69.41 56.47 69.00 54.32 C 65.43 57.50 60.58 58.85 57.14 62.12 M 43.01 74.84 C 44.26 74.86 45.50 74.89 46.75 74.92 C 45.85 71.15 45.09 67.35 44.17 63.59 C 43.37 67.29 43.11 71.07 43.01 74.84 Z" />
<path fill="#ffffff" opacity="1.00" d=" M 31.50 35.47 C 35.14 31.65 39.61 28.73 44.16 26.12 C 44.42 28.65 44.74 31.18 44.94 33.72 C 42.23 34.43 39.37 34.73 36.83 35.96 C 34.30 38.04 33.44 42.06 34.86 45.01 C 36.93 46.31 39.22 47.18 41.43 48.19 C 40.30 48.11 39.16 48.03 38.03 47.95 C 39.11 51.13 40.19 54.32 41.08 57.56 C 37.09 55.62 33.18 53.11 30.65 49.38 C 27.85 45.23 27.92 39.15 31.50 35.47 Z" />
<path fill="#ffffff" opacity="1.00" d=" M 56.71 26.47 C 61.40 28.78 65.80 31.80 69.36 35.65 C 72.60 39.08 72.84 44.55 70.56 48.56 C 68.18 52.72 64.01 55.45 59.76 57.45 C 60.57 54.30 61.55 51.20 62.49 48.09 C 61.27 48.21 60.04 48.34 58.82 48.49 C 61.36 47.22 63.93 46.03 66.51 44.86 C 66.24 41.89 66.68 38.12 64.00 36.09 C 61.46 34.77 58.55 34.47 55.81 33.72 C 56.04 31.30 56.39 28.89 56.71 26.47 Z" />
<path fill="#ffffff" opacity="1.00" d=" M 39.25 44.40 C 43.02 38.88 47.04 33.55 50.66 27.93 C 53.59 33.83 57.89 38.80 61.92 43.95 C 59.86 45.59 57.85 47.29 55.88 49.04 C 54.85 44.50 54.56 39.67 52.42 35.47 C 50.86 34.63 48.20 34.58 47.73 36.71 C 46.16 40.60 45.76 44.83 44.91 48.92 C 43.05 47.38 41.17 45.86 39.25 44.40 Z" />
<path fill="#ffffff" opacity="1.00" d=" M 46.73 52.09 C 47.45 46.75 48.09 41.34 50.17 36.33 C 52.93 41.09 53.21 46.68 54.02 52.00 C 56.12 51.49 58.19 50.93 60.29 50.42 C 59.38 54.58 57.30 58.28 54.91 61.74 C 53.12 66.10 53.60 71.21 50.90 75.26 C 46.11 72.44 48.22 65.53 45.57 61.28 C 43.21 57.88 41.37 54.18 40.17 50.22 C 42.38 50.77 44.52 51.55 46.73 52.09 M 48.71 53.73 C 47.97 58.39 48.39 63.39 50.69 67.59 C 51.90 63.28 52.91 58.71 52.02 54.24 C 51.11 49.02 51.44 43.67 50.59 38.43 C 49.15 43.41 49.51 48.65 48.71 53.73 Z" />
<path fill="#ffffff" opacity="1.00" d=" M 37.41 38.51 C 38.05 38.41 39.34 38.20 39.98 38.10 C 38.70 39.75 37.44 41.41 36.13 43.04 C 36.55 41.53 36.98 40.02 37.41 38.51 Z" />
<path fill="#b6b8b8" opacity="1.00" d=" M 61.83 38.35 C 63.38 37.67 65.19 40.17 64.33 41.53 C 62.80 42.13 60.99 39.71 61.83 38.35 Z" />
<path fill="#066a6a" opacity="1.00" d=" M 48.71 53.73 C 49.51 48.65 49.15 43.41 50.59 38.43 C 51.44 43.67 51.11 49.02 52.02 54.24 C 52.91 58.71 51.90 63.28 50.69 67.59 C 48.39 63.39 47.97 58.39 48.71 53.73 Z" />
<path fill="#ffffff" opacity="1.00" d=" M 32.56 54.89 C 36.21 57.56 40.22 59.66 44.09 61.97 C 41.36 66.25 38.77 70.62 35.90 74.81 C 34.49 74.90 33.07 74.91 31.65 74.84 C 33.42 70.03 35.57 65.38 37.30 60.56 C 30.63 64.88 25.49 71.19 18.62 75.23 C 21.97 67.60 28.34 61.97 32.56 54.89 Z" />
<path fill="#ffffff" opacity="1.00" d=" M 57.14 62.12 C 60.58 58.85 65.43 57.50 69.00 54.32 C 69.41 56.47 70.22 58.57 71.87 60.09 C 76.31 64.56 80.18 69.58 83.17 75.14 C 75.91 70.65 69.92 64.44 62.79 59.76 C 64.89 65.03 67.61 70.02 69.82 75.25 C 68.03 74.76 65.72 75.14 64.43 73.55 C 61.77 70.28 59.81 66.51 57.07 63.31 C 57.19 67.13 57.53 70.94 57.87 74.75 C 56.61 74.84 55.34 74.92 54.08 75.00 C 55.12 70.72 55.43 66.20 57.14 62.12 Z" />
<path fill="#ffffff" opacity="1.00" d=" M 43.01 74.84 C 43.11 71.07 43.37 67.29 44.17 63.59 C 45.09 67.35 45.85 71.15 46.75 74.92 C 45.50 74.89 44.26 74.86 43.01 74.84 Z" />
</svg>
