<?xml version="1.0" encoding="UTF-8" ?>
<!DOCTYPE svg PUBLIC "-//W3C//DTD SVG 1.1//EN" "http://www.w3.org/Graphics/SVG/1.1/DTD/svg11.dtd">
<svg width="100pt" height="100pt" viewBox="0 0 100 100" version="1.1" xmlns="http://www.w3.org/2000/svg">
<path fill="#bbc6be" opacity="1.00" d=" M 59.80 21.69 C 62.22 17.69 63.64 13.21 64.66 8.67 C 67.73 11.20 70.80 13.73 73.89 16.23 C 73.24 22.62 73.50 29.20 75.71 35.29 C 78.28 42.42 80.68 49.62 83.23 56.76 C 84.26 60.21 87.28 62.36 89.94 64.53 C 87.09 64.71 84.10 64.97 81.77 66.80 C 70.24 74.73 58.59 82.48 47.04 90.38 C 34.18 81.49 21.11 72.92 8.26 64.02 C 13.30 49.98 18.19 35.88 23.07 21.79 C 35.31 21.63 47.55 21.81 59.80 21.69 M 66.49 13.07 C 65.02 17.14 63.05 21.02 60.66 24.63 C 48.83 24.79 36.99 24.32 25.16 24.86 C 20.91 37.59 16.27 50.18 11.99 62.90 C 23.40 71.23 35.28 78.92 47.07 86.72 C 47.63 86.50 48.76 86.06 49.32 85.84 C 52.14 84.10 54.83 82.13 57.20 79.80 C 66.71 74.69 74.50 66.52 84.76 62.75 C 81.81 59.92 79.57 56.41 78.45 52.46 C 75.96 44.28 72.03 36.41 71.41 27.77 C 71.08 24.28 71.37 20.74 70.76 17.27 C 69.68 15.57 67.98 14.39 66.49 13.07 Z" />
<path fill="#941271" opacity="1.00" d=" M 66.49 13.07 C 67.98 14.39 69.68 15.57 70.76 17.27 C 71.37 20.74 71.08 24.28 71.41 27.77 C 72.03 36.41 75.96 44.28 78.45 52.46 C 79.57 56.41 81.81 59.92 84.76 62.75 C 74.50 66.52 66.71 74.69 57.20 79.80 C 55.38 79.83 53.57 79.74 51.76 79.66 C 58.84 74.98 63.11 67.49 67.98 60.79 C 64.88 59.55 61.84 58.09 58.61 57.24 C 56.26 56.32 53.24 58.50 53.21 60.96 C 54.08 63.06 55.76 64.65 57.19 66.36 C 54.82 71.58 51.32 76.19 46.87 79.81 C 45.32 78.21 43.65 76.67 42.46 74.77 C 42.26 70.65 43.55 66.64 44.33 62.64 C 46.59 62.13 48.95 61.90 51.07 60.94 C 52.32 59.65 53.35 58.19 54.50 56.82 C 51.58 56.09 48.65 55.44 45.73 54.78 C 45.84 54.12 46.06 52.80 46.18 52.14 C 52.95 52.86 60.05 54.13 65.16 59.04 C 67.07 54.48 69.34 49.92 69.71 44.91 C 70.53 35.70 68.05 26.62 68.26 17.41 C 62.79 25.81 56.69 33.78 50.99 42.02 C 48.66 37.93 45.32 33.23 40.00 33.57 C 36.39 33.09 34.69 36.52 33.04 39.04 C 30.59 43.13 26.29 45.49 22.67 48.40 C 25.22 47.74 27.79 46.63 30.47 46.92 C 33.75 47.57 36.65 49.36 39.62 50.82 C 39.25 47.08 39.62 43.32 40.66 39.71 C 43.01 41.21 45.32 42.76 47.67 44.27 C 45.24 46.49 43.17 49.07 41.59 51.95 C 43.50 50.48 45.34 48.92 47.14 47.32 C 46.35 49.53 45.58 51.74 44.82 53.96 C 40.28 52.04 35.25 51.42 30.69 53.65 C 31.83 52.20 32.96 50.75 34.07 49.28 C 30.60 49.55 26.49 49.18 23.78 51.78 C 21.59 54.51 21.02 58.10 19.80 61.29 C 19.82 54.11 21.89 47.04 26.02 41.14 C 24.69 40.77 23.35 40.39 22.02 40.01 C 18.84 47.61 17.47 55.75 16.56 63.88 C 22.29 68.76 28.64 72.82 34.96 76.88 C 35.77 73.65 36.90 70.45 37.08 67.10 C 35.86 65.26 34.06 63.92 32.47 62.43 C 35.84 64.11 39.59 64.57 43.24 63.56 C 41.69 69.28 40.39 75.06 39.25 80.87 C 41.52 80.54 43.82 80.64 46.10 80.44 C 45.36 81.22 44.64 82.01 43.91 82.81 C 44.38 83.07 45.31 83.59 45.78 83.85 C 46.96 84.51 48.14 85.18 49.32 85.84 C 48.76 86.06 47.63 86.50 47.07 86.72 C 35.28 78.92 23.40 71.23 11.99 62.90 C 16.27 50.18 20.91 37.59 25.16 24.86 C 36.99 24.32 48.83 24.79 60.66 24.63 C 63.05 21.02 65.02 17.14 66.49 13.07 M 26.55 27.47 C 25.67 30.41 24.77 33.35 23.95 36.31 C 26.35 33.93 28.09 30.05 31.89 29.85 C 38.30 28.97 44.85 29.08 51.16 27.50 C 42.97 27.08 34.75 27.38 26.55 27.47 M 67.27 56.56 C 70.89 59.87 75.70 61.02 80.49 61.19 C 78.35 59.43 76.21 57.53 73.59 56.52 C 71.51 56.06 69.36 56.42 67.27 56.56 M 59.87 76.28 C 65.73 72.38 71.20 67.90 76.43 63.20 C 75.56 63.06 73.80 62.79 72.92 62.65 C 68.54 67.16 63.79 71.34 59.87 76.28 M 36.68 74.21 C 37.05 75.91 38.29 77.25 39.07 78.78 C 39.13 76.33 39.04 73.89 38.91 71.46 C 38.09 72.31 37.35 73.23 36.68 74.21 Z" />
<path fill="#ffffff" opacity="1.00" d=" M 50.99 42.02 C 56.69 33.78 62.79 25.81 68.26 17.41 C 68.05 26.62 70.53 35.70 69.71 44.91 C 69.34 49.92 67.07 54.48 65.16 59.04 C 60.05 54.13 52.95 52.86 46.18 52.14 C 46.06 52.80 45.84 54.12 45.73 54.78 C 48.65 55.44 51.58 56.09 54.50 56.82 C 53.35 58.19 52.32 59.65 51.07 60.94 C 48.95 61.90 46.59 62.13 44.33 62.64 C 43.55 66.64 42.26 70.65 42.46 74.77 C 43.65 76.67 45.32 78.21 46.87 79.81 C 51.32 76.19 54.82 71.58 57.19 66.36 C 55.76 64.65 54.08 63.06 53.21 60.96 C 53.24 58.50 56.26 56.32 58.61 57.24 C 61.84 58.09 64.88 59.55 67.98 60.79 C 63.11 67.49 58.84 74.98 51.76 79.66 C 49.77 81.06 47.76 82.44 45.78 83.85 C 45.31 83.59 44.38 83.07 43.91 82.81 C 44.64 82.01 45.36 81.22 46.10 80.44 C 43.82 80.64 41.52 80.54 39.25 80.87 C 40.39 75.06 41.69 69.28 43.24 63.56 C 39.59 64.57 35.84 64.11 32.47 62.43 C 34.06 63.92 35.86 65.26 37.08 67.10 C 36.90 70.45 35.77 73.65 34.96 76.88 C 28.64 72.82 22.29 68.76 16.56 63.88 C 17.47 55.75 18.84 47.61 22.02 40.01 C 23.35 40.39 24.69 40.77 26.02 41.14 C 21.89 47.04 19.82 54.11 19.80 61.29 C 21.02 58.10 21.59 54.51 23.78 51.78 C 26.49 49.18 30.60 49.55 34.07 49.28 C 32.96 50.75 31.83 52.20 30.69 53.65 C 35.25 51.42 40.28 52.04 44.82 53.96 C 45.58 51.74 46.35 49.53 47.14 47.32 C 45.34 48.92 43.50 50.48 41.59 51.95 C 43.17 49.07 45.24 46.49 47.67 44.27 C 45.32 42.76 43.01 41.21 40.66 39.71 C 39.62 43.32 39.25 47.08 39.62 50.82 C 36.65 49.36 33.75 47.57 30.47 46.92 C 27.79 46.63 25.22 47.74 22.67 48.40 C 26.29 45.49 30.59 43.13 33.04 39.04 C 34.69 36.52 36.39 33.09 40.00 33.57 C 45.32 33.23 48.66 37.93 50.99 42.02 M 55.35 39.41 C 53.32 41.68 50.57 43.38 49.15 46.15 C 49.38 47.95 50.12 49.64 50.49 51.42 C 54.54 52.14 58.55 53.01 62.56 53.91 C 65.37 45.45 66.10 36.56 65.66 27.69 C 61.96 31.36 58.88 35.59 55.35 39.41 Z" />
<path fill="#ffffff" opacity="1.00" d=" M 26.55 27.47 C 34.75 27.38 42.97 27.08 51.16 27.50 C 44.85 29.08 38.30 28.97 31.89 29.85 C 28.09 30.05 26.35 33.93 23.95 36.31 C 24.77 33.35 25.67 30.41 26.55 27.47 Z" />
<path fill="#941271" opacity="1.00" d=" M 55.35 39.41 C 58.88 35.59 61.96 31.36 65.66 27.69 C 66.10 36.56 65.37 45.45 62.56 53.91 C 58.55 53.01 54.54 52.14 50.49 51.42 C 50.12 49.64 49.38 47.95 49.15 46.15 C 50.57 43.38 53.32 41.68 55.35 39.41 Z" />
<path fill="#ffffff" opacity="1.00" d=" M 67.27 56.56 C 69.36 56.42 71.51 56.06 73.59 56.52 C 76.21 57.53 78.35 59.43 80.49 61.19 C 75.70 61.02 70.89 59.87 67.27 56.56 Z" />
<path fill="#ffffff" opacity="1.00" d=" M 59.87 76.28 C 63.79 71.34 68.54 67.16 72.92 62.65 C 73.80 62.79 75.56 63.06 76.43 63.20 C 71.20 67.90 65.73 72.38 59.87 76.28 Z" />
<path fill="#ffffff" opacity="1.00" d=" M 36.68 74.21 C 37.35 73.23 38.09 72.31 38.91 71.46 C 39.04 73.89 39.13 76.33 39.07 78.78 C 38.29 77.25 37.05 75.91 36.68 74.21 Z" />
<path fill="#be79ab" opacity="1.00" d=" M 51.76 79.66 C 53.57 79.74 55.38 79.83 57.20 79.80 C 54.83 82.13 52.14 84.10 49.32 85.84 C 48.14 85.18 46.96 84.51 45.78 83.85 C 47.76 82.44 49.77 81.06 51.76 79.66 M 51.13 80.93 C 50.92 81.21 50.50 81.79 50.29 82.07 C 51.11 85.20 54.47 80.37 51.13 80.93 Z" />
<path fill="#fcf4f9" opacity="1.00" d=" M 51.13 80.93 C 54.47 80.37 51.11 85.20 50.29 82.07 C 50.50 81.79 50.92 81.21 51.13 80.93 Z" />
</svg>
