<?xml version="1.0" encoding="UTF-8" ?>
<!DOCTYPE svg PUBLIC "-//W3C//DTD SVG 1.1//EN" "http://www.w3.org/Graphics/SVG/1.1/DTD/svg11.dtd">
<svg width="100pt" height="100pt" viewBox="0 0 100 100" version="1.1" xmlns="http://www.w3.org/2000/svg">
<path fill="#ffffff" opacity="1.00" d=" M 42.37 12.68 C 59.02 9.17 77.16 18.61 83.78 34.27 C 91.10 50.04 85.54 70.38 71.15 80.14 C 57.42 90.15 37.00 89.00 24.50 77.48 C 11.48 66.26 8.15 45.72 16.91 30.94 C 22.17 21.50 31.77 14.69 42.37 12.68 M 33.31 19.30 C 25.36 23.53 19.31 31.05 16.69 39.65 C 14.34 47.03 15.07 55.02 17.59 62.25 C 20.33 58.44 23.00 54.58 25.81 50.82 C 27.14 56.39 28.19 62.03 29.12 67.68 C 27.34 69.30 25.56 70.94 23.80 72.59 C 26.41 75.08 29.87 76.24 32.80 78.24 C 39.60 84.64 50.04 84.54 58.61 82.58 C 62.09 82.07 64.44 79.44 66.23 76.63 C 69.73 77.30 72.53 75.17 74.96 72.95 C 73.25 71.01 71.04 69.33 70.05 66.88 C 70.25 61.39 72.01 56.09 72.89 50.69 C 75.72 54.60 78.53 58.52 81.51 62.31 C 83.97 54.78 84.68 46.48 82.06 38.89 C 78.90 29.18 71.23 20.94 61.60 17.44 C 52.48 13.97 41.89 14.67 33.31 19.30 Z" />
<path fill="#482b46" opacity="1.00" d=" M 33.31 19.30 C 41.89 14.67 52.48 13.97 61.60 17.44 C 71.23 20.94 78.90 29.18 82.06 38.89 C 84.68 46.48 83.97 54.78 81.51 62.31 C 78.53 58.52 75.72 54.60 72.89 50.69 C 72.01 56.09 70.25 61.39 70.05 66.88 C 71.04 69.33 73.25 71.01 74.96 72.95 C 72.53 75.17 69.73 77.30 66.23 76.63 C 64.44 79.44 62.09 82.07 58.61 82.58 C 50.04 84.54 39.60 84.64 32.80 78.24 C 29.87 76.24 26.41 75.08 23.80 72.59 C 25.56 70.94 27.34 69.30 29.12 67.68 C 28.19 62.03 27.14 56.39 25.81 50.82 C 23.00 54.58 20.33 58.44 17.59 62.25 C 15.07 55.02 14.34 47.03 16.69 39.65 C 19.31 31.05 25.36 23.53 33.31 19.30 M 43.06 23.08 C 39.83 33.51 36.52 43.91 33.46 54.38 C 39.42 54.51 45.38 54.54 51.34 54.44 C 49.27 62.77 46.30 70.82 44.11 79.11 C 52.01 67.86 59.11 56.06 66.54 44.49 C 60.88 44.35 55.22 44.32 49.57 44.25 C 53.93 37.09 58.74 30.20 63.19 23.09 C 56.48 23.02 49.77 23.07 43.06 23.08 M 20.93 36.47 C 20.15 40.75 19.93 45.10 20.23 49.44 C 21.70 48.28 23.15 47.08 24.60 45.89 C 23.50 42.70 22.35 39.53 20.93 36.47 M 74.14 45.83 C 75.63 47.03 77.12 48.23 78.63 49.40 C 78.93 45.12 78.69 40.82 77.79 36.62 C 76.43 39.63 75.27 42.73 74.14 45.83 Z" />
<path fill="#ffffff" opacity="1.00" d=" M 43.06 23.08 C 49.77 23.07 56.48 23.02 63.19 23.09 C 58.74 30.20 53.93 37.09 49.57 44.25 C 55.22 44.32 60.88 44.35 66.54 44.49 C 59.11 56.06 52.01 67.86 44.11 79.11 C 46.30 70.82 49.27 62.77 51.34 54.44 C 45.38 54.54 39.42 54.51 33.46 54.38 C 36.52 43.91 39.83 33.51 43.06 23.08 Z" />
<path fill="#ffffff" opacity="1.00" d=" M 20.93 36.47 C 22.35 39.53 23.50 42.70 24.60 45.89 C 23.15 47.08 21.70 48.28 20.23 49.44 C 19.93 45.10 20.15 40.75 20.93 36.47 Z" />
<path fill="#ffffff" opacity="1.00" d=" M 74.14 45.83 C 75.27 42.73 76.43 39.63 77.79 36.62 C 78.69 40.82 78.93 45.12 78.63 49.40 C 77.12 48.23 75.63 47.03 74.14 45.83 Z" />
</svg>
