<?xml version="1.0" encoding="UTF-8" ?>
<!DOCTYPE svg PUBLIC "-//W3C//DTD SVG 1.1//EN" "http://www.w3.org/Graphics/SVG/1.1/DTD/svg11.dtd">
<svg width="100pt" height="100pt" viewBox="0 0 100 100" version="1.1" xmlns="http://www.w3.org/2000/svg">
<path fill="#bab9bb" opacity="1.00" d=" M 40.88 28.56 C 42.60 24.85 44.22 21.10 46.03 17.43 C 46.37 20.34 46.66 23.25 46.97 26.15 C 49.28 26.16 51.59 26.16 53.91 26.16 C 54.22 23.24 54.49 20.33 54.84 17.42 C 56.53 20.99 58.20 24.58 60.49 27.81 C 63.33 25.46 65.72 21.48 69.92 21.85 C 77.52 21.76 85.12 21.82 92.71 21.94 C 86.82 28.11 80.55 33.91 74.45 39.88 C 74.59 40.63 74.88 42.13 75.02 42.88 C 77.87 44.34 80.74 45.78 83.56 47.29 C 80.66 47.57 77.75 47.75 74.85 47.95 C 74.84 49.32 74.84 50.69 74.85 52.06 C 77.74 52.26 80.63 52.43 83.52 52.66 C 79.69 54.57 75.88 56.66 72.91 59.82 C 79.59 66.16 86.35 72.43 92.75 79.06 C 85.14 79.17 77.53 79.25 69.92 79.15 C 65.46 79.36 62.89 75.11 59.64 72.77 C 57.90 75.99 56.43 79.34 54.86 82.65 C 54.49 79.64 54.21 76.63 53.90 73.62 C 51.60 73.61 49.30 73.62 47.00 73.63 C 46.68 76.56 46.38 79.49 46.00 82.41 C 44.29 79.03 42.79 75.56 41.18 72.14 C 38.08 74.72 35.62 79.25 31.09 79.13 C 23.15 79.26 15.20 79.17 7.26 79.06 C 13.89 71.95 21.83 66.11 27.91 58.48 C 24.53 56.37 20.95 54.61 17.46 52.68 C 20.68 52.40 23.92 52.21 27.15 52.01 C 27.16 50.67 27.16 49.34 27.16 48.00 C 23.89 47.79 20.63 47.60 17.37 47.29 C 20.61 45.31 24.75 44.37 27.15 41.26 C 20.83 34.52 13.66 28.64 7.29 21.94 C 15.22 21.83 23.15 21.74 31.09 21.87 C 35.48 21.72 37.87 26.07 40.88 28.56 M 40.86 32.40 C 37.62 29.65 34.79 25.32 30.07 25.38 C 25.04 25.14 19.99 25.39 14.95 25.34 C 20.49 30.65 26.05 35.92 31.55 41.25 C 28.91 42.83 26.26 44.39 23.64 46.01 C 25.86 46.15 28.08 46.28 30.30 46.41 C 30.31 48.79 30.31 51.18 30.30 53.57 C 28.07 53.72 25.83 53.87 23.60 54.05 C 26.51 55.76 29.46 57.38 32.41 59.02 C 26.65 64.62 20.78 70.11 14.96 75.65 C 20.83 75.48 26.78 76.19 32.61 75.28 C 36.07 73.91 38.38 70.74 41.09 68.32 C 42.40 71.04 43.69 73.77 45.02 76.47 C 45.53 74.42 46.02 72.36 46.51 70.31 C 49.13 70.31 51.74 70.31 54.35 70.32 C 54.86 72.37 55.37 74.43 55.90 76.47 C 57.19 73.80 58.45 71.11 59.73 68.43 C 62.48 70.84 64.81 74.11 68.37 75.33 C 73.91 76.13 79.53 75.53 85.10 75.63 C 79.48 70.08 73.76 64.62 68.10 59.10 C 71.20 57.47 74.30 55.83 77.37 54.13 C 75.46 53.93 73.54 53.74 71.63 53.56 C 71.62 51.19 71.62 48.81 71.63 46.44 C 73.54 46.26 75.46 46.07 77.37 45.87 C 74.59 44.34 71.79 42.85 68.98 41.37 C 74.20 35.88 79.74 30.71 85.11 25.38 C 79.54 25.47 73.91 24.87 68.38 25.67 C 64.91 26.86 62.63 30.02 59.97 32.38 C 58.62 29.40 57.30 26.42 55.94 23.45 C 55.44 25.40 54.97 27.35 54.50 29.31 C 51.78 29.35 49.06 29.36 46.34 29.35 C 45.90 27.37 45.47 25.40 45.01 23.43 C 43.61 26.41 42.24 29.41 40.86 32.40 Z" />
<path fill="#24960d" opacity="1.00" d=" M 40.86 32.40 C 42.24 29.41 43.61 26.41 45.01 23.43 C 45.47 25.40 45.90 27.37 46.34 29.35 C 49.06 29.36 51.78 29.35 54.50 29.31 C 54.97 27.35 55.44 25.40 55.94 23.45 C 57.30 26.42 58.62 29.40 59.97 32.38 C 62.63 30.02 64.91 26.86 68.38 25.67 C 73.91 24.87 79.54 25.47 85.11 25.38 C 79.74 30.71 74.20 35.88 68.98 41.37 C 71.79 42.85 74.59 44.34 77.37 45.87 C 75.46 46.07 73.54 46.26 71.63 46.44 C 71.62 48.81 71.62 51.19 71.63 53.56 C 73.54 53.74 75.46 53.93 77.37 54.13 C 74.30 55.83 71.20 57.47 68.10 59.10 C 73.76 64.62 79.48 70.08 85.10 75.63 C 79.53 75.53 73.91 76.13 68.37 75.33 C 64.81 74.11 62.48 70.84 59.73 68.43 C 58.45 71.11 57.19 73.80 55.90 76.47 C 55.37 74.43 54.86 72.37 54.35 70.32 C 51.74 70.31 49.13 70.31 46.51 70.31 C 46.02 72.36 45.53 74.42 45.02 76.47 C 43.69 73.77 42.40 71.04 41.09 68.32 C 38.38 70.74 36.07 73.91 32.61 75.28 C 26.78 76.19 20.83 75.48 14.96 75.65 C 20.78 70.11 26.65 64.62 32.41 59.02 C 29.46 57.38 26.51 55.76 23.60 54.05 C 25.83 53.87 28.07 53.72 30.30 53.57 C 30.31 51.18 30.31 48.79 30.30 46.41 C 28.08 46.28 25.86 46.15 23.64 46.01 C 26.26 44.39 28.91 42.83 31.55 41.25 C 26.05 35.92 20.49 30.65 14.95 25.34 C 19.99 25.39 25.04 25.14 30.07 25.38 C 34.79 25.32 37.62 29.65 40.86 32.40 M 27.46 27.16 C 29.86 33.17 34.99 37.36 39.12 42.15 C 35.93 42.88 32.74 43.62 29.62 44.59 C 34.62 44.89 39.64 44.74 44.65 44.73 C 44.61 39.38 44.79 34.03 44.49 28.69 C 43.43 32.54 42.72 36.47 41.94 40.37 C 37.19 35.90 34.20 28.97 27.46 27.16 M 58.90 40.41 C 58.15 36.49 57.44 32.57 56.43 28.72 C 56.09 34.05 56.25 39.39 56.25 44.73 C 61.30 44.74 66.35 44.88 71.39 44.61 C 68.23 43.62 65.00 42.87 61.77 42.10 C 65.91 37.34 70.98 33.15 73.46 27.19 C 66.64 28.90 63.69 35.95 58.90 40.41 M 47.78 32.45 C 47.72 37.21 47.72 41.97 47.74 46.73 C 42.94 46.75 38.14 46.75 33.34 46.81 C 33.35 48.88 33.35 50.96 33.35 53.04 C 38.15 53.14 42.95 53.15 47.75 53.17 C 47.72 57.90 47.72 62.64 47.72 67.38 C 49.90 67.38 52.07 67.38 54.25 67.37 C 54.25 62.63 54.25 57.90 54.25 53.16 C 59.05 53.14 63.85 53.14 68.65 53.04 C 68.65 50.96 68.65 48.88 68.66 46.81 C 63.86 46.75 59.06 46.75 54.26 46.74 C 54.25 41.98 54.24 37.22 54.19 32.45 C 52.05 32.46 49.91 32.46 47.78 32.45 M 29.62 55.41 C 32.74 56.38 35.93 57.12 39.12 57.85 C 34.99 62.64 29.86 66.83 27.46 72.84 C 34.20 71.03 37.19 64.10 41.94 59.62 C 42.72 63.54 43.43 67.47 44.49 71.32 C 44.79 65.97 44.61 60.62 44.65 55.27 C 39.64 55.26 34.63 55.11 29.62 55.41 M 56.25 55.27 C 56.25 60.61 56.09 65.95 56.43 71.28 C 57.44 67.43 58.15 63.51 58.90 59.60 C 63.69 64.05 66.64 71.11 73.46 72.81 C 70.98 66.85 65.90 62.66 61.77 57.89 C 65.00 57.13 68.23 56.37 71.39 55.39 C 66.35 55.12 61.30 55.26 56.25 55.27 Z" />
<path fill="#ffffff" opacity="1.00" d=" M 27.46 27.16 C 34.20 28.97 37.19 35.90 41.94 40.37 C 42.72 36.47 43.43 32.54 44.49 28.69 C 44.79 34.03 44.61 39.38 44.65 44.73 C 39.64 44.74 34.62 44.89 29.62 44.59 C 32.74 43.62 35.93 42.88 39.12 42.15 C 34.99 37.36 29.86 33.17 27.46 27.16 Z" />
<path fill="#ffffff" opacity="1.00" d=" M 58.90 40.41 C 63.69 35.95 66.64 28.90 73.46 27.19 C 70.98 33.15 65.91 37.34 61.77 42.10 C 65.00 42.87 68.23 43.62 71.39 44.61 C 66.35 44.88 61.30 44.74 56.25 44.73 C 56.25 39.39 56.09 34.05 56.43 28.72 C 57.44 32.57 58.15 36.49 58.90 40.41 Z" />
<path fill="#ffffff" opacity="1.00" d=" M 47.78 32.45 C 49.91 32.46 52.05 32.46 54.19 32.45 C 54.24 37.22 54.25 41.98 54.26 46.74 C 59.06 46.75 63.86 46.75 68.66 46.81 C 68.65 48.88 68.65 50.96 68.65 53.04 C 63.85 53.14 59.05 53.14 54.25 53.16 C 54.25 57.90 54.25 62.63 54.25 67.37 C 52.07 67.38 49.90 67.38 47.72 67.38 C 47.72 62.64 47.72 57.90 47.75 53.17 C 42.95 53.15 38.15 53.14 33.35 53.04 C 33.35 50.96 33.35 48.88 33.34 46.81 C 38.14 46.75 42.94 46.75 47.74 46.73 C 47.72 41.97 47.72 37.21 47.78 32.45 Z" />
<path fill="#ffffff" opacity="1.00" d=" M 29.62 55.41 C 34.63 55.11 39.64 55.26 44.65 55.27 C 44.61 60.62 44.79 65.97 44.49 71.32 C 43.43 67.47 42.72 63.54 41.94 59.62 C 37.19 64.10 34.20 71.03 27.46 72.84 C 29.86 66.83 34.99 62.64 39.12 57.85 C 35.93 57.12 32.74 56.38 29.62 55.41 Z" />
<path fill="#ffffff" opacity="1.00" d=" M 56.25 55.27 C 61.30 55.26 66.35 55.12 71.39 55.39 C 68.23 56.37 65.00 57.13 61.77 57.89 C 65.90 62.66 70.98 66.85 73.46 72.81 C 66.64 71.11 63.69 64.05 58.90 59.60 C 58.15 63.51 57.44 67.43 56.43 71.28 C 56.09 65.95 56.25 60.61 56.25 55.27 Z" />
</svg>
