<?xml version="1.0" encoding="UTF-8" ?>
<!DOCTYPE svg PUBLIC "-//W3C//DTD SVG 1.1//EN" "http://www.w3.org/Graphics/SVG/1.1/DTD/svg11.dtd">
<svg width="100pt" height="100pt" viewBox="0 0 100 100" version="1.1" xmlns="http://www.w3.org/2000/svg">
<path fill="#b7c3c2" opacity="1.00" d=" M 47.06 17.03 C 48.56 15.46 51.14 14.52 53.07 15.91 C 55.48 17.82 57.08 20.57 59.60 22.36 C 62.67 24.65 65.79 26.89 69.03 28.94 C 71.94 30.90 75.62 30.18 78.93 30.37 C 79.14 32.37 79.34 34.37 79.56 36.37 C 82.38 38.26 85.14 40.24 87.90 42.21 C 85.51 49.37 83.06 56.50 80.61 63.63 C 78.46 69.26 79.53 75.38 79.11 81.25 C 75.67 82.19 72.81 84.99 69.09 84.84 C 56.37 84.81 43.64 84.81 30.92 84.84 C 27.32 85.10 24.68 82.30 21.61 80.92 C 21.57 76.09 22.19 71.08 20.54 66.43 C 17.79 58.33 14.92 50.27 12.35 42.11 C 15.32 39.93 18.80 38.26 21.18 35.38 C 21.67 33.76 21.86 32.08 22.16 30.43 C 25.36 30.24 28.92 30.72 31.65 28.65 C 36.95 25.01 42.40 21.50 47.06 17.03 M 33.78 30.74 C 31.17 32.52 27.98 32.94 24.96 33.55 C 23.95 38.28 19.68 40.76 15.97 43.23 C 17.95 50.29 20.59 57.14 22.89 64.09 C 24.48 68.76 24.46 73.73 24.49 78.60 C 27.42 80.26 30.39 82.33 33.93 82.13 C 44.30 82.14 54.68 82.05 65.05 82.16 C 69.25 82.43 72.92 80.25 76.57 78.52 C 76.63 73.02 76.23 67.36 78.01 62.06 C 80.08 55.80 82.51 49.66 84.19 43.28 C 80.54 40.89 76.56 38.19 76.13 33.42 C 68.75 33.53 63.03 28.64 57.52 24.41 C 55.00 22.39 53.03 19.82 50.95 17.38 C 45.79 22.51 39.83 26.73 33.78 30.74 Z" />
<path fill="#c40f24" opacity="1.00" d=" M 33.78 30.74 C 39.83 26.73 45.79 22.51 50.95 17.38 C 53.03 19.82 55.00 22.39 57.52 24.41 C 63.03 28.64 68.75 33.53 76.13 33.42 C 76.56 38.19 80.54 40.89 84.19 43.28 C 82.51 49.66 80.08 55.80 78.01 62.06 C 76.23 67.36 76.63 73.02 76.57 78.52 C 72.92 80.25 69.25 82.43 65.05 82.16 C 54.68 82.05 44.30 82.14 33.93 82.13 C 30.39 82.33 27.42 80.26 24.49 78.60 C 24.46 73.73 24.48 68.76 22.89 64.09 C 20.59 57.14 17.95 50.29 15.97 43.23 C 19.68 40.76 23.95 38.28 24.96 33.55 C 27.98 32.94 31.17 32.52 33.78 30.74 M 45.97 31.98 C 45.56 40.55 45.17 49.12 45.11 57.69 C 46.68 58.39 48.25 59.10 49.81 59.82 C 49.95 50.50 50.21 41.19 50.45 31.87 C 50.98 41.10 51.09 50.36 51.63 59.59 C 53.14 58.98 54.64 58.38 56.15 57.78 C 55.70 49.52 55.66 41.26 55.56 32.99 C 55.64 28.10 53.32 23.69 50.81 19.65 C 48.37 23.37 46.05 27.41 45.97 31.98 M 26.41 35.24 C 26.45 39.92 26.34 44.61 26.56 49.29 C 27.51 46.37 28.26 43.41 29.07 40.45 C 33.85 43.82 37.32 49.79 43.61 50.34 C 40.58 44.97 34.90 42.02 30.75 37.64 C 33.96 36.92 37.17 36.22 40.32 35.30 C 35.69 34.97 31.05 35.09 26.41 35.24 M 60.69 35.35 C 63.84 36.26 67.04 36.93 70.24 37.64 C 66.10 41.84 60.52 44.79 57.77 50.21 C 63.78 49.44 67.15 43.76 71.82 40.54 C 72.67 43.45 73.46 46.37 74.42 49.24 C 74.54 44.58 74.44 39.91 74.52 35.25 C 69.91 35.08 65.29 34.97 60.69 35.35 M 38.18 60.52 C 41.31 62.36 45.19 62.93 47.98 65.25 C 48.89 68.49 47.34 73.71 51.94 74.41 C 52.65 71.45 52.56 68.35 53.38 65.42 C 56.24 63.22 59.86 62.41 63.13 60.99 C 62.30 59.95 61.47 58.92 60.64 57.88 C 57.12 58.98 53.72 60.57 50.05 61.16 C 46.92 60.50 44.07 58.95 41.14 57.74 C 40.15 58.66 39.16 59.59 38.18 60.52 M 26.63 62.69 C 26.28 67.54 26.42 72.41 26.56 77.26 C 31.77 77.25 36.98 77.39 42.19 77.23 C 38.43 76.17 34.59 75.38 30.74 74.69 C 34.49 71.02 38.75 67.88 42.17 63.87 C 36.32 63.46 32.97 68.91 28.83 72.07 C 28.19 68.92 27.53 65.78 26.63 62.69 M 71.89 71.95 C 68.73 69.09 65.49 66.30 62.22 63.55 C 61.50 63.91 60.06 64.61 59.34 64.96 C 62.99 68.17 66.66 71.37 70.20 74.69 C 66.36 75.36 62.54 76.14 58.79 77.23 C 63.99 77.40 69.18 77.25 74.38 77.26 C 74.45 72.42 74.57 67.59 74.41 62.75 C 73.45 65.79 72.68 68.87 71.89 71.95 M 46.63 74.70 C 46.77 76.34 46.92 77.98 47.08 79.62 C 49.36 79.65 51.64 79.68 53.92 79.72 C 54.00 78.02 54.08 76.33 54.15 74.63 C 51.65 74.71 49.14 74.69 46.63 74.70 Z" />
<path fill="#ffffff" opacity="1.00" d=" M 45.97 31.98 C 46.05 27.41 48.37 23.37 50.81 19.65 C 53.32 23.69 55.64 28.10 55.56 32.99 C 55.66 41.26 55.70 49.52 56.15 57.78 C 54.64 58.38 53.14 58.98 51.63 59.59 C 51.09 50.36 50.98 41.10 50.45 31.87 C 50.21 41.19 49.95 50.50 49.81 59.82 C 48.25 59.10 46.68 58.39 45.11 57.69 C 45.17 49.12 45.56 40.55 45.97 31.98 Z" />
<path fill="#ffffff" opacity="1.00" d=" M 26.41 35.24 C 31.05 35.09 35.69 34.97 40.32 35.30 C 37.17 36.22 33.96 36.92 30.75 37.64 C 34.90 42.02 40.58 44.97 43.61 50.34 C 37.32 49.79 33.85 43.82 29.07 40.45 C 28.26 43.41 27.51 46.37 26.56 49.29 C 26.34 44.61 26.45 39.92 26.41 35.24 Z" />
<path fill="#ffffff" opacity="1.00" d=" M 60.69 35.35 C 65.29 34.97 69.91 35.08 74.52 35.25 C 74.44 39.91 74.54 44.58 74.42 49.24 C 73.46 46.37 72.67 43.45 71.82 40.54 C 67.15 43.76 63.78 49.44 57.77 50.21 C 60.52 44.79 66.10 41.84 70.24 37.64 C 67.04 36.93 63.84 36.26 60.69 35.35 Z" />
<path fill="#ffffff" opacity="1.00" d=" M 38.18 60.52 C 39.16 59.59 40.15 58.66 41.14 57.74 C 44.07 58.95 46.92 60.50 50.05 61.16 C 53.72 60.57 57.12 58.98 60.64 57.88 C 61.47 58.92 62.30 59.95 63.13 60.99 C 59.86 62.41 56.24 63.22 53.38 65.42 C 52.56 68.35 52.65 71.45 51.94 74.41 C 47.34 73.71 48.89 68.49 47.98 65.25 C 45.19 62.93 41.31 62.36 38.18 60.52 Z" />
<path fill="#ffffff" opacity="1.00" d=" M 26.63 62.69 C 27.53 65.78 28.19 68.92 28.83 72.07 C 32.97 68.91 36.32 63.46 42.17 63.87 C 38.75 67.88 34.49 71.02 30.74 74.69 C 34.59 75.38 38.43 76.17 42.19 77.23 C 36.98 77.39 31.77 77.25 26.56 77.26 C 26.42 72.41 26.28 67.54 26.63 62.69 Z" />
<path fill="#ffffff" opacity="1.00" d=" M 71.89 71.95 C 72.68 68.87 73.45 65.79 74.41 62.75 C 74.57 67.59 74.45 72.42 74.38 77.26 C 69.18 77.25 63.99 77.40 58.79 77.23 C 62.54 76.14 66.36 75.36 70.20 74.69 C 66.66 71.37 62.99 68.17 59.34 64.96 C 60.06 64.61 61.50 63.91 62.22 63.55 C 65.49 66.30 68.73 69.09 71.89 71.95 Z" />
<path fill="#ffffff" opacity="1.00" d=" M 46.63 74.70 C 49.14 74.69 51.65 74.71 54.15 74.63 C 54.08 76.33 54.00 78.02 53.92 79.72 C 51.64 79.68 49.36 79.65 47.08 79.62 C 46.92 77.98 46.77 76.34 46.63 74.70 Z" />
</svg>
