<?xml version="1.0" encoding="UTF-8" ?>
<!DOCTYPE svg PUBLIC "-//W3C//DTD SVG 1.1//EN" "http://www.w3.org/Graphics/SVG/1.1/DTD/svg11.dtd">
<svg width="100pt" height="100pt" viewBox="0 0 100 100" version="1.1" xmlns="http://www.w3.org/2000/svg">
<path fill="#ffffff" opacity="1.00" d=" M 17.34 30.32 C 24.17 18.62 37.62 11.59 51.03 11.64 C 58.75 12.23 66.43 14.69 72.68 19.34 C 80.02 24.71 85.24 32.83 87.22 41.69 C 92.17 60.59 79.32 81.72 60.51 86.64 C 49.78 90.25 37.75 87.65 28.49 81.49 C 21.75 77.07 17.02 70.24 13.92 62.90 C 9.35 62.64 4.50 62.22 0.88 59.08 C 4.46 57.62 8.19 56.58 11.93 55.65 C 11.41 46.93 12.60 37.83 17.34 30.32 M 22.67 28.65 C 16.34 36.34 14.51 46.65 15.55 56.36 C 11.61 57.10 7.70 58.02 3.97 59.51 C 8.09 61.03 12.52 61.09 16.85 61.14 C 20.30 69.32 25.98 76.85 34.08 80.86 C 47.70 88.17 65.95 84.79 75.96 72.99 C 83.55 64.75 86.04 52.95 84.05 42.10 C 80.47 43.50 76.86 44.81 73.36 46.41 C 69.69 47.89 68.01 51.74 65.50 54.53 C 61.86 58.39 63.80 64.10 62.64 68.80 C 62.31 72.14 58.56 73.16 55.86 73.93 C 49.85 75.83 43.20 74.29 37.93 71.10 C 36.67 67.25 37.54 63.00 36.79 59.03 C 36.65 56.47 34.51 54.82 33.02 52.99 C 29.59 49.42 28.81 43.91 30.15 39.27 C 30.87 36.39 34.33 36.48 36.57 35.49 C 39.78 34.67 41.29 31.38 44.00 29.78 C 47.38 28.69 51.06 28.79 54.53 29.36 C 57.83 29.88 59.20 33.50 62.01 34.92 C 64.17 35.93 66.58 36.27 68.71 37.35 C 69.92 39.32 70.28 41.66 70.91 43.85 C 74.85 41.93 78.76 39.92 82.57 37.75 C 78.87 28.70 71.67 21.01 62.43 17.57 C 48.61 12.06 31.62 16.74 22.67 28.65 M 44.14 31.94 C 45.83 33.52 47.37 35.99 49.94 36.00 C 51.68 35.59 53.29 34.78 54.93 34.08 C 54.83 33.38 54.62 31.97 54.52 31.26 C 51.05 31.29 47.57 31.42 44.14 31.94 M 31.83 45.77 C 32.59 45.70 34.11 45.56 34.87 45.49 C 34.73 43.09 34.57 40.68 34.26 38.29 C 32.90 40.56 32.29 43.18 31.83 45.77 M 65.64 38.24 C 64.98 41.23 64.80 44.41 66.98 46.84 C 67.70 43.79 67.69 40.74 65.64 38.24 M 46.92 53.96 C 45.48 53.65 44.03 53.34 42.59 53.04 C 43.43 54.46 44.29 55.86 45.15 57.27 C 43.30 58.69 41.42 60.07 39.54 61.44 C 40.54 62.46 41.55 63.48 42.56 64.50 C 43.96 62.61 45.36 60.73 46.81 58.88 C 48.05 59.70 49.27 60.52 50.51 61.34 C 50.68 59.63 49.99 57.60 51.26 56.20 C 54.70 51.53 61.08 48.69 61.68 42.31 C 55.05 43.43 51.64 49.88 46.92 53.96 Z" />
<path fill="#482b46" opacity="1.00" d=" M 22.67 28.65 C 31.62 16.74 48.61 12.06 62.43 17.57 C 71.67 21.01 78.87 28.70 82.57 37.75 C 78.76 39.92 74.85 41.93 70.91 43.85 C 70.28 41.66 69.92 39.32 68.71 37.35 C 66.58 36.27 64.17 35.93 62.01 34.92 C 59.20 33.50 57.83 29.88 54.53 29.36 C 51.06 28.79 47.38 28.69 44.00 29.78 C 41.29 31.38 39.78 34.67 36.57 35.49 C 34.33 36.48 30.87 36.39 30.15 39.27 C 28.81 43.91 29.59 49.42 33.02 52.99 C 34.51 54.82 36.65 56.47 36.79 59.03 C 37.54 63.00 36.67 67.25 37.93 71.10 C 43.20 74.29 49.85 75.83 55.86 73.93 C 58.56 73.16 62.31 72.14 62.64 68.80 C 63.80 64.10 61.86 58.39 65.50 54.53 C 68.01 51.74 69.69 47.89 73.36 46.41 C 76.86 44.81 80.47 43.50 84.05 42.10 C 86.04 52.95 83.55 64.75 75.96 72.99 C 65.95 84.79 47.70 88.17 34.08 80.86 C 25.98 76.85 20.30 69.32 16.85 61.14 C 12.52 61.09 8.09 61.03 3.97 59.51 C 7.70 58.02 11.61 57.10 15.55 56.36 C 14.51 46.65 16.34 36.34 22.67 28.65 M 9.78 59.44 C 18.29 59.76 26.75 58.63 35.14 57.29 C 34.61 56.66 34.08 56.02 33.56 55.39 C 25.68 57.04 17.65 57.78 9.78 59.44 Z" />
<path fill="#3d223b" opacity="1.00" d=" M 44.14 31.94 C 47.57 31.42 51.05 31.29 54.52 31.26 C 54.62 31.97 54.83 33.38 54.93 34.08 C 53.29 34.78 51.68 35.59 49.94 36.00 C 47.37 35.99 45.83 33.52 44.14 31.94 Z" />
<path fill="#3d223b" opacity="1.00" d=" M 31.83 45.77 C 32.29 43.18 32.90 40.56 34.26 38.29 C 34.57 40.68 34.73 43.09 34.87 45.49 C 34.11 45.56 32.59 45.70 31.83 45.77 Z" />
<path fill="#3d223b" opacity="1.00" d=" M 65.64 38.24 C 67.69 40.74 67.70 43.79 66.98 46.84 C 64.80 44.41 64.98 41.23 65.64 38.24 Z" />
<path fill="#472b45" opacity="1.00" d=" M 46.92 53.96 C 51.64 49.88 55.05 43.43 61.68 42.31 C 61.08 48.69 54.70 51.53 51.26 56.20 C 49.99 57.60 50.68 59.63 50.51 61.34 C 49.27 60.52 48.05 59.70 46.81 58.88 C 45.36 60.73 43.96 62.61 42.56 64.50 C 41.55 63.48 40.54 62.46 39.54 61.44 C 41.42 60.07 43.30 58.69 45.15 57.27 C 44.29 55.86 43.43 54.46 42.59 53.04 C 44.03 53.34 45.48 53.65 46.92 53.96 Z" />
<path fill="#ffffff" opacity="1.00" d=" M 9.78 59.44 C 17.65 57.78 25.68 57.04 33.56 55.39 C 34.08 56.02 34.61 56.66 35.14 57.29 C 26.75 58.63 18.29 59.76 9.78 59.44 Z" />
</svg>
