<?xml version="1.0" encoding="UTF-8" ?>
<!DOCTYPE svg PUBLIC "-//W3C//DTD SVG 1.1//EN" "http://www.w3.org/Graphics/SVG/1.1/DTD/svg11.dtd">
<svg width="100pt" height="100pt" viewBox="0 0 100 100" version="1.1" xmlns="http://www.w3.org/2000/svg">
<path fill="#ffffff" opacity="1.00" d=" M 42.44 12.62 C 60.88 8.24 81.25 20.57 86.42 38.75 C 91.91 54.42 84.74 73.01 70.92 81.88 C 61.53 87.90 49.47 90.25 38.79 86.42 C 19.82 81.09 7.32 59.19 13.15 40.23 C 16.62 26.42 28.48 15.34 42.44 12.62 M 45.40 15.57 C 37.43 16.60 29.92 20.56 24.51 26.48 C 14.00 37.50 12.23 55.59 20.58 68.36 C 28.73 81.99 46.82 88.34 61.69 82.70 C 78.10 77.15 88.36 58.14 83.63 41.39 C 79.66 24.82 62.31 12.92 45.40 15.57 Z" />
<path fill="#482b46" opacity="1.00" d=" M 45.40 15.57 C 62.31 12.92 79.66 24.82 83.63 41.39 C 88.36 58.14 78.10 77.15 61.69 82.70 C 46.82 88.34 28.73 81.99 20.58 68.36 C 12.23 55.59 14.00 37.50 24.51 26.48 C 29.92 20.56 37.43 16.60 45.40 15.57 M 39.13 26.12 C 32.96 29.20 27.36 34.02 24.25 40.25 C 21.04 46.84 23.22 54.47 26.21 60.71 C 30.27 69.40 39.31 75.70 49.00 75.77 C 54.25 75.76 59.69 74.95 64.30 72.31 C 71.57 68.26 76.08 60.15 75.85 51.84 C 74.47 56.76 73.83 62.26 69.94 65.97 C 66.18 69.63 61.67 73.74 56.26 74.15 C 53.56 71.37 53.95 66.64 51.26 63.76 C 49.11 62.00 46.57 60.83 44.16 59.47 C 44.83 58.40 45.50 57.34 46.16 56.26 C 50.56 56.09 55.40 56.82 59.28 54.24 C 62.69 52.48 63.87 48.57 65.16 45.24 C 66.60 41.70 65.19 37.94 64.68 34.38 C 58.97 32.26 52.83 32.59 46.87 32.91 C 43.05 33.12 39.05 34.68 36.91 38.00 C 36.25 39.27 35.52 40.98 36.74 42.17 C 38.50 44.88 42.12 44.22 44.87 44.51 C 43.83 42.32 42.67 40.20 41.66 38.00 C 47.08 34.17 54.28 34.51 60.53 35.29 C 62.58 39.24 61.88 44.52 58.49 47.54 C 54.90 49.19 50.79 48.70 46.96 49.08 C 44.16 48.97 42.07 51.02 39.83 52.36 C 40.81 50.75 41.82 49.16 42.75 47.52 C 40.86 48.63 38.93 49.75 37.45 51.39 C 34.41 54.30 35.46 59.34 37.52 62.52 C 39.01 65.20 41.93 66.33 44.53 67.59 C 47.26 68.53 47.22 71.84 48.13 74.11 C 43.37 73.46 38.48 72.32 34.56 69.38 C 29.82 65.85 27.06 60.36 25.03 54.94 C 22.62 48.82 24.24 41.50 28.75 36.77 C 32.32 32.97 35.73 28.21 41.18 27.16 C 48.07 25.68 55.75 25.33 62.11 28.83 C 67.94 31.92 71.27 37.83 75.10 42.92 C 70.83 28.42 52.99 19.98 39.13 26.12 Z" />
<path fill="#ffffff" opacity="1.00" d=" M 39.13 26.12 C 52.99 19.98 70.83 28.42 75.10 42.92 C 71.27 37.83 67.94 31.92 62.11 28.83 C 55.75 25.33 48.07 25.68 41.18 27.16 C 35.73 28.21 32.32 32.97 28.75 36.77 C 24.24 41.50 22.62 48.82 25.03 54.94 C 27.06 60.36 29.82 65.85 34.56 69.38 C 38.48 72.32 43.37 73.46 48.13 74.11 C 47.22 71.84 47.26 68.53 44.53 67.59 C 41.93 66.33 39.01 65.20 37.52 62.52 C 35.46 59.34 34.41 54.30 37.45 51.39 C 38.93 49.75 40.86 48.63 42.75 47.52 C 41.82 49.16 40.81 50.75 39.83 52.36 C 42.07 51.02 44.16 48.97 46.96 49.08 C 50.79 48.70 54.90 49.19 58.49 47.54 C 61.88 44.52 62.58 39.24 60.53 35.29 C 54.28 34.51 47.08 34.17 41.66 38.00 C 42.67 40.20 43.83 42.32 44.87 44.51 C 42.12 44.22 38.50 44.88 36.74 42.17 C 35.52 40.98 36.25 39.27 36.91 38.00 C 39.05 34.68 43.05 33.12 46.87 32.91 C 52.83 32.59 58.97 32.26 64.68 34.38 C 65.19 37.94 66.60 41.70 65.16 45.24 C 63.87 48.57 62.69 52.48 59.28 54.24 C 55.40 56.82 50.56 56.09 46.16 56.26 C 45.50 57.34 44.83 58.40 44.16 59.47 C 46.57 60.83 49.11 62.00 51.26 63.76 C 53.95 66.64 53.56 71.37 56.26 74.15 C 61.67 73.74 66.18 69.63 69.94 65.97 C 73.83 62.26 74.47 56.76 75.85 51.84 C 76.08 60.15 71.57 68.26 64.30 72.31 C 59.69 74.95 54.25 75.76 49.00 75.77 C 39.31 75.70 30.27 69.40 26.21 60.71 C 23.22 54.47 21.04 46.84 24.25 40.25 C 27.36 34.02 32.96 29.20 39.13 26.12 M 40.01 57.24 C 39.76 58.55 39.91 59.89 39.86 61.22 C 41.47 58.44 43.32 55.80 45.55 53.48 C 43.67 54.66 41.44 55.48 40.01 57.24 M 46.38 64.73 C 49.58 67.38 51.21 71.26 53.52 74.61 C 52.86 71.56 51.70 68.64 50.35 65.83 C 49.03 65.46 47.70 65.09 46.38 64.73 Z" />
<path fill="#482b46" opacity="1.00" d=" M 40.01 57.24 C 41.44 55.48 43.67 54.66 45.55 53.48 C 43.32 55.80 41.47 58.44 39.86 61.22 C 39.91 59.89 39.76 58.55 40.01 57.24 Z" />
<path fill="#482b46" opacity="1.00" d=" M 46.38 64.73 C 47.70 65.09 49.03 65.46 50.35 65.83 C 51.70 68.64 52.86 71.56 53.52 74.61 C 51.21 71.26 49.58 67.38 46.38 64.73 Z" />
</svg>
