<?xml version="1.0" encoding="UTF-8" ?>
<!DOCTYPE svg PUBLIC "-//W3C//DTD SVG 1.1//EN" "http://www.w3.org/Graphics/SVG/1.1/DTD/svg11.dtd">
<svg width="100pt" height="100pt" viewBox="0 0 100 100" version="1.1" xmlns="http://www.w3.org/2000/svg">
<path fill="#ffffff" opacity="1.00" d=" M 44.44 12.65 C 61.94 9.77 80.38 21.41 85.40 38.42 C 91.46 55.35 82.24 75.64 66.05 83.08 C 52.58 89.80 35.22 87.03 24.41 76.58 C 17.11 69.76 13.00 59.88 12.58 49.98 C 12.81 39.30 17.36 28.57 25.54 21.57 C 30.85 16.90 37.55 14.02 44.44 12.65 M 43.35 16.41 C 36.53 17.82 30.15 21.33 25.37 26.40 C 16.16 35.86 13.52 51.01 18.95 63.04 C 23.54 73.90 34.26 81.85 45.95 83.18 C 58.43 84.86 71.33 78.67 78.20 68.20 C 85.22 57.85 85.64 43.53 79.29 32.76 C 72.39 20.45 57.19 13.36 43.35 16.41 Z" />
<path fill="#482b46" opacity="1.00" d=" M 43.35 16.41 C 57.19 13.36 72.39 20.45 79.29 32.76 C 85.64 43.53 85.22 57.85 78.20 68.20 C 71.33 78.67 58.43 84.86 45.95 83.18 C 34.26 81.85 23.54 73.90 18.95 63.04 C 13.52 51.01 16.16 35.86 25.37 26.40 C 30.15 21.33 36.53 17.82 43.35 16.41 M 53.05 18.21 C 51.44 21.24 53.38 23.88 54.99 26.38 C 51.91 24.80 50.03 21.88 48.48 18.91 C 44.78 20.04 41.90 22.78 39.88 26.00 C 42.81 25.22 45.66 24.19 48.59 23.41 C 46.19 26.23 42.46 27.01 39.15 28.24 C 38.47 31.47 37.36 34.64 37.12 37.95 C 37.31 40.59 38.95 42.82 40.19 45.08 C 40.58 44.81 41.38 44.25 41.78 43.98 C 42.63 40.00 41.83 36.04 41.44 32.07 C 42.33 32.77 43.59 33.20 44.13 34.26 C 45.13 38.36 44.73 42.71 43.15 46.61 C 47.24 49.32 51.42 52.03 56.03 53.77 C 61.94 52.86 67.07 49.08 71.04 44.76 C 70.34 41.41 69.38 38.11 67.95 34.99 C 67.02 35.52 66.09 36.06 65.16 36.59 C 65.42 35.77 65.68 34.95 65.95 34.13 C 65.62 33.73 64.97 32.93 64.65 32.52 C 66.05 31.29 67.43 30.03 68.81 28.77 C 67.87 26.88 67.09 24.89 65.79 23.22 C 64.50 22.54 63.09 22.11 61.73 21.62 C 62.26 25.22 63.50 29.35 60.45 32.19 C 60.89 27.30 60.20 22.40 58.03 17.97 C 56.37 18.05 54.71 18.13 53.05 18.21 M 67.93 32.89 C 68.72 34.63 69.24 38.67 71.89 36.88 C 72.40 34.26 71.28 31.81 69.86 29.68 C 69.17 30.72 68.42 31.74 67.93 32.89 M 71.72 43.28 C 72.72 42.58 73.70 41.87 74.68 41.14 C 73.97 39.90 73.25 38.66 72.53 37.43 C 71.77 39.29 71.58 41.28 71.72 43.28 M 38.29 44.93 C 34.88 49.27 30.71 53.03 27.79 57.73 C 26.26 61.43 28.45 65.48 31.21 67.97 C 31.42 67.54 31.84 66.69 32.05 66.26 L 32.69 65.60 C 32.20 66.93 31.81 68.29 31.40 69.65 C 29.78 67.94 27.86 66.44 26.70 64.35 C 25.88 62.02 25.79 59.53 25.50 57.10 C 24.69 57.84 23.87 58.57 23.05 59.29 C 24.64 63.60 25.79 68.47 29.42 71.58 C 31.84 73.64 34.29 75.75 37.17 77.16 C 41.96 77.08 46.72 75.95 51.44 75.16 C 57.45 72.84 56.49 65.29 57.24 60.10 C 52.20 57.18 47.39 53.94 42.73 50.45 L 42.41 50.95 C 42.62 50.57 43.04 49.82 43.25 49.45 C 43.77 49.52 44.82 49.68 45.35 49.75 C 43.16 47.91 40.80 46.30 38.29 44.93 M 47.98 51.69 C 50.61 54.20 53.50 56.70 57.06 57.72 C 58.21 57.37 59.16 56.61 60.16 55.98 C 55.99 54.87 52.07 53.05 47.98 51.69 M 61.19 65.94 C 61.20 69.87 65.07 73.12 68.96 72.39 C 72.82 72.15 74.74 67.63 73.74 64.27 C 72.02 60.57 69.54 57.27 67.77 53.59 C 64.59 57.00 60.99 60.95 61.19 65.94 M 43.49 78.75 C 46.24 79.22 49.04 78.98 51.31 77.24 C 48.63 77.08 45.57 76.60 43.49 78.75 Z" />
<path fill="#ffffff" opacity="1.00" d=" M 53.05 18.21 C 54.71 18.13 56.37 18.05 58.03 17.97 C 60.20 22.40 60.89 27.30 60.45 32.19 C 63.50 29.35 62.26 25.22 61.73 21.62 C 63.09 22.11 64.50 22.54 65.79 23.22 C 67.09 24.89 67.87 26.88 68.81 28.77 C 67.43 30.03 66.05 31.29 64.65 32.52 C 64.97 32.93 65.62 33.73 65.95 34.13 C 65.68 34.95 65.42 35.77 65.16 36.59 C 66.09 36.06 67.02 35.52 67.95 34.99 C 69.38 38.11 70.34 41.41 71.04 44.76 C 67.07 49.08 61.94 52.86 56.03 53.77 C 51.42 52.03 47.24 49.32 43.15 46.61 C 44.73 42.71 45.13 38.36 44.13 34.26 C 43.59 33.20 42.33 32.77 41.44 32.07 C 41.83 36.04 42.63 40.00 41.78 43.98 C 41.38 44.25 40.58 44.81 40.19 45.08 C 38.95 42.82 37.31 40.59 37.12 37.95 C 37.36 34.64 38.47 31.47 39.15 28.24 C 42.46 27.01 46.19 26.23 48.59 23.41 C 45.66 24.19 42.81 25.22 39.88 26.00 C 41.90 22.78 44.78 20.04 48.48 18.91 C 50.03 21.88 51.91 24.80 54.99 26.38 C 53.38 23.88 51.44 21.24 53.05 18.21 M 63.31 30.24 C 63.84 30.78 63.84 30.78 63.31 30.24 Z" />
<path fill="#250023" opacity="1.00" d=" M 63.31 30.24 C 63.84 30.78 63.84 30.78 63.31 30.24 Z" />
<path fill="#ffffff" opacity="1.00" d=" M 67.93 32.89 C 68.42 31.74 69.17 30.72 69.86 29.68 C 71.28 31.81 72.40 34.26 71.89 36.88 C 69.24 38.67 68.72 34.63 67.93 32.89 Z" />
<path fill="#faf5fa" opacity="1.00" d=" M 71.72 43.28 C 71.58 41.28 71.77 39.29 72.53 37.43 C 73.25 38.66 73.97 39.90 74.68 41.14 C 73.70 41.87 72.72 42.58 71.72 43.28 Z" />
<path fill="#ffffff" opacity="1.00" d=" M 38.29 44.93 C 40.80 46.30 43.16 47.91 45.35 49.75 C 44.82 49.68 43.77 49.52 43.25 49.45 C 42.83 49.39 41.99 49.28 41.57 49.22 C 38.43 51.75 37.16 57.24 32.48 57.25 C 33.92 60.19 33.30 63.37 32.05 66.26 C 31.84 66.69 31.42 67.54 31.21 67.97 C 28.45 65.48 26.26 61.43 27.79 57.73 C 30.71 53.03 34.88 49.27 38.29 44.93 Z" />
<path fill="#1d011b" opacity="1.00" d=" M 32.48 57.25 C 37.16 57.24 38.43 51.75 41.57 49.22 C 41.99 49.28 42.83 49.39 43.25 49.45 C 43.04 49.82 42.62 50.57 42.41 50.95 C 39.51 56.05 36.80 61.34 32.69 65.60 L 32.05 66.26 C 33.30 63.37 33.92 60.19 32.48 57.25 Z" />
<path fill="#ffffff" opacity="1.00" d=" M 42.41 50.95 L 42.73 50.45 C 47.39 53.94 52.20 57.18 57.24 60.10 C 56.49 65.29 57.45 72.84 51.44 75.16 C 46.72 75.95 41.96 77.08 37.17 77.16 C 34.29 75.75 31.84 73.64 29.42 71.58 C 25.79 68.47 24.64 63.60 23.05 59.29 C 23.87 58.57 24.69 57.84 25.50 57.10 C 25.79 59.53 25.88 62.02 26.70 64.35 C 27.86 66.44 29.78 67.94 31.40 69.65 C 31.81 68.29 32.20 66.93 32.69 65.60 C 36.80 61.34 39.51 56.05 42.41 50.95 Z" />
<path fill="#ffffff" opacity="1.00" d=" M 47.98 51.69 C 52.07 53.05 55.99 54.87 60.16 55.98 C 59.16 56.61 58.21 57.37 57.06 57.72 C 53.50 56.70 50.61 54.20 47.98 51.69 Z" />
<path fill="#ffffff" opacity="1.00" d=" M 61.19 65.94 C 60.99 60.95 64.59 57.00 67.77 53.59 C 69.54 57.27 72.02 60.57 73.74 64.27 C 74.74 67.63 72.82 72.15 68.96 72.39 C 65.07 73.12 61.20 69.87 61.19 65.94 M 68.84 65.14 C 68.54 66.73 67.78 69.27 70.01 69.79 C 71.86 69.35 71.40 67.18 71.71 65.75 C 70.99 65.60 69.56 65.29 68.84 65.14 Z" />
<path fill="#1d011b" opacity="1.00" d=" M 68.84 65.14 C 69.56 65.29 70.99 65.60 71.71 65.75 C 71.40 67.18 71.86 69.35 70.01 69.79 C 67.78 69.27 68.54 66.73 68.84 65.14 Z" />
<path fill="#ffffff" opacity="1.00" d=" M 43.49 78.75 C 45.57 76.60 48.63 77.08 51.31 77.24 C 49.04 78.98 46.24 79.22 43.49 78.75 Z" />
</svg>
