<?xml version="1.0" encoding="UTF-8" ?>
<!DOCTYPE svg PUBLIC "-//W3C//DTD SVG 1.1//EN" "http://www.w3.org/Graphics/SVG/1.1/DTD/svg11.dtd">
<svg width="100pt" height="100pt" viewBox="0 0 100 100" version="1.1" xmlns="http://www.w3.org/2000/svg">
<path fill="#b8b8b8" opacity="1.00" d=" M 23.99 18.54 C 24.70 17.22 25.40 15.89 26.10 14.57 C 41.08 14.50 56.06 14.61 71.04 14.50 C 72.98 14.57 75.81 14.12 76.27 16.70 C 80.81 29.19 85.07 41.79 89.68 54.26 C 90.05 55.88 91.65 58.42 89.44 59.37 C 76.52 67.73 63.93 76.66 50.88 84.78 C 47.61 83.44 44.78 81.20 41.48 79.90 C 41.36 79.44 41.10 78.52 40.97 78.06 C 40.95 77.32 40.92 75.85 40.90 75.11 C 44.29 76.94 47.58 78.94 50.88 80.92 C 62.70 73.03 74.74 65.44 86.26 57.12 C 81.88 44.33 77.31 31.62 72.77 18.89 C 68.55 18.74 64.31 18.78 60.11 19.19 L 59.32 19.26 C 52.24 18.58 45.12 18.54 38.03 19.20 L 37.34 19.14 C 33.42 18.43 29.37 18.91 26.27 21.61 C 23.42 20.72 20.58 19.76 17.74 18.83 C 20.00 22.18 23.18 25.12 24.38 29.05 C 24.04 33.44 22.20 37.58 20.48 41.58 C 18.30 46.52 13.07 48.78 8.91 51.73 C 11.60 51.18 14.29 50.60 16.98 50.03 C 16.44 52.55 15.90 55.08 15.35 57.60 C 23.08 62.59 30.53 68.03 38.43 72.74 C 37.87 77.27 38.02 81.84 38.15 86.39 C 39.08 85.01 39.98 83.63 40.90 82.25 C 41.05 82.03 41.35 81.59 41.50 81.37 C 40.98 84.57 40.23 87.74 38.93 90.72 C 36.37 86.34 37.22 81.17 36.50 76.37 C 35.73 75.21 34.52 74.43 33.41 73.62 C 25.73 68.50 17.92 63.55 10.39 58.20 C 10.98 56.29 11.58 54.38 12.15 52.46 C 9.60 52.76 7.06 53.11 4.50 53.41 C 8.31 49.94 14.16 48.06 15.81 42.76 C 17.79 37.26 19.73 31.74 21.52 26.18 C 18.87 22.82 16.30 19.40 13.91 15.85 C 17.29 16.65 20.65 17.58 23.99 18.54 Z" />
<path fill="#941271" opacity="1.00" d=" M 17.74 18.83 C 20.58 19.76 23.42 20.72 26.27 21.61 C 29.37 18.91 33.42 18.43 37.34 19.14 C 37.33 20.96 37.56 22.82 37.18 24.62 C 36.15 26.68 34.56 28.38 33.27 30.27 C 30.15 34.47 28.70 39.65 25.48 43.79 C 25.51 41.16 25.64 38.54 25.79 35.92 C 23.33 40.19 20.81 44.45 17.56 48.17 C 19.26 47.50 20.96 46.84 22.67 46.19 C 26.07 49.77 29.42 53.41 32.34 57.39 C 33.86 56.55 35.38 55.71 36.89 54.86 C 32.62 52.08 28.86 48.60 25.36 44.92 C 26.59 44.28 27.81 43.63 29.03 42.97 C 31.73 45.67 34.10 49.36 38.04 50.26 C 41.22 50.09 43.74 47.84 46.35 46.26 C 48.78 51.87 51.21 57.48 53.90 62.97 C 52.53 58.34 51.06 53.75 49.59 49.15 C 52.14 47.26 55.40 45.78 56.68 42.67 C 57.81 39.80 58.27 36.55 57.55 33.53 C 56.28 31.95 54.64 30.76 53.11 29.47 C 55.56 26.13 57.97 22.75 60.11 19.19 C 64.31 18.78 68.55 18.74 72.77 18.89 C 77.31 31.62 81.88 44.33 86.26 57.12 C 74.74 65.44 62.70 73.03 50.88 80.92 C 47.58 78.94 44.29 76.94 40.90 75.11 C 40.92 75.85 40.95 77.32 40.97 78.06 C 40.59 76.79 40.19 75.52 39.86 74.23 C 40.22 67.43 40.94 60.65 41.67 53.88 C 42.92 54.82 44.18 55.76 45.44 56.70 C 44.51 54.70 43.55 52.70 42.59 50.71 C 39.81 53.45 37.52 56.66 34.63 59.28 C 31.74 61.37 27.88 59.55 25.39 57.63 C 22.38 55.56 21.16 51.99 19.80 48.78 C 19.22 50.69 18.55 52.59 18.34 54.58 C 21.42 57.77 25.46 59.80 28.87 62.60 C 30.41 62.01 31.94 61.42 33.48 60.85 C 32.83 62.37 32.16 63.88 31.49 65.39 C 34.00 62.42 36.55 59.50 39.15 56.62 C 39.28 61.98 38.94 67.36 39.48 72.70 L 38.43 72.74 C 30.53 68.03 23.08 62.59 15.35 57.60 C 15.90 55.08 16.44 52.55 16.98 50.03 C 14.29 50.60 11.60 51.18 8.91 51.73 C 13.07 48.78 18.30 46.52 20.48 41.58 C 22.20 37.58 24.04 33.44 24.38 29.05 C 23.18 25.12 20.00 22.18 17.74 18.83 M 21.98 21.85 C 24.44 25.36 27.13 28.76 30.62 31.31 C 31.60 28.69 32.48 26.04 33.35 23.38 C 31.97 24.02 30.64 24.81 29.16 25.21 C 26.62 24.45 24.36 22.99 21.98 21.85 M 61.89 30.02 C 65.86 28.92 69.60 27.15 73.09 24.99 C 72.75 23.94 72.41 22.88 72.07 21.82 C 68.85 24.77 65.29 27.29 61.89 30.02 M 67.73 37.19 C 70.86 35.00 73.39 32.07 75.17 28.71 C 71.54 30.28 68.70 33.30 67.73 37.19 M 68.74 38.92 C 71.51 38.84 74.27 38.52 77.01 38.13 C 76.05 42.75 74.13 47.07 72.36 51.43 C 75.52 48.94 76.87 45.03 78.23 41.40 C 79.01 39.29 77.67 37.18 77.22 35.14 C 74.30 36.19 71.40 37.32 68.74 38.92 M 60.80 40.74 C 59.96 43.31 59.20 45.91 58.49 48.53 C 59.51 47.53 60.57 46.57 61.43 45.44 C 61.61 43.84 61.10 42.28 60.80 40.74 M 52.51 51.53 C 55.65 52.53 57.44 55.26 59.29 57.77 C 60.45 59.55 62.86 58.72 64.64 59.03 C 65.37 56.67 66.14 54.32 66.95 51.98 C 65.47 54.47 63.71 56.83 61.17 58.32 C 58.88 54.65 56.56 50.98 53.77 47.66 C 53.34 48.94 52.92 50.23 52.51 51.53 M 72.43 65.35 C 74.59 61.09 75.37 56.21 75.00 51.47 C 72.46 55.62 72.51 60.65 72.43 65.35 M 59.65 64.81 C 61.86 65.17 64.11 65.08 66.30 64.64 C 64.20 63.23 61.64 63.11 59.65 64.81 M 50.64 69.27 C 52.25 70.41 53.74 72.36 55.96 71.94 C 60.12 71.68 64.75 71.04 67.43 67.47 C 61.79 67.44 56.12 67.90 50.64 69.27 Z" />
<path fill="#941271" opacity="1.00" d=" M 38.03 19.20 C 45.12 18.54 52.24 18.58 59.32 19.26 C 56.69 22.02 54.25 24.96 51.68 27.77 C 48.44 24.89 44.30 23.04 39.94 24.24 C 39.31 22.56 38.70 20.87 38.03 19.20 Z" />
<path fill="#ffffff" opacity="1.00" d=" M 37.34 19.14 L 38.03 19.20 C 38.70 20.87 39.31 22.56 39.94 24.24 C 44.30 23.04 48.44 24.89 51.68 27.77 C 54.25 24.96 56.69 22.02 59.32 19.26 L 60.11 19.19 C 57.97 22.75 55.56 26.13 53.11 29.47 C 54.64 30.76 56.28 31.95 57.55 33.53 C 58.27 36.55 57.81 39.80 56.68 42.67 C 55.40 45.78 52.14 47.26 49.59 49.15 C 51.06 53.75 52.53 58.34 53.90 62.97 C 51.21 57.48 48.78 51.87 46.35 46.26 C 43.74 47.84 41.22 50.09 38.04 50.26 C 34.10 49.36 31.73 45.67 29.03 42.97 C 27.81 43.63 26.59 44.28 25.36 44.92 C 28.86 48.60 32.62 52.08 36.89 54.86 C 35.38 55.71 33.86 56.55 32.34 57.39 C 29.42 53.41 26.07 49.77 22.67 46.19 C 20.96 46.84 19.26 47.50 17.56 48.17 C 20.81 44.45 23.33 40.19 25.79 35.92 C 25.64 38.54 25.51 41.16 25.48 43.79 C 28.70 39.65 30.15 34.47 33.27 30.27 C 34.56 28.38 36.15 26.68 37.18 24.62 C 37.56 22.82 37.33 20.96 37.34 19.14 M 34.23 32.43 C 32.62 33.15 32.45 35.05 31.80 36.48 C 32.91 37.24 34.02 38.01 35.13 38.78 C 35.60 40.69 36.13 42.60 36.72 44.49 C 38.93 43.96 41.15 43.42 43.34 42.80 C 45.01 42.95 46.65 42.52 48.28 42.25 C 48.96 42.34 50.32 42.52 51.00 42.61 C 50.06 43.46 49.13 44.31 48.19 45.16 C 48.42 45.76 48.90 46.96 49.13 47.56 C 52.09 45.81 55.30 43.78 55.59 39.98 C 54.08 39.96 52.56 39.95 51.04 39.96 C 52.21 38.97 53.40 38.00 54.47 36.90 C 53.24 33.72 49.83 32.21 47.51 29.92 C 45.97 30.12 44.44 30.34 42.91 30.55 C 45.04 29.39 47.16 28.22 49.23 26.97 C 43.52 25.86 38.85 29.78 34.23 32.43 Z" />
<path fill="#ffffff" opacity="1.00" d=" M 21.98 21.85 C 24.36 22.99 26.62 24.45 29.16 25.21 C 30.64 24.81 31.97 24.02 33.35 23.38 C 32.48 26.04 31.60 28.69 30.62 31.31 C 27.13 28.76 24.44 25.36 21.98 21.85 Z" />
<path fill="#ffffff" opacity="1.00" d=" M 61.89 30.02 C 65.29 27.29 68.85 24.77 72.07 21.82 C 72.41 22.88 72.75 23.94 73.09 24.99 C 69.60 27.15 65.86 28.92 61.89 30.02 Z" />
<path fill="#910b6e" opacity="1.00" d=" M 34.23 32.43 C 38.85 29.78 43.52 25.86 49.23 26.97 C 47.16 28.22 45.04 29.39 42.91 30.55 C 44.44 30.34 45.97 30.12 47.51 29.92 C 49.83 32.21 53.24 33.72 54.47 36.90 C 53.40 38.00 52.21 38.97 51.04 39.96 C 52.56 39.95 54.08 39.96 55.59 39.98 C 55.30 43.78 52.09 45.81 49.13 47.56 C 48.90 46.96 48.42 45.76 48.19 45.16 C 49.13 44.31 50.06 43.46 51.00 42.61 C 50.32 42.52 48.96 42.34 48.28 42.25 C 47.91 42.18 47.17 42.04 46.80 41.98 C 46.69 41.06 46.59 40.14 46.50 39.22 C 46.92 38.81 47.76 37.97 48.17 37.55 C 48.65 37.07 49.59 36.11 50.07 35.62 C 48.30 35.20 46.53 34.78 44.74 34.48 C 41.72 34.33 38.77 35.08 35.87 35.79 C 36.85 36.94 37.82 38.09 38.80 39.24 C 38.63 39.74 38.29 40.74 38.12 41.24 C 39.85 41.79 41.58 42.34 43.34 42.80 C 41.15 43.42 38.93 43.96 36.72 44.49 C 36.13 42.60 35.60 40.69 35.13 38.78 C 34.02 38.01 32.91 37.24 31.80 36.48 C 32.45 35.05 32.62 33.15 34.23 32.43 Z" />
<path fill="#ffffff" opacity="1.00" d=" M 67.73 37.19 C 68.70 33.30 71.54 30.28 75.17 28.71 C 73.39 32.07 70.86 35.00 67.73 37.19 Z" />
<path fill="#ffffff" opacity="1.00" d=" M 35.87 35.79 C 38.77 35.08 41.72 34.33 44.74 34.48 C 45.88 35.51 47.02 36.53 48.17 37.55 C 47.76 37.97 46.92 38.81 46.50 39.22 C 43.93 39.22 41.37 39.23 38.80 39.24 C 37.82 38.09 36.85 36.94 35.87 35.79 Z" />
<path fill="#c175ac" opacity="1.00" d=" M 44.74 34.48 C 46.53 34.78 48.30 35.20 50.07 35.62 C 49.59 36.11 48.65 37.07 48.17 37.55 C 47.02 36.53 45.88 35.51 44.74 34.48 Z" />
<path fill="#ffffff" opacity="1.00" d=" M 68.74 38.92 C 71.40 37.32 74.30 36.19 77.22 35.14 C 77.67 37.18 79.01 39.29 78.23 41.40 C 76.87 45.03 75.52 48.94 72.36 51.43 C 74.13 47.07 76.05 42.75 77.01 38.13 C 74.27 38.52 71.51 38.84 68.74 38.92 Z" />
<path fill="#c277ad" opacity="1.00" d=" M 38.80 39.24 C 41.37 39.23 43.93 39.22 46.50 39.22 C 46.59 40.14 46.69 41.06 46.80 41.98 C 47.17 42.04 47.91 42.18 48.28 42.25 C 46.65 42.52 45.01 42.95 43.34 42.80 C 41.58 42.34 39.85 41.79 38.12 41.24 C 38.29 40.74 38.63 39.74 38.80 39.24 Z" />
<path fill="#ffffff" opacity="1.00" d=" M 60.80 40.74 C 61.10 42.28 61.61 43.84 61.43 45.44 C 60.57 46.57 59.51 47.53 58.49 48.53 C 59.20 45.91 59.96 43.31 60.80 40.74 Z" />
<path fill="#ffffff" opacity="1.00" d=" M 52.51 51.53 C 52.92 50.23 53.34 48.94 53.77 47.66 C 56.56 50.98 58.88 54.65 61.17 58.32 C 63.71 56.83 65.47 54.47 66.95 51.98 C 66.14 54.32 65.37 56.67 64.64 59.03 C 62.86 58.72 60.45 59.55 59.29 57.77 C 57.44 55.26 55.65 52.53 52.51 51.53 Z" />
<path fill="#ffffff" opacity="1.00" d=" M 18.34 54.58 C 18.55 52.59 19.22 50.69 19.80 48.78 C 21.16 51.99 22.38 55.56 25.39 57.63 C 27.88 59.55 31.74 61.37 34.63 59.28 C 37.52 56.66 39.81 53.45 42.59 50.71 C 43.55 52.70 44.51 54.70 45.44 56.70 C 44.18 55.76 42.92 54.82 41.67 53.88 C 40.94 60.65 40.22 67.43 39.86 74.23 C 39.77 73.85 39.58 73.08 39.48 72.70 C 38.94 67.36 39.28 61.98 39.15 56.62 C 36.55 59.50 34.00 62.42 31.49 65.39 C 32.16 63.88 32.83 62.37 33.48 60.85 C 31.94 61.42 30.41 62.01 28.87 62.60 C 25.46 59.80 21.42 57.77 18.34 54.58 Z" />
<path fill="#ffffff" opacity="1.00" d=" M 72.43 65.35 C 72.51 60.65 72.46 55.62 75.00 51.47 C 75.37 56.21 74.59 61.09 72.43 65.35 Z" />
<path fill="#ffffff" opacity="1.00" d=" M 59.65 64.81 C 61.64 63.11 64.20 63.23 66.30 64.64 C 64.11 65.08 61.86 65.17 59.65 64.81 Z" />
<path fill="#ffffff" opacity="1.00" d=" M 50.64 69.27 C 56.12 67.90 61.79 67.44 67.43 67.47 C 64.75 71.04 60.12 71.68 55.96 71.94 C 53.74 72.36 52.25 70.41 50.64 69.27 Z" />
<path fill="#a14989" opacity="0.96" d=" M 38.43 72.74 L 39.48 72.70 C 39.58 73.08 39.77 73.85 39.86 74.23 C 40.19 75.52 40.59 76.79 40.97 78.06 C 41.10 78.52 41.36 79.44 41.48 79.90 C 41.56 80.16 41.71 80.69 41.78 80.95 L 41.50 81.37 C 41.35 81.59 41.05 82.03 40.90 82.25 C 39.98 83.63 39.08 85.01 38.15 86.39 C 38.02 81.84 37.87 77.27 38.43 72.74 Z" />
</svg>
