<?xml version="1.0" encoding="UTF-8" ?>
<!DOCTYPE svg PUBLIC "-//W3C//DTD SVG 1.1//EN" "http://www.w3.org/Graphics/SVG/1.1/DTD/svg11.dtd">
<svg width="100pt" height="100pt" viewBox="0 0 100 100" version="1.1" xmlns="http://www.w3.org/2000/svg">
<path fill="#b9bbb9" opacity="1.00" d=" M 9.00 20.21 C 36.78 20.25 64.56 20.20 92.34 20.23 C 78.57 41.28 64.58 62.19 50.74 83.20 C 48.41 79.89 46.18 76.52 43.95 73.15 C 40.34 74.98 36.28 74.69 32.37 74.42 C 31.13 71.37 30.00 68.27 28.93 65.15 C 30.90 63.17 32.83 61.17 34.75 59.16 C 26.16 46.18 17.54 33.22 9.00 20.21 M 14.67 23.32 C 22.08 35.50 31.04 46.67 38.47 58.84 C 36.33 61.18 33.55 63.19 32.32 66.20 C 32.50 68.31 33.29 70.31 33.90 72.32 C 38.21 72.91 41.90 70.76 44.92 67.92 C 46.97 70.77 49.01 73.63 51.08 76.47 C 59.11 64.62 66.73 52.48 74.49 40.45 C 78.08 34.73 82.09 29.26 85.31 23.32 C 61.76 23.31 38.21 23.17 14.67 23.32 Z" />
<path fill="#941271" opacity="1.00" d=" M 14.67 23.32 C 38.21 23.17 61.76 23.31 85.31 23.32 C 82.09 29.26 78.08 34.73 74.49 40.45 C 66.73 52.48 59.11 64.62 51.08 76.47 C 49.01 73.63 46.97 70.77 44.92 67.92 C 41.90 70.76 38.21 72.91 33.90 72.32 C 33.29 70.31 32.50 68.31 32.32 66.20 C 33.55 63.19 36.33 61.18 38.47 58.84 C 31.04 46.67 22.08 35.50 14.67 23.32 M 18.79 25.39 C 24.49 26.25 30.25 26.61 35.97 27.38 C 33.47 31.51 29.89 35.79 30.72 40.94 C 31.36 45.70 36.79 48.94 41.30 47.33 C 45.10 46.26 46.93 41.81 46.00 38.18 C 44.31 34.59 41.47 31.70 39.53 28.25 C 46.99 29.73 54.43 32.07 60.62 36.63 C 58.41 38.62 55.71 40.27 54.16 42.87 C 53.18 46.09 53.18 50.07 49.93 52.03 C 48.07 51.36 46.40 50.29 44.72 49.26 C 43.51 49.85 42.30 50.45 41.10 51.07 C 43.01 51.76 44.88 52.54 46.70 53.44 C 42.61 58.68 36.53 62.62 34.53 69.24 C 36.02 69.25 37.74 69.98 39.10 69.08 C 43.41 66.17 45.68 60.84 50.54 58.65 C 54.44 57.30 58.64 57.33 62.68 56.66 C 59.86 55.63 56.90 55.08 53.97 54.47 C 56.56 52.25 59.34 50.17 61.34 47.38 C 63.86 43.85 65.61 39.78 68.61 36.61 C 71.53 33.52 75.26 31.37 78.97 29.37 C 72.63 29.15 67.25 25.19 60.94 24.76 C 62.75 26.13 64.58 27.46 66.34 28.90 C 61.15 27.46 56.20 24.92 50.70 24.97 C 53.64 26.67 56.71 28.15 59.45 30.17 C 53.47 29.12 48.26 25.15 42.05 25.23 C 34.30 25.18 26.54 24.95 18.79 25.39 Z" />
<path fill="#f7f9f6" opacity="1.00" d=" M 18.79 25.39 C 26.54 24.95 34.30 25.18 42.05 25.23 C 48.26 25.15 53.47 29.12 59.45 30.17 C 56.71 28.15 53.64 26.67 50.70 24.97 C 56.20 24.92 61.15 27.46 66.34 28.90 C 64.58 27.46 62.75 26.13 60.94 24.76 C 67.25 25.19 72.63 29.15 78.97 29.37 C 75.26 31.37 71.53 33.52 68.61 36.61 C 65.61 39.78 63.86 43.85 61.34 47.38 C 59.34 50.17 56.56 52.25 53.97 54.47 C 56.90 55.08 59.86 55.63 62.68 56.66 C 58.64 57.33 54.44 57.30 50.54 58.65 C 45.68 60.84 43.41 66.17 39.10 69.08 C 37.74 69.98 36.02 69.25 34.53 69.24 C 36.53 62.62 42.61 58.68 46.70 53.44 C 44.88 52.54 43.01 51.76 41.10 51.07 C 42.30 50.45 43.51 49.85 44.72 49.26 C 46.40 50.29 48.07 51.36 49.93 52.03 C 53.18 50.07 53.18 46.09 54.16 42.87 C 55.71 40.27 58.41 38.62 60.62 36.63 C 54.43 32.07 46.99 29.73 39.53 28.25 C 41.47 31.70 44.31 34.59 46.00 38.18 C 46.93 41.81 45.10 46.26 41.30 47.33 C 36.79 48.94 31.36 45.70 30.72 40.94 C 29.89 35.79 33.47 31.51 35.97 27.38 C 30.25 26.61 24.49 26.25 18.79 25.39 M 39.69 39.85 C 38.42 41.62 39.49 44.59 41.94 44.23 C 44.67 43.72 42.96 40.53 43.05 38.68 C 41.91 39.02 40.79 39.40 39.69 39.85 Z" />
<path fill="#970e74" opacity="1.00" d=" M 39.69 39.85 C 40.79 39.40 41.91 39.02 43.05 38.68 C 42.96 40.53 44.67 43.72 41.94 44.23 C 39.49 44.59 38.42 41.62 39.69 39.85 Z" />
</svg>
