<?xml version="1.0" encoding="UTF-8" ?>
<!DOCTYPE svg PUBLIC "-//W3C//DTD SVG 1.1//EN" "http://www.w3.org/Graphics/SVG/1.1/DTD/svg11.dtd">
<svg width="100pt" height="100pt" viewBox="0 0 100 100" version="1.1" xmlns="http://www.w3.org/2000/svg">
<path fill="#b9bbb9" opacity="1.00" d=" M 8.97 20.21 C 36.79 20.23 64.61 20.21 92.43 20.22 C 78.51 41.22 64.59 62.21 50.73 83.25 C 48.44 79.92 46.21 76.55 43.98 73.18 C 40.31 74.92 36.25 74.69 32.31 74.41 C 31.14 71.33 30.02 68.23 28.89 65.14 C 30.87 63.16 32.85 61.19 34.81 59.18 C 26.11 46.24 17.60 33.18 8.97 20.21 M 14.62 23.33 C 22.14 35.43 30.95 46.68 38.47 58.78 C 36.70 60.60 34.81 62.33 33.33 64.41 C 31.30 66.79 33.45 69.89 33.82 72.51 C 38.05 72.52 41.90 70.84 44.97 67.96 C 46.99 70.82 49.03 73.66 51.09 76.49 C 62.70 58.90 74.20 41.21 85.36 23.32 C 61.78 23.28 38.20 23.14 14.62 23.33 Z" />
<path fill="#941271" opacity="1.00" d=" M 14.62 23.33 C 38.20 23.14 61.78 23.28 85.36 23.32 C 74.20 41.21 62.70 58.90 51.09 76.49 C 49.03 73.66 46.99 70.82 44.97 67.96 C 41.90 70.84 38.05 72.52 33.82 72.51 C 33.45 69.89 31.30 66.79 33.33 64.41 C 34.81 62.33 36.70 60.60 38.47 58.78 C 30.95 46.68 22.14 35.43 14.62 23.33 M 18.70 25.38 C 24.44 26.22 30.22 26.71 35.98 27.36 C 33.45 31.47 29.95 35.78 30.71 40.93 C 31.32 45.42 36.16 48.56 40.52 47.53 C 44.39 46.92 46.71 42.80 46.15 39.10 C 44.95 34.96 41.57 31.92 39.46 28.22 C 46.97 29.67 54.33 32.17 60.67 36.54 C 58.27 38.84 54.80 40.61 53.92 44.07 C 53.10 46.92 52.62 50.23 49.97 52.04 C 48.09 51.34 46.39 50.27 44.65 49.30 C 43.46 49.88 42.27 50.45 41.08 51.04 C 42.96 51.82 44.84 52.60 46.70 53.41 C 42.48 58.65 36.62 62.82 34.39 69.42 C 35.78 69.39 37.18 69.42 38.57 69.31 C 43.28 66.64 45.48 60.88 50.56 58.69 C 54.48 57.35 58.68 57.25 62.74 56.58 C 59.83 55.77 56.89 55.13 53.97 54.40 C 55.69 52.98 57.45 51.61 59.05 50.05 C 62.83 46.30 64.65 41.11 68.15 37.14 C 71.08 33.77 75.01 31.50 78.92 29.45 C 72.68 28.82 67.16 25.50 60.97 24.68 C 62.76 26.10 64.59 27.48 66.36 28.94 C 61.21 27.30 56.16 25.16 50.69 24.86 C 53.63 26.65 56.69 28.23 59.50 30.21 C 53.55 28.99 48.25 25.28 42.05 25.22 C 34.27 25.10 26.48 24.99 18.70 25.38 Z" />
<path fill="#f7f9f6" opacity="1.00" d=" M 18.70 25.38 C 26.48 24.99 34.27 25.10 42.05 25.22 C 48.25 25.28 53.55 28.99 59.50 30.21 C 56.69 28.23 53.63 26.65 50.69 24.86 C 56.16 25.16 61.21 27.30 66.36 28.94 C 64.59 27.48 62.76 26.10 60.97 24.68 C 67.16 25.50 72.68 28.82 78.92 29.45 C 75.01 31.50 71.08 33.77 68.15 37.14 C 64.65 41.11 62.83 46.30 59.05 50.05 C 57.45 51.61 55.69 52.98 53.97 54.40 C 56.89 55.13 59.83 55.77 62.74 56.58 C 58.68 57.25 54.48 57.35 50.56 58.69 C 45.48 60.88 43.28 66.64 38.57 69.31 C 37.18 69.42 35.78 69.39 34.39 69.42 C 36.62 62.82 42.48 58.65 46.70 53.41 C 44.84 52.60 42.96 51.82 41.08 51.04 C 42.27 50.45 43.46 49.88 44.65 49.30 C 46.39 50.27 48.09 51.34 49.97 52.04 C 52.62 50.23 53.10 46.92 53.92 44.07 C 54.80 40.61 58.27 38.84 60.67 36.54 C 54.33 32.17 46.97 29.67 39.46 28.22 C 41.57 31.92 44.95 34.96 46.15 39.10 C 46.71 42.80 44.39 46.92 40.52 47.53 C 36.16 48.56 31.32 45.42 30.71 40.93 C 29.95 35.78 33.45 31.47 35.98 27.36 C 30.22 26.71 24.44 26.22 18.70 25.38 M 39.57 39.00 C 39.62 40.44 39.18 41.95 39.66 43.34 C 40.88 43.93 42.31 43.78 43.62 44.06 C 43.50 42.46 43.35 40.87 43.13 39.29 C 42.24 39.22 40.46 39.08 39.57 39.00 Z" />
<path fill="#970e74" opacity="1.00" d=" M 39.57 39.00 C 40.46 39.08 42.24 39.22 43.13 39.29 C 43.35 40.87 43.50 42.46 43.62 44.06 C 42.31 43.78 40.88 43.93 39.66 43.34 C 39.18 41.95 39.62 40.44 39.57 39.00 Z" />
</svg>
