<?xml version="1.0" encoding="UTF-8" ?>
<!DOCTYPE svg PUBLIC "-//W3C//DTD SVG 1.1//EN" "http://www.w3.org/Graphics/SVG/1.1/DTD/svg11.dtd">
<svg width="100pt" height="100pt" viewBox="0 0 100 100" version="1.1" xmlns="http://www.w3.org/2000/svg">
<path fill="#bbc5be" opacity="1.00" d=" M 49.98 14.42 C 58.04 13.57 66.00 14.98 73.76 17.07 C 72.87 19.80 71.95 22.51 71.04 25.24 C 78.68 25.36 86.33 25.29 93.97 25.26 C 87.98 33.61 81.95 41.94 75.83 50.20 C 80.31 55.52 85.40 60.48 88.58 66.73 C 85.95 68.96 83.74 71.92 80.52 73.32 C 73.44 74.22 66.24 73.06 59.17 74.04 C 55.56 77.27 53.36 81.76 50.22 85.43 C 47.69 82.10 45.47 78.52 42.67 75.41 C 40.09 72.56 34.36 76.38 32.75 72.24 C 32.03 70.87 31.42 69.45 30.80 68.04 C 29.51 68.59 28.22 69.15 26.93 69.70 C 27.94 66.67 28.96 63.64 29.92 60.60 C 25.24 61.57 20.61 62.80 15.95 63.87 C 18.28 61.65 20.77 59.59 23.18 57.46 C 20.33 57.25 17.47 57.05 14.62 56.76 C 18.06 54.93 21.64 53.40 25.21 51.84 C 18.86 42.88 12.02 34.28 5.68 25.32 C 13.95 25.19 22.22 25.48 30.49 25.15 C 30.89 22.56 30.03 19.19 32.38 17.34 C 37.09 12.88 44.16 15.21 49.98 14.42 M 35.69 17.83 C 31.65 19.32 32.49 24.16 32.42 27.55 C 25.54 27.81 18.66 27.51 11.78 27.86 C 17.29 36.45 24.16 44.07 29.51 52.77 C 31.20 52.80 32.89 52.83 34.58 52.88 C 30.76 55.84 25.86 54.08 21.56 55.44 C 23.85 55.98 26.17 56.41 28.49 56.81 C 26.26 58.21 24.05 59.66 21.96 61.26 C 25.76 60.48 29.18 58.58 32.24 56.23 L 31.82 57.31 C 31.22 57.54 30.62 57.78 30.03 58.03 C 31.28 58.57 32.54 59.11 33.79 59.65 C 32.45 61.75 31.13 63.85 29.84 65.98 C 31.19 65.39 32.53 64.80 33.87 64.21 C 34.36 66.63 34.89 69.05 35.41 71.47 C 38.27 71.63 41.12 71.78 43.98 71.93 C 46.10 74.65 48.20 77.38 50.28 80.13 C 52.46 77.39 54.27 74.32 56.83 71.89 C 64.61 70.12 72.83 72.51 80.63 70.64 C 82.67 69.62 84.19 67.87 85.84 66.34 C 83.09 61.79 79.71 57.67 75.85 54.03 C 73.55 54.21 71.25 54.38 68.95 54.55 C 74.87 45.48 81.88 37.15 87.49 27.88 C 80.96 27.50 74.41 27.73 67.87 27.67 C 68.88 24.47 69.95 21.29 71.00 18.11 C 64.40 16.94 57.70 16.35 51.01 16.74 C 45.91 17.10 40.68 16.64 35.69 17.83 Z" />
<path fill="#941271" opacity="1.00" d=" M 35.69 17.83 C 40.68 16.64 45.91 17.10 51.01 16.74 C 57.70 16.35 64.40 16.94 71.00 18.11 C 69.95 21.29 68.88 24.47 67.87 27.67 C 74.41 27.73 80.96 27.50 87.49 27.88 C 81.88 37.15 74.87 45.48 68.95 54.55 C 71.25 54.38 73.55 54.21 75.85 54.03 C 79.71 57.67 83.09 61.79 85.84 66.34 C 84.19 67.87 82.67 69.62 80.63 70.64 C 72.83 72.51 64.61 70.12 56.83 71.89 C 54.27 74.32 52.46 77.39 50.28 80.13 C 48.20 77.38 46.10 74.65 43.98 71.93 C 41.12 71.78 38.27 71.63 35.41 71.47 C 34.89 69.05 34.36 66.63 33.87 64.21 C 32.53 64.80 31.19 65.39 29.84 65.98 C 31.13 63.85 32.45 61.75 33.79 59.65 C 34.23 61.29 36.63 61.82 37.01 59.83 C 37.34 57.61 34.60 58.73 33.79 59.65 C 32.54 59.11 31.28 58.57 30.03 58.03 C 30.62 57.78 31.22 57.54 31.82 57.31 C 34.40 56.56 37.02 55.37 39.76 55.59 C 42.73 56.49 45.25 58.39 47.89 59.94 C 52.14 57.67 56.33 55.30 60.47 52.85 C 59.29 45.59 60.26 38.27 60.39 30.98 C 52.69 33.18 44.90 31.03 37.26 29.79 C 39.13 35.06 40.56 40.49 41.25 46.04 C 34.88 42.72 28.98 38.59 22.63 35.23 C 26.79 40.10 31.49 44.51 36.63 48.34 C 35.79 49.08 34.96 49.82 34.13 50.56 C 38.44 49.91 42.68 48.72 46.50 46.58 C 46.53 47.34 46.56 48.10 46.59 48.86 C 48.46 49.51 50.33 50.16 52.19 50.83 C 49.40 50.98 46.61 51.10 43.82 51.24 C 45.54 52.47 47.26 53.69 48.98 54.92 C 45.83 54.18 42.72 53.22 39.49 52.89 C 36.64 52.56 34.37 54.69 32.24 56.23 C 29.18 58.58 25.76 60.48 21.96 61.26 C 24.05 59.66 26.26 58.21 28.49 56.81 C 26.17 56.41 23.85 55.98 21.56 55.44 C 25.86 54.08 30.76 55.84 34.58 52.88 C 32.89 52.83 31.20 52.80 29.51 52.77 C 24.16 44.07 17.29 36.45 11.78 27.86 C 18.66 27.51 25.54 27.81 32.42 27.55 C 32.49 24.16 31.65 19.32 35.69 17.83 M 35.21 20.05 C 35.19 22.58 35.17 25.11 35.16 27.64 C 44.66 29.18 54.35 29.53 63.87 28.01 C 65.03 25.39 66.16 22.76 67.20 20.09 C 56.60 18.62 45.85 19.66 35.21 20.05 M 33.62 36.71 C 34.90 39.49 36.80 41.96 39.53 43.44 C 39.17 40.06 36.36 38.16 33.62 36.71 M 61.53 49.73 C 64.25 48.56 66.76 46.95 69.05 45.08 C 66.19 45.96 63.37 47.26 61.53 49.73 M 61.90 50.71 C 62.20 51.33 62.80 52.56 63.10 53.18 C 64.80 52.98 66.51 52.78 68.22 52.58 C 66.12 51.93 64.01 51.31 61.90 50.71 M 48.70 60.56 C 45.08 61.47 42.33 58.27 39.55 56.54 C 37.77 59.40 36.83 62.64 36.72 66.00 C 40.73 66.18 44.77 65.98 48.75 66.53 C 52.15 67.31 55.36 69.06 58.95 68.80 C 65.23 68.63 71.53 68.85 77.81 68.48 C 79.96 68.63 81.19 66.78 82.43 65.35 C 75.65 66.43 68.80 67.16 61.92 66.55 C 68.16 65.84 75.03 66.90 80.53 63.23 C 78.33 60.91 76.66 57.11 73.00 57.09 C 69.18 56.98 65.71 55.40 62.11 54.33 C 57.34 55.71 53.50 59.23 48.70 60.56 M 37.24 68.23 C 40.58 69.88 44.74 69.96 47.58 67.28 C 44.11 67.20 40.63 67.49 37.24 68.23 Z" />
<path fill="#ffffff" opacity="1.00" d=" M 35.21 20.05 C 45.85 19.66 56.60 18.62 67.20 20.09 C 66.16 22.76 65.03 25.39 63.87 28.01 C 54.35 29.53 44.66 29.18 35.16 27.64 C 35.17 25.11 35.19 22.58 35.21 20.05 Z" />
<path fill="#ffffff" opacity="1.00" d=" M 37.26 29.79 C 44.90 31.03 52.69 33.18 60.39 30.98 C 60.26 38.27 59.29 45.59 60.47 52.85 C 56.33 55.30 52.14 57.67 47.89 59.94 C 45.25 58.39 42.73 56.49 39.76 55.59 C 37.02 55.37 34.40 56.56 31.82 57.31 L 32.24 56.23 C 34.37 54.69 36.64 52.56 39.49 52.89 C 42.72 53.22 45.83 54.18 48.98 54.92 C 47.26 53.69 45.54 52.47 43.82 51.24 C 46.61 51.10 49.40 50.98 52.19 50.83 C 50.33 50.16 48.46 49.51 46.59 48.86 C 46.56 48.10 46.53 47.34 46.50 46.58 C 42.68 48.72 38.44 49.91 34.13 50.56 C 34.96 49.82 35.79 49.08 36.63 48.34 C 31.49 44.51 26.79 40.10 22.63 35.23 C 28.98 38.59 34.88 42.72 41.25 46.04 C 40.56 40.49 39.13 35.06 37.26 29.79 Z" />
<path fill="#ffffff" opacity="1.00" d=" M 33.62 36.71 C 36.36 38.16 39.17 40.06 39.53 43.44 C 36.80 41.96 34.90 39.49 33.62 36.71 Z" />
<path fill="#ffffff" opacity="1.00" d=" M 61.53 49.73 C 63.37 47.26 66.19 45.96 69.05 45.08 C 66.76 46.95 64.25 48.56 61.53 49.73 Z" />
<path fill="#e3c1da" opacity="1.00" d=" M 61.90 50.71 C 64.01 51.31 66.12 51.93 68.22 52.58 C 66.51 52.78 64.80 52.98 63.10 53.18 C 62.80 52.56 62.20 51.33 61.90 50.71 Z" />
<path fill="#ffffff" opacity="1.00" d=" M 48.70 60.56 C 53.50 59.23 57.34 55.71 62.11 54.33 C 65.71 55.40 69.18 56.98 73.00 57.09 C 76.66 57.11 78.33 60.91 80.53 63.23 C 75.03 66.90 68.16 65.84 61.92 66.55 C 68.80 67.16 75.65 66.43 82.43 65.35 C 81.19 66.78 79.96 68.63 77.81 68.48 C 71.53 68.85 65.23 68.63 58.95 68.80 C 55.36 69.06 52.15 67.31 48.75 66.53 C 44.77 65.98 40.73 66.18 36.72 66.00 C 36.83 62.64 37.77 59.40 39.55 56.54 C 42.33 58.27 45.08 61.47 48.70 60.56 Z" />
<path fill="#e8c9e0" opacity="1.00" d=" M 33.79 59.65 C 34.60 58.73 37.34 57.61 37.01 59.83 C 36.63 61.82 34.23 61.29 33.79 59.65 Z" />
<path fill="#fefcfd" opacity="1.00" d=" M 37.24 68.23 C 40.63 67.49 44.11 67.20 47.58 67.28 C 44.74 69.96 40.58 69.88 37.24 68.23 Z" />
</svg>
