<?xml version="1.0" encoding="UTF-8" ?>
<!DOCTYPE svg PUBLIC "-//W3C//DTD SVG 1.1//EN" "http://www.w3.org/Graphics/SVG/1.1/DTD/svg11.dtd">
<svg width="100pt" height="100pt" viewBox="0 0 100 100" version="1.1" xmlns="http://www.w3.org/2000/svg">
<path fill="#ffffff" opacity="1.00" d=" M 42.46 12.61 C 60.89 8.25 81.23 20.57 86.41 38.71 C 91.91 54.40 84.75 73.01 70.91 81.88 C 61.53 87.92 49.45 90.23 38.76 86.42 C 20.06 81.13 7.61 59.74 12.97 40.94 C 16.23 26.81 28.25 15.35 42.46 12.61 M 45.41 15.59 C 37.44 16.59 29.92 20.56 24.51 26.49 C 13.24 38.20 12.21 57.97 22.23 70.78 C 31.52 83.75 50.22 88.46 64.57 81.52 C 79.41 74.90 87.99 57.09 83.62 41.39 C 79.68 24.81 62.31 12.93 45.41 15.59 Z" />
<path fill="#482b46" opacity="1.00" d=" M 45.41 15.59 C 62.31 12.93 79.68 24.81 83.62 41.39 C 87.99 57.09 79.41 74.90 64.57 81.52 C 50.22 88.46 31.52 83.75 22.23 70.78 C 12.21 57.97 13.24 38.20 24.51 26.49 C 29.92 20.56 37.44 16.59 45.41 15.59 M 21.18 42.47 C 21.97 45.11 22.65 47.81 23.70 50.37 C 24.53 52.72 26.87 53.91 28.54 55.58 C 31.27 58.14 32.41 61.93 35.07 64.54 C 39.84 67.66 45.48 69.00 50.54 71.57 C 54.29 69.15 58.69 67.96 62.25 65.24 C 63.17 65.72 64.09 66.21 65.01 66.70 C 66.53 63.67 67.83 60.52 69.66 57.67 C 71.20 55.22 73.95 53.91 75.66 51.63 C 77.21 48.78 77.85 45.55 78.82 42.47 C 72.68 39.74 67.48 35.43 61.76 31.98 C 57.78 34.63 54.02 37.58 50.10 40.30 C 46.12 37.56 42.29 34.62 38.24 31.98 C 32.52 35.43 27.32 39.75 21.18 42.47 Z" />
<path fill="#ffffff" opacity="1.00" d=" M 21.18 42.47 C 27.32 39.75 32.52 35.43 38.24 31.98 C 42.29 34.62 46.12 37.56 50.10 40.30 C 54.02 37.58 57.78 34.63 61.76 31.98 C 67.48 35.43 72.68 39.74 78.82 42.47 C 77.85 45.55 77.21 48.78 75.66 51.63 C 73.95 53.91 71.20 55.22 69.66 57.67 C 67.83 60.52 66.53 63.67 65.01 66.70 C 64.09 66.21 63.17 65.72 62.25 65.24 C 58.69 67.96 54.29 69.15 50.54 71.57 C 45.48 69.00 39.84 67.66 35.07 64.54 C 32.41 61.93 31.27 58.14 28.54 55.58 C 26.87 53.91 24.53 52.72 23.70 50.37 C 22.65 47.81 21.97 45.11 21.18 42.47 M 27.20 49.09 C 29.11 51.47 31.28 53.79 34.27 54.76 C 38.07 56.72 42.25 54.58 46.22 54.46 C 43.27 49.65 39.52 45.43 35.94 41.09 C 33.11 43.85 30.03 46.33 27.20 49.09 M 64.06 41.09 C 60.48 45.43 56.73 49.65 53.78 54.46 C 57.75 54.58 61.92 56.73 65.73 54.76 C 68.71 53.79 70.89 51.48 72.80 49.09 C 69.97 46.33 66.89 43.85 64.06 41.09 M 44.34 62.15 C 45.09 63.32 45.85 64.49 46.61 65.66 C 48.87 65.58 51.13 65.58 53.39 65.66 C 54.15 64.49 54.90 63.32 55.66 62.15 C 53.77 59.67 51.89 57.18 50.00 54.70 C 48.11 57.18 46.23 59.67 44.34 62.15 Z" />
<path fill="#482b46" opacity="1.00" d=" M 27.20 49.09 C 30.03 46.33 33.11 43.85 35.94 41.09 C 39.52 45.43 43.27 49.65 46.22 54.46 C 42.25 54.58 38.07 56.72 34.27 54.76 C 31.28 53.79 29.11 51.47 27.20 49.09 Z" />
<path fill="#482b46" opacity="1.00" d=" M 64.06 41.09 C 66.89 43.85 69.97 46.33 72.80 49.09 C 70.89 51.48 68.71 53.79 65.73 54.76 C 61.92 56.73 57.75 54.58 53.78 54.46 C 56.73 49.65 60.48 45.43 64.06 41.09 Z" />
<path fill="#482c47" opacity="1.00" d=" M 44.34 62.15 C 46.23 59.67 48.11 57.18 50.00 54.70 C 51.89 57.18 53.77 59.67 55.66 62.15 C 54.90 63.32 54.15 64.49 53.39 65.66 C 51.13 65.58 48.87 65.58 46.61 65.66 C 45.85 64.49 45.09 63.32 44.34 62.15 Z" />
</svg>
