<?xml version="1.0" encoding="UTF-8" ?>
<!DOCTYPE svg PUBLIC "-//W3C//DTD SVG 1.1//EN" "http://www.w3.org/Graphics/SVG/1.1/DTD/svg11.dtd">
<svg width="100pt" height="100pt" viewBox="0 0 100 100" version="1.1" xmlns="http://www.w3.org/2000/svg">
<path fill="#bab9b9" opacity="1.00" d=" M 44.21 27.27 C 45.84 23.01 47.41 18.71 49.74 14.76 C 51.85 18.76 53.47 22.98 54.98 27.23 C 56.08 30.91 60.02 32.24 63.19 33.62 C 67.95 31.38 72.40 28.35 77.69 27.37 C 77.08 30.92 76.30 34.47 74.71 37.72 C 72.19 41.99 73.94 47.14 75.37 51.46 C 78.39 54.94 81.99 57.89 84.89 61.48 C 83.45 62.23 82.00 62.96 80.57 63.72 C 84.42 69.03 88.27 74.34 91.99 79.74 C 85.41 79.70 78.83 79.72 72.25 79.71 C 71.47 81.02 70.71 82.34 69.92 83.65 C 66.10 82.85 62.44 81.48 58.99 79.66 C 56.00 81.04 53.01 82.40 50.03 83.79 C 47.04 82.38 44.03 81.02 41.03 79.64 C 37.23 81.76 33.11 83.27 28.76 83.70 C 28.63 82.26 28.51 80.83 28.39 79.40 C 21.67 79.53 14.93 79.59 8.21 79.33 C 11.62 73.84 15.57 68.73 19.11 63.33 C 17.78 62.74 16.44 62.16 15.11 61.58 C 17.91 57.85 21.50 54.86 24.70 51.52 C 26.07 48.30 26.63 44.72 26.72 41.23 C 25.11 36.72 22.91 32.37 22.40 27.52 C 27.72 28.43 32.57 30.83 36.96 33.90 C 39.60 31.99 42.97 30.53 44.21 27.27 M 45.11 31.93 C 42.20 33.08 39.07 34.43 37.97 37.64 C 34.11 34.29 29.76 31.49 24.84 30.01 C 25.93 33.76 27.81 37.26 28.60 41.10 C 28.76 44.97 28.18 49.00 26.61 52.56 C 24.18 55.43 21.10 57.69 18.64 60.54 C 20.33 61.16 22.03 61.77 23.73 62.38 C 20.37 67.06 16.95 71.71 13.95 76.64 C 19.48 76.62 25.02 76.62 30.55 76.78 C 30.79 78.33 31.04 79.89 31.29 81.44 C 34.63 80.35 37.87 78.96 40.96 77.29 C 43.91 78.65 46.77 80.38 50.00 80.95 C 53.28 80.49 56.15 78.70 59.11 77.33 C 62.19 78.89 65.38 80.23 68.67 81.32 C 68.96 79.82 69.26 78.32 69.54 76.83 C 75.06 76.60 80.58 76.62 86.10 76.64 C 83.07 71.69 79.50 67.11 76.12 62.40 C 77.88 61.79 79.64 61.18 81.40 60.56 C 78.95 57.68 75.90 55.37 73.53 52.43 C 71.92 48.94 71.29 44.94 71.50 41.11 C 72.35 37.31 74.20 33.81 75.23 30.06 C 70.32 31.67 65.93 34.46 62.03 37.80 C 61.22 33.87 57.01 33.65 54.25 31.75 C 52.47 27.75 51.70 23.38 49.78 19.43 C 47.68 23.38 46.37 27.66 45.11 31.93 Z" />
<path fill="#217a7a" opacity="1.00" d=" M 45.11 31.93 C 46.37 27.66 47.68 23.38 49.78 19.43 C 51.70 23.38 52.47 27.75 54.25 31.75 C 57.01 33.65 61.22 33.87 62.03 37.80 C 65.93 34.46 70.32 31.67 75.23 30.06 C 74.20 33.81 72.35 37.31 71.50 41.11 C 71.29 44.94 71.92 48.94 73.53 52.43 C 75.90 55.37 78.95 57.68 81.40 60.56 C 79.64 61.18 77.88 61.79 76.12 62.40 C 79.50 67.11 83.07 71.69 86.10 76.64 C 80.58 76.62 75.06 76.60 69.54 76.83 C 69.26 78.32 68.96 79.82 68.67 81.32 C 65.38 80.23 62.19 78.89 59.11 77.33 C 56.15 78.70 53.28 80.49 50.00 80.95 C 46.77 80.38 43.91 78.65 40.96 77.29 C 37.87 78.96 34.63 80.35 31.29 81.44 C 31.04 79.89 30.79 78.33 30.55 76.78 C 25.02 76.62 19.48 76.62 13.95 76.64 C 16.95 71.71 20.37 67.06 23.73 62.38 C 22.03 61.77 20.33 61.16 18.64 60.54 C 21.10 57.69 24.18 55.43 26.61 52.56 C 28.18 49.00 28.76 44.97 28.60 41.10 C 27.81 37.26 25.93 33.76 24.84 30.01 C 29.76 31.49 34.11 34.29 37.97 37.64 C 39.07 34.43 42.20 33.08 45.11 31.93 M 47.29 34.66 C 45.44 35.01 43.59 35.34 41.73 35.67 C 40.87 37.60 39.93 39.48 38.97 41.36 C 35.50 38.28 31.86 35.38 27.83 33.06 C 29.59 36.84 32.17 40.56 31.74 44.94 C 31.23 57.70 38.76 70.05 49.91 76.06 C 54.17 73.44 58.53 70.67 61.42 66.48 C 63.97 62.75 65.91 58.59 67.22 54.27 C 68.50 50.09 68.01 45.67 68.55 41.40 C 69.32 38.63 70.84 36.16 72.00 33.56 C 68.05 35.70 64.51 38.49 61.09 41.39 C 60.12 39.52 59.14 37.65 58.26 35.74 C 56.23 35.42 54.20 35.11 52.18 34.78 C 51.51 31.36 50.74 27.96 49.70 24.64 C 48.58 27.90 47.83 31.27 47.29 34.66 M 29.98 51.25 C 28.55 55.16 24.86 57.28 21.85 59.84 C 24.61 59.84 27.36 59.78 30.12 59.63 C 32.08 63.49 34.23 67.24 36.61 70.86 C 35.08 73.47 33.75 76.19 32.69 79.03 C 35.39 77.74 37.96 76.20 40.39 74.45 C 42.27 75.40 44.19 76.27 46.09 77.16 C 42.69 73.48 38.99 70.02 36.22 65.82 C 33.20 61.42 31.33 56.38 29.98 51.25 M 53.97 77.17 C 55.88 76.27 57.79 75.41 59.67 74.45 C 62.10 76.20 64.67 77.73 67.37 79.03 C 66.31 76.20 64.98 73.48 63.45 70.87 C 65.88 67.28 68.04 63.52 69.97 59.64 C 72.71 59.79 75.45 59.84 78.19 59.82 C 75.22 57.22 71.46 55.15 70.09 51.21 C 68.02 61.55 61.43 70.05 53.97 77.17 Z" />
<path fill="#ffffff" opacity="1.00" d=" M 47.29 34.66 C 47.83 31.27 48.58 27.90 49.70 24.64 C 50.74 27.96 51.51 31.36 52.18 34.78 C 54.20 35.11 56.23 35.42 58.26 35.74 C 59.14 37.65 60.12 39.52 61.09 41.39 C 64.51 38.49 68.05 35.70 72.00 33.56 C 70.84 36.16 69.32 38.63 68.55 41.40 C 68.01 45.67 68.50 50.09 67.22 54.27 C 65.91 58.59 63.97 62.75 61.42 66.48 C 58.53 70.67 54.17 73.44 49.91 76.06 C 38.76 70.05 31.23 57.70 31.74 44.94 C 32.17 40.56 29.59 36.84 27.83 33.06 C 31.86 35.38 35.50 38.28 38.97 41.36 C 39.93 39.48 40.87 37.60 41.73 35.67 C 43.59 35.34 45.44 35.01 47.29 34.66 M 40.11 43.04 C 38.40 44.12 36.43 44.65 34.56 45.36 C 34.56 56.13 40.87 66.16 49.97 71.68 C 58.70 66.16 65.22 56.66 65.43 46.13 C 62.80 44.23 59.37 43.40 57.42 40.62 C 54.92 36.41 49.36 37.46 45.28 37.98 C 43.30 39.38 42.09 41.63 40.11 43.04 Z" />
<path fill="#096c6c" opacity="1.00" d=" M 40.11 43.04 C 42.09 41.63 43.30 39.38 45.28 37.98 C 49.36 37.46 54.92 36.41 57.42 40.62 C 59.37 43.40 62.80 44.23 65.43 46.13 C 65.22 56.66 58.70 66.16 49.97 71.68 C 40.87 66.16 34.56 56.13 34.56 45.36 C 36.43 44.65 38.40 44.12 40.11 43.04 M 45.41 41.46 C 42.95 43.91 40.18 46.02 37.05 47.56 C 37.98 56.08 42.93 63.68 49.94 68.49 C 56.88 63.64 62.01 56.18 62.93 47.64 C 59.29 45.95 56.45 43.12 53.46 40.53 C 50.98 39.36 47.40 39.28 45.41 41.46 Z" />
<path fill="#ffffff" opacity="1.00" d=" M 45.41 41.46 C 47.40 39.28 50.98 39.36 53.46 40.53 C 56.45 43.12 59.29 45.95 62.93 47.64 C 62.01 56.18 56.88 63.64 49.94 68.49 C 42.93 63.68 37.98 56.08 37.05 47.56 C 40.18 46.02 42.95 43.91 45.41 41.46 Z" />
<path fill="#ffffff" opacity="1.00" d=" M 29.98 51.25 C 31.33 56.38 33.20 61.42 36.22 65.82 C 38.99 70.02 42.69 73.48 46.09 77.16 C 44.19 76.27 42.27 75.40 40.39 74.45 C 37.96 76.20 35.39 77.74 32.69 79.03 C 33.75 76.19 35.08 73.47 36.61 70.86 C 34.23 67.24 32.08 63.49 30.12 59.63 C 27.36 59.78 24.61 59.84 21.85 59.84 C 24.86 57.28 28.55 55.16 29.98 51.25 Z" />
<path fill="#ffffff" opacity="1.00" d=" M 53.97 77.17 C 61.43 70.05 68.02 61.55 70.09 51.21 C 71.46 55.15 75.22 57.22 78.19 59.82 C 75.45 59.84 72.71 59.79 69.97 59.64 C 68.04 63.52 65.88 67.28 63.45 70.87 C 64.98 73.48 66.31 76.20 67.37 79.03 C 64.67 77.73 62.10 76.20 59.67 74.45 C 57.79 75.41 55.88 76.27 53.97 77.17 Z" />
</svg>
