<?xml version="1.0" encoding="UTF-8" ?>
<!DOCTYPE svg PUBLIC "-//W3C//DTD SVG 1.1//EN" "http://www.w3.org/Graphics/SVG/1.1/DTD/svg11.dtd">
<svg width="100pt" height="100pt" viewBox="0 0 100 100" version="1.1" xmlns="http://www.w3.org/2000/svg">
<path fill="#b8bdbc" opacity="1.00" d=" M 25.40 14.48 C 41.80 14.51 58.20 14.51 74.60 14.48 C 79.67 29.15 84.92 43.76 89.89 58.46 C 87.57 59.97 85.27 61.49 82.97 63.00 C 83.77 64.27 84.58 65.54 85.37 66.82 C 82.84 67.23 80.30 67.62 77.77 68.05 C 79.01 71.77 80.28 75.49 81.23 79.30 C 77.33 78.11 73.53 76.64 69.69 75.27 C 68.07 78.70 66.59 82.19 64.97 85.61 C 63.55 83.24 62.22 80.81 60.90 78.39 C 58.79 80.91 56.66 83.40 54.45 85.83 C 51.40 85.00 48.23 84.30 45.61 82.41 C 33.79 74.41 22.03 66.32 10.11 58.47 C 15.08 43.76 20.33 29.15 25.40 14.48 M 23.48 29.59 C 20.29 38.76 17.06 47.92 13.86 57.08 C 25.70 65.49 37.97 73.27 49.90 81.53 C 51.29 80.65 52.67 79.75 54.06 78.87 C 54.47 79.87 54.88 80.87 55.29 81.87 C 57.27 79.51 59.25 77.16 61.32 74.88 C 62.46 76.93 63.59 78.98 64.73 81.04 C 66.06 78.35 67.41 75.67 68.83 73.03 C 71.92 74.02 75.01 75.04 78.10 76.05 C 77.26 73.05 76.41 70.05 75.63 67.03 C 77.68 66.47 79.74 65.93 81.80 65.40 C 80.91 64.26 80.01 63.12 79.12 61.98 C 81.47 60.36 83.82 58.73 86.15 57.09 C 81.48 43.93 76.90 30.75 72.21 17.61 C 61.14 17.55 50.08 17.80 39.01 17.59 C 35.39 17.59 31.73 17.34 28.14 17.89 C 25.76 21.40 24.92 25.65 23.48 29.59 Z" />
<path fill="#c40f24" opacity="1.00" d=" M 23.48 29.59 C 24.92 25.65 25.76 21.40 28.14 17.89 C 31.73 17.34 35.39 17.59 39.01 17.59 C 50.08 17.80 61.14 17.55 72.21 17.61 C 76.90 30.75 81.48 43.93 86.15 57.09 C 83.82 58.73 81.47 60.36 79.12 61.98 C 80.01 63.12 80.91 64.26 81.80 65.40 C 79.74 65.93 77.68 66.47 75.63 67.03 C 76.41 70.05 77.26 73.05 78.10 76.05 C 75.01 75.04 71.92 74.02 68.83 73.03 C 67.41 75.67 66.06 78.35 64.73 81.04 C 63.59 78.98 62.46 76.93 61.32 74.88 C 59.25 77.16 57.27 79.51 55.29 81.87 C 54.88 80.87 54.47 79.87 54.06 78.87 C 52.67 79.75 51.29 80.65 49.90 81.53 C 37.97 73.27 25.70 65.49 13.86 57.08 C 17.06 47.92 20.29 38.76 23.48 29.59 M 59.14 18.78 C 57.83 23.85 55.53 29.26 50.40 31.49 C 45.48 33.99 40.48 30.42 35.69 29.34 C 31.65 27.97 27.02 31.13 26.35 35.22 C 26.04 37.81 27.94 39.92 29.07 42.06 C 30.93 39.68 32.03 36.88 32.89 34.02 C 35.84 34.62 38.70 35.56 41.62 36.30 C 47.65 38.00 54.68 35.25 58.01 29.96 C 60.15 26.62 59.80 22.50 59.14 18.78 M 37.57 27.78 C 38.69 28.23 39.81 28.68 40.93 29.13 C 43.57 27.66 46.16 25.95 49.14 25.24 C 50.81 25.22 52.31 26.10 53.87 26.61 C 54.22 26.16 54.94 25.28 55.30 24.84 C 53.91 23.49 52.57 22.06 50.97 20.95 C 46.03 22.12 41.64 24.84 37.57 27.78 M 61.67 23.93 C 61.47 24.85 61.27 25.77 61.07 26.70 C 65.92 27.56 66.54 33.08 68.16 36.86 C 69.79 35.74 71.43 34.63 73.14 33.62 C 69.33 41.88 59.37 42.93 52.61 47.70 C 47.58 51.09 46.39 57.45 43.15 62.21 C 42.58 63.34 41.36 63.73 40.20 63.88 C 38.50 62.57 37.57 60.57 36.48 58.78 C 38.43 59.47 40.37 60.23 42.32 60.93 C 37.51 57.04 32.43 53.15 29.30 47.68 C 28.46 46.56 28.90 45.19 29.06 43.94 C 33.60 49.00 37.51 54.70 43.14 58.70 C 43.81 57.50 44.47 56.31 45.13 55.11 C 40.99 51.89 37.37 48.06 34.17 43.91 C 35.88 41.91 37.54 39.88 39.16 37.81 C 37.98 37.26 36.81 36.72 35.63 36.17 C 33.21 39.59 29.76 42.04 27.09 45.20 C 28.25 49.56 32.10 52.38 34.17 56.24 C 34.77 60.04 33.80 64.36 36.28 67.66 C 38.29 70.87 43.41 72.21 46.16 69.19 C 49.95 64.61 50.53 58.09 54.85 53.84 C 60.38 48.51 68.57 46.56 73.27 40.26 C 75.01 38.03 74.84 35.07 74.99 32.41 C 73.38 32.32 71.78 32.25 70.17 32.20 C 68.50 28.74 66.56 25.42 64.34 22.30 C 63.67 22.71 62.34 23.52 61.67 23.93 M 44.63 30.82 C 47.22 30.74 49.79 30.06 51.45 27.93 C 49.02 28.46 46.69 29.41 44.63 30.82 M 52.07 37.14 C 48.91 38.67 45.31 38.62 41.88 38.78 C 40.60 40.76 39.30 42.72 37.99 44.69 C 40.55 47.29 43.20 49.82 45.95 52.24 C 50.53 45.19 58.71 42.54 65.85 38.96 C 64.82 35.94 63.86 32.84 62.03 30.19 C 58.35 31.98 55.80 35.43 52.07 37.14 M 69.50 48.10 C 68.78 52.88 67.72 57.61 65.74 62.05 C 61.43 61.60 57.18 60.74 53.06 59.43 C 52.65 60.33 52.24 61.24 51.83 62.15 C 52.77 62.97 53.72 63.79 54.67 64.61 C 54.29 64.92 53.51 65.52 53.12 65.83 C 57.85 66.19 62.77 66.84 67.36 65.30 C 72.31 59.33 73.09 50.89 72.71 43.40 C 71.47 44.82 69.69 46.07 69.50 48.10 M 54.44 56.79 C 57.49 57.49 60.62 58.78 63.79 58.14 C 65.19 55.15 65.74 51.87 66.31 48.64 C 61.91 50.64 57.76 53.25 54.44 56.79 M 75.05 49.88 C 74.21 55.70 73.65 62.12 69.79 66.84 C 64.02 69.69 57.21 68.29 51.30 66.54 C 51.07 69.29 50.73 72.02 50.26 74.74 C 52.39 73.62 54.56 72.57 56.77 71.63 C 56.64 73.40 56.49 75.17 56.33 76.94 C 58.06 74.95 59.86 73.00 61.76 71.17 C 62.79 72.79 63.79 74.44 64.79 76.09 C 65.61 74.25 66.45 72.42 67.30 70.60 C 69.81 71.20 72.29 71.90 74.76 72.67 C 74.14 70.38 73.59 68.07 73.14 65.74 C 74.68 65.29 76.22 64.85 77.77 64.43 C 77.00 62.99 76.23 61.56 75.49 60.12 C 76.22 59.36 76.96 58.60 77.70 57.84 C 77.80 55.80 78.14 53.78 78.56 51.79 C 77.39 51.15 76.22 50.51 75.05 49.88 Z" />
<path fill="#ffffff" opacity="1.00" d=" M 59.14 18.78 C 59.80 22.50 60.15 26.62 58.01 29.96 C 54.68 35.25 47.65 38.00 41.62 36.30 C 38.70 35.56 35.84 34.62 32.89 34.02 C 32.03 36.88 30.93 39.68 29.07 42.06 C 27.94 39.92 26.04 37.81 26.35 35.22 C 27.02 31.13 31.65 27.97 35.69 29.34 C 40.48 30.42 45.48 33.99 50.40 31.49 C 55.53 29.26 57.83 23.85 59.14 18.78 Z" />
<path fill="#ffffff" opacity="1.00" d=" M 37.57 27.78 C 41.64 24.84 46.03 22.12 50.97 20.95 C 52.57 22.06 53.91 23.49 55.30 24.84 C 54.94 25.28 54.22 26.16 53.87 26.61 C 52.31 26.10 50.81 25.22 49.14 25.24 C 46.16 25.95 43.57 27.66 40.93 29.13 C 39.81 28.68 38.69 28.23 37.57 27.78 Z" />
<path fill="#ffffff" opacity="1.00" d=" M 61.67 23.93 C 62.34 23.52 63.67 22.71 64.34 22.30 C 66.56 25.42 68.50 28.74 70.17 32.20 C 71.78 32.25 73.38 32.32 74.99 32.41 C 74.84 35.07 75.01 38.03 73.27 40.26 C 68.57 46.56 60.38 48.51 54.85 53.84 C 50.53 58.09 49.95 64.61 46.16 69.19 C 43.41 72.21 38.29 70.87 36.28 67.66 C 33.80 64.36 34.77 60.04 34.17 56.24 C 32.10 52.38 28.25 49.56 27.09 45.20 C 29.76 42.04 33.21 39.59 35.63 36.17 C 36.81 36.72 37.98 37.26 39.16 37.81 C 37.54 39.88 35.88 41.91 34.17 43.91 C 37.37 48.06 40.99 51.89 45.13 55.11 C 44.47 56.31 43.81 57.50 43.14 58.70 C 37.51 54.70 33.60 49.00 29.06 43.94 C 28.90 45.19 28.46 46.56 29.30 47.68 C 32.43 53.15 37.51 57.04 42.32 60.93 C 40.37 60.23 38.43 59.47 36.48 58.78 C 37.57 60.57 38.50 62.57 40.20 63.88 C 41.36 63.73 42.58 63.34 43.15 62.21 C 46.39 57.45 47.58 51.09 52.61 47.70 C 59.37 42.93 69.33 41.88 73.14 33.62 C 71.43 34.63 69.79 35.74 68.16 36.86 C 66.54 33.08 65.92 27.56 61.07 26.70 C 61.27 25.77 61.47 24.85 61.67 23.93 Z" />
<path fill="#ffffff" opacity="1.00" d=" M 44.63 30.82 C 46.69 29.41 49.02 28.46 51.45 27.93 C 49.79 30.06 47.22 30.74 44.63 30.82 Z" />
<path fill="#ffffff" opacity="1.00" d=" M 52.07 37.14 C 55.80 35.43 58.35 31.98 62.03 30.19 C 63.86 32.84 64.82 35.94 65.85 38.96 C 58.71 42.54 50.53 45.19 45.95 52.24 C 43.20 49.82 40.55 47.29 37.99 44.69 C 39.30 42.72 40.60 40.76 41.88 38.78 C 45.31 38.62 48.91 38.67 52.07 37.14 Z" />
<path fill="#ffffff" opacity="1.00" d=" M 69.50 48.10 C 69.69 46.07 71.47 44.82 72.71 43.40 C 73.09 50.89 72.31 59.33 67.36 65.30 C 62.77 66.84 57.85 66.19 53.12 65.83 C 53.51 65.52 54.29 64.92 54.67 64.61 C 53.72 63.79 52.77 62.97 51.83 62.15 C 52.24 61.24 52.65 60.33 53.06 59.43 C 57.18 60.74 61.43 61.60 65.74 62.05 C 67.72 57.61 68.78 52.88 69.50 48.10 Z" />
<path fill="#ffffff" opacity="1.00" d=" M 54.44 56.79 C 57.76 53.25 61.91 50.64 66.31 48.64 C 65.74 51.87 65.19 55.15 63.79 58.14 C 60.62 58.78 57.49 57.49 54.44 56.79 Z" />
<path fill="#ffffff" opacity="1.00" d=" M 75.05 49.88 C 76.22 50.51 77.39 51.15 78.56 51.79 C 78.14 53.78 77.80 55.80 77.70 57.84 C 76.96 58.60 76.22 59.36 75.49 60.12 C 76.23 61.56 77.00 62.99 77.77 64.43 C 76.22 64.85 74.68 65.29 73.14 65.74 C 73.59 68.07 74.14 70.38 74.76 72.67 C 72.29 71.90 69.81 71.20 67.30 70.60 C 66.45 72.42 65.61 74.25 64.79 76.09 C 63.79 74.44 62.79 72.79 61.76 71.17 C 59.86 73.00 58.06 74.95 56.33 76.94 C 56.49 75.17 56.64 73.40 56.77 71.63 C 54.56 72.57 52.39 73.62 50.26 74.74 C 50.73 72.02 51.07 69.29 51.30 66.54 C 57.21 68.29 64.02 69.69 69.79 66.84 C 73.65 62.12 74.21 55.70 75.05 49.88 Z" />
</svg>
