<?xml version="1.0" encoding="UTF-8" ?>
<!DOCTYPE svg PUBLIC "-//W3C//DTD SVG 1.1//EN" "http://www.w3.org/Graphics/SVG/1.1/DTD/svg11.dtd">
<svg width="100pt" height="100pt" viewBox="0 0 100 100" version="1.1" xmlns="http://www.w3.org/2000/svg">
<path fill="#b9b9b9" opacity="1.00" d=" M 34.71 23.66 C 39.80 17.67 44.93 11.70 50.09 5.77 C 62.97 20.36 75.58 35.20 88.32 49.92 C 82.83 54.78 83.48 63.13 77.97 67.96 C 74.19 72.12 68.09 73.10 64.58 77.54 C 59.77 83.13 55.09 88.84 50.09 94.27 C 37.43 79.53 24.62 64.93 12.05 50.12 C 15.40 46.63 16.78 41.99 18.79 37.72 C 22.29 31.14 30.29 29.35 34.71 23.66 M 37.49 25.52 C 33.30 30.52 26.26 32.05 22.46 37.47 C 19.87 41.36 18.89 46.04 16.94 50.25 C 21.77 57.85 28.54 63.88 34.23 70.81 C 39.53 76.87 44.60 83.14 50.07 89.05 C 54.32 84.94 57.82 80.16 61.74 75.76 C 65.44 71.43 71.62 70.62 75.50 66.50 C 80.41 62.15 80.27 55.04 83.58 49.71 C 75.11 39.16 65.91 29.21 57.19 18.86 C 54.91 16.14 52.55 13.51 50.07 10.97 C 45.65 15.63 41.70 20.69 37.49 25.52 Z" />
<path fill="#8a1b6c" opacity="1.00" d=" M 37.49 25.52 C 41.70 20.69 45.65 15.63 50.07 10.97 C 52.55 13.51 54.91 16.14 57.19 18.86 C 65.91 29.21 75.11 39.16 83.58 49.71 C 80.27 55.04 80.41 62.15 75.50 66.50 C 71.62 70.62 65.44 71.43 61.74 75.76 C 57.82 80.16 54.32 84.94 50.07 89.05 C 44.60 83.14 39.53 76.87 34.23 70.81 C 28.54 63.88 21.77 57.85 16.94 50.25 C 18.89 46.04 19.87 41.36 22.46 37.47 C 26.26 32.05 33.30 30.52 37.49 25.52 M 23.41 41.39 C 19.91 48.91 23.89 58.31 31.33 61.67 C 31.16 58.46 30.30 54.95 32.02 52.00 C 34.49 47.37 40.88 46.88 43.16 42.08 C 45.15 38.87 43.78 33.40 48.21 32.03 C 55.74 31.48 63.35 33.37 70.03 36.83 C 62.10 30.06 51.07 28.83 41.07 30.06 C 33.88 30.85 26.91 34.99 23.41 41.39 M 69.63 38.93 C 69.36 40.79 69.28 42.71 68.66 44.50 C 66.20 47.41 62.68 49.70 61.73 53.62 C 60.66 57.95 61.43 63.42 57.22 66.27 C 51.08 71.59 42.70 68.18 35.88 66.38 C 39.09 68.18 42.52 69.76 46.24 70.01 C 45.02 70.32 43.80 70.69 42.61 71.12 C 46.68 73.20 51.29 73.22 55.75 73.03 C 56.10 72.47 56.79 71.37 57.14 70.81 C 65.70 71.23 75.30 66.40 77.37 57.54 C 78.91 50.34 75.03 43.43 69.63 38.93 M 46.31 39.80 C 44.83 41.91 43.37 44.04 41.92 46.17 C 43.56 47.00 45.19 47.84 46.82 48.68 C 48.17 46.59 49.52 44.51 50.88 42.43 C 49.40 41.47 47.80 40.74 46.31 39.80 M 51.95 42.78 C 50.82 45.05 49.76 47.36 48.83 49.71 C 50.91 50.18 53.00 50.64 55.09 51.10 C 55.13 48.72 55.19 46.35 55.26 43.97 C 54.15 43.60 53.04 43.21 51.95 42.78 M 57.06 45.12 C 57.14 47.69 57.14 50.27 57.50 52.82 C 57.88 52.90 58.63 53.06 59.01 53.14 C 60.61 51.35 61.76 49.23 62.97 47.18 C 61.00 46.48 59.03 45.80 57.06 45.12 Z" />
<path fill="#ffffff" opacity="1.00" d=" M 23.41 41.39 C 26.91 34.99 33.88 30.85 41.07 30.06 C 51.07 28.83 62.10 30.06 70.03 36.83 C 63.35 33.37 55.74 31.48 48.21 32.03 C 43.78 33.40 45.15 38.87 43.16 42.08 C 40.88 46.88 34.49 47.37 32.02 52.00 C 30.30 54.95 31.16 58.46 31.33 61.67 C 23.89 58.31 19.91 48.91 23.41 41.39 M 30.12 38.18 C 25.50 41.26 24.45 47.19 25.60 52.30 C 26.72 52.60 27.53 51.66 28.41 51.15 C 27.70 50.94 26.28 50.52 25.57 50.31 C 25.90 46.99 26.04 43.22 28.70 40.81 C 32.05 37.71 35.45 34.30 40.04 33.18 C 40.18 35.87 40.31 38.57 40.52 41.26 C 41.27 37.82 42.22 34.42 43.84 31.28 C 38.62 32.12 33.72 34.21 30.12 38.18 Z" />
<path fill="#8a1b6c" opacity="1.00" d=" M 30.12 38.18 C 33.72 34.21 38.62 32.12 43.84 31.28 C 42.22 34.42 41.27 37.82 40.52 41.26 C 40.31 38.57 40.18 35.87 40.04 33.18 C 35.45 34.30 32.05 37.71 28.70 40.81 C 26.04 43.22 25.90 46.99 25.57 50.31 C 26.28 50.52 27.70 50.94 28.41 51.15 C 27.53 51.66 26.72 52.60 25.60 52.30 C 24.45 47.19 25.50 41.26 30.12 38.18 Z" />
<path fill="#ffffff" opacity="1.00" d=" M 69.63 38.93 C 75.03 43.43 78.91 50.34 77.37 57.54 C 75.30 66.40 65.70 71.23 57.14 70.81 C 53.50 70.62 49.88 70.22 46.24 70.01 C 42.52 69.76 39.09 68.18 35.88 66.38 C 42.70 68.18 51.08 71.59 57.22 66.27 C 61.43 63.42 60.66 57.95 61.73 53.62 C 62.68 49.70 66.20 47.41 68.66 44.50 C 69.28 42.71 69.36 40.79 69.63 38.93 M 63.40 54.80 C 66.35 52.23 69.22 49.37 73.01 48.07 C 72.77 50.02 72.46 51.97 72.04 53.89 C 72.99 54.71 73.92 55.53 74.88 56.35 C 74.35 58.01 73.83 59.67 73.36 61.35 C 74.15 59.84 76.08 58.36 75.23 56.49 C 74.02 53.05 74.69 49.08 72.15 46.13 C 68.91 48.68 64.80 50.62 63.40 54.80 M 66.08 64.90 C 65.60 64.53 64.65 63.78 64.17 63.41 C 63.37 64.86 62.57 66.32 61.79 67.79 C 65.66 66.59 69.41 64.87 72.40 62.07 C 70.26 62.94 68.16 63.91 66.08 64.90 Z" />
<path fill="#ffffff" opacity="1.00" d=" M 46.31 39.80 C 47.80 40.74 49.40 41.47 50.88 42.43 C 49.52 44.51 48.17 46.59 46.82 48.68 C 45.19 47.84 43.56 47.00 41.92 46.17 C 43.37 44.04 44.83 41.91 46.31 39.80 Z" />
<path fill="#ffffff" opacity="1.00" d=" M 51.95 42.78 C 53.04 43.21 54.15 43.60 55.26 43.97 C 55.19 46.35 55.13 48.72 55.09 51.10 C 53.00 50.64 50.91 50.18 48.83 49.71 C 49.76 47.36 50.82 45.05 51.95 42.78 Z" />
<path fill="#ffffff" opacity="1.00" d=" M 57.06 45.12 C 59.03 45.80 61.00 46.48 62.97 47.18 C 61.76 49.23 60.61 51.35 59.01 53.14 C 58.63 53.06 57.88 52.90 57.50 52.82 C 57.14 50.27 57.14 47.69 57.06 45.12 Z" />
<path fill="#8a1b6c" opacity="1.00" d=" M 63.40 54.80 C 64.80 50.62 68.91 48.68 72.15 46.13 C 74.69 49.08 74.02 53.05 75.23 56.49 C 76.08 58.36 74.15 59.84 73.36 61.35 C 73.83 59.67 74.35 58.01 74.88 56.35 C 73.92 55.53 72.99 54.71 72.04 53.89 C 72.46 51.97 72.77 50.02 73.01 48.07 C 69.22 49.37 66.35 52.23 63.40 54.80 Z" />
<path fill="#b876a6" opacity="1.00" d=" M 66.08 64.90 C 68.16 63.91 70.26 62.94 72.40 62.07 C 69.41 64.87 65.66 66.59 61.79 67.79 C 62.57 66.32 63.37 64.86 64.17 63.41 C 64.65 63.78 65.60 64.53 66.08 64.90 Z" />
<path fill="#b876a6" opacity="1.00" d=" M 46.24 70.01 C 49.88 70.22 53.50 70.62 57.14 70.81 C 56.79 71.37 56.10 72.47 55.75 73.03 C 51.29 73.22 46.68 73.20 42.61 71.12 C 43.80 70.69 45.02 70.32 46.24 70.01 Z" />
</svg>
