<?xml version="1.0" encoding="UTF-8" ?>
<!DOCTYPE svg PUBLIC "-//W3C//DTD SVG 1.1//EN" "http://www.w3.org/Graphics/SVG/1.1/DTD/svg11.dtd">
<svg width="100pt" height="100pt" viewBox="0 0 100 100" version="1.1" xmlns="http://www.w3.org/2000/svg">
<path fill="#ffffff" opacity="1.00" d=" M 42.35 13.19 C 52.70 11.00 63.98 13.18 72.53 19.49 C 85.95 28.95 92.36 47.82 86.11 63.25 C 79.83 82.00 57.15 93.67 38.43 86.53 C 21.75 81.34 10.34 63.58 12.55 46.25 C 14.04 30.32 26.66 16.31 42.35 13.19 M 33.28 20.04 C 36.47 22.43 40.01 24.33 43.16 26.78 C 44.66 27.79 44.69 29.76 45.27 31.31 C 39.61 28.98 34.67 25.27 29.19 22.58 C 24.34 26.82 20.37 31.98 17.86 37.93 C 21.94 45.27 25.96 52.64 30.11 59.94 C 34.07 58.03 38.04 56.04 42.36 55.08 C 39.67 58.73 35.73 61.06 32.26 63.88 C 35.49 69.99 39.40 75.75 42.07 82.15 C 37.81 76.83 34.85 70.62 30.76 65.17 C 26.65 71.42 30.54 80.33 37.38 82.59 C 43.35 84.75 50.14 86.11 56.36 84.27 C 60.85 77.79 64.13 70.51 68.26 63.79 C 65.73 61.92 63.15 60.12 60.52 58.40 C 60.41 57.22 60.30 56.04 60.19 54.87 C 63.77 56.14 67.27 57.63 70.77 59.09 C 74.19 53.04 77.54 46.95 80.97 40.90 C 81.53 39.56 82.76 38.14 82.12 36.61 C 80.10 31.08 75.88 26.75 71.70 22.75 C 66.66 25.41 61.86 28.49 56.89 31.27 C 56.87 30.45 56.83 28.81 56.81 27.99 C 60.32 25.34 63.86 22.73 67.32 20.00 C 56.87 14.21 43.72 14.26 33.28 20.04 M 16.32 42.65 C 14.93 50.35 15.84 58.31 19.02 65.46 C 22.10 63.97 25.15 62.43 28.20 60.88 C 24.35 54.73 20.71 48.43 16.32 42.65 M 72.73 60.01 C 75.83 61.48 78.97 62.89 82.12 64.27 C 85.07 57.41 85.53 49.81 84.30 42.51 C 79.87 47.95 76.51 54.13 72.73 60.01 M 69.66 64.73 C 65.63 71.22 61.40 77.59 57.67 84.25 C 63.60 82.52 70.71 80.51 73.78 74.63 C 75.75 70.68 72.46 67.13 69.66 64.73 Z" />
<path fill="#482b46" opacity="1.00" d=" M 33.28 20.04 C 43.72 14.26 56.87 14.21 67.32 20.00 C 63.86 22.73 60.32 25.34 56.81 27.99 C 56.83 28.81 56.87 30.45 56.89 31.27 C 61.86 28.49 66.66 25.41 71.70 22.75 C 75.88 26.75 80.10 31.08 82.12 36.61 C 82.76 38.14 81.53 39.56 80.97 40.90 C 77.54 46.95 74.19 53.04 70.77 59.09 C 67.27 57.63 63.77 56.14 60.19 54.87 C 60.30 56.04 60.41 57.22 60.52 58.40 C 63.15 60.12 65.73 61.92 68.26 63.79 C 64.13 70.51 60.85 77.79 56.36 84.27 C 50.14 86.11 43.35 84.75 37.38 82.59 C 30.54 80.33 26.65 71.42 30.76 65.17 C 34.85 70.62 37.81 76.83 42.07 82.15 C 39.40 75.75 35.49 69.99 32.26 63.88 C 35.73 61.06 39.67 58.73 42.36 55.08 C 38.04 56.04 34.07 58.03 30.11 59.94 C 25.96 52.64 21.94 45.27 17.86 37.93 C 20.37 31.98 24.34 26.82 29.19 22.58 C 34.67 25.27 39.61 28.98 45.27 31.31 C 44.69 29.76 44.66 27.79 43.16 26.78 C 40.01 24.33 36.47 22.43 33.28 20.04 M 46.75 17.81 C 46.76 19.60 46.79 21.39 46.85 23.19 C 49.65 23.18 52.46 23.19 55.27 23.17 C 55.27 21.43 55.26 19.69 55.22 17.95 C 52.39 17.86 49.57 17.82 46.75 17.81 M 48.56 24.02 C 48.38 26.92 48.49 29.85 47.92 32.71 C 44.67 35.78 39.79 36.04 35.86 37.95 C 36.94 39.04 38.04 40.11 39.14 41.19 C 43.20 40.05 47.09 38.30 51.26 37.56 C 55.24 37.92 58.64 40.87 62.73 40.92 C 63.75 40.03 66.07 39.06 64.49 37.56 C 61.29 35.80 57.35 35.80 54.29 33.78 C 52.86 31.28 53.71 28.02 52.91 25.27 C 51.99 23.72 50.04 24.25 48.56 24.02 M 44.28 41.39 C 44.83 50.61 44.70 59.85 45.09 69.08 C 45.18 74.06 48.02 78.32 50.78 82.25 C 53.40 78.24 56.35 74.03 56.36 69.02 C 56.62 59.83 57.45 50.67 57.57 41.47 C 55.67 40.71 53.79 39.94 51.90 39.15 C 51.71 50.46 51.60 61.76 51.26 73.06 C 50.04 61.81 50.24 50.46 49.86 39.16 C 48.00 39.91 46.14 40.65 44.28 41.39 Z" />
<path fill="#ffffff" opacity="1.00" d=" M 46.75 17.81 C 49.57 17.82 52.39 17.86 55.22 17.95 C 55.26 19.69 55.27 21.43 55.27 23.17 C 52.46 23.19 49.65 23.18 46.85 23.19 C 46.79 21.39 46.76 19.60 46.75 17.81 Z" />
<path fill="#ffffff" opacity="1.00" d=" M 48.56 24.02 C 50.04 24.25 51.99 23.72 52.91 25.27 C 53.71 28.02 52.86 31.28 54.29 33.78 C 57.35 35.80 61.29 35.80 64.49 37.56 C 66.07 39.06 63.75 40.03 62.73 40.92 C 58.64 40.87 55.24 37.92 51.26 37.56 C 47.09 38.30 43.20 40.05 39.14 41.19 C 38.04 40.11 36.94 39.04 35.86 37.95 C 39.79 36.04 44.67 35.78 47.92 32.71 C 48.49 29.85 48.38 26.92 48.56 24.02 Z" />
<path fill="#ffffff" opacity="1.00" d=" M 44.28 41.39 C 46.14 40.65 48.00 39.91 49.86 39.16 C 50.24 50.46 50.04 61.81 51.26 73.06 C 51.60 61.76 51.71 50.46 51.90 39.15 C 53.79 39.94 55.67 40.71 57.57 41.47 C 57.45 50.67 56.62 59.83 56.36 69.02 C 56.35 74.03 53.40 78.24 50.78 82.25 C 48.02 78.32 45.18 74.06 45.09 69.08 C 44.70 59.85 44.83 50.61 44.28 41.39 Z" />
<path fill="#482b46" opacity="1.00" d=" M 16.32 42.65 C 20.71 48.43 24.35 54.73 28.20 60.88 C 25.15 62.43 22.10 63.97 19.02 65.46 C 15.84 58.31 14.93 50.35 16.32 42.65 Z" />
<path fill="#482b46" opacity="1.00" d=" M 72.73 60.01 C 76.51 54.13 79.87 47.95 84.30 42.51 C 85.53 49.81 85.07 57.41 82.12 64.27 C 78.97 62.89 75.83 61.48 72.73 60.01 Z" />
<path fill="#482b46" opacity="1.00" d=" M 69.66 64.73 C 72.46 67.13 75.75 70.68 73.78 74.63 C 70.71 80.51 63.60 82.52 57.67 84.25 C 61.40 77.59 65.63 71.22 69.66 64.73 Z" />
</svg>
