<?xml version="1.0" encoding="UTF-8" ?>
<!DOCTYPE svg PUBLIC "-//W3C//DTD SVG 1.1//EN" "http://www.w3.org/Graphics/SVG/1.1/DTD/svg11.dtd">
<svg width="100pt" height="100pt" viewBox="0 0 100 100" version="1.1" xmlns="http://www.w3.org/2000/svg">
<path fill="#bab9b9" opacity="1.00" d=" M 42.13 30.54 C 44.58 27.12 46.97 23.65 49.42 20.23 C 51.96 23.53 54.34 26.96 56.84 30.29 C 61.44 28.63 65.72 31.53 69.90 33.03 C 72.46 34.29 75.88 34.87 77.17 37.75 C 79.93 43.18 82.16 48.87 84.96 54.29 C 82.74 56.35 80.51 58.39 78.27 60.42 C 82.88 66.84 87.45 73.30 92.05 79.73 C 81.34 79.71 70.63 79.75 59.92 79.64 C 55.29 79.39 52.60 83.92 49.33 86.48 C 46.20 83.90 43.55 79.61 39.06 79.62 C 28.65 79.44 18.24 79.53 7.83 79.48 C 12.30 73.33 16.52 67.00 21.00 60.86 C 18.63 58.72 16.25 56.59 13.84 54.50 C 16.79 48.52 19.00 42.14 22.43 36.42 C 26.18 33.45 31.10 32.34 35.44 30.43 C 37.59 29.30 39.94 29.91 42.13 30.54 M 49.37 25.69 C 47.34 28.37 45.33 31.06 43.28 33.73 C 40.60 33.04 37.76 31.95 35.00 32.90 C 31.01 34.20 26.64 35.54 23.76 38.76 C 20.56 43.36 18.91 48.81 16.61 53.88 C 19.18 56.31 21.75 58.74 24.31 61.18 C 20.84 66.32 17.35 71.46 13.88 76.60 C 21.95 76.87 30.03 76.34 38.09 76.65 C 42.78 76.68 45.99 80.49 49.28 83.27 C 52.74 80.48 56.09 76.62 60.92 76.63 C 69.33 76.37 77.75 76.87 86.17 76.60 C 82.57 71.26 78.85 66.01 75.00 60.85 C 77.35 58.50 79.72 56.16 82.08 53.82 C 79.54 48.46 78.08 42.39 74.15 37.82 C 68.98 34.10 62.15 31.04 55.79 33.53 C 53.63 30.94 51.51 28.30 49.37 25.69 Z" />
<path fill="#217a7a" opacity="1.00" d=" M 49.37 25.69 C 51.51 28.30 53.63 30.94 55.79 33.53 C 62.15 31.04 68.98 34.10 74.15 37.82 C 78.08 42.39 79.54 48.46 82.08 53.82 C 79.72 56.16 77.35 58.50 75.00 60.85 C 78.85 66.01 82.57 71.26 86.17 76.60 C 77.75 76.87 69.33 76.37 60.92 76.63 C 56.09 76.62 52.74 80.48 49.28 83.27 C 45.99 80.49 42.78 76.68 38.09 76.65 C 30.03 76.34 21.95 76.87 13.88 76.60 C 17.35 71.46 20.84 66.32 24.31 61.18 C 21.75 58.74 19.18 56.31 16.61 53.88 C 18.91 48.81 20.56 43.36 23.76 38.76 C 26.64 35.54 31.01 34.20 35.00 32.90 C 37.76 31.95 40.60 33.04 43.28 33.73 C 45.33 31.06 47.34 28.37 49.37 25.69 M 33.38 36.30 C 30.31 37.59 26.55 38.62 24.95 41.86 C 22.96 45.49 21.47 49.37 19.72 53.11 C 29.42 62.21 39.49 70.92 49.26 79.95 C 59.30 71.14 69.18 62.15 79.06 53.16 C 76.78 48.72 75.46 43.68 72.26 39.79 C 68.96 37.41 65.00 35.84 60.99 35.17 C 56.52 36.62 53.13 40.20 49.27 42.77 C 46.03 40.31 42.93 37.61 39.33 35.67 C 37.45 34.50 35.27 35.78 33.38 36.30 Z" />
<path fill="#ffffff" opacity="1.00" d=" M 33.38 36.30 C 35.27 35.78 37.45 34.50 39.33 35.67 C 42.93 37.61 46.03 40.31 49.27 42.77 C 53.13 40.20 56.52 36.62 60.99 35.17 C 65.00 35.84 68.96 37.41 72.26 39.79 C 75.46 43.68 76.78 48.72 79.06 53.16 C 69.18 62.15 59.30 71.14 49.26 79.95 C 39.49 70.92 29.42 62.21 19.72 53.11 C 21.47 49.37 22.96 45.49 24.95 41.86 C 26.55 38.62 30.31 37.59 33.38 36.30 M 36.60 37.93 C 33.55 38.74 30.37 39.85 27.99 41.99 C 25.64 45.23 24.41 49.10 22.79 52.72 C 31.68 60.61 40.46 68.60 49.29 76.56 C 58.31 68.74 67.03 60.58 75.97 52.66 C 74.22 48.95 73.03 44.83 70.40 41.61 C 67.55 39.64 64.18 38.66 61.01 37.35 C 57.13 40.23 53.18 43.02 49.25 45.83 C 46.18 43.49 43.19 41.05 39.95 38.95 C 38.94 38.37 37.84 37.51 36.60 37.93 Z" />
<path fill="#147373" opacity="1.00" d=" M 36.60 37.93 C 37.84 37.51 38.94 38.37 39.95 38.95 C 43.19 41.05 46.18 43.49 49.25 45.83 C 53.18 43.02 57.13 40.23 61.01 37.35 C 64.18 38.66 67.55 39.64 70.40 41.61 C 73.03 44.83 74.22 48.95 75.97 52.66 C 67.03 60.58 58.31 68.74 49.29 76.56 C 40.46 68.60 31.68 60.61 22.79 52.72 C 24.41 49.10 25.64 45.23 27.99 41.99 C 30.37 39.85 33.55 38.74 36.60 37.93 M 32.94 42.81 C 29.00 44.13 27.87 48.48 26.12 51.77 C 33.84 58.72 41.56 65.67 49.26 72.65 C 57.17 65.88 64.76 58.75 72.55 51.84 C 71.79 50.15 71.04 48.45 70.16 46.81 C 68.66 43.28 64.56 41.97 61.06 41.46 C 56.71 43.41 53.19 46.77 49.25 49.40 C 45.89 46.90 42.68 44.16 39.06 42.04 C 37.13 40.76 34.83 42.15 32.94 42.81 Z" />
<path fill="#ffffff" opacity="1.00" d=" M 32.94 42.81 C 34.83 42.15 37.13 40.76 39.06 42.04 C 42.68 44.16 45.89 46.90 49.25 49.40 C 53.19 46.77 56.71 43.41 61.06 41.46 C 64.56 41.97 68.66 43.28 70.16 46.81 C 71.04 48.45 71.79 50.15 72.55 51.84 C 64.76 58.75 57.17 65.88 49.26 72.65 C 41.56 65.67 33.84 58.72 26.12 51.77 C 27.87 48.48 29.00 44.13 32.94 42.81 Z" />
</svg>
