<?xml version="1.0" encoding="UTF-8" ?>
<!DOCTYPE svg PUBLIC "-//W3C//DTD SVG 1.1//EN" "http://www.w3.org/Graphics/SVG/1.1/DTD/svg11.dtd">
<svg width="100pt" height="100pt" viewBox="0 0 100 100" version="1.1" xmlns="http://www.w3.org/2000/svg">
<path fill="#bfbebc" opacity="1.00" d=" M 31.03 19.03 C 39.13 14.19 49.17 11.80 58.42 14.45 C 62.68 15.45 66.58 17.50 70.36 19.63 C 73.46 21.50 77.24 20.57 80.61 21.42 C 84.41 22.44 87.91 24.31 91.52 25.82 C 91.41 42.55 91.58 59.28 91.43 76.01 C 86.66 76.90 81.85 77.85 76.96 77.74 C 73.90 77.41 71.55 79.60 69.09 81.04 C 60.10 86.70 48.51 88.44 38.51 84.49 C 32.09 82.60 27.07 78.11 22.16 73.81 C 17.92 72.01 13.02 72.70 8.51 72.13 C 8.81 57.47 9.48 42.81 9.90 28.14 C 13.77 27.64 17.76 27.71 21.52 26.57 C 24.92 24.36 27.49 21.06 31.03 19.03 M 33.42 21.41 C 30.76 23.04 28.51 25.20 26.07 27.12 C 22.30 30.32 17.02 29.83 12.43 30.51 C 11.69 43.57 11.64 56.65 11.12 69.72 C 15.07 70.06 19.11 69.96 22.96 71.01 C 26.12 72.27 28.34 75.02 31.07 76.95 C 40.92 84.40 55.35 85.39 65.98 78.99 C 68.82 77.45 71.54 75.18 74.95 75.23 C 79.54 75.09 84.13 74.82 88.65 74.00 C 88.66 58.43 88.73 42.86 88.66 27.29 C 86.80 26.46 84.95 25.61 83.05 24.90 C 77.79 22.60 71.54 24.78 66.64 21.35 C 56.66 15.18 43.39 15.34 33.42 21.41 Z" />
<path fill="#2f4364" opacity="1.00" d=" M 33.42 21.41 C 43.39 15.34 56.66 15.18 66.64 21.35 C 71.54 24.78 77.79 22.60 83.05 24.90 C 84.95 25.61 86.80 26.46 88.66 27.29 C 88.73 42.86 88.66 58.43 88.65 74.00 C 84.13 74.82 79.54 75.09 74.95 75.23 C 71.54 75.18 68.82 77.45 65.98 78.99 C 55.35 85.39 40.92 84.40 31.07 76.95 C 28.34 75.02 26.12 72.27 22.96 71.01 C 19.11 69.96 15.07 70.06 11.12 69.72 C 11.64 56.65 11.69 43.57 12.43 30.51 C 17.02 29.83 22.30 30.32 26.07 27.12 C 28.51 25.20 30.76 23.04 33.42 21.41 M 64.11 27.20 C 64.07 29.21 64.03 31.23 64.00 33.25 C 68.99 32.97 73.97 32.55 78.94 32.08 C 79.03 29.93 79.11 27.78 79.18 25.63 C 74.16 26.13 69.13 26.66 64.11 27.20 M 49.71 28.82 C 49.55 30.71 49.39 32.60 49.23 34.49 C 53.76 34.24 58.29 33.88 62.79 33.24 C 62.66 31.28 62.54 29.31 62.41 27.34 C 58.18 27.85 53.94 28.34 49.71 28.82 M 36.83 30.10 C 36.61 31.90 36.41 33.70 36.20 35.51 C 40.12 35.32 44.03 35.06 47.94 34.79 C 48.01 32.86 48.07 30.93 48.13 29.00 C 44.36 29.36 40.60 29.74 36.83 30.10 M 85.45 33.96 C 83.94 33.75 82.43 33.55 80.92 33.36 C 82.90 34.20 84.89 35.02 86.87 35.85 C 86.89 33.43 86.90 31.02 86.82 28.61 C 86.33 30.38 85.88 32.17 85.45 33.96 M 24.62 31.55 C 24.69 33.20 24.75 34.85 24.81 36.50 C 28.23 36.31 31.66 36.12 35.08 35.94 C 35.16 34.09 35.23 32.24 35.31 30.39 C 31.74 30.74 28.18 31.14 24.62 31.55 M 14.44 32.49 C 14.33 34.11 14.21 35.73 14.10 37.35 C 17.25 37.23 20.40 37.04 23.55 36.82 C 23.67 35.10 23.79 33.39 23.92 31.68 C 20.76 31.96 17.60 32.25 14.44 32.49 M 70.70 34.16 C 70.64 36.25 70.59 38.34 70.56 40.43 C 73.38 40.33 76.21 40.21 79.03 40.09 C 79.04 37.98 79.05 35.86 79.05 33.74 C 76.27 33.89 73.48 34.04 70.70 34.16 M 55.07 35.63 C 55.06 37.50 55.04 39.38 55.03 41.25 C 59.65 41.09 64.27 40.88 68.90 40.71 C 68.94 38.64 68.98 36.57 69.01 34.51 C 64.36 34.73 59.70 35.09 55.07 35.63 M 41.52 36.64 C 41.54 38.46 41.56 40.29 41.58 42.11 C 45.60 41.85 49.63 41.61 53.65 41.30 C 53.72 39.41 53.80 37.53 53.88 35.65 C 49.76 35.91 45.64 36.24 41.52 36.64 M 29.31 37.68 C 29.29 39.32 29.27 40.95 29.25 42.59 C 32.88 42.47 36.50 42.30 40.12 42.15 C 40.15 40.30 40.18 38.46 40.22 36.62 C 36.58 36.92 32.94 37.26 29.31 37.68 M 85.09 41.51 C 83.53 41.27 81.97 41.04 80.41 40.84 C 82.50 41.66 84.62 42.42 86.75 43.17 C 86.84 40.98 86.92 38.80 86.95 36.62 C 86.31 38.24 85.70 39.87 85.09 41.51 M 18.77 38.25 C 18.56 39.91 18.36 41.57 18.16 43.23 C 21.47 43.17 24.78 43.04 28.09 42.89 C 28.15 41.15 28.21 39.41 28.26 37.67 C 25.09 37.81 21.93 38.02 18.77 38.25 M 14.07 38.73 C 14.05 40.28 14.03 41.82 14.00 43.36 C 14.79 43.34 16.38 43.28 17.17 43.26 C 17.19 41.72 17.20 40.17 17.22 38.63 C 16.43 38.66 14.85 38.71 14.07 38.73 M 63.97 42.28 C 63.92 44.30 63.88 46.31 63.84 48.33 C 68.85 48.38 73.85 48.22 78.86 48.07 C 78.87 45.95 78.89 43.83 78.91 41.72 C 73.93 41.87 68.95 42.07 63.97 42.28 M 36.09 43.76 C 36.07 45.58 36.05 47.41 36.02 49.23 C 39.94 49.11 43.86 48.96 47.78 48.79 C 47.79 46.89 47.80 45.00 47.81 43.10 C 43.90 43.28 39.99 43.49 36.09 43.76 M 49.16 43.07 C 49.12 44.97 49.08 46.87 49.05 48.78 C 53.41 48.69 57.76 48.58 62.12 48.57 C 62.20 46.56 62.27 44.55 62.33 42.55 C 57.94 42.63 53.55 42.80 49.16 43.07 M 13.94 44.77 C 13.90 46.34 13.86 47.91 13.82 49.49 C 16.97 49.43 20.13 49.34 23.28 49.23 C 23.30 47.57 23.31 45.91 23.33 44.25 C 20.20 44.44 17.07 44.60 13.94 44.77 M 24.81 44.11 C 24.62 45.81 24.43 47.52 24.24 49.23 C 27.76 49.23 31.27 49.17 34.79 49.13 C 34.88 47.34 34.96 45.55 35.06 43.76 C 31.64 43.84 28.23 43.96 24.81 44.11 M 85.05 48.67 C 83.53 48.76 82.01 48.85 80.49 48.97 C 82.62 49.44 84.75 49.84 86.89 50.24 C 86.88 48.02 86.84 45.80 86.76 43.59 C 86.16 45.27 85.60 46.97 85.05 48.67 M 28.79 50.69 C 28.88 52.63 28.99 54.58 29.10 56.53 C 31.48 54.45 33.81 52.32 36.18 50.22 C 33.72 50.38 31.26 50.54 28.79 50.69 M 45.62 50.17 C 48.08 52.35 50.51 54.57 53.06 56.65 C 53.21 54.46 53.33 52.26 53.43 50.06 C 50.82 50.10 48.22 50.13 45.62 50.17 M 54.92 50.05 C 54.92 52.09 54.92 54.13 54.92 56.16 C 59.53 56.18 64.14 56.15 68.74 56.05 C 68.78 54.01 68.83 51.97 68.87 49.93 C 64.22 49.89 59.57 49.94 54.92 50.05 M 70.29 49.89 C 70.28 51.98 70.28 54.08 70.28 56.17 C 73.09 56.17 75.90 56.16 78.72 56.15 C 78.76 54.00 78.82 51.86 78.87 49.71 C 76.01 49.75 73.15 49.81 70.29 49.89 M 13.73 50.67 C 13.69 52.31 13.65 53.95 13.62 55.59 C 14.41 55.51 16.01 55.34 16.81 55.25 C 16.85 53.77 16.89 52.29 16.94 50.81 C 16.14 50.78 14.53 50.70 13.73 50.67 M 17.90 50.71 C 17.89 52.32 17.89 53.93 17.88 55.54 C 21.16 55.56 24.45 55.58 27.73 55.53 C 27.78 53.90 27.83 52.26 27.88 50.62 C 24.55 50.64 21.23 50.68 17.90 50.71 M 84.80 55.74 C 83.41 56.32 82.04 56.91 80.67 57.52 C 82.72 57.60 84.76 57.67 86.80 57.74 C 86.80 55.68 86.79 53.61 86.76 51.55 C 86.09 52.94 85.44 54.34 84.80 55.74 M 36.19 61.25 C 34.58 59.67 32.96 58.10 31.29 56.57 C 30.21 60.41 29.44 64.32 28.93 68.27 C 31.54 68.19 34.16 68.09 36.77 67.98 C 37.68 63.30 39.13 58.76 40.56 54.23 C 38.92 56.44 37.51 58.82 36.19 61.25 M 13.37 56.64 C 13.37 58.20 13.37 59.75 13.37 61.31 C 16.49 61.51 19.60 61.69 22.72 61.92 C 22.88 60.18 23.04 58.44 23.20 56.71 C 19.92 56.66 16.65 56.62 13.37 56.64 M 23.93 56.68 C 23.92 58.47 23.91 60.26 23.90 62.05 C 25.27 62.12 26.65 62.19 28.02 62.26 C 28.65 60.41 29.28 58.56 29.92 56.71 C 27.93 56.69 25.93 56.68 23.93 56.68 M 52.10 57.04 C 52.76 59.05 53.41 61.05 54.06 63.06 C 56.70 63.15 59.35 63.24 62.00 63.32 C 61.99 61.28 61.97 59.25 61.95 57.22 C 58.67 57.21 55.38 57.14 52.10 57.04 M 63.69 57.21 C 63.66 59.25 63.63 61.29 63.62 63.33 C 68.65 63.64 73.69 63.83 78.74 63.91 C 78.74 61.76 78.74 59.61 78.74 57.47 C 73.73 57.40 68.71 57.35 63.69 57.21 M 84.89 63.49 C 83.14 63.95 81.39 64.43 79.66 64.94 C 82.04 65.08 84.44 65.12 86.83 65.15 C 86.79 62.93 86.74 60.71 86.64 58.49 C 86.01 60.14 85.45 61.81 84.89 63.49 M 13.23 62.94 C 13.22 64.55 13.21 66.15 13.21 67.76 C 13.95 67.80 15.45 67.88 16.20 67.92 C 16.24 66.18 16.29 64.43 16.33 62.68 C 15.56 62.75 14.00 62.88 13.23 62.94 M 17.69 62.70 C 17.67 64.48 17.64 66.27 17.63 68.06 C 20.87 68.25 24.11 68.46 27.36 68.69 C 27.39 66.78 27.41 64.88 27.42 62.98 C 24.18 62.87 20.93 62.77 17.69 62.70 M 54.57 64.58 C 54.52 66.55 54.47 68.52 54.42 70.49 C 59.12 70.90 63.82 71.27 68.53 71.52 C 68.52 69.28 68.52 67.04 68.50 64.81 C 63.86 64.71 59.22 64.64 54.57 64.58 M 70.14 65.09 C 70.11 67.30 70.09 69.51 70.07 71.72 C 72.94 71.87 75.80 72.04 78.67 72.18 C 78.66 69.90 78.66 67.61 78.67 65.33 C 75.83 65.26 72.98 65.17 70.14 65.09 M 80.04 73.36 C 82.22 73.08 84.39 72.80 86.57 72.53 C 86.70 70.32 86.83 68.11 86.98 65.91 C 85.71 69.27 83.30 71.83 80.04 73.36 Z" />
<path fill="#ffffff" opacity="1.00" d=" M 64.11 27.20 C 69.13 26.66 74.16 26.13 79.18 25.63 C 79.11 27.78 79.03 29.93 78.94 32.08 C 73.97 32.55 68.99 32.97 64.00 33.25 C 64.03 31.23 64.07 29.21 64.11 27.20 Z" />
<path fill="#ffffff" opacity="1.00" d=" M 49.71 28.82 C 53.94 28.34 58.18 27.85 62.41 27.34 C 62.54 29.31 62.66 31.28 62.79 33.24 C 58.29 33.88 53.76 34.24 49.23 34.49 C 49.39 32.60 49.55 30.71 49.71 28.82 Z" />
<path fill="#ffffff" opacity="1.00" d=" M 36.83 30.10 C 40.60 29.74 44.36 29.36 48.13 29.00 C 48.07 30.93 48.01 32.86 47.94 34.79 C 44.03 35.06 40.12 35.32 36.20 35.51 C 36.41 33.70 36.61 31.90 36.83 30.10 Z" />
<path fill="#ffffff" opacity="1.00" d=" M 85.45 33.96 C 85.88 32.17 86.33 30.38 86.82 28.61 C 86.90 31.02 86.89 33.43 86.87 35.85 C 84.89 35.02 82.90 34.20 80.92 33.36 C 82.43 33.55 83.94 33.75 85.45 33.96 Z" />
<path fill="#ffffff" opacity="1.00" d=" M 24.62 31.55 C 28.18 31.14 31.74 30.74 35.31 30.39 C 35.23 32.24 35.16 34.09 35.08 35.94 C 31.66 36.12 28.23 36.31 24.81 36.50 C 24.75 34.85 24.69 33.20 24.62 31.55 Z" />
<path fill="#ffffff" opacity="1.00" d=" M 14.44 32.49 C 17.60 32.25 20.76 31.96 23.92 31.68 C 23.79 33.39 23.67 35.10 23.55 36.82 C 20.40 37.04 17.25 37.23 14.10 37.35 C 14.21 35.73 14.33 34.11 14.44 32.49 Z" />
<path fill="#ffffff" opacity="1.00" d=" M 70.70 34.16 C 73.48 34.04 76.27 33.89 79.05 33.74 C 79.05 35.86 79.04 37.98 79.03 40.09 C 76.21 40.21 73.38 40.33 70.56 40.43 C 70.59 38.34 70.64 36.25 70.70 34.16 Z" />
<path fill="#ffffff" opacity="1.00" d=" M 55.07 35.63 C 59.70 35.09 64.36 34.73 69.01 34.51 C 68.98 36.57 68.94 38.64 68.90 40.71 C 64.27 40.88 59.65 41.09 55.03 41.25 C 55.04 39.38 55.06 37.50 55.07 35.63 Z" />
<path fill="#ffffff" opacity="1.00" d=" M 41.52 36.64 C 45.64 36.24 49.76 35.91 53.88 35.65 C 53.80 37.53 53.72 39.41 53.65 41.30 C 49.63 41.61 45.60 41.85 41.58 42.11 C 41.56 40.29 41.54 38.46 41.52 36.64 Z" />
<path fill="#ffffff" opacity="1.00" d=" M 29.31 37.68 C 32.94 37.26 36.58 36.92 40.22 36.62 C 40.18 38.46 40.15 40.30 40.12 42.15 C 36.50 42.30 32.88 42.47 29.25 42.59 C 29.27 40.95 29.29 39.32 29.31 37.68 Z" />
<path fill="#ffffff" opacity="1.00" d=" M 85.09 41.51 C 85.70 39.87 86.31 38.24 86.95 36.62 C 86.92 38.80 86.84 40.98 86.75 43.17 C 84.62 42.42 82.50 41.66 80.41 40.84 C 81.97 41.04 83.53 41.27 85.09 41.51 Z" />
<path fill="#ffffff" opacity="1.00" d=" M 18.77 38.25 C 21.93 38.02 25.09 37.81 28.26 37.67 C 28.21 39.41 28.15 41.15 28.09 42.89 C 24.78 43.04 21.47 43.17 18.16 43.23 C 18.36 41.57 18.56 39.91 18.77 38.25 Z" />
<path fill="#fafafb" opacity="1.00" d=" M 14.07 38.73 C 14.85 38.71 16.43 38.66 17.22 38.63 C 17.20 40.17 17.19 41.72 17.17 43.26 C 16.38 43.28 14.79 43.34 14.00 43.36 C 14.03 41.82 14.05 40.28 14.07 38.73 Z" />
<path fill="#ffffff" opacity="1.00" d=" M 63.97 42.28 C 68.95 42.07 73.93 41.87 78.91 41.72 C 78.89 43.83 78.87 45.95 78.86 48.07 C 73.85 48.22 68.85 48.38 63.84 48.33 C 63.88 46.31 63.92 44.30 63.97 42.28 Z" />
<path fill="#ffffff" opacity="1.00" d=" M 36.09 43.76 C 39.99 43.49 43.90 43.28 47.81 43.10 C 47.80 45.00 47.79 46.89 47.78 48.79 C 43.86 48.96 39.94 49.11 36.02 49.23 C 36.05 47.41 36.07 45.58 36.09 43.76 Z" />
<path fill="#ffffff" opacity="1.00" d=" M 49.16 43.07 C 53.55 42.80 57.94 42.63 62.33 42.55 C 62.27 44.55 62.20 46.56 62.12 48.57 C 57.76 48.58 53.41 48.69 49.05 48.78 C 49.08 46.87 49.12 44.97 49.16 43.07 Z" />
<path fill="#ffffff" opacity="1.00" d=" M 13.94 44.77 C 17.07 44.60 20.20 44.44 23.33 44.25 C 23.31 45.91 23.30 47.57 23.28 49.23 C 20.13 49.34 16.97 49.43 13.82 49.49 C 13.86 47.91 13.90 46.34 13.94 44.77 Z" />
<path fill="#ffffff" opacity="1.00" d=" M 24.81 44.11 C 28.23 43.96 31.64 43.84 35.06 43.76 C 34.96 45.55 34.88 47.34 34.79 49.13 C 31.27 49.17 27.76 49.23 24.24 49.23 C 24.43 47.52 24.62 45.81 24.81 44.11 Z" />
<path fill="#ffffff" opacity="1.00" d=" M 85.05 48.67 C 85.60 46.97 86.16 45.27 86.76 43.59 C 86.84 45.80 86.88 48.02 86.89 50.24 C 84.75 49.84 82.62 49.44 80.49 48.97 C 82.01 48.85 83.53 48.76 85.05 48.67 Z" />
<path fill="#ffffff" opacity="1.00" d=" M 28.79 50.69 C 31.26 50.54 33.72 50.38 36.18 50.22 C 33.81 52.32 31.48 54.45 29.10 56.53 C 28.99 54.58 28.88 52.63 28.79 50.69 Z" />
<path fill="#ffffff" opacity="1.00" d=" M 45.62 50.17 C 48.22 50.13 50.82 50.10 53.43 50.06 C 53.33 52.26 53.21 54.46 53.06 56.65 C 50.51 54.57 48.08 52.35 45.62 50.17 Z" />
<path fill="#ffffff" opacity="1.00" d=" M 54.92 50.05 C 59.57 49.94 64.22 49.89 68.87 49.93 C 68.83 51.97 68.78 54.01 68.74 56.05 C 64.14 56.15 59.53 56.18 54.92 56.16 C 54.92 54.13 54.92 52.09 54.92 50.05 Z" />
<path fill="#ffffff" opacity="1.00" d=" M 70.29 49.89 C 73.15 49.81 76.01 49.75 78.87 49.71 C 78.82 51.86 78.76 54.00 78.72 56.15 C 75.90 56.16 73.09 56.17 70.28 56.17 C 70.28 54.08 70.28 51.98 70.29 49.89 Z" />
<path fill="#eef0f3" opacity="1.00" d=" M 13.73 50.67 C 14.53 50.70 16.14 50.78 16.94 50.81 C 16.89 52.29 16.85 53.77 16.81 55.25 C 16.01 55.34 14.41 55.51 13.62 55.59 C 13.65 53.95 13.69 52.31 13.73 50.67 Z" />
<path fill="#ffffff" opacity="1.00" d=" M 17.90 50.71 C 21.23 50.68 24.55 50.64 27.88 50.62 C 27.83 52.26 27.78 53.90 27.73 55.53 C 24.45 55.58 21.16 55.56 17.88 55.54 C 17.89 53.93 17.89 52.32 17.90 50.71 Z" />
<path fill="#ffffff" opacity="1.00" d=" M 84.80 55.74 C 85.44 54.34 86.09 52.94 86.76 51.55 C 86.79 53.61 86.80 55.68 86.80 57.74 C 84.76 57.67 82.72 57.60 80.67 57.52 C 82.04 56.91 83.41 56.32 84.80 55.74 Z" />
<path fill="#ffffff" opacity="1.00" d=" M 36.19 61.25 C 37.51 58.82 38.92 56.44 40.56 54.23 C 39.13 58.76 37.68 63.30 36.77 67.98 C 34.16 68.09 31.54 68.19 28.93 68.27 C 29.44 64.32 30.21 60.41 31.29 56.57 C 32.96 58.10 34.58 59.67 36.19 61.25 Z" />
<path fill="#ffffff" opacity="1.00" d=" M 13.37 56.64 C 16.65 56.62 19.92 56.66 23.20 56.71 C 23.04 58.44 22.88 60.18 22.72 61.92 C 19.60 61.69 16.49 61.51 13.37 61.31 C 13.37 59.75 13.37 58.20 13.37 56.64 Z" />
<path fill="#ffffff" opacity="1.00" d=" M 23.93 56.68 C 25.93 56.68 27.93 56.69 29.92 56.71 C 29.28 58.56 28.65 60.41 28.02 62.26 C 26.65 62.19 25.27 62.12 23.90 62.05 C 23.91 60.26 23.92 58.47 23.93 56.68 Z" />
<path fill="#ffffff" opacity="1.00" d=" M 52.10 57.04 C 55.38 57.14 58.67 57.21 61.95 57.22 C 61.97 59.25 61.99 61.28 62.00 63.32 C 59.35 63.24 56.70 63.15 54.06 63.06 C 53.41 61.05 52.76 59.05 52.10 57.04 Z" />
<path fill="#ffffff" opacity="1.00" d=" M 63.69 57.21 C 68.71 57.35 73.73 57.40 78.74 57.47 C 78.74 59.61 78.74 61.76 78.74 63.91 C 73.69 63.83 68.65 63.64 63.62 63.33 C 63.63 61.29 63.66 59.25 63.69 57.21 Z" />
<path fill="#ffffff" opacity="1.00" d=" M 84.89 63.49 C 85.45 61.81 86.01 60.14 86.64 58.49 C 86.74 60.71 86.79 62.93 86.83 65.15 C 84.44 65.12 82.04 65.08 79.66 64.94 C 81.39 64.43 83.14 63.95 84.89 63.49 Z" />
<path fill="#ffffff" opacity="1.00" d=" M 13.23 62.94 C 14.00 62.88 15.56 62.75 16.33 62.68 C 16.29 64.43 16.24 66.18 16.20 67.92 C 15.45 67.88 13.95 67.80 13.21 67.76 C 13.21 66.15 13.22 64.55 13.23 62.94 Z" />
<path fill="#ffffff" opacity="1.00" d=" M 17.69 62.70 C 20.93 62.77 24.18 62.87 27.42 62.98 C 27.41 64.88 27.39 66.78 27.36 68.69 C 24.11 68.46 20.87 68.25 17.63 68.06 C 17.64 66.27 17.67 64.48 17.69 62.70 Z" />
<path fill="#ffffff" opacity="1.00" d=" M 54.57 64.58 C 59.22 64.64 63.86 64.71 68.50 64.81 C 68.52 67.04 68.52 69.28 68.53 71.52 C 63.82 71.27 59.12 70.90 54.42 70.49 C 54.47 68.52 54.52 66.55 54.57 64.58 Z" />
<path fill="#ffffff" opacity="1.00" d=" M 70.14 65.09 C 72.98 65.17 75.83 65.26 78.67 65.33 C 78.66 67.61 78.66 69.90 78.67 72.18 C 75.80 72.04 72.94 71.87 70.07 71.72 C 70.09 69.51 70.11 67.30 70.14 65.09 Z" />
<path fill="#ffffff" opacity="1.00" d=" M 80.04 73.36 C 83.30 71.83 85.71 69.27 86.98 65.91 C 86.83 68.11 86.70 70.32 86.57 72.53 C 84.39 72.80 82.22 73.08 80.04 73.36 Z" />
</svg>
