<?xml version="1.0" encoding="UTF-8" ?>
<!DOCTYPE svg PUBLIC "-//W3C//DTD SVG 1.1//EN" "http://www.w3.org/Graphics/SVG/1.1/DTD/svg11.dtd">
<svg width="100pt" height="100pt" viewBox="0 0 100 100" version="1.1" xmlns="http://www.w3.org/2000/svg">
<path fill="#b8bcbb" opacity="1.00" d=" M 61.34 10.35 C 64.83 8.93 68.26 7.39 71.72 5.93 C 72.82 8.61 74.08 11.25 74.77 14.08 C 74.10 17.43 71.91 20.18 70.09 22.99 C 72.94 23.11 75.80 23.17 78.66 23.24 C 78.58 28.70 78.53 34.16 78.74 39.61 C 80.73 37.21 82.57 34.70 84.59 32.34 C 82.94 39.73 79.82 46.77 78.70 54.28 C 78.37 64.00 78.77 73.74 78.55 83.46 C 75.16 83.49 71.78 83.50 68.40 83.47 C 67.38 85.11 66.36 86.75 65.33 88.38 C 63.01 86.87 60.94 84.95 58.42 83.79 C 53.43 83.04 48.35 83.67 43.33 83.45 C 40.05 88.34 34.87 91.18 29.75 93.75 C 28.56 90.36 27.90 86.70 25.96 83.62 C 23.41 83.37 20.84 83.48 18.28 83.49 C 18.28 70.32 18.27 57.15 18.31 43.98 C 18.40 39.99 17.41 36.11 16.64 32.23 C 15.82 29.08 18.01 26.25 18.67 23.28 C 21.01 23.18 23.36 23.10 25.70 22.98 C 26.83 21.15 27.99 19.35 29.19 17.57 C 32.54 18.17 35.99 19.04 38.49 21.52 C 40.27 23.43 43.02 23.11 45.38 23.45 C 45.33 21.51 45.25 19.57 45.19 17.63 C 48.41 19.54 51.35 22.19 55.04 23.14 C 56.99 23.88 57.70 21.79 58.51 20.49 C 60.31 17.40 60.62 13.78 61.34 10.35 M 63.21 12.09 C 61.35 17.04 59.91 22.16 57.39 26.85 C 53.90 24.93 50.50 22.83 47.12 20.72 C 47.28 22.71 47.46 24.71 47.65 26.70 C 44.33 26.65 41.01 26.64 37.69 26.63 C 37.22 24.96 36.86 23.25 36.17 21.66 C 34.36 20.26 32.08 19.73 29.98 18.92 C 28.73 21.33 27.52 23.77 26.37 26.23 C 24.89 26.54 23.41 26.84 21.93 27.15 C 21.88 30.41 21.87 33.67 21.87 36.94 C 20.92 36.01 19.97 35.09 19.01 34.17 C 19.56 37.59 20.12 41.01 20.66 44.44 C 22.79 56.19 21.31 68.17 21.90 80.03 C 24.20 80.19 26.51 80.34 28.82 80.48 C 29.55 84.04 30.30 87.60 31.08 91.15 C 36.10 89.05 40.31 85.44 42.63 80.46 C 47.09 80.30 51.56 79.99 56.02 80.31 C 59.51 80.41 62.15 82.96 64.85 84.84 C 65.67 83.38 66.49 81.92 67.31 80.46 C 70.10 80.31 72.90 80.16 75.69 79.96 C 75.70 73.97 75.54 67.97 75.59 61.98 C 75.58 54.30 78.98 47.25 80.90 39.96 C 79.17 41.74 77.49 43.55 75.78 45.34 C 75.59 39.20 75.63 33.06 75.69 26.91 C 72.70 26.75 69.72 26.61 66.74 26.45 C 68.52 22.47 71.19 18.91 72.60 14.77 C 72.63 12.42 71.69 10.20 71.09 7.96 C 68.44 9.22 65.19 9.83 63.21 12.09 Z" />
<path fill="#c40f24" opacity="1.00" d=" M 63.21 12.09 C 65.19 9.83 68.44 9.22 71.09 7.96 C 71.69 10.20 72.63 12.42 72.60 14.77 C 71.19 18.91 68.52 22.47 66.74 26.45 C 69.72 26.61 72.70 26.75 75.69 26.91 C 75.63 33.06 75.59 39.20 75.78 45.34 C 77.49 43.55 79.17 41.74 80.90 39.96 C 78.98 47.25 75.58 54.30 75.59 61.98 C 75.54 67.97 75.70 73.97 75.69 79.96 C 72.90 80.16 70.10 80.31 67.31 80.46 C 66.49 81.92 65.67 83.38 64.85 84.84 C 62.15 82.96 59.51 80.41 56.02 80.31 C 51.56 79.99 47.09 80.30 42.63 80.46 C 40.31 85.44 36.10 89.05 31.08 91.15 C 30.30 87.60 29.55 84.04 28.82 80.48 C 26.51 80.34 24.20 80.19 21.90 80.03 C 21.31 68.17 22.79 56.19 20.66 44.44 C 20.12 41.01 19.56 37.59 19.01 34.17 C 19.97 35.09 20.92 36.01 21.87 36.94 C 21.87 33.67 21.88 30.41 21.93 27.15 C 23.41 26.84 24.89 26.54 26.37 26.23 C 27.52 23.77 28.73 21.33 29.98 18.92 C 32.08 19.73 34.36 20.26 36.17 21.66 C 36.86 23.25 37.22 24.96 37.69 26.63 C 41.01 26.64 44.33 26.65 47.65 26.70 C 47.46 24.71 47.28 22.71 47.12 20.72 C 50.50 22.83 53.90 24.93 57.39 26.85 C 59.91 22.16 61.35 17.04 63.21 12.09 M 64.78 15.84 C 62.63 21.05 60.53 26.31 57.56 31.11 C 54.81 28.42 51.79 26.02 48.51 24.01 C 50.10 26.98 52.41 29.43 54.86 31.70 C 53.66 34.01 52.59 36.40 52.02 38.95 C 50.62 44.98 47.61 50.43 45.06 56.03 C 43.55 59.43 41.53 62.58 39.18 65.47 C 37.10 61.85 35.08 58.21 32.87 54.68 C 32.54 59.22 32.30 63.77 31.88 68.31 C 28.07 60.06 25.89 51.16 22.10 42.90 C 23.07 49.19 25.00 55.26 26.56 61.41 C 28.86 70.16 30.89 78.97 33.31 87.68 C 35.75 86.03 38.13 84.12 39.31 81.34 C 44.52 70.55 49.67 59.72 54.90 48.94 C 57.29 44.07 60.58 39.73 63.57 35.23 C 67.06 34.31 70.67 33.87 74.15 32.88 C 70.01 32.71 65.87 32.62 61.73 32.64 C 62.97 27.46 65.58 22.79 68.22 18.22 C 69.62 15.94 69.68 13.20 69.87 10.62 C 67.84 11.97 65.74 13.51 64.78 15.84 M 29.85 20.94 C 29.89 22.46 29.03 24.33 30.36 25.53 C 32.78 28.57 35.48 31.65 36.44 35.52 C 37.04 38.64 35.78 41.68 35.09 44.67 C 36.88 44.45 38.66 44.14 40.43 43.80 C 39.98 45.14 39.44 46.47 39.21 47.88 C 40.29 50.01 41.99 51.73 43.54 53.52 C 45.18 50.14 46.72 46.71 48.23 43.26 C 46.68 42.94 45.14 42.61 43.59 42.29 C 44.97 41.61 46.37 40.96 47.77 40.31 C 47.78 39.88 47.79 39.03 47.80 38.60 C 40.31 37.00 35.63 29.80 34.62 22.59 C 33.04 22.01 31.45 21.47 29.85 20.94 M 64.87 68.55 C 65.32 62.91 66.59 57.37 66.96 51.72 C 64.66 56.45 63.00 61.44 60.99 66.29 C 58.43 63.19 56.08 59.93 53.87 56.58 C 52.60 59.28 50.79 61.86 50.38 64.86 C 52.01 72.08 57.15 77.80 63.29 81.66 C 68.02 70.50 72.66 59.29 76.85 47.92 C 72.54 54.61 69.53 62.08 64.87 68.55 Z" />
<path fill="#ffffff" opacity="1.00" d=" M 64.78 15.84 C 65.74 13.51 67.84 11.97 69.87 10.62 C 69.68 13.20 69.62 15.94 68.22 18.22 C 65.58 22.79 62.97 27.46 61.73 32.64 C 65.87 32.62 70.01 32.71 74.15 32.88 C 70.67 33.87 67.06 34.31 63.57 35.23 C 60.58 39.73 57.29 44.07 54.90 48.94 C 49.67 59.72 44.52 70.55 39.31 81.34 C 38.13 84.12 35.75 86.03 33.31 87.68 C 30.89 78.97 28.86 70.16 26.56 61.41 C 25.00 55.26 23.07 49.19 22.10 42.90 C 25.89 51.16 28.07 60.06 31.88 68.31 C 32.30 63.77 32.54 59.22 32.87 54.68 C 35.08 58.21 37.10 61.85 39.18 65.47 C 41.53 62.58 43.55 59.43 45.06 56.03 C 47.61 50.43 50.62 44.98 52.02 38.95 C 52.59 36.40 53.66 34.01 54.86 31.70 C 52.41 29.43 50.10 26.98 48.51 24.01 C 51.79 26.02 54.81 28.42 57.56 31.11 C 60.53 26.31 62.63 21.05 64.78 15.84 Z" />
<path fill="#ffffff" opacity="1.00" d=" M 29.85 20.94 C 31.45 21.47 33.04 22.01 34.62 22.59 C 35.63 29.80 40.31 37.00 47.80 38.60 C 47.79 39.03 47.78 39.88 47.77 40.31 C 46.37 40.96 44.97 41.61 43.59 42.29 C 45.14 42.61 46.68 42.94 48.23 43.26 C 46.72 46.71 45.18 50.14 43.54 53.52 C 41.99 51.73 40.29 50.01 39.21 47.88 C 39.44 46.47 39.98 45.14 40.43 43.80 C 38.66 44.14 36.88 44.45 35.09 44.67 C 35.78 41.68 37.04 38.64 36.44 35.52 C 35.48 31.65 32.78 28.57 30.36 25.53 C 29.03 24.33 29.89 22.46 29.85 20.94 Z" />
<path fill="#ffffff" opacity="1.00" d=" M 64.87 68.55 C 69.53 62.08 72.54 54.61 76.85 47.92 C 72.66 59.29 68.02 70.50 63.29 81.66 C 57.15 77.80 52.01 72.08 50.38 64.86 C 50.79 61.86 52.60 59.28 53.87 56.58 C 56.08 59.93 58.43 63.19 60.99 66.29 C 63.00 61.44 64.66 56.45 66.96 51.72 C 66.59 57.37 65.32 62.91 64.87 68.55 Z" />
</svg>
