<?xml version="1.0" encoding="UTF-8" ?>
<!DOCTYPE svg PUBLIC "-//W3C//DTD SVG 1.1//EN" "http://www.w3.org/Graphics/SVG/1.1/DTD/svg11.dtd">
<svg width="100pt" height="100pt" viewBox="0 0 100 100" version="1.1" xmlns="http://www.w3.org/2000/svg">
<path fill="#b8bbba" opacity="1.00" d=" M 18.86 14.37 C 21.66 15.98 24.56 17.85 27.94 17.64 C 42.31 17.61 56.69 17.62 71.06 17.63 C 74.37 17.80 77.21 15.95 79.98 14.42 C 81.30 17.59 83.19 20.63 83.62 24.09 C 83.39 28.45 81.18 32.50 81.37 36.93 C 81.35 51.84 81.44 66.75 81.35 81.66 C 76.88 81.64 72.40 81.41 67.93 81.66 C 64.66 81.75 62.11 84.22 58.96 84.74 C 55.39 84.73 52.57 81.87 49.06 81.63 C 45.94 82.32 43.29 84.60 40.03 84.75 C 36.85 84.32 34.32 81.78 31.05 81.67 C 26.52 81.41 21.98 81.64 17.45 81.64 C 17.56 66.75 17.48 51.85 17.52 36.96 C 17.68 32.49 15.39 28.41 15.23 24.01 C 15.68 20.56 17.55 17.53 18.86 14.37 M 19.60 17.16 C 18.54 20.14 16.76 23.22 17.59 26.49 C 18.84 31.98 21.39 37.22 21.37 42.95 C 21.45 54.65 21.33 66.35 21.31 78.05 C 25.86 78.14 30.41 78.18 34.95 78.45 C 36.40 80.10 37.46 82.96 40.03 82.92 C 43.76 82.39 46.15 78.52 49.87 78.11 C 52.86 79.26 55.08 81.83 58.13 82.84 C 61.06 83.53 62.39 80.23 63.92 78.42 C 68.66 78.17 73.40 78.16 78.14 78.13 C 78.31 65.73 78.11 53.34 78.17 40.94 C 78.10 35.88 80.15 31.18 81.24 26.32 C 82.00 23.12 80.30 20.09 79.31 17.15 C 75.56 19.36 71.59 21.69 67.07 21.43 C 55.36 21.36 43.65 21.35 31.94 21.43 C 27.38 21.73 23.36 19.41 19.60 17.16 Z" />
<path fill="#b61c2e" opacity="1.00" d=" M 19.60 17.16 C 23.36 19.41 27.38 21.73 31.94 21.43 C 43.65 21.35 55.36 21.36 67.07 21.43 C 71.59 21.69 75.56 19.36 79.31 17.15 C 80.30 20.09 82.00 23.12 81.24 26.32 C 80.15 31.18 78.10 35.88 78.17 40.94 C 78.11 53.34 78.31 65.73 78.14 78.13 C 73.40 78.16 68.66 78.17 63.92 78.42 C 62.39 80.23 61.06 83.53 58.13 82.84 C 55.08 81.83 52.86 79.26 49.87 78.11 C 46.15 78.52 43.76 82.39 40.03 82.92 C 37.46 82.96 36.40 80.10 34.95 78.45 C 30.41 78.18 25.86 78.14 21.31 78.05 C 21.33 66.35 21.45 54.65 21.37 42.95 C 21.39 37.22 18.84 31.98 17.59 26.49 C 16.76 23.22 18.54 20.14 19.60 17.16 M 20.27 19.47 C 19.39 22.80 19.10 26.33 20.42 29.59 C 24.28 41.05 27.82 52.62 31.72 64.07 C 28.72 65.31 25.69 66.57 23.14 68.65 C 26.98 68.59 30.70 67.63 34.46 66.97 C 36.70 71.41 39.28 75.96 38.87 81.12 C 40.52 80.74 42.16 80.35 43.80 79.95 C 41.30 75.56 39.14 70.63 39.29 65.49 C 42.33 63.23 46.03 61.99 48.88 59.44 C 45.59 59.79 42.39 60.62 39.21 61.46 C 34.41 49.75 30.49 37.71 26.16 25.82 C 25.24 22.90 22.69 21.10 20.27 19.47 M 72.45 26.38 C 68.13 38.21 64.39 50.27 59.33 61.82 C 56.57 60.82 53.80 59.86 51.01 58.93 C 51.08 59.56 51.20 60.83 51.26 61.46 C 54.16 62.76 58.01 63.17 59.74 66.15 C 59.35 71.01 57.55 75.68 54.99 79.81 C 56.67 80.22 58.35 80.61 60.04 80.99 C 59.54 75.86 62.17 71.35 64.43 66.98 C 68.20 67.64 71.94 68.62 75.80 68.63 C 73.20 66.58 70.14 65.31 67.12 64.04 C 71.09 52.27 74.81 40.41 78.71 28.61 C 79.97 25.57 79.25 22.34 78.23 19.36 C 75.81 21.24 73.39 23.35 72.45 26.38 M 29.78 29.24 C 30.09 30.40 30.40 31.57 30.71 32.73 C 42.70 28.18 56.20 28.13 68.19 32.70 C 68.50 31.53 68.83 30.37 69.17 29.21 C 56.53 24.57 42.42 24.58 29.78 29.24 M 36.07 47.24 C 36.40 48.39 36.74 49.54 37.08 50.69 C 45.12 48.17 53.75 48.15 61.81 50.60 C 62.16 49.46 62.51 48.31 62.85 47.17 C 54.12 44.54 44.78 44.61 36.07 47.24 Z" />
<path fill="#ffffff" opacity="1.00" d=" M 20.27 19.47 C 22.69 21.10 25.24 22.90 26.16 25.82 C 30.49 37.71 34.41 49.75 39.21 61.46 C 42.39 60.62 45.59 59.79 48.88 59.44 C 46.03 61.99 42.33 63.23 39.29 65.49 C 39.14 70.63 41.30 75.56 43.80 79.95 C 42.16 80.35 40.52 80.74 38.87 81.12 C 39.28 75.96 36.70 71.41 34.46 66.97 C 30.70 67.63 26.98 68.59 23.14 68.65 C 25.69 66.57 28.72 65.31 31.72 64.07 C 27.82 52.62 24.28 41.05 20.42 29.59 C 19.10 26.33 19.39 22.80 20.27 19.47 Z" />
<path fill="#ffffff" opacity="1.00" d=" M 72.45 26.38 C 73.39 23.35 75.81 21.24 78.23 19.36 C 79.25 22.34 79.97 25.57 78.71 28.61 C 74.81 40.41 71.09 52.27 67.12 64.04 C 70.14 65.31 73.20 66.58 75.80 68.63 C 71.94 68.62 68.20 67.64 64.43 66.98 C 62.17 71.35 59.54 75.86 60.04 80.99 C 58.35 80.61 56.67 80.22 54.99 79.81 C 57.55 75.68 59.35 71.01 59.74 66.15 C 58.01 63.17 54.16 62.76 51.26 61.46 C 51.20 60.83 51.08 59.56 51.01 58.93 C 53.80 59.86 56.57 60.82 59.33 61.82 C 64.39 50.27 68.13 38.21 72.45 26.38 Z" />
<path fill="#ffffff" opacity="1.00" d=" M 29.78 29.24 C 42.42 24.58 56.53 24.57 69.17 29.21 C 68.83 30.37 68.50 31.53 68.19 32.70 C 56.20 28.13 42.70 28.18 30.71 32.73 C 30.40 31.57 30.09 30.40 29.78 29.24 Z" />
<path fill="#ffffff" opacity="1.00" d=" M 36.07 47.24 C 44.78 44.61 54.12 44.54 62.85 47.17 C 62.51 48.31 62.16 49.46 61.81 50.60 C 53.75 48.15 45.12 48.17 37.08 50.69 C 36.74 49.54 36.40 48.39 36.07 47.24 Z" />
</svg>
