<?xml version="1.0" encoding="UTF-8" ?>
<!DOCTYPE svg PUBLIC "-//W3C//DTD SVG 1.1//EN" "http://www.w3.org/Graphics/SVG/1.1/DTD/svg11.dtd">
<svg width="100pt" height="100pt" viewBox="0 0 100 100" version="1.1" xmlns="http://www.w3.org/2000/svg">
<path fill="#b5b4b4" opacity="1.00" d=" M 24.54 8.88 C 28.84 11.00 32.98 13.43 37.22 15.67 C 39.08 16.78 41.28 15.81 43.26 15.66 C 49.62 14.42 56.14 15.26 62.35 16.87 C 66.38 12.24 72.55 10.83 78.00 8.60 C 76.79 12.29 74.93 15.84 74.45 19.73 C 76.52 22.56 79.61 24.76 80.53 28.32 C 82.11 33.89 85.35 38.82 86.68 44.48 C 89.39 54.30 86.72 64.93 81.37 73.38 C 75.01 83.35 63.70 89.64 52.02 90.65 C 37.40 91.47 22.70 83.02 16.13 69.91 C 11.10 60.14 10.67 48.10 15.01 38.00 C 17.87 31.78 21.53 25.95 25.67 20.51 C 26.08 16.61 24.93 12.74 24.54 8.88 M 63.00 20.47 C 54.92 18.17 46.41 17.82 38.24 19.91 C 35.10 16.79 31.36 14.40 27.40 12.46 C 27.50 15.18 27.90 17.92 27.48 20.62 C 26.85 22.47 25.56 23.99 24.51 25.62 C 21.44 29.93 20.09 35.12 17.98 39.91 C 13.92 49.29 14.62 60.47 19.64 69.35 C 26.16 81.38 40.31 88.69 53.90 86.89 C 69.84 85.20 83.33 71.05 84.09 55.02 C 85.12 46.27 80.25 38.51 78.80 30.14 C 78.18 26.14 75.09 23.37 72.32 20.73 C 73.05 17.74 73.82 14.76 74.58 11.78 C 69.87 13.37 65.36 15.89 63.00 20.47 Z" />
<path fill="#277373" opacity="1.00" d=" M 63.00 20.47 C 65.36 15.89 69.87 13.37 74.58 11.78 C 73.82 14.76 73.05 17.74 72.32 20.73 C 75.09 23.37 78.18 26.14 78.80 30.14 C 80.25 38.51 85.12 46.27 84.09 55.02 C 83.33 71.05 69.84 85.20 53.90 86.89 C 40.31 88.69 26.16 81.38 19.64 69.35 C 14.62 60.47 13.92 49.29 17.98 39.91 C 20.09 35.12 21.44 29.93 24.51 25.62 C 25.56 23.99 26.85 22.47 27.48 20.62 C 27.90 17.92 27.50 15.18 27.40 12.46 C 31.36 14.40 35.10 16.79 38.24 19.91 C 46.41 17.82 54.92 18.17 63.00 20.47 M 66.24 24.70 C 66.97 26.95 68.60 29.19 68.13 31.64 C 65.70 34.36 59.84 35.62 61.48 40.33 C 63.36 41.44 66.03 42.57 68.01 41.06 C 70.16 39.47 72.43 37.53 73.13 34.84 C 74.21 30.82 69.32 29.00 67.45 26.13 C 69.41 26.28 71.46 26.18 73.34 26.84 C 76.55 29.22 75.86 33.91 74.15 36.99 C 71.17 41.88 65.72 44.23 60.95 46.96 C 61.21 49.16 61.80 51.37 61.55 53.60 C 60.30 55.71 58.36 57.28 56.59 58.93 C 57.09 56.47 57.71 54.03 58.34 51.59 C 54.83 54.91 55.29 59.78 55.53 64.18 C 58.75 61.11 61.82 57.90 64.94 54.73 C 64.30 52.18 63.63 49.64 62.99 47.10 C 68.92 44.12 76.09 40.16 76.68 32.74 C 77.65 28.17 73.23 25.37 70.27 22.81 C 70.72 20.09 71.22 17.37 71.66 14.64 C 68.89 16.96 63.92 20.76 66.24 24.70 M 29.91 15.43 C 30.03 17.83 30.48 20.28 29.95 22.66 C 28.03 26.24 23.11 28.86 24.41 33.55 C 25.05 40.62 32.12 44.21 37.76 47.02 C 37.21 49.52 36.05 52.04 36.40 54.63 C 38.72 58.25 42.10 61.01 45.11 64.02 C 45.65 59.69 45.87 55.01 42.66 51.58 C 43.34 54.25 44.01 56.92 44.52 59.63 C 42.46 57.57 40.16 55.59 38.88 52.92 C 39.17 50.18 40.11 47.57 40.84 44.93 C 43.22 46.11 45.75 47.21 47.62 49.15 C 49.15 51.53 49.79 54.35 50.96 56.91 C 51.93 54.42 52.76 51.88 53.47 49.30 C 56.31 47.78 59.14 46.23 62.00 44.74 C 61.28 43.96 60.56 43.17 59.85 42.39 C 57.03 44.60 54.69 48.10 50.92 48.63 C 47.49 47.35 45.33 44.09 42.73 41.68 C 41.17 43.02 39.64 44.39 38.16 45.81 C 32.11 43.19 24.79 38.60 25.41 31.03 C 25.58 26.11 33.32 27.50 33.83 22.95 C 32.96 20.24 31.27 17.90 29.91 15.43 M 27.54 33.92 C 27.90 37.09 30.53 39.38 32.95 41.16 C 35.58 43.02 38.36 40.30 40.66 39.14 C 36.64 36.41 32.23 33.74 30.68 28.80 C 29.43 30.35 26.97 31.61 27.54 33.92 M 40.71 38.46 C 46.27 39.29 51.93 39.16 57.52 39.67 C 57.52 35.34 53.59 31.74 49.25 32.86 C 46.11 34.05 42.45 35.39 40.71 38.46 M 16.63 55.53 C 22.23 53.95 27.73 52.02 33.30 50.34 C 27.39 50.61 21.66 52.44 16.63 55.53 M 66.42 50.36 C 71.76 51.93 77.12 53.44 82.55 54.65 C 77.73 51.64 72.12 50.01 66.42 50.36 M 18.74 57.90 C 22.57 58.94 26.42 59.92 30.28 60.82 C 28.29 58.86 26.26 56.93 24.22 55.02 C 22.39 55.98 20.57 56.94 18.74 57.90 M 76.10 55.13 C 74.28 57.04 72.46 58.94 70.68 60.89 C 74.53 59.93 78.35 58.89 82.13 57.69 C 80.12 56.83 78.11 55.97 76.10 55.13 M 17.63 59.29 C 18.99 63.86 20.92 68.24 23.41 72.32 C 28.18 70.51 32.62 67.98 37.34 66.05 C 31.54 61.92 24.41 60.79 17.63 59.29 M 63.53 66.00 C 67.86 67.77 71.95 70.04 76.12 72.14 C 78.53 68.27 80.41 64.11 81.86 59.79 C 75.53 61.10 68.97 62.28 63.53 66.00 M 27.56 75.90 C 28.18 76.78 28.81 77.66 29.43 78.54 C 38.95 78.52 48.48 78.48 58.00 78.55 C 62.95 78.54 68.29 79.28 72.70 76.46 C 68.49 75.35 64.17 74.74 59.83 74.50 C 49.07 73.92 38.20 74.02 27.56 75.90 M 36.07 82.27 C 41.71 84.83 48.02 84.47 54.06 84.34 C 57.37 84.32 60.59 83.45 63.65 82.25 C 54.51 81.15 45.20 81.05 36.07 82.27 Z" />
<path fill="#ecf3f3" opacity="1.00" d=" M 66.24 24.70 C 63.92 20.76 68.89 16.96 71.66 14.64 C 71.22 17.37 70.72 20.09 70.27 22.81 C 73.23 25.37 77.65 28.17 76.68 32.74 C 76.09 40.16 68.92 44.12 62.99 47.10 C 63.63 49.64 64.30 52.18 64.94 54.73 C 61.82 57.90 58.75 61.11 55.53 64.18 C 55.29 59.78 54.83 54.91 58.34 51.59 C 57.71 54.03 57.09 56.47 56.59 58.93 C 58.36 57.28 60.30 55.71 61.55 53.60 C 61.80 51.37 61.21 49.16 60.95 46.96 C 65.72 44.23 71.17 41.88 74.15 36.99 C 75.86 33.91 76.55 29.22 73.34 26.84 C 71.46 26.18 69.41 26.28 67.45 26.13 C 67.15 25.77 66.54 25.06 66.24 24.70 Z" />
<path fill="#ffffff" opacity="1.00" d=" M 29.91 15.43 C 31.27 17.90 32.96 20.24 33.83 22.95 C 33.32 27.50 25.58 26.11 25.41 31.03 C 24.79 38.60 32.11 43.19 38.16 45.81 C 39.64 44.39 41.17 43.02 42.73 41.68 C 45.33 44.09 47.49 47.35 50.92 48.63 C 54.69 48.10 57.03 44.60 59.85 42.39 C 60.56 43.17 61.28 43.96 62.00 44.74 C 59.14 46.23 56.31 47.78 53.47 49.30 C 52.76 51.88 51.93 54.42 50.96 56.91 C 49.79 54.35 49.15 51.53 47.62 49.15 C 45.75 47.21 43.22 46.11 40.84 44.93 C 40.11 47.57 39.17 50.18 38.88 52.92 C 40.16 55.59 42.46 57.57 44.52 59.63 C 44.01 56.92 43.34 54.25 42.66 51.58 C 45.87 55.01 45.65 59.69 45.11 64.02 C 42.10 61.01 38.72 58.25 36.40 54.63 C 36.05 52.04 37.21 49.52 37.76 47.02 C 32.12 44.21 25.05 40.62 24.41 33.55 C 23.11 28.86 28.03 26.24 29.95 22.66 C 30.48 20.28 30.03 17.83 29.91 15.43 Z" />
<path fill="#ffffff" opacity="1.00" d=" M 66.24 24.70 C 66.54 25.06 67.15 25.77 67.45 26.13 C 69.32 29.00 74.21 30.82 73.13 34.84 C 72.43 37.53 70.16 39.47 68.01 41.06 C 66.03 42.57 63.36 41.44 61.48 40.33 C 59.84 35.62 65.70 34.36 68.13 31.64 C 68.60 29.19 66.97 26.95 66.24 24.70 Z" />
<path fill="#ffffff" opacity="1.00" d=" M 27.54 33.92 C 26.97 31.61 29.43 30.35 30.68 28.80 C 32.23 33.74 36.64 36.41 40.66 39.14 C 38.36 40.30 35.58 43.02 32.95 41.16 C 30.53 39.38 27.90 37.09 27.54 33.92 Z" />
<path fill="#ffffff" opacity="1.00" d=" M 40.71 38.46 C 42.45 35.39 46.11 34.05 49.25 32.86 C 53.59 31.74 57.52 35.34 57.52 39.67 C 51.93 39.16 46.27 39.29 40.71 38.46 Z" />
<path fill="#ecf3f3" opacity="1.00" d=" M 16.63 55.53 C 21.66 52.44 27.39 50.61 33.30 50.34 C 27.73 52.02 22.23 53.95 16.63 55.53 Z" />
<path fill="#ecf3f3" opacity="1.00" d=" M 66.42 50.36 C 72.12 50.01 77.73 51.64 82.55 54.65 C 77.12 53.44 71.76 51.93 66.42 50.36 Z" />
<path fill="#ffffff" opacity="1.00" d=" M 18.74 57.90 C 20.57 56.94 22.39 55.98 24.22 55.02 C 26.26 56.93 28.29 58.86 30.28 60.82 C 26.42 59.92 22.57 58.94 18.74 57.90 Z" />
<path fill="#ffffff" opacity="1.00" d=" M 76.10 55.13 C 78.11 55.97 80.12 56.83 82.13 57.69 C 78.35 58.89 74.53 59.93 70.68 60.89 C 72.46 58.94 74.28 57.04 76.10 55.13 Z" />
<path fill="#ffffff" opacity="1.00" d=" M 17.63 59.29 C 24.41 60.79 31.54 61.92 37.34 66.05 C 32.62 67.98 28.18 70.51 23.41 72.32 C 20.92 68.24 18.99 63.86 17.63 59.29 Z" />
<path fill="#ffffff" opacity="1.00" d=" M 63.53 66.00 C 68.97 62.28 75.53 61.10 81.86 59.79 C 80.41 64.11 78.53 68.27 76.12 72.14 C 71.95 70.04 67.86 67.77 63.53 66.00 Z" />
<path fill="#ffffff" opacity="1.00" d=" M 27.56 75.90 C 38.20 74.02 49.07 73.92 59.83 74.50 C 64.17 74.74 68.49 75.35 72.70 76.46 C 68.29 79.28 62.95 78.54 58.00 78.55 C 48.48 78.48 38.95 78.52 29.43 78.54 C 28.81 77.66 28.18 76.78 27.56 75.90 Z" />
<path fill="#f9fbfb" opacity="1.00" d=" M 36.07 82.27 C 45.20 81.05 54.51 81.15 63.65 82.25 C 60.59 83.45 57.37 84.32 54.06 84.34 C 48.02 84.47 41.71 84.83 36.07 82.27 Z" />
</svg>
