<?xml version="1.0" encoding="UTF-8" ?>
<!DOCTYPE svg PUBLIC "-//W3C//DTD SVG 1.1//EN" "http://www.w3.org/Graphics/SVG/1.1/DTD/svg11.dtd">
<svg width="100pt" height="100pt" viewBox="0 0 100 100" version="1.1" xmlns="http://www.w3.org/2000/svg">
<path fill="#ffffff" opacity="1.00" d=" M 42.48 12.61 C 60.90 8.26 81.21 20.56 86.40 38.69 C 91.92 54.40 84.75 73.04 70.87 81.91 C 61.49 87.93 49.42 90.22 38.74 86.42 C 20.05 81.11 7.60 59.73 12.97 40.93 C 16.24 26.80 28.26 15.34 42.48 12.61 M 17.05 39.08 C 13.53 49.10 15.56 60.24 20.84 69.26 C 23.62 66.64 26.99 64.49 29.07 61.22 C 30.75 56.14 29.83 50.60 31.36 45.48 C 32.68 42.08 34.94 39.15 36.93 36.12 C 41.77 37.12 47.56 34.89 51.37 38.96 C 49.28 38.72 47.19 38.45 45.11 38.13 C 46.57 39.18 48.01 40.24 49.46 41.30 C 54.71 41.11 56.95 46.60 59.81 50.03 C 56.47 52.28 53.42 55.01 49.69 56.62 C 48.06 56.91 46.74 55.75 45.38 55.07 C 48.24 52.28 51.27 49.67 54.13 46.89 C 51.06 48.78 48.13 50.88 45.14 52.88 C 44.33 51.83 43.52 50.78 42.72 49.73 C 44.55 47.92 46.40 46.12 48.21 44.27 C 45.05 44.46 41.88 44.56 38.71 44.50 C 40.38 48.01 42.31 51.46 43.31 55.24 C 43.13 58.32 41.08 60.95 39.88 63.72 C 41.65 61.67 43.44 59.64 45.03 57.45 C 47.46 59.30 50.12 60.97 53.15 61.63 C 55.81 61.14 58.14 59.63 60.62 58.59 C 59.15 65.87 51.60 68.31 46.58 72.64 C 43.04 75.29 41.48 79.57 39.54 83.37 C 46.57 84.87 54.04 85.40 60.93 82.96 C 75.44 78.35 85.75 63.33 84.64 48.11 C 84.08 31.30 69.62 16.38 52.81 15.41 C 37.27 13.82 21.76 24.26 17.05 39.08 Z" />
<path fill="#482b46" opacity="1.00" d=" M 17.05 39.08 C 21.76 24.26 37.27 13.82 52.81 15.41 C 69.62 16.38 84.08 31.30 84.64 48.11 C 85.75 63.33 75.44 78.35 60.93 82.96 C 54.04 85.40 46.57 84.87 39.54 83.37 C 41.48 79.57 43.04 75.29 46.58 72.64 C 51.60 68.31 59.15 65.87 60.62 58.59 C 58.14 59.63 55.81 61.14 53.15 61.63 C 50.12 60.97 47.46 59.30 45.03 57.45 C 43.44 59.64 41.65 61.67 39.88 63.72 C 41.08 60.95 43.13 58.32 43.31 55.24 C 42.31 51.46 40.38 48.01 38.71 44.50 C 41.88 44.56 45.05 44.46 48.21 44.27 C 46.40 46.12 44.55 47.92 42.72 49.73 C 43.52 50.78 44.33 51.83 45.14 52.88 C 48.13 50.88 51.06 48.78 54.13 46.89 C 51.27 49.67 48.24 52.28 45.38 55.07 C 46.74 55.75 48.06 56.91 49.69 56.62 C 53.42 55.01 56.47 52.28 59.81 50.03 C 56.95 46.60 54.71 41.11 49.46 41.30 C 48.01 40.24 46.57 39.18 45.11 38.13 C 47.19 38.45 49.28 38.72 51.37 38.96 C 47.56 34.89 41.77 37.12 36.93 36.12 C 34.94 39.15 32.68 42.08 31.36 45.48 C 29.83 50.60 30.75 56.14 29.07 61.22 C 26.99 64.49 23.62 66.64 20.84 69.26 C 15.56 60.24 13.53 49.10 17.05 39.08 M 49.69 23.78 C 52.26 24.23 54.79 24.82 57.29 25.56 C 56.35 24.42 55.42 23.28 54.49 22.13 C 52.90 22.70 51.30 23.26 49.69 23.78 M 44.81 30.17 C 50.54 30.58 54.85 34.36 59.53 37.21 C 59.90 39.33 60.18 41.48 60.81 43.55 C 61.75 46.55 64.33 48.62 65.67 51.41 C 66.09 55.10 65.41 58.82 65.39 62.52 C 67.14 58.50 68.40 54.30 69.95 50.21 C 68.16 47.60 66.01 45.10 65.13 42.00 C 64.40 39.28 64.15 36.48 63.76 33.70 C 59.81 32.45 55.97 30.79 52.78 28.08 C 50.14 28.84 47.48 29.55 44.81 30.17 M 71.44 44.56 C 72.06 47.67 72.49 50.81 72.67 53.97 C 73.32 52.25 73.99 50.54 74.68 48.84 C 73.59 47.42 72.51 46.00 71.44 44.56 M 41.57 46.22 C 41.72 47.66 42.37 47.91 43.51 46.97 C 43.36 45.53 42.71 45.28 41.57 46.22 M 49.73 58.03 C 50.60 59.04 51.46 60.04 52.33 61.05 C 54.76 59.91 57.22 58.85 59.52 57.46 C 61.93 56.35 60.31 53.33 60.37 51.35 C 56.78 53.51 53.22 55.71 49.73 58.03 Z" />
<path fill="#ffffff" opacity="1.00" d=" M 49.69 23.78 C 51.30 23.26 52.90 22.70 54.49 22.13 C 55.42 23.28 56.35 24.42 57.29 25.56 C 54.79 24.82 52.26 24.23 49.69 23.78 Z" />
<path fill="#ffffff" opacity="1.00" d=" M 44.81 30.17 C 47.48 29.55 50.14 28.84 52.78 28.08 C 55.97 30.79 59.81 32.45 63.76 33.70 C 64.15 36.48 64.40 39.28 65.13 42.00 C 66.01 45.10 68.16 47.60 69.95 50.21 C 68.40 54.30 67.14 58.50 65.39 62.52 C 65.41 58.82 66.09 55.10 65.67 51.41 C 64.33 48.62 61.75 46.55 60.81 43.55 C 60.18 41.48 59.90 39.33 59.53 37.21 C 54.85 34.36 50.54 30.58 44.81 30.17 Z" />
<path fill="#ffffff" opacity="1.00" d=" M 71.44 44.56 C 72.51 46.00 73.59 47.42 74.68 48.84 C 73.99 50.54 73.32 52.25 72.67 53.97 C 72.49 50.81 72.06 47.67 71.44 44.56 Z" />
<path fill="#fffcff" opacity="1.00" d=" M 41.57 46.22 C 42.71 45.28 43.36 45.53 43.51 46.97 C 42.37 47.91 41.72 47.66 41.57 46.22 Z" />
<path fill="#ffffff" opacity="1.00" d=" M 49.73 58.03 C 53.22 55.71 56.78 53.51 60.37 51.35 C 60.31 53.33 61.93 56.35 59.52 57.46 C 57.22 58.85 54.76 59.91 52.33 61.05 C 51.46 60.04 50.60 59.04 49.73 58.03 Z" />
</svg>
