<?xml version="1.0" encoding="UTF-8" ?>
<!DOCTYPE svg PUBLIC "-//W3C//DTD SVG 1.1//EN" "http://www.w3.org/Graphics/SVG/1.1/DTD/svg11.dtd">
<svg width="100pt" height="100pt" viewBox="0 0 100 100" version="1.1" xmlns="http://www.w3.org/2000/svg">
<path fill="#ffffff" opacity="1.00" d=" M 43.69 3.64 C 47.28 0.30 53.21 1.13 56.19 4.84 C 58.04 7.01 56.83 9.94 56.54 12.43 C 65.37 14.03 73.65 18.67 79.35 25.64 C 84.81 32.17 87.73 40.55 88.36 48.97 C 88.38 61.89 81.91 74.87 70.92 81.89 C 67.14 84.57 62.63 85.76 58.39 87.44 C 55.60 91.26 52.91 95.19 49.37 98.40 C 46.38 95.07 43.65 91.52 41.36 87.68 C 39.65 86.53 37.60 86.06 35.72 85.27 C 24.65 81.08 16.12 71.17 13.16 59.77 C 8.33 43.94 16.20 25.65 30.32 17.34 C 33.81 15.19 37.71 13.85 41.63 12.71 C 41.54 9.62 40.82 5.77 43.69 3.64 M 43.46 7.46 C 43.58 10.01 44.80 12.34 45.26 14.82 C 40.47 17.32 34.75 17.91 30.41 21.38 C 16.86 30.27 11.40 49.15 18.17 63.88 C 22.55 74.37 32.46 81.49 43.23 84.37 C 43.97 88.66 46.39 92.29 49.33 95.39 C 52.76 92.51 55.40 88.78 56.34 84.34 C 64.94 82.20 73.08 77.56 78.21 70.20 C 87.49 57.79 86.72 39.13 76.43 27.54 C 70.66 20.49 62.00 16.67 53.20 15.11 C 53.88 12.46 54.96 9.87 55.15 7.12 C 53.18 2.52 45.02 2.54 43.46 7.46 Z" />
<path fill="#482b46" opacity="1.00" d=" M 43.46 7.46 C 45.02 2.54 53.18 2.52 55.15 7.12 C 54.96 9.87 53.88 12.46 53.20 15.11 C 62.00 16.67 70.66 20.49 76.43 27.54 C 86.72 39.13 87.49 57.79 78.21 70.20 C 73.08 77.56 64.94 82.20 56.34 84.34 C 55.40 88.78 52.76 92.51 49.33 95.39 C 46.39 92.29 43.97 88.66 43.23 84.37 C 32.46 81.49 22.55 74.37 18.17 63.88 C 11.40 49.15 16.86 30.27 30.41 21.38 C 34.75 17.91 40.47 17.32 45.26 14.82 C 44.80 12.34 43.58 10.01 43.46 7.46 M 46.23 6.53 C 48.51 11.79 48.35 18.09 46.37 23.35 C 43.18 24.82 39.55 24.19 36.15 24.36 C 36.04 25.05 35.83 26.42 35.72 27.11 C 38.81 27.15 41.89 27.16 44.98 27.17 C 45.22 29.65 45.44 32.14 45.66 34.62 C 47.57 34.99 49.52 35.83 51.48 35.46 C 55.05 34.54 53.40 29.85 54.11 27.13 C 57.21 27.16 60.31 27.15 63.41 27.14 C 63.20 26.46 62.76 25.12 62.55 24.44 C 59.12 24.14 55.06 25.18 52.20 22.75 C 51.08 17.55 49.72 11.76 52.73 6.90 C 50.57 6.71 48.40 6.56 46.23 6.53 M 32.37 36.85 C 34.76 41.64 39.03 44.87 43.55 47.50 C 47.07 50.17 52.42 51.01 56.04 48.08 C 60.25 44.91 66.20 42.16 66.93 36.32 C 65.43 34.72 63.67 33.38 61.98 31.99 C 58.69 35.40 55.07 39.31 50.00 39.63 C 44.94 39.34 41.33 35.40 38.03 32.00 C 36.15 33.62 34.25 35.23 32.37 36.85 M 21.71 44.13 C 25.65 46.17 29.86 47.63 34.26 48.30 C 35.88 43.44 33.04 39.13 30.07 35.56 C 27.20 38.33 24.41 41.19 21.71 44.13 M 65.48 42.58 C 65.08 44.48 65.58 46.41 65.76 48.30 C 70.14 47.63 74.35 46.16 78.29 44.13 C 75.58 41.19 72.79 38.32 69.92 35.54 C 68.30 37.78 66.36 39.91 65.48 42.58 M 36.31 44.08 C 36.03 45.72 35.74 47.35 35.43 48.99 C 36.69 49.90 37.95 50.81 39.21 51.73 C 39.85 50.26 40.48 48.78 41.11 47.31 C 39.51 46.24 37.91 45.16 36.31 44.08 M 58.89 47.23 C 59.34 48.78 59.79 50.33 60.24 51.88 C 61.56 50.89 62.88 49.91 64.21 48.93 C 64.07 47.26 63.93 45.58 63.81 43.91 C 62.17 45.02 60.53 46.12 58.89 47.23 M 40.16 51.96 C 41.75 53.48 43.35 54.98 44.95 56.47 C 45.87 54.95 46.78 53.43 47.70 51.91 C 46.14 50.85 44.60 49.76 42.94 48.85 C 42.04 49.91 41.09 50.92 40.16 51.96 M 52.23 51.82 C 52.99 53.33 53.74 54.85 54.48 56.37 C 56.25 54.95 57.99 53.50 59.71 52.01 C 58.79 50.99 57.90 49.96 57.01 48.91 C 55.36 49.77 53.81 50.82 52.23 51.82 M 60.92 53.64 C 61.63 54.62 62.35 55.60 63.06 56.58 C 63.77 54.38 64.46 52.17 65.11 49.95 C 63.70 51.16 62.31 52.40 60.92 53.64 M 34.95 50.62 C 35.62 52.62 36.30 54.61 37.00 56.60 C 37.65 55.45 38.29 54.29 38.92 53.13 C 37.60 52.29 36.28 51.45 34.95 50.62 M 46.12 57.62 C 47.40 58.50 48.66 59.40 49.93 60.29 C 51.07 59.19 52.22 58.09 53.37 56.99 C 52.23 54.90 51.10 52.82 49.96 50.73 C 48.68 53.02 47.39 55.32 46.12 57.62 M 37.85 58.15 C 39.44 59.25 41.05 60.36 42.67 61.43 C 43.16 60.25 43.65 59.06 44.14 57.87 C 42.73 56.70 41.32 55.52 39.92 54.34 C 39.22 55.61 38.53 56.88 37.85 58.15 M 55.39 58.09 C 56.18 59.28 56.97 60.48 57.77 61.67 C 59.22 60.44 60.67 59.22 62.13 58.00 C 61.42 56.72 60.71 55.44 60.00 54.17 C 58.46 55.47 56.92 56.78 55.39 58.09 M 45.21 58.88 C 44.52 60.15 43.83 61.42 43.14 62.68 C 44.62 63.81 46.08 64.95 47.55 66.09 C 48.20 64.97 48.85 63.84 49.49 62.71 C 48.08 61.42 46.65 60.14 45.21 58.88 M 50.21 62.26 C 50.90 63.58 51.58 64.91 52.28 66.24 C 53.67 65.12 55.13 64.06 56.34 62.74 C 56.02 61.42 55.47 60.18 55.01 58.91 C 53.40 60.01 51.80 61.13 50.21 62.26 M 38.82 60.90 C 39.25 64.39 40.37 67.89 43.73 69.57 C 44.36 69.07 45.64 68.08 46.28 67.58 C 43.86 65.28 41.39 63.03 38.82 60.90 M 60.08 61.45 C 58.41 61.55 58.22 64.51 60.00 64.58 C 61.60 64.47 61.78 61.52 60.08 61.45 M 53.31 68.14 C 55.71 69.10 58.10 68.23 60.32 67.26 C 59.44 66.05 58.54 64.86 57.65 63.66 C 56.14 65.10 54.69 66.59 53.31 68.14 M 49.14 65.54 C 47.77 66.50 49.46 68.69 50.74 67.62 C 52.11 66.66 50.42 64.47 49.14 65.54 M 36.47 67.22 C 38.80 72.08 44.58 73.18 49.29 74.52 C 53.16 74.49 56.79 72.66 60.36 71.32 C 62.39 70.70 63.25 68.66 64.28 67.00 C 60.98 67.96 57.84 69.35 54.71 70.74 C 53.84 69.71 52.95 68.69 52.06 67.68 C 51.43 69.32 50.81 70.96 50.22 72.61 C 49.94 72.74 49.39 73.00 49.11 73.13 C 48.71 71.26 48.32 69.40 47.82 67.56 C 46.94 68.65 46.07 69.74 45.19 70.82 C 42.33 69.51 39.45 68.22 36.47 67.22 M 45.96 78.23 C 45.94 83.05 45.64 88.55 49.86 91.86 C 53.40 88.25 53.51 83.18 53.25 78.45 C 50.82 78.47 48.38 78.39 45.96 78.23 Z" />
<path fill="#ffffff" opacity="1.00" d=" M 46.23 6.53 C 48.40 6.56 50.57 6.71 52.73 6.90 C 49.72 11.76 51.08 17.55 52.20 22.75 C 55.06 25.18 59.12 24.14 62.55 24.44 C 62.76 25.12 63.20 26.46 63.41 27.14 C 60.31 27.15 57.21 27.16 54.11 27.13 C 53.40 29.85 55.05 34.54 51.48 35.46 C 49.52 35.83 47.57 34.99 45.66 34.62 C 45.44 32.14 45.22 29.65 44.98 27.17 C 41.89 27.16 38.81 27.15 35.72 27.11 C 35.83 26.42 36.04 25.05 36.15 24.36 C 39.55 24.19 43.18 24.82 46.37 23.35 C 48.35 18.09 48.51 11.79 46.23 6.53 Z" />
<path fill="#ffffff" opacity="1.00" d=" M 32.37 36.85 C 34.25 35.23 36.15 33.62 38.03 32.00 C 41.33 35.40 44.94 39.34 50.00 39.63 C 55.07 39.31 58.69 35.40 61.98 31.99 C 63.67 33.38 65.43 34.72 66.93 36.32 C 66.20 42.16 60.25 44.91 56.04 48.08 C 52.42 51.01 47.07 50.17 43.55 47.50 C 39.03 44.87 34.76 41.64 32.37 36.85 Z" />
<path fill="#ffffff" opacity="1.00" d=" M 21.71 44.13 C 24.41 41.19 27.20 38.33 30.07 35.56 C 33.04 39.13 35.88 43.44 34.26 48.30 C 29.86 47.63 25.65 46.17 21.71 44.13 Z" />
<path fill="#ffffff" opacity="1.00" d=" M 65.48 42.58 C 66.36 39.91 68.30 37.78 69.92 35.54 C 72.79 38.32 75.58 41.19 78.29 44.13 C 74.35 46.16 70.14 47.63 65.76 48.30 C 65.58 46.41 65.08 44.48 65.48 42.58 Z" />
<path fill="#ffffff" opacity="1.00" d=" M 36.31 44.08 C 37.91 45.16 39.51 46.24 41.11 47.31 C 40.48 48.78 39.85 50.26 39.21 51.73 C 37.95 50.81 36.69 49.90 35.43 48.99 C 35.74 47.35 36.03 45.72 36.31 44.08 Z" />
<path fill="#ffffff" opacity="1.00" d=" M 58.89 47.23 C 60.53 46.12 62.17 45.02 63.81 43.91 C 63.93 45.58 64.07 47.26 64.21 48.93 C 62.88 49.91 61.56 50.89 60.24 51.88 C 59.79 50.33 59.34 48.78 58.89 47.23 Z" />
<path fill="#ffffff" opacity="1.00" d=" M 40.16 51.96 C 41.09 50.92 42.04 49.91 42.94 48.85 C 44.60 49.76 46.14 50.85 47.70 51.91 C 46.78 53.43 45.87 54.95 44.95 56.47 C 43.35 54.98 41.75 53.48 40.16 51.96 Z" />
<path fill="#ffffff" opacity="1.00" d=" M 52.23 51.82 C 53.81 50.82 55.36 49.77 57.01 48.91 C 57.90 49.96 58.79 50.99 59.71 52.01 C 57.99 53.50 56.25 54.95 54.48 56.37 C 53.74 54.85 52.99 53.33 52.23 51.82 Z" />
<path fill="#ffffff" opacity="1.00" d=" M 60.92 53.64 C 62.31 52.40 63.70 51.16 65.11 49.95 C 64.46 52.17 63.77 54.38 63.06 56.58 C 62.35 55.60 61.63 54.62 60.92 53.64 Z" />
<path fill="#ffffff" opacity="1.00" d=" M 34.95 50.62 C 36.28 51.45 37.60 52.29 38.92 53.13 C 38.29 54.29 37.65 55.45 37.00 56.60 C 36.30 54.61 35.62 52.62 34.95 50.62 Z" />
<path fill="#ffffff" opacity="1.00" d=" M 46.12 57.62 C 47.39 55.32 48.68 53.02 49.96 50.73 C 51.10 52.82 52.23 54.90 53.37 56.99 C 52.22 58.09 51.07 59.19 49.93 60.29 C 48.66 59.40 47.40 58.50 46.12 57.62 Z" />
<path fill="#ffffff" opacity="1.00" d=" M 37.85 58.15 C 38.53 56.88 39.22 55.61 39.92 54.34 C 41.32 55.52 42.73 56.70 44.14 57.87 C 43.65 59.06 43.16 60.25 42.67 61.43 C 41.05 60.36 39.44 59.25 37.85 58.15 Z" />
<path fill="#ffffff" opacity="1.00" d=" M 55.39 58.09 C 56.92 56.78 58.46 55.47 60.00 54.17 C 60.71 55.44 61.42 56.72 62.13 58.00 C 60.67 59.22 59.22 60.44 57.77 61.67 C 56.97 60.48 56.18 59.28 55.39 58.09 Z" />
<path fill="#ffffff" opacity="1.00" d=" M 45.21 58.88 C 46.65 60.14 48.08 61.42 49.49 62.71 C 48.85 63.84 48.20 64.97 47.55 66.09 C 46.08 64.95 44.62 63.81 43.14 62.68 C 43.83 61.42 44.52 60.15 45.21 58.88 Z" />
<path fill="#ffffff" opacity="1.00" d=" M 50.21 62.26 C 51.80 61.13 53.40 60.01 55.01 58.91 C 55.47 60.18 56.02 61.42 56.34 62.74 C 55.13 64.06 53.67 65.12 52.28 66.24 C 51.58 64.91 50.90 63.58 50.21 62.26 Z" />
<path fill="#ffffff" opacity="1.00" d=" M 38.82 60.90 C 41.39 63.03 43.86 65.28 46.28 67.58 C 45.64 68.08 44.36 69.07 43.73 69.57 C 40.37 67.89 39.25 64.39 38.82 60.90 Z" />
<path fill="#ffffff" opacity="1.00" d=" M 60.08 61.45 C 61.78 61.52 61.60 64.47 60.00 64.58 C 58.22 64.51 58.41 61.55 60.08 61.45 Z" />
<path fill="#f7f3f7" opacity="1.00" d=" M 53.31 68.14 C 54.69 66.59 56.14 65.10 57.65 63.66 C 58.54 64.86 59.44 66.05 60.32 67.26 C 58.10 68.23 55.71 69.10 53.31 68.14 Z" />
<path fill="#fbf5fb" opacity="1.00" d=" M 49.14 65.54 C 50.42 64.47 52.11 66.66 50.74 67.62 C 49.46 68.69 47.77 66.50 49.14 65.54 Z" />
<path fill="#f5f3f5" opacity="1.00" d=" M 36.47 67.22 C 39.45 68.22 42.33 69.51 45.19 70.82 C 46.07 69.74 46.94 68.65 47.82 67.56 C 48.32 69.40 48.71 71.26 49.11 73.13 C 49.39 73.00 49.94 72.74 50.22 72.61 C 50.81 70.96 51.43 69.32 52.06 67.68 C 52.95 68.69 53.84 69.71 54.71 70.74 C 57.84 69.35 60.98 67.96 64.28 67.00 C 63.25 68.66 62.39 70.70 60.36 71.32 C 56.79 72.66 53.16 74.49 49.29 74.52 C 44.58 73.18 38.80 72.08 36.47 67.22 Z" />
<path fill="#ffffff" opacity="1.00" d=" M 45.96 78.23 C 48.38 78.39 50.82 78.47 53.25 78.45 C 53.51 83.18 53.40 88.25 49.86 91.86 C 45.64 88.55 45.94 83.05 45.96 78.23 Z" />
</svg>
