<?xml version="1.0" encoding="UTF-8" ?>
<!DOCTYPE svg PUBLIC "-//W3C//DTD SVG 1.1//EN" "http://www.w3.org/Graphics/SVG/1.1/DTD/svg11.dtd">
<svg width="100pt" height="100pt" viewBox="0 0 100 100" version="1.1" xmlns="http://www.w3.org/2000/svg">
<path fill="#ffffff" opacity="1.00" d=" M 43.68 3.65 C 47.27 0.27 53.25 1.13 56.22 4.88 C 58.03 7.04 56.85 9.93 56.57 12.40 C 65.14 14.04 73.22 18.41 78.89 25.10 C 84.63 31.70 87.72 40.31 88.36 48.97 C 88.38 61.89 81.91 74.88 70.91 81.89 C 67.13 84.57 62.62 85.76 58.39 87.47 C 55.56 91.26 52.84 95.17 49.44 98.50 C 46.84 95.42 44.16 92.37 42.13 88.86 C 41.08 86.72 38.43 86.49 36.49 85.57 C 25.08 81.52 16.19 71.46 13.16 59.79 C 8.26 43.71 16.43 25.12 30.95 16.96 C 34.28 15.01 37.95 13.79 41.63 12.71 C 41.54 9.63 40.81 5.78 43.68 3.65 M 43.53 7.43 C 43.63 10.03 44.88 12.40 45.18 14.96 C 43.04 16.10 40.62 16.54 38.37 17.43 C 27.60 20.99 19.11 30.43 16.36 41.39 C 13.72 51.64 16.02 63.07 22.66 71.36 C 27.66 78.04 35.29 82.00 43.13 84.36 C 44.07 88.66 46.49 92.33 49.40 95.55 C 52.65 92.45 55.30 88.74 56.39 84.33 C 60.76 83.03 65.17 81.59 68.98 79.03 C 78.37 72.98 84.52 62.17 84.69 50.96 C 85.06 41.07 80.84 31.16 73.52 24.51 C 68.01 19.17 60.59 16.55 53.20 15.09 C 53.96 12.46 54.92 9.87 55.18 7.13 C 53.22 2.55 45.04 2.50 43.53 7.43 Z" />
<path fill="#482b46" opacity="1.00" d=" M 43.53 7.43 C 45.04 2.50 53.22 2.55 55.18 7.13 C 54.92 9.87 53.96 12.46 53.20 15.09 C 60.59 16.55 68.01 19.17 73.52 24.51 C 80.84 31.16 85.06 41.07 84.69 50.96 C 84.52 62.17 78.37 72.98 68.98 79.03 C 65.17 81.59 60.76 83.03 56.39 84.33 C 55.30 88.74 52.65 92.45 49.40 95.55 C 46.49 92.33 44.07 88.66 43.13 84.36 C 35.29 82.00 27.66 78.04 22.66 71.36 C 16.02 63.07 13.72 51.64 16.36 41.39 C 19.11 30.43 27.60 20.99 38.37 17.43 C 40.62 16.54 43.04 16.10 45.18 14.96 C 44.88 12.40 43.63 10.03 43.53 7.43 M 46.41 6.53 C 48.42 11.69 48.00 17.37 46.95 22.69 C 43.94 25.17 39.71 24.07 36.13 24.40 C 36.01 25.09 35.76 26.46 35.64 27.15 C 38.78 27.16 41.93 27.16 45.07 27.15 C 45.26 29.56 45.41 31.98 45.59 34.40 C 48.25 34.40 50.92 34.52 53.57 34.19 C 53.73 31.84 53.84 29.48 53.94 27.13 C 57.13 27.16 60.32 27.17 63.51 27.16 C 63.26 26.48 62.77 25.14 62.52 24.47 C 59.10 24.16 55.10 25.09 52.22 22.73 C 50.82 17.45 50.22 11.75 52.34 6.56 C 50.36 6.55 48.38 6.48 46.41 6.53 M 33.11 35.38 C 33.73 37.98 34.33 40.60 34.81 43.23 C 33.66 41.13 32.63 38.97 31.62 36.80 C 29.74 37.37 27.86 37.95 25.97 38.52 C 26.88 40.71 27.66 42.98 28.94 45.00 C 30.40 46.92 33.26 48.70 35.24 46.43 C 40.43 43.55 38.50 37.09 37.43 32.50 C 35.99 33.46 34.55 34.42 33.11 35.38 M 62.99 33.37 C 61.81 35.81 60.65 38.26 59.41 40.67 C 58.09 43.50 55.27 45.10 52.86 46.90 C 47.58 50.57 42.38 54.35 37.19 58.15 C 37.23 60.14 37.26 62.14 37.28 64.13 C 45.20 58.78 53.23 53.58 61.12 48.19 C 60.58 46.68 60.03 45.17 59.49 43.66 C 61.13 45.21 62.74 46.80 64.37 48.37 C 67.91 46.13 70.69 42.97 72.68 39.30 C 69.29 37.59 66.00 35.70 62.99 33.37 M 38.46 34.75 C 39.29 37.19 39.89 39.73 41.07 42.04 C 42.86 44.51 45.49 46.18 47.80 48.11 C 50.40 46.26 53.10 44.54 55.57 42.52 C 57.99 40.62 58.94 37.57 60.22 34.90 C 56.50 36.22 53.01 38.43 49.05 38.93 C 45.32 38.13 41.98 36.16 38.46 34.75 M 25.72 42.88 C 25.01 46.30 25.29 49.79 26.95 52.91 C 28.80 51.81 30.57 50.60 32.32 49.37 C 30.05 47.27 27.89 45.08 25.72 42.88 M 39.52 43.11 C 37.95 45.16 36.15 47.05 34.82 49.28 C 34.64 51.71 35.43 54.08 35.84 56.46 C 39.36 54.03 42.80 51.48 46.24 48.93 C 44.00 46.99 41.75 45.06 39.52 43.11 M 66.25 49.11 C 66.85 50.02 67.46 50.91 68.08 51.80 C 70.12 51.04 72.11 50.18 74.15 49.43 C 73.58 47.06 73.01 44.69 72.41 42.32 C 70.42 44.64 68.41 46.95 66.25 49.11 M 54.28 54.83 C 56.47 56.90 58.65 58.99 60.82 61.08 C 61.34 57.32 62.08 53.60 62.88 49.89 C 59.98 51.49 57.12 53.15 54.28 54.83 M 36.46 66.52 C 40.88 67.80 45.28 69.63 49.93 69.81 C 53.88 69.35 57.57 67.70 61.48 67.00 C 57.88 69.08 54.10 71.10 49.97 71.86 C 45.42 71.28 41.26 69.14 36.97 67.63 C 36.69 68.75 36.42 69.88 36.14 71.00 C 40.76 72.14 45.25 74.05 50.01 74.47 C 54.82 74.13 59.32 72.06 63.76 70.31 C 62.79 67.97 62.07 65.46 60.59 63.37 C 58.20 60.49 55.14 58.27 52.32 55.83 C 47.05 59.43 41.55 62.67 36.46 66.52 M 45.82 78.17 C 45.81 83.11 45.99 88.46 49.82 92.12 C 53.12 88.28 53.46 83.24 53.46 78.42 C 50.91 78.42 48.36 78.33 45.82 78.17 Z" />
<path fill="#ffffff" opacity="1.00" d=" M 46.41 6.53 C 48.38 6.48 50.36 6.55 52.34 6.56 C 50.22 11.75 50.82 17.45 52.22 22.73 C 55.10 25.09 59.10 24.16 62.52 24.47 C 62.77 25.14 63.26 26.48 63.51 27.16 C 60.32 27.17 57.13 27.16 53.94 27.13 C 53.84 29.48 53.73 31.84 53.57 34.19 C 50.92 34.52 48.25 34.40 45.59 34.40 C 45.41 31.98 45.26 29.56 45.07 27.15 C 41.93 27.16 38.78 27.16 35.64 27.15 C 35.76 26.46 36.01 25.09 36.13 24.40 C 39.71 24.07 43.94 25.17 46.95 22.69 C 48.00 17.37 48.42 11.69 46.41 6.53 Z" />
<path fill="#ffffff" opacity="1.00" d=" M 33.11 35.38 C 34.55 34.42 35.99 33.46 37.43 32.50 C 38.50 37.09 40.43 43.55 35.24 46.43 C 33.26 48.70 30.40 46.92 28.94 45.00 C 27.66 42.98 26.88 40.71 25.97 38.52 C 27.86 37.95 29.74 37.37 31.62 36.80 C 32.63 38.97 33.66 41.13 34.81 43.23 C 34.33 40.60 33.73 37.98 33.11 35.38 Z" />
<path fill="#ffffff" opacity="1.00" d=" M 62.99 33.37 C 66.00 35.70 69.29 37.59 72.68 39.30 C 70.69 42.97 67.91 46.13 64.37 48.37 C 62.74 46.80 61.13 45.21 59.49 43.66 C 60.03 45.17 60.58 46.68 61.12 48.19 C 53.23 53.58 45.20 58.78 37.28 64.13 C 37.26 62.14 37.23 60.14 37.19 58.15 C 42.38 54.35 47.58 50.57 52.86 46.90 C 55.27 45.10 58.09 43.50 59.41 40.67 C 60.65 38.26 61.81 35.81 62.99 33.37 Z" />
<path fill="#ffffff" opacity="1.00" d=" M 38.46 34.75 C 41.98 36.16 45.32 38.13 49.05 38.93 C 53.01 38.43 56.50 36.22 60.22 34.90 C 58.94 37.57 57.99 40.62 55.57 42.52 C 53.10 44.54 50.40 46.26 47.80 48.11 C 45.49 46.18 42.86 44.51 41.07 42.04 C 39.89 39.73 39.29 37.19 38.46 34.75 Z" />
<path fill="#ffffff" opacity="1.00" d=" M 25.72 42.88 C 27.89 45.08 30.05 47.27 32.32 49.37 C 30.57 50.60 28.80 51.81 26.95 52.91 C 25.29 49.79 25.01 46.30 25.72 42.88 Z" />
<path fill="#ffffff" opacity="1.00" d=" M 39.52 43.11 C 41.75 45.06 44.00 46.99 46.24 48.93 C 42.80 51.48 39.36 54.03 35.84 56.46 C 35.43 54.08 34.64 51.71 34.82 49.28 C 36.15 47.05 37.95 45.16 39.52 43.11 Z" />
<path fill="#ffffff" opacity="1.00" d=" M 66.25 49.11 C 68.41 46.95 70.42 44.64 72.41 42.32 C 73.01 44.69 73.58 47.06 74.15 49.43 C 72.11 50.18 70.12 51.04 68.08 51.80 C 67.46 50.91 66.85 50.02 66.25 49.11 Z" />
<path fill="#ffffff" opacity="1.00" d=" M 54.28 54.83 C 57.12 53.15 59.98 51.49 62.88 49.89 C 62.08 53.60 61.34 57.32 60.82 61.08 C 58.65 58.99 56.47 56.90 54.28 54.83 Z" />
<path fill="#ffffff" opacity="1.00" d=" M 36.46 66.52 C 41.55 62.67 47.05 59.43 52.32 55.83 C 55.14 58.27 58.20 60.49 60.59 63.37 C 62.07 65.46 62.79 67.97 63.76 70.31 C 59.32 72.06 54.82 74.13 50.01 74.47 C 45.25 74.05 40.76 72.14 36.14 71.00 C 36.42 69.88 36.69 68.75 36.97 67.63 C 41.26 69.14 45.42 71.28 49.97 71.86 C 54.10 71.10 57.88 69.08 61.48 67.00 C 57.57 67.70 53.88 69.35 49.93 69.81 C 45.28 69.63 40.88 67.80 36.46 66.52 Z" />
<path fill="#ffffff" opacity="1.00" d=" M 45.82 78.17 C 48.36 78.33 50.91 78.42 53.46 78.42 C 53.46 83.24 53.12 88.28 49.82 92.12 C 45.99 88.46 45.81 83.11 45.82 78.17 Z" />
</svg>
