<?xml version="1.0" encoding="UTF-8" ?>
<!DOCTYPE svg PUBLIC "-//W3C//DTD SVG 1.1//EN" "http://www.w3.org/Graphics/SVG/1.1/DTD/svg11.dtd">
<svg width="100pt" height="100pt" viewBox="0 0 100 100" version="1.1" xmlns="http://www.w3.org/2000/svg">
<path fill="#ffffff" opacity="1.00" d=" M 43.69 3.65 C 47.45 0.09 53.94 1.24 56.63 5.50 C 57.75 7.65 56.84 10.12 56.63 12.38 C 68.05 14.53 78.45 21.85 83.74 32.26 C 87.59 39.98 89.65 49.05 87.39 57.54 C 85.11 68.86 77.49 79.02 67.07 84.08 C 64.30 85.49 61.24 86.20 58.40 87.46 C 55.59 91.25 52.91 95.18 49.38 98.39 C 46.37 95.07 43.66 91.50 41.33 87.68 C 39.63 86.55 37.60 86.06 35.73 85.27 C 24.67 81.08 16.13 71.18 13.16 59.78 C 8.18 43.46 16.69 24.57 31.60 16.60 C 34.75 14.86 38.17 13.73 41.59 12.67 C 41.55 9.60 40.84 5.77 43.69 3.65 M 43.51 7.44 C 43.55 10.09 44.76 12.54 45.46 15.06 C 41.00 16.57 36.36 17.75 32.28 20.19 C 25.40 24.26 19.98 30.78 17.30 38.31 C 12.30 51.77 16.80 68.00 28.09 76.89 C 32.19 80.58 37.60 82.02 42.45 84.37 C 44.64 88.09 46.13 92.32 49.33 95.43 C 52.70 92.50 55.28 88.76 56.46 84.42 C 60.53 83.04 64.68 81.72 68.35 79.41 C 78.10 73.46 84.52 62.41 84.69 50.97 C 85.05 41.31 81.05 31.62 74.03 24.99 C 68.49 19.37 60.86 16.67 53.30 15.09 C 53.93 12.44 54.92 9.85 55.09 7.12 C 53.24 2.50 44.99 2.55 43.51 7.44 Z" />
<path fill="#482b46" opacity="1.00" d=" M 43.51 7.44 C 44.99 2.55 53.24 2.50 55.09 7.12 C 54.92 9.85 53.93 12.44 53.30 15.09 C 60.86 16.67 68.49 19.37 74.03 24.99 C 81.05 31.62 85.05 41.31 84.69 50.97 C 84.52 62.41 78.10 73.46 68.35 79.41 C 64.68 81.72 60.53 83.04 56.46 84.42 C 55.28 88.76 52.70 92.50 49.33 95.43 C 46.13 92.32 44.64 88.09 42.45 84.37 C 37.60 82.02 32.19 80.58 28.09 76.89 C 16.80 68.00 12.30 51.77 17.30 38.31 C 19.98 30.78 25.40 24.26 32.28 20.19 C 36.36 17.75 41.00 16.57 45.46 15.06 C 44.76 12.54 43.55 10.09 43.51 7.44 M 46.41 6.56 C 48.37 11.72 48.03 17.39 46.94 22.70 C 43.95 25.13 39.76 24.06 36.21 24.43 C 36.07 25.08 35.78 26.40 35.63 27.05 C 38.69 27.14 41.75 27.16 44.82 27.22 C 45.11 29.60 45.30 32.00 45.93 34.32 C 47.97 36.49 51.07 35.69 53.60 35.13 C 53.85 32.49 53.81 29.83 54.08 27.19 C 57.24 27.16 60.40 27.14 63.55 27.06 C 63.27 26.42 62.70 25.14 62.41 24.51 C 59.02 24.16 55.08 25.03 52.21 22.74 C 50.82 17.47 50.29 11.79 52.35 6.61 C 50.37 6.56 48.39 6.54 46.41 6.56 M 32.93 36.83 C 34.44 39.74 35.47 42.97 37.49 45.59 C 40.25 47.68 43.49 49.02 46.62 50.47 C 48.10 51.02 49.73 52.02 51.32 51.24 C 55.21 49.73 59.11 48.02 62.51 45.58 C 64.55 42.98 65.55 39.73 67.07 36.83 C 65.35 35.44 63.60 34.08 61.88 32.69 C 58.43 35.76 54.93 39.60 50.00 39.90 C 45.07 39.60 41.57 35.76 38.12 32.69 C 36.40 34.08 34.65 35.44 32.93 36.83 M 30.32 35.90 C 27.56 38.64 24.87 41.44 22.27 44.33 C 26.07 46.46 30.20 47.87 34.48 48.62 C 36.17 43.79 33.35 39.43 30.32 35.90 M 65.52 48.62 C 69.80 47.87 73.93 46.46 77.72 44.33 C 75.13 41.44 72.44 38.64 69.68 35.90 C 66.66 39.43 63.81 43.79 65.52 48.62 M 34.94 47.56 C 35.67 50.85 34.76 55.97 38.62 57.43 C 42.29 58.97 46.05 60.52 50.00 61.12 C 54.61 60.24 59.25 58.72 63.29 56.29 C 64.59 53.56 64.72 50.47 65.06 47.51 C 61.27 48.16 57.75 49.72 54.31 51.36 C 52.49 52.06 50.51 53.35 48.52 52.49 C 44.00 50.82 39.79 48.25 34.94 47.56 M 38.10 58.65 C 38.87 61.47 39.05 64.66 40.84 67.06 C 46.42 70.48 53.57 70.49 59.15 67.06 C 60.96 64.68 61.13 61.47 61.90 58.66 C 57.89 59.99 54.13 62.07 50.00 62.96 C 45.86 62.07 42.10 59.99 38.10 58.65 M 37.27 68.26 C 39.70 72.86 45.34 73.81 50.00 74.54 C 54.66 73.81 60.30 72.86 62.73 68.26 C 58.44 68.96 54.35 70.69 50.00 71.08 C 45.65 70.69 41.56 68.96 37.27 68.26 M 45.91 78.19 C 45.85 83.04 45.69 88.51 49.83 91.89 C 53.38 88.27 53.52 83.19 53.29 78.44 C 50.83 78.46 48.37 78.36 45.91 78.19 Z" />
<path fill="#ffffff" opacity="1.00" d=" M 46.41 6.56 C 48.39 6.54 50.37 6.56 52.35 6.61 C 50.29 11.79 50.82 17.47 52.21 22.74 C 55.08 25.03 59.02 24.16 62.41 24.51 C 62.70 25.14 63.27 26.42 63.55 27.06 C 60.40 27.14 57.24 27.16 54.08 27.19 C 53.81 29.83 53.85 32.49 53.60 35.13 C 51.07 35.69 47.97 36.49 45.93 34.32 C 45.30 32.00 45.11 29.60 44.82 27.22 C 41.75 27.16 38.69 27.14 35.63 27.05 C 35.78 26.40 36.07 25.08 36.21 24.43 C 39.76 24.06 43.95 25.13 46.94 22.70 C 48.03 17.39 48.37 11.72 46.41 6.56 Z" />
<path fill="#ffffff" opacity="1.00" d=" M 32.93 36.83 C 34.65 35.44 36.40 34.08 38.12 32.69 C 41.57 35.76 45.07 39.60 50.00 39.90 C 54.93 39.60 58.43 35.76 61.88 32.69 C 63.60 34.08 65.35 35.44 67.07 36.83 C 65.55 39.73 64.55 42.98 62.51 45.58 C 59.11 48.02 55.21 49.73 51.32 51.24 C 49.73 52.02 48.10 51.02 46.62 50.47 C 43.49 49.02 40.25 47.68 37.49 45.59 C 35.47 42.97 34.44 39.74 32.93 36.83 Z" />
<path fill="#ffffff" opacity="1.00" d=" M 30.32 35.90 C 33.35 39.43 36.17 43.79 34.48 48.62 C 30.20 47.87 26.07 46.46 22.27 44.33 C 24.87 41.44 27.56 38.64 30.32 35.90 Z" />
<path fill="#ffffff" opacity="1.00" d=" M 65.52 48.62 C 63.81 43.79 66.66 39.43 69.68 35.90 C 72.44 38.64 75.13 41.44 77.72 44.33 C 73.93 46.46 69.80 47.87 65.52 48.62 Z" />
<path fill="#ffffff" opacity="1.00" d=" M 34.94 47.56 C 39.79 48.25 44.00 50.82 48.52 52.49 C 50.51 53.35 52.49 52.06 54.31 51.36 C 57.75 49.72 61.27 48.16 65.06 47.51 C 64.72 50.47 64.59 53.56 63.29 56.29 C 59.25 58.72 54.61 60.24 50.00 61.12 C 46.05 60.52 42.29 58.97 38.62 57.43 C 34.76 55.97 35.67 50.85 34.94 47.56 Z" />
<path fill="#ffffff" opacity="1.00" d=" M 38.10 58.65 C 42.10 59.99 45.86 62.07 50.00 62.96 C 54.13 62.07 57.89 59.99 61.90 58.66 C 61.13 61.47 60.96 64.68 59.15 67.06 C 53.57 70.49 46.42 70.48 40.84 67.06 C 39.05 64.66 38.87 61.47 38.10 58.65 Z" />
<path fill="#ffffff" opacity="1.00" d=" M 37.27 68.26 C 41.56 68.96 45.65 70.69 50.00 71.08 C 54.35 70.69 58.44 68.96 62.73 68.26 C 60.30 72.86 54.66 73.81 50.00 74.54 C 45.34 73.81 39.70 72.86 37.27 68.26 Z" />
<path fill="#ffffff" opacity="1.00" d=" M 45.91 78.19 C 48.37 78.36 50.83 78.46 53.29 78.44 C 53.52 83.19 53.38 88.27 49.83 91.89 C 45.69 88.51 45.85 83.04 45.91 78.19 Z" />
</svg>
