<?xml version="1.0" encoding="UTF-8" ?>
<!DOCTYPE svg PUBLIC "-//W3C//DTD SVG 1.1//EN" "http://www.w3.org/Graphics/SVG/1.1/DTD/svg11.dtd">
<svg width="100pt" height="100pt" viewBox="0 0 100 100" version="1.1" xmlns="http://www.w3.org/2000/svg">
<path fill="#bab9b9" opacity="1.00" d=" M 44.48 21.17 C 48.05 20.85 51.64 20.87 55.21 21.09 C 55.34 23.54 55.06 26.06 55.68 28.46 C 56.77 30.74 58.45 32.67 59.94 34.70 C 61.69 32.09 63.40 29.45 65.11 26.82 C 68.38 28.65 71.58 30.61 74.68 32.72 C 71.81 36.11 69.00 39.56 66.12 42.95 C 66.43 43.48 67.04 44.55 67.35 45.08 C 69.83 43.71 72.27 42.28 74.74 40.88 C 76.52 44.18 78.27 47.49 79.99 50.81 C 77.61 51.86 75.24 52.92 72.93 54.12 C 74.98 55.32 77.25 56.04 79.57 56.53 C 79.72 59.07 79.32 61.88 80.92 64.08 C 84.46 69.40 88.45 74.42 92.00 79.74 C 63.97 79.73 35.94 79.52 7.91 79.51 C 11.02 74.80 14.47 70.33 17.60 65.63 C 19.62 62.85 18.61 59.24 18.77 56.06 C 20.76 55.96 22.76 55.86 24.76 55.75 C 25.22 54.89 25.68 54.03 26.15 53.18 C 23.68 52.08 21.22 50.99 18.76 49.87 C 20.43 46.50 22.20 43.18 24.03 39.89 C 26.72 41.56 29.38 43.27 32.04 44.99 C 32.40 44.48 33.14 43.47 33.50 42.97 C 30.52 39.64 27.50 36.35 24.55 32.99 C 27.70 31.03 30.89 29.12 34.08 27.24 C 35.84 29.59 37.57 31.97 39.32 34.33 C 41.03 32.10 42.94 29.96 44.16 27.41 C 44.80 25.40 44.42 23.24 44.48 21.17 M 46.53 22.91 C 46.41 25.71 46.81 28.76 45.30 31.27 C 43.84 33.83 41.90 36.07 40.06 38.36 C 37.89 35.47 35.77 32.55 33.66 29.61 C 31.55 30.89 29.46 32.21 27.39 33.56 C 30.22 36.71 33.05 39.84 35.90 42.96 C 34.92 44.56 33.95 46.16 32.99 47.77 C 30.27 46.01 27.55 44.26 24.81 42.54 C 23.56 44.64 22.33 46.75 21.09 48.86 C 24.14 50.29 27.19 51.72 30.22 53.20 C 29.50 54.13 28.80 55.07 28.03 55.95 C 26.35 58.36 23.05 57.68 20.52 58.16 C 20.60 60.92 21.09 63.77 20.36 66.48 C 18.69 70.13 16.03 73.20 13.93 76.60 C 37.99 76.78 62.06 76.77 86.12 76.61 C 84.00 73.20 81.48 70.07 79.31 66.70 C 77.71 64.26 77.86 61.22 77.51 58.44 C 74.09 58.15 71.26 56.40 69.59 53.39 C 72.17 52.19 74.76 51.01 77.35 49.84 C 76.25 47.61 75.14 45.38 74.04 43.15 C 71.64 44.73 69.25 46.30 66.86 47.89 C 65.89 46.25 64.91 44.61 63.92 42.97 C 66.62 39.65 69.31 36.33 72.01 33.01 C 69.97 31.78 67.93 30.55 65.89 29.33 C 63.62 32.46 61.43 35.65 59.28 38.87 C 57.41 36.37 55.27 34.01 54.00 31.13 C 53.12 28.48 53.50 25.64 53.48 22.90 C 51.16 22.90 48.85 22.90 46.53 22.91 Z" />
<path fill="#217a7a" opacity="1.00" d=" M 46.53 22.91 C 48.85 22.90 51.16 22.90 53.48 22.90 C 53.50 25.64 53.12 28.48 54.00 31.13 C 55.27 34.01 57.41 36.37 59.28 38.87 C 61.43 35.65 63.62 32.46 65.89 29.33 C 67.93 30.55 69.97 31.78 72.01 33.01 C 69.31 36.33 66.62 39.65 63.92 42.97 C 64.91 44.61 65.89 46.25 66.86 47.89 C 69.25 46.30 71.64 44.73 74.04 43.15 C 75.14 45.38 76.25 47.61 77.35 49.84 C 74.76 51.01 72.17 52.19 69.59 53.39 C 71.26 56.40 74.09 58.15 77.51 58.44 C 77.86 61.22 77.71 64.26 79.31 66.70 C 81.48 70.07 84.00 73.20 86.12 76.61 C 62.06 76.77 37.99 76.78 13.93 76.60 C 16.03 73.20 18.69 70.13 20.36 66.48 C 21.09 63.77 20.60 60.92 20.52 58.16 C 23.05 57.68 26.35 58.36 28.03 55.95 C 28.80 55.07 29.50 54.13 30.22 53.20 C 27.19 51.72 24.14 50.29 21.09 48.86 C 22.33 46.75 23.56 44.64 24.81 42.54 C 27.55 44.26 30.27 46.01 32.99 47.77 C 33.95 46.16 34.92 44.56 35.90 42.96 C 33.05 39.84 30.22 36.71 27.39 33.56 C 29.46 32.21 31.55 30.89 33.66 29.61 C 35.77 32.55 37.89 35.47 40.06 38.36 C 41.90 36.07 43.84 33.83 45.30 31.27 C 46.81 28.76 46.41 25.71 46.53 22.91 M 48.49 24.97 C 48.84 27.58 48.39 30.69 50.72 32.51 C 51.05 30.02 51.24 27.51 51.39 25.00 C 50.66 24.99 49.21 24.97 48.49 24.97 M 66.21 32.33 C 63.98 35.64 61.76 38.98 60.14 42.64 C 63.76 40.20 66.46 36.72 68.89 33.15 C 68.00 32.88 67.11 32.61 66.21 32.33 M 30.80 32.65 C 32.52 36.92 35.89 40.22 39.77 42.57 C 37.45 38.81 35.65 33.66 30.80 32.65 M 47.51 34.43 C 46.84 36.93 46.82 39.54 46.71 42.11 C 43.48 43.42 39.80 43.86 36.92 45.90 C 32.56 52.23 31.42 60.11 32.23 67.64 C 33.35 68.75 34.69 69.60 35.98 70.48 C 36.25 68.97 36.49 67.46 36.71 65.94 C 36.21 61.18 38.38 56.76 40.64 52.73 C 42.01 55.70 44.30 58.80 43.33 62.25 C 42.45 66.56 41.16 70.79 40.64 75.18 C 43.05 75.24 45.46 75.27 47.87 75.29 C 48.40 73.97 48.92 72.64 49.44 71.32 C 50.61 72.64 51.62 74.19 53.16 75.13 C 55.18 75.40 57.23 75.28 59.26 75.27 C 58.71 70.63 57.21 66.19 56.43 61.61 C 55.81 58.35 57.99 55.51 59.25 52.70 C 61.04 56.09 63.03 59.62 63.14 63.56 C 63.22 65.90 63.37 68.24 63.65 70.57 C 65.02 69.67 66.51 68.88 67.60 67.63 C 68.52 59.96 67.24 51.80 62.53 45.53 C 59.61 43.92 56.30 43.20 53.19 42.02 C 53.01 39.35 52.81 36.69 52.54 34.03 C 50.86 34.07 49.16 34.06 47.51 34.43 M 23.94 47.97 C 26.94 49.29 30.01 50.46 33.21 51.17 C 30.96 49.07 28.43 47.29 25.89 45.56 C 25.24 46.36 24.59 47.17 23.94 47.97 M 66.70 51.15 C 69.31 50.58 71.89 49.85 74.45 49.07 C 74.09 48.37 73.36 46.96 73.00 46.25 C 70.83 47.79 68.69 49.38 66.70 51.15 M 22.82 59.93 C 22.91 60.68 23.07 62.17 23.15 62.92 C 25.92 62.50 28.67 62.04 31.40 61.41 C 28.66 60.34 25.73 60.08 22.82 59.93 M 68.47 60.72 C 70.61 62.11 73.12 62.66 75.61 63.06 C 75.65 62.33 75.73 60.88 75.77 60.15 C 73.33 60.27 70.90 60.44 68.47 60.72 M 26.40 75.39 C 29.59 75.10 32.31 73.41 34.20 70.88 C 31.27 71.72 28.59 73.26 26.40 75.39 M 65.77 70.87 C 67.52 73.49 70.20 75.19 73.38 75.41 C 71.19 73.37 68.60 71.82 65.77 70.87 Z" />
<path fill="#f4f8f8" opacity="1.00" d=" M 48.49 24.97 C 49.21 24.97 50.66 24.99 51.39 25.00 C 51.24 27.51 51.05 30.02 50.72 32.51 C 48.39 30.69 48.84 27.58 48.49 24.97 Z" />
<path fill="#ffffff" opacity="1.00" d=" M 66.21 32.33 C 67.11 32.61 68.00 32.88 68.89 33.15 C 66.46 36.72 63.76 40.20 60.14 42.64 C 61.76 38.98 63.98 35.64 66.21 32.33 Z" />
<path fill="#ffffff" opacity="1.00" d=" M 30.80 32.65 C 35.65 33.66 37.45 38.81 39.77 42.57 C 35.89 40.22 32.52 36.92 30.80 32.65 Z" />
<path fill="#ffffff" opacity="1.00" d=" M 47.51 34.43 C 49.16 34.06 50.86 34.07 52.54 34.03 C 52.81 36.69 53.01 39.35 53.19 42.02 C 56.30 43.20 59.61 43.92 62.53 45.53 C 67.24 51.80 68.52 59.96 67.60 67.63 C 66.51 68.88 65.02 69.67 63.65 70.57 C 63.37 68.24 63.22 65.90 63.14 63.56 C 63.03 59.62 61.04 56.09 59.25 52.70 C 57.99 55.51 55.81 58.35 56.43 61.61 C 57.21 66.19 58.71 70.63 59.26 75.27 C 57.23 75.28 55.18 75.40 53.16 75.13 C 51.62 74.19 50.61 72.64 49.44 71.32 C 48.92 72.64 48.40 73.97 47.87 75.29 C 45.46 75.27 43.05 75.24 40.64 75.18 C 41.16 70.79 42.45 66.56 43.33 62.25 C 44.30 58.80 42.01 55.70 40.64 52.73 C 38.38 56.76 36.21 61.18 36.71 65.94 C 36.49 67.46 36.25 68.97 35.98 70.48 C 34.69 69.60 33.35 68.75 32.23 67.64 C 31.42 60.11 32.56 52.23 36.92 45.90 C 39.80 43.86 43.48 43.42 46.71 42.11 C 46.82 39.54 46.84 36.93 47.51 34.43 Z" />
<path fill="#ffffff" opacity="1.00" d=" M 23.94 47.97 C 24.59 47.17 25.24 46.36 25.89 45.56 C 28.43 47.29 30.96 49.07 33.21 51.17 C 30.01 50.46 26.94 49.29 23.94 47.97 Z" />
<path fill="#ffffff" opacity="1.00" d=" M 66.70 51.15 C 68.69 49.38 70.83 47.79 73.00 46.25 C 73.36 46.96 74.09 48.37 74.45 49.07 C 71.89 49.85 69.31 50.58 66.70 51.15 Z" />
<path fill="#ffffff" opacity="1.00" d=" M 22.82 59.93 C 25.73 60.08 28.66 60.34 31.40 61.41 C 28.67 62.04 25.92 62.50 23.15 62.92 C 23.07 62.17 22.91 60.68 22.82 59.93 Z" />
<path fill="#ffffff" opacity="1.00" d=" M 68.47 60.72 C 70.90 60.44 73.33 60.27 75.77 60.15 C 75.73 60.88 75.65 62.33 75.61 63.06 C 73.12 62.66 70.61 62.11 68.47 60.72 Z" />
<path fill="#ffffff" opacity="1.00" d=" M 26.40 75.39 C 28.59 73.26 31.27 71.72 34.20 70.88 C 32.31 73.41 29.59 75.10 26.40 75.39 Z" />
<path fill="#ffffff" opacity="1.00" d=" M 65.77 70.87 C 68.60 71.82 71.19 73.37 73.38 75.41 C 70.20 75.19 67.52 73.49 65.77 70.87 Z" />
</svg>
