<?xml version="1.0" encoding="UTF-8" ?>
<!DOCTYPE svg PUBLIC "-//W3C//DTD SVG 1.1//EN" "http://www.w3.org/Graphics/SVG/1.1/DTD/svg11.dtd">
<svg width="100pt" height="100pt" viewBox="0 0 100 100" version="1.1" xmlns="http://www.w3.org/2000/svg">
<path fill="#b8bbba" opacity="1.00" d=" M 10.48 21.23 C 11.61 15.22 17.27 11.98 21.99 8.96 C 23.40 12.64 24.65 16.40 25.45 20.27 C 28.67 21.13 31.36 23.12 34.34 24.50 C 42.81 24.90 51.26 22.21 59.75 23.63 C 66.39 24.97 73.18 24.58 79.91 24.69 C 79.99 28.34 79.61 32.05 80.39 35.65 C 81.29 37.92 82.75 39.90 83.89 42.05 C 86.79 47.21 88.11 53.02 89.86 58.61 C 88.51 58.38 87.15 58.15 85.80 57.92 C 84.54 62.92 82.61 67.70 80.52 72.41 C 79.29 78.15 80.22 84.12 79.94 89.95 C 67.63 90.21 55.30 89.71 43.01 90.53 C 33.59 89.85 24.14 89.95 14.70 90.00 C 14.53 74.33 14.62 58.67 14.66 43.01 C 14.58 39.55 15.18 35.78 13.22 32.69 C 11.18 29.26 9.41 25.32 10.48 21.23 M 13.20 23.05 C 12.57 27.69 16.21 31.18 17.60 35.24 L 17.53 34.96 C 16.44 43.92 17.35 52.99 17.06 62.00 C 17.37 70.47 16.32 79.03 17.76 87.43 C 17.84 86.97 18.01 86.05 18.09 85.59 L 18.01 86.47 C 24.15 86.55 30.32 86.52 36.40 87.52 C 43.63 88.78 50.78 86.54 58.00 86.56 C 64.23 86.54 70.46 86.66 76.69 86.65 C 76.68 82.45 76.32 78.21 76.88 74.03 C 77.63 70.49 79.88 67.53 81.06 64.14 C 82.70 59.94 82.23 55.35 82.03 50.95 C 83.28 51.64 84.54 52.34 85.80 53.03 C 84.32 47.72 82.23 42.55 78.87 38.14 C 76.61 35.40 76.61 31.76 76.46 28.40 C 71.92 28.48 67.36 28.22 62.95 27.10 C 52.54 24.52 41.92 27.33 31.51 28.36 C 29.94 24.80 26.16 23.87 23.24 21.86 C 22.00 19.08 21.37 16.07 20.33 13.21 C 17.02 15.59 13.14 18.50 13.20 23.05 Z" />
<path fill="#b61c2e" opacity="1.00" d=" M 13.20 23.05 C 13.14 18.50 17.02 15.59 20.33 13.21 C 21.37 16.07 22.00 19.08 23.24 21.86 C 26.16 23.87 29.94 24.80 31.51 28.36 C 41.92 27.33 52.54 24.52 62.95 27.10 C 67.36 28.22 71.92 28.48 76.46 28.40 C 76.61 31.76 76.61 35.40 78.87 38.14 C 82.23 42.55 84.32 47.72 85.80 53.03 C 84.54 52.34 83.28 51.64 82.03 50.95 C 82.23 55.35 82.70 59.94 81.06 64.14 C 79.88 67.53 77.63 70.49 76.88 74.03 C 76.32 78.21 76.68 82.45 76.69 86.65 C 70.46 86.66 64.23 86.54 58.00 86.56 C 50.78 86.54 43.63 88.78 36.40 87.52 C 30.32 86.52 24.15 86.55 18.01 86.47 L 18.09 85.59 C 18.77 75.74 18.21 65.86 18.38 56.00 C 18.22 49.09 19.14 42.06 17.60 35.24 C 16.21 31.18 12.57 27.69 13.20 23.05 M 16.75 27.31 C 22.58 38.60 30.31 48.82 35.99 60.18 C 37.98 62.81 41.43 63.93 43.27 66.71 C 45.54 70.16 47.41 73.86 49.78 77.25 C 51.42 76.27 53.05 75.29 54.69 74.32 C 52.76 70.98 52.51 67.14 51.67 63.48 C 50.07 62.30 48.19 61.61 46.42 60.74 C 46.26 57.46 45.62 54.13 43.73 51.38 C 40.64 46.69 38.09 41.68 35.02 36.98 C 33.06 33.89 28.56 33.44 27.29 29.77 C 26.39 27.36 24.07 26.18 22.14 24.73 C 19.75 23.19 19.44 20.11 18.37 17.71 C 16.59 20.54 15.11 24.05 16.75 27.31 M 35.67 30.81 C 37.97 34.82 40.33 38.79 42.59 42.82 C 48.34 42.30 54.34 40.98 59.96 42.98 C 67.54 45.47 73.84 53.60 71.75 61.80 C 69.35 71.05 60.65 76.99 52.15 80.19 C 42.80 83.96 32.30 83.65 22.84 80.44 C 32.75 86.75 45.64 86.48 56.32 82.32 C 61.27 80.50 65.19 76.87 69.49 73.96 C 67.07 77.37 63.92 80.12 61.08 83.16 C 69.95 77.58 78.41 68.94 79.47 58.03 C 80.28 50.02 75.20 43.34 71.00 37.08 C 75.19 40.18 78.37 44.34 81.76 48.24 C 78.32 40.89 72.96 33.92 65.27 30.74 C 55.79 27.06 45.37 29.24 35.67 30.81 Z" />
<path fill="#ffffff" opacity="1.00" d=" M 16.75 27.31 C 15.11 24.05 16.59 20.54 18.37 17.71 C 19.44 20.11 19.75 23.19 22.14 24.73 C 24.07 26.18 26.39 27.36 27.29 29.77 C 28.56 33.44 33.06 33.89 35.02 36.98 C 38.09 41.68 40.64 46.69 43.73 51.38 C 45.62 54.13 46.26 57.46 46.42 60.74 C 48.19 61.61 50.07 62.30 51.67 63.48 C 52.51 67.14 52.76 70.98 54.69 74.32 C 53.05 75.29 51.42 76.27 49.78 77.25 C 47.41 73.86 45.54 70.16 43.27 66.71 C 41.43 63.93 37.98 62.81 35.99 60.18 C 30.31 48.82 22.58 38.60 16.75 27.31 Z" />
<path fill="#ffffff" opacity="1.00" d=" M 35.67 30.81 C 45.37 29.24 55.79 27.06 65.27 30.74 C 72.96 33.92 78.32 40.89 81.76 48.24 C 78.37 44.34 75.19 40.18 71.00 37.08 C 75.20 43.34 80.28 50.02 79.47 58.03 C 78.41 68.94 69.95 77.58 61.08 83.16 C 63.92 80.12 67.07 77.37 69.49 73.96 C 65.19 76.87 61.27 80.50 56.32 82.32 C 45.64 86.48 32.75 86.75 22.84 80.44 C 32.30 83.65 42.80 83.96 52.15 80.19 C 60.65 76.99 69.35 71.05 71.75 61.80 C 73.84 53.60 67.54 45.47 59.96 42.98 C 54.34 40.98 48.34 42.30 42.59 42.82 C 40.33 38.79 37.97 34.82 35.67 30.81 Z" />
<path fill="#b8d3d0" opacity="1.00" d=" M 17.53 34.96 L 17.60 35.24 C 19.14 42.06 18.22 49.09 18.38 56.00 C 18.21 65.86 18.77 75.74 18.09 85.59 C 18.01 86.05 17.84 86.97 17.76 87.43 C 16.32 79.03 17.37 70.47 17.06 62.00 C 17.35 52.99 16.44 43.92 17.53 34.96 Z" />
</svg>
