<?xml version="1.0" encoding="UTF-8" ?>
<!DOCTYPE svg PUBLIC "-//W3C//DTD SVG 1.1//EN" "http://www.w3.org/Graphics/SVG/1.1/DTD/svg11.dtd">
<svg width="100pt" height="100pt" viewBox="0 0 100 100" version="1.1" xmlns="http://www.w3.org/2000/svg">
<path fill="#bcbaba" opacity="1.00" d=" M 44.36 22.33 C 47.47 16.68 54.34 15.05 60.19 13.95 C 65.26 12.78 69.85 15.84 74.42 17.49 C 78.90 18.94 81.04 23.41 83.23 27.19 C 87.62 27.32 92.02 27.17 96.41 27.16 C 93.26 30.78 89.42 33.69 86.09 37.12 C 83.83 39.39 84.27 42.89 83.74 45.80 C 89.59 48.92 93.53 55.53 92.30 62.22 C 92.14 67.65 88.80 72.11 85.25 75.91 C 88.97 79.56 93.01 82.89 96.43 86.85 C 88.27 87.04 80.10 86.91 71.93 86.96 C 67.23 87.61 65.03 82.61 61.19 80.96 C 56.73 79.06 52.41 74.90 47.24 77.01 C 40.89 77.59 37.93 83.98 32.79 86.71 C 23.41 87.24 13.97 86.87 4.57 86.85 C 8.13 82.97 12.29 79.71 16.05 76.03 C 9.01 71.39 2.68 63.92 3.24 54.98 C 3.18 47.35 8.92 41.43 15.03 37.69 C 11.65 34.31 7.97 31.24 4.66 27.79 C 14.05 27.60 23.49 27.36 32.87 27.84 C 37.67 30.87 41.21 35.51 45.49 39.20 C 43.20 33.96 41.48 27.69 44.36 22.33 M 46.00 26.14 C 45.26 30.65 45.90 36.82 50.62 38.94 C 52.01 37.61 53.43 36.30 54.85 34.99 C 56.36 36.99 57.78 39.06 59.07 41.21 C 55.43 42.85 51.35 42.79 47.45 43.16 C 45.35 43.56 43.87 41.78 42.44 40.57 C 39.09 37.62 36.35 33.90 32.49 31.60 C 26.05 30.57 19.44 31.40 12.94 31.18 C 15.34 33.53 17.77 35.85 20.19 38.18 C 16.39 40.63 12.01 42.53 9.23 46.25 C 5.09 51.59 5.24 59.51 8.86 65.08 C 11.61 69.92 16.47 72.86 21.37 75.15 C 18.71 77.74 16.05 80.32 13.56 83.08 C 19.65 83.36 25.82 83.83 31.88 83.05 C 36.43 81.22 38.74 75.75 43.87 74.91 C 47.58 74.20 51.85 72.33 55.34 74.66 C 59.14 76.88 63.34 78.42 66.86 81.12 C 68.15 81.96 69.39 83.11 71.00 83.22 C 76.47 83.70 81.97 83.39 87.44 83.07 C 85.33 80.58 83.08 78.22 80.78 75.91 C 83.74 72.84 87.61 70.06 88.53 65.63 C 89.39 61.58 90.11 56.97 87.77 53.24 C 85.90 50.40 82.71 48.87 80.01 46.96 C 80.75 43.79 81.17 40.51 82.50 37.52 C 83.92 35.10 86.14 33.30 88.09 31.33 C 85.84 31.17 83.59 31.00 81.35 30.83 C 79.62 27.11 78.29 22.61 74.35 20.63 C 69.41 18.12 63.81 15.68 58.17 17.17 C 53.16 18.17 47.17 20.54 46.00 26.14 Z" />
<path fill="#277373" opacity="1.00" d=" M 46.00 26.14 C 47.17 20.54 53.16 18.17 58.17 17.17 C 63.81 15.68 69.41 18.12 74.35 20.63 C 78.29 22.61 79.62 27.11 81.35 30.83 C 83.59 31.00 85.84 31.17 88.09 31.33 C 86.14 33.30 83.92 35.10 82.50 37.52 C 81.17 40.51 80.75 43.79 80.01 46.96 C 82.71 48.87 85.90 50.40 87.77 53.24 C 90.11 56.97 89.39 61.58 88.53 65.63 C 87.61 70.06 83.74 72.84 80.78 75.91 C 83.08 78.22 85.33 80.58 87.44 83.07 C 81.97 83.39 76.47 83.70 71.00 83.22 C 69.39 83.11 68.15 81.96 66.86 81.12 C 63.34 78.42 59.14 76.88 55.34 74.66 C 51.85 72.33 47.58 74.20 43.87 74.91 C 38.74 75.75 36.43 81.22 31.88 83.05 C 25.82 83.83 19.65 83.36 13.56 83.08 C 16.05 80.32 18.71 77.74 21.37 75.15 C 16.47 72.86 11.61 69.92 8.86 65.08 C 5.24 59.51 5.09 51.59 9.23 46.25 C 12.01 42.53 16.39 40.63 20.19 38.18 C 17.77 35.85 15.34 33.53 12.94 31.18 C 19.44 31.40 26.05 30.57 32.49 31.60 C 36.35 33.90 39.09 37.62 42.44 40.57 C 43.87 41.78 45.35 43.56 47.45 43.16 C 51.35 42.79 55.43 42.85 59.07 41.21 C 57.78 39.06 56.36 36.99 54.85 34.99 C 53.43 36.30 52.01 37.61 50.62 38.94 C 45.90 36.82 45.26 30.65 46.00 26.14 M 50.10 24.06 C 47.58 27.26 48.71 31.66 50.07 35.11 C 50.85 33.21 51.36 31.16 52.53 29.46 C 54.57 27.39 57.54 26.76 60.26 26.10 C 58.16 27.79 55.92 29.27 53.70 30.80 C 58.12 34.56 61.43 39.56 66.70 42.26 C 70.31 43.64 68.47 47.92 68.77 50.81 C 71.69 48.01 70.84 43.68 69.78 40.24 C 68.43 35.73 64.94 32.40 61.87 29.01 C 67.98 30.80 71.08 37.26 71.98 43.11 C 72.71 46.68 71.01 50.05 70.11 53.41 C 78.16 48.83 80.04 38.45 77.97 30.06 C 76.71 30.28 75.44 30.51 74.18 30.74 C 75.10 29.70 76.03 28.66 76.95 27.63 C 75.32 25.39 73.26 23.50 70.95 21.98 C 70.07 22.30 69.19 22.62 68.31 22.94 C 66.38 21.58 64.65 19.28 62.05 19.58 C 57.79 19.81 53.17 20.91 50.10 24.06 M 9.05 56.99 C 9.34 62.15 12.74 66.55 16.90 69.35 C 15.09 66.22 12.07 63.57 11.51 59.86 C 11.45 55.65 12.87 50.94 16.55 48.50 C 20.55 45.86 25.84 44.70 30.38 46.64 C 36.00 48.95 39.76 53.97 43.66 58.38 C 48.00 63.35 52.17 68.56 57.42 72.61 C 63.13 77.11 71.36 77.05 77.79 74.18 C 77.58 72.91 77.38 71.64 77.18 70.37 C 78.09 71.14 79.00 71.91 79.90 72.68 C 81.66 70.91 83.76 69.33 84.86 67.05 C 85.49 64.12 85.80 61.12 86.28 58.16 C 86.42 54.48 83.00 51.94 79.91 50.74 C 76.43 50.79 73.63 53.08 71.09 55.19 C 72.66 57.65 74.55 60.01 75.34 62.88 C 74.46 64.22 73.31 65.38 71.96 66.25 C 72.03 65.73 72.15 64.68 72.22 64.16 C 68.15 61.49 63.10 63.38 58.81 64.45 C 59.19 64.66 59.95 65.09 60.33 65.31 C 59.70 65.52 58.43 65.94 57.79 66.16 C 52.48 62.17 48.81 56.51 44.03 51.96 C 39.54 47.62 34.58 43.30 28.44 41.60 C 19.22 39.01 8.02 47.09 9.05 56.99 M 42.57 50.02 C 44.88 49.28 47.14 48.37 49.39 47.44 C 50.60 50.13 51.95 52.75 53.22 55.42 C 58.14 54.64 63.05 53.77 68.02 53.34 C 65.45 49.02 61.14 45.43 55.92 45.24 C 51.18 45.06 45.12 45.27 42.57 50.02 M 52.93 58.26 C 54.01 59.72 55.10 61.17 56.20 62.62 C 59.74 62.15 63.26 61.55 66.75 60.81 C 66.14 58.93 65.53 57.06 64.90 55.20 C 60.81 55.75 56.80 56.80 52.93 58.26 M 67.04 55.76 C 67.68 57.56 68.34 59.35 69.03 61.13 C 70.01 60.77 70.99 60.42 71.98 60.06 C 71.43 58.93 70.90 57.79 70.36 56.65 C 69.25 56.35 68.15 56.05 67.04 55.76 M 23.71 67.86 C 28.53 65.58 33.82 64.85 38.85 63.25 C 37.60 62.47 36.51 61.01 34.90 61.09 C 30.27 61.25 26.58 64.54 23.71 67.86 Z" />
<path fill="#ffffff" opacity="1.00" d=" M 50.10 24.06 C 53.17 20.91 57.79 19.81 62.05 19.58 C 64.65 19.28 66.38 21.58 68.31 22.94 C 69.19 22.62 70.07 22.30 70.95 21.98 C 73.26 23.50 75.32 25.39 76.95 27.63 C 76.03 28.66 75.10 29.70 74.18 30.74 C 75.44 30.51 76.71 30.28 77.97 30.06 C 80.04 38.45 78.16 48.83 70.11 53.41 C 71.01 50.05 72.71 46.68 71.98 43.11 C 71.08 37.26 67.98 30.80 61.87 29.01 C 64.94 32.40 68.43 35.73 69.78 40.24 C 70.84 43.68 71.69 48.01 68.77 50.81 C 68.47 47.92 70.31 43.64 66.70 42.26 C 61.43 39.56 58.12 34.56 53.70 30.80 C 55.92 29.27 58.16 27.79 60.26 26.10 C 57.54 26.76 54.57 27.39 52.53 29.46 C 51.36 31.16 50.85 33.21 50.07 35.11 C 48.71 31.66 47.58 27.26 50.10 24.06 Z" />
<path fill="#ffffff" opacity="1.00" d=" M 9.05 56.99 C 8.02 47.09 19.22 39.01 28.44 41.60 C 34.58 43.30 39.54 47.62 44.03 51.96 C 48.81 56.51 52.48 62.17 57.79 66.16 C 59.01 67.06 60.26 67.93 61.52 68.77 C 64.86 67.39 68.51 67.23 71.96 66.25 C 73.31 65.38 74.46 64.22 75.34 62.88 C 74.55 60.01 72.66 57.65 71.09 55.19 C 73.63 53.08 76.43 50.79 79.91 50.74 C 83.00 51.94 86.42 54.48 86.28 58.16 C 85.80 61.12 85.49 64.12 84.86 67.05 C 83.76 69.33 81.66 70.91 79.90 72.68 C 79.00 71.91 78.09 71.14 77.18 70.37 C 77.38 71.64 77.58 72.91 77.79 74.18 C 71.36 77.05 63.13 77.11 57.42 72.61 C 52.17 68.56 48.00 63.35 43.66 58.38 C 39.76 53.97 36.00 48.95 30.38 46.64 C 25.84 44.70 20.55 45.86 16.55 48.50 C 12.87 50.94 11.45 55.65 11.51 59.86 C 12.07 63.57 15.09 66.22 16.90 69.35 C 12.74 66.55 9.34 62.15 9.05 56.99 M 78.57 66.23 C 77.72 67.43 79.66 69.21 80.82 68.34 C 81.69 67.13 79.72 65.34 78.57 66.23 Z" />
<path fill="#ffffff" opacity="1.00" d=" M 42.57 50.02 C 45.12 45.27 51.18 45.06 55.92 45.24 C 61.14 45.43 65.45 49.02 68.02 53.34 C 63.05 53.77 58.14 54.64 53.22 55.42 C 51.95 52.75 50.60 50.13 49.39 47.44 C 47.14 48.37 44.88 49.28 42.57 50.02 Z" />
<path fill="#ffffff" opacity="1.00" d=" M 52.93 58.26 C 56.80 56.80 60.81 55.75 64.90 55.20 C 65.53 57.06 66.14 58.93 66.75 60.81 C 63.26 61.55 59.74 62.15 56.20 62.62 C 55.10 61.17 54.01 59.72 52.93 58.26 Z" />
<path fill="#ffffff" opacity="1.00" d=" M 67.04 55.76 C 68.15 56.05 69.25 56.35 70.36 56.65 C 70.90 57.79 71.43 58.93 71.98 60.06 C 70.99 60.42 70.01 60.77 69.03 61.13 C 68.34 59.35 67.68 57.56 67.04 55.76 Z" />
<path fill="#ffffff" opacity="1.00" d=" M 23.71 67.86 C 26.58 64.54 30.27 61.25 34.90 61.09 C 36.51 61.01 37.60 62.47 38.85 63.25 C 33.82 64.85 28.53 65.58 23.71 67.86 Z" />
<path fill="#ffffff" opacity="1.00" d=" M 58.81 64.45 C 63.10 63.38 68.15 61.49 72.22 64.16 C 68.81 67.08 64.32 65.93 60.33 65.31 C 59.95 65.09 59.19 64.66 58.81 64.45 Z" />
<path fill="#a2c2c2" opacity="1.00" d=" M 72.22 64.16 C 72.15 64.68 72.03 65.73 71.96 66.25 C 68.51 67.23 64.86 67.39 61.52 68.77 C 60.26 67.93 59.01 67.06 57.79 66.16 C 58.43 65.94 59.70 65.52 60.33 65.31 C 64.32 65.93 68.81 67.08 72.22 64.16 Z" />
<path fill="#6ea1a1" opacity="1.00" d=" M 78.57 66.23 C 79.72 65.34 81.69 67.13 80.82 68.34 C 79.66 69.21 77.72 67.43 78.57 66.23 Z" />
</svg>
