<?xml version="1.0" encoding="UTF-8" ?>
<!DOCTYPE svg PUBLIC "-//W3C//DTD SVG 1.1//EN" "http://www.w3.org/Graphics/SVG/1.1/DTD/svg11.dtd">
<svg width="100pt" height="100pt" viewBox="0 0 100 100" version="1.1" xmlns="http://www.w3.org/2000/svg">
<path fill="#c2bcbc" opacity="1.00" d=" M 41.80 10.10 C 43.96 3.92 53.90 3.66 56.88 9.27 C 57.14 12.52 56.35 15.74 56.05 18.96 C 59.86 19.42 64.29 18.81 67.40 21.55 C 69.72 24.10 69.67 28.27 72.84 30.13 C 78.47 34.01 84.18 37.77 89.89 41.53 C 84.97 56.11 79.70 70.57 74.78 85.14 C 70.75 85.25 66.72 85.27 62.69 85.37 C 59.68 91.02 54.45 94.81 49.76 98.95 C 45.21 94.83 40.02 91.06 37.34 85.34 C 33.30 85.27 29.26 85.26 25.22 85.14 C 20.30 70.56 15.03 56.11 10.11 41.53 C 15.81 37.76 21.55 34.03 27.15 30.12 C 30.51 27.96 29.31 22.74 32.65 20.58 C 35.93 19.10 39.67 19.72 43.17 19.50 C 42.77 16.36 41.72 13.28 41.80 10.10 M 44.43 9.47 C 43.77 13.40 44.72 17.43 44.79 21.40 C 40.99 21.56 37.08 21.31 33.42 22.46 C 30.78 24.32 32.19 27.54 32.96 29.96 C 26.57 34.24 20.02 38.28 13.89 42.93 C 18.52 56.06 22.86 69.30 27.81 82.32 C 31.36 82.36 34.91 82.40 38.47 82.46 C 40.66 88.19 44.98 92.62 49.83 96.20 C 54.74 92.59 59.16 88.19 61.56 82.48 C 65.11 82.41 68.65 82.36 72.20 82.31 C 77.14 69.30 81.48 56.06 86.11 42.93 C 80.97 38.90 75.31 35.63 69.97 31.91 C 66.82 29.99 67.99 25.62 65.98 22.98 C 62.43 20.80 58.01 21.31 54.04 20.78 C 54.19 16.96 54.57 13.15 54.72 9.33 C 51.90 7.03 46.98 6.61 44.43 9.47 Z" />
<path fill="#217a7a" opacity="1.00" d=" M 44.43 9.47 C 46.98 6.61 51.90 7.03 54.72 9.33 C 54.57 13.15 54.19 16.96 54.04 20.78 C 58.01 21.31 62.43 20.80 65.98 22.98 C 67.99 25.62 66.82 29.99 69.97 31.91 C 75.31 35.63 80.97 38.90 86.11 42.93 C 81.48 56.06 77.14 69.30 72.20 82.31 C 68.65 82.36 65.11 82.41 61.56 82.48 C 59.16 88.19 54.74 92.59 49.83 96.20 C 44.98 92.62 40.66 88.19 38.47 82.46 C 34.91 82.40 31.36 82.36 27.81 82.32 C 22.86 69.30 18.52 56.06 13.89 42.93 C 20.02 38.28 26.57 34.24 32.96 29.96 C 32.19 27.54 30.78 24.32 33.42 22.46 C 37.08 21.31 40.99 21.56 44.79 21.40 C 44.72 17.43 43.77 13.40 44.43 9.47 M 46.71 10.23 C 47.68 13.12 48.15 16.19 47.62 19.23 C 47.32 20.80 47.41 23.06 45.41 23.45 C 41.92 24.55 38.20 24.20 34.59 24.43 C 34.44 24.99 34.15 26.10 34.00 26.66 C 36.64 26.66 39.30 26.50 41.92 26.83 C 44.83 27.33 46.84 30.36 49.93 30.10 C 52.69 30.01 54.45 27.31 57.10 26.81 C 59.79 26.49 62.50 26.67 65.20 26.68 C 65.01 26.12 64.63 25.00 64.44 24.44 C 60.88 24.21 57.13 24.74 53.73 23.43 C 51.79 23.00 51.98 20.73 51.55 19.21 C 50.84 16.21 51.36 13.15 52.31 10.27 C 50.44 10.26 48.57 10.25 46.71 10.23 M 38.93 32.22 C 38.22 34.03 37.77 36.02 36.56 37.58 C 33.53 39.51 29.76 39.36 26.31 39.77 C 25.99 47.69 27.44 55.58 29.98 63.06 C 32.66 70.79 38.65 77.67 46.51 80.30 C 53.21 81.92 59.59 77.66 63.99 73.02 C 71.74 64.31 73.49 52.05 73.75 40.81 C 70.61 40.30 67.23 40.25 64.41 38.62 C 62.57 37.13 62.15 34.62 61.21 32.57 C 53.83 31.44 46.34 31.24 38.93 32.22 M 40.99 80.02 C 41.69 82.24 42.17 84.57 43.33 86.61 C 45.11 89.09 47.62 90.92 49.86 92.96 C 51.99 91.05 54.24 89.27 56.13 87.12 C 57.88 85.20 58.02 82.46 58.68 80.07 C 55.81 80.86 52.98 81.99 49.98 82.20 C 46.85 82.24 43.94 80.90 40.99 80.02 Z" />
<path fill="#ffffff" opacity="1.00" d=" M 46.71 10.23 C 48.57 10.25 50.44 10.26 52.31 10.27 C 51.36 13.15 50.84 16.21 51.55 19.21 C 51.98 20.73 51.79 23.00 53.73 23.43 C 57.13 24.74 60.88 24.21 64.44 24.44 C 64.63 25.00 65.01 26.12 65.20 26.68 C 62.50 26.67 59.79 26.49 57.10 26.81 C 54.45 27.31 52.69 30.01 49.93 30.10 C 46.84 30.36 44.83 27.33 41.92 26.83 C 39.30 26.50 36.64 26.66 34.00 26.66 C 34.15 26.10 34.44 24.99 34.59 24.43 C 38.20 24.20 41.92 24.55 45.41 23.45 C 47.41 23.06 47.32 20.80 47.62 19.23 C 48.15 16.19 47.68 13.12 46.71 10.23 Z" />
<path fill="#ffffff" opacity="1.00" d=" M 38.93 32.22 C 46.34 31.24 53.83 31.44 61.21 32.57 C 62.15 34.62 62.57 37.13 64.41 38.62 C 67.23 40.25 70.61 40.30 73.75 40.81 C 73.49 52.05 71.74 64.31 63.99 73.02 C 59.59 77.66 53.21 81.92 46.51 80.30 C 38.65 77.67 32.66 70.79 29.98 63.06 C 27.44 55.58 25.99 47.69 26.31 39.77 C 29.76 39.36 33.53 39.51 36.56 37.58 C 37.77 36.02 38.22 34.03 38.93 32.22 M 37.03 40.94 C 34.80 42.03 32.30 42.38 29.90 42.92 C 30.24 47.92 31.04 53.00 33.58 57.41 C 36.88 64.07 42.83 68.80 49.10 72.50 C 53.16 70.25 57.32 67.96 60.55 64.55 C 66.16 59.19 69.10 51.75 70.28 44.21 C 67.93 43.42 65.50 42.78 63.30 41.62 C 60.77 40.23 59.42 37.54 57.36 35.62 C 52.89 34.16 47.90 34.19 43.32 35.15 C 41.08 36.92 39.55 39.51 37.03 40.94 M 30.55 60.89 C 32.69 69.45 39.06 76.81 47.46 79.70 C 50.60 80.92 53.79 79.10 56.51 77.66 C 63.01 74.03 67.39 67.52 69.46 60.48 C 66.74 63.09 64.37 66.05 61.52 68.53 C 57.60 72.05 52.33 73.87 49.03 78.11 C 46.87 75.16 43.85 73.11 40.86 71.11 C 36.79 68.39 33.83 64.44 30.55 60.89 Z" />
<path fill="#167373" opacity="1.00" d=" M 37.03 40.94 C 39.55 39.51 41.08 36.92 43.32 35.15 C 47.90 34.19 52.89 34.16 57.36 35.62 C 59.42 37.54 60.77 40.23 63.30 41.62 C 65.50 42.78 67.93 43.42 70.28 44.21 C 69.10 51.75 66.16 59.19 60.55 64.55 C 57.32 67.96 53.16 70.25 49.10 72.50 C 42.83 68.80 36.88 64.07 33.58 57.41 C 31.04 53.00 30.24 47.92 29.90 42.92 C 32.30 42.38 34.80 42.03 37.03 40.94 M 45.66 37.82 C 41.85 41.03 38.06 44.42 33.09 45.74 C 34.15 50.31 35.35 54.99 38.17 58.84 C 40.93 63.11 45.10 66.13 49.18 69.04 C 53.62 66.35 58.05 63.39 61.08 59.09 C 64.05 55.46 65.41 50.92 66.59 46.47 C 62.96 45.00 59.49 43.04 56.91 40.03 C 54.29 36.62 49.39 36.90 45.66 37.82 Z" />
<path fill="#ffffff" opacity="1.00" d=" M 45.66 37.82 C 49.39 36.90 54.29 36.62 56.91 40.03 C 59.49 43.04 62.96 45.00 66.59 46.47 C 65.41 50.92 64.05 55.46 61.08 59.09 C 58.05 63.39 53.62 66.35 49.18 69.04 C 45.10 66.13 40.93 63.11 38.17 58.84 C 35.35 54.99 34.15 50.31 33.09 45.74 C 38.06 44.42 41.85 41.03 45.66 37.82 Z" />
<path fill="#237b7b" opacity="1.00" d=" M 30.55 60.89 C 33.83 64.44 36.79 68.39 40.86 71.11 C 43.85 73.11 46.87 75.16 49.03 78.11 C 52.33 73.87 57.60 72.05 61.52 68.53 C 64.37 66.05 66.74 63.09 69.46 60.48 C 67.39 67.52 63.01 74.03 56.51 77.66 C 53.79 79.10 50.60 80.92 47.46 79.70 C 39.06 76.81 32.69 69.45 30.55 60.89 Z" />
<path fill="#ffffff" opacity="1.00" d=" M 40.99 80.02 C 43.94 80.90 46.85 82.24 49.98 82.20 C 52.98 81.99 55.81 80.86 58.68 80.07 C 58.02 82.46 57.88 85.20 56.13 87.12 C 54.24 89.27 51.99 91.05 49.86 92.96 C 47.62 90.92 45.11 89.09 43.33 86.61 C 42.17 84.57 41.69 82.24 40.99 80.02 Z" />
</svg>
