<?xml version="1.0" encoding="UTF-8" ?>
<!DOCTYPE svg PUBLIC "-//W3C//DTD SVG 1.1//EN" "http://www.w3.org/Graphics/SVG/1.1/DTD/svg11.dtd">
<svg width="100pt" height="100pt" viewBox="0 0 100 100" version="1.1" xmlns="http://www.w3.org/2000/svg">
<path fill="#b8c0bf" opacity="1.00" d=" M 23.06 20.76 C 30.21 20.88 36.51 16.92 43.38 15.56 C 47.60 15.12 51.79 16.22 56.01 16.36 C 60.38 16.72 65.04 16.69 68.96 18.92 C 70.57 19.73 72.08 20.99 73.97 21.00 C 80.98 21.28 87.99 20.96 95.00 21.07 C 86.85 32.58 78.87 44.20 70.65 55.67 C 69.07 57.68 67.84 60.04 68.53 62.67 C 69.28 66.41 68.43 70.11 66.87 73.52 C 63.86 74.00 60.78 74.15 57.85 75.01 C 54.75 77.60 52.86 81.31 50.48 84.52 C 48.75 82.19 47.28 79.56 44.93 77.77 C 37.55 78.46 29.77 78.42 23.11 74.71 C 23.11 69.39 22.71 63.80 24.62 58.74 C 26.37 57.63 28.32 56.92 30.21 56.09 C 21.66 44.39 13.34 32.53 4.90 20.76 C 10.95 20.69 17.00 20.79 23.06 20.76 M 27.84 23.80 C 22.29 24.73 16.61 24.01 11.01 24.13 C 18.65 35.16 26.80 45.84 34.32 56.95 C 31.68 58.16 28.99 59.27 26.31 60.41 C 25.82 64.61 25.40 68.82 25.09 73.04 C 30.76 75.78 37.10 76.01 43.26 75.37 C 46.21 74.77 48.59 76.65 50.78 78.31 C 52.23 76.64 53.53 74.75 55.42 73.53 C 58.43 72.04 61.92 72.07 65.04 70.87 C 68.76 66.33 63.52 59.88 67.14 55.24 C 74.23 44.89 81.64 34.75 88.46 24.21 C 83.27 24.08 78.08 24.34 72.90 24.17 C 68.75 24.38 66.76 19.46 62.70 19.33 C 56.55 18.57 50.33 18.17 44.14 18.25 C 38.20 18.34 33.27 21.98 27.84 23.80 Z" />
<path fill="#b51628" opacity="1.00" d=" M 27.84 23.80 C 33.27 21.98 38.20 18.34 44.14 18.25 C 50.33 18.17 56.55 18.57 62.70 19.33 C 66.76 19.46 68.75 24.38 72.90 24.17 C 78.08 24.34 83.27 24.08 88.46 24.21 C 81.64 34.75 74.23 44.89 67.14 55.24 C 63.52 59.88 68.76 66.33 65.04 70.87 C 61.92 72.07 58.43 72.04 55.42 73.53 C 53.53 74.75 52.23 76.64 50.78 78.31 C 48.59 76.65 46.21 74.77 43.26 75.37 C 37.10 76.01 30.76 75.78 25.09 73.04 C 25.40 68.82 25.82 64.61 26.31 60.41 C 28.99 59.27 31.68 58.16 34.32 56.95 C 26.80 45.84 18.65 35.16 11.01 24.13 C 16.61 24.01 22.29 24.73 27.84 23.80 M 33.51 24.01 C 34.40 31.74 37.70 39.39 44.10 44.09 C 47.92 46.27 52.56 46.51 56.84 46.13 C 61.55 44.40 61.71 38.75 62.95 34.66 C 59.90 36.47 56.85 38.29 53.59 39.68 C 56.49 37.14 59.84 35.19 62.89 32.84 C 65.75 30.71 66.32 26.70 65.55 23.42 C 63.32 22.55 60.95 22.16 58.61 21.73 C 57.92 25.97 57.63 30.50 55.11 34.14 C 52.95 37.96 49.71 41.00 46.09 43.42 C 47.03 41.92 48.02 40.46 49.02 38.99 C 48.57 38.95 47.68 38.88 47.23 38.84 C 51.55 34.08 54.02 28.07 55.21 21.82 C 51.52 21.49 47.82 20.91 44.10 21.19 C 40.46 21.64 37.01 22.99 33.51 24.01 M 52.96 34.78 C 56.30 31.11 57.10 26.11 57.04 21.32 C 55.16 25.63 53.83 30.16 52.96 34.78 M 19.67 26.36 C 22.87 27.31 26.12 28.07 29.36 28.86 C 29.15 28.20 28.75 26.89 28.54 26.23 C 25.58 26.22 22.63 26.25 19.67 26.36 M 70.43 27.56 C 74.10 27.76 77.76 27.30 81.31 26.43 C 77.65 26.05 73.84 25.92 70.43 27.56 M 18.36 29.31 C 20.94 30.74 23.85 31.10 26.75 30.62 C 24.05 29.59 21.28 28.83 18.36 29.31 M 70.66 30.66 C 74.40 31.26 78.38 31.68 81.79 29.65 C 78.06 29.53 74.32 29.89 70.66 30.66 M 69.23 32.77 C 68.83 33.39 68.02 34.62 67.62 35.24 C 70.73 36.08 73.83 36.96 76.93 37.87 C 76.86 36.68 76.78 35.50 76.71 34.31 C 74.21 33.80 71.72 33.29 69.23 32.77 M 19.93 34.29 C 21.02 35.90 22.11 37.50 23.20 39.11 C 26.60 38.09 30.00 37.02 33.31 35.72 C 29.65 32.16 24.39 34.12 19.93 34.29 M 51.34 36.54 C 52.39 37.52 54.07 35.74 52.96 34.78 C 51.90 33.76 50.24 35.58 51.34 36.54 M 26.55 43.12 C 27.30 44.35 28.06 45.57 28.84 46.78 C 31.06 44.94 33.32 43.14 35.60 41.37 C 35.12 40.68 34.15 39.32 33.67 38.63 C 31.31 40.15 28.94 41.65 26.55 43.12 M 65.47 43.65 C 66.34 45.76 67.83 47.54 69.08 49.43 C 69.88 48.60 70.68 47.76 71.49 46.93 C 70.21 45.28 68.93 43.64 67.67 41.98 C 70.01 42.65 72.35 43.34 74.74 43.82 C 72.28 41.45 69.44 39.54 66.35 38.09 C 65.98 39.92 65.50 41.76 65.47 43.65 M 31.52 48.62 C 34.60 48.18 36.95 46.22 38.43 43.54 C 35.81 44.76 33.50 46.52 31.52 48.62 M 43.59 45.19 C 43.61 48.70 43.46 52.20 43.12 55.69 C 47.63 55.07 52.14 55.74 56.40 57.33 C 55.64 56.13 54.87 54.94 54.10 53.74 C 57.16 51.59 59.75 48.87 61.66 45.64 C 55.94 48.69 49.38 47.13 43.59 45.19 M 38.52 46.20 C 37.80 49.75 36.68 53.19 35.23 56.50 C 36.52 55.74 37.87 55.04 39.04 54.09 C 39.74 51.53 39.73 48.85 39.97 46.22 C 39.61 46.22 38.88 46.21 38.52 46.20 M 64.12 56.81 C 65.02 55.61 65.82 54.35 66.66 53.11 C 66.17 51.71 65.44 50.41 64.76 49.10 C 64.39 51.65 64.25 54.23 64.12 56.81 M 55.03 53.26 C 56.36 55.25 58.14 57.08 60.71 57.02 C 60.90 54.79 60.97 52.56 61.03 50.32 C 59.02 51.29 57.02 52.27 55.03 53.26 M 46.89 55.58 C 49.92 58.98 52.40 62.81 54.29 66.95 C 55.61 64.76 56.99 62.60 58.43 60.49 C 54.74 58.49 50.88 56.86 46.89 55.58 M 36.89 57.92 C 41.58 59.75 45.81 62.82 47.86 67.56 C 48.87 67.44 50.89 67.20 51.90 67.07 C 51.18 64.36 50.81 61.29 48.51 59.38 C 45.49 56.14 40.73 57.51 36.89 57.92 M 57.41 65.63 C 59.57 65.09 61.73 64.52 63.87 63.90 C 62.95 61.80 61.99 59.72 60.83 57.74 C 59.52 60.29 58.50 62.98 57.41 65.63 M 33.66 59.59 C 38.07 62.23 41.86 65.72 46.00 68.73 C 45.29 66.43 44.75 63.82 42.62 62.36 C 40.23 60.04 36.77 59.95 33.66 59.59 M 35.31 63.00 C 35.55 64.65 38.19 65.84 39.74 65.34 C 39.69 63.57 36.84 62.48 35.31 63.00 C 34.79 59.71 32.46 64.78 35.31 63.00 M 28.31 70.67 C 31.27 73.38 35.78 72.41 39.45 73.02 C 39.42 71.76 39.40 70.51 39.38 69.26 C 36.09 68.85 32.79 68.47 29.54 67.76 C 32.92 67.62 36.31 67.72 39.70 67.64 C 36.24 65.34 32.50 63.49 28.61 62.04 C 28.41 64.91 28.07 67.79 28.31 70.67 M 57.03 67.11 C 56.97 67.76 56.84 69.06 56.77 69.71 C 58.96 69.37 61.15 69.02 63.33 68.66 C 63.49 67.85 63.80 66.24 63.96 65.43 C 61.65 66.00 59.34 66.58 57.03 67.11 M 40.91 68.92 C 40.49 70.18 40.07 71.45 39.65 72.71 C 45.52 72.12 53.47 73.47 56.86 67.37 C 51.60 68.38 46.28 69.09 40.91 68.92 Z" />
<path fill="#ffffff" opacity="1.00" d=" M 33.51 24.01 C 37.01 22.99 40.46 21.64 44.10 21.19 C 47.82 20.91 51.52 21.49 55.21 21.82 C 54.02 28.07 51.55 34.08 47.23 38.84 C 47.68 38.88 48.57 38.95 49.02 38.99 C 48.02 40.46 47.03 41.92 46.09 43.42 C 49.71 41.00 52.95 37.96 55.11 34.14 C 57.63 30.50 57.92 25.97 58.61 21.73 C 60.95 22.16 63.32 22.55 65.55 23.42 C 66.32 26.70 65.75 30.71 62.89 32.84 C 59.84 35.19 56.49 37.14 53.59 39.68 C 56.85 38.29 59.90 36.47 62.95 34.66 C 61.71 38.75 61.55 44.40 56.84 46.13 C 52.56 46.51 47.92 46.27 44.10 44.09 C 37.70 39.39 34.40 31.74 33.51 24.01 Z" />
<path fill="#faeff0" opacity="1.00" d=" M 52.96 34.78 C 53.83 30.16 55.16 25.63 57.04 21.32 C 57.10 26.11 56.30 31.11 52.96 34.78 Z" />
<path fill="#ffffff" opacity="1.00" d=" M 19.67 26.36 C 22.63 26.25 25.58 26.22 28.54 26.23 C 28.75 26.89 29.15 28.20 29.36 28.86 C 26.12 28.07 22.87 27.31 19.67 26.36 Z" />
<path fill="#ffffff" opacity="1.00" d=" M 70.43 27.56 C 73.84 25.92 77.65 26.05 81.31 26.43 C 77.76 27.30 74.10 27.76 70.43 27.56 Z" />
<path fill="#ffffff" opacity="1.00" d=" M 18.36 29.31 C 21.28 28.83 24.05 29.59 26.75 30.62 C 23.85 31.10 20.94 30.74 18.36 29.31 Z" />
<path fill="#ffffff" opacity="1.00" d=" M 70.66 30.66 C 74.32 29.89 78.06 29.53 81.79 29.65 C 78.38 31.68 74.40 31.26 70.66 30.66 Z" />
<path fill="#ffffff" opacity="1.00" d=" M 69.23 32.77 C 71.72 33.29 74.21 33.80 76.71 34.31 C 76.78 35.50 76.86 36.68 76.93 37.87 C 73.83 36.96 70.73 36.08 67.62 35.24 C 68.02 34.62 68.83 33.39 69.23 32.77 Z" />
<path fill="#ffffff" opacity="1.00" d=" M 19.93 34.29 C 24.39 34.12 29.65 32.16 33.31 35.72 C 30.00 37.02 26.60 38.09 23.20 39.11 C 22.11 37.50 21.02 35.90 19.93 34.29 Z" />
<path fill="#faeff0" opacity="1.00" d=" M 51.34 36.54 C 50.24 35.58 51.90 33.76 52.96 34.78 C 54.07 35.74 52.39 37.52 51.34 36.54 Z" />
<path fill="#ffffff" opacity="1.00" d=" M 26.55 43.12 C 28.94 41.65 31.31 40.15 33.67 38.63 C 34.15 39.32 35.12 40.68 35.60 41.37 C 33.32 43.14 31.06 44.94 28.84 46.78 C 28.06 45.57 27.30 44.35 26.55 43.12 Z" />
<path fill="#ffffff" opacity="1.00" d=" M 65.47 43.65 C 65.50 41.76 65.98 39.92 66.35 38.09 C 69.44 39.54 72.28 41.45 74.74 43.82 C 72.35 43.34 70.01 42.65 67.67 41.98 C 68.93 43.64 70.21 45.28 71.49 46.93 C 70.68 47.76 69.88 48.60 69.08 49.43 C 67.83 47.54 66.34 45.76 65.47 43.65 Z" />
<path fill="#ffffff" opacity="1.00" d=" M 31.52 48.62 C 33.50 46.52 35.81 44.76 38.43 43.54 C 36.95 46.22 34.60 48.18 31.52 48.62 Z" />
<path fill="#ffffff" opacity="1.00" d=" M 43.59 45.19 C 49.38 47.13 55.94 48.69 61.66 45.64 C 59.75 48.87 57.16 51.59 54.10 53.74 C 54.87 54.94 55.64 56.13 56.40 57.33 C 52.14 55.74 47.63 55.07 43.12 55.69 C 43.46 52.20 43.61 48.70 43.59 45.19 Z" />
<path fill="#ffffff" opacity="1.00" d=" M 38.52 46.20 C 38.88 46.21 39.61 46.22 39.97 46.22 C 39.73 48.85 39.74 51.53 39.04 54.09 C 37.87 55.04 36.52 55.74 35.23 56.50 C 36.68 53.19 37.80 49.75 38.52 46.20 Z" />
<path fill="#ffffff" opacity="1.00" d=" M 64.12 56.81 C 64.25 54.23 64.39 51.65 64.76 49.10 C 65.44 50.41 66.17 51.71 66.66 53.11 C 65.82 54.35 65.02 55.61 64.12 56.81 Z" />
<path fill="#ffffff" opacity="1.00" d=" M 55.03 53.26 C 57.02 52.27 59.02 51.29 61.03 50.32 C 60.97 52.56 60.90 54.79 60.71 57.02 C 58.14 57.08 56.36 55.25 55.03 53.26 Z" />
<path fill="#ffffff" opacity="1.00" d=" M 46.89 55.58 C 50.88 56.86 54.74 58.49 58.43 60.49 C 56.99 62.60 55.61 64.76 54.29 66.95 C 52.40 62.81 49.92 58.98 46.89 55.58 Z" />
<path fill="#ffffff" opacity="1.00" d=" M 36.89 57.92 C 40.73 57.51 45.49 56.14 48.51 59.38 C 50.81 61.29 51.18 64.36 51.90 67.07 C 50.89 67.20 48.87 67.44 47.86 67.56 C 45.81 62.82 41.58 59.75 36.89 57.92 Z" />
<path fill="#ffffff" opacity="1.00" d=" M 57.41 65.63 C 58.50 62.98 59.52 60.29 60.83 57.74 C 61.99 59.72 62.95 61.80 63.87 63.90 C 61.73 64.52 59.57 65.09 57.41 65.63 Z" />
<path fill="#ffffff" opacity="1.00" d=" M 33.66 59.59 C 36.77 59.95 40.23 60.04 42.62 62.36 C 44.75 63.82 45.29 66.43 46.00 68.73 C 41.86 65.72 38.07 62.23 33.66 59.59 Z" />
<path fill="#f2d7da" opacity="1.00" d=" M 35.31 63.00 C 32.46 64.78 34.79 59.71 35.31 63.00 Z" />
<path fill="#ffffff" opacity="1.00" d=" M 28.31 70.67 C 28.07 67.79 28.41 64.91 28.61 62.04 C 32.50 63.49 36.24 65.34 39.70 67.64 C 36.31 67.72 32.92 67.62 29.54 67.76 C 32.79 68.47 36.09 68.85 39.38 69.26 C 39.40 70.51 39.42 71.76 39.45 73.02 C 35.78 72.41 31.27 73.38 28.31 70.67 Z" />
<path fill="#ffffff" opacity="1.00" d=" M 35.31 63.00 C 36.84 62.48 39.69 63.57 39.74 65.34 C 38.19 65.84 35.55 64.65 35.31 63.00 Z" />
<path fill="#ffffff" opacity="1.00" d=" M 57.03 67.11 C 59.34 66.58 61.65 66.00 63.96 65.43 C 63.80 66.24 63.49 67.85 63.33 68.66 C 61.15 69.02 58.96 69.37 56.77 69.71 C 56.84 69.06 56.97 67.76 57.03 67.11 Z" />
<path fill="#ffffff" opacity="1.00" d=" M 40.91 68.92 C 46.28 69.09 51.60 68.38 56.86 67.37 C 53.47 73.47 45.52 72.12 39.65 72.71 C 40.07 71.45 40.49 70.18 40.91 68.92 Z" />
</svg>
