<?xml version="1.0" encoding="UTF-8" ?>
<!DOCTYPE svg PUBLIC "-//W3C//DTD SVG 1.1//EN" "http://www.w3.org/Graphics/SVG/1.1/DTD/svg11.dtd">
<svg width="100pt" height="100pt" viewBox="0 0 100 100" version="1.1" xmlns="http://www.w3.org/2000/svg">
<path fill="#b7c0bf" opacity="1.00" d=" M 74.05 20.44 C 78.24 20.34 81.94 18.08 85.98 17.23 C 85.63 17.58 84.95 18.29 84.61 18.64 C 80.27 21.42 75.24 23.34 70.02 23.30 C 64.60 23.48 59.50 21.37 54.19 20.65 C 47.73 19.75 41.05 19.96 34.75 21.73 C 26.39 24.26 17.58 22.87 9.01 23.12 C 13.26 29.46 18.09 35.41 22.31 41.77 C 23.68 43.47 23.58 45.65 22.94 47.62 C 15.64 39.03 9.64 29.43 2.89 20.41 C 10.27 20.34 17.65 20.44 25.03 20.43 C 29.75 20.50 34.21 18.62 38.92 18.40 C 47.37 17.43 55.98 18.05 64.28 19.87 C 67.49 20.54 70.79 20.57 74.05 20.44 Z" />
<path fill="#c40f24" opacity="1.00" d=" M 70.02 23.30 C 75.24 23.34 80.27 21.42 84.61 18.64 L 84.28 19.53 C 83.88 20.57 83.48 21.61 83.09 22.66 C 84.12 23.10 85.15 23.54 86.18 23.99 C 85.46 25.11 84.74 26.23 84.01 27.36 C 86.79 27.49 89.56 27.68 92.32 27.91 C 88.88 31.24 85.22 34.34 81.52 37.37 C 84.40 39.31 87.33 41.19 90.26 43.06 C 86.41 44.06 82.55 45.04 78.69 46.04 C 80.93 49.02 83.18 51.99 85.33 55.04 C 80.90 53.93 76.52 52.64 72.16 51.27 C 71.68 53.16 71.21 55.05 70.69 56.93 C 70.26 58.47 69.74 59.98 69.22 61.48 C 69.05 61.02 68.69 60.08 68.52 59.61 C 68.28 58.98 67.82 57.71 67.59 57.08 C 64.66 60.00 61.59 62.77 58.57 65.59 C 54.60 69.28 51.74 73.92 48.67 78.33 C 45.54 74.42 42.94 70.09 39.48 66.45 C 37.13 63.81 33.42 63.57 30.19 62.84 C 30.41 60.67 30.63 58.50 30.85 56.33 C 29.15 55.28 27.45 54.23 25.76 53.18 C 24.49 52.40 23.23 51.60 21.98 50.80 C 22.31 49.74 22.68 48.69 22.94 47.62 C 23.58 45.65 23.68 43.47 22.31 41.77 C 18.09 35.41 13.26 29.46 9.01 23.12 C 17.58 22.87 26.39 24.26 34.75 21.73 C 41.05 19.96 47.73 19.75 54.19 20.65 C 59.50 21.37 64.60 23.48 70.02 23.30 M 36.49 23.28 C 35.91 25.06 35.50 26.93 34.55 28.57 C 31.76 30.43 28.17 30.10 24.98 30.49 C 24.81 36.72 25.56 42.98 27.84 48.82 C 26.47 48.98 25.10 49.15 23.73 49.32 C 26.29 50.40 29.24 53.89 32.04 52.04 C 29.79 45.96 27.19 39.84 27.59 33.19 C 30.14 32.66 32.83 32.42 35.19 31.22 C 37.11 29.76 38.01 27.39 39.67 25.69 C 44.88 24.62 50.24 25.26 55.51 25.52 C 56.73 27.51 57.39 30.19 59.67 31.24 C 62.60 32.59 65.72 33.47 68.59 34.95 C 73.03 33.20 77.31 31.08 81.40 28.63 C 78.24 29.37 75.11 30.20 71.96 30.95 C 74.74 28.27 77.68 25.74 80.27 22.87 C 75.00 24.99 70.37 28.52 64.94 30.21 C 63.08 29.96 61.33 29.29 59.57 28.72 C 59.28 26.93 59.00 25.14 58.71 23.36 C 51.33 22.41 43.87 22.23 36.49 23.28 M 38.42 31.45 C 36.37 34.01 32.97 34.52 30.02 35.43 C 30.36 40.55 31.76 45.52 34.03 50.11 C 36.10 49.24 38.09 48.13 40.30 47.66 C 42.18 47.65 44.00 48.22 45.82 48.60 C 48.45 46.02 50.74 43.08 53.56 40.70 C 57.00 38.57 60.94 37.47 64.65 35.91 C 60.16 34.63 55.78 32.47 53.67 28.05 C 50.14 27.74 46.56 27.33 43.03 27.84 C 40.86 27.97 39.86 30.15 38.42 31.45 M 74.63 35.13 C 79.96 35.45 84.93 33.16 88.34 29.11 C 83.48 30.34 78.86 32.44 74.63 35.13 M 60.51 40.43 C 63.14 40.74 65.80 41.51 68.46 41.12 C 70.52 40.53 69.93 37.75 70.59 36.14 C 67.15 37.37 63.76 38.74 60.51 40.43 M 72.74 38.47 C 66.99 44.55 65.41 53.44 58.90 58.89 C 55.47 61.75 51.78 65.01 47.25 65.76 C 42.22 63.37 38.82 58.75 34.82 55.05 C 33.72 57.42 32.77 59.85 31.95 62.32 C 33.10 61.37 34.23 60.39 35.35 59.41 C 38.91 62.93 42.50 66.71 47.17 68.72 C 57.96 66.03 64.64 56.43 71.27 48.27 C 74.83 49.90 78.40 51.51 82.04 52.98 C 79.36 50.09 76.50 47.38 73.77 44.54 C 77.30 43.91 80.84 43.30 84.31 42.37 C 81.11 42.14 77.91 42.07 74.71 42.03 C 76.61 40.87 78.52 39.72 80.37 38.49 C 77.83 38.43 75.28 38.43 72.74 38.47 M 55.62 44.69 C 52.62 46.09 51.14 49.28 48.66 51.31 C 46.54 51.47 44.41 51.13 42.29 51.34 C 40.56 51.94 39.07 53.05 37.51 53.98 C 40.37 57.74 43.91 60.90 47.84 63.51 C 52.13 61.08 56.50 58.51 59.71 54.67 C 62.70 51.35 64.47 47.18 66.01 43.04 C 62.55 43.59 59.00 43.75 55.62 44.69 Z" />
<path fill="#b8bab9" opacity="1.00" d=" M 83.09 22.66 C 83.48 21.61 83.88 20.57 84.28 19.53 C 87.14 20.11 90.05 20.39 92.96 20.56 C 91.86 22.25 90.77 23.94 89.72 25.66 C 92.15 26.16 94.58 26.66 97.00 27.18 C 93.23 30.63 89.31 33.91 85.46 37.28 C 88.28 39.42 91.20 41.42 94.04 43.52 C 90.40 44.83 86.75 46.12 83.11 47.42 C 84.80 50.86 86.54 54.28 88.22 57.72 C 84.47 56.82 80.77 55.66 76.96 55.03 C 74.68 54.56 72.73 56.20 70.69 56.93 C 71.21 55.05 71.68 53.16 72.16 51.27 C 76.52 52.64 80.90 53.93 85.33 55.04 C 83.18 51.99 80.93 49.02 78.69 46.04 C 82.55 45.04 86.41 44.06 90.26 43.06 C 87.33 41.19 84.40 39.31 81.52 37.37 C 85.22 34.34 88.88 31.24 92.32 27.91 C 89.56 27.68 86.79 27.49 84.01 27.36 C 84.74 26.23 85.46 25.11 86.18 23.99 C 85.15 23.54 84.12 23.10 83.09 22.66 Z" />
<path fill="#ffffff" opacity="1.00" d=" M 36.49 23.28 C 43.87 22.23 51.33 22.41 58.71 23.36 C 59.00 25.14 59.28 26.93 59.57 28.72 C 61.33 29.29 63.08 29.96 64.94 30.21 C 70.37 28.52 75.00 24.99 80.27 22.87 C 77.68 25.74 74.74 28.27 71.96 30.95 C 75.11 30.20 78.24 29.37 81.40 28.63 C 77.31 31.08 73.03 33.20 68.59 34.95 C 65.72 33.47 62.60 32.59 59.67 31.24 C 57.39 30.19 56.73 27.51 55.51 25.52 C 50.24 25.26 44.88 24.62 39.67 25.69 C 38.01 27.39 37.11 29.76 35.19 31.22 C 32.83 32.42 30.14 32.66 27.59 33.19 C 27.19 39.84 29.79 45.96 32.04 52.04 C 29.24 53.89 26.29 50.40 23.73 49.32 C 25.10 49.15 26.47 48.98 27.84 48.82 C 25.56 42.98 24.81 36.72 24.98 30.49 C 28.17 30.10 31.76 30.43 34.55 28.57 C 35.50 26.93 35.91 25.06 36.49 23.28 Z" />
<path fill="#ffffff" opacity="1.00" d=" M 38.42 31.45 C 39.86 30.15 40.86 27.97 43.03 27.84 C 46.56 27.33 50.14 27.74 53.67 28.05 C 55.78 32.47 60.16 34.63 64.65 35.91 C 60.94 37.47 57.00 38.57 53.56 40.70 C 50.74 43.08 48.45 46.02 45.82 48.60 C 44.00 48.22 42.18 47.65 40.30 47.66 C 38.09 48.13 36.10 49.24 34.03 50.11 C 31.76 45.52 30.36 40.55 30.02 35.43 C 32.97 34.52 36.37 34.01 38.42 31.45 Z" />
<path fill="#ffffff" opacity="1.00" d=" M 74.63 35.13 C 78.86 32.44 83.48 30.34 88.34 29.11 C 84.93 33.16 79.96 35.45 74.63 35.13 Z" />
<path fill="#ffffff" opacity="1.00" d=" M 60.51 40.43 C 63.76 38.74 67.15 37.37 70.59 36.14 C 69.93 37.75 70.52 40.53 68.46 41.12 C 65.80 41.51 63.14 40.74 60.51 40.43 Z" />
<path fill="#ffffff" opacity="1.00" d=" M 72.74 38.47 C 75.28 38.43 77.83 38.43 80.37 38.49 C 78.52 39.72 76.61 40.87 74.71 42.03 C 77.91 42.07 81.11 42.14 84.31 42.37 C 80.84 43.30 77.30 43.91 73.77 44.54 C 76.50 47.38 79.36 50.09 82.04 52.98 C 78.40 51.51 74.83 49.90 71.27 48.27 C 64.64 56.43 57.96 66.03 47.17 68.72 C 42.50 66.71 38.91 62.93 35.35 59.41 C 34.23 60.39 33.10 61.37 31.95 62.32 C 32.77 59.85 33.72 57.42 34.82 55.05 C 38.82 58.75 42.22 63.37 47.25 65.76 C 51.78 65.01 55.47 61.75 58.90 58.89 C 65.41 53.44 66.99 44.55 72.74 38.47 Z" />
<path fill="#ffffff" opacity="1.00" d=" M 55.62 44.69 C 59.00 43.75 62.55 43.59 66.01 43.04 C 64.47 47.18 62.70 51.35 59.71 54.67 C 56.50 58.51 52.13 61.08 47.84 63.51 C 43.91 60.90 40.37 57.74 37.51 53.98 C 39.07 53.05 40.56 51.94 42.29 51.34 C 44.41 51.13 46.54 51.47 48.66 51.31 C 51.14 49.28 52.62 46.09 55.62 44.69 Z" />
<path fill="#b8bbbb" opacity="1.00" d=" M 25.76 53.18 C 27.45 54.23 29.15 55.28 30.85 56.33 C 30.63 58.50 30.41 60.67 30.19 62.84 C 33.42 63.57 37.13 63.81 39.48 66.45 C 42.94 70.09 45.54 74.42 48.67 78.33 C 51.74 73.92 54.60 69.28 58.57 65.59 C 61.59 62.77 64.66 60.00 67.59 57.08 C 67.82 57.71 68.28 58.98 68.52 59.61 C 64.78 63.16 60.71 66.46 57.80 70.78 C 54.74 75.17 51.70 79.58 48.63 83.96 C 44.50 78.84 41.21 73.09 36.92 68.12 C 34.03 66.33 30.56 65.64 27.45 64.25 C 28.36 60.42 27.55 56.62 25.76 53.18 Z" />
</svg>
