<?xml version="1.0" encoding="UTF-8" ?>
<!DOCTYPE svg PUBLIC "-//W3C//DTD SVG 1.1//EN" "http://www.w3.org/Graphics/SVG/1.1/DTD/svg11.dtd">
<svg width="100pt" height="100pt" viewBox="0 0 100 100" version="1.1" xmlns="http://www.w3.org/2000/svg">
<path fill="#ffffff" opacity="1.00" d=" M 44.39 11.70 C 55.34 10.11 66.86 13.52 75.17 20.82 C 82.84 27.38 87.47 37.06 88.60 47.02 C 89.87 63.18 79.95 79.65 64.86 85.79 C 54.79 90.08 42.84 89.82 32.99 85.02 C 25.64 81.48 19.44 75.57 15.63 68.35 C 9.70 57.36 9.59 43.44 15.34 32.35 C 20.91 21.27 32.12 13.35 44.39 11.70 M 42.90 15.24 C 41.28 20.00 39.93 24.91 40.00 29.99 C 45.20 26.44 46.21 19.77 49.46 14.75 C 47.27 14.91 45.09 15.08 42.90 15.24 M 51.14 14.64 C 48.69 18.84 46.42 23.21 45.43 28.01 C 51.22 25.93 53.71 19.86 57.73 15.67 C 55.53 15.33 53.34 14.99 51.14 14.64 M 34.13 18.26 C 33.90 23.42 33.91 28.64 35.22 33.67 C 39.37 28.63 38.74 21.63 41.07 15.78 C 38.76 16.60 36.44 17.43 34.13 18.26 M 59.31 15.92 C 56.14 19.56 53.13 23.37 50.84 27.64 C 57.28 27.62 61.21 21.64 66.49 18.82 C 64.09 17.88 61.69 16.92 59.31 15.92 M 25.71 23.98 C 27.02 28.33 28.54 32.62 30.23 36.83 C 30.88 36.68 32.18 36.38 32.83 36.23 C 32.60 30.55 32.31 24.86 32.45 19.16 C 30.23 20.81 27.99 22.42 25.71 23.98 M 56.51 29.20 C 62.90 30.24 68.43 26.03 74.46 24.70 C 72.29 23.02 70.13 21.32 68.00 19.58 C 63.82 22.33 59.66 25.25 56.51 29.20 M 24.42 25.35 C 22.68 27.54 21.00 29.77 19.26 31.94 C 21.43 34.92 23.62 37.88 25.81 40.84 C 26.89 40.11 27.96 39.38 29.03 38.65 C 27.29 34.29 25.84 29.82 24.42 25.35 M 62.40 31.04 C 63.08 31.87 63.74 32.71 64.40 33.55 C 69.77 32.72 75.22 32.63 80.64 32.74 C 79.07 30.51 77.49 28.28 75.95 26.03 C 71.30 27.33 66.74 28.92 62.40 31.04 M 37.06 37.06 C 32.74 40.88 28.15 44.35 23.57 47.83 C 41.11 47.86 58.65 47.80 76.19 47.86 C 71.77 44.63 67.40 41.33 63.26 37.74 C 59.26 34.36 54.48 31.15 48.99 31.50 C 44.40 31.53 40.38 34.12 37.06 37.06 M 15.64 40.61 C 17.37 41.97 19.11 43.32 20.82 44.69 C 21.86 43.53 23.13 42.60 24.54 41.94 C 22.47 39.12 20.54 36.21 18.61 33.30 C 17.68 35.76 16.67 38.19 15.64 40.61 M 66.48 35.38 C 71.52 39.36 78.22 39.33 84.07 41.37 C 83.25 39.02 82.41 36.68 81.57 34.34 C 76.52 34.13 71.42 34.19 66.48 35.38 M 72.86 40.11 C 76.62 43.17 80.80 45.66 85.04 47.99 C 84.78 46.40 84.63 44.80 84.58 43.19 C 80.72 42.00 76.82 40.91 72.86 40.11 M 15.20 41.82 C 15.00 43.91 14.80 45.99 14.63 48.08 C 16.15 47.14 17.67 46.18 19.19 45.24 C 17.86 44.10 16.53 42.96 15.20 41.82 M 20.55 51.92 C 26.13 55.01 31.95 57.89 36.56 62.41 C 40.12 65.96 44.69 69.04 49.95 68.70 C 55.69 68.79 60.17 64.79 64.24 61.26 C 68.56 57.42 73.76 54.86 78.72 51.99 C 71.83 51.62 64.92 51.81 58.02 51.83 C 57.46 55.21 57.29 59.08 54.67 61.62 C 52.17 64.25 47.66 64.44 44.96 62.02 C 41.93 59.58 41.77 55.40 41.30 51.86 C 34.38 51.80 27.46 51.65 20.55 51.92 M 14.09 54.90 C 16.85 58.38 21.35 59.09 25.46 59.72 C 22.03 57.38 18.19 55.66 14.09 54.90 M 82.42 55.31 C 81.15 56.56 83.34 58.68 84.48 57.23 C 85.74 55.93 83.61 53.86 82.42 55.31 M 75.40 58.78 C 77.30 61.40 79.11 64.07 80.91 66.76 C 81.93 64.49 82.92 62.21 83.95 59.94 C 82.64 58.76 81.36 57.54 80.06 56.36 C 78.52 57.19 76.96 58.00 75.40 58.78 M 15.58 58.90 C 16.39 61.21 17.22 63.52 18.06 65.83 C 23.20 65.99 28.40 65.95 33.42 64.66 C 28.18 60.91 21.51 60.86 15.58 58.90 M 70.56 61.27 C 72.22 65.75 73.67 70.31 75.11 74.87 C 76.84 72.63 78.56 70.38 80.33 68.17 C 78.20 65.36 76.11 62.51 74.07 59.63 C 72.90 60.18 71.73 60.72 70.56 61.27 M 66.35 64.56 C 67.09 70.05 67.20 75.60 67.13 81.14 C 69.35 79.41 71.61 77.73 73.87 76.06 C 72.48 71.56 70.90 67.12 68.96 62.82 C 68.09 63.40 67.22 63.98 66.35 64.56 M 18.75 67.39 C 20.38 69.65 21.84 72.10 24.07 73.82 C 28.98 73.07 33.57 70.94 37.85 68.49 C 31.91 65.48 25.10 68.27 18.75 67.39 M 63.01 66.97 C 60.76 72.59 60.52 78.79 58.40 84.48 C 60.79 83.58 63.17 82.65 65.58 81.78 C 65.57 76.94 65.89 71.99 64.62 67.27 C 64.22 67.20 63.41 67.05 63.01 66.97 M 24.92 75.46 C 27.23 77.12 29.50 78.85 31.76 80.58 C 35.55 77.94 39.20 75.10 42.63 72.01 C 41.66 71.39 40.69 70.77 39.73 70.14 C 34.96 72.35 29.95 73.95 24.92 75.46 M 49.95 85.52 C 52.22 85.28 54.50 85.06 56.77 84.82 C 58.40 79.95 59.69 74.89 59.42 69.71 C 54.63 73.87 53.29 80.35 49.95 85.52 M 33.19 81.31 C 35.48 82.30 37.77 83.30 40.06 84.29 C 43.36 80.72 46.52 76.93 48.49 72.44 C 42.28 73.08 38.25 78.27 33.19 81.31 M 41.67 84.60 C 43.89 84.93 46.10 85.26 48.31 85.60 C 50.84 81.37 53.17 76.96 54.22 72.11 C 48.28 74.14 45.86 80.44 41.67 84.60 Z" />
<path fill="#482b46" opacity="1.00" d=" M 42.90 15.24 C 45.09 15.08 47.27 14.91 49.46 14.75 C 46.21 19.77 45.20 26.44 40.00 29.99 C 39.93 24.91 41.28 20.00 42.90 15.24 Z" />
<path fill="#4a2c48" opacity="1.00" d=" M 51.14 14.64 C 53.34 14.99 55.53 15.33 57.73 15.67 C 53.71 19.86 51.22 25.93 45.43 28.01 C 46.42 23.21 48.69 18.84 51.14 14.64 Z" />
<path fill="#422540" opacity="1.00" d=" M 34.13 18.26 C 36.44 17.43 38.76 16.60 41.07 15.78 C 38.74 21.63 39.37 28.63 35.22 33.67 C 33.91 28.64 33.90 23.42 34.13 18.26 Z" />
<path fill="#4a2d48" opacity="1.00" d=" M 59.31 15.92 C 61.69 16.92 64.09 17.88 66.49 18.82 C 61.21 21.64 57.28 27.62 50.84 27.64 C 53.13 23.37 56.14 19.56 59.31 15.92 Z" />
<path fill="#482b46" opacity="1.00" d=" M 25.71 23.98 C 27.99 22.42 30.23 20.81 32.45 19.16 C 32.31 24.86 32.60 30.55 32.83 36.23 C 32.18 36.38 30.88 36.68 30.23 36.83 C 28.54 32.62 27.02 28.33 25.71 23.98 Z" />
<path fill="#492c47" opacity="1.00" d=" M 56.51 29.20 C 59.66 25.25 63.82 22.33 68.00 19.58 C 70.13 21.32 72.29 23.02 74.46 24.70 C 68.43 26.03 62.90 30.24 56.51 29.20 Z" />
<path fill="#492c47" opacity="1.00" d=" M 24.42 25.35 C 25.84 29.82 27.29 34.29 29.03 38.65 C 27.96 39.38 26.89 40.11 25.81 40.84 C 23.62 37.88 21.43 34.92 19.26 31.94 C 21.00 29.77 22.68 27.54 24.42 25.35 Z" />
<path fill="#482b46" opacity="1.00" d=" M 62.40 31.04 C 66.74 28.92 71.30 27.33 75.95 26.03 C 77.49 28.28 79.07 30.51 80.64 32.74 C 75.22 32.63 69.77 32.72 64.40 33.55 C 63.74 32.71 63.08 31.87 62.40 31.04 Z" />
<path fill="#482b46" opacity="1.00" d=" M 37.06 37.06 C 40.38 34.12 44.40 31.53 48.99 31.50 C 54.48 31.15 59.26 34.36 63.26 37.74 C 67.40 41.33 71.77 44.63 76.19 47.86 C 58.65 47.80 41.11 47.86 23.57 47.83 C 28.15 44.35 32.74 40.88 37.06 37.06 Z" />
<path fill="#4a2c48" opacity="1.00" d=" M 15.64 40.61 C 16.67 38.19 17.68 35.76 18.61 33.30 C 20.54 36.21 22.47 39.12 24.54 41.94 C 23.13 42.60 21.86 43.53 20.82 44.69 C 19.11 43.32 17.37 41.97 15.64 40.61 Z" />
<path fill="#482b46" opacity="1.00" d=" M 66.48 35.38 C 71.42 34.19 76.52 34.13 81.57 34.34 C 82.41 36.68 83.25 39.02 84.07 41.37 C 78.22 39.33 71.52 39.36 66.48 35.38 Z" />
<path fill="#42253f" opacity="1.00" d=" M 72.86 40.11 C 76.82 40.91 80.72 42.00 84.58 43.19 C 84.63 44.80 84.78 46.40 85.04 47.99 C 80.80 45.66 76.62 43.17 72.86 40.11 Z" />
<path fill="#432741" opacity="1.00" d=" M 15.20 41.82 C 16.53 42.96 17.86 44.10 19.19 45.24 C 17.67 46.18 16.15 47.14 14.63 48.08 C 14.80 45.99 15.00 43.91 15.20 41.82 Z" />
<path fill="#482b46" opacity="1.00" d=" M 20.55 51.92 C 27.46 51.65 34.38 51.80 41.30 51.86 C 41.77 55.40 41.93 59.58 44.96 62.02 C 47.66 64.44 52.17 64.25 54.67 61.62 C 57.29 59.08 57.46 55.21 58.02 51.83 C 64.92 51.81 71.83 51.62 78.72 51.99 C 73.76 54.86 68.56 57.42 64.24 61.26 C 60.17 64.79 55.69 68.79 49.95 68.70 C 44.69 69.04 40.12 65.96 36.56 62.41 C 31.95 57.89 26.13 55.01 20.55 51.92 Z" />
<path fill="#42253f" opacity="1.00" d=" M 14.09 54.90 C 18.19 55.66 22.03 57.38 25.46 59.72 C 21.35 59.09 16.85 58.38 14.09 54.90 Z" />
<path fill="#42253f" opacity="1.00" d=" M 82.42 55.31 C 83.61 53.86 85.74 55.93 84.48 57.23 C 83.34 58.68 81.15 56.56 82.42 55.31 Z" />
<path fill="#492c47" opacity="1.00" d=" M 75.40 58.78 C 76.96 58.00 78.52 57.19 80.06 56.36 C 81.36 57.54 82.64 58.76 83.95 59.94 C 82.92 62.21 81.93 64.49 80.91 66.76 C 79.11 64.07 77.30 61.40 75.40 58.78 Z" />
<path fill="#432741" opacity="1.00" d=" M 15.58 58.90 C 21.51 60.86 28.18 60.91 33.42 64.66 C 28.40 65.95 23.20 65.99 18.06 65.83 C 17.22 63.52 16.39 61.21 15.58 58.90 Z" />
<path fill="#492c47" opacity="1.00" d=" M 70.56 61.27 C 71.73 60.72 72.90 60.18 74.07 59.63 C 76.11 62.51 78.20 65.36 80.33 68.17 C 78.56 70.38 76.84 72.63 75.11 74.87 C 73.67 70.31 72.22 65.75 70.56 61.27 Z" />
<path fill="#482b46" opacity="1.00" d=" M 66.35 64.56 C 67.22 63.98 68.09 63.40 68.96 62.82 C 70.90 67.12 72.48 71.56 73.87 76.06 C 71.61 77.73 69.35 79.41 67.13 81.14 C 67.20 75.60 67.09 70.05 66.35 64.56 Z" />
<path fill="#482b46" opacity="1.00" d=" M 18.75 67.39 C 25.10 68.27 31.91 65.48 37.85 68.49 C 33.57 70.94 28.98 73.07 24.07 73.82 C 21.84 72.10 20.38 69.65 18.75 67.39 Z" />
<path fill="#462944" opacity="1.00" d=" M 63.01 66.97 C 63.41 67.05 64.22 67.20 64.62 67.27 C 65.89 71.99 65.57 76.94 65.58 81.78 C 63.17 82.65 60.79 83.58 58.40 84.48 C 60.52 78.79 60.76 72.59 63.01 66.97 Z" />
<path fill="#492c47" opacity="1.00" d=" M 24.92 75.46 C 29.95 73.95 34.96 72.35 39.73 70.14 C 40.69 70.77 41.66 71.39 42.63 72.01 C 39.20 75.10 35.55 77.94 31.76 80.58 C 29.50 78.85 27.23 77.12 24.92 75.46 Z" />
<path fill="#482b45" opacity="1.00" d=" M 49.95 85.52 C 53.29 80.35 54.63 73.87 59.42 69.71 C 59.69 74.89 58.40 79.95 56.77 84.82 C 54.50 85.06 52.22 85.28 49.95 85.52 Z" />
<path fill="#4a2d48" opacity="1.00" d=" M 33.19 81.31 C 38.25 78.27 42.28 73.08 48.49 72.44 C 46.52 76.93 43.36 80.72 40.06 84.29 C 37.77 83.30 35.48 82.30 33.19 81.31 Z" />
<path fill="#492c47" opacity="1.00" d=" M 41.67 84.60 C 45.86 80.44 48.28 74.14 54.22 72.11 C 53.17 76.96 50.84 81.37 48.31 85.60 C 46.10 85.26 43.89 84.93 41.67 84.60 Z" />
</svg>
