<?xml version="1.0" encoding="UTF-8" ?>
<!DOCTYPE svg PUBLIC "-//W3C//DTD SVG 1.1//EN" "http://www.w3.org/Graphics/SVG/1.1/DTD/svg11.dtd">
<svg width="100pt" height="100pt" viewBox="0 0 100 100" version="1.1" xmlns="http://www.w3.org/2000/svg">
<path fill="#b9bbb9" opacity="1.00" d=" M 29.72 19.93 C 33.66 16.33 36.49 11.71 40.00 7.71 C 43.51 11.74 46.41 16.32 50.28 20.01 C 53.80 20.76 57.43 20.33 61.00 20.40 C 71.37 20.43 81.74 20.54 92.11 20.48 C 86.03 29.33 79.73 38.02 73.71 46.90 C 75.77 49.44 77.83 51.98 79.94 54.47 C 74.41 61.80 68.46 68.80 62.76 76.00 C 60.96 74.01 59.20 71.99 57.40 70.01 C 55.18 73.26 52.92 76.48 50.64 79.70 C 47.41 75.63 44.37 71.42 41.49 67.10 C 41.21 67.82 40.64 69.26 40.35 69.98 C 37.04 69.07 33.36 68.67 30.65 66.35 C 27.67 64.04 26.17 60.43 24.95 56.98 C 27.13 55.61 29.50 54.61 31.83 53.53 C 23.74 42.54 15.88 31.39 7.99 20.26 C 15.22 20.03 22.53 20.83 29.72 19.93 M 29.73 22.92 C 24.52 23.93 19.15 23.17 13.88 23.36 C 20.54 33.87 28.59 43.42 35.38 53.84 C 32.73 55.31 30.06 56.71 27.39 58.13 C 28.76 60.51 29.90 63.16 32.07 64.95 C 34.06 66.37 36.53 66.81 38.82 67.55 C 39.40 65.36 39.99 63.17 40.57 60.98 C 43.91 65.47 46.98 70.17 50.65 74.40 C 52.73 71.58 54.79 68.74 56.85 65.91 C 58.80 68.23 60.75 70.55 62.70 72.86 C 67.56 66.86 72.42 60.87 77.23 54.83 C 75.06 51.84 72.83 48.89 70.59 45.96 C 75.65 38.36 81.24 31.13 86.06 23.37 C 75.69 23.27 65.32 23.38 54.95 23.42 C 52.97 23.24 50.53 23.66 49.09 21.96 C 45.80 18.51 43.14 14.52 40.00 10.93 C 36.45 14.81 33.79 19.54 29.73 22.92 Z" />
<path fill="#941271" opacity="1.00" d=" M 29.73 22.92 C 33.79 19.54 36.45 14.81 40.00 10.93 C 43.14 14.52 45.80 18.51 49.09 21.96 C 50.53 23.66 52.97 23.24 54.95 23.42 C 65.32 23.38 75.69 23.27 86.06 23.37 C 81.24 31.13 75.65 38.36 70.59 45.96 C 72.83 48.89 75.06 51.84 77.23 54.83 C 72.42 60.87 67.56 66.86 62.70 72.86 C 60.75 70.55 58.80 68.23 56.85 65.91 C 54.79 68.74 52.73 71.58 50.65 74.40 C 46.98 70.17 43.91 65.47 40.57 60.98 C 39.99 63.17 39.40 65.36 38.82 67.55 C 36.53 66.81 34.06 66.37 32.07 64.95 C 29.90 63.16 28.76 60.51 27.39 58.13 C 30.06 56.71 32.73 55.31 35.38 53.84 C 28.59 43.42 20.54 33.87 13.88 23.36 C 19.15 23.17 24.52 23.93 29.73 22.92 M 28.54 29.14 C 32.20 34.00 36.03 38.74 40.00 43.35 C 43.97 38.74 47.80 34.00 51.46 29.14 C 47.71 24.34 43.90 19.60 40.00 14.93 C 36.10 19.60 32.29 24.34 28.54 29.14 M 56.28 30.26 C 50.79 36.38 45.72 42.87 40.17 48.94 C 38.70 47.81 37.23 46.67 35.76 45.53 C 35.52 46.14 35.05 47.37 34.82 47.98 C 36.33 49.45 37.85 50.90 39.35 52.37 C 37.01 55.43 34.06 57.92 30.65 59.70 C 32.39 61.56 34.31 63.25 36.41 64.70 C 37.89 61.22 39.80 57.94 42.13 54.96 C 43.83 56.16 45.52 57.37 47.20 58.60 C 48.10 58.37 49.01 58.13 49.91 57.90 C 48.56 56.48 47.19 55.10 45.83 53.70 C 50.82 47.12 56.57 41.18 61.75 34.77 C 63.51 32.90 62.88 30.22 62.96 27.91 C 60.66 28.40 57.88 28.21 56.28 30.26 M 51.47 54.82 C 54.75 59.85 58.94 64.21 62.68 68.90 C 66.52 64.21 70.31 59.48 74.13 54.77 C 70.51 49.90 66.64 45.23 62.77 40.57 C 58.86 45.18 54.41 49.49 51.47 54.82 Z" />
<path fill="#ffffff" opacity="1.00" d=" M 28.54 29.14 C 32.29 24.34 36.10 19.60 40.00 14.93 C 43.90 19.60 47.71 24.34 51.46 29.14 C 47.80 34.00 43.97 38.74 40.00 43.35 C 36.03 38.74 32.20 34.00 28.54 29.14 M 40.07 18.73 C 39.91 22.96 39.94 27.19 40.05 31.42 C 42.80 30.60 45.55 29.77 48.30 28.93 C 45.77 25.36 43.06 21.93 40.07 18.73 M 32.93 31.19 C 35.21 34.14 37.56 37.03 40.00 39.85 C 42.43 37.04 44.78 34.15 47.07 31.22 C 42.46 33.02 37.54 32.95 32.93 31.19 Z" />
<path fill="#941271" opacity="1.00" d=" M 40.07 18.73 C 43.06 21.93 45.77 25.36 48.30 28.93 C 45.55 29.77 42.80 30.60 40.05 31.42 C 39.94 27.19 39.91 22.96 40.07 18.73 Z" />
<path fill="#ffffff" opacity="1.00" d=" M 56.28 30.26 C 57.88 28.21 60.66 28.40 62.96 27.91 C 62.88 30.22 63.51 32.90 61.75 34.77 C 56.57 41.18 50.82 47.12 45.83 53.70 C 47.19 55.10 48.56 56.48 49.91 57.90 C 49.01 58.13 48.10 58.37 47.20 58.60 C 45.52 57.37 43.83 56.16 42.13 54.96 C 39.80 57.94 37.89 61.22 36.41 64.70 C 34.31 63.25 32.39 61.56 30.65 59.70 C 34.06 57.92 37.01 55.43 39.35 52.37 C 37.85 50.90 36.33 49.45 34.82 47.98 C 35.05 47.37 35.52 46.14 35.76 45.53 C 37.23 46.67 38.70 47.81 40.17 48.94 C 45.72 42.87 50.79 36.38 56.28 30.26 Z" />
<path fill="#941071" opacity="1.00" d=" M 32.93 31.19 C 37.54 32.95 42.46 33.02 47.07 31.22 C 44.78 34.15 42.43 37.04 40.00 39.85 C 37.56 37.03 35.21 34.14 32.93 31.19 Z" />
<path fill="#ffffff" opacity="1.00" d=" M 51.47 54.82 C 54.41 49.49 58.86 45.18 62.77 40.57 C 66.64 45.23 70.51 49.90 74.13 54.77 C 70.31 59.48 66.52 64.21 62.68 68.90 C 58.94 64.21 54.75 59.85 51.47 54.82 M 62.87 44.54 C 62.68 48.66 62.69 52.79 62.78 56.92 C 65.53 56.10 68.29 55.27 71.05 54.46 C 68.55 50.98 65.89 47.59 62.87 44.54 M 55.74 56.84 C 57.93 59.79 60.28 62.63 62.75 65.35 C 65.00 62.61 67.21 59.83 69.34 57.00 C 64.87 58.55 60.19 58.37 55.74 56.84 Z" />
<path fill="#941071" opacity="1.00" d=" M 62.87 44.54 C 65.89 47.59 68.55 50.98 71.05 54.46 C 68.29 55.27 65.53 56.10 62.78 56.92 C 62.69 52.79 62.68 48.66 62.87 44.54 Z" />
<path fill="#941171" opacity="1.00" d=" M 55.74 56.84 C 60.19 58.37 64.87 58.55 69.34 57.00 C 67.21 59.83 65.00 62.61 62.75 65.35 C 60.28 62.63 57.93 59.79 55.74 56.84 Z" />
</svg>
