<?xml version="1.0" encoding="UTF-8" ?>
<!DOCTYPE svg PUBLIC "-//W3C//DTD SVG 1.1//EN" "http://www.w3.org/Graphics/SVG/1.1/DTD/svg11.dtd">
<svg width="100pt" height="100pt" viewBox="0 0 100 100" version="1.1" xmlns="http://www.w3.org/2000/svg">
<path fill="#c2bac4" opacity="1.00" d=" M 35.72 23.79 C 40.79 21.31 45.16 17.68 50.00 14.80 C 56.32 19.37 63.48 22.61 69.74 27.25 C 75.85 32.75 83.06 36.78 89.74 41.51 C 88.18 48.42 84.18 54.73 84.16 61.97 C 83.94 70.34 79.72 78.11 74.20 84.18 C 71.62 85.70 68.91 86.97 66.42 88.66 C 66.49 87.53 66.57 86.40 66.65 85.28 C 62.10 85.25 57.46 84.86 52.98 85.92 C 48.89 86.82 44.56 88.21 40.47 86.53 C 35.57 84.78 30.32 85.49 25.25 84.96 C 23.84 81.23 22.71 77.40 21.25 73.69 C 19.77 70.06 16.22 67.91 14.26 64.60 C 12.66 57.04 11.20 49.45 10.70 41.71 C 15.46 38.61 15.55 32.29 19.65 28.66 C 22.36 26.03 25.57 23.99 28.70 21.90 C 28.12 24.22 27.52 26.53 26.91 28.84 C 29.81 27.09 32.70 25.31 35.72 23.79 M 35.20 26.22 C 29.66 28.24 26.58 33.52 22.38 37.28 C 23.31 33.76 24.42 30.29 25.24 26.74 C 18.12 30.36 16.21 38.50 14.11 45.50 C 12.46 50.83 14.69 56.22 15.59 61.47 C 16.29 65.73 20.18 68.18 22.74 71.30 C 25.34 74.14 25.79 78.15 27.65 81.41 C 29.12 82.54 31.21 82.14 32.94 82.55 C 37.04 82.79 40.67 85.02 44.72 85.46 C 49.98 85.46 54.70 82.42 59.96 82.36 C 63.78 82.12 67.66 82.90 71.44 82.20 C 76.43 79.93 79.09 74.64 80.85 69.72 C 82.76 64.76 81.95 59.38 82.46 54.22 C 83.20 50.35 84.89 46.75 86.02 43.00 C 83.28 40.65 80.25 38.70 77.20 36.78 C 72.12 33.62 69.16 27.89 63.62 25.35 C 59.03 23.22 54.29 21.38 49.92 18.78 C 45.27 21.75 40.40 24.35 35.20 26.22 Z" />
<path fill="#26960f" opacity="1.00" d=" M 35.20 26.22 C 40.40 24.35 45.27 21.75 49.92 18.78 C 54.29 21.38 59.03 23.22 63.62 25.35 C 69.16 27.89 72.12 33.62 77.20 36.78 C 80.25 38.70 83.28 40.65 86.02 43.00 C 84.89 46.75 83.20 50.35 82.46 54.22 C 81.95 59.38 82.76 64.76 80.85 69.72 C 79.09 74.64 76.43 79.93 71.44 82.20 C 67.66 82.90 63.78 82.12 59.96 82.36 C 54.70 82.42 49.98 85.46 44.72 85.46 C 40.67 85.02 37.04 82.79 32.94 82.55 C 31.21 82.14 29.12 82.54 27.65 81.41 C 25.79 78.15 25.34 74.14 22.74 71.30 C 20.18 68.18 16.29 65.73 15.59 61.47 C 14.69 56.22 12.46 50.83 14.11 45.50 C 16.21 38.50 18.12 30.36 25.24 26.74 C 24.42 30.29 23.31 33.76 22.38 37.28 C 26.58 33.52 29.66 28.24 35.20 26.22 M 36.18 28.21 C 30.16 30.88 26.04 36.57 23.46 42.44 C 21.58 49.58 20.70 58.23 25.58 64.41 C 31.36 69.96 40.34 73.51 48.08 70.06 C 55.15 66.97 59.21 57.25 54.38 50.64 C 51.89 47.08 47.10 47.74 43.55 49.05 C 46.90 50.10 51.25 50.40 52.99 53.98 C 56.36 59.98 51.19 67.80 44.74 68.61 C 38.64 69.79 33.11 66.00 28.92 62.01 C 25.23 58.42 24.96 52.92 25.35 48.11 C 25.57 42.23 28.88 36.94 32.84 32.80 C 38.11 28.25 45.20 26.25 52.02 25.72 C 57.37 25.26 62.25 27.76 67.05 29.72 C 63.48 27.54 59.75 25.35 55.54 24.75 C 48.92 23.79 42.20 25.50 36.18 28.21 M 29.43 45.97 C 29.57 51.62 29.19 58.19 33.45 62.55 C 37.41 67.05 45.83 67.46 49.35 62.25 C 50.59 60.60 49.57 58.64 49.08 56.94 C 47.34 59.76 45.77 63.80 41.83 63.80 C 34.51 64.27 29.63 55.69 32.00 49.20 C 34.45 42.65 38.96 35.80 46.20 34.09 C 52.53 32.37 59.00 34.63 64.75 37.21 C 70.39 39.33 72.97 45.22 76.00 49.97 C 80.68 58.10 79.06 67.94 75.38 76.10 C 78.45 70.93 80.51 65.04 80.07 58.95 C 79.98 51.78 75.69 45.75 72.07 39.90 C 70.32 36.88 66.99 35.45 64.00 33.98 C 59.03 31.63 53.62 29.63 48.03 30.22 C 39.32 30.68 31.03 37.29 29.43 45.97 M 16.07 47.06 C 14.97 50.24 16.37 53.43 16.97 56.54 C 17.72 59.45 17.76 62.79 19.95 65.09 C 22.91 68.48 26.22 71.69 30.27 73.73 C 35.01 76.26 40.28 78.77 45.80 77.67 C 49.56 76.76 53.04 75.02 56.62 73.62 C 60.75 72.24 62.61 67.94 64.36 64.32 C 66.68 60.11 65.43 54.28 61.49 51.49 C 58.29 48.99 55.49 45.80 51.65 44.25 C 46.29 42.12 39.13 44.60 37.22 50.28 C 36.37 52.45 37.51 54.59 38.39 56.53 C 39.30 53.78 39.58 50.73 41.22 48.28 C 43.89 45.06 48.82 44.72 52.40 46.51 C 57.53 48.91 59.94 54.76 60.81 60.03 C 60.31 64.37 58.03 69.06 53.75 70.77 C 49.50 72.71 45.14 75.59 40.24 74.64 C 32.38 72.93 24.73 68.68 20.12 61.95 C 18.82 58.04 17.84 53.98 17.15 49.91 C 17.46 43.69 20.17 37.90 21.51 31.86 C 19.45 36.83 17.53 41.88 16.07 47.06 M 40.01 42.00 C 34.94 44.83 31.50 51.42 33.95 57.04 C 34.94 59.66 37.72 60.71 40.06 61.80 C 38.25 58.72 35.19 55.93 35.26 52.10 C 35.71 46.54 40.80 42.01 46.25 41.54 C 49.89 41.26 53.62 41.05 57.24 41.74 C 63.34 42.90 66.95 48.88 68.71 54.36 C 69.94 58.82 71.29 64.21 68.30 68.28 C 66.28 71.15 64.52 74.47 61.51 76.44 C 54.95 79.47 48.21 82.49 40.89 83.00 C 45.62 83.69 50.35 82.60 54.71 80.80 C 58.58 79.17 63.30 78.59 65.90 74.93 C 68.18 71.95 71.08 69.22 72.32 65.61 C 73.54 57.40 71.46 48.40 65.85 42.13 C 63.17 38.91 58.98 37.45 54.97 36.81 C 49.43 36.19 44.64 39.49 40.01 42.00 Z" />
<path fill="#ffffff" opacity="1.00" d=" M 36.18 28.21 C 42.20 25.50 48.92 23.79 55.54 24.75 C 59.75 25.35 63.48 27.54 67.05 29.72 C 62.25 27.76 57.37 25.26 52.02 25.72 C 45.20 26.25 38.11 28.25 32.84 32.80 C 28.88 36.94 25.57 42.23 25.35 48.11 C 24.96 52.92 25.23 58.42 28.92 62.01 C 33.11 66.00 38.64 69.79 44.74 68.61 C 51.19 67.80 56.36 59.98 52.99 53.98 C 51.25 50.40 46.90 50.10 43.55 49.05 C 47.10 47.74 51.89 47.08 54.38 50.64 C 59.21 57.25 55.15 66.97 48.08 70.06 C 40.34 73.51 31.36 69.96 25.58 64.41 C 20.70 58.23 21.58 49.58 23.46 42.44 C 26.04 36.57 30.16 30.88 36.18 28.21 Z" />
<path fill="#ffffff" opacity="1.00" d=" M 29.43 45.97 C 31.03 37.29 39.32 30.68 48.03 30.22 C 53.62 29.63 59.03 31.63 64.00 33.98 C 66.99 35.45 70.32 36.88 72.07 39.90 C 75.69 45.75 79.98 51.78 80.07 58.95 C 80.51 65.04 78.45 70.93 75.38 76.10 C 79.06 67.94 80.68 58.10 76.00 49.97 C 72.97 45.22 70.39 39.33 64.75 37.21 C 59.00 34.63 52.53 32.37 46.20 34.09 C 38.96 35.80 34.45 42.65 32.00 49.20 C 29.63 55.69 34.51 64.27 41.83 63.80 C 45.77 63.80 47.34 59.76 49.08 56.94 C 49.57 58.64 50.59 60.60 49.35 62.25 C 45.83 67.46 37.41 67.05 33.45 62.55 C 29.19 58.19 29.57 51.62 29.43 45.97 Z" />
<path fill="#ffffff" opacity="1.00" d=" M 16.07 47.06 C 17.53 41.88 19.45 36.83 21.51 31.86 C 20.17 37.90 17.46 43.69 17.15 49.91 C 17.84 53.98 18.82 58.04 20.12 61.95 C 24.73 68.68 32.38 72.93 40.24 74.64 C 45.14 75.59 49.50 72.71 53.75 70.77 C 58.03 69.06 60.31 64.37 60.81 60.03 C 59.94 54.76 57.53 48.91 52.40 46.51 C 48.82 44.72 43.89 45.06 41.22 48.28 C 39.58 50.73 39.30 53.78 38.39 56.53 C 37.51 54.59 36.37 52.45 37.22 50.28 C 39.13 44.60 46.29 42.12 51.65 44.25 C 55.49 45.80 58.29 48.99 61.49 51.49 C 65.43 54.28 66.68 60.11 64.36 64.32 C 62.61 67.94 60.75 72.24 56.62 73.62 C 53.04 75.02 49.56 76.76 45.80 77.67 C 40.28 78.77 35.01 76.26 30.27 73.73 C 26.22 71.69 22.91 68.48 19.95 65.09 C 17.76 62.79 17.72 59.45 16.97 56.54 C 16.37 53.43 14.97 50.24 16.07 47.06 Z" />
<path fill="#ffffff" opacity="1.00" d=" M 40.01 42.00 C 44.64 39.49 49.43 36.19 54.97 36.81 C 58.98 37.45 63.17 38.91 65.85 42.13 C 71.46 48.40 73.54 57.40 72.32 65.61 C 71.08 69.22 68.18 71.95 65.90 74.93 C 63.30 78.59 58.58 79.17 54.71 80.80 C 50.35 82.60 45.62 83.69 40.89 83.00 C 48.21 82.49 54.95 79.47 61.51 76.44 C 64.52 74.47 66.28 71.15 68.30 68.28 C 71.29 64.21 69.94 58.82 68.71 54.36 C 66.95 48.88 63.34 42.90 57.24 41.74 C 53.62 41.05 49.89 41.26 46.25 41.54 C 40.80 42.01 35.71 46.54 35.26 52.10 C 35.19 55.93 38.25 58.72 40.06 61.80 C 37.72 60.71 34.94 59.66 33.95 57.04 C 31.50 51.42 34.94 44.83 40.01 42.00 Z" />
</svg>
