<?xml version="1.0" encoding="UTF-8" ?>
<!DOCTYPE svg PUBLIC "-//W3C//DTD SVG 1.1//EN" "http://www.w3.org/Graphics/SVG/1.1/DTD/svg11.dtd">
<svg width="100pt" height="100pt" viewBox="0 0 100 100" version="1.1" xmlns="http://www.w3.org/2000/svg">
<path fill="#c1bcbc" opacity="1.00" d=" M 10.11 41.54 C 23.47 32.66 36.77 23.67 50.00 14.58 C 55.92 18.77 62.01 22.71 67.95 26.85 C 70.00 24.88 71.94 22.56 74.75 21.68 C 77.99 20.67 81.40 20.41 84.74 19.92 C 85.42 25.65 85.63 31.64 82.61 36.79 C 85.04 38.36 87.46 39.96 89.89 41.54 C 84.82 55.96 80.09 70.54 74.64 84.82 C 69.84 85.79 64.90 85.02 60.04 85.38 C 53.61 85.97 47.18 84.92 40.75 85.39 C 39.73 88.28 39.34 91.87 36.48 93.61 C 33.53 95.78 29.71 93.76 27.36 91.63 C 23.93 88.58 24.79 83.57 23.33 79.61 C 19.01 66.89 14.39 54.27 10.11 41.54 M 13.83 42.85 C 17.82 54.02 21.31 65.36 25.70 76.38 C 27.28 80.03 26.50 84.03 27.13 87.83 C 28.30 90.92 32.30 93.28 35.49 91.82 C 38.01 89.14 38.12 84.48 41.61 82.73 C 46.97 81.25 52.43 83.92 57.85 83.03 C 62.61 82.38 67.41 82.22 72.21 82.35 C 76.35 71.55 79.81 60.50 83.88 49.68 C 84.48 47.68 85.52 45.65 85.27 43.51 C 84.63 42.24 83.76 41.12 82.94 39.97 C 82.53 40.21 81.71 40.69 81.31 40.93 C 80.69 40.64 79.47 40.05 78.86 39.76 C 80.06 37.01 81.47 34.35 82.46 31.52 C 83.53 28.46 83.13 25.17 83.08 22.00 C 80.07 22.55 76.90 22.77 74.15 24.20 C 71.41 25.87 69.33 28.36 66.95 30.45 C 66.51 30.24 65.65 29.82 65.22 29.61 C 61.05 24.76 55.24 21.88 49.97 18.44 C 37.86 26.48 25.74 34.51 13.83 42.85 Z" />
<path fill="#217a7a" opacity="1.00" d=" M 13.83 42.85 C 25.74 34.51 37.86 26.48 49.97 18.44 C 55.24 21.88 61.05 24.76 65.22 29.61 C 61.30 30.88 57.54 32.70 53.44 33.34 C 44.67 34.76 35.75 34.06 26.92 34.70 C 30.71 36.35 34.73 37.71 38.92 37.47 C 45.51 37.24 52.20 37.16 58.64 35.60 C 61.94 34.90 64.57 32.70 66.95 30.45 C 69.33 28.36 71.41 25.87 74.15 24.20 C 76.90 22.77 80.07 22.55 83.08 22.00 C 83.13 25.17 83.53 28.46 82.46 31.52 C 81.47 34.35 80.06 37.01 78.86 39.76 C 76.17 41.85 73.49 43.95 70.91 46.16 C 74.48 44.63 77.96 42.90 81.31 40.93 C 81.71 40.69 82.53 40.21 82.94 39.97 C 83.76 41.12 84.63 42.24 85.27 43.51 C 85.52 45.65 84.48 47.68 83.88 49.68 C 79.81 60.50 76.35 71.55 72.21 82.35 C 67.41 82.22 62.61 82.38 57.85 83.03 C 52.43 83.92 46.97 81.25 41.61 82.73 C 38.12 84.48 38.01 89.14 35.49 91.82 C 32.30 93.28 28.30 90.92 27.13 87.83 C 26.50 84.03 27.28 80.03 25.70 76.38 C 21.31 65.36 17.82 54.02 13.83 42.85 M 52.66 26.70 C 47.75 28.21 42.62 28.68 37.60 29.70 C 45.32 30.83 54.38 31.38 60.60 25.75 C 57.91 25.47 55.22 25.88 52.66 26.70 M 72.17 29.14 C 61.84 41.75 51.68 54.49 41.28 67.05 C 38.29 64.60 35.21 62.20 31.68 60.56 C 32.66 65.56 37.50 67.99 40.41 71.73 C 36.74 76.61 34.93 83.64 28.45 85.61 C 30.03 87.48 31.89 89.11 33.97 90.42 C 34.48 84.57 39.25 80.83 43.05 76.93 C 43.93 75.83 45.47 75.37 46.75 76.10 C 50.32 77.86 53.26 80.98 57.45 81.30 C 55.41 77.86 52.17 75.47 49.03 73.12 C 56.21 62.71 64.12 52.83 71.75 42.75 C 75.73 37.38 81.58 32.29 80.85 24.91 C 77.61 25.44 74.17 26.29 72.17 29.14 M 46.92 44.59 C 36.75 46.09 26.36 44.63 16.78 41.04 C 19.18 43.37 21.61 45.83 24.70 47.23 C 30.60 49.34 37.02 49.33 43.17 48.55 C 46.67 48.09 50.30 48.02 53.64 46.79 C 56.38 45.13 58.04 42.24 60.00 39.79 C 55.79 41.75 51.65 44.20 46.92 44.59 M 67.03 53.99 C 62.70 59.71 57.67 64.91 53.78 70.96 C 60.61 65.44 66.02 58.37 72.92 52.93 C 77.06 50.34 81.37 47.87 84.47 43.98 C 78.78 47.60 70.97 47.98 67.03 53.99 M 17.90 50.09 C 20.21 52.11 22.53 54.18 25.25 55.63 C 28.44 57.20 32.11 57.27 35.37 58.62 C 37.53 59.72 39.26 61.45 41.11 62.99 C 43.90 59.68 46.70 56.38 49.18 52.84 C 46.56 54.48 44.04 56.26 41.48 57.98 C 38.35 56.10 34.83 55.13 31.25 54.61 C 26.56 53.89 22.29 51.75 17.90 50.09 M 21.41 61.69 C 22.58 67.05 27.70 69.27 31.45 72.50 C 31.87 74.71 31.62 76.96 31.67 79.19 C 33.02 76.44 34.19 73.60 35.12 70.68 C 30.43 67.87 26.07 64.55 21.41 61.69 M 57.32 75.76 C 58.53 78.11 60.59 79.85 62.47 81.65 C 61.79 79.21 60.56 76.85 60.46 74.28 C 61.63 70.39 64.46 67.30 66.37 63.77 C 62.60 66.96 57.49 70.28 57.32 75.76 Z" />
<path fill="#ffffff" opacity="1.00" d=" M 52.66 26.70 C 55.22 25.88 57.91 25.47 60.60 25.75 C 54.38 31.38 45.32 30.83 37.60 29.70 C 42.62 28.68 47.75 28.21 52.66 26.70 Z" />
<path fill="#ffffff" opacity="1.00" d=" M 72.17 29.14 C 74.17 26.29 77.61 25.44 80.85 24.91 C 81.58 32.29 75.73 37.38 71.75 42.75 C 64.12 52.83 56.21 62.71 49.03 73.12 C 52.17 75.47 55.41 77.86 57.45 81.30 C 53.26 80.98 50.32 77.86 46.75 76.10 C 45.47 75.37 43.93 75.83 43.05 76.93 C 39.25 80.83 34.48 84.57 33.97 90.42 C 31.89 89.11 30.03 87.48 28.45 85.61 C 34.93 83.64 36.74 76.61 40.41 71.73 C 37.50 67.99 32.66 65.56 31.68 60.56 C 35.21 62.20 38.29 64.60 41.28 67.05 C 51.68 54.49 61.84 41.75 72.17 29.14 Z" />
<path fill="#ffffff" opacity="1.00" d=" M 53.44 33.34 C 57.54 32.70 61.30 30.88 65.22 29.61 C 65.65 29.82 66.51 30.24 66.95 30.45 C 64.57 32.70 61.94 34.90 58.64 35.60 C 52.20 37.16 45.51 37.24 38.92 37.47 C 34.73 37.71 30.71 36.35 26.92 34.70 C 35.75 34.06 44.67 34.76 53.44 33.34 Z" />
<path fill="#ffffff" opacity="1.00" d=" M 46.92 44.59 C 51.65 44.20 55.79 41.75 60.00 39.79 C 58.04 42.24 56.38 45.13 53.64 46.79 C 50.30 48.02 46.67 48.09 43.17 48.55 C 37.02 49.33 30.60 49.34 24.70 47.23 C 21.61 45.83 19.18 43.37 16.78 41.04 C 26.36 44.63 36.75 46.09 46.92 44.59 Z" />
<path fill="#ffffff" opacity="1.00" d=" M 70.91 46.16 C 73.49 43.95 76.17 41.85 78.86 39.76 C 79.47 40.05 80.69 40.64 81.31 40.93 C 77.96 42.90 74.48 44.63 70.91 46.16 Z" />
<path fill="#ffffff" opacity="1.00" d=" M 67.03 53.99 C 70.97 47.98 78.78 47.60 84.47 43.98 C 81.37 47.87 77.06 50.34 72.92 52.93 C 66.02 58.37 60.61 65.44 53.78 70.96 C 57.67 64.91 62.70 59.71 67.03 53.99 Z" />
<path fill="#ffffff" opacity="1.00" d=" M 17.90 50.09 C 22.29 51.75 26.56 53.89 31.25 54.61 C 34.83 55.13 38.35 56.10 41.48 57.98 C 44.04 56.26 46.56 54.48 49.18 52.84 C 46.70 56.38 43.90 59.68 41.11 62.99 C 39.26 61.45 37.53 59.72 35.37 58.62 C 32.11 57.27 28.44 57.20 25.25 55.63 C 22.53 54.18 20.21 52.11 17.90 50.09 Z" />
<path fill="#ffffff" opacity="1.00" d=" M 21.41 61.69 C 26.07 64.55 30.43 67.87 35.12 70.68 C 34.19 73.60 33.02 76.44 31.67 79.19 C 31.62 76.96 31.87 74.71 31.45 72.50 C 27.70 69.27 22.58 67.05 21.41 61.69 Z" />
<path fill="#ffffff" opacity="1.00" d=" M 57.32 75.76 C 57.49 70.28 62.60 66.96 66.37 63.77 C 64.46 67.30 61.63 70.39 60.46 74.28 C 60.56 76.85 61.79 79.21 62.47 81.65 C 60.59 79.85 58.53 78.11 57.32 75.76 Z" />
</svg>
