<?xml version="1.0" encoding="UTF-8" ?>
<!DOCTYPE svg PUBLIC "-//W3C//DTD SVG 1.1//EN" "http://www.w3.org/Graphics/SVG/1.1/DTD/svg11.dtd">
<svg width="100pt" height="100pt" viewBox="0 0 100 100" version="1.1" xmlns="http://www.w3.org/2000/svg">
<path fill="#bcc8bf" opacity="1.00" d=" M 23.29 20.38 C 24.01 18.41 24.65 16.36 25.90 14.64 C 41.95 14.42 58.04 14.42 74.10 14.64 C 75.36 16.35 75.99 18.41 76.72 20.39 C 81.00 33.10 85.55 45.73 89.91 58.42 C 85.04 61.63 79.93 64.62 75.86 68.87 C 73.17 71.67 69.87 73.80 66.28 75.27 C 60.33 77.76 55.24 81.79 50.00 85.46 C 45.17 82.10 40.55 78.25 34.95 76.22 C 30.44 74.40 25.77 72.25 22.73 68.28 C 19.39 64.00 14.54 61.37 10.09 58.42 C 14.45 45.73 19.00 33.10 23.29 20.38 M 20.64 36.65 C 17.89 43.22 16.30 50.18 14.02 56.91 C 18.04 59.89 21.50 63.51 24.60 67.42 C 27.93 71.54 33.01 73.52 37.90 75.15 C 42.26 76.54 46.17 78.97 50.00 81.44 C 54.86 78.18 60.13 75.63 65.57 73.50 C 74.06 70.26 78.59 61.74 86.03 56.95 C 81.93 43.66 76.96 30.66 72.23 17.58 C 57.41 17.58 42.59 17.59 27.77 17.58 C 25.39 23.93 23.25 30.38 20.64 36.65 Z" />
<path fill="#941271" opacity="1.00" d=" M 20.64 36.65 C 23.25 30.38 25.39 23.93 27.77 17.58 C 42.59 17.59 57.41 17.58 72.23 17.58 C 76.96 30.66 81.93 43.66 86.03 56.95 C 78.59 61.74 74.06 70.26 65.57 73.50 C 60.13 75.63 54.86 78.18 50.00 81.44 C 46.17 78.97 42.26 76.54 37.90 75.15 C 33.01 73.52 27.93 71.54 24.60 67.42 C 21.50 63.51 18.04 59.89 14.02 56.91 C 16.30 50.18 17.89 43.22 20.64 36.65 M 49.38 22.04 C 47.34 27.84 43.90 33.31 44.08 39.69 C 45.48 36.85 46.52 33.85 47.65 30.89 C 47.39 36.06 47.52 41.24 47.78 46.40 C 49.26 46.41 50.73 46.41 52.21 46.40 C 52.47 41.24 52.61 36.06 52.35 30.89 C 53.47 33.85 54.50 36.85 55.91 39.69 C 56.08 33.54 52.84 28.26 50.95 22.63 C 50.56 22.48 49.78 22.18 49.38 22.04 M 25.90 34.95 C 21.71 37.90 20.28 43.20 19.60 48.01 C 18.41 55.85 23.12 63.25 28.84 68.15 C 36.09 73.06 45.16 75.45 53.89 74.59 C 64.06 73.06 74.33 67.45 78.67 57.71 C 82.53 50.49 80.02 41.20 74.18 35.82 C 69.15 30.38 61.75 27.62 54.44 27.36 C 57.61 29.11 61.05 30.29 64.45 31.52 C 61.66 33.99 57.17 36.37 57.77 40.76 C 57.71 43.47 59.83 47.11 57.01 49.00 C 52.86 52.07 45.60 53.47 41.95 48.99 C 39.28 45.74 42.17 41.75 41.57 38.15 C 40.43 35.40 37.69 33.81 35.63 31.82 C 38.96 30.44 42.33 29.14 45.50 27.40 C 38.19 27.10 31.74 31.04 25.90 34.95 Z" />
<path fill="#ffffff" opacity="1.00" d=" M 49.38 22.04 C 49.78 22.18 50.56 22.48 50.95 22.63 C 52.84 28.26 56.08 33.54 55.91 39.69 C 54.50 36.85 53.47 33.85 52.35 30.89 C 52.61 36.06 52.47 41.24 52.21 46.40 C 50.73 46.41 49.26 46.41 47.78 46.40 C 47.52 41.24 47.39 36.06 47.65 30.89 C 46.52 33.85 45.48 36.85 44.08 39.69 C 43.90 33.31 47.34 27.84 49.38 22.04 M 49.77 37.21 C 49.34 39.88 49.03 42.58 48.64 45.26 C 49.37 45.24 50.84 45.18 51.57 45.16 C 50.86 42.53 50.57 39.81 49.77 37.21 Z" />
<path fill="#ffffff" opacity="1.00" d=" M 25.90 34.95 C 31.74 31.04 38.19 27.10 45.50 27.40 C 42.33 29.14 38.96 30.44 35.63 31.82 C 37.69 33.81 40.43 35.40 41.57 38.15 C 42.17 41.75 39.28 45.74 41.95 48.99 C 45.60 53.47 52.86 52.07 57.01 49.00 C 59.83 47.11 57.71 43.47 57.77 40.76 C 57.17 36.37 61.66 33.99 64.45 31.52 C 61.05 30.29 57.61 29.11 54.44 27.36 C 61.75 27.62 69.15 30.38 74.18 35.82 C 80.02 41.20 82.53 50.49 78.67 57.71 C 74.33 67.45 64.06 73.06 53.89 74.59 C 45.16 75.45 36.09 73.06 28.84 68.15 C 23.12 63.25 18.41 55.85 19.60 48.01 C 20.28 43.20 21.71 37.90 25.90 34.95 M 32.24 33.40 C 25.73 39.39 22.76 49.98 27.57 57.86 C 29.61 56.75 31.63 55.61 33.67 54.49 C 33.57 53.25 33.46 52.01 33.35 50.78 C 35.40 50.71 37.46 50.64 39.51 50.59 C 39.11 46.93 39.24 43.23 40.02 39.62 C 39.18 39.33 38.33 39.03 37.48 38.73 C 35.86 36.84 34.08 35.08 32.24 33.40 M 63.64 35.75 C 63.48 36.95 63.34 38.15 63.19 39.35 C 62.25 39.50 61.31 39.67 60.38 39.83 C 60.73 43.45 60.58 47.10 59.75 50.65 C 61.71 50.67 63.67 50.71 65.63 50.75 C 65.52 52.01 65.41 53.27 65.31 54.53 C 67.30 55.60 69.28 56.68 71.27 57.75 C 73.23 53.86 74.88 49.53 73.98 45.09 C 73.62 40.67 70.84 37.09 68.06 33.85 C 66.59 34.49 65.12 35.12 63.64 35.75 M 41.02 51.95 C 40.36 54.34 39.72 56.73 39.08 59.12 C 38.04 58.34 37.00 57.57 35.96 56.79 C 34.13 58.54 32.30 60.27 30.48 62.02 C 38.40 67.36 48.32 69.89 57.76 67.82 C 61.75 66.84 65.04 64.25 68.28 61.85 C 66.52 60.16 64.76 58.48 62.99 56.80 C 61.95 57.59 60.90 58.38 59.86 59.18 C 59.23 56.76 58.60 54.35 57.96 51.94 C 52.55 54.44 46.46 54.29 41.02 51.95 Z" />
<path fill="#941271" opacity="1.00" d=" M 32.24 33.40 C 34.08 35.08 35.86 36.84 37.48 38.73 C 38.33 39.03 39.18 39.33 40.02 39.62 C 39.24 43.23 39.11 46.93 39.51 50.59 C 37.46 50.64 35.40 50.71 33.35 50.78 C 33.46 52.01 33.57 53.25 33.67 54.49 C 31.63 55.61 29.61 56.75 27.57 57.86 C 22.76 49.98 25.73 39.39 32.24 33.40 Z" />
<path fill="#941271" opacity="1.00" d=" M 63.64 35.75 C 65.12 35.12 66.59 34.49 68.06 33.85 C 70.84 37.09 73.62 40.67 73.98 45.09 C 74.88 49.53 73.23 53.86 71.27 57.75 C 69.28 56.68 67.30 55.60 65.31 54.53 C 65.41 53.27 65.52 52.01 65.63 50.75 C 63.67 50.71 61.71 50.67 59.75 50.65 C 60.58 47.10 60.73 43.45 60.38 39.83 C 61.31 39.67 62.25 39.50 63.19 39.35 C 63.34 38.15 63.48 36.95 63.64 35.75 Z" />
<path fill="#b25599" opacity="1.00" d=" M 49.77 37.21 C 50.57 39.81 50.86 42.53 51.57 45.16 C 50.84 45.18 49.37 45.24 48.64 45.26 C 49.03 42.58 49.34 39.88 49.77 37.21 Z" />
<path fill="#941271" opacity="1.00" d=" M 41.02 51.95 C 46.46 54.29 52.55 54.44 57.96 51.94 C 58.60 54.35 59.23 56.76 59.86 59.18 C 60.90 58.38 61.95 57.59 62.99 56.80 C 64.76 58.48 66.52 60.16 68.28 61.85 C 65.04 64.25 61.75 66.84 57.76 67.82 C 48.32 69.89 38.40 67.36 30.48 62.02 C 32.30 60.27 34.13 58.54 35.96 56.79 C 37.00 57.57 38.04 58.34 39.08 59.12 C 39.72 56.73 40.36 54.34 41.02 51.95 Z" />
</svg>
