<?xml version="1.0" encoding="UTF-8" ?>
<!DOCTYPE svg PUBLIC "-//W3C//DTD SVG 1.1//EN" "http://www.w3.org/Graphics/SVG/1.1/DTD/svg11.dtd">
<svg width="100pt" height="100pt" viewBox="0 0 100 100" version="1.1" xmlns="http://www.w3.org/2000/svg">
<path fill="#b8b8b8" opacity="1.00" d=" M 32.76 17.63 C 38.03 15.88 44.11 15.31 49.23 17.85 C 51.88 19.15 54.79 19.74 57.62 20.49 C 60.27 21.12 61.99 23.38 63.87 25.16 C 65.93 23.56 68.10 21.64 70.93 21.96 C 79.34 22.03 87.76 21.94 96.18 22.08 C 87.02 30.95 77.62 39.56 68.30 48.26 C 69.41 51.17 69.50 54.27 69.14 57.33 C 74.24 57.05 79.34 56.42 84.46 56.59 C 80.86 57.57 77.26 58.63 73.54 59.07 C 71.09 59.10 68.64 59.17 66.19 59.22 C 66.64 56.85 67.08 54.49 67.52 52.12 C 66.43 50.68 65.36 49.23 64.27 47.80 C 71.84 40.39 79.97 33.56 87.29 25.89 C 81.85 25.70 76.38 25.18 70.95 25.76 C 67.50 26.06 65.01 28.69 62.48 30.76 C 61.70 28.81 61.11 26.74 59.92 24.99 C 57.48 23.37 54.57 22.69 51.92 21.50 C 48.70 20.16 45.60 18.17 42.03 18.05 C 37.86 17.92 33.63 18.93 30.04 21.08 C 27.10 22.69 24.41 25.06 20.98 25.50 C 17.87 25.92 14.73 25.87 11.60 25.97 C 15.05 29.70 18.94 32.98 22.50 36.59 C 24.97 38.83 24.74 42.39 25.76 45.31 C 28.46 47.76 32.50 47.60 35.88 48.39 C 35.97 50.91 36.02 53.43 36.06 55.96 C 30.84 53.01 25.56 50.17 20.05 47.79 C 22.36 51.13 24.76 54.41 27.16 57.69 C 24.80 57.37 22.44 57.06 20.07 56.82 C 17.26 56.47 14.43 56.66 11.61 56.69 C 10.13 56.63 8.84 55.73 7.50 55.20 C 12.34 54.65 17.22 54.84 22.08 54.81 C 20.60 51.77 19.07 48.75 17.73 45.64 C 19.44 46.04 21.14 46.46 22.84 46.88 C 21.97 43.96 22.34 40.32 19.83 38.17 C 14.10 32.77 8.04 27.73 2.53 22.11 C 8.71 21.76 14.89 22.20 21.07 22.05 C 25.46 22.21 28.76 18.87 32.76 17.63 Z" />
<path fill="#d96035" opacity="1.00" d=" M 30.04 21.08 C 33.63 18.93 37.86 17.92 42.03 18.05 C 45.60 18.17 48.70 20.16 51.92 21.50 C 54.57 22.69 57.48 23.37 59.92 24.99 C 61.11 26.74 61.70 28.81 62.48 30.76 C 65.01 28.69 67.50 26.06 70.95 25.76 C 76.38 25.18 81.85 25.70 87.29 25.89 C 79.97 33.56 71.84 40.39 64.27 47.80 C 65.36 49.23 66.43 50.68 67.52 52.12 C 67.08 54.49 66.64 56.85 66.19 59.22 C 68.64 59.17 71.09 59.10 73.54 59.07 C 73.87 59.29 74.51 59.73 74.83 59.95 C 68.30 60.50 62.14 62.95 56.64 66.45 C 57.29 65.18 57.95 63.92 58.69 62.70 C 61.36 60.08 63.57 57.03 65.23 53.68 C 63.06 51.67 59.79 49.96 59.58 46.65 C 59.28 42.83 60.14 38.40 56.71 35.69 C 57.55 32.96 60.09 29.76 58.07 27.03 C 55.85 25.48 52.78 25.71 50.49 24.20 C 48.54 22.98 47.00 21.08 44.79 20.30 C 36.83 18.84 28.78 22.57 23.60 28.55 C 30.01 24.90 37.45 20.28 45.07 22.99 C 46.94 23.21 46.71 25.21 46.58 26.61 C 46.16 29.09 44.08 30.85 41.94 31.91 C 36.86 34.47 31.07 35.11 25.45 34.93 C 28.22 30.45 33.54 29.48 38.16 27.94 C 33.78 28.32 28.76 28.16 25.31 31.32 C 23.65 32.59 22.76 36.05 25.38 36.71 C 30.52 38.58 36.13 36.57 41.17 35.20 C 45.69 34.05 48.13 29.85 51.33 26.89 C 52.75 26.56 54.25 26.86 55.55 27.49 C 57.58 29.51 54.97 32.00 53.63 33.63 C 46.45 40.31 36.23 44.02 26.45 42.06 C 30.31 46.20 36.30 45.25 41.25 44.13 C 47.21 42.86 51.85 37.99 58.11 37.74 C 57.14 39.95 55.91 42.02 54.81 44.17 C 49.89 44.44 45.05 45.45 40.16 45.96 C 39.43 49.46 38.16 53.18 39.42 56.70 C 40.87 60.31 43.59 63.19 45.97 66.20 C 47.25 66.09 48.53 65.98 49.81 65.84 C 50.36 65.80 51.46 65.70 52.01 65.66 C 49.89 66.78 47.75 67.88 45.62 68.99 C 46.53 69.07 48.35 69.23 49.27 69.31 C 48.50 70.28 47.74 71.26 46.95 72.22 C 46.60 72.18 45.90 72.08 45.55 72.03 C 42.57 67.54 39.92 62.75 36.00 58.99 C 32.48 55.64 28.22 53.20 23.96 50.94 C 27.67 54.70 31.69 58.13 35.42 61.87 C 31.08 60.93 26.78 59.86 22.48 58.76 C 21.68 58.11 20.89 57.45 20.07 56.82 C 22.44 57.06 24.80 57.37 27.16 57.69 C 24.76 54.41 22.36 51.13 20.05 47.79 C 25.56 50.17 30.84 53.01 36.06 55.96 C 36.02 53.43 35.97 50.91 35.88 48.39 C 32.50 47.60 28.46 47.76 25.76 45.31 C 24.74 42.39 24.97 38.83 22.50 36.59 C 18.94 32.98 15.05 29.70 11.60 25.97 C 14.73 25.87 17.87 25.92 20.98 25.50 C 24.41 25.06 27.10 22.69 30.04 21.08 M 35.84 25.24 C 37.39 25.73 38.94 26.19 40.50 26.64 C 40.91 27.82 41.33 29.00 41.74 30.18 C 42.89 28.38 44.08 26.62 45.30 24.88 C 42.16 24.18 38.91 24.28 35.84 25.24 M 47.89 34.39 C 50.26 33.20 52.26 31.40 53.21 28.86 C 51.10 30.35 49.33 32.25 47.89 34.39 Z" />
<path fill="#ffffff" opacity="1.00" d=" M 23.60 28.55 C 28.78 22.57 36.83 18.84 44.79 20.30 C 47.00 21.08 48.54 22.98 50.49 24.20 C 52.78 25.71 55.85 25.48 58.07 27.03 C 60.09 29.76 57.55 32.96 56.71 35.69 C 60.14 38.40 59.28 42.83 59.58 46.65 C 59.79 49.96 63.06 51.67 65.23 53.68 C 63.57 57.03 61.36 60.08 58.69 62.70 C 55.76 63.83 52.81 64.92 49.81 65.84 C 48.53 65.98 47.25 66.09 45.97 66.20 C 43.59 63.19 40.87 60.31 39.42 56.70 C 38.16 53.18 39.43 49.46 40.16 45.96 C 45.05 45.45 49.89 44.44 54.81 44.17 C 55.91 42.02 57.14 39.95 58.11 37.74 C 51.85 37.99 47.21 42.86 41.25 44.13 C 36.30 45.25 30.31 46.20 26.45 42.06 C 36.23 44.02 46.45 40.31 53.63 33.63 C 54.97 32.00 57.58 29.51 55.55 27.49 C 54.25 26.86 52.75 26.56 51.33 26.89 C 48.13 29.85 45.69 34.05 41.17 35.20 C 36.13 36.57 30.52 38.58 25.38 36.71 C 22.76 36.05 23.65 32.59 25.31 31.32 C 28.76 28.16 33.78 28.32 38.16 27.94 C 33.54 29.48 28.22 30.45 25.45 34.93 C 31.07 35.11 36.86 34.47 41.94 31.91 C 44.08 30.85 46.16 29.09 46.58 26.61 C 46.71 25.21 46.94 23.21 45.07 22.99 C 37.45 20.28 30.01 24.90 23.60 28.55 M 41.61 48.62 C 39.65 54.71 42.87 60.78 47.03 65.07 C 50.46 64.03 54.03 63.13 57.00 61.02 C 59.41 59.30 61.10 56.83 62.81 54.45 C 60.19 51.98 58.29 48.68 55.21 46.74 C 50.71 44.98 45.89 47.18 41.61 48.62 Z" />
<path fill="#b5c0c5" opacity="1.00" d=" M 35.84 25.24 C 38.91 24.28 42.16 24.18 45.30 24.88 C 44.08 26.62 42.89 28.38 41.74 30.18 C 41.33 29.00 40.91 27.82 40.50 26.64 C 38.94 26.19 37.39 25.73 35.84 25.24 Z" />
<path fill="#bcafaa" opacity="1.00" d=" M 47.89 34.39 C 49.33 32.25 51.10 30.35 53.21 28.86 C 52.26 31.40 50.26 33.20 47.89 34.39 Z" />
<path fill="#d96035" opacity="1.00" d=" M 41.61 48.62 C 45.89 47.18 50.71 44.98 55.21 46.74 C 58.29 48.68 60.19 51.98 62.81 54.45 C 61.10 56.83 59.41 59.30 57.00 61.02 C 54.03 63.13 50.46 64.03 47.03 65.07 C 42.87 60.78 39.65 54.71 41.61 48.62 M 43.00 49.54 C 42.47 54.54 44.11 59.31 47.25 63.18 C 52.70 62.29 57.40 59.23 60.76 54.90 C 58.33 52.45 56.51 49.05 53.20 47.70 C 49.72 47.27 46.39 48.97 43.00 49.54 Z" />
<path fill="#ffffff" opacity="1.00" d=" M 43.00 49.54 C 46.39 48.97 49.72 47.27 53.20 47.70 C 56.51 49.05 58.33 52.45 60.76 54.90 C 57.40 59.23 52.70 62.29 47.25 63.18 C 44.11 59.31 42.47 54.54 43.00 49.54 Z" />
<path fill="#ffffff" opacity="1.00" d=" M 23.96 50.94 C 28.22 53.20 32.48 55.64 36.00 58.99 C 39.92 62.75 42.57 67.54 45.55 72.03 L 44.80 71.92 C 43.65 71.05 42.54 70.12 41.42 69.20 C 34.22 69.38 27.01 69.82 19.80 69.64 C 25.26 68.17 30.79 67.04 36.26 65.64 C 33.94 64.59 31.58 63.62 29.24 62.60 C 26.86 61.56 24.52 60.38 22.48 58.76 C 26.78 59.86 31.08 60.93 35.42 61.87 C 31.69 58.13 27.67 54.70 23.96 50.94 Z" />
<path fill="#e8906c" opacity="1.00" d=" M 11.61 56.69 C 14.43 56.66 17.26 56.47 20.07 56.82 C 20.89 57.45 21.68 58.11 22.48 58.76 C 24.52 60.38 26.86 61.56 29.24 62.60 C 28.79 62.92 27.89 63.55 27.44 63.86 C 26.52 63.37 25.60 62.89 24.68 62.41 C 24.27 62.74 23.85 63.06 23.43 63.39 C 19.96 60.38 15.45 59.12 11.61 56.69 Z" />
<path fill="#d5775c" opacity="1.00" d=" M 84.46 56.59 C 86.05 56.22 87.67 56.01 89.29 55.82 C 85.96 58.56 82.21 60.72 78.35 62.62 C 78.06 62.39 77.46 61.92 77.17 61.68 C 76.88 61.46 76.30 61.02 76.02 60.80 C 75.72 60.59 75.13 60.16 74.83 59.95 C 74.51 59.73 73.87 59.29 73.54 59.07 C 77.26 58.63 80.86 57.57 84.46 56.59 Z" />
<path fill="#ffffff" opacity="1.00" d=" M 56.64 66.45 C 62.14 62.95 68.30 60.50 74.83 59.95 C 75.13 60.16 75.72 60.59 76.02 60.80 C 72.49 61.83 69.10 63.25 65.63 64.44 C 65.05 64.62 63.90 64.99 63.32 65.18 C 65.63 65.70 67.93 66.22 70.27 66.60 C 65.07 67.29 59.88 68.03 54.72 68.92 C 55.49 69.57 56.25 70.23 57.01 70.90 C 58.87 72.39 60.02 74.50 61.24 76.50 C 58.71 74.65 56.03 72.93 53.06 71.89 C 50.88 71.11 48.66 72.26 46.55 72.73 L 46.95 72.22 C 47.74 71.26 48.50 70.28 49.27 69.31 C 51.84 68.69 54.33 67.75 56.64 66.45 Z" />
<path fill="#d96035" opacity="1.00" d=" M 65.63 64.44 C 69.10 63.25 72.49 61.83 76.02 60.80 C 76.30 61.02 76.88 61.46 77.17 61.68 C 76.06 62.40 74.96 63.12 73.86 63.85 C 75.88 64.33 77.89 64.82 79.91 65.30 C 78.50 65.93 77.09 66.56 75.68 67.20 C 79.62 70.93 83.56 74.68 87.31 78.61 C 81.20 78.72 75.08 78.76 68.96 78.66 C 65.88 75.93 62.87 73.12 59.82 70.35 C 58.89 70.53 57.95 70.72 57.01 70.90 C 56.25 70.23 55.49 69.57 54.72 68.92 C 59.88 68.03 65.07 67.29 70.27 66.60 C 71.95 66.40 73.63 66.12 75.30 65.83 C 72.09 65.27 68.87 64.73 65.63 64.44 Z" />
<path fill="#b7bbbc" opacity="1.00" d=" M 23.43 63.39 C 23.85 63.06 24.27 62.74 24.68 62.41 C 25.60 62.89 26.52 63.37 27.44 63.86 C 23.63 66.73 19.26 68.68 14.81 70.33 C 16.29 70.44 17.77 70.56 19.25 70.68 C 16.56 73.43 13.78 76.08 10.99 78.73 C 16.67 78.62 22.36 79.01 28.03 78.66 C 32.79 78.37 35.81 74.14 39.20 71.32 C 41.07 71.52 42.94 71.69 44.80 71.92 L 45.55 72.03 C 45.90 72.08 46.60 72.18 46.95 72.22 L 46.55 72.73 C 46.21 73.18 45.51 74.09 45.17 74.55 C 45.36 74.81 45.74 75.32 45.92 75.58 C 48.07 74.89 50.20 73.61 52.53 73.84 C 55.69 74.55 58.68 75.88 61.68 77.11 C 62.20 77.82 62.72 78.53 63.25 79.24 C 59.80 78.46 56.58 76.95 53.24 75.83 C 50.74 74.54 48.84 77.25 46.83 78.31 C 44.87 76.81 42.93 75.30 40.98 73.79 C 37.88 76.48 35.15 79.61 31.75 81.92 C 29.92 82.58 27.92 82.35 26.01 82.43 C 18.19 82.29 10.36 82.55 2.54 82.22 C 6.10 78.64 9.92 75.33 13.52 71.79 C 11.91 71.53 10.30 71.27 8.69 71.01 C 13.82 68.93 19.31 67.31 23.43 63.39 Z" />
<path fill="#b8b8b8" opacity="1.00" d=" M 73.86 63.85 C 74.96 63.12 76.06 62.40 77.17 61.68 C 77.46 61.92 78.06 62.39 78.35 62.62 C 81.11 64.90 84.97 64.59 88.25 65.48 C 85.79 66.26 83.29 66.91 80.81 67.59 C 85.68 72.81 91.37 77.19 96.22 82.43 C 88.82 82.48 81.41 82.32 74.01 82.54 C 71.42 82.61 68.81 82.36 66.32 81.59 C 67.20 80.61 68.08 79.63 68.96 78.66 C 75.08 78.76 81.20 78.72 87.31 78.61 C 83.56 74.68 79.62 70.93 75.68 67.20 C 77.09 66.56 78.50 65.93 79.91 65.30 C 77.89 64.82 75.88 64.33 73.86 63.85 Z" />
<path fill="#d96035" opacity="1.00" d=" M 27.44 63.86 C 27.89 63.55 28.79 62.92 29.24 62.60 C 31.58 63.62 33.94 64.59 36.26 65.64 C 30.79 67.04 25.26 68.17 19.80 69.64 C 27.01 69.82 34.22 69.38 41.42 69.20 C 42.54 70.12 43.65 71.05 44.80 71.92 C 42.94 71.69 41.07 71.52 39.20 71.32 C 35.81 74.14 32.79 78.37 28.03 78.66 C 22.36 79.01 16.67 78.62 10.99 78.73 C 13.78 76.08 16.56 73.43 19.25 70.68 C 17.77 70.56 16.29 70.44 14.81 70.33 C 19.26 68.68 23.63 66.73 27.44 63.86 Z" />
<path fill="#e48e70" opacity="1.00" d=" M 49.81 65.84 C 52.81 64.92 55.76 63.83 58.69 62.70 C 57.95 63.92 57.29 65.18 56.64 66.45 C 54.33 67.75 51.84 68.69 49.27 69.31 C 48.35 69.23 46.53 69.07 45.62 68.99 C 47.75 67.88 49.89 66.78 52.01 65.66 C 51.46 65.70 50.36 65.80 49.81 65.84 Z" />
<path fill="#eeb5a0" opacity="1.00" d=" M 63.32 65.18 C 63.90 64.99 65.05 64.62 65.63 64.44 C 68.87 64.73 72.09 65.27 75.30 65.83 C 73.63 66.12 71.95 66.40 70.27 66.60 C 67.93 66.22 65.63 65.70 63.32 65.18 Z" />
<path fill="#e66a44" opacity="1.00" d=" M 57.01 70.90 C 57.95 70.72 58.89 70.53 59.82 70.35 C 62.87 73.12 65.88 75.93 68.96 78.66 C 68.08 79.63 67.20 80.61 66.32 81.59 C 65.30 80.81 64.12 80.20 63.25 79.24 C 62.72 78.53 62.20 77.82 61.68 77.11 L 61.24 76.50 C 60.02 74.50 58.87 72.39 57.01 70.90 Z" />
<path fill="#d85c30" opacity="1.00" d=" M 46.55 72.73 C 48.66 72.26 50.88 71.11 53.06 71.89 C 56.03 72.93 58.71 74.65 61.24 76.50 L 61.68 77.11 C 58.68 75.88 55.69 74.55 52.53 73.84 C 50.20 73.61 48.07 74.89 45.92 75.58 C 45.74 75.32 45.36 74.81 45.17 74.55 C 45.51 74.09 46.21 73.18 46.55 72.73 Z" />
</svg>
