<?xml version="1.0" encoding="UTF-8" ?>
<!DOCTYPE svg PUBLIC "-//W3C//DTD SVG 1.1//EN" "http://www.w3.org/Graphics/SVG/1.1/DTD/svg11.dtd">
<svg width="100pt" height="100pt" viewBox="0 0 100 100" version="1.1" xmlns="http://www.w3.org/2000/svg">
<path fill="#eec546" opacity="1.00" d=" M 15.46 15.40 C 21.50 14.23 25.79 8.81 32.03 8.41 C 36.45 8.10 39.43 11.82 43.04 13.66 C 47.04 13.24 50.95 11.97 55.01 12.15 C 60.45 12.03 65.53 14.48 70.95 14.51 C 75.42 14.61 79.90 14.49 84.38 14.46 C 84.50 21.06 83.33 28.10 86.84 34.08 C 90.78 42.98 90.47 53.55 86.25 62.29 C 83.03 68.62 84.80 75.92 84.38 82.71 C 79.97 83.03 76.56 85.73 73.06 88.08 C 67.74 91.52 61.36 88.19 55.61 89.76 C 46.84 91.68 37.75 89.21 29.97 85.09 C 25.56 82.50 20.30 83.54 15.45 83.35 C 15.41 78.32 16.38 72.88 13.66 68.32 C 8.71 59.02 7.72 47.82 10.62 37.73 C 11.68 33.92 13.79 30.54 15.09 26.83 C 15.91 23.09 15.44 19.20 15.46 15.40 M 19.04 18.91 C 18.90 24.02 18.09 29.14 15.83 33.78 C 11.28 43.34 11.07 54.88 15.68 64.47 C 18.04 69.15 18.92 74.35 19.15 79.55 C 22.95 79.89 26.88 80.08 30.43 81.65 C 34.95 83.59 39.40 86.02 44.39 86.51 C 50.88 87.15 57.37 85.67 63.88 86.15 C 70.34 86.91 76.25 82.94 80.36 78.35 C 81.49 73.34 80.40 67.98 82.28 63.10 C 84.09 58.22 86.35 53.33 86.29 48.01 C 86.55 42.56 84.47 37.44 82.54 32.46 C 80.71 27.82 80.81 22.76 80.75 17.87 C 75.46 17.80 70.14 17.85 64.91 16.98 C 60.22 16.23 55.44 15.07 50.68 15.91 C 47.86 16.24 45.07 17.21 42.21 16.97 C 38.61 15.80 35.97 12.23 32.03 12.08 C 26.96 12.50 23.06 16.18 19.04 18.91 Z" />
<path fill="#b6bac2" opacity="1.00" d=" M 19.04 18.91 C 23.06 16.18 26.96 12.50 32.03 12.08 C 35.97 12.23 38.61 15.80 42.21 16.97 C 45.07 17.21 47.86 16.24 50.68 15.91 C 55.44 15.07 60.22 16.23 64.91 16.98 C 70.14 17.85 75.46 17.80 80.75 17.87 C 80.81 22.76 80.71 27.82 82.54 32.46 C 84.47 37.44 86.55 42.56 86.29 48.01 C 86.35 53.33 84.09 58.22 82.28 63.10 C 80.40 67.98 81.49 73.34 80.36 78.35 C 76.25 82.94 70.34 86.91 63.88 86.15 C 57.37 85.67 50.88 87.15 44.39 86.51 C 39.40 86.02 34.95 83.59 30.43 81.65 C 26.88 80.08 22.95 79.89 19.15 79.55 C 18.92 74.35 18.04 69.15 15.68 64.47 C 11.07 54.88 11.28 43.34 15.83 33.78 C 18.09 29.14 18.90 24.02 19.04 18.91 M 22.82 22.94 C 20.70 32.39 14.71 41.00 15.62 51.02 C 15.43 60.12 22.24 67.24 23.00 76.12 C 31.29 77.11 38.08 82.94 46.46 83.46 C 50.94 83.86 55.35 82.56 59.82 82.49 C 62.98 82.46 66.09 83.85 69.24 83.23 C 71.97 82.20 74.11 80.05 75.86 77.80 C 78.33 74.75 77.72 70.57 78.32 66.95 C 78.77 60.70 82.77 55.31 82.90 48.99 C 83.35 43.89 81.65 38.97 79.71 34.33 C 77.95 30.27 77.78 25.79 77.58 21.43 C 73.48 21.41 69.35 21.40 65.32 20.58 C 60.95 19.72 56.53 18.33 52.03 18.99 C 48.47 19.32 45.03 20.80 41.43 20.61 C 38.37 18.97 36.14 16.03 32.87 14.75 C 28.00 14.39 23.79 18.33 22.82 22.94 Z" />
<path fill="#bc532e" opacity="1.00" d=" M 22.82 22.94 C 23.79 18.33 28.00 14.39 32.87 14.75 C 36.14 16.03 38.37 18.97 41.43 20.61 C 45.03 20.80 48.47 19.32 52.03 18.99 C 56.53 18.33 60.95 19.72 65.32 20.58 C 69.35 21.40 73.48 21.41 77.58 21.43 C 77.78 25.79 77.95 30.27 79.71 34.33 C 81.65 38.97 83.35 43.89 82.90 48.99 C 82.77 55.31 78.77 60.70 78.32 66.95 C 77.72 70.57 78.33 74.75 75.86 77.80 C 74.11 80.05 71.97 82.20 69.24 83.23 C 66.09 83.85 62.98 82.46 59.82 82.49 C 55.35 82.56 50.94 83.86 46.46 83.46 C 38.08 82.94 31.29 77.11 23.00 76.12 C 22.24 67.24 15.43 60.12 15.62 51.02 C 14.71 41.00 20.70 32.39 22.82 22.94 M 26.07 20.45 C 28.59 23.00 30.81 25.85 32.52 29.01 C 30.56 27.86 28.63 26.63 26.67 25.48 C 26.59 28.01 27.61 30.33 28.89 32.46 C 26.92 31.54 24.94 30.63 22.95 29.75 C 23.30 32.97 23.50 36.60 25.98 39.01 C 28.41 41.77 32.28 42.05 35.67 42.56 C 34.71 40.36 33.72 38.18 32.81 35.95 C 34.32 37.05 35.80 38.19 37.29 39.32 C 37.94 38.64 38.59 37.95 39.24 37.27 C 38.16 35.71 37.08 34.15 36.05 32.55 C 39.41 34.38 42.39 36.78 45.22 39.33 C 46.20 37.29 47.45 35.33 47.90 33.09 C 46.72 30.01 43.83 28.06 41.59 25.79 C 40.87 27.47 40.19 29.16 39.52 30.86 C 38.10 30.72 36.67 30.61 35.24 30.52 C 34.93 29.03 34.59 27.55 34.21 26.08 C 35.92 25.26 37.63 24.44 39.33 23.59 C 37.26 21.44 35.40 18.87 32.65 17.56 C 30.21 17.51 28.18 19.41 26.07 20.45 M 43.69 24.47 C 48.40 24.10 53.17 23.06 57.88 24.03 C 67.34 25.92 74.97 34.57 75.65 44.19 C 75.94 47.80 74.74 51.27 74.05 54.76 C 73.35 56.98 75.43 58.63 76.42 60.37 C 78.77 54.95 80.44 48.96 79.22 43.04 C 77.49 32.46 68.36 23.75 57.79 22.25 C 52.97 21.40 48.14 22.70 43.69 24.47 M 50.66 29.92 C 55.73 31.95 61.78 33.15 64.97 38.08 C 68.48 42.60 67.73 48.57 67.15 53.87 C 67.89 53.87 69.38 53.86 70.13 53.86 C 70.80 48.38 70.90 42.30 67.28 37.74 C 63.66 32.24 57.01 29.89 50.66 29.92 M 21.38 37.00 C 17.78 46.20 18.18 57.10 23.49 65.56 C 30.57 77.47 46.25 83.47 59.36 78.59 C 53.51 78.45 47.44 79.34 41.80 77.29 C 29.55 73.32 20.88 59.99 23.25 47.14 C 24.06 43.58 23.69 39.95 21.38 37.00 M 38.57 38.41 C 41.53 43.01 45.57 46.77 49.36 50.65 C 52.91 53.79 56.08 57.48 60.38 59.63 C 55.77 53.04 49.78 47.55 43.87 42.13 C 42.31 40.62 40.43 39.52 38.57 38.41 M 28.11 44.06 C 27.84 49.78 27.79 55.96 31.14 60.89 C 35.30 67.81 43.35 71.64 51.33 71.19 C 45.58 69.25 38.99 67.99 35.10 62.85 C 30.76 57.98 30.35 51.16 30.84 44.97 C 29.93 44.67 29.02 44.36 28.11 44.06 M 63.04 56.16 C 63.85 58.23 64.69 60.28 65.47 62.35 C 64.10 61.32 62.75 60.24 61.41 59.16 C 60.66 59.90 59.90 60.64 59.14 61.37 C 60.17 62.82 61.20 64.28 62.18 65.77 C 58.97 64.04 56.13 61.74 53.42 59.33 C 52.34 61.41 50.94 63.45 50.68 65.84 C 52.22 68.53 54.62 70.54 56.82 72.66 C 57.63 70.97 58.42 69.26 59.19 67.54 C 60.91 67.88 62.64 68.18 64.38 68.47 C 63.99 71.50 61.98 73.82 59.64 75.61 C 61.66 77.58 63.55 79.83 66.11 81.12 C 68.35 80.69 70.26 79.34 72.32 78.43 C 69.84 75.65 67.62 72.61 66.21 69.14 C 67.68 70.35 69.11 71.62 70.52 72.90 C 71.32 72.10 72.11 71.30 72.91 70.51 C 71.58 69.12 70.25 67.74 68.95 66.33 C 71.23 67.04 73.48 67.87 75.74 68.66 C 75.33 65.44 74.97 61.88 72.50 59.49 C 70.13 56.80 66.38 56.44 63.04 56.16 Z" />
<path fill="#ffffff" opacity="1.00" d=" M 26.07 20.45 C 28.18 19.41 30.21 17.51 32.65 17.56 C 35.40 18.87 37.26 21.44 39.33 23.59 C 37.63 24.44 35.92 25.26 34.21 26.08 C 34.59 27.55 34.93 29.03 35.24 30.52 C 36.67 30.61 38.10 30.72 39.52 30.86 C 40.19 29.16 40.87 27.47 41.59 25.79 C 43.83 28.06 46.72 30.01 47.90 33.09 C 47.45 35.33 46.20 37.29 45.22 39.33 C 42.39 36.78 39.41 34.38 36.05 32.55 C 37.08 34.15 38.16 35.71 39.24 37.27 C 38.59 37.95 37.94 38.64 37.29 39.32 C 35.80 38.19 34.32 37.05 32.81 35.95 C 33.72 38.18 34.71 40.36 35.67 42.56 C 32.28 42.05 28.41 41.77 25.98 39.01 C 23.50 36.60 23.30 32.97 22.95 29.75 C 24.94 30.63 26.92 31.54 28.89 32.46 C 27.61 30.33 26.59 28.01 26.67 25.48 C 28.63 26.63 30.56 27.86 32.52 29.01 C 30.81 25.85 28.59 23.00 26.07 20.45 M 25.39 35.32 C 26.89 36.95 28.43 38.56 30.17 39.95 C 30.44 38.23 30.65 36.50 30.83 34.77 C 29.01 34.90 27.20 35.07 25.39 35.32 Z" />
<path fill="#ffffff" opacity="1.00" d=" M 43.69 24.47 C 48.14 22.70 52.97 21.40 57.79 22.25 C 68.36 23.75 77.49 32.46 79.22 43.04 C 80.44 48.96 78.77 54.95 76.42 60.37 C 75.43 58.63 73.35 56.98 74.05 54.76 C 74.74 51.27 75.94 47.80 75.65 44.19 C 74.97 34.57 67.34 25.92 57.88 24.03 C 53.17 23.06 48.40 24.10 43.69 24.47 Z" />
<path fill="#ffffff" opacity="1.00" d=" M 50.66 29.92 C 57.01 29.89 63.66 32.24 67.28 37.74 C 70.90 42.30 70.80 48.38 70.13 53.86 C 69.38 53.86 67.89 53.87 67.15 53.87 C 67.73 48.57 68.48 42.60 64.97 38.08 C 61.78 33.15 55.73 31.95 50.66 29.92 Z" />
<path fill="#be5735" opacity="1.00" d=" M 25.39 35.32 C 27.20 35.07 29.01 34.90 30.83 34.77 C 30.65 36.50 30.44 38.23 30.17 39.95 C 28.43 38.56 26.89 36.95 25.39 35.32 Z" />
<path fill="#ffffff" opacity="1.00" d=" M 21.38 37.00 C 23.69 39.95 24.06 43.58 23.25 47.14 C 20.88 59.99 29.55 73.32 41.80 77.29 C 47.44 79.34 53.51 78.45 59.36 78.59 C 46.25 83.47 30.57 77.47 23.49 65.56 C 18.18 57.10 17.78 46.20 21.38 37.00 Z" />
<path fill="#ffffff" opacity="1.00" d=" M 38.57 38.41 C 40.43 39.52 42.31 40.62 43.87 42.13 C 49.78 47.55 55.77 53.04 60.38 59.63 C 56.08 57.48 52.91 53.79 49.36 50.65 C 45.57 46.77 41.53 43.01 38.57 38.41 Z" />
<path fill="#ffffff" opacity="1.00" d=" M 28.11 44.06 C 29.02 44.36 29.93 44.67 30.84 44.97 C 30.35 51.16 30.76 57.98 35.10 62.85 C 38.99 67.99 45.58 69.25 51.33 71.19 C 43.35 71.64 35.30 67.81 31.14 60.89 C 27.79 55.96 27.84 49.78 28.11 44.06 Z" />
<path fill="#ffffff" opacity="1.00" d=" M 63.04 56.16 C 66.38 56.44 70.13 56.80 72.50 59.49 C 74.97 61.88 75.33 65.44 75.74 68.66 C 73.48 67.87 71.23 67.04 68.95 66.33 C 70.25 67.74 71.58 69.12 72.91 70.51 C 72.11 71.30 71.32 72.10 70.52 72.90 C 69.11 71.62 67.68 70.35 66.21 69.14 C 67.62 72.61 69.84 75.65 72.32 78.43 C 70.26 79.34 68.35 80.69 66.11 81.12 C 63.55 79.83 61.66 77.58 59.64 75.61 C 61.98 73.82 63.99 71.50 64.38 68.47 C 62.64 68.18 60.91 67.88 59.19 67.54 C 58.42 69.26 57.63 70.97 56.82 72.66 C 54.62 70.54 52.22 68.53 50.68 65.84 C 50.94 63.45 52.34 61.41 53.42 59.33 C 56.13 61.74 58.97 64.04 62.18 65.77 C 61.20 64.28 60.17 62.82 59.14 61.37 C 59.90 60.64 60.66 59.90 61.41 59.16 C 62.75 60.24 64.10 61.32 65.47 62.35 C 64.69 60.28 63.85 58.23 63.04 56.16 M 68.43 58.50 C 68.30 60.36 68.17 62.23 68.06 64.09 C 69.74 63.71 71.43 63.35 73.11 62.98 C 71.56 61.47 70.01 59.97 68.43 58.50 Z" />
<path fill="#bc532e" opacity="1.00" d=" M 68.43 58.50 C 70.01 59.97 71.56 61.47 73.11 62.98 C 71.43 63.35 69.74 63.71 68.06 64.09 C 68.17 62.23 68.30 60.36 68.43 58.50 Z" />
</svg>
