<?xml version="1.0" encoding="UTF-8" ?>
<!DOCTYPE svg PUBLIC "-//W3C//DTD SVG 1.1//EN" "http://www.w3.org/Graphics/SVG/1.1/DTD/svg11.dtd">
<svg width="100pt" height="100pt" viewBox="0 0 100 100" version="1.1" xmlns="http://www.w3.org/2000/svg">
<path fill="#efc644" opacity="1.00" d=" M 43.07 18.17 C 48.71 18.53 50.78 10.95 56.54 11.46 C 56.63 13.69 56.67 15.92 56.71 18.15 C 61.99 18.14 67.26 18.17 72.53 18.23 C 74.62 23.92 76.07 29.88 78.72 35.34 C 83.13 37.28 89.57 37.19 91.62 42.41 C 92.64 47.39 87.08 50.02 85.25 54.01 C 85.63 56.50 86.65 58.82 87.44 61.19 C 74.48 70.25 61.27 78.96 48.19 87.85 C 35.21 79.01 22.24 70.15 9.14 61.50 C 9.88 59.03 10.79 56.59 11.22 54.05 C 10.47 50.84 7.36 48.02 8.57 44.51 C 9.85 40.32 15.15 39.82 17.50 36.57 C 20.04 30.57 21.72 24.24 24.08 18.16 C 30.41 18.11 36.74 18.29 43.07 18.17 M 42.06 21.36 C 36.79 21.46 31.52 21.23 26.25 21.31 C 24.16 26.65 22.93 32.32 20.46 37.50 C 17.72 40.93 11.46 40.50 10.00 45.22 C 8.99 48.86 12.60 51.22 14.80 53.45 C 14.22 55.66 13.61 57.86 13.01 60.06 C 24.61 68.17 36.44 75.95 48.13 83.94 C 60.03 76.15 71.79 68.13 83.49 60.06 C 83.16 58.21 82.21 56.31 82.63 54.43 C 84.48 51.12 87.79 48.88 89.55 45.51 C 90.43 43.86 89.82 41.73 88.40 40.60 C 84.82 37.70 79.64 38.49 75.87 36.14 C 72.79 31.71 72.86 25.81 69.63 21.48 C 64.47 20.99 59.26 21.43 54.09 21.17 C 54.21 18.69 54.34 16.22 54.47 13.74 C 50.74 16.79 47.45 21.72 42.06 21.36 Z" />
<path fill="#b3c0cf" opacity="1.00" d=" M 42.06 21.36 C 47.45 21.72 50.74 16.79 54.47 13.74 C 54.34 16.22 54.21 18.69 54.09 21.17 C 59.26 21.43 64.47 20.99 69.63 21.48 C 72.86 25.81 72.79 31.71 75.87 36.14 C 79.64 38.49 84.82 37.70 88.40 40.60 C 89.82 41.73 90.43 43.86 89.55 45.51 C 87.79 48.88 84.48 51.12 82.63 54.43 C 82.21 56.31 83.16 58.21 83.49 60.06 C 71.79 68.13 60.03 76.15 48.13 83.94 C 36.44 75.95 24.61 68.17 13.01 60.06 C 13.61 57.86 14.22 55.66 14.80 53.45 C 12.60 51.22 8.99 48.86 10.00 45.22 C 11.46 40.50 17.72 40.93 20.46 37.50 C 22.93 32.32 24.16 26.65 26.25 21.31 C 31.52 21.23 36.79 21.46 42.06 21.36 M 44.75 23.51 C 39.24 24.05 33.69 23.51 28.16 23.89 C 26.40 29.36 24.53 34.79 22.46 40.15 C 18.67 41.23 13.23 41.27 11.52 45.53 C 10.68 49.44 15.54 50.83 17.61 53.30 C 17.40 55.34 16.70 57.30 16.15 59.27 C 20.97 63.15 26.52 65.94 31.54 69.52 C 37.05 73.35 42.60 77.12 48.18 80.83 C 58.93 73.70 69.66 66.55 80.17 59.07 C 79.93 57.55 79.69 56.03 79.47 54.50 C 82.57 51.49 86.04 48.64 88.13 44.79 C 89.02 43.11 87.53 41.48 86.03 40.88 C 82.00 39.06 77.51 38.73 73.21 37.91 C 71.52 33.19 69.75 28.49 68.06 23.76 C 63.04 23.72 58.03 23.66 53.02 23.69 C 52.86 21.68 52.34 19.71 52.20 17.69 C 49.81 19.71 47.82 22.55 44.75 23.51 Z" />
<path fill="#bc532e" opacity="1.00" d=" M 44.75 23.51 C 47.82 22.55 49.81 19.71 52.20 17.69 C 52.34 19.71 52.86 21.68 53.02 23.69 C 58.03 23.66 63.04 23.72 68.06 23.76 C 69.75 28.49 71.52 33.19 73.21 37.91 C 77.51 38.73 82.00 39.06 86.03 40.88 C 87.53 41.48 89.02 43.11 88.13 44.79 C 86.04 48.64 82.57 51.49 79.47 54.50 C 79.69 56.03 79.93 57.55 80.17 59.07 C 69.66 66.55 58.93 73.70 48.18 80.83 C 42.60 77.12 37.05 73.35 31.54 69.52 C 26.52 65.94 20.97 63.15 16.15 59.27 C 16.70 57.30 17.40 55.34 17.61 53.30 C 15.54 50.83 10.68 49.44 11.52 45.53 C 13.23 41.27 18.67 41.23 22.46 40.15 C 24.53 34.79 26.40 29.36 28.16 23.89 C 33.69 23.51 39.24 24.05 44.75 23.51 M 38.15 44.91 C 38.93 53.19 49.51 57.48 56.28 53.29 C 60.10 50.71 61.39 45.59 60.68 41.23 C 59.84 38.16 57.38 35.94 55.66 33.36 C 53.09 30.02 51.72 25.99 50.46 22.02 C 44.55 28.29 37.09 35.51 38.15 44.91 M 62.70 40.60 C 69.63 42.31 77.03 42.09 83.55 45.30 C 76.81 48.96 68.95 48.58 61.57 49.61 C 61.34 50.66 61.12 51.71 60.89 52.76 C 67.55 52.15 74.08 50.64 80.72 49.92 C 75.81 53.53 69.70 54.66 63.86 55.87 C 49.72 58.52 35.15 59.92 20.80 58.32 C 22.21 56.81 23.63 55.32 24.99 53.77 C 22.04 54.64 19.50 56.38 17.60 58.79 C 27.46 66.37 40.36 60.19 51.41 63.01 C 47.62 64.85 43.59 66.06 39.62 67.43 C 39.48 68.07 39.19 69.35 39.05 69.99 C 43.07 70.58 47.08 71.22 51.09 71.88 C 50.36 73.34 49.62 74.81 48.91 76.28 C 52.05 74.11 55.01 71.70 58.04 69.39 C 55.19 68.94 52.35 68.47 49.54 67.81 C 54.85 66.32 60.26 65.17 65.39 63.14 C 63.13 62.81 60.86 62.50 58.59 62.24 C 60.97 61.41 63.35 60.60 65.70 59.68 C 65.56 59.18 65.29 58.19 65.15 57.70 C 69.93 56.09 75.06 55.11 79.32 52.30 C 82.42 49.82 84.76 46.56 87.34 43.57 C 85.36 42.64 83.38 41.51 81.14 41.46 C 74.99 41.18 68.87 40.10 62.70 40.60 M 13.31 45.39 C 12.43 48.09 15.31 49.74 17.41 50.54 C 24.61 53.16 32.38 53.30 39.94 53.70 C 38.92 52.16 37.89 50.62 36.88 49.07 C 30.12 48.60 23.29 48.30 16.72 46.48 C 20.27 44.87 23.85 43.31 27.48 41.88 C 22.69 42.03 16.94 41.64 13.31 45.39 M 76.22 44.56 C 75.33 45.79 77.44 47.06 78.22 45.84 C 79.09 44.62 76.99 43.34 76.22 44.56 Z" />
<path fill="#ffffff" opacity="1.00" d=" M 38.15 44.91 C 37.09 35.51 44.55 28.29 50.46 22.02 C 51.72 25.99 53.09 30.02 55.66 33.36 C 57.38 35.94 59.84 38.16 60.68 41.23 C 61.39 45.59 60.10 50.71 56.28 53.29 C 49.51 57.48 38.93 53.19 38.15 44.91 M 53.16 42.28 C 49.26 43.60 49.69 49.92 53.97 50.14 C 58.75 49.86 57.57 42.29 53.16 42.28 Z" />
<path fill="#ffffff" opacity="1.00" d=" M 62.70 40.60 C 68.87 40.10 74.99 41.18 81.14 41.46 C 83.38 41.51 85.36 42.64 87.34 43.57 C 84.76 46.56 82.42 49.82 79.32 52.30 C 75.06 55.11 69.93 56.09 65.15 57.70 C 65.29 58.19 65.56 59.18 65.70 59.68 C 63.35 60.60 60.97 61.41 58.59 62.24 C 60.86 62.50 63.13 62.81 65.39 63.14 C 60.26 65.17 54.85 66.32 49.54 67.81 C 52.35 68.47 55.19 68.94 58.04 69.39 C 55.01 71.70 52.05 74.11 48.91 76.28 C 49.62 74.81 50.36 73.34 51.09 71.88 C 47.08 71.22 43.07 70.58 39.05 69.99 C 39.19 69.35 39.48 68.07 39.62 67.43 C 43.59 66.06 47.62 64.85 51.41 63.01 C 40.36 60.19 27.46 66.37 17.60 58.79 C 19.50 56.38 22.04 54.64 24.99 53.77 C 23.63 55.32 22.21 56.81 20.80 58.32 C 35.15 59.92 49.72 58.52 63.86 55.87 C 69.70 54.66 75.81 53.53 80.72 49.92 C 74.08 50.64 67.55 52.15 60.89 52.76 C 61.12 51.71 61.34 50.66 61.57 49.61 C 68.95 48.58 76.81 48.96 83.55 45.30 C 77.03 42.09 69.63 42.31 62.70 40.60 Z" />
<path fill="#ffffff" opacity="1.00" d=" M 13.31 45.39 C 16.94 41.64 22.69 42.03 27.48 41.88 C 23.85 43.31 20.27 44.87 16.72 46.48 C 23.29 48.30 30.12 48.60 36.88 49.07 C 37.89 50.62 38.92 52.16 39.94 53.70 C 32.38 53.30 24.61 53.16 17.41 50.54 C 15.31 49.74 12.43 48.09 13.31 45.39 Z" />
<path fill="#bc532e" opacity="1.00" d=" M 53.16 42.28 C 57.57 42.29 58.75 49.86 53.97 50.14 C 49.69 49.92 49.26 43.60 53.16 42.28 Z" />
<path fill="#b8b5b5" opacity="1.00" d=" M 76.22 44.56 C 76.99 43.34 79.09 44.62 78.22 45.84 C 77.44 47.06 75.33 45.79 76.22 44.56 Z" />
</svg>
