<?xml version="1.0" encoding="UTF-8" ?>
<!DOCTYPE svg PUBLIC "-//W3C//DTD SVG 1.1//EN" "http://www.w3.org/Graphics/SVG/1.1/DTD/svg11.dtd">
<svg width="100pt" height="100pt" viewBox="0 0 100 100" version="1.1" xmlns="http://www.w3.org/2000/svg">
<path fill="#b8bbba" opacity="1.00" d=" M 51.18 4.05 C 53.70 8.84 56.05 13.73 58.39 18.61 C 66.19 18.60 73.98 18.62 81.77 18.63 C 81.69 40.21 81.69 61.79 81.77 83.36 C 73.44 83.39 65.11 83.39 56.77 83.38 C 57.26 85.62 57.80 87.84 58.29 90.08 C 55.47 91.60 52.68 93.17 49.96 94.85 C 47.27 92.86 43.64 91.27 42.74 87.73 C 42.82 86.22 43.28 84.76 43.61 83.30 C 34.75 83.48 25.89 83.35 17.03 83.37 C 17.08 61.79 17.08 40.21 17.03 18.63 C 25.91 18.62 34.79 18.60 43.68 18.63 C 46.17 13.76 48.64 8.89 51.18 4.05 M 45.74 22.19 C 37.49 22.49 29.23 22.39 20.98 22.33 C 20.66 41.49 20.78 60.67 20.91 79.83 C 29.36 79.86 37.81 79.75 46.26 79.93 C 45.79 82.72 44.77 85.48 44.96 88.33 C 46.41 90.13 48.25 91.55 50.01 93.03 C 51.77 91.79 53.57 90.57 55.10 89.05 C 55.84 86.05 55.07 82.94 54.91 79.91 C 62.94 79.77 70.98 79.96 79.01 79.65 L 79.08 80.56 C 80.76 70.78 79.67 60.85 79.93 51.00 C 79.68 41.18 80.75 31.29 79.05 21.55 L 78.98 22.46 C 71.72 22.11 64.41 22.88 57.18 22.09 C 54.27 18.17 53.17 13.29 51.34 8.83 C 49.28 13.20 47.40 17.66 45.74 22.19 Z" />
<path fill="#c40f24" opacity="1.00" d=" M 45.74 22.19 C 47.40 17.66 49.28 13.20 51.34 8.83 C 53.17 13.29 54.27 18.17 57.18 22.09 C 64.41 22.88 71.72 22.11 78.98 22.46 C 78.24 31.96 78.67 41.49 78.59 51.00 C 78.68 60.55 78.22 70.12 79.01 79.65 C 70.98 79.96 62.94 79.77 54.91 79.91 C 55.07 82.94 55.84 86.05 55.10 89.05 C 53.57 90.57 51.77 91.79 50.01 93.03 C 48.25 91.55 46.41 90.13 44.96 88.33 C 44.77 85.48 45.79 82.72 46.26 79.93 C 37.81 79.75 29.36 79.86 20.91 79.83 C 20.78 60.67 20.66 41.49 20.98 22.33 C 29.23 22.39 37.49 22.49 45.74 22.19 M 48.49 22.25 C 46.72 33.75 47.27 45.41 47.80 56.98 C 48.24 61.59 46.56 65.93 45.52 70.33 C 43.04 71.23 40.58 72.23 38.28 73.53 C 41.81 73.88 45.34 73.78 48.87 73.73 C 48.66 77.65 48.36 81.57 48.16 85.49 C 48.03 87.37 49.35 88.90 50.20 90.45 C 51.24 89.68 52.29 88.90 53.34 88.13 C 52.43 83.51 52.47 78.80 52.80 74.13 C 56.60 75.54 60.44 76.86 64.39 77.80 C 61.71 75.35 58.63 73.43 55.40 71.81 C 55.38 67.85 54.40 63.97 54.42 60.01 C 54.44 53.00 55.35 46.02 55.17 39.01 C 54.75 30.77 55.13 22.14 51.17 14.60 C 50.11 17.08 49.00 19.58 48.49 22.25 M 26.01 26.55 C 25.83 33.61 25.43 40.71 26.42 47.73 C 29.76 42.35 28.27 35.84 28.52 29.87 C 33.10 29.95 38.04 30.09 41.70 26.85 C 36.48 26.51 31.24 26.60 26.01 26.55 M 57.80 32.17 C 57.42 34.90 57.73 37.66 57.84 40.40 C 61.84 36.04 65.53 31.21 67.04 25.37 C 63.69 27.17 59.90 28.82 57.80 32.17 M 72.24 44.01 C 72.32 54.01 72.28 64.02 72.24 74.03 C 70.03 74.22 67.82 74.42 65.61 74.66 C 68.61 75.88 71.65 76.98 74.75 77.93 C 74.70 61.94 75.29 45.91 74.43 29.94 C 71.48 34.07 72.27 39.25 72.24 44.01 M 34.05 56.52 C 31.62 57.08 29.10 56.52 26.64 56.58 C 29.07 57.97 31.58 59.22 34.08 60.50 C 31.29 63.61 28.00 66.34 25.87 69.97 C 26.95 70.56 28.23 71.37 29.47 70.70 C 32.15 68.15 34.27 65.09 36.78 62.38 C 38.93 64.45 41.09 66.52 43.43 68.38 C 42.53 66.15 41.46 64.00 40.32 61.88 C 43.65 57.93 45.27 52.95 44.79 47.78 C 41.47 50.97 38.32 54.56 34.05 56.52 Z" />
<path fill="#ffffff" opacity="1.00" d=" M 48.49 22.25 C 49.00 19.58 50.11 17.08 51.17 14.60 C 55.13 22.14 54.75 30.77 55.17 39.01 C 55.35 46.02 54.44 53.00 54.42 60.01 C 54.40 63.97 55.38 67.85 55.40 71.81 C 58.63 73.43 61.71 75.35 64.39 77.80 C 60.44 76.86 56.60 75.54 52.80 74.13 C 52.47 78.80 52.43 83.51 53.34 88.13 C 52.29 88.90 51.24 89.68 50.20 90.45 C 49.35 88.90 48.03 87.37 48.16 85.49 C 48.36 81.57 48.66 77.65 48.87 73.73 C 45.34 73.78 41.81 73.88 38.28 73.53 C 40.58 72.23 43.04 71.23 45.52 70.33 C 46.56 65.93 48.24 61.59 47.80 56.98 C 47.27 45.41 46.72 33.75 48.49 22.25 Z" />
<path fill="#b6d5d2" opacity="1.00" d=" M 78.98 22.46 L 79.05 21.55 C 80.75 31.29 79.68 41.18 79.93 51.00 C 79.67 60.85 80.76 70.78 79.08 80.56 L 79.01 79.65 C 78.22 70.12 78.68 60.55 78.59 51.00 C 78.67 41.49 78.24 31.96 78.98 22.46 Z" />
<path fill="#ffffff" opacity="1.00" d=" M 26.01 26.55 C 31.24 26.60 36.48 26.51 41.70 26.85 C 38.04 30.09 33.10 29.95 28.52 29.87 C 28.27 35.84 29.76 42.35 26.42 47.73 C 25.43 40.71 25.83 33.61 26.01 26.55 Z" />
<path fill="#ffffff" opacity="1.00" d=" M 57.80 32.17 C 59.90 28.82 63.69 27.17 67.04 25.37 C 65.53 31.21 61.84 36.04 57.84 40.40 C 57.73 37.66 57.42 34.90 57.80 32.17 Z" />
<path fill="#ffffff" opacity="1.00" d=" M 72.24 44.01 C 72.27 39.25 71.48 34.07 74.43 29.94 C 75.29 45.91 74.70 61.94 74.75 77.93 C 71.65 76.98 68.61 75.88 65.61 74.66 C 67.82 74.42 70.03 74.22 72.24 74.03 C 72.28 64.02 72.32 54.01 72.24 44.01 Z" />
<path fill="#ffffff" opacity="1.00" d=" M 34.05 56.52 C 38.32 54.56 41.47 50.97 44.79 47.78 C 45.27 52.95 43.65 57.93 40.32 61.88 C 41.46 64.00 42.53 66.15 43.43 68.38 C 41.09 66.52 38.93 64.45 36.78 62.38 C 34.27 65.09 32.15 68.15 29.47 70.70 C 28.23 71.37 26.95 70.56 25.87 69.97 C 28.00 66.34 31.29 63.61 34.08 60.50 C 31.58 59.22 29.07 57.97 26.64 56.58 C 29.10 56.52 31.62 57.08 34.05 56.52 Z" />
</svg>
