<?xml version="1.0" encoding="UTF-8" ?>
<!DOCTYPE svg PUBLIC "-//W3C//DTD SVG 1.1//EN" "http://www.w3.org/Graphics/SVG/1.1/DTD/svg11.dtd">
<svg width="100pt" height="100pt" viewBox="0 0 100 100" version="1.1" xmlns="http://www.w3.org/2000/svg">
<path fill="#b8b8b8" opacity="1.00" d=" M 39.92 15.96 C 42.82 13.52 45.38 10.73 48.05 8.05 C 51.26 11.11 54.18 14.57 57.92 17.02 C 63.48 20.06 70.09 20.41 75.65 23.43 C 78.32 25.28 80.60 27.84 81.93 30.82 C 83.11 34.87 83.02 39.16 83.68 43.32 C 88.72 41.24 93.73 39.05 98.72 36.86 C 95.68 40.53 92.52 44.24 90.73 48.72 C 89.54 51.91 86.94 54.20 85.06 56.95 C 83.43 59.47 83.81 63.24 80.98 64.91 C 75.97 68.27 70.25 70.61 65.82 74.80 C 59.82 80.43 54.00 86.24 48.05 91.92 C 40.82 84.82 33.56 77.74 26.20 70.78 C 22.66 67.29 17.69 65.40 14.93 61.13 C 12.14 57.04 8.53 53.62 4.95 50.23 C 5.88 48.86 6.82 47.49 7.75 46.11 C 5.23 43.04 2.64 40.03 0.00 37.06 L 0.00 36.40 C 4.19 38.81 8.73 40.51 13.17 42.37 C 14.81 40.15 16.54 37.83 16.91 35.01 C 17.71 31.93 17.61 28.38 19.77 25.83 C 22.08 23.15 24.85 20.51 28.43 19.77 C 32.28 18.65 36.75 18.75 39.92 15.96 M 42.09 18.97 C 36.41 21.43 29.40 20.27 24.37 24.36 C 18.45 28.68 16.91 38.23 22.51 43.46 C 21.59 44.69 20.67 45.93 19.75 47.18 C 15.02 45.17 10.44 42.85 5.71 40.84 C 9.10 45.58 13.51 49.43 17.28 53.84 C 19.48 56.34 18.79 60.41 21.52 62.52 C 26.76 66.60 33.05 69.39 37.48 74.47 C 41.04 78.56 44.27 82.92 47.89 86.95 C 51.29 83.05 54.46 78.84 58.64 75.72 C 64.64 71.29 70.97 67.34 77.01 62.98 C 80.47 60.85 79.37 55.96 82.19 53.31 C 85.94 49.21 90.06 45.41 93.29 40.86 C 87.38 43.12 82.06 46.83 75.80 48.14 C 77.78 44.62 81.46 41.48 80.89 37.05 C 81.03 31.10 76.74 25.66 71.14 23.92 C 63.20 20.82 53.42 20.64 47.80 13.35 C 46.01 15.33 44.40 17.57 42.09 18.97 Z" />
<path fill="#d96035" opacity="1.00" d=" M 42.09 18.97 C 44.40 17.57 46.01 15.33 47.80 13.35 C 53.42 20.64 63.20 20.82 71.14 23.92 C 76.74 25.66 81.03 31.10 80.89 37.05 C 81.46 41.48 77.78 44.62 75.80 48.14 C 82.06 46.83 87.38 43.12 93.29 40.86 C 90.06 45.41 85.94 49.21 82.19 53.31 C 79.37 55.96 80.47 60.85 77.01 62.98 C 70.97 67.34 64.64 71.29 58.64 75.72 C 54.46 78.84 51.29 83.05 47.89 86.95 C 44.27 82.92 41.04 78.56 37.48 74.47 C 33.05 69.39 26.76 66.60 21.52 62.52 C 18.79 60.41 19.48 56.34 17.28 53.84 C 13.51 49.43 9.10 45.58 5.71 40.84 C 10.44 42.85 15.02 45.17 19.75 47.18 C 20.67 45.93 21.59 44.69 22.51 43.46 C 16.91 38.23 18.45 28.68 24.37 24.36 C 29.40 20.27 36.41 21.43 42.09 18.97 M 46.77 20.69 C 41.43 21.72 36.06 22.65 30.75 23.82 C 25.71 24.77 21.46 29.19 21.31 34.43 C 20.38 38.64 24.12 41.64 26.60 44.44 C 29.60 47.86 34.26 48.63 38.40 49.85 C 37.80 51.63 37.19 53.41 36.59 55.19 C 39.49 59.33 43.04 62.93 46.39 66.69 C 49.12 69.71 49.21 73.99 50.18 77.74 C 52.35 76.94 54.93 76.13 55.63 73.62 C 57.99 69.45 55.74 64.96 54.59 60.85 C 53.51 56.74 59.03 56.23 61.39 54.26 C 66.44 50.34 72.29 47.41 76.70 42.71 C 79.86 39.73 79.09 34.44 76.99 31.07 C 74.06 26.25 68.13 25.40 63.22 23.77 C 57.85 22.34 52.48 19.33 46.77 20.69 M 13.65 46.84 C 15.87 49.13 18.37 51.12 20.64 53.35 C 23.26 55.54 22.12 59.86 25.08 61.80 C 29.60 65.39 34.14 68.96 38.92 72.20 C 35.86 68.04 31.66 64.84 28.85 60.51 C 28.70 58.70 29.21 56.91 29.47 55.13 C 24.30 52.18 19.13 49.20 13.65 46.84 M 69.43 55.22 C 69.82 57.01 70.20 58.79 70.58 60.58 C 67.05 64.42 63.41 68.18 60.09 72.20 C 64.87 68.98 69.44 65.45 73.94 61.84 C 76.84 59.87 75.82 55.60 78.40 53.39 C 80.66 51.15 83.15 49.16 85.36 46.86 C 79.83 49.22 74.65 52.28 69.43 55.22 Z" />
<path fill="#ffffff" opacity="1.00" d=" M 46.77 20.69 C 52.48 19.33 57.85 22.34 63.22 23.77 C 68.13 25.40 74.06 26.25 76.99 31.07 C 79.09 34.44 79.86 39.73 76.70 42.71 C 72.29 47.41 66.44 50.34 61.39 54.26 C 59.03 56.23 53.51 56.74 54.59 60.85 C 55.74 64.96 57.99 69.45 55.63 73.62 C 54.93 76.13 52.35 76.94 50.18 77.74 C 49.21 73.99 49.12 69.71 46.39 66.69 C 43.04 62.93 39.49 59.33 36.59 55.19 C 37.19 53.41 37.80 51.63 38.40 49.85 C 34.26 48.63 29.60 47.86 26.60 44.44 C 24.12 41.64 20.38 38.64 21.31 34.43 C 21.46 29.19 25.71 24.77 30.75 23.82 C 36.06 22.65 41.43 21.72 46.77 20.69 M 48.41 22.35 C 42.94 23.39 37.56 24.83 32.14 26.07 C 27.82 26.81 23.72 30.13 23.48 34.75 C 22.74 37.73 25.45 39.80 27.00 41.93 C 28.01 38.16 28.36 33.24 32.51 31.49 C 37.54 29.51 43.06 29.26 48.33 28.24 C 53.21 27.15 57.92 29.22 62.55 30.46 C 65.57 31.40 68.77 32.02 71.52 33.64 C 74.04 35.68 75.08 38.92 76.83 41.56 C 76.70 38.33 77.31 34.63 75.16 31.89 C 72.21 27.80 66.82 27.18 62.42 25.51 C 57.83 24.22 53.31 21.61 48.41 22.35 M 42.08 34.04 C 37.58 35.08 34.81 39.01 31.03 41.33 C 32.10 42.45 33.16 43.57 34.23 44.70 C 35.33 42.77 35.96 40.24 38.08 39.15 C 47.27 35.28 57.84 34.19 67.34 37.62 C 69.90 38.82 70.28 41.98 71.38 44.29 C 72.27 43.72 73.17 43.15 74.07 42.59 C 73.63 40.13 73.76 37.11 71.53 35.47 C 69.03 33.57 65.87 32.92 62.96 31.94 C 59.34 30.94 55.81 29.42 52.04 29.13 C 48.58 30.42 45.80 33.23 42.08 34.04 M 44.08 41.22 C 41.15 41.74 39.19 44.01 37.39 46.17 C 38.54 46.66 39.68 47.20 40.88 47.58 C 43.21 46.26 43.94 42.49 47.09 42.53 C 53.72 41.91 60.54 42.19 66.86 44.44 C 67.65 43.83 68.45 43.21 69.25 42.60 C 67.93 40.98 66.68 39.00 64.44 38.63 C 60.75 37.76 56.93 36.58 53.11 36.89 C 50.20 38.54 47.43 40.52 44.08 41.22 M 28.38 42.51 C 27.77 44.02 29.87 46.16 31.39 45.54 C 32.01 44.06 29.88 41.91 28.38 42.51 M 46.13 46.36 C 47.40 47.03 48.67 47.69 49.94 48.36 C 49.86 48.74 49.70 49.50 49.62 49.88 C 46.98 50.34 44.33 50.77 41.69 51.28 C 42.92 52.52 43.99 53.96 45.46 54.94 C 48.32 55.78 51.35 55.79 54.30 55.96 C 52.60 54.74 50.85 53.61 49.07 52.50 C 49.12 52.30 49.20 51.89 49.24 51.69 C 51.78 52.56 54.26 53.80 56.96 54.02 C 58.86 53.74 60.50 52.64 62.21 51.84 C 59.08 49.62 55.46 48.35 51.93 46.96 C 55.46 47.42 58.91 48.36 62.39 49.09 C 64.15 49.58 66.34 48.18 66.13 46.23 C 64.73 45.33 63.21 44.64 61.64 44.14 C 56.39 42.10 51.24 45.43 46.13 46.36 M 40.05 57.35 C 40.77 57.99 41.53 58.59 42.33 59.14 C 45.74 59.21 49.14 58.66 52.55 58.47 C 50.46 57.32 48.37 55.95 45.97 55.60 C 43.88 55.67 41.99 56.69 40.05 57.35 M 47.83 59.64 C 47.08 61.45 46.36 63.27 45.70 65.11 C 48.21 64.86 50.62 64.06 52.52 62.35 C 50.97 61.41 49.41 60.52 47.83 59.64 M 48.59 67.03 C 50.78 66.89 52.96 66.58 55.08 66.01 C 52.82 65.27 50.54 65.75 48.59 67.03 M 51.54 67.92 C 51.61 69.87 51.78 71.81 51.95 73.75 C 53.18 72.23 54.36 70.68 55.51 69.10 C 54.19 68.70 52.87 68.30 51.54 67.92 Z" />
<path fill="#d96035" opacity="1.00" d=" M 48.41 22.35 C 53.31 21.61 57.83 24.22 62.42 25.51 C 66.82 27.18 72.21 27.80 75.16 31.89 C 77.31 34.63 76.70 38.33 76.83 41.56 C 75.08 38.92 74.04 35.68 71.52 33.64 C 68.77 32.02 65.57 31.40 62.55 30.46 C 57.92 29.22 53.21 27.15 48.33 28.24 C 43.06 29.26 37.54 29.51 32.51 31.49 C 28.36 33.24 28.01 38.16 27.00 41.93 C 25.45 39.80 22.74 37.73 23.48 34.75 C 23.72 30.13 27.82 26.81 32.14 26.07 C 37.56 24.83 42.94 23.39 48.41 22.35 Z" />
<path fill="#d95f34" opacity="1.00" d=" M 42.08 34.04 C 45.80 33.23 48.58 30.42 52.04 29.13 C 55.81 29.42 59.34 30.94 62.96 31.94 C 65.87 32.92 69.03 33.57 71.53 35.47 C 73.76 37.11 73.63 40.13 74.07 42.59 C 73.17 43.15 72.27 43.72 71.38 44.29 C 70.28 41.98 69.90 38.82 67.34 37.62 C 57.84 34.19 47.27 35.28 38.08 39.15 C 35.96 40.24 35.33 42.77 34.23 44.70 C 33.16 43.57 32.10 42.45 31.03 41.33 C 34.81 39.01 37.58 35.08 42.08 34.04 Z" />
<path fill="#d95f34" opacity="1.00" d=" M 44.08 41.22 C 47.43 40.52 50.20 38.54 53.11 36.89 C 56.93 36.58 60.75 37.76 64.44 38.63 C 66.68 39.00 67.93 40.98 69.25 42.60 C 68.45 43.21 67.65 43.83 66.86 44.44 C 60.54 42.19 53.72 41.91 47.09 42.53 C 43.94 42.49 43.21 46.26 40.88 47.58 C 39.68 47.20 38.54 46.66 37.39 46.17 C 39.19 44.01 41.15 41.74 44.08 41.22 Z" />
<path fill="#d95f34" opacity="1.00" d=" M 28.38 42.51 C 29.88 41.91 32.01 44.06 31.39 45.54 C 29.87 46.16 27.77 44.02 28.38 42.51 Z" />
<path fill="#d95f34" opacity="1.00" d=" M 46.13 46.36 C 51.24 45.43 56.39 42.10 61.64 44.14 C 63.21 44.64 64.73 45.33 66.13 46.23 C 66.34 48.18 64.15 49.58 62.39 49.09 C 58.91 48.36 55.46 47.42 51.93 46.96 C 55.46 48.35 59.08 49.62 62.21 51.84 C 60.50 52.64 58.86 53.74 56.96 54.02 C 54.26 53.80 51.78 52.56 49.24 51.69 C 49.34 51.24 49.53 50.34 49.62 49.88 C 49.70 49.50 49.86 48.74 49.94 48.36 C 48.67 47.69 47.40 47.03 46.13 46.36 Z" />
<path fill="#ffffff" opacity="1.00" d=" M 13.65 46.84 C 19.13 49.20 24.30 52.18 29.47 55.13 C 29.21 56.91 28.70 58.70 28.85 60.51 C 31.66 64.84 35.86 68.04 38.92 72.20 C 34.14 68.96 29.60 65.39 25.08 61.80 C 22.12 59.86 23.26 55.54 20.64 53.35 C 18.37 51.12 15.87 49.13 13.65 46.84 Z" />
<path fill="#ffffff" opacity="1.00" d=" M 69.43 55.22 C 74.65 52.28 79.83 49.22 85.36 46.86 C 83.15 49.16 80.66 51.15 78.40 53.39 C 75.82 55.60 76.84 59.87 73.94 61.84 C 69.44 65.45 64.87 68.98 60.09 72.20 C 63.41 68.18 67.05 64.42 70.58 60.58 C 70.20 58.79 69.82 57.01 69.43 55.22 Z" />
<path fill="#d96136" opacity="1.00" d=" M 41.69 51.28 C 44.33 50.77 46.98 50.34 49.62 49.88 C 49.53 50.34 49.34 51.24 49.24 51.69 C 49.20 51.89 49.12 52.30 49.07 52.50 C 50.85 53.61 52.60 54.74 54.30 55.96 C 51.35 55.79 48.32 55.78 45.46 54.94 C 43.99 53.96 42.92 52.52 41.69 51.28 Z" />
<path fill="#d75a2d" opacity="1.00" d=" M 40.05 57.35 C 41.99 56.69 43.88 55.67 45.97 55.60 C 48.37 55.95 50.46 57.32 52.55 58.47 C 49.14 58.66 45.74 59.21 42.33 59.14 C 41.53 58.59 40.77 57.99 40.05 57.35 Z" />
<path fill="#e48a6b" opacity="1.00" d=" M 47.83 59.64 C 49.41 60.52 50.97 61.41 52.52 62.35 C 50.62 64.06 48.21 64.86 45.70 65.11 C 46.36 63.27 47.08 61.45 47.83 59.64 Z" />
<path fill="#d95f34" opacity="1.00" d=" M 48.59 67.03 C 50.54 65.75 52.82 65.27 55.08 66.01 C 52.96 66.58 50.78 66.89 48.59 67.03 Z" />
<path fill="#d95f34" opacity="1.00" d=" M 51.54 67.92 C 52.87 68.30 54.19 68.70 55.51 69.10 C 54.36 70.68 53.18 72.23 51.95 73.75 C 51.78 71.81 51.61 69.87 51.54 67.92 Z" />
</svg>
