<?xml version="1.0" encoding="UTF-8" ?>
<!DOCTYPE svg PUBLIC "-//W3C//DTD SVG 1.1//EN" "http://www.w3.org/Graphics/SVG/1.1/DTD/svg11.dtd">
<svg width="100pt" height="100pt" viewBox="0 0 100 100" version="1.1" xmlns="http://www.w3.org/2000/svg">
<path fill="#efc644" opacity="1.00" d=" M 16.75 19.97 C 17.12 18.79 17.51 17.62 17.90 16.46 C 39.41 16.62 60.93 16.41 82.44 16.57 C 82.54 24.75 82.46 32.93 82.49 41.12 C 86.81 41.71 91.84 42.55 94.29 46.63 C 96.50 50.61 97.41 55.14 98.93 59.41 C 94.98 59.78 91.02 60.08 87.08 60.49 C 84.77 60.54 82.29 62.48 82.55 64.95 C 82.34 70.70 82.55 76.46 82.59 82.21 C 60.84 82.53 39.07 82.41 17.32 82.27 C 17.37 78.23 17.54 74.01 15.76 70.26 C 14.77 66.98 11.90 62.88 15.07 59.95 C 17.69 52.39 17.94 44.16 16.85 36.32 C 13.79 32.63 11.93 27.85 7.80 25.16 C 5.43 23.45 3.06 21.74 0.78 19.91 C 6.10 19.85 11.42 19.98 16.75 19.97 M 6.73 22.01 C 11.04 25.05 15.59 28.14 18.10 32.95 C 20.33 36.19 20.55 40.20 20.47 44.00 C 20.34 49.39 20.91 54.95 19.16 60.16 C 18.62 62.40 17.33 64.69 18.10 67.04 C 19.23 70.88 20.31 74.75 20.65 78.75 C 40.16 78.81 59.66 78.71 79.17 78.81 C 79.38 74.19 79.26 69.56 79.30 64.93 C 79.37 63.15 79.30 61.04 80.89 59.83 C 84.42 56.13 90.20 58.14 94.30 55.89 C 93.61 52.22 92.43 48.04 89.06 45.96 C 86.02 44.53 82.56 44.73 79.29 44.48 C 79.31 36.34 79.51 28.19 79.18 20.05 C 69.98 20.21 60.75 19.61 51.56 20.44 C 49.63 19.59 47.46 19.68 45.54 20.52 C 37.60 19.73 29.58 19.81 21.62 20.37 C 17.47 24.05 11.67 21.86 6.73 22.01 Z" />
<path fill="#b5bcc2" opacity="1.00" d=" M 6.73 22.01 C 11.67 21.86 17.47 24.05 21.62 20.37 C 29.58 19.81 37.60 19.73 45.54 20.52 C 41.84 21.92 38.05 23.28 34.05 23.36 C 26.68 23.59 19.32 24.08 11.94 24.01 C 14.54 25.60 17.42 26.95 19.39 29.34 C 22.36 33.60 24.23 38.71 24.06 43.95 C 23.92 54.54 23.74 65.14 24.06 75.73 C 41.44 75.80 58.81 75.65 76.19 75.74 C 76.37 69.80 76.42 63.86 76.39 57.92 C 81.25 56.07 86.26 54.59 91.46 54.05 C 90.38 52.04 89.76 49.49 87.79 48.17 C 84.27 46.75 80.36 47.52 76.67 47.66 C 76.47 39.53 76.49 31.41 76.65 23.28 C 68.21 23.46 59.39 24.30 51.56 20.44 C 60.75 19.61 69.98 20.21 79.18 20.05 C 79.51 28.19 79.31 36.34 79.29 44.48 C 82.56 44.73 86.02 44.53 89.06 45.96 C 92.43 48.04 93.61 52.22 94.30 55.89 C 90.20 58.14 84.42 56.13 80.89 59.83 C 79.30 61.04 79.37 63.15 79.30 64.93 C 79.26 69.56 79.38 74.19 79.17 78.81 C 59.66 78.71 40.16 78.81 20.65 78.75 C 20.31 74.75 19.23 70.88 18.10 67.04 C 17.33 64.69 18.62 62.40 19.16 60.16 C 20.91 54.95 20.34 49.39 20.47 44.00 C 20.55 40.20 20.33 36.19 18.10 32.95 C 15.59 28.14 11.04 25.05 6.73 22.01 Z" />
<path fill="#b61c2e" opacity="1.00" d=" M 45.54 20.52 C 47.46 19.68 49.63 19.59 51.56 20.44 C 59.39 24.30 68.21 23.46 76.65 23.28 C 76.49 31.41 76.47 39.53 76.67 47.66 C 80.36 47.52 84.27 46.75 87.79 48.17 C 89.76 49.49 90.38 52.04 91.46 54.05 C 86.26 54.59 81.25 56.07 76.39 57.92 C 76.42 63.86 76.37 69.80 76.19 75.74 C 58.81 75.65 41.44 75.80 24.06 75.73 C 23.74 65.14 23.92 54.54 24.06 43.95 C 24.23 38.71 22.36 33.60 19.39 29.34 C 17.42 26.95 14.54 25.60 11.94 24.01 C 19.32 24.08 26.68 23.59 34.05 23.36 C 38.05 23.28 41.84 21.92 45.54 20.52 M 46.79 22.77 C 42.73 23.31 40.18 26.79 36.67 28.46 C 30.58 27.43 24.55 25.55 18.27 25.86 C 20.77 27.19 23.36 28.33 25.96 29.43 C 24.61 30.17 23.26 30.91 21.91 31.66 C 24.60 35.19 29.30 34.97 33.21 36.04 C 32.16 36.69 31.12 37.35 30.10 38.02 C 34.13 38.37 38.17 38.78 42.22 38.63 C 42.44 38.04 42.88 36.85 43.10 36.25 C 36.65 36.34 30.77 33.41 24.55 32.15 C 27.06 31.51 29.60 31.08 32.16 30.72 C 31.35 29.93 30.54 29.12 29.76 28.31 C 32.55 29.15 35.75 31.68 38.54 29.50 C 42.52 26.68 47.46 22.34 52.57 25.25 C 55.51 29.26 57.07 34.60 56.75 39.57 C 54.70 40.19 52.55 40.36 50.44 40.72 C 53.16 43.36 56.90 43.87 60.52 43.54 C 62.14 45.61 63.87 47.57 65.61 49.53 C 62.18 51.17 58.61 52.51 55.03 53.81 C 59.45 52.89 64.05 52.08 67.81 49.40 C 65.81 46.96 64.06 44.28 61.81 42.07 C 60.08 41.45 58.22 41.78 56.43 41.83 C 57.24 40.88 58.10 39.95 58.76 38.88 C 58.49 34.37 57.20 29.90 55.20 25.85 C 53.78 22.70 49.83 22.11 46.79 22.77 M 47.88 30.94 C 45.42 34.39 47.17 38.60 48.21 42.23 C 48.81 40.71 49.42 39.20 50.01 37.68 C 51.87 38.24 53.73 38.77 55.61 39.28 C 55.30 37.10 54.98 34.88 54.15 32.82 C 52.88 32.43 51.56 32.18 50.24 31.96 C 51.37 30.97 52.46 29.93 53.50 28.86 C 51.43 29.03 48.59 28.29 47.88 30.94 M 25.05 47.11 C 27.68 47.50 30.43 47.18 32.35 45.18 C 29.82 45.36 27.33 45.97 25.05 47.11 M 25.10 53.50 C 29.33 53.14 33.47 52.03 37.31 50.22 C 33.05 50.04 28.24 50.17 25.10 53.50 M 71.91 51.94 C 63.93 53.66 55.99 55.63 47.96 57.13 C 45.53 57.58 43.15 58.49 41.25 60.09 C 37.01 60.17 32.77 60.98 29.06 63.11 C 31.26 63.92 33.51 64.60 35.83 65.00 C 32.52 67.39 28.21 67.66 24.59 69.46 C 30.42 68.70 36.03 66.88 41.74 65.54 C 46.63 64.49 51.07 62.00 55.96 60.92 C 61.07 59.68 66.37 59.10 71.29 57.16 C 76.87 54.85 82.54 52.69 88.39 51.15 C 83.07 48.46 77.31 50.82 71.91 51.94 M 24.70 59.84 C 28.40 59.91 32.23 59.49 35.37 57.37 C 31.65 57.25 27.99 58.11 24.70 59.84 M 63.33 64.31 C 61.05 65.57 59.20 67.44 57.15 69.03 C 59.07 68.55 61.00 68.10 62.92 67.61 C 63.13 68.13 63.57 69.17 63.79 69.69 C 62.19 70.43 60.59 71.18 59.00 71.94 C 63.62 71.07 69.08 71.20 72.59 67.57 C 72.67 65.62 72.19 63.70 71.92 61.78 C 69.06 62.63 66.12 63.24 63.33 64.31 M 53.14 71.68 C 54.00 73.61 56.39 73.71 58.08 74.48 C 57.09 73.27 56.06 72.09 55.02 70.92 C 56.14 68.25 57.18 65.53 57.91 62.72 C 55.58 65.19 53.29 68.15 53.14 71.68 M 33.61 73.95 C 37.44 74.05 41.23 73.40 44.97 72.64 C 44.64 72.28 43.98 71.55 43.66 71.19 C 40.25 71.89 36.85 72.66 33.61 73.95 Z" />
<path fill="#ffffff" opacity="1.00" d=" M 46.79 22.77 C 49.83 22.11 53.78 22.70 55.20 25.85 C 57.20 29.90 58.49 34.37 58.76 38.88 C 58.10 39.95 57.24 40.88 56.43 41.83 C 58.22 41.78 60.08 41.45 61.81 42.07 C 64.06 44.28 65.81 46.96 67.81 49.40 C 64.05 52.08 59.45 52.89 55.03 53.81 C 58.61 52.51 62.18 51.17 65.61 49.53 C 63.87 47.57 62.14 45.61 60.52 43.54 C 56.90 43.87 53.16 43.36 50.44 40.72 C 52.55 40.36 54.70 40.19 56.75 39.57 C 57.07 34.60 55.51 29.26 52.57 25.25 C 47.46 22.34 42.52 26.68 38.54 29.50 C 35.75 31.68 32.55 29.15 29.76 28.31 C 30.54 29.12 31.35 29.93 32.16 30.72 C 29.60 31.08 27.06 31.51 24.55 32.15 C 30.77 33.41 36.65 36.34 43.10 36.25 C 42.88 36.85 42.44 38.04 42.22 38.63 C 38.17 38.78 34.13 38.37 30.10 38.02 C 31.12 37.35 32.16 36.69 33.21 36.04 C 29.30 34.97 24.60 35.19 21.91 31.66 C 23.26 30.91 24.61 30.17 25.96 29.43 C 23.36 28.33 20.77 27.19 18.27 25.86 C 24.55 25.55 30.58 27.43 36.67 28.46 C 40.18 26.79 42.73 23.31 46.79 22.77 Z" />
<path fill="#ffffff" opacity="1.00" d=" M 47.88 30.94 C 48.59 28.29 51.43 29.03 53.50 28.86 C 52.46 29.93 51.37 30.97 50.24 31.96 C 51.56 32.18 52.88 32.43 54.15 32.82 C 54.98 34.88 55.30 37.10 55.61 39.28 C 53.73 38.77 51.87 38.24 50.01 37.68 C 49.42 39.20 48.81 40.71 48.21 42.23 C 47.17 38.60 45.42 34.39 47.88 30.94 Z" />
<path fill="#ffffff" opacity="1.00" d=" M 25.05 47.11 C 27.33 45.97 29.82 45.36 32.35 45.18 C 30.43 47.18 27.68 47.50 25.05 47.11 Z" />
<path fill="#ffffff" opacity="1.00" d=" M 25.10 53.50 C 28.24 50.17 33.05 50.04 37.31 50.22 C 33.47 52.03 29.33 53.14 25.10 53.50 Z" />
<path fill="#ffffff" opacity="1.00" d=" M 71.91 51.94 C 77.31 50.82 83.07 48.46 88.39 51.15 C 82.54 52.69 76.87 54.85 71.29 57.16 C 66.37 59.10 61.07 59.68 55.96 60.92 C 51.07 62.00 46.63 64.49 41.74 65.54 C 36.03 66.88 30.42 68.70 24.59 69.46 C 28.21 67.66 32.52 67.39 35.83 65.00 C 37.64 63.37 39.38 61.66 41.25 60.09 C 43.15 58.49 45.53 57.58 47.96 57.13 C 55.99 55.63 63.93 53.66 71.91 51.94 M 43.20 62.38 C 42.03 62.19 40.31 64.08 41.89 64.75 C 43.66 65.68 45.93 62.43 43.20 62.38 Z" />
<path fill="#ffffff" opacity="1.00" d=" M 24.70 59.84 C 27.99 58.11 31.65 57.25 35.37 57.37 C 32.23 59.49 28.40 59.91 24.70 59.84 Z" />
<path fill="#cb5f6c" opacity="1.00" d=" M 29.06 63.11 C 32.77 60.98 37.01 60.17 41.25 60.09 C 39.38 61.66 37.64 63.37 35.83 65.00 C 33.51 64.60 31.26 63.92 29.06 63.11 Z" />
<path fill="#b61c2e" opacity="1.00" d=" M 43.20 62.38 C 45.93 62.43 43.66 65.68 41.89 64.75 C 40.31 64.08 42.03 62.19 43.20 62.38 Z" />
<path fill="#ffffff" opacity="1.00" d=" M 63.33 64.31 C 66.12 63.24 69.06 62.63 71.92 61.78 C 72.19 63.70 72.67 65.62 72.59 67.57 C 69.08 71.20 63.62 71.07 59.00 71.94 C 60.59 71.18 62.19 70.43 63.79 69.69 C 63.57 69.17 63.13 68.13 62.92 67.61 C 61.00 68.10 59.07 68.55 57.15 69.03 C 59.20 67.44 61.05 65.57 63.33 64.31 Z" />
<path fill="#ffffff" opacity="1.00" d=" M 53.14 71.68 C 53.29 68.15 55.58 65.19 57.91 62.72 C 57.18 65.53 56.14 68.25 55.02 70.92 C 56.06 72.09 57.09 73.27 58.08 74.48 C 56.39 73.71 54.00 73.61 53.14 71.68 Z" />
<path fill="#ffffff" opacity="1.00" d=" M 33.61 73.95 C 36.85 72.66 40.25 71.89 43.66 71.19 C 43.98 71.55 44.64 72.28 44.97 72.64 C 41.23 73.40 37.44 74.05 33.61 73.95 Z" />
</svg>
