<?xml version="1.0" encoding="UTF-8" ?>
<!DOCTYPE svg PUBLIC "-//W3C//DTD SVG 1.1//EN" "http://www.w3.org/Graphics/SVG/1.1/DTD/svg11.dtd">
<svg width="100pt" height="100pt" viewBox="0 0 100 100" version="1.1" xmlns="http://www.w3.org/2000/svg">
<path fill="#bab9b9" opacity="1.00" d=" M 44.66 18.68 C 47.20 15.98 51.00 18.23 54.04 18.65 C 59.10 20.25 65.31 19.59 69.19 23.79 C 72.55 26.69 74.43 30.78 76.46 34.63 C 79.12 40.13 83.92 44.10 87.45 48.99 C 83.15 51.69 84.85 56.86 84.82 61.06 C 85.18 64.58 84.14 68.08 84.39 71.59 C 86.49 75.59 89.52 79.01 92.06 82.72 C 64.05 82.68 36.05 82.65 8.04 82.38 C 16.32 70.24 24.91 58.31 33.29 46.24 C 35.29 43.85 33.87 40.73 33.59 38.02 C 36.70 34.86 39.83 31.72 43.04 28.67 C 41.38 26.71 39.70 24.77 38.04 22.80 C 40.36 21.62 42.64 20.33 44.66 18.68 M 41.42 23.78 C 42.98 25.27 44.54 26.76 46.11 28.25 C 42.94 31.67 39.02 34.50 36.61 38.53 C 35.96 42.01 37.27 45.94 35.07 49.03 C 28.01 59.22 20.81 69.33 13.89 79.61 C 37.96 79.63 62.04 79.67 86.11 79.62 C 84.51 77.24 82.51 75.03 81.50 72.31 C 81.37 70.07 82.24 67.92 82.54 65.73 C 83.70 59.57 81.17 53.20 83.26 47.15 C 80.00 43.20 76.54 39.35 74.26 34.72 C 71.78 30.21 69.31 24.84 64.10 23.01 C 59.56 21.58 54.87 20.64 50.17 19.92 C 46.75 19.36 44.15 22.24 41.42 23.78 Z" />
<path fill="#217a7a" opacity="1.00" d=" M 41.42 23.78 C 44.15 22.24 46.75 19.36 50.17 19.92 C 54.87 20.64 59.56 21.58 64.10 23.01 C 69.31 24.84 71.78 30.21 74.26 34.72 C 76.54 39.35 80.00 43.20 83.26 47.15 C 81.17 53.20 83.70 59.57 82.54 65.73 C 82.24 67.92 81.37 70.07 81.50 72.31 C 82.51 75.03 84.51 77.24 86.11 79.62 C 62.04 79.67 37.96 79.63 13.89 79.61 C 20.81 69.33 28.01 59.22 35.07 49.03 C 37.27 45.94 35.96 42.01 36.61 38.53 C 39.02 34.50 42.94 31.67 46.11 28.25 C 44.54 26.76 42.98 25.27 41.42 23.78 M 48.50 21.86 C 49.68 23.57 50.68 25.51 52.40 26.77 C 54.35 27.49 56.49 27.22 58.52 27.29 C 55.97 24.25 52.27 22.73 48.50 21.86 M 44.55 23.26 C 43.40 24.71 45.90 26.40 46.90 24.93 C 48.06 23.47 45.55 21.78 44.55 23.26 M 57.68 23.44 C 58.99 25.91 60.43 28.31 61.90 30.69 C 61.40 32.03 59.09 33.45 60.50 34.86 C 63.48 38.45 67.56 40.88 70.82 44.19 C 73.33 46.78 77.16 46.75 80.49 47.19 C 77.78 44.05 74.87 40.83 70.90 39.32 C 67.27 37.87 63.27 36.18 61.96 32.11 C 65.58 33.50 69.01 35.31 72.58 36.83 C 69.40 30.85 64.90 24.54 57.68 23.44 M 40.39 37.46 C 39.49 38.63 38.06 39.90 38.62 41.54 C 39.40 45.59 42.96 48.16 45.56 51.07 C 38.73 57.58 32.88 65.36 24.61 70.14 C 26.74 72.39 28.90 74.62 31.15 76.76 C 36.26 68.67 43.90 62.65 50.57 55.93 C 53.70 58.75 56.73 63.58 61.57 62.73 C 65.31 60.35 68.04 56.75 71.21 53.71 C 68.28 47.07 62.32 42.67 57.49 37.51 C 54.73 34.80 52.10 31.43 48.10 30.61 C 45.11 32.35 42.70 34.93 40.39 37.46 M 73.12 47.53 C 73.23 49.74 73.08 52.00 73.63 54.16 C 75.76 56.28 78.31 57.93 80.58 59.89 C 80.28 57.12 80.28 54.26 79.42 51.58 C 77.58 49.86 75.29 48.75 73.12 47.53 M 67.34 63.34 C 65.78 65.59 65.59 68.45 64.94 71.04 C 70.06 70.40 75.15 69.56 80.23 68.63 C 81.25 63.83 77.60 60.28 74.89 56.85 C 72.28 58.90 69.52 60.82 67.34 63.34 M 50.89 62.01 C 53.31 66.89 58.23 69.51 62.74 72.14 C 62.44 69.99 62.05 67.85 61.58 65.73 C 57.95 64.68 54.40 63.40 50.89 62.01 Z" />
<path fill="#ffffff" opacity="1.00" d=" M 48.50 21.86 C 52.27 22.73 55.97 24.25 58.52 27.29 C 56.49 27.22 54.35 27.49 52.40 26.77 C 50.68 25.51 49.68 23.57 48.50 21.86 Z" />
<path fill="#ffffff" opacity="1.00" d=" M 44.55 23.26 C 45.55 21.78 48.06 23.47 46.90 24.93 C 45.90 26.40 43.40 24.71 44.55 23.26 Z" />
<path fill="#ffffff" opacity="1.00" d=" M 57.68 23.44 C 64.90 24.54 69.40 30.85 72.58 36.83 C 69.01 35.31 65.58 33.50 61.96 32.11 C 63.27 36.18 67.27 37.87 70.90 39.32 C 74.87 40.83 77.78 44.05 80.49 47.19 C 77.16 46.75 73.33 46.78 70.82 44.19 C 67.56 40.88 63.48 38.45 60.50 34.86 C 59.09 33.45 61.40 32.03 61.90 30.69 C 60.43 28.31 58.99 25.91 57.68 23.44 Z" />
<path fill="#ffffff" opacity="1.00" d=" M 40.39 37.46 C 42.70 34.93 45.11 32.35 48.10 30.61 C 52.10 31.43 54.73 34.80 57.49 37.51 C 62.32 42.67 68.28 47.07 71.21 53.71 C 68.04 56.75 65.31 60.35 61.57 62.73 C 56.73 63.58 53.70 58.75 50.57 55.93 C 43.90 62.65 36.26 68.67 31.15 76.76 C 28.90 74.62 26.74 72.39 24.61 70.14 C 32.88 65.36 38.73 57.58 45.56 51.07 C 42.96 48.16 39.40 45.59 38.62 41.54 C 38.06 39.90 39.49 38.63 40.39 37.46 Z" />
<path fill="#ffffff" opacity="1.00" d=" M 73.12 47.53 C 75.29 48.75 77.58 49.86 79.42 51.58 C 80.28 54.26 80.28 57.12 80.58 59.89 C 78.31 57.93 75.76 56.28 73.63 54.16 C 73.08 52.00 73.23 49.74 73.12 47.53 Z" />
<path fill="#ffffff" opacity="1.00" d=" M 67.34 63.34 C 69.52 60.82 72.28 58.90 74.89 56.85 C 77.60 60.28 81.25 63.83 80.23 68.63 C 75.15 69.56 70.06 70.40 64.94 71.04 C 65.59 68.45 65.78 65.59 67.34 63.34 Z" />
<path fill="#ffffff" opacity="1.00" d=" M 50.89 62.01 C 54.40 63.40 57.95 64.68 61.58 65.73 C 62.05 67.85 62.44 69.99 62.74 72.14 C 58.23 69.51 53.31 66.89 50.89 62.01 Z" />
</svg>
