<?xml version="1.0" encoding="UTF-8" ?>
<!DOCTYPE svg PUBLIC "-//W3C//DTD SVG 1.1//EN" "http://www.w3.org/Graphics/SVG/1.1/DTD/svg11.dtd">
<svg width="100pt" height="100pt" viewBox="0 0 100 100" version="1.1" xmlns="http://www.w3.org/2000/svg">
<path fill="#4cbf9b" opacity="1.00" d=" M 36.94 15.05 C 40.36 11.20 43.53 7.14 46.93 3.26 C 52.85 9.59 57.33 17.53 65.13 21.82 C 67.48 20.84 69.78 19.35 72.42 19.47 C 79.27 19.73 86.04 21.00 92.66 22.77 C 89.99 26.38 87.01 29.78 84.59 33.57 C 83.83 34.54 84.11 35.80 84.20 36.92 C 84.86 41.43 83.14 46.27 85.77 50.39 C 84.38 52.12 82.91 53.80 81.68 55.65 C 79.37 59.01 79.85 63.75 76.59 66.54 C 71.85 71.13 67.30 75.95 62.25 80.20 C 56.16 84.72 51.98 91.17 46.94 96.73 C 40.23 89.54 34.94 80.92 26.88 75.08 C 23.41 72.50 20.91 68.88 18.93 65.08 C 16.11 59.38 11.55 54.84 7.47 50.05 C 9.52 47.61 11.93 45.37 13.31 42.46 C 14.17 39.47 13.67 36.08 15.36 33.35 C 18.32 28.40 23.30 25.25 27.62 21.60 C 30.49 19.07 34.39 17.98 36.94 15.05 M 33.64 21.63 C 28.75 24.59 23.87 27.76 20.02 32.04 C 17.37 34.93 17.16 39.04 16.07 42.62 C 15.37 45.42 13.79 47.86 12.29 50.29 C 16.04 54.83 19.54 59.60 22.23 64.87 C 24.25 68.94 27.57 72.13 31.19 74.79 C 37.43 79.37 41.59 86.02 46.95 91.50 C 51.30 86.67 55.32 81.49 60.27 77.24 C 64.33 73.61 68.57 70.18 72.53 66.45 C 76.30 62.99 77.21 57.73 79.42 53.33 C 81.42 49.44 82.11 45.09 82.50 40.79 C 80.36 40.57 78.21 40.34 76.07 40.10 C 76.11 39.59 76.14 39.08 76.18 38.57 C 81.68 35.75 85.25 30.60 88.05 25.28 C 82.63 24.28 77.04 22.69 71.52 23.97 C 68.72 24.34 65.60 25.95 62.95 24.21 C 56.28 20.51 52.03 13.93 46.93 8.48 C 42.74 13.08 39.14 18.46 33.64 21.63 Z" />
<path fill="#c3bac0" opacity="1.00" d=" M 33.64 21.63 C 39.14 18.46 42.74 13.08 46.93 8.48 C 52.03 13.93 56.28 20.51 62.95 24.21 C 65.60 25.95 68.72 24.34 71.52 23.97 C 77.04 22.69 82.63 24.28 88.05 25.28 C 85.25 30.60 81.68 35.75 76.18 38.57 C 76.14 39.08 76.11 39.59 76.07 40.10 C 78.21 40.34 80.36 40.57 82.50 40.79 C 82.11 45.09 81.42 49.44 79.42 53.33 C 77.21 57.73 76.30 62.99 72.53 66.45 C 68.57 70.18 64.33 73.61 60.27 77.24 C 55.32 81.49 51.30 86.67 46.95 91.50 C 41.59 86.02 37.43 79.37 31.19 74.79 C 27.57 72.13 24.25 68.94 22.23 64.87 C 19.54 59.60 16.04 54.83 12.29 50.29 C 13.79 47.86 15.37 45.42 16.07 42.62 C 17.16 39.04 17.37 34.93 20.02 32.04 C 23.87 27.76 28.75 24.59 33.64 21.63 M 35.93 23.81 C 30.37 26.96 24.47 30.40 20.90 35.85 C 19.24 40.64 19.34 46.04 16.24 50.30 C 20.01 54.63 22.82 59.63 25.32 64.76 C 28.19 70.47 34.58 72.75 38.64 77.36 C 41.50 80.49 44.14 83.81 46.89 87.03 C 50.81 82.25 54.84 77.41 60.15 74.11 C 65.72 69.79 72.25 65.30 74.05 58.06 C 75.58 53.15 79.16 49.22 80.64 44.27 C 78.60 43.91 76.55 43.57 74.50 43.24 C 74.29 40.75 73.99 38.27 73.62 35.80 C 75.47 35.61 77.46 35.86 79.19 35.08 C 81.67 33.09 83.36 30.33 85.31 27.85 C 81.73 27.33 78.18 26.51 74.55 26.44 C 71.14 26.31 68.17 28.24 65.21 29.66 C 62.79 27.76 60.28 25.98 57.76 24.22 C 53.44 21.21 50.30 16.91 46.90 12.97 C 43.56 16.87 40.60 21.38 35.93 23.81 Z" />
<path fill="#2c8c19" opacity="1.00" d=" M 35.93 23.81 C 40.60 21.38 43.56 16.87 46.90 12.97 C 50.30 16.91 53.44 21.21 57.76 24.22 C 60.28 25.98 62.79 27.76 65.21 29.66 C 68.17 28.24 71.14 26.31 74.55 26.44 C 78.18 26.51 81.73 27.33 85.31 27.85 C 83.36 30.33 81.67 33.09 79.19 35.08 C 77.46 35.86 75.47 35.61 73.62 35.80 C 73.99 38.27 74.29 40.75 74.50 43.24 C 76.55 43.57 78.60 43.91 80.64 44.27 C 79.16 49.22 75.58 53.15 74.05 58.06 C 72.25 65.30 65.72 69.79 60.15 74.11 C 54.84 77.41 50.81 82.25 46.89 87.03 C 44.14 83.81 41.50 80.49 38.64 77.36 C 34.58 72.75 28.19 70.47 25.32 64.76 C 22.82 59.63 20.01 54.63 16.24 50.30 C 19.34 46.04 19.24 40.64 20.90 35.85 C 24.47 30.40 30.37 26.96 35.93 23.81 M 38.36 26.26 C 33.39 27.28 30.46 31.78 27.14 35.17 C 22.98 39.56 20.70 46.17 23.07 52.00 C 25.28 57.47 26.56 63.74 31.12 67.85 C 36.40 72.69 43.94 73.11 50.63 74.43 C 54.19 75.37 57.31 72.95 59.93 70.88 C 62.92 68.24 66.00 65.63 68.45 62.47 C 70.60 59.75 70.71 56.15 72.07 53.08 C 74.12 50.90 76.56 49.12 78.69 47.01 C 76.43 47.38 74.20 47.86 71.98 48.42 C 72.33 44.89 72.40 41.35 72.13 37.82 C 71.59 34.28 74.61 31.81 76.27 29.08 C 71.87 29.11 68.21 31.62 65.45 34.86 C 62.16 31.01 58.53 26.93 53.40 25.72 C 48.44 24.69 43.25 25.07 38.36 26.26 M 77.37 32.02 C 75.42 32.71 76.70 35.75 78.50 34.48 C 80.45 33.72 79.24 30.76 77.37 32.02 Z" />
<path fill="#ffffff" opacity="1.00" d=" M 38.36 26.26 C 43.25 25.07 48.44 24.69 53.40 25.72 C 58.53 26.93 62.16 31.01 65.45 34.86 C 68.21 31.62 71.87 29.11 76.27 29.08 C 74.61 31.81 71.59 34.28 72.13 37.82 C 72.40 41.35 72.33 44.89 71.98 48.42 C 74.20 47.86 76.43 47.38 78.69 47.01 C 76.56 49.12 74.12 50.90 72.07 53.08 C 70.71 56.15 70.60 59.75 68.45 62.47 C 66.00 65.63 62.92 68.24 59.93 70.88 C 57.31 72.95 54.19 75.37 50.63 74.43 C 43.94 73.11 36.40 72.69 31.12 67.85 C 26.56 63.74 25.28 57.47 23.07 52.00 C 20.70 46.17 22.98 39.56 27.14 35.17 C 30.46 31.78 33.39 27.28 38.36 26.26 M 41.41 27.65 C 36.80 27.98 33.21 31.00 30.28 34.29 C 25.81 38.39 22.22 44.49 23.99 50.73 C 25.75 56.28 26.94 62.51 31.35 66.66 C 36.48 71.43 43.94 71.47 50.45 72.61 C 54.60 73.48 57.98 70.34 60.99 68.00 C 63.78 65.42 67.65 63.18 68.17 59.06 C 69.00 54.28 70.18 49.36 69.36 44.50 C 67.57 39.01 63.68 34.35 59.30 30.67 C 54.32 26.55 47.44 26.77 41.41 27.65 Z" />
<path fill="#23870f" opacity="1.00" d=" M 41.41 27.65 C 47.44 26.77 54.32 26.55 59.30 30.67 C 63.68 34.35 67.57 39.01 69.36 44.50 C 70.18 49.36 69.00 54.28 68.17 59.06 C 67.65 63.18 63.78 65.42 60.99 68.00 C 57.98 70.34 54.60 73.48 50.45 72.61 C 43.94 71.47 36.48 71.43 31.35 66.66 C 26.94 62.51 25.75 56.28 23.99 50.73 C 22.22 44.49 25.81 38.39 30.28 34.29 C 33.21 31.00 36.80 27.98 41.41 27.65 M 42.37 30.55 C 37.32 31.14 33.86 35.22 30.84 38.90 C 28.11 42.27 26.62 46.90 28.01 51.14 C 29.85 56.85 31.81 63.46 37.53 66.44 C 41.99 68.64 47.03 69.50 51.96 69.73 C 56.08 69.00 59.11 65.68 62.01 62.91 C 65.53 59.61 65.44 54.39 66.02 49.95 C 66.75 43.55 62.64 37.88 58.24 33.71 C 54.04 29.70 47.76 29.59 42.37 30.55 Z" />
<path fill="#ffffff" opacity="1.00" d=" M 42.37 30.55 C 47.76 29.59 54.04 29.70 58.24 33.71 C 62.64 37.88 66.75 43.55 66.02 49.95 C 65.44 54.39 65.53 59.61 62.01 62.91 C 59.11 65.68 56.08 69.00 51.96 69.73 C 47.03 69.50 41.99 68.64 37.53 66.44 C 31.81 63.46 29.85 56.85 28.01 51.14 C 26.62 46.90 28.11 42.27 30.84 38.90 C 33.86 35.22 37.32 31.14 42.37 30.55 M 42.33 32.38 C 38.13 33.11 35.07 36.33 32.40 39.40 C 29.75 42.43 28.06 46.58 29.07 50.62 C 30.32 55.94 32.03 61.99 37.06 64.95 C 41.04 67.11 45.68 67.57 50.11 67.96 C 54.61 68.35 57.99 64.74 61.13 62.07 C 64.71 59.17 65.30 54.27 65.69 49.98 C 66.42 44.17 62.08 39.47 58.26 35.69 C 54.10 31.57 47.76 31.20 42.33 32.38 Z" />
<path fill="#2c8c19" opacity="1.00" d=" M 42.33 32.38 C 47.76 31.20 54.10 31.57 58.26 35.69 C 62.08 39.47 66.42 44.17 65.69 49.98 C 65.30 54.27 64.71 59.17 61.13 62.07 C 57.99 64.74 54.61 68.35 50.11 67.96 C 45.68 67.57 41.04 67.11 37.06 64.95 C 32.03 61.99 30.32 55.94 29.07 50.62 C 28.06 46.58 29.75 42.43 32.40 39.40 C 35.07 36.33 38.13 33.11 42.33 32.38 M 43.51 33.52 C 38.99 35.29 35.52 40.02 36.06 44.99 C 36.27 50.99 41.85 56.39 47.97 55.75 C 54.80 56.08 59.53 48.50 58.53 42.28 C 57.53 35.62 49.74 31.31 43.51 33.52 Z" />
<path fill="#ffffff" opacity="1.00" d=" M 77.37 32.02 C 79.24 30.76 80.45 33.72 78.50 34.48 C 76.70 35.75 75.42 32.71 77.37 32.02 Z" />
<path fill="#ffffff" opacity="1.00" d=" M 43.51 33.52 C 49.74 31.31 57.53 35.62 58.53 42.28 C 59.53 48.50 54.80 56.08 47.97 55.75 C 41.85 56.39 36.27 50.99 36.06 44.99 C 35.52 40.02 38.99 35.29 43.51 33.52 Z" />
</svg>
