<?xml version="1.0" encoding="UTF-8" ?>
<!DOCTYPE svg PUBLIC "-//W3C//DTD SVG 1.1//EN" "http://www.w3.org/Graphics/SVG/1.1/DTD/svg11.dtd">
<svg width="100pt" height="100pt" viewBox="0 0 100 100" version="1.1" xmlns="http://www.w3.org/2000/svg">
<path fill="#ffffff" opacity="1.00" d=" M 44.43 11.63 C 62.31 8.83 81.03 20.45 86.37 37.75 C 92.94 54.92 84.13 75.71 68.07 84.12 C 57.41 89.94 43.95 90.31 33.02 85.00 C 23.27 80.40 15.68 71.53 12.62 61.19 C 8.38 47.30 12.63 31.23 23.48 21.50 C 29.22 16.16 36.66 12.69 44.43 11.63 M 32.69 19.27 C 44.43 20.05 56.24 20.30 68.00 19.89 C 57.46 13.37 43.40 12.84 32.69 19.27 M 23.42 26.42 C 17.28 32.95 14.82 41.84 13.93 50.55 C 18.34 49.83 22.87 49.23 26.69 46.69 C 35.40 43.13 44.13 39.14 53.62 38.19 C 49.09 41.65 44.03 44.46 38.43 45.71 C 33.51 47.76 28.56 49.71 23.42 51.16 C 24.36 52.27 25.30 53.38 26.24 54.49 C 24.73 55.37 23.23 56.26 21.73 57.15 C 20.32 55.35 19.00 53.49 17.62 51.68 C 16.48 52.45 15.35 53.22 14.22 54.00 C 14.82 56.53 15.42 59.06 16.04 61.58 C 30.60 54.26 44.77 46.18 59.26 38.73 C 59.60 41.93 60.31 45.09 60.61 48.30 C 56.77 51.35 52.04 53.09 47.99 55.86 C 49.15 53.95 50.33 52.06 51.42 50.12 C 47.95 50.43 44.29 50.41 41.10 52.03 C 36.30 54.43 31.85 57.45 27.29 60.26 C 24.08 62.22 20.24 62.53 16.65 63.38 C 18.89 67.34 21.14 71.38 24.38 74.63 C 27.51 77.90 31.43 80.25 35.34 82.46 C 36.27 75.74 37.18 69.03 37.77 62.28 C 34.27 62.39 30.77 62.58 27.27 62.34 C 30.12 61.12 33.15 60.37 36.24 60.14 C 43.80 59.48 51.40 59.12 58.93 58.06 C 57.78 55.56 55.45 54.18 52.94 53.32 C 54.93 53.18 57.57 51.80 58.96 53.92 C 60.04 55.71 60.20 57.87 60.73 59.86 C 58.06 60.19 55.39 60.46 52.71 60.72 C 53.19 68.89 53.61 77.07 54.34 85.22 C 63.59 83.47 72.53 78.84 78.04 71.02 C 85.09 61.74 86.71 49.02 82.93 38.08 C 77.98 50.54 74.91 63.65 70.09 76.16 C 71.89 65.55 75.26 55.30 77.34 44.75 C 75.18 47.17 73.14 49.71 70.92 52.09 C 73.79 46.27 76.86 40.22 82.38 36.46 C 79.96 31.93 77.62 26.86 73.12 24.01 C 68.53 22.42 63.55 22.60 58.75 22.18 C 50.23 21.81 41.76 20.81 33.25 20.35 C 29.02 19.98 26.11 23.74 23.42 26.42 M 47.81 65.22 C 47.97 66.81 48.13 68.40 48.29 70.00 C 49.00 69.93 50.44 69.79 51.16 69.72 C 51.09 67.38 51.02 65.04 50.93 62.71 C 49.88 63.54 48.85 64.38 47.81 65.22 M 40.78 64.63 C 39.84 71.08 39.04 77.56 38.36 84.04 C 42.30 84.75 46.26 85.34 50.26 85.66 C 49.58 82.26 49.45 78.56 47.46 75.59 C 45.14 71.99 43.14 68.20 40.78 64.63 Z" />
<path fill="#40243e" opacity="1.00" d=" M 32.69 19.27 C 43.40 12.84 57.46 13.37 68.00 19.89 C 56.24 20.30 44.43 20.05 32.69 19.27 Z" />
<path fill="#482b46" opacity="1.00" d=" M 23.42 26.42 C 26.11 23.74 29.02 19.98 33.25 20.35 C 41.76 20.81 50.23 21.81 58.75 22.18 C 63.55 22.60 68.53 22.42 73.12 24.01 C 77.62 26.86 79.96 31.93 82.38 36.46 C 76.86 40.22 73.79 46.27 70.92 52.09 C 73.14 49.71 75.18 47.17 77.34 44.75 C 75.26 55.30 71.89 65.55 70.09 76.16 C 74.91 63.65 77.98 50.54 82.93 38.08 C 86.71 49.02 85.09 61.74 78.04 71.02 C 72.53 78.84 63.59 83.47 54.34 85.22 C 53.61 77.07 53.19 68.89 52.71 60.72 C 55.39 60.46 58.06 60.19 60.73 59.86 C 60.20 57.87 60.04 55.71 58.96 53.92 C 57.57 51.80 54.93 53.18 52.94 53.32 C 55.45 54.18 57.78 55.56 58.93 58.06 C 51.40 59.12 43.80 59.48 36.24 60.14 C 33.15 60.37 30.12 61.12 27.27 62.34 C 30.77 62.58 34.27 62.39 37.77 62.28 C 37.18 69.03 36.27 75.74 35.34 82.46 C 31.43 80.25 27.51 77.90 24.38 74.63 C 21.14 71.38 18.89 67.34 16.65 63.38 C 20.24 62.53 24.08 62.22 27.29 60.26 C 31.85 57.45 36.30 54.43 41.10 52.03 C 44.29 50.41 47.95 50.43 51.42 50.12 C 50.33 52.06 49.15 53.95 47.99 55.86 C 52.04 53.09 56.77 51.35 60.61 48.30 C 60.31 45.09 59.60 41.93 59.26 38.73 C 44.77 46.18 30.60 54.26 16.04 61.58 C 15.42 59.06 14.82 56.53 14.22 54.00 C 15.35 53.22 16.48 52.45 17.62 51.68 C 19.00 53.49 20.32 55.35 21.73 57.15 C 23.23 56.26 24.73 55.37 26.24 54.49 C 25.30 53.38 24.36 52.27 23.42 51.16 C 28.56 49.71 33.51 47.76 38.43 45.71 C 44.03 44.46 49.09 41.65 53.62 38.19 C 44.13 39.14 35.40 43.13 26.69 46.69 C 22.87 49.23 18.34 49.83 13.93 50.55 C 14.82 41.84 17.28 32.95 23.42 26.42 M 40.81 26.80 C 50.61 27.60 60.81 29.11 70.27 25.55 C 60.44 25.57 50.61 26.01 40.81 26.80 M 66.46 31.89 C 68.34 35.46 70.30 38.98 72.35 42.46 C 73.72 37.83 74.99 33.16 76.99 28.75 C 73.42 29.59 69.93 30.71 66.46 31.89 M 31.34 42.72 C 35.96 41.33 40.23 38.92 44.98 37.92 C 50.71 36.36 56.68 36.39 62.56 35.98 C 62.03 37.91 61.40 39.85 61.40 41.86 C 61.17 44.05 63.54 45.11 64.60 46.72 C 66.69 45.55 68.79 44.40 70.89 43.25 C 68.59 39.63 66.52 35.89 64.35 32.20 C 53.09 34.47 40.67 35.30 31.34 42.72 M 23.28 41.16 C 20.27 42.08 19.68 45.55 18.57 48.06 C 21.81 44.34 26.19 42.33 30.85 41.00 C 28.33 40.96 25.75 40.50 23.28 41.16 Z" />
<path fill="#ffffff" opacity="1.00" d=" M 40.81 26.80 C 50.61 26.01 60.44 25.57 70.27 25.55 C 60.81 29.11 50.61 27.60 40.81 26.80 Z" />
<path fill="#ffffff" opacity="1.00" d=" M 66.46 31.89 C 69.93 30.71 73.42 29.59 76.99 28.75 C 74.99 33.16 73.72 37.83 72.35 42.46 C 70.30 38.98 68.34 35.46 66.46 31.89 M 68.63 33.17 C 69.40 34.65 70.17 36.13 71.01 37.57 C 71.95 35.52 72.78 33.42 73.66 31.34 C 71.98 31.95 70.31 32.56 68.63 33.17 Z" />
<path fill="#351733" opacity="1.00" d=" M 68.63 33.17 C 70.31 32.56 71.98 31.95 73.66 31.34 C 72.78 33.42 71.95 35.52 71.01 37.57 C 70.17 36.13 69.40 34.65 68.63 33.17 Z" />
<path fill="#ffffff" opacity="1.00" d=" M 31.34 42.72 C 40.67 35.30 53.09 34.47 64.35 32.20 C 66.52 35.89 68.59 39.63 70.89 43.25 C 68.79 44.40 66.69 45.55 64.60 46.72 C 63.54 45.11 61.17 44.05 61.40 41.86 C 61.40 39.85 62.03 37.91 62.56 35.98 C 56.68 36.39 50.71 36.36 44.98 37.92 C 40.23 38.92 35.96 41.33 31.34 42.72 Z" />
<path fill="#ffffff" opacity="1.00" d=" M 23.28 41.16 C 25.75 40.50 28.33 40.96 30.85 41.00 C 26.19 42.33 21.81 44.34 18.57 48.06 C 19.68 45.55 20.27 42.08 23.28 41.16 Z" />
<path fill="#351733" opacity="1.00" d=" M 47.81 65.22 C 48.85 64.38 49.88 63.54 50.93 62.71 C 51.02 65.04 51.09 67.38 51.16 69.72 C 50.44 69.79 49.00 69.93 48.29 70.00 C 48.13 68.40 47.97 66.81 47.81 65.22 Z" />
<path fill="#482b46" opacity="1.00" d=" M 40.78 64.63 C 43.14 68.20 45.14 71.99 47.46 75.59 C 49.45 78.56 49.58 82.26 50.26 85.66 C 46.26 85.34 42.30 84.75 38.36 84.04 C 39.04 77.56 39.84 71.08 40.78 64.63 Z" />
</svg>
