<?xml version="1.0" encoding="UTF-8" ?>
<!DOCTYPE svg PUBLIC "-//W3C//DTD SVG 1.1//EN" "http://www.w3.org/Graphics/SVG/1.1/DTD/svg11.dtd">
<svg width="100pt" height="100pt" viewBox="0 0 100 100" version="1.1" xmlns="http://www.w3.org/2000/svg">
<path fill="#bebebc" opacity="1.00" d=" M 69.07 20.24 C 73.58 19.42 76.13 14.09 80.98 14.32 C 86.33 14.75 92.14 18.42 92.75 24.17 C 92.95 27.62 92.90 31.24 91.64 34.50 C 89.20 36.81 86.02 38.39 84.14 41.27 C 83.50 45.49 84.32 49.79 83.74 54.02 C 82.43 64.59 75.75 74.31 66.40 79.40 C 57.25 84.54 45.62 85.28 36.01 80.95 C 32.74 79.76 29.88 76.72 26.21 77.11 C 21.76 78.87 18.03 82.08 14.75 85.50 C 11.51 83.43 7.01 81.44 7.11 76.89 C 7.30 71.69 10.34 67.14 12.30 62.45 C 13.90 62.23 15.50 62.01 17.11 61.79 C 14.34 52.64 14.21 42.35 18.73 33.72 C 25.86 19.12 44.36 10.72 59.85 16.31 C 63.04 17.33 65.91 19.13 69.07 20.24 M 79.45 17.46 C 75.76 18.98 73.01 22.42 68.97 23.16 C 63.80 21.99 59.32 18.58 53.93 18.07 C 38.37 15.60 22.20 26.69 18.97 42.14 C 19.02 42.93 19.11 44.52 19.16 45.32 L 18.22 45.59 C 18.01 49.99 18.43 54.39 19.19 58.73 C 19.72 58.38 20.80 57.68 21.33 57.33 C 21.19 58.68 21.10 60.04 21.05 61.40 C 21.19 62.26 21.33 63.13 21.46 64.00 C 18.91 64.44 16.03 64.26 13.83 65.76 C 11.66 68.77 10.49 72.45 9.86 76.07 C 9.23 79.07 12.23 80.64 14.23 82.13 C 17.47 77.77 22.39 74.42 27.96 74.30 C 31.04 74.49 33.62 76.38 36.34 77.63 C 45.57 82.51 57.26 81.53 66.01 76.05 C 73.18 71.82 77.67 64.40 81.01 57.02 C 82.18 52.09 80.44 46.97 81.21 41.96 C 81.36 38.32 85.16 36.69 87.34 34.30 C 90.38 31.89 90.61 27.60 90.08 24.06 C 89.26 19.38 83.87 16.57 79.45 17.46 Z" />
<path fill="#2f4364" opacity="1.00" d=" M 79.45 17.46 C 83.87 16.57 89.26 19.38 90.08 24.06 C 90.61 27.60 90.38 31.89 87.34 34.30 C 85.16 36.69 81.36 38.32 81.21 41.96 C 80.44 46.97 82.18 52.09 81.01 57.02 C 77.67 64.40 73.18 71.82 66.01 76.05 C 57.26 81.53 45.57 82.51 36.34 77.63 C 33.62 76.38 31.04 74.49 27.96 74.30 C 22.39 74.42 17.47 77.77 14.23 82.13 C 12.23 80.64 9.23 79.07 9.86 76.07 C 10.49 72.45 11.66 68.77 13.83 65.76 C 16.03 64.26 18.91 64.44 21.46 64.00 C 21.33 63.13 21.19 62.26 21.05 61.40 C 25.11 58.70 28.91 55.62 32.44 52.27 C 28.62 53.65 24.75 55.08 21.33 57.33 C 20.80 57.68 19.72 58.38 19.19 58.73 C 18.43 54.39 18.01 49.99 18.22 45.59 L 19.16 45.32 C 24.92 43.93 30.44 41.34 34.54 36.95 C 29.24 38.33 24.13 40.33 18.97 42.14 C 22.20 26.69 38.37 15.60 53.93 18.07 C 59.32 18.58 63.80 21.99 68.97 23.16 C 73.01 22.42 75.76 18.98 79.45 17.46 M 79.38 20.32 C 76.73 21.61 75.00 24.11 73.18 26.34 C 74.66 27.30 76.15 28.25 77.60 29.26 C 68.03 29.72 58.53 28.00 48.97 28.00 C 44.42 27.58 39.78 27.58 35.47 29.34 C 35.38 29.98 35.18 31.25 35.09 31.89 C 37.36 32.00 39.64 32.06 41.92 32.16 C 41.63 33.42 41.33 34.67 41.04 35.93 C 43.41 34.00 45.46 30.63 48.94 31.18 C 55.52 31.64 61.91 33.50 68.44 34.34 C 69.40 35.56 70.29 36.85 71.43 37.93 C 73.36 38.34 75.35 37.95 77.30 37.89 C 74.78 38.58 72.26 39.22 69.76 39.95 C 69.94 40.29 70.30 40.99 70.48 41.33 C 67.92 39.75 65.85 37.52 64.01 35.16 C 60.93 38.01 57.78 40.79 54.84 43.79 C 58.03 41.74 61.04 39.43 64.30 37.48 C 64.04 38.92 63.83 40.37 63.69 41.83 C 61.93 42.30 60.62 43.66 59.22 44.73 C 56.78 45.53 54.34 46.34 51.90 47.13 C 51.75 45.92 51.60 44.71 51.45 43.50 C 48.87 44.44 46.07 45.14 43.92 46.93 C 42.41 48.52 41.56 50.59 40.50 52.48 C 38.79 56.15 35.05 58.48 33.89 62.47 C 31.89 62.48 29.77 62.14 27.89 63.01 C 25.00 64.20 22.70 66.76 19.48 67.13 C 17.98 67.62 15.83 67.26 15.03 68.94 C 13.49 71.80 12.69 75.05 12.74 78.30 C 17.29 74.40 22.83 72.05 28.12 69.36 C 27.86 70.17 27.60 70.98 27.34 71.80 C 30.52 71.82 33.69 71.87 36.87 71.94 C 36.28 71.07 35.69 70.21 35.10 69.34 C 38.15 68.97 41.68 69.36 44.08 67.07 C 48.41 63.43 52.49 59.50 56.49 55.50 C 49.32 55.92 42.13 57.28 35.75 60.72 C 38.89 58.05 41.50 54.87 43.12 51.05 C 44.24 48.17 47.14 46.87 49.78 45.73 C 49.44 48.72 48.99 51.70 48.66 54.69 C 53.61 54.33 58.27 52.51 61.77 48.91 C 60.86 50.59 59.93 52.25 59.04 53.93 C 61.34 54.43 63.65 54.90 65.97 55.35 C 63.54 57.36 61.12 59.52 59.86 62.48 C 57.96 62.59 56.06 62.66 54.16 62.74 C 54.54 66.14 54.47 69.56 54.87 72.96 C 58.19 67.72 62.86 63.29 68.32 60.34 C 72.72 58.65 77.52 57.84 81.41 54.98 C 79.40 50.87 75.31 48.73 71.01 47.80 C 74.11 49.82 77.50 51.64 79.56 54.85 C 77.25 55.93 74.96 55.70 73.17 53.83 C 69.90 53.68 66.62 53.46 63.37 53.05 C 63.41 51.62 63.46 50.20 63.49 48.78 C 65.99 48.49 68.44 47.86 70.82 47.01 C 71.31 46.20 71.80 45.38 72.29 44.57 C 72.09 44.21 71.69 43.50 71.49 43.14 C 72.67 45.21 76.47 48.63 78.06 45.25 C 78.73 42.89 78.59 40.41 78.72 37.99 C 79.88 37.04 81.05 36.09 82.21 35.14 C 81.62 34.96 80.43 34.60 79.84 34.43 C 81.84 33.58 83.98 32.97 85.78 31.73 C 87.12 30.04 87.41 27.78 87.53 25.69 C 87.76 21.67 82.85 19.23 79.38 20.32 M 19.62 49.59 C 19.45 50.70 19.29 51.82 19.16 52.95 C 23.14 51.34 27.21 49.92 31.03 47.96 C 33.89 46.58 35.57 43.76 37.36 41.28 C 31.80 44.76 25.75 47.30 19.62 49.59 Z" />
<path fill="#ffffff" opacity="1.00" d=" M 79.38 20.32 C 82.85 19.23 87.76 21.67 87.53 25.69 C 87.41 27.78 87.12 30.04 85.78 31.73 C 83.98 32.97 81.84 33.58 79.84 34.43 C 80.43 34.60 81.62 34.96 82.21 35.14 C 81.05 36.09 79.88 37.04 78.72 37.99 C 78.59 40.41 78.73 42.89 78.06 45.25 C 76.47 48.63 72.67 45.21 71.49 43.14 C 71.15 42.54 70.81 41.94 70.48 41.33 C 70.30 40.99 69.94 40.29 69.76 39.95 C 72.26 39.22 74.78 38.58 77.30 37.89 C 75.35 37.95 73.36 38.34 71.43 37.93 C 70.29 36.85 69.40 35.56 68.44 34.34 C 61.91 33.50 55.52 31.64 48.94 31.18 C 45.46 30.63 43.41 34.00 41.04 35.93 C 41.33 34.67 41.63 33.42 41.92 32.16 C 39.64 32.06 37.36 32.00 35.09 31.89 C 35.18 31.25 35.38 29.98 35.47 29.34 C 39.78 27.58 44.42 27.58 48.97 28.00 C 58.53 28.00 68.03 29.72 77.60 29.26 C 76.15 28.25 74.66 27.30 73.18 26.34 C 75.00 24.11 76.73 21.61 79.38 20.32 Z" />
<path fill="#bebebc" opacity="1.00" d=" M 54.84 43.79 C 57.78 40.79 60.93 38.01 64.01 35.16 C 65.85 37.52 67.92 39.75 70.48 41.33 C 70.81 41.94 71.15 42.54 71.49 43.14 C 71.69 43.50 72.09 44.21 72.29 44.57 C 71.80 45.38 71.31 46.20 70.82 47.01 C 69.09 44.51 66.91 42.10 63.69 41.83 C 63.83 40.37 64.04 38.92 64.30 37.48 C 61.04 39.43 58.03 41.74 54.84 43.79 Z" />
<path fill="#ffffff" opacity="1.00" d=" M 18.97 42.14 C 24.13 40.33 29.24 38.33 34.54 36.95 C 30.44 41.34 24.92 43.93 19.16 45.32 C 19.11 44.52 19.02 42.93 18.97 42.14 Z" />
<path fill="#ffffff" opacity="1.00" d=" M 19.62 49.59 C 25.75 47.30 31.80 44.76 37.36 41.28 C 35.57 43.76 33.89 46.58 31.03 47.96 C 27.21 49.92 23.14 51.34 19.16 52.95 C 19.29 51.82 19.45 50.70 19.62 49.59 Z" />
<path fill="#ffffff" opacity="1.00" d=" M 59.22 44.73 C 60.62 43.66 61.93 42.30 63.69 41.83 C 66.91 42.10 69.09 44.51 70.82 47.01 C 68.44 47.86 65.99 48.49 63.49 48.78 C 63.46 50.20 63.41 51.62 63.37 53.05 C 66.62 53.46 69.90 53.68 73.17 53.83 C 74.96 55.70 77.25 55.93 79.56 54.85 C 77.50 51.64 74.11 49.82 71.01 47.80 C 75.31 48.73 79.40 50.87 81.41 54.98 C 77.52 57.84 72.72 58.65 68.32 60.34 C 62.86 63.29 58.19 67.72 54.87 72.96 C 54.47 69.56 54.54 66.14 54.16 62.74 C 56.06 62.66 57.96 62.59 59.86 62.48 C 61.12 59.52 63.54 57.36 65.97 55.35 C 63.65 54.90 61.34 54.43 59.04 53.93 C 59.93 52.25 60.86 50.59 61.77 48.91 C 58.27 52.51 53.61 54.33 48.66 54.69 C 48.99 51.70 49.44 48.72 49.78 45.73 C 47.14 46.87 44.24 48.17 43.12 51.05 C 41.50 54.87 38.89 58.05 35.75 60.72 C 42.13 57.28 49.32 55.92 56.49 55.50 C 52.49 59.50 48.41 63.43 44.08 67.07 C 41.68 69.36 38.15 68.97 35.10 69.34 C 35.69 70.21 36.28 71.07 36.87 71.94 C 33.69 71.87 30.52 71.82 27.34 71.80 C 27.60 70.98 27.86 70.17 28.12 69.36 C 22.83 72.05 17.29 74.40 12.74 78.30 C 12.69 75.05 13.49 71.80 15.03 68.94 C 15.83 67.26 17.98 67.62 19.48 67.13 C 22.70 66.76 25.00 64.20 27.89 63.01 C 29.77 62.14 31.89 62.48 33.89 62.47 C 35.05 58.48 38.79 56.15 40.50 52.48 C 41.56 50.59 42.41 48.52 43.92 46.93 C 46.07 45.14 48.87 44.44 51.45 43.50 C 51.60 44.71 51.75 45.92 51.90 47.13 C 54.34 46.34 56.78 45.53 59.22 44.73 M 32.13 67.31 C 34.83 67.20 37.67 67.70 40.29 66.91 C 42.01 65.05 42.88 62.60 44.02 60.37 C 39.54 61.39 34.27 62.78 32.13 67.31 M 22.26 68.75 C 25.44 68.08 28.56 67.15 31.67 66.23 C 31.57 65.37 31.36 63.67 31.26 62.81 C 27.89 64.17 24.73 66.05 22.26 68.75 Z" />
<path fill="#ffffff" opacity="1.00" d=" M 21.33 57.33 C 24.75 55.08 28.62 53.65 32.44 52.27 C 28.91 55.62 25.11 58.70 21.05 61.40 C 21.10 60.04 21.19 58.68 21.33 57.33 Z" />
<path fill="#2a3e60" opacity="1.00" d=" M 32.13 67.31 C 34.27 62.78 39.54 61.39 44.02 60.37 C 42.88 62.60 42.01 65.05 40.29 66.91 C 37.67 67.70 34.83 67.20 32.13 67.31 Z" />
<path fill="#2e4263" opacity="1.00" d=" M 22.26 68.75 C 24.73 66.05 27.89 64.17 31.26 62.81 C 31.36 63.67 31.57 65.37 31.67 66.23 C 28.56 67.15 25.44 68.08 22.26 68.75 Z" />
</svg>
