<?xml version="1.0" encoding="UTF-8" ?>
<!DOCTYPE svg PUBLIC "-//W3C//DTD SVG 1.1//EN" "http://www.w3.org/Graphics/SVG/1.1/DTD/svg11.dtd">
<svg width="100pt" height="100pt" viewBox="0 0 100 100" version="1.1" xmlns="http://www.w3.org/2000/svg">
<path fill="#0c083e" opacity="0.85" d=" M 48.39 0.00 L 50.47 0.00 C 56.71 4.38 63.34 8.20 69.33 12.94 L 68.46 12.92 C 61.65 9.69 56.21 3.98 48.99 1.57 C 48.56 1.81 47.70 2.27 47.26 2.50 C 45.54 3.48 43.84 4.49 42.21 5.62 C 40.32 6.89 38.44 8.16 36.54 9.39 C 29.06 13.68 21.91 18.53 14.46 22.88 C 13.45 33.89 14.20 44.97 14.05 56.01 C 14.31 62.99 13.21 70.11 14.84 76.98 C 22.15 82.09 29.97 86.47 37.63 91.03 C 41.23 93.51 44.79 96.09 48.75 97.98 C 57.97 94.91 65.06 87.70 73.98 83.91 C 66.49 90.11 57.70 94.41 49.78 100.00 L 48.51 100.00 C 37.17 91.92 25.06 84.99 13.23 77.67 C 12.95 59.23 12.95 40.79 13.25 22.36 C 25.07 15.08 36.85 7.72 48.39 0.00 Z" />
<path fill="#bec4b3" opacity="0.89" d=" M 48.99 1.57 C 56.21 3.98 61.65 9.69 68.46 12.92 C 67.22 12.92 65.98 12.94 64.75 12.95 C 61.30 10.66 57.22 10.19 53.23 9.66 C 49.94 9.21 49.58 5.24 49.03 2.64 L 48.99 1.57 Z" />
<path fill="#3c4875" opacity="0.87" d=" M 47.26 2.50 C 47.70 2.27 48.56 1.81 48.99 1.57 L 49.03 2.64 C 49.07 5.05 48.97 7.46 48.85 9.87 C 47.00 10.92 45.17 11.97 43.33 13.03 C 44.82 9.59 46.24 6.11 47.26 2.50 Z" />
<path fill="#737a8d" opacity="0.87" d=" M 42.21 5.62 C 43.84 4.49 45.54 3.48 47.26 2.50 C 46.24 6.11 44.82 9.59 43.33 13.03 C 45.17 11.97 47.00 10.92 48.85 9.87 C 50.46 13.01 53.17 15.31 56.17 17.08 C 55.84 17.50 55.49 17.89 55.11 18.25 C 52.50 18.00 49.87 16.02 47.29 17.34 C 45.86 17.93 44.49 18.66 43.12 19.38 C 41.70 19.64 40.26 19.81 38.83 19.99 C 40.54 18.03 42.29 16.10 44.08 14.21 C 41.37 15.06 38.64 15.82 35.94 16.70 C 38.12 13.06 39.76 9.10 42.21 5.62 Z" />
<path fill="#919ea0" opacity="0.89" d=" M 49.03 2.64 C 49.58 5.24 49.94 9.21 53.23 9.66 C 57.22 10.19 61.30 10.66 64.75 12.95 C 64.15 14.72 63.54 16.50 62.92 18.27 C 58.16 15.59 53.85 12.14 48.85 9.87 C 48.97 7.46 49.07 5.05 49.03 2.64 Z" />
<path fill="#cdccb9" opacity="0.91" d=" M 36.54 9.39 C 38.44 8.16 40.32 6.89 42.21 5.62 C 39.76 9.10 38.12 13.06 35.94 16.70 C 30.98 18.68 26.36 21.39 21.75 24.06 C 21.41 23.22 21.08 22.37 20.74 21.53 C 26.18 17.81 33.68 15.87 36.54 9.39 Z" />
<path fill="#dcdcc8" opacity="0.94" d=" M 14.46 22.88 C 21.91 18.53 29.06 13.68 36.54 9.39 C 33.68 15.87 26.18 17.81 20.74 21.53 C 19.18 22.44 17.61 23.35 16.05 24.26 C 15.55 33.20 15.98 42.15 15.94 51.10 C 15.73 58.54 16.18 65.98 16.45 73.41 L 15.92 74.11 L 15.36 74.74 C 15.24 57.45 14.95 40.16 14.46 22.88 Z" />
<path fill="#cdccb9" opacity="0.91" d=" M 48.85 9.87 C 53.85 12.14 58.16 15.59 62.92 18.27 C 63.82 18.78 64.72 19.26 65.63 19.75 C 70.36 22.61 74.28 27.79 80.30 27.59 C 79.07 29.57 77.69 31.59 77.40 33.95 C 76.88 38.32 78.38 42.56 78.59 46.90 C 78.88 51.98 78.66 57.08 78.58 62.16 L 78.54 63.07 C 78.43 56.25 78.30 49.42 77.62 42.63 C 76.81 47.77 76.51 52.98 76.35 58.18 C 76.42 54.69 76.19 51.21 76.14 47.73 C 76.20 45.41 76.26 43.08 76.34 40.75 C 76.37 37.00 76.86 33.11 75.73 29.46 C 74.49 28.14 72.91 27.22 71.38 26.28 C 66.20 23.39 61.19 20.22 56.17 17.08 C 53.17 15.31 50.46 13.01 48.85 9.87 Z" />
<path fill="#6f78b1" opacity="0.82" d=" M 64.75 12.95 C 65.98 12.94 67.22 12.92 68.46 12.92 L 69.33 12.94 C 72.40 15.78 75.71 18.32 79.07 20.80 C 76.58 19.95 74.08 19.10 71.58 18.26 C 71.64 19.00 71.70 19.75 71.76 20.49 C 69.71 20.26 67.66 20.06 65.63 19.75 C 64.72 19.26 63.82 18.78 62.92 18.27 C 63.54 16.50 64.15 14.72 64.75 12.95 Z" />
<path fill="#393080" opacity="1.00" d=" M 69.33 12.94 C 74.57 16.34 80.84 18.50 85.06 23.25 C 85.76 26.44 85.50 29.75 85.51 32.99 C 85.36 46.02 85.47 59.05 85.51 72.07 C 85.30 74.06 85.77 76.56 84.05 78.02 C 81.15 80.68 77.42 82.11 73.98 83.91 C 76.46 81.90 78.80 79.73 81.32 77.77 C 82.30 77.43 83.28 77.11 84.27 76.80 C 84.28 73.06 84.12 69.33 83.85 65.60 C 83.74 63.36 83.55 61.13 83.38 58.90 C 83.04 54.11 82.75 49.32 82.55 44.52 C 83.28 37.90 83.53 31.23 84.05 24.58 C 82.42 24.74 80.80 24.89 79.18 25.04 C 79.14 23.63 79.11 22.21 79.07 20.80 C 75.71 18.32 72.40 15.78 69.33 12.94 Z" />
<path fill="#acbaae" opacity="0.90" d=" M 35.94 16.70 C 38.64 15.82 41.37 15.06 44.08 14.21 C 42.29 16.10 40.54 18.03 38.83 19.99 C 40.26 19.81 41.70 19.64 43.12 19.38 C 41.27 20.56 39.48 21.82 37.67 23.06 C 36.21 24.08 34.76 25.12 33.25 26.07 C 30.65 27.32 27.90 28.24 25.10 28.96 C 29.65 25.53 33.92 21.76 38.16 17.96 C 31.66 20.89 24.77 23.98 20.51 29.98 C 20.03 28.97 19.54 27.96 19.05 26.95 C 17.15 34.20 17.64 41.75 18.48 49.12 C 17.63 49.78 16.78 50.44 15.94 51.10 C 15.98 42.15 15.55 33.20 16.05 24.26 C 17.61 23.35 19.18 22.44 20.74 21.53 C 21.08 22.37 21.41 23.22 21.75 24.06 C 26.36 21.39 30.98 18.68 35.94 16.70 Z" />
<path fill="#565b73" opacity="0.87" d=" M 47.29 17.34 C 49.87 16.02 52.50 18.00 55.11 18.25 C 55.49 17.89 55.84 17.50 56.17 17.08 C 61.19 20.22 66.20 23.39 71.38 26.28 C 71.40 29.00 71.47 31.73 71.39 34.46 C 70.93 34.82 70.00 35.53 69.54 35.89 C 65.92 35.76 62.30 35.72 58.68 35.89 C 59.61 31.71 60.26 27.47 61.00 23.26 C 60.38 23.66 59.76 24.07 59.13 24.47 C 58.14 24.77 57.16 25.07 56.18 25.40 C 54.61 25.90 53.04 26.37 51.51 26.97 C 47.19 24.79 42.45 23.70 37.67 23.06 C 39.48 21.82 41.27 20.56 43.12 19.38 C 44.49 18.66 45.86 17.93 47.29 17.34 Z" />
<path fill="#ccdddf" opacity="1.00" d=" M 20.51 29.98 C 24.77 23.98 31.66 20.89 38.16 17.96 C 33.92 21.76 29.65 25.53 25.10 28.96 C 23.59 29.38 22.05 29.68 20.51 29.98 Z" />
<path fill="#374394" opacity="0.80" d=" M 71.58 18.26 C 74.08 19.10 76.58 19.95 79.07 20.80 C 79.11 22.21 79.14 23.63 79.18 25.04 C 80.80 24.89 82.42 24.74 84.05 24.58 C 83.53 31.23 83.28 37.90 82.55 44.52 C 80.32 49.30 79.90 54.58 80.11 59.78 C 81.20 59.48 82.29 59.19 83.38 58.90 C 83.55 61.13 83.74 63.36 83.85 65.60 C 83.52 67.53 83.11 69.43 82.80 71.36 C 82.06 68.03 80.45 64.99 78.58 62.16 C 78.66 57.08 78.88 51.98 78.59 46.90 C 78.38 42.56 76.88 38.32 77.40 33.95 C 77.69 31.59 79.07 29.57 80.30 27.59 C 74.28 27.79 70.36 22.61 65.63 19.75 C 67.66 20.06 69.71 20.26 71.76 20.49 C 71.70 19.75 71.64 19.00 71.58 18.26 Z" />
<path fill="#c4b495" opacity="1.00" d=" M 14.05 56.01 C 14.20 44.97 13.45 33.89 14.46 22.88 C 14.95 40.16 15.24 57.45 15.36 74.74 L 15.17 75.53 C 15.09 75.89 14.93 76.62 14.84 76.98 C 13.21 70.11 14.31 62.99 14.05 56.01 Z" />
<path fill="#5c6b67" opacity="0.82" d=" M 33.25 26.07 C 34.76 25.12 36.21 24.08 37.67 23.06 C 42.45 23.70 47.19 24.79 51.51 26.97 C 50.53 27.42 49.56 27.89 48.60 28.37 C 46.39 27.63 44.18 26.84 41.98 26.05 C 40.35 29.87 38.65 33.75 35.94 36.94 C 33.27 39.89 30.70 43.02 29.25 46.77 C 29.15 46.99 28.96 47.41 28.87 47.63 C 26.53 49.06 24.48 50.89 22.55 52.83 C 22.05 46.20 21.91 39.52 22.96 32.94 C 25.57 32.36 28.30 31.99 30.68 30.72 C 32.07 29.56 32.45 27.63 33.25 26.07 Z" />
<path fill="#cdccb9" opacity="0.91" d=" M 59.13 24.47 C 59.76 24.07 60.38 23.66 61.00 23.26 C 60.26 27.47 59.61 31.71 58.68 35.89 C 58.16 35.93 57.10 36.00 56.57 36.04 C 57.41 32.18 58.29 28.33 59.13 24.47 Z" />
<path fill="#0c083e" opacity="0.85" d=" M 56.18 25.40 C 57.16 25.07 58.14 24.77 59.13 24.47 C 58.29 28.33 57.41 32.18 56.57 36.04 C 57.10 36.00 58.16 35.93 58.68 35.89 C 62.30 35.72 65.92 35.76 69.54 35.89 C 66.30 38.22 63.65 41.31 62.44 45.16 L 62.19 45.51 C 58.47 46.18 56.57 49.70 54.39 52.40 C 50.88 56.93 47.59 61.69 45.49 67.06 C 46.23 67.02 47.70 66.94 48.43 66.90 C 51.68 66.69 54.93 66.30 58.09 65.51 C 54.19 67.66 49.77 68.43 45.37 68.62 C 44.41 70.50 43.44 72.38 42.56 74.31 C 42.92 72.33 43.17 70.35 43.44 68.36 C 40.92 66.68 38.17 65.15 36.27 62.71 C 34.47 60.17 34.17 56.94 33.73 53.94 C 35.02 49.31 37.24 44.89 40.91 41.68 C 43.04 40.99 45.14 40.20 47.20 39.33 C 43.36 39.48 39.36 39.36 35.71 40.77 C 33.11 42.21 31.25 44.63 29.25 46.77 C 30.70 43.02 33.27 39.89 35.94 36.94 C 37.50 36.84 39.06 36.74 40.63 36.60 C 44.11 37.37 47.70 37.21 51.23 36.91 C 49.82 35.73 48.38 34.58 46.96 33.42 C 49.47 30.17 52.82 27.71 56.18 25.40 M 48.81 32.76 C 50.49 33.80 52.19 34.83 53.89 35.86 C 54.93 33.10 55.93 30.32 56.84 27.51 C 54.04 29.06 51.36 30.83 48.81 32.76 M 55.00 38.91 C 56.95 39.72 58.89 40.61 60.97 41.04 C 62.37 40.24 63.51 39.09 64.69 38.01 C 61.44 37.95 58.18 38.20 55.00 38.91 M 40.01 46.02 C 35.70 49.92 34.69 57.04 38.20 61.78 C 39.62 64.02 42.11 65.16 44.37 66.36 L 43.83 65.77 C 47.59 58.83 49.23 51.02 51.38 43.49 C 51.61 42.68 51.84 41.87 52.07 41.06 C 47.77 41.79 43.18 42.77 40.01 46.02 M 54.05 41.10 C 52.33 45.80 50.68 50.54 49.76 55.47 C 53.21 51.55 56.10 47.18 59.27 43.03 C 57.54 42.38 55.79 41.74 54.05 41.10 Z" />
<path fill="#708080" opacity="0.84" d=" M 51.51 26.97 C 53.04 26.37 54.61 25.90 56.18 25.40 C 52.82 27.71 49.47 30.17 46.96 33.42 C 46.62 34.19 46.29 34.97 45.98 35.75 C 44.20 36.05 42.41 36.35 40.63 36.60 C 39.06 36.74 37.50 36.84 35.94 36.94 C 38.65 33.75 40.35 29.87 41.98 26.05 C 44.18 26.84 46.39 27.63 48.60 28.37 C 49.56 27.89 50.53 27.42 51.51 26.97 Z" />
<path fill="#587aa0" opacity="0.82" d=" M 25.10 28.96 C 27.90 28.24 30.65 27.32 33.25 26.07 C 32.45 27.63 32.07 29.56 30.68 30.72 C 28.30 31.99 25.57 32.36 22.96 32.94 C 21.91 39.52 22.05 46.20 22.55 52.83 C 24.48 50.89 26.53 49.06 28.87 47.63 C 28.68 48.84 28.51 50.05 28.36 51.27 C 30.35 48.96 32.15 46.47 34.34 44.34 C 36.09 42.61 38.69 42.43 40.91 41.68 C 37.24 44.89 35.02 49.31 33.73 53.94 C 31.55 58.56 29.56 65.60 23.39 65.70 C 22.96 65.76 22.11 65.88 21.68 65.94 C 21.61 58.89 20.80 51.87 19.57 44.94 C 19.18 46.33 18.80 47.72 18.48 49.12 C 17.64 41.75 17.15 34.20 19.05 26.95 C 19.54 27.96 20.03 28.97 20.51 29.98 C 22.05 29.68 23.59 29.38 25.10 28.96 Z" />
<path fill="#495791" opacity="0.87" d=" M 71.38 26.28 C 72.91 27.22 74.49 28.14 75.73 29.46 C 76.86 33.11 76.37 37.00 76.34 40.75 C 73.05 42.61 69.90 44.69 66.87 46.93 C 66.16 45.69 65.44 44.45 64.73 43.21 C 67.47 40.77 70.43 38.16 71.39 34.46 C 71.47 31.73 71.40 29.00 71.38 26.28 Z" />
<path fill="#949598" opacity="0.88" d=" M 48.81 32.76 C 51.36 30.83 54.04 29.06 56.84 27.51 C 55.93 30.32 54.93 33.10 53.89 35.86 C 52.19 34.83 50.49 33.80 48.81 32.76 Z" />
<path fill="#99aeb9" opacity="0.94" d=" M 45.98 35.75 C 46.29 34.97 46.62 34.19 46.96 33.42 C 48.38 34.58 49.82 35.73 51.23 36.91 C 47.70 37.21 44.11 37.37 40.63 36.60 C 42.41 36.35 44.20 36.05 45.98 35.75 Z" />
<path fill="#b6bbc5" opacity="0.96" d=" M 69.54 35.89 C 70.00 35.53 70.93 34.82 71.39 34.46 C 70.43 38.16 67.47 40.77 64.73 43.21 C 63.96 43.86 63.20 44.50 62.44 45.16 C 63.65 41.31 66.30 38.22 69.54 35.89 Z" />
<path fill="#9cabbe" opacity="0.96" d=" M 55.00 38.91 C 58.18 38.20 61.44 37.95 64.69 38.01 C 63.51 39.09 62.37 40.24 60.97 41.04 C 58.89 40.61 56.95 39.72 55.00 38.91 Z" />
<path fill="#cdccb9" opacity="0.91" d=" M 35.71 40.77 C 39.36 39.36 43.36 39.48 47.20 39.33 C 45.14 40.20 43.04 40.99 40.91 41.68 C 38.69 42.43 36.09 42.61 34.34 44.34 C 32.15 46.47 30.35 48.96 28.36 51.27 C 28.51 50.05 28.68 48.84 28.87 47.63 C 28.96 47.41 29.15 46.99 29.25 46.77 C 31.25 44.63 33.11 42.21 35.71 40.77 Z" />
<path fill="#abbcca" opacity="0.98" d=" M 40.01 46.02 C 43.18 42.77 47.77 41.79 52.07 41.06 C 51.84 41.87 51.61 42.68 51.38 43.49 C 48.29 44.05 44.99 44.48 42.44 46.47 C 38.85 49.20 36.92 54.23 38.38 58.58 C 39.57 61.39 41.88 63.49 43.83 65.77 L 44.37 66.36 C 42.11 65.16 39.62 64.02 38.20 61.78 C 34.69 57.04 35.70 49.92 40.01 46.02 Z" />
<path fill="#9196a7" opacity="0.96" d=" M 54.05 41.10 C 55.79 41.74 57.54 42.38 59.27 43.03 C 56.10 47.18 53.21 51.55 49.76 55.47 C 50.68 50.54 52.33 45.80 54.05 41.10 Z" />
<path fill="#4456ad" opacity="0.94" d=" M 66.87 46.93 C 69.90 44.69 73.05 42.61 76.34 40.75 C 76.26 43.08 76.20 45.41 76.14 47.73 C 75.26 53.33 74.16 59.32 69.99 63.49 C 66.53 58.65 67.11 52.56 66.87 46.93 Z" />
<path fill="#667ca6" opacity="0.95" d=" M 42.44 46.47 C 44.99 44.48 48.29 44.05 51.38 43.49 C 49.23 51.02 47.59 58.83 43.83 65.77 C 41.88 63.49 39.57 61.39 38.38 58.58 C 36.92 54.23 38.85 49.20 42.44 46.47 Z" />
<path fill="#5675ab" opacity="0.96" d=" M 62.44 45.16 C 63.20 44.50 63.96 43.86 64.73 43.21 C 65.44 44.45 66.16 45.69 66.87 46.93 C 67.11 52.56 66.53 58.65 69.99 63.49 C 69.57 63.93 68.73 64.82 68.31 65.26 C 67.74 65.81 67.14 66.35 66.53 66.87 C 64.71 68.37 62.86 69.85 61.04 71.36 C 59.57 70.95 58.11 70.52 56.65 70.10 C 57.04 69.65 57.82 68.76 58.22 68.31 C 59.69 66.70 61.06 65.01 62.44 63.34 C 60.99 64.07 59.56 64.83 58.09 65.51 C 54.93 66.30 51.68 66.69 48.43 66.90 C 50.55 58.39 57.45 52.53 62.19 45.51 L 62.44 45.16 Z" />
<path fill="#dde5d7" opacity="0.95" d=" M 76.35 58.18 C 76.51 52.98 76.81 47.77 77.62 42.63 C 78.30 49.42 78.43 56.25 78.54 63.07 C 78.46 65.07 78.31 67.08 78.16 69.08 C 77.33 69.61 76.50 70.14 75.67 70.67 C 75.82 67.74 75.95 64.81 76.18 61.88 C 76.27 60.65 76.32 59.42 76.35 58.18 Z" />
<path fill="#294165" opacity="0.66" d=" M 19.57 44.94 C 20.80 51.87 21.61 58.89 21.68 65.94 C 21.34 67.54 20.91 69.12 20.38 70.68 C 18.95 71.90 17.41 72.98 15.92 74.11 L 16.45 73.41 C 17.59 71.92 18.77 70.26 18.54 68.27 C 18.28 61.89 17.80 55.49 18.48 49.12 C 18.80 47.72 19.18 46.33 19.57 44.94 Z" />
<path fill="#adbdcf" opacity="1.00" d=" M 54.39 52.40 C 56.57 49.70 58.47 46.18 62.19 45.51 C 57.45 52.53 50.55 58.39 48.43 66.90 C 47.70 66.94 46.23 67.02 45.49 67.06 C 47.59 61.69 50.88 56.93 54.39 52.40 Z" />
<path fill="#0825d0" opacity="0.82" d=" M 80.11 59.78 C 79.90 54.58 80.32 49.30 82.55 44.52 C 82.75 49.32 83.04 54.11 83.38 58.90 C 82.29 59.19 81.20 59.48 80.11 59.78 Z" />
<path fill="#0b2990" opacity="0.87" d=" M 69.99 63.49 C 74.16 59.32 75.26 53.33 76.14 47.73 C 76.19 51.21 76.42 54.69 76.35 58.18 C 76.32 59.42 76.27 60.65 76.18 61.88 C 75.30 63.45 74.75 65.50 73.11 66.44 C 71.45 66.60 69.87 65.74 68.31 65.26 C 68.73 64.82 69.57 63.93 69.99 63.49 Z" />
<path fill="#5888a7" opacity="0.80" d=" M 15.94 51.10 C 16.78 50.44 17.63 49.78 18.48 49.12 C 17.80 55.49 18.28 61.89 18.54 68.27 C 18.77 70.26 17.59 71.92 16.45 73.41 C 16.18 65.98 15.73 58.54 15.94 51.10 Z" />
<path fill="#669eb6" opacity="0.93" d=" M 23.39 65.70 C 29.56 65.60 31.55 58.56 33.73 53.94 C 34.17 56.94 34.47 60.17 36.27 62.71 C 38.17 65.15 40.92 66.68 43.44 68.36 C 43.17 70.35 42.92 72.33 42.56 74.31 C 42.37 74.96 41.99 76.26 41.80 76.91 C 40.77 77.02 39.73 77.10 38.70 77.15 C 37.41 76.77 36.12 76.41 34.83 76.04 C 38.82 79.21 43.22 81.84 47.11 85.14 C 47.83 85.76 48.55 86.38 49.26 87.01 C 49.20 87.86 49.08 89.54 49.01 90.38 C 44.46 85.78 38.51 83.08 33.13 79.65 L 32.70 78.79 C 33.25 78.92 34.36 79.19 34.91 79.32 C 30.66 75.59 26.09 71.78 20.38 70.68 C 20.91 69.12 21.34 67.54 21.68 65.94 C 22.11 65.88 22.96 65.76 23.39 65.70 Z" />
<path fill="#344a84" opacity="0.87" d=" M 73.11 66.44 C 74.75 65.50 75.30 63.45 76.18 61.88 C 75.95 64.81 75.82 67.74 75.67 70.67 C 74.21 71.60 72.75 72.52 71.29 73.44 C 71.78 72.25 72.26 71.06 72.75 69.88 C 69.26 71.57 65.77 73.29 62.35 75.12 C 63.91 72.46 65.33 69.71 66.53 66.87 C 67.14 66.35 67.74 65.81 68.31 65.26 C 69.87 65.74 71.45 66.60 73.11 66.44 Z" />
<path fill="#aac1c6" opacity="0.98" d=" M 58.09 65.51 C 59.56 64.83 60.99 64.07 62.44 63.34 C 61.06 65.01 59.69 66.70 58.22 68.31 C 54.46 69.30 50.62 69.96 46.82 70.78 C 45.65 72.79 44.50 74.81 43.15 76.70 C 42.81 76.75 42.14 76.86 41.80 76.91 C 41.99 76.26 42.37 74.96 42.56 74.31 C 43.44 72.38 44.41 70.50 45.37 68.62 C 49.77 68.43 54.19 67.66 58.09 65.51 Z" />
<path fill="#545e93" opacity="0.69" d=" M 78.54 63.07 L 78.58 62.16 C 80.45 64.99 82.06 68.03 82.80 71.36 C 82.69 72.50 82.59 73.65 82.48 74.79 C 74.41 74.04 69.31 82.05 61.40 82.35 C 62.48 81.53 63.55 80.71 64.63 79.90 C 69.25 77.56 73.62 74.75 77.91 71.87 C 77.98 71.17 78.10 69.78 78.16 69.08 C 78.31 67.08 78.46 65.07 78.54 63.07 Z" />
<path fill="#7c83a7" opacity="0.93" d=" M 82.80 71.36 C 83.11 69.43 83.52 67.53 83.85 65.60 C 84.12 69.33 84.28 73.06 84.27 76.80 C 83.28 77.11 82.30 77.43 81.32 77.77 C 74.07 79.74 68.39 84.92 61.88 88.40 C 62.40 86.91 62.93 85.42 63.47 83.94 C 58.68 86.74 53.85 89.48 48.98 92.16 L 49.00 91.25 L 49.01 90.38 C 52.78 87.18 57.05 84.66 61.40 82.35 C 69.31 82.05 74.41 74.04 82.48 74.79 C 82.59 73.65 82.69 72.50 82.80 71.36 Z" />
<path fill="#7f8166" opacity="0.86" d=" M 66.53 66.87 C 65.33 69.71 63.91 72.46 62.35 75.12 C 65.77 73.29 69.26 71.57 72.75 69.88 C 72.26 71.06 71.78 72.25 71.29 73.44 C 68.36 75.28 65.56 77.30 62.70 79.25 C 58.10 81.62 53.74 84.43 49.26 87.01 C 48.55 86.38 47.83 85.76 47.11 85.14 C 48.46 84.67 49.82 84.22 51.16 83.71 C 53.94 79.21 56.74 74.60 61.04 71.36 C 62.86 69.85 64.71 68.37 66.53 66.87 Z" />
<path fill="#789d91" opacity="0.95" d=" M 46.82 70.78 C 50.62 69.96 54.46 69.30 58.22 68.31 C 57.82 68.76 57.04 69.65 56.65 70.10 C 58.11 70.52 59.57 70.95 61.04 71.36 C 56.74 74.60 53.94 79.21 51.16 83.71 C 46.80 81.93 42.78 79.47 38.70 77.15 C 39.73 77.10 40.77 77.02 41.80 76.91 C 42.14 76.86 42.81 76.75 43.15 76.70 C 44.50 74.81 45.65 72.79 46.82 70.78 Z" />
<path fill="#8c9ecf" opacity="1.00" d=" M 75.67 70.67 C 76.50 70.14 77.33 69.61 78.16 69.08 C 78.10 69.78 77.98 71.17 77.91 71.87 C 73.62 74.75 69.25 77.56 64.63 79.90 C 64.15 79.73 63.18 79.41 62.70 79.25 C 65.56 77.30 68.36 75.28 71.29 73.44 C 72.75 72.52 74.21 71.60 75.67 70.67 Z" />
<path fill="#a3c8c9" opacity="0.98" d=" M 20.38 70.68 C 26.09 71.78 30.66 75.59 34.91 79.32 C 34.36 79.19 33.25 78.92 32.70 78.79 C 28.85 76.79 25.05 74.69 21.35 72.43 C 21.11 71.99 20.62 71.11 20.38 70.68 Z" />
<path fill="#8ea197" opacity="0.81" d=" M 15.92 74.11 C 17.41 72.98 18.95 71.90 20.38 70.68 C 20.62 71.11 21.11 71.99 21.35 72.43 C 22.73 75.08 24.55 77.47 26.55 79.69 C 26.14 80.04 25.34 80.73 24.93 81.08 C 21.69 79.20 18.48 77.27 15.17 75.53 L 15.36 74.74 L 15.92 74.11 Z" />
<path fill="#627ba7" opacity="0.80" d=" M 21.35 72.43 C 25.05 74.69 28.85 76.79 32.70 78.79 L 33.13 79.65 C 35.40 86.58 43.12 88.46 49.00 91.25 L 48.98 92.16 C 48.96 93.50 48.93 94.83 48.90 96.17 C 45.78 94.24 42.69 92.26 39.51 90.44 C 34.96 86.85 29.98 83.89 24.93 81.08 C 25.34 80.73 26.14 80.04 26.55 79.69 C 24.55 77.47 22.73 75.08 21.35 72.43 Z" />
<path fill="#dee2d6" opacity="1.00" d=" M 15.17 75.53 C 18.48 77.27 21.69 79.20 24.93 81.08 C 29.98 83.89 34.96 86.85 39.51 90.44 C 39.04 90.59 38.10 90.88 37.63 91.03 C 29.97 86.47 22.15 82.09 14.84 76.98 C 14.93 76.62 15.09 75.89 15.17 75.53 Z" />
<path fill="#b3b9a3" opacity="0.93" d=" M 34.83 76.04 C 36.12 76.41 37.41 76.77 38.70 77.15 C 42.78 79.47 46.80 81.93 51.16 83.71 C 49.82 84.22 48.46 84.67 47.11 85.14 C 43.22 81.84 38.82 79.21 34.83 76.04 Z" />
<path fill="#c5cbd5" opacity="1.00" d=" M 61.88 88.40 C 68.39 84.92 74.07 79.74 81.32 77.77 C 78.80 79.73 76.46 81.90 73.98 83.91 C 65.06 87.70 57.97 94.91 48.75 97.98 C 52.41 93.90 57.22 91.17 61.88 88.40 Z" />
<path fill="#d1ded9" opacity="1.00" d=" M 49.26 87.01 C 53.74 84.43 58.10 81.62 62.70 79.25 C 63.18 79.41 64.15 79.73 64.63 79.90 C 63.55 80.71 62.48 81.53 61.40 82.35 C 57.05 84.66 52.78 87.18 49.01 90.38 C 49.08 89.54 49.20 87.86 49.26 87.01 Z" />
<path fill="#465780" opacity="0.89" d=" M 33.13 79.65 C 38.51 83.08 44.46 85.78 49.01 90.38 L 49.00 91.25 C 43.12 88.46 35.40 86.58 33.13 79.65 Z" />
<path fill="#b5b9a3" opacity="0.93" d=" M 48.98 92.16 C 53.85 89.48 58.68 86.74 63.47 83.94 C 62.93 85.42 62.40 86.91 61.88 88.40 C 57.22 91.17 52.41 93.90 48.75 97.98 C 44.79 96.09 41.23 93.51 37.63 91.03 C 38.10 90.88 39.04 90.59 39.51 90.44 C 42.69 92.26 45.78 94.24 48.90 96.17 C 48.93 94.83 48.96 93.50 48.98 92.16 Z" />
</svg>
