<?xml version="1.0" encoding="UTF-8" ?>
<!DOCTYPE svg PUBLIC "-//W3C//DTD SVG 1.1//EN" "http://www.w3.org/Graphics/SVG/1.1/DTD/svg11.dtd">
<svg width="100pt" height="100pt" viewBox="0 0 100 100" version="1.1" xmlns="http://www.w3.org/2000/svg">
<path fill="#08003d" opacity="0.91" d=" M 48.39 0.00 L 50.51 0.00 C 56.57 4.64 63.55 7.95 69.30 13.02 L 68.43 13.01 C 61.70 9.63 56.20 3.98 49.01 1.56 C 48.58 1.80 47.73 2.30 47.30 2.55 C 45.60 3.59 43.88 4.60 42.16 5.61 C 40.25 6.84 38.39 8.12 36.47 9.34 C 29.13 13.77 21.88 18.36 14.60 22.89 C 14.05 25.55 13.86 28.28 13.87 30.99 C 14.02 41.00 13.96 51.00 14.05 61.00 C 14.14 66.34 13.37 71.78 14.74 77.01 C 22.22 81.99 30.02 86.52 37.72 91.17 C 41.29 93.60 44.83 96.12 48.74 97.98 C 51.02 97.43 53.19 96.49 55.15 95.22 C 61.33 91.29 67.33 87.03 73.97 83.90 C 66.57 90.23 57.59 94.28 49.75 100.00 L 48.51 100.00 C 37.21 91.89 25.09 84.98 13.26 77.68 C 13.02 59.24 13.03 40.78 13.29 22.34 C 25.10 15.08 36.89 7.75 48.39 0.00 Z" />
<path fill="#bec4b3" opacity="0.89" d=" M 49.01 1.56 C 56.20 3.98 61.70 9.63 68.43 13.01 C 67.16 13.01 65.90 13.05 64.64 12.97 C 63.15 12.20 61.73 11.33 60.21 10.64 C 57.56 9.50 54.35 10.96 51.88 9.28 C 49.63 7.89 49.50 4.96 49.05 2.62 L 49.01 1.56 Z" />
<path fill="#3c4875" opacity="0.87" d=" M 47.30 2.55 C 47.73 2.30 48.58 1.80 49.01 1.56 L 49.05 2.62 C 49.09 5.07 49.00 7.53 48.89 9.98 C 47.01 10.99 45.13 11.99 43.25 13.00 C 44.95 9.66 46.22 6.13 47.30 2.55 Z" />
<path fill="#737a8d" opacity="0.87" d=" M 42.16 5.61 C 43.88 4.60 45.60 3.59 47.30 2.55 C 46.22 6.13 44.95 9.66 43.25 13.00 C 45.13 11.99 47.01 10.99 48.89 9.98 C 50.03 12.46 51.76 14.60 54.18 15.93 C 50.28 16.28 46.51 17.45 43.10 19.38 C 41.69 19.61 40.28 19.76 38.86 19.92 C 40.53 17.92 42.25 15.97 44.08 14.11 C 41.51 15.36 38.71 15.96 35.97 16.69 C 38.35 13.17 39.57 8.99 42.16 5.61 Z" />
<path fill="#919ea0" opacity="0.89" d=" M 49.05 2.62 C 49.50 4.96 49.63 7.89 51.88 9.28 C 54.35 10.96 57.56 9.50 60.21 10.64 C 61.73 11.33 63.15 12.20 64.64 12.97 C 64.04 14.74 63.52 16.54 63.06 18.35 C 58.06 16.04 53.80 12.45 48.89 9.98 C 49.00 7.53 49.09 5.07 49.05 2.62 Z" />
<path fill="#cdccb9" opacity="0.91" d=" M 36.47 9.34 C 38.39 8.12 40.25 6.84 42.16 5.61 C 39.57 8.99 38.35 13.17 35.97 16.69 C 30.82 18.37 26.48 21.70 21.66 24.08 C 21.37 23.22 21.09 22.36 20.80 21.50 C 25.49 18.64 30.52 16.26 34.77 12.73 C 35.88 11.94 36.04 10.53 36.47 9.34 Z" />
<path fill="#dcdcc8" opacity="0.94" d=" M 14.60 22.89 C 21.88 18.36 29.13 13.77 36.47 9.34 C 36.04 10.53 35.88 11.94 34.77 12.73 C 30.52 16.26 25.49 18.64 20.80 21.50 C 19.22 22.42 17.63 23.35 16.04 24.27 C 15.39 34.51 16.29 44.77 15.81 55.02 C 15.51 61.05 16.23 67.07 16.24 73.10 L 16.08 73.93 L 15.43 74.56 C 14.99 57.34 14.94 40.11 14.60 22.89 Z" />
<path fill="#8e97ce" opacity="1.00" d=" M 48.89 9.98 C 53.80 12.45 58.06 16.04 63.06 18.35 C 63.99 18.79 64.93 19.21 65.88 19.63 C 69.93 22.44 73.84 25.48 77.98 28.16 C 78.90 27.73 79.82 27.30 80.74 26.87 C 77.26 30.69 76.99 36.01 77.81 40.87 C 79.20 48.23 78.70 55.73 78.39 63.16 C 78.27 56.30 78.76 49.39 77.71 42.57 C 75.87 47.60 76.82 52.98 76.35 58.19 C 76.46 55.16 76.37 52.12 76.11 49.10 L 75.14 49.11 C 73.62 49.16 72.10 49.23 70.58 49.31 C 69.14 57.36 64.63 64.71 57.84 69.33 C 53.21 71.40 49.09 74.57 44.18 76.00 C 38.48 72.11 32.50 67.48 30.47 60.56 C 29.60 57.86 30.43 55.07 31.62 52.62 C 35.02 52.76 38.42 52.82 41.82 52.85 C 41.71 53.46 41.49 54.68 41.38 55.29 C 38.21 55.13 35.04 55.01 31.87 54.94 C 32.06 61.22 35.04 67.29 40.03 71.12 C 41.32 72.04 42.91 72.35 44.45 72.57 C 46.76 72.74 48.77 71.66 50.09 69.80 C 49.48 69.28 48.87 68.75 48.26 68.22 C 49.05 67.85 49.85 67.47 50.65 67.10 C 50.95 67.83 51.55 69.28 51.85 70.01 C 57.18 66.83 62.30 62.95 65.64 57.62 C 67.55 54.60 68.17 51.01 68.70 47.54 C 70.58 47.37 72.45 47.21 74.33 47.00 C 75.15 46.14 76.11 45.25 76.16 43.97 C 76.70 39.69 76.69 35.31 75.98 31.06 C 75.66 28.62 72.94 27.82 71.22 26.54 C 65.46 23.12 59.87 19.44 54.18 15.93 C 51.76 14.60 50.03 12.46 48.89 9.98 Z" />
<path fill="#6f78b1" opacity="0.82" d=" M 64.64 12.97 C 65.90 13.05 67.16 13.01 68.43 13.01 L 69.30 13.02 C 72.40 15.81 75.57 18.55 78.94 21.00 C 76.42 20.00 73.85 19.15 71.29 18.23 C 71.77 19.14 72.24 20.06 72.71 20.98 C 70.43 20.57 68.13 20.19 65.88 19.63 C 64.93 19.21 63.99 18.79 63.06 18.35 C 63.52 16.54 64.04 14.74 64.64 12.97 Z" />
<path fill="#393b91" opacity="1.00" d=" M 69.30 13.02 C 74.66 16.22 80.70 18.69 85.12 23.20 C 85.76 27.09 85.38 31.06 85.42 34.99 C 85.40 47.00 85.35 59.01 85.48 71.02 C 85.44 72.96 85.48 74.93 85.04 76.83 C 82.25 80.36 77.82 81.88 73.97 83.90 C 76.39 81.87 78.76 79.76 81.36 77.95 C 82.31 77.54 83.26 77.14 84.22 76.75 C 84.19 73.71 84.17 70.67 84.06 67.63 C 84.23 65.27 83.28 63.10 81.92 61.23 C 82.96 56.22 83.36 51.11 83.24 46.00 C 83.14 38.86 83.36 31.72 83.83 24.60 C 82.10 24.36 80.36 24.11 78.63 23.86 C 78.93 23.02 79.23 22.18 79.54 21.34 L 78.94 21.00 C 75.57 18.55 72.40 15.81 69.30 13.02 Z" />
<path fill="#acbaae" opacity="0.87" d=" M 35.97 16.69 C 38.71 15.96 41.51 15.36 44.08 14.11 C 42.25 15.97 40.53 17.92 38.86 19.92 C 40.28 19.76 41.69 19.61 43.10 19.38 C 40.30 21.11 37.58 22.98 34.80 24.74 C 31.80 26.61 28.60 28.19 25.16 29.04 C 29.50 25.34 34.09 21.92 38.20 17.96 C 31.78 20.93 24.53 23.85 20.55 30.03 C 20.14 28.95 19.73 27.87 19.32 26.79 C 16.24 33.86 18.71 41.56 17.95 48.93 C 15.57 56.84 17.78 65.11 16.24 73.10 C 16.23 67.07 15.51 61.05 15.81 55.02 C 16.29 44.77 15.39 34.51 16.04 24.27 C 17.63 23.35 19.22 22.42 20.80 21.50 C 21.09 22.36 21.37 23.22 21.66 24.08 C 26.48 21.70 30.82 18.37 35.97 16.69 Z" />
<path fill="#58646c" opacity="0.84" d=" M 43.10 19.38 C 46.51 17.45 50.28 16.28 54.18 15.93 C 59.87 19.44 65.46 23.12 71.22 26.54 C 70.07 29.06 68.96 31.59 67.89 34.15 C 64.71 29.00 60.81 23.93 54.87 21.84 C 56.89 26.47 59.51 31.24 64.13 33.70 C 64.29 35.65 64.48 37.60 64.70 39.54 C 63.80 39.31 62.90 39.09 62.02 38.82 C 60.35 37.16 58.97 35.24 57.44 33.46 C 55.73 29.23 52.44 25.78 48.56 23.45 C 45.44 26.02 42.57 28.93 39.12 31.08 C 36.75 32.57 34.50 34.28 32.59 36.35 C 32.08 36.87 31.57 37.40 31.08 37.93 C 32.33 37.96 33.59 37.96 34.85 37.95 C 35.61 37.94 37.12 37.93 37.88 37.92 C 31.13 41.82 26.44 48.12 22.87 54.90 C 21.93 47.62 22.06 40.25 23.07 32.99 C 25.95 32.62 29.31 32.83 31.53 30.63 C 33.05 28.94 33.85 26.77 34.80 24.74 C 37.58 22.98 40.30 21.11 43.10 19.38 Z" />
<path fill="#ccdddf" opacity="1.00" d=" M 20.55 30.03 C 24.53 23.85 31.78 20.93 38.20 17.96 C 34.09 21.92 29.50 25.34 25.16 29.04 C 23.64 29.46 22.10 29.74 20.55 30.03 Z" />
<path fill="#353e8a" opacity="0.80" d=" M 71.29 18.23 C 73.85 19.15 76.42 20.00 78.94 21.00 L 79.54 21.34 C 79.23 22.18 78.93 23.02 78.63 23.86 C 80.36 24.11 82.10 24.36 83.83 24.60 C 83.36 31.72 83.14 38.86 83.24 46.00 C 82.68 45.98 81.58 45.93 81.02 45.90 C 81.24 43.22 81.31 40.54 81.37 37.85 C 80.18 38.85 78.99 39.86 77.81 40.87 C 76.99 36.01 77.26 30.69 80.74 26.87 C 79.82 27.30 78.90 27.73 77.98 28.16 C 73.84 25.48 69.93 22.44 65.88 19.63 C 68.13 20.19 70.43 20.57 72.71 20.98 C 72.24 20.06 71.77 19.14 71.29 18.23 Z" />
<path fill="#acbaae" opacity="0.87" d=" M 54.87 21.84 C 60.81 23.93 64.71 29.00 67.89 34.15 C 70.28 37.50 71.18 41.56 71.65 45.58 C 71.15 45.32 70.16 44.79 69.66 44.53 C 69.14 41.16 69.10 37.28 66.31 34.86 C 65.76 34.57 64.67 33.99 64.13 33.70 C 59.51 31.24 56.89 26.47 54.87 21.84 M 58.63 25.64 C 59.94 28.51 61.76 31.32 64.93 32.33 C 63.44 29.60 61.28 27.30 58.63 25.64 Z" />
<path fill="#c4b495" opacity="1.00" d=" M 13.87 30.99 C 13.86 28.28 14.05 25.55 14.60 22.89 C 14.94 40.11 14.99 57.34 15.43 74.56 L 15.19 75.39 C 15.07 75.80 14.85 76.61 14.74 77.01 C 13.37 71.78 14.14 66.34 14.05 61.00 C 13.96 51.00 14.02 41.00 13.87 30.99 Z" />
<path fill="#cdccb9" opacity="0.91" d=" M 48.56 23.45 C 52.44 25.78 55.73 29.23 57.44 33.46 C 54.04 30.54 50.86 27.34 48.56 23.45 Z" />
<path fill="#0a0436" opacity="0.73" d=" M 39.12 31.08 C 42.57 28.93 45.44 26.02 48.56 23.45 C 50.86 27.34 54.04 30.54 57.44 33.46 C 58.97 35.24 60.35 37.16 62.02 38.82 C 60.66 38.41 59.32 37.97 57.95 37.60 C 55.33 36.66 52.52 36.63 49.98 37.84 C 49.34 38.02 48.07 38.38 47.44 38.55 C 47.91 39.30 48.86 40.78 49.33 41.53 C 48.97 41.67 48.26 41.97 47.90 42.12 C 46.89 41.41 45.87 40.71 44.85 40.02 C 41.80 41.73 38.81 43.56 35.92 45.54 C 36.61 45.68 37.98 45.95 38.66 46.08 C 39.11 46.15 40.00 46.28 40.44 46.35 L 41.41 46.50 C 38.99 46.92 36.56 47.33 34.15 47.83 C 33.80 48.30 33.11 49.25 32.76 49.72 C 32.53 50.03 32.08 50.66 31.85 50.97 C 33.28 51.03 34.70 51.08 36.13 51.11 C 34.59 51.52 33.09 52.04 31.62 52.62 C 30.43 55.07 29.60 57.86 30.47 60.56 C 32.50 67.48 38.48 72.11 44.18 76.00 C 43.82 76.07 43.11 76.19 42.75 76.26 C 39.78 74.70 37.10 72.64 34.42 70.63 C 31.48 67.29 28.88 63.53 27.71 59.18 C 27.36 53.69 28.32 47.53 32.84 43.85 C 39.17 38.78 47.22 35.87 55.33 35.71 C 55.79 35.73 56.71 35.77 57.18 35.79 C 54.13 32.58 51.05 29.41 48.05 26.16 C 43.76 30.72 38.63 34.49 32.59 36.35 C 34.50 34.28 36.75 32.57 39.12 31.08 Z" />
<path fill="#6c7e88" opacity="0.84" d=" M 25.16 29.04 C 28.60 28.19 31.80 26.61 34.80 24.74 C 33.85 26.77 33.05 28.94 31.53 30.63 C 29.31 32.83 25.95 32.62 23.07 32.99 C 22.06 40.25 21.93 47.62 22.87 54.90 C 26.44 48.12 31.13 41.82 37.88 37.92 C 37.12 37.93 35.61 37.94 34.85 37.95 C 39.88 35.71 44.33 32.39 48.38 28.70 C 50.75 30.98 53.01 33.37 55.33 35.71 C 47.22 35.87 39.17 38.78 32.84 43.85 C 28.32 47.53 27.36 53.69 27.71 59.18 C 27.29 57.82 26.92 56.44 26.54 55.07 C 25.33 58.51 23.87 61.86 22.06 65.04 C 21.58 58.35 20.96 51.67 19.78 45.07 C 19.15 46.35 18.52 47.63 17.95 48.93 C 18.71 41.56 16.24 33.86 19.32 26.79 C 19.73 27.87 20.14 28.95 20.55 30.03 C 22.10 29.74 23.64 29.46 25.16 29.04 Z" />
<path fill="#cdccb9" opacity="0.91" d=" M 32.59 36.35 C 38.63 34.49 43.76 30.72 48.05 26.16 C 51.05 29.41 54.13 32.58 57.18 35.79 C 56.71 35.77 55.79 35.73 55.33 35.71 C 53.01 33.37 50.75 30.98 48.38 28.70 C 44.33 32.39 39.88 35.71 34.85 37.95 C 33.59 37.96 32.33 37.96 31.08 37.93 C 31.57 37.40 32.08 36.87 32.59 36.35 Z" />
<path fill="#08003d" opacity="0.91" d=" M 58.63 25.64 C 61.28 27.30 63.44 29.60 64.93 32.33 C 61.76 31.32 59.94 28.51 58.63 25.64 Z" />
<path fill="#48528e" opacity="0.87" d=" M 71.22 26.54 C 72.94 27.82 75.66 28.62 75.98 31.06 C 76.69 35.31 76.70 39.69 76.16 43.97 C 76.11 45.25 75.15 46.14 74.33 47.00 C 73.44 46.53 72.54 46.05 71.65 45.58 C 71.18 41.56 70.28 37.50 67.89 34.15 C 68.96 31.59 70.07 29.06 71.22 26.54 Z" />
<path fill="#656b89" opacity="0.95" d=" M 64.13 33.70 C 64.67 33.99 65.76 34.57 66.31 34.86 C 66.98 38.45 67.21 42.10 67.25 45.75 C 62.09 45.89 56.93 45.96 51.77 45.93 L 52.07 45.22 C 52.54 44.98 53.46 44.52 53.92 44.28 C 55.00 42.90 56.01 41.45 57.29 40.23 C 59.82 39.98 62.35 40.44 64.85 40.79 C 64.81 40.48 64.74 39.85 64.70 39.54 C 64.48 37.60 64.29 35.65 64.13 33.70 Z" />
<path fill="#08003d" opacity="0.91" d=" M 66.31 34.86 C 69.10 37.28 69.14 41.16 69.66 44.53 C 70.16 44.79 71.15 45.32 71.65 45.58 C 72.54 46.05 73.44 46.53 74.33 47.00 C 72.45 47.21 70.58 47.37 68.70 47.54 C 68.17 51.01 67.55 54.60 65.64 57.62 C 62.30 62.95 57.18 66.83 51.85 70.01 C 51.55 69.28 50.95 67.83 50.65 67.10 C 49.43 64.17 48.02 61.32 46.45 58.57 C 45.67 57.20 44.88 55.84 44.08 54.49 C 42.84 56.35 41.58 58.20 40.41 60.11 C 40.79 58.52 41.08 56.90 41.38 55.29 C 41.49 54.68 41.71 53.46 41.82 52.85 C 38.42 52.82 35.02 52.76 31.62 52.62 C 33.09 52.04 34.59 51.52 36.13 51.11 C 38.79 51.00 41.58 51.00 44.00 49.72 C 44.33 49.33 45.00 48.55 45.33 48.16 C 45.52 47.94 45.90 47.51 46.09 47.29 C 44.54 46.99 42.98 46.70 41.41 46.50 L 40.44 46.35 C 43.99 46.12 47.53 45.76 51.09 45.73 C 50.87 45.47 50.43 44.96 50.21 44.70 C 49.45 43.82 48.69 42.96 47.90 42.12 C 48.26 41.97 48.97 41.67 49.33 41.53 C 50.38 40.34 51.37 39.10 52.37 37.86 C 51.77 37.86 50.58 37.85 49.98 37.84 C 52.52 36.63 55.33 36.66 57.95 37.60 C 54.38 38.54 53.03 42.04 52.07 45.22 L 51.77 45.93 C 56.93 45.96 62.09 45.89 67.25 45.75 C 67.21 42.10 66.98 38.45 66.31 34.86 M 48.21 47.19 L 47.99 47.78 C 47.36 48.99 46.66 50.17 45.92 51.32 C 46.40 51.15 47.36 50.81 47.84 50.64 C 47.59 51.18 47.08 52.24 46.83 52.78 C 46.44 52.89 45.68 53.11 45.29 53.22 C 47.38 57.01 49.25 60.91 51.22 64.76 C 51.74 66.09 52.83 66.94 54.24 67.17 L 53.82 66.34 C 60.41 61.93 66.14 55.51 66.99 47.31 C 60.73 47.29 54.47 47.34 48.21 47.19 Z" />
<path fill="#b9c9ce" opacity="0.96" d=" M 47.44 38.55 C 48.07 38.38 49.34 38.02 49.98 37.84 C 50.58 37.85 51.77 37.86 52.37 37.86 C 51.37 39.10 50.38 40.34 49.33 41.53 C 48.86 40.78 47.91 39.30 47.44 38.55 Z" />
<path fill="#cdccb9" opacity="0.91" d=" M 52.07 45.22 C 53.03 42.04 54.38 38.54 57.95 37.60 C 59.32 37.97 60.66 38.41 62.02 38.82 C 62.90 39.09 63.80 39.31 64.70 39.54 C 64.74 39.85 64.81 40.48 64.85 40.79 C 62.35 40.44 59.82 39.98 57.29 40.23 C 56.01 41.45 55.00 42.90 53.92 44.28 C 53.46 44.52 52.54 44.98 52.07 45.22 Z" />
<path fill="#4e58a0" opacity="0.80" d=" M 77.81 40.87 C 78.99 39.86 80.18 38.85 81.37 37.85 C 81.31 40.54 81.24 43.22 81.02 45.90 C 80.94 50.95 78.52 56.80 81.92 61.23 C 83.28 63.10 84.23 65.27 84.06 67.63 C 83.59 70.13 82.97 72.59 82.36 75.05 C 74.28 73.17 69.29 82.09 61.49 82.30 C 62.49 81.51 63.50 80.73 64.51 79.94 C 68.37 77.65 72.48 75.76 76.11 73.11 C 77.51 72.26 77.75 70.54 78.20 69.11 C 78.31 67.13 78.35 65.14 78.39 63.16 C 78.70 55.73 79.20 48.23 77.81 40.87 Z" />
<path fill="#b1bec7" opacity="0.95" d=" M 35.92 45.54 C 38.81 43.56 41.80 41.73 44.85 40.02 C 45.87 40.71 46.89 41.41 47.90 42.12 C 48.69 42.96 49.45 43.82 50.21 44.70 C 48.35 44.06 46.55 43.27 44.80 42.39 C 42.71 43.55 40.68 44.80 38.66 46.08 C 37.98 45.95 36.61 45.68 35.92 45.54 Z" />
<path fill="#76859a" opacity="0.92" d=" M 38.66 46.08 C 40.68 44.80 42.71 43.55 44.80 42.39 C 46.55 43.27 48.35 44.06 50.21 44.70 C 50.43 44.96 50.87 45.47 51.09 45.73 C 47.53 45.76 43.99 46.12 40.44 46.35 C 40.00 46.28 39.11 46.15 38.66 46.08 Z" />
<path fill="#dce4d6" opacity="0.95" d=" M 76.35 58.19 C 76.82 52.98 75.87 47.60 77.71 42.57 C 78.76 49.39 78.27 56.30 78.39 63.16 C 78.35 65.14 78.31 67.13 78.20 69.11 C 77.40 69.66 76.60 70.21 75.81 70.77 C 75.82 67.76 75.83 64.74 76.03 61.74 C 76.16 60.56 76.27 59.37 76.35 58.19 Z" />
<path fill="#325467" opacity="0.76" d=" M 17.95 48.93 C 18.52 47.63 19.15 46.35 19.78 45.07 C 20.96 51.67 21.58 58.35 22.06 65.04 C 21.19 67.09 20.68 69.27 20.16 71.43 C 18.75 72.19 17.38 73.00 16.08 73.93 L 16.24 73.10 C 17.78 65.11 15.57 56.84 17.95 48.93 Z" />
<path fill="#0825d0" opacity="0.82" d=" M 81.02 45.90 C 81.58 45.93 82.68 45.98 83.24 46.00 C 83.36 51.11 82.96 56.22 81.92 61.23 C 78.52 56.80 80.94 50.95 81.02 45.90 Z" />
<path fill="#5d6e9d" opacity="0.97" d=" M 34.15 47.83 C 36.56 47.33 38.99 46.92 41.41 46.50 C 42.98 46.70 44.54 46.99 46.09 47.29 C 45.90 47.51 45.52 47.94 45.33 48.16 C 41.61 47.98 37.88 47.70 34.15 47.83 Z" />
<path fill="#586fac" opacity="0.96" d=" M 48.21 47.19 C 54.47 47.34 60.73 47.29 66.99 47.31 C 66.14 55.51 60.41 61.93 53.82 66.34 C 51.82 62.48 49.85 58.60 48.07 54.63 C 49.72 54.04 51.37 53.46 53.02 52.87 C 52.70 52.49 52.06 51.74 51.74 51.36 C 50.10 51.84 48.46 52.31 46.83 52.78 C 47.08 52.24 47.59 51.18 47.84 50.64 C 53.76 48.03 60.34 49.56 66.56 48.58 C 60.49 46.91 54.19 47.81 47.99 47.78 L 48.21 47.19 Z" />
<path fill="#ccd9da" opacity="0.95" d=" M 34.15 47.83 C 37.88 47.70 41.61 47.98 45.33 48.16 C 45.00 48.55 44.33 49.33 44.00 49.72 C 40.27 49.27 36.48 49.07 32.76 49.72 C 33.11 49.25 33.80 48.30 34.15 47.83 Z" />
<path fill="#c7d1da" opacity="0.98" d=" M 47.99 47.78 C 54.19 47.81 60.49 46.91 66.56 48.58 C 60.34 49.56 53.76 48.03 47.84 50.64 C 47.36 50.81 46.40 51.15 45.92 51.32 C 46.66 50.17 47.36 48.99 47.99 47.78 Z" />
<path fill="#6f85a0" opacity="0.95" d=" M 32.76 49.72 C 36.48 49.07 40.27 49.27 44.00 49.72 C 41.58 51.00 38.79 51.00 36.13 51.11 C 34.70 51.08 33.28 51.03 31.85 50.97 C 32.08 50.66 32.53 50.03 32.76 49.72 Z" />
<path fill="#4159b4" opacity="0.93" d=" M 70.58 49.31 C 72.10 49.23 73.62 49.16 75.14 49.11 C 75.49 55.18 73.39 61.38 68.38 65.10 C 66.64 66.36 64.83 67.59 63.46 69.28 C 61.58 69.28 59.71 69.25 57.84 69.33 C 64.63 64.71 69.14 57.36 70.58 49.31 Z" />
<path fill="#0b298d" opacity="0.87" d=" M 75.14 49.11 L 76.11 49.10 C 76.37 52.12 76.46 55.16 76.35 58.19 C 76.27 59.37 76.16 60.56 76.03 61.74 C 75.56 63.46 75.01 65.16 74.49 66.87 C 72.34 66.73 70.25 66.19 68.38 65.10 C 73.39 61.38 75.49 55.18 75.14 49.11 Z" />
<path fill="#abc0d5" opacity="1.00" d=" M 46.83 52.78 C 48.46 52.31 50.10 51.84 51.74 51.36 C 52.06 51.74 52.70 52.49 53.02 52.87 C 51.37 53.46 49.72 54.04 48.07 54.63 C 49.85 58.60 51.82 62.48 53.82 66.34 L 54.24 67.17 C 52.83 66.94 51.74 66.09 51.22 64.76 C 49.25 60.91 47.38 57.01 45.29 53.22 C 45.68 53.11 46.44 52.89 46.83 52.78 Z" />
<path fill="#5e99b6" opacity="0.87" d=" M 26.54 55.07 C 26.92 56.44 27.29 57.82 27.71 59.18 C 28.88 63.53 31.48 67.29 34.42 70.63 C 35.12 72.63 36.24 74.43 37.71 75.94 C 35.79 75.19 33.83 74.52 31.87 73.88 C 36.41 78.40 42.20 81.28 47.10 85.35 C 47.75 85.88 48.41 86.40 49.06 86.93 C 49.05 87.79 49.04 89.51 49.04 90.37 C 44.29 85.98 38.79 82.42 32.72 80.16 C 32.22 79.33 31.73 78.50 31.23 77.68 C 31.74 77.79 32.76 78.01 33.27 78.12 C 30.01 75.26 26.38 72.89 22.79 70.47 C 22.13 70.71 20.82 71.19 20.16 71.43 C 20.68 69.27 21.19 67.09 22.06 65.04 C 23.87 61.86 25.33 58.51 26.54 55.07 Z" />
<path fill="#6188b0" opacity="0.96" d=" M 31.87 54.94 C 35.04 55.01 38.21 55.13 41.38 55.29 C 41.08 56.90 40.79 58.52 40.41 60.11 C 40.03 61.06 39.66 62.01 39.29 62.96 C 39.66 63.17 40.40 63.60 40.76 63.82 C 41.92 61.97 43.07 60.12 44.21 58.26 C 44.77 58.34 45.89 58.49 46.45 58.57 C 48.02 61.32 49.43 64.17 50.65 67.10 C 49.85 67.47 49.05 67.85 48.26 68.22 C 48.87 68.75 49.48 69.28 50.09 69.80 C 48.06 70.38 46.15 71.30 44.45 72.57 C 42.91 72.35 41.32 72.04 40.03 71.12 C 35.04 67.29 32.06 61.22 31.87 54.94 Z" />
<path fill="#a9bed5" opacity="1.00" d=" M 40.41 60.11 C 41.58 58.20 42.84 56.35 44.08 54.49 C 44.88 55.84 45.67 57.20 46.45 58.57 C 45.89 58.49 44.77 58.34 44.21 58.26 C 43.07 60.12 41.92 61.97 40.76 63.82 C 40.40 63.60 39.66 63.17 39.29 62.96 C 39.66 62.01 40.03 61.06 40.41 60.11 Z" />
<path fill="#385781" opacity="0.87" d=" M 74.49 66.87 C 75.01 65.16 75.56 63.46 76.03 61.74 C 75.83 64.74 75.82 67.76 75.81 70.77 C 74.52 71.66 73.23 72.54 71.91 73.38 C 71.75 72.48 71.59 71.58 71.43 70.68 C 66.66 73.12 61.91 75.60 57.14 78.02 C 59.67 75.43 61.63 72.38 63.46 69.28 C 64.83 67.59 66.64 66.36 68.38 65.10 C 70.25 66.19 72.34 66.73 74.49 66.87 Z" />
<path fill="#7c83a8" opacity="0.93" d=" M 82.36 75.05 C 82.97 72.59 83.59 70.13 84.06 67.63 C 84.17 70.67 84.19 73.71 84.22 76.75 C 83.26 77.14 82.31 77.54 81.36 77.95 C 79.15 78.19 76.96 78.76 75.15 80.11 C 70.83 83.08 66.29 85.72 61.79 88.40 C 62.37 86.92 62.93 85.42 63.49 83.93 C 58.70 86.76 53.85 89.48 48.97 92.15 L 49.00 91.25 L 49.04 90.37 C 52.83 87.17 57.11 84.61 61.49 82.30 C 69.29 82.09 74.28 73.17 82.36 75.05 Z" />
<path fill="#759789" opacity="0.92" d=" M 44.18 76.00 C 49.09 74.57 53.21 71.40 57.84 69.33 C 59.71 69.25 61.58 69.28 63.46 69.28 C 61.63 72.38 59.67 75.43 57.14 78.02 C 61.91 75.60 66.66 73.12 71.43 70.68 C 71.59 71.58 71.75 72.48 71.91 73.38 C 70.03 74.50 68.04 75.43 66.07 76.38 C 60.25 78.16 55.64 82.27 50.16 84.74 C 47.75 82.59 45.32 80.46 42.67 78.61 C 45.76 79.49 49.76 81.37 52.18 78.18 C 51.71 77.36 51.21 76.55 50.70 75.76 C 48.24 77.47 45.33 78.10 42.75 76.26 C 43.11 76.19 43.82 76.07 44.18 76.00 Z" />
<path fill="#8c9ed0" opacity="1.00" d=" M 75.81 70.77 C 76.60 70.21 77.40 69.66 78.20 69.11 C 77.75 70.54 77.51 72.26 76.11 73.11 C 72.48 75.76 68.37 77.65 64.51 79.94 C 64.03 79.66 63.09 79.11 62.61 78.83 C 63.77 78.02 64.90 77.17 66.07 76.38 C 68.04 75.43 70.03 74.50 71.91 73.38 C 73.23 72.54 74.52 71.66 75.81 70.77 Z" />
<path fill="#a7c9c6" opacity="0.98" d=" M 20.16 71.43 C 20.82 71.19 22.13 70.71 22.79 70.47 C 26.38 72.89 30.01 75.26 33.27 78.12 C 32.76 78.01 31.74 77.79 31.23 77.68 C 27.91 75.95 24.51 74.37 21.16 72.71 C 20.91 72.39 20.41 71.75 20.16 71.43 Z" />
<path fill="#101343" opacity="0.94" d=" M 44.45 72.57 C 46.15 71.30 48.06 70.38 50.09 69.80 C 48.77 71.66 46.76 72.74 44.45 72.57 Z" />
<path fill="#8ea29a" opacity="0.82" d=" M 16.08 73.93 C 17.38 73.00 18.75 72.19 20.16 71.43 C 20.41 71.75 20.91 72.39 21.16 72.71 C 22.99 76.05 27.08 78.21 27.22 82.32 C 23.10 80.19 19.22 77.66 15.19 75.39 L 15.43 74.56 L 16.08 73.93 Z" />
<path fill="#83ab9e" opacity="0.95" d=" M 37.71 75.94 C 36.24 74.43 35.12 72.63 34.42 70.63 C 37.10 72.64 39.78 74.70 42.75 76.26 C 45.33 78.10 48.24 77.47 50.70 75.76 C 51.21 76.55 51.71 77.36 52.18 78.18 C 49.76 81.37 45.76 79.49 42.67 78.61 C 45.32 80.46 47.75 82.59 50.16 84.74 C 49.39 84.89 47.87 85.20 47.10 85.35 C 42.20 81.28 36.41 78.40 31.87 73.88 C 33.83 74.52 35.79 75.19 37.71 75.94 Z" />
<path fill="#627baa" opacity="0.81" d=" M 21.16 72.71 C 24.51 74.37 27.91 75.95 31.23 77.68 C 31.73 78.50 32.22 79.33 32.72 80.16 C 35.92 86.39 43.03 88.59 49.00 91.25 L 48.97 92.15 C 48.94 93.50 48.93 94.86 48.93 96.22 C 45.77 94.25 42.62 92.26 39.46 90.28 C 35.53 87.39 31.48 84.69 27.22 82.32 C 27.08 78.21 22.99 76.05 21.16 72.71 Z" />
<path fill="#dfe2d6" opacity="1.00" d=" M 15.19 75.39 C 19.22 77.66 23.10 80.19 27.22 82.32 C 31.48 84.69 35.53 87.39 39.46 90.28 C 39.02 90.50 38.16 90.95 37.72 91.17 C 30.02 86.52 22.22 81.99 14.74 77.01 C 14.85 76.61 15.07 75.80 15.19 75.39 Z" />
<path fill="#0a0436" opacity="0.73" d=" M 50.16 84.74 C 55.64 82.27 60.25 78.16 66.07 76.38 C 64.90 77.17 63.77 78.02 62.61 78.83 C 58.02 81.41 53.58 84.23 49.06 86.93 C 48.41 86.40 47.75 85.88 47.10 85.35 C 47.87 85.20 49.39 84.89 50.16 84.74 Z" />
<path fill="#c5cbd5" opacity="1.00" d=" M 75.15 80.11 C 76.96 78.76 79.15 78.19 81.36 77.95 C 78.76 79.76 76.39 81.87 73.97 83.90 C 67.33 87.03 61.33 91.29 55.15 95.22 C 53.19 96.49 51.02 97.43 48.74 97.98 C 52.24 93.75 57.28 91.35 61.79 88.40 C 66.29 85.72 70.83 83.08 75.15 80.11 Z" />
<path fill="#d0dcd7" opacity="1.00" d=" M 49.06 86.93 C 53.58 84.23 58.02 81.41 62.61 78.83 C 63.09 79.11 64.03 79.66 64.51 79.94 C 63.50 80.73 62.49 81.51 61.49 82.30 C 57.11 84.61 52.83 87.17 49.04 90.37 C 49.04 89.51 49.05 87.79 49.06 86.93 Z" />
<path fill="#465780" opacity="0.89" d=" M 32.72 80.16 C 38.79 82.42 44.29 85.98 49.04 90.37 L 49.00 91.25 C 43.03 88.59 35.92 86.39 32.72 80.16 Z" />
<path fill="#b5b9a3" opacity="0.93" d=" M 48.97 92.15 C 53.85 89.48 58.70 86.76 63.49 83.93 C 62.93 85.42 62.37 86.92 61.79 88.40 C 57.28 91.35 52.24 93.75 48.74 97.98 C 44.83 96.12 41.29 93.60 37.72 91.17 C 38.16 90.95 39.02 90.50 39.46 90.28 C 42.62 92.26 45.77 94.25 48.93 96.22 C 48.93 94.86 48.94 93.50 48.97 92.15 Z" />
</svg>
