<?xml version="1.0" encoding="UTF-8" ?>
<!DOCTYPE svg PUBLIC "-//W3C//DTD SVG 1.1//EN" "http://www.w3.org/Graphics/SVG/1.1/DTD/svg11.dtd">
<svg width="100pt" height="100pt" viewBox="0 0 100 100" version="1.1" xmlns="http://www.w3.org/2000/svg">
<path fill="#06080b" opacity="0.93" d=" M 38.78 26.02 C 47.92 23.77 57.42 24.77 66.54 26.55 C 70.38 27.48 74.68 28.81 76.92 32.32 C 78.69 35.56 76.02 38.80 74.71 41.65 C 69.93 51.19 64.09 60.16 57.75 68.73 C 55.72 71.25 53.36 74.09 49.97 74.60 C 46.13 74.01 43.44 70.78 41.02 68.01 C 34.30 59.52 28.03 50.59 23.02 40.97 C 20.99 37.43 21.40 33.21 23.42 29.78 C 23.05 36.90 26.29 43.44 29.45 49.60 C 31.74 54.02 35.40 57.46 38.53 61.26 C 41.82 65.42 43.87 72.35 49.86 72.98 C 58.86 65.40 65.22 55.17 71.21 45.13 C 72.85 42.22 74.20 39.16 75.57 36.12 C 74.37 35.21 73.17 34.30 71.97 33.38 C 72.66 32.92 74.05 32.02 74.74 31.57 C 63.70 25.90 50.94 25.28 38.78 26.02 Z" />
<path fill="#4c5565" opacity="1.00" d=" M 33.88 26.86 C 35.44 26.27 37.13 26.14 38.78 26.02 C 50.94 25.28 63.70 25.90 74.74 31.57 C 74.05 32.02 72.66 32.92 71.97 33.38 C 65.17 37.14 58.09 31.46 51.01 31.68 C 51.39 32.06 52.13 32.82 52.50 33.20 C 51.48 33.49 50.48 33.79 49.46 34.09 C 47.29 33.09 45.13 32.06 42.91 31.18 C 38.40 29.47 33.47 30.72 28.87 31.40 C 30.57 29.91 32.19 28.35 33.88 26.86 M 55.85 29.25 C 57.50 30.63 59.08 32.23 61.12 33.05 C 63.49 33.53 65.91 32.96 68.28 32.72 C 64.77 29.84 60.28 29.03 55.85 29.25 Z" />
<path fill="#343946" opacity="1.00" d=" M 23.42 29.78 C 26.61 27.97 30.31 27.44 33.88 26.86 C 32.19 28.35 30.57 29.91 28.87 31.40 C 33.47 30.72 38.40 29.47 42.91 31.18 C 44.70 32.50 46.41 33.91 48.13 35.31 C 47.20 37.17 46.24 39.02 45.40 40.92 C 41.54 40.82 37.77 41.80 34.39 43.63 C 34.44 49.76 36.51 55.56 38.53 61.26 C 35.40 57.46 31.74 54.02 29.45 49.60 C 26.29 43.44 23.05 36.90 23.42 29.78 Z" />
<path fill="#afb9b8" opacity="1.00" d=" M 55.85 29.25 C 60.28 29.03 64.77 29.84 68.28 32.72 C 65.91 32.96 63.49 33.53 61.12 33.05 C 59.08 32.23 57.50 30.63 55.85 29.25 Z" />
<path fill="#ffe79e" opacity="1.00" d=" M 42.91 31.18 C 45.13 32.06 47.29 33.09 49.46 34.09 C 50.48 33.79 51.48 33.49 52.50 33.20 C 57.24 33.23 60.49 36.69 64.00 39.34 C 64.17 43.56 65.29 48.63 61.95 51.99 C 60.30 54.04 57.57 54.38 55.11 54.47 C 49.51 54.56 44.05 56.53 38.41 55.66 C 41.29 54.41 44.26 53.36 47.21 52.28 C 45.53 48.75 44.04 44.84 45.40 40.92 C 46.24 39.02 47.20 37.17 48.13 35.31 C 46.41 33.91 44.70 32.50 42.91 31.18 M 52.18 36.46 C 53.95 41.68 54.82 47.28 52.97 52.62 C 58.12 53.45 63.17 48.33 61.88 43.18 C 61.02 38.80 56.50 35.99 52.18 36.46 M 49.91 50.50 C 52.02 47.23 52.10 43.27 50.92 39.65 C 46.70 41.82 47.01 47.34 49.91 50.50 Z" />
<path fill="#373a46" opacity="1.00" d=" M 51.01 31.68 C 58.09 31.46 65.17 37.14 71.97 33.38 C 73.17 34.30 74.37 35.21 75.57 36.12 C 74.20 39.16 72.85 42.22 71.21 45.13 C 69.51 45.89 67.81 46.65 66.11 47.41 C 65.83 44.99 65.55 42.58 65.23 40.17 C 64.92 39.97 64.31 39.55 64.00 39.34 C 60.49 36.69 57.24 33.23 52.50 33.20 C 52.13 32.82 51.39 32.06 51.01 31.68 Z" />
<path fill="#1d1d2a" opacity="1.00" d=" M 52.18 36.46 C 56.50 35.99 61.02 38.80 61.88 43.18 C 63.17 48.33 58.12 53.45 52.97 52.62 C 54.82 47.28 53.95 41.68 52.18 36.46 Z" />
<path fill="#151421" opacity="1.00" d=" M 64.00 39.34 C 64.31 39.55 64.92 39.97 65.23 40.17 C 65.55 42.58 65.83 44.99 66.11 47.41 C 67.81 46.65 69.51 45.89 71.21 45.13 C 65.22 55.17 58.86 65.40 49.86 72.98 C 43.87 72.35 41.82 65.42 38.53 61.26 C 36.51 55.56 34.44 49.76 34.39 43.63 C 37.77 41.80 41.54 40.82 45.40 40.92 C 44.04 44.84 45.53 48.75 47.21 52.28 C 44.26 53.36 41.29 54.41 38.41 55.66 C 44.05 56.53 49.51 54.56 55.11 54.47 C 57.57 54.38 60.30 54.04 61.95 51.99 C 65.29 48.63 64.17 43.56 64.00 39.34 Z" />
<path fill="#020816" opacity="1.00" d=" M 49.91 50.50 C 47.01 47.34 46.70 41.82 50.92 39.65 C 52.10 43.27 52.02 47.23 49.91 50.50 Z" />
</svg>
