<?xml version="1.0" encoding="UTF-8" ?>
<!DOCTYPE svg PUBLIC "-//W3C//DTD SVG 1.1//EN" "http://www.w3.org/Graphics/SVG/1.1/DTD/svg11.dtd">
<svg width="100pt" height="100pt" viewBox="0 0 100 100" version="1.1" xmlns="http://www.w3.org/2000/svg">
<path fill="#06003e" opacity="0.86" d=" M 48.39 0.00 L 50.45 0.00 C 56.74 4.32 63.29 8.26 69.34 12.92 L 68.48 12.89 C 61.65 9.69 56.21 3.95 48.97 1.57 C 48.54 1.80 47.68 2.26 47.24 2.49 C 45.52 3.47 43.82 4.49 42.19 5.62 C 40.31 6.89 38.44 8.17 36.52 9.39 C 29.04 13.69 21.89 18.52 14.45 22.88 C 13.50 32.23 14.05 41.63 13.99 51.01 C 14.23 59.69 13.42 68.43 14.60 77.07 C 22.23 81.77 29.80 86.59 37.60 91.01 C 41.20 93.51 44.78 96.09 48.75 97.98 C 57.97 94.91 65.08 87.74 73.98 83.91 C 66.46 90.08 57.72 94.44 49.78 100.00 L 48.51 100.00 C 37.16 91.93 25.05 85.00 13.23 77.66 C 12.95 59.23 12.97 40.79 13.25 22.36 C 25.07 15.08 36.85 7.71 48.39 0.00 Z" />
<path fill="#bec4b3" opacity="0.89" d=" M 48.97 1.57 C 56.21 3.95 61.65 9.69 68.48 12.89 C 67.23 12.88 65.99 12.87 64.75 12.85 C 61.20 10.83 57.20 10.20 53.23 9.60 C 49.91 9.20 49.62 5.21 49.02 2.64 L 48.97 1.57 Z" />
<path fill="#3c4875" opacity="0.87" d=" M 47.24 2.49 C 47.68 2.26 48.54 1.80 48.97 1.57 L 49.02 2.64 C 49.05 5.05 48.96 7.47 48.85 9.89 C 47.01 10.92 45.18 11.97 43.35 13.03 C 44.83 9.59 46.21 6.09 47.24 2.49 Z" />
<path fill="#737a8d" opacity="0.87" d=" M 42.19 5.62 C 43.82 4.49 45.52 3.47 47.24 2.49 C 46.21 6.09 44.83 9.59 43.35 13.03 C 45.18 11.97 47.01 10.92 48.85 9.89 C 50.80 13.37 53.80 16.08 57.29 17.98 C 52.52 16.79 47.31 16.42 43.04 19.33 C 41.66 19.62 40.27 19.81 38.88 20.02 C 40.57 18.05 42.30 16.12 44.05 14.21 C 41.35 15.04 38.62 15.78 35.94 16.70 C 38.10 13.05 39.77 9.11 42.19 5.62 Z" />
<path fill="#919ea0" opacity="0.89" d=" M 49.02 2.64 C 49.62 5.21 49.91 9.20 53.23 9.60 C 57.20 10.20 61.20 10.83 64.75 12.85 C 64.15 14.65 63.55 16.45 62.93 18.24 C 58.18 15.55 53.81 12.22 48.85 9.89 C 48.96 7.47 49.05 5.05 49.02 2.64 Z" />
<path fill="#cdccb9" opacity="0.91" d=" M 36.52 9.39 C 38.44 8.17 40.31 6.89 42.19 5.62 C 39.77 9.11 38.10 13.05 35.94 16.70 C 31.02 18.74 26.36 21.33 21.78 24.03 C 21.42 23.20 21.07 22.37 20.72 21.55 C 26.20 17.87 33.56 15.83 36.52 9.39 Z" />
<path fill="#dcdcc8" opacity="0.94" d=" M 14.45 22.88 C 21.89 18.52 29.04 13.69 36.52 9.39 C 33.56 15.83 26.20 17.87 20.72 21.55 C 19.16 22.45 17.61 23.36 16.06 24.27 C 15.53 33.30 15.78 42.34 16.41 51.36 C 15.55 58.67 16.27 66.01 16.41 73.33 L 15.96 74.04 L 15.50 74.73 C 15.02 57.45 15.08 40.15 14.45 22.88 Z" />
<path fill="#cdccb9" opacity="0.91" d=" M 48.85 9.89 C 53.81 12.22 58.18 15.55 62.93 18.24 C 63.84 18.75 64.75 19.24 65.67 19.73 C 70.30 22.71 74.30 27.46 80.20 27.66 C 77.28 31.44 76.90 36.30 77.66 40.86 C 79.06 48.26 78.73 55.79 78.27 63.26 C 77.80 56.46 77.49 49.66 77.47 42.84 C 77.42 47.98 77.08 53.11 76.42 58.21 C 76.59 53.61 76.39 49.00 75.97 44.42 C 76.45 39.37 76.52 34.30 76.06 29.25 C 74.51 28.36 72.96 27.48 71.43 26.55 C 66.76 23.62 62.06 20.74 57.29 17.98 C 53.80 16.08 50.80 13.37 48.85 9.89 Z" />
<path fill="#6f78b1" opacity="0.82" d=" M 64.75 12.85 C 65.99 12.87 67.23 12.88 68.48 12.89 L 69.34 12.92 C 72.38 15.80 75.64 18.43 78.93 21.01 C 76.41 20.08 73.89 19.15 71.37 18.21 C 71.78 19.11 72.19 20.01 72.60 20.92 C 70.28 20.55 67.96 20.22 65.67 19.73 C 64.75 19.24 63.84 18.75 62.93 18.24 C 63.55 16.45 64.15 14.65 64.75 12.85 Z" />
<path fill="#393b91" opacity="1.00" d=" M 69.34 12.92 C 74.55 16.37 80.82 18.50 85.04 23.26 C 85.76 26.45 85.49 29.75 85.52 33.00 C 85.35 46.02 85.47 59.05 85.51 72.07 C 85.29 74.06 85.74 76.55 84.03 78.01 C 81.12 80.65 77.40 82.08 73.98 83.91 C 76.45 81.90 78.78 79.70 81.32 77.76 C 82.27 77.41 83.23 77.07 84.19 76.73 C 84.21 73.69 84.23 70.66 84.05 67.63 C 83.92 65.36 82.90 63.28 81.99 61.24 C 82.81 56.20 83.29 51.10 83.25 45.99 C 83.17 38.90 83.40 31.82 83.77 24.74 C 82.20 24.41 80.64 24.08 79.07 23.75 C 79.02 22.84 78.98 21.93 78.93 21.01 C 75.64 18.43 72.38 15.80 69.34 12.92 Z" />
<path fill="#acbaae" opacity="0.90" d=" M 35.94 16.70 C 38.62 15.78 41.35 15.04 44.05 14.21 C 42.30 16.12 40.57 18.05 38.88 20.02 C 40.27 19.81 41.66 19.62 43.04 19.33 C 40.91 20.77 38.86 22.31 36.74 23.76 C 36.28 24.06 35.37 24.65 34.91 24.95 C 31.84 26.73 28.52 28.03 25.10 28.93 C 29.70 25.59 33.90 21.72 38.16 17.96 C 31.64 20.87 24.82 24.02 20.53 29.99 C 20.02 28.97 19.50 27.95 18.98 26.94 C 16.96 34.97 18.94 43.41 16.41 51.36 C 15.78 42.34 15.53 33.30 16.06 24.27 C 17.61 23.36 19.16 22.45 20.72 21.55 C 21.07 22.37 21.42 23.20 21.78 24.03 C 26.36 21.33 31.02 18.74 35.94 16.70 Z" />
<path fill="#5a5f77" opacity="0.87" d=" M 43.04 19.33 C 47.31 16.42 52.52 16.79 57.29 17.98 C 62.06 20.74 66.76 23.62 71.43 26.55 C 70.47 30.66 69.48 34.76 68.41 38.84 L 67.98 39.47 C 65.93 39.62 63.87 39.79 61.81 39.82 C 58.17 38.61 57.44 34.61 56.22 31.47 C 54.85 27.51 52.66 23.91 50.55 20.31 C 50.24 20.66 49.61 21.36 49.29 21.71 C 48.54 22.54 47.79 23.37 47.04 24.21 C 43.61 24.04 40.17 23.89 36.74 23.76 C 38.86 22.31 40.91 20.77 43.04 19.33 Z" />
<path fill="#ccdddf" opacity="1.00" d=" M 20.53 29.99 C 24.82 24.02 31.64 20.87 38.16 17.96 C 33.90 21.72 29.70 25.59 25.10 28.93 C 23.59 29.36 22.06 29.67 20.53 29.99 Z" />
<path fill="#353e8a" opacity="0.80" d=" M 71.37 18.21 C 73.89 19.15 76.41 20.08 78.93 21.01 C 78.98 21.93 79.02 22.84 79.07 23.75 C 80.64 24.08 82.20 24.41 83.77 24.74 C 83.40 31.82 83.17 38.90 83.25 45.99 C 82.68 45.97 81.54 45.91 80.96 45.89 C 81.18 43.24 81.30 40.59 81.41 37.94 C 80.16 38.91 78.91 39.89 77.66 40.86 C 76.90 36.30 77.28 31.44 80.20 27.66 C 74.30 27.46 70.30 22.71 65.67 19.73 C 67.96 20.22 70.28 20.55 72.60 20.92 C 72.19 20.01 71.78 19.11 71.37 18.21 Z" />
<path fill="#cdccb9" opacity="0.91" d=" M 50.55 20.31 C 52.66 23.91 54.85 27.51 56.22 31.47 C 57.44 34.61 58.17 38.61 61.81 39.82 C 60.65 39.84 59.48 39.85 58.32 39.86 C 57.40 38.69 56.49 37.51 55.58 36.33 C 54.72 37.25 53.85 38.18 52.99 39.10 C 53.68 36.50 54.76 33.93 54.78 31.21 C 53.87 27.62 51.31 24.74 49.29 21.71 C 49.61 21.36 50.24 20.66 50.55 20.31 Z" />
<path fill="#727f7e" opacity="0.83" d=" M 47.04 24.21 C 47.79 23.37 48.54 22.54 49.29 21.71 C 48.14 24.15 46.92 26.56 45.80 29.01 C 44.77 30.61 45.20 32.51 45.91 34.13 C 44.93 35.77 44.04 37.49 42.74 38.90 C 38.90 39.72 34.72 38.77 31.16 40.82 C 35.75 36.65 38.93 31.29 41.56 25.73 C 42.53 26.18 43.51 26.62 44.48 27.07 C 45.33 26.11 46.18 25.16 47.04 24.21 Z" />
<path fill="#06003e" opacity="0.86" d=" M 49.29 21.71 C 51.31 24.74 53.87 27.62 54.78 31.21 C 54.76 33.93 53.68 36.50 52.99 39.10 C 53.85 38.18 54.72 37.25 55.58 36.33 C 56.49 37.51 57.40 38.69 58.32 39.86 C 59.48 39.85 60.65 39.84 61.81 39.82 C 63.87 39.79 65.93 39.62 67.98 39.47 C 65.83 42.47 62.76 45.27 62.42 49.16 C 62.42 54.35 65.22 59.01 65.70 64.13 C 65.94 66.73 64.41 69.01 63.26 71.21 C 63.02 71.10 62.54 70.87 62.29 70.76 C 62.78 67.19 63.31 63.49 62.05 60.00 C 59.99 54.68 58.64 48.40 62.05 43.30 C 62.54 42.73 63.04 42.16 63.54 41.60 C 60.40 41.38 57.33 40.68 54.35 39.67 C 51.83 44.12 51.99 49.27 52.71 54.18 L 52.65 54.64 C 52.08 54.78 50.93 55.06 50.36 55.20 C 50.24 54.33 49.99 52.57 49.87 51.70 C 49.77 50.40 49.67 49.10 49.56 47.81 C 46.99 52.72 44.09 57.68 43.28 63.25 C 42.77 66.84 44.60 70.15 46.09 73.28 C 46.34 71.72 46.57 70.16 46.84 68.60 C 48.36 66.33 49.92 63.85 52.41 62.52 C 54.82 61.33 57.53 60.94 60.14 60.38 C 60.47 62.85 60.76 65.33 60.75 67.83 C 59.84 66.47 58.94 65.12 57.97 63.81 C 57.70 63.48 57.16 62.81 56.90 62.48 C 54.18 64.10 51.13 65.82 49.84 68.88 C 48.90 71.49 49.17 74.31 49.15 77.03 C 48.54 76.83 47.92 76.64 47.30 76.44 C 44.15 72.51 41.00 67.80 41.55 62.51 C 42.23 56.34 45.75 51.04 48.93 45.89 C 49.19 45.45 49.73 44.59 50.00 44.16 C 48.70 42.81 47.40 41.45 46.13 40.08 C 44.27 44.98 41.68 49.54 39.11 54.10 C 36.36 59.00 34.93 64.52 34.28 70.08 L 34.11 69.43 C 32.87 65.28 33.63 60.94 34.72 56.85 C 35.31 54.22 36.07 51.46 35.36 48.78 C 34.50 45.92 32.43 43.66 30.69 41.31 L 31.16 40.82 C 34.72 38.77 38.90 39.72 42.74 38.90 C 44.04 37.49 44.93 35.77 45.91 34.13 C 47.18 36.63 48.63 39.02 50.02 41.44 C 51.21 38.05 52.93 34.79 53.46 31.21 C 52.81 29.11 51.42 27.36 50.27 25.51 C 50.18 28.43 51.24 31.59 50.07 34.38 C 49.06 34.43 48.05 34.45 47.04 34.44 C 47.68 31.88 48.36 29.34 48.98 26.77 C 47.91 27.51 46.84 28.24 45.80 29.01 C 46.92 26.56 48.14 24.15 49.29 21.71 M 49.30 32.32 C 49.82 32.85 49.82 32.85 49.30 32.32 M 33.63 40.81 C 35.51 44.07 37.31 47.39 38.78 50.86 C 39.23 50.16 39.68 49.45 40.13 48.75 C 41.19 47.08 42.26 45.40 43.30 43.71 C 43.59 42.72 43.88 41.73 44.17 40.73 C 40.66 40.93 37.14 40.85 33.63 40.81 Z" />
<path fill="#c4b495" opacity="1.00" d=" M 13.99 51.01 C 14.05 41.63 13.50 32.23 14.45 22.88 C 15.08 40.15 15.02 57.45 15.50 74.73 L 15.18 75.54 C 15.03 75.92 14.75 76.69 14.60 77.07 C 13.42 68.43 14.23 59.69 13.99 51.01 Z" />
<path fill="#5b6a64" opacity="0.82" d=" M 34.91 24.95 C 35.37 24.65 36.28 24.06 36.74 23.76 C 40.17 23.89 43.61 24.04 47.04 24.21 C 46.18 25.16 45.33 26.11 44.48 27.07 C 43.51 26.62 42.53 26.18 41.56 25.73 C 38.93 31.29 35.75 36.65 31.16 40.82 L 30.69 41.31 C 30.60 42.74 30.59 44.18 30.57 45.62 C 27.80 47.79 25.13 50.11 22.64 52.60 C 22.21 46.10 22.04 39.55 23.04 33.08 C 25.64 32.51 28.38 32.19 30.74 30.88 C 32.68 29.36 33.67 27.01 34.91 24.95 Z" />
<path fill="#5d7998" opacity="0.82" d=" M 25.10 28.93 C 28.52 28.03 31.84 26.73 34.91 24.95 C 33.67 27.01 32.68 29.36 30.74 30.88 C 28.38 32.19 25.64 32.51 23.04 33.08 C 22.04 39.55 22.21 46.10 22.64 52.60 C 25.13 50.11 27.80 47.79 30.57 45.62 C 30.59 44.18 30.60 42.74 30.69 41.31 C 32.43 43.66 34.50 45.92 35.36 48.78 C 36.07 51.46 35.31 54.22 34.72 56.85 C 31.92 56.97 28.81 56.76 26.39 58.45 C 24.28 60.13 23.11 62.67 21.97 65.06 C 21.18 58.35 20.67 51.60 19.63 44.93 C 18.56 50.52 17.92 56.21 18.23 61.91 C 18.31 65.77 19.15 70.12 16.41 73.33 C 16.27 66.01 15.55 58.67 16.41 51.36 C 18.94 43.41 16.96 34.97 18.98 26.94 C 19.50 27.95 20.02 28.97 20.53 29.99 C 22.06 29.67 23.59 29.36 25.10 28.93 Z" />
<path fill="#cdccb9" opacity="0.91" d=" M 50.27 25.51 C 51.42 27.36 52.81 29.11 53.46 31.21 C 52.93 34.79 51.21 38.05 50.02 41.44 C 48.63 39.02 47.18 36.63 45.91 34.13 C 45.20 32.51 44.77 30.61 45.80 29.01 C 46.84 28.24 47.91 27.51 48.98 26.77 C 48.36 29.34 47.68 31.88 47.04 34.44 C 48.05 34.45 49.06 34.43 50.07 34.38 C 51.24 31.59 50.18 28.43 50.27 25.51 Z" />
<path fill="#49538e" opacity="0.87" d=" M 71.43 26.55 C 72.96 27.48 74.51 28.36 76.06 29.25 C 76.52 34.30 76.45 39.37 75.97 44.42 L 75.81 43.62 C 75.70 43.09 75.47 42.04 75.36 41.51 C 73.41 42.00 71.46 42.46 69.54 43.02 C 69.15 41.63 68.75 40.24 68.41 38.84 C 69.48 34.76 70.47 30.66 71.43 26.55 Z" />
<path fill="#c9e7e5" opacity="1.00" d=" M 49.30 32.32 C 49.82 32.85 49.82 32.85 49.30 32.32 Z" />
<path fill="#4e58a0" opacity="0.80" d=" M 77.66 40.86 C 78.91 39.89 80.16 38.91 81.41 37.94 C 81.30 40.59 81.18 43.24 80.96 45.89 C 80.57 51.00 79.19 56.53 81.99 61.24 C 82.90 63.28 83.92 65.36 84.05 67.63 C 83.63 70.01 83.03 72.36 82.43 74.71 C 74.56 74.35 69.03 81.01 61.58 82.38 C 63.05 81.15 64.44 79.84 65.91 78.60 C 69.37 76.92 72.91 75.30 75.97 72.93 C 78.91 70.71 77.90 66.46 78.27 63.26 C 78.73 55.79 79.06 48.26 77.66 40.86 Z" />
<path fill="#cdccb9" opacity="0.91" d=" M 54.35 39.67 C 57.33 40.68 60.40 41.38 63.54 41.60 C 63.04 42.16 62.54 42.73 62.05 43.30 C 59.67 42.92 57.29 42.54 54.92 42.16 C 54.19 46.17 53.42 50.17 52.71 54.18 C 51.99 49.27 51.83 44.12 54.35 39.67 Z" />
<path fill="#cdccb9" opacity="0.91" d=" M 68.41 38.84 C 68.75 40.24 69.15 41.63 69.54 43.02 C 67.32 43.76 64.90 45.04 64.59 47.64 C 63.49 53.78 66.22 59.78 68.75 65.21 C 66.97 67.75 65.42 70.45 63.57 72.94 C 63.21 72.99 62.49 73.09 62.13 73.14 C 62.42 72.66 62.98 71.69 63.26 71.21 C 64.41 69.01 65.94 66.73 65.70 64.13 C 65.22 59.01 62.42 54.35 62.42 49.16 C 62.76 45.27 65.83 42.47 67.98 39.47 L 68.41 38.84 Z" />
<path fill="#cdccb9" opacity="0.91" d=" M 33.63 40.81 C 37.14 40.85 40.66 40.93 44.17 40.73 C 43.88 41.73 43.59 42.72 43.30 43.71 C 40.85 43.16 38.41 42.62 35.96 42.08 C 37.34 44.31 38.73 46.53 40.13 48.75 C 39.68 49.45 39.23 50.16 38.78 50.86 C 37.31 47.39 35.51 44.07 33.63 40.81 Z" />
<path fill="#abbfcb" opacity="0.98" d=" M 46.13 40.08 C 47.40 41.45 48.70 42.81 50.00 44.16 C 49.73 44.59 49.19 45.45 48.93 45.89 C 48.26 45.26 47.59 44.64 46.92 44.02 C 44.42 48.47 41.69 52.81 39.57 57.47 C 37.16 62.75 36.72 68.61 35.64 74.24 C 35.15 72.86 34.66 71.49 34.28 70.08 C 34.93 64.52 36.36 59.00 39.11 54.10 C 41.68 49.54 44.27 44.98 46.13 40.08 Z" />
<path fill="#485bad" opacity="0.94" d=" M 69.54 43.02 C 71.46 42.46 73.41 42.00 75.36 41.51 C 75.47 42.04 75.70 43.09 75.81 43.62 C 75.57 47.68 75.23 51.75 74.38 55.74 C 73.76 58.87 71.54 61.28 69.79 63.84 C 69.53 64.18 69.01 64.87 68.75 65.21 C 66.22 59.78 63.49 53.78 64.59 47.64 C 64.90 45.04 67.32 43.76 69.54 43.02 Z" />
<path fill="#6b7b8c" opacity="0.82" d=" M 35.96 42.08 C 38.41 42.62 40.85 43.16 43.30 43.71 C 42.26 45.40 41.19 47.08 40.13 48.75 C 38.73 46.53 37.34 44.31 35.96 42.08 Z" />
<path fill="#5c72ac" opacity="0.96" d=" M 54.92 42.16 C 57.29 42.54 59.67 42.92 62.05 43.30 C 58.64 48.40 59.99 54.68 62.05 60.00 C 61.57 60.10 60.62 60.28 60.14 60.38 C 57.53 60.94 54.82 61.33 52.41 62.52 C 49.92 63.85 48.36 66.33 46.84 68.60 C 43.01 63.07 47.92 56.97 49.87 51.70 C 49.99 52.57 50.24 54.33 50.36 55.20 C 50.93 55.06 52.08 54.78 52.65 54.64 L 52.71 54.18 C 53.42 50.17 54.19 46.17 54.92 42.16 M 49.83 57.09 C 52.47 57.14 55.19 56.84 56.67 54.36 C 54.38 55.23 52.10 56.15 49.83 57.09 Z" />
<path fill="#b9c5d3" opacity="0.96" d=" M 76.42 58.21 C 77.08 53.11 77.42 47.98 77.47 42.84 C 77.49 49.66 77.80 56.46 78.27 63.26 C 77.90 66.46 78.91 70.71 75.97 72.93 C 72.91 75.30 69.37 76.92 65.91 78.60 C 65.18 78.74 63.72 79.04 62.99 79.18 C 65.81 77.34 68.61 75.47 71.45 73.64 C 72.78 72.68 74.22 71.78 75.21 70.44 C 75.92 67.63 75.80 64.69 76.06 61.82 C 76.19 60.62 76.31 59.42 76.42 58.21 Z" />
<path fill="#689fad" opacity="0.96" d=" M 39.57 57.47 C 41.69 52.81 44.42 48.47 46.92 44.02 C 47.59 44.64 48.26 45.26 48.93 45.89 C 45.75 51.04 42.23 56.34 41.55 62.51 C 41.00 67.80 44.15 72.51 47.30 76.44 C 46.96 76.58 46.27 76.86 45.93 77.00 C 42.38 79.25 38.41 77.37 34.87 76.17 C 39.05 79.16 43.21 82.20 47.20 85.44 C 47.87 85.98 48.53 86.51 49.20 87.05 C 49.15 87.88 49.05 89.55 49.00 90.39 C 44.32 86.18 38.74 83.19 33.66 79.52 C 34.19 79.71 35.26 80.09 35.79 80.28 C 35.07 79.26 34.34 78.23 33.57 77.25 C 32.23 75.51 30.86 73.82 29.49 72.11 C 30.46 72.22 31.44 72.33 32.41 72.45 C 32.97 71.44 33.54 70.43 34.11 69.43 L 34.28 70.08 C 34.66 71.49 35.15 72.86 35.64 74.24 C 36.72 68.61 37.16 62.75 39.57 57.47 Z" />
<path fill="#0b2990" opacity="0.87" d=" M 75.81 43.62 L 75.97 44.42 C 76.39 49.00 76.59 53.61 76.42 58.21 C 76.31 59.42 76.19 60.62 76.06 61.82 C 75.40 63.39 74.69 64.92 73.97 66.46 C 72.23 66.47 70.49 66.47 68.75 66.48 C 69.09 65.59 69.43 64.71 69.79 63.84 C 71.54 61.28 73.76 58.87 74.38 55.74 C 75.23 51.75 75.57 47.68 75.81 43.62 Z" />
<path fill="#294365" opacity="0.66" d=" M 18.23 61.91 C 17.92 56.21 18.56 50.52 19.63 44.93 C 20.67 51.60 21.18 58.35 21.97 65.06 C 21.27 66.97 20.70 68.94 20.12 70.89 C 18.72 71.93 17.31 72.95 15.96 74.04 L 16.41 73.33 C 19.15 70.12 18.31 65.77 18.23 61.91 Z" />
<path fill="#0825d0" opacity="0.82" d=" M 80.96 45.89 C 81.54 45.91 82.68 45.97 83.25 45.99 C 83.29 51.10 82.81 56.20 81.99 61.24 C 79.19 56.53 80.57 51.00 80.96 45.89 Z" />
<path fill="#a3b9cc" opacity="1.00" d=" M 43.28 63.25 C 44.09 57.68 46.99 52.72 49.56 47.81 C 49.67 49.10 49.77 50.40 49.87 51.70 C 47.92 56.97 43.01 63.07 46.84 68.60 C 46.57 70.16 46.34 71.72 46.09 73.28 C 44.60 70.15 42.77 66.84 43.28 63.25 Z" />
<path fill="#b7c3d8" opacity="0.98" d=" M 49.83 57.09 C 52.10 56.15 54.38 55.23 56.67 54.36 C 55.19 56.84 52.47 57.14 49.83 57.09 Z" />
<path fill="#5f98b9" opacity="0.86" d=" M 26.39 58.45 C 28.81 56.76 31.92 56.97 34.72 56.85 C 33.63 60.94 32.87 65.28 34.11 69.43 C 33.54 70.43 32.97 71.44 32.41 72.45 C 31.44 72.33 30.46 72.22 29.49 72.11 C 30.86 73.82 32.23 75.51 33.57 77.25 C 29.46 74.45 25.14 71.64 20.12 70.89 C 20.70 68.94 21.27 66.97 21.97 65.06 C 23.11 62.67 24.28 60.13 26.39 58.45 Z" />
<path fill="#98b3c3" opacity="0.97" d=" M 60.14 60.38 C 60.62 60.28 61.57 60.10 62.05 60.00 C 63.31 63.49 62.78 67.19 62.29 70.76 C 61.90 70.59 61.10 70.24 60.70 70.07 C 60.72 69.32 60.74 68.57 60.75 67.83 C 60.76 65.33 60.47 62.85 60.14 60.38 Z" />
<path fill="#344a84" opacity="0.87" d=" M 73.97 66.46 C 74.69 64.92 75.40 63.39 76.06 61.82 C 75.80 64.69 75.92 67.63 75.21 70.44 C 74.22 71.78 72.78 72.68 71.45 73.64 C 71.89 72.44 72.33 71.24 72.78 70.04 C 69.90 71.51 66.82 72.67 63.57 72.94 C 65.42 70.45 66.97 67.75 68.75 65.21 C 69.01 64.87 69.53 64.18 69.79 63.84 C 69.43 64.71 69.09 65.59 68.75 66.48 C 70.49 66.47 72.23 66.47 73.97 66.46 Z" />
<path fill="#b4cac9" opacity="0.98" d=" M 49.84 68.88 C 51.13 65.82 54.18 64.10 56.90 62.48 C 57.16 62.81 57.70 63.48 57.97 63.81 C 55.60 65.78 52.67 67.47 51.41 70.41 C 50.54 73.56 51.52 76.81 52.13 79.92 C 50.06 78.95 47.99 77.98 45.93 77.00 C 46.27 76.86 46.96 76.58 47.30 76.44 C 47.92 76.64 48.54 76.83 49.15 77.03 C 49.17 74.31 48.90 71.49 49.84 68.88 Z" />
<path fill="#68989b" opacity="0.94" d=" M 57.97 63.81 C 58.94 65.12 59.84 66.47 60.75 67.83 C 60.74 68.57 60.72 69.32 60.70 70.07 C 61.10 70.24 61.90 70.59 62.29 70.76 C 62.54 70.87 63.02 71.10 63.26 71.21 C 62.98 71.69 62.42 72.66 62.13 73.14 C 57.66 73.11 54.66 76.70 52.13 79.92 C 51.52 76.81 50.54 73.56 51.41 70.41 C 52.67 67.47 55.60 65.78 57.97 63.81 Z" />
<path fill="#7c83a8" opacity="0.93" d=" M 82.43 74.71 C 83.03 72.36 83.63 70.01 84.05 67.63 C 84.23 70.66 84.21 73.69 84.19 76.73 C 83.23 77.07 82.27 77.41 81.32 77.76 C 74.12 79.83 68.37 84.83 61.90 88.37 C 62.42 86.90 62.96 85.42 63.49 83.94 C 58.67 86.73 53.84 89.47 48.97 92.16 L 48.98 91.25 L 49.00 90.39 C 52.80 87.15 57.13 84.61 61.58 82.38 C 69.03 81.01 74.56 74.35 82.43 74.71 Z" />
<path fill="#a1c7cb" opacity="1.00" d=" M 20.12 70.89 C 25.14 71.64 29.46 74.45 33.57 77.25 C 34.34 78.23 35.07 79.26 35.79 80.28 C 35.26 80.09 34.19 79.71 33.66 79.52 C 29.58 77.10 25.41 74.84 21.33 72.43 C 21.03 72.04 20.42 71.28 20.12 70.89 Z" />
<path fill="#778266" opacity="0.86" d=" M 63.57 72.94 C 66.82 72.67 69.90 71.51 72.78 70.04 C 72.33 71.24 71.89 72.44 71.45 73.64 C 68.61 75.47 65.81 77.34 62.99 79.18 C 58.24 81.53 53.75 84.35 49.20 87.05 C 48.53 86.51 47.87 85.98 47.20 85.44 C 48.70 84.74 50.28 84.15 51.62 83.15 C 51.95 82.10 52.01 81.00 52.13 79.92 C 54.66 76.70 57.66 73.11 62.13 73.14 C 62.49 73.09 63.21 72.99 63.57 72.94 Z" />
<path fill="#8ba19a" opacity="0.81" d=" M 15.96 74.04 C 17.31 72.95 18.72 71.93 20.12 70.89 C 20.42 71.28 21.03 72.04 21.33 72.43 C 23.70 75.46 25.88 78.69 27.32 82.28 C 23.26 80.07 19.22 77.79 15.18 75.54 L 15.50 74.73 L 15.96 74.04 Z" />
<path fill="#627aa8" opacity="0.80" d=" M 21.33 72.43 C 25.41 74.84 29.58 77.10 33.66 79.52 C 34.22 81.34 34.61 83.45 36.33 84.58 C 40.15 87.48 44.66 89.25 48.98 91.25 L 48.97 92.16 C 48.94 93.49 48.92 94.82 48.89 96.14 C 45.78 94.22 42.70 92.26 39.51 90.48 C 35.60 87.53 31.58 84.72 27.32 82.28 C 25.88 78.69 23.70 75.46 21.33 72.43 Z" />
<path fill="#e0e3d6" opacity="1.00" d=" M 15.18 75.54 C 19.22 77.79 23.26 80.07 27.32 82.28 C 31.58 84.72 35.60 87.53 39.51 90.48 C 39.03 90.62 38.08 90.88 37.60 91.01 C 29.80 86.59 22.23 81.77 14.60 77.07 C 14.75 76.69 15.03 75.92 15.18 75.54 Z" />
<path fill="#93a18c" opacity="0.93" d=" M 34.87 76.17 C 38.41 77.37 42.38 79.25 45.93 77.00 C 47.99 77.98 50.06 78.95 52.13 79.92 C 52.01 81.00 51.95 82.10 51.62 83.15 C 50.28 84.15 48.70 84.74 47.20 85.44 C 43.21 82.20 39.05 79.16 34.87 76.17 Z" />
<path fill="#c5cbd5" opacity="1.00" d=" M 61.90 88.37 C 68.37 84.83 74.12 79.83 81.32 77.76 C 78.78 79.70 76.45 81.90 73.98 83.91 C 65.08 87.74 57.97 94.91 48.75 97.98 C 52.47 93.96 57.21 91.12 61.90 88.37 Z" />
<path fill="#cddad9" opacity="1.00" d=" M 49.20 87.05 C 53.75 84.35 58.24 81.53 62.99 79.18 C 63.72 79.04 65.18 78.74 65.91 78.60 C 64.44 79.84 63.05 81.15 61.58 82.38 C 57.13 84.61 52.80 87.15 49.00 90.39 C 49.05 89.55 49.15 87.88 49.20 87.05 Z" />
<path fill="#3c4875" opacity="0.87" d=" M 36.33 84.58 C 34.61 83.45 34.22 81.34 33.66 79.52 C 38.74 83.19 44.32 86.18 49.00 90.39 L 48.98 91.25 C 44.66 89.25 40.15 87.48 36.33 84.58 Z" />
<path fill="#b5b9a3" opacity="0.93" d=" M 48.97 92.16 C 53.84 89.47 58.67 86.73 63.49 83.94 C 62.96 85.42 62.42 86.90 61.90 88.37 C 57.21 91.12 52.47 93.96 48.75 97.98 C 44.78 96.09 41.20 93.51 37.60 91.01 C 38.08 90.88 39.03 90.62 39.51 90.48 C 42.70 92.26 45.78 94.22 48.89 96.14 C 48.92 94.82 48.94 93.49 48.97 92.16 Z" />
</svg>
