<?xml version="1.0" encoding="UTF-8" ?>
<!DOCTYPE svg PUBLIC "-//W3C//DTD SVG 1.1//EN" "http://www.w3.org/Graphics/SVG/1.1/DTD/svg11.dtd">
<svg width="100pt" height="100pt" viewBox="0 0 100 100" version="1.1" xmlns="http://www.w3.org/2000/svg">
<path fill="#0c0642" opacity="0.87" d=" M 48.40 0.00 L 50.50 0.00 C 56.60 4.63 63.59 7.97 69.31 13.11 L 68.44 13.04 C 61.70 9.67 56.23 3.94 49.00 1.60 C 48.57 1.83 47.72 2.30 47.30 2.54 C 45.59 3.53 43.88 4.50 42.24 5.60 C 40.32 6.85 38.43 8.14 36.51 9.38 C 29.07 13.70 21.92 18.50 14.51 22.87 C 13.38 32.21 14.24 41.63 14.02 51.01 C 14.36 59.68 13.37 68.41 14.61 77.04 C 22.26 81.83 29.94 86.57 37.72 91.15 C 41.29 93.58 44.82 96.11 48.75 97.94 C 52.98 97.03 56.47 94.33 60.04 92.05 C 64.52 89.06 69.11 86.23 73.97 83.89 C 66.54 90.19 57.62 94.30 49.77 100.00 L 48.51 100.00 C 37.23 91.86 25.07 85.05 13.31 77.65 C 13.00 59.23 13.03 40.79 13.31 22.37 C 25.08 15.03 36.90 7.77 48.40 0.00 Z" />
<path fill="#bec4b3" opacity="0.89" d=" M 49.00 1.60 C 56.23 3.94 61.70 9.67 68.44 13.04 C 66.63 12.92 64.82 12.71 63.11 12.05 C 61.15 11.24 59.20 10.20 57.02 10.19 C 54.85 9.98 52.19 10.27 50.74 8.27 C 49.64 6.60 49.39 4.56 49.04 2.64 L 49.00 1.60 Z" />
<path fill="#3c4875" opacity="0.87" d=" M 47.30 2.54 C 47.72 2.30 48.57 1.83 49.00 1.60 L 49.04 2.64 C 49.08 5.06 49.02 7.48 48.94 9.90 C 47.06 10.93 45.18 11.97 43.30 13.02 C 44.82 9.60 46.29 6.15 47.30 2.54 Z" />
<path fill="#737a8d" opacity="0.87" d=" M 42.24 5.60 C 43.88 4.50 45.59 3.53 47.30 2.54 C 46.29 6.15 44.82 9.60 43.30 13.02 C 45.18 11.97 47.06 10.93 48.94 9.90 C 49.89 11.57 50.86 13.23 51.99 14.78 C 52.30 15.22 52.91 16.09 53.21 16.53 C 49.69 16.45 46.27 17.33 43.20 19.05 C 41.74 19.44 40.26 19.75 38.78 20.07 C 40.47 18.04 42.23 16.07 44.05 14.16 C 41.41 15.18 38.70 15.97 35.97 16.70 C 38.24 13.10 39.62 8.98 42.24 5.60 Z" />
<path fill="#92a0a0" opacity="0.88" d=" M 49.04 2.64 C 49.39 4.56 49.64 6.60 50.74 8.27 C 52.19 10.27 54.85 9.98 57.02 10.19 C 59.20 10.20 61.15 11.24 63.11 12.05 C 62.96 14.14 62.82 16.22 62.68 18.31 C 58.04 15.60 53.82 12.21 48.94 9.90 C 49.02 7.48 49.08 5.06 49.04 2.64 Z" />
<path fill="#cdccb9" opacity="0.91" d=" M 36.51 9.38 C 38.43 8.14 40.32 6.85 42.24 5.60 C 39.62 8.98 38.24 13.10 35.97 16.70 C 30.91 18.45 26.52 21.59 21.77 23.99 C 21.43 23.17 21.08 22.36 20.73 21.55 C 25.04 18.92 29.60 16.68 33.65 13.66 C 35.18 12.69 35.87 10.98 36.51 9.38 Z" />
<path fill="#dcdcc8" opacity="0.94" d=" M 14.51 22.87 C 21.92 18.50 29.07 13.70 36.51 9.38 C 35.87 10.98 35.18 12.69 33.65 13.66 C 29.60 16.68 25.04 18.92 20.73 21.55 C 19.18 22.46 17.63 23.38 16.08 24.30 C 15.45 33.23 16.02 42.18 15.97 51.12 C 15.71 58.53 16.13 65.92 16.39 73.31 L 15.87 73.97 L 15.34 74.58 C 15.29 57.34 14.90 40.10 14.51 22.87 Z" />
<path fill="#c3cdd1" opacity="0.98" d=" M 48.94 9.90 C 53.82 12.21 58.04 15.60 62.68 18.31 C 63.73 18.81 64.80 19.26 65.90 19.66 C 65.18 20.45 64.45 21.24 63.73 22.03 L 63.09 21.60 C 59.58 19.03 55.83 16.82 51.99 14.78 C 50.86 13.23 49.89 11.57 48.94 9.90 Z" />
<path fill="#767bb0" opacity="0.82" d=" M 63.11 12.05 C 64.82 12.71 66.63 12.92 68.44 13.04 L 69.31 13.11 C 72.17 15.70 75.28 17.97 78.17 20.52 C 76.01 19.67 73.78 19.01 71.56 18.32 C 71.61 19.04 71.66 19.75 71.71 20.47 C 69.77 20.23 67.82 20.02 65.90 19.66 C 64.80 19.26 63.73 18.81 62.68 18.31 C 62.82 16.22 62.96 14.14 63.11 12.05 Z" />
<path fill="#393b91" opacity="1.00" d=" M 69.31 13.11 C 74.36 15.85 79.58 18.40 84.05 22.05 C 85.70 23.12 85.29 25.26 85.47 26.94 C 85.40 41.98 85.36 57.02 85.48 72.05 C 85.25 74.05 85.82 76.60 84.02 78.02 C 81.13 80.67 77.42 82.13 73.97 83.89 C 76.44 81.89 78.81 79.74 81.31 77.77 C 82.27 77.46 83.23 77.15 84.19 76.85 C 84.21 73.78 84.21 70.70 84.09 67.62 C 84.19 65.28 83.11 63.17 81.95 61.23 C 82.93 56.21 83.33 51.10 83.23 45.98 C 83.11 38.86 83.40 31.73 83.82 24.62 C 82.41 24.70 81.00 24.79 79.59 24.87 C 79.19 23.42 79.25 21.68 78.17 20.52 C 75.28 17.97 72.17 15.70 69.31 13.11 Z" />
<path fill="#acbaae" opacity="0.87" d=" M 35.97 16.70 C 38.70 15.97 41.41 15.18 44.05 14.16 C 42.23 16.07 40.47 18.04 38.78 20.07 C 40.26 19.75 41.74 19.44 43.20 19.05 C 39.78 21.23 36.56 23.70 33.23 26.01 C 30.67 27.34 27.94 28.32 25.14 29.02 C 29.56 25.41 34.05 21.87 38.20 17.96 C 31.77 20.89 24.68 23.87 20.59 29.95 C 20.12 28.94 19.64 27.94 19.17 26.94 C 16.76 34.10 18.13 41.70 18.41 49.06 C 17.60 49.75 16.78 50.43 15.97 51.12 C 16.02 42.18 15.45 33.23 16.08 24.30 C 17.63 23.38 19.18 22.46 20.73 21.55 C 21.08 22.36 21.43 23.17 21.77 23.99 C 26.52 21.59 30.91 18.45 35.97 16.70 Z" />
<path fill="#5f6a6f" opacity="0.85" d=" M 51.99 14.78 C 55.83 16.82 59.58 19.03 63.09 21.60 C 62.84 23.12 62.60 24.63 62.36 26.15 C 63.86 26.27 65.35 26.39 66.85 26.51 C 65.90 27.99 64.94 29.48 64.00 30.98 C 64.47 32.81 65.65 34.80 64.73 36.68 C 63.30 39.87 60.93 42.49 58.74 45.17 C 55.74 41.84 52.91 37.75 53.06 33.07 C 53.47 31.21 54.77 29.73 55.75 28.14 C 54.52 28.27 53.30 28.39 52.08 28.51 C 51.85 28.05 51.62 27.59 51.40 27.12 C 53.16 26.15 54.91 25.16 56.65 24.13 C 55.38 23.74 54.12 23.35 52.85 22.96 C 51.14 22.59 49.32 21.62 47.57 22.26 C 46.96 24.26 46.95 26.38 46.86 28.45 C 45.65 28.13 44.44 27.80 43.23 27.47 C 37.71 35.97 31.01 43.61 24.73 51.54 C 23.91 52.48 23.06 53.38 22.20 54.28 C 22.28 47.19 21.83 40.05 23.13 33.04 C 25.75 32.56 28.52 32.33 30.87 30.97 C 32.10 29.57 32.53 27.69 33.23 26.01 C 36.56 23.70 39.78 21.23 43.20 19.05 C 46.27 17.33 49.69 16.45 53.21 16.53 C 52.91 16.09 52.30 15.22 51.99 14.78 Z" />
<path fill="#ccdddf" opacity="1.00" d=" M 20.59 29.95 C 24.68 23.87 31.77 20.89 38.20 17.96 C 34.05 21.87 29.56 25.41 25.14 29.02 C 23.64 29.41 22.11 29.67 20.59 29.95 Z" />
<path fill="#353f8b" opacity="0.80" d=" M 71.56 18.32 C 73.78 19.01 76.01 19.67 78.17 20.52 C 79.25 21.68 79.19 23.42 79.59 24.87 C 81.00 24.79 82.41 24.70 83.82 24.62 C 83.40 31.73 83.11 38.86 83.23 45.98 C 82.67 45.96 81.57 45.92 81.02 45.90 C 81.23 43.24 81.30 40.58 81.36 37.92 C 80.17 38.85 78.99 39.78 77.82 40.72 C 76.90 35.86 77.54 30.64 80.89 26.80 C 79.91 27.18 78.94 27.56 77.97 27.94 C 73.93 25.20 69.92 22.41 65.90 19.66 C 67.82 20.02 69.77 20.23 71.71 20.47 C 71.66 19.75 71.61 19.04 71.56 18.32 Z" />
<path fill="#7b8db4" opacity="0.90" d=" M 65.90 19.66 C 69.92 22.41 73.93 25.20 77.97 27.94 C 78.94 27.56 79.91 27.18 80.89 26.80 C 77.54 30.64 76.90 35.86 77.82 40.72 C 79.63 48.12 79.07 55.74 78.48 63.24 C 78.26 56.29 78.77 49.29 77.67 42.39 C 76.29 47.55 76.60 52.92 76.26 58.20 C 76.34 53.58 76.23 48.96 75.88 44.35 C 76.17 39.71 76.98 34.89 75.62 30.34 C 72.50 26.55 67.64 24.85 63.73 22.03 C 64.45 21.24 65.18 20.45 65.90 19.66 Z" />
<path fill="#080339" opacity="0.76" d=" M 47.57 22.26 C 49.32 21.62 51.14 22.59 52.85 22.96 C 52.34 24.34 51.81 25.71 51.40 27.12 C 51.62 27.59 51.85 28.05 52.08 28.51 C 51.04 31.87 51.10 35.44 52.13 38.81 C 51.50 39.62 50.88 40.44 50.27 41.28 C 50.13 40.60 49.84 39.24 49.70 38.57 C 48.96 39.57 48.22 40.58 47.55 41.63 C 47.33 41.98 46.89 42.68 46.66 43.03 C 44.22 46.66 41.49 50.08 38.55 53.32 C 37.97 52.49 37.38 51.66 36.80 50.84 C 40.30 46.96 44.01 43.12 46.53 38.50 C 48.30 35.39 47.65 31.74 46.86 28.45 C 46.95 26.38 46.96 24.26 47.57 22.26 Z" />
<path fill="#4f5786" opacity="0.87" d=" M 62.36 26.15 C 62.60 24.63 62.84 23.12 63.09 21.60 L 63.73 22.03 C 67.64 24.85 72.50 26.55 75.62 30.34 C 76.98 34.89 76.17 39.71 75.88 44.35 L 75.67 43.54 C 75.54 43.05 75.27 42.07 75.14 41.57 C 70.24 42.68 64.70 43.64 62.00 48.48 C 60.90 47.39 59.80 46.30 58.74 45.17 C 60.93 42.49 63.30 39.87 64.73 36.68 C 65.65 34.80 64.47 32.81 64.00 30.98 C 64.94 29.48 65.90 27.99 66.85 26.51 C 65.35 26.39 63.86 26.27 62.36 26.15 Z" />
<path fill="#c4b495" opacity="1.00" d=" M 14.02 51.01 C 14.24 41.63 13.38 32.21 14.51 22.87 C 14.90 40.10 15.29 57.34 15.34 74.58 L 15.09 75.39 C 14.97 75.80 14.73 76.63 14.61 77.04 C 13.37 68.41 14.36 59.68 14.02 51.01 Z" />
<path fill="#a6afb2" opacity="0.95" d=" M 52.85 22.96 C 54.12 23.35 55.38 23.74 56.65 24.13 C 54.91 25.16 53.16 26.15 51.40 27.12 C 51.81 25.71 52.34 24.34 52.85 22.96 Z" />
<path fill="#657e86" opacity="0.94" d=" M 25.14 29.02 C 27.94 28.32 30.67 27.34 33.23 26.01 C 32.53 27.69 32.10 29.57 30.87 30.97 C 28.52 32.33 25.75 32.56 23.13 33.04 C 21.83 40.05 22.28 47.19 22.20 54.28 C 22.08 56.29 21.87 58.30 21.68 60.30 C 21.10 55.19 20.44 50.09 19.61 45.02 C 19.19 46.36 18.77 47.70 18.41 49.06 C 18.13 41.70 16.76 34.10 19.17 26.94 C 19.64 27.94 20.12 28.94 20.59 29.95 C 22.11 29.67 23.64 29.41 25.14 29.02 Z" />
<path fill="#717d88" opacity="0.81" d=" M 43.23 27.47 C 44.44 27.80 45.65 28.13 46.86 28.45 C 47.65 31.74 48.30 35.39 46.53 38.50 C 44.01 43.12 40.30 46.96 36.80 50.84 C 35.59 51.90 34.32 52.88 32.99 53.79 C 33.37 52.13 33.73 50.47 34.08 48.81 C 33.17 49.80 32.25 50.79 31.40 51.83 C 30.49 51.79 29.58 51.76 28.66 51.72 C 27.35 51.67 26.04 51.61 24.73 51.54 C 31.01 43.61 37.71 35.97 43.23 27.47 Z" />
<path fill="#cdccb9" opacity="0.91" d=" M 52.08 28.51 C 53.30 28.39 54.52 28.27 55.75 28.14 C 54.77 29.73 53.47 31.21 53.06 33.07 C 52.91 37.75 55.74 41.84 58.74 45.17 C 59.80 46.30 60.90 47.39 62.00 48.48 C 61.74 48.87 61.22 49.65 60.95 50.04 C 57.96 46.34 54.81 42.75 52.13 38.81 C 51.10 35.44 51.04 31.87 52.08 28.51 Z" />
<path fill="#4e58a0" opacity="0.80" d=" M 77.82 40.72 C 78.99 39.78 80.17 38.85 81.36 37.92 C 81.30 40.58 81.23 43.24 81.02 45.90 C 80.84 50.97 78.69 56.70 81.95 61.23 C 83.11 63.17 84.19 65.28 84.09 67.62 C 83.61 70.08 82.98 72.50 82.37 74.92 C 74.35 73.59 69.25 81.68 61.60 82.35 C 63.03 81.14 64.40 79.85 65.82 78.63 C 69.64 76.65 73.75 74.99 76.99 72.09 C 78.56 69.50 78.16 66.17 78.48 63.24 C 79.07 55.74 79.63 48.12 77.82 40.72 Z" />
<path fill="#96a5b3" opacity="0.97" d=" M 47.55 41.63 C 48.22 40.58 48.96 39.57 49.70 38.57 C 49.84 39.24 50.13 40.60 50.27 41.28 C 50.19 44.76 50.00 48.25 49.48 51.71 C 47.59 48.70 47.40 45.09 47.55 41.63 Z" />
<path fill="#0c0642" opacity="0.87" d=" M 52.13 38.81 C 54.81 42.75 57.96 46.34 60.95 50.04 C 62.97 52.37 65.40 54.28 67.86 56.10 C 67.80 54.15 67.72 52.20 67.66 50.25 C 68.00 50.46 68.67 50.88 69.01 51.09 C 70.48 55.43 69.41 59.94 66.42 63.35 C 66.41 61.38 66.41 59.42 66.38 57.45 C 63.43 61.21 62.01 66.13 58.13 69.14 C 55.07 71.58 51.23 74.24 47.11 73.06 C 42.28 71.49 38.69 67.59 35.36 63.95 C 34.70 62.05 34.25 60.09 33.74 58.14 C 32.77 58.15 31.80 58.16 30.82 58.17 C 30.47 59.53 30.12 60.88 29.71 62.22 C 28.85 58.79 28.52 55.25 28.66 51.72 C 29.58 51.76 30.49 51.79 31.40 51.83 C 30.96 53.05 30.54 54.28 30.15 55.51 C 31.11 54.96 32.06 54.38 32.99 53.79 C 34.32 52.88 35.59 51.90 36.80 50.84 C 37.38 51.66 37.97 52.49 38.55 53.32 C 38.67 53.69 38.91 54.43 39.03 54.80 C 39.24 54.92 39.65 55.17 39.86 55.29 C 41.08 55.82 42.33 56.28 43.58 56.75 C 45.29 53.67 47.31 50.48 46.93 46.78 C 46.86 45.53 46.74 44.28 46.66 43.03 C 46.89 42.68 47.33 41.98 47.55 41.63 C 47.40 45.09 47.59 48.70 49.48 51.71 C 50.00 48.25 50.19 44.76 50.27 41.28 C 50.88 40.44 51.50 39.62 52.13 38.81 M 51.14 41.95 C 50.90 47.34 51.24 52.76 50.54 58.13 C 50.24 55.95 49.97 53.76 49.64 51.59 C 49.35 51.85 48.76 52.37 48.47 52.63 C 47.74 56.83 48.58 61.15 48.24 65.39 C 48.37 67.45 47.41 70.33 49.76 71.45 C 55.61 69.80 61.20 64.94 61.17 58.46 C 61.38 57.99 61.80 57.04 62.01 56.57 C 58.89 56.09 56.23 57.78 54.33 60.13 C 54.16 59.31 53.82 57.67 53.65 56.85 L 53.58 56.17 C 53.64 55.71 53.75 54.80 53.81 54.35 C 55.94 56.28 58.53 55.69 60.75 54.27 C 59.93 53.46 59.07 52.67 58.20 51.91 C 55.99 48.49 53.56 45.22 51.14 41.95 M 46.87 62.51 C 47.14 59.26 47.08 55.98 46.72 52.73 C 44.55 55.68 43.57 59.94 46.87 62.51 M 36.76 56.10 C 36.93 61.51 39.58 67.13 44.79 69.33 C 45.44 70.02 46.20 70.60 46.92 71.22 C 47.10 69.21 47.47 67.17 47.13 65.16 C 46.16 63.21 44.72 61.52 43.19 59.98 C 42.59 56.91 39.17 56.89 36.76 56.10 Z" />
<path fill="#485aad" opacity="0.94" d=" M 62.00 48.48 C 64.70 43.64 70.24 42.68 75.14 41.57 C 75.27 42.07 75.54 43.05 75.67 43.54 C 75.29 50.31 75.37 57.85 70.19 62.98 L 69.52 63.37 C 70.83 59.72 72.01 55.69 70.34 51.93 C 70.01 51.72 69.34 51.30 69.01 51.09 C 68.67 50.88 68.00 50.46 67.66 50.25 C 67.72 52.20 67.80 54.15 67.86 56.10 C 65.40 54.28 62.97 52.37 60.95 50.04 C 61.22 49.65 61.74 48.87 62.00 48.48 Z" />
<path fill="#9baec5" opacity="0.98" d=" M 51.14 41.95 C 53.56 45.22 55.99 48.49 58.20 51.91 C 56.44 50.46 54.59 49.13 52.75 47.79 C 53.00 50.58 53.29 53.37 53.58 56.17 L 53.65 56.85 C 51.94 58.81 50.42 61.02 50.45 63.73 C 51.77 62.56 53.07 61.37 54.33 60.13 C 56.23 57.78 58.89 56.09 62.01 56.57 C 61.80 57.04 61.38 57.99 61.17 58.46 C 59.77 58.97 58.33 59.40 57.01 60.11 C 56.11 61.43 55.63 62.96 55.05 64.42 C 53.58 64.89 52.10 65.35 50.62 65.81 C 50.34 67.69 50.06 69.57 49.76 71.45 C 47.41 70.33 48.37 67.45 48.24 65.39 C 48.58 61.15 47.74 56.83 48.47 52.63 C 48.76 52.37 49.35 51.85 49.64 51.59 C 49.97 53.76 50.24 55.95 50.54 58.13 C 51.24 52.76 50.90 47.34 51.14 41.95 Z" />
<path fill="#bdccd4" opacity="1.00" d=" M 46.66 43.03 C 46.74 44.28 46.86 45.53 46.93 46.78 C 44.37 49.45 42.01 52.29 39.86 55.29 C 39.65 55.17 39.24 54.92 39.03 54.80 C 38.91 54.43 38.67 53.69 38.55 53.32 C 41.49 50.08 44.22 46.66 46.66 43.03 Z" />
<path fill="#b9c6d3" opacity="0.96" d=" M 76.26 58.20 C 76.60 52.92 76.29 47.55 77.67 42.39 C 78.77 49.29 78.26 56.29 78.48 63.24 C 78.16 66.17 78.56 69.50 76.99 72.09 C 73.75 74.99 69.64 76.65 65.82 78.63 C 65.33 78.70 64.37 78.85 63.88 78.92 C 66.39 77.14 68.85 75.28 71.46 73.64 C 72.80 72.68 74.34 71.88 75.32 70.51 C 75.94 67.67 75.86 64.74 76.08 61.85 C 76.16 60.64 76.22 59.42 76.26 58.20 Z" />
<path fill="#0b2391" opacity="0.87" d=" M 75.67 43.54 L 75.88 44.35 C 76.23 48.96 76.34 53.58 76.26 58.20 C 76.22 59.42 76.16 60.64 76.08 61.85 C 75.37 63.37 74.76 65.01 73.55 66.21 C 72.05 66.56 70.50 66.60 68.97 66.72 C 69.36 65.47 69.75 64.22 70.19 62.98 C 75.37 57.85 75.29 50.31 75.67 43.54 Z" />
<path fill="#294665" opacity="0.66" d=" M 19.61 45.02 C 20.44 50.09 21.10 55.19 21.68 60.30 C 21.42 64.12 20.54 67.86 19.92 71.63 C 18.56 72.39 17.19 73.15 15.87 73.97 L 16.39 73.31 C 17.35 72.05 18.55 70.75 18.48 69.06 C 18.65 62.39 17.88 55.72 18.41 49.06 C 18.77 47.70 19.19 46.36 19.61 45.02 Z" />
<path fill="#0825d0" opacity="0.82" d=" M 81.02 45.90 C 81.57 45.92 82.67 45.96 83.23 45.98 C 83.33 51.10 82.93 56.21 81.95 61.23 C 78.69 56.70 80.84 50.97 81.02 45.90 Z" />
<path fill="#748bae" opacity="0.96" d=" M 39.86 55.29 C 42.01 52.29 44.37 49.45 46.93 46.78 C 47.31 50.48 45.29 53.67 43.58 56.75 C 42.33 56.28 41.08 55.82 39.86 55.29 Z" />
<path fill="#6675a7" opacity="0.96" d=" M 52.75 47.79 C 54.59 49.13 56.44 50.46 58.20 51.91 C 59.07 52.67 59.93 53.46 60.75 54.27 C 58.53 55.69 55.94 56.28 53.81 54.35 C 53.75 54.80 53.64 55.71 53.58 56.17 C 53.29 53.37 53.00 50.58 52.75 47.79 Z" />
<path fill="#5788a7" opacity="0.80" d=" M 15.97 51.12 C 16.78 50.43 17.60 49.75 18.41 49.06 C 17.88 55.72 18.65 62.39 18.48 69.06 C 18.55 70.75 17.35 72.05 16.39 73.31 C 16.13 65.92 15.71 58.53 15.97 51.12 Z" />
<path fill="#bac7cf" opacity="0.93" d=" M 31.40 51.83 C 32.25 50.79 33.17 49.80 34.08 48.81 C 33.73 50.47 33.37 52.13 32.99 53.79 C 32.06 54.38 31.11 54.96 30.15 55.51 C 30.54 54.28 30.96 53.05 31.40 51.83 Z" />
<path fill="#537cae" opacity="0.82" d=" M 24.73 51.54 C 26.04 51.61 27.35 51.67 28.66 51.72 C 28.52 55.25 28.85 58.79 29.71 62.22 C 28.22 65.43 24.56 66.50 21.81 68.36 C 25.87 71.04 30.91 72.84 33.52 77.20 C 29.65 74.91 25.76 72.64 22.06 70.07 C 21.63 70.61 20.76 71.70 20.33 72.25 L 19.92 71.63 C 20.54 67.86 21.42 64.12 21.68 60.30 C 21.87 58.30 22.08 56.29 22.20 54.28 C 23.06 53.38 23.91 52.48 24.73 51.54 Z" />
<path fill="#a1bbc8" opacity="0.97" d=" M 69.01 51.09 C 69.34 51.30 70.01 51.72 70.34 51.93 C 72.01 55.69 70.83 59.72 69.52 63.37 C 68.58 63.88 67.64 64.41 66.71 64.95 C 62.88 66.92 59.98 70.17 57.19 73.37 C 53.75 74.69 50.05 74.99 46.43 75.53 C 42.31 72.19 36.84 69.47 35.36 63.95 C 38.69 67.59 42.28 71.49 47.11 73.06 C 51.23 74.24 55.07 71.58 58.13 69.14 C 62.01 66.13 63.43 61.21 66.38 57.45 C 66.41 59.42 66.41 61.38 66.42 63.35 C 69.41 59.94 70.48 55.43 69.01 51.09 Z" />
<path fill="#b7cddd" opacity="1.00" d=" M 46.87 62.51 C 43.57 59.94 44.55 55.68 46.72 52.73 C 47.08 55.98 47.14 59.26 46.87 62.51 Z" />
<path fill="#a0bcd4" opacity="1.00" d=" M 36.76 56.10 C 39.17 56.89 42.59 56.91 43.19 59.98 C 41.67 59.34 40.12 58.79 38.57 58.23 C 39.91 62.30 42.13 66.00 44.79 69.33 C 39.58 67.13 36.93 61.51 36.76 56.10 Z" />
<path fill="#597dc1" opacity="0.96" d=" M 50.45 63.73 C 50.42 61.02 51.94 58.81 53.65 56.85 C 53.82 57.67 54.16 59.31 54.33 60.13 C 53.07 61.37 51.77 62.56 50.45 63.73 Z" />
<path fill="#669fb6" opacity="0.93" d=" M 30.82 58.17 C 31.80 58.16 32.77 58.15 33.74 58.14 C 34.25 60.09 34.70 62.05 35.36 63.95 C 36.84 69.47 42.31 72.19 46.43 75.53 C 44.19 76.11 42.02 76.96 39.87 77.82 C 38.22 77.09 36.53 76.46 34.84 75.83 C 38.65 79.37 43.28 81.84 47.19 85.24 C 47.82 85.81 48.45 86.38 49.07 86.97 C 49.05 87.82 49.02 89.52 49.00 90.38 C 44.35 85.95 38.67 82.92 33.14 79.78 L 32.73 78.94 C 33.28 79.06 34.38 79.30 34.93 79.41 C 34.48 78.66 34.01 77.93 33.52 77.20 C 30.91 72.84 25.87 71.04 21.81 68.36 C 24.56 66.50 28.22 65.43 29.71 62.22 C 30.12 60.88 30.47 59.53 30.82 58.17 Z" />
<path fill="#5c82ab" opacity="0.96" d=" M 38.57 58.23 C 40.12 58.79 41.67 59.34 43.19 59.98 C 44.72 61.52 46.16 63.21 47.13 65.16 C 47.47 67.17 47.10 69.21 46.92 71.22 C 46.20 70.60 45.44 70.02 44.79 69.33 C 42.13 66.00 39.91 62.30 38.57 58.23 Z" />
<path fill="#6086a2" opacity="0.95" d=" M 57.01 60.11 C 58.33 59.40 59.77 58.97 61.17 58.46 C 61.20 64.94 55.61 69.80 49.76 71.45 C 50.06 69.57 50.34 67.69 50.62 65.81 C 52.10 65.35 53.58 64.89 55.05 64.42 C 55.63 62.96 56.11 61.43 57.01 60.11 Z" />
<path fill="#374c82" opacity="0.87" d=" M 73.55 66.21 C 74.76 65.01 75.37 63.37 76.08 61.85 C 75.86 64.74 75.94 67.67 75.32 70.51 C 74.34 71.88 72.80 72.68 71.46 73.64 C 71.50 72.91 71.59 71.44 71.64 70.70 C 68.59 72.14 65.53 73.59 62.65 75.35 C 64.05 72.86 65.34 70.31 66.76 67.84 C 66.32 67.62 65.45 67.19 65.01 66.98 C 65.57 66.29 66.13 65.61 66.71 64.95 C 67.64 64.41 68.58 63.88 69.52 63.37 L 70.19 62.98 C 69.75 64.22 69.36 65.47 68.97 66.72 C 70.50 66.60 72.05 66.56 73.55 66.21 Z" />
<path fill="#62807b" opacity="0.89" d=" M 57.19 73.37 C 59.98 70.17 62.88 66.92 66.71 64.95 C 66.13 65.61 65.57 66.29 65.01 66.98 C 65.45 67.19 66.32 67.62 66.76 67.84 C 65.34 70.31 64.05 72.86 62.65 75.35 C 60.02 77.26 57.17 78.85 54.24 80.26 C 55.14 77.93 56.06 75.60 57.19 73.37 Z" />
<path fill="#7c83a8" opacity="0.93" d=" M 82.37 74.92 C 82.98 72.50 83.61 70.08 84.09 67.62 C 84.21 70.70 84.21 73.78 84.19 76.85 C 83.23 77.15 82.27 77.46 81.31 77.77 C 73.98 79.56 68.43 85.10 61.77 88.38 C 62.34 86.88 62.91 85.38 63.49 83.89 C 58.69 86.70 53.89 89.52 49.00 92.17 L 49.00 91.25 L 49.00 90.38 C 52.84 87.18 57.13 84.56 61.60 82.35 C 69.25 81.68 74.35 73.59 82.37 74.92 Z" />
<path fill="#a1c7ca" opacity="0.98" d=" M 20.33 72.25 C 20.76 71.70 21.63 70.61 22.06 70.07 C 25.76 72.64 29.65 74.91 33.52 77.20 C 34.01 77.93 34.48 78.66 34.93 79.41 C 34.38 79.30 33.28 79.06 32.73 78.94 C 28.97 76.53 25.03 74.43 20.84 72.86 L 20.33 72.25 Z" />
<path fill="#869d8a" opacity="0.93" d=" M 62.65 75.35 C 65.53 73.59 68.59 72.14 71.64 70.70 C 71.59 71.44 71.50 72.91 71.46 73.64 C 68.85 75.28 66.39 77.14 63.88 78.92 C 62.95 79.09 62.02 79.28 61.10 79.49 C 57.06 80.29 53.84 83.02 50.15 84.66 C 46.88 82.15 43.55 79.69 39.87 77.82 C 42.02 76.96 44.19 76.11 46.43 75.53 C 50.05 74.99 53.75 74.69 57.19 73.37 C 56.06 75.60 55.14 77.93 54.24 80.26 C 57.17 78.85 60.02 77.26 62.65 75.35 Z" />
<path fill="#8ea197" opacity="0.81" d=" M 15.87 73.97 C 17.19 73.15 18.56 72.39 19.92 71.63 L 20.33 72.25 L 20.84 72.86 C 22.63 75.05 24.53 77.16 26.48 79.21 C 26.01 79.85 25.53 80.49 25.06 81.13 C 21.74 79.21 18.47 77.20 15.09 75.39 L 15.34 74.58 L 15.87 73.97 Z" />
<path fill="#627ba7" opacity="0.80" d=" M 20.84 72.86 C 25.03 74.43 28.97 76.53 32.73 78.94 L 33.14 79.78 C 35.53 86.54 43.30 88.26 49.00 91.25 L 49.00 92.17 C 48.99 93.51 48.97 94.85 48.94 96.20 C 45.73 94.30 42.61 92.27 39.45 90.30 C 34.92 86.84 30.04 83.89 25.06 81.13 C 25.53 80.49 26.01 79.85 26.48 79.21 C 24.53 77.16 22.63 75.05 20.84 72.86 Z" />
<path fill="#dde1d6" opacity="1.00" d=" M 15.09 75.39 C 18.47 77.20 21.74 79.21 25.06 81.13 C 30.04 83.89 34.92 86.84 39.45 90.30 C 39.02 90.51 38.15 90.94 37.72 91.15 C 29.94 86.57 22.26 81.83 14.61 77.04 C 14.73 76.63 14.97 75.80 15.09 75.39 Z" />
<path fill="#b3baa5" opacity="0.94" d=" M 34.84 75.83 C 36.53 76.46 38.22 77.09 39.87 77.82 C 43.55 79.69 46.88 82.15 50.15 84.66 C 49.41 84.80 47.93 85.10 47.19 85.24 C 43.28 81.84 38.65 79.37 34.84 75.83 Z" />
<path fill="#c5cbd5" opacity="1.00" d=" M 61.77 88.38 C 68.43 85.10 73.98 79.56 81.31 77.77 C 78.81 79.74 76.44 81.89 73.97 83.89 C 69.11 86.23 64.52 89.06 60.04 92.05 C 56.47 94.33 52.98 97.03 48.75 97.94 C 52.38 93.88 57.23 91.26 61.77 88.38 Z" />
<path fill="#080339" opacity="0.76" d=" M 50.15 84.66 C 53.84 83.02 57.06 80.29 61.10 79.49 C 57.03 81.90 53.17 84.61 49.07 86.97 C 48.45 86.38 47.82 85.81 47.19 85.24 C 47.93 85.10 49.41 84.80 50.15 84.66 Z" />
<path fill="#ccd9d7" opacity="1.00" d=" M 61.10 79.49 C 62.02 79.28 62.95 79.09 63.88 78.92 C 64.37 78.85 65.33 78.70 65.82 78.63 C 64.40 79.85 63.03 81.14 61.60 82.35 C 57.13 84.56 52.84 87.18 49.00 90.38 C 49.02 89.52 49.05 87.82 49.07 86.97 C 53.17 84.61 57.03 81.90 61.10 79.49 Z" />
<path fill="#3c4875" opacity="0.87" d=" M 33.14 79.78 C 38.67 82.92 44.35 85.95 49.00 90.38 L 49.00 91.25 C 43.30 88.26 35.53 86.54 33.14 79.78 Z" />
<path fill="#b9bca4" opacity="0.94" d=" M 49.00 92.17 C 53.89 89.52 58.69 86.70 63.49 83.89 C 62.91 85.38 62.34 86.88 61.77 88.38 C 57.23 91.26 52.38 93.88 48.75 97.94 C 44.82 96.11 41.29 93.58 37.72 91.15 C 38.15 90.94 39.02 90.51 39.45 90.30 C 42.61 92.27 45.73 94.30 48.94 96.20 C 48.97 94.85 48.99 93.51 49.00 92.17 Z" />
</svg>
