<?xml version="1.0" encoding="UTF-8" ?>
<!DOCTYPE svg PUBLIC "-//W3C//DTD SVG 1.1//EN" "http://www.w3.org/Graphics/SVG/1.1/DTD/svg11.dtd">
<svg width="100pt" height="100pt" viewBox="0 0 100 100" version="1.1" xmlns="http://www.w3.org/2000/svg">
<path fill="#0a0345" opacity="0.91" d=" M 48.40 0.00 L 50.46 0.00 C 56.67 4.44 63.34 8.19 69.33 12.94 L 68.45 12.92 C 61.65 9.69 56.21 4.00 49.01 1.58 C 48.57 1.81 47.70 2.27 47.27 2.50 C 45.57 3.51 43.84 4.48 42.20 5.60 C 40.35 6.91 38.41 8.08 36.63 9.49 C 29.01 13.56 21.95 18.57 14.46 22.87 C 13.41 33.88 14.18 44.96 14.04 56.00 C 14.31 62.99 13.17 70.12 14.82 77.00 C 22.20 82.14 30.15 86.44 37.74 91.26 C 41.35 93.59 44.87 96.10 48.75 97.98 C 57.97 94.92 65.05 87.69 73.97 83.90 C 66.48 90.11 57.66 94.36 49.77 100.00 L 48.53 100.00 C 37.20 91.90 25.10 84.97 13.27 77.67 C 13.05 59.23 13.06 40.79 13.28 22.36 C 25.10 15.08 36.89 7.75 48.40 0.00 Z" />
<path fill="#bec4b3" opacity="0.89" d=" M 49.01 1.58 C 56.21 4.00 61.65 9.69 68.45 12.92 C 67.21 12.93 65.97 12.96 64.74 12.99 C 61.33 10.58 57.22 10.15 53.21 9.72 C 49.90 9.23 49.58 5.26 49.04 2.63 L 49.01 1.58 Z" />
<path fill="#3c4875" opacity="0.87" d=" M 47.27 2.50 C 47.70 2.27 48.57 1.81 49.01 1.58 L 49.04 2.63 C 49.07 5.07 48.97 7.51 48.83 9.94 C 46.99 10.96 45.15 11.99 43.31 13.03 C 44.83 9.60 46.25 6.11 47.27 2.50 Z" />
<path fill="#737a8d" opacity="0.87" d=" M 42.20 5.60 C 43.84 4.48 45.57 3.51 47.27 2.50 C 46.25 6.11 44.83 9.60 43.31 13.03 C 45.15 11.99 46.99 10.96 48.83 9.94 C 50.75 13.50 53.94 16.04 57.35 18.08 C 54.52 17.79 51.73 17.26 48.99 16.52 C 47.05 17.50 45.12 18.49 43.19 19.49 C 41.78 19.68 40.36 19.79 38.95 19.92 C 40.65 17.95 42.41 16.04 44.16 14.12 C 41.46 14.97 38.72 15.70 36.03 16.61 C 38.17 12.98 39.78 9.05 42.20 5.60 Z" />
<path fill="#919ea0" opacity="0.89" d=" M 49.04 2.63 C 49.58 5.26 49.90 9.23 53.21 9.72 C 57.22 10.15 61.33 10.58 64.74 12.99 C 64.14 14.79 63.53 16.58 62.93 18.38 C 58.15 15.70 53.85 12.20 48.83 9.94 C 48.97 7.51 49.07 5.07 49.04 2.63 Z" />
<path fill="#cdccb9" opacity="0.91" d=" M 36.63 9.49 C 38.41 8.08 40.35 6.91 42.20 5.60 C 39.78 9.05 38.17 12.98 36.03 16.61 C 31.11 18.73 26.53 21.51 21.88 24.15 C 21.50 23.29 21.12 22.44 20.74 21.59 C 26.26 17.91 33.39 15.75 36.63 9.49 Z" />
<path fill="#dbdbc8" opacity="0.93" d=" M 14.46 22.87 C 21.95 18.57 29.01 13.56 36.63 9.49 C 33.39 15.75 26.26 17.91 20.74 21.59 C 19.20 22.51 17.68 23.46 16.15 24.39 C 16.73 25.42 17.31 26.46 17.89 27.50 C 17.44 27.46 16.53 27.38 16.08 27.34 C 15.75 35.34 15.99 43.35 16.44 51.35 C 15.66 58.66 16.31 66.00 16.37 73.33 L 15.87 74.02 L 15.35 74.64 C 15.18 57.38 15.09 40.11 14.46 22.87 Z" />
<path fill="#c2ccd0" opacity="0.98" d=" M 48.83 9.94 C 53.85 12.20 58.15 15.70 62.93 18.38 C 63.90 18.81 64.89 19.19 65.90 19.53 C 65.28 20.40 64.65 21.26 64.03 22.13 C 61.82 20.75 59.58 19.42 57.35 18.08 C 53.94 16.04 50.75 13.50 48.83 9.94 Z" />
<path fill="#6f78b1" opacity="0.82" d=" M 64.74 12.99 C 65.97 12.96 67.21 12.93 68.45 12.92 L 69.33 12.94 C 72.37 15.78 75.51 18.55 78.88 21.00 C 76.40 19.96 73.84 19.10 71.31 18.20 C 71.77 19.12 72.23 20.04 72.69 20.95 C 70.42 20.51 68.14 20.12 65.90 19.53 C 64.89 19.19 63.90 18.81 62.93 18.38 C 63.53 16.58 64.14 14.79 64.74 12.99 Z" />
<path fill="#393b91" opacity="1.00" d=" M 69.33 12.94 C 74.57 16.34 80.78 18.55 85.06 23.24 C 85.69 26.11 85.49 29.07 85.51 31.99 C 85.34 45.35 85.44 58.71 85.50 72.06 C 85.27 74.06 85.78 76.57 84.03 78.01 C 81.13 80.67 77.41 82.10 73.97 83.90 C 76.45 81.89 78.78 79.71 81.30 77.76 C 82.27 77.43 83.24 77.11 84.23 76.82 C 84.20 73.76 84.22 70.69 84.05 67.62 C 84.05 65.32 82.98 63.24 81.98 61.24 C 82.86 56.20 83.32 51.10 83.25 45.99 C 83.16 38.86 83.38 31.74 83.81 24.63 C 82.11 24.39 80.42 24.08 78.72 23.84 C 78.97 23.00 79.23 22.17 79.48 21.34 L 78.88 21.00 C 75.51 18.55 72.37 15.78 69.33 12.94 Z" />
<path fill="#a2ae9c" opacity="0.87" d=" M 36.03 16.61 C 38.72 15.70 41.46 14.97 44.16 14.12 C 42.41 16.04 40.65 17.95 38.95 19.92 C 40.36 19.79 41.78 19.68 43.19 19.49 C 41.74 20.33 40.31 21.22 38.89 22.12 C 34.60 24.97 30.03 27.41 25.14 29.06 C 29.72 25.59 34.16 21.90 38.27 17.88 C 32.10 20.47 25.86 23.57 21.29 28.59 C 21.34 29.05 21.43 29.96 21.47 30.41 C 21.90 32.98 22.11 35.57 22.30 38.16 C 22.12 39.86 21.94 41.56 21.86 43.26 C 21.34 37.93 21.00 32.52 19.18 27.43 C 16.87 35.27 19.70 43.66 16.44 51.35 C 15.99 43.35 15.75 35.34 16.08 27.34 C 16.53 27.38 17.44 27.46 17.89 27.50 C 17.31 26.46 16.73 25.42 16.15 24.39 C 17.68 23.46 19.20 22.51 20.74 21.59 C 21.12 22.44 21.50 23.29 21.88 24.15 C 26.53 21.51 31.11 18.73 36.03 16.61 Z" />
<path fill="#505773" opacity="0.87" d=" M 43.19 19.49 C 45.12 18.49 47.05 17.50 48.99 16.52 C 51.73 17.26 54.52 17.79 57.35 18.08 C 59.58 19.42 61.82 20.75 64.03 22.13 C 67.58 24.47 71.39 26.50 74.52 29.41 C 77.28 32.06 75.93 36.27 75.87 39.64 C 75.83 40.01 75.75 40.76 75.71 41.13 C 73.31 40.39 70.92 39.63 68.44 39.26 C 68.07 35.90 67.97 32.46 66.98 29.20 C 65.60 25.45 61.71 24.74 58.18 24.46 C 58.74 26.18 59.29 27.90 59.87 29.61 C 57.31 28.19 54.72 26.81 52.10 25.49 L 51.74 24.68 C 51.30 23.98 50.82 23.30 50.31 22.66 C 48.92 23.29 47.57 24.01 46.25 24.77 C 44.34 24.69 42.43 24.90 40.53 24.99 C 40.02 25.23 39.01 25.69 38.50 25.92 C 38.57 25.58 38.70 24.89 38.77 24.55 C 38.83 23.74 38.87 22.93 38.89 22.12 C 40.31 21.22 41.74 20.33 43.19 19.49 Z" />
<path fill="#ccdddf" opacity="1.00" d=" M 21.29 28.59 C 25.86 23.57 32.10 20.47 38.27 17.88 C 34.16 21.90 29.72 25.59 25.14 29.06 C 23.92 29.53 22.70 29.98 21.47 30.41 C 21.43 29.96 21.34 29.05 21.29 28.59 Z" />
<path fill="#353e8a" opacity="0.80" d=" M 71.31 18.20 C 73.84 19.10 76.40 19.96 78.88 21.00 L 79.48 21.34 C 79.23 22.17 78.97 23.00 78.72 23.84 C 80.42 24.08 82.11 24.39 83.81 24.63 C 83.38 31.74 83.16 38.86 83.25 45.99 C 82.68 45.97 81.55 45.92 80.98 45.89 C 81.21 43.22 81.28 40.54 81.38 37.86 C 80.18 38.80 78.99 39.74 77.81 40.70 C 76.85 35.80 77.80 30.72 80.79 26.70 C 79.87 27.14 78.94 27.57 78.01 28.00 C 73.95 25.21 69.90 22.40 65.90 19.53 C 68.14 20.12 70.42 20.51 72.69 20.95 C 72.23 20.04 71.77 19.12 71.31 18.20 Z" />
<path fill="#7b8db4" opacity="0.90" d=" M 65.90 19.53 C 69.90 22.40 73.95 25.21 78.01 28.00 C 78.94 27.57 79.87 27.14 80.79 26.70 C 77.80 30.72 76.85 35.80 77.81 40.70 C 79.47 48.06 79.23 55.62 78.48 63.08 C 78.40 56.17 78.62 49.23 77.62 42.37 C 76.61 47.60 76.39 52.92 76.23 58.22 C 76.44 52.02 75.91 45.83 75.87 39.64 C 75.93 36.27 77.28 32.06 74.52 29.41 C 71.39 26.50 67.58 24.47 64.03 22.13 C 64.65 21.26 65.28 20.40 65.90 19.53 Z" />
<path fill="#69868d" opacity="0.90" d=" M 25.14 29.06 C 30.03 27.41 34.60 24.97 38.89 22.12 C 38.87 22.93 38.83 23.74 38.77 24.55 C 36.34 26.98 33.97 29.49 31.26 31.60 C 28.66 32.76 25.94 33.59 23.23 34.43 C 22.90 35.67 22.58 36.91 22.30 38.16 C 22.11 35.57 21.90 32.98 21.47 30.41 C 22.70 29.98 23.92 29.53 25.14 29.06 Z" />
<path fill="#718081" opacity="0.84" d=" M 46.25 24.77 C 47.57 24.01 48.92 23.29 50.31 22.66 C 50.82 23.30 51.30 23.98 51.74 24.68 C 51.60 25.34 51.32 26.67 51.18 27.34 C 50.49 26.13 49.75 24.95 49.03 23.77 C 47.44 29.39 47.05 35.24 46.97 41.06 C 42.99 39.68 39.04 38.06 35.71 35.42 C 37.96 32.28 39.64 28.76 40.53 24.99 C 42.43 24.90 44.34 24.69 46.25 24.77 Z" />
<path fill="#c4b495" opacity="1.00" d=" M 14.04 56.00 C 14.18 44.96 13.41 33.88 14.46 22.87 C 15.09 40.11 15.18 57.38 15.35 74.64 L 15.16 75.46 C 15.07 75.85 14.91 76.61 14.82 77.00 C 13.17 70.12 14.31 62.99 14.04 56.00 Z" />
<path fill="#0a063c" opacity="0.78" d=" M 49.03 23.77 C 49.75 24.95 50.49 26.13 51.18 27.34 C 51.45 31.98 51.48 36.64 51.05 41.27 C 48.63 42.11 46.27 43.09 43.96 44.17 C 41.93 43.59 39.87 43.15 37.83 42.67 C 36.13 45.17 34.83 47.96 34.53 51.00 C 33.84 51.67 33.14 52.34 32.44 53.00 L 31.79 52.52 C 30.45 49.02 31.72 45.28 32.47 41.80 C 31.36 41.70 30.25 41.60 29.13 41.55 C 30.58 41.36 32.02 41.14 33.46 40.94 C 32.07 38.01 31.32 34.84 31.26 31.60 C 33.97 29.49 36.34 26.98 38.77 24.55 C 38.70 24.89 38.57 25.58 38.50 25.92 C 37.45 29.05 35.89 32.07 35.71 35.42 C 39.04 38.06 42.99 39.68 46.97 41.06 C 47.05 35.24 47.44 29.39 49.03 23.77 Z" />
<path fill="#cdccb9" opacity="0.91" d=" M 40.53 24.99 C 39.64 28.76 37.96 32.28 35.71 35.42 C 35.89 32.07 37.45 29.05 38.50 25.92 C 39.01 25.69 40.02 25.23 40.53 24.99 Z" />
<path fill="#cdccb9" opacity="0.91" d=" M 51.18 27.34 C 51.32 26.67 51.60 25.34 51.74 24.68 L 52.10 25.49 C 53.08 30.67 53.33 35.95 53.94 41.17 C 52.97 41.23 52.01 41.25 51.05 41.27 C 51.48 36.64 51.45 31.98 51.18 27.34 Z" />
<path fill="#697184" opacity="0.86" d=" M 58.18 24.46 C 61.71 24.74 65.60 25.45 66.98 29.20 L 66.39 28.85 C 64.61 27.86 62.80 26.94 60.99 26.00 C 61.60 29.05 62.80 32.15 62.28 35.30 C 61.42 37.60 59.14 38.90 57.18 40.18 C 56.11 40.55 55.03 40.88 53.94 41.17 C 53.33 35.95 53.08 30.67 52.10 25.49 C 54.72 26.81 57.31 28.19 59.87 29.61 C 59.29 27.90 58.74 26.18 58.18 24.46 Z" />
<path fill="#0a063a" opacity="0.75" d=" M 60.99 26.00 C 62.80 26.94 64.61 27.86 66.39 28.85 C 66.65 32.27 66.58 35.72 65.84 39.08 C 65.77 39.41 65.63 40.08 65.56 40.41 C 67.79 40.91 70.03 41.39 72.25 41.90 C 69.88 42.69 67.26 43.55 65.96 45.88 C 63.14 43.82 60.22 41.90 57.18 40.18 C 59.14 38.90 61.42 37.60 62.28 35.30 C 62.80 32.15 61.60 29.05 60.99 26.00 Z" />
<path fill="#577698" opacity="0.80" d=" M 19.18 27.43 C 21.00 32.52 21.34 37.93 21.86 43.26 C 22.08 46.13 22.54 48.96 22.96 51.80 C 25.14 49.55 27.32 47.29 29.53 45.06 C 28.94 43.91 28.35 42.77 27.75 41.62 C 28.10 41.60 28.79 41.57 29.13 41.55 C 30.25 41.60 31.36 41.70 32.47 41.80 C 31.72 45.28 30.45 49.02 31.79 52.52 C 32.34 54.02 32.91 55.51 33.57 56.96 C 30.57 56.90 27.60 57.38 24.73 58.22 C 23.85 60.50 22.89 62.75 21.95 65.01 C 21.11 58.33 20.73 51.59 19.58 44.95 C 18.51 50.57 18.05 56.31 18.45 62.02 C 18.55 65.86 19.49 70.35 16.37 73.33 C 16.31 66.00 15.66 58.66 16.44 51.35 C 19.70 43.66 16.87 35.27 19.18 27.43 Z" />
<path fill="#cdccb9" opacity="0.91" d=" M 66.39 28.85 L 66.98 29.20 C 67.97 32.46 68.07 35.90 68.44 39.26 C 67.57 39.19 66.70 39.13 65.84 39.08 C 66.58 35.72 66.65 32.27 66.39 28.85 Z" />
<path fill="#576561" opacity="0.79" d=" M 23.23 34.43 C 25.94 33.59 28.66 32.76 31.26 31.60 C 31.32 34.84 32.07 38.01 33.46 40.94 C 32.02 41.14 30.58 41.36 29.13 41.55 C 28.79 41.57 28.10 41.60 27.75 41.62 C 28.35 42.77 28.94 43.91 29.53 45.06 C 27.32 47.29 25.14 49.55 22.96 51.80 C 22.54 48.96 22.08 46.13 21.86 43.26 C 21.94 41.56 22.12 39.86 22.30 38.16 C 22.58 36.91 22.90 35.67 23.23 34.43 Z" />
<path fill="#4e58a0" opacity="0.80" d=" M 77.81 40.70 C 78.99 39.74 80.18 38.80 81.38 37.86 C 81.28 40.54 81.21 43.22 80.98 45.89 C 80.71 50.99 78.94 56.61 81.98 61.24 C 82.98 63.24 84.05 65.32 84.05 67.62 C 83.61 70.05 83.01 72.45 82.41 74.84 C 79.43 74.83 76.29 75.02 73.76 76.78 C 70.01 79.26 66.02 81.37 61.63 82.40 C 63.08 81.18 64.47 79.87 65.92 78.65 C 69.84 76.49 74.36 74.92 77.37 71.49 C 78.33 68.80 78.28 65.89 78.48 63.08 C 79.23 55.62 79.47 48.06 77.81 40.70 Z" />
<path fill="#475aac" opacity="0.94" d=" M 65.56 40.41 C 65.63 40.08 65.77 39.41 65.84 39.08 C 66.70 39.13 67.57 39.19 68.44 39.26 C 70.92 39.63 73.31 40.39 75.71 41.13 C 75.08 45.40 75.24 49.73 74.81 54.01 C 74.54 57.56 72.32 60.47 70.37 63.28 C 68.38 64.63 66.32 65.87 64.41 67.33 C 63.40 59.83 65.70 52.60 67.91 45.54 C 70.11 44.53 72.27 43.43 74.44 42.37 C 73.90 42.25 72.80 42.02 72.25 41.90 C 70.03 41.39 67.79 40.91 65.56 40.41 Z" />
<path fill="#0a0345" opacity="0.91" d=" M 53.94 41.17 C 55.03 40.88 56.11 40.55 57.18 40.18 C 60.22 41.90 63.14 43.82 65.96 45.88 C 64.71 50.20 63.13 54.49 62.84 59.02 C 62.58 62.23 62.02 65.41 60.96 68.46 C 60.65 64.38 60.29 60.24 59.01 56.33 C 58.72 55.76 58.14 54.64 57.86 54.07 C 54.87 56.54 51.03 59.03 50.52 63.22 C 49.91 68.19 50.09 73.25 48.89 78.15 C 48.87 77.74 48.83 76.93 48.80 76.53 C 48.42 72.38 48.45 68.20 47.94 64.06 C 47.58 60.46 45.31 57.49 43.14 54.75 C 41.69 55.02 40.05 54.79 38.80 55.67 C 37.57 57.49 37.10 59.68 36.49 61.76 C 36.15 62.95 35.79 64.12 35.41 65.29 C 35.10 61.70 34.91 58.11 34.72 54.52 C 34.15 54.14 33.01 53.38 32.44 53.00 C 33.14 52.34 33.84 51.67 34.53 51.00 L 35.39 51.33 C 38.59 52.38 41.89 53.00 45.17 53.74 C 46.80 51.03 47.47 47.86 45.54 45.11 C 45.14 44.88 44.35 44.41 43.96 44.17 C 46.27 43.09 48.63 42.11 51.05 41.27 C 52.01 41.25 52.97 41.23 53.94 41.17 M 51.99 46.99 C 50.59 48.40 51.53 50.48 51.46 52.21 C 51.93 52.67 52.87 53.59 53.34 54.05 C 55.89 53.40 58.54 52.99 60.92 51.82 C 62.36 49.78 61.21 47.08 61.15 44.80 L 60.27 45.08 C 59.67 44.73 58.47 44.02 57.87 43.66 C 55.87 44.68 53.67 45.45 51.99 46.99 M 45.71 54.52 C 46.99 55.77 48.20 57.09 49.48 58.35 C 50.06 57.29 50.66 56.24 51.29 55.21 C 50.89 54.61 50.10 53.41 49.70 52.81 C 48.37 53.38 47.04 53.95 45.71 54.52 Z" />
<path fill="#0b298d" opacity="0.87" d=" M 75.71 41.13 C 75.75 40.76 75.83 40.01 75.87 39.64 C 75.91 45.83 76.44 52.02 76.23 58.22 C 76.16 59.74 76.10 61.25 76.00 62.76 C 75.40 64.29 74.73 65.78 74.10 67.30 C 72.41 67.06 70.71 66.82 69.02 66.59 C 69.45 65.48 69.89 64.37 70.37 63.28 C 72.32 60.47 74.54 57.56 74.81 54.01 C 75.24 49.73 75.08 45.40 75.71 41.13 Z" />
<path fill="#a6b3c9" opacity="0.96" d=" M 72.25 41.90 C 72.80 42.02 73.90 42.25 74.44 42.37 C 72.27 43.43 70.11 44.53 67.91 45.54 C 65.70 52.60 63.40 59.83 64.41 67.33 C 64.08 67.77 63.43 68.67 63.10 69.11 C 62.18 69.54 61.27 69.96 60.36 70.40 C 60.51 69.91 60.81 68.95 60.96 68.46 C 62.02 65.41 62.58 62.23 62.84 59.02 C 63.13 54.49 64.71 50.20 65.96 45.88 C 67.26 43.55 69.88 42.69 72.25 41.90 Z" />
<path fill="#b4bdbd" opacity="0.91" d=" M 37.83 42.67 C 39.87 43.15 41.93 43.59 43.96 44.17 C 44.35 44.41 45.14 44.88 45.54 45.11 C 43.19 45.23 40.81 45.18 38.49 45.63 C 36.97 47.21 36.25 49.36 35.39 51.33 L 34.53 51.00 C 34.83 47.96 36.13 45.17 37.83 42.67 Z" />
<path fill="#b9c5d3" opacity="0.96" d=" M 76.23 58.22 C 76.39 52.92 76.61 47.60 77.62 42.37 C 78.62 49.23 78.40 56.17 78.48 63.08 C 78.28 65.89 78.33 68.80 77.37 71.49 C 74.36 74.92 69.84 76.49 65.92 78.65 C 65.17 78.75 63.68 78.95 62.93 79.05 C 67.03 76.18 71.86 74.21 75.33 70.56 C 75.92 68.00 75.80 65.36 76.00 62.76 C 76.10 61.25 76.16 59.74 76.23 58.22 Z" />
<path fill="#cdccb9" opacity="0.91" d=" M 51.99 46.99 C 53.67 45.45 55.87 44.68 57.87 43.66 C 58.47 44.02 59.67 44.73 60.27 45.08 C 58.33 45.77 56.24 46.25 54.57 47.50 C 53.33 48.92 52.46 50.62 51.46 52.21 C 51.53 50.48 50.59 48.40 51.99 46.99 Z" />
<path fill="#284165" opacity="0.66" d=" M 19.58 44.95 C 20.73 51.59 21.11 58.33 21.95 65.01 C 21.09 67.15 20.31 69.33 19.72 71.56 C 18.41 72.35 17.13 73.16 15.87 74.02 L 16.37 73.33 C 19.49 70.35 18.55 65.86 18.45 62.02 C 18.05 56.31 18.51 50.57 19.58 44.95 Z" />
<path fill="#6d7c95" opacity="0.95" d=" M 38.49 45.63 C 40.81 45.18 43.19 45.23 45.54 45.11 C 47.47 47.86 46.80 51.03 45.17 53.74 C 41.89 53.00 38.59 52.38 35.39 51.33 C 36.25 49.36 36.97 47.21 38.49 45.63 Z" />
<path fill="#5c6e9a" opacity="0.96" d=" M 60.27 45.08 L 61.15 44.80 C 61.21 47.08 62.36 49.78 60.92 51.82 C 58.54 52.99 55.89 53.40 53.34 54.05 C 52.87 53.59 51.93 52.67 51.46 52.21 C 52.46 50.62 53.33 48.92 54.57 47.50 C 56.24 46.25 58.33 45.77 60.27 45.08 Z" />
<path fill="#0825d0" opacity="0.82" d=" M 80.98 45.89 C 81.55 45.92 82.68 45.97 83.25 45.99 C 83.32 51.10 82.86 56.20 81.98 61.24 C 78.94 56.61 80.71 50.99 80.98 45.89 Z" />
<path fill="#6399af" opacity="0.96" d=" M 33.57 56.96 C 32.91 55.51 32.34 54.02 31.79 52.52 L 32.44 53.00 C 33.01 53.38 34.15 54.14 34.72 54.52 C 34.91 58.11 35.10 61.70 35.41 65.29 C 35.79 64.12 36.15 62.95 36.49 61.76 C 36.44 63.98 36.50 66.20 36.56 68.42 C 38.19 63.62 38.19 57.59 43.14 54.75 C 45.31 57.49 47.58 60.46 47.94 64.06 C 48.45 68.20 48.42 72.38 48.80 76.53 C 45.82 76.77 42.85 77.13 39.90 77.64 C 38.23 76.96 36.51 76.42 34.80 75.86 C 38.74 79.23 43.21 81.90 47.13 85.29 C 47.80 85.87 48.47 86.45 49.14 87.03 C 49.11 87.87 49.04 89.54 49.00 90.38 C 44.29 86.19 38.70 83.19 33.59 79.53 C 34.17 79.69 35.33 79.99 35.91 80.14 C 35.14 79.15 34.38 78.16 33.56 77.22 C 30.98 73.45 26.94 71.24 23.31 68.65 C 27.57 65.60 31.78 62.12 33.57 56.96 Z" />
<path fill="#8a99b2" opacity="0.96" d=" M 45.71 54.52 C 47.04 53.95 48.37 53.38 49.70 52.81 C 50.10 53.41 50.89 54.61 51.29 55.21 C 50.66 56.24 50.06 57.29 49.48 58.35 C 48.20 57.09 46.99 55.77 45.71 54.52 Z" />
<path fill="#b3c7d4" opacity="0.97" d=" M 38.80 55.67 C 40.05 54.79 41.69 55.02 43.14 54.75 C 38.19 57.59 38.19 63.62 36.56 68.42 C 36.50 66.20 36.44 63.98 36.49 61.76 C 37.10 59.68 37.57 57.49 38.80 55.67 Z" />
<path fill="#aabcc5" opacity="0.97" d=" M 50.52 63.22 C 51.03 59.03 54.87 56.54 57.86 54.07 C 58.14 54.64 58.72 55.76 59.01 56.33 C 56.58 57.97 53.39 59.34 52.52 62.42 C 51.48 66.21 51.92 70.19 51.71 74.08 C 51.52 76.53 50.98 78.94 50.48 81.34 C 50.00 81.03 49.04 80.41 48.56 80.10 C 48.64 79.61 48.81 78.64 48.89 78.15 C 50.09 73.25 49.91 68.19 50.52 63.22 Z" />
<path fill="#5783b2" opacity="0.84" d=" M 24.73 58.22 C 27.60 57.38 30.57 56.90 33.57 56.96 C 31.78 62.12 27.57 65.60 23.31 68.65 C 26.94 71.24 30.98 73.45 33.56 77.22 C 29.67 74.93 25.78 72.62 22.07 70.04 C 21.61 70.59 20.70 71.68 20.24 72.23 L 19.72 71.56 C 20.31 69.33 21.09 67.15 21.95 65.01 C 22.89 62.75 23.85 60.50 24.73 58.22 Z" />
<path fill="#668ca2" opacity="0.95" d=" M 52.52 62.42 C 53.39 59.34 56.58 57.97 59.01 56.33 C 60.29 60.24 60.65 64.38 60.96 68.46 C 60.81 68.95 60.51 69.91 60.36 70.40 C 61.27 69.96 62.18 69.54 63.10 69.11 C 62.14 70.53 61.23 71.97 60.31 73.41 C 57.45 73.72 54.58 73.96 51.71 74.08 C 51.92 70.19 51.48 66.21 52.52 62.42 Z" />
<path fill="#435b7e" opacity="0.87" d=" M 64.41 67.33 C 66.32 65.87 68.38 64.63 70.37 63.28 C 69.89 64.37 69.45 65.48 69.02 66.59 C 70.71 66.82 72.41 67.06 74.10 67.30 C 74.73 65.78 75.40 64.29 76.00 62.76 C 75.80 65.36 75.92 68.00 75.33 70.56 C 71.86 74.21 67.03 76.18 62.93 79.05 C 58.20 81.47 53.73 84.36 49.14 87.03 C 48.47 86.45 47.80 85.87 47.13 85.29 C 47.85 85.09 49.29 84.69 50.01 84.50 C 57.18 80.92 64.31 76.98 70.48 71.81 C 65.89 73.55 61.51 75.76 57.20 78.08 C 58.25 76.53 59.29 74.97 60.31 73.41 C 61.23 71.97 62.14 70.53 63.10 69.11 C 63.43 68.67 64.08 67.77 64.41 67.33 Z" />
<path fill="#7c83a8" opacity="0.93" d=" M 82.41 74.84 C 83.01 72.45 83.61 70.05 84.05 67.62 C 84.22 70.69 84.20 73.76 84.23 76.82 C 83.24 77.11 82.27 77.43 81.30 77.76 C 74.05 79.72 68.37 84.95 61.83 88.40 C 62.38 86.91 62.93 85.42 63.49 83.93 C 58.69 86.74 53.85 89.47 48.97 92.15 L 48.99 91.25 L 49.00 90.38 C 52.80 87.12 57.12 84.54 61.63 82.40 C 66.02 81.37 70.01 79.26 73.76 76.78 C 76.29 75.02 79.43 74.83 82.41 74.84 Z" />
<path fill="#9fc6cc" opacity="1.00" d=" M 20.24 72.23 C 20.70 71.68 21.61 70.59 22.07 70.04 C 25.78 72.62 29.67 74.93 33.56 77.22 C 34.38 78.16 35.14 79.15 35.91 80.14 C 35.33 79.99 34.17 79.69 33.59 79.53 C 29.58 76.85 25.31 74.62 20.82 72.86 L 20.24 72.23 Z" />
<path fill="#8ea197" opacity="0.81" d=" M 15.87 74.02 C 17.13 73.16 18.41 72.35 19.72 71.56 L 20.24 72.23 L 20.82 72.86 C 22.69 75.02 24.58 77.16 26.52 79.26 C 26.02 79.87 25.53 80.48 25.03 81.09 C 21.75 79.19 18.49 77.26 15.16 75.46 L 15.35 74.64 L 15.87 74.02 Z" />
<path fill="#7e927e" opacity="0.91" d=" M 57.20 78.08 C 61.51 75.76 65.89 73.55 70.48 71.81 C 64.31 76.98 57.18 80.92 50.01 84.50 C 46.79 82.00 43.52 79.53 39.90 77.64 C 42.85 77.13 45.82 76.77 48.80 76.53 C 48.83 76.93 48.87 77.74 48.89 78.15 C 48.81 78.64 48.64 79.61 48.56 80.10 C 49.04 80.41 50.00 81.03 50.48 81.34 C 50.98 78.94 51.52 76.53 51.71 74.08 C 54.58 73.96 57.45 73.72 60.31 73.41 C 59.29 74.97 58.25 76.53 57.20 78.08 Z" />
<path fill="#627ba7" opacity="0.80" d=" M 20.82 72.86 C 25.31 74.62 29.58 76.85 33.59 79.53 C 34.13 80.91 33.99 82.67 35.26 83.68 C 39.24 87.14 44.26 89.05 48.99 91.25 L 48.97 92.15 C 48.95 93.49 48.93 94.83 48.90 96.18 C 45.73 94.23 42.56 92.28 39.47 90.19 C 34.86 86.84 29.99 83.89 25.03 81.09 C 25.53 80.48 26.02 79.87 26.52 79.26 C 24.58 77.16 22.69 75.02 20.82 72.86 Z" />
<path fill="#dde1d6" opacity="1.00" d=" M 15.16 75.46 C 18.49 77.26 21.75 79.19 25.03 81.09 C 29.99 83.89 34.86 86.84 39.47 90.19 C 39.04 90.46 38.17 90.99 37.74 91.26 C 30.15 86.44 22.20 82.14 14.82 77.00 C 14.91 76.61 15.07 75.85 15.16 75.46 Z" />
<path fill="#b3baa5" opacity="0.94" d=" M 34.80 75.86 C 36.51 76.42 38.23 76.96 39.90 77.64 C 43.52 79.53 46.79 82.00 50.01 84.50 C 49.29 84.69 47.85 85.09 47.13 85.29 C 43.21 81.90 38.74 79.23 34.80 75.86 Z" />
<path fill="#c5cbd5" opacity="1.00" d=" M 61.83 88.40 C 68.37 84.95 74.05 79.72 81.30 77.76 C 78.78 79.71 76.45 81.89 73.97 83.90 C 65.05 87.69 57.97 94.92 48.75 97.98 C 52.39 93.90 57.21 91.20 61.83 88.40 Z" />
<path fill="#ccd9d9" opacity="1.00" d=" M 49.14 87.03 C 53.73 84.36 58.20 81.47 62.93 79.05 C 63.68 78.95 65.17 78.75 65.92 78.65 C 64.47 79.87 63.08 81.18 61.63 82.40 C 57.12 84.54 52.80 87.12 49.00 90.38 C 49.04 89.54 49.11 87.87 49.14 87.03 Z" />
<path fill="#3c4875" opacity="0.87" d=" M 35.26 83.68 C 33.99 82.67 34.13 80.91 33.59 79.53 C 38.70 83.19 44.29 86.19 49.00 90.38 L 48.99 91.25 C 44.26 89.05 39.24 87.14 35.26 83.68 Z" />
<path fill="#b5b9a3" opacity="0.93" d=" M 48.97 92.15 C 53.85 89.47 58.69 86.74 63.49 83.93 C 62.93 85.42 62.38 86.91 61.83 88.40 C 57.21 91.20 52.39 93.90 48.75 97.98 C 44.87 96.10 41.35 93.59 37.74 91.26 C 38.17 90.99 39.04 90.46 39.47 90.19 C 42.56 92.28 45.73 94.23 48.90 96.18 C 48.93 94.83 48.95 93.49 48.97 92.15 Z" />
</svg>
