<?xml version="1.0" encoding="UTF-8" ?>
<!DOCTYPE svg PUBLIC "-//W3C//DTD SVG 1.1//EN" "http://www.w3.org/Graphics/SVG/1.1/DTD/svg11.dtd">
<svg width="100pt" height="100pt" viewBox="0 0 100 100" version="1.1" xmlns="http://www.w3.org/2000/svg">
<path fill="#0c0642" opacity="0.87" d=" M 48.40 0.00 L 50.47 0.00 C 56.64 4.48 63.40 8.11 69.30 12.96 L 68.44 12.95 C 61.63 9.83 56.34 3.72 48.99 1.80 C 47.55 2.09 46.13 2.44 44.73 2.85 C 45.97 1.92 47.16 0.93 48.40 0.00 Z" />
<path fill="#bec4b3" opacity="0.89" d=" M 48.99 1.80 C 56.34 3.72 61.63 9.83 68.44 12.95 C 67.19 12.96 65.94 12.99 64.70 13.01 C 61.52 10.70 57.68 10.08 53.87 9.89 C 50.16 9.83 49.80 5.52 49.14 2.77 L 48.99 1.80 Z" />
<path fill="#374775" opacity="0.88" d=" M 44.73 2.85 C 46.13 2.44 47.55 2.09 48.99 1.80 L 49.14 2.77 C 49.14 5.01 49.21 7.31 48.56 9.49 C 46.81 11.90 43.75 12.82 41.23 14.20 C 42.42 12.42 43.63 10.66 44.85 8.90 C 44.43 8.69 43.57 8.28 43.15 8.07 C 44.44 6.70 45.73 5.33 47.02 3.97 C 45.28 4.24 43.55 4.51 41.81 4.77 C 42.80 4.15 43.76 3.50 44.73 2.85 Z" />
<path fill="#909a9f" opacity="0.89" d=" M 49.14 2.77 C 49.80 5.52 50.16 9.83 53.87 9.89 C 57.68 10.08 61.52 10.70 64.70 13.01 C 64.12 14.80 63.54 16.60 62.95 18.39 C 58.47 15.89 54.35 12.80 50.04 10.01 C 49.64 10.44 48.85 11.31 48.45 11.74 C 46.91 13.43 45.37 15.11 43.86 16.81 C 45.84 16.00 47.82 15.18 49.81 14.37 C 50.94 15.02 52.06 15.67 53.19 16.32 C 45.43 16.05 39.92 22.19 33.77 25.92 C 30.45 28.23 26.71 29.81 23.18 31.74 C 23.10 32.17 22.93 33.04 22.85 33.47 C 22.20 38.04 21.87 42.67 21.78 47.29 C 20.02 40.86 21.11 34.09 19.55 27.62 C 16.75 35.30 19.88 43.77 16.48 51.35 C 16.41 42.94 15.80 34.50 16.43 26.11 C 16.39 24.15 18.33 23.23 19.68 22.22 C 21.74 22.79 24.05 23.47 25.99 22.14 C 30.69 19.54 36.36 16.84 37.84 11.17 C 38.29 10.00 38.71 8.81 39.21 7.64 C 40.08 6.69 40.95 5.73 41.81 4.77 C 43.55 4.51 45.28 4.24 47.02 3.97 C 45.73 5.33 44.44 6.70 43.15 8.07 C 43.57 8.28 44.43 8.69 44.85 8.90 C 43.63 10.66 42.42 12.42 41.23 14.20 C 43.75 12.82 46.81 11.90 48.56 9.49 C 49.21 7.31 49.14 5.01 49.14 2.77 M 20.11 29.38 C 21.93 29.54 23.87 29.63 25.38 28.40 C 30.51 24.95 35.42 21.15 40.01 17.01 C 32.63 19.64 25.69 23.86 20.11 29.38 Z" />
<path fill="#0c0642" opacity="0.87" d=" M 13.30 22.36 C 22.86 16.59 32.11 10.31 41.81 4.77 C 40.95 5.73 40.08 6.69 39.21 7.64 C 30.92 12.62 22.80 17.90 14.50 22.86 C 13.35 33.87 14.23 44.96 14.05 56.00 C 14.36 62.99 13.14 70.11 14.83 76.98 C 22.17 82.08 30.02 86.47 37.68 91.10 C 41.26 93.56 44.80 96.10 48.74 97.96 C 53.18 96.88 56.88 94.10 60.64 91.66 C 64.91 88.78 69.35 86.17 73.97 83.90 C 66.52 90.15 57.65 94.34 49.77 100.00 L 48.51 100.00 C 37.21 91.88 25.07 85.03 13.29 77.65 C 12.99 59.23 13.01 40.79 13.30 22.36 Z" />
<path fill="#d9dac9" opacity="0.94" d=" M 14.50 22.86 C 22.80 17.90 30.92 12.62 39.21 7.64 C 38.71 8.81 38.29 10.00 37.84 11.17 C 31.78 14.84 25.77 18.61 19.68 22.22 C 18.33 23.23 16.39 24.15 16.43 26.11 C 15.80 34.50 16.41 42.94 16.48 51.35 C 15.61 58.69 16.24 66.07 16.47 73.42 L 15.92 74.09 L 15.30 74.68 C 15.28 57.41 15.15 40.12 14.50 22.86 Z" />
<path fill="#c2ccd1" opacity="0.98" d=" M 48.45 11.74 C 48.85 11.31 49.64 10.44 50.04 10.01 C 54.35 12.80 58.47 15.89 62.95 18.39 C 63.92 18.82 64.90 19.21 65.90 19.55 C 65.28 20.40 64.66 21.25 64.04 22.10 C 58.81 18.69 53.55 15.33 48.45 11.74 Z" />
<path fill="#d2cdba" opacity="0.91" d=" M 19.68 22.22 C 25.77 18.61 31.78 14.84 37.84 11.17 C 36.36 16.84 30.69 19.54 25.99 22.14 C 24.05 23.47 21.74 22.79 19.68 22.22 Z" />
<path fill="#585e76" opacity="0.87" d=" M 43.86 16.81 C 45.37 15.11 46.91 13.43 48.45 11.74 C 53.55 15.33 58.81 18.69 64.04 22.10 C 67.91 24.81 72.43 26.81 75.50 30.50 C 76.78 33.39 76.10 36.69 76.01 39.75 C 75.72 40.38 75.14 41.65 74.85 42.28 C 73.93 39.29 72.46 36.36 69.92 34.42 C 67.96 33.53 65.94 32.78 63.93 32.03 C 64.31 32.40 65.07 33.16 65.45 33.53 C 63.90 33.07 62.33 32.68 60.77 32.29 C 60.74 32.92 60.70 34.18 60.68 34.80 C 63.57 35.70 67.52 36.23 68.37 39.73 C 69.46 43.23 65.99 45.73 64.02 48.07 C 62.03 44.88 60.48 41.42 59.71 37.73 C 58.91 34.38 57.71 30.28 53.99 29.21 C 49.62 27.87 45.09 27.03 40.86 25.25 C 39.98 27.34 39.15 29.44 38.28 31.54 C 36.62 31.27 34.97 31.00 33.31 30.73 C 33.46 29.13 33.61 27.53 33.77 25.92 C 39.92 22.19 45.43 16.05 53.19 16.32 C 52.06 15.67 50.94 15.02 49.81 14.37 C 47.82 15.18 45.84 16.00 43.86 16.81 Z" />
<path fill="#6f78b1" opacity="0.82" d=" M 64.70 13.01 C 65.94 12.99 67.19 12.96 68.44 12.95 L 69.30 12.96 C 72.37 15.83 75.66 18.43 78.97 21.00 C 76.43 20.08 73.90 19.16 71.37 18.22 C 71.79 19.12 72.21 20.03 72.63 20.93 C 70.38 20.52 68.12 20.13 65.90 19.55 C 64.90 19.21 63.92 18.82 62.95 18.39 C 63.54 16.60 64.12 14.80 64.70 13.01 Z" />
<path fill="#393b91" opacity="1.00" d=" M 69.30 12.96 C 74.59 16.30 80.75 18.58 85.08 23.22 C 85.68 26.10 85.48 29.07 85.49 31.99 C 85.35 45.35 85.43 58.70 85.49 72.06 C 85.27 74.05 85.79 76.57 84.03 78.01 C 81.14 80.67 77.41 82.11 73.97 83.90 C 76.47 81.91 78.79 79.72 81.31 77.75 C 82.26 77.43 83.23 77.12 84.19 76.82 C 84.20 73.75 84.20 70.68 84.09 67.62 C 84.14 65.30 82.98 63.24 81.96 61.24 C 82.88 56.21 83.33 51.11 83.24 46.00 C 83.14 38.90 83.42 31.81 83.79 24.73 C 82.20 24.41 80.62 24.09 79.04 23.77 C 79.01 22.85 78.99 21.93 78.97 21.00 C 75.66 18.43 72.37 15.83 69.30 12.96 Z" />
<path fill="#cbdbde" opacity="1.00" d=" M 20.11 29.38 C 25.69 23.86 32.63 19.64 40.01 17.01 C 35.42 21.15 30.51 24.95 25.38 28.40 C 23.87 29.63 21.93 29.54 20.11 29.38 Z" />
<path fill="#353e8a" opacity="0.80" d=" M 71.37 18.22 C 73.90 19.16 76.43 20.08 78.97 21.00 C 78.99 21.93 79.01 22.85 79.04 23.77 C 80.62 24.09 82.20 24.41 83.79 24.73 C 83.42 31.81 83.14 38.90 83.24 46.00 C 82.68 45.97 81.57 45.93 81.01 45.90 C 81.22 43.23 81.30 40.54 81.36 37.86 C 80.17 38.80 78.99 39.74 77.80 40.68 C 77.00 36.03 77.39 30.96 80.71 27.33 C 74.66 27.75 70.68 22.34 65.90 19.55 C 68.12 20.13 70.38 20.52 72.63 20.93 C 72.21 20.03 71.79 19.12 71.37 18.22 Z" />
<path fill="#7b8db4" opacity="0.90" d=" M 65.90 19.55 C 70.68 22.34 74.66 27.75 80.71 27.33 C 77.39 30.96 77.00 36.03 77.80 40.68 C 79.58 48.10 79.12 55.73 78.49 63.25 C 78.35 56.30 78.68 49.30 77.65 42.39 C 76.48 47.59 76.46 52.93 76.25 58.23 C 76.41 52.07 75.76 45.91 76.01 39.75 C 76.10 36.69 76.78 33.39 75.50 30.50 C 72.43 26.81 67.91 24.81 64.04 22.10 C 64.66 21.25 65.28 20.40 65.90 19.55 Z" />
<path fill="#c4b495" opacity="1.00" d=" M 14.05 56.00 C 14.23 44.96 13.35 33.87 14.50 22.86 C 15.15 40.12 15.28 57.41 15.30 74.68 L 15.13 75.47 C 15.05 75.85 14.90 76.60 14.83 76.98 C 13.14 70.11 14.36 62.99 14.05 56.00 Z" />
<path fill="#6e7b83" opacity="0.83" d=" M 40.86 25.25 C 45.09 27.03 49.62 27.87 53.99 29.21 C 57.71 30.28 58.91 34.38 59.71 37.73 C 60.48 41.42 62.03 44.88 64.02 48.07 C 65.99 45.73 69.46 43.23 68.37 39.73 C 67.52 36.23 63.57 35.70 60.68 34.80 C 60.70 34.18 60.74 32.92 60.77 32.29 C 62.33 32.68 63.90 33.07 65.45 33.53 C 67.17 35.24 68.97 37.00 69.97 39.24 C 70.49 41.84 69.62 44.45 69.18 47.00 C 67.41 48.33 65.65 49.68 63.90 51.03 C 61.98 48.30 60.08 45.55 58.16 42.82 C 56.33 46.00 54.51 49.19 53.03 52.55 C 51.81 47.74 51.60 42.76 52.94 37.95 C 53.74 35.66 52.79 33.45 51.56 31.53 C 49.94 32.21 48.24 32.79 46.79 33.81 C 46.53 35.03 46.64 36.28 46.76 37.50 C 47.08 41.77 47.53 46.03 47.81 50.30 C 47.76 51.89 47.69 53.49 47.65 55.08 C 46.34 49.66 44.22 44.49 41.83 39.47 C 41.73 40.05 41.53 41.21 41.44 41.80 C 39.65 45.53 37.27 49.13 33.62 51.28 C 32.85 49.91 32.03 48.57 31.30 47.18 C 30.99 44.15 30.60 40.86 32.03 38.06 C 33.64 35.76 36.58 35.05 38.96 33.83 C 37.29 33.80 35.61 33.75 33.94 33.69 C 34.55 33.12 35.16 32.55 35.78 31.99 C 34.15 32.32 32.53 32.65 30.90 32.97 C 31.15 32.57 31.66 31.77 31.91 31.38 C 28.94 32.28 25.91 33.00 22.85 33.47 C 22.93 33.04 23.10 32.17 23.18 31.74 C 26.71 29.81 30.45 28.23 33.77 25.92 C 33.61 27.53 33.46 29.13 33.31 30.73 C 34.97 31.00 36.62 31.27 38.28 31.54 C 39.15 29.44 39.98 27.34 40.86 25.25 Z" />
<path fill="#5479a7" opacity="0.82" d=" M 16.48 51.35 C 19.88 43.77 16.75 35.30 19.55 27.62 C 21.11 34.09 20.02 40.86 21.78 47.29 C 22.16 48.99 22.67 50.67 23.18 52.34 C 24.16 50.17 25.13 47.99 25.89 45.73 C 26.10 47.19 26.36 48.66 26.65 50.11 C 28.28 52.85 30.78 54.87 33.40 56.59 C 31.21 59.46 29.39 62.69 26.67 65.11 C 25.01 65.66 23.23 65.65 21.51 65.82 C 21.51 58.83 20.91 51.83 19.57 44.96 C 17.80 52.35 18.22 59.96 18.78 67.46 C 19.14 69.76 17.96 71.78 16.47 73.42 C 16.24 66.07 15.61 58.69 16.48 51.35 Z" />
<path fill="#536361" opacity="0.78" d=" M 22.85 33.47 C 25.91 33.00 28.94 32.28 31.91 31.38 C 31.66 31.77 31.15 32.57 30.90 32.97 C 28.36 36.83 26.62 41.16 25.89 45.73 C 25.13 47.99 24.16 50.17 23.18 52.34 C 22.67 50.67 22.16 48.99 21.78 47.29 C 21.87 42.67 22.20 38.04 22.85 33.47 Z" />
<path fill="#0b0733" opacity="0.65" d=" M 30.90 32.97 C 32.53 32.65 34.15 32.32 35.78 31.99 C 35.16 32.55 34.55 33.12 33.94 33.69 C 32.01 35.53 29.88 37.51 29.33 40.25 C 28.75 42.75 30.24 45.03 31.30 47.18 C 32.03 48.57 32.85 49.91 33.62 51.28 C 33.88 51.78 34.41 52.77 34.68 53.27 C 31.73 53.05 29.05 51.77 26.65 50.11 C 26.36 48.66 26.10 47.19 25.89 45.73 C 26.62 41.16 28.36 36.83 30.90 32.97 Z" />
<path fill="#0c0642" opacity="0.87" d=" M 46.79 33.81 C 48.24 32.79 49.94 32.21 51.56 31.53 C 49.81 40.72 49.55 50.08 50.62 59.38 C 51.48 57.13 52.29 54.85 53.03 52.55 C 54.51 49.19 56.33 46.00 58.16 42.82 C 60.08 45.55 61.98 48.30 63.90 51.03 C 65.65 49.68 67.41 48.33 69.18 47.00 C 70.24 47.85 71.31 48.69 72.39 49.54 C 68.47 53.13 62.72 54.83 60.84 60.32 C 60.96 57.13 60.53 53.89 59.28 50.94 C 58.74 50.24 58.19 49.56 57.64 48.88 C 54.27 56.14 50.73 63.53 50.38 71.69 C 49.73 71.80 48.44 72.04 47.80 72.16 C 48.83 64.66 44.96 58.11 42.07 51.55 C 41.87 50.82 41.47 49.38 41.27 48.66 C 39.54 52.28 38.34 56.14 37.71 60.11 C 36.85 57.76 35.81 55.49 34.68 53.27 C 34.41 52.77 33.88 51.78 33.62 51.28 C 37.27 49.13 39.65 45.53 41.44 41.80 C 43.00 47.47 44.88 53.09 47.59 58.32 C 47.61 57.51 47.64 55.89 47.65 55.08 C 47.69 53.49 47.76 51.89 47.81 50.30 C 48.28 46.00 48.42 41.59 46.76 37.50 C 46.64 36.28 46.53 35.03 46.79 33.81 M 48.13 34.35 C 47.61 35.98 48.16 36.54 49.79 36.03 C 50.30 34.40 49.75 33.84 48.13 34.35 Z" />
<path fill="#a7b4c1" opacity="0.97" d=" M 51.56 31.53 C 52.79 33.45 53.74 35.66 52.94 37.95 C 51.60 42.76 51.81 47.74 53.03 52.55 C 52.29 54.85 51.48 57.13 50.62 59.38 C 49.55 50.08 49.81 40.72 51.56 31.53 Z" />
<path fill="#010026" opacity="0.58" d=" M 63.93 32.03 C 65.94 32.78 67.96 33.53 69.92 34.42 C 72.42 39.05 73.48 44.34 72.39 49.54 C 71.31 48.69 70.24 47.85 69.18 47.00 C 69.62 44.45 70.49 41.84 69.97 39.24 C 68.97 37.00 67.17 35.24 65.45 33.53 C 65.07 33.16 64.31 32.40 63.93 32.03 Z" />
<path fill="#d2cdba" opacity="0.91" d=" M 33.94 33.69 C 35.61 33.75 37.29 33.80 38.96 33.83 C 36.58 35.05 33.64 35.76 32.03 38.06 C 30.60 40.86 30.99 44.15 31.30 47.18 C 30.24 45.03 28.75 42.75 29.33 40.25 C 29.88 37.51 32.01 35.53 33.94 33.69 Z" />
<path fill="#b9c9d1" opacity="1.00" d=" M 48.13 34.35 C 49.75 33.84 50.30 34.40 49.79 36.03 C 48.16 36.54 47.61 35.98 48.13 34.35 Z" />
<path fill="#a2abc9" opacity="0.97" d=" M 69.92 34.42 C 72.46 36.36 73.93 39.29 74.85 42.28 C 74.96 44.14 75.01 45.99 74.99 47.85 C 73.75 50.77 71.56 53.13 68.89 54.81 C 67.97 55.24 67.04 55.66 66.11 56.07 C 64.49 58.53 62.64 60.83 60.53 62.89 C 60.61 62.25 60.76 60.96 60.84 60.32 C 62.72 54.83 68.47 53.13 72.39 49.54 C 73.48 44.34 72.42 39.05 69.92 34.42 Z" />
<path fill="#d2cdba" opacity="0.91" d=" M 47.81 50.30 C 47.53 46.03 47.08 41.77 46.76 37.50 C 48.42 41.59 48.28 46.00 47.81 50.30 Z" />
<path fill="#4e58a0" opacity="0.80" d=" M 77.80 40.68 C 78.99 39.74 80.17 38.80 81.36 37.86 C 81.30 40.54 81.22 43.23 81.01 45.90 C 80.76 51.00 78.84 56.64 81.96 61.24 C 82.98 63.24 84.14 65.30 84.09 67.62 C 83.62 70.05 83.01 72.45 82.39 74.84 C 79.15 74.76 75.79 75.16 73.10 77.15 C 69.62 79.58 65.79 81.46 61.63 82.39 C 63.08 81.18 64.47 79.89 65.92 78.67 C 69.83 76.48 74.34 74.91 77.39 71.51 C 78.31 68.87 78.31 66.02 78.49 63.25 C 79.12 55.73 79.58 48.10 77.80 40.68 Z" />
<path fill="#a8b8c6" opacity="0.97" d=" M 41.83 39.47 C 44.22 44.49 46.34 49.66 47.65 55.08 C 47.64 55.89 47.61 57.51 47.59 58.32 C 44.88 53.09 43.00 47.47 41.44 41.80 C 41.53 41.21 41.73 40.05 41.83 39.47 Z" />
<path fill="#0b298d" opacity="0.87" d=" M 74.85 42.28 C 75.14 41.65 75.72 40.38 76.01 39.75 C 75.76 45.91 76.41 52.07 76.25 58.23 C 76.19 59.75 76.06 61.27 75.93 62.79 C 75.35 64.30 74.71 65.78 74.08 67.27 C 72.40 67.04 70.72 66.82 69.03 66.60 C 69.50 65.56 69.96 64.53 70.47 63.52 C 71.76 61.20 73.43 59.08 74.32 56.57 C 75.08 53.73 74.91 50.75 74.99 47.85 C 75.01 45.99 74.96 44.14 74.85 42.28 Z" />
<path fill="#b9c5d3" opacity="0.96" d=" M 76.25 58.23 C 76.46 52.93 76.48 47.59 77.65 42.39 C 78.68 49.30 78.35 56.30 78.49 63.25 C 78.31 66.02 78.31 68.87 77.39 71.51 C 74.34 74.91 69.83 76.48 65.92 78.67 C 65.18 78.76 63.69 78.94 62.95 79.03 C 67.23 76.37 71.44 73.61 75.68 70.89 C 75.73 68.19 75.77 65.48 75.93 62.79 C 76.06 61.27 76.19 59.75 76.25 58.23 Z" />
<path fill="#294365" opacity="0.66" d=" M 19.57 44.96 C 20.91 51.83 21.51 58.83 21.51 65.82 C 21.23 67.55 20.82 69.27 20.25 70.93 C 18.86 72.06 17.36 73.04 15.92 74.09 L 16.47 73.42 C 17.96 71.78 19.14 69.76 18.78 67.46 C 18.22 59.96 17.80 52.35 19.57 44.96 Z" />
<path fill="#0825d0" opacity="0.82" d=" M 81.01 45.90 C 81.57 45.93 82.68 45.97 83.24 46.00 C 83.33 51.11 82.88 56.21 81.96 61.24 C 78.84 56.64 80.76 51.00 81.01 45.90 Z" />
<path fill="#3c5cbd" opacity="0.93" d=" M 68.89 54.81 C 71.56 53.13 73.75 50.77 74.99 47.85 C 74.91 50.75 75.08 53.73 74.32 56.57 C 73.43 59.08 71.76 61.20 70.47 63.52 L 69.54 63.14 C 68.26 62.21 66.25 61.51 66.10 59.69 C 65.76 57.59 67.61 56.16 68.89 54.81 Z" />
<path fill="#a9bed2" opacity="1.00" d=" M 37.71 60.11 C 38.34 56.14 39.54 52.28 41.27 48.66 C 41.47 49.38 41.87 50.82 42.07 51.55 C 41.25 55.08 40.42 58.61 39.81 62.19 C 39.06 61.92 38.31 61.65 37.56 61.39 C 37.60 61.07 37.68 60.43 37.71 60.11 Z" />
<path fill="#a6bbcc" opacity="0.98" d=" M 57.64 48.88 C 58.19 49.56 58.74 50.24 59.28 50.94 C 56.26 56.28 53.90 62.00 52.91 68.08 C 52.41 70.00 51.95 71.92 51.47 73.84 C 49.95 73.32 48.45 72.76 46.92 72.30 L 47.80 72.16 C 48.44 72.04 49.73 71.80 50.38 71.69 C 50.73 63.53 54.27 56.14 57.64 48.88 Z" />
<path fill="#649ab5" opacity="0.95" d=" M 26.65 50.11 C 29.05 51.77 31.73 53.05 34.68 53.27 C 35.81 55.49 36.85 57.76 37.71 60.11 C 37.68 60.43 37.60 61.07 37.56 61.39 C 38.31 61.65 39.06 61.92 39.81 62.19 C 40.42 58.61 41.25 55.08 42.07 51.55 C 44.96 58.11 48.83 64.66 47.80 72.16 L 46.92 72.30 C 46.45 72.19 45.52 71.96 45.05 71.85 C 43.01 73.72 40.96 75.57 38.92 77.43 C 37.55 76.87 36.16 76.35 34.78 75.83 C 38.68 79.23 43.03 82.05 47.27 85.00 C 47.89 85.70 48.49 86.41 49.08 87.13 C 49.06 87.94 49.03 89.56 49.01 90.37 C 44.31 86.18 38.72 83.21 33.62 79.58 C 34.21 79.68 35.40 79.87 35.99 79.97 C 31.20 76.35 26.59 71.37 20.25 70.93 C 20.82 69.27 21.23 67.55 21.51 65.82 C 23.23 65.65 25.01 65.66 26.67 65.11 C 29.39 62.69 31.21 59.46 33.40 56.59 C 30.78 54.87 28.28 52.85 26.65 50.11 Z" />
<path fill="#567ba8" opacity="0.94" d=" M 59.28 50.94 C 60.53 53.89 60.96 57.13 60.84 60.32 C 60.76 60.96 60.61 62.25 60.53 62.89 C 62.64 60.83 64.49 58.53 66.11 56.07 C 67.04 55.66 67.97 55.24 68.89 54.81 C 67.61 56.16 65.76 57.59 66.10 59.69 C 66.25 61.51 68.26 62.21 69.54 63.14 C 66.77 65.15 64.48 67.72 62.33 70.36 C 60.71 70.46 59.08 70.56 57.46 70.66 C 57.81 68.88 58.16 67.09 58.51 65.30 C 57.99 64.56 57.47 63.82 56.94 63.08 C 55.57 64.73 54.20 66.37 52.91 68.08 C 53.90 62.00 56.26 56.28 59.28 50.94 Z" />
<path fill="#6f9f9a" opacity="0.95" d=" M 52.91 68.08 C 54.20 66.37 55.57 64.73 56.94 63.08 C 57.47 63.82 57.99 64.56 58.51 65.30 C 58.16 67.09 57.81 68.88 57.46 70.66 C 59.08 70.56 60.71 70.46 62.33 70.36 C 60.80 72.23 59.29 74.13 57.68 75.93 C 55.35 76.72 52.89 76.82 50.47 77.09 C 48.14 77.14 46.90 79.44 45.39 80.86 C 43.35 79.51 41.16 78.40 38.92 77.43 C 40.96 75.57 43.01 73.72 45.05 71.85 C 45.52 71.96 46.45 72.19 46.92 72.30 C 48.45 72.76 49.95 73.32 51.47 73.84 C 51.95 71.92 52.41 70.00 52.91 68.08 Z" />
<path fill="#435b80" opacity="0.87" d=" M 69.54 63.14 L 70.47 63.52 C 69.96 64.53 69.50 65.56 69.03 66.60 C 70.72 66.82 72.40 67.04 74.08 67.27 C 74.71 65.78 75.35 64.30 75.93 62.79 C 75.77 65.48 75.73 68.19 75.68 70.89 C 71.44 73.61 67.23 76.37 62.95 79.03 C 58.17 81.47 53.67 84.39 49.08 87.13 C 48.49 86.41 47.89 85.70 47.27 85.00 C 47.78 84.96 48.78 84.88 49.28 84.84 C 56.70 81.22 64.05 77.12 70.44 71.85 C 65.93 73.58 61.62 75.78 57.36 78.03 C 57.44 77.50 57.60 76.45 57.68 75.93 C 59.29 74.13 60.80 72.23 62.33 70.36 C 64.48 67.72 66.77 65.15 69.54 63.14 Z" />
<path fill="#7c83a8" opacity="0.93" d=" M 82.39 74.84 C 83.01 72.45 83.62 70.05 84.09 67.62 C 84.20 70.68 84.20 73.75 84.19 76.82 C 83.23 77.12 82.26 77.43 81.31 77.75 C 74.02 79.67 68.40 84.99 61.82 88.39 C 62.37 86.91 62.93 85.43 63.49 83.95 C 58.67 86.71 53.85 89.48 48.97 92.15 L 48.99 91.24 L 49.01 90.37 C 52.81 87.12 57.12 84.53 61.63 82.39 C 65.79 81.46 69.62 79.58 73.10 77.15 C 75.79 75.16 79.15 74.76 82.39 74.84 Z" />
<path fill="#a1c7cb" opacity="1.00" d=" M 20.25 70.93 C 26.59 71.37 31.20 76.35 35.99 79.97 C 35.40 79.87 34.21 79.68 33.62 79.58 C 29.66 76.99 25.47 74.79 21.32 72.52 C 21.05 72.13 20.52 71.33 20.25 70.93 Z" />
<path fill="#8ea29a" opacity="0.82" d=" M 15.92 74.09 C 17.36 73.04 18.86 72.06 20.25 70.93 C 20.52 71.33 21.05 72.13 21.32 72.52 C 23.35 75.77 26.31 78.50 27.32 82.30 C 23.19 80.14 19.22 77.70 15.13 75.47 L 15.30 74.68 L 15.92 74.09 Z" />
<path fill="#8a977f" opacity="0.91" d=" M 57.36 78.03 C 61.62 75.78 65.93 73.58 70.44 71.85 C 64.05 77.12 56.70 81.22 49.28 84.84 C 48.01 83.48 46.74 82.13 45.39 80.86 C 46.90 79.44 48.14 77.14 50.47 77.09 C 52.89 76.82 55.35 76.72 57.68 75.93 C 57.60 76.45 57.44 77.50 57.36 78.03 Z" />
<path fill="#627aa8" opacity="0.80" d=" M 21.32 72.52 C 25.47 74.79 29.66 76.99 33.62 79.58 C 34.01 80.98 33.97 82.72 35.27 83.66 C 39.27 87.09 44.27 89.02 48.99 91.24 L 48.97 92.15 C 48.95 93.48 48.93 94.82 48.90 96.16 C 45.75 94.24 42.64 92.26 39.48 90.35 C 35.57 87.46 31.54 84.72 27.32 82.30 C 26.31 78.50 23.35 75.77 21.32 72.52 Z" />
<path fill="#dfe2d6" opacity="1.00" d=" M 15.13 75.47 C 19.22 77.70 23.19 80.14 27.32 82.30 C 31.54 84.72 35.57 87.46 39.48 90.35 C 39.03 90.54 38.13 90.92 37.68 91.10 C 30.02 86.47 22.17 82.08 14.83 76.98 C 14.90 76.60 15.05 75.85 15.13 75.47 Z" />
<path fill="#b2bba7" opacity="0.94" d=" M 34.78 75.83 C 36.16 76.35 37.55 76.87 38.92 77.43 C 41.16 78.40 43.35 79.51 45.39 80.86 C 46.74 82.13 48.01 83.48 49.28 84.84 C 48.78 84.88 47.78 84.96 47.27 85.00 C 43.03 82.05 38.68 79.23 34.78 75.83 Z" />
<path fill="#c5cbd5" opacity="1.00" d=" M 61.82 88.39 C 68.40 84.99 74.02 79.67 81.31 77.75 C 78.79 79.72 76.47 81.91 73.97 83.90 C 69.35 86.17 64.91 88.78 60.64 91.66 C 56.88 94.10 53.18 96.88 48.74 97.96 C 52.37 93.87 57.23 91.23 61.82 88.39 Z" />
<path fill="#ccd9d9" opacity="1.00" d=" M 49.08 87.13 C 53.67 84.39 58.17 81.47 62.95 79.03 C 63.69 78.94 65.18 78.76 65.92 78.67 C 64.47 79.89 63.08 81.18 61.63 82.39 C 57.12 84.53 52.81 87.12 49.01 90.37 C 49.03 89.56 49.06 87.94 49.08 87.13 Z" />
<path fill="#374775" opacity="0.88" d=" M 35.27 83.66 C 33.97 82.72 34.01 80.98 33.62 79.58 C 38.72 83.21 44.31 86.18 49.01 90.37 L 48.99 91.24 C 44.27 89.02 39.27 87.09 35.27 83.66 Z" />
<path fill="#b5b9a3" opacity="0.93" d=" M 48.97 92.15 C 53.85 89.48 58.67 86.71 63.49 83.95 C 62.93 85.43 62.37 86.91 61.82 88.39 C 57.23 91.23 52.37 93.87 48.74 97.96 C 44.80 96.10 41.26 93.56 37.68 91.10 C 38.13 90.92 39.03 90.54 39.48 90.35 C 42.64 92.26 45.75 94.24 48.90 96.16 C 48.93 94.82 48.95 93.48 48.97 92.15 Z" />
</svg>
