<?xml version="1.0" encoding="UTF-8" ?>
<!DOCTYPE svg PUBLIC "-//W3C//DTD SVG 1.1//EN" "http://www.w3.org/Graphics/SVG/1.1/DTD/svg11.dtd">
<svg width="100pt" height="100pt" viewBox="0 0 100 100" version="1.1" xmlns="http://www.w3.org/2000/svg">
<path fill="#07080b" opacity="0.93" d=" M 33.62 26.68 C 41.88 24.89 50.46 24.08 58.86 25.32 C 64.36 26.12 70.24 26.76 74.91 30.06 C 77.13 31.52 78.29 34.58 76.98 37.02 C 71.83 48.02 65.36 58.36 58.19 68.15 C 56.04 70.87 53.60 74.01 49.97 74.60 C 45.90 73.93 43.12 70.42 40.57 67.48 C 34.05 59.12 27.91 50.38 23.03 40.96 C 21.03 37.42 21.34 33.18 23.45 29.78 C 22.87 36.93 26.32 43.44 29.44 49.61 C 31.92 54.49 35.98 58.23 39.60 62.23 C 41.72 66.03 43.64 70.38 47.60 72.59 C 49.00 73.44 50.71 72.95 51.71 71.75 C 59.32 63.70 66.04 54.80 71.25 45.00 C 72.84 42.14 74.30 39.21 75.55 36.18 C 74.45 35.19 73.35 34.21 72.25 33.22 C 72.85 32.80 74.06 31.97 74.67 31.56 C 69.01 28.16 62.41 27.08 55.98 26.11 C 48.53 25.03 41.09 26.83 33.62 26.68 Z" />
<path fill="#464f5e" opacity="1.00" d=" M 33.62 26.68 C 41.09 26.83 48.53 25.03 55.98 26.11 C 62.41 27.08 69.01 28.16 74.67 31.56 C 74.06 31.97 72.85 32.80 72.25 33.22 C 69.47 35.37 65.84 34.81 62.63 34.24 C 64.52 33.70 66.36 33.03 68.20 32.35 C 64.50 30.06 60.20 29.05 55.87 29.09 C 57.76 30.87 59.69 32.60 61.78 34.13 C 57.88 33.50 54.20 35.10 50.77 36.74 C 49.26 35.09 47.63 33.55 46.02 32.00 C 47.37 34.47 48.80 36.90 50.10 39.40 C 47.99 40.00 45.87 40.56 43.74 41.09 C 43.76 41.60 43.80 42.61 43.82 43.12 C 42.59 39.21 41.20 35.36 39.77 31.53 C 39.41 32.27 38.67 33.75 38.31 34.50 C 37.71 33.05 37.08 31.61 36.58 30.13 C 33.94 30.75 31.28 31.30 28.60 31.75 C 30.26 30.04 31.95 28.37 33.62 26.68 Z" />
<path fill="#333743" opacity="1.00" d=" M 23.45 29.78 C 26.58 28.03 30.18 27.50 33.62 26.68 C 31.95 28.37 30.26 30.04 28.60 31.75 C 31.28 31.30 33.94 30.75 36.58 30.13 C 37.08 31.61 37.71 33.05 38.31 34.50 C 36.87 37.96 34.94 41.28 34.14 44.98 C 35.14 47.11 35.89 49.36 36.12 51.72 C 36.54 55.43 38.02 58.89 39.60 62.23 C 35.98 58.23 31.92 54.49 29.44 49.61 C 26.32 43.44 22.87 36.93 23.45 29.78 Z" />
<path fill="#afb9b8" opacity="1.00" d=" M 55.87 29.09 C 60.20 29.05 64.50 30.06 68.20 32.35 C 66.36 33.03 64.52 33.70 62.63 34.24 L 61.78 34.13 C 59.69 32.60 57.76 30.87 55.87 29.09 Z" />
<path fill="#ffe6a0" opacity="1.00" d=" M 39.77 31.53 C 41.20 35.36 42.59 39.21 43.82 43.12 C 45.09 47.81 47.63 52.00 49.66 56.38 C 47.25 54.48 44.69 52.61 43.13 49.92 C 41.15 46.52 40.26 42.65 39.14 38.92 C 37.49 40.95 35.82 42.96 34.14 44.98 C 34.94 41.28 36.87 37.96 38.31 34.50 C 38.67 33.75 39.41 32.27 39.77 31.53 Z" />
<path fill="#ffe4ae" opacity="1.00" d=" M 46.02 32.00 C 47.63 33.55 49.26 35.09 50.77 36.74 C 51.69 38.06 52.54 39.44 53.33 40.84 C 54.62 43.47 55.68 46.19 56.88 48.86 C 59.33 48.63 61.77 48.38 64.21 48.13 C 63.85 48.71 63.14 49.87 62.79 50.44 C 60.37 52.28 57.93 54.10 55.67 56.14 C 53.55 50.65 52.58 44.76 50.10 39.40 C 48.80 36.90 47.37 34.47 46.02 32.00 Z" />
<path fill="#343844" opacity="1.00" d=" M 50.77 36.74 C 54.20 35.10 57.88 33.50 61.78 34.13 L 62.63 34.24 C 65.84 34.81 69.47 35.37 72.25 33.22 C 73.35 34.21 74.45 35.19 75.55 36.18 C 74.30 39.21 72.84 42.14 71.25 45.00 C 68.53 46.98 65.34 48.22 62.79 50.44 C 63.14 49.87 63.85 48.71 64.21 48.13 C 64.58 45.88 64.82 43.61 65.05 41.34 C 61.16 40.90 57.24 40.80 53.33 40.84 C 52.54 39.44 51.69 38.06 50.77 36.74 Z" />
<path fill="#141421" opacity="1.00" d=" M 34.14 44.98 C 35.82 42.96 37.49 40.95 39.14 38.92 C 40.26 42.65 41.15 46.52 43.13 49.92 C 44.69 52.61 47.25 54.48 49.66 56.38 C 47.63 52.00 45.09 47.81 43.82 43.12 C 43.80 42.61 43.76 41.60 43.74 41.09 C 45.87 40.56 47.99 40.00 50.10 39.40 C 52.58 44.76 53.55 50.65 55.67 56.14 C 57.93 54.10 60.37 52.28 62.79 50.44 C 65.34 48.22 68.53 46.98 71.25 45.00 C 66.04 54.80 59.32 63.70 51.71 71.75 C 50.71 72.95 49.00 73.44 47.60 72.59 C 43.64 70.38 41.72 66.03 39.60 62.23 C 38.02 58.89 36.54 55.43 36.12 51.72 C 35.89 49.36 35.14 47.11 34.14 44.98 Z" />
<path fill="#20232f" opacity="1.00" d=" M 53.33 40.84 C 57.24 40.80 61.16 40.90 65.05 41.34 C 64.82 43.61 64.58 45.88 64.21 48.13 C 61.77 48.38 59.33 48.63 56.88 48.86 C 55.68 46.19 54.62 43.47 53.33 40.84 Z" />
</svg>
