<?xml version="1.0" encoding="UTF-8" ?>
<!DOCTYPE svg PUBLIC "-//W3C//DTD SVG 1.1//EN" "http://www.w3.org/Graphics/SVG/1.1/DTD/svg11.dtd">
<svg width="100pt" height="100pt" viewBox="0 0 100 100" version="1.1" xmlns="http://www.w3.org/2000/svg">
<path fill="#110f1c" opacity="1.00" d=" M 39.81 25.95 C 45.99 24.06 52.57 23.96 58.90 25.18 C 64.56 26.26 70.80 26.77 75.43 30.56 C 77.36 32.05 78.09 34.83 76.95 37.02 C 71.51 48.67 64.79 59.74 56.82 69.83 C 54.87 72.01 52.53 74.82 49.31 74.56 C 45.51 73.62 42.93 70.33 40.52 67.47 C 36.79 62.47 32.62 57.69 30.05 51.94 C 33.27 55.50 36.80 58.75 40.20 62.13 C 39.33 60.59 38.45 59.05 37.62 57.48 C 37.98 56.63 38.33 55.78 38.69 54.93 C 40.13 56.22 41.56 57.51 43.00 58.79 C 43.55 58.55 44.65 58.08 45.19 57.84 C 42.58 54.13 39.97 50.40 37.78 46.43 C 44.02 50.69 48.23 57.34 50.02 64.63 L 50.35 65.79 C 50.77 62.83 51.03 59.77 50.10 56.88 C 49.38 54.92 48.17 53.19 47.06 51.44 C 48.01 51.60 48.95 51.76 49.90 51.90 C 51.61 52.19 53.32 52.50 55.03 52.81 C 52.64 58.82 54.15 65.72 50.74 71.42 C 54.79 66.92 59.31 62.78 62.58 57.63 C 65.55 52.91 68.44 48.14 71.69 43.61 C 72.98 41.57 74.55 39.51 74.77 37.03 C 74.27 35.49 73.08 34.31 72.10 33.05 C 72.75 32.69 74.04 31.98 74.68 31.63 C 63.92 26.26 51.61 25.61 39.81 25.95 Z" />
<path fill="#505965" opacity="1.00" d=" M 33.89 26.87 C 35.77 26.17 37.81 26.05 39.81 25.95 C 51.61 25.61 63.92 26.26 74.68 31.63 C 74.04 31.98 72.75 32.69 72.10 33.05 C 68.06 35.24 63.32 34.66 59.29 32.78 C 62.33 33.06 65.39 32.94 68.44 32.77 C 64.78 30.26 60.44 29.21 56.07 28.85 C 56.66 29.99 57.24 31.14 57.86 32.26 C 54.24 31.16 50.41 31.31 46.70 31.74 C 46.77 31.51 46.91 31.07 46.98 30.84 C 46.32 31.07 45.65 31.28 44.98 31.49 C 42.36 32.25 39.63 32.51 36.93 32.79 C 37.86 31.72 38.80 30.66 39.74 29.60 C 36.14 30.29 32.53 30.92 28.90 31.44 C 30.53 29.88 32.15 28.31 33.89 26.87 Z" />
<path fill="#343845" opacity="1.00" d=" M 23.36 29.76 C 26.61 28.03 30.29 27.40 33.89 26.87 C 32.15 28.31 30.53 29.88 28.90 31.44 C 32.53 30.92 36.14 30.29 39.74 29.60 C 38.80 30.66 37.86 31.72 36.93 32.79 C 39.63 32.51 42.36 32.25 44.98 31.49 C 44.15 34.30 43.33 37.11 42.51 39.92 C 39.74 40.78 36.72 41.31 34.37 43.11 C 33.24 48.05 35.45 53.11 37.62 57.48 C 38.45 59.05 39.33 60.59 40.20 62.13 C 36.80 58.75 33.27 55.50 30.05 51.94 C 27.34 44.72 22.91 37.76 23.36 29.76 Z" />
<path fill="#afb9b8" opacity="1.00" d=" M 56.07 28.85 C 60.44 29.21 64.78 30.26 68.44 32.77 C 65.39 32.94 62.33 33.06 59.29 32.78 C 58.93 32.65 58.22 32.39 57.86 32.26 C 57.24 31.14 56.66 29.99 56.07 28.85 Z" />
<path fill="#040508" opacity="0.94" d=" M 21.91 37.81 C 20.96 35.02 22.29 32.28 23.36 29.76 C 22.91 37.76 27.34 44.72 30.05 51.94 C 26.52 47.79 23.48 43.06 21.91 37.81 Z" />
<path fill="#ffec93" opacity="1.00" d=" M 44.98 31.49 C 45.65 31.28 46.32 31.07 46.98 30.84 C 46.91 31.07 46.77 31.51 46.70 31.74 C 46.05 33.97 45.19 36.25 45.34 38.61 C 45.80 42.56 51.19 45.19 54.33 42.45 C 56.66 40.50 56.09 37.08 56.51 34.39 C 53.22 34.46 50.21 35.78 47.49 37.53 C 49.17 35.10 51.01 31.41 54.62 32.42 C 58.67 32.99 59.17 37.66 59.17 40.95 C 58.07 44.71 53.89 47.03 50.11 46.14 C 46.63 45.57 44.58 42.43 42.51 39.92 C 43.33 37.11 44.15 34.30 44.98 31.49 Z" />
<path fill="#373b46" opacity="1.00" d=" M 46.70 31.74 C 50.41 31.31 54.24 31.16 57.86 32.26 C 58.22 32.39 58.93 32.65 59.29 32.78 C 63.32 34.66 68.06 35.24 72.10 33.05 C 73.08 34.31 74.27 35.49 74.77 37.03 C 74.55 39.51 72.98 41.57 71.69 43.61 C 69.31 45.10 67.02 46.74 64.84 48.52 C 65.13 46.02 65.38 43.53 65.61 41.02 C 63.83 39.94 62.05 38.85 60.28 37.74 C 59.92 38.81 59.56 39.89 59.17 40.95 C 59.17 37.66 58.67 32.99 54.62 32.42 C 51.01 31.41 49.17 35.10 47.49 37.53 C 50.21 35.78 53.22 34.46 56.51 34.39 C 56.09 37.08 56.66 40.50 54.33 42.45 C 51.19 45.19 45.80 42.56 45.34 38.61 C 45.19 36.25 46.05 33.97 46.70 31.74 Z" />
<path fill="#1c1e2b" opacity="1.00" d=" M 60.28 37.74 C 62.05 38.85 63.83 39.94 65.61 41.02 C 65.38 43.53 65.13 46.02 64.84 48.52 C 67.02 46.74 69.31 45.10 71.69 43.61 C 68.44 48.14 65.55 52.91 62.58 57.63 C 59.31 62.78 54.79 66.92 50.74 71.42 C 54.15 65.72 52.64 58.82 55.03 52.81 C 53.32 52.50 51.61 52.19 49.90 51.90 C 52.62 51.89 55.50 52.10 58.04 50.95 C 60.90 49.24 61.91 45.81 63.26 42.96 C 60.80 45.19 58.91 48.44 55.64 49.52 C 49.11 50.25 42.97 47.31 37.01 45.09 C 37.20 45.42 37.58 46.09 37.78 46.43 C 39.97 50.40 42.58 54.13 45.19 57.84 C 44.65 58.08 43.55 58.55 43.00 58.79 C 41.56 57.51 40.13 56.22 38.69 54.93 C 38.33 55.78 37.98 56.63 37.62 57.48 C 35.45 53.11 33.24 48.05 34.37 43.11 C 36.72 41.31 39.74 40.78 42.51 39.92 C 44.58 42.43 46.63 45.57 50.11 46.14 C 53.89 47.03 58.07 44.71 59.17 40.95 C 59.56 39.89 59.92 38.81 60.28 37.74 Z" />
<path fill="#ffe8ab" opacity="1.00" d=" M 55.64 49.52 C 58.91 48.44 60.80 45.19 63.26 42.96 C 61.91 45.81 60.90 49.24 58.04 50.95 C 55.50 52.10 52.62 51.89 49.90 51.90 C 48.95 51.76 48.01 51.60 47.06 51.44 C 48.17 53.19 49.38 54.92 50.10 56.88 C 50.13 59.46 49.97 62.04 50.02 64.63 C 48.23 57.34 44.02 50.69 37.78 46.43 C 37.58 46.09 37.20 45.42 37.01 45.09 C 42.97 47.31 49.11 50.25 55.64 49.52 Z" />
<path fill="#6d757e" opacity="1.00" d=" M 50.10 56.88 C 51.03 59.77 50.77 62.83 50.35 65.79 L 50.02 64.63 C 49.97 62.04 50.13 59.46 50.10 56.88 Z" />
</svg>
