<?xml version="1.0" encoding="UTF-8" ?>
<!DOCTYPE svg PUBLIC "-//W3C//DTD SVG 1.1//EN" "http://www.w3.org/Graphics/SVG/1.1/DTD/svg11.dtd">
<svg width="100pt" height="100pt" viewBox="0 0 100 100" version="1.1" xmlns="http://www.w3.org/2000/svg">
<path fill="#06070a" opacity="0.92" d=" M 38.88 25.99 C 48.26 23.69 58.05 24.74 67.36 26.79 C 70.89 27.75 74.82 29.01 76.91 32.24 C 78.04 33.90 77.54 35.99 76.72 37.66 C 71.58 48.41 65.25 58.57 58.20 68.16 C 56.03 70.86 53.61 74.05 49.97 74.59 C 46.36 74.11 43.78 71.12 41.46 68.57 C 35.39 61.14 29.99 53.17 25.10 44.91 C 23.53 42.10 21.83 39.18 21.60 35.90 C 21.70 33.73 22.60 31.70 23.20 29.64 C 23.28 37.51 26.61 44.80 30.53 51.46 C 33.21 55.91 37.12 59.39 40.40 63.35 C 42.62 67.18 44.73 72.78 49.86 73.02 C 54.09 70.25 56.75 65.77 60.07 62.07 C 64.49 56.88 67.82 50.90 71.20 45.01 C 72.94 42.21 74.29 39.19 75.61 36.18 C 74.50 35.19 73.39 34.20 72.28 33.21 C 72.89 32.78 74.12 31.93 74.74 31.50 C 63.77 25.73 50.99 25.31 38.88 25.99 Z" />
<path fill="#333743" opacity="1.00" d=" M 23.20 29.64 C 27.96 27.84 32.91 26.48 38.01 26.08 C 34.23 26.76 31.01 28.84 28.47 31.65 C 31.51 31.20 34.53 30.58 37.55 29.98 C 37.11 30.59 36.68 31.19 36.24 31.80 C 38.68 33.07 41.13 34.34 43.66 35.41 C 43.39 35.64 42.85 36.09 42.57 36.31 C 41.91 36.07 41.24 35.82 40.58 35.57 C 40.95 39.70 39.13 43.42 37.28 46.97 C 33.73 52.48 38.25 58.27 40.40 63.35 C 37.12 59.39 33.21 55.91 30.53 51.46 C 26.61 44.80 23.28 37.51 23.20 29.64 Z" />
<path fill="#485161" opacity="1.00" d=" M 38.01 26.08 L 38.88 25.99 C 50.99 25.31 63.77 25.73 74.74 31.50 C 74.12 31.93 72.89 32.78 72.28 33.21 C 69.46 35.32 65.85 34.71 62.62 34.25 C 64.53 33.67 66.40 32.98 68.27 32.30 C 64.46 30.20 60.20 29.14 55.87 29.05 C 57.76 30.83 59.69 32.59 61.77 34.15 C 59.73 34.01 57.35 33.48 55.65 34.96 C 53.29 36.83 50.71 38.60 47.54 38.31 C 48.39 35.22 49.17 32.13 49.94 29.02 C 47.86 31.16 45.85 33.38 43.66 35.41 C 41.13 34.34 38.68 33.07 36.24 31.80 C 36.68 31.19 37.11 30.59 37.55 29.98 C 34.53 30.58 31.51 31.20 28.47 31.65 C 31.01 28.84 34.23 26.76 38.01 26.08 Z" />
<path fill="#ffe59a" opacity="1.00" d=" M 43.66 35.41 C 45.85 33.38 47.86 31.16 49.94 29.02 C 49.17 32.13 48.39 35.22 47.54 38.31 C 47.22 39.37 46.90 40.44 46.58 41.50 C 49.16 44.15 51.93 46.61 54.80 48.94 C 56.91 47.03 59.05 45.16 61.23 43.33 C 61.67 43.22 62.56 43.01 63.01 42.90 C 61.57 45.07 59.92 47.10 58.60 49.36 C 57.41 50.97 58.83 52.83 59.25 54.46 C 58.15 53.82 57.05 53.16 55.97 52.50 C 53.19 54.66 50.60 57.39 47.07 58.25 C 45.22 58.11 43.30 56.67 43.30 54.69 C 43.09 49.99 44.51 45.41 44.66 40.72 C 42.17 42.76 39.21 44.32 37.28 46.97 C 39.13 43.42 40.95 39.70 40.58 35.57 C 41.24 35.82 41.91 36.07 42.57 36.31 C 42.85 36.09 43.39 35.64 43.66 35.41 M 45.18 37.39 C 43.54 37.33 43.44 40.08 45.12 40.04 C 46.75 40.11 46.84 37.35 45.18 37.39 M 45.92 43.90 C 45.89 44.59 45.85 45.98 45.83 46.68 C 44.89 49.50 44.92 52.44 45.76 55.28 L 45.76 56.35 C 48.33 54.74 50.72 52.88 53.01 50.90 C 50.70 48.52 48.36 46.15 45.92 43.90 Z" />
<path fill="#afb9b8" opacity="1.00" d=" M 55.87 29.05 C 60.20 29.14 64.46 30.20 68.27 32.30 C 66.40 32.98 64.53 33.67 62.62 34.25 L 61.77 34.15 C 59.69 32.59 57.76 30.83 55.87 29.05 Z" />
<path fill="#323642" opacity="1.00" d=" M 55.65 34.96 C 57.35 33.48 59.73 34.01 61.77 34.15 L 62.62 34.25 C 65.85 34.71 69.46 35.32 72.28 33.21 C 73.39 34.20 74.50 35.19 75.61 36.18 C 74.29 39.19 72.94 42.21 71.20 45.01 C 67.10 47.73 63.65 51.30 61.17 55.57 C 60.52 55.20 59.88 54.84 59.25 54.46 C 58.83 52.83 57.41 50.97 58.60 49.36 C 59.92 47.10 61.57 45.07 63.01 42.90 C 62.56 43.01 61.67 43.22 61.23 43.33 C 61.85 42.57 62.47 41.80 63.08 41.02 C 57.59 41.52 52.08 41.59 46.58 41.50 C 46.90 40.44 47.22 39.37 47.54 38.31 C 50.71 38.60 53.29 36.83 55.65 34.96 Z" />
<path fill="#6b7985" opacity="1.00" d=" M 45.18 37.39 C 46.84 37.35 46.75 40.11 45.12 40.04 C 43.44 40.08 43.54 37.33 45.18 37.39 Z" />
<path fill="#141421" opacity="1.00" d=" M 37.28 46.97 C 39.21 44.32 42.17 42.76 44.66 40.72 C 44.51 45.41 43.09 49.99 43.30 54.69 C 43.30 56.67 45.22 58.11 47.07 58.25 C 50.60 57.39 53.19 54.66 55.97 52.50 C 57.05 53.16 58.15 53.82 59.25 54.46 C 59.88 54.84 60.52 55.20 61.17 55.57 C 63.65 51.30 67.10 47.73 71.20 45.01 C 67.82 50.90 64.49 56.88 60.07 62.07 C 56.75 65.77 54.09 70.25 49.86 73.02 C 44.73 72.78 42.62 67.18 40.40 63.35 C 38.25 58.27 33.73 52.48 37.28 46.97 Z" />
<path fill="#1c1d29" opacity="1.00" d=" M 46.58 41.50 C 52.08 41.59 57.59 41.52 63.08 41.02 C 62.47 41.80 61.85 42.57 61.23 43.33 C 59.05 45.16 56.91 47.03 54.80 48.94 C 51.93 46.61 49.16 44.15 46.58 41.50 Z" />
<path fill="#100d1a" opacity="1.00" d=" M 45.92 43.90 C 48.36 46.15 50.70 48.52 53.01 50.90 C 50.72 52.88 48.33 54.74 45.76 56.35 L 45.76 55.28 C 45.75 52.41 45.77 49.54 45.83 46.68 C 45.85 45.98 45.89 44.59 45.92 43.90 Z" />
<path fill="#67707a" opacity="1.00" d=" M 45.76 55.28 C 44.92 52.44 44.89 49.50 45.83 46.68 C 45.77 49.54 45.75 52.41 45.76 55.28 Z" />
</svg>
