<?xml version="1.0" encoding="UTF-8" ?>
<!DOCTYPE svg PUBLIC "-//W3C//DTD SVG 1.1//EN" "http://www.w3.org/Graphics/SVG/1.1/DTD/svg11.dtd">
<svg width="100pt" height="100pt" viewBox="0 0 100 100" version="1.1" xmlns="http://www.w3.org/2000/svg">
<path fill="#0a053f" opacity="0.86" d=" M 48.39 0.00 L 50.48 0.00 C 56.68 4.44 63.37 8.15 69.32 12.94 L 68.46 12.94 C 61.67 9.67 56.21 4.01 49.01 1.56 C 48.58 1.80 47.71 2.27 47.28 2.51 C 45.56 3.49 43.83 4.46 42.20 5.60 C 40.30 6.82 38.45 8.14 36.63 9.47 C 29.02 13.58 21.94 18.54 14.47 22.88 C 13.39 33.88 14.20 44.96 14.04 56.00 C 14.32 62.98 13.17 70.10 14.82 76.98 C 22.15 82.08 29.99 86.47 37.64 91.07 C 41.24 93.53 44.79 96.10 48.74 97.97 C 53.40 96.79 57.28 93.84 61.24 91.27 C 65.31 88.53 69.58 86.08 73.99 83.92 C 66.49 90.12 57.68 94.38 49.77 100.00 L 48.51 100.00 C 37.19 91.90 25.07 85.01 13.26 77.66 C 12.96 59.23 12.98 40.79 13.28 22.36 C 25.08 15.06 36.87 7.73 48.39 0.00 Z" />
<path fill="#bec4b3" opacity="0.89" d=" M 49.01 1.56 C 56.21 4.01 61.67 9.67 68.46 12.94 C 67.21 12.95 65.97 12.96 64.72 13.01 C 61.35 10.53 57.22 10.15 53.22 9.73 C 49.91 9.27 49.57 5.24 49.05 2.63 L 49.01 1.56 Z" />
<path fill="#3c4875" opacity="0.87" d=" M 47.28 2.51 C 47.71 2.27 48.58 1.80 49.01 1.56 L 49.05 2.63 C 49.10 5.07 48.95 7.51 48.84 9.95 C 46.96 10.91 45.17 12.04 43.30 13.01 C 44.87 9.61 46.23 6.11 47.28 2.51 Z" />
<path fill="#737a8d" opacity="0.87" d=" M 42.20 5.60 C 43.83 4.46 45.56 3.49 47.28 2.51 C 46.23 6.11 44.87 9.61 43.30 13.01 C 45.17 12.04 46.96 10.91 48.84 9.95 C 50.45 12.94 52.94 15.26 55.88 16.91 C 55.75 17.51 55.62 18.11 55.48 18.72 C 53.43 17.93 51.41 16.90 49.20 16.67 C 47.01 17.16 45.11 18.42 43.13 19.42 C 41.74 19.66 40.34 19.82 38.94 19.94 C 40.65 17.98 42.39 16.05 44.16 14.15 C 41.45 14.98 38.71 15.72 36.02 16.63 C 38.12 12.98 39.80 9.07 42.20 5.60 Z" />
<path fill="#919ea0" opacity="0.89" d=" M 49.05 2.63 C 49.57 5.24 49.91 9.27 53.22 9.73 C 57.22 10.15 61.35 10.53 64.72 13.01 C 64.13 14.80 63.51 16.59 62.93 18.39 C 58.15 15.70 53.87 12.19 48.84 9.95 C 48.95 7.51 49.10 5.07 49.05 2.63 Z" />
<path fill="#cdccb9" opacity="0.91" d=" M 36.63 9.47 C 38.45 8.14 40.30 6.82 42.20 5.60 C 39.80 9.07 38.12 12.98 36.02 16.63 C 31.09 18.70 26.53 21.49 21.89 24.12 C 21.50 23.28 21.11 22.44 20.72 21.60 C 26.22 17.85 33.42 15.77 36.63 9.47 Z" />
<path fill="#dcdcc8" opacity="0.94" d=" M 14.47 22.88 C 21.94 18.54 29.02 13.58 36.63 9.47 C 33.42 15.77 26.22 17.85 20.72 21.60 C 19.22 22.50 17.69 23.38 16.21 24.31 C 15.60 33.32 15.87 42.36 16.39 51.37 C 15.63 58.71 16.21 66.08 16.49 73.43 L 15.94 74.13 L 15.32 74.71 C 15.28 57.43 14.99 40.15 14.47 22.88 Z" />
<path fill="#c2ccd0" opacity="0.98" d=" M 48.84 9.95 C 53.87 12.19 58.15 15.70 62.93 18.39 C 63.90 18.80 64.89 19.19 65.89 19.55 C 65.27 20.40 64.66 21.26 64.04 22.11 C 61.34 20.34 58.63 18.59 55.88 16.91 C 52.94 15.26 50.45 12.94 48.84 9.95 Z" />
<path fill="#6f78b1" opacity="0.82" d=" M 64.72 13.01 C 65.97 12.96 67.21 12.95 68.46 12.94 L 69.32 12.94 C 72.34 15.72 75.53 18.32 78.64 21.00 C 76.26 19.93 73.78 19.07 71.32 18.19 C 71.78 19.11 72.23 20.02 72.67 20.94 C 70.40 20.54 68.13 20.10 65.89 19.55 C 64.89 19.19 63.90 18.80 62.93 18.39 C 63.51 16.59 64.13 14.80 64.72 13.01 Z" />
<path fill="#393b91" opacity="1.00" d=" M 69.32 12.94 C 74.57 16.34 80.78 18.55 85.06 23.24 C 85.57 25.44 85.50 27.73 85.52 29.98 C 85.30 45.71 85.53 61.45 85.39 77.18 C 81.82 79.79 77.96 81.97 73.99 83.92 C 76.47 81.91 78.78 79.69 81.30 77.74 C 82.27 77.42 83.23 77.12 84.21 76.84 C 84.23 73.77 84.17 70.69 84.08 67.62 C 84.10 65.30 82.92 63.27 81.98 61.24 C 82.86 56.20 83.33 51.10 83.26 45.99 C 83.14 38.88 83.40 31.77 83.80 24.67 C 82.26 24.41 80.72 24.14 79.19 23.86 C 79.13 23.02 79.09 22.18 79.01 21.34 L 78.64 21.00 C 75.53 18.32 72.34 15.72 69.32 12.94 Z" />
<path fill="#a2b0a2" opacity="0.87" d=" M 36.02 16.63 C 38.71 15.72 41.45 14.98 44.16 14.15 C 42.39 16.05 40.65 17.98 38.94 19.94 C 40.34 19.82 41.74 19.66 43.13 19.42 C 41.30 20.77 39.37 21.97 37.53 23.31 C 36.03 24.24 34.41 24.97 32.84 25.77 C 30.78 26.59 28.73 27.42 26.66 28.21 C 30.63 24.90 34.47 21.43 38.24 17.89 C 32.11 20.51 25.89 23.56 21.32 28.57 C 21.36 29.00 21.43 29.88 21.47 30.31 C 21.65 32.19 21.87 34.07 21.98 35.96 C 21.84 38.40 21.65 40.84 21.54 43.29 C 21.51 38.12 21.09 32.90 19.09 28.08 C 16.77 35.71 19.73 43.91 16.39 51.37 C 15.87 42.36 15.60 33.32 16.21 24.31 C 17.69 23.38 19.22 22.50 20.72 21.60 C 21.11 22.44 21.50 23.28 21.89 24.12 C 26.53 21.49 31.09 18.70 36.02 16.63 Z" />
<path fill="#565a75" opacity="0.87" d=" M 43.13 19.42 C 45.11 18.42 47.01 17.16 49.20 16.67 C 51.41 16.90 53.43 17.93 55.48 18.72 C 55.62 18.11 55.75 17.51 55.88 16.91 C 58.63 18.59 61.34 20.34 64.04 22.11 C 67.73 24.65 71.88 26.65 75.02 29.91 C 77.08 32.73 76.04 36.51 75.86 39.72 C 75.72 40.21 75.43 41.19 75.29 41.68 L 74.92 40.79 C 74.32 39.45 73.70 38.13 73.09 36.80 C 72.90 39.60 72.67 42.39 72.28 45.17 C 72.12 43.35 71.98 41.52 71.67 39.72 C 71.55 39.09 71.32 37.82 71.21 37.18 C 70.07 37.93 68.89 38.60 67.81 39.44 C 67.82 38.63 67.84 37.01 67.85 36.20 C 67.48 36.29 66.75 36.49 66.38 36.59 C 66.14 36.66 65.65 36.81 65.41 36.88 C 61.61 32.37 57.69 26.63 51.15 26.52 C 50.57 25.27 49.95 24.03 49.23 22.85 C 48.94 22.89 48.37 22.99 48.09 23.04 C 44.62 23.89 41.03 24.04 37.53 23.31 C 39.37 21.97 41.30 20.77 43.13 19.42 Z" />
<path fill="#ccdddf" opacity="1.00" d=" M 21.32 28.57 C 25.89 23.56 32.11 20.51 38.24 17.89 C 34.47 21.43 30.63 24.90 26.66 28.21 C 24.94 28.94 23.21 29.65 21.47 30.31 C 21.43 29.88 21.36 29.00 21.32 28.57 Z" />
<path fill="#353e8a" opacity="0.80" d=" M 71.32 18.19 C 73.78 19.07 76.26 19.93 78.64 21.00 L 79.01 21.34 C 79.09 22.18 79.13 23.02 79.19 23.86 C 80.72 24.14 82.26 24.41 83.80 24.67 C 83.40 31.77 83.14 38.88 83.26 45.99 C 82.69 45.97 81.56 45.92 81.00 45.90 C 81.16 43.23 81.34 40.57 81.38 37.91 C 80.19 38.84 79.01 39.78 77.83 40.72 C 76.82 35.82 77.79 30.75 80.79 26.72 C 79.86 27.14 78.93 27.56 78.00 27.97 C 73.94 25.20 69.90 22.40 65.89 19.55 C 68.13 20.10 70.40 20.54 72.67 20.94 C 72.23 20.02 71.78 19.11 71.32 18.19 Z" />
<path fill="#7b8db4" opacity="0.90" d=" M 65.89 19.55 C 69.90 22.40 73.94 25.20 78.00 27.97 C 78.93 27.56 79.86 27.14 80.79 26.72 C 77.79 30.75 76.82 35.82 77.83 40.72 C 79.53 48.13 79.13 55.73 78.49 63.25 C 78.38 56.29 78.66 49.28 77.61 42.38 C 76.66 47.61 76.34 52.92 76.23 58.22 C 76.41 52.05 75.96 45.89 75.86 39.72 C 76.04 36.51 77.08 32.73 75.02 29.91 C 71.88 26.65 67.73 24.65 64.04 22.11 C 64.66 21.26 65.27 20.40 65.89 19.55 Z" />
<path fill="#aab4ba" opacity="0.94" d=" M 48.09 23.04 C 48.37 22.99 48.94 22.89 49.23 22.85 C 49.95 24.03 50.57 25.27 51.15 26.52 C 51.91 32.08 52.07 37.70 52.36 43.29 C 51.75 43.49 50.51 43.89 49.89 44.09 C 50.03 37.69 50.23 31.19 48.53 24.95 C 48.42 24.47 48.20 23.52 48.09 23.04 Z" />
<path fill="#c4b495" opacity="1.00" d=" M 14.04 56.00 C 14.20 44.96 13.39 33.88 14.47 22.88 C 14.99 40.15 15.28 57.43 15.32 74.71 L 15.14 75.49 C 15.06 75.86 14.90 76.61 14.82 76.98 C 13.17 70.10 14.32 62.98 14.04 56.00 Z" />
<path fill="#677674" opacity="0.84" d=" M 32.84 25.77 C 34.41 24.97 36.03 24.24 37.53 23.31 C 41.03 24.04 44.62 23.89 48.09 23.04 C 48.20 23.52 48.42 24.47 48.53 24.95 C 48.08 26.12 47.61 27.29 47.17 28.46 C 47.03 28.04 46.76 27.20 46.62 26.78 C 45.64 31.86 45.39 37.03 45.04 42.18 C 39.79 40.45 35.63 36.82 31.62 33.18 L 31.13 33.88 C 31.27 37.05 32.43 40.04 33.32 43.05 C 33.15 45.19 33.14 47.34 32.76 49.45 C 29.61 45.60 27.39 41.15 25.37 36.63 C 25.50 37.77 25.66 38.91 25.84 40.05 C 25.37 39.85 24.44 39.45 23.98 39.25 C 24.55 42.19 25.13 45.14 26.00 48.02 C 25.05 49.46 24.12 50.91 23.16 52.35 C 22.48 49.36 21.50 46.39 21.54 43.29 C 21.65 40.84 21.84 38.40 21.98 35.96 C 23.14 31.75 28.14 31.70 31.55 30.49 C 31.97 28.92 32.41 27.34 32.84 25.77 Z" />
<path fill="#0a053f" opacity="0.86" d=" M 47.17 28.46 C 47.61 27.29 48.08 26.12 48.53 24.95 C 50.23 31.19 50.03 37.69 49.89 44.09 C 50.51 43.89 51.75 43.49 52.36 43.29 C 57.12 42.07 61.31 39.50 65.41 36.88 C 65.65 36.81 66.14 36.66 66.38 36.59 C 63.54 42.04 61.96 48.08 62.91 54.25 C 63.71 53.34 64.50 52.41 65.25 51.46 C 68.26 48.08 70.19 43.96 71.67 39.72 C 71.98 41.52 72.12 43.35 72.28 45.17 C 71.37 51.51 65.78 55.36 61.64 59.63 C 58.55 62.67 56.49 66.51 54.62 70.36 C 54.31 69.66 53.71 68.28 53.41 67.59 C 54.91 63.58 56.91 59.81 59.12 56.16 C 61.28 52.58 60.75 48.25 60.37 44.30 C 55.89 46.36 54.04 51.06 52.22 55.29 C 49.49 61.18 50.16 67.88 48.45 74.04 C 47.64 67.65 47.80 60.93 44.99 54.99 C 43.48 51.76 41.68 48.68 39.84 45.64 C 38.82 45.34 37.81 45.06 36.79 44.79 C 36.75 47.78 36.49 50.84 37.17 53.79 C 38.38 57.64 41.48 60.52 42.92 64.27 C 43.59 66.16 42.75 68.14 42.37 70.02 C 40.01 62.63 33.95 57.66 28.26 52.86 C 27.37 51.31 26.66 49.67 26.00 48.02 C 25.13 45.14 24.55 42.19 23.98 39.25 C 24.44 39.45 25.37 39.85 25.84 40.05 C 27.39 45.37 30.78 49.85 34.16 54.14 C 34.22 50.43 34.22 46.68 33.32 43.05 C 32.43 40.04 31.27 37.05 31.13 33.88 C 35.05 38.99 40.54 42.49 46.68 44.32 C 46.60 39.03 46.81 33.74 47.17 28.46 M 50.05 53.29 C 51.35 51.27 52.38 49.10 53.16 46.83 C 50.62 48.14 49.52 50.47 50.05 53.29 M 44.08 47.42 C 44.80 49.66 46.15 51.57 47.75 53.27 C 47.81 50.53 47.17 47.90 44.08 47.42 Z" />
<path fill="#698995" opacity="0.90" d=" M 26.66 28.21 C 28.73 27.42 30.78 26.59 32.84 25.77 C 32.41 27.34 31.97 28.92 31.55 30.49 C 28.14 31.70 23.14 31.75 21.98 35.96 C 21.87 34.07 21.65 32.19 21.47 30.31 C 23.21 29.65 24.94 28.94 26.66 28.21 Z" />
<path fill="#6a7284" opacity="0.86" d=" M 51.15 26.52 C 57.69 26.63 61.61 32.37 65.41 36.88 C 61.31 39.50 57.12 42.07 52.36 43.29 C 52.07 37.70 51.91 32.08 51.15 26.52 Z" />
<path fill="#bec4b3" opacity="0.89" d=" M 46.62 26.78 C 46.76 27.20 47.03 28.04 47.17 28.46 C 46.81 33.74 46.60 39.03 46.68 44.32 C 40.54 42.49 35.05 38.99 31.13 33.88 L 31.62 33.18 C 35.63 36.82 39.79 40.45 45.04 42.18 C 45.39 37.03 45.64 31.86 46.62 26.78 Z" />
<path fill="#5479a7" opacity="0.82" d=" M 16.39 51.37 C 19.73 43.91 16.77 35.71 19.09 28.08 C 21.09 32.90 21.51 38.12 21.54 43.29 C 21.50 46.39 22.48 49.36 23.16 52.35 C 24.12 50.91 25.05 49.46 26.00 48.02 C 26.66 49.67 27.37 51.31 28.26 52.86 C 29.30 54.89 30.31 56.94 31.32 58.99 C 30.06 61.14 28.82 63.30 27.58 65.45 C 25.55 65.55 23.53 65.54 21.50 65.64 C 21.54 58.70 20.87 51.76 19.51 44.96 C 18.41 50.57 17.94 56.31 18.46 62.01 C 18.69 65.89 19.71 70.44 16.49 73.43 C 16.21 66.08 15.63 58.71 16.39 51.37 Z" />
<path fill="#a4aec5" opacity="0.97" d=" M 66.38 36.59 C 66.75 36.49 67.48 36.29 67.85 36.20 C 67.84 37.01 67.82 38.63 67.81 39.44 C 64.97 42.79 64.66 47.28 65.25 51.46 C 64.50 52.41 63.71 53.34 62.91 54.25 C 61.96 48.08 63.54 42.04 66.38 36.59 Z" />
<path fill="#bec4b3" opacity="0.89" d=" M 25.37 36.63 C 27.39 41.15 29.61 45.60 32.76 49.45 C 33.14 47.34 33.15 45.19 33.32 43.05 C 34.22 46.68 34.22 50.43 34.16 54.14 C 30.78 49.85 27.39 45.37 25.84 40.05 C 25.66 38.91 25.50 37.77 25.37 36.63 Z" />
<path fill="#5460a2" opacity="0.87" d=" M 67.81 39.44 C 68.89 38.60 70.07 37.93 71.21 37.18 C 71.32 37.82 71.55 39.09 71.67 39.72 C 70.19 43.96 68.26 48.08 65.25 51.46 C 64.66 47.28 64.97 42.79 67.81 39.44 Z" />
<path fill="#acb9cb" opacity="0.97" d=" M 73.09 36.80 C 73.70 38.13 74.32 39.45 74.92 40.79 C 73.79 45.33 73.15 50.30 69.97 53.97 C 66.28 58.27 61.67 61.85 58.90 66.90 C 57.74 68.89 56.71 70.96 55.68 73.03 C 55.41 72.36 54.88 71.02 54.62 70.36 C 56.49 66.51 58.55 62.67 61.64 59.63 C 65.78 55.36 71.37 51.51 72.28 45.17 C 72.67 42.39 72.90 39.60 73.09 36.80 Z" />
<path fill="#4e58a0" opacity="0.80" d=" M 77.83 40.72 C 79.01 39.78 80.19 38.84 81.38 37.91 C 81.34 40.57 81.16 43.23 81.00 45.90 C 80.71 51.00 78.92 56.61 81.98 61.24 C 82.92 63.27 84.10 65.30 84.08 67.62 C 83.59 70.04 83.05 72.45 82.40 74.84 C 79.16 74.79 75.79 75.15 73.11 77.16 C 69.61 79.61 65.73 81.40 61.58 82.37 C 63.05 81.16 64.44 79.86 65.91 78.64 C 69.84 76.50 74.35 74.92 77.37 71.50 C 78.33 68.87 78.29 66.01 78.49 63.25 C 79.13 55.73 79.53 48.13 77.83 40.72 Z" />
<path fill="#0b298d" opacity="0.87" d=" M 75.29 41.68 C 75.43 41.19 75.72 40.21 75.86 39.72 C 75.96 45.89 76.41 52.05 76.23 58.22 C 76.18 59.74 76.11 61.25 75.99 62.76 C 75.34 64.45 74.62 66.10 73.90 67.76 C 72.08 66.77 70.22 65.87 68.31 65.07 C 71.11 62.59 73.72 59.55 74.40 55.75 C 75.19 51.10 74.88 46.36 75.29 41.68 Z" />
<path fill="#436ab5" opacity="0.93" d=" M 74.92 40.79 L 75.29 41.68 C 74.88 46.36 75.19 51.10 74.40 55.75 C 73.72 59.55 71.11 62.59 68.31 65.07 C 66.73 66.46 65.11 67.79 63.59 69.25 C 62.03 68.46 60.46 67.68 58.90 66.90 C 61.67 61.85 66.28 58.27 69.97 53.97 C 73.15 50.30 73.79 45.33 74.92 40.79 Z" />
<path fill="#b9c5d3" opacity="0.96" d=" M 76.23 58.22 C 76.34 52.92 76.66 47.61 77.61 42.38 C 78.66 49.28 78.38 56.29 78.49 63.25 C 78.29 66.01 78.33 68.87 77.37 71.50 C 74.35 74.92 69.84 76.50 65.91 78.64 C 65.17 78.74 63.68 78.94 62.94 79.04 C 66.39 76.80 69.98 74.79 73.35 72.43 C 76.83 70.51 75.45 66.00 75.99 62.76 C 76.11 61.25 76.18 59.74 76.23 58.22 Z" />
<path fill="#294365" opacity="0.66" d=" M 19.51 44.96 C 20.87 51.76 21.54 58.70 21.50 65.64 C 21.19 67.42 20.87 69.21 20.26 70.92 C 18.79 71.95 17.32 72.98 15.94 74.13 L 16.49 73.43 C 19.71 70.44 18.69 65.89 18.46 62.01 C 17.94 56.31 18.41 50.57 19.51 44.96 Z" />
<path fill="#aac2d1" opacity="0.98" d=" M 36.79 44.79 C 37.81 45.06 38.82 45.34 39.84 45.64 C 39.12 47.90 37.94 50.24 38.50 52.67 C 39.74 57.58 43.99 61.13 45.06 66.10 C 45.11 68.53 43.99 70.80 43.24 73.07 C 42.84 72.84 42.04 72.38 41.64 72.14 C 41.82 71.61 42.18 70.55 42.37 70.02 C 42.75 68.14 43.59 66.16 42.92 64.27 C 41.48 60.52 38.38 57.64 37.17 53.79 C 36.49 50.84 36.75 47.78 36.79 44.79 Z" />
<path fill="#a8bac8" opacity="0.98" d=" M 52.22 55.29 C 54.04 51.06 55.89 46.36 60.37 44.30 C 57.46 50.09 53.12 55.42 52.30 62.04 C 52.03 63.98 51.92 65.94 51.72 67.89 C 51.52 70.16 51.20 72.41 50.74 74.64 C 50.52 75.69 50.28 76.74 50.02 77.79 C 49.34 77.34 48.66 76.89 47.98 76.44 C 48.10 75.84 48.33 74.64 48.45 74.04 C 50.16 67.88 49.49 61.18 52.22 55.29 Z" />
<path fill="#536eb6" opacity="0.96" d=" M 60.37 44.30 C 60.75 48.25 61.28 52.58 59.12 56.16 C 56.91 59.81 54.91 63.58 53.41 67.59 C 52.98 67.66 52.14 67.82 51.72 67.89 C 51.92 65.94 52.03 63.98 52.30 62.04 C 53.12 55.42 57.46 50.09 60.37 44.30 Z" />
<path fill="#649bb5" opacity="0.95" d=" M 39.84 45.64 C 41.68 48.68 43.48 51.76 44.99 54.99 C 47.80 60.93 47.64 67.65 48.45 74.04 C 48.33 74.64 48.10 75.84 47.98 76.44 C 42.53 77.20 36.96 76.64 32.00 74.16 C 36.98 78.00 42.26 81.46 47.12 85.46 C 47.78 85.99 48.43 86.53 49.08 87.07 C 49.07 87.90 49.05 89.54 49.04 90.36 C 44.43 86.07 38.79 83.17 33.71 79.51 C 34.28 79.63 35.42 79.88 35.99 80.01 C 31.25 76.29 26.59 71.48 20.26 70.92 C 20.87 69.21 21.19 67.42 21.50 65.64 C 23.53 65.54 25.55 65.55 27.58 65.45 C 28.82 63.30 30.06 61.14 31.32 58.99 C 30.31 56.94 29.30 54.89 28.26 52.86 C 33.95 57.66 40.01 62.63 42.37 70.02 C 42.18 70.55 41.82 71.61 41.64 72.14 C 42.04 72.38 42.84 72.84 43.24 73.07 C 43.99 70.80 45.11 68.53 45.06 66.10 C 43.99 61.13 39.74 57.58 38.50 52.67 C 37.94 50.24 39.12 47.90 39.84 45.64 Z" />
<path fill="#0825d0" opacity="0.82" d=" M 81.00 45.90 C 81.56 45.92 82.69 45.97 83.26 45.99 C 83.33 51.10 82.86 56.20 81.98 61.24 C 78.92 56.61 80.71 51.00 81.00 45.90 Z" />
<path fill="#a4bbcb" opacity="1.00" d=" M 50.05 53.29 C 49.52 50.47 50.62 48.14 53.16 46.83 C 52.38 49.10 51.35 51.27 50.05 53.29 Z" />
<path fill="#cdccb9" opacity="0.91" d=" M 44.08 47.42 C 47.17 47.90 47.81 50.53 47.75 53.27 C 46.15 51.57 44.80 49.66 44.08 47.42 Z" />
<path fill="#415780" opacity="0.87" d=" M 73.90 67.76 C 74.62 66.10 75.34 64.45 75.99 62.76 C 75.45 66.00 76.83 70.51 73.35 72.43 C 69.98 74.79 66.39 76.80 62.94 79.04 C 58.18 81.47 53.67 84.35 49.08 87.07 C 48.43 86.53 47.78 85.99 47.12 85.46 C 52.10 84.13 56.47 81.31 60.28 77.90 C 58.80 78.21 57.31 78.50 55.85 78.91 C 59.12 76.29 61.28 72.67 63.59 69.25 C 65.11 67.79 66.73 66.46 68.31 65.07 C 70.22 65.87 72.08 66.77 73.90 67.76 M 60.35 78.00 C 64.16 76.92 67.50 74.71 70.27 71.93 C 66.52 73.12 62.81 74.79 60.35 78.00 Z" />
<path fill="#6a928d" opacity="0.92" d=" M 55.68 73.03 C 56.71 70.96 57.74 68.89 58.90 66.90 C 60.46 67.68 62.03 68.46 63.59 69.25 C 61.28 72.67 59.12 76.29 55.85 78.91 C 54.75 79.64 53.65 80.37 52.55 81.08 C 52.72 79.33 52.90 77.57 53.07 75.82 C 52.29 75.42 51.52 75.03 50.74 74.64 C 51.20 72.41 51.52 70.16 51.72 67.89 C 52.14 67.82 52.98 67.66 53.41 67.59 C 53.71 68.28 54.31 69.66 54.62 70.36 C 54.88 71.02 55.41 72.36 55.68 73.03 Z" />
<path fill="#7c83a8" opacity="0.93" d=" M 82.40 74.84 C 83.05 72.45 83.59 70.04 84.08 67.62 C 84.17 70.69 84.23 73.77 84.21 76.84 C 83.23 77.12 82.27 77.42 81.30 77.74 C 74.03 79.77 68.32 84.97 61.72 88.39 C 62.41 86.93 62.99 85.43 63.61 83.94 C 58.72 86.65 53.89 89.45 49.00 92.16 L 49.02 91.25 L 49.04 90.36 C 52.84 87.15 57.13 84.58 61.58 82.37 C 65.73 81.40 69.61 79.61 73.11 77.16 C 75.79 75.15 79.16 74.79 82.40 74.84 Z" />
<path fill="#a1c7cb" opacity="1.00" d=" M 20.26 70.92 C 26.59 71.48 31.25 76.29 35.99 80.01 C 35.42 79.88 34.28 79.63 33.71 79.51 C 29.64 77.08 25.47 74.82 21.34 72.49 C 21.07 72.10 20.53 71.31 20.26 70.92 Z" />
<path fill="#8ea29a" opacity="0.82" d=" M 15.94 74.13 C 17.32 72.98 18.79 71.95 20.26 70.92 C 20.53 71.31 21.07 72.10 21.34 72.49 C 23.50 75.67 26.13 78.60 27.36 82.31 C 23.23 80.13 19.24 77.72 15.14 75.49 L 15.32 74.71 L 15.94 74.13 Z" />
<path fill="#a79e7a" opacity="0.88" d=" M 60.35 78.00 C 62.81 74.79 66.52 73.12 70.27 71.93 C 67.50 74.71 64.16 76.92 60.35 78.00 Z" />
<path fill="#627aa8" opacity="0.80" d=" M 21.34 72.49 C 25.47 74.82 29.64 77.08 33.71 79.51 C 33.81 80.99 33.95 82.73 35.17 83.76 C 39.15 87.27 44.21 89.18 49.02 91.25 L 49.00 92.16 C 48.95 93.50 48.92 94.84 48.89 96.18 C 45.77 94.22 42.67 92.26 39.50 90.39 C 35.60 87.48 31.57 84.74 27.36 82.31 C 26.13 78.60 23.50 75.67 21.34 72.49 Z" />
<path fill="#8da18f" opacity="0.93" d=" M 32.00 74.16 C 36.96 76.64 42.53 77.20 47.98 76.44 C 48.66 76.89 49.34 77.34 50.02 77.79 C 50.28 76.74 50.52 75.69 50.74 74.64 C 51.52 75.03 52.29 75.42 53.07 75.82 C 52.90 77.57 52.72 79.33 52.55 81.08 C 53.65 80.37 54.75 79.64 55.85 78.91 C 57.31 78.50 58.80 78.21 60.28 77.90 C 56.47 81.31 52.10 84.13 47.12 85.46 C 42.26 81.46 36.98 78.00 32.00 74.16 Z" />
<path fill="#dfe2d6" opacity="1.00" d=" M 15.14 75.49 C 19.24 77.72 23.23 80.13 27.36 82.31 C 31.57 84.74 35.60 87.48 39.50 90.39 C 39.03 90.56 38.11 90.90 37.64 91.07 C 29.99 86.47 22.15 82.08 14.82 76.98 C 14.90 76.61 15.06 75.86 15.14 75.49 Z" />
<path fill="#c5cbd5" opacity="1.00" d=" M 61.72 88.39 C 68.32 84.97 74.03 79.77 81.30 77.74 C 78.78 79.69 76.47 81.91 73.99 83.92 C 69.58 86.08 65.31 88.53 61.24 91.27 C 57.28 93.84 53.40 96.79 48.74 97.97 C 52.36 93.90 57.21 91.32 61.72 88.39 Z" />
<path fill="#ccd9d7" opacity="1.00" d=" M 49.08 87.07 C 53.67 84.35 58.18 81.47 62.94 79.04 C 63.68 78.94 65.17 78.74 65.91 78.64 C 64.44 79.86 63.05 81.16 61.58 82.37 C 57.13 84.58 52.84 87.15 49.04 90.36 C 49.05 89.54 49.07 87.90 49.08 87.07 Z" />
<path fill="#465780" opacity="0.89" d=" M 35.17 83.76 C 33.95 82.73 33.81 80.99 33.71 79.51 C 38.79 83.17 44.43 86.07 49.04 90.36 L 49.02 91.25 C 44.21 89.18 39.15 87.27 35.17 83.76 Z" />
<path fill="#b5b9a3" opacity="0.93" d=" M 49.00 92.16 C 53.89 89.45 58.72 86.65 63.61 83.94 C 62.99 85.43 62.41 86.93 61.72 88.39 C 57.21 91.32 52.36 93.90 48.74 97.97 C 44.79 96.10 41.24 93.53 37.64 91.07 C 38.11 90.90 39.03 90.56 39.50 90.39 C 42.67 92.26 45.77 94.22 48.89 96.18 C 48.92 94.84 48.95 93.50 49.00 92.16 Z" />
</svg>
