<?xml version="1.0" encoding="UTF-8" ?>
<!DOCTYPE svg PUBLIC "-//W3C//DTD SVG 1.1//EN" "http://www.w3.org/Graphics/SVG/1.1/DTD/svg11.dtd">
<svg width="100pt" height="100pt" viewBox="0 0 100 100" version="1.1" xmlns="http://www.w3.org/2000/svg">
<path fill="#141620" opacity="0.98" d=" M 40.98 25.98 C 51.19 23.16 65.31 24.68 75.68 30.27 C 80.61 43.52 64.36 55.78 59.05 67.06 C 56.01 70.69 50.98 77.94 46.02 72.94 C 35.58 62.42 25.60 49.65 21.44 35.22 C 20.71 30.60 25.85 27.38 30.00 27.90 C 15.74 33.13 31.02 50.60 36.06 57.94 C 42.11 65.13 35.67 54.23 33.99 51.08 C 34.89 45.18 42.61 49.79 46.21 47.26 C 50.27 38.00 39.05 45.17 34.68 46.31 C 29.36 38.44 45.00 41.74 50.50 40.98 C 49.71 47.48 47.45 53.74 47.04 60.29 C 50.95 54.06 53.42 47.04 54.94 39.87 C 56.04 39.81 57.13 39.74 58.23 39.68 C 56.97 43.11 56.10 46.70 56.05 50.39 C 59.74 46.52 61.11 40.29 66.73 38.67 C 66.47 44.80 63.02 49.26 59.69 54.04 C 65.65 49.31 72.93 43.85 75.40 36.13 C 70.71 40.36 73.36 32.16 73.20 30.76 C 63.37 26.00 51.77 25.72 40.98 25.98 Z" />
<path fill="#414855" opacity="1.00" d=" M 30.00 27.90 C 33.43 26.32 37.28 26.12 40.98 25.98 C 51.77 25.72 63.37 26.00 73.20 30.76 C 73.36 32.16 70.71 40.36 75.40 36.13 C 72.93 43.85 65.65 49.31 59.69 54.04 C 63.02 49.26 66.47 44.80 66.73 38.67 C 67.25 35.13 60.66 39.16 58.23 39.68 C 57.13 39.74 56.04 39.81 54.94 39.87 C 55.27 36.17 55.59 32.46 55.80 28.75 C 52.89 32.24 51.45 36.61 50.50 40.98 C 45.00 41.74 29.36 38.44 34.68 46.31 C 38.51 46.79 42.35 47.11 46.21 47.26 C 42.61 49.79 34.89 45.18 33.99 51.08 C 35.67 54.23 42.11 65.13 36.06 57.94 C 31.02 50.60 15.74 33.13 30.00 27.90 Z" />
<path fill="#d8c590" opacity="1.00" d=" M 50.50 40.98 C 51.45 36.61 52.89 32.24 55.80 28.75 C 55.59 32.46 55.27 36.17 54.94 39.87 C 53.42 47.04 50.95 54.06 47.04 60.29 C 47.45 53.74 49.71 47.48 50.50 40.98 Z" />
<path fill="#d4c490" opacity="1.00" d=" M 58.23 39.68 C 60.66 39.16 67.25 35.13 66.73 38.67 C 61.11 40.29 59.74 46.52 56.05 50.39 C 56.10 46.70 56.97 43.11 58.23 39.68 Z" />
<path fill="#e1cc91" opacity="1.00" d=" M 34.68 46.31 C 39.05 45.17 50.27 38.00 46.21 47.26 C 42.35 47.11 38.51 46.79 34.68 46.31 Z" />
</svg>
