<?xml version="1.0" encoding="UTF-8" ?>
<!DOCTYPE svg PUBLIC "-//W3C//DTD SVG 1.1//EN" "http://www.w3.org/Graphics/SVG/1.1/DTD/svg11.dtd">
<svg width="100pt" height="100pt" viewBox="0 0 100 100" version="1.1" xmlns="http://www.w3.org/2000/svg">
<path fill="#12141e" opacity="0.97" d=" M 39.97 26.00 C 50.48 23.19 65.01 24.48 75.68 30.27 C 80.60 43.52 64.36 55.79 59.05 67.06 C 56.02 70.69 50.98 77.94 46.02 72.95 C 35.65 63.06 27.17 50.47 21.68 37.19 C 20.45 34.53 21.41 31.37 23.93 29.88 C 23.41 41.78 30.90 53.01 39.18 61.14 C 36.79 54.71 31.51 45.67 37.95 40.69 C 39.88 47.53 42.64 60.00 51.38 59.44 C 57.72 56.91 55.82 49.14 53.55 44.24 C 56.42 43.26 59.38 42.61 62.28 41.71 C 68.41 46.52 57.20 51.33 60.13 56.10 C 65.21 48.95 73.97 43.83 75.24 34.79 C 73.35 41.08 70.75 34.17 73.87 31.64 C 64.52 24.64 50.97 26.61 39.97 26.00 Z" />
<path fill="#3c424e" opacity="1.00" d=" M 23.93 29.88 C 27.72 26.79 34.83 26.63 39.97 26.00 C 50.97 26.61 64.52 24.64 73.87 31.64 C 70.75 34.17 73.35 41.08 75.24 34.79 C 73.97 43.83 65.21 48.95 60.13 56.10 C 57.20 51.33 68.41 46.52 62.28 41.71 C 62.49 36.51 50.31 44.43 47.73 44.23 C 47.08 39.36 46.88 24.12 45.95 38.05 C 42.63 39.67 32.43 30.87 37.95 40.69 C 31.51 45.67 36.79 54.71 39.18 61.14 C 30.90 53.01 23.41 41.78 23.93 29.88 M 53.79 28.08 C 55.33 31.49 68.44 38.66 67.79 31.30 C 63.63 28.74 58.59 28.06 53.79 28.08 Z" />
<path fill="#828e94" opacity="1.00" d=" M 53.79 28.08 C 58.59 28.06 63.63 28.74 67.79 31.30 C 68.44 38.66 55.33 31.49 53.79 28.08 Z" />
<path fill="#d7c58c" opacity="1.00" d=" M 45.95 38.05 C 46.88 24.12 47.08 39.36 47.73 44.23 C 50.31 44.43 62.49 36.51 62.28 41.71 C 59.38 42.61 56.42 43.26 53.55 44.24 C 55.82 49.14 57.72 56.91 51.38 59.44 C 42.64 60.00 39.88 47.53 37.95 40.69 C 32.43 30.87 42.63 39.67 45.95 38.05 M 39.15 37.82 C 40.85 44.19 47.97 64.12 53.67 51.65 C 55.44 44.65 49.38 44.89 45.15 48.14 C 46.85 42.67 45.25 38.82 39.15 37.82 Z" />
<path fill="#181a26" opacity="1.00" d=" M 39.15 37.82 C 45.25 38.82 46.85 42.67 45.15 48.14 C 49.38 44.89 55.44 44.65 53.67 51.65 C 47.97 64.12 40.85 44.19 39.15 37.82 Z" />
</svg>
