<?xml version="1.0" encoding="UTF-8" ?>
<!DOCTYPE svg PUBLIC "-//W3C//DTD SVG 1.1//EN" "http://www.w3.org/Graphics/SVG/1.1/DTD/svg11.dtd">
<svg width="100pt" height="100pt" viewBox="0 0 100 100" version="1.1" xmlns="http://www.w3.org/2000/svg">
<path fill="#06003a" opacity="0.87" d=" M 48.39 0.00 L 50.48 0.00 C 56.69 4.42 63.36 8.16 69.33 12.92 L 68.47 12.94 C 61.67 9.66 56.21 3.97 48.98 1.56 C 48.55 1.79 47.69 2.26 47.26 2.49 C 45.54 3.47 43.83 4.47 42.19 5.58 C 40.31 6.84 38.44 8.12 36.61 9.46 C 29.10 13.66 21.87 18.34 14.59 22.92 C 13.16 32.54 14.27 42.32 13.99 52.00 C 14.48 60.32 13.00 68.79 14.80 77.00 C 22.16 82.06 29.97 86.49 37.64 91.07 C 41.23 93.54 44.79 96.12 48.74 98.00 C 53.87 96.67 58.05 93.27 62.46 90.50 C 66.14 88.05 70.03 85.93 73.95 83.88 C 66.53 90.18 57.67 94.37 49.77 100.00 L 48.51 100.00 C 37.16 91.93 25.07 84.98 13.22 77.68 C 12.95 59.24 12.96 40.79 13.24 22.35 C 25.08 15.09 36.84 7.71 48.39 0.00 Z" />
<path fill="#bec4b3" opacity="0.89" d=" M 48.98 1.56 C 56.21 3.97 61.67 9.66 68.47 12.94 C 67.27 12.99 66.07 13.06 64.88 13.12 C 61.63 10.82 57.74 10.14 53.87 9.89 C 50.20 9.74 49.48 5.49 49.03 2.63 L 48.98 1.56 Z" />
<path fill="#3c4875" opacity="0.87" d=" M 47.26 2.49 C 47.69 2.26 48.55 1.79 48.98 1.56 L 49.03 2.63 C 49.06 5.03 48.98 7.44 48.87 9.84 C 47.01 10.90 45.16 11.97 43.31 13.05 C 44.83 9.61 46.25 6.12 47.26 2.49 Z" />
<path fill="#737a8d" opacity="0.87" d=" M 42.19 5.58 C 43.83 4.47 45.54 3.47 47.26 2.49 C 46.25 6.12 44.83 9.61 43.31 13.05 C 45.16 11.97 47.01 10.90 48.87 9.84 C 49.99 11.65 51.17 13.44 52.71 14.93 C 52.72 15.44 52.73 15.94 52.74 16.45 C 49.35 16.72 46.04 17.62 43.10 19.35 C 41.71 19.60 40.31 19.77 38.91 19.95 C 40.61 17.98 42.36 16.06 44.13 14.15 C 41.43 14.99 38.70 15.74 36.02 16.63 C 38.16 12.99 39.79 9.06 42.19 5.58 Z" />
<path fill="#8a95a0" opacity="0.88" d=" M 49.03 2.63 C 49.48 5.49 50.20 9.74 53.87 9.89 C 57.74 10.14 61.63 10.82 64.88 13.12 C 64.85 14.91 64.83 16.71 64.87 18.50 L 64.91 19.36 C 59.53 16.25 54.48 12.55 48.87 9.84 C 48.98 7.44 49.06 5.03 49.03 2.63 Z" />
<path fill="#cdccb9" opacity="0.91" d=" M 36.61 9.46 C 38.44 8.12 40.31 6.84 42.19 5.58 C 39.79 9.06 38.16 12.99 36.02 16.63 C 31.07 18.67 26.50 21.48 21.87 24.14 C 21.50 23.29 21.12 22.43 20.74 21.58 C 26.24 17.87 33.44 15.77 36.61 9.46 Z" />
<path fill="#dcdcc8" opacity="0.94" d=" M 14.59 22.92 C 21.87 18.34 29.10 13.66 36.61 9.46 C 33.44 15.77 26.24 17.87 20.74 21.58 C 19.21 22.48 17.68 23.39 16.16 24.30 C 15.62 33.31 15.79 42.35 16.46 51.36 C 15.74 58.67 16.36 66.00 16.37 73.32 L 15.85 73.99 L 15.34 74.62 C 15.24 57.38 14.86 40.15 14.59 22.92 Z" />
<path fill="#cdccb9" opacity="0.91" d=" M 48.87 9.84 C 54.48 12.55 59.53 16.25 64.91 19.36 C 69.32 22.42 73.64 25.61 78.23 28.39 C 77.48 33.16 77.18 38.04 78.00 42.82 C 79.16 49.63 78.52 56.54 78.46 63.40 L 78.39 62.58 C 78.12 55.92 78.48 49.23 77.55 42.61 C 76.69 48.10 76.55 53.65 76.30 59.19 C 76.55 53.94 76.37 48.69 76.17 43.44 C 75.88 43.76 75.30 44.39 75.01 44.70 C 74.57 45.14 73.70 46.02 73.26 46.46 C 73.39 48.62 73.54 50.79 73.69 52.96 C 72.80 50.71 71.89 48.47 70.93 46.26 C 71.91 45.13 72.83 43.94 73.73 42.74 C 76.80 39.03 77.32 33.79 75.85 29.31 C 74.05 27.43 71.60 26.40 69.36 25.14 C 63.66 21.99 58.31 18.26 52.71 14.93 C 51.17 13.44 49.99 11.65 48.87 9.84 Z" />
<path fill="#6f77b1" opacity="0.82" d=" M 64.88 13.12 C 66.07 13.06 67.27 12.99 68.47 12.94 L 69.33 12.92 C 72.28 15.69 75.57 18.06 78.74 20.57 C 74.25 19.14 69.50 19.12 64.87 18.50 C 64.83 16.71 64.85 14.91 64.88 13.12 Z" />
<path fill="#393080" opacity="1.00" d=" M 69.33 12.92 C 74.58 16.32 80.81 18.52 85.08 23.23 C 85.64 25.77 85.51 28.40 85.53 30.99 C 85.35 44.68 85.45 58.38 85.51 72.07 C 85.29 74.07 85.78 76.57 84.05 78.02 C 81.16 80.69 77.42 82.12 73.95 83.88 C 77.64 81.04 81.77 78.57 84.48 74.68 C 84.84 69.39 83.77 64.15 83.34 58.90 C 83.02 54.11 82.78 49.30 82.49 44.51 C 83.07 37.83 83.34 31.13 84.03 24.46 C 82.61 24.78 81.19 25.11 79.78 25.44 C 79.46 23.81 79.16 22.18 78.74 20.57 C 75.57 18.06 72.28 15.69 69.33 12.92 Z" />
<path fill="#a6b1a2" opacity="0.87" d=" M 36.02 16.63 C 38.70 15.74 41.43 14.99 44.13 14.15 C 42.36 16.06 40.61 17.98 38.91 19.95 C 40.31 19.77 41.71 19.60 43.10 19.35 C 39.78 21.52 36.61 23.91 33.16 25.86 C 31.01 26.69 28.80 27.36 26.65 28.18 C 30.62 24.88 34.48 21.44 38.23 17.90 C 32.05 20.53 25.85 23.66 21.20 28.62 C 21.25 29.05 21.37 29.91 21.43 30.34 C 21.72 32.26 22.06 34.17 22.30 36.09 C 22.08 38.49 21.85 40.89 21.75 43.29 C 21.29 38.01 20.75 32.72 19.50 27.56 C 18.03 31.45 17.89 35.61 18.26 39.71 C 18.63 43.69 17.55 47.57 16.46 51.36 C 15.79 42.35 15.62 33.31 16.16 24.30 C 17.68 23.39 19.21 22.48 20.74 21.58 C 21.12 22.43 21.50 23.29 21.87 24.14 C 26.50 21.48 31.07 18.67 36.02 16.63 Z" />
<path fill="#5a6371" opacity="0.86" d=" M 52.74 16.45 C 52.73 15.94 52.72 15.44 52.71 14.93 C 58.31 18.26 63.66 21.99 69.36 25.14 L 69.13 26.20 C 68.94 26.88 68.56 28.24 68.38 28.92 C 67.20 32.07 65.94 35.20 64.73 38.33 C 63.35 37.35 62.00 36.35 60.64 35.35 C 60.40 35.14 59.93 34.73 59.70 34.52 C 56.18 30.58 51.42 28.08 47.42 24.68 C 47.42 26.08 47.43 27.48 47.43 28.88 C 45.67 28.96 43.90 29.04 42.14 29.13 L 42.05 29.99 C 44.36 30.16 46.67 30.29 48.96 30.59 C 44.38 30.59 39.48 30.92 35.60 33.62 C 30.08 37.29 27.28 43.83 26.45 50.21 C 26.45 49.49 26.44 48.06 26.43 47.34 C 25.18 48.43 23.96 49.57 22.68 50.64 C 22.25 48.21 21.93 45.76 21.75 43.29 C 21.85 40.89 22.08 38.49 22.30 36.09 C 22.52 35.06 22.77 34.04 23.01 33.02 C 25.64 32.50 28.41 32.21 30.79 30.87 C 32.17 29.58 32.44 27.53 33.16 25.86 C 36.61 23.91 39.78 21.52 43.10 19.35 C 46.04 17.62 49.35 16.72 52.74 16.45 Z" />
<path fill="#ccdddf" opacity="1.00" d=" M 21.20 28.62 C 25.85 23.66 32.05 20.53 38.23 17.90 C 34.48 21.44 30.62 24.88 26.65 28.18 C 24.91 28.92 23.17 29.63 21.43 30.34 C 21.37 29.91 21.25 29.05 21.20 28.62 Z" />
<path fill="#3d4b98" opacity="0.80" d=" M 64.87 18.50 C 69.50 19.12 74.25 19.14 78.74 20.57 C 79.16 22.18 79.46 23.81 79.78 25.44 C 81.19 25.11 82.61 24.78 84.03 24.46 C 83.34 31.13 83.07 37.83 82.49 44.51 C 80.29 49.30 79.93 54.59 80.14 59.79 C 81.21 59.49 82.27 59.20 83.34 58.90 C 83.77 64.15 84.84 69.39 84.48 74.68 L 83.86 75.07 C 82.69 72.57 81.18 70.24 79.22 68.28 C 78.91 66.67 78.60 65.04 78.46 63.40 C 78.52 56.54 79.16 49.63 78.00 42.82 C 77.18 38.04 77.48 33.16 78.23 28.39 C 73.64 25.61 69.32 22.42 64.91 19.36 L 64.87 18.50 Z" />
<path fill="#c4b495" opacity="1.00" d=" M 13.99 52.00 C 14.27 42.32 13.16 32.54 14.59 22.92 C 14.86 40.15 15.24 57.38 15.34 74.62 L 15.14 75.44 C 15.06 75.83 14.89 76.61 14.80 77.00 C 13.00 68.79 14.48 60.32 13.99 52.00 Z" />
<path fill="#8da1ab" opacity="0.93" d=" M 47.42 24.68 C 51.42 28.08 56.18 30.58 59.70 34.52 C 59.93 34.73 60.40 35.14 60.64 35.35 C 56.87 33.52 53.18 31.18 48.96 30.59 C 46.67 30.29 44.36 30.16 42.05 29.99 L 42.14 29.13 C 43.90 29.04 45.67 28.96 47.43 28.88 C 47.43 27.48 47.42 26.08 47.42 24.68 Z" />
<path fill="#6a8a95" opacity="0.92" d=" M 26.65 28.18 C 28.80 27.36 31.01 26.69 33.16 25.86 C 32.44 27.53 32.17 29.58 30.79 30.87 C 28.41 32.21 25.64 32.50 23.01 33.02 C 22.77 34.04 22.52 35.06 22.30 36.09 C 22.06 34.17 21.72 32.26 21.43 30.34 C 23.17 29.63 24.91 28.92 26.65 28.18 Z" />
<path fill="#48528d" opacity="0.87" d=" M 69.36 25.14 C 71.60 26.40 74.05 27.43 75.85 29.31 C 77.32 33.79 76.80 39.03 73.73 42.74 C 70.16 43.97 66.86 45.86 63.90 48.19 C 65.10 46.36 66.20 44.45 67.31 42.57 C 67.43 42.36 67.66 41.96 67.78 41.75 C 71.25 37.20 69.44 31.39 69.13 26.20 L 69.36 25.14 Z" />
<path fill="#cdccb9" opacity="0.91" d=" M 68.38 28.92 C 68.56 28.24 68.94 26.88 69.13 26.20 C 69.44 31.39 71.25 37.20 67.78 41.75 C 68.22 37.49 68.22 33.20 68.38 28.92 Z" />
<path fill="#517191" opacity="0.82" d=" M 18.26 39.71 C 17.89 35.61 18.03 31.45 19.50 27.56 C 20.75 32.72 21.29 38.01 21.75 43.29 C 21.93 45.76 22.25 48.21 22.68 50.64 C 23.96 49.57 25.18 48.43 26.43 47.34 C 26.44 48.06 26.45 49.49 26.45 50.21 C 26.41 51.77 26.41 53.32 26.31 54.88 C 26.14 55.28 25.82 56.08 25.66 56.48 C 24.35 59.29 22.81 61.99 21.52 64.81 C 21.15 58.16 20.59 51.52 19.60 44.93 C 18.53 50.56 18.04 56.30 18.45 62.02 C 18.54 65.86 19.61 70.40 16.37 73.32 C 16.36 66.00 15.74 58.67 16.46 51.36 C 17.55 47.57 18.63 43.69 18.26 39.71 Z" />
<path fill="#05002f" opacity="0.65" d=" M 64.73 38.33 C 65.94 35.20 67.20 32.07 68.38 28.92 C 68.22 33.20 68.22 37.49 67.78 41.75 C 67.66 41.96 67.43 42.36 67.31 42.57 C 65.97 43.21 64.58 43.72 63.21 44.28 C 62.86 43.71 62.16 42.57 61.81 41.99 C 62.26 41.44 63.15 40.34 63.60 39.79 C 61.05 37.97 58.26 36.50 55.39 35.25 C 55.18 35.77 54.76 36.81 54.55 37.32 C 54.19 37.86 53.46 38.94 53.10 39.48 C 52.89 38.19 52.66 36.91 52.43 35.63 C 52.36 35.16 52.22 34.24 52.15 33.77 C 47.77 33.26 42.88 32.26 38.92 34.87 C 32.90 38.30 30.06 45.03 28.75 51.52 C 29.37 51.79 30.62 52.32 31.25 52.58 C 31.75 52.78 32.75 53.17 33.25 53.37 C 32.84 53.45 32.02 53.60 31.62 53.68 C 29.84 54.05 28.07 54.46 26.31 54.88 C 26.41 53.32 26.41 51.77 26.45 50.21 C 27.28 43.83 30.08 37.29 35.60 33.62 C 39.48 30.92 44.38 30.59 48.96 30.59 C 53.18 31.18 56.87 33.52 60.64 35.35 C 62.00 36.35 63.35 37.35 64.73 38.33 Z" />
<path fill="#cdccb9" opacity="0.91" d=" M 38.92 34.87 C 42.88 32.26 47.77 33.26 52.15 33.77 C 52.22 34.24 52.36 35.16 52.43 35.63 L 52.44 36.58 C 49.52 35.49 46.36 34.05 43.20 35.10 C 35.84 37.29 30.80 44.96 31.25 52.58 C 30.62 52.32 29.37 51.79 28.75 51.52 C 30.06 45.03 32.90 38.30 38.92 34.87 Z" />
<path fill="#75808b" opacity="0.83" d=" M 31.25 52.58 C 30.80 44.96 35.84 37.29 43.20 35.10 C 46.36 34.05 49.52 35.49 52.44 36.58 C 52.32 39.61 52.06 42.63 51.82 45.66 C 50.15 45.88 48.49 46.10 46.82 46.33 C 45.60 44.99 44.28 43.75 42.89 42.59 C 40.39 43.04 36.93 43.02 35.79 45.79 C 35.12 48.17 35.49 50.68 35.55 53.11 C 34.98 53.18 33.83 53.31 33.25 53.37 C 32.75 53.17 31.75 52.78 31.25 52.58 Z" />
<path fill="#5e82a8" opacity="0.95" d=" M 52.43 35.63 C 52.66 36.91 52.89 38.19 53.10 39.48 C 53.63 44.81 52.11 50.02 52.02 55.32 C 52.11 55.66 52.31 56.35 52.41 56.70 L 52.41 57.43 C 52.40 57.93 52.40 58.92 52.39 59.42 C 52.39 59.78 52.40 60.51 52.40 60.88 C 55.77 61.97 59.38 62.16 62.84 61.41 C 63.25 63.66 63.71 65.90 64.19 68.14 C 62.77 69.75 61.50 71.49 60.29 73.26 C 58.59 73.44 56.89 73.62 55.19 73.80 C 54.91 72.55 54.63 71.30 54.35 70.05 C 52.12 71.87 49.92 73.75 47.54 75.37 C 47.37 68.41 44.89 61.84 40.93 56.18 C 43.92 54.53 46.89 52.86 49.84 51.14 C 48.86 49.52 47.89 47.89 46.82 46.33 C 48.49 46.10 50.15 45.88 51.82 45.66 C 52.06 42.63 52.32 39.61 52.44 36.58 L 52.43 35.63 Z" />
<path fill="#acb8c3" opacity="0.97" d=" M 55.39 35.25 C 58.26 36.50 61.05 37.97 63.60 39.79 C 61.30 39.25 59.01 38.66 56.73 38.05 C 56.86 41.08 57.02 44.11 57.19 47.14 C 56.53 47.80 55.88 48.47 55.22 49.13 C 54.95 45.19 54.67 41.26 54.55 37.32 C 54.76 36.81 55.18 35.77 55.39 35.25 Z" />
<path fill="#06003a" opacity="0.87" d=" M 53.10 39.48 C 53.46 38.94 54.19 37.86 54.55 37.32 C 54.67 41.26 54.95 45.19 55.22 49.13 C 55.88 48.47 56.53 47.80 57.19 47.14 C 58.79 45.49 60.34 43.77 61.81 41.99 C 62.16 42.57 62.86 43.71 63.21 44.28 C 60.02 47.47 57.03 50.86 54.05 54.24 C 57.52 52.55 60.88 50.61 63.90 48.19 C 66.86 45.86 70.16 43.97 73.73 42.74 C 72.83 43.94 71.91 45.13 70.93 46.26 C 70.51 46.63 69.65 47.36 69.22 47.73 C 64.25 51.78 58.37 54.46 52.41 56.70 C 52.31 56.35 52.11 55.66 52.02 55.32 C 52.11 50.02 53.63 44.81 53.10 39.48 Z" />
<path fill="#666c86" opacity="0.95" d=" M 56.73 38.05 C 59.01 38.66 61.30 39.25 63.60 39.79 C 63.15 40.34 62.26 41.44 61.81 41.99 C 60.34 43.77 58.79 45.49 57.19 47.14 C 57.02 44.11 56.86 41.08 56.73 38.05 Z" />
<path fill="#cdccb9" opacity="0.91" d=" M 63.21 44.28 C 64.58 43.72 65.97 43.21 67.31 42.57 C 66.20 44.45 65.10 46.36 63.90 48.19 C 60.88 50.61 57.52 52.55 54.05 54.24 C 57.03 50.86 60.02 47.47 63.21 44.28 Z" />
<path fill="#06003a" opacity="0.87" d=" M 35.79 45.79 C 36.93 43.02 40.39 43.04 42.89 42.59 C 44.47 45.36 45.99 48.16 47.57 50.92 C 44.35 52.31 41.10 53.65 37.82 54.88 C 41.25 59.14 44.87 63.85 45.20 69.53 C 45.10 69.92 44.92 70.70 44.82 71.09 C 42.78 66.30 41.64 60.70 37.31 57.34 C 35.45 56.06 33.52 54.89 31.62 53.68 C 32.02 53.60 32.84 53.45 33.25 53.37 C 33.83 53.31 34.98 53.18 35.55 53.11 C 35.49 50.68 35.12 48.17 35.79 45.79 M 36.22 49.95 C 37.78 51.27 39.54 53.14 41.78 52.08 C 44.76 51.79 44.69 47.89 43.77 45.79 L 43.10 45.69 C 39.70 42.64 37.12 47.06 36.22 49.95 Z" />
<path fill="#cdccb9" opacity="0.91" d=" M 42.89 42.59 C 44.28 43.75 45.60 44.99 46.82 46.33 C 47.89 47.89 48.86 49.52 49.84 51.14 C 46.89 52.86 43.92 54.53 40.93 56.18 C 44.89 61.84 47.37 68.41 47.54 75.37 C 46.70 75.73 45.85 76.05 44.99 76.34 C 45.18 74.07 45.33 71.80 45.20 69.53 C 44.87 63.85 41.25 59.14 37.82 54.88 C 41.10 53.65 44.35 52.31 47.57 50.92 C 45.99 48.16 44.47 45.36 42.89 42.59 Z" />
<path fill="#dee6d7" opacity="0.95" d=" M 76.30 59.19 C 76.55 53.65 76.69 48.10 77.55 42.61 C 78.48 49.23 78.12 55.92 78.39 62.58 C 78.37 64.78 78.31 66.99 78.16 69.19 C 77.35 69.71 76.54 70.23 75.73 70.75 C 75.80 68.09 75.87 65.42 76.04 62.77 C 76.14 61.57 76.23 60.38 76.30 59.19 Z" />
<path fill="#0b298d" opacity="0.87" d=" M 75.01 44.70 C 75.30 44.39 75.88 43.76 76.17 43.44 C 76.37 48.69 76.55 53.94 76.30 59.19 C 76.23 60.38 76.14 61.57 76.04 62.77 C 75.43 64.29 74.75 65.78 74.09 67.28 C 72.54 67.06 70.99 66.86 69.44 66.65 C 69.48 65.65 69.53 64.65 69.57 63.65 C 71.81 61.48 73.94 58.93 74.57 55.79 C 75.27 52.14 74.92 48.40 75.01 44.70 Z" />
<path fill="#274365" opacity="0.66" d=" M 19.60 44.93 C 20.59 51.52 21.15 58.16 21.52 64.81 C 20.92 67.05 20.31 69.30 19.84 71.58 C 18.50 72.36 17.15 73.14 15.85 73.99 L 16.37 73.32 C 19.61 70.40 18.54 65.86 18.45 62.02 C 18.04 56.30 18.53 50.56 19.60 44.93 Z" />
<path fill="#cedce1" opacity="0.97" d=" M 36.22 49.95 C 37.12 47.06 39.70 42.64 43.10 45.69 C 40.71 46.96 38.50 48.52 36.22 49.95 Z" />
<path fill="#445bb5" opacity="0.93" d=" M 73.26 46.46 C 73.70 46.02 74.57 45.14 75.01 44.70 C 74.92 48.40 75.27 52.14 74.57 55.79 C 73.94 58.93 71.81 61.48 69.57 63.65 C 67.80 65.18 65.93 66.58 64.19 68.14 C 63.71 65.90 63.25 63.66 62.84 61.41 C 65.36 59.69 67.54 57.55 69.56 55.27 C 69.08 55.32 68.10 55.42 67.61 55.47 C 65.66 55.63 63.70 55.74 61.75 55.95 C 64.85 53.67 67.79 51.18 70.82 48.81 C 70.42 48.54 69.62 48.00 69.22 47.73 C 69.65 47.36 70.51 46.63 70.93 46.26 C 71.89 48.47 72.80 50.71 73.69 52.96 C 73.54 50.79 73.39 48.62 73.26 46.46 Z" />
<path fill="#0825d0" opacity="0.82" d=" M 80.14 59.79 C 79.93 54.59 80.29 49.30 82.49 44.51 C 82.78 49.30 83.02 54.11 83.34 58.90 C 82.27 59.20 81.21 59.49 80.14 59.79 Z" />
<path fill="#6c7a8f" opacity="0.95" d=" M 36.22 49.95 C 38.50 48.52 40.71 46.96 43.10 45.69 L 43.77 45.79 C 44.69 47.89 44.76 51.79 41.78 52.08 C 39.54 53.14 37.78 51.27 36.22 49.95 Z" />
<path fill="#a2b4d3" opacity="1.00" d=" M 52.41 56.70 C 58.37 54.46 64.25 51.78 69.22 47.73 C 69.62 48.00 70.42 48.54 70.82 48.81 C 67.79 51.18 64.85 53.67 61.75 55.95 C 58.64 56.47 55.52 56.95 52.41 57.43 L 52.41 56.70 Z" />
<path fill="#aec1d0" opacity="0.94" d=" M 26.31 54.88 C 28.07 54.46 29.84 54.05 31.62 53.68 C 33.52 54.89 35.45 56.06 37.31 57.34 C 36.28 57.12 35.25 56.91 34.21 56.71 C 31.40 56.09 28.50 56.16 25.66 56.48 C 25.82 56.08 26.14 55.28 26.31 54.88 Z" />
<path fill="#5780b2" opacity="0.84" d=" M 25.66 56.48 C 28.50 56.16 31.40 56.09 34.21 56.71 C 31.69 61.73 28.36 66.71 22.67 68.41 C 26.66 70.83 30.86 73.25 33.53 77.21 C 29.66 74.89 25.78 72.60 22.06 70.05 C 21.62 70.59 20.75 71.67 20.31 72.21 L 19.84 71.58 C 20.31 69.30 20.92 67.05 21.52 64.81 C 22.81 61.99 24.35 59.29 25.66 56.48 Z" />
<path fill="#06003a" opacity="0.87" d=" M 61.75 55.95 C 63.70 55.74 65.66 55.63 67.61 55.47 C 65.05 56.98 62.72 59.05 59.77 59.76 C 57.31 60.09 54.84 59.67 52.39 59.42 C 52.40 58.92 52.40 57.93 52.41 57.43 C 55.52 56.95 58.64 56.47 61.75 55.95 Z" />
<path fill="#9fb1ca" opacity="0.98" d=" M 67.61 55.47 C 68.10 55.42 69.08 55.32 69.56 55.27 C 67.54 57.55 65.36 59.69 62.84 61.41 C 59.38 62.16 55.77 61.97 52.40 60.88 C 52.40 60.51 52.39 59.78 52.39 59.42 C 54.84 59.67 57.31 60.09 59.77 59.76 C 62.72 59.05 65.05 56.98 67.61 55.47 Z" />
<path fill="#649bb5" opacity="0.95" d=" M 34.21 56.71 C 35.25 56.91 36.28 57.12 37.31 57.34 C 41.64 60.70 42.78 66.30 44.82 71.09 C 44.92 70.70 45.10 69.92 45.20 69.53 C 45.33 71.80 45.18 74.07 44.99 76.34 C 43.30 76.85 41.59 77.30 39.89 77.77 C 38.23 77.04 36.53 76.44 34.82 75.84 C 38.73 79.24 43.21 81.90 47.13 85.29 C 47.82 85.88 48.50 86.46 49.18 87.05 C 49.09 87.84 48.90 89.42 48.81 90.21 C 44.32 85.67 38.42 83.06 33.11 79.69 L 32.69 78.83 C 33.26 78.97 34.40 79.26 34.97 79.40 C 34.50 78.66 34.02 77.93 33.53 77.21 C 30.86 73.25 26.66 70.83 22.67 68.41 C 28.36 66.71 31.69 61.73 34.21 56.71 Z" />
<path fill="#42587e" opacity="0.87" d=" M 74.09 67.28 C 74.75 65.78 75.43 64.29 76.04 62.77 C 75.87 65.42 75.80 68.09 75.73 70.75 C 70.98 73.89 66.05 76.75 61.20 79.74 C 57.22 82.22 53.23 84.69 49.18 87.05 C 48.50 86.46 47.82 85.88 47.13 85.29 C 47.84 85.09 49.26 84.68 49.97 84.47 C 57.10 80.85 64.27 77.01 70.44 71.87 C 65.86 73.63 61.49 75.86 57.13 78.11 C 58.18 76.49 59.21 74.86 60.29 73.26 C 61.50 71.49 62.77 69.75 64.19 68.14 C 65.93 66.58 67.80 65.18 69.57 63.65 C 69.53 64.65 69.48 65.65 69.44 66.65 C 70.99 66.86 72.54 67.06 74.09 67.28 Z" />
<path fill="#7279a1" opacity="0.90" d=" M 78.39 62.58 L 78.46 63.40 C 78.60 65.04 78.91 66.67 79.22 68.28 C 81.18 70.24 82.69 72.57 83.86 75.07 C 76.36 79.20 69.23 83.93 61.90 88.35 C 62.42 86.86 62.96 85.37 63.50 83.88 C 60.48 85.85 57.15 87.48 53.45 87.34 C 56.07 85.60 58.68 83.83 61.34 82.14 C 65.73 79.20 70.37 76.64 74.77 73.72 C 76.47 72.71 77.42 70.95 78.16 69.19 C 78.31 66.99 78.37 64.78 78.39 62.58 Z" />
<path fill="#8fa2ce" opacity="1.00" d=" M 75.73 70.75 C 76.54 70.23 77.35 69.71 78.16 69.19 C 77.42 70.95 76.47 72.71 74.77 73.72 C 70.37 76.64 65.73 79.20 61.34 82.14 C 61.29 81.34 61.25 80.54 61.20 79.74 C 66.05 76.75 70.98 73.89 75.73 70.75 Z" />
<path fill="#a1c7ca" opacity="0.98" d=" M 20.31 72.21 C 20.75 71.67 21.62 70.59 22.06 70.05 C 25.78 72.60 29.66 74.89 33.53 77.21 C 34.02 77.93 34.50 78.66 34.97 79.40 C 34.40 79.26 33.26 78.97 32.69 78.83 C 28.87 76.58 24.94 74.53 20.84 72.84 L 20.31 72.21 Z" />
<path fill="#839c88" opacity="0.93" d=" M 47.54 75.37 C 49.92 73.75 52.12 71.87 54.35 70.05 C 54.63 71.30 54.91 72.55 55.19 73.80 C 56.89 73.62 58.59 73.44 60.29 73.26 C 59.21 74.86 58.18 76.49 57.13 78.11 C 61.49 75.86 65.86 73.63 70.44 71.87 C 64.27 77.01 57.10 80.85 49.97 84.47 C 46.73 82.06 43.50 79.60 39.89 77.77 C 41.59 77.30 43.30 76.85 44.99 76.34 C 45.85 76.05 46.70 75.73 47.54 75.37 Z" />
<path fill="#8ea197" opacity="0.81" d=" M 15.85 73.99 C 17.15 73.14 18.50 72.36 19.84 71.58 L 20.31 72.21 L 20.84 72.84 C 22.67 75.03 24.57 77.16 26.51 79.26 C 26.02 79.87 25.53 80.48 25.03 81.09 C 21.75 79.19 18.48 77.25 15.14 75.44 L 15.34 74.62 L 15.85 73.99 Z" />
<path fill="#627ba7" opacity="0.80" d=" M 20.84 72.84 C 24.94 74.53 28.87 76.58 32.69 78.83 L 33.11 79.69 C 35.36 86.54 43.02 88.46 48.89 91.11 C 48.98 92.81 49.02 94.51 49.06 96.20 C 45.87 94.28 42.73 92.26 39.50 90.40 C 34.95 86.88 30.04 83.89 25.03 81.09 C 25.53 80.48 26.02 79.87 26.51 79.26 C 24.57 77.16 22.67 75.03 20.84 72.84 Z" />
<path fill="#dde1d6" opacity="1.00" d=" M 15.14 75.44 C 18.48 77.25 21.75 79.19 25.03 81.09 C 30.04 83.89 34.95 86.88 39.50 90.40 C 39.04 90.57 38.10 90.90 37.64 91.07 C 29.97 86.49 22.16 82.06 14.80 77.00 C 14.89 76.61 15.06 75.83 15.14 75.44 Z" />
<path fill="#c0c6d2" opacity="1.00" d=" M 83.86 75.07 L 84.48 74.68 C 81.77 78.57 77.64 81.04 73.95 83.88 C 70.03 85.93 66.14 88.05 62.46 90.50 C 58.05 93.27 53.87 96.67 48.74 98.00 C 52.35 93.82 57.27 91.19 61.90 88.35 C 69.23 83.93 76.36 79.20 83.86 75.07 Z" />
<path fill="#b3baa5" opacity="0.94" d=" M 34.82 75.84 C 36.53 76.44 38.23 77.04 39.89 77.77 C 43.50 79.60 46.73 82.06 49.97 84.47 C 49.26 84.68 47.84 85.09 47.13 85.29 C 43.21 81.90 38.73 79.24 34.82 75.84 Z" />
<path fill="#465780" opacity="0.89" d=" M 33.11 79.69 C 38.42 83.06 44.32 85.67 48.81 90.21 L 48.89 91.11 C 43.02 88.46 35.36 86.54 33.11 79.69 Z" />
<path fill="#d7e2db" opacity="1.00" d=" M 49.18 87.05 C 53.23 84.69 57.22 82.22 61.20 79.74 C 61.25 80.54 61.29 81.34 61.34 82.14 C 58.68 83.83 56.07 85.60 53.45 87.34 C 51.92 88.32 50.36 89.26 48.81 90.21 C 48.90 89.42 49.09 87.84 49.18 87.05 Z" />
<path fill="#b2b5a3" opacity="0.93" d=" M 53.45 87.34 C 57.15 87.48 60.48 85.85 63.50 83.88 C 62.96 85.37 62.42 86.86 61.90 88.35 C 57.27 91.19 52.35 93.82 48.74 98.00 C 44.79 96.12 41.23 93.54 37.64 91.07 C 38.10 90.90 39.04 90.57 39.50 90.40 C 42.73 92.26 45.87 94.28 49.06 96.20 C 49.02 94.51 48.98 92.81 48.89 91.11 L 48.81 90.21 C 50.36 89.26 51.92 88.32 53.45 87.34 Z" />
</svg>
