<?xml version="1.0" encoding="UTF-8" ?>
<!DOCTYPE svg PUBLIC "-//W3C//DTD SVG 1.1//EN" "http://www.w3.org/Graphics/SVG/1.1/DTD/svg11.dtd">
<svg width="100pt" height="100pt" viewBox="0 0 100 100" version="1.1" xmlns="http://www.w3.org/2000/svg">
<path fill="#04070b" opacity="1.00" d=" M 33.83 26.80 C 42.25 24.78 51.15 23.30 59.72 25.33 C 65.50 26.56 72.30 26.91 76.48 31.64 C 79.03 34.94 76.16 38.61 74.65 41.62 C 69.58 51.81 63.48 61.50 56.34 70.37 C 54.52 72.80 51.81 74.27 48.85 74.78 C 50.43 72.97 51.99 71.15 53.45 69.24 C 56.59 64.83 60.86 61.32 63.59 56.61 C 65.93 52.59 68.36 48.61 71.03 44.80 C 72.98 42.16 74.40 39.18 75.57 36.13 C 74.37 35.21 73.17 34.30 71.99 33.37 C 72.65 32.92 73.97 32.03 74.63 31.58 C 69.58 28.35 63.55 27.53 57.79 26.39 C 49.84 24.79 41.81 26.71 33.83 26.80 Z" />
<path fill="#445060" opacity="1.00" d=" M 33.83 26.80 C 41.81 26.71 49.84 24.79 57.79 26.39 C 63.55 27.53 69.58 28.35 74.63 31.58 C 73.97 32.03 72.65 32.92 71.99 33.37 C 69.28 35.42 65.77 35.19 62.71 34.12 C 64.53 33.56 66.34 32.99 68.16 32.42 C 64.52 29.79 60.10 28.98 55.69 29.21 C 55.67 29.83 55.62 31.07 55.60 31.69 C 54.50 34.62 53.36 38.44 49.65 38.75 C 44.67 40.67 41.36 35.85 37.67 33.49 C 37.21 32.84 36.76 32.20 36.31 31.55 C 36.95 31.14 38.23 30.31 38.87 29.90 C 35.47 30.59 32.06 31.21 28.63 31.69 C 30.19 29.88 31.82 28.12 33.83 26.80 Z" />
<path fill="#333643" opacity="1.00" d=" M 23.39 29.64 C 26.75 28.28 30.24 27.32 33.83 26.80 C 31.82 28.12 30.19 29.88 28.63 31.69 C 32.06 31.21 35.47 30.59 38.87 29.90 C 38.23 30.31 36.95 31.14 36.31 31.55 C 36.76 32.20 37.21 32.84 37.67 33.49 C 39.36 36.04 41.36 38.38 43.57 40.51 C 42.76 41.12 41.96 41.74 41.16 42.36 C 39.75 43.11 37.70 43.22 37.00 44.88 C 36.52 46.86 37.14 48.91 37.34 50.90 C 36.76 51.60 36.18 52.30 35.60 53.00 C 37.18 56.05 38.72 59.12 40.18 62.22 C 36.78 58.82 33.37 55.42 30.06 51.93 C 27.55 44.59 22.58 37.75 23.39 29.64 Z" />
<path fill="#acb5b5" opacity="1.00" d=" M 55.69 29.21 C 60.10 28.98 64.52 29.79 68.16 32.42 C 66.34 32.99 64.53 33.56 62.71 34.12 C 60.89 33.29 59.10 32.39 57.34 31.46 C 56.86 33.00 56.37 34.53 55.89 36.07 C 55.81 34.61 55.68 33.15 55.60 31.69 C 55.62 31.07 55.67 29.83 55.69 29.21 Z" />
<path fill="#040508" opacity="0.94" d=" M 22.14 38.70 C 20.94 35.63 22.16 32.47 23.39 29.64 C 22.58 37.75 27.55 44.59 30.06 51.93 C 26.63 48.06 23.99 43.51 22.14 38.70 Z" />
<path fill="#353944" opacity="1.00" d=" M 57.34 31.46 C 59.10 32.39 60.89 33.29 62.71 34.12 C 65.77 35.19 69.28 35.42 71.99 33.37 C 73.17 34.30 74.37 35.21 75.57 36.13 C 74.40 39.18 72.98 42.16 71.03 44.80 C 66.55 46.18 64.88 51.06 61.02 53.37 C 62.92 49.78 64.91 46.20 65.97 42.25 C 62.33 41.10 58.59 40.30 54.80 39.88 C 55.15 38.61 55.54 37.34 55.89 36.07 C 56.37 34.53 56.86 33.00 57.34 31.46 Z" />
<path fill="#ffe79e" opacity="1.00" d=" M 55.60 31.69 C 55.68 33.15 55.81 34.61 55.89 36.07 C 55.54 37.34 55.15 38.61 54.80 39.88 C 54.73 40.15 54.60 40.71 54.54 40.99 C 56.27 43.78 58.81 46.45 58.62 49.97 C 58.58 52.62 58.52 55.63 56.76 57.78 C 53.97 59.93 50.13 59.55 46.80 59.56 C 44.18 58.16 41.63 55.97 41.02 52.92 C 40.28 49.44 40.68 45.84 41.16 42.36 C 41.96 41.74 42.76 41.12 43.57 40.51 C 41.36 38.38 39.36 36.04 37.67 33.49 C 41.36 35.85 44.67 40.67 49.65 38.75 C 53.36 38.44 54.50 34.62 55.60 31.69 M 47.35 42.31 C 43.04 43.41 44.06 48.63 44.19 51.97 C 44.55 56.92 51.28 58.37 54.89 55.89 C 56.38 53.59 56.62 50.67 56.38 48.01 C 55.78 44.09 51.32 40.21 47.35 42.31 Z" />
<path fill="#1f2131" opacity="1.00" d=" M 54.54 40.99 C 54.60 40.71 54.73 40.15 54.80 39.88 C 58.59 40.30 62.33 41.10 65.97 42.25 C 64.91 46.20 62.92 49.78 61.02 53.37 C 64.88 51.06 66.55 46.18 71.03 44.80 C 68.36 48.61 65.93 52.59 63.59 56.61 C 60.86 61.32 56.59 64.83 53.45 69.24 C 53.67 66.13 54.60 63.13 55.96 60.34 C 52.90 60.25 49.82 60.14 46.80 59.56 C 50.13 59.55 53.97 59.93 56.76 57.78 C 58.52 55.63 58.58 52.62 58.62 49.97 C 58.81 46.45 56.27 43.78 54.54 40.99 Z" />
<path fill="#110f1c" opacity="1.00" d=" M 37.00 44.88 C 37.70 43.22 39.75 43.11 41.16 42.36 C 40.68 45.84 40.28 49.44 41.02 52.92 C 41.63 55.97 44.18 58.16 46.80 59.56 C 49.82 60.14 52.90 60.25 55.96 60.34 C 54.60 63.13 53.67 66.13 53.45 69.24 C 51.99 71.15 50.43 72.97 48.85 74.78 C 45.42 72.78 42.38 70.17 40.11 66.91 C 36.64 62.00 32.42 57.52 30.06 51.93 C 33.37 55.42 36.78 58.82 40.18 62.22 C 38.72 59.12 37.18 56.05 35.60 53.00 C 36.18 52.30 36.76 51.60 37.34 50.90 C 37.14 48.91 36.52 46.86 37.00 44.88 Z" />
<path fill="#12111c" opacity="1.00" d=" M 47.35 42.31 C 51.32 40.21 55.78 44.09 56.38 48.01 C 56.62 50.67 56.38 53.59 54.89 55.89 C 51.28 58.37 44.55 56.92 44.19 51.97 C 44.06 48.63 43.04 43.41 47.35 42.31 Z" />
</svg>
