<?xml version="1.0" encoding="UTF-8" ?>
<!DOCTYPE svg PUBLIC "-//W3C//DTD SVG 1.1//EN" "http://www.w3.org/Graphics/SVG/1.1/DTD/svg11.dtd">
<svg width="100pt" height="100pt" viewBox="0 0 100 100" version="1.1" xmlns="http://www.w3.org/2000/svg">
<path fill="#07080c" opacity="0.93" d=" M 33.92 26.83 C 42.83 24.37 52.30 24.19 61.40 25.66 C 66.29 26.42 71.54 27.27 75.47 30.53 C 77.37 32.04 78.14 34.83 76.99 37.02 C 71.83 48.02 65.37 58.37 58.19 68.16 C 56.04 70.87 53.60 74.01 49.97 74.60 C 45.90 73.94 43.12 70.43 40.57 67.48 C 34.05 59.12 27.91 50.38 23.02 40.95 C 21.01 37.42 21.40 33.19 23.43 29.78 C 22.91 36.92 26.31 43.44 29.44 49.61 C 32.18 54.87 36.64 58.88 40.43 63.35 C 42.26 66.77 43.99 70.71 47.60 72.60 C 49.02 73.45 50.69 72.97 51.71 71.75 C 59.31 63.71 66.05 54.82 71.24 45.02 C 72.89 42.15 74.31 39.16 75.64 36.13 C 74.49 35.16 73.34 34.20 72.20 33.23 C 72.83 32.81 74.10 31.98 74.73 31.56 C 69.25 28.51 63.04 27.19 56.90 26.25 C 49.26 25.07 41.57 26.50 33.92 26.83 Z" />
<path fill="#445061" opacity="1.00" d=" M 33.92 26.83 C 41.57 26.50 49.26 25.07 56.90 26.25 C 63.04 27.19 69.25 28.51 74.73 31.56 C 74.10 31.98 72.83 32.81 72.20 33.23 C 69.39 35.19 65.83 34.89 62.61 34.44 C 64.51 33.78 66.37 33.03 68.23 32.28 C 64.46 30.13 60.20 29.15 55.88 29.04 C 57.78 30.87 59.69 32.68 61.76 34.31 C 59.81 33.98 57.88 33.53 55.97 33.04 C 55.65 33.73 55.35 34.41 55.04 35.10 C 54.90 32.89 54.63 30.68 54.35 28.48 C 52.60 32.28 51.40 36.30 50.21 40.31 C 48.14 40.51 46.08 40.76 44.03 41.11 L 44.61 40.69 C 44.91 40.43 45.51 39.93 45.80 39.68 C 44.33 36.52 41.80 34.00 38.54 32.71 C 38.82 31.90 39.11 31.10 39.41 30.31 C 35.85 30.68 32.29 31.00 28.73 31.24 C 30.43 29.73 32.12 28.21 33.92 26.83 Z" />
<path fill="#333743" opacity="1.00" d=" M 23.43 29.78 C 26.64 27.98 30.33 27.41 33.92 26.83 C 32.12 28.21 30.43 29.73 28.73 31.24 C 32.29 31.00 35.85 30.68 39.41 30.31 C 39.11 31.10 38.82 31.90 38.54 32.71 C 39.08 36.26 42.11 38.46 44.61 40.69 L 44.03 41.11 C 41.43 41.73 38.74 42.14 36.30 43.30 C 35.78 44.59 35.50 45.96 35.18 47.31 C 34.92 48.28 34.65 49.24 34.39 50.20 C 35.08 50.17 36.45 50.10 37.14 50.06 C 36.17 50.44 35.19 50.81 34.22 51.20 C 36.71 55.02 38.75 59.11 40.43 63.35 C 36.64 58.88 32.18 54.87 29.44 49.61 C 26.31 43.44 22.91 36.92 23.43 29.78 Z" />
<path fill="#ffe58d" opacity="1.00" d=" M 50.21 40.31 C 51.40 36.30 52.60 32.28 54.35 28.48 C 54.63 30.68 54.90 32.89 55.04 35.10 C 54.17 37.13 53.17 39.09 52.17 41.05 C 51.68 40.86 50.70 40.49 50.21 40.31 Z" />
<path fill="#afb9b8" opacity="1.00" d=" M 55.88 29.04 C 60.20 29.15 64.46 30.13 68.23 32.28 C 66.37 33.03 64.51 33.78 62.61 34.44 L 61.76 34.31 C 59.69 32.68 57.78 30.87 55.88 29.04 Z" />
<path fill="#343843" opacity="1.00" d=" M 55.97 33.04 C 57.88 33.53 59.81 33.98 61.76 34.31 L 62.61 34.44 C 65.83 34.89 69.39 35.19 72.20 33.23 C 73.34 34.20 74.49 35.16 75.64 36.13 C 74.31 39.16 72.89 42.15 71.24 45.02 C 66.72 47.61 63.89 52.04 61.00 56.21 C 60.12 55.24 59.24 54.27 58.35 53.31 C 61.08 50.30 63.60 47.11 65.96 43.81 C 64.77 43.08 63.58 42.35 62.35 41.68 C 58.96 41.40 55.54 41.57 52.17 41.05 C 53.17 39.09 54.17 37.13 55.04 35.10 C 55.35 34.41 55.65 33.73 55.97 33.04 Z" />
<path fill="#ffea93" opacity="1.00" d=" M 38.54 32.71 C 41.80 34.00 44.33 36.52 45.80 39.68 C 45.51 39.93 44.91 40.43 44.61 40.69 C 42.11 38.46 39.08 36.26 38.54 32.71 Z" />
<path fill="#13131f" opacity="1.00" d=" M 44.03 41.11 C 46.08 40.76 48.14 40.51 50.21 40.31 C 50.70 40.49 51.68 40.86 52.17 41.05 C 55.54 41.57 58.96 41.40 62.35 41.68 C 59.30 42.76 56.27 43.95 53.36 45.39 C 57.65 46.42 61.99 45.52 65.96 43.81 C 63.60 47.11 61.08 50.30 58.35 53.31 C 59.24 54.27 60.12 55.24 61.00 56.21 C 63.89 52.04 66.72 47.61 71.24 45.02 C 66.05 54.82 59.31 63.71 51.71 71.75 C 50.69 72.97 49.02 73.45 47.60 72.60 C 43.99 70.71 42.26 66.77 40.43 63.35 C 38.75 59.11 36.71 55.02 34.22 51.20 C 35.19 50.81 36.17 50.44 37.14 50.06 C 40.70 48.93 44.03 47.11 46.63 44.39 C 42.72 44.97 38.94 46.15 35.18 47.31 C 35.50 45.96 35.78 44.59 36.30 43.30 C 38.74 42.14 41.43 41.73 44.03 41.11 M 49.79 47.52 C 50.27 51.04 51.60 54.36 53.31 57.46 C 55.12 59.41 56.27 53.48 53.98 53.43 C 54.36 50.57 52.13 48.61 49.79 47.52 Z" />
<path fill="#ffea93" opacity="1.00" d=" M 53.36 45.39 C 56.27 43.95 59.30 42.76 62.35 41.68 C 63.58 42.35 64.77 43.08 65.96 43.81 C 61.99 45.52 57.65 46.42 53.36 45.39 Z" />
<path fill="#ffea93" opacity="1.00" d=" M 35.18 47.31 C 38.94 46.15 42.72 44.97 46.63 44.39 C 44.03 47.11 40.70 48.93 37.14 50.06 C 36.45 50.10 35.08 50.17 34.39 50.20 C 34.65 49.24 34.92 48.28 35.18 47.31 Z" />
<path fill="#ffea93" opacity="1.00" d=" M 49.79 47.52 C 52.13 48.61 54.36 50.57 53.98 53.43 C 53.76 54.77 53.50 56.11 53.31 57.46 C 51.60 54.36 50.27 51.04 49.79 47.52 Z" />
<path fill="#70757b" opacity="1.00" d=" M 53.98 53.43 C 56.27 53.48 55.12 59.41 53.31 57.46 C 53.50 56.11 53.76 54.77 53.98 53.43 Z" />
</svg>
