<?xml version="1.0" encoding="UTF-8" ?>
<!DOCTYPE svg PUBLIC "-//W3C//DTD SVG 1.1//EN" "http://www.w3.org/Graphics/SVG/1.1/DTD/svg11.dtd">
<svg width="100pt" height="100pt" viewBox="0 0 100 100" version="1.1" xmlns="http://www.w3.org/2000/svg">
<path fill="#10111b" opacity="0.97" d=" M 40.01 25.94 C 50.36 23.48 65.15 24.03 75.67 30.28 C 77.29 32.95 78.49 36.36 76.05 39.03 C 69.03 51.88 62.64 66.80 50.02 75.01 C 40.52 70.72 35.07 60.53 29.89 52.00 C 33.36 55.29 36.62 58.79 40.06 62.11 C 38.91 58.36 32.66 50.94 40.17 53.64 C 38.89 51.48 37.07 48.81 40.91 50.42 C 46.53 58.83 53.72 57.42 60.27 50.58 C 58.78 53.10 58.21 55.99 58.07 58.89 C 65.91 55.24 68.25 45.91 74.06 40.09 C 76.25 37.26 74.51 34.43 71.66 33.23 C 73.84 32.59 75.26 31.68 72.69 30.30 C 62.15 26.98 51.10 25.28 40.01 25.94 Z" />
<path fill="#505965" opacity="1.00" d=" M 34.11 26.93 C 35.87 25.80 38.02 25.98 40.01 25.94 C 51.10 25.28 62.15 26.98 72.69 30.30 C 75.26 31.68 73.84 32.59 71.66 33.23 C 69.34 34.91 66.39 35.22 63.93 36.65 C 63.92 36.21 63.89 35.32 63.87 34.88 C 60.04 31.07 56.71 37.61 52.29 38.24 C 48.46 41.44 39.88 39.25 41.70 33.35 C 36.08 34.37 31.52 32.84 38.12 29.74 C 31.73 32.48 25.46 31.61 34.11 26.93 Z" />
<path fill="#2b2e39" opacity="1.00" d=" M 29.89 52.00 C 21.60 44.66 15.93 24.51 34.11 26.93 C 25.46 31.61 31.73 32.48 38.12 29.74 C 31.52 32.84 36.08 34.37 41.70 33.35 C 39.88 39.25 48.46 41.44 52.29 38.24 C 56.71 37.61 60.04 31.07 63.87 34.88 C 59.06 37.62 54.77 41.17 49.97 43.92 C 44.65 41.73 40.50 37.17 34.76 35.92 C 39.67 40.31 45.28 44.02 50.75 47.68 C 55.19 44.05 59.38 40.14 63.93 36.65 C 66.39 35.22 69.34 34.91 71.66 33.23 C 74.51 34.43 76.25 37.26 74.06 40.09 C 68.25 45.91 65.91 55.24 58.07 58.89 C 58.21 55.99 58.78 53.10 60.27 50.58 C 67.49 42.28 55.65 49.85 51.58 52.59 C 48.09 55.62 44.65 50.56 40.91 50.42 C 37.07 48.81 38.89 51.48 40.17 53.64 C 32.66 50.94 38.91 58.36 40.06 62.11 C 36.62 58.79 33.36 55.29 29.89 52.00 Z" />
<path fill="#dccd90" opacity="1.00" d=" M 49.97 43.92 C 54.77 41.17 59.06 37.62 63.87 34.88 C 63.89 35.32 63.92 36.21 63.93 36.65 C 59.38 40.14 55.19 44.05 50.75 47.68 C 45.28 44.02 39.67 40.31 34.76 35.92 C 40.50 37.17 44.65 41.73 49.97 43.92 Z" />
<path fill="#dbcd92" opacity="1.00" d=" M 51.58 52.59 C 55.65 49.85 67.49 42.28 60.27 50.58 C 53.72 57.42 46.53 58.83 40.91 50.42 C 44.65 50.56 48.09 55.62 51.58 52.59 Z" />
</svg>
