<?xml version="1.0" encoding="UTF-8" ?>
<!DOCTYPE svg PUBLIC "-//W3C//DTD SVG 1.1//EN" "http://www.w3.org/Graphics/SVG/1.1/DTD/svg11.dtd">
<svg width="100pt" height="100pt" viewBox="0 0 100 100" version="1.1" xmlns="http://www.w3.org/2000/svg">
<path fill="#090543" opacity="0.88" d=" M 48.39 0.00 L 50.47 0.00 C 56.67 4.45 63.37 8.15 69.31 12.96 L 68.47 12.93 C 61.64 9.73 56.24 3.92 48.98 1.60 C 48.55 1.83 47.70 2.30 47.27 2.53 C 45.54 3.49 43.85 4.52 42.21 5.62 C 40.31 6.87 38.45 8.17 36.53 9.39 C 29.06 13.70 21.90 18.49 14.48 22.88 C 13.42 32.55 14.15 42.30 14.02 52.00 C 14.28 60.35 13.39 68.75 14.64 77.05 C 22.25 81.83 29.90 86.56 37.65 91.09 C 41.24 93.55 44.79 96.10 48.75 97.95 C 53.41 96.80 57.27 93.83 61.24 91.28 C 65.31 88.53 69.58 86.10 73.97 83.90 C 66.50 90.13 57.67 94.36 49.78 100.00 L 48.51 100.00 C 37.21 91.88 25.06 85.04 13.28 77.64 C 12.99 59.22 13.01 40.79 13.29 22.38 C 25.07 15.03 36.89 7.77 48.39 0.00 Z" />
<path fill="#bec4b3" opacity="0.89" d=" M 48.98 1.60 C 56.24 3.92 61.64 9.73 68.47 12.93 C 67.15 12.90 65.83 12.91 64.51 12.90 C 61.34 10.76 57.61 10.10 53.88 9.82 C 50.21 9.70 49.50 5.52 49.03 2.66 L 48.98 1.60 Z" />
<path fill="#3c4875" opacity="0.87" d=" M 47.27 2.53 C 47.70 2.30 48.55 1.83 48.98 1.60 L 49.03 2.66 C 49.07 5.06 49.00 7.47 48.88 9.87 C 47.02 10.91 45.18 11.97 43.33 13.02 C 44.82 9.59 46.21 6.12 47.27 2.53 Z" />
<path fill="#737a8d" opacity="0.87" d=" M 42.21 5.62 C 43.85 4.52 45.54 3.49 47.27 2.53 C 46.21 6.12 44.82 9.59 43.33 13.02 C 45.18 11.97 47.02 10.91 48.88 9.87 C 50.17 12.23 51.78 14.45 54.11 15.87 C 50.26 16.40 46.53 17.57 43.07 19.34 C 41.68 19.60 40.27 19.77 38.87 19.97 C 40.56 18.01 42.30 16.08 44.07 14.19 C 41.39 15.08 38.69 15.89 36.02 16.77 C 37.97 13.00 39.75 9.11 42.21 5.62 Z" />
<path fill="#919ea0" opacity="0.89" d=" M 49.03 2.66 C 49.50 5.52 50.21 9.70 53.88 9.82 C 57.61 10.10 61.34 10.76 64.51 12.90 C 63.94 14.69 63.37 16.47 62.79 18.26 C 58.10 15.55 53.84 12.11 48.88 9.87 C 49.00 7.47 49.07 5.06 49.03 2.66 Z" />
<path fill="#cdccb9" opacity="0.91" d=" M 36.53 9.39 C 38.45 8.17 40.31 6.87 42.21 5.62 C 39.75 9.11 37.97 13.00 36.02 16.77 C 30.95 18.46 26.49 21.47 21.82 24.00 C 21.45 23.18 21.07 22.36 20.69 21.55 C 26.11 17.79 33.70 15.92 36.53 9.39 Z" />
<path fill="#dcdcc8" opacity="0.94" d=" M 14.48 22.88 C 21.90 18.49 29.06 13.70 36.53 9.39 C 33.70 15.92 26.11 17.79 20.69 21.55 C 19.15 22.45 17.63 23.40 16.08 24.29 C 15.48 33.23 16.01 42.19 15.96 51.13 C 15.73 58.56 16.14 65.98 16.46 73.39 L 15.98 74.11 L 15.40 74.71 C 15.22 57.43 14.97 40.15 14.48 22.88 Z" />
<path fill="#cdccb9" opacity="0.91" d=" M 48.88 9.87 C 53.84 12.11 58.10 15.55 62.79 18.26 C 63.73 18.78 64.68 19.27 65.62 19.79 C 70.36 22.59 74.26 27.83 80.28 27.58 C 77.51 31.23 76.60 35.94 77.67 40.39 C 79.36 47.58 78.51 54.99 78.52 62.29 L 78.51 63.15 C 78.36 56.30 78.32 49.44 77.57 42.63 C 76.73 47.78 76.46 52.99 76.36 58.20 C 76.50 52.08 76.20 45.96 76.41 39.85 C 76.05 35.95 77.81 30.52 73.82 28.03 C 73.00 27.43 72.16 26.87 71.29 26.33 C 65.55 22.88 59.81 19.40 54.11 15.87 C 51.78 14.45 50.17 12.23 48.88 9.87 Z" />
<path fill="#7179b1" opacity="0.82" d=" M 64.51 12.90 C 65.83 12.91 67.15 12.90 68.47 12.93 L 69.31 12.96 C 72.36 15.71 75.62 18.23 78.89 20.71 C 76.56 19.91 74.22 19.12 71.89 18.34 C 71.72 19.01 71.56 19.68 71.39 20.36 C 69.47 20.12 67.53 20.10 65.62 19.79 C 64.68 19.27 63.73 18.78 62.79 18.26 C 63.37 16.47 63.94 14.69 64.51 12.90 Z" />
<path fill="#393080" opacity="1.00" d=" M 69.31 12.96 C 74.59 16.31 80.82 18.51 85.07 23.24 C 85.64 25.78 85.51 28.40 85.53 30.99 C 85.35 44.68 85.46 58.37 85.51 72.07 C 85.29 74.06 85.78 76.56 84.05 78.02 C 81.15 80.69 77.42 82.12 73.97 83.90 C 76.47 81.91 78.82 79.75 81.32 77.77 C 82.28 77.42 83.25 77.08 84.21 76.76 C 84.26 73.04 84.16 69.33 83.89 65.63 C 83.76 63.40 83.50 61.19 83.36 58.96 C 83.04 54.15 82.80 49.33 82.51 44.52 C 83.16 37.91 83.46 31.27 84.07 24.65 C 82.54 24.83 81.01 25.03 79.47 25.21 C 79.29 23.71 79.08 22.21 78.89 20.71 C 75.62 18.23 72.36 15.71 69.31 12.96 Z" />
<path fill="#acbaae" opacity="0.90" d=" M 36.02 16.77 C 38.69 15.89 41.39 15.08 44.07 14.19 C 42.30 16.08 40.56 18.01 38.87 19.97 C 40.27 19.77 41.68 19.60 43.07 19.34 C 40.29 21.06 37.62 22.94 34.98 24.86 C 31.89 26.65 28.57 28.06 25.12 28.97 C 29.64 25.51 33.94 21.77 38.16 17.96 C 31.71 20.88 24.80 23.92 20.60 29.92 C 20.08 28.92 19.56 27.92 19.05 26.92 C 16.98 34.15 17.84 41.70 18.46 49.07 C 17.63 49.76 16.79 50.45 15.96 51.13 C 16.01 42.19 15.48 33.23 16.08 24.29 C 17.63 23.40 19.15 22.45 20.69 21.55 C 21.07 22.36 21.45 23.18 21.82 24.00 C 26.49 21.47 30.95 18.46 36.02 16.77 Z" />
<path fill="#5a636f" opacity="0.85" d=" M 43.07 19.34 C 46.53 17.57 50.26 16.40 54.11 15.87 C 59.81 19.40 65.55 22.88 71.29 26.33 C 70.90 27.82 70.54 29.31 70.15 30.79 C 69.71 31.54 69.25 32.29 68.77 33.02 C 67.60 33.67 66.39 34.25 65.17 34.81 C 64.73 31.91 64.50 28.43 61.48 27.03 C 59.97 26.99 58.46 26.99 56.95 27.04 C 55.38 28.05 54.19 29.51 53.04 30.96 C 52.30 30.62 51.56 30.28 50.81 29.96 C 49.48 29.40 48.14 28.89 46.77 28.48 C 43.91 27.68 40.54 28.29 38.25 30.20 C 36.43 32.38 36.81 35.49 36.72 38.14 C 36.35 36.40 36.01 34.64 35.70 32.89 C 34.93 36.12 34.71 39.78 32.38 42.38 C 29.48 45.66 25.71 48.01 22.02 50.29 C 22.44 45.05 21.52 39.55 23.31 34.52 C 25.80 32.81 28.86 32.15 31.33 30.41 C 32.85 28.78 33.78 26.72 34.98 24.86 C 37.62 22.94 40.29 21.06 43.07 19.34 Z" />
<path fill="#ccdddf" opacity="1.00" d=" M 20.60 29.92 C 24.80 23.92 31.71 20.88 38.16 17.96 C 33.94 21.77 29.64 25.51 25.12 28.97 C 23.63 29.37 22.11 29.62 20.60 29.92 Z" />
<path fill="#3b4699" opacity="0.80" d=" M 71.89 18.34 C 74.22 19.12 76.56 19.91 78.89 20.71 C 79.08 22.21 79.29 23.71 79.47 25.21 C 81.01 25.03 82.54 24.83 84.07 24.65 C 83.46 31.27 83.16 37.91 82.51 44.52 C 80.32 49.27 79.92 54.50 80.13 59.67 C 81.20 59.44 82.28 59.20 83.36 58.96 C 83.50 61.19 83.76 63.40 83.89 65.63 C 83.60 67.58 83.32 69.54 82.96 71.48 C 80.04 69.29 78.49 65.92 78.52 62.29 C 78.51 54.99 79.36 47.58 77.67 40.39 C 76.60 35.94 77.51 31.23 80.28 27.58 C 74.26 27.83 70.36 22.59 65.62 19.79 C 67.53 20.10 69.47 20.12 71.39 20.36 C 71.56 19.68 71.72 19.01 71.89 18.34 Z" />
<path fill="#c4b495" opacity="1.00" d=" M 14.02 52.00 C 14.15 42.30 13.42 32.55 14.48 22.88 C 14.97 40.15 15.22 57.43 15.40 74.71 L 15.13 75.50 C 15.00 75.89 14.76 76.66 14.64 77.05 C 13.39 68.75 14.28 60.35 14.02 52.00 Z" />
<path fill="#668188" opacity="0.94" d=" M 25.12 28.97 C 28.57 28.06 31.89 26.65 34.98 24.86 C 33.78 26.72 32.85 28.78 31.33 30.41 C 28.86 32.15 25.80 32.81 23.31 34.52 C 21.52 39.55 22.44 45.05 22.02 50.29 C 21.87 53.29 21.59 56.28 21.52 59.28 C 21.10 54.49 20.41 49.72 19.57 44.99 C 19.18 46.34 18.79 47.69 18.46 49.07 C 17.84 41.70 16.98 34.15 19.05 26.92 C 19.56 27.92 20.08 28.92 20.60 29.92 C 22.11 29.62 23.63 29.37 25.12 28.97 Z" />
<path fill="#75808a" opacity="0.83" d=" M 53.04 30.96 C 54.19 29.51 55.38 28.05 56.95 27.04 C 55.11 33.05 51.76 38.59 46.76 42.48 C 45.73 43.02 44.70 43.55 43.67 44.08 C 42.16 40.95 39.46 37.20 41.50 33.73 C 44.34 31.92 47.66 31.08 50.81 29.96 C 51.56 30.28 52.30 30.62 53.04 30.96 Z" />
<path fill="#070330" opacity="0.64" d=" M 56.95 27.04 C 58.46 26.99 59.97 26.99 61.48 27.03 C 61.88 28.39 62.64 29.65 62.86 31.06 C 62.53 33.07 61.43 34.84 60.63 36.68 C 62.14 36.06 63.67 35.46 65.17 34.81 C 66.39 34.25 67.60 33.67 68.77 33.02 C 67.14 35.06 66.14 38.72 62.94 38.43 C 61.29 38.52 59.64 38.41 57.99 38.37 C 58.41 39.23 58.83 40.10 59.25 40.96 C 58.68 40.96 57.55 40.97 56.98 40.97 C 56.47 40.31 55.97 39.64 55.47 38.96 L 55.04 38.32 C 53.69 39.19 52.34 40.07 50.98 40.93 C 49.58 41.48 48.15 41.94 46.76 42.48 C 51.76 38.59 55.11 33.05 56.95 27.04 M 58.18 30.39 C 57.65 32.02 58.21 32.57 59.84 32.05 C 60.36 30.43 59.81 29.87 58.18 30.39 Z" />
<path fill="#cdccb9" opacity="0.91" d=" M 61.48 27.03 C 64.50 28.43 64.73 31.91 65.17 34.81 C 63.67 35.46 62.14 36.06 60.63 36.68 C 61.43 34.84 62.53 33.07 62.86 31.06 C 62.64 29.65 61.88 28.39 61.48 27.03 Z" />
<path fill="#4b578e" opacity="0.87" d=" M 71.29 26.33 C 72.16 26.87 73.00 27.43 73.82 28.03 C 77.81 30.52 76.05 35.95 76.41 39.85 C 76.10 40.14 75.46 40.73 75.14 41.03 C 71.74 43.88 67.75 45.96 63.55 47.35 C 62.96 45.18 62.21 43.04 61.44 40.93 C 63.52 40.22 65.70 39.66 67.59 38.50 C 69.22 36.27 69.38 33.37 70.15 30.79 C 70.54 29.31 70.90 27.82 71.29 26.33 Z" />
<path fill="#090543" opacity="0.88" d=" M 38.25 30.20 C 40.54 28.29 43.91 27.68 46.77 28.48 C 47.10 28.64 47.77 28.95 48.10 29.11 C 45.20 30.31 40.84 30.12 39.44 33.49 C 38.21 37.48 40.53 41.38 41.87 45.03 C 42.32 44.79 43.22 44.31 43.67 44.08 C 44.70 43.55 45.73 43.02 46.76 42.48 C 48.15 41.94 49.58 41.48 50.98 40.93 C 48.67 43.05 46.44 45.26 44.14 47.39 C 44.99 48.31 45.82 49.25 46.70 50.16 C 49.76 52.58 55.04 56.03 58.34 52.21 C 60.32 48.66 57.98 44.51 56.98 40.97 C 57.55 40.97 58.68 40.96 59.25 40.96 C 61.58 45.02 63.65 50.99 59.69 54.73 C 56.41 56.65 52.38 55.36 48.80 55.23 C 53.22 60.48 59.42 65.71 58.32 73.38 C 56.40 68.96 53.61 65.05 50.36 61.52 C 47.62 58.06 45.13 54.40 42.21 51.08 C 41.94 50.81 41.41 50.26 41.15 49.99 C 37.47 52.22 33.94 54.69 30.43 57.18 C 33.13 53.74 36.17 50.58 39.51 47.77 C 38.47 44.59 37.38 41.42 36.72 38.14 C 36.81 35.49 36.43 32.38 38.25 30.20 Z" />
<path fill="#cdccb9" opacity="0.91" d=" M 46.77 28.48 C 48.14 28.89 49.48 29.40 50.81 29.96 C 47.66 31.08 44.34 31.92 41.50 33.73 C 39.46 37.20 42.16 40.95 43.67 44.08 C 43.22 44.31 42.32 44.79 41.87 45.03 C 40.53 41.38 38.21 37.48 39.44 33.49 C 40.84 30.12 45.20 30.31 48.10 29.11 C 47.77 28.95 47.10 28.64 46.77 28.48 Z" />
<path fill="#9eb5bf" opacity="1.00" d=" M 58.18 30.39 C 59.81 29.87 60.36 30.43 59.84 32.05 C 58.21 32.57 57.65 32.02 58.18 30.39 Z" />
<path fill="#a6b6c5" opacity="0.97" d=" M 68.77 33.02 C 69.25 32.29 69.71 31.54 70.15 30.79 C 69.38 33.37 69.22 36.27 67.59 38.50 C 65.70 39.66 63.52 40.22 61.44 40.93 C 62.21 43.04 62.96 45.18 63.55 47.35 C 63.90 48.81 64.21 50.27 64.55 51.73 C 63.04 53.46 61.80 55.53 59.82 56.79 C 57.60 57.58 55.21 57.60 52.89 57.84 C 56.86 61.94 60.67 66.77 60.35 72.83 C 59.02 74.34 57.70 75.86 56.39 77.37 C 54.57 76.90 52.77 76.37 50.92 76.06 C 53.48 75.47 56.16 75.01 58.32 73.38 C 59.42 65.71 53.22 60.48 48.80 55.23 C 52.38 55.36 56.41 56.65 59.69 54.73 C 63.65 50.99 61.58 45.02 59.25 40.96 C 58.83 40.10 58.41 39.23 57.99 38.37 C 59.64 38.41 61.29 38.52 62.94 38.43 C 66.14 38.72 67.14 35.06 68.77 33.02 Z" />
<path fill="#5e7994" opacity="0.80" d=" M 35.70 32.89 C 36.01 34.64 36.35 36.40 36.72 38.14 C 37.38 41.42 38.47 44.59 39.51 47.77 C 36.17 50.58 33.13 53.74 30.43 57.18 C 29.28 58.39 28.13 59.59 26.96 60.77 C 25.16 62.09 23.39 63.45 21.61 64.79 C 21.64 62.95 21.57 61.11 21.52 59.28 C 21.59 56.28 21.87 53.29 22.02 50.29 C 25.71 48.01 29.48 45.66 32.38 42.38 C 34.71 39.78 34.93 36.12 35.70 32.89 Z" />
<path fill="#b8c3c9" opacity="1.00" d=" M 50.98 40.93 C 52.34 40.07 53.69 39.19 55.04 38.32 L 55.47 38.96 C 52.48 42.64 48.63 45.71 46.70 50.16 C 45.82 49.25 44.99 48.31 44.14 47.39 C 46.44 45.26 48.67 43.05 50.98 40.93 Z" />
<path fill="#66749a" opacity="0.95" d=" M 55.47 38.96 C 55.97 39.64 56.47 40.31 56.98 40.97 C 57.98 44.51 60.32 48.66 58.34 52.21 C 55.04 56.03 49.76 52.58 46.70 50.16 C 48.63 45.71 52.48 42.64 55.47 38.96 Z" />
<path fill="#0b298d" opacity="0.87" d=" M 75.14 41.03 C 75.46 40.73 76.10 40.14 76.41 39.85 C 76.20 45.96 76.50 52.08 76.36 58.20 C 76.30 59.75 76.25 61.31 76.14 62.86 C 75.21 64.33 74.82 66.66 72.95 67.22 C 71.19 67.05 69.74 65.85 68.22 65.04 C 68.72 64.60 69.71 63.70 70.21 63.26 C 76.34 57.50 75.13 48.60 75.14 41.03 Z" />
<path fill="#4658ad" opacity="0.94" d=" M 63.55 47.35 C 67.75 45.96 71.74 43.88 75.14 41.03 C 75.13 48.60 76.34 57.50 70.21 63.26 C 69.18 62.40 68.15 61.54 67.11 60.69 C 67.52 57.43 66.87 54.17 64.55 51.73 C 64.21 50.27 63.90 48.81 63.55 47.35 Z" />
<path fill="#dde5d7" opacity="0.95" d=" M 76.36 58.20 C 76.46 52.99 76.73 47.78 77.57 42.63 C 78.32 49.44 78.36 56.30 78.51 63.15 C 78.50 65.14 78.42 67.12 78.28 69.10 C 77.43 69.67 76.58 70.23 75.72 70.78 C 75.86 68.14 75.94 65.49 76.14 62.86 C 76.25 61.31 76.30 59.75 76.36 58.20 Z" />
<path fill="#294365" opacity="0.66" d=" M 19.57 44.99 C 20.41 49.72 21.10 54.49 21.52 59.28 C 21.57 61.11 21.64 62.95 21.61 64.79 C 21.32 66.86 20.89 68.91 20.18 70.88 C 18.88 72.08 17.34 72.99 15.98 74.11 L 16.46 73.39 C 17.52 71.86 18.55 70.18 18.38 68.24 C 18.29 61.85 17.90 55.45 18.46 49.07 C 18.79 47.69 19.18 46.34 19.57 44.99 Z" />
<path fill="#0825d0" opacity="0.82" d=" M 80.13 59.67 C 79.92 54.50 80.32 49.27 82.51 44.52 C 82.80 49.33 83.04 54.15 83.36 58.96 C 82.28 59.20 81.20 59.44 80.13 59.67 Z" />
<path fill="#5888a7" opacity="0.80" d=" M 15.96 51.13 C 16.79 50.45 17.63 49.76 18.46 49.07 C 17.90 55.45 18.29 61.85 18.38 68.24 C 18.55 70.18 17.52 71.86 16.46 73.39 C 16.14 65.98 15.73 58.56 15.96 51.13 Z" />
<path fill="#b3c3d1" opacity="0.96" d=" M 30.43 57.18 C 33.94 54.69 37.47 52.22 41.15 49.99 C 41.41 50.26 41.94 50.81 42.21 51.08 C 39.21 53.44 36.24 55.86 33.05 57.96 C 31.07 59.00 28.99 59.83 26.96 60.77 C 28.13 59.59 29.28 58.39 30.43 57.18 Z" />
<path fill="#6083ad" opacity="0.96" d=" M 42.21 51.08 C 45.13 54.40 47.62 58.06 50.36 61.52 C 51.38 63.82 52.56 66.18 52.63 68.75 C 51.27 72.19 47.16 72.92 44.13 74.26 C 43.91 72.43 43.69 70.60 43.49 68.77 C 40.46 69.13 37.41 69.45 34.36 69.68 C 35.58 67.70 37.10 65.60 37.03 63.17 C 36.19 61.11 34.49 59.59 33.05 57.96 C 36.24 55.86 39.21 53.44 42.21 51.08 Z" />
<path fill="#5778a7" opacity="0.95" d=" M 59.82 56.79 C 61.80 55.53 63.04 53.46 64.55 51.73 C 66.87 54.17 67.52 57.43 67.11 60.69 C 68.15 61.54 69.18 62.40 70.21 63.26 C 69.71 63.70 68.72 64.60 68.22 65.04 C 65.36 67.39 62.66 69.94 60.35 72.83 C 60.67 66.77 56.86 61.94 52.89 57.84 C 55.21 57.60 57.60 57.58 59.82 56.79 Z" />
<path fill="#619abe" opacity="0.87" d=" M 26.96 60.77 C 28.99 59.83 31.07 59.00 33.05 57.96 C 34.49 59.59 36.19 61.11 37.03 63.17 C 37.10 65.60 35.58 67.70 34.36 69.68 C 32.80 70.87 31.11 71.86 29.47 72.94 C 31.28 73.92 33.03 75.01 34.83 76.02 C 39.68 80.05 44.73 83.99 50.79 86.03 C 50.06 87.43 49.34 88.83 48.63 90.24 C 44.28 85.81 38.67 83.00 33.61 79.50 C 34.19 79.62 35.35 79.87 35.93 79.99 C 31.28 76.12 26.50 71.51 20.18 70.88 C 20.89 68.91 21.32 66.86 21.61 64.79 C 23.39 63.45 25.16 62.09 26.96 60.77 Z" />
<path fill="#6ba4a3" opacity="0.95" d=" M 50.36 61.52 C 53.61 65.05 56.40 68.96 58.32 73.38 C 56.16 75.01 53.48 75.47 50.92 76.06 C 48.22 76.63 45.94 78.46 43.21 78.89 C 40.25 78.58 37.51 77.22 34.83 76.02 C 33.03 75.01 31.28 73.92 29.47 72.94 C 31.11 71.86 32.80 70.87 34.36 69.68 C 37.41 69.45 40.46 69.13 43.49 68.77 C 43.69 70.60 43.91 72.43 44.13 74.26 C 47.16 72.92 51.27 72.19 52.63 68.75 C 52.56 66.18 51.38 63.82 50.36 61.52 Z" />
<path fill="#435b7e" opacity="0.87" d=" M 72.95 67.22 C 74.82 66.66 75.21 64.33 76.14 62.86 C 75.94 65.49 75.86 68.14 75.72 70.78 C 71.16 73.94 66.26 76.53 61.45 79.27 C 64.39 76.79 67.29 74.25 70.27 71.80 C 64.71 74.19 59.53 77.36 54.12 80.05 C 54.86 79.14 55.61 78.25 56.39 77.37 C 57.70 75.86 59.02 74.34 60.35 72.83 C 62.66 69.94 65.36 67.39 68.22 65.04 C 69.74 65.85 71.19 67.05 72.95 67.22 Z" />
<path fill="#586293" opacity="0.80" d=" M 78.51 63.15 L 78.52 62.29 C 78.49 65.92 80.04 69.29 82.96 71.48 C 82.75 72.56 82.57 73.63 82.42 74.72 C 74.54 74.50 69.44 82.04 61.66 82.37 C 65.75 79.50 70.00 76.89 74.26 74.28 C 76.27 73.18 77.60 71.26 78.28 69.10 C 78.42 67.12 78.50 65.14 78.51 63.15 Z" />
<path fill="#7c83a7" opacity="0.93" d=" M 82.96 71.48 C 83.32 69.54 83.60 67.58 83.89 65.63 C 84.16 69.33 84.26 73.04 84.21 76.76 C 83.25 77.08 82.28 77.42 81.32 77.77 C 74.07 79.74 68.40 84.93 61.87 88.39 C 62.39 86.91 62.95 85.45 63.48 83.98 C 58.42 86.67 53.46 89.56 48.82 92.95 C 48.80 92.49 48.75 91.57 48.72 91.12 L 48.63 90.24 C 52.64 87.50 56.65 84.72 61.07 82.66 L 61.66 82.37 C 69.44 82.04 74.54 74.50 82.42 74.72 C 82.57 73.63 82.75 72.56 82.96 71.48 Z" />
<path fill="#8fa2ce" opacity="1.00" d=" M 75.72 70.78 C 76.58 70.23 77.43 69.67 78.28 69.10 C 77.60 71.26 76.27 73.18 74.26 74.28 C 70.00 76.89 65.75 79.50 61.66 82.37 L 61.07 82.66 C 61.01 81.66 60.96 80.66 60.92 79.66 L 61.45 79.27 C 66.26 76.53 71.16 73.94 75.72 70.78 Z" />
<path fill="#a1c7cb" opacity="1.00" d=" M 20.18 70.88 C 26.50 71.51 31.28 76.12 35.93 79.99 C 35.35 79.87 34.19 79.62 33.61 79.50 C 29.60 77.00 25.42 74.81 21.33 72.46 C 21.04 72.07 20.47 71.27 20.18 70.88 Z" />
<path fill="#8ea29a" opacity="0.82" d=" M 15.98 74.11 C 17.34 72.99 18.88 72.08 20.18 70.88 C 20.47 71.27 21.04 72.07 21.33 72.46 C 23.48 75.64 26.08 78.60 27.34 82.29 C 23.22 80.11 19.22 77.72 15.13 75.50 L 15.40 74.71 L 15.98 74.11 Z" />
<path fill="#919e87" opacity="0.92" d=" M 54.12 80.05 C 59.53 77.36 64.71 74.19 70.27 71.80 C 67.29 74.25 64.39 76.79 61.45 79.27 L 60.92 79.66 C 57.77 82.12 54.32 84.17 50.79 86.03 C 44.73 83.99 39.68 80.05 34.83 76.02 C 37.51 77.22 40.25 78.58 43.21 78.89 C 45.94 78.46 48.22 76.63 50.92 76.06 C 52.77 76.37 54.57 76.90 56.39 77.37 C 55.61 78.25 54.86 79.14 54.12 80.05 Z" />
<path fill="#627aa8" opacity="0.80" d=" M 21.33 72.46 C 25.42 74.81 29.60 77.00 33.61 79.50 C 33.96 80.96 33.87 82.76 35.18 83.76 C 39.08 87.19 44.01 89.10 48.72 91.12 C 48.75 91.57 48.80 92.49 48.82 92.95 C 48.84 93.74 48.88 95.34 48.90 96.14 C 45.74 94.25 42.65 92.25 39.48 90.37 C 35.57 87.48 31.56 84.72 27.34 82.29 C 26.08 78.60 23.48 75.64 21.33 72.46 Z" />
<path fill="#dfe2d6" opacity="1.00" d=" M 15.13 75.50 C 19.22 77.72 23.22 80.11 27.34 82.29 C 31.56 84.72 35.57 87.48 39.48 90.37 C 39.03 90.55 38.11 90.91 37.65 91.09 C 29.90 86.56 22.25 81.83 14.64 77.05 C 14.76 76.66 15.00 75.89 15.13 75.50 Z" />
<path fill="#c5cbd5" opacity="1.00" d=" M 61.87 88.39 C 68.40 84.93 74.07 79.74 81.32 77.77 C 78.82 79.75 76.47 81.91 73.97 83.90 C 69.58 86.10 65.31 88.53 61.24 91.28 C 57.27 93.83 53.41 96.80 48.75 97.95 C 52.43 93.91 57.24 91.20 61.87 88.39 Z" />
<path fill="#465780" opacity="0.89" d=" M 35.18 83.76 C 33.87 82.76 33.96 80.96 33.61 79.50 C 38.67 83.00 44.28 85.81 48.63 90.24 L 48.72 91.12 C 44.01 89.10 39.08 87.19 35.18 83.76 Z" />
<path fill="#d9e4dc" opacity="1.00" d=" M 50.79 86.03 C 54.32 84.17 57.77 82.12 60.92 79.66 C 60.96 80.66 61.01 81.66 61.07 82.66 C 56.65 84.72 52.64 87.50 48.63 90.24 C 49.34 88.83 50.06 87.43 50.79 86.03 Z" />
<path fill="#b5b9a3" opacity="0.94" d=" M 48.82 92.95 C 53.46 89.56 58.42 86.67 63.48 83.98 C 62.95 85.45 62.39 86.91 61.87 88.39 C 57.24 91.20 52.43 93.91 48.75 97.95 C 44.79 96.10 41.24 93.55 37.65 91.09 C 38.11 90.91 39.03 90.55 39.48 90.37 C 42.65 92.25 45.74 94.25 48.90 96.14 C 48.88 95.34 48.84 93.74 48.82 92.95 Z" />
</svg>
