<?xml version="1.0" encoding="UTF-8" ?>
<!DOCTYPE svg PUBLIC "-//W3C//DTD SVG 1.1//EN" "http://www.w3.org/Graphics/SVG/1.1/DTD/svg11.dtd">
<svg width="100pt" height="100pt" viewBox="0 0 100 100" version="1.1" xmlns="http://www.w3.org/2000/svg">
<path fill="#03060c" opacity="1.00" d=" M 38.79 26.02 C 47.31 23.49 56.30 24.34 64.86 26.23 C 69.50 27.33 75.69 28.48 77.45 33.60 C 77.76 38.29 74.29 42.18 71.84 45.86 C 71.99 45.41 72.28 44.49 72.43 44.03 C 73.31 41.35 74.35 38.72 75.36 36.08 C 74.32 35.12 73.28 34.15 72.24 33.19 C 72.88 32.78 74.15 31.97 74.78 31.56 C 63.69 25.98 50.97 25.30 38.79 26.02 Z" />
<path fill="#525965" opacity="1.00" d=" M 33.87 26.80 C 35.45 26.27 37.13 26.14 38.79 26.02 C 50.97 25.30 63.69 25.98 74.78 31.56 C 74.15 31.97 72.88 32.78 72.24 33.19 C 66.75 35.62 59.57 35.73 54.80 31.68 C 54.23 30.77 53.68 29.85 53.14 28.93 C 49.78 29.87 46.45 30.92 43.12 31.99 C 40.80 32.33 38.46 32.51 36.13 32.69 C 36.99 31.70 37.84 30.71 38.70 29.71 C 35.46 30.35 32.21 30.96 28.95 31.52 C 30.57 29.93 32.17 28.31 33.87 26.80 M 55.84 29.21 C 57.47 30.61 59.00 32.26 61.04 33.04 C 63.47 33.39 65.91 32.92 68.33 32.68 C 64.70 30.04 60.28 29.04 55.84 29.21 Z" />
<path fill="#333743" opacity="1.00" d=" M 23.11 29.58 C 26.63 28.44 30.20 27.39 33.87 26.80 C 32.17 28.31 30.57 29.93 28.95 31.52 C 32.21 30.96 35.46 30.35 38.70 29.71 C 37.84 30.71 36.99 31.70 36.13 32.69 C 38.46 32.51 40.80 32.33 43.12 31.99 C 39.53 35.90 37.76 41.07 37.82 46.36 C 37.28 44.54 36.74 42.73 36.19 40.92 C 35.95 44.34 35.58 47.78 35.93 51.21 C 36.34 55.15 38.30 58.68 40.01 62.18 C 36.80 58.66 33.25 55.47 30.05 51.95 C 27.00 44.75 23.36 37.57 23.11 29.58 Z" />
<path fill="#ffe99e" opacity="1.00" d=" M 43.12 31.99 C 46.45 30.92 49.78 29.87 53.14 28.93 C 53.68 29.85 54.23 30.77 54.80 31.68 C 52.94 35.86 51.92 40.35 51.38 44.88 C 53.89 43.53 56.39 42.16 58.83 40.70 C 58.38 43.37 58.10 46.06 57.79 48.75 C 55.89 48.51 53.99 48.27 52.09 48.03 C 53.63 52.48 55.20 56.92 56.47 61.46 C 54.21 57.53 52.30 53.41 50.30 49.35 C 46.81 52.30 43.36 55.31 39.53 57.82 C 42.88 52.90 49.17 49.90 50.30 43.65 C 50.52 39.57 50.85 35.50 51.41 31.46 C 47.18 33.13 42.73 35.26 40.72 39.64 C 39.71 41.86 38.82 44.13 37.82 46.36 C 37.76 41.07 39.53 35.90 43.12 31.99 M 55.27 44.15 C 53.43 44.54 53.84 47.81 55.85 47.06 C 57.70 46.66 57.29 43.40 55.27 44.15 Z" />
<path fill="#afb9b8" opacity="1.00" d=" M 55.84 29.21 C 60.28 29.04 64.70 30.04 68.33 32.68 C 65.91 32.92 63.47 33.39 61.04 33.04 C 59.00 32.26 57.47 30.61 55.84 29.21 Z" />
<path fill="#040508" opacity="0.94" d=" M 21.90 37.79 C 21.01 35.00 22.42 32.25 23.11 29.58 C 23.36 37.57 27.00 44.75 30.05 51.95 C 26.53 47.77 23.45 43.07 21.90 37.79 Z" />
<path fill="#3d495a" opacity="1.00" d=" M 40.72 39.64 C 42.73 35.26 47.18 33.13 51.41 31.46 C 50.85 35.50 50.52 39.57 50.30 43.65 C 47.35 41.79 44.16 40.32 40.72 39.64 Z" />
<path fill="#333742" opacity="1.00" d=" M 51.38 44.88 C 51.92 40.35 52.94 35.86 54.80 31.68 C 59.57 35.73 66.75 35.62 72.24 33.19 C 73.28 34.15 74.32 35.12 75.36 36.08 C 74.35 38.72 73.31 41.35 72.43 44.03 C 67.47 46.93 64.34 51.81 61.12 56.38 C 60.32 55.45 59.53 54.52 58.75 53.58 C 59.94 51.42 61.37 49.32 61.93 46.88 C 61.79 44.42 61.04 42.06 60.40 39.71 C 60.01 39.95 59.22 40.45 58.83 40.70 C 56.39 42.16 53.89 43.53 51.38 44.88 Z" />
<path fill="#14131f" opacity="1.00" d=" M 37.82 46.36 C 38.82 44.13 39.71 41.86 40.72 39.64 C 44.16 40.32 47.35 41.79 50.30 43.65 C 49.17 49.90 42.88 52.90 39.53 57.82 C 43.36 55.31 46.81 52.30 50.30 49.35 C 52.30 53.41 54.21 57.53 56.47 61.46 C 55.20 56.92 53.63 52.48 52.09 48.03 C 53.99 48.27 55.89 48.51 57.79 48.75 C 58.10 46.06 58.38 43.37 58.83 40.70 C 59.22 40.45 60.01 39.95 60.40 39.71 C 61.04 42.06 61.79 44.42 61.93 46.88 C 61.37 49.32 59.94 51.42 58.75 53.58 C 59.53 54.52 60.32 55.45 61.12 56.38 C 64.34 51.81 67.47 46.93 72.43 44.03 C 72.28 44.49 71.99 45.41 71.84 45.86 C 70.31 51.11 66.93 55.49 63.99 60.00 C 61.31 63.93 58.65 67.92 55.40 71.42 C 53.59 73.32 50.92 75.26 48.18 74.18 C 44.07 72.44 41.46 68.58 38.79 65.20 C 35.61 60.97 32.21 56.82 30.05 51.95 C 33.25 55.47 36.80 58.66 40.01 62.18 C 38.30 58.68 36.34 55.15 35.93 51.21 C 35.58 47.78 35.95 44.34 36.19 40.92 C 36.74 42.73 37.28 44.54 37.82 46.36 Z" />
<path fill="#14131f" opacity="1.00" d=" M 55.27 44.15 C 57.29 43.40 57.70 46.66 55.85 47.06 C 53.84 47.81 53.43 44.54 55.27 44.15 Z" />
</svg>
