<?xml version="1.0" encoding="UTF-8" ?>
<!DOCTYPE svg PUBLIC "-//W3C//DTD SVG 1.1//EN" "http://www.w3.org/Graphics/SVG/1.1/DTD/svg11.dtd">
<svg width="100pt" height="100pt" viewBox="0 0 100 100" version="1.1" xmlns="http://www.w3.org/2000/svg">
<path fill="#06003d" opacity="0.85" d=" M 48.39 0.00 L 50.49 0.00 C 56.67 4.46 63.40 8.12 69.32 12.96 L 68.44 12.94 C 61.64 9.68 56.20 3.91 48.96 1.54 C 48.56 1.79 47.76 2.27 47.35 2.51 C 45.64 3.56 43.88 4.51 42.21 5.62 C 40.29 6.83 38.44 8.15 36.51 9.35 C 29.07 13.69 21.90 18.49 14.48 22.87 C 13.32 34.20 14.18 45.63 14.03 57.00 C 14.30 63.66 13.12 70.46 14.83 76.99 C 22.16 82.10 30.02 86.47 37.66 91.11 C 41.25 93.57 44.79 96.12 48.74 97.97 C 53.18 96.90 56.88 94.11 60.65 91.67 C 64.92 88.80 69.36 86.19 73.97 83.92 C 66.50 90.15 57.67 94.38 49.77 100.00 L 48.50 100.00 C 37.18 91.90 25.05 85.03 13.26 77.66 C 12.96 59.23 12.96 40.79 13.28 22.36 C 25.07 15.04 36.87 7.74 48.39 0.00 Z" />
<path fill="#bec4b3" opacity="0.89" d=" M 48.96 1.54 C 56.20 3.91 61.64 9.68 68.44 12.94 C 67.20 12.95 65.95 12.98 64.70 12.98 C 61.50 10.72 57.68 10.08 53.87 9.86 C 50.18 9.76 49.49 5.48 49.01 2.62 L 48.96 1.54 Z" />
<path fill="#3c4875" opacity="0.87" d=" M 47.35 2.51 C 47.76 2.27 48.56 1.79 48.96 1.54 L 49.01 2.62 C 49.06 5.06 48.96 7.50 48.86 9.94 C 47.01 10.95 45.16 11.98 43.32 13.02 C 44.85 9.59 46.11 6.05 47.35 2.51 Z" />
<path fill="#737a8d" opacity="0.87" d=" M 42.21 5.62 C 43.88 4.51 45.64 3.56 47.35 2.51 C 46.11 6.05 44.85 9.59 43.32 13.02 C 45.16 11.98 47.01 10.95 48.86 9.94 C 50.38 13.01 53.02 15.24 55.95 16.91 C 55.77 17.51 55.58 18.11 55.40 18.71 C 53.38 17.93 51.40 16.87 49.20 16.69 C 47.01 17.18 45.09 18.42 43.10 19.42 C 41.69 19.64 40.27 19.79 38.86 19.98 C 40.53 17.99 42.29 16.08 44.08 14.19 C 41.40 15.12 38.66 15.87 35.95 16.70 C 38.16 13.08 39.69 9.06 42.21 5.62 Z" />
<path fill="#919ea0" opacity="0.89" d=" M 49.01 2.62 C 49.49 5.48 50.18 9.76 53.87 9.86 C 57.68 10.08 61.50 10.72 64.70 12.98 C 64.10 14.78 63.54 16.58 62.93 18.38 C 58.14 15.73 53.86 12.22 48.86 9.94 C 48.96 7.50 49.06 5.06 49.01 2.62 Z" />
<path fill="#cdccb9" opacity="0.91" d=" M 36.51 9.35 C 38.44 8.15 40.29 6.83 42.21 5.62 C 39.69 9.06 38.16 13.08 35.95 16.70 C 30.96 18.60 26.42 21.45 21.78 24.04 C 21.43 23.20 21.08 22.37 20.73 21.53 C 25.03 18.90 29.64 16.72 33.65 13.64 C 35.13 12.63 35.77 10.89 36.51 9.35 Z" />
<path fill="#dcdcc8" opacity="0.94" d=" M 14.48 22.87 C 21.90 18.49 29.07 13.69 36.51 9.35 C 35.77 10.89 35.13 12.63 33.65 13.64 C 29.64 16.72 25.03 18.90 20.73 21.53 C 19.17 22.45 17.62 23.36 16.07 24.28 C 15.52 33.30 15.75 42.34 16.39 51.35 C 15.59 58.69 16.23 66.07 16.48 73.42 L 15.94 74.11 L 15.31 74.69 C 15.29 57.41 14.93 40.13 14.48 22.87 Z" />
<path fill="#c3cdd2" opacity="1.00" d=" M 48.86 9.94 C 53.86 12.22 58.14 15.73 62.93 18.38 C 63.90 18.82 64.89 19.21 65.90 19.55 C 65.28 20.39 64.66 21.24 64.05 22.10 C 61.38 20.32 58.68 18.58 55.95 16.91 C 53.02 15.24 50.38 13.01 48.86 9.94 Z" />
<path fill="#6f78b1" opacity="0.82" d=" M 64.70 12.98 C 65.95 12.98 67.20 12.95 68.44 12.94 L 69.32 12.96 C 72.31 15.79 75.68 18.17 78.68 20.99 C 76.25 20.03 73.81 19.12 71.37 18.20 C 71.78 19.12 72.21 20.03 72.64 20.94 C 70.39 20.53 68.12 20.14 65.90 19.55 C 64.89 19.21 63.90 18.82 62.93 18.38 C 63.54 16.58 64.10 14.78 64.70 12.98 Z" />
<path fill="#393b91" opacity="1.00" d=" M 69.32 12.96 C 74.23 15.98 79.62 18.30 84.03 22.06 C 85.87 23.42 85.28 25.97 85.51 27.94 C 85.33 44.35 85.51 60.75 85.39 77.16 C 81.82 79.79 77.98 82.02 73.97 83.92 C 76.46 81.91 78.80 79.72 81.32 77.75 C 82.28 77.44 83.23 77.12 84.19 76.80 C 84.21 73.74 84.20 70.67 84.08 67.62 C 84.12 65.30 82.99 63.25 81.98 61.25 C 82.86 56.21 83.33 51.11 83.25 45.99 C 83.15 38.91 83.41 31.82 83.78 24.75 C 82.29 24.43 80.80 24.11 79.31 23.78 C 79.11 22.85 78.91 21.91 78.68 20.99 C 75.68 18.17 72.31 15.79 69.32 12.96 Z" />
<path fill="#acbaae" opacity="0.90" d=" M 35.95 16.70 C 38.66 15.87 41.40 15.12 44.08 14.19 C 42.29 16.08 40.53 17.99 38.86 19.98 C 40.27 19.79 41.69 19.64 43.10 19.42 C 40.27 21.19 37.53 23.09 34.72 24.89 C 31.73 26.72 28.51 28.16 25.11 29.00 C 29.59 25.48 33.94 21.79 38.16 17.96 C 31.71 20.91 24.73 23.92 20.56 29.97 C 20.06 28.97 19.56 27.98 19.05 26.99 C 16.54 34.94 19.32 43.47 16.39 51.35 C 15.75 42.34 15.52 33.30 16.07 24.28 C 17.62 23.36 19.17 22.45 20.73 21.53 C 21.08 22.37 21.43 23.20 21.78 24.04 C 26.42 21.45 30.96 18.60 35.95 16.70 Z" />
<path fill="#565a73" opacity="0.87" d=" M 43.10 19.42 C 45.09 18.42 47.01 17.18 49.20 16.69 C 51.40 16.87 53.38 17.93 55.40 18.71 C 55.58 18.11 55.77 17.51 55.95 16.91 C 58.68 18.58 61.38 20.32 64.05 22.10 C 67.88 24.84 72.41 26.83 75.46 30.53 C 76.93 33.89 75.93 37.72 75.98 41.27 L 75.56 40.47 C 74.91 39.28 74.25 38.10 73.61 36.90 L 73.30 37.74 L 72.87 38.45 C 71.98 38.87 71.09 39.29 70.20 39.71 C 69.88 37.84 69.47 35.99 69.14 34.13 C 69.04 33.53 68.82 32.35 68.72 31.75 L 68.45 32.87 C 67.20 31.66 66.06 30.33 64.64 29.30 C 63.22 28.29 61.67 27.48 60.13 26.68 C 61.73 29.68 63.65 32.48 65.58 35.27 C 64.30 35.58 63.03 35.89 61.76 36.21 C 60.27 33.30 58.86 29.86 55.57 28.59 C 51.51 26.93 47.25 25.68 42.92 24.98 C 40.70 24.53 39.23 26.62 37.69 27.85 C 36.02 29.36 34.26 30.77 32.52 32.21 C 32.55 31.87 32.60 31.21 32.62 30.87 C 33.38 28.90 34.08 26.91 34.72 24.89 C 37.53 23.09 40.27 21.19 43.10 19.42 Z" />
<path fill="#ccdddf" opacity="1.00" d=" M 20.56 29.97 C 24.73 23.92 31.71 20.91 38.16 17.96 C 33.94 21.79 29.59 25.48 25.11 29.00 C 23.61 29.39 22.08 29.68 20.56 29.97 Z" />
<path fill="#353e8a" opacity="0.80" d=" M 71.37 18.20 C 73.81 19.12 76.25 20.03 78.68 20.99 C 78.91 21.91 79.11 22.85 79.31 23.78 C 80.80 24.11 82.29 24.43 83.78 24.75 C 83.41 31.82 83.15 38.91 83.25 45.99 C 82.68 45.97 81.56 45.92 81.00 45.90 C 81.22 43.24 81.30 40.58 81.38 37.91 C 80.19 38.84 79.00 39.78 77.81 40.72 C 77.01 36.07 77.41 31.01 80.69 27.36 C 74.66 27.65 70.65 22.39 65.90 19.55 C 68.12 20.14 70.39 20.53 72.64 20.94 C 72.21 20.03 71.78 19.12 71.37 18.20 Z" />
<path fill="#7a8cb4" opacity="0.90" d=" M 65.90 19.55 C 70.65 22.39 74.66 27.65 80.69 27.36 C 77.41 31.01 77.01 36.07 77.81 40.72 C 79.53 48.13 79.13 55.74 78.48 63.25 C 78.38 56.29 78.64 49.28 77.66 42.37 C 76.48 47.56 76.49 52.90 76.21 58.19 C 76.39 52.55 76.02 46.91 75.98 41.27 C 75.93 37.72 76.93 33.89 75.46 30.53 C 72.41 26.83 67.88 24.84 64.05 22.10 C 64.66 21.24 65.28 20.39 65.90 19.55 Z" />
<path fill="#c4b495" opacity="1.00" d=" M 14.03 57.00 C 14.18 45.63 13.32 34.20 14.48 22.87 C 14.93 40.13 15.29 57.41 15.31 74.69 L 15.13 75.48 C 15.06 75.86 14.90 76.61 14.83 76.99 C 13.12 70.46 14.30 63.66 14.03 57.00 Z" />
<path fill="#567ba0" opacity="0.83" d=" M 25.11 29.00 C 28.51 28.16 31.73 26.72 34.72 24.89 C 34.08 26.91 33.38 28.90 32.62 30.87 C 32.19 31.05 31.33 31.42 30.91 31.60 C 28.32 32.14 25.69 32.46 23.07 32.81 C 22.05 40.25 21.65 47.87 23.25 55.27 C 25.16 51.72 25.94 47.71 25.57 43.71 C 26.93 47.07 28.42 50.39 29.33 53.91 C 29.86 55.95 30.31 58.01 30.59 60.10 C 30.39 60.31 29.97 60.74 29.77 60.96 C 28.92 60.00 28.05 59.06 27.18 58.12 C 27.72 59.88 28.26 61.64 28.81 63.40 C 26.43 64.37 23.93 65.00 21.52 65.88 C 21.51 58.86 20.76 51.86 19.63 44.94 C 18.01 52.33 17.82 59.94 18.54 67.46 C 18.98 69.73 17.97 71.78 16.48 73.42 C 16.23 66.07 15.59 58.69 16.39 51.35 C 19.32 43.47 16.54 34.94 19.05 26.99 C 19.56 27.98 20.06 28.97 20.56 29.97 C 22.08 29.68 23.61 29.39 25.11 29.00 Z" />
<path fill="#6c7b80" opacity="0.85" d=" M 37.69 27.85 C 39.23 26.62 40.70 24.53 42.92 24.98 C 47.25 25.68 51.51 26.93 55.57 28.59 C 58.86 29.86 60.27 33.30 61.76 36.21 C 63.03 35.89 64.30 35.58 65.58 35.27 C 62.99 37.47 60.26 39.54 57.22 41.06 C 54.79 37.32 52.38 33.56 49.92 29.83 L 49.57 30.70 C 48.12 33.97 46.06 36.92 43.94 39.80 C 42.20 39.76 40.46 39.73 38.72 39.60 C 38.00 39.21 37.32 38.76 36.66 38.25 C 35.77 37.01 34.95 35.71 34.12 34.42 C 35.36 32.26 36.51 30.05 37.69 27.85 Z" />
<path fill="#acbaae" opacity="0.90" d=" M 60.13 26.68 C 61.67 27.48 63.22 28.29 64.64 29.30 C 64.25 29.07 63.48 28.62 63.10 28.39 C 63.98 29.97 64.87 31.55 65.82 33.09 C 65.76 33.64 65.64 34.73 65.58 35.27 C 63.65 32.48 61.73 29.68 60.13 26.68 Z" />
<path fill="#cdccb9" opacity="0.91" d=" M 37.69 27.85 C 36.51 30.05 35.36 32.26 34.12 34.42 C 34.95 35.71 35.77 37.01 36.66 38.25 C 35.20 37.14 33.74 36.03 32.31 34.88 C 32.38 33.99 32.45 33.10 32.52 32.21 C 34.26 30.77 36.02 29.36 37.69 27.85 Z" />
<path fill="#06003d" opacity="0.85" d=" M 63.10 28.39 C 63.48 28.62 64.25 29.07 64.64 29.30 C 66.06 30.33 67.20 31.66 68.45 32.87 C 67.93 35.49 67.47 38.12 66.64 40.66 C 65.52 43.70 62.59 45.44 60.13 47.31 C 60.46 46.21 60.81 45.13 61.19 44.05 C 62.12 42.57 63.13 41.15 64.12 39.71 C 59.59 42.30 54.17 43.75 50.53 47.62 C 49.23 51.22 52.70 54.29 54.33 57.20 C 54.43 56.78 54.64 55.95 54.74 55.53 C 57.80 52.10 62.03 50.19 65.93 47.93 C 69.55 45.96 70.97 41.85 72.87 38.45 L 73.30 37.74 C 72.88 44.75 71.11 52.80 64.44 56.50 C 64.65 55.49 64.85 54.48 65.05 53.46 C 66.16 52.06 67.22 50.63 68.30 49.21 C 64.48 50.96 60.28 52.35 57.24 55.37 C 55.23 58.00 57.20 61.41 57.57 64.29 C 58.14 64.04 59.28 63.55 59.84 63.31 C 62.99 61.92 66.24 60.77 69.50 59.68 C 65.50 64.70 56.98 64.74 55.41 71.73 C 55.04 71.38 54.32 70.68 53.96 70.33 C 54.54 67.97 55.40 65.61 55.35 63.15 C 54.83 60.62 52.90 58.69 51.40 56.68 C 50.63 55.73 49.86 54.79 49.09 53.86 C 46.85 57.22 42.94 60.22 43.31 64.66 C 43.39 67.00 43.59 69.33 43.52 71.67 C 43.16 71.03 42.80 70.38 42.45 69.74 C 40.37 65.36 35.33 64.28 31.22 62.72 C 30.74 62.12 30.26 61.54 29.77 60.96 C 29.97 60.74 30.39 60.31 30.59 60.10 C 34.05 61.54 37.48 63.07 41.01 64.33 C 41.42 61.69 42.27 59.02 41.85 56.33 C 39.20 52.19 33.94 51.06 29.75 49.06 C 31.17 51.91 32.65 54.72 34.08 57.56 C 32.48 56.36 30.90 55.14 29.33 53.91 C 28.42 50.39 26.93 47.07 25.57 43.71 C 25.49 41.83 25.52 39.95 25.75 38.09 C 26.53 40.99 27.65 43.97 29.94 46.03 C 32.86 48.64 36.72 49.84 39.81 52.21 C 41.66 53.67 43.04 55.60 44.54 57.39 C 46.15 54.62 47.62 51.77 48.95 48.85 C 46.61 45.65 43.06 43.85 39.45 42.44 C 37.50 41.41 35.62 40.25 33.70 39.17 C 34.98 41.60 36.31 44.01 37.60 46.43 C 35.76 44.61 33.94 42.76 32.14 40.89 C 31.34 37.86 30.81 34.74 30.91 31.60 C 31.33 31.42 32.19 31.05 32.62 30.87 C 32.60 31.21 32.55 31.87 32.52 32.21 C 32.45 33.10 32.38 33.99 32.31 34.88 C 33.74 36.03 35.20 37.14 36.66 38.25 C 37.32 38.76 38.00 39.21 38.72 39.60 C 41.08 40.97 43.52 42.18 45.95 43.41 C 45.29 42.20 44.62 41.00 43.94 39.80 C 46.06 36.92 48.12 33.97 49.57 30.70 C 50.60 33.90 52.43 36.74 54.41 39.43 C 53.71 40.73 53.00 42.04 52.31 43.35 C 53.96 42.61 55.60 41.87 57.22 41.06 C 60.26 39.54 62.99 37.47 65.58 35.27 C 65.64 34.73 65.76 33.64 65.82 33.09 C 64.87 31.55 63.98 29.97 63.10 28.39 M 46.08 39.21 C 47.20 41.16 48.30 43.12 49.40 45.09 C 50.22 43.10 51.06 41.12 51.92 39.15 C 51.15 37.80 50.34 36.47 49.58 35.11 C 48.42 36.48 47.25 37.85 46.08 39.21 Z" />
<path fill="#abbbc4" opacity="0.96" d=" M 49.92 29.83 C 52.38 33.56 54.79 37.32 57.22 41.06 C 55.60 41.87 53.96 42.61 52.31 43.35 C 53.00 42.04 53.71 40.73 54.41 39.43 C 52.43 36.74 50.60 33.90 49.57 30.70 L 49.92 29.83 Z" />
<path fill="#566765" opacity="0.79" d=" M 23.07 32.81 C 25.69 32.46 28.32 32.14 30.91 31.60 C 30.81 34.74 31.34 37.86 32.14 40.89 C 32.77 43.14 33.54 45.34 34.26 47.56 C 30.86 44.32 28.39 40.32 25.88 36.40 C 25.85 36.82 25.78 37.67 25.75 38.09 C 25.52 39.95 25.49 41.83 25.57 43.71 C 25.94 47.71 25.16 51.72 23.25 55.27 C 21.65 47.87 22.05 40.25 23.07 32.81 Z" />
<path fill="#cdccb9" opacity="0.91" d=" M 68.72 31.75 C 68.82 32.35 69.04 33.53 69.14 34.13 C 69.16 37.47 68.83 41.04 66.86 43.86 C 65.08 46.49 62.14 47.93 59.49 49.50 C 59.65 48.95 59.97 47.86 60.13 47.31 C 62.59 45.44 65.52 43.70 66.64 40.66 C 67.47 38.12 67.93 35.49 68.45 32.87 L 68.72 31.75 Z" />
<path fill="#5f6f9b" opacity="0.96" d=" M 69.14 34.13 C 69.47 35.99 69.88 37.84 70.20 39.71 C 71.09 39.29 71.98 38.87 72.87 38.45 C 70.97 41.85 69.55 45.96 65.93 47.93 C 62.03 50.19 57.80 52.10 54.74 55.53 C 53.89 53.23 51.98 51.06 52.35 48.48 C 54.76 46.12 58.09 45.14 61.19 44.05 C 60.81 45.13 60.46 46.21 60.13 47.31 C 59.97 47.86 59.65 48.95 59.49 49.50 C 62.14 47.93 65.08 46.49 66.86 43.86 C 68.83 41.04 69.16 37.47 69.14 34.13 Z" />
<path fill="#a5a4a8" opacity="0.87" d=" M 46.08 39.21 C 47.25 37.85 48.42 36.48 49.58 35.11 C 50.34 36.47 51.15 37.80 51.92 39.15 C 51.06 41.12 50.22 43.10 49.40 45.09 C 48.30 43.12 47.20 41.16 46.08 39.21 Z" />
<path fill="#6d7e9e" opacity="0.95" d=" M 25.75 38.09 C 25.78 37.67 25.85 36.82 25.88 36.40 C 28.39 40.32 30.86 44.32 34.26 47.56 C 33.54 45.34 32.77 43.14 32.14 40.89 C 33.94 42.76 35.76 44.61 37.60 46.43 C 36.31 44.01 34.98 41.60 33.70 39.17 C 35.62 40.25 37.50 41.41 39.45 42.44 C 41.32 46.08 45.55 47.17 48.95 48.85 C 47.62 51.77 46.15 54.62 44.54 57.39 C 43.04 55.60 41.66 53.67 39.81 52.21 C 36.72 49.84 32.86 48.64 29.94 46.03 C 27.65 43.97 26.53 40.99 25.75 38.09 Z" />
<path fill="#cdccb9" opacity="0.91" d=" M 73.61 36.90 C 74.25 38.10 74.91 39.28 75.56 40.47 C 75.36 41.26 74.96 42.83 74.76 43.62 C 72.68 49.66 70.15 56.35 63.84 59.08 C 64.05 58.22 64.25 57.36 64.44 56.50 C 71.11 52.80 72.88 44.75 73.30 37.74 L 73.61 36.90 Z" />
<path fill="#4e58a0" opacity="0.80" d=" M 77.81 40.72 C 79.00 39.78 80.19 38.84 81.38 37.91 C 81.30 40.58 81.22 43.24 81.00 45.90 C 80.75 50.99 78.86 56.65 81.98 61.25 C 82.99 63.25 84.12 65.30 84.08 67.62 C 83.62 70.04 83.02 72.44 82.40 74.83 C 79.16 74.77 75.79 75.17 73.11 77.16 C 69.61 79.58 65.77 81.46 61.59 82.37 C 63.03 81.15 64.38 79.85 65.81 78.61 C 69.63 76.66 73.77 75.03 76.94 72.05 C 78.55 69.48 78.17 66.17 78.48 63.25 C 79.13 55.74 79.53 48.13 77.81 40.72 Z" />
<path fill="#9fb5c1" opacity="0.95" d=" M 38.72 39.60 C 40.46 39.73 42.20 39.76 43.94 39.80 C 44.62 41.00 45.29 42.20 45.95 43.41 C 43.52 42.18 41.08 40.97 38.72 39.60 Z" />
<path fill="#b0becc" opacity="1.00" d=" M 50.53 47.62 C 54.17 43.75 59.59 42.30 64.12 39.71 C 63.13 41.15 62.12 42.57 61.19 44.05 C 58.09 45.14 54.76 46.12 52.35 48.48 C 51.98 51.06 53.89 53.23 54.74 55.53 C 54.64 55.95 54.43 56.78 54.33 57.20 C 52.70 54.29 49.23 51.22 50.53 47.62 Z" />
<path fill="#0b2491" opacity="0.87" d=" M 75.56 40.47 L 75.98 41.27 C 76.02 46.91 76.39 52.55 76.21 58.19 C 76.15 59.38 76.08 60.57 76.00 61.76 C 75.52 63.36 74.98 64.94 74.47 66.53 C 72.62 66.51 70.76 66.48 68.91 66.47 C 69.32 65.33 69.73 64.20 70.19 63.08 C 70.51 62.60 71.16 61.64 71.49 61.15 C 75.69 56.25 74.74 49.58 74.76 43.62 C 74.96 42.83 75.36 41.26 75.56 40.47 Z" />
<path fill="#b1c2ca" opacity="0.97" d=" M 48.95 48.85 C 45.55 47.17 41.32 46.08 39.45 42.44 C 43.06 43.85 46.61 45.65 48.95 48.85 Z" />
<path fill="#bbc7d4" opacity="0.96" d=" M 76.21 58.19 C 76.49 52.90 76.48 47.56 77.66 42.37 C 78.64 49.28 78.38 56.29 78.48 63.25 C 78.17 66.17 78.55 69.48 76.94 72.05 C 73.77 75.03 69.63 76.66 65.81 78.61 C 65.34 78.70 64.41 78.86 63.94 78.94 C 66.55 76.98 69.30 75.22 72.03 73.42 C 73.20 72.55 74.42 71.69 75.33 70.53 C 75.98 67.66 75.79 64.68 76.00 61.76 C 76.08 60.57 76.15 59.38 76.21 58.19 Z" />
<path fill="#586faa" opacity="0.95" d=" M 63.84 59.08 C 70.15 56.35 72.68 49.66 74.76 43.62 C 74.74 49.58 75.69 56.25 71.49 61.15 C 71.39 60.47 71.20 59.10 71.10 58.41 C 70.57 58.83 70.03 59.25 69.50 59.68 C 66.24 60.77 62.99 61.92 59.84 63.31 C 59.26 61.33 58.57 59.37 58.31 57.31 C 60.15 55.42 62.70 54.52 65.05 53.46 C 64.85 54.48 64.65 55.49 64.44 56.50 C 64.25 57.36 64.05 58.22 63.84 59.08 Z" />
<path fill="#294365" opacity="0.66" d=" M 18.54 67.46 C 17.82 59.94 18.01 52.33 19.63 44.94 C 20.76 51.86 21.51 58.86 21.52 65.88 C 21.19 67.57 20.78 69.26 20.22 70.89 C 18.85 72.04 17.38 73.06 15.94 74.11 L 16.48 73.42 C 17.97 71.78 18.98 69.73 18.54 67.46 Z" />
<path fill="#0825d0" opacity="0.82" d=" M 81.00 45.90 C 81.56 45.92 82.68 45.97 83.25 45.99 C 83.33 51.11 82.86 56.21 81.98 61.25 C 78.86 56.65 80.75 50.99 81.00 45.90 Z" />
<path fill="#6d91b2" opacity="0.95" d=" M 29.75 49.06 C 33.94 51.06 39.20 52.19 41.85 56.33 C 42.27 59.02 41.42 61.69 41.01 64.33 C 37.48 63.07 34.05 61.54 30.59 60.10 C 30.31 58.01 29.86 55.95 29.33 53.91 C 30.90 55.14 32.48 56.36 34.08 57.56 C 32.65 54.72 31.17 51.91 29.75 49.06 Z" />
<path fill="#9bb0d0" opacity="1.00" d=" M 57.24 55.37 C 60.28 52.35 64.48 50.96 68.30 49.21 C 67.22 50.63 66.16 52.06 65.05 53.46 C 62.70 54.52 60.15 55.42 58.31 57.31 C 58.57 59.37 59.26 61.33 59.84 63.31 C 59.28 63.55 58.14 64.04 57.57 64.29 C 57.20 61.41 55.23 58.00 57.24 55.37 Z" />
<path fill="#adc5d3" opacity="1.00" d=" M 43.31 64.66 C 42.94 60.22 46.85 57.22 49.09 53.86 C 49.86 54.79 50.63 55.73 51.40 56.68 C 49.28 58.42 46.67 59.86 45.37 62.38 C 44.81 66.67 46.89 71.68 43.22 75.06 C 43.41 73.94 43.51 72.81 43.52 71.67 C 43.59 69.33 43.39 67.00 43.31 64.66 Z" />
<path fill="#6297b2" opacity="0.95" d=" M 51.40 56.68 C 52.90 58.69 54.83 60.62 55.35 63.15 C 55.40 65.61 54.54 67.97 53.96 70.33 C 49.56 73.86 44.53 76.55 38.89 77.36 C 36.67 76.15 34.38 75.07 32.09 74.01 C 37.24 78.10 42.59 81.99 48.37 85.14 C 48.45 85.70 48.61 86.81 48.69 87.36 C 48.79 88.11 48.98 89.60 49.07 90.35 C 44.39 86.12 38.78 83.14 33.65 79.52 C 34.24 79.64 35.43 79.87 36.03 79.99 C 31.25 76.29 26.57 71.41 20.22 70.89 C 20.78 69.26 21.19 67.57 21.52 65.88 C 23.93 65.00 26.43 64.37 28.81 63.40 C 28.26 61.64 27.72 59.88 27.18 58.12 C 28.05 59.06 28.92 60.00 29.77 60.96 C 30.26 61.54 30.74 62.12 31.22 62.72 C 31.43 63.01 31.85 63.61 32.07 63.91 C 35.51 66.37 39.88 67.70 42.07 71.64 C 42.16 71.16 42.35 70.21 42.45 69.74 C 42.80 70.38 43.16 71.03 43.52 71.67 C 43.51 72.81 43.41 73.94 43.22 75.06 C 46.89 71.68 44.81 66.67 45.37 62.38 C 46.67 59.86 49.28 58.42 51.40 56.68 Z" />
<path fill="#a8c1cc" opacity="0.97" d=" M 69.50 59.68 C 70.03 59.25 70.57 58.83 71.10 58.41 C 71.20 59.10 71.39 60.47 71.49 61.15 C 71.16 61.64 70.51 62.60 70.19 63.08 C 68.35 64.08 66.47 64.99 64.59 65.90 C 62.92 66.72 61.24 67.52 59.57 68.35 C 59.09 69.63 58.59 70.90 58.08 72.17 C 56.86 72.94 55.64 73.71 54.42 74.46 C 54.74 73.55 55.07 72.64 55.41 71.73 C 56.98 64.74 65.50 64.70 69.50 59.68 Z" />
<path fill="#374c82" opacity="0.87" d=" M 74.47 66.53 C 74.98 64.94 75.52 63.36 76.00 61.76 C 75.79 64.68 75.98 67.66 75.33 70.53 C 74.42 71.69 73.20 72.55 72.03 73.42 C 71.78 72.54 71.54 71.66 71.30 70.78 C 67.29 72.83 63.30 74.92 59.39 77.14 C 61.73 73.94 64.37 70.97 67.04 68.03 C 66.22 67.32 65.40 66.61 64.59 65.90 C 66.47 64.99 68.35 64.08 70.19 63.08 C 69.73 64.20 69.32 65.33 68.91 66.47 C 70.76 66.48 72.62 66.51 74.47 66.53 Z" />
<path fill="#a0c7d9" opacity="0.98" d=" M 32.07 63.91 C 31.85 63.61 31.43 63.01 31.22 62.72 C 35.33 64.28 40.37 65.36 42.45 69.74 C 42.35 70.21 42.16 71.16 42.07 71.64 C 39.88 67.70 35.51 66.37 32.07 63.91 Z" />
<path fill="#5d838f" opacity="0.91" d=" M 59.57 68.35 C 61.24 67.52 62.92 66.72 64.59 65.90 C 65.40 66.61 66.22 67.32 67.04 68.03 C 64.37 70.97 61.73 73.94 59.39 77.14 C 57.71 78.13 56.03 79.12 54.37 80.14 C 55.67 77.52 56.97 74.89 58.08 72.17 C 58.59 70.90 59.09 69.63 59.57 68.35 Z" />
<path fill="#7c83a8" opacity="0.93" d=" M 82.40 74.83 C 83.02 72.44 83.62 70.04 84.08 67.62 C 84.20 70.67 84.21 73.74 84.19 76.80 C 83.23 77.12 82.28 77.44 81.32 77.75 C 74.02 79.69 68.36 85.01 61.73 88.37 C 62.40 86.92 62.99 85.43 63.59 83.94 C 58.71 86.63 53.90 89.46 49.02 92.17 L 49.05 91.24 L 49.07 90.35 C 52.87 87.14 57.14 84.56 61.59 82.37 C 65.77 81.46 69.61 79.58 73.11 77.16 C 75.79 75.17 79.16 74.77 82.40 74.83 Z" />
<path fill="#a1c7cb" opacity="1.00" d=" M 20.22 70.89 C 26.57 71.41 31.25 76.29 36.03 79.99 C 35.43 79.87 34.24 79.64 33.65 79.52 C 29.63 77.02 25.44 74.81 21.32 72.50 C 21.04 72.10 20.49 71.29 20.22 70.89 Z" />
<path fill="#849d8c" opacity="0.93" d=" M 38.89 77.36 C 44.53 76.55 49.56 73.86 53.96 70.33 C 54.32 70.68 55.04 71.38 55.41 71.73 C 55.07 72.64 54.74 73.55 54.42 74.46 C 55.64 73.71 56.86 72.94 58.08 72.17 C 56.97 74.89 55.67 77.52 54.37 80.14 C 56.03 79.12 57.71 78.13 59.39 77.14 C 63.30 74.92 67.29 72.83 71.30 70.78 C 71.54 71.66 71.78 72.54 72.03 73.42 C 69.30 75.22 66.55 76.98 63.94 78.94 C 62.98 79.09 62.02 79.29 61.08 79.54 C 57.08 80.51 53.70 82.96 50.02 84.68 C 46.40 82.11 42.78 79.52 38.89 77.36 Z" />
<path fill="#8ea29a" opacity="0.82" d=" M 15.94 74.11 C 17.38 73.06 18.85 72.04 20.22 70.89 C 20.49 71.29 21.04 72.10 21.32 72.50 C 23.38 75.73 26.26 78.52 27.33 82.30 C 23.20 80.13 19.22 77.71 15.13 75.48 L 15.31 74.69 L 15.94 74.11 Z" />
<path fill="#627aa8" opacity="0.80" d=" M 21.32 72.50 C 25.44 74.81 29.63 77.02 33.65 79.52 C 33.44 82.54 35.65 84.61 38.07 85.95 C 41.51 88.15 45.30 89.68 49.05 91.24 L 49.02 92.17 C 48.97 93.50 48.92 94.83 48.88 96.16 C 45.74 94.23 42.65 92.24 39.48 90.36 C 35.57 87.46 31.54 84.73 27.33 82.30 C 26.26 78.52 23.38 75.73 21.32 72.50 Z" />
<path fill="#cdccb9" opacity="0.91" d=" M 32.09 74.01 C 34.38 75.07 36.67 76.15 38.89 77.36 C 42.78 79.52 46.40 82.11 50.02 84.68 C 49.61 84.80 48.78 85.03 48.37 85.14 C 42.59 81.99 37.24 78.10 32.09 74.01 Z" />
<path fill="#dfe2d6" opacity="1.00" d=" M 15.13 75.48 C 19.22 77.71 23.20 80.13 27.33 82.30 C 31.54 84.73 35.57 87.46 39.48 90.36 C 39.03 90.55 38.12 90.92 37.66 91.11 C 30.02 86.47 22.16 82.10 14.83 76.99 C 14.90 76.61 15.06 75.86 15.13 75.48 Z" />
<path fill="#c5cbd5" opacity="1.00" d=" M 61.73 88.37 C 68.36 85.01 74.02 79.69 81.32 77.75 C 78.80 79.72 76.46 81.91 73.97 83.92 C 69.36 86.19 64.92 88.80 60.65 91.67 C 56.88 94.11 53.18 96.90 48.74 97.97 C 52.35 93.88 57.24 91.33 61.73 88.37 Z" />
<path fill="#06003d" opacity="0.85" d=" M 50.02 84.68 C 53.70 82.96 57.08 80.51 61.08 79.54 C 56.85 81.97 52.81 84.74 48.69 87.36 C 48.61 86.81 48.45 85.70 48.37 85.14 C 48.78 85.03 49.61 84.80 50.02 84.68 Z" />
<path fill="#ccd9d7" opacity="1.00" d=" M 61.08 79.54 C 62.02 79.29 62.98 79.09 63.94 78.94 C 64.41 78.86 65.34 78.70 65.81 78.61 C 64.38 79.85 63.03 81.15 61.59 82.37 C 57.14 84.56 52.87 87.14 49.07 90.35 C 48.98 89.60 48.79 88.11 48.69 87.36 C 52.81 84.74 56.85 81.97 61.08 79.54 Z" />
<path fill="#465780" opacity="0.89" d=" M 38.07 85.95 C 35.65 84.61 33.44 82.54 33.65 79.52 C 38.78 83.14 44.39 86.12 49.07 90.35 L 49.05 91.24 C 45.30 89.68 41.51 88.15 38.07 85.95 Z" />
<path fill="#b5b9a3" opacity="0.93" d=" M 49.02 92.17 C 53.90 89.46 58.71 86.63 63.59 83.94 C 62.99 85.43 62.40 86.92 61.73 88.37 C 57.24 91.33 52.35 93.88 48.74 97.97 C 44.79 96.12 41.25 93.57 37.66 91.11 C 38.12 90.92 39.03 90.55 39.48 90.36 C 42.65 92.24 45.74 94.23 48.88 96.16 C 48.92 94.83 48.97 93.50 49.02 92.17 Z" />
</svg>
