<?xml version="1.0" encoding="UTF-8" ?>
<!DOCTYPE svg PUBLIC "-//W3C//DTD SVG 1.1//EN" "http://www.w3.org/Graphics/SVG/1.1/DTD/svg11.dtd">
<svg width="100pt" height="100pt" viewBox="0 0 100 100" version="1.1" xmlns="http://www.w3.org/2000/svg">
<path fill="#07080b" opacity="0.93" d=" M 33.79 26.71 C 41.98 24.82 50.50 24.03 58.85 25.29 C 64.36 26.10 70.26 26.74 74.93 30.05 C 77.15 31.54 78.25 34.57 76.98 37.03 C 71.91 48.06 65.36 58.37 58.20 68.16 C 56.03 70.84 53.62 74.07 49.97 74.58 C 46.35 74.13 43.77 71.11 41.46 68.56 C 35.39 61.13 29.96 53.18 25.09 44.91 C 23.55 42.10 21.81 39.18 21.62 35.90 C 21.80 33.73 22.53 31.67 23.12 29.59 C 23.73 42.23 30.73 53.55 39.51 62.27 C 42.18 66.30 44.30 72.52 49.84 72.96 C 53.53 70.68 55.90 66.91 58.70 63.71 C 63.59 58.04 67.39 51.56 71.19 45.13 C 72.84 42.24 74.22 39.21 75.60 36.19 C 74.49 35.21 73.38 34.22 72.28 33.23 C 72.92 32.81 74.20 31.98 74.84 31.56 C 68.13 28.00 60.57 26.39 53.04 25.87 C 46.61 25.52 40.22 26.62 33.79 26.71 Z" />
<path fill="#434d5c" opacity="1.00" d=" M 33.79 26.71 C 40.22 26.62 46.61 25.52 53.04 25.87 C 60.57 26.39 68.13 28.00 74.84 31.56 C 74.20 31.98 72.92 32.81 72.28 33.23 C 67.96 35.78 62.70 33.77 58.12 35.39 C 54.36 36.75 50.68 38.34 46.91 39.68 C 46.66 36.72 46.21 33.77 45.76 30.83 C 45.53 34.15 45.36 37.47 44.98 40.77 C 42.61 40.20 40.21 39.72 37.82 39.27 C 36.17 36.09 34.65 32.84 33.01 29.66 C 32.64 30.55 31.92 32.33 31.55 33.23 C 30.79 32.27 29.97 31.37 29.10 30.52 C 30.67 29.26 32.23 27.98 33.79 26.71 M 54.72 28.40 C 57.88 32.78 63.27 34.73 68.47 32.98 C 64.83 29.34 59.60 28.74 54.72 28.40 Z" />
<path fill="#333743" opacity="1.00" d=" M 23.12 29.59 C 26.62 28.42 30.17 27.43 33.79 26.71 C 32.23 27.98 30.67 29.26 29.10 30.52 C 29.97 31.37 30.79 32.27 31.55 33.23 C 33.55 35.75 35.47 38.32 38.23 40.07 C 39.15 41.41 40.14 42.70 41.12 44.00 C 39.44 43.32 37.75 42.63 36.06 41.96 C 34.50 48.97 36.46 55.96 39.51 62.27 C 30.73 53.55 23.73 42.23 23.12 29.59 Z" />
<path fill="#a7b1b2" opacity="1.00" d=" M 54.72 28.40 C 59.60 28.74 64.83 29.34 68.47 32.98 C 63.27 34.73 57.88 32.78 54.72 28.40 Z" />
<path fill="#ffe2a9" opacity="1.00" d=" M 33.01 29.66 C 34.65 32.84 36.17 36.09 37.82 39.27 L 38.23 40.07 C 35.47 38.32 33.55 35.75 31.55 33.23 C 31.92 32.33 32.64 30.55 33.01 29.66 Z" />
<path fill="#ffe2a9" opacity="1.00" d=" M 45.76 30.83 C 46.21 33.77 46.66 36.72 46.91 39.68 C 46.84 40.14 46.71 41.05 46.65 41.51 C 46.17 44.78 45.68 48.06 45.20 51.34 C 51.00 48.04 57.52 46.21 63.14 42.61 C 64.13 43.49 65.13 44.36 66.12 45.23 C 65.67 45.31 64.77 45.48 64.32 45.57 C 55.38 46.97 48.77 53.59 42.14 59.17 C 42.57 52.96 44.17 46.93 44.98 40.77 C 45.36 37.47 45.53 34.15 45.76 30.83 Z" />
<path fill="#343843" opacity="1.00" d=" M 58.12 35.39 C 62.70 33.77 67.96 35.78 72.28 33.23 C 73.38 34.22 74.49 35.21 75.60 36.19 C 74.22 39.21 72.84 42.24 71.19 45.13 C 69.39 45.88 67.59 46.62 65.80 47.37 C 65.30 46.77 64.81 46.17 64.32 45.57 C 64.77 45.48 65.67 45.31 66.12 45.23 C 65.13 44.36 64.13 43.49 63.14 42.61 C 63.80 42.18 64.45 41.75 65.11 41.32 C 58.96 41.47 52.80 41.80 46.65 41.51 C 46.71 41.05 46.84 40.14 46.91 39.68 C 50.68 38.34 54.36 36.75 58.12 35.39 Z" />
<path fill="#161623" opacity="1.00" d=" M 37.82 39.27 C 40.21 39.72 42.61 40.20 44.98 40.77 C 44.17 46.93 42.57 52.96 42.14 59.17 C 48.77 53.59 55.38 46.97 64.32 45.57 C 64.81 46.17 65.30 46.77 65.80 47.37 C 67.59 46.62 69.39 45.88 71.19 45.13 C 67.39 51.56 63.59 58.04 58.70 63.71 C 55.90 66.91 53.53 70.68 49.84 72.96 C 44.30 72.52 42.18 66.30 39.51 62.27 C 36.46 55.96 34.50 48.97 36.06 41.96 C 37.75 42.63 39.44 43.32 41.12 44.00 C 40.14 42.70 39.15 41.41 38.23 40.07 L 37.82 39.27 Z" />
<path fill="#161724" opacity="1.00" d=" M 46.65 41.51 C 52.80 41.80 58.96 41.47 65.11 41.32 C 64.45 41.75 63.80 42.18 63.14 42.61 C 57.52 46.21 51.00 48.04 45.20 51.34 C 45.68 48.06 46.17 44.78 46.65 41.51 Z" />
</svg>
