<?xml version="1.0" encoding="UTF-8" ?>
<!DOCTYPE svg PUBLIC "-//W3C//DTD SVG 1.1//EN" "http://www.w3.org/Graphics/SVG/1.1/DTD/svg11.dtd">
<svg width="100pt" height="100pt" viewBox="0 0 100 100" version="1.1" xmlns="http://www.w3.org/2000/svg">
<path fill="#06003e" opacity="0.90" d=" M 48.40 0.00 L 50.49 0.00 C 56.65 4.53 63.48 8.09 69.34 13.03 L 68.45 12.99 C 62.05 9.54 56.39 4.86 49.94 1.49 C 49.69 1.60 49.17 1.80 48.92 1.91 C 48.56 2.08 47.85 2.42 47.49 2.60 C 44.62 4.01 41.89 5.67 39.24 7.46 C 31.09 12.72 22.77 17.69 14.59 22.90 C 14.05 25.56 13.91 28.27 13.88 30.98 C 13.93 41.65 14.04 52.33 14.00 63.00 C 14.04 67.66 13.32 72.53 15.02 77.00 C 22.18 82.24 30.08 86.47 37.66 91.09 C 41.25 93.55 44.80 96.11 48.74 97.99 C 53.18 96.89 56.87 94.11 60.64 91.67 C 64.91 88.80 69.35 86.18 73.97 83.90 C 66.52 90.17 57.64 94.33 49.76 100.00 L 48.52 100.00 C 37.19 91.90 25.09 84.98 13.25 77.68 C 13.01 59.24 13.03 40.78 13.26 22.34 C 25.10 15.10 36.87 7.73 48.40 0.00 Z" />
<path fill="#bec4b3" opacity="0.89" d=" M 48.92 1.91 C 49.17 1.80 49.69 1.60 49.94 1.49 C 56.39 4.86 62.05 9.54 68.45 12.99 C 67.18 12.96 65.91 12.94 64.64 12.80 C 61.35 10.86 57.68 10.00 53.89 9.89 C 50.30 9.74 49.51 5.64 48.98 2.82 L 48.92 1.91 Z" />
<path fill="#3c4877" opacity="0.88" d=" M 47.49 2.60 C 47.85 2.42 48.56 2.08 48.92 1.91 L 48.98 2.82 C 49.07 5.19 49.00 7.56 48.93 9.93 C 46.38 11.32 43.85 12.73 41.31 14.13 C 42.71 12.22 44.10 10.31 45.47 8.39 C 44.84 8.44 43.59 8.56 42.96 8.61 C 44.67 6.76 46.27 4.80 47.49 2.60 Z" />
<path fill="#6a7f90" opacity="0.92" d=" M 39.24 7.46 C 41.89 5.67 44.62 4.01 47.49 2.60 C 46.27 4.80 44.67 6.76 42.96 8.61 C 43.59 8.56 44.84 8.44 45.47 8.39 C 44.10 10.31 42.71 12.22 41.31 14.13 C 43.85 12.73 46.38 11.32 48.93 9.93 C 49.95 11.74 51.09 13.51 52.66 14.89 C 52.69 15.45 52.72 16.01 52.75 16.56 C 50.44 16.70 47.97 16.59 45.93 17.89 C 41.12 20.87 36.07 23.82 32.54 28.36 C 30.78 30.87 27.98 32.14 25.18 33.12 C 24.48 32.52 23.77 31.91 23.06 31.30 C 22.61 37.38 22.07 43.44 21.55 49.51 L 21.12 48.77 C 20.52 47.56 19.92 46.35 19.32 45.13 C 18.28 52.53 17.67 60.01 18.30 67.47 C 18.64 69.64 17.82 71.68 16.41 73.30 C 16.25 65.98 15.45 58.64 16.36 51.34 C 19.70 43.42 15.97 34.66 19.23 26.72 C 19.67 27.90 20.12 29.09 20.56 30.27 C 28.86 28.11 34.97 21.66 41.25 16.21 C 39.61 16.70 37.98 17.18 36.34 17.62 C 35.93 17.59 35.11 17.55 34.70 17.52 C 36.69 15.89 37.91 13.65 37.73 11.05 C 38.28 9.87 38.76 8.66 39.24 7.46 Z" />
<path fill="#919ea0" opacity="0.89" d=" M 48.98 2.82 C 49.51 5.64 50.30 9.74 53.89 9.89 C 57.68 10.00 61.35 10.86 64.64 12.80 C 64.11 14.65 63.55 16.48 62.97 18.31 C 58.16 15.73 53.99 12.06 48.93 9.93 C 49.00 7.56 49.07 5.19 48.98 2.82 Z" />
<path fill="#d9dac9" opacity="0.94" d=" M 14.59 22.90 C 22.77 17.69 31.09 12.72 39.24 7.46 C 38.76 8.66 38.28 9.87 37.73 11.05 C 32.02 14.94 26.09 18.50 20.04 21.83 C 18.67 22.57 17.34 23.36 16.01 24.16 C 15.74 33.22 15.74 42.29 16.36 51.34 C 15.45 58.64 16.25 65.98 16.41 73.30 L 15.89 74.00 L 15.10 74.50 C 15.50 57.31 14.82 40.10 14.59 22.90 Z" />
<path fill="#cdccb9" opacity="0.91" d=" M 48.93 9.93 C 53.99 12.06 58.16 15.73 62.97 18.31 C 63.85 18.79 64.74 19.25 65.64 19.71 C 70.46 22.42 74.32 28.26 80.45 27.47 C 76.92 31.26 77.36 36.66 77.03 41.46 C 77.46 41.50 78.32 41.59 78.75 41.63 C 78.52 48.60 78.76 55.57 78.65 62.53 L 78.62 62.92 C 78.19 56.15 78.49 49.34 77.57 42.60 C 76.71 47.74 76.58 52.97 76.28 58.16 C 76.56 53.56 76.31 48.96 76.18 44.36 C 76.30 39.65 76.98 34.84 75.97 30.18 C 74.41 27.83 71.69 26.67 69.39 25.20 C 63.73 21.90 58.25 18.31 52.66 14.89 C 51.09 13.51 49.95 11.74 48.93 9.93 Z" />
<path fill="#cdccb9" opacity="0.91" d=" M 20.04 21.83 C 26.09 18.50 32.02 14.94 37.73 11.05 C 37.91 13.65 36.69 15.89 34.70 17.52 C 30.23 18.98 26.27 21.56 22.18 23.81 C 21.49 23.13 20.79 22.45 20.04 21.83 Z" />
<path fill="#6f78b1" opacity="0.82" d=" M 64.64 12.80 C 65.91 12.94 67.18 12.96 68.45 12.99 L 69.34 13.03 C 72.37 15.69 75.60 18.11 78.60 20.81 C 76.29 19.78 73.88 18.99 71.48 18.19 C 71.60 18.96 71.73 19.73 71.87 20.50 C 69.79 20.24 67.70 20.03 65.64 19.71 C 64.74 19.25 63.85 18.79 62.97 18.31 C 63.55 16.48 64.11 14.65 64.64 12.80 Z" />
<path fill="#393080" opacity="1.00" d=" M 69.34 13.03 C 74.65 16.28 80.79 18.58 85.10 23.21 C 85.68 26.10 85.49 29.07 85.50 31.99 C 85.35 45.34 85.43 58.70 85.50 72.06 C 85.27 74.05 85.81 76.59 84.04 78.02 C 81.15 80.69 77.42 82.13 73.97 83.90 C 76.42 81.90 78.79 79.78 81.37 77.94 C 82.31 77.51 83.25 77.09 84.20 76.69 C 84.31 72.99 84.20 69.30 83.90 65.62 C 83.77 63.37 83.52 61.12 83.34 58.88 C 83.03 54.10 82.81 49.32 82.60 44.54 C 83.29 37.98 83.43 31.37 84.10 24.81 C 82.58 24.84 81.05 24.98 79.55 24.72 C 79.27 23.53 79.15 22.31 78.94 21.11 L 78.60 20.81 C 75.60 18.11 72.37 15.69 69.34 13.03 Z" />
<path fill="#5a646d" opacity="0.84" d=" M 52.75 16.56 C 52.72 16.01 52.69 15.45 52.66 14.89 C 58.25 18.31 63.73 21.90 69.39 25.20 C 67.58 27.06 65.79 28.93 64.00 30.81 C 65.22 30.40 66.44 29.99 67.66 29.59 C 67.96 31.12 68.26 32.66 68.58 34.19 C 67.82 34.29 67.06 34.39 66.30 34.50 C 65.21 34.66 64.12 34.84 63.03 35.06 C 63.26 34.06 63.48 33.06 63.71 32.07 C 62.52 32.33 61.34 32.58 60.15 32.83 C 59.91 32.49 59.44 31.81 59.20 31.46 C 57.50 28.36 54.95 25.76 51.60 24.48 L 51.06 24.21 C 47.73 26.27 44.37 28.48 40.37 28.92 C 40.40 31.62 40.09 34.31 40.29 37.00 C 38.46 37.17 36.63 37.35 34.83 37.67 C 37.42 37.87 40.01 38.07 42.60 38.36 C 39.61 38.76 36.63 39.23 33.64 39.57 C 31.58 39.69 29.52 39.82 27.47 39.96 C 30.38 41.10 33.31 42.21 36.26 43.25 C 33.83 44.34 31.27 45.11 28.77 46.02 C 30.88 46.06 32.99 46.24 35.11 46.13 C 32.51 46.57 29.87 46.69 27.26 47.09 C 26.97 47.38 26.39 47.95 26.10 48.24 C 25.03 49.42 24.02 50.65 22.99 51.87 C 22.50 51.09 22.02 50.30 21.55 49.51 C 22.07 43.44 22.61 37.38 23.06 31.30 C 23.77 31.91 24.48 32.52 25.18 33.12 C 27.98 32.14 30.78 30.87 32.54 28.36 C 36.07 23.82 41.12 20.87 45.93 17.89 C 47.97 16.59 50.44 16.70 52.75 16.56 Z" />
<path fill="#c5d6d9" opacity="1.00" d=" M 36.34 17.62 C 37.98 17.18 39.61 16.70 41.25 16.21 C 34.97 21.66 28.86 28.11 20.56 30.27 C 23.81 23.95 31.31 22.14 36.34 17.62 Z" />
<path fill="#acbaae" opacity="0.87" d=" M 22.18 23.81 C 26.27 21.56 30.23 18.98 34.70 17.52 C 35.11 17.55 35.93 17.59 36.34 17.62 C 31.31 22.14 23.81 23.95 20.56 30.27 C 20.12 29.09 19.67 27.90 19.23 26.72 C 15.97 34.66 19.70 43.42 16.36 51.34 C 15.74 42.29 15.74 33.22 16.01 24.16 C 17.34 23.36 18.67 22.57 20.04 21.83 C 20.79 22.45 21.49 23.13 22.18 23.81 Z" />
<path fill="#374394" opacity="0.80" d=" M 71.48 18.19 C 73.88 18.99 76.29 19.78 78.60 20.81 L 78.94 21.11 C 79.15 22.31 79.27 23.53 79.55 24.72 C 81.05 24.98 82.58 24.84 84.10 24.81 C 83.43 31.37 83.29 37.98 82.60 44.54 C 80.05 49.24 80.00 54.62 80.17 59.83 C 81.22 59.51 82.28 59.19 83.34 58.88 C 83.52 61.12 83.77 63.37 83.90 65.62 C 83.51 67.53 83.03 69.42 82.66 71.34 C 82.16 68.09 80.74 65.06 78.65 62.53 C 78.76 55.57 78.52 48.60 78.75 41.63 C 78.32 41.59 77.46 41.50 77.03 41.46 C 77.36 36.66 76.92 31.26 80.45 27.47 C 74.32 28.26 70.46 22.42 65.64 19.71 C 67.70 20.03 69.79 20.24 71.87 20.50 C 71.73 19.73 71.60 18.96 71.48 18.19 Z" />
<path fill="#c4b495" opacity="1.00" d=" M 13.88 30.98 C 13.91 28.27 14.05 25.56 14.59 22.90 C 14.82 40.10 15.50 57.31 15.10 74.50 L 15.07 75.30 C 15.06 75.72 15.03 76.58 15.02 77.00 C 13.32 72.53 14.04 67.66 14.00 63.00 C 14.04 52.33 13.93 41.65 13.88 30.98 Z" />
<path fill="#acbaae" opacity="0.87" d=" M 40.37 28.92 C 44.37 28.48 47.73 26.27 51.06 24.21 C 48.61 26.94 45.84 29.42 42.43 30.88 C 42.49 33.37 42.58 35.86 42.60 38.36 C 40.01 38.07 37.42 37.87 34.83 37.67 C 36.63 37.35 38.46 37.17 40.29 37.00 C 40.09 34.31 40.40 31.62 40.37 28.92 Z" />
<path fill="#acbaae" opacity="0.87" d=" M 51.60 24.48 C 54.95 25.76 57.50 28.36 59.20 31.46 C 56.43 29.40 53.91 27.04 51.60 24.48 Z" />
<path fill="#0a0437" opacity="0.74" d=" M 42.43 30.88 C 45.84 29.42 48.61 26.94 51.06 24.21 L 51.60 24.48 C 53.91 27.04 56.43 29.40 59.20 31.46 C 59.44 31.81 59.91 32.49 60.15 32.83 C 59.50 32.98 58.20 33.26 57.55 33.41 C 57.29 34.50 57.03 35.59 56.77 36.68 C 58.85 36.09 60.92 35.50 63.03 35.06 C 64.12 34.84 65.21 34.66 66.30 34.50 C 64.66 36.39 62.67 38.11 61.71 40.47 C 60.93 42.84 60.67 45.33 60.14 47.76 C 59.12 44.71 59.09 41.49 59.49 38.34 C 58.61 38.50 57.73 38.66 56.84 38.81 C 55.69 39.00 54.55 39.17 53.39 39.34 C 51.12 39.65 48.84 39.94 46.57 40.27 C 46.32 41.46 46.06 42.64 45.77 43.82 C 44.82 44.16 43.88 44.52 42.94 44.89 C 43.01 44.38 43.17 43.37 43.25 42.87 C 40.57 44.03 37.98 45.51 35.11 46.13 C 32.99 46.24 30.88 46.06 28.77 46.02 C 31.27 45.11 33.83 44.34 36.26 43.25 C 37.70 42.37 39.07 41.40 40.43 40.41 C 38.17 40.09 35.91 39.78 33.64 39.57 C 36.63 39.23 39.61 38.76 42.60 38.36 C 42.58 35.86 42.49 33.37 42.43 30.88 M 46.90 38.49 C 49.71 37.92 49.27 34.46 50.12 32.32 C 51.89 32.14 53.66 31.95 55.43 31.75 C 54.01 30.18 52.63 28.54 50.94 27.25 C 46.78 28.90 43.09 34.57 46.90 38.49 M 51.81 33.03 C 51.85 34.82 51.91 36.61 52.00 38.40 C 53.12 36.96 54.24 35.52 55.32 34.05 C 54.15 33.70 52.98 33.36 51.81 33.03 Z" />
<path fill="#4c568b" opacity="0.87" d=" M 64.00 30.81 C 65.79 28.93 67.58 27.06 69.39 25.20 C 71.69 26.67 74.41 27.83 75.97 30.18 C 76.98 34.84 76.30 39.65 76.18 44.36 L 75.74 43.52 C 75.54 43.03 75.16 42.06 74.97 41.57 C 70.80 42.74 66.70 44.23 63.04 46.57 C 61.64 41.52 65.85 37.81 68.58 34.19 C 68.26 32.66 67.96 31.12 67.66 29.59 C 66.44 29.99 65.22 30.40 64.00 30.81 Z" />
<path fill="#9ba3a3" opacity="0.88" d=" M 46.90 38.49 C 43.09 34.57 46.78 28.90 50.94 27.25 C 52.63 28.54 54.01 30.18 55.43 31.75 C 53.66 31.95 51.89 32.14 50.12 32.32 C 49.27 34.46 49.71 37.92 46.90 38.49 Z" />
<path fill="#cdccb9" opacity="0.91" d=" M 60.15 32.83 C 61.34 32.58 62.52 32.33 63.71 32.07 C 63.48 33.06 63.26 34.06 63.03 35.06 C 60.92 35.50 58.85 36.09 56.77 36.68 C 57.03 35.59 57.29 34.50 57.55 33.41 C 58.20 33.26 59.50 32.98 60.15 32.83 Z" />
<path fill="#b0bdc5" opacity="0.95" d=" M 51.81 33.03 C 52.98 33.36 54.15 33.70 55.32 34.05 C 54.24 35.52 53.12 36.96 52.00 38.40 C 51.91 36.61 51.85 34.82 51.81 33.03 Z" />
<path fill="#cdccb9" opacity="0.91" d=" M 66.30 34.50 C 67.06 34.39 67.82 34.29 68.58 34.19 C 65.85 37.81 61.64 41.52 63.04 46.57 C 63.50 47.56 64.00 48.54 64.50 49.51 C 62.92 49.35 61.33 49.20 59.75 49.05 C 60.60 53.68 62.05 58.15 63.26 62.69 C 63.01 62.43 62.51 61.91 62.26 61.65 C 60.89 60.18 60.02 58.33 59.58 56.38 C 58.13 50.62 57.44 44.71 56.84 38.81 C 57.73 38.66 58.61 38.50 59.49 38.34 C 59.09 41.49 59.12 44.71 60.14 47.76 C 60.67 45.33 60.93 42.84 61.71 40.47 C 62.67 38.11 64.66 36.39 66.30 34.50 Z" />
<path fill="#acbaae" opacity="0.87" d=" M 27.47 39.96 C 29.52 39.82 31.58 39.69 33.64 39.57 C 35.91 39.78 38.17 40.09 40.43 40.41 C 39.07 41.40 37.70 42.37 36.26 43.25 C 33.31 42.21 30.38 41.10 27.47 39.96 Z" />
<path fill="#7e89ae" opacity="0.96" d=" M 46.57 40.27 C 48.84 39.94 51.12 39.65 53.39 39.34 C 50.43 45.70 47.57 52.13 44.19 58.29 C 43.11 60.93 39.96 60.70 37.63 61.21 C 40.67 55.58 44.53 50.23 45.77 43.82 C 46.06 42.64 46.32 41.46 46.57 40.27 Z" />
<path fill="#06003e" opacity="0.90" d=" M 53.39 39.34 C 54.55 39.17 55.69 39.00 56.84 38.81 C 57.44 44.71 58.13 50.62 59.58 56.38 C 60.02 58.33 60.89 60.18 62.26 61.65 C 62.83 62.33 63.40 63.02 63.97 63.71 L 63.88 64.34 C 63.53 66.53 63.89 68.78 64.34 70.94 C 63.25 68.73 61.93 66.64 60.49 64.65 C 55.48 62.00 49.62 62.46 44.13 62.03 C 42.02 66.16 40.23 70.53 37.31 74.19 C 38.47 70.86 39.55 67.49 40.94 64.25 C 41.18 63.68 41.65 62.54 41.88 61.97 C 38.28 62.21 34.66 62.39 31.11 63.04 C 33.87 60.52 36.48 57.79 38.51 54.63 C 40.05 51.99 41.10 49.10 42.31 46.30 C 42.46 45.95 42.78 45.24 42.94 44.89 C 43.88 44.52 44.82 44.16 45.77 43.82 C 44.53 50.23 40.67 55.58 37.63 61.21 C 39.96 60.70 43.11 60.93 44.19 58.29 C 47.57 52.13 50.43 45.70 53.39 39.34 M 45.38 59.78 L 44.32 59.80 C 48.72 61.38 53.46 61.06 58.04 61.59 C 56.63 56.84 55.64 51.96 53.75 47.37 C 54.34 45.93 53.90 44.32 53.96 42.81 C 50.54 48.17 48.14 54.08 45.38 59.78 Z" />
<path fill="#4c60ad" opacity="0.95" d=" M 63.04 46.57 C 66.70 44.23 70.80 42.74 74.97 41.57 C 75.16 42.06 75.54 43.03 75.74 43.52 C 75.35 47.31 75.31 51.16 74.54 54.90 C 73.48 58.63 71.48 62.03 70.47 65.79 C 68.29 65.25 66.09 64.75 63.88 64.34 L 63.97 63.71 C 63.40 63.02 62.83 62.33 62.26 61.65 C 62.51 61.91 63.01 62.43 63.26 62.69 C 62.05 58.15 60.60 53.68 59.75 49.05 C 61.33 49.20 62.92 49.35 64.50 49.51 C 64.00 48.54 63.50 47.56 63.04 46.57 Z" />
<path fill="#b7c3c7" opacity="0.91" d=" M 35.11 46.13 C 37.98 45.51 40.57 44.03 43.25 42.87 C 43.17 43.37 43.01 44.38 42.94 44.89 C 42.78 45.24 42.46 45.95 42.31 46.30 C 37.10 48.09 31.56 48.43 26.10 48.24 C 26.39 47.95 26.97 47.38 27.26 47.09 C 29.87 46.69 32.51 46.57 35.11 46.13 Z" />
<path fill="#b5c4d1" opacity="1.00" d=" M 45.38 59.78 C 48.14 54.08 50.54 48.17 53.96 42.81 C 53.90 44.32 54.34 45.93 53.75 47.37 C 51.50 51.51 49.46 55.76 47.21 59.91 C 46.75 59.88 45.83 59.81 45.38 59.78 Z" />
<path fill="#dde5d7" opacity="0.95" d=" M 76.28 58.16 C 76.58 52.97 76.71 47.74 77.57 42.60 C 78.49 49.34 78.19 56.15 78.62 62.92 C 78.45 64.97 78.30 67.03 78.13 69.08 C 77.34 69.62 76.55 70.16 75.76 70.71 C 75.76 67.72 75.80 64.73 75.97 61.74 C 76.09 60.55 76.19 59.36 76.28 58.16 Z" />
<path fill="#09218f" opacity="0.87" d=" M 75.74 43.52 L 76.18 44.36 C 76.31 48.96 76.56 53.56 76.28 58.16 C 76.19 59.36 76.09 60.55 75.97 61.74 C 75.59 63.29 75.16 64.83 74.72 66.37 C 74.35 66.42 73.61 66.51 73.24 66.55 C 72.54 66.36 71.16 65.98 70.47 65.79 C 71.48 62.03 73.48 58.63 74.54 54.90 C 75.31 51.16 75.35 47.31 75.74 43.52 Z" />
<path fill="#284365" opacity="0.66" d=" M 18.30 67.47 C 17.67 60.01 18.28 52.53 19.32 45.13 C 19.92 46.35 20.52 47.56 21.12 48.77 C 20.61 54.45 21.32 60.11 21.45 65.78 C 21.12 67.69 20.69 69.56 20.25 71.44 C 18.78 72.27 17.32 73.12 15.89 74.00 L 16.41 73.30 C 17.82 71.68 18.64 69.64 18.30 67.47 Z" />
<path fill="#0825d0" opacity="0.82" d=" M 80.17 59.83 C 80.00 54.62 80.05 49.24 82.60 44.54 C 82.81 49.32 83.03 54.10 83.34 58.88 C 82.28 59.19 81.22 59.51 80.17 59.83 Z" />
<path fill="#59799c" opacity="0.82" d=" M 26.10 48.24 C 31.56 48.43 37.10 48.09 42.31 46.30 C 41.10 49.10 40.05 51.99 38.51 54.63 C 31.46 56.40 28.79 64.79 21.45 65.78 C 21.32 60.11 20.61 54.45 21.12 48.77 L 21.55 49.51 C 22.02 50.30 22.50 51.09 22.99 51.87 C 24.02 50.65 25.03 49.42 26.10 48.24 Z" />
<path fill="#5a71ae" opacity="0.96" d=" M 47.21 59.91 C 49.46 55.76 51.50 51.51 53.75 47.37 C 55.64 51.96 56.63 56.84 58.04 61.59 C 53.46 61.06 48.72 61.38 44.32 59.80 L 45.38 59.78 C 45.83 59.81 46.75 59.88 47.21 59.91 Z" />
<path fill="#649bb5" opacity="0.87" d=" M 21.45 65.78 C 28.79 64.79 31.46 56.40 38.51 54.63 C 36.48 57.79 33.87 60.52 31.11 63.04 C 30.78 63.33 30.11 63.90 29.78 64.18 C 33.49 64.56 37.23 64.53 40.94 64.25 C 39.55 67.49 38.47 70.86 37.31 74.19 C 36.22 75.15 34.70 75.29 33.35 75.65 C 37.62 78.34 41.73 81.27 46.08 83.85 C 47.09 84.62 48.06 85.43 49.05 86.24 L 48.98 87.14 C 48.97 87.94 48.94 89.55 48.93 90.36 C 44.45 85.72 38.53 83.01 33.10 79.71 L 32.70 78.84 C 33.28 78.94 34.45 79.13 35.03 79.22 C 31.18 75.99 26.91 73.31 22.77 70.47 C 22.14 70.72 20.88 71.20 20.25 71.44 C 20.69 69.56 21.12 67.69 21.45 65.78 Z" />
<path fill="#a2bed2" opacity="0.96" d=" M 31.11 63.04 C 34.66 62.39 38.28 62.21 41.88 61.97 C 41.65 62.54 41.18 63.68 40.94 64.25 C 37.23 64.53 33.49 64.56 29.78 64.18 C 30.11 63.90 30.78 63.33 31.11 63.04 Z" />
<path fill="#a8bfc2" opacity="0.97" d=" M 44.13 62.03 C 49.62 62.46 55.48 62.00 60.49 64.65 C 55.41 64.62 50.33 64.31 45.25 64.11 C 43.28 68.37 41.52 72.71 39.62 77.00 L 39.17 77.74 C 42.33 79.57 45.38 81.58 48.20 83.90 C 47.67 83.89 46.61 83.86 46.08 83.85 C 41.73 81.27 37.62 78.34 33.35 75.65 C 34.70 75.29 36.22 75.15 37.31 74.19 C 40.23 70.53 42.02 66.16 44.13 62.03 Z" />
<path fill="#334b82" opacity="0.87" d=" M 74.72 66.37 C 75.16 64.83 75.59 63.29 75.97 61.74 C 75.80 64.73 75.76 67.72 75.76 70.71 C 74.47 71.59 73.19 72.47 71.90 73.33 C 71.75 72.53 71.61 71.73 71.47 70.92 C 69.96 71.51 68.45 72.10 66.93 72.68 C 66.65 70.94 66.37 69.20 66.10 67.46 C 68.48 67.15 70.86 66.86 73.24 66.55 C 73.61 66.51 74.35 66.42 74.72 66.37 Z" />
<path fill="#545e93" opacity="0.69" d=" M 78.62 62.92 L 78.65 62.53 C 80.74 65.06 82.16 68.09 82.66 71.34 C 82.61 72.54 82.57 73.74 82.54 74.94 C 79.55 74.75 76.41 74.97 73.95 76.88 C 70.21 79.51 66.24 82.02 61.56 82.40 C 66.93 78.79 72.44 75.41 77.86 71.89 C 77.93 71.18 78.06 69.78 78.13 69.08 C 78.30 67.03 78.45 64.97 78.62 62.92 Z" />
<path fill="#6391a1" opacity="0.95" d=" M 45.25 64.11 C 50.33 64.31 55.41 64.62 60.49 64.65 C 61.93 66.64 63.25 68.73 64.34 70.94 C 64.41 71.22 64.56 71.78 64.63 72.06 C 63.51 71.57 62.40 71.08 61.29 70.59 C 60.21 71.81 59.13 73.03 58.08 74.29 C 56.59 74.14 55.10 74.00 53.61 73.86 C 53.54 72.93 53.47 71.99 53.40 71.06 C 51.41 72.82 49.57 74.95 47.03 75.94 C 44.62 76.64 42.09 76.68 39.62 77.00 C 41.52 72.71 43.28 68.37 45.25 64.11 Z" />
<path fill="#889e8a" opacity="0.93" d=" M 64.34 70.94 C 63.89 68.78 63.53 66.53 63.88 64.34 C 66.09 64.75 68.29 65.25 70.47 65.79 C 71.16 65.98 72.54 66.36 73.24 66.55 C 70.86 66.86 68.48 67.15 66.10 67.46 C 66.37 69.20 66.65 70.94 66.93 72.68 C 68.45 72.10 69.96 71.51 71.47 70.92 C 71.61 71.73 71.75 72.53 71.90 73.33 C 68.72 75.44 65.46 77.44 62.08 79.20 L 61.31 79.47 C 56.69 80.59 52.56 83.08 49.05 86.24 C 48.06 85.43 47.09 84.62 46.08 83.85 C 46.61 83.86 47.67 83.89 48.20 83.90 C 45.38 81.58 42.33 79.57 39.17 77.74 L 39.62 77.00 C 42.09 76.68 44.62 76.64 47.03 75.94 C 49.57 74.95 51.41 72.82 53.40 71.06 C 53.47 71.99 53.54 72.93 53.61 73.86 C 55.10 74.00 56.59 74.14 58.08 74.29 C 56.59 76.15 55.28 78.16 54.01 80.19 C 57.96 78.64 61.67 76.55 65.16 74.15 C 65.03 73.63 64.76 72.59 64.63 72.06 C 64.56 71.78 64.41 71.22 64.34 70.94 Z" />
<path fill="#7c83a7" opacity="0.93" d=" M 82.66 71.34 C 83.03 69.42 83.51 67.53 83.90 65.62 C 84.20 69.30 84.31 72.99 84.20 76.69 C 83.25 77.09 82.31 77.51 81.37 77.94 C 73.93 79.28 68.51 85.20 61.87 88.40 C 62.38 86.90 62.92 85.42 63.47 83.94 C 58.67 86.76 53.84 89.51 48.94 92.15 L 48.94 91.24 L 48.93 90.36 C 52.61 87.38 56.62 84.82 60.78 82.57 L 61.56 82.40 C 66.24 82.02 70.21 79.51 73.95 76.88 C 76.41 74.97 79.55 74.75 82.54 74.94 C 82.57 73.74 82.61 72.54 82.66 71.34 Z" />
<path fill="#91a3d1" opacity="1.00" d=" M 75.76 70.71 C 76.55 70.16 77.34 69.62 78.13 69.08 C 78.06 69.78 77.93 71.18 77.86 71.89 C 72.44 75.41 66.93 78.79 61.56 82.40 L 60.78 82.57 C 61.10 81.73 61.76 80.04 62.08 79.20 C 65.46 77.44 68.72 75.44 71.90 73.33 C 73.19 72.47 74.47 71.59 75.76 70.71 Z" />
<path fill="#a3c8c9" opacity="0.98" d=" M 20.25 71.44 C 20.88 71.20 22.14 70.72 22.77 70.47 C 26.91 73.31 31.18 75.99 35.03 79.22 C 34.45 79.13 33.28 78.94 32.70 78.84 C 28.91 76.67 25.09 74.56 21.14 72.71 C 20.92 72.39 20.47 71.76 20.25 71.44 Z" />
<path fill="#5f7763" opacity="0.87" d=" M 61.29 70.59 C 62.40 71.08 63.51 71.57 64.63 72.06 C 64.76 72.59 65.03 73.63 65.16 74.15 C 61.67 76.55 57.96 78.64 54.01 80.19 C 55.28 78.16 56.59 76.15 58.08 74.29 C 59.13 73.03 60.21 71.81 61.29 70.59 Z" />
<path fill="#8ea197" opacity="0.81" d=" M 15.89 74.00 C 17.32 73.12 18.78 72.27 20.25 71.44 C 20.47 71.76 20.92 72.39 21.14 72.71 C 22.72 75.09 24.53 77.32 26.58 79.32 C 26.03 79.91 25.47 80.50 24.92 81.09 C 21.63 79.18 18.30 77.32 15.07 75.30 L 15.10 74.50 L 15.89 74.00 Z" />
<path fill="#627ba7" opacity="0.80" d=" M 21.14 72.71 C 25.09 74.56 28.91 76.67 32.70 78.84 L 33.10 79.71 C 35.31 86.61 43.15 88.40 48.94 91.24 L 48.94 92.15 C 48.94 93.50 48.94 94.85 48.94 96.21 C 45.79 94.26 42.68 92.25 39.49 90.37 C 34.93 86.84 29.98 83.86 24.92 81.09 C 25.47 80.50 26.03 79.91 26.58 79.32 C 24.53 77.32 22.72 75.09 21.14 72.71 Z" />
<path fill="#dee2d6" opacity="1.00" d=" M 15.07 75.30 C 18.30 77.32 21.63 79.18 24.92 81.09 C 29.98 83.86 34.93 86.84 39.49 90.37 C 39.03 90.55 38.12 90.91 37.66 91.09 C 30.08 86.47 22.18 82.24 15.02 77.00 C 15.03 76.58 15.06 75.72 15.07 75.30 Z" />
<path fill="#c5cbd5" opacity="1.00" d=" M 61.87 88.40 C 68.51 85.20 73.93 79.28 81.37 77.94 C 78.79 79.78 76.42 81.90 73.97 83.90 C 69.35 86.18 64.91 88.80 60.64 91.67 C 56.87 94.11 53.18 96.89 48.74 97.99 C 52.33 93.83 57.26 91.24 61.87 88.40 Z" />
<path fill="#0a0437" opacity="0.74" d=" M 49.05 86.24 C 52.56 83.08 56.69 80.59 61.31 79.47 C 57.14 81.92 53.08 84.57 48.98 87.14 L 49.05 86.24 Z" />
<path fill="#465780" opacity="0.89" d=" M 33.10 79.71 C 38.53 83.01 44.45 85.72 48.93 90.36 L 48.94 91.24 C 43.15 88.40 35.31 86.61 33.10 79.71 Z" />
<path fill="#d9e4dc" opacity="1.00" d=" M 48.98 87.14 C 53.08 84.57 57.14 81.92 61.31 79.47 L 62.08 79.20 C 61.76 80.04 61.10 81.73 60.78 82.57 C 56.62 84.82 52.61 87.38 48.93 90.36 C 48.94 89.55 48.97 87.94 48.98 87.14 Z" />
<path fill="#b5b9a3" opacity="0.93" d=" M 48.94 92.15 C 53.84 89.51 58.67 86.76 63.47 83.94 C 62.92 85.42 62.38 86.90 61.87 88.40 C 57.26 91.24 52.33 93.83 48.74 97.99 C 44.80 96.11 41.25 93.55 37.66 91.09 C 38.12 90.91 39.03 90.55 39.49 90.37 C 42.68 92.25 45.79 94.26 48.94 96.21 C 48.94 94.85 48.94 93.50 48.94 92.15 Z" />
</svg>
