<?xml version="1.0" encoding="UTF-8" ?>
<!DOCTYPE svg PUBLIC "-//W3C//DTD SVG 1.1//EN" "http://www.w3.org/Graphics/SVG/1.1/DTD/svg11.dtd">
<svg width="100pt" height="100pt" viewBox="0 0 100 100" version="1.1" xmlns="http://www.w3.org/2000/svg">
<path fill="#090c13" opacity="1.00" d=" M 33.68 26.71 C 42.20 24.88 51.07 23.37 59.71 25.31 C 65.48 26.55 72.33 26.89 76.47 31.65 C 79.00 34.91 76.14 38.63 74.70 41.65 C 69.87 51.44 63.92 60.63 57.26 69.26 C 55.34 71.56 53.10 74.11 49.98 74.58 C 46.38 74.08 43.80 71.11 41.50 68.54 C 35.30 60.90 29.68 52.77 24.77 44.24 C 23.36 41.64 21.82 38.93 21.69 35.90 C 21.86 33.74 22.62 31.68 23.22 29.61 C 23.29 37.24 26.48 44.32 30.16 50.85 C 32.87 55.55 37.04 59.12 40.38 63.34 C 42.43 66.88 44.17 71.38 48.35 72.83 C 50.17 73.51 51.50 71.77 52.68 70.70 C 56.02 66.99 59.27 63.15 61.97 58.93 C 63.71 55.72 65.15 52.32 67.38 49.39 C 69.93 45.85 73.32 42.75 74.76 38.53 C 75.48 36.40 73.94 34.43 73.32 32.48 C 73.68 32.23 74.39 31.72 74.74 31.47 C 68.32 28.21 61.18 26.71 54.06 25.98 C 47.25 25.41 40.49 26.74 33.68 26.71 Z" />
<path fill="#454f5e" opacity="1.00" d=" M 33.68 26.71 C 40.49 26.74 47.25 25.41 54.06 25.98 C 61.18 26.71 68.32 28.21 74.74 31.47 C 74.39 31.72 73.68 32.23 73.32 32.48 C 70.38 35.28 66.30 35.44 62.61 34.22 C 64.51 33.65 66.39 33.00 68.27 32.33 C 64.48 30.13 60.18 29.10 55.81 29.08 C 57.74 30.81 59.69 32.52 61.79 34.05 C 59.54 34.87 57.31 35.70 55.08 36.54 C 54.21 36.08 53.35 35.62 52.49 35.16 C 52.52 33.26 52.54 31.36 52.54 29.46 C 50.16 32.30 47.99 35.35 46.51 38.77 C 45.30 38.47 44.09 38.18 42.87 37.89 C 42.33 36.46 41.79 35.03 41.25 33.60 C 39.74 32.97 38.23 32.34 36.73 31.70 C 36.95 31.19 37.16 30.67 37.38 30.15 C 34.42 30.66 31.46 31.13 28.49 31.55 C 30.21 29.93 31.95 28.32 33.68 26.71 Z" />
<path fill="#323641" opacity="1.00" d=" M 23.22 29.61 C 26.64 28.42 30.12 27.40 33.68 26.71 C 31.95 28.32 30.21 29.93 28.49 31.55 C 31.46 31.13 34.42 30.66 37.38 30.15 C 37.16 30.67 36.95 31.19 36.73 31.70 C 38.23 32.34 39.74 32.97 41.25 33.60 C 41.79 35.03 42.33 36.46 42.87 37.89 C 44.09 38.18 45.30 38.47 46.51 38.77 C 45.36 41.35 44.26 43.96 43.04 46.51 C 39.94 42.33 38.09 37.45 36.22 32.64 C 36.43 38.51 39.12 43.77 41.93 48.78 C 41.05 50.57 40.17 52.36 39.25 54.13 C 38.74 54.92 38.23 55.70 37.72 56.50 C 38.59 58.78 39.40 61.09 40.38 63.34 C 37.04 59.12 32.87 55.55 30.16 50.85 C 26.48 44.32 23.29 37.24 23.22 29.61 Z" />
<path fill="#afb9b8" opacity="1.00" d=" M 55.81 29.08 C 60.18 29.10 64.48 30.13 68.27 32.33 C 66.39 33.00 64.51 33.65 62.61 34.22 L 61.79 34.05 C 59.69 32.52 57.74 30.81 55.81 29.08 Z" />
<path fill="#ffe09f" opacity="1.00" d=" M 46.51 38.77 C 47.99 35.35 50.16 32.30 52.54 29.46 C 52.54 31.36 52.52 33.26 52.49 35.16 C 52.22 39.56 52.79 44.00 54.61 48.04 C 57.78 43.99 60.57 39.65 63.80 35.64 C 62.43 40.25 59.60 44.18 57.55 48.48 C 56.50 50.46 58.35 52.40 59.01 54.21 C 58.00 53.12 56.95 52.08 55.91 51.04 C 54.38 52.05 52.86 53.08 51.33 54.09 C 51.87 52.23 52.97 50.42 52.85 48.44 C 52.02 45.27 50.36 42.40 49.01 39.44 C 47.52 42.20 45.64 44.87 45.01 47.99 C 45.32 50.10 46.22 52.05 46.92 54.05 C 45.67 52.91 44.43 51.77 43.18 50.63 C 41.86 51.79 40.54 52.94 39.25 54.13 C 40.17 52.36 41.05 50.57 41.93 48.78 C 39.12 43.77 36.43 38.51 36.22 32.64 C 38.09 37.45 39.94 42.33 43.04 46.51 C 44.26 43.96 45.36 41.35 46.51 38.77 Z" />
<path fill="#2d313e" opacity="1.00" d=" M 62.61 34.22 C 66.30 35.44 70.38 35.28 73.32 32.48 C 73.94 34.43 75.48 36.40 74.76 38.53 C 73.32 42.75 69.93 45.85 67.38 49.39 C 65.15 52.32 63.71 55.72 61.97 58.93 C 61.01 57.34 60.03 55.76 59.01 54.21 C 58.35 52.40 56.50 50.46 57.55 48.48 C 59.60 44.18 62.43 40.25 63.80 35.64 C 60.57 39.65 57.78 43.99 54.61 48.04 C 52.79 44.00 52.22 39.56 52.49 35.16 C 53.35 35.62 54.21 36.08 55.08 36.54 C 57.31 35.70 59.54 34.87 61.79 34.05 L 62.61 34.22 Z" />
<path fill="#12111d" opacity="1.00" d=" M 45.01 47.99 C 45.64 44.87 47.52 42.20 49.01 39.44 C 50.36 42.40 52.02 45.27 52.85 48.44 C 52.97 50.42 51.87 52.23 51.33 54.09 C 52.86 53.08 54.38 52.05 55.91 51.04 C 56.95 52.08 58.00 53.12 59.01 54.21 C 60.03 55.76 61.01 57.34 61.97 58.93 C 59.27 63.15 56.02 66.99 52.68 70.70 C 51.50 71.77 50.17 73.51 48.35 72.83 C 44.17 71.38 42.43 66.88 40.38 63.34 C 39.40 61.09 38.59 58.78 37.72 56.50 C 38.23 55.70 38.74 54.92 39.25 54.13 C 40.54 52.94 41.86 51.79 43.18 50.63 C 44.43 51.77 45.67 52.91 46.92 54.05 C 46.22 52.05 45.32 50.10 45.01 47.99 Z" />
</svg>
