<?xml version="1.0" encoding="UTF-8" ?>
<!DOCTYPE svg PUBLIC "-//W3C//DTD SVG 1.1//EN" "http://www.w3.org/Graphics/SVG/1.1/DTD/svg11.dtd">
<svg width="100pt" height="100pt" viewBox="0 0 100 100" version="1.1" xmlns="http://www.w3.org/2000/svg">
<path fill="#06070a" opacity="0.93" d=" M 38.79 25.99 C 45.36 24.48 52.19 24.33 58.85 25.31 C 64.36 26.11 70.25 26.75 74.91 30.06 C 77.13 31.53 78.28 34.57 76.99 37.02 C 71.84 48.02 65.36 58.37 58.20 68.16 C 56.04 70.87 53.61 74.03 49.97 74.60 C 45.89 73.95 43.12 70.43 40.57 67.48 C 34.05 59.13 27.90 50.39 23.02 40.96 C 21.00 37.42 21.39 33.20 23.41 29.77 C 22.92 36.91 26.28 43.44 29.44 49.61 C 31.92 54.49 36.00 58.21 39.57 62.26 C 42.09 66.43 44.34 72.51 49.88 73.05 C 53.36 70.88 55.54 67.25 58.25 64.27 C 63.42 58.45 67.40 51.74 71.27 45.03 C 72.73 42.47 74.49 39.94 75.01 36.98 C 74.66 35.42 73.94 33.97 73.33 32.50 C 73.70 32.26 74.43 31.77 74.80 31.53 C 63.79 25.71 50.94 25.34 38.79 25.99 Z" />
<path fill="#485161" opacity="1.00" d=" M 33.85 26.86 C 35.43 26.27 37.12 26.11 38.79 25.99 C 50.94 25.34 63.79 25.71 74.80 31.53 C 74.43 31.77 73.70 32.26 73.33 32.50 C 69.97 35.43 65.44 34.72 61.35 34.64 C 58.06 34.40 55.24 36.32 52.50 37.86 C 48.98 36.53 47.35 32.97 45.66 29.90 C 45.27 30.92 44.88 31.93 44.48 32.94 C 41.71 32.89 38.94 32.89 36.17 32.86 C 36.62 31.90 37.08 30.95 37.53 30.00 C 34.58 30.59 31.62 31.07 28.63 31.37 C 30.32 29.81 32.02 28.26 33.85 26.86 M 55.86 29.20 C 57.42 30.63 58.90 32.23 60.84 33.15 C 63.25 33.93 65.80 33.03 68.21 32.66 C 64.74 29.79 60.24 29.05 55.86 29.20 Z" />
<path fill="#333744" opacity="1.00" d=" M 23.41 29.77 C 26.62 28.00 30.28 27.42 33.85 26.86 C 32.02 28.26 30.32 29.81 28.63 31.37 C 31.62 31.07 34.58 30.59 37.53 30.00 C 37.08 30.95 36.62 31.90 36.17 32.86 C 38.94 32.89 41.71 32.89 44.48 32.94 C 43.56 35.23 42.62 37.51 41.57 39.73 C 39.18 41.08 37.06 42.82 35.10 44.72 C 35.58 50.78 36.78 56.81 39.57 62.26 C 36.00 58.21 31.92 54.49 29.44 49.61 C 26.28 43.44 22.92 36.91 23.41 29.77 Z" />
<path fill="#afb9b8" opacity="1.00" d=" M 55.86 29.20 C 60.24 29.05 64.74 29.79 68.21 32.66 C 65.80 33.03 63.25 33.93 60.84 33.15 C 58.90 32.23 57.42 30.63 55.86 29.20 Z" />
<path fill="#ffe397" opacity="1.00" d=" M 44.48 32.94 C 44.88 31.93 45.27 30.92 45.66 29.90 C 47.35 32.97 48.98 36.53 52.50 37.86 C 55.53 38.93 58.66 39.76 61.56 41.17 C 56.71 45.10 52.35 49.61 48.40 54.43 C 50.41 54.98 52.43 55.52 54.44 56.05 C 54.78 54.62 55.12 53.19 55.46 51.76 C 56.47 53.50 57.47 55.25 58.46 57.00 C 53.37 56.68 47.98 56.44 43.56 59.45 C 47.09 52.70 52.10 46.96 57.03 41.21 C 55.05 40.87 53.08 40.53 51.09 40.32 C 49.15 38.54 47.20 36.77 45.26 34.99 C 44.73 36.85 44.20 38.70 43.66 40.55 C 43.11 42.38 42.55 44.20 41.98 46.02 C 42.95 47.08 43.92 48.13 44.89 49.19 C 42.29 48.70 39.71 48.15 37.13 47.59 C 38.75 45.05 40.31 42.47 41.57 39.73 C 42.62 37.51 43.56 35.23 44.48 32.94 Z" />
<path fill="#323642" opacity="1.00" d=" M 61.35 34.64 C 65.44 34.72 69.97 35.43 73.33 32.50 C 73.94 33.97 74.66 35.42 75.01 36.98 C 74.49 39.94 72.73 42.47 71.27 45.03 C 66.71 47.63 64.02 52.22 61.14 56.41 C 60.48 55.34 59.83 54.28 59.18 53.22 C 61.57 49.67 63.77 45.40 61.56 41.17 C 58.66 39.76 55.53 38.93 52.50 37.86 C 55.24 36.32 58.06 34.40 61.35 34.64 Z" />
<path fill="#405063" opacity="1.00" d=" M 45.26 34.99 C 47.20 36.77 49.15 38.54 51.09 40.32 C 48.61 40.24 46.13 40.38 43.66 40.55 C 44.20 38.70 44.73 36.85 45.26 34.99 Z" />
<path fill="#151420" opacity="1.00" d=" M 35.10 44.72 C 37.06 42.82 39.18 41.08 41.57 39.73 C 40.31 42.47 38.75 45.05 37.13 47.59 C 39.71 48.15 42.29 48.70 44.89 49.19 C 43.92 48.13 42.95 47.08 41.98 46.02 C 42.55 44.20 43.11 42.38 43.66 40.55 C 46.13 40.38 48.61 40.24 51.09 40.32 C 53.08 40.53 55.05 40.87 57.03 41.21 C 52.10 46.96 47.09 52.70 43.56 59.45 C 47.98 56.44 53.37 56.68 58.46 57.00 C 57.47 55.25 56.47 53.50 55.46 51.76 C 55.12 53.19 54.78 54.62 54.44 56.05 C 52.43 55.52 50.41 54.98 48.40 54.43 C 52.35 49.61 56.71 45.10 61.56 41.17 C 63.77 45.40 61.57 49.67 59.18 53.22 C 59.83 54.28 60.48 55.34 61.14 56.41 C 64.02 52.22 66.71 47.63 71.27 45.03 C 67.40 51.74 63.42 58.45 58.25 64.27 C 55.54 67.25 53.36 70.88 49.88 73.05 C 44.34 72.51 42.09 66.43 39.57 62.26 C 36.78 56.81 35.58 50.78 35.10 44.72 Z" />
</svg>
