<?xml version="1.0" encoding="UTF-8" ?>
<!DOCTYPE svg PUBLIC "-//W3C//DTD SVG 1.1//EN" "http://www.w3.org/Graphics/SVG/1.1/DTD/svg11.dtd">
<svg width="100pt" height="100pt" viewBox="0 0 100 100" version="1.1" xmlns="http://www.w3.org/2000/svg">
<path fill="#06070a" opacity="0.92" d=" M 36.88 26.16 C 44.37 24.48 52.14 24.24 59.72 25.41 C 64.94 26.20 70.51 26.89 74.92 30.05 C 77.14 31.53 78.26 34.57 76.98 37.03 C 71.90 48.06 65.37 58.38 58.20 68.17 C 56.03 70.86 53.62 74.07 49.97 74.60 C 46.36 74.12 43.77 71.12 41.46 68.57 C 35.54 61.33 30.26 53.58 25.47 45.55 C 23.90 42.81 22.25 40.01 21.69 36.86 C 21.45 34.35 22.49 31.96 23.14 29.59 C 23.67 42.24 30.73 53.59 39.54 62.28 C 41.85 66.20 43.85 71.03 48.34 72.88 C 49.94 73.64 51.15 72.16 52.24 71.23 C 59.72 63.39 66.08 54.54 71.22 45.01 C 72.88 42.14 74.32 39.15 75.68 36.13 C 74.52 35.16 73.37 34.19 72.22 33.22 C 72.87 32.81 74.17 31.99 74.82 31.57 C 63.25 25.33 49.66 25.33 36.88 26.16 Z" />
<path fill="#474f5e" opacity="1.00" d=" M 33.84 26.80 C 34.82 26.43 35.84 26.22 36.88 26.16 C 49.66 25.33 63.25 25.33 74.82 31.57 C 74.17 31.99 72.87 32.81 72.22 33.22 C 66.97 36.39 60.38 35.07 55.13 32.55 C 52.55 31.11 49.60 31.27 46.80 31.84 C 48.43 34.16 50.42 36.26 53.00 37.52 C 49.79 38.40 46.16 39.82 42.95 38.31 C 41.87 36.94 41.66 35.13 40.88 33.60 C 39.21 33.15 37.54 32.69 35.85 32.28 C 36.47 31.54 37.10 30.80 37.72 30.07 C 34.63 30.62 31.52 31.11 28.40 31.49 C 30.19 29.89 31.95 28.27 33.84 26.80 M 55.82 29.19 C 57.40 30.61 58.90 32.19 60.84 33.13 C 63.27 33.91 65.82 33.02 68.25 32.68 C 64.73 29.84 60.24 29.03 55.82 29.19 Z" />
<path fill="#323642" opacity="1.00" d=" M 23.14 29.59 C 26.63 28.39 30.20 27.42 33.84 26.80 C 31.95 28.27 30.19 29.89 28.40 31.49 C 31.52 31.11 34.63 30.62 37.72 30.07 C 37.10 30.80 36.47 31.54 35.85 32.28 C 37.54 32.69 39.21 33.15 40.88 33.60 C 41.66 35.13 41.87 36.94 42.95 38.31 C 46.16 39.82 49.79 38.40 53.00 37.52 C 53.40 37.38 54.22 37.11 54.62 36.97 C 54.82 35.50 54.99 34.03 55.13 32.55 C 60.38 35.07 66.97 36.39 72.22 33.22 C 73.37 34.19 74.52 35.16 75.68 36.13 C 74.32 39.15 72.88 42.14 71.22 45.01 C 66.73 47.80 63.58 52.09 60.66 56.39 C 60.57 55.16 60.47 53.93 60.37 52.69 C 59.93 49.10 59.98 44.67 56.64 42.38 C 53.07 39.65 48.35 40.82 44.27 41.30 C 41.43 41.83 38.36 42.07 35.93 43.76 C 34.49 50.15 37.12 56.48 39.54 62.28 C 30.73 53.59 23.67 42.24 23.14 29.59 Z" />
<path fill="#afb9b8" opacity="1.00" d=" M 55.82 29.19 C 60.24 29.03 64.73 29.84 68.25 32.68 C 65.82 33.02 63.27 33.91 60.84 33.13 C 58.90 32.19 57.40 30.61 55.82 29.19 Z" />
<path fill="#fde4b4" opacity="1.00" d=" M 46.80 31.84 C 49.60 31.27 52.55 31.11 55.13 32.55 C 54.99 34.03 54.82 35.50 54.62 36.97 C 54.22 37.11 53.40 37.38 53.00 37.52 C 50.42 36.26 48.43 34.16 46.80 31.84 Z" />
<path fill="#12101d" opacity="1.00" d=" M 35.93 43.76 C 38.36 42.07 41.43 41.83 44.27 41.30 C 42.17 44.45 38.59 47.56 39.20 51.70 C 41.07 56.63 46.91 59.08 51.91 58.89 C 55.77 58.79 58.04 55.25 60.37 52.69 C 60.47 53.93 60.57 55.16 60.66 56.39 C 63.58 52.09 66.73 47.80 71.22 45.01 C 66.08 54.54 59.72 63.39 52.24 71.23 C 51.15 72.16 49.94 73.64 48.34 72.88 C 43.85 71.03 41.85 66.20 39.54 62.28 C 37.12 56.48 34.49 50.15 35.93 43.76 Z" />
<path fill="#ffe89c" opacity="1.00" d=" M 44.27 41.30 C 48.35 40.82 53.07 39.65 56.64 42.38 C 59.98 44.67 59.93 49.10 60.37 52.69 C 58.04 55.25 55.77 58.79 51.91 58.89 C 46.91 59.08 41.07 56.63 39.20 51.70 C 38.59 47.56 42.17 44.45 44.27 41.30 M 47.39 43.32 C 44.93 44.51 43.46 47.07 42.60 49.55 C 41.70 51.42 43.71 52.93 44.96 54.00 C 47.37 55.66 50.71 57.22 53.53 55.64 C 56.19 54.12 58.10 51.15 58.26 48.09 C 56.74 43.92 51.55 41.17 47.39 43.32 Z" />
<path fill="#12111c" opacity="1.00" d=" M 47.39 43.32 C 51.55 41.17 56.74 43.92 58.26 48.09 C 58.10 51.15 56.19 54.12 53.53 55.64 C 50.71 57.22 47.37 55.66 44.96 54.00 C 43.71 52.93 41.70 51.42 42.60 49.55 C 43.46 47.07 44.93 44.51 47.39 43.32 Z" />
</svg>
