<?xml version="1.0" encoding="UTF-8" ?>
<!DOCTYPE svg PUBLIC "-//W3C//DTD SVG 1.1//EN" "http://www.w3.org/Graphics/SVG/1.1/DTD/svg11.dtd">
<svg width="100pt" height="100pt" viewBox="0 0 100 100" version="1.1" xmlns="http://www.w3.org/2000/svg">
<path fill="#0a0233" opacity="0.68" d=" M 48.37 0.00 L 50.49 0.00 C 56.83 4.32 63.52 8.16 69.40 13.13 L 68.53 12.95 C 61.71 9.67 56.24 4.00 49.00 1.53 C 48.56 1.76 47.68 2.22 47.23 2.45 C 45.49 3.41 43.80 4.45 42.17 5.60 C 40.30 6.88 38.42 8.15 36.50 9.37 C 29.02 13.67 21.88 18.52 14.42 22.86 C 13.45 33.55 14.05 44.30 14.02 55.01 C 14.31 62.33 13.11 69.78 14.83 76.99 C 22.11 82.11 29.93 86.47 37.58 91.04 C 41.19 93.52 44.77 96.11 48.74 98.00 C 54.56 96.37 59.25 92.43 64.31 89.32 C 67.42 87.33 70.72 85.65 73.99 83.93 C 66.50 90.13 57.78 94.53 49.77 100.00 L 48.46 100.00 C 37.05 92.01 25.00 84.97 13.12 77.70 C 12.91 59.24 12.88 40.78 13.14 22.33 C 25.03 15.11 36.74 7.62 48.37 0.00 Z" />
<path fill="#bec4b3" opacity="0.89" d=" M 49.00 1.53 C 56.24 4.00 61.71 9.67 68.53 12.95 C 66.73 12.62 64.94 12.30 63.16 11.88 C 59.86 11.06 56.59 10.10 53.23 9.57 C 49.87 9.28 49.63 5.16 49.04 2.61 L 49.00 1.53 Z" />
<path fill="#3c4875" opacity="0.87" d=" M 47.23 2.45 C 47.68 2.22 48.56 1.76 49.00 1.53 L 49.04 2.61 C 49.05 5.06 48.91 7.51 48.82 9.96 C 46.99 10.97 45.16 11.98 43.34 13.02 C 44.85 9.58 46.24 6.08 47.23 2.45 Z" />
<path fill="#737a8d" opacity="0.87" d=" M 42.17 5.60 C 43.80 4.45 45.49 3.41 47.23 2.45 C 46.24 6.08 44.85 9.58 43.34 13.02 C 45.16 11.98 46.99 10.97 48.82 9.96 C 50.95 13.31 53.81 16.16 57.31 18.06 C 54.52 17.58 51.73 17.08 48.94 16.60 C 47.00 17.53 45.06 18.49 43.13 19.45 C 41.71 19.69 40.28 19.83 38.84 19.99 C 40.55 18.04 42.31 16.14 44.07 14.24 C 41.34 14.99 38.60 15.71 35.96 16.72 C 37.98 12.99 39.88 9.18 42.17 5.60 Z" />
<path fill="#92a0a0" opacity="0.88" d=" M 49.04 2.61 C 49.63 5.16 49.87 9.28 53.23 9.57 C 56.59 10.10 59.86 11.06 63.16 11.88 C 63.01 14.01 62.84 16.15 62.68 18.29 C 58.06 15.51 53.72 12.26 48.82 9.96 C 48.91 7.51 49.05 5.06 49.04 2.61 Z" />
<path fill="#cdccb9" opacity="0.91" d=" M 36.50 9.37 C 38.42 8.15 40.30 6.88 42.17 5.60 C 39.88 9.18 37.98 12.99 35.96 16.72 C 31.03 18.79 26.28 21.25 21.76 24.11 C 21.41 23.25 21.07 22.39 20.74 21.52 C 26.18 17.81 33.67 15.89 36.50 9.37 Z" />
<path fill="#dcdcc8" opacity="0.94" d=" M 14.42 22.86 C 21.88 18.52 29.02 13.67 36.50 9.37 C 33.67 15.89 26.18 17.81 20.74 21.52 C 19.17 22.43 17.61 23.35 16.04 24.25 C 15.56 33.28 15.78 42.31 16.38 51.32 C 15.56 58.67 16.26 66.05 16.45 73.41 L 15.93 74.11 L 15.41 74.80 C 15.14 57.48 15.02 40.17 14.42 22.86 Z" />
<path fill="#c3cdd1" opacity="0.98" d=" M 48.82 9.96 C 53.72 12.26 58.06 15.51 62.68 18.29 C 63.73 18.81 64.80 19.30 65.90 19.72 C 65.28 20.52 64.66 21.31 64.05 22.10 C 61.81 20.74 59.55 19.42 57.31 18.06 C 53.81 16.16 50.95 13.31 48.82 9.96 Z" />
<path fill="#767bb0" opacity="0.82" d=" M 63.16 11.88 C 64.94 12.30 66.73 12.62 68.53 12.95 L 69.40 13.13 C 72.22 15.59 75.27 17.82 77.82 20.58 C 75.80 19.61 73.67 18.91 71.55 18.23 C 71.60 19.01 71.64 19.80 71.69 20.59 C 69.76 20.33 67.81 20.11 65.90 19.72 C 64.80 19.30 63.73 18.81 62.68 18.29 C 62.84 16.15 63.01 14.01 63.16 11.88 Z" />
<path fill="#393b91" opacity="1.00" d=" M 69.40 13.13 C 74.69 16.33 80.85 18.53 85.04 23.26 C 85.77 26.45 85.50 29.75 85.52 33.00 C 85.35 46.02 85.47 59.05 85.51 72.07 C 85.30 74.06 85.74 76.55 84.03 78.01 C 81.13 80.66 77.39 82.07 73.99 83.93 C 76.49 81.93 78.76 79.67 81.30 77.72 C 82.26 77.39 83.23 77.08 84.21 76.80 C 84.21 73.73 84.20 70.67 84.07 67.60 C 83.90 65.35 82.86 63.29 82.00 61.25 C 82.80 56.20 83.30 51.10 83.25 45.98 C 83.14 39.03 83.36 32.09 83.80 25.15 C 82.65 24.91 81.46 24.79 80.36 24.37 C 79.25 23.30 78.71 21.81 77.82 20.58 C 75.27 17.82 72.22 15.59 69.40 13.13 Z" />
<path fill="#acbaae" opacity="0.90" d=" M 35.96 16.72 C 38.60 15.71 41.34 14.99 44.07 14.24 C 42.31 16.14 40.55 18.04 38.84 19.99 C 40.28 19.83 41.71 19.69 43.13 19.45 C 41.25 20.59 39.44 21.84 37.62 23.07 C 35.70 24.37 33.74 25.60 31.66 26.63 C 30.02 27.28 28.33 27.80 26.64 28.33 C 30.57 24.97 34.18 21.26 38.15 17.94 C 31.65 20.90 24.90 23.99 20.53 29.90 C 20.01 28.91 19.49 27.93 18.98 26.94 C 16.93 34.96 18.81 43.37 16.38 51.32 C 15.78 42.31 15.56 33.28 16.04 24.25 C 17.61 23.35 19.17 22.43 20.74 21.52 C 21.07 22.39 21.41 23.25 21.76 24.11 C 26.28 21.25 31.03 18.79 35.96 16.72 Z" />
<path fill="#565b73" opacity="0.87" d=" M 43.13 19.45 C 45.06 18.49 47.00 17.53 48.94 16.60 C 51.73 17.08 54.52 17.58 57.31 18.06 C 59.55 19.42 61.81 20.74 64.05 22.10 C 68.70 24.71 72.87 28.07 76.70 31.78 C 75.16 32.84 73.62 33.89 72.07 34.94 C 70.86 35.50 69.65 36.03 68.43 36.55 C 66.31 34.39 64.19 32.24 62.00 30.16 L 61.91 31.12 C 61.86 31.57 61.75 32.48 61.70 32.94 C 61.16 32.58 60.07 31.86 59.53 31.49 C 56.97 29.79 54.41 28.07 51.81 26.41 C 47.45 24.14 42.41 23.78 37.62 23.07 C 39.44 21.84 41.25 20.59 43.13 19.45 Z" />
<path fill="#ccdddf" opacity="1.00" d=" M 20.53 29.90 C 24.90 23.99 31.65 20.90 38.15 17.94 C 34.18 21.26 30.57 24.97 26.64 28.33 C 24.63 28.97 22.57 29.41 20.53 29.90 Z" />
<path fill="#353f8b" opacity="0.80" d=" M 71.55 18.23 C 73.67 18.91 75.80 19.61 77.82 20.58 C 78.71 21.81 79.25 23.30 80.36 24.37 C 81.46 24.79 82.65 24.91 83.80 25.15 C 83.36 32.09 83.14 39.03 83.25 45.98 C 82.68 45.96 81.53 45.91 80.96 45.89 C 81.16 43.24 81.27 40.58 81.38 37.92 C 80.19 38.89 79.00 39.86 77.80 40.83 C 77.06 36.19 77.51 31.34 80.43 27.50 C 74.64 27.15 70.43 22.80 65.90 19.72 C 67.81 20.11 69.76 20.33 71.69 20.59 C 71.64 19.80 71.60 19.01 71.55 18.23 Z" />
<path fill="#777dcd" opacity="1.00" d=" M 65.90 19.72 C 70.43 22.80 74.64 27.15 80.43 27.50 C 77.51 31.34 77.06 36.19 77.80 40.83 C 78.94 48.23 78.88 55.72 78.42 63.18 C 78.59 56.24 78.58 49.27 77.63 42.37 C 76.88 47.62 76.18 52.89 76.22 58.21 C 76.25 54.71 76.06 51.22 76.06 47.72 C 76.17 43.33 76.14 38.93 76.01 34.53 C 72.98 37.31 69.49 39.94 67.85 43.84 C 67.06 46.71 68.14 49.68 68.93 52.43 C 67.41 49.90 63.63 47.68 65.07 44.33 C 66.47 40.62 69.31 37.69 72.07 34.94 C 73.62 33.89 75.16 32.84 76.70 31.78 C 72.87 28.07 68.70 24.71 64.05 22.10 C 64.66 21.31 65.28 20.52 65.90 19.72 Z" />
<path fill="#c4b495" opacity="1.00" d=" M 14.02 55.01 C 14.05 44.30 13.45 33.55 14.42 22.86 C 15.02 40.17 15.14 57.48 15.41 74.80 L 15.19 75.60 C 15.10 75.95 14.92 76.64 14.83 76.99 C 13.11 69.78 14.31 62.33 14.02 55.01 Z" />
<path fill="#63706e" opacity="0.84" d=" M 31.66 26.63 C 33.74 25.60 35.70 24.37 37.62 23.07 C 42.41 23.78 47.45 24.14 51.81 26.41 C 52.58 27.76 53.36 29.11 53.88 30.58 C 51.22 30.13 48.63 29.37 46.00 28.80 C 43.99 28.83 41.93 28.98 40.06 29.78 C 36.30 31.33 33.55 34.40 31.27 37.66 C 29.52 36.72 27.76 35.79 26.07 34.74 C 25.62 34.31 24.72 33.45 24.28 33.01 C 26.68 32.11 29.08 31.21 31.49 30.33 C 31.55 29.09 31.61 27.86 31.66 26.63 Z" />
<path fill="#577da5" opacity="0.84" d=" M 16.38 51.32 C 18.81 43.37 16.93 34.96 18.98 26.94 C 19.49 27.93 20.01 28.91 20.53 29.90 C 22.57 29.41 24.63 28.97 26.64 28.33 C 28.33 27.80 30.02 27.28 31.66 26.63 C 31.61 27.86 31.55 29.09 31.49 30.33 C 29.08 31.21 26.68 32.11 24.28 33.01 C 24.72 33.45 25.62 34.31 26.07 34.74 C 28.93 38.08 32.58 41.41 33.30 45.94 C 32.45 49.37 29.49 51.79 27.11 54.24 C 26.70 54.57 25.88 55.23 25.47 55.56 C 27.97 55.28 30.47 55.00 32.95 54.61 C 31.46 57.47 30.21 60.54 28.02 62.96 C 26.25 64.63 23.76 65.12 21.58 66.02 C 21.72 58.93 20.89 51.87 19.54 44.92 C 18.63 50.53 17.72 56.20 18.24 61.91 C 18.37 65.77 19.40 70.27 16.45 73.41 C 16.26 66.05 15.56 58.67 16.38 51.32 M 22.86 34.64 C 21.71 42.05 21.94 49.54 22.32 56.99 C 24.97 53.19 28.83 50.43 31.49 46.67 C 31.62 41.31 26.59 37.73 22.86 34.64 Z" />
<path fill="#95a6b2" opacity="0.93" d=" M 53.88 30.58 C 53.36 29.11 52.58 27.76 51.81 26.41 C 54.41 28.07 56.97 29.79 59.53 31.49 C 57.66 31.13 55.76 30.90 53.88 30.58 Z" />
<path fill="#cdccb9" opacity="0.91" d=" M 40.06 29.78 C 41.93 28.98 43.99 28.83 46.00 28.80 C 41.45 31.52 37.42 35.14 35.33 40.12 C 32.76 35.98 37.77 32.68 40.06 29.78 Z" />
<path fill="#707d87" opacity="0.85" d=" M 46.00 28.80 C 48.63 29.37 51.22 30.13 53.88 30.58 C 55.76 30.90 57.66 31.13 59.53 31.49 C 60.07 31.86 61.16 32.58 61.70 32.94 C 62.50 34.55 63.50 36.11 63.90 37.88 C 62.17 41.20 58.81 43.21 56.06 45.60 C 55.35 41.13 54.92 36.62 54.57 32.10 C 54.09 32.03 53.13 31.88 52.65 31.80 C 52.64 32.33 52.61 33.38 52.60 33.91 C 52.24 37.29 51.64 40.64 51.33 44.02 C 48.15 40.94 47.17 36.52 46.15 32.38 C 46.10 32.91 46.01 33.97 45.97 34.49 C 45.34 38.32 44.81 42.18 44.95 46.07 C 43.05 43.83 40.33 42.63 37.74 41.41 C 36.93 40.99 36.12 40.56 35.33 40.12 C 37.42 35.14 41.45 31.52 46.00 28.80 Z" />
<path fill="#0a0233" opacity="0.68" d=" M 31.27 37.66 C 33.55 34.40 36.30 31.33 40.06 29.78 C 37.77 32.68 32.76 35.98 35.33 40.12 C 36.12 40.56 36.93 40.99 37.74 41.41 C 40.24 43.55 42.55 45.92 45.01 48.11 C 44.99 47.60 44.96 46.58 44.95 46.07 C 44.81 42.18 45.34 38.32 45.97 34.49 C 46.39 40.01 46.64 45.54 46.91 51.06 C 47.32 51.80 48.14 53.27 48.55 54.01 C 49.52 52.52 50.87 51.22 51.50 49.53 C 51.75 47.70 51.40 45.86 51.33 44.02 C 51.64 40.64 52.24 37.29 52.60 33.91 C 52.85 38.58 53.08 43.25 53.20 47.93 C 54.15 47.15 55.11 46.38 56.06 45.60 C 58.81 43.21 62.17 41.20 63.90 37.88 C 63.50 36.11 62.50 34.55 61.70 32.94 C 61.75 32.48 61.86 31.57 61.91 31.12 C 63.37 33.23 64.90 35.30 66.35 37.42 C 67.04 37.13 67.73 36.83 68.43 36.55 C 69.65 36.03 70.86 35.50 72.07 34.94 C 69.31 37.69 66.47 40.62 65.07 44.33 C 63.63 47.68 67.41 49.90 68.93 52.43 C 69.05 52.61 69.29 52.97 69.41 53.15 C 67.85 52.42 66.29 51.70 64.74 50.96 C 64.38 53.05 63.98 55.13 63.56 57.20 C 63.08 53.99 62.61 50.77 62.15 47.55 C 62.06 46.86 61.86 45.49 61.76 44.80 C 58.50 47.68 53.05 49.86 53.17 54.94 C 53.05 60.81 53.28 66.72 52.19 72.52 C 51.70 67.45 52.36 62.04 49.79 57.40 C 49.59 56.94 49.20 56.00 49.00 55.53 C 46.02 60.70 45.89 66.76 45.58 72.55 C 45.03 67.96 44.83 63.33 44.95 58.71 C 45.02 56.85 45.07 54.99 45.06 53.13 C 42.82 49.70 39.58 47.14 36.27 44.81 C 35.62 49.65 34.70 54.46 33.71 59.24 C 33.63 57.42 33.46 55.60 33.36 53.78 C 33.34 53.07 33.30 51.66 33.28 50.96 C 31.21 52.03 29.13 53.07 27.11 54.24 C 29.49 51.79 32.45 49.37 33.30 45.94 C 32.58 41.41 28.93 38.08 26.07 34.74 C 27.76 35.79 29.52 36.72 31.27 37.66 M 46.11 54.22 C 44.75 55.12 46.24 57.44 47.58 56.38 C 48.96 55.49 47.44 53.17 46.11 54.22 M 50.51 54.15 C 50.01 55.54 50.46 56.04 51.88 55.64 C 52.38 54.24 51.92 53.75 50.51 54.15 Z" />
<path fill="#acbaae" opacity="0.90" d=" M 62.00 30.16 C 64.19 32.24 66.31 34.39 68.43 36.55 C 67.73 36.83 67.04 37.13 66.35 37.42 C 64.90 35.30 63.37 33.23 61.91 31.12 L 62.00 30.16 Z" />
<path fill="#97a4b0" opacity="0.95" d=" M 52.65 31.80 C 53.13 31.88 54.09 32.03 54.57 32.10 C 54.92 36.62 55.35 41.13 56.06 45.60 C 55.11 46.38 54.15 47.15 53.20 47.93 C 53.08 43.25 52.85 38.58 52.60 33.91 C 52.61 33.38 52.64 32.33 52.65 31.80 Z" />
<path fill="#cdccb9" opacity="0.91" d=" M 46.15 32.38 C 47.17 36.52 48.15 40.94 51.33 44.02 C 49.30 45.98 47.84 48.41 46.91 51.06 C 46.64 45.54 46.39 40.01 45.97 34.49 C 46.01 33.97 46.10 32.91 46.15 32.38 Z" />
<path fill="#586c73" opacity="0.78" d=" M 22.86 34.64 C 26.59 37.73 31.62 41.31 31.49 46.67 C 28.83 50.43 24.97 53.19 22.32 56.99 C 21.94 49.54 21.71 42.05 22.86 34.64 Z" />
<path fill="#4355aa" opacity="0.87" d=" M 67.85 43.84 C 69.49 39.94 72.98 37.31 76.01 34.53 C 76.14 38.93 76.17 43.33 76.06 47.72 C 75.35 53.43 73.99 59.38 69.91 63.69 C 67.91 60.99 66.69 57.80 67.81 54.46 C 69.97 54.70 72.12 55.00 74.27 55.36 C 72.65 54.61 71.02 53.90 69.41 53.15 C 69.29 52.97 69.05 52.61 68.93 52.43 C 68.14 49.68 67.06 46.71 67.85 43.84 Z" />
<path fill="#4e58a0" opacity="0.80" d=" M 77.80 40.83 C 79.00 39.86 80.19 38.89 81.38 37.92 C 81.27 40.58 81.16 43.24 80.96 45.89 C 80.61 51.02 79.15 56.53 82.00 61.25 C 82.86 63.29 83.90 65.35 84.07 67.60 C 83.63 70.00 83.05 72.37 82.44 74.73 C 79.22 74.92 75.85 75.23 73.14 77.17 C 69.63 79.60 65.66 81.16 61.61 82.42 C 63.05 81.10 64.40 79.68 65.82 78.33 C 69.71 76.66 73.83 75.05 76.88 72.00 C 78.53 69.43 78.14 66.11 78.42 63.18 C 78.88 55.72 78.94 48.23 77.80 40.83 Z" />
<path fill="#9cb0c1" opacity="0.95" d=" M 37.74 41.41 C 40.33 42.63 43.05 43.83 44.95 46.07 C 44.96 46.58 44.99 47.60 45.01 48.11 C 42.55 45.92 40.24 43.55 37.74 41.41 Z" />
<path fill="#cdccb9" opacity="0.91" d=" M 76.22 58.21 C 76.18 52.89 76.88 47.62 77.63 42.37 C 78.58 49.27 78.59 56.24 78.42 63.18 C 78.14 66.11 78.53 69.43 76.88 72.00 C 73.83 75.05 69.71 76.66 65.82 78.33 C 65.35 78.45 64.41 78.67 63.94 78.78 C 66.72 77.11 69.40 75.29 72.07 73.46 C 76.60 71.25 75.74 65.96 76.06 61.78 C 76.13 60.59 76.19 59.40 76.22 58.21 Z" />
<path fill="#656f94" opacity="0.95" d=" M 51.33 44.02 C 51.40 45.86 51.75 47.70 51.50 49.53 C 50.87 51.22 49.52 52.52 48.55 54.01 C 48.14 53.27 47.32 51.80 46.91 51.06 C 47.84 48.41 49.30 45.98 51.33 44.02 Z" />
<path fill="#2c4365" opacity="0.66" d=" M 18.24 61.91 C 17.72 56.20 18.63 50.53 19.54 44.92 C 20.89 51.87 21.72 58.93 21.58 66.02 C 21.30 67.69 20.82 69.31 20.20 70.88 C 18.75 71.93 17.23 72.88 15.93 74.11 L 16.45 73.41 C 19.40 70.27 18.37 65.77 18.24 61.91 Z" />
<path fill="#a6baca" opacity="0.97" d=" M 36.27 44.81 C 39.58 47.14 42.82 49.70 45.06 53.13 C 42.70 51.37 40.25 49.66 37.57 48.42 C 36.74 52.10 36.34 55.91 36.79 59.67 C 35.68 60.60 34.57 61.54 33.46 62.48 C 33.54 61.40 33.63 60.32 33.71 59.24 C 34.70 54.46 35.62 49.65 36.27 44.81 Z" />
<path fill="#9fb3c3" opacity="0.98" d=" M 53.17 54.94 C 53.05 49.86 58.50 47.68 61.76 44.80 C 61.86 45.49 62.06 46.86 62.15 47.55 C 59.46 49.58 55.34 51.16 55.03 55.02 C 54.52 60.73 55.26 66.45 55.43 72.16 C 54.82 73.12 54.21 74.08 53.59 75.04 C 53.12 74.20 52.65 73.36 52.19 72.52 C 53.28 66.72 53.05 60.81 53.17 54.94 Z" />
<path fill="#0825d0" opacity="0.82" d=" M 80.96 45.89 C 81.53 45.91 82.68 45.96 83.25 45.98 C 83.30 51.10 82.80 56.20 82.00 61.25 C 79.15 56.53 80.61 51.02 80.96 45.89 Z" />
<path fill="#6380ab" opacity="0.96" d=" M 37.57 48.42 C 40.25 49.66 42.70 51.37 45.06 53.13 C 45.07 54.99 45.02 56.85 44.95 58.71 C 44.53 62.26 44.09 66.03 42.01 69.04 C 39.82 71.78 36.65 73.48 33.69 75.25 C 33.37 72.55 34.26 70.03 36.06 68.03 C 38.32 65.71 37.07 62.45 36.79 59.67 C 36.34 55.91 36.74 52.10 37.57 48.42 Z" />
<path fill="#5a7ba6" opacity="0.95" d=" M 55.03 55.02 C 55.34 51.16 59.46 49.58 62.15 47.55 C 62.61 50.77 63.08 53.99 63.56 57.20 C 63.98 55.13 64.38 53.05 64.74 50.96 C 64.54 54.91 64.71 58.86 64.99 62.80 C 65.42 59.95 66.32 57.19 66.61 54.31 C 66.91 54.35 67.51 54.42 67.81 54.46 C 66.69 57.80 67.91 60.99 69.91 63.69 C 69.50 64.10 68.69 64.93 68.28 65.34 C 67.72 65.87 67.13 66.38 66.54 66.88 C 64.38 68.62 62.18 70.33 60.19 72.27 C 58.61 72.23 57.02 72.19 55.43 72.16 C 55.26 66.45 54.52 60.73 55.03 55.02 Z" />
<path fill="#0b2990" opacity="0.87" d=" M 69.91 63.69 C 73.99 59.38 75.35 53.43 76.06 47.72 C 76.06 51.22 76.25 54.71 76.22 58.21 C 76.19 59.40 76.13 60.59 76.06 61.78 C 75.54 63.55 74.85 65.27 74.27 67.02 C 72.37 66.13 70.38 65.51 68.28 65.34 C 68.69 64.93 69.50 64.10 69.91 63.69 Z" />
<path fill="#b4c4d0" opacity="0.93" d=" M 27.11 54.24 C 29.13 53.07 31.21 52.03 33.28 50.96 C 33.30 51.66 33.34 53.07 33.36 53.78 L 32.95 54.61 C 30.47 55.00 27.97 55.28 25.47 55.56 C 25.88 55.23 26.70 54.57 27.11 54.24 Z" />
<path fill="#a1b0d0" opacity="0.98" d=" M 64.74 50.96 C 66.29 51.70 67.85 52.42 69.41 53.15 C 71.02 53.90 72.65 54.61 74.27 55.36 C 72.12 55.00 69.97 54.70 67.81 54.46 C 67.51 54.42 66.91 54.35 66.61 54.31 C 66.32 57.19 65.42 59.95 64.99 62.80 C 64.71 58.86 64.54 54.91 64.74 50.96 Z" />
<path fill="#639dbc" opacity="0.87" d=" M 32.95 54.61 L 33.36 53.78 C 33.46 55.60 33.63 57.42 33.71 59.24 C 33.63 60.32 33.54 61.40 33.46 62.48 C 34.57 61.54 35.68 60.60 36.79 59.67 C 37.07 62.45 38.32 65.71 36.06 68.03 C 34.26 70.03 33.37 72.55 33.69 75.25 C 36.65 73.48 39.82 71.78 42.01 69.04 C 44.09 66.03 44.53 62.26 44.95 58.71 C 44.83 63.33 45.03 67.96 45.58 72.55 C 45.62 73.16 45.71 74.38 45.75 74.99 C 48.98 69.74 48.26 63.22 49.79 57.40 C 52.36 62.04 51.70 67.45 52.19 72.52 C 47.91 74.46 43.55 76.37 38.91 77.23 C 37.53 76.82 36.14 76.42 34.76 76.02 C 38.94 79.11 43.22 82.09 47.23 85.40 C 47.87 85.89 48.51 86.38 49.16 86.87 C 49.13 87.75 49.06 89.52 49.03 90.40 C 44.52 85.71 38.47 83.13 33.11 79.62 L 32.65 78.77 C 33.21 78.91 34.34 79.19 34.90 79.33 C 30.67 75.52 26.08 71.58 20.20 70.88 C 20.82 69.31 21.30 67.69 21.58 66.02 C 23.76 65.12 26.25 64.63 28.02 62.96 C 30.21 60.54 31.46 57.47 32.95 54.61 Z" />
<path fill="#91a6bc" opacity="1.00" d=" M 46.11 54.22 C 47.44 53.17 48.96 55.49 47.58 56.38 C 46.24 57.44 44.75 55.12 46.11 54.22 Z" />
<path fill="#9cb5c9" opacity="1.00" d=" M 50.51 54.15 C 51.92 53.75 52.38 54.24 51.88 55.64 C 50.46 56.04 50.01 55.54 50.51 54.15 Z" />
<path fill="#a2b6c6" opacity="0.98" d=" M 45.58 72.55 C 45.89 66.76 46.02 60.70 49.00 55.53 C 49.20 56.00 49.59 56.94 49.79 57.40 C 48.26 63.22 48.98 69.74 45.75 74.99 C 45.71 74.38 45.62 73.16 45.58 72.55 Z" />
<path fill="#374c82" opacity="0.87" d=" M 74.27 67.02 C 74.85 65.27 75.54 63.55 76.06 61.78 C 75.74 65.96 76.60 71.25 72.07 73.46 C 71.79 72.56 71.54 71.64 71.33 70.71 C 68.56 72.08 65.82 73.54 63.21 75.20 C 64.51 72.50 65.51 69.68 66.54 66.88 C 67.13 66.38 67.72 65.87 68.28 65.34 C 70.38 65.51 72.37 66.13 74.27 67.02 Z" />
<path fill="#5f7863" opacity="0.87" d=" M 66.54 66.88 C 65.51 69.68 64.51 72.50 63.21 75.20 C 60.29 77.11 57.19 78.72 54.09 80.33 C 55.94 77.51 57.86 74.72 60.19 72.27 C 62.18 70.33 64.38 68.62 66.54 66.88 Z" />
<path fill="#7c83a8" opacity="0.93" d=" M 82.44 74.73 C 83.05 72.37 83.63 70.00 84.07 67.60 C 84.20 70.67 84.21 73.73 84.21 76.80 C 83.23 77.08 82.26 77.39 81.30 77.72 C 74.09 79.93 68.26 84.84 61.72 88.37 C 62.43 86.92 63.03 85.43 63.64 83.95 C 58.73 86.63 53.89 89.46 48.98 92.16 L 49.01 91.26 L 49.03 90.40 C 52.80 87.12 57.14 84.60 61.61 82.42 C 65.66 81.16 69.63 79.60 73.14 77.17 C 75.85 75.23 79.22 74.92 82.44 74.73 Z" />
<path fill="#a3c8c9" opacity="0.98" d=" M 20.20 70.88 C 26.08 71.58 30.67 75.52 34.90 79.33 C 34.34 79.19 33.21 78.91 32.65 78.77 C 28.80 76.84 25.04 74.73 21.42 72.40 C 21.11 72.02 20.50 71.26 20.20 70.88 Z" />
<path fill="#8ea29a" opacity="0.82" d=" M 15.93 74.11 C 17.23 72.88 18.75 71.93 20.20 70.88 C 20.50 71.26 21.11 72.02 21.42 72.40 C 23.81 75.43 25.72 78.80 27.34 82.29 C 23.30 80.04 19.26 77.79 15.19 75.60 L 15.41 74.80 L 15.93 74.11 Z" />
<path fill="#859d8a" opacity="0.93" d=" M 63.21 75.20 C 65.82 73.54 68.56 72.08 71.33 70.71 C 71.54 71.64 71.79 72.56 72.07 73.46 C 69.40 75.29 66.72 77.11 63.94 78.78 C 63.00 79.04 62.06 79.31 61.13 79.60 C 57.22 80.71 53.75 82.86 50.07 84.51 C 46.41 81.99 42.90 79.21 38.91 77.23 C 43.55 76.37 47.91 74.46 52.19 72.52 C 52.65 73.36 53.12 74.20 53.59 75.04 C 54.21 74.08 54.82 73.12 55.43 72.16 C 57.02 72.19 58.61 72.23 60.19 72.27 C 57.86 74.72 55.94 77.51 54.09 80.33 C 57.19 78.72 60.29 77.11 63.21 75.20 Z" />
<path fill="#627aa8" opacity="0.80" d=" M 21.42 72.40 C 25.04 74.73 28.80 76.84 32.65 78.77 L 33.11 79.62 C 35.45 86.55 43.09 88.47 49.01 91.26 L 48.98 92.16 C 48.94 93.49 48.91 94.83 48.88 96.17 C 45.80 94.22 42.72 92.25 39.53 90.47 C 35.60 87.55 31.60 84.71 27.34 82.29 C 25.72 78.80 23.81 75.43 21.42 72.40 Z" />
<path fill="#dfe2d6" opacity="1.00" d=" M 15.19 75.60 C 19.26 77.79 23.30 80.04 27.34 82.29 C 31.60 84.71 35.60 87.55 39.53 90.47 C 39.04 90.61 38.07 90.89 37.58 91.04 C 29.93 86.47 22.11 82.11 14.83 76.99 C 14.92 76.64 15.10 75.95 15.19 75.60 Z" />
<path fill="#b3baa5" opacity="0.94" d=" M 34.76 76.02 C 36.14 76.42 37.53 76.82 38.91 77.23 C 42.90 79.21 46.41 81.99 50.07 84.51 C 49.36 84.73 47.94 85.18 47.23 85.40 C 43.22 82.09 38.94 79.11 34.76 76.02 Z" />
<path fill="#c5cbd5" opacity="1.00" d=" M 61.72 88.37 C 68.26 84.84 74.09 79.93 81.30 77.72 C 78.76 79.67 76.49 81.93 73.99 83.93 C 70.72 85.65 67.42 87.33 64.31 89.32 C 59.25 92.43 54.56 96.37 48.74 98.00 C 52.42 93.99 57.17 91.25 61.72 88.37 Z" />
<path fill="#0a0233" opacity="0.68" d=" M 50.07 84.51 C 53.75 82.86 57.22 80.71 61.13 79.60 C 57.00 81.78 53.17 84.48 49.16 86.87 C 48.51 86.38 47.87 85.89 47.23 85.40 C 47.94 85.18 49.36 84.73 50.07 84.51 Z" />
<path fill="#ccd9d7" opacity="1.00" d=" M 61.13 79.60 C 62.06 79.31 63.00 79.04 63.94 78.78 C 64.41 78.67 65.35 78.45 65.82 78.33 C 64.40 79.68 63.05 81.10 61.61 82.42 C 57.14 84.60 52.80 87.12 49.03 90.40 C 49.06 89.52 49.13 87.75 49.16 86.87 C 53.17 84.48 57.00 81.78 61.13 79.60 Z" />
<path fill="#465780" opacity="0.89" d=" M 33.11 79.62 C 38.47 83.13 44.52 85.71 49.03 90.40 L 49.01 91.26 C 43.09 88.47 35.45 86.55 33.11 79.62 Z" />
<path fill="#b5b9a3" opacity="0.93" d=" M 48.98 92.16 C 53.89 89.46 58.73 86.63 63.64 83.95 C 63.03 85.43 62.43 86.92 61.72 88.37 C 57.17 91.25 52.42 93.99 48.74 98.00 C 44.77 96.11 41.19 93.52 37.58 91.04 C 38.07 90.89 39.04 90.61 39.53 90.47 C 42.72 92.25 45.80 94.22 48.88 96.17 C 48.91 94.83 48.94 93.49 48.98 92.16 Z" />
</svg>
