<?xml version="1.0" encoding="UTF-8" ?>
<!DOCTYPE svg PUBLIC "-//W3C//DTD SVG 1.1//EN" "http://www.w3.org/Graphics/SVG/1.1/DTD/svg11.dtd">
<svg width="100pt" height="100pt" viewBox="0 0 100 100" version="1.1" xmlns="http://www.w3.org/2000/svg">
<path fill="#010037" opacity="0.86" d=" M 48.38 0.00 L 50.52 0.00 C 56.59 4.64 63.57 7.94 69.31 13.03 L 68.43 13.02 C 61.70 9.62 56.19 3.89 48.94 1.56 C 48.54 1.78 47.74 2.23 47.33 2.46 C 45.67 3.43 44.01 4.40 42.41 5.46 C 40.34 6.77 38.26 8.05 36.20 9.37 C 29.04 13.94 21.77 18.34 14.60 22.89 C 14.07 25.21 13.88 27.59 13.86 29.97 C 13.94 41.31 14.01 52.65 13.99 64.00 C 14.05 68.33 13.31 72.86 14.92 77.01 C 22.22 82.17 30.12 86.50 37.73 91.19 C 41.30 93.62 44.82 96.15 48.74 97.98 C 51.03 97.48 53.18 96.49 55.15 95.22 C 61.33 91.31 67.33 87.03 73.97 83.90 C 66.57 90.24 57.61 94.31 49.74 100.00 L 48.49 100.00 C 37.18 91.89 25.05 85.01 13.24 77.68 C 12.96 59.24 12.95 40.78 13.27 22.35 C 25.07 15.06 36.86 7.74 48.38 0.00 Z" />
<path fill="#bec4b3" opacity="0.89" d=" M 48.94 1.56 C 56.19 3.89 61.70 9.62 68.43 13.02 C 67.16 13.02 65.89 13.05 64.63 12.96 C 63.15 12.20 61.72 11.34 60.20 10.66 C 57.57 9.51 54.37 10.92 51.90 9.25 C 49.64 7.87 49.46 4.96 49.00 2.62 L 48.94 1.56 Z" />
<path fill="#323975" opacity="0.87" d=" M 47.33 2.46 C 47.74 2.23 48.54 1.78 48.94 1.56 L 49.00 2.62 C 49.06 5.04 48.99 7.46 48.88 9.88 C 47.31 10.55 45.75 11.23 44.19 11.92 C 45.62 8.91 46.79 5.76 47.33 2.46 Z" />
<path fill="#727284" opacity="0.87" d=" M 42.41 5.46 C 44.01 4.40 45.67 3.43 47.33 2.46 C 46.79 5.76 45.62 8.91 44.19 11.92 C 45.75 11.23 47.31 10.55 48.88 9.88 C 50.23 13.86 54.14 15.82 57.40 18.01 C 54.53 18.21 51.74 17.45 49.11 16.34 C 47.13 17.36 45.17 18.41 43.19 19.44 C 41.82 19.59 40.44 19.68 39.06 19.79 C 41.55 17.60 43.94 15.30 46.13 12.80 C 43.45 13.85 40.81 14.96 38.17 16.08 C 39.44 12.48 40.71 8.88 42.41 5.46 Z" />
<path fill="#919ea0" opacity="0.89" d=" M 49.00 2.62 C 49.46 4.96 49.64 7.87 51.90 9.25 C 54.37 10.92 57.57 9.51 60.20 10.66 C 61.72 11.34 63.15 12.20 64.63 12.96 C 64.10 14.77 63.55 16.58 62.98 18.38 C 58.06 15.89 54.05 11.89 48.88 9.88 C 48.99 7.46 49.06 5.04 49.00 2.62 Z" />
<path fill="#97a29c" opacity="0.90" d=" M 36.20 9.37 C 38.26 8.05 40.34 6.77 42.41 5.46 C 40.71 8.88 39.44 12.48 38.17 16.08 C 40.81 14.96 43.45 13.85 46.13 12.80 C 43.94 15.30 41.55 17.60 39.06 19.79 C 40.44 19.68 41.82 19.59 43.19 19.44 C 40.56 21.16 37.61 22.68 35.67 25.22 C 34.54 27.95 36.08 30.83 37.33 33.22 C 39.46 34.33 41.68 35.26 43.83 36.33 C 43.80 36.83 43.75 37.84 43.72 38.34 C 40.49 36.76 37.38 34.92 34.50 32.78 C 34.36 31.55 34.25 30.32 34.12 29.10 C 34.03 28.32 33.86 26.77 33.77 25.99 C 30.91 27.04 28.03 28.02 25.16 29.04 C 29.57 25.37 34.34 22.10 38.28 17.90 C 31.99 20.29 25.88 23.70 21.15 28.54 C 21.25 29.01 21.44 29.93 21.53 30.40 C 22.01 32.61 22.32 34.85 22.38 37.12 C 22.10 39.16 21.83 41.22 21.66 43.28 C 20.56 38.39 21.89 32.65 18.62 28.48 C 17.29 36.07 19.85 44.09 16.42 51.32 C 16.19 43.42 16.01 35.51 16.27 27.61 C 16.62 27.53 17.34 27.37 17.70 27.30 C 17.23 26.31 16.76 25.32 16.29 24.34 C 17.46 23.62 18.63 22.90 19.80 22.19 C 21.36 22.60 23.06 23.58 24.64 22.70 C 28.58 20.86 32.39 18.56 35.58 15.60 C 36.67 14.73 36.42 13.26 36.51 12.04 C 36.42 11.15 36.32 10.26 36.20 9.37 Z" />
<path fill="#dbdbc8" opacity="0.93" d=" M 14.60 22.89 C 21.77 18.34 29.04 13.94 36.20 9.37 C 36.32 10.26 36.42 11.15 36.51 12.04 C 30.85 15.28 25.38 18.82 19.80 22.19 C 18.63 22.90 17.46 23.62 16.29 24.34 C 16.76 25.32 17.23 26.31 17.70 27.30 C 17.34 27.37 16.62 27.53 16.27 27.61 C 16.01 35.51 16.19 43.42 16.42 51.32 C 15.56 58.66 16.23 66.04 16.47 73.39 L 15.89 74.04 L 15.08 74.50 C 15.55 57.30 14.83 40.09 14.60 22.89 Z" />
<path fill="#d2ccb9" opacity="0.91" d=" M 48.88 9.88 C 54.05 11.89 58.06 15.89 62.98 18.38 C 63.86 18.82 64.76 19.23 65.66 19.65 C 69.68 22.60 73.65 25.63 77.94 28.20 C 78.84 27.79 79.73 27.38 80.62 26.97 C 77.16 30.76 76.92 36.09 77.66 40.92 C 79.33 48.25 78.60 55.78 78.36 63.21 C 78.13 56.36 78.54 49.47 77.64 42.66 C 76.59 47.77 76.82 53.02 76.37 58.20 C 76.35 55.66 76.20 53.13 76.17 50.60 C 76.23 47.29 76.23 43.97 76.28 40.65 C 76.32 36.85 76.73 32.99 75.99 29.23 C 74.71 27.92 73.00 27.16 71.42 26.28 C 66.61 23.76 62.15 20.64 57.40 18.01 C 54.14 15.82 50.23 13.86 48.88 9.88 Z" />
<path fill="#d2ccb9" opacity="0.91" d=" M 19.80 22.19 C 25.38 18.82 30.85 15.28 36.51 12.04 C 36.42 13.26 36.67 14.73 35.58 15.60 C 32.39 18.56 28.58 20.86 24.64 22.70 C 23.06 23.58 21.36 22.60 19.80 22.19 Z" />
<path fill="#6f78b1" opacity="0.82" d=" M 64.63 12.96 C 65.89 13.05 67.16 13.02 68.43 13.02 L 69.31 13.03 C 72.37 15.83 75.60 18.47 78.90 21.00 C 76.40 20.01 73.84 19.15 71.31 18.22 C 71.77 19.11 72.22 20.01 72.68 20.90 C 70.34 20.49 67.99 20.12 65.66 19.65 C 64.76 19.23 63.86 18.82 62.98 18.38 C 63.55 16.58 64.10 14.77 64.63 12.96 Z" />
<path fill="#393b91" opacity="1.00" d=" M 69.31 13.03 C 74.67 16.21 80.69 18.71 85.12 23.19 C 85.76 27.09 85.38 31.06 85.42 34.99 C 85.40 47.00 85.35 59.01 85.48 71.02 C 85.44 72.96 85.47 74.93 85.04 76.83 C 82.25 80.35 77.83 81.88 73.97 83.90 C 76.38 81.86 78.76 79.76 81.37 77.96 C 82.30 77.54 83.24 77.13 84.19 76.73 C 84.22 73.70 84.20 70.66 84.07 67.63 C 84.20 65.28 83.27 63.10 81.93 61.23 C 82.97 56.22 83.35 51.11 83.24 46.00 C 83.14 38.87 83.38 31.75 83.82 24.64 C 82.12 24.38 80.42 24.11 78.72 23.84 C 78.96 23.00 79.21 22.16 79.47 21.32 L 78.90 21.00 C 75.60 18.47 72.37 15.83 69.31 13.03 Z" />
<path fill="#595e74" opacity="0.87" d=" M 43.19 19.44 C 45.17 18.41 47.13 17.36 49.11 16.34 C 51.74 17.45 54.53 18.21 57.40 18.01 C 62.15 20.64 66.61 23.76 71.42 26.28 C 71.13 29.75 72.04 33.75 69.90 36.80 C 68.26 39.21 65.21 39.60 62.63 40.33 C 64.27 37.67 66.09 35.06 67.11 32.09 C 68.00 29.71 67.19 27.18 66.81 24.79 C 66.38 27.31 66.13 29.88 65.42 32.34 C 63.16 34.09 60.72 35.61 58.17 36.90 C 57.19 33.53 56.19 29.86 53.17 27.71 C 49.31 26.41 45.32 25.08 41.21 25.03 C 38.34 26.49 38.35 30.49 37.33 33.22 C 36.08 30.83 34.54 27.95 35.67 25.22 C 37.61 22.68 40.56 21.16 43.19 19.44 Z" />
<path fill="#ccdddf" opacity="1.00" d=" M 21.15 28.54 C 25.88 23.70 31.99 20.29 38.28 17.90 C 34.34 22.10 29.57 25.37 25.16 29.04 C 23.96 29.50 22.75 29.95 21.53 30.40 C 21.44 29.93 21.25 29.01 21.15 28.54 Z" />
<path fill="#353e8a" opacity="0.80" d=" M 71.31 18.22 C 73.84 19.15 76.40 20.01 78.90 21.00 L 79.47 21.32 C 79.21 22.16 78.96 23.00 78.72 23.84 C 80.42 24.11 82.12 24.38 83.82 24.64 C 83.38 31.75 83.14 38.87 83.24 46.00 C 82.68 45.98 81.58 45.93 81.03 45.90 C 81.25 43.23 81.33 40.55 81.38 37.87 C 80.14 38.88 78.90 39.90 77.66 40.92 C 76.92 36.09 77.16 30.76 80.62 26.97 C 79.73 27.38 78.84 27.79 77.94 28.20 C 73.65 25.63 69.68 22.60 65.66 19.65 C 67.99 20.12 70.34 20.49 72.68 20.90 C 72.22 20.01 71.77 19.11 71.31 18.22 Z" />
<path fill="#c4b495" opacity="1.00" d=" M 13.86 29.97 C 13.88 27.59 14.07 25.21 14.60 22.89 C 14.83 40.09 15.55 57.30 15.08 74.50 L 15.04 75.25 C 15.01 75.69 14.95 76.57 14.92 77.01 C 13.31 72.86 14.05 68.33 13.99 64.00 C 14.01 52.65 13.94 41.31 13.86 29.97 Z" />
<path fill="#6d7d7b" opacity="0.85" d=" M 37.33 33.22 C 38.35 30.49 38.34 26.49 41.21 25.03 C 45.32 25.08 49.31 26.41 53.17 27.71 L 53.44 28.38 C 51.27 28.46 48.96 28.09 46.89 28.93 C 44.54 30.58 44.38 33.76 43.83 36.33 C 41.68 35.26 39.46 34.33 37.33 33.22 Z" />
<path fill="#d2ccb9" opacity="0.91" d=" M 66.81 24.79 C 67.19 27.18 68.00 29.71 67.11 32.09 C 66.09 35.06 64.27 37.67 62.63 40.33 C 60.02 40.97 57.75 42.46 55.60 44.01 C 54.77 43.39 53.94 42.78 53.11 42.17 C 58.05 40.19 63.41 37.70 65.42 32.34 C 66.13 29.88 66.38 27.31 66.81 24.79 Z" />
<path fill="#6a8991" opacity="0.92" d=" M 25.16 29.04 C 28.03 28.02 30.91 27.04 33.77 25.99 C 33.86 26.77 34.03 28.32 34.12 29.10 C 30.91 31.45 27.16 32.83 23.31 33.73 C 22.99 34.85 22.66 35.98 22.38 37.12 C 22.32 34.85 22.01 32.61 21.53 30.40 C 22.75 29.95 23.96 29.50 25.16 29.04 Z" />
<path fill="#515d8f" opacity="0.87" d=" M 71.42 26.28 C 73.00 27.16 74.71 27.92 75.99 29.23 C 76.73 32.99 76.32 36.85 76.28 40.65 C 72.02 43.03 68.20 46.09 64.36 49.08 C 63.46 48.94 62.55 48.79 61.65 48.62 C 59.63 47.09 57.62 45.54 55.60 44.01 C 57.75 42.46 60.02 40.97 62.63 40.33 C 65.21 39.60 68.26 39.21 69.90 36.80 C 72.04 33.75 71.13 29.75 71.42 26.28 Z" />
<path fill="#040030" opacity="0.65" d=" M 46.89 28.93 C 48.96 28.09 51.27 28.46 53.44 28.38 C 54.63 31.53 55.11 34.87 55.36 38.21 C 53.83 38.89 52.29 39.55 50.79 40.29 C 52.88 37.61 53.17 34.27 52.40 31.06 C 51.27 31.60 50.14 32.15 49.01 32.70 C 48.67 32.22 47.99 31.27 47.65 30.80 C 46.55 33.65 46.18 36.80 48.42 39.24 C 48.68 39.66 49.20 40.50 49.47 40.93 C 48.09 42.74 46.01 43.67 43.85 44.24 C 44.60 43.56 45.34 42.87 46.08 42.17 C 43.22 40.71 40.32 39.33 37.44 37.91 C 36.39 36.52 35.46 35.06 34.59 33.55 L 34.50 32.78 C 37.38 34.92 40.49 36.76 43.72 38.34 C 43.75 37.84 43.80 36.83 43.83 36.33 C 44.38 33.76 44.54 30.58 46.89 28.93 Z" />
<path fill="#9faeba" opacity="0.95" d=" M 53.17 27.71 C 56.19 29.86 57.19 33.53 58.17 36.90 C 57.24 37.35 56.30 37.79 55.36 38.21 C 55.11 34.87 54.63 31.53 53.44 28.38 L 53.17 27.71 Z" />
<path fill="#5479a7" opacity="0.82" d=" M 18.62 28.48 C 21.89 32.65 20.56 38.39 21.66 43.28 C 21.94 46.18 22.30 49.08 22.66 51.97 C 24.05 50.83 25.43 49.68 26.76 48.46 L 26.87 49.22 C 26.92 49.58 27.02 50.29 27.07 50.64 C 28.32 52.96 30.26 54.89 31.23 57.36 C 30.38 60.15 28.76 62.62 27.42 65.20 C 25.42 65.31 23.43 65.43 21.43 65.54 C 21.55 58.65 20.88 51.73 19.53 44.97 C 17.75 52.63 18.19 60.52 18.84 68.28 C 19.25 70.38 17.76 71.96 16.47 73.39 C 16.23 66.04 15.56 58.66 16.42 51.32 C 19.85 44.09 17.29 36.07 18.62 28.48 Z" />
<path fill="#5a6865" opacity="0.80" d=" M 23.31 33.73 C 27.16 32.83 30.91 31.45 34.12 29.10 C 34.25 30.32 34.36 31.55 34.50 32.78 L 34.59 33.55 C 34.78 35.35 34.94 37.16 35.11 38.97 C 32.44 42.22 29.85 45.58 26.76 48.46 C 25.43 49.68 24.05 50.83 22.66 51.97 C 22.30 49.08 21.94 46.18 21.66 43.28 C 21.83 41.22 22.10 39.16 22.38 37.12 C 22.66 35.98 22.99 34.85 23.31 33.73 Z" />
<path fill="#c8d7d4" opacity="0.96" d=" M 47.65 30.80 C 47.99 31.27 48.67 32.22 49.01 32.70 C 48.73 34.87 48.49 37.05 48.42 39.24 C 46.18 36.80 46.55 33.65 47.65 30.80 Z" />
<path fill="#838d9a" opacity="0.85" d=" M 49.01 32.70 C 50.14 32.15 51.27 31.60 52.40 31.06 C 53.17 34.27 52.88 37.61 50.79 40.29 C 50.46 40.45 49.80 40.77 49.47 40.93 C 49.20 40.50 48.68 39.66 48.42 39.24 C 48.49 37.05 48.73 34.87 49.01 32.70 Z" />
<path fill="#010037" opacity="0.86" d=" M 58.17 36.90 C 60.72 35.61 63.16 34.09 65.42 32.34 C 63.41 37.70 58.05 40.19 53.11 42.17 C 53.94 42.78 54.77 43.39 55.60 44.01 C 57.62 45.54 59.63 47.09 61.65 48.62 C 62.88 50.39 64.01 52.23 65.15 54.06 C 65.37 53.78 65.80 53.21 66.02 52.93 C 67.64 51.18 69.66 49.75 72.05 49.32 C 69.35 52.30 66.39 55.46 65.83 59.62 C 65.15 64.21 65.03 68.95 63.28 73.31 C 63.06 72.67 62.61 71.40 62.38 70.76 C 62.07 64.37 64.38 57.20 60.30 51.55 C 59.57 50.82 58.83 50.11 58.08 49.41 C 55.03 54.50 52.59 59.92 49.71 65.11 C 46.70 59.87 44.33 54.28 41.00 49.22 C 39.04 51.82 36.83 54.58 36.72 57.99 C 36.14 63.07 38.23 68.55 35.54 73.26 C 34.00 67.98 34.48 62.36 32.92 57.09 C 31.94 53.80 29.16 51.60 26.87 49.22 L 26.76 48.46 C 29.48 49.97 31.95 51.89 34.17 54.07 C 36.44 50.20 39.24 46.45 43.41 44.49 L 43.85 44.24 C 46.01 43.67 48.09 42.74 49.47 40.93 C 49.80 40.77 50.46 40.45 50.79 40.29 C 52.29 39.55 53.83 38.89 55.36 38.21 C 56.30 37.79 57.24 37.35 58.17 36.90 M 42.27 48.17 C 44.92 52.80 47.23 57.62 49.64 62.38 C 49.81 62.01 50.14 61.27 50.30 60.90 C 52.83 56.69 54.82 52.19 57.21 47.91 C 56.26 47.42 55.32 46.91 54.33 46.51 C 52.90 45.53 51.50 44.47 49.89 43.80 C 47.03 44.60 44.70 46.54 42.27 48.17 Z" />
<path fill="#6c7b8b" opacity="0.80" d=" M 35.11 38.97 C 34.94 37.16 34.78 35.35 34.59 33.55 C 35.46 35.06 36.39 36.52 37.44 37.91 C 39.37 40.16 41.49 42.24 43.41 44.49 C 39.24 46.45 36.44 50.20 34.17 54.07 C 31.95 51.89 29.48 49.97 26.76 48.46 C 29.85 45.58 32.44 42.22 35.11 38.97 Z" />
<path fill="#d2ccb9" opacity="0.91" d=" M 43.41 44.49 C 41.49 42.24 39.37 40.16 37.44 37.91 C 40.32 39.33 43.22 40.71 46.08 42.17 C 45.34 42.87 44.60 43.56 43.85 44.24 L 43.41 44.49 Z" />
<path fill="#4e58a0" opacity="0.80" d=" M 77.66 40.92 C 78.90 39.90 80.14 38.88 81.38 37.87 C 81.33 40.55 81.25 43.23 81.03 45.90 C 80.92 50.95 78.54 56.80 81.93 61.23 C 83.27 63.10 84.20 65.28 84.07 67.63 C 83.58 70.11 82.95 72.56 82.36 75.02 C 74.33 73.25 69.35 81.95 61.64 82.29 C 66.08 79.07 70.87 76.39 75.53 73.52 C 77.22 72.67 77.77 70.83 78.22 69.14 C 78.31 67.17 78.33 65.19 78.36 63.21 C 78.60 55.78 79.33 48.25 77.66 40.92 Z" />
<path fill="#3c57b8" opacity="0.92" d=" M 64.36 49.08 C 68.20 46.09 72.02 43.03 76.28 40.65 C 76.23 43.97 76.23 47.29 76.17 50.60 C 75.09 55.17 73.32 59.59 70.47 63.36 C 69.29 63.97 68.09 64.54 66.88 65.12 C 67.36 62.29 67.45 59.32 68.66 56.67 C 70.19 53.76 72.67 51.53 74.86 49.12 C 73.92 49.18 72.98 49.24 72.05 49.32 C 69.66 49.75 67.64 51.18 66.02 52.93 C 65.51 51.63 64.94 50.35 64.36 49.08 Z" />
<path fill="#dde5d7" opacity="0.95" d=" M 76.37 58.20 C 76.82 53.02 76.59 47.77 77.64 42.66 C 78.54 49.47 78.13 56.36 78.36 63.21 C 78.33 65.19 78.31 67.17 78.22 69.14 C 77.39 69.66 76.56 70.18 75.73 70.70 C 75.80 67.74 75.89 64.77 76.12 61.81 C 76.22 60.61 76.31 59.40 76.37 58.20 Z" />
<path fill="#b2c2cf" opacity="1.00" d=" M 42.27 48.17 C 44.70 46.54 47.03 44.60 49.89 43.80 C 51.50 44.47 52.90 45.53 54.33 46.51 C 51.10 46.16 47.03 45.92 45.07 49.10 C 46.19 53.29 48.72 56.90 50.30 60.90 C 50.14 61.27 49.81 62.01 49.64 62.38 C 47.23 57.62 44.92 52.80 42.27 48.17 Z" />
<path fill="#294365" opacity="0.66" d=" M 19.53 44.97 C 20.88 51.73 21.55 58.65 21.43 65.54 C 21.16 67.38 20.77 69.21 20.40 71.04 C 18.98 72.17 17.47 73.16 15.89 74.04 L 16.47 73.39 C 17.76 71.96 19.25 70.38 18.84 68.28 C 18.19 60.52 17.75 52.63 19.53 44.97 Z" />
<path fill="#6476a2" opacity="0.96" d=" M 45.07 49.10 C 47.03 45.92 51.10 46.16 54.33 46.51 C 55.32 46.91 56.26 47.42 57.21 47.91 C 54.82 52.19 52.83 56.69 50.30 60.90 C 48.72 56.90 46.19 53.29 45.07 49.10 Z" />
<path fill="#0825d0" opacity="0.82" d=" M 81.03 45.90 C 81.58 45.93 82.68 45.98 83.24 46.00 C 83.35 51.11 82.97 56.22 81.93 61.23 C 78.54 56.80 80.92 50.95 81.03 45.90 Z" />
<path fill="#95abd1" opacity="1.00" d=" M 61.65 48.62 C 62.55 48.79 63.46 48.94 64.36 49.08 C 64.94 50.35 65.51 51.63 66.02 52.93 C 65.80 53.21 65.37 53.78 65.15 54.06 C 64.01 52.23 62.88 50.39 61.65 48.62 Z" />
<path fill="#d2ccb9" opacity="0.91" d=" M 72.05 49.32 C 72.98 49.24 73.92 49.18 74.86 49.12 C 72.67 51.53 70.19 53.76 68.66 56.67 C 67.45 59.32 67.36 62.29 66.88 65.12 C 66.53 67.52 66.13 69.92 65.89 72.34 C 65.94 73.14 66.02 73.93 66.09 74.73 C 65.43 75.03 64.81 75.39 64.20 75.75 C 63.89 74.94 63.59 74.13 63.28 73.31 C 65.03 68.95 65.15 64.21 65.83 59.62 C 66.39 55.46 69.35 52.30 72.05 49.32 Z" />
<path fill="#649ebb" opacity="0.87" d=" M 27.07 50.64 C 27.02 50.29 26.92 49.58 26.87 49.22 C 29.16 51.60 31.94 53.80 32.92 57.09 C 34.48 62.36 34.00 67.98 35.54 73.26 C 35.76 73.71 36.19 74.60 36.41 75.05 C 37.58 73.96 38.62 72.75 39.69 71.56 C 41.50 69.46 43.73 67.79 45.98 66.19 C 46.43 66.37 47.32 66.74 47.76 66.92 C 46.17 69.42 44.64 71.95 42.91 74.36 C 41.61 75.46 40.24 76.47 38.89 77.50 C 37.54 76.91 36.17 76.38 34.80 75.86 C 38.53 79.42 43.16 81.80 47.12 85.07 C 47.80 85.73 48.48 86.40 49.15 87.08 C 49.12 87.90 49.07 89.53 49.04 90.35 C 44.43 85.84 38.67 82.88 33.08 79.79 L 32.72 78.92 C 33.29 78.98 34.45 79.09 35.03 79.14 C 30.41 76.16 26.30 70.93 20.40 71.04 C 20.77 69.21 21.16 67.38 21.43 65.54 C 23.43 65.43 25.42 65.31 27.42 65.20 C 28.76 62.62 30.38 60.15 31.23 57.36 C 30.26 54.89 28.32 52.96 27.07 50.64 Z" />
<path fill="#a4bccf" opacity="1.00" d=" M 36.72 57.99 C 36.83 54.58 39.04 51.82 41.00 49.22 C 44.33 54.28 46.70 59.87 49.71 65.11 C 52.59 59.92 55.03 54.50 58.08 49.41 C 58.83 50.11 59.57 50.82 60.30 51.55 C 54.96 55.59 53.97 62.76 50.60 68.22 C 46.61 63.38 44.94 57.15 41.03 52.27 C 37.00 58.00 38.51 65.19 39.69 71.56 C 38.62 72.75 37.58 73.96 36.41 75.05 C 36.19 74.60 35.76 73.71 35.54 73.26 C 38.23 68.55 36.14 63.07 36.72 57.99 Z" />
<path fill="#0b2990" opacity="0.87" d=" M 70.47 63.36 C 73.32 59.59 75.09 55.17 76.17 50.60 C 76.20 53.13 76.35 55.66 76.37 58.20 C 76.31 59.40 76.22 60.61 76.12 61.81 C 75.45 63.32 74.85 64.92 73.73 66.16 C 72.13 66.51 70.49 66.52 68.86 66.63 C 69.38 65.53 69.90 64.43 70.47 63.36 Z" />
<path fill="#6082a9" opacity="0.96" d=" M 50.60 68.22 C 53.97 62.76 54.96 55.59 60.30 51.55 C 64.38 57.20 62.07 64.37 62.38 70.76 C 61.84 71.20 60.77 72.07 60.23 72.50 C 58.56 72.29 56.89 72.08 55.23 71.87 C 56.14 69.95 57.03 68.02 57.87 66.07 C 54.25 67.50 51.90 70.64 49.24 73.30 C 47.64 75.07 45.01 74.29 42.91 74.36 C 44.64 71.95 46.17 69.42 47.76 66.92 C 47.32 66.74 46.43 66.37 45.98 66.19 C 43.73 67.79 41.50 69.46 39.69 71.56 C 38.51 65.19 37.00 58.00 41.03 52.27 C 44.94 57.15 46.61 63.38 50.60 68.22 Z" />
<path fill="#344a84" opacity="0.87" d=" M 73.73 66.16 C 74.85 64.92 75.45 63.32 76.12 61.81 C 75.89 64.77 75.80 67.74 75.73 70.70 C 74.25 71.63 72.75 72.54 71.27 73.46 C 71.80 72.33 72.33 71.20 72.87 70.08 C 70.57 70.93 68.25 71.71 65.89 72.34 C 66.13 69.92 66.53 67.52 66.88 65.12 C 68.09 64.54 69.29 63.97 70.47 63.36 C 69.90 64.43 69.38 65.53 68.86 66.63 C 70.49 66.52 72.13 66.51 73.73 66.16 Z" />
<path fill="#809f90" opacity="0.94" d=" M 49.24 73.30 C 51.90 70.64 54.25 67.50 57.87 66.07 C 57.03 68.02 56.14 69.95 55.23 71.87 C 56.89 72.08 58.56 72.29 60.23 72.50 C 57.32 74.91 54.77 77.71 52.24 80.51 C 52.88 80.76 54.16 81.27 54.81 81.52 C 53.56 82.23 52.31 82.95 51.02 83.59 C 46.76 82.01 42.88 79.64 38.89 77.50 C 40.24 76.47 41.61 75.46 42.91 74.36 C 45.01 74.29 47.64 75.07 49.24 73.30 Z" />
<path fill="#7c83a8" opacity="0.93" d=" M 82.36 75.02 C 82.95 72.56 83.58 70.11 84.07 67.63 C 84.20 70.66 84.22 73.70 84.19 76.73 C 83.24 77.13 82.30 77.54 81.37 77.96 C 79.16 78.18 76.98 78.79 75.16 80.11 C 70.81 83.06 66.30 85.74 61.78 88.41 C 62.34 86.91 62.91 85.42 63.49 83.93 C 58.71 86.75 53.86 89.45 49.00 92.14 L 49.02 91.23 L 49.04 90.35 C 52.71 87.31 56.69 84.60 61.02 82.58 L 61.64 82.29 C 69.35 81.95 74.33 73.25 82.36 75.02 Z" />
<path fill="#8fa1ce" opacity="1.00" d=" M 75.73 70.70 C 76.56 70.18 77.39 69.66 78.22 69.14 C 77.77 70.83 77.22 72.67 75.53 73.52 C 70.87 76.39 66.08 79.07 61.64 82.29 L 61.02 82.58 C 61.19 81.84 61.54 80.36 61.71 79.62 C 64.92 77.60 68.04 75.45 71.27 73.46 C 72.75 72.54 74.25 71.63 75.73 70.70 Z" />
<path fill="#a3c8c9" opacity="0.98" d=" M 20.40 71.04 C 26.30 70.93 30.41 76.16 35.03 79.14 C 34.45 79.09 33.29 78.98 32.72 78.92 C 29.02 76.61 25.15 74.61 21.29 72.62 C 21.06 72.22 20.62 71.44 20.40 71.04 Z" />
<path fill="#757a63" opacity="0.86" d=" M 65.89 72.34 C 68.25 71.71 70.57 70.93 72.87 70.08 C 72.33 71.20 71.80 72.33 71.27 73.46 C 68.04 75.45 64.92 77.60 61.71 79.62 C 57.56 82.17 53.36 84.62 49.15 87.08 C 48.48 86.40 47.80 85.73 47.12 85.07 C 48.42 84.59 49.73 84.12 51.02 83.59 C 52.31 82.95 53.56 82.23 54.81 81.52 C 54.16 81.27 52.88 80.76 52.24 80.51 C 54.77 77.71 57.32 74.91 60.23 72.50 C 60.77 72.07 61.84 71.20 62.38 70.76 C 62.61 71.40 63.06 72.67 63.28 73.31 C 63.59 74.13 63.89 74.94 64.20 75.75 C 64.81 75.39 65.43 75.03 66.09 74.73 C 66.02 73.93 65.94 73.14 65.89 72.34 Z" />
<path fill="#8ea29a" opacity="0.82" d=" M 15.89 74.04 C 17.47 73.16 18.98 72.17 20.40 71.04 C 20.62 71.44 21.06 72.22 21.29 72.62 C 22.76 76.20 27.14 78.15 27.22 82.31 C 23.07 80.12 19.04 77.70 15.04 75.25 L 15.08 74.50 L 15.89 74.04 Z" />
<path fill="#627aa8" opacity="0.80" d=" M 21.29 72.62 C 25.15 74.61 29.02 76.61 32.72 78.92 L 33.08 79.79 C 35.26 86.65 43.25 88.41 49.02 91.23 L 49.00 92.14 C 48.97 93.49 48.94 94.84 48.91 96.20 C 45.73 94.26 42.61 92.22 39.44 90.26 C 35.52 87.38 31.47 84.68 27.22 82.31 C 27.14 78.15 22.76 76.20 21.29 72.62 Z" />
<path fill="#dfe2d6" opacity="1.00" d=" M 15.04 75.25 C 19.04 77.70 23.07 80.12 27.22 82.31 C 31.47 84.68 35.52 87.38 39.44 90.26 C 39.01 90.50 38.16 90.96 37.73 91.19 C 30.12 86.50 22.22 82.17 14.92 77.01 C 14.95 76.57 15.01 75.69 15.04 75.25 Z" />
<path fill="#b2b7a3" opacity="0.93" d=" M 34.80 75.86 C 36.17 76.38 37.54 76.91 38.89 77.50 C 42.88 79.64 46.76 82.01 51.02 83.59 C 49.73 84.12 48.42 84.59 47.12 85.07 C 43.16 81.80 38.53 79.42 34.80 75.86 Z" />
<path fill="#c5cbd5" opacity="1.00" d=" M 75.16 80.11 C 76.98 78.79 79.16 78.18 81.37 77.96 C 78.76 79.76 76.38 81.86 73.97 83.90 C 67.33 87.03 61.33 91.31 55.15 95.22 C 53.18 96.49 51.03 97.48 48.74 97.98 C 52.24 93.76 57.28 91.37 61.78 88.41 C 66.30 85.74 70.81 83.06 75.16 80.11 Z" />
<path fill="#465780" opacity="0.89" d=" M 33.08 79.79 C 38.67 82.88 44.43 85.84 49.04 90.35 L 49.02 91.23 C 43.25 88.41 35.26 86.65 33.08 79.79 Z" />
<path fill="#d9e4dc" opacity="1.00" d=" M 49.15 87.08 C 53.36 84.62 57.56 82.17 61.71 79.62 C 61.54 80.36 61.19 81.84 61.02 82.58 C 56.69 84.60 52.71 87.31 49.04 90.35 C 49.07 89.53 49.12 87.90 49.15 87.08 Z" />
<path fill="#b5b9a3" opacity="0.93" d=" M 49.00 92.14 C 53.86 89.45 58.71 86.75 63.49 83.93 C 62.91 85.42 62.34 86.91 61.78 88.41 C 57.28 91.37 52.24 93.76 48.74 97.98 C 44.82 96.15 41.30 93.62 37.73 91.19 C 38.16 90.96 39.01 90.50 39.44 90.26 C 42.61 92.22 45.73 94.26 48.91 96.20 C 48.94 94.84 48.97 93.49 49.00 92.14 Z" />
</svg>
