<?xml version="1.0" encoding="UTF-8" ?>
<!DOCTYPE svg PUBLIC "-//W3C//DTD SVG 1.1//EN" "http://www.w3.org/Graphics/SVG/1.1/DTD/svg11.dtd">
<svg width="100pt" height="100pt" viewBox="0 0 100 100" version="1.1" xmlns="http://www.w3.org/2000/svg">
<path fill="#02002e" opacity="0.67" d=" M 48.36 0.00 L 50.52 0.00 C 56.73 4.44 63.53 8.03 69.35 13.01 L 68.47 12.98 C 61.73 9.58 56.21 3.98 49.01 1.52 C 48.57 1.76 47.70 2.24 47.26 2.48 C 45.52 3.49 43.78 4.49 42.07 5.56 C 40.20 6.78 38.38 8.08 36.58 9.42 C 29.01 13.57 21.92 18.53 14.44 22.84 C 13.33 33.53 14.12 44.29 13.96 55.01 C 14.38 62.33 13.02 69.80 14.76 77.01 C 22.15 82.07 29.97 86.51 37.65 91.14 C 41.24 93.58 44.78 96.14 48.73 98.01 C 53.17 96.91 56.90 94.16 60.66 91.69 C 64.92 88.80 69.38 86.23 73.98 83.92 C 66.57 90.24 57.70 94.44 49.75 100.00 L 48.45 100.00 C 37.06 91.98 24.99 84.98 13.13 77.70 C 12.91 59.24 12.87 40.78 13.16 22.32 C 25.03 15.10 36.75 7.63 48.36 0.00 Z" />
<path fill="#bec4b3" opacity="0.89" d=" M 49.01 1.52 C 56.21 3.98 61.73 9.58 68.47 12.98 C 67.19 12.95 65.91 12.93 64.64 12.80 C 61.36 10.85 57.66 10.00 53.88 9.88 C 50.21 9.73 49.43 5.48 49.04 2.60 L 49.01 1.52 Z" />
<path fill="#3c4875" opacity="0.87" d=" M 47.26 2.48 C 47.70 2.24 48.57 1.76 49.01 1.52 L 49.04 2.60 C 49.06 5.01 49.01 7.42 48.97 9.83 C 47.07 10.88 45.17 11.94 43.30 13.03 C 44.90 9.63 46.23 6.10 47.26 2.48 Z" />
<path fill="#737a8d" opacity="0.87" d=" M 42.07 5.56 C 43.78 4.49 45.52 3.49 47.26 2.48 C 46.23 6.10 44.90 9.63 43.30 13.03 C 45.17 11.94 47.07 10.88 48.97 9.83 C 49.93 11.50 50.87 13.18 51.97 14.77 C 52.68 15.83 53.40 16.89 54.13 17.94 C 52.48 17.35 50.83 16.77 49.18 16.20 C 47.18 17.31 45.18 18.41 43.16 19.47 C 41.73 19.67 40.29 19.79 38.86 19.93 C 40.53 17.95 42.29 16.05 44.11 14.22 C 41.40 15.09 38.67 15.87 35.96 16.71 C 38.01 13.00 39.99 9.25 42.07 5.56 Z" />
<path fill="#919ea0" opacity="0.89" d=" M 49.04 2.60 C 49.43 5.48 50.21 9.73 53.88 9.88 C 57.66 10.00 61.36 10.85 64.64 12.80 C 64.09 14.64 63.54 16.47 62.96 18.30 C 58.17 15.69 53.94 12.15 48.97 9.83 C 49.01 7.42 49.06 5.01 49.04 2.60 Z" />
<path fill="#cdccb9" opacity="0.91" d=" M 36.58 9.42 C 38.38 8.08 40.20 6.78 42.07 5.56 C 39.99 9.25 38.01 13.00 35.96 16.71 C 30.92 18.52 26.46 21.51 21.85 24.18 C 21.49 23.29 21.13 22.41 20.76 21.52 C 26.21 17.79 33.63 15.84 36.58 9.42 Z" />
<path fill="#dcdcc8" opacity="0.94" d=" M 14.44 22.84 C 21.92 18.53 29.01 13.57 36.58 9.42 C 33.63 15.84 26.21 17.79 20.76 21.52 C 19.19 22.43 17.62 23.35 16.04 24.26 C 15.58 33.29 15.72 42.34 16.42 51.35 C 15.74 58.67 16.33 66.00 16.38 73.33 L 15.85 73.99 L 15.33 74.60 C 15.15 57.35 14.99 40.09 14.44 22.84 Z" />
<path fill="#cdccb9" opacity="0.91" d=" M 48.97 9.83 C 53.94 12.15 58.17 15.69 62.96 18.30 C 63.84 18.79 64.73 19.26 65.62 19.72 C 70.47 22.40 74.30 28.27 80.45 27.47 C 76.94 31.25 77.34 36.59 77.11 41.37 C 77.52 41.46 78.33 41.65 78.74 41.74 C 78.49 48.55 78.83 55.36 78.58 62.17 L 78.54 63.07 C 78.31 56.25 78.43 49.40 77.60 42.62 C 76.80 47.77 76.48 52.97 76.33 58.18 C 76.41 54.70 76.21 51.23 76.18 47.76 C 76.22 45.42 76.24 43.09 76.31 40.75 C 76.37 37.22 76.78 33.63 75.99 30.16 C 74.30 27.91 71.69 26.64 69.35 25.18 C 63.55 21.72 57.90 18.02 51.97 14.77 C 50.87 13.18 49.93 11.50 48.97 9.83 Z" />
<path fill="#6f78b1" opacity="0.82" d=" M 64.64 12.80 C 65.91 12.93 67.19 12.95 68.47 12.98 L 69.35 13.01 C 72.39 15.78 75.76 18.15 78.90 20.79 C 76.46 19.91 73.99 19.07 71.52 18.26 C 71.62 19.00 71.72 19.75 71.82 20.49 C 69.76 20.23 67.68 20.02 65.62 19.72 C 64.73 19.26 63.84 18.79 62.96 18.30 C 63.54 16.47 64.09 14.64 64.64 12.80 Z" />
<path fill="#393080" opacity="1.00" d=" M 69.35 13.01 C 74.64 16.30 80.80 18.56 85.09 23.22 C 85.69 26.10 85.49 29.07 85.50 31.99 C 85.35 45.35 85.43 58.70 85.50 72.06 C 85.28 74.06 85.80 76.58 84.04 78.03 C 81.15 80.69 77.42 82.13 73.98 83.92 C 76.43 81.91 78.79 79.78 81.37 77.93 C 82.30 77.50 83.24 77.07 84.19 76.67 C 84.32 72.98 84.19 69.29 83.89 65.62 C 83.77 63.37 83.53 61.13 83.35 58.89 C 83.03 54.11 82.79 49.32 82.59 44.54 C 83.28 37.88 83.49 31.19 84.07 24.53 C 82.48 24.76 80.88 24.94 79.27 25.06 C 79.18 23.63 79.10 22.20 78.90 20.79 C 75.76 18.15 72.39 15.78 69.35 13.01 Z" />
<path fill="#acbaae" opacity="0.90" d=" M 35.96 16.71 C 38.67 15.87 41.40 15.09 44.11 14.22 C 42.29 16.05 40.53 17.95 38.86 19.93 C 40.29 19.79 41.73 19.67 43.16 19.47 C 40.31 21.12 37.62 23.04 34.83 24.79 C 31.77 26.57 28.47 27.87 25.14 29.03 C 29.55 25.43 33.96 21.81 38.17 17.97 C 32.08 20.64 25.90 23.67 21.27 28.58 C 21.31 29.03 21.39 29.91 21.43 30.36 C 21.67 32.57 21.92 34.78 21.96 37.01 C 21.89 39.10 21.80 41.19 21.80 43.29 C 21.24 37.75 20.82 32.17 19.52 26.74 C 17.96 30.89 17.70 35.34 18.19 39.72 C 18.65 43.69 17.54 47.58 16.42 51.35 C 15.72 42.34 15.58 33.29 16.04 24.26 C 17.62 23.35 19.19 22.43 20.76 21.52 C 21.13 22.41 21.49 23.29 21.85 24.18 C 26.46 21.51 30.92 18.52 35.96 16.71 Z" />
<path fill="#58616e" opacity="0.85" d=" M 51.97 14.77 C 57.90 18.02 63.55 21.72 69.35 25.18 C 67.55 27.04 65.76 28.90 64.18 30.95 C 59.50 28.72 55.13 25.43 49.94 24.57 C 44.21 25.44 39.04 28.57 34.34 31.81 C 34.24 32.21 34.03 33.00 33.93 33.39 C 33.82 33.82 33.60 34.67 33.49 35.09 C 31.84 36.38 30.20 37.69 28.57 39.01 C 28.93 39.47 29.64 40.39 30.00 40.84 C 29.38 41.53 28.75 42.21 28.13 42.90 C 28.66 43.75 29.20 44.60 29.73 45.45 C 27.46 47.32 25.20 49.19 22.95 51.09 C 22.50 48.50 22.04 45.91 21.80 43.29 C 21.80 41.19 21.89 39.10 21.96 37.01 C 23.11 32.57 28.29 32.78 31.45 30.53 C 32.97 28.88 33.82 26.76 34.83 24.79 C 37.62 23.04 40.31 21.12 43.16 19.47 C 45.18 18.41 47.18 17.31 49.18 16.20 C 50.83 16.77 52.48 17.35 54.13 17.94 C 53.40 16.89 52.68 15.83 51.97 14.77 Z" />
<path fill="#ccdddf" opacity="1.00" d=" M 21.27 28.58 C 25.90 23.67 32.08 20.64 38.17 17.97 C 33.96 21.81 29.55 25.43 25.14 29.03 C 23.91 29.49 22.67 29.93 21.43 30.36 C 21.39 29.91 21.31 29.03 21.27 28.58 Z" />
<path fill="#374394" opacity="0.80" d=" M 71.52 18.26 C 73.99 19.07 76.46 19.91 78.90 20.79 C 79.10 22.20 79.18 23.63 79.27 25.06 C 80.88 24.94 82.48 24.76 84.07 24.53 C 83.49 31.19 83.28 37.88 82.59 44.54 C 80.08 49.25 79.96 54.60 80.16 59.80 C 81.22 59.49 82.29 59.19 83.35 58.89 C 83.53 61.13 83.77 63.37 83.89 65.62 C 83.52 67.53 83.05 69.43 82.69 71.35 C 82.16 67.98 80.51 64.94 78.58 62.17 C 78.83 55.36 78.49 48.55 78.74 41.74 C 78.33 41.65 77.52 41.46 77.11 41.37 C 77.34 36.59 76.94 31.25 80.45 27.47 C 74.30 28.27 70.47 22.40 65.62 19.72 C 67.68 20.02 69.76 20.23 71.82 20.49 C 71.72 19.75 71.62 19.00 71.52 18.26 Z" />
<path fill="#c4b495" opacity="1.00" d=" M 13.96 55.01 C 14.12 44.29 13.33 33.53 14.44 22.84 C 14.99 40.09 15.15 57.35 15.33 74.60 L 15.12 75.43 C 15.03 75.82 14.85 76.62 14.76 77.01 C 13.02 69.80 14.38 62.33 13.96 55.01 Z" />
<path fill="#878fa4" opacity="0.95" d=" M 34.34 31.81 C 39.04 28.57 44.21 25.44 49.94 24.57 C 55.13 25.43 59.50 28.72 64.18 30.95 C 63.96 31.25 63.53 31.86 63.31 32.17 L 63.92 32.59 C 59.90 30.34 55.89 27.95 51.51 26.49 C 48.91 25.56 46.38 27.13 44.05 28.10 C 40.93 29.63 37.61 30.66 34.34 31.81 Z" />
<path fill="#6a8a92" opacity="0.93" d=" M 25.14 29.03 C 28.47 27.87 31.77 26.57 34.83 24.79 C 33.82 26.76 32.97 28.88 31.45 30.53 C 28.29 32.78 23.11 32.57 21.96 37.01 C 21.92 34.78 21.67 32.57 21.43 30.36 C 22.67 29.93 23.91 29.49 25.14 29.03 Z" />
<path fill="#02002e" opacity="0.67" d=" M 44.05 28.10 C 46.38 27.13 48.91 25.56 51.51 26.49 C 55.89 27.95 59.90 30.34 63.92 32.59 C 64.54 32.98 65.15 33.38 65.77 33.77 C 60.63 33.62 56.33 30.46 51.56 28.95 C 53.52 31.19 55.57 33.64 58.52 34.55 C 61.56 35.47 64.77 35.49 67.90 35.90 C 68.17 36.07 68.70 36.42 68.96 36.59 C 69.58 37.58 70.15 38.59 70.73 39.60 C 69.56 41.45 68.43 43.36 67.87 45.50 C 67.68 46.22 67.29 47.65 67.10 48.36 C 65.24 45.13 62.84 42.26 60.33 39.53 C 59.92 39.08 59.10 38.17 58.68 37.72 C 55.87 39.99 53.14 42.36 50.43 44.74 C 46.90 42.25 43.47 39.64 40.05 37.02 C 34.41 43.75 28.11 52.18 30.45 61.50 C 30.78 61.24 31.43 60.72 31.76 60.46 L 32.53 59.87 C 33.06 60.18 34.11 60.79 34.63 61.09 C 33.86 62.09 33.09 63.08 32.32 64.07 C 33.39 65.02 34.48 65.96 35.54 66.93 C 35.84 67.21 36.44 67.77 36.74 68.05 C 36.86 68.57 37.12 69.59 37.25 70.11 C 35.59 69.39 33.94 68.67 32.32 67.87 C 30.36 64.89 28.86 61.63 27.48 58.35 C 28.04 53.12 29.92 48.19 31.97 43.40 C 31.32 42.54 30.66 41.69 30.00 40.84 C 29.64 40.39 28.93 39.47 28.57 39.01 C 30.20 37.69 31.84 36.38 33.49 35.09 C 36.02 34.81 38.61 34.76 41.05 33.99 C 43.55 32.96 45.39 30.87 47.35 29.07 C 42.94 30.71 38.49 32.23 33.93 33.39 C 34.03 33.00 34.24 32.21 34.34 31.81 C 37.61 30.66 40.93 29.63 44.05 28.10 M 42.76 35.93 C 43.39 36.64 44.03 37.35 44.66 38.06 C 46.50 39.66 48.32 41.26 50.15 42.87 C 51.87 41.06 53.59 39.24 55.52 37.64 C 55.37 34.29 51.57 32.48 49.74 29.94 C 47.47 32.01 45.12 33.98 42.76 35.93 M 31.35 38.50 C 32.11 39.72 32.88 40.94 33.65 42.16 C 35.00 40.38 36.29 38.56 37.52 36.70 C 35.45 37.26 33.39 37.87 31.35 38.50 M 60.89 36.71 C 62.29 38.62 63.74 40.49 65.21 42.34 C 66.18 40.97 67.15 39.59 68.10 38.20 C 65.70 37.67 63.30 37.17 60.89 36.71 Z" />
<path fill="#4a5386" opacity="0.87" d=" M 64.18 30.95 C 65.76 28.90 67.55 27.04 69.35 25.18 C 71.69 26.64 74.30 27.91 75.99 30.16 C 76.78 33.63 76.37 37.22 76.31 40.75 C 74.92 41.39 73.53 42.04 72.15 42.69 C 71.84 40.33 71.36 37.69 68.96 36.59 C 68.70 36.42 68.17 36.07 67.90 35.90 C 68.34 34.77 68.79 33.64 69.24 32.51 C 68.09 32.94 66.93 33.37 65.77 33.77 C 65.15 33.38 64.54 32.98 63.92 32.59 L 63.31 32.17 C 63.53 31.86 63.96 31.25 64.18 30.95 Z" />
<path fill="#527392" opacity="0.79" d=" M 18.19 39.72 C 17.70 35.34 17.96 30.89 19.52 26.74 C 20.82 32.17 21.24 37.75 21.80 43.29 C 22.04 45.91 22.50 48.50 22.95 51.09 C 25.20 49.19 27.46 47.32 29.73 45.45 C 29.20 44.60 28.66 43.75 28.13 42.90 C 28.75 42.21 29.38 41.53 30.00 40.84 C 30.66 41.69 31.32 42.54 31.97 43.40 C 29.92 48.19 28.04 53.12 27.48 58.35 L 27.17 57.53 C 26.99 56.85 26.64 55.48 26.47 54.80 C 25.08 58.25 23.46 61.60 21.87 64.96 C 20.95 58.30 20.68 51.57 19.68 44.92 C 18.38 50.52 17.95 56.29 18.45 62.02 C 18.53 65.86 19.72 70.46 16.38 73.33 C 16.33 66.00 15.74 58.67 16.42 51.35 C 17.54 47.58 18.65 43.69 18.19 39.72 Z" />
<path fill="#a5b7bf" opacity="0.95" d=" M 33.93 33.39 C 38.49 32.23 42.94 30.71 47.35 29.07 C 45.39 30.87 43.55 32.96 41.05 33.99 C 38.61 34.76 36.02 34.81 33.49 35.09 C 33.60 34.67 33.82 33.82 33.93 33.39 Z" />
<path fill="#a5b1bc" opacity="0.96" d=" M 51.56 28.95 C 56.33 30.46 60.63 33.62 65.77 33.77 C 66.93 33.37 68.09 32.94 69.24 32.51 C 68.79 33.64 68.34 34.77 67.90 35.90 C 64.77 35.49 61.56 35.47 58.52 34.55 C 55.57 33.64 53.52 31.19 51.56 28.95 Z" />
<path fill="#b5c5c9" opacity="0.96" d=" M 42.76 35.93 C 45.12 33.98 47.47 32.01 49.74 29.94 C 51.57 32.48 55.37 34.29 55.52 37.64 C 53.51 36.01 51.56 34.30 49.61 32.61 C 47.95 34.41 46.29 36.22 44.66 38.06 C 44.03 37.35 43.39 36.64 42.76 35.93 Z" />
<path fill="#75818f" opacity="0.84" d=" M 44.66 38.06 C 46.29 36.22 47.95 34.41 49.61 32.61 C 51.56 34.30 53.51 36.01 55.52 37.64 C 53.59 39.24 51.87 41.06 50.15 42.87 C 48.32 41.26 46.50 39.66 44.66 38.06 Z" />
<path fill="#cdccb9" opacity="0.91" d=" M 68.96 36.59 C 71.36 37.69 71.84 40.33 72.15 42.69 C 71.48 43.00 70.15 43.61 69.48 43.92 C 71.31 48.84 72.92 53.90 73.29 59.18 C 72.58 61.19 71.67 63.12 70.65 64.99 C 68.45 68.90 65.08 72.13 60.89 73.81 C 59.18 74.30 57.45 74.70 55.73 75.11 C 55.31 74.58 54.47 73.52 54.06 72.98 C 55.36 72.70 56.66 72.40 57.96 72.08 C 66.59 71.30 72.39 62.21 71.37 53.99 C 71.07 50.87 69.41 48.15 67.87 45.50 C 68.43 43.36 69.56 41.45 70.73 39.60 C 70.15 38.59 69.58 37.58 68.96 36.59 Z" />
<path fill="#a2afb7" opacity="0.93" d=" M 31.35 38.50 C 33.39 37.87 35.45 37.26 37.52 36.70 C 36.29 38.56 35.00 40.38 33.65 42.16 C 32.88 40.94 32.11 39.72 31.35 38.50 Z" />
<path fill="#b4c2cd" opacity="0.96" d=" M 40.05 37.02 C 43.47 39.64 46.90 42.25 50.43 44.74 C 53.14 42.36 55.87 39.99 58.68 37.72 C 59.10 38.17 59.92 39.08 60.33 39.53 C 58.26 40.89 56.16 42.22 54.21 43.75 C 53.26 44.70 52.36 45.70 51.46 46.70 C 50.89 46.55 50.32 46.41 49.75 46.27 C 49.49 48.12 49.58 50.10 48.76 51.81 C 47.32 53.76 45.28 55.14 43.41 56.65 C 43.74 59.04 44.15 61.41 44.60 63.77 C 44.13 65.83 43.58 67.87 43.05 69.92 C 42.82 69.28 42.36 68.00 42.14 67.36 C 42.13 63.30 42.08 59.25 41.91 55.19 C 43.98 53.54 46.47 52.16 47.78 49.77 C 48.06 47.60 46.90 45.57 46.06 43.64 C 44.34 42.07 42.51 40.64 40.70 39.18 C 35.64 45.13 31.02 52.30 31.76 60.46 C 31.43 60.72 30.78 61.24 30.45 61.50 C 28.11 52.18 34.41 43.75 40.05 37.02 Z" />
<path fill="#939fb3" opacity="0.96" d=" M 60.89 36.71 C 63.30 37.17 65.70 37.67 68.10 38.20 C 67.15 39.59 66.18 40.97 65.21 42.34 C 63.74 40.49 62.29 38.62 60.89 36.71 Z" />
<path fill="#657a92" opacity="0.92" d=" M 31.76 60.46 C 31.02 52.30 35.64 45.13 40.70 39.18 C 42.51 40.64 44.34 42.07 46.06 43.64 C 43.79 44.17 41.52 44.73 39.26 45.32 C 38.39 50.63 37.42 56.67 32.53 59.87 L 31.76 60.46 Z" />
<path fill="#5365ad" opacity="0.95" d=" M 54.21 43.75 C 56.16 42.22 58.26 40.89 60.33 39.53 C 62.84 42.26 65.24 45.13 67.10 48.36 C 69.57 52.34 70.08 57.12 68.96 61.63 C 66.99 60.02 65.02 58.38 63.36 56.45 C 63.50 53.13 63.22 49.79 62.35 46.58 C 61.95 46.41 61.16 46.07 60.77 45.91 C 58.62 45.07 56.42 44.40 54.21 43.75 Z" />
<path fill="#3f53ad" opacity="0.86" d=" M 72.15 42.69 C 73.53 42.04 74.92 41.39 76.31 40.75 C 76.24 43.09 76.22 45.42 76.18 47.76 C 75.61 51.65 74.62 55.48 73.29 59.18 C 72.92 53.90 71.31 48.84 69.48 43.92 C 70.15 43.61 71.48 43.00 72.15 42.69 Z" />
<path fill="#dde5d7" opacity="0.95" d=" M 76.33 58.18 C 76.48 52.97 76.80 47.77 77.60 42.62 C 78.43 49.40 78.31 56.25 78.54 63.07 C 78.45 65.07 78.33 67.06 78.15 69.06 C 77.35 69.61 76.54 70.16 75.74 70.70 C 75.80 67.72 75.85 64.74 76.06 61.77 C 76.18 60.57 76.27 59.38 76.33 58.18 Z" />
<path fill="#151a4a" opacity="0.90" d=" M 39.26 45.32 C 41.52 44.73 43.79 44.17 46.06 43.64 C 46.90 45.57 48.06 47.60 47.78 49.77 C 46.47 52.16 43.98 53.54 41.91 55.19 C 42.08 59.25 42.13 63.30 42.14 67.36 C 40.25 63.12 39.55 58.50 39.70 53.88 C 39.26 54.56 38.81 55.24 38.36 55.92 C 37.18 57.69 35.94 59.42 34.63 61.09 C 34.11 60.79 33.06 60.18 32.53 59.87 C 37.42 56.67 38.39 50.63 39.26 45.32 M 39.90 47.08 C 40.20 49.04 40.53 51.00 40.88 52.96 C 42.61 51.95 44.34 50.94 46.07 49.94 C 45.93 48.35 45.78 46.77 45.62 45.19 C 43.71 45.82 41.80 46.45 39.90 47.08 Z" />
<path fill="#101547" opacity="0.91" d=" M 51.46 46.70 C 52.36 45.70 53.26 44.70 54.21 43.75 C 56.42 44.40 58.62 45.07 60.77 45.91 C 61.09 49.52 61.62 53.20 63.36 56.45 C 65.02 58.38 66.99 60.02 68.96 61.63 C 70.08 57.12 69.57 52.34 67.10 48.36 C 67.29 47.65 67.68 46.22 67.87 45.50 C 69.41 48.15 71.07 50.87 71.37 53.99 C 72.39 62.21 66.59 71.30 57.96 72.08 C 58.22 71.78 58.74 71.16 59.00 70.86 L 59.44 70.34 C 62.07 68.24 64.69 66.14 67.20 63.90 C 65.48 61.83 63.74 59.77 62.15 57.59 C 61.29 56.36 60.50 55.08 59.69 53.82 C 59.69 58.37 58.98 62.88 57.51 67.18 C 57.38 63.21 57.39 59.23 57.80 55.28 C 55.69 54.02 53.55 52.84 51.36 51.72 C 51.35 50.05 51.42 48.37 51.46 46.70 M 54.10 45.54 C 53.77 47.14 53.44 48.73 53.09 50.32 L 53.71 50.01 C 55.41 51.08 57.10 52.19 58.76 53.32 C 58.95 51.31 59.15 49.30 59.32 47.29 C 57.56 46.77 55.83 46.17 54.10 45.54 Z" />
<path fill="#284365" opacity="0.66" d=" M 18.45 62.02 C 17.95 56.29 18.38 50.52 19.68 44.92 C 20.68 51.57 20.95 58.30 21.87 64.96 C 21.02 67.13 20.31 69.35 19.70 71.59 C 18.41 72.37 17.11 73.15 15.85 73.99 L 16.38 73.33 C 19.72 70.46 18.53 65.86 18.45 62.02 Z" />
<path fill="#878fa4" opacity="0.95" d=" M 39.90 47.08 C 41.80 46.45 43.71 45.82 45.62 45.19 C 45.78 46.77 45.93 48.35 46.07 49.94 C 44.34 50.94 42.61 51.95 40.88 52.96 C 40.53 51.00 40.20 49.04 39.90 47.08 Z" />
<path fill="#0825d0" opacity="0.82" d=" M 80.16 59.80 C 79.96 54.60 80.08 49.25 82.59 44.54 C 82.79 49.32 83.03 54.11 83.35 58.89 C 82.29 59.19 81.22 59.49 80.16 59.80 Z" />
<path fill="#5c79b0" opacity="0.96" d=" M 49.75 46.27 C 50.32 46.41 50.89 46.55 51.46 46.70 C 51.42 48.37 51.35 50.05 51.36 51.72 C 52.09 54.73 55.26 54.91 57.80 55.28 C 57.39 59.23 57.38 63.21 57.51 67.18 C 57.45 67.45 57.32 67.97 57.26 68.24 C 56.64 67.31 56.03 66.37 55.41 65.44 C 53.67 67.93 51.96 70.45 50.00 72.78 C 48.18 73.06 46.35 73.36 44.53 73.69 C 46.32 70.52 46.07 67.00 44.60 63.77 C 44.15 61.41 43.74 59.04 43.41 56.65 C 45.28 55.14 47.32 53.76 48.76 51.81 C 49.58 50.10 49.49 48.12 49.75 46.27 Z" />
<path fill="#adbccb" opacity="1.00" d=" M 54.10 45.54 C 55.83 46.17 57.56 46.77 59.32 47.29 C 57.43 48.16 55.56 49.06 53.71 50.01 L 53.09 50.32 C 53.44 48.73 53.77 47.14 54.10 45.54 Z" />
<path fill="#9dacc8" opacity="1.00" d=" M 60.77 45.91 C 61.16 46.07 61.95 46.41 62.35 46.58 C 63.22 49.79 63.50 53.13 63.36 56.45 C 61.62 53.20 61.09 49.52 60.77 45.91 Z" />
<path fill="#576793" opacity="0.95" d=" M 53.71 50.01 C 55.56 49.06 57.43 48.16 59.32 47.29 C 59.15 49.30 58.95 51.31 58.76 53.32 C 57.10 52.19 55.41 51.08 53.71 50.01 Z" />
<path fill="#072087" opacity="0.86" d=" M 73.29 59.18 C 74.62 55.48 75.61 51.65 76.18 47.76 C 76.21 51.23 76.41 54.70 76.33 58.18 C 76.27 59.38 76.18 60.57 76.06 61.77 C 75.36 63.54 74.57 65.28 73.80 67.02 C 72.75 66.35 71.70 65.67 70.65 64.99 C 71.67 63.12 72.58 61.19 73.29 59.18 Z" />
<path fill="#a6b9d1" opacity="1.00" d=" M 57.80 55.28 C 55.26 54.91 52.09 54.73 51.36 51.72 C 53.55 52.84 55.69 54.02 57.80 55.28 Z" />
<path fill="#629cb4" opacity="0.95" d=" M 38.36 55.92 C 38.81 55.24 39.26 54.56 39.70 53.88 C 39.55 58.50 40.25 63.12 42.14 67.36 C 42.36 68.00 42.82 69.28 43.05 69.92 C 43.58 67.87 44.13 65.83 44.60 63.77 C 46.07 67.00 46.32 70.52 44.53 73.69 C 46.35 73.36 48.18 73.06 50.00 72.78 C 46.71 75.27 42.67 76.33 38.75 77.37 C 37.45 76.81 36.12 76.32 34.80 75.83 C 38.60 79.33 43.18 81.78 47.13 85.09 C 47.84 85.72 48.55 86.37 49.25 87.02 C 49.19 87.86 49.07 89.54 49.02 90.38 C 44.44 85.81 38.55 83.04 33.10 79.72 L 32.69 78.86 C 33.26 78.98 34.41 79.21 34.99 79.33 C 34.51 78.64 34.01 77.95 33.50 77.28 C 31.14 73.27 26.89 71.15 23.17 68.64 C 23.13 68.15 23.04 67.16 23.00 66.66 C 24.77 66.47 26.54 66.29 28.30 66.10 C 28.01 63.23 27.66 60.37 27.17 57.53 L 27.48 58.35 C 28.86 61.63 30.36 64.89 32.32 67.87 C 33.89 71.15 37.38 72.41 40.71 73.10 C 39.61 71.25 38.36 69.48 36.74 68.05 C 36.44 67.77 35.84 67.21 35.54 66.93 C 35.38 63.50 37.15 60.55 39.15 57.93 C 38.95 57.42 38.56 56.42 38.36 55.92 Z" />
<path fill="#cdccb9" opacity="0.91" d=" M 57.51 67.18 C 58.98 62.88 59.69 58.37 59.69 53.82 C 60.50 55.08 61.29 56.36 62.15 57.59 C 60.81 61.74 60.09 66.04 59.44 70.34 L 59.00 70.86 C 58.42 69.98 57.84 69.11 57.26 68.24 C 57.32 67.97 57.45 67.45 57.51 67.18 Z" />
<path fill="#5584b1" opacity="0.84" d=" M 21.87 64.96 C 23.46 61.60 25.08 58.25 26.47 54.80 C 26.64 55.48 26.99 56.85 27.17 57.53 C 27.66 60.37 28.01 63.23 28.30 66.10 C 26.54 66.29 24.77 66.47 23.00 66.66 C 23.04 67.16 23.13 68.15 23.17 68.64 C 26.89 71.15 31.14 73.27 33.50 77.28 C 29.66 74.92 25.77 72.63 22.08 70.03 C 21.62 70.59 20.71 71.70 20.25 72.26 L 19.70 71.59 C 20.31 69.35 21.02 67.13 21.87 64.96 Z" />
<path fill="#b4cedf" opacity="1.00" d=" M 38.36 55.92 C 38.56 56.42 38.95 57.42 39.15 57.93 C 37.15 60.55 35.38 63.50 35.54 66.93 C 34.48 65.96 33.39 65.02 32.32 64.07 C 33.09 63.08 33.86 62.09 34.63 61.09 C 35.94 59.42 37.18 57.69 38.36 55.92 Z" />
<path fill="#5077a9" opacity="0.94" d=" M 62.15 57.59 C 63.74 59.77 65.48 61.83 67.20 63.90 C 64.69 66.14 62.07 68.24 59.44 70.34 C 60.09 66.04 60.81 61.74 62.15 57.59 Z" />
<path fill="#384a84" opacity="0.87" d=" M 73.80 67.02 C 74.57 65.28 75.36 63.54 76.06 61.77 C 75.85 64.74 75.80 67.72 75.74 70.70 C 74.42 71.59 73.10 72.47 71.77 73.32 C 72.00 72.19 72.25 71.05 72.49 69.92 C 68.46 72.05 64.40 74.11 60.30 76.11 C 60.45 75.53 60.75 74.38 60.89 73.81 C 65.08 72.13 68.45 68.90 70.65 64.99 C 71.70 65.67 72.75 66.35 73.80 67.02 Z" />
<path fill="#545e93" opacity="0.69" d=" M 78.54 63.07 L 78.58 62.17 C 80.51 64.94 82.16 67.98 82.69 71.35 C 82.62 72.54 82.57 73.72 82.51 74.91 C 74.39 73.35 69.67 82.64 61.80 82.13 C 67.17 78.76 72.50 75.31 77.84 71.88 C 77.92 71.17 78.07 69.76 78.15 69.06 C 78.33 67.06 78.45 65.07 78.54 63.07 Z" />
<path fill="#839e8e" opacity="0.95" d=" M 50.00 72.78 C 51.96 70.45 53.67 67.93 55.41 65.44 C 56.03 66.37 56.64 67.31 57.26 68.24 C 57.84 69.11 58.42 69.98 59.00 70.86 C 58.74 71.16 58.22 71.78 57.96 72.08 C 56.66 72.40 55.36 72.70 54.06 72.98 C 54.47 73.52 55.31 74.58 55.73 75.11 C 54.08 78.17 52.40 81.23 50.39 84.07 C 46.44 81.94 42.74 79.39 38.75 77.37 C 42.67 76.33 46.71 75.27 50.00 72.78 Z" />
<path fill="#7c83a7" opacity="0.93" d=" M 82.69 71.35 C 83.05 69.43 83.52 67.53 83.89 65.62 C 84.19 69.29 84.32 72.98 84.19 76.67 C 83.24 77.07 82.30 77.50 81.37 77.93 C 73.93 79.32 68.50 85.17 61.87 88.40 C 62.39 86.92 62.92 85.43 63.47 83.95 C 58.67 86.74 53.86 89.50 48.97 92.14 L 48.99 91.25 L 49.02 90.38 C 52.75 87.23 56.92 84.69 61.08 82.16 L 61.80 82.13 C 69.67 82.64 74.39 73.35 82.51 74.91 C 82.57 73.72 82.62 72.54 82.69 71.35 Z" />
<path fill="#9cc0ca" opacity="0.98" d=" M 40.71 73.10 C 37.38 72.41 33.89 71.15 32.32 67.87 C 33.94 68.67 35.59 69.39 37.25 70.11 C 37.12 69.59 36.86 68.57 36.74 68.05 C 38.36 69.48 39.61 71.25 40.71 73.10 Z" />
<path fill="#93a5cf" opacity="1.00" d=" M 75.74 70.70 C 76.54 70.16 77.35 69.61 78.15 69.06 C 78.07 69.76 77.92 71.17 77.84 71.88 C 72.50 75.31 67.17 78.76 61.80 82.13 L 61.08 82.16 C 60.72 81.84 60.00 81.19 59.64 80.87 C 63.64 78.28 67.72 75.84 71.77 73.32 C 73.10 72.47 74.42 71.59 75.74 70.70 Z" />
<path fill="#a1c7ca" opacity="0.98" d=" M 20.25 72.26 C 20.71 71.70 21.62 70.59 22.08 70.03 C 25.77 72.63 29.66 74.92 33.50 77.28 C 34.01 77.95 34.51 78.64 34.99 79.33 C 34.41 79.21 33.26 78.98 32.69 78.86 C 28.90 76.55 24.97 74.47 20.82 72.89 L 20.25 72.26 Z" />
<path fill="#808369" opacity="0.86" d=" M 60.30 76.11 C 64.40 74.11 68.46 72.05 72.49 69.92 C 72.25 71.05 72.00 72.19 71.77 73.32 C 67.72 75.84 63.64 78.28 59.64 80.87 C 56.22 83.00 52.76 85.05 49.25 87.02 C 48.55 86.37 47.84 85.72 47.13 85.09 C 48.22 84.77 49.31 84.43 50.39 84.07 C 52.40 81.23 54.08 78.17 55.73 75.11 C 57.45 74.70 59.18 74.30 60.89 73.81 C 60.75 74.38 60.45 75.53 60.30 76.11 Z" />
<path fill="#8ea197" opacity="0.81" d=" M 15.85 73.99 C 17.11 73.15 18.41 72.37 19.70 71.59 L 20.25 72.26 L 20.82 72.89 C 22.70 75.04 24.60 77.18 26.55 79.27 C 26.04 79.88 25.53 80.48 25.01 81.09 C 21.73 79.18 18.47 77.23 15.12 75.43 L 15.33 74.60 L 15.85 73.99 Z" />
<path fill="#627ba7" opacity="0.80" d=" M 20.82 72.89 C 24.97 74.47 28.90 76.55 32.69 78.86 L 33.10 79.72 C 35.35 86.62 43.17 88.42 48.99 91.25 L 48.97 92.14 C 48.95 93.49 48.93 94.84 48.92 96.20 C 45.77 94.26 42.67 92.24 39.49 90.36 C 34.94 86.85 30.01 83.89 25.01 81.09 C 25.53 80.48 26.04 79.88 26.55 79.27 C 24.60 77.18 22.70 75.04 20.82 72.89 Z" />
<path fill="#dde1d6" opacity="1.00" d=" M 15.12 75.43 C 18.47 77.23 21.73 79.18 25.01 81.09 C 30.01 83.89 34.94 86.85 39.49 90.36 C 39.03 90.55 38.11 90.94 37.65 91.14 C 29.97 86.51 22.15 82.07 14.76 77.01 C 14.85 76.62 15.03 75.82 15.12 75.43 Z" />
<path fill="#b4baa6" opacity="0.94" d=" M 34.80 75.83 C 36.12 76.32 37.45 76.81 38.75 77.37 C 42.74 79.39 46.44 81.94 50.39 84.07 C 49.31 84.43 48.22 84.77 47.13 85.09 C 43.18 81.78 38.60 79.33 34.80 75.83 Z" />
<path fill="#c5cbd5" opacity="1.00" d=" M 61.87 88.40 C 68.50 85.17 73.93 79.32 81.37 77.93 C 78.79 79.78 76.43 81.91 73.98 83.92 C 69.38 86.23 64.92 88.80 60.66 91.69 C 56.90 94.16 53.17 96.91 48.73 98.01 C 52.33 93.85 57.24 91.24 61.87 88.40 Z" />
<path fill="#465780" opacity="0.89" d=" M 33.10 79.72 C 38.55 83.04 44.44 85.81 49.02 90.38 L 48.99 91.25 C 43.17 88.42 35.35 86.62 33.10 79.72 Z" />
<path fill="#dce7df" opacity="1.00" d=" M 49.25 87.02 C 52.76 85.05 56.22 83.00 59.64 80.87 C 60.00 81.19 60.72 81.84 61.08 82.16 C 56.92 84.69 52.75 87.23 49.02 90.38 C 49.07 89.54 49.19 87.86 49.25 87.02 Z" />
<path fill="#b5b9a3" opacity="0.93" d=" M 48.97 92.14 C 53.86 89.50 58.67 86.74 63.47 83.95 C 62.92 85.43 62.39 86.92 61.87 88.40 C 57.24 91.24 52.33 93.85 48.73 98.01 C 44.78 96.14 41.24 93.58 37.65 91.14 C 38.11 90.94 39.03 90.55 39.49 90.36 C 42.67 92.24 45.77 94.26 48.92 96.20 C 48.93 94.84 48.95 93.49 48.97 92.14 Z" />
</svg>
