<?xml version="1.0" encoding="UTF-8" ?>
<!DOCTYPE svg PUBLIC "-//W3C//DTD SVG 1.1//EN" "http://www.w3.org/Graphics/SVG/1.1/DTD/svg11.dtd">
<svg width="100pt" height="100pt" viewBox="0 0 100 100" version="1.1" xmlns="http://www.w3.org/2000/svg">
<path fill="#010036" opacity="0.86" d=" M 48.38 0.00 L 50.49 0.00 C 56.66 4.49 63.44 8.08 69.32 12.96 L 68.45 12.95 C 61.66 9.72 56.28 3.83 48.99 1.65 C 48.60 1.86 47.83 2.28 47.44 2.48 C 44.62 4.02 41.82 5.63 39.18 7.47 C 31.01 12.69 22.78 17.84 14.48 22.86 C 13.29 33.53 14.18 44.29 13.98 55.00 C 14.39 62.32 13.01 69.80 14.79 77.00 C 22.17 82.08 30.03 86.48 37.68 91.17 C 41.26 93.60 44.80 96.13 48.74 97.98 C 52.95 97.00 56.49 94.39 60.05 92.07 C 64.52 89.07 69.14 86.29 73.97 83.91 C 66.53 90.19 57.66 94.36 49.76 100.00 L 48.49 100.00 C 37.16 91.91 25.03 85.03 13.23 77.66 C 12.92 59.23 12.92 40.79 13.26 22.37 C 25.04 15.03 36.86 7.74 48.38 0.00 Z" />
<path fill="#bec4b3" opacity="0.89" d=" M 48.99 1.65 C 56.28 3.83 61.66 9.72 68.45 12.95 C 67.19 12.96 65.94 13.00 64.68 13.02 C 61.53 10.65 57.69 10.05 53.87 9.89 C 50.22 9.76 49.48 5.54 49.03 2.68 L 48.99 1.65 Z" />
<path fill="#3c4877" opacity="0.88" d=" M 47.44 2.48 C 47.83 2.28 48.60 1.86 48.99 1.65 L 49.03 2.68 C 49.06 5.12 48.99 7.56 48.89 9.99 C 46.36 11.36 43.84 12.74 41.33 14.13 C 42.68 12.27 44.02 10.41 45.35 8.54 C 44.79 8.53 43.65 8.50 43.08 8.49 C 44.75 6.65 46.28 4.68 47.44 2.48 Z" />
<path fill="#6a7f90" opacity="0.92" d=" M 39.18 7.47 C 41.82 5.63 44.62 4.02 47.44 2.48 C 46.28 4.68 44.75 6.65 43.08 8.49 C 43.65 8.50 44.79 8.53 45.35 8.54 C 44.02 10.41 42.68 12.27 41.33 14.13 C 43.84 12.74 46.36 11.36 48.89 9.99 C 49.99 11.74 51.17 13.46 52.68 14.89 C 52.76 15.26 52.94 15.99 53.03 16.36 C 47.11 16.24 42.43 20.09 37.81 23.25 C 34.68 25.33 32.72 28.65 29.85 30.99 C 27.53 32.59 22.86 31.78 22.70 35.48 C 21.91 40.45 22.33 45.51 22.05 50.51 C 21.70 50.67 21.01 50.98 20.66 51.14 C 20.35 49.07 19.93 47.01 19.48 44.97 C 18.11 52.38 17.75 59.96 18.29 67.48 C 18.60 69.64 17.76 71.67 16.46 73.37 C 16.19 66.03 15.47 58.67 16.35 51.34 C 19.66 43.44 16.04 34.74 19.15 26.81 C 19.65 27.92 20.14 29.03 20.62 30.15 C 28.95 28.16 35.00 21.60 41.25 16.19 C 39.61 16.70 37.97 17.21 36.33 17.69 C 35.88 17.59 35.00 17.39 34.55 17.29 C 35.57 16.43 36.56 15.54 37.55 14.65 C 37.63 13.48 37.70 12.31 37.83 11.15 C 38.20 9.89 38.66 8.67 39.18 7.47 Z" />
<path fill="#919ea0" opacity="0.89" d=" M 49.03 2.68 C 49.48 5.54 50.22 9.76 53.87 9.89 C 57.69 10.05 61.53 10.65 64.68 13.02 C 64.10 14.81 63.52 16.60 62.94 18.38 C 58.18 15.71 53.91 12.20 48.89 9.99 C 48.99 7.56 49.06 5.12 49.03 2.68 Z" />
<path fill="#d9dac9" opacity="0.94" d=" M 14.48 22.86 C 22.78 17.84 31.01 12.69 39.18 7.47 C 38.66 8.67 38.20 9.89 37.83 11.15 C 31.88 14.86 25.92 18.56 19.82 22.02 C 18.57 22.75 17.31 23.49 16.06 24.24 C 15.63 33.27 15.80 42.32 16.35 51.34 C 15.47 58.67 16.19 66.03 16.46 73.37 L 15.98 74.09 L 15.34 74.67 C 15.14 57.40 15.09 40.12 14.48 22.86 Z" />
<path fill="#c2ccd0" opacity="0.98" d=" M 48.89 9.99 C 53.91 12.20 58.18 15.71 62.94 18.38 C 63.90 18.85 64.88 19.27 65.88 19.64 C 65.26 20.46 64.65 21.28 64.04 22.10 C 60.30 19.62 56.46 17.30 52.68 14.89 C 51.17 13.46 49.99 11.74 48.89 9.99 Z" />
<path fill="#cdccb9" opacity="0.91" d=" M 19.82 22.02 C 25.92 18.56 31.88 14.86 37.83 11.15 C 37.70 12.31 37.63 13.48 37.55 14.65 C 36.56 15.54 35.57 16.43 34.55 17.29 C 30.63 18.91 27.16 21.43 23.27 23.11 C 22.02 23.77 20.93 22.41 19.82 22.02 Z" />
<path fill="#6f78b1" opacity="0.82" d=" M 64.68 13.02 C 65.94 13.00 67.19 12.96 68.45 12.95 L 69.32 12.96 C 72.34 15.70 75.60 18.17 78.78 20.71 C 76.43 19.90 74.08 19.10 71.73 18.30 C 71.68 19.03 71.64 19.76 71.59 20.49 C 69.68 20.24 67.77 20.01 65.88 19.64 C 64.88 19.27 63.90 18.85 62.94 18.38 C 63.52 16.60 64.10 14.81 64.68 13.02 Z" />
<path fill="#393080" opacity="1.00" d=" M 69.32 12.96 C 74.60 16.30 80.79 18.55 85.09 23.22 C 85.68 26.10 85.49 29.07 85.50 31.99 C 85.35 45.35 85.43 58.71 85.50 72.06 C 85.28 74.06 85.80 76.58 84.05 78.02 C 81.16 80.69 77.42 82.13 73.97 83.91 C 76.46 81.92 78.81 79.75 81.32 77.78 C 82.28 77.45 83.24 77.13 84.20 76.81 C 84.31 73.07 84.23 69.34 83.90 65.61 C 83.77 63.38 83.52 61.16 83.34 58.94 C 83.04 54.14 82.83 49.34 82.59 44.54 C 83.28 38.01 83.46 31.43 84.08 24.90 C 82.57 24.87 81.03 24.99 79.56 24.62 C 79.16 23.35 78.99 22.02 78.78 20.71 C 75.60 18.17 72.34 15.70 69.32 12.96 Z" />
<path fill="#565b74" opacity="0.87" d=" M 53.03 16.36 C 52.94 15.99 52.76 15.26 52.68 14.89 C 56.46 17.30 60.30 19.62 64.04 22.10 C 67.88 24.79 72.34 26.85 75.34 30.56 C 76.87 33.83 76.15 37.64 76.22 41.14 C 75.50 40.03 74.78 38.91 74.07 37.80 C 74.20 37.31 74.46 36.34 74.59 35.86 C 73.45 36.41 72.32 36.96 71.18 37.52 C 69.88 37.63 68.56 37.67 67.25 37.64 C 67.81 36.39 68.36 35.14 68.91 33.89 C 68.41 33.81 67.40 33.65 66.89 33.57 C 66.34 33.46 65.23 33.24 64.68 33.13 C 61.82 31.24 59.10 29.13 56.05 27.53 C 50.34 24.84 43.99 24.17 37.81 23.25 C 42.43 20.09 47.11 16.24 53.03 16.36 Z" />
<path fill="#c5d6d9" opacity="1.00" d=" M 36.33 17.69 C 37.97 17.21 39.61 16.70 41.25 16.19 C 35.00 21.60 28.95 28.16 20.62 30.15 C 23.93 23.96 31.27 22.08 36.33 17.69 Z" />
<path fill="#acbaae" opacity="0.87" d=" M 23.27 23.11 C 27.16 21.43 30.63 18.91 34.55 17.29 C 35.00 17.39 35.88 17.59 36.33 17.69 C 31.27 22.08 23.93 23.96 20.62 30.15 C 20.14 29.03 19.65 27.92 19.15 26.81 C 16.04 34.74 19.66 43.44 16.35 51.34 C 15.80 42.32 15.63 33.27 16.06 24.24 C 17.31 23.49 18.57 22.75 19.82 22.02 C 20.93 22.41 22.02 23.77 23.27 23.11 Z" />
<path fill="#374394" opacity="0.80" d=" M 71.73 18.30 C 74.08 19.10 76.43 19.90 78.78 20.71 C 78.99 22.02 79.16 23.35 79.56 24.62 C 81.03 24.99 82.57 24.87 84.08 24.90 C 83.46 31.43 83.28 38.01 82.59 44.54 C 80.08 49.21 79.97 54.54 80.16 59.71 C 81.22 59.45 82.28 59.19 83.34 58.94 C 83.52 61.16 83.77 63.38 83.90 65.61 C 83.54 67.53 83.09 69.43 82.74 71.35 C 82.07 68.05 80.43 65.08 78.84 62.14 C 79.02 55.03 80.04 47.76 77.99 40.81 C 76.67 36.15 77.45 30.94 80.75 27.28 C 74.68 27.96 70.68 22.36 65.88 19.64 C 67.77 20.01 69.68 20.24 71.59 20.49 C 71.64 19.76 71.68 19.03 71.73 18.30 Z" />
<path fill="#7a8cb4" opacity="0.90" d=" M 65.88 19.64 C 70.68 22.36 74.68 27.96 80.75 27.28 C 77.45 30.94 76.67 36.15 77.99 40.81 C 80.04 47.76 79.02 55.03 78.84 62.14 L 78.79 63.10 C 78.05 56.24 78.72 49.31 77.66 42.49 C 76.45 47.64 76.46 52.96 76.36 58.22 C 76.36 54.72 76.09 51.22 76.02 47.72 C 76.08 45.53 76.14 43.33 76.22 41.14 C 76.15 37.64 76.87 33.83 75.34 30.56 C 72.34 26.85 67.88 24.79 64.04 22.10 C 64.65 21.28 65.26 20.46 65.88 19.64 Z" />
<path fill="#c4b495" opacity="1.00" d=" M 13.98 55.00 C 14.18 44.29 13.29 33.53 14.48 22.86 C 15.09 40.12 15.14 57.40 15.34 74.67 L 15.14 75.46 C 15.05 75.85 14.88 76.61 14.79 77.00 C 13.01 69.80 14.39 62.32 13.98 55.00 Z" />
<path fill="#5e6c67" opacity="0.83" d=" M 29.85 30.99 C 32.72 28.65 34.68 25.33 37.81 23.25 C 43.99 24.17 50.34 24.84 56.05 27.53 C 53.80 28.26 51.60 29.34 49.21 29.53 C 46.72 29.17 44.63 27.55 42.45 26.40 C 40.80 31.45 37.77 35.86 33.86 39.42 C 32.91 40.35 31.98 41.30 31.10 42.29 C 29.63 43.60 28.23 44.99 27.00 46.53 C 25.99 47.67 24.96 48.80 23.93 49.92 C 23.46 50.07 22.52 50.37 22.05 50.51 C 22.33 45.51 21.91 40.45 22.70 35.48 C 22.86 31.78 27.53 32.59 29.85 30.99 Z" />
<path fill="#707c89" opacity="0.85" d=" M 42.45 26.40 C 44.63 27.55 46.72 29.17 49.21 29.53 C 51.60 29.34 53.80 28.26 56.05 27.53 C 59.10 29.13 61.82 31.24 64.68 33.13 C 60.62 32.35 56.82 30.60 52.71 30.05 C 52.17 29.96 51.10 29.79 50.57 29.70 C 53.49 32.46 56.97 34.52 60.65 36.11 C 61.02 36.29 61.78 36.67 62.15 36.85 C 60.66 37.62 59.17 38.38 57.68 39.15 C 59.77 39.24 61.87 39.35 63.97 39.35 C 62.86 40.16 61.77 41.00 60.64 41.80 C 56.90 44.37 52.84 46.41 48.67 48.20 C 48.21 45.52 47.90 42.82 47.45 40.15 C 47.00 40.02 46.11 39.77 45.66 39.64 C 43.71 40.71 41.82 41.95 40.24 43.54 C 39.59 44.25 39.46 45.08 39.84 46.04 C 41.01 46.08 42.17 45.96 43.31 45.67 C 43.87 47.32 44.41 48.98 44.95 50.64 C 41.51 52.84 38.15 55.16 34.82 57.52 C 34.23 57.57 33.05 57.69 32.46 57.74 C 31.85 54.62 30.76 51.43 31.32 48.23 C 32.14 44.84 34.10 41.90 35.60 38.80 C 35.16 38.95 34.30 39.26 33.86 39.42 C 37.77 35.86 40.80 31.45 42.45 26.40 Z" />
<path fill="#a7b9c4" opacity="0.96" d=" M 50.57 29.70 C 51.10 29.79 52.17 29.96 52.71 30.05 C 55.87 31.25 58.95 33.07 60.65 36.11 C 56.97 34.52 53.49 32.46 50.57 29.70 Z" />
<path fill="#000026" opacity="0.57" d=" M 52.71 30.05 C 56.82 30.60 60.62 32.35 64.68 33.13 C 65.23 33.24 66.34 33.46 66.89 33.57 C 66.23 34.85 65.56 36.14 64.91 37.44 C 65.49 37.49 66.67 37.59 67.25 37.64 C 68.56 37.67 69.88 37.63 71.18 37.52 C 70.04 38.38 68.94 39.29 67.84 40.20 C 68.25 41.75 68.67 43.29 68.99 44.87 C 69.00 47.59 68.87 50.31 68.81 53.03 C 68.34 51.01 67.88 48.99 67.34 46.99 C 67.13 46.31 66.72 44.95 66.51 44.27 C 66.32 43.71 65.95 42.60 65.76 42.05 C 64.95 42.50 64.14 42.95 63.34 43.41 C 62.66 43.01 61.32 42.20 60.64 41.80 C 61.77 41.00 62.86 40.16 63.97 39.35 C 64.29 39.12 64.93 38.67 65.26 38.44 C 64.22 37.91 63.19 37.38 62.15 36.85 C 61.78 36.67 61.02 36.29 60.65 36.11 C 58.95 33.07 55.87 31.25 52.71 30.05 Z" />
<path fill="#abb1b8" opacity="0.96" d=" M 66.89 33.57 C 67.40 33.65 68.41 33.81 68.91 33.89 C 68.36 35.14 67.81 36.39 67.25 37.64 C 66.67 37.59 65.49 37.49 64.91 37.44 C 65.56 36.14 66.23 34.85 66.89 33.57 Z" />
<path fill="#a6bcce" opacity="0.97" d=" M 71.18 37.52 C 72.32 36.96 73.45 36.41 74.59 35.86 C 74.46 36.34 74.20 37.31 74.07 37.80 C 72.72 38.91 71.36 40.01 70.01 41.12 C 72.61 49.50 72.17 59.80 65.06 65.89 C 63.54 66.92 62.05 67.99 60.49 68.95 C 57.12 70.49 53.64 71.79 50.26 73.32 C 42.80 71.73 33.43 69.89 30.25 61.92 C 31.12 62.73 32.02 63.52 32.93 64.29 C 39.01 69.55 48.33 72.92 55.89 68.84 C 59.46 66.91 63.01 64.78 65.89 61.89 C 69.97 57.31 70.45 50.59 68.99 44.87 C 68.67 43.29 68.25 41.75 67.84 40.20 C 68.94 39.29 70.04 38.38 71.18 37.52 Z" />
<path fill="#aab4c2" opacity="0.95" d=" M 62.15 36.85 C 63.19 37.38 64.22 37.91 65.26 38.44 C 64.93 38.67 64.29 39.12 63.97 39.35 C 61.87 39.35 59.77 39.24 57.68 39.15 C 59.17 38.38 60.66 37.62 62.15 36.85 Z" />
<path fill="#3e50b0" opacity="0.87" d=" M 70.01 41.12 C 71.36 40.01 72.72 38.91 74.07 37.80 C 74.78 38.91 75.50 40.03 76.22 41.14 C 76.14 43.33 76.08 45.53 76.02 47.72 C 75.53 54.10 73.67 60.56 68.89 65.07 C 67.60 65.30 66.32 65.56 65.06 65.89 C 72.17 59.80 72.61 49.50 70.01 41.12 Z" />
<path fill="#a8baca" opacity="0.95" d=" M 33.86 39.42 C 34.30 39.26 35.16 38.95 35.60 38.80 C 34.10 41.90 32.14 44.84 31.32 48.23 C 30.76 51.43 31.85 54.62 32.46 57.74 C 33.05 57.69 34.23 57.57 34.82 57.52 C 39.08 56.78 42.97 54.78 46.90 53.08 C 47.96 54.20 49.03 55.31 50.09 56.43 C 49.73 56.71 49.01 57.28 48.66 57.56 C 48.17 57.02 47.19 55.94 46.70 55.40 C 42.94 56.93 39.18 58.47 35.44 60.05 C 36.44 61.81 37.43 63.58 38.40 65.36 C 36.85 64.33 35.35 63.22 33.93 62.01 C 31.72 58.95 29.84 55.51 29.35 51.72 C 28.95 48.47 30.11 45.32 31.10 42.29 C 31.98 41.30 32.91 40.35 33.86 39.42 Z" />
<path fill="#0a023e" opacity="0.85" d=" M 40.24 43.54 C 41.82 41.95 43.71 40.71 45.66 39.64 C 45.33 42.87 45.36 46.13 45.89 49.34 C 46.82 48.96 47.75 48.58 48.67 48.20 C 52.84 46.41 56.90 44.37 60.64 41.80 C 61.32 42.20 62.66 43.01 63.34 43.41 C 58.15 46.34 53.08 49.51 48.21 52.95 C 49.65 53.64 51.10 54.33 52.55 55.00 C 53.62 53.27 54.70 51.55 55.79 49.85 C 55.66 51.97 55.60 54.12 55.18 56.21 C 52.97 57.52 50.33 57.66 47.87 58.15 L 48.66 57.56 C 49.01 57.28 49.73 56.71 50.09 56.43 C 49.03 55.31 47.96 54.20 46.90 53.08 C 42.97 54.78 39.08 56.78 34.82 57.52 C 38.15 55.16 41.51 52.84 44.95 50.64 C 44.41 48.98 43.87 47.32 43.31 45.67 C 43.12 44.16 41.61 43.49 40.24 43.54 Z" />
<path fill="#a5b4bf" opacity="0.97" d=" M 45.66 39.64 C 46.11 39.77 47.00 40.02 47.45 40.15 C 47.90 42.82 48.21 45.52 48.67 48.20 C 47.75 48.58 46.82 48.96 45.89 49.34 C 45.36 46.13 45.33 42.87 45.66 39.64 Z" />
<path fill="#0c0e37" opacity="0.72" d=" M 27.00 46.53 C 28.23 44.99 29.63 43.60 31.10 42.29 C 30.11 45.32 28.95 48.47 29.35 51.72 C 29.84 55.51 31.72 58.95 33.93 62.01 C 33.68 62.58 33.18 63.72 32.93 64.29 C 32.02 63.52 31.12 62.73 30.25 61.92 C 28.93 59.23 27.73 56.48 26.60 53.71 C 26.51 51.31 26.69 48.91 27.00 46.53 Z" />
<path fill="#a9b9ce" opacity="1.00" d=" M 63.34 43.41 C 64.14 42.95 64.95 42.50 65.76 42.05 C 65.95 42.60 66.32 43.71 66.51 44.27 C 63.34 45.74 60.26 47.41 57.26 49.20 C 57.23 51.86 57.19 54.52 57.14 57.18 C 54.84 58.51 52.51 59.81 50.27 61.24 C 48.82 60.33 47.38 59.43 45.93 58.53 C 46.41 58.43 47.38 58.24 47.87 58.15 C 50.33 57.66 52.97 57.52 55.18 56.21 C 55.60 54.12 55.66 51.97 55.79 49.85 C 54.70 51.55 53.62 53.27 52.55 55.00 C 51.10 54.33 49.65 53.64 48.21 52.95 C 53.08 49.51 58.15 46.34 63.34 43.41 Z" />
<path fill="#b6c2c9" opacity="0.93" d=" M 40.24 43.54 C 41.61 43.49 43.12 44.16 43.31 45.67 C 42.17 45.96 41.01 46.08 39.84 46.04 C 39.46 45.08 39.59 44.25 40.24 43.54 Z" />
<path fill="#dde5d7" opacity="0.95" d=" M 76.36 58.22 C 76.46 52.96 76.45 47.64 77.66 42.49 C 78.72 49.31 78.05 56.24 78.79 63.10 C 78.68 65.10 78.44 67.10 78.18 69.09 C 77.37 69.63 76.56 70.18 75.75 70.73 C 75.87 68.10 75.98 65.48 76.15 62.85 C 76.26 61.31 76.34 59.76 76.36 58.22 Z" />
<path fill="#294365" opacity="0.66" d=" M 19.48 44.97 C 19.93 47.01 20.35 49.07 20.66 51.14 C 21.23 56.06 21.44 61.01 21.53 65.95 C 21.24 67.64 20.82 69.30 20.25 70.92 C 18.89 72.06 17.42 73.05 15.98 74.09 L 16.46 73.37 C 17.76 71.67 18.60 69.64 18.29 67.48 C 17.75 59.96 18.11 52.38 19.48 44.97 Z" />
<path fill="#5667a1" opacity="0.96" d=" M 57.26 49.20 C 60.26 47.41 63.34 45.74 66.51 44.27 C 66.72 44.95 67.13 46.31 67.34 46.99 C 67.61 52.79 61.03 54.47 57.14 57.18 C 57.19 54.52 57.23 51.86 57.26 49.20 Z" />
<path fill="#010036" opacity="0.86" d=" M 68.99 44.87 C 70.45 50.59 69.97 57.31 65.89 61.89 C 63.01 64.78 59.46 66.91 55.89 68.84 C 48.33 72.92 39.01 69.55 32.93 64.29 C 33.18 63.72 33.68 62.58 33.93 62.01 C 35.35 63.22 36.85 64.33 38.40 65.36 C 40.47 66.34 42.66 67.07 44.90 67.58 C 45.58 67.69 46.94 67.91 47.62 68.02 C 55.77 68.36 63.20 62.47 66.11 55.10 C 66.35 54.46 66.84 53.18 67.09 52.54 C 60.03 56.49 53.42 61.16 46.45 65.24 C 47.51 63.72 48.82 62.39 50.27 61.24 C 52.51 59.81 54.84 58.51 57.14 57.18 C 61.03 54.47 67.61 52.79 67.34 46.99 C 67.88 48.99 68.34 51.01 68.81 53.03 C 68.87 50.31 69.00 47.59 68.99 44.87 Z" />
<path fill="#0825d0" opacity="0.82" d=" M 80.16 59.71 C 79.97 54.54 80.08 49.21 82.59 44.54 C 82.83 49.34 83.04 54.14 83.34 58.94 C 82.28 59.19 81.22 59.45 80.16 59.71 Z" />
<path fill="#5178a6" opacity="0.81" d=" M 23.93 49.92 C 24.96 48.80 25.99 47.67 27.00 46.53 C 26.69 48.91 26.51 51.31 26.60 53.71 C 26.60 57.03 27.62 60.22 28.77 63.31 C 26.37 64.23 23.95 65.10 21.53 65.95 C 21.44 61.01 21.23 56.06 20.66 51.14 C 21.01 50.98 21.70 50.67 22.05 50.51 C 22.52 50.37 23.46 50.07 23.93 49.92 Z" />
<path fill="#0b298d" opacity="0.87" d=" M 68.89 65.07 C 73.67 60.56 75.53 54.10 76.02 47.72 C 76.09 51.22 76.36 54.72 76.36 58.22 C 76.34 59.76 76.26 61.31 76.15 62.85 C 75.50 64.23 74.87 65.65 73.90 66.84 C 71.99 68.19 70.27 66.17 68.89 65.07 Z" />
<path fill="#b6c9dc" opacity="1.00" d=" M 46.45 65.24 C 53.42 61.16 60.03 56.49 67.09 52.54 C 66.84 53.18 66.35 54.46 66.11 55.10 C 59.86 59.27 52.87 62.50 47.62 68.02 C 46.94 67.91 45.58 67.69 44.90 67.58 C 45.40 66.79 45.90 66.00 46.45 65.24 Z" />
<path fill="#659eb4" opacity="0.87" d=" M 28.77 63.31 C 27.62 60.22 26.60 57.03 26.60 53.71 C 27.73 56.48 28.93 59.23 30.25 61.92 C 33.43 69.89 42.80 71.73 50.26 73.32 C 46.60 74.99 42.83 76.51 38.85 77.25 C 37.50 76.81 36.15 76.38 34.80 75.96 C 38.76 79.31 43.28 81.92 47.23 85.28 C 47.86 85.82 48.49 86.36 49.11 86.91 C 49.09 87.77 49.06 89.50 49.04 90.36 C 44.45 86.03 38.82 83.08 33.64 79.54 C 34.24 79.64 35.43 79.86 36.03 79.96 C 31.21 76.36 26.59 71.38 20.25 70.92 C 20.82 69.30 21.24 67.64 21.53 65.95 C 23.95 65.10 26.37 64.23 28.77 63.31 Z" />
<path fill="#5f81af" opacity="0.96" d=" M 35.44 60.05 C 39.18 58.47 42.94 56.93 46.70 55.40 C 47.19 55.94 48.17 57.02 48.66 57.56 L 47.87 58.15 C 47.38 58.24 46.41 58.43 45.93 58.53 C 47.38 59.43 48.82 60.33 50.27 61.24 C 48.82 62.39 47.51 63.72 46.45 65.24 C 45.90 66.00 45.40 66.79 44.90 67.58 C 42.66 67.07 40.47 66.34 38.40 65.36 C 37.43 63.58 36.44 61.81 35.44 60.05 Z" />
<path fill="#5e79a0" opacity="0.95" d=" M 47.62 68.02 C 52.87 62.50 59.86 59.27 66.11 55.10 C 63.20 62.47 55.77 68.36 47.62 68.02 Z" />
<path fill="#4a6280" opacity="0.88" d=" M 73.90 66.84 C 74.87 65.65 75.50 64.23 76.15 62.85 C 75.98 65.48 75.87 68.10 75.75 70.73 C 71.16 73.97 66.38 77.06 60.99 78.81 C 64.33 76.80 67.41 74.40 70.34 71.84 C 65.44 73.87 60.78 76.41 56.16 79.01 C 58.36 76.04 60.63 72.83 60.49 68.95 C 62.05 67.99 63.54 66.92 65.06 65.89 C 66.32 65.56 67.60 65.30 68.89 65.07 C 70.27 66.17 71.99 68.19 73.90 66.84 Z" />
<path fill="#545e93" opacity="0.69" d=" M 78.79 63.10 L 78.84 62.14 C 80.43 65.08 82.07 68.05 82.74 71.35 C 82.64 72.52 82.56 73.70 82.47 74.87 C 74.39 73.70 69.52 82.20 61.67 82.35 C 66.14 79.21 70.92 76.53 75.47 73.51 C 77.09 72.58 77.77 70.81 78.18 69.09 C 78.44 67.10 78.68 65.10 78.79 63.10 Z" />
<path fill="#7c83a7" opacity="0.93" d=" M 82.74 71.35 C 83.09 69.43 83.54 67.53 83.90 65.61 C 84.23 69.34 84.31 73.07 84.20 76.81 C 83.24 77.13 82.28 77.45 81.32 77.78 C 74.02 79.63 68.44 85.01 61.86 88.40 C 62.40 86.91 62.93 85.43 63.48 83.95 C 58.67 86.72 53.86 89.48 49.00 92.16 L 49.02 91.25 L 49.04 90.36 C 52.66 87.24 56.72 84.67 61.04 82.65 L 61.67 82.35 C 69.52 82.20 74.39 73.70 82.47 74.87 C 82.56 73.70 82.64 72.52 82.74 71.35 Z" />
<path fill="#809d8d" opacity="0.93" d=" M 50.26 73.32 C 53.64 71.79 57.12 70.49 60.49 68.95 C 60.63 72.83 58.36 76.04 56.16 79.01 C 60.78 76.41 65.44 73.87 70.34 71.84 C 67.41 74.40 64.33 76.80 60.99 78.81 C 57.44 80.81 53.95 82.95 50.18 84.54 C 46.50 81.97 42.87 79.28 38.85 77.25 C 42.83 76.51 46.60 74.99 50.26 73.32 Z" />
<path fill="#8fa2ce" opacity="1.00" d=" M 75.75 70.73 C 76.56 70.18 77.37 69.63 78.18 69.09 C 77.77 70.81 77.09 72.58 75.47 73.51 C 70.92 76.53 66.14 79.21 61.67 82.35 L 61.04 82.65 C 61.01 81.60 60.98 80.54 60.97 79.49 L 60.99 78.81 C 66.38 77.06 71.16 73.97 75.75 70.73 Z" />
<path fill="#a1c7cb" opacity="1.00" d=" M 20.25 70.92 C 26.59 71.38 31.21 76.36 36.03 79.96 C 35.43 79.86 34.24 79.64 33.64 79.54 C 29.66 76.97 25.46 74.79 21.31 72.53 C 21.04 72.13 20.51 71.32 20.25 70.92 Z" />
<path fill="#8ea29a" opacity="0.82" d=" M 15.98 74.09 C 17.42 73.05 18.89 72.06 20.25 70.92 C 20.51 71.32 21.04 72.13 21.31 72.53 C 23.27 75.81 26.42 78.45 27.31 82.30 C 23.18 80.15 19.22 77.70 15.14 75.46 L 15.34 74.67 L 15.98 74.09 Z" />
<path fill="#627aa8" opacity="0.80" d=" M 21.31 72.53 C 25.46 74.79 29.66 76.97 33.64 79.54 C 33.95 80.99 33.80 82.78 35.16 83.75 C 39.15 87.27 44.21 89.17 49.02 91.25 L 49.00 92.16 C 48.97 93.49 48.93 94.83 48.88 96.16 C 45.73 94.24 42.62 92.24 39.47 90.30 C 35.56 87.43 31.52 84.73 27.31 82.30 C 26.42 78.45 23.27 75.81 21.31 72.53 Z" />
<path fill="#dfe2d6" opacity="1.00" d=" M 15.14 75.46 C 19.22 77.70 23.18 80.15 27.31 82.30 C 31.52 84.73 35.56 87.43 39.47 90.30 C 39.02 90.52 38.13 90.95 37.68 91.17 C 30.03 86.48 22.17 82.08 14.79 77.00 C 14.88 76.61 15.05 75.85 15.14 75.46 Z" />
<path fill="#b4baa6" opacity="0.94" d=" M 34.80 75.96 C 36.15 76.38 37.50 76.81 38.85 77.25 C 42.87 79.28 46.50 81.97 50.18 84.54 C 49.44 84.72 47.97 85.10 47.23 85.28 C 43.28 81.92 38.76 79.31 34.80 75.96 Z" />
<path fill="#c5cbd5" opacity="1.00" d=" M 61.86 88.40 C 68.44 85.01 74.02 79.63 81.32 77.78 C 78.81 79.75 76.46 81.92 73.97 83.91 C 69.14 86.29 64.52 89.07 60.05 92.07 C 56.49 94.39 52.95 97.00 48.74 97.98 C 52.35 93.84 57.26 91.25 61.86 88.40 Z" />
<path fill="#000026" opacity="0.57" d=" M 50.18 84.54 C 53.95 82.95 57.44 80.81 60.99 78.81 L 60.97 79.49 C 57.15 82.16 53.10 84.50 49.11 86.91 C 48.49 86.36 47.86 85.82 47.23 85.28 C 47.97 85.10 49.44 84.72 50.18 84.54 Z" />
<path fill="#465780" opacity="0.89" d=" M 35.16 83.75 C 33.80 82.78 33.95 80.99 33.64 79.54 C 38.82 83.08 44.45 86.03 49.04 90.36 L 49.02 91.25 C 44.21 89.17 39.15 87.27 35.16 83.75 Z" />
<path fill="#d9e4dc" opacity="1.00" d=" M 49.11 86.91 C 53.10 84.50 57.15 82.16 60.97 79.49 C 60.98 80.54 61.01 81.60 61.04 82.65 C 56.72 84.67 52.66 87.24 49.04 90.36 C 49.06 89.50 49.09 87.77 49.11 86.91 Z" />
<path fill="#b5b9a3" opacity="0.93" d=" M 49.00 92.16 C 53.86 89.48 58.67 86.72 63.48 83.95 C 62.93 85.43 62.40 86.91 61.86 88.40 C 57.26 91.25 52.35 93.84 48.74 97.98 C 44.80 96.13 41.26 93.60 37.68 91.17 C 38.13 90.95 39.02 90.52 39.47 90.30 C 42.62 92.24 45.73 94.24 48.88 96.16 C 48.93 94.83 48.97 93.49 49.00 92.16 Z" />
</svg>
