<?xml version="1.0" encoding="UTF-8" ?>
<!DOCTYPE svg PUBLIC "-//W3C//DTD SVG 1.1//EN" "http://www.w3.org/Graphics/SVG/1.1/DTD/svg11.dtd">
<svg width="100pt" height="100pt" viewBox="0 0 100 100" version="1.1" xmlns="http://www.w3.org/2000/svg">
<path fill="#07080b" opacity="0.93" d=" M 33.70 26.75 C 42.45 24.63 51.65 24.12 60.56 25.56 C 65.50 26.31 70.73 27.08 74.90 30.06 C 77.12 31.51 78.30 34.58 77.00 37.01 C 71.69 48.21 65.13 58.78 57.75 68.72 C 55.73 71.26 53.35 74.05 49.97 74.62 C 45.91 73.91 43.12 70.44 40.58 67.47 C 34.04 59.12 27.94 50.36 23.02 40.96 C 21.04 37.44 21.32 33.14 23.50 29.79 C 22.76 36.70 26.21 42.95 29.08 48.96 C 31.57 54.12 35.80 58.07 39.60 62.24 C 41.70 66.04 43.66 70.36 47.59 72.59 C 51.03 74.31 53.06 70.03 55.06 68.02 C 61.39 61.05 66.77 53.29 71.24 45.00 C 72.93 42.16 74.34 39.16 75.62 36.11 C 74.47 35.15 73.33 34.20 72.18 33.24 C 72.80 32.82 74.05 31.98 74.67 31.57 C 69.31 28.26 63.00 27.29 56.90 26.25 C 49.19 24.89 41.44 26.81 33.70 26.75 Z" />
<path fill="#465061" opacity="1.00" d=" M 33.70 26.75 C 41.44 26.81 49.19 24.89 56.90 26.25 C 63.00 27.29 69.31 28.26 74.67 31.57 C 74.05 31.98 72.80 32.82 72.18 33.24 C 69.42 35.39 65.84 34.71 62.63 34.39 C 64.50 33.75 66.33 33.03 68.17 32.32 C 64.48 30.04 60.20 29.08 55.89 29.10 C 57.81 30.89 59.74 32.67 61.79 34.32 C 59.08 34.14 56.37 33.97 53.71 33.40 C 53.86 32.05 54.03 30.71 54.21 29.37 C 52.38 32.67 50.75 36.10 49.42 39.64 C 47.02 39.00 44.61 38.38 42.20 37.76 C 42.25 36.24 42.31 34.73 42.36 33.21 C 40.20 32.97 38.05 32.73 35.89 32.48 C 36.48 31.63 37.07 30.79 37.67 29.94 C 34.72 30.65 31.73 31.15 28.70 31.38 C 30.34 29.81 32.01 28.27 33.70 26.75 Z" />
<path fill="#333743" opacity="1.00" d=" M 23.50 29.79 C 26.60 27.97 30.23 27.48 33.70 26.75 C 32.01 28.27 30.34 29.81 28.70 31.38 C 31.73 31.15 34.72 30.65 37.67 29.94 C 37.07 30.79 36.48 31.63 35.89 32.48 C 38.05 32.73 40.20 32.97 42.36 33.21 C 42.31 34.73 42.25 36.24 42.20 37.76 C 44.61 38.38 47.02 39.00 49.42 39.64 C 49.20 40.18 48.75 41.27 48.53 41.81 C 45.27 41.80 41.97 41.64 38.75 42.23 C 37.32 42.49 35.41 43.24 35.67 45.03 C 34.85 51.08 37.14 56.86 39.60 62.24 C 35.80 58.07 31.57 54.12 29.08 48.96 C 26.21 42.95 22.76 36.70 23.50 29.79 Z" />
<path fill="#afb9b8" opacity="1.00" d=" M 55.89 29.10 C 60.20 29.08 64.48 30.04 68.17 32.32 C 66.33 33.03 64.50 33.75 62.63 34.39 L 61.79 34.32 C 59.74 32.67 57.81 30.89 55.89 29.10 Z" />
<path fill="#d5c288" opacity="1.00" d=" M 49.42 39.64 C 50.75 36.10 52.38 32.67 54.21 29.37 C 54.03 30.71 53.86 32.05 53.71 33.40 C 53.56 35.98 54.51 38.43 55.46 40.78 C 56.14 42.51 56.79 44.26 57.41 46.02 C 57.03 47.99 56.58 50.07 57.26 52.04 C 54.34 54.96 50.16 54.17 46.49 53.72 C 45.39 55.52 44.27 57.31 43.13 59.09 C 43.51 56.54 43.94 54.00 44.35 51.45 C 42.47 49.10 40.80 46.59 39.43 43.90 C 41.35 45.66 43.16 47.52 44.99 49.38 C 46.21 46.87 47.44 44.37 48.53 41.81 C 48.75 41.27 49.20 40.18 49.42 39.64 M 51.31 41.03 C 49.43 44.26 48.50 47.92 47.08 51.35 C 49.61 52.59 52.46 52.32 55.15 51.96 C 55.35 47.46 53.99 43.16 52.91 38.86 C 52.00 36.56 49.36 40.06 51.31 41.03 Z" />
<path fill="#333743" opacity="1.00" d=" M 53.71 33.40 C 56.37 33.97 59.08 34.14 61.79 34.32 L 62.63 34.39 C 65.84 34.71 69.42 35.39 72.18 33.24 C 73.33 34.20 74.47 35.15 75.62 36.11 C 74.34 39.16 72.93 42.16 71.24 45.00 C 66.32 47.18 63.92 52.19 60.86 56.28 C 60.28 55.28 59.71 54.28 59.14 53.28 C 61.18 50.44 63.93 47.23 62.74 43.46 C 60.73 41.70 57.98 41.33 55.46 40.78 C 54.51 38.43 53.56 35.98 53.71 33.40 Z" />
<path fill="#65788e" opacity="1.00" d=" M 51.31 41.03 C 49.36 40.06 52.00 36.56 52.91 38.86 C 52.45 39.64 51.92 40.36 51.31 41.03 Z" />
<path fill="#11111b" opacity="1.00" d=" M 51.31 41.03 C 51.92 40.36 52.45 39.64 52.91 38.86 C 53.99 43.16 55.35 47.46 55.15 51.96 C 52.46 52.32 49.61 52.59 47.08 51.35 C 48.50 47.92 49.43 44.26 51.31 41.03 Z" />
<path fill="#151421" opacity="1.00" d=" M 55.46 40.78 C 57.98 41.33 60.73 41.70 62.74 43.46 C 63.93 47.23 61.18 50.44 59.14 53.28 C 59.71 54.28 60.28 55.28 60.86 56.28 C 63.92 52.19 66.32 47.18 71.24 45.00 C 66.77 53.29 61.39 61.05 55.06 68.02 C 53.06 70.03 51.03 74.31 47.59 72.59 C 43.66 70.36 41.70 66.04 39.60 62.24 C 37.14 56.86 34.85 51.08 35.67 45.03 C 35.41 43.24 37.32 42.49 38.75 42.23 C 41.97 41.64 45.27 41.80 48.53 41.81 C 47.44 44.37 46.21 46.87 44.99 49.38 C 43.16 47.52 41.35 45.66 39.43 43.90 C 40.80 46.59 42.47 49.10 44.35 51.45 C 43.94 54.00 43.51 56.54 43.13 59.09 C 44.27 57.31 45.39 55.52 46.49 53.72 C 50.16 54.17 54.34 54.96 57.26 52.04 C 59.31 50.63 58.25 47.84 57.41 46.02 C 56.79 44.26 56.14 42.51 55.46 40.78 Z" />
<path fill="#717a84" opacity="1.00" d=" M 57.41 46.02 C 58.25 47.84 59.31 50.63 57.26 52.04 C 56.58 50.07 57.03 47.99 57.41 46.02 Z" />
</svg>
