<?xml version="1.0" encoding="UTF-8" ?>
<!DOCTYPE svg PUBLIC "-//W3C//DTD SVG 1.1//EN" "http://www.w3.org/Graphics/SVG/1.1/DTD/svg11.dtd">
<svg width="100pt" height="100pt" viewBox="0 0 100 100" version="1.1" xmlns="http://www.w3.org/2000/svg">
<path fill="#28252a" opacity="1.00" d=" M 49.59 3.94 C 56.55 10.23 62.36 17.65 68.76 24.47 L 68.44 24.86 C 67.15 26.43 65.86 27.99 64.55 29.54 C 66.96 32.24 69.44 34.87 72.00 37.44 C 74.76 40.23 77.00 43.47 79.26 46.66 C 75.57 44.18 72.17 41.28 69.16 38.01 C 72.21 46.67 70.24 56.33 65.74 64.11 C 62.59 68.33 59.14 72.35 56.94 77.19 C 54.73 79.64 52.37 81.94 49.98 84.22 C 49.13 82.47 48.14 80.79 47.06 79.18 C 45.45 76.64 43.87 74.09 42.25 71.57 C 44.63 71.07 47.01 70.53 49.39 69.98 C 49.25 69.50 48.98 68.56 48.84 68.09 C 49.42 69.26 49.98 70.43 50.52 71.62 C 52.25 65.37 58.64 62.80 63.59 59.55 C 63.66 51.36 63.61 43.16 63.65 34.96 C 59.80 37.21 55.92 39.42 52.08 41.68 C 51.54 39.79 51.00 37.91 50.45 36.02 C 50.00 37.77 49.55 39.52 49.12 41.28 C 45.07 39.47 41.09 37.51 37.33 35.16 C 33.99 38.91 30.16 42.19 25.89 44.84 C 29.43 40.10 33.44 35.74 37.47 31.42 C 39.12 29.84 39.88 27.66 40.41 25.49 C 42.17 23.41 43.76 21.18 45.63 19.19 C 47.09 17.72 48.63 16.33 50.16 14.93 C 54.08 18.95 57.93 23.04 62.16 26.73 C 58.17 21.20 50.76 17.47 50.14 10.04 C 49.95 8.55 49.83 7.05 49.71 5.54 C 49.68 5.14 49.62 4.34 49.59 3.94 Z" />
<path fill="#8e8384" opacity="1.00" d=" M 45.45 10.58 C 46.07 8.38 48.18 7.09 49.71 5.54 C 49.83 7.05 49.95 8.55 50.14 10.04 C 50.76 17.47 58.17 21.20 62.16 26.73 C 57.93 23.04 54.08 18.95 50.16 14.93 C 48.63 16.33 47.09 17.72 45.63 19.19 C 45.41 16.33 45.27 13.45 45.45 10.58 Z" />
<path fill="#cbcdb6" opacity="1.00" d=" M 37.68 18.33 C 40.15 15.63 42.73 13.03 45.45 10.58 C 45.27 13.45 45.41 16.33 45.63 19.19 C 43.76 21.18 42.17 23.41 40.41 25.49 C 38.99 27.04 37.52 28.53 36.05 30.02 C 35.67 30.15 34.91 30.41 34.52 30.54 C 36.06 27.36 36.81 23.86 36.57 20.32 L 36.58 19.46 C 36.79 19.24 37.21 18.81 37.42 18.60 C 37.49 18.53 37.61 18.40 37.68 18.33 Z" />
<path fill="#1e1f1a" opacity="1.00" d=" M 37.42 18.60 C 37.49 18.53 37.61 18.40 37.68 18.33 C 37.61 18.40 37.49 18.53 37.42 18.60 Z" />
<path fill="#f5f4f6" opacity="1.00" d=" M 34.40 22.39 C 34.95 21.87 36.03 20.84 36.57 20.32 C 36.81 23.86 36.06 27.36 34.52 30.54 C 31.84 31.34 29.06 31.05 26.34 30.65 C 26.74 30.28 27.53 29.53 27.93 29.16 C 30.21 27.03 32.28 24.68 34.40 22.39 Z" />
<path fill="#302522" opacity="1.00" d=" M 27.93 29.16 C 29.39 26.32 31.51 23.84 34.40 22.39 C 32.28 24.68 30.21 27.03 27.93 29.16 Z" />
<path fill="#9e979e" opacity="1.00" d=" M 64.55 29.54 C 65.86 27.99 67.15 26.43 68.44 24.86 C 69.95 26.36 71.63 27.76 72.77 29.58 C 73.03 32.23 72.58 34.86 72.00 37.44 C 69.44 34.87 66.96 32.24 64.55 29.54 Z" />
<path fill="#19181b" opacity="1.00" d=" M 36.05 30.02 C 37.52 28.53 38.99 27.04 40.41 25.49 C 39.88 27.66 39.12 29.84 37.47 31.42 C 33.44 35.74 29.43 40.10 25.89 44.84 C 30.16 42.19 33.99 38.91 37.33 35.16 C 37.44 41.14 37.32 47.11 37.27 53.08 C 37.39 55.05 37.15 57.19 38.05 59.01 C 41.31 62.42 46.69 63.62 48.84 68.09 C 48.98 68.56 49.25 69.50 49.39 69.98 C 47.01 70.53 44.63 71.07 42.25 71.57 C 43.87 74.09 45.45 76.64 47.06 79.18 C 44.78 77.02 42.34 75.03 40.24 72.69 C 36.15 67.15 31.34 62.21 26.36 57.48 C 23.77 54.76 21.34 51.91 18.87 49.09 C 24.44 42.59 30.59 36.62 36.05 30.02 Z" />
<path fill="#9a6b66" opacity="1.00" d=" M 24.13 33.05 C 24.78 32.18 25.57 31.42 26.34 30.65 C 29.06 31.05 31.84 31.34 34.52 30.54 C 34.91 30.41 35.67 30.15 36.05 30.02 C 30.59 36.62 24.44 42.59 18.87 49.09 C 21.34 51.91 23.77 54.76 26.36 57.48 C 23.42 55.90 21.05 53.57 18.77 51.18 C 16.81 48.91 13.59 49.04 10.87 48.59 C 13.61 48.04 16.75 47.93 18.85 45.84 C 22.18 42.56 24.76 38.63 27.80 35.10 C 26.21 35.42 24.62 35.74 23.04 36.05 C 23.38 35.05 23.75 34.05 24.13 33.05 Z" />
<path fill="#ccced2" opacity="1.00" d=" M 72.00 37.44 C 72.58 34.86 73.03 32.23 72.77 29.58 C 73.97 30.85 75.21 32.09 76.37 33.39 C 76.43 33.48 76.57 33.64 76.64 33.72 C 76.90 34.10 77.43 34.86 77.70 35.24 C 78.01 35.69 78.64 36.61 78.95 37.07 C 79.31 37.36 80.02 37.96 80.38 38.25 C 80.47 38.33 80.64 38.50 80.73 38.58 C 81.20 39.09 82.14 40.10 82.61 40.61 C 83.56 41.82 84.63 42.92 85.79 43.91 C 86.06 44.19 86.60 44.74 86.87 45.01 C 87.26 45.97 87.92 46.66 88.87 47.08 C 89.09 47.42 89.54 48.09 89.76 48.42 C 89.91 48.78 90.20 49.51 90.35 49.87 C 89.72 49.77 88.48 49.58 87.86 49.48 C 87.15 49.38 85.73 49.16 85.03 49.06 C 83.01 48.53 80.97 47.90 79.26 46.66 C 77.00 43.47 74.76 40.23 72.00 37.44 Z" />
<path fill="#302522" opacity="1.00" d=" M 8.90 49.09 C 13.95 43.72 18.58 37.92 24.13 33.05 C 23.75 34.05 23.38 35.05 23.04 36.05 C 24.62 35.74 26.21 35.42 27.80 35.10 C 24.76 38.63 22.18 42.56 18.85 45.84 C 16.75 47.93 13.61 48.04 10.87 48.59 C 13.59 49.04 16.81 48.91 18.77 51.18 C 21.05 53.57 23.42 55.90 26.36 57.48 C 31.34 62.21 36.15 67.15 40.24 72.69 C 40.71 74.35 41.07 76.04 41.45 77.72 C 37.66 76.78 34.50 74.48 31.54 72.03 C 31.70 72.49 32.03 73.41 32.19 73.87 C 28.56 71.19 25.72 67.63 22.68 64.34 C 18.12 59.23 13.32 54.33 8.90 49.09 Z" />
<path fill="#2a2b2b" opacity="1.00" d=" M 76.37 33.39 C 76.43 33.48 76.57 33.64 76.64 33.72 C 76.57 33.64 76.43 33.48 76.37 33.39 Z" />
<path fill="#d76369" opacity="1.00" d=" M 37.33 35.16 C 41.09 37.51 45.07 39.47 49.12 41.28 C 49.55 39.52 50.00 37.77 50.45 36.02 C 51.00 37.91 51.54 39.79 52.08 41.68 C 55.92 39.42 59.80 37.21 63.65 34.96 C 63.61 43.16 63.66 51.36 63.59 59.55 C 58.64 62.80 52.25 65.37 50.52 71.62 C 49.98 70.43 49.42 69.26 48.84 68.09 C 46.69 63.62 41.31 62.42 38.05 59.01 C 37.15 57.19 37.39 55.05 37.27 53.08 C 37.32 47.11 37.44 41.14 37.33 35.16 M 39.75 38.74 C 39.46 45.41 39.41 52.09 39.79 58.75 C 43.11 60.75 46.37 62.87 49.60 65.01 C 49.57 58.84 49.92 52.66 49.57 46.50 C 49.36 41.54 43.16 40.92 39.75 38.74 M 51.96 44.17 C 51.13 50.90 51.61 57.72 51.82 64.48 C 55.41 62.67 58.73 60.37 61.87 57.86 C 61.62 51.55 61.54 45.22 61.74 38.91 C 58.40 40.49 54.71 41.61 51.96 44.17 Z" />
<path fill="#303031" opacity="0.86" d=" M 77.70 35.24 C 78.08 35.48 78.85 35.96 79.24 36.21 L 78.95 37.07 C 78.64 36.61 78.01 35.69 77.70 35.24 Z" />
<path fill="#3d424c" opacity="1.00" d=" M 69.16 38.01 C 72.17 41.28 75.57 44.18 79.26 46.66 C 80.97 47.90 83.01 48.53 85.03 49.06 C 79.79 51.57 76.50 56.51 72.53 60.53 C 67.17 65.94 62.43 71.91 56.94 77.19 C 59.14 72.35 62.59 68.33 65.74 64.11 C 70.24 56.33 72.21 46.67 69.16 38.01 Z" />
<path fill="#272626" opacity="1.00" d=" M 80.38 38.25 C 80.47 38.33 80.64 38.50 80.73 38.58 C 80.64 38.50 80.47 38.33 80.38 38.25 Z" />
<path fill="#0b0f15" opacity="1.00" d=" M 39.75 38.74 C 43.16 40.92 49.36 41.54 49.57 46.50 C 49.92 52.66 49.57 58.84 49.60 65.01 C 46.37 62.87 43.11 60.75 39.79 58.75 C 39.41 52.09 39.46 45.41 39.75 38.74 Z" />
<path fill="#0e141c" opacity="1.00" d=" M 51.96 44.17 C 54.71 41.61 58.40 40.49 61.74 38.91 C 61.54 45.22 61.62 51.55 61.87 57.86 C 58.73 60.37 55.41 62.67 51.82 64.48 C 51.61 57.72 51.13 50.90 51.96 44.17 Z" />
<path fill="#303030" opacity="0.78" d=" M 82.61 40.61 C 84.33 39.28 87.20 42.24 85.79 43.91 C 84.63 42.92 83.56 41.82 82.61 40.61 Z" />
<path fill="#191a1a" opacity="0.75" d=" M 86.87 45.01 C 88.64 44.65 89.31 45.34 88.87 47.08 C 87.92 46.66 87.26 45.97 86.87 45.01 Z" />
<path fill="#0c0d0d" opacity="0.83" d=" M 89.76 48.42 C 91.44 46.44 92.81 51.09 90.35 49.87 C 90.20 49.51 89.91 48.78 89.76 48.42 Z" />
<path fill="#191e22" opacity="1.00" d=" M 85.03 49.06 C 85.73 49.16 87.15 49.38 87.86 49.48 C 85.05 52.99 82.12 56.40 79.10 59.73 C 74.63 64.48 69.96 69.06 65.95 74.22 C 66.43 74.11 67.39 73.90 67.87 73.80 C 66.83 74.84 65.79 75.88 64.74 76.91 C 64.83 76.44 65.01 75.49 65.10 75.02 C 60.37 80.02 54.05 84.24 52.24 91.26 C 51.80 92.60 50.61 93.47 49.66 94.45 L 49.70 93.47 C 49.84 90.39 50.04 87.31 49.98 84.22 C 52.37 81.94 54.73 79.64 56.94 77.19 C 62.43 71.91 67.17 65.94 72.53 60.53 C 76.50 56.51 79.79 51.57 85.03 49.06 Z" />
<path fill="#8e8384" opacity="1.00" d=" M 87.86 49.48 C 88.48 49.58 89.72 49.77 90.35 49.87 C 87.01 53.88 83.60 57.86 79.63 61.27 C 79.50 60.89 79.23 60.11 79.10 59.73 C 82.12 56.40 85.05 52.99 87.86 49.48 Z" />
<path fill="#3d424c" opacity="1.00" d=" M 65.95 74.22 C 69.96 69.06 74.63 64.48 79.10 59.73 C 79.23 60.11 79.50 60.89 79.63 61.27 C 78.00 64.55 75.08 66.96 72.75 69.74 C 71.22 71.15 69.98 73.24 67.87 73.80 C 67.39 73.90 66.43 74.11 65.95 74.22 Z" />
<path fill="#4e474a" opacity="1.00" d=" M 31.54 72.03 C 34.50 74.48 37.66 76.78 41.45 77.72 C 41.07 76.04 40.71 74.35 40.24 72.69 C 42.34 75.03 44.78 77.02 47.06 79.18 C 48.14 80.79 49.13 82.47 49.98 84.22 C 50.04 87.31 49.84 90.39 49.70 93.47 C 44.95 88.83 40.69 83.72 36.08 78.94 C 34.68 77.35 33.02 75.87 32.19 73.87 C 32.03 73.41 31.70 72.49 31.54 72.03 Z" />
<path fill="#3d424c" opacity="1.00" d=" M 52.24 91.26 C 54.05 84.24 60.37 80.02 65.10 75.02 C 65.01 75.49 64.83 76.44 64.74 76.91 C 64.57 78.39 63.46 79.47 62.60 80.58 C 59.33 84.31 56.20 88.23 52.24 91.26 Z" />
</svg>
