<?xml version="1.0" encoding="UTF-8" ?>
<!DOCTYPE svg PUBLIC "-//W3C//DTD SVG 1.1//EN" "http://www.w3.org/Graphics/SVG/1.1/DTD/svg11.dtd">
<svg width="100pt" height="100pt" viewBox="0 0 100 100" version="1.1" xmlns="http://www.w3.org/2000/svg">
<path fill="#2a2a31" opacity="1.00" d=" M 49.76 4.02 C 56.54 10.40 62.44 17.64 68.74 24.48 L 68.41 24.88 C 67.15 26.44 65.87 27.99 64.59 29.54 C 66.95 32.26 69.44 34.87 72.00 37.41 C 74.74 40.23 77.03 43.43 79.28 46.63 C 76.27 44.86 73.61 42.59 71.16 40.12 C 72.28 46.08 71.66 52.14 70.99 58.12 C 73.62 56.02 76.16 53.82 78.61 51.51 C 78.93 51.89 79.58 52.64 79.90 53.01 C 75.23 58.31 70.05 63.13 65.49 68.52 C 61.22 73.72 56.49 78.54 51.22 82.73 C 50.20 81.95 49.17 81.18 48.20 80.35 C 47.89 80.04 47.27 79.41 46.96 79.10 C 45.66 77.00 44.51 74.81 43.33 72.64 C 45.23 72.69 47.13 72.74 49.01 73.03 C 49.26 73.16 49.77 73.40 50.02 73.52 C 50.84 73.92 51.65 74.31 52.47 74.70 C 52.41 74.03 52.30 72.70 52.25 72.03 C 56.83 65.92 62.35 60.18 64.78 52.78 C 66.09 49.19 65.40 45.32 64.54 41.72 C 63.63 37.37 61.98 33.05 58.31 30.29 C 56.11 32.53 53.91 34.77 51.69 36.98 C 51.91 35.04 52.14 33.10 52.39 31.16 C 51.40 31.16 50.42 31.16 49.44 31.16 C 49.50 33.11 49.56 35.06 49.61 37.01 C 47.33 34.86 45.08 32.67 42.82 30.48 C 41.23 31.83 39.67 33.20 38.05 34.52 C 35.88 36.27 33.52 37.78 31.15 39.23 C 36.99 31.01 44.19 23.89 51.00 16.49 C 50.70 16.35 50.09 16.06 49.79 15.91 C 50.03 12.45 50.20 8.98 49.86 5.52 C 49.84 5.14 49.78 4.39 49.76 4.02 Z" />
<path fill="#8e8384" opacity="1.00" d=" M 45.51 10.59 C 46.01 8.28 48.25 7.00 49.86 5.52 C 50.20 8.98 50.03 12.45 49.79 15.91 C 48.35 16.94 46.96 18.06 45.64 19.24 C 45.31 16.37 45.28 13.47 45.51 10.59 Z" />
<path fill="#cbcdb6" opacity="1.00" d=" M 37.69 18.34 C 40.16 15.62 42.69 12.95 45.51 10.59 C 45.28 13.47 45.31 16.37 45.64 19.24 C 42.41 22.80 39.35 26.51 36.05 30.00 C 35.65 30.14 34.86 30.40 34.46 30.53 C 36.09 27.39 36.93 23.91 36.56 20.36 L 36.54 19.53 C 36.76 19.30 37.21 18.84 37.44 18.60 C 37.50 18.54 37.62 18.40 37.69 18.34 Z" />
<path fill="#161619" opacity="1.00" d=" M 49.79 15.91 C 50.09 16.06 50.70 16.35 51.00 16.49 C 44.19 23.89 36.99 31.01 31.15 39.23 C 33.52 37.78 35.88 36.27 38.05 34.52 C 37.83 37.33 37.28 40.22 37.95 43.02 C 38.65 45.85 41.07 47.72 43.01 49.71 C 45.15 47.69 47.27 45.64 49.38 43.59 C 49.81 53.39 50.14 63.26 49.01 73.03 C 47.13 72.74 45.23 72.69 43.33 72.64 C 44.51 74.81 45.66 77.00 46.96 79.10 C 44.84 77.04 42.70 74.99 40.63 72.88 C 39.82 72.06 39.01 71.26 38.19 70.46 C 35.60 67.60 32.97 64.77 30.37 61.92 C 29.14 60.35 27.81 58.86 26.36 57.50 C 23.74 54.82 21.30 51.98 18.91 49.09 C 24.36 42.49 30.65 36.65 36.05 30.00 C 39.35 26.51 42.41 22.80 45.64 19.24 C 46.96 18.06 48.35 16.94 49.79 15.91 Z" />
<path fill="#1e1f1a" opacity="1.00" d=" M 37.44 18.60 C 37.50 18.54 37.62 18.40 37.69 18.34 C 37.62 18.40 37.50 18.54 37.44 18.60 Z" />
<path fill="#f5f4f6" opacity="1.00" d=" M 34.39 22.37 C 34.93 21.87 36.01 20.86 36.56 20.36 C 36.93 23.91 36.09 27.39 34.46 30.53 C 31.83 31.16 29.10 31.16 26.45 30.67 C 26.83 30.30 27.58 29.56 27.95 29.19 C 30.23 27.04 32.28 24.68 34.39 22.37 Z" />
<path fill="#353126" opacity="0.80" d=" M 27.95 29.19 C 29.28 26.26 31.49 23.82 34.39 22.37 C 32.28 24.68 30.23 27.04 27.95 29.19 Z" />
<path fill="#9e979e" opacity="1.00" d=" M 64.59 29.54 C 65.87 27.99 67.15 26.44 68.41 24.88 C 69.94 26.35 71.70 27.69 72.72 29.60 C 73.04 32.23 72.67 34.87 72.00 37.41 C 69.44 34.87 66.95 32.26 64.59 29.54 Z" />
<path fill="#a46f6a" opacity="1.00" d=" M 23.49 33.41 C 24.48 32.50 25.46 31.57 26.45 30.67 C 29.10 31.16 31.83 31.16 34.46 30.53 C 34.86 30.40 35.65 30.14 36.05 30.00 C 30.65 36.65 24.36 42.49 18.91 49.09 C 21.30 51.98 23.74 54.82 26.36 57.50 C 22.90 55.69 20.27 52.80 17.87 49.78 C 15.63 49.13 13.31 48.80 11.00 48.49 C 13.80 48.20 17.14 48.45 19.17 46.09 C 22.54 42.67 25.25 38.67 28.16 34.85 C 26.60 34.38 25.04 33.91 23.49 33.41 Z" />
<path fill="#ccced2" opacity="1.00" d=" M 72.00 37.41 C 72.67 34.87 73.04 32.23 72.72 29.60 C 73.95 30.84 75.20 32.07 76.36 33.38 C 76.43 33.46 76.57 33.63 76.64 33.71 C 76.90 34.09 77.43 34.86 77.70 35.24 C 78.01 35.70 78.63 36.62 78.94 37.08 C 79.30 37.37 80.02 37.96 80.38 38.26 C 80.47 38.34 80.65 38.50 80.73 38.58 C 81.21 39.09 82.15 40.12 82.62 40.63 C 83.55 41.84 84.62 42.94 85.79 43.91 C 86.06 44.18 86.61 44.73 86.88 45.00 C 87.26 45.96 87.92 46.65 88.86 47.08 C 89.09 47.41 89.55 48.07 89.78 48.41 C 89.92 48.77 90.19 49.50 90.33 49.86 C 89.71 49.77 88.48 49.60 87.86 49.51 C 86.54 49.32 85.23 49.12 83.92 48.91 C 82.30 48.31 80.73 47.57 79.28 46.63 C 77.03 43.43 74.74 40.23 72.00 37.41 Z" />
<path fill="#cc5764" opacity="1.00" d=" M 38.05 34.52 C 39.67 33.20 41.23 31.83 42.82 30.48 C 45.08 32.67 47.33 34.86 49.61 37.01 C 49.56 35.06 49.50 33.11 49.44 31.16 C 50.42 31.16 51.40 31.16 52.39 31.16 C 52.14 33.10 51.91 35.04 51.69 36.98 C 53.91 34.77 56.11 32.53 58.31 30.29 C 61.98 33.05 63.63 37.37 64.54 41.72 C 63.02 44.73 61.04 47.49 58.46 49.69 C 56.28 47.41 54.08 45.15 51.85 42.92 C 51.56 52.62 51.23 62.36 52.25 72.03 C 52.30 72.70 52.41 74.03 52.47 74.70 C 51.65 74.31 50.84 73.92 50.02 73.52 C 49.77 73.40 49.26 73.16 49.01 73.03 C 50.14 63.26 49.81 53.39 49.38 43.59 C 47.27 45.64 45.15 47.69 43.01 49.71 C 41.07 47.72 38.65 45.85 37.95 43.02 C 37.28 40.22 37.83 37.33 38.05 34.52 M 40.36 36.36 C 38.58 40.06 40.18 44.09 42.14 47.33 C 44.77 45.14 47.04 42.56 49.15 39.87 C 47.42 37.65 45.83 35.25 43.58 33.52 C 41.77 32.84 41.09 35.18 40.36 36.36 M 52.08 40.61 C 54.10 42.82 56.13 45.02 58.21 47.18 C 62.59 43.62 62.77 36.76 58.96 32.72 C 56.30 35.00 53.98 37.66 52.08 40.61 Z" />
<path fill="#4e4040" opacity="1.00" d=" M 8.81 49.73 C 13.32 43.96 18.45 38.71 23.49 33.41 C 25.04 33.91 26.60 34.38 28.16 34.85 C 25.25 38.67 22.54 42.67 19.17 46.09 C 17.14 48.45 13.80 48.20 11.00 48.49 C 13.31 48.80 15.63 49.13 17.87 49.78 C 15.20 49.76 12.52 49.76 9.85 49.74 L 8.81 49.73 Z" />
<path fill="#111218" opacity="1.00" d=" M 40.36 36.36 C 41.09 35.18 41.77 32.84 43.58 33.52 C 45.83 35.25 47.42 37.65 49.15 39.87 C 47.04 42.56 44.77 45.14 42.14 47.33 C 40.18 44.09 38.58 40.06 40.36 36.36 Z" />
<path fill="#13171e" opacity="1.00" d=" M 52.08 40.61 C 53.98 37.66 56.30 35.00 58.96 32.72 C 62.77 36.76 62.59 43.62 58.21 47.18 C 56.13 45.02 54.10 42.82 52.08 40.61 Z" />
<path fill="#2a2b2b" opacity="1.00" d=" M 76.36 33.38 C 76.43 33.46 76.57 33.63 76.64 33.71 C 76.57 33.63 76.43 33.46 76.36 33.38 Z" />
<path fill="#303031" opacity="0.86" d=" M 77.70 35.24 C 78.08 35.49 78.85 35.97 79.23 36.22 L 78.94 37.08 C 78.63 36.62 78.01 35.70 77.70 35.24 Z" />
<path fill="#272626" opacity="1.00" d=" M 80.38 38.26 C 80.47 38.34 80.65 38.50 80.73 38.58 C 80.65 38.50 80.47 38.34 80.38 38.26 Z" />
<path fill="#444752" opacity="1.00" d=" M 71.16 40.12 C 73.61 42.59 76.27 44.86 79.28 46.63 C 80.73 47.57 82.30 48.31 83.92 48.91 C 82.56 50.26 81.21 51.62 79.90 53.01 C 79.58 52.64 78.93 51.89 78.61 51.51 C 76.16 53.82 73.62 56.02 70.99 58.12 C 71.66 52.14 72.28 46.08 71.16 40.12 Z" />
<path fill="#303030" opacity="0.78" d=" M 82.62 40.63 C 84.34 39.29 87.18 42.24 85.79 43.91 C 84.62 42.94 83.55 41.84 82.62 40.63 Z" />
<path fill="#131820" opacity="1.00" d=" M 64.54 41.72 C 65.40 45.32 66.09 49.19 64.78 52.78 C 62.35 60.18 56.83 65.92 52.25 72.03 C 51.23 62.36 51.56 52.62 51.85 42.92 C 54.08 45.15 56.28 47.41 58.46 49.69 C 61.04 47.49 63.02 44.73 64.54 41.72 Z" />
<path fill="#191a1a" opacity="0.75" d=" M 86.88 45.00 C 88.66 44.65 89.32 45.35 88.86 47.08 C 87.92 46.65 87.26 45.96 86.88 45.00 Z" />
<path fill="#0c0d0d" opacity="0.83" d=" M 89.78 48.41 C 91.50 46.45 92.75 51.14 90.33 49.86 C 90.19 49.50 89.92 48.77 89.78 48.41 Z" />
<path fill="#191e22" opacity="1.00" d=" M 83.92 48.91 C 85.23 49.12 86.54 49.32 87.86 49.51 C 84.96 53.06 82.01 56.58 78.88 59.93 C 74.57 64.63 70.03 69.12 66.06 74.11 C 66.52 74.03 67.44 73.88 67.90 73.80 C 66.88 74.88 65.83 75.92 64.74 76.93 C 64.80 76.46 64.93 75.52 64.99 75.05 C 60.54 80.22 53.97 84.24 52.30 91.24 C 51.93 92.64 50.59 93.41 49.63 94.39 L 49.71 93.46 C 50.20 89.04 50.44 84.37 48.20 80.35 C 49.17 81.18 50.20 81.95 51.22 82.73 C 56.49 78.54 61.22 73.72 65.49 68.52 C 70.05 63.13 75.23 58.31 79.90 53.01 C 81.21 51.62 82.56 50.26 83.92 48.91 Z" />
<path fill="#8e8384" opacity="1.00" d=" M 87.86 49.51 C 88.48 49.60 89.71 49.77 90.33 49.86 C 87.04 53.73 83.88 57.78 79.91 60.99 C 79.65 60.72 79.14 60.19 78.88 59.93 C 82.01 56.58 84.96 53.06 87.86 49.51 Z" />
<path fill="#302422" opacity="1.00" d=" M 9.85 49.74 C 12.52 49.76 15.20 49.76 17.87 49.78 C 20.27 52.80 22.90 55.69 26.36 57.50 C 27.81 58.86 29.14 60.35 30.37 61.92 C 32.02 65.55 34.92 68.27 38.19 70.46 C 39.01 71.26 39.82 72.06 40.63 72.88 C 40.47 74.11 40.30 75.34 40.13 76.57 C 36.30 76.10 33.53 73.29 30.68 70.97 C 30.80 71.44 31.04 72.38 31.15 72.84 C 27.54 70.15 24.75 66.58 21.72 63.29 C 17.74 58.79 13.34 54.65 9.85 49.74 Z" />
<path fill="#444752" opacity="1.00" d=" M 66.06 74.11 C 70.03 69.12 74.57 64.63 78.88 59.93 C 79.14 60.19 79.65 60.72 79.91 60.99 C 77.78 64.68 74.56 67.58 71.76 70.76 C 70.56 71.83 69.56 73.44 67.90 73.80 C 67.44 73.88 66.52 74.03 66.06 74.11 Z" />
<path fill="#8e8384" opacity="1.00" d=" M 38.19 70.46 C 34.92 68.27 32.02 65.55 30.37 61.92 C 32.97 64.77 35.60 67.60 38.19 70.46 Z" />
<path fill="#4d4649" opacity="1.00" d=" M 30.68 70.97 C 33.53 73.29 36.30 76.10 40.13 76.57 C 40.30 75.34 40.47 74.11 40.63 72.88 C 42.70 74.99 44.84 77.04 46.96 79.10 C 47.27 79.41 47.89 80.04 48.20 80.35 C 50.44 84.37 50.20 89.04 49.71 93.46 C 44.75 88.68 40.37 83.36 35.61 78.41 C 34.04 76.63 32.19 75.00 31.15 72.84 C 31.04 72.38 30.80 71.44 30.68 70.97 Z" />
<path fill="#444752" opacity="1.00" d=" M 52.30 91.24 C 53.97 84.24 60.54 80.22 64.99 75.05 C 64.93 75.52 64.80 76.46 64.74 76.93 C 64.60 78.40 63.42 79.46 62.59 80.58 C 59.29 84.26 56.24 88.21 52.30 91.24 Z" />
</svg>
