<?xml version="1.0" encoding="UTF-8" ?>
<!DOCTYPE svg PUBLIC "-//W3C//DTD SVG 1.1//EN" "http://www.w3.org/Graphics/SVG/1.1/DTD/svg11.dtd">
<svg width="100pt" height="100pt" viewBox="0 0 100 100" version="1.1" xmlns="http://www.w3.org/2000/svg">
<path fill="#29282f" opacity="1.00" d=" M 49.60 3.98 C 56.55 10.25 62.38 17.64 68.74 24.50 L 68.42 24.88 C 67.15 26.44 65.85 27.99 64.56 29.54 C 66.96 32.23 69.41 34.88 71.98 37.42 C 74.78 40.19 77.02 43.44 79.28 46.65 C 75.91 44.56 72.78 42.06 70.18 39.06 C 73.05 45.62 71.44 52.88 69.08 59.32 C 71.03 58.66 73.01 58.11 75.00 57.62 C 74.11 58.56 73.23 59.50 72.36 60.46 C 70.99 60.99 69.48 61.34 68.30 62.27 C 63.93 66.14 60.18 70.78 57.96 76.22 C 55.47 79.05 52.72 81.64 49.96 84.20 C 49.10 82.47 48.14 80.78 47.08 79.17 C 45.63 76.85 44.19 74.52 42.72 72.21 C 43.43 71.58 44.14 70.96 44.86 70.34 C 46.06 70.86 47.26 71.38 48.46 71.90 C 48.55 70.49 48.63 69.07 48.72 67.66 C 53.68 65.76 59.09 63.78 62.25 59.23 C 66.30 53.32 66.41 44.76 62.03 38.99 C 58.84 34.36 53.33 32.44 48.46 30.13 C 48.73 28.93 49.01 27.72 49.28 26.52 C 48.06 26.38 46.85 26.24 45.63 26.11 C 45.63 27.28 45.62 28.45 45.62 29.62 C 44.54 29.79 43.47 29.96 42.40 30.13 C 42.64 30.59 43.12 31.51 43.36 31.98 C 39.61 35.65 34.89 37.98 30.14 40.09 C 32.94 36.25 36.19 32.80 39.36 29.29 C 40.72 28.01 41.09 26.15 41.33 24.38 C 42.81 22.71 44.13 20.91 45.69 19.31 C 47.25 17.61 49.29 16.22 50.31 14.09 C 50.58 11.24 50.08 8.38 49.88 5.54 C 49.81 5.15 49.67 4.37 49.60 3.98 Z" />
<path fill="#8e8384" opacity="1.00" d=" M 45.57 10.59 C 45.97 8.25 48.29 7.02 49.88 5.54 C 50.08 8.38 50.58 11.24 50.31 14.09 C 49.29 16.22 47.25 17.61 45.69 19.31 C 45.43 16.41 44.99 13.49 45.57 10.59 Z" />
<path fill="#cbcdb6" opacity="1.00" d=" M 37.69 18.34 C 40.15 15.59 42.70 12.92 45.57 10.59 C 44.99 13.49 45.43 16.41 45.69 19.31 C 44.13 20.91 42.81 22.71 41.33 24.38 C 39.61 26.29 37.82 28.13 36.06 29.99 C 35.66 30.12 34.85 30.36 34.45 30.48 C 36.14 27.38 37.00 23.91 36.52 20.38 L 36.50 19.58 C 36.73 19.34 37.20 18.85 37.44 18.61 C 37.50 18.54 37.63 18.41 37.69 18.34 Z" />
<path fill="#1e1f1a" opacity="1.00" d=" M 37.44 18.61 C 37.50 18.54 37.63 18.41 37.69 18.34 C 37.63 18.41 37.50 18.54 37.44 18.61 Z" />
<path fill="#f5f4f6" opacity="1.00" d=" M 34.37 22.39 C 34.91 21.89 35.99 20.88 36.52 20.38 C 37.00 23.91 36.14 27.38 34.45 30.48 C 31.81 31.37 29.06 31.14 26.38 30.64 C 26.78 30.26 27.57 29.52 27.97 29.14 C 30.25 27.04 32.28 24.68 34.37 22.39 Z" />
<path fill="#302522" opacity="1.00" d=" M 27.97 29.14 C 29.33 26.26 31.50 23.84 34.37 22.39 C 32.28 24.68 30.25 27.04 27.97 29.14 Z" />
<path fill="#161619" opacity="1.00" d=" M 36.06 29.99 C 37.82 28.13 39.61 26.29 41.33 24.38 C 41.09 26.15 40.72 28.01 39.36 29.29 C 36.19 32.80 32.94 36.25 30.14 40.09 C 34.89 37.98 39.61 35.65 43.36 31.98 C 43.96 32.06 45.16 32.22 45.76 32.30 C 47.01 43.35 46.34 54.52 46.04 65.61 C 44.68 65.99 43.31 66.37 41.94 66.75 C 43.29 67.61 44.66 68.46 46.01 69.32 C 45.73 69.57 45.15 70.08 44.86 70.34 C 44.14 70.96 43.43 71.58 42.72 72.21 C 44.19 74.52 45.63 76.85 47.08 79.17 C 44.77 77.05 42.32 75.07 40.25 72.69 C 36.15 67.19 31.45 62.11 26.34 57.53 C 23.75 54.81 21.39 51.89 18.89 49.10 C 24.42 42.55 30.66 36.65 36.06 29.99 Z" />
<path fill="#9e979e" opacity="1.00" d=" M 64.56 29.54 C 65.85 27.99 67.15 26.44 68.42 24.88 C 69.93 26.36 71.69 27.69 72.69 29.59 C 73.17 32.23 72.67 34.88 71.98 37.42 C 69.41 34.88 66.96 32.23 64.56 29.54 Z" />
<path fill="#ce5663" opacity="1.00" d=" M 45.63 26.11 C 46.85 26.24 48.06 26.38 49.28 26.52 C 49.01 27.72 48.73 28.93 48.46 30.13 C 53.33 32.44 58.84 34.36 62.03 38.99 C 66.41 44.76 66.30 53.32 62.25 59.23 C 59.09 63.78 53.68 65.76 48.72 67.66 C 48.63 69.07 48.55 70.49 48.46 71.90 C 47.26 71.38 46.06 70.86 44.86 70.34 C 45.15 70.08 45.73 69.57 46.01 69.32 C 44.66 68.46 43.29 67.61 41.94 66.75 C 43.31 66.37 44.68 65.99 46.04 65.61 C 46.34 54.52 47.01 43.35 45.76 32.30 C 45.16 32.22 43.96 32.06 43.36 31.98 C 43.12 31.51 42.64 30.59 42.40 30.13 C 43.47 29.96 44.54 29.79 45.62 29.62 C 45.62 28.45 45.63 27.28 45.63 26.11 M 48.28 32.70 C 48.31 43.52 48.29 54.34 48.26 65.17 C 54.33 63.63 60.70 60.07 62.80 53.80 C 64.22 48.42 63.26 41.91 58.97 38.05 C 55.98 35.36 52.28 33.08 48.28 32.70 Z" />
<path fill="#9a6b66" opacity="1.00" d=" M 24.10 33.05 C 24.66 32.08 25.59 31.41 26.38 30.64 C 29.06 31.14 31.81 31.37 34.45 30.48 C 34.85 30.36 35.66 30.12 36.06 29.99 C 30.66 36.65 24.42 42.55 18.89 49.10 C 21.39 51.89 23.75 54.81 26.34 57.53 C 23.44 55.87 20.99 53.65 18.81 51.15 C 16.86 48.82 13.58 49.02 10.85 48.59 C 13.60 48.05 16.78 48.01 18.87 45.87 C 22.15 42.54 24.73 38.61 27.80 35.09 C 26.24 35.43 24.67 35.75 23.10 36.08 C 23.41 35.06 23.75 34.06 24.10 33.05 Z" />
<path fill="#ccced2" opacity="1.00" d=" M 71.98 37.42 C 72.67 34.88 73.17 32.23 72.69 29.59 C 73.90 30.85 75.16 32.07 76.35 33.36 C 76.42 33.44 76.56 33.60 76.63 33.68 C 76.90 34.07 77.42 34.85 77.69 35.24 C 78.00 35.70 78.62 36.62 78.94 37.07 C 79.30 37.37 80.03 37.96 80.39 38.25 C 80.48 38.33 80.65 38.50 80.74 38.58 C 81.21 39.10 82.15 40.14 82.62 40.66 C 83.56 41.84 84.61 42.93 85.77 43.91 C 86.05 44.19 86.61 44.73 86.89 45.00 C 87.27 45.95 87.93 46.65 88.86 47.10 C 89.09 47.42 89.55 48.07 89.78 48.39 C 89.91 48.76 90.18 49.49 90.32 49.85 C 89.70 49.77 88.47 49.61 87.85 49.53 C 86.55 49.35 85.25 49.14 83.96 48.91 C 82.33 48.30 80.73 47.60 79.28 46.65 C 77.02 43.44 74.78 40.19 71.98 37.42 Z" />
<path fill="#302522" opacity="1.00" d=" M 8.91 49.09 C 13.94 43.72 18.59 37.96 24.10 33.05 C 23.75 34.06 23.41 35.06 23.10 36.08 C 24.67 35.75 26.24 35.43 27.80 35.09 C 24.73 38.61 22.15 42.54 18.87 45.87 C 16.78 48.01 13.60 48.05 10.85 48.59 C 13.58 49.02 16.86 48.82 18.81 51.15 C 20.99 53.65 23.44 55.87 26.34 57.53 C 31.45 62.11 36.15 67.19 40.25 72.69 C 40.71 74.31 41.08 75.96 41.45 77.60 C 37.52 77.08 34.58 74.39 31.65 71.96 C 31.77 72.44 32.01 73.40 32.12 73.89 C 28.16 70.87 25.13 66.87 21.72 63.28 C 17.48 58.52 12.99 53.99 8.91 49.09 Z" />
<path fill="#0e131a" opacity="1.00" d=" M 48.28 32.70 C 52.28 33.08 55.98 35.36 58.97 38.05 C 63.26 41.91 64.22 48.42 62.80 53.80 C 60.70 60.07 54.33 63.63 48.26 65.17 C 48.29 54.34 48.31 43.52 48.28 32.70 Z" />
<path fill="#2a2b2b" opacity="1.00" d=" M 76.35 33.36 C 76.42 33.44 76.56 33.60 76.63 33.68 C 76.56 33.60 76.42 33.44 76.35 33.36 Z" />
<path fill="#303031" opacity="0.86" d=" M 77.69 35.24 C 78.07 35.48 78.84 35.97 79.22 36.22 L 78.94 37.07 C 78.62 36.62 78.00 35.70 77.69 35.24 Z" />
<path fill="#272626" opacity="1.00" d=" M 80.39 38.25 C 80.48 38.33 80.65 38.50 80.74 38.58 C 80.65 38.50 80.48 38.33 80.39 38.25 Z" />
<path fill="#444651" opacity="1.00" d=" M 70.18 39.06 C 72.78 42.06 75.91 44.56 79.28 46.65 C 80.73 47.60 82.33 48.30 83.96 48.91 C 80.85 51.69 77.89 54.62 75.00 57.62 C 73.01 58.11 71.03 58.66 69.08 59.32 C 71.44 52.88 73.05 45.62 70.18 39.06 Z" />
<path fill="#303030" opacity="0.78" d=" M 82.62 40.66 C 84.33 39.27 87.20 42.25 85.77 43.91 C 84.61 42.93 83.56 41.84 82.62 40.66 Z" />
<path fill="#191a1a" opacity="0.75" d=" M 86.89 45.00 C 88.67 44.65 89.33 45.35 88.86 47.10 C 87.93 46.65 87.27 45.95 86.89 45.00 Z" />
<path fill="#0c0d0d" opacity="0.83" d=" M 89.78 48.39 C 91.55 46.48 92.73 51.18 90.32 49.85 C 90.18 49.49 89.91 48.76 89.78 48.39 Z" />
<path fill="#191e22" opacity="1.00" d=" M 83.96 48.91 C 85.25 49.14 86.55 49.35 87.85 49.53 C 84.94 53.07 82.00 56.59 78.87 59.94 C 74.55 64.63 70.04 69.15 66.03 74.12 C 66.50 74.04 67.43 73.87 67.90 73.79 C 66.87 74.86 65.81 75.90 64.75 76.93 C 64.81 76.45 64.93 75.50 64.98 75.02 C 60.59 80.26 53.90 84.21 52.29 91.25 C 51.98 92.67 50.59 93.40 49.61 94.35 L 49.67 93.42 C 49.87 90.35 50.06 87.28 49.96 84.20 C 52.72 81.64 55.47 79.05 57.96 76.22 C 62.92 71.12 67.58 65.73 72.36 60.46 C 73.23 59.50 74.11 58.56 75.00 57.62 C 77.89 54.62 80.85 51.69 83.96 48.91 Z" />
<path fill="#8e8384" opacity="1.00" d=" M 87.85 49.53 C 88.47 49.61 89.70 49.77 90.32 49.85 C 87.04 53.73 83.89 57.78 79.93 60.99 C 79.66 60.72 79.13 60.20 78.87 59.94 C 82.00 56.59 84.94 53.07 87.85 49.53 Z" />
<path fill="#384451" opacity="1.00" d=" M 68.30 62.27 C 69.48 61.34 70.99 60.99 72.36 60.46 C 67.58 65.73 62.92 71.12 57.96 76.22 C 60.18 70.78 63.93 66.14 68.30 62.27 Z" />
<path fill="#444651" opacity="1.00" d=" M 66.03 74.12 C 70.04 69.15 74.55 64.63 78.87 59.94 C 79.13 60.20 79.66 60.72 79.93 60.99 C 77.78 64.68 74.56 67.57 71.76 70.76 C 70.55 71.82 69.58 73.48 67.90 73.79 C 67.43 73.87 66.50 74.04 66.03 74.12 Z" />
<path fill="#4e474a" opacity="1.00" d=" M 31.65 71.96 C 34.58 74.39 37.52 77.08 41.45 77.60 C 41.08 75.96 40.71 74.31 40.25 72.69 C 42.32 75.07 44.77 77.05 47.08 79.17 C 48.14 80.78 49.10 82.47 49.96 84.20 C 50.06 87.28 49.87 90.35 49.67 93.42 C 44.92 88.81 40.67 83.72 36.09 78.94 C 34.67 77.34 33.05 75.84 32.12 73.89 C 32.01 73.40 31.77 72.44 31.65 71.96 Z" />
<path fill="#444651" opacity="1.00" d=" M 52.29 91.25 C 53.90 84.21 60.59 80.26 64.98 75.02 C 64.93 75.50 64.81 76.45 64.75 76.93 C 64.64 78.42 63.41 79.46 62.59 80.59 C 59.28 84.25 56.24 88.23 52.29 91.25 Z" />
</svg>
