<?xml version="1.0" encoding="UTF-8" ?>
<!DOCTYPE svg PUBLIC "-//W3C//DTD SVG 1.1//EN" "http://www.w3.org/Graphics/SVG/1.1/DTD/svg11.dtd">
<svg width="100pt" height="100pt" viewBox="0 0 100 100" version="1.1" xmlns="http://www.w3.org/2000/svg">
<path fill="#29282e" opacity="1.00" d=" M 49.69 3.98 C 56.53 10.32 62.38 17.63 68.73 24.45 L 68.43 24.87 C 67.26 26.52 65.73 27.89 64.59 29.56 C 66.95 32.28 69.47 34.86 72.01 37.42 C 74.71 40.26 77.02 43.44 79.27 46.64 C 75.88 44.56 72.97 41.82 70.11 39.07 C 72.41 46.95 70.86 55.52 67.13 62.70 C 64.02 67.18 59.99 71.03 57.93 76.20 C 55.50 79.00 52.81 81.56 50.12 84.10 C 49.08 82.47 48.03 80.84 46.97 79.22 C 45.67 76.94 44.47 74.60 43.24 72.27 C 47.67 69.72 53.10 68.56 56.44 64.43 C 61.26 58.91 65.84 51.71 64.10 44.06 C 63.36 39.08 58.66 36.18 57.04 31.60 C 56.88 31.02 56.56 29.85 56.40 29.27 C 55.47 30.07 54.53 30.85 53.63 31.67 C 44.73 29.87 37.78 36.99 30.12 40.13 C 32.73 36.43 35.84 33.13 38.91 29.81 C 40.42 28.38 40.92 26.34 41.35 24.38 C 42.80 22.68 44.19 20.94 45.74 19.33 C 47.27 17.62 49.23 16.18 50.24 14.07 C 50.67 11.22 50.10 8.35 49.82 5.51 C 49.79 5.13 49.72 4.36 49.69 3.98 Z" />
<path fill="#8e8384" opacity="1.00" d=" M 45.39 10.57 C 46.17 8.38 48.17 7.00 49.82 5.51 C 50.10 8.35 50.67 11.22 50.24 14.07 C 49.23 16.18 47.27 17.62 45.74 19.33 C 45.16 16.44 45.47 13.49 45.39 10.57 Z" />
<path fill="#cbcdb6" opacity="1.00" d=" M 37.67 18.34 C 40.14 15.65 42.73 13.07 45.39 10.57 C 45.47 13.49 45.16 16.44 45.74 19.33 C 44.19 20.94 42.80 22.68 41.35 24.38 C 39.64 26.30 37.84 28.13 36.07 29.99 C 35.68 30.14 34.90 30.42 34.52 30.57 C 36.06 27.37 36.83 23.88 36.57 20.33 L 36.57 19.49 C 36.78 19.26 37.22 18.81 37.43 18.59 C 37.49 18.52 37.61 18.40 37.67 18.34 Z" />
<path fill="#1e1f1a" opacity="1.00" d=" M 37.43 18.59 C 37.49 18.52 37.61 18.40 37.67 18.34 C 37.61 18.40 37.49 18.52 37.43 18.59 Z" />
<path fill="#f5f4f6" opacity="1.00" d=" M 34.39 22.39 C 34.94 21.87 36.03 20.84 36.57 20.33 C 36.83 23.88 36.06 27.37 34.52 30.57 C 31.84 31.21 29.05 31.17 26.36 30.62 C 26.75 30.26 27.53 29.53 27.92 29.16 C 30.22 27.05 32.27 24.68 34.39 22.39 Z" />
<path fill="#302522" opacity="1.00" d=" M 27.92 29.16 C 29.37 26.32 31.52 23.85 34.39 22.39 C 32.27 24.68 30.22 27.05 27.92 29.16 Z" />
<path fill="#17171b" opacity="1.00" d=" M 36.07 29.99 C 37.84 28.13 39.64 26.30 41.35 24.38 C 40.92 26.34 40.42 28.38 38.91 29.81 C 35.84 33.13 32.73 36.43 30.12 40.13 C 37.78 36.99 44.73 29.87 53.63 31.67 C 46.68 39.71 38.18 46.46 32.60 55.61 C 34.15 55.03 35.70 54.44 37.24 53.83 C 41.55 58.52 45.86 63.20 50.34 67.73 C 52.47 65.40 54.59 63.07 56.72 60.75 C 54.64 58.32 52.34 55.99 50.93 53.08 C 54.16 48.82 58.88 45.75 61.07 40.70 C 56.45 43.73 52.87 47.98 48.92 51.78 C 46.97 49.70 45.04 47.60 43.13 45.48 C 48.13 41.23 52.43 36.25 57.04 31.60 C 58.66 36.18 63.36 39.08 64.10 44.06 C 65.84 51.71 61.26 58.91 56.44 64.43 C 53.10 68.56 47.67 69.72 43.24 72.27 C 44.47 74.60 45.67 76.94 46.97 79.22 C 44.76 77.01 42.36 74.99 40.26 72.66 C 36.08 67.23 31.50 62.06 26.30 57.58 C 23.82 54.75 21.30 51.96 18.89 49.08 C 24.45 42.57 30.62 36.60 36.07 29.99 Z" />
<path fill="#9e979e" opacity="1.00" d=" M 64.59 29.56 C 65.73 27.89 67.26 26.52 68.43 24.87 C 69.97 26.35 71.63 27.76 72.77 29.59 C 73.01 32.23 72.62 34.86 72.01 37.42 C 69.47 34.86 66.95 32.28 64.59 29.56 Z" />
<path fill="#e7616e" opacity="1.00" d=" M 53.63 31.67 C 54.53 30.85 55.47 30.07 56.40 29.27 C 56.56 29.85 56.88 31.02 57.04 31.60 C 52.43 36.25 48.13 41.23 43.13 45.48 C 45.04 47.60 46.97 49.70 48.92 51.78 C 52.87 47.98 56.45 43.73 61.07 40.70 C 58.88 45.75 54.16 48.82 50.93 53.08 C 52.34 55.99 54.64 58.32 56.72 60.75 C 54.59 63.07 52.47 65.40 50.34 67.73 C 45.86 63.20 41.55 58.52 37.24 53.83 C 35.70 54.44 34.15 55.03 32.60 55.61 C 38.18 46.46 46.68 39.71 53.63 31.67 M 42.37 47.00 C 40.83 48.63 39.30 50.27 37.79 51.93 C 41.74 56.50 45.62 61.15 49.94 65.37 C 51.44 63.60 52.92 61.82 54.38 60.02 C 52.67 58.20 50.94 56.40 49.19 54.62 C 48.40 55.77 47.62 56.92 46.84 58.07 C 46.20 57.15 45.57 56.23 44.95 55.30 C 45.93 54.70 46.91 54.09 47.89 53.48 C 46.24 51.17 44.39 48.99 42.37 47.00 Z" />
<path fill="#9a6b66" opacity="1.00" d=" M 24.13 33.05 C 24.81 32.19 25.57 31.40 26.36 30.62 C 29.05 31.17 31.84 31.21 34.52 30.57 C 34.90 30.42 35.68 30.14 36.07 29.99 C 30.62 36.60 24.45 42.57 18.89 49.08 C 21.30 51.96 23.82 54.75 26.30 57.58 C 23.34 55.64 20.75 53.22 18.25 50.74 C 16.33 48.82 13.36 49.08 10.89 48.59 C 13.85 48.04 17.24 47.81 19.35 45.38 C 22.40 42.15 24.92 38.47 27.80 35.09 C 26.21 35.42 24.62 35.74 23.04 36.06 C 23.38 35.05 23.75 34.05 24.13 33.05 Z" />
<path fill="#ccced2" opacity="1.00" d=" M 72.01 37.42 C 72.62 34.86 73.01 32.23 72.77 29.59 C 74.00 30.83 75.24 32.06 76.36 33.40 C 76.43 33.48 76.56 33.64 76.63 33.73 C 76.90 34.10 77.43 34.86 77.70 35.23 C 78.01 35.69 78.64 36.61 78.95 37.07 C 79.31 37.36 80.02 37.96 80.38 38.26 C 80.47 38.34 80.64 38.50 80.73 38.58 C 81.20 39.09 82.14 40.10 82.62 40.61 C 83.54 41.84 84.62 42.93 85.80 43.91 C 86.07 44.19 86.60 44.73 86.87 45.01 C 87.25 45.97 87.92 46.67 88.87 47.08 C 89.09 47.42 89.54 48.09 89.76 48.43 C 89.91 48.79 90.20 49.51 90.35 49.87 C 89.73 49.77 88.49 49.57 87.87 49.47 C 87.16 49.37 85.74 49.16 85.03 49.05 C 82.97 48.63 80.99 47.85 79.27 46.64 C 77.02 43.44 74.71 40.26 72.01 37.42 Z" />
<path fill="#302522" opacity="1.00" d=" M 8.91 49.08 C 13.95 43.72 18.58 37.92 24.13 33.05 C 23.75 34.05 23.38 35.05 23.04 36.06 C 24.62 35.74 26.21 35.42 27.80 35.09 C 24.92 38.47 22.40 42.15 19.35 45.38 C 17.24 47.81 13.85 48.04 10.89 48.59 C 13.36 49.08 16.33 48.82 18.25 50.74 C 20.75 53.22 23.34 55.64 26.30 57.58 C 31.50 62.06 36.08 67.23 40.26 72.66 C 40.72 74.33 41.09 76.02 41.45 77.71 C 37.65 76.82 34.51 74.45 31.54 72.03 C 31.70 72.49 32.03 73.40 32.19 73.86 C 28.54 71.19 25.73 67.63 22.68 64.34 C 18.13 59.22 13.31 54.34 8.91 49.08 Z" />
<path fill="#2a2b2b" opacity="1.00" d=" M 76.36 33.40 C 76.43 33.48 76.56 33.64 76.63 33.73 C 76.56 33.64 76.43 33.48 76.36 33.40 Z" />
<path fill="#303031" opacity="0.86" d=" M 77.70 35.23 C 78.08 35.48 78.85 35.96 79.24 36.20 L 78.95 37.07 C 78.64 36.61 78.01 35.69 77.70 35.23 Z" />
<path fill="#272626" opacity="1.00" d=" M 80.38 38.26 C 80.47 38.34 80.64 38.50 80.73 38.58 C 80.64 38.50 80.47 38.34 80.38 38.26 Z" />
<path fill="#40434d" opacity="1.00" d=" M 70.11 39.07 C 72.97 41.82 75.88 44.56 79.27 46.64 C 80.99 47.85 82.97 48.63 85.03 49.05 C 80.01 51.45 76.74 56.09 72.99 59.99 C 67.86 65.30 63.10 70.93 57.93 76.20 C 59.99 71.03 64.02 67.18 67.13 62.70 C 70.86 55.52 72.41 46.95 70.11 39.07 Z" />
<path fill="#303030" opacity="0.78" d=" M 82.62 40.61 C 84.32 39.30 87.17 42.25 85.80 43.91 C 84.62 42.93 83.54 41.84 82.62 40.61 Z" />
<path fill="#191a1a" opacity="0.75" d=" M 86.87 45.01 C 88.64 44.66 89.31 45.35 88.87 47.08 C 87.92 46.67 87.25 45.97 86.87 45.01 Z" />
<path fill="#0c1015" opacity="1.00" d=" M 42.37 47.00 C 44.39 48.99 46.24 51.17 47.89 53.48 C 46.91 54.09 45.93 54.70 44.95 55.30 C 45.57 56.23 46.20 57.15 46.84 58.07 C 47.62 56.92 48.40 55.77 49.19 54.62 C 50.94 56.40 52.67 58.20 54.38 60.02 C 52.92 61.82 51.44 63.60 49.94 65.37 C 45.62 61.15 41.74 56.50 37.79 51.93 C 39.30 50.27 40.83 48.63 42.37 47.00 Z" />
<path fill="#0c0d0d" opacity="0.83" d=" M 89.76 48.43 C 91.43 46.43 92.81 51.09 90.35 49.87 C 90.20 49.51 89.91 48.79 89.76 48.43 Z" />
<path fill="#191e22" opacity="1.00" d=" M 85.03 49.05 C 85.74 49.16 87.16 49.37 87.87 49.47 C 85.05 52.98 82.13 56.40 79.11 59.73 C 74.65 64.48 69.99 69.06 65.99 74.21 C 66.46 74.10 67.39 73.89 67.86 73.78 C 66.83 74.84 65.80 75.89 64.74 76.91 C 64.83 76.44 65.00 75.50 65.09 75.03 C 60.41 80.05 54.06 84.25 52.25 91.25 C 51.81 92.60 50.59 93.45 49.66 94.45 L 49.69 93.47 C 49.79 90.34 49.96 87.22 50.12 84.10 C 52.81 81.56 55.50 79.00 57.93 76.20 C 63.10 70.93 67.86 65.30 72.99 59.99 C 76.74 56.09 80.01 51.45 85.03 49.05 Z" />
<path fill="#8e8384" opacity="1.00" d=" M 87.87 49.47 C 88.49 49.57 89.73 49.77 90.35 49.87 C 87.00 53.87 83.61 57.87 79.63 61.27 C 79.50 60.88 79.24 60.12 79.11 59.73 C 82.13 56.40 85.05 52.98 87.87 49.47 Z" />
<path fill="#40434d" opacity="1.00" d=" M 65.99 74.21 C 69.99 69.06 74.65 64.48 79.11 59.73 C 79.24 60.12 79.50 60.88 79.63 61.27 C 78.01 64.56 75.07 66.96 72.74 69.74 C 71.22 71.15 69.98 73.25 67.86 73.78 C 67.39 73.89 66.46 74.10 65.99 74.21 Z" />
<path fill="#4e474a" opacity="1.00" d=" M 31.54 72.03 C 34.51 74.45 37.65 76.82 41.45 77.71 C 41.09 76.02 40.72 74.33 40.26 72.66 C 42.36 74.99 44.76 77.01 46.97 79.22 C 48.03 80.84 49.08 82.47 50.12 84.10 C 49.96 87.22 49.79 90.34 49.69 93.47 C 44.95 88.81 40.67 83.72 36.07 78.94 C 34.68 77.34 33.01 75.86 32.19 73.86 C 32.03 73.40 31.70 72.49 31.54 72.03 Z" />
<path fill="#40434d" opacity="1.00" d=" M 52.25 91.25 C 54.06 84.25 60.41 80.05 65.09 75.03 C 65.00 75.50 64.83 76.44 64.74 76.91 C 64.48 78.61 63.15 79.83 62.14 81.12 C 59.01 84.65 56.03 88.38 52.25 91.25 Z" />
</svg>
