<?xml version="1.0" encoding="UTF-8" ?>
<!DOCTYPE svg PUBLIC "-//W3C//DTD SVG 1.1//EN" "http://www.w3.org/Graphics/SVG/1.1/DTD/svg11.dtd">
<svg width="100pt" height="100pt" viewBox="0 0 100 100" version="1.1" xmlns="http://www.w3.org/2000/svg">
<path fill="#2b2d34" opacity="1.00" d=" M 49.75 3.99 C 55.46 9.39 60.51 15.42 65.82 21.19 C 66.75 22.36 68.00 23.40 68.46 24.86 C 67.23 26.49 65.90 28.03 64.58 29.58 C 66.98 32.27 69.48 34.86 72.02 37.41 C 74.74 40.24 77.01 43.45 79.29 46.63 C 76.30 44.89 73.64 42.65 71.23 40.17 C 73.11 46.03 71.63 52.15 71.04 58.09 C 73.66 55.95 76.20 53.73 78.68 51.44 C 78.97 51.84 79.56 52.64 79.86 53.04 C 75.45 57.91 70.72 62.49 66.39 67.43 C 61.82 72.96 56.85 78.17 51.27 82.71 C 50.20 81.95 49.11 81.20 48.07 80.39 C 47.59 79.94 47.10 79.48 46.62 79.02 C 45.83 76.84 45.04 74.65 44.27 72.47 C 45.81 72.37 47.36 72.28 48.90 72.21 C 50.29 72.18 51.69 72.12 53.07 71.92 C 59.74 65.10 65.73 56.77 66.61 46.99 C 66.22 37.07 58.79 29.30 50.73 24.40 C 45.78 26.62 41.16 29.48 36.86 32.77 C 41.24 27.19 46.12 22.04 50.97 16.86 C 50.65 16.59 50.03 16.06 49.72 15.79 C 50.09 12.37 50.16 8.93 49.86 5.50 C 49.83 5.12 49.78 4.37 49.75 3.99 Z" />
<path fill="#8e8384" opacity="1.00" d=" M 45.48 10.58 C 46.07 8.31 48.25 7.01 49.86 5.50 C 50.16 8.93 50.09 12.37 49.72 15.79 C 48.35 16.93 46.99 18.08 45.68 19.29 C 45.28 16.40 45.25 13.48 45.48 10.58 Z" />
<path fill="#cbcdb6" opacity="1.00" d=" M 37.66 18.34 C 40.06 15.56 42.75 13.04 45.48 10.58 C 45.25 13.48 45.28 16.40 45.68 19.29 C 42.34 22.73 39.33 26.48 36.04 29.96 C 35.66 30.11 34.90 30.40 34.52 30.54 C 36.14 27.37 36.64 23.84 36.67 20.32 C 36.86 19.89 37.26 19.03 37.45 18.60 C 37.50 18.54 37.61 18.41 37.66 18.34 Z" />
<path fill="#221d22" opacity="1.00" d=" M 49.72 15.79 C 50.03 16.06 50.65 16.59 50.97 16.86 C 46.12 22.04 41.24 27.19 36.86 32.77 C 41.16 29.48 45.78 26.62 50.73 24.40 C 58.79 29.30 66.22 37.07 66.61 46.99 C 65.73 56.77 59.74 65.10 53.07 71.92 C 52.64 70.58 52.24 69.24 51.85 67.90 C 54.42 62.00 60.96 58.30 61.68 51.58 C 62.35 44.18 58.28 36.93 52.27 32.76 C 51.92 30.29 51.22 27.88 50.38 25.54 C 49.59 31.23 49.74 36.99 49.34 42.71 C 49.32 37.80 49.10 32.88 48.99 27.97 C 48.03 30.77 47.50 34.07 44.95 35.94 C 40.58 39.41 35.49 41.84 31.13 45.32 C 28.58 47.33 27.29 50.40 25.87 53.23 C 24.02 52.39 22.19 51.55 20.34 50.70 C 18.30 48.79 20.96 46.66 22.14 45.15 C 26.89 40.19 31.63 35.23 36.04 29.96 C 39.33 26.48 42.34 22.73 45.68 19.29 C 46.99 18.08 48.35 16.93 49.72 15.79 Z" />
<path fill="#1e1f1a" opacity="1.00" d=" M 37.45 18.60 C 37.50 18.54 37.61 18.41 37.66 18.34 C 37.61 18.41 37.50 18.54 37.45 18.60 Z" />
<path fill="#f5f4f6" opacity="1.00" d=" M 34.39 22.39 C 34.96 21.87 36.10 20.84 36.67 20.32 C 36.64 23.84 36.14 27.37 34.52 30.54 C 31.86 31.13 29.12 31.11 26.44 30.70 C 26.82 30.32 27.57 29.57 27.95 29.20 C 30.20 27.03 32.27 24.68 34.39 22.39 Z" />
<path fill="#353126" opacity="0.80" d=" M 27.95 29.20 C 29.31 26.28 31.50 23.84 34.39 22.39 C 32.27 24.68 30.20 27.03 27.95 29.20 Z" />
<path fill="#9e979e" opacity="1.00" d=" M 64.58 29.58 C 65.90 28.03 67.23 26.49 68.46 24.86 C 69.96 26.37 71.65 27.75 72.76 29.59 C 73.00 32.22 72.62 34.85 72.02 37.41 C 69.48 34.86 66.98 32.27 64.58 29.58 Z" />
<path fill="#ac565c" opacity="1.00" d=" M 50.38 25.54 C 51.22 27.88 51.92 30.29 52.27 32.76 C 52.24 36.35 52.45 40.02 51.57 43.54 C 49.30 46.22 44.97 47.49 44.42 51.37 C 43.59 55.43 47.51 59.97 51.73 58.82 C 54.65 57.44 56.70 54.80 59.15 52.79 C 58.68 57.21 55.33 60.07 51.75 62.20 C 51.75 64.10 51.75 66.00 51.85 67.90 C 52.24 69.24 52.64 70.58 53.07 71.92 C 51.69 72.12 50.29 72.18 48.90 72.21 C 49.46 68.36 49.74 64.48 49.72 60.59 C 46.22 62.05 42.91 63.93 39.63 65.84 C 40.99 63.36 42.73 61.12 44.69 59.09 C 43.29 55.95 41.49 52.46 42.86 48.97 C 43.61 45.77 46.81 44.30 49.34 42.71 C 49.74 36.99 49.59 31.23 50.38 25.54 Z" />
<path fill="#141518" opacity="1.00" d=" M 44.95 35.94 C 47.50 34.07 48.03 30.77 48.99 27.97 C 49.10 32.88 49.32 37.80 49.34 42.71 C 46.81 44.30 43.61 45.77 42.86 48.97 C 41.49 52.46 43.29 55.95 44.69 59.09 C 42.73 61.12 40.99 63.36 39.63 65.84 C 42.91 63.93 46.22 62.05 49.72 60.59 C 49.74 64.48 49.46 68.36 48.90 72.21 C 47.36 72.28 45.81 72.37 44.27 72.47 C 45.04 74.65 45.83 76.84 46.62 79.02 C 44.57 77.02 42.63 74.92 40.64 72.87 C 39.84 72.05 39.03 71.25 38.20 70.46 C 35.58 67.62 32.97 64.77 30.37 61.91 C 29.11 60.37 27.79 58.88 26.35 57.51 C 24.25 55.33 22.25 53.06 20.34 50.70 C 22.19 51.55 24.02 52.39 25.87 53.23 C 27.29 50.40 28.58 47.33 31.13 45.32 C 35.49 41.84 40.58 39.41 44.95 35.94 Z" />
<path fill="#a46f6a" opacity="1.00" d=" M 23.47 33.42 C 24.46 32.51 25.45 31.60 26.44 30.70 C 29.12 31.11 31.86 31.13 34.52 30.54 C 34.90 30.40 35.66 30.11 36.04 29.96 C 31.63 35.23 26.89 40.19 22.14 45.15 C 20.96 46.66 18.30 48.79 20.34 50.70 C 22.25 53.06 24.25 55.33 26.35 57.51 C 22.97 55.58 20.23 52.83 17.86 49.78 C 15.61 49.17 13.30 48.82 11.00 48.50 C 13.81 48.21 17.11 48.41 19.16 46.08 C 22.57 42.68 25.24 38.65 28.17 34.86 C 26.60 34.39 25.03 33.91 23.47 33.42 Z" />
<path fill="#ccced2" opacity="1.00" d=" M 72.02 37.41 C 72.62 34.85 73.00 32.22 72.76 29.59 C 73.98 30.85 75.22 32.08 76.37 33.40 C 76.44 33.48 76.57 33.64 76.64 33.72 C 76.90 34.10 77.43 34.86 77.70 35.24 C 78.01 35.70 78.63 36.62 78.95 37.07 C 79.31 37.37 80.02 37.96 80.38 38.25 C 80.47 38.33 80.64 38.50 80.73 38.58 C 81.20 39.09 82.14 40.10 82.61 40.61 C 83.55 41.82 84.63 42.92 85.80 43.92 C 86.07 44.19 86.60 44.73 86.87 45.01 C 87.26 45.97 87.92 46.66 88.87 47.08 C 89.09 47.42 89.54 48.10 89.77 48.44 C 89.91 48.81 90.21 49.53 90.36 49.89 C 89.73 49.80 88.48 49.61 87.85 49.51 C 86.54 49.32 85.23 49.11 83.92 48.89 C 82.31 48.29 80.74 47.56 79.29 46.63 C 77.01 43.45 74.74 40.24 72.02 37.41 Z" />
<path fill="#4e4040" opacity="1.00" d=" M 8.77 49.73 C 13.32 43.99 18.43 38.73 23.47 33.42 C 25.03 33.91 26.60 34.39 28.17 34.86 C 25.24 38.65 22.57 42.68 19.16 46.08 C 17.11 48.41 13.81 48.21 11.00 48.50 C 13.30 48.82 15.61 49.17 17.86 49.78 C 15.18 49.75 12.51 49.75 9.83 49.74 L 8.77 49.73 Z" />
<path fill="#0b1018" opacity="1.00" d=" M 52.27 32.76 C 58.28 36.93 62.35 44.18 61.68 51.58 C 60.96 58.30 54.42 62.00 51.85 67.90 C 51.75 66.00 51.75 64.10 51.75 62.20 C 55.33 60.07 58.68 57.21 59.15 52.79 C 56.70 54.80 54.65 57.44 51.73 58.82 C 47.51 59.97 43.59 55.43 44.42 51.37 C 44.97 47.49 49.30 46.22 51.57 43.54 C 52.45 40.02 52.24 36.35 52.27 32.76 Z" />
<path fill="#2a2b2b" opacity="1.00" d=" M 76.37 33.40 C 76.44 33.48 76.57 33.64 76.64 33.72 C 76.57 33.64 76.44 33.48 76.37 33.40 Z" />
<path fill="#303031" opacity="0.86" d=" M 77.70 35.24 C 78.08 35.48 78.85 35.97 79.24 36.21 L 78.95 37.07 C 78.63 36.62 78.01 35.70 77.70 35.24 Z" />
<path fill="#272626" opacity="1.00" d=" M 80.38 38.25 C 80.47 38.33 80.64 38.50 80.73 38.58 C 80.64 38.50 80.47 38.33 80.38 38.25 Z" />
<path fill="#444752" opacity="1.00" d=" M 71.23 40.17 C 73.64 42.65 76.30 44.89 79.29 46.63 C 80.74 47.56 82.31 48.29 83.92 48.89 C 82.55 50.26 81.19 51.64 79.86 53.04 C 79.56 52.64 78.97 51.84 78.68 51.44 C 76.20 53.73 73.66 55.95 71.04 58.09 C 71.63 52.15 73.11 46.03 71.23 40.17 Z" />
<path fill="#303030" opacity="0.78" d=" M 82.61 40.61 C 84.33 39.28 87.18 42.24 85.80 43.92 C 84.63 42.92 83.55 41.82 82.61 40.61 Z" />
<path fill="#191a1a" opacity="0.75" d=" M 86.87 45.01 C 88.65 44.65 89.31 45.35 88.87 47.08 C 87.92 46.66 87.26 45.97 86.87 45.01 Z" />
<path fill="#0c0d0d" opacity="0.83" d=" M 89.77 48.44 C 90.78 46.87 92.94 49.63 91.05 50.13 L 90.36 49.89 C 90.21 49.53 89.91 48.81 89.77 48.44 Z" />
<path fill="#191e22" opacity="1.00" d=" M 83.92 48.89 C 85.23 49.11 86.54 49.32 87.85 49.51 C 84.97 53.07 82.00 56.57 78.88 59.93 C 74.56 64.64 69.99 69.14 66.05 74.20 C 66.51 74.09 67.42 73.87 67.87 73.76 C 66.84 74.83 65.79 75.89 64.72 76.91 C 64.80 76.45 64.97 75.51 65.06 75.04 C 60.47 80.13 54.10 84.27 52.26 91.24 C 51.81 92.59 50.60 93.45 49.67 94.45 L 49.73 93.49 C 50.15 89.07 50.54 84.34 48.07 80.39 C 49.11 81.20 50.20 81.95 51.27 82.71 C 56.85 78.17 61.82 72.96 66.39 67.43 C 70.72 62.49 75.45 57.91 79.86 53.04 C 81.19 51.64 82.55 50.26 83.92 48.89 Z" />
<path fill="#8e8384" opacity="1.00" d=" M 87.85 49.51 C 88.48 49.61 89.73 49.80 90.36 49.89 C 87.01 53.71 83.88 57.78 79.91 60.99 C 79.66 60.72 79.14 60.19 78.88 59.93 C 82.00 56.57 84.97 53.07 87.85 49.51 Z" />
<path fill="#302422" opacity="1.00" d=" M 9.83 49.74 C 12.51 49.75 15.18 49.75 17.86 49.78 C 20.23 52.83 22.97 55.58 26.35 57.51 C 27.79 58.88 29.11 60.37 30.37 61.91 C 32.08 65.50 34.92 68.28 38.20 70.46 C 39.03 71.25 39.84 72.05 40.64 72.87 C 40.48 74.14 40.31 75.41 40.14 76.69 C 36.41 75.83 33.45 73.37 30.58 70.98 C 30.74 71.44 31.06 72.37 31.21 72.84 C 27.75 70.32 25.05 66.96 22.19 63.82 C 18.06 59.13 13.50 54.81 9.83 49.74 Z" />
<path fill="#444752" opacity="1.00" d=" M 66.05 74.20 C 69.99 69.14 74.56 64.64 78.88 59.93 C 79.14 60.19 79.66 60.72 79.91 60.99 C 77.92 64.49 74.89 67.24 72.25 70.24 C 70.91 71.51 69.76 73.28 67.87 73.76 C 67.42 73.87 66.51 74.09 66.05 74.20 Z" />
<path fill="#8e8384" opacity="1.00" d=" M 38.20 70.46 C 34.92 68.28 32.08 65.50 30.37 61.91 C 32.97 64.77 35.58 67.62 38.20 70.46 Z" />
<path fill="#4d4649" opacity="1.00" d=" M 30.58 70.98 C 33.45 73.37 36.41 75.83 40.14 76.69 C 40.31 75.41 40.48 74.14 40.64 72.87 C 42.63 74.92 44.57 77.02 46.62 79.02 C 47.10 79.48 47.59 79.94 48.07 80.39 C 50.54 84.34 50.15 89.07 49.73 93.49 C 44.62 88.52 40.06 83.03 35.12 77.89 C 33.72 76.30 32.07 74.82 31.21 72.84 C 31.06 72.37 30.74 71.44 30.58 70.98 Z" />
<path fill="#444752" opacity="1.00" d=" M 52.26 91.24 C 54.10 84.27 60.47 80.13 65.06 75.04 C 64.97 75.51 64.80 76.45 64.72 76.91 C 64.47 78.61 63.14 79.83 62.13 81.12 C 59.00 84.64 56.04 88.37 52.26 91.24 Z" />
</svg>
