<?xml version="1.0" encoding="UTF-8" ?>
<!DOCTYPE svg PUBLIC "-//W3C//DTD SVG 1.1//EN" "http://www.w3.org/Graphics/SVG/1.1/DTD/svg11.dtd">
<svg width="100pt" height="100pt" viewBox="0 0 100 100" version="1.1" xmlns="http://www.w3.org/2000/svg">
<path fill="#2c252b" opacity="1.00" d=" M 49.63 3.97 C 56.47 10.39 62.64 17.51 68.64 24.70 C 67.21 26.34 65.79 27.98 64.37 29.63 C 65.15 30.43 65.94 31.23 66.72 32.03 C 68.70 34.08 70.69 36.13 72.65 38.21 C 75.14 40.80 77.24 43.72 79.29 46.66 C 76.63 45.12 74.20 43.19 72.14 40.91 C 70.24 38.78 68.18 36.80 66.08 34.87 C 67.05 39.33 68.80 43.78 68.36 48.41 C 66.87 58.09 61.86 67.24 54.01 73.22 C 53.88 72.68 53.62 71.59 53.49 71.04 C 54.04 67.63 55.62 64.51 58.25 62.24 C 64.67 56.29 66.37 45.78 61.67 38.30 C 59.51 35.51 55.50 34.41 54.22 30.92 C 53.81 29.97 53.42 29.00 53.05 28.02 C 52.88 31.44 52.50 34.84 52.26 38.25 C 52.25 34.59 52.07 30.93 51.94 27.27 C 51.47 26.93 50.52 26.25 50.05 25.91 C 49.77 32.34 49.60 38.78 49.69 45.22 C 49.51 39.85 49.08 34.48 49.21 29.10 C 47.89 31.50 46.38 34.04 43.66 35.02 C 36.95 37.84 30.90 41.89 24.99 46.08 C 28.36 41.17 32.41 36.80 36.48 32.47 C 38.39 30.54 39.62 28.11 40.48 25.57 C 42.15 23.25 43.96 21.04 45.94 18.98 C 47.36 17.63 48.71 16.21 50.15 14.88 C 54.05 18.92 57.89 23.04 62.16 26.72 C 59.16 23.08 55.58 19.98 52.55 16.39 C 49.98 13.41 50.08 9.25 49.71 5.56 C 49.69 5.16 49.65 4.37 49.63 3.97 Z" />
<path fill="#8e8384" opacity="1.00" d=" M 45.56 9.70 C 46.92 8.29 48.31 6.92 49.71 5.56 C 50.08 9.25 49.98 13.41 52.55 16.39 C 55.58 19.98 59.16 23.08 62.16 26.72 C 57.89 23.04 54.05 18.92 50.15 14.88 C 48.71 16.21 47.36 17.63 45.94 18.98 C 45.72 18.69 45.28 18.12 45.06 17.84 C 45.25 15.40 45.45 12.96 45.51 10.52 L 45.56 9.70 Z" />
<path fill="#cbcdb6" opacity="1.00" d=" M 37.69 18.33 C 40.19 15.63 42.74 12.95 45.51 10.52 C 45.45 12.96 45.25 15.40 45.06 17.84 C 45.28 18.12 45.72 18.69 45.94 18.98 C 43.96 21.04 42.15 23.25 40.48 25.57 C 39.08 27.13 37.49 28.50 36.06 30.03 C 35.66 30.14 34.87 30.36 34.48 30.47 C 36.14 27.36 36.88 23.87 36.53 20.35 L 36.52 19.54 C 36.75 19.30 37.21 18.83 37.43 18.60 C 37.50 18.53 37.62 18.40 37.69 18.33 Z" />
<path fill="#1e1f1a" opacity="1.00" d=" M 37.43 18.60 C 37.50 18.53 37.62 18.40 37.69 18.33 C 37.62 18.40 37.50 18.53 37.43 18.60 Z" />
<path fill="#f5f4f6" opacity="1.00" d=" M 34.39 22.39 C 34.93 21.88 36.00 20.86 36.53 20.35 C 36.88 23.87 36.14 27.36 34.48 30.47 C 32.01 30.96 29.49 31.26 26.97 31.29 C 27.01 30.98 27.07 30.36 27.11 30.05 C 27.32 29.81 27.75 29.34 27.97 29.11 C 30.19 26.95 32.30 24.68 34.39 22.39 Z" />
<path fill="#353126" opacity="0.80" d=" M 27.97 29.11 C 29.33 26.22 31.52 23.82 34.39 22.39 C 32.30 24.68 30.19 26.95 27.97 29.11 Z" />
<path fill="#696870" opacity="1.00" d=" M 64.37 29.63 C 65.79 27.98 67.21 26.34 68.64 24.70 C 69.45 25.62 70.29 26.50 71.09 27.43 C 69.62 28.95 68.17 30.49 66.72 32.03 C 65.94 31.23 65.15 30.43 64.37 29.63 Z" />
<path fill="#151619" opacity="1.00" d=" M 36.06 30.03 C 37.49 28.50 39.08 27.13 40.48 25.57 C 39.62 28.11 38.39 30.54 36.48 32.47 C 32.41 36.80 28.36 41.17 24.99 46.08 C 30.90 41.89 36.95 37.84 43.66 35.02 C 46.38 34.04 47.89 31.50 49.21 29.10 C 49.08 34.48 49.51 39.85 49.69 45.22 C 49.79 50.37 49.76 55.52 49.91 60.68 C 47.24 59.34 44.51 58.15 41.69 57.18 C 44.21 59.42 47.13 61.17 49.61 63.46 C 50.47 66.22 49.25 69.05 48.37 71.64 C 47.83 73.27 46.97 74.87 46.95 76.62 C 47.84 79.00 49.58 80.93 51.03 82.98 C 55.90 78.89 60.56 74.53 64.58 69.59 C 69.16 63.89 74.82 59.17 79.20 53.30 C 80.72 51.77 82.34 50.34 83.94 48.90 C 85.24 49.11 86.54 49.32 87.84 49.51 C 84.93 53.04 81.97 56.54 78.85 59.89 C 74.53 64.58 69.98 69.09 66.05 74.12 C 66.50 74.02 67.42 73.84 67.87 73.74 C 66.88 74.82 65.85 75.87 64.81 76.90 C 64.88 76.39 65.02 75.35 65.09 74.84 C 60.40 79.94 53.71 84.10 52.20 91.32 C 51.84 92.68 50.56 93.44 49.66 94.42 L 49.73 93.48 C 49.87 90.15 50.72 86.65 49.57 83.43 C 47.36 79.27 43.51 76.33 40.55 72.73 C 36.20 67.31 31.40 62.27 26.40 57.45 C 23.78 54.77 21.34 51.92 18.86 49.11 C 24.45 42.62 30.57 36.61 36.06 30.03 Z" />
<path fill="#b0565c" opacity="1.00" d=" M 50.05 25.91 C 50.52 26.25 51.47 26.93 51.94 27.27 C 52.07 30.93 52.25 34.59 52.26 38.25 C 51.98 45.46 51.83 52.66 51.90 59.87 C 54.64 58.82 57.48 58.00 60.40 57.66 C 57.73 59.89 54.77 61.72 51.67 63.29 C 52.06 66.23 52.53 69.16 53.16 72.07 C 51.54 72.52 49.92 72.15 48.37 71.64 C 49.25 69.05 50.47 66.22 49.61 63.46 C 47.13 61.17 44.21 59.42 41.69 57.18 C 44.51 58.15 47.24 59.34 49.91 60.68 C 49.76 55.52 49.79 50.37 49.69 45.22 C 49.60 38.78 49.77 32.34 50.05 25.91 Z" />
<path fill="#11161d" opacity="1.00" d=" M 53.05 28.02 C 53.42 29.00 53.81 29.97 54.22 30.92 C 55.50 34.41 59.51 35.51 61.67 38.30 C 66.37 45.78 64.67 56.29 58.25 62.24 C 55.62 64.51 54.04 67.63 53.49 71.04 L 53.16 72.07 C 52.53 69.16 52.06 66.23 51.67 63.29 C 54.77 61.72 57.73 59.89 60.40 57.66 C 57.48 58.00 54.64 58.82 51.90 59.87 C 51.83 52.66 51.98 45.46 52.26 38.25 C 52.50 34.84 52.88 31.44 53.05 28.02 Z" />
<path fill="#b2acb1" opacity="1.00" d=" M 66.72 32.03 C 68.17 30.49 69.62 28.95 71.09 27.43 C 71.83 28.47 72.59 29.50 73.21 30.62 C 74.04 32.70 74.78 34.82 75.51 36.94 C 74.55 37.36 73.60 37.78 72.65 38.21 C 70.69 36.13 68.70 34.08 66.72 32.03 Z" />
<path fill="#9a6b66" opacity="1.00" d=" M 24.11 33.08 C 24.89 31.87 26.05 30.99 27.11 30.05 C 27.07 30.36 27.01 30.98 26.97 31.29 C 29.49 31.26 32.01 30.96 34.48 30.47 C 34.87 30.36 35.66 30.14 36.06 30.03 C 30.57 36.61 24.45 42.62 18.86 49.11 C 21.34 51.92 23.78 54.77 26.40 57.45 C 23.30 56.11 21.08 53.54 18.78 51.17 C 16.85 48.86 13.59 49.04 10.88 48.60 C 13.84 48.05 17.26 47.85 19.36 45.39 C 22.43 42.12 24.95 38.39 27.81 34.95 C 25.93 35.66 24.05 36.37 22.16 37.06 C 22.79 35.73 23.42 34.39 24.11 33.08 Z" />
<path fill="#d0d3d6" opacity="1.00" d=" M 73.21 30.62 C 74.89 32.02 76.76 33.37 77.79 35.36 C 78.09 35.81 78.70 36.70 79.00 37.15 C 79.35 37.43 80.04 37.99 80.39 38.27 C 80.47 38.35 80.64 38.50 80.73 38.58 C 81.20 39.10 82.14 40.12 82.61 40.63 C 83.54 41.84 84.60 42.94 85.75 43.93 C 86.03 44.21 86.57 44.77 86.85 45.05 C 87.25 46.01 87.93 46.69 88.88 47.09 C 89.10 47.43 89.55 48.09 89.77 48.43 C 89.91 48.79 90.19 49.51 90.34 49.88 C 89.71 49.79 88.46 49.60 87.84 49.51 C 86.54 49.32 85.24 49.11 83.94 48.90 C 82.33 48.30 80.75 47.57 79.29 46.66 C 77.24 43.72 75.14 40.80 72.65 38.21 C 73.60 37.78 74.55 37.36 75.51 36.94 C 74.78 34.82 74.04 32.70 73.21 30.62 Z" />
<path fill="#302422" opacity="1.00" d=" M 8.89 49.09 C 13.94 43.73 18.58 37.96 24.11 33.08 C 23.42 34.39 22.79 35.73 22.16 37.06 C 24.05 36.37 25.93 35.66 27.81 34.95 C 24.95 38.39 22.43 42.12 19.36 45.39 C 17.26 47.85 13.84 48.05 10.88 48.60 C 13.59 49.04 16.85 48.86 18.78 51.17 C 21.08 53.54 23.30 56.11 26.40 57.45 C 31.40 62.27 36.20 67.31 40.55 72.73 C 40.88 74.36 41.02 76.03 41.25 77.67 C 37.51 76.77 34.47 74.37 31.55 72.00 C 31.71 72.47 32.03 73.41 32.18 73.88 C 28.36 71.05 25.43 67.26 22.20 63.81 C 17.79 58.88 13.17 54.14 8.89 49.09 Z" />
<path fill="#2c323b" opacity="1.00" d=" M 66.08 34.87 C 68.18 36.80 70.24 38.78 72.14 40.91 C 74.13 46.09 73.07 51.68 72.09 56.94 C 74.45 54.96 76.84 53.03 79.34 51.22 C 79.30 51.74 79.24 52.78 79.20 53.30 C 74.82 59.17 69.16 63.89 64.58 69.59 C 60.56 74.53 55.90 78.89 51.03 82.98 C 49.58 80.93 47.84 79.00 46.95 76.62 C 46.97 74.87 47.83 73.27 48.37 71.64 C 49.92 72.15 51.54 72.52 53.16 72.07 L 53.49 71.04 C 53.62 71.59 53.88 72.68 54.01 73.22 C 61.86 67.24 66.87 58.09 68.36 48.41 C 68.80 43.78 67.05 39.33 66.08 34.87 Z" />
<path fill="#303031" opacity="0.86" d=" M 77.79 35.36 L 78.70 35.38 L 79.31 36.29 L 79.00 37.15 C 78.70 36.70 78.09 35.81 77.79 35.36 Z" />
<path fill="#272626" opacity="1.00" d=" M 80.39 38.27 C 80.47 38.35 80.64 38.50 80.73 38.58 C 80.64 38.50 80.47 38.35 80.39 38.27 Z" />
<path fill="#303030" opacity="0.78" d=" M 82.61 40.63 C 84.33 39.28 87.17 42.28 85.75 43.93 C 84.60 42.94 83.54 41.84 82.61 40.63 Z" />
<path fill="#4a4c57" opacity="1.00" d=" M 72.14 40.91 C 74.20 43.19 76.63 45.12 79.29 46.66 C 80.75 47.57 82.33 48.30 83.94 48.90 C 82.34 50.34 80.72 51.77 79.20 53.30 C 79.24 52.78 79.30 51.74 79.34 51.22 C 76.84 53.03 74.45 54.96 72.09 56.94 C 73.07 51.68 74.13 46.09 72.14 40.91 Z" />
<path fill="#191a1a" opacity="0.75" d=" M 86.85 45.05 C 88.61 44.66 89.29 45.34 88.88 47.09 C 87.93 46.69 87.25 46.01 86.85 45.05 Z" />
<path fill="#0c0d0d" opacity="0.83" d=" M 89.77 48.43 C 90.82 46.89 92.93 49.67 91.03 50.13 L 90.34 49.88 C 90.19 49.51 89.91 48.79 89.77 48.43 Z" />
<path fill="#8e8384" opacity="1.00" d=" M 87.84 49.51 C 88.46 49.60 89.71 49.79 90.34 49.88 C 87.02 53.71 83.90 57.79 79.92 60.97 C 79.65 60.70 79.11 60.16 78.85 59.89 C 81.97 56.54 84.93 53.04 87.84 49.51 Z" />
<path fill="#4a4c57" opacity="1.00" d=" M 66.05 74.12 C 69.98 69.09 74.53 64.58 78.85 59.89 C 79.11 60.16 79.65 60.70 79.92 60.97 C 77.79 64.68 74.55 67.56 71.76 70.75 C 70.57 71.84 69.55 73.41 67.87 73.74 C 67.42 73.84 66.50 74.02 66.05 74.12 Z" />
<path fill="#4d474a" opacity="1.00" d=" M 31.55 72.00 C 34.47 74.37 37.51 76.77 41.25 77.67 C 41.02 76.03 40.88 74.36 40.55 72.73 C 43.51 76.33 47.36 79.27 49.57 83.43 C 50.72 86.65 49.87 90.15 49.73 93.48 C 44.95 88.85 40.69 83.73 36.08 78.94 C 34.68 77.34 33.03 75.86 32.18 73.88 C 32.03 73.41 31.71 72.47 31.55 72.00 Z" />
<path fill="#303a3f" opacity="0.96" d=" M 52.20 91.32 C 53.71 84.10 60.40 79.94 65.09 74.84 C 65.02 75.35 64.88 76.39 64.81 76.90 C 64.67 78.40 63.48 79.47 62.63 80.61 C 59.34 84.34 56.17 88.26 52.20 91.32 Z" />
</svg>
