<?xml version="1.0" encoding="UTF-8" ?>
<!DOCTYPE svg PUBLIC "-//W3C//DTD SVG 1.1//EN" "http://www.w3.org/Graphics/SVG/1.1/DTD/svg11.dtd">
<svg width="100pt" height="100pt" viewBox="0 0 100 100" version="1.1" xmlns="http://www.w3.org/2000/svg">
<path fill="#2b2a31" opacity="1.00" d=" M 49.71 3.97 C 54.79 8.66 59.22 13.99 63.91 19.05 C 65.52 20.91 67.39 22.61 68.50 24.85 C 67.26 26.47 65.92 28.01 64.60 29.57 C 66.98 32.27 69.48 34.87 72.02 37.42 C 74.75 40.24 77.01 43.45 79.29 46.62 C 75.89 44.62 72.86 42.04 70.23 39.12 C 72.90 45.31 71.49 52.03 69.99 58.31 C 71.62 58.14 73.24 57.97 74.87 57.80 C 74.02 58.68 73.17 59.55 72.33 60.43 C 65.34 63.04 61.07 69.79 57.97 76.21 C 55.91 78.58 53.61 80.72 51.27 82.81 C 50.25 81.99 49.22 81.19 48.23 80.33 C 47.91 80.01 47.26 79.38 46.93 79.07 C 45.61 76.88 44.45 74.60 43.25 72.35 C 45.23 72.56 47.20 72.84 49.15 73.18 C 49.25 68.73 49.35 64.28 49.51 59.84 C 49.52 65.38 49.70 70.93 50.10 76.47 C 50.77 75.39 51.43 74.30 52.02 73.18 C 55.73 67.58 61.28 63.24 63.85 56.90 C 66.04 52.23 67.15 46.78 65.15 41.84 C 63.38 35.00 56.15 32.16 52.79 26.32 C 52.62 27.60 52.44 28.88 52.30 30.17 C 51.93 27.48 51.34 24.83 50.70 22.19 C 49.37 27.73 49.51 33.45 49.54 39.10 C 49.43 33.99 49.19 28.89 48.79 23.79 C 48.23 26.24 47.68 28.68 47.13 31.13 C 41.67 33.57 36.47 36.53 31.10 39.14 C 34.34 34.78 37.95 30.73 41.58 26.71 C 41.46 26.15 41.21 25.03 41.09 24.48 C 42.62 22.74 44.16 21.02 45.75 19.33 C 47.28 17.62 49.11 16.04 50.04 13.88 C 50.54 11.11 50.10 8.29 49.85 5.52 C 49.81 5.13 49.74 4.36 49.71 3.97 Z" />
<path fill="#8e8384" opacity="1.00" d=" M 45.45 10.58 C 46.09 8.33 48.23 7.02 49.85 5.52 C 50.10 8.29 50.54 11.11 50.04 13.88 C 49.11 16.04 47.28 17.62 45.75 19.33 C 45.30 16.44 45.28 13.50 45.45 10.58 Z" />
<path fill="#cbcdb6" opacity="1.00" d=" M 37.67 18.34 C 40.16 15.65 42.71 13.02 45.45 10.58 C 45.28 13.50 45.30 16.44 45.75 19.33 C 44.16 21.02 42.62 22.74 41.09 24.48 C 39.44 26.34 37.78 28.20 36.07 30.01 C 35.69 30.15 34.91 30.44 34.53 30.58 C 36.05 27.37 36.82 23.88 36.57 20.33 L 36.58 19.47 C 36.79 19.25 37.22 18.81 37.43 18.59 C 37.49 18.53 37.61 18.40 37.67 18.34 Z" />
<path fill="#1e1f1a" opacity="1.00" d=" M 37.43 18.59 C 37.49 18.53 37.61 18.40 37.67 18.34 C 37.61 18.40 37.49 18.53 37.43 18.59 Z" />
<path fill="#f5f4f6" opacity="1.00" d=" M 34.40 22.38 C 34.94 21.87 36.03 20.84 36.57 20.33 C 36.82 23.88 36.05 27.37 34.53 30.58 C 31.84 31.17 29.06 31.15 26.36 30.63 C 26.75 30.27 27.52 29.54 27.91 29.18 C 30.21 27.05 32.27 24.68 34.40 22.38 Z" />
<path fill="#302522" opacity="1.00" d=" M 27.91 29.18 C 29.37 26.33 31.52 23.86 34.40 22.38 C 32.27 24.68 30.21 27.05 27.91 29.18 Z" />
<path fill="#ae565c" opacity="1.00" d=" M 49.54 39.10 C 49.51 33.45 49.37 27.73 50.70 22.19 C 51.34 24.83 51.93 27.48 52.30 30.17 C 52.06 33.05 51.83 35.94 51.61 38.82 C 53.08 39.35 54.55 39.87 56.02 40.40 C 56.47 46.30 56.53 52.26 55.68 58.14 C 54.28 59.34 51.71 59.87 51.74 62.10 C 51.38 65.79 51.87 69.49 52.02 73.18 C 51.43 74.30 50.77 75.39 50.10 76.47 C 49.70 70.93 49.52 65.38 49.51 59.84 C 48.12 59.36 46.72 58.88 45.33 58.41 C 45.09 52.41 45.09 46.41 45.36 40.42 C 46.75 39.98 48.15 39.54 49.54 39.10 M 47.33 42.18 C 47.33 47.07 47.32 51.95 47.35 56.84 C 47.93 56.84 49.08 56.83 49.65 56.83 C 49.68 51.93 49.68 47.02 49.65 42.12 C 49.07 42.13 47.91 42.16 47.33 42.18 M 51.98 41.38 C 51.74 45.89 51.49 50.43 51.90 54.94 C 51.95 56.24 52.62 57.11 53.90 57.55 C 54.29 53.09 54.76 48.58 54.15 44.12 C 54.08 42.73 53.35 41.82 51.98 41.38 Z" />
<path fill="#17171a" opacity="1.00" d=" M 47.13 31.13 C 47.68 28.68 48.23 26.24 48.79 23.79 C 49.19 28.89 49.43 33.99 49.54 39.10 C 48.15 39.54 46.75 39.98 45.36 40.42 C 45.09 46.41 45.09 52.41 45.33 58.41 C 46.72 58.88 48.12 59.36 49.51 59.84 C 49.35 64.28 49.25 68.73 49.15 73.18 C 47.20 72.84 45.23 72.56 43.25 72.35 C 44.45 74.60 45.61 76.88 46.93 79.07 C 44.68 76.97 42.34 74.95 40.27 72.67 C 36.09 67.23 31.50 62.07 26.30 57.57 C 23.77 54.79 21.35 51.93 18.90 49.08 C 24.45 42.56 30.62 36.61 36.07 30.01 C 37.78 28.20 39.44 26.34 41.09 24.48 C 41.21 25.03 41.46 26.15 41.58 26.71 C 37.95 30.73 34.34 34.78 31.10 39.14 C 36.47 36.53 41.67 33.57 47.13 31.13 Z" />
<path fill="#9e979e" opacity="1.00" d=" M 64.60 29.57 C 65.92 28.01 67.26 26.47 68.50 24.85 C 69.98 26.36 71.64 27.77 72.77 29.59 C 72.98 32.23 72.61 34.86 72.02 37.42 C 69.48 34.87 66.98 32.27 64.60 29.57 Z" />
<path fill="#171b22" opacity="1.00" d=" M 52.79 26.32 C 56.15 32.16 63.38 35.00 65.15 41.84 C 67.15 46.78 66.04 52.23 63.85 56.90 C 61.28 63.24 55.73 67.58 52.02 73.18 C 51.87 69.49 51.38 65.79 51.74 62.10 C 51.71 59.87 54.28 59.34 55.68 58.14 C 56.53 52.26 56.47 46.30 56.02 40.40 C 54.55 39.87 53.08 39.35 51.61 38.82 C 51.83 35.94 52.06 33.05 52.30 30.17 C 52.44 28.88 52.62 27.60 52.79 26.32 Z" />
<path fill="#9a6b66" opacity="1.00" d=" M 24.13 33.05 C 24.79 32.17 25.58 31.40 26.36 30.63 C 29.06 31.15 31.84 31.17 34.53 30.58 C 34.91 30.44 35.69 30.15 36.07 30.01 C 30.62 36.61 24.45 42.56 18.90 49.08 C 21.35 51.93 23.77 54.79 26.30 57.57 C 23.33 55.63 20.79 53.18 18.24 50.74 C 16.31 48.85 13.36 49.08 10.89 48.59 C 13.84 48.04 17.23 47.80 19.35 45.38 C 22.40 42.16 24.91 38.49 27.78 35.11 C 26.21 35.43 24.64 35.73 23.06 36.04 C 23.40 35.03 23.76 34.04 24.13 33.05 Z" />
<path fill="#ccced2" opacity="1.00" d=" M 72.02 37.42 C 72.61 34.86 72.98 32.23 72.77 29.59 C 73.99 30.84 75.22 32.09 76.37 33.40 C 76.44 33.48 76.57 33.64 76.64 33.72 C 76.90 34.10 77.43 34.86 77.70 35.24 C 78.01 35.70 78.64 36.61 78.95 37.07 C 79.31 37.37 80.02 37.96 80.38 38.25 C 80.47 38.33 80.64 38.49 80.73 38.57 C 81.20 39.08 82.14 40.10 82.61 40.61 C 83.55 41.82 84.63 42.92 85.80 43.92 C 86.07 44.19 86.60 44.73 86.87 45.01 C 87.25 45.97 87.92 46.66 88.86 47.08 C 89.09 47.42 89.54 48.09 89.77 48.43 C 89.91 48.79 90.21 49.52 90.35 49.89 C 89.73 49.79 88.48 49.61 87.85 49.52 C 86.54 49.33 85.24 49.13 83.94 48.91 C 82.32 48.30 80.74 47.58 79.29 46.62 C 77.01 43.45 74.75 40.24 72.02 37.42 Z" />
<path fill="#302522" opacity="1.00" d=" M 8.91 49.09 C 13.95 43.72 18.58 37.92 24.13 33.05 C 23.76 34.04 23.40 35.03 23.06 36.04 C 24.64 35.73 26.21 35.43 27.78 35.11 C 24.91 38.49 22.40 42.16 19.35 45.38 C 17.23 47.80 13.84 48.04 10.89 48.59 C 13.36 49.08 16.31 48.85 18.24 50.74 C 20.79 53.18 23.33 55.63 26.30 57.57 C 31.50 62.07 36.09 67.23 40.27 72.67 C 40.72 74.33 41.09 76.01 41.45 77.69 C 37.63 76.85 34.54 74.42 31.56 72.04 C 31.71 72.50 32.02 73.41 32.18 73.87 C 28.55 71.19 25.72 67.63 22.68 64.34 C 18.12 59.22 13.31 54.34 8.91 49.09 Z" />
<path fill="#2a2b2b" opacity="1.00" d=" M 76.37 33.40 C 76.44 33.48 76.57 33.64 76.64 33.72 C 76.57 33.64 76.44 33.48 76.37 33.40 Z" />
<path fill="#303031" opacity="0.86" d=" M 77.70 35.24 C 78.08 35.48 78.85 35.97 79.24 36.21 L 78.95 37.07 C 78.64 36.61 78.01 35.70 77.70 35.24 Z" />
<path fill="#272626" opacity="1.00" d=" M 80.38 38.25 C 80.47 38.33 80.64 38.49 80.73 38.57 C 80.64 38.49 80.47 38.33 80.38 38.25 Z" />
<path fill="#444752" opacity="1.00" d=" M 70.23 39.12 C 72.86 42.04 75.89 44.62 79.29 46.62 C 80.74 47.58 82.32 48.30 83.94 48.91 C 80.80 51.75 77.80 54.74 74.87 57.80 C 73.24 57.97 71.62 58.14 69.99 58.31 C 71.49 52.03 72.90 45.31 70.23 39.12 Z" />
<path fill="#303030" opacity="0.78" d=" M 82.61 40.61 C 84.33 39.28 87.18 42.24 85.80 43.92 C 84.63 42.92 83.55 41.82 82.61 40.61 Z" />
<path fill="#000000" opacity="1.00" d=" M 47.33 42.18 C 47.91 42.16 49.07 42.13 49.65 42.12 C 49.68 47.02 49.68 51.93 49.65 56.83 C 49.08 56.83 47.93 56.84 47.35 56.84 C 47.32 51.95 47.33 47.07 47.33 42.18 Z" />
<path fill="#040d15" opacity="1.00" d=" M 51.98 41.38 C 53.35 41.82 54.08 42.73 54.15 44.12 C 54.76 48.58 54.29 53.09 53.90 57.55 C 52.62 57.11 51.95 56.24 51.90 54.94 C 51.49 50.43 51.74 45.89 51.98 41.38 Z" />
<path fill="#191a1a" opacity="0.75" d=" M 86.87 45.01 C 88.64 44.65 89.31 45.34 88.86 47.08 C 87.92 46.66 87.25 45.97 86.87 45.01 Z" />
<path fill="#0c0d0d" opacity="0.83" d=" M 89.77 48.43 C 91.42 46.43 92.81 51.07 90.35 49.89 C 90.21 49.52 89.91 48.79 89.77 48.43 Z" />
<path fill="#191e22" opacity="1.00" d=" M 83.94 48.91 C 85.24 49.13 86.54 49.33 87.85 49.52 C 85.02 52.99 82.12 56.42 79.11 59.74 C 74.68 64.48 70.06 69.06 66.06 74.17 C 66.51 74.07 67.43 73.87 67.88 73.77 C 66.86 74.85 65.80 75.90 64.73 76.92 C 64.81 76.46 64.97 75.52 65.05 75.05 C 60.44 80.11 54.14 84.30 52.26 91.24 C 51.81 92.58 50.60 93.44 49.68 94.45 L 49.74 93.49 C 50.17 89.06 50.34 84.40 48.23 80.33 C 49.22 81.19 50.25 81.99 51.27 82.81 C 53.61 80.72 55.91 78.58 57.97 76.21 C 62.88 71.07 67.62 65.76 72.33 60.43 C 73.17 59.55 74.02 58.68 74.87 57.80 C 77.80 54.74 80.80 51.75 83.94 48.91 Z" />
<path fill="#8e8384" opacity="1.00" d=" M 87.85 49.52 C 88.48 49.61 89.73 49.79 90.35 49.89 C 86.99 53.87 83.61 57.87 79.63 61.26 C 79.50 60.88 79.24 60.12 79.11 59.74 C 82.12 56.42 85.02 52.99 87.85 49.52 Z" />
<path fill="#384552" opacity="1.00" d=" M 57.97 76.21 C 61.07 69.79 65.34 63.04 72.33 60.43 C 67.62 65.76 62.88 71.07 57.97 76.21 Z" />
<path fill="#444752" opacity="1.00" d=" M 66.06 74.17 C 70.06 69.06 74.68 64.48 79.11 59.74 C 79.24 60.12 79.50 60.88 79.63 61.26 C 77.99 64.55 75.07 66.95 72.74 69.73 C 71.22 71.16 69.97 73.17 67.88 73.77 C 67.43 73.87 66.51 74.07 66.06 74.17 Z" />
<path fill="#4e474a" opacity="1.00" d=" M 31.56 72.04 C 34.54 74.42 37.63 76.85 41.45 77.69 C 41.09 76.01 40.72 74.33 40.27 72.67 C 42.34 74.95 44.68 76.97 46.93 79.07 C 47.26 79.38 47.91 80.01 48.23 80.33 C 50.34 84.40 50.17 89.06 49.74 93.49 C 44.95 88.86 40.70 83.73 36.08 78.94 C 34.68 77.34 33.01 75.86 32.18 73.87 C 32.02 73.41 31.71 72.50 31.56 72.04 Z" />
<path fill="#444752" opacity="1.00" d=" M 52.26 91.24 C 54.14 84.30 60.44 80.11 65.05 75.05 C 64.97 75.52 64.81 76.46 64.73 76.92 C 64.55 78.39 63.43 79.46 62.58 80.58 C 59.32 84.30 56.20 88.21 52.26 91.24 Z" />
</svg>
