<?xml version="1.0" encoding="UTF-8" ?>
<!DOCTYPE svg PUBLIC "-//W3C//DTD SVG 1.1//EN" "http://www.w3.org/Graphics/SVG/1.1/DTD/svg11.dtd">
<svg width="100pt" height="100pt" viewBox="0 0 100 100" version="1.1" xmlns="http://www.w3.org/2000/svg">
<path fill="#2a282f" opacity="1.00" d=" M 49.67 3.98 C 56.55 10.32 62.40 17.65 68.76 24.49 L 68.44 24.88 C 67.15 26.44 65.86 27.99 64.56 29.54 C 66.95 32.25 69.44 34.86 71.99 37.42 C 74.74 40.24 77.03 43.43 79.27 46.65 C 75.91 44.53 72.88 41.92 70.11 39.07 C 72.96 47.09 70.99 55.99 66.83 63.17 C 63.74 67.43 59.88 71.19 57.96 76.21 C 55.92 78.60 53.60 80.75 51.26 82.84 C 50.24 82.02 49.20 81.21 48.23 80.33 C 47.92 80.02 47.31 79.39 47.01 79.08 C 45.49 76.76 44.07 74.38 42.54 72.07 C 44.69 71.22 46.84 70.37 48.99 69.50 C 49.40 70.51 49.80 71.52 50.20 72.54 C 50.29 72.92 50.47 73.69 50.56 74.08 C 51.55 74.11 52.53 74.14 53.52 74.17 C 53.42 71.71 53.33 69.24 53.25 66.78 C 54.94 66.62 56.64 66.48 58.32 66.23 C 58.46 65.95 58.73 65.38 58.87 65.10 C 61.22 58.55 66.21 52.46 64.92 45.10 C 64.53 38.46 59.12 33.04 52.88 31.42 C 49.78 30.74 46.58 30.94 43.43 30.78 C 43.04 30.77 42.27 30.73 41.88 30.72 C 41.74 34.56 41.60 38.41 41.81 42.25 C 41.40 38.53 41.18 34.79 41.13 31.05 C 40.09 32.98 39.30 35.18 37.60 36.65 C 35.38 38.33 32.70 39.22 30.14 40.26 C 32.52 36.65 35.52 33.52 38.38 30.30 C 39.69 29.01 40.04 27.17 40.40 25.44 C 42.14 23.38 43.81 21.25 45.71 19.32 C 47.26 17.63 49.28 16.22 50.25 14.08 C 50.65 11.24 50.07 8.37 49.83 5.53 C 49.79 5.14 49.71 4.37 49.67 3.98 Z" />
<path fill="#8e8384" opacity="1.00" d=" M 45.43 9.75 C 46.88 8.32 48.34 6.91 49.83 5.53 C 50.07 8.37 50.65 11.24 50.25 14.08 C 49.28 16.22 47.26 17.63 45.71 19.32 C 45.32 16.41 45.34 13.48 45.40 10.56 L 45.43 9.75 Z" />
<path fill="#cbcdb6" opacity="1.00" d=" M 37.66 18.34 C 40.06 15.57 42.74 13.07 45.40 10.56 C 45.34 13.48 45.32 16.41 45.71 19.32 C 43.81 21.25 42.14 23.38 40.40 25.44 C 38.98 27.00 37.52 28.51 36.06 30.02 C 35.67 30.15 34.89 30.42 34.50 30.55 C 36.11 27.38 36.67 23.87 36.66 20.35 C 36.85 19.91 37.25 19.04 37.44 18.61 C 37.50 18.54 37.60 18.41 37.66 18.34 Z" />
<path fill="#1e1f1a" opacity="1.00" d=" M 37.44 18.61 C 37.50 18.54 37.60 18.41 37.66 18.34 C 37.60 18.41 37.50 18.54 37.44 18.61 Z" />
<path fill="#f5f4f6" opacity="1.00" d=" M 34.38 22.39 C 34.95 21.88 36.09 20.86 36.66 20.35 C 36.67 23.87 36.11 27.38 34.50 30.55 C 31.83 31.19 29.05 31.21 26.36 30.63 C 26.76 30.26 27.54 29.52 27.94 29.15 C 30.24 27.05 32.27 24.68 34.38 22.39 Z" />
<path fill="#353126" opacity="0.80" d=" M 27.94 29.15 C 29.32 26.26 31.50 23.83 34.38 22.39 C 32.27 24.68 30.24 27.05 27.94 29.15 Z" />
<path fill="#9e979e" opacity="1.00" d=" M 64.56 29.54 C 65.86 27.99 67.15 26.44 68.44 24.88 C 69.96 26.35 71.65 27.73 72.72 29.59 C 73.06 32.22 72.67 34.87 71.99 37.42 C 69.44 34.86 66.95 32.25 64.56 29.54 Z" />
<path fill="#161619" opacity="1.00" d=" M 36.06 30.02 C 37.52 28.51 38.98 27.00 40.40 25.44 C 40.04 27.17 39.69 29.01 38.38 30.30 C 35.52 33.52 32.52 36.65 30.14 40.26 C 32.70 39.22 35.38 38.33 37.60 36.65 C 39.30 35.18 40.09 32.98 41.13 31.05 C 41.18 34.79 41.40 38.53 41.81 42.25 C 42.58 48.97 43.75 56.26 48.84 61.20 C 45.62 53.13 42.99 44.67 43.78 35.85 C 46.26 37.52 48.71 39.23 51.15 40.95 C 51.22 48.59 51.52 56.23 51.22 63.87 C 48.90 64.28 46.62 64.88 44.35 65.49 C 46.57 66.17 48.86 66.64 51.09 67.27 C 50.78 69.02 50.46 70.77 50.20 72.54 C 49.80 71.52 49.40 70.51 48.99 69.50 C 46.84 70.37 44.69 71.22 42.54 72.07 C 44.07 74.38 45.49 76.76 47.01 79.08 C 44.80 77.03 42.51 75.05 40.51 72.78 C 36.17 67.37 31.54 62.14 26.33 57.55 C 23.78 54.79 21.35 51.93 18.90 49.09 C 24.44 42.57 30.61 36.62 36.06 30.02 Z" />
<path fill="#9a6b66" opacity="1.00" d=" M 24.13 33.09 C 24.79 32.20 25.58 31.41 26.36 30.63 C 29.05 31.21 31.83 31.19 34.50 30.55 C 34.89 30.42 35.67 30.15 36.06 30.02 C 30.61 36.62 24.44 42.57 18.90 49.09 C 21.35 51.93 23.78 54.79 26.33 57.55 C 23.48 55.84 21.07 53.56 18.77 51.18 C 16.83 48.87 13.58 49.05 10.88 48.59 C 13.84 48.04 17.25 47.84 19.36 45.39 C 22.43 42.12 24.95 38.40 27.81 34.95 C 25.93 35.66 24.05 36.37 22.16 37.06 C 22.80 35.73 23.43 34.39 24.13 33.09 Z" />
<path fill="#cf6067" opacity="1.00" d=" M 41.88 30.72 C 42.27 30.73 43.04 30.77 43.43 30.78 C 45.33 34.84 48.86 37.64 52.86 39.48 C 53.71 47.61 52.54 55.77 53.20 63.91 C 55.09 64.31 56.98 64.70 58.87 65.10 C 58.73 65.38 58.46 65.95 58.32 66.23 C 56.64 66.48 54.94 66.62 53.25 66.78 C 53.33 69.24 53.42 71.71 53.52 74.17 C 52.53 74.14 51.55 74.11 50.56 74.08 C 50.47 73.69 50.29 72.92 50.20 72.54 C 50.46 70.77 50.78 69.02 51.09 67.27 C 48.86 66.64 46.57 66.17 44.35 65.49 C 46.62 64.88 48.90 64.28 51.22 63.87 C 51.52 56.23 51.22 48.59 51.15 40.95 C 48.71 39.23 46.26 37.52 43.78 35.85 C 42.99 44.67 45.62 53.13 48.84 61.20 C 43.75 56.26 42.58 48.97 41.81 42.25 C 41.60 38.41 41.74 34.56 41.88 30.72 Z" />
<path fill="#14171f" opacity="1.00" d=" M 43.43 30.78 C 46.58 30.94 49.78 30.74 52.88 31.42 C 59.12 33.04 64.53 38.46 64.92 45.10 C 66.21 52.46 61.22 58.55 58.87 65.10 C 56.98 64.70 55.09 64.31 53.20 63.91 C 52.54 55.77 53.71 47.61 52.86 39.48 C 48.86 37.64 45.33 34.84 43.43 30.78 Z" />
<path fill="#ccced2" opacity="1.00" d=" M 71.99 37.42 C 72.67 34.87 73.06 32.22 72.72 29.59 C 73.95 30.84 75.20 32.07 76.36 33.38 C 76.43 33.46 76.56 33.63 76.63 33.71 C 76.90 34.09 77.42 34.86 77.69 35.24 C 78.00 35.70 78.63 36.61 78.94 37.07 C 79.30 37.37 80.02 37.96 80.38 38.25 C 80.47 38.33 80.65 38.50 80.73 38.58 C 81.20 39.09 82.15 40.11 82.62 40.63 C 83.55 41.84 84.62 42.93 85.79 43.91 C 86.06 44.18 86.61 44.73 86.88 45.00 C 87.26 45.96 87.92 46.66 88.86 47.08 C 89.09 47.42 89.54 48.09 89.77 48.42 C 89.91 48.78 90.20 49.50 90.34 49.86 C 89.72 49.77 88.48 49.57 87.86 49.47 C 87.15 49.37 85.74 49.16 85.04 49.06 C 82.99 48.61 80.98 47.89 79.27 46.65 C 77.03 43.43 74.74 40.24 71.99 37.42 Z" />
<path fill="#302422" opacity="1.00" d=" M 8.91 49.09 C 13.94 43.72 18.57 37.94 24.13 33.09 C 23.43 34.39 22.80 35.73 22.16 37.06 C 24.05 36.37 25.93 35.66 27.81 34.95 C 24.95 38.40 22.43 42.12 19.36 45.39 C 17.25 47.84 13.84 48.04 10.88 48.59 C 13.58 49.05 16.83 48.87 18.77 51.18 C 21.07 53.56 23.48 55.84 26.33 57.55 C 31.54 62.14 36.17 67.37 40.51 72.78 C 40.83 74.40 41.02 76.03 41.24 77.66 C 37.49 76.81 34.50 74.35 31.58 72.01 C 31.72 72.48 32.02 73.41 32.17 73.87 C 28.35 71.04 25.43 67.25 22.20 63.81 C 17.80 58.88 13.15 54.16 8.91 49.09 Z" />
<path fill="#2a2b2b" opacity="1.00" d=" M 76.36 33.38 C 76.43 33.46 76.56 33.63 76.63 33.71 C 76.56 33.63 76.43 33.46 76.36 33.38 Z" />
<path fill="#303031" opacity="0.86" d=" M 77.69 35.24 C 78.07 35.48 78.85 35.97 79.23 36.21 L 78.94 37.07 C 78.63 36.61 78.00 35.70 77.69 35.24 Z" />
<path fill="#272626" opacity="1.00" d=" M 80.38 38.25 C 80.47 38.33 80.65 38.50 80.73 38.58 C 80.65 38.50 80.47 38.33 80.38 38.25 Z" />
<path fill="#40444e" opacity="1.00" d=" M 70.11 39.07 C 72.88 41.92 75.91 44.53 79.27 46.65 C 80.98 47.89 82.99 48.61 85.04 49.06 C 80.19 51.27 77.06 55.75 73.46 59.48 C 68.19 64.96 63.22 70.72 57.96 76.21 C 59.88 71.19 63.74 67.43 66.83 63.17 C 70.99 55.99 72.96 47.09 70.11 39.07 Z" />
<path fill="#303030" opacity="0.78" d=" M 82.62 40.63 C 84.33 39.29 87.18 42.24 85.79 43.91 C 84.62 42.93 83.55 41.84 82.62 40.63 Z" />
<path fill="#191a1a" opacity="0.75" d=" M 86.88 45.00 C 88.65 44.65 89.31 45.35 88.86 47.08 C 87.92 46.66 87.26 45.96 86.88 45.00 Z" />
<path fill="#0c0d0d" opacity="0.83" d=" M 89.77 48.42 C 91.47 46.44 92.78 51.13 90.34 49.86 C 90.20 49.50 89.91 48.78 89.77 48.42 Z" />
<path fill="#191e22" opacity="1.00" d=" M 85.04 49.06 C 85.74 49.16 87.15 49.37 87.86 49.47 C 85.04 52.98 82.13 56.42 79.09 59.74 C 74.65 64.48 70.03 69.07 66.00 74.17 C 66.46 74.08 67.40 73.88 67.87 73.79 C 66.85 74.85 65.81 75.90 64.74 76.92 C 64.82 76.44 64.98 75.50 65.06 75.03 C 60.45 80.10 54.00 84.24 52.27 91.25 C 51.86 92.62 50.58 93.43 49.65 94.41 L 49.72 93.47 C 50.19 89.04 50.40 84.38 48.23 80.33 C 49.20 81.21 50.24 82.02 51.26 82.84 C 53.60 80.75 55.92 78.60 57.96 76.21 C 63.22 70.72 68.19 64.96 73.46 59.48 C 77.06 55.75 80.19 51.27 85.04 49.06 Z" />
<path fill="#8e8384" opacity="1.00" d=" M 87.86 49.47 C 88.48 49.57 89.72 49.77 90.34 49.86 C 87.02 53.88 83.61 57.85 79.65 61.26 C 79.51 60.88 79.23 60.12 79.09 59.74 C 82.13 56.42 85.04 52.98 87.86 49.47 Z" />
<path fill="#40444e" opacity="1.00" d=" M 66.00 74.17 C 70.03 69.07 74.65 64.48 79.09 59.74 C 79.23 60.12 79.51 60.88 79.65 61.26 C 78.01 64.54 75.07 66.95 72.74 69.73 C 71.22 71.15 69.98 73.22 67.87 73.79 C 67.40 73.88 66.46 74.08 66.00 74.17 Z" />
<path fill="#4e474a" opacity="1.00" d=" M 31.58 72.01 C 34.50 74.35 37.49 76.81 41.24 77.66 C 41.02 76.03 40.83 74.40 40.51 72.78 C 42.51 75.05 44.80 77.03 47.01 79.08 C 47.31 79.39 47.92 80.02 48.23 80.33 C 50.40 84.38 50.19 89.04 49.72 93.47 C 44.94 88.85 40.69 83.72 36.08 78.94 C 34.68 77.34 33.03 75.85 32.17 73.87 C 32.02 73.41 31.72 72.48 31.58 72.01 Z" />
<path fill="#40444e" opacity="1.00" d=" M 52.27 91.25 C 54.00 84.24 60.45 80.10 65.06 75.03 C 64.98 75.50 64.82 76.44 64.74 76.92 C 64.50 78.61 63.14 79.83 62.14 81.12 C 58.99 84.63 56.05 88.39 52.27 91.25 Z" />
</svg>
