<?xml version="1.0" encoding="UTF-8" ?>
<!DOCTYPE svg PUBLIC "-//W3C//DTD SVG 1.1//EN" "http://www.w3.org/Graphics/SVG/1.1/DTD/svg11.dtd">
<svg width="100pt" height="100pt" viewBox="0 0 100 100" version="1.1" xmlns="http://www.w3.org/2000/svg">
<path fill="#29282f" opacity="1.00" d=" M 49.68 3.99 C 56.54 10.32 62.41 17.62 68.72 24.48 L 68.40 24.88 C 67.14 26.43 65.88 27.98 64.61 29.53 C 66.95 32.27 69.44 34.89 72.00 37.42 C 74.75 40.22 77.01 43.44 79.26 46.64 C 75.91 44.51 72.92 41.89 70.14 39.07 C 72.80 48.83 70.51 60.05 63.48 67.46 C 61.12 70.02 59.45 73.09 57.93 76.19 C 55.46 79.03 52.73 81.62 50.00 84.21 C 49.09 82.49 48.05 80.84 46.99 79.21 C 45.68 76.96 44.50 74.64 43.30 72.33 C 47.74 70.31 52.58 68.65 55.96 64.95 C 59.94 60.61 63.44 55.41 64.37 49.49 C 64.85 43.98 62.06 38.92 60.27 33.89 C 60.14 37.98 60.13 42.12 59.11 46.12 C 59.89 40.44 59.09 34.70 57.43 29.26 C 53.25 30.92 49.08 32.59 44.81 33.99 C 44.63 32.64 44.45 31.30 44.27 29.95 C 43.48 30.17 42.70 30.41 41.92 30.65 C 41.74 30.91 41.37 31.43 41.18 31.69 C 38.86 36.01 34.58 38.50 30.12 40.13 C 33.42 34.54 39.75 31.00 41.46 24.51 C 42.75 22.68 44.13 20.90 45.69 19.29 C 47.24 17.60 49.28 16.21 50.25 14.08 C 50.63 11.24 50.07 8.37 49.83 5.54 C 49.79 5.16 49.72 4.38 49.68 3.99 Z" />
<path fill="#8e8384" opacity="1.00" d=" M 45.48 10.59 C 46.01 8.31 48.23 7.04 49.83 5.54 C 50.07 8.37 50.63 11.24 50.25 14.08 C 49.28 16.21 47.24 17.60 45.69 19.29 C 45.35 16.41 45.29 13.49 45.48 10.59 Z" />
<path fill="#cbcdb6" opacity="1.00" d=" M 37.68 18.34 C 40.15 15.63 42.69 12.97 45.48 10.59 C 45.29 13.49 45.35 16.41 45.69 19.29 C 44.13 20.90 42.75 22.68 41.46 24.51 C 39.66 26.35 37.83 28.15 36.04 30.00 C 35.66 30.13 34.89 30.40 34.50 30.54 C 36.08 27.37 36.85 23.89 36.57 20.35 L 36.57 19.50 C 36.79 19.28 37.22 18.83 37.43 18.60 C 37.50 18.54 37.62 18.41 37.68 18.34 Z" />
<path fill="#1e1f1a" opacity="1.00" d=" M 37.43 18.60 C 37.50 18.54 37.62 18.41 37.68 18.34 C 37.62 18.41 37.50 18.54 37.43 18.60 Z" />
<path fill="#f5f4f6" opacity="1.00" d=" M 34.39 22.37 C 34.93 21.87 36.02 20.86 36.57 20.35 C 36.85 23.89 36.08 27.37 34.50 30.54 C 31.84 31.18 29.07 31.19 26.39 30.63 C 26.77 30.27 27.54 29.54 27.92 29.18 C 30.22 27.05 32.27 24.67 34.39 22.37 Z" />
<path fill="#302522" opacity="1.00" d=" M 27.92 29.18 C 29.34 26.30 31.52 23.86 34.39 22.37 C 32.27 24.67 30.22 27.05 27.92 29.18 Z" />
<path fill="#14161a" opacity="1.00" d=" M 36.04 30.00 C 37.83 28.15 39.66 26.35 41.46 24.51 C 39.75 31.00 33.42 34.54 30.12 40.13 C 34.58 38.50 38.86 36.01 41.18 31.69 C 42.02 44.14 42.11 56.67 41.27 69.13 C 42.37 69.20 43.47 69.26 44.57 69.33 C 43.59 61.44 43.75 53.47 44.16 45.55 C 48.71 46.59 53.01 48.42 57.06 50.70 C 57.79 49.19 58.55 47.70 59.11 46.12 C 60.13 42.12 60.14 37.98 60.27 33.89 C 62.06 38.92 64.85 43.98 64.37 49.49 C 63.44 55.41 59.94 60.61 55.96 64.95 C 52.58 68.65 47.74 70.31 43.30 72.33 C 44.50 74.64 45.68 76.96 46.99 79.21 C 44.76 77.03 42.37 75.00 40.29 72.67 C 36.10 67.23 31.50 62.07 26.31 57.56 C 23.74 54.84 21.35 51.96 18.95 49.08 C 24.40 42.50 30.68 36.66 36.04 30.00 Z" />
<path fill="#9e979e" opacity="1.00" d=" M 64.61 29.53 C 65.88 27.98 67.14 26.43 68.40 24.88 C 69.94 26.36 71.70 27.72 72.76 29.61 C 73.02 32.24 72.63 34.87 72.00 37.42 C 69.44 34.89 66.95 32.27 64.61 29.53 Z" />
<path fill="#b3565c" opacity="1.00" d=" M 44.81 33.99 C 49.08 32.59 53.25 30.92 57.43 29.26 C 59.09 34.70 59.89 40.44 59.11 46.12 C 58.55 47.70 57.79 49.19 57.06 50.70 C 53.01 48.42 48.71 46.59 44.16 45.55 C 43.75 53.47 43.59 61.44 44.57 69.33 C 43.47 69.26 42.37 69.20 41.27 69.13 C 42.11 56.67 42.02 44.14 41.18 31.69 C 41.37 31.43 41.74 30.91 41.92 30.65 C 42.70 30.41 43.48 30.17 44.27 29.95 C 44.45 31.30 44.63 32.64 44.81 33.99 M 44.26 36.33 C 44.20 38.77 44.19 41.22 44.20 43.66 C 48.24 44.66 52.17 46.03 55.98 47.70 C 57.48 42.69 57.55 37.40 56.10 32.37 C 52.30 34.09 48.33 35.41 44.26 36.33 Z" />
<path fill="#9a6b66" opacity="1.00" d=" M 24.08 33.04 C 24.71 32.11 25.58 31.39 26.39 30.63 C 29.07 31.19 31.84 31.18 34.50 30.54 C 34.89 30.40 35.66 30.13 36.04 30.00 C 30.68 36.66 24.40 42.50 18.95 49.08 C 21.35 51.96 23.74 54.84 26.31 57.56 C 23.49 55.81 21.06 53.56 18.76 51.19 C 16.82 48.90 13.60 49.06 10.89 48.60 C 13.85 48.04 17.25 47.82 19.35 45.37 C 22.38 42.15 24.90 38.50 27.77 35.14 C 26.23 35.44 24.68 35.72 23.13 36.01 C 23.43 35.01 23.75 34.03 24.08 33.04 Z" />
<path fill="#ccced2" opacity="1.00" d=" M 72.00 37.42 C 72.63 34.87 73.02 32.24 72.76 29.61 C 73.97 30.85 75.22 32.08 76.37 33.39 C 76.44 33.47 76.57 33.63 76.64 33.72 C 76.90 34.10 77.43 34.86 77.69 35.24 C 78.01 35.70 78.63 36.61 78.94 37.07 C 79.30 37.37 80.02 37.96 80.38 38.25 C 80.47 38.34 80.64 38.50 80.73 38.58 C 81.20 39.09 82.15 40.11 82.62 40.62 C 83.55 41.83 84.62 42.93 85.80 43.92 C 86.07 44.19 86.61 44.73 86.88 45.00 C 87.26 45.97 87.92 46.66 88.86 47.08 C 89.09 47.42 89.55 48.08 89.78 48.41 C 89.91 48.78 90.18 49.51 90.32 49.88 C 89.70 49.78 88.48 49.58 87.86 49.48 C 87.14 49.36 85.68 49.10 84.95 48.97 C 82.93 48.55 80.94 47.85 79.26 46.64 C 77.01 43.44 74.75 40.22 72.00 37.42 Z" />
<path fill="#0e1219" opacity="1.00" d=" M 44.26 36.33 C 48.33 35.41 52.30 34.09 56.10 32.37 C 57.55 37.40 57.48 42.69 55.98 47.70 C 52.17 46.03 48.24 44.66 44.20 43.66 C 44.19 41.22 44.20 38.77 44.26 36.33 Z" />
<path fill="#302522" opacity="1.00" d=" M 8.94 49.08 C 13.91 43.67 18.62 37.98 24.08 33.04 C 23.75 34.03 23.43 35.01 23.13 36.01 C 24.68 35.72 26.23 35.44 27.77 35.14 C 24.90 38.50 22.38 42.15 19.35 45.37 C 17.25 47.82 13.85 48.04 10.89 48.60 C 13.60 49.06 16.82 48.90 18.76 51.19 C 21.06 53.56 23.49 55.81 26.31 57.56 C 31.50 62.07 36.10 67.23 40.29 72.67 C 40.72 74.30 41.06 75.96 41.40 77.61 C 37.56 76.97 34.59 74.40 31.65 72.06 C 31.77 72.51 32.00 73.41 32.12 73.86 C 28.15 70.86 25.12 66.88 21.72 63.29 C 17.50 58.52 12.97 54.02 8.94 49.08 Z" />
<path fill="#2a2b2b" opacity="1.00" d=" M 76.37 33.39 C 76.44 33.47 76.57 33.63 76.64 33.72 C 76.57 33.63 76.44 33.47 76.37 33.39 Z" />
<path fill="#303031" opacity="0.86" d=" M 77.69 35.24 C 78.08 35.48 78.85 35.97 79.23 36.21 L 78.94 37.07 C 78.63 36.61 78.01 35.70 77.69 35.24 Z" />
<path fill="#272626" opacity="1.00" d=" M 80.38 38.25 C 80.47 38.34 80.64 38.50 80.73 38.58 C 80.64 38.50 80.47 38.34 80.38 38.25 Z" />
<path fill="#40444d" opacity="1.00" d=" M 70.14 39.07 C 72.92 41.89 75.91 44.51 79.26 46.64 C 80.94 47.85 82.93 48.55 84.95 48.97 C 82.73 50.38 80.55 51.88 78.73 53.78 C 71.72 61.18 64.98 68.83 57.93 76.19 C 59.45 73.09 61.12 70.02 63.48 67.46 C 70.51 60.05 72.80 48.83 70.14 39.07 Z" />
<path fill="#303030" opacity="0.78" d=" M 82.62 40.62 C 84.33 39.28 87.17 42.24 85.80 43.92 C 84.62 42.93 83.55 41.83 82.62 40.62 Z" />
<path fill="#191a1a" opacity="0.75" d=" M 86.88 45.00 C 88.65 44.65 89.31 45.35 88.86 47.08 C 87.92 46.66 87.26 45.97 86.88 45.00 Z" />
<path fill="#0c0d0d" opacity="0.83" d=" M 89.78 48.41 C 90.87 46.87 92.90 49.70 91.00 50.14 L 90.32 49.88 C 90.18 49.51 89.91 48.78 89.78 48.41 Z" />
<path fill="#191e22" opacity="1.00" d=" M 84.95 48.97 C 85.68 49.10 87.14 49.36 87.86 49.48 C 85.02 52.99 82.11 56.44 79.06 59.77 C 74.65 64.49 70.04 69.03 66.03 74.10 C 66.49 74.04 67.41 73.91 67.87 73.85 C 66.88 74.90 65.84 75.91 64.78 76.89 C 64.83 76.44 64.95 75.53 65.01 75.07 C 60.39 80.10 54.02 84.26 52.28 91.24 C 51.88 92.62 50.59 93.43 49.63 94.40 L 49.68 93.45 C 49.83 90.37 50.06 87.29 50.00 84.21 C 52.73 81.62 55.46 79.03 57.93 76.19 C 64.98 68.83 71.72 61.18 78.73 53.78 C 80.55 51.88 82.73 50.38 84.95 48.97 Z" />
<path fill="#8e8384" opacity="1.00" d=" M 87.86 49.48 C 88.48 49.58 89.70 49.78 90.32 49.88 C 87.02 53.88 83.63 57.84 79.69 61.23 C 79.53 60.86 79.21 60.13 79.06 59.77 C 82.11 56.44 85.02 52.99 87.86 49.48 Z" />
<path fill="#40444d" opacity="1.00" d=" M 66.03 74.10 C 70.04 69.03 74.65 64.49 79.06 59.77 C 79.21 60.13 79.53 60.86 79.69 61.23 C 77.85 64.70 74.78 67.30 72.26 70.25 C 70.89 71.52 69.73 73.32 67.87 73.85 C 67.41 73.91 66.49 74.04 66.03 74.10 Z" />
<path fill="#4e474a" opacity="1.00" d=" M 31.65 72.06 C 34.59 74.40 37.56 76.97 41.40 77.61 C 41.06 75.96 40.72 74.30 40.29 72.67 C 42.37 75.00 44.76 77.03 46.99 79.21 C 48.05 80.84 49.09 82.49 50.00 84.21 C 50.06 87.29 49.83 90.37 49.68 93.45 C 44.93 88.82 40.67 83.71 36.08 78.93 C 34.66 77.33 33.03 75.83 32.12 73.86 C 32.00 73.41 31.77 72.51 31.65 72.06 Z" />
<path fill="#40444d" opacity="1.00" d=" M 52.28 91.24 C 54.02 84.26 60.39 80.10 65.01 75.07 C 64.95 75.53 64.83 76.44 64.78 76.89 C 64.63 78.38 63.42 79.45 62.59 80.59 C 59.31 84.29 56.23 88.22 52.28 91.24 Z" />
</svg>
