<?xml version="1.0" encoding="UTF-8" ?>
<!DOCTYPE svg PUBLIC "-//W3C//DTD SVG 1.1//EN" "http://www.w3.org/Graphics/SVG/1.1/DTD/svg11.dtd">
<svg width="100pt" height="100pt" viewBox="0 0 100 100" version="1.1" xmlns="http://www.w3.org/2000/svg">
<path fill="#2b2c33" opacity="1.00" d=" M 49.72 4.02 C 55.50 9.33 60.49 15.43 65.81 21.19 C 66.69 22.38 68.11 23.38 68.43 24.87 C 67.22 26.48 65.92 28.02 64.60 29.54 C 66.96 32.25 69.42 34.88 71.98 37.41 C 74.77 40.20 77.03 43.43 79.28 46.64 C 76.27 44.90 73.57 42.67 71.20 40.12 C 73.24 45.98 71.48 52.12 71.02 58.08 C 73.65 56.00 76.18 53.80 78.61 51.50 C 78.93 51.88 79.56 52.63 79.87 53.00 C 75.36 58.12 70.37 62.78 65.93 67.96 C 61.53 73.31 56.72 78.33 51.30 82.66 C 50.20 81.90 49.10 81.17 48.04 80.36 C 47.61 79.94 47.17 79.53 46.73 79.12 C 45.81 76.87 44.71 74.70 43.45 72.62 C 43.81 72.56 44.54 72.43 44.90 72.37 C 45.91 73.08 46.93 73.79 47.96 74.48 C 48.67 71.94 49.42 69.41 49.99 66.83 C 49.76 69.49 49.60 72.16 49.38 74.82 C 50.37 74.79 51.35 74.77 52.33 74.75 C 52.42 74.41 52.59 73.71 52.68 73.37 C 55.62 67.05 61.64 62.74 64.08 56.15 C 65.87 51.81 67.18 46.89 65.59 42.28 C 63.24 34.90 56.70 30.12 51.15 25.19 C 45.86 28.68 40.47 32.05 34.83 34.96 C 39.61 28.46 45.24 22.67 50.84 16.90 C 50.57 16.61 50.03 16.05 49.76 15.77 C 50.12 12.37 50.24 8.94 49.86 5.53 C 49.83 5.15 49.76 4.40 49.72 4.02 Z" />
<path fill="#8e8384" opacity="1.00" d=" M 45.54 10.59 C 45.97 8.26 48.26 7.02 49.86 5.53 C 50.24 8.94 50.12 12.37 49.76 15.77 C 48.36 16.91 46.98 18.06 45.66 19.29 C 45.32 16.40 45.19 13.48 45.54 10.59 Z" />
<path fill="#cbcdb6" opacity="1.00" d=" M 37.67 18.33 C 40.07 15.54 42.73 12.97 45.54 10.59 C 45.19 13.48 45.32 16.40 45.66 19.29 C 42.40 22.79 39.33 26.46 36.07 29.96 C 35.67 30.09 34.87 30.35 34.47 30.48 C 36.26 27.40 36.78 23.90 36.64 20.38 C 36.84 19.94 37.24 19.06 37.44 18.61 C 37.50 18.54 37.61 18.40 37.67 18.33 Z" />
<path fill="#17171b" opacity="1.00" d=" M 49.76 15.77 C 50.03 16.05 50.57 16.61 50.84 16.90 C 45.24 22.67 39.61 28.46 34.83 34.96 C 40.47 32.05 45.86 28.68 51.15 25.19 C 56.70 30.12 63.24 34.90 65.59 42.28 C 67.18 46.89 65.87 51.81 64.08 56.15 C 61.64 62.74 55.62 67.05 52.68 73.37 C 52.19 67.11 50.60 60.61 52.45 54.45 C 55.41 49.53 60.06 45.91 63.82 41.61 C 59.83 36.48 55.25 31.86 50.91 27.03 C 46.50 31.58 42.23 36.25 38.06 41.01 C 41.45 44.93 45.42 48.35 48.48 52.53 C 50.95 56.83 50.22 62.09 49.99 66.83 C 49.42 69.41 48.67 71.94 47.96 74.48 C 46.93 73.79 45.91 73.08 44.90 72.37 C 44.54 72.43 43.81 72.56 43.45 72.62 C 44.71 74.70 45.81 76.87 46.73 79.12 C 44.57 77.09 42.46 75.02 40.55 72.75 C 36.14 67.40 31.54 62.14 26.33 57.55 C 23.75 54.83 21.35 51.94 18.91 49.10 C 24.38 42.49 30.71 36.67 36.07 29.96 C 39.33 26.46 42.40 22.79 45.66 19.29 C 46.98 18.06 48.36 16.91 49.76 15.77 Z" />
<path fill="#1e1f1a" opacity="1.00" d=" M 37.44 18.61 C 37.50 18.54 37.61 18.40 37.67 18.33 C 37.61 18.40 37.50 18.54 37.44 18.61 Z" />
<path fill="#f5f4f6" opacity="1.00" d=" M 34.37 22.37 C 34.94 21.87 36.07 20.88 36.64 20.38 C 36.78 23.90 36.26 27.40 34.47 30.48 C 31.83 31.29 29.06 31.23 26.39 30.61 C 26.78 30.25 27.57 29.52 27.96 29.15 C 30.26 27.05 32.28 24.67 34.37 22.37 Z" />
<path fill="#353126" opacity="0.80" d=" M 27.96 29.15 C 29.29 26.23 31.49 23.81 34.37 22.37 C 32.28 24.67 30.26 27.05 27.96 29.15 Z" />
<path fill="#9e979e" opacity="1.00" d=" M 64.60 29.54 C 65.92 28.02 67.22 26.48 68.43 24.87 C 69.94 26.36 71.68 27.71 72.71 29.59 C 73.11 32.22 72.70 34.87 71.98 37.41 C 69.42 34.88 66.96 32.25 64.60 29.54 Z" />
<path fill="#d45a67" opacity="1.00" d=" M 38.06 41.01 C 42.23 36.25 46.50 31.58 50.91 27.03 C 55.25 31.86 59.83 36.48 63.82 41.61 C 60.06 45.91 55.41 49.53 52.45 54.45 C 50.60 60.61 52.19 67.11 52.68 73.37 C 52.59 73.71 52.42 74.41 52.33 74.75 C 51.35 74.77 50.37 74.79 49.38 74.82 C 49.60 72.16 49.76 69.49 49.99 66.83 C 50.22 62.09 50.95 56.83 48.48 52.53 C 45.42 48.35 41.45 44.93 38.06 41.01 M 51.18 30.04 C 47.58 33.61 44.28 37.46 40.89 41.21 C 43.61 44.77 46.66 48.06 49.94 51.11 C 49.93 47.79 50.03 44.45 50.93 41.23 C 51.72 44.24 51.94 47.36 52.16 50.45 C 55.49 47.67 58.23 44.29 60.94 40.93 C 58.02 37.02 54.73 33.40 51.18 30.04 Z" />
<path fill="#9a6b66" opacity="1.00" d=" M 24.09 33.08 C 24.75 32.16 25.58 31.40 26.39 30.61 C 29.06 31.23 31.83 31.29 34.47 30.48 C 34.87 30.35 35.67 30.09 36.07 29.96 C 30.71 36.67 24.38 42.49 18.91 49.10 C 21.35 51.94 23.75 54.83 26.33 57.55 C 23.41 55.93 21.01 53.63 18.79 51.16 C 16.86 48.82 13.58 49.04 10.86 48.60 C 13.60 48.05 16.77 47.97 18.87 45.87 C 22.19 42.53 24.79 38.56 27.81 34.96 C 25.94 35.66 24.07 36.36 22.19 37.05 C 22.81 35.72 23.42 34.39 24.09 33.08 Z" />
<path fill="#10141a" opacity="1.00" d=" M 51.18 30.04 C 54.73 33.40 58.02 37.02 60.94 40.93 C 58.23 44.29 55.49 47.67 52.16 50.45 C 51.94 47.36 51.72 44.24 50.93 41.23 C 50.03 44.45 49.93 47.79 49.94 51.11 C 46.66 48.06 43.61 44.77 40.89 41.21 C 44.28 37.46 47.58 33.61 51.18 30.04 Z" />
<path fill="#ccced2" opacity="1.00" d=" M 71.98 37.41 C 72.70 34.87 73.11 32.22 72.71 29.59 C 73.94 30.84 75.19 32.06 76.36 33.36 C 76.43 33.44 76.56 33.61 76.63 33.69 C 76.89 34.08 77.42 34.86 77.68 35.24 C 78.00 35.70 78.62 36.62 78.94 37.08 C 79.30 37.37 80.02 37.96 80.39 38.25 C 80.47 38.33 80.65 38.50 80.74 38.58 C 81.21 39.10 82.15 40.13 82.63 40.64 C 83.55 41.85 84.61 42.94 85.78 43.91 C 86.05 44.18 86.61 44.73 86.89 45.00 C 87.26 45.96 87.92 46.66 88.86 47.09 C 89.09 47.42 89.55 48.07 89.79 48.39 C 89.92 48.76 90.18 49.49 90.32 49.86 C 89.70 49.77 88.47 49.59 87.86 49.51 C 86.54 49.32 85.23 49.12 83.93 48.91 C 82.31 48.31 80.74 47.57 79.28 46.64 C 77.03 43.43 74.77 40.20 71.98 37.41 Z" />
<path fill="#302422" opacity="1.00" d=" M 8.93 49.08 C 13.91 43.69 18.60 37.98 24.09 33.08 C 23.42 34.39 22.81 35.72 22.19 37.05 C 24.07 36.36 25.94 35.66 27.81 34.96 C 24.79 38.56 22.19 42.53 18.87 45.87 C 16.77 47.97 13.60 48.05 10.86 48.60 C 13.58 49.04 16.86 48.82 18.79 51.16 C 21.01 53.63 23.41 55.93 26.33 57.55 C 31.54 62.14 36.14 67.40 40.55 72.75 C 40.83 74.35 41.01 75.97 41.20 77.59 C 37.40 76.96 34.55 74.33 31.68 71.98 C 31.79 72.46 32.00 73.40 32.10 73.88 C 28.15 70.86 25.12 66.87 21.72 63.29 C 17.50 58.52 12.97 54.02 8.93 49.08 Z" />
<path fill="#2a2b2b" opacity="1.00" d=" M 76.36 33.36 C 76.43 33.44 76.56 33.61 76.63 33.69 C 76.56 33.61 76.43 33.44 76.36 33.36 Z" />
<path fill="#303031" opacity="0.86" d=" M 77.68 35.24 C 78.07 35.49 78.84 35.97 79.22 36.21 L 78.94 37.08 C 78.62 36.62 78.00 35.70 77.68 35.24 Z" />
<path fill="#272626" opacity="1.00" d=" M 80.39 38.25 C 80.47 38.33 80.65 38.50 80.74 38.58 C 80.65 38.50 80.47 38.33 80.39 38.25 Z" />
<path fill="#444752" opacity="1.00" d=" M 71.20 40.12 C 73.57 42.67 76.27 44.90 79.28 46.64 C 80.74 47.57 82.31 48.31 83.93 48.91 C 82.56 50.25 81.19 51.61 79.87 53.00 C 79.56 52.63 78.93 51.88 78.61 51.50 C 76.18 53.80 73.65 56.00 71.02 58.08 C 71.48 52.12 73.24 45.98 71.20 40.12 Z" />
<path fill="#303030" opacity="0.78" d=" M 82.63 40.64 C 84.33 39.28 87.18 42.25 85.78 43.91 C 84.61 42.94 83.55 41.85 82.63 40.64 Z" />
<path fill="#191a1a" opacity="0.75" d=" M 86.89 45.00 C 88.66 44.66 89.32 45.35 88.86 47.09 C 87.92 46.66 87.26 45.96 86.89 45.00 Z" />
<path fill="#0c0d0d" opacity="0.83" d=" M 89.79 48.39 C 91.57 46.48 92.71 51.19 90.32 49.86 C 90.18 49.49 89.92 48.76 89.79 48.39 Z" />
<path fill="#191e22" opacity="1.00" d=" M 83.93 48.91 C 85.23 49.12 86.54 49.32 87.86 49.51 C 85.01 53.01 82.08 56.46 79.02 59.78 C 74.65 64.50 70.11 69.08 66.05 74.08 C 66.51 74.01 67.43 73.87 67.89 73.80 C 66.89 74.88 65.84 75.92 64.75 76.93 C 64.80 76.46 64.91 75.52 64.96 75.05 C 61.64 78.38 58.39 81.78 55.17 85.21 C 53.52 86.83 53.00 89.13 52.30 91.25 C 51.99 92.68 50.57 93.40 49.60 94.35 L 49.68 93.43 C 50.20 89.02 50.60 84.28 48.04 80.36 C 49.10 81.17 50.20 81.90 51.30 82.66 C 56.72 78.33 61.53 73.31 65.93 67.96 C 70.37 62.78 75.36 58.12 79.87 53.00 C 81.19 51.61 82.56 50.25 83.93 48.91 Z" />
<path fill="#8e8384" opacity="1.00" d=" M 87.86 49.51 C 88.47 49.59 89.70 49.77 90.32 49.86 C 87.06 53.87 83.64 57.78 79.78 61.23 C 79.59 60.87 79.21 60.14 79.02 59.78 C 82.08 56.46 85.01 53.01 87.86 49.51 Z" />
<path fill="#444752" opacity="1.00" d=" M 66.05 74.08 C 70.11 69.08 74.65 64.50 79.02 59.78 C 79.21 60.14 79.59 60.87 79.78 61.23 C 77.67 64.83 74.47 67.62 71.76 70.76 C 70.55 71.82 69.57 73.48 67.89 73.80 C 67.43 73.87 66.51 74.01 66.05 74.08 Z" />
<path fill="#4e474a" opacity="1.00" d=" M 31.68 71.98 C 34.55 74.33 37.40 76.96 41.20 77.59 C 41.01 75.97 40.83 74.35 40.55 72.75 C 42.46 75.02 44.57 77.09 46.73 79.12 C 47.17 79.53 47.61 79.94 48.04 80.36 C 50.60 84.28 50.20 89.02 49.68 93.43 C 45.08 88.99 40.99 84.07 36.57 79.45 C 34.99 77.67 33.17 76.03 32.10 73.88 C 32.00 73.40 31.79 72.46 31.68 71.98 Z" />
<path fill="#444752" opacity="1.00" d=" M 55.17 85.21 C 58.39 81.78 61.64 78.38 64.96 75.05 C 64.91 75.52 64.80 76.46 64.75 76.93 C 64.66 78.41 63.40 79.45 62.58 80.58 C 59.28 84.25 56.24 88.23 52.30 91.25 C 53.00 89.13 53.52 86.83 55.17 85.21 Z" />
</svg>
