<?xml version="1.0" encoding="UTF-8" ?>
<!DOCTYPE svg PUBLIC "-//W3C//DTD SVG 1.1//EN" "http://www.w3.org/Graphics/SVG/1.1/DTD/svg11.dtd">
<svg width="100pt" height="100pt" viewBox="0 0 100 100" version="1.1" xmlns="http://www.w3.org/2000/svg">
<path fill="#302e31" opacity="1.00" d=" M 49.76 3.96 C 56.53 10.47 62.49 17.76 68.91 24.60 L 68.57 24.95 C 67.11 26.46 65.63 27.98 64.16 29.49 C 59.37 24.78 54.52 20.13 49.57 15.59 C 50.04 12.23 50.20 8.82 49.86 5.44 C 49.84 5.07 49.79 4.33 49.76 3.96 Z" />
<path fill="#8e8384" opacity="1.00" d=" M 45.30 10.56 C 46.21 8.42 48.26 7.04 49.86 5.44 C 50.20 8.82 50.04 12.23 49.57 15.59 C 48.29 16.86 46.98 18.08 45.69 19.33 C 45.56 16.40 45.32 13.48 45.30 10.56 Z" />
<path fill="#cbcdb6" opacity="1.00" d=" M 37.64 18.33 C 40.17 15.72 42.78 13.18 45.30 10.56 C 45.32 13.48 45.56 16.40 45.69 19.33 C 43.35 21.65 41.27 24.20 39.10 26.67 C 38.09 27.82 37.09 28.97 36.06 30.09 C 35.70 30.24 34.98 30.53 34.62 30.68 C 35.97 27.36 36.50 23.79 36.63 20.23 L 36.67 19.30 C 36.86 19.11 37.24 18.73 37.43 18.54 C 37.49 18.49 37.59 18.39 37.64 18.33 Z" />
<path fill="#2c2227" opacity="1.00" d=" M 45.69 19.33 C 46.98 18.08 48.29 16.86 49.57 15.59 C 54.52 20.13 59.37 24.78 64.16 29.49 C 66.84 32.10 69.51 34.72 72.10 37.43 C 74.73 40.31 76.89 43.56 79.30 46.61 C 76.29 44.77 73.48 42.59 71.15 39.92 C 66.86 34.57 62.07 29.64 56.88 25.15 C 61.47 31.35 66.50 38.10 66.69 46.15 C 66.44 52.06 63.94 57.56 62.01 63.07 C 62.13 61.83 62.26 60.60 62.42 59.37 C 63.02 53.72 64.88 47.83 62.91 42.24 C 61.31 37.02 56.33 34.10 52.07 31.24 C 51.90 37.75 51.78 44.26 51.66 50.77 C 51.05 42.69 52.07 34.54 50.49 26.53 C 49.01 34.53 50.51 42.71 49.08 50.71 C 49.60 43.14 49.26 35.56 49.13 27.98 C 47.81 30.81 46.85 34.17 44.06 35.93 C 40.10 38.50 35.48 39.88 31.67 42.70 C 28.93 44.76 27.12 47.73 25.20 50.51 C 25.09 50.04 24.88 49.10 24.78 48.62 C 24.09 49.20 23.41 49.78 22.72 50.37 C 22.30 50.21 21.46 49.90 21.04 49.74 C 27.12 42.61 33.48 35.73 39.56 28.59 C 39.45 28.11 39.21 27.15 39.10 26.67 C 41.27 24.20 43.35 21.65 45.69 19.33 Z" />
<path fill="#1e1f1a" opacity="1.00" d=" M 37.43 18.54 C 37.49 18.49 37.59 18.39 37.64 18.33 C 37.59 18.39 37.49 18.49 37.43 18.54 Z" />
<path fill="#f5f4f6" opacity="1.00" d=" M 34.46 22.39 C 35.00 21.85 36.09 20.77 36.63 20.23 C 36.50 23.79 35.97 27.36 34.62 30.68 C 31.86 31.16 29.07 30.85 26.30 30.70 C 26.68 30.33 27.46 29.58 27.85 29.20 C 30.14 27.02 32.27 24.68 34.46 22.39 Z" />
<path fill="#353126" opacity="0.80" d=" M 27.85 29.20 C 29.43 26.39 31.51 23.83 34.46 22.39 C 32.27 24.68 30.14 27.02 27.85 29.20 Z" />
<path fill="#282d36" opacity="1.00" d=" M 56.88 25.15 C 62.07 29.64 66.86 34.57 71.15 39.92 C 73.34 45.78 72.00 52.07 71.10 58.04 C 73.61 55.82 76.16 53.65 78.70 51.46 C 79.00 51.85 79.59 52.64 79.88 53.03 C 70.02 62.68 61.85 73.99 51.19 82.81 C 50.18 82.01 49.16 81.22 48.19 80.38 C 47.64 79.91 47.10 79.43 46.56 78.96 C 45.86 76.92 45.19 74.88 44.50 72.85 C 45.88 72.69 47.26 72.54 48.64 72.37 C 49.83 72.22 51.02 72.06 52.21 71.90 C 52.01 68.86 51.80 65.82 51.56 62.79 C 54.46 62.70 57.35 62.64 60.25 62.60 C 60.74 61.22 61.24 59.84 61.76 58.47 L 62.42 59.37 C 62.26 60.60 62.13 61.83 62.01 63.07 C 63.94 57.56 66.44 52.06 66.69 46.15 C 66.50 38.10 61.47 31.35 56.88 25.15 Z" />
<path fill="#9e979e" opacity="1.00" d=" M 64.16 29.49 C 65.63 27.98 67.11 26.46 68.57 24.95 C 70.08 26.43 71.59 27.93 72.91 29.59 C 72.83 32.22 72.37 34.82 72.10 37.43 C 69.51 34.72 66.84 32.10 64.16 29.49 Z" />
<path fill="#141519" opacity="1.00" d=" M 36.06 30.09 C 37.09 28.97 38.09 27.82 39.10 26.67 C 39.21 27.15 39.45 28.11 39.56 28.59 C 33.48 35.73 27.12 42.61 21.04 49.74 C 21.46 49.90 22.30 50.21 22.72 50.37 C 23.41 49.78 24.09 49.20 24.78 48.62 C 24.88 49.10 25.09 50.04 25.20 50.51 C 27.12 47.73 28.93 44.76 31.67 42.70 C 35.48 39.88 40.10 38.50 44.06 35.93 C 46.85 34.17 47.81 30.81 49.13 27.98 C 49.26 35.56 49.60 43.14 49.08 50.71 C 46.83 52.23 44.24 53.34 42.36 55.35 C 41.02 57.50 40.49 60.04 39.70 62.42 C 43.14 62.60 46.59 62.73 50.04 62.89 C 49.53 66.04 49.06 69.20 48.64 72.37 C 47.26 72.54 45.88 72.69 44.50 72.85 C 45.19 74.88 45.86 76.92 46.56 78.96 C 44.43 77.03 42.45 74.95 40.57 72.78 C 36.14 67.40 31.61 62.06 26.22 57.62 C 23.75 54.79 21.36 51.88 18.85 49.08 C 24.51 42.68 30.47 36.56 36.06 30.09 Z" />
<path fill="#d95c64" opacity="1.00" d=" M 50.49 26.53 C 52.07 34.54 51.05 42.69 51.66 50.77 C 55.47 52.72 58.44 55.84 61.76 58.47 C 61.24 59.84 60.74 61.22 60.25 62.60 C 57.35 62.64 54.46 62.70 51.56 62.79 C 51.80 65.82 52.01 68.86 52.21 71.90 C 51.02 72.06 49.83 72.22 48.64 72.37 C 49.06 69.20 49.53 66.04 50.04 62.89 C 46.59 62.73 43.14 62.60 39.70 62.42 C 40.49 60.04 41.02 57.50 42.36 55.35 C 44.24 53.34 46.83 52.23 49.08 50.71 C 50.51 42.71 49.01 34.53 50.49 26.53 M 41.71 60.29 C 44.44 60.30 47.16 60.50 49.87 60.88 C 49.51 58.16 49.32 55.43 49.29 52.69 C 46.08 54.45 43.46 57.07 41.71 60.29 M 51.70 53.19 C 51.75 55.71 51.80 58.24 51.76 60.77 C 54.31 60.72 56.86 60.68 59.41 60.59 C 58.41 58.93 57.81 57.00 56.57 55.51 C 55.03 54.59 53.32 53.97 51.70 53.19 Z" />
<path fill="#9a6b66" opacity="1.00" d=" M 24.19 33.10 C 24.95 32.36 25.58 31.49 26.30 30.70 C 29.07 30.85 31.86 31.16 34.62 30.68 C 34.98 30.53 35.70 30.24 36.06 30.09 C 30.47 36.56 24.51 42.68 18.85 49.08 C 21.36 51.88 23.75 54.79 26.22 57.62 C 23.69 55.18 20.73 53.25 18.16 50.85 C 16.26 48.98 13.39 49.11 10.95 48.59 C 13.89 48.03 17.16 47.64 19.34 45.36 C 22.51 42.19 24.97 38.41 27.80 34.95 C 25.89 35.66 23.98 36.37 22.06 37.06 C 22.74 35.73 23.42 34.39 24.19 33.10 Z" />
<path fill="#ccced2" opacity="1.00" d=" M 72.10 37.43 C 72.37 34.82 72.83 32.22 72.91 29.59 C 74.06 30.88 75.26 32.14 76.39 33.46 C 76.45 33.54 76.58 33.69 76.64 33.77 C 76.91 34.13 77.45 34.86 77.71 35.23 C 78.03 35.69 78.65 36.60 78.97 37.06 C 79.32 37.36 80.02 37.95 80.38 38.25 C 80.46 38.33 80.63 38.49 80.71 38.57 C 81.18 39.06 82.12 40.06 82.58 40.55 C 83.57 41.77 84.67 42.88 85.84 43.93 C 86.09 44.20 86.59 44.75 86.84 45.02 C 87.24 45.98 87.92 46.66 88.88 47.07 C 89.09 47.42 89.52 48.14 89.73 48.50 C 89.90 48.86 90.24 49.57 90.42 49.93 C 89.77 49.83 88.49 49.63 87.85 49.53 C 86.54 49.32 85.23 49.09 83.92 48.85 C 82.31 48.26 80.75 47.54 79.30 46.61 C 76.89 43.56 74.73 40.31 72.10 37.43 Z" />
<path fill="#11161d" opacity="1.00" d=" M 52.07 31.24 C 56.33 34.10 61.31 37.02 62.91 42.24 C 64.88 47.83 63.02 53.72 62.42 59.37 L 61.76 58.47 C 58.44 55.84 55.47 52.72 51.66 50.77 C 51.78 44.26 51.90 37.75 52.07 31.24 Z" />
<path fill="#302422" opacity="1.00" d=" M 8.86 49.10 C 13.97 43.77 18.52 37.87 24.19 33.10 C 23.42 34.39 22.74 35.73 22.06 37.06 C 23.98 36.37 25.89 35.66 27.80 34.95 C 24.97 38.41 22.51 42.19 19.34 45.36 C 17.16 47.64 13.89 48.03 10.95 48.59 C 13.39 49.11 16.26 48.98 18.16 50.85 C 20.73 53.25 23.69 55.18 26.22 57.62 C 31.61 62.06 36.14 67.40 40.57 72.78 C 40.90 74.49 41.05 76.24 41.23 77.97 C 37.89 76.05 34.28 74.62 31.28 72.13 C 31.54 72.56 32.06 73.42 32.32 73.84 C 27.84 70.65 24.49 66.22 20.77 62.23 C 16.76 57.89 12.75 53.55 8.86 49.10 Z" />
<path fill="#2a2b2b" opacity="1.00" d=" M 76.39 33.46 C 76.45 33.54 76.58 33.69 76.64 33.77 C 76.58 33.69 76.45 33.54 76.39 33.46 Z" />
<path fill="#303031" opacity="0.86" d=" M 77.71 35.23 L 78.63 35.27 L 79.26 36.20 L 78.97 37.06 C 78.65 36.60 78.03 35.69 77.71 35.23 Z" />
<path fill="#272626" opacity="1.00" d=" M 80.38 38.25 C 80.46 38.33 80.63 38.49 80.71 38.57 C 80.63 38.49 80.46 38.33 80.38 38.25 Z" />
<path fill="#484b54" opacity="1.00" d=" M 71.15 39.92 C 73.48 42.59 76.29 44.77 79.30 46.61 C 80.75 47.54 82.31 48.26 83.92 48.85 C 82.58 50.24 81.23 51.64 79.88 53.03 C 79.59 52.64 79.00 51.85 78.70 51.46 C 76.16 53.65 73.61 55.82 71.10 58.04 C 72.00 52.07 73.34 45.78 71.15 39.92 Z" />
<path fill="#303030" opacity="0.78" d=" M 82.58 40.55 C 84.31 39.28 87.21 42.23 85.84 43.93 C 84.67 42.88 83.57 41.77 82.58 40.55 Z" />
<path fill="#191a1a" opacity="0.75" d=" M 86.84 45.02 C 88.60 44.64 89.28 45.32 88.88 47.07 C 87.92 46.66 87.24 45.98 86.84 45.02 Z" />
<path fill="#0c0d0d" opacity="0.83" d=" M 89.73 48.50 C 91.18 46.35 92.97 50.88 90.42 49.93 C 90.24 49.57 89.90 48.86 89.73 48.50 Z" />
<path fill="#191e22" opacity="1.00" d=" M 83.92 48.85 C 85.23 49.09 86.54 49.32 87.85 49.53 C 84.98 53.09 81.97 56.55 78.89 59.94 C 74.56 64.69 69.92 69.17 66.09 74.35 C 66.53 74.19 67.41 73.87 67.85 73.71 C 66.77 74.75 65.72 75.83 64.67 76.90 C 64.81 76.44 65.08 75.52 65.21 75.06 C 60.24 79.90 54.56 84.44 52.17 91.20 C 51.48 92.42 50.69 93.56 49.78 94.62 L 49.82 93.59 C 50.14 89.14 50.29 84.47 48.19 80.38 C 49.16 81.22 50.18 82.01 51.19 82.81 C 61.85 73.99 70.02 62.68 79.88 53.03 C 81.23 51.64 82.58 50.24 83.92 48.85 Z" />
<path fill="#8e8384" opacity="1.00" d=" M 87.85 49.53 C 88.49 49.63 89.77 49.83 90.42 49.93 C 86.96 53.65 83.90 57.79 79.91 60.97 C 79.65 60.71 79.15 60.19 78.89 59.94 C 81.97 56.55 84.98 53.09 87.85 49.53 Z" />
<path fill="#000a10" opacity="1.00" d=" M 41.71 60.29 C 43.46 57.07 46.08 54.45 49.29 52.69 C 49.32 55.43 49.51 58.16 49.87 60.88 C 47.16 60.50 44.44 60.30 41.71 60.29 Z" />
<path fill="#0c111b" opacity="1.00" d=" M 51.70 53.19 C 53.32 53.97 55.03 54.59 56.57 55.51 C 57.81 57.00 58.41 58.93 59.41 60.59 C 56.86 60.68 54.31 60.72 51.76 60.77 C 51.80 58.24 51.75 55.71 51.70 53.19 Z" />
<path fill="#484b54" opacity="1.00" d=" M 66.09 74.35 C 69.92 69.17 74.56 64.69 78.89 59.94 C 79.15 60.19 79.65 60.71 79.91 60.97 C 78.02 64.26 75.24 66.91 72.74 69.73 C 71.29 71.24 69.91 73.02 67.85 73.71 C 67.41 73.87 66.53 74.19 66.09 74.35 Z" />
<path fill="#4e474a" opacity="1.00" d=" M 31.28 72.13 C 34.28 74.62 37.89 76.05 41.23 77.97 C 41.05 76.24 40.90 74.49 40.57 72.78 C 42.45 74.95 44.43 77.03 46.56 78.96 C 47.10 79.43 47.64 79.91 48.19 80.38 C 50.29 84.47 50.14 89.14 49.82 93.59 C 45.02 88.91 40.72 83.76 36.06 78.95 C 34.69 77.36 32.98 75.90 32.32 73.84 C 32.06 73.42 31.54 72.56 31.28 72.13 Z" />
<path fill="#484b54" opacity="1.00" d=" M 52.17 91.20 C 54.56 84.44 60.24 79.90 65.21 75.06 C 65.08 75.52 64.81 76.44 64.67 76.90 C 64.27 78.81 62.86 80.21 61.67 81.66 C 58.75 85.07 55.76 88.47 52.17 91.20 Z" />
</svg>
