<?xml version="1.0" encoding="UTF-8" ?>
<!DOCTYPE svg PUBLIC "-//W3C//DTD SVG 1.1//EN" "http://www.w3.org/Graphics/SVG/1.1/DTD/svg11.dtd">
<svg width="100pt" height="100pt" viewBox="0 0 100 100" version="1.1" xmlns="http://www.w3.org/2000/svg">
<path fill="#2e2428" opacity="1.00" d=" M 49.60 3.94 C 56.54 10.26 62.37 17.65 68.76 24.48 L 68.44 24.87 C 67.16 26.43 65.86 27.98 64.56 29.53 C 66.93 32.27 69.48 34.84 72.02 37.42 C 74.67 40.31 77.04 43.44 79.30 46.64 C 76.61 45.16 74.27 43.14 72.18 40.91 C 69.68 38.13 67.07 35.45 64.28 32.94 C 64.34 33.93 64.41 34.92 64.47 35.91 C 64.08 38.70 63.49 41.46 63.10 44.25 C 63.24 41.46 63.19 38.67 63.15 35.88 C 59.22 35.39 55.24 35.79 51.31 35.24 C 51.73 34.09 52.14 32.94 52.56 31.79 C 51.27 31.50 49.99 31.21 48.70 30.92 C 48.81 32.47 48.92 34.02 49.03 35.57 C 45.07 35.58 41.10 35.63 37.17 36.18 C 37.09 36.04 36.93 35.78 36.85 35.64 C 34.44 40.62 29.36 43.06 24.94 45.91 C 28.53 41.22 32.38 36.72 36.48 32.47 C 38.42 30.56 39.65 28.10 40.38 25.51 C 42.14 23.40 43.81 21.22 45.68 19.20 C 47.13 17.73 48.63 16.31 50.13 14.90 C 54.05 18.93 57.93 23.01 62.15 26.73 C 58.14 21.22 50.75 17.45 50.15 10.04 C 49.94 8.54 49.80 7.03 49.69 5.53 C 49.67 5.13 49.62 4.33 49.60 3.94 Z" />
<path fill="#8e8384" opacity="1.00" d=" M 45.41 10.55 C 46.18 8.44 48.14 7.06 49.69 5.53 C 49.80 7.03 49.94 8.54 50.15 10.04 C 50.75 17.45 58.14 21.22 62.15 26.73 C 57.93 23.01 54.05 18.93 50.13 14.90 C 48.63 16.31 47.13 17.73 45.68 19.20 C 45.20 16.34 45.43 13.43 45.41 10.55 Z" />
<path fill="#cbcdb6" opacity="1.00" d=" M 37.66 18.34 C 40.17 15.67 42.73 13.05 45.41 10.55 C 45.43 13.43 45.20 16.34 45.68 19.20 C 43.81 21.22 42.14 23.40 40.38 25.51 C 38.98 27.05 37.52 28.55 36.06 30.03 C 35.68 30.17 34.92 30.46 34.55 30.60 C 36.03 27.37 36.76 23.86 36.58 20.31 L 36.59 19.45 C 36.80 19.23 37.22 18.80 37.43 18.58 C 37.49 18.52 37.60 18.40 37.66 18.34 Z" />
<path fill="#1e1f1a" opacity="1.00" d=" M 37.43 18.58 C 37.49 18.52 37.60 18.40 37.66 18.34 C 37.60 18.40 37.49 18.52 37.43 18.58 Z" />
<path fill="#f5f4f6" opacity="1.00" d=" M 34.41 22.38 C 34.95 21.86 36.04 20.83 36.58 20.31 C 36.76 23.86 36.03 27.37 34.55 30.60 C 31.84 31.17 29.05 31.10 26.33 30.66 C 26.72 30.29 27.51 29.54 27.90 29.17 C 30.20 27.04 32.29 24.69 34.41 22.38 Z" />
<path fill="#353126" opacity="0.80" d=" M 27.90 29.17 C 29.35 26.31 31.51 23.83 34.41 22.38 C 32.29 24.69 30.20 27.04 27.90 29.17 Z" />
<path fill="#9e979e" opacity="1.00" d=" M 64.56 29.53 C 65.86 27.98 67.16 26.43 68.44 24.87 C 69.98 26.36 71.61 27.79 72.80 29.59 C 72.96 32.23 72.59 34.85 72.02 37.42 C 69.48 34.84 66.93 32.27 64.56 29.53 Z" />
<path fill="#161619" opacity="1.00" d=" M 36.06 30.03 C 37.52 28.55 38.98 27.05 40.38 25.51 C 39.65 28.10 38.42 30.56 36.48 32.47 C 32.38 36.72 28.53 41.22 24.94 45.91 C 29.36 43.06 34.44 40.62 36.85 35.64 C 36.93 35.78 37.09 36.04 37.17 36.18 C 37.55 39.99 37.82 43.81 38.17 47.62 C 41.86 47.61 45.55 47.52 49.23 47.69 C 49.24 56.25 50.50 65.02 48.08 73.39 C 47.49 75.22 46.85 77.03 46.25 78.86 C 44.23 76.94 42.35 74.89 40.56 72.76 C 36.16 67.39 31.57 62.12 26.29 57.59 C 23.85 54.73 21.28 51.98 18.91 49.06 C 24.48 42.59 30.58 36.59 36.06 30.03 Z" />
<path fill="#9a6b66" opacity="1.00" d=" M 24.15 33.10 C 24.81 32.23 25.58 31.45 26.33 30.66 C 29.05 31.10 31.84 31.17 34.55 30.60 C 34.92 30.46 35.68 30.17 36.06 30.03 C 30.58 36.59 24.48 42.59 18.91 49.06 C 21.28 51.98 23.85 54.73 26.29 57.59 C 23.41 55.55 20.77 53.21 18.23 50.77 C 16.31 48.86 13.37 49.09 10.90 48.59 C 13.85 48.04 17.22 47.77 19.35 45.37 C 22.45 42.14 24.97 38.41 27.80 34.95 C 25.91 35.66 24.02 36.37 22.12 37.05 C 22.78 35.72 23.43 34.40 24.15 33.10 Z" />
<path fill="#ccced2" opacity="1.00" d=" M 72.02 37.42 C 72.59 34.85 72.96 32.23 72.80 29.59 C 74.02 30.83 75.24 32.08 76.37 33.41 C 76.43 33.49 76.56 33.65 76.63 33.74 C 76.90 34.11 77.43 34.86 77.70 35.24 C 78.01 35.69 78.63 36.61 78.94 37.07 C 79.30 37.36 80.02 37.96 80.38 38.25 C 80.47 38.33 80.64 38.49 80.72 38.57 C 81.20 39.08 82.14 40.08 82.61 40.59 C 83.54 41.82 84.63 42.93 85.82 43.91 C 86.08 44.19 86.60 44.74 86.87 45.01 C 87.25 45.98 87.91 46.67 88.87 47.07 C 89.10 47.42 89.54 48.11 89.77 48.46 C 89.91 48.82 90.21 49.55 90.36 49.91 C 89.74 49.81 88.49 49.60 87.86 49.50 C 86.56 49.30 85.25 49.10 83.95 48.90 C 82.32 48.32 80.75 47.57 79.30 46.64 C 77.04 43.44 74.67 40.31 72.02 37.42 Z" />
<path fill="#de656c" opacity="1.00" d=" M 48.70 30.92 C 49.99 31.21 51.27 31.50 52.56 31.79 C 52.14 32.94 51.73 34.09 51.31 35.24 C 55.24 35.79 59.22 35.39 63.15 35.88 C 63.19 38.67 63.24 41.46 63.10 44.25 C 62.99 45.38 62.87 46.50 62.75 47.62 C 59.06 47.68 55.38 47.73 51.69 47.80 C 51.66 55.94 50.80 64.18 52.48 72.22 C 52.23 72.40 51.73 72.76 51.48 72.94 C 50.35 73.11 49.22 73.26 48.08 73.39 C 50.50 65.02 49.24 56.25 49.23 47.69 C 45.55 47.52 41.86 47.61 38.17 47.62 C 37.82 43.81 37.55 39.99 37.17 36.18 C 41.10 35.63 45.07 35.58 49.03 35.57 C 48.92 34.02 48.81 32.47 48.70 30.92 M 39.76 37.70 C 39.75 40.43 39.75 43.17 39.76 45.90 C 42.91 45.82 46.07 45.77 49.23 45.75 C 49.30 43.04 49.34 40.33 49.34 37.62 C 46.15 37.62 42.95 37.63 39.76 37.70 M 51.66 37.66 C 51.62 40.48 51.61 43.31 51.66 46.14 C 54.81 46.14 57.96 46.10 61.11 46.04 C 61.22 43.24 61.31 40.45 61.36 37.65 C 58.13 37.62 54.89 37.61 51.66 37.66 Z" />
<path fill="#302422" opacity="1.00" d=" M 8.90 49.08 C 13.96 43.74 18.55 37.91 24.15 33.10 C 23.43 34.40 22.78 35.72 22.12 37.05 C 24.02 36.37 25.91 35.66 27.80 34.95 C 24.97 38.41 22.45 42.14 19.35 45.37 C 17.22 47.77 13.85 48.04 10.90 48.59 C 13.37 49.09 16.31 48.86 18.23 50.77 C 20.77 53.21 23.41 55.55 26.29 57.59 C 31.57 62.12 36.16 67.39 40.56 72.76 C 40.85 74.41 41.03 76.09 41.24 77.76 C 37.62 76.56 34.45 74.41 31.48 72.06 C 31.66 72.51 32.02 73.41 32.20 73.85 C 28.56 71.19 25.72 67.64 22.68 64.34 C 18.13 59.22 13.31 54.33 8.90 49.08 Z" />
<path fill="#2a2f37" opacity="1.00" d=" M 64.28 32.94 C 67.07 35.45 69.68 38.13 72.18 40.91 C 73.76 46.15 72.49 51.62 72.02 56.93 C 74.45 55.00 76.88 53.09 79.42 51.31 C 79.34 51.80 79.20 52.78 79.13 53.27 C 74.71 59.09 69.16 63.92 64.52 69.56 C 60.57 74.37 56.06 78.70 51.28 82.68 C 50.18 81.93 49.07 81.20 48.01 80.41 C 47.42 79.90 46.83 79.38 46.25 78.86 C 46.85 77.03 47.49 75.22 48.08 73.39 C 49.22 73.26 50.35 73.11 51.48 72.94 C 51.73 72.76 52.23 72.40 52.48 72.22 C 58.99 66.35 64.41 58.83 66.15 50.11 C 67.17 45.31 65.40 40.57 64.47 35.91 C 64.41 34.92 64.34 33.93 64.28 32.94 Z" />
<path fill="#2a2b2b" opacity="1.00" d=" M 76.37 33.41 C 76.43 33.49 76.56 33.65 76.63 33.74 C 76.56 33.65 76.43 33.49 76.37 33.41 Z" />
<path fill="#303031" opacity="0.86" d=" M 77.70 35.24 L 78.61 35.28 L 79.24 36.20 L 78.94 37.07 C 78.63 36.61 78.01 35.69 77.70 35.24 Z" />
<path fill="#141a22" opacity="1.00" d=" M 63.10 44.25 C 63.49 41.46 64.08 38.70 64.47 35.91 C 65.40 40.57 67.17 45.31 66.15 50.11 C 64.41 58.83 58.99 66.35 52.48 72.22 C 50.80 64.18 51.66 55.94 51.69 47.80 C 55.38 47.73 59.06 47.68 62.75 47.62 C 62.87 46.50 62.99 45.38 63.10 44.25 Z" />
<path fill="#0e1016" opacity="1.00" d=" M 39.76 37.70 C 42.95 37.63 46.15 37.62 49.34 37.62 C 49.34 40.33 49.30 43.04 49.23 45.75 C 46.07 45.77 42.91 45.82 39.76 45.90 C 39.75 43.17 39.75 40.43 39.76 37.70 Z" />
<path fill="#0f141b" opacity="1.00" d=" M 51.66 37.66 C 54.89 37.61 58.13 37.62 61.36 37.65 C 61.31 40.45 61.22 43.24 61.11 46.04 C 57.96 46.10 54.81 46.14 51.66 46.14 C 51.61 43.31 51.62 40.48 51.66 37.66 Z" />
<path fill="#272626" opacity="1.00" d=" M 80.38 38.25 C 80.47 38.33 80.64 38.49 80.72 38.57 C 80.64 38.49 80.47 38.33 80.38 38.25 Z" />
<path fill="#303030" opacity="0.78" d=" M 82.61 40.59 C 84.32 39.30 87.17 42.24 85.82 43.91 C 84.63 42.93 83.54 41.82 82.61 40.59 Z" />
<path fill="#494c56" opacity="1.00" d=" M 72.18 40.91 C 74.27 43.14 76.61 45.16 79.30 46.64 C 80.75 47.57 82.32 48.32 83.95 48.90 C 82.30 50.32 80.66 51.73 79.13 53.27 C 79.20 52.78 79.34 51.80 79.42 51.31 C 76.88 53.09 74.45 55.00 72.02 56.93 C 72.49 51.62 73.76 46.15 72.18 40.91 Z" />
<path fill="#191a1a" opacity="0.75" d=" M 86.87 45.01 C 88.63 44.65 89.30 45.34 88.87 47.07 C 87.91 46.67 87.25 45.98 86.87 45.01 Z" />
<path fill="#0c0d0d" opacity="0.83" d=" M 89.77 48.46 C 91.38 46.42 92.82 51.05 90.36 49.91 C 90.21 49.55 89.91 48.82 89.77 48.46 Z" />
<path fill="#191e22" opacity="1.00" d=" M 83.95 48.90 C 85.25 49.10 86.56 49.30 87.86 49.50 C 84.98 53.07 81.99 56.56 78.89 59.94 C 74.60 64.66 70.03 69.14 66.12 74.20 C 66.56 74.08 67.44 73.85 67.87 73.73 C 66.85 74.79 65.84 75.86 64.78 76.89 C 64.88 76.41 65.07 75.45 65.17 74.96 C 60.24 79.85 53.97 84.20 52.19 91.30 C 51.70 92.59 50.61 93.49 49.70 94.48 L 49.75 93.51 C 50.12 89.09 50.55 84.33 48.01 80.41 C 49.07 81.20 50.18 81.93 51.28 82.68 C 56.06 78.70 60.57 74.37 64.52 69.56 C 69.16 63.92 74.71 59.09 79.13 53.27 C 80.66 51.73 82.30 50.32 83.95 48.90 Z" />
<path fill="#8e8384" opacity="1.00" d=" M 87.86 49.50 C 88.49 49.60 89.74 49.81 90.36 49.91 C 86.99 53.69 83.90 57.79 79.92 60.97 C 79.66 60.71 79.15 60.20 78.89 59.94 C 81.99 56.56 84.98 53.07 87.86 49.50 Z" />
<path fill="#494c56" opacity="1.00" d=" M 66.12 74.20 C 70.03 69.14 74.60 64.66 78.89 59.94 C 79.15 60.20 79.66 60.71 79.92 60.97 C 77.91 64.47 74.90 67.23 72.25 70.24 C 70.92 71.52 69.74 73.23 67.87 73.73 C 67.44 73.85 66.56 74.08 66.12 74.20 Z" />
<path fill="#4e474a" opacity="1.00" d=" M 31.48 72.06 C 34.45 74.41 37.62 76.56 41.24 77.76 C 41.03 76.09 40.85 74.41 40.56 72.76 C 42.35 74.89 44.23 76.94 46.25 78.86 C 46.83 79.38 47.42 79.90 48.01 80.41 C 50.55 84.33 50.12 89.09 49.75 93.51 C 44.97 88.87 40.70 83.73 36.07 78.94 C 34.66 77.35 33.03 75.85 32.20 73.85 C 32.02 73.41 31.66 72.51 31.48 72.06 Z" />
<path fill="#2e393e" opacity="0.95" d=" M 52.19 91.30 C 53.97 84.20 60.24 79.85 65.17 74.96 C 65.07 75.45 64.88 76.41 64.78 76.89 C 64.53 78.61 63.19 79.85 62.18 81.16 C 59.07 84.74 56.01 88.44 52.19 91.30 Z" />
</svg>
