<?xml version="1.0" encoding="UTF-8" ?>
<!DOCTYPE svg PUBLIC "-//W3C//DTD SVG 1.1//EN" "http://www.w3.org/Graphics/SVG/1.1/DTD/svg11.dtd">
<svg width="100pt" height="100pt" viewBox="0 0 100 100" version="1.1" xmlns="http://www.w3.org/2000/svg">
<path fill="#302e31" opacity="1.00" d=" M 49.75 3.99 C 56.57 10.44 62.48 17.75 68.88 24.60 L 68.53 24.97 C 67.07 26.48 65.64 28.03 64.13 29.50 C 59.23 25.01 54.72 20.14 49.76 15.73 C 50.06 12.33 50.12 8.92 49.86 5.51 C 49.83 5.13 49.78 4.37 49.75 3.99 Z" />
<path fill="#8e8384" opacity="1.00" d=" M 45.47 10.58 C 46.07 8.32 48.23 7.01 49.86 5.51 C 50.12 8.92 50.06 12.33 49.76 15.73 C 48.37 16.88 47.00 18.07 45.68 19.31 C 45.29 16.41 45.27 13.49 45.47 10.58 Z" />
<path fill="#cbcdb6" opacity="1.00" d=" M 37.66 18.34 C 40.05 15.56 42.75 13.05 45.47 10.58 C 45.27 13.49 45.29 16.41 45.68 19.31 C 42.36 22.76 39.34 26.49 36.06 29.98 C 35.67 30.12 34.90 30.39 34.52 30.53 C 36.14 27.37 36.66 23.85 36.66 20.33 C 36.86 19.89 37.25 19.03 37.45 18.60 C 37.50 18.54 37.61 18.41 37.66 18.34 Z" />
<path fill="#161619" opacity="1.00" d=" M 49.76 15.73 C 54.72 20.14 59.23 25.01 64.13 29.50 C 66.82 32.07 69.40 34.76 71.98 37.45 C 74.66 40.31 76.97 43.48 79.29 46.64 C 76.26 44.82 73.54 42.50 71.31 39.75 C 64.80 31.89 57.20 25.01 50.03 17.77 C 44.29 23.53 38.69 29.49 33.98 36.13 C 40.28 33.99 44.51 28.63 50.19 25.47 C 47.33 28.33 44.88 31.58 42.94 35.13 C 45.19 33.79 47.37 32.35 49.53 30.88 C 49.86 35.74 49.89 40.62 49.56 45.48 C 47.36 43.63 45.15 41.80 42.85 40.06 C 45.49 44.13 50.17 47.54 49.79 52.90 C 49.83 59.34 50.71 66.06 48.35 72.23 C 47.30 74.39 46.51 76.66 46.12 79.03 C 44.45 76.99 42.79 74.92 40.95 73.01 C 40.06 72.13 39.13 71.29 38.20 70.46 C 35.52 67.56 32.84 64.66 30.14 61.78 C 28.94 60.30 27.67 58.87 26.37 57.47 C 23.83 54.72 21.30 51.96 18.87 49.10 C 24.38 42.53 30.63 36.63 36.06 29.98 C 39.34 26.49 42.36 22.76 45.68 19.31 C 47.00 18.07 48.37 16.88 49.76 15.73 Z" />
<path fill="#1e1f1a" opacity="1.00" d=" M 37.45 18.60 C 37.50 18.54 37.61 18.41 37.66 18.34 C 37.61 18.41 37.50 18.54 37.45 18.60 Z" />
<path fill="#2a2c35" opacity="1.00" d=" M 33.98 36.13 C 38.69 29.49 44.29 23.53 50.03 17.77 C 57.20 25.01 64.80 31.89 71.31 39.75 C 73.36 45.71 71.95 52.00 71.06 58.02 C 73.64 55.89 76.17 53.70 78.65 51.46 C 78.95 51.85 79.56 52.62 79.87 53.01 C 74.52 58.94 68.72 64.46 63.64 70.64 C 59.58 75.50 54.74 79.61 50.17 83.98 C 48.83 82.32 47.48 80.68 46.12 79.03 C 46.51 76.66 47.30 74.39 48.35 72.23 C 49.50 72.95 50.71 73.58 51.91 74.20 C 52.13 73.83 52.55 73.09 52.77 72.71 C 55.95 67.39 60.97 63.33 63.51 57.59 C 65.37 53.44 67.04 48.79 65.93 44.19 C 64.84 38.76 61.16 34.42 57.69 30.30 C 56.03 28.30 54.03 26.53 51.61 25.51 C 51.25 25.50 50.54 25.48 50.19 25.47 C 44.51 28.63 40.28 33.99 33.98 36.13 Z" />
<path fill="#f5f4f6" opacity="1.00" d=" M 34.40 22.38 C 34.96 21.86 36.10 20.84 36.66 20.33 C 36.66 23.85 36.14 27.37 34.52 30.53 C 31.86 31.16 29.11 31.12 26.43 30.70 C 26.81 30.32 27.57 29.57 27.95 29.19 C 30.21 27.02 32.28 24.68 34.40 22.38 Z" />
<path fill="#353126" opacity="0.80" d=" M 27.95 29.19 C 29.30 26.27 31.51 23.83 34.40 22.38 C 32.28 24.68 30.21 27.02 27.95 29.19 Z" />
<path fill="#141921" opacity="1.00" d=" M 51.61 25.51 C 54.03 26.53 56.03 28.30 57.69 30.30 C 61.16 34.42 64.84 38.76 65.93 44.19 C 67.04 48.79 65.37 53.44 63.51 57.59 C 60.97 63.33 55.95 67.39 52.77 72.71 C 51.75 66.17 51.41 59.53 51.74 52.92 C 51.79 47.77 56.56 44.56 58.41 40.06 C 56.11 41.60 53.91 43.28 51.76 45.01 C 51.71 40.04 51.76 35.07 51.96 30.10 C 54.04 31.76 56.14 33.40 58.28 35.01 C 56.19 31.75 54.00 28.56 51.61 25.51 Z" />
<path fill="#9e979e" opacity="1.00" d=" M 64.13 29.50 C 65.64 28.03 67.07 26.48 68.53 24.97 C 70.02 26.42 71.68 27.77 72.75 29.59 C 73.02 32.23 72.62 34.88 71.98 37.45 C 69.40 34.76 66.82 32.07 64.13 29.50 Z" />
<path fill="#cc5865" opacity="1.00" d=" M 50.19 25.47 C 50.54 25.48 51.25 25.50 51.61 25.51 C 54.00 28.56 56.19 31.75 58.28 35.01 C 56.14 33.40 54.04 31.76 51.96 30.10 C 51.76 35.07 51.71 40.04 51.76 45.01 C 53.91 43.28 56.11 41.60 58.41 40.06 C 56.56 44.56 51.79 47.77 51.74 52.92 C 51.41 59.53 51.75 66.17 52.77 72.71 C 52.55 73.09 52.13 73.83 51.91 74.20 C 50.71 73.58 49.50 72.95 48.35 72.23 C 50.71 66.06 49.83 59.34 49.79 52.90 C 50.17 47.54 45.49 44.13 42.85 40.06 C 45.15 41.80 47.36 43.63 49.56 45.48 C 49.89 40.62 49.86 35.74 49.53 30.88 C 47.37 32.35 45.19 33.79 42.94 35.13 C 44.88 31.58 47.33 28.33 50.19 25.47 Z" />
<path fill="#a46f6a" opacity="1.00" d=" M 23.47 33.42 C 24.45 32.50 25.45 31.60 26.43 30.70 C 29.11 31.12 31.86 31.16 34.52 30.53 C 34.90 30.39 35.67 30.12 36.06 29.98 C 30.63 36.63 24.38 42.53 18.87 49.10 C 21.30 51.96 23.83 54.72 26.37 57.47 C 22.81 55.82 20.35 52.73 17.87 49.81 C 15.76 49.25 13.59 48.92 11.44 48.56 C 14.08 48.09 17.21 48.26 19.16 46.08 C 22.57 42.68 25.25 38.65 28.17 34.85 C 26.60 34.38 25.04 33.90 23.47 33.42 Z" />
<path fill="#ccced2" opacity="1.00" d=" M 71.98 37.45 C 72.62 34.88 73.02 32.23 72.75 29.59 C 73.97 30.84 75.21 32.07 76.37 33.39 C 76.44 33.48 76.57 33.64 76.64 33.72 C 76.90 34.10 77.43 34.86 77.69 35.24 C 78.01 35.70 78.63 36.61 78.94 37.07 C 79.30 37.37 80.02 37.95 80.38 38.25 C 80.47 38.33 80.64 38.49 80.73 38.57 C 81.20 39.08 82.14 40.10 82.62 40.61 C 83.55 41.83 84.62 42.93 85.80 43.92 C 86.06 44.19 86.60 44.73 86.87 45.00 C 87.25 45.96 87.92 46.66 88.86 47.08 C 89.09 47.42 89.54 48.09 89.77 48.43 C 89.91 48.79 90.20 49.52 90.35 49.88 C 89.73 49.79 88.48 49.60 87.86 49.51 C 86.54 49.31 85.23 49.11 83.92 48.89 C 82.30 48.30 80.74 47.57 79.29 46.64 C 76.97 43.48 74.66 40.31 71.98 37.45 Z" />
<path fill="#4e4040" opacity="1.00" d=" M 8.78 49.72 C 13.32 43.98 18.44 38.72 23.47 33.42 C 25.04 33.90 26.60 34.38 28.17 34.85 C 25.25 38.65 22.57 42.68 19.16 46.08 C 17.21 48.26 14.08 48.09 11.44 48.56 C 13.59 48.92 15.76 49.25 17.87 49.81 C 15.19 49.76 12.51 49.75 9.83 49.74 L 8.78 49.72 Z" />
<path fill="#2a2b2b" opacity="1.00" d=" M 76.37 33.39 C 76.44 33.48 76.57 33.64 76.64 33.72 C 76.57 33.64 76.44 33.48 76.37 33.39 Z" />
<path fill="#303031" opacity="0.86" d=" M 77.69 35.24 C 78.08 35.48 78.85 35.97 79.23 36.21 L 78.94 37.07 C 78.63 36.61 78.01 35.70 77.69 35.24 Z" />
<path fill="#272626" opacity="1.00" d=" M 80.38 38.25 C 80.47 38.33 80.64 38.49 80.73 38.57 C 80.64 38.49 80.47 38.33 80.38 38.25 Z" />
<path fill="#484b54" opacity="1.00" d=" M 71.31 39.75 C 73.54 42.50 76.26 44.82 79.29 46.64 C 80.74 47.57 82.30 48.30 83.92 48.89 C 82.55 50.24 81.20 51.61 79.87 53.01 C 79.56 52.62 78.95 51.85 78.65 51.46 C 76.17 53.70 73.64 55.89 71.06 58.02 C 71.95 52.00 73.36 45.71 71.31 39.75 Z" />
<path fill="#303030" opacity="0.78" d=" M 82.62 40.61 C 84.33 39.29 87.18 42.24 85.80 43.92 C 84.62 42.93 83.55 41.83 82.62 40.61 Z" />
<path fill="#191a1a" opacity="0.75" d=" M 86.87 45.00 C 88.64 44.65 89.31 45.34 88.86 47.08 C 87.92 46.66 87.25 45.96 86.87 45.00 Z" />
<path fill="#0c0d0d" opacity="0.83" d=" M 89.77 48.43 C 91.44 46.43 92.79 51.09 90.35 49.88 C 90.20 49.52 89.91 48.79 89.77 48.43 Z" />
<path fill="#191e22" opacity="1.00" d=" M 83.92 48.89 C 85.23 49.11 86.54 49.31 87.86 49.51 C 84.96 53.07 82.00 56.58 78.88 59.94 C 74.58 64.65 70.04 69.15 66.09 74.17 C 66.54 74.06 67.43 73.86 67.88 73.75 C 66.85 74.83 65.80 75.89 64.72 76.92 C 64.80 76.45 64.95 75.52 65.03 75.06 C 60.51 80.19 54.12 84.30 52.26 91.23 C 51.84 92.60 50.59 93.45 49.63 94.44 L 49.67 93.47 C 49.81 90.30 50.00 87.14 50.17 83.98 C 54.74 79.61 59.58 75.50 63.64 70.64 C 68.72 64.46 74.52 58.94 79.87 53.01 C 81.20 51.61 82.55 50.24 83.92 48.89 Z" />
<path fill="#8e8384" opacity="1.00" d=" M 87.86 49.51 C 88.48 49.60 89.73 49.79 90.35 49.88 C 87.02 53.71 83.89 57.78 79.92 60.98 C 79.66 60.72 79.14 60.20 78.88 59.94 C 82.00 56.58 84.96 53.07 87.86 49.51 Z" />
<path fill="#302422" opacity="1.00" d=" M 9.83 49.74 C 12.51 49.75 15.19 49.76 17.87 49.81 C 20.35 52.73 22.81 55.82 26.37 57.47 C 27.67 58.87 28.94 60.30 30.14 61.78 C 32.12 65.27 34.85 68.24 38.20 70.46 C 39.13 71.29 40.06 72.13 40.95 73.01 C 40.18 74.27 40.10 76.89 38.04 76.32 C 35.23 75.08 33.07 72.77 30.61 70.98 C 30.76 71.45 31.05 72.37 31.20 72.84 C 27.55 70.17 24.75 66.59 21.72 63.29 C 17.73 58.80 13.35 54.63 9.83 49.74 Z" />
<path fill="#484b54" opacity="1.00" d=" M 66.09 74.17 C 70.04 69.15 74.58 64.65 78.88 59.94 C 79.14 60.20 79.66 60.72 79.92 60.98 C 77.77 64.67 74.57 67.58 71.76 70.75 C 70.57 71.84 69.54 73.38 67.88 73.75 C 67.43 73.86 66.54 74.06 66.09 74.17 Z" />
<path fill="#8e8384" opacity="1.00" d=" M 30.14 61.78 C 32.84 64.66 35.52 67.56 38.20 70.46 C 34.85 68.24 32.12 65.27 30.14 61.78 Z" />
<path fill="#4d4649" opacity="1.00" d=" M 30.61 70.98 C 33.07 72.77 35.23 75.08 38.04 76.32 C 40.10 76.89 40.18 74.27 40.95 73.01 C 42.79 74.92 44.45 76.99 46.12 79.03 C 47.48 80.68 48.83 82.32 50.17 83.98 C 50.00 87.14 49.81 90.30 49.67 93.47 C 44.62 88.47 40.04 83.02 35.12 77.90 C 33.72 76.30 32.06 74.82 31.20 72.84 C 31.05 72.37 30.76 71.45 30.61 70.98 Z" />
<path fill="#484b54" opacity="1.00" d=" M 52.26 91.23 C 54.12 84.30 60.51 80.19 65.03 75.06 C 64.95 75.52 64.80 76.45 64.72 76.92 C 64.49 78.61 63.12 79.82 62.13 81.11 C 58.99 84.62 56.04 88.36 52.26 91.23 Z" />
</svg>
