<?xml version="1.0" encoding="UTF-8" ?>
<!DOCTYPE svg PUBLIC "-//W3C//DTD SVG 1.1//EN" "http://www.w3.org/Graphics/SVG/1.1/DTD/svg11.dtd">
<svg width="100pt" height="100pt" viewBox="0 0 100 100" version="1.1" xmlns="http://www.w3.org/2000/svg">
<path fill="#28262c" opacity="1.00" d=" M 49.67 3.98 C 56.54 10.31 62.40 17.63 68.74 24.47 L 68.42 24.87 C 67.15 26.43 65.86 27.98 64.58 29.54 C 66.96 32.26 69.45 34.88 72.00 37.43 C 74.73 40.24 77.00 43.44 79.26 46.62 C 75.91 44.48 72.91 41.84 70.07 39.07 C 71.75 47.51 70.77 56.79 66.12 64.16 C 62.79 68.31 59.14 72.25 56.94 77.17 C 54.77 79.58 52.45 81.86 50.13 84.12 C 49.09 82.48 48.05 80.84 46.99 79.21 C 45.73 77.09 44.55 74.93 43.34 72.78 C 45.66 71.21 48.06 69.72 50.15 67.83 C 51.21 66.33 52.10 64.70 53.33 63.32 C 55.62 61.21 58.80 60.30 60.94 57.99 C 62.61 55.87 63.59 53.32 64.75 50.90 C 66.50 50.46 68.26 50.05 70.01 49.61 C 68.19 48.94 66.38 48.22 64.56 47.54 C 63.19 44.98 61.95 42.25 59.86 40.17 C 57.72 38.15 55.03 36.90 52.47 35.52 C 51.99 34.00 51.53 32.47 51.08 30.93 C 50.45 32.31 49.82 33.70 49.21 35.09 C 49.12 33.67 49.03 32.24 48.94 30.82 C 42.53 32.57 37.05 36.39 31.10 39.17 C 34.06 33.91 40.33 30.64 41.35 24.39 C 42.79 22.69 44.18 20.94 45.72 19.32 C 47.26 17.61 49.25 16.19 50.24 14.07 C 50.66 11.22 50.09 8.35 49.84 5.51 C 49.80 5.13 49.71 4.36 49.67 3.98 Z" />
<path fill="#8e8384" opacity="1.00" d=" M 45.47 10.58 C 46.06 8.32 48.24 7.02 49.84 5.51 C 50.09 8.35 50.66 11.22 50.24 14.07 C 49.25 16.19 47.26 17.61 45.72 19.32 C 45.33 16.42 45.27 13.49 45.47 10.58 Z" />
<path fill="#cbcdb6" opacity="1.00" d=" M 37.66 18.34 C 40.06 15.56 42.74 13.04 45.47 10.58 C 45.27 13.49 45.33 16.42 45.72 19.32 C 44.18 20.94 42.79 22.69 41.35 24.39 C 39.61 26.27 37.84 28.12 36.06 29.97 C 35.68 30.12 34.92 30.42 34.53 30.57 C 36.13 27.39 36.65 23.86 36.66 20.33 C 36.86 19.90 37.26 19.03 37.46 18.59 C 37.51 18.53 37.61 18.40 37.66 18.34 Z" />
<path fill="#1e1f1a" opacity="1.00" d=" M 37.46 18.59 C 37.51 18.53 37.61 18.40 37.66 18.34 C 37.61 18.40 37.51 18.53 37.46 18.59 Z" />
<path fill="#f5f4f6" opacity="1.00" d=" M 34.38 22.38 C 34.95 21.87 36.09 20.85 36.66 20.33 C 36.65 23.86 36.13 27.39 34.53 30.57 C 31.90 31.04 29.22 31.03 26.56 30.83 C 26.92 30.44 27.65 29.66 28.01 29.27 C 30.17 27.00 32.25 24.67 34.38 22.38 Z" />
<path fill="#302522" opacity="1.00" d=" M 28.01 29.27 C 29.27 26.29 31.52 23.88 34.38 22.38 C 32.25 24.67 30.17 27.00 28.01 29.27 Z" />
<path fill="#1a181c" opacity="1.00" d=" M 36.06 29.97 C 37.84 28.12 39.61 26.27 41.35 24.39 C 40.33 30.64 34.06 33.91 31.10 39.17 C 37.05 36.39 42.53 32.57 48.94 30.82 C 49.03 32.24 49.12 33.67 49.21 35.09 C 46.51 36.36 43.70 37.50 41.33 39.35 C 38.86 41.48 37.80 44.70 36.43 47.55 C 35.01 47.98 33.59 48.39 32.16 48.79 C 35.67 50.63 37.82 53.97 39.86 57.23 C 41.99 60.71 46.04 62.01 49.58 63.55 C 49.78 64.97 49.97 66.40 50.15 67.83 C 48.06 69.72 45.66 71.21 43.34 72.78 C 44.55 74.93 45.73 77.09 46.99 79.21 C 44.76 77.02 42.35 75.00 40.26 72.68 C 36.09 67.22 31.48 62.07 26.29 57.57 C 23.74 54.81 21.34 51.93 18.90 49.08 C 24.42 42.53 30.66 36.62 36.06 29.97 Z" />
<path fill="#9e979e" opacity="1.00" d=" M 64.58 29.54 C 65.86 27.98 67.15 26.43 68.42 24.87 C 69.95 26.35 71.67 27.73 72.76 29.60 C 73.01 32.23 72.62 34.87 72.00 37.43 C 69.45 34.88 66.96 32.26 64.58 29.54 Z" />
<path fill="#9a6b66" opacity="1.00" d=" M 24.12 33.03 C 24.56 32.04 25.37 30.90 26.56 30.83 C 29.22 31.03 31.90 31.04 34.53 30.57 C 34.92 30.42 35.68 30.12 36.06 29.97 C 30.66 36.62 24.42 42.53 18.90 49.08 C 21.34 51.93 23.74 54.81 26.29 57.57 C 23.53 55.75 21.07 53.54 18.76 51.19 C 16.80 48.92 13.59 49.04 10.87 48.59 C 13.84 48.04 17.24 47.82 19.35 45.38 C 22.39 42.16 24.91 38.49 27.78 35.12 C 26.21 35.43 24.64 35.73 23.07 36.03 C 23.41 35.03 23.76 34.03 24.12 33.03 Z" />
<path fill="#ccced2" opacity="1.00" d=" M 72.00 37.43 C 72.62 34.87 73.01 32.23 72.76 29.60 C 73.97 30.85 75.22 32.08 76.37 33.39 C 76.44 33.48 76.57 33.64 76.64 33.72 C 76.90 34.10 77.43 34.86 77.70 35.24 C 78.01 35.69 78.63 36.61 78.95 37.07 C 79.31 37.36 80.02 37.96 80.38 38.25 C 80.47 38.33 80.64 38.50 80.73 38.58 C 81.20 39.09 82.14 40.10 82.61 40.61 C 83.55 41.82 84.63 42.92 85.79 43.91 C 86.06 44.19 86.60 44.73 86.87 45.00 C 87.25 45.96 87.92 46.66 88.86 47.08 C 89.09 47.42 89.55 48.09 89.77 48.42 C 89.92 48.79 90.20 49.52 90.35 49.88 C 89.70 49.80 88.41 49.62 87.76 49.54 C 87.05 49.43 85.61 49.23 84.89 49.13 C 82.91 48.56 80.95 47.81 79.26 46.62 C 77.00 43.44 74.73 40.24 72.00 37.43 Z" />
<path fill="#d15762" opacity="1.00" d=" M 49.21 35.09 C 49.82 33.70 50.45 32.31 51.08 30.93 C 51.53 32.47 51.99 34.00 52.47 35.52 C 55.03 36.90 57.72 38.15 59.86 40.17 C 61.95 42.25 63.19 44.98 64.56 47.54 C 66.38 48.22 68.19 48.94 70.01 49.61 C 68.26 50.05 66.50 50.46 64.75 50.90 C 63.59 53.32 62.61 55.87 60.94 57.99 C 58.80 60.30 55.62 61.21 53.33 63.32 C 52.10 64.70 51.21 66.33 50.15 67.83 C 49.97 66.40 49.78 64.97 49.58 63.55 C 46.04 62.01 41.99 60.71 39.86 57.23 C 37.82 53.97 35.67 50.63 32.16 48.79 C 33.59 48.39 35.01 47.98 36.43 47.55 C 37.80 44.70 38.86 41.48 41.33 39.35 C 43.70 37.50 46.51 36.36 49.21 35.09 M 38.71 48.14 C 42.44 48.46 46.19 48.45 49.93 48.19 C 49.85 44.70 49.65 41.21 49.13 37.75 C 43.74 38.67 40.07 43.05 38.71 48.14 M 51.86 37.51 C 51.56 41.24 51.62 44.98 51.95 48.71 C 55.33 48.70 58.72 48.67 62.10 48.60 C 61.37 43.13 57.54 38.27 51.86 37.51 M 38.51 50.87 C 39.52 55.91 43.89 61.23 49.47 60.57 C 50.16 57.16 49.81 53.67 49.65 50.22 C 45.92 49.82 42.15 49.96 38.51 50.87 M 51.91 50.28 C 51.60 53.91 51.64 57.56 52.06 61.17 C 57.32 59.93 61.02 55.55 62.08 50.35 C 58.69 50.29 55.30 50.29 51.91 50.28 Z" />
<path fill="#302522" opacity="1.00" d=" M 8.92 49.09 C 13.94 43.69 18.61 37.94 24.12 33.03 C 23.76 34.03 23.41 35.03 23.07 36.03 C 24.64 35.73 26.21 35.43 27.78 35.12 C 24.91 38.49 22.39 42.16 19.35 45.38 C 17.24 47.82 13.84 48.04 10.87 48.59 C 13.59 49.04 16.80 48.92 18.76 51.19 C 21.07 53.54 23.53 55.75 26.29 57.57 C 31.48 62.07 36.09 67.22 40.26 72.68 C 40.71 74.33 41.07 76.00 41.43 77.67 C 37.61 76.88 34.55 74.41 31.57 72.05 C 31.72 72.50 32.02 73.41 32.17 73.86 C 28.35 71.04 25.42 67.25 22.20 63.81 C 17.81 58.87 13.14 54.18 8.92 49.09 Z" />
<path fill="#2a2b2b" opacity="1.00" d=" M 76.37 33.39 C 76.44 33.48 76.57 33.64 76.64 33.72 C 76.57 33.64 76.44 33.48 76.37 33.39 Z" />
<path fill="#303031" opacity="0.86" d=" M 77.70 35.24 C 78.08 35.48 78.85 35.96 79.24 36.21 L 78.95 37.07 C 78.63 36.61 78.01 35.69 77.70 35.24 Z" />
<path fill="#0b0f16" opacity="1.00" d=" M 38.71 48.14 C 40.07 43.05 43.74 38.67 49.13 37.75 C 49.65 41.21 49.85 44.70 49.93 48.19 C 46.19 48.45 42.44 48.46 38.71 48.14 Z" />
<path fill="#0d1219" opacity="1.00" d=" M 51.86 37.51 C 57.54 38.27 61.37 43.13 62.10 48.60 C 58.72 48.67 55.33 48.70 51.95 48.71 C 51.62 44.98 51.56 41.24 51.86 37.51 Z" />
<path fill="#272626" opacity="1.00" d=" M 80.38 38.25 C 80.47 38.33 80.64 38.50 80.73 38.58 C 80.64 38.50 80.47 38.33 80.38 38.25 Z" />
<path fill="#3e424d" opacity="1.00" d=" M 70.07 39.07 C 72.91 41.84 75.91 44.48 79.26 46.62 C 80.95 47.81 82.91 48.56 84.89 49.13 C 79.29 52.28 75.44 57.51 71.06 62.05 C 66.28 67.03 61.90 72.37 56.94 77.17 C 59.14 72.25 62.79 68.31 66.12 64.16 C 70.77 56.79 71.75 47.51 70.07 39.07 Z" />
<path fill="#303030" opacity="0.78" d=" M 82.61 40.61 C 84.33 39.28 87.18 42.24 85.79 43.91 C 84.63 42.92 83.55 41.82 82.61 40.61 Z" />
<path fill="#191a1a" opacity="0.75" d=" M 86.87 45.00 C 88.64 44.65 89.31 45.34 88.86 47.08 C 87.92 46.66 87.25 45.96 86.87 45.00 Z" />
<path fill="#0c0d0d" opacity="0.83" d=" M 89.77 48.42 C 91.46 46.44 92.78 51.11 90.35 49.88 C 90.20 49.52 89.92 48.79 89.77 48.42 Z" />
<path fill="#191e22" opacity="1.00" d=" M 84.89 49.13 C 85.61 49.23 87.05 49.43 87.76 49.54 C 85.01 53.05 82.10 56.45 79.09 59.74 C 74.64 64.49 69.98 69.04 65.99 74.18 C 66.45 74.09 67.39 73.90 67.86 73.81 C 66.85 74.87 65.82 75.91 64.74 76.90 C 64.83 76.43 64.99 75.51 65.08 75.05 C 60.37 80.04 54.05 84.26 52.25 91.26 C 51.82 92.61 50.59 93.45 49.65 94.43 L 49.68 93.47 C 49.80 90.35 49.97 87.23 50.13 84.12 C 52.45 81.86 54.77 79.58 56.94 77.17 C 61.90 72.37 66.28 67.03 71.06 62.05 C 75.44 57.51 79.29 52.28 84.89 49.13 Z" />
<path fill="#8e8384" opacity="1.00" d=" M 87.76 49.54 C 88.41 49.62 89.70 49.80 90.35 49.88 C 87.00 53.87 83.62 57.86 79.65 61.25 C 79.51 60.88 79.23 60.12 79.09 59.74 C 82.10 56.45 85.01 53.05 87.76 49.54 Z" />
<path fill="#0b0f15" opacity="1.00" d=" M 38.51 50.87 C 42.15 49.96 45.92 49.82 49.65 50.22 C 49.81 53.67 50.16 57.16 49.47 60.57 C 43.89 61.23 39.52 55.91 38.51 50.87 Z" />
<path fill="#0d121a" opacity="1.00" d=" M 51.91 50.28 C 55.30 50.29 58.69 50.29 62.08 50.35 C 61.02 55.55 57.32 59.93 52.06 61.17 C 51.64 57.56 51.60 53.91 51.91 50.28 Z" />
<path fill="#3e424d" opacity="1.00" d=" M 65.99 74.18 C 69.98 69.04 74.64 64.49 79.09 59.74 C 79.23 60.12 79.51 60.88 79.65 61.25 C 78.00 64.54 75.08 66.96 72.74 69.74 C 71.21 71.16 69.96 73.25 67.86 73.81 C 67.39 73.90 66.45 74.09 65.99 74.18 Z" />
<path fill="#4e474a" opacity="1.00" d=" M 31.57 72.05 C 34.55 74.41 37.61 76.88 41.43 77.67 C 41.07 76.00 40.71 74.33 40.26 72.68 C 42.35 75.00 44.76 77.02 46.99 79.21 C 48.05 80.84 49.09 82.48 50.13 84.12 C 49.97 87.23 49.80 90.35 49.68 93.47 C 44.94 88.81 40.67 83.72 36.07 78.93 C 34.67 77.33 33.02 75.85 32.17 73.86 C 32.02 73.41 31.72 72.50 31.57 72.05 Z" />
<path fill="#3e424d" opacity="1.00" d=" M 52.25 91.26 C 54.05 84.26 60.37 80.04 65.08 75.05 C 64.99 75.51 64.83 76.43 64.74 76.90 C 64.59 78.37 63.44 79.46 62.60 80.59 C 59.32 84.30 56.21 88.24 52.25 91.26 Z" />
</svg>
