<?xml version="1.0" encoding="UTF-8" ?>
<!DOCTYPE svg PUBLIC "-//W3C//DTD SVG 1.1//EN" "http://www.w3.org/Graphics/SVG/1.1/DTD/svg11.dtd">
<svg width="100pt" height="100pt" viewBox="0 0 100 100" version="1.1" xmlns="http://www.w3.org/2000/svg">
<path fill="#292b32" opacity="1.00" d=" M 49.79 3.99 C 56.53 10.45 62.46 17.68 68.81 24.52 L 68.43 24.85 C 67.05 26.34 66.04 28.13 64.54 29.53 C 66.95 32.25 69.50 34.82 72.03 37.43 C 74.72 40.27 77.00 43.46 79.30 46.62 C 76.33 44.83 73.68 42.58 71.19 40.18 C 72.15 46.12 71.80 52.15 71.11 58.09 C 73.64 55.94 76.15 53.76 78.63 51.54 C 78.95 51.91 79.59 52.65 79.91 53.02 C 69.80 63.21 60.99 74.64 50.10 84.04 C 48.95 82.41 47.79 80.78 46.64 79.16 C 45.85 77.25 45.18 75.30 44.47 73.37 C 54.15 69.40 62.22 61.06 64.59 50.73 C 66.19 42.68 60.80 35.84 57.14 29.23 C 56.91 30.11 56.69 30.99 56.48 31.88 C 56.34 31.03 56.21 30.19 56.10 29.35 C 55.99 28.53 55.89 27.71 55.78 26.89 C 53.85 25.76 51.98 24.38 49.77 23.83 C 47.85 23.55 45.93 24.10 44.04 24.37 C 46.36 21.93 48.58 19.40 50.79 16.86 C 50.53 16.57 50.02 15.99 49.76 15.70 C 50.11 12.30 50.03 8.88 49.86 5.47 C 49.84 5.10 49.81 4.36 49.79 3.99 Z" />
<path fill="#8e8384" opacity="1.00" d=" M 45.40 10.58 C 46.10 8.34 48.25 7.02 49.86 5.47 C 50.03 8.88 50.11 12.30 49.76 15.70 C 48.37 16.87 47.00 18.06 45.67 19.28 C 45.35 16.40 45.37 13.48 45.40 10.58 Z" />
<path fill="#cbcdb6" opacity="1.00" d=" M 37.65 18.35 C 40.05 15.59 42.75 13.10 45.40 10.58 C 45.37 13.48 45.35 16.40 45.67 19.28 C 42.32 22.71 39.34 26.47 36.00 29.91 C 35.65 30.09 34.95 30.44 34.60 30.62 C 36.01 27.34 36.55 23.82 36.71 20.29 C 36.90 19.86 37.27 19.01 37.46 18.58 C 37.51 18.52 37.60 18.41 37.65 18.35 Z" />
<path fill="#2c1f23" opacity="1.00" d=" M 45.67 19.28 C 47.00 18.06 48.37 16.87 49.76 15.70 C 50.02 15.99 50.53 16.57 50.79 16.86 C 48.58 19.40 46.36 21.93 44.04 24.37 C 45.93 24.10 47.85 23.55 49.77 23.83 C 51.98 24.38 53.85 25.76 55.78 26.89 C 55.89 27.71 55.99 28.53 56.10 29.35 C 53.54 30.70 50.82 31.72 48.05 32.53 C 43.07 34.27 39.63 38.59 35.02 41.01 C 30.92 43.13 27.79 46.58 25.33 50.43 C 25.19 50.02 24.90 49.19 24.75 48.77 C 24.06 49.28 23.38 49.78 22.69 50.29 C 22.28 50.17 21.45 49.92 21.03 49.79 C 24.60 45.12 29.54 41.41 31.67 35.75 C 33.01 33.73 34.42 31.76 36.00 29.91 C 39.34 26.47 42.32 22.71 45.67 19.28 Z" />
<path fill="#1e1f1a" opacity="1.00" d=" M 37.46 18.58 C 37.51 18.52 37.60 18.41 37.65 18.35 C 37.60 18.41 37.51 18.52 37.46 18.58 Z" />
<path fill="#f5f4f6" opacity="1.00" d=" M 34.41 22.38 C 34.98 21.86 36.13 20.81 36.71 20.29 C 36.55 23.82 36.01 27.34 34.60 30.62 C 31.87 31.09 29.08 31.18 26.35 30.62 C 26.74 30.26 27.50 29.54 27.89 29.18 C 30.21 27.05 32.26 24.67 34.41 22.38 Z" />
<path fill="#302522" opacity="1.00" d=" M 27.89 29.18 C 29.40 26.35 31.53 23.88 34.41 22.38 C 32.26 24.67 30.21 27.05 27.89 29.18 Z" />
<path fill="#9e979e" opacity="1.00" d=" M 64.54 29.53 C 66.04 28.13 67.05 26.34 68.43 24.85 C 69.95 26.37 71.63 27.78 72.81 29.59 C 72.91 32.23 72.56 34.85 72.03 37.43 C 69.50 34.82 66.95 32.25 64.54 29.53 Z" />
<path fill="#b4585e" opacity="1.00" d=" M 48.05 32.53 C 50.82 31.72 53.54 30.70 56.10 29.35 C 56.21 30.19 56.34 31.03 56.48 31.88 C 58.32 35.68 61.83 39.97 59.26 44.29 C 57.45 48.25 52.65 48.12 48.97 48.16 C 50.09 43.28 51.43 38.45 52.59 33.58 C 50.67 34.60 48.49 35.32 46.97 36.94 C 45.69 41.15 46.22 45.66 45.91 50.01 C 45.51 56.79 45.75 63.60 46.58 70.34 C 45.30 70.29 44.03 70.25 42.75 70.22 C 44.71 60.21 43.30 50.01 43.81 39.92 C 43.75 36.82 46.09 34.61 48.05 32.53 M 52.08 46.37 C 54.02 45.38 56.62 44.78 57.45 42.49 C 58.50 39.70 56.85 36.94 55.81 34.43 C 53.15 37.85 52.45 42.18 52.08 46.37 Z" />
<path fill="#131519" opacity="1.00" d=" M 57.14 29.23 C 60.80 35.84 66.19 42.68 64.59 50.73 C 62.22 61.06 54.15 69.40 44.47 73.37 C 45.18 75.30 45.85 77.25 46.64 79.16 C 44.58 76.93 42.33 74.89 40.33 72.61 C 36.04 67.25 31.53 62.03 26.29 57.58 C 23.76 54.80 21.35 51.93 18.90 49.09 C 22.85 44.36 27.09 39.88 31.67 35.75 C 29.54 41.41 24.60 45.12 21.03 49.79 C 21.45 49.92 22.28 50.17 22.69 50.29 C 23.38 49.78 24.06 49.28 24.75 48.77 C 24.90 49.19 25.19 50.02 25.33 50.43 C 27.79 46.58 30.92 43.13 35.02 41.01 C 39.63 38.59 43.07 34.27 48.05 32.53 C 46.09 34.61 43.75 36.82 43.81 39.92 C 43.30 50.01 44.71 60.21 42.75 70.22 C 44.03 70.25 45.30 70.29 46.58 70.34 C 45.75 63.60 45.51 56.79 45.91 50.01 C 46.22 45.66 45.69 41.15 46.97 36.94 C 48.49 35.32 50.67 34.60 52.59 33.58 C 51.43 38.45 50.09 43.28 48.97 48.16 C 52.65 48.12 57.45 48.25 59.26 44.29 C 61.83 39.97 58.32 35.68 56.48 31.88 C 56.69 30.99 56.91 30.11 57.14 29.23 Z" />
<path fill="#9a6b66" opacity="1.00" d=" M 24.16 33.06 C 24.84 32.20 25.60 31.42 26.35 30.62 C 29.08 31.18 31.87 31.09 34.60 30.62 C 34.95 30.44 35.65 30.09 36.00 29.91 C 34.42 31.76 33.01 33.73 31.67 35.75 C 27.09 39.88 22.85 44.36 18.90 49.09 C 21.35 51.93 23.76 54.80 26.29 57.58 C 22.99 55.34 20.25 52.42 17.14 49.96 C 15.22 49.00 13.00 48.96 10.92 48.59 C 13.86 48.02 17.21 47.75 19.34 45.37 C 22.42 42.18 24.93 38.49 27.79 35.11 C 26.19 35.41 24.60 35.73 23.01 36.03 C 23.38 35.03 23.76 34.04 24.16 33.06 Z" />
<path fill="#ccced2" opacity="1.00" d=" M 72.03 37.43 C 72.56 34.85 72.91 32.23 72.81 29.59 C 74.02 30.85 75.24 32.09 76.38 33.42 C 76.45 33.50 76.58 33.66 76.64 33.74 C 76.91 34.12 77.44 34.86 77.70 35.24 C 78.01 35.69 78.64 36.61 78.95 37.07 C 79.31 37.36 80.02 37.95 80.38 38.25 C 80.46 38.33 80.63 38.49 80.72 38.57 C 81.19 39.07 82.13 40.08 82.60 40.58 C 83.56 41.80 84.64 42.91 85.81 43.92 C 86.08 44.19 86.60 44.74 86.86 45.01 C 87.25 45.97 87.92 46.66 88.87 47.07 C 89.09 47.42 89.54 48.11 89.76 48.45 C 89.91 48.81 90.22 49.54 90.37 49.90 C 89.74 49.80 88.48 49.61 87.86 49.51 C 86.54 49.32 85.23 49.11 83.92 48.89 C 82.31 48.28 80.74 47.55 79.30 46.62 C 77.00 43.46 74.72 40.27 72.03 37.43 Z" />
<path fill="#302522" opacity="1.00" d=" M 8.90 49.09 C 13.96 43.72 18.57 37.89 24.16 33.06 C 23.76 34.04 23.38 35.03 23.01 36.03 C 24.60 35.73 26.19 35.41 27.79 35.11 C 24.93 38.49 22.42 42.18 19.34 45.37 C 17.21 47.75 13.86 48.02 10.92 48.59 C 13.00 48.96 15.22 49.00 17.14 49.96 C 20.25 52.42 22.99 55.34 26.29 57.58 C 31.53 62.03 36.04 67.25 40.33 72.61 C 40.74 74.33 41.08 76.05 41.41 77.79 C 37.73 76.62 34.47 74.47 31.46 72.10 C 31.65 72.54 32.02 73.42 32.20 73.85 C 28.56 71.18 25.71 67.65 22.68 64.34 C 18.12 59.23 13.32 54.33 8.90 49.09 Z" />
<path fill="#2a2b2b" opacity="1.00" d=" M 76.38 33.42 C 76.45 33.50 76.58 33.66 76.64 33.74 C 76.58 33.66 76.45 33.50 76.38 33.42 Z" />
<path fill="#0b1018" opacity="1.00" d=" M 52.08 46.37 C 52.45 42.18 53.15 37.85 55.81 34.43 C 56.85 36.94 58.50 39.70 57.45 42.49 C 56.62 44.78 54.02 45.38 52.08 46.37 Z" />
<path fill="#303031" opacity="0.86" d=" M 77.70 35.24 L 78.61 35.28 L 79.24 36.20 L 78.95 37.07 C 78.64 36.61 78.01 35.69 77.70 35.24 Z" />
<path fill="#272626" opacity="1.00" d=" M 80.38 38.25 C 80.46 38.33 80.63 38.49 80.72 38.57 C 80.63 38.49 80.46 38.33 80.38 38.25 Z" />
<path fill="#444752" opacity="1.00" d=" M 71.19 40.18 C 73.68 42.58 76.33 44.83 79.30 46.62 C 80.74 47.55 82.31 48.28 83.92 48.89 C 82.57 50.26 81.23 51.62 79.91 53.02 C 79.59 52.65 78.95 51.91 78.63 51.54 C 76.15 53.76 73.64 55.94 71.11 58.09 C 71.80 52.15 72.15 46.12 71.19 40.18 Z" />
<path fill="#303030" opacity="0.78" d=" M 82.60 40.58 C 84.33 39.29 87.18 42.24 85.81 43.92 C 84.64 42.91 83.56 41.80 82.60 40.58 Z" />
<path fill="#191a1a" opacity="0.75" d=" M 86.86 45.01 C 88.63 44.64 89.30 45.33 88.87 47.07 C 87.92 46.66 87.25 45.97 86.86 45.01 Z" />
<path fill="#0c0d0d" opacity="0.83" d=" M 89.76 48.45 C 91.34 46.40 92.85 51.01 90.37 49.90 C 90.22 49.54 89.91 48.81 89.76 48.45 Z" />
<path fill="#191e22" opacity="1.00" d=" M 83.92 48.89 C 85.23 49.11 86.54 49.32 87.86 49.51 C 84.97 53.07 82.00 56.57 78.88 59.93 C 74.56 64.65 69.95 69.13 66.07 74.24 C 66.51 74.12 67.41 73.88 67.85 73.75 C 66.83 74.83 65.78 75.88 64.71 76.91 C 64.82 76.45 65.02 75.52 65.12 75.06 C 60.35 80.01 54.28 84.34 52.23 91.23 C 51.68 92.53 50.61 93.49 49.68 94.51 L 49.70 93.51 C 49.79 90.35 49.96 87.20 50.10 84.04 C 60.99 74.64 69.80 63.21 79.91 53.02 C 81.23 51.62 82.57 50.26 83.92 48.89 Z" />
<path fill="#8e8384" opacity="1.00" d=" M 87.86 49.51 C 88.48 49.61 89.74 49.80 90.37 49.90 C 87.00 53.69 83.89 57.79 79.91 60.98 C 79.65 60.72 79.14 60.19 78.88 59.93 C 82.00 56.57 84.97 53.07 87.86 49.51 Z" />
<path fill="#444752" opacity="1.00" d=" M 66.07 74.24 C 69.95 69.13 74.56 64.65 78.88 59.93 C 79.14 60.19 79.65 60.72 79.91 60.98 C 77.90 64.48 74.91 67.25 72.26 70.25 C 70.92 71.54 69.74 73.26 67.85 73.75 C 67.41 73.88 66.51 74.12 66.07 74.24 Z" />
<path fill="#4e474a" opacity="1.00" d=" M 31.46 72.10 C 34.47 74.47 37.73 76.62 41.41 77.79 C 41.08 76.05 40.74 74.33 40.33 72.61 C 42.33 74.89 44.58 76.93 46.64 79.16 C 47.79 80.78 48.95 82.41 50.10 84.04 C 49.96 87.20 49.79 90.35 49.70 93.51 C 44.97 88.83 40.68 83.73 36.07 78.94 C 34.66 77.36 33.04 75.85 32.20 73.85 C 32.02 73.42 31.65 72.54 31.46 72.10 Z" />
<path fill="#444752" opacity="1.00" d=" M 52.23 91.23 C 54.28 84.34 60.35 80.01 65.12 75.06 C 65.02 75.52 64.82 76.45 64.71 76.91 C 64.41 78.59 63.17 79.85 62.14 81.12 C 59.03 84.67 56.00 88.35 52.23 91.23 Z" />
</svg>
