<?xml version="1.0" encoding="UTF-8" ?>
<!DOCTYPE svg PUBLIC "-//W3C//DTD SVG 1.1//EN" "http://www.w3.org/Graphics/SVG/1.1/DTD/svg11.dtd">
<svg width="100pt" height="100pt" viewBox="0 0 100 100" version="1.1" xmlns="http://www.w3.org/2000/svg">
<path fill="#07080b" opacity="0.93" d=" M 33.65 26.67 C 41.90 24.90 50.46 24.05 58.85 25.31 C 64.35 26.12 70.24 26.75 74.91 30.05 C 76.90 31.40 78.12 34.06 77.13 36.38 C 72.32 47.78 65.43 58.14 58.19 68.12 C 56.05 70.85 53.63 74.04 49.97 74.60 C 46.37 74.10 43.79 71.11 41.47 68.56 C 35.54 61.33 30.27 53.57 25.48 45.54 C 24.05 43.08 22.60 40.58 21.89 37.81 C 21.10 35.00 22.43 32.25 23.22 29.60 C 23.18 37.26 26.47 44.33 30.15 50.86 C 32.87 55.56 36.97 59.20 40.39 63.35 C 42.53 67.27 44.70 72.79 49.88 73.05 C 53.89 70.40 56.45 66.15 59.71 62.70 C 62.65 59.62 64.48 55.76 66.04 51.85 C 68.80 47.63 72.39 43.94 74.56 39.35 C 75.71 37.25 74.90 34.85 74.14 32.78 C 73.53 31.21 72.28 29.93 70.66 29.41 C 66.22 27.82 61.53 27.01 56.89 26.25 C 49.16 25.00 41.40 26.75 33.65 26.67 Z" />
<path fill="#475161" opacity="1.00" d=" M 33.65 26.67 C 41.40 26.75 49.16 25.00 56.89 26.25 C 61.53 27.01 66.22 27.82 70.66 29.41 C 72.28 29.93 73.53 31.21 74.14 32.78 C 71.63 33.79 69.07 34.70 66.56 35.72 C 62.58 37.20 58.35 37.96 54.10 37.68 C 54.66 35.33 55.19 32.97 55.78 30.63 C 59.65 32.65 63.99 33.95 68.36 32.77 C 64.84 30.21 60.57 29.03 56.25 28.86 C 54.29 30.95 52.40 33.10 50.54 35.27 C 47.40 34.57 44.23 33.98 41.00 33.89 C 42.71 33.24 44.43 32.64 46.15 32.02 C 42.71 32.39 39.27 32.80 35.84 33.29 C 36.40 32.19 36.96 31.09 37.52 29.99 C 34.57 30.63 31.61 31.19 28.65 31.72 C 30.33 30.06 31.93 28.30 33.65 26.67 Z" />
<path fill="#323641" opacity="1.00" d=" M 23.22 29.60 C 26.64 28.42 30.11 27.41 33.65 26.67 C 31.93 28.30 30.33 30.06 28.65 31.72 C 31.61 31.19 34.57 30.63 37.52 29.99 C 36.96 31.09 36.40 32.19 35.84 33.29 C 39.27 32.80 42.71 32.39 46.15 32.02 C 44.43 32.64 42.71 33.24 41.00 33.89 C 38.45 34.82 36.09 36.18 33.75 37.54 C 38.87 36.61 44.22 36.38 48.93 38.97 C 48.03 40.67 47.25 42.46 46.04 43.97 C 42.19 45.68 37.25 45.89 34.86 49.89 C 36.25 54.55 38.40 58.93 40.39 63.35 C 36.97 59.20 32.87 55.56 30.15 50.86 C 26.47 44.33 23.18 37.26 23.22 29.60 Z" />
<path fill="#ffeecc" opacity="1.00" d=" M 50.54 35.27 C 52.40 33.10 54.29 30.95 56.25 28.86 C 56.13 29.30 55.90 30.19 55.78 30.63 C 55.19 32.97 54.66 35.33 54.10 37.68 C 58.35 37.96 62.58 37.20 66.56 35.72 C 64.80 37.21 63.24 38.98 61.22 40.11 C 58.74 41.28 55.94 41.37 53.27 41.74 C 52.11 43.89 50.97 46.05 49.85 48.21 C 54.53 49.76 59.33 48.68 63.67 46.66 C 61.81 48.74 59.92 50.78 57.98 52.78 C 54.53 52.36 51.12 51.73 47.74 50.96 C 45.85 53.28 44.00 55.62 42.11 57.94 C 42.68 54.56 43.29 51.18 43.78 47.78 C 40.79 48.41 37.82 49.13 34.86 49.89 C 37.25 45.89 42.19 45.68 46.04 43.97 C 47.25 42.46 48.03 40.67 48.93 38.97 C 44.22 36.38 38.87 36.61 33.75 37.54 C 36.09 36.18 38.45 34.82 41.00 33.89 C 44.23 33.98 47.40 34.57 50.54 35.27 Z" />
<path fill="#afb9b8" opacity="1.00" d=" M 56.25 28.86 C 60.57 29.03 64.84 30.21 68.36 32.77 C 63.99 33.95 59.65 32.65 55.78 30.63 C 55.90 30.19 56.13 29.30 56.25 28.86 Z" />
<path fill="#2a2e3a" opacity="1.00" d=" M 66.56 35.72 C 69.07 34.70 71.63 33.79 74.14 32.78 C 74.90 34.85 75.71 37.25 74.56 39.35 C 72.39 43.94 68.80 47.63 66.04 51.85 C 64.72 53.59 63.32 55.27 61.95 56.97 C 60.63 55.57 59.30 54.17 57.98 52.78 C 59.92 50.78 61.81 48.74 63.67 46.66 C 59.33 48.68 54.53 49.76 49.85 48.21 C 50.97 46.05 52.11 43.89 53.27 41.74 C 55.94 41.37 58.74 41.28 61.22 40.11 C 63.24 38.98 64.80 37.21 66.56 35.72 Z" />
<path fill="#13131f" opacity="1.00" d=" M 34.86 49.89 C 37.82 49.13 40.79 48.41 43.78 47.78 C 43.29 51.18 42.68 54.56 42.11 57.94 C 44.00 55.62 45.85 53.28 47.74 50.96 C 51.12 51.73 54.53 52.36 57.98 52.78 C 59.30 54.17 60.63 55.57 61.95 56.97 C 63.32 55.27 64.72 53.59 66.04 51.85 C 64.48 55.76 62.65 59.62 59.71 62.70 C 56.45 66.15 53.89 70.40 49.88 73.05 C 44.70 72.79 42.53 67.27 40.39 63.35 C 38.40 58.93 36.25 54.55 34.86 49.89 Z" />
</svg>
