<?xml version="1.0" encoding="UTF-8" ?>
<!DOCTYPE svg PUBLIC "-//W3C//DTD SVG 1.1//EN" "http://www.w3.org/Graphics/SVG/1.1/DTD/svg11.dtd">
<svg width="100pt" height="100pt" viewBox="0 0 100 100" version="1.1" xmlns="http://www.w3.org/2000/svg">
<path fill="#11151c" opacity="1.00" d=" M 38.83 26.04 C 45.88 23.98 53.37 23.92 60.52 25.47 C 66.03 26.64 72.54 27.10 76.46 31.65 C 78.99 34.91 76.13 38.62 74.69 41.64 C 69.86 51.43 63.91 60.61 57.25 69.25 C 55.33 71.54 53.09 74.08 49.98 74.57 C 46.14 73.99 43.46 70.75 41.05 67.98 C 34.35 59.47 27.99 50.60 23.08 40.92 C 21.07 37.39 21.79 33.30 23.44 29.80 C 23.13 36.90 26.35 43.41 29.48 49.55 C 32.17 54.85 36.74 58.78 40.46 63.30 C 42.53 66.78 44.39 71.07 48.46 72.55 C 50.48 73.37 51.91 71.44 53.14 70.18 C 56.28 66.60 59.36 62.94 61.93 58.93 C 63.74 55.45 65.19 51.74 67.70 48.68 C 70.31 45.22 73.93 42.17 74.89 37.77 C 74.81 35.91 73.91 34.22 73.31 32.50 C 73.50 32.08 73.86 31.25 74.04 30.83 C 62.89 26.29 50.75 25.41 38.83 26.04 Z" />
<path fill="#4b5362" opacity="1.00" d=" M 33.85 26.85 C 35.43 26.25 37.15 26.13 38.83 26.04 C 50.75 25.41 62.89 26.29 74.04 30.83 C 73.86 31.25 73.50 32.08 73.31 32.50 C 72.03 33.37 70.74 34.26 69.47 35.15 C 64.83 35.18 60.16 34.64 55.81 32.94 C 55.88 33.38 56.00 34.26 56.07 34.70 C 55.89 34.45 55.52 33.95 55.34 33.69 C 55.40 32.49 55.52 31.29 55.58 30.08 C 59.22 32.96 63.83 34.11 68.34 32.73 C 64.62 30.38 60.37 28.56 55.88 28.91 L 55.33 29.18 C 51.76 31.22 47.94 32.76 44.28 34.61 C 41.63 33.71 38.96 32.85 36.31 31.97 C 36.74 31.33 37.16 30.70 37.59 30.06 C 34.63 30.55 31.65 31.00 28.67 31.37 C 30.36 29.82 32.04 28.26 33.85 26.85 Z" />
<path fill="#333744" opacity="1.00" d=" M 23.44 29.80 C 26.61 27.98 30.29 27.43 33.85 26.85 C 32.04 28.26 30.36 29.82 28.67 31.37 C 31.65 31.00 34.63 30.55 37.59 30.06 C 37.16 30.70 36.74 31.33 36.31 31.97 C 38.96 32.85 41.63 33.71 44.28 34.61 C 41.01 36.87 37.95 39.54 35.80 42.91 C 34.63 50.10 36.97 57.11 40.46 63.30 C 36.74 58.78 32.17 54.85 29.48 49.55 C 26.35 43.41 23.13 36.90 23.44 29.80 Z" />
<path fill="#afb9b8" opacity="1.00" d=" M 55.88 28.91 C 60.37 28.56 64.62 30.38 68.34 32.73 C 63.83 34.11 59.22 32.96 55.58 30.08 C 55.52 29.85 55.39 29.40 55.33 29.18 L 55.88 28.91 Z" />
<path fill="#ffe2ae" opacity="1.00" d=" M 55.33 29.18 C 55.39 29.40 55.52 29.85 55.58 30.08 C 55.52 31.29 55.40 32.49 55.34 33.69 C 55.52 33.95 55.89 34.45 56.07 34.70 C 57.98 36.55 60.04 38.23 62.03 40.00 C 59.38 39.01 56.75 37.95 54.12 36.93 C 53.45 38.95 52.78 40.96 52.11 42.98 C 55.68 46.05 59.31 49.04 62.97 52.00 C 62.55 52.06 61.72 52.19 61.31 52.25 C 57.76 50.10 54.41 47.66 50.94 45.41 C 48.41 49.33 45.92 53.28 43.20 57.08 C 43.82 54.39 44.51 51.72 45.18 49.05 C 42.46 50.56 39.72 52.03 36.85 53.24 C 40.39 48.27 45.74 45.06 49.54 40.34 C 50.37 38.22 50.99 36.03 51.62 33.85 C 48.94 35.52 46.35 37.33 43.70 39.02 C 41.18 40.54 38.49 41.74 35.80 42.91 C 37.95 39.54 41.01 36.87 44.28 34.61 C 47.94 32.76 51.76 31.22 55.33 29.18 Z" />
<path fill="#2b2f3b" opacity="1.00" d=" M 55.81 32.94 C 60.16 34.64 64.83 35.18 69.47 35.15 C 70.74 34.26 72.03 33.37 73.31 32.50 C 73.91 34.22 74.81 35.91 74.89 37.77 C 73.93 42.17 70.31 45.22 67.70 48.68 C 65.19 51.74 63.74 55.45 61.93 58.93 C 60.76 56.88 59.56 54.84 58.37 52.81 C 59.34 52.61 60.32 52.42 61.31 52.25 C 61.72 52.19 62.55 52.06 62.97 52.00 C 59.31 49.04 55.68 46.05 52.11 42.98 C 52.78 40.96 53.45 38.95 54.12 36.93 C 56.75 37.95 59.38 39.01 62.03 40.00 C 60.04 38.23 57.98 36.55 56.07 34.70 C 56.00 34.26 55.88 33.38 55.81 32.94 Z" />
<path fill="#4a5a6e" opacity="1.00" d=" M 43.70 39.02 C 46.35 37.33 48.94 35.52 51.62 33.85 C 50.99 36.03 50.37 38.22 49.54 40.34 C 47.59 39.92 45.64 39.48 43.70 39.02 Z" />
<path fill="#13131f" opacity="1.00" d=" M 35.80 42.91 C 38.49 41.74 41.18 40.54 43.70 39.02 C 45.64 39.48 47.59 39.92 49.54 40.34 C 45.74 45.06 40.39 48.27 36.85 53.24 C 39.72 52.03 42.46 50.56 45.18 49.05 C 44.51 51.72 43.82 54.39 43.20 57.08 C 45.92 53.28 48.41 49.33 50.94 45.41 C 54.41 47.66 57.76 50.10 61.31 52.25 C 60.32 52.42 59.34 52.61 58.37 52.81 C 59.56 54.84 60.76 56.88 61.93 58.93 C 59.36 62.94 56.28 66.60 53.14 70.18 C 51.91 71.44 50.48 73.37 48.46 72.55 C 44.39 71.07 42.53 66.78 40.46 63.30 C 36.97 57.11 34.63 50.10 35.80 42.91 Z" />
</svg>
