<?xml version="1.0" encoding="UTF-8" ?>
<!DOCTYPE svg PUBLIC "-//W3C//DTD SVG 1.1//EN" "http://www.w3.org/Graphics/SVG/1.1/DTD/svg11.dtd">
<svg width="100pt" height="100pt" viewBox="0 0 100 100" version="1.1" xmlns="http://www.w3.org/2000/svg">
<path fill="#06070b" opacity="0.93" d=" M 38.78 25.99 C 47.92 23.77 57.43 24.75 66.54 26.55 C 69.95 27.33 73.49 28.51 76.01 31.06 C 77.57 32.59 77.98 35.07 76.99 37.02 C 71.85 48.03 65.36 58.37 58.20 68.16 C 56.04 70.86 53.61 74.04 49.97 74.59 C 46.13 74.04 43.46 70.77 41.03 68.02 C 34.30 59.53 28.02 50.60 23.02 40.98 C 20.97 37.44 21.41 33.22 23.39 29.77 C 23.05 36.89 26.26 43.45 29.44 49.60 C 31.74 54.04 35.38 57.53 38.67 61.22 C 41.08 65.37 43.30 70.09 47.60 72.59 C 49.32 73.75 51.07 72.56 52.24 71.24 C 59.60 63.27 66.25 54.60 71.24 44.94 C 72.87 42.10 74.27 39.14 75.59 36.15 C 74.40 35.23 73.21 34.31 72.03 33.39 C 72.71 32.94 74.07 32.03 74.75 31.58 C 63.72 25.86 50.94 25.29 38.78 25.99 Z" />
<path fill="#4b5462" opacity="1.00" d=" M 33.94 26.93 C 35.45 26.24 37.15 26.12 38.78 25.99 C 50.94 25.29 63.72 25.86 74.75 31.58 C 74.07 32.03 72.71 32.94 72.03 33.39 C 66.68 36.21 60.58 33.41 55.04 32.63 C 55.10 31.34 55.19 30.06 55.28 28.77 C 54.11 30.28 52.94 31.80 51.69 33.25 C 46.67 32.90 41.64 32.70 36.62 32.32 C 38.06 31.49 39.51 30.65 40.96 29.82 C 36.90 30.39 32.84 30.93 28.75 31.23 C 30.45 29.76 32.14 28.27 33.94 26.93 M 56.69 29.26 C 57.94 30.69 58.90 32.83 61.02 33.09 C 63.44 33.46 65.88 32.99 68.29 32.73 C 65.00 30.09 60.86 29.06 56.69 29.26 Z" />
<path fill="#333743" opacity="1.00" d=" M 23.39 29.77 C 26.62 27.98 30.32 27.39 33.94 26.93 C 32.14 28.27 30.45 29.76 28.75 31.23 C 32.84 30.93 36.90 30.39 40.96 29.82 C 39.51 30.65 38.06 31.49 36.62 32.32 C 41.64 32.70 46.67 32.90 51.69 33.25 C 46.56 35.37 40.88 35.12 35.55 36.45 C 40.00 37.62 44.62 37.85 49.19 38.08 C 48.65 39.24 48.11 40.40 47.56 41.55 C 42.84 40.91 37.09 39.74 33.21 43.24 C 33.72 45.39 34.73 47.38 35.79 49.30 C 36.90 49.84 38.03 50.33 39.17 50.78 C 37.79 50.85 36.41 50.94 35.04 51.05 C 36.38 54.39 37.52 57.81 38.67 61.22 C 35.38 57.53 31.74 54.04 29.44 49.60 C 26.26 43.45 23.05 36.89 23.39 29.77 Z" />
<path fill="#ffe7b8" opacity="1.00" d=" M 51.69 33.25 C 52.94 31.80 54.11 30.28 55.28 28.77 C 55.19 30.06 55.10 31.34 55.04 32.63 C 55.04 33.04 55.03 33.85 55.03 34.25 C 58.11 35.05 61.25 35.62 64.32 36.45 C 61.14 37.00 57.95 37.42 54.77 37.91 C 52.36 41.14 50.82 44.89 49.17 48.54 C 53.74 48.60 58.31 48.89 62.84 49.51 C 62.76 49.87 62.61 50.60 62.53 50.96 C 57.25 51.19 51.97 51.25 46.70 51.52 C 45.17 53.72 43.62 55.90 42.03 58.06 C 42.33 55.67 42.67 53.29 43.00 50.91 C 41.73 50.87 40.45 50.82 39.17 50.78 C 38.03 50.33 36.90 49.84 35.79 49.30 C 38.43 48.88 41.16 48.76 43.67 47.79 C 45.47 46.08 46.40 43.69 47.56 41.55 C 48.11 40.40 48.65 39.24 49.19 38.08 C 44.62 37.85 40.00 37.62 35.55 36.45 C 40.88 35.12 46.56 35.37 51.69 33.25 Z" />
<path fill="#afb9b8" opacity="1.00" d=" M 56.69 29.26 C 60.86 29.06 65.00 30.09 68.29 32.73 C 65.88 32.99 63.44 33.46 61.02 33.09 C 58.90 32.83 57.94 30.69 56.69 29.26 Z" />
<path fill="#363944" opacity="1.00" d=" M 55.04 32.63 C 60.58 33.41 66.68 36.21 72.03 33.39 C 73.21 34.31 74.40 35.23 75.59 36.15 C 74.27 39.14 72.87 42.10 71.24 44.94 C 66.09 47.02 63.78 52.38 60.13 56.19 C 60.13 54.79 60.14 53.39 60.18 51.99 C 55.68 51.90 51.19 51.74 46.70 51.52 C 51.97 51.25 57.25 51.19 62.53 50.96 C 62.61 50.60 62.76 49.87 62.84 49.51 C 63.87 47.55 65.74 45.68 65.54 43.33 C 63.82 39.39 58.79 40.89 55.42 40.71 C 55.26 40.01 54.93 38.61 54.77 37.91 C 57.95 37.42 61.14 37.00 64.32 36.45 C 61.25 35.62 58.11 35.05 55.03 34.25 C 55.03 33.85 55.04 33.04 55.04 32.63 Z" />
<path fill="#1d1e2a" opacity="1.00" d=" M 49.17 48.54 C 50.82 44.89 52.36 41.14 54.77 37.91 C 54.93 38.61 55.26 40.01 55.42 40.71 C 58.79 40.89 63.82 39.39 65.54 43.33 C 65.74 45.68 63.87 47.55 62.84 49.51 C 58.31 48.89 53.74 48.60 49.17 48.54 Z" />
<path fill="#1e1f2b" opacity="1.00" d=" M 33.21 43.24 C 37.09 39.74 42.84 40.91 47.56 41.55 C 46.40 43.69 45.47 46.08 43.67 47.79 C 41.16 48.76 38.43 48.88 35.79 49.30 C 34.73 47.38 33.72 45.39 33.21 43.24 Z" />
<path fill="#13131f" opacity="1.00" d=" M 60.13 56.19 C 63.78 52.38 66.09 47.02 71.24 44.94 C 66.25 54.60 59.60 63.27 52.24 71.24 C 51.07 72.56 49.32 73.75 47.60 72.59 C 43.30 70.09 41.08 65.37 38.67 61.22 C 37.52 57.81 36.38 54.39 35.04 51.05 C 36.41 50.94 37.79 50.85 39.17 50.78 C 40.45 50.82 41.73 50.87 43.00 50.91 C 42.67 53.29 42.33 55.67 42.03 58.06 C 43.62 55.90 45.17 53.72 46.70 51.52 C 51.19 51.74 55.68 51.90 60.18 51.99 C 60.14 53.39 60.13 54.79 60.13 56.19 Z" />
</svg>
