<?xml version="1.0" encoding="UTF-8" ?>
<!DOCTYPE svg PUBLIC "-//W3C//DTD SVG 1.1//EN" "http://www.w3.org/Graphics/SVG/1.1/DTD/svg11.dtd">
<svg width="100pt" height="100pt" viewBox="0 0 100 100" version="1.1" xmlns="http://www.w3.org/2000/svg">
<path fill="#09033b" opacity="0.79" d=" M 48.38 0.00 L 50.48 0.00 C 56.73 4.44 63.53 8.10 69.35 13.13 L 68.50 12.98 C 61.71 9.67 56.23 3.97 48.99 1.57 C 48.56 1.79 47.69 2.25 47.26 2.48 C 45.53 3.44 43.84 4.45 42.22 5.58 C 40.33 6.85 38.44 8.13 36.53 9.37 C 29.06 13.68 21.90 18.50 14.47 22.87 C 13.34 34.88 14.21 46.96 14.05 59.00 C 14.25 64.98 13.04 71.21 15.08 76.97 C 17.16 79.00 19.78 80.33 22.24 81.84 C 27.42 84.83 32.38 88.20 37.63 91.07 C 41.22 93.53 44.78 96.11 48.74 97.97 C 57.98 94.95 65.06 87.70 73.98 83.91 C 66.50 90.14 57.71 94.43 49.78 100.00 L 48.49 100.00 C 37.14 91.94 25.03 85.01 13.21 77.67 C 12.90 59.24 12.91 40.78 13.24 22.35 C 25.05 15.06 36.83 7.70 48.38 0.00 Z" />
<path fill="#bec4b3" opacity="0.89" d=" M 48.99 1.57 C 56.23 3.97 61.71 9.67 68.50 12.98 C 66.70 12.71 64.90 12.42 63.14 11.92 C 59.93 10.78 56.58 10.18 53.23 9.61 C 49.93 9.20 49.57 5.23 49.03 2.64 L 48.99 1.57 Z" />
<path fill="#3c4875" opacity="0.87" d=" M 47.26 2.48 C 47.69 2.25 48.56 1.79 48.99 1.57 L 49.03 2.64 C 49.07 5.05 48.98 7.47 48.86 9.88 C 47.01 10.92 45.17 11.97 43.34 13.04 C 44.78 9.57 46.32 6.12 47.26 2.48 Z" />
<path fill="#737a8d" opacity="0.87" d=" M 42.22 5.58 C 43.84 4.45 45.53 3.44 47.26 2.48 C 46.32 6.12 44.78 9.57 43.34 13.04 C 45.17 11.97 47.01 10.92 48.86 9.88 C 50.74 13.43 53.82 16.10 57.32 18.00 C 52.54 16.92 47.31 16.23 43.10 19.36 C 41.69 19.63 40.26 19.81 38.83 20.00 C 40.54 18.04 42.30 16.11 44.07 14.20 C 41.38 15.09 38.63 15.83 35.93 16.70 C 38.16 13.07 39.74 9.07 42.22 5.58 Z" />
<path fill="#92a0a0" opacity="0.88" d=" M 49.03 2.64 C 49.57 5.23 49.93 9.20 53.23 9.61 C 56.58 10.18 59.93 10.78 63.14 11.92 C 62.98 14.02 62.82 16.11 62.66 18.21 C 58.05 15.46 53.79 12.10 48.86 9.88 C 48.98 7.47 49.07 5.05 49.03 2.64 Z" />
<path fill="#cdccb9" opacity="0.91" d=" M 36.53 9.37 C 38.44 8.13 40.33 6.85 42.22 5.58 C 39.74 9.07 38.16 13.07 35.93 16.70 C 30.99 18.70 26.37 21.38 21.76 24.04 C 21.41 23.20 21.07 22.37 20.73 21.54 C 26.14 17.78 33.72 15.89 36.53 9.37 Z" />
<path fill="#dcdcc8" opacity="0.94" d=" M 14.47 22.87 C 21.90 18.50 29.06 13.68 36.53 9.37 C 33.72 15.89 26.14 17.78 20.73 21.54 C 19.17 22.45 17.61 23.36 16.06 24.28 C 15.52 33.22 15.99 42.17 15.95 51.11 C 15.71 58.54 16.15 65.96 16.42 73.39 L 15.86 74.11 L 15.11 74.67 C 15.50 57.40 14.84 40.13 14.47 22.87 Z" />
<path fill="#cdccb9" opacity="0.91" d=" M 48.86 9.88 C 53.79 12.10 58.05 15.46 62.66 18.21 C 63.64 18.77 64.63 19.31 65.61 19.85 C 70.43 22.53 74.31 27.73 80.29 27.60 C 77.18 31.34 76.91 36.30 77.67 40.91 C 79.13 48.28 78.73 55.81 78.24 63.25 C 77.70 56.46 77.56 49.65 77.57 42.84 C 77.43 47.98 77.16 53.12 76.48 58.22 C 76.47 54.72 76.17 51.23 76.10 47.73 C 76.19 45.41 76.26 43.09 76.31 40.77 C 76.39 36.92 76.32 33.08 76.09 29.24 C 74.51 28.36 72.92 27.47 71.36 26.55 C 66.71 23.65 62.07 20.73 57.32 18.00 C 53.82 16.10 50.74 13.43 48.86 9.88 Z" />
<path fill="#767bb0" opacity="0.82" d=" M 63.14 11.92 C 64.90 12.42 66.70 12.71 68.50 12.98 L 69.35 13.13 C 72.19 15.58 75.18 17.85 77.93 20.40 C 74.03 18.53 69.71 19.36 65.61 19.85 C 64.63 19.31 63.64 18.77 62.66 18.21 C 62.82 16.11 62.98 14.02 63.14 11.92 Z" />
<path fill="#393b91" opacity="1.00" d=" M 69.35 13.13 C 74.70 16.27 80.81 18.59 85.05 23.25 C 85.75 26.44 85.48 29.75 85.50 32.99 C 85.35 46.01 85.45 59.04 85.50 72.07 C 85.28 74.06 85.76 76.56 84.03 78.01 C 81.13 80.67 77.40 82.09 73.98 83.91 C 76.44 81.88 78.81 79.73 81.32 77.76 C 82.27 77.43 83.23 77.10 84.19 76.78 C 84.20 73.72 84.23 70.66 84.06 67.61 C 84.00 65.33 82.95 63.26 81.98 61.25 C 82.85 56.20 83.30 51.09 83.20 45.98 C 83.05 39.01 83.34 32.04 83.82 25.09 C 82.61 24.90 81.36 24.82 80.20 24.43 C 79.26 23.20 78.79 21.69 77.93 20.40 C 75.18 17.85 72.19 15.58 69.35 13.13 Z" />
<path fill="#acbaae" opacity="0.90" d=" M 35.93 16.70 C 38.63 15.83 41.38 15.09 44.07 14.20 C 42.30 16.11 40.54 18.04 38.83 20.00 C 40.26 19.81 41.69 19.63 43.10 19.36 C 41.24 20.55 39.44 21.82 37.62 23.07 C 36.19 24.06 34.76 25.07 33.28 26.00 C 30.68 27.28 27.93 28.23 25.13 28.96 C 29.67 25.53 33.92 21.74 38.16 17.96 C 31.68 20.91 24.75 23.95 20.53 29.98 C 20.05 28.95 19.57 27.92 19.08 26.89 C 17.12 34.15 17.85 41.71 18.49 49.10 C 17.64 49.77 16.80 50.44 15.95 51.11 C 15.99 42.17 15.52 33.22 16.06 24.28 C 17.61 23.36 19.17 22.45 20.73 21.54 C 21.07 22.37 21.41 23.20 21.76 24.04 C 26.37 21.38 30.99 18.70 35.93 16.70 Z" />
<path fill="#575b72" opacity="0.88" d=" M 43.10 19.36 C 47.31 16.23 52.54 16.92 57.32 18.00 C 62.07 20.73 66.71 23.65 71.36 26.55 C 70.95 29.57 70.81 32.71 69.61 35.55 C 68.63 37.96 66.07 39.06 63.92 40.19 C 63.31 39.14 62.69 38.09 62.07 37.04 C 64.06 34.40 66.02 31.75 67.97 29.09 C 66.98 29.39 65.99 29.70 64.99 30.00 C 64.55 30.13 63.67 30.40 63.24 30.53 C 59.87 29.94 56.77 28.47 53.68 27.09 C 48.60 24.82 43.03 24.14 37.62 23.07 C 39.44 21.82 41.24 20.55 43.10 19.36 Z" />
<path fill="#ccdddf" opacity="1.00" d=" M 20.53 29.98 C 24.75 23.95 31.68 20.91 38.16 17.96 C 33.92 21.74 29.67 25.53 25.13 28.96 C 23.62 29.38 22.07 29.68 20.53 29.98 Z" />
<path fill="#37438c" opacity="0.80" d=" M 65.61 19.85 C 69.71 19.36 74.03 18.53 77.93 20.40 C 78.79 21.69 79.26 23.20 80.20 24.43 C 81.36 24.82 82.61 24.90 83.82 25.09 C 83.34 32.04 83.05 39.01 83.20 45.98 C 82.61 45.93 81.44 45.85 80.85 45.80 C 81.01 43.24 81.07 40.66 81.12 38.09 C 79.96 39.03 78.81 39.97 77.67 40.91 C 76.91 36.30 77.18 31.34 80.29 27.60 C 74.31 27.73 70.43 22.53 65.61 19.85 Z" />
<path fill="#c4b495" opacity="1.00" d=" M 14.05 59.00 C 14.21 46.96 13.34 34.88 14.47 22.87 C 14.84 40.13 15.50 57.40 15.11 74.67 L 15.10 75.41 C 15.10 75.80 15.08 76.58 15.08 76.97 C 13.04 71.21 14.25 64.98 14.05 59.00 Z" />
<path fill="#667474" opacity="0.83" d=" M 33.28 26.00 C 34.76 25.07 36.19 24.06 37.62 23.07 C 43.03 24.14 48.60 24.82 53.68 27.09 C 56.77 28.47 59.87 29.94 63.24 30.53 C 61.55 31.56 59.96 32.74 58.50 34.08 C 57.06 32.64 55.52 31.28 53.76 30.26 C 48.87 32.53 43.87 34.58 38.61 35.85 L 37.80 36.13 C 39.43 39.15 41.87 41.73 43.09 44.96 C 42.83 46.55 41.97 47.96 41.23 49.37 C 40.41 50.29 39.59 51.23 38.81 52.19 C 34.90 46.66 32.29 40.41 30.39 33.95 C 30.43 35.87 30.46 37.79 30.57 39.71 C 30.66 41.87 30.77 44.04 31.07 46.19 C 28.12 48.57 25.00 50.75 21.94 53.00 C 22.08 46.36 22.11 39.70 23.06 33.12 C 25.65 32.50 28.41 32.19 30.71 30.79 C 31.82 29.34 32.50 27.63 33.28 26.00 Z" />
<path fill="#657e84" opacity="0.94" d=" M 25.13 28.96 C 27.93 28.23 30.68 27.28 33.28 26.00 C 32.50 27.63 31.82 29.34 30.71 30.79 C 28.41 32.19 25.65 32.50 23.06 33.12 C 22.11 39.70 22.08 46.36 21.94 53.00 C 21.85 55.43 21.69 57.86 21.58 60.30 C 21.21 55.15 20.41 50.05 19.55 44.96 C 19.18 46.33 18.80 47.71 18.49 49.10 C 17.85 41.71 17.12 34.15 19.08 26.89 C 19.57 27.92 20.05 28.95 20.53 29.98 C 22.07 29.68 23.62 29.38 25.13 28.96 Z" />
<path fill="#4a558f" opacity="0.87" d=" M 71.36 26.55 C 72.92 27.47 74.51 28.36 76.09 29.24 C 76.32 33.08 76.39 36.92 76.31 40.77 C 73.51 42.45 70.80 44.27 67.98 45.93 C 67.74 45.68 67.26 45.19 67.02 44.94 C 67.61 44.19 68.19 43.43 68.74 42.65 C 68.39 42.51 67.68 42.22 67.33 42.08 C 65.89 41.47 64.47 40.81 63.09 40.07 L 63.92 40.19 C 66.07 39.06 68.63 37.96 69.61 35.55 C 70.81 32.71 70.95 29.57 71.36 26.55 Z" />
<path fill="#cdccb9" opacity="0.91" d=" M 64.99 30.00 C 65.99 29.70 66.98 29.39 67.97 29.09 C 66.02 31.75 64.06 34.40 62.07 37.04 C 62.69 38.09 63.31 39.14 63.92 40.19 L 63.09 40.07 C 61.64 39.30 60.29 38.36 58.94 37.45 C 61.02 35.02 63.07 32.56 64.99 30.00 Z" />
<path fill="#09033b" opacity="0.79" d=" M 38.61 35.85 C 43.87 34.58 48.87 32.53 53.76 30.26 C 54.94 32.15 56.15 34.02 57.43 35.84 C 57.70 35.40 58.23 34.52 58.50 34.08 C 59.96 32.74 61.55 31.56 63.24 30.53 C 63.67 30.40 64.55 30.13 64.99 30.00 C 63.07 32.56 61.02 35.02 58.94 37.45 C 60.29 38.36 61.64 39.30 63.09 40.07 C 64.47 40.81 65.89 41.47 67.33 42.08 C 63.69 43.56 59.57 45.02 57.45 48.57 C 55.40 52.14 55.25 56.38 54.70 60.36 C 55.17 60.23 56.12 59.96 56.59 59.83 C 59.47 59.07 62.37 58.39 65.20 57.46 C 62.19 59.54 58.76 60.87 55.54 62.57 C 55.54 62.93 55.54 63.64 55.55 64.00 C 55.29 63.98 54.78 63.93 54.52 63.90 C 48.84 62.15 42.95 60.89 37.75 57.87 C 35.81 60.24 33.85 62.59 32.08 65.10 C 33.29 61.98 34.66 58.93 36.10 55.91 C 34.89 54.17 33.64 52.46 32.45 50.70 C 31.96 49.21 31.47 47.71 31.07 46.19 C 30.77 44.04 30.66 41.87 30.57 39.71 C 32.04 44.72 34.70 49.28 37.87 53.40 C 38.10 53.10 38.57 52.49 38.81 52.19 C 39.59 51.23 40.41 50.29 41.23 49.37 C 42.84 48.04 44.54 46.83 46.22 45.61 C 43.88 42.21 41.34 38.95 38.61 35.85 M 46.26 37.26 C 50.51 38.43 54.83 39.35 59.18 40.08 C 56.83 37.67 54.43 35.32 52.08 32.92 C 50.14 34.37 48.19 35.80 46.26 37.26 M 44.55 39.97 C 46.16 42.64 48.03 45.13 49.96 47.57 C 45.00 47.09 42.43 51.94 39.45 55.00 C 39.88 55.33 40.74 55.98 41.17 56.31 L 40.67 56.96 C 44.39 59.21 48.57 60.61 52.92 60.93 C 53.42 55.03 54.12 49.03 56.81 43.66 C 57.33 43.58 58.37 43.42 58.88 43.34 C 54.26 41.64 49.38 40.83 44.55 39.97 Z" />
<path fill="#9aafbc" opacity="0.96" d=" M 53.76 30.26 C 55.52 31.28 57.06 32.64 58.50 34.08 C 58.23 34.52 57.70 35.40 57.43 35.84 C 56.15 34.02 54.94 32.15 53.76 30.26 Z" />
<path fill="#a0a1a3" opacity="0.87" d=" M 46.26 37.26 C 48.19 35.80 50.14 34.37 52.08 32.92 C 54.43 35.32 56.83 37.67 59.18 40.08 C 54.83 39.35 50.51 38.43 46.26 37.26 Z" />
<path fill="#bec4b3" opacity="0.89" d=" M 30.39 33.95 C 32.29 40.41 34.90 46.66 38.81 52.19 C 38.57 52.49 38.10 53.10 37.87 53.40 C 34.70 49.28 32.04 44.72 30.57 39.71 C 30.46 37.79 30.43 35.87 30.39 33.95 Z" />
<path fill="#8fa5b7" opacity="0.94" d=" M 37.80 36.13 L 38.61 35.85 C 41.34 38.95 43.88 42.21 46.22 45.61 C 44.54 46.83 42.84 48.04 41.23 49.37 C 41.97 47.96 42.83 46.55 43.09 44.96 C 41.87 41.73 39.43 39.15 37.80 36.13 Z" />
<path fill="#4e58a0" opacity="0.80" d=" M 77.67 40.91 C 78.81 39.97 79.96 39.03 81.12 38.09 C 81.07 40.66 81.01 43.24 80.85 45.80 C 80.65 50.94 79.06 56.56 81.98 61.25 C 82.95 63.26 84.00 65.33 84.06 67.61 C 83.63 70.03 83.03 72.41 82.42 74.78 C 74.48 74.08 69.12 81.24 61.57 82.37 C 63.04 81.15 64.44 79.85 65.90 78.63 C 69.87 76.53 74.34 74.89 77.41 71.49 C 78.31 68.85 78.15 66.00 78.24 63.25 C 78.73 55.81 79.13 48.28 77.67 40.91 Z" />
<path fill="#acbac6" opacity="0.98" d=" M 44.55 39.97 C 49.38 40.83 54.26 41.64 58.88 43.34 C 58.37 43.42 57.33 43.58 56.81 43.66 C 54.18 43.69 51.57 43.39 48.97 43.12 C 50.38 45.60 51.77 48.09 53.19 50.57 C 51.27 50.33 49.33 49.86 47.39 50.04 C 44.68 51.34 43.06 54.09 41.17 56.31 C 40.74 55.98 39.88 55.33 39.45 55.00 C 42.43 51.94 45.00 47.09 49.96 47.57 C 48.03 45.13 46.16 42.64 44.55 39.97 Z" />
<path fill="#3e54b6" opacity="0.92" d=" M 67.98 45.93 C 70.80 44.27 73.51 42.45 76.31 40.77 C 76.26 43.09 76.19 45.41 76.10 47.73 C 75.35 53.17 74.30 58.96 70.41 63.12 C 68.84 61.96 67.26 60.82 65.68 59.68 C 67.75 57.94 69.62 55.98 71.38 53.93 C 72.15 50.73 70.06 48.08 67.98 45.93 Z" />
<path fill="#a7b3c9" opacity="0.97" d=" M 67.33 42.08 C 67.68 42.22 68.39 42.51 68.74 42.65 C 68.19 43.43 67.61 44.19 67.02 44.94 C 64.27 45.92 60.80 46.48 59.29 49.32 C 57.57 52.56 57.38 56.31 56.59 59.83 C 56.12 59.96 55.17 60.23 54.70 60.36 C 55.25 56.38 55.40 52.14 57.45 48.57 C 59.57 45.02 63.69 43.56 67.33 42.08 Z" />
<path fill="#6176aa" opacity="0.96" d=" M 48.97 43.12 C 51.57 43.39 54.18 43.69 56.81 43.66 C 54.12 49.03 53.42 55.03 52.92 60.93 C 48.57 60.61 44.39 59.21 40.67 56.96 L 41.17 56.31 C 43.06 54.09 44.68 51.34 47.39 50.04 C 49.33 49.86 51.27 50.33 53.19 50.57 C 51.77 48.09 50.38 45.60 48.97 43.12 Z" />
<path fill="#b9c5d3" opacity="0.96" d=" M 76.48 58.22 C 77.16 53.12 77.43 47.98 77.57 42.84 C 77.56 49.65 77.70 56.46 78.24 63.25 C 78.15 66.00 78.31 68.85 77.41 71.49 C 74.34 74.89 69.87 76.53 65.90 78.63 C 65.17 78.77 63.72 79.05 62.99 79.20 C 65.78 77.31 68.56 75.41 71.42 73.63 C 72.74 72.66 74.35 71.89 75.20 70.43 C 75.88 67.64 75.88 64.74 76.17 61.90 C 76.29 60.68 76.39 59.45 76.48 58.22 Z" />
<path fill="#294665" opacity="0.66" d=" M 19.55 44.96 C 20.41 50.05 21.21 55.15 21.58 60.30 C 21.53 62.59 21.38 64.88 21.07 67.15 C 20.88 68.33 20.65 69.50 20.42 70.67 C 18.95 71.88 17.40 72.99 15.86 74.11 L 16.42 73.39 C 17.55 71.90 18.80 70.27 18.68 68.29 C 18.70 61.89 17.71 55.49 18.49 49.10 C 18.80 47.71 19.18 46.33 19.55 44.96 Z" />
<path fill="#5468b0" opacity="0.96" d=" M 59.29 49.32 C 60.80 46.48 64.27 45.92 67.02 44.94 C 67.26 45.19 67.74 45.68 67.98 45.93 C 70.06 48.08 72.15 50.73 71.38 53.93 C 71.27 53.26 71.06 51.91 70.96 51.23 C 69.17 53.42 67.53 55.82 65.20 57.46 C 62.37 58.39 59.47 59.07 56.59 59.83 C 57.38 56.31 57.57 52.56 59.29 49.32 Z" />
<path fill="#577aa6" opacity="0.82" d=" M 21.94 53.00 C 25.00 50.75 28.12 48.57 31.07 46.19 C 31.47 47.71 31.96 49.21 32.45 50.70 C 32.87 52.69 33.17 54.71 33.50 56.72 C 31.91 59.02 30.40 61.40 28.50 63.46 C 26.60 65.61 23.66 66.22 21.07 67.15 C 21.38 64.88 21.53 62.59 21.58 60.30 C 21.69 57.86 21.85 55.43 21.94 53.00 Z" />
<path fill="#0825d0" opacity="0.82" d=" M 80.85 45.80 C 81.44 45.85 82.61 45.93 83.20 45.98 C 83.30 51.09 82.85 56.20 81.98 61.25 C 79.06 56.56 80.65 50.94 80.85 45.80 Z" />
<path fill="#0b2990" opacity="0.87" d=" M 70.41 63.12 C 74.30 58.96 75.35 53.17 76.10 47.73 C 76.17 51.23 76.47 54.72 76.48 58.22 C 76.39 59.45 76.29 60.68 76.17 61.90 C 75.44 63.42 74.72 64.98 73.60 66.26 C 71.85 66.89 70.09 65.72 68.41 65.30 C 68.91 64.76 69.91 63.67 70.41 63.12 Z" />
<path fill="#5788a7" opacity="0.80" d=" M 15.95 51.11 C 16.80 50.44 17.64 49.77 18.49 49.10 C 17.71 55.49 18.70 61.89 18.68 68.29 C 18.80 70.27 17.55 71.90 16.42 73.39 C 16.15 65.96 15.71 58.54 15.95 51.11 Z" />
<path fill="#6496ae" opacity="0.96" d=" M 33.50 56.72 C 33.17 54.71 32.87 52.69 32.45 50.70 C 33.64 52.46 34.89 54.17 36.10 55.91 C 34.66 58.93 33.29 61.98 32.08 65.10 C 31.38 66.80 30.80 68.55 30.22 70.30 C 33.47 67.30 36.17 63.77 38.67 60.14 C 43.54 62.77 48.92 64.48 54.52 63.90 C 54.78 63.93 55.29 63.98 55.55 64.00 C 55.62 65.93 55.77 67.85 56.02 69.77 C 55.53 68.89 55.04 68.02 54.53 67.15 C 52.58 69.55 50.98 72.60 47.96 73.80 C 44.83 75.06 41.54 75.90 38.41 77.17 C 37.27 76.75 36.12 76.38 34.96 76.01 C 38.85 79.25 43.27 81.77 47.15 85.02 C 47.88 85.67 48.59 86.33 49.30 87.00 C 49.21 87.85 49.04 89.54 48.96 90.39 C 44.25 86.20 38.75 83.07 33.47 79.69 C 34.11 79.77 35.40 79.94 36.04 80.02 C 31.28 76.52 26.75 71.10 20.34 71.27 L 20.42 70.67 C 20.65 69.50 20.88 68.33 21.07 67.15 C 23.66 66.22 26.60 65.61 28.50 63.46 C 30.40 61.40 31.91 59.02 33.50 56.72 Z" />
<path fill="#abbaca" opacity="0.97" d=" M 65.20 57.46 C 67.53 55.82 69.17 53.42 70.96 51.23 C 71.06 51.91 71.27 53.26 71.38 53.93 C 69.62 55.98 67.75 57.94 65.68 59.68 C 62.92 61.34 59.98 62.69 57.08 64.12 C 57.48 65.69 57.85 67.26 58.24 68.83 C 57.81 69.73 57.36 70.62 56.91 71.51 C 56.69 71.08 56.24 70.21 56.02 69.77 C 55.77 67.85 55.62 65.93 55.55 64.00 C 55.54 63.64 55.54 62.93 55.54 62.57 C 58.76 60.87 62.19 59.54 65.20 57.46 Z" />
<path fill="#a5bfd2" opacity="0.97" d=" M 32.08 65.10 C 33.85 62.59 35.81 60.24 37.75 57.87 C 42.95 60.89 48.84 62.15 54.52 63.90 C 48.92 64.48 43.54 62.77 38.67 60.14 C 36.17 63.77 33.47 67.30 30.22 70.30 C 30.80 68.55 31.38 66.80 32.08 65.10 Z" />
<path fill="#537ca7" opacity="0.93" d=" M 57.08 64.12 C 59.98 62.69 62.92 61.34 65.68 59.68 C 67.26 60.82 68.84 61.96 70.41 63.12 C 69.91 63.67 68.91 64.76 68.41 65.30 C 67.84 65.90 67.26 66.48 66.67 67.06 C 64.52 68.86 62.26 70.54 60.13 72.36 C 59.48 71.19 58.84 70.02 58.24 68.83 C 57.85 67.26 57.48 65.69 57.08 64.12 Z" />
<path fill="#344a84" opacity="0.87" d=" M 73.60 66.26 C 74.72 64.98 75.44 63.42 76.17 61.90 C 75.88 64.74 75.88 67.64 75.20 70.43 C 74.35 71.89 72.74 72.66 71.42 73.63 C 71.84 72.39 72.25 71.14 72.67 69.90 C 69.20 71.65 65.73 73.41 62.27 75.17 C 63.73 72.47 65.09 69.70 66.67 67.06 C 67.26 66.48 67.84 65.90 68.41 65.30 C 70.09 65.72 71.85 66.89 73.60 66.26 Z" />
<path fill="#7e9f90" opacity="0.94" d=" M 54.53 67.15 C 55.04 68.02 55.53 68.89 56.02 69.77 C 56.24 70.21 56.69 71.08 56.91 71.51 C 57.36 70.62 57.81 69.73 58.24 68.83 C 58.84 70.02 59.48 71.19 60.13 72.36 C 56.66 75.32 53.72 78.85 51.08 82.55 C 46.21 82.77 42.30 79.62 38.41 77.17 C 41.54 75.90 44.83 75.06 47.96 73.80 C 50.98 72.60 52.58 69.55 54.53 67.15 Z" />
<path fill="#8e8666" opacity="0.86" d=" M 66.67 67.06 C 65.09 69.70 63.73 72.47 62.27 75.17 C 65.73 73.41 69.20 71.65 72.67 69.90 C 72.25 71.14 71.84 72.39 71.42 73.63 C 68.56 75.41 65.78 77.31 62.99 79.20 C 58.28 81.54 53.82 84.33 49.30 87.00 C 48.59 86.33 47.88 85.67 47.15 85.02 C 49.07 84.24 50.99 83.44 52.91 82.65 C 52.45 82.63 51.54 82.58 51.08 82.55 C 53.72 78.85 56.66 75.32 60.13 72.36 C 62.26 70.54 64.52 68.86 66.67 67.06 Z" />
<path fill="#7c83a8" opacity="0.93" d=" M 82.42 74.78 C 83.03 72.41 83.63 70.03 84.06 67.61 C 84.23 70.66 84.20 73.72 84.19 76.78 C 83.23 77.10 82.27 77.43 81.32 77.76 C 74.06 79.74 68.37 84.93 61.83 88.39 C 62.38 86.90 62.94 85.42 63.50 83.93 C 58.69 86.72 53.86 89.46 49.01 92.16 L 48.99 91.25 L 48.96 90.39 C 52.80 87.18 57.11 84.60 61.57 82.37 C 69.12 81.24 74.48 74.08 82.42 74.78 Z" />
<path fill="#a1c7cb" opacity="1.00" d=" M 20.34 71.27 C 26.75 71.10 31.28 76.52 36.04 80.02 C 35.40 79.94 34.11 79.77 33.47 79.69 C 29.75 76.72 25.37 74.84 21.20 72.64 C 20.98 72.29 20.56 71.61 20.34 71.27 Z" />
<path fill="#8ea197" opacity="0.81" d=" M 20.42 70.67 L 20.34 71.27 C 20.56 71.61 20.98 72.29 21.20 72.64 C 22.69 75.04 24.51 77.22 26.41 79.31 C 25.96 79.91 25.50 80.50 25.05 81.10 C 21.75 79.18 18.39 77.36 15.10 75.41 L 15.11 74.67 L 15.86 74.11 C 17.40 72.99 18.95 71.88 20.42 70.67 Z" />
<path fill="#627ba7" opacity="0.80" d=" M 21.20 72.64 C 25.37 74.84 29.75 76.72 33.47 79.69 C 34.25 81.39 34.69 83.44 36.32 84.58 C 40.17 87.44 44.66 89.26 48.99 91.25 L 49.01 92.16 C 48.99 93.49 48.95 94.83 48.89 96.17 C 45.77 94.23 42.67 92.25 39.50 90.41 C 34.96 86.89 30.06 83.91 25.05 81.10 C 25.50 80.50 25.96 79.91 26.41 79.31 C 24.51 77.22 22.69 75.04 21.20 72.64 Z" />
<path fill="#dde1d6" opacity="1.00" d=" M 15.10 75.41 C 18.39 77.36 21.75 79.18 25.05 81.10 C 30.06 83.91 34.96 86.89 39.50 90.41 C 39.03 90.58 38.10 90.90 37.63 91.07 C 32.38 88.20 27.42 84.83 22.24 81.84 C 19.78 80.33 17.16 79.00 15.08 76.97 C 15.08 76.58 15.10 75.80 15.10 75.41 Z" />
<path fill="#cdccb9" opacity="0.91" d=" M 34.96 76.01 C 36.12 76.38 37.27 76.75 38.41 77.17 C 42.30 79.62 46.21 82.77 51.08 82.55 C 51.54 82.58 52.45 82.63 52.91 82.65 C 50.99 83.44 49.07 84.24 47.15 85.02 C 43.27 81.77 38.85 79.25 34.96 76.01 Z" />
<path fill="#c5cbd5" opacity="1.00" d=" M 61.83 88.39 C 68.37 84.93 74.06 79.74 81.32 77.76 C 78.81 79.73 76.44 81.88 73.98 83.91 C 65.06 87.70 57.98 94.95 48.74 97.97 C 52.43 93.94 57.19 91.17 61.83 88.39 Z" />
<path fill="#cddad9" opacity="1.00" d=" M 49.30 87.00 C 53.82 84.33 58.28 81.54 62.99 79.20 C 63.72 79.05 65.17 78.77 65.90 78.63 C 64.44 79.85 63.04 81.15 61.57 82.37 C 57.11 84.60 52.80 87.18 48.96 90.39 C 49.04 89.54 49.21 87.85 49.30 87.00 Z" />
<path fill="#3c4875" opacity="0.87" d=" M 36.32 84.58 C 34.69 83.44 34.25 81.39 33.47 79.69 C 38.75 83.07 44.25 86.20 48.96 90.39 L 48.99 91.25 C 44.66 89.26 40.17 87.44 36.32 84.58 Z" />
<path fill="#b5b9a3" opacity="0.93" d=" M 49.01 92.16 C 53.86 89.46 58.69 86.72 63.50 83.93 C 62.94 85.42 62.38 86.90 61.83 88.39 C 57.19 91.17 52.43 93.94 48.74 97.97 C 44.78 96.11 41.22 93.53 37.63 91.07 C 38.10 90.90 39.03 90.58 39.50 90.41 C 42.67 92.25 45.77 94.23 48.89 96.17 C 48.95 94.83 48.99 93.49 49.01 92.16 Z" />
</svg>
