<?xml version="1.0" encoding="UTF-8" ?>
<!DOCTYPE svg PUBLIC "-//W3C//DTD SVG 1.1//EN" "http://www.w3.org/Graphics/SVG/1.1/DTD/svg11.dtd">
<svg width="100pt" height="100pt" viewBox="0 0 100 100" version="1.1" xmlns="http://www.w3.org/2000/svg">
<path fill="#06070a" opacity="0.92" d=" M 36.87 26.18 C 45.18 24.21 53.86 24.36 62.24 25.79 C 66.85 26.57 71.78 27.45 75.48 30.52 C 77.38 32.05 78.11 34.82 76.99 37.02 C 71.75 48.25 65.18 58.83 57.75 68.73 C 55.71 71.24 53.37 74.11 49.97 74.59 C 46.12 74.04 43.44 70.78 41.01 68.02 C 34.31 59.51 27.99 50.61 23.02 40.96 C 20.99 37.42 21.40 33.21 23.38 29.76 C 23.01 37.14 26.41 43.92 29.80 50.23 C 32.09 54.39 35.54 57.70 38.69 61.20 C 40.86 64.95 42.95 68.94 46.35 71.74 C 47.62 72.83 49.80 73.68 51.03 72.08 C 59.26 64.26 65.63 54.73 71.22 44.91 C 72.91 42.09 74.32 39.13 75.65 36.13 C 74.50 35.16 73.35 34.19 72.20 33.22 C 72.85 32.81 74.14 32.00 74.78 31.59 C 63.22 25.36 49.63 25.37 36.87 26.18 Z" />
<path fill="#4b5361" opacity="1.00" d=" M 33.91 26.91 C 34.85 26.47 35.83 26.23 36.87 26.18 C 49.63 25.37 63.22 25.36 74.78 31.59 C 74.14 32.00 72.85 32.81 72.20 33.22 C 67.71 36.06 62.33 34.05 57.43 34.01 C 55.04 33.83 53.96 36.49 52.51 37.91 C 51.86 36.61 51.23 35.31 50.60 34.01 C 52.23 32.87 53.89 31.75 55.48 30.55 C 59.46 32.70 63.96 33.54 68.44 32.81 C 65.25 30.87 61.84 29.25 58.20 28.35 C 52.78 28.87 48.49 32.40 44.29 35.53 C 42.19 33.21 39.19 32.31 36.18 31.93 C 37.05 31.25 37.93 30.58 38.80 29.90 C 35.46 30.47 32.12 31.00 28.75 31.36 C 30.44 29.84 32.12 28.30 33.91 26.91 Z" />
<path fill="#333845" opacity="1.00" d=" M 23.38 29.76 C 26.61 27.99 30.31 27.41 33.91 26.91 C 32.12 28.30 30.44 29.84 28.75 31.36 C 32.12 31.00 35.46 30.47 38.80 29.90 C 37.93 30.58 37.05 31.25 36.18 31.93 C 39.19 32.31 42.19 33.21 44.29 35.53 C 44.04 36.13 43.52 37.35 43.26 37.95 C 45.20 37.00 47.13 36.04 49.07 35.08 C 49.84 36.83 50.61 38.60 51.38 40.36 C 45.63 41.81 39.44 41.05 33.98 43.69 C 34.78 45.96 35.57 48.23 36.35 50.51 C 35.95 50.76 35.15 51.25 34.75 51.50 C 36.27 54.64 37.50 57.92 38.69 61.20 C 35.54 57.70 32.09 54.39 29.80 50.23 C 26.41 43.92 23.01 37.14 23.38 29.76 Z" />
<path fill="#ffe189" opacity="1.00" d=" M 44.29 35.53 C 48.49 32.40 52.78 28.87 58.20 28.35 C 57.30 29.09 56.40 29.83 55.48 30.55 C 53.89 31.75 52.23 32.87 50.60 34.01 C 51.23 35.31 51.86 36.61 52.51 37.91 C 53.02 38.95 53.54 39.98 54.06 41.02 C 55.95 40.36 57.84 39.70 59.73 39.05 C 59.55 39.47 59.20 40.31 59.02 40.73 C 57.70 41.50 56.39 42.27 55.07 43.04 C 55.77 45.05 56.46 47.06 57.14 49.08 C 56.86 51.40 56.59 53.79 57.36 56.05 C 54.58 60.80 47.79 61.62 43.55 58.40 C 41.84 57.06 40.29 54.65 41.37 52.46 C 43.56 47.80 48.11 44.96 52.08 41.94 C 51.90 41.55 51.56 40.75 51.38 40.36 C 50.61 38.60 49.84 36.83 49.07 35.08 C 47.13 36.04 45.20 37.00 43.26 37.95 C 43.52 37.35 44.04 36.13 44.29 35.53 M 43.26 54.84 C 44.80 59.46 51.98 60.43 54.87 56.69 C 56.54 52.58 54.44 48.24 53.18 44.33 C 49.03 46.85 44.81 50.02 43.26 54.84 Z" />
<path fill="#afb9b8" opacity="1.00" d=" M 58.20 28.35 C 61.84 29.25 65.25 30.87 68.44 32.81 C 63.96 33.54 59.46 32.70 55.48 30.55 C 56.40 29.83 57.30 29.09 58.20 28.35 Z" />
<path fill="#343743" opacity="1.00" d=" M 52.51 37.91 C 53.96 36.49 55.04 33.83 57.43 34.01 C 62.33 34.05 67.71 36.06 72.20 33.22 C 73.35 34.19 74.50 35.16 75.65 36.13 C 74.32 39.13 72.91 42.09 71.22 44.91 C 66.01 47.13 63.92 52.80 59.69 56.22 C 60.75 51.61 62.54 47.18 63.30 42.50 C 61.87 41.91 60.45 41.32 59.02 40.73 C 59.20 40.31 59.55 39.47 59.73 39.05 C 57.84 39.70 55.95 40.36 54.06 41.02 C 53.54 39.98 53.02 38.95 52.51 37.91 Z" />
<path fill="#171622" opacity="1.00" d=" M 33.98 43.69 C 39.44 41.05 45.63 41.81 51.38 40.36 C 51.56 40.75 51.90 41.55 52.08 41.94 C 48.11 44.96 43.56 47.80 41.37 52.46 C 40.29 54.65 41.84 57.06 43.55 58.40 C 47.79 61.62 54.58 60.80 57.36 56.05 C 59.34 54.08 58.15 51.21 57.14 49.08 C 56.46 47.06 55.77 45.05 55.07 43.04 C 56.39 42.27 57.70 41.50 59.02 40.73 C 60.45 41.32 61.87 41.91 63.30 42.50 C 62.54 47.18 60.75 51.61 59.69 56.22 C 63.92 52.80 66.01 47.13 71.22 44.91 C 65.63 54.73 59.26 64.26 51.03 72.08 C 49.80 73.68 47.62 72.83 46.35 71.74 C 42.95 68.94 40.86 64.95 38.69 61.20 C 37.50 57.92 36.27 54.64 34.75 51.50 C 35.15 51.25 35.95 50.76 36.35 50.51 C 35.57 48.23 34.78 45.96 33.98 43.69 Z" />
<path fill="#12111d" opacity="1.00" d=" M 43.26 54.84 C 44.81 50.02 49.03 46.85 53.18 44.33 C 54.44 48.24 56.54 52.58 54.87 56.69 C 51.98 60.43 44.80 59.46 43.26 54.84 Z" />
<path fill="#57687e" opacity="1.00" d=" M 57.14 49.08 C 58.15 51.21 59.34 54.08 57.36 56.05 C 56.59 53.79 56.86 51.40 57.14 49.08 Z" />
</svg>
