<?xml version="1.0" encoding="UTF-8" ?>
<!DOCTYPE svg PUBLIC "-//W3C//DTD SVG 1.1//EN" "http://www.w3.org/Graphics/SVG/1.1/DTD/svg11.dtd">
<svg width="100pt" height="100pt" viewBox="0 0 100 100" version="1.1" xmlns="http://www.w3.org/2000/svg">
<path fill="#08023c" opacity="0.86" d=" M 48.39 0.00 L 50.49 0.00 C 56.66 4.47 63.41 8.11 69.32 12.95 L 68.45 12.94 C 61.64 9.71 56.23 3.87 48.97 1.60 C 48.54 1.83 47.70 2.29 47.27 2.52 C 45.56 3.50 43.85 4.50 42.21 5.61 C 40.31 6.85 38.43 8.14 36.52 9.36 C 29.06 13.69 21.91 18.51 14.48 22.87 C 13.36 33.88 14.19 44.96 14.04 56.00 C 14.35 62.98 13.12 70.12 14.81 76.99 C 22.19 82.15 30.17 86.44 37.76 91.29 C 41.36 93.62 44.86 96.13 48.74 97.97 C 52.95 96.97 56.48 94.38 60.05 92.06 C 64.51 89.05 69.13 86.28 73.97 83.91 C 66.51 90.16 57.66 94.37 49.76 100.00 L 48.50 100.00 C 37.18 91.90 25.05 85.03 13.25 77.66 C 12.96 59.23 12.96 40.79 13.27 22.36 C 25.07 15.05 36.87 7.74 48.39 0.00 Z" />
<path fill="#bec4b3" opacity="0.89" d=" M 48.97 1.60 C 56.23 3.87 61.64 9.71 68.45 12.94 C 67.20 12.95 65.95 12.98 64.71 13.00 C 61.52 10.72 57.71 10.07 53.90 9.86 C 50.22 9.73 49.46 5.53 49.02 2.65 L 48.97 1.60 Z" />
<path fill="#3c4875" opacity="0.87" d=" M 47.27 2.52 C 47.70 2.29 48.54 1.83 48.97 1.60 L 49.02 2.65 C 49.08 5.04 49.01 7.43 48.97 9.82 C 47.09 10.89 45.20 11.94 43.32 13.02 C 44.82 9.60 46.24 6.13 47.27 2.52 Z" />
<path fill="#737a8d" opacity="0.87" d=" M 42.21 5.61 C 43.85 4.50 45.56 3.50 47.27 2.52 C 46.24 6.13 44.82 9.60 43.32 13.02 C 45.20 11.94 47.09 10.89 48.97 9.82 C 49.91 11.53 50.89 13.22 52.03 14.79 C 52.31 15.21 52.88 16.03 53.17 16.44 C 49.61 16.55 46.16 17.56 43.09 19.35 C 41.68 19.61 40.27 19.77 38.85 19.94 C 40.55 17.98 42.29 16.06 44.09 14.20 C 41.40 15.11 38.67 15.89 35.95 16.70 C 38.17 13.08 39.69 9.05 42.21 5.61 Z" />
<path fill="#919ea0" opacity="0.89" d=" M 49.02 2.65 C 49.46 5.53 50.22 9.73 53.90 9.86 C 57.71 10.07 61.52 10.72 64.71 13.00 C 64.12 14.77 63.53 16.54 62.94 18.30 C 58.17 15.65 53.91 12.17 48.97 9.82 C 49.01 7.43 49.08 5.04 49.02 2.65 Z" />
<path fill="#cdccb9" opacity="0.91" d=" M 36.52 9.36 C 38.43 8.14 40.31 6.85 42.21 5.61 C 39.69 9.05 38.17 13.08 35.95 16.70 C 30.94 18.57 26.44 21.49 21.76 24.03 C 21.42 23.20 21.08 22.36 20.73 21.53 C 25.04 18.91 29.63 16.70 33.66 13.64 C 35.11 12.61 35.80 10.92 36.52 9.36 Z" />
<path fill="#dcdcc8" opacity="0.94" d=" M 14.48 22.87 C 21.91 18.51 29.06 13.69 36.52 9.36 C 35.80 10.92 35.11 12.61 33.66 13.64 C 29.63 16.70 25.04 18.91 20.73 21.53 C 19.17 22.45 17.62 23.37 16.07 24.28 C 15.50 33.22 16.00 42.17 15.95 51.12 C 15.74 58.56 16.08 65.99 16.47 73.42 L 15.94 74.11 L 15.30 74.68 C 15.30 57.41 14.92 40.14 14.48 22.87 Z" />
<path fill="#cdccb9" opacity="0.91" d=" M 48.97 9.82 C 53.91 12.17 58.17 15.65 62.94 18.30 C 63.83 18.79 64.73 19.26 65.64 19.74 C 70.41 22.49 74.28 28.05 80.36 27.52 C 77.40 31.11 76.65 35.93 77.67 40.40 C 79.42 47.53 78.39 54.91 78.71 62.17 L 78.66 63.10 C 78.20 56.28 78.46 49.42 77.62 42.63 C 76.56 47.72 76.64 52.94 76.33 58.12 C 76.54 53.54 76.45 48.95 76.04 44.38 C 76.28 39.67 77.06 34.84 75.94 30.19 C 74.43 27.82 71.68 26.69 69.40 25.22 C 63.60 21.76 57.96 18.04 52.03 14.79 C 50.89 13.22 49.91 11.53 48.97 9.82 Z" />
<path fill="#6f78b1" opacity="0.82" d=" M 64.71 13.00 C 65.95 12.98 67.20 12.95 68.45 12.94 L 69.32 12.95 C 72.36 15.72 75.62 18.23 78.88 20.75 C 76.48 19.93 74.09 19.10 71.69 18.29 C 71.67 19.01 71.66 19.73 71.65 20.45 C 69.64 20.23 67.63 20.04 65.64 19.74 C 64.73 19.26 63.83 18.79 62.94 18.30 C 63.53 16.54 64.12 14.77 64.71 13.00 Z" />
<path fill="#393080" opacity="1.00" d=" M 69.32 12.95 C 74.59 16.31 80.81 18.53 85.08 23.23 C 85.68 26.10 85.49 29.07 85.51 31.99 C 85.36 45.35 85.44 58.70 85.50 72.06 C 85.28 74.06 85.80 76.58 84.05 78.02 C 81.15 80.69 77.42 82.13 73.97 83.91 C 76.46 81.91 78.81 79.74 81.32 77.77 C 82.28 77.45 83.25 77.13 84.22 76.81 C 84.30 73.07 84.20 69.34 83.89 65.61 C 83.77 63.38 83.52 61.15 83.36 58.92 C 83.04 54.13 82.82 49.33 82.58 44.54 C 83.28 37.87 83.51 31.16 84.06 24.47 C 82.63 24.79 81.20 25.10 79.76 25.40 C 79.46 23.85 79.17 22.30 78.88 20.75 C 75.62 18.23 72.36 15.72 69.32 12.95 Z" />
<path fill="#acbaae" opacity="0.90" d=" M 35.95 16.70 C 38.67 15.89 41.40 15.11 44.09 14.20 C 42.29 16.06 40.55 17.98 38.85 19.94 C 40.27 19.77 41.68 19.61 43.09 19.35 C 40.32 21.12 37.65 23.04 34.87 24.79 C 31.84 26.63 28.57 28.10 25.13 28.98 C 29.60 25.47 33.97 21.80 38.17 17.96 C 31.72 20.91 24.72 23.91 20.57 29.96 C 20.09 28.93 19.61 27.90 19.12 26.87 C 16.84 34.09 17.95 41.70 18.43 49.09 C 17.60 49.76 16.78 50.44 15.95 51.12 C 16.00 42.17 15.50 33.22 16.07 24.28 C 17.62 23.37 19.17 22.45 20.73 21.53 C 21.08 22.36 21.42 23.20 21.76 24.03 C 26.44 21.49 30.94 18.57 35.95 16.70 Z" />
<path fill="#5a636e" opacity="0.85" d=" M 52.03 14.79 C 57.96 18.04 63.60 21.76 69.40 25.22 C 67.94 26.78 66.47 28.35 65.01 29.92 C 66.55 29.28 68.09 28.64 69.63 28.00 C 68.93 29.77 68.23 31.54 67.54 33.32 C 68.31 33.89 69.08 34.46 69.85 35.04 C 69.65 35.51 69.25 36.45 69.05 36.93 C 69.18 36.61 69.43 35.98 69.56 35.66 C 68.75 35.91 67.94 36.15 67.14 36.38 C 66.55 36.54 65.96 36.68 65.37 36.80 C 64.01 36.81 62.66 36.71 61.31 36.60 C 58.56 32.33 55.80 27.87 51.64 24.81 C 51.02 24.32 50.38 23.85 49.74 23.38 C 47.33 25.14 44.75 26.68 41.91 27.63 C 39.95 30.77 38.10 33.99 36.13 37.13 C 35.19 36.86 34.25 36.59 33.30 36.32 C 33.48 38.14 33.67 39.96 33.86 41.78 C 31.95 42.76 30.05 43.74 28.14 44.71 C 28.16 45.52 28.18 46.34 28.21 47.15 C 27.87 46.64 27.52 46.12 27.16 45.62 C 25.57 47.31 23.94 48.97 22.22 50.53 C 22.47 45.22 21.44 39.62 23.31 34.51 C 25.75 32.71 28.89 32.20 31.38 30.47 C 32.98 28.89 33.82 26.74 34.87 24.79 C 37.65 23.04 40.32 21.12 43.09 19.35 C 46.16 17.56 49.61 16.55 53.17 16.44 C 52.88 16.03 52.31 15.21 52.03 14.79 Z" />
<path fill="#ccdddf" opacity="1.00" d=" M 20.57 29.96 C 24.72 23.91 31.72 20.91 38.17 17.96 C 33.97 21.80 29.60 25.47 25.13 28.98 C 23.63 29.40 22.10 29.67 20.57 29.96 Z" />
<path fill="#374394" opacity="0.80" d=" M 71.69 18.29 C 74.09 19.10 76.48 19.93 78.88 20.75 C 79.17 22.30 79.46 23.85 79.76 25.40 C 81.20 25.10 82.63 24.79 84.06 24.47 C 83.51 31.16 83.28 37.87 82.58 44.54 C 80.13 49.24 79.96 54.56 80.14 59.75 C 81.21 59.47 82.28 59.20 83.36 58.92 C 83.52 61.15 83.77 63.38 83.89 65.61 C 83.53 67.53 83.10 69.42 82.77 71.34 C 82.06 68.03 80.37 65.07 78.71 62.17 C 78.39 54.91 79.42 47.53 77.67 40.40 C 76.65 35.93 77.40 31.11 80.36 27.52 C 74.28 28.05 70.41 22.49 65.64 19.74 C 67.63 20.04 69.64 20.23 71.65 20.45 C 71.66 19.73 71.67 19.01 71.69 18.29 Z" />
<path fill="#c4b495" opacity="1.00" d=" M 14.04 56.00 C 14.19 44.96 13.36 33.88 14.48 22.87 C 14.92 40.14 15.30 57.41 15.30 74.68 L 15.13 75.46 C 15.05 75.84 14.89 76.61 14.81 76.99 C 13.12 70.12 14.35 62.98 14.04 56.00 Z" />
<path fill="#75808a" opacity="0.84" d=" M 49.74 23.38 C 50.38 23.85 51.02 24.32 51.64 24.81 L 50.81 24.79 C 45.87 28.09 42.39 33.06 39.38 38.08 C 42.27 39.38 45.29 40.44 48.41 41.03 C 48.63 44.05 48.81 47.07 48.96 50.10 L 48.36 49.71 C 44.33 45.47 39.79 41.72 36.13 37.13 C 38.10 33.99 39.95 30.77 41.91 27.63 C 44.75 26.68 47.33 25.14 49.74 23.38 Z" />
<path fill="#668188" opacity="0.94" d=" M 25.13 28.98 C 28.57 28.10 31.84 26.63 34.87 24.79 C 33.82 26.74 32.98 28.89 31.38 30.47 C 28.89 32.20 25.75 32.71 23.31 34.51 C 21.44 39.62 22.47 45.22 22.22 50.53 C 22.09 54.12 21.71 57.69 21.58 61.27 C 21.19 55.81 20.50 50.37 19.61 44.97 C 19.20 46.34 18.78 47.70 18.43 49.09 C 17.95 41.70 16.84 34.09 19.12 26.87 C 19.61 27.90 20.09 28.93 20.57 29.96 C 22.10 29.67 23.63 29.40 25.13 28.98 Z" />
<path fill="#08023c" opacity="0.86" d=" M 39.38 38.08 C 42.39 33.06 45.87 28.09 50.81 24.79 C 53.97 28.93 57.19 33.02 60.17 37.29 C 57.46 37.55 53.90 36.50 52.02 39.06 C 49.45 42.29 50.22 46.71 50.09 50.54 C 50.95 50.04 51.80 49.53 52.64 49.01 C 57.71 45.90 61.59 41.31 65.37 36.80 C 65.96 36.68 66.55 36.54 67.14 36.38 C 66.20 38.17 65.26 39.95 64.30 41.72 C 64.62 41.77 65.25 41.86 65.57 41.91 C 67.78 42.98 69.94 44.16 72.06 45.39 C 71.58 46.22 71.15 47.07 70.78 47.95 L 70.21 47.63 C 68.01 46.42 65.86 44.39 63.20 44.63 C 59.58 45.79 56.79 48.58 53.94 50.98 C 57.75 49.75 61.41 48.12 64.97 46.31 C 64.42 47.54 63.85 48.76 63.28 49.98 C 64.05 50.39 64.83 50.79 65.60 51.20 C 67.59 52.21 69.57 53.27 71.55 54.31 C 68.06 56.40 63.95 57.93 61.60 61.44 C 59.84 60.09 58.12 58.68 56.27 57.44 C 54.30 56.07 52.31 54.72 50.28 53.44 C 49.87 60.35 49.83 67.29 48.94 74.16 C 48.86 73.58 48.69 72.41 48.60 71.83 C 48.27 66.75 48.54 61.65 48.27 56.57 C 48.24 55.87 48.18 54.47 48.16 53.76 C 44.15 56.40 40.27 59.34 37.26 63.11 C 37.37 62.68 37.59 61.81 37.70 61.37 C 36.12 57.74 31.79 57.02 28.60 55.41 C 29.39 54.33 30.25 53.31 31.18 52.35 C 32.38 51.71 33.61 51.11 34.83 50.52 C 34.57 49.16 34.31 47.80 34.04 46.44 C 37.84 49.00 42.08 50.84 46.58 51.71 C 43.35 48.90 40.08 45.74 35.89 44.48 C 33.06 44.44 30.68 46.37 28.26 47.61 L 28.21 47.15 C 28.18 46.34 28.16 45.52 28.14 44.71 C 30.05 43.74 31.95 42.76 33.86 41.78 C 33.67 39.96 33.48 38.14 33.30 36.32 C 37.74 41.37 42.06 46.87 48.36 49.71 L 48.96 50.10 C 48.81 47.07 48.63 44.05 48.41 41.03 C 50.33 38.55 52.49 36.26 54.82 34.16 C 53.12 32.01 51.39 29.90 49.64 27.79 C 47.09 30.35 44.71 33.11 42.98 36.30 C 46.08 35.46 48.38 33.23 49.99 30.54 C 50.59 30.99 51.78 31.89 52.38 32.34 C 50.55 34.43 48.85 36.80 46.37 38.16 C 44.09 38.76 41.69 38.13 39.38 38.08 M 33.45 55.07 C 33.97 55.04 35.02 54.99 35.54 54.96 C 36.85 55.56 38.10 56.68 39.61 56.63 C 40.54 55.86 41.40 55.00 42.23 54.12 C 42.79 54.01 43.93 53.77 44.50 53.65 C 41.27 51.05 35.89 51.59 33.45 55.07 M 54.93 53.06 C 56.57 54.23 58.04 55.85 60.02 56.39 C 62.15 56.07 64.13 55.16 66.15 54.44 C 62.93 51.72 58.76 52.03 54.93 53.06 Z" />
<path fill="#a8b5bd" opacity="0.96" d=" M 50.81 24.79 L 51.64 24.81 C 55.80 27.87 58.56 32.33 61.31 36.60 C 61.10 37.42 60.89 38.25 60.68 39.07 C 58.03 39.59 53.88 38.49 52.73 41.70 C 52.04 44.08 52.50 46.59 52.64 49.01 C 51.80 49.53 50.95 50.04 50.09 50.54 C 50.22 46.71 49.45 42.29 52.02 39.06 C 53.90 36.50 57.46 37.55 60.17 37.29 C 57.19 33.02 53.97 28.93 50.81 24.79 Z" />
<path fill="#4a538d" opacity="0.87" d=" M 65.01 29.92 C 66.47 28.35 67.94 26.78 69.40 25.22 C 71.68 26.69 74.43 27.82 75.94 30.19 C 77.06 34.84 76.28 39.67 76.04 44.38 L 75.76 43.59 C 75.61 43.17 75.31 42.32 75.16 41.90 C 72.43 41.97 69.71 41.89 66.98 41.91 C 67.68 40.25 68.36 38.59 69.05 36.93 C 69.25 36.45 69.65 35.51 69.85 35.04 C 69.08 34.46 68.31 33.89 67.54 33.32 C 68.23 31.54 68.93 29.77 69.63 28.00 C 68.09 28.64 66.55 29.28 65.01 29.92 Z" />
<path fill="#b1c0c7" opacity="0.96" d=" M 42.98 36.30 C 44.71 33.11 47.09 30.35 49.64 27.79 C 51.39 29.90 53.12 32.01 54.82 34.16 C 52.49 36.26 50.33 38.55 48.41 41.03 C 45.29 40.44 42.27 39.38 39.38 38.08 C 41.69 38.13 44.09 38.76 46.37 38.16 C 48.85 36.80 50.55 34.43 52.38 32.34 C 51.78 31.89 50.59 30.99 49.99 30.54 C 48.38 33.23 46.08 35.46 42.98 36.30 Z" />
<path fill="#cdccb9" opacity="0.91" d=" M 67.14 36.38 C 67.94 36.15 68.75 35.91 69.56 35.66 C 69.43 35.98 69.18 36.61 69.05 36.93 C 68.36 38.59 67.68 40.25 66.98 41.91 C 66.63 41.91 65.92 41.91 65.57 41.91 C 65.25 41.86 64.62 41.77 64.30 41.72 C 65.26 39.95 66.20 38.17 67.14 36.38 Z" />
<path fill="#a1b2c1" opacity="0.95" d=" M 33.30 36.32 C 34.25 36.59 35.19 36.86 36.13 37.13 C 39.79 41.72 44.33 45.47 48.36 49.71 C 42.06 46.87 37.74 41.37 33.30 36.32 Z" />
<path fill="#6a7186" opacity="0.95" d=" M 61.31 36.60 C 62.66 36.71 64.01 36.81 65.37 36.80 C 61.59 41.31 57.71 45.90 52.64 49.01 C 52.50 46.59 52.04 44.08 52.73 41.70 C 53.88 38.49 58.03 39.59 60.68 39.07 C 60.89 38.25 61.10 37.42 61.31 36.60 Z" />
<path fill="#415bae" opacity="0.93" d=" M 66.98 41.91 C 69.71 41.89 72.43 41.97 75.16 41.90 C 75.31 42.32 75.61 43.17 75.76 43.59 C 75.51 47.66 75.22 51.75 74.42 55.75 C 73.71 59.59 71.08 62.66 68.46 65.39 C 67.86 65.90 67.23 66.38 66.61 66.85 C 66.26 67.12 65.55 67.64 65.20 67.90 C 64.94 65.90 64.67 63.89 64.54 61.87 C 66.19 59.16 69.44 58.29 71.90 56.56 C 71.84 55.80 71.72 55.05 71.55 54.31 C 69.57 53.27 67.59 52.21 65.60 51.20 C 66.13 49.92 66.65 48.63 67.16 47.34 C 68.17 47.42 69.19 47.52 70.21 47.63 L 70.78 47.95 C 70.81 48.50 70.88 49.60 70.92 50.15 C 72.69 49.39 74.35 46.57 72.06 45.39 C 69.94 44.16 67.78 42.98 65.57 41.91 C 65.92 41.91 66.63 41.91 66.98 41.91 Z" />
<path fill="#dde5d7" opacity="0.95" d=" M 76.33 58.12 C 76.64 52.94 76.56 47.72 77.62 42.63 C 78.46 49.42 78.20 56.28 78.66 63.10 C 78.59 65.12 78.50 67.13 78.24 69.13 C 77.40 69.65 76.55 70.17 75.71 70.69 C 75.80 67.71 75.87 64.73 76.04 61.76 C 76.19 60.55 76.28 59.33 76.33 58.12 Z" />
<path fill="#74879a" opacity="0.81" d=" M 28.26 47.61 C 30.68 46.37 33.06 44.44 35.89 44.48 C 40.08 45.74 43.35 48.90 46.58 51.71 C 42.08 50.84 37.84 49.00 34.04 46.44 C 34.31 47.80 34.57 49.16 34.83 50.52 C 33.61 51.11 32.38 51.71 31.18 52.35 C 30.32 51.61 29.47 50.87 28.61 50.14 C 28.55 49.75 28.44 48.97 28.38 48.58 C 28.35 48.34 28.29 47.85 28.26 47.61 Z" />
<path fill="#9eb2da" opacity="0.97" d=" M 63.20 44.63 C 65.86 44.39 68.01 46.42 70.21 47.63 C 69.19 47.52 68.17 47.42 67.16 47.34 C 66.65 48.63 66.13 49.92 65.60 51.20 C 64.83 50.79 64.05 50.39 63.28 49.98 C 63.85 48.76 64.42 47.54 64.97 46.31 C 61.41 48.12 57.75 49.75 53.94 50.98 C 56.79 48.58 59.58 45.79 63.20 44.63 Z" />
<path fill="#0b2990" opacity="0.87" d=" M 75.76 43.59 L 76.04 44.38 C 76.45 48.95 76.54 53.54 76.33 58.12 C 76.28 59.33 76.19 60.55 76.04 61.76 C 75.47 63.43 74.84 65.08 74.20 66.73 C 72.27 66.35 70.35 65.91 68.46 65.39 C 71.08 62.66 73.71 59.59 74.42 55.75 C 75.22 51.75 75.51 47.66 75.76 43.59 Z" />
<path fill="#294664" opacity="0.66" d=" M 19.61 44.97 C 20.50 50.37 21.19 55.81 21.58 61.27 C 21.55 62.83 21.52 64.39 21.41 65.94 C 21.15 67.61 20.76 69.27 20.25 70.89 C 18.89 72.06 17.39 73.05 15.94 74.11 L 16.47 73.42 C 17.61 71.92 18.88 70.29 18.69 68.29 C 18.61 61.89 17.81 55.48 18.43 49.09 C 18.78 47.70 19.20 46.34 19.61 44.97 Z" />
<path fill="#5378a6" opacity="0.80" d=" M 22.22 50.53 C 23.94 48.97 25.57 47.31 27.16 45.62 C 27.52 46.12 27.87 46.64 28.21 47.15 L 28.26 47.61 C 28.29 47.85 28.35 48.34 28.38 48.58 C 28.44 48.97 28.55 49.75 28.61 50.14 C 29.47 50.87 30.32 51.61 31.18 52.35 C 30.25 53.31 29.39 54.33 28.60 55.41 C 28.42 55.77 28.06 56.49 27.88 56.85 C 28.92 57.41 29.97 57.96 31.04 58.49 C 29.81 60.38 28.70 62.41 27.01 63.94 C 25.34 65.05 23.30 65.36 21.41 65.94 C 21.52 64.39 21.55 62.83 21.58 61.27 C 21.71 57.69 22.09 54.12 22.22 50.53 Z" />
<path fill="#b4b8d4" opacity="0.97" d=" M 72.06 45.39 C 74.35 46.57 72.69 49.39 70.92 50.15 C 70.88 49.60 70.81 48.50 70.78 47.95 C 71.15 47.07 71.58 46.22 72.06 45.39 Z" />
<path fill="#0825d0" opacity="0.82" d=" M 80.14 59.75 C 79.96 54.56 80.13 49.24 82.58 44.54 C 82.82 49.33 83.04 54.13 83.36 58.92 C 82.28 59.20 81.21 59.47 80.14 59.75 Z" />
<path fill="#5788a7" opacity="0.80" d=" M 15.95 51.12 C 16.78 50.44 17.60 49.76 18.43 49.09 C 17.81 55.48 18.61 61.89 18.69 68.29 C 18.88 70.29 17.61 71.92 16.47 73.42 C 16.08 65.99 15.74 58.56 15.95 51.12 Z" />
<path fill="#9eb2da" opacity="0.97" d=" M 33.45 55.07 C 35.89 51.59 41.27 51.05 44.50 53.65 C 43.93 53.77 42.79 54.01 42.23 54.12 C 40.01 54.49 37.78 54.78 35.54 54.96 C 35.02 54.99 33.97 55.04 33.45 55.07 Z" />
<path fill="#9eb2da" opacity="0.97" d=" M 54.93 53.06 C 58.76 52.03 62.93 51.72 66.15 54.44 C 64.13 55.16 62.15 56.07 60.02 56.39 C 58.04 55.85 56.57 54.23 54.93 53.06 Z" />
<path fill="#649ab5" opacity="0.96" d=" M 35.54 54.96 C 37.78 54.78 40.01 54.49 42.23 54.12 C 41.40 55.00 40.54 55.86 39.61 56.63 C 38.10 56.68 36.85 55.56 35.54 54.96 Z" />
<path fill="#bfd2e1" opacity="1.00" d=" M 37.26 63.11 C 40.27 59.34 44.15 56.40 48.16 53.76 C 48.18 54.47 48.24 55.87 48.27 56.57 C 43.88 58.89 40.20 62.22 36.54 65.51 C 36.72 64.91 37.08 63.71 37.26 63.11 Z" />
<path fill="#aabfd0" opacity="0.98" d=" M 50.28 53.44 C 52.31 54.72 54.30 56.07 56.27 57.44 C 54.79 57.02 53.28 56.69 51.78 56.35 C 51.68 59.51 51.69 62.68 51.64 65.84 C 51.60 69.88 50.86 73.87 49.66 77.71 C 49.39 76.53 49.12 75.36 48.94 74.16 C 49.83 67.29 49.87 60.35 50.28 53.44 Z" />
<path fill="#a3b2ca" opacity="0.98" d=" M 71.55 54.31 C 71.72 55.05 71.84 55.80 71.90 56.56 C 69.44 58.29 66.19 59.16 64.54 61.87 C 63.74 63.11 62.93 64.34 62.08 65.54 C 61.91 64.18 61.73 62.81 61.60 61.44 C 63.95 57.93 68.06 56.40 71.55 54.31 Z" />
<path fill="#9eb5ce" opacity="0.95" d=" M 27.88 56.85 C 28.06 56.49 28.42 55.77 28.60 55.41 C 31.79 57.02 36.12 57.74 37.70 61.37 C 35.46 60.45 33.22 59.54 31.04 58.49 C 29.97 57.96 28.92 57.41 27.88 56.85 Z" />
<path fill="#5a7fa8" opacity="0.95" d=" M 51.78 56.35 C 53.28 56.69 54.79 57.02 56.27 57.44 C 58.12 58.68 59.84 60.09 61.60 61.44 C 61.73 62.81 61.91 64.18 62.08 65.54 C 62.93 64.34 63.74 63.11 64.54 61.87 C 64.67 63.89 64.94 65.90 65.20 67.90 C 63.40 69.27 61.66 70.70 60.00 72.24 C 58.90 71.77 57.79 71.30 56.69 70.84 C 56.95 69.04 57.23 67.24 57.47 65.44 C 55.45 66.73 53.51 68.15 51.58 69.57 C 51.62 68.33 51.64 67.09 51.64 65.84 C 51.69 62.68 51.68 59.51 51.78 56.35 Z" />
<path fill="#649ab5" opacity="0.96" d=" M 36.54 65.51 C 40.20 62.22 43.88 58.89 48.27 56.57 C 48.54 61.65 48.27 66.75 48.60 71.83 C 48.09 71.49 47.07 70.82 46.55 70.49 C 44.07 72.84 41.53 75.12 38.92 77.33 C 36.71 76.06 34.39 75.01 32.06 73.99 C 36.75 78.17 42.37 81.09 47.14 85.15 C 47.84 85.77 48.53 86.40 49.22 87.04 C 49.17 87.87 49.08 89.54 49.04 90.37 C 44.42 86.07 38.79 83.13 33.65 79.54 C 34.24 79.65 35.41 79.87 36.00 79.98 C 31.23 76.31 26.57 71.44 20.25 70.89 C 20.76 69.27 21.15 67.61 21.41 65.94 C 23.30 65.36 25.34 65.05 27.01 63.94 C 28.70 62.41 29.81 60.38 31.04 58.49 C 33.22 59.54 35.46 60.45 37.70 61.37 C 37.59 61.81 37.37 62.68 37.26 63.11 C 37.08 63.71 36.72 64.91 36.54 65.51 Z" />
<path fill="#364b84" opacity="0.87" d=" M 74.20 66.73 C 74.84 65.08 75.47 63.43 76.04 61.76 C 75.87 64.73 75.80 67.71 75.71 70.69 C 74.24 71.61 72.76 72.53 71.28 73.46 C 71.76 72.27 72.25 71.08 72.74 69.89 C 69.25 71.61 65.75 73.31 62.30 75.10 C 63.92 72.45 65.40 69.72 66.61 66.85 C 67.23 66.38 67.86 65.90 68.46 65.39 C 70.35 65.91 72.27 66.35 74.20 66.73 Z" />
<path fill="#545e93" opacity="0.69" d=" M 78.66 63.10 L 78.71 62.17 C 80.37 65.07 82.06 68.03 82.77 71.34 C 82.66 72.51 82.56 73.68 82.47 74.85 C 74.37 73.78 69.46 82.24 61.56 82.33 C 66.10 79.25 70.92 76.58 75.46 73.50 C 77.05 72.56 77.73 70.81 78.24 69.13 C 78.50 67.13 78.59 65.12 78.66 63.10 Z" />
<path fill="#759f98" opacity="0.95" d=" M 49.66 77.71 C 50.86 73.87 51.60 69.88 51.64 65.84 C 51.64 67.09 51.62 68.33 51.58 69.57 C 53.51 68.15 55.45 66.73 57.47 65.44 C 57.23 67.24 56.95 69.04 56.69 70.84 C 57.79 71.30 58.90 71.77 60.00 72.24 C 56.74 75.28 53.91 78.73 51.00 82.09 C 50.55 82.26 49.66 82.61 49.21 82.79 C 49.48 81.79 49.75 80.79 50.02 79.80 C 48.79 80.32 47.58 80.93 46.27 81.23 C 43.59 80.44 41.34 78.67 38.92 77.33 C 41.53 75.12 44.07 72.84 46.55 70.49 C 47.07 70.82 48.09 71.49 48.60 71.83 C 48.69 72.41 48.86 73.58 48.94 74.16 C 49.12 75.36 49.39 76.53 49.66 77.71 Z" />
<path fill="#7c83a7" opacity="0.93" d=" M 82.77 71.34 C 83.10 69.42 83.53 67.53 83.89 65.61 C 84.20 69.34 84.30 73.07 84.22 76.81 C 83.25 77.13 82.28 77.45 81.32 77.77 C 74.04 79.67 68.43 84.98 61.87 88.39 C 62.40 86.91 62.94 85.43 63.48 83.95 C 58.67 86.72 53.86 89.48 49.00 92.16 L 49.02 91.25 L 49.04 90.37 C 52.65 87.30 56.65 84.69 60.92 82.63 L 61.56 82.33 C 69.46 82.24 74.37 73.78 82.47 74.85 C 82.56 73.68 82.66 72.51 82.77 71.34 Z" />
<path fill="#808266" opacity="0.86" d=" M 66.61 66.85 C 65.40 69.72 63.92 72.45 62.30 75.10 C 65.75 73.31 69.25 71.61 72.74 69.89 C 72.25 71.08 71.76 72.27 71.28 73.46 C 68.08 75.47 64.93 77.59 61.73 79.62 C 57.61 82.18 53.42 84.62 49.22 87.04 C 48.53 86.40 47.84 85.77 47.14 85.15 C 49.13 84.24 51.10 83.32 53.03 82.32 C 52.53 82.26 51.51 82.15 51.00 82.09 C 53.91 78.73 56.74 75.28 60.00 72.24 C 61.66 70.70 63.40 69.27 65.20 67.90 C 65.55 67.64 66.26 67.12 66.61 66.85 Z" />
<path fill="#90a2cf" opacity="1.00" d=" M 75.71 70.69 C 76.55 70.17 77.40 69.65 78.24 69.13 C 77.73 70.81 77.05 72.56 75.46 73.50 C 70.92 76.58 66.10 79.25 61.56 82.33 L 60.92 82.63 C 61.13 81.88 61.53 80.37 61.73 79.62 C 64.93 77.59 68.08 75.47 71.28 73.46 C 72.76 72.53 74.24 71.61 75.71 70.69 Z" />
<path fill="#a1c7cb" opacity="1.00" d=" M 20.25 70.89 C 26.57 71.44 31.23 76.31 36.00 79.98 C 35.41 79.87 34.24 79.65 33.65 79.54 C 29.65 77.01 25.45 74.82 21.32 72.50 C 21.05 72.10 20.52 71.29 20.25 70.89 Z" />
<path fill="#8ea29a" opacity="0.82" d=" M 15.94 74.11 C 17.39 73.05 18.89 72.06 20.25 70.89 C 20.52 71.29 21.05 72.10 21.32 72.50 C 23.33 75.77 26.32 78.49 27.32 82.30 C 23.19 80.13 19.21 77.70 15.13 75.46 L 15.30 74.68 L 15.94 74.11 Z" />
<path fill="#627aa8" opacity="0.80" d=" M 21.32 72.50 C 25.45 74.82 29.65 77.01 33.65 79.54 C 33.89 81.00 33.87 82.77 35.18 83.76 C 39.16 87.28 44.22 89.17 49.02 91.25 L 49.00 92.16 C 48.97 93.49 48.93 94.83 48.90 96.17 C 45.70 94.23 42.52 92.27 39.44 90.17 C 35.50 87.39 31.48 84.72 27.32 82.30 C 26.32 78.49 23.33 75.77 21.32 72.50 Z" />
<path fill="#b5b9a3" opacity="0.93" d=" M 32.06 73.99 C 34.39 75.01 36.71 76.06 38.92 77.33 C 41.34 78.67 43.59 80.44 46.27 81.23 C 47.58 80.93 48.79 80.32 50.02 79.80 C 49.75 80.79 49.48 81.79 49.21 82.79 C 49.66 82.61 50.55 82.26 51.00 82.09 C 51.51 82.15 52.53 82.26 53.03 82.32 C 51.10 83.32 49.13 84.24 47.14 85.15 C 42.37 81.09 36.75 78.17 32.06 73.99 Z" />
<path fill="#dfe2d6" opacity="1.00" d=" M 15.13 75.46 C 19.21 77.70 23.19 80.13 27.32 82.30 C 31.48 84.72 35.50 87.39 39.44 90.17 C 39.02 90.45 38.18 91.01 37.76 91.29 C 30.17 86.44 22.19 82.15 14.81 76.99 C 14.89 76.61 15.05 75.84 15.13 75.46 Z" />
<path fill="#c5cbd5" opacity="1.00" d=" M 61.87 88.39 C 68.43 84.98 74.04 79.67 81.32 77.77 C 78.81 79.74 76.46 81.91 73.97 83.91 C 69.13 86.28 64.51 89.05 60.05 92.06 C 56.48 94.38 52.95 96.97 48.74 97.97 C 52.37 93.86 57.26 91.22 61.87 88.39 Z" />
<path fill="#465780" opacity="0.89" d=" M 35.18 83.76 C 33.87 82.77 33.89 81.00 33.65 79.54 C 38.79 83.13 44.42 86.07 49.04 90.37 L 49.02 91.25 C 44.22 89.17 39.16 87.28 35.18 83.76 Z" />
<path fill="#d9e4dc" opacity="1.00" d=" M 49.22 87.04 C 53.42 84.62 57.61 82.18 61.73 79.62 C 61.53 80.37 61.13 81.88 60.92 82.63 C 56.65 84.69 52.65 87.30 49.04 90.37 C 49.08 89.54 49.17 87.87 49.22 87.04 Z" />
<path fill="#b5b9a3" opacity="0.93" d=" M 49.00 92.16 C 53.86 89.48 58.67 86.72 63.48 83.95 C 62.94 85.43 62.40 86.91 61.87 88.39 C 57.26 91.22 52.37 93.86 48.74 97.97 C 44.86 96.13 41.36 93.62 37.76 91.29 C 38.18 91.01 39.02 90.45 39.44 90.17 C 42.52 92.27 45.70 94.23 48.90 96.17 C 48.93 94.83 48.97 93.49 49.00 92.16 Z" />
</svg>
