<?xml version="1.0" encoding="UTF-8" ?>
<!DOCTYPE svg PUBLIC "-//W3C//DTD SVG 1.1//EN" "http://www.w3.org/Graphics/SVG/1.1/DTD/svg11.dtd">
<svg width="100pt" height="100pt" viewBox="0 0 100 100" version="1.1" xmlns="http://www.w3.org/2000/svg">
<path fill="#04070b" opacity="1.00" d=" M 38.79 26.04 C 45.31 24.16 52.26 23.79 58.91 25.18 C 64.34 26.31 70.26 26.70 74.89 30.07 C 77.07 31.53 78.30 34.59 76.97 37.01 C 72.81 45.57 68.32 54.01 62.75 61.75 C 59.66 65.93 57.01 70.75 52.57 73.66 C 50.87 74.91 48.75 74.20 46.85 74.05 C 49.82 73.15 52.66 71.61 53.77 68.53 C 57.13 64.33 61.38 60.80 63.90 55.96 C 66.17 51.63 68.97 47.63 71.78 43.64 C 73.36 41.32 74.48 38.74 75.54 36.15 C 74.36 35.24 73.19 34.32 72.02 33.40 C 72.68 32.95 74.00 32.05 74.66 31.60 C 63.78 25.64 50.89 25.36 38.79 26.04 Z" />
<path fill="#465161" opacity="1.00" d=" M 33.81 26.81 C 35.43 26.32 37.11 26.14 38.79 26.04 C 50.89 25.36 63.78 25.64 74.66 31.60 C 74.00 32.05 72.68 32.95 72.02 33.40 C 68.00 35.63 63.21 34.39 58.84 34.62 C 57.61 32.19 55.39 30.57 53.03 29.35 C 52.86 31.25 52.77 33.17 52.63 35.08 C 52.81 39.75 46.92 39.97 43.75 38.43 C 42.28 37.24 41.97 35.16 41.13 33.54 C 39.41 33.13 37.69 32.70 35.96 32.29 C 36.52 31.49 37.08 30.69 37.65 29.89 C 34.66 30.62 31.65 31.25 28.61 31.74 C 30.21 29.97 31.89 28.24 33.81 26.81 M 56.96 29.09 C 57.98 30.40 58.95 31.78 60.23 32.86 C 62.82 33.76 65.60 32.99 68.24 32.72 C 65.10 30.01 61.00 29.15 56.96 29.09 Z" />
<path fill="#333743" opacity="1.00" d=" M 23.32 29.62 C 26.70 28.30 30.22 27.38 33.81 26.81 C 31.89 28.24 30.21 29.97 28.61 31.74 C 31.65 31.25 34.66 30.62 37.65 29.89 C 37.08 30.69 36.52 31.49 35.96 32.29 C 37.69 32.70 39.41 33.13 41.13 33.54 C 41.97 35.16 42.28 37.24 43.75 38.43 C 46.92 39.97 52.81 39.75 52.63 35.08 C 53.41 33.86 54.26 32.68 55.11 31.51 C 55.68 34.34 57.34 37.63 55.41 40.29 C 53.70 42.59 50.91 44.34 47.99 44.35 C 45.07 43.33 42.64 41.30 39.94 39.83 C 40.27 40.19 40.93 40.91 41.26 41.27 C 39.54 42.29 37.38 42.91 36.18 44.60 C 34.74 50.72 37.11 56.77 39.65 62.24 C 35.94 58.30 31.93 54.50 29.43 49.62 C 26.28 43.37 22.87 36.84 23.32 29.62 Z" />
<path fill="#afb9b8" opacity="1.00" d=" M 56.96 29.09 C 61.00 29.15 65.10 30.01 68.24 32.72 C 65.60 32.99 62.82 33.76 60.23 32.86 C 58.95 31.78 57.98 30.40 56.96 29.09 Z" />
<path fill="#040507" opacity="0.93" d=" M 21.71 36.89 C 21.29 34.34 22.51 31.96 23.32 29.62 C 22.87 36.84 26.28 43.37 29.43 49.62 C 31.93 54.50 35.94 58.30 39.65 62.24 C 41.13 65.14 42.49 68.11 44.18 70.90 C 42.17 69.23 40.36 67.34 38.79 65.26 C 33.71 58.54 28.99 51.54 24.75 44.26 C 23.46 41.94 22.11 39.55 21.71 36.89 Z" />
<path fill="#ffe894" opacity="1.00" d=" M 53.03 29.35 C 55.39 30.57 57.61 32.19 58.84 34.62 C 58.98 36.79 59.04 38.96 59.08 41.13 C 57.52 42.53 55.82 43.78 54.11 44.99 C 52.74 44.18 49.51 45.79 51.82 46.99 C 54.87 48.62 57.82 50.43 60.59 52.49 C 58.37 52.61 56.15 52.63 53.92 52.61 C 54.09 52.23 54.42 51.49 54.59 51.11 C 52.34 49.51 50.00 47.74 47.21 47.26 C 45.39 48.54 44.03 50.34 42.58 52.01 C 41.27 52.99 41.31 54.91 42.58 55.92 C 43.97 57.69 45.34 59.48 46.67 61.30 C 44.19 59.36 40.91 57.45 40.65 53.96 C 40.50 50.40 43.30 47.71 45.17 44.97 C 43.84 43.77 42.51 42.56 41.26 41.27 C 40.93 40.91 40.27 40.19 39.94 39.83 C 42.64 41.30 45.07 43.33 47.99 44.35 C 50.91 44.34 53.70 42.59 55.41 40.29 C 57.34 37.63 55.68 34.34 55.11 31.51 C 54.26 32.68 53.41 33.86 52.63 35.08 C 52.77 33.17 52.86 31.25 53.03 29.35 Z" />
<path fill="#373a46" opacity="1.00" d=" M 58.84 34.62 C 63.21 34.39 68.00 35.63 72.02 33.40 C 73.19 34.32 74.36 35.24 75.54 36.15 C 74.48 38.74 73.36 41.32 71.78 43.64 C 69.15 44.73 66.86 46.45 65.04 48.63 C 65.41 45.97 65.67 43.29 65.90 40.60 C 64.46 40.19 63.02 39.77 61.58 39.35 C 61.24 38.28 60.89 37.21 60.56 36.15 C 60.08 37.81 59.63 39.48 59.08 41.13 C 59.04 38.96 58.98 36.79 58.84 34.62 Z" />
<path fill="#222431" opacity="1.00" d=" M 60.56 36.15 C 60.89 37.21 61.24 38.28 61.58 39.35 C 63.02 39.77 64.46 40.19 65.90 40.60 C 65.67 43.29 65.41 45.97 65.04 48.63 C 66.86 46.45 69.15 44.73 71.78 43.64 C 68.97 47.63 66.17 51.63 63.90 55.96 C 61.38 60.80 57.13 64.33 53.77 68.53 C 54.25 63.20 57.11 58.64 59.83 54.20 C 57.66 54.09 55.49 53.99 53.31 53.91 C 53.47 53.58 53.77 52.93 53.92 52.61 C 56.15 52.63 58.37 52.61 60.59 52.49 C 57.82 50.43 54.87 48.62 51.82 46.99 C 52.76 46.54 53.52 45.87 54.11 44.99 C 55.82 43.78 57.52 42.53 59.08 41.13 C 59.63 39.48 60.08 37.81 60.56 36.15 Z" />
<path fill="#13121f" opacity="1.00" d=" M 36.18 44.60 C 37.38 42.91 39.54 42.29 41.26 41.27 C 42.51 42.56 43.84 43.77 45.17 44.97 C 43.30 47.71 40.50 50.40 40.65 53.96 C 40.91 57.45 44.19 59.36 46.67 61.30 C 45.34 59.48 43.97 57.69 42.58 55.92 C 43.33 54.61 43.33 53.31 42.58 52.01 C 44.03 50.34 45.39 48.54 47.21 47.26 C 50.00 47.74 52.34 49.51 54.59 51.11 C 54.42 51.49 54.09 52.23 53.92 52.61 C 53.77 52.93 53.47 53.58 53.31 53.91 C 55.49 53.99 57.66 54.09 59.83 54.20 C 57.11 58.64 54.25 63.20 53.77 68.53 C 52.66 71.61 49.82 73.15 46.85 74.05 C 45.95 73.01 44.98 72.02 44.18 70.90 C 42.49 68.11 41.13 65.14 39.65 62.24 C 37.11 56.77 34.74 50.72 36.18 44.60 Z" />
<path fill="#6b7a8a" opacity="1.00" d=" M 51.82 46.99 C 49.51 45.79 52.74 44.18 54.11 44.99 C 53.52 45.87 52.76 46.54 51.82 46.99 Z" />
<path fill="#637181" opacity="1.00" d=" M 42.58 55.92 C 41.31 54.91 41.27 52.99 42.58 52.01 C 43.33 53.31 43.33 54.61 42.58 55.92 Z" />
</svg>
