<?xml version="1.0" encoding="UTF-8" ?>
<!DOCTYPE svg PUBLIC "-//W3C//DTD SVG 1.1//EN" "http://www.w3.org/Graphics/SVG/1.1/DTD/svg11.dtd">
<svg width="100pt" height="100pt" viewBox="0 0 100 100" version="1.1" xmlns="http://www.w3.org/2000/svg">
<path fill="#393080" opacity="1.00" d=" M 48.46 0.00 L 50.44 0.00 C 61.12 7.70 72.56 14.27 83.51 21.54 C 85.83 22.86 85.36 25.72 85.50 27.96 C 85.40 40.63 85.38 53.31 85.46 65.98 C 85.43 69.59 85.76 73.27 85.04 76.84 C 83.21 79.14 80.52 80.50 78.09 82.07 C 69.72 87.04 61.71 92.61 53.08 97.14 C 59.09 91.86 66.30 88.29 72.90 83.83 C 76.89 81.02 82.01 79.24 84.41 74.69 C 84.89 69.41 83.81 64.16 83.31 58.93 C 83.01 54.13 82.88 49.32 82.56 44.53 C 83.12 37.85 83.41 31.15 84.08 24.48 C 82.63 24.81 81.18 25.14 79.73 25.47 C 79.47 23.87 79.20 22.27 78.74 20.72 C 75.68 17.70 71.98 15.43 68.20 13.42 C 61.87 9.40 56.10 4.25 49.02 1.56 C 48.60 1.81 47.76 2.33 47.34 2.59 C 45.71 3.63 44.05 4.64 42.44 5.71 C 40.49 6.99 38.54 8.24 36.55 9.46 C 31.06 12.64 25.82 16.28 20.04 18.95 C 29.01 11.90 39.27 6.75 48.46 0.00 Z" />
<path fill="#bec4b3" opacity="0.89" d=" M 49.02 1.56 C 56.10 4.25 61.87 9.40 68.20 13.42 C 67.02 13.18 65.83 12.99 64.66 12.71 C 61.54 10.98 58.13 9.90 54.53 10.02 C 50.57 10.18 49.31 5.80 49.06 2.62 L 49.02 1.56 Z" />
<path fill="#3c4875" opacity="0.87" d=" M 47.34 2.59 C 47.76 2.33 48.60 1.81 49.02 1.56 L 49.06 2.62 C 49.09 5.02 49.03 7.43 48.97 9.83 C 47.07 10.89 45.16 11.95 43.25 13.03 C 44.93 9.68 46.22 6.16 47.34 2.59 Z" />
<path fill="#737a8d" opacity="0.87" d=" M 42.44 5.71 C 44.05 4.64 45.71 3.63 47.34 2.59 C 46.22 6.16 44.93 9.68 43.25 13.03 C 45.16 11.95 47.07 10.89 48.97 9.83 C 49.93 11.53 50.83 13.26 51.99 14.84 C 52.29 15.27 52.90 16.12 53.21 16.54 C 49.61 16.40 46.16 17.48 43.11 19.36 C 41.69 19.60 40.26 19.75 38.84 19.92 C 40.50 17.94 42.24 16.02 44.07 14.18 C 41.42 15.18 38.69 15.96 35.95 16.71 C 38.16 13.07 39.85 9.10 42.44 5.71 Z" />
<path fill="#919ea0" opacity="0.89" d=" M 49.06 2.62 C 49.31 5.80 50.57 10.18 54.53 10.02 C 58.13 9.90 61.54 10.98 64.66 12.71 C 64.10 14.60 63.53 16.48 62.97 18.38 C 58.20 15.70 53.98 12.11 48.97 9.83 C 49.03 7.43 49.09 5.02 49.06 2.62 Z" />
<path fill="#cdccb9" opacity="0.91" d=" M 36.55 9.46 C 38.54 8.24 40.49 6.99 42.44 5.71 C 39.85 9.10 38.16 13.07 35.95 16.71 C 30.90 18.48 26.48 21.58 21.75 24.02 C 21.42 23.19 21.08 22.36 20.75 21.53 C 25.25 18.77 30.07 16.48 34.23 13.20 C 35.45 12.28 35.91 10.78 36.55 9.46 Z" />
<path fill="#dcdcc8" opacity="0.94" d=" M 20.04 18.95 C 25.82 16.28 31.06 12.64 36.55 9.46 C 35.91 10.78 35.45 12.28 34.23 13.20 C 30.07 16.48 25.25 18.77 20.75 21.53 C 19.19 22.46 17.63 23.37 16.07 24.29 C 15.47 33.23 16.01 42.18 15.97 51.12 C 15.71 58.53 16.13 65.92 16.40 73.31 L 15.85 73.97 L 15.28 74.57 C 15.45 57.37 14.69 40.18 14.66 22.98 C 16.41 21.58 18.21 20.24 20.04 18.95 Z" />
<path fill="#cdccb9" opacity="0.91" d=" M 48.97 9.83 C 53.98 12.11 58.20 15.70 62.97 18.38 C 63.83 18.86 64.68 19.34 65.54 19.81 C 69.80 22.63 73.85 25.74 78.21 28.42 C 77.79 32.73 77.72 37.12 76.50 41.31 L 76.32 41.94 C 76.64 37.92 76.35 33.89 76.29 29.87 C 73.16 27.30 69.68 25.22 65.98 23.59 C 65.72 27.02 65.19 30.51 65.80 33.93 C 66.57 36.47 68.39 38.52 70.23 40.35 C 68.11 39.04 65.43 37.95 64.58 35.38 C 63.27 31.77 63.92 27.85 64.31 24.13 C 64.36 23.79 64.44 23.10 64.48 22.76 C 60.84 19.36 56.32 17.20 51.99 14.84 C 50.83 13.26 49.93 11.53 48.97 9.83 Z" />
<path fill="#6f78b1" opacity="0.82" d=" M 64.66 12.71 C 65.83 12.99 67.02 13.18 68.20 13.42 C 71.98 15.43 75.68 17.70 78.74 20.72 C 76.38 19.89 74.02 19.06 71.66 18.24 C 71.65 18.96 71.64 19.69 71.64 20.41 C 69.60 20.23 67.57 20.07 65.54 19.81 C 64.68 19.34 63.83 18.86 62.97 18.38 C 63.53 16.48 64.10 14.60 64.66 12.71 Z" />
<path fill="#acbaae" opacity="0.87" d=" M 35.95 16.71 C 38.69 15.96 41.42 15.18 44.07 14.18 C 42.24 16.02 40.50 17.94 38.84 19.92 C 40.26 19.75 41.69 19.60 43.11 19.36 C 40.30 21.08 37.60 22.98 34.82 24.74 C 31.82 26.62 28.59 28.17 25.14 29.02 C 29.57 25.43 34.04 21.87 38.19 17.96 C 31.77 20.92 24.65 23.85 20.58 29.96 C 20.12 28.93 19.65 27.91 19.18 26.89 C 16.66 34.05 18.10 41.69 18.39 49.07 C 17.58 49.75 16.77 50.44 15.97 51.12 C 16.01 42.18 15.47 33.23 16.07 24.29 C 17.63 23.37 19.19 22.46 20.75 21.53 C 21.08 22.36 21.42 23.19 21.75 24.02 C 26.48 21.58 30.90 18.48 35.95 16.71 Z" />
<path fill="#5a646b" opacity="0.84" d=" M 51.99 14.84 C 56.32 17.20 60.84 19.36 64.48 22.76 C 64.44 23.10 64.36 23.79 64.31 24.13 C 62.20 25.93 59.97 28.06 57.06 28.27 C 52.96 28.62 48.88 27.82 44.83 27.30 C 46.29 27.17 47.75 26.98 49.21 26.79 C 45.86 26.02 42.50 25.29 39.15 24.54 C 40.17 31.34 40.11 38.22 39.77 45.07 C 38.83 41.88 37.83 38.72 36.72 35.59 C 36.45 35.93 35.91 36.61 35.64 36.96 C 32.27 40.92 28.92 44.92 25.18 48.55 L 24.67 49.11 C 24.82 49.59 25.13 50.53 25.28 51.01 C 24.24 51.73 23.21 52.45 22.18 53.17 C 22.46 47.62 21.80 42.03 22.65 36.53 C 22.88 32.98 27.14 32.94 29.57 31.57 C 32.60 30.61 33.48 27.25 34.82 24.74 C 37.60 22.98 40.30 21.08 43.11 19.36 C 46.16 17.48 49.61 16.40 53.21 16.54 C 52.90 16.12 52.29 15.27 51.99 14.84 Z" />
<path fill="#ccdddf" opacity="1.00" d=" M 20.58 29.96 C 24.65 23.85 31.77 20.92 38.19 17.96 C 34.04 21.87 29.57 25.43 25.14 29.02 C 23.64 29.43 22.11 29.68 20.58 29.96 Z" />
<path fill="#3c4798" opacity="0.80" d=" M 71.66 18.24 C 74.02 19.06 76.38 19.89 78.74 20.72 C 79.20 22.27 79.47 23.87 79.73 25.47 C 81.18 25.14 82.63 24.81 84.08 24.48 C 83.41 31.15 83.12 37.85 82.56 44.53 C 80.01 49.20 80.02 54.56 80.18 59.73 C 81.22 59.46 82.27 59.20 83.31 58.93 C 83.81 64.16 84.89 69.41 84.41 74.69 L 83.81 75.07 C 82.30 71.05 78.26 68.03 78.50 63.43 C 79.54 56.15 79.28 48.81 79.17 41.49 C 78.50 41.44 77.16 41.35 76.50 41.31 C 77.72 37.12 77.79 32.73 78.21 28.42 C 73.85 25.74 69.80 22.63 65.54 19.81 C 67.57 20.07 69.60 20.23 71.64 20.41 C 71.64 19.69 71.65 18.96 71.66 18.24 M 80.24 27.24 C 80.75 27.72 80.75 27.72 80.24 27.24 Z" />
<path fill="#06003f" opacity="0.87" d=" M 13.52 22.45 C 15.39 20.80 17.83 20.02 20.04 18.95 C 18.21 20.24 16.41 21.58 14.66 22.98 C 13.97 25.93 13.82 28.98 13.86 32.01 C 14.02 41.34 13.93 50.67 14.04 60.00 C 14.18 65.66 13.27 71.45 14.78 77.00 C 22.19 82.06 30.04 86.49 37.71 91.16 C 41.24 93.58 44.73 96.15 48.70 97.83 C 50.17 97.67 51.63 97.44 53.08 97.14 C 51.97 98.08 50.90 99.06 49.78 100.00 L 48.53 100.00 C 37.21 91.90 25.08 85.03 13.29 77.66 C 12.85 62.45 13.31 47.22 13.08 32.01 C 13.10 28.83 12.86 25.59 13.52 22.45 Z" />
<path fill="#c4b495" opacity="1.00" d=" M 13.86 32.01 C 13.82 28.98 13.97 25.93 14.66 22.98 C 14.69 40.18 15.45 57.37 15.28 74.57 L 15.10 75.39 C 15.02 75.79 14.86 76.60 14.78 77.00 C 13.27 71.45 14.18 65.66 14.04 60.00 C 13.93 50.67 14.02 41.34 13.86 32.01 Z" />
<path fill="#acbaae" opacity="0.87" d=" M 39.15 24.54 C 42.50 25.29 45.86 26.02 49.21 26.79 C 47.75 26.98 46.29 27.17 44.83 27.30 C 43.60 27.17 42.38 27.04 41.16 26.90 C 41.04 35.14 42.24 43.51 40.31 51.62 C 38.00 47.02 36.27 42.09 35.64 36.96 C 35.91 36.61 36.45 35.93 36.72 35.59 C 37.83 38.72 38.83 41.88 39.77 45.07 C 40.11 38.22 40.17 31.34 39.15 24.54 Z" />
<path fill="#060132" opacity="0.69" d=" M 57.06 28.27 C 59.97 28.06 62.20 25.93 64.31 24.13 C 63.92 27.85 63.27 31.77 64.58 35.38 C 65.43 37.95 68.11 39.04 70.23 40.35 C 71.10 40.84 71.98 41.31 72.86 41.78 C 71.24 42.37 69.38 43.15 67.71 42.22 C 64.21 40.51 62.62 36.67 60.44 33.67 C 60.44 36.99 60.99 40.27 62.08 43.40 C 60.95 42.99 59.82 42.58 58.67 42.24 C 58.63 41.89 58.54 41.18 58.50 40.82 C 58.42 40.29 58.27 39.23 58.19 38.69 C 57.73 39.12 56.83 39.98 56.37 40.41 C 56.33 38.60 56.20 36.79 56.13 34.98 C 56.35 33.61 56.55 32.25 56.76 30.88 C 52.37 30.24 47.97 29.72 43.56 29.28 C 43.79 31.74 43.95 34.22 44.41 36.66 C 47.45 37.33 49.00 33.41 51.11 31.80 C 52.11 32.81 53.11 33.83 54.10 34.85 C 53.34 35.75 52.57 36.66 51.81 37.57 C 51.64 36.10 51.44 34.64 51.22 33.18 C 49.05 35.49 49.19 38.56 50.18 41.37 C 49.45 41.53 48.00 41.85 47.27 42.02 C 42.08 44.13 45.41 51.68 41.72 55.37 C 39.86 53.33 38.19 51.12 36.91 48.67 C 36.38 46.95 35.78 45.25 35.16 43.57 C 33.84 49.31 35.64 54.90 38.17 60.00 C 35.40 56.74 32.64 53.18 32.29 48.73 C 32.42 48.02 32.68 46.61 32.82 45.91 C 31.55 47.32 30.25 48.70 28.96 50.09 C 30.41 54.30 31.17 58.69 31.40 63.13 C 29.50 58.20 28.30 52.92 25.18 48.55 C 28.92 44.92 32.27 40.92 35.64 36.96 C 36.27 42.09 38.00 47.02 40.31 51.62 C 42.24 43.51 41.04 35.14 41.16 26.90 C 42.38 27.04 43.60 27.17 44.83 27.30 C 48.88 27.82 52.96 28.62 57.06 28.27 M 43.96 40.61 C 45.33 40.62 46.70 40.62 48.06 40.62 C 47.63 39.76 47.17 38.90 46.68 38.07 C 44.91 37.42 44.69 39.53 43.96 40.61 Z" />
<path fill="#4b5383" opacity="0.87" d=" M 65.98 23.59 C 69.68 25.22 73.16 27.30 76.29 29.87 C 76.35 33.89 76.64 37.92 76.32 41.94 C 76.22 42.36 76.02 43.18 75.92 43.59 L 75.71 44.48 L 75.62 43.46 C 75.53 42.66 75.36 41.08 75.27 40.29 C 74.47 40.80 73.67 41.29 72.86 41.78 C 71.98 41.31 71.10 40.84 70.23 40.35 C 68.39 38.52 66.57 36.47 65.80 33.93 C 65.19 30.51 65.72 27.02 65.98 23.59 Z" />
<path fill="#668188" opacity="0.94" d=" M 25.14 29.02 C 28.59 28.17 31.82 26.62 34.82 24.74 C 33.48 27.25 32.60 30.61 29.57 31.57 C 27.14 32.94 22.88 32.98 22.65 36.53 C 21.80 42.03 22.46 47.62 22.18 53.17 C 22.07 55.55 21.86 57.93 21.65 60.30 C 21.19 55.19 20.41 50.11 19.63 45.03 C 19.20 46.37 18.76 47.71 18.39 49.07 C 18.10 41.69 16.66 34.05 19.18 26.89 C 19.65 27.91 20.12 28.93 20.58 29.96 C 22.11 29.68 23.64 29.43 25.14 29.02 Z" />
<path fill="#bec4b3" opacity="0.89" d=" M 80.24 27.24 C 80.75 27.72 80.75 27.72 80.24 27.24 Z" />
<path fill="#a2a7a2" opacity="0.88" d=" M 43.56 29.28 C 47.97 29.72 52.37 30.24 56.76 30.88 C 56.55 32.25 56.35 33.61 56.13 34.98 C 54.90 36.95 53.32 38.80 52.73 41.09 C 53.32 44.12 55.21 46.88 54.97 50.07 C 54.66 55.40 54.46 60.74 54.34 66.08 C 51.11 68.91 48.03 73.23 43.26 73.03 C 42.33 72.27 41.49 71.39 40.69 70.49 L 41.50 70.52 C 47.73 72.13 52.91 65.78 52.93 59.99 C 53.00 53.69 51.78 47.44 50.18 41.37 C 49.19 38.56 49.05 35.49 51.22 33.18 C 51.44 34.64 51.64 36.10 51.81 37.57 C 52.57 36.66 53.34 35.75 54.10 34.85 C 53.11 33.83 52.11 32.81 51.11 31.80 C 49.00 33.41 47.45 37.33 44.41 36.66 C 43.95 34.22 43.79 31.74 43.56 29.28 Z" />
<path fill="#97a2bd" opacity="0.95" d=" M 60.44 33.67 C 62.62 36.67 64.21 40.51 67.71 42.22 C 69.38 43.15 71.24 42.37 72.86 41.78 C 73.67 41.29 74.47 40.80 75.27 40.29 C 75.36 41.08 75.53 42.66 75.62 43.46 C 71.99 44.10 68.28 44.07 64.69 43.24 C 65.37 44.28 66.04 45.33 66.75 46.35 C 65.25 45.28 63.70 44.28 62.08 43.40 C 60.99 40.27 60.44 36.99 60.44 33.67 Z" />
<path fill="#576ea3" opacity="0.96" d=" M 52.73 41.09 C 53.32 38.80 54.90 36.95 56.13 34.98 C 56.20 36.79 56.33 38.60 56.37 40.41 C 56.15 42.52 55.96 44.62 55.83 46.74 C 57.08 44.95 58.23 43.04 58.50 40.82 C 58.54 41.18 58.63 41.89 58.67 42.24 C 59.04 49.56 60.49 56.94 59.44 64.26 C 59.39 62.51 59.28 60.77 59.19 59.02 C 57.86 61.56 56.42 64.07 54.34 66.08 C 54.46 60.74 54.66 55.40 54.97 50.07 C 55.21 46.88 53.32 44.12 52.73 41.09 Z" />
<path fill="#cdccb9" opacity="0.91" d=" M 43.96 40.61 C 44.69 39.53 44.91 37.42 46.68 38.07 C 47.17 38.90 47.63 39.76 48.06 40.62 C 46.70 40.62 45.33 40.62 43.96 40.61 Z" />
<path fill="#b9c4cd" opacity="0.98" d=" M 56.37 40.41 C 56.83 39.98 57.73 39.12 58.19 38.69 C 58.27 39.23 58.42 40.29 58.50 40.82 C 58.23 43.04 57.08 44.95 55.83 46.74 C 55.96 44.62 56.15 42.52 56.37 40.41 Z" />
<path fill="#859daf" opacity="0.84" d=" M 76.50 41.31 C 77.16 41.35 78.50 41.44 79.17 41.49 C 79.28 48.81 79.54 56.15 78.50 63.43 L 78.47 62.61 C 78.03 55.88 78.83 49.10 77.64 42.42 C 76.16 47.89 76.77 53.59 76.20 59.18 C 76.48 53.98 76.11 48.79 75.92 43.59 C 76.02 43.18 76.22 42.36 76.32 41.94 L 76.50 41.31 Z" />
<path fill="#acb9c7" opacity="0.98" d=" M 41.72 55.37 C 45.41 51.68 42.08 44.13 47.27 42.02 C 47.64 42.95 48.01 43.88 48.36 44.82 C 47.69 45.15 47.03 45.47 46.36 45.79 C 46.11 49.65 45.12 53.40 44.01 57.10 C 42.77 57.04 41.52 56.98 40.28 56.93 C 40.64 56.54 41.36 55.76 41.72 55.37 Z" />
<path fill="#06003f" opacity="0.87" d=" M 47.27 42.02 C 48.00 41.85 49.45 41.53 50.18 41.37 C 51.78 47.44 53.00 53.69 52.93 59.99 C 52.91 65.78 47.73 72.13 41.50 70.52 C 43.11 70.01 45.17 69.72 45.89 67.95 C 49.42 60.89 51.81 52.40 48.36 44.82 C 48.01 43.88 47.64 42.95 47.27 42.02 M 48.05 67.14 C 50.02 65.55 51.08 63.34 50.94 60.79 C 49.40 62.61 48.50 64.81 48.05 67.14 Z" />
<path fill="#06003e" opacity="0.86" d=" M 58.67 42.24 C 59.82 42.58 60.95 42.99 62.08 43.40 C 63.70 44.28 65.25 45.28 66.75 46.35 L 67.20 46.86 C 65.35 46.87 63.52 46.66 61.68 46.51 C 61.07 52.11 60.31 58.70 65.26 62.68 C 63.90 62.96 62.56 63.33 61.21 63.67 C 59.65 67.90 58.41 73.22 53.61 74.87 C 56.26 71.81 58.60 68.28 59.44 64.26 C 60.49 56.94 59.04 49.56 58.67 42.24 Z" />
<path fill="#485bac" opacity="0.95" d=" M 64.69 43.24 C 68.28 44.07 71.99 44.10 75.62 43.46 L 75.71 44.48 C 75.17 48.23 75.10 52.03 74.45 55.76 C 73.68 59.59 70.98 62.61 68.50 65.47 C 67.84 65.88 67.16 66.26 66.47 66.62 C 64.98 67.24 63.46 67.77 61.99 68.44 C 63.57 66.38 65.41 64.54 67.25 62.71 C 66.75 62.70 65.76 62.69 65.26 62.68 C 63.75 58.23 63.23 53.55 62.92 48.88 C 65.76 49.18 68.71 48.97 70.63 46.58 C 69.49 46.69 68.35 46.79 67.20 46.86 L 66.75 46.35 C 66.04 45.33 65.37 44.28 64.69 43.24 Z" />
<path fill="#bac7d4" opacity="0.97" d=" M 76.20 59.18 C 76.77 53.59 76.16 47.89 77.64 42.42 C 78.83 49.10 78.03 55.88 78.47 62.61 C 78.28 65.66 77.91 68.70 77.59 71.74 C 73.70 74.14 69.83 76.59 65.80 78.74 C 65.33 78.80 64.39 78.92 63.92 78.98 C 66.30 77.02 68.84 75.26 71.46 73.63 C 72.83 72.70 74.28 71.83 75.36 70.55 C 75.98 67.68 75.81 64.72 76.01 61.82 C 76.06 61.16 76.16 59.84 76.20 59.18 Z" />
<path fill="#a3b9ce" opacity="0.97" d=" M 35.16 43.57 C 35.78 45.25 36.38 46.95 36.91 48.67 C 36.68 55.42 40.91 61.02 42.78 67.26 C 41.97 66.80 41.15 66.34 40.34 65.88 C 39.71 63.89 39.04 61.90 38.17 60.00 C 35.64 54.90 33.84 49.31 35.16 43.57 Z" />
<path fill="#0b2990" opacity="0.87" d=" M 75.71 44.48 L 75.92 43.59 C 76.11 48.79 76.48 53.98 76.20 59.18 C 76.16 59.84 76.06 61.16 76.01 61.82 C 75.43 63.44 74.80 65.05 74.19 66.66 C 72.26 66.43 70.35 66.06 68.50 65.47 C 70.98 62.61 73.68 59.59 74.45 55.76 C 75.10 52.03 75.17 48.23 75.71 44.48 Z" />
<path fill="#294665" opacity="0.66" d=" M 19.63 45.03 C 20.41 50.11 21.19 55.19 21.65 60.30 C 21.40 64.14 20.55 67.89 20.01 71.69 C 18.61 72.43 17.21 73.17 15.85 73.97 L 16.40 73.31 C 17.41 72.08 18.54 70.75 18.47 69.05 C 18.69 62.39 17.86 55.73 18.39 49.07 C 18.76 47.71 19.20 46.37 19.63 45.03 Z" />
<path fill="#608db5" opacity="0.95" d=" M 46.36 45.79 C 47.03 45.47 47.69 45.15 48.36 44.82 C 51.81 52.40 49.42 60.89 45.89 67.95 C 45.17 69.72 43.11 70.01 41.50 70.52 L 40.69 70.49 C 40.13 69.40 39.61 68.30 39.09 67.20 C 35.78 68.96 32.31 70.44 29.23 72.61 C 31.06 73.75 32.91 74.87 34.75 75.99 C 39.13 79.32 43.47 82.77 48.42 85.21 C 48.47 85.75 48.57 86.82 48.62 87.36 C 48.69 88.06 48.84 89.47 48.91 90.17 C 44.18 86.11 38.66 83.14 33.60 79.52 C 34.23 79.62 35.49 79.83 36.12 79.94 C 31.74 76.09 26.62 73.26 21.96 69.79 C 22.40 68.89 22.79 67.96 23.19 67.04 C 24.95 66.31 26.73 65.61 28.50 64.91 C 28.80 60.02 27.37 55.37 25.28 51.01 C 25.13 50.53 24.82 49.59 24.67 49.11 L 25.18 48.55 C 28.30 52.92 29.50 58.20 31.40 63.13 C 31.62 64.15 31.84 65.17 32.05 66.20 C 32.60 66.14 33.70 66.00 34.25 65.94 C 33.72 60.19 30.90 54.55 32.29 48.73 C 32.64 53.18 35.40 56.74 38.17 60.00 C 39.04 61.90 39.71 63.89 40.34 65.88 C 41.15 66.34 41.97 66.80 42.78 67.26 C 40.91 61.02 36.68 55.42 36.91 48.67 C 38.19 51.12 39.86 53.33 41.72 55.37 C 41.36 55.76 40.64 56.54 40.28 56.93 C 41.52 56.98 42.77 57.04 44.01 57.10 C 45.12 53.40 46.11 49.65 46.36 45.79 Z" />
<path fill="#0825d0" opacity="0.82" d=" M 80.18 59.73 C 80.02 54.56 80.01 49.20 82.56 44.53 C 82.88 49.32 83.01 54.13 83.31 58.93 C 82.27 59.20 81.22 59.46 80.18 59.73 Z" />
<path fill="#a3bbce" opacity="0.93" d=" M 28.96 50.09 C 30.25 48.70 31.55 47.32 32.82 45.91 C 32.68 46.61 32.42 48.02 32.29 48.73 C 30.90 54.55 33.72 60.19 34.25 65.94 C 33.70 66.00 32.60 66.14 32.05 66.20 C 31.84 65.17 31.62 64.15 31.40 63.13 C 31.17 58.69 30.41 54.30 28.96 50.09 Z" />
<path fill="#96a5c7" opacity="0.98" d=" M 61.68 46.51 C 63.52 46.66 65.35 46.87 67.20 46.86 C 68.35 46.79 69.49 46.69 70.63 46.58 C 68.71 48.97 65.76 49.18 62.92 48.88 C 63.23 53.55 63.75 58.23 65.26 62.68 C 60.31 58.70 61.07 52.11 61.68 46.51 Z" />
<path fill="#5788a7" opacity="0.80" d=" M 15.97 51.12 C 16.77 50.44 17.58 49.75 18.39 49.07 C 17.86 55.73 18.69 62.39 18.47 69.05 C 18.54 70.75 17.41 72.08 16.40 73.31 C 16.13 65.92 15.71 58.53 15.97 51.12 Z" />
<path fill="#537bad" opacity="0.82" d=" M 25.28 51.01 C 27.37 55.37 28.80 60.02 28.50 64.91 C 26.73 65.61 24.95 66.31 23.19 67.04 C 22.79 67.96 22.40 68.89 21.96 69.79 C 21.48 70.66 20.99 71.52 20.49 72.37 L 20.01 71.69 C 20.55 67.89 21.40 64.14 21.65 60.30 C 21.86 57.93 22.07 55.55 22.18 53.17 C 23.21 52.45 24.24 51.73 25.28 51.01 Z" />
<path fill="#69a09f" opacity="0.95" d=" M 54.34 66.08 C 56.42 64.07 57.86 61.56 59.19 59.02 C 59.28 60.77 59.39 62.51 59.44 64.26 C 58.60 68.28 56.26 71.81 53.61 74.87 C 51.76 75.73 49.79 76.26 47.88 76.99 C 46.50 77.92 45.21 78.97 43.90 80.01 C 41.05 78.26 37.86 77.20 34.75 75.99 C 32.91 74.87 31.06 73.75 29.23 72.61 C 32.31 70.44 35.78 68.96 39.09 67.20 C 39.61 68.30 40.13 69.40 40.69 70.49 C 41.49 71.39 42.33 72.27 43.26 73.03 C 48.03 73.23 51.11 68.91 54.34 66.08 Z" />
<path fill="#6984a4" opacity="1.00" d=" M 48.05 67.14 C 48.50 64.81 49.40 62.61 50.94 60.79 C 51.08 63.34 50.02 65.55 48.05 67.14 Z" />
<path fill="#abc3c5" opacity="0.96" d=" M 65.26 62.68 C 65.76 62.69 66.75 62.70 67.25 62.71 C 65.41 64.54 63.57 66.38 61.99 68.44 C 59.83 71.56 57.94 74.93 55.07 77.50 C 52.68 77.29 50.28 77.11 47.88 76.99 C 49.79 76.26 51.76 75.73 53.61 74.87 C 58.41 73.22 59.65 67.90 61.21 63.67 C 62.56 63.33 63.90 62.96 65.26 62.68 Z" />
<path fill="#374c82" opacity="0.87" d=" M 74.19 66.66 C 74.80 65.05 75.43 63.44 76.01 61.82 C 75.81 64.72 75.98 67.68 75.36 70.55 C 74.28 71.83 72.83 72.70 71.46 73.63 C 71.50 72.90 71.58 71.44 71.62 70.71 C 68.59 72.15 65.55 73.57 62.69 75.33 C 64.55 72.72 65.60 69.67 66.47 66.62 C 67.16 66.26 67.84 65.88 68.50 65.47 C 70.35 66.06 72.26 66.43 74.19 66.66 Z" />
<path fill="#7178a1" opacity="0.90" d=" M 78.47 62.61 L 78.50 63.43 C 78.26 68.03 82.30 71.05 83.81 75.07 C 76.31 79.22 69.18 83.98 61.81 88.36 C 62.45 86.87 62.98 85.33 63.57 83.82 C 60.51 85.73 57.25 87.68 53.48 87.37 C 57.68 84.62 61.78 81.74 65.80 78.74 C 69.83 76.59 73.70 74.14 77.59 71.74 C 77.91 68.70 78.28 65.66 78.47 62.61 Z" />
<path fill="#5c7977" opacity="0.89" d=" M 61.99 68.44 C 63.46 67.77 64.98 67.24 66.47 66.62 C 65.60 69.67 64.55 72.72 62.69 75.33 C 60.00 77.13 57.15 78.69 54.24 80.11 C 54.51 79.23 54.79 78.37 55.07 77.50 C 57.94 74.93 59.83 71.56 61.99 68.44 Z" />
<path fill="#9fc6cc" opacity="1.00" d=" M 20.49 72.37 C 20.99 71.52 21.48 70.66 21.96 69.79 C 26.62 73.26 31.74 76.09 36.12 79.94 C 35.49 79.83 34.23 79.62 33.60 79.52 C 29.66 76.83 25.45 74.57 20.95 72.94 L 20.49 72.37 Z" />
<path fill="#8e9b84" opacity="0.91" d=" M 62.69 75.33 C 65.55 73.57 68.59 72.15 71.62 70.71 C 71.58 71.44 71.50 72.90 71.46 73.63 C 68.84 75.26 66.30 77.02 63.92 78.98 C 62.97 79.09 62.03 79.24 61.10 79.45 C 57.03 80.33 53.73 83.00 50.05 84.78 C 48.04 83.14 46.03 81.49 43.90 80.01 C 45.21 78.97 46.50 77.92 47.88 76.99 C 50.28 77.11 52.68 77.29 55.07 77.50 C 54.79 78.37 54.51 79.23 54.24 80.11 C 57.15 78.69 60.00 77.13 62.69 75.33 Z" />
<path fill="#8ea197" opacity="0.81" d=" M 15.85 73.97 C 17.21 73.17 18.61 72.43 20.01 71.69 L 20.49 72.37 L 20.95 72.94 C 22.71 75.12 24.58 77.19 26.49 79.23 C 26.01 79.86 25.53 80.49 25.04 81.12 C 21.73 79.21 18.47 77.20 15.10 75.39 L 15.28 74.57 L 15.85 73.97 Z" />
<path fill="#627ba7" opacity="0.80" d=" M 20.95 72.94 C 25.45 74.57 29.66 76.83 33.60 79.52 C 33.02 82.08 34.91 83.89 36.88 85.13 C 40.57 87.76 44.79 89.48 48.98 91.12 C 49.03 92.80 49.00 94.49 48.98 96.18 C 45.79 94.25 42.65 92.23 39.46 90.29 C 34.91 86.84 30.03 83.88 25.04 81.12 C 25.53 80.49 26.01 79.86 26.49 79.23 C 24.58 77.19 22.71 75.12 20.95 72.94 Z" />
<path fill="#dde1d6" opacity="1.00" d=" M 15.10 75.39 C 18.47 77.20 21.73 79.21 25.04 81.12 C 30.03 83.88 34.91 86.84 39.46 90.29 C 39.02 90.50 38.14 90.94 37.71 91.16 C 30.04 86.49 22.19 82.06 14.78 77.00 C 14.86 76.60 15.02 75.79 15.10 75.39 Z" />
<path fill="#c0c6d2" opacity="1.00" d=" M 83.81 75.07 L 84.41 74.69 C 82.01 79.24 76.89 81.02 72.90 83.83 C 66.30 88.29 59.09 91.86 53.08 97.14 C 51.63 97.44 50.17 97.67 48.70 97.83 C 52.40 93.81 57.30 91.31 61.81 88.36 C 69.18 83.98 76.31 79.22 83.81 75.07 Z" />
<path fill="#b3baa5" opacity="0.94" d=" M 34.75 75.99 C 37.86 77.20 41.05 78.26 43.90 80.01 C 46.03 81.49 48.04 83.14 50.05 84.78 C 49.64 84.89 48.83 85.10 48.42 85.21 C 43.47 82.77 39.13 79.32 34.75 75.99 Z" />
<path fill="#06003f" opacity="0.87" d=" M 50.05 84.78 C 53.73 83.00 57.03 80.33 61.10 79.45 C 56.88 82.00 52.83 84.81 48.62 87.36 C 48.57 86.82 48.47 85.75 48.42 85.21 C 48.83 85.10 49.64 84.89 50.05 84.78 Z" />
<path fill="#cbd8d6" opacity="1.00" d=" M 61.10 79.45 C 62.03 79.24 62.97 79.09 63.92 78.98 C 64.39 78.92 65.33 78.80 65.80 78.74 C 61.78 81.74 57.68 84.62 53.48 87.37 C 51.97 88.33 50.44 89.25 48.91 90.17 C 48.84 89.47 48.69 88.06 48.62 87.36 C 52.83 84.81 56.88 82.00 61.10 79.45 Z" />
<path fill="#465680" opacity="0.89" d=" M 36.88 85.13 C 34.91 83.89 33.02 82.08 33.60 79.52 C 38.66 83.14 44.18 86.11 48.91 90.17 L 48.98 91.12 C 44.79 89.48 40.57 87.76 36.88 85.13 Z" />
<path fill="#b2b5a3" opacity="0.93" d=" M 53.48 87.37 C 57.25 87.68 60.51 85.73 63.57 83.82 C 62.98 85.33 62.45 86.87 61.81 88.36 C 57.30 91.31 52.40 93.81 48.70 97.83 C 44.73 96.15 41.24 93.58 37.71 91.16 C 38.14 90.94 39.02 90.50 39.46 90.29 C 42.65 92.23 45.79 94.25 48.98 96.18 C 49.00 94.49 49.03 92.80 48.98 91.12 L 48.91 90.17 C 50.44 89.25 51.97 88.33 53.48 87.37 Z" />
</svg>
