<?xml version="1.0" encoding="UTF-8" ?>
<!DOCTYPE svg PUBLIC "-//W3C//DTD SVG 1.1//EN" "http://www.w3.org/Graphics/SVG/1.1/DTD/svg11.dtd">
<svg width="100pt" height="100pt" viewBox="0 0 100 100" version="1.1" xmlns="http://www.w3.org/2000/svg">
<path fill="#0a0441" opacity="0.87" d=" M 48.40 0.00 L 50.49 0.00 C 56.63 4.52 63.42 8.08 69.30 12.96 L 68.43 12.95 C 61.65 9.69 56.23 3.92 48.99 1.59 C 48.57 1.83 47.71 2.29 47.29 2.53 C 45.58 3.52 43.86 4.49 42.21 5.59 C 40.31 6.84 38.42 8.10 36.59 9.45 C 29.03 13.60 21.94 18.53 14.49 22.87 C 13.30 35.21 14.28 47.63 14.05 60.00 C 14.25 65.65 13.11 71.52 15.00 76.98 C 22.17 82.24 30.10 86.46 37.69 91.12 C 41.26 93.56 44.80 96.11 48.74 97.96 C 52.95 96.97 56.48 94.37 60.05 92.05 C 64.51 89.05 69.13 86.26 73.97 83.90 C 66.52 90.16 57.64 94.33 49.77 100.00 L 48.51 100.00 C 37.21 91.88 25.06 85.03 13.28 77.65 C 13.00 59.23 13.01 40.79 13.29 22.36 C 25.08 15.05 36.89 7.75 48.40 0.00 Z" />
<path fill="#bec4b3" opacity="0.89" d=" M 48.99 1.59 C 56.23 3.92 61.65 9.69 68.43 12.95 C 67.19 12.97 65.95 13.00 64.70 13.03 C 61.55 10.65 57.72 10.05 53.89 9.89 C 50.24 9.72 49.44 5.54 49.04 2.65 L 48.99 1.59 Z" />
<path fill="#3c4875" opacity="0.87" d=" M 47.29 2.53 C 47.71 2.29 48.57 1.83 48.99 1.59 L 49.04 2.65 C 49.08 5.05 49.01 7.45 48.90 9.85 C 47.04 10.90 45.17 11.96 43.31 13.03 C 44.82 9.60 46.26 6.14 47.29 2.53 Z" />
<path fill="#737a8d" opacity="0.87" d=" M 42.21 5.59 C 43.86 4.49 45.58 3.52 47.29 2.53 C 46.26 6.14 44.82 9.60 43.31 13.03 C 45.17 11.96 47.04 10.90 48.90 9.85 C 50.10 12.32 51.75 14.59 54.15 16.00 C 50.22 16.10 46.52 17.55 43.09 19.36 C 41.69 19.61 40.28 19.77 38.87 19.94 C 40.55 17.97 42.30 16.05 44.09 14.18 C 41.42 15.12 38.69 15.91 35.96 16.70 C 38.18 13.07 39.70 9.05 42.21 5.59 Z" />
<path fill="#919ea0" opacity="0.89" d=" M 49.04 2.65 C 49.44 5.54 50.24 9.72 53.89 9.89 C 57.72 10.05 61.55 10.65 64.70 13.03 C 64.12 14.79 63.54 16.55 62.94 18.31 C 58.14 15.69 53.93 12.07 48.90 9.85 C 49.01 7.45 49.08 5.05 49.04 2.65 Z" />
<path fill="#cdccb9" opacity="0.91" d=" M 36.59 9.45 C 38.42 8.10 40.31 6.84 42.21 5.59 C 39.70 9.05 38.18 13.07 35.96 16.70 C 30.91 18.53 26.42 21.53 21.73 24.09 C 21.40 23.23 21.07 22.37 20.75 21.50 C 26.18 17.78 33.62 15.85 36.59 9.45 Z" />
<path fill="#dcdcc8" opacity="0.94" d=" M 14.49 22.87 C 21.94 18.53 29.03 13.60 36.59 9.45 C 33.62 15.85 26.18 17.78 20.75 21.50 C 19.19 22.43 17.63 23.36 16.06 24.28 C 15.50 33.22 16.01 42.17 15.95 51.11 C 15.72 58.52 16.19 65.92 16.38 73.33 L 15.82 74.00 L 15.07 74.50 C 15.59 57.29 14.78 40.07 14.49 22.87 Z" />
<path fill="#cdccb9" opacity="0.91" d=" M 48.90 9.85 C 53.93 12.07 58.14 15.69 62.94 18.31 C 63.83 18.79 64.73 19.26 65.63 19.72 C 70.44 22.43 74.31 28.21 80.42 27.48 C 77.35 31.03 76.66 35.95 77.71 40.43 C 79.39 47.56 78.52 54.93 78.62 62.17 L 78.59 63.08 C 78.21 56.27 78.50 49.42 77.61 42.65 C 76.67 47.78 76.55 53.00 76.38 58.20 C 76.43 54.71 76.20 51.23 76.13 47.74 C 76.18 45.39 76.23 43.03 76.31 40.67 C 76.37 37.17 76.76 33.61 76.01 30.16 C 74.35 27.89 71.71 26.67 69.39 25.21 C 64.26 22.22 59.36 18.86 54.15 16.00 C 51.75 14.59 50.10 12.32 48.90 9.85 Z" />
<path fill="#6f78b1" opacity="0.82" d=" M 64.70 13.03 C 65.95 13.00 67.19 12.97 68.43 12.95 L 69.30 12.96 C 72.37 15.79 75.71 18.29 79.05 20.79 C 76.58 19.94 74.10 19.11 71.63 18.27 C 71.65 19.00 71.68 19.73 71.71 20.46 C 69.68 20.23 67.65 20.03 65.63 19.72 C 64.73 19.26 63.83 18.79 62.94 18.31 C 63.54 16.55 64.12 14.79 64.70 13.03 Z" />
<path fill="#393080" opacity="1.00" d=" M 69.30 12.96 C 74.25 15.93 79.61 18.31 84.05 22.04 C 85.91 23.41 85.27 25.98 85.51 27.96 C 85.38 42.66 85.41 57.36 85.50 72.06 C 85.27 74.06 85.80 76.58 84.05 78.02 C 81.16 80.69 77.43 82.13 73.97 83.90 C 76.46 81.91 78.81 79.74 81.31 77.77 C 82.28 77.45 83.25 77.15 84.22 76.85 C 84.31 73.10 84.22 69.35 83.90 65.61 C 83.77 63.37 83.52 61.15 83.34 58.91 C 83.03 54.13 82.83 49.33 82.59 44.54 C 83.28 37.91 83.50 31.25 84.07 24.61 C 82.44 24.76 80.81 24.90 79.18 25.02 C 79.14 23.61 79.10 22.20 79.05 20.79 C 75.71 18.29 72.37 15.79 69.30 12.96 Z" />
<path fill="#acbaae" opacity="0.90" d=" M 35.96 16.70 C 38.69 15.91 41.42 15.12 44.09 14.18 C 42.30 16.05 40.55 17.97 38.87 19.94 C 40.28 19.77 41.69 19.61 43.09 19.36 C 40.30 21.11 37.63 23.03 34.85 24.78 C 31.83 26.63 28.57 28.12 25.13 28.99 C 29.57 25.44 33.97 21.82 38.16 17.97 C 31.73 20.92 24.69 23.89 20.57 29.96 C 20.10 28.93 19.63 27.90 19.16 26.88 C 16.77 34.07 17.98 41.71 18.45 49.09 C 17.62 49.76 16.79 50.44 15.95 51.11 C 16.01 42.17 15.50 33.22 16.06 24.28 C 17.63 23.36 19.19 22.43 20.75 21.50 C 21.07 22.37 21.40 23.23 21.73 24.09 C 26.42 21.53 30.91 18.53 35.96 16.70 Z" />
<path fill="#5b6570" opacity="0.85" d=" M 43.09 19.36 C 46.52 17.55 50.22 16.10 54.15 16.00 C 59.36 18.86 64.26 22.22 69.39 25.21 C 67.58 27.06 65.78 28.92 63.98 30.78 C 65.45 30.35 66.92 29.92 68.40 29.49 C 67.51 30.81 66.62 32.14 65.73 33.46 C 59.11 29.87 51.41 30.40 44.15 29.79 C 44.25 27.74 44.34 25.68 44.41 23.63 C 43.94 23.94 43.02 24.56 42.55 24.87 C 39.71 27.12 39.34 30.88 38.93 34.22 C 37.34 34.15 35.75 34.09 34.17 34.02 C 35.28 35.36 36.44 36.67 37.35 38.17 C 37.16 41.22 34.35 43.25 32.36 45.29 C 31.56 45.82 30.77 46.37 29.99 46.92 C 27.22 48.99 24.72 51.39 22.01 53.52 C 22.56 47.21 21.25 40.60 23.29 34.49 C 25.68 32.61 28.90 32.23 31.39 30.48 C 32.97 28.88 33.81 26.74 34.85 24.78 C 37.63 23.03 40.30 21.11 43.09 19.36 Z" />
<path fill="#ccdddf" opacity="1.00" d=" M 20.57 29.96 C 24.69 23.89 31.73 20.92 38.16 17.97 C 33.97 21.82 29.57 25.44 25.13 28.99 C 23.63 29.41 22.10 29.68 20.57 29.96 Z" />
<path fill="#374394" opacity="0.80" d=" M 71.63 18.27 C 74.10 19.11 76.58 19.94 79.05 20.79 C 79.10 22.20 79.14 23.61 79.18 25.02 C 80.81 24.90 82.44 24.76 84.07 24.61 C 83.50 31.25 83.28 37.91 82.59 44.54 C 80.06 49.22 79.99 54.58 80.16 59.76 C 81.22 59.48 82.28 59.19 83.34 58.91 C 83.52 61.15 83.77 63.37 83.90 65.61 C 83.53 67.53 83.06 69.43 82.71 71.35 C 82.10 68.01 80.55 64.94 78.62 62.17 C 78.52 54.93 79.39 47.56 77.71 40.43 C 76.66 35.95 77.35 31.03 80.42 27.48 C 74.31 28.21 70.44 22.43 65.63 19.72 C 67.65 20.03 69.68 20.23 71.71 20.46 C 71.68 19.73 71.65 19.00 71.63 18.27 Z" />
<path fill="#c4b495" opacity="1.00" d=" M 14.05 60.00 C 14.28 47.63 13.30 35.21 14.49 22.87 C 14.78 40.07 15.59 57.29 15.07 74.50 L 15.05 75.29 C 15.04 75.71 15.01 76.56 15.00 76.98 C 13.11 71.52 14.25 65.65 14.05 60.00 Z" />
<path fill="#cdccb9" opacity="0.91" d=" M 42.55 24.87 C 43.02 24.56 43.94 23.94 44.41 23.63 C 44.34 25.68 44.25 27.74 44.15 29.79 C 51.41 30.40 59.11 29.87 65.73 33.46 C 67.97 35.01 70.04 36.79 72.13 38.53 C 69.30 37.97 66.47 37.37 63.64 36.81 C 65.25 39.64 67.01 42.37 68.60 45.21 C 71.47 50.78 71.13 57.24 70.40 63.27 C 69.81 64.21 69.20 65.14 68.57 66.05 C 66.42 69.11 63.37 71.35 60.17 73.22 C 56.90 73.47 53.63 73.53 50.36 73.74 C 47.39 72.44 43.98 71.23 42.33 68.21 C 48.49 72.02 56.86 73.47 63.16 69.16 C 70.22 63.84 71.05 53.26 67.23 45.75 C 65.66 42.76 63.76 39.96 61.82 37.21 C 62.93 36.59 64.05 35.96 65.17 35.33 C 64.08 34.89 63.00 34.45 61.90 34.04 C 62.51 33.99 63.72 33.88 64.33 33.83 C 57.29 30.25 49.22 31.88 41.66 31.71 C 41.94 29.43 42.23 27.15 42.55 24.87 Z" />
<path fill="#668188" opacity="0.94" d=" M 25.13 28.99 C 28.57 28.12 31.83 26.63 34.85 24.78 C 33.81 26.74 32.97 28.88 31.39 30.48 C 28.90 32.23 25.68 32.61 23.29 34.49 C 21.25 40.60 22.56 47.21 22.01 53.52 C 21.89 55.43 21.71 57.34 21.61 59.26 C 21.10 54.47 20.41 49.71 19.58 44.97 C 19.18 46.34 18.78 47.71 18.45 49.09 C 17.98 41.71 16.77 34.07 19.16 26.88 C 19.63 27.90 20.10 28.93 20.57 29.96 C 22.10 29.68 23.63 29.41 25.13 28.99 Z" />
<path fill="#07002a" opacity="0.58" d=" M 38.93 34.22 C 39.34 30.88 39.71 27.12 42.55 24.87 C 42.23 27.15 41.94 29.43 41.66 31.71 C 49.22 31.88 57.29 30.25 64.33 33.83 C 63.72 33.88 62.51 33.99 61.90 34.04 C 58.79 33.61 55.66 33.26 52.52 33.10 C 55.49 34.73 58.64 36.02 61.82 37.21 C 63.76 39.96 65.66 42.76 67.23 45.75 C 66.08 45.58 64.92 45.42 63.77 45.25 C 62.06 42.51 60.02 40.01 57.99 37.52 C 57.67 38.14 57.03 39.39 56.71 40.01 L 56.45 39.48 C 55.80 38.36 55.10 37.27 54.35 36.22 C 50.79 32.88 45.76 33.11 41.24 33.24 C 40.76 36.13 40.30 39.01 39.90 41.90 C 41.09 42.05 42.28 42.21 43.47 42.36 L 44.00 42.96 L 44.48 43.49 C 38.10 43.52 31.72 46.31 28.58 52.09 C 29.03 50.36 29.50 48.64 29.99 46.92 C 30.77 46.37 31.56 45.82 32.36 45.29 C 34.14 44.08 36.11 43.08 37.57 41.48 C 38.49 39.17 38.60 36.65 38.93 34.22 Z" />
<path fill="#4b5489" opacity="0.87" d=" M 63.98 30.78 C 65.78 28.92 67.58 27.06 69.39 25.21 C 71.71 26.67 74.35 27.89 76.01 30.16 C 76.76 33.61 76.37 37.17 76.31 40.67 C 73.67 42.07 71.11 43.59 68.60 45.21 C 67.01 42.37 65.25 39.64 63.64 36.81 C 66.47 37.37 69.30 37.97 72.13 38.53 C 70.04 36.79 67.97 35.01 65.73 33.46 C 66.62 32.14 67.51 30.81 68.40 29.49 C 66.92 29.92 65.45 30.35 63.98 30.78 Z" />
<path fill="#cdccb9" opacity="0.91" d=" M 41.24 33.24 C 45.76 33.11 50.79 32.88 54.35 36.22 C 50.55 35.64 46.76 35.08 42.94 34.66 C 42.62 36.68 42.30 38.70 41.99 40.73 C 43.35 40.99 44.71 41.25 46.08 41.51 C 45.42 41.72 44.12 42.15 43.47 42.36 C 42.28 42.21 41.09 42.05 39.90 41.90 C 40.30 39.01 40.76 36.13 41.24 33.24 Z" />
<path fill="#a5b2bf" opacity="0.95" d=" M 52.52 33.10 C 55.66 33.26 58.79 33.61 61.90 34.04 C 63.00 34.45 64.08 34.89 65.17 35.33 C 64.05 35.96 62.93 36.59 61.82 37.21 C 58.64 36.02 55.49 34.73 52.52 33.10 Z" />
<path fill="#cdccb9" opacity="0.91" d=" M 34.17 34.02 C 35.75 34.09 37.34 34.15 38.93 34.22 C 38.60 36.65 38.49 39.17 37.57 41.48 C 36.11 43.08 34.14 44.08 32.36 45.29 C 34.35 43.25 37.16 41.22 37.35 38.17 C 36.44 36.67 35.28 35.36 34.17 34.02 Z" />
<path fill="#76818e" opacity="0.84" d=" M 42.94 34.66 C 46.76 35.08 50.55 35.64 54.35 36.22 C 55.10 37.27 55.80 38.36 56.45 39.48 C 54.95 40.70 53.62 42.26 51.77 42.95 C 49.20 43.40 46.58 43.09 44.00 42.96 L 43.47 42.36 C 44.12 42.15 45.42 41.72 46.08 41.51 C 44.71 41.25 43.35 40.99 41.99 40.73 C 42.30 38.70 42.62 36.68 42.94 34.66 Z" />
<path fill="#9192c2" opacity="0.97" d=" M 56.71 40.01 C 57.03 39.39 57.67 38.14 57.99 37.52 C 60.02 40.01 62.06 42.51 63.77 45.25 C 66.46 50.11 67.59 55.91 65.63 61.25 C 64.66 57.97 64.11 54.52 62.54 51.45 C 60.67 48.26 57.30 46.45 54.36 44.41 C 55.16 42.95 55.97 41.50 56.71 40.01 M 60.27 42.76 C 59.86 43.86 59.46 44.95 59.06 46.05 C 60.80 47.40 62.57 48.74 64.38 50.01 C 63.40 47.39 61.99 44.96 60.27 42.76 Z" />
<path fill="#0a0441" opacity="0.87" d=" M 51.77 42.95 C 53.62 42.26 54.95 40.70 56.45 39.48 L 56.71 40.01 C 55.97 41.50 55.16 42.95 54.36 44.41 C 57.30 46.45 60.67 48.26 62.54 51.45 C 64.11 54.52 64.66 57.97 65.63 61.25 C 67.59 55.91 66.46 50.11 63.77 45.25 C 64.92 45.42 66.08 45.58 67.23 45.75 C 71.05 53.26 70.22 63.84 63.16 69.16 C 56.86 73.47 48.49 72.02 42.33 68.21 C 41.93 67.26 41.55 66.30 41.18 65.34 C 40.83 64.46 40.47 63.59 40.12 62.71 C 36.79 62.70 33.46 62.64 30.15 62.98 L 29.12 63.06 C 33.94 57.56 39.78 52.87 43.19 46.27 C 43.52 46.24 44.17 46.17 44.50 46.14 C 42.96 50.83 42.13 55.73 42.29 60.68 C 42.89 60.74 44.10 60.87 44.71 60.93 C 46.84 61.15 48.98 61.34 51.12 61.54 C 49.33 61.99 47.55 62.43 45.75 62.83 C 45.17 62.95 44.01 63.19 43.43 63.31 C 44.76 65.36 45.72 68.13 48.26 68.97 C 51.59 70.21 55.19 69.23 58.28 67.77 C 62.60 64.64 63.59 57.85 60.42 53.57 C 56.82 48.07 50.71 44.98 44.48 43.49 L 44.00 42.96 C 46.58 43.09 49.20 43.40 51.77 42.95 M 33.99 60.91 C 35.98 60.86 37.96 60.79 39.95 60.72 C 39.76 59.27 39.56 57.82 39.36 56.37 C 37.56 57.87 35.77 59.38 33.99 60.91 Z" />
<path fill="#4051ac" opacity="0.87" d=" M 68.60 45.21 C 71.11 43.59 73.67 42.07 76.31 40.67 C 76.23 43.03 76.18 45.39 76.13 47.74 C 75.59 53.33 73.90 58.81 70.40 63.27 C 71.13 57.24 71.47 50.78 68.60 45.21 Z" />
<path fill="#5e6891" opacity="0.95" d=" M 60.27 42.76 C 61.99 44.96 63.40 47.39 64.38 50.01 C 62.57 48.74 60.80 47.40 59.06 46.05 C 59.46 44.95 59.86 43.86 60.27 42.76 Z" />
<path fill="#dde5d7" opacity="0.95" d=" M 76.38 58.20 C 76.55 53.00 76.67 47.78 77.61 42.65 C 78.50 49.42 78.21 56.27 78.59 63.08 C 78.53 65.09 78.42 67.10 78.24 69.10 C 77.40 69.64 76.56 70.19 75.72 70.74 C 75.82 68.11 75.93 65.48 76.12 62.85 C 76.24 61.30 76.33 59.75 76.38 58.20 Z" />
<path fill="#cdccb9" opacity="0.91" d=" M 28.58 52.09 C 31.72 46.31 38.10 43.52 44.48 43.49 C 50.71 44.98 56.82 48.07 60.42 53.57 C 56.42 50.11 51.76 47.55 46.93 45.47 C 44.91 50.36 43.49 55.65 44.71 60.93 C 44.10 60.87 42.89 60.74 42.29 60.68 C 42.13 55.73 42.96 50.83 44.50 46.14 C 44.17 46.17 43.52 46.24 43.19 46.27 C 40.44 46.51 37.34 46.18 35.02 47.98 C 32.33 49.96 30.20 52.55 27.86 54.90 C 28.09 53.96 28.33 53.03 28.58 52.09 Z" />
<path fill="#294365" opacity="0.66" d=" M 19.58 44.97 C 20.41 49.71 21.10 54.47 21.61 59.26 C 21.53 61.91 21.45 64.57 21.14 67.20 C 20.96 68.48 20.72 69.76 20.48 71.03 C 18.94 72.04 17.37 73.01 15.82 74.00 L 16.38 73.33 C 17.28 72.25 18.17 71.16 19.04 70.06 C 17.51 63.17 18.21 56.07 18.45 49.09 C 18.78 47.71 19.18 46.34 19.58 44.97 Z" />
<path fill="#0825d0" opacity="0.82" d=" M 80.16 59.76 C 79.99 54.58 80.06 49.22 82.59 44.54 C 82.83 49.33 83.03 54.13 83.34 58.91 C 82.28 59.19 81.22 59.48 80.16 59.76 Z" />
<path fill="#587aa5" opacity="0.84" d=" M 35.02 47.98 C 37.34 46.18 40.44 46.51 43.19 46.27 C 39.78 52.87 33.94 57.56 29.12 63.06 L 30.15 62.98 C 29.51 63.38 28.22 64.19 27.57 64.59 C 25.50 65.63 23.31 66.38 21.14 67.20 C 21.45 64.57 21.53 61.91 21.61 59.26 C 21.71 57.34 21.89 55.43 22.01 53.52 C 24.72 51.39 27.22 48.99 29.99 46.92 C 29.50 48.64 29.03 50.36 28.58 52.09 C 28.33 53.03 28.09 53.96 27.86 54.90 C 30.20 52.55 32.33 49.96 35.02 47.98 Z" />
<path fill="#5f76a9" opacity="0.96" d=" M 44.71 60.93 C 43.49 55.65 44.91 50.36 46.93 45.47 C 51.76 47.55 56.42 50.11 60.42 53.57 C 63.59 57.85 62.60 64.64 58.28 67.77 C 53.84 68.29 48.57 68.94 45.64 64.78 C 49.77 64.33 53.91 63.82 57.91 62.64 C 53.90 61.62 49.75 62.10 45.75 62.83 C 47.55 62.43 49.33 61.99 51.12 61.54 C 48.98 61.34 46.84 61.15 44.71 60.93 Z" />
<path fill="#0b298d" opacity="0.87" d=" M 70.40 63.27 C 73.90 58.81 75.59 53.33 76.13 47.74 C 76.20 51.23 76.43 54.71 76.38 58.20 C 76.33 59.75 76.24 61.30 76.12 62.85 C 75.36 64.33 74.62 65.85 73.51 67.11 C 71.82 67.02 70.20 66.48 68.57 66.05 C 69.20 65.14 69.81 64.21 70.40 63.27 Z" />
<path fill="#5888a7" opacity="0.80" d=" M 15.95 51.11 C 16.79 50.44 17.62 49.76 18.45 49.09 C 18.21 56.07 17.51 63.17 19.04 70.06 C 18.17 71.16 17.28 72.25 16.38 73.33 C 16.19 65.92 15.72 58.52 15.95 51.11 Z" />
<path fill="#91abca" opacity="1.00" d=" M 33.99 60.91 C 35.77 59.38 37.56 57.87 39.36 56.37 C 39.56 57.82 39.76 59.27 39.95 60.72 C 37.96 60.79 35.98 60.86 33.99 60.91 Z" />
<path fill="#9bbbcc" opacity="0.98" d=" M 45.75 62.83 C 49.75 62.10 53.90 61.62 57.91 62.64 C 53.91 63.82 49.77 64.33 45.64 64.78 C 48.57 68.94 53.84 68.29 58.28 67.77 C 55.19 69.23 51.59 70.21 48.26 68.97 C 45.72 68.13 44.76 65.36 43.43 63.31 C 44.01 63.19 45.17 62.95 45.75 62.83 Z" />
<path fill="#b3d0dd" opacity="0.97" d=" M 30.15 62.98 C 33.46 62.64 36.79 62.70 40.12 62.71 C 40.47 63.59 40.83 64.46 41.18 65.34 C 36.74 64.01 32.11 64.85 27.57 64.59 C 28.22 64.19 29.51 63.38 30.15 62.98 Z" />
<path fill="#3e5580" opacity="0.87" d=" M 73.51 67.11 C 74.62 65.85 75.36 64.33 76.12 62.85 C 75.93 65.48 75.82 68.11 75.72 70.74 C 71.09 73.90 66.37 77.04 61.01 78.81 C 64.39 76.83 67.49 74.42 70.41 71.80 C 65.84 73.60 61.50 75.89 57.10 78.06 C 58.09 76.42 59.07 74.78 60.17 73.22 C 63.37 71.35 66.42 69.11 68.57 66.05 C 70.20 66.48 71.82 67.02 73.51 67.11 Z" />
<path fill="#545e93" opacity="0.69" d=" M 78.59 63.08 L 78.62 62.17 C 80.55 64.94 82.10 68.01 82.71 71.35 C 82.63 72.53 82.57 73.72 82.51 74.91 C 74.42 73.62 69.54 82.21 61.68 82.35 C 66.14 79.20 70.92 76.53 75.46 73.51 C 77.08 72.58 77.75 70.80 78.24 69.10 C 78.42 67.10 78.53 65.09 78.59 63.08 Z" />
<path fill="#669db3" opacity="0.95" d=" M 21.14 67.20 C 23.31 66.38 25.50 65.63 27.57 64.59 C 32.11 64.85 36.74 64.01 41.18 65.34 C 41.55 66.30 41.93 67.26 42.33 68.21 C 43.98 71.23 47.39 72.44 50.36 73.74 C 46.89 75.14 43.46 76.64 39.92 77.84 C 38.26 77.09 36.55 76.46 34.85 75.84 C 38.71 79.32 43.27 81.90 47.22 85.28 C 47.86 85.82 48.49 86.36 49.12 86.90 C 49.10 87.77 49.05 89.50 49.03 90.37 C 44.44 85.84 38.59 83.02 33.14 79.72 L 32.74 78.86 C 33.30 78.95 34.41 79.13 34.97 79.23 C 30.52 76.00 26.34 71.24 20.48 71.03 C 20.72 69.76 20.96 68.48 21.14 67.20 Z" />
<path fill="#7c83a7" opacity="0.93" d=" M 82.71 71.35 C 83.06 69.43 83.53 67.53 83.90 65.61 C 84.22 69.35 84.31 73.10 84.22 76.85 C 83.25 77.15 82.28 77.45 81.31 77.77 C 74.03 79.64 68.44 85.02 61.86 88.40 C 62.39 86.91 62.93 85.43 63.47 83.95 C 58.68 86.74 53.85 89.47 49.00 92.15 L 49.02 91.25 L 49.03 90.37 C 52.66 87.25 56.72 84.66 61.05 82.64 L 61.68 82.35 C 69.54 82.21 74.42 73.62 82.51 74.91 C 82.57 73.72 82.63 72.53 82.71 71.35 Z" />
<path fill="#8fa2ce" opacity="1.00" d=" M 75.72 70.74 C 76.56 70.19 77.40 69.64 78.24 69.10 C 77.75 70.80 77.08 72.58 75.46 73.51 C 70.92 76.53 66.14 79.20 61.68 82.35 L 61.05 82.64 C 61.02 81.59 60.99 80.55 60.98 79.50 L 61.01 78.81 C 66.37 77.04 71.09 73.90 75.72 70.74 Z" />
<path fill="#a3c8c9" opacity="0.98" d=" M 20.48 71.03 C 26.34 71.24 30.52 76.00 34.97 79.23 C 34.41 79.13 33.30 78.95 32.74 78.86 C 28.96 76.71 25.13 74.66 21.33 72.56 C 21.12 72.18 20.69 71.41 20.48 71.03 Z" />
<path fill="#8ea197" opacity="0.81" d=" M 15.82 74.00 C 17.37 73.01 18.94 72.04 20.48 71.03 C 20.69 71.41 21.12 72.18 21.33 72.56 C 22.67 75.20 24.55 77.50 26.60 79.62 C 26.18 79.99 25.35 80.73 24.93 81.11 C 21.63 79.19 18.31 77.29 15.05 75.29 L 15.07 74.50 L 15.82 74.00 Z" />
<path fill="#839d88" opacity="0.93" d=" M 57.10 78.06 C 61.50 75.89 65.84 73.60 70.41 71.80 C 67.49 74.42 64.39 76.83 61.01 78.81 C 57.41 80.78 53.91 82.97 50.13 84.59 C 46.87 82.14 43.59 79.65 39.92 77.84 C 43.46 76.64 46.89 75.14 50.36 73.74 C 53.63 73.53 56.90 73.47 60.17 73.22 C 59.07 74.78 58.09 76.42 57.10 78.06 Z" />
<path fill="#627ba7" opacity="0.80" d=" M 21.33 72.56 C 25.13 74.66 28.96 76.71 32.74 78.86 L 33.14 79.72 C 35.33 86.64 43.20 88.43 49.02 91.25 L 49.00 92.15 C 48.97 93.49 48.94 94.83 48.90 96.16 C 45.75 94.24 42.64 92.25 39.47 90.34 C 34.92 86.82 29.98 83.86 24.93 81.11 C 25.35 80.73 26.18 79.99 26.60 79.62 C 24.55 77.50 22.67 75.20 21.33 72.56 Z" />
<path fill="#dee2d6" opacity="1.00" d=" M 15.05 75.29 C 18.31 77.29 21.63 79.19 24.93 81.11 C 29.98 83.86 34.92 86.82 39.47 90.34 C 39.02 90.53 38.13 90.92 37.69 91.12 C 30.10 86.46 22.17 82.24 15.00 76.98 C 15.01 76.56 15.04 75.71 15.05 75.29 Z" />
<path fill="#b3baa5" opacity="0.94" d=" M 34.85 75.84 C 36.55 76.46 38.26 77.09 39.92 77.84 C 43.59 79.65 46.87 82.14 50.13 84.59 C 49.41 84.76 47.95 85.11 47.22 85.28 C 43.27 81.90 38.71 79.32 34.85 75.84 Z" />
<path fill="#c5cbd5" opacity="1.00" d=" M 61.86 88.40 C 68.44 85.02 74.03 79.64 81.31 77.77 C 78.81 79.74 76.46 81.91 73.97 83.90 C 69.13 86.26 64.51 89.05 60.05 92.05 C 56.48 94.37 52.95 96.97 48.74 97.96 C 52.35 93.83 57.27 91.25 61.86 88.40 Z" />
<path fill="#07002a" opacity="0.58" d=" M 50.13 84.59 C 53.91 82.97 57.41 80.78 61.01 78.81 L 60.98 79.50 C 57.16 82.17 53.12 84.51 49.12 86.90 C 48.49 86.36 47.86 85.82 47.22 85.28 C 47.95 85.11 49.41 84.76 50.13 84.59 Z" />
<path fill="#465780" opacity="0.89" d=" M 33.14 79.72 C 38.59 83.02 44.44 85.84 49.03 90.37 L 49.02 91.25 C 43.20 88.43 35.33 86.64 33.14 79.72 Z" />
<path fill="#d9e4dc" opacity="1.00" d=" M 49.12 86.90 C 53.12 84.51 57.16 82.17 60.98 79.50 C 60.99 80.55 61.02 81.59 61.05 82.64 C 56.72 84.66 52.66 87.25 49.03 90.37 C 49.05 89.50 49.10 87.77 49.12 86.90 Z" />
<path fill="#b5b9a3" opacity="0.93" d=" M 49.00 92.15 C 53.85 89.47 58.68 86.74 63.47 83.95 C 62.93 85.43 62.39 86.91 61.86 88.40 C 57.27 91.25 52.35 93.83 48.74 97.96 C 44.80 96.11 41.26 93.56 37.69 91.12 C 38.13 90.92 39.02 90.53 39.47 90.34 C 42.64 92.25 45.75 94.24 48.90 96.16 C 48.94 94.83 48.97 93.49 49.00 92.15 Z" />
</svg>
