<?xml version="1.0" encoding="UTF-8" ?>
<!DOCTYPE svg PUBLIC "-//W3C//DTD SVG 1.1//EN" "http://www.w3.org/Graphics/SVG/1.1/DTD/svg11.dtd">
<svg width="100pt" height="100pt" viewBox="0 0 100 100" version="1.1" xmlns="http://www.w3.org/2000/svg">
<path fill="#13141e" opacity="0.98" d=" M 40.97 25.97 C 51.26 22.96 65.27 24.74 75.68 30.27 C 80.60 43.52 64.36 55.79 59.05 67.06 C 56.02 70.69 50.98 77.94 46.02 72.95 C 35.70 63.01 27.05 50.56 21.72 37.19 C 19.26 32.13 25.06 27.25 29.95 27.85 C 19.43 30.49 25.52 40.29 28.30 46.72 C 30.90 52.19 34.85 56.93 39.17 61.15 C 34.79 54.94 35.82 48.30 32.60 41.77 C 41.89 45.12 48.48 52.16 51.57 61.44 C 51.91 54.03 52.65 46.26 56.90 39.93 C 61.05 40.17 64.92 41.58 64.57 46.23 C 63.96 50.00 57.65 51.53 60.05 56.12 C 65.22 49.02 73.96 43.83 75.23 34.78 C 73.40 41.12 70.67 34.10 73.91 31.65 C 64.76 25.17 51.84 26.13 40.97 25.97 Z" />
<path fill="#3d4450" opacity="1.00" d=" M 29.95 27.85 C 33.32 26.09 37.26 26.14 40.97 25.97 C 51.84 26.13 64.76 25.17 73.91 31.65 C 70.67 34.10 73.40 41.12 75.23 34.78 C 73.96 43.83 65.22 49.02 60.05 56.12 C 57.65 51.53 63.96 50.00 64.57 46.23 C 64.92 41.58 61.05 40.17 56.90 39.93 C 59.04 35.77 62.69 32.65 67.44 31.80 C 64.18 29.65 53.48 26.36 59.48 32.38 C 54.86 40.98 37.30 39.72 32.60 41.77 C 35.82 48.30 34.79 54.94 39.17 61.15 C 34.85 56.93 30.90 52.19 28.30 46.72 C 25.52 40.29 19.43 30.49 29.95 27.85 Z" />
<path fill="#c6ba8f" opacity="1.00" d=" M 59.48 32.38 C 53.48 26.36 64.18 29.65 67.44 31.80 C 62.69 32.65 59.04 35.77 56.90 39.93 C 52.65 46.26 51.91 54.03 51.57 61.44 C 48.48 52.16 41.89 45.12 32.60 41.77 C 37.30 39.72 54.86 40.98 59.48 32.38 M 50.36 41.41 C 46.54 42.36 42.65 43.24 38.77 42.19 C 43.63 45.82 48.76 49.00 50.76 55.17 C 48.84 51.75 56.39 40.23 50.36 41.41 Z" />
<path fill="#1b1c28" opacity="1.00" d=" M 50.36 41.41 C 56.39 40.23 48.84 51.75 50.76 55.17 C 48.76 49.00 43.63 45.82 38.77 42.19 C 42.65 43.24 46.54 42.36 50.36 41.41 Z" />
</svg>
