<?xml version="1.0" encoding="UTF-8" ?>
<!DOCTYPE svg PUBLIC "-//W3C//DTD SVG 1.1//EN" "http://www.w3.org/Graphics/SVG/1.1/DTD/svg11.dtd">
<svg width="100pt" height="100pt" viewBox="0 0 100 100" version="1.1" xmlns="http://www.w3.org/2000/svg">
<path fill="#07080b" opacity="0.93" d=" M 33.80 26.75 C 42.25 24.68 51.10 24.10 59.71 25.42 C 64.93 26.21 70.50 26.91 74.91 30.05 C 77.13 31.53 78.27 34.58 76.98 37.03 C 71.85 48.04 65.36 58.37 58.20 68.16 C 56.04 70.86 53.61 74.04 49.97 74.59 C 45.89 73.97 43.11 70.42 40.56 67.48 C 34.05 59.12 27.89 50.39 23.02 40.96 C 20.99 37.42 21.40 33.21 23.40 29.77 C 23.00 37.15 26.44 43.91 29.80 50.23 C 32.27 54.84 36.16 58.38 39.58 62.26 C 41.84 66.21 43.87 71.01 48.34 72.88 C 49.91 73.56 51.19 72.21 52.23 71.24 C 59.61 63.31 66.19 54.62 71.19 44.98 C 72.63 42.71 74.19 40.41 74.84 37.76 C 74.73 35.97 74.03 34.30 73.60 32.58 C 73.83 32.25 74.30 31.58 74.54 31.24 C 67.20 27.78 59.10 26.10 51.01 25.79 C 45.27 25.85 39.54 26.51 33.80 26.75 Z" />
<path fill="#475161" opacity="1.00" d=" M 33.80 26.75 C 39.54 26.51 45.27 25.85 51.01 25.79 C 59.10 26.10 67.20 27.78 74.54 31.24 C 74.30 31.58 73.83 32.25 73.60 32.58 C 69.57 35.37 64.46 35.35 59.84 34.44 C 57.57 33.39 55.43 32.09 53.27 30.84 C 54.86 32.78 56.46 34.73 57.81 36.85 C 57.19 37.92 56.57 38.99 55.95 40.06 C 53.17 36.39 48.72 34.89 44.33 34.19 C 41.56 33.61 38.80 32.99 36.05 32.33 C 36.55 31.53 37.05 30.72 37.56 29.92 C 34.58 30.57 31.59 31.18 28.59 31.72 C 30.28 30.01 31.97 28.30 33.80 26.75 M 55.87 29.19 C 57.64 30.71 59.27 32.61 61.56 33.34 C 63.79 33.73 66.02 33.04 68.20 32.69 C 64.76 29.76 60.25 29.07 55.87 29.19 Z" />
<path fill="#333744" opacity="1.00" d=" M 23.40 29.77 C 26.62 28.05 30.25 27.41 33.80 26.75 C 31.97 28.30 30.28 30.01 28.59 31.72 C 31.59 31.18 34.58 30.57 37.56 29.92 C 37.05 30.72 36.55 31.53 36.05 32.33 C 38.80 32.99 41.56 33.61 44.33 34.19 C 41.48 36.48 38.79 39.00 36.70 42.02 C 36.65 41.44 36.54 40.29 36.48 39.71 C 35.53 43.06 34.42 46.57 35.22 50.08 C 36.18 54.29 37.89 58.29 39.58 62.26 C 36.16 58.38 32.27 54.84 29.80 50.23 C 26.44 43.91 23.00 37.15 23.40 29.77 Z" />
<path fill="#afb9b8" opacity="1.00" d=" M 55.87 29.19 C 60.25 29.07 64.76 29.76 68.20 32.69 C 66.02 33.04 63.79 33.73 61.56 33.34 C 59.27 32.61 57.64 30.71 55.87 29.19 Z" />
<path fill="#ffe896" opacity="1.00" d=" M 53.27 30.84 C 55.43 32.09 57.57 33.39 59.84 34.44 C 61.39 37.73 63.17 41.04 63.58 44.71 C 63.16 45.11 62.32 45.91 61.90 46.30 C 60.48 43.17 59.31 39.94 57.81 36.85 C 56.46 34.73 54.86 32.78 53.27 30.84 Z" />
<path fill="#343642" opacity="1.00" d=" M 59.84 34.44 C 64.46 35.35 69.57 35.37 73.60 32.58 C 74.03 34.30 74.73 35.97 74.84 37.76 C 74.19 40.41 72.63 42.71 71.19 44.98 C 67.00 47.92 63.75 51.89 61.05 56.19 C 60.15 55.36 59.25 54.54 58.35 53.72 C 60.59 51.06 63.06 48.29 63.58 44.71 C 63.17 41.04 61.39 37.73 59.84 34.44 Z" />
<path fill="#ffec9d" opacity="1.00" d=" M 36.70 42.02 C 38.79 39.00 41.48 36.48 44.33 34.19 C 48.72 34.89 53.17 36.39 55.95 40.06 C 56.90 43.36 58.10 47.10 56.43 50.38 C 54.74 53.89 50.65 55.30 47.01 55.63 C 43.93 55.95 40.14 55.40 38.52 52.40 C 37.03 49.17 37.10 45.49 36.70 42.02 M 41.54 39.45 C 40.34 41.72 39.19 44.29 39.94 46.91 C 40.42 49.12 41.27 52.19 44.04 52.31 C 47.52 52.72 51.97 52.00 53.81 48.65 C 55.53 45.17 53.61 41.44 52.37 38.15 C 48.69 36.76 44.68 36.88 41.54 39.45 Z" />
<path fill="#354050" opacity="1.00" d=" M 41.54 39.45 C 44.68 36.88 48.69 36.76 52.37 38.15 C 52.18 38.88 51.82 40.32 51.63 41.05 C 49.58 41.24 47.53 41.46 45.50 41.78 C 44.21 40.94 42.87 40.21 41.54 39.45 Z" />
<path fill="#13121f" opacity="1.00" d=" M 55.95 40.06 C 56.57 38.99 57.19 37.92 57.81 36.85 C 59.31 39.94 60.48 43.17 61.90 46.30 C 62.32 45.91 63.16 45.11 63.58 44.71 C 63.06 48.29 60.59 51.06 58.35 53.72 C 59.25 54.54 60.15 55.36 61.05 56.19 C 63.75 51.89 67.00 47.92 71.19 44.98 C 66.19 54.62 59.61 63.31 52.23 71.24 C 51.19 72.21 49.91 73.56 48.34 72.88 C 43.87 71.01 41.84 66.21 39.58 62.26 C 37.89 58.29 36.18 54.29 35.22 50.08 C 34.42 46.57 35.53 43.06 36.48 39.71 C 36.54 40.29 36.65 41.44 36.70 42.02 C 37.10 45.49 37.03 49.17 38.52 52.40 C 40.14 55.40 43.93 55.95 47.01 55.63 C 50.65 55.30 54.74 53.89 56.43 50.38 C 58.10 47.10 56.90 43.36 55.95 40.06 Z" />
<path fill="#13121d" opacity="1.00" d=" M 51.63 41.05 C 51.82 40.32 52.18 38.88 52.37 38.15 C 53.61 41.44 55.53 45.17 53.81 48.65 C 51.97 52.00 47.52 52.72 44.04 52.31 C 41.27 52.19 40.42 49.12 39.94 46.91 C 39.19 44.29 40.34 41.72 41.54 39.45 C 42.87 40.21 44.21 40.94 45.50 41.78 C 46.77 42.99 47.99 44.26 49.25 45.49 C 51.63 47.66 52.32 43.44 51.45 41.80 L 51.63 41.05 Z" />
<path fill="#fddaa2" opacity="1.00" d=" M 45.50 41.78 C 47.53 41.46 49.58 41.24 51.63 41.05 L 51.45 41.80 C 50.68 43.01 49.85 44.19 49.25 45.49 C 47.99 44.26 46.77 42.99 45.50 41.78 Z" />
<path fill="#808688" opacity="1.00" d=" M 51.45 41.80 C 52.32 43.44 51.63 47.66 49.25 45.49 C 49.85 44.19 50.68 43.01 51.45 41.80 Z" />
</svg>
