<?xml version="1.0" encoding="UTF-8" ?>
<!DOCTYPE svg PUBLIC "-//W3C//DTD SVG 1.1//EN" "http://www.w3.org/Graphics/SVG/1.1/DTD/svg11.dtd">
<svg width="100pt" height="100pt" viewBox="0 0 100 100" version="1.1" xmlns="http://www.w3.org/2000/svg">
<path fill="#07003f" opacity="0.87" d=" M 48.39 0.00 L 50.50 0.00 C 56.63 4.55 63.49 8.05 69.32 13.01 L 68.44 13.00 C 61.69 9.65 56.22 3.96 49.00 1.56 C 48.57 1.81 47.72 2.30 47.29 2.54 C 45.57 3.58 43.83 4.59 42.11 5.62 C 40.23 6.83 38.42 8.13 36.52 9.32 C 29.16 13.75 21.88 18.33 14.60 22.89 C 14.07 25.56 13.89 28.28 13.87 30.99 C 13.96 41.66 14.02 52.33 14.02 63.00 C 14.08 67.66 13.28 72.53 15.00 77.00 C 16.96 78.82 19.35 80.06 21.62 81.44 C 27.03 84.57 32.21 88.08 37.68 91.12 C 41.26 93.57 44.81 96.11 48.73 97.98 C 53.66 96.80 57.64 93.51 61.84 90.88 C 65.72 88.28 69.79 85.99 73.97 83.89 C 66.55 90.20 57.63 94.32 49.76 100.00 L 48.51 100.00 C 37.19 91.90 25.09 84.98 13.25 77.68 C 13.02 59.24 13.04 40.78 13.27 22.34 C 25.10 15.09 36.87 7.73 48.39 0.00 Z" />
<path fill="#bec4b3" opacity="0.89" d=" M 49.00 1.56 C 56.22 3.96 61.69 9.65 68.44 13.00 C 67.18 12.98 65.91 12.99 64.66 12.87 C 62.51 11.93 60.50 10.43 58.10 10.27 C 56.25 10.05 54.34 10.21 52.55 9.65 C 49.84 8.44 49.47 5.20 49.03 2.63 L 49.00 1.56 Z" />
<path fill="#3c4875" opacity="0.87" d=" M 47.29 2.54 C 47.72 2.30 48.57 1.81 49.00 1.56 L 49.03 2.63 C 49.07 5.03 49.02 7.43 48.93 9.82 C 47.04 10.89 45.14 11.95 43.25 13.04 C 44.98 9.69 46.17 6.12 47.29 2.54 Z" />
<path fill="#737a8d" opacity="0.87" d=" M 42.11 5.62 C 43.83 4.59 45.57 3.58 47.29 2.54 C 46.17 6.12 44.98 9.69 43.25 13.04 C 45.14 11.95 47.04 10.89 48.93 9.82 C 49.97 12.37 51.69 14.57 54.15 15.88 C 50.27 16.29 46.54 17.52 43.10 19.36 C 41.71 19.71 40.26 19.67 38.86 19.98 C 40.49 17.94 42.26 16.02 44.12 14.18 C 41.44 15.18 38.70 15.96 35.93 16.68 C 38.26 13.14 39.71 9.12 42.11 5.62 Z" />
<path fill="#919ea0" opacity="0.89" d=" M 49.03 2.63 C 49.47 5.20 49.84 8.44 52.55 9.65 C 54.34 10.21 56.25 10.05 58.10 10.27 C 60.50 10.43 62.51 11.93 64.66 12.87 C 64.05 14.68 63.50 16.49 62.98 18.32 C 58.12 15.79 53.99 12.03 48.93 9.82 C 49.02 7.43 49.07 5.03 49.03 2.63 Z" />
<path fill="#cdccb9" opacity="0.91" d=" M 36.52 9.32 C 38.42 8.13 40.23 6.83 42.11 5.62 C 39.71 9.12 38.26 13.14 35.93 16.68 C 30.89 18.54 26.41 21.54 21.70 24.07 C 21.38 23.22 21.08 22.37 20.79 21.51 C 25.30 18.79 30.07 16.45 34.23 13.19 C 35.52 12.28 35.95 10.70 36.52 9.32 Z" />
<path fill="#dcdcc8" opacity="0.94" d=" M 14.60 22.89 C 21.88 18.33 29.16 13.75 36.52 9.32 C 35.95 10.70 35.52 12.28 34.23 13.19 C 30.07 16.45 25.30 18.79 20.79 21.51 C 19.21 22.44 17.62 23.34 16.03 24.26 C 15.54 33.20 15.99 42.14 15.95 51.09 C 15.75 58.52 16.13 65.94 16.45 73.36 L 15.90 74.05 L 15.10 74.58 C 15.61 57.35 14.67 40.12 14.60 22.89 Z" />
<path fill="#cdccb9" opacity="0.91" d=" M 48.93 9.82 C 53.99 12.03 58.12 15.79 62.98 18.32 C 63.87 18.78 64.76 19.21 65.66 19.64 C 69.70 22.60 73.70 25.62 77.95 28.29 C 78.83 27.82 79.71 27.35 80.58 26.87 C 77.36 30.81 76.82 36.00 77.67 40.87 C 79.27 48.25 78.70 55.78 78.25 63.25 C 77.50 56.46 77.75 49.63 77.43 42.82 C 77.40 47.96 77.26 53.12 76.49 58.22 C 76.50 54.41 76.13 50.62 76.03 46.82 C 76.03 46.39 76.03 45.54 76.03 45.11 C 76.21 40.73 76.79 36.34 76.31 31.96 C 76.18 28.22 71.99 27.04 69.41 25.24 C 64.29 22.16 59.24 18.98 54.15 15.88 C 51.69 14.57 49.97 12.37 48.93 9.82 Z" />
<path fill="#6f78b1" opacity="0.82" d=" M 64.66 12.87 C 65.91 12.99 67.18 12.98 68.44 13.00 L 69.32 13.01 C 72.45 15.76 75.51 18.61 78.94 21.01 C 76.43 19.95 73.84 19.10 71.26 18.23 C 71.74 19.11 72.23 19.98 72.72 20.86 C 70.35 20.56 67.98 20.22 65.66 19.64 C 64.76 19.21 63.87 18.78 62.98 18.32 C 63.50 16.49 64.05 14.68 64.66 12.87 Z" />
<path fill="#393b91" opacity="1.00" d=" M 69.32 13.01 C 74.63 16.29 80.75 18.61 85.09 23.22 C 85.75 26.76 85.43 30.40 85.45 33.99 C 85.37 46.68 85.40 59.36 85.48 72.05 C 85.26 74.05 85.80 76.58 84.02 78.01 C 81.14 80.69 77.41 82.11 73.97 83.89 C 76.42 81.89 78.78 79.77 81.36 77.93 C 82.31 77.52 83.25 77.11 84.21 76.71 C 84.17 73.68 84.15 70.65 84.07 67.62 C 84.22 65.28 83.11 63.18 81.95 61.24 C 82.89 56.22 83.37 51.11 83.25 45.99 C 83.14 38.86 83.37 31.72 83.83 24.61 C 82.10 24.33 80.36 24.13 78.63 23.85 C 78.95 23.02 79.26 22.18 79.55 21.34 L 78.94 21.01 C 75.51 18.61 72.45 15.76 69.32 13.01 Z" />
<path fill="#acbaae" opacity="0.90" d=" M 35.93 16.68 C 38.70 15.96 41.44 15.18 44.12 14.18 C 42.26 16.02 40.49 17.94 38.86 19.98 C 40.26 19.67 41.71 19.71 43.10 19.36 C 40.31 21.12 37.62 23.04 34.81 24.77 C 31.80 26.62 28.56 28.10 25.13 28.98 C 29.57 25.42 33.98 21.81 38.18 17.97 C 31.75 20.95 24.64 23.89 20.53 30.00 C 20.11 28.93 19.69 27.86 19.27 26.79 C 16.48 33.95 18.00 41.70 18.42 49.12 C 17.60 49.77 16.77 50.43 15.95 51.09 C 15.99 42.14 15.54 33.20 16.03 24.26 C 17.62 23.34 19.21 22.44 20.79 21.51 C 21.08 22.37 21.38 23.22 21.70 24.07 C 26.41 21.54 30.89 18.54 35.93 16.68 Z" />
<path fill="#5a6271" opacity="0.87" d=" M 43.10 19.36 C 46.54 17.52 50.27 16.29 54.15 15.88 C 59.24 18.98 64.29 22.16 69.41 25.24 C 67.94 26.79 66.50 28.36 65.03 29.91 C 66.58 29.29 68.11 28.61 69.66 27.99 C 69.17 29.21 68.67 30.43 68.19 31.66 C 68.83 32.39 69.47 33.12 70.10 33.86 C 69.67 34.19 68.79 34.85 68.35 35.18 C 66.93 35.86 65.47 36.49 63.96 36.93 C 61.49 37.99 59.60 35.50 57.74 34.29 C 57.86 33.06 57.97 31.83 58.07 30.60 C 52.72 28.89 47.74 25.94 42.15 25.07 C 41.79 25.20 41.07 25.45 40.71 25.58 C 38.38 28.71 37.28 32.53 35.85 36.11 C 34.07 35.59 32.29 35.05 30.47 34.69 C 29.21 34.50 27.95 34.38 26.69 34.25 C 27.38 35.63 28.07 37.02 28.83 38.35 C 29.20 40.70 30.07 43.13 29.51 45.51 C 27.75 48.20 24.71 49.61 22.05 51.24 C 22.12 45.38 22.04 39.50 23.14 33.72 C 25.78 32.96 28.60 32.51 30.97 31.02 C 32.83 29.37 33.69 26.93 34.81 24.77 C 37.62 23.04 40.31 21.12 43.10 19.36 Z" />
<path fill="#ccdddf" opacity="1.00" d=" M 20.53 30.00 C 24.64 23.89 31.75 20.95 38.18 17.97 C 33.98 21.81 29.57 25.42 25.13 28.98 C 23.62 29.40 22.08 29.70 20.53 30.00 Z" />
<path fill="#353e8a" opacity="0.80" d=" M 71.26 18.23 C 73.84 19.10 76.43 19.95 78.94 21.01 L 79.55 21.34 C 79.26 22.18 78.95 23.02 78.63 23.85 C 80.36 24.13 82.10 24.33 83.83 24.61 C 83.37 31.72 83.14 38.86 83.25 45.99 C 82.68 45.97 81.56 45.93 81.00 45.91 C 81.21 43.23 81.32 40.56 81.41 37.88 C 80.16 38.87 78.92 39.87 77.67 40.87 C 76.82 36.00 77.36 30.81 80.58 26.87 C 79.71 27.35 78.83 27.82 77.95 28.29 C 73.70 25.62 69.70 22.60 65.66 19.64 C 67.98 20.22 70.35 20.56 72.72 20.86 C 72.23 19.98 71.74 19.11 71.26 18.23 Z" />
<path fill="#c4b495" opacity="1.00" d=" M 13.87 30.99 C 13.89 28.28 14.07 25.56 14.60 22.89 C 14.67 40.12 15.61 57.35 15.10 74.58 L 15.08 75.32 C 15.06 75.74 15.02 76.58 15.00 77.00 C 13.28 72.53 14.08 67.66 14.02 63.00 C 14.02 52.33 13.96 41.66 13.87 30.99 Z" />
<path fill="#67858d" opacity="0.94" d=" M 25.13 28.98 C 28.56 28.10 31.80 26.62 34.81 24.77 C 33.69 26.93 32.83 29.37 30.97 31.02 C 28.60 32.51 25.78 32.96 23.14 33.72 C 22.04 39.50 22.12 45.38 22.05 51.24 C 21.92 53.92 21.69 56.60 21.59 59.28 C 21.18 54.49 20.36 49.74 19.61 44.98 C 19.20 46.36 18.78 47.73 18.42 49.12 C 18.00 41.70 16.48 33.95 19.27 26.79 C 19.69 27.86 20.11 28.93 20.53 30.00 C 22.08 29.70 23.62 29.40 25.13 28.98 Z" />
<path fill="#6f7e7f" opacity="0.85" d=" M 40.71 25.58 C 41.07 25.45 41.79 25.20 42.15 25.07 C 47.74 25.94 52.72 28.89 58.07 30.60 C 57.51 31.24 56.95 31.88 56.40 32.53 C 54.23 33.05 52.18 33.96 50.28 35.15 C 48.35 35.43 46.40 35.51 44.45 35.50 C 43.95 35.35 42.94 35.07 42.43 34.93 C 41.79 37.85 41.77 40.91 43.87 43.29 C 41.80 42.50 39.72 41.72 37.62 41.03 C 37.98 41.03 38.71 41.03 39.07 41.03 C 35.96 39.27 32.94 37.30 30.47 34.69 C 32.29 35.05 34.07 35.59 35.85 36.11 C 37.28 32.53 38.38 28.71 40.71 25.58 Z" />
<path fill="#48578b" opacity="0.87" d=" M 65.03 29.91 C 66.50 28.36 67.94 26.79 69.41 25.24 C 71.99 27.04 76.18 28.22 76.31 31.96 C 76.79 36.34 76.21 40.73 76.03 45.11 C 75.69 43.78 75.30 42.47 74.92 41.16 C 73.37 42.09 71.85 43.05 70.35 44.04 C 71.46 40.92 72.88 37.91 74.42 34.98 C 73.65 35.52 72.90 36.08 72.14 36.64 C 71.85 36.22 71.25 35.38 70.95 34.95 C 70.74 34.68 70.32 34.13 70.10 33.86 C 69.47 33.12 68.83 32.39 68.19 31.66 C 68.67 30.43 69.17 29.21 69.66 27.99 C 68.11 28.61 66.58 29.29 65.03 29.91 Z" />
<path fill="#b4bfc4" opacity="0.96" d=" M 56.40 32.53 C 56.95 31.88 57.51 31.24 58.07 30.60 C 57.97 31.83 57.86 33.06 57.74 34.29 C 55.77 36.98 54.16 39.90 52.92 43.00 C 52.31 43.24 51.09 43.73 50.49 43.97 C 51.59 39.76 53.62 35.87 56.40 32.53 Z" />
<path fill="#07003f" opacity="0.87" d=" M 50.28 35.15 C 52.18 33.96 54.23 33.05 56.40 32.53 C 53.62 35.87 51.59 39.76 50.49 43.97 C 51.09 43.73 52.31 43.24 52.92 43.00 C 58.30 40.88 64.07 39.29 68.35 35.18 C 68.79 34.85 69.67 34.19 70.10 33.86 C 70.32 34.13 70.74 34.68 70.95 34.95 C 71.25 35.38 71.85 36.22 72.14 36.64 C 66.44 40.47 69.05 48.74 64.30 53.28 C 61.63 56.63 57.00 56.19 53.18 56.55 C 53.17 55.54 53.18 54.53 53.22 53.53 C 55.33 53.47 57.82 54.12 59.59 52.61 C 62.86 49.94 64.61 45.94 66.20 42.14 C 66.44 41.56 66.90 40.41 67.14 39.83 C 61.47 40.81 54.55 42.06 51.83 47.84 C 50.37 52.73 51.10 57.94 50.94 62.97 C 49.89 61.95 48.83 60.92 47.77 59.90 C 47.81 55.01 48.94 50.24 49.36 45.39 C 49.48 42.36 46.03 41.47 44.25 39.68 C 43.29 38.26 43.01 36.51 42.43 34.93 C 42.94 35.07 43.95 35.35 44.45 35.50 C 45.87 36.59 47.21 37.80 48.56 38.98 C 49.12 37.70 49.68 36.41 50.28 35.15 Z" />
<path fill="#0c073d" opacity="0.80" d=" M 26.69 34.25 C 27.95 34.38 29.21 34.50 30.47 34.69 C 32.94 37.30 35.96 39.27 39.07 41.03 C 38.71 41.03 37.98 41.03 37.62 41.03 C 35.70 40.78 33.79 40.48 31.88 40.21 C 34.15 45.06 36.66 49.98 40.84 53.50 C 42.72 53.57 44.60 53.50 46.49 53.44 C 45.98 54.72 45.34 55.94 44.68 57.14 C 42.11 56.47 39.46 55.96 37.07 54.77 C 34.60 53.49 33.10 51.04 31.42 48.93 C 31.49 45.20 31.29 41.39 28.83 38.35 C 28.07 37.02 27.38 35.63 26.69 34.25 Z" />
<path fill="#687088" opacity="0.86" d=" M 52.92 43.00 C 54.16 39.90 55.77 36.98 57.74 34.29 C 59.60 35.50 61.49 37.99 63.96 36.93 C 65.47 36.49 66.93 35.86 68.35 35.18 C 64.07 39.29 58.30 40.88 52.92 43.00 Z" />
<path fill="#b3b5bd" opacity="0.96" d=" M 43.87 43.29 C 41.77 40.91 41.79 37.85 42.43 34.93 C 43.01 36.51 43.29 38.26 44.25 39.68 C 46.03 41.47 49.48 42.36 49.36 45.39 C 48.94 50.24 47.81 55.01 47.77 59.90 C 47.16 63.06 46.98 67.34 43.82 69.03 C 39.02 69.87 34.27 67.98 29.73 66.62 L 30.05 65.77 C 34.75 65.25 39.79 68.86 44.10 66.23 C 45.04 63.92 45.47 61.45 46.04 59.03 C 44.37 60.70 42.85 62.59 40.83 63.86 C 39.30 64.35 37.77 63.23 36.26 63.01 C 38.43 61.34 40.70 59.79 42.99 58.29 C 43.41 58.00 44.26 57.43 44.68 57.14 C 45.34 55.94 45.98 54.72 46.49 53.44 C 46.66 50.91 47.65 47.56 45.23 45.77 C 42.03 43.39 37.91 42.90 34.14 41.98 C 36.20 46.12 39.04 49.81 42.53 52.84 C 42.11 53.00 41.26 53.34 40.84 53.50 C 36.66 49.98 34.15 45.06 31.88 40.21 C 33.79 40.48 35.70 40.78 37.62 41.03 C 39.72 41.72 41.80 42.50 43.87 43.29 Z" />
<path fill="#a6b8be" opacity="0.94" d=" M 44.45 35.50 C 46.40 35.51 48.35 35.43 50.28 35.15 C 49.68 36.41 49.12 37.70 48.56 38.98 C 47.21 37.80 45.87 36.59 44.45 35.50 Z" />
<path fill="#659ba5" opacity="0.96" d=" M 72.14 36.64 C 72.90 36.08 73.65 35.52 74.42 34.98 C 72.88 37.91 71.46 40.92 70.35 44.04 C 69.25 49.19 67.72 55.07 62.75 57.81 C 60.51 58.35 58.18 58.19 55.90 58.25 C 56.86 58.62 57.82 58.99 58.76 59.40 C 60.14 60.60 61.44 61.88 62.74 63.17 C 61.34 63.54 59.99 64.35 58.52 64.29 C 56.65 63.12 55.13 61.49 53.50 60.04 C 54.35 62.29 54.08 65.45 56.28 66.91 C 60.32 67.53 64.29 66.19 68.20 65.35 C 68.50 64.77 69.09 63.63 69.39 63.06 C 69.52 62.69 69.79 61.95 69.92 61.58 C 70.01 63.12 70.11 64.66 70.21 66.20 C 68.81 66.86 67.37 67.44 65.96 68.06 C 62.84 69.35 60.25 71.55 57.84 73.87 C 56.25 74.51 54.64 75.09 53.03 75.64 C 53.27 74.15 53.52 72.66 53.77 71.18 C 50.27 74.27 46.48 77.04 42.25 79.05 C 39.82 77.86 37.25 77.00 34.73 76.03 C 31.96 74.51 29.26 72.89 26.58 71.22 C 27.99 69.96 29.19 68.46 29.73 66.62 C 34.27 67.98 39.02 69.87 43.82 69.03 C 46.98 67.34 47.16 63.06 47.77 59.90 C 48.83 60.92 49.89 61.95 50.94 62.97 C 51.10 57.94 50.37 52.73 51.83 47.84 C 54.55 42.06 61.47 40.81 67.14 39.83 C 66.90 40.41 66.44 41.56 66.20 42.14 C 62.45 42.96 58.20 43.52 55.50 46.56 C 53.74 48.43 53.40 51.08 53.22 53.53 C 53.18 54.53 53.17 55.54 53.18 56.55 C 57.00 56.19 61.63 56.63 64.30 53.28 C 69.05 48.74 66.44 40.47 72.14 36.64 Z" />
<path fill="#4e58a0" opacity="0.80" d=" M 77.67 40.87 C 78.92 39.87 80.16 38.87 81.41 37.88 C 81.32 40.56 81.21 43.23 81.00 45.91 C 80.88 50.98 78.65 56.73 81.95 61.24 C 83.11 63.18 84.22 65.28 84.07 67.62 C 83.62 70.10 82.99 72.53 82.37 74.97 C 74.34 73.48 69.27 81.73 61.59 82.35 C 63.03 81.14 64.40 79.86 65.82 78.62 C 69.84 76.54 74.26 74.83 77.49 71.57 C 78.27 68.87 78.19 66.02 78.25 63.25 C 78.70 55.78 79.27 48.25 77.67 40.87 Z" />
<path fill="#5779a4" opacity="0.81" d=" M 29.51 45.51 C 30.07 43.13 29.20 40.70 28.83 38.35 C 31.29 41.39 31.49 45.20 31.42 48.93 C 31.98 51.84 33.67 54.32 35.37 56.67 C 31.53 58.39 28.87 61.65 27.30 65.49 C 25.35 65.51 23.40 65.52 21.44 65.53 C 21.55 63.45 21.55 61.36 21.59 59.28 C 21.69 56.60 21.92 53.92 22.05 51.24 C 24.71 49.61 27.75 48.20 29.51 45.51 Z" />
<path fill="#4456ab" opacity="0.94" d=" M 70.35 44.04 C 71.85 43.05 73.37 42.09 74.92 41.16 C 75.30 42.47 75.69 43.78 76.03 45.11 C 76.03 45.54 76.03 46.39 76.03 46.82 C 75.51 53.34 73.31 59.61 70.64 65.55 L 70.21 66.20 C 70.11 64.66 70.01 63.12 69.92 61.58 C 69.79 61.95 69.52 62.69 69.39 63.06 C 66.47 60.40 62.85 58.28 58.76 59.40 C 57.82 58.99 56.86 58.62 55.90 58.25 C 58.18 58.19 60.51 58.35 62.75 57.81 C 67.72 55.07 69.25 49.19 70.35 44.04 Z" />
<path fill="#6e7c94" opacity="0.95" d=" M 34.14 41.98 C 37.91 42.90 42.03 43.39 45.23 45.77 C 47.65 47.56 46.66 50.91 46.49 53.44 C 44.60 53.50 42.72 53.57 40.84 53.50 C 41.26 53.34 42.11 53.00 42.53 52.84 C 39.04 49.81 36.20 46.12 34.14 41.98 Z" />
<path fill="#5b6996" opacity="0.96" d=" M 55.50 46.56 C 58.20 43.52 62.45 42.96 66.20 42.14 C 64.61 45.94 62.86 49.94 59.59 52.61 C 57.82 54.12 55.33 53.47 53.22 53.53 C 53.40 51.08 53.74 48.43 55.50 46.56 Z" />
<path fill="#b9c6d3" opacity="0.96" d=" M 76.49 58.22 C 77.26 53.12 77.40 47.96 77.43 42.82 C 77.75 49.63 77.50 56.46 78.25 63.25 C 78.19 66.02 78.27 68.87 77.49 71.57 C 74.26 74.83 69.84 76.54 65.82 78.62 C 65.34 78.70 64.36 78.84 63.87 78.92 C 66.37 77.13 68.85 75.31 71.44 73.66 C 72.82 72.71 74.27 71.81 75.39 70.54 C 75.97 67.66 75.74 64.69 75.93 61.77 C 76.14 60.59 76.32 59.41 76.49 58.22 Z" />
<path fill="#294365" opacity="0.66" d=" M 19.61 44.98 C 20.36 49.74 21.18 54.49 21.59 59.28 C 21.55 61.36 21.55 63.45 21.44 65.53 C 21.26 67.40 20.85 69.24 20.38 71.06 C 18.91 72.09 17.42 73.09 15.90 74.05 L 16.45 73.36 C 17.67 71.91 18.74 70.21 18.39 68.23 C 18.07 61.86 18.08 55.48 18.42 49.12 C 18.78 47.73 19.20 46.36 19.61 44.98 Z" />
<path fill="#0825d0" opacity="0.82" d=" M 81.00 45.91 C 81.56 45.93 82.68 45.97 83.25 45.99 C 83.37 51.11 82.89 56.22 81.95 61.24 C 78.65 56.73 80.88 50.98 81.00 45.91 Z" />
<path fill="#09218b" opacity="0.87" d=" M 70.64 65.55 C 73.31 59.61 75.51 53.34 76.03 46.82 C 76.13 50.62 76.50 54.41 76.49 58.22 C 76.32 59.41 76.14 60.59 75.93 61.77 C 75.29 63.49 74.60 65.18 73.93 66.89 C 72.83 66.44 71.74 66.00 70.64 65.55 Z" />
<path fill="#5888a7" opacity="0.80" d=" M 15.95 51.09 C 16.77 50.43 17.60 49.77 18.42 49.12 C 18.08 55.48 18.07 61.86 18.39 68.23 C 18.74 70.21 17.67 71.91 16.45 73.36 C 16.13 65.94 15.75 58.52 15.95 51.09 Z" />
<path fill="#679fcc" opacity="0.87" d=" M 35.37 56.67 C 33.67 54.32 31.98 51.84 31.42 48.93 C 33.10 51.04 34.60 53.49 37.07 54.77 C 39.46 55.96 42.11 56.47 44.68 57.14 C 44.26 57.43 43.41 58.00 42.99 58.29 C 39.88 58.52 36.69 58.68 33.76 59.84 C 31.26 60.72 30.91 63.63 30.05 65.77 L 29.73 66.62 C 29.19 68.46 27.99 69.96 26.58 71.22 C 29.26 72.89 31.96 74.51 34.73 76.03 C 38.84 79.15 43.13 82.02 47.10 85.32 C 47.76 85.86 48.42 86.40 49.07 86.95 C 49.07 87.80 49.06 89.50 49.05 90.35 C 44.49 85.73 38.58 82.94 33.06 79.70 L 32.65 78.82 C 33.23 78.91 34.40 79.08 34.99 79.17 C 30.48 76.01 26.31 71.05 20.38 71.06 C 20.85 69.24 21.26 67.40 21.44 65.53 C 23.40 65.52 25.35 65.51 27.30 65.49 C 28.87 61.65 31.53 58.39 35.37 56.67 Z" />
<path fill="#0b063f" opacity="0.86" d=" M 33.76 59.84 C 36.69 58.68 39.88 58.52 42.99 58.29 C 40.70 59.79 38.43 61.34 36.26 63.01 C 37.77 63.23 39.30 64.35 40.83 63.86 C 42.85 62.59 44.37 60.70 46.04 59.03 C 45.47 61.45 45.04 63.92 44.10 66.23 C 39.79 68.86 34.75 65.25 30.05 65.77 C 30.91 63.63 31.26 60.72 33.76 59.84 Z" />
<path fill="#0c0642" opacity="0.88" d=" M 58.76 59.40 C 62.85 58.28 66.47 60.40 69.39 63.06 C 69.09 63.63 68.50 64.77 68.20 65.35 C 64.29 66.19 60.32 67.53 56.28 66.91 C 54.08 65.45 54.35 62.29 53.50 60.04 C 55.13 61.49 56.65 63.12 58.52 64.29 C 59.99 64.35 61.34 63.54 62.74 63.17 C 61.44 61.88 60.14 60.60 58.76 59.40 Z" />
<path fill="#364f84" opacity="0.87" d=" M 73.93 66.89 C 74.60 65.18 75.29 63.49 75.93 61.77 C 75.74 64.69 75.97 67.66 75.39 70.54 C 74.27 71.81 72.82 72.71 71.44 73.66 C 71.49 72.92 71.60 71.42 71.65 70.67 C 68.76 72.04 65.86 73.43 63.16 75.15 C 64.18 72.83 65.05 70.44 65.96 68.06 C 67.37 67.44 68.81 66.86 70.21 66.20 L 70.64 65.55 C 71.74 66.00 72.83 66.44 73.93 66.89 Z" />
<path fill="#5f786c" opacity="0.87" d=" M 57.84 73.87 C 60.25 71.55 62.84 69.35 65.96 68.06 C 65.05 70.44 64.18 72.83 63.16 75.15 C 60.35 77.16 57.31 78.82 54.18 80.28 C 55.36 78.11 56.53 75.95 57.84 73.87 Z" />
<path fill="#7c83a8" opacity="0.93" d=" M 82.37 74.97 C 82.99 72.53 83.62 70.10 84.07 67.62 C 84.15 70.65 84.17 73.68 84.21 76.71 C 83.25 77.11 82.31 77.52 81.36 77.93 C 78.67 78.29 76.10 79.28 73.90 80.90 C 70.00 83.60 65.88 85.96 61.81 88.40 C 62.39 86.91 62.92 85.42 63.49 83.93 C 58.70 86.73 53.88 89.48 49.00 92.12 L 49.02 91.23 L 49.05 90.35 C 52.86 87.15 57.14 84.56 61.59 82.35 C 69.27 81.73 74.34 73.48 82.37 74.97 Z" />
<path fill="#a3c8c9" opacity="0.98" d=" M 20.38 71.06 C 26.31 71.05 30.48 76.01 34.99 79.17 C 34.40 79.08 33.23 78.91 32.65 78.82 C 28.92 76.65 25.11 74.61 21.30 72.59 C 21.07 72.21 20.61 71.44 20.38 71.06 Z" />
<path fill="#8ea29a" opacity="0.82" d=" M 15.90 74.05 C 17.42 73.09 18.91 72.09 20.38 71.06 C 20.61 71.44 21.07 72.21 21.30 72.59 C 22.88 75.48 25.06 77.96 27.51 80.14 C 27.34 80.65 27.02 81.69 26.85 82.20 C 22.89 79.97 18.98 77.65 15.08 75.32 L 15.10 74.58 L 15.90 74.05 Z" />
<path fill="#899d88" opacity="0.93" d=" M 42.25 79.05 C 46.48 77.04 50.27 74.27 53.77 71.18 C 53.52 72.66 53.27 74.15 53.03 75.64 C 54.64 75.09 56.25 74.51 57.84 73.87 C 56.53 75.95 55.36 78.11 54.18 80.28 C 57.31 78.82 60.35 77.16 63.16 75.15 C 65.86 73.43 68.76 72.04 71.65 70.67 C 71.60 71.42 71.49 72.92 71.44 73.66 C 68.85 75.31 66.37 77.13 63.87 78.92 C 62.94 79.09 62.01 79.29 61.09 79.51 C 57.05 80.33 53.78 82.99 50.12 84.71 C 47.54 82.76 45.01 80.72 42.25 79.05 Z" />
<path fill="#627aa8" opacity="0.80" d=" M 21.30 72.59 C 25.11 74.61 28.92 76.65 32.65 78.82 L 33.06 79.70 C 35.25 86.63 43.20 88.41 49.02 91.23 L 49.00 92.12 C 48.96 93.48 48.93 94.84 48.91 96.20 C 45.77 94.23 42.65 92.25 39.49 90.33 C 35.49 87.30 31.27 84.58 26.85 82.20 C 27.02 81.69 27.34 80.65 27.51 80.14 C 25.06 77.96 22.88 75.48 21.30 72.59 Z" />
<path fill="#dfe2d6" opacity="1.00" d=" M 15.08 75.32 C 18.98 77.65 22.89 79.97 26.85 82.20 C 31.27 84.58 35.49 87.30 39.49 90.33 C 39.03 90.53 38.13 90.92 37.68 91.12 C 32.21 88.08 27.03 84.57 21.62 81.44 C 19.35 80.06 16.96 78.82 15.00 77.00 C 15.02 76.58 15.06 75.74 15.08 75.32 Z" />
<path fill="#b1b9a5" opacity="0.94" d=" M 34.73 76.03 C 37.25 77.00 39.82 77.86 42.25 79.05 C 45.01 80.72 47.54 82.76 50.12 84.71 C 49.36 84.86 47.86 85.17 47.10 85.32 C 43.13 82.02 38.84 79.15 34.73 76.03 Z" />
<path fill="#c5cbd5" opacity="1.00" d=" M 73.90 80.90 C 76.10 79.28 78.67 78.29 81.36 77.93 C 78.78 79.77 76.42 81.89 73.97 83.89 C 69.79 85.99 65.72 88.28 61.84 90.88 C 57.64 93.51 53.66 96.80 48.73 97.98 C 52.32 93.83 57.24 91.26 61.81 88.40 C 65.88 85.96 70.00 83.60 73.90 80.90 Z" />
<path fill="#0b063f" opacity="0.86" d=" M 50.12 84.71 C 53.78 82.99 57.05 80.33 61.09 79.51 C 57.03 81.89 53.19 84.65 49.07 86.95 C 48.42 86.40 47.76 85.86 47.10 85.32 C 47.86 85.17 49.36 84.86 50.12 84.71 Z" />
<path fill="#ccd9d7" opacity="1.00" d=" M 61.09 79.51 C 62.01 79.29 62.94 79.09 63.87 78.92 C 64.36 78.84 65.34 78.70 65.82 78.62 C 64.40 79.86 63.03 81.14 61.59 82.35 C 57.14 84.56 52.86 87.15 49.05 90.35 C 49.06 89.50 49.07 87.80 49.07 86.95 C 53.19 84.65 57.03 81.89 61.09 79.51 Z" />
<path fill="#465780" opacity="0.89" d=" M 33.06 79.70 C 38.58 82.94 44.49 85.73 49.05 90.35 L 49.02 91.23 C 43.20 88.41 35.25 86.63 33.06 79.70 Z" />
<path fill="#b5b9a3" opacity="0.93" d=" M 49.00 92.12 C 53.88 89.48 58.70 86.73 63.49 83.93 C 62.92 85.42 62.39 86.91 61.81 88.40 C 57.24 91.26 52.32 93.83 48.73 97.98 C 44.81 96.11 41.26 93.57 37.68 91.12 C 38.13 90.92 39.03 90.53 39.49 90.33 C 42.65 92.25 45.77 94.23 48.91 96.20 C 48.93 94.84 48.96 93.48 49.00 92.12 Z" />
</svg>
