<?xml version="1.0" encoding="UTF-8" ?>
<!DOCTYPE svg PUBLIC "-//W3C//DTD SVG 1.1//EN" "http://www.w3.org/Graphics/SVG/1.1/DTD/svg11.dtd">
<svg width="100pt" height="100pt" viewBox="0 0 100 100" version="1.1" xmlns="http://www.w3.org/2000/svg">
<path fill="#0b0540" opacity="0.86" d=" M 48.39 0.00 L 50.48 0.00 C 56.69 4.42 63.36 8.16 69.32 12.94 L 68.46 12.93 C 61.65 9.69 56.21 3.97 48.99 1.58 C 48.56 1.80 47.70 2.26 47.27 2.49 C 45.57 3.51 43.83 4.47 42.21 5.60 C 40.34 6.89 38.43 8.12 36.55 9.38 C 29.06 13.66 21.93 18.51 14.48 22.87 C 13.38 33.88 14.20 44.96 14.05 56.00 C 14.32 62.99 13.16 70.12 14.84 76.99 C 22.19 82.17 30.17 86.41 37.73 91.28 C 41.35 93.59 44.86 96.11 48.75 97.97 C 53.87 96.64 58.05 93.25 62.45 90.48 C 66.13 88.03 70.02 85.90 73.97 83.91 C 66.50 90.13 57.68 94.38 49.77 100.00 L 48.51 100.00 C 37.18 91.91 25.07 85.00 13.25 77.66 C 12.98 59.23 12.98 40.79 13.27 22.36 C 25.08 15.06 36.87 7.73 48.39 0.00 Z" />
<path fill="#bec4b3" opacity="0.89" d=" M 48.99 1.58 C 56.21 3.97 61.65 9.69 68.46 12.93 C 67.21 12.93 65.96 12.93 64.72 12.97 C 61.31 10.58 57.21 10.16 53.21 9.70 C 49.91 9.23 49.57 5.24 49.02 2.63 L 48.99 1.58 Z" />
<path fill="#3c4875" opacity="0.87" d=" M 47.27 2.49 C 47.70 2.26 48.56 1.80 48.99 1.58 L 49.02 2.63 C 49.06 5.05 49.04 7.48 48.93 9.90 C 47.05 10.93 45.18 11.97 43.31 13.02 C 44.82 9.58 46.28 6.12 47.27 2.49 Z" />
<path fill="#737a8d" opacity="0.87" d=" M 42.21 5.60 C 43.83 4.47 45.57 3.51 47.27 2.49 C 46.28 6.12 44.82 9.58 43.31 13.02 C 45.18 11.97 47.05 10.93 48.93 9.90 C 49.96 11.53 50.88 13.23 52.06 14.76 C 52.33 15.16 52.89 15.97 53.17 16.37 C 49.65 16.63 46.20 17.56 43.13 19.34 C 41.78 19.57 40.41 19.74 39.04 19.90 C 40.77 17.92 42.52 15.96 44.29 14.01 C 41.55 14.87 38.77 15.61 36.07 16.59 C 38.17 12.96 39.77 9.04 42.21 5.60 Z" />
<path fill="#919ea0" opacity="0.89" d=" M 49.02 2.63 C 49.57 5.24 49.91 9.23 53.21 9.70 C 57.21 10.16 61.31 10.58 64.72 12.97 C 64.10 14.76 63.56 16.58 62.93 18.37 C 58.18 15.69 53.85 12.30 48.93 9.90 C 49.04 7.48 49.06 5.05 49.02 2.63 Z" />
<path fill="#cdccb9" opacity="0.91" d=" M 36.55 9.38 C 38.43 8.12 40.34 6.89 42.21 5.60 C 39.77 9.04 38.17 12.96 36.07 16.59 C 31.20 18.90 26.57 21.67 21.85 24.25 C 21.47 23.38 21.09 22.51 20.71 21.65 C 26.05 17.72 33.76 15.96 36.55 9.38 Z" />
<path fill="#dbdbc8" opacity="0.93" d=" M 14.48 22.87 C 21.93 18.51 29.06 13.66 36.55 9.38 C 33.76 15.96 26.05 17.72 20.71 21.65 C 19.41 22.45 18.15 23.33 16.89 24.20 C 16.15 33.23 16.04 42.29 16.47 51.34 C 15.62 58.68 16.25 66.06 16.46 73.41 L 15.92 74.10 L 15.33 74.70 C 15.19 57.42 15.14 40.13 14.48 22.87 Z" />
<path fill="#c3ccd0" opacity="0.98" d=" M 48.93 9.90 C 53.85 12.30 58.18 15.69 62.93 18.37 C 63.88 18.81 64.86 19.21 65.86 19.56 C 65.27 20.42 64.66 21.27 64.03 22.10 C 60.20 19.40 56.09 17.14 52.06 14.76 C 50.88 13.23 49.96 11.53 48.93 9.90 Z" />
<path fill="#6f78b1" opacity="0.82" d=" M 64.72 12.97 C 65.96 12.93 67.21 12.93 68.46 12.93 L 69.32 12.94 C 72.30 15.78 75.67 18.17 78.67 20.98 C 76.24 20.03 73.79 19.12 71.36 18.20 C 71.77 19.12 72.19 20.05 72.62 20.97 C 70.36 20.52 68.09 20.14 65.86 19.56 C 64.86 19.21 63.88 18.81 62.93 18.37 C 63.56 16.58 64.10 14.76 64.72 12.97 Z" />
<path fill="#393b91" opacity="1.00" d=" M 69.32 12.94 C 74.57 16.33 80.79 18.54 85.06 23.24 C 85.63 25.78 85.50 28.41 85.52 30.99 C 85.34 44.68 85.45 58.38 85.50 72.07 C 85.28 74.06 85.76 76.56 84.03 78.01 C 81.13 80.67 77.40 82.10 73.97 83.91 C 76.45 81.89 78.80 79.72 81.31 77.75 C 82.27 77.42 83.24 77.11 84.21 76.81 C 84.17 73.75 84.25 70.68 84.06 67.62 C 84.07 65.32 82.95 63.25 81.98 61.24 C 82.85 56.20 83.31 51.10 83.25 45.99 C 83.15 38.90 83.41 31.81 83.78 24.72 C 82.29 24.42 80.79 24.11 79.30 23.80 C 79.10 22.86 78.91 21.91 78.67 20.98 C 75.67 18.17 72.30 15.78 69.32 12.94 Z" />
<path fill="#97a091" opacity="0.87" d=" M 36.07 16.59 C 38.77 15.61 41.55 14.87 44.29 14.01 C 42.52 15.96 40.77 17.92 39.04 19.90 C 40.41 19.74 41.78 19.57 43.13 19.34 C 40.40 21.17 37.73 23.09 35.06 25.03 C 31.86 26.63 28.49 27.83 25.14 29.04 C 29.80 25.64 34.29 21.97 38.31 17.82 C 32.08 20.35 25.82 23.49 21.26 28.57 C 21.32 29.02 21.44 29.93 21.50 30.38 C 21.77 32.63 22.18 34.86 22.35 37.12 C 22.10 39.17 21.81 41.22 21.65 43.28 C 21.17 38.22 21.16 32.95 18.75 28.33 C 17.53 35.98 19.40 43.94 16.47 51.34 C 16.04 42.29 16.15 33.23 16.89 24.20 C 18.15 23.33 19.41 22.45 20.71 21.65 C 21.09 22.51 21.47 23.38 21.85 24.25 C 26.57 21.67 31.20 18.90 36.07 16.59 Z" />
<path fill="#5a636e" opacity="0.85" d=" M 52.06 14.76 C 56.09 17.14 60.20 19.40 64.03 22.10 C 65.74 23.24 67.47 24.36 69.24 25.40 C 67.47 27.19 65.71 28.99 63.95 30.78 C 65.42 30.37 66.90 29.96 68.37 29.55 C 67.15 31.86 65.92 34.16 64.69 36.45 C 59.45 32.73 54.57 28.44 51.16 22.92 C 51.15 24.20 51.14 25.47 51.13 26.75 L 50.60 26.31 C 49.97 25.81 49.34 25.31 48.71 24.81 C 48.44 24.60 47.90 24.17 47.63 23.95 L 47.23 24.82 C 43.85 30.23 38.74 34.10 33.57 37.66 C 30.24 39.78 28.80 43.54 27.16 46.93 C 25.71 48.50 24.12 49.92 22.51 51.32 C 22.17 48.65 21.81 45.97 21.65 43.28 C 21.81 41.22 22.10 39.17 22.35 37.12 C 22.65 35.99 22.96 34.87 23.25 33.75 C 25.82 32.93 28.58 32.40 30.85 30.87 C 32.62 29.22 33.69 26.99 35.06 25.03 C 37.73 23.09 40.40 21.17 43.13 19.34 C 46.20 17.56 49.65 16.63 53.17 16.37 C 52.89 15.97 52.33 15.16 52.06 14.76 Z" />
<path fill="#ccdddf" opacity="1.00" d=" M 21.26 28.57 C 25.82 23.49 32.08 20.35 38.31 17.82 C 34.29 21.97 29.80 25.64 25.14 29.04 C 23.93 29.50 22.72 29.95 21.50 30.38 C 21.44 29.93 21.32 29.02 21.26 28.57 Z" />
<path fill="#353e8a" opacity="0.80" d=" M 71.36 18.20 C 73.79 19.12 76.24 20.03 78.67 20.98 C 78.91 21.91 79.10 22.86 79.30 23.80 C 80.79 24.11 82.29 24.42 83.78 24.72 C 83.41 31.81 83.15 38.90 83.25 45.99 C 82.69 45.97 81.55 45.92 80.99 45.89 C 81.21 43.24 81.30 40.58 81.39 37.92 C 80.19 38.85 79.00 39.78 77.81 40.72 C 77.00 36.08 77.42 31.08 80.63 27.41 C 74.64 27.48 70.56 22.51 65.86 19.56 C 68.09 20.14 70.36 20.52 72.62 20.97 C 72.19 20.05 71.77 19.12 71.36 18.20 Z" />
<path fill="#7c8eb4" opacity="0.91" d=" M 65.86 19.56 C 70.56 22.51 74.64 27.48 80.63 27.41 C 77.42 31.08 77.00 36.08 77.81 40.72 C 79.50 48.13 79.14 55.74 78.48 63.25 C 78.41 56.29 78.62 49.29 77.63 42.38 C 76.68 47.60 76.32 52.90 76.29 58.20 C 76.23 54.71 75.97 51.23 75.91 47.74 C 75.99 45.45 76.08 43.17 76.19 40.89 C 76.25 37.38 76.63 33.76 75.61 30.35 C 74.17 28.00 71.44 26.90 69.24 25.40 C 67.47 24.36 65.74 23.24 64.03 22.10 C 64.66 21.27 65.27 20.42 65.86 19.56 Z" />
<path fill="#c4b495" opacity="1.00" d=" M 14.05 56.00 C 14.20 44.96 13.38 33.88 14.48 22.87 C 15.14 40.13 15.19 57.42 15.33 74.70 L 15.14 75.50 C 15.07 75.87 14.91 76.62 14.84 76.99 C 13.16 70.12 14.32 62.99 14.05 56.00 Z" />
<path fill="#93a1b4" opacity="0.95" d=" M 51.16 22.92 C 54.57 28.44 59.45 32.73 64.69 36.45 C 67.16 38.58 69.30 41.07 71.44 43.53 C 71.01 43.78 70.15 44.28 69.71 44.53 C 65.11 37.04 56.75 33.32 51.13 26.75 C 51.14 25.47 51.15 24.20 51.16 22.92 Z" />
<path fill="#cdccb9" opacity="0.91" d=" M 47.63 23.95 C 47.90 24.17 48.44 24.60 48.71 24.81 C 47.86 32.11 42.62 37.54 36.99 41.70 C 35.37 42.98 33.75 44.27 32.14 45.57 C 35.44 44.28 38.91 43.86 42.36 44.79 C 39.96 45.47 37.34 45.82 35.23 47.25 C 34.57 49.28 34.50 51.43 34.25 53.53 C 33.20 50.46 29.84 46.68 32.63 43.64 C 35.80 39.79 40.18 37.12 43.22 33.15 C 45.15 30.70 46.08 27.67 47.23 24.82 L 47.63 23.95 Z" />
<path fill="#6a8a92" opacity="0.93" d=" M 25.14 29.04 C 28.49 27.83 31.86 26.63 35.06 25.03 C 33.69 26.99 32.62 29.22 30.85 30.87 C 28.58 32.40 25.82 32.93 23.25 33.75 C 22.96 34.87 22.65 35.99 22.35 37.12 C 22.18 34.86 21.77 32.63 21.50 30.38 C 22.72 29.95 23.93 29.50 25.14 29.04 Z" />
<path fill="#0a0534" opacity="0.68" d=" M 33.57 37.66 C 38.74 34.10 43.85 30.23 47.23 24.82 C 46.08 27.67 45.15 30.70 43.22 33.15 C 40.18 37.12 35.80 39.79 32.63 43.64 C 29.84 46.68 33.20 50.46 34.25 53.53 C 37.95 51.73 41.61 49.14 42.36 44.79 C 38.91 43.86 35.44 44.28 32.14 45.57 C 33.75 44.27 35.37 42.98 36.99 41.70 C 39.36 42.29 41.73 42.92 44.14 43.37 C 43.56 46.41 44.21 50.30 41.43 52.43 C 38.82 54.77 35.14 54.72 31.85 54.97 C 32.59 57.85 33.35 60.71 34.01 63.61 C 32.74 61.80 31.51 59.99 30.68 57.93 C 29.54 54.26 28.58 50.52 27.16 46.93 C 28.80 43.54 30.24 39.78 33.57 37.66 Z" />
<path fill="#747e8c" opacity="0.84" d=" M 48.71 24.81 C 49.34 25.31 49.97 25.81 50.60 26.31 C 51.83 28.81 52.92 31.38 54.19 33.86 C 55.06 36.22 57.06 37.70 59.30 38.68 C 62.29 40.56 64.52 43.33 66.69 46.07 C 64.18 44.53 61.81 42.62 58.94 41.81 C 56.46 42.00 54.51 43.87 52.40 45.02 C 52.29 44.72 52.07 44.13 51.95 43.84 C 51.87 45.16 51.82 46.49 51.78 47.82 C 49.88 47.76 47.97 47.74 46.06 47.72 C 45.91 46.22 45.69 44.72 45.49 43.22 C 45.15 43.26 44.47 43.33 44.14 43.37 C 41.73 42.92 39.36 42.29 36.99 41.70 C 42.62 37.54 47.86 32.11 48.71 24.81 Z" />
<path fill="#0b0530" opacity="0.62" d=" M 50.60 26.31 L 51.13 26.75 C 56.75 33.32 65.11 37.04 69.71 44.53 C 70.15 44.28 71.01 43.78 71.44 43.53 L 72.05 43.18 C 71.48 44.95 70.87 46.70 70.34 48.48 C 69.11 47.68 67.89 46.89 66.69 46.07 C 64.52 43.33 62.29 40.56 59.30 38.68 C 57.54 37.13 55.85 35.50 54.19 33.86 C 52.92 31.38 51.83 28.81 50.60 26.31 Z" />
<path fill="#4b5387" opacity="0.87" d=" M 63.95 30.78 C 65.71 28.99 67.47 27.19 69.24 25.40 C 71.44 26.90 74.17 28.00 75.61 30.35 C 76.63 33.76 76.25 37.38 76.19 40.89 C 75.66 41.18 74.60 41.76 74.07 42.05 C 73.57 42.34 72.56 42.90 72.05 43.18 L 71.44 43.53 C 69.30 41.07 67.16 38.58 64.69 36.45 C 65.92 34.16 67.15 31.86 68.37 29.55 C 66.90 29.96 65.42 30.37 63.95 30.78 Z" />
<path fill="#5478a4" opacity="0.81" d=" M 18.75 28.33 C 21.16 32.95 21.17 38.22 21.65 43.28 C 21.81 45.97 22.17 48.65 22.51 51.32 C 24.12 49.92 25.71 48.50 27.16 46.93 C 28.58 50.52 29.54 54.26 30.68 57.93 C 29.59 60.39 28.53 62.87 27.55 65.38 C 25.53 65.41 23.52 65.60 21.51 65.64 C 21.52 58.70 20.85 51.77 19.52 44.96 C 18.41 50.57 17.96 56.31 18.48 62.01 C 18.68 65.88 19.73 70.45 16.46 73.41 C 16.25 66.06 15.62 58.68 16.47 51.34 C 19.40 43.94 17.53 35.98 18.75 28.33 Z" />
<path fill="#abbbc6" opacity="0.94" d=" M 59.30 38.68 C 57.06 37.70 55.06 36.22 54.19 33.86 C 55.85 35.50 57.54 37.13 59.30 38.68 Z" />
<path fill="#4e58a0" opacity="0.80" d=" M 77.81 40.72 C 79.00 39.78 80.19 38.85 81.39 37.92 C 81.30 40.58 81.21 43.24 80.99 45.89 C 80.71 50.99 78.94 56.60 81.98 61.24 C 82.95 63.25 84.07 65.32 84.06 67.62 C 83.66 70.05 82.99 72.42 82.42 74.81 C 74.46 73.99 69.14 81.31 61.58 82.37 C 63.05 81.15 64.45 79.86 65.91 78.64 C 69.69 76.66 73.80 75.01 76.94 72.04 C 78.56 69.48 78.17 66.17 78.48 63.25 C 79.14 55.74 79.50 48.13 77.81 40.72 Z" />
<path fill="#3253b9" opacity="0.93" d=" M 74.07 42.05 C 74.60 41.76 75.66 41.18 76.19 40.89 C 76.08 43.17 75.99 45.45 75.91 47.74 C 75.71 53.41 73.84 58.85 70.68 63.55 C 69.95 63.59 68.47 63.65 67.73 63.68 C 70.17 56.57 72.34 49.37 74.07 42.05 Z" />
<path fill="#0b0540" opacity="0.86" d=" M 52.40 45.02 C 54.51 43.87 56.46 42.00 58.94 41.81 C 61.81 42.62 64.18 44.53 66.69 46.07 C 67.89 46.89 69.11 47.68 70.34 48.48 C 68.67 54.46 66.77 60.38 64.28 66.08 C 64.63 62.84 64.97 59.57 66.09 56.49 C 66.42 55.54 66.77 54.60 67.14 53.67 C 64.04 54.67 60.47 55.54 57.56 53.51 C 54.23 51.98 53.78 48.00 52.40 45.02 M 55.88 45.23 C 54.88 48.07 57.67 49.81 59.35 51.55 C 60.59 52.60 63.17 54.29 64.21 52.17 C 65.47 50.53 64.80 48.41 64.72 46.54 C 62.30 44.68 58.39 42.00 55.88 45.23 Z" />
<path fill="#9daac6" opacity="0.96" d=" M 72.05 43.18 C 72.56 42.90 73.57 42.34 74.07 42.05 C 72.34 49.37 70.17 56.57 67.73 63.68 C 66.94 65.87 66.03 68.02 65.02 70.11 C 64.22 70.05 63.41 69.99 62.61 69.93 C 63.24 68.68 63.78 67.38 64.28 66.08 C 66.77 60.38 68.67 54.46 70.34 48.48 C 70.87 46.70 71.48 44.95 72.05 43.18 Z" />
<path fill="#a8becf" opacity="0.98" d=" M 44.14 43.37 C 44.47 43.33 45.15 43.26 45.49 43.22 C 45.69 44.72 45.91 46.22 46.06 47.72 C 45.35 50.13 44.62 52.89 42.33 54.30 C 39.87 55.85 37.04 56.66 34.32 57.62 C 35.01 59.77 35.76 61.90 36.46 64.04 C 36.70 63.58 37.16 62.68 37.40 62.23 C 38.62 61.24 39.89 60.31 41.20 59.43 C 41.83 60.09 42.48 60.73 43.15 61.37 C 39.26 62.88 36.85 66.20 35.64 70.08 C 34.99 67.95 34.66 65.74 34.01 63.61 C 33.35 60.71 32.59 57.85 31.85 54.97 C 35.14 54.72 38.82 54.77 41.43 52.43 C 44.21 50.30 43.56 46.41 44.14 43.37 Z" />
<path fill="#b9c5d3" opacity="0.96" d=" M 76.29 58.20 C 76.32 52.90 76.68 47.60 77.63 42.38 C 78.62 49.29 78.41 56.29 78.48 63.25 C 78.17 66.17 78.56 69.48 76.94 72.04 C 73.80 75.01 69.69 76.66 65.91 78.64 C 65.18 78.77 63.71 79.03 62.98 79.17 C 65.78 77.29 68.57 75.41 71.43 73.63 C 72.78 72.69 74.26 71.82 75.24 70.47 C 75.93 67.67 75.95 64.75 76.14 61.89 C 76.20 60.66 76.25 59.43 76.29 58.20 Z" />
<path fill="#8ca1c1" opacity="0.98" d=" M 51.95 43.84 C 52.07 44.13 52.29 44.72 52.40 45.02 C 53.78 48.00 54.23 51.98 57.56 53.51 C 60.47 55.54 64.04 54.67 67.14 53.67 C 66.77 54.60 66.42 55.54 66.09 56.49 C 59.79 58.19 53.49 53.91 51.78 47.82 C 51.82 46.49 51.87 45.16 51.95 43.84 Z" />
<path fill="#a2afc2" opacity="1.00" d=" M 55.88 45.23 C 58.39 42.00 62.30 44.68 64.72 46.54 C 62.45 46.27 60.16 46.18 57.89 45.91 C 58.37 47.79 58.77 49.70 59.35 51.55 C 57.67 49.81 54.88 48.07 55.88 45.23 Z" />
<path fill="#294365" opacity="0.66" d=" M 19.52 44.96 C 20.85 51.77 21.52 58.70 21.51 65.64 C 21.24 67.42 20.82 69.18 20.24 70.89 C 18.84 72.01 17.35 73.02 15.92 74.10 L 16.46 73.41 C 19.73 70.45 18.68 65.88 18.48 62.01 C 17.96 56.31 18.41 50.57 19.52 44.96 Z" />
<path fill="#687a9a" opacity="0.89" d=" M 35.23 47.25 C 37.34 45.82 39.96 45.47 42.36 44.79 C 41.61 49.14 37.95 51.73 34.25 53.53 C 34.50 51.43 34.57 49.28 35.23 47.25 Z" />
<path fill="#556598" opacity="0.95" d=" M 57.89 45.91 C 60.16 46.18 62.45 46.27 64.72 46.54 C 64.80 48.41 65.47 50.53 64.21 52.17 C 63.17 54.29 60.59 52.60 59.35 51.55 C 58.77 49.70 58.37 47.79 57.89 45.91 Z" />
<path fill="#0825d0" opacity="0.82" d=" M 80.99 45.89 C 81.55 45.92 82.69 45.97 83.25 45.99 C 83.31 51.10 82.85 56.20 81.98 61.24 C 78.94 56.60 80.71 50.99 80.99 45.89 Z" />
<path fill="#5e78a9" opacity="0.95" d=" M 46.06 47.72 C 47.97 47.74 49.88 47.76 51.78 47.82 C 53.49 53.91 59.79 58.19 66.09 56.49 C 64.97 59.57 64.63 62.84 64.28 66.08 C 63.78 67.38 63.24 68.68 62.61 69.93 C 61.80 70.77 60.97 71.58 60.12 72.38 C 58.86 72.01 57.59 71.65 56.32 71.30 C 56.76 69.92 57.19 68.54 57.58 67.15 C 56.63 66.61 55.57 66.34 54.51 66.15 C 55.11 64.80 55.73 63.45 56.33 62.09 C 58.63 63.39 60.94 64.67 63.31 65.83 C 62.71 63.01 61.77 60.03 58.95 58.69 C 56.72 58.73 54.50 58.93 52.28 59.15 C 51.31 56.33 50.33 53.52 49.30 50.73 C 49.30 53.94 49.31 57.16 49.51 60.37 C 49.14 59.52 48.78 58.66 48.41 57.81 C 48.24 57.39 47.91 56.54 47.74 56.12 C 47.48 56.65 46.96 57.70 46.70 58.23 C 45.71 58.31 44.72 58.41 43.74 58.54 C 41.90 58.75 40.06 59.02 38.23 59.37 C 37.76 60.27 37.48 61.22 37.40 62.23 C 37.16 62.68 36.70 63.58 36.46 64.04 C 35.76 61.90 35.01 59.77 34.32 57.62 C 37.04 56.66 39.87 55.85 42.33 54.30 C 44.62 52.89 45.35 50.13 46.06 47.72 Z" />
<path fill="#0b2990" opacity="0.87" d=" M 70.68 63.55 C 73.84 58.85 75.71 53.41 75.91 47.74 C 75.97 51.23 76.23 54.71 76.29 58.20 C 76.25 59.43 76.20 60.66 76.14 61.89 C 75.20 63.51 74.61 66.14 72.38 66.35 C 71.21 66.57 70.02 66.69 68.84 66.84 C 69.43 65.73 70.05 64.64 70.68 63.55 Z" />
<path fill="#a8bad2" opacity="0.98" d=" M 49.30 50.73 C 50.33 53.52 51.31 56.33 52.28 59.15 C 51.58 60.14 50.88 61.12 50.17 62.10 C 50.00 61.67 49.67 60.80 49.51 60.37 C 49.31 57.16 49.30 53.94 49.30 50.73 Z" />
<path fill="#8fabc9" opacity="0.98" d=" M 47.74 56.12 C 47.91 56.54 48.24 57.39 48.41 57.81 C 48.38 59.88 48.24 61.95 48.16 64.02 C 46.69 62.19 45.23 60.35 43.74 58.54 C 44.72 58.41 45.71 58.31 46.70 58.23 C 46.96 57.70 47.48 56.65 47.74 56.12 Z" />
<path fill="#649cb3" opacity="0.95" d=" M 27.55 65.38 C 28.53 62.87 29.59 60.39 30.68 57.93 C 31.51 59.99 32.74 61.80 34.01 63.61 C 34.66 65.74 34.99 67.95 35.64 70.08 C 36.85 66.20 39.26 62.88 43.15 61.37 C 45.82 64.60 47.09 68.70 47.68 72.79 C 47.68 73.26 47.70 74.21 47.70 74.68 C 44.69 75.54 41.67 76.35 38.69 77.34 C 37.42 76.80 36.11 76.33 34.81 75.86 C 38.65 79.29 43.19 81.81 47.14 85.10 C 47.85 85.73 48.55 86.37 49.24 87.03 C 49.18 87.87 49.06 89.54 49.00 90.38 C 44.30 86.17 38.71 83.18 33.60 79.53 C 34.20 79.65 35.39 79.89 35.99 80.01 C 31.26 76.26 26.57 71.51 20.24 70.89 C 20.82 69.18 21.24 67.42 21.51 65.64 C 23.52 65.60 25.53 65.41 27.55 65.38 Z" />
<path fill="#0d0644" opacity="0.88" d=" M 38.23 59.37 C 40.06 59.02 41.90 58.75 43.74 58.54 C 45.23 60.35 46.69 62.19 48.16 64.02 C 48.24 61.95 48.38 59.88 48.41 57.81 C 48.78 58.66 49.14 59.52 49.51 60.37 C 49.67 60.80 50.00 61.67 50.17 62.10 C 50.88 61.12 51.58 60.14 52.28 59.15 C 54.50 58.93 56.72 58.73 58.95 58.69 C 59.70 60.01 60.47 61.33 61.23 62.65 C 59.25 61.68 57.25 60.74 55.24 59.84 C 52.82 64.21 51.48 69.34 47.68 72.79 C 47.09 68.70 45.82 64.60 43.15 61.37 C 42.48 60.73 41.83 60.09 41.20 59.43 C 39.89 60.31 38.62 61.24 37.40 62.23 C 37.48 61.22 37.76 60.27 38.23 59.37 Z" />
<path fill="#a2bbc8" opacity="0.98" d=" M 58.95 58.69 C 61.77 60.03 62.71 63.01 63.31 65.83 C 60.94 64.67 58.63 63.39 56.33 62.09 C 55.73 63.45 55.11 64.80 54.51 66.15 C 52.90 69.39 51.64 73.65 47.70 74.68 C 47.70 74.21 47.68 73.26 47.68 72.79 C 51.48 69.34 52.82 64.21 55.24 59.84 C 57.25 60.74 59.25 61.68 61.23 62.65 C 60.47 61.33 59.70 60.01 58.95 58.69 Z" />
<path fill="#334c84" opacity="0.87" d=" M 72.38 66.35 C 74.61 66.14 75.20 63.51 76.14 61.89 C 75.95 64.75 75.93 67.67 75.24 70.47 C 74.26 71.82 72.78 72.69 71.43 73.63 C 71.85 72.38 72.27 71.12 72.69 69.86 C 69.23 71.61 65.76 73.35 62.31 75.11 C 63.24 73.46 64.15 71.80 65.02 70.11 C 66.03 68.02 66.94 65.87 67.73 63.68 C 68.47 63.65 69.95 63.59 70.68 63.55 C 70.05 64.64 69.43 65.73 68.84 66.84 C 70.02 66.69 71.21 66.57 72.38 66.35 Z" />
<path fill="#819f90" opacity="0.94" d=" M 47.70 74.68 C 51.64 73.65 52.90 69.39 54.51 66.15 C 55.57 66.34 56.63 66.61 57.58 67.15 C 57.19 68.54 56.76 69.92 56.32 71.30 C 57.59 71.65 58.86 72.01 60.12 72.38 C 57.32 74.92 54.71 77.66 52.23 80.52 C 52.87 80.81 54.15 81.40 54.79 81.70 C 53.23 82.40 51.66 83.11 50.09 83.80 C 46.23 81.76 42.57 79.36 38.69 77.34 C 41.67 76.35 44.69 75.54 47.70 74.68 Z" />
<path fill="#7c83a8" opacity="0.93" d=" M 82.42 74.81 C 82.99 72.42 83.66 70.05 84.06 67.62 C 84.25 70.68 84.17 73.75 84.21 76.81 C 83.24 77.11 82.27 77.42 81.31 77.75 C 74.06 79.73 68.38 84.94 61.83 88.38 C 62.39 86.90 62.94 85.42 63.50 83.94 C 58.68 86.71 53.85 89.49 48.96 92.16 L 48.97 91.25 L 49.00 90.38 C 52.81 87.15 57.13 84.60 61.58 82.37 C 69.14 81.31 74.46 73.99 82.42 74.81 Z" />
<path fill="#a1c7cb" opacity="1.00" d=" M 20.24 70.89 C 26.57 71.51 31.26 76.26 35.99 80.01 C 35.39 79.89 34.20 79.65 33.60 79.53 C 29.61 77.02 25.43 74.83 21.35 72.48 C 21.07 72.08 20.52 71.29 20.24 70.89 Z" />
<path fill="#808266" opacity="0.86" d=" M 60.12 72.38 C 60.97 71.58 61.80 70.77 62.61 69.93 C 63.41 69.99 64.22 70.05 65.02 70.11 C 64.15 71.80 63.24 73.46 62.31 75.11 C 65.76 73.35 69.23 71.61 72.69 69.86 C 72.27 71.12 71.85 72.38 71.43 73.63 C 68.57 75.41 65.78 77.29 62.98 79.17 C 58.25 81.51 53.79 84.36 49.24 87.03 C 48.55 86.37 47.85 85.73 47.14 85.10 C 48.12 84.67 49.11 84.24 50.09 83.80 C 51.66 83.11 53.23 82.40 54.79 81.70 C 54.15 81.40 52.87 80.81 52.23 80.52 C 54.71 77.66 57.32 74.92 60.12 72.38 Z" />
<path fill="#8ea29a" opacity="0.82" d=" M 15.92 74.10 C 17.35 73.02 18.84 72.01 20.24 70.89 C 20.52 71.29 21.07 72.08 21.35 72.48 C 23.53 75.63 26.07 78.62 27.35 82.29 C 23.23 80.11 19.23 77.73 15.14 75.50 L 15.33 74.70 L 15.92 74.10 Z" />
<path fill="#627aa8" opacity="0.80" d=" M 21.35 72.48 C 25.43 74.83 29.61 77.02 33.60 79.53 C 34.16 80.90 34.01 82.68 35.27 83.68 C 39.24 87.15 44.26 89.03 48.97 91.25 L 48.96 92.16 C 48.98 93.49 48.95 94.83 48.89 96.17 C 45.72 94.22 42.54 92.28 39.46 90.18 C 35.52 87.41 31.50 84.74 27.35 82.29 C 26.07 78.62 23.53 75.63 21.35 72.48 Z" />
<path fill="#dfe2d6" opacity="1.00" d=" M 15.14 75.50 C 19.23 77.73 23.23 80.11 27.35 82.29 C 31.50 84.74 35.52 87.41 39.46 90.18 C 39.03 90.46 38.16 91.01 37.73 91.28 C 30.17 86.41 22.19 82.17 14.84 76.99 C 14.91 76.62 15.07 75.87 15.14 75.50 Z" />
<path fill="#b4baa6" opacity="0.94" d=" M 34.81 75.86 C 36.11 76.33 37.42 76.80 38.69 77.34 C 42.57 79.36 46.23 81.76 50.09 83.80 C 49.11 84.24 48.12 84.67 47.14 85.10 C 43.19 81.81 38.65 79.29 34.81 75.86 Z" />
<path fill="#c5cbd5" opacity="1.00" d=" M 61.83 88.38 C 68.38 84.94 74.06 79.73 81.31 77.75 C 78.80 79.72 76.45 81.89 73.97 83.91 C 70.02 85.90 66.13 88.03 62.45 90.48 C 58.05 93.25 53.87 96.64 48.75 97.97 C 52.42 93.92 57.21 91.18 61.83 88.38 Z" />
<path fill="#cddad9" opacity="1.00" d=" M 49.24 87.03 C 53.79 84.36 58.25 81.51 62.98 79.17 C 63.71 79.03 65.18 78.77 65.91 78.64 C 64.45 79.86 63.05 81.15 61.58 82.37 C 57.13 84.60 52.81 87.15 49.00 90.38 C 49.06 89.54 49.18 87.87 49.24 87.03 Z" />
<path fill="#3c4875" opacity="0.87" d=" M 35.27 83.68 C 34.01 82.68 34.16 80.90 33.60 79.53 C 38.71 83.18 44.30 86.17 49.00 90.38 L 48.97 91.25 C 44.26 89.03 39.24 87.15 35.27 83.68 Z" />
<path fill="#b5b9a3" opacity="0.93" d=" M 48.96 92.16 C 53.85 89.49 58.68 86.71 63.50 83.94 C 62.94 85.42 62.39 86.90 61.83 88.38 C 57.21 91.18 52.42 93.92 48.75 97.97 C 44.86 96.11 41.35 93.59 37.73 91.28 C 38.16 91.01 39.03 90.46 39.46 90.18 C 42.54 92.28 45.72 94.22 48.89 96.17 C 48.95 94.83 48.98 93.49 48.96 92.16 Z" />
</svg>
