<?xml version="1.0" encoding="UTF-8" ?>
<!DOCTYPE svg PUBLIC "-//W3C//DTD SVG 1.1//EN" "http://www.w3.org/Graphics/SVG/1.1/DTD/svg11.dtd">
<svg width="100pt" height="100pt" viewBox="0 0 100 100" version="1.1" xmlns="http://www.w3.org/2000/svg">
<path fill="#0d0744" opacity="0.87" d=" M 48.40 0.00 L 50.50 0.00 C 56.60 4.60 63.52 8.01 69.31 13.03 L 68.43 13.01 C 61.68 9.67 56.22 3.95 49.00 1.60 C 48.58 1.84 47.72 2.31 47.30 2.55 C 45.60 3.55 43.88 4.52 42.24 5.60 C 40.33 6.84 38.43 8.08 36.60 9.43 C 29.05 13.60 21.97 18.54 14.50 22.86 C 13.35 34.86 14.28 46.96 14.07 59.00 C 14.37 64.98 13.07 71.18 14.97 76.99 C 22.20 82.20 30.11 86.46 37.70 91.13 C 41.28 93.57 44.81 96.11 48.75 97.95 C 52.97 97.02 56.46 94.34 60.04 92.05 C 64.52 89.06 69.11 86.23 73.97 83.89 C 66.54 90.19 57.62 94.30 49.76 100.00 L 48.51 100.00 C 37.22 91.87 25.09 85.02 13.29 77.66 C 13.04 59.23 13.06 40.78 13.30 22.35 C 25.10 15.06 36.90 7.76 48.40 0.00 Z" />
<path fill="#bec4b3" opacity="0.89" d=" M 49.00 1.60 C 56.22 3.95 61.68 9.67 68.43 13.01 C 67.16 13.00 65.89 13.00 64.63 12.89 C 62.49 11.94 60.50 10.40 58.10 10.25 C 56.24 10.05 54.32 10.25 52.52 9.66 C 49.80 8.49 49.51 5.20 49.05 2.65 L 49.00 1.60 Z" />
<path fill="#3c4875" opacity="0.87" d=" M 47.30 2.55 C 47.72 2.31 48.58 1.84 49.00 1.60 L 49.05 2.65 C 49.09 5.08 49.01 7.50 48.89 9.92 C 47.02 10.94 45.15 11.97 43.29 13.02 C 44.83 9.61 46.28 6.15 47.30 2.55 Z" />
<path fill="#737a8d" opacity="0.87" d=" M 42.24 5.60 C 43.88 4.52 45.60 3.55 47.30 2.55 C 46.28 6.15 44.83 9.61 43.29 13.02 C 45.15 11.97 47.02 10.94 48.89 9.92 C 50.43 13.76 54.10 15.88 57.42 18.00 C 54.55 18.06 51.74 17.41 49.07 16.38 C 47.11 17.37 45.16 18.41 43.22 19.45 C 41.84 19.62 40.45 19.71 39.06 19.82 C 40.79 17.85 42.55 15.92 44.33 14.00 C 41.59 14.88 38.82 15.66 36.09 16.60 C 38.34 13.04 39.57 8.90 42.24 5.60 Z" />
<path fill="#919ea0" opacity="0.89" d=" M 49.05 2.65 C 49.51 5.20 49.80 8.49 52.52 9.66 C 54.32 10.25 56.24 10.05 58.10 10.25 C 60.50 10.40 62.49 11.94 64.63 12.89 C 64.10 14.75 63.54 16.59 62.95 18.43 C 58.15 15.78 53.93 12.16 48.89 9.92 C 49.01 7.50 49.09 5.08 49.05 2.65 Z" />
<path fill="#cdccb9" opacity="0.91" d=" M 36.60 9.43 C 38.43 8.08 40.33 6.84 42.24 5.60 C 39.57 8.90 38.34 13.04 36.09 16.60 C 31.11 18.74 26.63 21.84 21.79 24.26 C 21.43 23.35 21.07 22.43 20.70 21.52 C 26.13 17.79 33.72 15.89 36.60 9.43 Z" />
<path fill="#dbdbc8" opacity="0.93" d=" M 14.50 22.86 C 21.97 18.54 29.05 13.60 36.60 9.43 C 33.72 15.89 26.13 17.79 20.70 21.52 C 18.58 22.65 16.31 24.25 16.87 26.97 C 15.50 35.02 16.50 43.20 16.44 51.32 C 15.56 58.65 16.28 66.01 16.41 73.36 L 15.82 73.98 L 15.07 74.46 C 15.63 64.98 15.04 55.49 15.00 46.00 C 14.88 38.29 15.01 30.56 14.50 22.86 Z" />
<path fill="#c3cdd2" opacity="1.00" d=" M 48.89 9.92 C 53.93 12.16 58.15 15.78 62.95 18.43 C 63.91 18.84 64.89 19.21 65.88 19.54 C 65.27 20.40 64.66 21.26 64.05 22.12 C 61.87 20.70 59.64 19.35 57.42 18.00 C 54.10 15.88 50.43 13.76 48.89 9.92 Z" />
<path fill="#6f78b1" opacity="0.82" d=" M 64.63 12.89 C 65.89 13.00 67.16 13.00 68.43 13.01 L 69.31 13.03 C 72.40 15.81 75.56 18.51 78.89 21.00 C 76.40 19.98 73.85 19.12 71.31 18.23 C 71.78 19.13 72.24 20.03 72.70 20.93 C 70.42 20.50 68.13 20.11 65.88 19.54 C 64.89 19.21 63.91 18.84 62.95 18.43 C 63.54 16.59 64.10 14.75 64.63 12.89 Z" />
<path fill="#393b91" opacity="1.00" d=" M 69.31 13.03 C 74.30 15.90 79.58 18.38 84.05 22.05 C 85.71 23.12 85.29 25.27 85.47 26.95 C 85.40 41.98 85.36 57.02 85.48 72.05 C 85.25 74.05 85.83 76.60 84.03 78.02 C 81.13 80.67 77.42 82.13 73.97 83.89 C 76.45 81.89 78.80 79.74 81.30 77.76 C 82.28 77.47 83.25 77.18 84.23 76.90 C 84.21 73.81 84.19 70.71 84.07 67.62 C 84.21 65.28 83.14 63.16 81.94 61.23 C 82.93 56.21 83.35 51.10 83.24 45.99 C 83.14 38.87 83.38 31.74 83.81 24.63 C 82.12 24.37 80.43 24.10 78.73 23.84 C 78.98 23.00 79.22 22.16 79.47 21.32 L 78.89 21.00 C 75.56 18.51 72.40 15.81 69.31 13.03 Z" />
<path fill="#97a091" opacity="0.87" d=" M 36.09 16.60 C 38.82 15.66 41.59 14.88 44.33 14.00 C 42.55 15.92 40.79 17.85 39.06 19.82 C 40.45 19.71 41.84 19.62 43.22 19.45 C 41.40 20.70 39.66 22.06 37.83 23.30 C 36.22 24.20 34.60 25.08 32.92 25.84 C 30.86 26.71 28.74 27.39 26.66 28.19 C 30.62 24.84 34.72 21.60 38.31 17.83 C 32.67 19.90 27.45 23.03 22.76 26.76 C 21.48 27.56 21.31 29.00 21.48 30.37 C 21.70 32.28 22.03 34.18 22.22 36.10 C 21.99 38.49 21.74 40.88 21.64 43.29 C 20.75 38.32 21.67 32.75 18.65 28.40 C 17.32 36.02 19.70 44.01 16.44 51.32 C 16.50 43.20 15.50 35.02 16.87 26.97 C 16.31 24.25 18.58 22.65 20.70 21.52 C 21.07 22.43 21.43 23.35 21.79 24.26 C 26.63 21.84 31.11 18.74 36.09 16.60 Z" />
<path fill="#545976" opacity="0.87" d=" M 43.22 19.45 C 45.16 18.41 47.11 17.37 49.07 16.38 C 51.74 17.41 54.55 18.06 57.42 18.00 C 59.64 19.35 61.87 20.70 64.05 22.12 C 67.90 24.87 72.43 26.84 75.64 30.38 C 76.65 33.77 76.27 37.36 76.21 40.84 C 72.69 40.97 69.12 41.63 66.17 43.66 C 65.04 44.34 63.93 45.05 62.80 45.74 C 60.43 46.34 58.09 47.04 55.76 47.78 C 58.11 43.71 61.15 40.08 64.59 36.88 C 64.25 36.53 63.56 35.83 63.22 35.48 C 63.28 35.07 63.40 34.24 63.47 33.83 C 63.97 34.05 64.96 34.49 65.46 34.71 C 66.11 31.99 66.77 29.27 67.40 26.55 C 66.18 28.09 64.96 29.65 63.84 31.27 C 63.77 30.85 63.62 30.00 63.54 29.58 C 63.31 28.40 63.06 27.23 62.79 26.05 C 61.49 27.75 60.17 29.44 58.96 31.21 C 59.03 30.91 59.17 30.32 59.23 30.02 C 58.21 28.63 56.94 27.33 55.23 26.84 C 49.62 24.92 43.77 23.51 37.83 23.30 C 39.66 22.06 41.40 20.70 43.22 19.45 Z" />
<path fill="#ccdddf" opacity="1.00" d=" M 22.76 26.76 C 27.45 23.03 32.67 19.90 38.31 17.83 C 34.72 21.60 30.62 24.84 26.66 28.19 C 24.94 28.93 23.21 29.65 21.48 30.37 C 21.31 29.00 21.48 27.56 22.76 26.76 Z" />
<path fill="#353e8a" opacity="0.80" d=" M 71.31 18.23 C 73.85 19.12 76.40 19.98 78.89 21.00 L 79.47 21.32 C 79.22 22.16 78.98 23.00 78.73 23.84 C 80.43 24.10 82.12 24.37 83.81 24.63 C 83.38 31.74 83.14 38.87 83.24 45.99 C 82.69 45.97 81.57 45.92 81.02 45.90 C 81.23 43.22 81.31 40.52 81.37 37.83 C 80.17 38.79 78.97 39.74 77.78 40.71 C 76.93 35.83 77.55 30.60 80.90 26.76 C 79.93 27.17 78.95 27.59 77.98 28.00 C 73.93 25.20 69.89 22.39 65.88 19.54 C 68.13 20.11 70.42 20.50 72.70 20.93 C 72.24 20.03 71.78 19.13 71.31 18.23 Z" />
<path fill="#7b8db4" opacity="0.90" d=" M 65.88 19.54 C 69.89 22.39 73.93 25.20 77.98 28.00 C 78.95 27.59 79.93 27.17 80.90 26.76 C 77.55 30.60 76.93 35.83 77.78 40.71 C 79.71 48.09 79.05 55.73 78.48 63.24 C 78.27 56.28 78.73 49.27 77.69 42.36 C 76.26 47.48 76.70 52.82 76.33 58.06 C 76.29 54.62 76.00 51.18 75.92 47.74 C 76.01 45.44 76.12 43.14 76.21 40.84 C 76.27 37.36 76.65 33.77 75.64 30.38 C 72.43 26.84 67.90 24.87 64.05 22.12 C 64.66 21.26 65.27 20.40 65.88 19.54 Z" />
<path fill="#c4b495" opacity="1.00" d=" M 14.07 59.00 C 14.28 46.96 13.35 34.86 14.50 22.86 C 15.01 30.56 14.88 38.29 15.00 46.00 C 15.04 55.49 15.63 64.98 15.07 74.46 L 15.04 75.24 C 15.02 75.68 14.98 76.55 14.97 76.99 C 13.07 71.18 14.37 64.98 14.07 59.00 Z" />
<path fill="#626f6d" opacity="0.83" d=" M 32.92 25.84 C 34.60 25.08 36.22 24.20 37.83 23.30 C 43.77 23.51 49.62 24.92 55.23 26.84 C 56.94 27.33 58.21 28.63 59.23 30.02 C 52.99 33.52 45.30 30.58 39.03 34.12 C 33.22 36.66 31.43 43.39 30.39 49.07 C 30.27 48.33 30.04 46.85 29.92 46.11 C 27.44 47.94 25.02 49.84 22.65 51.80 C 22.29 48.96 21.90 46.13 21.64 43.29 C 21.74 40.88 21.99 38.49 22.22 36.10 C 22.51 35.03 22.84 33.98 23.16 32.93 C 26.01 32.26 28.83 31.49 31.64 30.69 C 32.06 29.07 32.50 27.46 32.92 25.84 Z" />
<path fill="#6a8a9b" opacity="0.92" d=" M 26.66 28.19 C 28.74 27.39 30.86 26.71 32.92 25.84 C 32.50 27.46 32.06 29.07 31.64 30.69 C 28.83 31.49 26.01 32.26 23.16 32.93 C 22.84 33.98 22.51 35.03 22.22 36.10 C 22.03 34.18 21.70 32.28 21.48 30.37 C 23.21 29.65 24.94 28.93 26.66 28.19 Z" />
<path fill="#cdccb9" opacity="0.91" d=" M 62.79 26.05 C 63.06 27.23 63.31 28.40 63.54 29.58 C 61.78 30.79 60.02 32.01 58.26 33.22 C 58.43 32.72 58.79 31.71 58.96 31.21 C 60.17 29.44 61.49 27.75 62.79 26.05 Z" />
<path fill="#cdccb9" opacity="0.91" d=" M 63.84 31.27 C 64.96 29.65 66.18 28.09 67.40 26.55 C 66.77 29.27 66.11 31.99 65.46 34.71 C 64.96 34.49 63.97 34.05 63.47 33.83 C 63.56 33.19 63.75 31.91 63.84 31.27 Z" />
<path fill="#5578a1" opacity="0.81" d=" M 18.65 28.40 C 21.67 32.75 20.75 38.32 21.64 43.29 C 21.90 46.13 22.29 48.96 22.65 51.80 C 25.02 49.84 27.44 47.94 29.92 46.11 C 30.04 46.85 30.27 48.33 30.39 49.07 C 30.70 51.36 31.16 53.63 31.46 55.93 C 30.75 61.05 26.84 65.56 21.43 65.77 C 21.54 58.80 20.87 51.82 19.54 44.98 C 17.62 53.44 18.29 62.16 18.91 70.73 C 18.08 71.61 17.25 72.48 16.41 73.36 C 16.28 66.01 15.56 58.65 16.44 51.32 C 19.70 44.01 17.32 36.02 18.65 28.40 Z" />
<path fill="#0a0632" opacity="0.65" d=" M 59.23 30.02 C 59.17 30.32 59.03 30.91 58.96 31.21 C 58.79 31.71 58.43 32.72 58.26 33.22 C 60.02 32.01 61.78 30.79 63.54 29.58 C 63.62 30.00 63.77 30.85 63.84 31.27 C 63.75 31.91 63.56 33.19 63.47 33.83 C 63.40 34.24 63.28 35.07 63.22 35.48 C 61.50 37.12 59.80 38.78 58.18 40.52 C 57.05 39.70 55.92 38.88 54.79 38.06 C 55.90 36.89 57.01 35.70 58.11 34.51 C 56.32 34.56 54.53 34.59 52.75 34.50 C 48.48 34.25 43.66 34.26 40.25 37.24 C 36.58 40.70 35.21 45.88 34.69 50.74 C 34.41 53.23 34.21 55.72 34.00 58.21 C 33.16 57.45 32.31 56.69 31.46 55.93 C 31.16 53.63 30.70 51.36 30.39 49.07 C 31.43 43.39 33.22 36.66 39.03 34.12 C 45.30 30.58 52.99 33.52 59.23 30.02 Z" />
<path fill="#b3c0c6" opacity="0.94" d=" M 40.25 37.24 C 43.66 34.26 48.48 34.25 52.75 34.50 C 52.77 34.85 52.83 35.55 52.86 35.90 C 48.91 36.56 44.19 36.06 41.13 39.13 C 37.17 43.35 36.25 49.45 36.23 55.02 C 36.27 57.31 36.42 59.60 36.55 61.89 C 35.86 61.64 35.17 61.38 34.48 61.13 C 34.55 57.67 34.51 54.20 34.69 50.74 C 35.21 45.88 36.58 40.70 40.25 37.24 Z" />
<path fill="#717f90" opacity="0.84" d=" M 52.75 34.50 C 54.53 34.59 56.32 34.56 58.11 34.51 C 57.01 35.70 55.90 36.89 54.79 38.06 C 52.88 40.05 50.89 41.95 48.88 43.85 C 47.33 43.32 45.78 42.77 44.23 42.24 C 44.84 44.11 45.55 45.96 45.86 47.90 C 45.05 49.64 43.52 50.89 42.07 52.09 C 40.16 53.14 38.19 54.07 36.23 55.02 C 36.25 49.45 37.17 43.35 41.13 39.13 C 44.19 36.06 48.91 36.56 52.86 35.90 C 52.83 35.55 52.77 34.85 52.75 34.50 Z" />
<path fill="#b2bbc6" opacity="0.97" d=" M 58.18 40.52 C 59.80 38.78 61.50 37.12 63.22 35.48 C 63.56 35.83 64.25 36.53 64.59 36.88 C 61.15 40.08 58.11 43.71 55.76 47.78 C 54.43 48.21 53.08 48.63 51.74 49.05 C 53.62 46.02 55.76 43.14 58.18 40.52 Z" />
<path fill="#0d0744" opacity="0.87" d=" M 48.88 43.85 C 50.89 41.95 52.88 40.05 54.79 38.06 C 55.92 38.88 57.05 39.70 58.18 40.52 C 55.76 43.14 53.62 46.02 51.74 49.05 C 53.08 48.63 54.43 48.21 55.76 47.78 C 58.09 47.04 60.43 46.34 62.80 45.74 C 64.06 49.31 65.25 52.90 66.15 56.57 C 64.15 54.62 62.48 52.35 61.11 49.92 C 60.85 49.46 60.33 48.54 60.07 48.08 C 57.92 49.01 55.79 49.96 53.66 50.93 C 55.27 55.33 56.18 59.92 56.58 64.58 C 56.97 64.81 57.74 65.27 58.13 65.51 C 58.49 65.70 59.22 66.10 59.59 66.29 C 57.97 66.29 56.36 66.36 54.75 66.42 C 55.40 67.35 56.05 68.28 56.71 69.21 C 51.88 69.99 47.92 73.15 43.18 74.21 C 42.89 73.89 42.32 73.25 42.03 72.93 C 45.69 71.73 49.56 69.91 51.16 66.13 C 53.57 61.80 51.69 56.82 49.70 52.73 C 46.73 52.44 44.07 53.95 41.51 55.23 C 41.68 54.18 41.88 53.13 42.07 52.09 C 43.52 50.89 45.05 49.64 45.86 47.90 C 45.55 45.96 44.84 44.11 44.23 42.24 C 45.78 42.77 47.33 43.32 48.88 43.85 Z" />
<path fill="#4e58a0" opacity="0.80" d=" M 77.78 40.71 C 78.97 39.74 80.17 38.79 81.37 37.83 C 81.31 40.52 81.23 43.22 81.02 45.90 C 80.87 50.97 78.64 56.73 81.94 61.23 C 83.14 63.16 84.21 65.28 84.07 67.62 C 83.60 70.09 82.98 72.53 82.37 74.97 C 74.34 73.45 69.28 81.75 61.61 82.35 C 63.10 81.21 64.52 79.99 66.02 78.87 C 69.67 76.21 74.37 74.96 77.42 71.55 C 78.29 68.87 78.32 66.02 78.48 63.24 C 79.05 55.73 79.71 48.09 77.78 40.71 Z" />
<path fill="#4457ad" opacity="0.93" d=" M 66.17 43.66 C 69.12 41.63 72.69 40.97 76.21 40.84 C 76.12 43.14 76.01 45.44 75.92 47.74 C 75.43 53.28 74.15 58.91 70.33 63.16 C 69.96 62.73 69.23 61.85 68.87 61.42 C 68.01 56.92 66.96 52.45 65.47 48.12 C 66.22 47.07 66.96 46.03 67.71 44.98 C 67.33 44.65 66.56 43.99 66.17 43.66 Z" />
<path fill="#b9c5d3" opacity="0.96" d=" M 76.33 58.06 C 76.70 52.82 76.26 47.48 77.69 42.36 C 78.73 49.27 78.27 56.28 78.48 63.24 C 78.32 66.02 78.29 68.87 77.42 71.55 C 74.37 74.96 69.67 76.21 66.02 78.87 C 65.25 78.88 63.70 78.90 62.93 78.91 C 67.05 76.11 71.86 74.16 75.40 70.60 C 75.90 68.02 75.79 65.38 75.95 62.77 C 76.10 61.20 76.24 59.63 76.33 58.06 Z" />
<path fill="#97a3c4" opacity="0.97" d=" M 66.17 43.66 C 66.56 43.99 67.33 44.65 67.71 44.98 C 66.96 46.03 66.22 47.07 65.47 48.12 C 66.96 52.45 68.01 56.92 68.87 61.42 C 68.42 61.08 67.53 60.39 67.08 60.05 C 66.76 58.89 66.45 57.73 66.15 56.57 C 65.25 52.90 64.06 49.31 62.80 45.74 C 63.93 45.05 65.04 44.34 66.17 43.66 Z" />
<path fill="#294365" opacity="0.66" d=" M 19.54 44.98 C 20.87 51.82 21.54 58.80 21.43 65.77 C 21.12 67.55 20.71 69.32 20.33 71.09 C 18.86 72.10 17.34 73.04 15.82 73.98 L 16.41 73.36 C 17.25 72.48 18.08 71.61 18.91 70.73 C 18.29 62.16 17.62 53.44 19.54 44.98 Z" />
<path fill="#0825d0" opacity="0.82" d=" M 81.02 45.90 C 81.57 45.92 82.69 45.97 83.24 45.99 C 83.35 51.10 82.93 56.21 81.94 61.23 C 78.64 56.73 80.87 50.97 81.02 45.90 Z" />
<path fill="#a2b4c9" opacity="1.00" d=" M 53.66 50.93 C 55.79 49.96 57.92 49.01 60.07 48.08 C 60.33 48.54 60.85 49.46 61.11 49.92 C 59.36 50.60 57.62 51.30 55.88 52.02 C 57.31 56.37 58.22 60.90 58.13 65.51 C 57.74 65.27 56.97 64.81 56.58 64.58 C 56.18 59.92 55.27 55.33 53.66 50.93 Z" />
<path fill="#0b298d" opacity="0.87" d=" M 70.33 63.16 C 74.15 58.91 75.43 53.28 75.92 47.74 C 76.00 51.18 76.29 54.62 76.33 58.06 C 76.24 59.63 76.10 61.20 75.95 62.77 C 75.35 64.28 74.70 65.77 74.05 67.27 C 72.39 67.04 70.72 66.81 69.06 66.57 C 69.47 65.43 69.87 64.29 70.33 63.16 Z" />
<path fill="#5777a7" opacity="0.95" d=" M 55.88 52.02 C 57.62 51.30 59.36 50.60 61.11 49.92 C 62.48 52.35 64.15 54.62 66.15 56.57 C 66.45 57.73 66.76 58.89 67.08 60.05 C 67.53 60.39 68.42 61.08 68.87 61.42 C 69.23 61.85 69.96 62.73 70.33 63.16 C 66.19 65.66 62.99 69.35 60.28 73.29 C 58.57 72.93 56.87 72.56 55.15 72.29 C 57.71 71.09 59.69 69.07 61.21 66.73 C 60.81 66.62 59.99 66.40 59.59 66.29 C 59.22 66.10 58.49 65.70 58.13 65.51 C 58.22 60.90 57.31 56.37 55.88 52.02 Z" />
<path fill="#608bb5" opacity="0.96" d=" M 34.00 58.21 C 34.21 55.72 34.41 53.23 34.69 50.74 C 34.51 54.20 34.55 57.67 34.48 61.13 C 35.17 61.38 35.86 61.64 36.55 61.89 C 36.42 59.60 36.27 57.31 36.23 55.02 C 38.19 54.07 40.16 53.14 42.07 52.09 C 41.88 53.13 41.68 54.18 41.51 55.23 C 41.41 55.81 41.23 56.97 41.14 57.55 C 44.12 56.18 47.02 54.62 49.70 52.73 C 51.69 56.82 53.57 61.80 51.16 66.13 C 49.56 69.91 45.69 71.73 42.03 72.93 C 39.78 69.14 35.35 68.86 31.41 68.89 C 32.15 69.91 32.90 70.93 33.64 71.96 C 32.05 72.10 30.46 72.24 28.87 72.39 C 30.82 73.63 32.77 74.86 34.74 76.07 C 38.77 79.24 43.23 81.84 47.11 85.21 C 47.77 85.83 48.43 86.45 49.08 87.08 C 49.07 87.91 49.03 89.56 49.02 90.38 C 44.37 86.16 38.74 83.28 33.73 79.55 C 34.33 79.66 35.51 79.86 36.11 79.96 C 32.63 77.00 28.94 74.28 25.00 71.97 C 23.62 71.04 21.92 71.12 20.33 71.09 C 20.71 69.32 21.12 67.55 21.43 65.77 C 26.84 65.56 30.75 61.05 31.46 55.93 C 32.31 56.69 33.16 57.45 34.00 58.21 Z" />
<path fill="#b6c4d3" opacity="1.00" d=" M 41.51 55.23 C 44.07 53.95 46.73 52.44 49.70 52.73 C 47.02 54.62 44.12 56.18 41.14 57.55 C 41.23 56.97 41.41 55.81 41.51 55.23 Z" />
<path fill="#42587e" opacity="0.87" d=" M 60.28 73.29 C 62.99 69.35 66.19 65.66 70.33 63.16 C 69.87 64.29 69.47 65.43 69.06 66.57 C 70.72 66.81 72.39 67.04 74.05 67.27 C 74.70 65.77 75.35 64.28 75.95 62.77 C 75.79 65.38 75.90 68.02 75.40 70.60 C 71.86 74.16 67.05 76.11 62.93 78.91 C 58.23 81.49 53.72 84.39 49.08 87.08 C 48.43 86.45 47.77 85.83 47.11 85.21 C 47.84 85.05 49.30 84.71 50.03 84.55 C 51.95 83.74 53.75 82.69 55.52 81.61 C 60.53 78.41 66.12 76.03 70.43 71.82 C 65.84 73.57 61.51 75.91 57.13 78.11 C 58.16 76.49 59.19 74.87 60.28 73.29 Z" />
<path fill="#aecbcb" opacity="0.98" d=" M 54.75 66.42 C 56.36 66.36 57.97 66.29 59.59 66.29 C 59.99 66.40 60.81 66.62 61.21 66.73 C 59.69 69.07 57.71 71.09 55.15 72.29 C 52.61 71.72 50.69 73.65 48.89 75.10 C 46.53 75.16 44.16 75.19 41.80 75.20 C 42.14 74.95 42.83 74.46 43.18 74.21 C 47.92 73.15 51.88 69.99 56.71 69.21 C 56.05 68.28 55.40 67.35 54.75 66.42 Z" />
<path fill="#7c83a8" opacity="0.93" d=" M 82.37 74.97 C 82.98 72.53 83.60 70.09 84.07 67.62 C 84.19 70.71 84.21 73.81 84.23 76.90 C 83.25 77.18 82.28 77.47 81.30 77.76 C 73.98 79.55 68.45 85.10 61.81 88.39 C 62.36 86.90 62.92 85.42 63.49 83.94 C 58.69 86.73 53.86 89.46 48.99 92.15 L 49.01 91.26 L 49.02 90.38 C 52.82 87.14 57.12 84.51 61.61 82.35 C 69.28 81.75 74.34 73.45 82.37 74.97 Z" />
<path fill="#68a4a4" opacity="0.96" d=" M 31.41 68.89 C 35.35 68.86 39.78 69.14 42.03 72.93 C 42.32 73.25 42.89 73.89 43.18 74.21 C 42.83 74.46 42.14 74.95 41.80 75.20 C 44.16 75.19 46.53 75.16 48.89 75.10 C 47.00 76.65 45.09 78.18 43.15 79.67 C 40.47 78.19 37.57 77.20 34.74 76.07 C 32.77 74.86 30.82 73.63 28.87 72.39 C 30.46 72.24 32.05 72.10 33.64 71.96 C 32.90 70.93 32.15 69.91 31.41 68.89 Z" />
<path fill="#a1c7cb" opacity="1.00" d=" M 20.33 71.09 C 21.92 71.12 23.62 71.04 25.00 71.97 C 28.94 74.28 32.63 77.00 36.11 79.96 C 35.51 79.86 34.33 79.66 33.73 79.55 C 29.72 76.99 25.51 74.77 21.28 72.59 C 21.04 72.22 20.57 71.47 20.33 71.09 Z" />
<path fill="#8ba19a" opacity="0.81" d=" M 15.82 73.98 C 17.34 73.04 18.86 72.10 20.33 71.09 C 20.57 71.47 21.04 72.22 21.28 72.59 C 23.05 75.99 26.87 78.27 27.25 82.32 C 23.08 80.13 19.02 77.76 15.04 75.24 L 15.07 74.46 L 15.82 73.98 Z" />
<path fill="#839b88" opacity="0.92" d=" M 48.89 75.10 C 50.69 73.65 52.61 71.72 55.15 72.29 C 56.87 72.56 58.57 72.93 60.28 73.29 C 59.19 74.87 58.16 76.49 57.13 78.11 C 61.51 75.91 65.84 73.57 70.43 71.82 C 66.12 76.03 60.53 78.41 55.52 81.61 C 53.75 82.69 51.95 83.74 50.03 84.55 C 47.79 82.84 45.55 81.14 43.15 79.67 C 45.09 78.18 47.00 76.65 48.89 75.10 Z" />
<path fill="#627aa8" opacity="0.80" d=" M 21.28 72.59 C 25.51 74.77 29.72 76.99 33.73 79.55 C 33.04 81.14 33.90 82.79 35.17 83.77 C 39.19 87.22 44.20 89.19 49.01 91.26 L 48.99 92.15 C 48.97 93.50 48.94 94.84 48.90 96.18 C 45.74 94.25 42.64 92.23 39.46 90.31 C 35.56 87.41 31.50 84.71 27.25 82.32 C 26.87 78.27 23.05 75.99 21.28 72.59 Z" />
<path fill="#e0e3d6" opacity="1.00" d=" M 15.04 75.24 C 19.02 77.76 23.08 80.13 27.25 82.32 C 31.50 84.71 35.56 87.41 39.46 90.31 C 39.02 90.52 38.14 90.93 37.70 91.13 C 30.11 86.46 22.20 82.20 14.97 76.99 C 14.98 76.55 15.02 75.68 15.04 75.24 Z" />
<path fill="#b4baa6" opacity="0.94" d=" M 34.74 76.07 C 37.57 77.20 40.47 78.19 43.15 79.67 C 45.55 81.14 47.79 82.84 50.03 84.55 C 49.30 84.71 47.84 85.05 47.11 85.21 C 43.23 81.84 38.77 79.24 34.74 76.07 Z" />
<path fill="#c5cbd5" opacity="1.00" d=" M 61.81 88.39 C 68.45 85.10 73.98 79.55 81.30 77.76 C 78.80 79.74 76.45 81.89 73.97 83.89 C 69.11 86.23 64.52 89.06 60.04 92.05 C 56.46 94.34 52.97 97.02 48.75 97.95 C 52.33 93.82 57.26 91.28 61.81 88.39 Z" />
<path fill="#ccd9d9" opacity="1.00" d=" M 49.08 87.08 C 53.72 84.39 58.23 81.49 62.93 78.91 C 63.70 78.90 65.25 78.88 66.02 78.87 C 64.52 79.99 63.10 81.21 61.61 82.35 C 57.12 84.51 52.82 87.14 49.02 90.38 C 49.03 89.56 49.07 87.91 49.08 87.08 Z" />
<path fill="#465680" opacity="0.89" d=" M 35.17 83.77 C 33.90 82.79 33.04 81.14 33.73 79.55 C 38.74 83.28 44.37 86.16 49.02 90.38 L 49.01 91.26 C 44.20 89.19 39.19 87.22 35.17 83.77 Z" />
<path fill="#b5b9a3" opacity="0.93" d=" M 48.99 92.15 C 53.86 89.46 58.69 86.73 63.49 83.94 C 62.92 85.42 62.36 86.90 61.81 88.39 C 57.26 91.28 52.33 93.82 48.75 97.95 C 44.81 96.11 41.28 93.57 37.70 91.13 C 38.14 90.93 39.02 90.52 39.46 90.31 C 42.64 92.23 45.74 94.25 48.90 96.18 C 48.94 94.84 48.97 93.50 48.99 92.15 Z" />
</svg>
