<?xml version="1.0" encoding="UTF-8" ?>
<!DOCTYPE svg PUBLIC "-//W3C//DTD SVG 1.1//EN" "http://www.w3.org/Graphics/SVG/1.1/DTD/svg11.dtd">
<svg width="100pt" height="100pt" viewBox="0 0 100 100" version="1.1" xmlns="http://www.w3.org/2000/svg">
<path fill="#11101d" opacity="1.00" d=" M 39.82 25.94 C 45.70 24.16 51.99 23.82 58.01 25.09 C 63.73 26.25 69.98 26.50 74.84 30.11 C 77.07 31.50 78.29 34.60 76.95 37.00 C 71.36 48.85 64.67 60.24 56.33 70.37 C 54.41 72.49 51.81 75.33 48.63 74.42 C 44.55 72.82 41.85 69.12 39.23 65.79 C 35.98 61.30 32.24 57.08 30.06 51.93 C 33.36 55.44 36.78 58.83 40.25 62.18 C 39.35 60.53 38.43 58.89 37.51 57.26 C 37.68 56.49 38.01 54.95 38.18 54.19 C 39.90 55.76 41.64 57.31 43.41 58.83 C 42.41 56.31 41.47 53.78 40.54 51.24 C 40.96 51.35 41.78 51.58 42.20 51.69 C 47.62 52.76 50.33 57.99 53.98 61.55 C 54.76 58.14 55.50 54.70 56.88 51.48 C 58.43 53.88 59.92 56.32 61.35 58.79 C 63.97 54.08 66.49 49.21 70.29 45.31 C 72.83 42.78 74.38 39.52 75.46 36.14 C 74.29 35.22 73.13 34.29 71.98 33.36 C 72.62 32.90 73.89 31.96 74.53 31.50 C 63.83 26.18 51.56 25.59 39.82 25.94 Z" />
<path fill="#4a5361" opacity="1.00" d=" M 33.92 26.94 C 35.76 26.11 37.83 26.03 39.82 25.94 C 51.56 25.59 63.83 26.18 74.53 31.50 C 73.89 31.96 72.62 32.90 71.98 33.36 C 69.35 35.56 65.81 34.94 62.74 34.25 C 64.57 33.68 66.37 33.01 68.18 32.34 C 64.49 30.00 60.18 29.06 55.85 29.16 C 57.82 30.88 59.82 32.59 61.97 34.10 C 61.39 34.53 60.82 34.98 60.26 35.43 C 58.13 36.46 55.95 37.36 53.80 38.32 C 52.37 35.50 50.99 32.65 49.62 29.81 C 48.18 30.80 46.75 31.79 45.37 32.87 C 42.30 32.60 39.21 32.47 36.12 32.34 C 37.00 31.49 37.87 30.64 38.75 29.80 C 35.46 30.52 32.14 31.15 28.77 31.33 C 30.45 29.82 32.11 28.29 33.92 26.94 Z" />
<path fill="#343845" opacity="1.00" d=" M 23.52 29.80 C 26.63 27.84 30.36 27.46 33.92 26.94 C 32.11 28.29 30.45 29.82 28.77 31.33 C 32.14 31.15 35.46 30.52 38.75 29.80 C 37.87 30.64 37.00 31.49 36.12 32.34 C 39.21 32.47 42.30 32.60 45.37 32.87 C 41.48 36.62 36.28 39.26 33.55 44.06 C 34.47 48.56 34.92 53.32 37.51 57.26 C 38.43 58.89 39.35 60.53 40.25 62.18 C 36.78 58.83 33.36 55.44 30.06 51.93 C 27.62 44.65 22.54 37.84 23.52 29.80 Z" />
<path fill="#afb9b8" opacity="1.00" d=" M 55.85 29.16 C 60.18 29.06 64.49 30.00 68.18 32.34 C 66.37 33.01 64.57 33.68 62.74 34.25 L 61.97 34.10 C 59.82 32.59 57.82 30.88 55.85 29.16 Z" />
<path fill="#040508" opacity="0.94" d=" M 22.14 38.70 C 20.97 35.66 21.90 32.46 23.52 29.80 C 22.54 37.84 27.62 44.65 30.06 51.93 C 26.67 48.04 23.94 43.53 22.14 38.70 Z" />
<path fill="#ffe3af" opacity="1.00" d=" M 45.37 32.87 C 46.75 31.79 48.18 30.80 49.62 29.81 C 50.99 32.65 52.37 35.50 53.80 38.32 C 55.95 37.36 58.13 36.46 60.26 35.43 C 58.70 37.13 57.24 38.92 55.80 40.71 C 58.02 41.10 60.23 41.53 62.45 41.91 C 60.49 45.04 58.47 48.14 56.88 51.48 C 55.50 54.70 54.76 58.14 53.98 61.55 C 50.33 57.99 47.62 52.76 42.20 51.69 C 41.09 51.33 39.98 50.96 38.87 50.59 C 42.03 47.40 45.48 44.50 49.17 41.95 C 50.18 41.22 51.19 40.50 52.20 39.79 C 50.89 38.03 49.53 36.31 48.20 34.57 C 46.41 36.06 44.61 37.54 42.74 38.93 C 39.82 40.87 36.68 42.47 33.55 44.06 C 36.28 39.26 41.48 36.62 45.37 32.87 M 46.13 48.05 C 48.48 49.72 50.46 51.82 52.24 54.08 C 54.41 50.10 57.23 46.55 59.98 42.97 C 58.04 42.68 56.10 42.26 54.13 42.23 C 51.13 43.65 48.72 46.02 46.13 48.05 Z" />
<path fill="#2f333f" opacity="1.00" d=" M 62.74 34.25 C 65.81 34.94 69.35 35.56 71.98 33.36 C 73.13 34.29 74.29 35.22 75.46 36.14 C 74.38 39.52 72.83 42.78 70.29 45.31 C 66.49 49.21 63.97 54.08 61.35 58.79 C 59.92 56.32 58.43 53.88 56.88 51.48 C 58.47 48.14 60.49 45.04 62.45 41.91 C 60.23 41.53 58.02 41.10 55.80 40.71 C 57.24 38.92 58.70 37.13 60.26 35.43 C 60.82 34.98 61.39 34.53 61.97 34.10 L 62.74 34.25 Z" />
<path fill="#3e4a59" opacity="1.00" d=" M 42.74 38.93 C 44.61 37.54 46.41 36.06 48.20 34.57 C 49.53 36.31 50.89 38.03 52.20 39.79 C 51.19 40.50 50.18 41.22 49.17 41.95 C 47.01 40.97 44.86 39.98 42.74 38.93 Z" />
<path fill="#1e202b" opacity="1.00" d=" M 33.55 44.06 C 36.68 42.47 39.82 40.87 42.74 38.93 C 44.86 39.98 47.01 40.97 49.17 41.95 C 45.48 44.50 42.03 47.40 38.87 50.59 C 39.98 50.96 41.09 51.33 42.20 51.69 C 41.78 51.58 40.96 51.35 40.54 51.24 C 41.47 53.78 42.41 56.31 43.41 58.83 C 41.64 57.31 39.90 55.76 38.18 54.19 C 38.01 54.95 37.68 56.49 37.51 57.26 C 34.92 53.32 34.47 48.56 33.55 44.06 Z" />
<path fill="#14131d" opacity="1.00" d=" M 46.13 48.05 C 48.72 46.02 51.13 43.65 54.13 42.23 C 56.10 42.26 58.04 42.68 59.98 42.97 C 57.23 46.55 54.41 50.10 52.24 54.08 C 50.46 51.82 48.48 49.72 46.13 48.05 Z" />
</svg>
