<?xml version="1.0" encoding="UTF-8" ?>
<!DOCTYPE svg PUBLIC "-//W3C//DTD SVG 1.1//EN" "http://www.w3.org/Graphics/SVG/1.1/DTD/svg11.dtd">
<svg width="100pt" height="100pt" viewBox="0 0 100 100" version="1.1" xmlns="http://www.w3.org/2000/svg">
<path fill="#07080b" opacity="0.93" d=" M 33.68 26.68 C 41.92 24.89 50.46 23.99 58.85 25.28 C 64.56 26.16 70.83 26.74 75.49 30.52 C 77.68 32.22 78.04 35.34 76.72 37.68 C 71.61 48.44 65.25 58.58 58.20 68.17 C 56.02 70.84 53.63 74.08 49.97 74.58 C 45.64 73.94 42.78 70.06 40.11 66.94 C 33.67 58.50 27.35 49.82 22.71 40.23 C 20.85 36.86 21.74 33.03 23.30 29.75 C 23.24 37.33 26.45 44.41 30.18 50.84 C 32.89 55.53 36.99 59.17 40.35 63.37 C 42.70 67.10 44.70 72.77 49.84 72.99 C 54.08 70.24 56.81 65.83 60.06 62.07 C 64.48 56.86 67.81 50.88 71.18 44.97 C 72.49 42.93 73.90 40.88 74.58 38.52 C 74.76 36.53 74.10 34.60 73.83 32.64 C 74.01 32.27 74.39 31.53 74.57 31.16 C 66.22 27.52 57.11 25.46 47.98 25.86 C 43.21 26.10 38.46 26.58 33.68 26.68 Z" />
<path fill="#454e5e" opacity="1.00" d=" M 33.68 26.68 C 38.46 26.58 43.21 26.10 47.98 25.86 C 57.11 25.46 66.22 27.52 74.57 31.16 C 74.39 31.53 74.01 32.27 73.83 32.64 C 69.14 35.75 63.38 34.24 58.22 35.48 C 55.22 36.41 52.52 38.04 49.83 39.61 C 49.36 36.33 48.85 33.06 48.30 29.79 C 48.19 32.88 48.13 35.98 48.09 39.07 C 46.18 38.66 44.28 38.23 42.37 37.79 C 42.32 36.28 42.26 34.78 42.21 33.27 C 40.22 32.93 38.23 32.59 36.24 32.24 C 36.67 31.53 37.11 30.81 37.54 30.10 C 34.60 30.54 31.67 30.98 28.73 31.43 C 30.38 29.85 32.03 28.27 33.68 26.68 M 55.79 29.19 C 57.58 30.70 59.21 32.64 61.52 33.34 C 63.79 33.66 66.05 33.05 68.27 32.71 C 64.74 29.85 60.23 29.03 55.79 29.19 Z" />
<path fill="#333845" opacity="1.00" d=" M 23.30 29.75 C 26.56 28.15 30.15 27.43 33.68 26.68 C 32.03 28.27 30.38 29.85 28.73 31.43 C 31.67 30.98 34.60 30.54 37.54 30.10 C 37.11 30.81 36.67 31.53 36.24 32.24 C 38.23 32.59 40.22 32.93 42.21 33.27 C 42.26 34.78 42.32 36.28 42.37 37.79 C 44.28 38.23 46.18 38.66 48.09 39.07 C 48.09 39.76 48.07 41.12 48.07 41.80 C 43.34 41.05 38.57 40.54 33.82 39.98 C 33.94 40.37 34.19 41.16 34.32 41.55 C 36.02 46.42 35.44 51.76 37.35 56.58 C 38.20 58.90 39.22 61.16 40.35 63.37 C 36.99 59.17 32.89 55.53 30.18 50.84 C 26.45 44.41 23.24 37.33 23.30 29.75 Z" />
<path fill="#afb9b8" opacity="1.00" d=" M 55.79 29.19 C 60.23 29.03 64.74 29.85 68.27 32.71 C 66.05 33.05 63.79 33.66 61.52 33.34 C 59.21 32.64 57.58 30.70 55.79 29.19 Z" />
<path fill="#ffdf9a" opacity="1.00" d=" M 48.09 39.07 C 48.13 35.98 48.19 32.88 48.30 29.79 C 48.85 33.06 49.36 36.33 49.83 39.61 C 52.52 38.04 55.22 36.41 58.22 35.48 C 55.84 37.56 53.62 39.82 51.38 42.05 C 55.39 43.15 59.43 44.22 63.29 45.80 C 62.66 45.88 61.42 46.04 60.80 46.13 C 57.33 45.60 53.89 44.96 50.46 44.25 C 50.94 49.95 51.65 55.64 51.53 61.37 C 49.57 56.07 48.73 50.45 48.34 44.83 C 45.03 47.80 41.72 50.77 38.12 53.39 C 40.28 49.99 42.77 46.82 45.30 43.69 C 41.65 42.94 37.99 42.21 34.32 41.55 C 34.19 41.16 33.94 40.37 33.82 39.98 C 38.57 40.54 43.34 41.05 48.07 41.80 C 48.07 41.12 48.09 39.76 48.09 39.07 Z" />
<path fill="#313541" opacity="1.00" d=" M 58.22 35.48 C 63.38 34.24 69.14 35.75 73.83 32.64 C 74.10 34.60 74.76 36.53 74.58 38.52 C 73.90 40.88 72.49 42.93 71.18 44.97 C 67.20 48.14 63.83 51.98 61.16 56.31 C 60.17 55.41 59.19 54.52 58.20 53.63 C 60.09 51.40 61.96 49.16 63.82 46.90 C 62.81 46.63 61.80 46.37 60.80 46.13 C 61.42 46.04 62.66 45.88 63.29 45.80 C 59.43 44.22 55.39 43.15 51.38 42.05 C 53.62 39.82 55.84 37.56 58.22 35.48 Z" />
<path fill="#14131f" opacity="1.00" d=" M 34.32 41.55 C 37.99 42.21 41.65 42.94 45.30 43.69 C 42.77 46.82 40.28 49.99 38.12 53.39 C 41.72 50.77 45.03 47.80 48.34 44.83 C 48.73 50.45 49.57 56.07 51.53 61.37 C 51.65 55.64 50.94 49.95 50.46 44.25 C 53.89 44.96 57.33 45.60 60.80 46.13 C 61.80 46.37 62.81 46.63 63.82 46.90 C 61.96 49.16 60.09 51.40 58.20 53.63 C 59.19 54.52 60.17 55.41 61.16 56.31 C 63.83 51.98 67.20 48.14 71.18 44.97 C 67.81 50.88 64.48 56.86 60.06 62.07 C 56.81 65.83 54.08 70.24 49.84 72.99 C 44.70 72.77 42.70 67.10 40.35 63.37 C 39.22 61.16 38.20 58.90 37.35 56.58 C 35.44 51.76 36.02 46.42 34.32 41.55 Z" />
</svg>
