<?xml version="1.0" encoding="UTF-8" ?>
<!DOCTYPE svg PUBLIC "-//W3C//DTD SVG 1.1//EN" "http://www.w3.org/Graphics/SVG/1.1/DTD/svg11.dtd">
<svg width="100pt" height="100pt" viewBox="0 0 100 100" version="1.1" xmlns="http://www.w3.org/2000/svg">
<path fill="#06070a" opacity="0.93" d=" M 38.79 25.98 C 45.07 24.60 51.57 24.24 57.94 25.19 C 63.75 25.99 70.01 26.53 74.92 30.05 C 77.15 31.54 78.26 34.56 76.98 37.02 C 71.89 48.05 65.36 58.37 58.20 68.16 C 56.03 70.85 53.62 74.06 49.98 74.59 C 46.35 74.13 43.78 71.11 41.45 68.56 C 35.54 61.33 30.25 53.58 25.47 45.56 C 23.90 42.82 22.27 40.01 21.70 36.87 C 21.19 34.35 22.49 32.03 23.32 29.75 C 23.12 37.36 26.52 44.39 30.16 50.85 C 32.64 55.17 36.33 58.57 39.60 62.26 C 41.85 66.20 43.88 71.00 48.34 72.85 C 49.92 73.56 51.12 72.14 52.20 71.22 C 59.66 63.37 66.10 54.56 71.18 44.98 C 72.63 42.71 74.23 40.42 74.85 37.75 C 74.95 35.90 73.97 34.19 73.43 32.46 C 73.80 32.23 74.53 31.76 74.90 31.53 C 63.77 25.91 51.01 25.27 38.79 25.98 Z" />
<path fill="#4b5463" opacity="1.00" d=" M 33.97 26.92 C 35.47 26.22 37.16 26.12 38.79 25.98 C 51.01 25.27 63.77 25.91 74.90 31.53 C 74.53 31.76 73.80 32.23 73.43 32.46 C 69.28 35.87 63.76 35.00 58.95 33.79 L 59.80 33.49 C 62.65 33.03 65.52 32.74 68.38 32.40 C 64.60 30.50 60.50 29.41 56.38 28.53 C 56.97 29.33 57.55 30.15 58.11 30.98 C 56.81 32.11 55.50 33.21 54.18 34.32 C 48.92 32.84 43.32 33.17 38.14 31.33 C 35.06 30.71 31.91 30.93 28.80 31.06 C 30.52 29.67 32.19 28.24 33.97 26.92 Z" />
<path fill="#333743" opacity="1.00" d=" M 23.32 29.75 C 26.61 28.03 30.32 27.38 33.97 26.92 C 32.19 28.24 30.52 29.67 28.80 31.06 C 31.91 30.93 35.06 30.71 38.14 31.33 C 42.49 37.55 38.18 44.94 33.97 49.91 C 34.39 49.79 35.25 49.56 35.67 49.45 C 35.40 49.98 34.85 51.04 34.57 51.57 C 36.51 55.00 38.13 58.60 39.60 62.26 C 36.33 58.57 32.64 55.17 30.16 50.85 C 26.52 44.39 23.12 37.36 23.32 29.75 Z" />
<path fill="#afbab8" opacity="1.00" d=" M 56.38 28.53 C 60.50 29.41 64.60 30.50 68.38 32.40 C 65.52 32.74 62.65 33.03 59.80 33.49 C 59.22 32.66 58.66 31.82 58.11 30.98 C 57.55 30.15 56.97 29.33 56.38 28.53 Z" />
<path fill="#ffe49c" opacity="1.00" d=" M 38.14 31.33 C 43.32 33.17 48.92 32.84 54.18 34.32 C 55.50 33.21 56.81 32.11 58.11 30.98 C 58.66 31.82 59.22 32.66 59.80 33.49 L 58.95 33.79 C 55.35 36.73 56.39 41.49 56.82 45.50 C 59.10 47.37 61.15 49.49 63.10 51.70 C 60.56 50.90 58.07 49.97 55.62 48.95 C 53.67 50.44 51.53 51.77 49.96 53.68 C 49.20 55.77 49.02 58.01 48.64 60.18 C 46.93 55.63 44.54 50.84 39.97 48.59 C 38.50 48.67 37.09 49.09 35.67 49.45 C 35.25 49.56 34.39 49.79 33.97 49.91 C 38.18 44.94 42.49 37.55 38.14 31.33 M 41.03 39.27 C 40.96 41.81 39.99 44.83 42.17 46.79 C 44.32 49.70 48.51 53.12 51.91 49.91 C 55.20 47.66 54.58 43.55 53.74 40.23 C 52.32 38.19 50.75 35.66 47.94 35.58 C 44.99 34.99 42.90 37.42 41.03 39.27 Z" />
<path fill="#2f343f" opacity="1.00" d=" M 58.95 33.79 C 63.76 35.00 69.28 35.87 73.43 32.46 C 73.97 34.19 74.95 35.90 74.85 37.75 C 74.23 40.42 72.63 42.71 71.18 44.98 C 68.60 47.18 66.16 49.52 63.76 51.91 C 63.60 51.86 63.26 51.75 63.10 51.70 C 61.15 49.49 59.10 47.37 56.82 45.50 C 56.39 41.49 55.35 36.73 58.95 33.79 Z" />
<path fill="#3d4856" opacity="1.00" d=" M 41.03 39.27 C 42.90 37.42 44.99 34.99 47.94 35.58 C 50.75 35.66 52.32 38.19 53.74 40.23 C 49.49 41.43 45.02 41.25 41.03 39.27 Z" />
<path fill="#151521" opacity="1.00" d=" M 41.03 39.27 C 45.02 41.25 49.49 41.43 53.74 40.23 C 54.58 43.55 55.20 47.66 51.91 49.91 C 48.51 53.12 44.32 49.70 42.17 46.79 C 39.99 44.83 40.96 41.81 41.03 39.27 Z" />
<path fill="#151522" opacity="1.00" d=" M 63.76 51.91 C 66.16 49.52 68.60 47.18 71.18 44.98 C 66.10 54.56 59.66 63.37 52.20 71.22 C 51.12 72.14 49.92 73.56 48.34 72.85 C 43.88 71.00 41.85 66.20 39.60 62.26 C 38.13 58.60 36.51 55.00 34.57 51.57 C 34.85 51.04 35.40 49.98 35.67 49.45 C 37.09 49.09 38.50 48.67 39.97 48.59 C 44.54 50.84 46.93 55.63 48.64 60.18 C 49.02 58.01 49.20 55.77 49.96 53.68 C 51.53 51.77 53.67 50.44 55.62 48.95 C 58.07 49.97 60.56 50.90 63.10 51.70 C 63.26 51.75 63.60 51.86 63.76 51.91 Z" />
</svg>
