<?xml version="1.0" encoding="UTF-8" ?>
<!DOCTYPE svg PUBLIC "-//W3C//DTD SVG 1.1//EN" "http://www.w3.org/Graphics/SVG/1.1/DTD/svg11.dtd">
<svg width="100pt" height="100pt" viewBox="0 0 100 100" version="1.1" xmlns="http://www.w3.org/2000/svg">
<path fill="#090d14" opacity="1.00" d=" M 38.80 26.03 C 45.34 24.20 52.25 23.88 58.91 25.17 C 64.36 26.22 70.28 26.69 74.90 30.06 C 77.08 31.56 78.26 34.56 76.95 37.02 C 71.33 49.10 64.33 60.60 55.85 70.89 C 53.78 73.68 50.46 74.89 47.08 74.20 C 53.60 71.02 57.92 64.99 61.75 59.07 C 63.95 54.92 65.80 50.51 69.00 46.99 C 71.89 43.86 74.10 40.20 75.61 36.22 C 74.47 35.22 73.34 34.22 72.22 33.20 C 72.84 32.79 74.08 31.97 74.69 31.56 C 63.66 25.93 50.94 25.42 38.80 26.03 Z" />
<path fill="#4c5563" opacity="1.00" d=" M 33.91 26.90 C 35.46 26.25 37.15 26.14 38.80 26.03 C 50.94 25.42 63.66 25.93 74.69 31.56 C 74.08 31.97 72.84 32.79 72.22 33.20 C 68.21 35.57 63.37 34.40 58.96 34.78 C 58.75 35.01 58.35 35.47 58.14 35.70 C 57.79 34.88 57.44 34.06 57.09 33.24 C 55.82 34.01 54.56 34.77 53.29 35.54 C 53.05 34.37 52.81 33.20 52.58 32.03 C 52.06 34.10 51.54 36.17 51.08 38.25 C 51.08 35.82 50.95 33.40 50.82 30.98 C 48.22 31.42 45.63 31.89 43.04 32.34 C 40.80 32.57 38.55 32.65 36.31 32.73 C 37.07 31.77 37.82 30.80 38.56 29.83 C 35.31 30.44 32.05 30.99 28.77 31.38 C 30.46 29.86 32.09 28.26 33.91 26.90 M 55.86 29.21 C 57.46 30.62 58.93 32.40 61.02 33.09 C 63.45 33.43 65.89 32.96 68.30 32.70 C 64.75 29.93 60.28 29.03 55.86 29.21 Z" />
<path fill="#333744" opacity="1.00" d=" M 23.36 29.77 C 26.59 28.00 30.30 27.40 33.91 26.90 C 32.09 28.26 30.46 29.86 28.77 31.38 C 32.05 30.99 35.31 30.44 38.56 29.83 C 37.82 30.80 37.07 31.77 36.31 32.73 C 38.55 32.65 40.80 32.57 43.04 32.34 C 40.83 34.86 38.84 37.57 36.85 40.26 C 36.72 40.56 36.46 41.15 36.32 41.45 C 33.07 48.43 36.75 56.00 40.11 62.17 C 36.80 58.72 33.27 55.48 30.05 51.95 C 27.33 44.74 22.91 37.77 23.36 29.77 Z" />
<path fill="#afb9b8" opacity="1.00" d=" M 55.86 29.21 C 60.28 29.03 64.75 29.93 68.30 32.70 C 65.89 32.96 63.45 33.43 61.02 33.09 C 58.93 32.40 57.46 30.62 55.86 29.21 Z" />
<path fill="#040508" opacity="0.94" d=" M 21.91 37.80 C 20.95 35.02 22.29 32.29 23.36 29.77 C 22.91 37.77 27.33 44.74 30.05 51.95 C 26.53 47.78 23.47 43.07 21.91 37.80 Z" />
<path fill="#ffe6a0" opacity="1.00" d=" M 43.04 32.34 C 45.63 31.89 48.22 31.42 50.82 30.98 C 50.95 33.40 51.08 35.82 51.08 38.25 C 50.52 41.22 49.86 44.17 49.38 47.16 C 49.02 45.12 48.64 43.08 48.39 41.02 C 48.15 38.85 48.00 36.68 47.80 34.51 C 45.57 36.18 43.37 37.92 41.47 39.96 C 40.87 43.46 40.13 47.17 41.11 50.66 C 43.14 53.63 46.82 55.04 50.26 55.55 C 53.85 56.10 56.55 52.98 58.39 50.32 C 60.43 47.48 61.10 43.81 60.17 40.44 C 59.52 38.85 58.80 37.29 58.14 35.70 C 58.35 35.47 58.75 35.01 58.96 34.78 C 60.37 37.82 62.13 40.85 62.38 44.26 C 62.43 47.32 61.27 50.22 60.16 53.01 C 57.47 55.66 54.14 58.55 50.07 58.04 C 45.42 57.52 40.20 55.59 37.90 51.23 C 36.92 47.67 37.09 43.92 36.85 40.26 C 38.84 37.57 40.83 34.86 43.04 32.34 Z" />
<path fill="#323843" opacity="1.00" d=" M 52.58 32.03 C 52.81 33.20 53.05 34.37 53.29 35.54 C 54.56 34.77 55.82 34.01 57.09 33.24 C 57.44 34.06 57.79 34.88 58.14 35.70 C 58.80 37.29 59.52 38.85 60.17 40.44 C 57.28 41.21 54.38 41.94 51.47 42.62 C 50.85 44.72 50.25 46.82 49.62 48.91 C 49.56 48.47 49.44 47.60 49.38 47.16 C 49.86 44.17 50.52 41.22 51.08 38.25 C 51.54 36.17 52.06 34.10 52.58 32.03 Z" />
<path fill="#313541" opacity="1.00" d=" M 58.96 34.78 C 63.37 34.40 68.21 35.57 72.22 33.20 C 73.34 34.22 74.47 35.22 75.61 36.22 C 74.10 40.20 71.89 43.86 69.00 46.99 C 65.80 50.51 63.95 54.92 61.75 59.07 C 61.24 57.04 60.69 55.03 60.16 53.01 C 61.27 50.22 62.43 47.32 62.38 44.26 C 62.13 40.85 60.37 37.82 58.96 34.78 Z" />
<path fill="#3a4858" opacity="1.00" d=" M 41.47 39.96 C 43.37 37.92 45.57 36.18 47.80 34.51 C 48.00 36.68 48.15 38.85 48.39 41.02 C 46.08 40.69 43.77 40.34 41.47 39.96 Z" />
<path fill="#12101d" opacity="1.00" d=" M 36.32 41.45 C 36.46 41.15 36.72 40.56 36.85 40.26 C 37.09 43.92 36.92 47.67 37.90 51.23 C 40.20 55.59 45.42 57.52 50.07 58.04 C 54.14 58.55 57.47 55.66 60.16 53.01 C 60.69 55.03 61.24 57.04 61.75 59.07 C 57.92 64.99 53.60 71.02 47.08 74.20 C 40.25 67.80 34.33 60.27 30.05 51.95 C 33.27 55.48 36.80 58.72 40.11 62.17 C 36.75 56.00 33.07 48.43 36.32 41.45 Z" />
<path fill="#13131e" opacity="1.00" d=" M 41.47 39.96 C 43.77 40.34 46.08 40.69 48.39 41.02 C 48.64 43.08 49.02 45.12 49.38 47.16 C 49.44 47.60 49.56 48.47 49.62 48.91 C 50.25 46.82 50.85 44.72 51.47 42.62 C 54.38 41.94 57.28 41.21 60.17 40.44 C 61.10 43.81 60.43 47.48 58.39 50.32 C 56.55 52.98 53.85 56.10 50.26 55.55 C 46.82 55.04 43.14 53.63 41.11 50.66 C 40.13 47.17 40.87 43.46 41.47 39.96 Z" />
</svg>
