<?xml version="1.0" encoding="UTF-8" ?>
<!DOCTYPE svg PUBLIC "-//W3C//DTD SVG 1.1//EN" "http://www.w3.org/Graphics/SVG/1.1/DTD/svg11.dtd">
<svg width="100pt" height="100pt" viewBox="0 0 100 100" version="1.1" xmlns="http://www.w3.org/2000/svg">
<path fill="#060038" opacity="0.85" d=" M 48.39 0.00 L 50.47 0.00 C 56.72 4.37 63.36 8.18 69.33 12.95 L 68.47 12.91 C 61.65 9.65 56.18 3.98 48.98 1.51 C 48.56 1.75 47.74 2.24 47.33 2.49 C 45.60 3.50 43.87 4.51 42.22 5.63 C 40.31 6.85 38.44 8.14 36.53 9.35 C 29.07 13.69 21.90 18.49 14.46 22.87 C 13.38 33.88 14.13 44.96 14.03 56.00 C 14.29 62.99 13.12 70.13 14.84 76.99 C 22.15 82.11 29.98 86.47 37.63 91.07 C 41.22 93.53 44.78 96.11 48.74 97.97 C 57.98 94.96 65.06 87.71 73.98 83.91 C 66.49 90.12 57.71 94.43 49.77 100.00 L 48.50 100.00 C 37.15 91.93 25.04 85.01 13.22 77.66 C 12.91 59.23 12.91 40.79 13.25 22.36 C 25.06 15.06 36.84 7.71 48.39 0.00 Z" />
<path fill="#bec4b3" opacity="0.89" d=" M 48.98 1.51 C 56.18 3.98 61.65 9.65 68.47 12.91 C 67.22 12.90 65.97 12.92 64.72 12.93 C 61.27 10.66 57.20 10.18 53.21 9.68 C 49.89 9.23 49.59 5.21 49.02 2.61 L 48.98 1.51 Z" />
<path fill="#3c4875" opacity="0.87" d=" M 47.33 2.49 C 47.74 2.24 48.56 1.75 48.98 1.51 L 49.02 2.61 C 49.05 5.06 48.96 7.50 48.83 9.95 C 47.01 10.97 45.17 11.99 43.35 13.02 C 44.80 9.56 46.13 6.05 47.33 2.49 Z" />
<path fill="#737a8d" opacity="0.87" d=" M 42.22 5.63 C 43.87 4.51 45.60 3.50 47.33 2.49 C 46.13 6.05 44.80 9.56 43.35 13.02 C 45.17 11.99 47.01 10.97 48.83 9.95 C 50.86 13.40 53.87 16.13 57.32 18.13 C 54.56 17.51 51.77 17.08 49.00 16.54 C 47.04 17.50 45.07 18.45 43.12 19.45 C 41.71 19.67 40.29 19.82 38.87 19.98 C 40.57 18.02 42.32 16.11 44.06 14.19 C 41.37 15.07 38.64 15.81 35.94 16.69 C 38.14 13.07 39.71 9.08 42.22 5.63 Z" />
<path fill="#919ea0" opacity="0.89" d=" M 49.02 2.61 C 49.59 5.21 49.89 9.23 53.21 9.68 C 57.20 10.18 61.27 10.66 64.72 12.93 C 64.14 14.75 63.54 16.56 62.93 18.36 C 58.15 15.69 53.82 12.26 48.83 9.95 C 48.96 7.50 49.05 5.06 49.02 2.61 Z" />
<path fill="#cdccb9" opacity="0.91" d=" M 36.53 9.35 C 38.44 8.14 40.31 6.85 42.22 5.63 C 39.71 9.08 38.14 13.07 35.94 16.69 C 31.00 18.70 26.37 21.37 21.78 24.06 C 21.42 23.21 21.07 22.37 20.72 21.53 C 26.15 17.79 33.72 15.89 36.53 9.35 Z" />
<path fill="#dcdcc8" opacity="0.94" d=" M 14.46 22.87 C 21.90 18.49 29.07 13.69 36.53 9.35 C 33.72 15.89 26.15 17.79 20.72 21.53 C 19.17 22.43 17.62 23.36 16.07 24.27 C 15.52 33.30 15.77 42.34 16.40 51.36 C 15.58 58.68 16.33 66.02 16.36 73.35 L 15.82 74.01 L 15.27 74.65 C 15.32 57.39 14.91 40.13 14.46 22.87 Z" />
<path fill="#c3cdd2" opacity="1.00" d=" M 48.83 9.95 C 53.82 12.26 58.15 15.69 62.93 18.36 C 63.90 18.80 64.89 19.20 65.90 19.55 C 65.28 20.39 64.67 21.23 64.05 22.08 C 61.85 20.68 59.62 19.35 57.32 18.13 C 53.87 16.13 50.86 13.40 48.83 9.95 Z" />
<path fill="#6f78b1" opacity="0.82" d=" M 64.72 12.93 C 65.97 12.92 67.22 12.90 68.47 12.91 L 69.33 12.95 C 72.32 15.75 75.65 18.15 78.61 20.99 C 76.21 20.03 73.79 19.11 71.37 18.20 C 71.79 19.12 72.20 20.04 72.62 20.97 C 70.38 20.51 68.12 20.11 65.90 19.55 C 64.89 19.20 63.90 18.80 62.93 18.36 C 63.54 16.56 64.14 14.75 64.72 12.93 Z" />
<path fill="#393b91" opacity="1.00" d=" M 69.33 12.95 C 74.57 16.34 80.81 18.53 85.05 23.25 C 85.76 26.44 85.48 29.75 85.50 33.00 C 85.35 46.02 85.46 59.05 85.50 72.07 C 85.28 74.06 85.76 76.56 84.03 78.01 C 81.13 80.66 77.40 82.09 73.98 83.91 C 76.44 81.88 78.82 79.74 81.32 77.75 C 82.27 77.42 83.22 77.09 84.18 76.78 C 84.22 73.72 84.22 70.66 84.06 67.61 C 84.03 65.31 82.92 63.27 82.00 61.23 C 82.81 56.20 83.33 51.11 83.25 46.00 C 83.17 38.91 83.40 31.82 83.78 24.74 C 82.30 24.42 80.83 24.10 79.36 23.77 C 79.14 22.84 78.90 21.90 78.61 20.99 C 75.65 18.15 72.32 15.75 69.33 12.95 Z" />
<path fill="#acbaae" opacity="0.90" d=" M 35.94 16.69 C 38.64 15.81 41.37 15.07 44.06 14.19 C 42.32 16.11 40.57 18.02 38.87 19.98 C 40.29 19.82 41.71 19.67 43.12 19.45 C 41.26 20.60 39.48 21.87 37.68 23.11 C 36.20 24.11 34.74 25.14 33.23 26.10 C 30.63 27.34 27.89 28.24 25.10 28.96 C 29.66 25.55 33.91 21.75 38.16 17.96 C 31.67 20.90 24.79 23.97 20.54 29.96 C 20.03 28.97 19.53 27.98 19.02 26.99 C 16.76 34.98 19.13 43.45 16.40 51.36 C 15.77 42.34 15.52 33.30 16.07 24.27 C 17.62 23.36 19.17 22.43 20.72 21.53 C 21.07 22.37 21.42 23.21 21.78 24.06 C 26.37 21.37 31.00 18.70 35.94 16.69 Z" />
<path fill="#595e77" opacity="0.87" d=" M 43.12 19.45 C 45.07 18.45 47.04 17.50 49.00 16.54 C 51.77 17.08 54.56 17.51 57.32 18.13 C 59.62 19.35 61.85 20.68 64.05 22.08 C 67.94 24.78 72.48 26.79 75.58 30.46 C 76.74 33.94 76.03 37.68 76.06 41.27 C 75.58 39.49 74.99 37.74 74.40 36.00 C 73.90 36.99 73.39 37.97 72.93 38.98 C 72.52 37.55 71.92 36.18 71.28 34.84 C 69.69 35.73 68.10 36.60 66.53 37.52 C 66.50 36.08 66.39 34.63 66.29 33.19 C 65.77 32.83 64.73 32.12 64.21 31.76 C 64.78 33.82 65.41 35.86 65.84 37.95 C 65.50 41.57 64.82 45.13 64.21 48.71 C 61.93 46.48 59.49 44.42 57.08 42.34 C 59.42 40.34 61.77 38.34 64.01 36.20 C 63.66 35.64 63.31 35.07 62.97 34.50 C 62.59 34.82 61.84 35.45 61.47 35.77 C 60.21 36.15 58.94 36.46 57.66 36.76 C 56.21 34.30 54.76 31.84 53.31 29.38 L 53.13 30.28 C 52.96 30.71 52.63 31.56 52.47 31.99 C 50.50 31.70 48.53 31.42 46.56 31.11 C 47.99 28.17 49.87 25.50 51.60 22.74 C 50.12 23.24 48.63 23.78 47.05 23.85 L 46.51 23.91 C 45.38 23.92 44.25 23.86 43.12 23.80 C 41.29 23.69 39.48 23.40 37.68 23.11 C 39.48 21.87 41.26 20.60 43.12 19.45 Z" />
<path fill="#ccdddf" opacity="1.00" d=" M 20.54 29.96 C 24.79 23.97 31.67 20.90 38.16 17.96 C 33.91 21.75 29.66 25.55 25.10 28.96 C 23.60 29.38 22.07 29.67 20.54 29.96 Z" />
<path fill="#353e8a" opacity="0.80" d=" M 71.37 18.20 C 73.79 19.11 76.21 20.03 78.61 20.99 C 78.90 21.90 79.14 22.84 79.36 23.77 C 80.83 24.10 82.30 24.42 83.78 24.74 C 83.40 31.82 83.17 38.91 83.25 46.00 C 82.68 45.97 81.55 45.92 80.98 45.89 C 81.19 43.22 81.29 40.55 81.37 37.87 C 80.18 38.81 78.99 39.75 77.80 40.70 C 76.99 36.06 77.48 31.11 80.62 27.41 C 74.65 27.43 70.59 22.50 65.90 19.55 C 68.12 20.11 70.38 20.51 72.62 20.97 C 72.20 20.04 71.79 19.12 71.37 18.20 Z" />
<path fill="#7b8db4" opacity="0.90" d=" M 65.90 19.55 C 70.59 22.50 74.65 27.43 80.62 27.41 C 77.48 31.11 76.99 36.06 77.80 40.70 C 79.44 48.12 79.15 55.73 78.47 63.25 C 78.47 56.29 78.56 49.29 77.66 42.37 C 76.62 47.60 76.37 52.93 76.25 58.23 C 76.26 54.73 76.01 51.23 75.99 47.73 C 76.01 45.57 76.04 43.42 76.06 41.27 C 76.03 37.68 76.74 33.94 75.58 30.46 C 72.48 26.79 67.94 24.78 64.05 22.08 C 64.67 21.23 65.28 20.39 65.90 19.55 Z" />
<path fill="#c4b495" opacity="1.00" d=" M 14.03 56.00 C 14.13 44.96 13.38 33.88 14.46 22.87 C 14.91 40.13 15.32 57.39 15.27 74.65 L 15.11 75.49 C 15.04 75.86 14.91 76.62 14.84 76.99 C 13.12 70.13 14.29 62.99 14.03 56.00 Z" />
<path fill="#5c6c69" opacity="0.81" d=" M 33.23 26.10 C 34.74 25.14 36.20 24.11 37.68 23.11 C 39.48 23.40 41.29 23.69 43.12 23.80 C 41.83 27.08 40.68 30.41 39.60 33.76 C 37.86 34.02 36.12 34.27 34.38 34.53 C 35.99 34.93 37.61 35.31 39.25 35.63 C 37.70 35.91 36.16 36.26 34.61 36.55 C 32.81 36.39 31.01 36.23 29.21 36.03 C 32.14 37.36 35.01 38.85 37.54 40.86 C 36.69 41.28 35.86 41.72 35.03 42.16 C 29.72 44.67 26.52 49.76 22.54 53.82 C 22.00 46.88 22.00 39.89 23.01 33.00 C 25.82 32.36 28.80 32.04 31.33 30.57 C 32.34 29.28 32.69 27.62 33.23 26.10 Z" />
<path fill="#bec4b3" opacity="0.89" d=" M 43.12 23.80 C 44.25 23.86 45.38 23.92 46.51 23.91 C 45.02 24.96 43.36 25.96 42.43 27.58 C 41.43 30.26 42.03 33.17 42.20 35.93 C 41.21 35.83 40.23 35.73 39.25 35.63 C 37.61 35.31 35.99 34.93 34.38 34.53 C 36.12 34.27 37.86 34.02 39.60 33.76 C 40.68 30.41 41.83 27.08 43.12 23.80 Z" />
<path fill="#afbbbd" opacity="0.94" d=" M 47.05 23.85 C 48.63 23.78 50.12 23.24 51.60 22.74 C 49.87 25.50 47.99 28.17 46.56 31.11 C 48.53 31.42 50.50 31.70 52.47 31.99 C 51.86 33.48 51.25 34.97 50.64 36.46 C 48.60 35.02 46.45 33.65 44.77 31.77 C 44.93 29.00 46.15 26.44 47.05 23.85 Z" />
<path fill="#0a0733" opacity="0.65" d=" M 42.43 27.58 C 43.36 25.96 45.02 24.96 46.51 23.91 L 47.05 23.85 C 46.15 26.44 44.93 29.00 44.77 31.77 C 46.45 33.65 48.60 35.02 50.64 36.46 C 51.25 34.97 51.86 33.48 52.47 31.99 C 52.63 31.56 52.96 30.71 53.13 30.28 C 53.25 32.72 53.45 35.15 53.62 37.58 C 54.97 37.32 56.32 37.05 57.66 36.76 C 58.94 36.46 60.21 36.15 61.47 35.77 C 60.08 36.96 58.69 38.19 57.01 38.97 C 53.85 39.76 50.65 40.45 47.64 41.72 C 43.12 43.64 38.95 46.35 35.47 49.83 C 34.16 51.12 32.93 52.49 31.77 53.91 C 31.93 56.74 32.69 59.47 33.59 62.14 C 33.54 63.89 33.36 65.62 33.17 67.36 C 32.12 66.52 31.10 65.64 30.11 64.73 C 28.61 61.29 27.91 57.56 27.75 53.83 C 28.99 49.32 32.03 45.63 35.03 42.16 C 35.86 41.72 36.69 41.28 37.54 40.86 C 38.72 40.28 39.92 39.73 41.11 39.18 C 38.95 38.29 36.81 37.35 34.61 36.55 C 36.16 36.26 37.70 35.91 39.25 35.63 C 40.23 35.73 41.21 35.83 42.20 35.93 C 42.03 33.17 41.43 30.26 42.43 27.58 Z" />
<path fill="#567b9d" opacity="0.83" d=" M 25.10 28.96 C 27.89 28.24 30.63 27.34 33.23 26.10 C 32.69 27.62 32.34 29.28 31.33 30.57 C 28.80 32.04 25.82 32.36 23.01 33.00 C 22.00 39.89 22.00 46.88 22.54 53.82 C 26.52 49.76 29.72 44.67 35.03 42.16 C 32.03 45.63 28.99 49.32 27.75 53.83 C 27.11 57.19 27.03 60.62 26.97 64.03 C 25.15 64.55 23.34 65.06 21.52 65.53 C 21.52 58.63 20.81 51.73 19.50 44.96 C 17.96 53.45 17.78 62.14 18.68 70.71 C 17.89 71.58 17.12 72.46 16.36 73.35 C 16.33 66.02 15.58 58.68 16.40 51.36 C 19.13 43.45 16.76 34.98 19.02 26.99 C 19.53 27.98 20.03 28.97 20.54 29.96 C 22.07 29.67 23.60 29.38 25.10 28.96 Z" />
<path fill="#a8b6bf" opacity="0.95" d=" M 53.31 29.38 C 54.76 31.84 56.21 34.30 57.66 36.76 C 56.32 37.05 54.97 37.32 53.62 37.58 C 53.45 35.15 53.25 32.72 53.13 30.28 L 53.31 29.38 Z" />
<path fill="#959aa8" opacity="0.93" d=" M 64.21 31.76 C 64.73 32.12 65.77 32.83 66.29 33.19 C 66.39 34.63 66.50 36.08 66.53 37.52 L 65.84 37.95 C 65.41 35.86 64.78 33.82 64.21 31.76 Z" />
<path fill="#cdccb9" opacity="0.91" d=" M 62.97 34.50 C 63.31 35.07 63.66 35.64 64.01 36.20 C 61.77 38.34 59.42 40.34 57.08 42.34 C 59.49 44.42 61.93 46.48 64.21 48.71 C 64.15 49.15 64.02 50.02 63.96 50.46 C 60.55 47.04 56.93 43.84 53.18 40.80 C 54.46 40.20 55.75 39.60 57.01 38.97 C 58.69 38.19 60.08 36.96 61.47 35.77 C 61.84 35.45 62.59 34.82 62.97 34.50 Z" />
<path fill="#0d0641" opacity="0.87" d=" M 66.53 37.52 C 68.10 36.60 69.69 35.73 71.28 34.84 C 70.89 39.32 70.72 43.83 70.36 48.31 C 70.09 46.66 69.72 45.03 69.29 43.41 C 69.14 43.76 68.82 44.45 68.67 44.80 C 66.18 49.00 64.59 54.10 67.15 58.68 C 64.49 56.11 62.03 53.33 59.31 50.83 C 55.72 47.42 51.67 44.57 47.64 41.72 C 50.65 40.45 53.85 39.76 57.01 38.97 C 55.75 39.60 54.46 40.20 53.18 40.80 C 56.93 43.84 60.55 47.04 63.96 50.46 C 64.02 50.02 64.15 49.15 64.21 48.71 C 64.82 45.13 65.50 41.57 65.84 37.95 L 66.53 37.52 M 68.18 39.33 C 66.57 39.35 66.07 42.29 67.85 42.44 C 69.43 42.41 69.95 39.48 68.18 39.33 Z" />
<path fill="#a3a6c3" opacity="0.95" d=" M 71.28 34.84 C 71.92 36.18 72.52 37.55 72.93 38.98 C 72.28 44.55 72.94 50.38 70.77 55.68 C 70.51 53.23 70.50 50.77 70.36 48.31 C 70.72 43.83 70.89 39.32 71.28 34.84 Z" />
<path fill="#cdccb9" opacity="0.91" d=" M 29.21 36.03 C 31.01 36.23 32.81 36.39 34.61 36.55 C 36.81 37.35 38.95 38.29 41.11 39.18 C 39.92 39.73 38.72 40.28 37.54 40.86 C 35.01 38.85 32.14 37.36 29.21 36.03 Z" />
<path fill="#394fb6" opacity="0.92" d=" M 72.93 38.98 C 73.39 37.97 73.90 36.99 74.40 36.00 C 74.99 37.74 75.58 39.49 76.06 41.27 C 76.04 43.42 76.01 45.57 75.99 47.73 C 75.60 53.50 73.81 59.09 70.84 64.04 C 70.31 62.90 69.74 61.78 69.12 60.68 C 67.23 55.54 67.92 50.07 68.67 44.80 C 68.82 44.45 69.14 43.76 69.29 43.41 C 69.72 45.03 70.09 46.66 70.36 48.31 C 70.50 50.77 70.51 53.23 70.77 55.68 C 72.94 50.38 72.28 44.55 72.93 38.98 Z" />
<path fill="#4e58a0" opacity="0.80" d=" M 77.80 40.70 C 78.99 39.75 80.18 38.81 81.37 37.87 C 81.29 40.55 81.19 43.22 80.98 45.89 C 80.68 50.99 78.99 56.60 82.00 61.23 C 82.92 63.27 84.03 65.31 84.06 67.61 C 83.63 70.02 83.04 72.40 82.42 74.77 C 74.54 74.16 69.11 81.04 61.70 82.46 C 64.15 80.59 66.41 78.49 68.75 76.49 C 71.64 75.39 74.82 74.45 76.96 72.09 C 78.44 69.43 78.21 66.20 78.47 63.25 C 79.15 55.73 79.44 48.12 77.80 40.70 Z" />
<path fill="#c0c5d4" opacity="0.96" d=" M 68.18 39.33 C 69.95 39.48 69.43 42.41 67.85 42.44 C 66.07 42.29 66.57 39.35 68.18 39.33 Z" />
<path fill="#cdccb9" opacity="0.91" d=" M 35.47 49.83 C 38.95 46.35 43.12 43.64 47.64 41.72 C 51.67 44.57 55.72 47.42 59.31 50.83 C 56.00 48.76 52.71 46.61 49.15 44.98 C 46.61 43.74 43.90 45.45 41.78 46.78 C 38.82 48.66 37.95 52.26 36.81 55.34 C 36.32 53.52 35.90 51.67 35.47 49.83 Z" />
<path fill="#bec9d3" opacity="0.96" d=" M 76.25 58.23 C 76.37 52.93 76.62 47.60 77.66 42.37 C 78.56 49.29 78.47 56.29 78.47 63.25 C 78.21 66.20 78.44 69.43 76.96 72.09 C 74.82 74.45 71.64 75.39 68.75 76.49 C 68.27 76.62 67.30 76.86 66.81 76.99 C 69.74 74.92 72.67 72.86 75.64 70.86 C 75.76 68.20 75.84 65.53 76.01 62.87 C 76.14 61.32 76.21 59.78 76.25 58.23 Z" />
<path fill="#6378a5" opacity="0.95" d=" M 41.78 46.78 C 43.90 45.45 46.61 43.74 49.15 44.98 C 52.71 46.61 56.00 48.76 59.31 50.83 C 62.03 53.33 64.49 56.11 67.15 58.68 C 67.80 59.35 68.48 60.00 69.12 60.68 C 69.74 61.78 70.31 62.90 70.84 64.04 C 71.46 65.47 72.01 66.92 72.55 68.38 C 72.16 68.93 71.38 70.04 70.99 70.59 C 70.16 68.57 69.40 66.53 68.60 64.50 C 67.62 64.50 66.65 64.47 65.67 64.41 C 66.10 66.01 66.54 67.62 66.97 69.22 C 64.78 69.75 62.62 70.36 60.47 71.03 C 58.68 69.03 56.88 67.05 55.06 65.08 C 57.55 65.74 60.04 66.38 62.55 66.96 C 62.14 66.50 61.34 65.57 60.93 65.11 C 59.54 63.52 58.13 61.95 56.64 60.45 C 57.38 58.76 58.12 57.07 58.85 55.38 C 57.86 55.65 56.86 55.92 55.87 56.21 C 49.73 58.38 42.14 60.52 36.81 55.34 C 37.95 52.26 38.82 48.66 41.78 46.78 Z" />
<path fill="#294365" opacity="0.66" d=" M 19.50 44.96 C 20.81 51.73 21.52 58.63 21.52 65.53 C 21.22 67.35 20.79 69.15 20.21 70.91 C 18.77 71.98 17.27 72.96 15.82 74.01 L 16.36 73.35 C 17.12 72.46 17.89 71.58 18.68 70.71 C 17.78 62.14 17.96 53.45 19.50 44.96 Z" />
<path fill="#a1afcf" opacity="0.98" d=" M 68.67 44.80 C 67.92 50.07 67.23 55.54 69.12 60.68 C 68.48 60.00 67.80 59.35 67.15 58.68 C 64.59 54.10 66.18 49.00 68.67 44.80 Z" />
<path fill="#0825d0" opacity="0.82" d=" M 80.98 45.89 C 81.55 45.92 82.68 45.97 83.25 46.00 C 83.33 51.11 82.81 56.20 82.00 61.23 C 78.99 56.60 80.68 50.99 80.98 45.89 Z" />
<path fill="#09218c" opacity="0.87" d=" M 70.84 64.04 C 73.81 59.09 75.60 53.50 75.99 47.73 C 76.01 51.23 76.26 54.73 76.25 58.23 C 76.21 59.78 76.14 61.32 76.01 62.87 C 74.95 64.76 73.80 66.61 72.55 68.38 C 72.01 66.92 71.46 65.47 70.84 64.04 Z" />
<path fill="#060038" opacity="0.85" d=" M 31.77 53.91 C 32.93 52.49 34.16 51.12 35.47 49.83 C 35.90 51.67 36.32 53.52 36.81 55.34 C 42.14 60.52 49.73 58.38 55.87 56.21 C 55.44 56.95 55.01 57.69 54.59 58.43 C 55.27 59.10 55.96 59.78 56.64 60.45 C 58.13 61.95 59.54 63.52 60.93 65.11 C 58.36 63.27 55.26 63.31 52.36 64.20 C 53.49 65.95 54.64 67.69 55.77 69.44 C 53.39 67.41 51.16 65.19 48.65 63.32 C 45.67 61.12 41.70 61.28 38.54 59.44 C 36.02 57.95 33.97 55.81 31.77 53.91 M 47.89 60.78 C 48.94 61.65 50.03 62.46 51.18 63.21 C 52.69 62.93 54.14 62.40 55.60 61.93 C 54.64 61.05 53.70 60.13 52.64 59.37 C 50.98 59.51 49.45 60.26 47.89 60.78 Z" />
<path fill="#609bbc" opacity="0.87" d=" M 26.97 64.03 C 27.03 60.62 27.11 57.19 27.75 53.83 C 27.91 57.56 28.61 61.29 30.11 64.73 C 30.72 66.20 31.33 67.67 31.93 69.15 C 32.25 69.94 32.56 70.72 32.88 71.51 C 31.64 71.87 30.39 72.24 29.15 72.61 C 31.02 73.72 32.90 74.83 34.77 75.94 C 38.88 79.07 43.12 82.03 47.10 85.33 C 47.78 85.90 48.45 86.47 49.13 87.05 C 49.10 87.89 49.04 89.56 49.01 90.40 C 44.42 85.84 38.73 82.61 32.80 80.14 C 32.27 79.30 31.73 78.46 31.18 77.62 C 31.68 77.78 32.67 78.08 33.16 78.23 C 29.56 74.75 25.45 71.24 20.21 70.91 C 20.79 69.15 21.22 67.35 21.52 65.53 C 23.34 65.06 25.15 64.55 26.97 64.03 Z" />
<path fill="#9db8c7" opacity="0.97" d=" M 31.77 53.91 C 33.97 55.81 36.02 57.95 38.54 59.44 C 41.70 61.28 45.67 61.12 48.65 63.32 C 51.16 65.19 53.39 67.41 55.77 69.44 C 54.64 67.69 53.49 65.95 52.36 64.20 C 55.26 63.31 58.36 63.27 60.93 65.11 C 61.34 65.57 62.14 66.50 62.55 66.96 C 60.04 66.38 57.55 65.74 55.06 65.08 C 56.88 67.05 58.68 69.03 60.47 71.03 C 61.87 72.59 63.26 74.17 64.66 75.73 C 64.03 76.16 63.40 76.58 62.77 77.01 C 61.24 75.67 59.69 74.35 58.10 73.08 C 53.45 69.69 49.62 64.82 43.87 63.25 C 40.24 62.21 36.86 60.49 33.73 58.39 C 35.77 61.04 37.66 63.80 39.76 66.40 C 37.69 65.00 35.60 63.64 33.59 62.14 C 32.69 59.47 31.93 56.74 31.77 53.91 Z" />
<path fill="#9fb6db" opacity="0.98" d=" M 55.87 56.21 C 56.86 55.92 57.86 55.65 58.85 55.38 C 58.12 57.07 57.38 58.76 56.64 60.45 C 55.96 59.78 55.27 59.10 54.59 58.43 C 55.01 57.69 55.44 56.95 55.87 56.21 Z" />
<path fill="#5c87b0" opacity="0.96" d=" M 33.73 58.39 C 36.86 60.49 40.24 62.21 43.87 63.25 C 49.62 64.82 53.45 69.69 58.10 73.08 C 56.52 73.61 54.95 74.15 53.37 74.69 C 53.53 73.44 53.68 72.20 53.84 70.95 L 53.21 71.01 C 51.22 71.04 49.23 70.97 47.24 70.86 C 44.65 69.54 42.15 68.05 39.76 66.40 C 37.66 63.80 35.77 61.04 33.73 58.39 Z" />
<path fill="#97b5d7" opacity="1.00" d=" M 47.89 60.78 C 49.45 60.26 50.98 59.51 52.64 59.37 C 53.70 60.13 54.64 61.05 55.60 61.93 C 54.14 62.40 52.69 62.93 51.18 63.21 C 50.03 62.46 48.94 61.65 47.89 60.78 Z" />
<path fill="#0d0642" opacity="0.87" d=" M 33.59 62.14 C 35.60 63.64 37.69 65.00 39.76 66.40 C 42.15 68.05 44.65 69.54 47.24 70.86 C 42.38 70.74 37.24 70.29 33.17 67.36 C 33.36 65.62 33.54 63.89 33.59 62.14 Z" />
<path fill="#4a577a" opacity="0.88" d=" M 72.55 68.38 C 73.80 66.61 74.95 64.76 76.01 62.87 C 75.84 65.53 75.76 68.20 75.64 70.86 C 72.67 72.86 69.74 74.92 66.81 76.99 C 60.56 79.68 55.03 83.70 49.13 87.05 C 48.45 86.47 47.78 85.90 47.10 85.33 C 47.81 85.10 49.23 84.64 49.94 84.42 C 54.60 82.69 58.62 79.67 62.77 77.01 C 63.40 76.58 64.03 76.16 64.66 75.73 C 63.26 74.17 61.87 72.59 60.47 71.03 C 62.62 70.36 64.78 69.75 66.97 69.22 C 66.54 67.62 66.10 66.01 65.67 64.41 C 66.65 64.47 67.62 64.50 68.60 64.50 C 69.40 66.53 70.16 68.57 70.99 70.59 C 71.38 70.04 72.16 68.93 72.55 68.38 M 66.23 74.16 C 66.74 74.65 66.74 74.65 66.23 74.16 Z" />
<path fill="#a4c4c9" opacity="0.97" d=" M 30.11 64.73 C 31.10 65.64 32.12 66.52 33.17 67.36 C 37.24 70.29 42.38 70.74 47.24 70.86 C 49.23 70.97 51.22 71.04 53.21 71.01 C 52.47 71.67 51.75 72.35 51.04 73.04 C 44.46 73.10 37.93 71.88 31.93 69.15 C 31.33 67.67 30.72 66.20 30.11 64.73 Z" />
<path fill="#7c83a8" opacity="0.93" d=" M 82.42 74.77 C 83.04 72.40 83.63 70.02 84.06 67.61 C 84.22 70.66 84.22 73.72 84.18 76.78 C 83.22 77.09 82.27 77.42 81.32 77.75 C 74.05 79.78 68.32 84.94 61.72 88.38 C 62.42 86.93 63.01 85.43 63.62 83.94 C 58.73 86.64 53.90 89.43 49.03 92.17 L 49.03 91.27 L 49.01 90.40 C 52.82 87.14 57.15 84.55 61.70 82.46 C 69.11 81.04 74.54 74.16 82.42 74.77 Z" />
<path fill="#69a2a3" opacity="0.96" d=" M 31.93 69.15 C 37.93 71.88 44.46 73.10 51.04 73.04 C 48.66 75.37 46.25 77.67 43.78 79.91 C 40.92 78.28 37.80 77.19 34.77 75.94 C 32.90 74.83 31.02 73.72 29.15 72.61 C 30.39 72.24 31.64 71.87 32.88 71.51 C 32.56 70.72 32.25 69.94 31.93 69.15 Z" />
<path fill="#a7c9c6" opacity="0.98" d=" M 20.21 70.91 C 25.45 71.24 29.56 74.75 33.16 78.23 C 32.67 78.08 31.68 77.78 31.18 77.62 C 27.84 76.03 24.45 74.50 21.35 72.47 C 21.06 72.08 20.49 71.30 20.21 70.91 Z" />
<path fill="#8ea29a" opacity="0.82" d=" M 15.82 74.01 C 17.27 72.96 18.77 71.98 20.21 70.91 C 20.49 71.30 21.06 72.08 21.35 72.47 C 23.62 75.56 25.95 78.68 27.35 82.29 C 23.24 80.08 19.20 77.74 15.11 75.49 L 15.27 74.65 L 15.82 74.01 Z" />
<path fill="#809781" opacity="0.91" d=" M 53.21 71.01 L 53.84 70.95 C 53.68 72.20 53.53 73.44 53.37 74.69 C 54.95 74.15 56.52 73.61 58.10 73.08 C 59.69 74.35 61.24 75.67 62.77 77.01 C 58.62 79.67 54.60 82.69 49.94 84.42 C 47.93 82.86 45.91 81.30 43.78 79.91 C 46.25 77.67 48.66 75.37 51.04 73.04 C 51.75 72.35 52.47 71.67 53.21 71.01 Z" />
<path fill="#627baa" opacity="0.81" d=" M 21.35 72.47 C 24.45 74.50 27.84 76.03 31.18 77.62 C 31.73 78.46 32.27 79.30 32.80 80.14 C 36.05 86.35 43.01 88.67 49.03 91.27 L 49.03 92.17 C 48.98 93.50 48.93 94.83 48.86 96.16 C 45.75 94.23 42.67 92.24 39.49 90.42 C 35.59 87.50 31.57 84.73 27.35 82.29 C 25.95 78.68 23.62 75.56 21.35 72.47 Z" />
<path fill="#beaf81" opacity="0.89" d=" M 66.23 74.16 C 66.74 74.65 66.74 74.65 66.23 74.16 Z" />
<path fill="#dfe2d6" opacity="1.00" d=" M 15.11 75.49 C 19.20 77.74 23.24 80.08 27.35 82.29 C 31.57 84.73 35.59 87.50 39.49 90.42 C 39.02 90.58 38.09 90.91 37.63 91.07 C 29.98 86.47 22.15 82.11 14.84 76.99 C 14.91 76.62 15.04 75.86 15.11 75.49 Z" />
<path fill="#b1b9a5" opacity="0.94" d=" M 34.77 75.94 C 37.80 77.19 40.92 78.28 43.78 79.91 C 45.91 81.30 47.93 82.86 49.94 84.42 C 49.23 84.64 47.81 85.10 47.10 85.33 C 43.12 82.03 38.88 79.07 34.77 75.94 Z" />
<path fill="#c2d0d7" opacity="1.00" d=" M 49.13 87.05 C 55.03 83.70 60.56 79.68 66.81 76.99 C 67.30 76.86 68.27 76.62 68.75 76.49 C 66.41 78.49 64.15 80.59 61.70 82.46 C 57.15 84.55 52.82 87.14 49.01 90.40 C 49.04 89.56 49.10 87.89 49.13 87.05 Z" />
<path fill="#c5cbd5" opacity="1.00" d=" M 61.72 88.38 C 68.32 84.94 74.05 79.78 81.32 77.75 C 78.82 79.74 76.44 81.88 73.98 83.91 C 65.06 87.71 57.98 94.96 48.74 97.97 C 52.39 93.94 57.20 91.29 61.72 88.38 Z" />
<path fill="#465780" opacity="0.89" d=" M 32.80 80.14 C 38.73 82.61 44.42 85.84 49.01 90.40 L 49.03 91.27 C 43.01 88.67 36.05 86.35 32.80 80.14 Z" />
<path fill="#b5b9a3" opacity="0.93" d=" M 49.03 92.17 C 53.90 89.43 58.73 86.64 63.62 83.94 C 63.01 85.43 62.42 86.93 61.72 88.38 C 57.20 91.29 52.39 93.94 48.74 97.97 C 44.78 96.11 41.22 93.53 37.63 91.07 C 38.09 90.91 39.02 90.58 39.49 90.42 C 42.67 92.24 45.75 94.23 48.86 96.16 C 48.93 94.83 48.98 93.50 49.03 92.17 Z" />
</svg>
