<?xml version="1.0" encoding="UTF-8" ?>
<!DOCTYPE svg PUBLIC "-//W3C//DTD SVG 1.1//EN" "http://www.w3.org/Graphics/SVG/1.1/DTD/svg11.dtd">
<svg width="100pt" height="100pt" viewBox="0 0 100 100" version="1.1" xmlns="http://www.w3.org/2000/svg">
<path fill="#06070a" opacity="0.92" d=" M 36.88 26.18 C 45.16 24.17 53.87 24.43 62.23 25.80 C 66.85 26.58 71.75 27.48 75.47 30.52 C 77.35 32.03 78.16 34.84 76.99 37.02 C 71.69 48.21 65.13 58.79 57.75 68.73 C 55.73 71.26 53.35 74.06 49.97 74.61 C 45.91 73.93 43.12 70.43 40.57 67.48 C 34.05 59.12 27.93 50.37 23.02 40.96 C 20.98 37.40 21.42 33.13 23.39 29.66 C 22.93 36.86 26.28 43.39 29.43 49.61 C 32.17 54.87 36.62 58.88 40.41 63.35 C 42.55 67.23 44.77 72.82 49.89 73.04 C 53.25 71.14 55.18 67.55 57.78 64.80 C 63.19 58.88 67.33 51.98 71.22 45.01 C 73.02 42.25 74.34 39.22 75.52 36.16 C 74.39 35.16 73.27 34.15 72.15 33.14 C 72.77 32.75 74.01 31.98 74.63 31.59 C 63.22 25.16 49.56 25.47 36.88 26.18 Z" />
<path fill="#485161" opacity="1.00" d=" M 33.79 26.81 C 34.80 26.48 35.83 26.27 36.88 26.18 C 49.56 25.47 63.22 25.16 74.63 31.59 C 74.01 31.98 72.77 32.75 72.15 33.14 C 70.95 33.65 69.71 34.05 68.49 34.53 C 68.17 33.62 67.85 32.71 67.49 31.82 C 63.92 29.78 59.80 29.19 55.75 29.20 C 58.15 31.46 61.07 33.01 64.14 34.16 C 55.91 36.64 47.39 33.86 39.11 33.07 C 39.05 33.78 38.93 35.21 38.86 35.93 C 37.81 34.12 37.13 32.13 36.70 30.09 C 34.04 30.71 31.36 31.28 28.65 31.73 C 30.24 29.96 31.90 28.25 33.79 26.81 Z" />
<path fill="#333744" opacity="1.00" d=" M 23.39 29.66 C 26.72 28.25 30.23 27.36 33.79 26.81 C 31.90 28.25 30.24 29.96 28.65 31.73 C 31.36 31.28 34.04 30.71 36.70 30.09 C 37.13 32.13 37.81 34.12 38.86 35.93 C 39.60 37.16 40.40 38.36 41.17 39.58 C 38.35 40.82 35.63 42.26 33.03 43.92 C 34.15 46.29 35.26 48.66 36.36 51.03 C 38.22 51.13 40.07 51.21 41.93 51.13 C 39.72 51.81 37.44 52.20 35.18 52.62 C 37.26 56.03 38.93 59.65 40.41 63.35 C 36.62 58.88 32.17 54.87 29.43 49.61 C 26.28 43.39 22.93 36.86 23.39 29.66 Z" />
<path fill="#afb9b8" opacity="1.00" d=" M 55.75 29.20 C 59.80 29.19 63.92 29.78 67.49 31.82 C 66.38 32.62 65.27 33.41 64.14 34.16 C 61.07 33.01 58.15 31.46 55.75 29.20 Z" />
<path fill="#ffe3a8" opacity="1.00" d=" M 67.49 31.82 C 67.85 32.71 68.17 33.62 68.49 34.53 C 66.32 35.56 64.38 36.98 62.46 38.42 C 58.11 41.51 53.49 44.22 49.18 47.39 C 49.81 49.37 50.45 51.35 51.10 53.32 C 54.63 50.75 58.07 48.02 61.06 44.81 C 61.32 44.98 61.85 45.33 62.12 45.50 C 58.75 50.69 54.55 55.29 49.89 59.35 C 48.59 55.95 47.32 52.55 45.99 49.16 C 44.65 49.85 43.33 50.58 41.93 51.13 C 40.07 51.21 38.22 51.13 36.36 51.03 C 39.26 49.34 42.19 47.71 45.07 46.00 C 43.80 43.84 42.52 41.69 41.17 39.58 C 40.40 38.36 39.60 37.16 38.86 35.93 C 38.93 35.21 39.05 33.78 39.11 33.07 C 47.39 33.86 55.91 36.64 64.14 34.16 C 65.27 33.41 66.38 32.62 67.49 31.82 M 43.07 36.24 C 44.41 39.10 45.99 41.84 47.76 44.45 C 51.38 42.45 54.97 40.34 58.14 37.66 C 53.11 37.22 48.10 36.68 43.07 36.24 Z" />
<path fill="#353843" opacity="1.00" d=" M 68.49 34.53 C 69.71 34.05 70.95 33.65 72.15 33.14 C 73.27 34.15 74.39 35.16 75.52 36.16 C 74.34 39.22 73.02 42.25 71.22 45.01 C 66.42 47.57 63.76 52.38 60.47 56.47 C 58.21 52.37 62.09 48.95 64.18 45.77 C 63.66 45.70 62.63 45.57 62.12 45.50 C 61.85 45.33 61.32 44.98 61.06 44.81 C 62.39 42.95 63.20 40.68 62.46 38.42 C 64.38 36.98 66.32 35.56 68.49 34.53 Z" />
<path fill="#353d4b" opacity="1.00" d=" M 43.07 36.24 C 48.10 36.68 53.11 37.22 58.14 37.66 C 54.97 40.34 51.38 42.45 47.76 44.45 C 45.99 41.84 44.41 39.10 43.07 36.24 Z" />
<path fill="#161521" opacity="1.00" d=" M 49.18 47.39 C 53.49 44.22 58.11 41.51 62.46 38.42 C 63.20 40.68 62.39 42.95 61.06 44.81 C 58.07 48.02 54.63 50.75 51.10 53.32 C 50.45 51.35 49.81 49.37 49.18 47.39 Z" />
<path fill="#1e202c" opacity="1.00" d=" M 33.03 43.92 C 35.63 42.26 38.35 40.82 41.17 39.58 C 42.52 41.69 43.80 43.84 45.07 46.00 C 42.19 47.71 39.26 49.34 36.36 51.03 C 35.26 48.66 34.15 46.29 33.03 43.92 Z" />
<path fill="#14131f" opacity="1.00" d=" M 62.12 45.50 C 62.63 45.57 63.66 45.70 64.18 45.77 C 62.09 48.95 58.21 52.37 60.47 56.47 C 63.76 52.38 66.42 47.57 71.22 45.01 C 67.33 51.98 63.19 58.88 57.78 64.80 C 55.18 67.55 53.25 71.14 49.89 73.04 C 44.77 72.82 42.55 67.23 40.41 63.35 C 38.93 59.65 37.26 56.03 35.18 52.62 C 37.44 52.20 39.72 51.81 41.93 51.13 C 43.33 50.58 44.65 49.85 45.99 49.16 C 47.32 52.55 48.59 55.95 49.89 59.35 C 54.55 55.29 58.75 50.69 62.12 45.50 Z" />
</svg>
