<?xml version="1.0" encoding="UTF-8" ?>
<!DOCTYPE svg PUBLIC "-//W3C//DTD SVG 1.1//EN" "http://www.w3.org/Graphics/SVG/1.1/DTD/svg11.dtd">
<svg width="100pt" height="100pt" viewBox="0 0 100 100" version="1.1" xmlns="http://www.w3.org/2000/svg">
<path fill="#0d0643" opacity="0.87" d=" M 48.40 0.00 L 50.45 0.00 C 56.74 4.41 63.46 8.20 69.37 13.13 L 68.51 12.96 C 61.67 9.73 56.24 3.98 48.98 1.58 C 48.55 1.81 47.69 2.26 47.26 2.49 C 45.53 3.46 43.83 4.49 42.21 5.63 C 40.32 6.88 38.45 8.17 36.54 9.39 C 29.06 13.68 21.91 18.54 14.45 22.88 C 13.56 32.23 14.12 41.63 14.02 51.00 C 14.24 59.69 13.48 68.42 14.62 77.07 C 22.25 81.76 29.81 86.58 37.60 91.00 C 41.21 93.49 44.79 96.07 48.76 97.97 C 54.33 96.42 58.86 92.70 63.67 89.69 C 66.97 87.54 70.48 85.73 73.96 83.89 C 66.47 90.10 57.70 94.41 49.78 100.00 L 48.52 100.00 C 37.17 91.93 25.08 84.98 13.24 77.66 C 12.99 59.23 13.00 40.79 13.25 22.35 C 25.09 15.10 36.86 7.71 48.40 0.00 Z" />
<path fill="#bec4b3" opacity="0.89" d=" M 48.98 1.58 C 56.24 3.98 61.67 9.73 68.51 12.96 C 66.71 12.65 64.92 12.36 63.16 11.89 C 59.49 10.63 55.62 10.20 51.89 9.23 C 49.74 7.83 49.58 4.92 49.02 2.64 L 48.98 1.58 Z" />
<path fill="#3c4875" opacity="0.87" d=" M 47.26 2.49 C 47.69 2.26 48.55 1.81 48.98 1.58 L 49.02 2.64 C 49.07 5.06 49.00 7.49 48.94 9.91 C 47.06 10.92 45.20 11.98 43.33 13.02 C 44.86 9.60 46.20 6.09 47.26 2.49 Z" />
<path fill="#737a8d" opacity="0.87" d=" M 42.21 5.63 C 43.83 4.49 45.53 3.46 47.26 2.49 C 46.20 6.09 44.86 9.60 43.33 13.02 C 45.20 11.98 47.06 10.92 48.94 9.91 C 49.94 11.55 50.95 13.19 52.08 14.74 C 52.35 15.12 52.89 15.89 53.16 16.28 C 49.66 16.78 46.22 17.69 43.04 19.26 C 41.64 19.56 40.22 19.79 38.81 20.02 C 40.51 18.05 42.27 16.13 44.05 14.24 C 41.34 15.03 38.61 15.76 35.95 16.71 C 38.05 13.02 39.82 9.14 42.21 5.63 Z" />
<path fill="#92a0a0" opacity="0.88" d=" M 49.02 2.64 C 49.58 4.92 49.74 7.83 51.89 9.23 C 55.62 10.20 59.49 10.63 63.16 11.89 C 63.00 14.02 62.84 16.15 62.68 18.28 C 58.07 15.53 53.74 12.34 48.94 9.91 C 49.00 7.49 49.07 5.06 49.02 2.64 Z" />
<path fill="#cdccb9" opacity="0.91" d=" M 36.54 9.39 C 38.45 8.17 40.32 6.88 42.21 5.63 C 39.82 9.14 38.05 13.02 35.95 16.71 C 31.05 18.74 26.39 21.30 21.92 24.15 C 21.52 23.29 21.12 22.42 20.72 21.55 C 26.19 17.83 33.61 15.86 36.54 9.39 Z" />
<path fill="#dcdcc8" opacity="0.94" d=" M 14.45 22.88 C 21.91 18.54 29.06 13.68 36.54 9.39 C 33.61 15.86 26.19 17.83 20.72 21.55 C 19.16 22.46 17.61 23.38 16.04 24.27 C 15.54 33.31 15.78 42.35 16.40 51.37 C 15.64 58.68 16.29 66.02 16.42 73.34 L 15.95 74.03 L 15.46 74.73 C 15.07 57.45 15.06 40.15 14.45 22.88 Z" />
<path fill="#c3cdd1" opacity="0.98" d=" M 48.94 9.91 C 53.74 12.34 58.07 15.53 62.68 18.28 C 63.72 18.78 64.80 19.21 65.89 19.59 C 65.27 20.43 64.64 21.26 64.03 22.10 C 60.20 19.40 56.06 17.20 52.08 14.74 C 50.95 13.19 49.94 11.55 48.94 9.91 Z" />
<path fill="#767bb0" opacity="0.82" d=" M 63.16 11.89 C 64.92 12.36 66.71 12.65 68.51 12.96 L 69.37 13.13 C 72.23 15.63 75.28 17.92 78.03 20.55 C 75.94 19.63 73.75 18.97 71.58 18.27 C 71.61 19.03 71.65 19.79 71.68 20.55 C 69.75 20.22 67.80 20.04 65.89 19.59 C 64.80 19.21 63.72 18.78 62.68 18.28 C 62.84 16.15 63.00 14.02 63.16 11.89 Z" />
<path fill="#393b91" opacity="1.00" d=" M 69.37 13.13 C 74.68 16.31 80.84 18.54 85.04 23.25 C 85.77 26.44 85.49 29.75 85.51 32.99 C 85.35 46.02 85.47 59.05 85.51 72.08 C 85.30 74.07 85.73 76.55 84.03 78.01 C 81.14 80.67 77.39 82.08 73.96 83.89 C 76.43 81.86 78.87 79.79 81.47 77.91 C 85.45 76.07 84.16 71.09 84.14 67.60 C 83.89 65.35 82.90 63.29 81.99 61.25 C 82.81 56.21 83.31 51.11 83.25 45.99 C 83.15 38.86 83.40 31.74 83.80 24.63 C 82.48 24.69 81.17 24.75 79.85 24.81 C 79.32 23.37 78.96 21.81 78.03 20.55 C 75.28 17.92 72.23 15.63 69.37 13.13 Z" />
<path fill="#acbaae" opacity="0.87" d=" M 35.95 16.71 C 38.61 15.76 41.34 15.03 44.05 14.24 C 42.27 16.13 40.51 18.05 38.81 20.02 C 40.22 19.79 41.64 19.56 43.04 19.26 C 40.29 21.05 37.66 23.02 34.88 24.76 C 31.77 26.52 28.44 27.82 25.09 29.02 C 29.68 25.61 33.92 21.74 38.19 17.94 C 32.14 20.67 25.87 23.56 21.37 28.61 C 21.39 29.05 21.43 29.93 21.45 30.37 C 21.60 32.57 21.76 34.77 21.82 36.98 C 21.82 39.08 21.83 41.18 21.90 43.29 C 21.40 37.70 20.88 32.09 19.50 26.64 C 16.49 33.59 19.41 41.22 17.17 48.30 C 16.90 49.32 16.65 50.34 16.40 51.37 C 15.78 42.35 15.54 33.31 16.04 24.27 C 17.61 23.38 19.16 22.46 20.72 21.55 C 21.12 22.42 21.52 23.29 21.92 24.15 C 26.39 21.30 31.05 18.74 35.95 16.71 Z" />
<path fill="#59626e" opacity="0.85" d=" M 52.08 14.74 C 56.06 17.20 60.20 19.40 64.03 22.10 C 65.76 23.25 67.51 24.37 69.29 25.44 C 67.53 27.21 65.80 28.98 64.04 30.74 C 65.37 30.32 66.70 29.89 68.03 29.45 C 67.88 31.89 67.73 34.32 67.72 36.76 C 66.74 36.73 65.76 36.70 64.78 36.68 C 63.50 36.66 62.22 36.64 60.93 36.58 C 58.01 33.07 56.88 28.62 57.72 24.12 C 57.09 24.60 56.45 25.07 55.80 25.53 C 54.62 26.26 53.41 26.96 52.16 27.58 C 50.54 28.01 48.93 28.51 47.28 28.83 C 45.13 27.24 43.03 25.57 40.92 23.93 C 40.13 24.78 39.34 25.64 38.56 26.51 C 39.32 29.06 40.07 31.62 40.80 34.18 C 40.12 34.58 39.44 34.98 38.76 35.38 C 37.50 34.55 36.24 33.72 34.97 32.92 C 34.89 33.33 34.72 34.15 34.64 34.55 C 34.21 36.62 33.89 38.70 33.68 40.80 C 33.44 41.02 32.96 41.47 32.73 41.69 C 29.58 44.98 26.37 48.21 22.93 51.18 C 22.52 48.56 22.09 45.94 21.90 43.29 C 21.83 41.18 21.82 39.08 21.82 36.98 C 23.55 32.77 28.68 32.59 31.76 29.87 C 33.09 28.36 33.93 26.51 34.88 24.76 C 37.66 23.02 40.29 21.05 43.04 19.26 C 46.22 17.69 49.66 16.78 53.16 16.28 C 52.89 15.89 52.35 15.12 52.08 14.74 Z" />
<path fill="#ccdddf" opacity="1.00" d=" M 21.37 28.61 C 25.87 23.56 32.14 20.67 38.19 17.94 C 33.92 21.74 29.68 25.61 25.09 29.02 C 23.88 29.49 22.67 29.93 21.45 30.37 C 21.43 29.93 21.39 29.05 21.37 28.61 Z" />
<path fill="#353f8b" opacity="0.80" d=" M 71.58 18.27 C 73.75 18.97 75.94 19.63 78.03 20.55 C 78.96 21.81 79.32 23.37 79.85 24.81 C 81.17 24.75 82.48 24.69 83.80 24.63 C 83.40 31.74 83.15 38.86 83.25 45.99 C 82.68 45.97 81.53 45.92 80.96 45.89 C 81.18 43.24 81.27 40.59 81.39 37.94 C 80.20 38.86 79.01 39.79 77.83 40.72 C 76.97 36.08 77.52 31.16 80.61 27.43 C 74.69 27.31 70.54 22.59 65.89 19.59 C 67.80 20.04 69.75 20.22 71.68 20.55 C 71.65 19.79 71.61 19.03 71.58 18.27 Z" />
<path fill="#7b8db4" opacity="0.90" d=" M 65.89 19.59 C 70.54 22.59 74.69 27.31 80.61 27.43 C 77.52 31.16 76.97 36.08 77.83 40.72 C 79.42 48.15 79.19 55.74 78.49 63.26 C 78.54 56.29 78.48 49.31 77.65 42.39 C 76.77 47.61 76.24 52.90 76.27 58.20 C 76.24 54.72 75.99 51.23 75.96 47.75 C 76.02 45.43 76.09 43.12 76.17 40.81 C 76.20 37.34 76.61 33.74 75.57 30.37 C 73.98 28.18 71.51 26.90 69.29 25.44 C 67.51 24.37 65.76 23.25 64.03 22.10 C 64.64 21.26 65.27 20.43 65.89 19.59 Z" />
<path fill="#c4b495" opacity="1.00" d=" M 14.02 51.00 C 14.12 41.63 13.56 32.23 14.45 22.88 C 15.06 40.15 15.07 57.45 15.46 74.73 L 15.15 75.56 C 15.02 75.94 14.75 76.69 14.62 77.07 C 13.48 68.42 14.24 59.69 14.02 51.00 Z" />
<path fill="#bec4b3" opacity="0.89" d=" M 40.92 23.93 C 43.03 25.57 45.13 27.24 47.28 28.83 C 48.93 28.51 50.54 28.01 52.16 27.58 C 50.11 28.76 48.06 29.96 46.07 31.25 C 44.40 28.78 42.65 26.36 40.92 23.93 Z" />
<path fill="#cdccb9" opacity="0.91" d=" M 55.80 25.53 C 56.45 25.07 57.09 24.60 57.72 24.12 C 56.88 28.62 58.01 33.07 60.93 36.58 C 59.24 35.45 57.40 34.36 56.25 32.63 C 55.14 30.43 55.62 27.88 55.80 25.53 Z" />
<path fill="#6a8a91" opacity="0.93" d=" M 25.09 29.02 C 28.44 27.82 31.77 26.52 34.88 24.76 C 33.93 26.51 33.09 28.36 31.76 29.87 C 28.68 32.59 23.55 32.77 21.82 36.98 C 21.76 34.77 21.60 32.57 21.45 30.37 C 22.67 29.93 23.88 29.49 25.09 29.02 Z" />
<path fill="#0b0637" opacity="0.71" d=" M 38.56 26.51 C 39.34 25.64 40.13 24.78 40.92 23.93 C 42.65 26.36 44.40 28.78 46.07 31.25 C 48.06 29.96 50.11 28.76 52.16 27.58 C 53.41 26.96 54.62 26.26 55.80 25.53 C 55.62 27.88 55.14 30.43 56.25 32.63 C 57.40 34.36 59.24 35.45 60.93 36.58 C 62.22 36.64 63.50 36.66 64.78 36.68 C 65.39 39.02 66.00 41.38 66.24 43.79 C 66.23 44.35 66.21 45.46 66.19 46.02 C 65.44 45.21 64.68 44.42 63.89 43.64 C 61.75 41.50 59.42 39.55 57.14 37.55 C 55.17 35.50 53.51 33.18 51.92 30.83 C 50.71 31.93 49.50 33.04 48.29 34.14 C 51.32 38.95 53.90 44.04 55.74 49.43 C 51.29 46.09 47.54 41.94 44.28 37.44 C 40.80 38.72 37.22 39.71 33.68 40.80 C 33.89 38.70 34.21 36.62 34.64 34.55 C 34.83 35.52 35.20 37.45 35.39 38.41 C 38.08 37.12 40.71 35.68 43.27 34.14 C 41.70 31.60 40.14 29.05 38.56 26.51 Z" />
<path fill="#4b548c" opacity="0.87" d=" M 64.04 30.74 C 65.80 28.98 67.53 27.21 69.29 25.44 C 71.51 26.90 73.98 28.18 75.57 30.37 C 76.61 33.74 76.20 37.34 76.17 40.81 C 73.48 42.30 70.80 43.81 68.13 45.33 C 67.84 42.48 67.70 39.62 67.72 36.76 C 67.73 34.32 67.88 31.89 68.03 29.45 C 66.70 29.89 65.37 30.32 64.04 30.74 Z" />
<path fill="#597895" opacity="0.80" d=" M 17.17 48.30 C 19.41 41.22 16.49 33.59 19.50 26.64 C 20.88 32.09 21.40 37.70 21.90 43.29 C 22.09 45.94 22.52 48.56 22.93 51.18 C 26.37 48.21 29.58 44.98 32.73 41.69 C 36.20 41.36 39.66 40.76 43.16 40.73 C 44.63 40.52 45.60 41.81 46.62 42.65 C 44.42 43.74 42.20 44.83 39.87 45.63 C 37.61 46.46 35.09 46.80 33.13 48.26 C 31.23 49.89 31.56 52.61 32.32 54.71 C 32.57 55.55 32.83 56.38 33.10 57.21 C 29.11 59.44 25.02 61.64 21.75 64.90 C 21.61 58.20 20.62 51.55 19.51 44.95 C 18.64 50.56 17.90 56.22 18.24 61.91 C 18.30 65.77 19.29 70.19 16.42 73.34 C 16.29 66.02 15.64 58.68 16.40 51.37 C 16.65 50.34 16.90 49.32 17.17 48.30 Z" />
<path fill="#c3c4b5" opacity="0.90" d=" M 40.80 34.18 C 40.07 31.62 39.32 29.06 38.56 26.51 C 40.14 29.05 41.70 31.60 43.27 34.14 C 40.71 35.68 38.08 37.12 35.39 38.41 C 35.20 37.45 34.83 35.52 34.64 34.55 C 34.72 34.15 34.89 33.33 34.97 32.92 C 36.24 33.72 37.50 34.55 38.76 35.38 C 39.44 34.98 40.12 34.58 40.80 34.18 Z" />
<path fill="#cdccb9" opacity="0.91" d=" M 48.29 34.14 C 49.50 33.04 50.71 31.93 51.92 30.83 C 53.51 33.18 55.17 35.50 57.14 37.55 C 55.17 36.15 53.00 35.08 50.88 33.93 C 53.10 39.65 56.12 45.14 57.11 51.27 C 53.02 49.18 49.58 46.12 46.62 42.65 C 45.60 41.81 44.63 40.52 43.16 40.73 C 39.66 40.76 36.20 41.36 32.73 41.69 C 32.96 41.47 33.44 41.02 33.68 40.80 C 37.22 39.71 40.80 38.72 44.28 37.44 C 47.54 41.94 51.29 46.09 55.74 49.43 C 53.90 44.04 51.32 38.95 48.29 34.14 Z" />
<path fill="#647395" opacity="0.95" d=" M 57.11 51.27 C 56.12 45.14 53.10 39.65 50.88 33.93 C 53.00 35.08 55.17 36.15 57.14 37.55 C 59.42 39.55 61.75 41.50 63.89 43.64 C 63.31 45.74 62.93 47.93 61.89 49.87 C 59.39 51.95 56.14 52.81 53.36 54.44 C 50.52 55.94 48.31 58.33 46.10 60.60 C 42.96 57.66 40.41 54.18 38.39 50.40 C 42.35 51.50 46.29 52.65 50.25 53.78 C 47.99 51.62 45.71 49.48 43.43 47.35 C 43.55 48.02 43.78 49.35 43.90 50.01 C 43.04 49.70 42.17 49.39 41.31 49.08 C 40.85 47.92 40.36 46.77 39.87 45.63 C 42.20 44.83 44.42 43.74 46.62 42.65 C 49.58 46.12 53.02 49.18 57.11 51.27 Z" />
<path fill="#cdccb9" opacity="0.91" d=" M 64.78 36.68 C 65.76 36.70 66.74 36.73 67.72 36.76 C 67.70 39.62 67.84 42.48 68.13 45.33 C 68.77 51.33 69.17 57.37 70.19 63.33 C 69.70 63.83 68.72 64.84 68.23 65.35 C 67.33 66.20 66.38 66.99 65.42 67.78 C 64.88 68.19 63.82 69.03 63.28 69.45 C 61.50 68.96 59.71 68.50 57.98 67.89 C 57.92 67.71 57.81 67.34 57.75 67.16 C 60.86 66.57 64.89 66.83 66.80 63.79 C 68.69 61.37 68.06 58.19 67.68 55.40 C 67.03 51.55 66.71 47.66 66.24 43.79 C 66.00 41.38 65.39 39.02 64.78 36.68 Z" />
<path fill="#4e58a0" opacity="0.80" d=" M 77.83 40.72 C 79.01 39.79 80.20 38.86 81.39 37.94 C 81.27 40.59 81.18 43.24 80.96 45.89 C 80.62 51.01 79.13 56.55 81.99 61.25 C 82.90 63.29 83.89 65.35 84.14 67.60 C 83.68 70.00 83.03 72.36 82.42 74.73 C 79.19 74.89 75.85 75.27 73.13 77.18 C 69.60 79.57 65.68 81.26 61.58 82.38 C 63.05 81.15 64.44 79.83 65.91 78.59 C 69.72 76.69 73.83 75.04 76.90 72.01 C 78.55 69.46 78.19 66.17 78.49 63.26 C 79.19 55.74 79.42 48.15 77.83 40.72 Z" />
<path fill="#4353ac" opacity="0.92" d=" M 68.13 45.33 C 70.80 43.81 73.48 42.30 76.17 40.81 C 76.09 43.12 76.02 45.43 75.96 47.75 C 75.50 53.33 74.03 59.07 70.19 63.33 C 69.17 57.37 68.77 51.33 68.13 45.33 Z" />
<path fill="#b9c5d3" opacity="0.96" d=" M 76.27 58.20 C 76.24 52.90 76.77 47.61 77.65 42.39 C 78.48 49.31 78.54 56.29 78.49 63.26 C 78.19 66.17 78.55 69.46 76.90 72.01 C 73.83 75.04 69.72 76.69 65.91 78.59 C 65.18 78.74 63.72 79.03 62.99 79.18 C 65.81 77.32 68.63 75.47 71.47 73.65 C 72.79 72.70 74.21 71.78 75.19 70.44 C 75.99 67.67 75.95 64.75 76.16 61.90 C 76.23 60.66 76.27 59.43 76.27 58.20 Z" />
<path fill="#0d0643" opacity="0.87" d=" M 63.89 43.64 C 64.68 44.42 65.44 45.21 66.19 46.02 C 66.21 45.46 66.23 44.35 66.24 43.79 C 66.71 47.66 67.03 51.55 67.68 55.40 C 68.06 58.19 68.69 61.37 66.80 63.79 C 64.89 66.83 60.86 66.57 57.75 67.16 C 57.67 66.83 57.49 66.16 57.41 65.83 C 59.45 64.78 61.66 63.95 63.38 62.39 C 64.73 60.54 65.25 58.24 66.08 56.14 C 63.93 55.64 61.66 54.30 59.46 55.29 C 55.38 56.89 51.48 59.31 48.63 62.68 C 45.85 66.10 47.93 70.60 48.60 74.38 C 47.80 73.46 47.00 72.54 46.21 71.60 C 42.15 65.52 37.70 59.69 32.32 54.71 C 31.56 52.61 31.23 49.89 33.13 48.26 C 35.09 46.80 37.61 46.46 39.87 45.63 C 40.36 46.77 40.85 47.92 41.31 49.08 C 39.37 48.92 37.58 49.70 35.84 50.42 C 38.51 54.45 41.41 58.42 45.12 61.56 C 45.37 61.32 45.86 60.84 46.10 60.60 C 48.31 58.33 50.52 55.94 53.36 54.44 C 56.14 52.81 59.39 51.95 61.89 49.87 C 62.93 47.93 63.31 45.74 63.89 43.64 Z" />
<path fill="#294165" opacity="0.66" d=" M 19.51 44.95 C 20.62 51.55 21.61 58.20 21.75 64.90 C 21.33 66.94 20.79 68.96 20.19 70.95 C 18.71 71.89 17.28 72.90 15.95 74.03 L 16.42 73.34 C 19.29 70.19 18.30 65.77 18.24 61.91 C 17.90 56.22 18.64 50.56 19.51 44.95 Z" />
<path fill="#0825d0" opacity="0.82" d=" M 80.96 45.89 C 81.53 45.92 82.68 45.97 83.25 45.99 C 83.31 51.11 82.81 56.21 81.99 61.25 C 79.13 56.55 80.62 51.01 80.96 45.89 Z" />
<path fill="#9fb3c9" opacity="0.98" d=" M 35.84 50.42 C 37.58 49.70 39.37 48.92 41.31 49.08 C 42.17 49.39 43.04 49.70 43.90 50.01 C 43.78 49.35 43.55 48.02 43.43 47.35 C 45.71 49.48 47.99 51.62 50.25 53.78 C 46.29 52.65 42.35 51.50 38.39 50.40 C 40.41 54.18 42.96 57.66 46.10 60.60 C 45.86 60.84 45.37 61.32 45.12 61.56 C 41.41 58.42 38.51 54.45 35.84 50.42 Z" />
<path fill="#0b2990" opacity="0.87" d=" M 70.19 63.33 C 74.03 59.07 75.50 53.33 75.96 47.75 C 75.99 51.23 76.24 54.72 76.27 58.20 C 76.27 59.43 76.23 60.66 76.16 61.90 C 75.41 63.49 74.60 65.08 73.51 66.47 C 71.70 66.41 69.96 65.84 68.23 65.35 C 68.72 64.84 69.70 63.83 70.19 63.33 Z" />
<path fill="#68a2a6" opacity="0.96" d=" M 33.10 57.21 C 32.83 56.38 32.57 55.55 32.32 54.71 C 37.70 59.69 42.15 65.52 46.21 71.60 C 47.21 73.23 48.14 74.89 49.08 76.55 C 44.53 78.93 39.23 78.30 34.75 76.11 C 32.90 74.91 31.03 73.73 29.17 72.54 C 30.06 72.43 30.95 72.32 31.84 72.20 C 32.89 68.35 36.58 66.97 40.11 66.22 C 37.96 63.08 35.66 60.04 33.10 57.21 Z" />
<path fill="#acc4d4" opacity="0.98" d=" M 59.46 55.29 C 61.66 54.30 63.93 55.64 66.08 56.14 C 59.76 56.59 53.33 59.33 49.73 64.73 C 47.54 68.30 49.72 72.49 52.45 75.03 C 51.34 75.55 50.21 76.06 49.08 76.55 C 48.14 74.89 47.21 73.23 46.21 71.60 C 47.00 72.54 47.80 73.46 48.60 74.38 C 47.93 70.60 45.85 66.10 48.63 62.68 C 51.48 59.31 55.38 56.89 59.46 55.29 Z" />
<path fill="#6288a3" opacity="0.95" d=" M 49.73 64.73 C 53.33 59.33 59.76 56.59 66.08 56.14 C 65.25 58.24 64.73 60.54 63.38 62.39 C 61.66 63.95 59.45 64.78 57.41 65.83 C 57.49 66.16 57.67 66.83 57.75 67.16 C 57.81 67.34 57.92 67.71 57.98 67.89 C 59.71 68.50 61.50 68.96 63.28 69.45 C 60.27 71.73 57.09 73.88 54.65 76.81 C 54.10 76.37 53.00 75.48 52.45 75.03 C 49.72 72.49 47.54 68.30 49.73 64.73 Z" />
<path fill="#6199be" opacity="0.87" d=" M 21.75 64.90 C 25.02 61.64 29.11 59.44 33.10 57.21 C 35.66 60.04 37.96 63.08 40.11 66.22 C 36.58 66.97 32.89 68.35 31.84 72.20 C 30.95 72.32 30.06 72.43 29.17 72.54 C 31.03 73.73 32.90 74.91 34.75 76.11 C 39.00 79.03 43.01 82.28 47.09 85.43 C 47.78 85.98 48.49 86.52 49.19 87.06 C 49.15 87.89 49.08 89.55 49.05 90.38 C 44.43 86.02 38.75 83.07 33.60 79.42 C 34.18 79.58 35.34 79.89 35.92 80.05 C 31.33 76.09 26.54 71.53 20.19 70.95 C 20.79 68.96 21.33 66.94 21.75 64.90 Z" />
<path fill="#334c84" opacity="0.87" d=" M 73.51 66.47 C 74.60 65.08 75.41 63.49 76.16 61.90 C 75.95 64.75 75.99 67.67 75.19 70.44 C 74.21 71.78 72.79 72.70 71.47 73.65 C 71.89 72.37 72.31 71.09 72.75 69.81 C 69.30 71.49 65.89 73.24 62.56 75.14 C 63.54 72.70 64.49 70.24 65.42 67.78 C 66.38 66.99 67.33 66.20 68.23 65.35 C 69.96 65.84 71.70 66.41 73.51 66.47 Z" />
<path fill="#75826a" opacity="0.87" d=" M 63.28 69.45 C 63.82 69.03 64.88 68.19 65.42 67.78 C 64.49 70.24 63.54 72.70 62.56 75.14 C 65.89 73.24 69.30 71.49 72.75 69.81 C 72.31 71.09 71.89 72.37 71.47 73.65 C 68.63 75.47 65.81 77.32 62.99 79.18 C 58.24 81.55 53.74 84.34 49.19 87.06 C 48.49 86.52 47.78 85.98 47.09 85.43 C 49.68 84.15 52.29 82.89 54.93 81.70 C 54.23 81.37 52.83 80.71 52.13 80.38 C 52.95 79.18 53.77 77.97 54.65 76.81 C 57.09 73.88 60.27 71.73 63.28 69.45 Z" />
<path fill="#7c83a8" opacity="0.93" d=" M 82.42 74.73 C 83.03 72.36 83.68 70.00 84.14 67.60 C 84.16 71.09 85.45 76.07 81.47 77.91 C 74.07 79.61 68.39 84.91 61.82 88.37 C 62.37 86.88 62.92 85.39 63.48 83.90 C 58.69 86.72 53.87 89.49 49.00 92.17 L 49.03 91.26 L 49.05 90.38 C 52.82 87.13 57.14 84.60 61.58 82.38 C 65.68 81.26 69.60 79.57 73.13 77.18 C 75.85 75.27 79.19 74.89 82.42 74.73 Z" />
<path fill="#a1c7cb" opacity="1.00" d=" M 20.19 70.95 C 26.54 71.53 31.33 76.09 35.92 80.05 C 35.34 79.89 34.18 79.58 33.60 79.42 C 29.51 77.10 25.41 74.81 21.35 72.47 C 21.06 72.09 20.48 71.33 20.19 70.95 Z" />
<path fill="#8ea29a" opacity="0.82" d=" M 15.95 74.03 C 17.28 72.90 18.71 71.89 20.19 70.95 C 20.48 71.33 21.06 72.09 21.35 72.47 C 23.72 75.50 25.85 78.74 27.35 82.29 C 23.28 80.05 19.24 77.77 15.15 75.56 L 15.46 74.73 L 15.95 74.03 Z" />
<path fill="#627aa8" opacity="0.80" d=" M 21.35 72.47 C 25.41 74.81 29.51 77.10 33.60 79.42 C 34.00 81.11 34.09 83.15 35.68 84.22 C 39.62 87.42 44.42 89.26 49.03 91.26 L 49.00 92.17 C 48.94 93.51 48.92 94.85 48.92 96.20 C 45.81 94.24 42.70 92.29 39.51 90.48 C 35.61 87.53 31.59 84.73 27.35 82.29 C 25.85 78.74 23.72 75.50 21.35 72.47 Z" />
<path fill="#dfe2d6" opacity="1.00" d=" M 15.15 75.56 C 19.24 77.77 23.28 80.05 27.35 82.29 C 31.59 84.73 35.61 87.53 39.51 90.48 C 39.03 90.61 38.07 90.87 37.60 91.00 C 29.81 86.58 22.25 81.76 14.62 77.07 C 14.75 76.69 15.02 75.94 15.15 75.56 Z" />
<path fill="#8f9f8b" opacity="0.93" d=" M 52.45 75.03 C 53.00 75.48 54.10 76.37 54.65 76.81 C 53.77 77.97 52.95 79.18 52.13 80.38 C 52.83 80.71 54.23 81.37 54.93 81.70 C 52.29 82.89 49.68 84.15 47.09 85.43 C 43.01 82.28 39.00 79.03 34.75 76.11 C 39.23 78.30 44.53 78.93 49.08 76.55 C 50.21 76.06 51.34 75.55 52.45 75.03 Z" />
<path fill="#c5cbd5" opacity="1.00" d=" M 61.82 88.37 C 68.39 84.91 74.07 79.61 81.47 77.91 C 78.87 79.79 76.43 81.86 73.96 83.89 C 70.48 85.73 66.97 87.54 63.67 89.69 C 58.86 92.70 54.33 96.42 48.76 97.97 C 52.51 94.02 57.15 91.10 61.82 88.37 Z" />
<path fill="#cddad9" opacity="1.00" d=" M 49.19 87.06 C 53.74 84.34 58.24 81.55 62.99 79.18 C 63.72 79.03 65.18 78.74 65.91 78.59 C 64.44 79.83 63.05 81.15 61.58 82.38 C 57.14 84.60 52.82 87.13 49.05 90.38 C 49.08 89.55 49.15 87.89 49.19 87.06 Z" />
<path fill="#465780" opacity="0.89" d=" M 35.68 84.22 C 34.09 83.15 34.00 81.11 33.60 79.42 C 38.75 83.07 44.43 86.02 49.05 90.38 L 49.03 91.26 C 44.42 89.26 39.62 87.42 35.68 84.22 Z" />
<path fill="#b9bca4" opacity="0.94" d=" M 49.00 92.17 C 53.87 89.49 58.69 86.72 63.48 83.90 C 62.92 85.39 62.37 86.88 61.82 88.37 C 57.15 91.10 52.51 94.02 48.76 97.97 C 44.79 96.07 41.21 93.49 37.60 91.00 C 38.07 90.87 39.03 90.61 39.51 90.48 C 42.70 92.29 45.81 94.24 48.92 96.20 C 48.92 94.85 48.94 93.51 49.00 92.17 Z" />
</svg>
