<?xml version="1.0" encoding="UTF-8" ?>
<!DOCTYPE svg PUBLIC "-//W3C//DTD SVG 1.1//EN" "http://www.w3.org/Graphics/SVG/1.1/DTD/svg11.dtd">
<svg width="100pt" height="100pt" viewBox="0 0 100 100" version="1.1" xmlns="http://www.w3.org/2000/svg">
<path fill="#080140" opacity="0.87" d=" M 48.40 0.00 L 50.49 0.00 C 56.65 4.49 63.40 8.10 69.31 12.95 L 68.44 12.94 C 61.66 9.65 56.19 3.99 48.99 1.54 C 48.56 1.79 47.71 2.27 47.28 2.52 C 45.57 3.55 43.88 4.62 42.23 5.75 C 40.33 6.95 38.42 8.14 36.59 9.44 C 29.03 13.60 21.94 18.55 14.47 22.86 C 13.29 35.87 14.30 48.96 14.02 62.00 C 14.10 66.99 13.26 72.19 15.03 76.99 C 16.97 78.82 19.35 80.07 21.62 81.45 C 27.02 84.57 32.19 88.08 37.66 91.09 C 41.25 93.55 44.80 96.11 48.75 97.98 C 53.18 96.89 56.88 94.10 60.65 91.67 C 64.91 88.79 69.35 86.19 73.96 83.90 C 66.52 90.16 57.65 94.35 49.76 100.00 L 48.51 100.00 C 37.19 91.90 25.08 85.00 13.26 77.67 C 13.01 59.23 13.02 40.79 13.27 22.35 C 25.09 15.08 36.87 7.73 48.40 0.00 Z" />
<path fill="#bec4b3" opacity="0.89" d=" M 48.99 1.54 C 56.19 3.99 61.66 9.65 68.44 12.94 C 67.20 12.96 65.96 13.00 64.72 13.03 C 63.44 12.32 62.17 11.58 60.83 10.99 C 58.01 9.71 54.70 10.57 51.89 9.28 C 49.70 7.83 49.52 4.95 49.04 2.62 L 48.99 1.54 Z" />
<path fill="#3c4875" opacity="0.87" d=" M 47.28 2.52 C 47.71 2.27 48.56 1.79 48.99 1.54 L 49.04 2.62 C 49.09 5.03 49.01 7.44 48.90 9.84 C 47.03 10.90 45.17 11.96 43.31 13.04 C 44.84 9.61 46.25 6.13 47.28 2.52 Z" />
<path fill="#737a8d" opacity="0.87" d=" M 42.23 5.75 C 43.88 4.62 45.57 3.55 47.28 2.52 C 46.25 6.13 44.84 9.61 43.31 13.04 C 45.17 11.96 47.03 10.90 48.90 9.84 C 50.07 12.29 51.75 14.50 54.13 15.87 C 50.27 16.36 46.54 17.52 43.08 19.29 C 41.67 19.57 40.25 19.76 38.83 19.97 C 40.51 17.99 42.26 16.07 44.05 14.19 C 41.38 15.12 38.67 15.89 35.96 16.71 C 38.09 13.08 39.78 9.19 42.23 5.75 Z" />
<path fill="#919ea0" opacity="0.89" d=" M 49.04 2.62 C 49.52 4.95 49.70 7.83 51.89 9.28 C 54.70 10.57 58.01 9.71 60.83 10.99 C 62.17 11.58 63.44 12.32 64.72 13.03 C 64.13 14.79 63.54 16.54 62.93 18.30 C 58.13 15.68 53.92 12.08 48.90 9.84 C 49.01 7.44 49.09 5.03 49.04 2.62 Z" />
<path fill="#cdccb9" opacity="0.91" d=" M 36.59 9.44 C 38.42 8.14 40.33 6.95 42.23 5.75 C 39.78 9.19 38.09 13.08 35.96 16.71 C 30.93 18.58 26.40 21.50 21.71 24.05 C 21.40 23.21 21.08 22.37 20.77 21.53 C 26.23 17.82 33.56 15.81 36.59 9.44 Z" />
<path fill="#dcdcc8" opacity="0.94" d=" M 14.47 22.86 C 21.94 18.55 29.03 13.60 36.59 9.44 C 33.56 15.81 26.23 17.82 20.77 21.53 C 19.20 22.45 17.62 23.36 16.05 24.28 C 15.54 33.21 15.98 42.16 15.95 51.10 C 15.73 58.52 16.17 65.93 16.42 73.35 L 15.89 74.05 L 15.11 74.59 C 15.52 57.35 14.84 40.09 14.47 22.86 Z" />
<path fill="#cdccb9" opacity="0.91" d=" M 48.90 9.84 C 53.92 12.08 58.13 15.68 62.93 18.30 C 63.83 18.79 64.73 19.25 65.64 19.72 C 70.44 22.46 74.30 28.16 80.41 27.50 C 77.00 31.30 77.31 36.58 77.05 41.33 C 77.47 41.44 78.30 41.66 78.72 41.77 C 78.53 48.56 78.79 55.37 78.59 62.16 L 78.55 63.07 C 78.30 56.25 78.44 49.40 77.57 42.61 C 76.69 47.76 76.57 52.98 76.31 58.18 C 76.56 53.58 76.43 48.97 76.04 44.39 C 76.25 39.67 77.06 34.84 75.95 30.18 C 74.39 27.84 71.68 26.67 69.39 25.19 C 64.27 22.13 59.21 18.98 54.13 15.87 C 51.75 14.50 50.07 12.29 48.90 9.84 Z" />
<path fill="#6f78b1" opacity="0.82" d=" M 64.72 13.03 C 65.96 13.00 67.20 12.96 68.44 12.94 L 69.31 12.95 C 72.33 15.78 75.76 18.11 78.89 20.79 C 76.44 19.92 73.99 19.08 71.52 18.24 C 71.62 18.99 71.71 19.74 71.80 20.49 C 69.74 20.25 67.68 20.04 65.64 19.72 C 64.73 19.25 63.83 18.79 62.93 18.30 C 63.54 16.54 64.13 14.79 64.72 13.03 Z" />
<path fill="#393080" opacity="1.00" d=" M 69.31 12.95 C 74.59 16.29 80.79 18.55 85.09 23.22 C 85.63 25.77 85.50 28.40 85.51 30.99 C 85.35 44.68 85.44 58.37 85.50 72.06 C 85.28 74.06 85.81 76.58 84.05 78.02 C 81.15 80.69 77.42 82.13 73.96 83.90 C 76.42 81.90 78.79 79.78 81.38 77.94 C 82.31 77.50 83.25 77.07 84.19 76.65 C 84.30 72.97 84.19 69.28 83.89 65.61 C 83.76 63.37 83.53 61.13 83.35 58.89 C 83.03 54.11 82.81 49.32 82.58 44.54 C 83.28 37.89 83.49 31.20 84.07 24.54 C 82.48 24.73 80.89 24.90 79.30 25.08 C 79.19 23.65 79.10 22.21 78.89 20.79 C 75.76 18.11 72.33 15.78 69.31 12.95 Z" />
<path fill="#acbaae" opacity="0.87" d=" M 35.96 16.71 C 38.67 15.89 41.38 15.12 44.05 14.19 C 42.26 16.07 40.51 17.99 38.83 19.97 C 40.25 19.76 41.67 19.57 43.08 19.29 C 40.28 21.03 37.61 22.96 34.84 24.74 C 31.83 26.62 28.58 28.11 25.14 28.99 C 29.63 25.48 34.01 21.82 38.19 17.95 C 31.71 20.88 24.70 23.92 20.53 29.99 C 20.07 28.95 19.62 27.90 19.17 26.86 C 16.82 34.07 17.92 41.71 18.46 49.10 C 17.62 49.77 16.78 50.43 15.95 51.10 C 15.98 42.16 15.54 33.21 16.05 24.28 C 17.62 23.36 19.20 22.45 20.77 21.53 C 21.08 22.37 21.40 23.21 21.71 24.05 C 26.40 21.50 30.93 18.58 35.96 16.71 Z" />
<path fill="#5d6670" opacity="0.85" d=" M 43.08 19.29 C 46.54 17.52 50.27 16.36 54.13 15.87 C 59.21 18.98 64.27 22.13 69.39 25.19 C 67.58 27.06 65.78 28.94 63.98 30.82 C 65.35 30.36 66.72 29.89 68.09 29.42 C 67.60 31.13 67.10 32.84 66.60 34.55 C 67.88 35.38 69.14 36.21 70.41 37.05 C 69.47 37.33 68.52 37.60 67.57 37.88 C 62.69 36.87 57.69 36.47 52.71 36.59 C 55.17 36.29 57.62 35.87 60.07 35.46 C 58.37 35.36 56.67 35.24 54.97 35.14 C 54.70 31.19 53.49 27.21 50.55 24.41 C 49.94 24.76 49.37 25.19 48.86 25.67 C 47.13 27.70 45.51 29.83 43.87 31.94 C 43.41 31.79 42.51 31.51 42.05 31.37 C 42.69 32.84 43.34 34.31 43.98 35.78 C 40.97 36.13 37.97 36.54 34.97 37.03 C 34.40 37.11 33.26 37.29 32.69 37.37 C 36.68 37.88 40.70 38.10 44.72 38.37 L 44.75 38.95 C 40.48 38.72 36.20 38.72 31.92 38.81 C 32.51 39.19 33.68 39.95 34.26 40.34 C 30.70 44.25 26.68 47.78 21.99 50.29 C 22.10 44.77 22.17 39.22 23.19 33.78 C 25.97 32.86 29.02 32.32 31.39 30.49 C 32.95 28.85 33.81 26.71 34.84 24.74 C 37.61 22.96 40.28 21.03 43.08 19.29 Z" />
<path fill="#ccdddf" opacity="1.00" d=" M 20.53 29.99 C 24.70 23.92 31.71 20.88 38.19 17.95 C 34.01 21.82 29.63 25.48 25.14 28.99 C 23.62 29.41 22.07 29.69 20.53 29.99 Z" />
<path fill="#374394" opacity="0.80" d=" M 71.52 18.24 C 73.99 19.08 76.44 19.92 78.89 20.79 C 79.10 22.21 79.19 23.65 79.30 25.08 C 80.89 24.90 82.48 24.73 84.07 24.54 C 83.49 31.20 83.28 37.89 82.58 44.54 C 80.11 49.25 79.98 54.60 80.15 59.80 C 81.22 59.49 82.28 59.19 83.35 58.89 C 83.53 61.13 83.76 63.37 83.89 65.61 C 83.52 67.53 83.06 69.42 82.71 71.34 C 82.10 67.99 80.53 64.93 78.59 62.16 C 78.79 55.37 78.53 48.56 78.72 41.77 C 78.30 41.66 77.47 41.44 77.05 41.33 C 77.31 36.58 77.00 31.30 80.41 27.50 C 74.30 28.16 70.44 22.46 65.64 19.72 C 67.68 20.04 69.74 20.25 71.80 20.49 C 71.71 19.74 71.62 18.99 71.52 18.24 Z" />
<path fill="#c4b495" opacity="1.00" d=" M 14.02 62.00 C 14.30 48.96 13.29 35.87 14.47 22.86 C 14.84 40.09 15.52 57.35 15.11 74.59 L 15.09 75.34 C 15.07 75.75 15.05 76.58 15.03 76.99 C 13.26 72.19 14.10 66.99 14.02 62.00 Z" />
<path fill="#cdccb9" opacity="0.91" d=" M 48.86 25.67 C 49.37 25.19 49.94 24.76 50.55 24.41 C 53.49 27.21 54.70 31.19 54.97 35.14 C 56.67 35.24 58.37 35.36 60.07 35.46 C 57.62 35.87 55.17 36.29 52.71 36.59 C 52.03 36.65 50.66 36.76 49.98 36.82 C 51.18 34.98 52.56 33.22 53.36 31.15 C 52.27 29.03 50.48 27.38 48.86 25.67 Z" />
<path fill="#668188" opacity="0.94" d=" M 25.14 28.99 C 28.58 28.11 31.83 26.62 34.84 24.74 C 33.81 26.71 32.95 28.85 31.39 30.49 C 29.02 32.32 25.97 32.86 23.19 33.78 C 22.17 39.22 22.10 44.77 21.99 50.29 C 21.86 53.29 21.59 56.28 21.53 59.28 C 21.08 54.49 20.43 49.73 19.59 45.00 C 19.19 46.36 18.79 47.72 18.46 49.10 C 17.92 41.71 16.82 34.07 19.17 26.86 C 19.62 27.90 20.07 28.95 20.53 29.99 C 22.07 29.69 23.62 29.41 25.14 28.99 Z" />
<path fill="#06012a" opacity="0.60" d=" M 48.86 25.67 C 50.48 27.38 52.27 29.03 53.36 31.15 C 52.56 33.22 51.18 34.98 49.98 36.82 C 50.66 36.76 52.03 36.65 52.71 36.59 C 57.69 36.47 62.69 36.87 67.57 37.88 C 61.93 39.84 55.92 38.83 50.10 38.69 L 49.97 39.58 C 49.83 40.26 49.55 41.62 49.41 42.30 C 48.89 41.93 47.86 41.19 47.34 40.83 C 46.62 42.01 45.89 43.19 45.18 44.38 C 44.30 44.23 43.42 44.08 42.53 43.93 C 43.08 42.86 43.60 41.78 44.09 40.70 C 44.26 40.26 44.59 39.39 44.75 38.95 L 44.72 38.37 C 40.70 38.10 36.68 37.88 32.69 37.37 C 33.26 37.29 34.40 37.11 34.97 37.03 C 38.99 36.75 43.01 36.88 47.02 37.00 C 45.97 35.31 44.92 33.62 43.87 31.94 C 45.51 29.83 47.13 27.70 48.86 25.67 M 45.38 31.84 C 46.33 33.26 47.27 34.68 48.23 36.09 C 49.45 34.53 51.14 33.18 51.76 31.25 C 51.25 29.96 50.56 28.76 49.93 27.54 C 48.38 28.94 46.87 30.38 45.38 31.84 Z" />
<path fill="#4b548b" opacity="0.87" d=" M 63.98 30.82 C 65.78 28.94 67.58 27.06 69.39 25.19 C 71.68 26.67 74.39 27.84 75.95 30.18 C 77.06 34.84 76.25 39.67 76.04 44.39 L 75.79 43.54 C 75.57 42.89 75.14 41.59 74.93 40.94 C 73.08 42.24 71.23 43.54 69.47 44.95 C 69.13 44.73 68.43 44.27 68.09 44.04 C 65.28 44.31 62.70 43.23 60.71 41.27 C 64.45 41.29 68.25 40.35 70.41 37.05 C 69.14 36.21 67.88 35.38 66.60 34.55 C 67.10 32.84 67.60 31.13 68.09 29.42 C 66.72 29.89 65.35 30.36 63.98 30.82 Z" />
<path fill="#899292" opacity="0.88" d=" M 45.38 31.84 C 46.87 30.38 48.38 28.94 49.93 27.54 C 50.56 28.76 51.25 29.96 51.76 31.25 C 51.14 33.18 49.45 34.53 48.23 36.09 C 47.27 34.68 46.33 33.26 45.38 31.84 Z" />
<path fill="#bec4b3" opacity="0.89" d=" M 42.05 31.37 C 42.51 31.51 43.41 31.79 43.87 31.94 C 44.92 33.62 45.97 35.31 47.02 37.00 C 43.01 36.88 38.99 36.75 34.97 37.03 C 37.97 36.54 40.97 36.13 43.98 35.78 C 43.34 34.31 42.69 32.84 42.05 31.37 Z" />
<path fill="#a3b3bf" opacity="0.97" d=" M 67.57 37.88 C 68.52 37.60 69.47 37.33 70.41 37.05 C 68.25 40.35 64.45 41.29 60.71 41.27 C 58.17 41.25 55.63 41.16 53.09 41.10 C 54.76 45.74 56.56 50.36 57.63 55.19 C 57.71 55.84 57.88 57.16 57.97 57.82 C 58.47 62.63 57.78 67.44 57.15 72.21 C 55.32 73.65 53.30 75.02 50.89 75.12 C 52.82 72.57 55.21 70.11 55.81 66.85 C 57.49 57.38 54.41 47.86 49.97 39.58 L 50.10 38.69 C 55.92 38.83 61.93 39.84 67.57 37.88 Z" />
<path fill="#c5ccc6" opacity="0.90" d=" M 31.92 38.81 C 36.20 38.72 40.48 38.72 44.75 38.95 C 44.59 39.39 44.26 40.26 44.09 40.70 L 43.25 40.69 C 40.25 40.60 37.26 40.42 34.26 40.34 C 33.68 39.95 32.51 39.19 31.92 38.81 Z" />
<path fill="#607993" opacity="0.80" d=" M 34.26 40.34 C 37.26 40.42 40.25 40.60 43.25 40.69 C 39.40 45.74 37.56 52.19 32.78 56.55 C 28.69 58.74 24.67 61.24 21.69 64.87 C 21.70 63.00 21.60 61.14 21.53 59.28 C 21.59 56.28 21.86 53.29 21.99 50.29 C 26.68 47.78 30.70 44.25 34.26 40.34 Z" />
<path fill="#080140" opacity="0.87" d=" M 49.97 39.58 C 54.41 47.86 57.49 57.38 55.81 66.85 C 55.21 70.11 52.82 72.57 50.89 75.12 C 51.89 69.78 52.68 64.39 52.72 58.96 C 52.44 59.10 51.90 59.39 51.63 59.54 C 47.81 61.47 44.28 64.02 41.50 67.29 C 42.20 62.89 40.97 58.60 39.70 54.44 C 38.33 50.65 41.03 47.20 42.53 43.93 C 43.42 44.08 44.30 44.23 45.18 44.38 C 43.80 46.85 42.10 49.28 41.62 52.13 C 41.85 54.58 43.03 56.82 43.86 59.11 C 44.40 58.89 45.48 58.43 46.02 58.20 C 48.02 57.36 50.04 56.54 52.06 55.73 C 51.49 51.56 50.45 47.47 49.20 43.46 C 49.25 43.17 49.36 42.59 49.41 42.30 C 49.55 41.62 49.83 40.26 49.97 39.58 Z" />
<path fill="#6594aa" opacity="0.96" d=" M 32.78 56.55 C 37.56 52.19 39.40 45.74 43.25 40.69 L 44.09 40.70 C 43.60 41.78 43.08 42.86 42.53 43.93 C 41.03 47.20 38.33 50.65 39.70 54.44 C 40.97 58.60 42.20 62.89 41.50 67.29 C 41.44 67.73 41.31 68.60 41.25 69.03 C 45.01 66.27 49.81 64.15 51.63 59.54 C 51.90 59.39 52.44 59.10 52.72 58.96 C 52.68 64.39 51.89 69.78 50.89 75.12 C 47.16 75.55 43.54 76.56 39.98 77.70 C 38.27 77.15 36.52 76.75 34.77 76.36 C 32.24 74.69 29.70 73.06 27.18 71.39 C 28.88 71.37 30.59 71.34 32.30 71.32 C 31.35 70.75 30.41 70.18 29.46 69.62 C 32.08 68.10 35.85 67.15 36.74 63.86 C 37.56 60.73 34.53 58.62 32.78 56.55 Z" />
<path fill="#aebecc" opacity="1.00" d=" M 47.34 40.83 C 47.86 41.19 48.89 41.93 49.41 42.30 C 49.36 42.59 49.25 43.17 49.20 43.46 C 46.58 46.23 44.50 49.44 42.97 52.92 C 44.00 54.68 45.01 56.44 46.02 58.20 C 45.48 58.43 44.40 58.89 43.86 59.11 C 43.03 56.82 41.85 54.58 41.62 52.13 C 42.10 49.28 43.80 46.85 45.18 44.38 C 45.89 43.19 46.62 42.01 47.34 40.83 Z" />
<path fill="#5a6993" opacity="0.96" d=" M 53.09 41.10 C 55.63 41.16 58.17 41.25 60.71 41.27 C 62.70 43.23 65.28 44.31 68.09 44.04 C 68.43 44.27 69.13 44.73 69.47 44.95 C 65.49 48.33 61.66 51.87 57.63 55.19 C 56.56 50.36 54.76 45.74 53.09 41.10 Z" />
<path fill="#4658ad" opacity="0.94" d=" M 69.47 44.95 C 71.23 43.54 73.08 42.24 74.93 40.94 C 75.14 41.59 75.57 42.89 75.79 43.54 C 75.17 50.22 75.57 57.91 70.41 63.01 C 68.90 62.57 67.38 62.15 65.86 61.73 C 66.71 58.90 67.08 55.96 66.95 53.02 C 63.31 53.14 60.11 54.89 57.97 57.82 C 57.88 57.16 57.71 55.84 57.63 55.19 C 61.66 51.87 65.49 48.33 69.47 44.95 Z" />
<path fill="#dde5d7" opacity="0.95" d=" M 76.31 58.18 C 76.57 52.98 76.69 47.76 77.57 42.61 C 78.44 49.40 78.30 56.25 78.55 63.07 C 78.46 65.07 78.29 67.06 78.12 69.05 C 77.33 69.61 76.54 70.16 75.74 70.72 C 75.81 67.72 75.86 64.73 76.04 61.74 C 76.15 60.55 76.24 59.37 76.31 58.18 Z" />
<path fill="#6679a5" opacity="0.96" d=" M 42.97 52.92 C 44.50 49.44 46.58 46.23 49.20 43.46 C 50.45 47.47 51.49 51.56 52.06 55.73 C 50.04 56.54 48.02 57.36 46.02 58.20 C 45.01 56.44 44.00 54.68 42.97 52.92 Z" />
<path fill="#0b2990" opacity="0.87" d=" M 75.79 43.54 L 76.04 44.39 C 76.43 48.97 76.56 53.58 76.31 58.18 C 76.24 59.37 76.15 60.55 76.04 61.74 C 75.48 63.46 74.84 65.15 74.21 66.84 C 72.24 66.35 70.28 65.82 68.34 65.20 C 68.86 64.66 69.89 63.56 70.41 63.01 C 75.57 57.91 75.17 50.22 75.79 43.54 Z" />
<path fill="#294365" opacity="0.66" d=" M 19.59 45.00 C 20.43 49.73 21.08 54.49 21.53 59.28 C 21.60 61.14 21.70 63.00 21.69 64.87 C 21.24 66.93 20.76 68.97 20.27 71.02 C 18.83 72.06 17.36 73.06 15.89 74.05 L 16.42 73.35 C 17.34 72.05 18.52 70.72 18.37 69.01 C 18.25 62.38 17.93 55.73 18.46 49.10 C 18.79 47.72 19.19 46.36 19.59 45.00 Z" />
<path fill="#0825d0" opacity="0.82" d=" M 80.15 59.80 C 79.98 54.60 80.11 49.25 82.58 44.54 C 82.81 49.32 83.03 54.11 83.35 58.89 C 82.28 59.19 81.22 59.49 80.15 59.80 Z" />
<path fill="#5888a7" opacity="0.80" d=" M 15.95 51.10 C 16.78 50.43 17.62 49.77 18.46 49.10 C 17.93 55.73 18.25 62.38 18.37 69.01 C 18.52 70.72 17.34 72.05 16.42 73.35 C 16.17 65.93 15.73 58.52 15.95 51.10 Z" />
<path fill="#5979a7" opacity="0.95" d=" M 57.97 57.82 C 60.11 54.89 63.31 53.14 66.95 53.02 C 67.08 55.96 66.71 58.90 65.86 61.73 C 67.38 62.15 68.90 62.57 70.41 63.01 C 69.89 63.56 68.86 64.66 68.34 65.20 C 67.75 65.77 67.14 66.30 66.52 66.83 C 63.99 68.90 61.43 70.95 59.18 73.34 C 58.67 73.05 57.66 72.49 57.15 72.21 C 57.78 67.44 58.47 62.63 57.97 57.82 Z" />
<path fill="#6098bf" opacity="0.86" d=" M 21.69 64.87 C 24.67 61.24 28.69 58.74 32.78 56.55 C 34.53 58.62 37.56 60.73 36.74 63.86 C 35.85 67.15 32.08 68.10 29.46 69.62 C 30.41 70.18 31.35 70.75 32.30 71.32 C 30.59 71.34 28.88 71.37 27.18 71.39 C 29.70 73.06 32.24 74.69 34.77 76.36 C 38.97 79.26 43.27 82.04 47.19 85.34 C 47.82 85.86 48.46 86.38 49.09 86.91 C 49.07 87.77 49.05 89.51 49.03 90.38 C 44.37 85.89 38.76 82.51 32.74 80.19 C 32.22 79.33 31.69 78.48 31.16 77.63 C 31.68 77.77 32.70 78.05 33.21 78.19 C 29.49 74.97 25.57 70.96 20.27 71.02 C 20.76 68.97 21.24 66.93 21.69 64.87 Z" />
<path fill="#b8cbd7" opacity="1.00" d=" M 41.50 67.29 C 44.28 64.02 47.81 61.47 51.63 59.54 C 49.81 64.15 45.01 66.27 41.25 69.03 C 41.31 68.60 41.44 67.73 41.50 67.29 Z" />
<path fill="#374c82" opacity="0.87" d=" M 74.21 66.84 C 74.84 65.15 75.48 63.46 76.04 61.74 C 75.86 64.73 75.81 67.72 75.74 70.72 C 74.48 71.60 73.20 72.47 71.92 73.34 C 71.74 72.47 71.56 71.60 71.39 70.74 C 68.58 72.08 65.77 73.45 63.16 75.16 C 64.58 72.51 65.63 69.69 66.52 66.83 C 67.14 66.30 67.75 65.77 68.34 65.20 C 70.28 65.82 72.24 66.35 74.21 66.84 Z" />
<path fill="#545e93" opacity="0.69" d=" M 78.55 63.07 L 78.59 62.16 C 80.53 64.93 82.10 67.99 82.71 71.34 C 82.63 72.53 82.57 73.71 82.51 74.89 C 74.40 73.69 69.47 82.20 61.58 82.37 C 66.95 78.79 72.46 75.41 77.87 71.86 C 77.93 71.16 78.06 69.75 78.12 69.05 C 78.29 67.06 78.46 65.07 78.55 63.07 Z" />
<path fill="#7c83a7" opacity="0.93" d=" M 82.71 71.34 C 83.06 69.42 83.52 67.53 83.89 65.61 C 84.19 69.28 84.30 72.97 84.19 76.65 C 83.25 77.07 82.31 77.50 81.38 77.94 C 73.94 79.32 68.49 85.17 61.86 88.40 C 62.39 86.91 62.93 85.42 63.47 83.94 C 58.69 86.76 53.86 89.47 49.00 92.15 L 49.02 91.25 L 49.03 90.38 C 52.64 87.29 56.66 84.69 60.95 82.67 L 61.58 82.37 C 69.47 82.20 74.40 73.69 82.51 74.89 C 82.57 73.71 82.63 72.53 82.71 71.34 Z" />
<path fill="#5f7863" opacity="0.87" d=" M 66.52 66.83 C 65.63 69.69 64.58 72.51 63.16 75.16 C 60.32 77.16 57.26 78.83 54.10 80.25 C 55.68 77.87 57.30 75.50 59.18 73.34 C 61.43 70.95 63.99 68.90 66.52 66.83 Z" />
<path fill="#91a3d1" opacity="1.00" d=" M 75.74 70.72 C 76.54 70.16 77.33 69.61 78.12 69.05 C 78.06 69.75 77.93 71.16 77.87 71.86 C 72.46 75.41 66.95 78.79 61.58 82.37 L 60.95 82.67 C 61.18 81.79 61.65 80.01 61.89 79.12 C 65.41 77.52 68.72 75.49 71.92 73.34 C 73.20 72.47 74.48 71.60 75.74 70.72 Z" />
<path fill="#a7c9c6" opacity="0.98" d=" M 20.27 71.02 C 25.57 70.96 29.49 74.97 33.21 78.19 C 32.70 78.05 31.68 77.77 31.16 77.63 C 27.85 75.96 24.46 74.43 21.22 72.61 C 20.98 72.21 20.51 71.42 20.27 71.02 Z" />
<path fill="#8ea197" opacity="0.81" d=" M 15.89 74.05 C 17.36 73.06 18.83 72.06 20.27 71.02 C 20.51 71.42 20.98 72.21 21.22 72.61 C 22.62 75.11 24.49 77.30 26.52 79.30 C 25.99 79.90 25.46 80.50 24.94 81.10 C 21.65 79.19 18.34 77.31 15.09 75.34 L 15.11 74.59 L 15.89 74.05 Z" />
<path fill="#869d88" opacity="0.93" d=" M 63.16 75.16 C 65.77 73.45 68.58 72.08 71.39 70.74 C 71.56 71.60 71.74 72.47 71.92 73.34 C 68.72 75.49 65.41 77.52 61.89 79.12 L 61.25 79.42 C 57.32 80.68 53.78 82.80 50.12 84.65 C 46.85 82.18 43.58 79.67 39.98 77.70 C 43.54 76.56 47.16 75.55 50.89 75.12 C 53.30 75.02 55.32 73.65 57.15 72.21 C 57.66 72.49 58.67 73.05 59.18 73.34 C 57.30 75.50 55.68 77.87 54.10 80.25 C 57.26 78.83 60.32 77.16 63.16 75.16 Z" />
<path fill="#627fa8" opacity="0.81" d=" M 21.22 72.61 C 24.46 74.43 27.85 75.96 31.16 77.63 C 31.69 78.48 32.22 79.33 32.74 80.19 C 35.98 86.39 43.03 88.62 49.02 91.25 L 49.00 92.15 C 48.97 93.49 48.94 94.84 48.91 96.19 C 45.76 94.26 42.66 92.26 39.48 90.38 C 34.93 86.84 29.98 83.87 24.94 81.10 C 25.46 80.50 25.99 79.90 26.52 79.30 C 24.49 77.30 22.62 75.11 21.22 72.61 Z" />
<path fill="#dee2d6" opacity="1.00" d=" M 15.09 75.34 C 18.34 77.31 21.65 79.19 24.94 81.10 C 29.98 83.87 34.93 86.84 39.48 90.38 C 39.03 90.56 38.11 90.91 37.66 91.09 C 32.19 88.08 27.02 84.57 21.62 81.45 C 19.35 80.07 16.97 78.82 15.03 76.99 C 15.05 76.58 15.07 75.75 15.09 75.34 Z" />
<path fill="#b1b9a5" opacity="0.94" d=" M 34.77 76.36 C 36.52 76.75 38.27 77.15 39.98 77.70 C 43.58 79.67 46.85 82.18 50.12 84.65 C 49.38 84.82 47.92 85.16 47.19 85.34 C 43.27 82.04 38.97 79.26 34.77 76.36 Z" />
<path fill="#c5cbd5" opacity="1.00" d=" M 61.86 88.40 C 68.49 85.17 73.94 79.32 81.38 77.94 C 78.79 79.78 76.42 81.90 73.96 83.90 C 69.35 86.19 64.91 88.79 60.65 91.67 C 56.88 94.10 53.18 96.89 48.75 97.98 C 52.36 93.85 57.25 91.23 61.86 88.40 Z" />
<path fill="#06012a" opacity="0.60" d=" M 50.12 84.65 C 53.78 82.80 57.32 80.68 61.25 79.42 C 57.16 81.86 53.17 84.46 49.09 86.91 C 48.46 86.38 47.82 85.86 47.19 85.34 C 47.92 85.16 49.38 84.82 50.12 84.65 Z" />
<path fill="#465780" opacity="0.89" d=" M 32.74 80.19 C 38.76 82.51 44.37 85.89 49.03 90.38 L 49.02 91.25 C 43.03 88.62 35.98 86.39 32.74 80.19 Z" />
<path fill="#d7e2d9" opacity="1.00" d=" M 49.09 86.91 C 53.17 84.46 57.16 81.86 61.25 79.42 L 61.89 79.12 C 61.65 80.01 61.18 81.79 60.95 82.67 C 56.66 84.69 52.64 87.29 49.03 90.38 C 49.05 89.51 49.07 87.77 49.09 86.91 Z" />
<path fill="#b5b9a3" opacity="0.93" d=" M 49.00 92.15 C 53.86 89.47 58.69 86.76 63.47 83.94 C 62.93 85.42 62.39 86.91 61.86 88.40 C 57.25 91.23 52.36 93.85 48.75 97.98 C 44.80 96.11 41.25 93.55 37.66 91.09 C 38.11 90.91 39.03 90.56 39.48 90.38 C 42.66 92.26 45.76 94.26 48.91 96.19 C 48.94 94.84 48.97 93.49 49.00 92.15 Z" />
</svg>
