<?xml version="1.0" encoding="UTF-8" ?>
<!DOCTYPE svg PUBLIC "-//W3C//DTD SVG 1.1//EN" "http://www.w3.org/Graphics/SVG/1.1/DTD/svg11.dtd">
<svg width="100pt" height="100pt" viewBox="0 0 100 100" version="1.1" xmlns="http://www.w3.org/2000/svg">
<path fill="#06033a" opacity="0.87" d=" M 48.40 0.00 L 50.44 0.00 C 56.79 4.25 63.26 8.32 69.36 12.92 L 68.49 12.88 C 61.65 9.67 56.19 4.00 48.96 1.55 C 48.53 1.77 47.67 2.23 47.23 2.45 C 45.49 3.41 43.81 4.48 42.18 5.62 C 40.31 6.89 38.45 8.19 36.53 9.39 C 29.03 13.68 21.89 18.54 14.42 22.88 C 13.36 35.90 14.28 48.96 13.98 62.00 C 13.92 67.00 13.60 72.11 14.89 77.00 C 22.13 82.11 29.91 86.48 37.56 90.95 C 41.17 93.47 44.76 96.08 48.75 98.00 C 57.96 94.87 65.09 87.76 73.99 83.92 C 66.44 90.04 57.75 94.49 49.78 100.00 L 48.52 100.00 C 37.12 91.97 25.06 84.95 13.18 77.67 C 12.94 59.23 12.93 40.79 13.20 22.35 C 25.07 15.12 36.82 7.68 48.40 0.00 Z" />
<path fill="#bec4b3" opacity="0.89" d=" M 48.96 1.55 C 56.19 4.00 61.65 9.67 68.49 12.88 C 67.25 12.85 66.02 12.85 64.78 12.85 C 60.78 10.67 56.24 10.18 51.87 9.23 C 49.74 7.83 49.60 4.88 49.02 2.62 L 48.96 1.55 Z" />
<path fill="#3c4875" opacity="0.87" d=" M 47.23 2.45 C 47.67 2.23 48.53 1.77 48.96 1.55 L 49.02 2.62 C 49.07 5.05 49.01 7.48 48.93 9.90 C 47.06 10.93 45.21 11.98 43.35 13.03 C 44.84 9.58 46.21 6.07 47.23 2.45 Z" />
<path fill="#737a8d" opacity="0.87" d=" M 42.18 5.62 C 43.81 4.48 45.49 3.41 47.23 2.45 C 46.21 6.07 44.84 9.58 43.35 13.03 C 45.21 11.98 47.06 10.93 48.93 9.90 C 49.94 11.53 50.97 13.15 52.10 14.70 C 52.36 15.07 52.88 15.81 53.15 16.18 C 49.78 16.92 46.40 17.68 43.15 18.87 C 41.69 19.35 40.22 19.77 38.74 20.19 C 40.47 18.19 42.24 16.21 44.01 14.24 C 41.30 14.98 38.57 15.71 35.94 16.71 C 38.02 13.01 39.87 9.18 42.18 5.62 Z" />
<path fill="#919ea0" opacity="0.89" d=" M 49.02 2.62 C 49.60 4.88 49.74 7.83 51.87 9.23 C 56.24 10.18 60.78 10.67 64.78 12.85 C 64.17 14.68 63.53 16.51 62.91 18.34 C 58.20 15.62 53.78 12.41 48.93 9.90 C 49.01 7.48 49.07 5.05 49.02 2.62 Z" />
<path fill="#cdccb9" opacity="0.91" d=" M 36.53 9.39 C 38.45 8.19 40.31 6.89 42.18 5.62 C 39.87 9.18 38.02 13.01 35.94 16.71 C 31.07 18.89 26.25 21.21 21.74 24.08 C 21.41 23.24 21.08 22.39 20.75 21.54 C 26.29 17.91 33.47 15.78 36.53 9.39 Z" />
<path fill="#dcdcc8" opacity="0.94" d=" M 14.42 22.88 C 21.89 18.54 29.03 13.68 36.53 9.39 C 33.47 15.78 26.29 17.91 20.75 21.54 C 19.17 22.45 17.60 23.36 16.03 24.27 C 15.59 33.21 15.96 42.15 15.92 51.09 C 15.70 58.48 16.32 65.86 16.27 73.25 L 15.76 73.91 L 15.21 74.53 C 15.43 57.32 14.90 40.09 14.42 22.88 Z" />
<path fill="#c3ccd0" opacity="0.98" d=" M 48.93 9.90 C 53.78 12.41 58.20 15.62 62.91 18.34 C 63.89 18.79 64.89 19.21 65.90 19.58 C 65.20 20.39 64.50 21.20 63.80 22.00 L 63.18 21.60 C 59.59 19.14 55.76 17.06 52.10 14.70 C 50.97 13.15 49.94 11.53 48.93 9.90 Z" />
<path fill="#6f78b1" opacity="0.82" d=" M 64.78 12.85 C 66.02 12.85 67.25 12.85 68.49 12.88 L 69.36 12.92 C 72.35 15.70 75.64 18.15 78.55 21.01 C 76.16 20.02 73.75 19.09 71.33 18.19 C 71.77 19.12 72.20 20.06 72.64 20.99 C 70.39 20.56 68.12 20.15 65.90 19.58 C 64.89 19.21 63.89 18.79 62.91 18.34 C 63.53 16.51 64.17 14.68 64.78 12.85 Z" />
<path fill="#393b91" opacity="1.00" d=" M 69.36 12.92 C 74.53 16.41 80.86 18.47 85.02 23.27 C 85.72 26.12 85.52 29.09 85.54 31.99 C 85.30 45.69 85.56 59.40 85.48 73.10 C 86.04 79.65 78.37 81.19 73.99 83.92 C 76.43 81.88 78.77 79.70 81.31 77.77 C 82.28 77.41 83.24 77.06 84.21 76.71 C 84.20 73.68 84.21 70.64 84.05 67.62 C 83.96 65.37 83.10 63.24 82.08 61.26 C 82.78 56.20 83.25 51.10 83.26 45.99 C 83.20 38.89 83.37 31.79 83.79 24.70 C 82.33 24.40 80.87 24.10 79.42 23.80 C 79.19 23.02 78.97 22.25 78.73 21.48 L 78.55 21.01 C 75.64 18.15 72.35 15.70 69.36 12.92 Z" />
<path fill="#acbaae" opacity="0.87" d=" M 35.94 16.71 C 38.57 15.71 41.30 14.98 44.01 14.24 C 42.24 16.21 40.47 18.19 38.74 20.19 C 40.22 19.77 41.69 19.35 43.15 18.87 C 39.77 21.29 36.51 23.90 32.92 26.03 C 30.46 27.35 27.80 28.24 25.10 28.94 C 29.77 25.66 33.90 21.69 38.19 17.94 C 31.59 20.82 24.89 24.08 20.46 29.99 C 19.96 28.98 19.46 27.97 18.96 26.96 C 17.44 34.27 17.44 41.78 18.53 49.15 C 17.66 49.80 16.79 50.44 15.92 51.09 C 15.96 42.15 15.59 33.21 16.03 24.27 C 17.60 23.36 19.17 22.45 20.75 21.54 C 21.08 22.39 21.41 23.24 21.74 24.08 C 26.25 21.21 31.07 18.89 35.94 16.71 Z" />
<path fill="#5e6771" opacity="0.85" d=" M 52.10 14.70 C 55.76 17.06 59.59 19.14 63.18 21.60 C 63.05 22.41 62.92 23.21 62.80 24.02 C 64.23 25.58 65.97 26.97 66.94 28.89 C 67.22 31.21 66.15 33.47 65.66 35.71 C 66.33 36.40 67.01 37.07 67.70 37.75 C 64.68 38.29 61.82 37.20 59.42 35.43 C 55.56 31.05 51.87 26.35 49.87 20.81 C 49.89 21.31 49.93 22.31 49.95 22.81 C 49.47 22.58 48.51 22.10 48.03 21.86 C 47.15 24.29 46.31 26.73 45.28 29.09 C 43.15 32.63 39.62 34.88 36.17 36.95 C 36.82 37.20 38.14 37.71 38.79 37.97 C 39.32 38.16 40.39 38.55 40.92 38.74 C 36.36 38.54 31.82 37.97 27.41 36.76 C 25.98 39.99 25.70 43.44 26.92 46.83 C 25.59 49.33 24.23 51.81 22.83 54.27 C 21.74 47.02 21.81 39.65 22.84 32.40 C 25.74 31.69 28.70 31.29 31.66 31.02 C 32.08 29.36 32.51 27.70 32.92 26.03 C 36.51 23.90 39.77 21.29 43.15 18.87 C 46.40 17.68 49.78 16.92 53.15 16.18 C 52.88 15.81 52.36 15.07 52.10 14.70 Z" />
<path fill="#ccdddf" opacity="1.00" d=" M 20.46 29.99 C 24.89 24.08 31.59 20.82 38.19 17.94 C 33.90 21.69 29.77 25.66 25.10 28.94 C 23.57 29.35 22.01 29.66 20.46 29.99 Z" />
<path fill="#353e8a" opacity="0.80" d=" M 71.33 18.19 C 73.75 19.09 76.16 20.02 78.55 21.01 L 78.73 21.48 C 78.97 22.25 79.19 23.02 79.42 23.80 C 80.87 24.10 82.33 24.40 83.79 24.70 C 83.37 31.79 83.20 38.89 83.26 45.99 C 82.68 45.97 81.51 45.91 80.92 45.88 C 81.10 43.23 81.27 40.59 81.41 37.94 C 80.22 38.86 79.03 39.78 77.84 40.70 C 76.77 35.78 78.10 30.88 80.64 26.64 C 79.78 27.09 78.91 27.54 78.04 27.99 C 73.95 25.25 69.89 22.46 65.90 19.58 C 68.12 20.15 70.39 20.56 72.64 20.99 C 72.20 20.06 71.77 19.12 71.33 18.19 Z" />
<path fill="#7b8db4" opacity="0.91" d=" M 65.90 19.58 C 69.89 22.46 73.95 25.25 78.04 27.99 C 78.91 27.54 79.78 27.09 80.64 26.64 C 78.10 30.88 76.77 35.78 77.84 40.70 C 79.33 48.15 79.21 55.74 78.49 63.26 C 78.59 56.28 78.47 49.27 77.55 42.34 C 77.00 47.49 76.13 52.64 76.33 57.86 C 76.33 53.39 76.09 48.93 75.99 44.46 C 76.10 39.82 77.07 34.95 75.47 30.47 C 72.51 26.57 67.68 24.81 63.80 22.00 C 64.50 21.20 65.20 20.39 65.90 19.58 Z" />
<path fill="#a7a998" opacity="0.95" d=" M 49.87 20.81 C 51.87 26.35 55.56 31.05 59.42 35.43 C 56.35 33.30 53.43 30.98 50.29 28.95 C 51.29 30.83 52.10 32.87 53.53 34.48 C 55.34 35.97 57.56 36.85 59.65 37.87 C 57.57 38.37 55.51 38.99 53.48 39.67 C 58.61 40.06 63.76 40.17 68.90 40.37 C 68.91 40.77 68.94 41.57 68.95 41.97 C 67.71 41.81 66.47 41.67 65.22 41.54 C 64.30 41.45 63.37 41.37 62.44 41.36 C 57.57 41.76 54.07 45.70 53.31 50.37 C 53.11 51.23 52.94 52.10 52.77 52.97 C 52.34 55.33 51.96 57.71 51.54 60.07 L 51.39 60.93 C 50.64 64.39 51.91 67.75 52.73 71.07 C 54.30 63.12 62.48 59.91 67.09 54.06 C 70.77 50.07 71.20 44.45 72.08 39.36 C 72.73 39.54 73.37 39.72 74.02 39.92 C 74.13 40.13 74.35 40.54 74.47 40.75 C 73.38 44.97 72.02 49.14 70.03 53.02 C 67.78 57.51 63.45 60.31 59.92 63.70 C 57.55 66.14 56.37 69.38 55.22 72.51 C 54.29 72.49 53.37 72.47 52.45 72.45 C 52.38 74.64 52.32 76.84 52.15 79.03 C 51.58 80.73 51.02 82.44 50.45 84.15 C 49.27 84.49 48.09 84.84 46.91 85.18 C 42.95 81.98 38.82 79.01 34.79 75.91 C 39.03 77.76 43.28 79.62 47.28 81.97 C 47.44 80.24 47.62 78.52 47.73 76.78 C 48.04 77.71 48.66 79.57 48.97 80.50 C 50.23 74.41 50.00 68.19 49.81 62.02 C 50.12 48.95 50.17 35.88 49.95 22.81 C 49.93 22.31 49.89 21.31 49.87 20.81 Z" />
<path fill="#868d9b" opacity="0.87" d=" M 45.28 29.09 C 46.31 26.73 47.15 24.29 48.03 21.86 C 47.67 34.80 48.56 47.73 48.07 60.66 C 47.93 61.11 47.67 62.00 47.53 62.45 C 47.09 62.20 46.21 61.69 45.77 61.44 C 46.00 59.06 46.73 56.78 47.65 54.58 C 43.33 51.67 38.46 48.85 36.02 44.02 C 35.98 43.62 35.90 42.81 35.86 42.41 C 38.41 45.30 41.36 47.81 44.45 50.11 C 42.88 45.89 39.74 42.62 35.68 40.71 L 35.59 40.03 C 38.24 39.87 40.89 39.72 43.54 39.53 C 42.67 39.27 41.79 39.00 40.92 38.74 C 40.39 38.55 39.32 38.16 38.79 37.97 C 42.09 36.02 44.92 33.41 47.32 30.44 C 46.81 30.11 45.79 29.43 45.28 29.09 Z" />
<path fill="#06033a" opacity="0.87" d=" M 48.03 21.86 C 48.51 22.10 49.47 22.58 49.95 22.81 C 50.17 35.88 50.12 48.95 49.81 62.02 C 50.00 68.19 50.23 74.41 48.97 80.50 C 48.66 79.57 48.04 77.71 47.73 76.78 C 47.77 73.81 47.83 70.83 47.92 67.85 C 48.02 65.46 48.02 63.06 48.07 60.66 C 48.56 47.73 47.67 34.80 48.03 21.86 Z" />
<path fill="#4a5383" opacity="0.87" d=" M 62.80 24.02 C 62.92 23.21 63.05 22.41 63.18 21.60 L 63.80 22.00 C 67.68 24.81 72.51 26.57 75.47 30.47 C 77.07 34.95 76.10 39.82 75.99 44.46 L 75.70 43.24 C 75.39 42.62 74.78 41.37 74.47 40.75 C 74.35 40.54 74.13 40.13 74.02 39.92 C 73.37 39.72 72.73 39.54 72.08 39.36 L 72.18 38.75 C 72.92 37.11 70.90 35.86 69.62 36.97 C 69.14 37.17 68.18 37.55 67.70 37.75 C 67.01 37.07 66.33 36.40 65.66 35.71 C 66.15 33.47 67.22 31.21 66.94 28.89 C 65.97 26.97 64.23 25.58 62.80 24.02 Z" />
<path fill="#c4b495" opacity="1.00" d=" M 13.98 62.00 C 14.28 48.96 13.36 35.90 14.42 22.88 C 14.90 40.09 15.43 57.32 15.21 74.53 L 15.08 75.46 C 15.03 75.85 14.94 76.62 14.89 77.00 C 13.60 72.11 13.92 67.00 13.98 62.00 Z" />
<path fill="#567aa0" opacity="0.83" d=" M 25.10 28.94 C 27.80 28.24 30.46 27.35 32.92 26.03 C 32.51 27.70 32.08 29.36 31.66 31.02 C 28.70 31.29 25.74 31.69 22.84 32.40 C 21.81 39.65 21.74 47.02 22.83 54.27 C 24.23 51.81 25.59 49.33 26.92 46.83 C 27.51 48.84 28.19 50.84 29.13 52.72 C 30.03 54.52 31.00 56.28 32.14 57.93 C 29.24 61.33 25.75 64.25 21.54 65.88 C 21.57 58.85 20.74 51.84 19.55 44.92 C 19.20 46.33 18.83 47.73 18.53 49.15 C 17.44 41.78 17.44 34.27 18.96 26.96 C 19.46 27.97 19.96 28.98 20.46 29.99 C 22.01 29.66 23.57 29.35 25.10 28.94 Z" />
<path fill="#090b38" opacity="0.79" d=" M 45.28 29.09 C 45.79 29.43 46.81 30.11 47.32 30.44 C 44.92 33.41 42.09 36.02 38.79 37.97 C 38.14 37.71 36.82 37.20 36.17 36.95 C 39.62 34.88 43.15 32.63 45.28 29.09 Z" />
<path fill="#0c0645" opacity="0.87" d=" M 50.29 28.95 C 53.43 30.98 56.35 33.30 59.42 35.43 C 61.82 37.20 64.68 38.29 67.70 37.75 C 68.18 37.55 69.14 37.17 69.62 36.97 C 70.07 38.14 70.93 38.74 72.18 38.75 L 72.08 39.36 C 71.20 44.45 70.77 50.07 67.09 54.06 C 62.48 59.91 54.30 63.12 52.73 71.07 C 51.91 67.75 50.64 64.39 51.39 60.93 C 52.37 61.50 53.35 62.07 54.33 62.65 C 59.16 58.39 64.37 54.27 67.41 48.45 C 68.14 46.35 68.60 44.17 68.95 41.97 C 68.94 41.57 68.91 40.77 68.90 40.37 C 63.76 40.17 58.61 40.06 53.48 39.67 C 55.51 38.99 57.57 38.37 59.65 37.87 C 57.56 36.85 55.34 35.97 53.53 34.48 C 52.10 32.87 51.29 30.83 50.29 28.95 Z" />
<path fill="#06033a" opacity="0.87" d=" M 26.92 46.83 C 25.70 43.44 25.98 39.99 27.41 36.76 C 31.82 37.97 36.36 38.54 40.92 38.74 C 41.79 39.00 42.67 39.27 43.54 39.53 C 40.89 39.72 38.24 39.87 35.59 40.03 C 33.96 40.13 32.33 40.25 30.69 40.31 C 30.16 40.29 29.09 40.26 28.56 40.24 C 28.84 45.40 30.56 50.43 34.44 54.01 C 34.85 54.50 35.28 54.98 35.74 55.44 C 38.12 57.90 40.52 60.36 43.25 62.45 C 43.59 62.33 44.27 62.09 44.61 61.96 C 44.90 61.83 45.48 61.57 45.77 61.44 C 46.21 61.69 47.09 62.20 47.53 62.45 C 46.69 65.20 45.90 67.97 45.33 70.79 C 43.07 62.46 33.94 59.28 29.13 52.72 C 28.19 50.84 27.51 48.84 26.92 46.83 Z" />
<path fill="#a0a5bc" opacity="0.95" d=" M 69.62 36.97 C 70.90 35.86 72.92 37.11 72.18 38.75 C 70.93 38.74 70.07 38.14 69.62 36.97 Z" />
<path fill="#4e58a0" opacity="0.80" d=" M 77.84 40.70 C 79.03 39.78 80.22 38.86 81.41 37.94 C 81.27 40.59 81.10 43.23 80.92 45.88 C 80.59 50.34 80.36 54.81 80.39 59.29 C 80.82 59.78 81.66 60.77 82.08 61.26 C 83.10 63.24 83.96 65.37 84.05 67.62 C 83.62 69.99 83.05 72.34 82.46 74.68 C 79.24 74.94 75.89 75.31 73.14 77.19 C 69.60 79.56 65.62 81.11 61.58 82.40 C 63.05 81.15 64.44 79.82 65.91 78.56 C 69.73 76.71 73.85 75.06 76.88 71.98 C 78.53 69.44 78.18 66.16 78.49 63.26 C 79.21 55.74 79.33 48.15 77.84 40.70 Z" />
<path fill="#bec4b3" opacity="0.89" d=" M 28.56 40.24 C 29.09 40.26 30.16 40.29 30.69 40.31 C 32.25 40.53 33.80 40.81 35.35 41.09 C 33.68 41.53 32.00 41.96 30.33 42.39 C 31.52 46.32 32.53 50.35 34.44 54.01 C 30.56 50.43 28.84 45.40 28.56 40.24 Z" />
<path fill="#667c9c" opacity="0.95" d=" M 30.69 40.31 C 32.33 40.25 33.96 40.13 35.59 40.03 L 35.68 40.71 C 35.73 41.14 35.81 41.99 35.86 42.41 C 35.90 42.81 35.98 43.62 36.02 44.02 C 38.46 48.85 43.33 51.67 47.65 54.58 C 46.73 56.78 46.00 59.06 45.77 61.44 C 45.48 61.57 44.90 61.83 44.61 61.96 C 42.16 59.16 39.17 56.89 35.74 55.44 C 35.28 54.98 34.85 54.50 34.44 54.01 C 32.53 50.35 31.52 46.32 30.33 42.39 C 32.00 41.96 33.68 41.53 35.35 41.09 C 33.80 40.81 32.25 40.53 30.69 40.31 Z" />
<path fill="#090d38" opacity="0.77" d=" M 35.68 40.71 C 39.74 42.62 42.88 45.89 44.45 50.11 C 41.36 47.81 38.41 45.30 35.86 42.41 C 35.81 41.99 35.73 41.14 35.68 40.71 Z" />
<path fill="#06033a" opacity="0.87" d=" M 53.31 50.37 C 54.07 45.70 57.57 41.76 62.44 41.36 C 59.67 44.62 56.57 47.59 53.31 50.37 Z" />
<path fill="#cdccb9" opacity="0.91" d=" M 62.44 41.36 C 63.37 41.37 64.30 41.45 65.22 41.54 C 61.31 45.59 57.23 49.51 52.77 52.97 C 52.94 52.10 53.11 51.23 53.31 50.37 C 56.57 47.59 59.67 44.62 62.44 41.36 Z" />
<path fill="#4163b5" opacity="0.93" d=" M 70.03 53.02 C 72.02 49.14 73.38 44.97 74.47 40.75 C 74.78 41.37 75.39 42.62 75.70 43.24 C 75.32 47.67 75.24 52.17 74.18 56.51 C 73.29 60.03 70.86 62.87 68.36 65.38 C 67.81 65.89 67.26 66.38 66.69 66.86 C 66.25 67.21 65.36 67.93 64.92 68.28 C 63.26 66.75 61.59 65.22 59.92 63.70 C 63.45 60.31 67.78 57.51 70.03 53.02 Z" />
<path fill="#56689e" opacity="0.96" d=" M 52.77 52.97 C 57.23 49.51 61.31 45.59 65.22 41.54 C 66.47 41.67 67.71 41.81 68.95 41.97 C 68.60 44.17 68.14 46.35 67.41 48.45 C 61.49 51.43 56.81 56.16 51.54 60.07 C 51.96 57.71 52.34 55.33 52.77 52.97 Z" />
<path fill="#b9c5d3" opacity="0.96" d=" M 76.33 57.86 C 76.13 52.64 77.00 47.49 77.55 42.34 C 78.47 49.27 78.59 56.28 78.49 63.26 C 78.18 66.16 78.53 69.44 76.88 71.98 C 73.85 75.06 69.73 76.71 65.91 78.56 C 65.18 78.72 63.72 79.06 62.99 79.22 C 65.80 77.35 68.63 75.50 71.46 73.66 C 72.81 72.72 74.14 71.71 75.17 70.42 C 76.01 67.69 75.90 64.79 76.18 61.98 C 76.28 60.61 76.33 59.23 76.33 57.86 Z" />
<path fill="#0b2990" opacity="0.87" d=" M 75.70 43.24 L 75.99 44.46 C 76.09 48.93 76.33 53.39 76.33 57.86 C 76.33 59.23 76.28 60.61 76.18 61.98 C 75.25 63.52 74.70 65.73 72.91 66.47 C 71.36 66.32 69.87 65.73 68.36 65.38 C 70.86 62.87 73.29 60.03 74.18 56.51 C 75.24 52.17 75.32 47.67 75.70 43.24 Z" />
<path fill="#294365" opacity="0.66" d=" M 19.55 44.92 C 20.74 51.84 21.57 58.85 21.54 65.88 C 21.17 67.57 20.73 69.26 20.29 70.94 C 18.76 71.90 17.26 72.91 15.76 73.91 L 16.27 73.25 C 17.00 72.36 17.82 71.53 18.63 70.70 C 18.12 63.54 17.80 56.32 18.53 49.15 C 18.83 47.73 19.20 46.33 19.55 44.92 Z" />
<path fill="#0825d0" opacity="0.82" d=" M 80.92 45.88 C 81.51 45.91 82.68 45.97 83.26 45.99 C 83.25 51.10 82.78 56.20 82.08 61.26 C 81.66 60.77 80.82 59.78 80.39 59.29 C 80.36 54.81 80.59 50.34 80.92 45.88 Z" />
<path fill="#4f72d0" opacity="0.95" d=" M 51.54 60.07 C 56.81 56.16 61.49 51.43 67.41 48.45 C 64.37 54.27 59.16 58.39 54.33 62.65 C 53.35 62.07 52.37 61.50 51.39 60.93 L 51.54 60.07 Z" />
<path fill="#5888a7" opacity="0.80" d=" M 15.92 51.09 C 16.79 50.44 17.66 49.80 18.53 49.15 C 17.80 56.32 18.12 63.54 18.63 70.70 C 17.82 71.53 17.00 72.36 16.27 73.25 C 16.32 65.86 15.70 58.48 15.92 51.09 Z" />
<path fill="#69a3a4" opacity="0.96" d=" M 29.13 52.72 C 33.94 59.28 43.07 62.46 45.33 70.79 L 45.56 71.78 C 46.37 70.48 47.18 69.19 47.92 67.85 C 47.83 70.83 47.77 73.81 47.73 76.78 C 47.62 78.52 47.44 80.24 47.28 81.97 C 43.28 79.62 39.03 77.76 34.79 75.91 C 32.92 74.83 31.06 73.75 29.19 72.68 C 30.05 72.41 30.92 72.14 31.78 71.87 C 34.26 69.27 37.27 67.23 40.73 66.18 C 37.83 63.47 34.85 60.83 32.14 57.93 C 31.00 56.28 30.03 54.52 29.13 52.72 Z" />
<path fill="#91b0d1" opacity="1.00" d=" M 35.74 55.44 C 39.17 56.89 42.16 59.16 44.61 61.96 C 44.27 62.09 43.59 62.33 43.25 62.45 C 40.52 60.36 38.12 57.90 35.74 55.44 Z" />
<path fill="#629cc0" opacity="0.87" d=" M 32.14 57.93 C 34.85 60.83 37.83 63.47 40.73 66.18 C 37.27 67.23 34.26 69.27 31.78 71.87 C 30.92 72.14 30.05 72.41 29.19 72.68 C 31.06 73.75 32.92 74.83 34.79 75.91 C 38.82 79.01 42.95 81.98 46.91 85.18 C 47.71 85.78 48.52 86.37 49.33 86.96 C 49.25 87.82 49.10 89.53 49.02 90.39 C 44.42 86.00 38.75 83.03 33.59 79.40 C 34.16 79.57 35.29 79.91 35.85 80.09 C 31.40 75.95 26.53 71.76 20.29 70.94 C 20.73 69.26 21.17 67.57 21.54 65.88 C 25.75 64.25 29.24 61.33 32.14 57.93 Z" />
<path fill="#bddbe1" opacity="1.00" d=" M 47.53 62.45 C 47.67 62.00 47.93 61.11 48.07 60.66 C 48.02 63.06 48.02 65.46 47.92 67.85 C 47.18 69.19 46.37 70.48 45.56 71.78 L 45.33 70.79 C 45.90 67.97 46.69 65.20 47.53 62.45 Z" />
<path fill="#364b84" opacity="0.87" d=" M 72.91 66.47 C 74.70 65.73 75.25 63.52 76.18 61.98 C 75.90 64.79 76.01 67.69 75.17 70.42 C 74.14 71.71 72.81 72.72 71.46 73.66 C 71.87 72.40 72.28 71.13 72.70 69.87 C 69.23 71.56 65.79 73.32 62.40 75.16 C 63.77 72.36 65.22 69.60 66.69 66.86 C 67.26 66.38 67.81 65.89 68.36 65.38 C 69.87 65.73 71.36 66.32 72.91 66.47 Z" />
<path fill="#5d90a8" opacity="0.93" d=" M 55.22 72.51 C 56.37 69.38 57.55 66.14 59.92 63.70 C 61.59 65.22 63.26 66.75 64.92 68.28 C 60.54 71.72 56.36 75.39 52.15 79.03 C 52.32 76.84 52.38 74.64 52.45 72.45 C 53.37 72.47 54.29 72.49 55.22 72.51 Z" />
<path fill="#808567" opacity="0.87" d=" M 66.69 66.86 C 65.22 69.60 63.77 72.36 62.40 75.16 C 65.79 73.32 69.23 71.56 72.70 69.87 C 72.28 71.13 71.87 72.40 71.46 73.66 C 68.63 75.50 65.80 77.35 62.99 79.22 C 58.29 81.54 53.83 84.29 49.33 86.96 C 48.52 86.37 47.71 85.78 46.91 85.18 C 48.09 84.84 49.27 84.49 50.45 84.15 C 51.02 82.44 51.58 80.73 52.15 79.03 C 56.36 75.39 60.54 71.72 64.92 68.28 C 65.36 67.93 66.25 67.21 66.69 66.86 Z" />
<path fill="#7c83a8" opacity="0.93" d=" M 82.46 74.68 C 83.05 72.34 83.62 69.99 84.05 67.62 C 84.21 70.64 84.20 73.68 84.21 76.71 C 83.24 77.06 82.28 77.41 81.31 77.77 C 74.13 79.90 68.31 84.78 61.87 88.38 C 62.40 86.90 62.95 85.42 63.48 83.94 C 58.68 86.74 53.84 89.46 48.98 92.16 L 49.00 91.25 L 49.02 90.39 C 52.79 87.13 57.13 84.62 61.58 82.40 C 65.62 81.11 69.60 79.56 73.14 77.19 C 75.89 75.31 79.24 74.94 82.46 74.68 Z" />
<path fill="#a1c7cb" opacity="1.00" d=" M 20.29 70.94 C 26.53 71.76 31.40 75.95 35.85 80.09 C 35.29 79.91 34.16 79.57 33.59 79.40 C 29.50 77.17 25.40 74.91 21.47 72.40 C 21.17 72.04 20.58 71.30 20.29 70.94 Z" />
<path fill="#8ba19a" opacity="0.81" d=" M 15.76 73.91 C 17.26 72.91 18.76 71.90 20.29 70.94 C 20.58 71.30 21.17 72.04 21.47 72.40 C 24.13 75.28 25.38 79.00 27.40 82.28 C 23.28 80.03 19.13 77.83 15.08 75.46 L 15.21 74.53 L 15.76 73.91 Z" />
<path fill="#627aa8" opacity="0.80" d=" M 21.47 72.40 C 25.40 74.91 29.50 77.17 33.59 79.40 C 34.28 81.00 34.10 83.12 35.67 84.23 C 39.60 87.42 44.41 89.24 49.00 91.25 L 48.98 92.16 C 48.95 93.49 48.91 94.83 48.87 96.16 C 45.81 94.22 42.74 92.26 39.54 90.55 C 35.64 87.58 31.63 84.76 27.40 82.28 C 25.38 79.00 24.13 75.28 21.47 72.40 Z" />
<path fill="#e0e3d6" opacity="1.00" d=" M 15.08 75.46 C 19.13 77.83 23.28 80.03 27.40 82.28 C 31.63 84.76 35.64 87.58 39.54 90.55 C 39.05 90.65 38.05 90.85 37.56 90.95 C 29.91 86.48 22.13 82.11 14.89 77.00 C 14.94 76.62 15.03 75.85 15.08 75.46 Z" />
<path fill="#c5cbd5" opacity="1.00" d=" M 61.87 88.38 C 68.31 84.78 74.13 79.90 81.31 77.77 C 78.77 79.70 76.43 81.88 73.99 83.92 C 65.09 87.76 57.96 94.87 48.75 98.00 C 52.50 94.02 57.15 91.07 61.87 88.38 Z" />
<path fill="#cddad9" opacity="1.00" d=" M 49.33 86.96 C 53.83 84.29 58.29 81.54 62.99 79.22 C 63.72 79.06 65.18 78.72 65.91 78.56 C 64.44 79.82 63.05 81.15 61.58 82.40 C 57.13 84.62 52.79 87.13 49.02 90.39 C 49.10 89.53 49.25 87.82 49.33 86.96 Z" />
<path fill="#465780" opacity="0.89" d=" M 35.67 84.23 C 34.10 83.12 34.28 81.00 33.59 79.40 C 38.75 83.03 44.42 86.00 49.02 90.39 L 49.00 91.25 C 44.41 89.24 39.60 87.42 35.67 84.23 Z" />
<path fill="#b5b9a3" opacity="0.93" d=" M 48.98 92.16 C 53.84 89.46 58.68 86.74 63.48 83.94 C 62.95 85.42 62.40 86.90 61.87 88.38 C 57.15 91.07 52.50 94.02 48.75 98.00 C 44.76 96.08 41.17 93.47 37.56 90.95 C 38.05 90.85 39.05 90.65 39.54 90.55 C 42.74 92.26 45.81 94.22 48.87 96.16 C 48.91 94.83 48.95 93.49 48.98 92.16 Z" />
</svg>
