<?xml version="1.0" encoding="UTF-8" ?>
<!DOCTYPE svg PUBLIC "-//W3C//DTD SVG 1.1//EN" "http://www.w3.org/Graphics/SVG/1.1/DTD/svg11.dtd">
<svg width="100pt" height="100pt" viewBox="0 0 100 100" version="1.1" xmlns="http://www.w3.org/2000/svg">
<path fill="#06070a" opacity="0.92" d=" M 36.87 26.15 C 44.07 24.56 51.54 24.22 58.85 25.29 C 64.36 26.10 70.26 26.74 74.92 30.05 C 77.15 31.54 78.25 34.57 76.98 37.03 C 71.90 48.06 65.37 58.38 58.20 68.17 C 56.03 70.85 53.62 74.06 49.97 74.59 C 46.35 74.12 43.77 71.12 41.45 68.57 C 35.54 61.33 30.25 53.58 25.47 45.56 C 23.91 42.82 22.25 40.02 21.69 36.87 C 21.46 34.36 22.47 31.96 23.13 29.58 C 23.70 42.23 30.72 53.57 39.52 62.27 C 42.12 66.38 44.33 72.49 49.86 73.03 C 53.51 70.68 55.92 66.96 58.73 63.74 C 63.64 58.02 67.52 51.52 71.18 44.96 C 72.84 42.10 74.30 39.14 75.69 36.15 C 74.54 35.18 73.39 34.21 72.24 33.24 C 72.89 32.83 74.18 32.00 74.83 31.58 C 63.25 25.32 49.65 25.33 36.87 26.15 Z" />
<path fill="#454f5e" opacity="1.00" d=" M 33.92 26.90 C 34.85 26.46 35.83 26.21 36.87 26.15 C 49.65 25.33 63.25 25.32 74.83 31.58 C 74.18 32.00 72.89 32.83 72.24 33.24 C 65.79 36.14 58.30 35.03 51.52 33.99 C 50.06 33.29 48.60 32.59 47.14 31.90 C 49.70 34.24 52.30 36.57 54.50 39.26 C 51.73 40.36 48.65 41.08 45.78 39.92 C 42.94 37.12 39.73 34.61 35.99 33.14 C 33.63 32.10 31.13 31.46 28.67 30.71 C 30.40 29.42 32.13 28.10 33.92 26.90 M 55.81 29.19 C 57.39 30.61 58.90 32.19 60.83 33.14 C 63.27 33.90 65.83 33.02 68.26 32.69 C 64.74 29.84 60.23 29.03 55.81 29.19 Z" />
<path fill="#333743" opacity="1.00" d=" M 23.13 29.58 C 26.64 28.37 30.24 27.40 33.92 26.90 C 32.13 28.10 30.40 29.42 28.67 30.71 C 31.13 31.46 33.63 32.10 35.99 33.14 C 38.28 34.88 40.49 36.73 42.55 38.75 C 42.50 39.63 42.45 40.50 42.40 41.38 C 40.35 41.97 38.22 42.43 36.28 43.35 C 34.05 49.73 37.12 56.40 39.52 62.27 C 30.72 53.57 23.70 42.23 23.13 29.58 Z" />
<path fill="#afb9b8" opacity="1.00" d=" M 55.81 29.19 C 60.23 29.03 64.74 29.84 68.26 32.69 C 65.83 33.02 63.27 33.90 60.83 33.14 C 58.90 32.19 57.39 30.61 55.81 29.19 Z" />
<path fill="#fffb96" opacity="1.00" d=" M 47.14 31.90 C 48.60 32.59 50.06 33.29 51.52 33.99 C 53.78 35.98 55.88 38.16 57.77 40.51 C 60.35 44.82 61.24 49.82 61.40 54.78 C 60.18 55.30 58.95 55.82 57.73 56.35 C 59.91 50.49 57.96 44.18 54.50 39.26 C 52.30 36.57 49.70 34.24 47.14 31.90 Z" />
<path fill="#fffb96" opacity="1.00" d=" M 35.99 33.14 C 39.73 34.61 42.94 37.12 45.78 39.92 C 48.07 44.79 49.84 50.60 47.86 55.87 C 47.03 58.51 43.99 58.58 41.74 59.04 C 41.41 57.08 41.04 55.14 40.56 53.22 C 41.66 54.88 42.84 56.51 44.20 57.99 C 48.02 52.15 47.02 43.97 42.55 38.75 C 40.49 36.73 38.28 34.88 35.99 33.14 Z" />
<path fill="#333742" opacity="1.00" d=" M 51.52 33.99 C 58.30 35.03 65.79 36.14 72.24 33.24 C 73.39 34.21 74.54 35.18 75.69 36.15 C 74.30 39.14 72.84 42.10 71.18 44.96 C 67.96 47.01 65.25 49.74 63.11 52.90 C 62.94 49.58 63.34 46.06 61.98 42.94 C 60.72 41.91 59.23 41.20 57.77 40.51 C 55.88 38.16 53.78 35.98 51.52 33.99 Z" />
<path fill="#141420" opacity="1.00" d=" M 42.55 38.75 C 47.02 43.97 48.02 52.15 44.20 57.99 C 42.84 56.51 41.66 54.88 40.56 53.22 C 41.04 55.14 41.41 57.08 41.74 59.04 C 43.99 58.58 47.03 58.51 47.86 55.87 C 49.84 50.60 48.07 44.79 45.78 39.92 C 48.65 41.08 51.73 40.36 54.50 39.26 C 57.96 44.18 59.91 50.49 57.73 56.35 C 58.95 55.82 60.18 55.30 61.40 54.78 C 61.24 49.82 60.35 44.82 57.77 40.51 C 59.23 41.20 60.72 41.91 61.98 42.94 C 63.34 46.06 62.94 49.58 63.11 52.90 C 65.25 49.74 67.96 47.01 71.18 44.96 C 67.52 51.52 63.64 58.02 58.73 63.74 C 55.92 66.96 53.51 70.68 49.86 73.03 C 44.33 72.49 42.12 66.38 39.52 62.27 C 37.12 56.40 34.05 49.73 36.28 43.35 C 38.22 42.43 40.35 41.97 42.40 41.38 C 42.45 40.50 42.50 39.63 42.55 38.75 Z" />
</svg>
