<?xml version="1.0" encoding="UTF-8" ?>
<!DOCTYPE svg PUBLIC "-//W3C//DTD SVG 1.1//EN" "http://www.w3.org/Graphics/SVG/1.1/DTD/svg11.dtd">
<svg width="100pt" height="100pt" viewBox="0 0 100 100" version="1.1" xmlns="http://www.w3.org/2000/svg">
<path fill="#05003f" opacity="0.94" d=" M 48.40 0.00 L 50.47 0.00 C 56.67 4.52 63.52 8.11 69.35 13.13 L 68.48 13.00 C 61.71 9.66 56.23 4.00 49.00 1.56 C 48.56 1.79 47.69 2.27 47.26 2.50 C 45.54 3.49 43.82 4.49 42.19 5.61 C 40.30 6.87 38.45 8.17 36.54 9.38 C 29.05 13.67 21.91 18.53 14.45 22.87 C 13.44 32.55 14.12 42.29 13.99 52.01 C 14.23 60.36 13.45 68.74 14.56 77.06 C 22.23 81.77 29.84 86.58 37.63 91.08 C 41.23 93.54 44.79 96.10 48.74 97.98 C 54.10 96.57 58.44 92.98 63.06 90.09 C 66.55 87.79 70.25 85.81 73.97 83.90 C 66.48 90.12 57.66 94.36 49.77 100.00 L 48.52 100.00 C 37.20 91.90 25.08 84.99 13.26 77.66 C 13.02 59.23 13.02 40.79 13.28 22.36 C 25.09 15.08 36.88 7.75 48.40 0.00 Z" />
<path fill="#bec4b3" opacity="0.89" d=" M 49.00 1.56 C 56.23 4.00 61.71 9.66 68.48 13.00 C 66.68 12.76 64.89 12.46 63.15 11.95 C 59.73 10.67 56.14 10.02 52.53 9.56 C 49.76 8.57 49.59 5.07 49.03 2.62 L 49.00 1.56 Z" />
<path fill="#3c4875" opacity="0.87" d=" M 47.26 2.50 C 47.69 2.27 48.56 1.79 49.00 1.56 L 49.03 2.62 C 49.06 5.05 49.00 7.48 48.95 9.90 C 47.07 10.93 45.19 11.96 43.32 13.01 C 44.86 9.60 46.23 6.11 47.26 2.50 Z" />
<path fill="#737a8d" opacity="0.87" d=" M 42.19 5.61 C 43.82 4.49 45.54 3.49 47.26 2.50 C 46.23 6.11 44.86 9.60 43.32 13.01 C 45.19 11.96 47.07 10.93 48.95 9.90 C 49.93 11.55 50.93 13.20 52.05 14.76 C 52.34 15.17 52.90 15.97 53.19 16.37 C 49.65 16.68 46.15 17.52 43.08 19.34 C 41.67 19.61 40.26 19.79 38.85 19.97 C 40.52 18.00 42.28 16.10 44.09 14.24 C 41.37 15.04 38.65 15.80 35.98 16.72 C 38.01 13.00 39.84 9.15 42.19 5.61 Z" />
<path fill="#92a0a0" opacity="0.88" d=" M 49.03 2.62 C 49.59 5.07 49.76 8.57 52.53 9.56 C 56.14 10.02 59.73 10.67 63.15 11.95 C 62.99 14.04 62.84 16.13 62.70 18.23 C 58.06 15.54 53.75 12.31 48.95 9.90 C 49.00 7.48 49.06 5.05 49.03 2.62 Z" />
<path fill="#cdccb9" opacity="0.91" d=" M 36.54 9.38 C 38.45 8.17 40.30 6.87 42.19 5.61 C 39.84 9.15 38.01 13.00 35.98 16.72 C 30.98 18.64 26.38 21.39 21.76 24.06 C 21.42 23.22 21.08 22.38 20.74 21.54 C 26.14 17.75 33.74 15.91 36.54 9.38 Z" />
<path fill="#dcdcc8" opacity="0.94" d=" M 14.45 22.87 C 21.91 18.53 29.05 13.67 36.54 9.38 C 33.74 15.91 26.14 17.75 20.74 21.54 C 19.18 22.45 17.62 23.36 16.05 24.27 C 15.54 33.30 15.78 42.34 16.36 51.35 C 15.39 58.62 16.35 65.92 16.27 73.20 L 15.86 73.94 L 15.50 74.66 C 14.90 57.40 15.13 40.12 14.45 22.87 Z" />
<path fill="#c3cdd1" opacity="0.98" d=" M 48.95 9.90 C 53.75 12.31 58.06 15.54 62.70 18.23 C 63.73 18.79 64.78 19.33 65.84 19.86 C 65.23 20.60 64.63 21.35 64.02 22.09 C 60.20 19.37 56.07 17.15 52.05 14.76 C 50.93 13.20 49.93 11.55 48.95 9.90 Z" />
<path fill="#767bb0" opacity="0.82" d=" M 63.15 11.95 C 64.89 12.46 66.68 12.76 68.48 13.00 L 69.35 13.13 C 72.17 15.66 75.22 17.91 78.10 20.36 C 74.19 18.75 69.89 19.09 65.84 19.86 C 64.78 19.33 63.73 18.79 62.70 18.23 C 62.84 16.13 62.99 14.04 63.15 11.95 Z" />
<path fill="#393b91" opacity="1.00" d=" M 69.35 13.13 C 74.33 15.95 79.66 18.31 84.03 22.07 C 85.88 23.42 85.28 25.97 85.51 27.94 C 85.38 42.65 85.41 57.36 85.50 72.07 C 85.28 74.06 85.77 76.57 84.03 78.01 C 81.14 80.67 77.40 82.09 73.97 83.90 C 76.49 81.93 78.79 79.70 81.28 77.70 C 82.25 77.39 83.23 77.12 84.22 76.88 C 84.19 73.79 84.20 70.70 84.08 67.61 C 84.15 65.29 82.86 63.29 81.98 61.24 C 82.87 56.21 83.32 51.09 83.19 45.98 C 83.02 38.83 83.39 31.70 83.82 24.57 C 82.51 24.71 81.21 24.85 79.91 24.99 C 79.43 23.40 78.95 21.79 78.10 20.36 C 75.22 17.91 72.17 15.66 69.35 13.13 Z" />
<path fill="#acbaae" opacity="0.90" d=" M 35.98 16.72 C 38.65 15.80 41.37 15.04 44.09 14.24 C 42.28 16.10 40.52 18.00 38.85 19.97 C 40.26 19.79 41.67 19.61 43.08 19.34 C 40.31 21.10 37.65 23.03 34.87 24.77 C 31.84 26.62 28.56 28.05 25.12 28.94 C 29.67 25.53 33.93 21.74 38.17 17.96 C 31.69 20.90 24.79 23.94 20.55 29.95 C 20.07 28.91 19.59 27.86 19.11 26.82 C 16.26 34.80 19.45 43.42 16.36 51.35 C 15.78 42.34 15.54 33.30 16.05 24.27 C 17.62 23.36 19.18 22.45 20.74 21.54 C 21.08 22.38 21.42 23.22 21.76 24.06 C 26.38 21.39 30.98 18.64 35.98 16.72 Z" />
<path fill="#5a636f" opacity="0.85" d=" M 52.05 14.76 C 56.07 17.15 60.20 19.37 64.02 22.09 C 66.51 23.75 69.14 25.19 71.71 26.72 C 71.63 27.27 71.46 28.36 71.38 28.91 C 70.41 29.96 69.44 31.02 68.46 32.08 C 67.42 31.90 66.38 31.75 65.34 31.60 C 57.14 29.79 48.85 28.27 40.94 25.35 C 38.85 30.59 37.35 36.24 33.70 40.67 C 30.36 44.75 26.66 48.52 23.54 52.78 C 23.31 53.12 22.85 53.79 22.62 54.12 C 22.22 47.38 21.79 40.58 23.09 33.89 C 26.01 33.03 29.17 32.51 31.68 30.69 C 33.19 29.00 33.92 26.80 34.87 24.77 C 37.65 23.03 40.31 21.10 43.08 19.34 C 46.15 17.52 49.65 16.68 53.19 16.37 C 52.90 15.97 52.34 15.17 52.05 14.76 Z" />
<path fill="#ccdddf" opacity="1.00" d=" M 20.55 29.95 C 24.79 23.94 31.69 20.90 38.17 17.96 C 33.93 21.74 29.67 25.53 25.12 28.94 C 23.61 29.36 22.08 29.65 20.55 29.95 Z" />
<path fill="#37438c" opacity="0.80" d=" M 65.84 19.86 C 69.89 19.09 74.19 18.75 78.10 20.36 C 78.95 21.79 79.43 23.40 79.91 24.99 C 81.21 24.85 82.51 24.71 83.82 24.57 C 83.39 31.70 83.02 38.83 83.19 45.98 C 82.61 45.94 81.44 45.85 80.85 45.81 C 81.01 43.24 81.06 40.67 81.09 38.10 C 80.01 38.97 78.93 39.85 77.86 40.74 C 76.97 36.07 77.36 31.02 80.68 27.36 C 74.70 27.69 70.76 22.39 65.84 19.86 Z" />
<path fill="#7c8eb4" opacity="0.90" d=" M 65.84 19.86 C 70.76 22.39 74.70 27.69 80.68 27.36 C 77.36 31.02 76.97 36.07 77.86 40.74 C 79.51 48.15 79.12 55.74 78.48 63.25 C 78.41 56.29 78.65 49.28 77.59 42.37 C 76.75 47.61 76.20 52.88 76.28 58.20 C 76.40 53.59 76.22 48.98 75.87 44.39 C 76.11 39.98 76.83 35.47 75.84 31.10 C 75.43 28.96 73.32 27.90 71.71 26.72 C 69.14 25.19 66.51 23.75 64.02 22.09 C 64.63 21.35 65.23 20.60 65.84 19.86 Z" />
<path fill="#c4b495" opacity="1.00" d=" M 13.99 52.01 C 14.12 42.29 13.44 32.55 14.45 22.87 C 15.13 40.12 14.90 57.40 15.50 74.66 L 15.18 75.48 C 15.03 75.87 14.72 76.66 14.56 77.06 C 13.45 68.74 14.23 60.36 13.99 52.01 Z" />
<path fill="#67858d" opacity="0.93" d=" M 25.12 28.94 C 28.56 28.05 31.84 26.62 34.87 24.77 C 33.92 26.80 33.19 29.00 31.68 30.69 C 29.17 32.51 26.01 33.03 23.09 33.89 C 21.79 40.58 22.22 47.38 22.62 54.12 C 22.30 56.18 21.99 58.23 21.71 60.29 C 21.28 55.14 20.35 50.04 19.62 44.92 C 18.51 50.73 17.74 56.62 17.99 62.54 C 17.96 66.13 18.69 70.16 16.27 73.20 C 16.35 65.92 15.39 58.62 16.36 51.35 C 19.45 43.42 16.26 34.80 19.11 26.82 C 19.59 27.86 20.07 28.91 20.55 29.95 C 22.08 29.65 23.61 29.36 25.12 28.94 Z" />
<path fill="#6c7e7f" opacity="0.85" d=" M 40.94 25.35 C 48.85 28.27 57.14 29.79 65.34 31.60 C 63.29 33.83 61.11 35.93 59.03 38.13 C 60.23 36.00 60.72 33.57 61.61 31.32 C 60.92 31.89 60.22 32.45 59.55 33.04 C 53.01 32.61 45.51 31.59 40.05 36.06 C 36.08 38.94 35.08 43.96 34.13 48.45 C 30.83 49.59 27.65 51.04 24.47 52.50 L 23.54 52.78 C 26.66 48.52 30.36 44.75 33.70 40.67 C 37.35 36.24 38.85 30.59 40.94 25.35 Z" />
<path fill="#49538e" opacity="0.87" d=" M 71.71 26.72 C 73.32 27.90 75.43 28.96 75.84 31.10 C 76.83 35.47 76.11 39.98 75.87 44.39 L 75.69 43.58 C 75.53 42.96 75.22 41.72 75.07 41.10 C 72.87 42.43 70.68 43.77 68.51 45.12 C 68.82 42.82 69.35 40.56 69.90 38.31 C 68.83 38.94 67.77 39.58 66.67 40.16 C 65.70 40.45 64.72 40.70 63.74 40.95 C 66.70 37.23 69.93 33.52 71.38 28.91 C 71.46 28.36 71.63 27.27 71.71 26.72 Z" />
<path fill="#cdccb9" opacity="0.91" d=" M 68.46 32.08 C 69.44 31.02 70.41 29.96 71.38 28.91 C 69.93 33.52 66.70 37.23 63.74 40.95 C 62.84 41.82 61.91 42.65 60.96 43.46 C 59.49 44.70 58.01 45.92 56.53 47.15 C 58.71 49.49 60.85 51.86 63.14 54.09 C 59.86 52.02 56.73 49.69 54.02 46.89 C 58.93 42.05 63.81 37.17 68.46 32.08 Z" />
<path fill="#cdccb9" opacity="0.91" d=" M 59.55 33.04 C 60.22 32.45 60.92 31.89 61.61 31.32 C 60.72 33.57 60.23 36.00 59.03 38.13 C 58.78 38.41 58.29 38.96 58.04 39.24 C 56.87 39.20 55.70 39.15 54.54 39.11 L 54.48 38.28 C 56.11 36.49 57.69 34.62 59.55 33.04 Z" />
<path fill="#05003f" opacity="0.94" d=" M 65.34 31.60 C 66.38 31.75 67.42 31.90 68.46 32.08 C 63.81 37.17 58.93 42.05 54.02 46.89 C 56.73 49.69 59.86 52.02 63.14 54.09 L 63.87 54.61 C 64.04 51.88 64.64 49.08 64.03 46.37 C 63.09 45.32 62.01 44.41 60.96 43.46 C 61.91 42.65 62.84 41.82 63.74 40.95 C 64.72 40.70 65.70 40.45 66.67 40.16 C 66.23 46.52 67.87 53.96 63.19 59.16 C 60.29 63.10 55.32 64.17 50.76 64.82 C 49.68 67.81 48.56 70.80 47.12 73.63 C 46.76 70.13 46.21 66.64 45.49 63.19 C 43.73 55.94 36.14 52.59 29.24 52.84 C 27.65 52.71 26.06 52.60 24.47 52.50 C 27.65 51.04 30.83 49.59 34.13 48.45 C 35.08 43.96 36.08 38.94 40.05 36.06 C 45.51 31.59 53.01 32.61 59.55 33.04 C 57.69 34.62 56.11 36.49 54.48 38.28 C 54.40 37.76 54.25 36.71 54.18 36.18 L 53.95 34.98 C 50.68 34.87 47.41 35.15 44.21 35.80 C 46.62 39.03 49.20 42.17 52.14 44.94 C 52.41 44.72 52.96 44.29 53.23 44.07 C 54.95 42.58 56.53 40.94 58.04 39.24 C 58.29 38.96 58.78 38.41 59.03 38.13 C 61.11 35.93 63.29 33.83 65.34 31.60 M 41.21 36.91 C 38.38 40.42 36.17 44.90 37.54 49.50 C 39.12 51.34 41.13 52.75 43.00 54.27 C 45.89 51.89 48.57 49.23 50.42 45.94 C 49.38 45.18 48.35 44.41 47.30 43.67 C 45.49 41.23 43.44 38.97 41.21 36.91 M 44.70 56.11 C 46.31 57.89 47.89 59.70 49.43 61.54 L 49.66 62.22 C 54.35 62.52 58.87 61.15 62.34 57.92 C 59.71 55.18 56.99 52.52 54.10 50.04 C 53.59 49.74 52.57 49.13 52.07 48.83 C 49.57 51.22 47.12 53.64 44.70 56.11 Z" />
<path fill="#b0bdc3" opacity="0.95" d=" M 44.21 35.80 C 47.41 35.15 50.68 34.87 53.95 34.98 L 54.18 36.18 C 51.84 36.59 49.50 36.97 47.15 37.33 C 49.17 39.58 51.20 41.83 53.23 44.07 C 52.96 44.29 52.41 44.72 52.14 44.94 C 49.20 42.17 46.62 39.03 44.21 35.80 Z" />
<path fill="#727884" opacity="0.94" d=" M 47.15 37.33 C 49.50 36.97 51.84 36.59 54.18 36.18 C 54.25 36.71 54.40 37.76 54.48 38.28 L 54.54 39.11 C 55.70 39.15 56.87 39.20 58.04 39.24 C 56.53 40.94 54.95 42.58 53.23 44.07 C 51.20 41.83 49.17 39.58 47.15 37.33 Z" />
<path fill="#cdccb9" opacity="0.91" d=" M 41.21 36.91 C 43.44 38.97 45.49 41.23 47.30 43.67 C 45.33 42.30 43.33 40.95 41.35 39.59 C 40.23 42.52 38.23 45.50 39.01 48.76 C 40.21 50.22 41.54 51.57 42.89 52.90 C 45.35 50.53 47.83 48.17 50.42 45.94 C 48.57 49.23 45.89 51.89 43.00 54.27 C 41.13 52.75 39.12 51.34 37.54 49.50 C 36.17 44.90 38.38 40.42 41.21 36.91 Z" />
<path fill="#a6b6c7" opacity="0.97" d=" M 66.67 40.16 C 67.77 39.58 68.83 38.94 69.90 38.31 C 69.35 40.56 68.82 42.82 68.51 45.12 C 68.27 48.56 68.53 52.09 67.49 55.42 C 66.51 58.52 64.44 61.11 62.22 63.43 C 59.08 64.90 55.74 65.88 52.43 66.88 C 51.58 69.22 50.74 71.57 49.91 73.93 C 48.68 74.40 47.47 74.89 46.25 75.38 C 46.47 74.94 46.90 74.07 47.12 73.63 C 48.56 70.80 49.68 67.81 50.76 64.82 C 55.32 64.17 60.29 63.10 63.19 59.16 C 67.87 53.96 66.23 46.52 66.67 40.16 Z" />
<path fill="#4e58a0" opacity="0.80" d=" M 77.86 40.74 C 78.93 39.85 80.01 38.97 81.09 38.10 C 81.06 40.67 81.01 43.24 80.85 45.81 C 80.70 50.96 78.98 56.57 81.98 61.24 C 82.86 63.29 84.15 65.29 84.08 67.61 C 83.63 70.04 83.02 72.43 82.41 74.82 C 79.17 74.81 75.79 75.15 73.11 77.16 C 69.63 79.63 65.73 81.34 61.60 82.40 C 63.04 81.14 64.39 79.80 65.81 78.53 C 69.83 76.56 74.35 74.94 77.36 71.49 C 78.33 68.86 78.31 66.01 78.48 63.25 C 79.12 55.74 79.51 48.15 77.86 40.74 Z" />
<path fill="#707e91" opacity="0.95" d=" M 39.01 48.76 C 38.23 45.50 40.23 42.52 41.35 39.59 C 43.33 40.95 45.33 42.30 47.30 43.67 C 48.35 44.41 49.38 45.18 50.42 45.94 C 47.83 48.17 45.35 50.53 42.89 52.90 C 41.54 51.57 40.21 50.22 39.01 48.76 Z" />
<path fill="#4357ad" opacity="0.93" d=" M 68.51 45.12 C 70.68 43.77 72.87 42.43 75.07 41.10 C 75.22 41.72 75.53 42.96 75.69 43.58 C 75.42 50.38 75.47 58.04 70.26 63.19 C 68.29 64.82 66.23 66.35 64.40 68.15 C 63.67 66.58 62.94 65.00 62.22 63.43 C 64.44 61.11 66.51 58.52 67.49 55.42 C 68.53 52.09 68.27 48.56 68.51 45.12 Z" />
<path fill="#b9c6d3" opacity="0.96" d=" M 76.28 58.20 C 76.20 52.88 76.75 47.61 77.59 42.37 C 78.65 49.28 78.41 56.29 78.48 63.25 C 78.31 66.01 78.33 68.86 77.36 71.49 C 74.35 74.94 69.83 76.56 65.81 78.53 C 65.32 78.62 64.36 78.80 63.87 78.89 C 66.40 77.15 68.89 75.35 71.48 73.70 C 72.76 72.69 74.47 71.96 75.23 70.44 C 75.91 67.98 75.90 65.39 76.09 62.86 C 76.19 61.31 76.24 59.75 76.28 58.20 Z" />
<path fill="#586699" opacity="0.95" d=" M 56.53 47.15 C 58.01 45.92 59.49 44.70 60.96 43.46 C 62.01 44.41 63.09 45.32 64.03 46.37 C 64.64 49.08 64.04 51.88 63.87 54.61 L 63.14 54.09 C 60.85 51.86 58.71 49.49 56.53 47.15 Z" />
<path fill="#0b298d" opacity="0.87" d=" M 75.69 43.58 L 75.87 44.39 C 76.22 48.98 76.40 53.59 76.28 58.20 C 76.24 59.75 76.19 61.31 76.09 62.86 C 75.44 64.20 74.82 65.60 73.87 66.76 C 72.27 66.97 70.66 66.95 69.06 66.97 C 69.44 65.71 69.81 64.44 70.26 63.19 C 75.47 58.04 75.42 50.38 75.69 43.58 Z" />
<path fill="#284566" opacity="0.66" d=" M 17.99 62.54 C 17.74 56.62 18.51 50.73 19.62 44.92 C 20.35 50.04 21.28 55.14 21.71 60.29 C 21.31 64.09 20.51 67.82 19.99 71.59 C 18.60 72.36 17.19 73.08 15.86 73.94 L 16.27 73.20 C 18.69 70.16 17.96 66.13 17.99 62.54 Z" />
<path fill="#0825d0" opacity="0.82" d=" M 80.85 45.81 C 81.44 45.85 82.61 45.94 83.19 45.98 C 83.32 51.09 82.87 56.21 81.98 61.24 C 78.98 56.57 80.70 50.96 80.85 45.81 Z" />
<path fill="#acbfcf" opacity="1.00" d=" M 44.70 56.11 C 47.12 53.64 49.57 51.22 52.07 48.83 C 52.57 49.13 53.59 49.74 54.10 50.04 C 51.92 52.13 49.75 54.24 47.60 56.36 C 48.22 58.08 48.83 59.81 49.43 61.54 C 47.89 59.70 46.31 57.89 44.70 56.11 Z" />
<path fill="#5871b0" opacity="0.96" d=" M 54.10 50.04 C 56.99 52.52 59.71 55.18 62.34 57.92 C 58.87 61.15 54.35 62.52 49.66 62.22 L 49.43 61.54 C 48.83 59.81 48.22 58.08 47.60 56.36 C 49.75 54.24 51.92 52.13 54.10 50.04 Z" />
<path fill="#557cb0" opacity="0.83" d=" M 23.54 52.78 L 24.47 52.50 C 26.06 52.60 27.65 52.71 29.24 52.84 C 28.06 53.32 26.90 53.84 25.74 54.35 C 30.49 54.71 35.61 54.76 39.64 57.67 C 39.27 57.87 38.52 58.26 38.15 58.46 C 36.72 58.16 35.31 57.78 33.89 57.40 C 31.13 61.54 27.78 65.42 23.13 67.47 C 22.90 67.73 22.45 68.25 22.22 68.51 C 26.41 70.81 30.68 73.28 33.61 77.17 C 29.74 74.85 25.77 72.68 22.08 70.07 C 21.65 70.61 20.80 71.70 20.37 72.24 L 19.99 71.59 C 20.51 67.82 21.31 64.09 21.71 60.29 C 21.99 58.23 22.30 56.18 22.62 54.12 C 22.85 53.79 23.31 53.12 23.54 52.78 Z" />
<path fill="#9eb6cc" opacity="0.96" d=" M 29.24 52.84 C 36.14 52.59 43.73 55.94 45.49 63.19 C 44.52 62.35 43.59 61.48 42.69 60.59 C 40.12 63.48 37.06 65.92 33.48 67.45 C 33.66 66.98 34.01 66.05 34.18 65.58 C 36.40 63.50 38.70 61.48 40.79 59.26 C 40.50 58.86 39.92 58.07 39.64 57.67 C 35.61 54.76 30.49 54.71 25.74 54.35 C 26.90 53.84 28.06 53.32 29.24 52.84 Z" />
<path fill="#659cb0" opacity="0.96" d=" M 33.89 57.40 C 35.31 57.78 36.72 58.16 38.15 58.46 C 36.16 60.41 35.00 62.96 34.18 65.58 C 34.01 66.05 33.66 66.98 33.48 67.45 C 37.06 65.92 40.12 63.48 42.69 60.59 C 43.59 61.48 44.52 62.35 45.49 63.19 C 46.21 66.64 46.76 70.13 47.12 73.63 C 46.90 74.07 46.47 74.94 46.25 75.38 C 44.15 76.21 42.06 77.05 39.97 77.91 C 38.28 77.15 36.55 76.49 34.82 75.83 C 38.75 79.25 43.26 81.92 47.19 85.35 C 47.84 85.87 48.49 86.39 49.14 86.90 C 49.11 87.77 49.07 89.51 49.04 90.38 C 44.42 86.07 38.78 83.12 33.64 79.50 C 34.18 79.68 35.26 80.04 35.80 80.22 C 35.11 79.18 34.42 78.13 33.61 77.17 C 30.68 73.28 26.41 70.81 22.22 68.51 C 22.45 68.25 22.90 67.73 23.13 67.47 C 27.78 65.42 31.13 61.54 33.89 57.40 Z" />
<path fill="#080f45" opacity="0.96" d=" M 39.64 57.67 C 39.92 58.07 40.50 58.86 40.79 59.26 C 38.70 61.48 36.40 63.50 34.18 65.58 C 35.00 62.96 36.16 60.41 38.15 58.46 C 38.52 58.26 39.27 57.87 39.64 57.67 Z" />
<path fill="#66949e" opacity="0.94" d=" M 52.43 66.88 C 55.74 65.88 59.08 64.90 62.22 63.43 C 62.94 65.00 63.67 66.58 64.40 68.15 C 63.15 69.69 62.03 71.32 60.89 72.93 C 57.41 74.43 53.58 75.06 49.91 73.93 C 50.74 71.57 51.58 69.22 52.43 66.88 Z" />
<path fill="#3f5781" opacity="0.87" d=" M 64.40 68.15 C 66.23 66.35 68.29 64.82 70.26 63.19 C 69.81 64.44 69.44 65.71 69.06 66.97 C 70.66 66.95 72.27 66.97 73.87 66.76 C 74.82 65.60 75.44 64.20 76.09 62.86 C 75.90 65.39 75.91 67.98 75.23 70.44 C 74.47 71.96 72.76 72.69 71.48 73.70 C 71.50 72.95 71.56 71.46 71.58 70.72 C 66.81 73.25 61.97 75.65 57.14 78.08 C 58.40 76.37 59.66 74.66 60.89 72.93 C 62.03 71.32 63.15 69.69 64.40 68.15 Z" />
<path fill="#7c83a8" opacity="0.93" d=" M 82.41 74.82 C 83.02 72.43 83.63 70.04 84.08 67.61 C 84.20 70.70 84.19 73.79 84.22 76.88 C 83.23 77.12 82.25 77.39 81.28 77.70 C 74.07 79.82 68.37 84.89 61.83 88.38 C 62.38 86.90 62.94 85.42 63.50 83.94 C 58.68 86.71 53.86 89.48 48.99 92.15 L 49.01 91.25 L 49.04 90.38 C 52.82 87.13 57.14 84.57 61.60 82.40 C 65.73 81.34 69.63 79.63 73.11 77.16 C 75.79 75.15 79.17 74.81 82.41 74.82 Z" />
<path fill="#9fc6cc" opacity="1.00" d=" M 20.37 72.24 C 20.80 71.70 21.65 70.61 22.08 70.07 C 25.77 72.68 29.74 74.85 33.61 77.17 C 34.42 78.13 35.11 79.18 35.80 80.22 C 35.26 80.04 34.18 79.68 33.64 79.50 C 29.60 76.88 25.35 74.64 20.88 72.84 L 20.37 72.24 Z" />
<path fill="#859c87" opacity="0.93" d=" M 57.14 78.08 C 61.97 75.65 66.81 73.25 71.58 70.72 C 71.56 71.46 71.50 72.95 71.48 73.70 C 68.89 75.35 66.40 77.15 63.87 78.89 C 62.94 79.09 62.01 79.32 61.09 79.57 C 57.14 80.56 53.76 82.92 50.11 84.61 C 46.87 82.18 43.62 79.69 39.97 77.91 C 42.06 77.05 44.15 76.21 46.25 75.38 C 47.47 74.89 48.68 74.40 49.91 73.93 C 53.58 75.06 57.41 74.43 60.89 72.93 C 59.66 74.66 58.40 76.37 57.14 78.08 Z" />
<path fill="#8ea197" opacity="0.81" d=" M 15.86 73.94 C 17.19 73.08 18.60 72.36 19.99 71.59 L 20.37 72.24 L 20.88 72.84 C 22.68 75.03 24.56 77.15 26.48 79.24 C 26.00 79.86 25.52 80.48 25.04 81.10 C 21.77 79.20 18.51 77.28 15.18 75.48 L 15.50 74.66 L 15.86 73.94 Z" />
<path fill="#627ba7" opacity="0.80" d=" M 20.88 72.84 C 25.35 74.64 29.60 76.88 33.64 79.50 C 34.24 80.90 33.72 82.80 35.18 83.75 C 39.15 87.28 44.21 89.16 49.01 91.25 L 48.99 92.15 C 48.95 93.49 48.92 94.83 48.90 96.17 C 45.78 94.23 42.67 92.26 39.50 90.39 C 34.96 86.88 30.04 83.90 25.04 81.10 C 25.52 80.48 26.00 79.86 26.48 79.24 C 24.56 77.15 22.68 75.03 20.88 72.84 Z" />
<path fill="#dde1d6" opacity="1.00" d=" M 15.18 75.48 C 18.51 77.28 21.77 79.20 25.04 81.10 C 30.04 83.90 34.96 86.88 39.50 90.39 C 39.04 90.56 38.10 90.91 37.63 91.08 C 29.84 86.58 22.23 81.77 14.56 77.06 C 14.72 76.66 15.03 75.87 15.18 75.48 Z" />
<path fill="#b3baa5" opacity="0.94" d=" M 34.82 75.83 C 36.55 76.49 38.28 77.15 39.97 77.91 C 43.62 79.69 46.87 82.18 50.11 84.61 C 49.38 84.79 47.92 85.16 47.19 85.35 C 43.26 81.92 38.75 79.25 34.82 75.83 Z" />
<path fill="#c5cbd5" opacity="1.00" d=" M 61.83 88.38 C 68.37 84.89 74.07 79.82 81.28 77.70 C 78.79 79.70 76.49 81.93 73.97 83.90 C 70.25 85.81 66.55 87.79 63.06 90.09 C 58.44 92.98 54.10 96.57 48.74 97.98 C 52.41 93.92 57.20 91.18 61.83 88.38 Z" />
<path fill="#05003f" opacity="0.94" d=" M 50.11 84.61 C 53.76 82.92 57.14 80.56 61.09 79.57 C 57.00 81.85 53.19 84.57 49.14 86.90 C 48.49 86.39 47.84 85.87 47.19 85.35 C 47.92 85.16 49.38 84.79 50.11 84.61 Z" />
<path fill="#ccd9d7" opacity="1.00" d=" M 61.09 79.57 C 62.01 79.32 62.94 79.09 63.87 78.89 C 64.36 78.80 65.32 78.62 65.81 78.53 C 64.39 79.80 63.04 81.14 61.60 82.40 C 57.14 84.57 52.82 87.13 49.04 90.38 C 49.07 89.51 49.11 87.77 49.14 86.90 C 53.19 84.57 57.00 81.85 61.09 79.57 Z" />
<path fill="#465780" opacity="0.89" d=" M 35.18 83.75 C 33.72 82.80 34.24 80.90 33.64 79.50 C 38.78 83.12 44.42 86.07 49.04 90.38 L 49.01 91.25 C 44.21 89.16 39.15 87.28 35.18 83.75 Z" />
<path fill="#b5b9a3" opacity="0.93" d=" M 48.99 92.15 C 53.86 89.48 58.68 86.71 63.50 83.94 C 62.94 85.42 62.38 86.90 61.83 88.38 C 57.20 91.18 52.41 93.92 48.74 97.98 C 44.79 96.10 41.23 93.54 37.63 91.08 C 38.10 90.91 39.04 90.56 39.50 90.39 C 42.67 92.26 45.78 94.23 48.90 96.17 C 48.92 94.83 48.95 93.49 48.99 92.15 Z" />
</svg>
