<?xml version="1.0" encoding="UTF-8" ?>
<!DOCTYPE svg PUBLIC "-//W3C//DTD SVG 1.1//EN" "http://www.w3.org/Graphics/SVG/1.1/DTD/svg11.dtd">
<svg width="100pt" height="100pt" viewBox="0 0 100 100" version="1.1" xmlns="http://www.w3.org/2000/svg">
<path fill="#06070a" opacity="0.93" d=" M 38.78 25.97 C 48.20 23.71 58.01 24.70 67.36 26.76 C 70.70 27.65 74.30 28.83 76.51 31.65 C 77.93 33.39 77.67 35.79 76.72 37.67 C 71.62 48.44 65.26 58.58 58.20 68.17 C 56.03 70.85 53.62 74.08 49.97 74.58 C 46.35 74.13 43.77 71.12 41.46 68.57 C 35.41 61.12 29.94 53.20 25.09 44.92 C 23.66 42.38 22.23 39.76 21.70 36.87 C 21.24 34.35 22.48 31.97 23.20 29.62 C 23.63 41.78 30.27 52.73 38.55 61.25 C 41.60 65.61 43.96 72.19 49.85 73.04 C 54.05 70.23 56.83 65.85 60.09 62.09 C 64.50 56.86 67.78 50.84 71.13 44.91 C 73.88 41.51 75.56 37.19 74.22 32.84 C 74.12 32.46 73.92 31.69 73.82 31.31 C 63.26 25.37 50.54 25.54 38.78 25.97 Z" />
<path fill="#465061" opacity="1.00" d=" M 33.89 26.84 C 35.46 26.27 37.13 26.08 38.78 25.97 C 50.54 25.54 63.26 25.37 73.82 31.31 C 73.92 31.69 74.12 32.46 74.22 32.84 C 69.58 35.05 64.43 34.71 59.45 34.60 C 59.32 34.95 59.05 35.64 58.92 35.99 C 57.76 33.69 56.22 31.61 54.58 29.65 C 52.21 33.25 49.98 36.94 47.95 40.75 C 45.98 40.39 44.01 39.98 42.04 39.62 C 41.89 41.15 41.74 42.67 41.65 44.21 C 41.39 41.11 41.29 37.99 41.45 34.88 C 41.67 34.20 41.91 33.52 42.14 32.85 C 40.16 32.69 38.18 32.41 36.20 32.24 C 37.02 31.47 37.82 30.69 38.63 29.90 C 35.35 30.47 32.06 30.98 28.75 31.37 C 30.42 29.81 32.11 28.27 33.89 26.84 M 55.98 29.02 C 57.60 30.48 59.14 32.11 61.14 33.06 C 63.52 33.55 65.95 32.98 68.33 32.74 C 64.82 29.93 60.37 29.07 55.98 29.02 Z" />
<path fill="#333744" opacity="1.00" d=" M 23.20 29.62 C 26.66 28.35 30.23 27.32 33.89 26.84 C 32.11 28.27 30.42 29.81 28.75 31.37 C 32.06 30.98 35.35 30.47 38.63 29.90 C 37.82 30.69 37.02 31.47 36.20 32.24 C 38.18 32.41 40.16 32.69 42.14 32.85 C 41.91 33.52 41.67 34.20 41.45 34.88 C 40.19 38.10 39.50 41.54 39.67 45.01 C 39.33 42.69 39.10 40.35 38.82 38.02 C 37.26 40.76 34.90 43.48 35.24 46.84 C 35.54 51.79 37.13 56.54 38.55 61.25 C 30.27 52.73 23.63 41.78 23.20 29.62 Z" />
<path fill="#afb9b8" opacity="1.00" d=" M 55.98 29.02 C 60.37 29.07 64.82 29.93 68.33 32.74 C 65.95 32.98 63.52 33.55 61.14 33.06 C 59.14 32.11 57.60 30.48 55.98 29.02 Z" />
<path fill="#ffe4b5" opacity="1.00" d=" M 54.58 29.65 C 56.22 31.61 57.76 33.69 58.92 35.99 C 59.33 41.01 59.87 46.07 59.29 51.11 C 57.75 54.88 54.75 57.77 52.06 60.74 C 48.84 59.19 45.14 58.11 42.71 55.34 C 40.71 52.29 40.30 48.52 39.67 45.01 C 39.50 41.54 40.19 38.10 41.45 34.88 C 41.29 37.99 41.39 41.11 41.65 44.21 C 41.93 47.18 42.44 50.32 44.20 52.81 C 46.02 54.83 48.63 55.85 50.97 57.13 C 52.94 53.61 55.37 50.05 55.60 45.89 C 55.62 42.69 54.99 39.53 54.61 36.36 C 52.42 37.87 50.22 39.36 47.95 40.75 C 49.98 36.94 52.21 33.25 54.58 29.65 Z" />
<path fill="#333642" opacity="1.00" d=" M 59.45 34.60 C 64.43 34.71 69.58 35.05 74.22 32.84 C 75.56 37.19 73.88 41.51 71.13 44.91 C 66.83 48.14 63.49 52.39 59.95 56.39 C 60.78 53.17 61.88 50.01 62.39 46.71 C 62.82 43.96 61.58 41.34 60.80 38.77 C 60.45 42.90 60.28 47.07 59.29 51.11 C 59.87 46.07 59.33 41.01 58.92 35.99 C 59.05 35.64 59.32 34.95 59.45 34.60 Z" />
<path fill="#13131e" opacity="1.00" d=" M 47.95 40.75 C 50.22 39.36 52.42 37.87 54.61 36.36 C 54.99 39.53 55.62 42.69 55.60 45.89 C 55.37 50.05 52.94 53.61 50.97 57.13 C 48.63 55.85 46.02 54.83 44.20 52.81 C 42.44 50.32 41.93 47.18 41.65 44.21 C 41.74 42.67 41.89 41.15 42.04 39.62 C 44.01 39.98 45.98 40.39 47.95 40.75 Z" />
<path fill="#13111e" opacity="1.00" d=" M 35.24 46.84 C 34.90 43.48 37.26 40.76 38.82 38.02 C 39.10 40.35 39.33 42.69 39.67 45.01 C 40.30 48.52 40.71 52.29 42.71 55.34 C 45.14 58.11 48.84 59.19 52.06 60.74 C 54.75 57.77 57.75 54.88 59.29 51.11 C 60.28 47.07 60.45 42.90 60.80 38.77 C 61.58 41.34 62.82 43.96 62.39 46.71 C 61.88 50.01 60.78 53.17 59.95 56.39 C 63.49 52.39 66.83 48.14 71.13 44.91 C 67.78 50.84 64.50 56.86 60.09 62.09 C 56.83 65.85 54.05 70.23 49.85 73.04 C 43.96 72.19 41.60 65.61 38.55 61.25 C 37.13 56.54 35.54 51.79 35.24 46.84 Z" />
</svg>
