<?xml version="1.0" encoding="UTF-8" ?>
<!DOCTYPE svg PUBLIC "-//W3C//DTD SVG 1.1//EN" "http://www.w3.org/Graphics/SVG/1.1/DTD/svg11.dtd">
<svg width="100pt" height="100pt" viewBox="0 0 100 100" version="1.1" xmlns="http://www.w3.org/2000/svg">
<path fill="#050037" opacity="0.77" d=" M 48.38 0.00 L 50.50 0.00 C 56.70 4.51 63.58 8.04 69.36 13.11 L 68.48 13.00 C 61.72 9.65 56.23 3.95 49.00 1.56 C 48.56 1.79 47.70 2.27 47.27 2.50 C 45.55 3.48 43.86 4.49 42.21 5.57 C 40.31 6.83 38.43 8.09 36.60 9.43 C 29.02 13.58 21.93 18.53 14.46 22.85 C 13.33 34.20 14.15 45.62 14.02 57.00 C 14.28 63.66 13.16 70.45 14.78 77.00 C 22.16 82.06 29.99 86.50 37.66 91.12 C 41.24 93.57 44.79 96.12 48.73 97.98 C 52.95 96.99 56.49 94.39 60.05 92.07 C 64.52 89.06 69.15 86.30 73.98 83.91 C 66.54 90.20 57.68 94.40 49.76 100.00 L 48.48 100.00 C 37.13 91.93 25.03 85.00 13.20 77.68 C 12.89 59.24 12.91 40.78 13.22 22.34 C 25.05 15.07 36.82 7.70 48.38 0.00 Z" />
<path fill="#bec4b3" opacity="0.89" d=" M 49.00 1.56 C 56.23 3.95 61.72 9.65 68.48 13.00 C 66.67 12.84 64.85 12.60 63.13 12.00 C 60.01 10.49 56.59 10.14 53.21 9.74 C 49.92 9.20 49.54 5.27 49.04 2.62 L 49.00 1.56 Z" />
<path fill="#3c4875" opacity="0.87" d=" M 47.27 2.50 C 47.70 2.27 48.56 1.79 49.00 1.56 L 49.04 2.62 C 49.06 5.09 48.95 7.56 48.83 10.03 C 46.98 11.01 45.13 12.00 43.30 13.00 C 44.85 9.59 46.28 6.12 47.27 2.50 Z" />
<path fill="#737a8d" opacity="0.87" d=" M 42.21 5.57 C 43.86 4.49 45.55 3.48 47.27 2.50 C 46.28 6.12 44.85 9.59 43.30 13.00 C 45.13 12.00 46.98 11.01 48.83 10.03 C 50.53 13.09 53.12 15.49 56.15 17.22 C 51.66 16.43 46.97 16.79 43.08 19.38 C 41.68 19.62 40.27 19.78 38.85 19.96 C 40.55 17.98 42.29 16.05 44.10 14.18 C 41.43 15.17 38.67 15.84 35.96 16.70 C 38.20 13.08 39.69 9.02 42.21 5.57 Z" />
<path fill="#92a0a0" opacity="0.88" d=" M 49.04 2.62 C 49.54 5.27 49.92 9.20 53.21 9.74 C 56.59 10.14 60.01 10.49 63.13 12.00 C 62.98 14.08 62.87 16.17 62.73 18.25 C 57.93 15.79 53.62 12.51 48.83 10.03 C 48.95 7.56 49.06 5.09 49.04 2.62 Z" />
<path fill="#cdccb9" opacity="0.91" d=" M 36.60 9.43 C 38.43 8.09 40.31 6.83 42.21 5.57 C 39.69 9.02 38.20 13.08 35.96 16.70 C 30.93 18.57 26.40 21.49 21.72 24.06 C 21.41 23.21 21.09 22.37 20.76 21.53 C 26.21 17.81 33.58 15.82 36.60 9.43 Z" />
<path fill="#dcdcc8" opacity="0.94" d=" M 14.46 22.85 C 21.93 18.53 29.02 13.58 36.60 9.43 C 33.58 15.82 26.21 17.81 20.76 21.53 C 19.18 22.44 17.62 23.36 16.05 24.27 C 15.52 33.21 15.99 42.16 15.96 51.11 C 15.71 58.51 16.17 65.90 16.37 73.30 L 15.85 73.98 L 15.34 74.61 C 15.23 57.36 14.96 40.10 14.46 22.85 Z" />
<path fill="#8a97ce" opacity="1.00" d=" M 48.83 10.03 C 53.62 12.51 57.93 15.79 62.73 18.25 C 63.74 18.77 64.76 19.27 65.78 19.76 C 69.94 22.42 73.87 25.41 77.98 28.12 C 78.87 27.69 79.76 27.26 80.66 26.84 C 77.49 30.82 76.93 35.98 77.78 40.86 C 79.09 48.24 78.74 55.74 78.39 63.18 C 78.38 56.27 78.69 49.33 77.67 42.48 C 76.47 47.64 76.51 52.95 76.34 58.21 C 76.41 54.70 76.15 51.19 76.07 47.69 C 76.10 45.55 76.12 43.41 76.13 41.27 C 75.94 37.17 77.67 31.91 74.00 28.88 C 68.54 24.29 62.09 21.11 56.15 17.22 C 53.12 15.49 50.53 13.09 48.83 10.03 Z" />
<path fill="#767bb0" opacity="0.82" d=" M 63.13 12.00 C 64.85 12.60 66.67 12.84 68.48 13.00 L 69.36 13.11 C 72.21 15.68 75.18 18.10 78.16 20.50 C 75.99 19.63 73.73 18.99 71.49 18.30 C 71.58 19.04 71.66 19.79 71.75 20.53 C 69.75 20.30 67.76 20.09 65.78 19.76 C 64.76 19.27 63.74 18.77 62.73 18.25 C 62.87 16.17 62.98 14.08 63.13 12.00 Z" />
<path fill="#393b91" opacity="1.00" d=" M 69.36 13.11 C 74.71 16.25 80.77 18.63 85.08 23.22 C 85.62 25.77 85.49 28.40 85.51 30.99 C 85.34 44.68 85.43 58.37 85.49 72.06 C 85.27 74.05 85.79 76.58 84.03 78.01 C 81.13 80.67 77.41 82.11 73.98 83.91 C 76.46 81.90 78.79 79.72 81.31 77.75 C 82.27 77.45 83.24 77.14 84.21 76.85 C 84.20 73.77 84.19 70.69 84.07 67.62 C 84.14 65.30 83.02 63.22 81.97 61.23 C 82.88 56.20 83.34 51.10 83.24 45.99 C 83.12 38.85 83.39 31.71 83.82 24.59 C 82.36 24.69 80.91 24.79 79.45 24.90 C 79.27 23.63 79.11 22.35 78.89 21.08 C 78.71 20.94 78.34 20.64 78.16 20.50 C 75.18 18.10 72.21 15.68 69.36 13.11 Z" />
<path fill="#acbaae" opacity="0.90" d=" M 35.96 16.70 C 38.67 15.84 41.43 15.17 44.10 14.18 C 42.29 16.05 40.55 17.98 38.85 19.96 C 40.27 19.78 41.68 19.62 43.08 19.38 C 40.31 21.14 37.63 23.04 34.83 24.78 C 31.81 26.62 28.55 28.08 25.12 28.97 C 29.61 25.46 33.97 21.79 38.18 17.96 C 31.73 20.92 24.71 23.90 20.56 29.97 C 20.10 28.92 19.64 27.87 19.17 26.82 C 16.63 34.01 17.93 41.69 18.39 49.10 C 17.58 49.77 16.77 50.44 15.96 51.11 C 15.99 42.16 15.52 33.21 16.05 24.27 C 17.62 23.36 19.18 22.44 20.76 21.53 C 21.09 22.37 21.41 23.21 21.72 24.06 C 26.40 21.49 30.93 18.57 35.96 16.70 Z" />
<path fill="#585f70" opacity="0.86" d=" M 43.08 19.38 C 46.97 16.79 51.66 16.43 56.15 17.22 C 62.09 21.11 68.54 24.29 74.00 28.88 C 77.67 31.91 75.94 37.17 76.13 41.27 C 75.73 39.61 75.27 37.97 74.85 36.33 C 74.68 36.56 74.34 37.02 74.18 37.26 C 71.91 37.23 69.65 36.67 67.86 35.21 C 63.97 32.29 59.88 29.66 55.84 26.94 L 56.78 26.71 L 57.83 26.55 C 55.87 25.63 53.88 23.67 51.56 24.62 C 47.64 25.76 44.07 27.78 40.40 29.51 C 36.21 31.61 31.48 33.45 28.98 37.70 L 29.99 38.11 C 30.90 38.50 31.81 38.90 32.72 39.30 C 29.60 43.42 26.98 48.33 22.12 50.66 C 22.08 45.01 22.14 39.33 23.20 33.76 C 26.03 32.90 29.11 32.44 31.56 30.68 C 33.07 28.98 33.86 26.80 34.83 24.78 C 37.63 23.04 40.31 21.14 43.08 19.38 Z" />
<path fill="#ccdddf" opacity="1.00" d=" M 20.56 29.97 C 24.71 23.90 31.73 20.92 38.18 17.96 C 33.97 21.79 29.61 25.46 25.12 28.97 C 23.62 29.39 22.09 29.67 20.56 29.97 Z" />
<path fill="#353f8b" opacity="0.80" d=" M 71.49 18.30 C 73.73 18.99 75.99 19.63 78.16 20.50 C 78.34 20.64 78.71 20.94 78.89 21.08 C 79.11 22.35 79.27 23.63 79.45 24.90 C 80.91 24.79 82.36 24.69 83.82 24.59 C 83.39 31.71 83.12 38.85 83.24 45.99 C 82.68 45.97 81.56 45.92 81.00 45.90 C 81.21 43.21 81.29 40.52 81.36 37.83 C 80.16 38.83 78.97 39.85 77.78 40.86 C 76.93 35.98 77.49 30.82 80.66 26.84 C 79.76 27.26 78.87 27.69 77.98 28.12 C 73.87 25.41 69.94 22.42 65.78 19.76 C 67.76 20.09 69.75 20.30 71.75 20.53 C 71.66 19.79 71.58 19.04 71.49 18.30 Z" />
<path fill="#c4b495" opacity="1.00" d=" M 14.02 57.00 C 14.15 45.62 13.33 34.20 14.46 22.85 C 14.96 40.10 15.23 57.36 15.34 74.61 L 15.14 75.43 C 15.05 75.82 14.87 76.61 14.78 77.00 C 13.16 70.45 14.28 63.66 14.02 57.00 Z" />
<path fill="#050037" opacity="0.77" d=" M 51.56 24.62 C 53.88 23.67 55.87 25.63 57.83 26.55 L 56.78 26.71 C 54.44 26.57 52.02 25.90 49.73 26.70 C 42.24 29.18 35.95 34.14 28.98 37.70 C 31.48 33.45 36.21 31.61 40.40 29.51 C 44.07 27.78 47.64 25.76 51.56 24.62 Z" />
<path fill="#67858d" opacity="0.93" d=" M 25.12 28.97 C 28.55 28.08 31.81 26.62 34.83 24.78 C 33.86 26.80 33.07 28.98 31.56 30.68 C 29.11 32.44 26.03 32.90 23.20 33.76 C 22.14 39.33 22.08 45.01 22.12 50.66 C 22.02 53.89 21.77 57.11 21.73 60.35 C 21.21 55.20 20.45 50.09 19.61 44.99 C 19.18 46.35 18.75 47.72 18.39 49.10 C 17.93 41.69 16.63 34.01 19.17 26.82 C 19.64 27.87 20.10 28.92 20.56 29.97 C 22.09 29.67 23.62 29.39 25.12 28.97 Z" />
<path fill="#cdccb9" opacity="0.91" d=" M 49.73 26.70 C 52.02 25.90 54.44 26.57 56.78 26.71 L 55.84 26.94 C 51.61 28.02 47.58 29.75 43.76 31.85 C 41.10 33.10 38.55 34.56 35.98 35.98 C 34.04 36.84 32.05 37.60 29.99 38.11 L 28.98 37.70 C 35.95 34.14 42.24 29.18 49.73 26.70 Z" />
<path fill="#6a727d" opacity="0.86" d=" M 43.76 31.85 C 47.58 29.75 51.61 28.02 55.84 26.94 C 59.88 29.66 63.97 32.29 67.86 35.21 C 69.65 36.67 71.91 37.23 74.18 37.26 C 73.33 38.47 72.56 39.75 71.55 40.85 C 69.47 41.53 67.24 40.97 65.12 40.87 C 64.88 41.82 64.65 42.77 64.44 43.73 C 64.37 44.08 64.23 44.78 64.16 45.13 C 63.05 43.52 61.88 41.96 60.73 40.39 C 57.57 40.16 54.40 39.90 51.33 39.10 C 52.33 38.27 53.28 37.35 54.42 36.69 C 58.12 36.88 61.71 38.03 65.41 38.35 C 66.32 38.48 67.23 38.60 68.15 38.72 C 61.27 33.22 52.35 31.66 43.76 31.85 Z" />
<path fill="#050037" opacity="0.77" d=" M 35.98 35.98 C 38.55 34.56 41.10 33.10 43.76 31.85 C 52.35 31.66 61.27 33.22 68.15 38.72 C 67.23 38.60 66.32 38.48 65.41 38.35 C 60.73 35.83 55.53 34.04 50.16 35.15 C 50.21 36.28 50.27 37.42 50.33 38.56 C 50.58 38.70 51.08 38.97 51.33 39.10 C 54.40 39.90 57.57 40.16 60.73 40.39 C 61.88 41.96 63.05 43.52 64.16 45.13 C 65.17 47.85 66.95 50.77 65.84 53.74 C 63.99 59.80 58.53 63.53 53.91 67.40 C 55.95 62.29 61.39 59.50 63.29 54.30 C 64.93 50.02 62.66 45.30 59.40 42.46 C 55.74 41.71 52.03 41.13 48.46 40.00 C 47.93 38.71 47.43 37.41 46.92 36.11 C 47.11 35.53 47.49 34.36 47.68 33.77 C 44.02 34.30 40.37 34.87 36.78 35.75 L 35.98 35.98 Z" />
<path fill="#c5cbc6" opacity="0.93" d=" M 36.78 35.75 C 40.37 34.87 44.02 34.30 47.68 33.77 C 47.49 34.36 47.11 35.53 46.92 36.11 C 43.33 36.55 39.76 37.11 36.21 37.75 C 36.35 37.25 36.63 36.25 36.78 35.75 Z" />
<path fill="#b3bdc4" opacity="0.95" d=" M 50.16 35.15 C 55.53 34.04 60.73 35.83 65.41 38.35 C 61.71 38.03 58.12 36.88 54.42 36.69 C 53.28 37.35 52.33 38.27 51.33 39.10 C 51.08 38.97 50.58 38.70 50.33 38.56 C 50.27 37.42 50.21 36.28 50.16 35.15 Z" />
<path fill="#6c7a8c" opacity="0.80" d=" M 29.99 38.11 C 32.05 37.60 34.04 36.84 35.98 35.98 L 36.78 35.75 C 36.63 36.25 36.35 37.25 36.21 37.75 C 39.76 37.11 43.33 36.55 46.92 36.11 C 47.43 37.41 47.93 38.71 48.46 40.00 C 48.89 41.03 49.33 42.06 49.77 43.09 C 48.90 43.09 48.03 43.10 47.17 43.12 C 46.87 43.13 46.26 43.15 45.96 43.16 C 43.65 44.16 41.46 45.41 39.31 46.71 C 36.69 48.60 34.48 51.01 32.81 53.77 C 32.61 54.09 32.23 54.74 32.04 55.06 C 29.60 55.15 27.10 55.02 24.76 55.76 C 23.30 58.01 22.51 60.60 21.70 63.13 C 21.71 62.43 21.72 61.04 21.73 60.35 C 21.77 57.11 22.02 53.89 22.12 50.66 C 26.98 48.33 29.60 43.42 32.72 39.30 C 31.81 38.90 30.90 38.50 29.99 38.11 Z" />
<path fill="#4456ac" opacity="0.92" d=" M 74.18 37.26 C 74.34 37.02 74.68 36.56 74.85 36.33 C 75.27 37.97 75.73 39.61 76.13 41.27 C 76.12 43.41 76.10 45.55 76.07 47.69 C 75.22 53.10 74.58 59.24 70.07 63.00 C 69.30 62.55 68.54 62.10 67.77 61.66 C 66.62 62.04 65.47 62.42 64.32 62.80 C 64.87 61.51 65.42 60.21 65.98 58.93 C 67.03 56.45 68.16 53.85 68.01 51.11 C 67.55 48.36 65.82 46.07 64.44 43.73 C 64.65 42.77 64.88 41.82 65.12 40.87 C 67.24 40.97 69.47 41.53 71.55 40.85 C 72.56 39.75 73.33 38.47 74.18 37.26 Z" />
<path fill="#4e58a0" opacity="0.80" d=" M 77.78 40.86 C 78.97 39.85 80.16 38.83 81.36 37.83 C 81.29 40.52 81.21 43.21 81.00 45.90 C 80.79 50.98 78.80 56.66 81.97 61.23 C 83.02 63.22 84.14 65.30 84.07 67.62 C 83.62 70.06 83.00 72.47 82.40 74.89 C 79.41 74.79 76.26 74.95 73.74 76.77 C 70.06 79.26 66.13 81.43 61.73 82.33 C 65.96 79.25 70.47 76.60 74.94 73.90 C 76.78 72.93 77.72 71.05 78.24 69.13 C 78.34 67.15 78.35 65.16 78.39 63.18 C 78.74 55.74 79.09 48.24 77.78 40.86 Z" />
<path fill="#c1cdce" opacity="1.00" d=" M 49.77 43.09 C 49.33 42.06 48.89 41.03 48.46 40.00 C 52.03 41.13 55.74 41.71 59.40 42.46 C 56.21 42.95 52.99 43.13 49.77 43.09 Z" />
<path fill="#596fa2" opacity="0.96" d=" M 49.77 43.09 C 52.99 43.13 56.21 42.95 59.40 42.46 C 62.66 45.30 64.93 50.02 63.29 54.30 C 61.39 59.50 55.95 62.29 53.91 67.40 C 53.69 67.94 53.26 69.02 53.04 69.56 C 51.76 70.10 50.47 70.69 49.10 70.92 C 47.75 70.29 46.56 69.38 45.42 68.45 C 44.56 66.74 43.61 65.08 42.67 63.42 C 43.85 62.27 45.01 61.12 46.19 59.97 C 47.38 60.68 48.58 61.38 49.79 62.06 C 49.20 62.91 48.62 63.77 48.06 64.64 C 51.93 63.56 54.53 60.50 56.45 57.14 C 54.93 57.93 53.42 58.74 51.92 59.56 C 51.51 59.65 50.69 59.82 50.28 59.90 C 49.70 59.31 48.54 58.12 47.96 57.53 C 50.53 53.83 54.58 51.94 58.54 50.12 C 58.21 49.90 57.54 49.45 57.21 49.22 C 56.09 48.50 54.98 47.75 53.87 47.01 C 52.64 47.96 51.41 48.90 50.21 49.89 C 49.24 47.62 48.28 45.33 47.17 43.12 C 48.03 43.10 48.90 43.09 49.77 43.09 Z" />
<path fill="#111546" opacity="0.93" d=" M 39.31 46.71 C 41.46 45.41 43.65 44.16 45.96 43.16 C 46.59 45.03 47.38 46.87 47.70 48.82 C 46.41 51.09 44.40 52.83 42.61 54.70 C 40.79 52.38 39.37 49.72 39.31 46.71 M 43.42 45.89 C 42.55 46.91 41.68 47.92 40.81 48.94 C 41.61 50.04 42.41 51.14 43.20 52.25 C 44.17 51.11 45.17 50.00 46.17 48.89 C 45.19 47.95 44.26 46.95 43.42 45.89 Z" />
<path fill="#c4d2dc" opacity="1.00" d=" M 45.96 43.16 C 46.26 43.15 46.87 43.13 47.17 43.12 C 48.28 45.33 49.24 47.62 50.21 49.89 C 47.62 52.17 45.36 54.78 42.99 57.27 C 42.86 56.41 42.73 55.56 42.61 54.70 C 44.40 52.83 46.41 51.09 47.70 48.82 C 47.38 46.87 46.59 45.03 45.96 43.16 Z" />
<path fill="#dde5d7" opacity="0.95" d=" M 76.34 58.21 C 76.51 52.95 76.47 47.64 77.67 42.48 C 78.69 49.33 78.38 56.27 78.39 63.18 C 78.35 65.16 78.34 67.15 78.24 69.13 C 77.40 69.66 76.57 70.20 75.75 70.75 C 75.81 68.08 75.86 65.41 76.03 62.75 C 76.17 61.24 76.29 59.72 76.34 58.21 Z" />
<path fill="#bcc8d4" opacity="1.00" d=" M 64.16 45.13 C 64.23 44.78 64.37 44.08 64.44 43.73 C 65.82 46.07 67.55 48.36 68.01 51.11 C 68.16 53.85 67.03 56.45 65.98 58.93 C 63.51 61.84 60.83 64.59 57.91 67.06 C 56.33 67.98 54.69 68.79 53.04 69.56 C 53.26 69.02 53.69 67.94 53.91 67.40 C 58.53 63.53 63.99 59.80 65.84 53.74 C 66.95 50.77 65.17 47.85 64.16 45.13 Z" />
<path fill="#294665" opacity="0.66" d=" M 19.61 44.99 C 20.45 50.09 21.21 55.20 21.73 60.35 C 21.72 61.04 21.71 62.43 21.70 63.13 C 21.08 65.95 20.38 68.76 19.87 71.61 C 18.51 72.37 17.16 73.13 15.85 73.98 L 16.37 73.30 C 17.27 72.01 18.44 70.72 18.46 69.06 C 18.75 62.41 17.82 55.75 18.39 49.10 C 18.75 47.72 19.18 46.35 19.61 44.99 Z" />
<path fill="#a5b7c7" opacity="0.98" d=" M 43.42 45.89 C 44.26 46.95 45.19 47.95 46.17 48.89 C 45.17 50.00 44.17 51.11 43.20 52.25 C 42.41 51.14 41.61 50.04 40.81 48.94 C 41.68 47.92 42.55 46.91 43.42 45.89 Z" />
<path fill="#0825d0" opacity="0.82" d=" M 81.00 45.90 C 81.56 45.92 82.68 45.97 83.24 45.99 C 83.34 51.10 82.88 56.20 81.97 61.23 C 78.80 56.66 80.79 50.98 81.00 45.90 Z" />
<path fill="#637aa8" opacity="0.95" d=" M 32.81 53.77 C 34.48 51.01 36.69 48.60 39.31 46.71 C 39.37 49.72 40.79 52.38 42.61 54.70 C 42.73 55.56 42.86 56.41 42.99 57.27 C 41.62 58.73 40.24 60.17 38.86 61.61 C 37.71 58.95 36.97 56.13 36.56 53.26 C 36.19 53.31 35.44 53.42 35.07 53.47 C 34.31 53.57 33.56 53.67 32.81 53.77 Z" />
<path fill="#070032" opacity="0.76" d=" M 50.21 49.89 C 51.41 48.90 52.64 47.96 53.87 47.01 C 54.98 47.75 56.09 48.50 57.21 49.22 C 51.82 48.87 48.47 53.66 45.41 57.32 C 46.99 58.27 48.53 59.30 50.28 59.90 C 50.69 59.82 51.51 59.65 51.92 59.56 C 51.19 60.37 50.48 61.21 49.79 62.06 C 48.58 61.38 47.38 60.68 46.19 59.97 C 45.64 59.64 44.54 58.98 43.99 58.66 C 42.57 60.15 41.14 61.64 39.70 63.12 C 41.59 64.92 43.47 66.72 45.42 68.45 C 46.56 69.38 47.75 70.29 49.10 70.92 C 50.47 70.69 51.76 70.10 53.04 69.56 C 54.69 68.79 56.33 67.98 57.91 67.06 L 58.66 67.87 C 55.48 69.71 52.18 71.37 49.18 73.51 C 48.54 73.21 47.26 72.61 46.62 72.31 C 45.62 71.80 44.63 71.29 43.65 70.76 C 42.69 71.57 41.74 72.39 40.79 73.21 C 36.50 71.89 34.18 67.79 31.41 64.59 C 30.98 64.06 30.12 63.00 29.69 62.47 C 28.62 64.11 27.56 65.75 26.59 67.45 L 26.56 66.72 C 27.47 62.47 30.00 58.83 32.04 55.06 C 32.23 54.74 32.61 54.09 32.81 53.77 C 33.56 53.67 34.31 53.57 35.07 53.47 C 35.12 56.81 34.76 60.23 33.25 63.26 C 35.27 65.86 37.31 68.44 39.36 71.02 C 40.38 70.38 41.40 69.75 42.42 69.12 C 40.72 67.16 39.02 65.20 37.31 63.24 C 37.82 62.70 38.34 62.15 38.86 61.61 C 40.24 60.17 41.62 58.73 42.99 57.27 C 45.36 54.78 47.62 52.17 50.21 49.89 M 32.05 58.26 C 31.63 59.69 32.12 60.15 33.51 59.62 C 33.92 58.19 33.44 57.74 32.05 58.26 Z" />
<path fill="#0b298d" opacity="0.87" d=" M 70.07 63.00 C 74.58 59.24 75.22 53.10 76.07 47.69 C 76.15 51.19 76.41 54.70 76.34 58.21 C 76.29 59.72 76.17 61.24 76.03 62.75 C 75.42 64.28 74.74 65.78 74.08 67.29 C 72.53 67.00 70.97 66.80 69.40 66.70 C 69.45 65.64 69.48 64.58 69.52 63.53 L 70.07 63.00 Z" />
<path fill="#5788a7" opacity="0.80" d=" M 15.96 51.11 C 16.77 50.44 17.58 49.77 18.39 49.10 C 17.82 55.75 18.75 62.41 18.46 69.06 C 18.44 70.72 17.27 72.01 16.37 73.30 C 16.17 65.90 15.71 58.51 15.96 51.11 Z" />
<path fill="#bbc8d6" opacity="1.00" d=" M 45.41 57.32 C 48.47 53.66 51.82 48.87 57.21 49.22 C 57.54 49.45 58.21 49.90 58.54 50.12 C 54.58 51.94 50.53 53.83 47.96 57.53 C 48.54 58.12 49.70 59.31 50.28 59.90 C 48.53 59.30 46.99 58.27 45.41 57.32 Z" />
<path fill="#92b8cc" opacity="0.96" d=" M 35.07 53.47 C 35.44 53.42 36.19 53.31 36.56 53.26 C 36.97 56.13 37.71 58.95 38.86 61.61 C 38.34 62.15 37.82 62.70 37.31 63.24 C 39.02 65.20 40.72 67.16 42.42 69.12 C 41.40 69.75 40.38 70.38 39.36 71.02 C 37.31 68.44 35.27 65.86 33.25 63.26 C 34.76 60.23 35.12 56.81 35.07 53.47 Z" />
<path fill="#557bb1" opacity="0.83" d=" M 24.76 55.76 C 27.10 55.02 29.60 55.15 32.04 55.06 C 30.00 58.83 27.47 62.47 26.56 66.72 C 25.62 66.57 24.67 66.43 23.72 66.28 C 23.42 66.74 22.81 67.66 22.51 68.12 C 26.34 70.93 30.73 73.27 33.52 77.25 C 29.69 74.86 25.77 72.62 22.07 70.05 C 21.63 70.60 20.75 71.69 20.32 72.24 L 19.87 71.61 C 20.38 68.76 21.08 65.95 21.70 63.13 C 22.51 60.60 23.30 58.01 24.76 55.76 Z" />
<path fill="#c3d2e3" opacity="1.00" d=" M 51.92 59.56 C 53.42 58.74 54.93 57.93 56.45 57.14 C 54.53 60.50 51.93 63.56 48.06 64.64 C 48.62 63.77 49.20 62.91 49.79 62.06 C 50.48 61.21 51.19 60.37 51.92 59.56 Z" />
<path fill="#a3c3df" opacity="1.00" d=" M 32.05 58.26 C 33.44 57.74 33.92 58.19 33.51 59.62 C 32.12 60.15 31.63 59.69 32.05 58.26 Z" />
<path fill="#a6bdd0" opacity="1.00" d=" M 39.70 63.12 C 41.14 61.64 42.57 60.15 43.99 58.66 C 44.54 58.98 45.64 59.64 46.19 59.97 C 45.01 61.12 43.85 62.27 42.67 63.42 C 43.61 65.08 44.56 66.74 45.42 68.45 C 43.47 66.72 41.59 64.92 39.70 63.12 Z" />
<path fill="#527da3" opacity="0.93" d=" M 57.91 67.06 C 60.83 64.59 63.51 61.84 65.98 58.93 C 65.42 60.21 64.87 61.51 64.32 62.80 C 65.47 62.42 66.62 62.04 67.77 61.66 C 68.54 62.10 69.30 62.55 70.07 63.00 L 69.52 63.53 C 66.17 66.49 63.01 69.68 60.40 73.32 C 58.50 73.28 56.59 73.23 54.68 73.30 C 56.66 71.93 58.53 70.40 60.42 68.92 C 59.98 68.65 59.10 68.13 58.66 67.87 L 57.91 67.06 Z" />
<path fill="#c2d3d8" opacity="0.95" d=" M 26.59 67.45 C 27.56 65.75 28.62 64.11 29.69 62.47 C 30.12 63.00 30.98 64.06 31.41 64.59 C 29.86 66.13 28.29 67.66 26.67 69.13 C 26.65 68.71 26.61 67.87 26.59 67.45 Z" />
<path fill="#415780" opacity="0.87" d=" M 74.08 67.29 C 74.74 65.78 75.42 64.28 76.03 62.75 C 75.86 65.41 75.81 68.08 75.75 70.75 C 71.10 73.90 66.37 77.03 61.01 78.82 C 64.37 76.83 67.46 74.40 70.40 71.82 C 65.85 73.66 61.47 75.88 57.09 78.09 C 58.18 76.49 59.27 74.89 60.40 73.32 C 63.01 69.68 66.17 66.49 69.52 63.53 C 69.48 64.58 69.45 65.64 69.40 66.70 C 70.97 66.80 72.53 67.00 74.08 67.29 Z" />
<path fill="#629cae" opacity="0.93" d=" M 26.67 69.13 C 28.29 67.66 29.86 66.13 31.41 64.59 C 34.18 67.79 36.50 71.89 40.79 73.21 C 40.12 73.91 39.46 74.62 38.81 75.34 C 41.46 74.45 44.05 73.41 46.62 72.31 C 47.26 72.61 48.54 73.21 49.18 73.51 C 48.45 74.04 47.71 74.56 46.97 75.07 C 44.65 76.05 42.30 76.98 39.95 77.88 C 38.27 77.11 36.54 76.46 34.81 75.81 C 38.69 79.30 43.23 81.92 47.21 85.29 C 47.85 85.82 48.48 86.36 49.11 86.90 C 49.09 87.77 49.05 89.51 49.03 90.38 C 44.47 85.80 38.63 82.94 33.14 79.68 L 32.75 78.80 C 33.31 78.94 34.44 79.21 35.01 79.35 C 34.53 78.63 34.03 77.93 33.52 77.25 C 30.73 73.27 26.34 70.93 22.51 68.12 C 22.81 67.66 23.42 66.74 23.72 66.28 C 24.67 66.43 25.62 66.57 26.56 66.72 L 26.59 67.45 C 26.61 67.87 26.65 68.71 26.67 69.13 Z" />
<path fill="#bfd5ce" opacity="0.98" d=" M 58.66 67.87 C 59.10 68.13 59.98 68.65 60.42 68.92 C 58.53 70.40 56.66 71.93 54.68 73.30 C 52.10 73.85 49.53 74.42 46.97 75.07 C 47.71 74.56 48.45 74.04 49.18 73.51 C 52.18 71.37 55.48 69.71 58.66 67.87 Z" />
<path fill="#7c83a8" opacity="0.93" d=" M 82.40 74.89 C 83.00 72.47 83.62 70.06 84.07 67.62 C 84.19 70.69 84.20 73.77 84.21 76.85 C 83.24 77.14 82.27 77.45 81.31 77.75 C 74.02 79.64 68.41 85.02 61.82 88.39 C 62.37 86.90 62.93 85.42 63.49 83.94 C 58.68 86.72 53.86 89.48 48.99 92.16 L 49.01 91.26 L 49.03 90.38 C 52.64 87.21 56.77 84.67 61.11 82.62 L 61.73 82.33 C 66.13 81.43 70.06 79.26 73.74 76.77 C 76.26 74.95 79.41 74.79 82.40 74.89 Z" />
<path fill="#8fa1cd" opacity="1.00" d=" M 75.75 70.75 C 76.57 70.20 77.40 69.66 78.24 69.13 C 77.72 71.05 76.78 72.93 74.94 73.90 C 70.47 76.60 65.96 79.25 61.73 82.33 L 61.11 82.62 C 61.06 81.59 61.02 80.55 61.00 79.51 L 61.01 78.82 C 66.37 77.03 71.10 73.90 75.75 70.75 Z" />
<path fill="#a1c7ca" opacity="0.98" d=" M 20.32 72.24 C 20.75 71.69 21.63 70.60 22.07 70.05 C 25.77 72.62 29.69 74.86 33.52 77.25 C 34.03 77.93 34.53 78.63 35.01 79.35 C 34.44 79.21 33.31 78.94 32.75 78.80 C 28.91 76.56 24.97 74.51 20.84 72.85 L 20.32 72.24 Z" />
<path fill="#cbe2e1" opacity="1.00" d=" M 40.79 73.21 C 41.74 72.39 42.69 71.57 43.65 70.76 C 44.63 71.29 45.62 71.80 46.62 72.31 C 44.05 73.41 41.46 74.45 38.81 75.34 C 39.46 74.62 40.12 73.91 40.79 73.21 Z" />
<path fill="#8ea197" opacity="0.81" d=" M 15.85 73.98 C 17.16 73.13 18.51 72.37 19.87 71.61 L 20.32 72.24 L 20.84 72.85 C 22.66 75.04 24.57 77.17 26.52 79.25 C 26.03 79.87 25.53 80.48 25.03 81.10 C 21.74 79.19 18.48 77.24 15.14 75.43 L 15.34 74.61 L 15.85 73.98 Z" />
<path fill="#839d88" opacity="0.93" d=" M 57.09 78.09 C 61.47 75.88 65.85 73.66 70.40 71.82 C 67.46 74.40 64.37 76.83 61.01 78.82 C 57.41 80.80 53.91 82.97 50.13 84.59 C 46.88 82.14 43.61 79.68 39.95 77.88 C 42.30 76.98 44.65 76.05 46.97 75.07 C 49.53 74.42 52.10 73.85 54.68 73.30 C 56.59 73.23 58.50 73.28 60.40 73.32 C 59.27 74.89 58.18 76.49 57.09 78.09 Z" />
<path fill="#627ba7" opacity="0.80" d=" M 20.84 72.85 C 24.97 74.51 28.91 76.56 32.75 78.80 L 33.14 79.68 C 35.25 86.67 43.20 88.42 49.01 91.26 L 48.99 92.16 C 48.96 93.50 48.94 94.85 48.91 96.19 C 45.77 94.25 42.66 92.25 39.49 90.36 C 34.94 86.86 30.03 83.89 25.03 81.10 C 25.53 80.48 26.03 79.87 26.52 79.25 C 24.57 77.17 22.66 75.04 20.84 72.85 Z" />
<path fill="#dde1d6" opacity="1.00" d=" M 15.14 75.43 C 18.48 77.24 21.74 79.19 25.03 81.10 C 30.03 83.89 34.94 86.86 39.49 90.36 C 39.03 90.55 38.12 90.93 37.66 91.12 C 29.99 86.50 22.16 82.06 14.78 77.00 C 14.87 76.61 15.05 75.82 15.14 75.43 Z" />
<path fill="#b3baa5" opacity="0.94" d=" M 34.81 75.81 C 36.54 76.46 38.27 77.11 39.95 77.88 C 43.61 79.68 46.88 82.14 50.13 84.59 C 49.40 84.76 47.94 85.11 47.21 85.29 C 43.23 81.92 38.69 79.30 34.81 75.81 Z" />
<path fill="#c5cbd5" opacity="1.00" d=" M 61.82 88.39 C 68.41 85.02 74.02 79.64 81.31 77.75 C 78.79 79.72 76.46 81.90 73.98 83.91 C 69.15 86.30 64.52 89.06 60.05 92.07 C 56.49 94.39 52.95 96.99 48.73 97.98 C 52.36 93.88 57.22 91.23 61.82 88.39 Z" />
<path fill="#070032" opacity="0.76" d=" M 50.13 84.59 C 53.91 82.97 57.41 80.80 61.01 78.82 L 61.00 79.51 C 57.18 82.20 53.13 84.54 49.11 86.90 C 48.48 86.36 47.85 85.82 47.21 85.29 C 47.94 85.11 49.40 84.76 50.13 84.59 Z" />
<path fill="#475883" opacity="0.90" d=" M 33.14 79.68 C 38.63 82.94 44.47 85.80 49.03 90.38 L 49.01 91.26 C 43.20 88.42 35.25 86.67 33.14 79.68 Z" />
<path fill="#d9e4dc" opacity="1.00" d=" M 49.11 86.90 C 53.13 84.54 57.18 82.20 61.00 79.51 C 61.02 80.55 61.06 81.59 61.11 82.62 C 56.77 84.67 52.64 87.21 49.03 90.38 C 49.05 89.51 49.09 87.77 49.11 86.90 Z" />
<path fill="#b5b9a3" opacity="0.93" d=" M 48.99 92.16 C 53.86 89.48 58.68 86.72 63.49 83.94 C 62.93 85.42 62.37 86.90 61.82 88.39 C 57.22 91.23 52.36 93.88 48.73 97.98 C 44.79 96.12 41.24 93.57 37.66 91.12 C 38.12 90.93 39.03 90.55 39.49 90.36 C 42.66 92.25 45.77 94.25 48.91 96.19 C 48.94 94.85 48.96 93.50 48.99 92.16 Z" />
</svg>
