<?xml version="1.0" encoding="UTF-8" ?>
<!DOCTYPE svg PUBLIC "-//W3C//DTD SVG 1.1//EN" "http://www.w3.org/Graphics/SVG/1.1/DTD/svg11.dtd">
<svg width="100pt" height="100pt" viewBox="0 0 100 100" version="1.1" xmlns="http://www.w3.org/2000/svg">
<path fill="#070040" opacity="0.93" d=" M 48.40 0.00 L 50.48 0.00 C 56.62 4.53 63.42 8.09 69.30 12.97 L 68.44 12.95 C 61.65 9.69 56.22 3.91 48.98 1.59 C 48.55 1.82 47.70 2.29 47.28 2.53 C 45.57 3.52 43.86 4.50 42.22 5.60 C 40.31 6.85 38.43 8.14 36.51 9.37 C 29.07 13.70 21.91 18.49 14.49 22.87 C 13.32 33.87 14.21 44.96 14.03 56.00 C 14.38 62.99 13.07 70.13 14.81 76.98 C 22.16 82.19 30.19 86.38 37.73 91.31 C 41.32 93.65 44.86 96.11 48.74 97.96 C 52.96 97.00 56.48 94.36 60.05 92.06 C 64.52 89.06 69.13 86.26 73.97 83.90 C 66.52 90.16 57.63 94.32 49.77 100.00 L 48.52 100.00 C 37.23 91.87 25.07 85.04 13.30 77.64 C 13.02 59.23 13.02 40.79 13.31 22.38 C 25.07 15.02 36.91 7.78 48.40 0.00 Z" />
<path fill="#bec4b3" opacity="0.89" d=" M 48.98 1.59 C 56.22 3.91 61.65 9.69 68.44 12.95 C 67.19 12.96 65.94 13.00 64.69 13.02 C 61.53 10.66 57.71 10.04 53.89 9.89 C 50.23 9.72 49.44 5.54 49.02 2.64 L 48.98 1.59 Z" />
<path fill="#3c4875" opacity="0.87" d=" M 47.28 2.53 C 47.70 2.29 48.55 1.82 48.98 1.59 L 49.02 2.64 C 49.07 5.04 49.03 7.43 48.97 9.83 C 47.08 10.89 45.20 11.95 43.31 13.02 C 44.82 9.60 46.26 6.13 47.28 2.53 Z" />
<path fill="#737a8d" opacity="0.87" d=" M 42.22 5.60 C 43.86 4.50 45.57 3.52 47.28 2.53 C 46.26 6.13 44.82 9.60 43.31 13.02 C 45.20 11.95 47.08 10.89 48.97 9.83 C 49.91 11.53 50.88 13.23 52.02 14.81 C 52.31 15.22 52.88 16.05 53.17 16.46 C 49.59 16.51 46.15 17.54 43.07 19.32 C 41.67 19.59 40.26 19.76 38.86 19.94 C 40.53 17.97 42.26 16.05 44.06 14.19 C 41.40 15.14 38.68 15.91 35.97 16.70 C 38.19 13.08 39.68 9.03 42.22 5.60 Z" />
<path fill="#919ea0" opacity="0.89" d=" M 49.02 2.64 C 49.44 5.54 50.23 9.72 53.89 9.89 C 57.71 10.04 61.53 10.66 64.69 13.02 C 64.11 14.78 63.54 16.54 62.95 18.29 C 58.14 15.71 53.94 12.13 48.97 9.83 C 49.03 7.43 49.07 5.04 49.02 2.64 Z" />
<path fill="#cdccb9" opacity="0.91" d=" M 36.51 9.37 C 38.43 8.14 40.31 6.85 42.22 5.60 C 39.68 9.03 38.19 13.08 35.97 16.70 C 30.94 18.52 26.48 21.52 21.78 24.01 C 21.43 23.18 21.07 22.36 20.72 21.54 C 25.03 18.91 29.61 16.69 33.66 13.65 C 35.15 12.66 35.83 10.95 36.51 9.37 Z" />
<path fill="#dcdcc8" opacity="0.94" d=" M 14.49 22.87 C 21.91 18.49 29.07 13.70 36.51 9.37 C 35.83 10.95 35.15 12.66 33.66 13.65 C 29.61 16.69 25.03 18.91 20.72 21.54 C 19.17 22.46 17.63 23.38 16.08 24.30 C 15.50 33.31 15.77 42.34 16.38 51.34 C 15.55 58.67 16.29 66.03 16.40 73.38 L 15.83 74.05 L 15.24 74.63 C 15.36 57.37 14.89 40.12 14.49 22.87 Z" />
<path fill="#cdccb9" opacity="0.91" d=" M 48.97 9.83 C 53.94 12.13 58.14 15.71 62.95 18.29 C 63.85 18.77 64.76 19.23 65.66 19.68 C 70.43 22.47 74.32 28.09 80.42 27.50 C 77.07 31.13 76.96 36.25 77.66 40.87 C 79.20 48.25 78.73 55.79 78.24 63.25 C 77.57 56.47 77.70 49.65 77.43 42.85 C 77.33 47.99 77.24 53.15 76.47 58.25 C 76.54 53.62 76.36 48.99 76.08 44.37 C 76.31 40.24 76.78 36.09 76.29 31.96 C 76.16 28.20 71.96 27.02 69.37 25.21 C 63.57 21.76 57.97 17.99 52.02 14.81 C 50.88 13.23 49.91 11.53 48.97 9.83 Z" />
<path fill="#6f78b1" opacity="0.82" d=" M 64.69 13.02 C 65.94 13.00 67.19 12.96 68.44 12.95 L 69.30 12.97 C 72.36 15.83 75.66 18.40 78.94 20.99 C 76.42 20.08 73.90 19.15 71.38 18.22 C 71.79 19.11 72.19 20.01 72.60 20.90 C 70.28 20.51 67.96 20.17 65.66 19.68 C 64.76 19.23 63.85 18.77 62.95 18.29 C 63.54 16.54 64.11 14.78 64.69 13.02 Z" />
<path fill="#393b91" opacity="1.00" d=" M 69.30 12.97 C 74.59 16.29 80.74 18.60 85.08 23.22 C 85.67 26.10 85.48 29.07 85.49 31.99 C 85.35 45.35 85.42 58.70 85.49 72.06 C 85.26 74.05 85.80 76.58 84.03 78.01 C 81.13 80.67 77.41 82.12 73.97 83.90 C 76.45 81.89 78.81 79.74 81.32 77.76 C 82.27 77.44 83.22 77.13 84.18 76.82 C 84.20 73.75 84.22 70.68 84.09 67.62 C 84.15 65.30 83.04 63.21 81.96 61.23 C 82.89 56.21 83.33 51.10 83.24 45.99 C 83.14 38.91 83.43 31.82 83.77 24.75 C 82.21 24.42 80.64 24.09 79.07 23.76 C 79.03 22.84 78.98 21.91 78.94 20.99 C 75.66 18.40 72.36 15.83 69.30 12.97 Z" />
<path fill="#acbaae" opacity="0.87" d=" M 35.97 16.70 C 38.68 15.91 41.40 15.14 44.06 14.19 C 42.26 16.05 40.53 17.97 38.86 19.94 C 40.26 19.76 41.67 19.59 43.07 19.32 C 39.65 21.41 36.44 23.81 33.14 26.07 C 30.60 27.39 27.89 28.33 25.12 29.02 C 29.58 25.46 34.01 21.85 38.19 17.95 C 31.74 20.89 24.72 23.89 20.58 29.94 C 20.09 28.96 19.59 27.97 19.09 26.99 C 16.38 34.92 19.51 43.49 16.38 51.34 C 15.77 42.34 15.50 33.31 16.08 24.30 C 17.63 23.38 19.17 22.46 20.72 21.54 C 21.07 22.36 21.43 23.18 21.78 24.01 C 26.48 21.52 30.94 18.52 35.97 16.70 Z" />
<path fill="#5b656f" opacity="0.85" d=" M 52.02 14.81 C 57.97 17.99 63.57 21.76 69.37 25.21 C 68.15 26.61 66.94 28.01 65.73 29.42 C 66.72 29.16 67.71 28.90 68.70 28.63 C 68.92 30.11 69.15 31.58 69.34 33.06 C 69.07 33.14 68.54 33.30 68.27 33.37 C 66.96 33.72 65.64 34.05 64.32 34.39 C 60.66 35.42 56.91 34.63 53.54 33.09 C 54.45 31.15 55.49 29.26 56.82 27.56 C 57.28 27.27 58.19 26.68 58.65 26.38 C 56.09 26.16 53.52 25.84 50.95 26.11 C 45.55 26.36 40.60 28.98 36.91 32.84 C 34.78 36.04 34.78 39.96 34.61 43.65 C 29.56 45.39 25.70 49.21 22.86 53.63 C 21.88 46.75 21.81 39.77 22.98 32.91 C 25.82 32.34 28.83 32.05 31.40 30.61 C 32.51 29.38 32.63 27.59 33.14 26.07 C 36.44 23.81 39.65 21.41 43.07 19.32 C 46.15 17.54 49.59 16.51 53.17 16.46 C 52.88 16.05 52.31 15.22 52.02 14.81 Z" />
<path fill="#ccdddf" opacity="1.00" d=" M 20.58 29.94 C 24.72 23.89 31.74 20.89 38.19 17.95 C 34.01 21.85 29.58 25.46 25.12 29.02 C 23.62 29.41 22.10 29.67 20.58 29.94 Z" />
<path fill="#353e8a" opacity="0.80" d=" M 71.38 18.22 C 73.90 19.15 76.42 20.08 78.94 20.99 C 78.98 21.91 79.03 22.84 79.07 23.76 C 80.64 24.09 82.21 24.42 83.77 24.75 C 83.43 31.82 83.14 38.91 83.24 45.99 C 82.69 45.97 81.57 45.92 81.02 45.90 C 81.24 43.24 81.33 40.57 81.40 37.90 C 80.15 38.89 78.91 39.88 77.66 40.87 C 76.96 36.25 77.07 31.13 80.42 27.50 C 74.32 28.09 70.43 22.47 65.66 19.68 C 67.96 20.17 70.28 20.51 72.60 20.90 C 72.19 20.01 71.79 19.11 71.38 18.22 Z" />
<path fill="#c4b495" opacity="1.00" d=" M 14.03 56.00 C 14.21 44.96 13.32 33.87 14.49 22.87 C 14.89 40.12 15.36 57.37 15.24 74.63 L 15.09 75.41 C 15.02 75.81 14.88 76.59 14.81 76.98 C 13.07 70.13 14.38 62.99 14.03 56.00 Z" />
<path fill="#5b799b" opacity="0.82" d=" M 25.12 29.02 C 27.89 28.33 30.60 27.39 33.14 26.07 C 32.63 27.59 32.51 29.38 31.40 30.61 C 28.83 32.05 25.82 32.34 22.98 32.91 C 21.81 39.77 21.88 46.75 22.86 53.63 C 25.70 49.21 29.56 45.39 34.61 43.65 C 34.78 39.96 34.78 36.04 36.91 32.84 C 36.55 37.59 36.33 42.34 36.48 47.10 C 36.48 47.58 36.50 48.55 36.51 49.03 C 38.42 48.24 40.33 47.46 42.26 46.72 C 40.37 51.31 36.45 54.35 31.87 55.99 C 30.08 60.62 26.58 64.56 21.61 65.75 C 21.45 58.79 20.75 51.83 19.65 44.95 C 17.80 53.39 17.82 62.13 18.67 70.69 C 17.91 71.59 17.16 72.48 16.40 73.38 C 16.29 66.03 15.55 58.67 16.38 51.34 C 19.51 43.49 16.38 34.92 19.09 26.99 C 19.59 27.97 20.09 28.96 20.58 29.94 C 22.10 29.67 23.62 29.41 25.12 29.02 Z" />
<path fill="#070040" opacity="0.93" d=" M 36.91 32.84 C 40.60 28.98 45.55 26.36 50.95 26.11 C 48.28 27.23 45.69 28.53 43.09 29.81 C 43.89 31.44 44.69 33.06 45.47 34.70 C 45.36 35.00 45.15 35.60 45.05 35.90 C 43.87 34.34 43.41 31.59 41.04 31.53 C 40.04 32.78 39.20 34.15 38.36 35.51 C 39.98 36.18 41.60 36.84 43.22 37.50 C 41.51 37.75 39.80 38.00 38.09 38.24 C 38.10 39.54 38.11 40.83 38.12 42.12 C 41.95 40.18 45.25 37.42 48.38 34.52 C 49.21 33.82 50.06 33.16 50.92 32.50 C 48.64 38.83 45.81 44.92 42.86 50.96 C 44.22 50.33 45.58 49.70 46.95 49.08 C 50.91 47.31 55.01 45.55 58.21 42.51 C 58.68 41.41 59.13 40.30 59.57 39.18 C 58.37 39.40 57.17 39.64 55.98 39.89 L 55.18 40.05 C 58.13 38.01 61.09 35.97 64.32 34.39 C 65.64 34.05 66.96 33.72 68.27 33.37 C 68.22 37.61 68.68 42.04 67.03 46.06 C 64.69 51.62 60.33 55.97 55.99 60.01 C 53.02 62.61 51.79 66.47 50.35 70.01 C 50.40 69.11 50.42 68.22 50.43 67.32 C 50.43 66.16 50.42 65.01 50.40 63.85 C 49.98 63.96 49.12 64.19 48.69 64.30 C 52.52 60.00 54.94 54.72 56.14 49.11 C 56.30 48.49 56.63 47.26 56.79 46.64 C 52.29 48.85 47.68 50.83 43.23 53.14 C 36.81 56.10 35.74 65.09 39.45 70.59 C 39.53 70.95 39.70 71.67 39.79 72.03 C 37.98 70.62 36.17 69.21 34.35 67.82 C 34.77 64.29 35.06 60.76 35.63 57.25 C 34.37 56.83 33.12 56.41 31.87 55.99 C 36.45 54.35 40.37 51.31 42.26 46.72 C 43.72 44.14 45.11 41.51 46.39 38.83 C 42.91 41.37 39.71 44.26 36.48 47.10 C 36.33 42.34 36.55 37.59 36.91 32.84 M 62.56 37.61 C 62.35 38.90 62.14 40.19 61.94 41.48 C 64.14 40.49 66.15 39.07 65.61 36.37 C 64.85 36.68 63.33 37.30 62.56 37.61 M 59.87 45.92 C 58.16 49.60 56.89 53.48 55.68 57.35 C 60.43 53.31 63.88 47.82 65.31 41.74 C 63.34 42.87 60.81 43.65 59.87 45.92 Z" />
<path fill="#8a9795" opacity="0.84" d=" M 50.95 26.11 C 53.52 25.84 56.09 26.16 58.65 26.38 C 58.19 26.68 57.28 27.27 56.82 27.56 C 53.15 28.51 49.43 29.27 45.86 30.56 C 46.70 31.88 47.54 33.20 48.38 34.52 C 45.25 37.42 41.95 40.18 38.12 42.12 C 38.11 40.83 38.10 39.54 38.09 38.24 C 39.80 38.00 41.51 37.75 43.22 37.50 C 41.60 36.84 39.98 36.18 38.36 35.51 C 39.20 34.15 40.04 32.78 41.04 31.53 C 43.41 31.59 43.87 34.34 45.05 35.90 C 45.15 35.60 45.36 35.00 45.47 34.70 C 44.69 33.06 43.89 31.44 43.09 29.81 C 45.69 28.53 48.28 27.23 50.95 26.11 Z" />
<path fill="#4a538d" opacity="0.87" d=" M 65.73 29.42 C 66.94 28.01 68.15 26.61 69.37 25.21 C 71.96 27.02 76.16 28.20 76.29 31.96 C 76.78 36.09 76.31 40.24 76.08 44.37 L 75.76 43.53 C 75.52 42.92 75.05 41.70 74.81 41.09 C 73.10 42.29 71.37 43.48 69.72 44.79 C 69.88 40.88 69.73 36.96 69.34 33.06 C 69.15 31.58 68.92 30.11 68.70 28.63 C 67.71 28.90 66.72 29.16 65.73 29.42 Z" />
<path fill="#6f778a" opacity="0.85" d=" M 45.86 30.56 C 49.43 29.27 53.15 28.51 56.82 27.56 C 55.49 29.26 54.45 31.15 53.54 33.09 C 56.91 34.63 60.66 35.42 64.32 34.39 C 61.09 35.97 58.13 38.01 55.18 40.05 L 55.98 39.89 C 54.21 40.46 52.48 41.16 50.76 41.87 C 53.22 42.28 55.71 42.45 58.21 42.51 C 55.01 45.55 50.91 47.31 46.95 49.08 C 48.55 42.50 52.37 36.63 53.17 29.83 C 52.39 30.70 51.62 31.57 50.92 32.50 C 50.06 33.16 49.21 33.82 48.38 34.52 C 47.54 33.20 46.70 31.88 45.86 30.56 Z" />
<path fill="#b6c1c5" opacity="0.95" d=" M 50.92 32.50 C 51.62 31.57 52.39 30.70 53.17 29.83 C 52.37 36.63 48.55 42.50 46.95 49.08 C 45.58 49.70 44.22 50.33 42.86 50.96 C 45.81 44.92 48.64 38.83 50.92 32.50 Z" />
<path fill="#cdccb9" opacity="0.91" d=" M 68.27 33.37 C 68.54 33.30 69.07 33.14 69.34 33.06 C 69.73 36.96 69.88 40.88 69.72 44.79 C 67.68 48.55 65.72 52.37 63.18 55.82 C 60.66 58.40 57.68 60.54 55.44 63.39 C 53.34 66.30 52.62 69.90 51.41 73.22 C 50.68 74.79 49.58 76.19 47.98 76.95 C 48.18 76.28 48.40 75.62 48.61 74.96 C 49.17 73.30 49.77 71.66 50.35 70.01 C 51.79 66.47 53.02 62.61 55.99 60.01 C 60.33 55.97 64.69 51.62 67.03 46.06 C 68.68 42.04 68.22 37.61 68.27 33.37 Z" />
<path fill="#cdccb9" opacity="0.91" d=" M 62.56 37.61 C 63.33 37.30 64.85 36.68 65.61 36.37 C 66.15 39.07 64.14 40.49 61.94 41.48 C 62.14 40.19 62.35 38.90 62.56 37.61 Z" />
<path fill="#4e58a0" opacity="0.80" d=" M 77.66 40.87 C 78.91 39.88 80.15 38.89 81.40 37.90 C 81.33 40.57 81.24 43.24 81.02 45.90 C 80.78 50.99 78.77 56.67 81.96 61.23 C 83.04 63.21 84.15 65.30 84.09 67.62 C 83.62 70.06 83.00 72.46 82.38 74.86 C 79.40 74.80 76.26 74.98 73.74 76.77 C 70.01 79.26 66.09 81.52 61.63 82.38 C 63.08 81.18 64.47 79.90 65.91 78.69 C 69.85 76.48 74.30 74.85 77.47 71.54 C 78.29 68.86 78.16 66.02 78.24 63.25 C 78.73 55.79 79.20 48.25 77.66 40.87 Z" />
<path fill="#b8c6cc" opacity="0.94" d=" M 36.48 47.10 C 39.71 44.26 42.91 41.37 46.39 38.83 C 45.11 41.51 43.72 44.14 42.26 46.72 C 40.33 47.46 38.42 48.24 36.51 49.03 C 36.50 48.55 36.48 47.58 36.48 47.10 Z" />
<path fill="#b0b6be" opacity="0.97" d=" M 55.98 39.89 C 57.17 39.64 58.37 39.40 59.57 39.18 C 59.13 40.30 58.68 41.41 58.21 42.51 C 55.71 42.45 53.22 42.28 50.76 41.87 C 52.48 41.16 54.21 40.46 55.98 39.89 Z" />
<path fill="#495aac" opacity="0.94" d=" M 69.72 44.79 C 71.37 43.48 73.10 42.29 74.81 41.09 C 75.05 41.70 75.52 42.92 75.76 43.53 C 75.19 50.35 75.50 58.04 70.22 63.22 C 68.55 64.57 66.82 65.84 65.22 67.27 C 64.43 66.42 63.65 65.58 62.87 64.73 C 63.14 61.77 63.25 58.79 63.18 55.82 C 65.72 52.37 67.68 48.55 69.72 44.79 Z" />
<path fill="#888aa0" opacity="0.96" d=" M 59.87 45.92 C 60.81 43.65 63.34 42.87 65.31 41.74 C 63.88 47.82 60.43 53.31 55.68 57.35 C 56.89 53.48 58.16 49.60 59.87 45.92 Z" />
<path fill="#b9c5d3" opacity="0.96" d=" M 76.47 58.25 C 77.24 53.15 77.33 47.99 77.43 42.85 C 77.70 49.65 77.57 56.47 78.24 63.25 C 78.16 66.02 78.29 68.86 77.47 71.54 C 74.30 74.85 69.85 76.48 65.91 78.69 C 65.17 78.77 63.69 78.93 62.94 79.02 C 67.21 76.34 71.45 73.63 75.66 70.88 C 75.70 68.18 75.72 65.47 75.89 62.78 C 76.09 61.27 76.30 59.76 76.47 58.25 Z" />
<path fill="#0b298d" opacity="0.87" d=" M 75.76 43.53 L 76.08 44.37 C 76.36 48.99 76.54 53.62 76.47 58.25 C 76.30 59.76 76.09 61.27 75.89 62.78 C 75.32 64.28 74.69 65.75 74.07 67.23 C 72.44 67.03 70.80 66.83 69.17 66.63 C 69.50 65.49 69.84 64.35 70.22 63.22 C 75.50 58.04 75.19 50.35 75.76 43.53 Z" />
<path fill="#294365" opacity="0.66" d=" M 18.67 70.69 C 17.82 62.13 17.80 53.39 19.65 44.95 C 20.75 51.83 21.45 58.79 21.61 65.75 C 21.26 67.49 20.80 69.21 20.23 70.89 C 18.93 72.15 17.36 73.09 15.83 74.05 L 16.40 73.38 C 17.16 72.48 17.91 71.59 18.67 70.69 Z" />
<path fill="#0825d0" opacity="0.82" d=" M 81.02 45.90 C 81.57 45.92 82.69 45.97 83.24 45.99 C 83.33 51.10 82.89 56.21 81.96 61.23 C 78.77 56.67 80.78 50.99 81.02 45.90 Z" />
<path fill="#b0c1d0" opacity="1.00" d=" M 43.23 53.14 C 47.68 50.83 52.29 48.85 56.79 46.64 C 56.63 47.26 56.30 48.49 56.14 49.11 C 51.51 51.47 46.49 53.20 42.28 56.30 C 38.34 59.52 39.59 65.21 39.41 69.67 L 39.45 70.59 C 35.74 65.09 36.81 56.10 43.23 53.14 Z" />
<path fill="#5f7dae" opacity="0.96" d=" M 42.28 56.30 C 46.49 53.20 51.51 51.47 56.14 49.11 C 54.94 54.72 52.52 60.00 48.69 64.30 C 47.05 64.73 45.41 65.21 43.78 65.70 C 45.98 66.31 48.20 66.84 50.43 67.32 C 50.42 68.22 50.40 69.11 50.35 70.01 C 49.77 71.66 49.17 73.30 48.61 74.96 C 47.38 74.53 46.11 74.17 44.94 73.58 C 44.11 72.04 43.75 70.30 43.26 68.63 C 41.98 68.98 40.69 69.32 39.41 69.67 C 39.59 65.21 38.34 59.52 42.28 56.30 Z" />
<path fill="#629cbe" opacity="0.87" d=" M 21.61 65.75 C 26.58 64.56 30.08 60.62 31.87 55.99 C 33.12 56.41 34.37 56.83 35.63 57.25 C 35.06 60.76 34.77 64.29 34.35 67.82 C 33.96 69.42 33.44 70.99 32.93 72.56 C 31.63 72.54 30.33 72.51 29.03 72.49 C 30.95 73.66 32.87 74.83 34.79 76.00 C 38.81 79.18 43.15 81.95 47.07 85.27 C 47.75 85.87 48.42 86.48 49.09 87.10 C 49.08 87.91 49.06 89.55 49.05 90.36 C 44.37 85.91 38.78 82.49 32.75 80.18 C 32.23 79.33 31.71 78.49 31.19 77.65 C 31.69 77.77 32.68 78.01 33.18 78.12 C 29.44 74.90 25.49 71.06 20.23 70.89 C 20.80 69.21 21.26 67.49 21.61 65.75 Z" />
<path fill="#658e9f" opacity="0.95" d=" M 55.44 63.39 C 57.68 60.54 60.66 58.40 63.18 55.82 C 63.25 58.79 63.14 61.77 62.87 64.73 C 63.65 65.58 64.43 66.42 65.22 67.27 C 63.07 69.53 61.17 72.02 59.39 74.58 C 56.66 74.69 53.93 74.30 51.41 73.22 C 52.62 69.90 53.34 66.30 55.44 63.39 Z" />
<path fill="#41577e" opacity="0.87" d=" M 65.22 67.27 C 66.82 65.84 68.55 64.57 70.22 63.22 C 69.84 64.35 69.50 65.49 69.17 66.63 C 70.80 66.83 72.44 67.03 74.07 67.23 C 74.69 65.75 75.32 64.28 75.89 62.78 C 75.72 65.47 75.70 68.18 75.66 70.88 C 71.45 73.63 67.21 76.34 62.94 79.02 C 58.18 81.46 53.70 84.39 49.09 87.10 C 48.42 86.48 47.75 85.87 47.07 85.27 C 47.80 85.08 49.26 84.71 49.99 84.52 C 57.08 80.81 64.33 77.07 70.44 71.83 C 65.83 73.58 61.49 75.93 57.06 78.07 C 57.83 76.90 58.59 75.73 59.39 74.58 C 61.17 72.02 63.07 69.53 65.22 67.27 Z" />
<path fill="#9bbad3" opacity="0.98" d=" M 48.69 64.30 C 49.12 64.19 49.98 63.96 50.40 63.85 C 50.42 65.01 50.43 66.16 50.43 67.32 C 48.20 66.84 45.98 66.31 43.78 65.70 C 45.41 65.21 47.05 64.73 48.69 64.30 Z" />
<path fill="#72a6a8" opacity="0.96" d=" M 32.93 72.56 C 33.44 70.99 33.96 69.42 34.35 67.82 C 36.17 69.21 37.98 70.62 39.79 72.03 C 39.70 71.67 39.53 70.95 39.45 70.59 L 39.41 69.67 C 40.69 69.32 41.98 68.98 43.26 68.63 C 43.75 70.30 44.11 72.04 44.94 73.58 C 46.11 74.17 47.38 74.53 48.61 74.96 C 48.40 75.62 48.18 76.28 47.98 76.95 C 46.29 77.80 44.58 78.58 42.91 79.45 C 40.27 78.14 37.48 77.17 34.79 76.00 C 32.87 74.83 30.95 73.66 29.03 72.49 C 30.33 72.51 31.63 72.54 32.93 72.56 Z" />
<path fill="#7c83a8" opacity="0.93" d=" M 82.38 74.86 C 83.00 72.46 83.62 70.06 84.09 67.62 C 84.22 70.68 84.20 73.75 84.18 76.82 C 83.22 77.13 82.27 77.44 81.32 77.76 C 74.00 79.64 68.38 85.06 61.73 88.38 C 62.40 86.93 62.98 85.43 63.57 83.95 C 58.70 86.66 53.89 89.47 49.01 92.16 L 49.03 91.24 L 49.05 90.36 C 52.83 87.11 57.13 84.52 61.63 82.38 C 66.09 81.52 70.01 79.26 73.74 76.77 C 76.26 74.98 79.40 74.80 82.38 74.86 Z" />
<path fill="#a7c9c6" opacity="0.98" d=" M 20.23 70.89 C 25.49 71.06 29.44 74.90 33.18 78.12 C 32.68 78.01 31.69 77.77 31.19 77.65 C 27.86 75.96 24.45 74.42 21.21 72.57 C 20.96 72.15 20.48 71.31 20.23 70.89 Z" />
<path fill="#8ea197" opacity="0.81" d=" M 15.83 74.05 C 17.36 73.09 18.93 72.15 20.23 70.89 C 20.48 71.31 20.96 72.15 21.21 72.57 C 22.55 75.09 24.43 77.25 26.45 79.25 C 25.96 79.87 25.48 80.50 24.99 81.13 C 21.69 79.23 18.45 77.21 15.09 75.41 L 15.24 74.63 L 15.83 74.05 Z" />
<path fill="#869a85" opacity="0.92" d=" M 57.06 78.07 C 61.49 75.93 65.83 73.58 70.44 71.83 C 64.33 77.07 57.08 80.81 49.99 84.52 C 47.67 82.77 45.36 81.01 42.91 79.45 C 44.58 78.58 46.29 77.80 47.98 76.95 C 49.58 76.19 50.68 74.79 51.41 73.22 C 53.93 74.30 56.66 74.69 59.39 74.58 C 58.59 75.73 57.83 76.90 57.06 78.07 Z" />
<path fill="#627fa8" opacity="0.81" d=" M 21.21 72.57 C 24.45 74.42 27.86 75.96 31.19 77.65 C 31.71 78.49 32.23 79.33 32.75 80.18 C 35.98 86.40 43.04 88.63 49.03 91.24 L 49.01 92.16 C 48.98 93.49 48.94 94.83 48.90 96.17 C 45.67 94.25 42.52 92.19 39.37 90.14 C 34.79 86.80 29.94 83.87 24.99 81.13 C 25.48 80.50 25.96 79.87 26.45 79.25 C 24.43 77.25 22.55 75.09 21.21 72.57 Z" />
<path fill="#dee2d6" opacity="1.00" d=" M 15.09 75.41 C 18.45 77.21 21.69 79.23 24.99 81.13 C 29.94 83.87 34.79 86.80 39.37 90.14 C 38.96 90.43 38.14 91.01 37.73 91.31 C 30.19 86.38 22.16 82.19 14.81 76.98 C 14.88 76.59 15.02 75.81 15.09 75.41 Z" />
<path fill="#b2b9a5" opacity="0.93" d=" M 34.79 76.00 C 37.48 77.17 40.27 78.14 42.91 79.45 C 45.36 81.01 47.67 82.77 49.99 84.52 C 49.26 84.71 47.80 85.08 47.07 85.27 C 43.15 81.95 38.81 79.18 34.79 76.00 Z" />
<path fill="#c5cbd5" opacity="1.00" d=" M 61.73 88.38 C 68.38 85.06 74.00 79.64 81.32 77.76 C 78.81 79.74 76.45 81.89 73.97 83.90 C 69.13 86.26 64.52 89.06 60.05 92.06 C 56.48 94.36 52.96 97.00 48.74 97.96 C 52.32 93.84 57.26 91.37 61.73 88.38 Z" />
<path fill="#ccd9d9" opacity="1.00" d=" M 49.09 87.10 C 53.70 84.39 58.18 81.46 62.94 79.02 C 63.69 78.93 65.17 78.77 65.91 78.69 C 64.47 79.90 63.08 81.18 61.63 82.38 C 57.13 84.52 52.83 87.11 49.05 90.36 C 49.06 89.55 49.08 87.91 49.09 87.10 Z" />
<path fill="#465780" opacity="0.89" d=" M 32.75 80.18 C 38.78 82.49 44.37 85.91 49.05 90.36 L 49.03 91.24 C 43.04 88.63 35.98 86.40 32.75 80.18 Z" />
<path fill="#b5b9a3" opacity="0.93" d=" M 49.01 92.16 C 53.89 89.47 58.70 86.66 63.57 83.95 C 62.98 85.43 62.40 86.93 61.73 88.38 C 57.26 91.37 52.32 93.84 48.74 97.96 C 44.86 96.11 41.32 93.65 37.73 91.31 C 38.14 91.01 38.96 90.43 39.37 90.14 C 42.52 92.19 45.67 94.25 48.90 96.17 C 48.94 94.83 48.98 93.49 49.01 92.16 Z" />
</svg>
