<?xml version="1.0" encoding="UTF-8" ?>
<!DOCTYPE svg PUBLIC "-//W3C//DTD SVG 1.1//EN" "http://www.w3.org/Graphics/SVG/1.1/DTD/svg11.dtd">
<svg width="100pt" height="100pt" viewBox="0 0 100 100" version="1.1" xmlns="http://www.w3.org/2000/svg">
<path fill="#04070b" opacity="1.00" d=" M 33.82 26.78 C 42.26 24.81 51.13 23.33 59.72 25.32 C 65.48 26.58 72.32 26.90 76.48 31.64 C 78.87 34.66 76.48 38.19 75.02 40.99 C 69.79 51.37 63.67 61.33 56.35 70.37 C 54.55 72.84 51.74 74.12 48.86 74.86 C 50.38 72.97 51.93 71.11 53.42 69.19 C 56.87 64.74 61.11 60.89 63.95 55.98 C 66.39 51.77 69.13 47.75 71.83 43.70 C 73.03 41.81 74.28 39.89 74.86 37.70 C 75.65 35.67 73.21 34.60 72.14 33.24 C 72.78 32.83 74.05 32.01 74.69 31.60 C 69.31 28.31 63.02 27.25 56.91 26.26 C 49.23 25.01 41.51 26.63 33.82 26.78 Z" />
<path fill="#465161" opacity="1.00" d=" M 33.82 26.78 C 41.51 26.63 49.23 25.01 56.91 26.26 C 63.02 27.25 69.31 28.31 74.69 31.60 C 74.05 32.01 72.78 32.83 72.14 33.24 C 68.76 35.91 64.47 34.63 60.74 33.58 C 63.01 32.94 65.30 32.38 67.58 31.77 C 64.79 31.04 61.66 29.17 58.85 30.85 C 54.11 33.45 50.52 37.61 46.44 41.08 C 44.83 39.87 43.22 38.66 41.60 37.48 C 41.62 36.11 41.65 34.74 41.67 33.37 C 39.17 33.19 36.66 33.05 34.16 32.86 C 35.05 31.93 35.95 31.00 36.86 30.08 C 34.11 30.70 31.36 31.29 28.59 31.74 C 30.22 29.98 31.91 28.25 33.82 26.78 Z" />
<path fill="#323643" opacity="1.00" d=" M 23.44 29.75 C 26.64 28.02 30.28 27.43 33.82 26.78 C 31.91 28.25 30.22 29.98 28.59 31.74 C 31.36 31.29 34.11 30.70 36.86 30.08 C 35.95 31.00 35.05 31.93 34.16 32.86 C 36.66 33.05 39.17 33.19 41.67 33.37 C 41.65 34.74 41.62 36.11 41.60 37.48 C 43.22 38.66 44.83 39.87 46.44 41.08 C 43.76 41.59 41.03 41.58 38.32 41.57 C 38.30 41.80 38.27 42.26 38.25 42.49 C 40.22 42.71 42.18 42.95 44.15 43.19 C 41.45 45.84 38.63 48.39 36.08 51.21 C 36.53 51.09 37.41 50.86 37.86 50.74 C 37.02 51.32 36.19 51.90 35.36 52.49 C 37.01 55.70 38.61 58.93 40.16 62.19 C 36.79 58.77 33.33 55.44 30.05 51.94 C 27.58 44.64 22.55 37.80 23.44 29.75 Z" />
<path fill="#040508" opacity="0.94" d=" M 21.89 37.82 C 21.03 35.01 22.32 32.27 23.44 29.75 C 22.55 37.80 27.58 44.64 30.05 51.94 C 26.52 47.78 23.52 43.04 21.89 37.82 Z" />
<path fill="#ffdf9f" opacity="1.00" d=" M 58.85 30.85 C 61.66 29.17 64.79 31.04 67.58 31.77 C 65.30 32.38 63.01 32.94 60.74 33.58 C 56.66 34.73 54.02 38.37 50.94 41.02 C 54.31 41.06 57.68 41.08 61.05 41.28 C 56.20 45.91 55.46 52.80 54.44 59.06 C 53.23 56.26 51.96 53.26 52.40 50.15 C 52.79 47.67 53.93 45.40 54.88 43.10 C 52.22 43.37 49.43 43.11 46.90 44.06 C 43.60 45.88 41.04 48.74 37.86 50.74 C 37.41 50.86 36.53 51.09 36.08 51.21 C 38.63 48.39 41.45 45.84 44.15 43.19 C 42.18 42.95 40.22 42.71 38.25 42.49 C 38.27 42.26 38.30 41.80 38.32 41.57 C 41.03 41.58 43.76 41.59 46.44 41.08 C 50.52 37.61 54.11 33.45 58.85 30.85 Z" />
<path fill="#353944" opacity="1.00" d=" M 50.94 41.02 C 54.02 38.37 56.66 34.73 60.74 33.58 C 64.47 34.63 68.76 35.91 72.14 33.24 C 73.21 34.60 75.65 35.67 74.86 37.70 C 74.28 39.89 73.03 41.81 71.83 43.70 C 69.17 44.77 66.87 46.49 64.99 48.63 C 65.40 45.71 65.66 42.76 65.86 39.81 C 64.25 40.27 62.63 40.72 61.05 41.28 C 57.68 41.08 54.31 41.06 50.94 41.02 Z" />
<path fill="#202331" opacity="1.00" d=" M 61.05 41.28 C 62.63 40.72 64.25 40.27 65.86 39.81 C 65.66 42.76 65.40 45.71 64.99 48.63 C 66.87 46.49 69.17 44.77 71.83 43.70 C 69.13 47.75 66.39 51.77 63.95 55.98 C 61.11 60.89 56.87 64.74 53.42 69.19 C 53.89 66.48 54.58 63.81 55.41 61.19 C 55.08 60.48 54.76 59.77 54.44 59.06 C 55.46 52.80 56.20 45.91 61.05 41.28 Z" />
<path fill="#12121d" opacity="1.00" d=" M 46.90 44.06 C 49.43 43.11 52.22 43.37 54.88 43.10 C 53.93 45.40 52.79 47.67 52.40 50.15 C 51.96 53.26 53.23 56.26 54.44 59.06 C 54.76 59.77 55.08 60.48 55.41 61.19 C 54.58 63.81 53.89 66.48 53.42 69.19 C 51.93 71.11 50.38 72.97 48.86 74.86 C 45.50 72.75 42.41 70.17 40.10 66.91 C 36.61 62.02 32.47 57.50 30.05 51.94 C 33.33 55.44 36.79 58.77 40.16 62.19 C 38.61 58.93 37.01 55.70 35.36 52.49 C 36.19 51.90 37.02 51.32 37.86 50.74 C 41.04 48.74 43.60 45.88 46.90 44.06 Z" />
</svg>
