<?xml version="1.0" encoding="UTF-8" ?>
<!DOCTYPE svg PUBLIC "-//W3C//DTD SVG 1.1//EN" "http://www.w3.org/Graphics/SVG/1.1/DTD/svg11.dtd">
<svg width="100pt" height="100pt" viewBox="0 0 100 100" version="1.1" xmlns="http://www.w3.org/2000/svg">
<path fill="#04070b" opacity="1.00" d=" M 38.80 26.04 C 45.31 24.18 52.27 23.74 58.91 25.18 C 64.34 26.33 70.26 26.69 74.89 30.07 C 77.06 31.52 78.31 34.60 76.98 37.01 C 72.49 46.21 67.60 55.24 61.52 63.51 C 58.13 68.01 55.03 73.96 48.85 74.79 C 50.42 72.96 51.99 71.13 53.44 69.20 C 56.85 64.41 61.61 60.65 64.22 55.29 C 66.32 51.14 69.11 47.42 71.79 43.64 C 73.41 41.33 74.51 38.71 75.55 36.10 C 74.35 35.20 73.15 34.30 71.96 33.40 C 72.63 32.95 73.98 32.05 74.65 31.59 C 63.78 25.65 50.88 25.37 38.80 26.04 Z" />
<path fill="#495161" opacity="1.00" d=" M 33.86 26.89 C 35.43 26.28 37.13 26.14 38.80 26.04 C 50.88 25.37 63.78 25.65 74.65 31.59 C 73.98 32.05 72.63 32.95 71.96 33.40 C 69.21 35.39 65.74 34.74 62.64 34.15 C 64.50 33.63 66.34 33.01 68.17 32.40 C 64.52 29.99 60.19 29.04 55.85 29.15 C 57.74 30.88 59.68 32.58 61.81 34.02 C 58.20 33.36 54.51 33.57 50.91 34.19 C 51.30 34.34 52.08 34.62 52.47 34.77 C 49.94 36.27 47.37 37.71 44.78 39.11 C 43.71 38.71 42.65 38.32 41.58 37.92 C 43.06 34.33 46.64 32.63 49.91 31.04 C 47.64 31.52 45.38 32.03 43.08 32.37 C 40.69 32.64 38.29 32.68 35.89 32.73 C 36.49 31.77 37.10 30.81 37.71 29.86 C 34.76 30.72 31.72 31.27 28.64 31.30 C 30.31 29.75 32.01 28.23 33.86 26.89 Z" />
<path fill="#333743" opacity="1.00" d=" M 23.56 29.82 C 26.61 27.81 30.36 27.51 33.86 26.89 C 32.01 28.23 30.31 29.75 28.64 31.30 C 31.72 31.27 34.76 30.72 37.71 29.86 C 37.10 30.81 36.49 31.77 35.89 32.73 C 38.29 32.68 40.69 32.64 43.08 32.37 C 41.23 35.13 39.25 37.86 37.98 40.96 C 36.76 43.82 37.31 46.98 37.42 49.99 C 36.74 50.97 36.06 51.95 35.38 52.92 C 37.07 55.97 38.69 59.06 40.20 62.20 C 36.78 58.82 33.37 55.42 30.06 51.93 C 27.70 44.63 22.42 37.86 23.56 29.82 Z" />
<path fill="#afb9b8" opacity="1.00" d=" M 55.85 29.15 C 60.19 29.04 64.52 29.99 68.17 32.40 C 66.34 33.01 64.50 33.63 62.64 34.15 L 61.81 34.02 C 59.68 32.58 57.74 30.88 55.85 29.15 Z" />
<path fill="#040508" opacity="0.94" d=" M 22.14 38.70 C 21.03 35.68 21.83 32.43 23.56 29.82 C 22.42 37.86 27.70 44.63 30.06 51.93 C 26.65 48.05 23.97 43.52 22.14 38.70 Z" />
<path fill="#ffe5a1" opacity="1.00" d=" M 43.08 32.37 C 45.38 32.03 47.64 31.52 49.91 31.04 C 46.64 32.63 43.06 34.33 41.58 37.92 C 40.01 41.28 38.11 45.25 40.01 48.90 C 42.01 53.43 47.51 54.77 52.03 54.32 C 54.53 54.09 57.93 53.46 58.59 50.57 C 59.21 46.94 58.27 42.93 55.94 40.06 C 54.98 38.53 53.16 39.32 51.79 39.67 C 49.08 40.44 47.39 42.82 45.66 44.84 C 48.07 46.65 50.54 48.37 52.95 50.16 C 49.48 49.51 45.34 48.88 43.42 45.49 C 43.02 43.29 44.20 41.18 44.78 39.11 C 47.37 37.71 49.94 36.27 52.47 34.77 C 54.25 35.40 56.05 35.98 57.79 36.70 C 60.86 42.53 62.37 49.97 58.52 55.81 C 54.26 56.45 49.86 57.40 45.59 56.37 C 42.09 55.47 39.80 52.46 37.42 49.99 C 37.31 46.98 36.76 43.82 37.98 40.96 C 39.25 37.86 41.23 35.13 43.08 32.37 Z" />
<path fill="#373a45" opacity="1.00" d=" M 50.91 34.19 C 54.51 33.57 58.20 33.36 61.81 34.02 L 62.64 34.15 C 65.74 34.74 69.21 35.39 71.96 33.40 C 73.15 34.30 74.35 35.20 75.55 36.10 C 74.51 38.71 73.41 41.33 71.79 43.64 C 69.01 44.50 66.75 46.32 65.11 48.70 C 65.49 46.08 65.74 43.45 65.92 40.81 C 63.13 39.60 60.48 38.12 57.79 36.70 C 56.05 35.98 54.25 35.40 52.47 34.77 C 52.08 34.62 51.30 34.34 50.91 34.19 Z" />
<path fill="#252836" opacity="1.00" d=" M 57.79 36.70 C 60.48 38.12 63.13 39.60 65.92 40.81 C 65.74 43.45 65.49 46.08 65.11 48.70 C 66.75 46.32 69.01 44.50 71.79 43.64 C 69.11 47.42 66.32 51.14 64.22 55.29 C 61.61 60.65 56.85 64.41 53.44 69.20 C 53.79 64.31 56.39 60.08 58.52 55.81 C 62.37 49.97 60.86 42.53 57.79 36.70 Z" />
<path fill="#151521" opacity="1.00" d=" M 41.58 37.92 C 42.65 38.32 43.71 38.71 44.78 39.11 C 44.20 41.18 43.02 43.29 43.42 45.49 C 45.34 48.88 49.48 49.51 52.95 50.16 C 50.54 48.37 48.07 46.65 45.66 44.84 C 47.39 42.82 49.08 40.44 51.79 39.67 C 53.16 39.32 54.98 38.53 55.94 40.06 C 58.27 42.93 59.21 46.94 58.59 50.57 C 57.93 53.46 54.53 54.09 52.03 54.32 C 47.51 54.77 42.01 53.43 40.01 48.90 C 38.11 45.25 40.01 41.28 41.58 37.92 Z" />
<path fill="#110f1d" opacity="1.00" d=" M 35.38 52.92 C 36.06 51.95 36.74 50.97 37.42 49.99 C 39.80 52.46 42.09 55.47 45.59 56.37 C 49.86 57.40 54.26 56.45 58.52 55.81 C 56.39 60.08 53.79 64.31 53.44 69.20 C 51.99 71.13 50.42 72.96 48.85 74.79 C 45.44 72.77 42.39 70.16 40.11 66.91 C 36.64 62.00 32.43 57.52 30.06 51.93 C 33.37 55.42 36.78 58.82 40.20 62.20 C 38.69 59.06 37.07 55.97 35.38 52.92 Z" />
</svg>
