<?xml version="1.0" encoding="UTF-8" ?>
<!DOCTYPE svg PUBLIC "-//W3C//DTD SVG 1.1//EN" "http://www.w3.org/Graphics/SVG/1.1/DTD/svg11.dtd">
<svg width="100pt" height="100pt" viewBox="0 0 100 100" version="1.1" xmlns="http://www.w3.org/2000/svg">
<path fill="#090240" opacity="0.87" d=" M 48.41 0.00 L 50.48 0.00 C 56.61 4.53 63.52 7.98 69.21 13.11 L 68.52 12.79 C 61.53 9.78 56.15 3.82 48.83 1.53 C 47.45 1.92 46.08 2.37 44.73 2.85 C 45.97 1.92 47.17 0.93 48.41 0.00 Z" />
<path fill="#bec4b3" opacity="0.89" d=" M 48.83 1.53 C 56.15 3.82 61.53 9.78 68.52 12.79 C 67.23 12.84 65.95 12.93 64.66 13.03 C 61.44 10.83 57.65 10.17 53.85 9.95 C 50.21 9.71 49.48 5.51 48.96 2.64 L 48.83 1.53 Z" />
<path fill="#374775" opacity="0.88" d=" M 44.73 2.85 C 46.08 2.37 47.45 1.92 48.83 1.53 L 48.96 2.64 C 49.06 4.91 49.28 7.27 48.56 9.47 C 46.66 11.62 43.95 12.81 41.53 14.27 C 43.20 10.73 44.85 7.17 46.75 3.74 C 45.10 4.09 43.44 4.42 41.79 4.77 C 42.78 4.14 43.75 3.49 44.73 2.85 Z" />
<path fill="#7d919a" opacity="0.90" d=" M 48.96 2.64 C 49.48 5.51 50.21 9.71 53.85 9.95 C 57.65 10.17 61.44 10.83 64.66 13.03 C 64.14 14.80 63.60 16.55 63.06 18.31 C 58.20 15.66 53.96 12.01 49.03 9.49 C 49.75 11.56 50.69 13.60 52.50 14.95 C 52.79 15.21 53.38 15.74 53.67 16.00 C 43.71 16.83 36.04 24.17 29.47 31.04 C 30.21 31.15 30.96 31.26 31.70 31.37 C 32.42 31.68 33.87 32.29 34.59 32.60 C 34.65 33.02 34.77 33.86 34.83 34.28 C 30.95 33.41 27.04 32.73 23.09 32.35 C 22.22 38.04 22.15 43.80 22.09 49.55 C 21.72 49.73 21.00 50.10 20.63 50.28 C 20.61 49.79 20.56 48.80 20.53 48.30 C 20.37 41.12 21.08 33.85 19.50 26.77 C 17.07 34.84 19.92 43.53 16.58 51.41 C 16.48 42.99 15.91 34.54 16.45 26.13 C 16.39 24.15 18.32 23.17 19.68 22.12 C 20.88 22.59 22.05 23.97 23.42 23.36 C 27.74 21.69 31.71 19.14 35.31 16.26 C 36.92 15.03 37.14 12.90 37.80 11.13 C 38.27 9.95 38.75 8.77 39.30 7.64 C 40.13 6.68 40.96 5.73 41.79 4.77 C 43.44 4.42 45.10 4.09 46.75 3.74 C 44.85 7.17 43.20 10.73 41.53 14.27 C 43.95 12.81 46.66 11.62 48.56 9.47 C 49.28 7.27 49.06 4.91 48.96 2.64 M 23.24 26.15 C 21.66 26.99 20.84 28.55 20.47 30.25 C 23.38 29.56 26.21 28.43 28.56 26.55 C 32.89 23.23 37.37 20.06 41.12 16.07 C 34.61 18.36 28.98 22.44 23.24 26.15 Z" />
<path fill="#090240" opacity="0.87" d=" M 13.30 22.38 C 22.84 16.57 32.11 10.33 41.79 4.77 C 40.96 5.73 40.13 6.68 39.30 7.64 C 30.93 12.54 22.83 17.89 14.50 22.86 C 13.33 33.53 14.20 44.29 14.02 55.00 C 14.38 62.32 13.09 69.79 14.80 76.99 C 22.17 82.07 30.01 86.48 37.67 91.11 C 41.25 93.57 44.80 96.12 48.74 97.95 C 53.19 96.89 56.88 94.10 60.64 91.67 C 64.91 88.79 69.35 86.18 73.97 83.91 C 66.51 90.15 57.66 94.36 49.77 100.00 L 48.51 100.00 C 37.21 91.88 25.05 85.04 13.28 77.65 C 12.98 59.23 12.99 40.79 13.30 22.38 Z" />
<path fill="#d9dac9" opacity="0.94" d=" M 14.50 22.86 C 22.83 17.89 30.93 12.54 39.30 7.64 C 38.75 8.77 38.27 9.95 37.80 11.13 C 31.89 14.99 25.78 18.55 19.68 22.12 C 18.32 23.17 16.39 24.15 16.45 26.13 C 15.91 34.54 16.48 42.99 16.58 51.41 C 15.81 58.65 16.46 65.92 16.33 73.18 L 15.85 73.88 L 15.38 74.55 C 14.97 57.32 15.31 40.08 14.50 22.86 Z" />
<path fill="#cdccb9" opacity="0.91" d=" M 52.50 14.95 C 50.69 13.60 49.75 11.56 49.03 9.49 C 53.96 12.01 58.20 15.66 63.06 18.31 C 63.91 18.80 64.78 19.27 65.65 19.74 C 70.40 22.54 74.29 27.97 80.35 27.55 C 79.05 29.51 77.68 31.55 77.42 33.95 C 76.71 38.32 78.45 42.55 78.63 46.89 C 78.84 51.98 78.56 57.08 78.68 62.17 L 78.67 63.11 C 78.18 56.28 78.50 49.41 77.58 42.62 C 76.70 47.76 76.60 52.98 76.33 58.18 C 76.44 54.70 76.21 51.22 76.13 47.74 C 76.13 47.08 76.12 45.77 76.12 45.12 C 76.23 40.15 77.08 35.09 75.95 30.19 C 74.43 27.82 71.67 26.68 69.39 25.20 C 63.71 21.87 58.24 18.19 52.50 14.95 Z" />
<path fill="#cdccb9" opacity="0.91" d=" M 19.68 22.12 C 25.78 18.55 31.89 14.99 37.80 11.13 C 37.14 12.90 36.92 15.03 35.31 16.26 C 31.71 19.14 27.74 21.69 23.42 23.36 C 22.05 23.97 20.88 22.59 19.68 22.12 Z" />
<path fill="#6f78b1" opacity="0.82" d=" M 64.66 13.03 C 65.95 12.93 67.23 12.84 68.52 12.79 L 69.21 13.11 C 72.46 15.55 75.60 18.14 78.73 20.73 C 76.40 19.90 74.07 19.10 71.74 18.30 C 71.69 19.01 71.64 19.72 71.60 20.43 C 69.60 20.28 67.63 19.98 65.65 19.74 C 64.78 19.27 63.91 18.80 63.06 18.31 C 63.60 16.55 64.14 14.80 64.66 13.03 Z" />
<path fill="#393080" opacity="1.00" d=" M 69.21 13.11 C 74.66 16.16 80.78 18.57 85.08 23.23 C 85.69 26.10 85.50 29.07 85.51 31.99 C 85.35 45.35 85.44 58.71 85.50 72.06 C 85.28 74.06 85.80 76.58 84.05 78.02 C 81.16 80.69 77.42 82.12 73.97 83.91 C 76.46 81.91 78.81 79.75 81.32 77.77 C 82.28 77.43 83.25 77.11 84.22 76.81 C 84.30 73.07 84.21 69.33 83.89 65.61 C 83.77 63.38 83.52 61.16 83.35 58.93 C 83.04 54.14 82.81 49.34 82.58 44.54 C 83.28 38.02 83.47 31.47 84.06 24.95 C 82.58 24.90 81.07 24.92 79.61 24.60 C 79.19 23.34 78.98 22.03 78.73 20.73 C 75.60 18.14 72.46 15.55 69.21 13.11 Z" />
<path fill="#5d6373" opacity="0.87" d=" M 53.67 16.00 C 53.38 15.74 52.79 15.21 52.50 14.95 C 58.24 18.19 63.71 21.87 69.39 25.20 C 68.35 26.33 67.32 27.47 66.28 28.60 C 68.21 29.71 70.16 30.80 72.10 31.90 C 70.83 31.86 69.57 31.82 68.31 31.78 C 63.31 31.25 58.28 31.03 53.26 30.84 C 52.55 28.73 51.80 26.62 51.03 24.53 C 50.96 26.04 50.91 27.55 50.87 29.06 C 50.42 27.69 49.97 26.31 49.49 24.95 C 48.96 26.98 48.45 29.02 47.91 31.05 C 42.51 30.94 37.11 31.26 31.70 31.37 C 30.96 31.26 30.21 31.15 29.47 31.04 C 36.04 24.17 43.71 16.83 53.67 16.00 Z" />
<path fill="#c5d6d9" opacity="1.00" d=" M 23.24 26.15 C 28.98 22.44 34.61 18.36 41.12 16.07 C 37.37 20.06 32.89 23.23 28.56 26.55 C 26.21 28.43 23.38 29.56 20.47 30.25 C 20.84 28.55 21.66 26.99 23.24 26.15 Z" />
<path fill="#374394" opacity="0.80" d=" M 71.74 18.30 C 74.07 19.10 76.40 19.90 78.73 20.73 C 78.98 22.03 79.19 23.34 79.61 24.60 C 81.07 24.92 82.58 24.90 84.06 24.95 C 83.47 31.47 83.28 38.02 82.58 44.54 C 80.15 49.23 79.94 54.54 80.15 59.72 C 81.22 59.46 82.28 59.19 83.35 58.93 C 83.52 61.16 83.77 63.38 83.89 65.61 C 83.54 67.53 83.11 69.43 82.77 71.34 C 82.06 68.03 80.38 65.06 78.68 62.17 C 78.56 57.08 78.84 51.98 78.63 46.89 C 78.45 42.55 76.71 38.32 77.42 33.95 C 77.68 31.55 79.05 29.51 80.35 27.55 C 74.29 27.97 70.40 22.54 65.65 19.74 C 67.63 19.98 69.60 20.28 71.60 20.43 C 71.64 19.72 71.69 19.01 71.74 18.30 Z" />
<path fill="#c4b495" opacity="1.00" d=" M 14.02 55.00 C 14.20 44.29 13.33 33.53 14.50 22.86 C 15.31 40.08 14.97 57.32 15.38 74.55 L 15.17 75.38 C 15.08 75.78 14.90 76.59 14.80 76.99 C 13.09 69.79 14.38 62.32 14.02 55.00 Z" />
<path fill="#060130" opacity="0.65" d=" M 49.49 24.95 C 49.97 26.31 50.42 27.69 50.87 29.06 C 51.01 29.47 51.29 30.28 51.43 30.69 C 51.89 30.73 52.80 30.80 53.26 30.84 C 58.28 31.03 63.31 31.25 68.31 31.78 C 66.86 31.97 65.42 32.17 63.98 32.38 C 63.90 36.41 63.85 40.44 64.13 44.46 C 60.79 41.21 61.70 36.34 61.60 32.15 C 58.19 32.07 54.78 31.95 51.37 32.02 L 51.34 32.82 L 51.32 33.72 C 51.29 35.79 51.25 37.86 51.25 39.94 C 50.14 40.65 49.04 41.37 47.94 42.09 C 47.98 39.39 48.01 36.68 47.91 33.98 L 47.85 32.90 C 44.36 32.48 40.83 32.48 37.32 32.56 L 37.33 33.62 C 37.31 39.07 36.92 44.52 37.16 49.97 C 36.04 50.25 34.93 50.53 33.81 50.81 C 34.62 46.11 34.91 41.34 34.85 36.57 C 34.85 36.00 34.83 34.85 34.83 34.28 C 34.77 33.86 34.65 33.02 34.59 32.60 C 33.87 32.29 32.42 31.68 31.70 31.37 C 37.11 31.26 42.51 30.94 47.91 31.05 C 48.45 29.02 48.96 26.98 49.49 24.95 Z" />
<path fill="#b2c0bf" opacity="0.96" d=" M 51.03 24.53 C 51.80 26.62 52.55 28.73 53.26 30.84 C 52.80 30.80 51.89 30.73 51.43 30.69 C 51.29 30.28 51.01 29.47 50.87 29.06 C 50.91 27.55 50.96 26.04 51.03 24.53 Z" />
<path fill="#4c558d" opacity="0.87" d=" M 66.28 28.60 C 67.32 27.47 68.35 26.33 69.39 25.20 C 71.67 26.68 74.43 27.82 75.95 30.19 C 77.08 35.09 76.23 40.15 76.12 45.12 C 75.81 43.92 75.46 42.73 75.11 41.55 C 72.24 43.03 69.17 44.14 65.91 44.19 C 65.63 41.22 65.32 38.20 65.92 35.25 C 67.74 33.74 69.97 32.88 72.10 31.90 C 70.16 30.80 68.21 29.71 66.28 28.60 Z" />
<path fill="#557171" opacity="0.84" d=" M 16.58 51.41 C 19.92 43.53 17.07 34.84 19.50 26.77 C 21.08 33.85 20.37 41.12 20.53 48.30 C 20.23 47.16 19.91 46.02 19.57 44.89 C 18.15 52.07 17.96 59.42 18.33 66.71 C 18.58 69.08 17.81 71.35 16.33 73.18 C 16.46 65.92 15.81 58.65 16.58 51.41 Z" />
<path fill="#596763" opacity="0.80" d=" M 23.09 32.35 C 27.04 32.73 30.95 33.41 34.83 34.28 C 34.83 34.85 34.85 36.00 34.85 36.57 C 32.57 42.48 27.98 47.22 22.09 49.55 C 22.15 43.80 22.22 38.04 23.09 32.35 Z" />
<path fill="#090240" opacity="0.87" d=" M 51.37 32.02 C 54.78 31.95 58.19 32.07 61.60 32.15 C 61.70 36.34 60.79 41.21 64.13 44.46 C 64.61 48.68 66.34 53.27 64.40 57.34 C 61.73 60.28 57.90 61.74 54.63 63.88 C 55.58 58.54 61.95 55.75 61.22 50.01 C 61.24 48.58 61.26 47.15 61.26 45.72 C 61.35 41.81 61.38 37.89 61.16 33.98 L 61.06 32.93 C 57.83 32.72 54.58 32.75 51.34 32.82 L 51.37 32.02 Z" />
<path fill="#cdccb9" opacity="0.91" d=" M 63.98 32.38 C 65.42 32.17 66.86 31.97 68.31 31.78 C 69.57 31.82 70.83 31.86 72.10 31.90 C 69.97 32.88 67.74 33.74 65.92 35.25 C 65.32 38.20 65.63 41.22 65.91 44.19 C 66.37 48.44 67.20 52.72 66.70 57.00 C 64.38 60.31 61.01 62.64 57.72 64.89 C 56.80 65.51 55.88 66.12 54.95 66.73 C 54.79 66.20 54.46 65.14 54.30 64.61 L 54.63 63.88 C 57.90 61.74 61.73 60.28 64.40 57.34 C 66.34 53.27 64.61 48.68 64.13 44.46 C 63.85 40.44 63.90 36.41 63.98 32.38 Z" />
<path fill="#c4cecd" opacity="0.93" d=" M 37.32 32.56 C 40.83 32.48 44.36 32.48 47.85 32.90 L 47.91 33.98 C 44.95 34.10 41.99 34.17 39.03 34.24 C 39.04 41.05 39.35 47.85 39.53 54.65 C 39.55 55.01 39.57 55.73 39.58 56.09 C 39.21 55.58 38.46 54.54 38.09 54.02 C 37.50 47.24 37.79 40.41 37.33 33.62 L 37.32 32.56 Z" />
<path fill="#c2d1d4" opacity="0.98" d=" M 51.34 32.82 C 54.58 32.75 57.83 32.72 61.06 32.93 L 61.16 33.98 C 58.52 34.11 55.89 34.20 53.26 34.30 C 53.28 41.72 53.24 49.14 53.18 56.56 C 53.15 59.84 53.26 63.12 53.23 66.41 C 52.75 70.16 51.80 73.84 50.75 77.47 C 50.24 76.76 49.73 76.05 49.23 75.33 C 49.97 73.32 50.77 71.32 51.12 69.20 C 52.28 57.43 51.69 45.53 51.32 33.72 L 51.34 32.82 Z" />
<path fill="#637197" opacity="0.94" d=" M 37.33 33.62 C 37.79 40.41 37.50 47.24 38.09 54.02 C 37.69 52.69 37.39 51.34 37.16 49.97 C 36.92 44.52 37.31 39.07 37.33 33.62 Z" />
<path fill="#707e90" opacity="0.85" d=" M 39.03 34.24 C 41.99 34.17 44.95 34.10 47.91 33.98 C 48.01 36.68 47.98 39.39 47.94 42.09 C 47.83 50.46 47.64 58.85 47.87 67.22 C 46.73 56.78 47.85 46.24 46.57 35.80 C 46.14 44.05 45.34 52.32 46.02 60.58 C 44.14 58.31 41.96 56.32 39.53 54.65 C 39.35 47.85 39.04 41.05 39.03 34.24 Z" />
<path fill="#667699" opacity="0.96" d=" M 51.32 33.72 C 51.69 45.53 52.28 57.43 51.12 69.20 C 51.44 59.45 51.36 49.69 51.25 39.94 C 51.25 37.86 51.29 35.79 51.32 33.72 Z" />
<path fill="#66708d" opacity="0.95" d=" M 53.26 34.30 C 55.89 34.20 58.52 34.11 61.16 33.98 C 61.38 37.89 61.35 41.81 61.26 45.72 C 60.60 48.74 60.07 51.93 58.34 54.55 C 57.00 55.92 54.92 56.00 53.18 56.56 C 53.24 49.14 53.28 41.72 53.26 34.30 Z" />
<path fill="#659bb4" opacity="0.96" d=" M 46.57 35.80 C 47.85 46.24 46.73 56.78 47.87 67.22 C 48.11 69.95 48.65 72.65 49.23 75.33 C 48.20 73.78 47.26 72.17 46.33 70.57 C 43.95 72.98 41.48 75.31 38.96 77.57 C 37.58 76.96 36.19 76.39 34.79 75.82 C 38.65 79.27 43.16 81.84 47.14 85.13 C 47.85 85.75 48.56 86.38 49.25 87.02 C 49.18 87.86 49.04 89.54 48.97 90.38 C 44.35 85.91 38.56 83.05 33.16 79.69 L 32.55 79.21 C 33.12 79.27 34.25 79.38 34.81 79.44 C 34.43 78.69 34.04 77.95 33.64 77.22 C 31.00 73.13 26.41 71.00 22.78 67.93 C 24.50 67.56 26.22 67.19 27.94 66.86 C 30.10 63.73 32.46 60.63 33.61 56.96 C 37.06 59.44 40.67 61.71 44.47 63.62 C 43.10 60.95 41.42 58.46 39.58 56.09 C 39.57 55.73 39.55 55.01 39.53 54.65 C 41.96 56.32 44.14 58.31 46.02 60.58 C 45.34 52.32 46.14 44.05 46.57 35.80 Z" />
<path fill="#5a7794" opacity="0.79" d=" M 22.09 49.55 C 27.98 47.22 32.57 42.48 34.85 36.57 C 34.91 41.34 34.62 46.11 33.81 50.81 C 33.73 51.40 33.57 52.58 33.50 53.18 C 33.40 52.68 33.21 51.69 33.12 51.19 C 32.23 52.64 31.47 54.19 30.36 55.49 C 28.59 56.81 26.40 57.44 24.64 58.79 C 23.11 60.47 22.44 62.73 21.62 64.80 C 21.25 59.97 20.74 55.14 20.63 50.28 C 21.00 50.10 21.72 49.73 22.09 49.55 Z" />
<path fill="#0c0742" opacity="0.87" d=" M 47.94 42.09 C 49.04 41.37 50.14 40.65 51.25 39.94 C 51.36 49.69 51.44 59.45 51.12 69.20 C 50.77 71.32 49.97 73.32 49.23 75.33 C 48.65 72.65 48.11 69.95 47.87 67.22 C 47.64 58.85 47.83 50.46 47.94 42.09 Z" />
<path fill="#4458ac" opacity="0.94" d=" M 65.91 44.19 C 69.17 44.14 72.24 43.03 75.11 41.55 C 75.46 42.73 75.81 43.92 76.12 45.12 C 76.12 45.77 76.13 47.08 76.13 47.74 C 75.21 53.11 74.31 58.91 70.40 63.03 C 68.89 62.47 67.37 61.93 65.84 61.40 C 66.14 59.94 66.45 58.48 66.70 57.00 C 67.20 52.72 66.37 48.44 65.91 44.19 Z" />
<path fill="#dde5d7" opacity="0.95" d=" M 76.33 58.18 C 76.60 52.98 76.70 47.76 77.58 42.62 C 78.50 49.41 78.18 56.28 78.67 63.11 C 78.61 65.12 78.43 67.12 78.26 69.13 C 77.40 69.65 76.55 70.17 75.70 70.69 C 75.81 67.72 75.86 64.75 76.09 61.79 C 76.20 60.59 76.28 59.38 76.33 58.18 Z" />
<path fill="#294665" opacity="0.66" d=" M 18.33 66.71 C 17.96 59.42 18.15 52.07 19.57 44.89 C 19.91 46.02 20.23 47.16 20.53 48.30 C 20.56 48.80 20.61 49.79 20.63 50.28 C 20.74 55.14 21.25 59.97 21.62 64.80 C 20.96 67.20 20.22 69.57 19.47 71.93 C 18.26 72.57 17.04 73.20 15.85 73.88 L 16.33 73.18 C 17.81 71.35 18.58 69.08 18.33 66.71 Z" />
<path fill="#0825d0" opacity="0.82" d=" M 80.15 59.72 C 79.94 54.54 80.15 49.23 82.58 44.54 C 82.81 49.34 83.04 54.14 83.35 58.93 C 82.28 59.19 81.22 59.46 80.15 59.72 Z" />
<path fill="#5b7dc1" opacity="0.97" d=" M 58.34 54.55 C 60.07 51.93 60.60 48.74 61.26 45.72 C 61.26 47.15 61.24 48.58 61.22 50.01 C 61.95 55.75 55.58 58.54 54.63 63.88 L 54.30 64.61 C 54.04 65.06 53.50 65.96 53.23 66.41 C 53.26 63.12 53.15 59.84 53.18 56.56 C 54.92 56.00 57.00 55.92 58.34 54.55 Z" />
<path fill="#0b2990" opacity="0.87" d=" M 70.40 63.03 C 74.31 58.91 75.21 53.11 76.13 47.74 C 76.21 51.22 76.44 54.70 76.33 58.18 C 76.28 59.38 76.20 60.59 76.09 61.79 C 75.37 63.50 74.60 65.19 73.82 66.88 C 72.05 66.25 70.21 65.86 68.45 65.20 C 68.94 64.65 69.91 63.57 70.40 63.03 Z" />
<path fill="#0e0944" opacity="0.88" d=" M 33.81 50.81 C 34.93 50.53 36.04 50.25 37.16 49.97 C 37.39 51.34 37.69 52.69 38.09 54.02 C 38.46 54.54 39.21 55.58 39.58 56.09 C 41.42 58.46 43.10 60.95 44.47 63.62 C 40.67 61.71 37.06 59.44 33.61 56.96 C 33.61 55.70 33.55 54.44 33.50 53.18 C 33.57 52.58 33.73 51.40 33.81 50.81 Z" />
<path fill="#5783b2" opacity="0.84" d=" M 33.12 51.19 C 33.21 51.69 33.40 52.68 33.50 53.18 C 33.55 54.44 33.61 55.70 33.61 56.96 C 32.46 60.63 30.10 63.73 27.94 66.86 C 26.22 67.19 24.50 67.56 22.78 67.93 C 26.41 71.00 31.00 73.13 33.64 77.22 C 29.78 75.09 26.05 72.72 22.33 70.37 C 21.75 70.68 20.60 71.31 20.03 71.63 L 19.47 71.93 C 20.22 69.57 20.96 67.20 21.62 64.80 C 22.44 62.73 23.11 60.47 24.64 58.79 C 26.40 57.44 28.59 56.81 30.36 55.49 C 31.47 54.19 32.23 52.64 33.12 51.19 Z" />
<path fill="#547ca7" opacity="0.93" d=" M 57.72 64.89 C 61.01 62.64 64.38 60.31 66.70 57.00 C 66.45 58.48 66.14 59.94 65.84 61.40 C 67.37 61.93 68.89 62.47 70.40 63.03 C 69.91 63.57 68.94 64.65 68.45 65.20 C 67.87 65.82 67.28 66.44 66.69 67.06 C 64.90 68.51 63.06 69.89 61.27 71.34 C 59.91 70.97 58.55 70.61 57.19 70.24 C 57.37 68.46 57.54 66.67 57.72 64.89 Z" />
<path fill="#344a84" opacity="0.87" d=" M 73.82 66.88 C 74.60 65.19 75.37 63.50 76.09 61.79 C 75.86 64.75 75.81 67.72 75.70 70.69 C 74.22 71.60 72.75 72.52 71.27 73.43 C 71.75 72.26 72.23 71.09 72.71 69.92 C 69.22 71.67 65.73 73.40 62.25 75.15 C 63.77 72.47 65.15 69.72 66.69 67.06 C 67.28 66.44 67.87 65.82 68.45 65.20 C 70.21 65.86 72.05 66.25 73.82 66.88 Z" />
<path fill="#545e93" opacity="0.69" d=" M 78.67 63.11 L 78.68 62.17 C 80.38 65.06 82.06 68.03 82.77 71.34 C 82.67 72.51 82.56 73.67 82.44 74.83 C 74.35 73.82 69.43 82.31 61.50 82.24 C 66.13 79.30 70.92 76.58 75.46 73.50 C 77.05 72.55 77.68 70.79 78.26 69.13 C 78.43 67.12 78.61 65.12 78.67 63.11 Z" />
<path fill="#759f99" opacity="0.95" d=" M 53.23 66.41 C 53.50 65.96 54.04 65.06 54.30 64.61 C 54.46 65.14 54.79 66.20 54.95 66.73 C 55.88 66.12 56.80 65.51 57.72 64.89 C 57.54 66.67 57.37 68.46 57.19 70.24 C 58.55 70.61 59.91 70.97 61.27 71.34 C 57.42 74.56 54.00 78.28 51.08 82.37 C 50.59 82.36 49.61 82.34 49.12 82.33 C 49.34 81.34 49.56 80.34 49.78 79.35 C 48.82 80.16 47.86 80.96 46.90 81.78 C 44.27 80.34 41.67 78.85 38.96 77.57 C 41.48 75.31 43.95 72.98 46.33 70.57 C 47.26 72.17 48.20 73.78 49.23 75.33 C 49.73 76.05 50.24 76.76 50.75 77.47 C 51.80 73.84 52.75 70.16 53.23 66.41 Z" />
<path fill="#7c83a7" opacity="0.93" d=" M 82.77 71.34 C 83.11 69.43 83.54 67.53 83.89 65.61 C 84.21 69.33 84.30 73.07 84.22 76.81 C 83.25 77.11 82.28 77.43 81.32 77.77 C 74.05 79.68 68.42 84.98 61.87 88.39 C 62.40 86.91 62.94 85.43 63.49 83.95 C 58.67 86.72 53.85 89.50 48.96 92.16 L 48.96 91.24 L 48.97 90.38 C 52.59 87.28 56.70 84.86 60.85 82.56 L 61.50 82.24 C 69.43 82.31 74.35 73.82 82.44 74.83 C 82.56 73.67 82.67 72.51 82.77 71.34 Z" />
<path fill="#8e8666" opacity="0.86" d=" M 66.69 67.06 C 65.15 69.72 63.77 72.47 62.25 75.15 C 65.73 73.40 69.22 71.67 72.71 69.92 C 72.23 71.09 71.75 72.26 71.27 73.43 C 68.07 75.41 64.98 77.56 61.82 79.61 C 57.68 82.17 53.47 84.60 49.25 87.02 C 48.56 86.38 47.85 85.75 47.14 85.13 C 49.09 84.27 51.00 83.33 52.95 82.46 C 52.49 82.43 51.55 82.39 51.08 82.37 C 54.00 78.28 57.42 74.56 61.27 71.34 C 63.06 69.89 64.90 68.51 66.69 67.06 Z" />
<path fill="#90a2cf" opacity="1.00" d=" M 75.70 70.69 C 76.55 70.17 77.40 69.65 78.26 69.13 C 77.68 70.79 77.05 72.55 75.46 73.50 C 70.92 76.58 66.13 79.30 61.50 82.24 L 60.85 82.56 C 61.09 81.82 61.58 80.35 61.82 79.61 C 64.98 77.56 68.07 75.41 71.27 73.43 C 72.75 72.52 74.22 71.60 75.70 70.69 Z" />
<path fill="#a1c7ca" opacity="0.98" d=" M 20.03 71.63 C 20.60 71.31 21.75 70.68 22.33 70.37 C 26.05 72.72 29.78 75.09 33.64 77.22 C 34.04 77.95 34.43 78.69 34.81 79.44 C 34.25 79.38 33.12 79.27 32.55 79.21 C 29.00 76.33 24.80 74.50 20.75 72.46 L 20.03 71.63 Z" />
<path fill="#8ea197" opacity="0.81" d=" M 15.85 73.88 C 17.04 73.20 18.26 72.57 19.47 71.93 L 20.03 71.63 L 20.75 72.46 C 22.60 74.75 24.45 77.04 26.40 79.25 C 25.96 79.87 25.51 80.50 25.07 81.13 C 21.76 79.23 18.50 77.25 15.17 75.38 L 15.38 74.55 L 15.85 73.88 Z" />
<path fill="#627ba7" opacity="0.80" d=" M 20.75 72.46 C 24.80 74.50 29.00 76.33 32.55 79.21 L 33.16 79.69 C 35.66 86.43 43.19 88.28 48.96 91.24 L 48.96 92.16 C 48.98 93.49 48.96 94.82 48.91 96.16 C 45.75 94.25 42.64 92.26 39.47 90.35 C 34.95 86.87 30.06 83.90 25.07 81.13 C 25.51 80.50 25.96 79.87 26.40 79.25 C 24.45 77.04 22.60 74.75 20.75 72.46 Z" />
<path fill="#dde1d6" opacity="1.00" d=" M 15.17 75.38 C 18.50 77.25 21.76 79.23 25.07 81.13 C 30.06 83.90 34.95 86.87 39.47 90.35 C 39.02 90.54 38.12 90.92 37.67 91.11 C 30.01 86.48 22.17 82.07 14.80 76.99 C 14.90 76.59 15.08 75.78 15.17 75.38 Z" />
<path fill="#b5b9a3" opacity="0.93" d=" M 34.79 75.82 C 36.19 76.39 37.58 76.96 38.96 77.57 C 41.67 78.85 44.27 80.34 46.90 81.78 C 47.86 80.96 48.82 80.16 49.78 79.35 C 49.56 80.34 49.34 81.34 49.12 82.33 C 49.61 82.34 50.59 82.36 51.08 82.37 C 51.55 82.39 52.49 82.43 52.95 82.46 C 51.00 83.33 49.09 84.27 47.14 85.13 C 43.16 81.84 38.65 79.27 34.79 75.82 Z" />
<path fill="#c5cbd5" opacity="1.00" d=" M 61.87 88.39 C 68.42 84.98 74.05 79.68 81.32 77.77 C 78.81 79.75 76.46 81.91 73.97 83.91 C 69.35 86.18 64.91 88.79 60.64 91.67 C 56.88 94.10 53.19 96.89 48.74 97.95 C 52.40 93.88 57.25 91.21 61.87 88.39 Z" />
<path fill="#374775" opacity="0.88" d=" M 33.16 79.69 C 38.56 83.05 44.35 85.91 48.97 90.38 L 48.96 91.24 C 43.19 88.28 35.66 86.43 33.16 79.69 Z" />
<path fill="#d9e4dc" opacity="1.00" d=" M 49.25 87.02 C 53.47 84.60 57.68 82.17 61.82 79.61 C 61.58 80.35 61.09 81.82 60.85 82.56 C 56.70 84.86 52.59 87.28 48.97 90.38 C 49.04 89.54 49.18 87.86 49.25 87.02 Z" />
<path fill="#b5b9a3" opacity="0.93" d=" M 48.96 92.16 C 53.85 89.50 58.67 86.72 63.49 83.95 C 62.94 85.43 62.40 86.91 61.87 88.39 C 57.25 91.21 52.40 93.88 48.74 97.95 C 44.80 96.12 41.25 93.57 37.67 91.11 C 38.12 90.92 39.02 90.54 39.47 90.35 C 42.64 92.26 45.75 94.25 48.91 96.16 C 48.96 94.82 48.98 93.49 48.96 92.16 Z" />
</svg>
