<?xml version="1.0" encoding="UTF-8" ?>
<!DOCTYPE svg PUBLIC "-//W3C//DTD SVG 1.1//EN" "http://www.w3.org/Graphics/SVG/1.1/DTD/svg11.dtd">
<svg width="100pt" height="100pt" viewBox="0 0 100 100" version="1.1" xmlns="http://www.w3.org/2000/svg">
<path fill="#07080b" opacity="0.93" d=" M 33.86 26.74 C 42.29 24.67 51.12 24.04 59.72 25.40 C 65.15 26.25 71.08 26.92 75.49 30.52 C 77.68 32.21 78.03 35.33 76.72 37.67 C 71.62 48.43 65.25 58.57 58.20 68.17 C 56.03 70.84 53.62 74.08 49.97 74.58 C 46.35 74.13 43.77 71.12 41.46 68.57 C 35.69 61.52 30.53 53.99 25.83 46.19 C 24.27 43.52 22.69 40.80 21.88 37.79 C 21.09 35.03 22.38 32.29 23.27 29.73 C 23.20 37.33 26.47 44.40 30.17 50.85 C 32.89 55.54 36.98 59.17 40.33 63.37 C 42.71 67.07 44.71 72.76 49.83 72.96 C 53.53 70.70 55.92 66.94 58.71 63.72 C 63.58 57.96 67.66 51.58 71.20 44.93 C 72.81 42.06 74.30 39.13 75.68 36.14 C 74.53 35.17 73.39 34.20 72.24 33.23 C 72.89 32.82 74.19 32.00 74.84 31.59 C 62.30 24.76 47.60 25.43 33.86 26.74 Z" />
<path fill="#445061" opacity="1.00" d=" M 33.86 26.74 C 47.60 25.43 62.30 24.76 74.84 31.59 C 74.19 32.00 72.89 32.82 72.24 33.23 C 69.41 35.19 65.87 34.73 62.70 34.02 C 64.61 33.53 66.50 32.93 68.38 32.33 C 64.59 30.48 60.49 29.35 56.35 28.60 C 56.62 29.21 57.14 30.41 57.41 31.02 C 55.80 33.33 54.18 35.63 52.47 37.88 C 49.68 38.92 46.36 40.20 43.51 38.69 C 42.20 37.24 41.57 35.34 40.83 33.57 C 39.19 33.12 37.55 32.69 35.91 32.27 C 36.50 31.50 37.09 30.74 37.68 29.98 C 34.64 30.53 31.62 31.18 28.57 31.69 C 30.26 29.97 32.01 28.30 33.86 26.74 Z" />
<path fill="#333743" opacity="1.00" d=" M 23.27 29.73 C 26.59 28.13 30.25 27.39 33.86 26.74 C 32.01 28.30 30.26 29.97 28.57 31.69 C 31.62 31.18 34.64 30.53 37.68 29.98 C 37.09 30.74 36.50 31.50 35.91 32.27 C 37.55 32.69 39.19 33.12 40.83 33.57 C 41.57 35.34 42.20 37.24 43.51 38.69 C 46.36 40.20 49.68 38.92 52.47 37.88 C 50.47 40.68 48.85 43.74 47.30 46.81 C 43.90 43.48 39.54 41.41 34.82 40.85 C 35.66 41.33 36.51 41.79 37.36 42.25 C 36.94 42.52 36.10 43.05 35.68 43.32 C 34.62 50.37 37.15 57.21 40.33 63.37 C 36.98 59.17 32.89 55.54 30.17 50.85 C 26.47 44.40 23.20 37.33 23.27 29.73 Z" />
<path fill="#acb5b5" opacity="1.00" d=" M 56.35 28.60 C 60.49 29.35 64.59 30.48 68.38 32.33 C 66.50 32.93 64.61 33.53 62.70 34.02 C 61.24 33.76 59.79 33.44 58.34 33.13 C 58.11 32.60 57.64 31.54 57.41 31.02 C 57.14 30.41 56.62 29.21 56.35 28.60 Z" />
<path fill="#ffdd92" opacity="1.00" d=" M 57.41 31.02 C 57.64 31.54 58.11 32.60 58.34 33.13 C 57.41 35.32 56.50 37.51 55.44 39.64 C 53.26 43.60 50.38 47.11 47.41 50.50 C 44.88 46.85 41.47 43.97 37.36 42.25 C 36.51 41.79 35.66 41.33 34.82 40.85 C 39.54 41.41 43.90 43.48 47.30 46.81 C 48.85 43.74 50.47 40.68 52.47 37.88 C 54.18 35.63 55.80 33.33 57.41 31.02 Z" />
<path fill="#333742" opacity="1.00" d=" M 58.34 33.13 C 59.79 33.44 61.24 33.76 62.70 34.02 C 65.87 34.73 69.41 35.19 72.24 33.23 C 73.39 34.20 74.53 35.17 75.68 36.14 C 74.30 39.13 72.81 42.06 71.20 44.93 C 66.89 47.09 64.10 51.07 61.84 55.17 C 61.87 54.79 61.93 54.03 61.96 53.66 C 62.07 52.43 62.20 51.21 62.33 49.99 C 62.38 47.67 63.22 45.14 62.23 42.94 C 60.72 41.73 58.64 41.65 56.83 41.13 C 56.37 40.63 55.90 40.14 55.44 39.64 C 56.50 37.51 57.41 35.32 58.34 33.13 Z" />
<path fill="#151521" opacity="1.00" d=" M 47.41 50.50 C 50.38 47.11 53.26 43.60 55.44 39.64 C 55.90 40.14 56.37 40.63 56.83 41.13 C 58.64 41.65 60.72 41.73 62.23 42.94 C 63.22 45.14 62.38 47.67 62.33 49.99 C 53.98 48.57 45.96 52.42 38.55 55.74 C 44.33 55.44 49.80 53.42 55.45 52.38 C 57.72 51.88 59.92 52.71 61.96 53.66 C 61.93 54.03 61.87 54.79 61.84 55.17 C 64.10 51.07 66.89 47.09 71.20 44.93 C 67.66 51.58 63.58 57.96 58.71 63.72 C 55.92 66.94 53.53 70.70 49.83 72.96 C 44.71 72.76 42.71 67.07 40.33 63.37 C 37.15 57.21 34.62 50.37 35.68 43.32 C 36.10 43.05 36.94 42.52 37.36 42.25 C 41.47 43.97 44.88 46.85 47.41 50.50 Z" />
<path fill="#fff698" opacity="1.00" d=" M 38.55 55.74 C 45.96 52.42 53.98 48.57 62.33 49.99 C 62.20 51.21 62.07 52.43 61.96 53.66 C 59.92 52.71 57.72 51.88 55.45 52.38 C 49.80 53.42 44.33 55.44 38.55 55.74 Z" />
</svg>
