<?xml version="1.0" encoding="UTF-8" ?>
<!DOCTYPE svg PUBLIC "-//W3C//DTD SVG 1.1//EN" "http://www.w3.org/Graphics/SVG/1.1/DTD/svg11.dtd">
<svg width="100pt" height="100pt" viewBox="0 0 100 100" version="1.1" xmlns="http://www.w3.org/2000/svg">
<path fill="#06070a" opacity="0.92" d=" M 36.90 26.16 C 47.91 23.68 59.59 24.48 70.37 27.70 C 74.00 28.83 78.82 31.96 77.20 36.40 C 72.30 47.49 65.69 57.76 58.63 67.59 C 56.35 70.47 53.86 73.99 49.97 74.59 C 46.35 74.11 43.78 71.11 41.46 68.56 C 35.69 61.52 30.55 53.97 25.85 46.18 C 24.28 43.52 22.68 40.81 21.89 37.80 C 21.00 34.99 22.56 32.26 23.14 29.56 C 23.67 42.21 30.70 53.59 39.54 62.24 C 41.90 66.15 43.82 71.01 48.33 72.88 C 49.89 73.53 51.17 72.18 52.22 71.24 C 59.63 63.32 66.19 54.59 71.19 44.95 C 72.91 42.15 74.29 39.17 75.62 36.17 C 74.48 35.18 73.35 34.20 72.22 33.20 C 72.86 32.79 74.14 31.96 74.78 31.55 C 63.20 25.36 49.66 25.37 36.90 26.16 Z" />
<path fill="#495362" opacity="1.00" d=" M 33.73 26.70 C 34.76 26.38 35.82 26.20 36.90 26.16 C 49.66 25.37 63.20 25.36 74.78 31.55 C 74.14 31.96 72.86 32.79 72.22 33.20 C 67.51 36.34 61.75 34.18 56.77 33.01 C 60.40 32.71 64.06 32.84 67.70 32.58 C 65.45 31.86 64.06 29.47 61.59 29.40 C 56.75 28.83 53.30 33.13 50.69 36.59 C 49.19 38.42 47.66 40.23 46.16 42.07 C 44.74 40.46 43.35 38.82 41.83 37.31 C 42.50 35.94 43.15 34.55 43.78 33.16 C 44.30 34.69 47.34 35.36 47.43 33.26 C 46.86 31.91 45.13 32.55 44.03 32.58 C 41.45 32.89 38.85 32.95 36.25 33.00 C 36.74 32.03 37.20 31.02 37.33 29.93 C 34.42 30.60 31.49 31.12 28.56 31.68 C 30.36 30.10 32.10 28.46 33.73 26.70 Z" />
<path fill="#333643" opacity="1.00" d=" M 23.14 29.56 C 26.64 28.51 30.14 27.40 33.73 26.70 C 32.10 28.46 30.36 30.10 28.56 31.68 C 31.49 31.12 34.42 30.60 37.33 29.93 C 37.20 31.02 36.74 32.03 36.25 33.00 C 38.85 32.95 41.45 32.89 44.03 32.58 L 43.78 33.16 C 43.15 34.55 42.50 35.94 41.83 37.31 C 38.95 36.02 35.94 35.06 32.97 34.03 C 36.12 35.82 39.31 37.55 42.27 39.66 C 39.73 41.52 35.54 42.82 35.49 46.56 C 35.29 52.02 37.32 57.34 39.54 62.24 C 30.70 53.59 23.67 42.21 23.14 29.56 Z" />
<path fill="#afb9b8" opacity="1.00" d=" M 50.69 36.59 C 53.30 33.13 56.75 28.83 61.59 29.40 C 64.06 29.47 65.45 31.86 67.70 32.58 C 64.06 32.84 60.40 32.71 56.77 33.01 C 54.53 34.69 52.39 36.50 50.21 38.26 C 50.33 37.84 50.57 37.00 50.69 36.59 Z" />
<path fill="#dcc98b" opacity="1.00" d=" M 44.03 32.58 C 45.13 32.55 46.86 31.91 47.43 33.26 C 47.34 35.36 44.30 34.69 43.78 33.16 L 44.03 32.58 Z" />
<path fill="#343843" opacity="1.00" d=" M 50.21 38.26 C 52.39 36.50 54.53 34.69 56.77 33.01 C 61.75 34.18 67.51 36.34 72.22 33.20 C 73.35 34.20 74.48 35.18 75.62 36.17 C 74.29 39.17 72.91 42.15 71.19 44.95 C 66.98 47.91 63.51 51.74 61.05 56.28 C 60.01 55.75 58.97 55.23 57.93 54.71 C 60.18 52.31 62.68 49.91 63.78 46.72 C 64.26 45.04 63.92 42.69 62.26 41.81 C 58.05 41.17 53.78 41.21 49.53 41.15 C 49.75 40.19 49.98 39.22 50.21 38.26 Z" />
<path fill="#ffeaad" opacity="1.00" d=" M 32.97 34.03 C 35.94 35.06 38.95 36.02 41.83 37.31 C 43.35 38.82 44.74 40.46 46.16 42.07 C 47.66 40.23 49.19 38.42 50.69 36.59 C 50.57 37.00 50.33 37.84 50.21 38.26 C 49.98 39.22 49.75 40.19 49.53 41.15 C 49.03 43.19 48.45 45.38 49.40 47.39 C 50.57 51.31 54.60 53.01 57.93 54.71 C 58.97 55.23 60.01 55.75 61.05 56.28 C 56.21 55.92 51.52 54.34 47.91 51.02 C 46.22 53.99 44.39 56.89 42.23 59.54 C 43.00 55.91 44.18 52.38 44.81 48.72 C 45.50 45.47 43.76 42.41 42.27 39.66 C 39.31 37.55 36.12 35.82 32.97 34.03 Z" />
<path fill="#151421" opacity="1.00" d=" M 35.49 46.56 C 35.54 42.82 39.73 41.52 42.27 39.66 C 43.76 42.41 45.50 45.47 44.81 48.72 C 44.18 52.38 43.00 55.91 42.23 59.54 C 44.39 56.89 46.22 53.99 47.91 51.02 C 51.52 54.34 56.21 55.92 61.05 56.28 C 63.51 51.74 66.98 47.91 71.19 44.95 C 66.19 54.59 59.63 63.32 52.22 71.24 C 51.17 72.18 49.89 73.53 48.33 72.88 C 43.82 71.01 41.90 66.15 39.54 62.24 C 37.32 57.34 35.29 52.02 35.49 46.56 M 48.15 55.18 C 46.33 55.58 47.34 58.39 49.00 57.90 C 50.85 57.52 49.81 54.67 48.15 55.18 Z" />
<path fill="#191926" opacity="1.00" d=" M 49.40 47.39 C 48.45 45.38 49.03 43.19 49.53 41.15 C 53.78 41.21 58.05 41.17 62.26 41.81 C 63.92 42.69 64.26 45.04 63.78 46.72 C 62.68 49.91 60.18 52.31 57.93 54.71 C 54.60 53.01 50.57 51.31 49.40 47.39 Z" />
<path fill="#ffeaad" opacity="1.00" d=" M 48.15 55.18 C 49.81 54.67 50.85 57.52 49.00 57.90 C 47.34 58.39 46.33 55.58 48.15 55.18 Z" />
</svg>
