<?xml version="1.0" encoding="UTF-8" ?>
<!DOCTYPE svg PUBLIC "-//W3C//DTD SVG 1.1//EN" "http://www.w3.org/Graphics/SVG/1.1/DTD/svg11.dtd">
<svg width="100pt" height="100pt" viewBox="0 0 100 100" version="1.1" xmlns="http://www.w3.org/2000/svg">
<path fill="#07090c" opacity="0.93" d=" M 33.73 26.74 C 42.21 24.71 51.08 24.08 59.72 25.42 C 64.94 26.19 70.52 26.86 74.92 30.06 C 77.13 31.53 78.27 34.57 76.99 37.02 C 71.86 48.03 65.36 58.36 58.20 68.16 C 56.04 70.86 53.61 74.04 49.97 74.60 C 46.12 74.04 43.44 70.77 41.01 68.02 C 34.28 59.52 28.00 50.59 23.02 40.95 C 20.98 37.42 21.44 33.22 23.38 29.76 C 23.05 37.13 26.40 43.92 29.81 50.22 C 32.55 55.19 36.85 58.98 40.38 63.35 C 42.66 67.15 44.73 72.77 49.87 73.02 C 53.35 70.85 55.57 67.27 58.25 64.26 C 63.38 58.41 67.49 51.76 71.21 44.95 C 72.87 42.11 74.27 39.13 75.63 36.14 C 74.44 35.22 73.31 34.25 72.25 33.20 C 72.88 32.79 74.13 31.98 74.75 31.58 C 68.96 28.44 62.46 27.00 55.98 26.15 C 48.56 25.16 41.15 26.78 33.73 26.74 Z" />
<path fill="#495261" opacity="1.00" d=" M 33.73 26.74 C 41.15 26.78 48.56 25.16 55.98 26.15 C 62.46 27.00 68.96 28.44 74.75 31.58 C 74.13 31.98 72.88 32.79 72.25 33.20 C 69.40 35.17 65.84 34.62 62.61 34.29 C 64.51 33.68 66.39 32.98 68.26 32.28 C 64.45 30.21 60.19 29.20 55.87 29.03 C 57.77 30.83 59.69 32.62 61.77 34.22 C 58.87 33.98 55.95 34.04 53.05 34.22 C 50.43 34.33 47.81 34.40 45.20 34.16 C 42.19 33.54 39.22 32.70 36.23 31.99 C 37.06 31.29 37.89 30.60 38.72 29.90 C 35.44 30.47 32.15 31.00 28.84 31.42 C 30.47 29.86 32.09 28.29 33.73 26.74 Z" />
<path fill="#333844" opacity="1.00" d=" M 23.38 29.76 C 26.59 28.07 30.21 27.44 33.73 26.74 C 32.09 28.29 30.47 29.86 28.84 31.42 C 32.15 31.00 35.44 30.47 38.72 29.90 C 37.89 30.60 37.06 31.29 36.23 31.99 C 39.22 32.70 42.19 33.54 45.20 34.16 C 43.02 36.66 41.12 39.49 38.41 41.46 C 36.10 42.59 33.50 42.90 31.01 43.43 C 32.09 43.86 33.18 44.28 34.26 44.73 C 33.89 44.56 33.15 44.22 32.78 44.05 C 36.56 49.98 36.68 57.35 40.38 63.35 C 36.85 58.98 32.55 55.19 29.81 50.22 C 26.40 43.92 23.05 37.13 23.38 29.76 Z" />
<path fill="#afb9b8" opacity="1.00" d=" M 55.87 29.03 C 60.19 29.20 64.45 30.21 68.26 32.28 C 66.39 32.98 64.51 33.68 62.61 34.29 L 61.77 34.22 C 59.69 32.62 57.77 30.83 55.87 29.03 Z" />
<path fill="#353843" opacity="1.00" d=" M 53.05 34.22 C 55.95 34.04 58.87 33.98 61.77 34.22 L 62.61 34.29 C 65.84 34.62 69.40 35.17 72.25 33.20 C 73.31 34.25 74.44 35.22 75.63 36.14 C 74.27 39.13 72.87 42.11 71.21 44.95 C 66.58 47.49 63.73 52.00 60.87 56.25 C 60.22 55.20 59.57 54.14 58.93 53.07 C 60.95 50.70 62.96 48.30 64.90 45.85 C 64.10 45.80 62.50 45.69 61.69 45.64 C 63.52 45.29 65.34 44.88 67.15 44.49 C 64.52 43.65 61.66 43.22 59.33 41.66 C 56.91 39.48 55.12 36.72 53.05 34.22 Z" />
<path fill="#ffea9f" opacity="1.00" d=" M 45.20 34.16 C 47.81 34.40 50.43 34.33 53.05 34.22 C 55.12 36.72 56.91 39.48 59.33 41.66 C 61.66 43.22 64.52 43.65 67.15 44.49 C 65.34 44.88 63.52 45.29 61.69 45.64 C 61.03 45.71 59.70 45.84 59.03 45.91 C 57.26 49.00 55.87 52.89 52.36 54.40 C 48.63 55.57 44.39 54.10 41.78 51.27 C 39.44 48.92 37.63 45.75 34.26 44.73 C 33.18 44.28 32.09 43.86 31.01 43.43 C 33.50 42.90 36.10 42.59 38.41 41.46 C 41.12 39.49 43.02 36.66 45.20 34.16 M 43.13 39.32 C 42.30 42.08 39.60 45.35 42.04 47.97 C 44.54 51.11 49.48 54.08 53.25 51.29 C 56.93 48.39 57.45 43.25 55.86 39.08 C 53.89 37.46 51.84 35.12 48.99 35.70 C 46.47 35.69 44.80 37.74 43.13 39.32 Z" />
<path fill="#3d4653" opacity="1.00" d=" M 43.13 39.32 C 44.80 37.74 46.47 35.69 48.99 35.70 C 51.84 35.12 53.89 37.46 55.86 39.08 C 53.93 39.96 52.03 40.96 49.95 41.43 C 47.53 41.37 45.34 40.16 43.13 39.32 Z" />
<path fill="#14141f" opacity="1.00" d=" M 43.13 39.32 C 45.34 40.16 47.53 41.37 49.95 41.43 C 52.03 40.96 53.93 39.96 55.86 39.08 C 57.45 43.25 56.93 48.39 53.25 51.29 C 49.48 54.08 44.54 51.11 42.04 47.97 C 39.60 45.35 42.30 42.08 43.13 39.32 Z" />
<path fill="#141420" opacity="1.00" d=" M 32.78 44.05 C 33.15 44.22 33.89 44.56 34.26 44.73 C 37.63 45.75 39.44 48.92 41.78 51.27 C 44.39 54.10 48.63 55.57 52.36 54.40 C 55.87 52.89 57.26 49.00 59.03 45.91 C 59.70 45.84 61.03 45.71 61.69 45.64 C 62.50 45.69 64.10 45.80 64.90 45.85 C 62.96 48.30 60.95 50.70 58.93 53.07 C 59.57 54.14 60.22 55.20 60.87 56.25 C 63.73 52.00 66.58 47.49 71.21 44.95 C 67.49 51.76 63.38 58.41 58.25 64.26 C 55.57 67.27 53.35 70.85 49.87 73.02 C 44.73 72.77 42.66 67.15 40.38 63.35 C 36.68 57.35 36.56 49.98 32.78 44.05 Z" />
</svg>
