<?xml version="1.0" encoding="UTF-8" ?>
<!DOCTYPE svg PUBLIC "-//W3C//DTD SVG 1.1//EN" "http://www.w3.org/Graphics/SVG/1.1/DTD/svg11.dtd">
<svg width="100pt" height="100pt" viewBox="0 0 100 100" version="1.1" xmlns="http://www.w3.org/2000/svg">
<path fill="#070040" opacity="0.91" d=" M 48.40 0.00 L 50.46 0.00 C 56.70 4.44 63.41 8.20 69.37 13.02 L 68.48 12.96 C 61.70 9.66 56.21 4.02 49.00 1.56 C 48.56 1.79 47.69 2.25 47.26 2.49 C 45.54 3.47 43.82 4.47 42.19 5.59 C 40.32 6.86 38.44 8.13 36.61 9.47 C 29.10 13.67 21.87 18.34 14.59 22.92 C 13.15 33.54 14.28 44.32 14.02 55.01 C 14.49 62.31 12.80 69.89 15.07 76.99 C 17.17 78.99 19.78 80.33 22.24 81.83 C 27.42 84.81 32.35 88.20 37.62 91.03 C 41.22 93.51 44.78 96.10 48.74 97.99 C 57.96 94.92 65.07 87.73 73.96 83.89 C 66.49 90.12 57.67 94.38 49.77 100.00 L 48.52 100.00 C 37.18 91.92 25.09 84.96 13.24 77.67 C 13.02 59.23 13.03 40.79 13.26 22.35 C 25.10 15.11 36.86 7.72 48.40 0.00 Z" />
<path fill="#bec4b3" opacity="0.89" d=" M 49.00 1.56 C 56.21 4.02 61.70 9.66 68.48 12.96 C 67.21 12.89 65.93 12.84 64.66 12.68 C 61.27 11.05 57.64 10.11 53.89 9.80 C 50.20 9.72 49.51 5.48 49.04 2.63 L 49.00 1.56 Z" />
<path fill="#3c4875" opacity="0.87" d=" M 47.26 2.49 C 47.69 2.25 48.56 1.79 49.00 1.56 L 49.04 2.63 C 49.07 5.04 48.98 7.46 48.87 9.87 C 47.01 10.91 45.16 11.97 43.32 13.04 C 44.85 9.61 46.23 6.10 47.26 2.49 Z" />
<path fill="#737a8d" opacity="0.87" d=" M 42.19 5.59 C 43.82 4.47 45.54 3.47 47.26 2.49 C 46.23 6.10 44.85 9.61 43.32 13.04 C 45.16 11.97 47.01 10.91 48.87 9.87 C 50.69 13.48 53.85 16.08 57.33 18.01 C 52.55 16.93 47.29 16.20 43.10 19.39 C 41.69 19.64 40.27 19.81 38.85 19.99 C 40.55 18.02 42.30 16.10 44.08 14.21 C 41.38 15.06 38.65 15.81 35.96 16.71 C 38.09 13.04 39.79 9.11 42.19 5.59 Z" />
<path fill="#919ea0" opacity="0.89" d=" M 49.04 2.63 C 49.51 5.48 50.20 9.72 53.89 9.80 C 57.64 10.11 61.27 11.05 64.66 12.68 C 64.11 14.55 63.54 16.41 62.97 18.28 C 58.16 15.64 53.88 12.14 48.87 9.87 C 48.98 7.46 49.07 5.04 49.04 2.63 Z" />
<path fill="#cdccb9" opacity="0.91" d=" M 36.61 9.47 C 38.44 8.13 40.32 6.86 42.19 5.59 C 39.79 9.11 38.09 13.04 35.96 16.71 C 30.82 18.70 26.13 21.58 21.34 24.26 C 21.22 23.32 21.10 22.38 20.99 21.44 C 26.41 17.76 33.46 15.69 36.61 9.47 Z" />
<path fill="#dcdcc8" opacity="0.94" d=" M 14.59 22.92 C 21.87 18.34 29.10 13.67 36.61 9.47 C 33.46 15.69 26.41 17.76 20.99 21.44 C 19.35 22.41 17.69 23.35 16.04 24.28 C 15.58 33.31 15.77 42.34 16.38 51.35 C 15.44 58.64 16.25 65.97 16.37 73.28 L 15.87 74.00 L 15.09 74.49 C 15.48 57.31 14.74 40.11 14.59 22.92 Z" />
<path fill="#cdccb9" opacity="0.91" d=" M 48.87 9.87 C 53.88 12.14 58.16 15.64 62.97 18.28 C 63.85 18.77 64.75 19.24 65.65 19.72 C 69.78 22.55 73.74 25.62 77.97 28.32 C 78.81 27.82 79.65 27.31 80.48 26.80 C 77.57 30.90 76.73 35.97 77.66 40.87 C 79.13 48.26 78.73 55.79 78.25 63.26 C 77.73 56.45 77.57 49.62 77.48 42.80 C 77.41 47.96 77.07 53.11 76.46 58.24 C 76.46 54.74 76.19 51.26 76.12 47.77 C 76.12 47.12 76.13 45.82 76.14 45.17 C 76.41 39.85 76.49 34.52 76.11 29.21 C 74.58 28.33 73.05 27.46 71.53 26.56 C 66.81 23.69 62.11 20.78 57.33 18.01 C 53.85 16.08 50.69 13.48 48.87 9.87 Z" />
<path fill="#6f78b1" opacity="0.82" d=" M 64.66 12.68 C 65.93 12.84 67.21 12.89 68.48 12.96 L 69.37 13.02 C 72.45 15.81 75.53 18.61 78.92 21.01 C 76.42 19.95 73.84 19.09 71.28 18.21 C 71.75 19.11 72.22 20.00 72.70 20.89 C 70.34 20.53 67.98 20.20 65.65 19.72 C 64.75 19.24 63.85 18.77 62.97 18.28 C 63.54 16.41 64.11 14.55 64.66 12.68 Z" />
<path fill="#393b91" opacity="1.00" d=" M 69.37 13.02 C 74.64 16.33 80.80 18.56 85.06 23.24 C 85.64 25.77 85.50 28.40 85.52 30.99 C 85.34 44.68 85.45 58.38 85.50 72.07 C 85.28 74.06 85.76 76.56 84.03 78.01 C 81.13 80.67 77.40 82.10 73.96 83.89 C 76.43 81.90 78.78 79.77 81.36 77.91 C 82.29 77.47 83.23 77.04 84.17 76.63 C 84.18 73.62 84.19 70.61 84.05 67.61 C 84.03 65.32 82.94 63.26 81.98 61.25 C 82.84 56.21 83.33 51.11 83.26 45.99 C 83.15 38.86 83.37 31.72 83.82 24.60 C 82.09 24.35 80.37 24.11 78.64 23.86 C 78.94 23.02 79.25 22.19 79.55 21.35 L 78.92 21.01 C 75.53 18.61 72.45 15.81 69.37 13.02 Z" />
<path fill="#acbaae" opacity="0.90" d=" M 35.96 16.71 C 38.65 15.81 41.38 15.06 44.08 14.21 C 42.30 16.10 40.55 18.02 38.85 19.99 C 40.27 19.81 41.69 19.64 43.10 19.39 C 41.25 20.60 39.45 21.88 37.61 23.12 C 36.72 23.72 35.82 24.31 34.91 24.87 C 31.84 26.63 28.54 27.99 25.12 28.93 C 29.68 25.54 33.92 21.73 38.17 17.96 C 31.67 20.91 24.73 23.97 20.50 30.02 C 20.05 28.95 19.59 27.88 19.14 26.81 C 16.37 34.79 19.33 43.40 16.38 51.35 C 15.77 42.34 15.58 33.31 16.04 24.28 C 17.69 23.35 19.35 22.41 20.99 21.44 C 21.10 22.38 21.22 23.32 21.34 24.26 C 26.13 21.58 30.82 18.70 35.96 16.71 Z" />
<path fill="#585b75" opacity="0.87" d=" M 43.10 19.39 C 47.29 16.20 52.55 16.93 57.33 18.01 C 62.11 20.78 66.81 23.69 71.53 26.56 C 70.95 30.81 70.09 35.01 68.91 39.14 C 67.98 38.72 67.06 38.30 66.14 37.89 C 64.17 36.45 62.22 34.97 60.41 33.34 C 57.74 28.77 54.29 24.69 50.23 21.30 L 49.73 21.56 C 49.37 21.78 48.66 22.21 48.30 22.42 C 47.25 23.07 46.19 23.73 45.17 24.44 C 42.66 23.98 40.14 23.54 37.61 23.12 C 39.45 21.88 41.25 20.60 43.10 19.39 Z" />
<path fill="#ccdddf" opacity="1.00" d=" M 20.50 30.02 C 24.73 23.97 31.67 20.91 38.17 17.96 C 33.92 21.73 29.68 25.54 25.12 28.93 C 23.60 29.37 22.05 29.69 20.50 30.02 Z" />
<path fill="#353e8a" opacity="0.80" d=" M 71.28 18.21 C 73.84 19.09 76.42 19.95 78.92 21.01 L 79.55 21.35 C 79.25 22.19 78.94 23.02 78.64 23.86 C 80.37 24.11 82.09 24.35 83.82 24.60 C 83.37 31.72 83.15 38.86 83.26 45.99 C 82.69 45.97 81.54 45.92 80.97 45.89 C 81.18 43.23 81.31 40.57 81.42 37.90 C 80.17 38.89 78.92 39.88 77.66 40.87 C 76.73 35.97 77.57 30.90 80.48 26.80 C 79.65 27.31 78.81 27.82 77.97 28.32 C 73.74 25.62 69.78 22.55 65.65 19.72 C 67.98 20.20 70.34 20.53 72.70 20.89 C 72.22 20.00 71.75 19.11 71.28 18.21 Z" />
<path fill="#bec4b3" opacity="0.89" d=" M 50.23 21.30 C 54.29 24.69 57.74 28.77 60.41 33.34 C 56.43 29.82 52.89 25.83 49.73 21.56 L 50.23 21.30 Z" />
<path fill="#718a93" opacity="0.89" d=" M 45.17 24.44 C 46.19 23.73 47.25 23.07 48.30 22.42 C 44.17 28.24 38.86 32.99 33.35 37.46 C 36.47 32.46 40.71 28.23 45.17 24.44 Z" />
<path fill="#070040" opacity="0.91" d=" M 48.30 22.42 C 48.66 22.21 49.37 21.78 49.73 21.56 C 52.89 25.83 56.43 29.82 60.41 33.34 C 62.22 34.97 64.17 36.45 66.14 37.89 C 66.22 40.16 66.16 42.43 66.01 44.70 C 65.78 43.31 65.56 41.92 65.34 40.52 C 63.80 41.36 62.25 42.20 60.71 43.04 C 62.38 44.80 64.04 46.58 65.84 48.21 C 67.56 49.43 69.39 50.46 71.23 51.47 C 69.96 58.74 65.34 64.81 59.75 69.39 C 60.42 68.01 61.02 66.59 61.64 65.18 C 60.81 64.04 59.99 62.89 59.16 61.75 C 58.44 60.27 56.59 60.06 55.26 60.81 C 55.40 59.36 55.55 57.92 55.69 56.48 C 54.86 57.52 54.04 58.57 53.27 59.66 C 52.42 62.84 52.54 66.14 52.30 69.39 C 52.10 72.30 50.36 74.76 49.24 77.36 C 47.80 72.70 46.61 67.92 46.81 63.00 C 46.29 60.07 44.40 57.71 42.48 55.54 C 42.98 57.34 43.52 59.13 44.07 60.91 C 43.05 60.39 42.03 59.87 41.02 59.35 C 39.77 61.38 38.52 63.41 37.27 65.45 C 37.85 66.63 38.43 67.82 39.01 69.02 C 35.47 66.09 32.29 62.70 29.97 58.72 C 28.89 56.87 27.75 55.06 26.61 53.25 C 29.00 51.06 31.64 49.15 34.12 47.07 C 35.56 45.85 36.96 44.58 38.36 43.31 C 36.84 42.35 35.32 41.39 33.80 40.43 C 33.47 40.89 32.81 41.80 32.48 42.26 L 32.07 42.86 C 32.47 41.05 32.69 39.19 33.35 37.46 C 38.86 32.99 44.17 28.24 48.30 22.42 M 42.78 33.39 C 43.12 33.16 43.80 32.68 44.14 32.45 C 45.59 34.26 47.00 36.19 48.98 37.48 C 51.84 36.26 53.88 33.80 56.14 31.76 C 54.46 29.78 52.76 27.82 51.07 25.86 C 50.56 25.54 49.55 24.90 49.04 24.58 C 46.52 27.17 43.82 29.81 42.78 33.39 M 40.51 33.43 C 40.07 34.50 39.71 35.59 39.41 36.71 C 42.44 37.90 45.50 39.01 48.63 39.91 C 46.37 37.40 44.27 33.59 40.51 33.43 M 49.68 39.93 C 52.79 39.01 56.25 38.27 58.58 35.82 C 58.51 34.80 58.38 33.77 58.21 32.76 C 54.94 34.59 52.03 37.02 49.68 39.93 M 34.79 38.97 C 36.48 39.96 38.18 40.95 39.87 41.93 C 39.44 39.90 39.01 37.87 38.57 35.83 C 37.30 36.87 36.05 37.92 34.79 38.97 M 60.12 35.72 C 59.47 37.97 58.84 40.23 58.25 42.49 C 60.01 41.35 61.75 40.18 63.48 39.00 C 62.37 37.90 61.25 36.80 60.12 35.72 M 41.30 39.22 C 40.25 40.53 42.50 42.11 43.46 40.82 C 44.51 39.52 42.26 37.94 41.30 39.22 M 56.06 38.94 C 55.86 39.23 55.45 39.80 55.25 40.09 C 56.11 43.23 59.39 38.37 56.06 38.94 M 41.80 43.10 C 44.06 45.12 46.46 47.00 49.08 48.56 C 48.30 46.05 47.42 43.58 46.51 41.12 C 44.94 41.76 43.37 42.43 41.80 43.10 M 49.00 41.54 C 48.06 42.68 48.31 43.32 49.76 43.47 C 50.70 42.34 50.44 41.69 49.00 41.54 M 52.17 40.95 C 51.31 43.47 50.50 46.01 49.80 48.58 C 52.23 47.02 54.40 45.12 56.41 43.07 C 55.00 42.35 53.59 41.65 52.17 40.95 M 32.68 51.31 C 33.19 51.24 34.19 51.11 34.69 51.04 C 37.54 52.35 41.27 53.83 43.73 50.96 C 44.60 55.62 47.44 59.60 49.96 63.51 C 49.95 63.12 49.91 62.33 49.90 61.94 C 52.50 58.92 54.19 55.26 55.24 51.44 C 58.75 53.96 62.90 52.23 66.60 51.19 C 64.37 49.12 62.13 47.06 60.07 44.82 C 55.31 44.66 52.64 49.55 48.14 50.46 C 47.22 49.55 46.34 48.60 45.28 47.85 C 43.74 46.69 42.35 44.65 40.19 44.84 C 37.29 46.47 34.93 48.89 32.68 51.31 M 29.56 52.64 C 30.60 55.89 32.26 58.92 34.74 61.30 C 35.06 62.08 35.38 62.85 35.71 63.63 C 37.21 61.71 38.67 59.76 40.15 57.82 C 38.96 56.86 37.78 55.87 36.52 55.01 C 37.00 54.86 37.98 54.56 38.47 54.41 C 35.62 53.31 32.59 52.83 29.56 52.64 M 61.38 53.72 C 61.37 54.19 61.35 55.13 61.34 55.60 C 60.70 56.39 60.05 57.17 59.51 58.02 C 59.93 59.10 60.49 60.11 61.02 61.14 L 60.67 61.69 C 61.29 62.10 62.53 62.91 63.15 63.32 C 65.23 60.57 67.32 57.67 67.59 54.10 C 68.05 53.78 68.97 53.13 69.44 52.80 C 66.73 52.97 64.04 53.26 61.38 53.72 M 48.12 66.35 C 46.64 66.30 46.65 68.75 48.11 68.74 C 49.57 68.79 49.56 66.33 48.12 66.35 M 50.30 66.86 C 49.34 67.64 49.26 69.44 50.22 70.25 C 51.86 70.41 51.96 66.72 50.30 66.86 Z" />
<path fill="#c4b495" opacity="1.00" d=" M 14.02 55.01 C 14.28 44.32 13.15 33.54 14.59 22.92 C 14.74 40.11 15.48 57.31 15.09 74.49 L 15.08 75.31 C 15.08 75.73 15.07 76.57 15.07 76.99 C 12.80 69.89 14.49 62.31 14.02 55.01 Z" />
<path fill="#5b6a65" opacity="0.81" d=" M 34.91 24.87 C 35.82 24.31 36.72 23.72 37.61 23.12 C 40.14 23.54 42.66 23.98 45.17 24.44 C 40.71 28.23 36.47 32.46 33.35 37.46 C 32.69 39.19 32.47 41.05 32.07 42.86 C 29.50 46.96 26.01 50.35 22.72 53.85 C 22.10 47.18 21.89 40.43 23.21 33.82 C 25.79 32.99 28.52 32.40 30.82 30.92 C 32.75 29.35 33.71 26.97 34.91 24.87 Z" />
<path fill="#65818f" opacity="0.93" d=" M 25.12 28.93 C 28.54 27.99 31.84 26.63 34.91 24.87 C 33.71 26.97 32.75 29.35 30.82 30.92 C 28.52 32.40 25.79 32.99 23.21 33.82 C 21.89 40.43 22.10 47.18 22.72 53.85 C 26.01 50.35 29.50 46.96 32.07 42.86 L 32.48 42.26 C 33.04 43.86 33.58 45.46 34.12 47.07 C 31.64 49.15 29.00 51.06 26.61 53.25 C 23.84 56.19 22.52 60.10 21.59 63.95 C 21.52 57.56 20.55 51.23 19.53 44.94 C 18.27 51.90 17.73 58.99 18.26 66.05 C 18.55 68.63 18.17 71.29 16.37 73.28 C 16.25 65.97 15.44 58.64 16.38 51.35 C 19.33 43.40 16.37 34.79 19.14 26.81 C 19.59 27.88 20.05 28.95 20.50 30.02 C 22.05 29.69 23.60 29.37 25.12 28.93 Z" />
<path fill="#ced6d4" opacity="0.96" d=" M 42.78 33.39 C 43.82 29.81 46.52 27.17 49.04 24.58 C 49.55 24.90 50.56 25.54 51.07 25.86 C 48.88 28.17 46.70 30.53 44.14 32.45 C 43.80 32.68 43.12 33.16 42.78 33.39 Z" />
<path fill="#6e7b82" opacity="0.85" d=" M 51.07 25.86 C 52.76 27.82 54.46 29.78 56.14 31.76 C 53.88 33.80 51.84 36.26 48.98 37.48 C 47.00 36.19 45.59 34.26 44.14 32.45 C 46.70 30.53 48.88 28.17 51.07 25.86 Z" />
<path fill="#4a558f" opacity="0.87" d=" M 71.53 26.56 C 73.05 27.46 74.58 28.33 76.11 29.21 C 76.49 34.52 76.41 39.85 76.14 45.17 C 75.76 43.76 75.32 42.37 74.90 40.98 C 72.07 42.95 69.26 44.97 66.69 47.28 C 67.57 44.60 68.17 41.85 68.91 39.14 C 70.09 35.01 70.95 30.81 71.53 26.56 Z" />
<path fill="#9ea29b" opacity="0.84" d=" M 40.51 33.43 C 44.27 33.59 46.37 37.40 48.63 39.91 C 45.50 39.01 42.44 37.90 39.41 36.71 C 39.71 35.59 40.07 34.50 40.51 33.43 Z" />
<path fill="#cdccb9" opacity="0.91" d=" M 49.68 39.93 C 52.03 37.02 54.94 34.59 58.21 32.76 C 58.38 33.77 58.51 34.80 58.58 35.82 C 56.25 38.27 52.79 39.01 49.68 39.93 Z" />
<path fill="#cdccb9" opacity="0.91" d=" M 34.79 38.97 C 36.05 37.92 37.30 36.87 38.57 35.83 C 39.01 37.87 39.44 39.90 39.87 41.93 C 38.18 40.95 36.48 39.96 34.79 38.97 Z" />
<path fill="#b0bbc8" opacity="0.96" d=" M 60.12 35.72 C 61.25 36.80 62.37 37.90 63.48 39.00 C 61.75 40.18 60.01 41.35 58.25 42.49 C 58.84 40.23 59.47 37.97 60.12 35.72 Z" />
<path fill="#cdccb9" opacity="0.91" d=" M 66.14 37.89 C 67.06 38.30 67.98 38.72 68.91 39.14 C 68.17 41.85 67.57 44.60 66.69 47.28 C 66.47 47.51 66.05 47.98 65.84 48.21 C 64.04 46.58 62.38 44.80 60.71 43.04 C 62.25 42.20 63.80 41.36 65.34 40.52 C 65.56 41.92 65.78 43.31 66.01 44.70 C 66.16 42.43 66.22 40.16 66.14 37.89 Z" />
<path fill="#4e58a0" opacity="0.80" d=" M 77.66 40.87 C 78.92 39.88 80.17 38.89 81.42 37.90 C 81.31 40.57 81.18 43.23 80.97 45.89 C 80.69 51.00 78.99 56.60 81.98 61.25 C 82.94 63.26 84.03 65.32 84.05 67.61 C 83.62 70.05 83.03 72.44 82.43 74.84 C 79.18 74.78 75.80 75.16 73.11 77.17 C 69.61 79.60 65.71 81.36 61.57 82.36 C 63.11 81.14 64.57 79.84 66.09 78.61 C 69.99 76.49 74.34 74.80 77.41 71.50 C 78.28 68.85 78.16 66.01 78.25 63.26 C 78.73 55.79 79.13 48.26 77.66 40.87 Z" />
<path fill="#b7c5d3" opacity="0.96" d=" M 41.30 39.22 C 42.26 37.94 44.51 39.52 43.46 40.82 C 42.50 42.11 40.25 40.53 41.30 39.22 Z" />
<path fill="#c2d3d8" opacity="1.00" d=" M 56.06 38.94 C 59.39 38.37 56.11 43.23 55.25 40.09 C 55.45 39.80 55.86 39.23 56.06 38.94 Z" />
<path fill="#a8b7be" opacity="0.89" d=" M 32.48 42.26 C 32.81 41.80 33.47 40.89 33.80 40.43 C 35.32 41.39 36.84 42.35 38.36 43.31 C 36.96 44.58 35.56 45.85 34.12 47.07 C 33.58 45.46 33.04 43.86 32.48 42.26 Z" />
<path fill="#a8b5c1" opacity="0.96" d=" M 41.80 43.10 C 43.37 42.43 44.94 41.76 46.51 41.12 C 47.42 43.58 48.30 46.05 49.08 48.56 C 46.46 47.00 44.06 45.12 41.80 43.10 Z" />
<path fill="#d5e3e4" opacity="1.00" d=" M 49.00 41.54 C 50.44 41.69 50.70 42.34 49.76 43.47 C 48.31 43.32 48.06 42.68 49.00 41.54 Z" />
<path fill="#aab7c4" opacity="0.98" d=" M 52.17 40.95 C 53.59 41.65 55.00 42.35 56.41 43.07 C 54.40 45.12 52.23 47.02 49.80 48.58 C 50.50 46.01 51.31 43.47 52.17 40.95 Z" />
<path fill="#4454aa" opacity="0.87" d=" M 66.69 47.28 C 69.26 44.97 72.07 42.95 74.90 40.98 C 75.32 42.37 75.76 43.76 76.14 45.17 C 76.13 45.82 76.12 47.12 76.12 47.77 C 75.25 53.19 74.46 59.29 69.72 62.83 L 69.21 63.33 C 70.78 59.83 71.98 56.18 73.21 52.55 C 72.72 52.28 71.73 51.74 71.23 51.47 C 69.39 50.46 67.56 49.43 65.84 48.21 C 66.05 47.98 66.47 47.51 66.69 47.28 Z" />
<path fill="#bbc7d4" opacity="0.96" d=" M 76.46 58.24 C 77.07 53.11 77.41 47.96 77.48 42.80 C 77.57 49.62 77.73 56.45 78.25 63.26 C 78.16 66.01 78.28 68.85 77.41 71.50 C 74.34 74.80 69.99 76.49 66.09 78.61 C 65.65 78.60 64.77 78.58 64.33 78.57 L 63.34 78.54 C 67.56 76.22 71.61 73.58 75.67 70.99 C 75.73 68.28 75.80 65.57 76.03 62.88 C 76.19 61.33 76.33 59.78 76.46 58.24 Z" />
<path fill="#294365" opacity="0.66" d=" M 19.53 44.94 C 20.55 51.23 21.52 57.56 21.59 63.95 C 21.07 66.51 20.42 69.06 19.92 71.63 C 18.56 72.41 17.20 73.19 15.87 74.00 L 16.37 73.28 C 18.17 71.29 18.55 68.63 18.26 66.05 C 17.73 58.99 18.27 51.90 19.53 44.94 Z" />
<path fill="#c5d0d5" opacity="0.97" d=" M 32.68 51.31 C 34.93 48.89 37.29 46.47 40.19 44.84 C 42.35 44.65 43.74 46.69 45.28 47.85 C 43.90 47.46 42.50 47.13 41.11 46.79 C 39.05 48.32 36.96 49.83 34.69 51.04 C 34.19 51.11 33.19 51.24 32.68 51.31 Z" />
<path fill="#cfd7db" opacity="1.00" d=" M 48.14 50.46 C 52.64 49.55 55.31 44.66 60.07 44.82 C 56.43 48.07 52.33 52.64 46.90 50.97 L 48.14 50.46 Z" />
<path fill="#5e73a6" opacity="0.96" d=" M 60.07 44.82 C 62.13 47.06 64.37 49.12 66.60 51.19 C 62.90 52.23 58.75 53.96 55.24 51.44 C 54.19 55.26 52.50 58.92 49.90 61.94 C 48.67 57.77 46.59 53.93 44.82 49.98 C 44.54 50.22 44.00 50.72 43.73 50.96 C 41.27 53.83 37.54 52.35 34.69 51.04 C 36.96 49.83 39.05 48.32 41.11 46.79 C 42.50 47.13 43.90 47.46 45.28 47.85 C 46.34 48.60 47.22 49.55 48.14 50.46 L 46.90 50.97 C 52.33 52.64 56.43 48.07 60.07 44.82 Z" />
<path fill="#0825d0" opacity="0.82" d=" M 80.97 45.89 C 81.54 45.92 82.69 45.97 83.26 45.99 C 83.33 51.11 82.84 56.21 81.98 61.25 C 78.99 56.60 80.69 51.00 80.97 45.89 Z" />
<path fill="#0b298d" opacity="0.87" d=" M 69.72 62.83 C 74.46 59.29 75.25 53.19 76.12 47.77 C 76.19 51.26 76.46 54.74 76.46 58.24 C 76.33 59.78 76.19 61.33 76.03 62.88 C 75.41 64.19 74.83 65.56 73.88 66.68 C 72.38 67.04 70.82 67.00 69.29 67.06 C 69.43 65.65 69.58 64.24 69.72 62.83 Z" />
<path fill="#a7bbcf" opacity="1.00" d=" M 43.73 50.96 C 44.00 50.72 44.54 50.22 44.82 49.98 C 46.59 53.93 48.67 57.77 49.90 61.94 C 49.91 62.33 49.95 63.12 49.96 63.51 C 47.44 59.60 44.60 55.62 43.73 50.96 Z" />
<path fill="#b3c1cd" opacity="0.97" d=" M 71.23 51.47 C 71.73 51.74 72.72 52.28 73.21 52.55 C 71.98 56.18 70.78 59.83 69.21 63.33 C 66.56 65.98 63.82 68.55 61.41 71.43 C 60.19 71.45 58.97 71.47 57.75 71.49 C 58.42 70.79 59.09 70.09 59.75 69.39 C 65.34 64.81 69.96 58.74 71.23 51.47 Z" />
<path fill="#abc0d2" opacity="0.96" d=" M 29.56 52.64 C 32.59 52.83 35.62 53.31 38.47 54.41 C 37.98 54.56 37.00 54.86 36.52 55.01 C 35.04 54.78 33.56 54.55 32.08 54.31 C 32.97 56.64 33.84 58.98 34.74 61.30 C 32.26 58.92 30.60 55.89 29.56 52.64 Z" />
<path fill="#abb8cd" opacity="1.00" d=" M 61.38 53.72 C 64.04 53.26 66.73 52.97 69.44 52.80 C 68.97 53.13 68.05 53.78 67.59 54.10 C 64.78 55.80 62.62 58.30 61.02 61.14 C 60.49 60.11 59.93 59.10 59.51 58.02 C 60.05 57.17 60.70 56.39 61.34 55.60 C 61.35 55.13 61.37 54.19 61.38 53.72 Z" />
<path fill="#5580b2" opacity="0.84" d=" M 21.59 63.95 C 22.52 60.10 23.84 56.19 26.61 53.25 C 27.75 55.06 28.89 56.87 29.97 58.72 C 30.02 60.80 30.17 63.07 29.09 64.94 C 27.24 66.48 24.94 67.32 22.80 68.36 C 26.80 70.76 30.68 73.51 33.60 77.19 C 29.70 74.86 25.73 72.64 22.03 70.00 C 21.61 70.56 20.77 71.70 20.34 72.27 L 19.92 71.63 C 20.42 69.06 21.07 66.51 21.59 63.95 Z" />
<path fill="#5f7cb1" opacity="0.95" d=" M 32.08 54.31 C 33.56 54.55 35.04 54.78 36.52 55.01 C 37.78 55.87 38.96 56.86 40.15 57.82 C 38.67 59.76 37.21 61.71 35.71 63.63 C 35.38 62.85 35.06 62.08 34.74 61.30 C 33.84 58.98 32.97 56.64 32.08 54.31 Z" />
<path fill="#5973aa" opacity="0.96" d=" M 61.02 61.14 C 62.62 58.30 64.78 55.80 67.59 54.10 C 67.32 57.67 65.23 60.57 63.15 63.32 C 62.53 62.91 61.29 62.10 60.67 61.69 L 61.02 61.14 Z" />
<path fill="#a6bace" opacity="1.00" d=" M 42.48 55.54 C 44.40 57.71 46.29 60.07 46.81 63.00 C 45.13 62.70 43.44 62.39 41.76 62.08 C 40.84 64.39 39.92 66.70 39.01 69.02 C 38.43 67.82 37.85 66.63 37.27 65.45 C 38.52 63.41 39.77 61.38 41.02 59.35 C 42.03 59.87 43.05 60.39 44.07 60.91 C 43.52 59.13 42.98 57.34 42.48 55.54 Z" />
<path fill="#658e9a" opacity="0.95" d=" M 53.27 59.66 C 54.04 58.57 54.86 57.52 55.69 56.48 C 55.55 57.92 55.40 59.36 55.26 60.81 C 54.66 63.37 57.98 63.13 59.16 61.75 C 59.99 62.89 60.81 64.04 61.64 65.18 C 61.02 66.59 60.42 68.01 59.75 69.39 C 59.09 70.09 58.42 70.79 57.75 71.49 C 58.97 71.47 60.19 71.45 61.41 71.43 C 61.10 71.83 60.47 72.65 60.16 73.06 C 57.45 74.21 54.74 75.40 52.26 77.01 C 55.61 71.76 54.61 65.37 53.27 59.66 Z" />
<path fill="#659daf" opacity="0.95" d=" M 29.09 64.94 C 30.17 63.07 30.02 60.80 29.97 58.72 C 32.29 62.70 35.47 66.09 39.01 69.02 C 39.92 66.70 40.84 64.39 41.76 62.08 C 43.44 62.39 45.13 62.70 46.81 63.00 C 46.61 67.92 47.80 72.70 49.24 77.36 C 49.07 77.79 48.73 78.66 48.56 79.09 C 47.99 78.18 47.41 77.27 46.84 76.37 C 45.27 77.24 43.70 78.12 42.13 78.99 C 39.76 77.78 37.27 76.78 34.79 75.80 C 38.80 79.15 43.19 82.02 47.22 85.35 C 47.85 85.86 48.48 86.38 49.11 86.90 C 49.09 87.77 49.05 89.51 49.03 90.38 C 44.42 86.05 38.76 83.12 33.65 79.46 C 34.19 79.66 35.29 80.06 35.84 80.26 C 35.12 79.21 34.41 78.16 33.60 77.19 C 30.68 73.51 26.80 70.76 22.80 68.36 C 24.94 67.32 27.24 66.48 29.09 64.94 Z" />
<path fill="#bbccca" opacity="0.98" d=" M 53.27 59.66 C 54.61 65.37 55.61 71.76 52.26 77.01 C 51.41 78.30 50.57 79.60 49.72 80.91 C 49.43 80.45 48.85 79.54 48.56 79.09 C 48.73 78.66 49.07 77.79 49.24 77.36 C 50.36 74.76 52.10 72.30 52.30 69.39 C 52.54 66.14 52.42 62.84 53.27 59.66 Z" />
<path fill="#c2d1dd" opacity="1.00" d=" M 55.26 60.81 C 56.59 60.06 58.44 60.27 59.16 61.75 C 57.98 63.13 54.66 63.37 55.26 60.81 Z" />
<path fill="#42587e" opacity="0.87" d=" M 61.41 71.43 C 63.82 68.55 66.56 65.98 69.21 63.33 L 69.72 62.83 C 69.58 64.24 69.43 65.65 69.29 67.06 C 70.82 67.00 72.38 67.04 73.88 66.68 C 74.83 65.56 75.41 64.19 76.03 62.88 C 75.80 65.57 75.73 68.28 75.67 70.99 C 71.61 73.58 67.56 76.22 63.34 78.54 L 62.30 78.52 C 65.51 75.87 68.89 73.43 72.14 70.83 C 67.00 72.89 62.09 75.48 57.22 78.09 C 58.17 76.40 59.12 74.70 60.16 73.06 C 60.47 72.65 61.10 71.83 61.41 71.43 Z" />
<path fill="#869db4" opacity="1.00" d=" M 48.12 66.35 C 49.56 66.33 49.57 68.79 48.11 68.74 C 46.65 68.75 46.64 66.30 48.12 66.35 Z" />
<path fill="#6a8093" opacity="0.98" d=" M 50.30 66.86 C 51.96 66.72 51.86 70.41 50.22 70.25 C 49.26 69.44 49.34 67.64 50.30 66.86 Z" />
<path fill="#7c83a8" opacity="0.93" d=" M 82.43 74.84 C 83.03 72.44 83.62 70.05 84.05 67.61 C 84.19 70.61 84.18 73.62 84.17 76.63 C 83.23 77.04 82.29 77.47 81.36 77.91 C 73.95 79.42 68.45 85.08 61.84 88.39 C 62.39 86.90 62.93 85.42 63.48 83.94 C 58.69 86.74 53.85 89.46 48.99 92.15 L 49.01 91.25 L 49.03 90.38 C 52.83 87.15 57.13 84.59 61.57 82.36 C 65.71 81.36 69.61 79.60 73.11 77.17 C 75.80 75.16 79.18 74.78 82.43 74.84 Z" />
<path fill="#9fc6cc" opacity="1.00" d=" M 20.34 72.27 C 20.77 71.70 21.61 70.56 22.03 70.00 C 25.73 72.64 29.70 74.86 33.60 77.19 C 34.41 78.16 35.12 79.21 35.84 80.26 C 35.29 80.06 34.19 79.66 33.65 79.46 C 29.57 76.90 25.32 74.66 20.86 72.87 L 20.34 72.27 Z" />
<path fill="#7f9278" opacity="0.90" d=" M 57.22 78.09 C 62.09 75.48 67.00 72.89 72.14 70.83 C 68.89 73.43 65.51 75.87 62.30 78.52 L 63.34 78.54 L 64.33 78.57 C 63.25 78.80 62.18 79.09 61.13 79.43 C 57.21 80.60 53.81 82.93 50.12 84.62 C 47.55 82.62 44.97 80.61 42.13 78.99 C 43.70 78.12 45.27 77.24 46.84 76.37 C 47.41 77.27 47.99 78.18 48.56 79.09 C 48.85 79.54 49.43 80.45 49.72 80.91 C 50.57 79.60 51.41 78.30 52.26 77.01 C 54.74 75.40 57.45 74.21 60.16 73.06 C 59.12 74.70 58.17 76.40 57.22 78.09 Z" />
<path fill="#8ea197" opacity="0.81" d=" M 15.87 74.00 C 17.20 73.19 18.56 72.41 19.92 71.63 L 20.34 72.27 L 20.86 72.87 C 22.71 75.05 24.61 77.18 26.56 79.28 C 26.04 79.88 25.52 80.48 25.01 81.08 C 21.70 79.16 18.32 77.35 15.08 75.31 L 15.09 74.49 L 15.87 74.00 Z" />
<path fill="#627ba7" opacity="0.80" d=" M 20.86 72.87 C 25.32 74.66 29.57 76.90 33.65 79.46 C 34.02 80.92 33.91 82.71 35.18 83.76 C 39.15 87.28 44.21 89.16 49.01 91.25 L 48.99 92.15 C 48.96 93.50 48.93 94.84 48.90 96.19 C 45.79 94.24 42.71 92.26 39.52 90.45 C 34.97 86.90 30.05 83.88 25.01 81.08 C 25.52 80.48 26.04 79.88 26.56 79.28 C 24.61 77.18 22.71 75.05 20.86 72.87 Z" />
<path fill="#dde1d6" opacity="1.00" d=" M 15.08 75.31 C 18.32 77.35 21.70 79.16 25.01 81.08 C 30.05 83.88 34.97 86.90 39.52 90.45 C 39.04 90.59 38.10 90.88 37.62 91.03 C 32.35 88.20 27.42 84.81 22.24 81.83 C 19.78 80.33 17.17 78.99 15.07 76.99 C 15.07 76.57 15.08 75.73 15.08 75.31 Z" />
<path fill="#b3baa5" opacity="0.94" d=" M 34.79 75.80 C 37.27 76.78 39.76 77.78 42.13 78.99 C 44.97 80.61 47.55 82.62 50.12 84.62 C 49.40 84.80 47.94 85.17 47.22 85.35 C 43.19 82.02 38.80 79.15 34.79 75.80 Z" />
<path fill="#c5cbd5" opacity="1.00" d=" M 61.84 88.39 C 68.45 85.08 73.95 79.42 81.36 77.91 C 78.78 79.77 76.43 81.90 73.96 83.89 C 65.07 87.73 57.96 94.92 48.74 97.99 C 52.40 93.92 57.19 91.17 61.84 88.39 Z" />
<path fill="#070040" opacity="0.91" d=" M 50.12 84.62 C 53.81 82.93 57.21 80.60 61.13 79.43 C 57.08 81.86 53.19 84.53 49.11 86.90 C 48.48 86.38 47.85 85.86 47.22 85.35 C 47.94 85.17 49.40 84.80 50.12 84.62 Z" />
<path fill="#ccd9d7" opacity="1.00" d=" M 61.13 79.43 C 62.18 79.09 63.25 78.80 64.33 78.57 C 64.77 78.58 65.65 78.60 66.09 78.61 C 64.57 79.84 63.11 81.14 61.57 82.36 C 57.13 84.59 52.83 87.15 49.03 90.38 C 49.05 89.51 49.09 87.77 49.11 86.90 C 53.19 84.53 57.08 81.86 61.13 79.43 Z" />
<path fill="#465780" opacity="0.89" d=" M 35.18 83.76 C 33.91 82.71 34.02 80.92 33.65 79.46 C 38.76 83.12 44.42 86.05 49.03 90.38 L 49.01 91.25 C 44.21 89.16 39.15 87.28 35.18 83.76 Z" />
<path fill="#b5b9a3" opacity="0.93" d=" M 48.99 92.15 C 53.85 89.46 58.69 86.74 63.48 83.94 C 62.93 85.42 62.39 86.90 61.84 88.39 C 57.19 91.17 52.40 93.92 48.74 97.99 C 44.78 96.10 41.22 93.51 37.62 91.03 C 38.10 90.88 39.04 90.59 39.52 90.45 C 42.71 92.26 45.79 94.24 48.90 96.19 C 48.93 94.84 48.96 93.50 48.99 92.15 Z" />
</svg>
