<?xml version="1.0" encoding="UTF-8" ?>
<!DOCTYPE svg PUBLIC "-//W3C//DTD SVG 1.1//EN" "http://www.w3.org/Graphics/SVG/1.1/DTD/svg11.dtd">
<svg width="100pt" height="100pt" viewBox="0 0 100 100" version="1.1" xmlns="http://www.w3.org/2000/svg">
<path fill="#06070a" opacity="0.92" d=" M 36.81 26.18 C 45.41 24.12 54.44 24.44 63.10 25.95 C 67.43 26.71 72.00 27.66 75.47 30.52 C 77.34 32.03 78.16 34.83 77.00 37.02 C 72.31 46.93 66.62 56.34 60.28 65.28 C 57.52 68.95 54.81 73.61 49.97 74.62 C 45.91 73.91 43.12 70.43 40.57 67.47 C 34.04 59.13 27.94 50.36 23.02 40.96 C 21.05 37.44 21.27 33.13 23.50 29.80 C 22.73 36.71 26.21 42.96 29.09 48.97 C 31.58 54.12 35.79 58.09 39.61 62.26 C 41.94 66.36 44.11 71.75 49.10 73.03 C 52.32 72.65 53.83 69.02 55.98 66.94 C 62.02 60.40 66.87 52.89 71.04 45.06 C 71.23 44.73 71.60 44.07 71.78 43.74 C 72.84 41.78 74.08 39.85 74.60 37.65 C 75.09 36.04 73.46 34.98 72.64 33.84 C 73.19 33.02 73.74 32.20 74.28 31.38 C 69.63 28.26 64.00 27.52 58.63 26.49 C 51.42 25.08 44.08 26.36 36.81 26.18 Z" />
<path fill="#424c5b" opacity="1.00" d=" M 35.03 26.19 C 35.48 26.18 36.37 26.18 36.81 26.18 C 44.08 26.36 51.42 25.08 58.63 26.49 C 64.00 27.52 69.63 28.26 74.28 31.38 C 73.74 32.20 73.19 33.02 72.64 33.84 C 73.46 34.98 75.09 36.04 74.60 37.65 C 74.08 39.85 72.84 41.78 71.78 43.74 C 70.68 41.10 70.32 38.26 70.43 35.41 C 64.07 34.51 57.84 36.18 51.60 37.16 C 52.57 34.74 53.30 32.24 53.91 29.71 C 50.20 32.05 48.30 36.02 46.42 39.80 C 44.89 39.18 43.36 38.58 41.82 37.99 C 41.38 36.51 40.94 35.03 40.51 33.54 C 38.34 33.43 36.17 33.41 34.01 33.31 C 33.94 32.48 33.86 31.64 33.77 30.81 C 33.45 30.63 32.81 30.25 32.49 30.06 C 36.90 28.31 41.83 29.48 46.25 27.73 C 42.53 27.39 38.80 27.33 35.07 27.22 L 35.03 26.19 M 55.81 29.24 C 58.60 32.82 63.53 34.72 67.67 32.15 C 64.24 29.59 59.97 29.02 55.81 29.24 Z" />
<path fill="#333743" opacity="1.00" d=" M 23.50 29.80 C 26.65 27.77 30.45 27.36 34.10 27.19 C 32.82 28.43 31.52 29.65 30.19 30.83 C 30.77 30.64 31.91 30.26 32.49 30.06 C 32.81 30.25 33.45 30.63 33.77 30.81 C 33.86 31.64 33.94 32.48 34.01 33.31 C 36.17 33.41 38.34 33.43 40.51 33.54 C 40.94 35.03 41.38 36.51 41.82 37.99 C 43.36 38.58 44.89 39.18 46.42 39.80 C 44.77 40.53 43.05 41.07 41.32 41.57 C 39.91 41.76 38.48 41.83 37.08 42.15 C 35.37 42.92 35.34 45.06 35.18 46.66 C 34.71 52.24 37.68 57.23 39.61 62.26 C 35.79 58.09 31.58 54.12 29.09 48.97 C 26.21 42.96 22.73 36.71 23.50 29.80 Z" />
<path fill="#afb9b8" opacity="1.00" d=" M 34.10 27.19 L 35.07 27.22 C 38.80 27.33 42.53 27.39 46.25 27.73 C 41.83 29.48 36.90 28.31 32.49 30.06 C 31.91 30.26 30.77 30.64 30.19 30.83 C 31.52 29.65 32.82 28.43 34.10 27.19 Z" />
<path fill="#afb9b8" opacity="1.00" d=" M 55.81 29.24 C 59.97 29.02 64.24 29.59 67.67 32.15 C 63.53 34.72 58.60 32.82 55.81 29.24 Z" />
<path fill="#ffe9b4" opacity="1.00" d=" M 46.42 39.80 C 48.30 36.02 50.20 32.05 53.91 29.71 C 53.30 32.24 52.57 34.74 51.60 37.16 C 51.17 38.16 50.71 39.15 50.26 40.14 C 54.00 40.25 57.75 40.24 61.49 40.51 C 61.71 40.82 62.16 41.44 62.39 41.75 C 58.05 42.18 53.72 42.68 49.42 43.38 C 48.93 44.57 48.46 45.78 48.01 46.99 C 50.96 47.64 53.92 48.30 56.84 49.08 C 53.76 49.86 50.66 50.52 47.55 51.19 C 48.02 54.96 48.83 58.66 49.76 62.34 C 46.83 59.43 45.18 55.64 44.28 51.67 C 41.71 51.30 39.14 50.91 36.60 50.42 C 39.28 48.97 42.09 47.78 44.98 46.83 C 44.97 46.19 44.95 44.92 44.94 44.28 C 42.52 44.45 40.11 44.65 37.69 44.76 C 38.87 43.67 40.07 42.58 41.32 41.57 C 43.05 41.07 44.77 40.53 46.42 39.80 Z" />
<path fill="#313541" opacity="1.00" d=" M 51.60 37.16 C 57.84 36.18 64.07 34.51 70.43 35.41 C 70.32 38.26 70.68 41.10 71.78 43.74 C 71.60 44.07 71.23 44.73 71.04 45.06 C 66.60 47.69 63.93 52.20 60.98 56.26 C 60.13 55.30 59.29 54.34 58.45 53.38 C 59.95 51.55 61.63 49.81 62.61 47.63 C 63.16 45.70 62.66 43.68 62.39 41.75 C 62.16 41.44 61.71 40.82 61.49 40.51 C 57.75 40.24 54.00 40.25 50.26 40.14 C 50.71 39.15 51.17 38.16 51.60 37.16 Z" />
<path fill="#141421" opacity="1.00" d=" M 37.08 42.15 C 38.48 41.83 39.91 41.76 41.32 41.57 C 40.07 42.58 38.87 43.67 37.69 44.76 C 40.11 44.65 42.52 44.45 44.94 44.28 C 44.95 44.92 44.97 46.19 44.98 46.83 C 42.09 47.78 39.28 48.97 36.60 50.42 C 39.14 50.91 41.71 51.30 44.28 51.67 C 45.18 55.64 46.83 59.43 49.76 62.34 C 48.83 58.66 48.02 54.96 47.55 51.19 C 50.66 50.52 53.76 49.86 56.84 49.08 C 53.92 48.30 50.96 47.64 48.01 46.99 C 48.46 45.78 48.93 44.57 49.42 43.38 C 53.72 42.68 58.05 42.18 62.39 41.75 C 62.66 43.68 63.16 45.70 62.61 47.63 C 61.63 49.81 59.95 51.55 58.45 53.38 C 59.29 54.34 60.13 55.30 60.98 56.26 C 63.93 52.20 66.60 47.69 71.04 45.06 C 66.87 52.89 62.02 60.40 55.98 66.94 C 53.83 69.02 52.32 72.65 49.10 73.03 C 44.11 71.75 41.94 66.36 39.61 62.26 C 37.68 57.23 34.71 52.24 35.18 46.66 C 35.34 45.06 35.37 42.92 37.08 42.15 Z" />
</svg>
