<?xml version="1.0" encoding="UTF-8" ?>
<!DOCTYPE svg PUBLIC "-//W3C//DTD SVG 1.1//EN" "http://www.w3.org/Graphics/SVG/1.1/DTD/svg11.dtd">
<svg width="100pt" height="100pt" viewBox="0 0 100 100" version="1.1" xmlns="http://www.w3.org/2000/svg">
<path fill="#030032" opacity="0.82" d=" M 48.37 0.00 L 50.49 0.00 C 56.70 4.43 63.42 8.10 69.32 12.95 L 68.46 12.93 C 61.67 9.66 56.21 3.93 48.98 1.55 C 48.55 1.79 47.69 2.25 47.26 2.49 C 45.55 3.47 43.84 4.47 42.21 5.58 C 40.31 6.84 38.43 8.13 36.51 9.36 C 29.05 13.68 21.90 18.50 14.46 22.86 C 13.35 33.54 14.15 44.30 13.99 55.01 C 14.37 62.33 13.06 69.79 14.79 77.00 C 22.16 82.07 29.99 86.50 37.66 91.11 C 41.24 93.57 44.79 96.13 48.74 97.99 C 53.18 96.91 56.88 94.11 60.65 91.68 C 64.92 88.81 69.36 86.20 73.98 83.91 C 66.53 90.18 57.69 94.41 49.76 100.00 L 48.48 100.00 C 37.12 91.94 25.02 85.00 13.19 77.67 C 12.88 59.23 12.87 40.78 13.21 22.35 C 25.04 15.07 36.81 7.70 48.37 0.00 Z" />
<path fill="#bec4b3" opacity="0.89" d=" M 48.98 1.55 C 56.21 3.93 61.67 9.66 68.46 12.93 C 67.21 12.94 65.97 12.97 64.72 12.99 C 61.51 10.75 57.70 10.08 53.89 9.84 C 50.21 9.71 49.46 5.51 49.03 2.62 L 48.98 1.55 Z" />
<path fill="#3c4875" opacity="0.87" d=" M 47.26 2.49 C 47.69 2.25 48.55 1.79 48.98 1.55 L 49.03 2.62 C 49.07 5.04 48.99 7.45 48.88 9.87 C 47.02 10.91 45.17 11.96 43.32 13.03 C 44.84 9.59 46.26 6.11 47.26 2.49 Z" />
<path fill="#737a8d" opacity="0.87" d=" M 42.21 5.58 C 43.84 4.47 45.55 3.47 47.26 2.49 C 46.26 6.11 44.84 9.59 43.32 13.03 C 45.17 11.96 47.02 10.91 48.88 9.87 C 50.67 13.48 53.84 16.07 57.23 18.11 C 54.78 17.55 52.30 17.06 49.79 16.95 C 47.27 16.83 45.14 18.41 42.98 19.47 C 41.60 19.64 40.22 19.75 38.84 19.88 C 40.56 17.95 42.31 16.06 44.09 14.20 C 41.40 15.10 38.67 15.87 35.96 16.70 C 38.17 13.06 39.71 9.04 42.21 5.58 Z" />
<path fill="#919ea0" opacity="0.89" d=" M 49.03 2.62 C 49.46 5.51 50.21 9.71 53.89 9.84 C 57.70 10.08 61.51 10.75 64.72 12.99 C 64.13 14.75 63.54 16.52 62.94 18.28 C 58.13 15.68 53.91 12.09 48.88 9.87 C 48.99 7.45 49.07 5.04 49.03 2.62 Z" />
<path fill="#cdccb9" opacity="0.91" d=" M 36.51 9.36 C 38.43 8.13 40.31 6.84 42.21 5.58 C 39.71 9.04 38.17 13.06 35.96 16.70 C 30.95 18.59 26.43 21.47 21.76 24.04 C 21.42 23.20 21.08 22.37 20.74 21.53 C 26.10 17.74 33.82 15.93 36.51 9.36 Z" />
<path fill="#dcdcc8" opacity="0.94" d=" M 14.46 22.86 C 21.90 18.50 29.05 13.68 36.51 9.36 C 33.82 15.93 26.10 17.74 20.74 21.53 C 19.18 22.44 17.62 23.36 16.06 24.28 C 15.54 33.30 15.75 42.34 16.38 51.35 C 15.59 58.69 16.25 66.06 16.47 73.41 L 15.93 74.10 L 15.33 74.69 C 15.23 57.41 14.95 40.13 14.46 22.86 Z" />
<path fill="#cdccb9" opacity="0.91" d=" M 48.88 9.87 C 53.91 12.09 58.13 15.68 62.94 18.28 C 63.84 18.76 64.75 19.23 65.66 19.69 C 70.40 22.54 74.31 27.91 80.36 27.55 C 77.10 31.21 76.95 36.28 77.66 40.88 C 79.14 48.25 78.68 55.77 78.36 63.22 C 78.25 56.35 78.31 49.47 77.55 42.63 C 76.72 47.78 76.53 53.00 76.33 58.20 C 76.54 53.60 76.45 48.98 76.02 44.39 C 76.50 39.34 76.52 34.27 76.04 29.23 C 74.51 28.35 72.97 27.46 71.45 26.54 C 66.74 23.68 62.15 20.61 57.23 18.11 C 53.84 16.07 50.67 13.48 48.88 9.87 Z" />
<path fill="#6f78b1" opacity="0.82" d=" M 64.72 12.99 C 65.97 12.97 67.21 12.94 68.46 12.93 L 69.32 12.95 C 72.30 15.80 75.68 18.18 78.69 20.98 C 76.26 20.04 73.81 19.12 71.36 18.21 C 71.78 19.11 72.20 20.00 72.63 20.90 C 70.30 20.52 67.97 20.18 65.66 19.69 C 64.75 19.23 63.84 18.76 62.94 18.28 C 63.54 16.52 64.13 14.75 64.72 12.99 Z" />
<path fill="#393b91" opacity="1.00" d=" M 69.32 12.95 C 74.59 16.31 80.76 18.57 85.07 23.23 C 85.68 26.10 85.49 29.07 85.50 31.99 C 85.34 45.35 85.44 58.70 85.49 72.06 C 85.27 74.05 85.78 76.57 84.03 78.01 C 81.13 80.66 77.41 82.11 73.98 83.91 C 76.45 81.90 78.79 79.72 81.31 77.76 C 82.27 77.43 83.23 77.12 84.20 76.82 C 84.21 73.75 84.22 70.68 84.07 67.62 C 84.09 65.31 83.00 63.23 81.97 61.23 C 82.87 56.21 83.33 51.10 83.25 46.00 C 83.15 38.90 83.40 31.80 83.79 24.71 C 82.29 24.41 80.78 24.12 79.28 23.81 C 79.10 22.86 78.92 21.92 78.69 20.98 C 75.68 18.18 72.30 15.80 69.32 12.95 Z" />
<path fill="#acbaae" opacity="0.90" d=" M 35.96 16.70 C 38.67 15.87 41.40 15.10 44.09 14.20 C 42.31 16.06 40.56 17.95 38.84 19.88 C 40.22 19.75 41.60 19.64 42.98 19.47 C 41.22 20.68 39.47 21.92 37.71 23.12 C 36.23 24.12 34.75 25.13 33.22 26.06 C 30.64 27.34 27.90 28.29 25.11 29.00 C 29.59 25.47 33.95 21.80 38.17 17.96 C 31.70 20.90 24.74 23.94 20.54 29.97 C 20.05 28.97 19.56 27.98 19.07 26.98 C 16.54 34.94 19.33 43.47 16.38 51.35 C 15.75 42.34 15.54 33.30 16.06 24.28 C 17.62 23.36 19.18 22.44 20.74 21.53 C 21.08 22.37 21.42 23.20 21.76 24.04 C 26.43 21.47 30.95 18.59 35.96 16.70 Z" />
<path fill="#565b72" opacity="0.87" d=" M 42.98 19.47 C 45.14 18.41 47.27 16.83 49.79 16.95 C 52.30 17.06 54.78 17.55 57.23 18.11 C 62.15 20.61 66.74 23.68 71.45 26.54 C 71.13 29.72 71.22 33.04 69.98 36.03 C 68.39 38.64 65.30 39.70 62.77 41.16 C 62.80 38.58 62.83 36.01 62.90 33.44 C 65.00 33.02 67.10 32.59 69.19 32.16 C 69.42 31.76 69.86 30.96 70.09 30.56 C 69.64 30.54 68.74 30.52 68.30 30.50 C 65.12 30.15 61.96 29.62 58.77 29.36 C 60.59 29.22 62.41 29.00 64.23 28.79 C 61.61 28.37 58.99 27.98 56.37 27.58 C 50.43 25.08 44.14 23.56 37.71 23.12 C 39.47 21.92 41.22 20.68 42.98 19.47 Z" />
<path fill="#ccdddf" opacity="1.00" d=" M 20.54 29.97 C 24.74 23.94 31.70 20.90 38.17 17.96 C 33.95 21.80 29.59 25.47 25.11 29.00 C 23.60 29.40 22.07 29.68 20.54 29.97 Z" />
<path fill="#353e8a" opacity="0.80" d=" M 71.36 18.21 C 73.81 19.12 76.26 20.04 78.69 20.98 C 78.92 21.92 79.10 22.86 79.28 23.81 C 80.78 24.12 82.29 24.41 83.79 24.71 C 83.40 31.80 83.15 38.90 83.25 46.00 C 82.69 45.97 81.56 45.92 81.00 45.90 C 81.22 43.24 81.32 40.58 81.40 37.92 C 80.15 38.90 78.91 39.89 77.66 40.88 C 76.95 36.28 77.10 31.21 80.36 27.55 C 74.31 27.91 70.40 22.54 65.66 19.69 C 67.97 20.18 70.30 20.52 72.63 20.90 C 72.20 20.00 71.78 19.11 71.36 18.21 Z" />
<path fill="#c4b495" opacity="1.00" d=" M 13.99 55.01 C 14.15 44.30 13.35 33.54 14.46 22.86 C 14.95 40.13 15.23 57.41 15.33 74.69 L 15.13 75.48 C 15.05 75.86 14.88 76.62 14.79 77.00 C 13.06 69.79 14.37 62.33 13.99 55.01 Z" />
<path fill="#5d6c67" opacity="0.82" d=" M 33.22 26.06 C 34.75 25.13 36.23 24.12 37.71 23.12 C 44.14 23.56 50.43 25.08 56.37 27.58 C 51.16 27.48 45.86 27.26 40.75 28.42 L 40.30 29.21 C 37.88 34.60 33.32 38.68 31.07 44.16 C 31.09 43.68 31.11 42.72 31.13 42.25 C 29.17 46.43 26.28 50.08 22.68 52.98 C 21.89 46.30 21.93 39.55 22.97 32.90 C 25.77 32.24 28.86 32.02 31.26 30.31 C 32.09 28.98 32.62 27.50 33.22 26.06 Z" />
<path fill="#577aa0" opacity="0.82" d=" M 25.11 29.00 C 27.90 28.29 30.64 27.34 33.22 26.06 C 32.62 27.50 32.09 28.98 31.26 30.31 C 28.86 32.02 25.77 32.24 22.97 32.90 C 21.93 39.55 21.89 46.30 22.68 52.98 C 26.28 50.08 29.17 46.43 31.13 42.25 C 31.11 42.72 31.09 43.68 31.07 44.16 C 30.97 47.35 30.96 50.55 30.89 53.75 C 30.54 57.74 29.27 61.56 27.78 65.25 C 25.69 65.35 23.61 65.47 21.53 65.59 C 21.49 58.67 20.76 51.77 19.64 44.94 C 17.88 52.59 17.92 60.48 18.57 68.25 C 18.94 70.28 17.66 71.93 16.47 73.41 C 16.25 66.06 15.59 58.69 16.38 51.35 C 19.33 43.47 16.54 34.94 19.07 26.98 C 19.56 27.98 20.05 28.97 20.54 29.97 C 22.07 29.68 23.60 29.40 25.11 29.00 Z" />
<path fill="#4a578f" opacity="0.87" d=" M 71.45 26.54 C 72.97 27.46 74.51 28.35 76.04 29.23 C 76.52 34.27 76.50 39.34 76.02 44.39 L 75.80 43.54 C 75.66 43.03 75.38 41.99 75.24 41.48 C 70.89 43.40 65.85 44.22 62.57 48.00 C 62.66 45.72 62.73 43.44 62.77 41.16 C 65.30 39.70 68.39 38.64 69.98 36.03 C 71.22 33.04 71.13 29.72 71.45 26.54 Z" />
<path fill="#798f96" opacity="0.92" d=" M 40.75 28.42 C 45.86 27.26 51.16 27.48 56.37 27.58 C 58.99 27.98 61.61 28.37 64.23 28.79 C 62.41 29.00 60.59 29.22 58.77 29.36 C 52.61 29.41 46.45 29.42 40.30 29.21 L 40.75 28.42 Z" />
<path fill="#030032" opacity="0.82" d=" M 40.30 29.21 C 46.45 29.42 52.61 29.41 58.77 29.36 C 61.96 29.62 65.12 30.15 68.30 30.50 C 65.84 30.95 63.40 31.51 60.96 32.03 C 61.23 38.94 61.32 45.88 60.64 52.77 C 60.25 53.58 59.85 54.39 59.43 55.19 C 58.97 47.94 59.31 40.66 58.57 33.42 C 58.68 33.01 58.89 32.19 58.99 31.78 C 58.24 31.79 56.75 31.81 56.00 31.82 C 55.51 31.83 54.53 31.85 54.04 31.86 C 52.41 31.90 50.79 31.96 49.16 32.04 L 48.33 32.09 C 46.30 32.09 44.26 32.03 42.23 31.99 C 42.48 39.31 42.65 46.65 42.32 53.97 C 42.24 57.50 41.90 61.18 43.22 64.54 C 44.47 65.20 45.75 65.81 47.02 66.43 C 47.76 55.86 47.41 45.22 48.90 34.71 C 49.06 39.90 49.40 45.09 49.50 50.28 C 49.69 56.36 49.32 62.57 51.12 68.46 C 51.18 68.70 51.30 69.18 51.37 69.42 C 50.59 70.61 49.82 71.80 49.09 73.02 C 48.52 72.47 47.94 71.93 47.36 71.40 C 43.00 67.40 37.21 65.32 33.12 60.95 C 32.16 58.62 31.48 56.19 30.89 53.75 C 30.96 50.55 30.97 47.35 31.07 44.16 C 33.32 38.68 37.88 34.60 40.30 29.21 M 36.41 57.34 C 36.81 59.89 39.18 61.28 41.04 62.73 C 40.71 54.04 40.96 45.33 40.50 36.64 C 40.66 36.16 40.98 35.20 41.14 34.72 C 34.80 40.02 31.95 49.98 36.41 57.34 Z" />
<path fill="#cdccb9" opacity="0.91" d=" M 68.30 30.50 C 68.74 30.52 69.64 30.54 70.09 30.56 C 69.86 30.96 69.42 31.76 69.19 32.16 C 67.10 32.59 65.00 33.02 62.90 33.44 C 62.83 36.01 62.80 38.58 62.77 41.16 C 62.73 43.44 62.66 45.72 62.57 48.00 C 62.43 51.95 62.18 55.92 62.47 59.87 C 62.52 60.37 62.62 61.37 62.67 61.87 C 61.89 61.56 61.11 61.25 60.34 60.94 C 60.44 58.22 60.50 55.49 60.64 52.77 C 61.32 45.88 61.23 38.94 60.96 32.03 C 63.40 31.51 65.84 30.95 68.30 30.50 Z" />
<path fill="#cdccb9" opacity="0.91" d=" M 42.23 31.99 C 44.26 32.03 46.30 32.09 48.33 32.09 C 47.02 32.62 45.73 33.21 44.44 33.78 C 44.01 44.03 44.82 54.36 43.22 64.54 C 41.90 61.18 42.24 57.50 42.32 53.97 C 42.65 46.65 42.48 39.31 42.23 31.99 Z" />
<path fill="#6f7e99" opacity="0.95" d=" M 48.33 32.09 L 49.16 32.04 C 49.09 32.71 48.96 34.04 48.90 34.71 C 47.41 45.22 47.76 55.86 47.02 66.43 C 45.75 65.81 44.47 65.20 43.22 64.54 C 44.82 54.36 44.01 44.03 44.44 33.78 C 45.73 33.21 47.02 32.62 48.33 32.09 Z" />
<path fill="#a9b6c5" opacity="0.96" d=" M 49.16 32.04 C 50.79 31.96 52.41 31.90 54.04 31.86 C 54.03 32.31 54.01 33.21 54.00 33.66 C 53.27 33.86 51.81 34.26 51.09 34.46 C 50.67 45.79 52.54 57.18 51.12 68.46 C 49.32 62.57 49.69 56.36 49.50 50.28 C 49.40 45.09 49.06 39.90 48.90 34.71 C 48.96 34.04 49.09 32.71 49.16 32.04 Z" />
<path fill="#44547c" opacity="0.94" d=" M 54.04 31.86 C 54.53 31.85 55.51 31.83 56.00 31.82 C 55.89 41.20 56.27 50.58 55.73 59.95 C 55.23 60.62 54.72 61.29 54.22 61.96 C 54.24 52.53 54.22 43.09 54.00 33.66 C 54.01 33.21 54.03 32.31 54.04 31.86 Z" />
<path fill="#bbc9d4" opacity="0.98" d=" M 56.00 31.82 C 56.75 31.81 58.24 31.79 58.99 31.78 C 58.89 32.19 58.68 33.01 58.57 33.42 C 54.74 44.09 59.65 55.88 55.61 66.45 C 55.59 64.29 55.63 62.12 55.73 59.95 C 56.27 50.58 55.89 41.20 56.00 31.82 Z" />
<path fill="#5e81a0" opacity="0.95" d=" M 51.09 34.46 C 51.81 34.26 53.27 33.86 54.00 33.66 C 54.22 43.09 54.24 52.53 54.22 61.96 C 54.72 61.29 55.23 60.62 55.73 59.95 C 55.63 62.12 55.59 64.29 55.61 66.45 C 59.65 55.88 54.74 44.09 58.57 33.42 C 59.31 40.66 58.97 47.94 59.43 55.19 C 59.85 54.39 60.25 53.58 60.64 52.77 C 60.50 55.49 60.44 58.22 60.34 60.94 C 61.11 61.25 61.89 61.56 62.67 61.87 C 63.21 62.08 64.29 62.50 64.83 62.71 C 65.35 62.09 65.87 61.48 66.39 60.86 C 66.00 59.85 65.60 58.84 65.23 57.82 C 64.85 56.75 64.49 55.68 64.15 54.61 C 66.89 56.67 68.44 59.73 69.93 62.73 C 65.58 65.78 62.36 70.08 59.25 74.32 C 56.87 73.82 54.49 73.31 52.11 72.80 C 53.29 71.75 54.43 70.65 55.57 69.56 C 54.17 69.51 52.77 69.47 51.37 69.42 C 51.30 69.18 51.18 68.70 51.12 68.46 C 52.54 57.18 50.67 45.79 51.09 34.46 Z" />
<path fill="#cdccb9" opacity="0.91" d=" M 36.41 57.34 C 31.95 49.98 34.80 40.02 41.14 34.72 C 40.98 35.20 40.66 36.16 40.50 36.64 C 39.21 40.18 37.03 43.39 36.28 47.11 C 35.78 50.50 36.08 53.95 36.41 57.34 Z" />
<path fill="#6b7fa3" opacity="0.95" d=" M 36.28 47.11 C 37.03 43.39 39.21 40.18 40.50 36.64 C 40.96 45.33 40.71 54.04 41.04 62.73 C 39.18 61.28 36.81 59.89 36.41 57.34 C 36.08 53.95 35.78 50.50 36.28 47.11 Z" />
<path fill="#4e58a0" opacity="0.80" d=" M 77.66 40.88 C 78.91 39.89 80.15 38.90 81.40 37.92 C 81.32 40.58 81.22 43.24 81.00 45.90 C 80.73 50.99 78.89 56.63 81.97 61.23 C 83.00 63.23 84.09 65.31 84.07 67.62 C 83.62 70.05 83.01 72.44 82.40 74.84 C 74.48 73.90 69.24 81.31 61.73 82.34 C 65.96 79.26 70.48 76.62 74.94 73.89 C 76.75 72.91 77.69 71.03 78.24 69.13 C 78.32 67.16 78.33 65.19 78.36 63.22 C 78.68 55.77 79.14 48.25 77.66 40.88 Z" />
<path fill="#495aae" opacity="0.95" d=" M 62.57 48.00 C 65.85 44.22 70.89 43.40 75.24 41.48 C 75.38 41.99 75.66 43.03 75.80 43.54 C 75.49 50.50 74.86 57.74 70.59 63.54 L 69.93 62.73 C 68.44 59.73 66.89 56.67 64.15 54.61 C 64.49 55.68 64.85 56.75 65.23 57.82 C 64.30 58.50 63.39 59.19 62.47 59.87 C 62.18 55.92 62.43 51.95 62.57 48.00 Z" />
<path fill="#dde5d7" opacity="0.95" d=" M 76.33 58.20 C 76.53 53.00 76.72 47.78 77.55 42.63 C 78.31 49.47 78.25 56.35 78.36 63.22 C 78.33 65.19 78.32 67.16 78.24 69.13 C 77.41 69.67 76.58 70.21 75.76 70.76 C 75.83 68.09 75.88 65.42 76.03 62.76 C 76.16 61.24 76.27 59.72 76.33 58.20 Z" />
<path fill="#0b298d" opacity="0.87" d=" M 75.80 43.54 L 76.02 44.39 C 76.45 48.98 76.54 53.60 76.33 58.20 C 76.27 59.72 76.16 61.24 76.03 62.76 C 75.42 64.29 74.74 65.79 74.07 67.30 C 72.38 67.05 70.68 66.81 68.98 66.57 C 69.51 65.56 70.04 64.54 70.59 63.54 C 74.86 57.74 75.49 50.50 75.80 43.54 Z" />
<path fill="#294365" opacity="0.66" d=" M 18.57 68.25 C 17.92 60.48 17.88 52.59 19.64 44.94 C 20.76 51.77 21.49 58.67 21.53 65.59 C 21.24 67.39 20.84 69.17 20.26 70.91 C 18.88 72.05 17.38 73.04 15.93 74.10 L 16.47 73.41 C 17.66 71.93 18.94 70.28 18.57 68.25 Z" />
<path fill="#0825d0" opacity="0.82" d=" M 81.00 45.90 C 81.56 45.92 82.69 45.97 83.25 46.00 C 83.33 51.10 82.87 56.21 81.97 61.23 C 78.89 56.63 80.73 50.99 81.00 45.90 Z" />
<path fill="#659eb6" opacity="0.93" d=" M 27.78 65.25 C 29.27 61.56 30.54 57.74 30.89 53.75 C 31.48 56.19 32.16 58.62 33.12 60.95 C 35.18 67.02 41.71 69.69 47.36 71.40 C 47.94 71.93 48.52 72.47 49.09 73.02 C 48.75 73.59 48.07 74.74 47.73 75.32 C 44.80 76.14 41.80 76.71 38.83 77.38 C 37.50 76.83 36.15 76.34 34.80 75.85 C 38.74 79.27 43.26 81.93 47.22 85.31 C 47.86 85.84 48.48 86.37 49.11 86.91 C 49.10 87.78 49.06 89.50 49.05 90.36 C 44.43 86.05 38.80 83.10 33.65 79.51 C 34.23 79.63 35.40 79.88 35.98 80.00 C 31.23 76.32 26.58 71.47 20.26 70.91 C 20.84 69.17 21.24 67.39 21.53 65.59 C 23.61 65.47 25.69 65.35 27.78 65.25 Z" />
<path fill="#030032" opacity="0.82" d=" M 62.47 59.87 C 63.39 59.19 64.30 58.50 65.23 57.82 C 65.60 58.84 66.00 59.85 66.39 60.86 C 65.87 61.48 65.35 62.09 64.83 62.71 C 64.29 62.50 63.21 62.08 62.67 61.87 C 62.62 61.37 62.52 60.37 62.47 59.87 Z" />
<path fill="#9abed2" opacity="0.98" d=" M 47.36 71.40 C 41.71 69.69 35.18 67.02 33.12 60.95 C 37.21 65.32 43.00 67.40 47.36 71.40 Z" />
<path fill="#475b80" opacity="0.87" d=" M 69.93 62.73 L 70.59 63.54 C 70.04 64.54 69.51 65.56 68.98 66.57 C 70.68 66.81 72.38 67.05 74.07 67.30 C 74.74 65.79 75.42 64.29 76.03 62.76 C 75.88 65.42 75.83 68.09 75.76 70.76 C 71.12 73.92 66.36 77.02 61.01 78.82 C 64.34 76.81 67.42 74.40 70.35 71.83 C 65.40 73.81 60.76 76.45 56.08 78.97 C 57.12 77.41 58.16 75.85 59.25 74.32 C 62.36 70.08 65.58 65.78 69.93 62.73 Z" />
<path fill="#7c83a8" opacity="0.93" d=" M 82.40 74.84 C 83.01 72.44 83.62 70.05 84.07 67.62 C 84.22 70.68 84.21 73.75 84.20 76.82 C 83.23 77.12 82.27 77.43 81.31 77.76 C 74.01 79.72 68.33 85.00 61.71 88.40 C 62.40 86.93 62.99 85.43 63.60 83.93 C 58.73 86.66 53.89 89.46 49.00 92.16 L 49.03 91.25 L 49.05 90.36 C 52.66 87.21 56.77 84.67 61.10 82.64 L 61.73 82.34 C 69.24 81.31 74.48 73.90 82.40 74.84 Z" />
<path fill="#b2cac4" opacity="0.98" d=" M 51.37 69.42 C 52.77 69.47 54.17 69.51 55.57 69.56 C 54.43 70.65 53.29 71.75 52.11 72.80 C 50.76 73.82 49.29 74.66 47.73 75.32 C 48.07 74.74 48.75 73.59 49.09 73.02 C 49.82 71.80 50.59 70.61 51.37 69.42 Z" />
<path fill="#8fa1cd" opacity="1.00" d=" M 75.76 70.76 C 76.58 70.21 77.41 69.67 78.24 69.13 C 77.69 71.03 76.75 72.91 74.94 73.89 C 70.48 76.62 65.96 79.26 61.73 82.34 L 61.10 82.64 C 61.05 81.59 61.02 80.55 60.99 79.52 L 61.01 78.82 C 66.36 77.02 71.12 73.92 75.76 70.76 Z" />
<path fill="#a1c7cb" opacity="1.00" d=" M 20.26 70.91 C 26.58 71.47 31.23 76.32 35.98 80.00 C 35.40 79.88 34.23 79.63 33.65 79.51 C 29.63 77.02 25.45 74.83 21.34 72.50 C 21.07 72.10 20.53 71.31 20.26 70.91 Z" />
<path fill="#8ea29a" opacity="0.82" d=" M 15.93 74.10 C 17.38 73.04 18.88 72.05 20.26 70.91 C 20.53 71.31 21.07 72.10 21.34 72.50 C 23.39 75.73 26.25 78.53 27.33 82.30 C 23.20 80.13 19.22 77.71 15.13 75.48 L 15.33 74.69 L 15.93 74.10 Z" />
<path fill="#839d89" opacity="0.93" d=" M 47.73 75.32 C 49.29 74.66 50.76 73.82 52.11 72.80 C 54.49 73.31 56.87 73.82 59.25 74.32 C 58.16 75.85 57.12 77.41 56.08 78.97 C 60.76 76.45 65.40 73.81 70.35 71.83 C 67.42 74.40 64.34 76.81 61.01 78.82 C 57.43 80.82 53.92 82.99 50.12 84.55 C 46.50 81.95 42.88 79.28 38.83 77.38 C 41.80 76.71 44.80 76.14 47.73 75.32 Z" />
<path fill="#627aa8" opacity="0.80" d=" M 21.34 72.50 C 25.45 74.83 29.63 77.02 33.65 79.51 C 33.97 80.97 33.87 82.76 35.18 83.76 C 39.16 87.28 44.22 89.17 49.03 91.25 L 49.00 92.16 C 48.97 93.49 48.93 94.83 48.89 96.17 C 45.75 94.24 42.65 92.25 39.48 90.37 C 35.57 87.47 31.55 84.72 27.33 82.30 C 26.25 78.53 23.39 75.73 21.34 72.50 Z" />
<path fill="#dfe2d6" opacity="1.00" d=" M 15.13 75.48 C 19.22 77.71 23.20 80.13 27.33 82.30 C 31.55 84.72 35.57 87.47 39.48 90.37 C 39.02 90.56 38.11 90.93 37.66 91.11 C 29.99 86.50 22.16 82.07 14.79 77.00 C 14.88 76.62 15.05 75.86 15.13 75.48 Z" />
<path fill="#b4baa6" opacity="0.94" d=" M 34.80 75.85 C 36.15 76.34 37.50 76.83 38.83 77.38 C 42.88 79.28 46.50 81.95 50.12 84.55 C 49.39 84.74 47.95 85.12 47.22 85.31 C 43.26 81.93 38.74 79.27 34.80 75.85 Z" />
<path fill="#c5cbd5" opacity="1.00" d=" M 61.71 88.40 C 68.33 85.00 74.01 79.72 81.31 77.76 C 78.79 79.72 76.45 81.90 73.98 83.91 C 69.36 86.20 64.92 88.81 60.65 91.68 C 56.88 94.11 53.18 96.91 48.74 97.99 C 52.32 93.88 57.23 91.36 61.71 88.40 Z" />
<path fill="#030032" opacity="0.82" d=" M 50.12 84.55 C 53.92 82.99 57.43 80.82 61.01 78.82 L 60.99 79.52 C 57.17 82.20 53.12 84.53 49.11 86.91 C 48.48 86.37 47.86 85.84 47.22 85.31 C 47.95 85.12 49.39 84.74 50.12 84.55 Z" />
<path fill="#465780" opacity="0.89" d=" M 35.18 83.76 C 33.87 82.76 33.97 80.97 33.65 79.51 C 38.80 83.10 44.43 86.05 49.05 90.36 L 49.03 91.25 C 44.22 89.17 39.16 87.28 35.18 83.76 Z" />
<path fill="#d9e4dc" opacity="1.00" d=" M 49.11 86.91 C 53.12 84.53 57.17 82.20 60.99 79.52 C 61.02 80.55 61.05 81.59 61.10 82.64 C 56.77 84.67 52.66 87.21 49.05 90.36 C 49.06 89.50 49.10 87.78 49.11 86.91 Z" />
<path fill="#b5b9a3" opacity="0.93" d=" M 49.00 92.16 C 53.89 89.46 58.73 86.66 63.60 83.93 C 62.99 85.43 62.40 86.93 61.71 88.40 C 57.23 91.36 52.32 93.88 48.74 97.99 C 44.79 96.13 41.24 93.57 37.66 91.11 C 38.11 90.93 39.02 90.56 39.48 90.37 C 42.65 92.25 45.75 94.24 48.89 96.17 C 48.93 94.83 48.97 93.49 49.00 92.16 Z" />
</svg>
