<?xml version="1.0" encoding="UTF-8" ?>
<!DOCTYPE svg PUBLIC "-//W3C//DTD SVG 1.1//EN" "http://www.w3.org/Graphics/SVG/1.1/DTD/svg11.dtd">
<svg width="100pt" height="100pt" viewBox="0 0 100 100" version="1.1" xmlns="http://www.w3.org/2000/svg">
<path fill="#06070a" opacity="0.93" d=" M 38.79 25.96 C 48.48 23.70 58.57 24.70 68.15 26.97 C 71.43 27.93 75.08 29.23 76.93 32.32 C 78.22 34.49 77.10 36.98 76.11 39.01 C 70.67 49.87 64.29 60.28 56.84 69.86 C 54.71 72.29 51.51 75.77 47.95 74.07 C 43.01 71.54 39.97 66.64 36.66 62.38 C 31.41 55.10 26.08 47.71 22.42 39.48 C 20.80 36.28 21.97 32.80 23.29 29.75 C 23.52 41.86 30.36 52.79 38.60 61.23 C 41.16 65.29 43.35 70.02 47.64 72.55 C 49.91 74.04 51.76 71.64 53.21 70.19 C 60.19 62.54 66.44 54.17 71.20 44.95 C 72.82 42.07 74.30 39.13 75.70 36.15 C 74.54 35.16 73.37 34.19 72.21 33.21 C 72.87 32.80 74.20 31.99 74.86 31.59 C 63.80 25.83 50.99 25.29 38.79 25.96 Z" />
<path fill="#495362" opacity="1.00" d=" M 33.95 26.90 C 35.47 26.23 37.15 26.09 38.79 25.96 C 50.99 25.29 63.80 25.83 74.86 31.59 C 74.20 31.99 72.87 32.80 72.21 33.21 C 68.08 35.77 63.12 34.17 58.60 34.23 C 55.75 34.15 53.32 35.88 50.89 37.13 C 49.05 33.95 45.93 31.90 42.56 30.61 C 42.97 30.49 43.79 30.25 44.19 30.13 C 39.03 30.26 33.87 30.54 28.76 31.25 C 30.47 29.78 32.16 28.28 33.95 26.90 M 55.80 29.21 C 57.44 30.63 58.98 32.30 61.04 33.08 C 63.48 33.44 65.93 32.94 68.35 32.68 C 64.72 29.99 60.26 29.02 55.80 29.21 Z" />
<path fill="#343743" opacity="1.00" d=" M 23.29 29.75 C 26.60 28.05 30.30 27.39 33.95 26.90 C 32.16 28.28 30.47 29.78 28.76 31.25 C 33.87 30.54 39.03 30.26 44.19 30.13 C 43.79 30.25 42.97 30.49 42.56 30.61 C 40.29 31.39 37.49 31.87 36.06 34.00 C 34.54 37.29 34.42 41.05 34.55 44.62 C 34.81 50.36 36.68 55.86 38.60 61.23 C 30.36 52.79 23.52 41.86 23.29 29.75 Z" />
<path fill="#afb9b8" opacity="1.00" d=" M 55.80 29.21 C 60.26 29.02 64.72 29.99 68.35 32.68 C 65.93 32.94 63.48 33.44 61.04 33.08 C 58.98 32.30 57.44 30.63 55.80 29.21 Z" />
<path fill="#ffe79d" opacity="1.00" d=" M 36.06 34.00 C 37.49 31.87 40.29 31.39 42.56 30.61 C 45.93 31.90 49.05 33.95 50.89 37.13 C 51.10 38.56 51.26 40.01 51.37 41.46 C 51.43 45.50 51.03 49.53 50.87 53.56 C 53.61 52.76 57.27 52.73 58.80 49.88 C 60.25 46.46 60.09 42.63 60.88 39.04 L 61.29 38.07 C 61.67 42.64 61.79 47.25 61.24 51.82 C 58.97 53.46 56.77 55.49 53.92 56.02 C 51.36 56.30 48.20 54.73 47.93 51.92 C 47.49 48.28 48.19 44.63 48.30 40.98 C 47.51 38.26 46.09 35.12 42.88 34.76 C 40.43 33.80 38.54 35.75 37.11 37.44 C 36.11 42.85 37.68 48.17 39.56 53.19 C 37.78 50.39 36.02 47.59 34.55 44.62 C 34.42 41.05 34.54 37.29 36.06 34.00 Z" />
<path fill="#333742" opacity="1.00" d=" M 50.89 37.13 C 53.32 35.88 55.75 34.15 58.60 34.23 C 63.12 34.17 68.08 35.77 72.21 33.21 C 73.37 34.19 74.54 35.16 75.70 36.15 C 74.30 39.13 72.82 42.07 71.20 44.95 C 66.74 47.77 63.59 52.07 60.63 56.35 C 60.84 54.84 61.06 53.33 61.24 51.82 C 61.79 47.25 61.67 42.64 61.29 38.07 L 60.88 39.04 C 58.27 41.44 54.74 41.80 51.37 41.46 C 51.26 40.01 51.10 38.56 50.89 37.13 Z" />
<path fill="#37424f" opacity="1.00" d=" M 37.11 37.44 C 38.54 35.75 40.43 33.80 42.88 34.76 C 46.09 35.12 47.51 38.26 48.30 40.98 C 45.60 41.09 42.90 41.15 40.21 41.24 C 39.17 39.97 38.14 38.71 37.11 37.44 Z" />
<path fill="#141420" opacity="1.00" d=" M 39.56 53.19 C 37.68 48.17 36.11 42.85 37.11 37.44 C 38.14 38.71 39.17 39.97 40.21 41.24 C 42.90 41.15 45.60 41.09 48.30 40.98 C 48.19 44.63 47.49 48.28 47.93 51.92 C 48.20 54.73 51.36 56.30 53.92 56.02 C 56.77 55.49 58.97 53.46 61.24 51.82 C 61.06 53.33 60.84 54.84 60.63 56.35 C 63.59 52.07 66.74 47.77 71.20 44.95 C 66.44 54.17 60.19 62.54 53.21 70.19 C 51.76 71.64 49.91 74.04 47.64 72.55 C 43.35 70.02 41.16 65.29 38.60 61.23 C 36.68 55.86 34.81 50.36 34.55 44.62 C 36.02 47.59 37.78 50.39 39.56 53.19 Z" />
<path fill="#151622" opacity="1.00" d=" M 51.37 41.46 C 54.74 41.80 58.27 41.44 60.88 39.04 C 60.09 42.63 60.25 46.46 58.80 49.88 C 57.27 52.73 53.61 52.76 50.87 53.56 C 51.03 49.53 51.43 45.50 51.37 41.46 Z" />
</svg>
