<?xml version="1.0" encoding="UTF-8" ?>
<!DOCTYPE svg PUBLIC "-//W3C//DTD SVG 1.1//EN" "http://www.w3.org/Graphics/SVG/1.1/DTD/svg11.dtd">
<svg width="100pt" height="100pt" viewBox="0 0 100 100" version="1.1" xmlns="http://www.w3.org/2000/svg">
<path fill="#0c0e11" opacity="0.89" d=" M 33.85 26.74 C 42.00 24.74 50.52 24.09 58.84 25.29 C 64.15 26.04 69.72 26.73 74.36 29.62 C 76.45 30.85 78.13 33.27 77.46 35.78 C 76.42 39.54 74.10 42.80 71.76 45.86 C 71.91 45.39 72.20 44.44 72.35 43.97 C 74.15 40.33 75.60 36.21 73.39 32.38 C 73.77 32.18 74.53 31.78 74.91 31.58 C 67.54 27.80 59.25 26.08 51.01 25.84 C 45.28 25.87 39.57 26.41 33.85 26.74 Z" />
<path fill="#46505e" opacity="1.00" d=" M 33.85 26.74 C 39.57 26.41 45.28 25.87 51.01 25.84 C 59.25 26.08 67.54 27.80 74.91 31.58 C 74.53 31.78 73.77 32.18 73.39 32.38 C 71.09 33.59 68.72 34.66 66.29 35.55 C 62.29 36.88 57.92 38.69 53.71 37.19 C 49.58 35.74 45.56 33.42 41.01 33.83 C 42.69 33.23 44.40 32.70 46.11 32.16 C 42.71 32.34 39.31 32.47 35.91 32.57 C 36.50 31.70 37.08 30.82 37.67 29.95 C 34.64 30.57 31.60 31.18 28.56 31.70 C 30.30 30.02 31.96 28.25 33.85 26.74 M 55.81 29.20 C 57.59 30.71 59.23 32.61 61.53 33.32 C 63.79 33.64 66.05 33.01 68.27 32.66 C 64.72 29.87 60.23 29.03 55.81 29.20 Z" />
<path fill="#333743" opacity="1.00" d=" M 23.31 29.75 C 26.60 28.09 30.26 27.39 33.85 26.74 C 31.96 28.25 30.30 30.02 28.56 31.70 C 31.60 31.18 34.64 30.57 37.67 29.95 C 37.08 30.82 36.50 31.70 35.91 32.57 C 39.31 32.47 42.71 32.34 46.11 32.16 C 44.40 32.70 42.69 33.23 41.01 33.83 C 38.44 34.76 36.07 36.15 33.71 37.50 C 36.77 37.23 39.84 36.65 42.92 36.91 C 45.95 37.25 48.29 39.42 50.62 41.19 C 45.84 41.17 40.86 40.79 36.26 42.36 C 33.45 43.29 34.78 46.70 34.76 48.91 C 34.79 49.18 34.86 49.73 34.90 50.01 C 36.39 54.58 38.32 59.00 40.33 63.37 C 36.96 59.19 32.87 55.55 30.16 50.86 C 26.50 44.40 23.09 37.37 23.31 29.75 Z" />
<path fill="#afb9b8" opacity="1.00" d=" M 55.81 29.20 C 60.23 29.03 64.72 29.87 68.27 32.66 C 66.05 33.01 63.79 33.64 61.53 33.32 C 59.23 32.61 57.59 30.71 55.81 29.20 Z" />
<path fill="#030407" opacity="0.93" d=" M 22.42 39.49 C 20.82 36.28 21.88 32.78 23.31 29.75 C 23.09 37.37 26.50 44.40 30.16 50.86 C 32.87 55.55 36.96 59.19 40.33 63.37 C 42.58 67.20 44.68 72.81 49.86 73.04 C 58.35 67.02 62.76 57.13 69.79 49.71 C 66.69 56.84 61.84 63.03 57.28 69.28 C 55.07 71.90 51.79 75.84 47.96 74.08 C 42.62 71.25 39.39 65.86 35.79 61.22 C 30.90 54.27 25.86 47.29 22.42 39.49 Z" />
<path fill="#343843" opacity="1.00" d=" M 66.29 35.55 C 68.72 34.66 71.09 33.59 73.39 32.38 C 75.60 36.21 74.15 40.33 72.35 43.97 C 67.88 46.89 64.55 51.08 61.72 55.54 C 58.25 54.12 54.68 53.00 51.14 51.81 C 53.59 52.37 56.26 52.80 58.65 51.77 C 60.95 50.81 62.20 48.50 63.31 46.41 C 63.63 43.89 63.75 41.34 64.21 38.83 C 64.89 37.73 65.59 36.64 66.29 35.55 Z" />
<path fill="#ffe4ac" opacity="1.00" d=" M 33.71 37.50 C 36.07 36.15 38.44 34.76 41.01 33.83 C 45.56 33.42 49.58 35.74 53.71 37.19 C 57.92 38.69 62.29 36.88 66.29 35.55 C 65.59 36.64 64.89 37.73 64.21 38.83 C 60.17 41.49 55.27 41.67 50.62 41.19 C 48.29 39.42 45.95 37.25 42.92 36.91 C 39.84 36.65 36.77 37.23 33.71 37.50 Z" />
<path fill="#191a26" opacity="1.00" d=" M 50.62 41.19 C 55.27 41.67 60.17 41.49 64.21 38.83 C 63.75 41.34 63.63 43.89 63.31 46.41 C 60.65 47.51 58.01 49.05 55.06 49.03 C 50.81 48.46 47.28 45.46 42.99 45.06 C 39.80 44.96 37.19 47.14 34.76 48.91 C 34.78 46.70 33.45 43.29 36.26 42.36 C 40.86 40.79 45.84 41.17 50.62 41.19 Z" />
<path fill="#141320" opacity="1.00" d=" M 61.72 55.54 C 64.55 51.08 67.88 46.89 72.35 43.97 C 72.20 44.44 71.91 45.39 71.76 45.86 C 71.37 47.26 70.85 48.66 69.79 49.71 C 62.76 57.13 58.35 67.02 49.86 73.04 C 44.68 72.81 42.58 67.20 40.33 63.37 C 38.32 59.00 36.39 54.58 34.90 50.01 C 37.45 49.32 40.02 48.05 42.72 48.37 C 45.69 49.08 48.28 50.81 51.14 51.81 C 54.68 53.00 58.25 54.12 61.72 55.54 Z" />
<path fill="#ffe4a5" opacity="1.00" d=" M 34.76 48.91 C 37.19 47.14 39.80 44.96 42.99 45.06 C 47.28 45.46 50.81 48.46 55.06 49.03 C 58.01 49.05 60.65 47.51 63.31 46.41 C 62.20 48.50 60.95 50.81 58.65 51.77 C 56.26 52.80 53.59 52.37 51.14 51.81 C 48.28 50.81 45.69 49.08 42.72 48.37 C 40.02 48.05 37.45 49.32 34.90 50.01 C 34.86 49.73 34.79 49.18 34.76 48.91 Z" />
</svg>
