<?xml version="1.0" encoding="UTF-8" ?>
<!DOCTYPE svg PUBLIC "-//W3C//DTD SVG 1.1//EN" "http://www.w3.org/Graphics/SVG/1.1/DTD/svg11.dtd">
<svg width="100pt" height="100pt" viewBox="0 0 100 100" version="1.1" xmlns="http://www.w3.org/2000/svg">
<path fill="#03060c" opacity="1.00" d=" M 38.80 26.02 C 45.34 24.21 52.25 23.85 58.92 25.17 C 64.58 26.27 70.82 26.74 75.48 30.49 C 77.23 31.86 78.09 34.34 77.26 36.45 C 76.03 39.90 73.97 42.99 71.75 45.88 C 71.88 45.41 72.14 44.46 72.27 43.98 C 73.35 41.36 74.44 38.74 75.50 36.11 C 74.38 35.09 73.26 34.08 72.13 33.08 C 72.79 32.71 74.11 31.98 74.77 31.62 C 63.76 25.84 50.95 25.30 38.80 26.02 Z" />
<path fill="#4b5463" opacity="1.00" d=" M 33.93 26.91 C 35.46 26.27 37.15 26.14 38.80 26.02 C 50.95 25.30 63.76 25.84 74.77 31.62 C 74.11 31.98 72.79 32.71 72.13 33.08 C 69.62 34.41 66.92 35.35 64.18 36.06 C 56.82 34.57 49.27 34.32 41.79 34.83 C 47.30 33.75 52.94 33.98 58.52 33.59 C 51.06 32.59 43.46 33.52 36.05 32.05 C 37.35 31.31 38.65 30.56 39.96 29.83 C 36.25 30.46 32.52 31.00 28.77 31.30 C 30.45 29.79 32.13 28.28 33.93 26.91 M 55.86 29.22 C 57.46 30.62 58.92 32.42 61.03 33.05 C 63.45 33.44 65.89 32.96 68.29 32.71 C 64.77 29.89 60.28 29.03 55.86 29.22 Z" />
<path fill="#323643" opacity="1.00" d=" M 23.38 29.76 C 26.61 27.98 30.32 27.41 33.93 26.91 C 32.13 28.28 30.45 29.79 28.77 31.30 C 32.52 31.00 36.25 30.46 39.96 29.83 C 38.65 30.56 37.35 31.31 36.05 32.05 C 43.46 33.52 51.06 32.59 58.52 33.59 C 52.94 33.98 47.30 33.75 41.79 34.83 C 39.64 35.25 37.58 36.02 35.53 36.77 C 45.01 37.81 54.87 38.64 64.18 36.06 C 66.92 35.35 69.62 34.41 72.13 33.08 C 73.26 34.08 74.38 35.09 75.50 36.11 C 74.44 38.74 73.35 41.36 72.27 43.98 C 67.45 46.91 64.13 51.50 61.21 56.20 C 60.24 55.45 59.27 54.69 58.31 53.93 C 59.15 53.30 60.00 52.68 60.85 52.05 C 54.46 52.14 48.05 51.99 41.72 51.04 C 48.72 51.42 55.73 51.23 62.72 51.00 C 62.75 50.60 62.79 49.80 62.82 49.40 C 62.98 46.73 62.89 44.06 62.78 41.39 C 53.54 42.19 44.14 40.77 35.03 42.92 C 35.05 44.61 35.08 46.31 35.11 48.01 C 36.48 48.21 37.84 48.39 39.21 48.54 C 38.05 48.79 36.89 49.05 35.74 49.33 C 36.87 49.83 38.00 50.33 39.16 50.78 C 37.72 50.89 36.28 51.02 34.85 51.18 C 36.79 55.19 38.64 59.25 40.44 63.32 C 36.42 58.73 31.82 54.51 29.08 48.96 C 26.01 43.01 22.95 36.65 23.38 29.76 Z" />
<path fill="#afb9b8" opacity="1.00" d=" M 55.86 29.22 C 60.28 29.03 64.77 29.89 68.29 32.71 C 65.89 32.96 63.45 33.44 61.03 33.05 C 58.92 32.42 57.46 30.62 55.86 29.22 Z" />
<path fill="#040508" opacity="0.93" d=" M 24.37 43.61 C 21.66 39.48 20.54 34.14 23.38 29.76 C 22.95 36.65 26.01 43.01 29.08 48.96 C 31.82 54.51 36.42 58.73 40.44 63.32 C 41.69 65.86 42.80 68.48 44.10 71.00 C 36.04 63.08 30.18 53.23 24.37 43.61 Z" />
<path fill="#f5d990" opacity="1.00" d=" M 35.53 36.77 C 37.58 36.02 39.64 35.25 41.79 34.83 C 49.27 34.32 56.82 34.57 64.18 36.06 C 54.87 38.64 45.01 37.81 35.53 36.77 Z" />
<path fill="#1a1a26" opacity="1.00" d=" M 35.03 42.92 C 44.14 40.77 53.54 42.19 62.78 41.39 C 62.89 44.06 62.98 46.73 62.82 49.40 C 55.01 48.22 47.09 48.31 39.21 48.54 C 37.84 48.39 36.48 48.21 35.11 48.01 C 35.08 46.31 35.05 44.61 35.03 42.92 Z" />
<path fill="#13131f" opacity="1.00" d=" M 61.21 56.20 C 64.13 51.50 67.45 46.91 72.27 43.98 C 72.14 44.46 71.88 45.41 71.75 45.88 C 71.13 48.58 69.85 51.05 68.35 53.35 C 64.84 58.78 61.32 64.23 57.27 69.27 C 55.72 71.14 54.08 73.09 51.80 74.08 C 48.92 75.27 45.61 73.52 44.10 71.00 C 42.80 68.48 41.69 65.86 40.44 63.32 C 38.64 59.25 36.79 55.19 34.85 51.18 C 36.28 51.02 37.72 50.89 39.16 50.78 C 39.80 50.84 41.08 50.98 41.72 51.04 C 48.05 51.99 54.46 52.14 60.85 52.05 C 60.00 52.68 59.15 53.30 58.31 53.93 C 59.27 54.69 60.24 55.45 61.21 56.20 Z" />
<path fill="#fff59f" opacity="1.00" d=" M 39.21 48.54 C 47.09 48.31 55.01 48.22 62.82 49.40 C 62.79 49.80 62.75 50.60 62.72 51.00 C 55.73 51.23 48.72 51.42 41.72 51.04 C 41.08 50.98 39.80 50.84 39.16 50.78 C 38.00 50.33 36.87 49.83 35.74 49.33 C 36.89 49.05 38.05 48.79 39.21 48.54 Z" />
</svg>
