<?xml version="1.0" encoding="UTF-8" ?>
<!DOCTYPE svg PUBLIC "-//W3C//DTD SVG 1.1//EN" "http://www.w3.org/Graphics/SVG/1.1/DTD/svg11.dtd">
<svg width="100pt" height="100pt" viewBox="0 0 100 100" version="1.1" xmlns="http://www.w3.org/2000/svg">
<path fill="#04070b" opacity="1.00" d=" M 38.79 26.04 C 45.32 24.18 52.26 23.77 58.92 25.18 C 64.35 26.29 70.29 26.64 74.89 30.07 C 76.83 31.42 78.17 34.07 77.22 36.39 C 71.97 47.85 65.41 58.70 57.73 68.70 C 55.69 71.22 53.35 74.02 49.99 74.61 C 45.92 73.90 43.13 70.43 40.60 67.46 C 34.07 59.11 27.93 50.37 23.05 40.94 C 21.09 37.43 21.36 33.16 23.51 29.81 C 22.73 36.72 26.25 42.95 29.09 48.97 C 31.80 54.53 36.48 58.69 40.44 63.33 C 42.42 67.14 44.43 72.09 49.12 73.05 C 51.76 73.39 52.62 70.30 53.73 68.52 C 57.14 64.35 61.36 60.79 63.89 55.95 C 66.16 51.61 68.96 47.61 71.79 43.64 C 73.38 41.32 74.48 38.74 75.50 36.14 C 74.33 35.23 73.16 34.31 72.01 33.39 C 72.67 32.94 73.99 32.05 74.65 31.60 C 63.73 25.76 50.89 25.33 38.79 26.04 Z" />
<path fill="#4b5362" opacity="1.00" d=" M 33.91 26.92 C 35.45 26.26 37.15 26.16 38.79 26.04 C 50.89 25.33 63.73 25.76 74.65 31.60 C 73.99 32.05 72.67 32.94 72.01 33.39 C 69.46 34.97 66.35 34.79 63.51 34.31 C 65.08 33.69 66.62 33.00 68.17 32.31 C 64.45 30.05 60.18 29.05 55.85 29.15 C 57.75 30.87 59.71 32.55 61.84 34.00 C 58.46 33.23 55.14 32.20 51.72 31.63 C 48.90 31.11 46.55 33.29 44.28 34.61 C 41.59 33.70 38.89 32.81 36.18 31.97 C 37.04 31.27 37.90 30.56 38.76 29.84 C 35.45 30.50 32.14 31.17 28.76 31.32 C 30.44 29.80 32.11 28.28 33.91 26.92 Z" />
<path fill="#333744" opacity="1.00" d=" M 23.51 29.81 C 26.61 27.84 30.36 27.46 33.91 26.92 C 32.11 28.28 30.44 29.80 28.76 31.32 C 32.14 31.17 35.45 30.50 38.76 29.84 C 37.90 30.56 37.04 31.27 36.18 31.97 C 38.89 32.81 41.59 33.70 44.28 34.61 C 41.07 36.91 37.88 39.44 35.81 42.88 C 35.77 46.40 35.56 49.97 36.23 53.45 C 37.23 56.89 39.06 60.02 40.44 63.33 C 36.48 58.69 31.80 54.53 29.09 48.97 C 26.25 42.95 22.73 36.72 23.51 29.81 Z" />
<path fill="#afb9b8" opacity="1.00" d=" M 55.85 29.15 C 60.18 29.05 64.45 30.05 68.17 32.31 C 66.62 33.00 65.08 33.69 63.51 34.31 C 63.09 34.23 62.26 34.07 61.84 34.00 C 59.71 32.55 57.75 30.87 55.85 29.15 Z" />
<path fill="#ffdc8e" opacity="1.00" d=" M 44.28 34.61 C 46.55 33.29 48.90 31.11 51.72 31.63 C 54.30 33.64 56.89 35.67 59.87 37.05 C 60.52 38.13 61.17 39.21 61.81 40.30 C 59.97 39.50 58.14 38.67 56.37 37.74 C 54.45 36.67 52.63 35.47 50.78 34.29 C 48.07 36.11 45.43 38.04 42.63 39.74 C 40.43 40.95 38.12 41.92 35.81 42.88 C 37.88 39.44 41.07 36.91 44.28 34.61 Z" />
<path fill="#383b46" opacity="1.00" d=" M 51.72 31.63 C 55.14 32.20 58.46 33.23 61.84 34.00 C 62.26 34.07 63.09 34.23 63.51 34.31 C 66.35 34.79 69.46 34.97 72.01 33.39 C 73.16 34.31 74.33 35.23 75.50 36.14 C 74.48 38.74 73.38 41.32 71.79 43.64 C 69.13 44.69 66.82 46.40 65.06 48.66 C 65.48 46.23 66.03 43.76 65.75 41.29 C 64.71 38.96 61.91 38.27 59.87 37.05 C 56.89 35.67 54.30 33.64 51.72 31.63 Z" />
<path fill="#3f4b5a" opacity="1.00" d=" M 42.63 39.74 C 45.43 38.04 48.07 36.11 50.78 34.29 C 52.63 35.47 54.45 36.67 56.37 37.74 C 53.54 38.95 50.67 40.09 47.80 41.19 C 46.08 40.69 44.35 40.22 42.63 39.74 Z" />
<path fill="#232532" opacity="1.00" d=" M 59.87 37.05 C 61.91 38.27 64.71 38.96 65.75 41.29 C 66.03 43.76 65.48 46.23 65.06 48.66 C 66.82 46.40 69.13 44.69 71.79 43.64 C 68.96 47.61 66.16 51.61 63.89 55.95 C 61.36 60.79 57.14 64.35 53.73 68.52 C 54.37 63.62 57.02 59.41 59.10 55.04 C 58.15 54.61 57.20 54.19 56.26 53.77 C 57.25 52.82 58.24 51.88 59.23 50.95 C 60.56 51.59 61.93 52.14 63.29 52.70 C 58.64 48.69 54.50 43.54 48.57 41.42 L 47.80 41.19 C 50.67 40.09 53.54 38.95 56.37 37.74 C 58.14 38.67 59.97 39.50 61.81 40.30 C 61.17 39.21 60.52 38.13 59.87 37.05 Z" />
<path fill="#13121e" opacity="1.00" d=" M 35.81 42.88 C 38.12 41.92 40.43 40.95 42.63 39.74 C 44.35 40.22 46.08 40.69 47.80 41.19 L 48.57 41.42 C 44.82 45.54 39.97 48.60 36.87 53.31 C 41.86 51.50 45.92 48.03 50.06 44.85 C 53.16 46.82 56.12 49.00 59.23 50.95 C 58.24 51.88 57.25 52.82 56.26 53.77 C 57.20 54.19 58.15 54.61 59.10 55.04 C 57.02 59.41 54.37 63.62 53.73 68.52 C 52.62 70.30 51.76 73.39 49.12 73.05 C 44.43 72.09 42.42 67.14 40.44 63.33 C 39.06 60.02 37.23 56.89 36.23 53.45 C 35.56 49.97 35.77 46.40 35.81 42.88 Z" />
<path fill="#ffe395" opacity="1.00" d=" M 48.57 41.42 C 54.50 43.54 58.64 48.69 63.29 52.70 C 61.93 52.14 60.56 51.59 59.23 50.95 C 56.12 49.00 53.16 46.82 50.06 44.85 C 45.92 48.03 41.86 51.50 36.87 53.31 C 39.97 48.60 44.82 45.54 48.57 41.42 Z" />
</svg>
