<?xml version="1.0" encoding="UTF-8" ?>
<!DOCTYPE svg PUBLIC "-//W3C//DTD SVG 1.1//EN" "http://www.w3.org/Graphics/SVG/1.1/DTD/svg11.dtd">
<svg width="100pt" height="100pt" viewBox="0 0 100 100" version="1.1" xmlns="http://www.w3.org/2000/svg">
<path fill="#04070b" opacity="1.00" d=" M 38.79 26.04 C 45.31 24.17 52.27 23.74 58.92 25.18 C 64.34 26.32 70.26 26.69 74.88 30.07 C 77.06 31.52 78.31 34.59 76.98 37.01 C 72.00 47.30 66.31 57.27 59.43 66.43 C 56.91 69.71 54.32 73.73 49.98 74.62 C 45.93 73.89 43.13 70.43 40.60 67.46 C 33.94 58.89 27.60 49.96 22.74 40.24 C 20.91 36.83 21.85 32.95 23.40 29.64 C 23.45 32.89 23.44 36.24 24.77 39.27 C 27.09 44.72 29.18 50.42 33.03 55.01 C 35.08 57.56 37.45 59.83 39.64 62.25 C 41.80 66.23 43.91 71.01 48.32 72.89 C 51.30 74.01 52.67 70.60 53.73 68.52 C 56.96 64.51 61.00 61.13 63.55 56.59 C 66.06 52.13 68.99 47.94 71.83 43.69 C 73.38 41.34 74.48 38.73 75.54 36.13 C 74.36 35.20 73.14 34.32 71.98 33.38 C 72.64 32.93 73.96 32.03 74.62 31.58 C 63.77 25.61 50.87 25.38 38.79 26.04 Z" />
<path fill="#465161" opacity="1.00" d=" M 33.84 26.86 C 35.43 26.31 37.12 26.13 38.79 26.04 C 50.87 25.38 63.77 25.61 74.62 31.58 C 73.96 32.03 72.64 32.93 71.98 33.38 C 69.25 35.43 65.75 34.81 62.65 34.15 C 64.50 33.64 66.33 33.03 68.16 32.42 C 64.54 29.93 60.20 29.02 55.85 29.15 C 57.73 30.89 59.68 32.58 61.82 34.00 C 59.69 33.78 57.19 32.90 55.30 34.37 C 52.88 36.06 51.06 38.44 49.05 40.58 L 48.58 41.03 C 46.00 35.66 40.89 31.83 35.01 30.87 C 35.74 31.49 36.47 32.10 37.22 32.70 C 34.42 32.09 31.58 31.62 28.76 31.10 C 30.42 29.65 32.11 28.22 33.84 26.86 Z" />
<path fill="#333743" opacity="1.00" d=" M 23.40 29.64 C 26.74 28.25 30.25 27.33 33.84 26.86 C 32.11 28.22 30.42 29.65 28.76 31.10 C 31.58 31.62 34.42 32.09 37.22 32.70 C 40.46 34.75 43.48 37.29 45.22 40.78 C 41.91 41.65 38.64 42.66 35.42 43.84 C 35.98 47.03 35.87 50.28 36.27 53.48 C 37.09 56.51 38.54 59.32 39.64 62.25 C 37.45 59.83 35.08 57.56 33.03 55.01 C 29.18 50.42 27.09 44.72 24.77 39.27 C 23.44 36.24 23.45 32.89 23.40 29.64 Z" />
<path fill="#afb9b8" opacity="1.00" d=" M 55.85 29.15 C 60.20 29.02 64.54 29.93 68.16 32.42 C 66.33 33.03 64.50 33.64 62.65 34.15 L 61.82 34.00 C 59.68 32.58 57.73 30.89 55.85 29.15 Z" />
<path fill="#ffe3a3" opacity="1.00" d=" M 35.01 30.87 C 40.89 31.83 46.00 35.66 48.58 41.03 C 49.54 42.81 50.44 44.62 51.33 46.43 C 54.73 46.27 58.85 45.52 61.01 48.84 C 57.50 48.93 53.68 48.60 50.55 50.50 C 47.66 52.27 45.43 54.88 42.90 57.10 C 43.32 53.51 45.33 50.50 47.77 47.94 C 46.94 45.55 46.18 43.12 45.22 40.78 C 43.48 37.29 40.46 34.75 37.22 32.70 C 36.47 32.10 35.74 31.49 35.01 30.87 Z" />
<path fill="#363a45" opacity="1.00" d=" M 55.30 34.37 C 57.19 32.90 59.69 33.78 61.82 34.00 L 62.65 34.15 C 65.75 34.81 69.25 35.43 71.98 33.38 C 73.14 34.32 74.36 35.20 75.54 36.13 C 74.48 38.73 73.38 41.34 71.83 43.69 C 69.05 44.57 66.76 46.36 65.04 48.69 C 65.50 45.80 65.77 42.89 66.04 39.98 C 60.38 40.24 54.72 40.77 49.05 40.58 C 51.06 38.44 52.88 36.06 55.30 34.37 Z" />
<path fill="#232533" opacity="1.00" d=" M 49.05 40.58 C 54.72 40.77 60.38 40.24 66.04 39.98 C 65.77 42.89 65.50 45.80 65.04 48.69 C 66.76 46.36 69.05 44.57 71.83 43.69 C 68.99 47.94 66.06 52.13 63.55 56.59 C 61.00 61.13 56.96 64.51 53.73 68.52 C 54.11 63.45 57.45 59.42 59.31 54.85 C 58.26 54.66 57.21 54.47 56.16 54.28 C 57.90 52.58 59.59 50.82 61.01 48.84 C 58.85 45.52 54.73 46.27 51.33 46.43 C 50.44 44.62 49.54 42.81 48.58 41.03 L 49.05 40.58 Z" />
<path fill="#13121e" opacity="1.00" d=" M 35.42 43.84 C 38.64 42.66 41.91 41.65 45.22 40.78 C 46.18 43.12 46.94 45.55 47.77 47.94 C 45.33 50.50 43.32 53.51 42.90 57.10 C 45.43 54.88 47.66 52.27 50.55 50.50 C 53.68 48.60 57.50 48.93 61.01 48.84 C 59.59 50.82 57.90 52.58 56.16 54.28 C 57.21 54.47 58.26 54.66 59.31 54.85 C 57.45 59.42 54.11 63.45 53.73 68.52 C 52.67 70.60 51.30 74.01 48.32 72.89 C 43.91 71.01 41.80 66.23 39.64 62.25 C 38.54 59.32 37.09 56.51 36.27 53.48 C 35.87 50.28 35.98 47.03 35.42 43.84 M 53.18 53.91 C 52.05 55.30 50.93 56.71 49.82 58.12 C 51.74 58.62 53.76 59.64 55.75 58.79 C 57.00 56.60 54.28 55.42 53.18 53.91 Z" />
<path fill="#ffdf98" opacity="1.00" d=" M 53.18 53.91 C 54.28 55.42 57.00 56.60 55.75 58.79 C 53.76 59.64 51.74 58.62 49.82 58.12 C 50.93 56.71 52.05 55.30 53.18 53.91 Z" />
</svg>
