<?xml version="1.0" encoding="UTF-8" ?>
<!DOCTYPE svg PUBLIC "-//W3C//DTD SVG 1.1//EN" "http://www.w3.org/Graphics/SVG/1.1/DTD/svg11.dtd">
<svg width="100pt" height="100pt" viewBox="0 0 100 100" version="1.1" xmlns="http://www.w3.org/2000/svg">
<path fill="#333333" opacity="1.00" d=" M 42.03 7.70 C 48.03 6.05 55.06 5.26 60.56 8.78 C 58.75 16.04 56.42 23.16 54.56 30.41 C 56.65 27.03 58.52 23.53 60.31 19.99 C 64.00 21.07 67.92 22.52 69.85 26.12 C 73.89 31.33 72.47 38.17 72.27 44.23 C 73.64 45.45 76.30 45.84 76.16 48.13 C 76.64 54.10 72.23 58.74 69.45 63.56 C 66.40 69.18 62.46 74.41 57.34 78.30 C 53.07 81.50 46.61 80.91 42.77 77.27 C 37.59 72.52 32.35 66.96 31.14 59.76 C 30.03 59.58 28.93 59.40 27.83 59.22 C 26.55 54.96 21.71 50.36 24.56 45.87 C 26.12 45.52 27.73 45.47 29.31 45.34 C 28.84 39.03 27.30 31.88 31.38 26.38 C 33.76 22.31 38.42 20.77 42.52 19.08 C 42.39 15.29 42.22 11.49 42.03 7.70 M 31.84 43.61 C 32.64 45.09 33.47 46.55 34.26 48.03 C 37.56 50.50 41.61 49.95 45.45 49.83 C 46.23 54.24 46.46 58.73 47.35 63.12 C 47.47 57.69 47.61 52.23 48.72 46.89 C 43.93 44.97 38.86 43.51 33.64 44.08 C 33.19 43.96 32.29 43.73 31.84 43.61 M 52.13 46.41 C 51.98 51.68 52.08 56.96 52.67 62.20 C 53.46 57.94 53.78 53.60 54.06 49.28 C 56.36 49.65 58.66 50.11 61.00 50.17 C 63.45 50.54 64.99 48.21 66.76 46.94 C 64.10 46.76 61.43 46.65 58.77 46.57 C 61.34 45.79 63.88 44.92 66.39 43.98 C 61.49 43.63 56.73 44.91 52.13 46.41 M 45.55 65.79 C 47.09 67.04 48.57 68.38 50.12 69.62 C 51.65 68.37 53.19 67.13 54.71 65.86 C 51.66 65.74 48.60 65.69 45.55 65.79 Z" />
<path fill="#202020" opacity="0.64" d=" M 31.84 43.61 C 32.29 43.73 33.19 43.96 33.64 44.08 C 36.24 44.78 38.82 45.54 41.41 46.29 C 39.03 46.88 36.64 47.42 34.26 48.03 C 33.47 46.55 32.64 45.09 31.84 43.61 Z" />
<path fill="#333333" opacity="1.00" d=" M 76.41 58.66 C 78.12 61.08 80.31 63.67 79.77 66.86 C 79.50 72.23 75.81 76.40 73.04 80.70 C 78.41 77.99 80.37 72.13 81.96 66.76 C 84.55 71.27 83.21 76.98 78.96 79.95 C 70.73 85.65 60.04 84.45 51.00 88.06 C 48.66 89.09 46.59 90.62 44.41 91.94 C 46.13 89.25 47.88 86.36 50.77 84.79 C 56.17 81.57 63.24 80.51 66.96 74.98 C 69.77 70.34 70.95 64.86 74.26 60.48 C 75.25 62.27 76.46 64.28 75.63 66.38 C 74.51 70.84 70.88 73.92 68.07 77.33 C 71.38 75.05 75.24 72.64 76.45 68.56 C 77.05 65.29 76.49 61.95 76.41 58.66 Z" />
<path fill="#040404" opacity="0.09" d=" M 45.55 65.79 C 48.60 65.69 51.66 65.74 54.71 65.86 C 53.19 67.13 51.65 68.37 50.12 69.62 C 48.57 68.38 47.09 67.04 45.55 65.79 Z" />
</svg>
