<?xml version="1.0" encoding="UTF-8" ?>
<!DOCTYPE svg PUBLIC "-//W3C//DTD SVG 1.1//EN" "http://www.w3.org/Graphics/SVG/1.1/DTD/svg11.dtd">
<svg width="100pt" height="100pt" viewBox="0 0 100 100" version="1.1" xmlns="http://www.w3.org/2000/svg">
<path fill="#333333" opacity="1.00" d=" M 18.65 9.74 C 21.18 8.62 23.71 10.37 26.08 11.14 C 21.44 11.82 16.95 13.54 13.73 17.08 C 21.56 18.83 30.36 17.93 37.21 22.78 C 40.82 25.05 39.30 30.50 42.50 33.08 C 45.36 32.91 48.09 31.71 50.98 31.81 C 53.74 32.11 56.35 33.11 58.99 33.90 C 60.23 30.68 60.58 27.12 62.15 24.06 C 68.80 17.78 78.64 19.07 86.92 17.09 C 83.84 13.49 79.41 11.82 74.84 11.12 C 76.97 10.45 79.12 9.05 81.42 9.57 C 88.04 12.06 93.63 17.25 95.93 24.03 C 94.71 25.05 93.73 26.77 91.94 26.74 C 87.18 27.05 82.26 26.17 77.64 27.72 C 71.50 30.02 66.26 35.08 64.78 41.61 C 68.58 41.85 72.58 41.39 76.19 42.81 C 78.28 46.24 77.59 51.24 81.33 53.59 C 84.51 55.69 87.09 58.54 88.42 62.15 C 84.37 59.19 80.20 56.32 75.47 54.54 C 71.61 53.13 68.97 49.84 65.58 47.66 C 64.91 52.35 65.47 57.10 67.16 61.51 C 65.25 63.48 63.22 65.38 61.74 67.71 C 59.34 71.60 59.30 76.37 57.45 80.49 C 55.49 82.52 52.77 83.90 50.00 84.42 C 47.27 83.87 44.58 82.46 42.75 80.34 C 41.13 76.42 41.00 71.97 38.77 68.28 C 37.18 65.71 35.09 63.52 33.14 61.23 C 34.15 58.65 35.54 56.08 35.58 53.25 C 35.60 51.38 33.91 50.23 32.68 49.10 C 30.52 51.16 28.29 53.28 25.42 54.29 C 20.92 55.99 16.69 58.28 12.60 60.79 C 14.01 57.64 16.39 55.14 19.02 52.97 C 22.41 50.38 21.35 45.12 24.44 42.42 C 28.30 41.56 32.31 41.92 36.19 41.09 C 34.37 36.27 31.26 31.82 26.64 29.32 C 21.40 25.92 14.94 26.99 9.05 26.74 C 7.23 26.83 6.14 25.17 4.91 24.12 C 7.06 17.50 12.39 12.50 18.65 9.74 M 41.71 50.79 C 40.42 51.52 39.10 52.20 37.80 52.90 C 38.98 56.19 41.08 58.97 43.33 61.59 C 45.89 64.54 45.35 68.68 45.78 72.29 C 46.72 68.78 48.00 64.97 46.65 61.40 C 45.24 57.76 43.26 54.37 41.71 50.79 M 53.79 62.21 C 52.93 66.23 54.43 70.25 55.49 74.09 C 55.53 70.08 54.13 65.39 57.07 62.05 C 59.75 58.89 62.21 55.54 63.82 51.70 C 62.21 51.76 60.59 51.61 59.04 51.13 C 57.34 54.85 55.12 58.34 53.79 62.21 Z" />
</svg>
