<?xml version="1.0" encoding="UTF-8" ?>
<!DOCTYPE svg PUBLIC "-//W3C//DTD SVG 1.1//EN" "http://www.w3.org/Graphics/SVG/1.1/DTD/svg11.dtd">
<svg width="100pt" height="100pt" viewBox="0 0 100 100" version="1.1" xmlns="http://www.w3.org/2000/svg">
<path fill="#333333" opacity="1.00" d=" M 46.24 19.69 C 50.78 17.52 54.31 13.89 57.13 9.79 C 57.13 12.89 57.13 15.99 57.21 19.09 C 61.37 21.07 65.04 23.90 68.46 26.95 C 65.63 26.77 62.81 26.52 59.99 26.25 C 59.79 31.18 56.37 34.82 53.28 38.30 C 56.96 35.53 60.22 32.25 63.01 28.59 C 65.26 28.87 67.51 29.15 69.75 29.45 C 72.88 36.09 71.51 43.43 70.91 50.43 C 76.21 40.55 86.03 34.41 92.19 25.20 C 93.77 22.94 95.36 20.68 97.08 18.53 C 94.88 26.87 91.62 34.89 89.06 43.12 C 86.69 51.14 80.56 57.10 75.38 63.37 C 73.64 65.83 70.57 66.35 67.84 67.03 C 66.89 69.80 66.39 73.01 64.02 74.99 C 59.90 78.61 55.02 81.22 50.24 83.86 C 45.73 81.05 41.00 78.50 36.96 75.02 C 34.52 73.05 34.14 69.74 33.26 66.93 C 30.73 66.42 27.81 66.17 26.10 63.96 C 22.52 59.83 18.85 55.74 15.76 51.22 C 12.81 46.99 11.52 41.94 9.90 37.11 C 7.92 30.92 5.45 24.87 3.90 18.54 C 7.14 22.53 9.68 27.04 13.16 30.83 C 17.55 35.60 22.16 40.16 27.00 44.47 C 27.25 40.53 26.82 36.31 28.75 32.71 C 30.89 28.68 33.64 24.95 36.95 21.81 C 38.12 20.55 39.89 20.33 41.46 19.89 C 43.41 17.69 45.14 15.32 46.84 12.92 C 46.63 15.18 46.41 17.43 46.24 19.69 M 28.48 51.23 C 30.00 45.72 31.34 40.16 32.45 34.56 C 28.87 39.34 28.69 45.51 28.48 51.23 M 59.53 43.10 C 63.02 42.03 66.31 40.36 69.19 38.10 C 65.60 38.93 62.25 40.60 59.53 43.10 M 53.66 47.66 C 52.80 50.82 54.34 53.87 55.47 56.74 C 52.18 55.20 48.61 55.12 45.21 56.31 C 47.59 52.63 47.43 48.30 46.17 44.26 C 46.29 47.77 46.12 51.30 45.34 54.74 C 40.20 51.96 35.66 48.27 30.87 44.95 C 31.95 48.60 32.68 52.68 35.58 55.41 C 38.10 57.90 41.94 57.76 45.01 59.16 C 46.42 60.41 46.91 62.34 47.69 63.99 C 47.97 61.06 48.35 58.03 50.08 55.55 C 53.49 58.11 52.72 62.44 52.45 66.13 C 53.44 63.56 54.46 61.01 55.55 58.49 C 57.99 61.77 59.74 65.48 61.32 69.24 C 64.20 65.42 66.91 61.46 69.24 57.28 C 68.54 57.30 67.14 57.33 66.44 57.35 C 64.93 59.97 63.38 62.55 61.82 65.14 C 60.07 63.03 58.32 60.92 56.51 58.86 C 59.86 58.15 63.79 58.00 66.18 55.18 C 68.42 52.52 68.93 48.91 69.92 45.67 C 65.23 48.47 61.07 52.18 56.02 54.34 C 53.14 50.49 55.57 46.09 57.52 42.49 C 56.12 44.11 54.45 45.62 53.66 47.66 M 29.13 52.47 C 28.19 53.60 28.44 54.23 29.90 54.36 C 30.85 53.23 30.59 52.60 29.13 52.47 M 31.92 57.86 C 34.39 61.75 36.91 65.61 39.51 69.42 C 40.54 66.93 41.51 64.42 42.41 61.89 C 41.26 62.92 40.12 63.97 38.98 65.01 C 37.25 62.01 35.51 59.01 33.75 56.03 C 33.14 56.64 32.53 57.25 31.92 57.86 M 46.75 69.24 C 47.93 70.79 49.11 72.33 50.30 73.88 C 51.64 72.36 52.97 70.84 54.29 69.32 C 51.77 69.28 49.26 69.25 46.75 69.24 Z" />
<path fill="#1f1f1f" opacity="0.61" d=" M 59.53 43.10 C 62.25 40.60 65.60 38.93 69.19 38.10 C 66.31 40.36 63.02 42.03 59.53 43.10 Z" />
<path fill="#2c2c2c" opacity="0.87" d=" M 33.40 48.74 C 35.57 50.07 37.64 51.56 39.53 53.28 C 36.76 52.82 34.27 51.59 33.40 48.74 Z" />
<path fill="#333333" opacity="1.00" d=" M 60.79 54.06 C 62.80 52.42 64.99 51.02 67.32 49.89 C 65.68 52.02 63.38 53.41 60.79 54.06 Z" />
<path fill="#0b0b0b" opacity="0.23" d=" M 29.13 52.47 C 30.59 52.60 30.85 53.23 29.90 54.36 C 28.44 54.23 28.19 53.60 29.13 52.47 Z" />
</svg>
