<?xml version="1.0" encoding="UTF-8" ?>
<!DOCTYPE svg PUBLIC "-//W3C//DTD SVG 1.1//EN" "http://www.w3.org/Graphics/SVG/1.1/DTD/svg11.dtd">
<svg width="100pt" height="100pt" viewBox="0 0 100 100" version="1.1" xmlns="http://www.w3.org/2000/svg">
<path fill="#333333" opacity="1.00" d=" M 22.74 26.78 C 31.98 28.05 41.46 29.28 50.69 27.24 C 59.27 30.00 68.24 27.45 76.95 26.96 C 77.01 30.56 77.53 34.46 75.83 37.79 C 74.70 39.23 72.87 39.89 71.32 40.78 C 69.28 37.44 67.28 34.05 64.95 30.89 C 68.21 38.21 73.30 44.67 75.53 52.44 C 77.00 56.92 77.72 61.60 78.05 66.29 C 76.05 64.18 74.10 62.03 72.05 59.97 C 73.58 62.70 75.19 65.39 76.74 68.12 C 71.52 70.76 66.38 73.62 60.96 75.85 C 56.84 77.76 53.43 73.60 49.80 72.32 C 46.48 73.12 43.87 76.32 40.40 76.33 C 34.73 74.12 29.07 71.57 23.92 68.32 C 20.50 59.11 25.16 49.74 28.98 41.47 C 26.95 40.09 24.33 39.15 23.13 36.86 C 21.90 33.64 22.51 30.12 22.74 26.78 M 33.56 44.32 C 33.29 46.75 33.73 49.18 33.93 51.59 C 35.70 49.79 37.90 48.18 38.84 45.75 C 39.24 43.52 38.47 41.30 38.07 39.13 C 36.42 40.66 33.86 41.83 33.56 44.32 M 60.89 39.10 C 60.45 41.28 59.38 43.53 59.97 45.79 C 60.98 48.16 63.09 49.79 64.87 51.56 C 65.09 48.98 65.73 46.35 65.19 43.78 C 64.47 41.70 62.39 40.56 60.89 39.10 M 41.78 62.82 C 44.39 65.33 47.26 67.54 49.99 69.92 C 52.78 67.62 55.65 65.39 58.18 62.80 C 55.39 63.61 52.65 64.61 49.96 65.71 C 47.29 64.61 44.57 63.61 41.78 62.82 Z" />
<path fill="#333333" opacity="1.00" d=" M 45.14 75.06 C 47.96 74.31 50.88 74.29 53.71 74.97 C 52.31 75.87 51.14 77.74 49.29 77.54 C 47.75 77.03 46.42 76.03 45.14 75.06 Z" />
</svg>
