<?xml version="1.0" encoding="UTF-8" ?>
<!DOCTYPE svg PUBLIC "-//W3C//DTD SVG 1.1//EN" "http://www.w3.org/Graphics/SVG/1.1/DTD/svg11.dtd">
<svg width="100pt" height="100pt" viewBox="0 0 100 100" version="1.1" xmlns="http://www.w3.org/2000/svg">
<path fill="#333333" opacity="1.00" d=" M 32.07 25.98 C 36.44 20.84 43.37 18.58 50.00 19.10 C 56.58 18.62 63.49 21.13 67.54 26.45 C 69.52 31.19 70.04 36.39 71.43 41.32 C 68.32 41.18 65.19 40.63 62.10 41.09 C 59.16 41.82 56.64 43.60 54.04 45.07 C 53.48 44.76 52.34 44.14 51.78 43.83 C 51.75 42.38 51.73 40.92 51.71 39.46 C 50.96 39.99 50.20 40.52 49.44 41.05 C 48.89 40.79 48.33 40.53 47.78 40.27 C 47.47 41.94 47.14 43.60 46.78 45.27 C 43.42 44.00 40.35 42.05 36.90 41.01 C 34.15 40.50 31.36 41.27 28.62 41.58 C 33.05 44.11 38.02 45.29 42.88 46.69 C 42.01 48.87 41.15 51.05 40.33 53.25 C 43.51 50.19 46.67 47.10 49.58 43.79 C 52.26 46.93 55.08 49.94 57.90 52.95 C 57.23 50.93 56.52 48.92 55.83 46.91 C 62.06 44.99 68.37 43.28 74.23 40.37 C 75.52 42.67 77.43 45.03 76.95 47.86 C 76.33 52.00 73.87 55.56 72.70 59.54 C 71.96 62.62 73.29 66.32 70.99 68.91 C 67.98 72.50 64.86 76.02 62.49 80.09 C 61.82 78.37 61.16 76.64 60.53 74.91 C 60.50 77.98 60.43 81.06 60.33 84.13 C 53.30 85.72 45.96 85.73 38.93 84.08 C 38.61 80.99 38.29 77.89 37.89 74.81 C 37.59 76.57 37.30 78.34 37.00 80.10 C 34.57 76.25 31.61 72.80 28.69 69.34 C 26.34 66.88 27.17 63.27 26.66 60.21 C 25.81 55.37 22.29 51.26 22.28 46.22 C 22.12 43.77 24.44 42.36 25.98 40.87 C 30.85 37.45 29.34 30.64 32.07 25.98 M 33.68 36.32 C 37.64 36.93 41.77 37.85 45.75 36.86 C 47.19 36.05 48.40 34.90 49.66 33.84 C 44.42 35.17 38.99 35.37 33.68 36.32 M 50.16 34.67 C 54.35 38.55 60.27 37.19 65.33 36.36 C 60.35 35.28 55.24 34.89 50.16 34.67 M 40.80 58.35 C 43.65 60.24 46.36 62.82 49.81 63.46 C 52.95 62.39 55.55 60.24 58.23 58.36 C 52.42 58.21 46.61 58.21 40.80 58.35 Z" />
</svg>
