<?xml version="1.0" encoding="UTF-8" ?>
<!DOCTYPE svg PUBLIC "-//W3C//DTD SVG 1.1//EN" "http://www.w3.org/Graphics/SVG/1.1/DTD/svg11.dtd">
<svg width="100pt" height="100pt" viewBox="0 0 100 100" version="1.1" xmlns="http://www.w3.org/2000/svg">
<path fill="#333333" opacity="1.00" d=" M 23.69 32.54 C 29.63 16.19 53.63 9.34 66.78 21.23 C 70.43 25.08 73.70 30.02 73.57 35.53 C 73.64 37.91 73.39 40.29 73.26 42.66 C 75.42 41.34 77.53 39.92 79.74 38.66 C 76.11 45.27 76.19 53.13 72.63 59.74 C 68.95 65.80 65.43 72.29 59.36 76.31 C 55.75 78.76 51.29 82.60 46.71 80.19 C 39.94 76.76 33.97 71.50 30.37 64.75 C 23.19 57.99 23.43 47.47 19.79 38.89 C 22.58 40.51 25.18 42.44 27.96 44.09 C 27.56 39.96 27.18 35.82 26.79 31.69 C 25.76 31.98 24.73 32.26 23.69 32.54 M 29.88 36.16 C 31.04 37.98 32.38 39.69 33.38 41.61 C 33.91 42.81 33.53 44.39 34.29 45.42 C 37.77 47.16 41.65 47.95 45.14 49.68 C 41.29 49.30 37.45 48.69 33.57 48.85 C 34.44 50.15 35.06 51.77 36.47 52.59 C 39.43 53.45 42.66 52.77 45.31 51.30 C 46.41 50.58 48.18 49.94 47.68 48.28 C 45.86 46.62 43.44 45.86 41.32 44.68 C 37.03 42.53 33.62 39.09 29.88 36.16 M 51.32 47.56 C 50.25 50.98 55.37 52.67 58.09 52.92 C 61.22 53.68 63.56 51.37 65.13 48.99 C 61.95 48.79 58.76 48.86 55.58 48.75 C 58.61 47.56 61.79 46.82 64.85 45.71 C 64.32 42.78 65.64 40.18 67.08 37.73 C 62.28 41.71 56.95 44.91 51.32 47.56 M 51.24 52.79 C 50.24 53.83 50.67 56.07 52.12 56.49 C 54.03 56.14 53.13 52.09 51.24 52.79 M 47.27 53.89 C 46.25 54.55 46.17 56.39 47.20 57.06 C 48.92 57.32 49.01 53.64 47.27 53.89 M 45.55 62.77 C 46.68 64.44 47.97 66.06 49.77 67.05 C 51.08 65.71 52.27 64.26 53.36 62.73 C 50.76 62.53 48.15 62.54 45.55 62.77 Z" />
<path fill="#1b1b1b" opacity="0.54" d=" M 51.24 52.79 C 53.13 52.09 54.03 56.14 52.12 56.49 C 50.67 56.07 50.24 53.83 51.24 52.79 Z" />
<path fill="#0b0b0b" opacity="0.22" d=" M 47.27 53.89 C 49.01 53.64 48.92 57.32 47.20 57.06 C 46.17 56.39 46.25 54.55 47.27 53.89 Z" />
</svg>
