<?xml version="1.0" encoding="UTF-8" ?>
<!DOCTYPE svg PUBLIC "-//W3C//DTD SVG 1.1//EN" "http://www.w3.org/Graphics/SVG/1.1/DTD/svg11.dtd">
<svg width="100pt" height="100pt" viewBox="0 0 100 100" version="1.1" xmlns="http://www.w3.org/2000/svg">
<path fill="#333333" opacity="1.00" d=" M 45.55 14.48 C 49.10 12.36 53.31 13.93 56.92 15.03 C 60.70 16.47 64.77 17.49 68.06 19.92 C 71.93 23.87 73.98 29.16 76.47 34.01 C 81.32 29.13 86.48 24.49 92.42 20.96 C 88.54 29.76 84.05 38.28 79.91 46.97 C 77.99 50.60 78.89 54.88 77.50 58.67 C 76.18 62.26 75.26 65.97 74.68 69.75 C 73.19 68.44 71.55 67.23 70.41 65.58 C 70.57 61.62 72.70 58.09 73.68 54.31 C 69.14 59.09 66.97 65.59 62.15 70.14 C 59.23 72.94 56.46 76.23 52.57 77.68 C 49.46 78.77 46.33 76.99 44.07 74.95 C 40.06 71.31 35.98 67.53 33.39 62.71 C 31.87 59.92 30.13 57.26 28.21 54.74 C 29.25 58.14 30.86 61.40 31.33 64.96 C 30.33 66.78 28.65 68.06 27.15 69.44 C 26.43 65.82 25.53 62.23 24.35 58.72 C 23.02 54.78 23.45 50.40 21.43 46.66 C 17.22 38.10 12.91 29.59 8.92 20.92 C 15.09 24.61 20.70 29.23 25.28 34.78 C 25.46 30.06 27.39 25.18 31.53 22.58 C 36.12 19.75 40.78 17.02 45.55 14.48 M 37.60 36.82 C 41.78 39.43 45.68 42.57 50.23 44.54 C 55.12 43.00 59.08 39.44 63.42 36.81 C 59.76 33.28 55.98 29.88 52.04 26.65 C 52.76 29.28 54.18 31.84 54.16 34.61 C 53.32 37.00 51.73 39.01 50.36 41.10 C 49.13 38.95 47.66 36.87 46.92 34.48 C 46.91 31.76 48.26 29.24 48.96 26.66 C 45.03 29.88 41.25 33.29 37.60 36.82 M 34.90 43.35 C 38.42 44.82 41.89 46.51 44.80 49.04 C 40.63 48.69 36.50 48.05 32.35 47.61 C 33.93 48.99 35.43 50.51 37.30 51.49 C 40.02 52.73 43.13 52.83 45.83 54.14 C 46.94 55.61 47.61 57.34 48.42 58.98 C 48.56 55.70 49.18 52.44 49.09 49.15 C 45.96 44.67 40.14 43.12 34.90 43.35 M 51.36 48.23 C 51.78 51.82 52.06 55.42 52.23 59.04 C 52.80 57.32 53.37 55.61 53.94 53.90 C 59.26 53.30 64.92 52.45 68.58 48.11 C 62.84 47.90 57.34 49.64 52.50 52.65 C 55.73 48.36 60.18 45.30 65.12 43.30 C 60.00 42.95 55.45 45.44 51.36 48.23 M 45.73 62.26 C 47.08 63.85 48.43 65.44 49.79 67.02 C 51.22 65.41 52.64 63.79 54.06 62.18 C 51.29 62.19 48.51 62.21 45.73 62.26 Z" />
<path fill="#2a2a2a" opacity="0.83" d=" M 45.16 50.31 C 46.57 49.89 47.05 50.38 46.61 51.78 C 45.20 52.20 44.72 51.71 45.16 50.31 Z" />
<path fill="#333333" opacity="1.00" d=" M 20.44 65.75 C 18.83 62.49 19.44 58.96 22.02 56.39 C 22.40 59.61 21.67 62.79 20.44 65.75 Z" />
<path fill="#333333" opacity="1.00" d=" M 78.22 60.21 C 79.24 59.47 80.25 58.74 81.27 58.00 C 81.10 60.59 80.88 63.17 80.55 65.74 C 79.75 63.91 78.98 62.06 78.22 60.21 Z" />
</svg>
