<?xml version="1.0" encoding="UTF-8" ?>
<!DOCTYPE svg PUBLIC "-//W3C//DTD SVG 1.1//EN" "http://www.w3.org/Graphics/SVG/1.1/DTD/svg11.dtd">
<svg width="100pt" height="100pt" viewBox="0 0 100 100" version="1.1" xmlns="http://www.w3.org/2000/svg">
<path fill="#333333" opacity="1.00" d=" M 41.32 17.18 C 48.51 15.04 56.52 16.30 62.89 20.18 C 66.85 22.98 70.50 26.98 71.09 31.99 C 71.48 35.79 70.92 39.59 70.65 43.38 C 72.57 44.85 75.88 46.00 75.38 49.00 C 74.98 53.78 72.08 57.84 69.93 61.99 C 67.31 66.01 66.18 71.16 62.05 74.03 C 58.11 76.95 54.39 81.42 48.99 81.04 C 43.64 81.33 40.04 76.80 36.10 73.94 C 32.38 71.39 31.40 66.74 28.73 63.35 C 25.14 58.46 21.84 52.82 22.19 46.54 C 23.83 45.54 25.49 44.57 27.13 43.58 C 26.82 38.64 25.33 33.47 26.76 28.63 C 30.58 23.79 34.88 18.35 41.32 17.18 M 31.05 43.73 C 33.23 45.41 35.64 46.77 38.11 47.98 C 36.28 48.20 34.45 48.42 32.62 48.66 C 33.76 49.85 34.76 51.22 36.19 52.08 C 40.89 53.47 45.07 50.18 48.99 48.11 C 52.15 49.86 55.26 52.28 59.01 52.43 C 61.75 52.72 63.44 50.28 65.20 48.63 C 63.43 48.40 61.66 48.18 59.89 47.98 C 62.43 46.81 64.97 45.51 66.71 43.24 C 60.96 43.78 55.70 46.51 49.98 47.11 C 43.41 47.60 37.62 43.11 31.05 43.73 M 46.93 58.36 C 46.94 56.04 46.89 53.72 46.71 51.41 C 46.02 53.57 43.33 57.53 46.93 58.36 M 51.12 52.96 C 50.13 53.92 50.69 55.97 51.98 56.38 C 53.81 56.14 52.82 52.43 51.12 52.96 M 44.78 63.36 C 46.24 64.67 47.74 65.93 49.21 67.23 C 50.91 65.98 52.59 64.72 54.22 63.38 C 51.07 63.22 47.92 63.22 44.78 63.36 Z" />
<path fill="#0e0e0e" opacity="0.29" d=" M 46.93 58.36 C 43.33 57.53 46.02 53.57 46.71 51.41 C 46.89 53.72 46.94 56.04 46.93 58.36 Z" />
<path fill="#161616" opacity="0.44" d=" M 51.12 52.96 C 52.82 52.43 53.81 56.14 51.98 56.38 C 50.69 55.97 50.13 53.92 51.12 52.96 Z" />
</svg>
