<?xml version="1.0" encoding="UTF-8" ?>
<!DOCTYPE svg PUBLIC "-//W3C//DTD SVG 1.1//EN" "http://www.w3.org/Graphics/SVG/1.1/DTD/svg11.dtd">
<svg width="100pt" height="100pt" viewBox="0 0 100 100" version="1.1" xmlns="http://www.w3.org/2000/svg">
<path fill="#333333" opacity="1.00" d=" M 3.11 31.01 C 3.45 23.93 6.23 16.11 12.80 12.54 C 11.40 16.13 9.33 19.84 10.21 23.84 C 10.78 27.42 14.70 29.20 17.96 29.44 C 22.78 29.68 27.63 28.68 32.07 26.86 C 37.39 24.42 43.29 23.77 49.02 23.01 C 54.27 23.08 59.50 24.20 64.56 25.52 C 70.34 28.03 76.62 30.04 83.01 29.35 C 85.99 28.91 89.32 27.08 89.90 23.86 C 90.90 19.84 88.68 16.11 87.24 12.52 C 93.08 15.55 95.63 22.04 96.96 28.11 C 98.55 35.46 93.49 43.73 85.93 45.00 C 82.48 45.98 79.13 44.39 76.01 43.09 C 82.78 49.46 87.84 57.70 90.20 66.71 C 86.12 64.84 81.71 63.55 77.94 61.07 C 76.58 58.95 76.10 56.42 75.34 54.06 C 71.83 59.38 70.07 65.88 65.28 70.30 C 62.12 73.38 60.38 78.41 55.64 79.46 C 51.28 79.98 46.80 80.07 42.45 79.44 C 39.08 77.16 37.70 73.01 34.74 70.29 C 30.35 66.47 28.90 60.60 25.53 56.02 C 24.33 58.18 23.77 61.12 21.27 62.19 C 17.88 63.88 14.31 65.19 10.83 66.69 C 13.27 57.23 18.79 48.75 25.91 42.13 C 22.58 43.94 18.95 46.02 15.00 45.16 C 8.16 44.36 2.76 37.87 3.11 31.01 M 39.85 40.11 C 42.37 43.88 45.26 47.36 47.85 51.08 C 46.34 51.89 44.94 53.49 43.05 53.01 C 37.35 51.77 31.61 48.69 29.02 43.20 C 30.28 47.13 30.91 51.26 30.53 55.39 C 34.41 54.86 38.35 53.97 42.26 54.55 C 43.50 54.68 44.10 55.90 44.89 56.69 C 46.58 55.92 48.23 55.02 50.05 54.56 C 53.22 54.46 55.42 57.11 57.58 59.03 C 51.99 59.63 46.36 59.28 40.76 59.62 C 43.73 61.63 47.22 63.30 50.88 62.98 C 53.62 62.45 56.12 61.16 58.65 60.03 C 57.75 58.28 56.87 56.52 56.01 54.75 C 60.50 54.08 65.03 54.61 69.46 55.39 C 69.35 52.35 69.55 49.31 69.86 46.28 C 65.00 49.72 59.49 54.16 53.12 52.62 C 53.66 46.91 58.87 43.39 62.64 39.68 C 56.91 41.39 53.85 46.93 50.14 51.16 C 47.23 47.04 43.85 43.22 39.85 40.11 M 41.93 63.39 C 42.01 66.03 42.18 68.68 42.44 71.31 C 43.67 70.31 45.48 69.52 45.63 67.72 C 46.57 65.31 43.33 64.56 41.93 63.39 M 55.27 70.52 C 56.38 70.67 57.50 70.82 58.62 70.97 C 58.68 68.49 58.75 66.01 58.75 63.53 C 56.18 65.07 54.59 67.43 55.27 70.52 Z" />
</svg>
