<?xml version="1.0" encoding="UTF-8" ?>
<!DOCTYPE svg PUBLIC "-//W3C//DTD SVG 1.1//EN" "http://www.w3.org/Graphics/SVG/1.1/DTD/svg11.dtd">
<svg width="100pt" height="100pt" viewBox="0 0 100 100" version="1.1" xmlns="http://www.w3.org/2000/svg">
<path fill="#333333" opacity="1.00" d=" M 43.58 14.67 C 49.98 13.54 57.14 13.56 62.76 17.26 C 67.12 20.13 70.82 24.63 71.37 29.97 C 71.92 35.04 70.04 39.94 67.81 44.39 C 66.77 41.14 66.41 37.53 64.34 34.71 C 60.77 33.70 57.02 33.62 53.40 32.86 C 54.23 36.93 55.30 40.95 56.49 44.93 C 50.56 41.94 46.09 36.84 40.25 33.68 C 43.77 36.83 46.51 40.75 50.12 43.79 C 54.48 46.73 59.86 44.61 64.30 43.00 C 62.46 42.35 60.55 41.86 58.80 40.96 C 57.35 39.44 56.58 37.43 55.58 35.61 C 58.37 35.67 62.68 33.51 64.10 36.98 C 65.13 39.38 65.38 42.03 65.84 44.59 C 61.60 45.87 57.40 47.38 53.58 49.67 C 51.83 50.48 49.79 52.32 47.82 51.02 C 43.52 48.60 39.20 46.17 34.47 44.67 C 34.43 39.28 36.48 34.30 38.72 29.50 C 36.61 31.43 34.30 33.33 33.15 36.01 C 31.94 38.94 31.68 42.14 31.14 45.24 C 29.38 41.73 27.38 38.06 27.66 34.01 C 27.86 24.98 34.62 16.40 43.58 14.67 Z" />
<path fill="#333333" opacity="1.00" d=" M 23.85 44.24 C 25.20 43.82 26.56 43.40 27.91 42.98 C 30.00 45.87 31.73 49.12 34.46 51.46 C 37.18 52.94 40.46 52.67 43.34 53.71 C 45.05 54.75 46.36 56.32 47.73 57.76 C 48.30 56.14 48.81 54.50 49.35 52.87 C 50.15 54.77 51.04 56.64 51.82 58.56 C 52.35 56.31 52.01 53.55 53.86 51.85 C 57.32 48.47 62.20 47.35 66.67 45.94 C 66.68 46.56 66.70 47.79 66.71 48.41 C 62.01 48.69 57.10 49.74 54.05 53.67 C 57.96 53.23 61.87 52.65 65.69 51.65 C 66.12 52.84 66.56 54.03 66.99 55.22 C 68.13 51.88 68.74 48.34 70.28 45.15 C 71.31 42.92 74.38 42.72 76.11 44.23 C 77.24 47.63 75.61 51.11 74.13 54.12 C 72.48 57.64 68.84 59.68 67.21 63.21 C 64.74 68.72 60.28 72.95 55.71 76.74 C 53.43 78.56 50.21 80.63 47.34 78.73 C 41.28 74.96 35.98 69.64 32.73 63.24 C 30.83 59.59 27.56 56.84 25.86 53.07 C 24.46 50.34 24.22 47.23 23.85 44.24 M 44.88 63.38 C 46.51 64.92 48.14 66.45 49.77 67.99 C 51.23 66.48 52.72 64.98 54.17 63.46 C 51.07 63.42 47.98 63.41 44.88 63.38 Z" />
<path fill="#333333" opacity="1.00" d=" M 34.26 46.87 C 37.10 47.40 39.84 48.37 42.42 49.67 C 39.48 49.48 36.62 48.69 34.26 46.87 Z" />
</svg>
