<?xml version="1.0" encoding="UTF-8" ?>
<!DOCTYPE svg PUBLIC "-//W3C//DTD SVG 1.1//EN" "http://www.w3.org/Graphics/SVG/1.1/DTD/svg11.dtd">
<svg width="100pt" height="100pt" viewBox="0 0 100 100" version="1.1" xmlns="http://www.w3.org/2000/svg">
<path fill="#333333" opacity="1.00" d=" M 46.59 18.56 C 52.96 17.05 59.33 19.99 64.57 23.37 C 68.40 25.79 70.89 29.68 72.57 33.80 C 74.42 33.80 76.26 33.83 78.11 33.88 C 77.06 37.22 75.33 40.44 75.16 43.99 C 74.98 46.06 76.64 47.56 77.64 49.19 C 75.55 49.37 73.47 49.64 71.37 49.73 C 67.82 49.92 64.49 48.43 61.13 47.54 C 63.75 49.38 66.71 50.77 69.08 52.96 C 70.55 55.84 70.22 59.29 70.75 62.43 C 71.28 59.78 71.63 57.07 72.55 54.51 C 73.83 52.53 76.18 51.60 78.06 50.28 C 80.49 54.47 83.67 58.78 83.36 63.88 C 82.00 66.62 79.15 68.23 76.95 70.24 C 77.17 70.74 77.60 71.72 77.81 72.21 C 79.07 72.55 80.34 72.88 81.60 73.22 C 80.92 72.43 80.25 71.64 79.57 70.86 C 82.85 69.63 85.73 67.60 88.28 65.22 C 87.55 68.12 87.19 71.18 85.78 73.85 C 84.09 76.30 81.59 78.01 79.35 79.91 C 77.51 78.78 75.67 77.65 73.82 76.52 C 71.25 82.47 65.74 85.99 61.10 90.15 C 58.81 91.79 55.80 91.66 53.15 92.23 C 52.16 90.24 51.17 88.25 50.19 86.25 C 52.73 85.92 56.52 86.55 57.43 83.39 C 58.59 80.96 56.56 78.61 55.72 76.41 C 55.71 78.47 55.73 80.53 55.72 82.59 C 53.89 80.95 51.36 79.55 51.05 76.86 C 50.51 73.74 49.67 70.53 46.82 68.75 C 47.65 72.15 48.54 75.54 49.30 78.96 C 45.94 80.24 42.48 81.23 38.89 81.54 C 40.14 80.22 41.40 78.91 42.68 77.62 C 41.35 77.97 40.02 78.31 38.69 78.66 C 38.32 79.33 37.58 80.67 37.21 81.33 C 40.39 83.22 43.91 84.38 47.57 84.92 C 45.76 86.35 43.98 87.89 41.86 88.85 C 37.31 88.26 32.39 86.20 30.03 82.04 C 28.94 80.31 27.97 78.51 26.97 76.73 C 24.98 77.65 23.06 78.78 20.93 79.36 C 14.98 77.17 12.88 70.80 11.87 65.12 C 14.51 67.40 17.34 69.47 20.54 70.92 C 19.90 71.80 19.27 72.68 18.64 73.57 C 20.24 72.60 21.83 71.60 23.40 70.57 C 20.85 68.58 18.31 66.57 15.73 64.62 C 16.32 58.76 19.82 53.98 22.26 48.82 C 22.64 48.59 23.39 48.12 23.76 47.88 C 26.42 52.74 27.76 58.11 29.17 63.42 C 29.36 59.97 29.43 56.50 29.55 53.04 C 33.09 51.12 36.56 49.00 39.45 46.15 C 35.74 47.18 32.16 48.60 28.59 50.03 C 25.33 45.35 24.51 39.60 22.31 34.45 C 24.22 34.26 26.14 34.10 28.05 33.96 C 30.51 25.60 38.58 20.60 46.59 18.56 M 34.11 32.84 C 33.40 33.95 32.70 35.07 31.99 36.19 C 36.09 36.55 40.15 35.85 44.01 34.47 C 44.38 38.07 44.88 41.65 45.56 45.20 C 46.32 40.34 46.85 35.45 47.34 30.55 C 43.10 32.13 38.61 32.71 34.11 32.84 M 52.96 30.56 C 53.20 35.47 53.63 40.38 54.47 45.23 C 55.16 41.56 55.62 37.85 55.79 34.12 C 59.91 35.80 64.35 36.94 68.79 35.77 C 64.77 31.23 58.12 32.84 52.96 30.56 M 42.09 46.58 C 43.41 50.45 46.78 52.80 50.10 54.88 C 52.16 53.45 54.43 52.21 56.12 50.33 C 56.49 48.94 56.53 47.50 56.67 46.08 C 54.42 46.90 52.26 48.08 49.88 48.49 C 47.20 48.25 44.68 47.21 42.09 46.58 M 17.94 64.70 C 20.17 64.19 22.39 63.63 24.60 63.06 C 23.16 62.80 21.70 62.56 20.25 62.33 C 19.87 61.21 19.49 60.10 19.11 58.98 C 18.70 60.88 18.31 62.79 17.94 64.70 M 74.48 62.40 C 76.59 63.61 78.95 64.33 81.39 64.22 C 79.13 63.46 76.83 62.84 74.48 62.40 M 36.69 72.86 C 40.20 72.45 43.43 70.98 45.57 68.09 C 43.21 69.04 40.90 70.13 38.59 71.18 C 37.60 69.01 36.60 66.84 35.54 64.70 C 35.80 67.43 36.23 70.15 36.69 72.86 M 59.65 71.87 C 62.14 71.04 64.60 70.15 67.06 69.26 C 66.76 68.71 66.15 67.61 65.85 67.06 C 63.78 68.66 61.69 70.23 59.65 71.87 M 67.01 72.11 C 66.92 72.87 66.74 74.38 66.64 75.14 C 68.15 75.72 69.66 76.31 71.17 76.90 C 71.37 75.99 71.56 75.08 71.76 74.17 C 70.18 73.48 68.60 72.79 67.01 72.11 Z" />
</svg>
