<?xml version="1.0" encoding="UTF-8" ?>
<!DOCTYPE svg PUBLIC "-//W3C//DTD SVG 1.1//EN" "http://www.w3.org/Graphics/SVG/1.1/DTD/svg11.dtd">
<svg width="100pt" height="100pt" viewBox="0 0 100 100" version="1.1" xmlns="http://www.w3.org/2000/svg">
<path fill="#333333" opacity="1.00" d=" M 34.66 16.60 C 39.14 14.25 43.72 10.92 49.07 11.77 C 54.27 12.44 59.49 11.67 64.69 11.68 C 67.41 13.22 66.73 16.62 66.54 19.19 C 65.03 18.07 63.49 17.00 61.96 15.92 C 62.27 17.28 62.43 18.66 62.53 20.05 C 60.94 20.95 59.34 21.84 57.74 22.74 C 58.58 23.46 59.43 24.18 60.28 24.90 C 61.43 24.52 62.59 24.13 63.75 23.75 C 65.37 24.79 67.02 25.78 68.64 26.82 C 69.01 25.26 69.36 23.69 69.68 22.12 C 72.94 22.10 76.21 22.07 79.47 22.18 C 77.16 23.51 74.75 24.66 72.25 25.60 C 75.58 26.03 78.83 26.91 81.99 28.01 C 78.75 31.05 74.84 33.76 73.07 38.01 C 71.51 42.33 71.13 46.97 69.82 51.36 C 68.94 45.54 69.32 38.90 64.72 34.48 C 67.58 42.36 68.05 50.81 68.73 59.08 C 68.91 67.19 62.01 72.64 56.69 77.72 C 54.01 80.56 49.55 82.23 45.95 80.05 C 42.37 77.73 39.51 74.48 36.53 71.46 C 33.06 67.99 31.59 63.17 28.78 59.24 C 26.03 55.06 21.35 52.41 19.40 47.66 C 15.98 39.91 11.89 32.47 8.62 24.65 C 16.87 28.92 23.94 35.77 27.46 44.46 C 28.49 47.59 28.05 50.94 28.10 54.17 C 31.46 50.85 34.80 47.52 38.03 44.08 C 37.49 46.10 36.73 48.06 36.22 50.09 C 35.26 50.48 34.29 50.86 33.31 51.21 C 33.99 53.14 34.68 55.08 35.28 57.04 C 37.72 56.39 40.23 55.49 42.78 55.89 C 45.28 56.34 46.01 59.14 47.32 60.97 C 47.78 58.27 48.40 55.61 49.17 52.99 C 50.89 55.77 51.45 59.00 51.80 62.20 C 52.44 60.37 53.10 58.56 53.77 56.74 C 58.73 56.40 63.97 55.69 67.45 51.73 C 66.07 51.40 64.68 51.07 63.30 50.75 C 63.20 44.94 62.48 39.08 60.32 33.66 C 59.91 37.82 59.87 42.01 60.03 46.20 C 57.24 41.90 53.23 38.55 48.36 36.88 C 45.31 40.85 42.30 44.88 38.71 48.39 C 39.53 43.65 41.98 39.51 44.69 35.63 C 39.90 39.18 35.64 43.35 31.06 47.16 C 28.57 40.79 24.59 35.26 20.55 29.81 C 23.39 30.75 26.20 31.81 29.00 32.88 C 26.18 29.71 23.52 26.28 22.47 22.09 C 24.41 23.43 26.30 24.84 28.20 26.24 C 27.09 23.77 25.97 21.31 24.92 18.81 C 28.23 18.42 31.70 18.27 34.66 16.60 M 29.40 27.07 C 29.03 28.06 28.67 29.04 28.30 30.03 C 30.29 29.64 32.28 29.27 34.26 28.89 C 32.64 28.28 31.02 27.67 29.40 27.07 M 45.79 66.34 C 46.94 67.86 48.11 69.38 49.28 70.89 C 50.57 69.36 51.86 67.82 53.14 66.28 C 50.69 66.28 48.24 66.30 45.79 66.34 Z" />
<path fill="#333333" opacity="1.00" d=" M 67.33 20.70 C 68.14 17.06 70.56 14.22 73.77 12.44 C 73.42 14.42 73.18 16.45 72.45 18.34 C 71.14 19.75 69.02 19.94 67.33 20.70 Z" />
<path fill="#333333" opacity="1.00" d=" M 77.05 36.03 C 81.10 31.00 86.61 27.49 91.89 23.91 C 88.30 31.58 84.34 39.07 80.89 46.80 C 78.59 52.46 73.21 55.85 69.93 60.85 C 71.15 56.01 72.21 51.13 73.19 46.24 C 73.95 42.68 74.68 38.92 77.05 36.03 Z" />
<path fill="#333333" opacity="1.00" d=" M 48.35 38.53 C 52.13 40.90 55.64 43.68 58.72 46.92 C 55.54 48.96 52.38 52.21 48.27 51.66 C 46.00 51.12 44.21 49.47 42.28 48.25 C 44.29 45.00 46.32 41.76 48.35 38.53 Z" />
<path fill="#333333" opacity="1.00" d=" M 52.21 55.55 C 53.66 52.13 56.57 49.80 59.67 47.95 C 60.08 49.08 60.47 50.22 60.76 51.38 C 57.87 52.68 55.07 54.18 52.21 55.55 Z" />
<path fill="#313131" opacity="0.95" d=" M 40.08 49.97 C 43.45 49.49 45.21 52.60 46.70 55.05 C 44.29 53.74 40.97 52.92 40.08 49.97 Z" />
</svg>
