<svg xmlns="http://www.w3.org/2000/svg" width="100" height="100" version="1.1"><rect id="backgroundrect" width="100%" height="100%" x="0" y="0" fill="none" stroke="none"/>





<g class="currentLayer"><title>Layer 1</title><path fill="#ffffff" opacity="1.00" d=" M 32.19 21.20 C 35.25 19.27 38.19 16.63 41.98 16.41 C 47.67 16.02 53.39 16.04 59.08 16.38 C 63.12 16.55 66.22 19.45 69.48 21.49 C 72.76 23.81 76.46 25.58 79.41 28.36 C 77.96 33.76 75.91 39.03 75.14 44.61 C 77.46 45.40 79.79 46.19 82.10 47.02 C 80.04 51.83 77.80 56.57 75.17 61.10 C 72.04 58.90 68.65 55.60 64.48 56.49 C 62.34 58.16 61.12 60.66 59.81 62.98 C 57.04 68.16 53.85 73.10 50.69 78.05 C 47.32 73.05 44.08 67.95 41.33 62.57 C 40.09 60.32 38.87 57.80 36.55 56.47 C 32.47 55.56 29.23 58.94 26.28 61.19 C 23.52 56.65 21.22 51.85 19.10 46.98 C 21.44 46.18 23.79 45.41 26.14 44.63 C 25.36 39.04 23.19 33.77 22.09 28.26 C 25.09 25.42 28.84 23.57 32.19 21.20 M 27.52 32.56 C 27.76 36.59 28.72 40.53 29.96 44.37 C 35.09 44.72 39.76 46.82 44.20 49.27 C 41.31 41.55 33.99 37.00 27.52 32.56 M 56.76 49.47 C 61.42 46.96 66.26 44.70 71.61 44.19 C 72.55 40.37 73.40 36.52 73.86 32.62 C 67.10 36.91 59.97 41.81 56.76 49.47 M 47.18 50.16 C 46.60 51.37 46.03 52.57 45.45 53.78 C 47.96 57.54 49.40 61.83 50.55 66.16 C 52.44 61.09 56.87 56.23 54.89 50.51 C 53.57 51.75 52.28 53.01 50.98 54.27 C 49.72 52.90 48.45 51.52 47.18 50.16 Z" id="svg_1" class="" fill-opacity="1"/><path fill="#ffffff" opacity="1.00" d=" M 81.49 56.43 C 84.49 50.73 85.48 44.25 88.44 38.54 C 89.59 49.51 84.42 60.27 77.33 68.35 C 76.62 68.00 75.21 67.30 74.51 66.95 C 77.12 63.64 79.66 60.24 81.49 56.43 Z" id="svg_2" class="" fill-opacity="1"/><path fill="#ffffff" opacity="1.00" d=" M 13.20 39.41 C 15.81 44.84 16.92 50.84 19.67 56.21 C 21.60 60.41 24.56 64.00 27.16 67.79 C 21.41 68.26 19.11 62.22 16.96 58.02 C 13.95 52.31 12.32 45.88 13.20 39.41 Z" id="svg_3" class="" fill-opacity="1"/><path fill="#ffffff" opacity="1.00" d=" M 28.33 67.32 C 29.58 64.96 30.77 62.56 32.02 60.19 C 33.65 62.40 35.22 64.65 36.78 66.92 C 37.59 66.40 38.39 65.89 39.20 65.38 C 42.20 72.53 44.91 79.83 46.66 87.41 C 42.33 83.65 38.03 79.86 34.23 75.56 C 32.64 77.34 31.06 79.12 29.46 80.89 C 28.99 79.61 28.53 78.33 28.06 77.06 C 29.87 75.37 31.68 73.69 33.48 72.00 C 31.78 70.42 30.06 68.86 28.33 67.32 Z" id="svg_4" class="" fill-opacity="1"/><path fill="#ffffff" opacity="1.00" d=" M 64.73 66.81 C 66.18 64.54 67.66 62.28 69.19 60.07 C 70.41 62.51 71.56 64.98 72.75 67.43 C 71.15 68.88 69.49 70.29 68.14 71.98 C 69.63 73.92 71.46 75.55 73.18 77.27 C 72.59 78.51 72.01 79.75 71.42 80.99 C 70.09 79.13 68.76 77.28 67.42 75.43 C 63.45 79.58 59.22 83.47 54.82 87.15 C 56.30 79.67 59.11 72.58 61.98 65.55 C 62.90 65.97 63.81 66.39 64.73 66.81 Z" id="svg_5" class="" fill-opacity="1"/></g></svg>