<svg xmlns="http://www.w3.org/2000/svg" width="100" height="100" version="1.1"><rect id="backgroundrect" width="100%" height="100%" x="0" y="0" fill="none" stroke="none"/>



<g class="currentLayer"><title>Layer 1</title><path fill="#ffffff" opacity="1.00" d=" M 45.20 20.66 C 46.74 16.93 48.22 13.17 49.82 9.46 C 51.47 13.20 53.02 16.98 54.69 20.71 C 53.70 20.63 52.71 20.55 51.72 20.47 C 51.76 23.02 51.81 25.57 51.89 28.11 C 56.95 26.42 62.59 21.94 67.93 25.13 C 73.00 28.35 76.79 33.76 83.08 34.83 C 83.34 33.19 83.62 31.55 83.93 29.92 C 85.23 30.45 86.57 30.88 87.94 31.15 C 87.88 32.59 87.76 34.04 87.57 35.47 C 84.77 36.36 81.67 36.65 79.18 38.29 C 75.99 41.44 73.89 45.56 70.48 48.53 C 71.76 44.06 74.73 40.40 77.53 36.79 C 73.11 32.96 68.60 27.24 62.12 27.90 C 58.56 29.22 55.64 31.90 51.91 32.87 C 51.55 46.05 51.56 59.25 51.92 72.43 C 55.66 67.82 58.50 62.42 63.19 58.65 C 61.00 64.47 55.96 68.61 53.52 74.24 C 53.79 78.03 54.86 81.72 55.35 85.49 C 53.33 84.61 51.26 83.24 48.96 83.66 C 47.35 84.00 45.91 84.86 44.42 85.53 C 44.82 81.79 45.46 78.04 46.91 74.55 C 43.47 69.09 39.15 64.21 36.19 58.45 C 41.21 62.07 44.05 67.71 47.91 72.39 C 48.28 59.23 48.31 46.04 47.90 32.88 C 43.11 31.83 39.46 26.61 34.23 28.08 C 29.52 29.65 26.07 33.43 22.29 36.47 C 24.96 40.24 27.74 44.01 29.36 48.38 C 25.93 45.53 23.85 41.48 20.69 38.40 C 18.21 36.82 15.16 36.56 12.55 35.25 C 12.16 33.73 12.07 32.15 11.97 30.59 C 13.42 30.50 14.87 30.43 16.32 30.37 C 16.46 31.87 16.59 33.37 16.71 34.87 C 23.07 33.76 26.87 28.28 32.02 25.06 C 37.31 22.04 42.85 26.35 47.81 28.09 C 47.94 25.57 48.06 23.04 48.16 20.51 C 47.17 20.57 46.19 20.62 45.20 20.66 Z" id="svg_1" class="selected" fill-opacity="1"/><path fill="#ffffff" opacity="1.00" d=" M 35.03 35.84 C 37.02 35.53 39.02 35.21 41.02 34.90 C 41.51 37.33 41.98 39.75 42.45 42.18 C 38.44 44.26 35.52 47.86 34.77 52.35 C 36.70 53.39 38.63 54.44 40.53 55.53 C 38.01 56.02 35.38 56.16 32.98 57.14 C 28.47 63.01 26.99 70.65 22.55 76.58 C 19.84 79.64 16.20 81.64 12.84 83.89 C 13.62 78.52 13.68 72.63 17.11 68.12 C 20.38 63.63 23.88 59.31 27.02 54.73 C 25.74 54.33 24.46 53.92 23.18 53.52 C 23.17 53.11 23.15 52.29 23.14 51.89 C 25.19 51.46 27.42 51.43 29.29 50.38 C 33.26 46.62 33.80 40.87 35.03 35.84 Z" id="svg_2" class="selected" fill-opacity="1"/><path fill="#ffffff" opacity="1.00" d=" M 58.89 34.75 C 60.88 35.17 62.87 35.59 64.85 36.03 C 65.88 40.40 66.47 45.10 69.13 48.87 C 70.84 51.72 74.58 51.60 77.42 52.41 C 76.01 53.33 74.57 54.18 73.07 54.93 C 76.08 59.53 79.56 63.80 82.80 68.24 C 86.18 72.73 86.22 78.58 87.03 83.91 C 82.76 81.02 77.74 78.50 75.38 73.66 C 72.51 67.97 69.90 62.15 66.83 56.57 C 64.31 56.34 61.80 56.08 59.29 55.78 C 61.20 54.56 63.16 53.42 65.14 52.31 C 64.11 47.93 61.41 44.23 57.42 42.10 C 57.89 39.64 58.38 37.19 58.89 34.75 Z" id="svg_3" class="selected" fill-opacity="1"/></g></svg>