<svg xmlns="http://www.w3.org/2000/svg" width="100" height="100" version="1.1"><rect id="backgroundrect" width="100%" height="100%" x="0" y="0" fill="none" stroke="none"/>



<g class="currentLayer"><title>Layer 1</title><path fill="#ffffff" opacity="1.00" d=" M 45.12 15.92 C 44.98 11.35 46.99 7.15 49.07 3.21 C 50.71 6.62 52.49 10.13 52.66 13.99 C 53.22 25.68 52.57 37.39 52.93 49.08 C 52.94 52.93 55.40 56.03 57.59 58.95 C 55.80 60.43 54.03 61.93 52.28 63.47 C 57.68 64.14 63.13 64.15 68.55 64.37 C 64.16 68.70 57.65 68.07 52.34 70.39 C 50.72 77.28 50.90 84.67 52.84 91.48 C 50.30 92.63 47.69 92.49 45.12 91.56 C 46.89 84.56 47.70 76.68 45.08 69.84 C 39.89 67.82 33.58 68.63 29.40 64.33 C 34.78 64.18 40.19 64.41 45.54 63.62 C 44.18 62.49 42.81 61.38 41.43 60.28 C 43.07 56.72 44.72 53.04 44.81 49.05 C 45.07 38.01 45.17 26.97 45.12 15.92 Z" id="svg_1" class="selected" fill-opacity="1"/><path fill="#ffffff" opacity="1.00" d=" M 12.09 47.98 C 12.19 30.97 25.51 15.04 42.43 12.46 C 42.17 14.42 42.26 16.47 41.51 18.33 C 38.44 20.06 35.10 21.26 31.90 22.74 C 35.04 32.97 40.17 42.62 41.99 53.23 C 35.81 45.11 31.76 35.64 26.44 26.97 C 20.32 32.56 16.67 40.37 15.90 48.60 C 21.52 50.86 27.14 53.12 32.86 55.13 C 35.39 55.90 37.46 57.58 39.60 59.06 C 31.45 58.96 23.85 55.62 15.83 54.58 C 16.63 61.20 19.22 67.41 23.15 72.77 C 28.78 71.61 34.58 70.89 40.27 72.17 C 36.24 74.15 32.04 75.73 27.86 77.36 C 32.60 80.94 38.19 82.99 43.51 85.50 C 25.59 83.16 11.46 65.92 12.09 47.98 Z" id="svg_2" class="selected" fill-opacity="1"/><path fill="#ffffff" opacity="1.00" d=" M 55.59 12.46 C 72.50 15.13 85.67 30.99 85.87 47.99 C 86.35 65.89 72.40 83.08 54.49 85.50 C 59.70 83.01 65.23 81.05 69.76 77.36 C 65.77 75.67 61.71 74.14 57.79 72.29 C 63.41 70.97 69.16 71.60 74.73 72.77 C 78.64 67.39 81.26 61.18 82.12 54.57 C 76.42 55.42 70.91 57.06 65.31 58.33 C 63.40 58.89 61.53 58.02 59.64 57.84 C 66.78 54.01 74.62 51.76 82.05 48.58 C 81.29 40.34 77.33 32.83 71.71 26.86 C 66.02 35.39 62.13 45.02 55.93 53.21 C 57.69 42.61 62.79 32.95 66.03 22.76 C 62.82 21.28 59.46 20.11 56.36 18.39 C 55.80 16.46 55.76 14.44 55.59 12.46 Z" id="svg_3" class="selected" fill-opacity="1"/></g></svg>