<?xml version="1.0" encoding="UTF-8" ?>
<!DOCTYPE svg PUBLIC "-//W3C//DTD SVG 1.1//EN" "http://www.w3.org/Graphics/SVG/1.1/DTD/svg11.dtd">
<svg width="100pt" height="100pt" viewBox="0 0 100 100" version="1.1" xmlns="http://www.w3.org/2000/svg">
<path fill="#333333" opacity="1.00" d=" M 43.41 13.16 C 46.25 11.69 47.95 8.87 49.78 6.37 C 51.46 8.80 52.49 12.30 55.63 13.20 C 57.26 13.80 58.93 14.24 60.60 14.71 C 62.49 20.87 63.02 27.31 64.41 33.58 C 65.04 36.95 65.98 40.32 65.87 43.78 C 63.59 47.51 59.08 48.95 55.48 51.11 C 55.69 54.08 56.90 57.37 55.23 60.13 C 53.82 62.58 51.96 64.73 50.16 66.89 C 48.37 64.63 46.44 62.42 45.14 59.83 C 43.95 57.18 44.56 54.20 44.55 51.40 C 41.06 49.25 37.74 46.84 34.36 44.52 C 34.79 37.82 36.70 31.34 37.64 24.71 C 38.18 21.70 38.47 18.58 39.65 15.72 C 40.62 14.53 42.15 14.00 43.41 13.16 M 45.46 31.00 C 46.87 33.08 48.30 35.14 49.83 37.12 C 51.38 35.38 52.91 33.63 54.48 31.90 C 53.19 29.35 51.81 26.84 50.10 24.54 C 48.46 26.62 46.94 28.80 45.46 31.00 Z" />
<path fill="#333333" opacity="1.00" d=" M 27.77 21.74 C 30.78 20.14 33.23 17.69 35.99 15.71 C 35.16 21.72 33.68 27.62 32.59 33.58 C 31.91 36.90 31.40 40.47 29.12 43.13 C 25.77 47.11 22.85 51.75 22.20 57.02 C 22.03 58.30 23.03 59.34 23.60 60.39 C 26.23 64.20 29.18 67.79 32.38 71.13 C 32.73 65.98 30.48 61.28 28.76 56.58 C 32.90 60.30 37.05 64.07 40.57 68.39 C 42.13 70.19 42.02 72.70 42.15 74.93 C 42.23 80.31 42.14 85.69 41.94 91.07 C 33.94 83.39 26.80 74.88 19.01 66.99 C 16.69 64.65 14.52 62.18 12.36 59.69 C 14.87 50.52 22.15 42.68 21.59 32.77 C 21.16 28.20 18.70 24.17 17.17 19.91 C 20.69 20.56 24.16 21.74 27.77 21.74 Z" />
<path fill="#333333" opacity="1.00" d=" M 64.34 15.54 C 67.04 17.56 69.47 19.96 72.40 21.66 C 76.04 21.83 79.57 20.60 83.13 20.04 C 81.46 25.00 78.19 29.79 78.89 35.24 C 79.67 44.13 85.75 51.26 87.96 59.73 C 81.13 67.61 73.68 74.93 66.69 82.67 C 64.07 85.61 61.33 88.43 58.47 91.13 C 58.43 84.78 58.14 78.42 58.47 72.08 C 58.47 69.56 60.35 67.68 61.94 65.95 C 65.25 62.54 68.59 59.14 72.15 55.99 C 70.22 61.06 66.48 65.87 67.49 71.60 C 71.48 67.28 75.59 62.87 78.37 57.65 C 78.20 54.72 76.93 51.97 75.68 49.36 C 73.66 45.13 69.33 42.18 68.62 37.32 C 67.19 30.06 65.52 22.84 64.34 15.54 Z" />
</svg>
