<?xml version="1.0" encoding="UTF-8" ?>
<!DOCTYPE svg PUBLIC "-//W3C//DTD SVG 1.1//EN" "http://www.w3.org/Graphics/SVG/1.1/DTD/svg11.dtd">
<svg width="100pt" height="100pt" viewBox="0 0 100 100" version="1.1" xmlns="http://www.w3.org/2000/svg">
<path fill="#333333" opacity="1.00" d=" M 35.93 10.40 C 42.80 10.58 49.60 8.35 56.45 9.61 C 59.91 10.13 63.41 10.21 66.88 10.57 C 70.32 10.90 72.97 13.36 75.63 15.29 C 67.78 16.18 59.88 15.59 52.00 15.73 C 42.91 15.66 33.82 15.93 24.74 15.58 C 28.05 13.13 31.55 10.20 35.93 10.40 Z" />
<path fill="#333333" opacity="1.00" d=" M 23.25 17.43 C 41.32 17.65 59.40 17.44 77.47 17.54 C 77.59 23.40 77.59 29.27 77.58 35.14 C 74.15 35.26 70.72 35.30 67.29 35.29 C 67.16 36.73 67.10 38.20 66.63 39.58 C 65.52 41.48 62.90 40.88 61.06 41.21 C 52.00 41.32 42.94 41.43 33.88 41.18 C 33.22 39.31 32.58 37.43 32.01 35.53 C 29.37 35.38 26.74 35.23 24.11 35.06 C 23.55 29.20 23.29 23.31 23.25 17.43 M 46.50 19.42 C 39.44 23.17 40.46 35.62 48.42 37.57 C 55.53 39.21 60.52 30.37 57.79 24.36 C 56.42 19.78 50.82 16.98 46.50 19.42 Z" />
<path fill="#333333" opacity="1.00" d=" M 47.02 21.00 C 49.66 19.40 53.54 20.20 55.10 22.92 C 56.08 24.74 56.55 26.77 57.15 28.74 C 54.80 27.94 52.51 26.80 50.02 26.50 C 47.72 26.60 45.50 27.31 43.25 27.75 C 44.21 25.39 44.55 22.32 47.02 21.00 Z" />
<path fill="#333333" opacity="1.00" d=" M 43.58 30.34 C 45.68 29.46 47.75 28.39 50.00 27.96 C 52.27 28.43 54.33 29.55 56.44 30.46 C 54.95 32.76 53.18 35.60 50.01 35.36 C 46.84 35.51 45.16 32.57 43.58 30.34 Z" />
<path fill="#333333" opacity="1.00" d=" M 15.88 66.12 C 11.62 54.80 13.20 41.05 21.22 31.76 C 20.41 38.39 16.36 44.20 16.26 50.97 C 15.47 61.17 19.66 71.66 27.56 78.23 C 32.14 74.91 37.12 71.84 42.84 71.09 C 41.66 72.87 39.98 74.23 38.02 75.08 C 34.24 76.77 30.78 79.08 27.57 81.69 C 22.00 78.02 17.79 72.54 15.88 66.12 Z" />
<path fill="#333333" opacity="1.00" d=" M 80.27 34.66 C 85.58 42.46 86.52 52.58 84.59 61.64 C 82.91 69.62 77.96 76.47 71.92 81.78 C 67.43 77.26 60.87 75.78 56.47 71.24 C 62.29 71.85 67.22 75.15 71.99 78.24 C 78.61 71.99 83.02 63.22 82.97 54.01 C 83.34 47.39 79.97 41.28 80.27 34.66 Z" />
<path fill="#333333" opacity="1.00" d=" M 21.85 52.01 C 22.03 46.78 23.22 40.53 28.19 37.74 C 29.98 39.92 31.36 42.81 34.25 43.71 C 36.95 44.92 40.82 45.86 41.31 49.33 C 42.04 54.38 41.73 59.52 41.83 64.61 C 37.88 66.25 34.01 68.08 30.17 69.95 C 25.39 65.20 21.67 58.95 21.85 52.01 Z" />
<path fill="#333333" opacity="1.00" d=" M 64.14 44.29 C 67.65 43.13 69.97 40.12 72.42 37.55 C 75.68 42.38 78.02 48.09 77.29 54.02 C 76.92 60.28 73.32 65.68 68.99 69.97 C 65.31 68.14 61.60 66.36 57.82 64.74 C 57.86 59.57 57.58 54.35 58.49 49.25 C 58.88 46.39 61.80 45.21 64.14 44.29 Z" />
<path fill="#333333" opacity="1.00" d=" M 41.18 43.09 C 47.02 43.29 52.87 43.30 58.71 43.05 C 54.14 47.14 55.47 53.55 55.06 59.00 C 54.92 65.84 54.13 72.69 54.54 79.53 C 54.84 83.53 58.54 87.81 55.59 91.57 C 52.49 96.59 43.80 94.73 42.91 88.90 C 43.19 84.53 45.80 80.55 45.39 76.06 C 45.06 67.71 44.57 59.36 44.48 50.99 C 44.64 47.95 42.93 45.39 41.18 43.09 Z" />
</svg>
