<?xml version="1.0" encoding="UTF-8" ?>
<!DOCTYPE svg PUBLIC "-//W3C//DTD SVG 1.1//EN" "http://www.w3.org/Graphics/SVG/1.1/DTD/svg11.dtd">
<svg width="100pt" height="100pt" viewBox="0 0 100 100" version="1.1" xmlns="http://www.w3.org/2000/svg">
<path fill="#333333" opacity="1.00" d=" M 47.60 9.28 C 47.60 7.09 49.56 5.74 50.92 4.30 C 54.23 10.20 51.84 17.01 52.62 23.35 C 57.20 23.15 61.77 22.63 66.35 22.43 C 62.45 25.66 58.07 28.26 54.23 31.56 C 61.12 31.32 67.68 28.78 74.54 28.52 C 76.49 34.37 75.49 40.62 75.67 46.66 C 80.66 44.98 85.58 43.08 90.59 41.43 C 83.92 48.50 74.64 53.09 69.76 61.77 C 64.72 70.00 57.44 76.53 49.78 82.27 C 41.87 76.64 34.61 69.85 29.47 61.54 C 24.48 52.94 15.16 48.42 8.44 41.40 C 13.60 43.11 18.67 45.07 23.77 46.96 C 23.57 40.68 23.43 34.36 24.48 28.14 C 31.89 29.33 39.18 31.40 46.71 31.66 C 42.99 28.12 38.31 25.82 34.53 22.35 C 39.10 22.52 43.64 23.09 48.20 23.34 C 48.24 18.65 47.39 13.98 47.60 9.28 M 26.28 30.59 C 26.20 38.84 25.12 47.58 28.66 55.32 C 33.27 65.20 41.22 73.13 49.83 79.63 C 58.01 72.88 66.06 65.35 70.59 55.58 C 74.26 47.78 73.42 38.90 73.09 30.55 C 65.44 31.89 57.84 33.97 50.01 33.86 C 41.96 34.09 34.15 31.91 26.28 30.59 Z" />
<path fill="#333333" opacity="1.00" d=" M 29.81 34.86 C 36.48 36.05 43.18 37.48 50.00 37.43 C 56.56 37.42 63.01 36.03 69.45 34.89 C 69.43 41.07 69.95 47.55 67.41 53.36 C 63.68 62.10 56.75 68.87 49.79 75.10 C 41.99 68.53 34.38 60.84 31.09 50.95 C 29.60 45.73 29.85 40.23 29.81 34.86 Z" />
<path fill="#333333" opacity="1.00" d=" M 44.23 82.46 C 47.79 83.72 51.57 83.83 55.14 82.55 C 53.30 86.09 51.55 89.68 49.74 93.24 C 47.81 89.69 45.98 86.09 44.23 82.46 Z" />
</svg>
