<?xml version="1.0" encoding="UTF-8" ?>
<!DOCTYPE svg PUBLIC "-//W3C//DTD SVG 1.1//EN" "http://www.w3.org/Graphics/SVG/1.1/DTD/svg11.dtd">
<svg width="100pt" height="100pt" viewBox="0 0 100 100" version="1.1" xmlns="http://www.w3.org/2000/svg">
<path fill="#333333" opacity="1.00" d=" M 28.76 22.72 C 29.98 20.61 32.09 22.74 33.56 23.43 C 35.36 24.37 35.54 26.57 36.18 28.27 C 38.53 26.18 41.06 24.31 43.74 22.66 C 43.59 28.60 44.85 34.41 47.14 39.87 C 45.79 40.98 44.45 42.09 43.10 43.19 C 44.90 43.54 46.69 43.92 48.47 44.37 C 46.95 46.97 46.42 49.92 47.30 52.84 C 49.00 52.64 51.37 53.08 52.16 51.08 C 53.19 48.67 51.86 46.08 51.46 43.67 C 53.07 43.52 54.67 43.39 56.28 43.25 C 54.94 42.10 53.59 40.96 52.24 39.83 C 54.59 34.43 55.83 28.62 55.54 22.72 C 58.27 24.22 60.81 26.04 63.11 28.14 C 63.55 26.81 63.89 25.42 64.57 24.17 C 66.32 22.80 68.60 22.41 70.69 21.79 C 71.98 24.90 72.84 28.36 70.57 31.25 C 73.95 32.00 77.44 32.98 80.93 32.39 C 83.23 31.38 85.08 29.61 87.05 28.10 C 87.54 36.70 88.82 46.65 82.81 53.76 C 79.76 58.60 76.01 63.21 70.39 65.10 C 70.35 61.02 70.63 56.78 69.10 52.91 C 67.99 49.77 65.68 47.30 63.40 44.94 C 60.52 49.60 58.79 54.96 55.13 59.13 C 50.47 64.97 48.69 72.41 47.61 79.64 C 45.86 82.87 41.90 84.19 38.95 86.16 C 38.69 82.12 38.20 78.05 38.73 74.02 C 39.71 69.02 43.22 64.99 44.54 60.12 C 41.51 55.24 38.88 50.13 36.23 45.03 C 29.86 49.58 28.48 57.77 29.05 65.09 C 25.54 63.48 21.96 61.62 19.83 58.25 C 17.20 54.21 13.26 50.62 12.71 45.57 C 12.04 39.76 12.38 33.89 12.46 28.05 C 14.34 29.62 16.07 31.51 18.36 32.49 C 21.74 33.18 25.18 32.28 28.41 31.30 C 27.55 28.53 26.69 25.20 28.76 22.72 Z" />
<path fill="#333333" opacity="1.00" d=" M 50.01 80.60 C 50.94 74.82 53.46 69.50 56.21 64.40 C 58.13 67.38 60.28 70.45 60.71 74.07 C 61.12 78.07 60.74 82.11 60.55 86.12 C 56.87 84.62 53.36 82.74 50.01 80.60 Z" />
</svg>
